<?xml version="1.0"?>
    
<!--********* Copyright (c) 2024 Pareto Softare, LLC DBA Simplemaps.com ***************************************
************* Free for Commercial Use, full terms at  https://simplemaps.com/resources/svg-license ************
************* Attribution is appreciated! https://simplemaps.com *******************************************-->

<svg baseprofile="tiny" fill="#6f9c76" height="762" stroke="#ffffff" stroke-linecap="round" stroke-linejoin="round" stroke-width=".5" version="1.2" viewbox="0 0 1000 762" width="1000" xmlns="http://www.w3.org/2000/svg">
 <g id="features">
  <path d="M719.8 228.4l-1 0.8-0.7 0.8-0.6 1-0.9 1.7-0.5 0.8-0.5 0.6-0.9 0.6-0.3 0.6-0.3 0.9-0.5 2.9-0.1 1.4-0.2 0.8-0.3 0.8-1.9 2.8-0.5 1.1-0.3 0.4-0.4 0.3-0.9 0.5-0.9 0.4-0.4 0.2-0.3 0.5-0.3 0.7-0.2 1.2 0.2 0.9 0.3 0.5 1.4 0.8 0.5 0.4 0.4 0.4 0.3 0.5-0.1 0.5-0.3 0.6-1.9 1.7-1.2 2.1-2.3 1.1-1.2-0.1-0.4-0.2-0.5 0-0.4 0.2-0.3 0.3-0.6 1.3-0.2 0.7 0.1 0.5 0.1 0.5 0 0.5-0.1 0.8 0.1 0.4 0.4 0.8 0.1 0.5 0.1 0.9 0.2 1.1 0.1 0.5-0.1 0.5-0.2 0.4-0.7 1.2-0.2 0.4-0.5 0.2-0.8-0.1-3.2-0.8-2.2 0.3-1.8-0.6-1-1.1-1.3-1.7-0.4-0.3-0.6 0.1-0.6 0.5-1.1 1.4-0.3 0.8 0 0.6 0 0.4 0 0.4-0.1 0.4-0.2 0.4-0.4 0.5-0.6 0.5-1.4 0.7-1.6 0.6-2.2-0.3-0.3-0.9-0.2-1.2 0-0.6 0.1-1.3 0.1-0.7 0.3-1.3 0.7-1.6 0.1-0.5 0-0.6 0-0.6-0.3-0.6-0.5-0.6-2.7-3.1-0.3-0.5-0.1-0.6-0.1-1-0.1-0.5-0.2-0.5-0.5-0.4-0.6-0.3-2.9-1-1.8-1-0.7-0.1-0.8 0.1-1.2 0.5-0.6 0.5-1.6 1.3-1.5 0.5-4-0.7 0.5-1.1 0-0.8 0.5-3.9 0.2-1.3 0.3-3.4 1.2-3.5 0.6-0.6 0.2-0.3 0.3-0.4 0.4-0.8 0.2-0.2 0.2-0.2 1.5-0.6 2.7-1.8 0.7-0.6 1.2-1.5 0.4-0.3 3.2-1.7 0.3-0.4 0.1-0.6-0.4-1-1.3-1.9-0.3-0.5-0.2-0.7 0-0.6 0.4-0.7 0.5-0.8 0.1-0.3-0.1-0.8 0.1-0.6 0.6-2.2 0.3-1.3 0.1-0.5 0.2-0.4 0.7-1.1 0.2-2.2-0.3-8.3-0.5-0.8-0.3-0.2-0.6-0.3-0.6-0.3-2.2-0.2-2.4 0.3-0.5-0.1-4.1-1.3-2.1-0.4-0.4 0-1.3 0.3-0.7-0.4-1-0.8-4.3-5.3-3.6-2.7-2.5-1.4-0.3-0.4-0.2-0.6 0.2-2.8-0.1-0.7-0.2-0.9-0.8-2-0.3-1.9-0.5-1.3-0.3-1.8-0.1-2.9 0.4-3.4-0.1-17.3 0-0.6 0.2-0.3 0.8-0.7 0.5-0.2 0.4-0.3 0.2-0.3 0.1-0.7 0-0.5 0.9-1.5 1.7-0.7 0.5-0.4 0.3-0.2 0.3-1.2 1.5-2.5-1.5-2.6-1-1.2-2.4-1.8-0.5-0.8-0.4-0.9-0.1-1.6 0.3-1.8-0.1-0.8-0.3-1.1-1.4-3.8-0.2-2.1 0.4-4.5 0.5-2.1 0.3-0.6 0.7-1 0.3-0.3 0.2-0.3-0.1-0.3-0.6-0.2-0.5-0.1-0.6-0.1-0.3-0.1-0.2-0.8-0.2-1.6-0.3-8.2 0.4-1.6 0-0.1 0.2 0.2 0.6 0.3 2 0.3-0.4-0.6 1.7 0.3 1.9 0.7 1.9 0.3 1.8-0.7 2.2-2.7 0.4-0.3 0.2-0.7 0.9-2.3 0.1 0 1.2-0.1 0.2 0.1 0.4-0.3 0.1-0.2 0.4-0.6 0-0.5 0-0.8-0.1-0.6 0.3-0.3 0.3-0.2 0.8-1.2 0.1-1 0.2-0.6 0.2-0.7-0.1-1.2-0.6-2.3-0.1-1.1 0.3-0.9-0.6-0.6-0.6-0.8-0.4-1.1-0.2-1.1-0.4-0.7-2.1-0.6-0.7-0.4-1.1-1.7-0.8-2.3-0.3-2.4 0.7-2.1 1.3 1.1 1.4 0.3 1.5-0.3 1.4-0.5-0.4-0.7-0.3-0.6 0-0.7 0.3-0.8 0.4-0.2 0.8-0.2 0.6-0.2 0.4-0.8 0.3-0.4 0.3-0.2 1.2-0.6 0.5-0.4 2.9-3.8 2.8-2.9 0.6-0.5 2.2-0.9 0.6-0.7 0.8-1.3 1.6-4.4 1.9-3.7 0.6-2 0.7-0.4 0.9-0.3 0.6-0.3 0.9-2.7 0-0.7-0.1-0.8 0-0.9 0.3-0.7 0.6-0.3 1.4 0.1 0.6-0.3 2.3-1.7 0.5-1-1.3-0.9 0-0.6 1.2-0.7 3.7-0.4 0.7-1.4 0.5-0.5 1-0.3 2 0 0.6 0.1 1 0.4 0.6 0 0.4-0.2 0.2-0.3 0.4-0.4 0.7-0.1 2.6 1.2 1.5 0.4 0.7-0.8-0.2-1.8 0.4-0.6 1.5-0.1 0.8 0.3 0.7 0.4 0.7 0.6 0.6 0.7 0.4 0.6 0.5 1.5 0.5 0.6 0.6 0.6 0.5-0.1 0.5-0.2 0.7 0 0.8 0.2 1.8 0.9 2.4 1.8 3.9 4 5.2 2.2 2.2 1.5 1.5 2.3 0.4 3.6-0.4 1.8-1.1 3.5-0.4 2.3-1.2 2.3-0.9 3.3-1.8 3.6-0.5 2-0.6 1.8-0.1 0.9 0.3 1 0.3 0.2 0.5-0.2 0.6 0.1 2.4 2 1.4 0.5 1.2-0.7 1.2-0.8 7.7-2.7 2.3 0.1 1.9 1.4 1.9 2.3-0.5 0.6 0.2 1 0.1 1.7 0 1.9-0.3 1.4-1 1.5-2.3 1.5-0.5 1.4 0.1 0.8 0.6 1.6 0.1 0.9-0.1 0.8-0.7 2.5-0.3 2.4-0.2 0.9-0.3 0.6-0.8 1.1-0.2 0.4-0.3 3.5 0.9 6.4-0.6 3.2-0.7 1.8-0.2 1.1 0.5 3.1 0.1 3.3-0.2 1.7-0.3 1-0.1 2.2-2.3 4 0.2 1.9-0.4 0.7-0.4 1.2-0.5 3.3-0.1 4.8 0.1 0.9 0.4 0.9 1.1 1.7 0.2 0.9 0 3.3 0.2 1.7 0.5 1.4 3.6 5.8 0.6 1.6 0.5 3.6 0.5 1.6 0.7 1.5 0.8 1.4 2.1 2.2 2.7 1.5 2.9 0.6 3.1 0 3.1-0.6 2.5-1 18.3-13.7 1.6-1.8 2.2-1.2 0.5-0.6 1-1.4 0.6-0.7 2.5-1.8 6.4-2.6 2.8-0.5 4.4 0.8 2.1-1.1 9.4-1.4 0.6-0.8 0.3-1.5 2.7-4.1 2.9-6.2 1.9-2.6 2.5-1.5 3-0.6 1.5-0.5 1.4-1.7 4.5-2.7 4.6-0.5 1.2-0.9 0.8-1.1 1-2.3 1-1.2 2.4-1.9 0.6-0.2 1.4 0.5 0.6-0.3 3.1-3.3 1-0.8 1.3-0.4 1.6-0.2 1.5 0.2 1 0.7 1.1 0.3 3.9-2.2 2.8-0.1 7.6 2.8 4.4 1.2 2.7-0.1 2.3 0.3-0.4 2-0.1 0.7 0 3.3-0.4 1.2-1.1 1.2-1.1 0.9-0.9 0.5-2.4 0.2-1.4 0.5-1.3 1.2-0.8 1.5 0.3 1.7 1 0.6 2.7-0.8 1.3 0.1 0.4 0.4 0.9 1.3 0.5 0.3 0.6-0.1 1.1-0.8 0.6-0.2 1.4 0.1 1 0.3 0.9-0.2 2.4-2.3 1.3-0.3 2.7-0.4 3.5-1.6 1.4-0.3 4.7-1.8 7-1.4 1.6-0.6 1.1-1.4 0.1-2.7 1.1-1.1 1.6 0 1.9 0.5 1.5-0.2 0.7-2.2 0.4 1.1 0.7-0.6 0.7 0 0.6 0.4 1 1.6 0.6 0.2 0.7 0 1.8 0.3 1.1-0.2 1.2-0.1 1.4 0.6 2.3 0.7 0.5 0.1 0.6 0 6.4-0.4 1.8-1.1 8.1 5 1.8 2 2.9 4.9 1.6 1 0 0.1-1.9 0.5-2.9 0.7-0.2 0-0.2-0.3-0.2-0.6-0.2-0.2 0.1-0.5-0.2-0.5 0-0.2-0.4-0.4-0.7-0.2-0.2-0.2 0-0.4-0.6-0.4-0.8-1.1-0.4-0.1-0.3-0.7-0.4-0.6-1-0.1-0.8 0.5-0.7 0.9-1.4 1.3-0.3 0.2-1.3 0.1-0.3 0.4-0.1 0.2-0.5-0.4-0.1-0.2-0.3-0.4-0.1 0.3-0.9 0.5-0.1 0-1.5 0.1 0 0.4 0.1 0.3-0.1 0.1-0.8 0.1-0.7 0.2-0.2 0-0.3-0.3-0.4 0-0.1-0.1-0.4-0.4-0.3 0.4-0.3 0.2-0.6-0.1-0.4-0.1-0.4 0.2-0.7 0.4 0 0.2-0.1 0.3-0.7 0.4-0.7 1.2-0.6 1.6-0.7 1-0.9 0.6-1.3 0.2-2.4-0.3-0.9 0.3-0.2 1.6 1.1 1.7 2 1.4 3.9 2 1.1 1.3 0.7 1.5 0.9 1.4 1.5 0.7 0.3 0.4 0.1 0.6-0.1 0.5-0.2 0.6-0.5 2.5-1 0.3-1.2-1.1-1.1-1.7-0.3-0.2-0.2-0.2-1.2-0.4-1.4 0.1-2.6 0.7-1.6 1.4-5.3 3.4-3.1 2.5-1.5 0.5-4.2-0.5-1 0.3-0.9 0.7-0.4 1.1-0.3 2.7-0.6 0.8-3.7 1.2-1.9 0-1.8-0.7-1.9-0.5-5.2-3.3-2-0.8-3.8-0.7-3.9-0.2-0.1 0-4.4-0.2-8.2 1.4-2.1-0.3-2-0.3-4.1 0.6-3.1-0.2-3.1 1.1-0.9 0.1-0.9-0.1-1.9-0.5-2-0.2-9.4 1-1 0.4-1.6 1-0.7 0.4-0.9-0.1-1.9-0.8-1.6 0.4-1.5 0.8-1.8 0.6-5.6 0.2-5.3-0.7-4.2 0.3-4 0.9-3.1 1.6-4 3.4-1.3 0.3-2.9-0.2-2.6 0.9-2.8 0.2-5.5 1.2-2.8 1.2-1 0.8-0.3 1 1 1.5 0.4 1.3-1.1 0.6-3.7 0.5-1.5 0.6-0.8 0.4-0.5 0.6 0.1 0.7 0.2 0.6-0.1 0.8-1 0.9-2.6 0.7-1.3 0.7-1 1.1-3 1.7-0.8 0.7-0.8 0.8-0.8 0.7-1 0.4-4.1 0.3-1.3 0.8 0.1 2.5 1 2.1 0.2 1.1-0.7 0.9-1 0.3-1 0.1-1-0.4-1.8-2-3.7-2.4-1.2-0.6-1.2 0.2-0.6 0.6-0.8 2.5-0.5 1.2-0.5 0.9-1.6 1.5-0.3 1.2 0.6 1.2 0.4 1.1-1.2 0.6-1.6 0.3-1.1 0.5-1.1 0.7-4.8 5.4-1.3 1-4 1.4-0.3 0.5-0.3 1.7-0.5 0.7-0.6 0.5-1.9 0.9-2.5 1.6-0.3 0.6-0.3 1.6-0.3 0.7-2.1 2.1-0.6 1.2 0.3 1.2z" id="AFBDS" name="Badakhshan">
  </path>
  <path d="M646.2 108.5l0 0.1-0.4 1.6 0.3 8.2 0.2 1.6 0.2 0.8 0.3 0.1 0.6 0.1 0.5 0.1 0.6 0.2 0.1 0.3-0.2 0.3-0.3 0.3-0.7 1-0.3 0.6-0.5 2.1-0.4 4.5 0.2 2.1 1.4 3.8 0.3 1.1 0.1 0.8-0.3 1.8 0.1 1.6 0.4 0.9 0.5 0.8 2.4 1.8 1 1.2 1.5 2.6-1.5 2.5-0.3 1.2-0.3 0.2-0.5 0.4-1.7 0.7-0.9 1.5 0 0.5-0.1 0.7-0.2 0.3-0.4 0.3-0.5 0.2-0.8 0.7-0.2 0.3 0 0.6 0.1 17.3-0.4 3.4 0.1 2.9 0.3 1.8 0.5 1.3 0.3 1.9 0.8 2 0.2 0.9 0.1 0.7-0.2 2.8 0.2 0.6 0.3 0.4 2.5 1.4 3.6 2.7 4.3 5.3 1 0.8 0.7 0.4 1.3-0.3 0.4 0 2.1 0.4 4.1 1.3 0.5 0.1 2.4-0.3 2.2 0.2 0.6 0.3 0.6 0.3 0.3 0.2 0.5 0.8 0.3 8.3-0.2 2.2-0.7 1.1-0.2 0.4-0.1 0.5-0.3 1.3-0.6 2.2-0.1 0.6 0.1 0.8-0.1 0.3-0.5 0.8-0.4 0.7 0 0.6 0.2 0.7 0.3 0.5 1.3 1.9 0.4 1-0.1 0.6-0.3 0.4-3.2 1.7-0.4 0.3-1.2 1.5-0.7 0.6-2.7 1.8-1.5 0.6-0.2 0.2-0.2 0.2-0.4 0.8-0.3 0.4-0.2 0.3-0.6 0.6-3.9-1.8-1.8-1.4-0.4-0.1 0 0.2 0.1 0.6 0 0.7-0.4 0.9-0.7 0.9-0.8 0.9-0.8 0.8-1.4 0.7-4.4 0.5-2.6 1-1 0.6-0.3 0-0.1-0.1-0.1-0.5 0-0.3-0.1-0.1-0.2-0.1-0.8-0.3-0.3-6-0.3-0.7-0.5-0.7-0.9-1.2-0.4-0.6-0.1-0.6 0-0.5 0-0.2 0-0.2-0.2-0.3-0.2-0.2-0.5-0.5-0.4-0.5-0.6-1.5-0.2-0.4 0-0.2 0-0.4 0-0.2-0.2-0.4-1.1-2.1-1.3-1.6-3.7-3.5-0.7-9-0.7-1.5-0.9-0.2-1.6 0.1-0.2 0-0.2-0.1-0.3-0.1-0.3-0.3-0.2-0.5-0.2-0.7-0.2-1.2 0-1.6 0-0.8-0.3-0.9-1-2.9-0.6-0.2-1.6 1.3-2 1.2-3.8 1.6-1 0.1-1 0.3-0.8 0.5-4.2 3.3-2.6 0.8-2.2-0.1-0.6 0.1-0.4 0.2-0.2 0.2-0.2 0.1-0.2 0-0.1-0.1-0.3-0.4-0.3-0.2-0.6 0-0.3 0.1-0.3 0.2-0.5 0.5-0.2 0.1-0.2-0.2-0.3-0.3-0.6-1-0.3-0.8-0.4-1-0.2-0.4-0.4-0.2-0.8-0.1-1.1-0.3-0.8-1.1 0-1.3-0.1-0.6-0.3-0.8-0.6-1.2-0.2-0.8 0-1.1 0.1-0.7-0.1-0.7-0.2-0.6-0.6-0.8-0.7-1.3-0.7-2.9-0.7-1.1-0.5-0.7 0-0.3 0.1-0.3 0.9-0.9 0.8-0.4 0.3-0.1 0.1-0.2 0.1-0.2 0.1-0.2 0.1-0.2 0.1-0.2 1.8-1.5 0.3-0.3 0.3-0.4 0.2-0.6 0.4-1.7 1.3-2.7 0-0.6 0-0.8-0.8-1.6-0.4-0.6-0.1-0.2-0.2-0.2-0.1 0-0.3 0-0.3-0.2 0-0.3 0.1-0.7 0-0.6-0.1-0.6-0.3-0.7-0.5-1-0.1-0.2 0-0.3 0-0.3 0.1-0.1 0.4-0.5 0.1-0.6 0.1-1.6-0.2-1.6 0-0.6 0.1-0.3 0.8-0.9 2.9-0.3 0.2-0.1 0.2-0.1 0.7-0.9 0.7-2.2 0.8-11.1 0-0.6-0.2-1.1-0.1-0.7 0-0.8 0.4-1.8 0.2-0.3 1.1-1.6 0-0.4-0.1-0.4-1.7-2-0.1-0.3 0.2 0 0.8-0.3 0.6-0.6 1.1-1.2 2.5-1.7 1.1-1 2.1-3.6 0.2-1-1.1-0.3-1.1-0.5 0.5-1.7-0.5-0.7-0.4-2.8-0.6-1.2-0.3-0.5-0.2-0.7-0.1-0.7 0-0.8 0.1-0.2 0.1-0.1 0.2-0.1 0-0.4-0.2-0.4-0.6-0.1-0.1-0.3 0-3 0.1-1.5 0.4-1.3 0.3-0.4 0.9-0.6 0.5-0.5 0.2-0.4 0.4-0.9 0.3-0.4 2.8-2.1 1.3-1.3 1.1-3.4 1.3-0.5 8.6 0.8 1.4-0.3 2.7-1.2 1.5-0.2 0.5 0.1 1.4 0.4 0.5 0.4 0.7 0.3 0.6-0.3 0.7-0.6 0.6-0.3 1.3-0.3 2.6-1.4 1.5 0.1 1.1 0.9 0.5 1.3 0.7 1.1 1.4 0.5 0.8 0.2 0.3 0.4 0.2 0.5 0.4 0.3z" id="AFTAK" name="Takhar">
  </path>
  <path d="M521.3 158.1l0.5 0.1 0.7-0.3 0.7-0.5 4.1-3.6 0.8-0.5 1.2-0.5 1-1 1.2-1 1.6-0.2 2.6 0.9 1.5 0 0.7-1.2-0.4-3.3-0.1-1.6 0.5-1.3 1.2-0.9 1.2 0.1 1.2 0.5 1.3 0.3 1.6-0.2 1.3-0.6 0.4-1.2-0.9-1.8 3.9-0.3 3-0.7 0.7-0.1 0.5-0.3 0.9-1.5 0.3-0.4 1.3-0.1 2.3-0.8 1.2-0.2 0.2-0.6 0.4-1.2 0.7-1.2 1.5-0.2-0.4-1-0.2-0.3-0.3-0.3 0.7-0.9 1.2 0 2.4 0.3 1.3-0.1 0.8 0.1 0.8 0.3 2.3 1.5 0.8 0.1 0.2-0.8-0.1-1.7-0.8-2.4 0.3-0.9 1.4-0.4 1.3 0.3 0.7 1 0.6 1.3 0.8 1.1 0.9 0.5 0.7-0.2 0.3-0.7-0.2-1.2-0.3-0.3-1-0.8-0.4-0.5-0.3-1 0.1-0.2 0.4 0.1 0.2 0.1 4.3 0.5 1.3 0.7 1.3 1.2 0.9 1.4 1 2.8 1.2 1.2 1.5 0.9 1.1 1 1.1 2.8 0.6 0.7 1.4 0.9 0.3 0.2 6 4 1.3-0.1 1.2-0.6 1.5-0.3 0.1 0.3 1.7 2 0.1 0.4 0 0.4-1.1 1.6-0.2 0.3-0.4 1.8 0 0.8 0.1 0.7 0.2 1.1 0 0.6-0.8 11.1-0.7 2.2-0.7 0.9-0.2 0.1-0.2 0.1-2.9 0.3-0.8 0.9-0.1 0.3 0 0.6 0.2 1.6-0.1 1.6-0.1 0.6-0.4 0.5-0.1 0.1 0 0.3 0 0.3 0.1 0.2 0.5 1 0.3 0.7 0.1 0.6 0 0.6-0.1 0.7 0 0.3 0.3 0.2 0.3 0 0.1 0 0.2 0.2 0.1 0.2 0.4 0.6 0.8 1.6 0 0.8 0 0.6-1.3 2.7-0.4 1.7-0.2 0.6-0.3 0.4-0.3 0.3-1.8 1.5-0.1 0.2-0.1 0.2-0.1 0.2-0.1 0.2-0.1 0.2-0.3 0.1-0.8 0.4-0.9 0.9-0.1 0.3 0 0.3 0.5 0.7 0.7 1.1 0.7 2.9 0.7 1.3 0.6 0.8 0.2 0.6 0.1 0.7-0.1 0.7 0 1.1 0.2 0.8 0.6 1.2 0.3 0.8 0.1 0.6 0 1.3-0.8-1.3-0.3-0.4-0.3-0.5-0.5-0.3-0.8-0.4-2.4-0.6-1.1-0.2-2.5-0.9-1.3-0.8-1.8-1.6-0.7-1-0.5-0.5-0.7-0.6-0.1 0-0.1-0.2 0-0.2-0.8-0.3-3-0.6-1.6-0.3-0.3 0.1-0.3 0.1-1.8 1.1-0.5 0.2-0.4 0.1-0.6-0.1-0.6-0.4-2.8-2.2-4-5.1-0.8-1.7-3.9 0.5-1 0.4-0.6 0.1-0.8-0.1-5.3-1.5-10.3-0.7-3.4 0.2-0.5-0.2-1.6-0.9-3.1-0.7-2-0.6-1.2-1.2-0.4-1.8-0.5-0.9-0.8-1.2-1.3-1.2-1-0.7-0.4-0.5-1.7-3-3.4-8.3-0.1-0.6-0.1-4.6-0.7-3.2 0.1-0.2z" id="AFKDZ" name="Kunduz">
  </path>
  <path d="M521.3 158.1l-0.1 0.2 0.7 3.2 0.1 4.6 0.1 0.6 3.4 8.3 1.7 3 0.4 0.5 1 0.7 1.3 1.2 0.8 1.2 0.5 0.9 0.4 1.8-5.1 2.1-1.8 0.4-12.5-1.8-3.1-0.4-1.4-0.5-0.9-0.5-0.3-0.3-2-1.2-3.6-1.8-0.9-0.3-1 0.1-1 0.2-1.8 0.8-0.9 0.2-7.2-0.7-0.9 0.4-0.8 2.1-0.7 0.7-2.9 0.8-1.3 0.7-0.6 0.5-0.5 0.5-0.2 0.3-0.1 0.2-0.1 0.2 0.1 0.2 0.1 0.2 1.1 1.5 1.7 3.5 0.1 0.6 0 0.9-1.5 4.1-0.9 3.8-0.1 3.5-0.4 2.9-0.3 0.5-0.5 0.6-1 0.8-0.5 0.6-0.3 0.5-0.1 0.4 0.1 0.2 0.1 0.4 0.1 0.5 0.1 0.5-0.2 1.1-0.3 0.5-0.4 0.5-1.3 1.3-1.1 1.2-0.6 0.6-0.5 0.4-0.9 0.3-3.4 0.5-1.1 0.4-6 4.6-1.3 1.2 0 0.1 0 0.2 0.1 0.3 0.1 0.2 0.3 0.3 0.4 0.3 0.1 0.1 0.1 0.2 0.1 0.3 0 0.9 0.1 0.1 0.2 0.5 0.4 0.7 1.7 2.3 0.2 0.6 0 0.7-0.2 1.5-0.3 0.9-0.3 0.6-0.4 0.4-1 0.5-0.5 0.4-0.3 0.6-0.2 0.8-0.3 0.5-0.3 0.4-0.8 0.6-0.8 1-2.4 2.9-1.4 1-2.3 1.1-0.6 0.6-0.5 0.6-1 1.9-0.3 0.7-0.1 0.7-0.1 0.6 0.1 0.8-3.2 1.9-1 0.5-0.9 0.3-0.5 0.2-0.5 0.4-0.6 0.1-6.9 0.6-0.4-0.1-0.3-0.2-0.2-0.3-0.3-0.8-0.1-0.2-0.1-0.1-0.1-0.1-0.1-0.1-0.1 0-9 1.7-0.9-0.1-0.2-0.4 1.4-4 0.6-1.2 0.4-0.6 0.6-0.7 0.5-0.5 0.3-0.2 0.9-0.3 0.3-0.2 0.1-0.1 0.1-0.2 0.1-0.1 0.5-1.5 1.7-3.5 0.4-1.4 0.1-1-0.1-1.4-1.1-7.7-0.2-0.8-1-1.4 0-1.1 0-0.9 0.1-0.4 0.1-0.3 0.1-0.2 0.4-0.6 0.1-0.2 0-0.2 0-0.2-0.2-0.7 0-0.5 0-3 0.1-0.4 0.2-0.6 0-0.4 0-0.4-0.2-1.1-0.2-0.3-0.3-0.2-0.7-0.2-1.5 0.1-1-0.2-0.4-0.2-2.6-2.2-1.9-0.9-0.3-0.4 0-0.2 0.1-0.5 0.1-0.2 0.8-1.1 2.1-3.2 0.4-0.7 0.7-1 0.1-0.4 0.3-1 1.6-3.2 0.1-0.6 0.4-1.7 0.1-0.4 0.1-0.4 1.1-2 0.7-1 0.3-0.4 1.5-1.4 0.5-0.6 0.7-1.3 0.2-0.3 0.6-0.6 0.2-0.3 0.8-1.5 0.2-0.4 0.1-0.5 0-0.3 0-0.3-0.2-0.4-0.2-0.3-0.3-0.3-0.3-0.2-1.8-0.7-6.9-1.3-1.5-1.3-1.5-1.5-0.5-1.1-0.3-1.2-0.3-4.2-0.8-0.8-0.5-0.4-1.2-0.9-0.3-0.6 0-0.5 0.5-0.8 0.6-0.5 2.2-1 0.3 0 0.3 0 0.3 0.1 1.3 0.5 0.3 0 0.4 0 0.4-0.2 1.1-0.7 0.3-0.1 1-0.1 0.3-0.2 0.2-0.4 0.1-0.7-0.6-2.3-0.3-0.8-0.7-1-0.2-0.8 0-0.6 0.1-0.3 0.1-0.3 0-0.3-0.3-0.5-0.4-0.6-1.5-1.8-1.7-2.9-0.9-1.6-0.3-1.4 0.3-1.9 0.5-2.2 1.3-3.9 0.1-0.4 0.1-0.1 0.2-0.7 0-0.4-0.5-1.4-3-3.2-0.8-1.2-0.2-0.2-0.2-1.2 0-0.7 0-0.3-0.2-0.4-0.1-0.3-0.3-0.5-0.3-0.7-0.3-0.8-0.5-0.5-0.6-0.5-2.2-1.3-0.6-0.2-0.9 0-3.9-1.1-0.7-0.3-0.2-0.1-0.1-0.2-0.3-0.3-0.1-0.2-0.1-0.5 0-0.5 0.1-2.5 0.8 0.8 0.5 0.2 2.3 1.6 1 0 1.3-0.3 3.6 0 2 0.4 1-0.4 1-0.5 0.5 0 0.6 0 1.4-0.7 0.7-0.2 2.5-1.1-0.1-0.7-0.8-0.4 1.6-0.1 1.5 0.2 4.2 1.7 0.8 0.2 1.7 0.1 0.6-0.3 1.3-1.1 0.6-0.2 8.3-0.4 5.8-1.4 3 0.1 1.2 0.6 2.5 1.8 1.3 0.4 0.8 0.7 1.1 3.4 0.6 1.2 1.2 0.8 2.8 1.1 1.3 1.2 0.6 1.4 0.5 1.4 0.7 1.2 1.4 0.6 1.4-0.3 2.4-1.5 1.7-0.4 1.5-0.1 1.4-0.4 1.2-0.7 1.3-0.9 2.1-2.1 1.1-0.9 1.3-0.4 1.5 0.8 1.2 3.2 1 1 0.7-0.3 0.5-0.8 0.4-0.7 0.4-0.4 0.6-0.1 1.2-0.4 0.7 0 0.8 0.2 1.3 1 0.7 0.4 0.8 0.1 2.3-0.1 1.3 0.3 1.1 0.7 0.8 1 0.2 1.5-0.5 5.1 0.1 1.2 0.7 1 1.5 1.1 1.5 0.8 2.9 0.7 0.9 1 0.6 1.3 1 1.7 0.7 0.6 1.5 0.8 0.6 0.5 2.2 2.7 0.3 0.6 0.3 0.7 0.3 0.6 0.6 0.4 0.3 0z" id="AFBAL" name="Balkh">
  </path>
  <path d="M409.2 124.3l-0.1 2.5 0 0.5 0.1 0.5 0.1 0.2 0.3 0.3 0.1 0.2 0.2 0.1 0.7 0.3 3.9 1.1 0.9 0 0.6 0.2 2.2 1.3 0.6 0.5 0.5 0.5 0.3 0.8 0.3 0.7 0.3 0.5 0.1 0.3 0.2 0.4 0 0.3 0 0.7 0.2 1.2 0.2 0.2 0.8 1.2 3 3.2 0.5 1.4 0 0.4-0.2 0.7-0.1 0.1-0.1 0.4-1.3 3.9-0.5 2.2-0.3 1.9 0.3 1.4 0.9 1.6 1.7 2.9 1.5 1.8 0.4 0.6 0.3 0.5 0 0.3-0.1 0.3-0.1 0.3 0 0.6 0.2 0.8 0.7 1 0.3 0.8 0.6 2.3-0.1 0.7-0.2 0.4-0.3 0.2-1 0.1-0.3 0.1-1.1 0.7-0.4 0.2-0.4 0-0.3 0-1.3-0.5-0.3-0.1-0.3 0-0.3 0-2.2 1-0.6 0.5-0.5 0.8 0 0.5 0.3 0.6 1.2 0.9 0.5 0.4 0.8 0.8 0.3 4.2 0.3 1.2 0.5 1.1 1.5 1.5 1.5 1.3-2.4 1.2-0.4 0.1-0.8 0.1-0.8 0-1.9 0.1-4.8 1.3-7.4 1.3-6 0.3-2.5-0.7-1.7 0.2-1.5 0.6-2.7 1.7-0.4 0.3-0.2 0.3-0.6 0.9-0.6 0.8-0.6 0.3-5.8 1.2-1.8 0.8-3.8 2.9-3.2 3.3-1.5 1-1.4 0.5-6.9 0.9-3.4 0-1 0.7-0.3 0.4-0.3 0.7 0 0.7 0 0.7 0.4 2.6 0 0.6-1.1 12.6 1.5 1.4 0.8 1.2 0.2 0.7 0.3 0.8 0.1 0.7 0 0.5-0.7 1.9-0.1 1.5 0.2 0.6 0.4 0.3 8.1-1.2 0.6-0.2 0.4-0.2 0.5-0.4-0.1 0.5-0.1 0.7-0.1 0.4-0.2 0.3-0.2 0.2-0.2 0.3-0.2 0.2-0.2 0.1-1.1 0.5-1.1 0.7-0.5 0.3-1.8 0.6-0.2 0.2-0.7 0.5-0.2 0.1-0.2 0-0.4-0.2-0.6-0.5-0.5-0.5-0.3-0.3-0.3-0.6-0.1-0.2-0.2-0.2-0.3 0-0.3 0.1-0.5 0.2-0.1 0.2-0.1 0.3-0.1 0.3 0 0.2-0.2 0.2-0.3 0.4-0.3 0.6-0.5 0.5-0.2 0.2-0.3 0.1-4.4 0.6-3-0.4-2.9-1-0.3-0.3-0.6-0.4-0.2 0-0.3 0-0.6 0.2-0.7 0.4-0.2 0-0.2-0.1-0.2-0.4 0-0.5-0.1-0.2-0.1-0.2-0.3-0.1-0.3 0.1-0.6 0.1-2.6 0.3-0.6 0.3-0.6 0.5-0.3 0.1-0.5 0-0.7-0.1-1.1-0.4-1.9-1.6-0.3-0.3-0.3-0.4-0.1-0.3-0.1-0.3 0-0.4 0-0.4 0.1-0.4 0.2-0.3 0.4-0.4 1-0.8 1.3-0.5 0.2-0.2 0.4-0.3 0.4-0.5 0.8-1.1 0.2-0.5 0.1-0.4-0.3-1-0.5-2.6 0.7-0.8 0.3-0.2 0.5-0.4 0.2-0.3 0.4-0.8 0.6-0.8 0.2-0.4 0.1-0.5 0-0.9 0-0.5-0.1-0.5-0.2-0.5-0.1-0.5 0-0.6 0-3.6 1.9-7.4 0.2-0.6 0.5-0.5 0.4-0.3 1.2-0.4 10.4-0.3 0.7 0.1 0.2 0 0.1-0.2 0.1-0.3 0.3-0.6 1.2-0.6-0.7-1.6-0.2-0.8-0.4-1.8-0.8-2.5-1-1.6-0.1-0.6-0.1-0.7 0.4-2.4 0.7-2.5 0-0.3-0.1-0.3-0.4-0.6-0.3-0.4-0.4-0.3-1.6-0.9-0.3-0.3-0.3-0.4-0.2-0.3 0-0.3 0.1-0.3 0.5-0.5 0.4-0.3 0.3-0.6 0.2-0.5 0.8-3.4 0.6-2.4 0.4-1.9 0-0.4 0-0.4-0.3-0.7-0.3-0.7-0.9-1.2-0.5-0.5-0.4-0.6-0.2-0.5-0.7-3.3-3.3-4.2-0.5-2.3 0-1.2 0-1.1 0.4-2.5 1.8-5.8 7.3-13 0.3-0.6 0.9 0 2.2-1.2 2.9-4 1.8-1.9 0.8-1.1 0.4-1.6-0.1-1.7-0.5-3.5 0.1-0.4 0.4-0.6 0.5-0.1 0.3-2.7 0.4-0.6 0.7 0 0.6-0.4 0.5-0.6 0.1-1.1 0.4-0.3 0.4-0.8 0.1-0.1 0.4-0.1 2.6 0 0.8-0.7 0.4 0.2 0.2-1.2 0.4 0.1 0 0.5-0.3 0.5 0.1 0.1 0.2 0.3 0.9 0.4 0.9 0.1 0.4 0.2 0.5 1.4 0.5 0.4 2.9 1.1 1.9 0.9 1.7 0.2 1-0.1 1.6 0.3 2.9 1.2 1.5 0.3 1.9 0.8 0.9 0.6 0.4 0.5 0.8 0.3 0.8 0.5 0.7 0.9 0.3 1.5 0.9 0.7 1 0.6 0.9 0.3 0.5 0 1-0.2 0.3 0 0.5 0.4 2.6 0.7 0.2 0.2z" id="AFJOW" name="Jawzjan">
  </path>
  <path d="M361.1 133.1l-0.3 0.6-7.3 13-1.8 5.8-0.4 2.5 0 1.1 0 1.2 0.5 2.3 3.3 4.2 0.7 3.3 0.2 0.5 0.4 0.6 0.5 0.5 0.9 1.2 0.3 0.7 0.3 0.7 0 0.4 0 0.4-0.4 1.9-0.6 2.4-0.8 3.4-0.2 0.5-0.3 0.6-0.4 0.3-0.5 0.5-0.1 0.3 0 0.3 0.2 0.3 0.3 0.4 0.3 0.3 1.6 0.9 0.4 0.3 0.3 0.4 0.4 0.6 0.1 0.3 0 0.3-0.7 2.5-0.4 2.4 0.1 0.7 0.1 0.6 1 1.6 0.8 2.5 0.4 1.8 0.2 0.8 0.7 1.6-1.2 0.6-0.3 0.6-0.1 0.3-0.1 0.2-0.2 0-0.7-0.1-10.4 0.3-1.2 0.4-0.4 0.3-0.5 0.5-0.2 0.6-1.9 7.4 0 3.6 0 0.6 0.1 0.5 0.2 0.5 0.1 0.5 0 0.5 0 0.9-0.1 0.5-0.2 0.4-0.6 0.8-0.4 0.8-0.2 0.3-0.5 0.4-0.3 0.2-0.7 0.8 0.5 2.6 0.3 1-0.1 0.4-0.2 0.5-0.8 1.1-0.4 0.5-0.4 0.3-0.2 0.2-1.3 0.5-1 0.8-0.4 0.4-0.2 0.3-0.1 0.4 0 0.4 0 0.4 0.1 0.3 0.1 0.3 0.3 0.4 0.3 0.3 1.9 1.6 1.1 0.4 0.7 0.1 0.5 0 0.3-0.1 0.6-0.5 0.6-0.3 2.6-0.3 0.6-0.1 0.3-0.1 0.3 0.1 0.1 0.2 0.1 0.2 0 0.5 0.2 0.4 0.2 0.1 0.2 0 0.7-0.4 0.6-0.2 0.3 0 0.2 0 0.6 0.4 0.3 0.3 2.9 1 3 0.4 4.4-0.6 0.3-0.1 0.2-0.2 0.5-0.5 0.3-0.6 0.3-0.4 0.2-0.2 0-0.2 0.1-0.3 0.1-0.3 0.1-0.2 0.5-0.2 0.3-0.1 0.3 0 0.2 0.2 0.1 0.2 0.3 0.6 0.3 0.3 0.5 0.5 0.6 0.5 0.4 0.2 0.2 0 0.2-0.1 0.7-0.5 0.2-0.2 1.8-0.6 0.5-0.3 1.1-0.7 1.1-0.5 0.2-0.1 0.2-0.2 0.2-0.3 0.2-0.2 0.2-0.3 0.1-0.4 0.1-0.7 0.1-0.5 1.6-1.4 1-0.3 0.4 0.1 0.4 0.1 0.4 0.2 0.3 0.3 0.3 0.3 0.2 0.3 0 0.3-0.1 0.2-0.4 0.6-0.1 0.2 0 0.1 0.1 0.6 0 0.2-0.1 0.2-0.1 0.2-0.2 0.2-0.2 0.3-0.1 0.3 0.3 0.7 0.3 0.4 0.6 0.3 0.2 0.2 0.1 0.1 0.3 1.2 0.6 1.5 0.2 0.2 0.2 0.2 0.4 0.1 0.1 0.1 0.1 0.2 0 0.4 0.6 2.8 0 0.7 0.1 0.1 0 0.1 0.2 0 0.2 0.1 0.3 0.2 0.1 0.1-0.1 0.2-0.5 0.7-0.2 0.4-0.2 0.5-0.1 0.8-0.2 0.5-0.1 0.2-0.1 0.1-1.1 0.4-2.2 0.3-1.6-0.4-1.1-0.1-0.3 0-0.4 0.1-0.4 0.2-0.2 0.2 0 0.3 0.3 0.6 0.1 0.4 0 0.5-0.3 1.1-0.2 0.6-0.4 0.6-0.3 0.4-1.4 2.3-1.2 1.6-0.8 0.4-0.3 0-0.4 0-1.9-0.5-2-0.2-0.6 0.1-0.5 0.1-2 1.6-0.3 0.5-0.3 0.4 0 0.4 0 0.6 0 0.1 0 0.3-0.4 0.7-0.2 0.6 0 0.2 0 0.2 0.1 0.3 0.8 2.6 0.1 0.5 0 0.2 0 0.2-0.1 0.3-2 3.8-0.8 2.4-0.3 0.5-0.3 0.3-0.9 0.6-0.2 0.2-0.1 0.3-0.2 1.9-0.2 2.2 0.3 1.5 0 0.7-0.2 1.4 0 0.9 0.2 1.2 0.7 2.4 0.3 0.6 0.2 0.5 1.4 1.7-2 1.5-2 2.1-0.4 0.3-3.1 1.2-0.9 0-0.5-0.2-0.3-0.2-0.2-0.2-0.3 0-0.3 0-1.1 0.5-0.1 0.1-0.2 0-0.1 0.1-0.2 0-0.2-0.1-0.3-0.4 0-0.3 0-0.2 0.3-0.4 0.1-0.2 0-0.3-0.1-0.3-0.6-1.1-0.2-0.3-0.4-0.3-0.3-0.2-0.4 0.1-0.4 0.3-0.5 0.5-0.2 0.1-0.7 0.2-0.2 0-1.2-0.6-0.2-0.1-0.6-0.6-0.4-0.2-0.8-0.4-0.6-0.4-0.5-0.2-0.6 0-1.1 0.4-0.9 0.5-0.5 0.4-1.7 1-2.3 0.5-0.2 0.1-0.1 0-0.1-0.1-0.2-0.4 0-0.3 0-0.3 0-0.2-0.1-0.2-0.4 0-0.5 0.1-4.8 1.8-0.4 0.1-0.5-0.1-0.7-0.3-1.4-1.4-0.4-0.2-0.7-0.1-3 0.4-4.8 1.7-0.7 0.3-1.5 0.3-2.1 0.1-1.8 0.3-1.2 0-6.5-0.8-6-2.1-0.4-0.2-0.1-0.3-0.2-1 0.1-1.3 0.3-2.8 0-1.3 0-0.7 0.6-2.4 0.2-1.7 0.1-1-0.1-0.8-0.5-0.4-2.8 0.4-2.3 0.7-0.7 0.1-1.2 0.3-0.5 0-0.6-0.3-2.3-1.3 0-0.6 0.4-0.6 0.1-0.2 0.2-0.3 0-0.4-0.1-0.4-0.2-0.5-0.3-0.5-0.4-0.4-3.8-0.7-10.1-0.7-0.7-0.4-0.3-0.2-0.3-0.3-0.2-0.3-0.1-0.3 0-0.4 0.2-0.8 0-0.6 0.1-0.8-0.3-5.4-0.3-1.3-0.5-1.5-0.8-1.6-0.8-0.9-1.1-1.1-0.6-0.5-0.6-0.3-0.8-0.3-0.8-0.2-0.4-0.1-0.4-0.2-0.1-0.6 0.2-0.9 0.6-1.9 0.9-1.5 0.1-0.4-0.1-1.6 0.2-1.4 0.6-1.6 1.1-5.1 0.2-3-0.1-3.4-0.6-2.4-0.5-0.2 1.6-0.5 5.8 2.2 0-0.8 1.4 0.9 0.2-0.4 0-0.2-0.2-0.1 0.1-0.6 0.1-0.2-0.1-0.3 0.1-0.4-0.1-0.1-0.4 0.2 0.1-0.5-0.3-0.4 0.1-0.7-0.2-0.2 0.1-0.3-0.1 0-0.1-0.5 0.2-0.6-0.3-0.4 0.3-0.4-0.2-0.5 0.2-0.5-0.2-0.4 0.2-0.4-0.1-0.3 0-0.1 0.4 0.1 0.5-0.4 0.2 0.1 0.3-0.2 0.2-0.4 0-0.2 0.3-0.4 0.2-0.4 0.3-0.2 0.3 0 0.2 0.4 0.5 0.1 0.7-0.4 0.3-0.6 0.6-0.3 0.3-0.3 0.2 0 0.1-0.3 0.7 0.1 0.1-1.1 0.1-0.1 0.1 0.1 0.2-0.1 0.4-0.1 0.4 0.1 0.2 0 0.5 0.2 0.4-0.5 0.1 0 0.2 0.1 0-0.1 0.8 0.1 0.1 0.1 0.2 0 0.2 0 0.1 0.1 0.2 0.4 0.4 0 0.3 0.5 0.2-0.1 0.1-0.3 0.3-0.2 0.4 0.2 0.8 0.2 0.2-0.2 0.4 0 0.1 0.2 0.4 0.1 0.3-0.5-0.1-0.2 0.2 0 0.3-0.5 0.3-0.3 0-0.3 0.1-0.4 0.2-0.4 0.1 0 0.1-0.4 0.2 0 0-0.5 0.1 0 0-0.3 0.1-0.1-0.1-0.2 0.3-0.4 0.2 0.2 0.3-0.1 0.7-0.2 0-0.2 0.5 0 0.2-0.5 0.2 0.1 0.1-0.1 0.3-0.1-0.1-0.3 0.1 0 0-0.2 0.2 0.1 0.2-0.1 0-0.2 0.3 0 0.2-0.1 0.2 0.1 0.3-0.3 0.3 0.1 0.4 0.3 0.1-0.3 0.1 0 0.1-0.2 0.6 0.2 0.2-0.3 0.2 0 0.1-0.2 0.2 0 0 0.1 0.2 0.1 0.2-0.4 0.2 0.1 0.1-0.2 0.4-0.1 0.5 0.1 0.3-0.1 4-3.7 4.5-4.8 0.7-2.1 2.9-5-1.1-11.1 0.2-1.6-0.2-2.6 5.6-12.5 3.1-5.5 2.6-4.5-2.4-13.4 0-0.1 1.2-2 1.8-1.4 11.4-6.1 4.4-1.5 0.4-0.1 8-0.2 4.6-0.1 0.3 0.1 0.2-0.1 13.6-0.4z" id="AFFYB" name="Faryab">
  </path>
  <path d="M262.7 229.2l0.5 0.2 0.6 2.4 0.1 3.4-0.2 3-1.1 5.1-0.6 1.6-0.2 1.4 0.1 1.6-0.1 0.4-0.9 1.5-0.6 1.9-0.2 0.9 0.1 0.6 0.4 0.2 0.4 0.1 0.8 0.2 0.8 0.3 0.6 0.3 0.6 0.5 1.1 1.1 0.8 0.9 0.8 1.6 0.5 1.5 0.3 1.3 0.3 5.4-0.1 0.8 0 0.6-0.2 0.8 0 0.4 0.1 0.3 0.2 0.3 0.3 0.3 0.3 0.2 0.7 0.4 10.1 0.7 3.8 0.7 0.4 0.4 0.3 0.5 0.2 0.5 0.1 0.4 0 0.4-0.2 0.3-0.1 0.2-0.4 0.6 0 0.6 2.3 1.3 0.6 0.3 0.5 0 1.2-0.3 0.7-0.1 2.3-0.7 2.8-0.4 0.5 0.4 0.1 0.8-0.1 1-0.2 1.7-0.6 2.4 0 0.7 0 1.3-0.3 2.8-0.1 1.3 0.2 1 0.1 0.3 0.4 0.2 6 2.1 6.5 0.8 1.2 0 1.8-0.3 2.1-0.1 1.5-0.3 0.7-0.3 1.3 2.6 0.9 1 2.7 1.7 0.4 0.2 0.4 0.1 1.6-0.2 0.8 0.3 0.6 0.4 0.6 0.6 0.9 1.1 1.6 2.3 0.5 0.5 3.9 2.8 0.8 1 0.5 0.9 0.1 0.7 0.2 0.8 0.5 1 1.1 1.5 0.5 0.9 0.1 0.9-0.1 0.8-0.6 2.5-0.1 0.9 0 0.7 0.1 1.3 0 0.7-0.4 1.9-0.3 1-0.7 1.4-0.2 0.3-0.3 0.3-0.2 0.1-0.4 0.5-1.9 1-11.3 3.1-4.2 2.1-0.8 0.2-0.6 0-0.5-0.2-0.9 0-0.5-0.2-1-0.5-7.8-0.4-1.3 0.4-0.8 0.5-0.5 0.6-0.4 0.5-0.1 0.3-0.2 0.8-7 0.5-0.4-0.1-1.7-0.7-0.7-0.2-0.8-0.2-6.2-0.1-0.5 0.1-0.8 0.3-0.9 0.5-1.6 1.1-0.7 0.6-0.4 0.6-0.3 1.3-0.1 0.3-0.1 0.1-0.4 0.3-0.4 0.1-1.5 0.2-0.6 0.2-4.2 3.5-13.1 3.9-1.2 0.1-0.6-0.1-0.8-0.6-0.5-0.5-1.8-1.1-4.9-1.4-0.9 0.5-1.1 0.3-0.6 0-3.7-0.6-1.1-0.4-2.6-1.4-0.7-0.5-0.9-1-2.1-1.1-4.6-1.7-5.2-0.6-2.1-0.2-0.7 0.2-0.5 0.3-2.3 1.9-1 0.3-3.9-1.9-2-0.5-1.9-0.3-0.8 0-0.1 0-0.2-0.1 0-0.2 0.1-2.1-0.5-1.1-0.3-0.5-0.2-0.2-0.2-0.2-1-1.6-0.2-0.2-0.4-0.1-1.2 0.1-2.3 0-0.6-0.1-0.7-0.3-0.9-0.6-0.7-0.5-0.5-0.6-0.5-0.4-0.4-0.2-1.8-0.5-0.4-0.2-0.7-0.4-1.7-1.3-2.1-2.1-0.5-0.4-0.5-0.1-0.2 0-0.4 0.1-0.6 0-0.5-0.1-2.8-1.2-0.2-0.1-0.2-0.3-0.2-0.5-0.5-1.4-0.1-0.8-0.1-0.9 0.8-8.6 0.5-2.8 1.1-3.9 0.7-1.5 5.3-8.9 1.9-5.7 0.5 0.1 0.3-0.3 0.2 0.1 0-0.2 0.4-0.3 0.2 0-0.1-0.2 0.2-0.1 0.5-0.2 0.2 0 0.2-0.3 0.1-0.1 0.3-0.4 0.1-0.4 0.1-0.1 0.2-0.4 0.3-0.1 0.3-0.7 0.1 0.1 0.2 0.3 0.6-0.1 0.2-0.5-0.1-0.7 0.7-0.2 0.1 0.2 0.3 0 0.2-0.3-0.1-0.2 0.3-0.3 0.1-0.1 0.2 0.2 0.2-0.2 0.1 0 0.5-0.8 0.9-0.2 0.3-0.4 0.3 0 0.2 0.1 0.7-0.5 1.2-0.5 0.1-0.3 0.4-0.1 0.1 0.1 0.3-0.4 0-0.1 0.4 0.4 0.7 0.3 0-0.4-0.7-0.8 0.1-0.1 0.1 0 0.2 0.3 0.4 0.2 0.1-0.1 0.3 0 0-0.1 0.3-0.1 0.3 0.1 0.2-0.1 0.3 0.3 0.2 0 0.1-0.2 0.1 0.2 0.1-0.1 0.5-0.2 0.7 0.1 0.1-0.3 0.2 0.1 0.4-0.2 0.2 0.2 0.2-0.3 0.3 0.2 0.3-0.8-0.1-0.6 0.1-0.5 0.4-0.3 0-0.6-0.1-0.5 0.1-0.5 0.3-0.1 0-0.5 0.3-0.5-0.2 0-0.2-0.6 0.1-0.1 0.3 0 0.1-0.1-0.2-0.5 0.1-0.3-0.2-0.1 0-0.3-0.3-0.2 0.1-0.3 0.2 0 0.2-0.1 0.2 0.1 0.1-0.1 0.3-1.2-0.1-0.1 0.2-0.9-0.3-0.2-0.2 0.2-0.6 0 0-0.6-0.3 0.2-0.1-0.1 0.1-0.7-0.3 0 0-0.1 0.1-0.5-0.1-0.5 0.4-0.4 0-0.6-0.2 0-0.4-0.5 0-0.8-0.1-0.2 0.1-0.1-0.2-0.5-0.1-0.4 0.2-0.2 0.1 0.1 0.4-0.1 0-0.3 0.3-0.1 0-0.6 8.7-3.7-0.3-0.2-0.2-0.2 0.1-0.1 0.1 0.1 0.2 0 0.1-0.2-0.1-0.1-0.1 0.1-0.1 0-0.1-0.2-0.1-0.1 0-0.1 0.3 0.1 0.1-0.1-0.2-0.2 0-0.4-0.4-0.1-0.3 0-0.5-0.6-0.1-0.1-0.7 0-0.1 0.1 0 0.3-0.1 0-0.1-0.2-0.3-0.1-0.1-0.1-0.3 0-0.4-0.6 0.1 0-0.1-0.2 0.1-0.4-0.1-0.3-0.8 0-0.2-0.1-0.3-0.6 0.1-0.2 0-0.2-0.4-0.4-0.3 0.2 0-0.6-0.5-0.1-0.1-0.4 0 0.5-0.2 0.1 0.1-0.4-0.4 0 0.2-0.6-0.4 0.1-0.2-0.2 0.3-0.2 0-0.4 0.1-0.2-0.3-0.1-0.2-0.3-0.2-0.2 0-0.4 0.1-0.2-0.2-0.5-0.3-0.3-0.3-0.1 0-0.3-0.3 0.2 0-0.3-0.6 0-0.1-0.2-0.3-0.3 0-0.3 0.3 0 0.1-0.1 0.2 0.2 0.1-0.1-0.1-0.3 0.1-0.5 0.4-0.4-0.3-0.2 0.1-0.2 0.2 0.1 0-0.1-0.2-0.2-0.2 0.2-0.1 0 0.3-0.5 0.4 0 0.1 0.2 0-0.4 0.4 0-0.2-0.2-0.4 0 0.1-0.4 0.3-0.1 13.7 0.3 5.5-1.2 4-1.8 2.7-0.7 2.2-3.7 8.4-1.3 5.2-1.5 7.2-2 1.8-0.6z" id="AFBDG" name="Badghis">
  </path>
  <path d="M192.4 285.1l-1.9 5.7-5.3 8.9-0.7 1.5-1.1 3.9-0.5 2.8-0.8 8.6 0.1 0.9 0.1 0.8 0.5 1.4 0.2 0.5 0.2 0.3 0.2 0.1 2.8 1.2 0.5 0.1 0.6 0 0.4-0.1 0.2 0 0.5 0.1 0.5 0.4 2.1 2.1 1.7 1.3 0.7 0.4 0.4 0.2 1.8 0.5 0.4 0.2 0.5 0.4 0.5 0.6 0.7 0.5 0.9 0.6 0.7 0.3 0.6 0.1 2.3 0 1.2-0.1 0.4 0.1 0.2 0.2 1 1.6 0.2 0.2 0.2 0.2 0.3 0.5 0.5 1.1-0.1 2.1 0 0.2 0.2 0.1 0.1 0 0.8 0 1.9 0.3 2 0.5 3.9 1.9 1-0.3 2.3-1.9 0.5-0.3 0.7-0.2 2.1 0.2 5.2 0.6 4.6 1.7 2.1 1.1 0.9 1 0.7 0.5 2.6 1.4 1.1 0.4 3.7 0.6 0.6 0 1.1-0.3 0.9-0.5 4.9 1.4 1.8 1.1 0.5 0.5 0.8 0.6 0.6 0.1 1.2-0.1 13.1-3.9 4.2-3.5 0.6-0.2 1.5-0.2 0.4-0.1 0.4-0.3 0.1-0.1 0.1-0.3 0.3-1.3 0.4-0.6 0.7-0.6 1.6-1.1 0.9-0.5 0.8-0.3 0.5-0.1 6.2 0.1 0.8 0.2 0.7 0.2 1.7 0.7 0.4 0.1 7-0.5-1.1 6.5 0 2.1 0.1 0.5 0.3 0.7 0.9 2.2 0.2 1.1-0.1 0.6-0.2 0.3-0.2 0.1-0.3 0.1-0.8-0.2-1.1-0.1-0.3-0.1-0.3-0.3-0.3-0.5-0.6-1.2-0.3-0.1-0.4-0.1-0.5 0.2-1.3 0.9-1.1 0.5-1.4 0.2-0.7 0.2-0.4 0.3-0.4 0.5-0.8 0.4-0.8 0.3-0.8 0-1.3-0.1-0.9-0.2-0.8-0.1-0.6 0.1-0.9 0.3-0.4 0.3-0.3 0.4-0.1 0.4 0 0.6 0 0.7 0.3 2.2-0.1 0.4-0.1 1-0.1 0.5 0.1 0.6 0.1 0.6 0.1 0.7-0.1 0.5-0.3 0.9-0.1 0.5 0 0.4 0.2 0.3 0.6 0.7 0.3 0.5 0.2 0.5 0.1 0.7-0.1 0.9-0.5 1.2-0.4 0.6-0.4 0.3-0.9 0-0.6 0.3-0.9 0.5-0.9 1-0.6 0.5-0.5 0.3-0.5 0.1-1.6-0.1-0.2 0.1-0.2 0-0.3 0.1-0.4 0-0.4-0.1-0.5-0.1-2.8-1.5-0.2 0-0.1 0-0.5 0.8-0.4 0.8-0.9 0.5-8-0.1-1-0.4-1.1-1.1-0.9-0.6-1-0.6-1.8-0.8-1-0.3-5.4-0.4-1.1 0-0.5 0.1-8.7 0.3-1 4.4-1.7 3.3-3.7 5.6-0.3 0.8 0.1 0.8 2.5 4.3 0.4 0.8 0.2 1.2 0.2 0.7 0.3 0.5 0.5 0.5 2 1.7 1.2 1.4 0.8 1.2 0.5 1 0.9 3.2 0.3 0.5 1.8 1.9 0.6 1.1 0.1 0.6-0.4 0.6-0.6 0.4-0.7 0.4-0.6 0.3-0.5 0.1-1.1 0.1-0.3 0.1-0.3 0.2-0.2 0.2-0.3 0.3-0.2 0.5-0.1 0.4 0.1 0.4 0.9 2.6 0 0.7 0 0.4 0 0.3-0.9 1.8-1.5 1.1-1.7 0.5-6.1 0.6-7.1 2-1 0.4 0 0.2-0.2 0.2-0.4 0.4-1 0.7-0.9 0.4-1 0.2-2.6 1.1-2.5 2-0.9 0.9-0.2 0.4 0 0.5 0 0.2 0.1 0.3 0.6 0.5 0.3 0.3 0.2 0.5 0.2 0.6-0.1 0.5-0.3 0.9 0.2 0.8 0.5 0.9 1.2 1.7 0.5 1.1 0.3 1.2 0 1.5 0.2 2.9 0.4 1.3-1.1 0.9-1.4 0.7-0.5 0.3-0.6 1-0.7 1.5-1.1 3-0.3 1.3-0.2 1 0 0.4-0.1 0.4-0.2 0.3-1.7 1.7-5.5 2.1-0.2-0.1-0.2 0-0.1-0.1-0.1-0.2 0-0.2 0-0.2 0-0.2 0.2-0.6 0-0.2-0.1-0.1-0.2 0-1.5 0.3-5.2 1.9-1 0.2-0.8 0.1-2.5-0.2-0.4 0.1-0.3 0.4-0.4 0.7-0.2 0.7-0.2 0.6-0.4 0.5-0.7 0.6-0.9 0.6-2.6 0.8-3.2 0.7-0.6 0-0.5-0.1-0.4-0.1-1.6-0.9-0.3-0.1-0.3-0.1-0.4 0-0.5 0.1-0.8 0.3-2.6 1.3-1.9 1.2-1.6 1.4-1 0.6-0.4 0.4-0.4 0.6-0.4 1.3-0.1 0.8 0.1 0.6 0.1 0.8 0.1 0.4-0.1 0.4-0.1 0.5-1.5 3.2-0.2 0.6-0.1 0.5 0.2 1.2 0 0.2-0.2 0.1-0.5 0.1-1.2-0.2-1.4 0-2.4 0.4-5.2 0.6-1.8 0.4-1 0.4-0.5 0.3-1.9 1.8-0.9 0.5-0.6 0.2-0.9 0.1-0.9-0.1-0.4-0.1-0.4-0.1-0.2-0.4-0.2-0.4-0.2-0.6-0.2-0.3-0.4-0.6-0.1-0.2 0-0.3 0-0.3 0-0.4 0-0.2 0-0.3-0.4-1.1-0.1-0.9-0.2-2-0.1-0.2-0.2-0.2-0.4 0-0.5 0-1.1 0.4-3.2 2.4-1.6 1.9-0.7 0.7-0.4 0.3-0.5 0.3-0.4 0.1-0.3 0-0.3-0.1-0.4-0.2-0.5-0.5-2.3-2.4-0.7-1.2-0.4-0.5-0.5-0.3-0.6-0.1-3.8-0.2-0.7-0.2-0.6-0.2-0.5-0.4-0.4-0.9-0.1-1.2 0-2.7 0.4-2.4 0.4-1.2 0.2-0.4 0.4-0.4 1.4-0.8 0.4-0.3 0.2-0.4 0.2-0.3 0.2-0.5 0.2-0.4 0.3-0.4 0.8-0.6 2.1-2.2 0.7-1 0.4-0.5 0.6-0.5 1.8-1.3 0.6-0.8 0-0.9-2.8-4.5-2.5-2.8-0.3-0.6 0-0.6 0.2-0.4 0.6-0.5 0.3-0.3 0.5-0.8 0.3-0.4 0.9-0.6 1.2-1.2 0.3-0.5 0.2-0.5 0.1-0.6 0-3.2 0.1-0.7 0.1-0.5 0.3-0.4 0.9-0.8 0.3-0.4 0.2-0.6 0.1-0.6 0-0.8-0.1-0.5-0.7-0.5-4.1-1-4.8-0.4-1.9 0.2-1.2-0.1-0.8-1-3-0.6-2.9-0.1-1.4 0.2-0.7 0.4-0.4 0.6-0.3 0.7-0.4 0.8-0.6 0.5-0.7 0.4-1.7 0.6-0.9 0.1-0.7-0.1-1.3-0.6-0.7-0.1-1.2 0-9.1 0.9-4.3-0.3-8.3-1.9-3.6-1.6-2.2-0.2-1.3-0.2 0.1-0.1-0.6-1.1-1.1-0.9-0.9-0.6-2.2-0.5-2.4-0.2-4.6 0.2-5-0.4-5.1-2.1-4-3.8-1.5-5.5 0.5-2.5 1.9-4.4 0.2-3-1.8-11.6-0.7-6.6-0.1-1.1 0.3-3.4 1.8-3.6 2-2.6 2.2-2.3 3-1.6 1-1-0.4-1.7 4.4-0.2 6.4-0.4 4.7-0.3-0.7-1.4-4.7-6.1-1-2-0.6-0.9-0.7-0.7-1.6-0.7-0.5-0.6-0.6-1.8-0.4-0.5-0.5-0.3-0.7-0.1 0.9-1.6 1.6-0.8 3.4-0.5 1.6-0.5 1.3-0.8 2.8-3.3 0.3-0.6 0.4-0.5 0.9-0.5 0.9-0.1 0.8 0 0.7-0.1 0.7-0.9 0.3-1.9-0.3-2 0.1-1.8 1.2-1.3 2-1.6 1.2-2.2 0.3-1.3 2-0.6 0.5-2.6 0.3-2.7-0.1-0.6-0.3-1.5 0-0.8 0.2-0.9 0.9-1.5 0.2-0.7 0.2-1.5 0.9-2.9 0.4-3.2 0.4-1.1 1.5-2.1-0.6-0.7-0.1-0.7 0.2-0.7 0.1-0.8-0.2-0.4-2.2-3-0.4-0.8 0.4-0.3 0.6-0.4 0.1-0.7-0.3-0.7-0.4-0.4 0-0.7 0-1.7 0.4-1.6 0.9-0.8 1.3 0 1.5-0.3 1.3-0.7 0.5-1.3-0.3-4 0.3-1.6 0.3-0.9 1.4-1.8 0.3-0.7 0.5-2.5 0.7-1.5 1.5-1.8 0.9-1.4 0.4-1.7-0.2-1.5-0.6-3 0.3-0.2 0.2-0.3 1.6-0.5 2.8-0.4 0.3 0.3 0 0.2-0.6 0.9 0.8 0.7 0.1-0.1 0.2 0.1 0.4 0.4 0 0.1 0.2 0 0.4 0.4 0 0.3-0.3 0.8 0.1 0.4 0.4 0.6 0.4 0.4 0.5 0.3 0.7 0.1 0.3 0.1 0.5 0.7 0.5 0 0.2 0.2 0.2 0.1 0 0.1 0.1 0 0.3 0.3-0.1 0.1 0.2 0.1 0 0.1 0.2 0.1 0 0.3 2.5 1.9 0.1 0.1 3 3.3 4.1 1.7 8.5 1.3 0.9-0.1 1.7 0.3 11.1-3.1 1.4 0 1.8 0.9 1.7 1.2 6.5 6.4 1.7 1.1 3.5 1.6 0.9 0.9 0.7 1.3 0.4 1.3 0.1 1.4-0.1 3.1 0.4 1.2 1.2 2.8 0.6 0.8 0.9-0.5 0.1 0.3-0.2 0.5 0.3 0.3 0.2 0.3 2-2 8.4-9.1 3.4 3.1 0.7 0.4 0.6-0.1 0.6-0.2 0.7 0 0.6 0.3 0.1 0.5 0.3-0.3 0.9 0.3 0.5 0.1 0.9-0.2 0.3 1 0.3 0.1 0.2-0.4 0.4-0.1 0.2-0.7 0.7-0.4 0.2-0.3 0.4 0.2 0.5-0.3 0.3 0.2 0.5-0.2 0.1-0.2 0.6-0.3 0.5 0.3 0.6-0.1 0.9-1.1 0.8 0.1 0.4-0.1 0.3-0.2 0-0.7 0.2-0.4-0.1-0.3 0.2-0.1 0.1-0.3 0.5-0.4 0-0.3 0.8-0.3 0.2 0 0.5-0.8 0.3 0.1 0.2-0.1 0.3 0 0.2-0.2 0.8 0.2z" id="AFHER" name="Hirat">
  </path>
  <path d="M116.1 580.8l0.3-0.6 0.5-1.5 0.5-0.7 0.1-0.6-0.2-0.4-0.1-0.5 0-0.5 0.3-0.6 0.1-0.3 0-0.3 0-0.1-0.1-0.1-0.2 0-0.3-0.4-0.5-0.6-0.4-1.4-0.1-0.6 0.1-0.3 0.1 0 0.1 0.1 0.2 0.2 0.2 0.2 0.2 0.6 0.1 0 0.2-0.3 0.2-0.1 0.1-0.1 0.1 0.1 0.1 0.1 0.1 0.2 0.1 0.2 0.2 0.1 0.4 0 0.6-0.3 0.9-0.9 0.4-0.7 0.1-0.8-0.1-0.4-0.2-0.4-0.4-0.6-0.1-0.2-0.2-1.1 0-1 0.1-0.5 0.2-0.4 0.3-0.1 0.4 0 1.7 0.1 0.8-0.3 0.6-0.3 2-2.7 2.9-5.5 1.5-1.7 1-0.9 1.9-2.1 0.8-1 0.5-0.8 0.1-0.5 0-0.3 0-0.5-0.2-1.2-0.5-1.6 0-0.4 0-0.5 0.3-0.9 0.4-0.6 0.6-0.6 4-2 0.8-0.8 0.3-0.6 0-0.6-0.4-1.9-0.1-1.1-0.2-0.4-0.1-0.4 0-0.3 0.1-0.3 0.1-0.2 0.3-0.4 26.2-1.7 7-2.1 0.9 0 1.2 0 2.1 0.4 0.7 0.3 0.7 0.3 0.4 0.3 2.8 3.1 4.7 5.4 0.6 0.4 0.9 0.4 1.3-1 0.4-0.2 5.8-2.2 0.6-0.1 3.5 0 3.4-1 1-0.4 2.3-1.7 1.2-1.1 0.9-1 0.6-0.9 0.4-0.8 0.2-0.9 0.1-0.8 0.2-5.5 0.1-0.9 0.7-1.7 0.4-0.9 0.5-0.8 1.4-1.5 0.6-0.4 0.5-0.3 0.5 0 0.3 0 3 0.8 6.4 0.3 11.9 2.9 1.4-0.1 0.3 2.6 0.3 1.1-0.1 0.7 0.1 0.4 0.1 0.3 0.5 0.7 0.1 0.4 0.1 0.4 0 0.4 0.1 0.3 0.1 0.3 0.9 0.9 0 0.5-0.2 0.6-0.9 1.2-1 0.9-0.1 0.4 0 0.6 0.4 1.7-0.1 0.8-0.3 1.1-2.3 4.7-1 1.4-0.7 0.9-2.6 2-1.4 4.2-3.3 24-0.1 7.8-0.8 1.4-1.4 1.7-0.1 1.2 0.9 2.8 0.7 1.1 0.3 0.5 0.2 0.6 0 0.8-0.4 6.5 0.1 0.7-0.2 1.2-1.1 1.4-1.4 0.5-0.6 0.5-0.5 0.6-2.6 5.1-0.6 1.4-0.5 0.7-1.2 1.1-0.8 0.5-2.5 1.1-0.8 1 0.2 2.7 0.1 5 0.6 3.5 0 0.7-0.2 0.5-0.6 0.5-1.1 0.6-0.7 0.5-0.6 0.6-2.1 2.9-0.6 0.6-0.4 0.6 0 0.5 0.4 0.9 0.5 0.4 0.9 0.5 0 0.4 0 0.4-1.5 2.2 0.1 1.3 0.2 0.4 0.4 0.7 0.8 1.1 0.4 0.5 0.2 0.6 0.2 0.5-0.1 0.8-0.3 0.7-1 1.1-3.3 2.4-0.8 1.1-0.7 1.4-0.8 2.2-1.6 3-2.7 4.2-1.9 2.4-2.5 2.5-2.2 1.3-0.5 0.1-0.7 0.1-0.5 0.1-0.5 0.3-0.4 0.3-0.4 0.5-0.2 0.7 0.1 3.7-0.4 5.2-0.3 1.1-0.4 0.9-1.6 2.2-0.3 0.7-0.1 0.6 0.4 3.4-0.1 3.2-7.5 35.5-7.9 0.8-6.5-1.3-6-1.9-5.2-1.7-5.3-1.7-5.3-1.7-5.2-1.7-5.3-1.7-5.2-1.7-5.3-1.7-5.2-1.7-5.3-1.6-5.2-1.8-5.3-1.6-5.2-1.7-5.3-1.7-5.3-1.7-5.2-1.7-5.3-1.7-4.5-1.5-2-0.9 3.7-4.3 4.8-5.6 9.7-11.7 5.3-6.2 3.5-4.3 6.9-8.2 5.1-6.2 7.2-8.7 8-9.7 5.2-6.3 1.1-1.2-0.2-0.3-0.1-0.1 0.1-1.4 0.2-0.5 0.4-0.2-0.3-5-0.2-0.9 1.2-2.4 0.4-1.5 0-1.5-0.3-1.4-0.8-2.4-1.1-2.4-0.1-0.7-0.1-2.2-0.6-1.7-1.7-2.8-0.6-1.5 0-1.4 0.4-3.2-0.4-1.4-2.3-2.9-1.2-0.9-1.6-0.7-3.5-0.5z" id="AFNIM" name="Nimroz">
  </path>
  <path d="M72.8 421.9l1.3 0.2 2.2 0.2 3.6 1.6 8.3 1.9 4.3 0.3 9.1-0.9 1.2 0 0.7 0.1 1.3 0.6 0.7 0.1 0.9-0.1 1.7-0.6 0.7-0.4 0.6-0.5 0.4-0.8 0.3-0.7 0.4-0.6 0.7-0.4 1.4-0.2 2.9 0.1 3 0.6 0.8 1 1.2 0.1 1.9-0.2 4.8 0.4 4.1 1 0.7 0.5 0.1 0.5 0 0.8-0.1 0.6-0.2 0.6-0.3 0.4-0.9 0.8-0.3 0.4-0.1 0.5-0.1 0.7 0 3.2-0.1 0.6-0.2 0.5-0.3 0.5-1.2 1.2-0.9 0.6-0.3 0.4-0.5 0.8-0.3 0.3-0.6 0.5-0.2 0.4 0 0.6 0.3 0.6 2.5 2.8 2.8 4.5 0 0.9-0.6 0.8-1.8 1.3-0.6 0.5-0.4 0.5-0.7 1-2.1 2.2-0.8 0.6-0.3 0.4-0.2 0.4-0.2 0.5-0.2 0.3-0.2 0.4-0.4 0.3-1.4 0.8-0.4 0.4-0.2 0.4-0.4 1.2-0.4 2.4 0 2.7 0.1 1.2 0.4 0.9 0.5 0.4 0.6 0.2 0.7 0.2 3.8 0.2 0.6 0.1 0.5 0.3 0.4 0.5 0.7 1.2 2.3 2.4 0.5 0.5 0.4 0.2 0.3 0.1 0.3 0 0.4-0.1 0.5-0.3 0.4-0.3 0.7-0.7 1.6-1.9 3.2-2.4 1.1-0.4 0.5 0 0.4 0 0.2 0.2 0.1 0.2 0.2 2 0.1 0.9 0.4 1.1 0 0.3 0 0.2 0 0.4 0 0.3 0 0.3 0.1 0.2 0.4 0.6 0.2 0.3 0.2 0.6 0.2 0.4 0.2 0.4 0.4 0.1 0.4 0.1 0.9 0.1 0.9-0.1 0.6-0.2 0.9-0.5 1.9-1.8 0.5-0.3 1-0.4 1.8-0.4 5.2-0.6 2.4-0.4 1.4 0 1.2 0.2 0.5-0.1 0.2-0.1 0-0.2-0.2-1.2 0.1-0.5 0.2-0.6 1.5-3.2 0.1-0.5 0.1-0.4-0.1-0.4-0.1-0.8-0.1-0.6 0.1-0.8 0.4-1.3 0.4-0.6 0.4-0.4 1-0.6 1.6-1.4 1.9-1.2 2.6-1.3 0.8-0.3 0.5-0.1 0.4 0 0.3 0.1 0.3 0.1 1.6 0.9 0.4 0.1 0.5 0.1 0.6 0 3.2-0.7 2.6-0.8 0.9-0.6 0.7-0.6 0.4-0.5 0.2-0.6 0.2-0.7 0.4-0.7 0.3-0.4 0.4-0.1 2.5 0.2 0.8-0.1 1-0.2 5.2-1.9 1.5-0.3 0.2 0 0.1 0.1 0 0.2-0.2 0.6 0 0.2 0 0.2 0 0.2 0.1 0.2 0.1 0.1 0.2 0 0.2 0.1 5.5-2.1 1.7-1.7 0.2-0.3 0.1-0.4 0-0.4 0.2-1 0.3-1.3 1.1-3 0.7-1.5 0.6-1 0.5-0.3 1.4-0.7 1.1-0.9 2.1 0.9 2.1 0.1 0.9-0.2 4.8-1.5 12.8-0.5 3.3-0.6 2.5-1.1 2.4-1.9 1.3-0.8 2-0.8 2.7-0.6 4.2-0.5 1.1-0.4 0.7-0.7 1-1.5 1.3-1.6 0.9-0.8 1.2-0.9 2.8-1.3 1.6-0.2 2.3 1.3 1 0.9 3.6 5.9 2 4.6 0.2 0.6-0.1 1.2 0.1 0.5 0.2 0.8 0 0.3-0.1 0.9 0 0.6 0.2 0.4 0.2 0.3 0.9 0.4 0.5 0.2 0.7 0 0.4 0.2 0.2 0.4 0.3 0.7 0.2 0.4 0.2 0.2 0.9 0.7 0.5 0.7 1.8 3.7 0.5 0.7 0.4 0.4 0.3 0 0.8-0.4 0.5 0 0.4 0.2 1.4 1.4 2.7 1.5 0.3 0.1 0.2-0.1 0.7-0.6 0.3-0.2 0.2 0 0.5-0.2 1.8-0.1 0.3-0.1 0.3-0.1 0.2-0.1 0.1-0.2 0-0.3-0.1-0.3-0.2-0.3-1.3-1.4-0.1-0.2-0.1-0.2 0.1-0.1 0.1-0.2 0.3-0.2 0.3-0.2 1.8-0.4 1.1-0.5 1.2-0.7 0.8-0.6 0.6-0.6 0.6-0.8 1-1.6 1.4-3.8 0.7-0.8 1.1-0.2 0.7 0.1 0.2 0 0.2 0.2 0.1 0.1 0.1 0.2 0.2 0.7 0.2 0.3 0.6 0.6 0.8 0.6 0.5 0.2 0.4 0.1 0.2-0.1 0.2 0 0.4-0.1 2.2 0.1 0.7 0.1 0.4 0.2 0.2 0.3 0.1 0.3 0.1 0.4 0 0.4 0.5 1 2 1.4 0.5 0.8 0.2 0.2 0.1 0.3 0 0.2-0.1 0.3-2.1 1.8-0.2 0.5-0.2 0.6 0 1.1 0.1 0.5 0.1 0.3 1 0.6-5.7 4.3-0.7 0.7-0.5 0.8-0.6 0.6-1.2 1.3-0.6 0.8-0.4 0.7 0 0.4 0.2 0.2 0.1 0.1 0.2 0.1 0.1 0.1 0.1 0.3-0.1 0.4-0.3 0.5-0.7 1-0.6 1.3-0.3 0.6 0 0.3-0.1 0.1 0.1 0.1 0.2 0.2 1.5 0.6 0.3 0.2 0.3 0.2 0.1 0.3 0 0.3-0.3 0.4-0.5 0.3-8.2 3.3-1.5 0.2-0.5 0.2-0.6 0.5-0.7 0.6-0.7 1.1-1 1.1-1 1.5-0.3 0.4 0 0.3 0 0.3 0.1 0.3-0.3 0.5-0.6 0.6-2.6 1.8-1.1 1.2-0.6 1.1-0.1 0.9 0 0.3 0.1 0.2 0.3 0.1 0.9 0.3 1.2 0.7 0.3 0.3 0.1 0.2 0 0.4-0.5 0.9 0 0.4 0 0.4 0 0.5-0.5 0.6-1.1 0.8-3 1.4-2.1 1.3-0.6 0.2-3.2 0.2-4.6 0.9-0.6 0-0.5-0.1-0.1-0.2-0.1-0.3-0.1-0.5 0-0.1-0.1-0.1-0.1 0-0.2 0-0.3 0.1-0.4 0.2-0.6 0.5-0.3 0.2-0.2 0.6 0 1.5 0.1 1.7 0.1 0.4 0.1 0.3 0.6 0.6 0.3 0.5 0.3 0.8 0.1 0.7 0.1 0.7-0.2 0.6-0.4 0.4-0.9 0.4-0.9 0.6-0.9 0.8-0.5 0.6-0.3 0.5-0.4 0.4-0.3 0.2-0.5-0.2-0.6-0.6-0.3 0-0.5 0.3-4.5 3.6-0.3 0.4-0.2 0.5-0.1 0.4 0 0.5-0.2 0.5-0.4 0.2-0.9 0.1-2-0.5-0.7-0.1-0.5 0.1-1.4 0.5-0.4 0-0.5 0.1-0.6 0.3-3.4 3.7-0.8 0.6-1.1 0.7-5 2.4-1.5 1.2-1.4 0.1-11.9-2.9-6.4-0.3-3-0.8-0.3 0-0.5 0-0.5 0.3-0.6 0.4-1.4 1.5-0.5 0.8-0.4 0.9-0.7 1.7-0.1 0.9-0.2 5.5-0.1 0.8-0.2 0.9-0.4 0.8-0.6 0.9-0.9 1-1.2 1.1-2.3 1.7-1 0.4-3.4 1-3.5 0-0.6 0.1-5.8 2.2-0.4 0.2-1.3 1-0.9-0.4-0.6-0.4-4.7-5.4-2.8-3.1-0.4-0.3-0.7-0.3-0.7-0.3-2.1-0.4-1.2 0-0.9 0-7 2.1-26.2 1.7-0.3 0.4-0.1 0.2-0.1 0.3 0 0.3 0.1 0.4 0.2 0.4 0.1 1.1 0.4 1.9 0 0.6-0.3 0.6-0.8 0.8-4 2-0.6 0.6-0.4 0.6-0.3 0.9 0 0.5 0 0.4 0.5 1.6 0.2 1.2 0 0.5 0 0.3-0.1 0.5-0.5 0.8-0.8 1-1.9 2.1-1 0.9-1.5 1.7-2.9 5.5-2 2.7-0.6 0.3-0.8 0.3-1.7-0.1-0.4 0-0.3 0.1-0.2 0.4-0.1 0.5 0 1 0.2 1.1 0.1 0.2 0.4 0.6 0.2 0.4 0.1 0.4-0.1 0.8-0.4 0.7-0.9 0.9-0.6 0.3-0.4 0-0.2-0.1-0.1-0.2-0.1-0.2-0.1-0.1-0.1-0.1-0.1 0.1-0.2 0.1-0.2 0.3-0.1 0-0.2-0.6-0.2-0.2-0.2-0.2-0.1-0.1-0.1 0-0.1 0.3 0.1 0.6 0.4 1.4 0.5 0.6 0.3 0.4 0.2 0 0.1 0.1 0 0.1 0 0.3-0.1 0.3-0.3 0.6 0 0.5 0.1 0.5 0.2 0.4-0.1 0.6-0.5 0.7-0.5 1.5-0.3 0.6-7.3-1.1-12.3-1.8-10.8-1.5-0.1-0.1-10.5-1.5-6.4-0.9-2.1-0.9-0.7-7-1-3.6-0.1-1.7 0.8-5.5-0.9-6.8-0.2-3.6 0.5-4.6-0.1-1.7-0.2-0.7-0.4-0.8-0.1-0.7 0.6-1.7-0.4-0.4-0.5-0.3-0.3-0.5 0.5-1.1 1.7-2.1 0.4-1.3 0.8-5.9 0.1-6.1-2.1-8-2.8-10.4-2.5-8.6-2.4-7.9-2.2-7.5-2.1-7.3-1.8-6.2-0.9-4.8-0.1-5.9 0.4-1.1 3-4.1 3.4-4.7 3.1-4.1 2.4-3.3 1.8-1.6 2.1-1.3 0.7-0.9 0.3-1.5-0.1-1.3-0.2-1.3 0.2-1.1 1.1-0.7 3-0.2 0.9-0.3 0.5-0.9z" id="AFFRA" name="Farah">
  </path>
  <path d="M708 342.5l-0.1 0-7.7 0.6-2.3-0.4-3.3 1.5-1.8 0.2-0.6-1.9 0.2-0.4 0.4-0.4 0.8-0.5 0.4-0.3 0.2-0.3 0-0.3-0.2-0.3-0.6-0.4-1.3-0.3-0.7 0-0.6 0.1-0.6 0.3-0.3 0.2-0.4-0.3-0.4-0.2-2-2.6-0.3-1.5 0-1.2 0.3-1.8 0.3-1.1 0.4-1 0.2-0.6 0.1-1.1 0-0.4-0.1-0.5-0.3-0.9-0.2-0.6-1-1.4-1.7-1 0.3-2.4 0-3-0.2-1.5-0.4-1.4-0.7-1.5-0.4-0.9 0-0.7 0-0.8-0.1-0.8-0.3-0.9-0.8-1 3-5.3 0.4-1 1.5-4.3 2.2 1 1.8 1.2 1.3 0.6 1 0.3 2.8 0.5 3.6 1.2 0.6 0 0.9-0.1 0.7-0.3 0.7-0.3 4.3-0.7 1 0 0.9 0.2 0.5 0.2 1.9 0.5 2.5-3.1 0.6-0.3 0.6-0.3 0.3 0.2 0.3 0.3 0.5 1 0.6-0.4 0.4-0.6 0.6-1.6 0.5-2.7 0.3-0.9 0.4-0.5 1.3-1.8 0-2.8 0.4-1.2 0.7-1.3 0.9-1.3 1.7-1.2 7.5-2.9 0.8-0.1 1 0.8 1.1 0.3 2.7-0.3 0.6-0.4 0.6-2.1 0.2-0.6 0.3-0.3 1.5-0.7 0.4-0.5 0.4-0.8 0.5-0.3 1.4-0.5 0.8-0.3 1.3-1 0.6-0.5 0.5-0.6 0.4-0.7 0.5 0.6 0.8 1 0.5 1-0.1 1.5-0.6 1.2-3 2.7-2 2.5-0.1 2.1 1.1 1.9 3.5 4.1 2 1.6 0.2 1-0.5 1.5-1.6 2.5-4.4 3-1.6 2.1-0.1 3.4 0.3 0.7-0.1 0.8-0.4 0.6-0.7 0.5-0.5 0.8-0.6 1.8-0.4 0.8-0.6 0.5-0.9 0.4-7.6 3.1-2.3 1.7-1.1 2.4-1 2.6-3.3 4.8-0.9 0.9-2.4 1.2-4.5 3.7-0.6 0.9-0.1 1.1 0.5 1.8 0.2 1.5-0.2 1.9-0.7 1.6-1.1 0.5-2.6-0.4-1.3 0-0.2 0.1z" id="AFKNR" name="Kunar">
  </path>
  <path d="M660.5 256.5l4 0.7 1.5-0.5 1.6-1.3 0.6-0.5 1.2-0.5 0.8-0.1 0.7 0.1 1.8 1 2.9 1 0.6 0.3 0.5 0.4 0.2 0.5 0.1 0.5 0.1 1 0.1 0.6 0.3 0.5 2.7 3.1 0.5 0.6 0.3 0.6 0 0.6 0 0.6-0.1 0.5-0.7 1.6-0.3 1.3-0.1 0.7-0.1 1.3 0 0.6 0.2 1.2 0.3 0.9 2.2 0.3 1.6-0.6 1.4-0.7 0.6-0.5 0.4-0.5 0.2-0.4 0.1-0.4 0-0.4 0-0.4 0-0.6 0.3-0.8 1.1-1.4 0.6-0.5 0.6-0.1 0.4 0.3 1.3 1.7 1 1.1 1.8 0.6 2.2-0.3 3.2 0.8 0.8 0.1 0.5-0.2 0.2-0.4 0.7-1.2 0.2-0.4 0.1-0.5-0.1-0.5-0.2-1.1-0.1-0.9-0.1-0.5-0.4-0.8-0.1-0.4 0.1-0.8 0-0.5-0.1-0.5-0.1-0.5 0.2-0.7 0.6-1.3 0.3-0.3 0.4-0.2 0.5 0 0.4 0.2 1.2 0.1 2.3-1.1 1.2-2.1 1.9-1.7 0.3-0.6 0.1-0.5-0.3-0.5-0.4-0.4-0.5-0.4-1.4-0.8-0.3-0.5-0.2-0.9 0.2-1.2 0.3-0.7 0.3-0.5 0.4-0.2 0.9-0.4 0.9-0.5 0.4-0.3 0.3-0.4 0.5-1.1 1.9-2.8 0.3-0.8 0.2-0.8 0.1-1.4 0.5-2.9 0.3-0.9 0.3-0.6 0.9-0.6 0.5-0.6 0.5-0.8 0.9-1.7 0.6-1 0.7-0.8 1-0.8 0 0.3 0.7 0.6 2.3 1.3 0.9 0.7 1.6 1.7 1.7 0.7 1.8 0.4 1.8 0.8 1 1.1 0.2 2.6 0.7 1.1 2.9 2.1 0.9 1.2 2.1 3.8 0.4 1.1 0.1 0.8-0.1 0.7 0 0.7 0.3 0.9 0.3 0.5 1 0.7 0.4 0.5 0.8 1.3 0.3 1.4-0.4 1.4-1.1 1.5-0.8 1.6 0.6 1.3 1.2 1 3.5 1.7 1 0.8 0.6 1.1 0 1.5-0.4 1.4-0.3 1.5 0.4 1.7 0.3 0.6-0.4 0.7-0.5 0.6-0.6 0.5-1.3 1-0.8 0.3-1.4 0.5-0.5 0.3-0.4 0.8-0.4 0.5-1.5 0.7-0.3 0.3-0.2 0.6-0.6 2.1-0.6 0.4-2.7 0.3-1.1-0.3-1-0.8-0.8 0.1-7.5 2.9-1.7 1.2-0.9 1.3-0.7 1.3-0.4 1.2 0 2.8-1.3 1.8-0.4 0.5-0.3 0.9-0.5 2.7-0.6 1.6-0.4 0.6-0.6 0.4-0.5-1-0.3-0.3-0.3-0.2-0.6 0.3-0.6 0.3-2.5 3.1-1.9-0.5-0.5-0.2-0.9-0.2-1 0-4.3 0.7-0.7 0.3-0.7 0.3-0.9 0.1-0.6 0-3.6-1.2-2.8-0.5-1-0.3-1.3-0.6-1.8-1.2-2.2-1-1.5 4.3-0.4 1-3 5.3-1.2 1.6-3 2.5-0.7 0.5-3.4 1.4-3.2 0.9-0.9 0-0.9-0.2-3-1.8-2.9-0.5-0.7-0.4-1.3-2.9-1.4-1.4-1.6-2.3-0.9-3.3-1.7-1.6-5-0.9-2.2 0.1-0.6-0.5-0.6-1.3-0.2-3-0.2-0.8-0.4-0.8-1.7-2.6-0.3-1.4 0.1-4.1-0.3-0.7-0.6-1.2-2.5-2.3 0.1-1 0.5-0.8 0.7-0.6 1-0.7 4.7-2.5 1.5-2 0.3-0.8 1.1-1.9 0.3 0 0.4 0.1 0.6 0.3 0.9-0.1 1.5-0.4 1-0.8 0.8-0.9 0.5-1 0.4-0.9 0-0.5-0.1-0.4-0.2-0.3-0.2-0.4 0-0.9 0.1-0.4 0.4-0.3 1.6-0.9 0.4-0.7 0.3-1 0.3-3.6 0.7-1.9z" id="AFNUR" name="Nuristan">
  </path>
  <path d="M684.8 323.7l1.7 1 1 1.4 0.2 0.6 0.3 0.9 0.1 0.5 0 0.4-0.1 1.1-0.2 0.6-0.4 1-0.3 1.1-0.3 1.8 0 1.2 0.3 1.5 2 2.6 0.4 0.2 0.4 0.3 0.3-0.2 0.6-0.3 0.6-0.1 0.7 0 1.3 0.3 0.6 0.4 0.2 0.3 0 0.3-0.2 0.3-0.4 0.3-0.8 0.5-0.4 0.4-0.2 0.4 0.6 1.9 1.8-0.2 3.3-1.5 2.3 0.4 7.7-0.6 0.1 0-0.9 0.4-0.8 1.4 0 1.7 0.3 1.7 0.6 1.4 1.3 2 1.8 2.2 2 1.9 4.5 2.5 0.2 1.9-1.8 5.3 0 1.4 0.6 2.7 0.2 1.5-0.1 1.8-0.4 1-1.8 2.1-0.7 1.5 0.1 1.2 0.2 1.3-0.3 1.4-1 0.9-3.1 0.7-1.3 0.4-0.7 1.1-0.7 0.6-0.9 0.3-1.2-0.1-1.7-0.5-0.6 0.2-0.3 1-1.1 2.2-4.5 0.9-8.5-0.1-8.5 1.2-1.9-0.1-5.2-1.1-5.1-0.2-1.2-0.4-2.2-1.1-3.5-0.3-13.7-4.8-2.1-0.2-3.4 0.6-0.6 0.2-0.5-0.7-1.1-1.6-0.7-2.6-0.7-1.2-0.5-0.5-1-1.2-0.3-1.1-0.1-0.2-0.2-0.3-0.4-0.5-0.2-0.2-0.1-0.2-0.3-0.6-0.6-1.1-0.3-0.8-0.2-0.3-0.2-0.3-0.3-0.2-0.7-0.3-0.2-0.1-0.1-0.3-0.2-0.3-0.1-0.2-0.2-0.1-0.6-0.3-0.1-0.1-0.1-0.2-0.5-0.6-0.3-0.3-0.4-0.1-0.7 0.1-1.3 0.5-7.4 3.4-4.7 3.3-1.2-0.2-0.4-2.8 0-0.5 0.2-0.3 0.4-0.3 1-0.6 3.2-2.3 3.9-4 2.5-3.4 0.5-0.8 0.1-0.6 0-0.4-0.3-1.1 0-0.3 0-0.3 0-0.2 2.1-0.5 7.4-0.9 1.9 0.7 6.8-0.8 3.5-0.7 3.7 0.8 1.1-0.2 3.7-1.8 6.7-1.1 3.6-1 3.1-1.7 0.9-0.7 1.7-1.3 1.6-3.3 0.1-1.1 0.1-1.4-1.1-5 1.6-1.3 3.4-1.3 0.7-0.5 0.4-3.1 0.4-0.9 0.7-0.8 2-1.6 2.2-1.1 1.9-0.6z" id="AFNAN" name="Nangarhar">
  </path>
  <path d="M645.7 404.5l1 0.2 3.4 1.4 2.7-0.5 0.6 0.9 0.5 3 0.4 1.1 0.3 0.4 0.6 0.5 1 0.5 0.5 0.4 0.2 0.5 0 1.8-1.3 4.8-0.1 1.4 0.2 1.5 0.6 1.3 0.8 1.2 0.5 0.3 1.8 0.6 0.5 0.4 0.4 1.2 0.3 0.6 3.4 3.7 1 2.4-0.5 2.5-10.7 9-1.2 0.7-1.4-0.1-1.5-0.5-0.7 0.3-2.1 4-0.5 0.7-0.8 0.3-1.8-0.1-0.7 0.1-4.7 2.9-2.6 0.2-4.3-2.1-2.4 0.4-3 2.1-1.1 0.3-0.6-0.1-0.5-0.2-0.6-0.2-2.1 0.4-1.3-0.1-2.5 0.4-2.1 1.3-1.7 2.2-0.6 1.3-6-2.2-2.4-0.2-0.3-1.9 1.9-2.1 1.9-2.7 0.1-0.7 0.1-0.8-0.3-1.7-0.2-0.8-0.3-0.6-0.1-0.2 0.1-0.8 0.6-2.9 0.4-1.6 0.2-0.3 0.8-1 1.1-1.3 0.3-1 0.2-0.8 0.3-0.5 3.4-3.1 1.4-0.8 0.4-0.5 0.7-1 0.3-0.9 1.5-4.8-1.1-1.1 0-1 0.3-0.9 1-1.9 0.4-1 1.9-1.6 1-0.6 0.9-0.5 3.9-1.1 4.4-0.5 0.1 0.1 0.1 0 1.1 0.8 1.9-2.9 0.3-0.3 0.6-0.4 0.5 0 1.5-0.6 1-0.6 1.5-0.7 1.8-1.1 1.6-0.5 0.4-0.3 1-1.1 0.3-0.6 0.2-0.6 0-1.1z" id="AFKHO" name="Khost">
  </path>
  <path d="M639.5 381.5l0.5 0.7-1.1 0.3-1 1.1-0.1 1.2 0.2 1.2-0.1 1.1-1.2 1.1-0.8 1.1 0.4 1.2 1.8 1.8 0.6 1 0.8 2.9 0.6 1.2 1.5 2.2 0.6 1.2 0.4 1.5 0.7 1.4 0.9 0.6 1.5 0.2 0 1.1-0.2 0.6-0.3 0.6-1 1.1-0.4 0.3-1.6 0.5-1.8 1.1-1.5 0.7-1 0.6-1.5 0.6-0.5 0-0.6 0.4-0.3 0.3-1.9 2.9-1.1-0.8-0.1 0-0.1-0.1-4.4 0.5-3.9 1.1-0.9 0.5-1 0.6-1.9 1.6-0.4 1-1 1.9-0.3 0.9 0 1 1.1 1.1-1.5 4.8-0.3 0.9-0.7 1-0.4 0.5-1.4 0.8-3.4 3.1-0.3 0.5-0.2 0.8-0.3 1-1.1 1.3-0.8 1-0.2 0.3-0.4 1.6-1.2-0.4-0.3-0.2-0.4-0.2-1 0.1-2.9 1-1.2 0.2-1.3-0.3-1.9-1.5-0.5-0.4-0.2-0.2-0.2-0.2-0.3-0.1-0.4-0.1-0.4 0-0.2 0.1-0.1 0.2 0 0.4 0.1 0.3 0 0.3 0 0.2 0 0.2-0.5 0.5-2.2 1.4-3.1 1.4-2.5 1.5-1.7 1.6-0.9 0.6-1 0.4-0.4 0.1-0.2 0-0.2-0.1-0.3-0.5-0.3-1.7-0.2-0.8 0-0.6 0-0.4 0.1-0.4-0.6-4.5 0-1.5 0.2-3.6 0-0.7-0.1-0.5-0.2-0.5-1-1.3-0.7-1.4-0.2-0.2-0.3-0.3-1.5-0.6-0.3-0.1-0.3 0-0.5 0.2-0.5 0.2-0.6-0.2-1.2-0.6-1.7 0.2-4.6 1.7 0.4-1.3 1.5-3.4 0.1-0.6-0.1-0.8-0.6-1.3-0.7-1.4-0.3-0.9-0.2-1.5-0.1-2.6 0.2-2.8 9.4 0.1 1 0.2 1.3 0.5 0.8 0 0.9-0.1 0.9-0.3 0.7-0.4 0.4-0.3 0.9-0.7 1.2-2.2 0.7-2.1 1-2 0.8-0.8 0.8-0.7 6.1-4.6 6.4-3 2-1.3 0.3-0.5 0.5-0.9 3.3-3.6 0.4-0.4 2.4-2.1 0.8-0.5 0.7-0.6 1.1-1.2 0.6-0.9 1-2 0.5-1.5 0.4-0.4 1.4-0.9 0.6-0.2 0.6-0.1 1 0 0.8-0.1 2.8 0.2 2.2 0.6 0.6 0.2 0.5 0.3 0.2 0.2 0.1 0.4-0.1 0.5-0.1 0.5 0.1 0.5 0.2 0.3 0.7 0 0.7-0.2 3.6-2.2 2.2-2.7 0.3-0.3 0.4-0.1 0.3 0.1 0.4 0.1 0.5 0.1 3.8 2.3z" id="AFPKA" name="Paktya">
  </path>
  <path d="M608.1 442.2l-0.6 2.9-0.1 0.8 0.1 0.2 0.3 0.6 0.2 0.8 0.3 1.7-0.1 0.8-0.1 0.7-1.9 2.7-1.9 2.1 0.3 1.9 2.4 0.2 6 2.2-0.6 1.2 1.2 8.2-0.7 2.2-0.3 0.3-1.7 1.3-1.5 2.1-2.1 1.7-0.7 1 0.1 1.4 0.3 0.6 0.5 0.5 0.5 0.4 0.6 0.2 0.4 0.3 0.2 0.6 0.1 1.3 0.6 2.5-0.2 0.9-0.8 1.5-3.3 5-1.1 0.9-2.6 1-1.3 0.8-1.9 2.4-1.2 2.8-0.3 3.1 0.7 3.2 1.6 4.2 0.2 1.6 0 1.6-0.5 3.2 0 3.2-0.5 3.1 0 1.6 1.2 7.1 2 5.6 0.2 1-0.3 0.4-0.1 0.3-3 2.3-1.8 1.8-6.9 10.7-0.9 1.1-0.9 0.6-0.9 1.3-2 1.8-2.2 1.7-1.7 0.7-2.3-0.2-2.2 0.7-4 2.1-2.5 0.3-1.6-1.2-3-4.2-1.6-1.9-0.5-1.1-0.1-3-0.5-0.9-0.7-0.5-3.6-0.6-3.7-2.1-2.1-0.9-1.4 0-1.5 0.6-2.7 1.4-1.3 1 0.2 0.7 1.1 0.5 1.4 0.2 3.8-0.1 1.2 0.2 0.6 0.7-0.8 0.9-1.4 0.8-1.1 0.4-2.3-0.4-6.6-2.4-2.5-0.2-2.5 0.1-1.4-0.2-0.8-0.8-0.6-0.9-1.6-1.4-1.4-0.7-1.7-0.6-1.3 0.1-0.8 1-1.3 3.1-0.4 0.8-0.4-0.4-2.4-1.4-1.1-0.9-0.5-0.5-0.3-0.6-0.3-0.7-0.2-0.7-0.2-0.7-0.2-1.5 0-1.1 0-0.5 0-0.4 0.3-0.6 1.9-2.9 1.1-2.6 0.7-2 0.2-0.7 0-0.2 0-0.6-0.5-2.8-1.1-3.5 1.7-3.9 0.4-2.1 0-0.6 0-0.7-0.9-3.1-0.1-0.8 0.1-0.6 0.2-0.5 0.6-0.9 0.1-2.7-0.4-3.1 0-0.8 0.2-0.8 0.5-1.4 0.1-0.5-0.2-0.6-0.2-0.8-0.4-2.3-1.3-4-0.2-0.5-0.3-0.2-0.2-0.2-1.3-0.6-0.3-0.2-2.8-2.7-1.9-1.2-0.6-0.8-0.5-1.8-5.8-4.4-1.4-1.5 0-0.4 0.1-0.3 0.2-0.5 2.5-4.5 3.1-3.7 5.4 5.3 2.6 1.7 0.6 0.2 0.5 0.1 0.8-0.2 3.9-0.3 1.6-0.3 1.7-0.7 0.9-0.5 2.5-2 1.7-1.7 0.4-0.8 0.2-1.2 0.1-0.7 0.1-0.3 0.6-0.6 0.8-0.7 4.4-4.2 0.7-1.3 0.5-0.9 2.6-2.8 2.9-8.7 0.5-1 0.7-0.9 5.9-4.5 3.8-4.3 0.7-1.1 0.6-1.2 0.4-1.3 0.3-1.4 0.7-2.1 0.7-1 4.4-3.9 0.1-0.2 4.6-1.7 1.7-0.2 1.2 0.6 0.6 0.2 0.5-0.2 0.5-0.2 0.3 0 0.3 0.1 1.5 0.6 0.3 0.3 0.2 0.2 0.7 1.4 1 1.3 0.2 0.5 0.1 0.5 0 0.7-0.2 3.6 0 1.5 0.6 4.5-0.1 0.4 0 0.4 0 0.6 0.2 0.8 0.3 1.7 0.3 0.5 0.2 0.1 0.2 0 0.4-0.1 1-0.4 0.9-0.6 1.7-1.6 2.5-1.5 3.1-1.4 2.2-1.4 0.5-0.5 0-0.2 0-0.2 0-0.3-0.1-0.3 0-0.4 0.1-0.2 0.2-0.1 0.4 0 0.4 0.1 0.3 0.1 0.2 0.2 0.2 0.2 0.5 0.4 1.9 1.5 1.3 0.3 1.2-0.2 2.9-1 1-0.1 0.4 0.2 0.3 0.2 1.2 0.4z" id="AFPIA" name="Paktika">
  </path>
  <path d="M522.9 528.1l1.1 3.5 0.5 2.8 0 0.6 0 0.2-0.2 0.7-0.7 2-1.1 2.6-1.9 2.9-0.3 0.6 0 0.4 0 0.5 0 1.1 0.2 1.5 0.2 0.7 0.2 0.7 0.3 0.7 0.3 0.6 0.5 0.5 1.1 0.9 2.4 1.4 0.4 0.4-0.3 0.5-2.1 2-0.3 0.6-0.2 1.6-0.4 0.5-3.3 1.9-1 0.8-0.7 1-0.7 0.4-2.6 0.1-1.9-0.3-0.9 0.1-1.7 0.8-3.9 4.4-2.1 1.5-3.2-1.6-0.5-0.1-2.4-0.3-1.4 0.1-3.4 1.2-1 0.3-1 0.1-4.3-0.2-0.4 0-2 0.5-0.3 0-0.3 0-0.4-0.1-0.3-0.1-0.4-0.1-0.1-0.2 0-0.4 0.2-0.5 0.5-1 0.1-0.3-0.3-1.2-1.3-2.4-2.8-1.7-1-0.2-0.3 0.1-0.2 0.3-0.3 0.9-0.2 0.2-0.2 0.1-0.1 0-0.2 0-0.5-0.2-0.7-0.4-0.5-0.3-0.4-0.6-0.9-1.9-0.1-0.1-0.2-0.1-0.4-0.2-0.4-0.1-1-0.1-0.1-0.1-0.2-0.3-0.7-2.2-1.7-2.9-2.7 1-1.3 0.8-4.5 1.3-1.4 0.2-2.9-0.6-1.7-0.4-0.3-0.1-0.5-0.1-0.6-0.3-1-0.7-1.4-0.8-1.2-0.9-0.5-0.6-0.5-0.4-0.6-0.3-2.5-0.8-2.8-1.4-1-1-3-2.5-0.2-0.3-0.5-0.6-0.2-0.1-0.3 0.1-0.7 0.8-8.1 6.7-0.7 0.3-2.8 0.6-0.9 0-0.7-0.1-0.2-0.2-0.3-0.1-0.3 0-1.3 0.3-1.2 0.5-1.2 0.7-0.8 0.6-1.5 1.6-2.5 1.8-0.4 0-0.2-0.1-5.1-5.3-2-1.4-0.2-0.2-0.3-0.3-0.4-0.8-0.1-0.5-0.1-1.9 2.1-2 0.9-0.6 1.5-0.8 2.4-0.7 0.3-0.2 0.3-0.2 0.5-0.7 1.4-1.8 0.7-1.9 0.2-0.5-0.1-1.9-0.4-1.6-0.6-0.5-0.7-0.4-0.2-0.3-0.1-0.3 0-0.5 0.8-1.9 0.9-1.6 0.1-0.4 0.1-0.4-0.3-1.6-0.1-1.7 0-0.2-0.1-0.1-0.1-0.5-0.1-1-0.1-0.4-0.3-0.7-0.1-0.6 0-0.6 0.2-0.9 0.4-0.7 0.3-0.5 1.6-1.6 1.4-1.2 1-1.3 0.8-1.3 0.3-0.7 0.9-2.4 0.4-0.5 0.7-0.5 2.3-1.2 0.6-0.4 0.2-0.2 0.9-1.5 0.6-1.2 0.1-0.4 0.7-3.4 0.1-0.4 0-0.4-0.1-1.3 0-0.4 0.3-0.7 0-0.4-0.1-0.4-0.3-0.4-0.5-0.2-0.6-0.2-0.2-0.2-0.5-0.4-0.7-0.4-0.2-0.2-0.1-0.2-0.3-0.5-0.2-0.3-0.2-0.2-0.5 0-0.6 0.1-0.3 0-0.2-0.1-0.3-0.1-0.2 0-0.2 0.1-0.3 0.2-0.4 0.6-0.3 0.5-0.7 1.8-1.4 2-0.3 0.3-0.5 0.2-0.8 0-0.5 0-2-0.8-0.6-0.9-0.2-0.5-0.2-0.4 0-0.3 0.1-0.4 0.8-1.6 0.1-0.7 0-0.7-0.1-0.5 0.1-0.5 0.6-0.8 3.1-3.5 0.8-1.1 0.7-1.3 0.5-0.5 3-1.5 3.1-0.4 1.1-0.9 1.9-3.6 2.7-0.3 1 0.1 0.2 0.2 0.1 0.2 0 0.4-0.2 0.7-1.4 4.3-0.1 0.5 0 0.3 0.1 0.3 0.1 0.1 0.1 0.1 0.3 0.2 0.6 0 0.8-0.2 1.5-0.8 0.7-0.4 0.4-0.6 0-0.5-0.2-0.8 0.1-0.4 0.1-0.3 0.2-0.4 1-1.4 1-0.9 1-0.9 4.2-2.6 0.4-0.4 0.7-0.4 0.9-0.2 1.9-0.2 1.6 0.1 0.3-0.1 0.5-0.2 1.1-0.9 0.7-0.1 0.6 0.2 0.7 0.5 0.3 0.1 0.5 0.1 0.5 0.1 0.5-0.1 0.2-0.1 0.5-0.3 0.3-0.1 0.4-0.2 0.2-0.4 0.5-0.7 0.2-0.4 0.2-0.8 0.1-0.6 0.3-4.4 1.9 0 0.4-0.2 0.4-0.3 0.1-0.3 0.1-0.4 0.8-1.5 1.1-1.5 0.4-0.7 0.2-0.6-0.1-0.3-0.1-0.3-0.9-1.3-0.3-0.6-0.2-0.5 0-0.7 0.1-0.4 0.2-0.2 0.4-0.2 0.8-0.3 1.8-0.1 1.8 0.4 0.5 0.2 0.4 0.3 0.1 0.3 0.1 0.3 0.2 1.5 0.1 0.7 0.3 0.7 0.6 1 0.4 0.4 0.4 0.2 0.2 0 2-0.3 0.6 0 0.3 0.1 0.2 0.1 0.1 0.3 0.1 0.2 0.1 0.3-0.1 0.5 0.1 0.3 0.2 0.2 0.9 0.3 0.3 0.2 0.6 0.6 0.2 0.1 0.4 0 0.4-0.1 2 0 0.4-0.1 0.4-0.2 0.4-0.2 0.3-0.3 0.5-0.8 0.8-1.2 1-1.3 0.3-0.2 0.4-0.2 0.7-0.1 0.3 0 0.2 0.2-0.1 0.3 0 0.2-0.1 0.2-0.3 0.4-0.1 0.3 0 0.2 0 0.1 0 0.1 0.1 0.1 0.4 0.4 0.2 0.4 0.1 0.2 0.2 0.3 0.1 0.4 0.1 0.5 0 0.5 0 0.3-0.2 0.4-0.2 0.3-0.3 0.3-0.3 0.2-2.4 1.4-0.3 0.2-0.1 0.4 0 0.4 0.3 0.6 0.4 0.3 2.2 0.9 0.5 0.4 0.4 0.4 0.1 0.3 0.1 0.2 0 0.3-0.1 0.1-0.2 0.2-0.3 0.1-0.9 0-0.2 0.1-0.2 0.2-0.2 0.3-0.2 0.3-0.1 0.4-0.1 0.3 0 0.8 0.3 0.9 1.7 2.5 1.6 1.5 0.2 0.2 0.1 0.7 0.2 0.3 9.6 9.6 0.6 0.5 2.1 0.9 0.2 0.2-0.1 0.2-4.3 4.8 4 3 1 1.2 0.6 2.6 0.1 0.2 0.2 0.1 2.4 0.4 0.5 0.2 2.1 1.4 0.5 0.5 0.4 0.5 0 0.4-0.1 0.4-0.1 0.4-0.3 0.5-0.9 0.9-1 1-1.2 0.8-1.7 0.8-0.3 0.1-0.3 0-0.2 0-0.6-0.1-1-0.3-0.2 0-0.2 0.1-0.2 0.1-0.3 0.3-0.4 0.4-0.3 0.7-0.3 0.8-0.1 1.1 0.1 0.6 0.2 0.5 0.3 0.1 0.2 0.1 0.3 0 1.8-0.6 0.3 0 0.3 0 0.2 0 0.3 0.1 0.5 0.3 0.5 0.5 0.7 0.9 0.2 0.7 0.1 0.6-0.4 2.9-0.1 0.7 0.1 0.4 0.2 0.2 0.7 0.5 0.9 0.6 0.4 0.2 3.9 0.5 1.2 0.4 0.8 0.4 1.3 1 1.7 1.1 1 0.9 0.8 0.6 0.6 0.2 0.6 0.1 4.1-0.1 0.4-0.2 2.5-1.7z" id="AFZAB" name="Zabul">
  </path>
  <path d="M414.1 498.8l2 0.8 0.5 0 0.8 0 0.5-0.2 0.3-0.3 1.4-2 0.7-1.8 0.3-0.5 0.4-0.6 0.3-0.2 0.2-0.1 0.2 0 0.3 0.1 0.2 0.1 0.3 0 0.6-0.1 0.5 0 0.2 0.2 0.2 0.3 0.3 0.5 0.1 0.2 0.2 0.2 0.7 0.4 0.5 0.4 0.2 0.2 0.6 0.2 0.5 0.2 0.3 0.4 0.1 0.4 0 0.4-0.3 0.7 0 0.4 0.1 1.3 0 0.4-0.1 0.4-0.7 3.4-0.1 0.4-0.6 1.2-0.9 1.5-0.2 0.2-0.6 0.4-2.3 1.2-0.7 0.5-0.4 0.5-0.9 2.4-0.3 0.7-0.8 1.3-1 1.3-1.4 1.2-1.6 1.6-0.3 0.5-0.4 0.7-0.2 0.9 0 0.6 0.1 0.6 0.3 0.7 0.1 0.4 0.1 1 0.1 0.5 0.1 0.1 0 0.2 0.1 1.7 0.3 1.6-0.1 0.4-0.1 0.4-0.9 1.6-0.8 1.9 0 0.5 0.1 0.3 0.2 0.3 0.7 0.4 0.6 0.5 0.4 1.6 0.1 1.9-0.2 0.5-0.7 1.9-1.4 1.8-0.5 0.7-0.3 0.2-0.3 0.2-2.4 0.7-1.5 0.8-0.9 0.6-2.1 2 0.1 1.9 0.1 0.5 0.4 0.8 0.3 0.3 0.2 0.2 2 1.4 5.1 5.3 0.2 0.1 0.4 0 2.5-1.8 1.5-1.6 0.8-0.6 1.2-0.7 1.2-0.5 1.3-0.3 0.3 0 0.3 0.1 0.2 0.2 0.7 0.1 0.9 0 2.8-0.6 0.7-0.3 8.1-6.7 0.7-0.8 0.3-0.1 0.2 0.1 0.5 0.6 0.2 0.3 3 2.5 1 1 2.8 1.4 2.5 0.8 0.6 0.3 0.5 0.4 0.5 0.6 1.2 0.9 1.4 0.8 1 0.7 0.6 0.3 0.5 0.1 0.3 0.1 1.7 0.4 2.9 0.6 1.4-0.2 4.5-1.3 1.3-0.8 2.7-1 1.7 2.9 0.7 2.2 0.2 0.3 0.1 0.1 1 0.1 0.4 0.1 0.4 0.2 0.2 0.1 0.1 0.1 0.9 1.9 0.4 0.6 0.5 0.3 0.7 0.4 0.5 0.2 0.2 0 0.1 0 0.2-0.1 0.2-0.2 0.3-0.9 0.2-0.3 0.3-0.1 1 0.2 2.8 1.7 1.3 2.4 0.3 1.2-0.1 0.3-0.5 1-0.2 0.5 0 0.4 0.1 0.2 0.4 0.1 0.3 0.1 0.4 0.1 0.3 0 0.3 0 2-0.5 0.4 0 4.3 0.2 1-0.1 1-0.3 3.4-1.2 1.4-0.1 2.4 0.3 0.5 0.1 3.2 1.6-1.4 0.9-1.9 0.8-1.9 0.2-4.1-0.9-2 0.1-0.8 1.3 0.4 1.1 1 1.1 0.8 1.3 0.4 2.9 0.9 1.1 1.2 0.8 1.3 0.3 5.2-0.7 2.3 0.8 0.3 3.1-0.7 1.3-0.9 0.5-2.6-0.1-1 0.3-0.9 0.6-0.8 0.8-4 2.6-1.2 0.4-3.4 0.7-2.3 1-3.7 0.5-4.4 1.9-1.2 0.2-4-0.4-3.3 0.2-1-0.2-1.3-0.4-2.3-1.3-1.3-0.4-1.2 0.1-2.5 0.6-1.3 0-1.4-0.3-0.8-0.3-0.5-0.4 0-0.5 0.2-0.5 0.4-0.4 0.1-0.6-0.1-1.7-0.5-1-0.9-0.5-3.7 0.1-2.4 0.7-4.2 2.1-1.9 1.6-1.5 1.7-1.6 1.3-2.4 0.3-1.6 1.1-2.1 8.3-1.2 1.7-5.9 6.1-1.4 0.6-8.6 1.8-1.1 0.5-0.5 1.1-6.2 23.6-0.2 3.2 1 2.9 1.6 2 0.5 0.9 0.3 1.5 0.2 1.5-1.2 9.7 0.1 4.4-0.3 1.4-4 8.3-1 2.8-0.1 1.1 0.4 1 2.2 1.6 2.6 2.6 1.9 1.5 0.5 0.7-0.2 0.3-0.5 0.2-0.4 0.2-1.3 2.3-1.7 2.2-5 3.6-5.4 1.6-3.6 1.1-3.7 1.1-3.7 1-3.6 1.1-3.7 1.1-3.7 1.1-3.6 1-3.7 1.1-3.7 1.1-3.6 1.1-3.7 1-3.7 1.1-3.6 1.1-3.7 1.1-3.6 1-3.7 1.1-9.2 2.7-3.1-0.1-10.5-1.9-8.6-0.1-11.7-0.1 0.1-0.4 8.2-47.1 1.9-14.1 0.8-23.7 2.9-36.5 0.2-2.6 0.9-11.5 0.8-4.2 1.9-7.2 1-2.3 0.1-0.4 1-6.5 0.5-1 0-0.1-0.1-0.2-0.4-0.2-0.5-0.4-0.6-0.6-0.2-0.5 0.1-0.8 1.2-6.3 0.2-0.5 0.1-0.4 0.2-0.2 1.1-0.9 0.5-0.6 2.8-2.7 1-1.1 0.3-0.7 0.6-2.7 0-2.5 0.5-1.3 0.5-0.9 0.3-0.4 0.3-0.3 0.4-0.2 0.3-0.1 1.2-0.7 1-0.8 0.6-0.3 0.6-0.1 0.9 0.1 0.5 0.2 1.1 0.7 0.5 0.2 0.6 0.1 1.3 0 0.9-0.1 0.5-0.3 0.3-0.6 0.9-3.4 0.5-1.1 0.2-0.6 0-0.4-0.3-0.3-0.2-0.2-0.2-0.2 0.2-0.2 0.2-0.2 0.5-0.3 0.2-0.3 0.2-0.3 0-0.8 0.1-0.4 0.5-1.3 0.1-0.5 0.1-0.5 0.2-1.1 1.9-1.6 1.1-0.6 0.2-0.2 0.1-0.3 0.1-0.3 1-3.9 0.6 0.2 0.9 1.1 0.6 0.3 0.7 0.1 3.4-0.2 0.9 0.4 2.4 1.3 1 0.4 0.8 0.1 0.9 0 0.5-0.2 0.4-0.3-1-2-0.1-0.3 0-0.4 0.2-0.2 0.2-0.3 0.2-0.4 0.3-1.3 0.1-0.3 0.1-0.1 0.1-0.1 0.3-0.2 0.6-0.3 0.3-0.4 0-0.3-0.4-1.5-0.1-1.6 0-0.8 0.1-0.4 0.1-0.2 0.2-0.2 1.1-0.5 0.9-0.3 0.3-0.2 0.5-0.4 0.4-0.6 0.6-1.1 0.2-0.9 0.2-1.2 0.3-0.8 0.7-1.1 2.2-2.9 0.4-0.4 0.2-0.1 0.2-0.1 0.4-0.1 0.5 0 4.6 0.9 0.8-0.1 1.1-0.3 0.2 0 0.2 0 0.1 0.3-0.1 0.2-0.1 0.3-0.2 0.7-0.2 1 0.4 4.2-0.1 2.1 0 0.5 0.1 0.3 0.2 0 0.2 0 1.1-0.2 0.3-0.2 0.3-0.2 0.2-0.2 0.3-0.3 0.8-1.4 0.2-0.2 0.2-0.2 0.3-0.2 0.6-0.3 0.7-0.2 0.4 0 0.6 0.1 2 0.7 0.4 0 1.4-0.1 0.5 0 1.1 0.3 3.3 0.4 2.9 0.3 0.8 0.3 0.1 0.2 0.2 0.6 0.1 0.2 0.6 1 0.5 0.5 0.6 0.2 0.6 0 1-0.1 3.9 0.5 2-0.4 0.4-0.3 0.2-0.3 0-0.3 0-0.2 0-0.8 0-0.4 0.2-0.4 0.3-0.5 0.3-0.1 0.2 0 0.2 0.1 0.1 0.3 0.3 0.3 0.7 0.1 0.7-0.2 4.1-0.6 0.7-0.3 0.3-0.3 1.6-1z" id="AFKAN" name="Kandahar">
  </path>
  <path d="M179 725l7.5-35.5 0.1-3.2-0.4-3.4 0.1-0.6 0.3-0.7 1.6-2.2 0.4-0.9 0.3-1.1 0.4-5.2-0.1-3.7 0.2-0.7 0.4-0.5 0.4-0.3 0.5-0.3 0.5-0.1 0.7-0.1 0.5-0.1 2.2-1.3 2.5-2.5 1.9-2.4 2.7-4.2 1.6-3 0.8-2.2 0.7-1.4 0.8-1.1 3.3-2.4 1-1.1 0.3-0.7 0.1-0.8-0.2-0.5-0.2-0.6-0.4-0.5-0.8-1.1-0.4-0.7-0.2-0.4-0.1-1.3 1.5-2.2 0-0.4 0-0.4-0.9-0.5-0.5-0.4-0.4-0.9 0-0.5 0.4-0.6 0.6-0.6 2.1-2.9 0.6-0.6 0.7-0.5 1.1-0.6 0.6-0.5 0.2-0.5 0-0.7-0.6-3.5-0.1-5-0.2-2.7 0.8-1 2.5-1.1 0.8-0.5 1.2-1.1 0.5-0.7 0.6-1.4 2.6-5.1 0.5-0.6 0.6-0.5 1.4-0.5 1.1-1.4 0.2-1.2-0.1-0.7 0.4-6.5 0-0.8-0.2-0.6-0.3-0.5-0.7-1.1-0.9-2.8 0.1-1.2 1.4-1.7 0.8-1.4 0.1-7.8 3.3-24 1.4-4.2 2.6-2 0.7-0.9 1-1.4 2.3-4.7 0.3-1.1 0.1-0.8-0.4-1.7 0-0.6 0.1-0.4 1-0.9 0.9-1.2 0.2-0.6 0-0.5-0.9-0.9-0.1-0.3-0.1-0.3 0-0.4-0.1-0.4-0.1-0.4-0.5-0.7-0.1-0.3-0.1-0.4 0.1-0.7-0.3-1.1-0.3-2.6 1.5-1.2 5-2.4 1.1-0.7 0.8-0.6 3.4-3.7 0.6-0.3 0.5-0.1 0.4 0 1.4-0.5 0.5-0.1 0.7 0.1 2 0.5 0.9-0.1 0.4-0.2 0.2-0.5 0-0.5 0.1-0.4 0.2-0.5 0.3-0.4 4.5-3.6 0.5-0.3 0.3 0 0.6 0.6 0.5 0.2 0.3-0.2 0.4-0.4 0.3-0.5 0.5-0.6 0.9-0.8 0.9-0.6 0.9-0.4 0.4-0.4 0.2-0.6-0.1-0.7-0.1-0.7-0.3-0.8-0.3-0.5-0.6-0.6-0.1-0.3-0.1-0.4-0.1-1.7 0-1.5 0.2-0.6 0.3-0.2 0.6-0.5 0.4-0.2 0.3-0.1 0.2 0 0.1 0 0.1 0.1 0 0.1 0.1 0.5 0.1 0.3 0.1 0.2 0.5 0.1 0.6 0 4.6-0.9 3.2-0.2 0.6-0.2 2.1-1.3 3-1.4 1.1-0.8 0.5-0.6 0-0.5 0-0.4 0-0.4 0.5-0.9 0-0.4-0.1-0.2-0.3-0.3-1.2-0.7-0.9-0.3-0.3-0.1-0.1-0.2 0-0.3 0.1-0.9 0.6-1.1 1.1-1.2 2.6-1.8 0.6-0.6 0.3-0.5-0.1-0.3 0-0.3 0-0.3 0.3-0.4 1-1.5 1-1.1 0.7-1.1 0.7-0.6 0.6-0.5 0.5-0.2 1.5-0.2 8.2-3.3 0.5-0.3 0.3-0.4 0-0.3-0.1-0.3-0.3-0.2-0.3-0.2-1.5-0.6-0.2-0.2-0.1-0.1 0.1-0.1 0-0.3 0.3-0.6 0.6-1.3 0.7-1 0.3-0.5 0.1-0.4-0.1-0.3-0.1-0.1-0.2-0.1-0.1-0.1-0.2-0.2 0-0.4 0.4-0.7 0.6-0.8 1.2-1.3 0.6-0.6 0.5-0.8 0.7-0.7 5.7-4.3-1-0.6-0.1-0.3-0.1-0.5 0-1.1 0.2-0.6 0.2-0.5 2.1-1.8 0.1-0.3 0-0.2-0.1-0.3-0.2-0.2-0.5-0.8 2.8-1.3 0.8-0.1 0.1 0.2 0.1 0.3 0 0.3 0.2 1.8 0.2 0.3 0.3 0.3 0.9 0.1 0.4 0 0.4-0.1 0.5-0.2 0.4-0.2 0.4-0.4 2.1-2.3 0.8-0.7 0.5-0.2 0.3 0.1 0.5 0.3 0.5 0.2 1.2 0.3 0.5-0.1 0.5-0.2 0.6-0.6 1.7-1.2 0.2-0.2 0.1-0.2 5.5-2.6 0.4-0.3 0.7-0.8 1-0.9 2.8-1.7 0.7-0.2 0.7-0.1 2.4 0.2 1.3 1.5 1.1 0.6 2.2 0.3 0.3 0.1 0.1 0.3 0 0.4-0.2 0.4-0.1 0.3-0.1 0.4 0.2 0.7 1.5 2.6 0.6 0.8 0.7 0.7 0.8 0.7 0.3 0.5 0.3 0.5 0 1.3-0.1 0.6-0.1 0.5-0.2 0.4 0 0.4 0 0.8-0.1 0.5-0.2 0.9-0.1 0.3 0 0.7-0.1 0.7 0 0.5 0 0.5 0 0.5 0 1.1-1.2-0.2-0.3 0.2-0.5 0.3-1.4 1.4-0.3 0.5-0.2 0.4 0.2 0.6 0 0.2 0 0.4 0 0.4-0.3 0.7-1.1 1.1-0.7 0.6-0.7 1-3.8 6.8 0 0.3 0 0.3 0.1 0.3 0.2 0.2 0.2 0.3 0.5 0.3 0.3 0.2 0.1 0.2 0.1 0.3 0.1 0.4 0.1 0.4-0.1 0.6-0.7 3.1-0.1 0.6 0 0.4 0.1 0.3 0.2 0.3 0.2 0.7 0.2 0.5-0.8 4-1.1 2.5 0.1 0.2 0.1 0.2 0.5 0.1 0.5 0.2 0.6 0.5 0.3 0.1 0.2 0 1-0.3 0.4 0.1 0.3 0.3 0.2 0.6 0.3 0.3 0.3 0.2 0.2 0 0.8 0.3 0.2 0.8 0.7 3.4 0.5 1.4 0.1 1-0.1 0.7-0.5 0.8-1 1.2-0.3 0.6-0.1 0.3 0.1 0.3 0.1 0.3 0.2 0.6 0.2 0.8 0.2 1.7 0 0.9-0.1 0.7-0.2 1-0.1 0.5-0.2 0.4-0.6 0.9-0.5 1.7-0.8 4.2-1 3.9-0.1 0.3-0.1 0.3-0.2 0.2-1.1 0.6-1.9 1.6-0.2 1.1-0.1 0.5-0.1 0.5-0.5 1.3-0.1 0.4 0 0.8-0.2 0.3-0.2 0.3-0.5 0.3-0.2 0.2-0.2 0.2 0.2 0.2 0.2 0.2 0.3 0.3 0 0.4-0.2 0.6-0.5 1.1-0.9 3.4-0.3 0.6-0.5 0.3-0.9 0.1-1.3 0-0.6-0.1-0.5-0.2-1.1-0.7-0.5-0.2-0.9-0.1-0.6 0.1-0.6 0.3-1 0.8-1.2 0.7-0.3 0.1-0.4 0.2-0.3 0.3-0.3 0.4-0.5 0.9-0.5 1.3 0 2.5-0.6 2.7-0.3 0.7-1 1.1-2.8 2.7-0.5 0.6-1.1 0.9-0.2 0.2-0.1 0.4-0.2 0.5-1.2 6.3-0.1 0.8 0.2 0.5 0.6 0.6 0.5 0.4 0.4 0.2 0.1 0.2 0 0.1-0.5 1-1 6.5-0.1 0.4-1 2.3-1.9 7.2-0.8 4.2-0.9 11.5-0.2 2.6-2.9 36.5-0.8 23.7-1.9 14.1-8.2 47.1-0.1 0.4-1.3 0-17.1 5.1-2.2 1.1-1.4 1.9-2.3 4.5-1.8 0.7-7.2-3.1-11.6-2.2-13.8-2.7-9.7 0.9-3.1 0.3-3.1 0.3-3 0.3-3.1 0.3-3.1 0.3-3.1 0.2-3.1 0.3-3.1 0.3-3.1 0.3-3.1 0.3-3.1 0.3-3.1 0.3-3.1 0.3-3.1 0.3-3.1 0.3-3.1 0.3-1.8 0.1z" id="AFHEL" name="Hilmand">
  </path>
  <path d="M352.3 453.7l0-1.1 0-0.5 0-0.5 0-0.5 0.1-0.7 0-0.7 0.1-0.3 0.2-0.9 0.1-0.5 0-0.8 0-0.4 0.2-0.4 0.1-0.5 0.1-0.6 0-1.3-0.3-0.5-0.3-0.5-0.8-0.7-0.7-0.7-0.6-0.8-1.5-2.6-0.2-0.7 0.1-0.4 0.1-0.3 0.2-0.4 0-0.4-0.1-0.3-0.3-0.1-2.2-0.3-1.1-0.6-1.3-1.5 1.7-1.3 1-0.7 1.4-0.5 1.7-0.4 1.2-0.4 2.5-1.3 0.1-1.1-0.1-0.2 0-0.2-0.3-0.2-0.1-0.2 0-0.2 0.1-0.4 0.9-1.4 0.2-0.1 0.1-0.1 0.3-0.1 0.8-0.1 0.2 0 0.2-0.1 0.2-0.1 0.1-0.2 0.2-0.2 0.2-0.2 2-1.7 1.9-2.3 2.1-1.9 0.3-0.2 0.9-0.4 1-0.5 1.6-1.3 0.1-0.3 0.1-0.3-0.2-0.9-0.4-0.7-0.9-0.9-1-0.9-1.3-0.6-0.6-1.2-0.5-4.2-0.4-2.3-0.4-0.8-0.4-0.4-0.3-0.5-0.1-0.1-0.2-0.1-0.4-0.2-0.4-0.1-0.2-0.1-0.1-0.1-0.3-0.2-0.1-0.2 0-0.2-0.1-0.3-0.1-0.3-0.1-0.3-0.2-0.2-1.7-1-0.2-0.2-0.1-0.2-0.1-0.3-0.2-1 0-0.3-0.2-0.3 0-0.2-0.1-0.2 0.1-0.3 0-0.5 0.2-0.3 0.3-0.3 1.5-0.9 0.4-0.2 0.1-0.1 0.2-0.1 0.3-0.1 1.2-0.1 0.2-0.1 0.2-0.3 0.4-0.7 0.4-1.4 0.9-1.5 0.8-0.4 0.5-0.9 0.3-1.8-0.4-2.2-0.1-0.3-0.3-0.3-0.8-0.1-0.3 0-0.2-0.1-0.1-0.2-0.2-0.2-0.3-1-0.2-0.4-0.1-0.2-0.2-0.3-0.2-0.1-0.2-0.2-0.1-0.3 0.2-2 0.4-1.1 0.3-1.5 0-0.8 0-0.6 0.1-0.6 0.8-1.5 0-0.3-0.1-0.4-0.2-0.2-0.2-0.2-0.1-0.2-0.1-0.4 0.1-0.7 0.3-1.9 0.3-1.1 0.9-2.2 0.1-0.6 0-0.7 0-1.1 0.7-2.5 0.6-0.3 5.9-0.2 2.4 0.1 4.7 0.9 8.4 0.6 4 0.8 0.7-0.1 0.8-0.2 1.1-0.5 0.7-0.5 0.5-0.4 0.9-1.1 0.1-0.1 0.5-0.1 2.3 0.1 1.3 0.2 0.4 0 2.3-0.4 1.7 0.2 0.7 0 0.6-0.4 0.5-0.3 1.3-1.5 0.2-0.4 0.4-0.9 0.5-0.2 0.8 0 3.4 0.6 0.7 0.2 0.5 0.3 0.2 0.2 0.9 0.8 0.3 0.1 0.4 0.1 0.3-0.1 0.6-0.2 7.9-1.2 1.4 0.5-1.2 1.6 0 0.3 0 0.3 0.6 0.8 0.4 0.9 2.3 0.1 2 0.7 0.8 0.4 0.5 0.3 0.3 0.5 0.2 0.4 0 0.5-0.1 0.3-0.2 0.2-0.3 0.1-0.7 0.3-0.3 0.2-0.8 0.7-0.4 0.4-0.3 0.4-0.1 0.4 0.3 2.8 1 2.5-0.1 0.5-0.1 0.8-1.6 3.3-0.4 1.3-0.2 2.3 0 1 0.2 0.8 0.3 0.3 0.6 0.8 3.6 3.5 3.6 2 1.4 0.2 1.7-0.8 0.7-0.2 0.3-0.1 0.3-0.3 0.6-0.4 0.8-0.3 1.9-0.4 1.1 0 11.2 2.3 0.5 0.2 0.3 0.3 0.2 0.3 0.2 0.3 0.1 0.3 0.1 0.1 0.3 0.2 2.4 1 0.5 0 0.4 0 3.5-2.2 0.7-0.3 1-0.3 0.6 0 0.4 0 0.1 0.1 0.2 0.2 1 1.1 0.2 0.1 0.1-0.2 0.2-0.1 0.5-0.4 0.2-0.3 0.5-0.9 0.2-0.3 0.2-0.3 0.4-0.3 2.1-0.6 5.2-0.8 0.6-0.4 0.6-0.4 0.9-1.2 1.1 1 0.2 0.5 0 0.4-0.4 0.8-0.7 2-0.1 0.4-0.2 0.2-0.7 0.6-0.4 0.6 0 0.3 0.1 0.3 0.7 0.5 0.9 0.5 0.1 0 0.4 0.5 0.4 1.2 0.9 2.7-0.1 0.6-0.2 0.4-1.3 0.7-0.5 0.3-0.4 0.5-2.2 3.1-1.3 1.2-4 3.5-0.6 0.7-0.7 1.1-0.5 0.9-0.9 1.3-1.4 1-1.3 0.7-6 1.8-0.3 0-1.6-0.1-3.5 0.8-5.6 2.3-0.7 0.4-0.3 0.3-0.6 0.7-0.9 2.2-0.1 0.5 0 1.4 1.9 5.5 0.1 2-0.3 0.7-0.1 0.6-0.2 0.9-0.1 3.1-0.1 0.4-0.1 0.4-0.2 0.3-0.4 1.1-0.5 3.5-2.1 0.7-0.8 0.1-1 0-0.5-0.3-0.2-0.3-0.4-1.2-0.2-1.5-0.2-0.3-0.2 0-0.4 0.2-1.3 1.5-0.7 0.7-0.7 0.4-1 0.3-1.4 0-1.6 0.6-4.5 2.5-1.8-0.5-0.8-0.9-0.6-1-0.3-0.6-0.1-0.4 0-0.4-0.1-0.4-0.2-0.4-0.8-1.3-0.2-0.2-0.3-0.1-0.4-0.1-0.5 0-0.9 0.3-3 1.2-1 0.2-0.7 0.1-0.6-0.2-1.4-0.8-0.2-0.1-0.6 0.1-0.8 0.2-1.2 0.7-7.7 5.7-1.8 0.9-1.3 0.4-1.7 1-0.5 0.4-0.4 0.6-0.4 1.1-0.8 3.5-0.1 0.7 0 0.6 0.1 0.6 0 0.5-0.1 0.5-0.2 0.6-0.3 0.4-0.3 0.3-1 0.1-1.9-0.5-7.9-1.8-1.6-0.9-2.4-2.5-0.6-0.5-0.4 0-0.6 0.1-0.6 0.6-0.7 1.3-0.3 0.3-0.4 0.2-0.4 0-2.2-0.5-0.5 0-0.7 0-0.7 0.2-1.3 0.5-0.4 0.1-0.5-0.1-3.7-2.5-0.6-0.2-0.6-0.2-0.7-0.2-5.1-0.2-0.6 0.1-0.1 0.4 0.1 0.3 0.6 1.6 0.6 2.2 0.1 0.7-0.2 0.2-0.3 0-0.9-0.6-0.7-0.3-0.7-0.2-0.8 0.2-0.4 0.4-0.2 0.4-0.1 0.5-0.2 0.3-0.3 0.1-0.6-0.3-1.8-1.2-2-0.4z" id="AFURU" name="Uruzgan">
  </path>
  <path d="M568.4 414.3l-0.2 2.8 0.1 2.6 0.2 1.5 0.3 0.9 0.7 1.4 0.6 1.3 0.1 0.8-0.1 0.6-1.5 3.4-0.4 1.3-0.1 0.2-4.4 3.9-0.7 1-0.7 2.1-0.3 1.4-0.4 1.3-0.6 1.2-0.7 1.1-3.8 4.3-5.9 4.5-0.7 0.9-0.5 1-2.9 8.7-2.6 2.8-0.5 0.9-0.7 1.3-4.4 4.2-0.8 0.7-0.6 0.6-0.1 0.3-0.1 0.7-0.2 1.2-0.4 0.8-1.7 1.7-2.5 2-0.9 0.5-1.7 0.7-1.6 0.3-3.9 0.3-0.8 0.2-0.5-0.1-0.6-0.2-2.6-1.7-5.4-5.3-3.1 3.7-2.5 4.5-0.2 0.5-0.1 0.3 0 0.4 1.4 1.5 5.8 4.4 0.5 1.8 0.6 0.8 1.9 1.2 2.8 2.7 0.3 0.2 1.3 0.6 0.2 0.2 0.3 0.2 0.2 0.5 1.3 4 0.4 2.3 0.2 0.8 0.2 0.6-0.1 0.5-0.5 1.4-0.2 0.8 0 0.8 0.4 3.1-0.1 2.7-0.6 0.9-0.2 0.5-0.1 0.6 0.1 0.8 0.9 3.1 0 0.7 0 0.6-0.4 2.1-1.7 3.9-2.5 1.7-0.4 0.2-4.1 0.1-0.6-0.1-0.6-0.2-0.8-0.6-1-0.9-1.7-1.1-1.3-1-0.8-0.4-1.2-0.4-3.9-0.5-0.4-0.2-0.9-0.6-0.7-0.5-0.2-0.2-0.1-0.4 0.1-0.7 0.4-2.9-0.1-0.6-0.2-0.7-0.7-0.9-0.5-0.5-0.5-0.3-0.3-0.1-0.2 0-0.3 0-0.3 0-1.8 0.6-0.3 0-0.2-0.1-0.3-0.1-0.2-0.5-0.1-0.6 0.1-1.1 0.3-0.8 0.3-0.7 0.4-0.4 0.3-0.3 0.2-0.1 0.2-0.1 0.2 0 1 0.3 0.6 0.1 0.2 0 0.3 0 0.3-0.1 1.7-0.8 1.2-0.8 1-1 0.9-0.9 0.3-0.5 0.1-0.4 0.1-0.4 0-0.4-0.4-0.5-0.5-0.5-2.1-1.4-0.5-0.2-2.4-0.4-0.2-0.1-0.1-0.2-0.6-2.6-1-1.2-4-3 4.3-4.8 0.1-0.2-0.2-0.2-2.1-0.9-0.6-0.5-9.6-9.6-0.2-0.3-0.1-0.7-0.2-0.2-1.6-1.5-1.7-2.5-0.3-0.9 0-0.8 0.1-0.3 0.1-0.4 0.2-0.3 0.2-0.3 0.2-0.2 0.2-0.1 0.9 0 0.3-0.1 0.2-0.2 0.1-0.1 0-0.3-0.1-0.2-0.1-0.3-0.4-0.4-0.5-0.4-2.2-0.9-0.4-0.3-0.3-0.6 0-0.4 0.1-0.4 0.3-0.2 2.4-1.4 0.3-0.2 0.3-0.3 0.2-0.3 0.2-0.4 0-0.3 0-0.5-0.1-0.5-0.1-0.4-0.2-0.3-0.1-0.2-0.2-0.4-0.4-0.4-0.1-0.1 0-0.1 0-0.1 0-0.2 0.1-0.3 0.3-0.4 0.1-0.2 0-0.2 0.1-0.3-0.2-0.2-0.3 0-0.7 0.1-0.4 0.2-0.3 0.2-1 1.3-0.8 1.2-0.5 0.8-0.3 0.3-0.4 0.2-0.4 0.2-0.4 0.1-2 0-0.4 0.1-0.4 0-0.2-0.1-0.6-0.6-0.3-0.2-0.9-0.3-0.2-0.2-0.1-0.3 0.1-0.5-0.1-0.3-0.1-0.2-0.1-0.3-0.2-0.1-0.3-0.1-0.6 0-2 0.3-0.2 0-0.4-0.2-0.4-0.4-0.6-1-0.3-0.7-0.1-0.7-0.2-1.5-0.1-0.3-0.1-0.3-0.4-0.3-0.5-0.2-1.8-0.4-1.8 0.1-0.8 0.3-0.4 0.2-0.2 0.2-0.1 0.4 0 0.7 0.2 0.5 0.3 0.6 0.9 1.3 0.1 0.3 0.1 0.3-0.2 0.6-0.4 0.7-1.1 1.5-0.8 1.5-0.1 0.4-0.1 0.3-0.4 0.3-0.4 0.2-1.9 0-0.8-0.3-3-0.7-0.8-0.4-0.5-0.5-0.6-0.8-0.4-1.2-0.3-1.3-0.3-2.7 0.1-1.2 0.1-0.9 0.1-0.4 0-0.6-0.1-2.1 0.2-1.1 0.1-0.2 0.1-0.9 0-0.2 0.2-0.3 0.2-0.2 2.3-1.6 0.3-0.5 0.5-0.8 0.2-0.3 0.4-0.3 1.1-0.6 0.2-0.2 0.1-0.5 0-0.7-0.1-1.1-0.3-0.9-0.4-0.5-1.1-0.3-6.4 0.3-1.7-0.3-0.9-2.4 0.5-3.5 0.4-1.1 0.2-0.3 0.1-0.4 0.1-0.4 0.1-3.1 0.2-0.9 0.1-0.6 0.3-0.7-0.1-2-1.9-5.5 0-1.4 0.1-0.5 0.9-2.2 0.6-0.7 0.3-0.3 0.7-0.4 5.6-2.3 3.5-0.8 1.6 0.1 0.3 0 6-1.8 1.3-0.7 1.4-1 0.9-1.3 0.5-0.9 0.7-1.1 0.6-0.7 4-3.5 1.3-1.2 2.2-3.1 0.4-0.5 0.5-0.3 1.3-0.7 0.2-0.4 0.1-0.6-0.9-2.7-0.4-1.2-0.4-0.5-0.1 0-0.9-0.5-0.7-0.5-0.1-0.3 0-0.3 0.4-0.6 0.7-0.6 0.2-0.2 0.1-0.4 0.7-2 0.4-0.8 0-0.4-0.2-0.5-1.1-1 1.1-3.1 0.3-0.5 0.5-1.2 0.8-1 2.6-1.9 3 0.4 1-0.1 2-0.6 0.3-0.3 0.1-0.2 0.4-1.7 0.3-0.4 0.4-0.4 0.8-0.7 0.5-0.3 0.6-0.2 4.2-0.9 1.6 0 2 0.4 2.3 0.9 2 1.4 1.6 1.5 0.6 0.3 0.9 0.2 2.9 0.2 0.8 0 1-0.2 4-1.4 1.8-1 1-0.7 0.3-0.2 0.4-0.2 0.2-0.2 0.9-0.6 1.4 0.4 1 0.6 1.9 1.8 0.5 0.8 0.3 0.7 0.6 3.4 0.1 0.6-0.1 1.1 0 0.6 0.1 0.7 0.2 0.8 0 0.6 0 0.6-0.1 0.5 0.1 0.6 0.1 0.8 0.6 1.9 0 1 0.5 1.3 0.6 0.5 0.8 0.2 3.9 1.6 0.4 0.2 0.6 1.2 3 1.9 1 1 0.2 0.3 5.4 5.7 0.4 0.4 0.4 0.2 0.3 0 0.6-0.1 0.6-0.1 1.4 0 0.6 1.6 0 0.5-0.1 0.5-0.5 1.6-0.3 1.2 0 0.7 0.1 0.5 0.1 0.1 0.1 0.2 0.6 0.4 0.8 0.4 2.5 0.6 0.7 0 1-0.1 0.6-0.2 5.3-3.2 0.4-0.3 2.7-3.3 1.5-1.5 1.9 0.9 0.3 0.3 0.3 0.5 0.1 0.5 0.5 1.5 0.6 1.3 0.2 0.7 0 0.3-0.2 0.1-0.5 0.2-0.2 0.1-0.3 0.2-0.2 0.5-0.3 0.7-0.1 0.8 0.1 0.4 0.3 0.3 0.3 0.2 0.3 0.3 0.1 0.2 0 0.9 0 0.3 0.5 0.5 0.1 1.7z" id="AFGHA" name="Ghazni">
  </path>
  <path d="M599.4 278l0 2-0.8 3.4-0.1 8.7-0.3 1.4 0.1 2.7 2.4-0.3 0.3 2.9-0.5 4.3-0.1 1.5 0.2 1.5 1 1.2 1.7 0.8 1.7 0.4 1 0.6 0.9 0.6 1.2 1.6 1.8 2 3.8 0.2 2.8 1 2 0.7 0.4 1.8-0.3 3.2 0.1 1.6-0.3 3.8 0.1 1.4 0.2 1 0.4 1 0.3 0.5 0.4 0.5 0.4 0.7 0.4 0.4 0.4 0.4 0.6 0.3 0 0.6-0.1 0.5-0.5 2.4-2.2-0.5-0.8 0-0.6 0.4-0.3 0.8-0.2 0.9-0.3 0.7-0.8 1-0.8 0.6-2.5 0.8-1.4-0.3-1-3.1-0.8-3.5-1.6-3.7-1.1-0.9-1.2-0.3-0.7-0.6-0.4-1-2.1-3.3-0.5-2.1-2.7-1.6-0.7-0.6-1.1-0.9-1.1-0.5-1.3-0.2-1.8 0.5-5.8-0.4-0.9 0.1-4.6-1.2-0.2 0.2-2.4 3.9-1.8 5.4-0.2 1.1-0.8 0.7-1.6 3.4 0.3 3.2-0.8 3.1-0.9 0.2-0.9-0.2-2-0.8-2.2-0.7-0.9-0.4-0.5-0.1-1.9 0.1-0.8-0.1-0.9-0.3-1.2-0.9-0.3-0.2-0.3-0.1-1.1-0.3-0.9-0.4-4.6-1.2-0.6 0.1-0.9 0.3-3.8 2.5-1.9 1-1 0.3-0.4 0.2-0.5 0.6-0.3 0.1-0.5 0.1-1.2-0.2-0.3-0.1-0.3-0.4-0.2-0.3-0.4-2.3-0.1-1.1-0.2-0.6-0.3-0.8-3.3-3.3-0.3-0.6-0.2-0.8-0.1-1.6-0.5-1.4-0.7-0.6-1.2-0.7-0.2-0.2-0.1-0.4 0.3-2.4 0.1-2.3-0.2-1.7-0.1-2-0.8-2.2-3.3-3.6 0.5-0.7 1.3-0.7 1.8-0.6 0.9-0.5 0.7-0.6 0.4-0.5 0.2-0.4 0.1-0.3 0.1-0.4 0.2-0.2 0.4 0 4.6 1.3 0.9 0.1 4.2-0.6 3.9 0.3 3.2-0.1 1.3-0.3 1.8-0.9 0.2-0.9 0-0.2-0.1-0.4-0.4-0.8-0.1-0.4 0-0.2 0.2-0.3 0.4-0.2 2.8-0.7 0.9-0.5 4.7-3.6 0.1 0 0.5-0.6 0.9-1.8 1.1-1.4 0.6-1 0.6-0.6 0.6-0.5 0.4-0.2 2.4-0.7 2.6 1.8 0.7 0 0.5-0.1 2.8-2 0.5-0.9 0.2-0.3 0.6-0.4 2.7-0.8 0.4-0.2 0.4-0.4 0.6-0.9 1.1-2.1 0.5-0.5 0.7-0.4 3.2-1.5 0.4-0.1 0.4-0.2 0.5-0.5 0.6-0.9 1.5-1.2 2.3 0.5 0.8 0 0.4-0.2 0.4 0.3 1 1.5z" id="AFPAR" name="Parwan">
  </path>
  <path d="M634.1 353.5l-7.4 0.9-2.1 0.5 0 0.2 0 0.3 0 0.3 0.3 1.1 0 0.4-0.1 0.6-0.5 0.8-2.5 3.4-3.9 4-3.2 2.3-1 0.6-0.4 0.3-0.2 0.3 0 0.5 0.4 2.8-0.8 1-0.3 0.2-0.4 0-1.3-2.5-1.4-1.8-0.4-0.7-0.4-1-0.2-0.6-0.3-0.7-0.4-0.7-1.9-2.5-1.3-1.1-0.8-0.8-0.8-1.1-1.5-2.8-0.7-0.6-5.2 3.6-0.3 0.3-0.4 0.3-0.4 0-1.2-0.5-1 0.1-1 0.4-0.9 0.1-9.3-3.1-0.4-1.2-1.1-3.7-2.1-1.6-0.5-0.2-2-0.6-0.4-0.1-0.2-0.3-0.2-0.5-0.4-1-0.3-0.7-0.2-0.5-0.3-0.6-0.1-0.9 0.1-2.1 0.7-2.6-0.1-1.7 0.8-2.6 0.8-3.1-0.3-3.2 1.6-3.4 0.8-0.7 0.2-1.1 1.8-5.4 2.4-3.9 0.2-0.2 4.6 1.2 0.9-0.1 5.8 0.4 1.8-0.5 1.3 0.2 1.1 0.5 1.1 0.9 0.7 0.6 2.7 1.6 0.5 2.1 2.1 3.3 0.4 1 0.7 0.6 1.2 0.3 1.1 0.9 1.6 3.7 0.8 3.5 1 3.1 1.4 0.3 2.5-0.8 0.8-0.6 0.8-1 0.3-0.7 0.2-0.9 0.3-0.8 0.6-0.4 0.8 0 2.2 0.5 1.4 0.8 0.7 0 3.3-0.9 1.8 0 0.4-0.5 0.3-0.8 0.3-1 2.8-7.5 1.1-1 3-1.4 0.8-0.3 0.5-0.4 0.1-0.3 0.6-1.1 1.3-1.3 2 5.6 0.1 0.9-0.1 1.2-0.4 0.5-0.6 0.7-2.6 2.3-0.7 1.1-0.4 0.9-0.1 0.7 0.1 1.3-0.2 3-0.3 0.7-0.2 0.4-1.2 1.4 0 1.7 1 2.4-0.1 0.9-0.4 1.1-0.6 1-0.6 1.6-0.2 1.1-0.1 1 0.1 0.7 0.2 1.7z" id="AFKAB" name="Kabul">
  </path>
  <path d="M682.2 308.8l0.8 1 0.3 0.9 0.1 0.8 0 0.8 0 0.7 0.4 0.9 0.7 1.5 0.4 1.4 0.2 1.5 0 3-0.3 2.4-1.9 0.6-2.2 1.1-2 1.6-0.7 0.8-0.4 0.9-0.4 3.1-0.7 0.5-3.4 1.3-1.6 1.3 1.1 5-0.1 1.4-0.1 1.1-1.6 3.3-1.7 1.3-0.9 0.7-3.1 1.7-3.6 1-6.7 1.1-3.7 1.8-1.1 0.2-3.7-0.8-3.5 0.7-6.8 0.8-1.9-0.7-0.2-1.7-0.1-0.7 0.1-1 0.2-1.1 0.6-1.6 0.6-1 0.4-1.1 0.1-0.9-1-2.4 0-1.7 1.2-1.4 0.2-0.4 0.3-0.7 0.2-3-0.1-1.3 0.1-0.7 0.4-0.9 0.7-1.1 2.6-2.3 0.6-0.7 0.4-0.5 0.1-1.2-0.1-0.9-2-5.6 1.2-1.8-0.5-2.7-0.5-1.1-1.9-3.1-0.5-1.4-0.2-1-0.4-1.1-0.3-0.6-2.2-1.7-1-3 0.7-1.4 0.1-0.8 0.2-0.4 0.2-0.2 0.4-0.1 0.7-0.3 0.5-0.3 2-1 2-1.3 1-0.9 2.3-3.2 0.5-0.9 0.5-1.2 0.3 1.4 1.7 2.6 0.4 0.8 0.2 0.8 0.2 3 0.6 1.3 0.6 0.5 2.2-0.1 5 0.9 1.7 1.6 0.9 3.3 1.6 2.3 1.4 1.4 1.3 2.9 0.7 0.4 2.9 0.5 3 1.8 0.9 0.2 0.9 0 3.2-0.9 3.4-1.4 0.7-0.5 3-2.5 1.2-1.6z" id="AFLAG" name="Laghman">
  </path>
  <path d="M613.5 372.8l1.2 0.2 4.7-3.3 7.4-3.4 1.3-0.5 0.7-0.1 0.4 0.1 0.3 0.3 0.5 0.6 0.1 0.2 0.1 0.1 0.6 0.3 0.2 0.1 0.1 0.2 0.2 0.3 0.1 0.3 0.2 0.1 0.7 0.3 0.3 0.2 0.2 0.3 0.2 0.3 0.3 0.8 0.6 1.1 0.3 0.6 0.1 0.2 0.2 0.2 0.4 0.5 0.2 0.3 0.1 0.2 0.3 1.1 1 1.2 0.5 0.5 0.7 1.2 0.7 2.6 1.1 1.6-3.8-2.3-0.5-0.1-0.4-0.1-0.3-0.1-0.4 0.1-0.3 0.3-2.2 2.7-3.6 2.2-0.7 0.2-0.7 0-0.2-0.3-0.1-0.5 0.1-0.5 0.1-0.5-0.1-0.4-0.2-0.2-0.5-0.3-0.6-0.2-2.2-0.6-2.8-0.2-0.8 0.1-1 0-0.6 0.1-0.6 0.2-1.4 0.9-0.4 0.4-0.5 1.5-1 2-0.6 0.9-1.1 1.2-0.7 0.6-0.8 0.5-2.4 2.1-0.4 0.4-3.3 3.6-0.5 0.9-0.3 0.5-2 1.3-6.4 3-6.1 4.6-0.8 0.7-0.8 0.8-1 2-0.7 2.1-1.2 2.2-0.9 0.7-0.4 0.3-0.7 0.4-0.9 0.3-0.9 0.1-0.8 0-1.3-0.5-1-0.2-9.4-0.1-0.1-1.7-0.5-0.5 0-0.3 0-0.9-0.1-0.2-0.3-0.3-0.3-0.2-0.3-0.3-0.1-0.4 0.1-0.8 0.3-0.7 0.2-0.5 0.3-0.2 0.2-0.1 0.5-0.2 0.2-0.1 0-0.3-0.2-0.7-0.6-1.3-0.5-1.5-0.1-0.5-0.3-0.5-0.3-0.3-1.9-0.9 2.1-2.4 0.3-0.5 0.5-1.1 0.4-2.7-0.1-0.6-0.2-0.7-0.7-0.8-0.1-0.2 0-0.1 0.2-0.2 0.8-1.7 0.7-0.9 1.6-1.4 0.8-0.4 0.9-0.4 3.1-0.6 0.5-0.2 0.3-0.2 0.1-0.3-0.1-0.2-0.1-0.4-0.9-2.3-0.3-0.3-0.6-0.6-0.8-0.5-1.5-1.3-0.6-0.9-0.3-0.9 0.2-2.7 0.6-2.6 1.4-2.9 1.1-1.5 1.3-1.2 0.9-0.6 1.9-4.5 1.2-1.9 1.7-1.9 9.3 3.1 0.9-0.1 1-0.4 1-0.1 1.2 0.5 0.4 0 0.4-0.3 0.3-0.3 5.2-3.6 0.7 0.6 1.5 2.8 0.8 1.1 0.8 0.8 1.3 1.1 1.9 2.5 0.4 0.7 0.3 0.7 0.2 0.6 0.4 1 0.4 0.7 1.4 1.8 1.3 2.5 0.4 0 0.3-0.2 0.8-1z" id="AFLOG" name="Logar">
  </path>
  <path d="M600.7 295.9l1-0.6 0.5-1 0.9 0.3 0.9 0.6 3.3 0.3 2.6 1 1.3-0.1 1.3-0.3 0.9-0.1 1.2 0.5 3.1-0.1 0.7 0.2 4.4-1.3 2.8 0.3 2 0.5 1.2 0.6 0.8 0.8 2.1 3 1.4 1.6 1 3 2.2 1.7 0.3 0.6 0.4 1.1 0.2 1 0.5 1.4 1.9 3.1 0.5 1.1 0.5 2.7-1.2 1.8-1.3 1.3-0.6 1.1-0.1 0.3-0.5 0.4-0.8 0.3-3 1.4-1.1 1-2.8 7.5-0.3 1-0.3 0.8-0.4 0.5-1.8 0-3.3 0.9-0.7 0-1.4-0.8 0.5-2.4 0.1-0.5 0-0.6-0.6-0.3-0.4-0.4-0.4-0.4-0.4-0.7-0.4-0.5-0.3-0.5-0.4-1-0.2-1-0.1-1.4 0.3-3.8-0.1-1.6 0.3-3.2-0.4-1.8-2-0.7-2.8-1-3.8-0.2-1.8-2-1.2-1.6-0.9-0.6-1-0.6-1.7-0.4-1.7-0.8-1-1.2-0.2-1.5 0.1-1.5 0.5-4.3-0.3-2.9z" id="AFKAP" name="Kapisa">
  </path>
  <path d="M564.6 400.9l-1.5 1.5-2.7 3.3-0.4 0.3-5.3 3.2-0.6 0.2-1 0.1-0.7 0-2.5-0.6-0.8-0.4-0.6-0.4-0.1-0.2-0.1-0.1-0.1-0.5 0-0.7 0.3-1.2 0.5-1.6 0.1-0.5 0-0.5-0.6-1.6-1.4 0-0.6 0.1-0.6 0.1-0.3 0-0.4-0.2-0.4-0.4-5.4-5.7-0.2-0.3-1-1-3-1.9-0.6-1.2-0.4-0.2-3.9-1.6-0.8-0.2-0.6-0.5-0.5-1.3 0-1-0.6-1.9-0.1-0.8-0.1-0.6 0.1-0.5 0-0.6 0-0.6-0.2-0.8-0.1-0.7 0-0.6 0.1-1.1-0.1-0.6-0.6-3.4-0.3-0.7-0.5-0.8-1.9-1.8-1-0.6-1.4-0.4-0.9 0.6-0.2 0.2-0.4 0.2-0.3 0.2-1 0.7-1.8 1-4 1.4-1 0.2-0.8 0-2.9-0.2-0.9-0.2-0.6-0.3-1.6-1.5-2-1.4-2.3-0.9-2-0.4-1.6 0-4.2 0.9-0.6 0.2-0.5 0.3-0.8 0.7-0.4 0.4-0.3 0.4-0.4 1.7-0.1 0.2-0.3 0.3-2 0.6-1 0.1-3-0.4-1.1-1.1-0.3-0.7 0-0.8 0.4-1.5 0.4-0.7 0.5-0.4 5-1.9 0.3-0.3 0.2-0.2 0.2-0.7 0.2-0.5 0.9-1.2 0.7-0.7-0.3-0.4-0.7-0.6-6.2-2.8-0.8-0.2-2-0.3-0.4-0.1-0.2-0.2 0-0.4 0.2-0.3 1.4-0.8 0.5-0.2 0.2-0.1 0.3-0.1 0.2-0.3 0.1-0.3 0.1-0.4 0-0.5 0-0.5-0.2-0.5-0.3-0.5-0.7-0.5-0.5-0.2-0.7 0-2.8 0.1-4.4-0.4-0.4-0.2-0.4-0.2-0.4-0.3-0.4-0.5-0.1-0.6-0.1-1 0.4-1.2 0.4-0.7 0.3-0.6 0.3-0.4 0.3-0.4 0.4-0.2 0.4-0.2 1.7-0.2 0.4 0 0.3-0.2 1.1-0.9 0.2-0.3 0.1-0.4 0.1-1.4-0.2-0.6-0.3-0.5-1.9-1.6-0.7-1-0.6-2.1 0.3-0.8 0.2-0.3 0.7-0.3 0.5-0.2 3.5-0.5 5.5-1.1 0.4-0.2 1.8-1.1 0.4-0.1 0.4-0.1 0.6 0.1 0.7 0.3 1.2 0.5 0.5 0.4 0.3 0.4 0.3 0.3 0.5 0.2 2 0.1 1.2 0.4 1 0.2 1.8 0 2.4-0.3 1.5 0.2 11.6 3.3 3.9 0.5 1.4-3 0.3-1 0.3-0.4 1.2-1.4 0.4-0.7 0.5-0.4 0.4-0.3 0.7-0.2 0.6 0 0.5 0.1 0.7 0.4 0.5-0.2 0.7-0.5 1.3-1.5 0.9-1.5 1.8-1.3 7.2-3.8 0.5 1.4 0.1 1.6 0.2 0.8 0.3 0.6 3.3 3.3 0.3 0.8 0.2 0.6 0.1 1.1 0.4 2.3 0.2 0.3 0.3 0.4 0.3 0.1 1.2 0.2 0.5-0.1 0.3-0.1 0.5-0.6 0.4-0.2 1-0.3 1.9-1 3.8-2.5 0.9-0.3 0.6-0.1 4.6 1.2 0.9 0.4 1.1 0.3 0.3 0.1 0.3 0.2 1.2 0.9 0.9 0.3 0.8 0.1 1.9-0.1 0.5 0.1 0.9 0.4 2.2 0.7 2 0.8 0.9 0.2 0.9-0.2-0.8 2.6 0.1 1.7-0.7 2.6-0.1 2.1 0.1 0.9 0.3 0.6 0.2 0.5 0.3 0.7 0.4 1 0.2 0.5 0.2 0.3 0.4 0.1 2 0.6 0.5 0.2 2.1 1.6 1.1 3.7 0.4 1.2-1.7 1.9-1.2 1.9-1.9 4.5-0.9 0.6-1.3 1.2-1.1 1.5-1.4 2.9-0.6 2.6-0.2 2.7 0.3 0.9 0.6 0.9 1.5 1.3 0.8 0.5 0.6 0.6 0.3 0.3 0.9 2.3 0.1 0.4 0.1 0.2-0.1 0.3-0.3 0.2-0.5 0.2-3.1 0.6-0.9 0.4-0.8 0.4-1.6 1.4-0.7 0.9-0.8 1.7-0.2 0.2 0 0.1 0.1 0.2 0.7 0.8 0.2 0.7 0.1 0.6-0.4 2.7-0.5 1.1-0.3 0.5-2.1 2.4z" id="AFWAR" name="Wardak">
  </path>
  <path d="M483.8 374.4l-2.6 1.9-0.8 1-0.5 1.2-0.3 0.5-1.1 3.1-0.9 1.2-0.6 0.4-0.6 0.4-5.2 0.8-2.1 0.6-0.4 0.3-0.2 0.3-0.2 0.3-0.5 0.9-0.2 0.3-0.5 0.4-0.2 0.1-0.1 0.2-0.2-0.1-1-1.1-0.2-0.2-0.1-0.1-0.4 0-0.6 0-1 0.3-0.7 0.3-3.5 2.2-0.4 0-0.5 0-2.4-1-0.3-0.2-0.1-0.1-0.1-0.3-0.2-0.3-0.2-0.3-0.3-0.3-0.5-0.2-11.2-2.3-1.1 0-1.9 0.4-0.8 0.3-0.6 0.4-0.3 0.3-0.3 0.1-0.7 0.2-1.7 0.8-1.4-0.2-3.6-2-3.6-3.5-0.6-0.8-0.3-0.3-0.2-0.8 0-1 0.2-2.3 0.4-1.3 1.6-3.3 0.1-0.8 0.1-0.5-1-2.5-0.3-2.8 0.1-0.4 0.3-0.4 0.4-0.4 0.8-0.7 0.3-0.2 0.7-0.3 0.3-0.1 0.2-0.2 0.1-0.3 0-0.5-0.2-0.4-0.3-0.5-0.5-0.3-0.8-0.4-2-0.7-2.3-0.1-0.4-0.9-0.6-0.8 0-0.3 0-0.3 1.2-1.6 3.9-2.7 0.6-0.3 3.4-1 0.3 0 0.3 0 2 0.6 0.5-0.2 0.8-0.6 3.9-3.3 0.1-0.9-1.1-1-0.3-0.3-0.3-0.9-0.1-0.4 0.2-0.8 0.2-1 0.1-0.2 0.1-0.2 1.9-1.7 1-1.3 0.4-0.5 0.2-0.6 0-0.5-0.1-0.5-0.2-0.7-0.3-0.6-0.6-0.7-0.8-0.7-2.2-1.4-0.4-0.1-0.3 0-0.9 0.2-0.2 0-0.3 0-0.2 0-1.1-0.6-0.1-0.1-0.2 0.1-0.5 0.2-0.2 0-0.1-0.1 0-0.6 0.2-0.4 0.4-0.6 0.1-0.2-0.3-0.3-0.4-0.3-1-0.6-0.6-0.4-0.6-0.6-0.6-1-0.4-0.8-0.5-2.3-0.4-0.5-1.8-1.8-1.1-1.2-0.2-0.3-0.2-0.2-5.2-3.9-1.7-0.9-2.9-0.6-0.6-0.2-0.4-0.4-0.1-0.1-0.5-0.6-0.2-0.4-0.2-0.4 0-0.6-0.1-0.6 0.2-2 0.1-0.6 0.1-0.4 0.2-0.5 0.3-0.9 0.1-1.9 0.6-3.2 0-0.4-0.2-0.5-0.2-0.3-0.6-0.6-0.2-0.2-0.1-0.3 0-0.3 0.3-2 0.1-0.5 0.4-0.9 0.3-0.6 0.3-0.4 0.5-0.5 0.3-0.3 0.4-0.2 1-0.1 9.1 1.1 1.3-0.1 2.2-0.8 3.2-1.3 0.4-0.1 1.3-0.1 0.4-0.3 0.4-0.7 4.1-7.5 3.1-3.9 0.7-0.6 1.7-0.4 3.5 1.4 1.7 0.4 6.3 0 1.8-0.4 5.7-2.6 4.9-1.2 5.9-2.3 0.7-0.1 0.6 0 0.3 0.2 0.8 0.2 1.3 0 2.5 0.8 6.8-2.8 3.9-0.8 1.6-0.1 8.3 2 0.8 0.1 0.7-0.1 3.4-1.1 0.7-0.1 0.4 0.2 0.3 0.2 0.6 0.8 0.3 0.3 0.5 0.3 0.5 0.1 6.3-0.9 2.5 0.1 5.6-1.2-0.2 2 0.3 1.3 0.9 2.6 0.1 0.7-0.1 0.5-0.5 1.1-0.2 0.9 0 0.6 0.5 1.6 0 0.5-0.3 0.5-0.2 0.4-0.3 0.6-0.2 0.8-0.3 2.2-0.2 0.7-0.5 0.9-0.1 0.7-0.4 0.9-1.7 0.9-0.3 0.3-0.5 0.5-0.3 0.5-0.3 0.6-0.2 0.6-0.3 1.6 0 0.5 0.1 0.4 0.2 0.4 0.1 0.4 0 0.5 0 0.4 0 0.5 0 0.5 0.3 2.6 0.1 0.5 0.3 0.4 0.3 0.2 1.9 0.6 0.2 0.2 0.2 0.2 0.2 0.2 0.3 0.1 0.4 0.1 0.4-0.1 1.5-0.3 0.5 0 0.4 0.1 0.4 0.2 2.2 1.9 0.3 0.1 0.3 0 0.3 0 0.4-0.2 3.3 3.6 0.8 2.2 0.1 2 0.2 1.7-0.1 2.3-0.3 2.4 0.1 0.4 0.2 0.2 1.2 0.7 0.7 0.6-7.2 3.8-1.8 1.3-0.9 1.5-1.3 1.5-0.7 0.5-0.5 0.2-0.7-0.4-0.5-0.1-0.6 0-0.7 0.2-0.4 0.3-0.5 0.4-0.4 0.7-1.2 1.4-0.3 0.4-0.3 1-1.4 3-3.9-0.5-11.6-3.3-1.5-0.2-2.4 0.3-1.8 0-1-0.2-1.2-0.4-2-0.1-0.5-0.2-0.3-0.3-0.3-0.4-0.5-0.4-1.2-0.5-0.7-0.3-0.6-0.1-0.4 0.1-0.4 0.1-1.8 1.1-0.4 0.2-5.5 1.1-3.5 0.5-0.5 0.2-0.7 0.3-0.2 0.3-0.3 0.8 0.6 2.1 0.7 1 1.9 1.6 0.3 0.5 0.2 0.6-0.1 1.4-0.1 0.4-0.2 0.3-1.1 0.9-0.3 0.2-0.4 0-1.7 0.2-0.4 0.2-0.4 0.2-0.3 0.4-0.3 0.4-0.3 0.6-0.4 0.7-0.4 1.2 0.1 1 0.1 0.6 0.4 0.5 0.4 0.3 0.4 0.2 0.4 0.2 4.4 0.4 2.8-0.1 0.7 0 0.5 0.2 0.7 0.5 0.3 0.5 0.2 0.5 0 0.5 0 0.5-0.1 0.4-0.1 0.3-0.2 0.3-0.3 0.1-0.2 0.1-0.5 0.2-1.4 0.8-0.2 0.3 0 0.4 0.2 0.2 0.4 0.1 2 0.3 0.8 0.2 6.2 2.8 0.7 0.6 0.3 0.4-0.7 0.7-0.9 1.2-0.2 0.5-0.2 0.7-0.2 0.2-0.3 0.3-5 1.9-0.5 0.4-0.4 0.7-0.4 1.5 0 0.8 0.3 0.7 1.1 1.1z" id="AFBAM" name="Bamyan">
  </path>
  <path d="M599.4 278l0 2-0.8 3.4-0.1 8.7-0.3 1.4 0.1 2.7 2.4-0.3 0.3 2.9-0.5 4.3-0.1 1.5 0.2 1.5 1 1.2 1.7 0.8 1.7 0.4 1 0.6 0.9 0.6 1.2 1.6 1.8 2 3.8 0.2 2.8 1 2 0.7 0.4 1.8-0.3 3.2 0.1 1.6-0.3 3.8 0.1 1.4 0.2 1 0.4 1 0.3 0.5 0.4 0.5 0.4 0.7 0.4 0.4 0.4 0.4 0.6 0.3 0 0.6-0.1 0.5-0.5 2.4-2.2-0.5-0.8 0-0.6 0.4-0.3 0.8-0.2 0.9-0.3 0.7-0.8 1-0.8 0.6-2.5 0.8-1.4-0.3-1-3.1-0.8-3.5-1.6-3.7-1.1-0.9-1.2-0.3-0.7-0.6-0.4-1-2.1-3.3-0.5-2.1-2.7-1.6-0.7-0.6-1.1-0.9-1.1-0.5-1.3-0.2-1.8 0.5-5.8-0.4-0.9 0.1-4.6-1.2-0.2 0.2-2.4 3.9-1.8 5.4-0.2 1.1-0.8 0.7-1.6 3.4 0.3 3.2-0.8 3.1-0.9 0.2-0.9-0.2-2-0.8-2.2-0.7-0.9-0.4-0.5-0.1-1.9 0.1-0.8-0.1-0.9-0.3-1.2-0.9-0.3-0.2-0.3-0.1-1.1-0.3-0.9-0.4-4.6-1.2-0.6 0.1-0.9 0.3-3.8 2.5-1.9 1-1 0.3-0.4 0.2-0.5 0.6-0.3 0.1-0.5 0.1-1.2-0.2-0.3-0.1-0.3-0.4-0.2-0.3-0.4-2.3-0.1-1.1-0.2-0.6-0.3-0.8-3.3-3.3-0.3-0.6-0.2-0.8-0.1-1.6-0.5-1.4-0.7-0.6-1.2-0.7-0.2-0.2-0.1-0.4 0.3-2.4 0.1-2.3-0.2-1.7-0.1-2-0.8-2.2-3.3-3.6 0.5-0.7 1.3-0.7 1.8-0.6 0.9-0.5 0.7-0.6 0.4-0.5 0.2-0.4 0.1-0.3 0.1-0.4 0.2-0.2 0.4 0 4.6 1.3 0.9 0.1 4.2-0.6 3.9 0.3 3.2-0.1 1.3-0.3 1.8-0.9 0.2-0.9 0-0.2-0.1-0.4-0.4-0.8-0.1-0.4 0-0.2 0.2-0.3 0.4-0.2 2.8-0.7 0.9-0.5 4.7-3.6 0.1 0 0.5-0.6 0.9-1.8 1.1-1.4 0.6-1 0.6-0.6 0.6-0.5 0.4-0.2 2.4-0.7 2.6 1.8 0.7 0 0.5-0.1 2.8-2 0.5-0.9 0.2-0.3 0.6-0.4 2.7-0.8 0.4-0.2 0.4-0.4 0.6-0.9 1.1-2.1 0.5-0.5 0.7-0.4 3.2-1.5 0.4-0.1 0.4-0.2 0.5-0.5 0.6-0.9 1.5-1.2 2.3 0.5 0.8 0 0.4-0.2 0.4 0.3 1 1.5z" id="AFPAR" name="Parwan">
  </path>
  <path d="M426.7 184.8l6.9 1.3 1.8 0.7 0.3 0.2 0.3 0.3 0.2 0.3 0.2 0.4 0 0.3 0 0.3-0.1 0.5-0.2 0.4-0.8 1.5-0.2 0.3-0.6 0.6-0.2 0.3-0.7 1.3-0.5 0.6-1.5 1.4-0.3 0.4-0.7 1-1.1 2-0.1 0.4-0.1 0.4-0.4 1.7-0.1 0.6-1.6 3.2-0.3 1-0.1 0.4-0.7 1-0.4 0.7-2.1 3.2-0.8 1.1-0.1 0.2-0.1 0.5 0 0.2 0.3 0.4 1.9 0.9 2.6 2.2 0.4 0.2 1 0.2 1.5-0.1 0.7 0.2 0.3 0.2 0.2 0.3 0.2 1.1 0 0.4 0 0.4-0.2 0.6-0.1 0.4 0 3 0 0.5 0.2 0.7 0 0.2 0 0.2-0.1 0.2-0.4 0.6-0.1 0.2-0.1 0.3-0.1 0.4 0 0.9 0 1.1 1 1.4 0.2 0.8 1.1 7.7 0.1 1.4-0.1 1-0.4 1.4-1.7 3.5-0.5 1.5-0.1 0.1-0.1 0.2-0.1 0.1-0.3 0.2-0.9 0.3-0.3 0.2-0.5 0.5-0.6 0.7-0.4 0.6-0.6 1.2-1.4 4 0.2 0.4 0.9 0.1 9-1.7 0.1 0 0.1 0.1 0.1 0.1 0.1 0.1 0.1 0.2 0.3 0.8 0.2 0.3 0.3 0.2 0.4 0.1 6.9-0.6 0.6-0.1 0.5-0.4 0.5-0.2 0.9-0.3 1-0.5 3.2-1.9 5.9 2.8 1.5 1.3 0.2 0.9 0 0.3 0 0.2 0 0.2-0.1 0.3-0.2 0.2-0.2 0.2-0.4 0.3-1.1 0.5-0.4 0.3-0.2 0.3-0.1 0.5 0.2 0.3 1.4 0.7 0.2 0.2 0.1 0.2-0.1 0.7 0 0.4 0.1 1 0 0.3-0.1 0.2-0.2 0.1-0.9 0.2-0.2 0.1-0.1 0.1 0 0.2 0 0.3 0.4 2 0 0.6 0 0.6-0.1 0.9-0.2 0.7-0.2 0.6-0.3 0.5-0.4 0.5-2.9 3-1.1 0.9-1.2 0.7-2 1-1 0.6-0.8 0.7-1.7 0.4-0.7 0.6-3.1 3.9-4.1 7.5-0.4 0.7-0.4 0.3-1.3 0.1-0.4 0.1-3.2 1.3-2.2 0.8-1.3 0.1-9.1-1.1-1 0.1-0.4 0.2-0.3 0.3-0.5 0.5-0.3 0.4-0.3 0.6-0.4 0.9-0.1 0.5-0.3 2 0 0.3 0.1 0.3 0.2 0.2 0.6 0.6 0.2 0.3 0.2 0.5 0 0.4-0.6 3.2-0.1 1.9-0.3 0.9-0.2 0.5-0.1 0.4-0.1 0.6-0.2 2 0.1 0.6 0 0.6 0.2 0.4 0.2 0.4 0.5 0.6 0.1 0.1 0.4 0.4 0.6 0.2-1.2 0.6-0.6 0.3-0.3 0.1-0.4 0.1-0.6-0.1-1.1-0.1-0.8-0.3-1.2-0.5-0.5-0.3-0.4-0.2-0.3 0-0.4 0.3-0.2 0.3-0.2 0.3 0 0.3 0 0.3 0.1 0.2 0.3 0.6 0 0.2 0 0.2-0.1 0.1-0.3 0.1-0.2 0.1-0.9 0.2-0.2 0.1-0.1 0.2-0.1 0.7-0.1 0.2-0.1 0.2-0.1 0.2-0.2 0-1.2 0.1-0.2 0.1-0.2 0.2-0.2 0.1 0 0.3 0 0.3 0.1 0.2 0 0.3 0 0.2-0.1 0.2-0.1 0.2-0.3 0.1-0.8 0.2-0.2 0.1-0.2 0.1-1.7 2.1-0.6 0.6-0.2 0.2-0.2 0-0.2-0.1-0.2-0.4 0-0.6 0.1-0.5 0.5-1.1 0-0.2 0-0.5-1.8-6.3-0.5-1.1-0.5-0.7-0.5-0.5-1.1-0.3 0-0.5 0.2-0.4 0.5-0.7 0.1-0.2 0-0.1-0.2-0.2-1.2-1.1-0.2-0.4 0-0.3 0.2-0.2 0.8-0.3 0.1-0.1 0.1-0.2 0.1-0.3 0.1-0.4 0-1.6 0-0.3 0-0.3-0.1-0.4-0.2-0.4-0.2-0.4-0.2-0.3-0.4-0.3-0.5-0.1-0.8-0.1-0.5 0.1-0.3 0.1-0.1 0.2-0.4 0-3.2-0.7-2-0.2-6.5-2.3-0.4-0.2-0.5-0.4-0.7-0.8-0.4-0.5-0.8-1.6-0.1-0.5-0.2-0.4 0-0.4 0-0.3 0.1-0.9 0-0.3-0.1-0.2-0.1-0.2-0.1-0.2-0.2 0-1 0.3-0.3 0-0.3-0.1-0.9-0.5-0.5-0.2-0.6-0.1-0.4-0.1-0.2-0.4-0.2-0.7-0.1-0.2-0.1-0.2-0.2-0.3-0.1-0.2-0.2-0.1-0.2-0.2-1-0.5-0.2-0.1-0.2-0.2-0.1-0.2-0.1-0.2-0.1-0.2 0-0.2 0.1-0.2 0-0.3 0.2-0.4 0-0.2 0-0.1-0.3 0-0.5 0.1-2.1 0.7-0.3 0.1-0.2 0.2-0.7 0.7-0.4 0.2-0.6 0.2-2 0.4-3.7 0-0.6-0.2-0.7-1.2-1.4-1.7-0.2-0.5-0.3-0.6-0.7-2.4-0.2-1.2 0-0.9 0.2-1.4 0-0.7-0.3-1.5 0.2-2.2 0.2-1.9 0.1-0.3 0.2-0.2 0.9-0.6 0.3-0.3 0.3-0.5 0.8-2.4 2-3.8 0.1-0.3 0-0.2 0-0.2-0.1-0.5-0.8-2.6-0.1-0.3 0-0.2 0-0.2 0.2-0.6 0.4-0.7 0-0.3 0-0.1 0-0.6 0-0.4 0.3-0.4 0.3-0.5 2-1.6 0.5-0.1 0.6-0.1 2 0.2 1.9 0.5 0.4 0 0.3 0 0.8-0.4 1.2-1.6 1.4-2.3 0.3-0.4 0.4-0.6 0.2-0.6 0.3-1.1 0-0.5-0.1-0.4-0.3-0.6 0-0.3 0.2-0.2 0.4-0.2 0.4-0.1 0.3 0 1.1 0.1 1.6 0.4 2.2-0.3 1.1-0.4 0.1-0.1 0.1-0.2 0.2-0.5 0.1-0.8 0.2-0.5 0.2-0.4 0.5-0.7 0.1-0.2-0.1-0.1-0.3-0.2-0.2-0.1-0.2 0 0-0.1-0.1-0.1 0-0.7-0.6-2.8 0-0.4-0.1-0.2-0.1-0.1-0.4-0.1-0.2-0.2-0.2-0.2-0.6-1.5-0.3-1.2-0.1-0.1-0.2-0.2-0.6-0.3-0.3-0.4-0.3-0.7 0.1-0.3 0.2-0.3 0.2-0.2 0.1-0.2 0.1-0.2 0-0.2-0.1-0.6 0-0.1 0.1-0.2 0.4-0.6 0.1-0.2 0-0.3-0.2-0.3-0.3-0.3-0.3-0.3-0.4-0.2-0.4-0.1-0.4-0.1-1 0.3-1.6 1.4-0.5 0.4-0.4 0.2-0.6 0.2-8.1 1.2-0.4-0.3-0.2-0.6 0.1-1.5 0.7-1.9 0-0.5-0.1-0.7-0.3-0.8-0.2-0.7-0.8-1.2-1.5-1.4 1.1-12.6 0-0.6-0.4-2.6 0-0.7 0-0.7 0.3-0.7 0.3-0.4 1-0.7 3.4 0 6.9-0.9 1.4-0.5 1.5-1 3.2-3.3 3.8-2.9 1.8-0.8 5.8-1.2 0.6-0.3 0.6-0.8 0.6-0.9 0.2-0.3 0.4-0.3 2.7-1.7 1.5-0.6 1.7-0.2 2.5 0.7 6-0.3 7.4-1.3 4.8-1.3 1.9-0.1 0.8 0 0.8-0.1 0.4-0.1 2.4-1.2z" id="AFSAR" name="Sari Pul">
  </path>
  <path d="M313.3 291.9l4.8-1.7 3-0.4 0.7 0.1 0.4 0.2 1.4 1.4 0.7 0.3 0.5 0.1 0.4-0.1 4.8-1.8 0.5-0.1 0.4 0 0.1 0.2 0 0.2 0 0.3 0 0.3 0.2 0.4 0.1 0.1 0.1 0 0.2-0.1 2.3-0.5 1.7-1 0.5-0.4 0.9-0.5 1.1-0.4 0.6 0 0.5 0.2 0.6 0.4 0.8 0.4 0.4 0.2 0.6 0.6 0.2 0.1 1.2 0.6 0.2 0 0.7-0.2 0.2-0.1 0.5-0.5 0.4-0.3 0.4-0.1 0.3 0.2 0.4 0.3 0.2 0.3 0.6 1.1 0.1 0.3 0 0.3-0.1 0.2-0.3 0.4 0 0.2 0 0.3 0.3 0.4 0.2 0.1 0.2 0 0.1-0.1 0.2 0 0.1-0.1 1.1-0.5 0.3 0 0.3 0 0.2 0.2 0.3 0.2 0.5 0.2 0.9 0 3.1-1.2 0.4-0.3 2-2.1 2-1.5 0.7 1.2 0.6 0.2 3.7 0 2-0.4 0.6-0.2 0.4-0.2 0.7-0.7 0.2-0.2 0.3-0.1 2.1-0.7 0.5-0.1 0.3 0 0 0.1 0 0.2-0.2 0.4 0 0.3-0.1 0.2 0 0.2 0.1 0.2 0.1 0.2 0.1 0.2 0.2 0.2 0.2 0.1 1 0.5 0.2 0.2 0.2 0.1 0.1 0.2 0.2 0.3 0.1 0.2 0.1 0.2 0.2 0.7 0.2 0.4 0.4 0.1 0.6 0.1 0.5 0.2 0.9 0.5 0.3 0.1 0.3 0 1-0.3 0.2 0 0.1 0.2 0.1 0.2 0.1 0.2 0 0.3-0.1 0.9 0 0.3 0 0.4 0.2 0.4 0.1 0.5 0.8 1.6 0.4 0.5 0.7 0.8 0.5 0.4 0.4 0.2 6.5 2.3 2 0.2 3.2 0.7 0.4 0 0.1-0.2 0.3-0.1 0.5-0.1 0.8 0.1 0.5 0.1 0.4 0.3 0.2 0.3 0.2 0.4 0.2 0.4 0.1 0.4 0 0.3 0 0.3 0 1.6-0.1 0.4-0.1 0.3-0.1 0.2-0.1 0.1-0.8 0.3-0.2 0.2 0 0.3 0.2 0.4 1.2 1.1 0.2 0.2 0 0.1-0.1 0.2-0.5 0.7-0.2 0.4 0 0.5 1.1 0.3 0.5 0.5 0.5 0.7 0.5 1.1 1.8 6.3 0 0.5 0 0.2-0.5 1.1-0.1 0.5 0 0.6 0.2 0.4 0.2 0.1 0.2 0 0.2-0.2 0.6-0.6 1.7-2.1 0.2-0.1 0.2-0.1 0.8-0.2 0.3-0.1 0.1-0.2 0.1-0.2 0-0.2 0-0.3-0.1-0.2 0-0.3 0-0.3 0.2-0.1 0.2-0.2 0.2-0.1 1.2-0.1 0.2 0 0.1-0.2 0.1-0.2 0.1-0.2 0.1-0.7 0.1-0.2 0.2-0.1 0.9-0.2 0.2-0.1 0.3-0.1 0.1-0.1 0-0.2 0-0.2-0.3-0.6-0.1-0.2 0-0.3 0-0.3 0.2-0.3 0.2-0.3 0.4-0.3 0.3 0 0.4 0.2 0.5 0.3 1.2 0.5 0.8 0.3 1.1 0.1 0.6 0.1 0.4-0.1 0.3-0.1 0.6-0.3 1.2-0.6 2.9 0.6 1.7 0.9 5.2 3.9 0.2 0.2 0.2 0.3 1.1 1.2 1.8 1.8 0.4 0.5 0.5 2.3 0.4 0.8 0.6 1 0.6 0.6 0.6 0.4 1 0.6 0.4 0.3 0.3 0.3-0.1 0.2-0.4 0.6-0.2 0.4 0 0.6 0.1 0.1 0.2 0 0.5-0.2 0.2-0.1 0.1 0.1 1.1 0.6 0.2 0 0.3 0 0.2 0 0.9-0.2 0.3 0 0.4 0.1 2.2 1.4 0.8 0.7 0.6 0.7 0.3 0.6 0.2 0.7 0.1 0.5 0 0.5-0.2 0.6-0.4 0.5-1 1.3-1.9 1.7-0.1 0.2-0.1 0.2-0.2 1-0.2 0.8 0.1 0.4 0.3 0.9 0.3 0.3 1.1 1-0.1 0.9-3.9 3.3-0.8 0.6-0.5 0.2-2-0.6-0.3 0-0.3 0-3.4 1-0.6 0.3-3.9 2.7-1.4-0.5-7.9 1.2-0.6 0.2-0.3 0.1-0.4-0.1-0.3-0.1-0.9-0.8-0.2-0.2-0.5-0.3-0.7-0.2-3.4-0.6-0.8 0-0.5 0.2-0.4 0.9-0.2 0.4-1.3 1.5-0.5 0.3-0.6 0.4-0.7 0-1.7-0.2-2.3 0.4-0.4 0-1.3-0.2-2.3-0.1-0.5 0.1-0.1 0.1-0.9 1.1-0.5 0.4-0.7 0.5-1.1 0.5-0.8 0.2-0.7 0.1-4-0.8-8.4-0.6-4.7-0.9-2.4-0.1-5.9 0.2-0.6 0.3-0.7 2.5 0 1.1 0 0.7-0.1 0.6-0.9 2.2-0.3 1.1-0.3 1.9-0.1 0.7 0.1 0.4 0.1 0.2 0.2 0.2 0.2 0.2 0.1 0.4 0 0.3-0.8 1.5-0.1 0.6 0 0.6 0 0.8-0.3 1.5-0.4 1.1-0.2 2 0.1 0.3 0.2 0.2 0.2 0.1 0.2 0.3 0.1 0.2 0.2 0.4 0.3 1 0.2 0.2 0.1 0.2 0.2 0.1 0.3 0 0.8 0.1 0.3 0.3 0.1 0.3 0.4 2.2-0.3 1.8-0.5 0.9-0.8 0.4-0.9 1.5-0.4 1.4-0.4 0.7-0.2 0.3-0.2 0.1-1.2 0.1-0.3 0.1-0.2 0.1-0.1 0.1-0.4 0.2-1.5 0.9-0.3 0.3-0.2 0.3 0 0.5-0.1 0.3 0.1 0.2 0 0.2 0.2 0.3 0 0.3 0.2 1 0.1 0.3 0.1 0.2 0.2 0.2 1.7 1 0.2 0.2 0.1 0.3 0.1 0.3 0.1 0.3 0 0.2 0.1 0.2 0.3 0.2 0.1 0.1 0.2 0.1 0.4 0.1 0.4 0.2 0.2 0.1 0.1 0.1 0.3 0.5 0.4 0.4 0.4 0.8 0.4 2.3 0.5 4.2 0.6 1.2 1.3 0.6 1 0.9 0.9 0.9 0.4 0.7 0.2 0.9-0.1 0.3-0.1 0.3-1.6 1.3-1 0.5-0.9 0.4-0.3 0.2-2.1 1.9-1.9 2.3-2 1.7-0.2 0.2-0.2 0.2-0.1 0.2-0.2 0.1-0.2 0.1-0.2 0-0.8 0.1-0.3 0.1-0.1 0.1-0.2 0.1-0.9 1.4-0.1 0.4 0 0.2 0.1 0.2 0.3 0.2 0 0.2 0.1 0.2-0.1 1.1-2.5 1.3-1.2 0.4-1.7 0.4-1.4 0.5-1 0.7-1.7 1.3-2.4-0.2-0.7 0.1-0.7 0.2-2.8 1.7-1 0.9-0.7 0.8-0.4 0.3-5.5 2.6-0.1 0.2-0.2 0.2-1.7 1.2-0.6 0.6-0.5 0.2-0.5 0.1-1.2-0.3-0.5-0.2-0.5-0.3-0.3-0.1-0.5 0.2-0.8 0.7-2.1 2.3-0.4 0.4-0.4 0.2-0.5 0.2-0.4 0.1-0.4 0-0.9-0.1-0.3-0.3-0.2-0.3-0.2-1.8 0-0.3-0.1-0.3-0.1-0.2-0.8 0.1-2.8 1.3-2-1.4-0.5-1 0-0.4-0.1-0.4-0.1-0.3-0.2-0.3-0.4-0.2-0.7-0.1-2.2-0.1-0.4 0.1-0.2 0-0.2 0.1-0.4-0.1-0.5-0.2-0.8-0.6-0.6-0.6-0.2-0.3-0.2-0.7-0.1-0.2-0.1-0.1-0.2-0.2-0.2 0-0.7-0.1-1.1 0.2-0.7 0.8-1.4 3.8-1 1.6-0.6 0.8-0.6 0.6-0.8 0.6-1.2 0.7-1.1 0.5-1.8 0.4-0.3 0.2-0.3 0.2-0.1 0.2-0.1 0.1 0.1 0.2 0.1 0.2 1.3 1.4 0.2 0.3 0.1 0.3 0 0.3-0.1 0.2-0.2 0.1-0.3 0.1-0.3 0.1-1.8 0.1-0.5 0.2-0.2 0-0.3 0.2-0.7 0.6-0.2 0.1-0.3-0.1-2.7-1.5-1.4-1.4-0.4-0.2-0.5 0-0.8 0.4-0.3 0-0.4-0.4-0.5-0.7-1.8-3.7-0.5-0.7-0.9-0.7-0.2-0.2-0.2-0.4-0.3-0.7-0.2-0.4-0.4-0.2-0.7 0-0.5-0.2-0.9-0.4-0.2-0.3-0.2-0.4 0-0.6 0.1-0.9 0-0.3-0.2-0.8-0.1-0.5 0.1-1.2-0.2-0.6-2-4.6-3.6-5.9-1-0.9-2.3-1.3-1.6 0.2-2.8 1.3-1.2 0.9-0.9 0.8-1.3 1.6-1 1.5-0.7 0.7-1.1 0.4-4.2 0.5-2.7 0.6-2 0.8-1.3 0.8-2.4 1.9-2.5 1.1-3.3 0.6-12.8 0.5-4.8 1.5-0.9 0.2-2.1-0.1-2.1-0.9-0.4-1.3-0.2-2.9 0-1.5-0.3-1.2-0.5-1.1-1.2-1.7-0.5-0.9-0.2-0.8 0.3-0.9 0.1-0.5-0.2-0.6-0.2-0.5-0.3-0.3-0.6-0.5-0.1-0.3 0-0.2 0-0.5 0.2-0.4 0.9-0.9 2.5-2 2.6-1.1 1-0.2 0.9-0.4 1-0.7 0.4-0.4 0.2-0.2 0-0.2 1-0.4 7.1-2 6.1-0.6 1.7-0.5 1.5-1.1 0.9-1.8 0-0.3 0-0.4 0-0.7-0.9-2.6-0.1-0.4 0.1-0.4 0.2-0.5 0.3-0.3 0.2-0.2 0.3-0.2 0.3-0.1 1.1-0.1 0.5-0.1 0.6-0.3 0.7-0.4 0.6-0.4 0.4-0.6-0.1-0.6-0.6-1.1-1.8-1.9-0.3-0.5-0.9-3.2-0.5-1-0.8-1.2-1.2-1.4-2-1.7-0.5-0.5-0.3-0.5-0.2-0.7-0.2-1.2-0.4-0.8-2.5-4.3-0.1-0.8 0.3-0.8 3.7-5.6 1.7-3.3 1-4.4 8.7-0.3 0.5-0.1 1.1 0 5.4 0.4 1 0.3 1.8 0.8 1 0.6 0.9 0.6 1.1 1.1 1 0.4 8 0.1 0.9-0.5 0.4-0.8 0.5-0.8 0.1 0 0.2 0 2.8 1.5 0.5 0.1 0.4 0.1 0.4 0 0.3-0.1 0.2 0 0.2-0.1 1.6 0.1 0.5-0.1 0.5-0.3 0.6-0.5 0.9-1 0.9-0.5 0.6-0.3 0.9 0 0.4-0.3 0.4-0.6 0.5-1.2 0.1-0.9-0.1-0.7-0.2-0.5-0.3-0.5-0.6-0.7-0.2-0.3 0-0.4 0.1-0.5 0.3-0.9 0.1-0.5-0.1-0.7-0.1-0.6-0.1-0.6 0.1-0.5 0.1-1 0.1-0.4-0.3-2.2 0-0.7 0-0.6 0.1-0.4 0.3-0.4 0.4-0.3 0.9-0.3 0.6-0.1 0.8 0.1 0.9 0.2 1.3 0.1 0.8 0 0.8-0.3 0.8-0.4 0.4-0.5 0.4-0.3 0.7-0.2 1.4-0.2 1.1-0.5 1.3-0.9 0.5-0.2 0.4 0.1 0.3 0.1 0.6 1.2 0.3 0.5 0.3 0.3 0.3 0.1 1.1 0.1 0.8 0.2 0.3-0.1 0.2-0.1 0.2-0.3 0.1-0.6-0.2-1.1-0.9-2.2-0.3-0.7-0.1-0.5 0-2.1 1.1-6.5 0.2-0.8 0.1-0.3 0.4-0.5 0.5-0.6 0.8-0.5 1.3-0.4 7.8 0.4 1 0.5 0.5 0.2 0.9 0 0.5 0.2 0.6 0 0.8-0.2 4.2-2.1 11.3-3.1 1.9-1 0.4-0.5 0.2-0.1 0.3-0.3 0.2-0.3 0.7-1.4 0.3-1 0.4-1.9 0-0.7-0.1-1.3 0-0.7 0.1-0.9 0.6-2.5 0.1-0.8-0.1-0.9-0.5-0.9-1.1-1.5-0.5-1-0.2-0.8-0.1-0.7-0.5-0.9-0.8-1-3.9-2.8-0.5-0.5-1.6-2.3-0.9-1.1-0.6-0.6-0.6-0.4-0.8-0.3-1.6 0.2-0.4-0.1-0.4-0.2-2.7-1.7-0.9-1-1.3-2.6z" id="AFGHO" name="Ghor">
  </path>
  <path d="M596.7 207.6l0.8 1.1 1.1 0.3 0.8 0.1 0.4 0.2 0.2 0.4 0.4 1 0.3 0.8 0.6 1 0.3 0.3 0.2 0.2 0.2-0.1 0.5-0.5 0.3-0.2 0.3-0.1 0.6 0 0.3 0.2 0.3 0.4 0.1 0.1 0.2 0 0.2-0.1 0.2-0.2 0.4-0.2 0.6-0.1 2.2 0.1 2.6-0.8 4.2-3.3 0.8-0.5 1-0.3 1-0.1 3.8-1.6 2-1.2 1.6-1.3 0.6 0.2 1 2.9 0.3 0.9 0 0.8 0 1.6 0.2 1.2 0.2 0.7 0.2 0.5 0.3 0.3 0.3 0.1 0.2 0.1 0.2 0 1.6-0.1 0.9 0.2 0.7 1.5 0.7 9 3.7 3.5 1.3 1.6 1.1 2.1 0.2 0.4 0 0.2 0 0.4 0 0.2 0.2 0.4 0.6 1.5 0.4 0.5 0.5 0.5 0.2 0.2 0.2 0.3 0 0.2 0 0.2 0 0.5 0.1 0.6 0.4 0.6 0.9 1.2 0.5 0.7 0.3 0.7 0.3 6-0.8 2.1-0.3 0.3-0.4 0.3-2 0.9-0.5 0.6-1.1 2.4-0.6 0.7-0.6 0.5-0.9 0.3-0.9 0.1-1-0.1-1.6 2.5-0.6 1.6-0.2 1.2-0.2 1.6-0.8 4-0.3 1-0.6 0.9-3.2 0.9-7.9 5.2-1.1 0.5-3.4-0.5-2.8 0.3-0.8 0.3-0.4 0.3-0.5 1-1.8 1.7-1.7-0.2-0.9 0.4-0.8 0.6-0.5 0.2-2.1 0-2.8 0.8-1-1.5-0.4-0.3-0.4 0.2-0.8 0-2.3-0.5-1.5 1.2-0.6 0.9-0.5 0.5-0.4 0.2-0.4 0.1-3.2 1.5-0.7 0.4-0.5 0.5-1.1 2.1-0.6 0.9-0.4 0.4-0.4 0.2-2.7 0.8-0.6 0.4-0.2 0.3-0.5 0.9-2.8 2-0.5 0.1-0.7 0-2.6-1.8-2.4 0.7-0.4 0.2-0.6 0.5-0.6 0.6-0.6 1-1.1 1.4-0.9 1.8-0.5 0.6-0.1 0-4.7 3.6-0.9 0.5-2.8 0.7-0.4 0.2-0.2 0.3 0 0.2 0.1 0.4 0.4 0.8 0.1 0.4 0 0.2-0.2 0.9-1.8 0.9-1.3 0.3-3.2 0.1-3.9-0.3-4.2 0.6-0.9-0.1-4.6-1.3-0.4 0-0.2 0.2-0.1 0.4-0.1 0.3-0.2 0.4-0.4 0.5-0.7 0.6-0.9 0.5-1.8 0.6-1.3 0.7-0.5 0.7-0.4 0.2-0.3 0-0.3 0-0.3-0.1-2.2-1.9-0.4-0.2-0.4-0.1-0.5 0-1.5 0.3-0.4 0.1-0.4-0.1-0.3-0.1-0.2-0.2-0.2-0.2-0.2-0.2-1.9-0.6-0.3-0.2-0.3-0.4-0.1-0.5-0.3-2.6 0-0.5 0-0.5 0-0.4 0-0.5-0.1-0.4-0.2-0.4-0.1-0.4 0-0.5 0.3-1.6 0.2-0.6 0.3-0.6 0.3-0.5 0.5-0.5 0.3-0.3 1.7-0.9 0.4-0.9 0.1-0.7 0.5-0.9 0.2-0.7 0.3-2.2 0.2-0.8 0.3-0.6 0.2-0.4 0.3-0.5 0-0.5-0.5-1.6 0-0.6 0.2-0.9 0.5-1.1 0.1-0.5-0.1-0.7-0.9-2.6-0.3-1.3 0.2-2 3.4-3.6 0.2-0.5 0.1-0.7 0.1-0.7 0.3-0.7 1.4-1.8 0.8-1.5 0.3-2.3-0.7-1-0.3-0.3-1.6-1-0.1-0.7 0-0.3 0-0.6 0.4-1 0.4-1.1 9.1-12.2 0.3-0.5 0.2-2.5 0.3-0.9 0.3-3 0-0.5-0.1-1 0-0.5 0.2-0.5 0.4-1.1 0.3-0.5 0.4-0.5 1.9-0.9 5.9-5.2 1.2-1.5 2.8-4.7-0.1-0.7-0.5-0.8-0.3-0.5-1.6-1.5-4.2-3.2-2.7-1.4-0.7-0.6-2.9-4-4.4-7.2-3-4.6-0.3-0.6-0.5-1.2-0.3-0.5-0.9-1.2-0.2-0.4 0-0.5 0.2-0.7 0.5-1.1 0.2-0.4 0.4-0.4 0.5-0.3 1.5-0.4 0.9-0.6 3.1 0.7 1.6 0.9 0.5 0.2 3.4-0.2 10.3 0.7 5.3 1.5 0.8 0.1 0.6-0.1 1-0.4 3.9-0.5 0.8 1.7 4 5.1 2.8 2.2 0.6 0.4 0.6 0.1 0.4-0.1 0.5-0.2 1.8-1.1 0.3-0.1 0.3-0.1 1.6 0.3 3 0.6 0.8 0.3 0 0.2 0.1 0.2 0.1 0 0.7 0.6 0.5 0.5 0.7 1 1.8 1.6 1.3 0.8 2.5 0.9 1.1 0.2 2.4 0.6 0.8 0.4 0.5 0.3 0.3 0.5 0.3 0.4 0.8 1.3z" id="AFBGL" name="Baghlan">
  </path>
  <path d="M531.6 184.3l1.2 1.2 2 0.6-0.9 0.6-1.5 0.4-0.5 0.3-0.4 0.4-0.2 0.4-0.5 1.1-0.2 0.7 0 0.5 0.2 0.4 0.9 1.2 0.3 0.5 0.5 1.2 0.3 0.6 3 4.6 4.4 7.2 2.9 4 0.7 0.6 2.7 1.4 4.2 3.2 1.6 1.5 0.3 0.5 0.5 0.8 0.1 0.7-2.8 4.7-1.2 1.5-5.9 5.2-1.9 0.9-0.4 0.5-0.3 0.5-0.4 1.1-0.2 0.5 0 0.5 0.1 1 0 0.5-0.3 3-0.3 0.9-0.2 2.5-0.3 0.5-9.1 12.2-0.4 1.1-0.4 1 0 0.6 0 0.3 0.1 0.7 1.6 1 0.3 0.3 0.7 1-0.3 2.3-0.8 1.5-1.4 1.8-0.3 0.7-0.1 0.7-0.1 0.7-0.2 0.5-3.4 3.6-5.6 1.2-2.5-0.1-6.3 0.9-0.5-0.1-0.5-0.3-0.3-0.3-0.6-0.8-0.3-0.2-0.4-0.2-0.7 0.1-3.4 1.1-0.7 0.1-0.8-0.1-8.3-2-1.6 0.1-3.9 0.8-6.8 2.8-2.5-0.8-1.3 0-0.8-0.2-0.3-0.2-0.6 0-0.7 0.1-5.9 2.3-4.9 1.2-5.7 2.6-1.8 0.4-6.3 0-1.7-0.4-3.5-1.4 0.8-0.7 1-0.6 2-1 1.2-0.7 1.1-0.9 2.9-3 0.4-0.5 0.3-0.5 0.2-0.6 0.2-0.7 0.1-0.9 0-0.6 0-0.6-0.4-2 0-0.3 0-0.2 0.1-0.1 0.2-0.1 0.9-0.2 0.2-0.1 0.1-0.2 0-0.3-0.1-1 0-0.4 0.1-0.7-0.1-0.2-0.2-0.2-1.4-0.7-0.2-0.3 0.1-0.5 0.2-0.3 0.4-0.3 1.1-0.5 0.4-0.3 0.2-0.2 0.2-0.2 0.1-0.3 0-0.2 0-0.2 0-0.3-0.2-0.9-1.5-1.3-5.9-2.8-0.1-0.8 0.1-0.6 0.1-0.7 0.3-0.7 1-1.9 0.5-0.6 0.6-0.6 2.3-1.1 1.4-1 2.4-2.9 0.8-1 0.8-0.6 0.3-0.4 0.3-0.5 0.2-0.8 0.3-0.6 0.5-0.4 1-0.5 0.4-0.4 0.3-0.6 0.3-0.9 0.2-1.5 0-0.7-0.2-0.6-1.7-2.3-0.4-0.7-0.2-0.5-0.1-0.1 0-0.9-0.1-0.3-0.1-0.2-0.1-0.1-0.4-0.3-0.3-0.3-0.1-0.2-0.1-0.3 0-0.2 0-0.1 1.3-1.2 6-4.6 1.1-0.4 3.4-0.5 0.9-0.3 0.5-0.4 0.6-0.6 1.1-1.2 1.3-1.3 0.4-0.5 0.3-0.5 0.2-1.1-0.1-0.5-0.1-0.5-0.1-0.4-0.1-0.2 0.1-0.4 0.3-0.5 0.5-0.6 1-0.8 0.5-0.6 0.3-0.5 0.4-2.9 0.1-3.5 0.9-3.8 1.5-4.1 0-0.9-0.1-0.6-1.7-3.5-1.1-1.5-0.1-0.2-0.1-0.2 0.1-0.2 0.1-0.2 0.2-0.3 0.5-0.5 0.6-0.5 1.3-0.7 2.9-0.8 0.7-0.7 0.8-2.1 0.9-0.4 7.2 0.7 0.9-0.2 1.8-0.8 1-0.2 1-0.1 0.9 0.3 3.6 1.8 2 1.2 0.3 0.3 0.9 0.5 1.4 0.5 3.1 0.4 12.5 1.8 1.8-0.4 5.1-2.1z" id="AFSAM" name="Samangan">
  </path>
  <path d="M352.3 453.7l0-1.1 0-0.5 0-0.5 0-0.5 0.1-0.7 0-0.7 0.1-0.3 0.2-0.9 0.1-0.5 0-0.8 0-0.4 0.2-0.4 0.1-0.5 0.1-0.6 0-1.3-0.3-0.5-0.3-0.5-0.8-0.7-0.7-0.7-0.6-0.8-1.5-2.6-0.2-0.7 0.1-0.4 0.1-0.3 0.2-0.4 0-0.4-0.1-0.3-0.3-0.1-2.2-0.3-1.1-0.6-1.3-1.5 1.7-1.3 1-0.7 1.4-0.5 1.7-0.4 1.2-0.4 2.5-1.3 0.1-1.1-0.1-0.2 0-0.2-0.3-0.2-0.1-0.2 0-0.2 0.1-0.4 0.9-1.4 0.2-0.1 0.1-0.1 0.3-0.1 0.8-0.1 0.2 0 0.2-0.1 0.2-0.1 0.1-0.2 0.2-0.2 0.2-0.2 2-1.7 1.9-2.3 2.1-1.9 0.3-0.2 0.9-0.4 1-0.5 1.6-1.3 0.1-0.3 0.1-0.3-0.2-0.9-0.4-0.7-0.9-0.9-1-0.9-1.3-0.6-0.6-1.2-0.5-4.2-0.4-2.3-0.4-0.8-0.4-0.4-0.3-0.5-0.1-0.1-0.2-0.1-0.4-0.2-0.4-0.1-0.2-0.1-0.1-0.1-0.3-0.2-0.1-0.2 0-0.2-0.1-0.3-0.1-0.3-0.1-0.3-0.2-0.2-1.7-1-0.2-0.2-0.1-0.2-0.1-0.3-0.2-1 0-0.3-0.2-0.3 0-0.2-0.1-0.2 0.1-0.3 0-0.5 0.2-0.3 0.3-0.3 1.5-0.9 0.4-0.2 0.1-0.1 0.2-0.1 0.3-0.1 1.2-0.1 0.2-0.1 0.2-0.3 0.4-0.7 0.4-1.4 0.9-1.5 0.8-0.4 0.5-0.9 0.3-1.8-0.4-2.2-0.1-0.3-0.3-0.3-0.8-0.1-0.3 0-0.2-0.1-0.1-0.2-0.2-0.2-0.3-1-0.2-0.4-0.1-0.2-0.2-0.3-0.2-0.1-0.2-0.2-0.1-0.3 0.2-2 0.4-1.1 0.3-1.5 0-0.8 0-0.6 0.1-0.6 0.8-1.5 0-0.3-0.1-0.4-0.2-0.2-0.2-0.2-0.1-0.2-0.1-0.4 0.1-0.7 0.3-1.9 0.3-1.1 0.9-2.2 0.1-0.6 0-0.7 0-1.1 0.7-2.5 0.6-0.3 5.9-0.2 2.4 0.1 4.7 0.9 8.4 0.6 4 0.8 0.7-0.1 0.8-0.2 1.1-0.5 0.7-0.5 0.5-0.4 0.9-1.1 0.1-0.1 0.5-0.1 2.3 0.1 1.3 0.2 0.4 0 2.3-0.4 1.7 0.2 0.7 0 0.6-0.4 0.5-0.3 1.3-1.5 0.2-0.4 0.4-0.9 0.5-0.2 0.8 0 3.4 0.6 0.7 0.2 0.5 0.3 0.2 0.2 0.9 0.8 0.3 0.1 0.4 0.1 0.3-0.1 0.6-0.2 7.9-1.2 1.4 0.5-1.2 1.6 0 0.3 0 0.3 0.6 0.8 0.4 0.9 2.3 0.1 2 0.7 0.8 0.4 0.5 0.3 0.3 0.5 0.2 0.4 0 0.5-0.1 0.3-0.2 0.2-0.3 0.1-0.7 0.3-0.3 0.2-0.8 0.7-0.4 0.4-0.3 0.4-0.1 0.4 0.3 2.8 1 2.5-0.1 0.5-0.1 0.8-1.6 3.3-0.4 1.3-0.2 2.3 0 1 0.2 0.8 0.3 0.3 0.6 0.8 3.6 3.5 3.6 2 1.4 0.2 1.7-0.8 0.7-0.2 0.3-0.1 0.3-0.3 0.6-0.4 0.8-0.3 1.9-0.4 1.1 0 11.2 2.3 0.5 0.2 0.3 0.3 0.2 0.3 0.2 0.3 0.1 0.3 0.1 0.1 0.3 0.2 2.4 1 0.5 0 0.4 0 3.5-2.2 0.7-0.3 1-0.3 0.6 0 0.4 0 0.1 0.1 0.2 0.2 1 1.1 0.2 0.1 0.1-0.2 0.2-0.1 0.5-0.4 0.2-0.3 0.5-0.9 0.2-0.3 0.2-0.3 0.4-0.3 2.1-0.6 5.2-0.8 0.6-0.4 0.6-0.4 0.9-1.2 1.1 1 0.2 0.5 0 0.4-0.4 0.8-0.7 2-0.1 0.4-0.2 0.2-0.7 0.6-0.4 0.6 0 0.3 0.1 0.3 0.7 0.5 0.9 0.5 0.1 0 0.4 0.5 0.4 1.2 0.9 2.7-0.1 0.6-0.2 0.4-1.3 0.7-0.5 0.3-0.4 0.5-2.2 3.1-1.3 1.2-4 3.5-0.6 0.7-0.7 1.1-0.5 0.9-0.9 1.3-1.4 1-1.3 0.7-6 1.8-0.3 0-1.6-0.1-3.5 0.8-5.6 2.3-0.7 0.4-0.3 0.3-0.6 0.7-0.9 2.2-0.1 0.5 0 1.4 1.9 5.5 0.1 2-0.3 0.7-0.1 0.6-0.2 0.9-0.1 3.1-0.1 0.4-0.1 0.4-0.2 0.3-0.4 1.1-0.5 3.5-2.1 0.7-0.8 0.1-1 0-0.5-0.3-0.2-0.3-0.4-1.2-0.2-1.5-0.2-0.3-0.2 0-0.4 0.2-1.3 1.5-0.7 0.7-0.7 0.4-1 0.3-1.4 0-1.6 0.6-4.5 2.5-1.8-0.5-0.8-0.9-0.6-1-0.3-0.6-0.1-0.4 0-0.4-0.1-0.4-0.2-0.4-0.8-1.3-0.2-0.2-0.3-0.1-0.4-0.1-0.5 0-0.9 0.3-3 1.2-1 0.2-0.7 0.1-0.6-0.2-1.4-0.8-0.2-0.1-0.6 0.1-0.8 0.2-1.2 0.7-7.7 5.7-1.8 0.9-1.3 0.4-1.7 1-0.5 0.4-0.4 0.6-0.4 1.1-0.8 3.5-0.1 0.7 0 0.6 0.1 0.6 0 0.5-0.1 0.5-0.2 0.6-0.3 0.4-0.3 0.3-1 0.1-1.9-0.5-7.9-1.8-1.6-0.9-2.4-2.5-0.6-0.5-0.4 0-0.6 0.1-0.6 0.6-0.7 1.3-0.3 0.3-0.4 0.2-0.4 0-2.2-0.5-0.5 0-0.7 0-0.7 0.2-1.3 0.5-0.4 0.1-0.5-0.1-3.7-2.5-0.6-0.2-0.6-0.2-0.7-0.2-5.1-0.2-0.6 0.1-0.1 0.4 0.1 0.3 0.6 1.6 0.6 2.2 0.1 0.7-0.2 0.2-0.3 0-0.9-0.6-0.7-0.3-0.7-0.2-0.8 0.2-0.4 0.4-0.2 0.4-0.1 0.5-0.2 0.3-0.3 0.1-0.6-0.3-1.8-1.2-2-0.4z" id="AFURU" name="Uruzgan">
  </path>
 </g>
 <g id="points">
  <circle class="29.840958800308638|61.20689628951381" cx="90.9" cy="694.3" id="0">
  </circle>
  <circle class="33.47578603940942|68.40808110982648" cx="545.5" cy="424.7" id="1">
  </circle>
  <circle class="38.019320088285404|74.16902896607662" cx="909.1" cy="71.2" id="2">
  </circle>
 </g>
 <g id="label_points">
  <circle class="Badakhshan" cx="695.9" cy="163.4" id="AFBDS">
  </circle>
  <circle class="Takhar" cx="623.9" cy="174.7" id="AFTAK">
  </circle>
  <circle class="Kunduz" cx="567.3" cy="161.4" id="AFKDZ">
  </circle>
  <circle class="Balkh" cx="458.3" cy="169.1" id="AFBAL">
  </circle>
  <circle class="Jawzjan" cx="387.4" cy="154.7" id="AFJOW">
  </circle>
  <circle class="Faryab" cx="307.6" cy="245.8" id="AFFYB">
  </circle>
  <circle class="Badghis" cx="245.9" cy="301" id="AFBDG">
  </circle>
  <circle class="Hirat" cx="136.6" cy="359.1" id="AFHER">
  </circle>
  <circle class="Nimroz" cx="168.3" cy="624.5" id="AFNIM">
  </circle>
  <circle class="Farah" cx="106" cy="510.1" id="AFFRA">
  </circle>
  <circle class="Kunar" cx="707.9" cy="318.4" id="AFKNR">
  </circle>
  <circle class="Nuristan" cx="672.2" cy="291.2" id="AFNUR">
  </circle>
  <circle class="Nangarhar" cx="675.4" cy="366.7" id="AFNAN">
  </circle>
  <circle class="Khost" cx="635.9" cy="434.6" id="AFKHO">
  </circle>
  <circle class="Paktya" cx="600.8" cy="420.5" id="AFPKA">
  </circle>
  <circle class="Paktika" cx="561.8" cy="507.1" id="AFPIA">
  </circle>
  <circle class="Zabul" cx="459.6" cy="514.4" id="AFZAB">
  </circle>
  <circle class="Kandahar" cx="364.8" cy="602.4" id="AFKAN">
  </circle>
  <circle class="Hilmand" cx="268.6" cy="600.7" id="AFHEL">
  </circle>
  <circle class="Uruzgan" cx="392.4" cy="478.1" id="AFURU">
  </circle>
  <circle class="Ghazni" cx="511.8" cy="429" id="AFGHA">
  </circle>
  <circle class="Parwan" cx="629.2" cy="282" id="AFPAR">
  </circle>
  <circle class="Kabul" cx="591.7" cy="339.5" id="AFKAB">
  </circle>
  <circle class="Laghman" cx="656.9" cy="329.9" id="AFLAG">
  </circle>
  <circle class="Logar" cx="593" cy="381.8" id="AFLOG">
  </circle>
  <circle class="Kapisa" cx="623.9" cy="306.7" id="AFKAP">
  </circle>
  <circle class="Wardak" cx="548.3" cy="365.4" id="AFWAR">
  </circle>
  <circle class="Bamyan" cx="477.6" cy="305.3" id="AFBAM">
  </circle>
  <circle class="Parwan" cx="571.9" cy="307.7" id="AFPAR">
  </circle>
  <circle class="Sari Pul" cx="403.6" cy="249.9" id="AFSAR">
  </circle>
  <circle class="Ghor" cx="315.6" cy="386.6" id="AFGHO">
  </circle>
  <circle class="Baghlan" cx="578.1" cy="243.1" id="AFBGL">
  </circle>
  <circle class="Samangan" cx="505.2" cy="232" id="AFSAM">
  </circle>
  <circle class="Uruzgan" cx="399.3" cy="402.2" id="AFURU">
  </circle>
 </g>
</svg>