<?xml version="1.0"?>
    
<!--********* Copyright (c) 2024 Pareto Softare, LLC DBA Simplemaps.com ***************************************
************* Free for Commercial Use, full terms at  https://simplemaps.com/resources/svg-license ************
************* Attribution is appreciated! https://simplemaps.com *******************************************-->

<svg baseprofile="tiny" fill="#6f9c76" height="1000" stroke="#ffffff" stroke-linecap="round" stroke-linejoin="round" stroke-width=".5" version="1.2" viewbox="0 0 1000 1000" width="1000" xmlns="http://www.w3.org/2000/svg">
 <g id="features">
  <path d="M807.2 833.1l-8.5 4.1-0.4 10.4 5.2 28-8.2 13.6-17.9-8.6-17.7-16.1-7.7-8.7-7.3 1.9-22.4 10.9-7.5-18.4 3.4-12.8-7.8-15.1 8.9-9.3 24.5-7 11.1 2.3 27.8 0 16.7-4.7 7.8 29.5z" id="AG06" name="Saint Paul">
  </path>
  <path d="M807.2 833.1l-7.8-29.5 5.6-22.1 14.6-10.7 14.4-0.4 14.8-8.1 8.1 0 5.6 5.6 3.7 5.7 5 12.8-7.4-0.6-15 1.1-7.5-0.5 10.2 12.7 9.3 6.1 5.4 6.1-2.5 13.3-12.3 19.8-12.3 0.8-14.1-7.2-17.8-4.9z" id="AG08" name="Saint Philip">
  </path>
  <path d="M799.4 803.6l-16.7 4.7-27.8 0 0-12.8 7.8-16.3 12.2-4.7-1.1-11.6-5.6-9.3 6.1-6.9 1.1-10.1 2.9-6.7 10.3-14.4 6.2 9.8 8.5 5.7 10.6 1.8 12.5-1.7-5.3 6.1-3 4.2-4.7 3.1-9.9 2.2 5 16.4 11.1 7.7-14.6 10.7-5.6 22.1z" id="AG07" name="Saint Peter">
  </path>
  <path d="M774.3 746.7l-6.1 6.9 5.6 9.3 1.1 11.6-12.2 4.7-7.8 16.3-7.8-3.5-15.6-10.5 2.2-12.8-3.3-24.4-8.9-8.2-1.1-23.3 15.6-1.1-2-22.9 13.8 20.3 8.4 23.5 18.1 14.1z" id="AG03" name="Saint George">
  </path>
  <path d="M754.9 808.3l-11.1-2.3-24.5 7-8.9 9.3-5.6-12.8-16.7 18.6 4.5-29.1 5.5-12.8-1.1-3.5-18.9-4.7-10-9.3-13.5 9.2-7.8-3.1-22.7-12.5 12-11.4 19.4-8.3 25.1-7.6-8.9-15.1 1.9-13.5 9.9-11.8 15.7-10.2 34.8 4.4 2 22.9-15.6 1.1 1.1 23.3 8.9 8.2 3.3 24.4-2.2 12.8 15.6 10.5 7.8 3.5 0 12.8z" id="AG04" name="Saint John">
  </path>
  <path d="M710.4 822.3l7.8 15.1-3.4 12.8 7.5 18.4-15 2.7-22.7 0.2-14.2-3.2-34.9-21.3-7.3-10.4 7.4-15.5 4.8-13.1-3.9-11.1 0.4-9.8 17.7-9.2 13.5-9.2 10 9.3 18.9 4.7 1.1 3.5-5.5 12.8-4.5 29.1 16.7-18.6 5.6 12.8z" id="AG05" name="Saint Mary">
  </path>
  <path d="M684.3 199.2l-14 7.8-6-16.5-2.3-46.7-4.9-21-6.4-17.6-4.5-17.9 0.9-22.3 4 3.7 1.7 3.8 1.8 8.8 6.6 13.9 17.3 20.9 5.8 12.1-0.3 16-4.3 13.6 0 10.7 12.8 7.3 5.4-21.4 1.6-29.1-6.8-25.8-19.6-11-7.9-12.6 5.2-22 15.1-8.4 21.8 28-7.3 4.4-7.5 3.4 14.4 5.2 22.8-8 14.2 2.8 17.6 13.4 15.1 18.2 12 19.9 8.1 18.9 7.8 34.2 1 18.9-2 17.9-7.4 21.5-7.5 3.9-11.2-1-18.6 6.8-6.9-20.5-19.4-14.5-48.2-19.7z" id="AG10" name="Barbuda">
  </path>
  <path d="M131.7 946.4l1.1-1.5 1.7-0.5 0.2 2.9-0.2 3.7-1.5 2.9-2.9 0.6-1.3-1.9 1.1-4.2 1.8-2z" id="AG11" name="Redonda">
  </path>
 </g>
 <g id="points">
  <circle class="16.971755531285055|-62.31422692109097" cx="165.9" cy="909.2" id="0">
  </circle>
  <circle class="17.290042803378313|-61.973892715191546" cx="537.1" cy="545.9" id="1">
  </circle>
  <circle class="17.687901893494885|-61.70162535047201" cx="834.1" cy="91" id="2">
  </circle>
 </g>
 <g id="label_points">
  <circle class="Saint Paul" cx="771.6" cy="836" id="AG06">
  </circle>
  <circle class="Saint Philip" cx="826.9" cy="809.1" id="AG08">
  </circle>
  <circle class="Saint Peter" cx="791.1" cy="766.2" id="AG07">
  </circle>
  <circle class="Saint George" cx="749.3" cy="750.4" id="AG03">
  </circle>
  <circle class="Saint John" cx="699.9" cy="752.9" id="AG04">
  </circle>
  <circle class="Saint Mary" cx="663.6" cy="820.8" id="AG05">
  </circle>
  <circle class="Barbuda" cx="746.4" cy="167.7" id="AG10">
  </circle>
  <circle class="Redonda" cx="132.1" cy="950" id="AG11">
  </circle>
 </g>
</svg>