<?xml version="1.0"?>
    
<!--********* Copyright (c) 2024 Pareto Softare, LLC DBA Simplemaps.com ***************************************
************* Free for Commercial Use, full terms at  https://simplemaps.com/resources/svg-license ************
************* Attribution is appreciated! https://simplemaps.com *******************************************-->

<svg baseprofile="tiny" fill="#6f9c76" height="557" stroke="#ffffff" stroke-linecap="round" stroke-linejoin="round" stroke-width=".5" version="1.2" viewbox="0 0 1000 557" width="1000" xmlns="http://www.w3.org/2000/svg">
 <g id="features">
  <path d="M624.9 125.3l22.9-4.2-0.6 22.5 28.4 0 20.5-29.9 39.5-6.1 42.6 2.3-0.9 26-75.1 128.1-7.2 9.3 1.5-36.8-28.4 0 21-33.1 4.4-15.7-29.9-18.9-38.8 0 0.1-43.5z m207.6-69l28.2-10.7 11.3-20.3 52 10.7 30.5 19.1-23.7 9.5-48.6 14.3-9.1 13.1-35 23.8-12.4-13.1 14.7-19-7.9-27.4z" id="AIX02" name="East End">
  </path>
  <path d="M624.9 125.3l-0.1 43.5 38.8 0 29.9 18.9-59.8 23.6-44.8-3.2-23.3 62.7-50.6 1.1-5 10.3-15.1-12.5 34.2-67.8 49.3-1.6 13.5-37.8-2.4-30.8 35.4-6.4z" id="AIX10" name="Stoney Ground">
  </path>
  <path d="M589.5 131.7l2.4 30.8-13.5 37.8-49.3 1.6-34.2 67.8-49-40.9 22.8-33.8 63.4-52.9 57.4-10.4z" id="AIX06" name="North Side">
  </path>
  <path d="M494.9 269.7l15.1 12.5-10.8 22-96.7-18.3 18.6-20.3 24.8-36.8 49 40.9z" id="AIX13" name="The Valley">
  </path>
  <path d="M402.5 285.9l96.7 18.3-53.8 29.9-29.9-1.6-24.6 13 1.1-16.8-8.9-21.6 19.4-21.2z" id="AIX05" name="North Hill">
  </path>
  <path d="M383.1 307.1l8.9 21.6-1.1 16.8-11.3 5.9-69.1 9.1 42.8-20.8 29.8-32.6z" id="AIX07" name="Sandy Ground">
  </path>
  <path d="M390.9 345.5l24.6-13 29.9 1.6-42.5 27.7-32.3 21.1-23.9 20.4-53.8 1.6-3 17.3-41.9 0 0.2 27.7-32.9 24.7-0.7-96.8 95.9-17.3 69.1-9.1 11.3-5.9z" id="AIX09" name="South Hill">
  </path>
  <path d="M214.6 377.8l0.7 96.8-53.4 40.2-51.4 17.1-65-1 96.7-113.8 29-23.5 43.4-15.8z" id="AIX14" name="West End">
  </path>
  <path d="M248.2 449.9l-0.2-27.7 41.9 0 3-17.3 53.8-1.6 23.9-20.4 32.3-21.1 1.9 37.1 25-12.1 15.5-26.4-0.2 53.9-143.2 89.6-10.7-16.7-25.3-18.3-17.7-19z" id="AIX01" name="Blowing Point">
  </path>
  <path d="M445.4 334.1l53.8-29.9 47.8-4.8 10.5 12.6 3.8 38.4-27.2 8.2-89 55.7 0.2-53.9 0.1-26.3z" id="AIX11" name="The Farrington">
  </path>
  <path d="M693.5 187.7l-4.4 15.7-21 33.1 28.4 0-1.5 36.8-21.6 28.3-41.2 27.4-70.9 21.4-3.8-38.4-10.5-12.6 18.6-28.6 23.3-62.7 44.8 3.2 59.8-23.6z" id="AIX08" name="Sandy Hill">
  </path>
  <path d="M696.1 113.7l-20.5 29.9-28.4 0 0.6-22.5 48.3-7.4z" id="AIX04" name="Island Harbour">
  </path>
  <path d="M402.9 361.8l42.5-27.7-0.1 26.3-15.5 26.4-25 12.1-1.9-37.1z" id="AIX03" name="George Hill">
  </path>
  <path d="M510 282.2l5-10.3 50.6-1.1-18.6 28.6-47.8 4.8 10.8-22z" id="AIX12" name="The Quarter">
  </path>
 </g>
 <g id="points">
  <circle class="18.175501868320143|-63.15572838584269" cx="90.9" cy="506.6" id="0">
  </circle>
  <circle class="18.226764651174992|-63.034651589749686" cx="545.5" cy="304" id="1">
  </circle>
  <circle class="18.290843129743553|-62.93779015287528" cx="909.1" cy="50.7" id="2">
  </circle>
 </g>
 <g id="label_points">
  <circle class="East End" cx="714.8" cy="154.7" id="AIX02">
  </circle>
  <circle class="Stoney Ground" cx="544.5" cy="236.3" id="AIX10">
  </circle>
  <circle class="North Side" cx="553" cy="169.7" id="AIX06">
  </circle>
  <circle class="The Valley" cx="454.9" cy="268.6" id="AIX13">
  </circle>
  <circle class="North Hill" cx="429.8" cy="312.1" id="AIX05">
  </circle>
  <circle class="Sandy Ground" cx="375.9" cy="337.3" id="AIX07">
  </circle>
  <circle class="South Hill" cx="268.3" cy="395.2" id="AIX09">
  </circle>
  <circle class="West End" cx="151.2" cy="468.2" id="AIX14">
  </circle>
  <circle class="Blowing Point" cx="326.4" cy="441.5" id="AIX01">
  </circle>
  <circle class="The Farrington" cx="496.2" cy="344.1" id="AIX11">
  </circle>
  <circle class="Sandy Hill" cx="621.8" cy="271.3" id="AIX08">
  </circle>
  <circle class="Island Harbour" cx="668.2" cy="130.8" id="AIX04">
  </circle>
  <circle class="George Hill" cx="423.5" cy="367.1" id="AIX03">
  </circle>
  <circle class="The Quarter" cx="531.3" cy="286.3" id="AIX12">
  </circle>
 </g>
</svg>