<?xml version="1.0"?>
    
<!--********* Copyright (c) 2024 Pareto Softare, LLC DBA Simplemaps.com ***************************************
************* Free for Commercial Use, full terms at  https://simplemaps.com/resources/svg-license ************
************* Attribution is appreciated! https://simplemaps.com *******************************************-->

<svg baseprofile="tiny" fill="#6f9c76" height="1000" stroke="#ffffff" stroke-linecap="round" stroke-linejoin="round" stroke-width=".5" version="1.2" viewbox="0 0 1000 1000" width="1000" xmlns="http://www.w3.org/2000/svg">
 <g id="features">
  <path d="M601.5 288.1l-0.1-0.1-5.4-2-3.6-3.6-2.6-3.5-3.3-3.1-1.8-1.3-1.8-0.9-5.1-1.4-1.6-0.6-1.5-1.2-6.6-8.2-1.7-1.5-2.6-0.9-10-1-5.7-1.7-1.7-0.2-2 0.6-8.4 6.6-2.4 1.4-11 4.7-1.6 1.2-1.4 1.5-1 2-3.4 8.9-1.1 1.7-1.2 1.5-1.4 1.2-1.7 1-4.3 1.6-12 2.4-2.1-0.2-2.2-0.5-3.3-1.4-1.7-1.2-3.6-3.5-2-1.5-4.2-2.3-4.2-1.3-34.1 7.2-6.9-5.7 0.3-22-2.3-7.3-1.1-2.2-1.5-5-0.8-2.2-0.5-1.9 0.1-1.9 1.9-2.5 2.1-1.7 5.4-2.6 9.8-2.7 2.1-1 1.7-1.5 1.6-2.1 1.6-3 6-19.6 1.2-2.6 1.3-2 1.4-1.2 1.3-0.7 0.9-0.8 2.4-2.8 1.7-1.4 1.5-1.6 0.7-1.9-1.6-3.1-3.3-2.9-1.1-1.2-1.2-2.7-1-0.9-3.4-1.6-0.8-0.6-1-0.5-1-0.2-4 0-4.2-0.4-1.9-0.6-3.6-2.1-7.2-6.4-2.7-3.1-1.1-1.8-0.2-2.1 0.5-2.2 9.3-10.9 1.8-1.3 1.8-0.5 2 0.2 1.9 0.9 3.7 2.6 2.3 0.8 2.5-0.2 3.1-1.3 18.5-14.4 0.8-2.5-0.6-3-3.3-5.1-2.9-2.4-3.1-1.5-2.4-0.7-2.1-2.1-1.4-3.7-1.1-8 0.4-5.2 0.8-2.7 1.2-1.1 4.1-2.3 4-3 1.3-1.4 0.7-1.8 0.2-1.9-0.6-2.3-2.9-3.2-9.8-6.5-6.8-0.7-0.1 0-1.9-2.8-10.8-5.2-2.3-5.4 5.5-5.6 27.7 4.4 10.9-0.4 3.5-2.4 6.5-5.9 3.5-2.2 10.6 22.6-2.9 8 1.6 4.7 4.9 2.1 18.8 0.1 4.9 1.5 15 11.9 3.7 5.4 0.3 6-9.8 7.2-28.3-1.2-3.1 12.3 3.7 6.3 6.2 4.2 5.5 0.6 1.8-4.5 0.8-7 4.8 2.6 9.3 9.8 5.9 3.6 4.4 4.8 4.7 4 13.5 1.6 12.6 5.2 6.5 1 13.4-6.7 2.7-1.3 7.9-0.9 1.8 9-2.5 12.3 3.5 3.8 4 1.1 2.9 0.7 7.6 6.3 12.2 15.8 4.6 4.7 5.8 1.9 6.8 0.4 4.9 2.7 0.6 8.4-5.4 15.6-7.6 8.6-22.2 10.7-11.6 5.6-11.2 9.3-7.2 12.7 0 9.1z m-113-163.3l-4.4 3.2-0.9 5.2 1.8 5.8 3.5 4.6 10.4 3.6 4.1-8.8-3.2-10.9-11.3-2.7z m66.1 43.3l3-4.2-8.2-7.1-1.2-0.2-1.1 0.2-1 0.6-0.9 0.9 2.8 8.8 6.6 1z" id="AMTV" name="Tavush">
  </path>
  <path d="M201.5 93.4l0.1 0 6.6-1.6 11.5-5.2 5.7-0.6 12.1 3.4 6.1-1.1 5.6-3.1 4.5-4.5 1.5-3.7 0.2-3.2 0.7-2.9 3.4-2.4 3.1 0 7.7 3.2 13.9 9.7 5.3 2 6.7-1.1 2.7-1.8 2.1-2.4 2.3-2.1 3.4-1.1 3.5 0.4 15.3 9.3 6.3 2.3 6.4 0.5 7-2.1 5.8-6.4 1.8-1.5 3.1-0.1 1.5 2.9 1 3.9 1.6 2.9 5.9 1.7 4.2-3.8 3.5-6 3.7-5 6.2-2.8 5.8 0.8 12 4.8 42 0.9 7.5-1.1 2.8-3.9-1.1-1.6 0.1 0 6.8 0.7 9.8 6.5 2.9 3.2 0.6 2.3-0.2 1.9-0.7 1.8-1.3 1.4-4 3-4.1 2.3-1.2 1.1-0.8 2.7-0.4 5.2 1.1 8 1.4 3.7 2.1 2.1 2.4 0.7 3.1 1.5 2.9 2.4 3.3 5.1 0.6 3-0.8 2.5-18.5 14.4-3.1 1.3-2.5 0.2-2.3-0.8-3.7-2.6-1.9-0.9-2-0.2-1.8 0.5-1.8 1.3-9.3 10.9-0.5 2.2 0.2 2.1 1.1 1.8 2.7 3.1 7.2 6.4 3.6 2.1 1.9 0.6 4.2 0.4 4 0 1 0.2 1 0.5 0.8 0.6 3.4 1.6 1 0.9 1.2 2.7 1.1 1.2 3.3 2.9 1.6 3.1-0.7 1.9-1.5 1.6-1.7 1.4-2.4 2.8-0.9 0.8-1.3 0.7-1.4 1.2-1.3 2-1.2 2.6-6 19.6-1.6 3-1.6 2.1-1.7 1.5-2.1 1-9.8 2.7-5.4 2.6-2.1 1.7-1.9 2.5-0.1 1.9 0.5 1.9 0.8 2.2 1.5 5 1.1 2.2 2.3 7.3-0.3 22-8.4 1.3-3 0.1-13.7-1.3-11.7-3.7-14.3-7.5-1.9-0.5-2.1 0.1-5.6 2.5-2.3 0.4-2.7-1.2-4.7-3.2-7.1 0.5-24 6.3-1.4-5.9-2-2.7-2-2.1-7.2-4.5-15.1-6.2-4.5-1.1-3.9-0.2-1.4 0.2-1 0.5-0.9 0.9-2.1 3.2-2.2 2.1-3.1 1.7-5 1-3-0.4-2.3-1-1.4-1.6-2.8-3.6-2.2-2.2-1.8-0.9-1.9-0.4-1.4 0.1-3.7 0.8-12 0.5-2-0.6-2.3-1.1-0.9-1.6-1.9-4.8-2-2.7-2-1.3-10.2-1.5-2.1-1.4-1.5-2.1-0.7-2.5-1.1-2.9-1.3-2.8-2.3-4-0.9-2.5 0-2.4 2.1-3.9 0.4-1.1 2.4-10.2 0.7-2.1 0.8-1.8 0.3-0.3 0.5-0.4 0.7-0.3 0.9-0.1 1.1 0.4 4.6 2.5 2 0.4 2.2-0.2 2.3-0.7 1.7-1.2 1.1-1.8 0.4-4.1 0.4-2.5 1.1-2.2 3.3-3.1 1.1-1.9 2.1-12.2-0.5-1.4-0.8-0.6-6.5 0.3-6.5-0.8-1.9-0.7-1.8-1.1-1.6-1.8-0.4-1.5 0.3-1.5 0.8-1 2.5-1.8 1.1-1.1 0.9-1.7 0.3-2.8-0.3-1.7-0.6-1.2-0.8-0.6-5.2-3.4-2.2-2.2-2.4-2.9-5.3-8.6-1.8-2.3-1.4-1.1-6.7-2.7-2-1.1-2.5-2.3-0.8-1.6-0.2-2.2 3.3-28.4 0.1-0.6z" id="AMLO" name="Lori">
  </path>
  <path d="M201.5 93.4l-0.1 0.6-3.3 28.4 0.2 2.2 0.8 1.6 2.5 2.3 2 1.1 6.7 2.7 1.4 1.1 1.8 2.3 5.3 8.6 2.4 2.9 2.2 2.2 5.2 3.4 0.8 0.6 0.6 1.2 0.3 1.7-0.3 2.8-0.9 1.7-1.1 1.1-2.5 1.8-0.8 1-0.3 1.5 0.4 1.5 1.6 1.8 1.8 1.1 1.9 0.7 6.5 0.8 6.5-0.3 0.8 0.6 0.5 1.4-2.1 12.2-1.1 1.9-3.3 3.1-1.1 2.2-0.4 2.5-0.4 4.1-1.1 1.8-1.7 1.2-2.3 0.7-2.2 0.2-2-0.4-4.6-2.5-1.1-0.4-0.9 0.1-0.7 0.3-0.5 0.4-0.3 0.3-0.8 1.8-0.7 2.1-2.4 10.2-0.4 1.1-2.1 3.9 0 2.4 0.9 2.5 2.3 4 1.3 2.8 1.1 2.9 0.7 2.5 1.5 2.1 2.1 1.4 10.2 1.5 2 1.3 2 2.7 1.9 4.8 0.9 1.6 2.3 1.1 2 0.6 12-0.5-9.6 18.8-4.7 6.5-9.7 9.4-0.8 1.8 0.2 1.3 4.4 3.5 2.5 2.5 2 2.7 1.8 3.2 0.7 1.7 0.7 1.9 0.8 4.3 0.5 1.4 0.9 0.8 1.2 0.2 4.1-0.1 9.2-1.6 1.7 0.1 1.5 1 0.3 1.5-0.3 2.1-2.9 9.6-0.9 5.1 0 2.7 0.4 1.9 0.8 1 0.9 0.8 3 1.7 0.9 0.7-0.2 0.4-2.2 1.3-1.1 1-1.4 1.9-1 0.8-2.6 1.4-1.4 1.4-1.2 0.8-1.6 0.6-4.8 0.6-1.4 0.5-1.1 0.5-4.4 3.7-7.7 3.1-7.8 5-1.9 0.8-1.6 0.2-1.4-0.2-1.2-0.6-1.2-1-1.1-1.5-4.6-7.8-1.8-2.5-0.5-0.6-0.6-0.5-11.9-0.6-1.8 0.4-0.8 1-0.5 1.3-0.4 2.1-1 1-1.6 0.7-11.9 0.3-4.7-0.4-1.5-0.5-1.5-0.9-6-4.5-1.6-0.7-1.8-0.5-3.5-0.2-1.5-0.4-4.5-2.8-2-0.1-2.2 0.6-8.7 5.5-2.5 1.1-8 2.1-3.9 1.9-1.9 1.8-1.1 2.2-0.5 2.1-0.7 2.1-1.5 2.8-2.1 1.9-5.8 3.4-2 1.9-2.2 3-1.2 1.1-1.2 0.5-5-0.7 0.3-0.8 0-2.6-11.6-9.9-6.1-6.9-1.2-4.9 9.8-11.7 6.2-4.3 6.8-0.9-0.8-2.7-0.5-1.1-0.9-1.5 1.8 0.6 1.2 0.3 1.3 0.5 1.7 1.4-0.3-9.1 3.9-7.8 12.1-14.3-2.2-8.5 1.8-2.4 5.9-10.6 0.9-3.1-1.5-26.2-1-6.2-2.7-7.1-11.9-19.1-2.9-7.6-1.6-8.6-0.6-7.6-1.3-7.2-3.2-7.5-9-11.3-11.3-9.4-12.3-6.2-12.3-1.8-5.5-5.2-4.6-10.8-2.3-12.1 1.2-8.9 2.8 0.7 2.9 0.1 2.8-0.7 15.5-6.3 12.1-0.5 46.8 6.6 7-0.5 5.6-2.4 13.3-11.8 12.3-5.2 26.6-0.5 6.3-1.6z" id="AMSH" name="Shirak">
  </path>
  <path d="M436.1 288.5l34.1-7.2 4.2 1.3 4.2 2.3 2 1.5 3.6 3.5 1.7 1.2 3.3 1.4 2.2 0.5 2.1 0.2 12-2.4 4.3-1.6 1.7-1 1.4-1.2 1.2-1.5 1.1-1.7 3.4-8.9 1-2 1.4-1.5 1.6-1.2 11-4.7 2.4-1.4 8.4-6.6 2-0.6 1.7 0.2 5.7 1.7 10 1 2.6 0.9 1.7 1.5 6.6 8.2 1.5 1.2 1.6 0.6 5.1 1.4 1.8 0.9 1.8 1.3 3.3 3.1 2.6 3.5 3.6 3.6 5.4 2 0.1 0.1 0 7 4.1 8.7 5.5 5.5 5.8 4.6 5 6.2 1.1 3.8 0.6 8.3 1.4 4 2.6 3 5.9 4 2.5 4.3 9.2 19.9 17 15.9 66.8 37.9 0.2 0.3 12.2 13.5 5.7 0.3 2-0.6 4-1.2 6.3-0.4 4.2 2.2 4.1 4.1 7.4 9.7 0.5 2.2 0.2 2.2-0.2 2.2-5.2 24.1-3.5 9.2-5.5 7.4-6.3 5.6-1.1 2.8-3.4 17.2-1.9 4-3.9 3.3-20 1.9-47.1-7.8-18.1 11.8 0.4 3.7-0.1 0-1-0.1-2.6-1.7-1.5-2-0.6-0.8-0.9-0.7-1.1-0.3-1.3 0.1-1.8 1.6-0.9 1.2-3 4.7-4.1 3.6-10.1 5.3-4.8 1.6-19.5 3.3-7.2 0-8.8 1.6-21.1-1.1-2.6 0.5-9.1 3.5-3.5 2-3.6 2.5-11.4 10.6-13.6 8.8-2.4-5.7-0.4-2.5-0.6-8.1-0.7-3.3-1.8-4.3-1-3.2-0.6-3.4 0.3-8.4-0.3-2.4-1.2-1.3-3.1-1.4-0.8-0.6-0.7-0.9-0.6-1.3-1.1-3.4-12.1-29.7-0.6-3.6 0.2-4.7 3.2-12.4 1.5-10.8-4.3-6.5-19.6-23-1-2.4-0.2-2.4 0.7-4.2 1.6-2.5 2.6-3.1-0.6-4.4-13.3-49.8-1-2.6-2.4-2.5-8.4-5.8-1-1.5-0.5-1.7 0.5-2.7 1.2-4.7 0.5-2.6-0.4-3.2-1.2-3.5-3.1-5.1-2-2.5-1.7-1.5-1.6-0.3-6.5 0.3-1.8-0.3-1.5-1.8-1.2-2.8-3.1-20.2 0-3.5 0.5-3.1 1.9-3.9 0.9-2.1-0.9-7.3z m205.5 18.2l-9.8-3-1.7-3.6-0.6-3.9 0.6-4 1.7-3.7 3.6-2.6 3.9-1.2 4.2-0.1 4.2 0.6 7.4 4.2-3.9 9.9-9.6 7.4z" id="AMGR" name="Gegharkunik">
  </path>
  <path d="M525.8 583.1l13.6-8.8 11.4-10.6 3.6-2.5 3.5-2 9.1-3.5 2.6-0.5 21.1 1.1 8.8-1.6 7.2 0 19.5-3.3 4.8-1.6 10.1-5.3 4.1-3.6 3-4.7 0.9-1.2 1.8-1.6 1.3-0.1 1.1 0.3 0.9 0.7 0.6 0.8 1.5 2 2.6 1.7 1 0.1 0.1 0 0.5 5.2 9.1 4.1 29.9 3.1 7.8 3.8 6.2 6.9 12.8 26.5-5 2.9-4.3 5.2-15.2 25.9-2.5 5.6-0.7 4.1 5.5 10.1 0.1 5.7-1.1 7.9-7.7 30.1 0.3 2 0.3 1.5 1.4 3.7 0.2 0.6 0 0.1-35.1 8.5-7.7 3.2-23 14.7-3.1 1.3-3.2 1.7-3.2 0.6-3.3-0.5-3-1.8-0.1 0-9-9.3-5-2.6-13.6-1.3-4.2-1.7-2.9-4.2-3.4-7.7-7.1-10.1-1.8-2.5-7.6 2.6-8.2 7.6-10.6 2.5-5.6-3.6-1.1-5.4 2.8-13.4 0.5-8.7-1.2-6.9-3-6.2-19-24.4 0.9-8.1 0-12.4 0.2-1.4 2-6 6.8-15.3z" id="AMVD" name="Vayots Dzor">
  </path>
  <path d="M726.3 588.5l2.2 4.5 12.9 12.9 6.1 3.2 9.5 4.8 18.1 5.5 7.8 7.6 11.1 22.5 9 7.3 10.8 3.1 5 2.8 4.1 5.1 6.7 12.8 4.2 4 6.4 2 9.9-2.1 19.6-10 9.8 0.7 4.1 3.3 6.7 9.2 4.3 3.1 5.7 1 18.1-1.8 4.6 1.1 4.8 3.1 3.5 4.8 0.8 6.1-2.5 4.7-4.2 2.6-3.4 3.1-0.1 6.1 2 4-0.1 3.4-1.9 2.7-3.5 1.7-0.1 0.1-21 3.9-9.1 5.6-3.8 9.6 4 11.6 9.4 7.3 20.6 9.3 4.6 3.8 2.1 5.3 1.5 5.9 2.8 5.5 6.9 7.3 12.2 8.6 1.9 1.8 2 2.2 0.3 1 1 2.5-2.5 1.3-6 0.2-13.3 9.5-3.5 0.5-17.4-8.8-10.1-1.3-6.6 6.2 0.3 11.3 7.3 7.3 9.6 5.5 6.9 5.6 3.6 12.1 1.6 10.5-0.8 10.3-3.8 11.7-0.2 1.2-0.4 1-1 4.5-0.5 4.6 0.3 4.5 1.2 4.3 9.9 21-5.1-1.4-29.9-13.4-3.9-0.8-3 0.4-7 2.2-11.1 0.5-3.8 0.9-5.5 2.7-14.9 10.8-5.1 2.4-19 2.5-16.7-31.9-15-41.8-5.8-11.7-7.4-10.7-6.1-10-2.6-9.7 1.8-9.4 6.9-9.2 1.9-2.5 0.6-2.6-0.7-2.8-1.8-2.9-5.9-5.6-16.3-8.1-4.2-2-6.9-5.3-5.4-6-5.9-4.8-16.3-4.2-0.7-1.8-1.7-3.8 1.9-7.4 9.6-15.9 1.3-5.9-2.6-16.9 0-0.1 0.9-9.4 0-6.3-2.6-4.7-6.5-4.7-7.9-3-6.7 0.1-1.6 0.4 0-0.1-0.2-0.6-1.4-3.7-0.3-1.5-0.3-2 7.7-30.1 1.1-7.9-0.1-5.7-5.5-10.1 0.7-4.1 2.5-5.6 15.2-25.9 4.3-5.2 5-2.9z" id="AMSU" name="Syunik">
  </path>
  <path d="M503 471.7l-1.5 10.8-3.2 12.4-0.2 4.7 0.6 3.6 12.1 29.7 1.1 3.4 0.6 1.3 0.7 0.9 0.8 0.6 3.1 1.4 1.2 1.3 0.3 2.4-0.3 8.4 0.6 3.4 1 3.2 1.8 4.3 0.7 3.3 0.6 8.1 0.4 2.5 2.4 5.7-6.8 15.3-2 6-0.2 1.4 0 12.4-0.9 8.1-2.1-2.7-9.8-4.9-10.7 3.7-10.6 8.1-1.7 1-7.5 4.2-9.7 2.3-12.6-0.2-13.3 2.5-8.1 3.6-4.4-7.6-17.6-23.2-1.6-2.9-1.4-1.2-1.4-0.3-3.2 0.5-1.4-0.2-5.3-3.3-10.4-12-3.8 2.3-1.1-2.1-0.1-4.2-0.9-3.7-4.3-3.1-2.4-2.5-1.1-3.3-1.3-5.7-3.3-5.4-7.3-8.2-16.6-14.5-23.9-14.1 0-0.3-0.2-6.2-0.7-3.8-2.5-7.1-5.1-10 0.3-1.6 1.4-2.4 3.8-3.5 4.3-7.1 2-2.2 2.7-1.7 7.9-3.2 2.5-1.5 0.7-3.1 3.4-0.9 1.3 0.6 2 1.8 0.6 1.3 0.3 1.7-0.1 1.7-0.8 4.5-0.2 2.2 0.2 1.3 0.3 1.6 0.7 1.6 0.9 1.5 1.1 1.2 0.7 0.7 0.7 0.4 10 2.4 2.9 1.3 1.9 1.7 2.6 6.1 0.6 0.9 0.9 0.9 2.9 2.4 1 0.3 1.6-0.1 3.5-0.9 7.8-5.2 12.5-16.9 2.7 1.4 2.8 6.6 2 2 3.5 1.9 1.9 0.2 14.3-2.5 11.7-3.8 21.5-12.2 8.2-3.4 10.4-3.1 11.1-4.6 8.7-1 10.8 0.6z" id="AMAR" name="Ararat">
  </path>
  <path d="M255.4 254.3l3.7-0.8 1.4-0.1 1.9 0.4 1.8 0.9 2.2 2.2 2.8 3.6 1.4 1.6 2.3 1 3 0.4 5-1 3.1-1.7 2.2-2.1 2.1-3.2 0.9-0.9 1-0.5 1.4-0.2 3.9 0.2 4.5 1.1 15.1 6.2 7.2 4.5 2 2.1 2 2.7 1.4 5.9 2.1 12.9 0 3.5-1.3 5.2 0.2 1.5 2 2.7 18.4 13.7 2.5 1.1 10.9 1.8 1.9 0.8 2 1.1-0.2 5.9-2.2 9.6-13.8 40.3 0.5 3.3 2.3 5.1 0.2 2.5-0.8 2.7-2.6 2.4-4.3 2.7-10.6 19-2.5 2.6-2.5 1.5-2.1 0.5-1.9 0.8-1 1.9 0.1 2.2 2.3 3.8 1.9 1.9 3.2 2.4 0.7 1.4-0.1 1.6-1.3 2-1.6 1.2-3.6 2.4-0.7 1.5 0 2.6 0.5 4.2 3.6 8.8-2.2 4.3-16.8-3.7-6.2-3-5.2-4-1.4-0.7-1.5-0.6-4.7-2.7-1.7-2.1-1.5-1.6-2.2-0.9-3.1 0.1-5.8 1.5-3.3 1.8-2.4 1.7-1.7 0.9-1.9-0.1-2-1.3-2.5-3.1-1.1-1.1-1.4-0.6-1.6-0.4-1.8-0.2-1.7 0.3-1.8 1.4-0.2 2.3 0.4 2.5 1.6 5.6 0.2 3.6-3.3 3.4-6.2 2.5-34-0.2-2.2-0.8-2.2-1.4-4.4-3.7-4.4-5.2-2.7-1.6-11-3.9-4-2.4-7.3-6.1-1.2-0.7-2.1-0.7-7.4-1.5-2.6-1-1.6-1.1-3.5-5.7-1.3-1.3-1.6-0.1-1.9 0.9-2.9 3.4-1.7 2.5-1.8 1.9-2 0.3-3-1.7-2.2-1.6-2.4-0.5-2.3 1-6.6 6.1-7.2 4.4-0.3 0-4.1-9.6-12.8-16.7-7.7-7.3-3-5.9 2-6.1 2.4-4.2 4.3-14.4 5 0.7 1.2-0.5 1.2-1.1 2.2-3 2-1.9 5.8-3.4 2.1-1.9 1.5-2.8 0.7-2.1 0.5-2.1 1.1-2.2 1.9-1.8 3.9-1.9 8-2.1 2.5-1.1 8.7-5.5 2.2-0.6 2 0.1 4.5 2.8 1.5 0.4 3.5 0.2 1.8 0.5 1.6 0.7 6 4.5 1.5 0.9 1.5 0.5 4.7 0.4 11.9-0.3 1.6-0.7 1-1 0.4-2.1 0.5-1.3 0.8-1 1.8-0.4 11.9 0.6 0.6 0.5 0.5 0.6 1.8 2.5 4.6 7.8 1.1 1.5 1.2 1 1.2 0.6 1.4 0.2 1.6-0.2 1.9-0.8 7.8-5 7.7-3.1 4.4-3.7 1.1-0.5 1.4-0.5 4.8-0.6 1.6-0.6 1.2-0.8 1.4-1.4 2.6-1.4 1-0.8 1.4-1.9 1.1-1 2.2-1.3 0.2-0.4-0.9-0.7-3-1.7-0.9-0.8-0.8-1-0.4-1.9 0-2.7 0.9-5.1 2.9-9.6 0.3-2.1-0.3-1.5-1.5-1-1.7-0.1-9.2 1.6-4.1 0.1-1.2-0.2-0.9-0.8-0.5-1.4-0.8-4.3-0.7-1.9-0.7-1.7-1.8-3.2-2-2.7-2.5-2.5-4.4-3.5-0.2-1.3 0.8-1.8 9.7-9.4 4.7-6.5 9.6-18.8z" id="AMAG" name="Aragatsotn">
  </path>
  <path d="M334.1 475.5l-0.7 3.1-2.5 1.5-7.9 3.2-2.7 1.7-2 2.2-4.3 7.1-3.8 3.5-1.4 2.4-0.3 1.6 5.1 10 2.5 7.1 0.7 3.8 0.2 6.2 0 0.3-15.8-9.3-10.5-3.2-9.7 0-17.3 4.7-8.2 1-5.9 1.7-2.9 0.5-2.5-0.9-3.6-3.5-2.8-0.8-6.1 1.7-10 7-4.6 1.6-34.5-5.9-31.3-17.4-26.2-7.5-13.2-7.2-3.7-10.9 4-3.7 13-2.8 2.8-4.8-1.9-4.3-8.9-11-3.1-6.6 5.3-4.1-0.3-0.7 0.3 0 7.2-4.4 6.6-6.1 2.3-1 2.4 0.5 2.2 1.6 3 1.7 2-0.3 1.8-1.9 1.7-2.5 2.9-3.4 1.9-0.9 1.6 0.1 1.3 1.3 3.5 5.7 1.6 1.1 2.6 1 7.4 1.5 2.1 0.7 1.2 0.7 7.3 6.1 4 2.4 11 3.9 2.7 1.6 4.4 5.2 4.4 3.7 2.2 1.4 2.2 0.8 34 0.2 6.2-2.5 3.3-3.4-0.2-3.6-1.6-5.6-0.4-2.5 0.2-2.3 1.8-1.4 1.7-0.3 1.8 0.2 1.6 0.4 1.4 0.6 1.1 1.1 2.5 3.1 2 1.3 1.9 0.1 1.7-0.9 2.4-1.7 3.3-1.8 5.8-1.5 3.1-0.1 2.2 0.9 1.5 1.6 1.7 2.1 4.7 2.7 1.5 0.6 1.4 0.7 5.2 4 6.2 3 16.8 3.7 2.7 3.7 0.5 5 0.4 1.6 2.8 3.2z" id="AMAV" name="Armavir">
  </path>
  <path d="M429.2 282.8l6.9 5.7 0.9 7.3-0.9 2.1-1.9 3.9-0.5 3.1 0 3.5 3.1 20.2 1.2 2.8 1.5 1.8 1.8 0.3 6.5-0.3 1.6 0.3 1.7 1.5 2 2.5 3.1 5.1 1.2 3.5 0.4 3.2-0.5 2.6-1.2 4.7-0.5 2.7 0.5 1.7 1 1.5 8.4 5.8 2.4 2.5 1 2.6 13.3 49.8 0.6 4.4-2.6 3.1-1.6 2.5-0.7 4.2 0.2 2.4 1 2.4 19.6 23 4.3 6.5-10.8-0.6-8.7 1-11.1 4.6-10.4 3.1-8.2 3.4-21.5 12.2-11.7 3.8-14.3 2.5-1.9-0.2-3.5-1.9-2-2-2.8-6.6-2.7-1.4-2.2-5.6-1.9-1.4-1.8-0.6-5.6 0.7-4.9-0.3-1.9-1.4-0.8-2.2 0.5-2.5 0.8-2.6 0.9-2.4 1-1.9 0.9-1.4 4.6-5 1.2-1.6 0.8-1.6-0.4-0.9-1.3-1.7-2.5-2.3-4.1-5.5-2.7-1.6-2.3-0.8-3.2 0.9-8.1 4.1-1.7 0.4-11.2 1.1-3.5-0.9-0.9 0-0.8 0.4-1.8 1.2-0.9 0.3-1.5 0.2-1.6-0.1-2.9-0.5-1 0.1-0.7 0.3-0.6 0.5-0.4 0.6-0.2 0.4-0.8 1.7-3.6-8.8-0.5-4.2 0-2.6 0.7-1.5 3.6-2.4 1.6-1.2 1.3-2 0.1-1.6-0.7-1.4-3.2-2.4-1.9-1.9-2.3-3.8-0.1-2.2 1-1.9 1.9-0.8 2.1-0.5 2.5-1.5 2.5-2.6 10.6-19 4.3-2.7 2.6-2.4 0.8-2.7-0.2-2.5-2.3-5.1-0.5-3.3 13.8-40.3 2.2-9.6 0.2-5.9-2-1.1-1.9-0.8-10.9-1.8-2.5-1.1-18.4-13.7-2-2.7-0.2-1.5 1.3-5.2 0-3.5-2.1-12.9 24-6.3 7.1-0.5 4.7 3.2 2.7 1.2 2.3-0.4 5.6-2.5 2.1-0.1 1.9 0.5 14.3 7.5 11.7 3.7 13.7 1.3 3-0.1 8.4-1.3z" id="AMKT" name="Kotayk">
  </path>
  <path d="M393.4 489.6l-12.5 16.9-7.8 5.2-3.5 0.9-1.6 0.1-1-0.3-2.9-2.4-0.9-0.9-0.6-0.9-2.6-6.1-1.9-1.7-2.9-1.3-10-2.4-0.7-0.4-0.7-0.7-1.1-1.2-0.9-1.5-0.7-1.6-0.3-1.6-0.2-1.3 0.2-2.2 0.8-4.5 0.1-1.7-0.3-1.7-0.6-1.3-2-1.8-1.3-0.6-3.4 0.9-2.8-3.2-0.4-1.6-0.5-5-2.7-3.7 2.2-4.3 0.8-1.7 0.2-0.4 0.4-0.6 0.6-0.5 0.7-0.3 1-0.1 2.9 0.5 1.6 0.1 1.5-0.2 0.9-0.3 1.8-1.2 0.8-0.4 0.9 0 3.5 0.9 11.2-1.1 1.7-0.4 8.1-4.1 3.2-0.9 2.3 0.8 2.7 1.6 4.1 5.5 2.5 2.3 1.3 1.7 0.4 0.9-0.8 1.6-1.2 1.6-4.6 5-0.9 1.4-1 1.9-0.9 2.4-0.8 2.6-0.5 2.5 0.8 2.2 1.9 1.4 4.9 0.3 5.6-0.7 1.8 0.6 1.9 1.4 2.2 5.6z" id="AMER" name="Erevan">
  </path>
 </g>
 <g id="points">
  <circle class="38.98503870787105|43.59460990161917" cx="91.6" cy="909.8" id="0">
  </circle>
  <circle class="39.95573922525609|45.177769078669776" cx="545.4" cy="549.5" id="1">
  </circle>
  <circle class="41.16911487198739|46.44429642031026" cx="908.4" cy="91.7" id="2">
  </circle>
 </g>
 <g id="label_points">
  <circle class="Tavush" cx="516.4" cy="207.3" id="AMTV">
  </circle>
  <circle class="Lori" cx="342.2" cy="179.7" id="AMLO">
  </circle>
  <circle class="Shirak" cx="163.6" cy="184.5" id="AMSH">
  </circle>
  <circle class="Gegharkunik" cx="579.1" cy="434.9" id="AMGR">
  </circle>
  <circle class="Vayots Dzor" cx="622.9" cy="630.2" id="AMVD">
  </circle>
  <circle class="Syunik" cx="823.1" cy="766" id="AMSU">
  </circle>
  <circle class="Ararat" cx="446.7" cy="563" id="AMAR">
  </circle>
  <circle class="Aragatsotn" cx="293.6" cy="384.2" id="AMAG">
  </circle>
  <circle class="Armavir" cx="186.4" cy="485.7" id="AMAV">
  </circle>
  <circle class="Kotayk" cx="408.1" cy="392.6" id="AMKT">
  </circle>
  <circle class="Erevan" cx="358.3" cy="474.6" id="AMER">
  </circle>
 </g>
</svg>