<?xml version="1.0"?>
    
<!--********* Copyright (c) 2024 Pareto Softare, LLC DBA Simplemaps.com ***************************************
************* Free for Commercial Use, full terms at  https://simplemaps.com/resources/svg-license ************
************* Attribution is appreciated! https://simplemaps.com *******************************************-->

<svg baseprofile="tiny" fill="#6f9c76" height="1000" stroke="#ffffff" stroke-linecap="round" stroke-linejoin="round" stroke-width=".5" version="1.2" viewbox="0 0 1000 1000" width="1000" xmlns="http://www.w3.org/2000/svg">
 <g id="features">
  <path d="M168.5 46l1.2 0.7 0.9 0.2 1.1-0.2 0.7-0.4 0.8-0.1 1 0.6 1 1.3 1.2 3.2 1.2 1.4 2.6 2.1 4.3 5.1 3 1.5-0.5 1.9-2.4 0.8-12.8 3-1.9 1.2-1.1 1.2-0.8 1.4-0.4 1.4-0.1 1.5-0.6 0.8-3 1.7-0.9 0.8-0.6 1.4-0.1 1.1-0.5 0.7-1.6 0.6-2.5 0.2-0.6 0.4-0.2 1.3-1.1 2.5-2.4 1.6-5.5 1.9-0.5 0-0.5 0-0.4 0.1-0.3 0.6-0.1 0.6 0.2 0.7 0.2 0.6 0.4 0.4 2.2 0.7 0.2 0.4 0.4 0.3 0.5 0.2 0.5 0.3 0.3 0.1 0.5 0.2-0.6 0.1-0.3 0-0.4 0.1-0.7 0.2-0.5 0.1-0.5 0.4-0.1 0.3 0.1 0.3 0.6 0.1 0.6 0.2 0.6 0 0.4-0.1 0 33.1 0 4.1-4.8-0.1-5.9-0.1-5.6 0.8-3.2 1.8-3.1-5.4-1-4.1 1.5-4.2 0.8-0.7 0.7-0.2 0.8-0.1 0.9-0.3 0.6-0.7 0.3-0.9 0-2-0.2-0.8-1-2.4-1.2-2.3-1.6-4.4 0-1.7-2.6-4.6-0.5-3.1-3.5-4.3-3.1-4.8 0-0.7 0.8 0.2 1.3 0.3 0.8 0.2 0.5 0.4 0.4 1.5 1.3 0.3 1-0.7 0.7-1 0.1-0.9 0.6-0.4-0.1-1.2-0.2-0.6-0.6-0.2-0.7-0.1-0.5 0.7-0.2 1 0.1 1.4-0.4 0.3-0.5-0.2-0.3-1.3-0.4-0.7-0.5-0.2-0.4 0.6-0.6 0.1-0.8-0.4-0.9 0.1-1.4-0.2 0.6-0.7 7.3-6.3 1.8-2.8 1.9-6.7 0.3-0.3 0.8 0 0.6 0.4 0.6 0.7 0.8 1.6 0.6-0.5 1-0.4 1-0.2 2.2-0.3 0.9-0.3 0.7-0.8 2.7-5.4 0.3-1.4-0.1-2.8 0.6-0.9 1.8 0.2 1-0.1 4.4-1.4 7.3-1.4 1-0.4 0.7-0.7 1.4-2.6 0.9-1.1 1.1-0.8 1.2-0.7 0.9-1.1 0.5-1.5 0.7-1.5 1.6-0.9 0.9 0.3 0.4 0.2z" id="AOCAB" name="Cabinda">
  </path>
  <path d="M768.5 827.3l1.8 2.2 2.3 3.6-1.7 0.1-0.5-0.1 0.7 1 0.2 0.8 0.1 0.9 0.3 1 0.3 0.4 0.8 0.7 0.2 0.3 0.1 0.7 0 1.5 0.1 0.4 2.2 0.5 1.1 0.5-0.1 0.8-0.6 0.9-0.6 1.2-0.3 1.3-0.1 1.1 0.3 0.8 1.1 1.9 0.4 1 0 0.9-0.2 0.8 0.3 0.5 1.2 0.1 0.7 0.4 0.3 1 0.2 1.2 0.4 0.9 5.6 4.6 0.9 0.3 0.5 0 1-0.4 0.6-0.2 0.2-0.2 0.3-0.1 0.3 0.2 0.5 0.5 0.2 0.2 1.8 0.3 0.6 0.6 0.4 0.9 1.1 1.4 0.4 0.8 0.4 0.4 0.3 0.2 1.1 0.2 0.6 0.4 0.5 0.6 4.7 7.5 0.7 2 0.6 0.8 0.9 0.6 2.1 0.6 0.8 0.9 0.1 0.6 0 1.2 0.3 0.5 0.4 0.3 0.8 0 3.9 1.6 0.9 0.7 2.9 3.2 1.4 1.8 0.9 1.8 0.7 3.2 0.6 1 0.9 0.7 2 1.1 2.6 2.4 1.7 1.1 4 1.8 3.1 0.8 0.9 0.6 2.7 2.9 0.4 0.8 0.5 1.8 1.3 2.1 1.6 1.8 1.5 1.3 2.9 1.1 0.7 0.8 0.2 1.1-0.2 1 0.1 1 0.8 0.9 1.1 0.3 1.1-0.2 1.1-0.2 1.2-0.2 2.1 0.2 0.9 0.3 1 0.4 1.3 1 1.3 1.5 1.4 1.3-0.4 1 0 0.8 0.4 0.9-5.5 1.1-13.3 2.6-13.3 2.7-13.3 2.6-13.3 2.7-16.4 3.1-16.3 3.2-16.4 3.2-16.4 3.1-4.7 0.9-0.3 0.1-0.9 0.3-0.4-0.1 0-0.2-0.5-0.6-0.5-0.7-0.9-0.4-1.1-0.5-3.7-1.4-2.9-1.6-1-0.2-0.1-0.1-0.8 0.1-1.8 0.1-1-0.2-0.1 0.1-0.1 0-1 0.1-0.4 0.2-0.7 0.4-1.1 0.2-0.2-0.1-0.8-0.4-1.6 0.5-0.5 0.1-2.1 0.6-1.6 0.4-0.3 0.1-0.4 0.1-0.5 0.1-3.7 1.1-0.1 0-0.1 0.2-0.2 0.2-0.2 0-0.1 0.1-0.2 0-0.2 0.1-0.2 0.2-0.2 0.1-0.1 0.1-0.1 0-0.6 1.2-2.1 0.4-0.1 0-1.9 0.7-1.6 0.1-1.5-1.2-1.9-1.1-1.1-0.3-0.5 0.7-0.5 0.2-1.1-0.1-1-0.5-0.5-0.6-1.1-0.6-1.3-0.1-0.4 0-0.6-0.1-0.5 0-0.4 0.1-0.6 0-1.1 0-0.2 0.1-0.4 0.1-1 0.3-0.2-0.1-0.7-0.3-1.8-1.5-2.3-1.1-0.6-0.5-1.3-1.4-1.5-1.3-1.6-0.8-1.7 0.5-2.5-2.2-0.8-0.3-2.2 0.4-0.9 0.1-0.7-0.5-2.2 2-1.6-0.7-1.7-0.1-1.3 0.4-0.1 0-0.2 0-0.9 0.9-0.5-0.5-0.9 0.4-0.9 0.1-1.8 0-0.6 0-2.4 0.3-0.8 0.1-0.6-0.1-2.3-0.8-2.4-1.4-1.9 0-0.8 0-7.6 0-0.5 0.2-0.7 1.3-0.3 0.4-1.1-0.1-1.5-0.5-0.3-0.1-0.8-0.4-0.2-0.1-0.6-0.5-0.6-1.2-1.4-0.4-1.5 0.2-3.7 0.8-0.6 0-0.1 0-10.5 0.2-10.3-3.2-1-0.6-3 0.2-1.9-0.4-0.7 0-1.4 0.2-2.3 0.9-5.5 0.3-8.5-1.6-3.2-1.6-0.5-0.2-2.1-1.1-1.2-0.3-1.3-0.3-0.7-0.5-0.2-0.3-0.6-0.8-0.5-0.6-0.2-0.3-3.8-4-0.6-0.4-1.2-0.6-0.6-0.6-0.4-0.6-0.3-1.3-0.2-0.5-3.4-2.8-0.9-0.5-0.2-0.7-2.2-4.4-1.6-0.5-0.2-0.1-0.1-0.7-1.1-2.6-0.4-0.3-0.4-0.3-0.3-0.7-0.1-0.4-0.5 0-3.5 0-16.7 0-8.8 0-7.9 0-16.7 0-16.8 0-5.7 0 0.3-11.5-3.1-14.9-0.6-6.9 0.1-4.5 0.5-4.4 0.7-2.4 2.9-6.5 1.3-5.6 4.1-5.1 1.2-2 0.7-1.9 1-4.1-0.3-8.2-1.7-13.1-0.2-8.6-0.6-2.1-1-2-1.1-1.2-3-2.8-8.4-15.1-1.8-1.6-3.6-2.5-0.8-1-0.3-0.6-0.9-3.2-0.3 0.1-0.6 0.2-0.3 0.1-0.5-0.5-0.5-1.5-0.6-0.3-1.4 0-0.7-0.1-0.6-0.3-2.4-2.3-0.6-0.3-0.7-0.3 0-0.4 0.2-0.2 0.4-0.5 0.3-0.3-0.6-0.3-1.7-1.1-0.6-0.7-1.8-1.1-0.6-0.2 0-0.4 0.4-0.8-0.3-1.8-0.5-0.7-2.1-0.6-1-0.6-0.8-0.8-0.3-0.8 0.2-0.9 0.2-0.8 0-0.6-0.6-0.2-0.9-0.1-0.7-0.4-2.8-3.3-0.6-1.1-0.1-1.1 0.2-0.5 1-0.7 0.2-0.5-0.1-0.2-0.2-0.1-0.2-0.2-0.3-1.2-0.4-0.7-0.5-0.5-0.2-0.3-0.3-0.7-1.5-1.8-0.4-1-0.1-1.5 0.6-3.8-0.3-1.6-0.7-1.4-2.5-3.2-0.2-0.6 0.3-0.6 0.2-0.5 0.7-1.6 0.7-0.2-0.2-0.4-0.6-0.5-0.6-0.3-0.6-0.2-2.1-0.3 0.3-0.3 0.6-1.1-1.7-0.3-1.6-1-1.3-1.3-0.4-0.8-0.3-0.6 0-0.1 0-5.7 0.1-1 0.2-0.6-0.1-1.2-0.2-1.5 0-0.8 0.1-0.6 0.1-0.4 0-0.6 0-1-0.5-1.7-1.1-2.1-0.2-0.9-1-6.1 0-0.4 0.1-0.4 0.2-0.3 0.2-0.1 0.3-0.1 0.2-0.2 0.2-0.1 0.1-0.3 0.4-3.9 0.4-1.6 0.1-0.7-0.1-0.8-1-2.9-0.1-0.9 0-0.7 0.3-0.7 0.2-0.4 0-0.8-0.1-0.5-0.7-1.5 1.3-0.6 0.7-0.1 6.1 0.2 2.9-0.3 2.1-0.9 2.1-0.5 1.8 0.2 1.4 0.6 2.1 1.5 1.3 0.5 1.5 0.2 1.4-0.5 1.2-0.6 0.6-0.4 1.9-0.7 1.5 0.1 1.4 0.5 0.8 0.6 1 1.1 2 3.3 0.6 1.5 0.8 3.2 0.6 1.5 2.9 2.5 3.4 2.2 2.2 0.9 3.9 2.7 1.7 0.9 1.6 0.5 1.2 0.1 1.1-0.1-0.6-0.9-0.1-0.3 0-0.3 0-0.2 0-0.3 2-2.7 0.3-0.6 0.2-0.7 0-0.4 0.1-0.6-0.2-2.4 0.1-0.8 0.1-0.4 0.2-0.2 0.3-0.4 2.7-1.8 0.4-0.3 2.1-2.5 2-3 0.4-0.3 0.5-0.4 1-0.5 0.6-0.2 0.6-0.1 0.4 0.1 1.7 0.2 0.4 0 0.3-0.1 2.6-1.1 0.3-0.1 0.4 0 1.6 0.2 0.4 0 0.3-0.2 0.4-0.1 2.9-2.1 0.3-0.1 0.3-0.2 0.7-0.2 1-0.8 1-1 0.5-0.5 0.5-0.2 0.3-0.2 0.5-0.3 0.5-0.6 1.4-1.9 0.3-0.7 0.2-0.6-0.1-6.1-0.5-1.7 0-1.4 0.7-1.4 5.5-1.3 2.1-1.8 1.1-2.5 0.7-2.5 2.1 0.7 15 8.4 2.1 0.5 1.8 0.1 1.5-0.3 2.3 0.5 8.3 3.9 2.6 0.9 2.1 0.4 1.5 0.6 4.1 3.3 0.6 0.4 0.6 0.1 0.5 0.2 0.7 0.7 0.7 1.4 0.3 0.3 2.1 1.3 0.7 0.8 0.9 1.1 0.3 0.5 0.1 0.3 0.1 0.1 0 0.9 0.1 0.3 0.1 0.3 0.6 0.8 0.2 0.2 0.4 1.1 0.2 0.3 0.3 0.4 0.5 0.4 0.5 0.7 0.5 0.9 0.1 0.4 0 0.3-0.2 0.4-0.3 0.6-0.1 0.3 0 0.4 0.1 0.3 0.3 0.6 0.4 1.1 0.3 0.6 0.1 0.3-0.1 0.7 0.1 0.4 0.1 0.3 0.4 0.6 0 0.3 0 0.4-0.2 0.3-0.1 0.3-0.1 0.3 0 0.4 0.2 0.7 0.1 1.1 0.1 0.3 0.4 0.6 0.2 0.3 0.3 0.7 0.1 0.4 0.2 0.6 1 1.3 0.4 1.5 0.2 0.3 0.5 0.6 0.4 0.3 0.2 0.3 0.2 0.3 0.1 0.4 0 0.3 0.1 0.4 0.2 0.3 0.8 1 0.2 0.4 0.2 0.3 0.3 0.3 0.8 0.3 0.9 0.5 0.7 0.3 0.8-0.1 4.6-1.7 2.2-0.1 2.6 0.2 4.4 1 1.3-0.6 0.4-1.1-0.7-3 0-1.4 0.4-1.3 1.2-0.9 1.5-0.9 1.9-0.1 2.1 0.5 3 1.3 5.6 1.2 5.3-0.7 2.1 0.3 1.1 1.2 0.6 0.9 0.5 0.9 0.5 0.7 1.7 1.3 0.6 0.7 0.5 0.7 0.5 1.3 0.5 1.9 0.3 0.7 0.5 0.8 1 1 1.1 1.6 0.1 0.4 0.6 2 0.4 0.7 0.6 0.6 1.8 1.3 0.6 0.6 0.5 1 0.6 0.7 0.8 0.6 0.8 0.7 0.8 1.1 2.3 2.5 3.7 2.9 0.6 0.9 0.5 0.7 1.1 0.5 0.7 1 1.5 0.5 2.3 1.5 1.7 2.6 0.6 0.6 2 1.4 0.5 0.6 0.4 0.5 0.9 1.3 0.4 0.3 0.3 0.3 5.1 2.8 3.2 1 1.4 0.7 0.9 0.6 0.4 0.1 0.4 0.1 0.6 0 2.2-0.3 2.4 0.1 2.7 0.5 0.4 0.1 0.7 0 1.2 0.3 0.9-0.2 0.9-0.3 1-0.2 4.7 0 0.6 0 0.4 0.2 0.3-0.1 1-0.8 1.4-0.6 0.6-0.1 0.6 0 1.2 0.3 0.6 0.1 0.5-0.1 0.9-0.7 0.6-0.1 1 0.2 3.1 1.9 2.4 0.8 1.3 0.2 1.2 0.1 1-0.4 0.5-0.7 0.6-0.4 1.5 0.6 2 1.7 1 0.2 1.4-1 0.6 1 0.8 0.9 0.2 0.9 0.3 0.4 0.2 0 0.2-0.1 0.4 0.2 5.4 5.9 1.4 2.1 1.7 1.9 0.4 1.1 1-0.5 0.6 0 0.5 0.3 0.6 0.7 0.1 0.6 0.4 1.2 0.8 0.8 1.2-0.5 1.6-0.3 1.6 1.7 2 3.9 0 0.5-0.2 0.4-0.1 0.4 0.3 0.6 1.7 1.4 2.1 0.9 0.7 0.8 0.3 1.3 0.4-0.2 1-0.2 1.1 0.2 0.9 0.9 1.3 3.1 0.3 1.1 0.4 4.1 0.9 1.4 2.2 0.5 0.7 0.5 1.2 2.1 1.3 1.9 0.3 0.9 0.5 2.1 0.6 1.1 1.4 1.5 0.7 1 0.5 1.1 0.6 2.4 0.5 1.2 1.7 1.7 1.9 0.2 2-0.2 1.8 0.6 0.6 1.1 0 0.9 0.3 0.6 1.5 0.2 0.6 0.6 1.2 2.7 0.3 1.4 0.3 0.4 1.3 1.3 0.2 0.4 1.6 4.3 0.6 1 0.9 0.6 3.5 1.5 2 1.3 1.8 1.5 1.1 1.4z" id="AOCCU" name="Cuando Cubango">
  </path>
  <path d="M768.5 827.3l-1.1-1.4-1.8-1.5-2-1.3-3.5-1.5-0.9-0.6-0.6-1-1.6-4.3-0.2-0.4-1.3-1.3-0.3-0.4-0.3-1.4-1.2-2.7-0.6-0.6-1.5-0.2-0.3-0.6 0-0.9-0.6-1.1-1.8-0.6-2 0.2-1.9-0.2-1.7-1.7-0.5-1.2-0.6-2.4-0.5-1.1-0.7-1-1.4-1.5-0.6-1.1-0.5-2.1-0.3-0.9-1.3-1.9-1.2-2.1-0.7-0.5-2.2-0.5-0.9-1.4-0.4-4.1-0.3-1.1-1.3-3.1-0.9-0.9-1.1-0.2-1 0.2-0.4 0.2-0.3-1.3-0.7-0.8-2.1-0.9-1.7-1.4-0.3-0.6 0.1-0.4 0.2-0.4 0-0.5-2-3.9-1.6-1.7-1.6 0.3-1.2 0.5-0.8-0.8-0.4-1.2-0.1-0.6-0.6-0.7-0.5-0.3-0.6 0-1 0.5-0.4-1.1-1.7-1.9-1.4-2.1-5.4-5.9-0.4-0.2-0.2 0.1-0.2 0-0.3-0.4-0.2-0.9-0.8-0.9-0.6-1-1.4 1-1-0.2-2-1.7-1.5-0.6-0.6 0.4-0.5 0.7-1 0.4-1.2-0.1-1.3-0.2-2.4-0.8-3.1-1.9-1-0.2-0.6 0.1-0.9 0.7-0.5 0.1-0.6-0.1-1.2-0.3-0.6 0-0.6 0.1-1.4 0.6-1 0.8-0.3 0.1-0.4-0.2-0.6 0-4.7 0-1 0.2-0.9 0.3-0.9 0.2-1.2-0.3-0.7 0-0.4-0.1-2.7-0.5-2.4-0.1-2.2 0.3-0.6 0-0.4-0.1-0.4-0.1-0.9-0.6-1.4-0.7-3.2-1-5.1-2.8-0.3-0.3-0.4-0.3-0.9-1.3-0.4-0.5-0.5-0.6-2-1.4-0.6-0.6-1.7-2.6-2.3-1.5-1.5-0.5-0.7-1-1.1-0.5-0.5-0.7-0.6-0.9-3.7-2.9-2.3-2.5-0.8-1.1-0.8-0.7-0.8-0.6-0.6-0.7-0.5-1-0.6-0.6-1.8-1.3-0.6-0.6-0.4-0.7-0.6-2-0.1-0.4-1.1-1.6-1-1-0.5-0.8-0.3-0.7-0.5-1.9-0.5-1.3-0.5-0.7-0.6-0.7-1.7-1.3-0.5-0.7-0.5-0.9-0.6-0.9-1.1-1.2-2.1-0.3-5.3 0.7-5.6-1.2-3-1.3-2.1-0.5-1.9 0.1-1.5 0.9-1.2 0.9-0.4 1.3 0 1.4 0.7 3-0.4 1.1-1.3 0.6-4.4-1-2.6-0.2-2.2 0.1-4.6 1.7-0.8 0.1-0.7-0.3-0.9-0.5-0.8-0.3-0.3-0.3-0.2-0.3-0.2-0.4-0.8-1-0.2-0.3-0.1-0.4 0-0.3-0.1-0.4-0.2-0.3-0.2-0.3-0.4-0.3-0.5-0.6-0.2-0.3-0.4-1.5-1-1.3-0.2-0.6-0.1-0.4-0.3-0.7-0.2-0.3-0.4-0.6-0.1-0.3-0.1-1.1-0.2-0.7 0-0.4 0.1-0.3 0.1-0.3 0.2-0.3 0-0.4 0-0.3-0.4-0.6-0.1-0.3-0.1-0.4 0.1-0.7-0.1-0.3-0.3-0.6-0.4-1.1-0.3-0.6-0.1-0.3 0-0.4 0.1-0.3 0.3-0.6 0.2-0.4 0-0.3-0.1-0.4-0.5-0.9-0.5-0.7-0.5-0.4-0.3-0.4-0.2-0.3-0.4-1.1-0.2-0.2-0.6-0.8-0.1-0.3-0.1-0.3 0-0.9-0.1-0.1-0.1-0.3-0.3-0.5-0.9-1.1-0.7-0.8-2.1-1.3-0.3-0.3-0.7-1.4-0.7-0.7-0.5-0.2-0.6-0.1-0.6-0.4-4.1-3.3-1.5-0.6-2.1-0.4-2.6-0.9-8.3-3.9-2.3-0.5-1.5 0.3-1.8-0.1-2.1-0.5-15-8.4-2.1-0.7-0.3-2.2-0.2-1 0.2-1.2 1-2.8-0.3-1.6-0.5-1.6-0.3-1.6 0.8-1.4 1.1-1.2 1.3-0.9 0.8-0.5 2.9-1.2 1.2-1.1 0.4-1.8-0.5-2.8-1.5-3.9-0.4-1.5 1.2-3.1 0-1.2 1.3-1.1 1.7-1.1 1-1.1 1.1-1.9 2.2-3 0.3-2-1.1-3.4-0.3-1.4 0.4-1.4 1.6-0.8 6.4-5.3 1.1-1.3 0.5-2 0.1-1.4 0.8-1.7 4.1-4.6 1.1-1.5 0.8-1.5 0.4-1.2-0.2-1.8 1.1-2.4 5.6-5.5 1.5-1.1 3.5-1.5 1.8-1.2 2.2-1.9 3.5-2 1-1.1 0.4-1.2-0.2-0.9-0.4-0.8 0-0.7 0.2-0.8 1-1.3 2.1-2.2 1.8-1 0.5-0.3 2.6-3.2 0.9-1.5 0.4-1.6 0.1-0.7-0.2-0.7-1.2-2.6-0.1-1.8 0.7-1.7 1.4-2 1.6-3.2 0.8-1.2 1.7-1.1 1.2-0.9 0.6-1.8-0.3-1.4 0.1-1.3 0.7-0.7 1.1-0.3 2.1-0.2 1.3-0.7 1.2-1.3 0.7-2 0.5-3.3 0.4-1.6 0.7-1.4 2.4-3.2 0.9-0.9 1-0.8 1.5-0.3 3.1-1.1 1-0.6 0.3-0.5 0.9-0.9 0.4-0.2 0.3-0.2 0.8-0.1 0.8 0 0.4 0.1 0.4 0.1 0.6 0.4 0.3 0.1 0.3 0.1 3 0 0.7-0.1 0.5-0.1 3.6-1.9 0.5-0.3 0.7-0.7 1.5-1.1 0.3-0.3 0.4-0.4 2-1.8 0.2-0.2 0.3-0.7 0.2-0.2 0-0.2 0.1-0.4 0.3-0.6 0.8-1 2.6-0.6 1.1 0.1 2.6 1.9 3.3 1.4 0.6 0.1 0.4 0.1 1.1-0.2 2.5-0.8 0.3-0.2 0.4-0.3 2.1-1.8 0.4-0.4 0.5 0 0.2 0.2 0.7 0.4 0.8 0.1 0.4 0.2 0.3 0.1 0.2 0.2 0.1 0.2 0.4 0.9 0.3 0.4 0.4 0.2 1 0.3 0.5 0 0.4 0 0.4-0.2 0.3-0.2 0.2-0.2 0.1-0.1 0.1-0.2 0.2-0.7 0.2-0.3 0.2-0.3 0.4-0.3 0.4-0.1 2 0.1 1.2-0.2 0.6 0 0.4 0.1 0.3 0.3 0.3 0.2 0.7 0.3 0.3 0.2 0.3 0.1 0.5 0.2 1.4 0.3 0.3-0.1 0.6-0.4 0.3-0.3 0.2-0.2 0.2-0.3 0.4-0.5 0.7-0.7 0.5-0.8 0.5-0.4 0.2-0.3 0.3-0.4 0.4-0.3 1-0.4 0.5-0.1 0.4 0.2 0.2 0.3 0.2 0.2 0.3 0.2 1.1 0.3 0.3 0.1 0.2 0.2 0.3 0.3 0.4 0.2 0.5 0.2 1.2 0.3 1.9 0.6 0.3 0.2 0.3 0.3 0.1 0.1 0.3 0.5 0.2 0.2 0.2 0.2 0.3 0.2 1.2 0.1 0.3 0.1 1.2 0.5 0.4 0 0.3-0.1 0.8-0.5 0.7-0.3 0.5-0.1 0.4 0.1 0.9 0.4 0.6 0.3 0.1 0 0.7 0.6 1.2 0.5 0.3 0.2 0.1 0.1 0.2 0.2 0.5 0.8 0.3 0.2 0.5 0.3 0.3 0.2 0.2 0.2 0.2 0.1 0.2 0.1 1.4 0.5 0.6 0 0.7-0.1 0.5 0 0.4 0.1 0.2 0.3 0.3 0.6 0.2 0.3 0.3 0.2 0.6 0.2 3 0.8 0.5 0.3 2 1.3 0.3 0.2 0.7 0.2 1.4-0.2 0.5 0 0.4 0.1 0.7 0.7 0.1 0.3 0.3 0.6 0.8 0.5 0.5-0.1 1-0.1 0.9 0.1 2.7 1 1 0.2 0.9 0.1 0.9 0 0.6 0.1 0.7 0.3 1.2 0.1 5.5 0.3 2.9-0.2 0.2-0.2 0.1-0.2-0.1-0.3 0.1-0.4-0.6-1.2-0.1-0.4 0.1-0.4 0.2-0.4 1.8-1.1 1.2-0.6 0.8-0.5 0.4 0 1.5 0.1 0.4-0.1 0.4-0.1 0.2-0.2 0.6-0.4 0.3-0.3 0.3-0.3 0.1-0.3 0.2-0.2 0.6-0.9 0.1-0.3 0.3-0.3 0.4-0.3 0.7-0.3 0.4-0.3 0.5-0.5 1-1.5 0-0.1 0-0.1-0.2-0.2 0-0.2 0-0.1 0.5-0.2 0.7-0.3 2-0.3 1.5-0.4 3.4-1.7 2.7-0.7 0.4-0.2 1.1-0.7 4.2-0.8 0.3-0.3 0.5-0.7 0.2-0.4 0.2-0.3 0.2-0.2 0.3-0.2 1 0.2 0.4-0.1 0.4-0.2 0.2-0.1 0.3 0.1 0.2 0.2 0.3 0.3 0.2 0.2 1 0.1 1.7 0 0.6-0.1 3.1-1.4 0.9-0.5 1.7-0.6 0.3-0.1 0.7-0.5 0.4-2.2-0.3-0.3-0.1-0.2-0.1-0.4-0.1-0.4 0.1-0.3 0.2-0.7 0-0.2-0.3-0.1-0.7 0-0.3-0.2-0.2-0.2-0.2-0.3 0-0.4-0.1-0.3-0.2-0.3-0.5-0.4-0.2-0.3-0.1-0.3-0.1-0.3-0.2-0.7 0-0.2 0-0.2 0-0.2 0.1-0.3 0.2-0.2 0.4-0.5 0.1-0.3 0.1-0.4 0-2.1 0.2-0.8 0.2-0.3 0-0.4 0.1-0.4-0.1-0.8 0.1-0.4 0.1-0.3 1.4-1.7 0.7-0.7 1.9-1.5 0.5-0.5 0.2-0.5 0-0.4-0.2-2.5 0-0.8 0.1-0.4 0.4-1 0.2-2 0.7-2 1.2-2.1 0.4-0.5 0.4-0.5 0.7-0.1 1.2-0.2 3.9 0.2 10.8-1 1-0.3 0.2-0.3 0.5-0.4 0.5-0.5 0.2-0.1 0.4 0 0.5 0.1 0.6 0.1 1.3-0.1 0.6 0 3.5 0.9 0.4 0.2 0.4 0.2 1 0.7 0.3 0.2 0.5 0.1 0.6 0.1 2-0.1 2.4-0.8 0 1.3 0.1 2.4 0.3 0.4 0.3 0.6 0.4 0.5 0.1 0.2-0.1 0.1-0.3 0.3-0.1 0.2 0.2 2.6-0.2 1.2-0.6 0.6-1.2 0.2-1.7 0.5-2.7 1.1-1.2 0.9-1.5 1.3-1.1 1.5 0 1.1 0.6 1 1.4 4.6 0 2.6 0.2 0.3 0.6 0.4 0.4 0.3 0.2 0.3 0.2 1.2 1.1 1.9 0.4 1.3 0.6 4.5 0.2 1.3-0.3 2.8-0.9 2.8 1.7-0.1 0.4-0.3 0.8-0.5 2.8-3.1 1-0.6 6.5-2.3 1.9-1.6 1.3-3.3 0.5-1.2 0.3-0.8 2.4-0.4 0.1 0.1 4.8 2 2.5 0.9 0.3 0.1 2.1 0.7 2.6 0.2 2.3-0.4 1.4-0.8 1.4-1 1.5-0.8 1.5 0.1 1.4 0.7 0.2 0.2 0.1 0 1.7 1 1.1 0.4 1.1 0.2 1.3 0.5 1.1 0.2 1.7-0.1 0.1 0 0.7 0 0.3 0.1 6.3-1 5.3-0.9 7.2-4 3.7-2.1 0.7-0.4 2.7-0.8 2.6-0.1 2.6 0.2 4 1.1 1 0.3 2 0.6 2.6 0.7 1.2 0.1 0.9 0 0.6 0 0.7-0.1 1.3-0.1 0.3 0.1 2.2 0.2 2.7 0.9 0.8 0.1 1.8 0.4 2.2-0.8 0.4-0.7 0.5-1.5 0.4-0.6 0.6-0.6 1.4-0.8 0.6-0.6 0.6-1.3 0.2-1.6 0.6-1.3 1.2-0.6 0.3 2.4 0.1 0.9 0.5 1.1 1.2 1.9 0.3 1-0.5 1.3-0.2 1.2 0.1 3.7-0.3 2.5 0.3 0.9 1.3 0.2-0.2 9.5 0.3 1.7 2.9 6.4 0 0.8-0.6 0.9-2 1.6-0.7 1-0.2 0.8 0 0.8 0.2 1.6 0 1.1-0.3 0.8-1.8 2.8-1.2 2.6-0.3 1.3 0 1.7 0.5 1.3 0.6 1.3 0.6 1.6 0.3 5 0.3 1.6-0.1 0.7-1.4 3.2-0.4 8.6-0.5 9.4 0.4 2.9 1.4 2.1 1.7 1.7 0.6 1.7 0.3 4.1 0.6 3-0.1 1.2-0.6 1.1-2.2 3.2-2.9 4.4-0.8 1.9-1.2 4.7-1.2 4.9-1.3 3-0.4 2.6 0.6 2.2 1.3 1.9 3.5 3.6 1.5 2 1.1 2.1 0.8 2.4-2.1 0-8.1 0-8.1 0-8.1 0-8.2 0-8.1 0-8.1 0-8.1 0-8.1 0-8.1 0-8.1 0-8.1 0-8.1 0-8.1 0-8.1 0-8.1 0-8.1 0 0 10.1 0 10.1 0 10.1 0 10.1 0 6.1 0 4 0 10.1 0 10.2 0 10.1 0.1 10.1 0 10.2 0 10.1 0 10.2 0 10.2 0 10.1 0 10.2 0 10.2 0 2.7 0 1.4 0 2.1 0 3 0 6.9 0 6.9 0 6.9 0 6.9-0.1 3.1 0.1 0.2 0 4.3 0 4.1 0 1.1 0.1 1.5z" id="AOMOX" name="Moxico">
  </path>
  <path d="M152.3 651.9l2.1-1.4 1.3-0.6 1.8-0.2 5.9 1.1 3.2 1 4.7 0.7 2.8 2 1.5 0.5 1.9-0.4 7-2.8 1.1-0.7 1-1.1 1-0.9 1.7-0.2 12.1 2.7 0.9 1.1 0.1 1.2-0.8 3-0.1 1.6 0.4 1.5 0.8 1.5 2.4 3.2 1.7 3.1 0.8 1.2 1.3 0.7 3.2-0.3 2 0.4 2.4 0.8 1 0.3 2-0.2 0.9 2.2 0.7 1.1 1 1.2 1 1.4 0.4 1.5-0.4 1.8-0.3 0.9-1.1 1.9-0.8 3.8 1.7 5.9-0.4 2.3 0.3 1.3 1.2 1.7 1.3 0.6 1.1 1.3 1 10.8-3.3 6.1-0.7 3.7-0.1 1.6-0.5 1.5-1.3 3.2-1.2 1.7-1.9 1.9-12 8.5-1.4 1.1-1.2 0.3-1.4 0.7-1.3 1.4-0.7 1.9 0.5 4.8-0.1 1.2-1.6 2.4-0.4 1 0 1.4 2.6 4.4 0 1.1-0.6 1-2.4 1.4-1 1.1 0 1.2 1 0.9 3 0.3 1.3 0.6 0.6 1.5 0.4 1.5 1.1 1.1 1.3-0.1 1.5-1 1.4-0.6 1.1 1 0.4 1.4 0.3 4.1 0.8 1.6 1.2 1.2 1.4 1.1 2.2 1 2.2 3.6 0.3 13.7 2.6 5.9-0.1 1.8-0.5 1.7-4.5 8.3-0.6 1.7-0.5 2-0.1 1.6 0.3 1.4 1.6 4.1 0.3 2.2-1.1 2.8-0.4 0.5-0.3 0.2-1.2 0.8-4.3 4.9-1.7 1.5-2.1 1.3-0.4 0.1-0.2 0-0.2-0.2-0.2-0.2-0.2-0.2-0.9 1.5-0.4 0.2-0.4 0.1-0.5 0.1-0.7 0.2-0.4 0.3-1.3 1.6-0.6 0.3-0.6 0.2-0.7 0.1-0.4 0.2-0.4 0.2-0.2 0.3-0.4 0.8-1 1.5 1.3 1.4 0.6 0.5 0.4 0.5 0.4 0.8 0.3 1.5-0.6 2.2-1 1.7-1.5 1.2-1.4 0.9-1.3 1.2-0.8 1.4-0.2 1.7 0.7 1.8 2.8 3.5 7 7.3 1.8 3.3 0.9 3.3-1.6 0.4-0.4 0-0.5-0.3-1 0.2-1.6 0.8 0-0.5-0.7 0.3-0.8-0.1-1.4-0.2-0.7-0.3-0.5-0.7-0.5-0.4-0.8 0.5-1.2-0.9-1.5 0.1-1.4 0.5-7 1.2-0.5 0.2-0.1 0-0.1 0-0.1 0 0 0.1-0.1 0-0.1 0-0.2 0-0.1 0-0.1 0-0.1 0-0.1 0-0.2 0-0.1 0-0.1 0-0.1 0.1-0.1 0.1-0.1 0.1-0.1 0.1-0.1 0.1-0.1 0-0.1 0-0.2 0-0.1 0-0.1 0.1 0 0.1-0.1 0.1 0.1 0.1 0 0.2 0 0.1-0.1 0.1 0 0.1 0 0.1-0.1 0.1-0.2 0.1-0.7 0.2-0.1 0-0.1 0-0.1 0 0 0.1-1 0.2-1 0.5-0.1 0-0.2 0.1-1.5 0.5-0.4 0.6 0 0.5-0.1 0-0.1 0 0 0.1-0.1-0.1-0.1 0-0.1 0-0.1 0 0 0.1 0 0.1 0 0.1 0 0.1-0.1 0.1 0 0.1 0 0.1 0 0.1 0.1 0.1 0 0.1 0 0.1-0.3 0.2-1.2 0.3-0.5 0.3-0.6 0.5-0.1 0.3-0.1 0-0.1-0.1-0.1 0-0.1 0-0.1 0 0 0.1-0.1 0 0 0.1-0.1 0.1-0.1 0.1 0 0.1-0.1 0 0 0.1-0.1 0 0 0.1-0.1 0 0 0.1-0.1 0 0 0.1-0.1 0.1 0 0.1-0.1 0.1 0 0.1-0.1 0.1 0 0.1 0 0.1-1.5 0.5-2.9 1.4-2.3 1.9-1.1 0.6-0.1 0-0.1 0-0.1 0-0.1 0.1-0.3 0-0.1 0 0-0.1-0.1 0-0.1 0.1-0.1 0-0.1 0.1-0.6 0.1-1.6 0.5-2.9 2.6-0.8 0.4-0.1 0-0.1 0 0 0.1-0.6 0.3-0.8 0.1-2.3-0.5-3.9-0.4-1.2-0.4-1.5-0.9-0.7 0-0.2 0.2-0.1 0-0.1 0-0.1 0 0 0.1-0.1 0-0.1 0-0.1 0 0 0.1-0.1 0.1 0 0.1 0 0.1-0.1 0.1-0.8 0.4-1.8-0.1-0.1 0-0.1 0-2.3-0.1-4.7 0.5-0.2-0.3-0.2-0.7-0.3-0.6-0.6-0.3-0.7-0.2-0.7-0.4-0.7-0.4-0.3-0.4-0.3-0.5-0.1-0.6-0.1-0.4-0.5-0.4-0.6-0.2-0.3 0.2-0.3 0.3-0.8 0.2-2.2-0.7-0.7-0.5-0.4 0-0.4 0.2-0.5 0.1-3 0.4-3 0.9-2.7 1.2-1.4 1.1-0.1 0-0.1 0 0 0.1-0.1 0-0.1 0-0.1 0.1-0.1 0-0.1 0.1 0 0.1-0.1 0-0.1 0.1-0.1 0.1-0.1 0-0.1 0-0.1 0 0 0.1-0.1 0-0.1 0.1-0.1 0-0.1 0.1-0.1 0-0.1 0.1 0 0.1-0.1 0.1 0 0.1 0 0.1-0.1 0 0 0.1-2.2 1-0.5 0.4 0-0.1-0.1-0.1-0.1 0-0.1 0-0.1 0-0.1 0-0.1 0-0.1 0.1-0.1 0.1-0.1 0.1-0.1 0.1-0.1 0.1 0 0.1 0 0.1-0.1 0.1-0.1 0.1 0 0.1-0.1 0.1 0 0.1-0.1 0 0 0.1 0 0.1-0.1 0 0 0.1-0.1 0 0 0.2-0.1 0.1 0 0.1-0.1 0-0.1 0.1-0.1 0-0.1 0-0.1 0-0.2 0.1-0.7-0.2-1.2-0.6-0.7-0.1-0.1 0 0-0.1 0-0.4-0.6-0.5-0.3-0.6-0.1-0.9 0-0.9 0.5-2.6 0-9 0.9-5.9 0.5-5.3-0.8-4.8 0-2.1 1.2-0.3 0.3 2.9 0.8 1.2 1.1-2.9-0.2-5.2 0.4-1.8-0.6-6.4 0.5-7.2-2.8-25.7 0.1-1.3 0.3-1.1 1.4-3.1-1.5-3.2-3.1-4.9 0-2.9 1-3.9 0.8-0.6 1.4-0.9 1.3-0.5 0.6 0.4 0.3 1.1 0.7 0.4 1-0.3 3.2-3.2 0.6-1 0.2-0.9 0.1-1.9 0.2-0.9 1.3-1.7 4-2.3 0.8-1.6 0.3-1.9 1.3-5.1 0.7-1.9-0.6-1.7 0.2-2 0.9-3.9 0.6-7.9 0.3-1 0.6-0.9 2.3-2.2 0.4-0.1 1 0.5 0.6 0 0.6-0.7 0.3-1.1-0.1-1.2-0.4-0.9-0.9-0.5-0.7 0.2-0.4-0.1 0.2-1.4 0.7-2.2 1.7-4 0.3-2.4 0.3-0.9 0.6-0.7 0.7-0.7 0.6-0.7 0.4-0.9 0.6-3.7 0-0.9 0.2-0.5 0.4-0.6 0.5 0 0.4 0.1 0.5-0.2 0.5-0.9 0.6-1.9 1.3-2.1 0-1.2-0.3-1.2-0.1-1.3 0.1-0.8 0.5-1.6 1.1-4.9 0.4-5.4 0.3-0.9 1.1-1.7 0.7-2.4 0.7-4.4 0.2-4.3-0.2-2.2-0.7-2.3-0.4-1.1-0.2-0.5-0.1-0.7 0-0.3-0.3-0.7-0.1-0.4 0.1-0.5 0.2 0.1 0.3 0.1 0.6-0.3 0.8-0.1 0.3-0.2 0.2-0.5 0.2-0.6 0-0.7 0-0.5-0.5-1-0.8-0.9-0.4-0.9 1-1.7 0.3-1.5 1.3-1.5 0.3-1 0.2-1 0.4-1 1.1-1.8 0.2-0.7 0.1-2.3 0.2-1.1 0.5-0.8 1.6-0.5 0.3-0.3 0.4-0.3 0.5 0.1 0.9 0.7 0.4 0.3 0.5-0.1 1.1-1.4 0.4-2.4 0.5-7.1-0.3-6.6 0.3-0.8 0.9-1.7 0.2-0.8z m-52.7 206.1l0.1 2.6 0.7 2.5 0.1 0.9-1.5-1.4-0.9-2-2.1-6.7 0.1-1.9 0.6-0.8 1.4-1.2 1.1 0.4 0.2 3.3 0.2 1.5 0 2.8z" id="AONAM" name="Namibe">
  </path>
  <path d="M427.1 759.3l0.7 0.4 0.9 0.1 0.6 0.2 0 0.6-0.2 0.8-0.2 0.9 0.3 0.8 0.8 0.8 1 0.6 2.1 0.6 0.5 0.7 0.3 1.8-0.4 0.8 0 0.4 0.6 0.2 1.8 1.1 0.6 0.7 1.7 1.1 0.6 0.3-0.3 0.3-0.4 0.5-0.2 0.2 0 0.4 0.7 0.3 0.6 0.3 2.4 2.3 0.6 0.3 0.7 0.1 1.4 0 0.6 0.3 0.5 1.5 0.5 0.5 0.3-0.1 0.6-0.2 0.3-0.1 0.9 3.2 0.3 0.6 0.8 1 3.6 2.5 1.8 1.6 8.4 15.1 3 2.8 1.1 1.2 1 2 0.6 2.1 0.2 8.6 1.7 13.1 0.3 8.2-1 4.1-0.7 1.9-1.2 2-4.1 5.1-1.3 5.6-2.9 6.5-0.7 2.4-0.5 4.4-0.1 4.5 0.6 6.9 3.1 14.9-0.3 11.5 5.7 0 16.8 0 16.7 0 7.9 0 8.8 0 16.7 0 3.5 0 0.5 0 0.1 0.4 0.3 0.7 0.4 0.3 0.4 0.3 1.1 2.6 0.1 0.7 0.2 0.1 1.6 0.5 2.2 4.4 0.2 0.7 0.9 0.5 3.4 2.8 0.2 0.5 0.3 1.3 0.4 0.6 0.6 0.6 1.2 0.6 0.6 0.4 3.8 4 0.2 0.3-0.4-0.3-1-0.7-0.2-0.2-0.3-0.2-0.3-0.2-0.3-0.2-0.4-0.3-0.1 0-0.2-0.2-0.3-0.3-0.1-0.1-0.1-0.1 0-0.1-0.1-0.1-0.1-0.1-0.1-0.1-0.2-0.2-0.2-0.1-0.2 0-0.2-0.1-0.1-0.1-0.5-0.5-0.1-0.1-0.1-0.1 0-0.1-0.1-0.1-0.1-0.1-0.1-0.1 0-0.1-0.2-0.1-0.1-0.1-0.1 0-0.4-0.1-0.3-0.2-0.1-0.1 0-0.1-0.1 0-0.1-0.1-0.1-0.1-0.1-0.3 0-0.3 0-0.1 0-0.2 0-0.2 0-0.1 0.1-0.1 0-0.1 0.1-0.1 0-0.1 0-0.1-0.1-0.1 0-0.1 0-0.1-0.1-0.1-0.1 0-0.2 0-0.2 0-0.1-0.1-0.1-0.1 0-0.1-0.1 0 0-0.1 0-0.1-0.1-0.1-0.1-0.1 0-0.1-0.1-0.1 0-0.1-0.1-0.1-0.2 0-0.3 0-0.2 0-0.1 0.1-0.2-0.1-0.2 0-0.1 0-0.2 0-0.3 0-0.1 0-0.1 0-0.2-0.1-0.1 0 0-0.1-0.1 0 0-0.1-0.1-0.4 0-0.1 0-0.1-0.1 0 0-0.1-0.1 0 0-0.1-0.1 0 0-0.1-0.1 0 0-0.1-0.1-0.1-0.1-0.1-0.3-0.2-0.2-0.4-0.2-0.4 0-0.1 0-0.1-0.1 0-0.1-0.1-0.1-0.1-0.1-0.1 0-0.1 0-0.1 0.2-0.3 0-0.1 0-0.1 0-0.1 0-0.1 0-0.2-0.1 0-0.2-0.2-0.1-0.1-0.1-0.1-0.1 0-0.2-0.1-0.1 0-0.1-0.1-0.1-0.1-0.1-0.1 0-0.1-0.1-0.1 0-0.1 0-0.1 0-0.1 0-0.1-0.1-0.1 0-0.1-0.1 0-0.2-0.1-0.1 0-0.2-0.1-0.2-0.1-0.2-0.1 0-0.1-0.1-0.1 0-0.1 0-0.1 0-0.1 0-0.1-0.1 0-0.1 0-0.2 0-0.1 0-0.1 0-0.1 0-0.2 0-0.3-0.2-0.1 0 0-0.1-0.1-0.1 0-0.2 0-0.1 0-0.1 0-0.2-0.1-0.1-0.1-0.1 0-0.1 0-0.1 0-0.1 0-0.1 0.1-0.2 0-0.2-0.1-0.1 0-0.1 0-0.1 0-0.1 0-0.1 0-0.1-0.1 0-0.1-0.1-0.2-0.1-0.2 0-0.1 0 0-0.1-0.1-0.1-0.1-0.1 0-0.1-0.1-0.1-0.1-0.2-0.1-0.2-0.1 0 0-0.1 0-0.1 0-0.1-0.1-0.1 0-0.1 0-0.1 0-0.1-0.1 0-0.1-0.1-0.1 0-0.1-0.1-0.1-0.1 0-0.1-0.1 0-0.1-0.1 0-0.1-0.1-0.1-0.2-0.2-0.2-0.1-0.1-0.1 0-0.1-0.1-0.1-0.2-0.3-0.3-0.2-0.1-0.2-0.1-0.2-27.4 0-26 0-6.7 0-7.5 0-7 0-20.6 0-5.9 0-7.3 0-5.2 0-2.7 0-5.3 0-6.1 0-3.5 0-6.1 0-0.3 0-1.3 0-1.6 0-0.8 0-0.3 0 0 0.1-5 0-3.5 0-0.6 0-1 0-2.1 0-0.3 0-1.2 0-1.8 0-0.7 0-2.7 0-2.2 0-1.2 0-0.5 0-0.6 0-1.2 0-0.7 0-0.1 0-1.8 0-1.7 0-1.1 0-2.3 0-1.6 0-2 0-1.3 0-1.1 0-1.3 0-0.8 0-3.1 0-0.7 0-1.1 0-0.2 0-0.3 0-1.3 0-3.6 0-0.9 0-1 0-0.9 0-1 0-1.5 0-0.4 0-0.7 0-0.2 0-1.8 0-1.1 0-2.1 0-1.3 0-1.6 0-1.6 0-1.9 0-1.4 0-7.8 0-3.1 0-0.5 0-0.2 0-3.6 0-0.7 0-2.5 0-2.5 0-0.9 0-1.6 0-0.6 0-2.2 0-1.5 0-1.1 0-1.4 0-1.5 0-1.9 0-1.1 0-0.5 0-3 0-3 0-2.8 0-1.3 0-5 0-2.2 0-2.2 0-5.6 0-0.2 0-1 0.1-1 0 0.1 0.1 0.1 0.1 0 0.1 0 0.1-0.1 0.1-0.1 0-0.1 0.1-0.1 0 0 0.1 0.1 0.1 0 0.1 0.1 0 0 0.1-0.1 0.1-0.1 0.1-0.1 0-0.1 0.1-0.1 0-0.2 0-0.1 0.1-0.1 0-0.1 0.1-0.1 0-0.1 0-0.1 0-0.1 0-0.1-0.1-0.1 0-0.1 0-0.1 0-0.1 0-0.1 0-0.1 0-0.1 0-0.1 0.1-0.1 0-0.1 0-0.1 0 0 0.1-0.1 0-0.1 0-2.7-0.4-0.5 0.1-1 0.6-0.7 0.2-0.8 0-1.1-0.3-1.4-0.2-1.2-0.4-0.7 0-0.6 0.1-1 0.7-0.8 0.1-1.6-0.3-0.9-0.7-3-4.1-0.8-0.7-6.1-3.4-6.3-3.5-5.7-4.8-5.6-3.1 0.6-1.9-0.5-1.1-1-1-0.8-2.6-1-1-1.4-0.6-1.5-0.2-1.2-0.3-2.3-1.6-1.2-0.4-1.1 0.3-0.9-3.3-1.8-3.3-7-7.3-2.8-3.5-0.7-1.8 0.2-1.7 0.8-1.4 1.3-1.2 1.4-0.9 1.5-1.2 1-1.7 0.6-2.2-0.3-1.5-0.4-0.8-0.4-0.5-0.6-0.5-1.3-1.4 1-1.5 0.4-0.8 0.2-0.3 0.4-0.2 0.4-0.2 0.7-0.1 0.6-0.2 0.6-0.3 1.3-1.6 0.4-0.3 0.7-0.2 0.5-0.1 0.4-0.1 0.4-0.2 0.9-1.5 0.2 0.2 0.2 0.2 0.2 0.2 0.2 0 0.4-0.1 2.1-1.3 1.7-1.5 4.3-4.9 4.1 3.7 1.6 1.7 3.1 2.6 1.5-0.1 3.9-1.5 2.5-1.3 1.9-1.4 1.4-1.5 5.1-6.6 1.9-1.9 1.8-0.6 1.5 0.4 1.3 1.2 1.1 1.1 1 0.7 0.9 0.1 1.2-0.4 1.4-1 2.2-2.8 1.1-1.2 1-0.5 3.1-0.7 5.8-2.1 6.8-3.8 1.2-0.9 7.7-8.3 0.9-0.7 1.2-0.8 2.9 0.2 1.5 0.3 3-0.1 1.6-0.2 3 0.3 9 2.2 7.2 2.4 2.8 1.9 0.9 1.1 0.8 1.6 0.7 2.9 5.8 1 1.3-0.3 1.3-1 1.8-3.1 3.4-4.1 5.4-11.1 3.1-3.9 5.3-9.4 5.2-5.9 4.8-2.8 1.8-0.6 4.6-2.4 1.9-0.4 5.4-0.5 0.8 0 2.2 0.8 1.5 0.4 11.1 0.1 2.7-0.6 2.1-0.3 5 0.1 1.4-0.8 7.9-9.1 1.4-2.1 3.3-1.9 5.9-2.1 2.3-0.4 2 0.1 3.2 0.6 7.5 0.1z" id="AOCNN" name="Cunene">
  </path>
  <path d="M297.5 143l1.1 2.8 4.8 7.1 0.9 2.2 1.5 6.3 0.8 2.2 3.2 3.4 1.2 1.1-0.4 2-2.4 3.2-0.3 0.4-1.6 1.1-0.3 0.4-2.8 4.3-0.2 0.3-2.6 3.6-0.7 1.5-0.4 1.1-0.9 0.7-4.1 2-2.6 0.9-3.9 0.8-5 0-1 1.1-1.4 2-0.3 0.2-0.3 0.2-4.2 1.6-0.5 0-0.5 0-1.1-0.2-0.4 0-0.8 0.1-0.4 0-0.7-0.2-0.4 0-0.3 0.1-0.3 0.1-0.7 0.4-2.6 1.9-0.8 1-0.4 0.7-0.1 0.3-0.2 0.3-0.6 0.7-0.2 0.4-0.3 0.5-0.7 2.1-0.6 0.5-5.8 2.9-3.6 0.9-2.7 0.7-2.2 1.1-0.9 0.6-0.2 0.2-0.5 0.7-0.2 0.2-1 0.6-0.4 0.2-0.3 0.3-0.4 0.5-0.7 0.7-0.5 0.2-0.8 0.1-3.5 0-0.7-0.1-0.4 0-0.5 0.1-1.8 0.3-1.2 0.7 1.9 3.6 1.7 4.9 1.2 1.9 1.4 1.6 1.2 1 0.9 1.2-0.1 1.4-3.1 4.6-0.7 1.8 0 2.3 1.9 4 1 1.5 2.3 2.3 0.7 1.1 0.1 0.7 0 0.3-0.2 0.5-0.8 0.2-0.4 0.5-1.1 1.2-0.3 0.2-0.5 0.2-0.8 0.2-1.3 0-0.4 0-1.4 0.5-0.6 0.9-1.3 3.5-0.5 0.4-0.6 0.3-1.5 0.7-0.4 0.1-0.2 0.3-0.5 0.4-0.9 0.4-0.3 0.1-0.3 0.2-0.2 0.2-0.5 0.2-0.6 0.2-2.3 0-0.8 0.1-1.4 0.4-0.5 0.4-0.5 0.3-0.4 0.4-0.5 0.2-7.5 2.2-0.8 0.1-1.6 0-0.7-0.2-0.5-0.2-0.2-0.2-0.9-0.5-0.3-0.2-1.2-1.1-0.6-0.3-0.5-0.1-0.7 0.1-2.4 0.5-1.6 0.5-0.8 0.4-0.7 0.5-0.3 0.4-0.1 0.3-0.1 0.2-0.1 0.3-0.3 0.2-0.4 0.1-0.6-0.1-0.4-0.1-0.3-0.1-0.4-0.3-0.2-0.1-0.3 0.1-1.7 1.2-0.4 0.4-0.5 0.4-0.6 0.3-1.2 0.5-1.7 0.4-3.2 0.4-0.3 0.1-0.1 0-7.1-16-3-7.5-1.9-6.6-1.8-2-0.9-1.1-1.3-1.5 0.4-2.3-0.4-1.7-1.1-13.1-0.6-2-0.1-1.1-0.1-0.3-0.2-0.2-0.1-0.3 0.1-0.3 0.5-0.5 0.2-0.3 0.1-0.7 0.2-0.2 0.1-0.2-0.3-0.5-1.9 1.2-1.3-0.6-4.8-6.6-5.6-5.2-4.6-6.7-6-10.9-2.4-5.6-1.7-3.7-1.7-2.4-1.6-2.2-1.7-2.3-2.6-4.7-0.3-2.2 1-1.2 1.5-0.4 1.4-0.8-0.5 1.1-0.1 1.8 1.4-0.1 2.3-0.7 3.3-0.1 4.2-0.9 2-1.3 1.5-0.5 2-0.3 3.4-1.8 0.8-0.4 1.6 0 1.4 0.5 1.6 0.6 1.7 0.2 1.9-0.5 3-0.6 2.9-1 1.4-1 2.9-1.3 1.2-1.7 1.3-1.6 0.4-1.2 0.9-0.8 1.6-0.3 1.3-0.2 1-0.5 1.2 0.1 2.4 0.3 0.4-0.1 0.1 0.1 0.1 0.2 0.1 0.2 0.1 0 0.1 0 0.1 0.1 0.1 0 0.1 0 0-0.1 0.1 0 0.1 0 0.1 0 0-0.1 0.2-0.1 0.3-0.1 0.1-0.1 0.2-0.1 0.1-0.1 0.1 0 0-0.1 0.1-0.1 0-0.1 0.2-0.1 0.1-0.1 0.1-0.1 0.2-0.1 0.2 0 0.2-0.1 0.3-0.1 0.2-0.1 0.2 0 0.1 0 0.1-0.1 0.1 0 0.1 0 0.2 0 0.1 0 0-0.1 0.1 0 0.1 0 0.1 0 0.1 0 0.1 0 0.1 0 0-0.1 0-0.1 0.1-0.1 0.1 0 0 0.1 0.1 0 0.1 0.1 0-0.1 0.2-0.1 0-0.1 0.1 0 0-0.1 0.1 0.1 0.1 0 0-0.1 0.1 0 0.1 0 0-0.1 0.1 0 0.1-0.1 0.2 0 0.1-0.1 1.4 0.1 0 0.1 0.2 0 0.1 0 0.1 0 1.1 0.1 0.1 0 0 0.1 0.1 0.1 0.1-0.1 0.1 0 0.1 0 0 0.1 0.1 0 0.1 0 0.1 0.1 0.1 0 0 0.1 0.1 0 0.1 0 0.1 0.1 0.1 0 0.4 0.1 0.4-0.1 0.1 0.1 0.1 0 0.2 0.1 0.1 0.1 0.3 0.2 0.2 0.2 0.1 0.2 0.1 0 0.1 0.1 0.1 0.1 0.1 0 0.3 0 0.2 0.1 0 0.1 0.1 0 0.1 0 0.1 0.1 0 0.1 0.1 0 0.1 0 0.1 0 0.1 0 0.1 0 0-0.1 0.1 0 0 0.1 0.1 0 0 0.1 0.1 0 0-0.1 0.2 0 0.1 0.1 0.1 0.1 0.1 0 0.1 0 0.1 0.1 0.1 0.1 0.1 0.1 0 0.1 0.2 0 0.1 0.1 0.2 0 0.1 0 0.1-0.1 0-0.1 0-0.1 0-0.1 0.1-0.1 0-0.1 0-0.2 0-0.3 0.1 0 0-0.1 0.1-0.3 0-0.1 0.1-0.2 0.1-0.2 0-0.1 0.1-0.1 0-0.1 0.1 0 0.1-0.1 0.2 0 0.1-0.1 0.2-0.1 0.2 0 0.3 0 0.2 0.1 0.1 0.1 0.1 0 0.1-0.1 0.1 0 0.1 0 0 0.1 0 0.1 0.1 0 0.1-0.1 0.1 0 0.1-0.1 0.1 0 0.1 0 0.1 0 0.1 0 0.2 0 0.1 0 0.1 0 0.1-0.1 0.2-0.1 0.1 0 0.2 0 0.2 0.5 0.1 0.2 0 0.1 0.5 0.2 0.3 0 0.3-0.1 0.3-0.1 0.3 0 0.8-0.1 0.7 0 0.2 0.1 0.3 0 0.1 0.1 0.3 0.1 0.4 0.2 0.4 0.2 0.3 0.2 0.4 0.2 0.5 0.1 0 0.1 0.4 0.1 0.8 0.1 0.6-0.1 0.4-0.1 0.6-0.2 0.3-0.1 0.2-0.1 0.5 0.1 0.2 0.1 0.1 0 0.1 0.1 0.4 0.1 1 0.3 0.4 0.3 0.2 0.3 0.2-0.1 0.1 0 0.1 0.1 0.1 0 0.4-0.2 0.7-0.1 0.7-0.3 0.2 0 0.3 0 1 0.3 0.5 0.3 0.4-0.1 0.7 0.1 0.4-0.2 1.4 0.1 0.5-0.2 0.6-1.1 0.4 0 0.4-0.1 1-0.1 0.9-0.1 0.9-0.1 1 0 0.9-0.2 0.5-0.1 0.6-0.2 0.6-0.2 1-0.1 1.3-0.4 0.9-0.2 0.9-0.1 0.8-0.2 1.3-0.2 1.1-0.1 0.9 0.3 1.5 0.9 1 0.3 7.8-0.5 1.5 0.1 3.8 1.4 1.3 0.2 6.8 0.1 0.4 0 0.9 0.2 0.8 0.1 1.3 0.2 1.5 0.2 1.6 0.1 1.2-0.3 0.2 0 0.7-0.1 0.2-0.2 0.5 0.4 0.7 0.1 0.8 0.1 1 0.2 1 0.3 2.3 0.5 2.1 0.4 0-0.4 0-0.3 0.1-0.3 0.5-0.3 0.6-0.2 0.7-0.3 1.4-0.5 0.1-0.1 2.7-0.5 3.7 0z" id="AOZAI" name="Zaire">
  </path>
  <path d="M236 257.2l1.3-3.5 0.6-0.9 1.4-0.5 0.4 0 1.3 0 0.8-0.2 0.5-0.2 0.3-0.2 1.1-1.2 0.4-0.5 0.8-0.2 0.2-0.5 0-0.3-0.1-0.7-0.7-1.1-2.3-2.3-1-1.5-1.9-4 0-2.3 0.7-1.8 3.1-4.6 0.1-1.4-0.9-1.2-1.2-1-1.4-1.6-1.2-1.9-1.7-4.9-1.9-3.6 1.2-0.7 1.8-0.3 0.5-0.1 0.4 0 0.7 0.1 3.5 0 0.8-0.1 0.5-0.2 0.7-0.7 0.4-0.5 0.3-0.3 0.4-0.2 1-0.6 0.2-0.2 0.5-0.7 0.2-0.2 0.9-0.6 2.2-1.1 2.7-0.7 3.6-0.9 5.8-2.9 0.6-0.5 0.7-2.1 0.3-0.5 0.2-0.4 0.6-0.7 0.2-0.3 0.1-0.3 0.4-0.7 0.8-1 2.6-1.9 0.7-0.4 0.3-0.1 0.3-0.1 0.4 0 0.7 0.2 0.4 0 0.8-0.1 0.4 0 1.1 0.2 0.5 0 0.5 0 4.2-1.6 0.3-0.2 0.3-0.2 1.4-2 1-1.1 5 0 3.9-0.8 2.6-0.9 4.1-2 0.9-0.7 0.4-1.1 0.7-1.5 2.6-3.6 0.2-0.3 2.8-4.3 0.3-0.4 1.6-1.1 0.3-0.4 2.4-3.2 0.4-2-1.2-1.1-3.2-3.4-0.8-2.2-1.5-6.3-0.9-2.2-4.8-7.1-1.1-2.8 2.4-0.1 6-0.1 5.9-0.1 6-0.1 5.9-0.1 4.7-0.1 1.3 0 5.9-0.1 6-0.1 5.9-0.1 6-0.1 5.9-0.1 6-0.1 5.9-0.1 6-0.1 5.9-0.1 1.7 0 2.5 0 0.4 0 0.6 0.1 1.4 0 1.3 0 0.8 0.2 0.9 0.4 1.8-0.1 2.7-0.1 0.6 0 3.3-0.1 0.5 0.4 1.1 0.8 1.4 0.8 1 0.1 1-0.1 0.1 0 1 0.1 0.3 0-0.3-0.1-0.4 0-0.2-0.2 1.6-0.4 1.3-0.2 1.2 0 1.1 0.3 2.5 1 0.5 0.3 2.4 1.1 0 0.1-0.2 0.5-0.9 1.1 0 0.4 0.6 0.7 0 0.2 0 0.3 0.1 0.2 0 0.1 0.2 0.1 0.1 0 0.1 0.5 0.3 4.1 0 0.2-0.2 0.4 0.2 0.4 0.1 0 0.4 0 0.2 0 0.3-0.2 0.3-0.1 0.1 0 0.3 0 0.2 0.3-0.5 0.6-0.3 0-0.7 0-0.1 0.3-0.1 0.1 0.1 0.3 0.2 0.3 0.1 0.1 0.5 0.1 0.9 0.1 0.1 0 0.6 0.4 0.3 0.5 0 0.3-0.3 0.3-0.1 0.3 0.2 0.4 0.1 0 0.1 0 0.1-0.1 0.7-0.1 0.2 0.1 0.2 0.4 0.1 0.2 0.2 0.1 1.1 0.1 0.1 0.1 0.3 0.2 0.2 0.2 0.2 0.5 1.2 1.3 0.2 0.4 0.3 0.6-0.1 0.9-0.5 0.8-0.1 0.6-0.3 0.8 0 0.3 0.3 0.4 0 1.4-0.1 0.1-0.2 0.6 0 0.4-0.1 0.4 0.1 0.2 0.3 0.4 0 0.3 0.1 0.5 0.1 0.3 0 0.6 0.2 0.5 0 0.6-0.4 0.2-0.6 0-0.6 0.2-0.1 0.4-0.4 0-0.1 0.4 0 0.1 0 0.1 0.2 0.1 0.2 0-0.1 1.8 0 0.1-0.2 0.4 0.1 0.1 0 0.2 0.2 0.3 0.2 0 0.2 0.1 0.5 0.2 0.4 0 0.3 0 0.2 0.9-0.3 0.6-0.1 0 0 0.1-0.1 0-0.2 0.5-0.3 0.6 0 0.6 1.4 0.1-0.4 0.9 0 0.8 0.3 0.4 0.1 0.2 0.4 0.4 0.2 0.1 0.1 0.1 0.6 0.7-0.1 0.7-0.8 1.3-0.2 1.2 0.2 1 1 2.2 0.3 1.2 0.1 2.4 0.3 1.2 0.5 1.1 3.6 5 0.3 1 0.1 0.9 0.3 0.9 0.7 0.7 0.7 0.3 1.4 0.1 0 0.2 0.2 0.2 0.2 0.1 0.1 0 0.1 0 0.6 0.4 0.4-0.2 0.1 0 0.8 0.6 0.8 1.6 0.5 3.8-0.2 0.2-0.2 0.7 0 0.6 0.6 0.3 0.5 0.1 0.3 0.4 0.1 0 0.2 0 0.3 0.5 0.3 0.5 0.6 1.2-0.2 1-0.5 1.1-0.1 1.5-1-0.3-0.1-0.2-0.2-0.1-0.1 0-0.2 0.1-0.5-0.1-0.1 1.7 1.3 4.3-0.1 3.5 0.4 0.5 0.6 0.4 0.8 0.9 1 1.5 0.2 1 0 1 0.3 0.8 1.7 0.5 1.2 0.9 0.1 0.1 0.5 0.4 0.2 0.1 0.3 0.1 0.5 0.3 0.7 0.7 0.3 0.1 0.1 0.1 0.2 0 0.1 0 0.1 0 0.3 0.3 0.3 1 0 0.7-0.1 0-3.6 1.3-2.4 1.7-0.8 0.8-0.7 1.2-0.2 1.3-0.2 2.4-0.4 1.5-0.8 1.9-1.3 1.4-1.5 0.8-1.5 0.3-1.5 0-1.4-0.3-1.4-0.6-1.5-1-1.3-1.3-6.4-8.9-1.5-3.1-0.9-1.4-1.3-1-1.3-0.6-1.1-0.1-1.4 0.2-10.1 4.1-4.4 3.1-4.2 5.9-4 2.9-1.8 0.6-3.5 0.3-1.9 0.6-2.3 1.3-0.8 1.6-0.2 1.7 0.3 1.5 4.1 12.7 0.5 3.3 0.1 1.5-0.2 1.4-0.4 1.2-1.1 2.4-1.2 5.9-2.8 2.8-1.1 0.6-5 1.6-2.3 1.4-2 0.5-1.7 0.1-4.1-0.7 0.1-2.8-0.3-3.2-1.2-1.1-1.4-0.3-0.7-1 0-1.2 1.1-0.6 0-0.2-0.2-0.3-1-1-1.5-1.3-0.4-0.1-1.3-0.2-1.6 0-3 0.4-1.4 0.6-2.6 1.5-1.5 0.5-1.9 0.1-2.4 0-2.2-0.6-1.3-1.2-0.2-1.6 0.5-1.5 0.1-1.5-1.3-1.6-1.1 0-7.1 0.2-4.3 1.1-1.5 1 0.5 2.1-0.1 0.9-0.1 0.3-0.6 1.2-0.4 1.4 0 0.7 0.1 0.4 0.4 0 0.6-0.2 0.3-0.1 0.3 0.3 0.4 0.4 0.5 0.7 0 0.5 0 0.5-0.4 0.5-0.4 0.6-0.3 1.5-0.2 2.2-0.3 0.9-0.2 0.6-0.3 0.3-0.2 0.9-0.2 0.3-0.3 0.2-0.3 0-0.3 0-0.1 0-0.5 0.8-0.1 0.4-0.2 0.2-0.3 0.1-0.6 0.1-0.4 0.1-0.5 0.5-0.2 0.3-0.1 0.4-0.3 1.2-0.1 0.3-0.3 0.1-0.5 0-0.7-0.3-0.4-0.1-1.2 0-0.6 0.1-0.5 0.2-1.5 0.9-0.5 0.2-0.5 0.1-0.7-0.1-0.4-0.2-0.4-0.2-0.2-0.3-0.2-0.2-0.2-0.3-0.2-0.2-0.6-0.3-0.7-0.2-0.4-0.1-0.5 0-0.4-0.1-0.6-0.3-0.3-0.1-0.3 0-0.5 0.2-0.6 0.4-0.9 0.8-0.6 0.5-0.4 0.6-0.7 2.1-0.4 0.6-0.8 0.9-1.1 1.1-0.1 0.2-0.5 0.4-0.3 0.2-1.7 0.6-1.1 0.2-0.8-0.1-2.1-0.3-1.6-0.5-0.8-0.1-1.9 0.4-1.5-5.7-0.2-2.4 0.2-2.8 0.6-1.8 0.8-1.8 2.8-4.4 0.5-1.5 0.5-10.7-0.7-1.5-0.9-1-3.1-0.9-9.2 2-2.2 0-1.5-0.3-2-0.5-5.1-2.3-1.8-1.2-1.5-1.4-3.8-4.7-4.6-4.4-1-1.4-1.3-1.2-2.1-0.5-13.3-0.3-4.7-0.6z" id="AOUIG" name="Uíge">
  </path>
  <path d="M763.9 304.1l-0.2 0-3.6 2.1-1 1.4-1.4 1.4-1.5 1.1-5.2 0.9-4 1.4-2.1 1.1-1.4 1.2-0.4 0.5-0.4 0.6-1 1.1-1.3 1-8.4 2-4.4 0.1-3.4-0.7-3-0.2-3.6 0.8-1.4 0-1.8 0.2-3.5 1.4-1.8 0.5-2.8 0.3-1.2 0.4-2 1-2.6 1.8-2 2.5-4.7 3.3-3.3 4-2.1 3.5-0.6 1.6-1 3.3-0.9 1.7-1.4 1.7-2.9 1.6-4.4 1.5-10.1 4.6-0.9 0.7-0.8 1.3-0.6 1.4-0.9 3-0.6 1.4-1.3 1.2-2 0.9-3.6 0.6-2.2 0.8-2.8 1.8-10 8.4-1.4 1.3-0.7 0.7-0.6 0.9-0.5 1.8-1.8 13.1-0.4 1.6-0.7 1.8-2.1 3.2-2.9 3.2-4.3 2.7-9.2 2.2-2.3 1.9-1.6 1-2 1.1-6.1 1-2.5 1.3-2.5 2.2-3.4 2.3-4.7 1.4-1.4 0.7-2.1 1.4-3.3 3-1.6 1.1-1.7 0.9-4.5 1.6-6.6 0.8-1.6 0.4-1.8 0.6-2 1.4-2.9 3-1.7 1.3-5.7 2.8-4.8 1-11.8-0.6 1.2 0.5-1.9 0.5-1.2 0.4-1.7-0.4-1.5-0.7-6.6-4.5-3.4-2.9-1.4-1.7-0.9-1.7-0.5-1.6 0.2-1.5 1.1-2.8 0.7-1.3 1.1-1 1.7-2.8 0.6-1.6-0.1-1.3-0.8-1-0.7-0.6-27.9-10.6-6.1-2.3-1.9-0.2-2.5-0.4-1.2-1-0.5-1.2-0.3-1.6-1.7-2.6-1.3-0.8-2.7-0.9-1.2-0.3-0.8-0.4-0.8-0.9-0.6-1.2-0.9-1.1-2.4-1.5-0.8-1.1-0.2-2.9-0.2-1.2-0.2-0.8-1-1.7-1.2-1.7-2.1-4.8-0.3-1.8 0.2-1.6 1.1-1.4 1.5-1.1 1.6-0.8 7.8-2.7 1.1-0.5 0.9-1.3 0.8-3.1 1.4-3.5 0.2-2.2-1.3-6.3 0-1.9 0.1-1.3 0.4-1.9 1-4.9 0.2-11.5-0.5-3.8-1-2-1.2-1.9-0.9-1.9-0.7-2.4-0.1-1.8 0.4-1.8 0.6-1.5 0.9-1.2 0.4-0.8 0.9-1.1-0.6-0.8-0.7-1.6-0.3-1.7 0.1-8.2-1.5-1.2-0.5-0.7 0.3-0.8 0.5-0.8 0-0.2 0-0.5 0-0.7 0.1-0.8 0.6 0.6 3.6 0.9 1.8 0 5.6-2 1.9 0.2 2.2 0.8 0.8-0.1 4.1-2.2 1.1-0.3 2.1 0.3 2 0.9 3.3 2.8 0.5 0.1 1.2 0.3 5.9-0.1-0.2-0.7-0.3-1 0.1-0.6 0-1 0-0.2 0.3-0.6 0.2-0.5 0.1-0.4 1.2-0.7 1-0.3 1.1-0.5 0.6-0.3 1-0.4 1-0.2 0.2 0 4.7 0.2 2.2 0.1 1 0 2.4 1 0.9 0 1-0.3 0.8-0.4 0.6-0.4 0.3 0 0.8-0.1 4-0.1 0.4 0.1 1.3-0.1-0.4-2.4 0.2-1.3 0.7-0.6 4.3 0 0.5 0 5.1 0 4.6 0 0.6 0.4 0.3 1.9 0.4 0.8 1 1.5 2.9 0 8.3 0 8.3 0 8.4 0 8.3 0 1.8 0-0.1-0.1-1.3-5-0.2-1.7 0.1-2 1-3 0.6-2 1.3-4.1 0.2-1.7 0-1.6-0.5-1.7-0.7-1.7-0.6-1.8 0.2-1.7 1.6 0.1 2.9 0.2 1.2-0.3 0.3-0.3 0.7-0.6 0.6-2.6 0.9-1.2 0.1 0 0.1-0.1 1.8-1.5 0.1-2-1.8-4.4-0.5-2.2-0.2-2.1 0.7-10.7 0.7-2.1 0.7-1.2 1.8-2.3 0.5-1-0.2-0.7-1.2-2.6 1.5 0 1.9 0 2.8 0 2.7 0 2.7 0 2.8 0 2.7 0 2.7 0 2.8 0 2.7 0 2.8 0 0.1 0 0.6 0 2 0 2.7 0 2.8 0 2.7 0 2.8 0 2.7 0 2.7 0 3.2 0 0-1 0.3-2.2 0.3-0.9 0.5-1 0.5-0.4 0.8-0.1 3.4 0 5.5-0.1 5.6 0 3.8 0-0.3 0.7-1.3 3.3-1.7 4.7-1 2.7-1.4 3.5-0.4 3.1 0.1 3.1 0 3.3 1.6-0.1 1.5 0 4.7 0 4.8 0 4.7 0 4.7 0 4.8 0 4.7 0 4.8-0.1 4.7 0 2.6 0 2.2 0 4.7 0 0.3 0 4.2 0 0.2 0 4.8 0 0.3 0 4.4 0 4 0 0.8 0 4.7-0.1 4.8 0 2.1 0 1.2 0 0.2 0.1 0 0.2 0.2 0.3 0.4 0.2 0.5 0.3 0.4 0.5 0.7 1.3 0.4 0.8 0.4 1 0.4 0.4 0.3 0.6-0.1 0.6-0.2 0.2 0.1 0.3-0.3 0.4 0 0.1 0.3 0.6 0.4 0.4 0.4 0.5 0.2 0.8 0 0.2-0.1 0.2-0.3 0.6-0.1 0.3 0.1 0.3 0.1 0.1 0.6 0.6 0.1 0.4-0.1 0.9-0.6 1.3-0.2 0.7 0 0.9 0.1 0.4 0.2 0.3 0.2 0.7 0 2.5-0.2 0.5-0.2 0.2-0.8 0.7-0.2 0.4 0 0.4-0.1 0.8-0.1 0.3-0.4 1.1-0.7 0.2-0.2 0.3 0.2 0.7-0.1 0.7-0.3 0.7-0.7 1.4 0 0.9 0 0.2-0.2 0.2-0.2 0.2-0.2 0.2-0.2 0.3 0.1 0.7-0.1 0.3-0.2 0.3-0.8 0.9 0.1 0.3 0 0.8 0.1 0.2 0 0.3-0.1 0.3 0 0.1 0 0.1-0.3 0.1-0.1 0.4 0.1 0.4 0 0.2 0 0.2-0.1 0.1-0.1 0.9 0.6 2.2 0 1-0.2 0.4-0.9 1.3 0 0.1-0.6 0.6 0 0.2 0 0.4 0.1 0.2 0.1 0.1 0.2 0.4 0.2 3.1 0.3 1.2 0.6 0.5 1 0.6 0.1 0 0.6 0.4 0.4 0.3 0.1 0.1 0.3 0.6 0.1 1.6 0.4 1.3 0.8 1.1 1.6 2 0.4 0.8 0.2 1.1 0.1 2.9 0.7 3.1 0.6 1.2 1.9 1.9 0.6 1.2-0.5 0.2z" id="AOLNO" name="Lunda Norte">
  </path>
  <path d="M365.3 296.1l4.1 0.7 1.7-0.1 2-0.5 2.3-1.4 5-1.6 1.1-0.6 2.8-2.8 1.2-5.9 1.1-2.4 0.4-1.2 0.2-1.4-0.1-1.5-0.5-3.3-4.1-12.7-0.3-1.5 0.2-1.7 0.8-1.6 2.3-1.3 1.9-0.6 3.5-0.3 1.8-0.6 4-2.9 4.2-5.9 4.4-3.1 10.1-4.1 1.4-0.2 1.1 0.1 1.3 0.6 1.3 1 0.9 1.4 1.5 3.1 6.4 8.9 1.3 1.3 1.5 1 1.4 0.6 1.4 0.3 1.5 0 1.5-0.3 1.5-0.8 1.3-1.4 0.8-1.9 0.4-1.5 0.2-2.4 0.2-1.3 0.7-1.2 0.8-0.8 2.4-1.7 3.6-1.3 0.1 0 0.1 1.6 0.3 0.9 0.4 0.2 0 0.2 0.3 0.2 0.9 0 0.3 0 0.3-0.3 0.1-0.3 0-0.2 0.5 0.3 0.5 0.1 0.4 0.3 0 0.1 0.8 0 0.3 0.2 0.2 0.5-0.3 0.4-0.8 0.2-0.8 0.4-0.3 0.8 0.1 0.6 0.5 0.4 0.5 0.4 0.6 0.6 0.9 1.5 1.1 3.1 1 1.5 1.2 0.6 0.1 0 0.7 0.4 0.1 0.1 0.1 0 0.9 0.5 1.3 0.9-0.2 1.3 0.3 1-0.1 1.6 0.2 1 0.5-0.2 0.1 0 0.1 0.1 0.4 0.4 0.1-0.1-0.2 0.3 0.9 0.4 0.1 0.1 0 0.1 0.1 0.1 0 0.3-0.5 0.7-0.2 0.5 0.4 0.9 0.3 0.3 0.8 0.7 0.3 0.6 0.3 0.4 1.5 0.2 0.6 0.3 0.1 0.6 0 0.9 0.3 0.6 0.7 0 0.5 0 0 0.4-0.6 0.6 0.5 0.2 0.3 0 0.1 0 0.1 0.1 0.2-0.1 0.1 0 0.7 0.1 0.2 0.8 0 0.3-0.1 0.3 0 0.1 0.1 0.1 0.1 0.1 0.4 0.3 0.1 0 0.6-0.1 0.7 0.8-0.3 0.5-0.6 0.7-0.3 0.9 0.2 0.4 0.3 0.2 0 0.1 0.2 0.3 0.4 0.2 0.2 0.2 0.2 0.4 0.3 0.1 0.1 0 0 0.1 0 0.2 0.1 0.2 0.2 0.5 0-0.1 0.3 0.2 0-0.1 0.4-0.4 0.2-0.1 0.1-0.1 0.4 1.4-0.1 0.6-0.1 0.6-0.2 0.6 0.1 0.1 0.7 0.2 0.8 0.6 0.3 0.4 0.6 0.6 0.4 0.4 0.1 0.2 0.2 0.4-0.1 0.3-0.2-0.1-0.3-0.1-0.1 0-0.3 0.1-0.2 0.7-0.5 0.6-0.1 0.1-0.1 0.2 0 0.3 0 0.2 0.1 0.3 1.2 0.4 0.3 0.2 0.1 0.6 0.3 0.3 0 0.2-0.5 0.8-0.3 0.8 0.5 0.7 1.5 1.2-0.1 8.2 0.3 1.7 0.7 1.6 0.6 0.8-0.9 1.1-0.4 0.8-0.9 1.2-0.6 1.5-0.4 1.8 0.1 1.8 0.7 2.4 0.9 1.9 1.2 1.9 1 2 0.5 3.8-0.2 11.5-1 4.9-0.4 1.9-0.1 1.3 0 1.9 1.3 6.3-0.2 2.2-1.4 3.5-0.8 3.1-0.9 1.3-1.1 0.5-7.8 2.7-1.6 0.8-1.5 1.1-1.1 1.4-0.2 1.6 0.3 1.8 2.1 4.8 1.2 1.7 1 1.7 0.2 0.8 0.2 1.2 0.2 2.9 0.8 1.1 2.4 1.5 0.9 1.1 0.6 1.2 0.8 0.9 0.8 0.4 1.2 0.3 2.7 0.9 1.3 0.8 1.7 2.6 0.3 1.6 0.5 1.2 1.2 1 2.5 0.4 1.9 0.2 6.1 2.3 27.9 10.6 0.7 0.6 0.8 1 0.1 1.3-0.6 1.6-1.7 2.8-1.1 1-0.7 1.3-1.1 2.8-0.2 1.5 0.5 1.6 0.9 1.7 1.4 1.7 3.4 2.9 6.6 4.5 1.5 0.7 1.7 0.4 1.2-0.4 1.9-0.5 1.7 1.6-0.3 0.3-0.6 1.1 1-0.1 1.3 0.6 0.8 0 0.3 0.9 0.9 1.1 0.4 2 1.1 1 0.5 0.9 0.4-0.5 0.5 0.7 0.7 0.5 1.5 0.6 0.9-0.9 0 0.9 0.3 0.8 0.6 0.4 0.9 0.2-0.3 0.3-0.3 0.4-0.3 0.2 0.9 0.7 0.4 0.2-0.6 0.3-0.4 0.4-0.1 0.5 0.2 0.7-0.4 0-0.6 0.3-0.3 0.1 0.8 0.8 0 0.4-1.3 0.6-0.4 0-0.3-0.3-0.4-0.2-0.4 0.5-0.2 0.5 0.3 0.3 0.4 0.2 0.2 0.4 0.2 3.7 0.4 1.7 0.7 1.8 0.9 1.6 1.1 1.3 2.4 2.2 1.2 1 1 1.2 0.8 1.5 0.6 1.7 0.1 1.8-0.8 3.2-0.2 1.8 0.4 1.8 1.9 3.4 0.4 1.7-0.4 1.8-0.6 1.3 0 1.2 1.4 1.6 0.6 0.4 0.5 0.4 0.6 0.6 0.4 0.9 0.3 1 0 1.4 0.2 1.4-0.5 1-1.2 0.4-2.8-0.3-1.5 0-3.3 0.6-6.9 2.6-3.4 1.8-1.3 0.9-4.4 4.5-1.3 0.9-1.5 0.4-1.6 0.1-3.2-0.2-3.3-0.8-1.7 0.1-4.9 1.3-0.6 0.1-0.7 0.2-0.5 0-0.4 0-1.1-0.3-1.5-0.2-0.2 0-0.6-0.2-0.5 0-0.7 0.2-1.2 0.6-0.6 0.2-0.5 0-0.3-0.1-0.2-0.2-0.3-0.3-0.2-0.4-0.1-0.3-0.1-0.3-0.2-0.2-0.3-0.2-0.2-0.2-0.2-0.2-0.2 0-0.2-0.1-0.9 0.1-1.5 0.5-0.5 0.1-0.6-0.1-0.2 0-0.9 0-0.4-0.1-0.3-0.1-0.3-0.1-0.3-0.2-0.2-0.3-0.2-0.2-0.3-0.6 0-0.2 0-0.4 0.2-2.3 0-0.2-0.1-0.2-0.2-0.6-0.5-0.8-0.5-1.4-0.2-0.3-0.1-0.3-0.4-0.4-1-0.6-1.9-1.7 0.8 4.5 0.2 4.6-0.6 2.1-1.2 1.6-6.2 6.6-1.6 1.1-3 2.5-1.1 0.4-1.2 0.3-1.8 0.5-1-0.5-4.4-2.1-0.3-0.2 0.2-0.5 0.3-1.1 0.2-1.1 0-0.8-0.2-0.7-1.7-3.9-0.3-1.6 0.7-1.5 0.6-0.3 1.7-0.7 0.4-0.4-0.1-1.1-0.8-0.2-1 0.4-0.8 0.5 0.1-0.9-0.1-1.6 0.3-0.5 0.9-0.6 0.4-0.4 0.2-0.4 0-0.9 0-0.5 0.2-0.4-0.3-1.2-2.4-4-0.9-1.2-0.3-0.7-0.1-0.9 0.2-1.3-0.5-1.2-0.4-0.2-0.7 0.1-1-0.1-1.4-0.6-0.5-1.1 0.6-1.2 1.7-1.2 0.4 0.5 0.9-0.7 0.4-0.9 0.1-2.3-0.4-1.3-1.5-2.2-0.7-2.2-1.7-1.7-0.7-1-0.1-1.2 0-2.3-0.3-1.1-1.2-1-3.4-2.1-0.7-1.2-0.6-0.3-3.5 0.5-0.9-0.3-0.9-0.5-1-0.3-0.8 0.2-0.8-2.3-0.6-0.5-1.2 0.5-1.2-0.4-0.6 0.8-0.8 0.7-1.7-0.8-1.3-1-1-0.7-6.9-1.9-1-0.5-1.4-0.6-2.7 1-1.1-0.2-1.4 0.6-1.5-0.2-1.2-0.6-0.8-0.7-1.9-3-0.7-0.6-0.8-0.2-1.8 0-0.7-0.3-0.5-0.6-1.2-2.1-0.5-0.3-0.6-0.2-0.5-0.4-0.2-0.9 0.2-0.5 0.4-0.5 1.2-0.8-0.8-0.7-1-0.5-0.5-0.4-0.5-0.4-0.7-1.7-1.5-1.2-0.4-0.4-0.2-0.4-3.8-4.8-1.6-0.8-0.9-0.7-0.5-0.2-0.4-0.4-0.2-0.9 0.5-2.2-0.1-0.7-2.8-3.6-0.3-0.2-0.4-0.3-0.4-0.3-0.7-0.2-0.8 0-0.5-0.1-0.4-0.3-0.3-0.4-0.5-0.9-0.3-1.2-0.1-2.8 0.4-1.4 0.9-0.8 1-0.5 0.8-0.6-2.5-10-0.9-0.5-0.6-1.2-0.6-4.2-0.2-0.4-0.5-0.6-0.5-0.1-1.5-0.3-0.3-0.2-0.3-0.5-0.8-0.7-0.8-0.9-0.3-1.1-0.2-1.4-0.4-1.2-0.6-1-0.6-0.7-1.2-0.8-1.2-0.4-2.8-0.2-1.4-0.2-1.1-0.4-0.9-0.1-0.8 0.7-1.3-1.1-0.5-0.2-0.9-0.2-0.6 0.2-0.6 0.3-0.8 0.1-0.3-0.2-0.4-0.5-0.5-0.3-0.6 0.3-0.5 0.5-0.5 0.3-0.7 0.3-0.8 0.1-1.2 0-2.1-0.4-1.3-0.1-0.4-0.1-0.9-0.6-0.5-0.2-0.7 0.2-0.2 0.4 0 0.5-0.2 0.7-0.5 0.9-0.6 0.9-0.8 0.7-1 0.3-6.1 0.5-1.3-0.1-1.4-0.4-0.8-0.1-2 1-1.1-0.1-1.2-0.3-1.6-0.1-0.3 0.2-0.2 0.3-0.2 0.3-0.1 0.1-0.6 0-1-0.3-0.5-0.1-5 0.5-1.4 0.6-0.9 0.2-1.1-0.1-0.9-0.3-1 0-1 0.4-0.8-0.6-1.4-0.5-1.3-0.2-0.6 0.2-0.3-0.2-0.7-0.1-1.4 0.1-0.4-0.3-0.8-1.1-0.4-0.4-0.6-0.2-1.2-0.2-0.4-0.1-0.4-0.4-0.2-0.4-0.4-0.4-1.2-0.4-0.1-0.9 1.6-1.9 0.9-1.3 0.5-1.7-0.2-2.3-0.5-1.8-1.4-2.9-0.2-1.2 1.9-2.4 1.6-2-0.8-2.8-3.3-3 0.6-1.1 0.9-0.2 1-0.1 2.8 0.2 2.5-1 1-2.4 0.8-2.7 1.8-1.9 1.4-0.3 2.7-0.1 1.4-0.4 0.6-0.5 1-1 0.6-0.5 0.5-0.1 1.2 0 0.5 0 0.8-0.5 0.8-0.7 0.8-0.5 0.9-0.2 0.7 0.2 1.2 0.8 0.7 0.2 2.5 0 2.6-0.4 0.9-0.4 0.5-0.3 0.6-0.7 0.3-4.3-0.2-2.1 0-1.9 0.1-1.2 0.7-2.3 0.9-6 1.9-6.1 1.4-3 0.4-1.5-0.2-1.4-0.9-1.2-2.9-1.3-1.4-1-1-1.7-0.4-1.2 0.8-2.3 2.5-3.6 0.4-1.3 0-0.9 0.4-1 1.1-0.7 6.6-2.3 1.2-1.1 0.1-1.3-0.3-1.1-0.3-3.7-0.7-3.4 0.1-3.1z" id="AOMAL" name="Malanje">
  </path>
  <path d="M789.7 454.9l-2.4 0.8-2 0.1-0.6-0.1-0.5-0.1-0.3-0.2-1-0.7-0.4-0.2-0.4-0.2-3.5-0.9-0.6 0-1.3 0.1-0.6-0.1-0.5-0.1-0.4 0-0.2 0.1-0.5 0.5-0.5 0.4-0.2 0.3-1 0.3-10.8 1-3.9-0.2-1.2 0.2-0.7 0.1-0.4 0.5-0.4 0.5-1.2 2.1-0.7 2-0.2 2-0.4 1-0.1 0.4 0 0.8 0.2 2.5 0 0.4-0.2 0.5-0.5 0.5-1.9 1.5-0.7 0.7-1.4 1.7-0.1 0.3-0.1 0.4 0.1 0.8-0.1 0.4 0 0.4-0.2 0.3-0.2 0.8 0 2.1-0.1 0.4-0.1 0.3-0.4 0.5-0.2 0.2-0.1 0.3 0 0.2 0 0.2 0 0.2 0.2 0.7 0.1 0.3 0.1 0.3 0.2 0.3 0.5 0.4 0.2 0.3 0.1 0.3 0 0.4 0.2 0.3 0.2 0.2 0.3 0.2 0.7 0 0.3 0.1 0 0.2-0.2 0.7-0.1 0.3 0.1 0.4 0.1 0.4 0.1 0.2 0.3 0.3-0.4 2.2-0.7 0.5-0.3 0.1-1.7 0.6-0.9 0.5-3.1 1.4-0.6 0.1-1.7 0-1-0.1-0.2-0.2-0.3-0.3-0.2-0.2-0.3-0.1-0.2 0.1-0.4 0.2-0.4 0.1-1-0.2-0.3 0.2-0.2 0.2-0.2 0.3-0.2 0.4-0.5 0.7-0.3 0.3-4.2 0.8-1.1 0.7-0.4 0.2-2.7 0.7-3.4 1.7-1.5 0.4-2 0.3-0.7 0.3-0.5 0.2 0 0.1 0 0.2 0.2 0.2 0 0.1 0 0.1-1 1.5-0.5 0.5-0.4 0.3-0.7 0.3-0.4 0.3-0.3 0.3-0.1 0.3-0.6 0.9-0.2 0.2-0.1 0.3-0.3 0.3-0.3 0.3-0.6 0.4-0.2 0.2-0.4 0.1-0.4 0.1-1.5-0.1-0.4 0-0.8 0.5-1.2 0.6-1.8 1.1-0.2 0.4-0.1 0.4 0.1 0.4 0.6 1.2-0.1 0.4 0.1 0.3-0.1 0.2-0.2 0.2-2.9 0.2-5.5-0.3-1.2-0.1-0.7-0.3-0.6-0.1-0.9 0-0.9-0.1-1-0.2-2.7-1-0.9-0.1-1 0.1-0.5 0.1-0.8-0.5-0.3-0.6-0.1-0.3-0.7-0.7-0.4-0.1-0.5 0-1.4 0.2-0.7-0.2-0.3-0.2-2-1.3-0.5-0.3-3-0.8-0.6-0.2-0.3-0.2-0.2-0.3-0.3-0.6-0.2-0.3-0.4-0.1-0.5 0-0.7 0.1-0.6 0-1.4-0.5-0.2-0.1-0.2-0.1-0.2-0.2-0.3-0.2-0.5-0.3-0.3-0.2-0.5-0.8-0.2-0.2-0.1-0.1-0.3-0.2-1.2-0.5-0.7-0.6-0.1 0-0.6-0.3-0.9-0.4-0.4-0.1-0.5 0.1-0.7 0.3-0.8 0.5-0.3 0.1-0.4 0-1.2-0.5-0.3-0.1-1.2-0.1-0.3-0.2-0.2-0.2-0.2-0.2-0.3-0.5-0.1-0.1-0.3-0.3-0.3-0.2-1.9-0.6-1.2-0.3-0.5-0.2-0.4-0.2-0.3-0.3-0.2-0.2-0.3-0.1-1.1-0.3-0.3-0.2-0.2-0.2-0.2-0.3-0.4-0.2-0.5 0.1-1 0.4-0.4 0.3-0.3 0.4-0.2 0.3-0.5 0.4-0.5 0.8-0.7 0.7-0.4 0.5-0.2 0.3-0.2 0.2-0.3 0.3-0.6 0.4-0.3 0.1-1.4-0.3-0.5-0.2-0.3-0.1-0.3-0.2-0.7-0.3-0.3-0.2-0.3-0.3-0.4-0.1-0.6 0-1.2 0.2-2-0.1-0.4 0.1-0.4 0.3-0.2 0.3-0.2 0.3-0.2 0.7-0.1 0.2-0.1 0.1-0.2 0.2-0.3 0.2-0.4 0.2-0.4 0-0.5 0-1-0.3-0.4-0.2-0.3-0.4-0.4-0.9-0.1-0.2-0.2-0.2-0.3-0.1-0.4-0.2-0.8-0.1-0.7-0.4-0.2-0.2-0.5 0-0.4 0.4-2.1 1.8-0.4 0.3-0.3 0.2-2.5 0.8-1.1 0.2-0.4-0.1-0.6-0.1-3.3-1.4-2.6-1.9-1.1-0.1-2.6 0.6-0.8 1-0.3 0.6-0.1 0.4 0 0.2-0.2 0.2-0.3 0.7-0.2 0.2-2 1.8-0.4 0.4-0.3 0.3-1.5 1.1-0.7 0.7-0.5 0.3-3.6 1.9-0.5 0.1-0.7 0.1-3 0-0.3-0.1-0.3-0.1-0.6-0.4-0.4-0.1-0.4-0.1-0.8 0-0.8 0.1-0.3 0.2-0.4 0.2-0.9 0.9-0.3 0.5-1 0.6-3.1 1.1 0-1.6 0.5-2.7 0.7-1.6 0.5-1.6 1.4-3.3-0.1-1.5-0.9-1.5-1.3-1.3-2.2-0.7-3.5-0.8-1.5-0.6-1.5-1.3-3.1-3.2-3-2.4-13.8-8.8-0.6-1.7-0.8-1.5-1-1.2-1.2-1-2.4-2.2-1.1-1.3-0.9-1.6-0.7-1.8-0.4-1.7-0.2-3.7-0.2-0.4-0.4-0.2-0.3-0.3 0.2-0.5 0.4-0.5 0.4 0.2 0.3 0.3 0.4 0 1.3-0.6 0-0.4-0.8-0.8 0.3-0.1 0.6-0.3 0.4 0-0.2-0.7 0.1-0.5 0.4-0.4 0.6-0.3-0.4-0.2-0.9-0.7 0.3-0.2 0.3-0.4 0.3-0.3-0.9-0.2-0.6-0.4-0.3-0.8 0-0.9-0.9 0.9-1.5-0.6-0.7-0.5-0.5-0.7-0.4 0.5-0.5-0.9-1.1-1-0.4-2-0.9-1.1-0.3-0.9-0.8 0-1.3-0.6-1 0.1 0.6-1.1 0.3-0.3-1.7-1.6-1.2-0.5 11.8 0.6 4.8-1 5.7-2.8 1.7-1.3 2.9-3 2-1.4 1.8-0.6 1.6-0.4 6.6-0.8 4.5-1.6 1.7-0.9 1.6-1.1 3.3-3 2.1-1.4 1.4-0.7 4.7-1.4 3.4-2.3 2.5-2.2 2.5-1.3 6.1-1 2-1.1 1.6-1 2.3-1.9 9.2-2.2 4.3-2.7 2.9-3.2 2.1-3.2 0.7-1.8 0.4-1.6 1.8-13.1 0.5-1.8 0.6-0.9 0.7-0.7 1.4-1.3 10-8.4 2.8-1.8 2.2-0.8 3.6-0.6 2-0.9 1.3-1.2 0.6-1.4 0.9-3 0.6-1.4 0.8-1.3 0.9-0.7 10.1-4.6 4.4-1.5 2.9-1.6 1.4-1.7 0.9-1.7 1-3.3 0.6-1.6 2.1-3.5 3.3-4 4.7-3.3 2-2.5 2.6-1.8 2-1 1.2-0.4 2.8-0.3 1.8-0.5 3.5-1.4 1.8-0.2 1.4 0 3.6-0.8 3 0.2 3.4 0.7 4.4-0.1 8.4-2 1.3-1 1-1.1 0.4-0.6 0.4-0.5 1.4-1.2 2.1-1.1 4-1.4 5.2-0.9 1.5-1.1 1.4-1.4 1-1.4 3.6-2.1 0.2 0-0.5 0.3-0.3 0.8 0.7 1.7 0.8 1.3 0 0.2 0.1 0 0.3 0.4 0.4 0.6 0.5 2.8-0.2 2.9-1.6 5.1 0.4 0.1 0.2 0.2 0.2 0.1 0.2 0 0 0.4-0.1 0.2-0.4 0.1 0 0.2 0.1 0.1 0.2 0.1-0.7 1-0.7 2-0.7 4.9-0.7 4.2-0.5 0.4-0.5 2.2-0.6 1.6-0.6 5.2 0.2 3.5-0.1 0.6 0 0.2 0 0.1-0.7 5.2 0 0.3 0 0.2 0.1 0.6-0.1 1.3 0 0.1 0 0.2 0.6 5.4 0 2.7-0.5 2-0.1 0.3-0.1 0.4 0 0.1-0.6 1.2-0.2 0.2 0 0.3-1.2 2.4-0.4 2.3-0.7 1.3-0.1 0.9 0.3 0.6-0.1 0.3 0 0.1 0.2 0.5 0 0.1 0.7 0.5 0.8 0.7 0.6 2.2 0 0.2 0 0.1 0 0.1 0.2 0.7 0.2 1.1 0.5 4 0.7 2.8 1.6 2.6 4.1 4.3 1 2.6 0.4-0.2 0.8-0.4 0.1 0.5 0.3 0.2 0.1 0 0.1 0 0.1 1.2 0.8 1.8 3.7 4.4 0.7 0.4 0.5-0.2 0.1-0.1 0.3 0.1 0.3 0.1 0.5 0.1 0.3 0 0.7 0.7 2.5 1.6 0.9 1 0.5 1.5 0.6 2.3 1.3 3.6 0.6 2.8 0.3 0.9-0.5 2.1 1.2 3 1.1 2-0.1 0.2 0.2 0.4 0.1 0.1 0.3 0.3 0 0.6 0.2 0.7 0.8 1.5-1.3 1.8 0.4 0.6 0.6 0.4 1.9 0.1 0.1 0 0 0.1 0.6 2 0.9 1.2 0 0.1 0.1 0.7 0.1 0.1 0 0.6-0.4 1.3 0 0.7-0.4 1-1.4 2.4-0.5 1.4 0.2 1.4 0.2 0.3 0 0.6 0.1 0 0.6 0.2 0.5 0.7 0.7 1.3 0.2 2.9-0.1 1.3z" id="AOLSU" name="Lunda Sul">
  </path>
  <path d="M320.3 396l0.1 0.9 1.2 0.4 0.4 0.4 0.2 0.4 0.4 0.4 0.4 0.1 1.2 0.2 0.6 0.2 0.4 0.4 0.8 1.1 0.4 0.3 1.4-0.1 0.7 0.1 0.3 0.2 0.6-0.2 1.3 0.2 1.4 0.5 0.8 0.6 1-0.4 1 0 0.9 0.3 1.1 0.1 0.9-0.2 1.4-0.6 5-0.5 0.5 0.1 1 0.3 0.6 0 0.1-0.1 0.2-0.3 0.2-0.3 0.3-0.2 1.6 0.1 1.2 0.3 1.1 0.1 2-1 0.8 0.1 1.4 0.4 1.3 0.1 6.1-0.5 1-0.3 0.8-0.7 0.6-0.9 0.5-0.9 0.2-0.7 0-0.5 0.2-0.4 0.7-0.2 0.5 0.2 0.9 0.6 0.4 0.1 1.3 0.1 2.1 0.4 1.2 0 0.8-0.1 0.7-0.3 0.5-0.3 0.5-0.5 0.6-0.3 0.5 0.3 0.4 0.5 0.3 0.2 0.8-0.1 0.6-0.3 0.6-0.2 0.9 0.2 0.5 0.2 1.3 1.1 0.8-0.7 0.9 0.1 1.1 0.4 1.4 0.2 2.8 0.2 1.2 0.4 1.2 0.8 0.6 0.7 0.6 1 0.4 1.2 0.2 1.4 0.3 1.1 0.8 0.9 0.8 0.7 0.3 0.5 0.3 0.2 1.5 0.3 0.5 0.1 0.5 0.6 0.2 0.4 0.6 4.2 0.6 1.2 0.9 0.5 2.5 10-0.8 0.6-1 0.5-0.9 0.8-0.4 1.4 0.1 2.8 0.3 1.2 0.5 0.9 0.3 0.4 0.4 0.3 0.5 0.1 0.8 0 0.7 0.2 0.4 0.3 0.4 0.3 0.3 0.2 2.8 3.6 0.1 0.7-0.5 2.2 0.2 0.9 0.4 0.4 0.5 0.2 0.9 0.7 1.6 0.8 3.8 4.8 0.2 0.4 0.4 0.4 1.5 1.2 0.7 1.7 0.5 0.4 0.5 0.4-1.8 1.1-0.1 0.4-0.1 0.5 0.1 0.4 0.2 0.4 0.1 0.5 0 0.3-0.2 0.5-1.7 2.5-0.4 0.4-0.2 0.1-1.5 0.4-1.4 0.7-2.5 3.3-1.5 1.3-1.7 1.1-3.6 1.9-2.4 1.5-1.6 1.5-1.2 1.5-3.8 6.3-1.1 1.3-1.3 0.6-1.1 0-0.8-0.1-0.9-0.5-2.3-0.5-3.9 0.3-1.6 0-1.2-0.6-3.5-2.4-2.7 8.9-1.1 2.8-1.3 2.4-4 5.9-1.7 2 0.1 4.6-1 3.3-1.6 3.2-1.7 1.5-6.6 1.8-5 0.8-1.9 0.6-2.2 1.1-5.1 1.8-2.4 2.4-1 4.5 1.6 2.6 0.3 1.2 0 0.6 0.1 0.9 0.2 0.5 0.3 0.4 0.4 0.2 0.4 0.4 0.1 0.4 0 0.3-0.2 0.4-0.2 0.2-0.3 0.6-0.1 0.4 0 0.4 0 1.2 0 0.4-0.2 0.3-0.2 0.2-0.3 0.2-0.4 0.2-0.2 0.3 0 0.3 0.1 0.3 0.5 0.6 0.2 0.3 0 0.4-0.2 0.7-0.1 0.5-0.4 1.4-0.1 1.7 0.1 0.7 0.1 0.4 0.6 0.7-3.2 0-1.5 0.2-1.1 0.8-0.8 0.8-0.6 0.4-0.9 0.3-2 0.4-7.3 2.6-1.8 1.6-1.2 1.6-3.2 7.3-1.4-0.3-1.4-0.9-0.4-1.2-0.6-1.2-1.1-1-5.9-3.1-1.6-0.5-1.5 0.1-2.8 0.9-2.2 0.1-3.9-1.2-2-2.7-1.8-3.6-6.3-8.5-2.2-1.6-1.2-0.2-1.7 0.2-1.5 0.6-3.1 1.9-1.3 1.1-3.2 4.4-4.1 3-3.1-3.9-1.6-1.4-3-1.8-1-1.2-0.4-1.5-0.6-3.2-0.7-1.2-1.3-0.7-1.4-0.2-3.8 0.5-5.5-1-1.5 0-1.8-0.3-3.2-0.9-1-10.6 0.3-7.2 0.3-1.6 0.5-1.1-0.5-0.6 0.1-0.8 0.3-0.8 0.1-0.8 0-3.6 0.1-0.6 0.3-0.8 1.2-1.7 0.2-0.8 0-1.8 1.6-9.5 0.1-3.8 0-4.9-0.3-2.4-0.9-2.2-5.9-8.6-0.5-1.3 0-1.1 0.5-1.1 2-2.4 0.1-1.1-0.4-1.1-0.8-1-2.7-2.3-0.4-0.6-0.3-0.8-6.2-7.5-4.1-3.4-1-1.3-0.3-1.3-0.1-4.4-0.2-1.5-0.6-1.4-1.3-1.8 0.8-2 0.3-0.2 0.2-0.2 0.4-0.2 0.5 0.1 0.8 0.3 0.9 0.7 0.4 0.5 0.3 0.5 0.2 0.2 0.4 0.2 0.8 0.1 0.6 0.2 3.1 1.7 0.8 0.6 0.3 0.6 0.4 0.6 2 2.6 0.5 1.1 0.3 0.2 0.4 0 0.6-0.2 0.2-0.2-0.1-0.3-0.1-0.3 0.2-0.1 0.5 0 1.8 0.7 0.9 0.2 2 0 0.6 0.1 0.7 0.4 0.2 0.3 0.5 0.3 0.8 0 3.8-0.6 1 0 1.2 0.1 1.9 0.6 0.9 0.5 0.7 0.5 0.3 0.4 0.3 0.2 0.2 0.1 0.4 0 0.6-0.2 0.4-0.2 1.3-1.2 2.4-1.3 4.2-3.6 1.5-0.9 1.5-0.7 1.6-0.4 1.5-0.1 1.5 0.1 1.8 0.4 2 0.5 4.9 2.3 1.7 1.4 1.2 1.5 2.8 2.6 4.4 2 1.9-1.9 1.8-2.9 0.5-1.6 0.2-1.3-0.3-3-1.9-1.6-1-1.1-0.8-1.6-0.1-1.4 0.4-1.6 0.6-1.6-0.5-2.4-1.3-3.6-0.2-1.5 0.8-1.9 0.9-1.2 0.6-1.8 0.2-2.3-0.2-4.7-0.6-5.3 2.4 0 1.4 0.3 0.7 0.1 6.9-1.1 0.5-0.2 0.4-0.5 0.5-1 0.4-0.4 0.8-0.1 0.6 0.3 0.7 0.1 0.8-0.5 0.3 0 2.4-0.7 5.1 0.5 0.9-0.6 0.2-0.5-0.2-1.4 0.2-0.7 0.5 0 0.6 0.3 2 0.4 5.2 2.2 0.6 0.2 1 0.1 0.6 0.2z" id="AOCUS" name="Cuanza Sul">
  </path>
  <path d="M219.5 670.7l-2 0.2-1-0.3-2.4-0.8-2-0.4-3.2 0.3-1.3-0.7-0.8-1.2-1.7-3.1-2.4-3.2-0.8-1.5-0.4-1.5 0.1-1.6 0.8-3-0.1-1.2-0.9-1.1-12.1-2.7-1.7 0.2-1 0.9-1 1.1-1.1 0.7-7 2.8-1.9 0.4-1.5-0.5-2.8-2-4.7-0.7-3.2-1-5.9-1.1-1.8 0.2-1.3 0.6-2.1 1.4 0-0.1-0.6-1-0.1-0.4 0.1-0.3 0.1-0.3 0.1-2.1-0.2-1-0.6-2.1-0.2-1.1 0.2-1.1 0.5-1 0.7-0.8 0.9-0.3 1.4-0.1 0.4-0.4 0.4-0.8 0.9-0.9 1.1-0.6 0.8-0.2 0.7-0.4 0.5-1.2 0.1-0.6-0.2-0.5-0.2-0.5-0.1-0.5 0.1-0.4 0.6-0.7 0.2-0.4 0.4-1.1 1.9-1 0.4-0.7 0.2-0.8 0.4 0 0.4 0.2 0.3 0.1 1.3-0.8 0-0.1 1.2-0.5 0.8-0.6 4.2-5.5 1.9-1.4 0.7-0.7 1.1-1.8 4-4.7 0.9-1.8 0-1.7-0.6-1.8-0.9-1.9-0.5-2.2 0.8-1.6 3-3.2 1.5-0.9 4.3-4.1 1.7-0.9 0.5-0.5 1.2-2 0.4-0.5 1.9-1.7 1.1-0.6 1.2-0.2 0.1 0.3 1.4 0.2 0.8 0.4 2.1-2 0.8-0.3 1.1 0.2 1.1 0.9 1.1 0.3 2.4-0.4 1.8-1.5 3-3.1 1.4-1.1 0.6-0.9 0.3-1 0.1-2.8 0.3-1.2 0.5-1.2 1.2-2 4.1-4 0.4 0 0 0.5-0.6 0.2-0.5 0.4-0.1 0.6 0.4 0.6 1-1 1.3-2.1 2.1-2.4 0.6-1 1.6-5.3 1.9-3.9 0.8-2.2 0.7-4.6 0.4-1.1 1-1 0.7-1.1 0.7-1.2 0.5-1.5 1-6.6 0.7-2 0.1-1.4-0.1-1.4 3.2 0.9 1.8 0.3 1.5 0 5.5 1 3.8-0.5 1.4 0.2 1.3 0.7 0.7 1.2 0.6 3.2 0.4 1.5 1 1.2 3 1.8 1.6 1.4 3.1 3.9 4.1-3 3.2-4.4 1.3-1.1 3.1-1.9 1.5-0.6 1.7-0.2 1.2 0.2 2.2 1.6 6.3 8.5 1.8 3.6 2 2.7 3.9 1.2 2.2-0.1 2.8-0.9 1.5-0.1 1.6 0.5 5.9 3.1 1.1 1 0.6 1.2 0.4 1.2 1.4 0.9 1.4 0.3-0.3 8.3 0.2 1.3 2 6.5 0 1.6 1.3 3-1.2 1.7-2.8 0.3-2.3 0.6-1.5 0.7-1.6 0.9-1.3 1-1.1 1.7-3.1 1.9-1.3 1.1-1 1.3 0.3 3.2-0.2 1.7 0.3 1.8 1.7 4.9 0.7 3.2 2.1 4.1 1.5 2.1 0.3 0.9 0.9 4.1 0.3 3.5-0.5 1.4-0.2 1.1-0.3 1.6 0.5 1.6 0.7 1.6 2.1 3.4 1.5 1.6 3.4 2.4 2.1 2.4 2.7 1.5-1.5 4.9-7.1 3.2-1.5 0-2.9-0.4-3.2 2.2-2.5 2.8-1.6 1.3-1.5 0.9-6.4 2.2-2.6 0-5.2-2.2-2.6-1.1-0.8-0.2-2 0.6-0.2 1.7-0.2 1.1-1.1 1.4-4.5 9.1-2 2.9-3.4 1.2-14.3-1.8-2.3 0.1-1.6-0.3-3.2-1.2-1.1-0.1-1.6 0.2-4.8 1.2-3.2-0.1-2-0.2-1.8-0.5-1.5-0.7-2.1-0.6-1.6-0.2-7 2.4z" id="AOBGU" name="Benguela">
  </path>
  <path d="M188.9 268.6l0.1 0 0.3-0.1 3.2-0.4 1.7-0.4 1.2-0.5 0.6-0.3 0.5-0.4 0.4-0.4 1.7-1.2 0.3-0.1 0.2 0.1 0.4 0.3 0.3 0.1 0.4 0.1 0.6 0.1 0.4-0.1 0.3-0.2 0.1-0.3 0.1-0.2 0.1-0.3 0.3-0.4 0.7-0.5 0.8-0.4 1.6-0.5 2.4-0.5 0.7-0.1 0.5 0.1 0.6 0.3 1.2 1.1 0.3 0.2 0.9 0.5 0.2 0.2 0.5 0.2 0.7 0.2 1.6 0 0.8-0.1 7.5-2.2 0.5-0.2 0.4-0.4 0.5-0.3 0.5-0.4 1.4-0.4 0.8-0.1 2.3 0 0.6-0.2 0.5-0.2 0.2-0.2 0.3-0.2 0.3-0.1 0.9-0.4 0.5-0.4 0.2-0.3 0.4-0.1 1.5-0.7 0.6-0.3 0.5-0.4 4.7 0.6 13.3 0.3 2.1 0.5 1.3 1.2 1 1.4 4.6 4.4 3.8 4.7 1.5 1.4 1.8 1.2 5.1 2.3 2 0.5 1.5 0.3 2.2 0 9.2-2 3.1 0.9 0.9 1 0.7 1.5-0.5 10.7-0.5 1.5-2.8 4.4-0.8 1.8-0.6 1.8-0.2 2.8 0.2 2.4 1.5 5.7-1.8 0.6-0.6 0.6-0.3 0.1-0.3 0-0.3-0.2-0.3-0.5-0.2-0.2-0.2-0.2-0.3-0.1-2.7-0.5-0.4 0-1.7 0-0.8-0.1-0.6 0-2.8 0.2-0.4-0.1-1.4-0.4-0.7-0.1-1.7 0-1.1 0.2-2.1 0.9-2.8 1.9-2.5 2.4-0.2 2 0.1 0.5 0.4 1.1 1 1.5 1.8 1.6 1.5 1.9 2.3 6.4 0.3 1.5-0.2 1.6-0.5 1.4-0.8 1.4-1.1 1.3-1.4 1.2-2.2 1.3-2.8 1.1-7.5 2.1-2.2 1.8-0.4 1.3 0.2 0.9 1 0.9 2.3 1.7 0.4 0.6 0.2 0.7-0.1 1.2-0.9 1.8-1.3 1-1.3 0.8-0.9 0.9 0 1.2 1.5 1 3.4 1 1.2 0.9 0.5 1.3-0.3 1.4-0.1 1.1 0.9 1.7 1.1 1.6-0.1 0.5-0.4 1.2-2.1 2.6-0.8 1.5-1.5 5-2.7 6.4 0.7-0.1 1.9 1.7 1.5 3.9 1 1.2 1 0.4 1.7 0 1.5-0.2 0.9-0.4 0.6 0.3 1.2 0.9 0.2 0.2 0.2 0.3 0.3 1.6 0.4 0.4 2.2 0.5 0.4 0.1 0.5 0.1 2.2-0.7 1.5 0.1 1.5 0.4 1.2 0.5 1 0.8 1.8 1.8 0.5 0.5 1.7 0.9 0.5 0.3 1.1 1.2 0.4 0.2 0.5-0.3 0.5-0.3 0.4-0.2 0.4 0 0.6 5.3 0.2 4.7-0.2 2.3-0.6 1.8-0.9 1.2-0.8 1.9 0.2 1.5 1.3 3.6 0.5 2.4-0.6 1.6-0.4 1.6 0.1 1.4 0.8 1.6 1 1.1 1.9 1.6 0.3 3-0.2 1.3-0.5 1.6-1.8 2.9-1.9 1.9-4.4-2-2.8-2.6-1.2-1.5-1.7-1.4-4.9-2.3-2-0.5-1.8-0.4-1.5-0.1-1.5 0.1-1.6 0.4-1.5 0.7-1.5 0.9-4.2 3.6-2.4 1.3-1.3 1.2-0.4 0.2-0.6 0.2-0.4 0-0.2-0.1-0.3-0.2-0.3-0.4-0.7-0.5-0.9-0.5-1.9-0.6-1.2-0.1-1 0-3.8 0.6-0.8 0-0.5-0.3-0.2-0.3-0.7-0.4-0.6-0.1-2 0-0.9-0.2-1.8-0.7-0.5 0-0.2 0.1 0.1 0.3 0.1 0.3-0.2 0.2-0.6 0.2-0.4 0-0.3-0.2-0.5-1.1-2-2.6-0.4-0.6-0.3-0.6-0.8-0.6-3.1-1.7-0.6-0.2-0.8-0.1-0.4-0.2-0.2-0.2-0.3-0.5-0.4-0.5-0.9-0.7-0.8-0.3-0.5-0.1-0.4 0.2-0.2 0.2-0.3 0.2-0.8 2-2.2-3.2-0.8-1.5-0.8-3.2-1-1.4-2.5-2.6-3.9-6.2 0.2-1 0.6-0.9 0.4-1.4-0.5-2.7-1.5-2.9-1.8-2.7-5.1-6.1-0.5-1.3 0.3-1.1 1.5-1.6 0.4-1.1-0.1-1.2-0.4-1.3-0.5-1.1-0.5-0.5 0-0.7-2.1-6.1-0.1-1.3 0.1-3-0.2-1-1.2-2.3-0.3-1.4 0-0.1 2.1-0.9 0.6-0.4 1.3-2.1 1.1-2.5 1.5-2.4 2.3-2.1 1.6-0.7 1.2-0.1 2.4 0.4 1.5-0.2 0.9-0.3 0.9-0.2 1.4 0.2 2.8 0.9 0.5-1.5 1.4-11.8 2.4-3.2 2-3.6 1.3-1.1 1.1-0.5 1.9-0.5 0.2-2.1-0.5-3.1-1.1-4.2-0.9-1.7-1.2-1.2-1.3-0.4-1.2 0.4-1.1 0-0.8-0.1-3-2.5-1.5-0.8-1.2-0.5-3.8-0.6-0.4-0.9-0.8-4.5-0.7-2.1 0.9-0.2 0.6 0.1 0.5-0.1 0.5-0.7 0.2-0.6 0-5-0.3-1.4-0.6-1.6-6-9.5-0.8-0.6-0.9-3-0.6-1.1-0.5-0.8-0.8-1.7-0.4-0.7-1.2-2.5-0.5-3-4.4-7.8-1.8-4.2z" id="AOBGO" name="Bengo">
  </path>
  <path d="M206.9 320.5l3.8 0.6 1.2 0.5 1.5 0.8 3 2.5 0.8 0.1 1.1 0 1.2-0.4 1.3 0.4 1.2 1.2 0.9 1.7 1.1 4.2 0.5 3.1-0.2 2.1-1.9 0.5-1.1 0.5-1.3 1.1-2 3.6-2.4 3.2-1.4 11.8-0.5 1.5-2.8-0.9-1.4-0.2-0.9 0.2-0.9 0.3-1.5 0.2-2.4-0.4-1.2 0.1-1.6 0.7-2.3 2.1-1.5 2.4-1.1 2.5-1.3 2.1-0.6 0.4-2.1 0.9 0 0.1-1.5-1.2-4.9-8.2-1.9-4.4-1.3-1.9-0.3-3.7 2.5-5.1 3.7-4.5 3.2-1.4-1.4 2.1-4.7 4-2.3 5.4-0.5 1.8 0.9 0.8 0.6-0.6 3.7-6.2 0.2-0.7 0.3-0.7 0.8-0.2 0.9-0.1 0.6-0.1 1-0.9 0.7-2.1 0.8-1.4 1.6-1.7 0.4-0.7 0.1-0.8-0.2-1.5 0.3-0.7 1.9-2.1 1.2-0.9 1.1-0.3-3.2 3.2-0.8 1.3 1-0.6 2.1-1 1.2-0.7 0.5-0.1 0.4-0.3 0.2-0.7 0-0.5 0.2-0.3 0.2-0.3 0.5 0 4 0.5 1.6-0.5 0.9-3.4 0.9-2.4 0.2-1-0.3-1-1.9-2.7-0.4-1z" id="AOLUA" name="Luanda">
  </path>
  <path d="M505.7 652.3l-0.7 2.5-1.1 2.5-2.1 1.8-5.5 1.3-0.7 1.4 0 1.4 0.5 1.7 0.1 6.1-0.2 0.6-0.3 0.7-1.4 1.9-0.5 0.6-0.5 0.3-0.3 0.2-0.5 0.2-0.5 0.5-1 1-1 0.8-0.7 0.2-0.3 0.2-0.3 0.1-2.9 2.1-0.4 0.1-0.3 0.2-0.4 0-1.6-0.2-0.4 0-0.3 0.1-2.6 1.1-0.3 0.1-0.4 0-1.7-0.2-0.4-0.1-0.6 0.1-0.6 0.2-1 0.5-0.5 0.4-0.4 0.3-2 3-2.1 2.5-0.4 0.3-2.7 1.8-0.3 0.4-0.2 0.2-0.1 0.4-0.1 0.8 0.2 2.4-0.1 0.6 0 0.4-0.2 0.7-0.3 0.6-2 2.7 0 0.3 0 0.2 0 0.3 0.1 0.3 0.6 0.9-1.1 0.1-1.2-0.1-1.6-0.5-1.7-0.9-3.9-2.7-2.2-0.9-3.4-2.2-2.9-2.5-0.6-1.5-0.8-3.2-0.6-1.5-2-3.3-1-1.1-0.8-0.6-1.4-0.5-1.5-0.1-1.9 0.7-0.6 0.4-1.2 0.6-1.4 0.5-1.5-0.2-1.3-0.5-2.1-1.5-1.4-0.6-1.8-0.2-2.1 0.5-2.1 0.9-2.9 0.3-6.1-0.2-0.7 0.1-1.3 0.6 0.2-11-0.1-0.4-0.2-0.7 0-0.4 0-0.5 0.1-0.5 0.3-0.8 0.6-1.1 0.1-0.4 0.2-0.6 0-1.2 0.4-1.8 0.3-0.7 0.2-1.1 0.1-0.3 0.8-1.6 0.1-0.4 0.8-7.4 0-0.7-0.7-5.8-0.3-1.4 0-1.4 0.6-3.7 0.8-5.6-0.1-3.7-0.3-1.9 0.1-0.8 0.2-0.6 0.1-0.4-0.1-0.6-1.2-6-0.6-8.6-0.1-1.9 0.1-1.3-0.4-2-0.2-3.2 0.3-3.4 0-0.3-0.2-0.2-2.8-1-3.1-1.6-1.5-1.1-1.3-1.3-1-2.2-2.3-2.8-0.8-1.5-0.2-1.7 0.3-1.1 1.1-1 2.1-1.3 0.4-0.5 0.6-0.8 0.3-1.4 0.4-1.8 0-1.9-0.2-1.9-1-2.1-0.7-2-0.8-1.2-0.2-0.8 0-0.7 0.1-0.7 0.2-0.4 0.1-0.3 0.4-0.4 0.7-0.6 1.8-1.2 1.2-0.7 3.8-3.1 0.9-1 1.8-2.9 0.2-1.6 0.6-1.9 0.8-1.2 2-3 0.9-1.2 0.2-0.3 0.3-1.9-0.1-0.8-0.4-1.4-0.3-0.6-0.6-0.6-1-1-0.6-0.6-3.3-2.8-0.4-0.5-0.1-0.4 0-0.9-0.3-1.9-0.3-0.6-0.2-0.3-0.6-0.6-3.4-2.4-0.8-0.7-0.4-0.6-0.2-0.6-0.6-0.5-1.4-1.2-1.2-1.4-0.9-0.9-0.3-0.4-0.1-0.4-0.5-3.2 0-0.5-0.1-0.4-0.1-0.6-0.3-0.6-0.5-1.8-0.7-0.4-1.2-0.6-3.3-0.2-2.4-0.8-7.8-1.5-3.7 1.3-1 0.5-2.8 0.4-2.4 0.3-2-0.2-2.9-0.6-5.3-2.1 1.6-3.2 1-3.3-0.1-4.6 1.7-2 4-5.9 1.3-2.4 1.1-2.8 2.7-8.9 3.5 2.4 1.2 0.6 1.6 0 3.9-0.3 2.3 0.5 0.9 0.5 0.8 0.1 1.1 0 1.3-0.6 1.1-1.3 3.8-6.3 1.2-1.5 1.6-1.5 2.4-1.5 3.6-1.9 1.7-1.1 1.5-1.3 2.5-3.3 1.4-0.7 1.5-0.4 0.2-0.1 0.4-0.4 1.7-2.5 0.2-0.5 0-0.3-0.1-0.5-0.2-0.4-0.1-0.4 0.1-0.5 0.1-0.4 1.8-1.1 1 0.5 0.8 0.7-1.2 0.8-0.4 0.5-0.2 0.5 0.2 0.9 0.5 0.4 0.6 0.2 0.5 0.3 1.2 2.1 0.5 0.6 0.7 0.3 1.8 0 0.8 0.2 0.7 0.6 1.9 3 0.8 0.7 1.2 0.6 1.5 0.2 1.4-0.6 1.1 0.2 2.7-1 1.4 0.6 1 0.5 6.9 1.9 1 0.7 1.3 1 1.7 0.8 0.8-0.7 0.6-0.8 1.2 0.4 1.2-0.5 0.6 0.5 0.8 2.3 0.8-0.2 1 0.3 0.9 0.5 0.9 0.3 3.5-0.5 0.6 0.3 0.7 1.2 3.4 2.1 1.2 1 0.3 1.1 0 2.3 0.1 1.2 0.7 1 1.7 1.7 0.7 2.2 1.5 2.2 0.4 1.3-0.1 2.3-0.4 0.9-0.9 0.7-0.4-0.5-1.7 1.2-0.6 1.2 0.5 1.1 1.4 0.6 1 0.1 0.7-0.1 0.4 0.2 0.5 1.2-0.2 1.3 0.1 0.9 0.3 0.7 0.9 1.2 2.4 4 0.3 1.2-0.2 0.4 0 0.5 0 0.9-0.2 0.4-0.4 0.4-0.9 0.6-0.3 0.5 0.1 1.6-0.1 0.9 0.8-0.5 1-0.4 0.8 0.2 0.1 1.1-0.4 0.4-1.7 0.7-0.6 0.3-0.7 1.5 0.3 1.6 1.7 3.9 0.2 0.7 0 0.8-0.2 1.1-0.3 1.1-0.2 0.5 0.3 0.2 4.4 2.1 1 0.5 1.8-0.5 1.2-0.3 1.1-0.4 3-2.5 1.6-1.1 6.2-6.6 1.2-1.6 0.6-2.1-0.2-4.6-0.8-4.5 1.9 1.7 1 0.6 0.4 0.4 0.1 0.3 0.2 0.3 0.5 1.4 0.5 0.8 0.2 0.6 0.1 0.2 0 0.2-0.2 2.3 0 0.4 0 0.2 0.3 0.6 0.2 0.2 0.2 0.3 0.3 0.2 0.3 0.1 0.3 0.1 0.4 0.1 0.9 0 0.2 0 0.6 0.1 0.5-0.1 1.5-0.5 0.9-0.1 0.2 0.1 0.2 0 0.2 0.2 0.2 0.2 0.3 0.2 0.2 0.2 0.1 0.3 0.1 0.3 0.2 0.4 0.3 0.3 0.2 0.2 0.3 0.1 0.5 0 0.6-0.2 1.2-0.6 0.7-0.2 0.5 0 0.6 0.2 0.2 0 1.5 0.2 1.1 0.3 0.4 0 0.5 0 0.7-0.2 0.6-0.1 4.9-1.3 1.7-0.1 3.3 0.8 3.2 0.2 1.6-0.1 1.5-0.4 1.3-0.9 4.4-4.5 1.3-0.9 3.4-1.8 6.9-2.6 3.3-0.6 1.5 0 2.8 0.3 1.2-0.4 0.5-1-0.2-1.4 0-1.4-0.3-1-0.4-0.9-0.6-0.6-0.5-0.4-0.6-0.4-1.4-1.6 0-1.2 0.6-1.3 0.4-1.8-0.4-1.7-1.9-3.4-0.4-1.8 0.2-1.8 0.8-3.2-0.1-1.8 13.8 8.8 3 2.4 3.1 3.2 1.5 1.3 1.5 0.6 3.5 0.8 2.2 0.7 1.3 1.3 0.9 1.5 0.1 1.5-1.4 3.3-0.5 1.6-0.7 1.6-0.5 2.7 0 1.6-1.5 0.3-1 0.8-0.9 0.9-2.4 3.2-0.7 1.4-0.4 1.6-0.5 3.3-0.7 2-1.2 1.3-1.3 0.7-2.1 0.2-1.1 0.3-0.7 0.7-0.1 1.3 0.3 1.4-0.6 1.8-1.2 0.9-1.7 1.1-0.8 1.2-1.6 3.2-1.4 2-0.7 1.7 0.1 1.8 1.2 2.6 0.2 0.7-0.1 0.7-0.4 1.6-0.9 1.5-2.6 3.2-0.5 0.3-1.8 1-2.1 2.2-1 1.3-0.2 0.8 0 0.7 0.4 0.8 0.2 0.9-0.4 1.2-1 1.1-3.5 2-2.2 1.9-1.8 1.2-3.5 1.5-1.5 1.1-5.6 5.5-1.1 2.4 0.2 1.8-0.4 1.2-0.8 1.5-1.1 1.5-4.1 4.6-0.8 1.7-0.1 1.4-0.5 2-1.1 1.3-6.4 5.3-1.6 0.8-0.4 1.4 0.3 1.4 1.1 3.4-0.3 2-2.2 3-1.1 1.9-1 1.1-1.7 1.1-1.3 1.1 0 1.2-1.2 3.1 0.4 1.5 1.5 3.9 0.5 2.8-0.4 1.8-1.2 1.1-2.9 1.2-0.8 0.5-1.3 0.9-1.1 1.2-0.8 1.4 0.3 1.6 0.5 1.6 0.3 1.6-1 2.8-0.2 1.2 0.2 1 0.3 2.2z" id="AOBIE" name="Bié">
  </path>
  <path d="M291.1 308.5l1.9-0.4 0.8 0.1 1.6 0.5 2.1 0.3 0.8 0.1 1.1-0.2 1.7-0.6 0.3-0.2 0.5-0.4 0.1-0.2 1.1-1.1 0.8-0.9 0.4-0.6 0.7-2.1 0.4-0.6 0.6-0.5 0.9-0.8 0.6-0.4 0.5-0.2 0.3 0 0.3 0.1 0.6 0.3 0.4 0.1 0.5 0 0.4 0.1 0.7 0.2 0.6 0.3 0.2 0.2 0.2 0.3 0.2 0.2 0.2 0.3 0.4 0.2 0.4 0.2 0.7 0.1 0.5-0.1 0.5-0.2 1.5-0.9 0.5-0.2 0.6-0.1 1.2 0 0.4 0.1 0.7 0.3 0.5 0 0.3-0.1 0.1-0.3 0.3-1.2 0.1-0.4 0.2-0.3 0.5-0.5 0.4-0.1 0.6-0.1 0.3-0.1 0.2-0.2 0.1-0.4 0.5-0.8 0.1 0 0.3 0 0.3 0 0.3-0.2 0.2-0.3 0.2-0.9 0.3-0.3 0.2-0.6 0.3-0.9 0.2-2.2 0.3-1.5 0.4-0.6 0.4-0.5 0-0.5 0-0.5-0.5-0.7-0.4-0.4-0.3-0.3-0.3 0.1-0.6 0.2-0.4 0-0.1-0.4 0-0.7 0.4-1.4 0.6-1.2 0.1-0.3 0.1-0.9-0.5-2.1 1.5-1 4.3-1.1 7.1-0.2 1.1 0 1.3 1.6-0.1 1.5-0.5 1.5 0.2 1.6 1.3 1.2 2.2 0.6 2.4 0 1.9-0.1 1.5-0.5 2.6-1.5 1.4-0.6 3-0.4 1.6 0 1.3 0.2 0.4 0.1 1.5 1.3 1 1 0.2 0.3 0 0.2-1.1 0.6 0 1.2 0.7 1 1.4 0.3 1.2 1.1 0.3 3.2-0.1 2.8-0.1 3.1 0.7 3.4 0.3 3.7 0.3 1.1-0.1 1.3-1.2 1.1-6.6 2.3-1.1 0.7-0.4 1 0 0.9-0.4 1.3-2.5 3.6-0.8 2.3 0.4 1.2 1 1.7 1.4 1 2.9 1.3 0.9 1.2 0.2 1.4-0.4 1.5-1.4 3-1.9 6.1-0.9 6-0.7 2.3-0.1 1.2 0 1.9 0.2 2.1-0.3 4.3-0.6 0.7-0.5 0.3-0.9 0.4-2.6 0.4-2.5 0-0.7-0.2-1.2-0.8-0.7-0.2-0.9 0.2-0.8 0.5-0.8 0.7-0.8 0.5-0.5 0-1.2 0-0.5 0.1-0.6 0.5-1 1-0.6 0.5-1.4 0.4-2.7 0.1-1.4 0.3-1.8 1.9-0.8 2.7-1 2.4-2.5 1-2.8-0.2-1 0.1-0.9 0.2-0.6 1.1 3.3 3 0.8 2.8-1.6 2-1.9 2.4 0.2 1.2 1.4 2.9 0.5 1.8 0.2 2.3-0.5 1.7-0.9 1.3-1.6 1.9-0.6-0.2-1-0.1-0.6-0.2-5.2-2.2-2-0.4-0.6-0.3-0.5 0-0.2 0.7 0.2 1.4-0.2 0.5-0.9 0.6-5.1-0.5-2.4 0.7-0.3 0-0.8 0.5-0.7-0.1-0.6-0.3-0.8 0.1-0.4 0.4-0.5 1-0.4 0.5-0.5 0.2-6.9 1.1-0.7-0.1-1.4-0.3-2.4 0-0.4 0-0.4 0.2-0.5 0.3-0.5 0.3-0.4-0.2-1.1-1.2-0.5-0.3-1.7-0.9-0.5-0.5-1.8-1.8-1-0.8-1.2-0.5-1.5-0.4-1.5-0.1-2.2 0.7-0.5-0.1-0.4-0.1-2.2-0.5-0.4-0.4-0.3-1.6-0.2-0.3-0.2-0.2-1.2-0.9-0.6-0.3-0.9 0.4-1.5 0.2-1.7 0-1-0.4-1-1.2-1.5-3.9-1.9-1.7-0.7 0.1 2.7-6.4 1.5-5 0.8-1.5 2.1-2.6 0.4-1.2 0.1-0.5-1.1-1.6-0.9-1.7 0.1-1.1 0.3-1.4-0.5-1.3-1.2-0.9-3.4-1-1.5-1 0-1.2 0.9-0.9 1.3-0.8 1.3-1 0.9-1.8 0.1-1.2-0.2-0.7-0.4-0.6-2.3-1.7-1-0.9-0.2-0.9 0.4-1.3 2.2-1.8 7.5-2.1 2.8-1.1 2.2-1.3 1.4-1.2 1.1-1.3 0.8-1.4 0.5-1.4 0.2-1.6-0.3-1.5-2.3-6.4-1.5-1.9-1.8-1.6-1-1.5-0.4-1.1-0.1-0.5 0.2-2 2.5-2.4 2.8-1.9 2.1-0.9 1.1-0.2 1.7 0 0.7 0.1 1.4 0.4 0.4 0.1 2.8-0.2 0.6 0 0.8 0.1 1.7 0 0.4 0 2.7 0.5 0.3 0.1 0.2 0.2 0.2 0.2 0.3 0.5 0.3 0.2 0.3 0 0.3-0.1 0.6-0.6 1.8-0.6z" id="AOCNO" name="Cuanza Norte">
  </path>
  <path d="M409.2 681.7l0.7 1.5 0.1 0.5 0 0.8-0.2 0.4-0.3 0.7 0 0.7 0.1 0.9 1 2.9 0.1 0.8-0.1 0.7-0.4 1.6-0.4 3.9-0.1 0.3-0.2 0.1-0.2 0.2-0.3 0.1-0.2 0.1-0.2 0.3-0.1 0.4 0 0.4 1 6.1 0.2 0.9 1.1 2.1 0.5 1.7 0 1 0 0.6-0.1 0.4-0.1 0.6 0 0.8 0.2 1.5 0.1 1.2-0.2 0.6-0.1 1 0 5.7 0 0.1 0.3 0.6 0.4 0.8 1.3 1.3 1.6 1 1.7 0.3-0.6 1.1-0.3 0.3 2.1 0.3 0.6 0.2 0.6 0.3 0.6 0.5 0.2 0.4-0.7 0.2-0.7 1.6-0.2 0.5-0.3 0.6 0.2 0.6 2.5 3.2 0.7 1.4 0.3 1.6-0.6 3.8 0.1 1.5 0.4 1 1.5 1.8 0.3 0.7 0.2 0.3 0.5 0.5 0.4 0.7 0.3 1.2 0.2 0.2 0.2 0.1 0.1 0.2-0.2 0.5-1 0.7-0.2 0.5 0.1 1.1 0.6 1.1 2.8 3.3-7.5-0.1-3.2-0.6-2-0.1-2.3 0.4-5.9 2.1-3.3 1.9-1.4 2.1-7.9 9.1-1.4 0.8-5-0.1-2.1 0.3-2.7 0.6-11.1-0.1-1.5-0.4-2.2-0.8-0.8 0-5.4 0.5-1.9 0.4-4.6 2.4-1.8 0.6-4.8 2.8-5.2 5.9-5.3 9.4-3.1 3.9-5.4 11.1-3.4 4.1-1.8 3.1-1.3 1-1.3 0.3-5.8-1-0.7-2.9-0.8-1.6-0.9-1.1-2.8-1.9-7.2-2.4-9-2.2-3-0.3-1.6 0.2-3 0.1-1.5-0.3-2.9-0.2-1.2 0.8-0.9 0.7-7.7 8.3-1.2 0.9-6.8 3.8-5.8 2.1-3.1 0.7-1 0.5-1.1 1.2-2.2 2.8-1.4 1-1.2 0.4-0.9-0.1-1-0.7-1.1-1.1-1.3-1.2-1.5-0.4-1.8 0.6-1.9 1.9-5.1 6.6-1.4 1.5-1.9 1.4-2.5 1.3-3.9 1.5-1.5 0.1-3.1-2.6-1.6-1.7-4.1-3.7 1.2-0.8 0.3-0.2 0.4-0.5 1.1-2.8-0.3-2.2-1.6-4.1-0.3-1.4 0.1-1.6 0.5-2 0.6-1.7 4.5-8.3 0.5-1.7 0.1-1.8-2.6-5.9-0.3-13.7-2.2-3.6-2.2-1-1.4-1.1-1.2-1.2-0.8-1.6-0.3-4.1-0.4-1.4-1.1-1-1.4 0.6-1.5 1-1.3 0.1-1.1-1.1-0.4-1.5-0.6-1.5-1.3-0.6-3-0.3-1-0.9 0-1.2 1-1.1 2.4-1.4 0.6-1 0-1.1-2.6-4.4 0-1.4 0.4-1 1.6-2.4 0.1-1.2-0.5-4.8 0.7-1.9 1.3-1.4 1.4-0.7 1.2-0.3 1.4-1.1 12-8.5 1.9-1.9 1.2-1.7 1.3-3.2 0.5-1.5 0.1-1.6 0.7-3.7 3.3-6.1-1-10.8-1.1-1.3-1.3-0.6-1.2-1.7-0.3-1.3 0.4-2.3-1.7-5.9 0.8-3.8 1.1-1.9 0.3-0.9 0.4-1.8-0.4-1.5-1-1.4-1-1.2-0.7-1.1-0.9-2.2 7-2.4 1.6 0.2 2.1 0.6 1.5 0.7 1.8 0.5 2 0.2 3.2 0.1 4.8-1.2 1.6-0.2 1.1 0.1 3.2 1.2 1.6 0.3 2.3-0.1 14.3 1.8 3.4-1.2 2-2.9 4.5-9.1 1.1-1.4 0.2-1.1 0.2-1.7 2-0.6 0.8 0.2 2.6 1.1 5.2 2.2 2.6 0 6.4-2.2 1.5-0.9 1.6-1.3 2.5-2.8 3.2-2.2 2.9 0.4 1.5 0 7.1-3.2 1.5-4.9 2.9 0.7 8.4-1.7 1.8 0.1 1.9 2.5 0.9 1.9 0.5 1.7 1 8 0.8 1.5 1.3 0.8 3 0 1.4 0.2 1.1 0.5 0.5 1.3 0.2 1.5 0 3.3 0.3 1.3 0.6 0.5 1 0.1 5.1-2.9 1.1-1.2 2.2-2.8 5.4-3 11-12 3-2.5 1.1-0.2 1.2-0.1 0.9 0.5 2.6 2.2 1.6 0.6 1.5 0 2.5-0.5 1-0.8 2.9-3.9 1.3-1 1.8-0.7 2-0.1 2 0.6 5.7 0.2 2.5 0.6 2 0.4 4.3-0.7-0.6 3.7 0 1.4 0.3 1.4 0.7 5.8 0 0.7-0.8 7.4-0.1 0.4-0.8 1.6-0.1 0.3-0.2 1.1-0.3 0.7-0.4 1.8 0 1.2-0.2 0.6-0.1 0.4-0.6 1.1-0.3 0.8-0.1 0.5 0 0.5 0 0.4 0.2 0.7 0.1 0.4-0.2 11z" id="AOHUI" name="Huíla">
  </path>
  <path d="M314.5 560.9l3.2-7.3 1.2-1.6 1.8-1.6 7.3-2.6 2-0.4 0.9-0.3 0.6-0.4 0.8-0.8 1.1-0.8 1.5-0.2 3.2 0-0.6-0.7-0.1-0.4-0.1-0.7 0.1-1.7 0.4-1.4 0.1-0.5 0.2-0.7 0-0.4-0.2-0.3-0.5-0.6-0.1-0.3 0-0.3 0.2-0.3 0.4-0.2 0.3-0.2 0.2-0.2 0.2-0.3 0-0.4 0-1.2 0-0.4 0.1-0.4 0.3-0.6 0.2-0.2 0.2-0.4 0-0.3-0.1-0.4-0.4-0.4-0.4-0.2-0.3-0.4-0.2-0.5-0.1-0.9 0-0.6-0.3-1.2-1.6-2.6 1-4.5 2.4-2.4 5.1-1.8 2.2-1.1 1.9-0.6 5-0.8 6.6-1.8 1.7-1.5 5.3 2.1 2.9 0.6 2 0.2 2.4-0.3 2.8-0.4 1-0.5 3.7-1.3 7.8 1.5 2.4 0.8 3.3 0.2 1.2 0.6 0.7 0.4 0.5 1.8 0.3 0.6 0.1 0.6 0.1 0.4 0 0.5 0.5 3.2 0.1 0.4 0.3 0.4 0.9 0.9 1.2 1.4 1.4 1.2 0.6 0.5 0.2 0.6 0.4 0.6 0.8 0.7 3.4 2.4 0.6 0.6 0.2 0.3 0.3 0.6 0.3 1.9 0 0.9 0.1 0.4 0.4 0.5 3.3 2.8 0.6 0.6 1 1 0.6 0.6 0.3 0.6 0.4 1.4 0.1 0.8-0.3 1.9-0.2 0.3-0.9 1.2-2 3-0.8 1.2-0.6 1.9-0.2 1.6-1.8 2.9-0.9 1-3.8 3.1-1.2 0.7-1.8 1.2-0.7 0.6-0.4 0.4-0.1 0.3-0.2 0.4-0.1 0.7 0 0.7 0.2 0.8 0.8 1.2 0.7 2 1 2.1 0.2 1.9 0 1.9-0.4 1.8-0.3 1.4-0.6 0.8-0.4 0.5-2.1 1.3-1.1 1-0.3 1.1 0.2 1.7 0.8 1.5 2.3 2.8 1 2.2 1.3 1.3 1.5 1.1 3.1 1.6 2.8 1 0.2 0.2 0 0.3-0.3 3.4 0.2 3.2 0.4 2-0.1 1.3 0.1 1.9 0.6 8.6 1.2 6 0.1 0.6-0.1 0.4-0.2 0.6-0.1 0.8 0.3 1.9 0.1 3.7-0.8 5.6-4.3 0.7-2-0.4-2.5-0.6-5.7-0.2-2-0.6-2 0.1-1.8 0.7-1.3 1-2.9 3.9-1 0.8-2.5 0.5-1.5 0-1.6-0.6-2.6-2.2-0.9-0.5-1.2 0.1-1.1 0.2-3 2.5-11 12-5.4 3-2.2 2.8-1.1 1.2-5.1 2.9-1-0.1-0.6-0.5-0.3-1.3 0-3.3-0.2-1.5-0.5-1.3-1.1-0.5-1.4-0.2-3 0-1.3-0.8-0.8-1.5-1-8-0.5-1.7-0.9-1.9-1.9-2.5-1.8-0.1-8.4 1.7-2.9-0.7-2.7-1.5-2.1-2.4-3.4-2.4-1.5-1.6-2.1-3.4-0.7-1.6-0.5-1.6 0.3-1.6 0.2-1.1 0.5-1.4-0.3-3.5-0.9-4.1-0.3-0.9-1.5-2.1-2.1-4.1-0.7-3.2-1.7-4.9-0.3-1.8 0.2-1.7-0.3-3.2 1-1.3 1.3-1.1 3.1-1.9 1.1-1.7 1.3-1 1.6-0.9 1.5-0.7 2.3-0.6 2.8-0.3 1.2-1.7-1.3-3 0-1.6-2-6.5-0.2-1.3 0.3-8.3z" id="AOHUA" name="Huambo">
  </path>
 </g>
 <g id="points">
  <circle class="-17.34939464393278|12.289010151264204" cx="136.4" cy="907.9" id="0">
  </circle>
  <circle class="-11.893314294969631|18.4851702378825" cx="540.4" cy="540" id="1">
  </circle>
  <circle class="-5.073213858765693|23.442098307177133" cx="863.6" cy="90.1" id="2">
  </circle>
 </g>
 <g id="label_points">
  <circle class="Cabinda" cx="147.2" cy="77.1" id="AOCAB">
  </circle>
  <circle class="Cuando Cubango" cx="603.1" cy="831.8" id="AOCCU">
  </circle>
  <circle class="Moxico" cx="669.9" cy="614.7" id="AOMOX">
  </circle>
  <circle class="Namibe" cx="165.7" cy="804.8" id="AONAM">
  </circle>
  <circle class="Cunene" cx="384.3" cy="842.8" id="AOCNN">
  </circle>
  <circle class="Zaire" cx="206.2" cy="186.7" id="AOZAI">
  </circle>
  <circle class="Uíge" cx="341.7" cy="219.7" id="AOUIG">
  </circle>
  <circle class="Lunda Norte" cx="573" cy="349.3" id="AOLNO">
  </circle>
  <circle class="Malanje" cx="414.6" cy="342.9" id="AOMAL">
  </circle>
  <circle class="Lunda Sul" cx="691.9" cy="433.5" id="AOLSU">
  </circle>
  <circle class="Cuanza Sul" cx="317.1" cy="474.9" id="AOCUS">
  </circle>
  <circle class="Benguela" cx="248.1" cy="615.9" id="AOBGU">
  </circle>
  <circle class="Bengo" cx="239.1" cy="293.2" id="AOBGO">
  </circle>
  <circle class="Luanda" cx="204.1" cy="345.5" id="AOLUA">
  </circle>
  <circle class="Bié" cx="466.9" cy="582.5" id="AOBIE">
  </circle>
  <circle class="Cuanza Norte" cx="308.1" cy="341.4" id="AOCNO">
  </circle>
  <circle class="Huíla" cx="307.5" cy="729.3" id="AOHUI">
  </circle>
  <circle class="Huambo" cx="356.8" cy="588.5" id="AOHUA">
  </circle>
 </g>
</svg>