<?xml version="1.0"?>
    
<!--********* Copyright (c) 2024 Pareto Softare, LLC DBA Simplemaps.com ***************************************
************* Free for Commercial Use, full terms at  https://simplemaps.com/resources/svg-license ************
************* Attribution is appreciated! https://simplemaps.com *******************************************-->

<svg baseprofile="tiny" fill="#6f9c76" height="782" stroke="#ffffff" stroke-linecap="round" stroke-linejoin="round" stroke-width=".5" version="1.2" viewbox="0 0 1000 782" width="1000" xmlns="http://www.w3.org/2000/svg">
 <g id="features">
  <path d="M77.3 203.2l6.1 1.5 1.7 5.9-2.2 4.7-5.6-1.9-2-2.5-0.9-3.1 0.5-2.9 2.4-1.7z m62.5 14.6l-7.2 3.6-3.6-0.6-6.8-2.8-7.3-0.8-2.5-2.2-2.4-2.6-3.2-2-5.1-5.3-2.6-1.4-0.4 3.8-1 2.4-3-0.3-3.3-2.3-2-3.4 1.6-6.6 15.4 0.6 5.3-3.9-0.2-3.3-2-2.9-8.1-6.4-2.7-0.9-10.1 0-2.7-1.1-0.9-2.6 1.6-4.3-5.7-12.3 14.8-12.3 0.1 1.4 0.6 1.4 7.2 7 3 1.9 6.8 1.6 6.3 4.3 3.6 1.7 17.6 2.1 0.5 0.2 0.3 2.5 0.7 5-4 13.1 0.5 1.7 0.5 1.6-1 1.5-0.8 1.4-0.1 2.9 0.5 2.8 1.1 7.1 0.4 7 0.3 1.6 0 0.1z m-26.7 8.9l-3.6-0.6-1.5-4.7 0.5-0.5 0.5-0.3 0.6-0.1 0.7 0.1 4.4 3.8-1.6 2.3z" id="AZQAZ" name="Qazax">
  </path>
  <path d="M200.2 172.3l-4.7 2.6-6.2 3-4.1 3.7-2.9 5-8.9-0.2-4.8 3.7 1.9 6 1.9 5.9-1.7 7.2-4.7 4.9-4.7 1.5-4.6 1.3-2.7 3.6-3 4.1-1.7 6.1-2.2-0.5-1.9-2.1 1.3-6.7-0.9-4.8-4.3 0.4-1.5 0.8 0-0.1-0.3-1.6-0.4-7-1.1-7.1-0.5-2.8 0.1-2.9 0.8-1.4 1-1.5-0.5-1.6-0.5-1.7 4-13.1-0.7-5-0.3-2.5-0.5-0.2-17.6-2.1-3.6-1.7-6.3-4.3-6.8-1.6-3-1.9-7.2-7-0.6-1.4-0.1-1.4 23.6-19.6 5-1.7 5 0.2 2.9 1.5 7.5 3.9 2.4 0.5 3.2-0.3 5.1-1.5 2.3 0.4 2.2 2.6 5.1 4.8 22.3 8.7 10.2 2.1 3.6 1.4 0.2 1.3-2.2 1.2-3.6 1.3-3.5 4.3 3.8 5.9 6.4 5.5 3 1.9z" id="AZAGA" name="Ağstafa">
  </path>
  <path d="M200.2 172.3l7.8 4.8 23.1 8.3 7.5 1 3.7-0.4 3.1-1.1 4.1-2.6 0.8 0.5 8.6 4.9 8.7 4.3-4.8 8.2-6.4 6.8-1.7 2.3-1.7 2.3-1.4 3.2-1.1 2.9-7.6 1.7-7.9-0.9-7.7-1-7.5 1.4-2.3 5.8-2.9 6.2-5.1 3.8-5.1 3.6-4.3 3.8-4.7 3.1-2.8 4.9 0.2 6.4-2 8.9 0.6 9.1 0.1 8.9-0.8 9.6-1.2 6.2-3.7 4.1-3.9-1.9-3.7-3-3.6-2.4 0.4-5.6-3.2-4.4-4.8-2-5.8-0.2-4.6-3-0.8-6.7-1-2.2 12-5.9 4.1-4.6 3-8.5-0.3-4.5-2.7-1.5-3.7-0.2-3.2-1.1-2.4-2.5-6.7-8.6-4.1-3.3-1.5-0.5 1.7-6.1 3-4.1 2.7-3.6 4.6-1.3 4.7-1.5 4.7-4.9 1.7-7.2-1.9-5.9-1.9-6 4.8-3.7 8.9 0.2 2.9-5 4.1-3.7 6.2-3 4.7-2.6z" id="AZTOV" name="Tovuz">
  </path>
  <path d="M154.8 271.9l1 2.2 0.8 6.7 4.6 3 5.8 0.2 4.8 2 3.2 4.4-0.4 5.6 3.6 2.4 3.7 3 3.9 1.9 3.7-4.1 1.2-6.2 0.8-9.6-0.1-8.9-0.6-9.1 2-8.9 2.8 3.8 2.9 3.4 1.9 3.4 1 4.2 4.9 8.2 6.6 5.4 5.8 5.7 3.6 6.3-0.6 4.5 0.4 4.9-1 2.4 1 2.3-11 6.8-2.8 13.1 1.9 3.5 2 3.4 1.4 4.1-1.7 4-0.1 5-1.1 4.2-1.5 2.3-0.1 3-1.3 3.7-0.2-0.2-36.2-20.6-9.2-8.6-5-10.7-1.3-2.4-3.2-2.1-1.5-1.7-0.7-2.2-0.3-4.5-0.6-2-2.7-3.4-3.2-2.5-3-2.9-2.2-4.8 0-3.8 0-4.9 3.9-6.9 6.1-5 6.3-3z m5.5 29.9l5.2-4 2.1-5.3-4-2.3-2.3-0.3-2.3 0-2.1 0.6-2 1.4-0.9 2.1-0.3 2.1 0.3 2.1 0.9 2 5.4 1.6z" id="AZGAD" name="Gədəbəy">
  </path>
  <path d="M207.8 364.1l1.3-3.7 0.1-3 1.5-2.3 1.1-4.2 0.1-5 1.7-4-1.4-4.1-2-3.4-1.9-3.5 2.8-13.1 11-6.8 6.3-8.4 6.2-8.9 6.1-5.1 7.4 4 5.8 3.7 5.5 4.2 4.3 2.6 3.6 3-5.1 7.9-5.6 8.4 4 6.3 5.2 4.5 5.2 3.9 0 6.1-7.2 7.9-3.7 10.8-10.9 1.1-10.8-0.8-9.7-1.8-8.8 3.4-1.4 7.3 0 0.1-1 0.3-3.1-0.1-6.6-7.3z" id="AZDAS" name="Daşkəsən">
  </path>
  <path d="M218.5 371.2l0-0.1 1.4-7.3 8.8-3.4 9.7 1.8 10.8 0.8 10.9-1.1 12.1 4.5 13 1.9 6 1 0.1 0 11.3 1.7 16.3-10.2-0.6 3.6-1.1 3.4-1.5 1.2-1.5 1.4-0.8 7.4 1.7 7.3 1.4 6.7 2 5.6 3.6-1.2 3.4-2.7 9.3 0.9 7.8 7.4 4 3.2 1.9 4.1 1.2 2.6 0.8 1.9 3.7 4.2-5.4 0.4-1.2 0.7-3.3 1.9-6.4 1.1-5.7 3-3.4 5.1-4.8 2.8-4.2-3-4.8-2.4-4.3 2.7-3.6 2.2-1.2 0.6-6.5 2.9-6.6 2.4-6.9 1.1-6.7 2.9-10.9 3.8-11.3 1.6-5.4 1.7-5.3 0.6-3.9-4.3-4-3.3-3.1 4.9-2.9 6.7-5.7 5.2-6 4.3-3 2.3-3.3-1.7-7-7-1.2-2.4-7-14.3-3.3-3.8-4.3-2.1-16.2-1.7-4.9-2.2-0.3-2.8-0.2-2 9.9-6.4 25.5 4.2 10.8-1 2.1-1.8 1.1-2.1 1.8-9.4 0.6-1.5 3.4-3 3-4 1.9-5 2.8-13.1 0.1-1.2-0.1-1.2-0.3-1.2-4-5.3-2.2-2.1-2.3-1.2-3.4 0.2-2.2 0.6z" id="AZKAL" name="Kəlbəcər">
  </path>
  <path d="M217.7 465.7l3-2.3 6-4.3 5.7-5.2 2.9-6.7 3.1-4.9 4 3.3 3.9 4.3 5.3-0.6 5.4-1.7 11.3-1.6 10.9-3.8 6.7-2.9 6.9-1.1 6.6-2.4 6.5-2.9-2.1 6.1 1.2 5.2 3.6 2.4 3.2 3 5.3 11.2 2.7 12.7 1.6 6.3 0.6 4 0.3 2.3-0.8 1.7-1.7 3.5-2.1 5.5 0.6 5.4 3.4 1.3 3 1.5 2.7 2.4 6.5-0.8 1.1-1.9 3.6-6.1 0.1-0.1 4.2-1.4 4.3 0.4 2.2 4.4 0.5 3.8 0.2 1.9-6.9 1.2-2.6 2.9-1.6 1.8 2.7 2.9 0.4 2.2 0.4 2.4 0.1 0.6-2.9 4.3-4.3 2.9-6.1 4.3-6.1 4.7-7-0.8-5.9-3.8 1.9-0.9 1.1-1.5 0-1.9-1.1-2.1 0.1-3.4 1.8-1.6 2.3-1.4 1.4-2.6-0.5-3.3-1.9-2.6-2.6-1.7-2.5-0.6-9.8 1-3.1-0.5-2.3-1.7-3.6-5-2.2-1.8-5.4-0.4-10.6 5.5-5.4 1.1-3.4-1.1-2.3-2.2-3.7-6.9-2.2-2.8-2.7-1.5-5.9-1.7-4.8-3.9-6-12.2-4.3-4.2-9.8-2.9-5.1-2.7z" id="AZLAN" name="Lankaran">
  </path>
  <path d="M328.9 581.3l-0.2-0.6-1-1.2-1-0.9-6.7-4.7-3.7-3.9-1.5-3-0.9-3.2-1.1-2.9-2.5-2.1-11.2-5-5-3.9-2.2-6.3 2.1-5.2 4.9-3.1 11.4-2.1 5.9 3.8 7 0.8 6.1-4.7 6.1-4.3 3.8 0.8 3.8 0.6 3.2-0.8 3.3-0.9 2.7 2 1.1 1.7 0.8 1.3-0.5 1.6-1 3.2-2.8 4-3.7 3.6-1 6.2 2.3 4.4 2.9 4.5 0.6 6.6 2.4 5.7 5.3 3.2 5.1 3.7-6.3 3.5-6.1 3.9-5.1 6-4.5 6.5-6.3-3.8-1.7-14.5-4.8-0.5z" id="AZQBI" name="Qubadli">
  </path>
  <path d="M328.9 581.3l4.8 0.5 1.7 14.5 6.3 3.8 4.5-6.5 5.1-6 6.1-3.9 6.3-3.5 5.3 6.9 1.4 5.5 0.1 0.1-0.1 0-2.3 2-2.1 2.4-4 7-0.9 1.2-1.3 1-2.5 1.4-1.2 1-1.9 3-2.6 6.1-2.6 2.4-9 4.6-2.8 2.4-2.1 2.7-4.4 9.1-1.8 2.9-2.1 2.4-2.4 1.9-2.5 1.6-3.4 1.4-2.8 0.2-5.4-11.5-0.6-2.3-0.2-2.4 0.3-2.5 0.5-2.4 0.2-0.6 0.2-0.6 2-6.4 0.4-5.6-0.8-5.7-2-6.5-3.7-3.1-5.2-2.9-4-4-0.1-6.2 3.5-3.3 5.5 0.7 9.4 4.8 1.9-0.3 7.2-5.1 3.3-0.2 1.4-0.6-0.6-1.4z" id="AZZAN" name="Zəngilan">
  </path>
  <path d="M106.6 512.3l-3.4 10.8-2.8 11.9-5.1 8.2-6.9 5-5.5-3.8-0.5-0.7-0.4-0.9-0.5-0.8-1.2-0.3-1.7 0-0.8-0.1-4-2.9-0.6-1.5 1.3-2.4-3.2-2.9-1.9-4-4.7-19.4-1.9-4.4-3.2-2.3 0.6-0.6 0.4-0.9-3.5-0.1-3.4-0.7-0.6-0.3 4.3-7.9 6.4-6.2 6-1.9 3.4-4.1 0-1.2 0.9-0.5 5.8-4.4 5.8-2.1 5.3 2.7 1.1 1.5 10.3 13.2 1.6 3.4 0.7 3.7-0.3 4.7-1.5 7.3 0.6 2.9 3.1 2z" id="AZSAR" name="Şərur">
  </path>
  <path d="M73.2 477.9l0 1.2-3.4 4.1-6 1.9-6.4 6.2-4.3 7.9-2.2-1.3-0.4-0.6-1.8-2.5-1.7-7.7-1.5-2.5 4.4-1.9 7.2-1.4 6.8 0.2 5.3-1.3 4-2.3z" id="AZSAD" name="Sədərək">
  </path>
  <path d="M106.6 512.3l5.7-1.4 4.4-4.1 4.2-1.4 0.9 1.4-1.2 1.3-3.6 5.5-1.9 6.1-1.6 6.2-1.1 5.4 0.9 5.3 2.3 5.3 1.2 5.6-1 2-0.8 2.3 1 2.3 1.1 2.5-0.6 4.5-3.2 2.1-4 1.9-4.1 1.2-3.4-1-3.5-1.5-0.1 0-2.8-6.3-1.3-2-1.4-0.8-1.6-1.9-1.2-2.1-0.5-1.4-0.9-1-0.1-0.1 6.9-5 5.1-8.2 2.8-11.9 3.4-10.8z" id="AZKAN" name="Kangarli">
  </path>
  <path d="M121.8 506.8l3.9 5.4 1.8 4.2 1.6 2.3 2.3 0.9 7.3 0.7 2.7 1.4 4.9 5-1.6 2.2-5 4.2-3.7 5.8 2.3 1.7 3.4 1.4 1.4 4.2 1.6 4.4 7 3.4 7.1 3.6 1.8 2.1 1.5 2.1 0 2.4-0.3 1.6 1.4 2.7 2.7-0.4 1.7 5.6-4.6 3-9.7 0.2-9.8 0.7-8.6-0.4-6 4.6 10.7 7.9 13.5-1.5 5 1.8 4.3 3.2-0.4 7.2-2.9 6.2 2.9 6.6 4.1 6.1-1 2.7-2.1 2.6 0.4 4.4 0.3 3.1-0.7-0.1-3.2-1.9-2.5-0.7-1.8-0.5-3.6-1.7-3.3-2.2-1.8-2.2-0.2-2.1 0.4-1.7 0.6-1.7 0.4-2-0.8-1.4-3.7-1.7-1.4-1.1-0.8-1.6-1.2-4.3-0.7-1.6-1.4-1.6-1.5-0.8-1.3-1.1-1.1-2 1.4-2.9-0.9-2.2-2.1-1.3-2.2-0.4-1.5-0.8 0.1-1.7 0.4-1.9-0.5-1.2-1.4-0.2-1.5 0.6-1 0.7-0.4 0.4-16.2-5.4-4.1 1.3-1-3.1-1.6-10-1.1-2.1-1.3-2-1-2.1 0.1 0 3.5 1.5 3.4 1 4.1-1.2 4-1.9 3.2-2.1 0.6-4.5-1.1-2.5-1-2.3 0.8-2.3 1-2-1.2-5.6-2.3-5.3-0.9-5.3 1.1-5.4 1.6-6.2 1.9-6.1 3.6-5.5 1.2-1.3z" id="AZBAB" name="Babək">
  </path>
  <path d="M146.3 526.7l0.1 0.1 1.6 0.9 1.8 0.3 1.8-0.3 1.7-0.9 1.6-0.7 12.5-8 4.2-1.7 19-4.7 0.9-0.2 3.6-0.1 4.3 1.7 3.5 2.5 1.4 2.6 0.1 3.4-0.6 5.1 1.5 9.2-0.7 3.2-5.3 8.6-1 4.1 0.9 2 0 0.1-0.2 0.1-4.6 5.5-3.2 4.1-3.9-0.8-3.5-3.7-4.5 2.5-6.8 2.6-6.6 3.9-2.7 0.4-1.4-2.7 0.3-1.6 0-2.4-1.5-2.1-1.8-2.1-7.1-3.6-7-3.4-1.6-4.4-1.4-4.2-3.4-1.4-2.3-1.7 3.7-5.8 5-4.2 1.6-2.2z" id="AZSAH" name="Şahbuz">
  </path>
  <path d="M199.2 553.8l0.4 1 8.9 2.3 3.2 2.6 2.9 3.2 3.7 2.9 2.3 1.1-3.6 4.7-3.1 3.7-3.3 3.5-1 3.1-0.7 3.5-1 3.9-1.5 3.8-2.7 5.9-2.7 6-3.3 4.2-3.3 4.1-0.9 3.3-0.6 3.6-0.7 1.9 0.3 2.1 5.6 4 4.6 4.7-2.8 5-0.1 0.1-7.9-3.1-13.9-0.2-8.8-2.2-4.3-0.1-1.2-0.3-0.3-3.1-0.4-4.4 2.1-2.6 1-2.7-4.1-6.1-2.9-6.6 2.9-6.2 0.4-7.2-4.3-3.2-5-1.8 6.6-4.2 3.3-7.3 4.6-3-1.7-5.6 6.6-3.9 6.8-2.6 4.5-2.5 3.5 3.7 3.9 0.8 3.2-4.1 4.6-5.5 0.2-0.1 0-0.1z" id="AZCUL" name="Culfa">
  </path>
  <path d="M220.6 566.9l8.9 4.3 3.1 3.1 1 1.6 0.4 1.5-0.3 1.4-1.1 1.4-3.7 4.9-1 5.1 1.4 5.3 3.3 5.4 4.1 5.8 3.1 6.4 8.1 22.6 9.1 17.3-1.6 0.2-9-2.2-10.3-4.7-32.7-6.9-3.6-1.4 0.1-0.1 2.8-5-4.6-4.7-5.6-4-0.3-2.1 0.7-1.9 0.6-3.6 0.9-3.3 3.3-4.1 3.3-4.2 2.7-6 2.7-5.9 1.5-3.8 1-3.9 0.7-3.5 1-3.1 3.3-3.5 3.1-3.7 3.6-4.7z" id="AZORD" name="Ordubad">
  </path>
  <path d="M279.3 102l-0.2-1.5-3.4-6.6-0.4-1.2-2.2 0.1-1 1.6-0.8 1.9-1.3 1.1-4.2-3.5-2-9.3-0.1-10.6 1.5-7.1 3-3.2 3.4-0.4 7.3 1.7 3.2-0.3 2.5-1.2 2.3-2.1 6.6-8.2 3.4-5.4 5.9-12.2 3.3 0.8 4.2-0.1 7.2 1 2.8 1.6 0.9 4-0.8 8.4 0.9 3.6 2.7 2.3 3 0 2.7-1.8 5-4.4 3.2-1.2 6.3-1.3 1.9-1.4 1.1 4.7-2.2 7.3-5.3 5.6-6 4.3-4.8 3.1-4.6 3.6-2.5 5.8-1.9 6.4-3.6 4.7-4.6 3.2-5.4 1.8-5.3 1.2-4.2 3-4.3 3.2-4.7 0.5-4.7-2.7-3.8-0.8z" id="AZBAL" name="Balakən">
  </path>
  <path d="M333.7 148.7l-1.1-0.7-2.4 0.9-2.4-5.8-7.7-4.5-15.1-6.4-7.3-6.8-3.1-0.8-1.8-0.9-8.2-5.6-2.6-3.5-1.4-4.5-1.3-8.1 3.8 0.8 4.7 2.7 4.7-0.5 4.3-3.2 4.2-3 5.3-1.2 5.4-1.8 4.6-3.2 3.6-4.7 1.9-6.4 2.5-5.8 4.6-3.6 4.8-3.1 6-4.3 5.3-5.6 2.2-7.3-1.1-4.7 0.9-0.7 2.6-2.7 1.3 0 0.7 2.4 1.4 8.1 0.8 2.9 1.5 2.4 10.3 9.5 2.6 1.6 2 0.6 4 0.5 1.8 0.9 0.8 1.2 0.8 3.8 0.6 1.6 2.1 2.9 7.7 6.6 3.8 6.2 1.4 6.2 2.2 3.9 0.2 0-6.2 8.7-9.2 2-10-3.2-10.3-0.6-8 2.7-5.1 8.3-5.1 11.2-6.8 8.8-1.2 5.8z" id="AZZAQ" name="Zaqatala">
  </path>
  <path d="M618.4 70.9l10.6-13.8 7.5-12.1 1.7 1.4 4.7 2.9 5.5 5 13.7 19.1 5.3 5.4 2.2 3.2 0.9 5.1 10.6 12 6 12.8 3.1 1.2 2.6 2.7 2 3.3 1.3 2.6 3.6 5.4 0.6 1.2 0.8 0.9 3.8 1.1 1.3 0.8 2.4 3.5 5.6 11.7-0.9 0.3-8.4 0.3-8.1-1.4-7.3-0.7-7 2.7-5.4-0.3-4.9-1.8-4.9 2.2-5.1 0.6-3.1-2.7-3.7 1.3-3.9 1-2.6-3.8-2.9-5.6-2.8-5.8-4-6.2-3.2-6.2-1.9-8.6-2.9-6.2 2.5-3.7 0.1-4.1-3.8-1.1-4.2-0.4-2.8-10.1 3.5-10.9-4.1-4.6-4 0.4z" id="AZXAC" name="Xaçmaz">
  </path>
  <path d="M618.4 70.9l4-0.4 4.1 4.6-3.5 10.9 2.8 10.1 4.2 0.4 3.8 1.1-0.1 4.1-2.5 3.7 2.9 6.2 1.9 8.6-8.7 5.1-9.2 2.9-11.5 5.9-10.6 8.9-30.7 21.6-30.1 23-5.8-1-5.7-1.2-4.9-3.4-1.2-2.6 2.4-0.2 6.6-2 3.6-2.3 0.7-2-0.8-2.7-0.7-4.2 0.4-4.3 1.5-2 2-1.5 2.3-2.8 1.3-3.7 0.8-3.3 1.6-1.7 4.1 0.7 3.4-2 5.2-14.8 2.9-5.8 5.1-3.2 17.9-3.4 4.6-2.5 8.2-7.1 13.4-8.4 3.6-3.9 3.1-6 6.5-18.1 1.1-1.3z" id="AZQUS" name="Qusar">
  </path>
  <path d="M448.3 166.1l1.3 0.5 16.1 1.6 3.4 1.1 4.3 6.2 2.9 2.2 3.1 0.1 5.5-3.7 3-1.2 3.2 0.4 8.1 4.1-0.3 2.5-0.1 5.3 0.7 2.5 0.5 2.4-1.3 4.8-1.2 5.3-4.4 9.7-4.9 8.8 0.7 4.9-0.6 5-2.6 4.5-2.6 4.6-3.1 11.9-0.2 12.5-15-7.9-13.8-10.7-2.7-3-2-3.7-0.8-4.3-1-3.7-2.2-0.2-2.2 0.8-1.5-1.9 0.7-2.9-3.5-3.8-2.6-4.9 1.9-8.3 3.4-7.7 3.3-7.1 3.3-7.2 1.8-11.1 1.4-8.4z" id="AZOGU" name="Oğuz">
  </path>
  <path d="M420.6 188.1l-6.4-1.8 0.4-3.1 1.4-4.3 1-3.9 1.1-3.3 1.7-1.4 1.9 1.4 3.2 5.6 0.4 4.1-2.5 5.5-2.2 1.2z" id="AZSA" name="Şəki">
  </path>
  <path d="M331.5 197.7l0.9-1.2 1.3-6.6 0.8-7.1 1.5-5.6 0.9-1.2 2.1-2 0.9-1.3 0.3-1.3 0.2-3.7 0.3-1.5 1.3-1.7 1.3 0.2 0.5-0.2-1-3-4.9-7.5-3-3.4-1-1.8-0.2-0.1 1.2-5.8 6.8-8.8 5.1-11.2 5.1-8.3 8-2.7 10.3 0.6 10 3.2 9.2-2 6.2-8.7 6.4-0.9 2.9-1.2 3-0.6 2.8 0.7 2.5 2.9 1.1 3.6 0.6 3.5 1.1 3.1 2.7 2.1 0.4 0.3-0.4 1-1.7 8.3-3.6 6.6-12.8 8.8-13.9 6.2-6.3 2.8-6 3.8-2.6 3.2-1.5 3.8-2 2.9-2.8 2.3-3.3 7.7-1 9.9 0.9 8.1 7 3.7 10.8 17.4 0.4 23.4-13.1-7.2-13.3-4.1-0.7-5.4-2.3-4.7-0.9-6-0.7-5.8-6.2-3.7-7.1-0.3-4.5-3.5z" id="AZQAX" name="Qax">
  </path>
  <path d="M517.6 179.4l1.2 2.6 4.9 3.4 5.7 1.2 5.8 1 3.9 12.3 12.3 7.2-2.4 2.9-1.8 3.5-0.8 3.8-1.2 3.2-2.2-0.5-2.2-0.2-1.3 2.1-0.9 2.5 1.6 6.8 3.8 6.5-0.5 6.3-4.5 3.9-2.4 0.4-2 0.8-0.5 4.5-0.1 4.7-6 4.8-7.1 3.2-4.6 3.9-3.2 6-3.9 5.5-4.2 5.2-5.1 2.4-5.5 0.2-6 1.4-5.7 3.2-5.1-2.9-3.8-4.1-0.4-9-0.5-9 5.4-1.6 1.5-5.4 0.2-12.5 3.1-11.9 2.6-4.6 2.6-4.5 0.6-5-0.7-4.9 4.9-8.8 4.4-9.7 1.2-5.3 1.3-4.8-0.5-2.4-0.7-2.5 0.1-5.3 0.3-2.5 4.6 2.4 3 0.6 10.8-1z" id="AZQAB" name="Qəbələ">
  </path>
  <path d="M249.5 182.3l3.9-2.6 3.5-0.8 11.7 0 2.8 0.9 2.4 2.4 4.5 5.7 9.2 8.3 3.2 2 9.3 3 2.5 2.3 4.4 5.8 2.7 1.7 3.4-0.1 1.4-2.2 0.9-3.2 1.7-3.3 3.3-2.1 3 0.3 3 0.8 3-0.4 2.2-3.1 4.5 3.5 7.1 0.3 6.2 3.7 0.7 5.8 0.9 6 2.3 4.7 0.7 5.4-7 7.9-6.7 8-7.8 7.8-8 7.6-3.1 1.8-1.4 2.9 0.8 4.2-2.8 2.9-6.2 5.8-2.7 9.5-9.2-0.8-3.1-7.8-7.9-0.2-5.2-12-4.7-10.2-2.7-7.2 1.6-7.3 1.2-3.6 0.8-3.7 1.1-4.8 2.4-4 0.8-7.3-3.6-7-6.3-8.8-6.6-8.8-8.7-4.3-8.6-4.9-0.8-0.5z" id="AZSMX" name="Samux">
  </path>
  <path d="M540 483.7l-0.1 0-1.8 2.7-1.6 1.5-1.9 0.5-11.8-0.3-3.7 1-3 2.1-2.4 2.5 0-0.1 1.4-6.6 6.7-5.9 6.6-3.9 1.1-6.2-5.5-4-5.5-4.7-5.1-4.6-5.8-3 0.9-5.9 2.7-7.3-2.9-2-1.8-3.1 2.2-3 3.1-1.8 6.1-4.4 0.3-8-5.1-5.9-5.6-5.9 6.6-6.1 1.6 3.5 3.2-0.9 1.5-0.9 1.6 0.4 1.5 0.6 0.2 0.1 1.6 0.4 1.2 0.7 2.5 2.8 1 0.7 1-0.4 1.4-1.8 0.9-0.5 0.9 0.1 1.6 1 0.7 0.2 2.6 1.3 1.8 0.4 0.9-1-0.2-4.4 0.1-2.3 0.6-1.7 1.6-0.9 1.9 0.9 1.8 1.5 1.6 0.6 3.2-2 3.1-2.7 2.4-0.2 0.9 5.7 1.2 2.4 8.4 5.2 1.4 0.6 1.3 0.1 0.7 0.8-0.2 2.7 5-2.5 2.9-0.6 2.7 0.4 1.2 0.6 1.4 1.2 1.1 1.5 1.1 3.3 1.2-0.5 1.9-2.1 0.6-0.2 0.8-0.6 1-0.4 1.4-0.1 1.2 0.9 0.8 1.2 1.1 1.8-0.3 2.5-1.9 1.4-3 0.8-3.3 2.6-3.1 3.1-2.1 3.3-1.6 3.5 1.5 2.4 1.9 2.2 0.7 4.6-2 4.4-2.6 4.8-1.3 5.4 1.5 4.7 2.6 4 9.4 3.2 7.4 6.7-0.4 2.7-0.8 2.4-0.2 4.5 0.1 4.5 2.4 4.8 3.6 4.3-16.6 11.1-18.2-11.2-10.1-10.1-11-8.1-9.4-0.8-0.2 1.8z" id="AZIMI" name="İmişli">
  </path>
  <path d="M597.6 550.4l1.6-0.5-3.4-7.3-4.4-6-10.6-9.9-26.1-31.5-9.6-8.9-3-2.1-2.1-0.5 0.2-1.8 9.4 0.8 11 8.1 10.1 10.1 18.2 11.2 16.6-11.1 8.6-8.2 8.7 5.4 7.8 4.2 6.4-7.5 6.8 1.2 6.7 2.9 7.6 2.7 7.7 2.5-3.4 10.4-0.8 10.4 3.1 3.9 2.8 4.2-0.8 5.3-1.4 5.4-4 0.1-3.8-0.9-2.4-1.4-2.6 0.1-1.8 2.3-1.3 2.9-2.4 2.2-0.5 2.8-0.3 8.8-4.8 4.5-5.1-3.1-1.7-7.2-3.5-5.7-5.5 0-4.7 5.6-5.4 4.6-3.2 0.4-2.9 1.5-1.9 2.3-2.2 2-5.6-3.2-0.5-9.5-1.6-2.5z" id="AZBIL" name="Biləsuvar">
  </path>
  <path d="M593.4 622.2l0.8-2.7 0.1-2.8-0.9-2.5-4.7-10.1-2.3-2.3-8.9-3.6-8.8-8.7-3.8-5.3-2.1-5.4 0.3-6.9 2.8-5.7 4.5-4.3 5.3-2.7 9.7-2 8.2-5.5 4-1.3 1.6 2.5 0.5 9.5 5.6 3.2 2.2-2 1.9-2.3 2.9-1.5 3.2-0.4 5.4-4.6 4.7-5.6 5.5 0 3.5 5.7 1.7 7.2 5.1 3.1 4.8-4.5 0.3-8.8 0.5-2.8 2.4-2.2 1.3-2.9 1.8-2.3 2.6-0.1 2.4 1.4 3.8 0.9 4-0.1-4 5.2-3.5 5.7-1.2 7.6 1.2 7.7 5.6 12.7-1.8 13.7-3.1-1.4-3.2 0.1-0.2 3.2-1.5 1.5-2.9-1-3 0.8-0.1 4.6 2.5 4.6-3.7 2.6-4.4 1.7-4.4 3-3.4 4.5-5.6 6-7.8 2.1-4.3-5.4-5.3-3.5-3.7 0.8-3.7 1.2-10.4 0.4z" id="AZCAL" name="Cəlilabad">
  </path>
  <path d="M581.6 683l-0.4-1.6-1.9-1.7-20.6-10.2-10.1-8.1-3.1-5.6-0.4-8.3 1.5-2.2 8.1-5.1 0.5-1.3 0-1.5 0.5-1.3 28.7-5.1 6.4-3.9 0-0.1 1.4-2.1 1.2-2.6 0-0.1 10.4-0.4 3.7-1.2 3.7-0.8 5.3 3.5 4.3 5.4 2.9 7.9 8 1.2-13.6 9.6-14.3 8.4-3.1 2.7-3.5 2.1-2.9 3-2.7 3.6-1.4 3.9-0.8 4.3-2.1 2.6-2.1 3.2-3.6 1.8z" id="AZYAR" name="Yardımlı">
  </path>
  <path d="M629.8 731.5l-3.8-4.8-2.4-3.3-2.6-2.9-2.5-4-2.5-2.3-2-2.7-1.1-5.2-1.8-4.3-3.6 0-7.9 3.6-4.8-0.1-2.8-2.6-2.5-3.7-7.5-6-0.3-3.4 0.7-3.9-0.8-2.9 3.6-1.8 2.1-3.2 2.1-2.6 0.8-4.3 1.4-3.9 2.7-3.6 2.9-3 3.5-2.1 3.1-2.7 14.3-8.4 13.6-9.6 5.1 6.3 2 8.2-4.3 8.5 1.8 8.7 6.9 4.5 6.8 4.6 2.3 4.2 2.1 4.3-0.5 3.7 0.3 3.4 3.2 2.2 2.7 3.2-1.9 4.9-3.1 4.7-3.4 2-3.5 1.4-3.4-0.5-3.7 1.1-3.3 1.8-2.8 2.8-1.1 4.6-2.3 4.1-1.8 5z" id="AZLER" name="Lerik">
  </path>
  <path d="M363.7 580.2l-5.1-3.7-5.3-3.2-2.4-5.7-0.6-6.6-2.9-4.5-2.3-4.4 1-6.2 3.7-3.6 4.7 1.9 0.5 0.2 1 0.4 5.7 0.5 1.1-3.4 0.7-2.5 0.2-0.7-1.2-3.4-1.1-3 3.3-2.3 0.3 0.2 3.6 2.5 2.4 0.9 2.5 0.9 1 2.3-0.2 2.7 4.5 4 5.3 2.9 1.9 3.7 3.9-0.7 2.7-2.5 3.1-0.4 2.4-0.1 0.1-2.6-0.7-2-1.3-4.3 0.9-1.4 2.4-3.8 5.6 2.8 5.4 3.2 3 5.6 3.1 4.7 4.2-0.6 4.5-1 4.8 3 1.7 2.3 0 0.1-1.8 1-15.5 6.1-7.4 4.5-1.5 1.7-0.5 2-5.7 9.1-2.6 7.6-0.8 1.5-1.6 1.9-1.1 0.6-9.3 5.3-1.9 0.3-2.3-0.6-4.3-2-2.5 0.1-2.5 1.2-0.1-0.1-1.4-5.5-5.3-6.9z" id="AZCAB" name="Cəbrayıl">
  </path>
  <path d="M488.3 511.1l-2.8 1.6-8.2 8.4-2 1.3-3.5 0.4-10.9 3.8-6.5 3.6-5 4.2-7.8 10-5.1 5.3-4.7 2.7 0-0.1-1.7-2.3-4.8-3-4.5 1-4.2 0.6-3.1-4.7-3-5.6-5.4-3.2-5.6-2.8 0.8-1.7 0.4-0.9 0-2.2 1.2-0.2 1.7-0.3 2.8-0.9-0.7-3.8-0.2-0.8-0.8-3.3 1.3-2.3 1.6-2.2-1.2-4.4-4.6 1.9-3.2 2.7-3.4 0.4-1-3.4 2.1-2.5 0.4-0.5 6.4-1.5 1.9-2.4 1.6-2-5 0.6-5.8-1.1 2.7-4.6 1-0.1 6.1-0.5 3.6-1.4 3.5-2 2.6-3 3-1.6 4.6-0.8 4.8-1.3 3.2-0.6 0.1 0 2.7-0.5 5.9-1.5 11.9-3.3 12.1-2.9 2.5 6 5.2 1.4 3.8 4.3 3.4 5.5 9.8 8.3 0 8.1 0 0.1z" id="AZFUZ" name="Füzuli">
  </path>
  <path d="M513.7 493.7l-6.7 6.9-18.7 10.5 0-0.1 0-8.1-9.8-8.3-3.4-5.5-3.8-4.3-5.2-1.4-2.5-6-3-4.8-2.2-4 2.1-1.7 2-1.4-0.9-2.6-1.1-3.3 2.7-4.4 4.7-2 1.1-2.1 1.8-1.3 3.7 0.3 3.7-0.3 5-2.1 5.2-1.5 4.6-4.8 2.3-7.2 1.8-9.5 1.5-9.8 3.5-7.7 6.7-15.1 2.1 0.2 2 1 0.2 2.4 0.8 5.2 0.2 0.4-6.6 6.1 5.6 5.9 5.1 5.9-0.3 8-6.1 4.4-3.1 1.8-2.2 3 1.8 3.1 2.9 2-2.7 7.3-0.9 5.9 5.8 3 5.1 4.6 5.5 4.7 5.5 4-1.1 6.2-6.6 3.9-6.7 5.9-1.4 6.6 0 0.1z" id="AZBEY" name="Beyləqan">
  </path>
  <path d="M629.8 731.5l1.8-5 2.3-4.1 1.1-4.6 2.8-2.8 3.3-1.8 3.7-1.1 3.4 0.5 3.5-1.4 3.4-2 13.9-0.7 12.5-3.4 0.9 33.4-10-2.1-5 0-3.5 1.9-3 3.1-4 2.5-4.2 1.8-3.7 1-7.2-0.6-0.8 0-4.9-4.9-4.3-7.1-2-2.6z" id="AZAST" name="Astara">
  </path>
  <path d="M662.2 148.2l5.1-0.6 4.9-2.2 4.9 1.8 5.4 0.3 7-2.7 7.3 0.7 8.1 1.4 8.4-0.3 0.9-0.3 4.7 9.9 2.2 3.3 2 3.9 0.9 4.5 1.9 17.9 1 3.8 1.7 1.6-2.1 0.4-6.2-5-5.9-4.9-4.9 1.6-4.9 2-11.2 0.1-5.1 7.1 2.8 7 0.1 7.8-1.6 3.5-2.2 2.9-3.2 0.5-2.9 0.6-4.5 3.2-2.3 5.4 1.3 9.4 2 9.4-5.1 3.3-4.6 4.4-7.9-4.3-8-3.9 0.6-9.1-0.8-7.8-2.3-5 2.9-4.5 4-3.1 2.1-5.2-5.7-7.5-6.5-6.6 4.1-10 8.1-7.1 2-2.5 2-2.6-0.1-3-2.1-2.6-0.1-8.4 1.8-8.5z" id="AZSBN" name="Dəvəçi">
  </path>
  <path d="M677.8 242.2l-2-9.4-1.3-9.4 2.3-5.4 4.5-3.2 2.9-0.6 3.2-0.5 2.2-2.9 1.6-3.5-0.1-7.8-2.8-7 5.1-7.1 11.2-0.1 4.9-2 4.9-1.6 5.9 4.9 6.2 5 2.1-0.4 1.1 2.4 2.6 14.7 7.4 12.4 18.7 21.2 1.3 1.9-0.7 0.3-6.2-0.1-6 1-7.3 2-7.6-0.7-6.6-2.3-6.2-4-4.4-1.7-3.8-2.7-1.1-7.6-3.5-3-3.3 1.2-2.5 2.7-0.7 3.4-1 3-5.1 3-5.6 1.7-5.1 1.9-5.2 0.3z" id="AZSIY" name="Siyəzən">
  </path>
  <path d="M668.1 249.9l4.6-4.4 5.1-3.3 5.2-0.3 5.1-1.9 5.6-1.7 5.1-3 1-3 0.7-3.4 2.5-2.7 3.3-1.2 3.5 3 1.1 7.6 3.8 2.7 4.4 1.7 6.2 4 6.6 2.3 7.6 0.7 7.3-2 6-1 6.2 0.1 0.7-0.3 0.2 0.4 1.4 3.4 3.3 2.8 7.1 4.4 3.4-0.9 3 2.6 2.8 3.5 3.1 1.7 1.7 2-0.7 4.5-2.7 7.6-1 4-0.2 2.1 0.2 2.3 0.7 1.3 2 2.6 0.5 1.1 0.1 0.2-1 0.5-5.3 0.7-1.3 4.1-3.2 5.3-4.3 3.8-2 2.5-1.8 2.6-0.7 3.9-0.7 3.8-10 4.5-11.5 0.4-10.1-5.4-8.3-8.7-6.7-6.9-8.4-2.9-6.8-5.1-6-6.6-3.4-4.4-3.7-3.4-8.3-6.3-9-2.7-6-8.8 2-10.4z" id="AZXIZ" name="Xizı">
  </path>
  <path d="M777 294.7l1.3-4.1 5.3-0.7 1-0.5 1.1 1.8 2.7 2.6 3.1 2.3 2.1 1 6.7 0.4 3 0.8 2.5 1.4 5.6 5 0.8 0.4-0.4 2-1.3 2.3-1.3 2.4-7.9 2.7-7.8-0.8-2.7-4.2-2.5-4.6-5.3-6.2-6-4z" id="AZSM" name="Sumqayıt">
  </path>
  <path d="M809.2 311.8l1.3-2.4 1.3-2.3 0.4-2 2.2 1.1 7.8 1 6.7 2.1 3.6 0.3 2.9-0.6 8.6-3.6 3.7-0.6 17.7 0.6 1.3 1.3 0.7 1.5 0.5 1.4 0.7 1.4 2.8 3.4 2.9 2.7 3.2 1.8 14 3 2.7 1.6 1.7 3 1.9 4.7 2.4 4.4 3.1 1.9 3.3 1.3 2.9 3.1 2.3 4.1 1.5 4.2 1.6 16.8 1.1 1.7 1.3 3.8 0.8 4.2-0.5 2.8-3-5.8-3.2-5-3.9-4.5-7.7-6.3-3.2-1.8-3.5-1.3-7-1-5.8-1.9-3.1-0.4-1.8 0.2-2.1 0.9-1.4 0.4-6 0-2.7 1.1-5.3 4.4-3.1 0-1.1-0.9-2-3.3-1.2-1.3-1.7-0.7-4-0.7-4-2.2-3.1 1.7-5.2 4.7 1.1 4.8-4.4 4.5-6.3 3.3-10.3 2.3-9.1 5.3-11.9 4.4-2.8 2.1-5.9 6.6-2.7 1.9-1.7 2.2-0.4 4.4 0.9 5.5 0.1 2.2-8.4 3.2-1.5 3.2 0.4 4.1 2.1 4.1 1.4 1.5 2.2 1.7 1.2 1.6 0.6 2.1-0.8 1.2-1.6 1-2.7 2.6-1.2 0.6-1.2 0.8-1.1 2.1-0.7 2.4-0.1 1.9 0.8 4 1.8 4.4 0.5 2.3-0.7 2.4-1.4 1.5-1.2 1-0.8 1.1-0.3 1.9 0.2 1.2 0.6 1 0.4 1.3-0.2 1.4-0.6 0.9-2.6 1.8-0.9 2.9 0.1 1.3 0.8 1.4-0.7 2.6 0.9 2.8 3.6 4.9-0.2 1.7-2.2 1.7-4 2.3-3.9 4.7-1.6-6.1-0.6-6.8-0.3-8.7 2.2-7.8-0.2-5.2-0.6-5.1-2.2-3.2-2.3-3.1-2-6.4-2.8-5.5 1.9-5.6 1.2-5.5 2.6-3.8 2.5-3.9-0.5-4.1-0.7-4.2 1.8-4.5 2.7-3.9 1.1-3.8-0.2-3.4 1.2-3.5 2.6-2.5 4.6-8.9 0.6-11.4-1.4-11.2-0.2-10.3 4.9-5 6.6-1 3.8-3.9 4-4.6 12.7-0.4 4.6-0.8 4.8-0.2 3.5 1 3.4 1.1 3.8-1.1 3.7-1.8 7.1-1.6 7-1.9 3-3.3-5.5-2.2-6.5-2.2-6.6-2-2.8 0.9-2.8 1.3-3.6-0.7-3-3.3z m-14.5 29.1l0.4 0.6 2.3 3.5 1.2 3.8 3.5 0.8 3.7-0.4 3.4-1.7 1.9-2-1.7-2.9-3.4-5.1-6.4 0.3-4.9 3.1z m158.8 22.6l-2.9-0.8-2 0.7-2.3-2-1.5-3 0.4-2.6 2 1.6 1.5-0.5 1.3-1.1 1.6 0 2.3 2.4 0.6 3.2-1 2.1z m-35.8-20.8l-2.3 0.6-3.1-0.2 0.7-5-5-6.9 0-4.8 1.9 1 2.4-0.8 1 1.3 0.4 4.3 1.5 2.2 1.9 1.8 1.6 2.7 0.2 2.5-1.2 1.3z" id="AZBA" name="Bakı">
  </path>
  <path d="M665.3 543.8l1.4-5.4 0.8-5.3-2.8-4.2-3.1-3.9 0.8-10.4 3.4-10.4 5.4-0.4 5.6-0.7 3.8 2.2 3.5 1.6 0.7-3.4-0.6-4.5 4.7-2.5 3.2-3.4 2.9-1.1 2.1-2 2.1-5.6 1.7-2.9-0.2-2.2-2.4-2.8-4.8-4.6-0.6-1.7 0.7-1.7 0.9-1.5 0.5-1.4-0.3-1.8-1.3-2.2-0.5-1.6-0.1-1.6 0.2-3.9-0.1-1.3-0.7-1.8-1.8-2.5-2.5-4.6 0-0.7 1.2 0.4 2.2-2.1 5.2-0.6 5.6-0.3 5.9 4.1 6.2 3.3 7.9 1.3 7.9 0.7 2.7 0.5 2.5 0.6 4.1-1.1 3.8-0.9 2.8 2.2 2.3 3.3 4.5 3.8 4.7 3.7-2.2 7.8 0.3 8.7 0.6 6.8 1.6 6.1-3.3 4.1-3 5 0.1 3.5-1.8 3.3-1.6 4.5-1.2 4.7-0.7 4 0.1 2.8-0.9 0.2-6 1.8-6 1.9-2.7 1.9-2.9 0.6-3.6-0.7-3.5-1.7-5.4-6.5-5.1-5.5-3.9 3.7-0.6 2.2-1 3.2-4.4 4.2-0.5 1.2-1.6 1.2-0.6 0.5-3.8 6.8 0.5 5 0.9 4.6-1.6 2.5-3 0.7-5.5 4.3-5.8-1.2-6.9-5.5-7.1-5.4z" id="AZSAL" name="Salyan">
  </path>
  <path d="M661.6 596.4l1.8-13.7-5.6-12.7-1.2-7.7 1.2-7.6 3.5-5.7 4-5.2 7.1 5.4 6.9 5.5 5.8 1.2 5.5-4.3 3-0.7 1.6-2.5-0.9-4.6-0.5-5 3.8-6.8 0.6-0.5 1.6-1.2 0.5-1.2 4.4-4.2 1-3.2 0.6-2.2 3.9-3.7 5.1 5.5 5.4 6.5 3.5 1.7 3.6 0.7 2.9-0.6 2.7-1.9 6-1.9 6-1.8 0.9-0.2 0.1 2.7 1.5 3.7 14.5 13.2 1.8 2.3 1.3 2.6-0.1 0.9-0.7 0.7-1 6.7 0.2 2.1 1.3 2.3-1.9-1-1.4-1.3-1.1-1.5-0.9-1.7-0.9 0 0.5 2.9 1.4 3.3 1.9 2.9 2.4 1.7 0 1.5-3.5-0.8-2.2-2.5-2-2.8-7.9-5.3-5.2 2-4 5.2-1.6 6.3 0.1 22-0.5 2.6-2.5-2.8-6.4-1.6-6-3.1-5.4-1.6-4.9-3.2-3-6.5-4.6-4-7.7 6.1-7.1 7.9-6.1 6.6-5.4 7.2-9.4 0.6-8.3-3.7z" id="AZNEF" name="Neftçala">
  </path>
  <path d="M680.7 676.1l-2.5 3.3-2 0.9-0.8-1.3-0.4-2.7 0-3.2 0-3 3.2-2 2.5 6.3 0 1.7z" id="AZLA" name="Lankaran">
  </path>
  <path d="M620.8 628.7l7.8-2.1 5.6-6 3.4-4.5 4.4-3 4.4-1.7 3.7-2.6-2.5-4.6 0.1-4.6 3-0.8 2.9 1 1.5-1.5 0.2-3.2 3.2-0.1 3.1 1.4 8.3 3.7 9.4-0.6-1.2 6.5 0.1 6.5 3.7 3.3 3.5 3.5 0 4.6 0.5 5.4 2.4 6.4 1 4.3-3.1 7.2-0.4 0.4-4.9-1.3-6.1-0.1-2.4 1.5-2 2.3-4.6 2.8-5 2.4-5.5 3.7-6 1.2-5.5-3.3-5-4.5-2-8.2-5.1-6.3-8-1.2-2.9-7.9z" id="AZMAS" name="Masallı">
  </path>
  <path d="M680.7 676.1l-2.5 3.3-2 0.9-0.8-1.3-0.4-2.7 0-3.2 0-3 3.2-2 2.5 6.3 0 1.7z" id="AZLA" name="Lankaran">
  </path>
  <path d="M153.1 588.2l-13.5 1.5-10.7-7.9 6-4.6 8.6 0.4 9.8-0.7 9.7-0.2-3.3 7.3-6.6 4.2z" id="AZNX" name="Naxçıvan">
  </path>
  <path d="M305.9 432.9l1.2-0.6 3.6-2.2 4.3-2.7 4.8 2.4 4.2 3 4.8-2.8 3.4-5.1 5.7-3 6.4-1.1 5.5 4 6.4-1.8 7.5 3.8 2.9 6.8 0.9 2.2 3 2.9 2.5 2.3 6.4 3-1.4 5.4-3.2 4.2-0.4 0.8-3 5.2-0.3 0.6-2.8 5.7-1.9 2.8-1.3 2.7 1.8 3.8 2.8 3 5.1 5.5 1.8 7.8-4.8 4.7-5.3 3.7-4.1-2.2-3.9-3.5 0.1-3.8-0.1-4-0.3-5.7-1.6-7-2.9-2.4-2.7-0.6-4.1-1.1-7-1.1-6.6 0.8-3.2 1.6-3.2 1.6-2.8 0.4-0.8 0.1-3.5 0.5-2.7-12.7-5.3-11.2-3.2-3-3.6-2.4-1.2-5.2 2.1-6.1z m48 32l2.9-1.7 1.5-3.7 0.7-2 1.3-0.1 0.6-1.6-1.2-2.4-1.7-0.9-1-0.4-1.1 0.7-2.3 2-2.6 3.7 0.4 4.7 2.5 1.7z" id="AZXCI" name="Xocalı">
  </path>
  <path d="M344.3 420.8l3.3-1.9 1.2-0.7 5.4-0.4 0.7-7.4 2.2-5.4 4-4.2 1.2-6.9 1.5-0.7 1-0.5 5.9-2.7 9.8-4.8-0.9-3.2 1.1-2.6 0.1 0 1.9 0.7 1.6 1.6 3.9 0.8 3.6-1.5 2.9 3.6 1.5 5.3 4.1 1.3 1.6-0.3 0.2 0 2.5-0.3 11-0.9 11.2 0.3-6.4 6.5-7.3 4.7-0.6 4.6 4.6 4-4.3 3.9-1 0.3-0.5 0.2-4.3 1.3-0.2 5.6-0.4 5.7-1.9 1.5-2 1.3 3.4 9.9 12.7 2.8 0.1 0 6.5-2.5 6.9-1 3.5 5.8-3.3 7.1-1.2 1-1.2 0.7-2.3-0.6-2.7-0.7-4 0.5-0.9 0.1-0.6 0.8-1 1.3-0.8 1.2-2.1 3.1-8.8-2.1-8.5-5.7-6.4-3.1-6.7 1.6-1.7 5.8-3.1 4.9-6.1 2.4-5.9 3 2.8-5.7 0.3-0.6 3-5.2 0.4-0.8 3.2-4.2 1.4-5.4-6.4-3-2.5-2.3-3-2.9-0.9-2.2-2.9-6.8-7.5-3.8-6.4 1.8-5.5-4z" id="AZAGM" name="Ağdam">
  </path>
  <path d="M354.2 417.8l-3.7-4.2-0.8-1.9-1.2-2.6-1.9-4.1-4-3.2-7.8-7.4-9.3-0.9-3.4 2.7-3.6 1.2-2-5.6-1.4-6.7-1.7-7.3 0.8-7.4 1.5-1.4 1.5-1.2 1.1-3.4 0.6-3.6 1-1.3 2.2-2.9 2.1-2.8 1-0.4 1.8-0.7 5.8-2.3 7.5-4.7 7.7-3.4 4.7 0.2 0.9 0 0.2 0 5.8-0.2 1.9-1 1.5-0.9 3.1-2.5 3-2.2 3.1-2 3.5-3.4 3.7-3.5 1.2 3.1 0.8 3.4 2.3 3.5 2.8 3.1 0.9 4.8 1.1 4.7 1.7 2.1 2.2 1.6 2.7 5 3.7 3.4 4.5 1.6-0.3 5.9-0.4 7 0.4 7 0.9 3.7 0.7 3.9-2.5 0.3-0.2 0-1.6 0.3-4.1-1.3-1.5-5.3-2.9-3.6-3.6 1.5-3.9-0.8-1.6-1.6-1.9-0.7-0.1 0-1.1 2.6 0.9 3.2-9.8 4.8-5.9 2.7-1 0.5-1.5 0.7-1.2 6.9-4 4.2-2.2 5.4-0.7 7.4z" id="AZTAR" name="Tərtər">
  </path>
  <path d="M318.9 360.8l-16.3 10.2-11.3-1.7-0.1 0-6-1 0.2-14.1 4.6-11.6 3.6-4.4 3-4.9 5.1-6.1 5.6-5.3 3.6-3.9 3.4-4.2 0.9-3.6-2.3-2.7 0.3-12.2-4.2-9.8 2.7-9.5 6.2-5.8 2.8-2.9-0.8-4.2 1.4-2.9 3.1-1.8 8-7.6 7.8-7.8 6.7-8 7-7.9-1.4 8.2 0.5 8.1 0.5 8.7-1.3 8.3-2.7 8 3.6 5.9 6.2 1 5.2 3.6-3.9 6.3-4.8 6.6 2.8 4.5 6.3-3.9 5.3 0.5 4 4.5-0.3 8.7 0.9 8.9 4.5 1.4 4.7-0.6 1.3 1.8-0.6 3.2-1.7 4.3-3.6 1.7-3.7 3.5-3.5 3.4-3.1 2-3 2.2-3.1 2.5-1.5 0.9-1.9 1-5.8 0.2-0.2 0-0.9 0-4.7-0.2-7.7 3.4-7.5 4.7-5.8 2.3-1.8 0.7-1 0.4-2.1 2.8-2.2 2.9-1 1.3z m44.6-37.2l1.4-0.1 1.4-1.1 0.2-1-0.1-0.9-0.8-0.9-1.2-1-1 0.8-0.8 1.1-0.7 0.8 0.6 1.3 1 1z" id="AZGOR" name="Goranboy">
  </path>
  <path d="M335.4 528.8l4.3-2.9 2.9-4.3-0.1-0.6-0.4-2.4-0.4-2.2-2.7-2.9 1.6-1.8 2.6-2.9 6.9-1.2 0.8-1.2 0.6-1 2.9-4.5 4.1-6.7 3.9 3.5 4.1 2.2 5.3-3.7 4.8-4.7-1.8-7.8-5.1-5.5-2.8-3-1.8-3.8 1.3-2.7 1.9-2.8 5.9-3 6.1-2.4 3.1-4.9 1.7-5.8 6.7-1.6 6.4 3.1 8.5 5.7 8.8 2.1 2.1-3.1 0.8-1.2 1-1.3 0.6-0.8 0.9-0.1 4-0.5 2.7 0.7 2.3 0.6 1.4 3.1 2.6 5.8 5.7 3.7 2 1.2 2.3 7.8-4.3 8.6-5.9 1.5-2.7 0.5-0.1 0-3.2 0.6-4.8 1.3-4.6 0.8-3 1.6-2.6 3-3.5 2-3.6 1.4-6.1 0.5-1 0.1-2.7 4.6 5.8 1.1 5-0.6-1.6 2-1.9 2.4-6.4 1.5-0.4 0.5-2.1 2.5 1 3.4 3.4-0.4 3.2-2.7 4.6-1.9 1.2 4.4-1.6 2.2-1.3 2.3 0.8 3.3 0.2 0.8 0.7 3.8-2.8 0.9-1.7 0.3-1.2 0.2 0 2.2-0.4 0.9-0.8 1.7-2.4 3.8-0.9 1.4 1.3 4.3 0.7 2-0.1 2.6-2.4 0.1-3.1 0.4-2.7 2.5-3.9 0.7-1.9-3.7-5.3-2.9-4.5-4 0.2-2.7-1-2.3-2.5-0.9-2.4-0.9-3.6-2.5-0.3-0.2-3.3 2.3 1.1 3 1.2 3.4-0.2 0.7-0.7 2.5-1.1 3.4-5.7-0.5-1-0.4-0.5-0.2-4.7-1.9 2.8-4 1-3.2 0.5-1.6-0.8-1.3-1.1-1.7-2.7-2-3.3 0.9-3.2 0.8-3.8-0.6-3.8-0.8z" id="AZXVD" name="Xocavənd">
  </path>
  <path d="M747.3 434l2.8 5.5 2 6.4 2.3 3.1 2.2 3.2 0.6 5.1 0.2 5.2-4.7-3.7-4.5-3.8-2.3-3.3-2.8-2.2-3.8 0.9-4.1 1.1-2.5-0.6-2.7-0.5-7.9-0.7-7.9-1.3-6.2-3.3-5.9-4.1-5.6 0.3-5.2 0.6 2.4-2.5 2-2.5 0.1-3.8 0.2-2.2-0.7-1.7-1.5-0.9-1.8 0.3-4.1-0.2-3.4-0.9-2.2 0.7-5.3-4.3-3.1-1-8.9-1.5-1.8-0.9-1.2-2.8-2.9-1-3.5-0.6-4-2.2-0.7 0.2-0.4-0.2-0.1-1.7 0-2.1-0.1-1-0.4-0.4-0.6-3.7 0.3-2.6-3.4-1.9-14-3.8-14.5-0.2 1.3-8.5-0.4-8-0.8-7-2.8-5.1 2-6.2 3.2-4.6 6.2 1.5 6.2 1.8 6.4 3.8 6.6 3.2 5.4 2.6 5.1-2.6 4.5-5.1 2-7.9 7.6 4.1 8.5-0.8 1.5 7.5 4.2 4.6 4.9 4.6 4.4 5 4.4 6.6 4.5 6 5.4 1.6 5.7 0.5 7.4-0.2 7.1 1.2 3.8 5.1 1.3 6.8 3.1 6.1 3.3 5.7 0.3 4 1.4 3.4 3.1 3.7 2.8 4.1z" id="AZHAC" name="Hajigabul">
  </path>
  <path d="M742.8 321.5l11.5-0.4 10-4.5 0.7-3.8 0.7-3.9 1.8-2.6 2-2.5 4.3-3.8 3.2-5.3 6 4 5.3 6.2 2.5 4.6 2.7 4.2 7.8 0.8 7.9-2.7 3 3.3 3.6 0.7 2.8-1.3 2.8-0.9 6.6 2 6.5 2.2 5.5 2.2-3 3.3-7 1.9-7.1 1.6-3.7 1.8-3.8 1.1-3.4-1.1-3.5-1-4.8 0.2-4.6 0.8-12.7 0.4-4 4.6-3.8 3.9-6.6 1-4.9 5 0.2 10.3 1.4 11.2-0.6 11.4-4.6 8.9-2.6 2.5-1.2 3.5 0.2 3.4-1.1 3.8-2.7 3.9-1.8 4.5 0.7 4.2 0.5 4.1-2.5 3.9-2.6 3.8-1.2 5.5-1.9 5.6-2.8-4.1-3.1-3.7-1.4-3.4-0.3-4-3.3-5.7-3.1-6.1-1.3-6.8-3.8-5.1-7.1-1.2-7.4 0.2-5.7-0.5-5.4-1.6-4.5-6-4.4-6.6-4.4-5-4.9-4.6-4.2-4.6-1.5-7.5 5.4 2.1 5 3.5 3 1.9 2.7-3.1 3.4-3.5 3.4-3.5 4.4-4.6 5.3-1.7 3.1-3.2 2.4-4.5 4.4-2.7 4.9-0.9 4.8-2.1 4.4-3.5 4.3-4.4 3.2-6z m51.9 19.4l4.9-3.1 6.4-0.3 3.4 5.1 1.7 2.9-1.9 2-3.4 1.7-3.7 0.4-3.5-0.8-1.2-3.8-2.3-3.5-0.4-0.6z" id="AZABS" name="Abşeron">
  </path>
  <path d="M260.1 361.9l3.7-10.8 7.2-7.9 0-6.1-5.2-3.9-5.2-4.5-4-6.3 5.6-8.4 5.1-7.9-3.6-3-4.3-2.6-5.5-4.2-5.8-3.7 5.7-4.1 6.3-1.5 5.1 0.1 4.2-3.1 0.8-3.5 0.5-3.7 1.2-2.9 1.3-3 0.4-4 0.6-3.9 2.2-4.3 2.5-4.2 4.7 10.2 5.2 12-1 2.4-1.5 2.5-1.8 2.4-1.1 3.2-1.2 3.3 1.4 6.3 6 0.8 5.8-5.5 4.4-7.4 9.2 0.8 4.2 9.8-0.3 12.2 2.3 2.7-0.9 3.6-3.4 4.2-3.6 3.9-5.6 5.3-5.1 6.1-3 4.9-3.6 4.4-4.6 11.6-0.2 14.1-13-1.9-12.1-4.5z" id="AZGYG" name="Xanlar">
  </path>
  <path d="M595.9 416.4l-0.8-1.2-1.2-0.9-1.4 0.1-1 0.4-0.8 0.6-0.6 0.2-1.9 2.1-1.2 0.5-1.1-3.3-1.1-1.5-1.4-1.2-1.2-0.6-2.7-0.4-2.9 0.6-5 2.5 0.2-2.7-0.7-0.8-1.3-0.1-1.4-0.6-8.4-5.2-1.2-2.4-0.9-5.7-2.4 0.2-3.1 2.7-3.2 2-1.6-0.6-1.8-1.5-1.9-0.9-1.6 0.9-0.6 1.7-0.1 2.3 0.2 4.4-0.9 1-1.8-0.4-2.6-1.3-0.7-0.2-1.6-1-0.9-0.1-0.9 0.5-1.4 1.8-1 0.4-1-0.7-2.5-2.8-1.2-0.7-1.6-0.4-0.2-0.1 3.8-2.8 4.6-2.2 3.5-3.9 2.5-4.6-1.7-14.6 0.2-15.1 3.9-4.2 3-5.5 1.3-8.1 0.8-8.4 6.6-3.7-1.2-10.9 6.4-1.5 6.2-2.4-3.1 8.4-1.3 8.7 4.2 4 5.5-1 2.6 2.5 3.4 3.3 4.3-3.6 4.6-3.9 6.9-0.5 6.1 3 0.4 8.1 0.2 7.6 4.6 1.6 4.4 2.3 3.4 6.8 5.4 4.5 2.8 5.1 0.8 7 0.4 8-1.3 8.5-5.1 2.8-4.1 4.1-5 3-4 3.9-1.3 2.7-2.3 3.4z" id="AZKUR" name="Kürdəmir">
  </path>
  <path d="M523.5 404l-1.5-0.6-1.6-0.4-1.5 0.9-3.2 0.9-1.6-3.5-0.2-0.4-0.8-5.2-0.2-2.4-2-1-2.1-0.2-0.7-0.1-2.5-0.7-1.1-2.7-0.8-5.4-1.8 0.1-4.8 6.1-1.8-1.3-1.4 0.5-1.4 0.9-1.8-0.1-1-0.9-0.9-2.4-1.3-1.1-3.8-0.5-3 1.8-2.6 2.3-2.4 0.8-0.4-1.1-3.7-6.1-3.2-6.8-0.9-1.3-0.8-0.5-0.2-0.7-0.1-0.1 0.8-1.6 1.3-1.2 2.9-1.3 1.2-1.7-12.3-1.5 0.1-1.1-0.4-0.6 3-2.6 5-5.5 2.4-5.2 2.1-5.5 9 6.1 8.8 6.7 2.5 3.9 2.5 3.4 3.9-0.6 3.8-2.5 7.8-0.3 8.1 1.1 8.7-1.4 8.8-0.6-0.2 15.1 1.7 14.6-2.5 4.6-3.5 3.9-4.6 2.2-3.8 2.8z" id="AZZAR" name="Zərdab">
  </path>
  <path d="M585.4 428.6l3.1-3.1 3.3-2.6 3-0.8 1.9-1.4 0.3-2.5-1.1-1.8 2.3-3.4 1.3-2.7 4-3.9 5-3 4.1-4.1 5.1-2.8 14.5 0.2 14 3.8 3.4 1.9-0.3 2.6 0.6 3.7 0.4 0.4 0.1 1 0 2.1 0.1 1.7 0.4 0.2 0.7-0.2 4 2.2 3.5 0.6 2.9 1 1.2 2.8 1.8 0.9 8.9 1.5 3.1 1 5.3 4.3-0.5 6 0 2.8 1.1 2.7 1.1 1.4 1.9 1 1 0.4 1 1.1 0 0.7 2.5 4.6 1.8 2.5 0.7 1.8 0.1 1.3-0.2 3.9 0.1 1.6 0.5 1.6 1.3 2.2 0.3 1.8-0.5 1.4-0.9 1.5-0.7 1.7 0.6 1.7 4.8 4.6 2.4 2.8 0.2 2.2-1.7 2.9-2.1 5.6-2.1 2-2.9 1.1-3.2 3.4-4.7 2.5 0.6 4.5-0.7 3.4-3.5-1.6-3.8-2.2-5.6 0.7-5.4 0.4-7.7-2.5-7.6-2.7-6.7-2.9-6.8-1.2-4.2-1.9 4.6-3.9 7.5-1.5 7.2-3.5 3.8-5.9 0-7-2-4.5-0.6-5.2 1-3.7 0.1-3.9-5-6.5-6.6-3-6.4-4.3-6.7-3.7-3.9-0.2-3.3 2-1.6 1.7-2-0.2-2.4-1.8-1.5-2.9 1.1-3.2 1.1-2.8-3.3-2.8-3.7-1.7-5.5 0.8-5.2 2.5-4.1 2.4-4.1 2.1-3.3 0.5-2.6-4.2z" id="AZSAB" name="Sabirabad">
  </path>
  <path d="M691.3 441.9l-2.2 2.1-1.2-0.4-1-1.1-1-0.4-1.9-1-1.1-1.4-1.1-2.7 0-2.8 0.5-6 2.2-0.7 3.4 0.9 4.1 0.2 1.8-0.3 1.5 0.9 0.7 1.7-0.2 2.2-0.1 3.8-2 2.5-2.4 2.5z" id="AZSR" name="Shirvan">
  </path>
  <path d="M605.5 501l-3.6-4.3-2.4-4.8-0.1-4.5 0.2-4.5 0.8-2.4 0.4-2.7-7.4-6.7-9.4-3.2-2.6-4-1.5-4.7 1.3-5.4 2.6-4.8 2-4.4-0.7-4.6-1.9-2.2-1.5-2.4 1.6-3.5 2.1-3.3 2.6 4.2 3.3-0.5 4.1-2.1 4.1-2.4 5.2-2.5 5.5-0.8 3.7 1.7 3.3 2.8-1.1 2.8-1.1 3.2 1.5 2.9 2.4 1.8 2 0.2 1.6-1.7 3.3-2 3.9 0.2 6.7 3.7 6.4 4.3 6.6 3 5 6.5-0.1 3.9-1 3.7 0.6 5.2 2 4.5 0 7-3.8 5.9-7.2 3.5-7.5 1.5-4.6 3.9 4.2 1.9-6.4 7.5-7.8-4.2-8.7-5.4-8.6 8.2z" id="AZSAT" name="Saatlı">
  </path>
  <path d="M426.8 390l-11.2-0.3-11 0.9-0.7-3.9-0.9-3.7-0.4-7 0.4-7 0.3-5.9-4.5-1.6-3.7-3.4-2.7-5-2.2-1.6-1.7-2.1-1.1-4.7-0.9-4.8 7.5-11.4 9.6-1.5 9.1-1.4 5.4-11.9 4.3-2.6 1.1-1.2 0.2 0.1 1.2 1 1.8 1.9-1.3 2.3-0.2 2.6 0.5 1.9 1.6-0.9 2.2-2.9 1.4-1.5 1.2-0.6 2.8 2.1-0.4 3.8-1 3.7 1.2 1.6 1.7 0.6 1.3 1.5 0.8 1.4 0.5 0.7 0.6 0.4-0.1 2 0.6 0.5 2.4 0 1.8-0.3 1.8-0.7 1.2 0.4-0.3 3.2-1 1.7-3.1 2.4-1.3 1.5 8.4 3.1 1.2 2.2-3.2 4.6 3 1.2 5.9-1 1.7 2.6-0.9 1.7-0.6 1.8-0.4 1.9-0.1 2.2 0.8-0.3 1.6 1.8 1 1.7 0.4 0.6-0.1 1.1 12.3 1.5-1.2 1.7-2.9 1.3-1.3 1.2-0.8 1.6 0.1 0.1-13.2 10-13 8.7-5.2 1.7-4.6-3.2-4-3.3 0.3 3.2z" id="AZBAR" name="Bərdə">
  </path>
  <path d="M192.8 256.5l-0.2-6.4 2.8-4.9 4.7-3.1 4.3-3.8 5.1-3.6 5.1-3.8 2.9-6.2 2.3-5.8 7.5-1.4 7.7 1 7.9 0.9 7.6-1.7 1.1-2.9 1.4-3.2 1.7-2.3 1.7-2.3 6.4-6.8 4.8-8.2 6.6 8.8 6.3 8.8 3.6 7-0.8 7.3-2.4 4-1.1 4.8-0.8 3.7-1.2 3.6-1.6 7.3 2.7 7.2-2.5 4.2-2.2 4.3-0.6 3.9-0.4 4-1.3 3-1.2 2.9-0.5 3.7-0.8 3.5-4.2 3.1-5.1-0.1-6.3 1.5-5.7 4.1-7.4-4-6.1 5.1-6.2 8.9-6.3 8.4-1-2.3 1-2.4-0.4-4.9 0.6-4.5-3.6-6.3-5.8-5.7-6.6-5.4-4.9-8.2-1-4.2-1.9-3.4-2.9-3.4-2.8-3.8z" id="AZSKR" name="Şəmkir">
  </path>
  <path d="M620.2 357.1l-3.2 4.6-2 6.2-5.4-4.5-3.4-6.8-4.4-2.3-4.6-1.6-0.2-7.6-0.4-8.1-6.1-3-6.9 0.5-4.6 3.9-4.3 3.6-3.4-3.3-2.6-2.5-5.5 1-4.2-4 1.3-8.7 3.1-8.4 3 1.9 2.8-2.2 0.6-2.9 0.6-3.1 2.7-3.2 3.1-2.5 4-2.3 3.6-2.6 0.8-2 1.3-1.8 2.6-1.3 2.6-1.2 10.1-4.9 9.3-6.9 4.8-8.5 2.9-10.1 1.4 2.8 1.1 2.8 4.8 4.9 3 6.4-1.7 3.8-2 3.8 0.2 1.5 0 2.1-1.1 1.7-1.2 1.7-6.8 6.4-1.7 8.6 4.4 5.6 5.9 2.5 5.4 0.1 5.4 0.2 3.4 1.8 3.2 2.4 3.4 1.7 2.6 2.1-2.4 2.9-3.2 1.7-7.9 3.4-6.8 5.5-0.5 4.9-0.5 5-3 4.2-3.4 4.1z" id="AZAGU" name="Ağsu">
  </path>
  <path d="M652.2 241.7l8 3.9 7.9 4.3-2 10.4 6 8.8-6.4 3.8-5.8 4.5-2 8.6 0.6 9-2.8 3.9-2.3 3.9 1.5 2.6 2.3 1.9 0.7 3.4 0 3.9 1.2 4.2 0.5 4.4-0.2 3.6 0.7 2.9 1.9 2.9-1 3.4-1.8 3.6-1.8 3.6-0.9 4.2-2.7 2.3-4.4 2.5 1 3.1 6-0.2 6.2-0.7-2 7.9-4.5 5.1-5.1 2.6-5.4-2.6-6.6-3.2-6.4-3.8-6.2-1.8-6.2-1.5 3.4-4.1 3-4.2 0.5-5 0.5-4.9 6.8-5.5 7.9-3.4 3.2-1.7 2.4-2.9-2.6-2.1-3.4-1.7-3.2-2.4-3.4-1.8-5.4-0.2-5.4-0.1-5.9-2.5-4.4-5.6 1.7-8.6 6.8-6.4 1.2-1.7 1.1-1.7 0-2.1-0.2-1.5 2-3.8 1.7-3.8-3-6.4-4.8-4.9-1.1-2.8-1.4-2.8 4.9-8.9-1-9.1-8.2-5.8-6.8-8 12.5 0.2 12.2 3.5 10 4.3 10.4 3z" id="AZSMI" name="Şamaxı">
  </path>
  <path d="M636 120.2l3.2 6.2 4 6.2 2.8 5.8 2.9 5.6 2.6 3.8 3.9-1 3.7-1.3 3.1 2.7-1.8 8.5 0.1 8.4 2.1 2.6 0.1 3-2 2.6-2 2.5-8.1 7.1-4.1 10 6.5 6.6 5.7 7.5-2.1 5.2-4 3.1-2.9 4.5 2.3 5 0.8 7.8-0.6 9.1-10.4-3-10-4.3-12.2-3.5-12.5-0.2-9.2-8.1-11.7-0.9-8.5-3.9-8.3-4.9-4.3-2.5-4.4-1.8-4.7-0.4-4.6-1.1-12.3-7.2-3.9-12.3 30.1-23 30.7-21.6 10.6-8.9 11.5-5.9 9.2-2.9 8.7-5.1z" id="AZQBA" name="Quba">
  </path>
  <path d="M545.4 334.6l-0.8 8.4-1.3 8.1-3 5.5-3.9 4.2-8.8 0.6-8.7 1.4-8.1-1.1-7.8 0.3-3.8 2.5-3.9 0.6-2.5-3.4-2.5-3.9-8.8-6.7-9-6.1-2.4-4.7-4.3-2.5-2.3-5.1 1.1-6 1.3-7.4 4.5-3.1 5.9-0.6 6 1.9 2.6 3.1 3.3 2.6 3.1-1.1 3.3-1.1 4.1 2.3 3.8 3.1 3.7 1.6 3.1-1.6 2.6-2.2 3.2 0.3 5.2 2.7 5.3 2.7 5.7 2.7 6.1 0.8 4-0.5 4 1.7z" id="AZUCA" name="Ucar">
  </path>
  <path d="M672.1 269.1l9 2.7 8.3 6.3 3.7 3.4 3.4 4.4 6 6.6 6.8 5.1 8.4 2.9 6.7 6.9 8.3 8.7 10.1 5.4-3.2 6-4.3 4.4-4.4 3.5-4.8 2.1-4.9 0.9-4.4 2.7-2.4 4.5-3.1 3.2-5.3 1.7-4.4 4.6-3.4 3.5-3.4 3.5-2.7 3.1-3-1.9-5-3.5-5.4-2.1-8.5 0.8-7.6-4.1-6.2 0.7-6 0.2-1-3.1 4.4-2.5 2.7-2.3 0.9-4.2 1.8-3.6 1.8-3.6 1-3.4-1.9-2.9-0.7-2.9 0.2-3.6-0.5-4.4-1.2-4.2 0-3.9-0.7-3.4-2.3-1.9-1.5-2.6 2.3-3.9 2.8-3.9-0.6-9 2-8.6 5.8-4.5 6.4-3.8z" id="AZQOB" name="Qobustan">
  </path>
  <path d="M505 286.9l4.2-5.2 3.9-5.5 3.2-6 4.6-3.9 7.1-3.2 6-4.8 0.1-4.7 0.5-4.5 2-0.8 2.4-0.4 4.5-3.9 0.5-6.3-3.8-6.5-1.6-6.8 0.9-2.5 1.3-2.1 2.2 0.2 2.2 0.5 1.2-3.2 0.8-3.8 1.8-3.5 2.4-2.9 4.6 1.1 4.7 0.4 4.4 1.8 4.3 2.5 8.3 4.9 8.5 3.9 11.7 0.9 9.2 8.1 6.8 8 8.2 5.8 1 9.1-4.9 8.9-2.9 10.1-4.8 8.5-9.3 6.9-10.1 4.9-2.6 1.2-2.6 1.3-1.3 1.8-0.8 2-3.6 2.6-4 2.3-3.1 2.5-2.7 3.2-0.6 3.1-0.6 2.9-2.8 2.2-3-1.9-6.2 2.4-6.4 1.5-0.6-8.2 3.8-9.4-6.5-5.5-8.3-2.2-7.9-2.6-7.8-0.9-3.9 0.3-3.9-1.3-5.3-1.8-5.4-1.5z" id="AZISM" name="İsmayıllı">
  </path>
  <path d="M418.2 308.4l-5.4-0.3-4.9-2.9-2.2-6.7 2.7-4.3 7.1-0.1 3.4-0.1 1.8 0.2 0.7 0.6-0.3 2.7-0.8 2-0.7 1.5-0.4 1.5 0.1 2.5 0.4 1.3-1.5 2.1z" id="AZYEV" name="Yevlakh Rayon">
  </path>
  <path d="M288.8 276.7l7.9 0.2 3.1 7.8-4.4 7.4-5.8 5.5-6-0.8-1.4-6.3 1.2-3.3 1.1-3.2 1.8-2.4 1.5-2.5 1-2.4z" id="AZGA" name="Gəncə">
  </path>
  <path d="M389.6 267.4l3.1-1.1 3 0.1 1.6 2.2 1.5 2.8-12.6 5.2-7.3-8.8 4.8-2.6 5.9 2.2z" id="AZMI" name="Mingəçevir">
  </path>
  <path d="M482.7 294.1l5.7-3.2 6-1.4 5.5-0.2 5.1-2.4 5.4 1.5 5.3 1.8 3.9 1.3 3.9-0.3 7.8 0.9 7.9 2.6 8.3 2.2 6.5 5.5-3.8 9.4 0.6 8.2 1.2 10.9-6.6 3.7-4-1.7-4 0.5-6.1-0.8-5.7-2.7-5.3-2.7-5.2-2.7-3.2-0.3-2.6 2.2-3.1 1.6-3.7-1.6-3.8-3.1-4.1-2.3-3.3 1.1-3.1 1.1-3.3-2.6-2.6-3.1 0.6-6.8 1.9-6.2 1.9-2 0.6-2.3-2.1-3-2.5-3.1z" id="AZGOY" name="Göyçay">
  </path>
  <path d="M432.1 263.5l6.4 1.4 6.4 1.6 3.9 1.7 3.8 0 1.2-0.8 1.5-0.7 2.8 0.9 2.7 1.3 5.9 1.4 6.2-1.2 0.5 9 0.4 9 3.8 4.1 5.1 2.9 2.5 3.1 2.1 3-0.6 2.3-1.9 2-1.9 6.2-0.6 6.8-6-1.9-5.9 0.6-4.5 3.1-1.3 7.4-1.1 6 2.3 5.1 4.3 2.5 2.4 4.7-2.1 5.5-2.4 5.2-5 5.5-3 2.6-1-1.7-1.6-1.8-0.8 0.3 0.1-2.2 0.4-1.9 0.6-1.8 0.9-1.7-1.7-2.6-5.9 1-3-1.2 3.2-4.6-1.2-2.2-8.4-3.1 1.3-1.5 3.1-2.4 1-1.7 0.3-3.2-1.2-0.4-1.8 0.7-1.8 0.3-2.4 0-0.6-0.5 0.1-2-0.6-0.4-0.5-0.7-0.8-1.4-1.3-1.5-1.7-0.6-1.2-1.6 1-3.7 0.4-3.8-2.8-2.1-1.2 0.6-1.4 1.5-2.2 2.9-1.6 0.9-0.5-1.9 0.2-2.6 1.3-2.3-1.8-1.9-1.2-1-0.2-0.1 2.5-3 1.5-6.3-1.9-6.2 0.1-7.4 2-6.9 2.2-8.2 2.2-8.4z" id="AZAGS" name="Ağdaş">
  </path>
  <path d="M463.6 477.4l-12.1 2.9-11.9 3.3 4.3-8.6-2.3-7.8-2-1.2-5.7-3.7-2.6-5.8-1.4-3.1 1.2-0.7 1.2-1 3.3-7.1-3.5-5.8-6.9 1-6.5 2.5-0.1 0-12.7-2.8-3.4-9.9 2-1.3 1.9-1.5 0.4-5.7 0.2-5.6 4.3-1.3 0.5-0.2 1-0.3 4.3-3.9-4.6-4 0.6-4.6 7.3-4.7 6.4-6.5-0.3-3.2 4 3.3 4.6 3.2 5.2-1.7 13-8.7 13.2-10 0.2 0.7 0.8 0.5 0.9 1.3 3.2 6.8 3.7 6.1 0.4 1.1 2.4-0.8 2.6-2.3 3-1.8 3.8 0.5 1.3 1.1 0.9 2.4 1 0.9 1.8 0.1 1.4-0.9 1.4-0.5 1.8 1.3 4.8-6.1 1.8-0.1 0.8 5.4 1.1 2.7 2.5 0.7 0.7 0.1-6.7 15.1-3.5 7.7-1.5 9.8-1.8 9.5-2.3 7.2-4.6 4.8-5.2 1.5-5 2.1-3.7 0.3-3.7-0.3-1.8 1.3-1.1 2.1-4.7 2-2.7 4.4 1.1 3.3 0.9 2.6-2 1.4-2.1 1.7 2.2 4 3 4.8z" id="AZAGC" name="Ağcabədi">
  </path>
  <path d="M353.9 464.9l-2.5-1.7-0.4-4.7 2.6-3.7 2.3-2 1.1-0.7 1 0.4 1.7 0.9 1.2 2.4-0.6 1.6-1.3 0.1-0.7 2-1.5 3.7-2.9 1.7z" id="AZXA" name="Stepanakert">
  </path>
  <path d="M418.2 308.4l-5.4-0.3-4.9-2.9-2.2-6.7 2.7-4.3 7.1-0.1 3.4-0.1 1.8 0.2 0.7 0.6-0.3 2.7-0.8 2-0.7 1.5-0.4 1.5 0.1 2.5 0.4 1.3-1.5 2.1z" id="AZYEV" name="Yevlakh">
  </path>
  <path d="M363.5 323.6l-1-1-0.6-1.3 0.7-0.8 0.8-1.1 1-0.8 1.2 1 0.8 0.9 0.1 0.9-0.2 1-1.4 1.1-1.4 0.1z" id="AZNA" name="Naftalan">
  </path>
  <path d="M420.6 188.1l-6.4-1.8 0.4-3.1 1.4-4.3 1-3.9 1.1-3.3 1.7-1.4 1.9 1.4 3.2 5.6 0.4 4.1-2.5 5.5-2.2 1.2z" id="AZSA" name="Şəki">
  </path>
  <path d="M319.8 473.5l3.5-0.5 0.8-0.1 2.8-0.4 3.2-1.6 3.2-1.6 6.6-0.8 7 1.1 4.1 1.1 2.7 0.6 2.9 2.4 1.6 7 0.3 5.7 0.1 4-0.1 3.8-4.1 6.7-2.9 4.5-0.6 1-0.8 1.2-0.2-1.9-0.5-3.8-2.2-4.4-4.3-0.4-4.2 1.4-0.1 0.1-3.6 6.1-1.1 1.9-6.5 0.8-2.7-2.4-3-1.5-3.4-1.3-0.6-5.4 2.1-5.5 1.7-3.5 0.8-1.7-0.3-2.3-0.6-4-1.6-6.3z" id="AZSUS" name="Şuşa">
  </path>
 </g>
 <g id="points">
  <circle class="38.567534655258314|45.06711779067007" cx="90.9" cy="712" id="0">
  </circle>
  <circle class="39.9666533512851|47.99271002419153" cx="545.5" cy="431.2" id="1">
  </circle>
  <circle class="41.71555172131859|50.3331838110087" cx="909.1" cy="72" id="2">
  </circle>
 </g>
 <g id="label_points">
  <circle class="Qazax" cx="125" cy="185.9" id="AZQAZ">
  </circle>
  <circle class="Ağstafa" cx="159.7" cy="164.6" id="AZAGA">
  </circle>
  <circle class="Tovuz" cx="193.4" cy="212.3" id="AZTOV">
  </circle>
  <circle class="Gədəbəy" cx="188.3" cy="326.8" id="AZGAD">
  </circle>
  <circle class="Daşkəsən" cx="235.8" cy="332" id="AZDAS">
  </circle>
  <circle class="Kəlbəcər" cx="263.9" cy="405" id="AZKAL">
  </circle>
  <circle class="Lankaran" cx="290.8" cy="470.7" id="AZLAN">
  </circle>
  <circle class="Qubadli" cx="329.6" cy="557.1" id="AZQBI">
  </circle>
  <circle class="Zəngilan" cx="328.6" cy="612.7" id="AZZAN">
  </circle>
  <circle class="Şərur" cx="84.3" cy="508.4" id="AZSAR">
  </circle>
  <circle class="Sədərək" cx="52.6" cy="488.9" id="AZSAD">
  </circle>
  <circle class="Kangarli" cx="106.2" cy="545.7" id="AZKAN">
  </circle>
  <circle class="Babək" cx="132.3" cy="559.6" id="AZBAB">
  </circle>
  <circle class="Şahbuz" cx="175.2" cy="539.3" id="AZSAH">
  </circle>
  <circle class="Culfa" cx="182.9" cy="591.3" id="AZCUL">
  </circle>
  <circle class="Ordubad" cx="218.6" cy="617.5" id="AZORD">
  </circle>
  <circle class="Balakən" cx="304.6" cy="72.1" id="AZBAL">
  </circle>
  <circle class="Zaqatala" cx="339" cy="94.4" id="AZZAQ">
  </circle>
  <circle class="Xaçmaz" cx="659.6" cy="113.7" id="AZXAC">
  </circle>
  <circle class="Qusar" cx="581.5" cy="134.7" id="AZQUS">
  </circle>
  <circle class="Oğuz" cx="466.2" cy="206.6" id="AZOGU">
  </circle>
  <circle class="Şəki" cx="407.4" cy="217.3" id="AZSA">
  </circle>
  <circle class="Qax" cx="361.1" cy="139.1" id="AZQAX">
  </circle>
  <circle class="Qəbələ" cx="512.7" cy="233.2" id="AZQAB">
  </circle>
  <circle class="Samux" cx="302.4" cy="241.1" id="AZSMX">
  </circle>
  <circle class="İmişli" cx="554" cy="445.1" id="AZIMI">
  </circle>
  <circle class="Biləsuvar" cx="614.1" cy="526.3" id="AZBIL">
  </circle>
  <circle class="Cəlilabad" cx="622.1" cy="590.9" id="AZCAL">
  </circle>
  <circle class="Yardımlı" cx="577.3" cy="655.5" id="AZYAR">
  </circle>
  <circle class="Lerik" cx="621.2" cy="683" id="AZLER">
  </circle>
  <circle class="Cəbrayıl" cx="378.6" cy="568.1" id="AZCAB">
  </circle>
  <circle class="Füzuli" cx="436.3" cy="511.6" id="AZFUZ">
  </circle>
  <circle class="Beyləqan" cx="492" cy="473.7" id="AZBEY">
  </circle>
  <circle class="Astara" cx="654.9" cy="727" id="AZAST">
  </circle>
  <circle class="Dəvəçi" cx="671.5" cy="191.3" id="AZSBN">
  </circle>
  <circle class="Siyəzən" cx="713.5" cy="207.2" id="AZSIY">
  </circle>
  <circle class="Xizı" cx="745.3" cy="283.5" id="AZXIZ">
  </circle>
  <circle class="Sumqayıt" cx="796.8" cy="305.7" id="AZSM">
  </circle>
  <circle class="Bakı" cx="855.6" cy="331.8" id="AZBA">
  </circle>
  <circle class="Salyan" cx="725" cy="489.9" id="AZSAL">
  </circle>
  <circle class="Neftçala" cx="713.4" cy="550.8" id="AZNEF">
  </circle>
  <circle class="Lankaran" cx="720.5" cy="595.1" id="AZLA">
  </circle>
  <circle class="Masallı" cx="658.9" cy="629.9" id="AZMAS">
  </circle>
  <circle class="Lankaran" cx="677.7" cy="674.7" id="AZLA">
  </circle>
  <circle class="Naxçıvan" cx="146.2" cy="583.2" id="AZNX">
  </circle>
  <circle class="Xocalı" cx="337.9" cy="447.6" id="AZXCI">
  </circle>
  <circle class="Ağdam" cx="385.1" cy="413.1" id="AZAGM">
  </circle>
  <circle class="Tərtər" cx="354.7" cy="369.2" id="AZTAR">
  </circle>
  <circle class="Goranboy" cx="338.9" cy="313.5" id="AZGOR">
  </circle>
  <circle class="Xocavənd" cx="393" cy="475.5" id="AZXVD">
  </circle>
  <circle class="Hajigabul" cx="674.2" cy="394.8" id="AZHAC">
  </circle>
  <circle class="Abşeron" cx="742.6" cy="365.3" id="AZABS">
  </circle>
  <circle class="Xanlar" cx="282.7" cy="320.4" id="AZGYG">
  </circle>
  <circle class="Kürdəmir" cx="577.6" cy="375.6" id="AZKUR">
  </circle>
  <circle class="Zərdab" cx="518.5" cy="378.8" id="AZZAR">
  </circle>
  <circle class="Sabirabad" cx="674.2" cy="463.3" id="AZSAB">
  </circle>
  <circle class="Shirvan" cx="688.5" cy="435.6" id="AZSR">
  </circle>
  <circle class="Saatlı" cx="622.6" cy="468.1" id="AZSAT">
  </circle>
  <circle class="Bərdə" cx="424.7" cy="358.1" id="AZBAR">
  </circle>
  <circle class="Şəmkir" cx="241.1" cy="254" id="AZSKR">
  </circle>
  <circle class="Ağsu" cx="598.9" cy="315.9" id="AZAGU">
  </circle>
  <circle class="Şamaxı" cx="643.8" cy="265.3" id="AZSMI">
  </circle>
  <circle class="Quba" cx="610.4" cy="181.5" id="AZQBA">
  </circle>
  <circle class="Ucar" cx="500" cy="344.2" id="AZUCA">
  </circle>
  <circle class="Qobustan" cx="688.6" cy="323" id="AZQOB">
  </circle>
  <circle class="İsmayıllı" cx="569.7" cy="263.2" id="AZISM">
  </circle>
  <circle class="Yevlakh Rayon" cx="390.9" cy="296.5" id="AZYEV">
  </circle>
  <circle class="Gəncə" cx="290.8" cy="286.6" id="AZGA">
  </circle>
  <circle class="Mingəçevir" cx="387.1" cy="271.4" id="AZMI">
  </circle>
  <circle class="Göyçay" cx="518.8" cy="308.8" id="AZGOY">
  </circle>
  <circle class="Ağdaş" cx="451.3" cy="298.4" id="AZAGS">
  </circle>
  <circle class="Ağcabədi" cx="455.2" cy="421.1" id="AZAGC">
  </circle>
  <circle class="Stepanakert" cx="355.1" cy="458.5" id="AZXA">
  </circle>
  <circle class="Yevlakh" cx="413.9" cy="301.2" id="AZYEV">
  </circle>
  <circle class="Naftalan" cx="364.4" cy="321.2" id="AZNA">
  </circle>
  <circle class="Şəki" cx="420.5" cy="180.3" id="AZSA">
  </circle>
  <circle class="Şuşa" cx="338.8" cy="483.5" id="AZSUS">
  </circle>
 </g>
</svg>