<?xml version="1.0"?>
    
<!--********* Copyright (c) 2024 Pareto Softare, LLC DBA Simplemaps.com ***************************************
************* Free for Commercial Use, full terms at  https://simplemaps.com/resources/svg-license ************
************* Attribution is appreciated! https://simplemaps.com *******************************************-->

<svg baseprofile="tiny" fill="#6f9c76" height="1000" stroke="#ffffff" stroke-linecap="round" stroke-linejoin="round" stroke-width=".5" version="1.2" viewbox="0 0 1000 1000" width="1000" xmlns="http://www.w3.org/2000/svg">
 <g id="features">
  <path d="M484.1 357.7l27.8 38.5 56 43-7.1 3.2-49.5 46.2-1.4 0.4-1.2 0.1-2.7 0-1.4 5.8-0.7 4.3-2.9 48.5-2 0.2-40.4 7.4-25.7-51.9-8.1-9.8-4.2-3.8-42.6-26.8 31.1-72.7 9.5-15.2 1.7-0.5 1.2-0.1 1.1 0.1 0.8 0.5 0.8 0.6 1 1.6 0.9 0.8 3.7 1.8 9.1-2.4 38.1-18.1 7.1-1.7z" id="BB06" name="Saint Joseph">
  </path>
  <path d="M484.1 357.7l-7.1 1.7-38.1 18.1-9.1 2.4-3.7-1.8-0.9-0.8-1-1.6-0.8-0.6-0.8-0.5-1.1-0.1-1.2 0.1-1.7 0.5-9.5 15.2-31.1 72.7-13.8-18.2-10.7-4-35.9 2-15.2-79.7 1.8-104.6 4-8 2.9-13.5 1.8-0.6 1-0.7 0.8-0.3 0.8 0.3 1 0.4 0.9 0.9 1.9 1 2.1 0.8 2.5 0.8 1.4 0 1.6-0.5 1.3-0.3 1.4-0.2 2.3 0.4 0.9 0 1-0.2 0.7-0.2 1.1 0.4 1.8 1.2 4.5-0.4 7.1-2.9 12.9-12.5 6.9-4 4.3-1.3 1.5 0.8 1.6 0.5 1.1 0.1 1 0.8 1.4 0.2 1.8-0.2 5-4.5 0.6 0 0.3 0.4 4.2 0.9 17.5-0.6 5.2-1.9 57.8 125.5 12 16.6z" id="BB02" name="Saint Andrew">
  </path>
  <path d="M414.3 215.6l-5.2 1.9-17.5 0.6-4.2-0.9-0.3-0.4-0.6 0-5 4.5-1.8 0.2-1.4-0.2-1-0.8-1.1-0.1-1.6-0.5-1.5-0.8-4.3 1.3-6.9 4-12.9 12.5-7.1 2.9-4.5 0.4-1.8-1.2-1.1-0.4-0.7 0.2-1 0.2-0.9 0-2.3-0.4-1.4 0.2-1.3 0.3-1.6 0.5-1.4 0-2.5-0.8-2.1-0.8-1.9-1-0.9-0.9-1-0.4-0.8-0.3-0.8 0.3-1 0.7-1.8 0.6-2.9 13.5-4 8-1.8 104.6-65.4-8.8-50.6 23.8-19-5-6.4-108.5 11.9-2.6 55.8-37.5 161.9-52.8 2.7-1.7 21 45.6z" id="BB09" name="Saint Peter">
  </path>
  <path d="M393.3 170l-2.7 1.7-161.9 52.8-55.8 37.5-11.9 2.6-3.9-65.9 6.1-48 21.3-40.7 42.9-44.1 54.5-20.4 55.4 30.2 41.5 62.9 14.5 31.4z" id="BB07" name="Saint Lucy">
  </path>
  <path d="M302.4 363.1l15.2 79.7-16.3 22-4.5 4.3-0.5-0.3-0.6-0.2-0.3 0.2-0.6 0.6-0.8 0.7-0.5 0.1-0.9-0.1-0.5 0-0.7-0.2-1.1 0-0.7 0.2-0.7 0.4-2.1 1.3-0.4 0.3-1 0.5-0.5 0.2-0.5 0-3.3 2.9-1 0.6-0.7 0.3-0.6 0-0.5 0.4-1.1 0-0.7 0-0.5 0.1-1.4 1-5.6 2.1-1.8 5.4-8 34.9-4.2 10.3-3.1 6-3.1 1-1.1 0.8-0.8 1.1-1.1 2.9-0.6 1.6-0.8 0.6 1.4 1.6 3.9 2.3 20 22.7 17.5 76.2-32 25-2.7 2.9-5.4 4.2-14.9 6.5-6.2 3.7-0.1 0.6-3.8-2.2-15.4-14.6-8.5 0.7-16.5-58.1-14.3-243.2 19 5 50.6-23.8 65.4 8.8z" id="BB04" name="Saint James">
  </path>
  <path d="M198.2 674.4l8.5-0.7 15.4 14.6 3.8 2.2 0.1-0.6 6.2-3.7 14.9-6.5 5.4-4.2 2.7-2.9 32-25 48.4-9.9 4.2-1.9 19.8-22.4 50.2 164.5 4.5 20.5 0.4 4.2-1.3 0.2-93.5 49.7-23.8-1.7-40.5-28.8-34.9-68-22.5-79.6z" id="BB08" name="Saint Michael">
  </path>
  <path d="M319.9 852.5l93.5-49.7 1.3-0.2-0.4-4.2-4.5-20.5 173-65.7 28.2 8.8 4.5 4.4 5.1 8.4 4.9 33.7 0.9 2.4 17.7 30.5 3.8 8.6-0.1 1.3 2.9 2.2 5.1 1.6 17.2 6.7 7.7 3.9 14.7 20.5-35.4 24.5-64.4 65.8-23.7 2.9-19.2-0.2-18.7 3.2-20.6 13.1-29.7-51.1-55.8-32-67.7-16-40.3-2.9z" id="BB01" name="Christ Church">
  </path>
  <path d="M695.4 845.2l-14.7-20.5-7.7-3.9-17.2-6.7-5.1-1.6-2.9-2.2 0.1-1.3-3.8-8.6-17.7-30.5-0.9-2.4-4.9-33.7-5.1-8.4-4.5-4.4-28.2-8.8 13.3-50.6 40.3-53.3 21.6-8.7 20.3-12.8 3.9-3.8 33.1-40.4 4.6-7.4 31.9 10.5 55.7 25.7 35.4 44.9-9.5 106.7-77.5 80.2-60.5 42z" id="BB10" name="Saint Philip">
  </path>
  <path d="M501 547.7l2.9-48.5 0.7-4.3 1.4-5.8 2.7 0 1.2-0.1 1.4-0.4 49.5-46.2 7.1-3.2 79.2 60.7 45.6 26.5 27.2 8.8-4.6 7.4-33.1 40.4-3.9 3.8-20.3 12.8-21.6 8.7-40.3 53.3-25.8-48.5-6-6.8-63.3-58.6z" id="BB05" name="Saint John">
  </path>
  <path d="M458.6 555.3l40.4-7.4 2-0.2 63.3 58.6 6 6.8 25.8 48.5-13.3 50.6-173 65.7-50.2-164.5 71.1-28.2 6.1-3.7 21.8-26.2z" id="BB03" name="Saint George">
  </path>
  <path d="M378 463l42.6 26.8 4.2 3.8 8.1 9.8 25.7 51.9-21.8 26.2-6.1 3.7-71.1 28.2-19.8 22.4-4.2 1.9-48.4 9.9-17.5-76.2-20-22.7-3.9-2.3-1.4-1.6 0.8-0.6 0.6-1.6 1.1-2.9 0.8-1.1 1.1-0.8 3.1-1 3.1-6 4.2-10.3 8-34.9 1.8-5.4 5.6-2.1 1.4-1 0.5-0.1 0.7 0 1.1 0 0.5-0.4 0.6 0 0.7-0.3 1-0.6 3.3-2.9 0.5 0 0.5-0.2 1-0.5 0.4-0.3 2.1-1.3 0.7-0.4 0.7-0.2 1.1 0 0.7 0.2 0.5 0 0.9 0.1 0.5-0.1 0.8-0.7 0.6-0.6 0.3-0.2 0.6 0.2 0.5 0.3 4.5-4.3 16.3-22 35.9-2 10.7 4 13.8 18.2z" id="BB11" name="Saint Thomas">
  </path>
 </g>
 <g id="points">
  <circle class="13.065842953356334|-59.64284012991298" cx="191.4" cy="909.1" id="0">
  </circle>
  <circle class="13.183193238979644|-59.52919267672348" cx="534.3" cy="545.6" id="1">
  </circle>
  <circle class="13.329881096008782|-59.43827471417188" cx="808.6" cy="90.9" id="2">
  </circle>
 </g>
 <g id="label_points">
  <circle class="Saint Joseph" cx="465.6" cy="441.7" id="BB06">
  </circle>
  <circle class="Saint Andrew" cx="377" cy="314.6" id="BB02">
  </circle>
  <circle class="Saint Peter" cx="241.6" cy="287.6" id="BB09">
  </circle>
  <circle class="Saint Lucy" cx="268.7" cy="130.9" id="BB07">
  </circle>
  <circle class="Saint James" cx="247.7" cy="420.9" id="BB04">
  </circle>
  <circle class="Saint Michael" cx="310.9" cy="741" id="BB08">
  </circle>
  <circle class="Christ Church" cx="549.1" cy="831.9" id="BB01">
  </circle>
  <circle class="Saint Philip" cx="718.4" cy="691" id="BB10">
  </circle>
  <circle class="Saint John" cx="594.8" cy="544.1" id="BB05">
  </circle>
  <circle class="Saint George" cx="478.7" cy="658.6" id="BB03">
  </circle>
  <circle class="Saint Thomas" cx="345.4" cy="535.3" id="BB11">
  </circle>
 </g>
</svg>