<?xml version="1.0"?>
    
<!--********* Copyright (c) 2024 Pareto Softare, LLC DBA Simplemaps.com ***************************************
************* Free for Commercial Use, full terms at  https://simplemaps.com/resources/svg-license ************
************* Attribution is appreciated! https://simplemaps.com *******************************************-->

<svg baseprofile="tiny" fill="#6f9c76" height="736" stroke="#ffffff" stroke-linecap="round" stroke-linejoin="round" stroke-width=".5" version="1.2" viewbox="0 0 1000 736" width="1000" xmlns="http://www.w3.org/2000/svg">
 <g id="features">
  <path d="M843.5 461.6l-0.1 0-0.1-0.1-1.3-1.4-8.2-6.7-8.8-5.7-3.4-5 0.5-10-0.9-1.9 1.9-1.2 2.5-4.5 1.3-5 1.7-4.3 1.2-5.7 0-6.1 3-19.2 0.1-3.6-3.3-1.2-4.1-0.7-5-2.7-2.6-6.1 1.3-5.1 0.7-5.2-2.1-11.7 0-6.4 2.3-5.2 2.6-4.6 2.5-10.8 1-2.6 0.8-3.8-1.3-3.5-0.5-3 0.5-2.1 4.1-7.6 3 2.5 9.4 7.9 6.3 5.4 7.9 6.7 3.2 1.8 3.8 1 11.8 1 14.5 1.3 2.1-0.2 1.9-1.3 1.4-2.1 1.2-2.3 2-2.9 0.7-1.5 0.5-0.6 1-0.2 0.8 0.4 0.9 0.2 1.3-0.9 1.9-2.1 1.1-0.7 11.1 1 4.6 1.2 3.1 3.6 0.6 2.3 0.5 0.6 1.2 1.3 1.2 0.9 2.1 1.4 1 1.3 0.8 1.6 0.4 1.4 0.8 7.1 0.6 1.5 0.9 1.9 0.7 0.9 1.5 1.6 0.4 0.9 0 0.5-0.4 1.2 0 0.6 0.3 2.6-0.8 1.2-1.7 0.5-6.9 0.6-0.5-0.2-1.3-0.6-0.3-0.1-0.7 0.4-0.9 1.2-0.5 0.4-6.6 1.4-1.8 1.4-0.2 3.4 2.2 4.2 4.9 6.9 8.6 12 8.1 11.4 9.1 12.8 5.9 5.1-4.1 11.3-1.6 3.1-4.4 4.9-1.3 3.4 0 2 0.1 1.3-0.5 1.1-1.5 1.6-6.2 3.4-8.4 6.9-15.1 15.5-0.5 0.6-3.2 1.5-4.1-0.3-4.8-1.9-3-1.4-1.4-0.2-1.1 0.7-2-0.6-2.2 0.5-4.5 1.8-2.2 0.1-5.1-0.3-1.7 0.5-2.2 1.1-5.4 1.1-1.9 1.1-2.3 0.8-2.4-4.5-2 0.1 0.2-0.8 0.3-1.6 0.2-0.8-10.8-0.9-2.2-0.5-1.9-1-0.6 1.7-1.2 0.6z" id="BFTAP" name="Tapoa">
  </path>
  <path d="M821.2 430.8l0.9 1.9-0.5 10 3.4 5 8.8 5.7 8.2 6.7 1.3 1.4 0.1 0.1 0.1 0-1.4 0.5-1.5 1.1-1 1.4-0.1 1 1.1 2.5-1.9 1.2-2.6 1.1-2.3 1.5-1 2.2 0.7 2 1.1 1.6 0.2 1.5-2 1.8-0.8-1-0.8-0.3-0.8 0.3-0.8 1-0.7-1.3-1.4-1.5-1.3-0.7-0.5 1.4 0.2 0.9 1.1 1.2 0.3 1.1-0.2 0.9-1.4 2.8-3.8-1.9-1.9-0.5-2.2-0.1-1 0.2-0.6 0.4-0.6 0.3-1 0 0.2-0.6-0.9-1.4-1.1-0.9-1.2 1.9-1.2 1.1-0.6 1.5 2.2 3.5 0.4 4 0.6 2.1-1.2-0.5-2.2-1.1-1.3 0-0.5 0.6-0.8 2.2-0.6 0.4-3.8 0.9-0.6 0.2 0.1 1.8 0.4-0.1 0.8-0.7 1 0.2 0.2 0.5-0.2 1.5 0 0.5 0.4 0.2 1.1 0.6 0.2-0.1 0.2 1.4 0 1.4 0.2 1.2 0.8 1.3 1.3 1.3-0.2 1.9-0.4 0.5-0.8-0.8-0.8-1.1-0.3-0.6-1.2-0.4-3.5-0.4-0.5 0.1-1.2 0.7-0.7 0-0.3-0.3-0.6-1.1-0.3-0.3-0.6-0.2-0.6-0.6-0.8-0.5-2.5-0.4-0.5-0.2-0.5 0.2-0.8 1-0.7 1.5-0.9 1.4-0.4 0.3-0.2 1.2 0.1 1.3 0.4 1.1 0.9 0.4 0.7 0.6 0.1 1.4-0.3 1.4-0.5 0.6-2 0-1.6-0.2-3.5-2-14.9 0.3-11.1 0.2-7.2 1.4-14.3 5.1 1.4-5-1.9-0.4 0.4-0.5 0.2-0.5 0.1-0.5 0.1-0.5 0-0.4-0.2-0.2-0.3-0.2-12.8-2.6 0.3-1 4.4-9.3 1.6-1.6 1.6 0.8 1.3 1.9 1.8 2.2 2 0.5 1.1-1.5 0.2-3.3 0.7-3 1.4-2.1 4.2-5 0-1.3-0.1-1.1 0.6-1.9-0.6-2.1-1.1-1.8-1.1-5.1 0.7-2.2 2.9-2 1.2-3.1-0.5-2.4-1.3-3.5-2.4-4.4-0.9-2.8-0.4-8.2-0.6-3 0.8-8 1.2-1.8 3.5-2.9 3.9-1.8 10.6-2.6 2.7-2.3-0.6-2.9 0.9-3.4 2.8-2.9 1.5-1.2 5-3.1 6.9-5.4 2.7 0.2 2.4 1.1 3.8 0.6 3.2 0.2 1.3 0.8 1.5 1.2 2.3 0.4 1.3 1.2 0.8 1.9 1.4 1.6 1.4 0.6 3.8 0.2 1.6-0.1 0.8 1.1 0.3 2 1.3 1.8 1.6 1.7 1.6 0.9 0.9 0.7 0 1.9 0.5 0.9 1.4-0.6 1.1 0.1 0.9 0.7 1.2-0.1 1.8 1.3 1.1 1.3z" id="BFKMP" name="Kompienga">
  </path>
  <path d="M49.4 509.2l9.2 0.8 3.4 1.8 11.2 10.4 1.5 2.4 1.3 3 1.4 2.4 4.8 5.3 1.8 1.7 3.4-0.1 2-0.8 6-1.6 3-0.1 1.3 1.8 3.1 1.3 3 0.7 1.8 0.8 1.9-0.4 1.9 1.6-0.3 2.5-0.8 2.6 1 3.7 0.3 4.3-0.6 2.2-0.7 2.2-1.8 3.5-1.3 2-1.5-0.2-1.8-0.6-2.2 0.7-3.3 0.7-3.5 1.2-2.5-0.3-1.2-0.7-1.3 2.5-1.2 2.6 1.7 1.8 2.4 1.3 0.5 4.8 1.9 2.2 0.8 2.3-0.1 2 0.7 4-0.2 1.5-1.2 1.8-0.5 1.9 0 2.3-3 2.3-1.8-1.2-1.9-0.1-0.8 1.5-1.1 0.1-5.6-3.3-1.8 0.5-5.4-0.8-1.9-0.1-0.8 0.6-0.6 0.8-0.8 0.7-1.3 0.3-1.3 0.1-0.6-0.2-0.5-0.3-0.6-0.3-0.4 0.5-0.5 0.7-0.5 0.3-2.3-0.1-2-0.5-1.5-0.8-1.3-1.1-0.3-0.7-0.4-1-0.5-1-0.7-0.4-1.1 0-0.7-0.2-1.7-0.6-0.1-2-1.4-2.9-2-2.7-2-1.1 0-0.2 0.1 0 0.5 0.3 0.4 0 0.3 0.1-0.2-0.4 0.2-0.6 0.4-0.6 0.4-0.8 0.1-0.5-0.1-0.4-0.3-0.2 0-0.3 0.5-0.4-0.1-0.2 0-0.3 0.1-0.2 0.5-0.1 0.1-0.4-0.2-0.3 0.1-0.2 0.3-0.1 0.3-0.3 0-0.5 0-0.2 0.3 0 0.2 0.1 0.2-0.3-0.2-0.4-0.2-0.3 0.3-0.2 0.1-0.4 0.2-0.2-0.1-0.3 0-0.3 0.3-0.2 0.5 0.2 0.3-0.4 0-0.4 0-0.8-0.2-0.3 0.4-0.3 0.3-0.6 0.2-0.9 0-0.5 0.3-0.5 0.7-0.5 0.4-0.3 0.2-0.2 0-0.3-0.2-0.5-0.3-0.6-0.1-0.5-0.1-0.3-0.1-0.7-0.2-0.4-0.1-0.2 0.4-0.3 0.3-0.3 0.1-0.5 0.1-0.6 0-0.3-0.5-0.2-0.3-0.3-0.3-0.2-0.3 0.1-0.1 0.1-0.2 0 0-0.2 0.1-0.1 0.1-0.3-0.1-0.4-0.1-0.3-0.1-0.2-0.3-0.1-0.2-0.1 0-0.2 0.2-0.1 0.2 0.2 0.4-0.2 0.5-0.5 0.4-0.5 0-0.3 0.3-0.9-0.1-0.6 0-0.1-0.1-0.4-0.2-1.2 0.1-1-0.1-1.7-0.1-0.8 0-0.5 0.5-1.2 0.1-0.8-0.1-0.2 0-0.5-0.3-0.6 0.1-0.6 0.2-0.5 0-0.5 0.2-0.6 0.3-0.4 0.1-0.2-0.1-0.6-0.3-0.3-0.2-0.2-0.4 0-0.2-0.1 0.5-0.6 0.4-0.1 0.3 0.1 0.7 0.1 0.5-0.2 0.6-0.4 0.3-0.2 0.4-0.1 0.2-0.5 0.3-0.8 0-0.9 0.2-0.6 0.5-0.7 0.2-0.5 0.3-0.8 0.2-0.5 0.1-0.2 0.1-0.5 0.2-0.3 0.3-0.2 0-0.3-0.1-0.5 0.4-0.7 0.4-0.6 0.2-0.6 0-0.5-0.6-0.6-0.5-0.7-0.3-0.5 0-0.5-0.2-0.4-0.4-0.2-0.5-0.2-0.8-0.4-0.3-0.3-0.5-0.5-0.3-0.1-0.3 0-0.6-0.3-0.2-0.2-0.2-0.7 0-0.1 0.4-0.4 0.3-0.7-0.1-0.5 0-0.5-0.1-0.5-0.4-0.8-0.6-1.2-0.1-0.5 0.1-0.8 0.1-0.8 0.3-0.8 0-0.4 0.1-0.3-0.5-0.5-0.3-0.4-0.4-0.3-0.6 0.2-0.8 0.4-0.3 0.1-0.2-0.3-1.4 0.4 0-0.1 0.6-0.6 0.3-0.6 0.2-0.3 0.2-0.5 0.1-0.6 0.2-0.6 0.1-0.6 0-0.6-0.2-0.7-0.3-0.9-0.7-1.4-0.1-0.8 0-0.5z" id="BFLER" name="Léraba">
  </path>
  <path d="M91.7 597.3l3-2.3 0-2.3 0.5-1.9 1.2-1.8 0.2-1.5-0.7-4 0.1-2-0.8-2.3-1.9-2.2-0.5-4.8-2.4-1.3-1.7-1.8 1.2-2.6 1.3-2.5 1.2 0.7 2.5 0.3 3.5-1.2 3.3-0.7 2.2-0.7 1.8 0.6 1.5 0.2 1.3-2 1.8-3.5 0.7-2.2 0.6-2.2-0.3-4.3-1-3.7 0.8-2.6 0.3-2.5-1.9-1.6-1.9 0.4-1.8-0.8-3-0.7-3.1-1.3-1.3-1.8 6-2.4 5.1-4.2 2.3-0.2 5.1 0.9 9.8-0.1 1.6 0.6 0.9 0.9 0.6 1.6 3.2 4.1 1.3 1.9 2 1 3.2 1 2.5 1.5 2.3-0.2 6-4.5 0.9-1.2 2.1-2 3.2-2 2.9-1.1 2.8 0 2.5 0.2 2.8 1.1 2.5 2.7 2.9 7.5 1.3 2 1.7 0.7 3 0.3 6.8 2.1 1 0.8 0.7 1.4 1.1 1.1 1.8-0.1 6.2-3.4 1.1-0.9 2.9-1.4 4.8-1.6 3.3-1.6 1.4-0.1 1 0.6 2.7 3 1.5 1.4 1.6 1 2.6 0.8 6.6 1.3 2.4 2.5 2.1-0.2 1.7-1 3.8-1.2 1.6-1.1 0.5-2 0.2-2.3 4-3.9 1.4-2.2 1.3-1.7 2-0.7 4.9-0.1 0 1 1 1.7 1.8 1.8 1 2.6 0.4 2.3-1.6 1-6.5-0.1-2.3 0.4-1.1 1-0.4 1-0.2 1.3 0.5 1.5 1.3 1.3 1.9 0.6 4.4 0.5 1.3 1 2.1 2.5 0.1 0.9-0.2 1.9-0.3 1.2-0.2 1.2-0.2 10.2 0.4 3.3 0 1.9-0.5 0.5-1 0.7-1.2 1.4-0.8 2.5-1.2 2.7-3.3 4.2-0.6 0.9-0.5 0.8 0 1.9 0.9 1.8 0.5 1.6 0.8 3.9 0.8 2.1 0.2 1.9-0.8 2.1-3.6 5.1-2.1 4.5-1.3 1.6-3.7 2-5 1.5-2.7 0-3.4-0.8-2.5 0.1-1 1.9-1.2 3.7-0.4 1.6 1 3 6.7 5.4 3.4 3.6 0.3 2.3-0.1 1.8 0 0.7-2.1 0.6-4.3 2.8-2.5 0.7-1.7 0.9-0.5 1.9-0.7 1.6-3.7 0.1-0.9 0.3-1.8 0.8-0.1 0.4-0.1 0.6-0.2 0.5-0.7 0.2-0.7-0.2-1.2-0.7-6.5-1.9-2 0.2-2.1 1.6-3.2 4.6-2.2 1.2-4.3 0.6-2 0.7-1.5 1.4 0.5 0.1 1.3 0.4-3.4 3.7-0.7 1.1 0 1 0.4 2.7-0.3 1.5-1.5 2.9-0.8 0.9-3.1-1.3-1.8-0.5-0.3 1.9 0 1.9-0.4 1-1.5-0.7-0.8-1.3-1-3.8-1-1.7-2.8-0.7-4.1 0.2-3.8-0.4-1.6-2.4 0.3-2.1 1.1-3 0.3-2-0.3-0.6-0.7-0.3-0.9-0.2-2.1 0-0.4 0.2 0 0.5-0.4 0.7-0.6 1.6 0 1.6-0.5 1.2-1.6 0.5-1.4-0.5-1.6-2.5-1.3-1.1-1.5 1.6-1.4 0.7-1.4 0.2-1.7 0 0.2 0.3-0.4 0.7-0.8 0.8-0.9 0.6-1 0.4 0-0.1 0-0.4-0.6-0.7-1.6-0.6-0.6-0.5-0.2-0.9-0.2-1.3-0.4-0.7-1.3-1.2-0.7-0.8-0.4-0.7-0.5-0.4-1.2-0.1-1.2 0.1-0.4 0.4 0.2 0.5 0.7 0.6-1.8 0.4-1.5-2.5-1.5 0.5-0.4-1-0.2-0.4-1-1 0-0.8 1.1 0.1 1-0.2 1.8-0.7-1.1-1.9-0.5-2.7-1-1.7-2.1 0.7-0.8-2.4-1.6-1.4-2.3-0.8-2.7-0.2-1-0.2-0.4-0.6-0.5-0.5-1.3-0.3-0.9 0.6-0.6 1-0.6 0.8-1-0.4-3.4-3.1-0.2-1.4 1.7-4.7-0.2-0.8-1.3-2.7-1.3-1.7-0.5-1.2 2.5-0.1 0.4-1.5-0.8-2.2-1.3-1.8-1.4-0.9-1.5-0.7-1.2-1.1-0.6-2.1-1.1 1-1.4 0.6-1.3-0.2-0.9-1.4 1.6-0.7-0.8-0.3-0.6-0.3-0.8-0.2-1 0 1.1-1 2.7-0.9-0.2-1-2.9-1.9-0.7-1.2 0.7-2.1-3 0.2 0-1.3 1-2.1-0.3-2.4-0.3 0.8-0.6 0.7-0.6 0.6-0.9 0.3-1.4-0.2-0.1-0.5 0.4-0.7 0.3-0.6 0-6.4-0.8-1.7-0.1-0.1z" id="BFCOM" name="Komoé">
  </path>
  <path d="M232.8 644l0-0.7 0.1-1.8-0.3-2.3-3.4-3.6-6.7-5.4-1-3 0.4-1.6 1.2-3.7 1-1.9 2.5-0.1 3.4 0.8 2.7 0 5-1.5 3.7-2 1.3-1.6 2.1-4.5 3.6-5.1 0.8-2.1-0.2-1.9-0.8-2.1-0.8-3.9-0.5-1.6-0.9-1.8 0-1.9 0.5-0.8 0.6-0.9 3.3-4.2 1.2-2.7 0.8-2.5 1.2-1.4 1-0.7 0.5-0.5 0-1.9-0.4-3.3 0.2-10.2 0.2-1.2 0.3-1.2 0.2-1.9-0.1-0.9 6.2-1.7 4.8-0.5 4.6 0.5 3.7 1.6 2.1 1.4 1.4 0.4 2.4-0.2 5.6-2.1 3.4 0.2 2.7 1.3 2.1 1.4 4.2 3.7 2.3-0.7 3.2-1.8 2.3-0.9 2.2-0.5 3.8-1.4 7.9-7 4.8-3 2.1-0.6 1.4-0.7 0.5-0.7 2.7-0.4 2.9 0.2 1.9 2.2 0.7 1.9 1.3 1.1 2.5 0 1.6-0.4 0.6-0.4 0.5 0.1 0.4 0 0.4 0.1 0.4 0.2 0.5 0.2 0.2 0.5 0.2 0.3 0.1 0.3-0.2 0.2-0.3 0.5-0.7 1.9-0.6 1-0.1 0.1-0.4 0.4-0.5 0.3-0.2 0.3-0.2 0.3-0.3 0.3-0.2 0.4-0.3 0.5 0 0.5 0 0.5 0.1 0.4 0 0.5-0.1 0.5 0 0.4 0.3 0.3 0.3 0.2 0.2 0.5 0.2 0.3 0.4 0.2 0.3 0.4 0.3 0.5 0.1 0.6 0.3 0.5 0.3 0.5 0.2 0.3 0.1 0.3 0.2 0.4 0.1 0.6 0.3 0.4 0.2 0.3 0.3 0.3 0.2 0.3 0.2 0.4 0.1 0.3 0.2 0.5 0.1 0.4 0 0.4-0.1 0.4-0.2 0.5 0.1 0.4 0.1 0.5 0.2 0.4 0.2 0.4 0.4 0.3 0.3 0.5 0.1 0.3 0.3 0.2 0.3 0.1 0.4 0.3 0.2 0.3 0.1 0.4 0.2 0.3 0.2 0.4 0.1 0.3 0.1 0.5 0.1 0.5-0.1 0.3 0.1 0.4 0.1 0.4 0.2 0.5 0.3 0.5 0.4 0.4 0.3 0.2 0.4 0.3 0.4 0-0.1 0.4 0.4 0.2 0.5 0.2 0.5 0.3 0.5 0.3 0.5 0.3 0.5 0.1 0.5 0.2 0.1 0 0.4 0.1 0.3 0 0.4 0.1 0.4 0.1 0.3 0.1 0.4 0.1 0.4 0.1 0.5 0.1 0.5 0.2 0.5 0 0.5 0.1 0.4 0 0.2 0 0.3 0.1 0.2 0.3-0.1 0.3-0.1 0.4-0.1 0.4-0.3 0.4-0.4 0.3-0.5 0.2-0.5 0.3-0.5 0.2-0.4 0.3-0.6 0.1-0.5-0.2-0.6 0-0.5 0.2-0.5 0.2-0.5 0.4-0.4 0.3-0.3 0.4-0.1 0.3-0.2 0.3-0.1 0.5-0.2 0.4-0.2 0.4-0.2 0.4-0.1 0.4 0 0.5 0 0.4 0 0.6 0 0.5-0.1 0.4-0.1 0.4-0.1 0.4-0.2 0.5-0.3 0.4-0.1 0.5 0 0.5 0.1 0.4 0.3 0.3 0.3 0.4 0.2 0.6 0.3 0.4 0.4 0.3 0.3 0.3 0.4 0.2 0.4 0.2 0.3 0.2 0.3 0.2 0.3 0.2 0.3 0.2 0.3 0.2 0.5 0.2 0.4 0.3 0.3 0.1 0.5 0.3 0.6 0.2 0.6 0.2 0.4 0.1 0.4 0 1.2 0.5 0.4 0.2 0.4 0.2 0.3 0.3 0.2 0.4 0.3 1.1 0.1 0.5-0.1 0.6 0 0.2-0.1 0.4-0.8 1.1-2.4 1.8-0.2 0.4-0.1 0-0.3 0.3-0.2 0.3-0.2 0.3-0.2 0.3-0.1 0.3-0.1 0.4-0.1 0.1 0 2.3 0.9 4.3 0 0.1-0.2 0.3-0.1 0.6 0 0.6 0 0.5 0.1 0.5 0.1 0.5 0 0.3 0.1 0.4 0.2 0.3 0.1 0.3 0 0.3-4.8-1-3.8-1-3.3 1-2.1 3.8-1 5.8-2.4 1.7-4.7-0.6-4.7-3.8-3.4-3.8-5.8 0-6.1-0.4-3.4 2.8 0.4 5.8-3.1 4.9 0.6 6.3-1.4-0.8-1.8 1.2-3.9 5.6-1.6 1.6-2.7 0.3-1.2-1.6-0.2-2.3 0.1-2.4-0.5-0.8-1.2 0.5-1.3 0.8-1 0.4-1.3-0.6-2-1.9-1.4-0.6-18.1-1.5-6.9 1-1.9-0.4-1.3-0.9-0.7-1-0.9-0.8-1.5-0.5-0.4 0.3-1.1 1.3-0.6 0.3-0.7-0.1-1.5-0.9-0.9-0.1-5.6 0.7-1.6 0.5-1.2 0.8-1.9 2-0.9 0.7-2.2 0.7-7.6 0.1-0.3 0.1z" id="BFPON" name="Poni">
  </path>
  <path d="M312 642.3l-0.6-6.3 3.1-4.9-0.4-5.8 3.4-2.8 6.1 0.4 5.8 0 3.4 3.8 4.7 3.8 4.7 0.6 2.4-1.7 1-5.8 2.1-3.8 3.3-1 3.8 1 4.8 1 0 0.2-0.1 0.4-0.1 0.5-0.1 0.3 0 0.3 0.1 0.5-0.1 0.4 0.1 0.5 0.1 0.5 0.1 0.2 0 2.5 0.5 2.4 2.6 3.9 0.8 2.1-0.1 3-0.3 1.1-0.3 0.6-0.1 0.5-0.2 0.6-0.1 0.6 0 0.4 0.1 0.5 0 0.1-0.2 0.9 0.5 2.9 2.7 4.5 0.3 1.1-0.7 1.2-0.4 0.2-0.5 0.3-0.4 0.2-0.4 0.3-0.4 0.4-0.2 0.6-0.1 0.4-0.2 0.3-0.3 0.4-0.1 0.3-1 1-1.3 2.8-0.1 0.1-0.3 0.3-0.1 0.5-0.1 0.2-0.4 2.5 0.8 2.4 0.2 0.2 0 0.4 0.3 0.4 0.3 0.3 0.4 0.2 0.4 0.1 0.4 0.2 0.5 0.1 0.5 0 0.4 0.3 0.2 0.5 0 0.5 0.1 0.4 0 0.4 0.1 0.4 0.1 0.5 0 0.5 0.2 0.4 0.4 0.4 0.2 0.2-0.6 0.5-1 1.7-0.6 1.9 0 0.5-0.3 0.2-0.3 0.4 0 0.4 0.1 0.4 0 0.4 0 0.4 0.1 0.6-0.1 0.5 0.2 0.6 0.3 0.6 0.2 0.3 0.2 0.3 0.1 0.4 0.3 0.3 0.4 0.4 0.2 0.3 0.6 0.1 0.3 0.2 0.2 0.2 0.2 0.3 0.4 0.4 0.3 0.3 0.3 0.4 0.5 0.4 0.8 0.2 0.4 0.1 3.5 4.4-3.6 3.5-2.8 5.9-2.2 1.9-2.7-0.2-2.6-2-11.5-15.4-5.7-11.1-2.1-5.5-1.4-2.7-1.8-1.8-2.2-0.5-3.9 1.1-2.1-0.1-2-1.6-1.1-2.8-1.5-5.6-2.3-2.8-2.6-0.6-2.6-0.1-2-1.1-0.5-2.4 0.2-2.7 0-2.3z" id="BFNOU" name="Noumbiel">
  </path>
  <path d="M703.2 110.1l-2.6 3-2.3 1.2-2 0.1-3.6 9.4-2.6 2.9-2.4 3.8-7.9 9.3-3.3 0.9-5-1.2-5.9-0.1-5.2 0.9-4.4-1-4.5-0.5-8.1 4-21.3 2-7.3 0-2.1-0.7-3.1-3.3-1.6-5.1-1-12.6-1.5-1.4-1.8-1.5-2.7-3.1-2.8-5.2-8.4-8.3-0.1-2.8-1.2-3.4-2.9-5.2-7.2-10.1-3.6-2.4-5.5-7.5-6.8-5-2.4-2.5 23.5-21 0.2-0.2 1.4-0.9 1.7-1.2 0.9-0.8 1.6-1.1 0.9-0.7 1.6-1.3 1.1-0.8 1.5-1.1 0.2-0.2 0.3-0.4 0.5-0.3 1.9-0.9 0.2-0.1 0.9-0.1 0.9-0.1 0.8 0 1.3 0 3.3 0 3.1 0 3.6 0 2.8 0 1.9 0 0.9 0.1 0.8 0 3.3 0 2.7 0 2.4 0 0.9 0.4 2.7 7.2 1.1 1.5 3.3 0.1 0.8-0.4 0.3 0.5 0.3 0.3 1.3-0.7 2.5-1.4 2.6-1.6 0.9-0.5 0.9-0.4 1.2-0.8 1-0.6 1.8-0.9 0.4-0.3 4.4-0.8 6.2 1.5 0.3 0.1 1.7 0.6 1.2 0.4 1.1 0.3 12.9 5.4 28.9 10.1 0.3 2.7-1 1.6-1.6 1.3-1.4 1.9-0.2 3.4 3.3 6.9 0.8 3.6-7.7 21.9 0.7 6 3.4 5.7 1.6 1.5z" id="BFOUD" name="Oudalan">
  </path>
  <path d="M560.1 64.7l2.4 2.5 6.8 5 5.5 7.5 3.6 2.4 7.2 10.1 2.9 5.2 1.2 3.4 0.1 2.8 8.4 8.3 2.8 5.2 2.7 3.1 1.8 1.5 1.5 1.4 1 12.6 1.6 5.1 3.1 3.3 2.1 0.7 1 1.8 0.9 4.2-0.8 5.2-1.6 4.7-3.1 3-3.6 1.4-1.4 0-1.9 0.1-6 5.8-16.2 8.3-14.8 3.4-8.2 4.1-2.8-0.4-8.7 3.5-5.9 0.1-5.2 0.8-4.9 1.4-4.8 0.4-0.5-0.7-3.4-1.4-5.9-1.3-6.3-2.9-4.3-4.8-1.5-5.7-1.3-2.6-9.3 4.9-4.7 0.5-4.6 3.7-5.8 11.4-4.1-4-3.7-4.2-6.4-11.7-0.3-4.7 1-4.7 0.1-2-6.9-3.8-9.7-7.1-3.6-2-4.6-5.9 3.1-1.4 2.5-1.5 0.5-1.4 0.9-2 0.7-1.6 0.8-1.3 0.4-1.8 0.2-1.6 0.1-1.8 0-2 0-1.6-0.2-2 0.1-1.4 0.3-1.4 0.3-1.5 0.5-0.8 0.5-0.7 0-0.7 0.1-1.3 0.1-1.8 0.1-1.6 0.1-1.9 0.2-3.1 0.1-1.6 0-0.8 1.5-0.6 5.6-0.3 9.4 0.8 8.1-0.5 8-1.5 39.8-26 4.9-2.3 6.3-1.6 0.8 0 3.1-0.1 5.3-1.4 3.9-1.3 3.1-0.5 1.8-0.9 1.2-1.2 0.8-0.4 4.1-2.5z" id="BFSOM" name="Soum">
  </path>
  <path d="M441 143.6l4.6 5.9 3.6 2 9.7 7.1 6.9 3.8-0.1 2-1 4.7 0.3 4.7 6.4 11.7 3.7 4.2 4.1 4 0.7 0.7 1.2 1.8 0 3.2-2.8 1.8-4.3 1.3-4.7 2.5-3.9 3.3-1.3 5 0.1 2.6-5 1.2-3.6 0.4-6 1.3-2.7-0.7-3.4-0.3-4.2 0.3-2.4-0.6-3.8-15.5-3.5-10.3-0.9-1.3-2.4-5.1 0.2-3.9 0.8-3.7-2.1-2.1-3.5-1.1-2-2.9-0.7-6.3-1.8-0.9-2.7-0.9-4.9-5.1-3.8-1.8-3.9-0.1-2.7 1.7-2.1 1.9-1.1 1.8-1.6 0.4-2-0.6-1.8 0.7-1.5 1.2-1.7 0-2.5-0.8-1.1-1 0.1-2.5-1.1-3.1-4.1-5.5-5.5-5.1 2-2 3-2.9 1.7-1.6 0.9-0.9 1.1-1 0.8-0.6 1.2-1 2.5-1.8 1.2-0.9 3.3-2.4 1-0.8 5.2-1.3 8.8 1.9 26.8 12.9 3.7 0.9 0.6-0.1 0.5 0.3 0.1 0.1 0.3 0.3 0.3 0.1 0.4 0 0.2-0.1 2.2-1.1z" id="BFLOR" name="Loroum">
  </path>
  <path d="M373.2 145.6l5.5 5.1 4.1 5.5 1.1 3.1-0.1 2.5 1.1 1 2.5 0.8 1.7 0 1.5-1.2 1.8-0.7 2 0.6 1.6-0.4 1.1-1.8 2.1-1.9 2.7-1.7 3.9 0.1 3.8 1.8 4.9 5.1 2.7 0.9 1.8 0.9 0.7 6.3 2 2.9 3.5 1.1 2.1 2.1-0.8 3.7-0.2 3.9 2.4 5.1 0.9 1.3 3.5 10.3 3.8 15.5 2.4 0.6 4.2-0.3 3.4 0.3 2.7 0.7 6-1.3 3.6-0.4 5-1.2 4.4 9.2-0.4 11.8 0.3 2.8 1.9 2.5 2.6 2.8 0.8 2.1 2.7 0.2 2.8 2 1.9 3.6 1.1 3.1 0 3.6-0.8 2.4-1.5 2-0.2 1.4-4.1 2.2-5.9 0.7-2-3.6-2.7-1.5-2.9 1.7-1.1 2-2 5.1-2.7 0.6-2.1-0.7-1.8-0.4-1.5 1.7-1.4 2.1-1.5 1.1-6.9-0.3-1.4 0.3-1.5-2.5-3-1.6-2.3-2 0.5-3.6 0.5-0.3 1.5-0.7 0.4-0.3 0.1-0.1 0.7-2.7 0.7-0.5 0.8-0.2 0.6-0.3 0.3-1-0.2-1-0.6-1.6-0.1-1.1 1.3-3.7 3-4.4-1.3-3-0.5-2.1-0.1-2-0.7-1.5-2.5-0.7-5.8 2.3-2-0.7-3.2 0-3.4-0.5-10.1-3.5-6-0.5-1.5-1.5-1.3-1.1-4.5 1.5-2.1 1.4-0.8 1.2-0.9 1-2.3 2.1-2.8 1.5-3 1-4.3 0.9-1.1 0.7-0.8-2.5-3.1-5.5-0.5-5.5 0-2.2-0.3-2.6-1-1.2-2.2-1.1-2.5-0.5-1.9-1.7-1.1-2.5-2.8-1.6-10.8-2.5-3.9-1.9-4.8-4.9-2.4-3.2-0.3-0.4 0.4-0.1 0.5-0.3 1.9-0.8 2.4-0.9 0.3-0.1 0.1-0.1 0.1-0.1-0.4-0.9-1.3-3.4-0.2-0.8-0.2-0.5 0.2-0.5-0.3-0.3-1-1.4-0.4-0.6 0-0.4 0-1.7 0-5.2 0-1.6 0-1.5 0-0.8 0-0.3 0.3-0.3 0.3-0.6 0.1-0.2 0-0.3 0.2-0.4 0.5-0.3 0.5-0.7 0.2-0.7 0.3-0.7 0.2-0.4 0.1-0.4 0.5-0.1 0-0.7 0.1-0.6 0.5-0.7 0.2-0.8 0.4-1.1 0.6-2.5 0.9-2.2 1.2-3.7 1-2.7 0-0.2-0.5-0.7-0.2-0.3-0.4-0.2-0.1 0-0.1-0.1-0.4 0-0.4 0-0.1-0.2 0.2-0.3 0.8-2.7 0.2-0.5 0.3-1.1 0.2-0.2 16.7-9.4 0.9-0.4 1.2-0.6 0.6-0.5 0.2-0.1z" id="BFYAT" name="Yatenga">
  </path>
  <path d="M343.9 205.5l0.3 0.4 2.4 3.2 4.8 4.9 3.9 1.9 10.8 2.5 2.8 1.6 1.1 2.5 1.9 1.7 2.5 0.5 2.2 1.1 1 1.2 0.3 2.6 0 2.2 0.5 5.5 3.1 5.5 0.8 2.5 2.5 1.6 3.1 1.6 3 0.1 2.8-0.6 3.4 0.6 2.2 1.4-1.1 3.3-5.1 7.1-3.6 6-2.4 2.8-4 1-3.7-0.1-5.2-0.9-2.5 0.5-1.5 3.3 0 4.5 1.2 5.8 0 1.7-0.3 2.6-0.2 0.9-4-0.8-1.7-0.2-2.9 0.6-3.6 3.6-3.2 0.6-4-0.4-3.5-0.8-3-1.5-2.6-2-3.7-2.3-3.6 0.1-2.3 2.5-1.9 0.5-2.4-1.6-2.7-1-2.6 0.2-2.7 0.4-2.1-0.3-1.8-2.1-1.6-2.9-1.7-1.2-9.5 2-2.8 2.3-0.4 2.5-1.1 1.7-6.4 3.5-2.3 2.3-1.2 2.2-0.7 5.5-1.6 2.2-1 0.9-0.7-0.7-1.8-2.4-1.5-3.4-1.3-12.8 1.2-6.7-1.7-7.6 0.9-8.7 0-1.3 0.2 0.1 0.3 0 0.7 0.1 0.2 0 0.5 0.2 0.5-0.1 0.4-0.1 0.4 0.1 0.4-0.3 0.2-0.3 0.2-0.4 0.4-0.3 0.4-0.4 0.1-0.1 0.3-0.2 0.2-0.5-0.1-0.1-0.2-0.4-0.3-0.7 0-1.1-0.1-0.9-0.4-0.6-0.4-1.3-0.2-1.4-0.2-1-0.6-0.7-0.3-0.3-0.2-0.4-0.1-0.3 0.2-0.4 0.3-0.5 0.5-0.4 0.1-0.1 0.2-0.4 0-0.2 0.5-0.2 0.2 0 3.9 0 1.6-0.1 2.7-0.7 11.1-0.6 1 0 0.5 0 1.1 0 0.6 0 0.3 0 0-1.6 0.1-1.5-0.4-1.3-0.2-0.7 0.1-2 0-0.3-0.1-0.4-0.3-0.1-1-0.4-0.4-0.1-0.2-0.4-0.3-3.2-0.3-4.1-0.4-4.1-0.2-3.6-0.3-1-0.6-4-0.6-2.2-0.2-0.7 0.2-0.2 1.4-1.4 0.6-0.5 0.8-0.9 0.3-0.3 0-1.3 0.1-2.5 0.2-3.5 0.1-2.5 0.1-1.5-0.2-0.7-0.2-0.2-0.6 0-0.4-0.3-0.7-0.5-0.4-0.2-0.6 0-0.2 0 0-0.4 0.2-0.4 0.4-0.6 0-0.1 0.3-0.4 0.3-0.3 0.8 0 2.1 0.4 0.1 0.1 4.9 3.7 3.2 0.3 2.5-0.5 2.4-0.1 2.9 1.7 2 2 0.6 1.1 0.3 1.7 0.8 1.8 1.3-0.5 0.7-0.7 0.7 0.5 0.6 0.3 0.9-0.1 0.5-0.6 0.4-0.9 0.2-0.3 0-0.5 0.2-0.8 0.1 0 2.8 0.3 0.9 0.3 0.8 0.6 0.9 0.3 0.8-0.1 1.1-0.5 0.2 0.4 0 0.3 0 0.2 0.2 0.2 1.1-0.4 2-0.7z" id="BFSOR" name="Sourou">
  </path>
  <path d="M281.4 261.4l0 1.3-0.9 8.7 1.7 7.6-1.2 6.7 1.3 12.8 1.5 3.4 1.8 2.4 0.7 0.7-0.3 4.3-1.6 0.2-1.4 0.4-0.7 0.8-0.4 1.7-1 0.2-2.1-0.8-3.1 0-0.4 0.4-0.1 0.8-0.2 0.9-1.9 0.9 0.1 1.1 0.9 1.1 1.6 0.5 0.6 0.7-0.4 1.6-0.7 1.6-0.6 1 0.7 1.1-0.3 0.8-0.8 0.6-0.5 0.7 0.1 1.3 0.3 1.1-0.3 0.7-0.6 0.8 0.5 0.1 0 0.8-1.4 0.7-0.1 1.3 0.7 3.3-0.3 1.3-1.7 1.7-0.4 2.2-3.6-1.3-7.1-3.7-4.5-1.2-8.7-0.3-5.6 0.9-2.8-0.4-3.5-0.8-4.1-0.2-3.6 0.8-1.7 1.9-0.8 2.8-2.8 4.1-0.5 2.3 0.1 0.9 0.1 0.9-0.6 1.3-1.4 1.4-2.7 1.8-3.7 1.2-2.8-0.8-4.9-3.7-2.1-3.2-0.3-4.5-1.1-5-1.8-2.8-0.3-1.8 0.6-2.3 0.1-4.4-0.4-2.2 1.1-1.7 1.5-1.3-0.1-1.9-2.3-1.1-1.9-1.8-1.7-1-1.9 0.2-2.1-1.8 0.2-0.1 0.3 0 0.3 0 0.1-0.3 0.1-0.3 0.1-0.5 0.3-0.9 0.1-0.3 0.5-1.6 0.5-1 0.2-0.5 0.1-0.3 0-2.2 0.5-1.5 0.2-0.4 0.2-0.6-0.3-0.8-1.4-5.1 0.1-1.3 0-0.1 0.7-3.8 0.2-0.4-0.2-3.4-0.2-1.7-0.1-0.5-0.6-0.8-0.2-0.5-1.4-0.4-2.7-1.2-0.5-0.4 0-0.1-0.3-0.8 0-0.9-0.4-0.7-0.1-0.2-0.2-0.6 0-0.7 0.3-1.1-0.2-0.4-1.5-1.7-1.8-2.1-0.6-0.7-0.4-0.8-0.5-0.7-0.3-0.5-0.7-0.2-0.4-0.2-0.2-0.3-0.1-0.2-0.1-0.4-0.4-0.4-0.6-0.2-0.5-0.3-0.1-0.6 0.1-1 0.2-0.9 0-0.1 0.5-0.6 0.2-0.7 0.5-0.2 0.5-0.5 0.7-0.3 0.5-0.5 0.6-0.4 0.3-0.5 0-0.5 0-0.1 0.7-0.5 0.1 0 0.1-0.5 6.5 0.3 0.3-0.1 0.1 0 0.6-0.1 0.7-0.3 0.6-0.5 0.3-0.8-0.4-0.7-0.6-0.5-0.9-1.6-0.9-0.9-0.8-0.6 0.2-0.6 0.7-0.9 0.2 0 0.4-0.2 1.6-0.5 0.4-0.2 0.6-1.1 0.6-0.7 0.1-0.2 0.7-0.5 1.3-0.2 1.7-0.2 1.1-0.2 0.5-0.2 0.2-0.1 0.4-0.7 0.4-0.4 1-0.4 0.3-0.1 0.8-0.3 0.5-0.5 0.3-0.8 0.2-0.6 0.6-0.8 0.4-0.2 0.8-0.4 0.2-0.7 0.6-0.9 0.4-0.6 0.1-0.6 0.2-0.5 0.2-0.7-0.2-0.7-0.1-0.8 0.1-1.3 0.3-0.9 0.5-0.8 0.5-0.4 0.4-0.3 0.8-0.3 0.6 0 0.5-0.5 0.5-0.1 0.1 0 0.7 0 0.4 0.2 0.6-0.3 0.9-0.8 0.6-0.7 1.1-0.3 0.6-0.7 0.3-0.3 0.5-0.7 0.6-0.1 1 0 0.1 0 0.3 0.3 0.9 0.1 0.5 0.1 0.3 0 0-0.5 0-1.4 0.2-0.5 0.7-0.9 0.4-0.3 0.6-0.5 0.3-0.1 0.1-0.1 0.2-0.1 0.3-0.3-0.2-0.7 0-0.1-0.2-0.7-0.1 0 0-0.1-0.1 0-0.2 0.1-0.3 0.4-0.3 0.6-0.2 0.3-0.6-0.4 0.1-0.1 0.5-0.4 0.3-0.4 0.1-0.4-0.1-0.9 0.1-0.3 0.6 0.8 0.1 0.2 0.6 2.3 0.3 0.8 1 0.4 0.8 0.1 0 0.4 0 0.2 0 0.5 0.8 0.2 1.6 0.1 0.2 0-0.1 0.6-0.8 0.5-1 0.1-0.9 0.4-2.4 2.2-1 0.6-1.4 1.4 1.4 1.1 1.3 0.3 0 0.3 0 0.3 0.1 0.2-0.1 0.3 0.6 0 0.5 0.2 0.3 0.2 0.3 0.4 0.3-0.3 0.6-0.5 0.3 0 0.3-0.1 0.1 0 0.1 0 1 0 0.3-0.1 0.4-0.1 2.2 0.3 2.9 0.5 1.6 0.6 1.1 0.3 0.6 0.5 0.3 0.3 0.5 0.1 1.4 0 0.4 0 0.4 0.1 2.1 0.9 6.8 5.5 0.2 0.3 0.6 0.4 1 0.7 0.1 0.1 5.1 3.1 7.5 5.8 0 0.1 0.1 0.2 0.2 0 1.6 1.2 0.8 0.3 0.2-0.1 0.1 0.2 0.7-0.1 0.9 0.2 0.7 0.2 1.5 1.6 0.9 0.5-0.1 0.5-0.1 0.5 0 0.3 0 0.2 0.3 0.1 0.3 0.1 0.3-0.4 0.2-0.2 0.3 0 0.1 0.3 0.3-0.2 0.1-0.2 0.4-0.1 0.3 0.5 0.2 0.2 0.2-0.2 0.3-0.2 0.3 0.1 0.2 0.2 0.3-0.1 0.2-0.1 0.4-0.1 0.7 0 0.8 0.3 0.8 0.2 0.7 0.4 0.3 0.2 1.1-0.1 0 0.1z" id="BFKOS" name="Kossi">
  </path>
  <path d="M192.6 312.2l2.1 1.8 1.9-0.2 1.7 1 1.9 1.8 2.3 1.1 0.1 1.9-1.5 1.3-1.1 1.7 0.4 2.2-0.1 4.4-0.6 2.3 0.3 1.8 1.8 2.8 1.1 5 0.3 4.5 2.1 3.2 4.9 3.7 2.8 0.8 3.7-1.2 2.7-1.8 1.4-1.4 0.6-1.3-0.1-0.9-0.1-0.9 0.5-2.3 2.8-4.1 0.8-2.8 1.7-1.9 3.6-0.8 4.1 0.2 3.5 0.8 2.8 0.4 5.6-0.9 8.7 0.3 4.5 1.2 7.1 3.7 3.6 1.3-0.2 1.3-1.1 2.8-0.3 1.6 0.3 2.6-0.3 1.1-1.5 1.1-0.9-1-0.9-0.3-0.9-0.1-0.9-0.7-1.5-1.7-0.5-0.3-0.7 0-1.4 0.5-4.4 2.6-1.3 1-4 6.4-1.4 4.7-1.1 2.4-1.7 1-4 1-1.1 2.8 0.7 8.7-0.5 1.7-1.4 1.7-1.9 1.3-2.1 0.5-0.5 1.2-0.3 2.2-0.6 1.5-1.3-0.9-0.9 0-0.5 1.3-0.4 2.5-0.4 0.2-0.5-0.1-0.5 0.2-2.4 4 0.7 0.4 0.3 0.5 0.6 1.5-1.8 0.7-1.1 1.7-0.2 2.2 0.7 1.9-1.8 0.1-1-0.7-0.8-0.1-0.2 1.5-1.7 0.7-1.8 0.2-1.4-1-1.9-1-2.9-0.7-2.5 0.4-1.5 1.2-1.8 0.7-2.9 0.3-3-0.1-2.8-0.3-2.3 0.6-3.1 2.9-3.5 7.8-0.6 1.9-0.9 4-1.2 2.5-1.9 2.3-2.3 1.4-2.3 0.3-4.1-1.7-2.1 0.7-1.4 0.9-1.9 0.8-2.1 0.6-2.1-0.2-2.2-2.2-0.4-2.9 0.6-1.9 3.1-7.5 0.7-3.4 0.5-3.7 0-2.7 0.4-2.4 0.9-2.3 0.6-2.2-0.8-1.4-2.2-0.2-1.5-0.6 0-2.2 0.6-2.8 0-2.2-1.1-1.1-1.6-0.9-1.8-0.1-3.3 2.5-2.1 0.3-2.4-0.2-2.8 0.6-2.8 0.4-1.1-0.6 0-1 0.3-5 0-0.2 0.5-0.4 0.5-0.5 0.4-0.3 0.4-0.5 0.4-0.8 0.2-0.3 0.5-0.2 2.4 0.1 1.6 0 0.4 0 0.9 0 1-0.3 0.6-0.1 0.1-0.3-0.2-0.6-0.6-1-0.2-0.3-0.3 0-0.4 0.1-0.3 0-0.7-1.4-0.8-1.4-0.7-1.1-0.2-0.3 0-0.1-0.1-0.4 0.1-0.2 0.5-0.2 0.4-0.3 0.9-0.6 1.2-1 0.6-0.3 0.3-0.5 0.3-0.2 0.3-0.2 0.3-0.3 0.7-0.1 0.3-0.1 0.4-0.9 1.2-1.5 0.8-0.6 1.1-0.9 2.8-1.8 0.4-0.3-0.1-0.3-0.5-1.3 0-2.1 0.1-0.9 0.1-0.5 0-0.1 0-0.4 1.4 0 1.2 0.9 0.9 1.3 1 0.9 1.5-0.3 0.3 0.2 0.6 0.4 0.7-0.3 0.8-0.3 0.6-0.3-1.4-3.7-0.8-1.9-0.5-0.8-2.3-5.6 0.1-0.7 0.8-2.5 0.6-2.1 0.3-0.5-0.1-0.6-0.1-0.5-0.1-0.4 0.1-0.5 0.3-0.7 0.1-0.3 1.4-1.4 0.7-0.5 0.7-0.3 0.9-0.9 0.9-0.6 0.6-0.7 0.7-0.8 0.5-0.3-0.1-0.2 0-0.2-0.8-0.7-0.6-0.6-1.6-0.7-0.5-0.2-0.4-0.2-0.1-0.1 0-1.2 0-0.8-1.1-3.8-1.1-0.8-0.4-0.5-0.7-0.6-0.9-0.1-1 0-0.1 0-1.4-1.1-0.1-0.2-0.1-0.3-0.7-1-0.4 0.1-0.9-0.8-0.4-0.6 0.1-0.7 0.1-0.5-0.1-0.4 0.2-0.4 0.2-0.3 0-0.4 0.5-0.6 0.2-0.5 0.1-0.5-0.1-0.6-0.2-0.5-0.1-0.4 0.2-0.3 0.2-0.2-0.2-0.5-0.1-0.4-0.5-0.1-0.1-0.1 0.6 0.1 1.2-0.1 0.5-0.2 0.4 0.1 0.2 0.2 0.3 0.3 0.4 0 0.4-0.2 0.2-0.1 0.6 0.1 0.4 0.3 0.3 0.1 0.7-0.2 0.8-0.1 1.5-0.3 0.4 0.1 0.7-0.4 1.6-0.6 0.6-0.4 0.4-0.3 1.2-0.6 0.7-0.1 1.9 0.4 0.1 0.1 1 1 0.7 0.7 0.2 0.2-0.1 0.5 0 0.6 0.4 0.1 0.7 0.2 0.7 0.2 0.1 0 0.4 0.3 0.3 0.2 0.4-0.3 0.5-0.4 0.2-0.1 0.4-0.2 0.9-0.1 0.5 0.1 0.3 0 0.2 0 0.4 0.1 0.2 0.3 0.5-0.4 0.5-0.3 0.3-0.5 0.4-0.2 0.6-0.2 0.1-0.3 0.2-0.4 0-0.1 0.3-0.2z" id="BFBAN" name="Banwa">
  </path>
  <path d="M251.9 535l-4.9 0.1-2 0.7-1.3 1.7-1.4 2.2-4 3.9-0.2 2.3-0.5 2-1.6 1.1-3.8 1.2-1.7 1-2.1 0.2-2.4-2.5-6.6-1.3-2.6-0.8-1.6-1-1.5-1.4-2.7-3-1-0.6-1.4 0.1-3.3 1.6-4.8 1.6-2.9 1.4-1.1 0.9-6.2 3.4-1.8 0.1-1.1-1.1-0.7-1.4-1-0.8-6.8-2.1-3-0.3-1.7-0.7-1.3-2-2.9-7.5-2.5-2.7-2.8-1.1-2.5-0.2-2.8 0-2.9 1.1-3.2 2-2.1 2-0.9 1.2-6 4.5-2.3 0.2-2.5-1.5-3.2-1-2-1-1.3-1.9-3.2-4.1-0.6-1.6 0.5-0.6 1.4-3 1.6-1.9 0.8-1.9-0.6-2.3-0.4-2.6 0.8-2 2.6-1.2 3-0.7 1.6-1.4 2.1-1.2 2.4-0.4 0.7-1.2 0.3-1.5 0.2-1.8-0.4-2.1-1-2.3-2-2.3-1.6-2.7-1.4-1.7-7.2-5-1.4-0.1-0.7-0.6-0.7-1.7-0.6-1.9 0.7-2.7 2.9-5.6 0.5-2.5 0.2-2.7 1.5-2.7 1.5-1.5 8.1-5.7 1.2 0.7 1.3 2.8 1 0.6 1.2 0.1 1.8-0.6 2.4-2.1 1.6-2.2 1-1.7 1.1-2.9 0.4-3.3-0.4-2.4-1.5-2.5-1.9-2.5-1.4-3.1-0.8-3.6 0.2-2.1 0.7-3.1-1.5-1-2.9-0.6-3.2 0-1.6-0.7 0.3-1.9 0.5-1.7 1.1-1.2 1.9-0.5 1.4-1.2 0-1.4-0.7-1.3-0.2-1.9 0.2-5.2 1.2-5.9-0.2-3.5-1.7-7-1.4-1.8-5.8-3.4-1.7-0.7 0.1-0.1 0.1-0.4 0-0.2-0.1 0 0.1-0.1 0.2-0.2 0.5-0.5 0.1-0.4 0.4-0.5 0.2-0.3 0.4-0.2 0.5 0 1-0.1 0.3-0.1 0.8 0 0.2 0 0.8 0.1 0.7 0.1 0.7 0.2 0.1 0 0.6 0 0.7 0.2 0.8 0 0.5 0.1 0-0.3 1.1 0.6 2.8-0.4 2.8-0.6 2.4 0.2 2.1-0.3 3.3-2.5 1.8 0.1 1.6 0.9 1.1 1.1 0 2.2-0.6 2.8 0 2.2 1.5 0.6 2.2 0.2 0.8 1.4-0.6 2.2-0.9 2.3-0.4 2.4 0 2.7-0.5 3.7-0.7 3.4-3.1 7.5-0.6 1.9 0.4 2.9 2.2 2.2 2.1 0.2 2.1-0.6 1.9-0.8 1.4-0.9 2.1-0.7 4.1 1.7 2.3-0.3 2.3-1.4 1.9-2.3 1.2-2.5 0.9-4 0.6-1.9 3.5-7.8 3.1-2.9 2.3-0.6 2.8 0.3 3 0.1 2.9-0.3 1.8-0.7 1.5-1.2 2.5-0.4 2.9 0.7 1.9 1 1.4 1 1.8-0.2 1.7-0.7 0.5 0.6 1 0.5 0.9 0.6 0.8 3.4-0.2 1.5-0.4 2 0.4 1.1 0.6-0.1-0.7 2.1-0.8 3.5 0.5 8-3.7 11.5 0.4 3.9 0.8 3.7 1.2 3.8 1.9 3.2 2 2.4 2.3 1.7 1 1.3 1.4 5.7 0.5 4.4 2.2 2.2 2.5 0.3-0.1 3.3-3.6 15.5 0.7 4 1.8 2.7 3.3-0.1 3.4-0.6 0.5 0.4 0.8 0.5 3.1 5 2.4 3.1 2.5 2.3 2.3 1.7 6.7 6.6 2 1.3 2.7-0.1 1.7-0.3-3.3 3.4-1 0.5-0.6 0.1-0.6 0.2-1.1 0.9-1.3 2.8-0.3 1.7 0.5 1.6-0.7 1-1.8 0.2-2 1.5-1.3-0.3-1.2 0-0.9 0.9-0.4 2.5z" id="BFHOU" name="Houet">
  </path>
  <path d="M98.4 534.4l-3 0.1-6 1.6-2 0.8-3.4 0.1-1.8-1.7-4.8-5.3-1.4-2.4-1.3-3-1.5-2.4-11.2-10.4-3.4-1.8-9.2-0.8 0-0.5-0.1-1-0.1-0.6 0-0.4 0-0.2-0.1-0.5 0.1-0.3 0.3-0.1 2.7-0.3 2.2-0.5 2.7-0.6 3.6-0.5 1.9-0.6 2-0.8 2.7-1.8 1.2-1.6 0.7-4.8 1.1-2.7 3.3-3.3 0.3-0.2 0.5-0.1 0.7-0.3 0.5-0.2 0.5-0.7 0.3-0.7 0.2-1.1-0.3-2.4-0.2-3.2 0-0.5-0.2-3 0.2-2.3 0.3-1 0.5-1.9 0.5-1.3 0.7-0.6 1.1-0.5 0.7-0.8 0.7-0.5 0.4-0.7 1-0.5 0.4-0.3 0.1-0.1 0.3-0.8-0.2-0.9-0.1-0.5-0.5-0.5-0.4-0.9 0-0.7 0.1-0.8 0.2-0.5 0.1-0.4 0-0.3 0.4-0.1-0.1-0.2 0-0.4-0.1-0.2-0.4-0.6-0.2-0.5 0-0.4 0.2-0.2-0.1-0.5 0.1-0.6 0.3-0.5 0-0.4 0.2-0.5 0-0.4 0.3-0.3-0.1-0.4-0.4-0.3-0.3-0.6-0.2-0.5 0-0.3 0-0.2-0.5-0.4-0.2-0.4-0.1-1.3-0.1-1.4-0.6-0.8-0.4-0.4-0.5-0.3-0.3-0.3-0.2-0.4 0-0.5-0.5-0.3-0.5-0.3-0.5 0-0.3 0.1-0.4 0-0.3-0.1-0.5 0-0.3 0-0.5 0.1-0.2 0.1-0.2-0.2-1.2-0.2-0.5-0.2-0.5-0.3-0.4-0.3 0-0.5-0.1-1.1 0.3-0.3 0.4-0.3 0.1-0.4 0.4-0.5 0.1-0.2 0-0.8 0.2-0.3 0.6-0.6 0.2-0.4 0.3-0.7 0.3-0.9 0.2-0.2 0.1-0.3-0.1-0.5 0-0.8 0-0.6-0.2-0.4-0.2-0.5 0.1-0.5 0.4-0.4-0.1-0.4 0.2-1.3 0.2-0.6 0.3-0.5 0.1-0.8 0.1-1-0.3-0.4 0-0.4 0.1-0.7-0.4-0.2-0.2 0.1-0.6 0.1-0.3 0.4-0.3 0.1-0.5-0.2-0.1-0.1-0.5-0.1-0.4-0.4-0.3-0.2 0.1-0.2 0.3-0.1 0.3-0.1 0.1-0.5-0.4-0.2-0.2-0.4-0.1-0.5-0.1-0.2-0.4 0.2-0.4 0-0.5-0.4-0.1-0.4-0.1-0.2-0.4-0.1-0.5-0.1-0.3 0-0.5-0.3-0.3-0.2-0.2-0.4-0.3-0.2-0.3 0.1-0.1 0.3-0.4 0-0.3 0 0-0.3-0.2-0.1-0.2 0-0.3 0.1 0 0.1 0 0.1-0.1-0.1-0.1 0 0-0.3-0.2-0.4-0.4 0.1-0.2 0.3-0.1 0.4-0.1 0.2-0.2 0.2-0.1-0.2-0.1-0.4-0.2-0.1-0.3 0.1-0.2 0.1-0.2-0.3 0-0.2-0.3-0.4-0.3-0.2-0.4 0-0.3 0.1-0.4-0.5-0.2-0.3-0.4-0.2-0.5 0.2-0.1 0.1 0-0.1-0.2-0.1-0.2-0.3-0.5 0-0.4-0.1-0.3-0.2-0.1-0.1 0-0.4 0.3-0.2 0.5-0.2 0.4-0.3 0.3-0.1 0.3 0.1 1.4 1 0.7 0.2 0.6-0.1 0.4-0.4 0.1 0.3 0.1 0.1 0.2 0.4 0.3 0.4 0.3-0.1 0.7-0.3 0.7-0.3 0.3-0.2 0.2-0.5 0.9-0.6 0.4-0.5 0.1-0.1 0.3 0 0.1 0.2 0.3 0.2 0.6 0 0.5 0.2 0.4 0.2 0.4-0.1 0.3-0.7 0.2-0.5 0.1-0.2 0.2-0.1 0.1 0 0.6 0.5 0.6 0.3 0.4 0 0.2 0.2 0.4 0.2 0.3 0 0.1-0.2 0.3 0.3 0.2 0.4 0.5 0.1 0.3-0.3 0.1-0.3 0.1-0.2 0.3 0 0.4 0.1 0.4 0 0.2-0.2 0-0.3-0.1-0.2-0.1-0.2 0.5-0.2 0-0.3-0.2-0.2-0.1-0.3 0.1-0.2 0.3-0.3-0.1-0.3-0.1-0.1 0.4-0.1 0.1-0.1 0.2-0.3 0.2-0.3 0.4 0.1 0.6-0.1 0.6-0.4 0.6-0.5 0-0.2 0.2-0.3 0.5-0.2 0.2-0.3 0-0.2 0.1-0.3 0.4-0.3 0.5-0.3 0.3-0.2 0.9-0.1 0.4 0.1 0.2-0.3-0.1-0.3-0.2-0.2 0-0.2 0.4 0.1 0.3 0 0.2-0.6 0.1-0.4 0.4-0.3 0.3-0.6 0-0.5 0.3-0.3 0.4-0.2 0.1-0.3 0.3-0.3 0.2-0.1 0.2 0.1 0.3 0.1 0.4 0 0.4-0.5 0-1 0.2-0.3 0.1-0.1 0.1-0.1 0.2 0.1 0.2 0.1 0.4 0.2 0.5-0.3 0.8-0.5 0.3-0.3 0.5-0.5 0.7-0.1 0.4 0 0.3-0.2 0.2-0.2 0.3 0 0.5 0.1 0.4-0.1 0.1-0.4 0.2 0 0.5-0.1 0.2-0.3 0.5 0 0.2-0.3 0.1-0.3 0.4-0.2 0.2-0.3 0.4-0.1 0.4 0 0.1 0.3 0.1 0.1 0.2 0 0.3 0 0.3 0.2 0.3 0.2 0.3-0.3 0.4-0.2 0.2-0.2 0.5 0 0.9-0.3 0.8 0 0.2-0.1 0.6 0 0.4 0.1 0.4 0.3 0.2-0.2 0.3-0.3 1 0 1.1-0.3 0.1 0.1 0.1 0.2 0 0.1 0.5 0.1 0.5-0.3 0-0.4 0.5-0.4 0.2-0.1 0.4 0.1 0.2 0 0.4 0.1 0.2-0.3 0.2-0.2 0.1 0 0.3 0 0.4 0 0.3-0.2 0.2 0 0.4 0.1 0.2-0.2 0.1-0.2 0.3-0.2 0.4-0.1 0.6 0 0.6-0.2 0.4 0.2 0.2 0.1 0.2 0.2 0.7 0 0.6-0.1 0.7-0.1 0.1 0 1 0 0.2 0.1 0.5-0.1 0.1 0 0.1 0 0.4-0.2 0.3 0.2 0.3 0.1 0.6 0.1 0.5 0 0.4-0.1 0.4-0.4 0.3-0.4 0.4-0.1 0.5-0.2 0.5-0.4 0.1-0.1 0.1-0.2 0.3 0.1 0.1 0 0.4 0.3 0.5 0.1 0.1-0.2 0.1-0.1 0.1-0.3 0.5 0 0 0.2-0.1 0.3 0.1 0.1 0.4 0.2 0.1 0.2 0.1 0.2 0.5 0.1 0.4-0.3 1.2 1 1.8-0.6 0 0.2 0.6-0.2 0.4-0.2 0.8-0.2 0.3 0.3 0.2 0.1 0.3 0.2 0.8 0 0.5-0.1 0.1 0 0.5 0 0.3 0 0.7 0.4 0.8 0 0.6-0.3 0.5-0.8 0.4-0.9 0-0.6-0.1-0.5 0.2-0.3 0.3-0.1 0.1 0 0.1 0 0.2-0.2 0.1-0.6 1.7 0.7 5.8 3.4 1.4 1.8 1.7 7 0.2 3.5-1.2 5.9-0.2 5.2 0.2 1.9 0.7 1.3 0 1.4-1.4 1.2-1.9 0.5-1.1 1.2-0.5 1.7-0.3 1.9 1.6 0.7 3.2 0 2.9 0.6 1.5 1-0.7 3.1-0.2 2.1 0.8 3.6 1.4 3.1 1.9 2.5 1.5 2.5 0.4 2.4-0.4 3.3-1.1 2.9-1 1.7-1.6 2.2-2.4 2.1-1.8 0.6-1.2-0.1-1-0.6-1.3-2.8-1.2-0.7-8.1 5.7-1.5 1.5-1.5 2.7-0.2 2.7-0.5 2.5-2.9 5.6-0.7 2.7 0.6 1.9 0.7 1.7 0.7 0.6 1.4 0.1 7.2 5 1.4 1.7 1.6 2.7 2 2.3 1 2.3 0.4 2.1-0.2 1.8-0.3 1.5-0.7 1.2-2.4 0.4-2.1 1.2-1.6 1.4-3 0.7-2.6 1.2-0.8 2 0.4 2.6 0.6 2.3-0.8 1.9-1.6 1.9-1.4 3-0.5 0.6-0.9-0.9-1.6-0.6-9.8 0.1-5.1-0.9-2.3 0.2-5.1 4.2-6 2.4z" id="BFKEN" name="Kénédougou">
  </path>
  <path d="M703.2 110.1l16.5 15.2 4.9 6.6 0.3 0.7-0.1 0.9-1.1 1.5-0.4 1-0.6 3.7-0.5 1.4-2.8 4.3-0.5 1.4 0.5 1.4 1.5 2.2 0.7 0.8 0.7 0.5 0.6 0.7 0.5 1-0.1 0.7-1 1.9 0.1 1.1 1 1.2 1.5 0.7 1.2 1.1 0.2 2.1 1 2.1 1.9 1.2 2 1.1 1.2 1.4 0 1-1 2.2 0.1 1.2 0.7 0.9 2.4 1.5 0.9 1.1 1 2.2 0.9 1.2 0 0.1-0.7 1.4-1 1.2-2 1.8-2.6 1.4-5.2 0.2-1.4 1.8-1.4 2.7-2 1.4-5.1 0.2-5.2 2-1.7 2.1-0.8 1.8-0.6 1.6-2.3 1.9-3 0.4-2 1.1-1.4 1.6-1.7 1.5-2.5 1.3-1.5 0.5-1.1 0.5-2 1.2-3.2 2.6-5.5 2-3.3 1.5-4.9 0.8-4.2-1.8-5-1.6-3.9-0.1-1.9 2.8-2.4 4.2-2 1.8-2.2-4.1 0.7-3.5 2-3.3 0.3-3.2-5-1.4-7.5-0.3-4.6-2.5-3.1-3.7-3.1-2.6-2.5-4.1-0.9-5.4-1.7-3.8-6.5-7.2-3.2-2.5-4.5-2.1-2.1-0.6-0.8-0.8-1.5-1.8-1.1-2.1-0.4-1.1 1.4 0 3.6-1.4 3.1-3 1.6-4.7 0.8-5.2-0.9-4.2-1-1.8 7.3 0 21.3-2 8.1-4 4.5 0.5 4.4 1 5.2-0.9 5.9 0.1 5 1.2 3.3-0.9 7.9-9.3 2.4-3.8 2.6-2.9 3.6-9.4 2-0.1 2.3-1.2 2.6-3z" id="BFSEN" name="Séno">
  </path>
  <path d="M737.4 179.3l0.5 0.7 1.7 1.6 3.9 2.6 1.1 1.5 1.3 1.4 2.2 0.9 0.8 1.1-0.7 2.2-1.1 2.5-0.5 1.8 1.6 2.9 3 1.1 15.3-0.5 1.2 0.2 0.3 0.8 0 1 0.1 0.7-0.1 0.5-0.4 0.4 0.1 0.8 1.4 1.3 2.2 1.1 2.1 0.2 4.3-0.5 5.3 1.7 6.2 3.7 4.6 5 0.6 5.3 2.2 3.6 3.8 2.8 12.5 5.8 2 0.7 4.9 0.6 1.9 0.5 1.8 1.2 2.2 2.5-3.1 1.3-2.3-1.1-1.8-1.7-2.1-0.6-0.6 0.6-0.6 1.3-1.1 4.1-0.8 0.2-2.6-1-6.1-1.6-9.2-3.7-2.5-0.4-1.5 4.7 0.1 10 0 11.1 0.1 7.5-0.1 0.1-2.1 0.8-10.5 5.8-2.2 1.9-2.2 1.5-3.1-0.2-2.2 2.5-2.7 2.1-3.3-0.3-2.9-1.1-3.9 1.3-3.1-0.7-2.8 1.7-2.8 0.7-1.8-0.5 1.6-0.3 1-1.9-1.4-3.4-4.5-4.7-4-5.3-3.1-3.3-3.4-3.1-2.5-3.2-15-4.8-5.1-4.6-1.3-4.2-7.1-6.8-3.9-5.4-3.3-7.4-3.8-4.4-2.2-1.6 0-3.3-0.4-3.9-0.5-2.1 3.2-2.6 2-1.2 1.1-0.5 1.5-0.5 2.5-1.3 1.7-1.5 1.4-1.6 2-1.1 3-0.4 2.3-1.9 0.6-1.6 0.8-1.8 1.7-2.1 5.2-2 5.1-0.2 2-1.4 1.4-2.7 1.4-1.8 5.2-0.2 2.6-1.4 2-1.8 1-1.2 0.7-1.4 0-0.1z" id="BFYAG" name="Yagha">
  </path>
  <path d="M791.6 269.7l0 2.2 0.3 2.3 1 1.8 3.3 1.9 8.3 0.7 3.4 1.7 6.6 5.5 6.8 5.9 8.5 7.2-4.1 7.6-0.8 0.3-2.3 0.2-4.7 1.2-3.7 0.5-1.4 0.6-0.4 1.5-0.2 1.8-1 1-0.9 1.6-0.5 2.2-1.4 1.9-1.7 1.1-1.7-0.2-0.8-0.2-0.7-0.1-1.6-0.5-2-1-2-0.1-1.7 0.4-1.4 0.6-1.5 1.8-1.3 2.7-1.9 2.2-2.2 0.7-2.5 0.1-2.5 0.5-1.8 0.8-1 1.3-1.8 4.2-0.3 2.3 0.1 2.1-0.9 0.5-0.9-0.2-0.7-0.1-0.6 1.5-0.2 2.8-2 2.2-0.8 1.6-2.2 0.6 0 1.1-0.8 0.9-1.4 0.8-0.3 1.5 0 1.5-0.8 0.9-1.3 1.1-0.8 1.9-1.2 1.1-1.6-0.1-1.3 0.4-0.8 1-1.8 1.4-2.6-1.6-5.3-11-1.5-2-13.3-8.6-2.7 0.9-8.8 5.9-2.3 1-1.2 0.4 0-2.8-3.2-12.1-2.3-19.3-3.2-5.9-2.9-3 0.8-1.7 2.4-2.9 0.7-3.6-0.3-2.6 1-1.3 3.2 0.4 2.5 1.6 2.8 0.5 3.6 1.6 3.4 0.9 3.1 0.2 2.8 0.6 2.4-1.3 2.1-1.5 1.9-1.1 2.2-0.6 1.1-1.5-0.4-1.9 0-1.3 0.5-0.9 1.1-0.5 0.6-0.1 1.8 0.5 2.8-0.7 2.8-1.7 3.1 0.7 3.9-1.3 2.9 1.1 3.3 0.3 2.7-2.1 2.2-2.5 3.1 0.2 2.2-1.5 2.2-1.9 10.5-5.8 2.1-0.8 0.1-0.1z" id="BFKMD" name="Komondjari">
  </path>
  <path d="M740.8 437.5l-0.8 8 0.6 3 0.4 8.2 0.9 2.8 2.4 4.4 1.3 3.5 0.5 2.4-1.2 3.1-2.9 2-0.7 2.2 1.1 5.1 1.1 1.8 0.6 2.1-0.6 1.9 0.1 1.1 0 1.3-4.2 5-1.4 2.1-0.7 3-0.2 3.3-1.1 1.5-2-0.5-1.8-2.2-1.3-1.9-1.6-0.8-1.6 1.6-4.4 9.3-0.3 1-10-2.1-26.2-5.4-7.4-1.5 0-0.2 0-0.4-0.5-0.2-0.5-0.2-0.4-0.3-0.4 0.1-0.5 0.1-0.5 0.1-0.3 0.2-0.3 0.1-3.3-0.7-6-1.2 0.3-0.9 1.1-3.2 1.5-3.2 0-1.7 1-1.1 2-0.6 1.2-1.4 0.9-1.8 0.5-1.7 1.2-1.6 1.7-1.4 1.2-1.2 1.2-1.7 0.1-1.7-1.7-1.9-3.1-1.1-3.3 0.1-2.2 0.5-1.9 0.9-2 0.3-2.2-0.6-1.9-0.1-1.4-1.2-0.2-2.4 1.4-1.8 0.3-1.8-0.7-1.8 1.1-1.6 1.4-1.7 0.5-4 0-1.9 0.8-1.6 0.5-1.7-1.9-2.6-0.9-2.6 2.6-5.8 1.7-1.9 2-2 2.2-4.5 3.8-3.3 2-0.9 4.6 0.5 1.9 0 1.5-0.7 0.3-1.8-0.2-1.1 1 0.2 1.8 0.1 0.9-0.8 0.6-3.1 1.7-0.5 6.3 1.1 1.9-0.1 2.1 1.7 3.7 1.8 7.2-0.3 3.4 1.1 12.7 8.8 2.5 0.4 9.4 0.2z" id="BFKOP" name="Koulpélogo">
  </path>
  <path d="M666.7 500.2l-2.3-0.5 0.1-0.2 0-0.6-0.2-0.4-1.5-0.3-0.4-0.2-1-0.4-0.6-0.2-0.9-0.2-0.3-0.1-0.4-0.1-0.5-0.1-1.5-0.5-1.7-0.4-0.7 0.1-0.8-0.4-1.5-0.4-1.4-0.4-2.9-0.6-0.3 0.3-0.4 0.3-0.2 0.4 0 0.4 0 0.4-2-0.4-0.3 1.9 0.4 1.1 0.3 1-0.6 1.2-0.1 0-0.6 0.3-1.4 0.1-0.9 0.6-0.5 0.2-0.4 0.2 0.2 0.7-0.1 0.5-0.1 0.4-0.3 0.5-0.2 0.3-0.5 0.2-0.4 0-0.4 0-0.2 0.3 0 0.5 0 0.2-0.6 0.5-0.1-0.3 0-0.4-0.4-0.3-0.3-0.2-0.2-0.2-0.2-0.3-0.2-0.5 0-0.5 0-0.6-0.3-0.4-0.1-0.5 0.1-0.4 0-0.4 0-0.6 0.1-0.4-0.4 0-0.5-0.3-0.4-0.1-0.3 0.1-0.4 0-0.7-0.1-0.6 0-0.4 0.4-0.5 0.2-0.7 0.2-0.4 0.4-0.4 0.2-0.4 0-0.4 0.7-0.1 0.7 0.1 0.8-0.1 0.1-1.5 2-0.5 1.7-0.3 2.7-0.6 1.2-0.1 0.1-0.3 0-0.5-0.2-0.3-0.1-0.2-0.2-0.4-0.1-0.3-0.2-0.3 0.3-0.2 0.3-0.2 0.5 0 0.4-0.5 0.2-0.5 0-0.6 0.1-0.3 0.2-0.3 0.1-0.2 0.2 0.1 0.4-0.1 0.6 0 0.5-0.3 0.4-0.5 0.6-0.2 0.3-0.3 0.2-0.5-0.1-0.6-0.1-0.3-0.4-0.1-0.4-0.5-0.1-0.3 0.3-0.3 0.4-0.2 0.4-0.1 0.1-1.8 0 0-0.1-0.6 0.1-0.3-0.2-0.3-0.2-0.4 0.2-0.2 0.3-0.8 0.1-1.6 0.6-1.1 2-0.8 2.9-1.2 2.6-0.2 0.2 0-0.1-0.3-0.5-0.1-0.5-0.1-0.4-0.1-0.4 0-0.3-0.3-0.4-0.3-0.3-0.3 0-0.4-0.1-0.4-0.2-0.3-0.3-0.7-0.5 0.3-0.3-0.1-0.4-0.3-0.2-0.3-0.2-0.2-0.4-0.4 0.1-0.3 0.5-0.4 0.3-0.5-0.2-0.4-0.1-0.1-0.4 0.2-0.3 0.2-0.4 0.2-0.4 0.3-0.3 0.3-0.2 0.4 0.1 0.3-0.3 0.3-0.6-0.2-0.5-0.7-0.2-0.6 0-0.4 0-0.4-0.1-0.4 0.5-0.1 0.2-0.8-0.1-0.2-0.1-0.1-0.5 0-0.5 0.2-0.4-0.5-0.1-0.6 0-0.4 0-0.6 0-0.1 0-0.2-3.4 1.1-2 0.6-1.8-0.7-2.3-2.1-1.7-1.9-2-1.4-2.9-2.6-4.2-1.2-2.9 0.8-0.8 1.6-2.1 1-3.6 1.4-2.5 3.1-1.6 4.1-3.5 4.3-2.6 3.3-3.2 3.3-1.4 3.5 1.3 0.1-2.1-0.3-3.2 1.8-4.2-2.1-3.5-1.2-1.2-4-1.8-1.2-1-2.2-1.1-8.7-2.1-2.1 0.3-0.2-0.1-2.7 1.9-5.1-2.9-5.4-2.1-3.6-2.5-6.4-9.9 1.6-4.5 3.2-4.2 2.9-1.7 6.7-9.3 5.8-0.5 6.1-1.8 4.5-4.5 2-3.3 2.3-3.2 2.5-2.6 3.3-1.3 6.4-0.7 4.5 0.4 1-0.1 0.1 1.2 0.1 3-0.9 2.9 1.2 3.6 3.5 4.7 5.5 4.1 11.8 3 3 0.3 3.9-6.3 10.3-8.5 1.6-0.6 0.6 0.2 1.6 0.4 2.4 1.1 1.2 4 3.8 2.6 5.3 1.1 2.8 4.6 1.1 4.7 0.1 1.8 0.2 1.1-0.3 1.8-1.5 0.7-1.9 0-4.6-0.5-2 0.9-3.8 3.3-2.2 4.5-2 2-1.7 1.9-2.6 5.8 0.9 2.6 1.9 2.6-0.5 1.7-0.8 1.6 0 1.9-0.5 4-1.4 1.7-1.1 1.6 0.7 1.8-0.3 1.8-1.4 1.8 0.2 2.4 1.4 1.2 1.9 0.1 2.2 0.6 2-0.3 1.9-0.9 2.2-0.5 3.3-0.1 3.1 1.1 1.7 1.9-0.1 1.7-1.2 1.7-1.2 1.2-1.7 1.4-1.2 1.6-0.5 1.7-0.9 1.8-1.2 1.4-2 0.6-1 1.1 0 1.7-1.5 3.2-1.1 3.2-0.3 0.9z" id="BFBLG" name="Boulgou">
  </path>
  <path d="M590.7 491.8l1.2 2.9 2.6 4.2 1.4 2.9 1.9 2 2.1 1.7 0.7 2.3-0.6 1.8-1.1 2 0.2 3.4-0.4 0-0.4 0-0.5 0-0.6 0-0.5 0-0.8 0-0.4 0.1-0.7 0-0.6 0-0.4 0-0.5 0-0.5 0-0.5 0-0.3 0-1.2-0.1-0.4 0-0.9 0-0.6 0-0.5 0-0.5 0-0.6-0.1-0.1-0.7-0.4-0.1-0.5 0-0.5-0.1-0.5 0-0.4 0 0 0.1-0.1 0-0.6 0.3-0.5 0.6-0.8 0-0.5 0-0.5 0-0.5 0.5-0.4 0.1-2.5 2.8-0.7 0.1 0.1-0.3 0-0.6-0.1-0.6-1.1-0.1-0.9 0.1-0.3-0.2-0.9-1.6 0.1-0.3-0.1-0.4-0.5 0-0.5 0-0.4 0-0.4-0.1-15.8-1.3-3.3 0.6-0.3 0.6-1.5 0 0 1.1-13.1-0.1-14.6-0.1-2.8-0.6-3.9-1.5 0-1.5-1.3-2.4-2.2 0.5-1.9-1.1-0.3-1.8-0.6-1.1-4.4 0.2-4.9-1.9-1.6-0.9-1.6-0.6-1.9-1.1-2.2-1.9-2.9-1.2-0.8-2.4 1.9-2.8 1.6-2.2 0.6-3 1.2-3.1 1.2-1.8 0-4.8 0.1-1.2 2.4-3.1 1.9-0.9 1.8 0.3 2.5-1 5-5.8 3.1-2.3 2.6-1 2.4-1.2 1.8-1.3 1.5-1.5 2.2-2.6 4.3-4.5 1.4 0.7 2 3 1.2 3.2 3.1 0.7 3.8-0.1 2.3 3 2 3.4 2.2 1.5 3.7 0.9 2.8 1.8 4 4.5 2.6 1.7 3.3-1.1 3.5 0.7 1.3 2.5 0 3.2 1.6 0.8 2.4 1.6 2 3.3 1.8 1.3 3 3.3 6.9 3.2 3-1.1 1.8-2.3z" id="BFNAO" name="Nahouri">
  </path>
  <path d="M497.5 477l-0.1 1.2 0 4.8-1.2 1.8-1.2 3.1-0.6 3-1.6 2.2-1.9 2.8 0.8 2.4 2.9 1.2 2.2 1.9 1.9 1.1 1.6 0.6 1.6 0.9 4.9 1.9 4.4-0.2 0.6 1.1 0.3 1.8 1.9 1.1 2.2-0.5 1.3 2.4 0 1.5-0.7-0.2-0.3-0.5 0 0.3-0.1 0-1.4-0.6-12.6-0.4-0.1-1.6-22.8 0.2 0.1 3.5-12.9 0.3-17.3 0.2-3.3-0.8-2.6-0.8-2.9 0.4-4 0-6.2-0.5-1.7-0.1-3.8-0.1-3.5 0.3-2.5 0.1-3.2 0.7-1.8 0.1-2.4 0.2-1.6 0-1.1 0-2-0.1-3.8-0.9-4.8-0.8-5.2 0.6-4.6 0-2.1 0.1-3.1-0.5-4.1 0.2-0.5 0.1-0.4 0-0.7 0-0.6 0-1.8 0-3.1 0-0.4 0-4.6 0 0.1-0.6 1-1.8 1.6-1.2 3.9 0 1.5-0.6 0.8-1.7 0.7-2.2 0.4-2.5-1.3-2.6-2.2-2.1-5.4-4-2.2-0.2-2.5 4.3-1.4 0.6-1.4 0.9-1.1-0.3 0.1-2.3-0.9-6.9-0.9-1.9 0.4-1.1 2-4.5 1.8-2.3 2.8-2.7 3.1-1.2 3 0.7 3.5 0.5 4.1 0.1 2.7-2.1 2.1-2.3 3-0.5 2-1 1.6-1.8-0.1-2.6-2-2.2-9.3-5.8-3.2-2.6-1.6-1.7-0.6-7.6-0.7-2.5-0.4-0.9 2.5-0.3 7.5 0.1 1.3-2.8 0-5.8 1.1-4.8 2-4.1 2.1-3.5 2.9-2.2 10.7-6.1 4.2-1.4 3.7-0.4 8.1-2.4 3-0.5 1.5-0.9 1 3.8 0.7 6.2-0.6 1.5-0.2 2 1.2 2.8 0.2 2.6-0.4 2.6-2.4 1.2-4.8-0.1-4.3-0.8-1.9 0.4-1.1 13.7 0.1 3.6 1.5 3.2 2.8 2.3 2.9 1.1 5.6-0.3 3 0.3 2.4 1.4 2.1 1.9 1.3 1.4 0.1 0.6 0.1 1.6 0.7 3.2 1.8 3.4 2.3 2.9 2.3 2.1 2.3 1.4 2.6 1 1.4 1.9 0.5 2.1 1.9 1.2 2.3 0.6 1.9 0.2 1.2-0.7 1.3-2.8 1.7-2 3.4-2.9 5.5 1.4 1 1.1 0.4 1.9 1.2 1.6 2 1.9 2.9 0.4 2.1-1 1.9-1.2 3.2-2.5 2.3-2.9 3.1-1.7 2.1-0.2 1.7 0 3.1 0.7 1.2 1.6 0.6 1.3 3.7 1.8z" id="BFSIS" name="Sissili">
  </path>
  <path d="M343.4 549.3l-0.6 0.4-1.6 0.4-2.5 0-1.3-1.1-0.7-1.9-1.9-2.2-2.9-0.2-2.7 0.4-0.2-0.8-1.6-0.7-0.8-1.2-0.4-1.6-1.1-1.2-1.5-0.4-4.4-0.2-3.3 0.3-1.2 1.5-1.4-0.7 0.2-2.3 0.9-2.4-0.6-1.4-1.5-1 1-2.3 3.7-1.4-1.1-5.7 1.5-4.4 0.8-1.4 0.4-1.8 0.3-2.3 1.5-3 0.8-3-0.9-2.4-0.2-2.5 1-2.3 0.9-3.9-0.4-2.7-4.3-1.5-4.6-0.6-6.2 1.1-3.5 0.9-2.5 0.9 0.5-1.2 0.9-5.6 0.8-1.9 1.5-2.3 4.8-5.8 3.5-2.8 4.7-1.3 3 1.2 1.8 1.6 3.7-0.5 4.6-1.5 4.4 0.3 3 1.6 4.7 0.9 4.2 1.5 3.9 1.8 1 0.4-1.2 1.8-1.1 2.5 1.2 1.1 5.1 0.2 2.3 0.7 0.9 1.9 0.9 6.9-0.1 2.3 1.1 0.3 1.4-0.9 1.4-0.6 2.5-4.3 2.2 0.2 5.4 4 2.2 2.1 1.3 2.6-0.4 2.5-0.7 2.2-0.8 1.7-1.5 0.6-3.9 0-1.6 1.2-1 1.8-0.1 0.6-0.1 0-1.7 0-1.3 0-0.5 0-0.4 0.1-0.4 0.2-0.3 0.2-0.3 0.3-0.2 0.5 0.1 0.5-0.4-0.1-0.7 0-0.5 0-0.5 0.1-2.2 0-0.7 0-0.6 0-1.2 0-0.4 0-0.4 0 0 0.5 0 0.2-0.1 0.5-0.1 0.4-0.1 0.4 0 0.4-0.1 0.2 0 0.2-0.1 0.4-0.2 0.5 0 0.5 0.1 0.5 0.2 0.4 0.5 0.4 0.4 0.3 0.3 0.3 0.3 0.2 0.3 0.3 0.2 0.5 0.3 0.9 0 0.3 0.1 0.3 0 0.5-0.1 0.4-0.2 0.4-0.3 0.4-0.2 0.3-0.3 0.4-0.2 0.3-0.3 0.5-0.3 0.6-0.2 0.3-0.4 0.4-0.7 0.1-0.7 0-0.5 0-0.5 0.1-0.5 0.3-0.1 0.4-0.1 0.3-0.1 0.4 0.1 0.7 0.2 0.5 0.1 0.4-0.1 0.1-0.9 2.4-0.1 0.2-0.3 0.4-0.3 0.3-0.1 0.4-0.1 0.4 0 0.4 0 0.5 0 0.7 0 0.5-0.1 0.5-0.2 0.7-0.3 0.6-0.3 0.5-0.2 0.5 0 0.1-1.2 1.9-0.2 1.7-0.1 0.1-0.4 0.5-0.4 0.4-0.2 0.3-0.3 0.3-0.3 0.3-0.3 0.3-0.6 0.5-0.3 0.2-0.4 0.3-0.3 0.2-0.5 0.3-0.2 0.6-0.1 0.6 0 0.5 0.4 0.1 0.4 0.3 0.4 0.1z" id="BFIOB" name="Ioba">
  </path>
  <path d="M372 443.3l0.4 0.9 0.7 2.5 0.6 7.6 1.6 1.7 3.2 2.6 9.3 5.8 2 2.2 0.1 2.6-1.6 1.8-2 1-3 0.5-2.1 2.3-2.7 2.1-4.1-0.1-3.5-0.5-3-0.7-3.1 1.2-2.8 2.7-1.8 2.3-2 4.5-0.4 1.1-2.3-0.7-5.1-0.2-1.2-1.1 1.1-2.5 1.2-1.8 1.7-2.6 0.3-1.4-0.3-3.8 0.3-1.3 1.1-2.3 0.2-1.2 0.2-4.1-0.2-1.2-0.6-1.1-1.4-1.8-0.4-1 2-1.8 0.4-0.6 0.2-1.2-0.1-1.7-2.3-1.7-1.5-0.9-1.4 0-0.5 1.2-0.8 0.8-1.5-0.5-1.9-1.3-1.7-0.5-1.5 0.6-2.1 0.5-2.2-0.7-2.1-2-3.1-1.7-2.8-0.3-1.6 0.5-1.3 0.8-3.8 3.1-2.6 1.5-2.7 0.8-2.5 1.5-2.4 2.5-2 0.6-1.8-0.9-2.4 2-3 1.1-2.3-2.4-0.8-2.7 0.1-4.3-0.7-0.8-2.2-0.7-2.7-0.4-1.7-1.1-1.5-1.7-3.7-1-0.9-1.5 2.5-6.7 0.8-1.5-0.5-0.9-2.1-1.1-3.7-1.5-7.1-1.3-4.3-2.1-4.8-3.2-0.2-1.6-1-2-1.3-1-0.4-1.4 1.7-3.4 0.3-2.7 1.1-1.9 1.4-1.4 1.9-1 3.3-0.4 2.2-1.5 1.6-1.4 0.9-2-0.6-2.8 0.3-1.3 9.5-1.7 2.9 0.3 1 0.5 1.8-0.5 6.7 3.5 0.9 3 0 3.4 2.2 1.9 3.2 0.5 2.4-1.8 3.2-0.9 6.9 3.7 2.8-0.4 2-1.3-0.2-2.3-1-3.4-2.1-2-4.3-0.3-2.4-1.3-1.3-2.6-2.8-2.4-1.4-2.1 0.3-6.1 1.9-1.6 3.4-0.6 5.9 3 3.4-0.6 3.2-1.1 1.3 0.1 0.4 2 1.5 2.3 1.2 0.9 1.4 0.7 4 1 4.1-0.4 2.2-1.2 1.3-1.2 0.4 1.4 0.8 1 2 1.3 0.5 1.2 0.2 0.4 0.5 0 1.5-0.2 0.4 0.2 0.6 1.4-0.1 1.2-0.3 1.1-0.2 1.4-0.2 0.8-1.1 2.1-0.3 1.1 2.4 2.9 2 1.5 1.1 1.4-0.1 1.6-4.5 5.5-0.5 1.1-1.3-0.1-1.3-0.4-0.9-0.1-2.1 2.2 1.1 2.1 2.8 1.5 3.3 0.6 6.9-0.1 3.2 1.2 1.4 3.3-0.1 0.6 6.6 10 2.1 2.5 0.7 0.3z" id="BFBAL" name="Balé">
  </path>
  <path d="M421.1 409.1l-3 0.5-8.1 2.4-3.7 0.4-4.2 1.4-10.7 6.1-2.9 2.2-2.1 3.5-2 4.1-1.1 4.8 0 5.8-1.3 2.8-7.5-0.1-2.5 0.3-0.7-0.3-2.1-2.5-6.6-10 0.1-0.6-1.4-3.3-3.2-1.2-6.9 0.1-3.3-0.6-2.8-1.5-1.1-2.1 2.1-2.2 0.9 0.1 1.3 0.4 1.3 0.1 0.5-1.1 4.5-5.5 0.1-1.6-1.1-1.4-2-1.5-2.4-2.9 0.3-1.1 1.1-2.1 0.2-0.8 0.2-1.4 0.3-1.1 0.1-1.2-0.6-1.4-0.4-0.2-1.5 0.2-0.5 0-0.2-0.4-0.5-1.2-2-1.3-0.8-1-0.4-1.4 0.3-1.3 1.1-2.1 0.2-0.7 1.1-1.9 2.4 0.5 6.4 4 1.3 0.2 0.6-1.2 0.3-1.2 0.9-2.9 0-0.7-1.5-1.8-1.3-2.3-0.7-2.6-0.1-1.8-0.8-3.1-1.5-1.9-4.4-3.5-0.6-2.1 0.7-2.8 1.4-2.4 3.6-2 0.1-2.3-0.4-1 8.7-8 5.1-9-0.8-2.7-1.5-3-1.3-3.8 0.5-3.5 1.6-2.3 1.8-1.9 3.1-1.9 2.8-2.3 3.4-5.1 4.5-2.9 3.3-2.6 1.6-1.5 2.3-1.9 1.3-0.2 1.5 0.1 2.2 1.6 0.6 2.9-1.7 2.7-1.1 3 0.5 2.6 3.4 0.4 5-0.3 2.5 0.8-0.8 1.8-2.9 2.4-1.6 3.1 0.8 1.9 1.5 0.3 3.7-0.7 2.9-0.9 2-0.5 5.4-1.8 0.6 0.1 0.5 1.5 1.4 2.9 1.4 2.3 1.4-0.4 1.4-2.4 2.7-1.9 1.3 2.2-1.5 5-2.7 4.3-7.7 5.1-2.6 3-4 1.9-3.7 0.4-1 2.2 0.6 2.1 1 1.2 1.7 13.1 0 7.3-2.9 3.4-4.6 2.6-1.7 2.2 3 2.6 2.1 2.9-2.5 3.1-2.3 1.9-1 0.7 0.1 2.5 1.2 4.1 3 1.1 3.7 0.5 5 4.6 2.6 1.4 3.7-0.8 4.9-2.4 3.6 0.1-0.7 3.1-1.2 3 0.4 1.4z" id="BFSNG" name="Sanguié">
  </path>
  <path d="M267.9 518l-1.7 0.3-2.7 0.1-2-1.3-6.7-6.6-2.3-1.7-2.5-2.3-2.4-3.1-3.1-5-0.8-0.5-0.5-0.4-3.4 0.6-3.3 0.1-1.8-2.7-0.7-4 3.6-15.5 0.1-3.3-2.5-0.3-2.2-2.2-0.5-4.4-1.4-5.7-1-1.3-2.3-1.7-2-2.4-1.9-3.2-1.2-3.8-0.8-3.7-0.4-3.9 3.7-11.5-0.5-8 0.8-3.5 0.7-2.1 0.7 0.4 2.7 0.2 0.5 1.1 0.4 1.1 1.8 1.4 2.1 1 0.5 1-0.3 1.6 0.5 1.4 1.4 0.6 2 0.6 2.5 1.1 2.1 1.3 1.7 1.2 1.7 1 2.5 0.4 2.1 0.2 1.7-0.7 2.2-1.5 2.4-1.2 2.1-0.5 7.2-0.4 1.1-0.2 4.8 3.2 4.3 2.1 7.1 1.3 3.7 1.5 2.1 1.1 0.5 0.9-0.8 1.5-2.5 6.7 0.9 1.5 3.7 1 1.5 1.7 1.7 1.1 2.7 0.4 2.2 0.7 0.7 0.8-0.1 4.3 0.8 2.7 2.3 2.4 3-1.1 2.4-2 1.8 0.9 2-0.6 2.4-2.5 2.5-1.5 2.7-0.8 2.6-1.5 3.8-3.1 1.3-0.8 1.6-0.5 2.8 0.3 3.1 1.7 2.1 2 2.2 0.7 2.1-0.5 1.5-0.6 1.7 0.5 1.9 1.3 1.5 0.5 0.8-0.8 0.5-1.2 1.4 0 1.5 0.9 2.3 1.7 0.1 1.7-0.2 1.2-0.4 0.6-2 1.8 0.4 1 1.4 1.8 0.6 1.1 0.2 1.2-0.2 4.1-0.2 1.2-1.1 2.3-0.3 1.3 0.3 3.8-0.3 1.4-1.7 2.6-1-0.4-3.9-1.8-4.2-1.5-4.7-0.9-3-1.6-4.4-0.3-4.6 1.5-3.7 0.5-1.8-1.6-3-1.2-4.7 1.3-3.5 2.8-4.8 5.8-1.5 2.3-0.8 1.9-0.9 5.6-0.5 1.2-2.5 1.1-2.1-0.3-2.2 0.2-2.6 1.7-3.9 0.6-3.2-2.2-1.1 2.2-2.2 1.3-2 0.2-1.2 0.7-2.5 4.2-1.4 1.2-2.1 0.3-0.7 1-0.7 1.3-0.7 1-1 0.8-1.2 0.5-0.5 0.9 0.6 1.3 1 1 0.5 1-0.9 3.3z" id="BFTUI" name="Tuy">
  </path>
  <path d="M255.5 556.4l-2.1-2.5-1.3-1-4.4-0.5-1.9-0.6-1.3-1.3-0.5-1.5 0.2-1.3 0.4-1 1.1-1 2.3-0.4 6.5 0.1 1.6-1-0.4-2.3-1-2.6-1.8-1.8-1-1.7 0-1 0.4-2.5 0.9-0.9 1.2 0 1.3 0.3 2-1.5 1.8-0.2 0.7-1-0.5-1.6 0.3-1.7 1.3-2.8 1.1-0.9 0.6-0.2 0.6-0.1 1-0.5 3.3-3.4 0.9-3.3-0.5-1-1-1-0.6-1.3 0.5-0.9 1.2-0.5 1-0.8 0.7-1 0.7-1.3 0.7-1 2.1-0.3 1.4-1.2 2.5-4.2 1.2-0.7 2-0.2 2.2-1.3 1.1-2.2 3.2 2.2 3.9-0.6 2.6-1.7 2.2-0.2 2.1 0.3 2.5-1.1 2.5-0.9 3.5-0.9 6.2-1.1 4.6 0.6 4.3 1.5 0.4 2.7-0.9 3.9-1 2.3 0.2 2.5 0.9 2.4-0.8 3-1.5 3-0.3 2.3-0.4 1.8-0.8 1.4-1.5 4.4 1.1 5.7-3.7 1.4-1 2.3 1.5 1 0.6 1.4-0.9 2.4-0.2 2.3 1.4 0.7 1.2-1.5 3.3-0.3 4.4 0.2 1.5 0.4 1.1 1.2 0.4 1.6 0.8 1.2 1.6 0.7 0.2 0.8-0.5 0.7-1.4 0.7-2.1 0.6-4.8 3-7.9 7-3.8 1.4-2.2 0.5-2.3 0.9-3.2 1.8-2.3 0.7-4.2-3.7-2.1-1.4-2.7-1.3-3.4-0.2-5.6 2.1-2.4 0.2-1.4-0.4-2.1-1.4-3.7-1.6-4.6-0.5-4.8 0.5-6.2 1.7z" id="BFBGR" name="Bougouriba">
  </path>
  <path d="M270.5 340.9l0.4-2.2 1.7-1.7 0.3-1.3-0.7-3.3 0.1-1.3 1.4-0.7 0-0.8-0.5-0.1 0.6-0.8 0.3-0.7-0.3-1.1-0.1-1.3 0.5-0.7 0.8-0.6 0.3-0.8-0.7-1.1 0.6-1 0.7-1.6 0.4-1.6-0.6-0.7-1.6-0.5-0.9-1.1-0.1-1.1 1.9-0.9 0.2-0.9 0.1-0.8 0.4-0.4 3.1 0 2.1 0.8 1-0.2 0.4-1.7 0.7-0.8 1.4-0.4 1.6-0.2 1.1 0.2 1.4 0.5 0.8 0.5 0.4 0.8 1.1 2.9 3 5.3 0 1.2-1.3 1.7 0.9 0.5 0.1-0.2 0.6-0.3 1 0.8 1 0.1 0.9-0.7 0.8-3.2 1.1-0.9 3.1-1 3.6-0.7 1.1 1.1-0.7 11.4 0.9 5.4-0.2 0.6 1.1 0.5 1.3 0 2.7-0.5 1.7 0.3 0.9 0.8 0.6 1 1.1 1.1 0.9-0.8 4.7 8.1 1.6 0.8 0.2 0.3 0.4 1 0.2 0.3 1.4 1.1 0.8 0.4 1.3 0.1 1.7 0.6 4.7 2.8 2.3 0.6 1.3 0.5 2 2.1 0.6 0.2 1-0.6 1.6-0.8 0.9-0.6 2.7-2.4 1.9-0.9 2.5 0.1 2 1.5 0.8 1.5 0.4 1-0.1 2.3-3.6 2-1.4 2.4-0.7 2.8 0.6 2.1 4.4 3.5 1.5 1.9 0.8 3.1 0.1 1.8 0.7 2.6 1.3 2.3 1.5 1.8 0 0.7-0.9 2.9-0.3 1.2-0.6 1.2-1.3-0.2-6.4-4-2.4-0.5-1.1 1.9-0.2 0.7-1.1 2.1-0.3 1.3-1.3 1.2-2.2 1.2-4.1 0.4-4-1-1.4-0.7-1.2-0.9-1.5-2.3-0.4-2-1.3-0.1-3.2 1.1-3.4 0.6-5.9-3-3.4 0.6-1.9 1.6-0.3 6.1 1.4 2.1 2.8 2.4 1.3 2.6 2.4 1.3 4.3 0.3 2.1 2 1 3.4 0.2 2.3-2 1.3-2.8 0.4-6.9-3.7-3.2 0.9-2.4 1.8-3.2-0.5-2.2-1.9 0-3.4-0.9-3-6.7-3.5-1.8 0.5-1-0.5-2.9-0.3-9.5 1.7-0.3 1.3 0.6 2.8-0.9 2-1.6 1.4-2.2 1.5-3.3 0.4-1.9 1-1.4 1.4-1.1 1.9-0.3 2.7-1.7 3.4 0.4 1.4 1.3 1 1 2 0.2 1.6-1.1 0.2-7.2 0.4-2.1 0.5-2.4 1.2-2.2 1.5-1.7 0.7-2.1-0.2-2.5-0.4-1.7-1-1.7-1.2-2.1-1.3-2.5-1.1-2-0.6-1.4-0.6-0.5-1.4 0.3-1.6-0.5-1-2.1-1-1.8-1.4-0.4-1.1-0.5-1.1-2.7-0.2-0.7-0.4-0.6 0.1-0.4-1.1 0.4-2 0.2-1.5-0.8-3.4-0.9-0.6-1-0.5-0.5-0.6 0.2-1.5 0.8 0.1 1 0.7 1.8-0.1-0.7-1.9 0.2-2.2 1.1-1.7 1.8-0.7-0.6-1.5-0.3-0.5-0.7-0.4 2.4-4 0.5-0.2 0.5 0.1 0.4-0.2 0.4-2.5 0.5-1.3 0.9 0 1.3 0.9 0.6-1.5 0.3-2.2 0.5-1.2 2.1-0.5 1.9-1.3 1.4-1.7 0.5-1.7-0.7-8.7 1.1-2.8 4-1 1.7-1 1.1-2.4 1.4-4.7 4-6.4 1.3-1 4.4-2.6 1.4-0.5 0.7 0 0.5 0.3 1.5 1.7 0.9 0.7 0.9 0.1 0.9 0.3 0.9 1 1.5-1.1 0.3-1.1-0.3-2.6 0.3-1.6 1.1-2.8 0.2-1.3z" id="BFMOU" name="Mou Houn">
  </path>
  <path d="M667.3 406.6l-0.6-0.2-1.6 0.6-10.3 8.5-3.9 6.3-3-0.3-11.8-3-5.5-4.1-3.5-4.7-1.2-3.6 0.9-2.9-0.1-3-0.1-1.2 1-0.1 2.2-2.2 1.8-4.5-1-11.1 0.8-1.6-6.3-6.2-0.9-2.5-0.6-3.5-3-7.9 1.1-4.5-0.7-2.9-1.7-3.4-3.9-3.3-4.9-2.9-1-3.6-0.1-0.7 1.3 0.1 19 4.5 5.5-0.3 20.9-10.8-3.1 9.8 1.2 4.8 4.7 2.6 4.4 3.1-0.3 4.1-3.4 4.6-0.7 4.9 3.6 2.6 7.7 2.3 1.7 2 3.7 2.7 2.6 3 4.9 4.8 0.4 3.1-2.5 0.7-3.3 1.6-3.8 1.2-3.4 2.3-2.7 5.1-0.5 4.2 0.5 3.4-0.5 2.1z" id="BFKOT" name="Kouritenga">
  </path>
  <path d="M626.6 399l-1 0.1-4.5-0.4-6.4 0.7-3.3 1.3-2.5 2.6-2.3 3.2-2 3.3-4.5 4.5-6.1 1.8-5.8 0.5-1.2-0.3-1.1-0.8-0.9-1.2-0.8-2.9-1.1-0.1-1.5 0.4-1.7 0.1-2-0.9-0.6-1 0.3-3.4-0.3-1.8-0.6-1.3-2.4-3.2-0.8-0.5-0.8-0.6-1.5-1-1.5-1.5-3.3-3.8-0.9-2.3-2-2-1-1.3-0.3-0.6-0.4-1.3-0.7-5.3-0.5-0.7-1.1-0.9-1.1-1.1-0.5-1.3 0-2.5-0.2-0.9-0.6-1.1-0.7-0.5-0.9-0.2-0.8-0.4-0.8-1.3-0.1-2.1 0-0.3 0.3-2.7-0.2-2.6-1.1-1.2-1-0.4-0.1-1.1 0.6-2.4 0.1-0.6-0.2-1.4 0.1-0.5 0.6-0.5 0.8-0.1 0.6 0 0.4-0.2 2.3-4.2 1.1-3.9-0.8-3.3-1.4-1 2.7-0.4 2.3-0.5 2.7-3.7 3.8-0.1 4.5 4.5 3.5 2.3 3.7-0.4 3.3-1.6 1.1-2.6-0.1-2.2 2.8-1.5 4.5-3.1 3.7-3.4 0-2.8-0.6-4.1 1.7-2.8 4.4-0.6 2.8 0.4 1.3 0.2 3 3.5 2.2 5.9-0.1 8.4 0.3 2.1 0.1 0.7 1 3.6 4.9 2.9 3.9 3.3 1.7 3.4 0.7 2.9-1.1 4.5 3 7.9 0.6 3.5 0.9 2.5 6.3 6.2-0.8 1.6 1 11.1-1.8 4.5-2.2 2.2-1 0.1z" id="BFGAN" name="Ganzourgou">
  </path>
  <path d="M588.2 416.6l-6.7 9.3-2.9 1.7-3.2 4.2-1.6 4.5 6.4 9.9 3.6 2.5 5.4 2.1 5.1 2.9 2.7-1.9 0.2 0.1 2.1-0.3 8.7 2.1 2.2 1.1 1.2 1 4 1.8 1.2 1.2 2.1 3.5-1.8 4.2 0.3 3.2-0.1 2.1-3.5-1.3-3.3 1.4-3.3 3.2-4.3 2.6-4.1 3.5-3.1 1.6-1.4 2.5-1 3.6-1.6 2.1-0.8 0.8-1.8 2.3-3 1.1-6.9-3.2-3-3.3-1.8-1.3-2-3.3-2.4-1.6-1.6-0.8 0-3.2-1.3-2.5-3.5-0.7-3.3 1.1-2.6-1.7-4-4.5-2.8-1.8-3.7-0.9-2.2-1.5-2-3.4-2.3-3-3.8 0.1-3.1-0.7-1.2-3.2-2-3-1.4-0.7-3.9-5.8 3.3-11.1 9.3-15.1 1.4-2.9 4-4 7.6-5.1 6-1.9 3.2 0.7 4.8 2.5 7.4 2.4 5.8-0.9 2 0.9 1.7-0.1 1.5-0.4 1.1 0.1 0.8 2.9 0.9 1.2 1.1 0.8 1.2 0.3z" id="BFZOU" name="Zoundwéogo">
  </path>
  <path d="M529 452.1l-4.3 4.5-2.2 2.6-1.5 1.5-1.8 1.3-2.4 1.2-2.6 1-3.1 2.3-5 5.8-2.5 1-1.8-0.3-1.9 0.9-2.4 3.1-3.7-1.8-0.6-1.3-1.2-1.6-3.1-0.7-1.7 0-2.1 0.2-3.1 1.7-2.3 2.9-3.2 2.5-1.9 1.2-2.1 1-2.9-0.4-2-1.9-1.2-1.6-0.4-1.9-1-1.1-5.5-1.4-3.4 2.9-1.7 2-1.3 2.8-1.2 0.7-1.9-0.2-2.3-0.6-1.9-1.2-0.5-2.1-1.4-1.9-2.6-1-2.3-1.4-2.3-2.1-2.3-2.9-1.8-3.4-0.7-3.2-0.1-1.6-0.1-0.6-1.3-1.4-2.1-1.9-2.4-1.4-3-0.3-5.6 0.3-2.9-1.1-2.8-2.3-1.5-3.2-0.1-3.6 1.1-13.7 1.9-0.4 4.3 0.8 4.8 0.1 2.4-1.2 0.4-2.6-0.2-2.6-1.2-2.8 0.2-2 0.6-1.5-0.7-6.2-1-3.8 1.8 0.2 4.5-0.8 10.1-3.6 3.7-2 2.4-1.7 0.3-0.6 4.3 3.2 4 5.8 1.4 0.1 1.9-1.2 4.2 0.2 4.2-0.2 3.3-2.2 3-0.7 2.7 1.5 9.8 10.8 2.4 1.9 2.8 2.9 2.7 2.4 2.9 1 2.7 1.3 2.1 1.7 1.9 1.9 7.8 3.8 1.9 1.6 1.4 2.3 3.1 3.6 8.7 4.3 0.5 0.6 3.9 5.8z" id="BFZIR" name="Ziro">
  </path>
  <path d="M422.6 408.2l-1.5 0.9-0.4-1.4 1.2-3 0.7-3.1-3.6-0.1-4.9 2.4-3.7 0.8-2.6-1.4-5-4.6-3.7-0.5-3-1.1-1.2-4.1-0.1-2.5 1-0.7 2.3-1.9 2.5-3.1-2.1-2.9-3-2.6 1.7-2.2 4.6-2.6 2.9-3.4 0-7.3-1.7-13.1-1-1.2-0.6-2.1 1-2.2 3.7-0.4 4-1.9 2.6-3 7.7-5.1 2.7-4.3 1.5-5-1.3-2.2-2.7 1.9-1.4 2.4-1.4 0.4-1.4-2.3-1.4-2.9-0.5-1.5 1.5-0.9 0.8-0.4 2.1-1.4 3.6-1.3 7.3-1.8 3.4-0.1 6.9 0.7 2-0.8 1.4-1 5.6 0 2.6 1.3 1.7 2.9 2.1 0.4 1.4-1 0.6 0.5 1 1.2 0 2.5 0.6 2.4 2.8 1.1 3.9 1.1 4 1.8 2.6 3.3 1.1 4.1 0.8 6-1.4 1.9-4.6 1.9-3.4 0.7-2.7-1.7-3-1.3-3.1-0.3-4.3 0.2-2.3 1.9-1.6 2.6-1.5 3.5-1.2 4.6-2.6 3.9-1.4 2.8 2.2 2.2 3.7 1.2 3.9-1.8 4.5-3.4 4.2-2.4 4.3-1 4.6-0.3 2.2 0.2 0.9 1-0.3 2.4 0.1 2.2 2 2 0.5 2.2-0.1 2.4-0.5 1.9-1.3 1.5-2.6 2.1-3.1 3.3-1.3 2.2-2.8 0.2-3.2 1.9-1.7 1.9-2.5 1-0.6 3.1-1.4 3.9-4.2 3.3-1.7 1.8-1.6 2.1-0.3 0.6-2.4 1.7-3.7 2-10.1 3.6-4.5 0.8-1.8-0.2z" id="BFBLK" name="Boulkiemdé">
  </path>
  <path d="M553.8 367l0.1 2.1 0.8 1.3 0.8 0.4 0.9 0.2 0.7 0.5 0.6 1.1 0.2 0.9 0 2.5-1.6 1.5-3.5 0.8-2.9 1.2-2.3 0.4-4.7 0-5 0.8-3.2 1.7-1.9 0.6-2.9-2-2.3 0.1-3 1-2.4 1.1-2.4 1.5-2 0-1.3-1.7-2.3-6.8-1.9-1.5-1.5 0.2-1.2 0.1-1.6-0.3-2.2 0.3-2.8 1.1-1.8 1.9-1.6 2.8-2.2 1.3-2.8 1-2.9 2.1-2.4 0.9-2.3 0.7-4 4-1.6 0-2-1.5-2.3-0.9-1 0-3.4-0.4-2-1.4-5.6-6.1 1.3-2.2 3.1-3.3 2.6-2.1 1.3-1.5 0.5-1.9 0.1-2.4-0.5-2.2-2-2-0.1-2.2 0.3-2.4-0.9-1 0.9-0.7 4.7-2.4 7.1-2.1 3.3-1.3-0.4-2.2-4.4-15.3 0.2-2 1.5-0.8 2.3-0.7 3.4-0.6 1.8 0 2.5-1.4 0.8-2.8 0.4-2.7 1-2.6 0.7-1.3 1.1 0.8 1.9 2.2 1.5 2.8 0.1 2.4-1.2 2.3-0.5 2.8 0.7 2.4 1.9 0.5 3.1-1 2.6-1.7 1.7-0.9 1.9 2.5 1.5 1.5 0.5 2.2-0.7 1.8-2.1 3.1-0.3 0.6 0.5 0.8 8.8-0.6 2.3-0.8 2.5-2.4 1.7-0.7 1.5-0.4 1.3 0.5 5.1 1.2 1.5 2.6 1 3.2-0.2 3-2.1 5.1-0.2 2.1 0 1.9 1.6 0.3 3.2 1.7 2.8 3.4 1.6 0.2 7.7 3.9 2.9-0.7z" id="BFKAD" name="Kadiogo">
  </path>
  <path d="M583.4 335.9l0.1 2.2-1.1 2.6-3.3 1.6-3.7 0.4-3.5-2.3-4.5-4.5-3.8 0.1-2.7 3.7-2.3 0.5-2.7 0.4 1.4 1 0.8 3.3-1.1 3.9-2.3 4.2-0.4 0.2-0.6 0-0.8 0.1-0.6 0.5-0.1 0.5 0.2 1.4-0.1 0.6-0.6 2.4 0.1 1.1 1 0.4 1.1 1.2 0.2 2.6-0.3 2.7 0 0.3-2.9 0.7-7.7-3.9-1.6-0.2-2.8-3.4-3.2-1.7-1.6-0.3 0-1.9 0.2-2.1 2.1-5.1 0.2-3-1-3.2-1.5-2.6-5.1-1.2-1.3-0.5-1.5 0.4-1.7 0.7-2.5 2.4-2.3 0.8-8.8 0.6-0.5-0.8 0.3-0.6 2.1-3.1 0.7-1.8-0.5-2.2-1.5-1.5-1.9-2.5-1.7 0.9-2.6 1.7-3.1 1-1.9-0.5-0.7-2.4 0.5-2.8 1.2-2.3-0.1-2.4-1.5-2.8-1.9-2.2-1.1-0.8-0.1-3.7-0.9-2-3.7-0.8-1.4-1.1-0.7-2.2-1-6.6 0.4-3.5-0.5-2.7-1.8-0.9-1.6-0.1-1.3-0.5-3-2.7 7.7-3.2 4.3 0.3 4.7 2.3 3.1 0.6 0.8-0.4 1.9 1 3 2 2.8 1.5 2.9-0.2 4.1 0.2 4 0.9 2 0 1.3 1.7 1.4 2.4 3.6 1.2 5.8 1.4 5.7 2.8 5.2 4 2.5 4.2-0.2 1.2 0.4 0.4 0.9 0.3 0.8 0.6 0.3 1.5-0.7 1.1-1.2 1.2-0.7 1.3 1.1 1.3 1.4 0.2 0.7-1 0.2-1.5 0-1.4 0.4-0.6 0.9-0.5 1.2-0.2 1 0.5 0.3 0.6 2 0.2 5-0.3 5 2.7 7.6 9.6 5.8 3.6 3.4 0.8z" id="BFOUB" name="Oubritenga">
  </path>
  <path d="M825.7 306.5l-0.5 2.1 0.5 3 1.3 3.5-0.8 3.8-1 2.6-2.5 10.8-2.6 4.6-2.3 5.2 0 6.4 2.1 11.7-0.7 5.2-1.3 5.1 2.6 6.1 5 2.7 4.1 0.7 3.3 1.2-0.1 3.6-3 19.2 0 6.1-1.2 5.7-1.7 4.3-1.3 5-2.5 4.5-1.9 1.2-1.1-1.3-1.8-1.3-1.2 0.1-0.9-0.7-1.1-0.1-1.4 0.6-0.5-0.9 0-1.9-0.9-0.7-1.6-0.9-1.6-1.7-1.3-1.8-0.3-2-0.8-1.1-1.6 0.1-3.8-0.2-1.4-0.6-1.4-1.6-0.8-1.9-1.3-1.2-2.3-0.4-1.5-1.2-1.3-0.8-3.2-0.2-3.8-0.6-2.4-1.1-2.7-0.2-6.9 5.4-5 3.1-1.5 1.2-2.8 2.9-0.9 3.4 0.6 2.9-2.7 2.3-10.6 2.6-3.9 1.8-3.5 2.9-1.2 1.8-9.4-0.2-2.5-0.4-12.7-8.8-3.4-1.1-7.2 0.3-3.7-1.8-2.1-1.7-1.9 0.1-6.3-1.1-1.7 0.5-0.6 3.1-0.9 0.8-1.8-0.1-1-0.2-0.1-1.8-1.1-4.7-2.8-4.6-5.3-1.1-3.8-2.6-1.2-4-2.4-1.1-1.6-0.4 0.5-2.1-0.5-3.4 0.5-4.2 2.7-5.1 3.4-2.3 3.8-1.2 3.3-1.6 2.5-0.7-0.4-3.1-4.9-4.8-2.6-3-3.7-2.7-1.7-2 1.1-1.2 6.6-6.2 3.1-4 3.2-1 3.7 0.4 8.9-4.5 12.2-0.2 4.9-3.2 6.1-5.1 1.2-0.4 2.3-1 8.8-5.9 2.7-0.9 13.3 8.6 1.5 2 5.3 11 2.6 1.6 1.8-1.4 0.8-1 1.3-0.4 1.6 0.1 1.2-1.1 0.8-1.9 1.3-1.1 0.8-0.9 0-1.5 0.3-1.5 1.4-0.8 0.8-0.9 0-1.1 2.2-0.6 0.8-1.6 2-2.2 0.2-2.8 0.6-1.5 0.7 0.1 0.9 0.2 0.9-0.5-0.1-2.1 0.3-2.3 1.8-4.2 1-1.3 1.8-0.8 2.5-0.5 2.5-0.1 2.2-0.7 1.9-2.2 1.3-2.7 1.5-1.8 1.4-0.6 1.7-0.4 2 0.1 2 1 1.6 0.5 0.7 0.1 0.8 0.2 1.7 0.2 1.7-1.1 1.4-1.9 0.5-2.2 0.9-1.6 1-1 0.2-1.8 0.4-1.5 1.4-0.6 3.7-0.5 4.7-1.2 2.3-0.2 0.8-0.3z" id="BFGOU" name="Gourma">
  </path>
  <path d="M653.9 221.2l2-1.8 2.4-4.2 1.9-2.8 3.9 0.1 5 1.6 4.2 1.8 4.9-0.8 3.3-1.5 5.5-2 0.5 2.1 0.4 3.9 0 3.3 2.2 1.6 3.8 4.4 3.3 7.4 3.9 5.4 7.1 6.8 1.3 4.2 5.1 4.6 15 4.8 2.5 3.2 3.4 3.1 3.1 3.3 4 5.3 4.5 4.7 1.4 3.4-1 1.9-1.6 0.3-0.6 0.1-1.1 0.5-0.5 0.9 0 1.3 0.4 1.9-1.1 1.5-2.2 0.6-1.9 1.1-2.1 1.5-2.4 1.3-2.8-0.6-3.1-0.2-3.4-0.9-3.6-1.6-2.8-0.5-2.5-1.6-3.2-0.4-1 1.3 0.3 2.6-0.7 3.6-2.4 2.9-0.8 1.7 2.9 3 3.2 5.9 2.3 19.3 3.2 12.1 0 2.8-6.1 5.1-4.9 3.2-12.2 0.2-8.9 4.5-3.7-0.4-3.2 1-3.1 4-6.6 6.2-1.1 1.2-7.7-2.3-3.6-2.6 0.7-4.9 3.4-4.6 0.3-4.1-4.4-3.1-4.7-2.6-1.2-4.8 3.1-9.8 1.3-5.1-0.1-4.5-1.5-4.3-0.8-1.9-0.6-1.7 2.7-9.3-4.5-3.2-5.1-2.9-2.6-1.7-2-3.1-1.6-4-0.6-2-2-3.9-0.8-3.1 0.6-10.3 2.5-5.6 3.3-4.4 1-3.3-1.4-4.4 1.1-4.5 2.7-5.9 0.5-4.7-1.6-3.1-0.5-3.9 3.3-4.1 4.1-2.5 0.9-2-0.5-1z" id="BFGNA" name="Gnagna">
  </path>
  <path d="M557.9 376l0.5 1.3 1.1 1.1 1.1 0.9 0.5 0.7 0.7 5.3 0.4 1.3 0.3 0.6 1 1.3 2 2 0.9 2.3 3.3 3.8 1.5 1.5 1.5 1 0.8 0.6 0.8 0.5 2.4 3.2 0.6 1.3 0.3 1.8-0.3 3.4 0.6 1-5.8 0.9-7.4-2.4-4.8-2.5-3.2-0.7-6 1.9-7.6 5.1-4 4-1.4 2.9-9.3 15.1-3.3 11.1-0.5-0.6-8.7-4.3-3.1-3.6-1.4-2.3-1.9-1.6-7.8-3.8-1.9-1.9-2.1-1.7-2.7-1.3-2.9-1-2.7-2.4-2.8-2.9-2.4-1.9-9.8-10.8-2.7-1.5-3 0.7-3.3 2.2-4.2 0.2-4.2-0.2-1.9 1.2-1.4-0.1-4-5.8-4.3-3.2 1.6-2.1 1.7-1.8 4.2-3.3 1.4-3.9 0.6-3.1 2.5-1 1.7-1.9 3.2-1.9 2.8-0.2 5.6 6.1 2 1.4 3.4 0.4 1 0 2.3 0.9 2 1.5 1.6 0 4-4 2.3-0.7 2.4-0.9 2.9-2.1 2.8-1 2.2-1.3 1.6-2.8 1.8-1.9 2.8-1.1 2.2-0.3 1.6 0.3 1.2-0.1 1.5-0.2 1.9 1.5 2.3 6.8 1.3 1.7 2 0 2.4-1.5 2.4-1.1 3-1 2.3-0.1 2.9 2 1.9-0.6 3.2-1.7 5-0.8 4.7 0 2.3-0.4 2.9-1.2 3.5-0.8 1.6-1.5z" id="BFBAZ" name="Bazéga">
  </path>
  <path d="M470.8 357.3l-2.2-0.2-4.6 0.3-4.3 1-4.2 2.4-4.5 3.4-3.9 1.8-3.7-1.2-2.2-2.2 1.4-2.8 2.6-3.9 1.2-4.6 1.5-3.5 1.6-2.6 2.3-1.9 4.3-0.2 3.1 0.3 3 1.3 2.7 1.7 3.4-0.7 4.6-1.9 1.4-1.9-0.8-6-1.1-4.1-2.6-3.3-4-1.8-3.9-1.1-2.8-1.1-0.6-2.4 0-2.5-1-1.2-0.6-0.5-1-1.7-1.6-3.8 0.3-4.4 2.4-4.2 9.1-8.6 14.9-3.6 3 2.7 1.3 0.5 1.6 0.1 1.8 0.9 0.5 2.7-0.4 3.5 1 6.6 0.7 2.2 1.4 1.1 3.7 0.8 0.9 2 0.1 3.7-0.7 1.3-1 2.6-0.4 2.7-0.8 2.8-2.5 1.4-1.8 0-3.4 0.6-2.3 0.7-1.5 0.8-0.2 2 4.4 15.3 0.4 2.2-3.3 1.3-7.1 2.1-4.7 2.4-0.9 0.7z" id="BFKOW" name="Kourwéogo">
  </path>
  <path d="M286.3 305l1-0.9 1.6-2.2 0.7-5.5 1.2-2.2 2.3-2.3 6.4-3.5 1.1-1.7 0.4-2.5 2.8-2.3 9.5-2 1.7 1.2 1.6 2.9 1.8 2.1 2.1 0.3 2.7-0.4 2.6-0.2 2.7 1 2.4 1.6 1.9-0.5 2.3-2.5 3.6-0.1 3.7 2.3 2.6 2 3 1.5 3.5 0.8 4 0.4 3.2-0.6 3.6-3.6 2.9-0.6 1.7 0.2 4 0.8-0.8 2.3-1.5 7.9-0.1 3.7 1.2 1.3 3.4 2.8 3.9 4.4-3.4 5.1-2.8 2.3-3.1 1.9-1.8 1.9-1.6 2.3-0.5 3.5 1.3 3.8 1.5 3 0.8 2.7-5.1 9-8.7 8-0.8-1.5-2-1.5-2.5-0.1-1.9 0.9-2.7 2.4-0.9 0.6-1.6 0.8-1 0.6-0.6-0.2-2-2.1-1.3-0.5-2.3-0.6-4.7-2.8-1.7-0.6-1.3-0.1-0.8-0.4-1.4-1.1-0.2-0.3-0.4-1-0.2-0.3-1.6-0.8-4.7-8.1-0.9 0.8-1.1-1.1-0.6-1-0.9-0.8-1.7-0.3-2.7 0.5-1.3 0-1.1-0.5 0.2-0.6-0.9-5.4 0.7-11.4-1.1-1.1-3.6 0.7-3.1 1-1.1 0.9-0.8 3.2-0.9 0.7-1-0.1-1-0.8-0.6 0.3-0.1 0.2-0.9-0.5 1.3-1.7 0-1.2-3-5.3-1.1-2.9-0.4-0.8-0.8-0.5-1.4-0.5-1.1-0.2 0.3-4.3z" id="BFNAY" name="Nayala">
  </path>
  <path d="M435.3 272.3l3 1.6 1.5 2.5 1.4-0.3 6.9 0.3 1.5-1.1 1.4-2.1 1.5-1.7 1.8 0.4 2.1 0.7 2.7-0.6 2-5.1 1.1-2 2.9-1.7 2.7 1.5 2 3.6 5.9-0.7 4.1-2.2 0.8 0.8 4.7 3.8 2 3 2.2 2.5 1.6 0.9 1.7-0.6 0.9 0 0.4 1 0.3 1 0.7 0.2 0.8-0.3 0.6-0.6 0.8 0 1.9 2.2 1.9 0.9 5.2 0.1 1 0.3-3.2 5.2-1.4 4.5-1.1 0.9-0.8 0.4-3.1-0.6-4.7-2.3-4.3-0.3-7.7 3.2-14.9 3.6-9.1 8.6-2.4 4.2-0.3 4.4 1.6 3.8 1 1.7-1.4 1-2.1-0.4-1.7-2.9-2.6-1.3-5.6 0-1.4 1-2 0.8-6.9-0.7-3.4 0.1-7.3 1.8-3.6 1.3-2.1 1.4-0.8 0.4-1.5 0.9-0.6-0.1-5.4 1.8-2 0.5-2.9 0.9-3.7 0.7-1.5-0.3-0.8-1.9 1.6-3.1 2.9-2.4 0.8-1.8-2.5-0.8-5 0.3-3.4-0.4-0.5-2.6 1.1-3 1.7-2.7-0.6-2.9-2.2-1.6-1.5-0.1-1.3 0.2-2.3 1.9-1.6 1.5-3.3 2.6-4.5 2.9-3.9-4.4-3.4-2.8-1.2-1.3 0.1-3.7 1.5-7.9 0.8-2.3 0.2-0.9 0.3-2.6 0-1.7 2.4 0.6 5.3 0.4 6.1-0.1 4.3 0.6 4-0.4 5.4-1 3.3-1 5.5-6 4.4-2.6 10.9-4.7 4 0.9 4.7 2.1 3.6 0.2z" id="BFPAS" name="Passoré">
  </path>
  <path d="M382.3 245.3l1.1-0.7 4.3-0.9 3-1 2.8-1.5 2.3-2.1 0.9-1 0.8-1.2 2.1-1.4 4.5-1.5 1.3 1.1 1.5 1.5 6 0.5 10.1 3.5 3.4 0.5 3.2 0 2 0.7 5.8-2.3 2.5 0.7 0.7 1.5 0.1 2 0.5 2.1 1.3 3-3 4.4-1.3 3.7 0.1 1.1 0.6 1.6 0.2 1-0.3 1-0.6 0.3-0.8 0.2-0.7 0.5-0.7 2.7-0.1 0.1-0.4 0.3-1.5 0.7-0.5 0.3-0.5 3.6 2.3 2-3.6-0.2-4.7-2.1-4-0.9-10.9 4.7-4.4 2.6-5.5 6-3.3 1-5.4 1-4 0.4-4.3-0.6-6.1 0.1-5.3-0.4-2.4-0.6-1.2-5.8 0-4.5 1.5-3.3 2.5-0.5 5.2 0.9 3.7 0.1 4-1 2.4-2.8 3.6-6 5.1-7.1 1.1-3.3-2.2-1.4-3.4-0.6-2.8 0.6-3-0.1-3.1-1.6-2.5-1.6z" id="BFZON" name="Zondoma">
  </path>
  <path d="M610 170.9l2.1 0.6 4.5 2.1 3.2 2.5 6.5 7.2 1.7 3.8 0.9 5.4 2.5 4.1 3.1 2.6 3.1 3.7 4.6 2.5 7.5 0.3 5 1.4-0.3 3.2-2 3.3-0.7 3.5 2.2 4.1 0.5 1-0.9 2-4.1 2.5-3.3 4.1 0.5 3.9 1.6 3.1-0.5 4.7-2.7 5.9-1.1 4.5 1.4 4.4-1 3.3-3.3 4.4-2.5 5.6-0.6 10.3 0.8 3.1 2 3.9 0.6 2 1.6 4 2 3.1 2.6 1.7 5.1 2.9 4.5 3.2-2.7 9.3 0.6 1.7 0.8 1.9 1.5 4.3 0.1 4.5-1.3 5.1-20.9 10.8-5.5 0.3-19-4.5-1.3-0.1-0.3-2.1 0.1-8.4-2.2-5.9-3-3.5-1.3-0.2-0.4-7.3-2.9-6.2-5.2-5.9-4.3-6.8-2.6-6.4-0.6-3.4 0.7-1.5 1.8-0.7 7.9 4.8 3.2-0.8 1.4-2.2 0.6-4.4-0.8-7 0.7-7.4 2.4-6.7 0.7-6.3-1.3-6.5-1.7-6-1.4-8.2-2.2-2-1.9-3.4-2.9-12.9-0.2-6.7 1.5-3.8 2.6-2 2.5-1 2.4-3.9 1.2-7.8-0.6-6.4 1.2-3.9 5.5-4.4z" id="BFNAM" name="Namentenga">
  </path>
  <path d="M526.8 192.6l4.8-0.4 4.9-1.4 5.2-0.8 5.9-0.1 8.7-3.5 2.8 0.4 8.2-4.1 14.8-3.4 16.2-8.3 6-5.8 1.9-0.1 0.4 1.1 1.1 2.1 1.5 1.8 0.8 0.8-5.5 4.4-1.2 3.9 0.6 6.4-1.2 7.8-2.4 3.9-2.5 1-2.6 2-1.5 3.8 0.2 6.7 2.9 12.9 1.9 3.4 2.2 2 1.4 8.2 1.7 6 1.3 6.5-0.7 6.3-2.4 6.7-0.7 7.4 0.8 7-0.6 4.4-1.4 2.2-3.2 0.8-7.9-4.8-1.8 0.7-0.7 1.5 0.6 3.4 2.6 6.4 4.3 6.8 5.2 5.9 2.9 6.2 0.4 7.3-2.8-0.4-4.4 0.6-1.7 2.8 0.6 4.1 0 2.8-3.7 3.4-4.5 3.1-2.8 1.5-3.4-0.8-5.8-3.6-7.6-9.6-5-2.7-5 0.3-2-0.2-0.3-0.6-1-0.5-1.2 0.2-0.9 0.5-0.4 0.6 0 1.4-0.2 1.5-0.7 1-1.4-0.2-1.1-1.3 0.7-1.3 1.2-1.2 0.7-1.1-0.3-1.5-0.8-0.6-0.9-0.3-0.4-0.4 0.2-1.2-2.5-4.2-5.2-4-5.7-2.8-5.8-1.4-3.6-1.2-1.4-2.4-1.3-1.7-2 0-4-0.9-4.1-0.2-2.9 0.2-2.8-1.5-3-2-1.9-1 1.1-0.9 1.4-4.5 3.2-5.2-0.1-2.4-2.3-3.9 0.2-3.6 3.9-3.8 6.5-2.4 6.4-1.2 4.8 0 4 0.6 0.4-3.1-0.8-5.1 0.4-2.9 1.9-3.5 0.6-3.3-2.9-6.5-4.3-4.9-2.1-4.7 3-3.8 1.3-4.5-1.6-5.3-0.1-2.8 1.6-1.9 1.7-3.4 2-5.1-1-4-4-6.5z" id="BFSMT" name="Sanmatenga">
  </path>
  <path d="M479.2 193.7l5.8-11.4 4.6-3.7 4.7-0.5 9.3-4.9 1.3 2.6 1.5 5.7 4.3 4.8 6.3 2.9 5.9 1.3 3.4 1.4 0.5 0.7 4 6.5 1 4-2 5.1-1.7 3.4-1.6 1.9 0.1 2.8 1.6 5.3-1.3 4.5-3 3.8 2.1 4.7 4.3 4.9 2.9 6.5-0.6 3.3-1.9 3.5-0.4 2.9 0.8 5.1-0.4 3.1-4-0.6-4.8 0-6.4 1.2-6.5 2.4-3.9 3.8-0.2 3.6 2.3 3.9 0.1 2.4-1-0.3-5.2-0.1-1.9-0.9-1.9-2.2-0.8 0-0.6 0.6-0.8 0.3-0.7-0.2-0.3-1-0.4-1-0.9 0-1.7 0.6-1.6-0.9-2.2-2.5-2-3-4.7-3.8-0.8-0.8 0.2-1.4 1.5-2 0.8-2.4 0-3.6-1.1-3.1-1.9-3.6-2.8-2-2.7-0.2-0.8-2.1-2.6-2.8-1.9-2.5-0.3-2.8 0.4-11.8-4.4-9.2-0.1-2.6 1.3-5 3.9-3.3 4.7-2.5 4.3-1.3 2.8-1.8 0-3.2-1.2-1.8-0.7-0.7z" id="BFBAM" name="Bam">
  </path>
 </g>
 <g id="points">
  <circle class="9.676311481770513|-5.126940735595217" cx="90.9" cy="669.4" id="0">
  </circle>
  <circle class="11.951743425858457|-1.1705672410886834" cx="545.5" cy="403.2" id="1">
  </circle>
  <circle class="14.796033355968383|1.9945315545165432" cx="909.1" cy="67.3" id="2">
  </circle>
 </g>
 <g id="label_points">
  <circle class="Tapoa" cx="881.1" cy="395.4" id="BFTAP">
  </circle>
  <circle class="Kompienga" cx="781.6" cy="461.5" id="BFKMP">
  </circle>
  <circle class="Léraba" cx="73.1" cy="555" id="BFLER">
  </circle>
  <circle class="Komoé" cx="169.3" cy="602.7" id="BFCOM">
  </circle>
  <circle class="Poni" cx="288" cy="598.8" id="BFPON">
  </circle>
  <circle class="Noumbiel" cx="345.3" cy="649.4" id="BFNOU">
  </circle>
  <circle class="Oudalan" cx="645.7" cy="89.6" id="BFOUD">
  </circle>
  <circle class="Soum" cx="540.8" cy="131.5" id="BFSOM">
  </circle>
  <circle class="Loroum" cx="445.6" cy="173.7" id="BFLOR">
  </circle>
  <circle class="Yatenga" cx="399.9" cy="203.1" id="BFYAT">
  </circle>
  <circle class="Sourou" cx="340.7" cy="251.7" id="BFSOR">
  </circle>
  <circle class="Kossi" cx="235.2" cy="288.3" id="BFKOS">
  </circle>
  <circle class="Banwa" cx="196.8" cy="377.2" id="BFBAN">
  </circle>
  <circle class="Houet" cx="191.8" cy="483.8" id="BFHOU">
  </circle>
  <circle class="Kénédougou" cx="110" cy="456.9" id="BFKEN">
  </circle>
  <circle class="Séno" cx="674.8" cy="174.9" id="BFSEN">
  </circle>
  <circle class="Yagha" cx="753" cy="235.1" id="BFYAG">
  </circle>
  <circle class="Komondjari" cx="755.7" cy="315.9" id="BFKMD">
  </circle>
  <circle class="Koulpélogo" cx="709.6" cy="463.1" id="BFKOP">
  </circle>
  <circle class="Boulgou" cx="638.4" cy="447.1" id="BFBLG">
  </circle>
  <circle class="Nahouri" cx="533" cy="488.8" id="BFNAO">
  </circle>
  <circle class="Sissili" cx="410.9" cy="485.3" id="BFSIS">
  </circle>
  <circle class="Ioba" cx="339.7" cy="502.9" id="BFIOB">
  </circle>
  <circle class="Balé" cx="326.7" cy="429.6" id="BFBAL">
  </circle>
  <circle class="Sanguié" cx="376.7" cy="366" id="BFSNG">
  </circle>
  <circle class="Tuy" cx="269" cy="468.5" id="BFTUI">
  </circle>
  <circle class="Bougouriba" cx="289.5" cy="529.3" id="BFBGR">
  </circle>
  <circle class="Mou Houn" cx="288.1" cy="370.2" id="BFMOU">
  </circle>
  <circle class="Kouritenga" cx="650" cy="383.4" id="BFKOT">
  </circle>
  <circle class="Ganzourgou" cx="591.4" cy="371.2" id="BFGAN">
  </circle>
  <circle class="Zoundwéogo" cx="559.5" cy="450.1" id="BFZOU">
  </circle>
  <circle class="Ziro" cx="463.9" cy="440.8" id="BFZIR">
  </circle>
  <circle class="Boulkiemdé" cx="425.2" cy="378.7" id="BFBLK">
  </circle>
  <circle class="Kadiogo" cx="502.4" cy="357.8" id="BFKAD">
  </circle>
  <circle class="Oubritenga" cx="529.2" cy="320.6" id="BFOUB">
  </circle>
  <circle class="Gourma" cx="729.1" cy="388.6" id="BFGOU">
  </circle>
  <circle class="Gnagna" cx="678.8" cy="275.5" id="BFGNA">
  </circle>
  <circle class="Bazéga" cx="514.8" cy="409" id="BFBAZ">
  </circle>
  <circle class="Kourwéogo" cx="473.6" cy="311.1" id="BFKOW">
  </circle>
  <circle class="Nayala" cx="333.1" cy="314.8" id="BFNAY">
  </circle>
  <circle class="Passoré" cx="425.3" cy="293.1" id="BFPAS">
  </circle>
  <circle class="Zondoma" cx="414.1" cy="255.2" id="BFZON">
  </circle>
  <circle class="Namentenga" cx="622.6" cy="260.2" id="BFNAM">
  </circle>
  <circle class="Sanmatenga" cx="568.6" cy="248.5" id="BFSMT">
  </circle>
  <circle class="Bam" cx="496.7" cy="227" id="BFBAM">
  </circle>
 </g>
</svg>