<?xml version="1.0"?>
    
<!--********* Copyright (c) 2024 Pareto Softare, LLC DBA Simplemaps.com ***************************************
************* Free for Commercial Use, full terms at  https://simplemaps.com/resources/svg-license ************
************* Attribution is appreciated! https://simplemaps.com *******************************************-->

<svg baseprofile="tiny" fill="#6f9c76" height="1000" stroke="#ffffff" stroke-linecap="round" stroke-linejoin="round" stroke-width=".5" version="1.2" viewbox="0 0 1000 1000" width="1000" xmlns="http://www.w3.org/2000/svg">
 <g id="features">
  <path d="M723 307.1l-54.9 6.1-34.9 7.2-35 2.9-21.2-4.4-7.9-0.2-23.3 3.2-22.8-1.7-7.4 1.3-7.4 0.4-7.5 1.8-7 0.1 1.6-1-0.7-46.9 0.2-2.5 0.6-1.8 1.4-2.5 2.9-3.4 8.6-7.2-4.7-4.6-1.7-1.2-0.4-0.1-0.6 0-0.8-0.4-0.7-0.4-1.3-0.6-1.7-0.3-1.4-0.1-7.2-10.3-28.2-50.9-0.7-0.8 19.1-19.5 10.6-8.7 7.8-4.4 2-2 0.5-1.4-0.1-1.6 0.1-2.6 1.5-4.2 5.6-6.2 2-3.9 5.3-14.3-0.3-1.5-1.7-2.6-0.2-1.6 0.8-1.9 1.2-0.3 1.4 0.2 1.3-0.4 0.9-1.1 1.2-2.2 1-1 1.4-0.2 1.6 0.6 1-0.2 0.1-2.6-0.3-1.8-0.9-0.7-1.4-0.3-1.6-0.7-1.5-1.3-1-1.2-0.8-1.5-4.9-13.9-1.4-8.2-0.1-3.4 1.2-2.6 3.6-1.6 1.9-0.2 3.4 0.1 1.8-0.2 0.4-0.4 1.2-1.6 0.7-0.6 1.1 0.3 0.8 0.8 0.8 0.3 0.8-1.6 0.7-1.8 1-0.4 1.3 0.2 1.7 0 0.5 0.4 0.2 0.8 0.4 0.7 1.1-0.1 0.8-0.5 1.4-1.3 0.6-0.4 5.2-1.4 0.5 0.1 1.3 0.7 0.7 0.1 0.9-0.4 1.7-1.3 1-0.2 5.1 1.3 1.4-0.7 2-3.3 0.5-1.1 0.2-1.2 0.5-1 0.7-0.9 1.6-0.6 1.5 1 1.6-0.4 1.3-1 2.3-2.8 1.6-1.1 1.4-0.3 2.9 0.1 1.5-0.3 3.5-0.1 1.7-2.2 7 6.2 2.9 1.6 1.5 1.6 1.1 1.8 0.9 3.4 1.2 1.2 1.6 0.8 1.7 0.7 4.8 0.5 1.2 0.4 0.6 0.8 1.4 2.7 5.9 8.7 24.9 22.9 0.4 0.8 2 1.5 0.5 0.8 0.3 3.2 0.7 3.3 1.1 2.7 3.3 5.6 2.1 2.4 1.2 1.2 1.8 1.2 2 0.5 1.9-0.9 2.1-1.2 1.7 0.3 1.5 0.9 1.7 0.6 6.5 4 5.3 1.9 1.6 1.1 1.2 1.2 4.8 6.9 1 0.9 0.8 0.5 0.6 0.6 0.6 1.2 0.7 2.3 0.6 1.1 0.2 1.3 0.5 1.2 1.3 0.6 1.3 2.4 1 0.8-3.2 3.4-10 17.2-1.8 6.7-0.9 2.3-2.9 7.9 0.3 3.4 2.1 4 26 36.9 3.5 3.3 1.2 0.2 1.4-0.2 0.2 0 1.1 0 1.2 1.2-1.4 5.7 0 3.2 0.5 3 1.1 2.7 1.5 2.5 0 0.1 3 13.1-0.2 4.4-3.1 7.7-0.2 2.6 0.7 1.8 1.2 1.2 1.3 1.1 1.1 1.2 0.7 1.6 1.4 4.8 1.3 1.7 1.9 0.6 2 0.3 1.9 1.1 1.3 2.9 0.7 4.3 0 3.5z" id="BJAL" name="Alibori">
  </path>
  <path d="M493.7 323.8l7-0.1 7.5-1.8 7.4-0.4 7.4-1.3 22.8 1.7 23.3-3.2 7.9 0.2 21.2 4.4 35-2.9 34.9-7.2 54.9-6.1 0.1 4.6-1.1 3.9-3.7 7.4-1.3 3.9-0.2 7.6-0.9 2.7-2.2 2.8-2.3 0.4-9.3-4.9-3-0.6-2.9 0.9-2.8 2.9-1 1.4-0.4 0.9-0.1 2.9-0.6 1.7-3.7 5.7-2.9 6.7 0.1 2.7 2.1 3.4 9.8 10.2 1.3 1.9 0.4 2.3-0.4 2.6-0.1 0.8-1.3 3.3-1.8 1.3-2.1 1-2.3 2.2-0.9 2.4-0.9 12.6-1.5 2.9-4.7 5.6-3.8 7-2.5 2.4-8.8-0.9-5.6 1.5-10.4 4.3-2.4 1.7-1.3 3-0.3 3.3 0.5 2.9 1.8 4.5 1.2 4.5-1.1 3.8-4.7 2.7-2.5-0.2-2.9-0.5-2.3 0.7-1.1 3.7 0.2 0.9 0.7 1.9-0.1 0.8-8.9 11.6-1 1-2.4 0.7-1 0.8-2.8 4.6-0.6 4 1 4.1 1.8 4.7 0.5 2.4 0 9.5-0.9 3.1-3 5.7-4.8 15.1-2.2 4.6-3.6 2.4-9.9 2.6-1.7 0-1.4-0.7-1.4-0.9-1.6-0.8-1.6-0.2-4.4 0.2-1.6 0.3-1.5 1-1.3 1.3-1.4 1-1.9 0.3-11.2-0.9 0.5 3.8-0.3 9.3-0.8 4.1-0.5 0.9-1.6 2.4-0.4 0.3 0.3 1.2 0.6 0.4 0.7 0.2 0.5 1 0 2.3-1.8 4.2-0.6 2.2 0.2 1.3 0.8 2.3-0.2 1.3-0.8 0.7-2.4 1.2-0.9 1.1 0 1.5 0 0.2-76.6-0.8 1.2-5.2-0.8-0.9-0.4-0.2-0.9-0.4-14.5-4.1-2.9-1.4-1.4-0.8-1.1-1-1-1.1-0.9-1.1-0.5-1.1-0.5-1.2-0.6-3-0.2-2.4 0.3-7.2 0.3-1.7 0.7-5 0.9-3.6 1.2-3 0.2-0.8 0.1-1-0.2-1-0.7-1.2-0.4-0.5-0.5-0.4-4.3-2-1.1-0.8-0.7-0.6-0.9-1-0.8-1.1-0.8-1.3-0.3-0.7-0.6-3.2-0.4-4.6 0.1-8.4 0.7-5 2.1-6.3 1.3-1 1.1-0.7 0.7-0.2 2.4-0.4 3.4-0.2 5.4 0.1 0.8-0.2 0.8-0.2 0.6-0.4 0.6-0.4 0.8-0.8 0.6-0.8 0.6-2 5.7-37.7 0-2.1-1.3-2.6-2.4-2.2-3-3.1-1.9-3.1-0.3-0.7-2.8-8.1-0.2-1.9 0.1-2.6 1.3-7.7 1.1-4.2 0-2.9-1.3-7.2 1.3-2.2 0.1-0.1 0.2-0.2 0.1-0.6 0.2-0.7-1.3-3-0.6-2.7 0-0.6 0.2-0.9 0.5-1.1 1.1-1.4 0.8-0.7 0.8-0.5 1.3-0.7 1.5-0.4 7.9-0.3 2.4-0.5 5.7-2 1.3-0.8 1.1-0.9 1-1.1 0.5-0.6 0.3-1.8 0.1-3-1.1-10.5-2.1-6.7-0.4-2.4-2.2-5.6-0.7-1.1-0.9-1.2-3.7-3.5-0.9-1.1-0.5-1.2-0.1-0.4-0.2-0.7 0-2.3 0.2-2.1 1-2.4 1.7-3.1 3.7-4.8 0.4-0.3 0.5-0.5 3.1-1.7z" id="BJBO" name="Borgou">
  </path>
  <path d="M560.7 743.6l-0.3 4.8 0.8 5.7 2.9 5.4 4.3 5.2 3.2 5.3-0.4 6.1-0.4 1.3-0.1 0.9-0.4 0.3-3.2-0.7-1.5 0-1.1 0.7-0.4 1.6 3.1 35.9-0.2 2.1-0.4 1.3-1.2 1.5-1.3 2.8-0.7 1-0.1 1 0.5 1.9 1.3 1.6 3.8 3.1 0.8 1.4-0.5 1.6-1.5 0.8-1.9 0.5-1.7 0.8-3.7 5.3 0.5 5.3 1.9 5.6 0.7 6.1-1.5 6.1-0.4 3.2 0.7 2.8 1.1 1.5 1.3 0.9 1.5 0.5 1.8 0.1 0.8 0.7 0.3 1.5 0.5 6.7-0.8 1.7-1.8 1.1-2.6 2.4-1.7 3.1-0.1 3 1.3 6.2-0.3 3-2.7 7.9 0-0.1-5.7-9.5-2.2-2.4-7-6-2.8-4.6-3-17.1-7-16.8-1.4-7.4 0.3-7.5 2.8 0.2 1 0 0.9-0.1 0.6-0.4 0.3-0.4 0.2-0.2 0-0.1-0.7-6.5-3.2-16.3 0.2-2.4-0.1-0.8-0.8-1-6.9-4.7-2.2-4.8-2.3-8.7-0.4-1.7-0.1-2.3-0.6-1.4-0.8-1.1-0.5-1.3 0-6.5-0.8-2.7-1.1-3.7-0.3-3.5 1.7-3.2 4.5-6.4 1.5-1 2.1-0.7 0.3-1.6-1-3.8 0.3-4.1 2.2-6.1 2-0.1 29.8 0.2z" id="BJPL" name="Plateau">
  </path>
  <path d="M484.9 579.8l76.6 0.8 2.8 35.7 0.4 4.3-1.2 5-1.1 1.7-2.9 3.3-0.8 1.8 0 1.3 0.4 2.7 0 1.4-1.2 6-0.1 2.8 0.5 3.5 1.1 3.3 2.9 6.1 0.9 3.1 0 3.2-1.2 2.7-1.5 2.4-1.1 2.5-0.4 2.7-0.3 8.7-1.8 9.3-0.6 9.2-0.5 1.3-1.5 2.8-0.3 1.1 0.1 0.7 0.1 0.6 1.1 1.8 1.7 4.2 3.4 3.8 1.3 2.2 0.4 2.1-1.4 19.7-29.8-0.2-2 0.1-2.2 6.1-0.3 4.1 1 3.8-0.3 1.6-2.1 0.7-1.5 1-4.5 6.4-1.7 3.2 0.3 3.5 1.1 3.7-26-12-10.3-3.2-8.4-0.8-7.6 0.2-6.9-1.1-5.5-3.8-5.4-4.8-7.9-3.3-6.5-1.4-29.3 1.7-2.9-0.3 0-2.5-0.1-29-0.1-23.2 0.4-23.3 0.2-16.8-1.5-12.6-0.8-1.3-0.8-0.3-0.4-0.6 0.7-3.6 0-2.5 0.2-1.3 4.8-7.9 0.5-2.6-0.6-1.4-3.7-4.8-0.8-1.6-0.2-1.7 0-4.4 2.6 0.2 7.8 0.2 2.7-0.2 0.8 0 1.6-0.1 12.6-3.4 2.4-0.4 1.7-0.2 0.9 0.3 1.6 0.6 1.2 0.8 1.1 0.9 3.9 4.2 0.6 0.5 0.7 0.3 0.7 0.4 0.9 0.2 0.9 0.1 4.4 0 0.8 0.1 0.7 0.3 0.6 0.4 0.6 0.5 2.1 2.8 1.1 1 1.2 0.8 1.4 0.8 4.3 1.2 0.6 0.4 1.7 1.4 0.7 0.3 0.7 0.1 3.6 0 1.7 0.3 4 1.5 0.9 0.2 0.9 0 3.4-0.1 2.5-0.7 1.7-0.8 1.2-0.8 2.1-1.6 1.1-1.8-0.8-0.8-1-3.5 1.9-12.6-2.4-13.1-1-2-1.4-1.8 1.1-4.5z" id="BJCO" name="Collines">
  </path>
  <path d="M560.9 912.2l-0.5 1.4-0.5 3-1.1 6.5-0.1 8.9-31.8 3-0.4-2.5-0.7-0.4-0.7-0.1-1.1-1 0.5-3 2.3-5.6 0.6-3.6-0.7-6.6-1.7-1.3-0.6-0.3-0.9-0.3-0.8-0.2-1.6-2.9-1-13.3-0.2-4.3-0.5-15.7-0.5-8.4-1.4-6-5-8.1 0.3-2.9 1.5-2.9 2.4-3.2 2.3-1.2 4.1-0.4 9 0-0.3 7.5 1.4 7.4 7 16.8 3 17.1 2.8 4.6 7 6 2.2 2.4 5.7 9.5 0 0.1z" id="BJOU" name="Ouémé">
  </path>
  <path d="M458.9 188.8l0.7 0.8 28.2 50.9 7.2 10.3 1.4 0.1 1.7 0.3 1.3 0.6 0.7 0.4 0.8 0.4 0.6 0 0.4 0.1 1.7 1.2 4.7 4.6-8.6 7.2-2.9 3.4-1.4 2.5-0.6 1.8-0.2 2.5 0.7 46.9-1.6 1-3.1 1.7-0.5 0.5-0.4 0.3-3.7 4.8-1.7 3.1-1 2.4-0.2 2.1 0 2.3 0.2 0.7 0.1 0.4 0.5 1.2 0.9 1.1 3.7 3.5 0.9 1.2 0.7 1.1 2.2 5.6 0.4 2.4 2.1 6.7 1.1 10.5-0.1 3-0.3 1.8-0.5 0.6-1 1.1-1.1 0.9-1.3 0.8-5.7 2-2.4 0.5-7.9 0.3-1.5 0.4-1.3 0.7-0.8 0.5-0.8 0.7-1.1 1.4-0.5 1.1-0.2 0.9 0 0.6 0.6 2.7-41.1-1.3-5.5 2-5.1 3-4.7 3.9-6.2 3.1-7.3 1.8-9.1-1.1-6.2-1.4-7-0.8-6.2-0.2-8.2 1.6-1.8 0.7 0-1.1-1.9-5-15.3-10.3-20.7-13.9-12.4-8.2-8.3-5.6-13.8-9.3-11-7.3-1.1-2.2-0.2-3.4 2.1-15.2 2.1-8.2 0.1-5.8-1.2-13.3 2.1-4.9 7.9-7.6 1.9-2.7 0.4-1.5 0.2-3.4 0.3-1.6 2.3-4.3-0.2-1.6-1.2-3-0.4-1.6 0.4-2.9 3.8-9.1 4.4 2.4 1.9 0.3 2.6 0 0.6-0.8 0.4-1.7-0.1-1.7-0.9-0.8-1.1-0.6-0.5-1.3-0.1-1.7 0.1-1.5 0.6-0.3 1.2-1.9 0.8-1.8 1-1.3 0.6-0.2 0.7 0.2 3.2 0.5 1 0.7 0.7 0.7 0.8 0.3 0.4 0.3 0.8 1.5 0.2 0.3 0.9 0 1.6-0.8 0.6-0.2 4.4 0.5 1.5 0.5 0.4 0.8 1 1.4 1.1 1 0.5-0.6 0.1-2.4-1.6-1.7-0.9-1.6-0.3-1.6 0-1.7-0.3-1.7-0.3 0-1.3-0.7-0.5-0.2-0.1-0.7 0.3-1.9-0.2-0.6-1.3-0.3-0.9 0.8-0.6 0.3-0.1-2.3 0.7-0.3 4.8-1.1 0.8-0.6 1-2.7 0.7-0.7 1.5 0 2.9 1.4 1.5 0.5-0.7-2.6-0.6-5-2.7-4.5 0.7-1.8 1.5-1.5 1.5-2.3 1.4 1.1 1.1 1.7-0.2 0.8 1.3 0 0.7-0.4 0.8-0.4 1.2-0.3 2.8 0.1 2.3 0.7 4.8 2.3 1.9-3.4 0.2-1.2-0.3-1.4-1.4-1.5-0.4-1.1 0.8-1.8 1.6 0.8 1.7 1.9 0.9 1.6 1-1.2 1-0.4 1 0.4 1 1.2 2.6-2.1-0.3-1.9-1.4-2.1-0.9-2.5 1.3-2.8 2.9-1.9 3.3-1.4 2.3-1.5-1.3-3.2 0.2-1.2 1.1-1.8 1.9-1.4 1.8-0.6 1.5-0.8 0.9-2.1 2.3 1.3 2.8 0.6 13.7 1.1-0.3 1-0.4 2.1-0.2 0.9 2.5-0.1 3 5.7 2.9-1 2.5-1.3 6.7-1.5 2.7-1.3 2.3-0.7 6.4 0.4 2.7-0.2 5.7-2.3 2.8-0.5 2.5 0.7 1.4-0.9 1.8 0.3 3.7 1.7 6.2 2.4 5.1 0.4 4-1.9 0.6-0.7z" id="BJAK" name="Atakora">
  </path>
  <path d="M470 395.4l1.3 3-0.2 0.7-0.1 0.6-0.2 0.2-0.1 0.1-1.3 2.2 1.3 7.2 0 2.9-1.1 4.2-1.3 7.7-0.1 2.6 0.2 1.9 2.8 8.1 0.3 0.7 1.9 3.1 3 3.1 2.4 2.2 1.3 2.6 0 2.1-5.7 37.7-0.6 2-0.6 0.8-0.8 0.8-0.6 0.4-0.6 0.4-0.8 0.2-0.8 0.2-5.4-0.1-3.4 0.2-2.4 0.4-0.7 0.2-1.1 0.7-1.3 1-2.1 6.3-0.7 5-0.1 8.4 0.4 4.6 0.6 3.2 0.3 0.7 0.8 1.3 0.8 1.1 0.9 1 0.7 0.6 1.1 0.8 4.3 2 0.5 0.4 0.4 0.5 0.7 1.2 0.2 1-0.1 1-0.2 0.8-1.2 3-0.9 3.6-0.7 5-0.3 1.7-0.3 7.2 0.2 2.4 0.6 3 0.5 1.2 0.5 1.1 0.9 1.1 1 1.1 1.1 1 1.4 0.8 2.9 1.4 14.5 4.1 0.9 0.4 0.4 0.2 0.8 0.9-1.2 5.2-1.1 4.5 1.4 1.8 1 2 2.4 13.1-1.9 12.6 1 3.5 0.8 0.8-1.1 1.8-2.1 1.6-1.2 0.8-1.7 0.8-2.5 0.7-3.4 0.1-0.9 0-0.9-0.2-4-1.5-1.7-0.3-3.6 0-0.7-0.1-0.7-0.3-1.7-1.4-0.6-0.4-4.3-1.2-1.4-0.8-1.2-0.8-1.1-1-2.1-2.8-0.6-0.5-0.6-0.4-0.7-0.3-0.8-0.1-4.4 0-0.9-0.1-0.9-0.2-0.7-0.4-0.7-0.3-0.6-0.5-3.9-4.2-1.1-0.9-1.2-0.8-1.6-0.6-0.9-0.3-1.7 0.2-2.4 0.4-12.6 3.4-1.6 0.1-0.8 0-2.7 0.2-7.8-0.2-2.6-0.2-0.3-19.7-0.2-13.6-0.2-16-0.2-18.3-0.8-4-1.1-3.6-3-5.2-9-9.5-11.6-12.2-0.8-1.2-2.7-4.2-2.1-5.9-1-14.9-1.7-4.2-2.4 1.3-2.2-2.2-1.4-3.6-0.5-3 0.6-1.9 2.6-4 0.9-1.9 0.1-1.5 0-2.9 0.3-1.5 0.3-1.8-1.2-6.9-0.2-11.4-0.2-16.1-0.2-10.8 1.8-0.7 8.2-1.6 6.2 0.2 7 0.8 6.2 1.4 9.1 1.1 7.3-1.8 6.2-3.1 4.7-3.9 5.1-3 5.5-2 41.1 1.3z" id="BJDO" name="Donga">
  </path>
  <path d="M518.7 777.6l0.8 2.7 0 6.5 0.5 1.3 0.8 1.1 0.6 1.4 0.1 2.3 0.4 1.7 2.3 8.7 2.2 4.8 6.9 4.7 0.8 1 0.1 0.8-0.2 2.4 3.2 16.3 0.7 6.5 0 0.1-0.2 0.2-0.3 0.4-0.6 0.4-0.9 0.1-1 0-2.8-0.2-9 0-4.1 0.4-2.3 1.2-2.4 3.2-1.5 2.9-0.3 2.9-43.6 0.2-1-0.9-2.4 1.4-1.6 0.6-0.9-0.1-1.3-0.5-4.9-3.7-0.8-0.8-0.3-0.6-0.7-2.6-2-3-2.3-1.2-2.4-3.3-3-4.7-2.3-1.8-0.8-0.3-1-0.8-1.8-3-1.4-6.4-1.9-6.8-2.2-3.9-1.9-1.2-0.5-0.9-0.7-1.6-5.6-7.2-2.2-1.7-1.2-1.4-0.6-1.2-0.2-2.8-0.3-0.9-0.8-1.3-0.5-1.1-0.8-3.7-7.6-16.3-1.1-1.8-3.1-3.7-4.7-1-0.1-12.6 2.9 0.3 29.3-1.7 6.5 1.4 7.9 3.3 5.4 4.8 5.5 3.8 6.9 1.1 7.6-0.2 8.4 0.8 10.3 3.2 26 12z" id="BJZO" name="Zou">
  </path>
  <path d="M402.1 761.4l4.7 1 3.1 3.7 1.1 1.8 7.6 16.3 0.8 3.7 0.5 1.1 0.8 1.3 0.3 0.9 0.2 2.8 0.6 1.2 1.2 1.4 2.2 1.7 5.6 7.2 0.7 1.6 0.5 0.9 1.9 1.2 2.2 3.9 1.9 6.8 1.4 6.4 1.8 3 1 0.8 0.8 0.3 2.3 1.8 3 4.7 2.4 3.3 2.3 1.2 2 3 0.7 2.6 0.3 0.6 0.8 0.8 4.9 3.7 1.3 0.5 0.9 0.1 1.6-0.6 2.4-1.4 1 0.9 1.3 3.6-0.7 2.2-0.9 1.7-2.3 5.9-0.6 1.3-1.2 1.4-2.1 3.6-0.5 1.5-0.2 1.2 0.2 1.8 0.2 2.9-2 4-8.8-4.5-4.5-1.2-4.8-0.2-7.9 1.7-9.2 3.4-13.6 3.2-3.2-0.1-2.4-0.3-7.9-3.8-0.6-0.3 1.1-1.5 0.6-2.3-0.9-3.5-1.1-3-0.6-2.5-0.1-2.5 1.1-6.1-0.3-2-1.3-1.6-2.2-1.6-0.2-0.2-1.6-2.4-2.8-10.4 10.9 0.1 2.6-0.8-0.1-21.5-0.1-21.2 0-21.8-0.1-14.4z" id="BJKO" name="Kouffo">
  </path>
  <path d="M397.2 880.6l0.6 0.3 7.9 3.8 2.4 0.3 3.2 0.1 13.6-3.2 9.2-3.4 7.9-1.7 4.8 0.2 4.5 1.2 8.8 4.5-0.8 3.8 0.2 2.6-0.3 1.6-0.3 1-1.2 1.2-0.7 0.9-1.1 1.8-0.5 1.2-0.2 1.4 0.2 4 0.5 8.2-0.2 3-0.4 1.8-0.8 2-3.2 8.3-0.7 3 0.4 4.5 2.3 3.3 1.2 3.8 0.5 2.6-0.1 1.2 0 0.1-14.9 1.7-38.4 8.8-1.1-3 3-1.6 18.6-4.4 3.1-0.2-2.8-10.7-2.8-11-3.7-6-1.3-0.9-3.1-1.6-0.9-0.8-0.4-1.3 0.4-3.1-0.2-1.5-0.9-1.2-2.4-2-0.4-1-0.2-1.7-1-0.4-1.4 0.2-1.4-0.2-1.1-0.7-1.3-0.9-1.1-1.2-0.9-1.2-0.4-1.5 0.1-1.3 0.2-1.3 0-1.1-1.6-2.9-1.9-1.5-0.9-1.7 1.2-3.3 2.2-2.9z" id="BJMO" name="Mono">
  </path>
  <path d="M512.5 851.4l5 8.1 1.4 6 0.5 8.4 0.5 15.7 0.2 4.3 1 13.3 1.6 2.9 0.8 0.2 0.9 0.3 0.6 0.3 1.7 1.3 0.7 6.6-0.6 3.6-2.3 5.6-6.9 0.9-3 0.8-2.6 1.7-1.8 1.7-1.3 3.6-7.7 0.7-11.6 2.6-34.7 4 0-0.1 0.1-1.2-0.5-2.6-1.2-3.8-2.3-3.3-0.4-4.5 0.7-3 3.2-8.3 0.8-2 0.4-1.8 0.2-3-0.5-8.2-0.2-4 0.2-1.4 0.5-1.2 1.1-1.8 0.7-0.9 1.2-1.2 0.3-1 0.3-1.6-0.2-2.6 0.8-3.8 2-4-0.2-2.9-0.2-1.8 0.2-1.2 0.5-1.5 2.1-3.6 1.2-1.4 0.6-1.3 2.3-5.9 0.9-1.7 0.7-2.2-1.3-3.6 43.6-0.2z" id="BJAQ" name="Atlantique">
  </path>
  <path d="M524.5 928l-0.5 3 1.1 1 0.7 0.1 0.7 0.4 0.4 2.5-18 1.7 1.3-3.6 1.8-1.7 2.6-1.7 3-0.8 6.9-0.9z" id="BJLI" name="Littoral">
  </path>
 </g>
 <g id="points">
  <circle class="6.523161455362508|0.9137577304621638" cx="299.2" cy="909.4" id="0">
  </circle>
  <circle class="8.997301618194838|2.4525268549878536" cx="522.3" cy="547.4" id="1">
  </circle>
  <circle class="12.089976821735247|3.6835421546084053" cx="700.8" cy="91.3" id="2">
  </circle>
 </g>
 <g id="label_points">
  <circle class="Alibori" cx="584.5" cy="208.7" id="BJAL">
  </circle>
  <circle class="Borgou" cx="564.4" cy="424.6" id="BJBO">
  </circle>
  <circle class="Plateau" cx="544.7" cy="795.4" id="BJPL">
  </circle>
  <circle class="Collines" cx="483.3" cy="692.7" id="BJCO">
  </circle>
  <circle class="Ouémé" cx="543.3" cy="915" id="BJOU">
  </circle>
  <circle class="Atakora" cx="398.3" cy="301" id="BJAK">
  </circle>
  <circle class="Donga" cx="418.2" cy="457.8" id="BJDO">
  </circle>
  <circle class="Zou" cx="479.5" cy="806.9" id="BJZO">
  </circle>
  <circle class="Kouffo" cx="426.7" cy="851.9" id="BJKO">
  </circle>
  <circle class="Mono" cx="434" cy="905.2" id="BJMO">
  </circle>
  <circle class="Atlantique" cx="489.4" cy="898" id="BJAQ">
  </circle>
  <circle class="Littoral" cx="518.4" cy="932.3" id="BJLI">
  </circle>
 </g>
</svg>