<?xml version="1.0"?>
    
<!--********* Copyright (c) 2024 Pareto Softare, LLC DBA Simplemaps.com ***************************************
************* Free for Commercial Use, full terms at  https://simplemaps.com/resources/svg-license ************
************* Attribution is appreciated! https://simplemaps.com *******************************************-->

<svg baseprofile="tiny" fill="#6f9c76" height="766" stroke="#ffffff" stroke-linecap="round" stroke-linejoin="round" stroke-width=".5" version="1.2" viewbox="0 0 1000 766" width="1000" xmlns="http://www.w3.org/2000/svg">
 <g id="features">
  <path d="M811.3 134.5l0.4 15.3 6.2 6.2 8.9 4.3 8.6 5.8 16.8 23.9 43.6 126.5 2.9 15.9-1.1 11.6-5.3 26.4-0.4 26.4 3.7 28.2 8.8 26.3 15.4 20.6 23.4 22.1 9.7 14.3 1.6 13.9-9.6 10.5-14.6-0.5-15.5-6.8-12.1-8.1-5.8-2.1-12.9 0.5-6.9-3-10.4-8.7-5.6-2.1-20 2.1-13.9-3.1-38-14.1-8.8-5.9-5.4-9.5-8-66-7.8-26.4-21.8-52.1-5.8-26-2.6-54.5 4.6-53.1 12.3 12.6 12.2-7.8 13.2-14.8 14.9-8 14.5-3 0.4-7.8-5.7-10.5-3.9-11.2 1.5-5.2 4.3-2.6 6.3-0.8 7.5 0.3 0.2 0z" id="BNTE" name="Temburong">
  </path>
  <path d="M542.3 253.6l-0.1-0.2-4.5-11.3 5-21.6 2.2-14.7 5.8-13.5 2.6-17.1 1.4-18.4-1-15.8 112.3-68.2 86.3-35.9 16.8-2.1 12.6 4.9 0.9 8.8-9.7 6.8-20.8 9.4-5.6 9-11.1 26.7-1.9 8-4.5 9.2-20.8 19.2-6.7 10.7-15.2 15.2-2.1 10.3-0.6 11.2-4.3 10.3-10.6 6.5-11.8 0.3-12.2-2.1-12.3-0.6-14.9 4.1-12.1 7.6-21.5 20.6-11.3 7.1-24.5 10.3-5.8 5.3z" id="BNBM" name="Brunei and Muara">
  </path>
  <path d="M542.3 253.6l-0.8 0.8-0.4 11.1 5 12.4 12.9 24.7 3.8 13.8 2.3 14.9 3.3 78.2 4 24.5 11.9 18.7 13.1 4.8 9.9-1.7 4.9 3.3-1.5 19.2-6.1 25.3-5 11.3-7.2 11.3-16 15.6-0.2-0.1-1.6-0.9-22.3-12.2-12.4-17.5-5.2-20.4-10.5-19.6-12.9-15.9-16.1-15.7-14.4-18.2-15.4-15.3-20.8-12.9-4-16.7 3.2-20.4-8.7-13.6-15.4-0.9-12.3-1.6-8.6-11.3-10.3-10.5-6.5-15.3-5.7-16.1 23.3-8.4 14-13.8 10.3-19.4 24.1-24.5 80.6-64.4 25.1-15.2 1 15.8-1.4 18.4-2.6 17.1-5.8 13.5-2.2 14.7-5 21.6 4.5 11.3 0.1 0.2z" id="BNTU" name="Tutong">
  </path>
  <path d="M576.4 541.8l-4.3 4.1-3.9 6.1 0.4 13.8 20.9-8.5 2.2 11.7-4.8 12.2-15.2 22.9-4.7 13-3.7 27.6-5.2 9.8-61.4 58.7-31.4 18.4-27.5-3.2-3.3-5.3-4.9-16.6-3.3-6.9-5.3-5.1-14.1-9.9-42-38.9-9.5-12.8-6.6-13.1-13.8-42.3-8.4-8.9-12.4-0.7-27.3 4.9-29.2-5.8-22.8-1.6-3.1-6.1-1.1-10 2.1-3.9 9.3-8.2 2.2-6.4-4.5-29.9-9.1-13.7 0-18.7-5.2-18.8-3.9-7.3-7.1-7.8-2.2-4.4-0.6-5.2-1.5-4.5-4.9-1.9-10.2-0.3-4.2-2-5.1-13.7-7.8-5.1-16.5-6.3-21.8-17.1-14-7.3-36.6-5.6-43.6-20.9 168.8 5.7 50-9.5 46.1-26 65.9-23.8 5.7 16.1 6.5 15.3 10.3 10.5 8.6 11.3 12.3 1.6 15.4 0.9 8.7 13.6-3.2 20.4 4 16.7 20.8 12.9 15.4 15.3 14.4 18.2 16.1 15.7 12.9 15.9 10.5 19.6 5.2 20.4 12.4 17.5 22.3 12.2 1.6 0.9 0.2 0.1z" id="BNBE" name="Belait">
  </path>
 </g>
 <g id="points">
  <circle class="4.068706795861006|114.06688746785913" cx="90.9" cy="696.8" id="0">
  </circle>
  <circle class="4.484912927212372|114.74786301466966" cx="545.5" cy="418.2" id="1">
  </circle>
  <circle class="5.00517059140158|115.29264345211809" cx="909.1" cy="69.7" id="2">
  </circle>
 </g>
 <g id="label_points">
  <circle class="Temburong" cx="823.3" cy="339.4" id="BNTE">
  </circle>
  <circle class="Brunei and Muara" cx="643.2" cy="142.9" id="BNBM">
  </circle>
  <circle class="Tutong" cx="503.7" cy="338.9" id="BNTU">
  </circle>
  <circle class="Belait" cx="381.2" cy="480.8" id="BNBE">
  </circle>
 </g>
</svg>