<?xml version="1.0"?>
    
<!--********* Copyright (c) 2024 Pareto Softare, LLC DBA Simplemaps.com ***************************************
************* Free for Commercial Use, full terms at  https://simplemaps.com/resources/svg-license ************
************* Attribution is appreciated! https://simplemaps.com *******************************************-->

<svg baseprofile="tiny" fill="#6f9c76" height="522" stroke="#ffffff" stroke-linecap="round" stroke-linejoin="round" stroke-width=".5" version="1.2" viewbox="0 0 1000 522" width="1000" xmlns="http://www.w3.org/2000/svg">
 <g id="features">
  <path d="M856.6 266l0 0.5-0.7 1.7-1.5 1.9-2.1 1-7.4 1.1-9.4 3.9-15.9 5.1-3 0.2-6.2 7.3-1.2 1.1-6.6 2.6-0.9 1.2-25.1-8.7-10.5-1.2 4.4-8.5 0.6-2.7-0.3-1.1-3.4-8.3-18.9-25.3-4.9-8.9-3.3-4.8 2.7-6.5-1.2-18.5 1.3-7.5-0.1-2.3-1.9-7-0.2-2.1 0.5-2.2 1.2-2.3 1.2-3.5 0.6-5.1 0-3.4 1.2-5.2 0.7-25.4-0.2-3.6 0.4-1.7 0.8-1.5 1.2-0.4 1.2-0.2 1.3-0.4 1.3-1 8.7-10.4 1.6-0.9 1.2 0.1 2.7 0.8 1.3-0.2 1.4-0.7 4-3.7 4.8-5.2 2.7 0.9 3.9 0.6 2.7 0 0.9 1.3 0.2 0.3 3.7 1.3 0 0.5-0.8 2.3 1.3 1.8 7.8 9.3 9.2 3.1 6 5.2 0.4-0.2 3-0.3 2.4 0.6 3.7 2.1 0.9 1.4 7.7 1.4-1.4 2.7-2.4 7.6-17.3 0.4 0.5 9.2 10.6 3.2 8.2 8.6-0.2 11-2.2 9.2-12.7 17.9-1.8 11.7 5.9 22.4 2.6 4.3 7.7 6.3 2.3 5.1 4.3 4.8 6.2 1.9 6.6 1.3 6 2.7z" id="BTTY" name="Tashi Yangtse">
  </path>
  <path d="M778 104.1l-4.8 5.2-4 3.7-1.4 0.7-1.3 0.2-2.7-0.8-1.2-0.1-1.6 0.9-8.7 10.4-1.3 1-1.3 0.4-1.2 0.2-1.2 0.4-0.8 1.5-0.4 1.7 0.2 3.6-0.7 25.4-1.2 5.2 0 3.4-0.6 5.1-1.2 3.5-1.2 2.3-0.5 2.2 0.2 2.1 1.9 7 0.1 2.3-1.3 7.5 1.2 18.5-2.7 6.5 3.3 4.8-2.7 0.8-1.1 0.2-1.4 0.8-0.8 1.4 0.3 5-0.3 2.5-6.6 5.4-2.7 2.9-2.2 5.2 1.6 3.7 2 2.6 0.4 1.4-0.4 5.5-3.6 9.2-21.8 11.8-6.2-9.9-1.9-1.1-5.1-1-4.7-0.3-5.8 2-15 13.2-13.9-2.9-4.2-8.5 0.1-1.5 0.4-2 1.2-1.4 1.3-1.7 4.2-9.3-4.2-5.7-3.1-2.2-1.4-1.9-0.6-1.7 0.3-1.3 0.7-1.6 0.1-1.9-0.6-7.2-2.4-5.5 0.1-1.1 0.4-2 2.4-8 1.9-6.4-0.4-7.1-1.1-6.9-0.8-3.1-0.9-2.2-7.6-7.4-1.2-0.8-1.3-0.3-4.2-0.6-1.8-0.9-0.6-1 0-7.1-2.7-11.9-0.9-2-1.7-0.7-2.6-1.7-1.2-0.5-1.9-0.5-1.1-0.7-1.6-1.7-2.1-3.1-3.9-4-3.9-1.8-0.6-7.9-4.1-9.6-1.5-1.7-1.4-0.6-3-0.7-1.7-0.6-1.9-1-3.1-2.8-1.1-1.6-0.2-1.4 1.3-2.6 0.3-2.2 0.7-1.5 1.3-1.4 2.6-1.7 0.8-1.4 0.6-2.2-0.3-7.3-0.9-3-0.3-2.5 0-3.1 1.3-9.7 9.1 2.4 8.6 0.5 4.3 5 7.3 6 13.3 6.4 14.9 8.2 15.2 5.8 33.9 11.6-0.2-1.2-1.4-5.4 2.1-2.1 1.9-2.1 1.2-2 0.3-3.2-0.4-3.1-0.1-0.9 3.1-0.8 3-2 1.1-1.7 2.3-1.2 2.1-0.5 1.6-0.4 1.2-0.1 1.3 0.9 2.3 1.7 1.9 1.5 5.5 0.6 1-0.8 1.7-2.2 1.5-1.7 0.6-1.7 0.2-0.6 0.1-1.1 0.9-2.4 1.5-2.1 0.8-1.2 0.6-1.1 1.5-1.1 2 0.1 1.3-1.5 1.4-2 0.2-1.6-0.9-1.4-0.2-1.7 0.1-1 0.3 0.8 8.7 8 20.9 10.9 4.8 1.7z" id="BT44" name="Lhuntshi">
  </path>
  <path d="M593.6 83.9l-1.3 9.7 0 3.1 0.3 2.5 0.9 3 0.3 7.3-0.6 2.2-0.8 1.4-2.6 1.7-1.3 1.4-0.7 1.5-0.3 2.2-1.3 2.6 0.2 1.4 1.1 1.6 3.1 2.8 1.9 1 1.7 0.6 3 0.7 1.4 0.6 1.5 1.7 4.1 9.6 0.6 7.9 3.9 1.8 3.9 4 2.1 3.1 1.6 1.7 1.1 0.7 1.9 0.5 1.2 0.5 2.6 1.7 1.7 0.7 0.9 2 2.7 11.9 0 7.1 0.6 1 1.8 0.9 4.2 0.6 1.3 0.3 1.2 0.8 7.6 7.4 0.9 2.2 0.8 3.1 1.1 6.9 0.4 7.1-1.9 6.4-2.4 8-0.4 2-0.1 1.1 2.4 5.5 0.6 7.2-0.1 1.9-0.7 1.6-0.3 1.3 0.6 1.7 1.4 1.9 3.1 2.2 4.2 5.7-4.2 9.3-1.3 1.7-1.2 1.4-0.4 2-0.1 1.5 4.2 8.5-5.5 1.8-0.9 0.5-4 4.1-0.8 3-0.7 0.8-1.8 1-2 0.9-6.2 0.3-3.5 2.7-3.2 0.5-8.4 3.9-8.6-4.1-3.2-3.5-0.6-1.4-0.6-1-2.4-1.9-2.2-2.5-1.2-0.9-1.5-0.4-1.4-0.2-1.5 0.1-1.7 0.2-1.8 1-1.5 1-1.3 6.6-14.8-16.3-5.5-4-2.1-1-3.5-1.2-2.5-1.1-1.4-1-1.2-1.8-0.9-0.8-1.1-0.6-2.7-0.6-6.7-2.4-2.2-6.1 1.5-3.8-1.2-7.8-6.3-21.7-2.2-1.4-1-3.8-1.1-8.4-0.6-0.9-1.3-1-0.3-1.3-0.1-2.3 0.5-3.7 0.1-2.4 0.2-1.8 2-6.6 0.7-8 0-3.6-0.3-2.7-0.6-1.4-0.6-1.2-3.2-4.7-0.7-0.8-1.3-0.8-1.5-0.5-1.5-0.1-1.2 0.2-0.9 0.2-0.9 0-0.8-0.6-0.7-0.9-2.3-1.7-2-12.2 0.3-1.3 0.7-1.5 0.9 0.1 1.4-0.9 1.7-2.3 3-5.9 1.4-8.8-0.3-3-0.3-1.8-0.6-1.2-0.7-1.1-0.7-1.2-0.5-2.2-0.4-1.4-0.8-1.2-0.7-0.6-0.9-0.3-3.3-0.8-0.6-0.5-0.7-1.1-0.8-2-0.7-2.4-0.7-1.4-0.9-1.1-0.2-0.7 0.1-0.7 0.3-0.6 0.7-0.7 0.7-1.2 0.8-1.5 0.7-2.8 0-2.1-0.6-2.2-6-7.7 4.3-7.2 8.2-7.3 4.7-0.6 4.7 0.1 17.7 2.5 3.6-0.8 1.2 0.1 7-0.5 9.2 1.3 6.6-4.5 2.9-1.3 10.5 7 7.7 2z" id="BT33" name="Bumthang">
  </path>
  <path d="M85 320.7l2.3-1.8 2.1-8.9 6.2-4.7 8.8 0.8 4.6 9 10.3 2.1 17.3 7.3 1-0.8-0.3-2.2 0.3-2.7 1.3-1.2 3.6-2.2 4.9-2.8 0.3-0.3 1.2-2.1 5.1-5.1 6.9-3.7 0.3-2.5 0.4-2.1 1.8-1.9 3.1-2.8 0.9-0.9-0.1-1.3-2.8-2.3-1.8-1.7-0.5-2.3 0-2.6-0.6-1.5-2.5-2.7-3.4-2.8-0.5-0.4-0.2-1.5-0.7-1.1-0.6-0.3-1.2 0.2-1.2 0.4-0.6 0.1-0.5-0.4-1.7-4.2-1.5-2.7-3.3-2.7 0.1-5 0.2-1.2 1-1.7 1-1.5 0.1-1.3-0.1-1.5-0.3-4.7 0.4-2.3 1.3-1 1.9-0.6 2.2-0.4 2.4-1.1 2.8-2.1 2.8-3 2-3 0.5-0.9 2.1 1.1 1.3 0.3 1.5 0.7 3.3 2.5 0.8 0.4 1 0 1-0.2 1.2-0.6 1.5 0.2 1.3 2 4.9 15.1 0.8 3.7 2.5 5.1 3.3 2.7 1.9 2.1 1.8 1.2 0.9 4.8 3.1 4.4 7.2 12.7 4.2 5.7 11.3 16.4-2.3 3.4-3.4 2.9-1.7 0.9-4 1.5-1.6 1-1.6 1.8-1.1 2.1-0.5 2.6 2.3 5.2 0.4 3.2 2.4 6.9 2.2 6.2 1.2 1.7 1.9 1.9 0.6 1.6-0.3 2.1-2.4 3.4-3 5.4-0.4 5.6-12.4-2.4-5.8 2.6-2.5 5.4-0.7 2.4-3.5 5.5-0.3 0.3-12.3-16-9.1 8.2-4-0.3-0.8-1.2-0.7-2.6-0.5-1.1-0.5-1-0.5-1-0.7-0.9-0.5-0.8-0.3-1-0.4-1.8-1-2.1-19.6-1.9-5.2-2.4-0.3-1-0.1-1.1-0.3-1.2-0.6-1.2-1.2-2.1-0.6-1.4-0.4-1.3-0.2-1.1 0-0.7 0-0.6 0-0.7-0.2-0.8-0.5-1.2-0.5-1.3-0.1-1.4-1.2-2.9-0.8-0.5-0.9 0.1-1.7 1.1-0.7 0.7-1.5 1.2-3 0.4-6.5-7.3-3.4-6.6-1.3-1-2.1-1.2-9.6-2.6-3.6-1.3z m67.4-102l2.4 1.4 3.9 3.9 0.9 2.9 2.4 1.5 0 1.5-2.6-2.6-1.2-3.6-3.4-2.8-1.6-0.9-0.8-1.2 0-0.1z" id="BT13" name="Ha">
  </path>
  <path d="M85 320.7l3.6 1.3 9.6 2.6 2.1 1.2 1.3 1 3.4 6.6 6.5 7.3 3-0.4 1.5-1.2 0.7-0.7 1.7-1.1 0.9-0.1 0.8 0.5 1.2 2.9 0.1 1.4 0.5 1.3 0.5 1.2 0.2 0.8 0 0.7 0 0.6 0 0.7 0.2 1.1 0.4 1.3 0.6 1.4 1.2 2.1 0.6 1.2 0.3 1.2 0.1 1.1 0.3 1 5.2 2.4 19.6 1.9 1 2.1 0.4 1.8 0.3 1 0.5 0.8 0.7 0.9 0.5 1 0.5 1 0.5 1.1 0.7 2.6 0.8 1.2 4 0.3 9.1-8.2 12.3 16 0.3-0.3 3.5-5.5 0.7-2.4 2.5-5.4 5.8-2.6 12.4 2.4-3.9 2.3-1.3 2.3-0.9 3.6 0.9 5.9 0.1 7.8 3.2 0.6 1.5 0.7 1.4 1.2 1.4 1.5 1.1 2.3 0.6 1.5-1 6.6-10.5 14.4-9.3 6.6 1 2.7 0.8 0.6 1.3 0.1 0.8-0.4 1-0.2 1.6 0.5 5.5 3 2.1 1.6 1.3 4.7 0.8 1.7 0 1.4-0.3 1.1 0.2 0.7 1.1 0.3 5.7-1.3 2.2 0.1 1.3 0.3 1 4.8 0.1 6.5 0 0.1-7.4-5.2-11.2 3-3.8-0.2-3.4 0.4-2.9 2.3-2.8 2.9-3.2 2.1-7.6 2-7.6 0.8-15.3-0.9-8.6-2.4-3.8-4.4-2.2-6.2-3.7-7.6-4.2-4.8-6.3-4.7-6.8-3.1-5.8 0.4-2.5 1.9-3.1 0.8-3.2-0.3-2.8-1.7-1.9-3.1 0-2.9 0.4-3.2-0.6-3.7-4.9-5.9-5.4 0.7-5.3 4.4-4.1 5.8-1.7-15.1 0-16.6-1.3-7.8-3.5-6.9-6.1-4.6-17-9-2.5-1.9-0.8-0.6 2.2-8.8 4.3-10 5.8-8.6 6.9-4.7 16.3-4.3 4-3z" id="BT14" name="Samchi">
  </path>
  <path d="M207.6 369.8l0.4-5.6 3-5.4 2.4-3.4 0.3-2.1-0.6-1.6-1.9-1.9-1.2-1.7-2.2-6.2 19 0.5 7.6 1.4 3.5 1.5 4.6 2.5 2.2 0.7 8.3 1.2 2.6-1.1 0.3-0.9 0.1-1.1-0.2-0.9-0.4-1-0.3-1.1-0.2-2.2 0.2-2.7 3.8-11.6 1.8-4 1-3 0.7-7.5 4.5 3.4 1.7 3.4 1.1 3.3 0.9 4.2 0.9 1.2 1.1 0.4 1.9-0.6 8.5 2.4 1.4 0.9 0.6 2.5-15.3 10.7-5.6 7.4 0.3 2.5 7 3.9 3 2.3 6.7 3.4 6.2-0.8 4 5.9 5.2 15.2 6.4 2.2 1.5 3.1-0.4 1.7-0.6 1.4-0.7 4.1 17 0.1 5.4 10.7 1.3 3.9 3.5 13.5-4.6 9.5-0.2 3.8 0.5 1.2 3.1 4.5 1.3 4 0.2 3-0.3 4-0.7 3.7-0.5 2.2-1.8 3.6-0.6 0.9-1.6 1.4-1.8 4.4-2.4 1.6-2.8 7.4 1.1 6.3 2.1 3.1 1.6 1.7 0.5 1.1-0.1 3.2-0.1 1.1 0 0.1-4.3-0.7-14.5-6.5-6-0.2-9.4 3.9-5 0.1-3.4-2.7 4.4-8.3-0.6-5.3-6.8-5.5-10.8-4.1-11.1-1.8-16.9 2-9.6-5-10.4-7.2 0-0.1-0.1-6.5-1-4.8-1.3-0.3-2.2-0.1-5.7 1.3-1.1-0.3-0.2-0.7 0.3-1.1 0-1.4-0.8-1.7-1.3-4.7-2.1-1.6-5.5-3-1.6-0.5-1 0.2-0.8 0.4-1.3-0.1-0.8-0.6-1-2.7 9.3-6.6 10.5-14.4 1-6.6-0.6-1.5-1.1-2.3-1.4-1.5-1.4-1.2-1.5-0.7-3.2-0.6-0.1-7.8-0.9-5.9 0.9-3.6 1.3-2.3 3.9-2.3z" id="BT12" name="Chhukha">
  </path>
  <path d="M322.8 496.7l0-0.1 0.1-1.1 0.1-3.2-0.5-1.1-1.6-1.7-2.1-3.1-1.1-6.3 2.8-7.4 2.4-1.6 1.8-4.4 4.9-1.4 1.3-0.2 1.9 0 1.1 0.2 3.6 1.6 0.5-1.8 0.4-0.8 0.4-1.1 0.1-1.3-0.3-2.5 0.8-0.6 1.6-0.1 3.6 1.6 1.8 1.5 2.7 3 1.9 0.8 2.5 0 7-2.7 1.6-0.9 1.5-3.8 0.4 1.6 0.2 0.7 0.2 0.9 0.5 0.7 0.8 0.5 1-0.2 0.9-0.9 1.1-2.4 0.7-2.6 0.3-2.2-0.1-2.8 0.7-0.6 1.2 0.1 2.3 1.8 0.8 2.1 0.7 2.3 0.1 2 0.7 1.3 1.3 0.9 1.5 0.3 1.1-0.2 0.3-1.1-0.6-0.1-0.7-0.4-0.6-0.5 1-1.5 1-1.2 10-6.8 2.5 3 0.5 3.5 3 4.4 1.7 1.2 3.6 0.7 6.2 1.2 2.1-1 1.5-1.5 1.3-1.8 3.4-2.4 2.8-1.1 4.9-1 1.7-0.7 1-1.1 0-2.2-0.1-0.8-0.2-0.7-0.3-0.7 0-1 0.2-1.2 9.6-14.6 4.3-2.8 1.9-3.4 0.2-3 2.2-4.2 4.6-4.8 4.3-6.9-0.5-10.4 4.2-4.3 2.6-7.4 0.6-3 0.5-6 0.9-1.9 3.8-4.1 2.1-1.8 4.3-3 3.2-1.7 3.9-2.6-5.1-6.6 0.1-4.8 2.6-3.2 3.8-3.9 17.1 9.7 8.7 7.2 3.4 2.1 2.1 2.4 1.6 1.1 1.3 0.6 1.2 0.3 1.1 0.1 1.2-0.1 1.5 0 1.6 0.2 4 1.4 4 0.5 1.6 4.8 4.8 4.9 4.5 3.5 7 3.9 3.9 1.6 1.5 0.4 1.4 0 1.4-0.5 2.3-1.2 2.3-1 6.3 3.4 2.5 2.9 1.2 1.9 0.4 3.2 0.6 2.7 1.6 1.9 0.6 1.6 0 3.2 0.3 1.8 0.7 2.4 0.3 1.4-0.6 2.4-1.6 2.5 1.2 4.8 2.6 1.3 8.1 1.3 1.3 0.9 1.9 1.6 2.2 3.6 1.7 2 1.2 0.7 1.6 0.3 1.1 0.8 1.4 1.8 2.6 1.6 2 3.6 0.6 1.9 2.8 5.5 0.6 1.5 1.1 6.4 1.8 4 1.5 1.6 1.5 0.8 4.5-1.1 10 1 2.5 0.6 1.4 0.2 10-0.8 0.9-0.3 1-0.6 4.6-2.1 2.6 12-0.6 0.6-0.8 0.5-1.6 0.5-0.5 1-0.1 0.1-61.5 3.6-35-4-30.5-15.9-25.1-18-9.1-1.4-5.5 1.8-3.9 3.1-3.6 3.7-4.4 3.4-5 1.6-10-0.4-4.9 0.5-9.1 5.9-6.8 18.2-6.8 6.2-10.3 2.9-30.8 3-17.1 4.6-5.9 0.6-2.7-0.4-5.5-1.7-0.4-0.1-2.1-0.3-1-0.5-2.2-2-1.1-0.1-1.4 1.2-0.6 1.6-0.1 1.4-0.1 0.6 0 0.7-0.4 1.8-0.9 2-1.3 1.4-1 0.1-2.6-1.1-1-0.3-10.8 0.1-1.5-0.2z" id="BT31" name="Geylegphug">
  </path>
  <path d="M585.2 299.8l1.3-6.6 1.5-1 1.8-1 1.7-0.2 1.5-0.1 1.4 0.2 1.5 0.4 1.2 0.9 2.2 2.5 2.4 1.9 0.6 1 0.6 1.4 3.2 3.5 8.6 4.1 8.4-3.9 3.2-0.5 3.5-2.7 6.2-0.3 2-0.9 1.8-1 0.7-0.8 0.8-3 3.4 10.5 2.1 4.9 2.6 10 2.6 6.6 1 0.6 4 3.7 0.7 1.8 0.3 1.2 0.1 5.1 2.7 3.7 0.4 4.9-0.5 4.9-0.3 1.9-1.8 4.5-1.8 5.3 0.5 8.2 8.9 19.6 10.2 3.1 1.2 0.9 3.3 3.3 2.5 13.8 1.5 1.6 2.3 1.9 2.3 0.4 2 1 2.7 2 1.9 2.9 2.1 1.9 2.3 1.1 1.3 0.1 3.1-2 4.8 0.4-3 11.1-2.8 4.6-4.7 2-12.8 0.6-2.4 5.5-0.8-0.1-1.1-0.4-0.6 0.1-3.4 2.1-11.8 2.7-1.7 0.9-1.9 1.5-1.3 2.2-0.4 1.8-0.8 2-0.3 1.2 0.1 1.3 3.3 8.7 0 0.1-1.4 0.7-17.1 1 0.1-0.1 0.5-1 1.6-0.5 0.8-0.5 0.6-0.6-2.6-12-4.6 2.1-1 0.6-0.9 0.3-10 0.8-1.4-0.2-2.5-0.6-10-1-4.5 1.1-1.5-0.8-1.5-1.6-1.8-4-1.1-6.4-0.6-1.5-2.8-5.5-0.6-1.9-2-3.6-2.6-1.6-1.4-1.8-1.1-0.8-1.6-0.3-1.2-0.7-1.7-2-2.2-3.6-1.9-1.6-1.3-0.9-8.1-1.3-2.6-1.3-1.2-4.8 1.6-2.5 0.6-2.4-0.3-1.4-0.7-2.4-0.3-1.8 0-3.2-0.6-1.6-1.6-1.9-0.6-2.7-0.4-3.2-1.2-1.9-2.5-2.9-6.3-3.4-2.3 1-2.3 1.2-1.4 0.5-1.4 0-1.5-0.4-3.9-1.6-7-3.9-4.5-3.5-4.8-4.9-1.6-4.8 3-3.2 4.4-1.8 1.9-1.4 3.6-3.4 1.9-1.1 1.5-0.3 1.3 0.9 1.2 1.1 1.2 0.8 1.6 0.5 10-0.7 1.6-0.6 0.5-0.7-0.4-0.9-7.7-10.2-1.9-3.4 19.9-9.2 7.7-5.6 0.7-1.4-0.1-1.1-0.1-0.8-0.1-0.8 0.1-0.8 0-1-0.1-1.1-0.6-2 0.5-3.4 2.5-6.5 2-9.9z" id="BT34" name="Shemgang">
  </path>
  <path d="M932.1 352.4l-0.8 1.1-1.9 4.4-1.4 5.3-0.8 5.6 0 5.6 3.3 9.8 13.5 13.6 4.6 9.7 4.6 17.5-0.9 4.8-2.1 10.3-10 9.9-16.4 2.5-4.8-2.3-8.6-7.4-4.7-2-4.1 1.2 0.6 4 0 4.5-5.8 2.7 3.2 4.1 0.3 5-2.2 3.5-4.3-0.6-2.8-4.1-0.8-5-1.5-4.4-5.1-2.8-8.1 1.6-17.2 11.3-8 3.8-13.1 1.7-4.3-0.3-12-3.6-4.8 0.2-9.9 3.4-5 0.4-3.6-3.2-6.2-13.5-2.6-3.9-3.9-1.2-10.9-0.6-3.8 0.6-4.8 3.3-2.8 4.8-2.2 5.5-3.1 5.6-3.5 3.5-4.2 2.8-4.6 2-4.5 1.3-5.5 0.1-3.8-1.5-8-4.9-9.3-2.1-19.3 0.4-9.5-1.2-8.1 0.1-13.3 6.1 0-0.1-3.3-8.7-0.1-1.3 0.3-1.2 0.8-2 0.4-1.8 1.3-2.2 1.9-1.5 1.7-0.9 11.8-2.7 3.4-2.1 0.6-0.1 1.1 0.4 0.8 0.1 2.4-5.5 12.8-0.6 4.7-2 2.8-4.6 3-11.1 3.7 0.4 7.6 0.7 10.6-1.3 2.5 0.5 1.6 0.8 1.7 2.9 1.9 1.6 2.6 1.8 6.2 0.5 3.2 7.3 0 1.3-0.3 1.5-0.9 1.3-2.3 8.9 7.5 2.9 3.4-1.3 2.8-5.7 2.3-2.6 2.1-2.3 3-2.9 3.6-4 3.9-6.5 0.8-2.4 0-1.8-1-4.2 0.3-3.2 0.5-2 4.7-9.2 0.7-2.6 10.3-3.3 3.9 2.4 0.1 0 21.8-12.5 12.2 2.7 36.7-13 6-10.9 5.6-5 12.6-4.1 6.9-1.2 4 0.3 0.6-0.6 0.2-1.1 0.5-9.8-0.5-5.6 0.6-4.6 1.4-3.6 1.3-1.1 1.3-0.3 1.3 0.9 0.9 1.2 0.6 1.4 1.4 4.9 0.7 1.7 1.5 3.1 0.4 1.3 0.7 1.3 1.3 1.2 2.1 1.2 2.5 0.7 2.4 0.4 7.7 0.4 0.6 0.1 0.1 0z" id="BT45" name="Samdrup Jongkhar">
  </path>
  <path d="M856.6 266l14.2 1 10-1.5 10.9-1.4 11.9 1.9 17-2.8 3.2-1 13.1 7.8 16.6 43.4 1 3.7-1.8 5.2-8.5 7.2-3.7 4.6-1 2.7-0.9 5.8-0.8 2.6-1.5 2.5-3.5 3.7-0.7 1-0.1 0-0.6-0.1-7.7-0.4-2.4-0.4-2.5-0.7-2.1-1.2-1.3-1.2-0.7-1.3-0.4-1.3-1.5-3.1-0.7-1.7-1.4-4.9-0.6-1.4-0.9-1.2-1.3-0.9-1.3 0.3-1.3 1.1-1.4 3.6-0.6 4.6 0.5 5.6-0.5 9.8-0.2 1.1-0.6 0.6-4-0.3-6.9 1.2-12.6 4.1-5.6 5-6 10.9-36.7 13-12.2-2.7-21.8 12.5-0.1 0-3.9-2.4 1.6-12.6-0.4-0.4-9.7-0.1-3.7-1.8-1.1-1-5.8-3.9-0.9-0.7-1.1-1.3-2.6-4.7-2-2.8 0-1.4 0.5-2.2 2.7-3.4 3.7-6.4-11.3-1.4 0.7-3.7 0.7-15.6 2-5.2 10.5-10.3 10.9-5.5-0.7-3.8 0-1.1-0.3-1.1-0.5-1.4-1.7-3-0.1-1.2-0.6-1.3-1.3-1.2-7.3-4.1-3.8-3.6-6.4-4.2 2.7-2.8-1.3-3.7 10.5 1.2 25.1 8.7 0.9-1.2 6.6-2.6 1.2-1.1 6.2-7.3 3-0.2 15.9-5.1 9.4-3.9 7.4-1.1 2.1-1 1.5-1.9 0.7-1.7 0-0.5z" id="BT41" name="Tashigang">
  </path>
  <path d="M287.3 363.1l-6.2 0.8-6.7-3.4-3-2.3-7-3.9-0.3-2.5 5.6-7.4 15.3-10.7-0.6-2.5-1.4-0.9-8.5-2.4-1.9 0.6-1.1-0.4-0.9-1.2-0.9-4.2-1.1-3.3-1.7-3.4-4.5-3.4-0.1-1-0.3-7.1-1-1.4-1.7-1.9-6.9-4.2 2-8.3-0.4-3-0.6-2.4-1.1-1.2-3.4-1.3-1.1-0.3-2.3-1.1-1.9-3.3 0.4-11.4 2-13.7 0.3-7.1 0.6-3.8 2.1-4.8-3-1.4-2.9-2.6-3.9-7.8-6.1-8.4-4.8-4.6-2.4-1.5-1.9-0.6-4.2 0.6 7.4-8.6-4-6-0.4-1.7-0.5-3.9-0.1-2 0.6-8.9-5.2 1.7-3.9 2.4-2.8 0.5-6.6 0.4-3 1.5-2.9 1.9-2.3 0.5-2.1-0.3-5.6-2-0.9-0.6-1.7-1.7-1.2-0.7-4.1-1.1-1.4-0.7-0.1-1.6-0.7-3.3-0.1 0 0.3-2.9 0.7-3.8 1.3-2.2 0.6-1.6 1.5-2.3 1.6-1.3 2.6-1.1 0.2-0.1 2.1-1.7 1.6-2.6 1.2-2 2.3-2 0.9-0.6 4.5-2.1 4.6-3.5 0.1 0 0.2 0 14.3-10.1 6.8-6.6 0.4-1 0.8-1.7 1-1.6 3.4-4.3 1.8-2 1-1.4 1.3-2.5 1.2-1.6 1.3-2.9 0.8-2.2 0.8-1.7 0.6-1.5 1.6 0.2 2.3 0.9 7.4 4.2 3.3 4.4 1.6 10.3 1.7 2.9 3.6 1.4 6.6 1.3 0.8 0.6-0.2 0.9-1.9 1.4-1.4 0.7-1.5 1-1.3 1.3-9.3 12.3-1.3 2.4-0.6 1.6 0.4 2.4 0.5 1.7 0.1 2.1-0.2 2.4-1.5 6.5-2.2 2.6 0.6 2 0.5 0.8 0.6 0.9 0.6 0.8 0.7 0.7 0.7 0.5 0.8 0.5 0.9 0.4 0.9 0.1 1-0.3 1.9-3 1.7-2.3 0.6-1 1.9-1 5.9 0.4 0.7 3.6 1.9 4.9 0.5 2.4 1.1 1.4 1 0.9 10.2 5.9 4.1 6.3 0.6 1.2 1.3 7.4 0.2 6.1-0.9 3.7 0 2 0.7 2.5 1.4 2.8 2.2 2.8 1.7 2.7 2.1 5 1.4 2.8 3.7 3.5 3.3 5.1 7.3-5.9 11.1-3.7 1.9 3 4.5 6.8 0.4 1.5 1.5 1.8 0.8 0.7 6.5 0.9 0.5 2.7-0.1 1.6-0.5 3.1-1 3.8-4.3 4-14.1 3.9-1.3 5.7-0.4 5.7 2.1 6.2-14.4 12.6 2.1 2.6 2.2 1.6 0.8 0.4 0.5 0.7 0 3.2-0.5 3.3 0 18.5-3.1-0.6-2.2 6.5-1.8 3-2.3 2.3-1.7 1-3 1.2-1.5 0.8-1.4 1-1.3 2.3-1.4 3.7-1 7.1-2.6 8.2z" id="BT15" name="Thimphu">
  </path>
  <path d="M207.8 341.9l-2.4-6.9-0.4-3.2-2.3-5.2 0.5-2.6 1.1-2.1 1.6-1.8 1.6-1 4-1.5 1.7-0.9 3.4-2.9 2.3-3.4-11.3-16.4-4.2-5.7-7.2-12.7-3.1-4.4-0.9-4.8-1.8-1.2-1.9-2.1-3.3-2.7-2.5-5.1-0.8-3.7-4.9-15.1-1.3-2-1.5-0.2-1.2 0.6-1 0.2-1 0-0.8-0.4-3.3-2.5-1.5-0.7-1.3-0.3-2.1-1.1 0.1-0.1-0.1-0.1 0-1.5-2.4-1.5-0.9-2.9-3.9-3.9-2.4-1.4-0.1-0.2 0.7-3.6 6.1-9.3 0.9-0.8 3.2-2.1 2.5-1.2 0.9-0.4 1.3-1.4 0-1.9-0.1-0.3 0-0.7 1.7-2.7 0.3-0.4 1-1.4 1.1-2.2 0.1-0.4 1.1-3.4 0.9-0.8 0.6-0.5 1.3-0.1 1.6-0.1 1-0.6 1.2-2.7-0.6-1.5 0-0.3 1.4 0.7 4.1 1.1 1.2 0.7 1.7 1.7 0.9 0.6 5.6 2 2.1 0.3 2.3-0.5 2.9-1.9 3-1.5 6.6-0.4 2.8-0.5 3.9-2.4 5.2-1.7-0.6 8.9 0.1 2 0.5 3.9 0.4 1.7 4 6-7.4 8.6 4.2-0.6 1.9 0.6 2.4 1.5 4.8 4.6 6.1 8.4 3.9 7.8 2.9 2.6 3 1.4-2.1 4.8-0.6 3.8-0.3 7.1-2 13.7-0.4 11.4 1.9 3.3 2.3 1.1 1.1 0.3 3.4 1.3 1.1 1.2 0.6 2.4 0.4 3-2 8.3 6.9 4.2 1.7 1.9 1 1.4 0.3 7.1 0.1 1-0.7 7.5-1 3-1.8 4-3.8 11.6-0.2 2.7 0.2 2.2 0.3 1.1 0.4 1 0.2 0.9-0.1 1.1-0.3 0.9-2.6 1.1-8.3-1.2-2.2-0.7-4.6-2.5-3.5-1.5-7.6-1.4-19-0.5z" id="BT11" name="Paro">
  </path>
  <path d="M283.2 188l-10.2-5.9-1-0.9-1.1-1.4-0.5-2.4-1.9-4.9-0.7-3.6-5.9-0.4-1.9 1-0.6 1-1.7 2.3-1.9 3-1 0.3-0.9-0.1-0.9-0.4-0.8-0.5-0.7-0.5-0.7-0.7-0.6-0.8-0.6-0.9-0.5-0.8-0.6-2 2.2-2.6 1.5-6.5 0.2-2.4-0.1-2.1-0.5-1.7-0.4-2.4 0.6-1.6 1.3-2.4 9.3-12.3 1.3-1.3 1.5-1 1.4-0.7 1.9-1.4 0.2-0.9-0.8-0.6-6.6-1.3-3.6-1.4-1.7-2.9-1.6-10.3-3.3-4.4-7.4-4.2-2.3-0.9-1.6-0.2 0.1-0.2 0.1-0.4 0.2-1.1 0.1-1.4 0.6-2 1.3-0.7 0.3-0.1 2.6-1.1 0.6-0.8-0.4-2.2-0.4-0.4-2.4-2.5 0.2-1 2.1-2.1 1.8-2.1 4.6-5 0.2-0.4 1-0.4 5.3-4.3 2.5-3.2 6.8-5.5 2-3 1.4-1 2-0.7 0.9-1.6 2.5-2.5 1.9-2.6 2.4-0.7 32.5-5.9 10.3-4.7 2.6-4.8 2.1-1.1 2.6-4.2-0.7-0.8-0.8-0.3 1-2.5 0.9-0.7 0.8-0.4 0-0.4 2.4-2 2.6-1.7 0.5 0.4 4.9-2.1 8.8 0.5 6.8 3.7 5.8 5.6 8.1 3.8 10.9-1.4 17.2 9.3 10.9 3.4 10.8 0.6 0.3-0.6 0.2-0.6 0.3-1.4 0-2 0-2.9 0.4-0.4 0.1 0 5.2 0 3.3 0.3 2.4 0.5 0.4-2.5 0.6-4.1 5.3-0.8 7.6 7.5 7 6 13.8-0.2 11.1 3.5 3.1 1 9.9 7.4 11.5 7 11.8 1.4 3.7 2-1.5 8.3-12.2 0.3-1.8 1.3-4.1 3.2-0.7 6.3-1.7 3.9-2.9 4.5-2.5 2.3-8.5 5.1-1.7 2.9-0.4 2.6 0.5 1.7-0.2 2.4 0.2 1.4 0.7 1.4 0.5 1.5 0.3 1.4 0 3 0.4 1.9 0.1 1.7-0.7 1.6-1.5 1.2-2.9 0.2-1.7 0.3-1.6 0.1-3.7-1.1-1.8 0.1-1.6 0.6-1.6 1.5-1.3 0.9-1.6 0.1-2.3-1.5-3.7-3.3-5.3-8.8-0.6-1.8 0-0.8 0.2-0.8 0.3-0.8-0.4-1.5-0.9-1.7-4.5-3.9-4.4 0.2-8.9 0.6-1.3 0.3-1.2 0.9-1.2 1.7-1.9 5.2-11.5 19.8-1 2.3-1.8 2.4-2.4 2.5-5.4 3-3 1.1-5.6 0.9-1.3 0.4-1.2 0.3-1.3 0-1.1 1.2-0.8 1-1.5 9.9-4.5-1.1-1.1-0.7-3.1-2.4-12.6-5.1-6.6-5.5-1.5-1-1.5-0.2-1.9 0.5-3.2 1.5-1.9 0.6-1.8 0.4-1.4 0.2-3.6 0.7-1.4 0.5-1.5 1.5-1.7 2.3-5.1 8.9-8.9 11.5-7.7 0.6-4.4 0.8-5.2 3.5 1.4 3-10.7 3.3-5-1.7-2.2-0.4-1.8-0.1-3 0.3-1.8 0.5-1.1 0.4-1.8 3.5z" id="BTGA" name="Gasa">
  </path>
  <path d="M473.8 354.2l5.1 6.6-3.9 2.6-3.2 1.7-4.3 3-2.1 1.8-3.8 4.1-0.9 1.9-0.5 6-0.6 3-2.6 7.4-4.2 4.3 0.5 10.4-4.3 6.9-4.6 4.8-2.2 4.2-0.2 3-1.9 3.4-4.3 2.8-9.6 14.6-0.2 1.2 0 1 0.3 0.7 0.2 0.7 0.1 0.8 0 2.2-1 1.1-1.7 0.7-4.9 1-2.8 1.1-3.4 2.4-1.3 1.8-1.5 1.5-2.1 1-6.2-1.2-3.6-0.7-1.7-1.2-3-4.4-0.5-3.5-2.5-3 0-0.8-0.5-2.7 0-1.2 0.5-2.8-0.1-1.4 0.9-2.1 4.8-2.7 2.5-4.7 4.2-4.8 2.6-8.1 0.1-8.8 0-1 1.2-9.5 0.3-6.8-2.1-2.8 1.5-5.1-1.3-10-0.4-20.9 5.6-1.5 13.9 6.2 3.7 0.6 9.5-0.8 4-1.3 1.3 0 1.1 0.5 3.9 3.4 2.9 1.6 2.6 2.5 7.8-4.3 6-1.9 6.9-4.5z" id="BT21" name="Chirang">
  </path>
  <path d="M517.8 78.6l-8.2 7.3-4.3 7.2 6 7.7 0.6 2.2 0 2.1-0.7 2.8-0.8 1.5-0.7 1.2-0.7 0.7-0.3 0.6-0.1 0.7 0.2 0.7 0.9 1.1 0.7 1.4 0.7 2.4 0.8 2 0.7 1.1 0.6 0.5 3.3 0.8 0.9 0.3 0.7 0.6 0.8 1.2 0.4 1.4 0.5 2.2 0.7 1.2 0.7 1.1 0.6 1.2 0.3 1.8 0.3 3-1.4 8.8-3 5.9-1.7 2.3-1.4 0.9-0.9-0.1-0.7 1.5-0.3 1.3 2 12.2-0.1 4.3-2.5 14.2-1 3.3-1.5 2.4-2.8 2.2-12.4 5.3-1.4 0-1.3-0.5-2.7-2-1.4 0.1-1.5 0.3-1.9 0.8-2.3 0.5-1.6 0.1-0.9-0.1-1-0.3-1-0.5-0.9-0.3-1 0.2-1 0.7-1 1.4-0.7 1.3-0.5 1.9-0.6 5.5-0.8 1.9-3.6 4.9-0.1 2.1 0.5 1.7 1.2 2.6 0.5 1.3 0.4 1.2 0.1 0.8 1.1 2.7 0.5 1.5 4.8 10 2.9 3.6 7.9 4-2.9 2.8-1.2 0.9-0.9 1.1-0.7 0.5-0.9 0.2-1.4-0.8-1.6-0.3-2 0.2-3.6 1-2.4 1.2-4.7 4.6-1.7 1.1-9.8 2.4 4.9 8.4 0.8 2.4 1.4 9.3 4.3 7.7 3.5 4.3-0.3 1.1 0.1 1.3-0.3 1 0.6 1.4 1.1 1.7 8.2 7.3 1.9 2.3 1.2 3 1.1 8.6 4.6 2.8 0.1 4-1.4 5-5.1 7.3-3.8 3.9-2.6 3.2-0.1 4.8-6.9 4.5-6 1.9-7.8 4.3-2.6-2.5-2.9-1.6-3.9-3.4-1.1-0.5-1.3 0-4 1.3-9.5 0.8-3.7-0.6-13.9-6.2-5.6 1.5 0.4 20.9-7.1-4.4-4.2-0.7-10.5-4.6-11.2-1.3-6.4-8.6-3.4-6.3-1.4-3.7-0.7-1.5-2-3-2.6-3.1-5.9-4.8-3.3-3.3-4-2.6-2.2-0.8-8.1 0.6-5.7-3.2-15.7 3.3 0-18.5 0.5-3.3 0-3.2-0.5-0.7-0.8-0.4-2.2-1.6-2.1-2.6 14.4-12.6-2.1-6.2 0.4-5.7 1.3-5.7 14.1-3.9 4.3-4 1-3.8 0.5-3.1 0.1-1.6-0.5-2.7 0.3 0 11.2 0.8 0.4 0 13.4-3.4 6.3-5.3 1.3-4.7 0.1 0 9.4-8 6.9-9.3 6.2-2 3.8-4 0.7-1.9-0.1-2.3-0.9-1.4-2.1-2.2-2.2-2.7-2-1.8-2-0.8-1.8-0.2-3.6 0.6-1.9-0.2-1.9-1-2.1-2.3-0.3-3 0.2-3.4 0.7-2.3 0.6-1.7 1.1-1.5 4.2-4.5 2.7-2.4 2.6-5.2-0.4-9.2 1.5-9.9 0.8-1 1.1-1.2 1.3 0 1.2-0.3 1.3-0.4 5.6-0.9 3-1.1 5.4-3 2.4-2.5 1.8-2.4 1-2.3 11.5-19.8 1.9-5.2 1.2-1.7 1.2-0.9 1.3-0.3 8.9-0.6 4.4-0.2 4.5 3.9 0.9 1.7 0.4 1.5-0.3 0.8-0.2 0.8 0 0.8 0.6 1.8 5.3 8.8 3.7 3.3 2.3 1.5 1.6-0.1 1.3-0.9 1.6-1.5 1.6-0.6 1.8-0.1 3.7 1.1 1.6-0.1 1.7-0.3 2.9-0.2 1.5-1.2 0.7-1.6-0.1-1.7-0.4-1.9 0-3-0.3-1.4-0.5-1.5-0.7-1.4-0.2-1.4 0.2-2.4-0.5-1.7 0.4-2.6 1.7-2.9 8.5-5.1 2.5-2.3 2.9-4.5 1.7-3.9 0.7-6.3 4.1-3.2 1.8-1.3 12.2-0.3z" id="BT24" name="Wangdi Phodrang">
  </path>
  <path d="M324.7 466.7l1.6-1.4 0.6-0.9 1.8-3.6 0.5-2.2 0.7-3.7 0.3-4-0.2-3-1.3-4-3.1-4.5-0.5-1.2 0.2-3.8 4.6-9.5-3.5-13.5-1.3-3.9-5.4-10.7-17-0.1 0.7-4.1 0.6-1.4 0.4-1.7-1.5-3.1-6.4-2.2-5.2-15.2-4-5.9 2.6-8.2 1-7.1 1.4-3.7 1.3-2.3 1.4-1 1.5-0.8 3-1.2 1.7-1 2.3-2.3 1.8-3 2.2-6.5 3.1 0.6 15.7-3.3 5.7 3.2 8.1-0.6 2.2 0.8 4 2.6 3.3 3.3 5.9 4.8 2.6 3.1 2 3 0.7 1.5 1.4 3.7 3.4 6.3 6.4 8.6 11.2 1.3 10.5 4.6 4.2 0.7 7.1 4.4 1.3 10-1.5 5.1 2.1 2.8-0.3 6.8-1.2 9.5 0 1-0.1 8.8-2.6 8.1-4.2 4.8-2.5 4.7-4.8 2.7-0.9 2.1 0.1 1.4-0.5 2.8 0 1.2 0.5 2.7 0 0.8-10 6.8-1 1.2-1 1.5 0.6 0.5 0.7 0.4 0.6 0.1-0.3 1.1-1.1 0.2-1.5-0.3-1.3-0.9-0.7-1.3-0.1-2-0.7-2.3-0.8-2.1-2.3-1.8-1.2-0.1-0.7 0.6 0.1 2.8-0.3 2.2-0.7 2.6-1.1 2.4-0.9 0.9-1 0.2-0.8-0.5-0.5-0.7-0.2-0.9-0.2-0.7-0.4-1.6-1.5 3.8-1.6 0.9-7 2.7-2.5 0-1.9-0.8-2.7-3-1.8-1.5-3.6-1.6-1.6 0.1-0.8 0.6 0.3 2.5-0.1 1.3-0.4 1.1-0.4 0.8-0.5 1.8-3.6-1.6-1.1-0.2-1.9 0-1.3 0.2-4.9 1.4z" id="BT22" name="Daga">
  </path>
  <path d="M339 247l-6.5-0.9-0.8-0.7-1.5-1.8-0.4-1.5-4.5-6.8-1.9-3-11.1 3.7-7.3 5.9-3.3-5.1-3.7-3.5-1.4-2.8-2.1-5-1.7-2.7-2.2-2.8-1.4-2.8-0.7-2.5 0-2 0.9-3.7-0.2-6.1-1.3-7.4-0.6-1.2-4.1-6.3 1.8-3.5 1.1-0.4 1.8-0.5 3-0.3 1.8 0.1 2.2 0.4 5 1.7 10.7-3.3-1.4-3 5.2-3.5 4.4-0.8 7.7-0.6 8.9-11.5 5.1-8.9 1.7-2.3 1.5-1.5 1.4-0.5 3.6-0.7 1.4-0.2 1.8-0.4 1.9-0.6 3.2-1.5 1.9-0.5 1.5 0.2 1.5 1 6.6 5.5 12.6 5.1 3.1 2.4 1.1 0.7 4.5 1.1 0.4 9.2-2.6 5.2-2.7 2.4-4.2 4.5-1.1 1.5-0.6 1.7-0.7 2.3-0.2 3.4 0.3 3 2.1 2.3 1.9 1 1.9 0.2 3.6-0.6 1.8 0.2 2 0.8 2 1.8 2.2 2.7 2.1 2.2 0.9 1.4 0.1 2.3-0.7 1.9-3.8 4-6.2 2-6.9 9.3-9.4 8-0.1 0-1.3 4.7-6.3 5.3-13.4 3.4-0.4 0-11.2-0.8-0.3 0z" id="BT23" name="Punakha">
  </path>
  <path d="M743.6 228.9l4.9 8.9 18.9 25.3 3.4 8.3 0.3 1.1-0.6 2.7-4.4 8.5 1.3 3.7-2.7 2.8 6.4 4.2 3.8 3.6 7.3 4.1 1.3 1.2 0.6 1.3 0.1 1.2 1.7 3 0.5 1.4 0.3 1.1 0 1.1 0.7 3.8-10.9 5.5-10.5 10.3-2 5.2-0.7 15.6-0.7 3.7-0.6 3-2.2 7.3-3 7-3.5 5.5-5.3 4.3-18.3 8.3-5.7 4.5-4.6 5.7-7.4 13.2-2.3 8.2-4.8-0.4-3.1 2-1.3-0.1-2.3-1.1-2.1-1.9-1.9-2.9-2.7-2-2-1-2.3-0.4-2.3-1.9-1.5-1.6-2.5-13.8-3.3-3.3-1.2-0.9-10.2-3.1-8.9-19.6-0.5-8.2 1.8-5.3 1.8-4.5 0.3-1.9 0.5-4.9-0.4-4.9-2.7-3.7-0.1-5.1-0.3-1.2-0.7-1.8-4-3.7-1-0.6-2.6-6.6-2.6-10-2.1-4.9-3.4-10.5 4-4.1 0.9-0.5 5.5-1.8 13.9 2.9 15-13.2 5.8-2 4.7 0.3 5.1 1 1.9 1.1 6.2 9.9 21.8-11.8 3.6-9.2 0.4-5.5-0.4-1.4-2-2.6-1.6-3.7 2.2-5.2 2.7-2.9 6.6-5.4 0.3-2.5-0.3-5 0.8-1.4 1.4-0.8 1.1-0.2 2.7-0.8z" id="BT42" name="Mongar">
  </path>
  <path d="M515 169.4l2.3 1.7 0.7 0.9 0.8 0.6 0.9 0 0.9-0.2 1.2-0.2 1.5 0.1 1.5 0.5 1.3 0.8 0.7 0.8 3.2 4.7 0.6 1.2 0.6 1.4 0.3 2.7 0 3.6-0.7 8-2 6.6-0.2 1.8-0.1 2.4-0.5 3.7 0.1 2.3 0.3 1.3 1.3 1 0.6 0.9 1.1 8.4 1 3.8 2.2 1.4 6.3 21.7 1.2 7.8-1.5 3.8 2.2 6.1 6.7 2.4 2.7 0.6 1.1 0.6 0.9 0.8 1.2 1.8 1.4 1 2.5 1.1 3.5 1.2 2.1 1 5.5 4 14.8 16.3-2 9.9-2.5 6.5-0.5 3.4 0.6 2 0.1 1.1 0 1-0.1 0.8 0.1 0.8 0.1 0.8 0.1 1.1-0.7 1.4-7.7 5.6-19.9 9.2 1.9 3.4 7.7 10.2 0.4 0.9-0.5 0.7-1.6 0.6-10 0.7-1.6-0.5-1.2-0.8-1.2-1.1-1.3-0.9-1.5 0.3-1.9 1.1-3.6 3.4-1.9 1.4-4.4 1.8-3 3.2-4-0.5-4-1.4-1.6-0.2-1.5 0-1.2 0.1-1.1-0.1-1.2-0.3-1.3-0.6-1.6-1.1-2.1-2.4-3.4-2.1-8.7-7.2-17.1-9.7 5.1-7.3 1.4-5-0.1-4-4.6-2.8-1.1-8.6-1.2-3-1.9-2.3-8.2-7.3-1.1-1.7-0.6-1.4 0.3-1-0.1-1.3 0.3-1.1-3.5-4.3-4.3-7.7-1.4-9.3-0.8-2.4-4.9-8.4 9.8-2.4 1.7-1.1 4.7-4.6 2.4-1.2 3.6-1 2-0.2 1.6 0.3 1.4 0.8 0.9-0.2 0.7-0.5 0.9-1.1 1.2-0.9 2.9-2.8-7.9-4-2.9-3.6-4.8-10-0.5-1.5-1.1-2.7-0.1-0.8-0.4-1.2-0.5-1.3-1.2-2.6-0.5-1.7 0.1-2.1 3.6-4.9 0.8-1.9 0.6-5.5 0.5-1.9 0.7-1.3 1-1.4 1-0.7 1-0.2 0.9 0.3 1 0.5 1 0.3 0.9 0.1 1.6-0.1 2.3-0.5 1.9-0.8 1.5-0.3 1.4-0.1 2.7 2 1.3 0.5 1.4 0 12.4-5.3 2.8-2.2 1.5-2.4 1-3.3 2.5-14.2 0.1-4.3z" id="BT32" name="Tongsa">
  </path>
  <path d="M792.7 400.6l-10.3 3.3-0.7 2.6-4.7 9.2-0.5 2-0.3 3.2 1 4.2 0 1.8-0.8 2.4-3.9 6.5-3.6 4-3 2.9-2.1 2.3-2.3 2.6-2.8 5.7-3.4 1.3-7.5-2.9 2.3-8.9 0.9-1.3 0.3-1.5 0-1.3-3.2-7.3-6.2-0.5-2.6-1.8-1.9-1.6-1.7-2.9-1.6-0.8-2.5-0.5-10.6 1.3-7.6-0.7-3.7-0.4 2.3-8.2 7.4-13.2 4.6-5.7 5.7-4.5 18.3-8.3 5.3-4.3 3.5-5.5 3-7 2.2-7.3 0.6-3 11.3 1.4-3.7 6.4-2.7 3.4-0.5 2.2 0 1.4 2 2.8 2.6 4.7 1.1 1.3 0.9 0.7 5.8 3.9 1.1 1 3.7 1.8 9.7 0.1 0.4 0.4-1.6 12.6z" id="BT43" name="Pemagatsel">
  </path>
 </g>
 <g id="points">
  <circle class="26.773904032169106|88.898002247916" cx="90.9" cy="474.6" id="0">
  </circle>
  <circle class="27.39594127291803|90.57735711545213" cx="545.5" cy="285.5" id="1">
  </circle>
  <circle class="28.173487823854185|91.92084100948104" cx="909.1" cy="47.6" id="2">
  </circle>
 </g>
 <g id="label_points">
  <circle class="Tashi Yangtse" cx="780.7" cy="195.8" id="BTTY">
  </circle>
  <circle class="Lhuntshi" cx="689.5" cy="181.1" id="BT44">
  </circle>
  <circle class="Bumthang" cx="580.7" cy="201.3" id="BT33">
  </circle>
  <circle class="Ha" cx="173" cy="333.9" id="BT13">
  </circle>
  <circle class="Samchi" cx="126.2" cy="395.4" id="BT14">
  </circle>
  <circle class="Chhukha" cx="257.4" cy="413" id="BT12">
  </circle>
  <circle class="Geylegphug" cx="505" cy="403" id="BT31">
  </circle>
  <circle class="Shemgang" cx="614.2" cy="383.7" id="BT34">
  </circle>
  <circle class="Samdrup Jongkhar" cx="842.3" cy="427.9" id="BT45">
  </circle>
  <circle class="Tashigang" cx="842.6" cy="331.1" id="BT41">
  </circle>
  <circle class="Thimphu" cx="278.4" cy="261.4" id="BT15">
  </circle>
  <circle class="Paro" cx="215.4" cy="246" id="BT11">
  </circle>
  <circle class="Gasa" cx="363.9" cy="91.2" id="BTGA">
  </circle>
  <circle class="Chirang" cx="429.5" cy="398" id="BT21">
  </circle>
  <circle class="Wangdi Phodrang" cx="403.3" cy="288.6" id="BT24">
  </circle>
  <circle class="Daga" cx="363" cy="405" id="BT22">
  </circle>
  <circle class="Punakha" cx="344.3" cy="202.4" id="BT23">
  </circle>
  <circle class="Mongar" cx="712.9" cy="340.7" id="BT42">
  </circle>
  <circle class="Tongsa" cx="511.5" cy="290.8" id="BT32">
  </circle>
  <circle class="Pemagatsel" cx="754.6" cy="407.2" id="BT43">
  </circle>
 </g>
</svg>