<?xml version="1.0"?>
    
<!--********* Copyright (c) 2024 Pareto Softare, LLC DBA Simplemaps.com ***************************************
************* Free for Commercial Use, full terms at  https://simplemaps.com/resources/svg-license ************
************* Attribution is appreciated! https://simplemaps.com *******************************************-->

<svg baseprofile="tiny" fill="#6f9c76" height="871" stroke="#ffffff" stroke-linecap="round" stroke-linejoin="round" stroke-width=".5" version="1.2" viewbox="0 0 1000 871" width="1000" xmlns="http://www.w3.org/2000/svg">
 <g id="features">
  <path d="M459.1 772.5l-0.1-0.9 0-0.4-0.2-11.3 0.9-2.4 1.2-0.2 0.4-0.2 0.5-0.7 0.5-1.1 0.8-2.3 0.3-1.6 0.1-4.6-0.1-1.4-0.2-1-0.4-0.8-0.6-0.8-2.9-2.8-0.8-0.9-0.3-0.6 0-0.5 0.1-0.4 0.6-0.8 0.3-0.5 0.5-1 0.7-2.6 0.5-2.8 0.1-1-0.1-0.8-0.6-1.9-0.2-1.3 0-0.8 0.2-0.7 5.7-7.4 0.4-0.6 0.4-0.8 0.5-1.5 0.1-0.8-0.1-0.6-0.2-0.5-0.3-0.4-0.3-0.4-2.4-1.9-1.2-1.6-1.9-1.7-0.3-0.4-0.2-0.5-0.1-1-0.2-7.7-0.2-2 0.2-4.1-0.1-1.3-0.2-1.3 0-0.8 0.1-0.7 0.1-0.5 0.3-0.5 0.6-1.1 0.4-0.7 0.3-1.2 0.1-0.6 0-0.6-0.2-0.4-0.2-0.5-0.6-0.8-0.7-0.7-9.4-5.9-2.7-1.1-0.5-0.6-0.6-0.9-1.1-2.8-0.3-0.8-0.3-0.3-0.4-0.4-0.5-0.2-0.6-0.2-5-0.2-0.6-0.3-0.6-0.6-0.6-1.7-0.2-1.1 0-0.9-0.6-1.3 6.1-8.6 1-2.6-0.5-1.5-0.3-1.1-0.3-1.1 0-0.7-0.1-0.8 0.2-1.1 0.3-0.5 0.5-0.3 2.7-0.1 0.7-0.3 0.3-0.4 0.5-2.1 0.7-2.1 0.7-0.8 0.7-0.4 2.5 0.1 0.4 0.3 0.3 0.4 0.1 0.5 0.2 1 0.2 0.3 0.2-0.1 6.5-5.6 0.8-0.2 0.6 0.1 1.4 2.7 0.2 0.5 0.5 1 0.2 0.3 0.4 0.3 0.2-0.3 0.6-1.7 0.7-1.4 0.7-0.5 0.7-0.2 0.5 0.2 0.3 0.4 0.1 0.6 0 0.6-0.2 3.7 0 1.7 0 0.6 0.1 0.6 0.2 0.4 0.3 0.5 0.3 0.3 3.1 2.5 4.9 2.7 0.5 0.1 0.7 0.1 7.5-0.2 3.1 0.7 10.6-1 1.2-0.5 0.3-0.5 0.5-0.4 1.2-0.6 0.4-0.4 0.2-0.4 0.1-0.6 0-0.6-0.2-2.4-0.2-0.5-0.1-0.5-0.9-1.7-0.1-0.3 0.2-0.6 0.4-0.6 1.1-1 0.8-0.4 0.7-0.2 8.1 1.8 1.1 0.5 0.3 0.3 0.3 0.3 0.1 0.1 0.5 1.6 0.9 1.8 0.8 1.4 0.7 0.3 1.1 0.2 19.7-2.3 6.1-5.3 0.2-0.4 0.2-0.5 0.1-0.6-0.1-1.2-0.6-4.7-0.2-3 0.2-5.3 0.2-2 0.1-0.7 0.5-0.8 0.9-0.8 2.1-1.2 0.9-0.7 0.3-0.6-0.3-0.4-0.1-0.6-0.1-0.3 1.4-1.9 0.4-0.2 6-0.6 4.6 0.7 0.7 0 0.7-0.3 0.7-0.6 0.5-0.6 0.6-0.4 0.7-0.2 1.3 0.1 2.7 0.7 0.6 0 0.6-0.3 0.8-0.6 0.7-0.5 0.9-0.4 4.6 0 0.7-0.3 0.9-0.8 0.9-1.1 0.5-0.4 0.8-0.1 2.3 0.1 0.9-0.2 0.7-0.7 0.4-0.6 0.3-0.7 0.1-0.5 0-0.6-0.2-0.5-0.3-0.4-0.5-0.3-2.4-0.7-0.4-0.3-0.3-0.4-0.2-0.3-0.1-0.2 0-0.3 0-0.4 0.3-0.3 0.5-0.4 1.7-0.9 13.4-4.3 0.5-1 0.3-0.6 0.1-0.6 0.1-2-0.2-6.4 0.1-0.6 0.4-0.5 0.9-0.2 9.5-0.3 0.6-0.3 0.6-0.9 0.2-0.7 0.1-0.7 0.4-0.6 0.6-0.4 1.8-0.9 0.5-0.5 1.3-1.7 2.2-3.8 0.7-0.8 0.4-0.3 0.9-0.3 1.2-0.1 4 0.4 9.3 2.8 0.3 0.3 0.1 0.2 0 0.6-0.3 1.2 0 0.6 0.3 0.3 0.6 0.1 3.6-1.6 0.5-0.6 0.2-0.6 0-0.6-0.3-0.4-0.8-0.7-0.1-0.4 0.1-0.4 0.3-0.4 0.5-0.3 0.8 0 1.4 0.3 0.7 0.3 0.5 0.5 1.2 2.3 0.3 0.4 0.5 0.2 0.6 0 3.7-2.1 0.7-0.6 0.7-1.3 0.4-0.4 0.6-0.2 2-0.5 10.1 0.1 0.9 0.2 0.7 0.3 0.3 0.4 0.9 0.6 0.5 0.3 0.5 0.2 0.8 0 0.8-0.2 1-0.6 0.6-0.6 0.4-0.5 1.1-2.5 0.1-0.3 0.1-0.5-0.2-0.4-0.4-0.4-3.9-2.2-0.8-0.6-0.3-0.3-0.7-0.9-0.7-0.8-2.8-1.7-0.3-0.3 0-0.5 0.2-0.4 1.9-2.6 0.3-0.5 0.2-0.6 0-0.6 0-0.6-0.1-0.6-0.1-0.5-0.3-0.5-0.3-0.3-1.1-0.2-0.3-0.3-0.3-0.5-0.6-2.1-0.1-0.6-0.1-0.5 0.2-0.4 0.1-0.2 3-1.4 0.4-0.6 0.1-0.5-0.3-0.4-1.1-1 0-0.4 0.9-0.1 8.2 0.8 0.5-0.5 0.3-0.5 0.2-0.5-0.1-0.5-0.4-0.3-1.5-0.8-0.4-0.4-0.2-0.4 0.2-0.6 0.5-0.5 1.3-0.8 0.5-0.8 0.3-0.7 0.3-2.6-0.1-0.5-0.3-0.4-1.5-1.5-0.3-0.4-0.2-0.4 0.4-0.3 0.9 0 2 0.4 1 0 0.7-0.4 0.1-0.6-0.1-0.6-0.3-1.1-1.6-3.8-0.4-1.1-0.5-2.1-0.7-2.1-0.1-0.5-0.2-1.1-0.1-1.3 0-0.6 0.2-2.1 0.2-0.6 0.2-0.6 0.3-0.4 1.5-1.5 1.2-1.9 0.3-0.4 0.4-0.3 0.5-0.2 0.7 0 0.9 0.1 1.5 0.9 0.7 0.6 0.8 1 0.4 0.3 0.5 0 0.6-0.3 0.9-0.7 0.6-0.1 0.6 0.2 0.8 0.8 0.3 0.7-0.1 0.6 0.4 0.4 0.8 0.3 2.2 0 1.1-0.3 0.7-0.5 0.3-0.4 1.1-1.1 0.4-0.4 1-0.4 0.6 0 0.7 0.3 0.9 0.9 0.8 1.1 0.8 0.5 3.7 1.4 1.1 0.6 0.6 0.6 0.1 1.2 0.1 0.6 0.2 0.4 0.8 0.3 3.1 0.2 1.1 0.3 1 0.7 0.3 0.6 0.5 1.1 1.4 4.7 0.4 1 0.6 0.4 1 0.3 4.5-0.1 1 0 0.8-1.5 1.5-0.5 3.5-0.1 4.9-2.1 1.7 0-0.3-1.4-0.2-1.3-0.1-2 0.6-0.3 1.3-0.2 0.4-0.3 0.4-0.4 0.2-0.6 0.2-0.6 0.3-0.4 0.3-0.3 0.7-0.1 2.5 0.3 0.9-0.1 0.7-0.2 0.9-0.6 0.9-0.4 0.7 0 10.3 2.7 1.5 1.2 0.7 1.3 0.7 0.5 1.2 0.4 2.7 0.5 2.3 0 0.5-0.2 0.4-0.3 0.3-0.4 0.4-1.2 0.3-0.5 0.4-0.4 0.4-0.3 0.7 0 0.9 0.4 1.5 1 1 0.4 1.2 0 1.3-0.3 7 1.2 0.9-0.1 0.2-0.5 0.2-1.1 0.1-0.6 0.2-0.6 0.3-0.5 0.3-0.5 0.4-0.3 0.4-0.2 0.5-0.2 0.7 0 7.9 0.8 0.4 0.2 0.3 0.2 0.2 0.7 0.1 0.5 0.3 2 0.1 0.5 0.4 0.6 1.3 1.8 0.2 0.8 0.1 0.7 0 0.5 0 0.6 0.1 0.6 0.1 0.5 0.2 0.5 0.4 0.4 0.7 0.3 1.4 0.3 0.8 0.4 0.5 0.7 0.1 0.6 0.5 0.8 0.8 0.7 1.6 1.3 0.4 0.7 0.1 0.7-0.2 0.6-0.2 0.5 0 0.7 0 0.6 0.1 0.5 0.2 0.5 0.1 0.5 0.2 0.6 0 0.5-0.1 0.5-0.2 0.5-0.3 0.5-1.1 1-0.3 0.5-0.1 0.4 0.1 0.5 0.3 0.4 0.4 0.4 0.6 0.3 0.7 0.1 4.1-1.1 0.6 0 0.7 0.2 0.8 0.6 0.5 0.5 0.8 1.4 0.6 0.8 1.1 1.2 0.4 0.2 0.4 0 0.4-0.6 0.5-1.2 0.3-0.4 0.4-0.4 0.4-0.3 0.6-0.1 0.6 0.1 0.8 0.6 0.4 0.5 0.6 1 0.4 0.3 2.4-0.2 6.2-1.6 0.3 1.6 0.3 1.7-0.4 1.6-0.9 1.1-2.3 0.4-1 0.5-4.8 7.6-2.1 2.2 7.2 5.9 1.6 3 2.6 7.8 2 3.3 2.9 2.8 3.1 2 2.9 1 2.3 0.4 0.7 1.2 0.2 2 0.9 2.6 1.4 1.9 1.1 0.8 1 1.2 0.8 3.1 0.1 6.6-2.1 3.1-6.4 3.6 1 2.4 4.2 5.8 2.9 6.3 1.2 1.9 3.5 3 1.2 1.7-0.4 1.6-1.3 0.3-3.4-0.8-1.5 0.1 0.5 0.5 1.1 1.9-1.7 0.8-0.7 1.2 0.2 1.6 1.2 1.5 2.2 1.5 0.1 3.9-0.6 4.6 0 4 0.7 1.7 1 1.3 0.7 1.7 0 2.8-0.5 2.1-1 1.9-1.2 1.6-1.2 1.1 2.8 4.2 1.6 1.8 1.7 1.3 1.7 0.6 3.3 0.6 1.5 0.8-1 1.3-0.7 2-0.2 2.3 0.3 2.1 0.6 1.6 0.9 1 4.8 3.3 1.3 2.2 0.4 3.1-0.2 3.4 0 1.2-2.6 0.1-1.7 0.1-6.6 0.3-15.3-2.9-0.1-0.1-0.1 0-0.3 0-0.1-0.1-0.8-0.1-8.7 0-5.7 2.4-1.8 0.7-1.9 2.5-1.5 3.1-1.6 2.6-0.3 0.2-1.9 0.8-2.3-0.9-4.3-3.7-2.3-1.3-3.7-0.5-13 0.8-2.4 0.7-0.1 0.2-1.4 1.5 0.6 2.6-0.5 0.8-0.3 0.7-0.2 0.8-0.3 0.7 2.6 0.4 0.2 0 0.9 2.1-0.9 2-2.4 0.2-0.7-0.9-0.5-0.3-0.6 0.3-0.4 0.3-0.4 0.3-0.7 0.9-0.2 1 0.1 0.8-0.1 0.5-0.7 1-0.2 0.3-1.1 1.2-1.2 0.9-1.3 0.9-2.1 0.8-0.6 0.2-0.1 0.6 0.3 0.9 0.5 0.7 0 1-1.3 1.8-0.8 1-0.5 0.2-0.4 0.2-2.8-0.3-0.6 0.2 0 0.1-0.1 0.1 0 0.2-0.1 0.1-0.1 0.1-0.2 0.5-0.1 1.4-0.2 1.3-2 1-0.6 1.1-0.5 1-0.3 0.3-0.2 0.1-0.2 0.6-2.1 2.7-0.6 1.1-0.4 0.5 0 0.1 0 0.5 0.7 1.4 0 1.5 0.1 0.5 0 0.4-0.3 0.3-0.5 0.6-0.9 0.9-2.1 1.4-1.2 1.3 0.5 0.3 1.4 0.7 0.8 0.1 0 0.9 0 0.2-1.1 1.1-0.3 1.8-0.1 1.9-0.6 1.5-1 0.5-3 0.1-1.2 0.3 0.6 2.1-0.1 0.4-1 2.9 0.5 2.1-0.6 0.6-0.4 0.6-0.4 0.6-0.5 0.4 0.3 0.6 0 0.2 0.3 1.2-0.6 0.3-0.6 0.3-1 1-1.6 1.4-0.1 0.1 0 1.1 1.8 1.6 0.6 0.4 0.3 0.1 0 1-0.8 0.2-0.3 0.2-0.1 0.1-0.3 0.3-0.1 0.2 0 0.1 0 0.2 0 0.2 0 0.2 0.1 0.1 0 0.2 0.1 0.1 0 0.1 0.1 0.1 0.1 0.1 0.1 0.2 0.1 0.2 0.2 0.1 0.1 0.2 0.2 0.1 0.1 0.1 0.1 0.1 0 0.1 0.1 0.1 0 0.1 2 0.6 0.5 0.1 1.5 0.8-0.7 1.7-0.5 0.7-0.8 0.7 0.6 0.4 0.6 0.5 1 1 0.4 1.2-0.3 0.7 0 0.2 0.1 0.2 0 0.1 0 0.2 0 0.2 0 0.3 0 0.4 0 0.1 0 0.1 0 0.2 0.1 0.3 0.8 1.2 1 0.7 1 0.4 0 1.1-1.3-0.2-0.2 0.1-0.2 0.1 0 0.1-0.1 0.1-0.2 0-0.1 0.1-0.2 0-0.2 0.1-0.6 0.8-0.2 2 0.4 1.8 0.7 0.3 0.8 0.1 0.2 0 1.2 0.9 0.4 1 0.9 4.3 0.5 0.8 0.7 0.9 0 0.4 0.1 0.4-1.1 0.4-0.2 0.1 0.6 4.3-0.3 0.3-2.3 2.5-2.9 2.1-0.2 1.7-0.1 0.5-1.7 3-0.2 0.3-0.1 0-0.1 3.1 0 0.6-0.1 0.1-0.3 0.9-1.1 0.2-0.7-1.4-1.1-1.2-1.2-0.8-1.3-0.3-1.3 0.1-1.5-0.4-2.1-3.2-1.4-1.4-1.4-0.3-2.8 0-1.5-0.6-1.2-1.1-2.9-3.8-0.8-1.6 0.3-0.2 0.7-2.6 0.1-0.5 0-0.3 0.2-0.9 0-1.6-0.1-1.2-0.3-1-0.6-1.1-1.2-1.1-4.8-2.4-1.3-1.4-3.6-4.9-2.7-2-2.7-0.8-13.3 0.4-2.2 0.6-5.8 3.1-1.1 0.1-1.6-1.1-1-0.1 0 0.1-1.2 0.8-0.9 1.8-0.7 1.2-0.9 1-1.7 0.5-8.7-1.5-1.2-1.7-0.8-2.3-1.6-2.7-1.6-1.2-2.1-0.3-2.2 0.4-1.9 0.8-1.1 1-0.8 0.7-1.1 1.6-0.3 0.5-1.4 1.7-2.2 0.9-2.5 0.3-0.2 0-1.1 0.6-0.9 1.8-1.4 3.7-0.2 0.4-1.2 2.1-1.9 0-4.2-1.7-2.2 0.7-1.9 1.7-0.6 0.5-1.2 1.1-1.9 0.7-2.2-1.3-1.2-2.7-0.8-3.3-1.1-3-1.9-2.3-1.6-1.2-0.7-1.7 0.9-3.9-0.3-4-1.1-2.6-3.2-4.8-2-5.5-1.2-1.9-2.3-1.5-3-0.7-0.8-0.2-2 0.1-1.8 0.7-1.9 1.8-2.3 4.9-1.5 1.6-0.3 0.3-2.5 1-5.9 0.1-2.8 0.6-3 1.6-3 2.4-1.1 1.3-1.6 1.9-1.9 4.3-0.2 2.5 0.2 5.8-0.2 0.7 0 0.1-0.1 0.5-0.2 1-1.7 1.9-1-1.5-0.7-2.9-0.7-1.9-0.3 0-0.9-0.1-0.1 0.1-1.1 0.7-1.4 0.6-1.6-0.7-0.9-1.6-0.6-2.2-1.5-8.5-0.2-3.1-0.9-2.1-2.4-1-8.6-1.9-2.5 0.1-2.5 0.9-4.8 3.2-2.4 2.4-1.2 0.6-1.3-0.5-0.5-1.2-1-4.2-0.7-1.6-1.1-1.3-2.8-1.8-1.1-1.1-0.8-1.7-0.1-1.4 0-1.3-0.3-1.6-1.4-1.6-2-0.1-2.1 1-1.8 1.7-0.2 0.2-1.9 2.9-0.6 1.2-2.5 4.7-2.3 2.1-1.8 0.7-9.3-0.1-0.9-0.2-0.8-0.2-1-0.5-0.8-0.5-1.5-1.6-4.3-4.7-2-1.1-2.2 0.4-0.2 0.1-1.6 1.6-1.2 2.5-0.6 3.1 0 2 0.3 1.6 0.1 1.7-0.2 0.9-0.3 1.1-0.5 1-0.4 0.6-3.7 5-0.3 0.4-1 1-1.5 0.2-1.4-0.6-1.5-1.2-1.3-1.4-0.4-0.8-0.2-0.4 0.3-0.7 0.1-0.3 0.6-1.5 2.2-5.2 0.2-1.4 0.5-2.5-1.2-3.2-1.5-0.8-5.3-0.2-10.3-4.2z" id="BYHO" name="Gomel">
  </path>
  <path d="M436.1 658.5l0.6 1.3 0 0.9 0.2 1.1 0.6 1.7 0.6 0.6 0.6 0.3 5 0.2 0.6 0.2 0.5 0.2 0.4 0.4 0.3 0.3 0.3 0.8 1.1 2.8 0.6 0.9 0.5 0.6 2.7 1.1 9.4 5.9 0.7 0.7 0.6 0.8 0.2 0.5 0.2 0.4 0 0.6-0.1 0.6-0.3 1.2-0.4 0.7-0.6 1.1-0.3 0.5-0.1 0.5-0.1 0.7 0 0.8 0.2 1.3 0.1 1.3-0.2 4.1 0.2 2 0.2 7.7 0.1 1 0.2 0.5 0.3 0.4 1.9 1.7 1.2 1.6 2.4 1.9 0.3 0.4 0.3 0.4 0.2 0.5 0.1 0.6-0.1 0.8-0.5 1.5-0.4 0.8-0.4 0.6-5.7 7.4-0.2 0.7 0 0.8 0.2 1.3 0.6 1.9 0.1 0.8-0.1 1-0.5 2.8-0.7 2.6-0.5 1-0.3 0.5-0.6 0.8-0.1 0.4 0 0.5 0.3 0.6 0.8 0.9 2.9 2.8 0.6 0.8 0.4 0.8 0.2 1 0.1 1.4-0.1 4.6-0.3 1.6-0.8 2.3-0.5 1.1-0.5 0.7-0.4 0.2-1.2 0.2-0.9 2.4 0.2 11.3 0 0.4 0.1 0.9-0.4 0-3-0.1-1.7 1-0.4 0.4-2.3 2.5-2.1 1-1.9 0.2-5.7-1-3.8 1.3-2 0.2-1.3-1.2 0.2-1.1 0.3-1.5 1.4-3.3 0.3-2.7-0.4-0.1-2.4-0.6-2.3 0.3-1.9-0.2-1.4-1.3-0.8-3 0.1-4.1 0.2-3.3-0.6-2.4-2.5-1.5-3.9-0.9-8.4-0.3-4.6 1.6-4.6 1.6-0.4 0.2-6.3-1.1-3.9-1.7-4.7-2.1-0.1 0-0.9-0.4-8.4-3.8-10.6-0.3-8.1-0.2-2.2-0.1-1.4-0.7-1.2-1.7-0.2-1.5 0.1-0.2 0.2-1.2 0-1.1-1.1-0.5-1.2-0.1-21-0.9-2.8-1.2-6.2-5.5-2.8-0.7-6.6 0.2-19.4-3.7-0.9-0.1-8.1 1.6-0.7 0-7.6-0.2-4.6 0-7.4-0.2-0.2 0-11-0.2-16.1-4.3-4.3 0.1-4.3 1.4-8.5 4.5-1.4 0.3-6 0.9-14.6 2.4-3.2 0.5-1.6 0.3-1.9-0.1-5.9-1.4-13.9 1.1-4.5 0.3-5.3 0.4-2 0.8-2 2.1-1 1.5-2.5 3.7-0.5 1.1-0.6 1.2-0.3 0.5 0 0.1-0.1 0.1-2.2 10-2.7 3.8-10.5 7.2-0.3 0.3-1.3 1.2-12.9 11.6-0.4 0.1-3.4 0.5-2.6-2.4-0.1-0.1-2.1-2.5-0.6-0.8-3.8-1.5-2.4-0.2-6.7-2.1-2.2 0-9.1 2.4-0.2 0-0.2 0.2-0.5 0.2-0.4 0.3-0.1 0-0.9 1-0.1 0.2-1.1 1.8-0.1 1.2 0.6 1.3 2.6 7.3 0.2 1.5-0.4 2.3-0.8 0.5-0.9-0.7-0.4-2-1.3-0.8-1.5-0.6-1.2-2.4 0.7 0.1 0.6-0.1-2.1-3.6-0.8-2.1-0.3-2.2 0.5-4.2-0.2-1.4-1-1.2 0-1.2 0.8-0.1 0.6-0.3 1.2-1.6-0.5-0.6-0.5-1.1-0.3-1 0.3-0.4 0.9-0.4-0.2-1-0.7-1.1-0.3-0.8 0.5-3.5 0.4-1.6 0.4-1.1 1.6-1.9 2-1.2 1.9-1.9 1-3.5-1.7-2.4-1.5-2.8 1-1.3 0.4-3.3 1.2-0.7-0.1-0.7-0.1-0.2-0.1 0-0.4-0.1 0.6-1.8 0.1-5 0.6-2.8 1.8-4.3 1.3-2 1.5-1.1-1.1-2.6-1.4-5.9-0.8-1.9-0.1-1.8-0.4-1.8-1.1-0.8-0.9-0.4-0.6-0.9-0.5-1.3-0.6-1.2-1.8-1.1-4.5 0.1-1.8-0.5-2.7-5.3 0.4-0.6 0.3-1.8-0.4-1.2-1.6 1.5-0.6-0.7-1-0.8-0.3-0.7-1.3 1.6-1-0.2-0.8-0.8-1.2-0.6-1.4 0.6-0.2-0.3 0.7-1.4 0-1-2-0.2-6-2.2-1.2-1.3-1.5 0.6-6.8-1.9-2.2-1.4 0.8-2.7-0.3-2.1-1-1.5-0.8-0.6-0.7-0.6-0.2-0.1 4.4-9 1.7-2.7 3.8-4.7 11.6-17.9 8.4-7 8.4-4.9 15.9-4.6 12.7-8.6 3.8-4.7 1.3-6.7-0.2-4.7 1.7-0.4 12.6 1.1 1-0.4 1-0.5 2.8-2.5 2.2-1.4 0.9-0.1 0.6 0.1 0.4 0.3 0.3 0.5 0.4 0.9 0.5 0.9 0.8 0.5 1.2 0.5 4 0.6 1 0 3.9-1.4 0.8-0.1 0.5 0.1 0.2 0.3 0.1 0.4 0.1 0.6 0.2 0.6 0.4 0.5 0.5 0 0.5-0.1 0.4-0.3 0.4-0.3 0.6-0.4 2.4-0.7 0.9-0.1 0.7 0.2 0.5 0.2 4.2 3.1 0.8 0.8 0.5 0.4 2.1 1 2.5 0.4 2.3-0.1 2.1-0.6 0.7-0.4 0.4-0.3 0.3-0.4 0.1-0.4 0.1-0.4 0-0.6 0-1.3-0.3-1.1-0.4-1-0.8-1.4-0.1-0.4 0-0.5 0.7-1.4 0.8-2.3 0.3-0.4 0.3-0.4 2-1.6 0.3-0.4 0.1-0.6-0.1-0.6-0.2-0.5-0.2-0.5-1-1.1-0.3-0.4 0-0.5 0.2-0.3 2-2.4 0.2-0.4 0.7-0.6 0.9-0.8 2.2-1.2 1-0.7 0.7-0.6 0.1-0.6 0-0.6-0.1-0.6-0.3-0.3-0.5-0.2-2.6-0.4-0.5-0.3-0.4-0.3-0.1-0.5 0.1-0.4 0.3-0.5 0.3-0.3 4.7-2.7 1.3-0.4 0.9-0.1 5.9 3 5.1 1.2 3.1 0 1-0.3 0.7-0.3 0.3-0.5 0.2-0.5 0.7-1.8 0.4-0.7 0.8-0.9 0.7-0.3 0.8-0.1 2.4 0.6 1 0.4 0.9 0.7 0.6 0.8 0.3 0.4 0.5 0.9 0.4 1.1 0.3 1 0.1 0.6 0 0.6 0 0.6-0.1 0.6-0.3 1.1 0 0.5 0.2 0.4 0.3 0.3 4 1.6 1.1 0.2 0.6-0.2 0.5-0.4 0.2-0.4 0.8-1.7 0.4-0.5 0.6-0.6 0.6-0.1 0.5 0.1 0.4 0.2 0.2 0.4-0.1 0.5-1.3 4.7-0.2 0.6 0 0.6 0 0.5 0.6 0.8 0.1 0.6-0.1 0.6-0.1 0.6-0.1 0.6-0.1 0.6 0.3 0.5 0.7 0.4 1.2 0.4 0.7-0.1 0.5-0.3 0.4-0.4 0.5-0.3 3.8-1.6 1.1-0.1 1.1 0.1 1.4 0.4 0.9 0 0.7 0 0.4-0.3 0.3-0.4 1.6-1.2 2.1-0.8 1.2-0.2 0.7 0.1 0.2 0.5 0.2 1.2 0.3 0.4 0.3 0.4 0.8 0.6 1.5 0.7 1.5 0.4 0.8-0.1 0.6-0.3 0.4-0.3 0.3-0.3 0.3-0.4 0.1-0.6 0-0.6-0.1-0.6-0.3-0.4-1.6-0.7-0.3-0.3-0.3-0.5-0.1-0.5-0.1-0.6 0-0.5 0.2-0.5 0.3-0.3 0.8-0.7 0.3-0.4-0.1-0.4-0.2-0.5-1.5-1.4-0.3-0.4-0.2-0.5-0.1-0.5 0-0.7 0.2-0.7 0.5-0.8 1.3-1 0.8-0.1 0.8 0.2 0.8 0.3 1.9 0.2 1.5-0.4 2.5-1 0.7-0.9 0.4-0.7 0-0.6 0.1-0.6 0.2-0.5 0.3-0.5 1.1-1.1 0.6-0.9 1-1.9 1-1.5 0.6-0.6 0.4-0.3 4.9-3 0.7-0.8 0.3-0.5 2.3-6.8 3-5.9 0.8-2.2 0.1-0.7 0.1-0.6-0.1-0.6-0.1-0.6-0.2-0.5-0.4-1-0.3-0.4-1-1.2-0.4-0.3-0.5-0.3-1.9-0.4-0.4-0.3-0.2-0.5 0-0.6 0.3-0.6 0.3-0.5 2.1-1.8 1.5-1.2 0.8-0.7 0.5-0.6 0.1-0.7 0-0.6-0.1-0.5-0.3-0.5-0.3-0.3-1.9-1.2-0.3-0.4-0.2-0.4-0.1-0.6 0.6-2.6 0.3-0.8 0.5-0.9 0.7-0.3 2.8-0.3 0.7-0.3 0.4-0.4 0.3-0.5 0.1-0.7 0.5-4.7 0.2-1.1 0.1-0.4 0.3-1 2.8-4.7 0.4-1.1 0.2-0.5 0.4-0.7 0.5-0.9 1.2-1.3 0.7-0.5 0.7-0.3 1.2 0.2 0.6 0.2 0.8 0.1 0.9 0 3-0.7 0.9 0 0.6 0.1 0.5 0.3 1.2 1 0.7 0.1 0.9 0 1.5-0.4 1-0.1 0.8 0.1 0.4 0.4 0.3 0.3 0.3 0.5 0.4 0.3 0.4 0.3 0.6 0.2 13.4 1.2 2-0.6 2.1-0.1 5.1 1.2 8.1 0.5 2.4 0.7 2 1 0.5 0.2 2.5-0.2 7.4-2-0.2 1.3-0.2 5.9 0.2 0.7 0.4 0.7 0.8 1.1 0.6 0.9 0.4 1.5 0.1 0.9 0 2.8 0 0.6-0.2 0.6-0.3 0.5-0.3 0.4-0.5 0.2-0.5 0.3-0.5 0.1-3.9 0.1-0.6 0.2-1 0.9-0.8 0.8-1.4 1.7-1.6 2.9-0.7 1.7-0.2 0.5-0.1 0.6 0 0.7 0.2 0.6 0.5 0.6 1.2 0.6 0.8 0.2 0.8 0 1.7-0.3 0.5 0.2 0.3 0.4 0.1 1.5 0.2 0.7 1.5 0.9 0.4 0.6 0.2 0.8 0.1 2 0.3 0.6 0.5 0.5 0.9 0.5 0.8 0.2 6.6 0.4 0.6 0.1 0.5 0.4 3.2 3.8 0.4 0.7 1.4 3.1 0.2 1.2-0.1 0.8-0.5 0.3-0.4 0.1-0.9 0.1-3.8-0.4-1.2 0.1-1.1 0.5-0.4 0.3-0.4 0.3-0.6 0.9-0.5 1-0.7 1.6-0.7 2.3-0.2 0.4-0.4 0.7-0.3 0.2-1.3 0.7-0.3 0.5 0 0.8 0.2 1.1 0.8 1.8 4.1 6.9 0.4 1 0.1 0.6 0.1 0.6 0 0.6 0.2 0.7 0.7 2-0.1 0.6-0.2 0.5-2.4 1.9-0.4 0.4-0.2 0.5 0 0.7 0.4 0.9 2.7 4 0.4 0.3 0.4 0.2 0.7-0.2 0.8-0.9 0.3-0.4 0.7-0.8 0.7-0.7 0.4-0.3 0.5-0.2 3.2 0.1 0.3-0.2 0.3-0.2 0.2-0.5 0.1-0.6 0.3-2.1 0.1-0.7 0.2-0.6 0.3-0.4 0.4-0.3 2.8-0.5 0.9 0.2 1 0.4 1.8 1.3 2.4 1.2 0.4 0.5 0.3 1 0.2 2.2 0.1 0.6 0.3 0.5 0.6 0.5 1.1 0.4 0.8 0.1 0.7 0 3-1.1 0.5-0.1 0.6 0.4 0.6 0.7 2.4 4.5 2.1 3.4 0.5 0.5 0.8 0.6 9.7 3 3.3 2 1 0.3 0.5 0.1 0.5-0.2 0.3-0.3 0.4-0.4 1.2-1.8 0.3-0.3 0.4-0.2 0.5 0.1 3 2.1 0.4 0.5 0.2 0.5 0 0.9-0.2 0.6-0.5 1 0 0.7 0.1 0.8 3.1 5 0.8 0.7 0.7 0.5 3.3 0.6 5 0 0.6 0.2 0.5 0.4 1 1.4 1 1.9 0.2 0.6 0.1 0.9-0.1 1.5-0.1 0.9-0.2 0.7-0.3 0.5-0.3 0.4-0.5 0.2-11.3 0.5-0.6 0.2-0.3 0.3-0.3 0.5-0.7 2.4 0 0.7 0.2 0.6 1.9 1.8 0.3 0.4 0.2 0.6-0.2 0.7-0.3 0.5-1.8 1.8 0.5 1.2 1.3 1.7 4.1 4.4 3.8 3 0.5 0.6 0.6 1.4 0.2 1 0 0.8-0.1 0.6-0.2 0.5-0.2 0.6-0.3 0.5-1.6 1.9-0.3 0.4 0 0.5 1.4 1.1 12.2 7.5z" id="BYBR" name="Brest">
  </path>
  <path d="M808 324.4l-0.6 0.2-1.5 0.1-2.1-0.4-0.9 0-0.7 0.3-2.1 1.8-0.7 0.3-2.5 0.7-0.8 0.4-0.5 0.4 0 0.6 0.1 0.5 0.3 1 0.2 0.5 0 0.6 0 0.6-0.2 0.4-0.5 0.2-1-0.2-0.6-0.3-0.9-0.7-1.9-1.2-3.3-1-2.5-1.6-0.6-0.2-0.8 0.1-1 0.3-1 0.9-0.3 0.6 0 0.7 0.1 0.5 0.1 0.5 0 0.5-0.3 0.4-0.4 0.3-0.5 0.3-2 0.2-6.4-0.2-4.7-0.9-3.8-1.9-0.6-0.1-0.9 0.1-1 0.3-1.7 1-0.6 0.5-0.4 0.7-0.2 1.2-0.3 0.5-0.5 0.4-4.1 1.3-1 0.5-0.6 0.5-0.2 0.6 0 0.6 0.1 0.5 0.4 0.4 1.9 1.9 0.3 0.4 0 0.5-0.2 0.5-0.3 0.4-1.3 1-0.3 0.5-0.3 0.5-0.2 0.5-0.6 2-0.2 0.6-0.3 0.5-0.7 0.8-0.8 0.7-0.5 0.3-2.9 1.4-0.7 0.1-0.8 0-1.4-0.3-1.5-0.8-1.6-1.4-1.3-1.4-0.2-0.3-1.5-3.3-0.5-0.9-0.4-0.4-0.4-0.3-0.6-0.1-0.5 0.1-0.5 0.7-0.2 0.7 0 1.2-0.3 0.5-0.3 0.4-0.3 0.4-2.6 1.8-2 0.9-1.6 0.1-5.4-1.2-0.4-0.2-0.4-0.4-0.2-0.4-0.1-0.5 0.1-0.5 0.3-0.4 2.4-3 0.6-1 0.5-1.1 0.2-0.6 1-2.2 0.2-0.5-0.4-0.2-0.6 0.1-4.6 3.2-0.8 0.2-0.9 0.2-1.8-0.1-2.3-0.5-0.4 0.2-0.3 0.8-0.2 1.5-0.1 0.6-0.4 0.4-0.5 0.3-0.6 0-0.7-0.4-1.2-1.3-3.5-2-0.2-0.4 0.1-0.5 0.8-0.6 0.2-0.4-0.1-0.4-0.4-0.3-0.5-0.3-0.7 0-0.7 0.3-0.6 0.9-0.3 0.6-0.2 0.5-0.1 0.5-0.2 0.6-0.5 1-0.7 0.8-3.2 2-0.5 0.6-0.1 0.7 0.3 2.3 0.1 0.6 0.4 1 0.2 0.5 0.3 0.5 0.1 0.5 0.1 0.6 0.1 0.6-0.2 0.6-0.2 0.6-0.3 0.4-0.9 0.4-1.3 0.1-2.7-0.2-1.2-0.3-0.5-0.6 0.1-1.1-0.1-0.5-0.8-0.4-3.7-0.1-1.1-0.3-0.7-0.3 0-0.5 0.2-1-0.1-0.5-0.3-0.4-1.2-1-0.3-0.5 0-0.5 0.2-1.1-0.2-0.5-0.3-0.5-0.5-0.3-3.6-1.1-0.6 0-0.6 0.3-0.5 0.7-0.1 0.6 0.2 0.5 1.4 0.9 0.2 0.4-0.1 0.4-0.3 0.4-0.4 0.3-2.2 0.7-8.5 1.4-1.4-0.2-2.8 0.6-1.3-0.1-5.6-2.5-1.3-0.3-1.3 0.1-0.7 0.3-0.7 0.6-0.8 1.6-0.6 1.9-0.5 0.6-2.6 0.8-1.7 0.2-0.5 0.3-0.5 0.5-0.9 2.6-0.3 0.5-1.2 1.4-3.7 2.7-3 1-0.6-0.1-0.7-0.2-0.5-0.6-0.5-0.8-0.3-0.7-0.1-0.7 0.3-3.5 0.1-0.6 0.2-0.6 0.2-0.5 0.4-0.4 2.8-2.4 0.4-0.5 0.4-0.6 0.4-1.1 0-0.7-0.1-0.5-2-3.1-0.6-0.7-0.5-0.3-0.9-0.9 0-0.4 0.1-0.2 0.7-0.6 0.3-0.6 0.4-0.7 0.3-1.2 0.3-0.6 0.4-0.4 0.5-0.2 0.7-1.7 0.6-3 1.2-13.7 0.3-0.6 0.5-1 0.4-0.5 0.7-0.8 0.3-0.5 0.4-0.7 0.4-1 0-0.7-0.1-0.6-1.4-1.8-0.3-0.6 0-0.6 0.2-0.5 1.4-1.6 3.2-3 0.4-0.6 0-0.9-0.6-3.5-0.6-1-0.6-0.6-1.2-0.3-0.5 0-0.4 0.4 0 0.5 0 1.9 0 0.7-0.2 0.6-0.2 0.6-0.3 0.4-0.5 0.3-0.5 0.3-0.6 0-2.6-0.5-2.3-1-1.3-0.2-0.6 0.1-1 0.4-0.9 0.5-2.5 2-0.5 0.2-0.5-0.1-2-1-1.1-0.3-3.2 0-0.5-0.2-0.1-0.5 0-0.6 0.1-1.4-0.1-1.2-0.1-1.4-0.5-2.8-0.7-1-0.6-0.5-0.6 0-0.6 0.2-1.9 0.9-2.2 0.7-0.6 0-0.6-0.1-0.6-0.5-0.1-0.5 0-0.5 0.3-0.5 0.8-0.7 0.2-0.5-0.3-0.1-0.4 0-2.1 0.8-1.9 1-0.4 0.4-0.3 0.4-1.4 2.6-0.4 0.4-0.4 0.4-0.4 0.2-1.7 0.5-2.6 0-12.4-2.3-0.5 0.1-0.4 0.3-0.3 0.4-0.4 1.9-0.3 1.1 0.1 0.6 0.2 0.4 1.6 2.1 0.2 0.5-0.1 0.5-0.2 0.5-0.8 1.6-0.3 0.4-0.5 0.3-1.1 0.4-1.3 0.2-0.9-0.2-0.3-0.5-0.1-0.6 0-0.8-0.1-0.7-0.2-0.8-0.6-0.3-0.6-0.2-4.2-0.5-0.6 0-0.5 0.2-1.1 1.2-0.4 0.4-0.4 0.3-0.5 0.1-0.6-0.1-5.7-2-0.7-0.6-0.4-0.6-0.5-1.7 0-0.6-0.1-0.6 0.1-0.7 0.2-0.6 1.4-2.6 0-0.8-0.2-1-1.2-1.9-0.7-0.6-0.6-0.1-0.4 0.3-2 2.6-0.4 0.4-0.5 0.3-0.6 0.1-0.4-0.3-0.2-0.5-0.3-1.2-0.2-0.6-0.2-0.7-0.5-0.8-0.5-0.1-0.5 0-7.6 2.3-0.4 0.3-0.4 0.5-0.2 0.5-1 3.1-0.2 0.6-0.5 1.1-0.1 0.7-3 8.3-0.4 0.6-0.9 0.3-1.7-0.1-3.6-1.9-0.7-0.7-0.4-1-0.2-0.6-0.2-0.7-0.6-0.8-1.1-1.2-3.2-1.9-0.7-0.8-0.7-0.8-0.7-1.5-0.2-0.5-0.3-0.8-0.6-0.9-1.3-1.4-0.6-0.6-0.7-0.3-2.7-0.2-4.6 0.9-2.1 0.8-2.2 1.6-0.3 0.4-0.7 0.2-0.8 0.2-4.4-1.2-0.6-0.1-10.4 3.2-1.5 0.1-0.4-0.3-0.2-0.6-0.1-0.6 0-1.4 0-0.7-0.3-0.8-0.5-0.4-1.2-0.5-0.6-0.1-0.6 0-0.4 0.3-1.7 2.2-0.4 0.4-1.1 0.1-1.6-0.1-5.4-1.6-0.7-0.6-0.2-0.8-0.7-1-2.3-2-0.8-0.9-0.4-0.9 0-0.7-0.4-0.9-1.4-1.6-0.5-0.9-0.2-0.8 0.5-1 0.5-1.2 0.3-1.3 0.1-0.7 0-0.6-0.5-0.9-1-0.9-4.9-3.2-9.2-1.6-0.7-0.4-0.3-0.7 0.1-0.7 0.5-1.9 0.1-0.7 0-0.6-0.1-0.5-0.4-0.5-7.4-6.3-0.2-0.3-0.6-1.1-0.9-1.2-0.9-0.9-0.7-0.4-0.7-0.1-5.2 0.5-1.9-0.1-0.5-0.4-0.3-0.5-0.1-0.6 0-1.3-0.1-0.7-0.1-0.5-0.2-0.6-0.5-1-1.7-2.8-0.8-0.8-2.5-2.1-0.3-0.4 0-0.5 0.2-0.5 2.5-3.7 0.2-0.5 0.1-0.6-0.3-0.7-0.6-0.8-1.3-1.3-0.8-0.4-0.8-0.1-5.2 1.2-6.8-1.9-0.9-0.1-3 2.4-0.2 0.4-0.1 0.6 0.2 0.5 0.4 1.7 0.1 0.6 0.1 0.6-0.1 0.6-0.3 0.5-0.4 0.2-1.1 0.4-7.3 0.4-3.7-0.3-0.7-0.4-0.5-0.4-0.6-1-1.2-1.8-0.8-0.4-0.7-0.2-9.7 1.7-1 0.4-2.9 2.4-1.2 0.6-1.1 0.2-0.6-0.2-0.4-0.4-0.6-1.2-0.5-0.7-1.1-1.1-0.8-0.5-0.8-0.3-2.9-0.2-2.1 0.1-0.9 0.3-0.2 0.1-0.4 0.9-0.6 0.7-0.8 0.6-1 0.4-1.4 0.1-0.9-0.4-0.8-0.5-0.8-0.8-0.9-0.3-5.2 0.3-2.8-0.4-1.9-0.7-3.6-2-1-0.3-0.6 0.2-0.6 0.3-0.5 0.6-0.3 0.8 0 0.8 0.1 0.7 0.2 0.6 0.1 0.5-0.1 0.5-0.3 0.4-0.3 0.4-1 0.7-1.5-1-1 0.2-0.9 0.4-2 2.2-0.6 0.4-0.7 0.2-0.8-0.2-0.7-0.7-0.8-1.9-0.5-3-0.1-0.9-0.7-0.9-0.6-0.4-5.8-2.2-0.2-0.4 1.6-2.6 3.5-7.7 0.5-1.4 0.2-2-0.1-4.1 0.2-1.9 3-4.7 4.3-0.8 10.5 2.8 0.9-0.1 0.9-0.3 0.6-0.6 0.5-1 0.8-0.8 1.4-0.2 10 4.6 2.1-0.4 1.5-2.4 1.1-4.9 0.6-4.6 0.7-1.8 1.5-2.1 2.7-2.7 1.5-0.9 3.7-0.9 2.4-0.7 2.3-1.8 1-2.6-0.8-2.9-2.2-1.6-15.8-2.8-5.7 1.5-1.7-0.1-5.6-2.1-1.5-1-0.5-1.8 1-3.1 2.2-4.2 0.7-1.6 1.3-6.3 0.8-1.8 3.3-3.4 0.4-2-1.8-3.5 0.4-4.1 1.8-3 2.4-2.7 1.8-3 0.9-3.7 0.3-4.4-0.4-4.5-0.9-4 1-1.7 1-1.9 2.4-1.3 0.1 0.1 2.4 0.2 5.1 2.1 2.1-0.2 0.1 0 7.6-3.9 1.8-2.3 5.5-10 5.5-6.8 2.1-1.3 0.1-0.1 0.2 0 11.3-1.4 0.8-0.2 3.9 0.7 2.1 1.1 5.9 5.1 2.6 1.5 0.8-0.4 1.1-0.4 4.4-4.4 2-2.3 2.4 2.8 2.9 1.8 3.2 0.9 11.9 1.1 2.7-0.3 0.8-2.6 0.9-3.7 0.6-8 0.8-2.2 0.1-0.4 1.8-4.9 0.7-0.5 8.7-5.8 1.5-2.7 0.4-0.6 1.2-2.3 0.4-4 2.8-2.9 0.2-0.2 1.2-0.9 5.3-4.1 1.2-2.3 0.8-2.1 0.9-1.8 1.5-1.6 1.2-0.6 2.9-0.6 1.1-0.3 2.7-1.3 1.3-0.7 2.6-1.8 0.9-0.7 0.8-0.5 3.7-1.5 0.3-0.1 3.6 2.5 2 2.9 6.6 7.3 2.9 4.1 1.9 2 2 0.7 2.2-1.3 3.1-4.9 2.3-1.6 14-1.6 5.5 0.9 1.5 0.7 0.9 0.9 1.6 2.9 3.3 4.8 0.8 1.8 0.9 4 0.5 4 1.1 3.5 2.4 2.2 7.3 2.1 2.1-0.6 0.2-3.9 2.6-2.7 5.9-2.6 5.6-3.7 4.7-1.8 5.6 0.2 5.4 1.9 4.5 3.4 2.9 2.4 14.6 4.1 1.8 1 1.6 1.7 1.8 2.3 0.9 1.6 0.3 1.4-0.4 1-0.6 0.2-0.8-0.1-0.8 0.4-0.9 0.7-0.8 0.3-0.7 0.6-0.7 1.4-0.4 1.5-0.4 4.2-0.4 1.7-2.3 5.7-0.4 2.7 0.7 3.5 1.2 2.5 4.7 4 4.6 6.8 1.9 1.1 2.6-0.8 7.3-8.8 9.4-5.5 2.6-0.6 6.5 1.7 2.5-1.3 3.7-6.9 2.4-3.1 3.6-2.1 3.8-0.9 3.9 0.3 11.2 4.2 2.5-0.9 4.2-4.1 2.2-1.1 1.7 0.4 3.2 3 1.8 1.2 18.9 6.3 0.8 1 0 1.4-0.5 1.4-0.3 1.4 1.1 1.5 8.5 4.1 1 0.8 0.7 1.1 0.4 2.1-0.3 1.6-0.5 1.3 0 1.6 1.2 2.4 1.9 1.3 2.2 0.5 3.9-0.3 1.3 0.7 0.9 1.6 0.9 2.7 2.8 5.4 2.7 0.5 3.2-1.8 4.1-1.5 3.7 1.8 2 3.8 0.5 1 0.7 6.3-1.9 5.9 1.4 1 0.5 0.2-0.6 2.1-2.5 1.9-0.6 2.8 0.8 3.1 1.5 2.1 1.3 2.2 0 3.3-1.2 2-5.8 4.1-3.2 4.7-1.4 3.2-0.3 3.1 1 2.1 1.6 1.4 3.4 1.9 1.2 2 1.6 6.1 1.4 2.1 4.4 3.5 1.2 1.4 0.1 0.7-0.4 1.5 0.2 0.8 0.3 0.3 1 0.3 0.2 0.3 0.5 0.8 0.4 0.6 0.1 0.8-0.4 1.8-0.8 1.1-0.2 1.2 0.3 1.2 0.7 1.3 1.3 3.2 1.1 4.1 0 3.2-2.4 0.8-4.5-1.2-1.9 0.2-0.7 2 1 2.7 1.4 1.8 0.4 2-1.7 3.2-1.7 1.2-5.8 1.2-2.3 1.9 0.3 1.7 0.9 2.5-0.1 4.1-1.5 2.7-2.2 2.3-1.8 2.9-0.6 4.6 0.8 2.7 1.5 1.1 3.9 1.3 14.6 10.8 1.4 2.6 0.3 3.1 2.1-0.4 8 0.9 2.3 4.5 3.7 3.1-2.7 6.4-4.8 7.7-2.3 7.2 2.7 2.1 7.1 2 1.1 2.2z" id="BYVI" name="Vitebsk">
  </path>
  <path d="M351 500.3l-7.4 2-2.5 0.2-0.5-0.2-2-1-2.4-0.7-8.1-0.5-5.1-1.2-2.1 0.1-2 0.6-13.4-1.2-0.6-0.2-0.4-0.3-0.4-0.3-0.3-0.5-0.3-0.3-0.4-0.4-0.8-0.1-1 0.1-1.5 0.4-0.9 0-0.7-0.1-1.2-1-0.5-0.3-0.6-0.1-0.9 0-3 0.7-0.9 0-0.8-0.1-0.6-0.2-1.2-0.2-0.7 0.3-0.7 0.5-1.2 1.3-0.5 0.9-0.4 0.7-0.2 0.5-0.4 1.1-2.8 4.7-0.3 1-0.1 0.4-0.2 1.1-0.5 4.7-0.1 0.7-0.3 0.5-0.4 0.4-0.7 0.3-2.8 0.3-0.7 0.3-0.5 0.9-0.3 0.8-0.6 2.6 0.1 0.6 0.2 0.4 0.3 0.4 1.9 1.2 0.3 0.3 0.3 0.5 0.1 0.5 0 0.6-0.1 0.7-0.5 0.6-0.8 0.7-1.5 1.2-2.1 1.8-0.3 0.5-0.3 0.6 0 0.6 0.2 0.5 0.4 0.3 1.9 0.4 0.5 0.3 0.4 0.3 1 1.2 0.3 0.4 0.4 1 0.2 0.5 0.1 0.6 0.1 0.6-0.1 0.6-0.1 0.7-0.8 2.2-3 5.9-2.3 6.8-0.3 0.5-0.7 0.8-4.9 3-0.4 0.3-0.6 0.6-1 1.5-1 1.9-0.6 0.9-1.1 1.1-0.3 0.5-0.2 0.5-0.1 0.6 0 0.6-0.4 0.7-0.7 0.9-2.5 1-1.5 0.4-1.9-0.2-0.8-0.3-0.8-0.2-0.8 0.1-1.3 1-0.5 0.8-0.2 0.7 0 0.7 0.1 0.5 0.2 0.5 0.3 0.4 1.5 1.4 0.2 0.5 0.1 0.4-0.3 0.4-0.8 0.7-0.3 0.3-0.2 0.5 0 0.5 0.1 0.6 0.1 0.5 0.3 0.5 0.3 0.3 1.6 0.7 0.3 0.4 0.1 0.6 0 0.6-0.1 0.6-0.3 0.4-0.3 0.3-0.4 0.3-0.6 0.3-0.8 0.1-1.5-0.4-1.5-0.7-0.8-0.6-0.3-0.4-0.3-0.4-0.2-1.2-0.2-0.5-0.7-0.1-1.2 0.2-2.1 0.8-1.6 1.2-0.3 0.4-0.4 0.3-0.7 0-0.9 0-1.4-0.4-1.1-0.1-1.1 0.1-3.8 1.6-0.5 0.3-0.4 0.4-0.5 0.3-0.7 0.1-1.2-0.4-0.7-0.4-0.3-0.5 0.1-0.6 0.1-0.6 0.1-0.6 0.1-0.6-0.1-0.6-0.6-0.8 0-0.5 0-0.6 0.2-0.6 1.3-4.7 0.1-0.5-0.2-0.4-0.4-0.2-0.5-0.1-0.6 0.1-0.6 0.6-0.4 0.5-0.8 1.7-0.2 0.4-0.5 0.4-0.6 0.2-1.1-0.2-4-1.6-0.3-0.3-0.2-0.4 0-0.5 0.3-1.1 0.1-0.6 0-0.6 0-0.6-0.1-0.6-0.3-1-0.4-1.1-0.5-0.9-0.3-0.4-0.6-0.8-0.9-0.7-1-0.4-2.4-0.6-0.8 0.1-0.7 0.3-0.8 0.9-0.4 0.7-0.7 1.8-0.2 0.5-0.3 0.5-0.7 0.3-1 0.3-3.1 0-5.1-1.2-5.9-3-0.9 0.1-1.3 0.4-4.7 2.7-0.3 0.3-0.3 0.5-0.1 0.4 0.1 0.5 0.4 0.3 0.5 0.3 2.6 0.4 0.5 0.2 0.3 0.3 0.1 0.6 0 0.6-0.1 0.6-0.7 0.6-1 0.7-2.2 1.2-0.9 0.8-0.7 0.6-0.2 0.4-2 2.4-0.2 0.3 0 0.5 0.3 0.4 1 1.1 0.2 0.5 0.2 0.5 0.1 0.6-0.1 0.6-0.3 0.4-2 1.6-0.3 0.4-0.3 0.4-0.8 2.3-0.7 1.4 0 0.5 0.1 0.4 0.8 1.4 0.4 1 0.3 1.1 0 1.3 0 0.6-0.1 0.4-0.1 0.4-0.3 0.4-0.4 0.3-0.7 0.4-2.1 0.6-2.3 0.1-2.5-0.4-2.1-1-0.5-0.4-0.8-0.8-4.2-3.1-0.5-0.2-0.7-0.2-0.9 0.1-2.4 0.7-0.6 0.4-0.4 0.3-0.4 0.3-0.5 0.1-0.5 0-0.4-0.5-0.2-0.6-0.1-0.6-0.1-0.4-0.2-0.3-0.5-0.1-0.8 0.1-3.9 1.4-1 0-4-0.6-1.2-0.5-0.8-0.5-0.5-0.9-0.4-0.9-0.3-0.5-0.4-0.3-0.6-0.1-0.9 0.1-2.2 1.4-2.8 2.5-1 0.5-1 0.4-12.6-1.1-1.7 0.4-0.8-19.1-0.3-1.2-0.4-0.8-0.3-1-0.1-1.7 0.3-1.2 1.1-2.1 0.2-1 0-1.3-0.8-4.4 0-1 0.2-1.9-0.1-1.2-1.1-2.4-2.9-3.7-0.8-2.7 0.1-3 0.9-2.2 1.2-1.9 0.8-2.3 0.2-3.9-1-1.9-1.6-1.2-1.7-1.9-1.1-2.5-0.8-2.3-0.9-2.2-1.7-2.3-1.7-4.6-3.8-15-1.9-5.1-4.5-9.3-8.1-24.9-2.2-11.2-0.3-9.9-2.3-3.4-1-3.3-0.9-8.6-0.9-4.1-1.3-3.7-1-3.9-0.1-4.8 3.3 0.9 8.5 5.2 1.7 0.6 1.4-0.1 4.7-2.1 6-0.8 1.6-1.2 1.5-0.6 0.7 0.1 1.7 1 0.8 0.3 0.7-0.2 7.3-4.2 1.4-0.2 1.5 0.6 2.8 1.8 1.6 0.4 6.1-0.1 2.8-0.8 5.9-3.2 3.1-0.5 3 1 2.7 3.3 1.6 4.6 1 1.6 1.8 0.3 3.3-0.1 3 0.9 3.4 0 3.4-1.7 11-9.8 4.8-2.8 6-1.2 2.3-1.8 0.4-0.1 0.3 0.1 0.4 0.3 1.2 3.1 1.4 1.4 1.7 0.1 6.2-1 1.7-0.9 1.2-2.7 0-0.1 0.2-4.4-0.8-3.1-1.3-2.8-1.2-3.5-0.4-2.4 0.2-0.6 0.6 0 0.8-1.1 1.8-1.1 0-0.7-0.1-1 0-1.3 0.4-1 2.8-1.7 0.5-0.3 4.4-0.5 4.4 0.7 7.5 2.9 4.3-0.7 4.1-2.7 3.9-4.4 1.6-3.4 1.9-7.6 1.2-2.2 1.7-0.3 6.1 2.2 7.8-0.4 2.3-1.5 3.8-5.7 2.4-1.1 1.2 0.2 0.6 0.7 0.5 0.9 6.7 9.2-0.8 0.6-2.2-0.2-2 1.1-0.2 1.6 2.3 1.3 0.5 1.4-0.7 1.2-2.7 0.9-0.7 1.2 0.7 2.9 2.2 2 2.6 1.3 8.4 1.4 2.1-0.1 1-0.5 1.5-2.1 1-0.5 3.6 0.5 1.1-0.2 2.2-1.7 0.8-2.5 0.1-7.4 0.2-0.8 1.2-1.5 0.2-0.7-0.2-1-0.5-0.4-0.5-0.2-0.4-0.5-0.6-1.8-0.8-1.5-0.8-1.2-1-1-0.4-0.1-1.1 0.4-0.4-0.1-0.3-0.6-1-2.9-0.3-1.6-0.6-1.3-1.3-0.8-1.4 0.4-5.7 3-4.1 0.3-2.1-0.8-1.3-2.1 0.1-4.1 1.8-3.6 4.4-5.3 1.7-3.5 0.3-3.2 0-3.4 0.4-4.3 1-3.3 1.5-2 5.8-3.4 1.8-1.9 1.4-2.5 0.4-3.3-0.5-3.2-2.4-5.8-0.6-3.3 0.1-2.1 0.4-1.6 0.5-1.5 0.4-1.7 0.2-1.7-0.4-8.5 0.3-2.2 1-1.4 2.1-1.9 0.9-0.5 0.7 0 0.5-0.3 0.4-1.4-0.1-1.4-0.8-3.3-0.1-1.5 1-3.1 1.9-1.9 2.2-1.8 2-2.3 0.6-1.7 0.1-1.5 0.4-1.2 1.1-1 3.6-1.5 1.7 0 3.5 0.8 1.8 0.1 11.5-2.4 3.4-2 1.5-1.6 1.6-2.4 0.2 0.4 5.8 2.2 0.6 0.4 0.7 0.9 0.1 0.9 0.5 3 0.8 1.9 0.7 0.7 0.8 0.2 0.7-0.2 0.6-0.4 2-2.2 0.9-0.4 1-0.2 1.5 1-0.8 0.9-1.7 0.9-0.4 0.4-0.2 0.5 0.1 0.6 1.3 2.2 0.6 1.8 0.2 1.4-0.2 3.4 0.1 1.2 0.6 1.3 0.6 1 0.9 1 1 0.9 1.2 0.8 1.1 0.5 1 0.3 1.4 0.1 0.5 0.3 2.1 2.6 5.1 7.9 0.5 0.5 0.7 0.4 1.9 0.8 0.6 0.3 0.2 0.4 0.3 1 0 1.1-0.5 2.4-0.1 1.1 0.3 1.3 0.3 0.8 1.2 2.5 0.9 2.3 0.4 0.9 0.5 0.7 0.4 0.8 0.3 0.9 0.2 1.4 0.4 0.7 0.5 0.4 1.8 0.6 1.6 1.1 0.7 0.1 0.7-0.2 2.4-1.2 0.4 0 0.2 0.6-0.1 1.3-0.3 2.8 0.2 1.7 0.4 1.1 0.3 0.8 0 0.7-0.6 0.9-0.6 0.2-0.6 0-0.5-0.2-0.5 0-0.4 0.4-0.2 0.9-0.1 4.4-0.2 0.9-0.5 0.4-0.6 0-0.8-0.4-2.9-2-0.4-0.1-0.2 0.1-0.2 0.3 0 0.4 0.5 1.3 0 0.5 0.1 1.7 0.3 0.9 0.4 0.8 0.9 1.6 0.3 1.1 0.3 1.6-0.2 2.5-0.2 1.7-0.6 1.1-0.5 0.5-1.7 1.3-0.4 0.5-0.2 0.5-1.1 3.8-5.9 15.7-1.9 3.9-1.1 1.9-3.8 3.9-0.9 1.4-0.4 0.3-0.4 0.4-0.5 0.2-10.5 2-4.6-0.9-1.3 0-1.6 0.6-5.5 4.9-0.5 0.2-0.6 0.2-0.6 0-2.7-0.2-0.5 0.1-0.3 0.4-0.3 0.4-1.5 4.7-0.9 4 0 0.6 0.1 0.6 0.5 0.5 0.6 0.3 2.7 1.3 0.5 0.1 0.3-0.2 0.3-0.5 0.5-1.9 0.2-0.5 0.3-0.4 0.4-0.1 0.5 0.1 2 1 0.5 0.3 0.3 0.5 0 1.1-0.5 2.2-0.3 5.6 0 1.3 0.2 1 0.4 1.1 1.1 2.1 0.8 0.7 0.7 0.3 6-0.9 0.5-0.2 0.4-0.3 0.2-0.6 0.1-0.7-0.1-0.9 0.5-0.5 0.5-0.1 4.3 0.6 0.6 0.2 0.4 1.1 1 5.2 0.7 1.3 0.6 0.6 5.7 0.2 0.4 0.9 0.2 1.4-0.5 3.7-0.4 1.5-0.6 0.9-3.4 0.8-0.4 0.3-0.4 0.3-0.3 0.5-0.5 1-1 2.9-0.5 1.1-0.6 0.9-0.3 0.4-0.8 0.7-0.9 0.6-1 0.5-6.5 2-1.8 1.1-0.4 0.3-0.3 0.5-0.2 0.8-0.1 1.1 0 3 0.1 1 0.6 0.7 1.1 0.8 6.6 2.7 0.4 0.4 0.2 0.4-0.2 0.9-0.2 0.6-0.3 0.6-0.3 0.4-0.4 0.4-0.5 0.2-2 0-0.6 0.1-0.4 0.6-0.2 1.2 0 2.4-0.3 2.2 0.1 0.7 0.4 0.9 0.4 0.6 0.8 0.8 1.2 1 1 0.5 3.3 0.5 0.5 0.2 0.4 0.3 0.2 0.7 0.1 0.9-0.1 1.7 0 1.2 0.1 1.1 0.5 1.2 0.5 0.6 0.5 0.4 6.1 1.8 3.9 2.2 0.4 0.4 0.3 0.4 0.5 0.9 0.2 0.7 0.1 0.7 0.3 2.8 0.2 0.6 0.4 0.9 1.4 2.3 0.5 0.9 0.7 1.9-0.1 1-0.4 1.4-1.3 2.8-0.3 1.8 0.1 0.9 0.4 0.3 0.4 0.1 0.4-0.1 2.2-0.4 0.6 0 0.4 0.2 0.3 0.3 0.2 0.1 0.1 0.2 0.1 0.4 0.1 0.6 0 1 0 0.8-0.6 5 0 1.3 0.2 1.2 0.3 1.1 0.4 1.1 0.4 1 0.6 0.8 0.6 0.8-0.8 0.6-17.4 5.8z" id="BYHR" name="Grodno">
  </path>
  <path d="M825.3 539.2l-6.2 1.6-2.4 0.2-0.4-0.3-0.6-1-0.4-0.5-0.8-0.6-0.6-0.1-0.6 0.1-0.4 0.3-0.4 0.4-0.3 0.4-0.5 1.2-0.4 0.6-0.4 0-0.4-0.2-1.1-1.2-0.6-0.8-0.8-1.4-0.5-0.5-0.8-0.6-0.7-0.2-0.6 0-4.1 1.1-0.7-0.1-0.6-0.3-0.4-0.4-0.3-0.4-0.1-0.5 0.1-0.4 0.3-0.5 1.1-1 0.3-0.5 0.2-0.5 0.1-0.5 0-0.5-0.2-0.6-0.1-0.5-0.2-0.5-0.1-0.5 0-0.6 0-0.7 0.2-0.5 0.2-0.6-0.1-0.7-0.4-0.7-1.6-1.3-0.8-0.7-0.5-0.8-0.1-0.6-0.5-0.7-0.8-0.4-1.4-0.3-0.7-0.3-0.4-0.4-0.2-0.5-0.1-0.5-0.1-0.6 0-0.6 0-0.5-0.1-0.7-0.2-0.8-1.3-1.8-0.4-0.6-0.1-0.5-0.3-2-0.1-0.5-0.2-0.7-0.3-0.2-0.4-0.2-7.9-0.8-0.7 0-0.5 0.2-0.4 0.2-0.4 0.3-0.3 0.5-0.3 0.5-0.2 0.6-0.1 0.6-0.2 1.1-0.2 0.5-0.9 0.1-7-1.2-1.3 0.3-1.2 0-1-0.4-1.5-1-0.9-0.4-0.7 0-0.4 0.3-0.4 0.4-0.3 0.5-0.4 1.2-0.3 0.4-0.4 0.3-0.5 0.2-2.3 0-2.7-0.5-1.2-0.4-0.7-0.5-0.7-1.3-1.5-1.2-10.3-2.7-0.7 0-0.9 0.4-0.9 0.6-0.7 0.2-0.9 0.1-2.5-0.3-0.7 0.1-0.3 0.3-0.3 0.4-0.2 0.6-0.2 0.6-0.4 0.4-0.4 0.3-1.3 0.2-0.6 0.3 0.1 2 0.2 1.3 0.3 1.4-1.7 0-4.9 2.1-3.5 0.1-1.5 0.5-0.8 1.5-1 0-4.5 0.1-1-0.3-0.6-0.4-0.4-1-1.4-4.7-0.5-1.1-0.3-0.6-1-0.7-1.1-0.3-3.1-0.2-0.8-0.3-0.2-0.4-0.1-0.6-0.1-1.2-0.6-0.6-1.1-0.6-3.7-1.4-0.8-0.5-0.8-1.1-0.9-0.9-0.7-0.3-0.6 0-1 0.4-0.4 0.4-1.1 1.1-0.3 0.4-0.7 0.5-1.1 0.3-2.2 0-0.8-0.3-0.4-0.4 0.1-0.6-0.3-0.7-0.8-0.8-0.6-0.2-0.6 0.1-0.9 0.7-0.6 0.3-0.5 0-0.4-0.3-0.8-1-0.7-0.6-1.5-0.9-0.9-0.1-0.7 0-0.5 0.2-0.4 0.3-0.3 0.4-1.2 1.9-1.5 1.5-0.3 0.4-0.2 0.6-0.2 0.6-0.2 2.1 0 0.6 0.1 1.3 0.2 1.1 0.1 0.5 0.7 2.1 0.5 2.1 0.4 1.1 1.6 3.8 0.3 1.1 0.1 0.6-0.1 0.6-0.7 0.4-1 0-2-0.4-0.9 0-0.4 0.3 0.2 0.4 0.3 0.4 1.5 1.5 0.3 0.4 0.1 0.5-0.3 2.6-0.3 0.7-0.5 0.8-1.3 0.8-0.5 0.5-0.2 0.6 0.2 0.4 0.4 0.4 1.5 0.8 0.4 0.3 0.1 0.5-0.2 0.5-0.3 0.5-0.5 0.5-8.2-0.8-0.9 0.1 0 0.4 1.1 1 0.3 0.4-0.1 0.5-0.4 0.6-3 1.4-0.1 0.2-0.2 0.4 0.1 0.5 0.1 0.6 0.6 2.1 0.3 0.5 0.3 0.3 1.1 0.2 0.3 0.3 0.3 0.5 0.1 0.5 0.1 0.6 0 0.6 0 0.6-0.2 0.6-0.3 0.5-1.9 2.6-0.2 0.4 0 0.5 0.3 0.3 2.8 1.7 0.7 0.8 0.7 0.9 0.3 0.3 0.8 0.6 3.9 2.2 0.4 0.4 0.2 0.4-0.1 0.5-0.1 0.3-1.1 2.5-0.4 0.5-0.6 0.6-1 0.6-0.8 0.2-0.8 0-0.5-0.2-0.5-0.3-0.9-0.6-0.3-0.4-0.7-0.3-0.9-0.2-10.1-0.1-2 0.5-0.6 0.2-0.4 0.4-0.7 1.3-0.7 0.6-3.7 2.1-0.6 0-0.5-0.2-0.3-0.4-1.2-2.3-0.5-0.5-0.7-0.3-1.4-0.3-0.8 0-0.5 0.3-0.3 0.4-0.1 0.4 0.1 0.4 0.8 0.7 0.3 0.4 0 0.6-0.2 0.6-0.5 0.6-3.6 1.6-0.6-0.1-0.3-0.3 0-0.6 0.3-1.2 0-0.6-0.1-0.2-0.3-0.3-9.3-2.8-4-0.4-1.2 0.1-0.9 0.3-0.4 0.3-0.7 0.8-2.2 3.8-1.3 1.7-0.5 0.5-1.8 0.9-0.6 0.4-0.4 0.6-0.1 0.7-0.2 0.7-0.6 0.9-0.6 0.3-9.5 0.3-0.9 0.2-0.4 0.5-0.1 0.6 0.2 6.4-0.1 2-0.1 0.6-0.3 0.6-0.5 1-13.4 4.3-1.7 0.9-0.5 0.4-0.3 0.3 0 0.4 0 0.3 0.1 0.2 0.2 0.3 0.3 0.4 0.4 0.3 2.4 0.7 0.5 0.3 0.3 0.4 0.2 0.5 0 0.6-0.1 0.5-0.3 0.7-0.4 0.6-0.7 0.7-0.9 0.2-2.3-0.1-0.8 0.1-0.5 0.4-0.9 1.1-0.9 0.8-0.7 0.3-4.6 0-0.9 0.4-0.7 0.5-0.8 0.6-0.6 0.3-0.6 0-2.7-0.7-1.3-0.1-0.7 0.2-0.6 0.4-0.5 0.6-0.7 0.6-0.7 0.3-0.7 0-4.6-0.7-6 0.6-5.5-5.2-9.3-6-1.4-1.3-0.7-0.9 11.2-11.4 2-3.2 0.3-0.5 0.5-1.1 0.1-0.6 0.5-2.8 0.2-0.6 0.5-1 2.7-3.1 0.4-0.5 0.4-0.7 0.3-1 0.1-0.7-0.2-0.6-0.4-0.4-2.7-1.9-0.4-0.5-0.1-0.5 0.2-0.5 0.9-1.3 0.8-1.5 1.6-4.6 0.3-0.4 0.4-0.3 0.3 0 3.1 0.4 0.5-0.2 0-0.3-0.2-0.4-0.5-0.9-0.2-0.5-0.3-0.6-0.1-0.7-0.2-1.1 0-0.7 0-0.6 1-3.9 0.1-1.1 0-0.7-2-5.2-0.2-0.7-0.2-1.1 0.3-0.7 1.1-1.4 0-0.5-0.3-0.4-0.5-0.2-0.6-0.1-1.7 0.1-1 0.4-1.1 1-1 0.5-3.5 0.4-0.7-0.8-0.8-1.6-1-4.3-0.7-1.7-0.7-1-3.4-0.4-0.5 0.1-0.4 0.3-0.3 0.5-0.2 0.5-0.6 1.8-0.2 0.5-0.3 0.3-0.4-0.1-2.9-1.6-1.1-0.5-3.5-0.4-0.6-0.3-0.7-0.4-1.9-3.2-0.6-0.7-0.6-0.4-2.1-0.9-3.9-1-0.8-0.5-0.4-0.9-0.6-2.5-0.3-0.7-1.5-2.9 0-0.7 0.3-0.5 2.8-1.4 1.1-0.3 1.8-0.2 0.6 0.1 1.5 0.8 0.8 0.6 0.8 0.7 2.4 3.3 0.4 0.2 0.4-0.1 0.5-0.7 0.6-0.2 0.7-0.1 11 0.8 0.6-0.1 0.4-0.3 0.3-0.4 0.3-0.6 0.2-0.5 0.2-0.6 0.4-0.3 0.5-0.2 4.7-0.7 0.5-0.2 0.5-0.5 0.5-0.9 0-0.6-0.2-0.6-0.8-1.4-0.5-1.4-0.5-0.7-0.6-0.5-5.1-2-0.5-0.4-0.5-0.6-0.1-0.6 0.1-0.6 0.1-0.5 0.3-0.5 2.5-2.7 0.3-0.5 0.2-0.6 0.2-0.6 0.2-1 0.2-4.8-0.3-3.6 0-2.5 1-1.9 1.1-1.9 1-1.3 1.5-1.5 0.4-0.3 0.5-0.2 1.1-0.2 1.3 0.1 2 0.4 0.5 0.1 0.5-0.2 0.6-0.8 0.4-0.4 0.4-0.3 3.2-1.1 0.5-0.3 0.5-0.4 0.1-0.5-0.2-0.4-0.6-0.3-1.4-0.3-0.6-0.4 0-0.3 0.4-0.2 3.8-1 0.5-0.2 0.5-0.4 0.4-0.6 0.4-1 0.1-0.8 0-0.6-0.5-1.1-0.2-0.8-0.3-1.3 0.1-0.8 0.2-0.7 0.3-0.5 0.4-0.5 0.6-0.5 0.6-0.1 0.7 0 1 0.5 1.8 1.2 2.2 1 8.5 1.7 0.6-0.1 0.5-0.2 1.3-1 0.5-0.1 0.6-0.1 0.6 0.2 0.5 0.2 0.4 0.4 0.7 0.8 0.5 0.8 0.3 0.3 0.4 0 1.3-1.4 0.4-0.2 0.5 0 0.4 0.2 0.2 0.5 0 0.6-0.1 0.7-0.3 0.7-0.5 0.9-0.2 0.6 0 0.5 1.2 1.7 1.7 3.9 0.3 0.4 0.4 0.4 0.6 0.1 3.4 0.2 0.6-0.1 0.5-0.3 0.1-0.4 0-0.5-0.8-2.7 0-0.7 0-0.7 0.2-1 0-0.7 0-0.8-0.2-0.6-0.1-0.8 0.4-0.3 0.5-0.2 8.6-0.7 0.6-0.3 0.6-0.4 0.9-1 0.3-0.8 0.2-0.7-0.1-0.6-0.1-0.6-0.9-2-0.2-0.7 0-1 0.2-0.7 0.3-0.5 3.7-3.8 0.8-0.6 0.5-0.2 0.5-0.1 0.5 0.1 1.1 0.5 1.8 0.4 0.5 0.2 0.3 0.4 0.3 0.5 0.4 0.3 0.5 0.3 1.2 0.3 0.6 0 1.1-0.2 7.4-4.1 1.6-1.3 0.9-1.2 1.1-1.9 0.7-1 0.4-0.3 0.5-0.3 0.5-0.2 0.6 0 0.5 0.1 0.4 0.3 0.4 0.4 0.5 0.9 0.4 0.4 0.5 0.3 0.5 0.1 0.7-0.4 0.4-0.7 0.2-1.1 0.4-0.6 0.4-0.4 1.2-0.5 0.8-0.7 0.3-0.5-0.1-0.5-0.5-0.3-1.2-0.3-0.6-0.3-0.5-0.3-0.3-0.5 0-0.7 0.2-0.5 0.4-0.4 3-1.3 1.3-0.8 1.2-1.3 1.1-1.4 0.4-0.9 0.2-0.7-0.4-0.3-1.8-0.3-0.4-0.3-0.7-0.8-0.4-0.3-0.5-0.2-0.6 0.1-1.5 0.3-0.6-0.1-0.4-0.3-0.6-0.8-0.4-0.3-0.6-0.2-1.9-0.2-0.5-0.1-0.3-0.3 0.2-0.3 0.3-0.3 2.1-1.1 0.8-0.7 0.4-0.6 0.1-0.7 0-0.6-0.2-0.4-0.4-0.2-0.4 0.1-1.8 1.1-0.5 0.1-0.5-0.1-0.4-0.6 0.1-0.5 0.3-0.4 0.9-0.8 1.2-1.6 0.2-0.6-0.3-0.4-2.1-1.1-0.4-0.5-0.2-0.9 0.3-0.8 0.7-1 0.1-0.6-0.2-0.5-0.2-0.3-0.1-0.4-0.1-0.3 0.2-2.4 0-3.9-0.2-1.2-0.3-1.1-0.7-1.4-0.6-0.9-0.2-0.6-0.2-0.7 0-1.1 0.1-0.5 0.1-0.5 1-1.9 0.3-0.5 0.4-0.3 1.4-0.8 0.8-0.7 0.9-1.4 1.8-1.7 0.8-1.1 0.3-0.7 0.1-0.7 0-0.6-0.1-0.6-0.2-0.5-0.2-0.5-0.3-0.5-0.8-0.8-0.3-0.5-0.1-0.8 0.1-0.5 0.4-0.5 0.5-0.2 0.6-0.2 0.7-0.4 0.2-0.6 0.1-0.6 0.1-6-0.2-2.7 0.2-0.6 0.4-0.3 2-1.3 0.6-0.6 0.1-0.6-0.2-0.4-0.4-0.3-0.2-0.5-0.2-0.5 0-2-0.2-0.5-0.5-0.3-1.9-0.6-0.5-0.3-0.2-0.4-0.2-1.5 3.7-2.7 1.2-1.4 0.3-0.5 0.9-2.6 0.5-0.5 0.5-0.3 1.7-0.2 2.6-0.8 0.5-0.6 0.6-1.9 0.8-1.6 0.7-0.6 0.7-0.3 1.3-0.1 1.3 0.3 5.6 2.5 1.3 0.1 2.8-0.6 1.4 0.2 8.5-1.4 2.2-0.7 0.4-0.3 0.3-0.4 0.1-0.4-0.2-0.4-1.4-0.9-0.2-0.5 0.1-0.6 0.5-0.7 0.6-0.3 0.6 0 3.6 1.1 0.5 0.3 0.3 0.5 0.2 0.5-0.2 1.1 0 0.5 0.3 0.5 1.2 1 0.3 0.4 0.1 0.5-0.2 1 0 0.5 0.7 0.3 1.1 0.3 3.7 0.1 0.8 0.4 0.1 0.5-0.1 1.1 0.5 0.6 1.2 0.3 2.7 0.2 1.3-0.1 0.9-0.4 0.3-0.4 0.2-0.6 0.2-0.6-0.1-0.6-0.1-0.6-0.1-0.5-0.3-0.5-0.2-0.5-0.4-1-0.1-0.6-0.3-2.3 0.1-0.7 0.5-0.6 3.2-2 0.7-0.8 0.5-1 0.2-0.6 0.1-0.5 0.2-0.5 0.3-0.6 0.6-0.9 0.7-0.3 0.7 0 0.5 0.3 0.4 0.3 0.1 0.4-0.2 0.4-0.8 0.6-0.1 0.5 0.2 0.4 3.5 2 1.2 1.3 0.7 0.4 0.6 0 0.5-0.3 0.4-0.4 0.1-0.6 0.2-1.5 0.3-0.8 0.4-0.2 2.3 0.5 1.8 0.1 0.9-0.2 0.8-0.2 4.6-3.2 0.6-0.1 0.4 0.2-0.2 0.5-1 2.2-0.2 0.6-0.5 1.1-0.6 1-2.4 3-0.3 0.4-0.1 0.5 0.1 0.5 0.2 0.4 0.4 0.4 0.4 0.2 5.4 1.2 1.6-0.1 2-0.9 2.6-1.8 0.3-0.4 0.3-0.4 0.3-0.5 0-1.2 0.2-0.7 0.5-0.7 0.5-0.1 0.6 0.1 0.4 0.3 0.4 0.4 0.5 0.9 1.5 3.3 0.2 0.3 1.3 1.4 1.6 1.4 1.5 0.8 1.4 0.3 0.8 0 0.7-0.1 2.9-1.4 0.5-0.3 0.8-0.7 0.7-0.8 0.3-0.5 0.2-0.6 0.6-2 0.2-0.5 0.3-0.5 0.3-0.5 1.3-1 0.3-0.4 0.2-0.5 0-0.5-0.3-0.4-1.9-1.9-0.4-0.4-0.1-0.5 0-0.6 0.2-0.6 0.6-0.5 1-0.5 4.1-1.3 0.5-0.4 0.3-0.5 0.2-1.2 0.4-0.7 0.6-0.5 1.7-1 1-0.3 0.9-0.1 0.6 0.1 3.8 1.9 4.7 0.9 6.4 0.2 2-0.2 0.5-0.3 0.4-0.3 0.3-0.4 0-0.5-0.1-0.5-0.1-0.5 0-0.7 0.3-0.6 1-0.9 1-0.3 0.8-0.1 0.6 0.2 2.5 1.6 3.3 1 1.9 1.2 0.9 0.7 0.6 0.3 1 0.2 0.5-0.2 0.2-0.4 0-0.6 0-0.6-0.2-0.5-0.3-1-0.1-0.5 0-0.6 0.5-0.4 0.8-0.4 2.5-0.7 0.7-0.3 2.1-1.8 0.7-0.3 0.9 0 2.1 0.4 1.5-0.1 0.6-0.2 0 0.1 2.8 0.8 1.6 3.3 2.2 8.3 1.2 2.1 1.2 1.2 1 1.5 0.7 2.7 0.7 9.5 1 4.6 1.4 2.5 14.9 11.8 2.4 2.1 2.3 1 5 1.3 8 4.5 2.9 0.6 2.7 0.1 1 0.6 1.1 1.2 0.7 1.9 0.7 2.3 0.8 2 1.2 0.4 2.4-1.6 0.5-0.2 0.8 0.6 0.1 0.5 0 0.8 2.2 8.6-0.5 1.2-0.2 1.2 0 1.2-0.1 1.2-1.1 3.6-1.6 9.3-1.7 4.1-3.6 6.1-0.9 3.9 4 0.1 8.2 2.8 20-5.2 2.2 0.4 5.6 4.1 11.9 3.3 3.4 2.5 3 4.1 1.4 0.9 4.7-0.2 1.9 0.3 1.9 1.1 1.8 2.4 0.7 1.2 0.2 1.2-0.2 1.2-0.7 1.2-7.1 3.6-0.6 0.7-0.1 1.3 0.2 2.8 1 4.4 1.7 3.3 2.3 2.5 2.6 1.7 4.8 2.3 2.2 1.7 1.5 2.9 0.7 1 0.7 0.3 0.8-0.4 0.7-0.9 1.7-0.3 1.7 0.3 1.4 0.8-0.3 1.3-0.6 1.6 0.5 1.8 1.1 0.4 2.9-1.1 1.2 0 1.7 3.7-0.1 1.3-1.3 10.3 1.2 5-1.8 1.5-1.5-0.2-1.5-0.7-1.6-0.4-6.6 1.5 0.3 0.5 0.8 1.5 0.4 0.6-2.6 1.5-3 0.6-3-0.4-2.4-1.2-2.4 0.7-0.8 1.9 0.9 1.7 2.2 0.5-1 3.1-1.3 3-3 5.1-1.7 1.9-1.6 0.8-3.4 1.1-3.1 2.8-2.4 3.5-2.6 2.5-5-0.1-0.5 0.6-0.1 0.9-0.3 0.6 0 0.4 0.1 0.8-0.1 0.7-0.5 0.5-0.3-0.1-0.9-0.2-3.4 0.4-2.5 2-0.9 0.5-3.2-0.2-7-2.8-2.8 0.3-2.4 1.3-2.3 0.2-2.3-0.5-4.9-3-1.2-0.3-3.4 0.4-1-0.4-1.5-2.4-1-6.6-1.3-2.8-1.7-0.9-4.2-0.1-1.9-0.3-5.7-2.3-2-0.2-1.9 0.6-3.6 1.9-2.3 0.1-4.5-0.9-4.6 0-3.6 2.9-1.7 7.6 0.1 2 0 0.2z" id="BYMA" name="Mogilev">
  </path>
  <path d="M550.1 608.6l-0.4 0.2-1.4 1.9 0.1 0.3 0.1 0.6 0.3 0.4-0.3 0.6-0.9 0.7-2.1 1.2-0.9 0.8-0.5 0.8-0.1 0.7-0.2 2-0.2 5.3 0.2 3 0.6 4.7 0.1 1.2-0.1 0.6-0.2 0.5-0.2 0.4-6.1 5.3-19.7 2.3-1.1-0.2-0.7-0.3-0.8-1.4-0.9-1.8-0.5-1.6-0.1-0.1-0.3-0.3-0.3-0.3-1.1-0.5-8.1-1.8-0.7 0.2-0.8 0.4-1.1 1-0.4 0.6-0.2 0.6 0.1 0.3 0.9 1.7 0.1 0.5 0.2 0.5 0.2 2.4 0 0.6-0.1 0.6-0.2 0.4-0.4 0.4-1.2 0.6-0.5 0.4-0.3 0.5-1.2 0.5-10.6 1-3.1-0.7-7.5 0.2-0.7-0.1-0.5-0.1-4.9-2.7-3.1-2.5-0.3-0.3-0.3-0.5-0.2-0.4-0.1-0.6 0-0.6 0-1.7 0.2-3.7 0-0.6-0.1-0.6-0.3-0.4-0.5-0.2-0.7 0.2-0.7 0.5-0.7 1.4-0.6 1.7-0.2 0.3-0.4-0.3-0.2-0.3-0.5-1-0.2-0.5-1.4-2.7-0.6-0.1-0.8 0.2-6.5 5.6-0.2 0.1-0.2-0.3-0.2-1-0.1-0.5-0.3-0.4-0.4-0.3-2.5-0.1-0.7 0.4-0.7 0.8-0.7 2.1-0.5 2.1-0.3 0.4-0.7 0.3-2.7 0.1-0.5 0.3-0.3 0.5-0.2 1.1 0.1 0.8 0 0.7 0.3 1.1 0.3 1.1 0.5 1.5-1 2.6-6.1 8.6-12.2-7.5-1.4-1.1 0-0.5 0.3-0.4 1.6-1.9 0.3-0.5 0.2-0.6 0.2-0.5 0.1-0.6 0-0.8-0.2-1-0.6-1.4-0.5-0.6-3.8-3-4.1-4.4-1.3-1.7-0.5-1.2 1.8-1.8 0.3-0.5 0.2-0.7-0.2-0.6-0.3-0.4-1.9-1.8-0.2-0.6 0-0.7 0.7-2.4 0.3-0.5 0.3-0.3 0.6-0.2 11.3-0.5 0.5-0.2 0.3-0.4 0.3-0.5 0.2-0.7 0.1-0.9 0.1-1.5-0.1-0.9-0.2-0.6-1-1.9-1-1.4-0.5-0.4-0.6-0.2-5 0-3.3-0.6-0.7-0.5-0.8-0.7-3.1-5-0.1-0.8 0-0.7 0.5-1 0.2-0.6 0-0.9-0.2-0.5-0.4-0.5-3-2.1-0.5-0.1-0.4 0.2-0.3 0.3-1.2 1.8-0.4 0.4-0.3 0.3-0.5 0.2-0.5-0.1-1-0.3-3.3-2-9.7-3-0.8-0.6-0.5-0.5-2.1-3.4-2.4-4.5-0.6-0.7-0.6-0.4-0.5 0.1-3 1.1-0.7 0-0.8-0.1-1.1-0.4-0.6-0.5-0.3-0.5-0.1-0.6-0.2-2.2-0.3-1-0.4-0.5-2.4-1.2-1.8-1.3-1-0.4-0.9-0.2-2.8 0.5-0.4 0.3-0.3 0.4-0.2 0.6-0.1 0.7-0.3 2.1-0.1 0.6-0.2 0.5-0.3 0.2-0.3 0.2-3.2-0.1-0.5 0.2-0.4 0.3-0.7 0.7-0.7 0.8-0.3 0.4-0.8 0.9-0.7 0.2-0.4-0.2-0.4-0.3-2.7-4-0.4-0.9 0-0.7 0.2-0.5 0.4-0.4 2.4-1.9 0.2-0.5 0.1-0.6-0.7-2-0.2-0.7 0-0.6-0.1-0.6-0.1-0.6-0.4-1-4.1-6.9-0.8-1.8-0.2-1.1 0-0.8 0.3-0.5 1.3-0.7 0.3-0.2 0.4-0.7 0.2-0.4 0.7-2.3 0.7-1.6 0.5-1 0.6-0.9 0.4-0.3 0.4-0.3 1.1-0.5 1.2-0.1 3.8 0.4 0.9-0.1 0.4-0.1 0.5-0.3 0.1-0.8-0.2-1.2-1.4-3.1-0.4-0.7-3.2-3.8-0.5-0.4-0.6-0.1-6.6-0.4-0.8-0.2-0.9-0.5-0.5-0.5-0.3-0.6-0.1-2-0.2-0.8-0.4-0.6-1.5-0.9-0.2-0.7-0.1-1.5-0.3-0.4-0.5-0.2-1.7 0.3-0.8 0-0.8-0.2-1.2-0.6-0.5-0.6-0.2-0.6 0-0.7 0.1-0.6 0.2-0.5 0.7-1.7 1.6-2.9 1.4-1.7 0.8-0.8 1-0.9 0.6-0.2 3.9-0.1 0.5-0.1 0.5-0.3 0.5-0.2 0.3-0.4 0.3-0.5 0.2-0.6 0-0.6 0-2.8-0.1-0.9-0.4-1.5-0.6-0.9-0.8-1.1-0.4-0.7-0.2-0.7 0.2-5.9 0.2-1.3 17.4-5.8 0.8-0.6-0.6-0.8-0.6-0.8-0.4-1-0.4-1.1-0.3-1.1-0.2-1.2 0-1.3 0.6-5 0-0.8 0-1-0.1-0.6-0.1-0.4-0.1-0.2-0.2-0.1-0.3-0.3-0.4-0.2-0.6 0-2.2 0.4-0.4 0.1-0.4-0.1-0.4-0.3-0.1-0.9 0.3-1.8 1.3-2.8 0.4-1.4 0.1-1-0.7-1.9-0.5-0.9-1.4-2.3-0.4-0.9-0.2-0.6-0.3-2.8-0.1-0.7-0.2-0.7-0.5-0.9-0.3-0.4-0.4-0.4-3.9-2.2-6.1-1.8-0.5-0.4-0.5-0.6-0.5-1.2-0.1-1.1 0-1.2 0.1-1.7-0.1-0.9-0.2-0.7-0.4-0.3-0.5-0.2-3.3-0.5-1-0.5-1.2-1-0.8-0.8-0.4-0.6-0.4-0.9-0.1-0.7 0.3-2.2 0-2.4 0.2-1.2 0.4-0.6 0.6-0.1 2 0 0.5-0.2 0.4-0.4 0.3-0.4 0.3-0.6 0.2-0.6 0.2-0.9-0.2-0.4-0.4-0.4-6.6-2.7-1.1-0.8-0.6-0.7-0.1-1 0-3 0.1-1.1 0.2-0.8 0.3-0.5 0.4-0.3 1.8-1.1 6.5-2 1-0.5 0.9-0.6 0.8-0.7 0.3-0.4 0.6-0.9 0.5-1.1 1-2.9 0.5-1 0.3-0.5 0.4-0.3 0.4-0.3 3.4-0.8 0.6-0.9 0.4-1.5 0.5-3.7-0.2-1.4-0.4-0.9-5.7-0.2-0.6-0.6-0.7-1.3-1-5.2-0.4-1.1-0.6-0.2-4.3-0.6-0.5 0.1-0.5 0.5 0.1 0.9-0.1 0.7-0.2 0.6-0.4 0.3-0.5 0.2-6 0.9-0.7-0.3-0.8-0.7-1.1-2.1-0.4-1.1-0.2-1 0-1.3 0.3-5.6 0.5-2.2 0-1.1-0.3-0.5-0.5-0.3-2-1-0.5-0.1-0.4 0.1-0.3 0.4-0.2 0.5-0.5 1.9-0.3 0.5-0.3 0.2-0.5-0.1-2.7-1.3-0.6-0.3-0.5-0.5-0.1-0.6 0-0.6 0.9-4 1.5-4.7 0.3-0.4 0.3-0.4 0.5-0.1 2.7 0.2 0.6 0 0.6-0.2 0.5-0.2 5.5-4.9 1.6-0.6 1.3 0 4.6 0.9 10.5-2 0.5-0.2 0.4-0.4 0.4-0.3 0.9-1.4 3.8-3.9 1.1-1.9 1.9-3.9 5.9-15.7 1.1-3.8 0.2-0.5 0.4-0.5 1.7-1.3 0.5-0.5 0.6-1.1 0.2-1.7 0.2-2.5-0.3-1.6-0.3-1.1-0.9-1.6-0.4-0.8-0.3-0.9-0.1-1.7 0-0.5-0.5-1.3 0-0.4 0.2-0.3 0.2-0.1 0.4 0.1 2.9 2 0.8 0.4 0.6 0 0.5-0.4 0.2-0.9 0.1-4.4 0.2-0.9 0.4-0.4 0.5 0 0.5 0.2 0.6 0 0.6-0.2 0.6-0.9 0-0.7-0.3-0.8-0.4-1.1-0.2-1.7 0.3-2.8 0.1-1.3-0.2-0.6-0.4 0-2.4 1.2-0.7 0.2-0.7-0.1-1.6-1.1-1.8-0.6-0.5-0.4-0.4-0.7-0.2-1.4-0.3-0.9-0.4-0.8-0.5-0.7-0.4-0.9-0.9-2.3-1.2-2.5-0.3-0.8-0.3-1.3 0.1-1.1 0.5-2.4 0-1.1-0.3-1-0.2-0.4-0.6-0.3-1.9-0.8-0.7-0.4-0.5-0.5-5.1-7.9-2.1-2.6-0.5-0.3-1.4-0.1-1-0.3-1.1-0.5-1.2-0.8-1-0.9-0.9-1-0.6-1-0.6-1.3-0.1-1.2 0.2-3.4-0.2-1.4-0.6-1.8-1.3-2.2-0.1-0.6 0.2-0.5 0.4-0.4 1.7-0.9 0.8-0.9 1-0.7 0.3-0.4 0.3-0.4 0.1-0.5-0.1-0.5-0.2-0.6-0.1-0.7 0-0.8 0.3-0.8 0.5-0.6 0.6-0.3 0.6-0.2 1 0.3 3.6 2 1.9 0.7 2.8 0.4 5.2-0.3 0.9 0.3 0.8 0.8 0.8 0.5 0.9 0.4 1.4-0.1 1-0.4 0.8-0.6 0.6-0.7 0.4-0.9 0.2-0.1 0.9-0.3 2.1-0.1 2.9 0.2 0.8 0.3 0.8 0.5 1.1 1.1 0.5 0.7 0.6 1.2 0.4 0.4 0.6 0.2 1.1-0.2 1.2-0.6 2.9-2.4 1-0.4 9.7-1.7 0.7 0.2 0.8 0.4 1.2 1.8 0.6 1 0.5 0.4 0.7 0.4 3.7 0.3 7.3-0.4 1.1-0.4 0.4-0.2 0.3-0.5 0.1-0.6-0.1-0.6-0.1-0.6-0.4-1.7-0.2-0.5 0.1-0.6 0.2-0.4 3-2.4 0.9 0.1 6.8 1.9 5.2-1.2 0.8 0.1 0.8 0.4 1.3 1.3 0.6 0.8 0.3 0.7-0.1 0.6-0.2 0.5-2.5 3.7-0.2 0.5 0 0.5 0.3 0.4 2.5 2.1 0.8 0.8 1.7 2.8 0.5 1 0.2 0.6 0.1 0.5 0.1 0.7 0 1.3 0.1 0.6 0.3 0.5 0.5 0.4 1.9 0.1 5.2-0.5 0.7 0.1 0.7 0.4 0.9 0.9 0.9 1.2 0.6 1.1 0.2 0.3 7.4 6.3 0.4 0.5 0.1 0.5 0 0.6-0.1 0.7-0.5 1.9-0.1 0.7 0.3 0.7 0.7 0.4 9.2 1.6 4.9 3.2 1 0.9 0.5 0.9 0 0.6-0.1 0.7-0.3 1.3-0.5 1.2-0.5 1 0.2 0.8 0.5 0.9 1.4 1.6 0.4 0.9 0 0.7 0.4 0.9 0.8 0.9 2.3 2 0.7 1 0.2 0.8 0.7 0.6 5.4 1.6 1.6 0.1 1.1-0.1 0.4-0.4 1.7-2.2 0.4-0.3 0.6 0 0.6 0.1 1.2 0.5 0.5 0.4 0.3 0.8 0 0.7 0 1.4 0.1 0.6 0.2 0.6 0.4 0.3 1.5-0.1 10.4-3.2 0.6 0.1 4.4 1.2 0.8-0.2 0.7-0.2 0.3-0.4 2.2-1.6 2.1-0.8 4.6-0.9 2.7 0.2 0.7 0.3 0.6 0.6 1.3 1.4 0.6 0.9 0.3 0.8 0.2 0.5 0.7 1.5 0.7 0.8 0.7 0.8 3.2 1.9 1.1 1.2 0.6 0.8 0.2 0.7 0.2 0.6 0.4 1 0.7 0.7 3.6 1.9 1.7 0.1 0.9-0.3 0.4-0.6 3-8.3 0.1-0.7 0.5-1.1 0.2-0.6 1-3.1 0.2-0.5 0.4-0.5 0.4-0.3 7.6-2.3 0.5 0 0.5 0.1 0.5 0.8 0.2 0.7 0.2 0.6 0.3 1.2 0.2 0.5 0.4 0.3 0.6-0.1 0.5-0.3 0.4-0.4 2-2.6 0.4-0.3 0.6 0.1 0.7 0.6 1.2 1.9 0.2 1 0 0.8-1.4 2.6-0.2 0.6-0.1 0.7 0.1 0.6 0 0.6 0.5 1.7 0.4 0.6 0.7 0.6 5.7 2 0.6 0.1 0.5-0.1 0.4-0.3 0.4-0.4 1.1-1.2 0.5-0.2 0.6 0 4.2 0.5 0.6 0.2 0.6 0.3 0.2 0.8 0.1 0.7 0 0.8 0.1 0.6 0.3 0.5 0.9 0.2 1.3-0.2 1.1-0.4 0.5-0.3 0.3-0.4 0.8-1.6 0.2-0.5 0.1-0.5-0.2-0.5-1.6-2.1-0.2-0.4-0.1-0.6 0.3-1.1 0.4-1.9 0.3-0.4 0.4-0.3 0.5-0.1 12.4 2.3 2.6 0 1.7-0.5 0.4-0.2 0.4-0.4 0.4-0.4 1.4-2.6 0.3-0.4 0.4-0.4 1.9-1 2.1-0.8 0.4 0 0.3 0.1-0.2 0.5-0.8 0.7-0.3 0.5 0 0.5 0.1 0.5 0.6 0.5 0.6 0.1 0.6 0 2.2-0.7 1.9-0.9 0.6-0.2 0.6 0 0.6 0.5 0.7 1 0.5 2.8 0.1 1.4 0.1 1.2-0.1 1.4 0 0.6 0.1 0.5 0.5 0.2 3.2 0 1.1 0.3 2 1 0.5 0.1 0.5-0.2 2.5-2 0.9-0.5 1-0.4 0.6-0.1 1.3 0.2 2.3 1 2.6 0.5 0.6 0 0.5-0.3 0.5-0.3 0.3-0.4 0.2-0.6 0.2-0.6 0-0.7 0-1.9 0-0.5 0.4-0.4 0.5 0 1.2 0.3 0.6 0.6 0.6 1 0.6 3.5 0 0.9-0.4 0.6-3.2 3-1.4 1.6-0.2 0.5 0 0.6 0.3 0.6 1.4 1.8 0.1 0.6 0 0.7-0.4 1-0.4 0.7-0.3 0.5-0.7 0.8-0.4 0.5-0.5 1-0.3 0.6-1.2 13.7-0.6 3-0.7 1.7-0.5 0.2-0.4 0.4-0.3 0.6-0.3 1.2-0.4 0.7-0.3 0.6-0.7 0.6-0.1 0.2 0 0.4 0.9 0.9 0.5 0.3 0.6 0.7 2 3.1 0.1 0.5 0 0.7-0.4 1.1-0.4 0.6-0.4 0.5-2.8 2.4-0.4 0.4-0.2 0.5-0.2 0.6-0.1 0.6-0.3 3.5 0.1 0.7 0.3 0.7 0.5 0.8 0.5 0.6 0.7 0.2 0.6 0.1 3-1 0.2 1.5 0.2 0.4 0.5 0.3 1.9 0.6 0.5 0.3 0.2 0.5 0 2 0.2 0.5 0.2 0.5 0.4 0.3 0.2 0.4-0.1 0.6-0.6 0.6-2 1.3-0.4 0.3-0.2 0.6 0.2 2.7-0.1 6-0.1 0.6-0.2 0.6-0.7 0.4-0.6 0.2-0.5 0.2-0.4 0.5-0.1 0.5 0.1 0.8 0.3 0.5 0.8 0.8 0.3 0.5 0.2 0.5 0.2 0.5 0.1 0.6 0 0.6-0.1 0.7-0.3 0.7-0.8 1.1-1.8 1.7-0.9 1.4-0.8 0.7-1.4 0.8-0.4 0.3-0.3 0.5-1 1.9-0.1 0.5-0.1 0.5 0 1.1 0.2 0.7 0.2 0.6 0.6 0.9 0.7 1.4 0.3 1.1 0.2 1.2 0 3.9-0.2 2.4 0.1 0.3 0.1 0.4 0.2 0.3 0.2 0.5-0.1 0.6-0.7 1-0.3 0.8 0.2 0.9 0.4 0.5 2.1 1.1 0.3 0.4-0.2 0.6-1.2 1.6-0.9 0.8-0.3 0.4-0.1 0.5 0.4 0.6 0.5 0.1 0.5-0.1 1.8-1.1 0.4-0.1 0.4 0.2 0.2 0.4 0 0.6-0.1 0.7-0.4 0.6-0.8 0.7-2.1 1.1-0.3 0.3-0.2 0.3 0.3 0.3 0.5 0.1 1.9 0.2 0.6 0.2 0.4 0.3 0.6 0.8 0.4 0.3 0.6 0.1 1.5-0.3 0.6-0.1 0.5 0.2 0.4 0.3 0.7 0.8 0.4 0.3 1.8 0.3 0.4 0.3-0.2 0.7-0.4 0.9-1.1 1.4-1.2 1.3-1.3 0.8-3 1.3-0.4 0.4-0.2 0.5 0 0.7 0.3 0.5 0.5 0.3 0.6 0.3 1.2 0.3 0.5 0.3 0.1 0.5-0.3 0.5-0.8 0.7-1.2 0.5-0.4 0.4-0.4 0.6-0.2 1.1-0.4 0.7-0.7 0.4-0.5-0.1-0.5-0.3-0.4-0.4-0.5-0.9-0.4-0.4-0.4-0.3-0.5-0.1-0.6 0-0.5 0.2-0.5 0.3-0.4 0.3-0.7 1-1.1 1.9-0.9 1.2-1.6 1.3-7.4 4.1-1.1 0.2-0.6 0-1.2-0.3-0.5-0.3-0.4-0.3-0.3-0.5-0.3-0.4-0.5-0.2-1.8-0.4-1.1-0.5-0.5-0.1-0.5 0.1-0.5 0.2-0.8 0.6-3.7 3.8-0.3 0.5-0.2 0.7 0 1 0.2 0.7 0.9 2 0.1 0.6 0.1 0.6-0.2 0.7-0.3 0.8-0.9 1-0.6 0.4-0.6 0.3-8.6 0.7-0.5 0.2-0.4 0.3 0.1 0.8 0.2 0.6 0 0.8 0 0.7-0.2 1 0 0.7 0 0.7 0.8 2.7 0 0.5-0.1 0.4-0.5 0.3-0.6 0.1-3.4-0.2-0.6-0.1-0.4-0.4-0.3-0.4-1.7-3.9-1.2-1.7 0-0.5 0.2-0.6 0.5-0.9 0.3-0.7 0.1-0.7 0-0.6-0.2-0.5-0.4-0.2-0.5 0-0.4 0.2-1.3 1.4-0.4 0-0.3-0.3-0.5-0.8-0.7-0.8-0.4-0.4-0.5-0.2-0.6-0.2-0.6 0.1-0.5 0.1-1.3 1-0.5 0.2-0.6 0.1-8.5-1.7-2.2-1-1.8-1.2-1-0.5-0.7 0-0.6 0.1-0.6 0.5-0.4 0.5-0.3 0.5-0.2 0.7-0.1 0.8 0.3 1.3 0.2 0.8 0.5 1.1 0 0.6-0.1 0.8-0.4 1-0.4 0.6-0.5 0.4-0.5 0.2-3.8 1-0.4 0.2 0 0.3 0.6 0.4 1.4 0.3 0.6 0.3 0.2 0.4-0.1 0.5-0.5 0.4-0.5 0.3-3.2 1.1-0.4 0.3-0.4 0.4-0.6 0.8-0.5 0.2-0.5-0.1-2-0.4-1.3-0.1-1.1 0.2-0.5 0.2-0.4 0.3-1.5 1.5-1 1.3-1.1 1.9-1 1.9 0 2.5 0.3 3.6-0.2 4.8-0.2 1-0.2 0.6-0.2 0.6-0.3 0.5-2.5 2.7-0.3 0.5-0.1 0.5-0.1 0.6 0.1 0.6 0.5 0.6 0.5 0.4 5.1 2 0.6 0.5 0.5 0.7 0.5 1.4 0.8 1.4 0.2 0.6 0 0.6-0.5 0.9-0.5 0.5-0.5 0.2-4.7 0.7-0.5 0.2-0.4 0.3-0.2 0.6-0.2 0.5-0.3 0.6-0.3 0.4-0.4 0.3-0.6 0.1-11-0.8-0.7 0.1-0.6 0.2-0.5 0.7-0.4 0.1-0.4-0.2-2.4-3.3-0.8-0.7-0.8-0.6-1.5-0.8-0.6-0.1-1.8 0.2-1.1 0.3-2.8 1.4-0.3 0.5 0 0.7 1.5 2.9 0.3 0.7 0.6 2.5 0.4 0.9 0.8 0.5 3.9 1 2.1 0.9 0.6 0.4 0.6 0.7 1.9 3.2 0.7 0.4 0.6 0.3 3.5 0.4 1.1 0.5 2.9 1.6 0.4 0.1 0.3-0.3 0.2-0.5 0.6-1.8 0.2-0.5 0.3-0.5 0.4-0.3 0.5-0.1 3.4 0.4 0.7 1 0.7 1.7 1 4.3 0.8 1.6 0.7 0.8 3.5-0.4 1-0.5 1.1-1 1-0.4 1.7-0.1 0.6 0.1 0.5 0.2 0.3 0.4 0 0.5-1.1 1.4-0.3 0.7 0.2 1.1 0.2 0.7 2 5.2 0 0.7-0.1 1.1-1 3.9 0 0.6 0 0.7 0.2 1.1 0.1 0.7 0.3 0.6 0.2 0.5 0.5 0.9 0.2 0.4 0 0.3-0.5 0.2-3.1-0.4-0.3 0-0.4 0.3-0.3 0.4-1.6 4.6-0.8 1.5-0.9 1.3-0.2 0.5 0.1 0.5 0.4 0.5 2.7 1.9 0.4 0.4 0.2 0.6-0.1 0.7-0.3 1-0.4 0.7-0.4 0.5-2.7 3.1-0.5 1-0.2 0.6-0.5 2.8-0.1 0.6-0.5 1.1-0.3 0.5-2 3.2-11.2 11.4 0.7 0.9 1.4 1.3 9.3 6 5.5 5.2z m-67.4-178.8l4-0.8 2.7-4-1-4-3.1-2.5-1.2-5.2 0.5-4 2.6-4.9 2.9-3.2-0.3-5.7-2.6-0.8-2.6 2.4-2.6 1.6-3.8 1.2-2.4 0-3.8-1.4-1-0.2-3.1-1.2-3.8-0.8-5.9-0.8-6 1.2-3.1 2-2.1 5.3-1 6.9-0.4 4.4 0 4.9 1.2 4.4 3.8 0.8 5.2 2.4 3.6 1.2 1.6 3.3 2.2 0.8 2.6-3.3 6.4-0.8 3.6-0.4 2.4 0.8 4.5 0.4z" id="BYMI" name="Minsk">
  </path>
  <path d="M482.7 429.8l-4.5-0.4-2.4-0.8-3.6 0.4-6.4 0.8-2.6 3.3-2.2-0.8-1.6-3.3-3.6-1.2-5.2-2.4-3.8-0.8-1.2-4.4 0-4.9 0.4-4.4 1-6.9 2.1-5.3 3.1-2 6-1.2 5.9 0.8 3.8 0.8 3.1 1.2 1 0.2 3.8 1.4 2.4 0 3.8-1.2 2.6-1.6 2.6-2.4 2.6 0.8 0.3 5.7-2.9 3.2-2.6 4.9-0.5 4 1.2 5.2 3.1 2.5 1 4-2.7 4-4 0.8z" id="BYHM" name="City of Minsk">
  </path>
 </g>
 <g id="points">
  <circle class="51.481250230644065|23.643339342862436" cx="90.9" cy="794.2" id="0">
  </circle>
  <circle class="53.449905245447155|28.42028291845282" cx="545.5" cy="486.7" id="1">
  </circle>
  <circle class="55.91072401395102|32.241837778925124" cx="909.1" cy="81.5" id="2">
  </circle>
 </g>
 <g id="label_points">
  <circle class="Gomel" cx="659.4" cy="680.5" id="BYHO">
  </circle>
  <circle class="Brest" cx="286.8" cy="644.2" id="BYBR">
  </circle>
  <circle class="Vitebsk" cx="587.8" cy="186.9" id="BYVI">
  </circle>
  <circle class="Grodno" cx="248.4" cy="448.5" id="BYHR">
  </circle>
  <circle class="Mogilev" cx="720.4" cy="430" id="BYMA">
  </circle>
  <circle class="Minsk" cx="458.7" cy="531.4" id="BYMI">
  </circle>
  <circle class="City of Minsk" cx="467.1" cy="413.3" id="BYHM">
  </circle>
 </g>
</svg>