<?xml version="1.0"?>
    
<!--********* Copyright (c) 2024 Pareto Softare, LLC DBA Simplemaps.com ***************************************
************* Free for Commercial Use, full terms at  https://simplemaps.com/resources/svg-license ************
************* Attribution is appreciated! https://simplemaps.com *******************************************-->

<svg baseprofile="tiny" fill="#6f9c76" height="1000" stroke="#ffffff" stroke-linecap="round" stroke-linejoin="round" stroke-width=".5" version="1.2" viewbox="0 0 1000 1000" width="1000" xmlns="http://www.w3.org/2000/svg">
 <g id="features">
  <path d="M272.7 776.9l3-35.8 6-97.5 5.6-90.2-0.5-99.1 10.1-8.3 13.8-9.2 4.7-1.7 3.7-0.2 2.6 1 2.6 0.6 38.7-4.4 4.6-1.5 3.4-2.4 2-2.8 2.4-2.8 2.3-0.8 5 0.9 5.9 0.4 7.8-0.3 3.4 0.2 4.8-0.5 9 0.4 7.5-1 6-2.1 9.8-6.6 5.6-2.1 3.9-0.6 6.8-3.4 2.5-0.7 4.7 1.6 7.8-3.3 2-3.5 2-4.4 2.8-1.4 1.2 2.1 0.8 4.8 3.4 69.4 0 0.2-0.4 12.6 0.4 1.9 3.7 5.4 2.8 6.6 0.3 3.9-0.1 3.2-1.6 4.1-0.4 2.5-1.2 3.8-0.7 1.7-0.7 0.8-0.7 0.4-0.6 1-0.6 1.2-0.3 1.8-1.2 2.1-0.6 0.8-0.8 0.7-1.1 0.6-7.4 2.7-1.1 3.4 1.2 2.9 4.8 7.9 4.6 4.1 2.3 2.4-0.2 2.9-1.5 1.6-1.9 1.3-1.1 1.5-3.4 7.1-2 5.6-2.1 3.9-2 3-3.9 2.8-1.6 1.5-2.3 4-10 11.1-0.6 1.7 0 1.5 0.4 1.4-0.1 2.1-0.8 4.7-0.1 1.8 0.5 4.3-0.3 1.8-0.6 1.5-0.8 1.1-1.1 0.9-3.2 1.5-1.9 1.8-0.6 1.1 0.3 1.3 4.4 3.2 1.2 1.4-0.1 1.1-1 0.9-1.4 0.4-5.9 1-6.4 2.2-1.8 1.2-1.6 1.6-9.2 14.2-1.9 5.2-3.6 6.6-1.9 6.8 0 1.5 1.2 4.4-5.6 0.3-2.6 1.4-1 0.7-1.9 2.1-3.6 4.5-0.8 1.7-0.3 1.4 1.4 5.9 0.3 1.8-1 3.6-6.7 6.9-5.3 4.1-1.5 0.7-2.7 0.8-2.3 1.2-8.9 6.9-3 1.8-2 0.5-1.6-0.2-2 0.4-3.8 1.7-1.9 1.3-1.4 1.4-1.5 2.2 0 1.2 0.4 2.9-1.4 1-13.1 5-1.8 0.4-1.4 0-1.1-0.6-2.3-2.5-1-0.9-1.1-0.7-1.6-0.6-0.8 0.5-2.2 2.5-6.8 6.6-2.5 1.9-2.2 1.1-5.6 0.6-2.4 0.9-1.3 0.2-4.4 0.4-11.7 4.8-1.5 1-1.4 1.7-1.1 1.6-0.2 0.7-0.2 1.8-0.6 1.4-0.9 1.5-2.3 2.8-1.6 1.7-1.9 2.4-3.7 5.6z" id="BZCY" name="Cayo">
  </path>
  <path d="M460.4 408l-4.7-1.6-2.5 0.7-6.8 3.4-3.9 0.6-5.6 2.1-9.8 6.6-6 2.1-7.5 1-9-0.4-4.8 0.5-3.4-0.2-7.8 0.3-5.9-0.4-5-0.9-2.3 0.8-2.4 2.8-2 2.8-3.4 2.4-4.6 1.5-38.7 4.4-2.6-0.6-2.6-1-3.7 0.2-4.7 1.7-13.8 9.2-10.1 8.3-1.8-96.6-1.4-75.5-0.3-30.4 2.5-13.9 2.5-3.6 4.6-6.6 27.6-10.1 7.1 2.5 5.5 5 5 5.6 5.6 4.3 4 0.4 3.7-0.8 3.2 0.7 4.5 9.9 4.3 3.2 13.4 7.9 2.9-0.9 2-2.8 1.5-7.7 1.5-2.5 17-12.8 3.1-3.8 4.8-13.6 1.6-3.2 4.9-4.2 4.6-2.6 3.9-3 3.3-5.2 1-3.8 1-7.9 1-3.5 8.2-14 1.1-3.9-1.1-4.9-1.2-1 9.4-7.1 9.7-4.6 4-3.1 3.3-5.3 1-4 3.4 0.7 21.2 9.4 15.2 11.2 24.2 33.1 45.7 41.7-73.8 19.1-17.6 10.1-2.1 6.1-0.7 3-0.4 3.5 0.2 2.6 1.2 4.6 0.3 2.2-0.1 4.5-2 9.2-0.2 1.6 0 1.9 1.1 7.8 0.1 2-1.1 8.3 0.2 2.5 1.7 4.5 0.4 1.8-0.2 2.3-1.5 1.6-2.8 1.2-3.3 1-9.8 4.6-3.8 5.9-4.3 12.3-0.2 6.2 4.1 50.6z" id="BZOW" name="Orange Walk">
  </path>
  <path d="M575 227l-45.7-41.7-24.2-33.1-15.2-11.2-21.2-9.4-3.4-0.7 0.3-1.3 0.6-5.5 1.2-6 3.2-5.6 10.3-11.9 4.1-6.6 1.2-4 1.3-8.9 3-8.4 1.8-10.6 1.7-3.8 2.5-2.6 10.3-8.1 3.4 0.4 3.1 1.7 3.4 1 2.9-0.4 6.7-2.4 3.6-1.8 2.2-0.6 1.8 0.6 3.2 3.1 2.5 1.5 1.9-0.3 2-1.1 2.5-0.7 20.6-0.2 1.9 0.4 0 1.2 5.7 5.3-6.5 8.5-25.8 18.7-2.4 5.1 3.8 5.5 4.7 0.3 16-7.3-1.9 5.1-3.1 5.4-7.6 9.7-1.9 3.1 1 1.6 2.6-0.2 2.9-2.1 5.6-6.3 11-8 5.2-2.5 5.6-1 7.4 1 9.7 4.8 4.3 1.4 7.1-1.1 10-7 11.6-3.6 3.9-0.5 1.7 1.3-0.6 4.9-1.9 3.3-6.6 5.1-7.6 3.2-1.5 1.5-0.1 3.9 2.4 0.8 2.9-1.2 2.5-4.2 2.7-1.9 3.4-1.5 3.3-0.6 1.1 1.9 2.7 41.4-2.7 32.1-1.1 5.5-4.6 8.3-1.1 5.5-12.5 32.1-5.7 3.9 0 0.1-39.1-4.3z" id="BZCZL" name="Corozal">
  </path>
  <path d="M272.7 776.9l3.7-5.6 1.9-2.4 1.6-1.7 2.3-2.8 0.9-1.5 0.6-1.4 0.2-1.8 0.2-0.7 1.1-1.6 1.4-1.7 1.5-1 11.7-4.8 4.4-0.4 1.3-0.2 2.4-0.9 5.6-0.6 2.2-1.1 2.5-1.9 6.8-6.6 2.2-2.5 0.8-0.5 1.6 0.6 1.1 0.7 1 0.9 2.3 2.5 1.1 0.6 1.4 0 1.8-0.4 13.1-5 1.4-1-0.4-2.9 0-1.2 1.5-2.2 1.4-1.4 1.9-1.3 3.8-1.7 2-0.4 1.6 0.2 2-0.5 3-1.8 8.9-6.9 2.3-1.2 2.7-0.8 1.5-0.7 5.3-4.1 6.7-6.9 1-3.6-0.3-1.8-1.4-5.9 0.3-1.4 0.8-1.7 3.6-4.5 1.9-2.1 1-0.7 2.6-1.4 5.6-0.3 9.6-3.2 24.9-0.6 7.6 0.9 4.9 1.2 11.5 6.4 1.7 1.6 1 1.6 1 2.9 0.8 1.5 0.1 1.4-0.1 1.4-1.3 3.2 0.2 1.7 1.4 2 4.1 4.5 1.1 1.7 1 1.4 0.7 1.3 0.9 1.4 0.7 1.6 0.9 1.3 1.4 2.6 0.6 1.7 0.1 1.3-0.2 1.2-0.4 2.2-0.5 5.7-0.2 1.1 0 1.5-0.7 1.4-0.7 0.8-0.5 1.5 2 0.9 13.5 1.9 2-0.1 1-0.3 13.1 0.8 1.4-0.1 3.5 0.1 1.8 0.4 1.5 0.1 6.9-1.1 3.3 0.2 1.4 0.4 0.9 2.6 3.8 1.6 1.2 2.5-6.2 4.8-6.8 13.7-6.3 2.9-0.6 1.9-0.6 8.2 0.1 1.7-1.9 1.2-1.7 0-1.2-0.6 0-0.6-2.1 1.4-0.7 0.7-0.4 0.9-1.3 1.7-4.3 10.4-1.3 1.7-2.6 1.5-8.7 11.5-1 1.8-1.4 4.6-0.9 1.7-0.2 1 0.4 2.9-0.2 1-0.9 0.2-2.7-0.4-1 0.2-1.4 0.8-4 0.9-1.6 0.9-0.7 1.3-1.6 5.6 0-14.4-2.2 0-2.3 7.5-4.7 1.1-4.6-2.9-2-4.5-1.3-1.9-2.8-0.3-2.8 0.6-1.2 0.4-0.4 1.2 0.1 6.1-0.9 2.3-2.4 0.8-11.3 1.6-1.9 1.3-1.6 1.6-2.3 1.4-4.5 0.6-4.7 2.2-1.4 5.5 0.8 13.4-1.3 7.2-3.1 5.3-4.7 3.2-5.8 1.1-1.7 0.9-2 2.2-1.6 2.6-1.5 6.1-2 1.7-2.9 1.2-3.2 1.8-3.7 3.2-1.6 1.8-1.5 2.1-0.8 3.8 0.3 3.9-0.9 2.9-8.7 2.6-5.8 3.5-5.5 4.6-3.8 4.7-1.1 8.6 6.9 14.4-1.2 8.1-12.6 4.9-29.4-7.6-10.7 0.1-9.5 1.6-25.5-1.2-6 2.6-3.1 0.1-3.9 1.3-3.1 1.6-0.7 1.1-2.8-4.5 0.2-4.3 0.6-16.8 8.5-80 5.1-71.6z" id="BZTOL" name="Toledo">
  </path>
  <path d="M412.1 676.9l-1.2-4.4 0-1.5 1.9-6.8 3.6-6.6 1.9-5.2 9.2-14.2 1.6-1.6 1.8-1.2 6.4-2.2 5.9-1 1.4-0.4 1-0.9 0.1-1.1-1.2-1.4-4.4-3.2-0.3-1.3 0.6-1.1 1.9-1.8 3.2-1.5 1.1-0.9 0.8-1.1 0.6-1.5 0.3-1.8-0.5-4.3 0.1-1.8 0.8-4.7 0.1-2.1-0.4-1.4 0-1.5 0.6-1.7 10-11.1 2.3-4 1.6-1.5 3.9-2.8 2-3 2.1-3.9 2-5.6 3.4-7.1 1.1-1.5 1.9-1.3 1.5-1.6 0.2-2.9-2.3-2.4-4.6-4.1-4.8-7.9-1.2-2.9 1.1-3.4 88.1-1.6 3.1-1.1 1.7-1 6.8-2.6 4.4-4.6 0.3 3.1 1.7 8 1.3 4.3 3.2 1.8 7.1 2.4 4 5.3 2.8 6.7 1.5 7.6 0.9 11 1.9 8.5-0.8 4-2.1 0.9-2.9 0-3.2 1.2-3.7 3.3-4.5 5.3-3.9 6-1.6 5.6 1.5 6.4 6.5 10.3 1.3 6 0.6 0 1.1 0.9 0.9 1.6-0.3 2-1.3 0.3-4.3-0.6-1.4 0.3-4.3 3.4-1.7 2.1-0.6 3.1-0.8 1.7-1.6 1.7-1.7 2.4-0.7 3.6 0.3 4.2 1.6 5.4 0.4 3.4-3.1 24.6-2.1 3.8-2.9 3-3.3 4.4-3.8 14.2-1.8 4.3-1.1 6.2 2.2 8.7-1.4 3.2-2.4 3.1-2.2 0.2-1-5.4 10.4-39.5 5.6-5.9 2.1-3.5-8.7 4.5-9 22.8-7.3 8.4 2.2 0.4 4.7 2.2-2.3 1.2-1.7 0.5-2.1-0.3-3-1.4 0.7 3.1 0.8 1.4 1.8 0.4 3.5-0.1 0 2.1-3.6 2.4-2.5 3.5-0.6 4.2 0.9 1.8-3.8-1.6-0.9-2.6-1.4-0.4-3.3-0.2-6.9 1.1-1.5-0.1-1.8-0.4-3.5-0.1-1.4 0.1-13.1-0.8-1 0.3-2 0.1-13.5-1.9-2-0.9 0.5-1.5 0.7-0.8 0.7-1.4 0-1.5 0.2-1.1 0.5-5.7 0.4-2.2 0.2-1.2-0.1-1.3-0.6-1.7-1.4-2.6-0.9-1.3-0.7-1.6-0.9-1.4-0.7-1.3-1-1.4-1.1-1.7-4.1-4.5-1.4-2-0.2-1.7 1.3-3.2 0.1-1.4-0.1-1.4-0.8-1.5-1-2.9-1-1.6-1.7-1.6-11.5-6.4-4.9-1.2-7.6-0.9-24.9 0.6-9.6 3.2z" id="BZSC" name="Stann Creek">
  </path>
  <path d="M469.2 529.7l7.4-2.7 1.1-0.6 0.8-0.7 0.6-0.8 1.2-2.1 0.3-1.8 0.6-1.2 0.6-1 0.7-0.4 0.7-0.8 0.7-1.7 1.2-3.8 0.4-2.5 1.6-4.1 0.1-3.2-0.3-3.9-2.8-6.6-3.7-5.4-0.4-1.9 0.4-12.6 0-0.2-3.4-69.4-0.8-4.8-1.2-2.1-2.8 1.4-2 4.4-2 3.5-7.8 3.3-4.1-50.6 0.2-6.2 4.3-12.3 3.8-5.9 9.8-4.6 3.3-1 2.8-1.2 1.5-1.6 0.2-2.3-0.4-1.8-1.7-4.5-0.2-2.5 1.1-8.3-0.1-2-1.1-7.8 0-1.9 0.2-1.6 2-9.2 0.1-4.5-0.3-2.2-1.2-4.6-0.2-2.6 0.4-3.5 0.7-3 2.1-6.1 17.6-10.1 73.8-19.1 39.1 4.3-13.8 27.3 2 9-4 29-8.2 28.9-2.6 5.8-8.6 10.4-3.5 6.4-1.5 7.5 1.4 8.3 4 4.3 11.9 6 2.5 5.3 3.2 2.9 13.9 2.5 3.1 2.8-4 6.8-8.6-0.1-8.5-1.3-3.8 3.2-0.9 5.4-13.8 46.1-3.2 35.4-0.3 7.3-1.2 13.6 2.4 7.4 1.3 6.6 0 0.7-4.4 4.6-6.8 2.6-1.7 1-3.1 1.1-88.1 1.6z m254.1-98.9l4.2-3.7 3.8 6.2 5.6 16.7-1.5 2.6-0.6 3.5 0.1 8.2-2.3 0 0.1-3.6-0.1-1.2-1.9 0.6-1.3 1-0.8 1.4-0.7 1.8 0.2-21.1-1.1-8.8-3.7-3.6z m3.5-54.8l4 0.2 4.8 1.1 4.1 3.5 2 6.9-1.4 5.3-6.8 13.6-4.5 6-3.3 5.9-4.9 3.2-6.6-5.2-3.4 5.7-4.2 3.2-3.8 4.2-2.4 8.5-2.1 15.6-0.8 2.6-1.7 3.5-1.5 4.3-0.3 5-4.7-4.8 1.2-1.2 0.4-1.1 0.2-1.2 0.4-1.3 0.8-7.4 3.1-12.2 1.6-16.8 2.6-5.5 4.3-4 5.8-4.2 6.8-7.2 3.4-0.3 4.9 2.1 4.2 0.6 3.2-3 2.6-6.9 0.6-7.3-2.8-4.4-3.7 3.3-3 1.7-2.6-0.3 0.2-2.2 3.3-9.5z m-82.9-33.5l4.5 3.9 3.3 8.5 3.3 18.5-2.3 0-1.7-3.3-2.9-8.3-4.2-19.3z m-27.7-14.3l6.9-3.3 18.9-13 3.9-1.7-3.1 11.3-7.7 7-10.4 3.5-10.8 0.9 0-1.6 0.4-1.1 1.9-2z m82.1-120l2.1 0-2.6 15.2-6.5 13.9-10.4 10.2-14.4 3.9 0-2.4 3.5 0.2 1.1-0.2 12.1-8.7 4.3-6.1 1.8-9-5.3 0.2 1.4-10.8 6.1-21.9 0.7-1.5 1.6-1.3 1.6-1.6 0.7-2.7 0.2-3.5 4.9-18.4 3.3-3.1 5.2 2.2 7.3-4.8 3.3 4.7-0.5 7.8-4.4 4.1-2.5 3.9-6.8 18.9-3.2 6.3-2.3-1.6-2.3-1-0.8 3.6-1.2 2.6-2 1.9-2.8 1.4 0 2.4 2.5 5 3.1-4.6 0.8-2.1 0.4-3.1z m-60.5 177.7l6.1 4.7 3.1 4.6-0.7 3.5-0.9 1.5-0.1 2.1-1.4 3.2-2.3-0.3-0.6-2.9-0.4-7.2-0.5-1.5-2.6 0.3-2.9-1.3-1.9-2.4-1.1-1.8-1.1-1 0.1-2 2.2-1.5 5 2z m42-200.4l2-0.8 0.9 1-0.7 3.6-2.7 2.4-3.6 0.7-1-2.2 2.4-3.5 1.7-1.1 1-0.1z m9.9-9.7l0.8 1.4 0.2 3.8-1.9 3.6-2.8 2.1-1.2-0.3-0.4-1.8-0.5-1.3 0.5-1.3 1.7-0.9 1.8-1.5 0.6-2 0.6-1.3 0.6-0.5z m20.3-31.3l1.2 0.6 0.2 1.4-0.2 1.8-1.2 3.5-3.1 4.1-1.9-1.7 0.9-6 1.3-2.1 1 0.9 0.2-0.8-0.5-1.5 0.1-0.6 1.1 0.3 0.9 0.1z" id="BZBZ" name="Belize">
  </path>
 </g>
 <g id="points">
  <circle class="16.01020732020611|-89.163840122968" cx="282.5" cy="909.4" id="0">
  </circle>
  <circle class="17.054650056806143|-88.43711923688123" cx="524.2" cy="547" id="1">
  </circle>
  <circle class="18.360203477556183|-87.85574252801182" cx="717.5" cy="91.2" id="2">
  </circle>
 </g>
 <g id="label_points">
  <circle class="Cayo" cx="371.1" cy="561.3" id="BZCY">
  </circle>
  <circle class="Orange Walk" cx="377.1" cy="339.3" id="BZOW">
  </circle>
  <circle class="Corozal" cx="582.2" cy="159.5" id="BZCZL">
  </circle>
  <circle class="Toledo" cx="350.8" cy="818.1" id="BZTOL">
  </circle>
  <circle class="Stann Creek" cx="513.5" cy="619.2" id="BZSC">
  </circle>
  <circle class="Belize" cx="524.1" cy="373.3" id="BZBZ">
  </circle>
 </g>
</svg>