<?xml version="1.0"?>
    
<!--********* Copyright (c) 2024 Pareto Softare, LLC DBA Simplemaps.com ***************************************
************* Free for Commercial Use, full terms at  https://simplemaps.com/resources/svg-license ************
************* Attribution is appreciated! https://simplemaps.com *******************************************-->

<svg baseprofile="tiny" fill="#6f9c76" height="677" stroke="#ffffff" stroke-linecap="round" stroke-linejoin="round" stroke-width=".5" version="1.2" viewbox="0 0 1000 677" width="1000" xmlns="http://www.w3.org/2000/svg">
 <g id="features">
  <path d="M677.5 161.4l-0.7-1.5-0.1-1.8 0.5-1.4 0.4-0.8-0.3-0.3-0.4-0.3-0.8-0.1-0.8 0.1-1 0.1-0.9 0.3-0.8 0.4-0.7 0.5-0.7 0.6-0.6 0.7-0.5 1.1-0.6 1.4-1.5 7.6-0.4 1.4-0.5 0.8-1 1.3-1 0.8-0.5 0.3-0.6 0.2-0.7 0.1-2.6 0.3-1.3 0.4-1.4 0.9-4.8 3.6-1.4 1.5-0.8 1.8-0.4 4.4-0.3 1.6-0.9 1.5-0.7 0.6-0.8 0.2-2-0.6-0.7 0-13 3.3-8.8 1.3-2.7 0.7-3.5 2.1-1 0.8-3.9 3.7-0.7 0.4-0.7 0.2-0.5 0.1-0.5 0-0.7-0.2-2.3-0.9-0.9 0-0.9 0.1-0.7 0.2-1.5 0.1 0.2-2.5-0.1-0.8-0.1-0.8-0.4-0.6-0.7-0.6-1.2-0.4-5.2-0.7-3.9-1.1-1.1-0.5-5.3-3.8-0.9-1.3-0.7-1.7-1.9-9.1 0.1-2 0-0.6-0.7-0.7-3.3-2.2-0.8-1.1-0.6-1.1-0.3-1-0.3-0.8-0.4-0.5-0.8-0.6-2.5-1.5-1-0.8-1.7-2.3-0.7-0.7-0.8-0.5-1.9-0.9-0.6-0.6-0.4-0.8-1.4-4.5-0.6-1-0.6-0.7-0.5-0.6-0.5-0.7-0.2-0.9-0.7-4.6-0.4-1.3-0.5-0.8-2.5-2.1-0.7-0.7-0.5-0.9-0.3-0.8-0.4-1.4-0.2-0.5-4.1-3.7-0.7-1-0.5-0.8-0.7-0.7-0.9-0.3-1.8 0-1.8 0.1-1 0-0.6-0.3-0.4-0.5-0.2-0.5-0.1-0.6 0-1.4-0.1-0.8-0.6-2.5-0.2-0.9 0-0.8 0.2-1.4-0.1-0.5-0.1-0.6-0.4-0.9-0.4-0.5-0.6-0.3-1.7-0.3-0.3 0-0.4 0.2-0.4 0.6-0.2 0.4-0.4 0.8-0.2 0.3-0.2 0.3-0.3 0.3-0.6 0.4-0.4 0.3-0.5 0.2-1 0.4-0.9 0.5-1.5 1.1-1.4 1.4-1.5 1.1-0.4 0.4-0.3 0.5-0.2 0.7-0.3 0.8-0.2 0.3-0.2 0.2-0.6 0.4-0.5 0.5-0.8 0.7-0.2 0.2-0.6 0.4-3.2 1-1.1 0.2-1.4 0-0.9 0.2-1.7 0.4-0.9 0.1-1.1 0.3-1.1 0.5-2.4 1.5-1.6 1.3-0.4 0.4-0.3 0.4-0.1 0.3-0.4 1.2-0.2 0.3-0.2 0.3-0.2 0.3-0.8 0.6-0.4 0.2-0.6 0.2-1.2 0.1-1.7 0.7-0.4 0.2-0.3 0.3-0.2 0.2-0.4 0.7-0.2 0.2-0.5 0.5-0.7 1.3-0.2 0.2-0.4 0.2-0.7 0.1-1.1-0.2-1.5-0.4-1.9-2-0.2-0.2 0.5 0.2 0.4-0.1 0.4-1.4 0.1-1.8 0.4-1.3 0.4-0.2 0.3-0.1 0.3 0.1 0.1 0.1 0.1 0 0.4-0.1 0.1-0.1 0.2-0.1-0.1-0.3 0-0.3 0.6-0.5 1.6-1.7 0.1-0.1 0.1 0 0.1 0 0.4 0 0.3 0.1 0.3 0.1 0.1-0.1 0.2-0.1 0.1-0.4-0.1-0.3-0.1-0.2 0.1-0.3 0.3-0.6 0-0.1 0-0.2 0-0.5 0.1-0.2 0.1-0.2 0.2-0.1 0.1 0 0.4 0.1 0.5 0.5 0.2-0.2 0.3-0.1 0.1-0.3 0-0.1 0.1-0.2 0-0.3 0.1-0.5-0.1-0.1 0.1 0 0.3-0.7 0.1-0.6 0.4-0.2 1.1 0.4-0.1-0.9 0-0.1 0.4-0.2 0.1-0.1 0.1-0.3-0.1-0.3-0.1-0.2-0.1 0 0.3-0.1 0.4-0.9 0-0.1 0-0.1 0.1-2.2 0.1-0.2-0.1-0.1 0.2-0.8 1-1.9 0-0.4 0.4 0.1 0.4 0 0.3 0 0.4-0.2 0.1-0.2 0.1-0.2-0.1-0.1 0-0.2-0.6-0.8-0.1-0.1 0.3-0.3 0.4-0.1 0.1-0.1 0.1-0.2 0.1-0.2 0.4-0.1 0.4 0.2 0.6 0.7 0.3 0.1 0.5-0.2 0.5-0.4 0.9-0.8 0.2-0.1 0.3 0.1 0.3 0 0.1-0.3 0-0.4 0.1-0.1 0.5-0.5 0.2-0.6 0-0.1 0-0.1-0.1-0.6 0-0.4 0.3-0.7 0.1-0.3 0.7-1.1 0.2-0.2 0.3-0.3 3.3-2.1 0.6-0.2 0.1-0.5 0.1-0.1 0.1-0.1 0.2-0.3 0.1-0.5 0-0.2-0.1-0.1 0.2-0.3 3.6-4.1 1-0.9 0.9 0.7 0.2 0 0 0.1 0.4 0.1 0.1 0.3 0.2 0.2 0.2-0.1 0.1 0 0.1-0.1 1.6 0.6 0.9 0.2 2.4-1 2.3-2.3 1.8-2.8 1.2-2.6 0.1 0 0.1 0 0.1-0.1 0.1-0.2-0.1-0.3 0-0.1 2.2-5.1 0.1 0 0.3-0.4 0-0.1 0.8-1.1 0.1 0 0.1 0 0.3-0.2 0-0.1 0.1-0.2 0.3-0.5 2-1.3 0.4 0 0.1 0.1 0.1 0.3 0.2 0.1 0.4 0.2 0.5-0.2 0.3-0.1 0.4-0.1 0.2 0 0.2 0 0 0.1 0.1 0 0 0.1 0.2 0.1 0-0.1 0.1 0 0.3 0 0.1 0 0.1 0 0.9-0.4 0.2-0.2 0.8-0.2 0.4-0.2 0.1-0.1 0 0.1 0.3 0 0.1 0 0.2 0 0.3-0.2 0.1-0.1 0.6-0.2 0.9 0.1 0.1 0 0.2-0.1 0.2-0.2 0-0.1-0.1-0.3-0.3-0.3-0.1-0.1 0.1-0.1 0.2-0.7 0.2 0 0.1-0.1 0.1 0 0.1-0.1 0.2-0.1 0-0.1-0.4-0.3 0.4-0.7 0.1 0.1 0.3 0 0.4 0.1 0.5 0 0.3 0 0.3-0.2 0.6-1.1 0.1-0.1 0.1 0 0.2-0.1 0.3-0.3 0.1-0.5 0.3-0.3 0-0.1 0.2-0.4-0.3-0.4-0.2-0.3-0.4-0.8 0-0.1-0.1-0.3 0.1-0.1 0.3-0.6 0.9 0.2-0.1-0.9 0.1-0.3 0-0.1 0.1-0.7 0.5-0.5 1.2-1 0.3-0.6-0.1-0.3 0-0.1-0.3-0.1-0.5-0.1-0.2-0.3-0.1-0.2 0.3-0.8 0-0.4-0.5-0.6 0-0.2 0.1-0.2-0.1-0.1 0-0.3-0.5-0.4-0.3-0.2-0.5-0.4-0.7-1.3-0.2-0.3-0.1-0.4-0.1-0.1 0.2-1.1 0.1-0.3 0-0.1 0.6-0.7 0.1-0.4 0.1-0.7 0-0.5-0.3-1.1-0.1-1.4 0.4-0.9 0-0.2 0-0.1-0.1-1.1 0.1-1 0.3-0.2 0.6-0.2 0.2 0.2 0.1 0.1 0.1 0.1 0.1 0 0.4 0.1 0.4-0.3 0.1-0.2 0.2-0.2 0.1-0.1 0.3-0.2 0.1 0 0.3-0.2 0.2-0.4 0.2-0.2 0.1-0.1 0.1 0 0-0.1 0.5-0.2 0.5 0 1.4-0.4 0.7-0.1 1.4 0.7 0.7 0.2 0.3-0.6 0.3-0.1 1.6-1.6 2.1-1.4 1.2-0.6 4.3-1.1 0.7-0.8-0.6-1.5 0.4-0.9 0.5-1.5 0.8-1.3 1.3-0.6 5.8 0.6 1.1-0.2 2 1 0.9-1.4 0.8-2.3 2-1.6 0.7-1 0.9-0.7 1.1 0.5 0.6 0 0.7-0.5 1.3-1.2 0.9-0.5 1.4-0.6 1.6-0.4 0.2 0 1.9-0.3 1.1-0.4 0.8-0.5 0.2 0 0.2 0 0.4-0.3 0.1-0.3 0.1-0.2 0.6-0.5 0.6 0.1 0.4 0 0.3-0.3 0.3-0.2 0.1-0.1 0.1-0.2-0.3-0.1 0.4 0.1 0.5 0.1 1 0.3 0.8 0.1 0.7-0.6 1.5 1.4 1.5 0.1 1.5-0.4 1.7-0.2 0.5 0.2 1.4 0.6 0.7 0.1 2.4 0 0.7 0 2.5 0.7 1.8 1.5 4.2 1.4 3.9 0.3 0.1 2 9.9 14.5 7.3 5.1 12.6 12.4 11.6 18.8 11.6 18.9 1.5 3.1 2 12.2-0.4 2.7-0.9 2.1-2.6 4-0.7 1.8-0.2 0.2-0.3 0.6-0.2 0.5 0.1 0.5 0.3 0.2 0.6 0.2 0.1 0.4-0.4 0.9-0.1 0.5 0 0.1 0.1 0.6 0.2 0.2 0.2 0.2 0.3 0.3-0.1 0.5 0.2 0.7 0.6 0.9 0.5-0.1 0.4 0.2 0.4 0.6 0 0.4-1.7 5.4-0.3 0-0.4-0.1-0.3 0.2-0.3 0.3-0.2 0.6 0 0.4 0.2 0.4 0.2 0.5 0.3 0.4 0.2 0.6 0.4 0.8 0.2 0.6 0.1 0.6 0 0.1-0.1 0 0-0.1 0-0.6 0 0.6 0 0.1-0.9 0.7-2.7 3.4-1.5 1.6-0.8 0.5-1.1 0.2-2.3-0.1-1 0.4-0.8 1.2z" id="CFVK" name="Vakaga">
  </path>
  <path d="M602.9 201l1.5-0.1 0.7-0.2 0.9-0.1 0.9 0 2.3 0.9 0.7 0.2 0.5 0 0.5-0.1 0.7-0.2 0.7-0.4 3.9-3.7 1-0.8 3.5-2.1 2.7-0.7 8.8-1.3 13-3.3 0.7 0 2 0.6 0.8-0.2 0.7-0.6 0.9-1.5 0.3-1.6 0.4-4.4 0.8-1.8 1.4-1.5 4.8-3.6 1.4-0.9 1.3-0.4 2.6-0.3 0.7-0.1 0.6-0.2 0.5-0.3 1-0.8 1-1.3 0.5-0.8 0.4-1.4 1.5-7.6 0.6-1.4 0.5-1.1 0.6-0.7 0.7-0.6 0.7-0.5 0.8-0.4 0.9-0.3 1-0.1 0.8-0.1 0.8 0.1 0.4 0.3 0.3 0.3-0.4 0.8-0.5 1.4 0.1 1.8 0.7 1.5-0.4 0.5-1.5 9 0.2 1.7 0.9 1.5 1.8 1 2-0.1 1.1-1.1 0.8-0.1 0.7-0.5 0.4-0.5 0.1-0.3 0.7 0 0.5 1.5-0.1 2.5-0.9 4-1.2 1.9-0.6 0.8-0.1 0-0.4 0-0.1 0.1 0.2 0.2 0 0.1-1.8 2.1-1 1.8 0 1.7 0.6 1.9 1 1.5 1.5 0.7 1-0.2 1.6-1.3 1-0.6 1.3-0.2 1.1 0.1 0.1 0.1 0.4 0.4 0-0.1 0 0.1 0-0.3 0.7 0.3 1 0.7 0.9 0.4 1.9-0.1 0.1 0.1 0.5 0.5 0.4 0.3 0.4 0.3 0.6 0.2 0.7 0 0.4-0.1 0.8-0.3 0.5-0.4 0.5-0.4 0.8-0.3 0.8-0.2 0.5-0.2 0.6-0.1 0.6-0.1 0.2 0 4.3 0.9 2.4-0.2 0.5 0.4 0.4 0.2 0.3 0.1 0.4 0.2 0.6 0.2 0.8 0.2 0.5 0.2 0.1 0 0.5-0.1 0.6-0.1 0.3-0.2 0.6 0.1 2-0.3 2.8 0.4 0.1 0.2 0 0.1 0.2 0.2 0.3 0.1 0.5 0.1 0.6 0.1 0.2 0 0.3 0.1 0.6-0.1 0.7-0.1 0.3 0 0.1 0 0.5 0.1 4-0.6 0.7-0.1 2.6 0 1.2 0.7-0.1 1-1.3 1.8-0.3 1 0.5 1 1.9 1.5 0.3 0.9-0.4 0.6-2.9 1.9-0.7 0.8-3.9 6.6-0.8 2.4-0.2 2.3 0.6 2 1.5 1.8 1.9 1.4 1.9 1 1.1 0.5 2.4 0.5 0.4 0.1 2.6 2.6 3.8 3.1 1.2 0.7 0.7 0.3 1.2 0.3 0.5 0.2 0.5 0.6 0.3 0.9 0.3 1.5 0.3 0.7 0.4 0.5 0.4 0.2 0.4 0.4 0.7 0.8 0.4 0.3 0.9 0.6 0.2 1 0 1.8-1.6 7.1 0.2 0.7 0.3 0.6 0.1 0.8 0.3 2.8 0.3 1.7 0.4 1.3 0.6 1.2 0.2 0.9 0.1 0.9-0.1 1.7 0.1 0.7 0.1 0.6 0.3 0.2 0.1 0.3 0.3 0.5 0.1 0.3-0.3 5.8 0.5 1.8 0.2 0.3 0.4 0.6 0.8 0.9 0.4 0.7 0.9 2.7 0.3 0.2 0.3 0.2 0.4 0.1 0.2 0.2 0.1 0.3-0.1 0.5 0.1 0.4 0.1 0.3 0.3 0.1 0.4 0.3 0.6 0.3 0.6 0.3 0.3 0.1 0 0.2-0.4 0.5-0.5 0.8-1.2 2.9-0.8 1-0.5 1.3-0.8 1.1-1.1 2.6-0.4 1.5-0.1 0.7 0.1 0.5 0.1 0.4 0.1 0.4 0.1 0.3 0.2 0.3 0 0.5-0.1 0.5-0.2 0.8 0.1 0.4 0.2 0.2 0.3-0.1 0.6-0.2 0.3 0.1 0.3 0.2 0 0.3-0.1 0.5-0.1 0.5 0 0.3 0.1 0.3 0.3 0.2 0.6 0.3 0.3 0.2 0.2 0.3 0 0.5-0.1 0.6-0.3 1.2-0.1 0.6 0 0.6 0.1 0.4 0 0.4 0 0.4 0 0.4-0.1 0.4-0.7 2.1 0 0.5 0.1 0.4 0.4 1 0.1 0.3 0.2 1.3 0 0.5 0 0.5-0.7 1.5-0.3 0.3-0.4 0-0.7-0.3-0.3 0.1-0.4 0.3-1.1 1.7-0.3 0.2-1.6 0.5-1.2 0.1-0.4-0.1-0.3-0.1-0.3-0.1-0.3-0.1-0.8 0-0.8-0.1-0.3 0.1-2.1 0.8-0.4 0-0.8-0.1-0.5 0.2-0.5 0.4-1.4 1.3-0.3 0.4 0.3 1.7 0.3 0.7 0.2 0.2 0.2 0.2 0.4 0.1 0.3 0.2 0.1 0.2-0.1 0.3-0.4 0.1-0.4 0.3-0.3 0.3-0.2 0.7 0.1 0.9-0.1 0.4-0.7 0.7-0.4 0.2-0.4 0.2-0.8 0.1-0.3 0.2-0.2 0.3 0 0.5 0.2 0.3 0.3 0.3 0.2 0.3 0.2 0.7 0.3 0.1 0.2 0.2 0 0.2-0.3 0.3-1 0.2-0.6 0-0.5 0-0.3 0.1-0.5 1.4-56.4 31.7-0.9 0.7-0.2 0.3-0.7 0.8-0.5 0.8-0.1 0.4-0.1 0.4-0.1 0.8-0.1 0.6-0.4 0.5-0.7 0.7-0.6 0.3-0.5 0.1-0.5 0.1-0.8 0.1-0.4 0-0.4 0-0.7-0.3-0.4-0.2-0.8 0.1-0.4 0.2-0.2 0.4-0.4 0.9-0.6 0.7-0.4 0.4-0.2 0.4 0 0.4 0.1 0.4 0.1 0.3 0.1 0.3-0.1 0.3-0.1 0.4 0 0.3-0.1 0.4 0.1 0.8 0 0.5-0.2 0.5-1.4 0.4-2 0.2-18.2-4.5-5.3-1.8-2.1-1.5-1.3-1.3-0.7-1.7-0.4-0.5-0.3-0.3-0.4-0.4-0.6-0.2-0.8-0.1-1.1 0-3 0.6-1.1 0.1-2-0.4-1.4-0.1-8.8 1.7-1.3 0.8-1.1 1.2-1.1 2.5-1 3.7-0.9 1.5-0.7 0.9-1 0.9-4 2.3-1.2 0.5-0.9 0-0.7-0.1-0.9-0.2-0.8 0-2.6 0.5-0.6-0.1-0.5-0.4-0.4-0.5-0.5-0.5-0.5-0.3-1 0-0.9 0.3-6.7 3.8-1 0.8-0.8 0.5-0.4 0.4 0.1 0.5 0.6 0.7-0.3 1.5-2.3 2.7-0.5 2.1 0.2 5-0.3 2.5-0.5 1.1-0.4 0.7-0.4 0.8-0.1 1.4 0.3 0.5 1.4 1.7 0.1 0.3 0.6 2.1-1.3 0.4-1.4-0.2-1.2 0.2-0.3 1.5 1.2-0.2-0.6 1.3-1.3 1.5-1.1 0.7-1.3 0.5-0.3 0.3-0.2 0.1-1.2 1.6-3.8 3.1-0.1 1-6.1-3-4.6-1.5-5.9-0.8 0.7-3.4 3-3 2.5-2 0.8-0.3 0.6-0.1 0.8 0.3 1.2 0.8 2.7 2.3 0.8 0.5 0.5-0.1 0.8-1.3 1.5-1.5 0.5-0.7 0.3-0.7 0.4-2.6 1.2-2.9 0.9-3.8 0.3-5.6-0.2-1.1-1.6-2.5-0.5-1.1-1.2-4.1-0.5-0.9-0.8-0.5-1-0.2-1.2-0.1-0.8-0.2-0.6-0.7-0.3-2.2-0.2-1.1-0.6-1.2-0.6-2.2-0.5-1.1-1-1.2-1.8-1.4-0.4-0.7 0-1 0.4-0.9 2.9-4.2 0.7-1.4 0.5-1.2-0.1-1.6-1.5-5.6-0.4-3.6 0.2-0.6 0.7-2.4 0.1-0.6-0.1-0.7-0.4-0.7-0.9-0.9-1-0.4-0.7-0.2-2.3 0-0.5-0.1-0.4-0.3-0.3-0.5-0.5-1.1-0.7-0.8-0.5-0.5-0.6-0.9-0.6-1.2-2-5.7-0.6-0.8-0.4-0.6-0.4-0.5 0-0.7 0.2-0.4 0.3-0.4 1.5-0.9 0.3-0.4 0.2-0.4 0-0.5-0.1-0.7-0.2-0.8 0-0.4 0.1-0.4 0.3-0.3 0.3-0.4 0.1-0.4 0-0.6-1.1-3.5-0.1-2.7-0.3-0.6-1.3-1-0.4-0.7-1.9-12.2 0.2-6.7-0.3-1-0.8-0.7-1.4-0.6-1-0.1-0.9 0-0.6 0.2-0.7 0-3.7-0.1-1-0.4-0.7-0.7-0.6-1.2-0.1-1 0.8-7.4-0.1-1.3-0.1-0.9-0.2-0.6-0.5-1.1-0.7-1-1.1-1.2-1.6-1.5-1.7-1.2-1.6-0.8-4.8-1-1.5-0.7-1.5-1.2-2.1-2.3-2.9-2.5-0.5-6.4-1.3-3.1-0.1-0.7 0.2-0.9 1.2-2.2 0.3-0.8 0.1-1-0.1-1.2 0.3-1.6 1.4-1.9 4.4-0.7 11.1-0.7 3.1-0.9-0.1-2.5-2.1-5-0.3-1.5 0.6-1.2 1.3-1.1 2.6-1.6 1.3-0.9 0.7-1 0.9-1.4 1.4-0.4 1.1-0.1 1 0 0.8 0.3 1.8 0.7 0.8 0.2 0.6-0.1 0.5-0.6 0.7-1.7 0.4-0.5 0.5-0.2 2-0.3 1.2-0.5 4.7-2.5 1.3-0.2 0.6 0.1 0.3 0.3 0.4 0.9 0.3 0.6 0.5 0.7 0.8 0.6 1.6 1.2 0.7 0.6 0.5 1 0.4 1.1 0.5 1.1 0.7 0.7 1.1 0.5 1.6 0 1.9-0.4 2-0.5 1.5-0.7 0.6-0.8 0-0.7-0.3-0.5-1-0.8-0.5-0.6-0.2-0.7-0.1-0.8 0.3-1 2.3-5.4 0.2-0.6 0.1-1-0.1-0.7-0.2-0.7-2.2-4-0.3-0.8-0.1-0.5-0.1-1.8 0.2-1.3 0.4-1.2 0.6-1.1 0.9-1.1 0.6-0.6 0.6-0.3 1.8-0.6 1.5-0.2 1.6-0.1 1.5 0.4 2.7 1.4 1.2 0.4 13.6 1.4 1.1-0.2 0.5-0.1 1.4-1.5z" id="CFHK" name="Haute-Kotto">
  </path>
  <path d="M733.1 330.2l0.5-1.4 0.3-0.1 0.5 0 0.6 0 1-0.2 0.3-0.3 0-0.2-0.2-0.2-0.3-0.1-0.2-0.7-0.2-0.3-0.3-0.3-0.2-0.3 0-0.5 0.2-0.3 0.3-0.2 0.8-0.1 0.4-0.2 0.4-0.2 0.7-0.7 0.1-0.4-0.1-0.9 0.2-0.7 0.3-0.3 0.4-0.3 0.4-0.1 0.1-0.3-0.1-0.2-0.3-0.2-0.4-0.1-0.2-0.2-0.2-0.2-0.3-0.7-0.3-1.7 0.3-0.4 1.4-1.3 0.5-0.4 0.5-0.2 0.8 0.1 0.4 0 2.1-0.8 0.3-0.1 0.8 0.1 0.8 0 0.3 0.1 0.3 0.1 0.3 0.1 0.4 0.1 1.2-0.1 1.6-0.5 0.3-0.2 1.1-1.7 0.4-0.3 0.3-0.1 0.7 0.3 0.4 0 0.3-0.3 0.7-1.5 0-0.5 0-0.5-0.2-1.3-0.1-0.3-0.4-1-0.1-0.4 0-0.5 0.7-2.1 0.1-0.4 0-0.4 0-0.4 0-0.4-0.1-0.4 0-0.6 0.1-0.6 0.3-1.2 0.1-0.6 0-0.5-0.2-0.3-0.3-0.2-0.6-0.3-0.3-0.2-0.1-0.3 0-0.3 0.1-0.5 0.1-0.5 0-0.3-0.3-0.2-0.3-0.1-0.6 0.2-0.3 0.1-0.2-0.2-0.1-0.4 0.2-0.8 0.1-0.5 0-0.5-0.2-0.3-0.1-0.3-0.1-0.4-0.1-0.4-0.1-0.5 0.1-0.7 0.4-1.5 1.1-2.6 0.8-1.1 0.5-1.3 0.8-1 1.2-2.9 0.5-0.8 0.4-0.5 0-0.2-0.3-0.1-0.6-0.3-0.6-0.3-0.4-0.3-0.3-0.1-0.1-0.3-0.1-0.4 0.1-0.5-0.1-0.3-0.2-0.2-0.4-0.1-0.3-0.2-0.3-0.2-0.9-2.7-0.4-0.7-0.8-0.9-0.4-0.6-0.2-0.3-0.5-1.8 0.3-5.8-0.1-0.3-0.3-0.5-0.1-0.3-0.3-0.2-0.1-0.6-0.1-0.7 0.1-1.7-0.1-0.9-0.2-0.9-0.6-1.2-0.4-1.3-0.3-1.7-0.3-2.8-0.1-0.8-0.3-0.6-0.2-0.7 1.6-7.1 0-1.8-0.2-1-0.9-0.6-0.4-0.3-0.7-0.8-0.4-0.4-0.4-0.2-0.4-0.5-0.3-0.7-0.3-1.5-0.3-0.9-0.5-0.6-0.5-0.2-1.2-0.3-0.7-0.3-1.2-0.7-3.8-3.1-2.6-2.6 1.3 0.1 1 0 0.5 0.1 0.5 0.3 1.2 0.9 0.3 0.2 4.5-1.6 2.4-0.2 1.7 1.6 0.2 0.6 0.4 0.5 0.5 0.3 0.7 0.1 2.2 1.4 2.2 0.1 4.9-0.8 3.9 0.7 1.4 0 1.4 0.2 2.2 1.2 4 0.5 2.2 1 6 5.5 0.7 1.2 0.2 2.5 1.4 1.5 0.1 1.2 0.4 0.5 0.5 0.5 0.5 0.4 0.6 0.3 3.4 3.8 2.1 1.6 2.1 0.8 0.9-0.1 2.2-0.5 1 0 1.7 0.3 0.5 0.3 0.3 0.4 0.5 0.4 1.7 0.6 0.9 0.9 0.7 1.1 0.7 2.2 1.1 1.9 0.3 1.2 0.1 1-0.3 3 0.3 1.1 0.4 1 0.2 1-0.3 1.2-1.6 1.4-4.6 1.6-1.5 1.4 0 0.9 0.3 1.1 1.5 3.5 4.1 2.2 1 0.6 0.4 0.5 0.7 1.1 0.4 0.5 0.5 0.3 1.2 0.4 0.5 0.3 0.5 1 0.5 2 0.3 1.1 0.8 1 0.9 0.7 3.9 1.9 2.7 2.1 1.8 0.8 1.4-0.4 1.1 0.2 1.1 0.6 3.1 2.9 1.1 0.6 4.3 1.1 1.3 0.5 1.7 1.4 0.5 0.1 1.4 0 0.7 0.3 1.1 1.1 0.7 0.2 1.8 0.1 0.4 0.6 0 0.9 0.6 1.1 1 0.4 3.2 0.3 1.1 0.6 0.3 0.5 0.2 1.3 0.3 0.7 2.2 1.2 0.7 0.2 1.4 0.2 0.7 0.3 0.4 0.5 0.1 0.5 0.1 0.5 0.9 0.2 3.1 0.2 0.4 1.6 0.3 3.7 0.6 1.5 0.4 0.3 0.4-0.1 0.5-0.1 0.4 0 0.3 0.3 0 0.3-0.2 0.5 0.1 0.4 0.2 0.9 0.2 0.8 0.2 0.8 0.7 0.8 1.6 1 1.3 0.3 1.1 0.5 2.1 2.7 2.9 2 1.1 1.2 2.4 1.3 4.1 1.5 3.4 1.9 0.1 1.6 0 0.8-0.5 0.7-1.1 2.1-2.2 3-1.4 2.8-0.6 0.5-0.7 0.4-0.6 0.5-0.5 0.8 1.3 0.4 0.1 1-0.4 1.4-0.1 1.2 0.4 1.5 0.8 0.6 1.1 0.5 1.3 0.7 1.2 1.2 1.6 2.2 1.4 0.8 2.8 0.7 1.2 0.8 0.2 1.8 0 1.7 0.7 0.4 1-0.1 1.1 0.3 0.9 1.1 0.1 1.3-0.7 1.3-1.2 1-1.2 0.7-1.4 1-1.1 1.2-0.6 1.3 0.3 1.5 1.1-0.3 2.8-2 1.2 0.4 0.8 1.2 0.5 1.5 0.7 1.3 1.1 0.8 4.1 1.5 2.2 0.2 5-0.2 4.9 2 1.3 0.8 0.7 0.9 0.4 3.1 0.6 1.3 1.6 0.7 1.6-0.1 1.2-0.4 0.8 0.1 0.7 1.6 0.9 1.2 1.5 0.1 3-0.7 0.7 0.8 0.9 2 1.2 0.9 0.6 1.1 0.4 0.3 0.7 0.1 1.2-0.5 0.7 0 2.9 1.1 0.6 0.5 0.5 1.2 0.1 0.7 0.3 0.5 1.4 0.5 1 0.5 0.8 0.9 0.6 1.1 0.2 1.1 0 0.6 0.2 0.4 0.3 0.3 1.2 0.8 0.1 0.4-0.2 0.5-0.1 1.2-0.3 1 0 0.5 0.4 0.6 0.4 0.1 0.3-0.2 0.3 0 0.3-0.1 0.3-0.2 0.6-0.1 0.6 0.5 0.3 0.6-0.2 1.2 0.2 0.7-2.9 7.6-0.1 1.1 0.1 0.9 0.6 1.8 0.4 3.4 0.3 1.1 1.8 4.4 1.2 2 1.4 1.8 4 2.7 1.9 1.6 1.1 2.8 2 1.4 0.7 0.9-0.3-0.1-0.3-0.4-1.2-0.7-1.4-0.6-0.6-0.1-0.9-0.1-0.9-0.4-1.4-0.4-0.5-0.3-0.6-0.5-0.4-0.3-0.8-0.1-0.1 0-0.9-0.4-0.2-0.1-1.5-0.4-0.8-0.1-1.7-0.7-2.5-1.4-1-0.9-0.6-0.3-1.1-0.7-1-0.3-2.2-0.2-2.3 0.2-0.2 0.1-0.6 0.1-0.7 0.3-0.4 0.2-1.6 0.5-0.7 0.4-0.3 0.3-0.9 0.7-0.2 0.1-0.9 0.5-0.4 0.1-0.7 0.3-0.2 0.3-0.8 0.2-0.5 0.5-0.1 0-0.8 0.3-0.2 0.4 0.1 0.2-2.1 2.2-0.3 0.6-0.3 0.8-0.3 0-0.1 0.4 0 0.1 0.1 0.2-0.1 0.1-0.4 0.6-0.8 0.8-0.3 0.3-0.6 0-0.2-0.1-0.1-0.2-0.5-0.2 0.2-0.4-0.3-0.3-0.8-0.1-0.2-0.2-0.2 0.1-0.2 0.5-0.1 0.1-0.1 0.1-0.1 0-1-0.1-0.1-0.1-0.2-0.5-0.4 0-0.2-0.3-0.2-0.3 0.1-0.4-0.6-0.2 0.3-0.4-0.2-0.4-0.3 0.2-0.5-0.1-0.2 0-0.1-0.2 0.2-0.2-0.1-0.2 0.1-0.5-0.4 0.2-0.7-0.2-0.1 0.1-0.1 0.2-0.3-0.5-0.6 0.1-0.6 0.5-0.4-0.3-0.1 0-0.1 0.4-0.3 0-0.1-0.4-0.5-0.2-0.1 0.6-1.3 0-0.2 0.1 0.1-0.1-0.1-0.2-0.3 0-0.2 0 0 0.1-0.1 0.1 0.1 0.2 0.1 0.1-0.1 0-0.9 0.8-0.3 0.1-0.1 0-0.5 0-0.2-0.1-0.1-0.5-0.2 0-0.2 0-0.3-0.2 0 0.1-0.2 0.4-0.5-0.1-0.2 0.2 0.2 0.3 0.1 0.3-0.2 0.3-0.3 0-0.1-0.1-0.2-0.2 0.1-0.2 0-0.4-0.5 0 0.4-0.5-0.1-0.1-1.1 0.4-0.1 0.1 0 0.1-0.3-0.1-0.5 0.2-0.1-0.3-0.1 0-0.2 0 0 0.3-0.1 0-0.4-0.2-0.2 0-0.2 0.5 0 0.1 0 0.3 0.1 0 0.1 0.1-0.2 0.2-0.5 0-0.3-0.2 0-0.7-0.2 0-0.1 0.1-0.1 0.5-0.2 0.2-0.1 0.1 0.2 0.3-0.3 0.2-0.5 0.2-0.1 0.1 0.2-0.3 0-0.4-0.1-0.4-0.5 0.1-0.2 0.3 0.1 0.4-0.3 0.6-0.6 0.1-0.1 0-0.2-0.3-0.3 0.3-0.5 0 0-0.1-0.1-0.4-0.2-0.1-0.4 0 0 0.1-0.1 0.2-0.6-0.2 0-0.2 0.1-0.1-0.1-0.2-0.4 0.2-0.6-0.4-0.3 0.3-0.2 0 0-0.1-0.1-0.4-0.4-0.6 0.4 0 0-0.1-0.3-0.7 0-0.2 0.1-0.4-0.1-0.1-0.4 0-0.3 0.3-0.3-0.8 0-0.1-0.1-0.6-0.1 0-0.4 0.2-0.1 0-0.2-0.2-0.5-0.3 0-0.3-0.3 0.1-0.1 0-0.2-0.1-0.1-0.1 0.2-0.5-0.1-0.1-0.6 0-0.1 0.1-0.3-0.2-0.6-1.1-0.1 0.1-0.1 0-0.1 0-0.5 0-0.4 0.3-0.5 0.1-0.4-0.1-0.5-0.7-0.2-0.1-0.1 0.2-0.4 0.3-0.5 0-0.2-0.1-0.2 0-0.2 0.1-0.6 0.1-0.1-0.3-0.1-0.2-0.1 0.1-0.2 0-0.1 0.3-0.6-0.1-0.1-0.1-0.2-0.2-0.2-0.5-0.1 0-0.1 0.1-0.6 0.3-0.1-0.3 0.4-0.4-0.1-0.3-0.2-0.1-1.8 0.1-0.2-0.2 0-0.2 0.4-0.7-0.4-0.4 0-0.1-0.1-0.4-0.3 0-0.2 0.2-0.1 0.4-0.2 0.1-0.3 0.1-0.1-0.4-0.3-0.4 0.6-0.5-0.2-0.2-0.2 0-0.3 0.1-0.5 0 0 0.3-0.4 0.1-0.1-0.2-0.4-0.3 0.6-0.4-0.5-0.5-0.1-0.4 0.1-0.4-0.2-0.3-0.4 0-0.2 0.2 0 0.1-0.1-0.4-0.2 0.2-0.4 0.4-0.1-0.3-0.1-0.5-0.2 0-0.2 0.2-0.1 0.2-0.2 0-0.1 0.1-0.3-0.3-0.8 0.3-0.1-0.2 0.4-1.3-0.2-0.2-1 0-0.4-0.3-0.3-0.1-0.2 0.1 0.1 0.4-0.4-0.1-0.3 0.7-0.4 0.5-0.5 0.2-0.5 0-0.5-0.1-0.3-0.1-0.4-0.2 0.3 1.7 0.2 0.6-0.6-0.3-0.7-0.1-0.4 0.3-0.2 0.8-0.4 0.1-0.4 0-0.2-0.2 0-0.8-0.2 0-0.3 0.2-0.3 0.6-0.3 0-0.7-0.3-0.1 0-0.2 0.1-0.5 0-0.4-0.2-0.1-0.3 0.2-0.6 0-0.1-0.2-0.4-0.2-0.1-0.4 0-0.2 0.3-0.1 0.2-0.1 0.1-0.1 0-0.2-0.1-0.1-0.1-0.3-1.1-0.5 0.3-0.1 0.2-0.4 0.4-0.5 0.2-0.3 0.6 0 1.3-0.3-0.2-0.3-0.3-0.5-0.2-0.4 0.1-1.8 0-0.5 0-0.7 0-0.1-0.1-0.4-0.5-0.2-0.3-0.5-0.1-0.7 0-0.3 0-0.3 0.1-0.6 0-0.2 0.5-0.7 0.8-0.5 0.2-0.3-0.2-0.2-0.4 0-0.1-0.1-0.7-0.2 0-0.3-0.3 0-0.3 0.2-0.3 0.1-0.6 0.2-0.3-0.1-0.2-0.1-0.1-0.6 0.2-0.2 0.1-0.1 0.1-0.4 0.1-0.3 0.1-0.1-0.4 0.4-0.3 0.1-0.3-0.1-0.7-0.5-0.7-0.3-0.1-0.6 0.4-0.6 0.3 0.1 0.3 0.1 0 0.3 0 0.2 0.1-0.6 0.9-1 0.1-0.8-0.4 0-0.1-0.4-0.7 0-0.3-0.3 0-0.5 0.1-0.7-0.7 0-0.1-0.3-0.2 0-0.1-0.1-0.9-0.3-0.3-0.3-0.2-0.9-0.1-0.4-0.3-0.4 0-0.4-0.5-0.1 0-0.2 0.1-0.3 0.2-0.2-0.1-0.1-0.1 0.1-0.7-0.1-0.3-0.2-0.2-1 0.1-0.3 0.3 0 0.1-0.2 0.2-0.4 0.5-0.3 0 0-0.2 0-0.1 0-0.1-0.2-0.3-1 0 0-0.4 0.3-0.2 0.2-0.3 0.1-0.1 0.4-0.2 0.2-0.2-0.3-0.4-0.3-0.1-0.5 0.1-0.5 0-0.2 0.1-0.3 0-0.3-0.4-0.2-0.8-0.2-0.2 0.1-0.3-0.5-0.4-0.5-0.1-0.2 0-0.7 0.1-0.4-0.1-0.6-0.6-0.2 0-0.2 0-0.2 0.2-0.1 0-0.1 0.4 0.1 0.3-0.3 0 0.6 1.3-0.2 0-0.7 0.1-0.6 0.3-0.6 0.3-0.3-0.2-0.3-0.8-0.3-0.4-0.3-0.1-0.3 0-0.2 0-0.2 0.2-0.1 0.1 0 0.4-0.1 0.2-0.8 0.4-0.3-0.2-0.3 0.1-1 0.5-0.7 0.8-0.1 0.1-1.5 0.3-0.2-0.2-0.1-0.9-0.3-0.2-0.3 0.2-0.1 0.3 0 0.2-0.2-0.1-0.7 0.9-0.2 0-0.5 0-0.6 0.4 0 0.1-0.2 0.2 0.8 1.3-1.4 0.4-0.9 1-0.4 1.5-0.1 1.6-0.5 0.9-0.8 0.9-0.6 1.2 0.4 1.5 0.5 0.3 0.7 0.2 0.1 0 0.1 0.2 0.2 0.2 0.3 0.1 0-0.1 0.3 0 0.2 0.1 0.1 0.6-0.4 1.3-0.1 0.8-0.2 0.4-1 1.2-0.3 0.8 0 1.7-0.3 0.7-0.5 0.5-0.5 0.1-0.3 0.1-1 0.2-0.2 0-1.5 0.1-0.1 0.1-0.3 0-0.4 0.1-0.7 0.5-0.5 0.3-0.5 0-1-0.3-0.3 0-0.2 0-0.3 0.3-0.1 0.1-0.1 0.3-1.2 0.1-0.7-0.6-0.1-0.5-0.2-0.3-0.2-0.1-0.4 0-0.2 0.1-0.1 0.1-0.1 0.2-0.1 0.6-0.5-0.3-0.8 0-0.5 0.7-0.5 0.4-0.6 0.2-0.3 0.3-0.8 1.4-0.4 1.5-0.6 0.1-0.9-0.2-0.1-0.2-1-0.5-0.9 0-1-0.6-0.2-0.6-0.4-0.5-0.7-0.3-0.1 0-1.1 0-0.8 0.2-0.2 0-0.8 0-0.5 0.2-1.3 1-0.3 0.2-1.6 0.3-0.6 0.3-0.4 0-0.1 0.2 0 0.1-0.1 0.1-1.3 0.9-1.2 0.4-0.7-0.1-0.6 0-0.4-0.2-0.5-0.2-0.6 0.3-0.8 0.8-0.7 0.7-0.6 0 0-0.1-0.3-0.2-0.2 0.1-0.5-0.5-1.2 0.7-1.3 0.1-0.3 0-0.1-0.3-0.3-0.1-1.1 0-0.8 0.2-2-0.3-0.5-0.2 0.7-0.6 0.4-0.9 0.2-0.7-0.2-0.7-0.1 0.1-0.9-0.2-0.5-0.2-1.3-0.1-0.2-0.5-0.1-0.2-0.4-2-0.4-0.8-0.2-0.3-0.3-0.2-0.5 0-0.8 0.1-1.8-0.4-1.2-0.9-0.3-0.4 0-0.6-0.4-0.8-0.3-0.4-1.4-0.4-1.9-1-0.4-0.1 0.9-0.7 0.3-0.5 0.1-0.2 0.1-0.1 0.2 0 0.1-0.1 0.2 0 0.1 0.1 0.3 0.1 1 0.8 0.3 0.2 0.3 0.1 0.4-0.1 0.2-0.2 0.6-0.3 0.2-0.2 0.1-0.2 0.1-0.2 0-0.3 0-0.1-0.1-0.1-0.4-0.2-0.7-0.1-0.3-0.2-0.1-0.4-0.1-0.5 0.3-0.3 0.2-0.3 0.1-0.2-0.1-0.2-0.2-0.3-0.1-0.4 0.1-0.5 0.1-0.3 0.2-0.3 0.3-0.2 0.3 0 0.3 0.2 0.2 0.2 0.2 0.3 0.2 0.2 0.2 0.2 0.1 0 0.2-0.3 0-1.7 0.1-0.3 0.1-0.1 0.4-0.4 0.2-0.3 0.1-0.2 0.1-0.1 0-1.1 0.1-0.3 0.2-0.2 0.3-0.2 0.2-0.2 0.2-0.3 0.1-0.4 0-0.3 0.1-0.1 0-0.1 0.2-0.1 0.1 0 0.2 0.2 0.4 0.4 0.3 0.2 0.3 0 0.3-0.1 0.4-0.1 0.4 0 0.8 0.1 0.8-0.1 0.8 0.1 1.1 0.3 0.2 0 0.3 0 0.1-0.1 0.4-0.2 0.5-0.3 0.4-0.3 0.1-0.2 0.6-0.8 0.1-0.1 0.2-0.2 1.1-0.4 0.2 0 0.1 0 0.3 0.1 0.3 0.1 0.3 0.2 0.3 0.2 0.3 0.1 0.3 0.1 0.2-0.1 0.1-0.2 0.1-0.2 0.1-0.7 0.1-0.4 0.1-0.2 0.2-0.1 0.7-0.1 0.4-0.1 0.3-0.1 0.2-0.2 0.1-0.1 0.9-1.4 0.2-0.3 0.3-0.1 0.3 0.1 0.2 0.1 0.2 0.2 0.3 0.2 0.3 0.2 0.3 0.1 0.5 0.2 0.2-0.1 0.1-0.1 0.1-0.2 0.4-1.8-0.1-1.9 0.1-0.1 0.2 0 0.2 0.3 0.2 0.1 0.2-0.1 0.1-0.2 0-0.8 0.1-0.4 0.1-0.1 0.3-0.2 0.9-0.3 0.1-0.4 0.1-0.3 0-0.7 0.2-0.1 0.2 0 1 0.4 0.3 0.1 0.1-0.1 0.5-0.5 0.1-0.1 0.1-0.1 0.6 0 0.5-0.2 0.3-0.1 0.1-0.2 0.1-0.1 0-0.2 0-0.1-0.6-0.6-0.2-0.3-0.1-0.6 0.1-0.3 0.3-0.2 0.2-0.1 0.3-0.1 0.2 0 0.1 0 0.3 0 0.2 0 0.2-0.1 0.2-0.1 0.1-0.3 0.2-0.2 0.1-0.3 0.1-0.1 0.9-0.4 0.2-0.2 0.2-0.3 0.2-0.3 0-0.2 0.1-0.3-0.1-0.7 0.1-0.3 0.1-0.3 0.1-0.2 0.3-0.3 0.6-0.3 0.6-0.4 0-0.2-0.1-0.1-0.6-0.2-0.9-0.2-0.1-0.2 0-0.1 0.2-0.3 1.3-0.6 0.1-0.2-0.1-0.2-0.4-0.2-0.3-0.4-0.3-0.7 0-0.5 0-0.5 0.2-0.3 0.3-0.1 0.2-0.4 0-0.5-0.3-0.9 0-0.6 0-0.4 0.4-0.7 0.1-0.4 0-0.5-0.1-0.7 0.1-0.5 0.1-0.5 0.3-0.6 0-0.4 0-0.6-0.3-1 0.1-0.4 0.3-0.2 0.3-0.1 0.6-0.4 0.3-0.1 1.2-0.1 0.3-0.1 0.4-0.1 0.2-0.2 0.2-0.3 0.5-0.9 0.2-0.3 0.3-0.2 0.3 0 0.3 0.1 0.3 0.2 0.2 0.2 0.8 1.8 0.3 0 0.1-0.2 0.1-0.4 0.1-0.8 0.1-0.4 0.2-0.2 0.1-0.4 0-0.4-0.1-0.8 0.1-1.3 0.6-1.9 1.3-1.8 0.1-1-0.4-1.1-1.4-1.8-1.2-0.6-0.9-0.1-0.7 0.2-0.6 0-0.7-0.3-0.5-0.8-0.3-0.6-0.4-0.8-0.4-0.7-1.2-1.3-0.3-0.7-0.1-0.5 0-0.4-0.2-0.5-0.4-0.4-0.7-0.1-1.3 0-0.5-0.2-1.2-1.8-8.9-7.9-0.9-1.2 0.1-0.4 0.3-0.1 2.4 0.8 1.2 0.3 1.2 0.1 1-0.1 1.5-1.1 0.7-0.3 1.4-0.4 0.4-0.3 0.3-0.3 0.4-1.8 0.4-1 0.6-0.4 0.8-0.2 1.3 0 0.9-0.2 0.5-0.6 0.2-1 0-1.2-0.2-0.9-0.7-1-0.8-0.9-3.2-2.7-2.5-1.7-1.8-0.8-1.2-0.9-1.7-1.5-1-0.5-1.3-0.2-3.9 0.3-1.1 0.3-1.6 1-4.2 4.1-1.3 0.9-1 0.3-2-0.4-1.1 0-0.9 0.3-0.7 0.4-4.8-3.9-19.6-21.5z" id="CFHM" name="Haut-Mbomou">
  </path>
  <path d="M426.5 448.7l-0.6-0.9-0.8-1-1-0.6-3.1-1.5-2.2-0.4-1.4-0.7-0.6-0.1-7.9-0.2-2.6-1.2-1.4 0.3-2.2 1.1-1.4 0.1-4.6-0.1-1.5 0.3-1.1 1-0.3 0.4-0.8 0.8 0 0.1-0.2 0.3-0.3 0.6-6 3.7-3.3 1.5-0.5 0.6-1.1 1.8-1.3 1.8-1.1 0.3-3.2 0-1.2 0.4-0.7 0.6-0.2-2.1 0.3-2.3-0.1-0.3-1-2.6-6.5-8.8-0.6-1.6-0.1-1.7 0.4-1.7 1.8-5.3 0.3-1.7-0.2-1.2-0.6-1.6-1.5-2.7-0.8-1.1-0.7-0.6-1.5-0.9-2.5-1.8-1-1.2-0.8-1.4-1-6.8-0.5-1.2-0.8-0.6-7.9-1.2-1.2-0.1-2.5-1-3.7-4.3-0.7-3.7 0.1-3.3-0.3-1.2-0.5-1.7 0-1.3 0.2-1.4 0.8-1.9 0.1-1.2-0.1-1.1-0.2-1.3 0-0.5 0.1-0.4 3.7-1.5 1.3-0.9 2.3-1.2 1.2-0.9 3.8-3.6 2.4-1.9 1.3-1.3 0.5-0.3 2.2-0.9 0.8-0.8 0.3-0.6-0.2-0.5-0.5-0.3-1.5-0.6-0.6-0.6-0.4-0.9-0.2-1.3-0.1-1.8 0.2-4-0.3-1-0.7-1-6.3-6.3-0.9-1.4-0.2-0.8 0.1-0.5 0.1-0.2 0.4-0.8 15.6-2.1 2.6 0 1.7 0.5 0.6 0.9 0.8 1.6 1.1 1.5 1.2 1 1.6 0.9 2.6 0.8 1.8 0.3 1.3-0.1 2.9-0.8 4.8-0.5 11.3-2.9 4.6-0.3 14.5 1.8-0.3 1.8 0.1 0.4 0.2 0.6 0.3 0.6 0.5 0.6 0.6 0.6 0.7 0.5 0.7 0.4 2.2 0.9 1.1 0.6 1.5 1.1 1 1.5 0.3 1.2-0.3 1.5-1.2 3.3-0.3 1.5 0.2 0.8 0.9 1.4 0 0.6-0.5 0.6-1.3 1.3-0.4 0.8 0.1 0.6 0.6 1.4 0 0.4-0.3 0.4-0.3 0.2-0.4 0.5-0.6 1-0.9 1.3-0.9 1.7-0.4 0.4-0.5 0.2-0.6 0-1.2-0.2-0.4-0.1-0.4 0-0.5 0.1-0.4 0.2-0.4 0.2-0.3 0.1-0.2 0.3-0.2 0.2-0.3 0.7-0.8 1.1-5.9 4.6-1 1.3 0 0.9 1.7 6.4 0.1 0.8 0 0.5-0.1 0.2-0.9 0.9-0.1 0.4 0 0.3 0.3 0.2 0.3 0.2 2.8 0.8 0.5 0.6 0.3 1 0.1 2.2-0.4 1.4-0.8 1.4-6.4 5.2-0.9 0.5-3.2 0.5-0.7 0.2-0.7 0.4-0.6 0.8 0 0.5 0.2 0.4 0.5 0.4 0.4 0.5 0.4 0.5 0.7 1.5 1.3 0.3 29.6 0.2 3.5 0.6 1.3 0.9-0.1 1.1-0.2 0.9-0.3 0.7-0.3 0.5-0.6 0.7-0.4 0.5-0.8 2.1-0.7 1.1-0.3 0.7-0.2 1.3-0.1 4.5-0.3 1.2-0.2 1 0 2.1-1.2 4.9-1.2 2.1-0.9 1.1-1 0.5-0.6 0.3-1.5 1z" id="CFKG" name="Kémo">
  </path>
  <path d="M515.1 263.5l2.9 2.5 2.1 2.3 1.5 1.2 1.5 0.7 4.8 1 1.6 0.8 1.7 1.2 1.6 1.5 1.1 1.2 0.7 1 0.5 1.1 0.2 0.6 0.1 0.9 0.1 1.3-0.8 7.4 0.1 1 0.6 1.2 0.7 0.7 1 0.4 3.7 0.1 0.7 0 0.6-0.2 0.9 0 1 0.1 1.4 0.6 0.8 0.7 0.3 1-0.2 6.7 1.9 12.2 0.4 0.7 1.3 1 0.3 0.6 0.1 2.7 1.1 3.5 0 0.6-0.1 0.4-0.3 0.4-0.3 0.3-0.1 0.4 0 0.4 0.2 0.8 0.1 0.7 0 0.5-0.2 0.4-0.3 0.4-1.5 0.9-0.3 0.4-0.2 0.4 0 0.7 0.4 0.5 0.4 0.6 0.6 0.8 2 5.7 0.6 1.2 0.6 0.9 0.5 0.5 0.7 0.8 0.5 1.1 0.3 0.5 0.4 0.3 0.5 0.1 2.3 0 0.7 0.2 1 0.4 0.9 0.9 0.4 0.7 0.1 0.7-0.1 0.6-0.7 2.4-0.2 0.6 0.4 3.6 1.5 5.6 0.1 1.6-0.5 1.2-0.7 1.4-2.9 4.2-0.4 0.9 0 1 0.4 0.7 1.8 1.4 1 1.2 0.5 1.1 0.6 2.2 0.6 1.2 0.2 1.1 0.3 2.2 0.6 0.7 0.8 0.2 1.2 0.1 1 0.2 0.8 0.5 0.5 0.9 1.2 4.1 0.5 1.1 1.6 2.5 0.2 1.1-0.3 5.6-0.9 3.8-1.2 2.9-0.4 2.6-0.3 0.7-0.5 0.7-1.5 1.5-0.8 1.3-0.5 0.1-0.8-0.5-2.7-2.3-1.2-0.8-0.8-0.3-0.6 0.1-0.8 0.3-2.5 2-3 3-0.7 3.4-2 4.2-2.2 1.5-1 0.2-0.7 0.1-0.5-0.1-0.6-0.4-1.1-1.8-0.2-0.2-1.7-0.7-0.7-1.4-0.2-0.7-1.4-2.4-0.2-0.6 0.1-0.4 0.1-0.4 0.2-0.5-0.1-0.8-0.1-0.6-0.3-0.6-1.1-1.4-0.8-1.5-0.7-1-0.6-0.4-1-0.5-0.6-0.5-0.9-1.4-0.3-0.2-0.3 0.1-0.2 0.3-0.5 0.9-0.3 0.5-0.4 0.4-0.6 0.2-0.4-0.2-0.9-1-0.4-0.2-0.3 0.1-0.4 0.2-0.4 0.4-1.4 1.7-0.5 0.4-2.6 1.3-0.7 0.3-1.1 0.1-0.7-0.1-2.3-1.2-0.5-0.1-0.4 0.1-0.2 0.2-0.4 0.4-0.3 0.2-0.5 0.1-0.6 0.2-1.2 0-0.5-0.2-0.5-0.4-1-1.9-0.5-0.6-0.7-0.5-1-0.6-0.7-0.2-0.6-0.2-0.5 0-0.5 0.2-0.2 0.3-0.2 0.5 0.1 0.6 0.2 0.6 0.3 0.5 0.7 0.9 0.3 0.4 0.2 0.4 0 0.4-0.1 0.5-0.2 0.6-0.3 0.4-1.4 1.4-0.3 0.3-0.1 0.4 0 0.4 0.4 1.8 0 0.5-0.2 0.5-0.2 0.3-0.5 0.3-0.5 0.2-3.5 0.7-0.8 0.3-0.4 0.3-0.1 0.3 0.1 0.4 0.1 0.3 0.3 0.3 0.2 0.2 0.2 0.1 1.1 0.5 0.4 0.2 0.4 0.3 0.2 0.3 0.1 0.4-0.1 1.4 0.1 0.6 0.4 1.5-0.1 0.4-0.1 0.3-1.2 1-0.5 0.8-0.3 0.9 0.3 4.4-0.3 5.8-0.4 1.3-0.6 1.2-1.7 2.2-0.6 1-0.4 0.9-0.1 1 0.1 0.8 0.3 1 1.7 3.6 0.3 0.9 0 0.7-0.2 0.5-0.4 1-1.6 2.3-0.5 1-0.2 1 0.1 1.2 0.6 4 0.1 1.1-0.2 1.2-0.6 1.3-0.9 0.9-1 0.5-1 0.1-0.8-0.1-1.5-0.4-0.9 0.1-1 0.4-2.7 1.7-3 1.4-0.9 0.8-5 6.4-3.9 3.8-1.6 1.2-6.4 3.4-0.2-0.3 0-0.1-0.2-1 0-1.4 0.1-0.7 0.2-0.6 0.4-1.1 0-0.2 0-0.3-0.1-0.5-0.1-0.1-0.3-0.8 0-0.1-0.1-0.1-0.1-0.1-0.1-0.1-0.1-0.2-0.1 0-0.4-0.3-0.7-0.6-1-1.2-0.8-0.9-0.3-0.2-0.5-0.4-0.2-0.2-1.1-2.5-1.4-2.1-1.1-1.2-1.1-0.5-1.5-0.2-3.2-1.1-1.3-0.6-1.3-1.1-3.2-3.9-1.3-0.9-4.7-1.8-1.8-1.2-0.6-0.9-1-0.8-0.9-0.6-0.7-0.1-0.7-0.5-6.2-1.3-1.7-0.6-0.7-0.9-0.3-1.1-1.2-2.1 1.5-1 0.6-0.3 1-0.5 0.9-1.1 1.2-2.1 1.2-4.9 0-2.1 0.2-1 0.3-1.2 0.1-4.5 0.2-1.3 0.3-0.7 0.7-1.1 0.8-2.1 0.4-0.5 0.6-0.7 0.3-0.5 0.3-0.7 0.2-0.9 0.1-1.1-1.3-0.9-3.5-0.6-29.6-0.2-1.3-0.3-0.7-1.5-0.4-0.5-0.4-0.5-0.5-0.4-0.2-0.4 0-0.5 0.6-0.8 0.7-0.4 0.7-0.2 3.2-0.5 0.9-0.5 6.4-5.2 0.8-1.4 0.4-1.4-0.1-2.2-0.3-1-0.5-0.6-2.8-0.8-0.3-0.2-0.3-0.2 0-0.3 0.1-0.4 0.9-0.9 0.1-0.2 0-0.5-0.1-0.8-1.7-6.4 0-0.9 1-1.3 5.9-4.6 0.8-1.1 0.3-0.7 0.2-0.2 0.2-0.3 0.3-0.1 0.4-0.2 0.4-0.2 0.5-0.1 0.4 0 0.4 0.1 1.2 0.2 0.6 0 0.5-0.2 0.4-0.4 0.9-1.7 0.9-1.3 0.6-1 0.4-0.5 0.3-0.2 0.3-0.4 0-0.4-0.6-1.4-0.1-0.6 0.4-0.8 1.3-1.3 0.5-0.6 0-0.6-0.9-1.4-0.2-0.8 0.3-1.5 1.2-3.3 0.3-1.5-0.3-1.2-1-1.5-1.5-1.1-1.1-0.6-2.2-0.9-0.7-0.4-0.7-0.5-0.6-0.6-0.5-0.6-0.3-0.6-0.2-0.6-0.1-0.4 0.3-1.8 2.2-0.3 2.8 0.3 1.3 0.6 1.9 1.2 0.6 0.2 0.4 0 0.1-0.2 0.2-0.4-0.1-0.9-1.2-7.8 0.2-1.8 0.6-1.4 3.4-4.6 0.8-0.8 2.2-1.7 3.3-3.3 0.8-0.6 0.6-0.6 0.6-0.9 0.7-1.4 0.8-1.1 1.9-1.6 0.9-1.2 0.8-1.4 2-5.1 0.5-2.3 0-3.8 0.5-2.6 0.3 0.1 0.1 0.2 0 0.5 0.1 0.4 0.3 0.4 1.3 0.4 1.4 0.4 1.2 0.4 0.4 0.9 0.8 0.7 1.6 0.1 1.7-0.2 1.1 0.1 0.6-0.2 1.6 0.9 0.9 0.3 0.4-0.3 0.6-0.5 0.6-0.3 0.8 0.4 0.4-0.1 2.3-0.2 0.3 0.2 0.2 0.4 0.1 0.3 0.5 0.1 0.5 0 1.3-0.5 1.7-1.3 1.7-1.4 0.7-0.4 0.4 0 1.4 0.5 1.7-0.7 4.2-3.5 0.8-1 0.2-1.1 1.9-5.1 0.8-1 0.9-0.4 2.4 0 0.7 0.1 1.6 0.7 0.8 0.2 0.8 0.1 0.3-0.1 0.3-0.1 0.5-0.4 5-2.2 0.7-0.9 0.5-0.4 2.8-3.7 1.1-1.3 4.9-6.9 0.8-0.8 2.6-2 0.2-0.2 0.2-0.4 0.2-0.5-0.1-0.7-0.2-0.6-1-1.8-0.2-0.7 0-1 0.3-0.9 0.9-0.8 0.6-0.6 0.5-0.5 0.3-0.6 0.5-2.2 0.4-1 0.3-0.6 1.4-1.3z" id="CFUK" name="Ouaka">
  </path>
  <path d="M552.1 414.5l5.9 0.8 4.6 1.5 6.1 3-0.1 3.4 0.2 1.8 0 0.7 0.1 0.4 0.2 0.1 0.1 0.2 0 0.3-0.2 0.9-0.6 1-0.1 0.8-0.2 7.5-0.8 3.9-0.4 1.2-0.9 0.8-2 1.2-2.4 2.1-0.5 0.7 0.2 1.1 2 2.1 0.7 1.1 0 1.5-0.6 1.2-2.6 3.1-0.4 1-0.7 7.4-0.2 1.1-1 1.2-0.4 1.6-0.3 0.6-0.1 0.6 0.5 1.1-0.3 0.4-0.4 0.4-0.2 0.6 0.4 1.2 1 0.6 1.1 0 0.9-0.6 0.4 0 0.1 0.4 0.3 0.4 0.4 0.2 1.1-0.6 0.3 0.5 0.2 1 1.4 0.9 0.9 0.1 1-0.5 0.4 0.7 0.3 0.5 0.8 0.8 0.1-0.2 0.5-0.3 0.5-0.2 0.3 0.1 0.2 0.5-0.2 0.3-0.3 0.3-0.2 0.1 0.5 1.5 1 0.8 1.1 0.7 0.8 1.2-0.2 0.7-0.9 1 0.1 0.6 0.6 0.3 1.9 0.2 0.6 0.2 1 0.3 4-1.4 2.8-0.2 2.3 0.5 1.1 1.5-1 2.9-1.8 2.4-0.7 1.2-0.3 1.5-0.2 0.3-1.5 1.6-0.3 0.6 0 0.8 0.3 3.5-0.2 0.7-0.5 0.9-0.6 0.8-0.5 0.5-0.3 0.7 0 1.3-0.1 0.1-2-0.9-0.5-0.2-0.8 0.1-0.4 0.1-0.3 0.1-0.6 0.3-1.5 0.2-3.7-0.2-1.5-0.3-0.1 0-0.4 0-1.1-0.8-1-0.8-1.2-0.6-0.7-0.1-2 0.1-0.7-0.1-0.4-0.2-0.2-0.3-0.3-0.3-0.2-0.1-0.3-0.4-0.5-0.5-0.6-0.3-0.4 0-0.6 0.1-1.2 0.3-0.4-0.1-0.2 0-0.2 0-0.7 0.3-0.4 0-0.6-0.7-0.6-0.3-0.6 0-0.6 0.5-0.6 0.6-6.2 3.2-0.3 0-3.2-0.7-0.8-0.3 0-0.1-0.7-0.4-0.9-0.2-0.8 0.1-0.1-0.5-1.1-0.4-0.8 0.1-0.9 0.4-0.5 0.2 0 0.1-0.5-0.1-1.1-0.3-1.6-0.8-0.1 0-2.9-1.9-0.4-0.4-0.4-0.5-0.6-0.2-0.1-0.2-0.1 0-0.1 0-0.3-0.2-0.2 0-0.6 0.4-0.9 0-0.5 0.2-0.6 1.2 0 0.2-0.1 0.1-0.1 0.2-0.4 0.5-0.7 0.4-0.8 0.1-0.6-0.4-0.5-0.4-0.7-0.3-1 0-0.6-0.4-0.4-0.4-0.3-0.1 0-0.1-1-0.4-1.3-0.6-0.2-0.3-0.2-0.2-0.5-1.1-0.4-0.8-0.8-0.7-0.2-0.1-0.1-0.3-0.7-0.5-0.2 0-1.1-0.4-0.2-0.1 0-0.1-0.1 0-6.2-2.3-6.4-1.3-2.7 0.1-1 0.5-0.8 0.7-1 0.6-1.7 0.2-5.5 0-2.1 0.3-0.2-0.2-0.7 0.2-0.6 0.1 0 0.2-2.4 0.3-0.6-0.1-0.3-0.3-0.1-0.1-1.2-0.7-1.1-0.8-0.5 0-2.7-2.6-3.7-3.4 6.4-3.4 1.6-1.2 3.9-3.8 5-6.4 0.9-0.8 3-1.4 2.7-1.7 1-0.4 0.9-0.1 1.5 0.4 0.8 0.1 1-0.1 1-0.5 0.9-0.9 0.6-1.3 0.2-1.2-0.1-1.1-0.6-4-0.1-1.2 0.2-1 0.5-1 1.6-2.3 0.4-1 0.2-0.5 0-0.7-0.3-0.9-1.7-3.6-0.3-1-0.1-0.8 0.1-1 0.4-0.9 0.6-1 1.7-2.2 0.6-1.2 0.4-1.3 0.3-5.8-0.3-4.4 0.3-0.9 0.5-0.8 1.2-1 0.1-0.3 0.1-0.4-0.4-1.5-0.1-0.6 0.1-1.4-0.1-0.4-0.2-0.3-0.4-0.3-0.4-0.2-1.1-0.5-0.2-0.1-0.2-0.2-0.3-0.3-0.1-0.3-0.1-0.4 0.1-0.3 0.4-0.3 0.8-0.3 3.5-0.7 0.5-0.2 0.5-0.3 0.2-0.3 0.2-0.5 0-0.5-0.4-1.8 0-0.4 0.1-0.4 0.3-0.3 1.4-1.4 0.3-0.4 0.2-0.6 0.1-0.5 0-0.4-0.2-0.4-0.3-0.4-0.7-0.9-0.3-0.5-0.2-0.6-0.1-0.6 0.2-0.5 0.2-0.3 0.5-0.2 0.5 0 0.6 0.2 0.7 0.2 1 0.6 0.7 0.5 0.5 0.6 1 1.9 0.5 0.4 0.5 0.2 1.2 0 0.6-0.2 0.5-0.1 0.3-0.2 0.4-0.4 0.2-0.2 0.4-0.1 0.5 0.1 2.3 1.2 0.7 0.1 1.1-0.1 0.7-0.3 2.6-1.3 0.5-0.4 1.4-1.7 0.4-0.4 0.4-0.2 0.3-0.1 0.4 0.2 0.9 1 0.4 0.2 0.6-0.2 0.4-0.4 0.3-0.5 0.5-0.9 0.2-0.3 0.3-0.1 0.3 0.2 0.9 1.4 0.6 0.5 1 0.5 0.6 0.4 0.7 1 0.8 1.5 1.1 1.4 0.3 0.6 0.1 0.6 0.1 0.8-0.2 0.5-0.1 0.4-0.1 0.4 0.2 0.6 1.4 2.4 0.2 0.7 0.7 1.4 1.7 0.7 0.2 0.2 1.1 1.8 0.6 0.4 0.5 0.1 0.7-0.1 1-0.2 2.2-1.5 2-4.2z" id="CFBK" name="Basse-Kotto">
  </path>
  <path d="M568.7 419.8l0.1-1 3.8-3.1 1.2-1.6 0.2-0.1 0.3-0.3 1.3-0.5 1.1-0.7 1.3-1.5 0.6-1.3-1.2 0.2 0.3-1.5 1.2-0.2 1.4 0.2 1.3-0.4-0.6-2.1-0.1-0.3-1.4-1.7-0.3-0.5 0.1-1.4 0.4-0.8 0.4-0.7 0.5-1.1 0.3-2.5-0.2-5 0.5-2.1 2.3-2.7 0.3-1.5-0.6-0.7-0.1-0.5 0.4-0.4 0.8-0.5 1-0.8 6.7-3.8 0.9-0.3 1 0 0.5 0.3 0.5 0.5 0.4 0.5 0.5 0.4 0.6 0.1 2.6-0.5 0.8 0 0.9 0.2 0.7 0.1 0.9 0 1.2-0.5 4-2.3 1-0.9 0.7-0.9 0.9-1.5 1-3.7 1.1-2.5 1.1-1.2 1.3-0.8 8.8-1.7 1.4 0.1 2 0.4 1.1-0.1 3-0.6 1.1 0 0.8 0.1 0.6 0.2 0.4 0.4 0.3 0.3 0.4 0.5 0.7 1.7 1.3 1.3 2.1 1.5 5.3 1.8 18.2 4.5 2-0.2 1.4-0.4 0.2-0.5 0-0.5-0.1-0.8 0.1-0.4 0-0.3 0.1-0.4 0.1-0.3-0.1-0.3-0.1-0.3-0.1-0.4 0-0.4 0.2-0.4 0.4-0.4 0.6-0.7 0.4-0.9 0.2-0.4 0.4-0.2 0.8-0.1 0.4 0.2 0.7 0.3 0.4 0 0.4 0 0.8-0.1 0.5-0.1 0.5-0.1 0.6-0.3 0.7-0.7 0.4-0.5 0.1-0.6 0.1-0.8 0.1-0.4 0.1-0.4 0.5-0.8 0.7-0.8 0.2-0.3 0.9-0.7 56.4-31.7 19.6 21.5 4.8 3.9 0.7-0.4 0.9-0.3 1.1 0 2 0.4 1-0.3 1.3-0.9 4.2-4.1 1.6-1 1.1-0.3 3.9-0.3 1.3 0.2 1 0.5 1.7 1.5 1.2 0.9 1.8 0.8 2.5 1.7 3.2 2.7 0.8 0.9 0.7 1 0.2 0.9 0 1.2-0.2 1-0.5 0.6-0.9 0.2-1.3 0-0.8 0.2-0.6 0.4-0.4 1-0.4 1.8-0.3 0.3-0.4 0.3-1.4 0.4-0.7 0.3-1.5 1.1-1 0.1-1.2-0.1-1.2-0.3-2.4-0.8-0.3 0.1-0.1 0.4 0.9 1.2 8.9 7.9 1.2 1.8 0.5 0.2 1.3 0 0.7 0.1 0.4 0.4 0.2 0.5 0 0.4 0.1 0.5 0.3 0.7 1.2 1.3 0.4 0.7 0.4 0.8 0.3 0.6 0.5 0.8 0.7 0.3 0.6 0 0.7-0.2 0.9 0.1 1.2 0.6 1.4 1.8 0.4 1.1-0.1 1-1.3 1.8-0.6 1.9-0.1 1.3 0.1 0.8 0 0.4-0.1 0.4-0.2 0.2-0.1 0.4-0.1 0.8-0.1 0.4-0.1 0.2-0.3 0-0.8-1.8-0.2-0.2-0.3-0.2-0.3-0.1-0.3 0-0.3 0.2-0.2 0.3-0.5 0.9-0.2 0.3-0.2 0.2-0.4 0.1-0.3 0.1-1.2 0.1-0.3 0.1-0.6 0.4-0.3 0.1-0.3 0.2-0.1 0.4 0.3 1 0 0.6 0 0.4-0.3 0.6-0.1 0.5-0.1 0.5 0.1 0.7 0 0.5-0.1 0.4-0.4 0.7 0 0.4 0 0.6 0.3 0.9 0 0.5-0.2 0.4-0.3 0.1-0.2 0.3 0 0.5 0 0.5 0.3 0.7 0.3 0.4 0.4 0.2 0.1 0.2-0.1 0.2-1.3 0.6-0.2 0.3 0 0.1 0.1 0.2 0.9 0.2 0.6 0.2 0.1 0.1 0 0.2-0.6 0.4-0.6 0.3-0.3 0.3-0.1 0.2-0.1 0.3-0.1 0.3 0.1 0.7-0.1 0.3 0 0.2-0.2 0.3-0.2 0.3-0.2 0.2-0.9 0.4-0.1 0.1-0.1 0.3-0.2 0.2-0.1 0.3-0.2 0.1-0.2 0.1-0.2 0-0.3 0-0.1 0-0.2 0-0.3 0.1-0.2 0.1-0.3 0.2-0.1 0.3 0.1 0.6 0.2 0.3 0.6 0.6 0 0.1 0 0.2-0.1 0.1-0.1 0.2-0.3 0.1-0.5 0.2-0.6 0-0.1 0.1-0.1 0.1-0.5 0.5-0.1 0.1-0.3-0.1-1-0.4-0.2 0-0.2 0.1 0 0.7-0.1 0.3-0.1 0.4-0.9 0.3-0.3 0.2-0.1 0.1-0.1 0.4 0 0.8-0.1 0.2-0.2 0.1-0.2-0.1-0.2-0.3-0.2 0-0.1 0.1 0.1 1.9-0.4 1.8-0.1 0.2-0.1 0.1-0.2 0.1-0.5-0.2-0.3-0.1-0.3-0.2-0.3-0.2-0.2-0.2-0.2-0.1-0.3-0.1-0.3 0.1-0.2 0.3-0.9 1.4-0.1 0.1-0.2 0.2-0.3 0.1-0.4 0.1-0.7 0.1-0.2 0.1-0.1 0.2-0.1 0.4-0.1 0.7-0.1 0.2-0.1 0.2-0.2 0.1-0.3-0.1-0.3-0.1-0.3-0.2-0.3-0.2-0.3-0.1-0.3-0.1-0.1 0-0.2 0-1.1 0.4-0.2 0.2-0.1 0.1-0.6 0.8-0.1 0.2-0.4 0.3-0.5 0.3-0.4 0.2-0.1 0.1-0.3 0-0.2 0-1.1-0.3-0.8-0.1-0.8 0.1-0.8-0.1-0.4 0-0.4 0.1-0.3 0.1-0.3 0-0.3-0.2-0.4-0.4-0.2-0.2-0.1 0-0.2 0.1 0 0.1-0.1 0.1 0 0.3-0.1 0.4-0.2 0.3-0.2 0.2-0.3 0.2-0.2 0.2-0.1 0.3 0 1.1-0.1 0.1-0.1 0.2-0.2 0.3-0.4 0.4-0.1 0.1-0.1 0.3 0 1.7-0.2 0.3-0.1 0-0.2-0.2-0.2-0.2-0.2-0.3-0.2-0.2-0.3-0.2-0.3 0-0.3 0.2-0.2 0.3-0.1 0.3-0.1 0.5 0.1 0.4 0.2 0.3 0.1 0.2-0.1 0.2-0.2 0.3-0.3 0.3 0.1 0.5 0.1 0.4 0.3 0.2 0.7 0.1 0.4 0.2 0.1 0.1 0 0.1 0 0.3-0.1 0.2-0.1 0.2-0.2 0.2-0.6 0.3-0.2 0.2-0.4 0.1-0.3-0.1-0.3-0.2-1-0.8-0.3-0.1-0.1-0.1-0.2 0-0.1 0.1-0.2 0-0.1 0.1-0.1 0.2-0.3 0.5-0.9 0.7-1.5-0.3-1.6 0.4-0.3 0.8 0.1 1-0.2 0.5-0.2 0-1.2-2.5-0.2-0.5-0.2-0.1-0.1 0-0.1 0-0.1 0-0.3-0.7-1 1-1 1.7-0.3 1.1-0.2 0-0.1 0.1 0 0.1-0.1 0 0 0.1 0 0.3 0.1 0.4 0.2 0.2 0.1 0.1 0.4 0.2 0.4 0.1 0.7-0.4 0.8 0.2 0.2 0.8-0.9 1-1.2 0.7-1.4 0.2-2 0.2-0.1 0-0.1 0-1.3 0.2-1.1 1-0.6 0.6-0.1 0.2 0 0.2 0 0.2 0.1 0.1 0.1 0.1-0.2 0.4-0.2 0.8 0 0.6-0.2 0.6-0.6 0.1 0-0.1-0.4 0-0.2-0.4 0.2-0.7 0-0.1-0.1-0.3-0.2-0.2-0.9 0-0.4-0.1-1.4 0.3-1.3 0.9-2 2.5-0.7 0.4-0.9-0.2-1.4-1-0.8-0.3-1.3 0.2-1.2 0.7-1.7 1.5-2.8 1.3-0.9-0.5-0.4-0.2-0.4-0.1-0.1 0.1-0.6 0-0.5 0.3-0.4 0.5-0.2-0.1-0.4 0.2-0.3 0.4-0.3 0.7 0 0.8 0.3 0.7 0.1 0.9-0.4 0-0.4-0.5-0.4-0.3-0.6-0.4-0.4-0.2-0.8 0-0.1 0-0.8 0.4-0.5 0.1-0.1 0 0 0.1-0.2 0.2-0.4 0.1-0.8 0.6-0.6 0.2-0.5 0-0.5-0.3-0.5-0.1-0.2-0.3 0.2-0.4-1.1 0.6-0.1 0-1.2 0.4-2.7 1.9-0.9 0.4-0.3 0-1-0.2-0.4 0-1 0.2-1 0.6-0.1 0-1.4 0.4-2.7 1.6-3.2 0.8-1.5 0.6-3.7 3-0.6 0.4-0.6 0.2-2.2 0-0.5 0.3-0.5 0.5-1.1 0.7-0.3 0.3-0.1 0.5-0.1 1.1 0.1 0.4 0 0.1 0 0.6-0.1 0.5-0.2 0.3-0.8 0.1-1-0.8-0.6-0.5-0.5-0.3-0.7-0.1-0.6 0.1-0.9 0.1-0.8 0.1-0.4-0.1-0.8-0.3-0.5-0.8-0.6-0.7-0.6-0.2-0.5-0.1-0.3-0.3-0.2-0.8-0.3-0.5-0.3-0.3-0.4-0.5-0.7-0.2-0.4-0.1-0.8-0.1-0.6-0.1-1.1-1-0.2-0.4-0.5-0.8-0.3-0.4-0.4-0.4-0.6-0.3-1 0-0.2-0.1-0.2 0-0.1 0-0.5 0.1-0.6 0.5-1.7 0.8-0.1 0.1-0.1 0-1.2 0.2-0.1 0-1-0.8-0.8-0.7-0.5-0.5-0.7-0.7-0.9-0.4-1.2-0.6-1.2-1.5-0.8-0.9-0.5-0.7-0.6-1-0.4-0.9-0.2-0.3-0.3-0.3-0.4 0.4-0.1 0.2-0.3 0.1-0.2 0.2-0.5 0.2-0.8 0.4-0.8 0.3-1.1 0-0.6-0.2-0.5 0-0.7 0.7-0.4 0.9 0 0.8 0.3 0.9 0.6 0.8-0.6 0.7-1.5 1.1-0.8 1.9-0.8-0.1-0.1-0.2-0.7-0.9-0.3-0.3-0.2-0.1-0.4 0-0.3 0.3-0.2 0.2-0.6-0.2-1.2 0.4-0.6 1-0.8 2.4-0.5 1.1-0.6 0.8-0.8 0.8-1 0.6 0 0.8 0.4 1.4 0.1 0.7-0.1 0.5-0.7 1.2-0.2 0.5-0.2 0.3-0.9 0.7-0.2 0.4 0 1.7-0.2 0.7-0.4 0.7-0.9 0.5-1.5 0.1-1.3 0-0.6-0.1-0.3 0-0.1 0-0.8 0-1.2 0.7-0.4 1.7 0.1 2 0.2 0.6-0.3 0.5-0.1 0.3 0.1 0.1 0.1 0.4 0 0.1 0.1 0.2 0.8 0.5 0.1 0 0.2 0 0.4 0.2 0.2 0.4-0.4 0.7-0.6 0.8-0.8 0.6-0.8 0.2-0.6 0.7-2 3.7 0 0.8 0.4 1.4 0 0.7-0.4 0.7-1.2 1.1-0.3 0.3-0.5 1.1-1.3 1.2-2.4 1.7-0.4 0.2-1.4 0.5-0.7 0.3-8.3 0.4-6.7-1.5-1.5-1-1.6-0.6-0.7-0.4-1.3-1.4-0.4-0.3-1.3-0.4-3.3-0.7-0.3 0-0.1-0.1-1.3-0.6 0.1-0.1 0-1.3 0.3-0.7 0.5-0.5 0.6-0.8 0.5-0.9 0.2-0.7-0.3-3.5 0-0.8 0.3-0.6 1.5-1.6 0.2-0.3 0.3-1.5 0.7-1.2 1.8-2.4 1-2.9-1.1-1.5-2.3-0.5-2.8 0.2-4 1.4-1-0.3-0.6-0.2-1.9-0.2-0.6-0.3-0.1-0.6 0.9-1 0.2-0.7-0.8-1.2-1.1-0.7-1-0.8-0.5-1.5 0.2-0.1 0.3-0.3 0.2-0.3-0.2-0.5-0.3-0.1-0.5 0.2-0.5 0.3-0.1 0.2-0.8-0.8-0.3-0.5-0.4-0.7-1 0.5-0.9-0.1-1.4-0.9-0.2-1-0.3-0.5-1.1 0.6-0.4-0.2-0.3-0.4-0.1-0.4-0.4 0-0.9 0.6-1.1 0-1-0.6-0.4-1.2 0.2-0.6 0.4-0.4 0.3-0.4-0.5-1.1 0.1-0.6 0.3-0.6 0.4-1.6 1-1.2 0.2-1.1 0.7-7.4 0.4-1 2.6-3.1 0.6-1.2 0-1.5-0.7-1.1-2-2.1-0.2-1.1 0.5-0.7 2.4-2.1 2-1.2 0.9-0.8 0.4-1.2 0.8-3.9 0.2-7.5 0.1-0.8 0.6-1 0.2-0.9 0-0.3-0.1-0.2-0.2-0.1-0.1-0.4 0-0.7-0.2-1.8 0.1-3.4z" id="CFMB" name="Mbomou">
  </path>
  <path d="M341.2 401.9l3.7 4.3 2.5 1 1.2 0.1 7.9 1.2 0.8 0.6 0.5 1.2 1 6.8 0.8 1.4 1 1.2 2.5 1.8 1.5 0.9 0.7 0.6 0.8 1.1 1.5 2.7 0.6 1.6 0.2 1.2-0.3 1.7-1.8 5.3-0.4 1.7 0.1 1.7 0.6 1.6 6.5 8.8 1 2.6 0.1 0.3-0.3 2.3 0.2 2.1-1.6 1.6-1 1.3-0.8 1.6-0.6 2.2-0.3 0.7-0.6 0.6-0.6 0.4-0.5 0.6-0.6 2.7-0.9 1-1.3 0.8-1.2 1-2.4 4.1-0.3 0.2-1.4 0.5-0.3 0.3-0.1 0.1-0.4 1-0.1 0.1 0 0.1-0.3 0.8-2.4 1.9-1.7 2.4-3.5 8.9-1.7 2.2-1.4 1-1.3 0.8-1.1 0.4-0.1 0-1.6 0.6-1.4 0.3-0.9 0-0.1 0-0.8 0-0.1 0-0.9-0.2-1.3-0.8-0.4-1.5-0.5-1.4-0.7-1.2-0.8-0.6-1.7 0-1.1 0.4-1.1 1.2-0.6 1.1-0.2 0.8 0.5 1.1 1.2 1-0.8 1.4 0.4 0.9 1.8 1.3 0.5 1.2 0.7 0.6 0.6 1.3 0.5 1.1 0.5 0.6 0.4 0.8 0.8 1.6 1.6 2.6 0.2 0.4 0.4 1.3 0.4 0.7 0 0.1 1 5.9-0.1 4.4-0.3 1.7-0.4 1.4-1.1 1-0.7 0.9-0.1 0.2-0.4 0.9-0.2 0.7 0 0.7 0 0.3-4.6-2.1-1.8-0.3-0.6-0.4-0.6-0.6-1.1-1.4-0.4-0.8-0.6-0.7-0.6-0.5-1.1-0.4-1-0.6-0.8-0.8-0.3-0.4-0.2-0.5-0.6-1-2.9-3.3-0.7-1.2-0.3-1 0.5-1.8 0.1-0.8 0-1-0.4-2.1-0.1-1 0.2-1.3 0-0.6-2.6-5.4-0.7-0.9-0.9-0.5-1.5-0.4-2.1-0.3-0.8-0.3-1-0.6-1-1.1-2.1-4.2-0.9-1.1-1.1-0.9-1.4-0.3-1.1 0.2-1.2 0.4-1 0.2-0.9-0.3-0.7-0.7-0.8-0.4-0.9-0.1-0.7-0.1-0.6-0.1-1.8-0.6-1.5-0.3-1 0.1-0.3 0.1-0.4 0.1-0.4 0.3-0.4 0.4-0.3 0.4-0.6 0.2-0.7 0-1.5-0.6-0.8-0.2-0.9 0-0.5-0.2-0.5-0.6-0.2-0.6-0.3-1-0.2-0.5-0.6-0.4-3.3-1.4-0.8 0-0.7 0.1-0.7 0.3-0.9 0.2-3.1 0-0.6 0.2-0.3 0.3-0.3 0.3-0.4 0.2-0.7 0-0.9-0.1-2.1-0.8-1-0.6-2-2.1-0.6-0.9-0.5-1-2.2-9.6-0.7-1.5-2.4-3.1-0.7-0.6-1-0.5-5.5-2.6-2.9-1.9-2.9-3-1.8-1.3-1.5-1.7-0.8-0.7-3.2-1.7-1-0.7-0.7-1-0.4-0.7-0.9-0.4-0.7-0.2-5.8 0.9-2.9-4.1 0-0.3 0-0.2 0-0.2 0.2-0.1 0.1-0.1 0.3-0.1 1-0.1 0.4-0.1 0.4-0.3 1-0.9 0.8-0.5 0.9-0.4 2.6-0.8 0.5-0.4 0.4-0.6 0-0.7-4.5-6.9-1.5-1.6-7.1-5.3-0.8-0.4-1.2-0.1-1.7 0.3-2.7 0.7-2.7 0.2-1.9-0.3-1.3-0.7-1.7-1.2-1.5 0.3-2.5 1.2-10.2 6.1-1-4.5-0.8-2.1-0.3-1.2 0.1-1.8 1.4-7.4-0.2-3.5 2.5-1 3.5-2.6 4-3.8 1-1.3 1.3-2.2 1.2-1.7 2.8-2.2 8.6-2.9 3.9-0.6 0.6-0.3 0.6-0.4 0.7-0.6 1.6-0.7-0.1 3.4 0.3 1.1 1.4 2 1.4 2.8 1.6 0.4 3.9 0.5 33.6-0.6 2.7-0.9 13.4-7.5 0.7-0.5 0.5-0.6 0.5-0.7 0.8-0.9 1.1-0.7 2.1-0.5 1.2 0.1 0.9 0.4 1.4 1 3.6 1.6 0.4 0.5 0.2 0.7 0 1.2 0.2 0.4 0.4 0.4 0.8 0.4 0.8 0.1 0.8-0.1 1.5-0.6 0.9-0.1 0.7 0.1 0.7 0.3 1.2 1 0.4 0.1 0.3 0 0.3-0.2 0.6-0.2 5.6-0.4 1.3 0.1 0.9 0.2 0.4 0.4 0.1 0.4 0.1 0.6 0.1 0.6 0 0.6 0.2 0.4 0.4 0.4 0.3 0 0.8-0.3 1.1-0.2 2.2 0 1.5 0.2 1.3 0.3 0.8 0.4 0.5 0.3 0.3 0.4 0.1 0.3 0 0.4-0.1 0.4-0.1 0.4-0.2 0.2-0.3 0.2-0.6 0.3-0.4 0.2-0.3 0.3-0.1 0.6 0.1 0.5 0.3 0.9 1 1.6 0.3 0.7 0.2 1-0.1 2.4 0.1 0.7 0.4 0.7 0.5 0.1 0.7-0.2 2.5-1.1 3.2-1.2 6-3.2 0.7-0.6 0.5-0.7 0.3-0.7 0.2-1 0.1-1-0.1-1.6 0.1-0.5 0.4-0.3 0.8 0.4z" id="CFMP" name="Ombella-M'Poko">
  </path>
  <path d="M334.5 501.4l-1.8-1.3-0.4-0.9 0.8-1.4-1.2-1-0.5-1.1 0.2-0.8 0.6-1.1 1.1-1.2 1.1-0.4 1.7 0 0.8 0.6 0.7 1.2 0.5 1.4 0.4 1.5-1.3-0.1-1.4 1.3-1 1.8-0.3 1.5z" id="CFBGF" name="Bangui">
  </path>
  <path d="M256.3 544.9l-5.4-8.2-0.4-0.4-0.7-0.4-3.6-1.7-2.7-1.7-0.8-0.4-2.3-0.6-1.5-0.8-0.4-0.2-0.4-0.1-2.2-0.2-2.2-0.6-0.3-0.2-3.6-2.4-0.5-0.1-0.8-0.1-2.7-0.2-0.5-0.2-2.5-1.9-0.2-0.4-0.4-0.5-1.9-3.8-4.4-6.5-0.1-0.4-0.2-0.3-4.8-5.7-1.7-1.2 3.2-6.6 1.9-2.3 0.9-0.8 1.8-2 0.7-0.7 0.7-0.3 0.6 0 0.8 0.1 0.8 0.3 4.2 2.6 0.5 0.5 0.4 0.7 1.1 1.1 0.5 0.3 0.4 0.1 3.3 0.4 0.7-0.1 0.5-0.3 0.2-1.3-1.6-0.5-0.4 0-0.1-0.3-1.2-1.4-0.4-0.7-0.6-2.2-0.7-1.5-1-1.5-1.2-1.2-1.6-0.5-0.7-0.7-5.6-10.4-0.5-1.2-0.9-2.6-0.2-1.4 0-9.1 0.5-0.5 0.4-0.2 1.4-0.3 2.8-1.2 5.2-3.5 0.9-0.4 0.6-0.3 0.5-0.1 0.7-0.2 0.7-0.4 0.5-0.5 0.3-0.8 0.1-0.5-0.2-2 5.8-0.9 0.7 0.2 0.9 0.4 0.4 0.7 0.7 1 1 0.7 3.2 1.7 0.8 0.7 1.5 1.7 1.8 1.3 2.9 3 2.9 1.9 5.5 2.6 1 0.5 0.7 0.6 2.4 3.1 0.7 1.5 2.2 9.6 0.5 1 0.6 0.9 2 2.1 1 0.6 2.1 0.8 0.9 0.1 0.7 0 0.4-0.2 0.3-0.3 0.3-0.3 0.6-0.2 3.1 0 0.9-0.2 0.7-0.3 0.7-0.1 0.8 0 3.3 1.4 0.6 0.4 0.2 0.5 0.3 1 0.2 0.6 0.5 0.6 0.5 0.2 0.9 0 0.8 0.2 1.5 0.6 0.7 0 0.6-0.2 0.3-0.4 0.4-0.4 0.4-0.3 0.4-0.1 0.3-0.1 1-0.1 1.5 0.3 1.8 0.6 0.6 0.1 0.7 0.1 0.9 0.1 0.8 0.4 0.7 0.7 0.9 0.3 1-0.2 1.2-0.4 1.1-0.2 1.4 0.3 1.1 0.9 0.9 1.1 2.1 4.2 1 1.1 1 0.6 0.8 0.3 2.1 0.3 1.5 0.4 0.9 0.5 0.7 0.9 2.6 5.4 0 0.6-0.2 1.3 0.1 1 0.4 2.1 0 1-0.1 0.8-0.5 1.8 0.3 1 0.7 1.2 2.9 3.3 0.6 1 0.2 0.5 0.3 0.4 0.8 0.8 1 0.6 1.1 0.4 0.6 0.5 0.6 0.7 0.4 0.8 1.1 1.4 0.6 0.6 0.6 0.4 1.8 0.3 4.6 2.1 0 0.2-0.1 0.3-0.1 0.6-0.1 0.3 0 0.7 0.1 1.1 0.1 0.7 0 0.8 0 0.1-0.6 2.6-0.2 1 0 0.2 0 0.3 0.1 0.1 0 0.1 0.1 0.6 0 0.3 0.1 1.7 0.2 0.6 0.1 0.4 0.1 0.1 1.4 10.3 0.1 0.5 0.1 0.4 0.5 3.5-3.1 0-0.8-0.9-1.1-2.5-2.9-4.6-1.1-1.4-1.8-1.4-0.9 0-0.8 1-1.2 1.2-0.7 0.3-1.1-0.1-0.8 0.1-0.3 0.3-0.3 1-0.3 0.2-0.5 0-0.8-0.4-0.4-0.1-5.5 0.5-0.8 0-0.6-0.2-0.5 0.2-0.5 0.9-0.5 2.2-0.2 0.6-0.8 1.2-1.2 1.2-1.5 0.7-1.5-0.2-0.9-1-0.9-2.8-1.2-1.2-2.4-0.8-2.5 0-2.3 0.6-2.2 1.1-0.9 0.1-0.6-0.3-2.5-1.5-0.4-0.2-0.4 0.3-2.6 1.3-1.4 0.4-0.9-0.2-0.5-1.1-0.4-1.4-0.6-1.2-0.9-1.1-1.1-0.6-0.6 0-1.3 0.2-0.6 0-0.5-0.2-0.7-0.8-0.4-0.2-0.5 0-0.8 0.3-0.4 0.1-5.7 0-2.8-0.4-2.6-1.1-2.5-2.2-0.4-0.2-0.9-0.1-0.4-0.2-0.2-1-0.3-0.3-1.6-0.2-1.2 0.5-1 0.7-0.9 0.5z" id="CFLB" name="Lobaye">
  </path>
  <path d="M493 142.7l0.2 0.2 1.9 2 1.5 0.4 1.1 0.2 0.7-0.1 0.4-0.2 0.2-0.2 0.7-1.3 0.5-0.5 0.2-0.2 0.4-0.7 0.2-0.2 0.3-0.3 0.4-0.2 1.7-0.7 1.2-0.1 0.6-0.2 0.4-0.2 0.8-0.6 0.2-0.3 0.2-0.3 0.2-0.3 0.4-1.2 0.1-0.3 0.3-0.4 0.4-0.4 1.6-1.3 2.4-1.5 1.1-0.5 1.1-0.3 0.9-0.1 1.7-0.4 0.9-0.2 1.4 0 1.1-0.2 3.2-1 0.6-0.4 0.2-0.2 0.8-0.7 0.5-0.5 0.6-0.4 0.2-0.2 0.2-0.3 0.3-0.8 0.2-0.7 0.3-0.5 0.4-0.4 1.5-1.1 1.4-1.4 1.5-1.1 0.9-0.5 1-0.4 0.5-0.2 0.4-0.3 0.6-0.4 0.3-0.3 0.2-0.3 0.2-0.3 0.4-0.8 0.2-0.4 0.4-0.6 0.4-0.2 0.3 0 1.7 0.3 0.6 0.3 0.4 0.5 0.4 0.9 0.1 0.6 0.1 0.5-0.2 1.4 0 0.8 0.2 0.9 0.6 2.5 0.1 0.8 0 1.4 0.1 0.6 0.2 0.5 0.4 0.5 0.6 0.3 1 0 1.8-0.1 1.8 0 0.9 0.3 0.7 0.7 0.5 0.8 0.7 1 4.1 3.7 0.2 0.5 0.4 1.4 0.3 0.8 0.5 0.9 0.7 0.7 2.5 2.1 0.5 0.8 0.4 1.3 0.7 4.6 0.2 0.9 0.5 0.7 0.5 0.6 0.6 0.7 0.6 1 1.4 4.5 0.4 0.8 0.6 0.6 1.9 0.9 0.8 0.5 0.7 0.7 1.7 2.3 1 0.8 2.5 1.5 0.8 0.6 0.4 0.5 0.3 0.8 0.3 1 0.6 1.1 0.8 1.1 3.3 2.2 0.7 0.7 0 0.6-0.1 2 1.9 9.1 0.7 1.7 0.9 1.3 5.3 3.8 1.1 0.5 3.9 1.1 5.2 0.7 1.2 0.4 0.7 0.6 0.4 0.6 0.1 0.8 0.1 0.8-0.2 2.5-1.4 1.5-0.5 0.1-1.1 0.2-13.6-1.4-1.2-0.4-2.7-1.4-1.5-0.4-1.6 0.1-1.5 0.2-1.8 0.6-0.6 0.3-0.6 0.6-0.9 1.1-0.6 1.1-0.4 1.2-0.2 1.3 0.1 1.8 0.1 0.5 0.3 0.8 2.2 4 0.2 0.7 0.1 0.7-0.1 1-0.2 0.6-2.3 5.4-0.3 1 0.1 0.8 0.2 0.7 0.5 0.6 1 0.8 0.3 0.5 0 0.7-0.6 0.8-1.5 0.7-2 0.5-1.9 0.4-1.6 0-1.1-0.5-0.7-0.7-0.5-1.1-0.4-1.1-0.5-1-0.7-0.6-1.6-1.2-0.8-0.6-0.5-0.7-0.3-0.6-0.4-0.9-0.3-0.3-0.6-0.1-1.3 0.2-4.7 2.5-1.2 0.5-2 0.3-0.5 0.2-0.4 0.5-0.7 1.7-0.5 0.6-0.6 0.1-0.8-0.2-1.8-0.7-0.8-0.3-1 0-1.1 0.1-1.4 0.4-0.9 1.4-0.7 1-1.3 0.9-2.6 1.6-1.3 1.1-0.6 1.2 0.3 1.5 2.1 5 0.1 2.5-3.1 0.9-11.1 0.7-4.4 0.7-1.4 1.9-0.3 1.6 0.1 1.2-0.1 1-0.3 0.8-1.2 2.2-0.2 0.9 0.1 0.7 1.3 3.1 0.5 6.4-1.4 1.3-0.3 0.6-0.4 1-0.5 2.2-0.3 0.6-0.5 0.5-0.6 0.6-0.9 0.8-0.3 0.9 0 1 0.2 0.7 1 1.8 0.2 0.6 0.1 0.7-0.2 0.5-0.2 0.4-0.2 0.2-2.6 2-0.8 0.8-4.9 6.9-1.1 1.3-2.8 3.7-0.5 0.4-0.7 0.9-5 2.2-0.5 0.4-0.3 0.1-0.3 0.1-0.8-0.1-0.8-0.2-1.6-0.7-0.7-0.1-2.4 0-0.9 0.4-0.8 1-1.9 5.1-0.2 1.1-0.8 1-4.2 3.5-1.7 0.7-1.4-0.5-0.4 0-0.7 0.4-1.7 1.4-1.7 1.3-1.3 0.5-0.5 0-0.5-0.1-0.1-0.3-0.2-0.4-0.3-0.2-2.3 0.2-0.4 0.1-0.8-0.4-0.6 0.3-0.6 0.5-0.4 0.3-0.9-0.3-1.6-0.9-0.6 0.2-1.1-0.1-1.7 0.2-1.6-0.1-0.8-0.7-0.4-0.9-1.2-0.4-1.4-0.4-1.3-0.4-0.3-0.4-0.1-0.4 0-0.5-0.1-0.2-0.3-0.1-0.6-0.1-0.5 0 0 0.2-1.2-1.7-0.5-0.2-1.4-0.4-1.4-0.7-2.2-1.8-0.6-0.7-0.8-1.1-0.5-0.6-0.8-0.5-1.6-0.7-1.6-1-1.7-0.5-1-0.7-1.1-2.2-1.4-5.3-1.3-1.6-0.3 0-0.3 0.3-0.4 0.7-0.8-0.7-1.6-1.7-0.4-0.6-0.3-0.7-0.1-0.3-0.1-0.6-0.1-0.7-0.4 0-0.6 0.3-0.5 0.2-1.3-1.2-0.3-4.4-1.5 0.2-0.4-0.7 0.1-1.4-0.2-0.7-0.8 0-0.9-0.5-0.8-0.3-0.3 0.5-0.5 0.1-2.2-0.7-0.8-0.1-0.9-1-0.8 0.4-1.1-0.3-0.5 0.4-1-1.2 0.4-1.5 0.8-1.6 0.3-1.5-0.4-0.4-0.7-0.2-0.6 0-0.5-0.1-0.1-0.6 0.5-0.8 1.3-1.3-1.9 0.4-0.8-0.1-0.7-0.7-0.7-0.2-1.4-1.8-0.9-0.5-0.7 0.2-0.5 0.5-0.6 0.3-0.9 0-0.3-0.3-1.5-2.1-0.2 1.6-0.9-0.2-2.3-2.4-0.8 1.4-0.1 0.6-1.2-0.7-2.4-3.4-0.1-0.6 1.8-1.4 0.4-0.7-0.6-0.3-1-1.2-0.6-1.2 2.2-1.1-0.1-1.2-0.7-1.3-0.6-0.9 1-0.6 0.4-0.7 0-1.8-0.4-0.9-0.2-0.6 0.1-0.7 0.5-0.6 1.4-0.6 0.5-0.7-1.3-0.3-0.4-0.8 0.3-1.9-0.2-2.2 0.2-0.6-0.9-0.6-0.2-0.6 0-0.7-0.3-1-3.7-3.1-1.4-1.5-1.1-1.6-0.1-1-0.9-0.3 0.1-0.4 0.6-0.6 0.2-0.6-0.2-0.4-0.9-0.4-0.2-0.5 0-0.5-0.1-0.4-0.1-0.3-0.3-0.5-1.1-1.3-2.6-2-1.1-1-3.3-5.8-0.4-1.7-0.2-1.8-0.6-1.7-1.7-1.6 0-1.1 0.7-1.9-0.2-0.4 0.7-0.4 0.5-0.8 0.2-0.3 0.3-0.2 0.6-0.5 1.2-0.7-0.1-0.2-0.2-0.1-0.1-0.1-0.3-0.2-0.2-0.3-0.3-0.5 0-0.1 0-0.2-0.1-0.1-0.1 0-2-1.6-1.1-0.6-0.6-1.1-1.9-0.8-6.4-2.8-0.4-0.3-0.5-0.3-0.3-0.9-0.2-1.2-0.2-0.3-0.3-0.4-1.1 0.6-0.4-0.3-0.8-0.6 0-1.1 0.8-1.2 0.7-0.9 0.1-0.3 0.6 0.3 0.7 0 0.5-0.3 0.2-0.7 0.1-0.7 0.4-0.2 0.6-0.1 0.8-0.5 0.2-0.2 1-0.3 0.4-0.1 0.3-0.2 0-0.1 0.2-0.5 0.4-0.5 1.1-0.9 1.5-1.1 1.4-0.7 1.3-0.6 1.1-0.4 1.5-0.4 0.2 0 1.8 0.5 0.5 0 0.6-0.1 0.2 0.1 1.6 0.4 0.4-0.1 0.4-0.8 0.9-0.4 2.8-0.1 0.9-0.3 0.5-0.1 0.7 0 0.9 0.4 0.7 0.6 0.2 0.1 0.1 0 0.3 0.1 0.1 0.1 0.6-0.8 0.8 0.5 0.4 0.2 0.8 0.3 1.3 0.3 1.2 0.1 0.9-0.2 2.7-1 0.6 0.3 5.4 0 0.3 0.1 0.3 0.2 0.4 0 0.7-0.3 1.6 0 2-0.8 0.6-0.2 1.5-0.3 1.4 0.9 0.7-0.3 0.2 0 0.6 0 0.3 0 0.1 0 0.2 0.1 0.1 0.1 0.5 0 1.9 0 0.7-0.3 0.3-0.3 1.7-0.7 0.6-0.2 0.8 0 1.8-0.5 1.5-0.2 1.6 0.1 1.2 0.1 3 0.2 0.9-0.4 0.7-1 0.2-0.2 0.9 0.4 0.1 0 0.2 0 0.8-0.2 1.8-1.2 0.5-0.1 0.6 0.1 0.5-0.1 0.3-0.6 0-0.4 0.2-0.4 0.2-0.3 0.1 0 0 0.1 0.2 0.3 0.1-0.1 0.1 0 0-0.2 0-0.1 0.3 0.2 0.3 1 0.4 0.1 0.4-0.3 0-0.3-0.1-0.4 0.2-0.4 2-1.7 0.4-0.2 0.1 0.1 0.3 0.2 0.3 0 0.4 0 0.1-0.1 0.5 0.2 0.6 0 0.1-0.2 0-0.5 0.1-0.5 0.6-0.2 0.1 0.3 0.1 0.1 0.1 0 0.2 0.2 0.1 0 0.1 0.1 0.4 0.5 0.8 0.9 1.2 0.3 1-0.3 2-1.4 1-0.3 0.8 0.2 0.8 0.6 1.5 1.2 1.4-0.3 5.8 0.3 1.3-0.2 0.4-0.3 1.3-0.9 0.7-0.4 0.7-0.1 0.8 0.4 1.4-1.5 0.9-1.7 1-1.5 1.8-0.6 0.4-0.7-0.8-1.7-0.4-1.5 0-0.1 0.1-0.1 1.1-0.7 0.9-0.2 0.5-0.4 0.2-0.7 0.1-0.9 0.3-0.6 0.6 0.1 1.5 0.8 0.1-0.1 1.3 0.1 1.2 0.4 0.5 0 3.5 0-0.9-2.8 2.9-1.5 3.1-1 0.7-0.5 0.5 0.5 0.6-0.6 0.3-0.8 0.4-0.7 0.8-0.3 0.3-0.2 0.4-0.6 0.3-0.2 0.3 0.2 0.5 0.3z" id="CFBB" name="Bamingui-Bangoran">
  </path>
  <path d="M349.4 347l-0.4 0.8-0.1 0.2-0.1 0.5 0.2 0.8 0.9 1.4 6.3 6.3 0.7 1 0.3 1-0.2 4 0.1 1.8 0.2 1.3 0.4 0.9 0.6 0.6 1.5 0.6 0.5 0.3 0.2 0.5-0.3 0.6-0.8 0.8-2.2 0.9-0.5 0.3-1.3 1.3-2.4 1.9-3.8 3.6-1.2 0.9-2.3 1.2-1.3 0.9-3.7 1.5-0.1 0.4 0 0.5 0.2 1.3 0.1 1.1-0.1 1.2-0.8 1.9-0.2 1.4 0 1.3 0.5 1.7 0.3 1.2-0.1 3.3 0.7 3.7-0.8-0.4-0.4 0.3-0.1 0.5 0.1 1.6-0.1 1-0.2 1-0.3 0.7-0.5 0.7-0.7 0.6-6 3.2-3.2 1.2-2.5 1.1-0.7 0.2-0.5-0.1-0.4-0.7-0.1-0.7 0.1-2.4-0.2-1-0.3-0.7-1-1.6-0.3-0.9-0.1-0.5 0.1-0.6 0.3-0.3 0.4-0.2 0.6-0.3 0.3-0.2 0.2-0.2 0.1-0.4 0.1-0.4 0-0.4-0.1-0.3-0.3-0.4-0.5-0.3-0.8-0.4-1.3-0.3-1.5-0.2-2.2 0-1.1 0.2-0.8 0.3-0.3 0-0.4-0.4-0.2-0.4 0-0.6-0.1-0.6-0.1-0.6-0.1-0.4-0.4-0.4-0.9-0.2-1.3-0.1-5.6 0.4-0.6 0.2-0.3 0.2-0.3 0-0.4-0.1-1.2-1-0.7-0.3-0.7-0.1-0.9 0.1-1.5 0.6-0.8 0.1-0.8-0.1-0.8-0.4-0.4-0.4-0.2-0.4 0-1.2-0.2-0.7-0.4-0.5-3.6-1.6-1.4-1-0.9-0.4-1.2-0.1-2.1 0.5-1.1 0.7-0.8 0.9-0.5 0.7-0.5 0.6-0.7 0.5-13.4 7.5-2.7 0.9-33.6 0.6-3.9-0.5-1.6-0.4-1.4-2.8-1.4-2-0.3-1.1 0.1-3.4-0.6-0.6-0.4-1.2-0.3-1.4-0.2-0.7-0.2-0.5-0.2-0.3-0.4-0.5-0.3-0.2-0.2-0.3-0.2-0.5-0.2-0.7-0.6-4 0-0.5 0.1-0.8 0-0.5-0.3-0.6-0.4-0.8-0.5-2.2-0.1-0.6 0.1-0.5 0.3-0.7 0.4-0.2 0.3 0.1 0.3 0.1 0.4 0 0.3-0.1 0.3-0.2 0.7-0.7 0.1-0.3 0-0.3-0.4-0.8-0.2-0.4-0.1-0.5-0.2-2.3 0.2-2.5 0.2-1 0-1.3 0.1-0.8 0.3-0.7 0.3-0.7 0.2-0.3 0.2-0.2 0.3-0.2 0.4 0 0.3 0 0.3 0.2 0.2 0.2 0.3 0.1 0.2-0.1 0.4-0.3 0.3-0.1 0.2 0 0.3 0.1 0.3 0 0.2-0.2 0.4-0.9 0.2-0.3 0.2-0.3 0-0.4-0.3-0.6-0.1-0.5 0.1-0.8 0.2-0.3 0.2-0.3 0.4 0 0.3 0.1 0.3 0 0.2-0.2 0.5-0.9 0.5-0.5 0.5-0.4 0.3-0.1 0.4 0 0.3 0.1 0.2 0.2 0.3 0 0.3-0.1 0.2-0.3 0.1-0.3 0.1-0.4 0.2-2.2-0.1-0.5-0.3-0.5-0.4-0.3-0.4-0.2-0.5-0.1-0.3-0.1-0.3-0.2-0.4-0.4-0.3-0.3-0.3-0.2-0.2-0.2-0.3-0.1-0.3-0.1-0.4 0.1-0.5 0.4-0.3 0.2-0.4 0-0.4 0-0.3-0.1-0.3-0.2-0.3-0.1-0.2 0-0.3 0-0.7 0.2-0.4 0-0.3-0.1-0.3-0.2-0.4 0-0.3 0.2-0.2 0.2-0.1 0.3-0.1 0.8-0.1 0.2-0.2 0.1-0.7 0-0.4 0-0.6 0.3-0.3 0.1-0.4 0-0.3-0.1-0.7-0.3-0.3-0.2-0.3-0.2-0.2-0.3-0.4-0.6-0.2-0.2-0.3-0.1-0.8-0.1-0.3-0.2-0.3-0.2-0.2-0.2-0.2-0.3-0.1-0.2-0.6-1.8-0.3-0.8-0.2-0.3-0.2-0.2-0.4-0.2-1.2-0.2-0.4-0.1-0.3-0.3-0.2-0.2-0.2-0.6-0.4-2.2-0.4-0.6-0.3-0.3-0.4 0-0.4-0.2-0.2-0.9-0.3-2.1-0.2-2.5-0.5-2.6-1.1-2.5-0.2-1-0.2-1.8 0.1-5-0.1-0.4-0.1-0.3-0.5-0.6-0.1-0.4-0.3-1.6-0.2-0.5-0.3-0.4-0.3-0.1-0.3-0.2-0.3-0.3-0.2-0.4-0.1-0.5-0.2-1-0.1-0.5-0.1-0.5 0-0.4 0.3-0.4 0.2-0.2 0.2 0 0.3-0.1 0.3-0.2 0.1-0.4-0.2-1.1 0.1-0.5 0.1-0.4 0.5-0.2 0.4-0.1 0.4-0.1 0.4 0 0.2-0.2 0.2-0.4 0.4-0.9 0.2-0.4 0.2-0.3 0.9-0.6 0.2-0.2 0.2-0.4 0.5-1.5 0.1-0.7 0.1-0.7-0.3-1.5-0.2-0.8-0.6-1.4 0-0.6 0.2-0.9 1.2-3.2 0.2-0.6 0.3-5.1 0.1-0.8 0.2-0.7 0.3-0.7 0.3-0.5 0-0.8 0.3-0.7 0.2-0.4 0.3-0.3 1-0.4 0.3-0.2 0.2-0.3 0.1-0.3 0.2-0.4 0-0.5 0-0.5-0.4-0.8-0.7-1-0.1-0.5 0-0.6 0.5-2.4 0-0.4-0.1-0.7-0.2-1-0.2-0.2 1.5-1.2 0.2 0 0.8 0.1 0.2-0.1 0.2-0.6-0.3-0.3-0.3-0.3 0-0.5 0.5-1.4 0.7-0.9 1.1-0.6 2.7-0.8 3-0.5 1.3 0.2 0.5-0.9 0.6-0.4 0.8-0.1 2.1 0.4 0.2-0.3 0-0.6 0.3-0.7 0.9-0.8 1.4 0.5 0.6 0.3 0.2 0.1 0.4 0.4 0.4 0 1-0.6 1.3-1.3 2.5-3 1.2-1.2 0.6 0 0.6 0.1 0.4-0.3 0.2-1.3 0.5-0.8 0.9-0.9 0-0.1 1.2-0.8 1.3-0.5 8.1-2.8 1.4-0.9 0.9-1.1 2.9 0.9 0.4 0.1 0.8-0.5 0.6-1.6 1.2-0.8 1.4-0.4 2.5-0.2 1.5-0.5 1.3-0.6 1.4-2 1.4-0.5 1.5-0.1 1.2 0.1 2.8 0.5 6.8 1.1 2.9 0.1 1-0.1 1.7-0.3 5.6-2.1 6.5-1.6 7.3-0.2 2.6 0 5.1-0.2 15.4-0.4 5.1-1.1 0.6-0.1 2-3 0-3.4 1.4-2.7 1.4-1.2 1-0.9 2.9-1.5 2.3-0.8 0.9-0.3 0.9-0.3 1.2-0.6 1.6-1.4 2.8-4.4 0.1 0 0.4-0.4 1.9-1.8 0.9-1.3 0.6-1.7 0.8-1.3 4.7-5.5 0.3-0.4 1.9-2.1 1.8-3.6 0.3-0.5 0.8-1.6 0.2-0.1 0.5-0.3 0.2 0.4-0.7 1.9 0 1.1 0.7 1 0 2.8-0.1 0.6-0.3 0.6-0.5 0.6-0.1 0.2-0.1 0.2 0.2 0.2 0.5 0.6 0.1 0.6-0.1 0.5-0.5 1.3-0.1 0.5 0.1 0.5 0.7 2-0.1 0.3-0.3 0.2-0.4 0.1-0.3 0.3-0.1 0.5 0.2 1.4-0.1 0.5-0.3 0.3-0.3 0.1-0.3 0.2-0.1 0.4 0.1 1.6-0.1 0.7-0.2 0.5-0.7 1-0.6 1.2-0.1 0.7 0 0.6 0.1 0.3 0.2 0.3 0.9 0.6 0.2 0.2 0.4 0.1 0.3 0 0.3 0.2 0.3 0.5 0.3 3.5 0.1 0.6 0.1 0.5 0 0.3-0.2 0.4-0.3 0.2-0.4 0.5-0.1 0.4 0.1 0.3 0.3 0.9 0.2 0.7-0.1 0.4-0.2 0.4-0.3 0.3-0.4 0.4 0 0.3 0.2 0.4 0.3 0.3 0.3 0.5-0.1 0.5-0.7 1.9-0.3 0.4-0.4 0.4-0.4 0.7-0.1 0.7 0.1 0.8-0.1 0.6-0.4 1.1 0.1 0.5 0.2 0.4 0.2 0.3 0.1 0.4-0.1 0.4-0.2 0.3-0.2 0.3-0.5 0.4-0.3 0.2-1.1 0.4-0.3 0.2-0.2 0.3 0 0.3 0.2 0.2 0.6 0.5 0.2 0.2 0.2 0.4-0.1 0.4-0.1 0.3-0.2 0.2-0.1 0.1-0.7 0.3-0.3 0.3-0.3 0.5-0.1 0.4 0.2 0.3 0.4 0.6 0.2 0.5 0 0.4-0.1 0.4-0.4 0.6-0.3 0.4-0.1 0.5 0 0.4 0.3 1.2 0.1 0.3 0.3 0.2 0.3 0.2 0.3 0.1 0.3 0 0.2-0.1 0.3-0.1 0.3 0 0.2 0.2-0.8 0.8-14.6 7.4-3.4 3-0.8 2.4 7.4 21.5 0.1 1.4-0.3 0.5-0.5 0.3-2.8 1.1-0.6 0.3-0.5 0.6-0.2 0.5 0 0.7 0 1-0.1 0.6-0.2 0.4-0.3 0.4-0.4 0.4-1.9 1-0.6 0.4-0.6 0.7-0.1 0.4 0.2 0.4 1.8 0.8 0.4 0.6-0.1 0.4-0.3 0.4-0.9 0.5-0.5 0.6-0.6 1.1-0.8 3.1-0.2 0.5-0.4 0.4-1.2 0.7-0.6 0.6-0.6 1-0.1 0.8 0.4 0.8 1.7 1.4 1 0.9 0.6 1.1 1.2 3.8 0.2 0.6 0.3 0.1 0.3 0.1 0.8 0 0.3 0.1 0.2 0.3-0.4 1-0.4 1.2 0.1 1 0.5 1 1.2 1.1 1.4 1 1.4 0.9 3.2 1.2 0.5 0.4 0.4 0.6 0.3 1-0.1 0.7-0.2 0.6-0.7 0.5-3.5 1.8-1.2 0.8-1 1.2-0.6 0.9-1.1 3.9z" id="CFAC" name="Ouham">
  </path>
  <path d="M225.9 392.9l-1.6 0.7-0.7 0.6-0.6 0.4-0.6 0.3-3.9 0.6-8.6 2.9-2.8 2.2-1.2 1.7-1.3 2.2-1 1.3-4 3.8-3.5 2.6-2.5 1-1.3-2.2-1.5-1.9-1.6-3.2-1-1.3-3.4-3-5.1-3.5-2.2-2.4-1.1-1.5-0.6-1.3-0.1-1.2-0.6-1.4-0.9-0.7-1.1-0.3-1 0-0.7 0.3-0.6 0.6-1.4 3.5-0.7 1.1-1.1 0.9-1.2 0.8-1.3 0.7-1.5 0.3-1.4 0.1-1.6-0.4-1.1-0.1-1.6 0-0.5-0.2-0.8-0.6-2.2-2.3-1.9-1.3-1.6-0.8-1.6-0.6-0.8-0.5-3-2.5-0.6-0.9-0.2-1 0.1-2.8-0.1-0.6-0.9-1.6-0.2-1.3-0.3-6.3-0.2-1.5-1-1.9-1.3-1.9-2.3-2.7-0.9-1.3-0.3-1 0.3-0.7 0.6-0.8 3.7-3.6 0.8-1.2 0.1-1.2-0.7-1.3-1.1-0.9-0.6-0.2-0.3 0.2-0.2 0.3-0.3 0.2-0.4 0.2-1.4 0.9-0.8 0.5-5 1.3-4.3 2.2-1.1 0.9-0.8 0.9-1.4-0.2-0.7-0.2-2.1-0.8-1.6 0.6-1.2 0.9-1.1 0.4-1.6-1.1-1.8-2-1.8-2.6-0.1-0.4 0.1-0.5 0-0.4-0.2-0.4-0.8-0.7-0.3-0.4-0.1-0.3-0.1-0.8-0.3-1.1-0.1-0.6-0.1-0.8-0.1-1.7-0.5-3.3-0.3-1.1-0.5-1.2-1.3-1.9-1.8-2.1-4-3.4-0.7-0.8-0.1-0.5 0.2-1.7 0-0.8-0.2-0.8-0.4-0.4-0.5 0-6.6 2.1-5 2.5-0.6 0.2-0.7 0.1-2 0.1-1.6-0.2-1.1 0 0.7-1.7 1-1.1 1.1-0.7 4.2-2.1 0.8-0.7 0.6-1 1.1-3.2 1.5-2.9 2.3-6.1 1.1-4.4 0.5-1.3 0.8-1.1 0.6-0.4 1.6-0.8 0.6-0.7 0.2-0.7-0.4-4.1 0.1-0.7 0.3-0.7 1-1.6 1.3-3.4 1.6-1.3 1-0.9 5.4-3 3.3-2.5 0.2-0.5 0.6-1.1 0.4-0.4 0.5-0.1 1.3-0.1 0.3 0 0.1-1-1.3-1.2 0.2-1.1 3.8-5.1 0.5-1 2.4 0.7 2.6 0.2 0.4 0 4.6-0.7 2.3 0.2 0.8 0.1 3.6 3.3 2.6 0.9 2.5-0.1 9.2-2.2 1.2-0.5 2.3-1.4 1-1 1.5-2.1 1-1.1 1.2-0.6 1.5-0.5 4.4-0.6 2.4-0.8 1.2 0 0.4 0 1.5-0.2 1.4-0.8 2.4-1.9 1.5-0.5 6.1-0.9 0.8-0.6 0.3-1 0-4.7 0.4-1.5 1-0.9 0.8 0 0.6 0.3 0.2 0.1 0.5 0.1 1-0.2 0.4-0.5 0.9-1.9 0.4-0.7 1.1-0.9 1.2-0.7 2.8-0.8 0.1 0.6 0 0.5 0 0.1 0 0.7-0.4 2.1 0.3 1.3 0.8 1.1 1.1 0.8 0.7 0.3 0.7 0.2 0.6 0.2 0.6 0.7 0.3 0.9-0.1 0.8-0.3 0.7-0.2 0.8 0.3 1.6 0.8 0.8 2.7 0.7 1.6 0.9 1.6 1.2 2.6 2.9 1.5 2.6 1 0.6 1.6-0.2 0.3-0.1 0.2-0.1 0.1-0.2 0.2 0.2 0.2 1 0.1 0.7 0 0.4-0.5 2.4 0 0.6 0.1 0.5 0.7 1 0.4 0.8 0 0.5 0 0.5-0.2 0.4-0.1 0.3-0.2 0.3-0.3 0.2-1 0.4-0.3 0.3-0.2 0.4-0.3 0.7 0 0.8-0.3 0.5-0.3 0.7-0.2 0.7-0.1 0.8-0.3 5.1-0.2 0.6-1.2 3.2-0.2 0.9 0 0.6 0.6 1.4 0.2 0.8 0.3 1.5-0.1 0.7-0.1 0.7-0.5 1.5-0.2 0.4-0.2 0.2-0.9 0.6-0.2 0.3-0.2 0.4-0.4 0.9-0.2 0.4-0.2 0.2-0.4 0-0.4 0.1-0.4 0.1-0.5 0.2-0.1 0.4-0.1 0.5 0.2 1.1-0.1 0.4-0.3 0.2-0.3 0.1-0.2 0-0.2 0.2-0.3 0.4 0 0.4 0.1 0.5 0.1 0.5 0.2 1 0.1 0.5 0.2 0.4 0.3 0.3 0.3 0.2 0.3 0.1 0.3 0.4 0.2 0.5 0.3 1.6 0.1 0.4 0.5 0.6 0.1 0.3 0.1 0.4-0.1 5 0.2 1.8 0.2 1 1.1 2.5 0.5 2.6 0.2 2.5 0.3 2.1 0.2 0.9 0.4 0.2 0.4 0 0.3 0.3 0.4 0.6 0.4 2.2 0.2 0.6 0.2 0.2 0.3 0.3 0.4 0.1 1.2 0.2 0.4 0.2 0.2 0.2 0.2 0.3 0.3 0.8 0.6 1.8 0.1 0.2 0.2 0.3 0.2 0.2 0.3 0.2 0.3 0.2 0.8 0.1 0.3 0.1 0.2 0.2 0.4 0.6 0.2 0.3 0.3 0.2 0.3 0.2 0.7 0.3 0.3 0.1 0.4 0 0.3-0.1 0.6-0.3 0.4 0 0.7 0 0.2-0.1 0.1-0.2 0.1-0.8 0.1-0.3 0.2-0.2 0.3-0.2 0.4 0 0.3 0.2 0.3 0.1 0.4 0 0.7-0.2 0.3 0 0.2 0 0.3 0.1 0.3 0.2 0.3 0.1 0.4 0 0.4 0 0.3-0.2 0.5-0.4 0.4-0.1 0.3 0.1 0.3 0.1 0.2 0.2 0.3 0.2 0.3 0.3 0.4 0.4 0.3 0.2 0.3 0.1 0.5 0.1 0.4 0.2 0.4 0.3 0.3 0.5 0.1 0.5-0.2 2.2-0.1 0.4-0.1 0.3-0.2 0.3-0.3 0.1-0.3 0-0.2-0.2-0.3-0.1-0.4 0-0.3 0.1-0.5 0.4-0.5 0.5-0.5 0.9-0.2 0.2-0.3 0-0.3-0.1-0.4 0-0.2 0.3-0.2 0.3-0.1 0.8 0.1 0.5 0.3 0.6 0 0.4-0.2 0.3-0.2 0.3-0.4 0.9-0.2 0.2-0.3 0-0.3-0.1-0.2 0-0.3 0.1-0.4 0.3-0.2 0.1-0.3-0.1-0.2-0.2-0.3-0.2-0.3 0-0.4 0-0.3 0.2-0.2 0.2-0.2 0.3-0.3 0.7-0.3 0.7-0.1 0.8 0 1.3-0.2 1-0.2 2.5 0.2 2.3 0.1 0.5 0.2 0.4 0.4 0.8 0 0.3-0.1 0.3-0.7 0.7-0.3 0.2-0.3 0.1-0.4 0-0.3-0.1-0.3-0.1-0.4 0.2-0.3 0.7-0.1 0.5 0.1 0.6 0.5 2.2 0.4 0.8 0.3 0.6 0 0.5-0.1 0.8 0 0.5 0.6 4 0.2 0.7 0.2 0.5 0.2 0.3 0.3 0.2 0.4 0.5 0.2 0.3 0.2 0.5 0.2 0.7 0.3 1.4 0.4 1.2 0.6 0.6z" id="CFOP" name="Ouham-Pendé">
  </path>
  <path d="M256.3 544.9l-2.7 1.4-1.4 1.8-1.5 1.3-2.5 0.2-1.8-0.6-0.9-0.1-1 0.4-1 0.8-0.6 0.7-0.6 0.7-1.2 0.5-1 0.2-2.8-0.1-0.9 0.2-1.9 0.8-0.9 0.1-1.9-0.1-0.6 0.2-1.2 0.5-0.5 0.3-0.8 0.7-0.6 0.3-0.4 0-0.9-0.1-0.6 0.1-0.9 0.3-0.5-0.4-0.6-0.6-0.7-0.4-0.7 0-1.9 0.2-0.7-0.1-1.2-0.5-0.7-0.2-1 0.1-0.1 0.6 0.2 0.7-0.2 0.6-1.3 0.7-1.5 0.1-5.7-1.4-1.4-0.1-1.6 0.1-3.3 0.9-2.9 1.9-2.1 2.6-1.1 3.1-0.6 5.8-1.8 4.4 0 1.7-0.4 1.5-2.4 3.4-0.8 1.6-0.1 1.7 0.6 1.5 0.7 1.4 0.5 1.6-0.4 2.5-2.7 5.1 0.2 3.1 0.8 1.3 1 1.2 0.7 1.2-0.4 1.7-2 4.2-1.6 3.5-0.9 2-3 6.3-3.2 6.7-2.2 4.8-3.2 6.7-3.5 7.6-0.3-0.2-0.9-0.5 0.1-0.7 0.4-0.9 0-0.6-0.3-0.2-1-0.6-0.2-0.3-0.1-1.4-0.1-0.7-0.2-0.6-0.5-0.7-1.3-1.5-0.9-1.8-0.6-1.4-0.1-0.6 0-2.6-0.3-1.2-0.9-1.7-0.2-0.9 0-1.5 1.1-2.4 0.3-1.4-0.2-1.4-1-2.4-0.2-1.4 0.2-0.8 0.5-1 0.7-1-0.8-0.2-0.9 0-1 0.1-0.7 0-0.2-0.6 0-1-0.2-2.4 0.2-1.8 1.9-1.9 0.6-1.6-0.2-1.9-0.7-1.5-0.8-1.5-1.1-2.3-1.5-2.2-0.5-0.5-0.7-0.4-0.7 0-0.8 0.2-0.9 0.3-0.3-0.3-0.2-0.3-0.2-0.4-0.9-3.5-0.6-1.4-1.2-1.4-1.3-1.1-1.2-0.4-2.9 0.3-0.3-0.1-0.8-0.5-0.4-0.1-0.3 0.2-0.8 0.4-0.3 0.1-0.9-0.1-0.5-0.2-0.6-0.3-5.2-5.6-6.5-6.9-6.9-7.3-7.2-7.7-5.9-6.2-4.7-5 0.3-0.3 11-7.1 1.4-0.7 1-0.3 0.6 0 0.6 0.1 0.5 0.3 0.3 0.2 0.3 0.3 0.4 1.6 0.6 0.3 0.9 0 2-0.3 1-0.4 0.8-0.5 0.3-0.5 1.7-4.1 1.1-1 7.9-4.7 8-3.5 2.8-0.8 11.4-1.5 1.4-0.1 1 0.1 0.6 0.2 0.5 0.3 0.5 0.4 0.5 0.4 0.6 0.3 6 1.5 1.6 0.5 3 1.5 0.7 0.6 0.5 0.5 0.4 0.4 0.7 0.3 0.9 0.1 2.6-0.1 1 0.1 0.8 0.4 0.8 0.6 2.4 2.8 0.8 0.3 0.4 0 0.5-0.3 0.4-0.4 0.3-0.6 0.7-2.4 0.3-0.5 0.4-0.3 1.6-1.2 2.6-2.6 2.7-3.4 0.6-1.2 0.2-0.8 0.2-0.9 0-0.9-0.2-3 0.1-2.1 0.2-1.1 0.4-1.1 0.8-1.5 2.8-4.4 0.8-0.8 0.6-0.3 1.5 0.4 2 0.3 0.6 0.2 1.7 1.2 4.8 5.7 0.2 0.3 0.1 0.4 4.4 6.5 1.9 3.8 0.4 0.5 0.2 0.4 2.5 1.9 0.5 0.2 2.7 0.2 0.8 0.1 0.5 0.1 3.6 2.4 0.3 0.2 2.2 0.6 2.2 0.2 0.4 0.1 0.4 0.2 1.5 0.8 2.3 0.6 0.8 0.4 2.7 1.7 3.6 1.7 0.7 0.4 0.4 0.4 5.4 8.2z" id="CFSE" name="Sangha-Mbaéré">
  </path>
  <path d="M193.6 413.2l0.2 3.5-1.4 7.4-0.1 1.8 0.3 1.2 0.8 2.1 1 4.5-32.5 13.5-2.3 0.7-1.8 0.3-1.3-0.2-1-0.6-0.7-0.7-0.8-1.1-0.5-0.4-0.7-0.2-0.7 0.2-2 1.1-3.9 1.4-1.2-0.1-0.7-0.4-1.3-2.2-0.2-0.5-0.1-0.6 0-0.4 0.1-0.5 0.1-0.4 0-0.4 0-0.5-0.3-0.7-0.8-1.6-0.2-0.6-0.1-0.5 0.2-1.4-0.4-0.3-0.8-0.1-2.2 0-0.8 0.2-0.4 0.2 0.1 0.3-0.1 0.5-0.2 0.6-1.9 2.4-0.3 0.5-0.2 0.5 0.2 0.4 0.3 0.4 0.3 0.5 0.2 0.8 0.8 7.8-0.4 0.1-5.4 0-0.5 0-0.7-0.3-0.4-0.1-0.5 0-1.4 0-0.1 0-2.8-1.3-0.9-0.5-0.4-0.2-0.4 0-0.7 0.4-4.3 2.9-0.6 0.2-0.4 0.2-2 0.1-0.6-0.1-0.3-0.1-1.6-0.9-0.8 0-0.4 0.1-0.5 0.3-1.1 0.4-11.3 0.2-1.7 0.2-2 0.4-2.9 2.5-1.1 0.7-0.7 0.2-0.4-0.1-0.4-0.2-0.8-0.8-2.6-2.9-0.1-0.1-0.8-0.4-0.9-0.1-0.8 0.1-2.4 0.7-1.4 0.2-1.5 0-6.2-1.1-5.7-0.2-0.9 0.1 0-0.3 0.5-2.6-0.3-2.7 0-3.6-0.3-1.5-0.5-1.6-0.8-1.5-1.1-1.1-1.5-0.7-3-1-1.4-0.9-1.1-1.3-0.3-0.8 0.6-0.1 0.8-0.8 0.6-1.1 0.4-1.3 0.1-0.9 0.3-0.3 0.7-1.1 0.6-1.1 0-0.6 1-0.3 0.3-0.8-0.1-2 0.2-1.2 1.1-1.9 0.2-0.8 0.1-2.1-0.1-0.9-0.5-1.1-1-1.6-0.3-1-0.1-1.2 0.2-1.1 1.2-3.1 1-3.9 0.4-1-0.5-1.4-0.4-7.4-1-1.3-0.4-1.4-0.9-1.4-0.8-0.1-1.9 1.2-1.1 0.1-2.2-0.3-1.1 0-1.2-0.7-0.5-1.1-0.3-1.3-0.5-1.1-1-1.1-1-0.8-0.8-1-0.6-0.5-0.6-0.9-0.1-0.5 0.2-0.5 0.5-0.6 0.3 0 0.7 0.5 0.4 0 0.3-0.3 0.3-0.6 0.2-0.3 0.3-0.7-0.1-0.3 0-0.4-0.1-0.3 0.9-0.8 1.6-1.6 1.1-0.3 2-2 1-1.3 0.6-1.1 2.9 0 10-4.8 1.1-0.8 2.6-3.4 0.7-1.3 0.1-0.8 0-0.7-0.3-1.7 0.2-0.8 1.7-2.4 8-18.1 1.1 0 1.6 0.2 2-0.1 0.7-0.1 0.6-0.2 5-2.5 6.6-2.1 0.5 0 0.4 0.4 0.2 0.8 0 0.8-0.2 1.7 0.1 0.5 0.7 0.8 4 3.4 1.8 2.1 1.3 1.9 0.5 1.2 0.3 1.1 0.5 3.3 0.1 1.7 0.1 0.8 0.1 0.6 0.3 1.1 0.1 0.8 0.1 0.3 0.3 0.4 0.8 0.7 0.2 0.4 0 0.4-0.1 0.5 0.1 0.4 1.8 2.6 1.8 2 1.6 1.1 1.1-0.4 1.2-0.9 1.6-0.6 2.1 0.8 0.7 0.2 1.4 0.2 0.8-0.9 1.1-0.9 4.3-2.2 5-1.3 0.8-0.5 1.4-0.9 0.4-0.2 0.3-0.2 0.2-0.3 0.3-0.2 0.6 0.2 1.1 0.9 0.7 1.3-0.1 1.2-0.8 1.2-3.7 3.6-0.6 0.8-0.3 0.7 0.3 1 0.9 1.3 2.3 2.7 1.3 1.9 1 1.9 0.2 1.5 0.3 6.3 0.2 1.3 0.9 1.6 0.1 0.6-0.1 2.8 0.2 1 0.6 0.9 3 2.5 0.8 0.5 1.6 0.6 1.6 0.8 1.9 1.3 2.2 2.3 0.8 0.6 0.5 0.2 1.6 0 1.1 0.1 1.6 0.4 1.4-0.1 1.5-0.3 1.3-0.7 1.2-0.8 1.1-0.9 0.7-1.1 1.4-3.5 0.6-0.6 0.7-0.3 1 0 1.1 0.3 0.9 0.7 0.6 1.4 0.1 1.2 0.6 1.3 1.1 1.5 2.2 2.4 5.1 3.5 3.4 3 1 1.3 1.6 3.2 1.5 1.9 1.3 2.2z" id="CFNM" name="Nana-Mambéré">
  </path>
  <path d="M194.4 433.7l10.2-6.1 2.5-1.2 1.5-0.3 1.7 1.2 1.3 0.7 1.9 0.3 2.7-0.2 2.7-0.7 1.7-0.3 1.2 0.1 0.8 0.4 7.1 5.3 1.5 1.6 4.5 6.9 0 0.7-0.4 0.6-0.5 0.4-2.6 0.8-0.9 0.4-0.8 0.5-1 0.9-0.4 0.3-0.4 0.1-1 0.1-0.3 0.1-0.1 0.1-0.2 0.1 0 0.2 0 0.2 0 0.3 2.9 4.1 0.2 2-0.1 0.5-0.3 0.8-0.5 0.5-0.7 0.4-0.7 0.2-0.5 0.1-0.6 0.3-0.9 0.4-5.2 3.5-2.8 1.2-1.4 0.3-0.4 0.2-0.5 0.5 0 9.1 0.2 1.4 0.9 2.6 0.5 1.2 5.6 10.4 0.7 0.7 1.6 0.5 1.2 1.2 1 1.5 0.7 1.5 0.6 2.2 0.4 0.7 1.2 1.4 0.1 0.3 0.4 0 1.6 0.5-0.2 1.3-0.5 0.3-0.7 0.1-3.3-0.4-0.4-0.1-0.5-0.3-1.1-1.1-0.4-0.7-0.5-0.5-4.2-2.6-0.8-0.3-0.8-0.1-0.6 0-0.7 0.3-0.7 0.7-1.8 2-0.9 0.8-1.9 2.3-3.2 6.6-0.6-0.2-2-0.3-1.5-0.4-0.6 0.3-0.8 0.8-2.8 4.4-0.8 1.5-0.4 1.1-0.2 1.1-0.1 2.1 0.2 3 0 0.9-0.2 0.9-0.2 0.8-0.6 1.2-2.7 3.4-2.6 2.6-1.6 1.2-0.4 0.3-0.3 0.5-0.7 2.4-0.3 0.6-0.4 0.4-0.5 0.3-0.4 0-0.8-0.3-2.4-2.8-0.8-0.6-0.8-0.4-1-0.1-2.6 0.1-0.9-0.1-0.7-0.3-0.4-0.4-0.5-0.5-0.7-0.6-3-1.5-1.6-0.5-6-1.5-0.6-0.3-0.5-0.4-0.5-0.4-0.5-0.3-0.6-0.2-1-0.1-1.4 0.1-11.4 1.5-2.8 0.8-8 3.5-7.9 4.7-1.1 1-1.7 4.1-0.3 0.5-0.8 0.5-1 0.4-2 0.3-0.9 0-0.6-0.3-0.4-1.6-0.3-0.3-0.3-0.2-0.5-0.3-0.6-0.1-0.6 0-1 0.3-1.4 0.7-11 7.1-0.3 0.3-0.7-0.7-5.6-6.1-6.1-8.8-4.1-9.8 1.2 0 2.3 0.6 1.1 0.1 1.4-0.3 2.7-1.3 1.5-0.3 1.4-0.6-0.2-0.8-0.8-0.6-1.1-0.1-0.9 0-0.4-0.5-0.3-1-0.4-1-1.1-0.4-1 0.2-0.8-0.7-0.5-1.9-0.1-3.9-0.7-4.2-0.6-2-1.1-1.9-2.4-3-0.5-1-0.4-1.7-0.5-0.7-0.8-0.5-3.1-1.1-11-7.6-2.5-2.5-1.9-2.9-0.9-3.3-0.5-5.3-0.4-1.2 0.1-0.5 0.3-0.7 0.3-1.8 0-0.7-1-6.6-0.3-0.8-0.4-0.7-0.3-0.7 0.2-1.9-0.4-0.6-0.4-0.6-0.3-0.8 0.1-1 0.9-0.1 5.7 0.2 6.2 1.1 1.5 0 1.4-0.2 2.4-0.7 0.8-0.1 0.9 0.1 0.8 0.4 0.1 0.1 2.6 2.9 0.8 0.8 0.4 0.2 0.4 0.1 0.7-0.2 1.1-0.7 2.9-2.5 2-0.4 1.7-0.2 11.3-0.2 1.1-0.4 0.5-0.3 0.4-0.1 0.8 0 1.6 0.9 0.3 0.1 0.6 0.1 2-0.1 0.4-0.2 0.6-0.2 4.3-2.9 0.7-0.4 0.4 0 0.4 0.2 0.9 0.5 2.8 1.3 0.1 0 1.4 0 0.5 0 0.4 0.1 0.7 0.3 0.5 0 5.4 0 0.4-0.1-0.8-7.8-0.2-0.8-0.3-0.5-0.3-0.4-0.2-0.4 0.2-0.5 0.3-0.5 1.9-2.4 0.2-0.6 0.1-0.5-0.1-0.3 0.4-0.2 0.8-0.2 2.2 0 0.8 0.1 0.4 0.3-0.2 1.4 0.1 0.5 0.2 0.6 0.8 1.6 0.3 0.7 0 0.5 0 0.4-0.1 0.4-0.1 0.5 0 0.4 0.1 0.6 0.2 0.5 1.3 2.2 0.7 0.4 1.2 0.1 3.9-1.4 2-1.1 0.7-0.2 0.7 0.2 0.5 0.4 0.8 1.1 0.7 0.7 1 0.6 1.3 0.2 1.8-0.3 2.3-0.7 32.5-13.5z" id="CFHS" name="Mambéré-Kadéï">
  </path>
  <path d="M418.4 349.6l-14.5-1.8-4.6 0.3-11.3 2.9-4.8 0.5-2.9 0.8-1.3 0.1-1.8-0.3-2.6-0.8-1.6-0.9-1.2-1-1.1-1.5-0.8-1.6-0.6-0.9-1.7-0.5-2.6 0-15.6 2.1 1.1-3.9 0.6-0.9 1-1.2 1.2-0.8 3.5-1.8 0.7-0.5 0.2-0.6 0.1-0.7-0.3-1-0.4-0.6-0.5-0.4-3.2-1.2-1.4-0.9-1.4-1-1.2-1.1-0.5-1-0.1-1 0.4-1.2 0.4-1-0.2-0.3-0.3-0.1-0.8 0-0.3-0.1-0.3-0.1-0.2-0.6-1.2-3.8-0.6-1.1-1-0.9-1.7-1.4-0.4-0.8 0.1-0.8 0.6-1 0.6-0.6 1.2-0.7 0.4-0.4 0.2-0.5 0.8-3.1 0.6-1.1 0.5-0.6 0.9-0.5 0.3-0.4 0.1-0.4-0.4-0.6-1.8-0.8-0.2-0.4 0.1-0.4 0.6-0.7 0.6-0.4 1.9-1 0.4-0.4 0.3-0.4 0.2-0.4 0.1-0.6 0-1 0-0.7 0.2-0.5 0.5-0.6 0.6-0.3 2.8-1.1 0.5-0.3 0.3-0.5-0.1-1.4-7.4-21.5 0.8-2.4 3.4-3 14.6-7.4 0.8-0.8-0.2-0.2-0.3 0-0.3 0.1-0.2 0.1-0.3 0-0.3-0.1-0.3-0.2-0.3-0.2-0.1-0.3-0.3-1.2 0-0.4 0.1-0.5 0.3-0.4 0.4-0.6 0.1-0.4 0-0.4-0.2-0.5-0.4-0.6-0.2-0.3 0.1-0.4 0.3-0.5 0.3-0.3 0.7-0.3 0.1-0.1 0.2-0.2 0.1-0.3 0.1-0.4-0.2-0.4-0.2-0.2-0.6-0.5-0.2-0.2 0-0.3 0.2-0.3 0.3-0.2 1.1-0.4 0.3-0.2 0.5-0.4 0.2-0.3 0.2-0.3 0.1-0.4-0.1-0.4-0.2-0.3-0.2-0.4-0.1-0.5 0.4-1.1 0.1-0.6-0.1-0.8 0.1-0.7 0.4-0.7 0.4-0.4 0.3-0.4 0.7-1.9 0.1-0.5-0.3-0.5-0.3-0.3-0.2-0.4 0-0.3 0.4-0.4 0.3-0.3 0.2-0.4 0.1-0.4-0.2-0.7-0.3-0.9-0.1-0.3 0.1-0.4 0.4-0.5 0.3-0.2 0.2-0.4 0-0.3-0.1-0.5-0.1-0.6-0.3-3.5-0.3-0.5-0.3-0.2-0.3 0-0.4-0.1-0.2-0.2-0.9-0.6-0.2-0.3-0.1-0.3 0-0.6 0.1-0.7 0.6-1.2 0.7-1 0.2-0.5 0.1-0.7-0.1-1.6 0.1-0.4 0.3-0.2 0.3-0.1 0.3-0.3 0.1-0.5-0.2-1.4 0.1-0.5 0.3-0.3 0.4-0.1 0.3-0.2 0.1-0.3-0.7-2-0.1-0.5 0.1-0.5 0.5-1.3 0.1-0.5-0.1-0.6-0.5-0.6-0.2-0.2 0.1-0.2 0.1-0.2 0.5-0.6 0.3-0.6 0.1-0.6 0-2.8-0.7-1 1.7 1.6 0.6 1.7 0.2 1.8 0.4 1.7 3.3 5.8 1.1 1 2.6 2 1.1 1.3 0.3 0.5 0.1 0.3 0.1 0.4 0 0.5 0.2 0.5 0.9 0.4 0.2 0.4-0.2 0.6-0.6 0.6-0.1 0.4 0.9 0.3 0.1 1 1.1 1.6 1.4 1.5 3.7 3.1 0.3 1 0 0.7 0.2 0.6 0.9 0.6-0.2 0.6 0.2 2.2-0.3 1.9 0.4 0.8 1.3 0.3-0.5 0.7-1.4 0.6-0.5 0.6-0.1 0.7 0.2 0.6 0.4 0.9 0 1.8-0.4 0.7-1 0.6 0.6 0.9 0.7 1.3 0.1 1.2-2.2 1.1 0.6 1.2 1 1.2 0.6 0.3-0.4 0.7-1.8 1.4 0.1 0.6 2.4 3.4 1.2 0.7 0.1-0.6 0.8-1.4 2.3 2.4 0.9 0.2 0.2-1.6 1.5 2.1 0.3 0.3 0.9 0 0.6-0.3 0.5-0.5 0.7-0.2 0.9 0.5 1.4 1.8 0.7 0.2 0.7 0.7 0.8 0.1 1.9-0.4-1.3 1.3-0.5 0.8 0.1 0.6 0.5 0.1 0.6 0 0.7 0.2 0.4 0.4-0.3 1.5-0.8 1.6-0.4 1.5 1 1.2 0.5-0.4 1.1 0.3 0.8-0.4 0.9 1 0.8 0.1 2.2 0.7 0.5-0.1 0.3-0.5 0.8 0.3 0.9 0.5 0.8 0 0.2 0.7-0.1 1.4 0.4 0.7 1.5-0.2 0.3 4.4 1.3 1.2 0.5-0.2 0.6-0.3 0.4 0 0.1 0.7 0.1 0.6 0.1 0.3 0.3 0.7 0.4 0.6 1.6 1.7 0.8 0.7 0.4-0.7 0.3-0.3 0.3 0 1.3 1.6 1.4 5.3 1.1 2.2 1 0.7 1.7 0.5 1.6 1 1.6 0.7 0.8 0.5 0.5 0.6 0.8 1.1 0.6 0.7 2.2 1.8 1.4 0.7 1.4 0.4 0.5 0.2 1.2 1.7 0-0.2 0.5 0 0.6 0.1-0.5 2.6 0 3.8-0.5 2.3-2 5.1-0.8 1.4-0.9 1.2-1.9 1.6-0.8 1.1-0.7 1.4-0.6 0.9-0.6 0.6-0.8 0.6-3.3 3.3-2.2 1.7-0.8 0.8-3.4 4.6-0.6 1.4-0.2 1.8 1.2 7.8 0.1 0.9-0.2 0.4-0.1 0.2-0.4 0-0.6-0.2-1.9-1.2-1.3-0.6-2.8-0.3-2.2 0.3z" id="CFKB" name="Nana-Grébizi">
  </path>
 </g>
 <g id="points">
  <circle class="2.674672441332834|15.039967833871486" cx="90.9" cy="615.3" id="0">
  </circle>
  <circle class="6.1804223068357835|21.566985452880132" cx="545.5" cy="370.4" id="1">
  </circle>
  <circle class="10.56260963871447|26.78859954808705" cx="909.1" cy="61.8" id="2">
  </circle>
 </g>
 <g id="label_points">
  <circle class="Vakaga" cx="617.9" cy="114.1" id="CFVK">
  </circle>
  <circle class="Haute-Kotto" cx="639.6" cy="280.6" id="CFHK">
  </circle>
  <circle class="Haut-Mbomou" cx="832.5" cy="361.1" id="CFHM">
  </circle>
  <circle class="Kémo" cx="381.6" cy="392.2" id="CFKG">
  </circle>
  <circle class="Ouaka" cx="487.2" cy="359.3" id="CFUK">
  </circle>
  <circle class="Basse-Kotto" cx="530.5" cy="458.6" id="CFBK">
  </circle>
  <circle class="Mbomou" cx="672.6" cy="424.1" id="CFMB">
  </circle>
  <circle class="Ombella-M'Poko" cx="295.3" cy="445.4" id="CFMP">
  </circle>
  <circle class="Bangui" cx="334.6" cy="495.3" id="CFBGF">
  </circle>
  <circle class="Lobaye" cx="275.2" cy="517.5" id="CFLB">
  </circle>
  <circle class="Bamingui-Bangoran" cx="456.2" cy="225.9" id="CFBB">
  </circle>
  <circle class="Ouham" cx="280.8" cy="310.8" id="CFAC">
  </circle>
  <circle class="Ouham-Pendé" cx="168" cy="326" id="CFOP">
  </circle>
  <circle class="Sangha-Mbaéré" cx="165.3" cy="558.7" id="CFSE">
  </circle>
  <circle class="Nana-Mambéré" cx="106.7" cy="406.2" id="CFNM">
  </circle>
  <circle class="Mambéré-Kadéï" cx="152.9" cy="485" id="CFHS">
  </circle>
  <circle class="Nana-Grébizi" cx="390.6" cy="306.8" id="CFKB">
  </circle>
 </g>
</svg>