<?xml version="1.0"?>
    
<!--********* Copyright (c) 2024 Pareto Softare, LLC DBA Simplemaps.com ***************************************
************* Free for Commercial Use, full terms at  https://simplemaps.com/resources/svg-license ************
************* Attribution is appreciated! https://simplemaps.com *******************************************-->

<svg baseprofile="tiny" fill="#6f9c76" height="1000" stroke="#ffffff" stroke-linecap="round" stroke-linejoin="round" stroke-width=".5" version="1.2" viewbox="0 0 1000 1000" width="1000" xmlns="http://www.w3.org/2000/svg">
 <g id="features">
  <path d="M777.6 510.3l-0.1 0-0.4-0.3-1-0.3-26.1-0.5-1.9-0.3-1.1-0.4-1.1-1.1-0.1-2-0.3-0.5-0.4-0.3-0.7-0.6-0.8-0.5-0.7 0-0.5-0.3-0.5-3.8 0.1-1.2 1.2-2-0.2-1.3-1.3-4.4 0-0.7 2.1-4.7 0.4-2.3-0.8-2-1.6-1.5-2.1-1.4-2-0.2-1.1 2.1-1.3-2.4 0.7-2.8 3.5-4.8-1.8-1.6-2.1-0.5-0.8-0.8 3.7-4.4 0-0.9-1.6-0.4-0.3-0.5 0.1-8.1 0.7-1.5 1.7-0.5 1.2-1-0.3-2.3-1.3-3.9-0.4-1.9-0.3-7-0.3-2.1-1.6-4.9-0.2-1.9 0.6-1.3 1-0.8 1.2-0.5 1.1-0.7 0.9-1.1 0-0.9-0.3-1-0.5-2.5-1.1-2.3-0.1-1 0.6-1.2 0.7 0 0.8 0.2 0.8-0.5 0.3-1.1 0.1-0.8-0.1-0.4-2.7-4.9-7.3-10.6-1.6-1.6-4.4-2-34.7-45-1-1.7-0.7-1.7-0.6-2.9-0.1-10.4 0.4-1.3 0.5-0.8 1.2-1.5 0.8-0.7 0.8-0.5 2.5-1.2 1.5-0.9 0.7-0.7 0.5-0.7 0.3-0.8 0.2-0.8 0-5.4 0.4-1.5 0.5-1.2 0.5-0.8 0.2-1.5-0.3-1.9-2.2-9.1-0.9-1.3-0.7-0.9-0.8-0.8-0.5-0.7-0.8-1.6-2.2-6.3-0.3-1.4 0.1-1.6 0.3-1.1 0-0.9-0.2-0.8-1.5-1.3-0.4-0.8 0.2-1 0.4-0.8 0.4-0.6 1.8-2.1 0.4-0.8 0.2-0.8 0-1-1.3-8.7-1-2.6-0.3-1.1 0.2-1.2 1-1.8 4-11 0.2-0.9-0.1-1.4-0.8-2.1-1.3-5.2-0.1-0.9 0-0.9 0.3-2.1-0.3-4.3-0.7-2.4-0.8-6.4 0.1-1.7 0.3-1.7 0.3-0.9 0.4-0.7 0.6-0.5 1.4-0.7 0.6-0.4 0.3-0.7 0.1-0.7-0.4-2.1-1-1.5-1.1-3.2-0.3-5 0.9-6.7-0.3-3.3 0.1-2.5-0.2-1.2-0.5-1.5-5.1-9-0.6-0.8-0.7-0.8-1.9-0.9-3.6-1.4-0.9 0.1-0.8 0.2-2.5 0.9-0.7 0.2-0.5-0.1-0.3 0-0.2-0.3-0.3-0.6-0.1-2.8-0.2-0.9-0.5-0.9-3.8-4.2-0.9-0.7-0.7-0.5-0.4-0.2-0.6-0.6-0.6-0.9-0.3-1.8 0.1-1.1 0.4-0.9 0.2-0.9-0.2-1-0.7-1.5-1.3-1.9-2.8-1.2-1.4-0.7 2.4-5.1 3-6.4 0.5-2.5-1-1.8-1.5-1.7-1.2-2-0.3-4.6 4-7.7 0.7-3.8-0.8-2.3-1.1-2.1-0.8-2.3 0.1-2.5 1.2-2.4 3.5-5 0.6-2.2 0.1-2.6 2.6-6.6 0.9-8.7 1.7-4.6 3.2-3.9 4.3-2.8 4.8-1.4 2.4-0.2 2.1 0.2 8.6 2.1 2.2-0.1 2-1.1 0.2-0.8-0.2-1.1 0.1-0.9 1.5-0.1 1 0.2 1.9 0.7 1 0.2 2.8-0.4 1.1 0.1 1.1 0.7 0.8 0.9 0.8 0.5 1.4-0.5 0.8-0.1 1.4 0.1 0.6 0 0.9-0.4 1.2-1 0.7-0.5 1.7-0.8 1-0.2 2.8 0.2 1.4-0.3 2.8-1.1 1.4-0.4 4.2 0.2 1.5-0.3 1.7-0.7 1-1 0.8-1.1 1.5-1.2 1.5-0.6 1.3 0.2 2.7 0.9 3.8-0.3 2.2-2.1 2.1-2.6 4-2.1 1.4-0.7 1.5-1.1 1.7-0.7 2.4 0.3 0.5 0.5 0.4 1.4 0.5 0.4 1.4 0.1 0.5 0.3 3.9 3.2 3.7 1.7 4.2 0.6 8.6 0 0.5-0.1 1.2-0.5 0.8 0 0.7 0.3 1 1.2 0.6 0.3 1 0 2-0.4 0.9 0.1 1.6 0.9 1.3 1.6 1 1.9 0.5 2 0.7 1.7 1.5 0.3 2-0.6 3.9-1.9 0.6-0.5 0.6 0.3 3.7 2.3 1 0.4 1.2-0.2 3.3-1.6 3.5-0.9 3.7 0 3.5 1.1 1.9 1.8 1.3 4.2 1.4 1.5 2.2 0.3 2.2-1 1.8-1.7 1.2-1.8 0.4-1.1 0.8-3.1 0.6-1.4 0.8-0.3 0.9 0.3 1.1 0 8.3-0.7 0.7 0.1 1.1 0.6 0.8 0 0.4-0.4 0.4-1.4 0.4-0.4 1.2-0.2 1.8 0.1 0.9-0.4 1.9-1.8 1.2-1.4 1.3-0.1 2.7 2.1 1.6 2.1 4.3 6.8 1.7 3.9 1.2 1.2 4.6 0.1 0.9 2.9 0.2 3.9 0.3 4.2 0.3 4.9-0.3 3.1-0.3 4.6-0.6 7.4-1 2.4-0.1 0.9-0.1 0.3-0.7 1.7-0.9 0.8-0.7 0.6-3.7 1.9-2.1 1.4-1.4 1.9-2.4 7.1-1 3.2-1.7 2.6-0.4 1-0.4 2.3-0.4 1.1-1.9 2.7-1 2.1-1.5 3.2-0.4 1.4-0.3 2.8-2.7 7.1-0.8 1.4-0.5 0.8-6.6 11.3-0.3 0.9-1.1 0.3-6 5.6-1.3 1.7-0.8 1.7-1.2 6.1-0.7 2-0.9 2-1.1 1.9-1.5 3.6-1 1.6-1.8 0.5-0.4 1.1-2.5 3-0.8 1.2-2 5.3-2 5.7 0 1.5 0.6 3.2 0.2 3.2-0.1 1.7-0.2 5.8-0.2 2.4 0.5 3.7-0.2 0.3 0.2 1.4 0.1 0.6-0.4 1.1-0.3 1.9-0.7 2.3 0 0.6-0.2 1.6 0 0.3-0.6 0.8-0.2 2.9 0 1.5 0 0.2 0.4 1.5 0.2 0.6 0.1 1.3 0.1 0.7 0 0.2 0.3 0.9 0.4 16.8-0.1 0.3 0.1 1.1 0 0.9-0.1 1 0 0.3-0.6 1.9-3.3 7.2-0.6 1-0.5 0.9-0.2 0.3-0.3 0.6-0.6 1.6-0.2 0.9-0.2 1-0.1 0-0.1 0.6-0.5 0.9-0.3 0.3-1.3 3.5-1.2 2.2-0.4 2.1-0.1 1-0.5 0.6-0.5 0.7-3.5 4.7 1.3 2.2 0.3 1.2 0.1 1.3 0.1 0.8 0 0.3 0 1-0.2 1.7-0.1 0.6-1.3 2.4-0.1 0.6-1.4 2.1-3.3 3.2-0.3 0.5-1.7 2.8-0.3 0.7-0.1 1.6-0.7 0.7-0.4 1.2 0.3 1.5-0.1 2-0.2 1.9-0.5 2.5 0 1.7 1.7 5 0.7 1 1.1 1.6 0.5 0.9 0.3 1.1 0.1 1.2 0 1.3 0.8 2.9-1 3.8 0.6 3.3-0.1 0.3-0.5 1.3-0.2 0.3-0.3 0.4-0.1 1-0.6 1.6-0.1 3.2 0 0.1 0 1.7 0.3 1.9 0.2 0.4 0.9 1.9 1.5 1.7 0.4 0.7 1.4 1.3 0.2 0.2 1.8 1.7 0.4 0.4 0.3 0.3 0.6 2 0.2 1.8-0.6 10.1-0.6 1.7-6.2 8.6-0.8 0.6-1.9 1.3-1 1.2-0.2 0.5-1.5 1.9-0.8 1-0.8 2.1-1.2 2-0.2 0.3 0 0.1-1.3 3.1-0.8 2.2-0.5 1.4 0 0.1-0.7 2.9-0.3 2.9 0 0.1-0.1 1-0.7 2.4 0.4 0.5 0.1 0.1 0.3 0.5-0.8 1.8-1 4.4-0.1 0.2-0.8 1.5-1.5 2.8-1.1 3.4-0.2 3 0.3 3.3 0.1 1.1-0.2 1.9 0.1 1.6 0.4 2.7 0.3 1.7 0.3 0.8 1.6 6.5 0.2 3.7-0.2 1.8-1.1 3.9-0.2 0.7-0.2 1.4-0.3 2.1-0.4 2.7 0 0.1-0.1 0.4-0.8 3.6-0.8 1.9-0.3 0.9-1.5 2.6-0.2 0.2-1.1 1-1.7 1.9-0.2 0.2-1.7 3.2-0.2 0.2-0.1 0.1-0.5 0.6-4.8 2.4-2.3 4.4-0.1 0.9-1.6 1.9z" id="CG7" name="Likouala">
  </path>
  <path d="M725.9 390.6l4.4 2 1.6 1.6 7.3 10.6 2.7 4.9 0.1 0.4-0.1 0.8-0.3 1.1-0.8 0.5-0.8-0.2-0.7 0-0.6 1.2 0.1 1 1.1 2.3 0.5 2.5 0.3 1 0 0.9-0.9 1.1-1.1 0.7-1.2 0.5-1 0.8-0.6 1.3 0.2 1.9 1.6 4.9 0.3 2.1 0.3 7 0.4 1.9 1.3 3.9 0.3 2.3-1.2 1-1.7 0.5-0.7 1.5-0.1 8.1 0.3 0.5 1.6 0.4 0 0.9-3.7 4.4 0.8 0.8 2.1 0.5 1.8 1.6-3.5 4.8-0.7 2.8 1.3 2.4 1.1-2.1 2 0.2 2.1 1.4 1.6 1.5 0.8 2-0.4 2.3-2.1 4.7 0 0.7 1.3 4.4 0.2 1.3-1.2 2-0.1 1.2 0.5 3.8 0.5 0.3 0.7 0 0.8 0.5 0.7 0.6 0.4 0.3 0.3 0.5 0.1 2 1.1 1.1 1.1 0.4 1.9 0.3 26.1 0.5 1 0.3 0.4 0.3 0.1 0-14 16.8-2.5 2.3-0.3 0.2-0.1 0.1-0.9 1-0.1 0.1-0.8 1-1.2 1.2-2.5 1.2-0.3 0.6-1.4 1.6-1.1 0.4-0.5 0.2-0.4 0.1-0.9 0.6-1.1 0.8-3.2 0.9-5.3 0.7-2 0.6-0.8 0.3-0.4 0-3.5 1.3-2 1-0.3 0.2-4.9 1.4-3.3 0.6-0.7 0.2-1.1 0.8-0.6 0.2-0.3 0.7-2.5 2.8-4 3.6-0.9 1-0.2 0.2-0.2 0.1-3.2 2.8-1.2 1.3-0.4 0.5-0.3 0.2-1.7 1.6-0.6 0.6-1.1 1-1.4 1.6-0.1 0.2-0.7 0.9-0.3 0.4-0.1 0-0.2 0.3-0.4 0.5-2.1 3.1-1.3 2.5-0.7 1.4-0.3 0.6-1.3 2.6-1.7 2.9-0.2 0.4-0.2 0.2-0.5 1.3-0.9 2.3-0.1 0.2-0.3 0.5-0.9 2.1-0.1 0.1-2.2 2.9-2.4 4.8-1.4 2.2-0.1 0-3.3 0-2.4 0.2-0.3-0.9 0.5-1.6 0.1-1.4-0.5-1.2-0.1-0.1-0.4 0.1-3.1-1.2-2.1-0.5-2.1 0.2-1.9 1.2-1.7 0.5-2.7 0-2.3-0.3-0.2-0.8-0.4-0.6-1.8-0.5-1.4-1 0.6-1.7-4.4-0.2-2.6-2.4-3.3-9.2-2.2-2.9-1.6-3.5-0.5-0.7-0.8-0.8-0.7-0.4-4-0.5-0.7-0.4-0.6-0.7-11.6-7.2-3.2-1.6-3.3-1.3-6.7-0.6-1.9-1-0.1-2.4-0.3-0.9-1.1 0.6-0.8 0-0.9-1.1-1.5-2.2-0.8-0.4-4.8-1.4-0.5-0.5-0.4-0.7-0.7-0.7-2.2-1-4.8-1.1-1.9-0.8-1.7-1.9-0.4-2.4 0-2.5-0.5-2.1-1.4-1.2-1.8-0.5-4.1-0.4-5.6-1.4-2 0.1-1.6 0.6-3.1 1.5-1.6 0.6-0.6-0.1-1.1-0.6-0.4 0-0.8 0.2-1.3 0.8-3.7 1.1-1.7 1.4-2.9 4.5-1.5 1.7-1.8 1.5-0.5 0.1-1-0.3-0.5 0.1-0.8 0.8-1.2 2-0.8 0.9-2.3 1.5-5.2 2.2-2.1 1.9-6.9 8.9-2.1 4.5-5.4 16.9-7.1 9.2-4 3.7-1.6 1-2.8 1.2-1.3 0.3-4.1-0.3-0.8 0.1-0.9 0.2-5.1 2.2-1.4 0.9-5 4.2-1.4 1.5-0.8 1.3-0.4 2.5-0.3 0.7-1.3 2.3-0.8 1-2.9 2.8-0.9 1.2-1.2 1.9-2.1 2.4-0.5 0.7-1.1 3.1-0.4 0.8-4.1 5.7-2.4 2.2-1.5 1.1-1.8 0.8-1.1 0.2-0.8 0.6-0.6 0.7-0.8 1.7-0.3 0.3-0.4 0.5-0.7 0.6-0.8 0.3-3.9 0.8-0.8 0.1-0.9 0-1.6-0.2-1.6-0.4-0.8-0.5-0.8-1.4-0.6-2-0.4-5.6-0.2-0.7 0.2-0.1 2.8-1.5 0.7-1.4-0.8-4.6 0.1-0.8 0.6-2.7 0.3-8.3 0.7-2.3 1.3-1.4 2.4-1.4-0.8-0.7-2.2-0.4-1.7-0.5-1.3-4.3-2-1.1-0.7-0.8 0.9-0.8 2.1-0.7 1-0.5 1-0.8 0.7-1 0.4-1.2 0.7-0.9 3.4-0.7 0-1.5-1.2-1.9-1.4-1.4 1.4-3 0.1-2.5 0.4-1 1.2-1.1 1.3-0.9 0.8-1.2-0.6-2.1-3.7-2.4-1.5-1.6-0.6-2 0.3-1.2 0.7-0.7 0.9-0.7 0.7-0.8 0.6-1.1 0.4-1 0.4-2.4 0.1-3.2-0.2-1-0.8-1.3-1.8-1.7 13.5-2.4 7.4-2 2.5-2.5 2.6-1.1 4.2 1 19.6-0.8 7.8-1.8 5.7-4.9 10.2-11.6 1.9-4.5 2.3-3.6-2-3.4-16.3-14.2 4.4-5.8 5.9-5.9 2.1-3.4 1.5-3.7 0.7-3.6-4.8-18.5-1.6-3.6-3.5-1.1-7.6-1-3.3-1.6-1.2-3.3-1-4-2.8-5.9-0.7-2.4 0.2-1.7-0.1-1.7-0.8-4 0.9-3.9 3.4-0.4 3.7 0.4 4-0.7 2 0.3 1.9 0.1 8-1.5 7.7-2.5 5.2-5.6-1.6-7.1-6.7-4.9-3-6 3.6-2.1 4-1.8 3.1-1.7 2.6-2.3 2.5-3.5 0.1 0.1 0.2 0.4-0.1 0.3-0.2 0.9 0 0.6 0.3 0.4 0.4 0.1 0.9-0.4 0.4-0.1 3.2 0.9 2 0.2 0.6 0 0.7 0 0.9-0.4 0.6-0.4 0.7-0.3 0.7-0.1 1.3 0.3 1.5 0.5 0.7 0.2 1.2 0.1 1.3 0.4 0.5 0.2 0.5 0.2 0.4 0.2 0.4 0.3 0.5 0 0.6 0 1-0.1 1.1 0.2 0.7 0.3 0.9 0.7 0.5 0.2 0.6 0.1 0.7-0.1 0.6-0.4 1.4-1.7 0.4-0.3 1.3-0.9 0.3-0.3 0.3-0.5 0.2-0.5 0.5-1.7 0.4-0.9 0.2-0.2 0.2-0.2 0.2-0.1 0.3-0.1 0.5-0.1 1.2-0.2 0.6-0.2 0.2-0.2 0.6-0.5 0.5-0.2 0.6-0.2 0.9-0.2 0.6-0.1 0.6-0.3 0.8-0.5 0.4-0.1 3.2-0.2 0.2-0.1 0.7-0.4 0.4-0.2 0.6-0.1 1.1 0 0.8 0.1 0.8 0.4 0.3 0.4 0.3 0.6 0.2 0.4 0.5 0.3 0.7 0 1-0.3 0.7-0.3 0.8-0.5 0.4-0.1 0.5 0.1 2.6 0.6 2.5 0 3.5 0.6 0.6 0.4 0.4 0.3 0.4 0.3 0.5 0.3 0.4 0.2 0.7 0.8 0.4 0.3 0.8 0.5 0.5 0.3 2.1 0.8 1 0.4 0.3 0.4 0.4 0.4 0.1 0.5 0.1 1.9 0.1 0.6 0.2 0.5 0.3 0.4 0.4 0.3 0.4 0.3 0.7 0.2 2.6 0.5 4.3 1.4 0.5 0.2 0.4 0.3 1.5 1.4 1.2 0.9 0.6 0.8 1.9 3.8 0.1 0.5-0.2 5.7 0.1 0.4 0.1 0.4 0.2 0.5 0.3 0.3 0.4 0.3 0.7 0.4 0.3 0.3 0.3 0.3 0.2 0.5 0.2 1 0 0.9-0.2 2.4 0.1 0.3 0.4 0.2 0.9 0.2 0.6 0.2 2 0.9 0.6 0.2 0.7 0 0.9-0.2 1.9-1 0.7-0.2 0.5-0.1 1 0.2 0.6 0.3 0.8 0.7 0.4 0.3 0.4 0.3 1.5 0.6 0.4 0.3 0.4 0.4 0.8 1.3 0.3 0.4 0.4 0.3 0.6 0.1 3.2-0.2 0.5 0 0.1 0.1 0.1 0.3 0.2 0.4 0.1 0.5 0.2 0.5 0.2 0.5 0.3 0.4 0.4 0.3 73.6-36.6z" id="CG8" name="Cuvette">
  </path>
  <path d="M447 631.6l0.2 0.7 0.4 5.6 0.6 2 0.8 1.4 0.8 0.5 1.6 0.4 1.6 0.2 0.9 0 0.8-0.1 3.9-0.8 0.8-0.3 0.7-0.6 0.4-0.5 0.3-0.3 0.8-1.7 0.6-0.7 0.8-0.6 1.1-0.2 1.8-0.8 1.5-1.1 2.4-2.2 4.1-5.7 0.4-0.8 1.1-3.1 0.5-0.7 2.1-2.4 1.2-1.9 0.9-1.2 2.9-2.8 0.8-1 1.3-2.3 0.3-0.7 0.4-2.5 0.8-1.3 1.4-1.5 5-4.2 1.4-0.9 5.1-2.2 0.9-0.2 0.8-0.1 4.1 0.3 1.3-0.3 2.8-1.2 1.6-1 4-3.7 7.1-9.2 5.4-16.9 2.1-4.5 6.9-8.9 2.1-1.9 5.2-2.2 2.3-1.5 0.8-0.9 1.2-2 0.8-0.8 0.5-0.1 1 0.3 0.5-0.1 1.8-1.5 1.5-1.7 2.9-4.5 1.7-1.4 3.7-1.1 1.3-0.8 0.8-0.2 0.4 0 1.1 0.6 0.6 0.1 1.6-0.6 3.1-1.5 1.6-0.6 2-0.1 5.6 1.4 4.1 0.4 1.8 0.5 1.4 1.2 0.5 2.1 0 2.5 0.4 2.4 1.7 1.9 1.9 0.8 4.8 1.1 2.2 1 0.7 0.7 0.4 0.7 0.5 0.5 4.8 1.4 0.8 0.4 1.5 2.2 0.9 1.1 0.8 0 1.1-0.6 0.3 0.9 0.1 2.4 1.9 1 6.7 0.6 3.3 1.3 3.2 1.6 11.6 7.2 0.6 0.7 0.7 0.4 4 0.5 0.7 0.4 0.8 0.8 0.5 0.7 1.6 3.5 2.2 2.9 3.3 9.2 2.6 2.4 4.4 0.2-0.6 1.7 1.4 1 1.8 0.5 0.4 0.6 0.2 0.8 2.3 0.3 2.7 0 1.7-0.5 1.9-1.2 2.1-0.2 2.1 0.5 3.1 1.2 0.4-0.1 0.1 0.1 0.5 1.2-0.1 1.4-0.5 1.6 0.3 0.9 2.4-0.2 3.3 0 0.1 0-2.1 3.1-0.7 1.8-0.6 1.7-0.1 1.2 0 1.4-0.8 1.6-0.3 0.6-2.4 4.7-0.3 0.4-3.3 5.4-0.2 0.3-0.8 1.4-0.5 0.8-0.2 0.4-3.5 4.7-1.7 2.3-0.9 1-0.4 0.4-0.1 0.1-0.5 0.2-0.9 0.9-1.6 2-6.6 6.5-4.4 3.3-5.8 5.5-2.9 2-2.6 2.4-2.6 3.3-1.2 2.2-0.8 2.3 0.1 2.4 0.2 0.8 0 0.7-1.4 4.7-0.2 1.7 0.4 1.6 0.7 1-0.1 5.7 0.2 1.6 0 0.2 0.2 1.8 0.1 0.7 0.5 2.4 1.6 7.3 0 0.1 1.7 12.2-0.3 1.9-0.1 0.2-0.7 2.5-2.2 4.1-0.1 3.3 1.2 3.3 0.1 0.2 0 0.1-0.1 0.8-0.5 1.8-0.5 1.3-1 3.2-0.5 2.2 0 3.4-0.2 2.2 0.2 1.2-3.8-0.4-2.3-0.5-2.7-0.2-0.9 0-1.1 0.1-2 0.4-0.9 0.4-0.7 0.3-0.3 0.3-0.4 0.2-0.2 0.1-1.3-0.1-1.7-0.3-0.8-0.4-0.6-0.4-0.3-0.5-0.3-0.3-0.5-0.3-0.5-0.2-0.5-0.2-0.3-0.4-0.5-1.6-0.3-0.5-0.3-0.4-0.4-0.3-0.6-0.8-0.4-0.3-0.5-0.2-0.6-0.2-0.5-0.2-0.5-0.2-1.2-1-1.2-0.8-2.8-1.2-1.3-0.2-1.3-0.6-1.7-0.5-0.5-0.4-0.5-0.2-0.6 0.5-0.8 0.9-0.4 0.1-1-0.5-0.7-0.2-6.7 1.4-1 0.4-1.5 0.8-1.2 0.9-0.9 0.5-0.4 0.5-0.3 0.4-0.5 0.9-0.1 0.6-0.5 0.4-0.7 0.3-1.3 0.2-0.6 0.2-0.4 0.2-0.6 0.6-0.3 0.1-0.8 0.4-2.3 0.6-1.1 0.4-1.4 0.9-0.7 0.5-1.1 1.1-0.4 0.4-0.4 0.2-0.8 0.6-1.5 1.4-0.8 0.6-0.6 0.3-2.6 1.7-1.3 0.6-7.5 2.6-0.8 0-0.9-0.1-3.8-1.1-0.9-0.1-1.1 0.1-2.1 0.2-1.9 0.5-1 0-4.1-0.7-2-0.7-0.4-0.3-0.4-0.2-1.3-0.3-0.3-0.3-0.2-0.2-0.1-0.1-0.1-0.3-0.2-0.3-0.4-0.3-0.6-0.2-1.7-0.3-0.6-0.2-0.4-0.3-0.4-0.3-0.3-0.5-0.6-1.6-0.4-3.1-0.2-0.5-0.3-0.4-1.1-1-0.6-0.9-0.3-0.4-0.4-0.3-0.9-0.3-6.7-0.6-0.7 0.1-2.3 0.9-2.2 0.7-1.8 0.1-2.1-0.2-1-0.3-0.6-0.5-0.1-0.5 0-0.6 0.3-1 0-0.3-0.1-0.4-0.7-3.5 0-2.7-0.1-0.6-0.1-0.6-0.2-0.5-0.3-0.4-0.8-0.7-0.3-0.3-0.2-0.5 0.2-1.7-0.1-0.6-0.2-0.5-0.6-0.8-0.8-1.4-0.2-0.4-0.4-0.4-0.9 0.1-1.1 0.3-3.2 1.9-0.9 0.7-2.5 1.4-0.7 0.6-0.4 0.5-0.1 0.6 0 1.9 0 0.4-0.4 1.4-0.3 0.6-0.1 0.2-0.1 0.1-0.1 0.1-1.1 0.8-0.8 0.8-3.7 2.1-1.3 1-0.1 0.3-0.6 0.9-3.1 2.8-2.8 2-0.4 0.3-0.2 0.3-0.1 0.3-0.5 1.4-0.2 0.2-0.3 0.3-1.7 1.1-0.8 0.7-2.5 2.5-1.8 1.1-0.3 0.2-0.3 0.4-1.6 2.8-0.6 0.8-1.6 1.5-1.2 2.1-0.4 0.4-1-0.1-1.6-0.4-2.8-1.6-1.3-0.9-0.8-0.6-0.3-0.4-0.4-0.3-0.5-0.3-0.6-0.2-3.5 0.1-1.2 0.3-0.7-0.1-0.8-0.2-2.2-1.3-1.4-0.3-3.3 0.2-2.1-0.8-2.5-3.5 0.5-1 0.2-0.4 0.3-0.7 0.7-0.7 1.2-0.9 0.4-0.3 0.3-0.5 0.2-0.5 0.2-1.2 0.3-0.6 0.5-0.6 0.7-0.5 1.5-0.8 0.7-0.5 0.6-0.8 0.2-0.9-0.4-1.5-3.3-9.2-0.2-1.7-0.2-0.5-0.5-0.1-0.9 1-0.5 0.3-0.4-0.4 0.1-1 0.3-1 1.4-2.4 0.3-0.9 0-0.8-0.4-0.6-1.3-0.3-1 0.1-1 0-0.8-0.4-1-0.6-0.9-0.1-0.8 0.2-1.8 1-0.9 0.1-0.9-0.3-1.1-0.6-0.8-0.4-0.9-0.1-1.7 0-0.7-0.2-0.7-0.6-0.4-0.6-0.2-0.8 0.4-0.6 1.4-1.1 1.3-1.3 1.5-0.9 0.7-0.6 0.3-0.8-0.2-0.7-1-0.8-0.8 0.1-0.6 0.4-0.5 0.4-0.6 0-0.7-0.4-1.6-1.1-0.5-0.6-0.3-0.7 0.6-0.7 1.4-0.3 0.5-0.2 0.4-0.3 0.2-0.4-0.1-0.5-0.3-0.8-3-2.8-1.1-2.8-1-1.6 0.6-1.9 0.9-0.9 1-0.8 0.7-0.9 0-2.7 0.5-1.1 0.8-0.8 2-1.7 1-0.7 1-0.4 5-1.2 0.4 0.3-0.8-3.3-7.8-6.7-0.4-3.6 1.4-1.1 3.6-1.3 1.4-1.5 0-0.8-0.6-1.8 0.1-1 0.5-0.5 1.8-0.7 0.7-0.7 0.5-1.5 0.6-5.4 0.7-2.1 0.1-1-0.5-0.9-0.8-0.6-0.6-0.6-0.1-0.6 0.6-1-0.1-1.2 0.3-0.9 0.5-0.8 0.8-0.8 12.1-4.7z" id="CG14" name="Plateaux">
  </path>
  <path d="M435.8 741.9l2.5 3.5 2.1 0.8 3.3-0.2 1.4 0.3 2.2 1.3 0.8 0.2 0.7 0.1 1.2-0.3 3.5-0.1 0.6 0.2 0.5 0.3 0.4 0.3 0.3 0.4 0.8 0.6 1.3 0.9 2.8 1.6 1.6 0.4 1 0.1 0.4-0.4 1.2-2.1 1.6-1.5 0.6-0.8 1.6-2.8 0.3-0.4 0.3-0.2 1.8-1.1 2.5-2.5 0.8-0.7 1.7-1.1 0.3-0.3 0.2-0.2 0.5-1.4 0.1-0.3 0.2-0.3 0.4-0.3 2.8-2 3.1-2.8 0.6-0.9 0.1-0.3 1.3-1 3.7-2.1 0.8-0.8 1.1-0.8 0.1-0.1 0.1-0.1 0.1-0.2 0.3-0.6 0.4-1.4 0-0.4 0-1.9 0.1-0.6 0.4-0.5 0.7-0.6 2.5-1.4 0.9-0.7 3.2-1.9 1.1-0.3 0.9-0.1 0.4 0.4 0.2 0.4 0.8 1.4 0.6 0.8 0.2 0.5 0.1 0.6-0.2 1.7 0.2 0.5 0.3 0.3 0.8 0.7 0.3 0.4 0.2 0.5 0.1 0.6 0.1 0.6 0 2.7 0.7 3.5 0.1 0.4 0 0.3-0.3 1 0 0.6 0.1 0.5 0.6 0.5 1 0.3 2.1 0.2 1.8-0.1 2.2-0.7 2.3-0.9 0.7-0.1 6.7 0.6 0.9 0.3 0.4 0.3 0.3 0.4 0.6 0.9 1.1 1 0.3 0.4 0.2 0.5 0.4 3.1 0.6 1.6 0.3 0.5 0.4 0.3 0.4 0.3 0.6 0.2 1.7 0.3 0.6 0.2 0.4 0.3 0.2 0.3 0.1 0.3 0.1 0.1 0.2 0.2 0.3 0.3 1.3 0.3 0.4 0.2 0.4 0.3 2 0.7 4.1 0.7 1 0 1.9-0.5 2.1-0.2 1.1-0.1 0.9 0.1 3.8 1.1 0.9 0.1 0.8 0 7.5-2.6 1.3-0.6 2.6-1.7 0.6-0.3 0.8-0.6 1.5-1.4 0.8-0.6 0.4-0.2 0.4-0.4 1.1-1.1 0.7-0.5 1.4-0.9 1.1-0.4 2.3-0.6 0.8-0.4 0.3-0.1 0.6-0.6 0.4-0.2 0.6-0.2 1.3-0.2 0.7-0.3 0.5-0.4 0.1-0.6 0.5-0.9 0.3-0.4 0.4-0.5 0.9-0.5 1.2-0.9 1.5-0.8 1-0.4 6.7-1.4 0.7 0.2 1 0.5 0.4-0.1 0.8-0.9 0.6-0.5 0.5 0.2 0.5 0.4 1.7 0.5 1.3 0.6 1.3 0.2 2.8 1.2 1.2 0.8 1.2 1 0.5 0.2 0.5 0.2 0.6 0.2 0.5 0.2 0.4 0.3 0.6 0.8 0.4 0.3 0.3 0.4 0.3 0.5 0.5 1.6 0.3 0.4 0.5 0.2 0.5 0.2 0.5 0.3 0.3 0.3 0.3 0.5 0.6 0.4 0.8 0.4 1.7 0.3 1.3 0.1 0.2-0.1 0.4-0.2 0.3-0.3 0.7-0.3 0.9-0.4 2-0.4 1.1-0.1 0.9 0 2.7 0.2 2.3 0.5 3.8 0.4 0.1 0.2 0.1 1.6 0.5 1.2 0.1 0.8-0.4 5.2 0 0.1-0.7 0.7-0.5 4 0 0.2 0.5 2.9 0.3 3.8 0.5 1.8 0.6 2.4 0.2 2.1-0.7 2.4-0.2 3 0.5 1.7 0.9 1 2.3 1.4 0.3 0.6-1.2 4.6-0.7 1.9-1.3 2.8-0.5 1.1-2.3 3.7-2.1 2.5-1.3 2.3-0.4 1.6-0.3 1.2-1.3 3.4-0.3 0.2-2.5 4-2.2 2.5-0.7 0.8-0.6 1.2-0.6 1.3-0.1 0.3-3.5 7-0.7 2.3-1.5 1.5-1.3 3.7-1.5 3-0.1 0.3-0.6 0.9-2.1-2.6-1.7-2-1.6-2.5-0.5-3.8-1.6-4.5-2.5-5-3.3-5.4-2.7-3.5-5.8-2.1-3.8-1.6-3.7 0.8-2.9 2.9-2.1 3.8-2.5 5.4-2.4 2.4-2.8-0.6-3.3-3.3-3.7-4.6-2.9-2.9-2.5-2.9-4.6-1.7-5.8-1.6-3.3-2.5-2.9-0.4-2.1 3.7-0.8 6.6-0.4 7.1-0.9 6.6-2 6.3-3.9 4.1-5.8 3.3-2.9 5.4 0 5.4 2 6.7 0.4 5.4-1.6 7.9-3.3 5.4-2.5 6.2-2.1 5-4.5 5.8-2.8 4.6 3.7 3.7 2.9 3.4 2.5 5 3.2 4-0.1 0.1-0.1 0.2-0.1 0.1-5.1 2.6-0.8 1.1-0.7 1.4-8 7.9-8.5 14.3-0.8 1.7-1.1 1.6-1.6 1.3-4.9 2.1-6.9 4.4-3.1 1-4 0.4-1.1-0.4-3.3-2-1.3-0.4-0.4-0.3-0.9-1.4-0.5-0.5-0.8 0-2.3 0.1-0.4-0.4-0.9-1.2-1.9 0-2 0.5-1.3 0.7-2.1 2.2-1.3 0.7-2 0.3-1.3 0.2-0.1-0.2-0.2-0.8 0-0.8 0-0.9 0.3-1.1 0.1-0.8 0.2-1 0.4-1.5 0.5-1.1 0.2-1 0.4-2.3 0.2-1.2-0.1-0.8-0.2-0.8-0.2-0.7-0.7-1.4-0.3-1.2-0.1-0.6 0.2-1-0.4-2.6-1.2-1.7-1.5-1.4 0.4-0.7 0.4-1 0.4-1.1 0.3-1.4 0.3-1.5-0.2-1.9-0.1-1-0.1-1.1 0-0.6 1.5-0.7 1-0.3 0.9-0.5 0.3-0.6 0-1 0.2 0.2 0.1-0.9 0.2-1.3-0.2-0.6 0.5-0.1 0.5-1 0.2-0.1 0.3-0.1 0.1-0.1 1.2-1 0.1-0.3 0.2-0.4 0.1-0.5 0.2-0.8 0.4-0.5 0-0.1 0.4-0.3 0.7-0.7-0.7 0-0.3-0.1-0.2-0.1 0.1-0.5-0.7-0.7-3.6-2.3-2-2.4-1-1.4 0.4-0.3 0.7-0.8 0.6-1 0.3-1 0-0.8-0.6-1.3-0.5-0.7-0.7-0.4-0.7-0.2 0-0.1 0.1-1.2-0.3-0.8-0.6-0.5-1.9 0.2-4.5 2.4-4.7 1.1-2.2 1.5-3.9 3.5-3.9 1.8-4 1.3-9.1 1.1-3.9 1.6-3.1 4.1-0.1 0.3-0.3 0.2-1.6 1.2-1.8 2.1-1.1 0.7-1 0-3-0.8 0-0.1 0.8-3 1.1-1.8 0.3-0.8 0.4-1.5 0.3-0.8 1.3-2.4 0.2-1.1 0.6-7 0.9-3.1 0.2-0.4 0.5-0.5 0.6-0.6 1.5-0.2 3.8-1.9 2.4-1.8 3.1-3.4 1-0.9 1.4-0.5 3.5-0.9 1.7-0.7-0.8-0.8 1.7-1.2 0.1-1.7-1.8-4.2 1.2-2 1.4-1.4 5.3-3.7 0.7-0.7 0.3-0.9 0.5-2.1 0.5-0.6 0.9 0.2 3.4 2 4.3 0 0.5-0.5 1.7-2.4 1.5-1.8 0.8-0.6 1.3-0.5-1.3-2.2-1-2.9-1.2-2.4-1.9-1.1-2-0.4-1-1.3-0.3-1.7 0-1.9-3.4-5.6-2.3-2.6-2.7-5-0.3-1.6 0.5-0.1 1 0.4 1.5-0.2 1-0.8 1.5-1.7 0.8-0.4 0.7-0.2 2.7-1.4 0.4-0.1-0.2-0.6-0.5-0.7-0.8-1-0.4-0.9-0.5-2.4 0-1.5-0.1-0.8-0.5-0.8-0.8-1.1-0.9-1.7-0.5-0.8-0.8-0.6-0.7-0.9-1.5-0.7-2.2-0.4-4-1.6-0.7-0.5-1.2-1.2-0.7-0.2-0.7 0.5-0.8 1.5-0.5 0.6-2.1 1.4-0.9 0.6-5.8 7.1-0.8 0.4-1 0.3-4.4 0.4-0.9-0.2-1.1-0.3-1.6-0.8-1.3-0.4-2.9-0.2-1-0.2-3.7-2.1 1.2-0.7 0.3-0.4 0.2-0.4 0.1-0.9-0.1-1.2 0-0.3 0.1-0.2 1.2-1 0.7-0.9 1.2-2.2 0.5-1.2 0.7-1.5 0.2-0.7-0.1-0.5 0-0.2 0-0.2 0.1-0.3 0.4-0.5 2.2-2.1 1.6-1.1 0.7-0.3 0.2-0.2 3.9-4.3 0.4-0.7 0.7-1.3 0.4-0.7 0.5-0.5 1.7-1 0.2-0.3 0.7-1.8 0.4-0.5 0.4-0.4 1-0.6 1.3-0.6 0.4-0.4 0.1-0.6-0.2-0.5 0-0.4 0.2-0.3 0.6-0.4 0.5-0.5 0.5-0.7 0.9-2.2 0.4-0.5 1-0.6 0.3-0.4 0.1-0.3-0.1-0.8 0.1-1.4 0.3-1.1 1.6-3.5 1.7-6.2 0.3-0.8 0.4-0.7 2-1.6 7.6-4.5z" id="CG12" name="Pool">
  </path>
  <path d="M520.4 902.2l-3.2-4-2.5-5-2.9-3.4-3.7-3.7 2.8-4.6 4.5-5.8 2.1-5 2.5-6.2 3.3-5.4 1.6-7.9-0.4-5.4-2-6.7 0-5.4 2.9-5.4 5.8-3.3 3.9-4.1 2-6.3 0.9-6.6 0.4-7.1 0.8-6.6 2.1-3.7 2.9 0.4 3.3 2.5 5.8 1.6 4.6 1.7 2.5 2.9 2.9 2.9 3.7 4.6 3.3 3.3 2.8 0.6 2.4-2.4 2.5-5.4 2.1-3.8 2.9-2.9 3.7-0.8 3.8 1.6 5.8 2.1 2.7 3.5 3.3 5.4 2.5 5 1.6 4.5 0.5 3.8 1.6 2.5 1.7 2 2.1 2.6-1.5 2.7-0.7 0.8-0.6 1.1-1.9 6.1-2.5 2.4-0.6 0.5-4 2.1-4.6 1.4-4.7 0.7-4.5 0.7-15 4.8-1.9 0.8-1.6 1.3-1.3 1.9-3.2 10.3-0.6 0.9-2.3 2.4-0.4 0.7-0.9 0.4-2.6 1.3-4 1.5-11.6 5.9-2 1.3-2.9 1.2-1 0.6-0.1 0-0.1 0 0 0.1-0.1 0-0.1 0 0 0.1-0.1 0-0.1 0-0.1 0-0.2-0.1 0-0.1 0-0.1 0-0.1-0.1-0.1-0.1-0.1-0.1-0.1-0.2 0-0.1 0.1-0.1 0 0-0.1-0.2 0-0.1 0-0.2 0-0.1 0.1-0.1 0.2-0.1 0.1-0.1 0.1-0.1 0.1-0.2 0.1 0 0.1 0 0.1-0.1 0.1 0 0.1 0 0.1 0 0.1-0.1 0.2-0.1 0.1-0.1 0.1-0.1 0.1 0 0.2 0 0.1 0 0.1 0 0.1 0.1 0-0.1 0.1 0 0.2-0.1 0.1 0 0.2-0.1 0.2 0 0.1-0.1 0.2 0 0.1 0 0.1 0.1 0.2 0 0.1-0.1 0.2 0 0.1 0 0.1-0.1 0.1-0.2 0-0.2 0-0.1 0-0.1 0.3 0 0.2 0 0.2 0 0.4 0.1 0.3 0 0.1 0 0.2 0 0.1 0 0.1-0.9 1.2 0 0.1-0.1 0 0 0.1-0.2 0.1-0.1 0.1 0 0.1-0.2 0 0 0.2-0.2 0.1-0.1 0.1 0 0.2 0.1 0.1 0 0.1-0.1 0 0-0.1-0.1 0-0.1 0.1-0.1 0-0.1 0 0 0.1 0 0.1 0 0.1 0 0.1-0.1-0.1-0.1 0-0.1 0.1-0.1 0.1-0.1 0.1-0.2 0 0 0.1-0.2 0-0.1 0-0.1 0.2-0.1 0.2-0.1 0.1 0 0.1 0 0.1 0 0.1 0 0.1-0.1 0.1-0.2 0-0.1 0.1-0.1 0.1-0.1 0.2 0 0.1 0 0.3 0 0.1-0.1 0-0.1 0.1-0.1 0-0.2 0.1 0 0.1 0.1 0.2 0 0.1-0.1 0-0.2 0-0.1 0-0.1 0.1-0.1 0.2 0.1 0.1 0.1 0 0.1 0-0.1 0.1-0.1 0-0.1-0.1 0 0.1-0.1 0.1 0 0.1-0.1 0.2 0 0.1 0 0.1-0.1 0.1-0.1 0.2 0 0.1 0 0.1 0 0.1 0.1 0.1 0 0.1-0.1 0-0.1 0 0 0.1-0.1 0.1 0 0.1 0 0.1 0.1 0-0.1 0.1-0.1 0 0 0.1-0.1 0-0.1 0.1 0 0.1-0.1 0.1-0.1 0.1-0.2 0 0 0.1-0.1 0.2 0 0.2-0.1 0-0.1 0.1 0.1 0.1 0 0.1-0.2 0.3-0.2 0.1-0.1 0.1-0.2 0 0 0.2 0 0.1 0 0.1-0.2 0.2-0.1 0 0 0.1 0 0.1 0 0.1 0 0.1-0.4 0.5-0.1 0.1-0.2 0.1-0.2 0.2-0.1 0.2-0.2 0.2-0.1 0.2-0.9 0.8-0.1 0.1-0.8 0.4-0.1 0.1z" id="CGBZV" name="Brazzaville">
  </path>
  <path d="M394.1 800l3.7 2.1 1 0.2 2.9 0.2 1.3 0.4 1.6 0.8 1.1 0.3 0.9 0.2 4.4-0.4 1-0.3 0.8-0.4 5.8-7.1 0.9-0.6 2.1-1.4 0.5-0.6 0.8-1.5 0.7-0.5 0.7 0.2 1.2 1.2 0.7 0.5 4 1.6 2.2 0.4 1.5 0.7 0.7 0.9 0.8 0.6 0.5 0.8 0.9 1.7 0.8 1.1 0.5 0.8 0.1 0.8 0 1.5 0.5 2.4 0.4 0.9 0.8 1 0.5 0.7 0.2 0.6-0.4 0.1-2.7 1.4-0.7 0.2-0.8 0.4-1.5 1.7-1 0.8-1.5 0.2-1-0.4-0.5 0.1 0.3 1.6 2.7 5 2.3 2.6 3.4 5.6 0 1.9 0.3 1.7 1 1.3 2 0.4 1.9 1.1 1.2 2.4 1 2.9 1.3 2.2-1.3 0.5-0.8 0.6-1.5 1.8-1.7 2.4-0.5 0.5-4.3 0-3.4-2-0.9-0.2-0.5 0.6-0.5 2.1-0.3 0.9-0.7 0.7-5.3 3.7-1.4 1.4-1.2 2 1.8 4.2-0.1 1.7-1.7 1.2 0.8 0.8-1.7 0.7-3.5 0.9-1.4 0.5-1 0.9-3.1 3.4-2.4 1.8-3.8 1.9-1.5 0.2-0.6 0.6-0.5 0.5-0.2 0.4-0.9 3.1-0.6 7-0.2 1.1-1.3 2.4-0.3 0.8-0.4 1.5-0.3 0.8-1.1 1.8-0.8 3 0 0.1-0.1-0.1-3 0.2-0.9-0.2-0.5-0.4-0.4-0.6-0.7-0.9-0.7-1.3 0-0.1-0.1-0.3-0.1 0-0.1-0.2-1-1.2-2.3-1.6-2.1-0.2-6.6 2.3-1.2 0.7-0.4 1.2 1.1 10.1-0.4 2-1.6 4.2-0.4 2.3 0.6 1.9-0.2 0.6 0.5 0.3 0.5 1.7-0.7 0.9-0.8-0.1-0.8-0.3-0.9 0.5-0.4 1.1 0.2 1.6-0.1 0.6-0.4 0.5-0.9 0.1-2.4-0.7-1-0.1-2.1 1.5-2.3 4.2-1.2 0.3-0.1-0.4-0.5-3-0.2-0.8-0.4-0.8-0.6-0.8-1.1-0.9-1.7-1.1-4.1-2-7.6-5.2-0.8-0.2-1.6-0.4-0.8-0.4-0.6-0.8-0.3-1.1-0.2-1.9-0.3-0.7-0.5-0.9-1.1-1.1-1.2-1.4-1-1.9-1-1.3-0.6-1.5-0.9-1.9-4.4-6.2-2.2-2-1.6-0.9-1.7-0.1-1.6-0.6-0.8-0.1-0.8 0-0.8-0.3-1.5-0.7-0.8 0-1.5 0.2-0.8-0.2-0.8-0.3-0.7-0.4-0.7-0.2-0.8 0-0.8 0.2-0.8 0.1-1.7-0.3-1.6 0-1-0.4-1.1-0.8-1.6-2-1.1-0.7-0.9-0.5-0.7 0-0.4-0.2-1.1-1.4-7.4-14.6-3.6-5.3-2-3.8-1.3-1.8-2.2-2.3-4.7-3.5-0.7-0.7-5.6-6.4-3.7-6.5-2.4-3.1-0.8-0.7-1.6-1.2-3.1-1.9-0.6-0.7-0.3-0.8 0.7-1.4 0.6-1 0.6-0.9 0.7-0.5 0.7-0.3 0.6-0.4 0.3-0.7-1.2-2.9-0.2-0.8-0.1-1.7 0.8-1.7 0.2-0.9-1.2-2.8-1.1-5.3-0.1-1.8 0.1-1.2 0.2-0.8 0.3-0.7 0.9-1.2 2.7-2.3 0.3 0.5 1.3-0.2 2-1 1-0.2 2.3 0.5-0.6 2.7 2.2 1 4.2-0.2 1.7 0.5 1.3 1.9-1.5 0.7 1.6 0.6 0.3 0.9 0 1.3 0.3 1.6 0.4 0.2 1.3 0.2 0.5 0.2 0.2 0.6 0.2 1.1 0.2 0.5 0.9 1 0.4 0.7 1.6 4.8 0.8 1 1.3 0.3-0.7 2-0.4 0.5-0.5 0.8 0.5 0.5 1.1 0.6 0 3.9 1 2.2 3.3 2.5 1.2 0.4 0.3 0.3 0.9 0.5 2.5 0.8 0.7 0.7 0.4 0.7 0.3 0.7 0.5 0.4 0.5 0.2 0.5 0.1 0.5 0.3 0.4 0.6 0.4 0.7 0.5 0.6 0.7 0.5 1 0.1 1.2-0.1 1.9-0.3 5.4-0.5 0.8 0 0.9 0.1 2.5 0.9 1.2-0.2 4.6-1.6 1.6-0.2 1.2 0.1 2.3 1.6 0.8 0.3 1 0 2.5-0.4 2 0.4 0.8 0.1 0.6-0.5 0.7 0.2 0.4 0.5 0.5 0.8 0.3 0.8-0.2 0.7-0.3 0.8-0.1 0.8 0.1 0.8 1.7 5 0.5 0.8 0.6 0.6 0.7 0.4 0.8 0.2 1.6 0.1 3.4 0.7 1.1-0.1 1.8-0.4 1.5-0.4 1.3-0.6 0.5-0.3 0.5-0.7 0.5-0.8 0.9-3.9 0-0.8-0.1-1.6 0.1-0.8 0.5-0.9 0.8-1.1 2.8-2.8 0.7-1.3 0.1-0.9 0-0.9 0.1-0.7 0.3-0.8 1-0.9 0.9-0.9 0.8-1.4 0.2-0.7 0-0.3-0.8-0.4-0.4-0.3-0.1-0.4 0.4-1.3-0.1-0.1-0.1-0.1-0.4-0.1-0.5 0-0.5-0.1-0.5-0.2-0.2-0.5-0.1-1.7 0-0.2 0-0.3 0.4-0.2 0.5-0.2 1.4-0.3 0.7 0 0.7 0.1 0.5 0.3 0.5 0.1 0.7 0 0.7-0.3 1.7-1.1 0.5-0.4 0-1.1 0.2-0.4 0.9-0.3 0.8-0.1 0.7 0.1 1.6 0.5 0.5 0 1-0.1 0.6 0.1 0.5 0 0.4-0.3 0.1-0.9 0-1.4 0.1-0.6 0.6-0.9 0.7-0.7 1.4-1 0.9-0.5 1.2-0.4 0.4-0.4 0.3-0.6 0.5-1.3 0.1-0.8-0.1-0.7-0.1-0.5 0-0.5 0.2-0.5 0.2-0.5 0.4-0.5 0.5-0.4 1-0.4 0.7-0.1 1.8-1.4 4-5.3z" id="CG11" name="Bouenza">
  </path>
  <path d="M268.9 798.9l-2.7 2.3-0.9 1.2-0.3 0.7-0.2 0.8-0.1 1.2 0.1 1.8 1.1 5.3 1.2 2.8-0.2 0.9-0.8 1.7 0.1 1.7 0.2 0.8 1.2 2.9-0.3 0.7-0.6 0.4-0.7 0.3-0.7 0.5-0.6 0.9-0.6 1-0.7 1.4 0.3 0.8 0.6 0.7 3.1 1.9 1.6 1.2 0.8 0.7 2.4 3.1 3.7 6.5 5.6 6.4 0.7 0.7 4.7 3.5 2.2 2.3 1.3 1.8 2 3.8 3.6 5.3 7.4 14.6 1.1 1.4 0.4 0.2 0.7 0 0.9 0.5 1.1 0.7 1.6 2 1.1 0.8 1 0.4 1.6 0 1.7 0.3 0.8-0.1 0.8-0.2 0.8 0 0.7 0.2 0.7 0.4 0.8 0.3 0.8 0.2 1.5-0.2 0.8 0 1.5 0.7 0.8 0.3 0.8 0 0.8 0.1 1.6 0.6 1.7 0.1 1.6 0.9 2.2 2 4.4 6.2 0.9 1.9 0.6 1.5 1 1.3 1 1.9 1.2 1.4 1.1 1.1 0.5 0.9 0.3 0.7 0.2 1.9 0.3 1.1 0.6 0.8 0.8 0.4 1.6 0.4 0.8 0.2 7.6 5.2 4.1 2 1.7 1.1 1.1 0.9 0.6 0.8 0.4 0.8 0.2 0.8 0.5 3 0.1 0.4-0.9 0.3-1.3-0.5-2.1-2.2-1.3-0.6-1.2 0.2-3.4 2 1.1 0.9 0.4 0.9-0.3 0.8-1.2 0.6-5.3 3.9-2.5 3.1-0.4-0.3-0.4-0.5-0.5-0.5-0.6-0.6-0.5-0.7-0.2-0.7 0-0.1 0-0.1 0.1-0.3-0.3-0.3-0.1-0.1-0.1-0.7-0.1-0.2 0.2-0.3 0.1-0.3 0.2-0.2-0.3-1.1-0.4-0.4-0.2-0.3-1 0-0.4-0.1-0.1-0.3-1-1-1.5-0.8-6.3-2.3-0.4-0.2-0.1-0.4-0.4-0.2-0.2-0.3-0.2-0.2-0.2-0.2-0.2-0.1-0.3-0.2-0.1-0.3 0-0.1 0-0.1 0.1-0.3 0.2-0.1 0.2-0.1 0.7 0-0.1-0.2-0.5-0.5-0.4-0.3-1-2.5-0.1-0.1-0.2-0.3-0.9-1-0.2-0.2-0.2-0.1-0.2-0.2-0.6-0.1-0.3-0.2-1.1-0.6-0.2-0.2-0.2-0.2-0.4-0.5-0.2-0.3-0.5-0.3-0.3-0.2-0.1-0.1-0.3-0.9-0.4-0.3-0.2-0.1-0.8 0.4-0.6 0.3-0.7 0.3-0.1 0-0.2-0.5-1.8-2.8-0.9-1.5-2.2-2.7-2.6 0.3-1.7 2.3 0.2 3.5-4.8-2.4-6.8-8.2-4.1-3.3-2.1-2.3-1.9-5-1.5-2.1-1.6-0.9-1.2 0.1-1.3 0.6-1.6 0.3-1.4-0.3-1.9-1-0.4-1.2-2.9-2.8-2-1.6-1.1-0.7-1.6-0.7-1-0.3-1-0.1-6.6 0.3-0.8 0-0.8-0.2-0.9-0.4-0.9-0.7-3.7-5-0.8-1.6-0.2-0.9 0-0.8 0-0.8 0.9-5 0-0.7-0.2-0.7-0.7-1-1.1-1.7-8.6-10-0.9-0.8-1.2-0.6-3.5-0.8-0.6-0.5-0.3-0.6-0.1-0.7 0.2-0.6 0-0.4-0.1-0.3-0.6-0.4-1.1-0.6-2.3-0.8-1.3-0.3-2-0.2-2.5-0.9-2.7-0.4-3.2-1.1-2.2-0.4-0.6-0.3-0.2-0.5-0.1-0.6 0-1.3-0.2-0.4-0.5-0.5-1.7-0.8-1.8-1.2-3.1-1-3.4-0.3-1-0.3-3.6-1.5-14-10.2-3-1.5-2.3-0.3-0.9-0.5-0.8-0.6-2-3.2 1.8-0.7 2.2-1.7 1.9-2.2 0.8-2.4-0.7-2.2-2-1-2.5-0.8-2.2-1.3-1-2.2 0.3-2.4 5.9-14.1 1.4-2.5 4.5-3.3 1.4-2.3-1.1-3.3-4-1.9-4.9-1.4-3.8-1.8-4.2-3.4-2.2-1.3-5.9-2.5-0.8-0.6-0.9-0.9-0.2-0.4 0.2-0.6 0.1-7.2 0.5-1.8 1.4-2.6 1.1-0.7 1.4 0.1 2.4-0.2 2.6-1.6 0-2.2-1.6-2.4-7.9-8.5-3.6-5.2-1.7-1.9-2.1-0.7-2.9 0.9-4.2 3-1.8 0.3-0.5-2.5 1-3.9 0.2-0.8 7.6-12.4 0.9-2.6 0.5-2.2 0-2.1-0.5-2.7-1-2.3-2.6-4.3-0.8-2.1-0.1-1.9 0.8-5.7-0.4-2.3-2.2-6.1 0.8-2 0.2-0.1 3.9 0.1 5.2 1.6 1.4 0.7 0.7 0.9 0.4 0.8 0.8 0.9 3.5 2.8 1.9 1 1.7 0.1 1.8-1 3.5-3.2 2.3-0.9 3.8-0.8 4.3-1.4 3.3-1.6 1.1 0.6 1.9 1.4 3.5 4.4 3.2 2.2 3.2 0.3 41.3-8.8-1.2-2.3 0.8-3.4 1.4-3.6 0.7-3-0.7-4.3 0.1-1.5 0.8-1.6 1.9-2.9 0.4-1.8-4-1.9-2.2-3.3-0.9-4.2-0.9-11.2 0.4-1.4 1.2 0.2 1.2 1.3 2 2.1 1.8 0.6 1.4-0.7 0.4-1.1 0.1-1.1 0.2-0.9 0.6-1.3 0.5-0.7 0.7-0.6 5.1-3.4 1.1-0.4 5.1-0.2 4.4 1.9 6.9 4.9 0.5 0.4 4.4 1.4 1.7 1.2 1.2 2.5 2.3 7.6 1 2.2 0.6 0.8 1.6 1.6 0.5 0.6 0.4 2.4-0.2 0 0 0.5-0.1 0.6 0.2 0.5 2 0.6-0.1 0.6-0.4 0.6-0.2 0.5-0.5 0.8-0.1 0.7 0.2 0.7 1.4 1.3 0.4 0.7 0.1 1.1 0.4 1.9 1.5-0.1 2.5-1.3 0.9 0.9 2 3.2 0.9 1.2 0.6 2.8 0.2 0.8 0.8 0.8 0.6 0 0.5 0.1 0.3 1.2-0.9 0.9-0.6 0.9-0.2 1-0.1 0.9-0.3 0.9-0.4 0.9-0.5 0.7-1.1 1-0.6 1 0.3 0.6 1.4-0.1 1.2-1.2 0.8 0.8 0.7 0.6 0.5 0.1 0.8-0.1 0.7-0.4 0.8-0.3 0.7 0 0.6 0.4 0.4 0.7 0 0.9-1 4.8-0.4 17.9 1.2 14.7 0.5 1.7 2.2 4.9 0 0.7-0.2 0.7-0.9 0.3-1.7 0.2-0.7 0.4-1.5 1.3-0.7 0.4-1.5 0.6-0.5 0.4-0.3 0.4 0 0.9 0.3 0.6 0.7 1.3 0.4 1.6 0.3 0.7 0.4 0.6 0.7 0.4 2.2 0.6 1.6 0.1 0.7 0.3 4.8 3.9 0.7 0.8 0.5 0.8 0.4 0.8-0.1 0.8-0.1 0.5-1.3 3.5-1.1 4.8 0.3 6.1-0.4 1.2-0.9 1.4-3.6 3.7-2.8 1.4-1.1 0.8-0.9 1.2-1.7 0.9-0.7 0-0.7 0.2-2.4 1-0.8 0.1-0.8 0-1.4-0.4-0.6-0.1-0.4 0.2-0.1 0.7 0 2.9-0.1 0.5-0.3 0.4-0.8 0.1-0.5-0.2-0.7-0.8-0.6 0-0.8 0.3-1.4 1-0.9 0.4-0.8 0.1-0.5-0.2-1.3-0.8-0.5-0.2-0.7 0-0.6 0-1.1 0.1-0.3 0.1-1.8 0.9-0.5 0.2-0.6 0-0.7 0-3.1-0.5-1.3 0-0.7 0.2-0.6 0.1-0.6 0.3-1.5 1.1-1.4 0.6-0.4 0.2-0.3 0.3-0.4 0.5-0.3 0.4-0.2 0.4-1 4.5-0.7 1.8-0.2 0.3-0.3 0.3-0.4 0.2-0.5 0.1-2.1 0-0.3 0.1-0.6 0.2-0.4 0.3-0.3 0.3-0.2 1.1 1.3 1.3-0.7 1.3 0 0.7 1.1 0.1 0.7 0.4 0.3 0.8 0.1 1.2 0.5 0.9 0.9 0.1 1 0 0.5 0.4 0 3.4z" id="CG9" name="Niari">
  </path>
  <path d="M184 817.9l2 3.2 0.8 0.6 0.9 0.5 2.3 0.3 3 1.5 14 10.2 3.6 1.5 1 0.3 3.4 0.3 3.1 1 1.8 1.2 1.7 0.8 0.5 0.5 0.2 0.4 0 1.3 0.1 0.6 0.2 0.5 0.6 0.3 2.2 0.4 3.2 1.1 2.7 0.4 2.5 0.9 2 0.2 1.3 0.3 2.3 0.8 1.1 0.6 0.6 0.4 0.1 0.3 0 0.4-0.2 0.6 0.1 0.7 0.3 0.6 0.6 0.5 3.5 0.8 1.2 0.6 0.9 0.8 8.6 10 1.1 1.7 0.7 1 0.2 0.7 0 0.7-0.9 5 0 0.8 0 0.8 0.2 0.9 0.8 1.6 3.7 5 0.9 0.7 0.9 0.4 0.8 0.2 0.8 0 6.6-0.3 1 0.1 1 0.3 1.6 0.7 1.1 0.7 2 1.6 2.9 2.8 0.4 1.2-0.8-0.4-1.4-0.6-2.5 1.5-1.2 2.4-0.8 2.5-1.4 1.6-1.9 1.1-1.7 1.4-1.5 1.7-2.2 4.2-1.2 1.2-1.6 0.6-11.5 2.1-7.1 2.3-1.6 0.2-2.8-0.4-1 1.5 0.1 4.4-0.5 2.2-4.3 8.6-1.1 1.3-1.5 0.6-3.5 0.4-1.6 0.3-1.5 0.6-0.9 0.8-1.3-2.4-1-1.2-0.9-0.6-1.3 0-0.5 0.5-3.1 10.7-2.8 4.4-11.7 10-0.9 1.1-1.6-1.4-1.4-1.7-2.4-3.9-3.9-4.8-2.5-2.5-1-2.8 1.2 0 0-11.9-5.9 0-1.8-2.4-4.4-4-0.5-1.3 0.1-1 2.4 0 2-2.2 0.5-2.3-1.9-4-11.8-11.8-10.8-9.3-9.5-8.4-4.9-3.1-5.2-4.5-1.9-3.2-0.5-0.6-1.4-2.3-0.3-1 0.2-2.3-0.2-1.2-0.4-0.8-9.1-7.3-10.2-6.7-3.5-2.6-2.6-1.7 1.7-3 6.9-18.7 1.7-3.2 2.7-2.4 3.5-2.3 3.1-2.5 3.4-2.1 4.3-0.9 3.9-1.3 2.4-3 1.9-3.2 2.9-1.9 5.2 0.7 3.9 3 8.2 13.4 1.8 1.8 2.2 0.8 5.7-0.7 2.1 0.2 6 1.7 1.9 0.1 0.3-0.1z" id="CG5" name="Kouilou">
  </path>
  <path d="M661.2 147.8l1.4 0.7 2.8 1.2 1.3 1.9 0.7 1.5 0.2 1-0.2 0.9-0.4 0.9-0.1 1.1 0.3 1.8 0.6 0.9 0.6 0.6 0.4 0.2 0.7 0.5 0.9 0.7 3.8 4.2 0.5 0.9 0.2 0.9 0.1 2.8 0.3 0.6 0.2 0.3 0.3 0 0.5 0.1 0.7-0.2 2.5-0.9 0.8-0.2 0.9-0.1 3.6 1.4 1.9 0.9 0.7 0.8 0.6 0.8 5.1 9 0.5 1.5 0.2 1.2-0.1 2.5 0.3 3.3-0.9 6.7 0.3 5 1.1 3.2 1 1.5 0.4 2.1-0.1 0.7-0.3 0.7-0.6 0.4-1.4 0.7-0.6 0.5-0.4 0.7-0.3 0.9-0.3 1.7-0.1 1.7 0.8 6.4 0.7 2.4 0.3 4.3-0.3 2.1 0 0.9 0.1 0.9 1.3 5.2 0.8 2.1 0.1 1.4-0.2 0.9-4 11-1 1.8-0.2 1.2 0.3 1.1 1 2.6 1.3 8.7 0 1-0.2 0.8-0.4 0.8-1.8 2.1-0.4 0.6-0.4 0.8-0.2 1 0.4 0.8 1.5 1.3 0.2 0.8 0 0.9-0.3 1.1-0.1 1.6 0.3 1.4 2.2 6.3 0.8 1.6 0.5 0.7 0.8 0.8 0.7 0.9 0.9 1.3 2.2 9.1 0.3 1.9-0.2 1.5-0.5 0.8-0.5 1.2-0.4 1.5 0 5.4-0.2 0.8-0.3 0.8-0.5 0.7-0.7 0.7-1.5 0.9-2.5 1.2-0.8 0.5-0.8 0.7-1.2 1.5-0.5 0.8-0.4 1.3 0.1 10.4 0.6 2.9 0.7 1.7 1 1.7 34.7 45-73.6 36.6-0.4-0.3-0.3-0.4-0.2-0.5-0.2-0.5-0.1-0.5-0.2-0.4-0.1-0.3-0.1-0.1-0.5 0-3.2 0.2-0.6-0.1-0.4-0.3-0.3-0.4-0.8-1.3-0.4-0.4-0.4-0.3-1.5-0.6-0.4-0.3-0.4-0.3-0.8-0.7-0.6-0.3-1-0.2-0.5 0.1-0.7 0.2-1.9 1-0.9 0.2-0.7 0-0.6-0.2-2-0.9-0.6-0.2-0.9-0.2-0.4-0.2-0.1-0.3 0.2-2.4 0-0.9-0.2-1-0.2-0.5-0.3-0.3-0.3-0.3-0.7-0.4-0.4-0.3-0.3-0.3-0.2-0.5-0.1-0.4-0.1-0.4 0.2-5.7-0.1-0.5-1.9-3.8-0.6-0.8-1.2-0.9-1.5-1.4-0.4-0.3-0.5-0.2-4.3-1.4-2.6-0.5-0.7-0.2-0.4-0.3-0.4-0.3-0.3-0.4-0.2-0.5-0.1-0.6-0.1-1.9-0.1-0.5-0.4-0.4-0.3-0.4-1-0.4-2.1-0.8-0.5-0.3-0.8-0.5-0.4-0.3-0.7-0.8-0.4-0.2-0.5-0.3-0.4-0.3-0.4-0.3-0.6-0.4-3.5-0.6-2.5 0-2.6-0.6-0.5-0.1-0.4 0.1-0.8 0.5-0.7 0.3-1 0.3-0.7 0-0.5-0.3-0.2-0.4-0.3-0.6-0.3-0.4-0.8-0.4-0.8-0.1-1.1 0-0.6 0.1-0.4 0.2-0.7 0.4-0.2 0.1-3.2 0.2-0.4 0.1-0.8 0.5-0.6 0.3-0.6 0.1-0.9 0.2-0.6 0.2-0.5 0.2-0.6 0.5-0.2 0.2-0.6 0.2-1.2 0.2-0.5 0.1-0.3 0.1-0.2 0.1-0.2 0.2-0.2 0.2-0.4 0.9-0.5 1.7-0.2 0.5-0.3 0.5-0.3 0.3-1.3 0.9-0.4 0.3-1.4 1.7-0.6 0.4-0.7 0.1-0.6-0.1-0.5-0.2-0.9-0.7-0.7-0.3-1.1-0.2-1 0.1-0.6 0-0.5 0-0.4-0.3-0.4-0.2-0.5-0.2-0.5-0.2-1.3-0.4-1.2-0.1-0.7-0.2-1.5-0.5-1.3-0.3-0.7 0.1-0.7 0.3-0.6 0.4-0.9 0.4-0.7 0-0.6 0-2-0.2-3.2-0.9-0.4 0.1-0.9 0.4-0.4-0.1-0.3-0.4 0-0.6 0.2-0.9 0.1-0.3-0.2-0.4-0.1-0.1-0.3-0.3-0.4 0-0.2 0.2-0.3 0.4-0.5 0.3-0.3-0.3-0.1-0.5 0-0.7-0.2-0.6-0.2-0.4-0.4-0.4-0.6-0.3-3.3-0.9-0.9 0.1-0.5-0.3-0.3-0.4 0-0.5 0.1-0.6-1-0.7-1.6-0.5-0.6-0.4-0.3-0.4 0-0.5-0.2-0.5-0.7-0.5-0.4-0.3-0.5-0.3-5.4-1.9-0.7-0.4-0.4-0.5-0.2-0.5-0.1-0.5-0.4-2.5 0-1.3 0-1.1 0.1-0.2 0.1-0.3 0.1-0.3 1.4-2.1 0.1-0.6 0.1-0.6-0.1-0.6-1.4-4.2-0.3-1.8-0.1-7.6 1-5.5 0-0.9-0.3-0.9-1.4-2.2-0.2-0.5-0.3-1.1-0.3-1.7 0-0.6 0.1-0.3 0.2-0.3 0.7-0.5 0.3-0.3 0.6-0.9 0.2-0.2 0.3-0.2 0.4-0.2 0.4-0.2 0.2-0.2 0.4-0.8 0.3-0.4 0.4-0.3 0.4-0.3 1.1-0.3 1.3-0.1 0.5-0.2 0.4-0.3 0.3-0.5 0.1-0.4 0.1-0.5 0-0.3-0.2-1-1.3-2.9-0.2-0.1-0.5-0.4-0.9-0.5-2.9-1.2-0.7-0.4-0.4-0.4-1.2-1.5-0.7-0.3-0.8-0.1-3.3 0.2-2.7-0.1-2.7-0.5-2.8-1-3.9-2.6-5.8-2.9-1.2-0.7-0.9-0.9-1.2-2.1-0.7-1-2.4-1.6-1.2-0.5-1-0.3-0.9-0.1-0.8 0.1-0.8 0.2-5.7-0.8-11.2-3.4-2.3-1-3.1-2.2-0.4-0.7-0.3-0.7-0.9-6.6-0.5-1.7-0.2-0.8-0.1-1.7-0.2-0.9-0.6-1-0.5-0.3-0.6-0.2-5 1-1.2-0.2-1.8-0.3-0.7 0-0.5 0.2-0.9 0.3-1.9 0.4-1.3 0.1-4.6-0.4-0.7 0-0.6 0.1-4 0.9-1.9 0.3-1.7 0.5-1.7 0.9-0.2-0.6-1.2-0.2-0.8-0.6-0.6-0.7-0.9-0.6-4.1-1.1-2.1-0.2-1.9 0.4-3.7 1.5-2.2-0.2-1.7-1.1-1.5-1.5-1.9-1.2-1.8-0.4-19.6-1.8-1.5 0.4-0.1 0.5-1 2.6-1.2 2.5-0.4 0.3-1.1 0.4-0.3-0.1-1.2-0.6-0.6-0.1-0.7 0.3-1.2 0.9-0.7 0.4-1.9 0.3-1 0.1-0.9-0.1-2.1 0.2-1.5 1-1.3 1.1-3.8 1.5-2.3 3.1-1.4 1-3.5 0.7-3.1 0-3.2-0.6-3.7-1.3-1.5-0.2-2.3 0.3-2 0.5-0.9 0.8-0.6 1.9-1.8 0.4-1.9 0.3-1.9 2.4-1.9 0.8-2.2 0.4-3.6-0.2-2.1 0.3-1.1-0.1-0.3-1.5-1-0.7-1.2-0.5-1.1-0.9 2-0.2 0.7-1.3 0.4-1.4 0.9-0.7 1.4-0.2 1.8-0.6 1.5-1 1-2.1 0.6-0.4 0.2-0.5-0.9-1.3-0.3-0.7 0-0.8 0-0.8-0.1-5 0.1-0.8-1.7-1.1-1.9-5-2.1-1.1 0.6-1.5-0.1-1.4-0.7-1.2-1.2-0.9-0.7 0.7-1.9-2.6-1.7-3 1.7-2.1 0.4-2.5-0.6-4.7 0.3-2.2 0.8-2 0.3-1.8-0.8-1.8 1.3-0.8 1.1-1.3 0.8-1.6 1-3.8 0.2-1.7-0.4-1.2-0.6-0.8-0.8-1.9-1.4-1.8 0.5-0.5 1.2-0.4 0.7-1.6 0.7-1.2 0.7-0.8 0.7-0.7 0.5-0.7 0.3-1.1-0.6-1.9 0-0.9 0.9-0.4 0.6-0.4 1.9-2 0.6-0.5 3.7-2.1 1.1-2.4 0.4-3.4-0.1-6.2 17.9 0.1 16 0.2 4.4 0 16.8 0.1 18.6 0.2 16.6 0.2 10.9 0.1 1-0.2 4.5-1.7 6.6 0.9 1.7 0.9 2 1.8 1.5 0.4 0.6-0.2 2.1-1.3 8.2-1.8 0.9-0.3 0.4-0.9-0.3-1 0-0.9 1-0.9 0.5-0.7 2.7 0.7 3.4 3.9 2.5 1.1-0.9 1.6 1 0.5 2.7-0.1 1.5 0.9 2 2.1 1.6 0.7-0.7-2.6 0.7-0.4 2.8 1.5-1.5 1.2-0.6 0.3 1 0.3 1.1-0.1 0.9-0.2 0.5 0 0.2 0.7-0.1 2.3 0.3 0.5 6.4-0.7 1.5-0.4 0.8-0.9 0.2-1.3 0-1.3 0.7-0.6 1.5 1.4 1.4 2.1 0.3 1 2 1.4-1.1 2.9-0.4 2.6 4.1 0.3 2.3-0.3 0.9-0.5 0.9-2.5 1 0.2 4.9 3.9 1.6 0.5 2-0.7 1.3 1.9 1.7-0.5 1.7-1.8 1-1.6 0.7 0 1.5 0.5 1.4-3 3.3 1.2 1.4-0.6 1.6-0.5 2.2 0.9 0.5 0.6 0.6 1.6 0.4 0.7 0.6 0.3 3.5 1.3 0.8 0.7 0.6 0.8 0.2 0.7-0.1 1.4-0.2 0.6 0.2 0.4 0.8 0.9 0.5 0.1 2.4 1.1 0 0.2 1.2-0.2 2-1 2.1-0.7 5.3-3.1 4.5-0.7 4.6 0.9 8.8 2.6 9.9 1.1 0.5 0.5 1.1 0.6 1.3 0.5 2.4 0.4 0.7 0.4 4 5.1 1.3 0.7 2.8 1 2.5 1.6 1 0.5 0.7 0.7 0.3 1.6 0.5 0.9 1.2-0.1 1.4-0.5 1.1-0.6 0.3 1.6 1.6 0.8 2 0.4 1.8 0.7 1.1-0.6 1.2 0.1 1.2 0.4 0.8 0.8 0.5 1.2-0.2 1-0.3 1 0 1.1 0.9 1.8 4.1 5.3 4.7-6.7 0.9-0.3 2.2 0.8 1.1-0.5 0.4-1.7-2.5-11.5-3.5-9.1-1.9-3.1-0.9-0.8-0.6-0.3-0.4-0.6-0.1-3.8 0.2-1 1.6-2.2 0-1-0.3-0.8-0.2-0.9-0.1-0.1 0-0.2 0-0.5 0.1-0.6 0.3-0.5 0.5-0.1 0.4 0 0.2-0.1 0.2-1.5-0.2-1-0.5-0.9-0.2-1.3 0.2-1.2 1.3-2.3 0.7-2.3 1.7-1 2.1 0.3 1.9 1.9 4.2-3.2 0.8-1.1-0.5-0.9-0.6-0.5 5.3-11.4 4.8-10 3.3-7.1 4.7-10.1 4.5-9.4 1.4-3z" id="CG13" name="Sangha">
  </path>
  <path d="M542.4 388.8l-2.5 3.5-2.6 2.3-3.1 1.7-4 1.8-3.6 2.1 3 6 6.7 4.9 1.6 7.1-5.2 5.6-7.7 2.5-8 1.5-1.9-0.1-2-0.3-4 0.7-3.7-0.4-3.4 0.4-0.9 3.9 0.8 4 0.1 1.7-0.2 1.7 0.7 2.4 2.8 5.9 1 4 1.2 3.3 3.3 1.6 7.6 1 3.5 1.1 1.6 3.6 4.8 18.5-0.7 3.6-1.5 3.7-2.1 3.4-5.9 5.9-4.4 5.8 16.3 14.2 2 3.4-2.3 3.6-1.9 4.5-10.2 11.6-5.7 4.9-7.8 1.8-19.6 0.8-4.2-1-2.6 1.1-2.5 2.5-7.4 2-13.5 2.4-0.4-0.5-0.7-1.2 0-0.9 0.5-1.8 0.1-0.9-0.3-1.2-1.1-2.3-3-8.1 0-1.5 1.1-2.2 0.5-4.5 0.6-2.4 1.6-2.6 1.8-2 1.2-2.2-0.5-3.2-0.7-2.6 0-2.6 0.6-2.6 4.2-9.1 0.7-3.4-0.9-3.1-2.4-5-1.3-1.4-4.2-2.8-2.3-3.1-3.5-2.2-3.9-1.8-2.9-0.8-1.8 0.3-1.6 0.7-1.6 0.6-1.7-0.4-1.9-0.8-1.8 0-1.7 0.6-1.8 0.9-0.1-3.9-0.8-4.3-1.3-4.1-1.7-3.6-2.8-2.6-3.8-1.9-4.1-0.6-3.8 1-0.8-1-0.8-0.7-1-0.4-3.7-0.5-0.8 0.3-0.4 0.7-0.3 0.7-0.5 0.5-1.3 0.5-0.7 0.1-0.6-0.4-4.8-5.8 0.1-2.9 1.1-2.6 4.7-6.2 1.3-1.8 1-1 1.1-1.3-0.1-1.1-0.5-1.2-0.2-1.5 0.4-1 1.5-1.9 0.1-1.1-0.8-1.3-1.2-0.2-1.2-0.1-0.7-0.7-0.5-7.5-0.5-2.5-1-3.2-0.5-2.7 0.5-2.4 3.5-5.3 3.7-8.3 2.2-2.3 7.7-4.3 2-2.2 0.4-2.2-0.7-2.1-1.1-2.2 3.1-4.4 5.2-0.7 5.8 0.7 5.2-0.3 1.4-0.5 0.6-0.4 0.4-0.6 7.7-6.7 0.7-2.2 0.3-5.3 3-4.4 4.8-4.1 3.6-4.3-0.7-4.8-0.3-1.3 0.7-0.8 1.3-0.8 0.9-0.9 0.2-1.5-0.8-0.8-2.5-1.2-1.9-1.8-1.8-2.1-1.4-2.3-1.2-2.4-1.6-5.3-1.4-2.1-5-2.3-1.6-2.2-0.9-2.7 0.1-7.8-0.3-2.8-1.5-6.4-0.6-1.2-1.2-0.9-1.1-0.5-0.9-0.6-0.2-0.5 1.7-0.9 1.7-0.5 1.9-0.3 4-0.9 0.6-0.1 0.7 0 4.6 0.4 1.3-0.1 1.9-0.4 0.9-0.3 0.5-0.2 0.7 0 1.8 0.3 1.2 0.2 5-1 0.6 0.2 0.5 0.3 0.6 1 0.2 0.9 0.1 1.7 0.2 0.8 0.5 1.7 0.9 6.6 0.3 0.7 0.4 0.7 3.1 2.2 2.3 1 11.2 3.4 5.7 0.8 0.8-0.2 0.8-0.1 0.9 0.1 1 0.3 1.2 0.5 2.4 1.6 0.7 1 1.2 2.1 0.9 0.9 1.2 0.7 5.8 2.9 3.9 2.6 2.8 1 2.7 0.5 2.7 0.1 3.3-0.2 0.8 0.1 0.7 0.3 1.2 1.5 0.4 0.4 0.7 0.4 2.9 1.2 0.9 0.5 0.5 0.4 0.2 0.1 1.3 2.9 0.2 1 0 0.3-0.1 0.5-0.1 0.4-0.3 0.5-0.4 0.3-0.5 0.2-1.3 0.1-1.1 0.3-0.4 0.3-0.4 0.3-0.3 0.4-0.4 0.8-0.2 0.2-0.4 0.2-0.4 0.2-0.3 0.2-0.2 0.2-0.6 0.9-0.3 0.3-0.7 0.5-0.2 0.3-0.1 0.3 0 0.6 0.3 1.7 0.3 1.1 0.2 0.5 1.4 2.2 0.3 0.9 0 0.9-1 5.5 0.1 7.6 0.3 1.8 1.4 4.2 0.1 0.6-0.1 0.6-0.1 0.6-1.4 2.1-0.1 0.3-0.1 0.3-0.1 0.2 0 1.1 0 1.3 0.4 2.5 0.1 0.5 0.2 0.5 0.4 0.5 0.7 0.4 5.4 1.9 0.5 0.3 0.4 0.3 0.7 0.5 0.2 0.5 0 0.5 0.3 0.4 0.6 0.4 1.6 0.5 1 0.7-0.1 0.6 0 0.5 0.3 0.4 0.5 0.3 0.9-0.1 3.3 0.9 0.6 0.3 0.4 0.4 0.2 0.4 0.2 0.6 0 0.7 0.1 0.5 0.3 0.3 0.5-0.3 0.3-0.4 0.2-0.2 0.4 0 0.3 0.3z" id="CG15" name="Cuvette-Ouest">
  </path>
  <path d="M419.1 689.5l1 1.6 1.1 2.8 3 2.8 0.3 0.8 0.1 0.5-0.2 0.4-0.4 0.3-0.5 0.2-1.4 0.3-0.6 0.7 0.3 0.7 0.5 0.6 1.6 1.1 0.7 0.4 0.6 0 0.5-0.4 0.6-0.4 0.8-0.1 1 0.8 0.2 0.7-0.3 0.8-0.7 0.6-1.5 0.9-1.3 1.3-1.4 1.1-0.4 0.6 0.2 0.8 0.4 0.6 0.7 0.6 0.7 0.2 1.7 0 0.9 0.1 0.8 0.4 1.1 0.6 0.9 0.3 0.9-0.1 1.8-1 0.8-0.2 0.9 0.1 1 0.6 0.8 0.4 1 0 1-0.1 1.3 0.3 0.4 0.6 0 0.8-0.3 0.9-1.4 2.4-0.3 1-0.1 1 0.4 0.4 0.5-0.3 0.9-1 0.5 0.1 0.2 0.5 0.2 1.7 3.3 9.2 0.4 1.5-0.2 0.9-0.6 0.8-0.7 0.5-1.5 0.8-0.7 0.5-0.5 0.6-0.3 0.6-0.2 1.2-0.2 0.5-0.3 0.5-0.4 0.3-1.2 0.9-0.7 0.7-0.3 0.7-0.2 0.4-0.5 1-7.6 4.5-2 1.6-0.4 0.7-0.3 0.8-1.7 6.2-1.6 3.5-0.3 1.1-0.1 1.4 0.1 0.8-0.1 0.3-0.3 0.4-1 0.6-0.4 0.5-0.9 2.2-0.5 0.7-0.5 0.5-0.6 0.4-0.2 0.3 0 0.4 0.2 0.5-0.1 0.6-0.4 0.4-1.3 0.6-1 0.6-0.4 0.4-0.4 0.5-0.7 1.8-0.2 0.3-1.7 1-0.5 0.5-0.4 0.7-0.7 1.3-0.4 0.7-3.9 4.3-0.2 0.2-0.7 0.3-1.6 1.1-2.2 2.1-0.4 0.5-0.1 0.3 0 0.2 0 0.2 0.1 0.5-0.2 0.7-0.7 1.5-0.5 1.2-1.2 2.2-0.7 0.9-1.2 1-0.1 0.2 0 0.3 0.1 1.2-0.1 0.9-0.2 0.4-0.3 0.4-1.2 0.7-4 5.3-1.8 1.4-0.7 0.1-1 0.4-0.5 0.4-0.4 0.5-0.2 0.5-0.2 0.5 0 0.5 0.1 0.5 0.1 0.7-0.1 0.8-0.5 1.3-0.3 0.6-0.4 0.4-1.2 0.4-0.9 0.5-1.4 1-0.7 0.7-0.6 0.9-0.1 0.6 0 1.4-0.1 0.9-0.4 0.3-0.5 0-0.6-0.1-1 0.1-0.5 0-1.6-0.5-0.7-0.1-0.8 0.1-0.9 0.3-0.2 0.4 0 1.1-0.5 0.4-1.7 1.1-0.7 0.3-0.7 0-0.5-0.1-0.5-0.3-0.7-0.1-0.7 0-1.4 0.3-0.5 0.2-0.4 0.2 0 0.3 0 0.2 0.1 1.7 0.2 0.5 0.5 0.2 0.5 0.1 0.5 0 0.4 0.1 0.1 0.1 0.1 0.1-0.4 1.3 0.1 0.4 0.4 0.3 0.8 0.4 0 0.3-0.2 0.7-0.8 1.4-0.9 0.9-1 0.9-0.3 0.8-0.1 0.7 0 0.9-0.1 0.9-0.7 1.3-2.8 2.8-0.8 1.1-0.5 0.9-0.1 0.8 0.1 1.6 0 0.8-0.9 3.9-0.5 0.8-0.5 0.7-0.5 0.3-1.3 0.6-1.5 0.4-1.8 0.4-1.1 0.1-3.4-0.7-1.6-0.1-0.8-0.2-0.7-0.4-0.6-0.6-0.5-0.8-1.7-5-0.1-0.8 0.1-0.8 0.3-0.8 0.2-0.7-0.3-0.8-0.5-0.8-0.4-0.5-0.7-0.2-0.6 0.5-0.8-0.1-2-0.4-2.5 0.4-1 0-0.8-0.3-2.3-1.6-1.2-0.1-1.6 0.2-4.6 1.6-1.2 0.2-2.5-0.9-0.9-0.1-0.8 0-5.4 0.5-1.9 0.3-1.2 0.1-1-0.1-0.7-0.5-0.5-0.6-0.4-0.7-0.4-0.6-0.5-0.3-0.5-0.1-0.5-0.2-0.5-0.4-0.3-0.7-0.4-0.7-0.7-0.7-2.5-0.8-0.9-0.5-0.3-0.3-1.2-0.4-3.3-2.5-1-2.2 0-3.9-1.1-0.6-0.5-0.5 0.5-0.8 0.4-0.5 0.7-2-1.3-0.3-0.8-1-1.6-4.8-0.4-0.7-0.9-1-0.2-0.5-0.2-1.1-0.2-0.6-0.5-0.2-1.3-0.2-0.4-0.2-0.3-1.6 0-1.3-0.3-0.9-1.6-0.6 1.5-0.7-1.3-1.9-1.7-0.5-4.2 0.2-2.2-1 0.6-2.7-2.3-0.5-1 0.2-2 1-1.3 0.2-0.3-0.5 0-3.4-0.5-0.4-1 0-0.9-0.1-0.5-0.9-0.1-1.2-0.3-0.8-0.7-0.4-1.1-0.1 0-0.7 0.7-1.3-1.3-1.3 0.2-1.1 0.3-0.3 0.4-0.3 0.6-0.2 0.3-0.1 2.1 0 0.5-0.1 0.4-0.2 0.3-0.3 0.2-0.3 0.7-1.8 1-4.5 0.2-0.4 0.3-0.4 0.4-0.5 0.3-0.3 0.4-0.2 1.4-0.6 1.5-1.1 0.6-0.3 0.6-0.1 0.7-0.2 1.3 0 3.1 0.5 0.7 0 0.6 0 0.5-0.2 1.8-0.9 0.3-0.1 1.1-0.1 0.6 0 0.7 0 0.5 0.2 1.3 0.8 0.5 0.2 0.8-0.1 0.9-0.4 1.4-1 0.8-0.3 0.6 0 0.7 0.8 0.5 0.2 0.8-0.1 0.3-0.4 0.1-0.5 0-2.9 0.1-0.7 0.4-0.2 0.6 0.1 1.4 0.4 0.8 0 0.8-0.1 2.4-1 0.7-0.2 0.7 0 1.7-0.9 0.9-1.2 1.1-0.8 2.8-1.4 3.6-3.7 0.9-1.4 0.4-1.2-0.3-6.1 1.1-4.8 1.3-3.5 0.1-0.5 0.1-0.8-0.4-0.8-0.5-0.8-0.7-0.8-4.8-3.9-0.7-0.3-1.6-0.1-2.2-0.6-0.7-0.4-0.4-0.6-0.3-0.7-0.4-1.6-0.7-1.3-0.3-0.6 0-0.9 0.3-0.4 0.5-0.4 1.5-0.6 0.7-0.4 1.5-1.3 0.7-0.4 1.7-0.2 0.9-0.3 0.2-0.7 0-0.7-2.2-4.9-0.5-1.7-1.2-14.7 0.4-17.9 1-4.8 0-0.9-0.4-0.7-0.6-0.4-0.7 0-0.8 0.3-0.7 0.4-0.8 0.1-0.5-0.1-0.7-0.6-0.8-0.8 1.9-1.9 1.4-0.4 2.6 0.5 6.7 3 2.1 0.6 1.2-0.3 2-1.1 1.2-0.2 1 0.2 18.1 6.8 1.9 0.2 2-0.5 2.2 0.4 0.6 0 1.4-0.5 0.7 0.2 0.9 1.3 0.5 0.1 1.1-0.6 0.5-0.8 0.3-1 0.5-1 1.1-1 3.4-2.3 0.8-0.9 1.6-1.9 1-0.9 1.2-0.7 2.5-0.7 1.1-0.8 0.4-0.9 0.3-2.2 0.7-1.1 7.9-7.6 0.9-1.2 0.4-1.1 0.1-2 0.3-1.2 1.1-2.1 2.2-3.2 0.2-0.6 0.3 0.2 1.1 0.7 1.5 1.4 1.2 2 0.9 2.2 1 4.3 2.3 4.8 1.3 1.9 1.9 2 0.7 1 0.4 2.9 0.8 0.8 1.1 0.5 1 0.7 1.5 2-0.5 0.7-1.2 0.7-1.5 3.2-2.2 1.1-0.7 0.9-0.1 4-0.1 0.5 1.7 1.5 2.4 0.8 2.5 0.1 2.2-0.4 1.8-1.1 1-0.5 1 0 0.9 0.7 0.4 1.9 0.6 0.6 0.8 0.1 4.8-1.5 0.7-0.2 1 0.1 1.6 1 1 0.4 1-0.2 0.6-0.7 0.5-1.4z" id="CG2" name="Lékoumou">
  </path>
  <path d="M184 925.5l5.9 0 0 11.9-1.2 0-5.8-6.1-1.1-1.3-0.1-0.6 0.5-0.7 0.6 0.1 1.4 1.6 0.5-0.2 0.5-1.3-0.3-2.2-0.9-1.2z" id="CG16" name="Pointe Noire">
  </path>
 </g>
 <g id="points">
  <circle class="-4.5832354852268695|11.490435831674704" cx="147.5" cy="909" id="0">
  </circle>
  <circle class="-1.0920726799048537|15.254631109347887" cx="539.2" cy="545.2" id="1">
  </circle>
  <circle class="3.2718808267476653|18.265987331486432" cx="852.5" cy="90.9" id="2">
  </circle>
 </g>
 <g id="label_points">
  <circle class="Likouala" cx="765.4" cy="226.5" id="CG7">
  </circle>
  <circle class="Cuvette" cx="642.3" cy="494.4" id="CG8">
  </circle>
  <circle class="Plateaux" cx="555.3" cy="657.3" id="CG14">
  </circle>
  <circle class="Pool" cx="488.2" cy="798.5" id="CG12">
  </circle>
  <circle class="Brazzaville" cx="552.6" cy="836.7" id="CGBZV">
  </circle>
  <circle class="Bouenza" cx="392.2" cy="849" id="CG11">
  </circle>
  <circle class="Niari" cx="239.9" cy="732.5" id="CG9">
  </circle>
  <circle class="Kouilou" cx="193.6" cy="868.6" id="CG5">
  </circle>
  <circle class="Sangha" cx="590.3" cy="317.4" id="CG13">
  </circle>
  <circle class="Cuvette-Ouest" cx="452.9" cy="421" id="CG15">
  </circle>
  <circle class="Lékoumou" cx="369.9" cy="741.6" id="CG2">
  </circle>
  <circle class="Pointe Noire" cx="187.2" cy="931.4" id="CG16">
  </circle>
 </g>
</svg>