<?xml version="1.0"?>
    
<!--********* Copyright (c) 2024 Pareto Softare, LLC DBA Simplemaps.com ***************************************
************* Free for Commercial Use, full terms at  https://simplemaps.com/resources/svg-license ************
************* Attribution is appreciated! https://simplemaps.com *******************************************-->

<svg baseprofile="tiny" fill="#6f9c76" height="641" stroke="#ffffff" stroke-linecap="round" stroke-linejoin="round" stroke-width=".5" version="1.2" viewbox="0 0 1000 641" width="1000" xmlns="http://www.w3.org/2000/svg">
 <g id="features">
  <path d="M213.4 442.5l3.8 0.2 9.6 1.9 2.4-1.5 1.3 2.2 3 3.5 1.3 2.5 0 1.5-0.5 2-0.3 2.1 0.8 2.2 2.5 1.7 2.7 0.6 2.2 1.7 0.8 5.2 1 2.6 12.8 22.4 4.5 6.1 1.5 2.8 2.3 3 7.7-4.3 6.6-4.4 4.8-5.9 2.3-1 3.9-3.9 2.8-4 2.3-4.2 0.8-2.2-0.4-3.8 0.1-1 3.5-3.8 2.5-2.7 7-4.2 1.5-2.6 0.1-1.1 0.1-0.8 0.3-0.4 0.6-0.4 6.6-2.3 1.2 0 0.5 0.7 0.2 2-0.2 1.5-0.1 0.9 0.3 0.7 1.2 0.4 1.2 0.6 7.6-2.6 4.6-3.2 1.9-2.3 0.4-0.4 0.5-0.3 2.9-0.6 8.8-0.1 4.8 1.4 0.5 0.3 1.2 0.3 1.3 0 1.7-0.5 7.2-3 3-2.7-2.7-1.4-1.1-1.6 4.6-2.9 6.8-2.1 0.6-0.7 2.2-1.7 0.4-0.6 0.3-1.1 0.3-0.9 0.6-0.5 1-0.5 4.2 0.5 13.3 6.5 2.4-0.3 24.5-17.8 2.3 0.7 3.1 0 1.8-0.3 4.3-1.7 7.4-5.2 5.5-3.6 0.6-0.9 0.8-1.4 0-1-0.3-0.9-0.5-1-0.5-0.9-0.3-0.6 0-0.4 0.4-0.4 0.7-0.7 6.6-4 5.1-0.3 17.2 3.3 1.8 1.5 4.8 2.1 5.4 0.6 0.3 0.2 0 0.5 0 0.8 0.2 0.9 0.7 0.5 1 0.3 1.2 0 10.5-2.2 4.8-1.7 9.3-5.2 2.1-1.9 3.2-2 2.1-2.1 1-1.5 0.9-1.7 1-6.4 1.2-4.6 0.8-2.3 1.2-2.5 3.9-4.8 2.1-0.3 1.7 0.8 0.5 0.7 0.3 1.3-0.1 2.5-0.4 3.6-0.7 3.2-1.4 4.8-0.2 1.4 0.2 1.7 0.6 1.8 2.1 5.3 3.1 4.8 7.9 4.4-5.9 8-3.3 2.2-4.6 0.5-1.8 0.6-0.7 0.7-0.1 0.7 0.3 0.5 0 0.6-0.1 0.6-1 2-0.9 2.1-0.5 1.9 0.2 2.2 0.1 1.1 0 0.2-8.6 1.8-5.4 3-4.3 4.6-1.7 3.7 0.8 1.2 1.3 1 0.1 3-1.2 2.7-2 2.4-2.3 1.7-5.7 2.9-10 13.2-4.1 2.9-8.8 1.9-4.3 2-4 4-2 2.9-0.8 2.5 0.7 1.1 4.7 4.1 5.9 11.5 0.6 10.7-4.4 9.4-8.8 7.7-2.2 0.7-4.1 0.5-2.1 1.5-1.4 3-0.4 3.3 0 3.3-1.1 8.3-0.4 0.6-1.9 4.3-0.2 0.6-2.5 3.3-1.4 1.2-2 0.6-14.3 3.2-2.9 2.4-2.2 4.2-0.5 5.5-4.2 0.2-0.2 0.4-0.6 3 0.1 1.5-0.4 1-2.6 1.4-1.1-0.1-3.6-1.1-5.6 0.1-9.7-3.5-1.9 0.2-1.6 0.7-1.6 0.4-2.5-0.8-0.3-0.8-3.8-5.5-3-2.8-3.2-1.9-20.5-5.1-3.4 1.7-1.9 3.3-2.3 2.9-4.2 0.6-6 2.6-11.9 8.7-6.4 2.3-15.2-1.6-2.6 0.9-5.7 3.5-12.4 5.1-6.1 1.2-6.6 0.1-6.2-1.3-4.7-2.8-9-10.2-1.4-2.3-1.1-2.9-1.4-5.3-2.3-6-0.7-3.1-1-0.7-13.7-15.4-4.5-2.1-1.7 0.7-1.5 1.5-1.5 1.2-1.9-0.3-1.8-1.3-0.1-0.9 0.4-1.2-0.1-2.3 0.3-0.3 0-3-0.4-2.9-0.6 0.3 1-1.5 1.6-2 1.4-2.2 0.2-2.2-3.1-3-16-3.6-1.8-4.9 1.9-9.9 3.5-10.4 7.1-14-4.6-7.9-7.1-7.6-3.8-6.7 1-3.3 5.3-6.3 1.5-4.9-0.2-2.8z" id="CHVS" name="Valais">
  </path>
  <path d="M535.3 429.3l0-0.2-0.1-1.1-0.2-2.2 0.5-1.9 0.9-2.1 1-2 0.1-0.6 0-0.6-0.3-0.5 0.1-0.7 0.7-0.7 1.8-0.6 4.6-0.5 3.3-2.2 5.9-8 6.7-5.6 0.4-1.5 0.8-1.9 1.6-4.7 0.5-0.7 0.7-0.6 1.5-0.5 2.3-0.1 17.7 4 8.3-3.6 6.7 3.1 15.6 1.4 11.9-2 10.2-4.2 1.9-1.4 0.5-1-0.2-0.9-0.4-0.9-0.2-1.3 0.3-1.5 1.5-2.1 1.4-0.8 1.5-0.6 2-0.4 1.6-1.6 1.2-0.1 0.6 0.5 0.2 1.6 0.5 1.4 1 1.6 6.9 0.7 1 0.4 1.4 0.9 2.3 1 2.6 2.5 0.5 0.7 0.2 0.9-0.4 1.1-1.5 2.9-0.7 1.7-0.6 2.1-0.3 1.9-0.4 3.5-0.3 1.5-0.3 1.2-0.2 0.9 1.3 5.6 0.5 1.6 0.6 1.3 2.1 3.7 2.2 3.2 1.4 0.6 0.5-0.2 0.9-0.4 3-0.4 2.3 4.3 0.1 1.8-0.1 2.3-0.4 3.2 0.3 2.5 0.8 2 1 2 0.1 1.2-0.4 1.3-0.7 2.8-0.8 2.4 0.2 8.8-0.7 2.1-3.1 5.8-0.4 2 0.2 1.9 0.3 1.8-0.3 1.4-0.8 1.9-1.7 2-0.1 1.2 0.3 1.5 1.7 4 2.1 4.2 0.1 1.1 0 1.5-0.6 3.7 0.4 1.5 0.7 1.6 1.6 2.6 1.3 1.2 3.3 2.3 4.3 5.1 1.7 1.8 4.6 3.4 0.1 0-0.1 0.2-14.6 10-3.7 5.6-0.8 3.7 0.4 6.6-0.6 3.5-1.6 2.7-2 1.2-4.4 1.4-5.1 4-0.9 3.3 3.6 10.1-6.7 6.1-0.4 0.7-0.1 0.8 0.1 0.7 0.4 0.7 2.2 2.2 1.7 5.3 1.8 2.7 2 1.2 4.4 0.8 1.9 1.3 2.2 4.8-0.7 4.9-5 9.8-6.5 7.9-6-1.1-6.6-3-6.2 1.9-1.8 0.6 0.7-4.5 1.2-3.4 0.9-3.6-0.4-5-1.1-3.8-1.7-3.8-3.5-6.2-2-4.7-1.3-1.8-1.3-1.1-11.6-6.2-3.1-1.1-3.4-0.2 0.3-0.8 0.8-1.4 3.5-8.1 5.8-7.1 3-6.8-5.2-6.8-3-1-6.2 0.1-3.2-0.4-1.6-1.1-1.4-2.7-0.7-0.2-1-0.4-1.2 0.6-3.2 2.7-1.4 0.9-3.6-0.2-9.3-5.5-3.9-1.4-2-1-12.7-18.8-5.7-5.9-5.6-2.8-5.3-2.2-3.7-3-2.2-4.7-0.8-7.1 0.7-7.5 3.3-15.1 0.7-8.5-0.1-8.8-0.9-6.6-2.7-4-5.8-1-2.7 0.6z" id="CHTI" name="Ticino">
  </path>
  <path d="M692 510.1l-0.1 0-4.6-3.4-1.7-1.8-4.3-5.1-3.3-2.3-1.3-1.2-1.6-2.6-0.7-1.6-0.4-1.5 0.6-3.7 0-1.5-0.1-1.1-2.1-4.2-1.7-4-0.3-1.5 0.1-1.2 1.7-2 0.8-1.9 0.3-1.4-0.3-1.8-0.2-1.9 0.4-2 3.1-5.8 0.7-2.1-0.2-8.8 0.8-2.4 0.7-2.8 0.4-1.3-0.1-1.2-1-2-0.8-2-0.3-2.5 0.4-3.2 0.1-2.3-0.1-1.8-2.3-4.3-3 0.4-0.9 0.4-0.5 0.2-1.4-0.6-2.2-3.2-2.1-3.7-0.6-1.3-0.5-1.6-1.3-5.6 0.2-0.9 0.3-1.2 0.3-1.5 0.4-3.5 0.3-1.9 0.6-2.1 0.7-1.7 1.5-2.9 0.4-1.1-0.2-0.9-0.5-0.7-2.6-2.5-2.3-1-1.4-0.9-1-0.4-6.9-0.7-1-1.6-0.5-1.4-0.2-1.6-0.6-0.5-1.2 0.1-1.6 1.6-2 0.4-1.5 0.6-1.4 0.8-1.5 2.1-0.3 1.5 0.2 1.3 0.4 0.9 0.2 0.9-0.5 1-1.9 1.4-10.2 4.2-11.9 2-15.6-1.4-6.7-3.1 0.6-4-0.4-2.4-1.1-3.5-0.5-1-0.8-0.5-0.9-0.5-0.7-0.5-0.6-0.9-0.4-1.2-0.2-1.7 0.1-1.6 1.4-4.6 1.5-3.3 0.3-1.6 0.1-1.1-0.1-0.8 0-0.9 0.7-1.3 1.3-1.2 3.3-1.5 2.1-0.4 1.9-1.1 4.7-6.1 2-2.2 3.5-1.2 3.1 1.1 0.8 0.1 3-0.7 0.7-0.5 0.7-1-0.2-2.7 0-0.3 0.3-0.7 1.6-2.8 1.8-2.3 0.3-2.5-0.1-3.5 0.6-0.7 1.5-0.3 1.4-0.6 1.3-1.5 2.3-1.2 2.2-2.9 4.2 0.2 2.1 0.8 0.9 0.1 0.4 0.8 0.5 2 0.8 0.5 1.9 0 11.1-3.5 4.6-2.1 2.8-2.7 1.5-2 1-2.1 0.6-1.4 0.6-1.2 0.5-0.9 0.3-1.1-0.1-2.2 0.2-1.1 0.5-0.7 1.3-0.7 2-0.4 3.3 0.3 2 0.7 1.4 1.1 0.9 1.3 1.7 0.6 2-0.6 6.9-4.7 2.9-0.7 3.8 0 1.7-0.7 1-0.7 3.5-4.8 5.6-5 3.2 3.7 0.7 0.2 1 0 0.9-0.5 27 4 4.1 2.1 2.3 1.7 1.4 0.1 0.6-0.2 0.6-2.5 2.6-0.8 2.6-4.7 0.6-1.6 0.2-1.5-0.1-1.4 0.6-3.5 1.1-2.3 1.3-2.5 1.1-1.3 1.9-1.5 0.5-1.2 0.8-2.7 0.9-1.1 1.2-0.7 1.5-0.4-1.1-2.3-6.2-10.5-2.2-4.9-1.5-5-0.1-1.1 4.6 1.3 6.8 1.1 5.5 1 4.1-1.4 3.8 1 10.6-1.3 3.3 0.5 38.1 12.1-0.3 3.3 0.8 0.8 1.3-0.1 0.7 0.9 0 1.7-0.8 2.9-0.5 6.9-0.6 3.2 0.3 2.7 2.6 3.7 5 3.8 21.5 7 7.8 7.4 4.5 2.7 8.8 2.8 2.7 0.1 1.4 0 5.2-1.5 8.8-4.4 2.1-3.1 0.5-2.2 0.2-2.5 0.9-3.7 3.1-5.2 3.3-0.6 3.9 1 5-0.2 0.1-5.5 3.5-6.8 5.1-5.9 5.9-3.3 1.1-0.2 1.1 0.2 1 0.7 0.1 0 2.1 2.3 4.2 6.8 6.8 5.4 1.8 2.2 1.1 4.9-2.5 10.1 0.5 6.3-1.1 9.4-0.7 2.7-1.2 1.9-4.4 5.3 0.4 4.4 1.4 4.2 0.5 4.1-2.4 3.7-3.4 2.2-0.9 2.7 0.2 3.3-0.4 4.2-1.9 3.5-2.2 2.1-1 2.7 1.7 5.7 3.6 4.2 8.6 0.9 4.2 3.6 1.5 5.6-0.1 7.6-1.6 7.3-1.2 2-1.6 2.6-3.7 0.7-14.4-3.8-7 0.7-2.6-0.4-2.3-1.1-1.2-1.3-1.1-1.5-1.6-1.4-8.3-2.9-0.9-3.1 1.1-6.1-0.4-3.3-3.2-2.6-5.2 0-19 5.5-2 1.1-0.9 2.2-2.4 9.5-1.7 2.3-4.3 4.3-1.8 2.6-0.2 2.1-0.1 6.5-0.9 3.1 0.3 2.7 0.5 2.1 0.9 1.7 1.8 1.2-3.6 6 3.2 4 5.9 2.3 9 1.7 3.5 1.4 1.5 3.3-1.5 6.4-1.5 1.9-4.2 3.8-1.5 2.9-1.1 3.9-0.1 2.7 0.8 2.4 1.9 3.3 8.3 8.5 2.6 5.2-2.7 5.5-5.6 3.6-8.5 3.2-6.7-0.1-0.1-6.6-2.1-4.9-7.9-7.1-3-4-1.3-6.4-0.1-5.8-1.3-4.7-5.1-3.4-4.1-1-3.9-0.3-8.8 1.5-13.4 6.9-4.2 1.4-2.6-0.6-4.9-3-2.2 0-2.2 2.5-0.4 3.3 0.4 3.3-0.1 2.3-3.1 4.3-3.8 1.5-23.1-0.3-4.7-1.7-4.2-2.9-2.6-3.5-4-10.5-1.8-1.5-4.5-2.5-1.4-1.4-0.4-1.7 0.3-4.4-1.2-28.1-0.7-1.8-1.6 0.3-3.2 2.4-1.4 1.9-0.7 2.1-1 1.7-2.2 0.9-1.5-0.6-5.1-5-0.2-3.6-4-1-9.8 1.2-3.8 3.5-3.5 7.1-1.6 7.2 1.9 3.9 2.7 1.9 0.4 2.9-0.5 3.7 0 4.2 2.7 10.3 0.3 3.8-1.3 6.4-5.9 12.3-3 10.5-1.8 2.9-2.3 2.2-2.4 1.2-2.2 1.6-1.2 2.9-0.9 3.3-1.5 2.8z" id="CHGR" name="Graubünden">
  </path>
  <path d="M577.1 72l-2.3-1-2.8-0.4-9.7 1.6-3.1 1.6-2.8 2-2.9 1.5-3.6 0.2-4.2-2.4-5.1-4-1-0.1-3.2-1.2 1.3-3.2-0.5-2.6-0.9-2.2 0.3-2.2 1.9-2.2 5.1-2.9 2.2-2 1.5-6 0.9-2.1 2.8-4.1 1.5-0.9 2.3 0 10.8-2.1 3.1-1.6-1.9-4.7 3.2-1.8 5 0.2 3.8 1.7 0.3 2.2 0.2 3.9 0.7 3.6 2 1.5 2.4-1.6 1.1-6.6 1.8-1.9 2.6 0.9 2 2.9 1.5 3.5 1.5 2.4 2.1 0.5 2.3-0.5 1.9 0.4 1.4 3-0.6 1.1-2.7 4.1-0.6 1.9 0.8 2.5 1.6 2 0.5 2.3 0.4 1.9 10.7-0.2-1.7-1.8 1.8-5.9 5.4 0.3 6.6 3.8 5.2 5-3.7 0.8 0 2.1 2.9 2.9-6.1-3.3-2.4 1-1.7-0.9-0.2 0-2.4 5.8-0.4 0.4-0.9 1.1-0.9 0.6-0.9 0.3-0.8-0.1-0.5 0.2-0.6 0.4-0.9 0.9-0.9 0.6-1.2 0.5-8.2-0.3-1.8-0.6-1.4-0.9-1.3-2-0.8-1.6-0.4-4.8 0.7-4.6-8.7-0.2-1.7 1.7-1.4 2.7-3.4 3.2-2.8 3.7-0.1 0.1z m-8.4 18.3l1.8 2.3 2.7-1 0.5-0.7 0 1-2.6 6.9-1.5 2.3-0.7 0.1-0.7-0.3-0.6-0.7-0.5-0.9-0.7-0.7-1.3-1.3-0.9-0.6 0.2-2.2 4.3-4.2z" id="CHSH" name="Schaffhausen">
  </path>
  <path d="M770.5 114.2l-0.1 0-16 5.2-1.8 0.7-0.9 0.2-0.8-0.1-2-1-0.2-0.5-0.2-0.3 0.9-2.8-2-1.4-10.3 7.8-1.4 2.8-1.3-0.5-1.8-1.5-4.5-5.8-0.4-1.4 0.6-1.6 0.1-1.1 0-1.2-1.9-3-2.8 0.1-1 0.3-0.9 0.4-1 0.9-0.6 0.3-1.7 0.1-1.1 0.2-1.3 0.5-0.8 0.6-0.6 0.8-0.5 0.3-0.4-0.1-0.4-0.2-0.4 0.2-0.3 0.3 0 0.8 0.8 0.5 2.1 0.3 1.3-0.2 1-0.5 0.9 0 0.6 0.2 1.1 4.5-0.8 2.3-0.4 0.9-0.8 1.2-1.1 0.8-1.4 0.4-1.6-0.4-1.2 0.1-1.9 1-0.7 0.7-3.6-0.5-7.8-1.8-6.6-3.2-3-3.5-1.9 3.3-0.9 1.1-1.6 0.9-3.3 0.6-2.5 0-2.6-0.7-0.8 0-1.7 0.3-0.6-0.2-0.5-0.5-0.4-0.7-0.5-0.6-0.7-0.1-3.5 0.5-1.2 0-1.6-0.6-0.7 0.2-1.7 1.8-0.8 0.3-1.1 0.3-1.2 0.4-0.7 1.3 0.2 1.6 0.4 0.9 5.6 4 0 1.1 0.3 3-0.1 1-0.4 0.8-0.7 0.4-1.4 0.2-1.1 0.3-1 0.4-0.9 0.5-0.8 0.2-0.7 0-0.7-0.3-1 0.4-0.7 1-2.3 5.2-1.9 2.3-2.8 5-1.7 2.3-2 0.1-8-8.5 1.5-2.1 0.4-1 0.4-1.3 0.3-2.1 1.2-1.4 0-0.4-1.6-0.9-2-2-1-6.1-2-1.3-0.4-0.8-0.5-1.8 0.1-0.9 0.1-0.6 0.4-0.3 0.9-0.6 0.4-0.5 0.4-0.8 0-0.6 0-0.4-0.2-0.3 0-0.6 0-0.7 1.2-6.3 0.1-0.9-0.5-1-1.5-1.1-5.9-2.5-2-1.1-1.2-1.4-0.8-2.7 0.9-2 0.4-0.5-1.1-1.6-1.1-1.2-12.9-6.4-2.4-0.8-1.8-2.2-0.7-1.1 0-0.6 0.4-0.7 1.2-1 1.4-0.5 1.5 0.2 2.9 1.5 1.1 1.2 0.9 0.7 0.8 0.1 0.7 0 1.2-2.3 1.8-2 1.5-2.9 0.9-1.3 0.3-1.5-0.3-1.2-2.3-2.7-0.8-4-3.3 1.5 2.4-5.8 0.2 0 1.7 0.9 2.4-1 6.1 3.3 0.1 0.1 5.9 4.4 4.9 1.3 7.9-0.8 7.4-2.3 3.2-3.5 3.8-1.5 22.4 2.5 11.2 0 2.7 4.3 7.6 0 7.8 1.8 55.2 34.5 1.2 5.3z" id="CHTG" name="Thurgau">
  </path>
  <path d="M573.7 90.9l0.8-1.6 0.3-2.2-0.1-2.1 0.2-2.1-0.1-1-0.5-1.2-0.3-1.3 0.5-1.7 0.7-0.6 1.1-0.4 0.8 0 0.2 0.4 0.2 1.9 1.3 0.6 1.1-7-1.8-0.2-1-0.4 0.1-0.1 2.8-3.7 3.4-3.2 1.4-2.7 1.7-1.7 8.7 0.2-0.7 4.6 0.4 4.8 0.8 1.6 1.3 2 1.4 0.9 1.8 0.6 8.2 0.3 1.2-0.5 0.9-0.6 0.9-0.9 0.6-0.4 0.5-0.2 0.8 0.1 0.9-0.3 0.9-0.6 0.9-1.1 0.4-0.4 3.3-1.5 0.8 4 2.3 2.7 0.3 1.2-0.3 1.5-0.9 1.3-1.5 2.9-1.8 2-1.2 2.3-0.7 0-0.8-0.1-0.9-0.7-1.1-1.2-2.9-1.5-1.5-0.2-1.4 0.5-1.2 1-0.4 0.7 0 0.6 0.7 1.1 1.8 2.2 2.4 0.8 12.9 6.4 1.1 1.2 1.1 1.6-0.4 0.5-0.9 2 0.8 2.7 1.2 1.4 2 1.1 5.9 2.5 1.5 1.1 0.5 1-0.1 0.9-1.2 6.3 0 0.7 0 0.6 0.2 0.3 0 0.4 0 0.6-0.4 0.8-0.4 0.5-0.9 0.6-0.4 0.3-0.1 0.6-0.1 0.9 0.5 1.8 0.4 0.8 2 1.3 1 6.1 2 2 1.6 0.9 0 0.4-1.2 1.4-0.3 2.1-0.4 1.3-0.4 1-1.5 2.1 8 8.5 0.9 1.3 4.8 8.7 1.1 6.3 0.6 2.3-0.6 1.2-1.3 1.5-2.6 2.2-1.4 2.1-1.2 1.8 0.2 2.4-1 1.4-1.8 1.7-11.9 5.6-2.6 0.2-8.3-1.1-3.7 2.9-2.8 6.9-8.8 1.7-7.8 5.1-2 1.8-1.2 1.4-0.3 0.9-0.2 0.8 0.1 0.8 0.2 0.6 1.1 1.6 0.4 1.6-4.5 0.6-6-2.6-1.5-1.2-0.8-1.2-0.5-1.1-2.3-2.8-3.4-3-3.7-4.1-8-1.3-5.7 1.1-3.7 1.4-2.1 0-2.4-0.4-8-2.7-1.3-0.8-0.6-1.2-0.2-1.3-1-3.1-4.5-9.7-0.5-2.4 0.6-0.1 0.6 0 0.5-0.1 1.4-0.6 3.4-2.1 3.8-4.9 1.8-3.2 0.6-2.9-5.9 1.9-2.4-2.6-0.5-1.1-0.1-1 0-0.9 0.4-3.2 0.1-1.9-1-1.1-3.9-2-1.2-0.9-0.5-0.7 0.4-1.6 5.3-5.5 0.9-2.5-0.5-1.1-2.8-3.6-1.5-4.6-4.4-9.5-1.1-4.2 0.1-3 1-5.7 3.4-5.4 4.3-4.4 4.6-7.6 0.4-1.8 5.6-0.9 0.2-1.4 2.4-5.2 6.2-4 6-0.7 3.1 3 2.4 4 0.4 0.5-4.3 4.2-0.2 2.2 0.9 0.6 1.3 1.3 0.7 0.7 0.5 0.9 0.6 0.7 0.7 0.3 0.7-0.1 1.5-2.3 2.6-6.9 0-1z" id="CHZH" name="Zürich">
  </path>
  <path d="M402.6 104.2l7.9-1.7 3.8-2.1 3.2-3.9 3.7-5.7 2.8 1.4 13 0.8 1.3 1.3 0.6 2.8 0.4 2.8 0.5 1.3 26.3 0 9-2.1 2-1.3 0.9-1.3 0.8-1.5 1.7-2 1.6-1.3 4.4-2.3 3.7-1.1 1.4-1.5 1-1.5 1-0.6 10.9-1.9 3.6 0 5.3 1.6 2.3 0.3 1.1 1.3 1.1 2.8 1.4 2.9 1.9 1.3 7.7 2.1 12.9 0 0.6-0.1-0.4 1.8-4.6 7.6-4.3 4.4-3.4 5.4-1 5.7-0.1 3 1.1 4.2 4.4 9.5 1.5 4.6 2.8 3.6 0.5 1.1-0.9 2.5-5.3 5.5-0.4 1.6 0.5 0.7 1.2 0.9 3.9 2 1 1.1-0.1 1.9-0.4 3.2 0 0.9 0.1 1 0.5 1.1 2.4 2.6 5.9-1.9-0.6 2.9-1.8 3.2-3.8 4.9-3.4 2.1-1.4 0.6-0.5 0.1-0.6 0-0.6 0.1 0.5 2.4 4.5 9.7-2.6 5-0.1 0.8-0.2 1.9 1.1 12.5 1.5 10.4-0.2 0-5.7-0.3-2.5-1.2-1.1-1-1.5-1.8-2.2-3.5-0.7-1.4-6.7-19.3-1.5-3.4-0.9-2.5-0.6-2.9-1.1-1.8-1.2-1.1-3.3-1.4-3.5 0.4-3.3 3.9-0.9 2.5-4.6 8.1-3.3 2.5-1.8 0.2-1.4-0.6-0.9-0.7-0.8-0.7-0.3-0.5-0.3-1-0.3-0.6 0-0.4 0.3-0.3 1.4-0.6-0.5-0.5-1.9-0.7-5.4-0.2-4.1-1.3-3-3.2-13.8 5.4-4.5-8.9-3.1-1.3-4.4 0.1-0.8 0.1-0.3 0.4-0.2 0.8 0.1 2.4 0.2 2.5-0.1 1-0.2 0.6-0.1 0.3-0.3 0.3-0.8 0.6-5.1 1.9-4.6 0-12.3 2.5-2.7-4.5-0.1-0.7-0.5-5.8 1.5-1.9 4.8-9.7 0.6-0.8 9-8.2 1.4 0.3 1.8 0.7 12.8 2 1.5-0.8 1.6-1.1 2.8-6.4 2.2-3.5 1.5-3.4-0.2-5.6-2.5-0.7-2-1.1-1.8-1.7-0.9-1.4-0.9-4.1-1.3-0.8-0.2-2.7 0.1-0.6 0-1-0.4-1-1.7-2.1-3.1-0.6-2.6-1.6-0.2-0.6-0.2-1.2 0-4.3-6.2-0.6-1.8-1.4-0.7-2.3-5.9-8.9-0.9-2.1-1.2-0.9-1.6-2.2-2.9-0.8-1.2 0.2-0.6 0.4-0.2 1.2-0.1 1.9-0.2 1-0.5 0.8-5 4.6-2.7 0.4-0.6-1-0.4-1.7-0.2-1.7 0.2-1.5-0.8-0.7-0.5-0.3-0.9-0.2-7.3-3.6-0.7-0.5z" id="CHAG" name="Aargau">
  </path>
  <path d="M386.4 103.9l0 5-1.3 1.5-2-1.2-1.6-1.3-1.2-1.4-1-0.4-1.1 0.3-3.5 2.4-2-1.7-0.6-1.1-2-0.2-1.9-0.5-6.1-4.3-1.1-0.7 1.1-0.9 4.8-2.7 7.1-2.7 0.1 0 10.3-3.1 4.6-0.5-2.7 7.5-2.1 2.1-4.8-0.1-0.5 0 7.5 4z" id="CHBS" name="Basel-Stadt">
  </path>
  <path d="M386.4 103.9l2.9 1.5 4.5 0.6 8.8-1.8 0.7 0.5 7.3 3.6 0.9 0.2 0.5 0.3 0.8 0.7-0.2 1.5 0.2 1.7 0.4 1.7 0.6 1 2.7-0.4 5-4.6 0.5-0.8 0.2-1 0.1-1.9 0.2-1.2 0.6-0.4 1.2-0.2 2.9 0.8 1.6 2.2 1.2 0.9 0.9 2.1 5.9 8.9 0.7 2.3 1.8 1.4 6.2 0.6 0 4.3 0.2 1.2 0.2 0.6 2.6 1.6-1.1 3.2-1 2 0.1 0.6 0.3 1.2 0.6 1.1 0.7 1.1 0.1 1.4-1.2 1.5-3.8 2.8-4.2 1.2-2.6 0.2-1.6-0.1-1 0.3-1.2 3.2-0.6 1.4-0.5 0.7-5 2.2-1.5 1.2-4.2 1.2-2.5 1.7-3.1 5.4-0.8 2-4.2-1.2-1.2-0.6-1.4-0.9-1.5-1.8-2-1.5-4.2-2.2-5-1.2-7.1 0.6-1.1-0.4-0.6-0.8-1.2-3.8-0.3-1.7-0.2-2.2 0.2-2.5 1.9-0.5 4.7-1.4 1-0.5 1.6-2.1 0.7-2.5 0.1-3.7 0.1-1 0.5-0.7 0.5-0.6 0.8-0.5 0.8-0.7 0.6-0.9 0.9-1.8 1-1.2-0.6-1.1-0.7-0.8-8.6-5.3-1.6-0.2-0.1 1.3-0.4 0.7-0.8 0.6-5.5-0.6-1.6 0.4-1.3 3.3 3.1 1.6 0.5 1 0.1 0.7-2.3 6.6-2.5 2.6-4.5 0.3-1.1 0.5-0.2 1.7 0.2 1.2 0.5 0.9-0.3 0.6-1 0.4-5.8 0.4-0.8 0.4-0.7 0.6-0.6 1.5-0.8 1.3-0.9 1.4-1.4 0.9-1.9 0.5-3.3-0.5-3.5-2-1.4-0.2-2.7 0.6-3.2 4.9-2.2 0-0.6-0.4-0.7-0.6-0.3-2.4-1.4-2.3-5.4-4.4 11.3-0.4 3-2.1 0.1-1-0.2-0.9-1.8-3.2-0.5-0.6-0.5-0.2-1.3 0-0.5-0.1-0.6-0.3-0.4-0.5-0.3-0.3-1-1.5 0-0.1 1.1-1.5 0.6-2.8-0.3-1.6-1-1.4-0.6-0.8-1-1.8-0.1-1.8 2.4-0.7 3.1 1.1 0.9 0.5 0.3 6.6 0.7 2.4 0.2 0.7 0.5 0.7 3.2 0.1 12.8-2.7-0.1-7.9-0.3-0.9-0.6-1.1-1.6-0.3-3.9-1.5-3.2 0.4-0.1-0.6-1.5-2.1-0.4-1.2 0.2-0.9 1.2-0.6 2.1 0.4 1.6-0.5 0.9-1.7-0.1-3-0.7 0-3.3-2.6-0.5-0.2 7.7-6.3 1.1 0.7 6.1 4.3 1.9 0.5 2 0.2 0.6 1.1 2 1.7 3.5-2.4 1.1-0.3 1 0.4 1.2 1.4 1.6 1.3 2 1.2 1.3-1.5 0-5z m-62.5 35.6l8.4 0.4 2-0.8-0.8 6-8.4-4.2-0.7-0.5-0.5-0.9z" id="CHBL" name="Basel-Landschaft">
  </path>
  <path d="M755.1 248.8l0.1 1.1 1.5 5 2.2 4.9 6.2 10.5 1.1 2.3-1.5 0.4-1.2 0.7-0.9 1.1-0.8 2.7-0.5 1.2-1.9 1.5-1.1 1.3-1.3 2.5-1.1 2.3-0.6 3.5 0.1 1.4-0.2 1.5-0.6 1.6-2.6 4.7-2.6 0.8-0.6 2.5-0.6 0.2-1.4-0.1-2.3-1.7-4.1-2.1-27-4-0.9 0.5-1 0-0.7-0.2-3.2-3.7 0.4-2.8-0.2-1.1-1.6-3.5-0.7-2.6-0.1-1.1 0.4-0.9 0.2-0.8 0.9-8.5-0.3-2.1-0.8-2.6-2.7-5.4-1.7-2.3-1.6-1.2-1.5 0.1-1.5 0.5-2.2 1.1-3.8 0.4-1.3-0.4-3.7-2.1-0.1-0.6 0.5-0.7 7-4.9 1.1-4.1 1-14.1-21.2-4.2-3.1-1.7-10.6-9.6-1.1-0.1-3.3 1.8-5.3-5.5-1.4-2.5 0-0.7 0.2-1.8 0.5-2.9-6.3-1.9-18.9 1.9-11-1.9 2.8-6.9 3.7-2.9 8.3 1.1 2.6-0.2 11.9-5.6 1.8-1.7 1-1.4-0.2-2.4 1.2-1.8 1.4-2.1 2.6-2.2 1.3-1.5 0.6-1.2-0.6-2.3-1.1-6.3-4.8-8.7-0.9-1.3 2-0.1 1.7-2.3 2.8-5 1.9-2.3 2.3-5.2 0.7-1 1-0.4 0.7 0.3 0.7 0 0.8-0.2 0.9-0.5 1-0.4 1.1-0.3 1.4-0.2 0.7-0.4 0.4-0.8 0.1-1-0.3-3 0-1.1-5.6-4-0.4-0.9-0.2-1.6 0.7-1.3 1.2-0.4 1.1-0.3 0.8-0.3 1.7-1.8 0.7-0.2 1.6 0.6 1.2 0 3.5-0.5 0.7 0.1 0.5 0.6 0.4 0.7 0.5 0.5 0.6 0.2 1.7-0.3 0.8 0 2.6 0.7 2.5 0 3.3-0.6 1.6-0.9 0.9-1.1 1.9-3.3 3 3.5 6.6 3.2 7.8 1.8 3.6 0.5 0.7-0.7 1.9-1 1.2-0.1 1.6 0.4 1.4-0.4 1.1-0.8 0.8-1.2 0.4-0.9 0.8-2.3-1.1-4.5-0.6-0.2-0.9 0-1 0.5-1.3 0.2-2.1-0.3-0.8-0.5 0-0.8 0.3-0.3 0.4-0.2 0.4 0.2 0.4 0.1 0.5-0.3 0.6-0.8 0.8-0.6 1.3-0.5 1.1-0.2 1.7-0.1 0.6-0.3 1-0.9 0.9-0.4 1-0.3 2.8-0.1 1.9 3 0 1.2-0.1 1.1-0.6 1.6 0.4 1.4 4.5 5.8 1.8 1.5 1.3 0.5 1.4-2.8 10.3-7.8 2 1.4-0.9 2.8 0.2 0.3 0.2 0.5 2 1 0.8 0.1 0.9-0.2 1.8-0.7 16-5.2 0.1 0 0.4 1.8 5.9 9 7.5 3.4 5.8 5.1-0.2 12.6-2 4.6-7.8 9.9-0.9 2.6-1 5.3-0.8 2-6.9 8.3-6.5 11-3.3 5.7-1.5 4.4-2 5.6-0.2 3.9-0.2 6.1 1.5 4.9 0.6 1.1 1.6 3.1 1.7 4.8 0.1 6.3-1.9 4-3.1 3.1-2.4 3.2 0.2 2.8z m2.3-85.9l-1.4-4.5 1.1-7.5 5.4-2.1 2.6-0.4 2.8 1.5 8.6-5.4-0.3-2.7 0.3-2.2 0.5-0.7 4.6-4.7-8.2-1.4-3.1-1.3-0.6-0.4-1.4-1.2-0.6-0.3-1.7-0.4-0.4-0.2-0.5-0.3-0.8 0-1.1 0.6-4.2 3.9-10.1 4.5-1.7 0.7-2.4 0.5-1.1 1.9-0.6 1.8-0.4 1.5-1.2 1.4-2.4 0.8-4.4-0.1-7.3 1.2-9.1 1.9-3.3-1.1-1.4 0-7.2 1.1-1.8-0.4-0.7 0.9-1.1 1.8-1.9 4.4-1.6 2.7-2.5 2.3-0.3 0.6 2.7 5.2 2-0.5 0.8 0 0.7 0.5 0.3 1-0.9 1.6-0.7 1.1-1.3 1.4-0.4 1.2-0.1 1.8 1.4 6.7-2.3 2.8 1.5 1.8 0.8 0.5 1.8 0.5 10.1 1.3 6.2 3.5 2.1 1.6 0.5-0.1 0.7 0.1 3.4-0.9 2.7 1.9 1.7 0.7 1.4 0.9 1.8 0.4 1.3 0.1 5.7-2.2 3.9-2 2.9-2.1 2.8-3.2 4-7.4 3.4-16.9z" id="CHSG" name="Sankt Gallen">
  </path>
  <path d="M353.9 119.6l3.2-0.4 3.9 1.5 1.6 0.3 0.6 1.1 0.3 0.9 0.1 7.9-12.8 2.7-3.2-0.1-0.5-0.7-0.2-0.7-0.7-2.4-0.3-6.6 1.7 1.1 2.6 0.4 3.1-2.8 0.4-0.5 0.2-0.8 0.1-0.8-0.1-0.1z m-13.1 14.3l0 0.1 1 1.5 0.3 0.3 0.4 0.5 0.6 0.3 0.5 0.1 1.3 0 0.5 0.2 0.5 0.6 1.8 3.2 0.2 0.9-0.1 1-3 2.1-11.3 0.4 0.8-6 3.6-1.5 2.9-3.7z m107.7-2.1l3.1 0.6 1.7 2.1 0.4 1 0 1-0.1 0.6 0.2 2.7 1.3 0.8 0.9 4.1 0.9 1.4 1.8 1.7 2 1.1 2.5 0.7 0.2 5.6-1.5 3.4-2.2 3.5-2.8 6.4-1.6 1.1-1.5 0.8-12.8-2-1.8-0.7-1.4-0.3-9 8.2-0.6 0.8-4.8 9.7-1.5 1.9-7 1.7-1.9-0.7-3.9 1.5-5.6-0.3-2.3-1.5-6.9-8.2-7.2 3.3-13.5 1.6 2.9 3.5 0.2 1.1 0.7 2.2 0.1 2.2 3.8 4.6 3.7 1.7 3.2 4.7 2.9 5.2 1 2.4 0.3 1.7-0.3 1-0.5 0.9-0.7 0.7-1.8 1-1.3 1.9-2.1 2.1-1.2 0.2-9.3-0.3-5.4-3.7-2.2 0.3-2.9 2.8-5.3 7.7-2.9 2.6-5.3 2.5-0.7 0.9 0 1.3 1 2.6 0.3 1.4-0.1 1.7-0.7 1-1.3 0.8-3.7 1.2-1.8-3.9-0.1-2.7-0.5-0.2-1.7 0.4-5.7 1.6-0.8-0.3-1.1-1-1.2-2.6-0.7-1-0.6-1.2-0.2-0.9 0.3-1.3 0.7-0.2 2.2 0.4 1.3-0.1 2.1 0.6 0.9-0.1 3.6-1 1.5-0.9 0.2-1.4-0.4-2.9 0.4-1.4 1.2-1.9 2.2-1.8 0.7 0 1 0.6 1.2 0.3 1.4-0.3 2.2-1.6 0.7-1.5-0.7-1.1-0.9-0.8-0.7-0.7-0.3-1.5-0.5-3.8-3.1 0.7-1 0.5-1.5 1.3-1.7 0.5-1.1 1.2-1.8 1.7-1.6 2-1.6 0.9-2.1 0.3-1.2-0.3-0.5-0.3 0.1-0.6 0.1-0.7-0.1-0.9-1.4-3.4-0.5-0.9-1-0.7-2.2-0.9-1-0.5-0.6-0.8-0.5-1.7-0.8-1.1-1-2.4 0.5-1.5 15.1-6.8-0.5-2 4.3-3.7 4.5-1.8 1.8-1.6 2.3-2.6 1.7-1.3 1.5-0.9 6.5-2.1 1.9-1.3 1.2-1.5 1.5-4.5 0.6-0.8 1.7-0.1 0.3-0.9 0.2-1.5-0.2-1.3-0.3-1.2-0.6-0.9-0.5-0.6-1.5-0.4-3.3-2.7-1.9-3.2-1.7-1.2-1.6-0.6-1.5 0.1-3.9-0.4-9.8-2.5 3.2-4.9 2.7-0.6 1.4 0.2 3.5 2 3.3 0.5 1.9-0.5 1.4-0.9 0.9-1.4 0.8-1.3 0.6-1.5 0.7-0.6 0.8-0.4 5.8-0.4 1-0.4 0.3-0.6-0.5-0.9-0.2-1.2 0.2-1.7 1.1-0.5 4.5-0.3 2.5-2.6 2.3-6.6-0.1-0.7-0.5-1-3.1-1.6 1.3-3.3 1.6-0.4 5.5 0.6 0.8-0.6 0.4-0.7 0.1-1.3 1.6 0.2 8.6 5.3 0.7 0.8 0.6 1.1-1 1.2-0.9 1.8-0.6 0.9-0.8 0.7-0.8 0.5-0.5 0.6-0.5 0.7-0.1 1-0.1 3.7-0.7 2.5-1.6 2.1-1 0.5-4.7 1.4-1.9 0.5-0.2 2.5 0.2 2.2 0.3 1.7 1.2 3.8 0.6 0.8 1.1 0.4 7.1-0.6 5 1.2 4.2 2.2 2 1.5 1.5 1.8 1.4 0.9 1.2 0.6 4.2 1.2 0.8-2 3.1-5.4 2.5-1.7 4.2-1.2 1.5-1.2 5-2.2 0.5-0.7 0.6-1.4 1.2-3.2 1-0.3 1.6 0.1 2.6-0.2 4.2-1.2 3.8-2.8 1.2-1.5-0.1-1.4-0.7-1.1-0.6-1.1-0.3-1.2-0.1-0.6 1-2 1.1-3.2z" id="CHSO" name="Solothurn">
  </path>
  <path d="M333.5 145.1l5.4 4.4 1.4 2.3 0.3 2.4 0.7 0.6 0.6 0.4 2.2 0 9.8 2.5 3.9 0.4 1.5-0.1 1.6 0.6 1.7 1.2 1.9 3.2 3.3 2.7-3.3 3.1-0.5 1.9 0.2 1 0.7 0.5 3.8 0.4-0.6 0.8-12 3.4-22-1.8-2-0.8-0.4-1.1-0.7-1.5-0.6-0.2-0.5 0.6-0.4 1.2-0.7 1.1-1.2 1.1-1.6 0.7-0.9 0.7-0.9 0.8-1.5 1.3-2.3 1.4-5.2 1.9-3.1 0.7-3.8 0.2-17-3.5-0.5 3.1 0.3 1.3-0.3 1.1-0.9 0.9-2 1.5-0.4 0.9-0.1 0.6 0.1 1 0.4 2.1 0.4 1.2-1.1 1.1-9.9 1.8-6.3-0.5-1.3 0.2-0.8 0.8-0.4 1.7-0.2 0.5-0.3 0.7-1.4 2.2-1 1.9-1.4 2-2.2 2.1-3.2 1.7-1.9 1.4-2.2 2.2-2.1 0.4-4.5-0.2-2.4 1.3-7.2 5.6-2.2 1.4-1.6 0.4-0.8-0.5-0.7-0.7-1.9-1.6-5.5-0.4-2.4-0.9 0.5-0.4 3.8-6.4 5.9-6 13.6-10.1-0.8-7.3 1.3-6.1 3.8-3.9 1.8-0.3 1.1-0.4 3-4 2.1-1.2 2-0.6 1.9-1.2 1.6-3.3-2.1-3-3-2.7-3-2.5-3.8 1.8-23.9 2.4 1-3.8 2.5-4.7 3-3.9 5.1-3.1 0.4-5.6 2.6-0.6 2.6-0.6 3.3-1.8 3-2.6 1.5-2.5-0.9-3.6-2.1-4.1-0.5-3.3 3.7-1.2 1.8-1.4 1.8-0.4 1.9 0.4 1.8 1.4 5.2 0.8 10.1-1.8 4.7 1 2.6 1.6 0.4 0 2.3 0.4 5.5-0.6-3.7 8.5 1.2 4.9 4.3 2.6 6 1.9 0.8 0.6 0.6 1.1 0.8 1.1 1.5 0.6 1.4-0.2 7.6-3.4 5.3-1.1 5.6 0.2 0.5 0.9 0.7 0.5 8.4 4.2z" id="CHJU" name="Jura">
  </path>
  <path d="M98.2 470.4l0.3 1.1 1.9 5 0.1 1.2 1.9 4.8 0.9 1.2 2.1 1.1 3.4-1.5 1.4 0.6 1 6.7-5.2 5.5-12.9 8.6-10.3 12.1-6.5 3.3-6.9-3-9.1 0.3-9.2 2.2-4.8 2.9 2.7-6.3 1.5-2.9 0.6-2.5-3.5-4.5-2.1-4 0.7-3.5 4.9-3.1 12.1-6 0.3-0.1 0.4 0 0.3 0 1.6 0.5 1.2 0.2 1.2-0.2 4.4-1.3 0.9-2-0.2-2.7 0.1-3.1 1.5-8.3 0.6-2.3 3-6.5 1.9 1.6 9.3 7.6 8.5-2.7z" id="CHGE" name="Genève">
  </path>
  <path d="M302 464l-2.5 2.7-3.5 3.8-0.1 1 0.4 3.8-0.8 2.2-2.3 4.2-2.8 4-3.9 3.9-2.3 1-4.8 5.9-6.6 4.4-7.7 4.3-2.3-3-1.5-2.8-4.5-6.1-12.8-22.4-1-2.6-0.8-5.2-2.2-1.7-2.7-0.6-2.5-1.7-0.8-2.2 0.3-2.1 0.5-2 0-1.5-1.3-2.5-3-3.5-1.3-2.2-2.4 1.5-9.6-1.9-3.8-0.2-0.3-2.7-1.8-2.9-3.1-1.5-30-7.8-13.4-0.4-12.9 2.5-17.2 11.8-6.6 1.7-6.6 0.3-6.2 2-6.5 5.7-5.8 7.6-4.2 5.8-1.1 4 0.5 1.8-8.5 2.7-9.3-7.6-1.9-1.6 3.5-8.1-0.2-3.2-2.5-4.4-2.9-3.2-9.9-6.1-1-0.6 2.3-2.3 0.4-1.9-0.4-2 0-2.2-0.2-0.9-0.5-1.2-0.4-1.4 0-1.5 0.8-1.8 2.3-2.4 7-12.1 7.1-9-1.5-1.8-3.4-3.7-0.6-3.9 2.7-3.5 27.1-24.9 14.5-7.9 2-1.7 5.3-6 6.6-3.6 2.2-1.6 2.2-2.8 0.8-2.5-0.1-4.9-1.5-1.7-1-1.4-0.6-1.7 0.3-1.4 3.2-9.6 1.4-2.5 0.3-1 3.8-0.7 10.3-0.5 1.8-0.3 2-1.1 2.8-2.2 9.8-5.2 6.1-2.1 3.1-2 5.4-4.5 11.8-7.2 0.7 3.6-0.5 2.9 0.6 1.7 1.1 1.6 1.6 1.3 0.6 1.5 0.2 1.7-0.2 2.8 0.4 1.9 0.4 1.2 3.3 7.4 1 7.7 0.7 2.1 2.3 2.3 0.5 0.4 0.4 0.1 0.9-0.1 0.3 0.2 0.3 0.5-0.1 0.6-0.3 0.7-0.6 0.7-0.1 0.7 0.2 0.3 2.6 1.2 0.6 0.2 0.8 0 0.8 0.2 2.2 1 0.9 0.3 0.6 0 1.7-0.2 1.1-0.8 1.4-0.5 0.9-0.1 1.4-0.4 0.9 0.4 1 0.8 0.9 0.5 0.9 0.1 2.8 0.1 1.1-0.2 1.5-0.4 0.5-0.4 0.6-0.6 1.5-3.5 0.8-1.4 0.1-0.6-0.4-0.5-1.2-0.2-1.5 0.8-0.4-0.4-0.3-0.7 0.7-6.1 0.2-1 0.3-1 0.3-0.9 0.9-2 1.3-1.9 0-1-0.6-0.9-2.1-1.7-1.2-0.5-0.9-0.2-0.7 0.1-0.3-0.2 0.4-0.8 0.6-0.6 0.7-0.4 1.3-0.6 0.4 0.1 0.4 0.3 0.5 0.5 0.3 0.1-0.6-1.1-0.7-0.9-8.5-8.4 6.5-5.4 6.2 8.8 0.7 0.5 1.2 1.2 3.2 4.6 0.6 0.4 0.4 0.1 0.3-0.3 0.2-0.5 0.1-0.5 0-0.6 0.3-0.4 0.6-0.3 0.7-0.2 0.6 0 0.4 0.2 0.5 0.6 0.4 0.9 0.2 1.3-0.6 1.2-0.3 1.3 0 1.3 0.5 2.7 0.7 1.1 0.6 0.5 1-0.4 0.2 0.1 0.2 0.3-0.1 0.9-0.7 1.3-2 2.4-1.2 0.8-0.9 0.8-0.7 1.2-1.2 3 0.4 4.1-5.5 7.8-0.8 1-0.8 0.5-2.6 0.8-0.2 0.6 0.5 1 0.7 0.6 0.7 0.3 2.6 0.6 0.2 0.2-0.7 2.5-5.9 8.1-7 10.2-1.1 3-0.1 0.4 0.3 0.5 0.1 0.3-0.5 0.4-1.1 0.3-3.2 0.1-2.2 0.5-3.3 2.3-2.4 0.2-0.5 3.1-0.1 1.3 0 3.5 0.3 3.2 0.3 1.7 0.2 1.5-0.1 0.6-0.5 0.3-0.2 0.3 0 0.7 0.1 0.8 0.1 1.1-0.3 1.3 0 1 0.3 0.4 1.7-0.8 0.9-0.2 1.2 0 1.6 1.1 3-0.2 2.2-0.6 0.8 0.2 1.1 0.6 2.3 2.3 1.3 1 0.9 0.2 1.6-0.4 0.7-0.1 0.4 0.2-0.4 0.8-1.1 1.5-5 5.8-0.6 0.9-0.6 0.4-2.5-1.5-0.5-0.2-1.6-0.2-2.7 0.1-0.5 0.1-1.7 3.5 1.4 4 2.3 3.2 0.9 0.5 1.5 0.3 2.9-0.4 1.8-0.9 1.4-1.1 3-3.2 2.1 0.1 2.8 1.1 11.2 8.3 1.3 3.4 0.7 3 0.1 1.2 0.4 1.5 0.6 1.4 0.7 1 0.5 1.1 0.6 0.4 0.2 0.4 4.7-2.3 0.8-2.5 0.4-0.8 0.6-0.9 2-2.3 3.5-3 1.3-0.8 1.5-0.6 5.9-0.7 1.7-1.1 2.2-1.8 3.1-3.7 1.5-2.1 2-1.7 11.6-3.5 6-4.8 0.9 2.5 0.5 0.8 0.6 0.9 0.3 0.9 0.1 1.2-0.1 2.1 0 1.9-0.2 2.4-0.7 2.3-1.5 2.9-1 1.4-0.6 1.2-0.1 1.1 0.4 3.9-0.1 1.8-0.7 2-1.8 2.5-3.3 2-0.6 1 0.6 2.5 0.7 1.8 0.4 2.3 0 1.5-2.3 7.2 2 1.6 2.9 3 1.2 0.6 0.5 0.8 0.1 1-1 1.6-0.4 1.1 0.3 5.9z m-91.7-113.5l1.3-1.2 1-1 1.5-1.9 0.3-2.2-0.1-2.2-1.2-1.2-1.3 0-1.7 1.7-1.3 1.7-1.4 0-0.5 1.4 0.9 1.5 1 1 0.5 1.9 1 0.5z m18.1-2.4l1.5-0.8 1.5-1.4 1.5-2.9 0.7-2.2-1-2.2-1.7-1-1.3-0.5-0.7-1.4-1.1-1.2-1 0.7-0.9 1.2-1.3 1.9-1.2 1-1.8 2.5-0.8 1.9-2.2 1-1.5 0.7-1.2 1-0.6 0.7 0.5 1.2 1.3 0 1.7-0.2 2.3-2.2 1.5-0.5 2.3 1.2 1.7 0.7 1.8 0.8z m31.9-77.4l8.3 3.4 1.4 9.9 0.8 2.2 4.2 8.7 0.5 0.5 0.7 0.4 1.3 0.5 0.1 0.6-0.4 0.8-1.5 1.7-0.5 0.2-0.4-0.2-0.5-0.7-0.6-0.2-0.6 0.2-0.8 0.9-0.6 1.4-0.5 2.7-0.5 1.4-0.5 1.3-0.5 0.9-1.8 2.1-3.5 1.8-0.2-0.7-0.3-2.1-2.8-4.2-2.3-1.3-1-2-12.7-17.6 15.2-12.6z" id="CHVD" name="Vaud">
  </path>
  <path d="M223.4 217.9l2.4 0.9 4.2 2.3 2.2 3 1.2 2.7 0.5 1.5 0.2 1.2-0.2 2-0.8 3.7-0.2 0.5-0.2 0.4-0.8 0.8-0.2 0.3-0.5 2.1 0.1 1.8 0.5 0 30.7-9.6 1.4-0.3 0.2 4 2.7 0.8 5.9 3.3 1.6 1.3 0.7 1.3 0 0.5-0.3 0.3-0.5 0.4-0.3 0.2-0.2 0.4 0.1 0.4 0.1 0.5 0.2 0.5 0.2 0.8 0.3 2.3 0.1 0.7 0 0.9-0.1 0.5-0.2 0.6-0.3 0.6-0.6 0.3-0.7 0.3-0.6 0.4-1.3 1.2-0.8 0.5-4.5 1.9-0.7 0.9-0.7 1.4-1 4.9-1 2.1-1.9 5.3-15.2 12.6-7.7 6.4-6.5 5.4-22 18.2-3.3-7.4-0.4-1.2-0.4-1.9 0.2-2.8-0.2-1.7-0.6-1.5-1.6-1.3-1.1-1.6-0.6-1.7 0.5-2.9-0.7-3.6-11.8 7.2-5.4 4.5-3.1 2-6.1 2.1-9.8 5.2-2.8 2.2-2 1.1-1.8 0.3-10.3 0.5-3.8 0.7 0.8-1.9 0.3-4-0.6-3.3-2.7-5.1-0.9-2.7 3-10.4 9.8-5.6 21.7-6.9 13.4-10.2 4.6-6.7-2.4-5.5 2.7-4.7 1.9-1.9 5.1-1.8 0.7-1.9 0.8-0.5 2.9-1.5-0.3-5 6.1-2.2 12.7-11.8z" id="CHNE" name="Neuchâtel">
  </path>
  <path d="M367.8 165.7l1.5 0.4 0.5 0.6 0.6 0.9 0.3 1.2 0.2 1.3-0.2 1.5-0.3 0.9-1.7 0.1-3.8-0.4-0.7-0.5-0.2-1 0.5-1.9 3.3-3.1z m172.2 203.4l-2.1 0.3-3.9 4.8-1.2 2.5-0.8 2.3-1.2 4.6-1 6.4-0.9 1.7-1 1.5-2.1 2.1-3.2 2-2.1 1.9-9.3 5.2-4.8 1.7-10.5 2.2-1.2 0-1-0.3-0.7-0.5-0.2-0.9 0-0.8 0-0.5-0.3-0.2-5.4-0.6-4.8-2.1-1.8-1.5-17.2-3.3-5.1 0.3-6.6 4-0.7 0.7-0.4 0.4 0 0.4 0.3 0.6 0.5 0.9 0.5 1 0.3 0.9 0 1-0.8 1.4-0.6 0.9-5.5 3.6-7.4 5.2-4.3 1.7-1.8 0.3-3.1 0-2.3-0.7-24.5 17.8-2.4 0.3-13.3-6.5-4.2-0.5-1 0.5-0.6 0.5-0.3 0.9-0.3 1.1-0.4 0.6-2.2 1.7-0.6 0.7-6.8 2.1-4.6 2.9 1.1 1.6 2.7 1.4-3 2.7-7.2 3-1.7 0.5-1.3 0-1.2-0.3-0.5-0.3-4.8-1.4-8.8 0.1-2.9 0.6-0.5 0.3-0.4 0.4-1.9 2.3-4.6 3.2-7.6 2.6-1.2-0.6-1.2-0.4-0.3-0.7 0.1-0.9 0.2-1.5-0.2-2-0.5-0.7-1.2 0-6.6 2.3-0.6 0.4-0.3 0.4-0.1 0.8-0.1 1.1-1.5 2.6-7 4.2-0.3-5.9 0.4-1.1 1-1.6-0.1-1-0.5-0.8-1.2-0.6-2.9-3-2-1.6 2.3-7.2 0-1.5-0.4-2.3-0.7-1.8-0.6-2.5 0.6-1 3.3-2 1.8-2.5 0.7-2 0.1-1.8-0.4-3.9 0.1-1.1 0.6-1.2 1-1.4 1.5-2.9 0.7-2.3 0.2-2.4 0-1.9 0.1-2.1-0.1-1.2-0.3-0.9-0.6-0.9-0.5-0.8-0.9-2.5 8.2-7.3 3.5-0.3 2-0.1 0.8-0.3 0.9-1.3 0.5-2.5 0.4-4.1-0.7-8.6 2.2-2.6 0.9-0.6 2.9 0.6 1.7 0.7 1.5 0.1 1.8-1.9 0.7-1-0.4-1.1 0.8-7.3 0.6-2-0.4-0.5-0.8-0.6-0.8-0.4-0.5-0.4-0.5-0.6-0.6-0.5-0.6-0.2-0.9 0.1-0.7-0.2-0.6-0.6-0.9-1.5-1.7-1.4-1-0.6-3.5-1.3-0.6-0.6-0.5-1-0.8-2.2-0.4-4.3 0.1-7.7 0.5-4.7 2.3-9.7 0.1-4.3-0.5-3.1-0.6-1.3 0.2-0.9 1.5-1.3 1.2 0.3 0.3 0.2-0.1 0.8 0.3 0.4 0.7 0.4 1.3 0 1.1-0.6 1.9-1.6 1-2.4-1-6.6-16.1-1.5-10.3-3-2.1 0.4-1 0-0.7-0.3-0.1-0.8 1.4-3 0.6-1.7 0.2-1.5-0.5-3.1-0.1-1.9-0.3-1.3-0.4-1.1-1.2-1.9 0-0.8 0.4-0.5 2.6-1.3 1.1-0.9 2.1-2.6 0.4-1.1-1.3-1.9-0.2-1.7-0.1-0.3-0.1-0.4-0.6-0.7-1.9-0.5-4.6 2-10.1 4.1-16.2 1.6-8.3-3.4 1.9-5.3 1-2.1 1-4.9 0.7-1.4 0.7-0.9 4.5-1.9 0.8-0.5 1.3-1.2 0.6-0.4 0.7-0.3 0.6-0.3 0.3-0.6 0.2-0.6 0.1-0.5 0-0.9-0.1-0.7-0.3-2.3-0.2-0.8-0.2-0.5-0.1-0.5-0.1-0.4 0.2-0.4 0.3-0.2 0.5-0.4 0.3-0.3 0-0.5-0.7-1.3-1.6-1.3-5.9-3.3-2.7-0.8-0.2-4-1.4 0.3-30.7 9.6-0.5 0-0.1-1.8 0.5-2.1 0.2-0.3 0.8-0.8 0.2-0.4 0.2-0.5 0.8-3.7 0.2-2-0.2-1.2-0.5-1.5-1.2-2.7-2.2-3-4.2-2.3 5.5 0.4 1.9 1.6 0.7 0.7 0.8 0.5 1.6-0.4 2.2-1.4 7.2-5.6 2.4-1.3 4.5 0.2 2.1-0.4 2.2-2.2 1.9-1.4 3.2-1.7 2.2-2.1 1.4-2 1-1.9 1.4-2.2 0.3-0.7 0.2-0.5 0.4-1.7 0.8-0.8 1.3-0.2 6.3 0.5 9.9-1.8 1.1-1.1-0.4-1.2-0.4-2.1-0.1-1 0.1-0.6 0.4-0.9 2-1.5 0.9-0.9 0.3-1.1-0.3-1.3 0.5-3.1 17 3.5 3.8-0.2 3.1-0.7 5.2-1.9 2.3-1.4 1.5-1.3 0.9-0.8 0.9-0.7 1.6-0.7 1.2-1.1 0.7-1.1 0.4-1.2 0.5-0.6 0.6 0.2 0.7 1.5 0.4 1.1 2 0.8 22 1.8 12-3.4-1.5 4.5-1.2 1.5-1.9 1.3-6.5 2.1-1.5 0.9-1.7 1.3-2.3 2.6-1.8 1.6-4.5 1.8-4.3 3.7 0.5 2-15.1 6.8-0.5 1.5 1 2.4 0.8 1.1 0.5 1.7 0.6 0.8 1 0.5 2.2 0.9 1 0.7 0.5 0.9 1.4 3.4 0.1 0.9-0.1 0.7-0.1 0.6 0.5 0.3 1.2 0.3 2.1-0.3 1.6-0.9 1.6-2 1.8-1.7 1.1-1.2 1.7-0.5 1.5-1.3 1-0.5 3.1-0.7 0.5 3.8 0.3 1.5 0.7 0.7 0.9 0.8 0.7 1.1-0.7 1.5-2.2 1.6-1.4 0.3-1.2-0.3-1-0.6-0.7 0-2.2 1.8-1.2 1.9-0.4 1.4 0.4 2.9-0.2 1.4-1.5 0.9-3.6 1-0.9 0.1-2.1-0.6-1.3 0.1-2.2-0.4-0.7 0.2-0.3 1.3 0.2 0.9 0.6 1.2 0.7 1 1.2 2.6 1.1 1 0.8 0.3 5.7-1.6 1.7-0.4 0.5 0.2 0.1 2.7 1.8 3.9 3.7-1.2 1.3-0.8 0.7-1 0.1-1.7-0.3-1.4-1-2.6 0-1.3 0.7-0.9 5.3-2.5 2.9-2.6 5.3-7.7 2.9-2.8 2.2-0.3 5.4 3.7 9.3 0.3 1.2-0.2 2.1-2.1 1.3-1.9 1.8-1 0.7-0.7 0.5-0.9 0.3-1-0.3-1.7-1-2.4-2.9-5.2-3.2-4.7-3.7-1.7-3.8-4.6-0.1-2.2-0.7-2.2-0.2-1.1-2.9-3.5 13.5-1.6 7.2-3.3 6.9 8.2 2.3 1.5 5.6 0.3 3.9-1.5 1.9 0.7 7-1.7 0.5 5.8 0.1 0.7 2.7 4.5 5.2 12 0.9 1.8 1.1 2.6 0.6 2.3 0.1 3 1.7 9-1.6 2.9-0.6 2-0.4 3.1 0 5.8-0.7 6 0 1.9 0.5 2 1.7 2.4 1.4 2.4 1.1 1.3 0.7 4.8 5.3 0.4 1.5 1.3 4.3 0.9-1.3 6.8-0.6 1.2-0.7 2.7-0.5 0.8-0.7 1-0.3 0.8-0.2 1.8-0.3 0.9-0.4 0.6-1 0.8-0.3 0.6-0.5 1.2-0.6 1-1 0.8-1 0.1-1.6-0.3-0.5 0.1-1.5 0.9-1.8 0.7-0.7 0.6-0.4 1.2 0 1.8 0.5 3.6-0.2 2.1-0.7 1.7-1.8 1.9-0.4 1.4 1.9 5.8 0.1 2.3 3.1 3.4 13.3 10.7 2.4 3.7 2.6 3.3 1.3 0.3 1.6-0.3 3-1.7 3.5-1.4 4.1 0.3 6.3 0.3 3.9 0.9 6.8 4.4 2.1 1.5 2.4 1.1 1.5 0.4 1.1-0.2 4.7-1.9 2.4-0.4 10.5 1.3 3.9 1.2 2 0.1 2.2-0.9 6.7-4.7 8.8-3.5 4.7 4.3 2 1.6 1.3-0.8 2.7-0.5 1 0 4.1 1.4-1.8 4.1-0.2 1.4 0.2 2.7 0.6 1.8 1.2 2.3 0.3 1.2 0.1 1.6 0.3 1.2 0.2 1.2-0.1 1.3-0.2 1.7-0.3 1.4-0.7 1.1-1.4 0.3-1.6-0.1-3.4-0.8-1.3 0.1-0.9 1.2 0 3.5 0.9 2.4 0.6 3.8z m-237.4-81.8l0.6-0.3 0.5-0.5 0.3-0.4-0.1-1.1-3 0.9 0.7 1.5 0.6-0.2 0.4 0.1z" id="CHBE" name="Bern">
  </path>
  <path d="M425.2 199l12.3-2.5 4.6 0 5.1-1.9 0.8-0.6 0.3-0.3 0.1-0.3 0.2-0.6 0.1-1-0.2-2.5-0.1-2.4 0.2-0.8 0.3-0.4 0.8-0.1 4.4-0.1 3.1 1.3 4.5 8.9 13.8-5.4 3 3.2 4.1 1.3 5.4 0.2 1.9 0.7 0.5 0.5-1.4 0.6-0.3 0.3 0 0.4 0.3 0.6 0.3 1 0.3 0.5 0.8 0.7 0.9 0.7 1.4 0.6 1.8-0.2 3.3-2.5 4.6-8.1 0.9-2.5 3.3-3.9 3.5-0.4 3.3 1.4 1.2 1.1 1.1 1.8 0.6 2.9 0.9 2.5 1.5 3.4 6.7 19.3 0.7 1.4 2.2 3.5 1.5 1.8 1.1 1 2.5 1.2 5.7 0.3 0.2 0 2.5 4 1.7 0.4 0.9 0.5 0.8 0.2 0.3 0.2 1.2 3.2-6.2 3.8-1.1 1.1-0.6 1-0.3 1.2 0 1.5-0.3 1.1-0.7 1-1.8 1.9-0.3 1 0.3 1.6 1.1 1.5 2.2 1.2 3.1-1.5 8.1 2.1 7.7 7.2 0.7 1.1 0.7 1.4-0.7 2.3-0.7 1.5-6.6 3.5-1.1-2-2.8-2.7-2.8-0.6-1.8 1.8-0.2 1.3-2 0.7-6.7-0.2-0.2-0.2-0.1-0.3-0.1-0.7-2.2-1.3-3.1 1.5-4.4 1.5-2.5-0.4-2.3-0.1-2.5 0.4-4.9 0-3.5 0.7-3.9 1.4-1.1 0.7-0.6 1.5-0.2 1.2 1 2.2-11.2 1.1-3.4 2.2-0.4 0.8 0.8 2.6 0.2 1.5-0.3 1.5-4.1 3.8-4.8 6.1-0.9 0.3-0.5-0.3-0.2-0.8-0.4-0.3-0.7-0.1-1.1 0.1-1 0.3-0.8 0.8-1.5 2.1-0.6 1.4-0.8 2.2-0.7 4.2-3.5 8-0.5 1.6 0.7 3 1 2.1 1 4.6-3.2 5.3-4.1-0.3-3.5 1.4-3 1.7-1.6 0.3-1.3-0.3-2.6-3.3-2.4-3.7-13.3-10.7-3.1-3.4-0.1-2.3-1.9-5.8 0.4-1.4 1.8-1.9 0.7-1.7 0.2-2.1-0.5-3.6 0-1.8 0.4-1.2 0.7-0.6 1.8-0.7 1.5-0.9 0.5-0.1 1.6 0.3 1-0.1 1-0.8 0.6-1 0.5-1.2 0.3-0.6 1-0.8 0.4-0.6 0.3-0.9 0.2-1.8 0.3-0.8 0.7-1 0.5-0.8 0.7-2.7 0.6-1.2 1.3-6.8-4.3-0.9-1.5-1.3-5.3-0.4-0.7-4.8-1.1-1.3-1.4-2.4-1.7-2.4-0.5-2 0-1.9 0.7-6 0-5.8 0.4-3.1 0.6-2 1.6-2.9-1.7-9-0.1-3-0.6-2.3-1.1-2.6-0.9-1.8-5.2-12z" id="CHLU" name="Lucerne">
  </path>
  <path d="M539.6 195l1 3.1 0.2 1.3 0.6 1.2 1.3 0.8 8 2.7 2.4 0.4 2.1 0 3.7-1.4 5.7-1.1 8 1.3 3.7 4.1 3.4 3 2.3 2.8 0.5 1.1 0.8 1.2 1.5 1.2 6 2.6 4.5-0.6 3.7 2.6-3.6 3.8-1.5 4.4-5.7 6.8-2.2 1.7-2.7 1.1-2.7 0.6-4.6 1.7-2.4 0.5-1.8-0.1-1.6-1.6-0.9-0.6-1.1-0.2-10.4 0.9-3.5-8-2.1-0.2-1.4-0.5-2 1-2.1 1.5-1.2-3.2-0.3-0.2-0.8-0.2-0.9-0.5-1.7-0.4-2.5-4-1.5-10.4-1.1-12.5 0.2-1.9 0.1-0.8 2.6-5z" id="CHZG" name="Zug">
  </path>
  <path d="M553.6 405.4l-7.9-4.4-3.1-4.8-2.1-5.3-0.6-1.8-0.2-1.7 0.2-1.4 1.4-4.8 0.7-3.2 0.4-3.6 0.1-2.5-0.3-1.3-0.5-0.7-1.7-0.8-0.6-3.8-0.9-2.4 0-3.5 0.9-1.2 1.3-0.1 3.4 0.8 1.6 0.1 1.4-0.3 0.7-1.1 0.3-1.4 0.2-1.7 0.1-1.3-0.2-1.2-0.3-1.2-0.1-1.6-0.3-1.2-1.2-2.3-0.6-1.8-0.2-2.7 0.2-1.4 1.8-4.1 6.5-2 0.4-1.4 0.2-1.5-0.3-1.5-0.2-1-0.2-0.7-0.6-0.4-0.5-0.4-0.4-1.2 0.8-1.8 0.5-2.1 1.2-3.8 1.1-2 1.5-1.7 0.6-0.9 0.2-0.7-0.1-0.5-0.4-0.6-0.5-0.6-1.7-0.4-0.7-0.5-2.1 0.2-0.9-5.9 0.4-2.1-0.3-1.9-0.5-1.3-1.5-2.2 0.1-1 0.4-0.6 3.4-2.3 10.3-5.3 2.3-2.2 0.9-1 0.6-1.1 2.7-8.8 0.3-1.5-0.3-1.8 5.9-0.4 0.8 0.4 1 0.6 0.3 1 0.8 4.2 0.8 2.6 1.5 1.2 1.1 0.6 1.8 0.4 4.3 1.6 1.4 0.2 4.6-0.3 1 0.4 0.6 0.9 1 3.2 1.5 2.2 1.2 0.4 1.3-0.5 2.1-1.7 1.9-1.1 1.5-0.5 2.4-1.2 1.4-0.4 1.1 0.5 1.3 1.1 1.9 0.4 5.7-0.2 1.4 0.6 0.6 1.1-0.2 1.3 0.1 1.4 0.6 1 1.2 1.3 1.2 0.1 0.5 0.9 0.2 3.3 0.5 1.7 0.8 0.6 0.8-0.3 1.4-1.3 5-2.4 0.9-0.3 9.1-5.2 2.7 4.9 0.4 0.9 0.5 1.8 0.1 1.8-0.1 2.9-0.8 1.6-1.4 1.2-4.3 1.8-0.9 0.2-0.7-0.1-0.5 0.1-0.6 0.5-1 1-5.2 3.9-0.3 1.9 0.2 1.4 0.1 5.7-2.2 2.9-2.3 1.2-1.3 1.5-1.4 0.6-1.5 0.3-0.6 0.7 0.1 3.5-0.3 2.5-1.8 2.3-1.6 2.8-0.3 0.7 0 0.3 0.2 2.7-0.7 1-0.7 0.5-3 0.7-0.8-0.1-3.1-1.1-3.5 1.2-2 2.2-4.7 6.1-1.9 1.1-2.1 0.4-3.3 1.5-1.3 1.2-0.7 1.3 0 0.9 0.1 0.8-0.1 1.1-0.3 1.6-1.5 3.3-1.4 4.6-0.1 1.6 0.2 1.7 0.4 1.2 0.6 0.9 0.7 0.5 0.9 0.5 0.8 0.5 0.5 1 1.1 3.5 0.4 2.4-0.6 4-8.3 3.6-17.7-4-2.3 0.1-1.5 0.5-0.7 0.6-0.5 0.7-1.6 4.7-0.8 1.9-0.4 1.5-6.7 5.6z" id="CHUR" name="Uri">
  </path>
  <path d="M595.3 218.7l-0.4-1.6-1.1-1.6-0.2-0.6-0.1-0.8 0.2-0.8 0.3-0.9 1.2-1.4 2-1.8 7.8-5.1 8.8-1.7 11 1.9 18.9-1.9 6.3 1.9-0.5 2.9-0.2 1.8 0 0.7 1.4 2.5 5.3 5.5-3.8 12.5 0 1.6-0.6 3.3-0.5 1.2-0.9 1.6 0.4 3.9-0.2 2.1-2 4.1-1.5 2.5-1.8 2-5 2.3-2.3 1.7-1 3.3 2.9 2.6 5.6 8.2 0 0.5-0.5 1 0 0.8 0.9 1.6 1 1.1 3.2 2.2 0.8 1.3 0.3 1.9-0.7 3.9-1 3.5-4.3 2.2-9.1 5.2-0.9 0.3-5 2.4-1.4 1.3-0.8 0.3-0.8-0.6-0.5-1.7-0.2-3.3-0.5-0.9-1.2-0.1-1.2-1.3-0.6-1-0.1-1.4 0.2-1.3-0.6-1.1-1.4-0.6-5.7 0.2-1.9-0.4-1.3-1.1-1.1-0.5-1.4 0.4-2.4 1.2-1.5 0.5-1.9 1.1-2.1 1.7-1.3 0.5-1.2-0.4-1.5-2.2-1-3.2-0.6-0.9-1-0.4-4.6 0.3-1.4-0.2-4.3-1.6-1.8-0.4-1.1-0.6-1.5-1.2-0.8-2.6-0.8-4.2-0.3-1-1-0.6-0.8-0.4-5.9 0.4-14.5 1.9-4.9-3.5 6.6-3.5 0.7-1.5 0.7-2.3-0.7-1.4-0.7-1.1-7.7-7.2-8.1-2.1-3.1 1.5-2.2-1.2-1.1-1.5-0.3-1.6 0.3-1 1.8-1.9 0.7-1 0.3-1.1 0-1.5 0.3-1.2 0.6-1 1.1-1.1 6.2-3.8 2.1-1.5 2-1 1.4 0.5 2.1 0.2 3.5 8 10.4-0.9 1.1 0.2 0.9 0.6 1.6 1.6 1.8 0.1 2.4-0.5 4.6-1.7 2.7-0.6 2.7-1.1 2.2-1.7 5.7-6.8 1.5-4.4 3.6-3.8-3.7-2.6z" id="CHSZ" name="Schwyz">
  </path>
  <path d="M707.6 291.2l-5.6 5-3.5 4.8-1 0.7-1.7 0.7-3.8 0-2.9 0.7-6.9 4.7-2 0.6-1.7-0.6-0.9-1.3-1.4-1.1-2-0.7-3.3-0.3-2 0.4-1.3 0.7-0.5 0.7-0.2 1.1 0.1 2.2-0.3 1.1-0.5 0.9-0.6 1.2-0.6 1.4-1 2.1-1.5 2-2.8 2.7-4.6 2.1-11.1 3.5-1.9 0-0.8-0.5-0.5-2-0.4-0.8-0.9-0.1-2.1-0.8-4.2-0.2-0.1-5.7-0.2-1.4 0.3-1.9 5.2-3.9 1-1 0.6-0.5 0.5-0.1 0.7 0.1 0.9-0.2 4.3-1.8 1.4-1.2 0.8-1.6 0.1-2.9-0.1-1.8-0.5-1.8-0.4-0.9-2.7-4.9 4.3-2.2 1-3.5 0.7-3.9-0.3-1.9-0.8-1.3-3.2-2.2-1-1.1-0.9-1.6 0-0.8 0.5-1 0-0.5-5.6-8.2-2.9-2.6 1-3.3 2.3-1.7 5-2.3 1.8-2 1.5-2.5 2-4.1 0.2-2.1-0.4-3.9 0.9-1.6 0.5-1.2 0.6-3.3 0-1.6 3.8-12.5 3.3-1.8 1.1 0.1 10.6 9.6 3.1 1.7 21.2 4.2-1 14.1-1.1 4.1-7 4.9-0.5 0.7 0.1 0.6 3.7 2.1 1.3 0.4 3.8-0.4 2.2-1.1 1.5-0.5 1.5-0.1 1.6 1.2 1.7 2.3 2.7 5.4 0.8 2.6 0.3 2.1-0.9 8.5-0.2 0.8-0.4 0.9 0.1 1.1 0.7 2.6 1.6 3.5 0.2 1.1-0.4 2.8z" id="CHGL" name="Glarus">
  </path>
  <path d="M536.4 334l-4.7-4.3-4.2-2.5-4.1-5.7-0.5-7 0.3-2.8 0.2-5.9 1-3.4 0.3-1.3 0-7.9-0.4-1.2-1-1-4.7-2.2-1.3-1.1-1-1.4 0.3-1.9 0.5-1 0.6-1 0.6-1 0.6-1.4 0.3-1.2 0.3-1.5-0.5-0.8-0.7-0.4-7.7-2.4-0.8 0-0.8 0.3-1.1 0.7-1.2 0.5-3.4 0.8-1-2.2 0.2-1.2 0.6-1.5 1.1-0.7 3.9-1.4 3.5-0.7 4.9 0 2.5-0.4 2.3 0.1 2.5 0.4 4.4-1.5 3.1-1.5 2.2 1.3 0.1 0.7 0.1 0.3 0.2 0.2 6.7 0.2 2-0.7 0.2-1.3 1.8-1.8 2.8 0.6 2.8 2.7 1.1 2 4.9 3.5 14.5-1.9 0.3 1.8-0.3 1.5-2.7 8.8-0.6 1.1-0.9 1-2.3 2.2-10.3 5.3-3.4 2.3-0.4 0.6-0.1 1 1.5 2.2 0.5 1.3 0.3 1.9-0.4 2.1 0.9 5.9-9.8 0.4-2.1-1.7-0.8-1.7-0.9-0.5-0.9 0.1-3.9 2.5-0.7 0.3-0.4-0.1 0-0.3 0.2-0.7 0-0.8 0-1.1-1.1-1.6-0.7-0.2-0.8 0.6-0.8 1.4 0.1 1 0.7 1.4 0.4 3.5 0.3 1.4 1.1 3.7 0.1 1-0.1 1 0 0.8 0.5 0.4 1.5 1 0.2 0.6 0.2 1.3 0.1 0.4 0.2 0.3 0.3 0.4 0.7 0.8 0.8 1.4 0.6 0.8 0.7 0.7 3.2 1.3 0.6 0.6 0.4 1-0.5 0.5-5.8 1.9z" id="CHNW" name="Nidwalden">
  </path>
  <path d="M304.9 398.3l-6 4.8-11.6 3.5-2 1.7-1.5 2.1-3.1 3.7-2.2 1.8-1.7 1.1-5.9 0.7-1.5 0.6-1.3 0.8-3.5 3-2 2.3-0.6 0.9-0.4 0.8-0.8 2.5-4.7 2.3-0.2-0.4-0.6-0.4-0.5-1.1-0.7-1-0.6-1.4-0.4-1.5-0.1-1.2-0.7-3-1.3-3.4-11.2-8.3-2.8-1.1-2.1-0.1-3 3.2-1.4 1.1-1.8 0.9-2.9 0.4-1.5-0.3-0.9-0.5-2.3-3.2-1.4-4 1.7-3.5 0.5-0.1 2.7-0.1 1.6 0.2 0.5 0.2 2.5 1.5 0.6-0.4 0.6-0.9 5-5.8 1.1-1.5 0.4-0.8-0.4-0.2-0.7 0.1-1.6 0.4-0.9-0.2-1.3-1-2.3-2.3-1.1-0.6-0.8-0.2-2.2 0.6-3 0.2-1.6-1.1-1.2 0-0.9 0.2-1.7 0.8-0.3-0.4 0-1 0.3-1.3-0.1-1.1-0.1-0.8 0-0.7 0.2-0.3 0.5-0.3 0.1-0.6-0.2-1.5-0.3-1.7-0.3-3.2 0-3.5 0.1-1.3 0.5-3.1 2.4-0.2 3.3-2.3 2.2-0.5 3.2-0.1 1.1-0.3 0.5-0.4-0.1-0.3-0.3-0.5 0.1-0.4 1.1-3 7-10.2 5.9-8.1 0.7-2.5-0.2-0.2-2.6-0.6-0.7-0.3-0.7-0.6-0.5-1 0.2-0.6 2.6-0.8 0.8-0.5 0.8-1 5.5-7.8-0.4-4.1 1.2-3 0.7-1.2 0.9-0.8 1.2-0.8 2-2.4 0.7-1.3 0.1-0.9-0.2-0.3-0.2-0.1-1 0.4-0.6-0.5-0.7-1.1-0.5-2.7 0-1.3 0.3-1.3 0.6-1.2-0.2-1.3-0.4-0.9-0.5-0.6-0.4-0.2-0.6 0-0.7 0.2-0.6 0.3-0.3 0.4 0 0.6-0.1 0.5-0.2 0.5-0.3 0.3-0.4-0.1-0.6-0.4-3.2-4.6-1.2-1.2-0.7-0.5-6.2-8.8 7.7-6.4 12.7 17.6 1 2 2.3 1.3 2.8 4.2 0.3 2.1 0.2 0.7 3.5-1.8 1.8-2.1 0.5-0.9 0.5-1.3 0.5-1.4 0.5-2.7 0.6-1.4 0.8-0.9 0.6-0.2 0.6 0.2 0.5 0.7 0.4 0.2 0.5-0.2 1.5-1.7 0.4-0.8-0.1-0.6-1.3-0.5-0.7-0.4-0.5-0.5-4.2-8.7-0.8-2.2-1.4-9.9 16.2-1.6 10.1-4.1 4.6-2 1.9 0.5 0.6 0.7 0.1 0.4 0.1 0.3 0.2 1.7 1.3 1.9-0.4 1.1-2.1 2.6-1.1 0.9-2.6 1.3-0.4 0.5 0 0.8 1.2 1.9 0.4 1.1 0.3 1.3 0.1 1.9 0.5 3.1-0.2 1.5-0.6 1.7-1.4 3 0.1 0.8 0.7 0.3 1 0 2.1-0.4 10.3 3 16.1 1.5 1 6.6-1 2.4-1.9 1.6-1.1 0.6-1.3 0-0.7-0.4-0.3-0.4 0.1-0.8-0.3-0.2-1.2-0.3-1.5 1.3-0.2 0.9 0.6 1.3 0.5 3.1-0.1 4.3-2.3 9.7-0.5 4.7-0.1 7.7 0.4 4.3 0.8 2.2 0.5 1 0.6 0.6 3.5 1.3 1 0.6 1.7 1.4 0.9 1.5 0.6 0.6 0.7 0.2 0.9-0.1 0.6 0.2 0.6 0.5 0.5 0.6 0.5 0.4 0.8 0.4 0.8 0.6 0.4 0.5-0.6 2-0.8 7.3 0.4 1.1-0.7 1-1.8 1.9-1.5-0.1-1.7-0.7-2.9-0.6-0.9 0.6-2.2 2.6 0.7 8.6-0.4 4.1-0.5 2.5-0.9 1.3-0.8 0.3-2 0.1-3.5 0.3-8.2 7.3z m-2.3-111l-0.4-0.1-0.6 0.2-0.7-1.5 3-0.9 0.1 1.1-0.3 0.4-0.5 0.5-0.6 0.3z m-71.7 7.8l8.5 8.4 0.7 0.9 0.6 1.1-0.3-0.1-0.5-0.5-0.4-0.3-0.4-0.1-1.3 0.6-0.7 0.4-0.6 0.6-0.4 0.8 0.3 0.2 0.7-0.1 0.9 0.2 1.2 0.5 2.1 1.7 0.6 0.9 0 1-1.3 1.9-0.9 2-0.3 0.9-0.3 1-0.2 1-0.7 6.1 0.3 0.7 0.4 0.4 1.5-0.8 1.2 0.2 0.4 0.5-0.1 0.6-0.8 1.4-1.5 3.5-0.6 0.6-0.5 0.4-1.5 0.4-1.1 0.2-2.8-0.1-0.9-0.1-0.9-0.5-1-0.8-0.9-0.4-1.4 0.4-0.9 0.1-1.4 0.5-1.1 0.8-1.7 0.2-0.6 0-0.9-0.3-2.2-1-0.8-0.2-0.8 0-0.6-0.2-2.6-1.2-0.2-0.3 0.1-0.7 0.6-0.7 0.3-0.7 0.1-0.6-0.3-0.5-0.3-0.2-0.9 0.1-0.4-0.1-0.5-0.4-2.3-2.3-0.7-2.1-1-7.7 22-18.2z m-20.6 55.4l-1-0.5-0.5-1.9-1-1-0.9-1.5 0.5-1.4 1.4 0 1.3-1.7 1.7-1.7 1.3 0 1.2 1.2 0.1 2.2-0.3 2.2-1.5 1.9-1 1-1.3 1.2z m18.1-2.4l-1.8-0.8-1.7-0.7-2.3-1.2-1.5 0.5-2.3 2.2-1.7 0.2-1.3 0-0.5-1.2 0.6-0.7 1.2-1 1.5-0.7 2.2-1 0.8-1.9 1.8-2.5 1.2-1 1.3-1.9 0.9-1.2 1-0.7 1.1 1.2 0.7 1.4 1.3 0.5 1.7 1 1 2.2-0.7 2.2-1.5 2.9-1.5 1.4-1.5 0.8z" id="CHFR" name="Fribourg">
  </path>
  <path d="M531.7 329.7l-8.8 3.5-6.7 4.7-2.2 0.9-2-0.1-3.9-1.2-10.5-1.3-2.4 0.4-4.7 1.9-1.1 0.2-1.5-0.4-2.4-1.1-2.1-1.5-6.8-4.4-3.9-0.9-6.3-0.3 3.2-5.3-1-4.6-1-2.1-0.7-3 0.5-1.6 3.5-8 0.7-4.2 0.8-2.2 0.6-1.4 1.5-2.1 0.8-0.8 1-0.3 1.1-0.1 0.7 0.1 0.4 0.3 0.2 0.8 0.5 0.3 0.9-0.3 4.8-6.1 4.1-3.8 0.3-1.5-0.2-1.5-0.8-2.6 0.4-0.8 3.4-2.2 11.2-1.1 3.4-0.8 1.2-0.5 1.1-0.7 0.8-0.3 0.8 0 7.7 2.4 0.7 0.4 0.5 0.8-0.3 1.5-0.3 1.2-0.6 1.4-0.6 1-0.6 1-0.5 1-0.3 1.9 1 1.4 1.3 1.1 4.7 2.2 1 1 0.4 1.2 0 7.9-0.3 1.3-1 3.4-0.2 5.9-0.3 2.8 0.5 7 4.1 5.7 4.2 2.5z m15.8 6l-4.1-1.4-1 0-2.7 0.5-1.3 0.8-2-1.6 5.8-1.9 0.5-0.5-0.4-1-0.6-0.6-3.2-1.3-0.7-0.7-0.6-0.8-0.8-1.4-0.7-0.8-0.3-0.4-0.2-0.3-0.1-0.4-0.2-1.3-0.2-0.6-1.5-1-0.5-0.4 0-0.8 0.1-1-0.1-1-1.1-3.7-0.3-1.4-0.4-3.5-0.7-1.4-0.1-1 0.8-1.4 0.8-0.6 0.7 0.2 1.1 1.6 0 1.1 0 0.8-0.2 0.7 0 0.3 0.4 0.1 0.7-0.3 3.9-2.5 0.9-0.1 0.9 0.5 0.8 1.7 2.1 1.7 9.8-0.4 2.1-0.2 0.7 0.5 1.7 0.4 0.5 0.6 0.4 0.6 0.1 0.5-0.2 0.7-0.6 0.9-1.5 1.7-1.1 2-1.2 3.8-0.5 2.1-0.8 1.8 0.4 1.2 0.5 0.4 0.6 0.4 0.2 0.7 0.2 1 0.3 1.5-0.2 1.5-0.4 1.4-6.5 2z" id="CHOW" name="Obwalden">
  </path>
  <path d="M757.1 150.9l-1.1 7.5 1.4 4.5-6.5-0.2-21.4-10.1-1.3 1.2 0.1 2.2-0.2 3.7-1.1 2.9-1.1 2-1.7 2-2.9 2.4-0.7 1.8-0.6 6.9 0.4 2.6 0.7 1.8 1.6 2 0.6 1 0.4 0.9 0.8 2.3 0.3 1.3 1 3.1-3.4 0.9-0.7-0.1-0.5 0.1-2.1-1.6-6.2-3.5-10.1-1.3-1.8-0.5-0.8-0.5-1.5-1.8 2.3-2.8-1.4-6.7 0.1-1.8 0.4-1.2 1.3-1.4 0.7-1.1 0.9-1.6-0.3-1-0.7-0.5-0.8 0-2 0.5-2.7-5.2 0.3-0.6 2.5-2.3 1.6-2.7 1.9-4.4 1.1-1.8 0.7-0.9 1.8 0.4 7.2-1.1 1.4 0 3.3 1.1 9.1-1.9 7.3-1.2 4.4 0.1 2.4-0.8 1.2-1.4 0.4-1.5 0.6-1.8 1.1-1.9 2.4-0.5 1.7-0.7 10.1-4.5 4.2-3.9 1.1-0.6 0.8 0 0.5 0.3 0.4 0.2 1.7 0.4 0.6 0.3 1.4 1.2 0.6 0.4 3.1 1.3 8.2 1.4-5.2 2.2-3.1 0.6-3.8-0.2 0 1.2 0.3 0.6 6.4 3.2 0.3 2.7-8.6 5.4-0.4-4.2 1.1-1.1 0-1.4-0.2-1-0.8-1.2-0.9-1-1.3-1-0.8 0.2-0.7 0.5-0.5 0.6-0.8 0.6-0.6 0.4-0.2 0.7-0.1 0.5-0.2 0.5 0 0.2 0.3 0.3 0.5 0.5 0.3 0.7-0.4 0.6-2.4 1.1-2.1 1.2-0.6 3.3z" id="CHAR" name="Appenzell Ausserrhoden">
  </path>
  <path d="M781.6 134.2l-4.6 4.7-0.5 0.7-0.3 2.2-6.4-3.2-0.3-0.6 0-1.2 3.8 0.2 3.1-0.6 5.2-2.2z m-24.2 28.7l-3.4 16.9-4 7.4-2.8 3.2-2.9 2.1-3.9 2-5.7 2.2-1.3-0.1-1.8-0.4-1.4-0.9-1.7-0.7-2.7-1.9-1-3.1-0.3-1.3-0.8-2.3-0.4-0.9-0.6-1-1.6-2-0.7-1.8-0.4-2.6 0.6-6.9 0.7-1.8 2.9-2.4 1.7-2 1.1-2 1.1-2.9 0.2-3.7-0.1-2.2 1.3-1.2 21.4 10.1 6.5 0.2z m10.5-13l-2.8-1.5-2.6 0.4-5.4 2.1 0.6-3.3 2.1-1.2 2.4-1.1 0.4-0.6-0.3-0.7-0.5-0.5-0.3-0.3 0-0.2 0.2-0.5 0.1-0.5 0.2-0.7 0.6-0.4 0.8-0.6 0.5-0.6 0.7-0.5 0.8-0.2 1.3 1 0.9 1 0.8 1.2 0.2 1 0 1.4-1.1 1.1 0.4 4.2z" id="CHAI" name="Appenzell Innerrhoden">
  </path>
 </g>
 <g id="points">
  <circle class="45.91974083586691|6.18040008505608" cx="90.9" cy="583.6" id="0">
  </circle>
  <circle class="46.71191982632052|8.436308896476758" cx="545.5" cy="352.5" id="1">
  </circle>
  <circle class="47.70214356438753|10.241035945613303" cx="909.1" cy="58.8" id="2">
  </circle>
 </g>
 <g id="label_points">
  <circle class="Valais" cx="391.1" cy="504.4" id="CHVS">
  </circle>
  <circle class="Ticino" cx="619.6" cy="464.2" id="CHTI">
  </circle>
  <circle class="Graubünden" cx="799.1" cy="363.3" id="CHGR">
  </circle>
  <circle class="Schaffhausen" cx="569.3" cy="53.5" id="CHSH">
  </circle>
  <circle class="Thurgau" cx="679.7" cy="95.3" id="CHTG">
  </circle>
  <circle class="Zürich" cx="594" cy="147.3" id="CHZH">
  </circle>
  <circle class="Aargau" cx="495.6" cy="137.9" id="CHAG">
  </circle>
  <circle class="Basel-Stadt" cx="374.6" cy="100.4" id="CHBS">
  </circle>
  <circle class="Basel-Landschaft" cx="412.6" cy="138.1" id="CHBL">
  </circle>
  <circle class="Sankt Gallen" cx="722.1" cy="233" id="CHSG">
  </circle>
  <circle class="Solothurn" cx="365.3" cy="200.3" id="CHSO">
  </circle>
  <circle class="Jura" cx="281.3" cy="158.4" id="CHJU">
  </circle>
  <circle class="Genève" cx="84.2" cy="494.1" id="CHGE">
  </circle>
  <circle class="Vaud" cx="173" cy="372.9" id="CHVD">
  </circle>
  <circle class="Neuchâtel" cx="217.2" cy="265.1" id="CHNE">
  </circle>
  <circle class="Bern" cx="379.9" cy="328.5" id="CHBE">
  </circle>
  <circle class="Lucerne" cx="474.6" cy="238.8" id="CHLU">
  </circle>
  <circle class="Zug" cx="564.5" cy="220.9" id="CHZG">
  </circle>
  <circle class="Uri" cx="583.5" cy="322.9" id="CHUR">
  </circle>
  <circle class="Schwyz" cx="609.4" cy="252.4" id="CHSZ">
  </circle>
  <circle class="Glarus" cx="670.5" cy="274.9" id="CHGL">
  </circle>
  <circle class="Nidwalden" cx="538.2" cy="287.4" id="CHNW">
  </circle>
  <circle class="Fribourg" cx="277.8" cy="356.5" id="CHFR">
  </circle>
  <circle class="Obwalden" cx="501.2" cy="308.6" id="CHOW">
  </circle>
  <circle class="Appenzell Ausserrhoden" cx="712.3" cy="162.7" id="CHAR">
  </circle>
  <circle class="Appenzell Innerrhoden" cx="737.3" cy="176" id="CHAI">
  </circle>
 </g>
</svg>