<?xml version="1.0"?>
    
<!--********* Copyright (c) 2024 Pareto Softare, LLC DBA Simplemaps.com ***************************************
************* Free for Commercial Use, full terms at  https://simplemaps.com/resources/svg-license ************
************* Attribution is appreciated! https://simplemaps.com *******************************************-->

<svg baseprofile="tiny" fill="#6f9c76" height="1000" stroke="#ffffff" stroke-linecap="round" stroke-linejoin="round" stroke-width=".5" version="1.2" viewbox="0 0 1000 1000" width="1000" xmlns="http://www.w3.org/2000/svg">
 <g id="features">
  <path d="M345.3 98.6l0.3 0.3 2.5 5.1 0.9 1.5 0.6 2.3 0 1.2-0.3 1.8-0.1 0.9 0.1 0.9 0.4 0.9 1.2 1.3 0.8 0.6 4.4 1.3 0.2 0.9-0.6 3.1-0.1 1.8 0.4 2.5-0.1 0.7-0.4 0.5-0.6 0.4-11.5 6.3-5.6 1.8-1.6 0.3-0.8 0-1.1-0.1-1.1-0.4-1.6-0.8-1.6-1.5-1.5-2.7-5.2 0.9-1.9-0.1-3.9 0.6-2.5 1.3-1.6 2.1 1.1 1.3 0.1 0.7-0.1 1.1-0.4 1.2-1.2 1.9-0.6 1.4-0.3 1.8 0 1.2-0.4 1.2-0.3 0.8-3 2.8-1.1 1.3-2.4 3.7-0.3 0.7 0.1 0.7 0.7 0.6 0.8 0.3 0.9 0.2 18-0.6 0.8 0 0.8 0.2 0.7 0.4 0.6 0.4 0.5 0.8 1.1 2.7 0.6 0.9 0.6 0.6 0.6 0.4 0.5 0.5 0.4 0.6 0.4 0.9 0.8 3.6 0.4 0.6 0.8 1.2 0.2 0.7-0.1 0.9-0.8 1.4-0.7 0.7-0.6 0.9-0.5 1.5-0.4 2.7-0.7 2.3-0.1 1.3 0.6 0.9 1.3 0.8 0.6 0.5 0.4 0.6 0 0.9-0.3 0.9-0.7 1.2-0.4 1 0 1.4 0.4 0.8 0.4 0.7 0.2 0.6-0.1 0.7-1 0.8-0.6 0.8-0.5 1-0.2 1.6-0.3 1.2-2.1 2.7-0.4 0.6-0.9 2.4-1.6 7 2.5 1.6 0.9 0.8 1.3 1.7 1.9 1.7 0.8 0.5 0.4 0.4 0.2 0.9-0.1 1.2-0.5 1.9-0.6 0.9-0.7 0.6-0.7 0.3-0.6 0.4-0.4 0.5-0.3 0.8-0.3 1.7-0.3 0.8-0.4 0.6-0.4 0.4-0.4 0.5 0 0.6 0.2 0.9 0.6 1.6 0.2 1.1-0.2 1.2-1.2 1.9 0.1 1.8 0.5 2.7 1.6 5.9 2.1 3.7 0.5 0.5 0.4 0.5 0.9 1.2 0.6 0.4 0.2 1.5-0.1 2.3-1.6 8.1-0.2 2 1.2 2 0.2 1.1 0.1 0.8-1.2 4-5.2 3.1-3.4 1-1.3 0.6-1.8 1.2-1.7 0.6-5.6 1.3-1.4 0.8-0.9 0.8-0.2 0.9-0.4 1.1-0.9 1.3-0.3 1.1-0.1 1 0.1 2 0 0.1 0.7 6.4 0 0.9-0.3 0.9-0.5 0-0.5-0.3-1-0.9-0.7-0.4-0.9-0.3-1.6 0.1-1-0.1-0.8-0.3-0.6-0.5-0.7-0.4-1-0.2-4 0.9-2.3 0.2-0.9-0.1-0.8-0.1-0.7-0.3-0.7-0.3-0.6-0.5-0.4-0.5-1.6-2.3-0.5-0.6-0.6-0.3-0.8-0.1-2.4 0.2-0.9-0.1-0.6-0.4-0.5-0.3-0.4-0.3 0-0.1-0.1-0.1-0.4-0.2-0.7-0.4-1.3-0.3-0.9 0-0.7 0.4-0.4 0.3-0.2 0.3 0 0.1-0.3 0.5-1.2 1.6-1.8 1.1-2.2 2-2 1.5-3.5 1.1-1.9 0-0.3 0.3-0.1 0.6 0.3 0.6 0.6 0.3 1.1 0.1 1.4 0.4 0 0.8-0.9 1.7 0 1.9-0.3 1.5-0.7 1.3-1 1.2 2 0.8 1.2 1.7 0.6 2.2 0.1 2.6 0.3 0.8 1.3 2.5 0.3 1.1-0.4 1.1-1.2 1.2-0.3 1.2-0.2 2.4-1.7 6.9-0.2 5.3-0.5 2.8-1.3 2.6 1.9 0.1 1 0.5-0.2 0.7-1.7 0.7 1.8 1.3 1.5 2.7 1.1 2.9 0.7 5.4-4.6-4.2-1.2-2.1-0.5-1.4-0.4-0.8-0.8-0.9-1.3-1.1-3.5-2.4-1.1-0.5-1.5-0.5-1.3-0.6-1.2-0.7-1.9-1.9-3.8-5.2-1.4-2.5-0.7-0.8-1-0.8-3.1-2-1.6-0.8-1.2-0.8-6.2-7.3-5.2-3-0.5-0.3-0.5-0.6-3.9-6.2-1-1.1-8.2-7.2-4.4-1.5-2.6-1.3-1.2-0.8-1-0.9-0.9-1.3-6.4-12-3.5-4.9-1.7-0.4 0.2-0.1-1.7-2.2-5.9-3.3-3.2-2.5-1.5-1.6-1.9-3.6-1.2-0.2-1.4 0.6-1.8 0.3-7.2-2.9-0.1-5.2 5-12.4 0.5-3.3 3.7-11.4-0.7-1.3-5.9 0-3 0.7-5.3 3-2.9 1.1-2.6 0.2-3.2-0.1-3-0.6-2.3-1.3-2.4-2.5-8.2-11.7-1.1-2.3-0.6-2.5-0.5-3.3-0.1-3.1 0.2-1.4 5.2-37.2-0.7-3.1-2.6 0.3-0.6-0.2-0.6-1.3 0.4-0.6 0.7-0.1 0.2-0.4-0.2-0.8-0.3-2.5-0.5-0.8-0.8-0.2-0.8 0-0.5-0.3-0.5-1.2-0.5-1.4 0.2-1.3 3-1.1 1.7-1.4 0.6-1.4-1.8-0.7-1.4-1.6 1.5-3.6 2.9-3.8 2.6-2.5 7.2-2.7 3.3-1.8 2.7-3.5 0.5-2.1 0.7-1.9 1-1.8 1.5-1.6 2.6 1 1.2-0.1 0.6 0.4 0.6 0.1 0.8-0.1 0.7 0.4 0.7 0.1 0.7-0.3 0.5-0.5 0.3-0.2 0.7-0.1 0.2 0 0.4-0.2-0.1-0.3-0.3-0.4 0-0.2 0.8-0.4 0.1 0 0.7 0 0.4-0.5 0.1-0.3 2-1.7 1.3-0.9 3.6-0.5 1.4-0.5 1.3-0.8 1.3-1.2 2.9-3.6 0.1 0.3 0.2-0.2 0-0.6 0.2-0.2 0.3-0.5 0.3-0.1 0.4 0.1-0.4-0.6 0.3-1.1 0.3 0 0.2-0.4 0-0.3 0.1-0.2 0.3-0.1 0-0.1 0.2-0.1 1-0.7 0.7-1 0.5-0.3 0.5-0.2 0.4 0 0.4-0.4 0-0.4 0-0.4 0-0.1 0.3-0.4 0.1-0.3 0-0.3 0.9-0.4 0.2-0.1 0.5-0.1 0-0.3 0-0.2-0.4-0.2-0.4-0.1-0.2 0.2-0.2 0.2-0.1 0.1-0.5 0.1-0.6-0.1-0.1-0.1 0.7-1.3-0.3-0.4 0.4-0.3 0.1 0 0.6-0.2 0.2-0.1 0.6-0.1 0.3-0.3-0.1-1.2-0.3-0.7 2.4-1.4 0.5 0.1 0.3 0.1 0.3 0.2 0.5-0.1 0.2-0.2 0.3-0.4 0-0.6 0.2-0.5 0.3-0.4-0.2-0.4-0.3-0.6-0.3-0.3-0.4-0.1-0.7-0.8 0.3-0.1 0.2-0.7 0.6-0.3 0.7-0.8 0.3-0.6 1-0.4 2.6-0.6 0.9-0.2 0.8-0.5 0.4-0.5 0.1-0.6 0-0.2 0.3-0.6 0.3-0.8 0.3-0.3 1.7-1.1 1.2-0.6 0.5-0.5 0.3-0.2 5.1 3.1 3.2 0.4 1.5-0.2 1.6 0 0.1 0 0.8 0.3 0.4 0.2 1.1 0 0.6-0.3 0.3-0.6 0.3-0.9 0.2-0.7 0.5-0.8 0.1-0.1 0.3-0.4 0.5-0.3 0.2-0.6 0.6-0.7 1.1-0.4 1 0.3 1.3 0.2 0.8 0 0.5-0.1 0.8 0.3 0.3 0.1 1.1 1.1 0.7 1.7 0.2 1.6-0.2 1.6 0.1 1.2 0.6 1.5 2.4 3.9 0.2 1.6-0.4 1.4 0.2 0.9 1.8 0 1-0.2 0 0.3 0.4 0.3 0.4-0.1 0.2-0.8 0.1-0.1 3.1-1.2 1.9 0.2 0.1 0 0.1 0 1.1 0 0.8 2.2-0.9 5.9 0.1 3.2-0.2 0.3-0.4 0.1-0.5-0.1-0.3 0.2-0.5 0.3 0 0.4-0.1 0.4 0.3 0.1 0.3-0.1 0.3 0.5 0 0.3 0.5 0.1 0.2 0.1-0.2 0.4 0 0.3 0.5-0.1 0.3-0.3 0.4-0.2 0.3 0.2 0.2 0.5 0.3 0.4 0.5 0.2 0.4-0.2 0.4-0.1 0.2 0.1 0.1 0.3 0.5-0.2 0.5 0 0.1 0.4 0.4 0.2 0.9 0.1 0.7-0.2 0.7-0.5 0.8-0.9 0.2-0.3 4.6 0.1 11.2 1.8 13.9 3.9 2.4 1.4 1.7 2-0.4 0.7-0.2 0.7-0.2 0.8 0 1.1 0.4 0.5 1.1 0.3 0.6 0 0.4 0.4 0.3 0.8 0.8 0.5 1.2 0.2 0.9-0.1 0.3 0.3 3.5-0.1 3.3-1.2 2.9-2.2 1.8-3-0.4-3.7-1.3-1.6-1.9-1.1-1.5-1.3-0.3-2 1.3-4.3 0.3-0.3 0.4-1.2 0.2-1 0.4-0.3 0.5-0.3 0.7 0 0.2 0.3 0.4-0.3 0.1-0.5 0.1-0.5 0.4-0.4 0-0.5 0-0.6 0.3-0.3 0.5-0.3 0.3-0.2 0.3-0.5 0.1-0.4 0.5-0.4 0.1-0.3 0.1-0.5 0-0.5 0.5-0.2 0-0.1 0.6-0.1 8 1.1 1.4-0.2 0.1 0.1 0.4 0.1 0.8 0 0.2-0.2 0-0.3 0.7-0.3 0.1 0 0.2 0.3 0.2 0.3 0.2-0.4 0.1-0.4 0-0.2 0.4-0.2 0.2-0.1 0.7-0.2 0.4-0.2 0.3 0.2 0.1-0.4 0.6-0.4 0.5-0.2 0.5-0.1 0.1-0.2 2.8-1.3 1.8-0.2 0 0.2 0.1 0.6 0.6 0.1 1.3 0.5 2.7 0.5 0.7 0.2 1.3 0.2 0.2 0 1.3 0.5 0.8 0.4 0.8 0.5 0.6 0.4 0.1 0.1 0.5 0.4 0.7 0.1 0.7 0.1 0.5 0.3 0.4-0.1 0.6-0.1 0.8 0 0.7 0.2 0.4 0 0.3-0.5 0.4-0.8 0.6-0.2 0.7-0.2 0.3-0.7 0.4-0.4 0.2 0z" id="CIDN" name="Denguélé">
  </path>
  <path d="M675 205.7l0.9-1.1 1.9-3.6 0.3-1.8-0.4-3.4 0-1.2 0.8-1.3 4.3-4.5-1.7-0.6-0.6-0.1 1.9-1.7 2.4-0.9 5.3-0.7 2.6-1.4 4.1-5.8 2.5-1.9 2.4-0.3 8.1 2.4 1.4 0.8 0.9 0.3 0.8-0.2 0.3-0.7 0.1-0.7 0.1-0.4 2.2-1.1 1.2-0.4 4.5 0 0.9-2 0.6-2.4 2.1-1.1 3-0.8 5.3-3.4 2.6-0.8 0.3-0.1 9.3-0.2 2.7-0.8 1.2-0.9 2.3-2.4 1.4-1 2.1-0.6 6.8-0.9 1.1 0.2 1.8 1 0.9 0.2 0.8-0.4 1.3-1.7 0.5-0.3 1.9 0.6 1.1 1.1 0.9 1.1 1.5 1.1 2.4 0.5 8.4-1.1 22.2 1.8 1.8 0.7 2.5 2.3 1.5 0.8 1.3-0.5 1.6-1 1.5-0.6 0.6 1-0.1 2.9 0.2 2.9 1.5 1.8 3.3-0.3 2-1.9 4.8-6.9 2.1-1.5 1.8 1 0 2.8-0.3 3.4 0.6 2.8 2.5 1.5 3.2 0.1 3.2 0.7 2.9 3.5 1.7 6.9 1.4 3.3 2.5 2.1 2.5 0.1 4.9-1.4 2.7 0.6 2.2 2.3 1.7 3.3 2.5 6.6 7 13.8 14.1 18.8 3.2 2.5 3.4 0.3 2.7-2.4 3.4-7.3 4.4-4.2 0.7 0.9 1.2 1.5 0.2 2.1-0.6 4.5 0.2 1.1 0.7 2.4 0 3.9-0.7 2.4-1.7 1.1-1.2 0.6-0.7 0.3-0.4 0.5-1.1 1.4-0.2 2.7 1.1 2.2 2 1.5 0.1 0 1.8 0.4 0.5 0.1 2.3 1.3-0.2 1.7 0 1-1.7 2.7-0.3 0.1-2.7 1.5-1.5 0.8-0.6 0.9-1 1.7-0.9 1.7-1.6 3.3-1.1 1.2-1.9 1.9-0.6 1.2-0.3 7.2-0.5 2.2-1.4 2 1.4 0.8 0.9 1 1.1 0.7 2 0.4 3.6 0.1 3.6 0.8 3.5 2 0.4 1 0.5 1.1 0 0.1 0.2 3 2.1 6.4 0.2 0.1 0.7 0.3 0.7 0.1 0.6 0.6 0.4 0.3 0.1 0 0.3 1.2 0 1 0.2 1.5 2.6 9.1 0 0.2 0.2 0.6-0.1 2-1.5 0.8-1.1 1-0.3 1.8 0.1 0.3 0.6 0.8 0 0.1 1.3-0.6 0.6 2.2 6.5 40 6.5 39.9-0.9 2.2-3.4 2-1.1 0.7-1.9 1.1-1.9 0.6-1.6-0.1-1.8-0.9-1.2-0.1-0.9 0.9-1 1.9-0.6 2.2 0.1 0.7 0.3 1.1 1.8 4.1 0.9 3.4-0.1 2.5-1.4 1.9-2.9 1.5-8.4 2.8-2.6 1.8-6.5 7.5-2.3 2-0.2-0.5-0.7-0.8-0.9-0.6-0.9 0.1-0.4 1-0.6 10.6-0.5 1.6-1.1 1.2-2.7 1.6-0.5 0.3-1.2 1.2-0.1 0.7 0.4 1.9 0 0.7-0.6 1-1.4 1.7-0.5 0.9-10.2 21.9-1.9 5.8-6.9 43.6 0.1 1.7 0.9 2 1 1.2 0.6 1.1-0.1 2-1.1 2.4-0.2 0.3-1.3 1.7-5.1 6.4-0.7 1.5-1.2 7.1-0.7 1-3.2 1-1.1 0.4-2.7 0.9-0.2 0.1 0-0.1-0.2-2.6-5.8-11.3-1.7-1.8-2.2-2-4.8-2.9-3.1-2.5-1.7-1-10.3-3.2-3-0.4-1.8 0-1.1 1.9-0.9 1.2-0.5 0.4-0.7 0.1-0.8-0.3-2.3-2.7-1.5-1.3-0.5-0.6-0.4-0.6-0.3-0.7-2.1-7.2-0.6-0.7-0.8-0.8-1.8-0.9-0.9-0.5-0.7-0.3-0.7 0.2-0.6 0.1-1.2-0.8-0.9 0.2-2.3-0.7-0.5-0.1-0.7 0.2-4.5 1.4 2.1-3.3-0.2-3.2 2.3-1.2 0.4-2.3-0.9-5.8-0.4-0.1-3.1-4.6-0.5-1.1-0.6-0.9-1.2-0.6-1.5-0.2-1.9-0.6-1.6-0.8-1.2-0.8-0.2-1.4 2.8-2.7 0.8-1.7-1.2-4.2-2.8-0.7-5.6 1.5-1.2-0.8-0.8-1.3-0.8-1.3-1.7-0.5-0.5-1-0.1-2-0.5-2-1.7-0.9-3.5-0.7-1.6-1.6-1.3-4.6 1.1-3.3-1.8-1.6-3.1-0.3-2.8 0.3-0.9-1-1.1-0.6-1.4-0.1-1.5 0.7-1-2.9-1.5-1.4-2.2-0.5-3.1 0 0-1 1.5-0.7 0.2-1-0.8-2.8-0.4-0.6-1-1.2-0.2-0.9 0.6-0.9 0.8-0.8 0.3-0.8-0.7-2.5-0.8-1.5-0.6-1.1-1.9-1.4-1.8 1.6-1.5-1.2-4.2-1-2-0.7-2.3-1.3-0.1-0.5 1.3-0.3 1.9-0.9 2.5-2.1 1.1-1.4 0.4-1.3-1.1-2.7-1.4 0.1-1.4 1.1-1.4 0-2-0.4-2.4 0.7-2.1 0-0.8-2.3 0.8-6.5 0.7-5.2 1.5-3.5 2.4-1.9 3.2 1 0.6-0.6 1.1-1.5 0.3-0.8-1.8-1.6-5.4-6.7-1.5-0.8-1.4-0.1-1.1-0.4-0.4-1.7 0.5-1.7 2.1-3 0.4-1.7-0.9-1.4-3.3-2-0.7-1-0.2-1.4-0.6-2-0.1-1.4 1.5-0.2 7 0.1 2.1-0.4 1.1-1.5 0.3-1.5-0.2-1.4-0.7-1.1-1.5-1.6 0-0.4 0.6-0.4 0.4-1.3 0.2-0.5 0.4-0.4 0.4-0.6 0-1.1-0.5-0.6-0.6-0.1-0.5 0-0.4-0.2-0.7-1.1-0.9-0.8-0.3-1.2 1-1.8 0.4 0.4 1.9-0.3 3-1 0.9-2.6 0.6-1.9-1.3-2.8-5.2-2.9-0.3-2.6 0.8-0.7 2.4-0.8 1.1-1.9 3.9-3 0.3-2-0.9-3.1-0.6-0.8-0.8-2.1-1.4-1.2 1.5-5.2 1.4-1.9 2.4-0.8 4.2-0.1 1.9-0.5 1.2-1.3-2.2-0.6 0.4-1.3 2.7-2.1 3.6-5.8 0.8-0.9 1.8 0.5 1.4 0.7 0.9-0.6 0.3-3.1-0.6-1.9-1.6-1.7-2-1-1.7 0.2-0.3-0.6 0.1-0.1-0.1-0.1-0.6-0.2 0.8-0.9 0.3-0.6 0.5-0.3 1.3-0.2 0-1-2.7-2.3-4.2-5-2.3-2-2.2-3.4 1.1-2.5 3-1.9 3.4-1.5 1.9-0.3 2.1 0 1.5-0.6 0.3-2-1.1-1.5-2.1-1.3-2.3-0.9-5-1.2-1.1-2.4 0.5-3.1 1.4-3.3 1.3 2.1 1.6 1.8 1.1-0.3-0.1-3.6-0.9-2.2-1.7-0.1-2.3 0.9-2.9 0.4 0.3-0.5 0.1-0.1 0.1 0 0.6-0.3-2-2.2 1.7-4.8-2.2-0.9-4.3 0.3-1-0.3-0.6-1.1-0.3-1.6-0.4-1.5-1.1-0.7-1.6-0.3-2.8-1.4-5.8-1.2-3.8-2.5-3.9-3.4-0.7 0.7-0.9 0.1-1 0-1.3 0.1-2.2 0.7-2.6 1.4-0.9 1.1-0.1 1-0.3 0.5-1.7-0.7-0.5-0.5-0.6-1.1-0.6-1.3-0.2-1.1 0.3-2.3 0.7-1.5 0.4-1.6-0.4-2.4-0.4-0.6-0.6-0.4-0.5-0.6-0.4-1.3 0.1-1.2 0.3-0.9 0.3-0.8 0.2-0.5 0.1-1.4 0.8-1.5 0.1-1.1-0.3-1.1-1.3-2.3-0.7-4.7-1.1-2-3.8-3.6-0.9-1.2-0.5-1-0.1-1.2 0-1.5-0.4-1.6-0.8-0.8-1.1-0.6-1.1-0.8-6.3-8.5-1.7-0.7z" id="CIZZ" name="Zanzan">
  </path>
  <path d="M758.7 823.9l0.1 0 1.8-2.2-0.8-1.3-0.7-0.3-1.1-0.7-1-1.7-1.4-4-0.3-0.8-0.3-2-0.5-1.1-1.1-0.8-1.6-0.2-1.5 0.6-0.9-0.6-1.3-0.4-0.8 0.1-0.4-0.2 0-3 0.7-4.5 0-1.4-0.7-2.3-2.3-1.5 0-1.5-0.7-2.2-3-2.2-1.5-1.5-1.4-2.3-1.5-0.7-1.5-1.5-3 0 0-5.2 0-5.3-0.7 0-3.7 0.8-4.5 3-3.7 0-3 1.5-8.2-0.8-3.7 0.8-2.2-0.8-9.7-1.5-6.6 0 0 1.5 0 6 0 3.7 0.7 2.3 0.7 3.7-3.7 3.7-2.2-0.7-1.5 4.4 0.8 3.8-2.3 6.7-0.7 6 1.1 1.6-0.3 0.3-1.1-1-1.3-0.6-1 0-0.9 2.2-2.3 1.8-1.1 1.4-1-1-1.7-1.3-1.8-1.1-1.3-0.4-1.4 0.8-1.5 1.3-1.5 0.5-1.4-1.7 0.4-0.3 0.2 0 0.1-0.1 0.3-0.5-5.2 0.2-2 1-0.6 2.6 1.4-0.7 1.2 0.2 0.9 1 0.5 1.5-2.7-0.7-10-0.4-0.6-1.4-0.7-1.1-1.5-2.2-0.8 1.3-0.1 1.1 0.6 0.9 1.1 0.5 0 0.9-2.5 0.5-1.9 0.9-3.3 2.6-2.6-1.7-3 0.2-2.6 1.2-1.4 1.2-1 0-0.9-0.4-1.2-0.7-1.1-0.9-0.6-0.9 1.6-0.7 1.4 0.2 1.6 0.4 2 0.1-0.3-1.3-0.4-0.9-0.8-0.5-1.3-0.2 0-1 1.5-0.7 0.9-1 0.4-1.4 0-1.7-0.8 0-1.8 3.3-2.3 1.7-3 0.7-3.6 0.1 3.8 2.9-2.8 2.5-5.3 2.2-3.4 2.1-0.9 2.1 0.2 1.3 1.3 0.8 2.3 0.6 2.5 0.2 2.5-0.5 1.4-0.9-0.7-1.6 0-1 3.6-1 1.8-1 0.6 0.7 0.7 0.9 1.1 0.4 1.8-0.5 2.8-1.2 2.2-0.3 4.4 0 1.3 0.3 0.9 0.6 0.6 0.7 0.5 0.4 2.1 0.3 1.4-0.2 3.3-1.1-1.4 0.2-1.7-0.2-1.4-0.6-0.4-1.3 0.9-0.8 4.9-1.2 0 2 1.1 0 3.1-1.5 8.3 0.5 4.1-1.9 0.6 2.1 1.1-0.9 1.2-1.9 0.9-1.3 2.6 0.1 2.2 1 2 0.5 1.8-1.6 2.7 1.1 2.7-0.5 2.8-1 4.6-0.8 2.9 1.5 2 5-15.4 1.2-44.1 3.7-23.1 5.2-12.8 1.1-2.5 1-1.5-0.8-1.6-0.3-7.7-0.1-1.8 0.2 0-0.9 0.5 0 0.9 0 0.5 0 0-1-4 0.1-0.9-1.7 0-2.6-0.9-2.6 1.8-2.2-1.8-0.5-7.7 1-0.3 0.1 1.6-2.9-0.8-6 0-8.9 0.8-6.7 3.7-6 2.2-9.7 3-3.7 0-6-2.2-3.7 0-2.3 2.2-6 0-3.7 5.2-10.4 3.7-8.2-1.5-4.5-1.5-1.5 0-0.8-0.7-1.5-5.9-2.9-3-3.8-0.8-6.7 0-4.5 0-5.2 3.8-3 1.4-4.5 0-5.2-1.4-3-3.8-0.7-4.4-0.8-3.7 0-4.5 0-5.2 0-3.7-3-3.7-4.5-3.7-2.2-1.5-3 0.7-2.2 1.5-6 2.2-9-2.2-1.5-2-0.5 2-0.2 3.7 0 2.3 0.7 5.9 5.3 5.2 4.4 3 2.3 5.2-0.8 5.2-1.5 5.2 0 4.4 0 3 0-1.5 4.5 3.7 1.5 5.2 0.8 6.7 0.7 5.9 0 0.8 0 3-0.7 5.2-3.8 5.2 0 8.1 0.8 11.9 4.5 3.7 0 3 0 3.7 0 3-0.8 1.5-2.2 1.5 0 5.2 0 0 3.7 5.2 2.3 7.4 0.7 5.9 4.5 1.5 0 0.7-0.8 2.3-2.2 5.2 0 5.9 0 1.5-3-1.5-9-0.7-2.9 0-4.5 0-2.3 0-3.7 0.7-5.2 2.2-2.3 2.3-4.5 0-3.7 2.2-5.2 5.9-1.5 2.3 0 2.9-1.5 1.5 0 1.5 0 5.2-0.8 3 3.8 5.2-1.5 3.7-1.5 5.9-3 7.5-3 1.3-3.5-0.3 0.1-0.4-0.9 4.6-1.7 3.7 2.3 1.5-2.3 2.2-2.2 1.5 3-0.8 2.9 2.3 6 0.7 0.8 0.7 2.2 3 8.2 0 5.3 0 3.7 1.5 1.5 0 1.5 1.5 0 5.2 3.7 2.2 0.8 0-0.8 1.5 0 1.5-2.9 2.2 2.9 1.5 3 2.2 4.5 2.3 3 2.2 3 3.7 3.7 0.7 3 0 0.8-2.2 0.7-3 0 2.3 0.8 0 2.2 2.2 4.5 4.5-3 0.7 5.2 3 3-1.5 0 0 0.8 0 1.5-0.8 1.4-0.7 0 0.7 2.3 1.5 2.2 2.3 0-1.5 3-0.8 0-1.5 3-0.7 6-0.7 2.2-0.8 1.5-3 1.5 2.3 3.7-0.8 2.3 3 2.2-1.5 4.5 7.4-3 4.5-0.7 0.7 0.7-5.2 8.2-2.2 2.3-1.5 2.2-2.2-1.5-2.2 2.2 0 2.3 0 1.5 2.9 1.5 1.5 1.5 0 3.7 0 1.5 0 3.7 0 6 0 3.7-2.9 1.5-6 3-4.4 2.2-4.5 0-5.2 1.5-1.5 2.3-1.5 1.5-0.7 9.7 0.7 4.4 0 4.5-0.7 3 0 3.7-2.2 3.8-3.8 0.7 0 2.2 0.8 3 1.5 2.3-5.2 3-2.3-3-1.4 2.2-1.5 0.8-0.8 0-0.7 0-3 0-2.2-1.5-0.8-1.5 0-0.1z m-243 9l3.9 2.3 3.7 0.7 7.2 3-0.9 2.7-0.9 1.8-4.8-6.8-1 0-0.1 0.4 0.1 1.5-1.9-1 2.1 4 5.8 2.7 6.9 0.7 5.6-1.5-2.3-1.7-2.4 0.1-2.5 0.4-2.6-0.7 0-1 1.5 0.1 1.1-0.2 1.1-0.4 1.1-0.5 0.7-0.6 1.8-1.9 0.5-0.4 2.1 0.4 2.4 1.2 2.3 0.6 1.9-1.3 1.7 1.1 1.8 0.4 1.4-0.6 0.9-1.8-2.6 0.4-1.1-1.2-1-1.5-2-0.6 0-1 1.9 1 4.7-0.7 8.5 5 3.7-1 1.5-1.2 0.5-0.3 0.1 0 1.7-0.3 4.9 0.5 0.6 1.1 0.8 2.4 1.2 2.6 1.7 1.6-35.6 1.1-5.5 2.1-19 1.1-4.5 0.2 0-4.5 0-6 0-2.2 1.3-2.3z" id="CILG" name="Lagunes">
  </path>
  <path d="M675 205.7l1.7 0.7 6.3 8.5 1.1 0.8 1.1 0.6 0.8 0.8 0.4 1.6 0 1.5 0.1 1.2 0.5 1 0.9 1.2 3.8 3.6 1.1 2 0.7 4.7 1.3 2.3 0.3 1.1-0.1 1.1-0.8 1.5-0.1 1.4-0.2 0.5-0.3 0.8-0.3 0.9-0.1 1.2 0.4 1.3 0.5 0.6 0.6 0.4 0.4 0.6 0.4 2.4-0.4 1.6-0.7 1.5-0.3 2.3 0.2 1.1 0.6 1.3 0.6 1.1 0.5 0.5 1.7 0.7 0.3-0.5 0.1-1 0.9-1.1 2.6-1.4 2.2-0.7 1.3-0.1 1 0 0.9-0.1 0.7-0.7 3.9 3.4 3.8 2.5 5.8 1.2 2.8 1.4 1.6 0.3 1.1 0.7 0.4 1.5 0.3 1.6 0.6 1.1 1 0.3 4.3-0.3 2.2 0.9-1.7 4.8 2 2.2-0.6 0.3-0.1 0-0.1 0.1-0.3 0.5 2.9-0.4 2.3-0.9 1.7 0.1 0.9 2.2 0.1 3.6-1.1 0.3-1.6-1.8-1.3-2.1-1.4 3.3-0.5 3.1 1.1 2.4 5 1.2 2.3 0.9 2.1 1.3 1.1 1.5-0.3 2-1.5 0.6-2.1 0-1.9 0.3-3.4 1.5-3 1.9-1.1 2.5 2.2 3.4 2.3 2 4.2 5 2.7 2.3 0 1-1.3 0.2-0.5 0.3-0.3 0.6-0.8 0.9 0.6 0.2 0.1 0.1-0.1 0.1 0.3 0.6 1.7-0.2 2 1 1.6 1.7 0.6 1.9-0.3 3.1-0.9 0.6-1.4-0.7-1.8-0.5-0.8 0.9-3.6 5.8-2.7 2.1-0.4 1.3 2.2 0.6-1.2 1.3-1.9 0.5-4.2 0.1-2.4 0.8-1.4 1.9-1.5 5.2 1.4 1.2 0.8 2.1-2.1 0.4-1.4 0.4-2.2 0.8-0.7 0.1-0.8-0.2-0.7-0.7-1.4-1.6-0.4-0.3-0.5-0.2-2.2-0.6-1.8 0-1.2 0.1-2.4 0.6-1.3 0.1-1.7-0.2-3.1-0.7-1.6-0.1-1.2 0.1-0.8 0.2-0.8 0.1-0.9 0-0.9-0.2-1.1-0.9-1.1-1.3-0.7-0.4-0.9-0.2-1.4 0.1-0.9 0.3-1.6 0.6-0.7 0.2-0.9-0.1-0.9-0.3-1-0.9-0.5-0.8-0.7-1.5-0.7-0.7-2.8-1.6-0.8-0.8-0.5-0.9-0.3-1.7-0.3-0.6-0.7-0.5-0.9-0.3-1.6 0-1.1 0.2-3.3 0.7-0.9-0.1-0.7-0.3-0.7-0.8-0.4-0.8-0.2-0.8-1.2-8.6-0.4-1.5-0.4-0.6-0.4-0.6-1.1-0.9-2.5-1.4-0.5-0.4-0.5-0.6-1.4-2.5-1.2-0.7-2-0.8-4.8-1.1-1.9-0.8-1.2-0.8-0.7-1.2-0.5-0.6-0.5-0.4-5.1-1.9-1.2-0.4-1 0-1.7 0.6-1.7 0.9-51.5-1.7 0-5.3 1.1-0.7 1-0.4 1.1-1.1 1.8-2.7 0.6-1.5 0.2-1-0.1-0.2 0-0.1 0-0.1 1.8-13.1 0-1.6-0.2-1.2-0.4-0.6-0.5-0.4-0.6-0.4-1.4-0.2-1.1-0.7-0.6-0.3-2.2-0.3-0.6-0.3-1.6-1.4-1.3-0.6-0.8-0.3-0.7-0.6-0.7-0.9-1.7-4.2-0.3-0.6-0.5-0.6-1.4-1.3-0.5-0.7-0.8-1.4-0.3-1.1-0.1-1 0-2-0.5-4.4-0.4-1.6-1.6-0.9-2.1-0.6-14.5-2.4-1.1 0.2-0.7 0.5-0.8 1-1.1 1.1-0.5 0.4-0.6 0.3-0.8 0.2-0.9-0.1-1-0.3-1.2-0.8-0.5-0.7-0.4-0.8-3.5-8.2-0.8-1.3-0.8-0.8-0.9-0.2-1.7 0-6.4 1-3.1-0.7-4.8 5.7-2.1 3.8-0.8 3.8-0.4 4.6-1.4 4.2-2.7 2.6-4.3-0.2 1.9 2.1 0.9 2.1 0 2.5-1.8 6.3-1.4 3.2-2.2 2-3.2-0.6-0.2 3.8 8.5 5.6 2.3 4.3-1.3-0.5-1.4-0.4-1.5-0.1-1.5 0.1 0 0.9 0.9 0.4 2 1.6-3.5 2.2 0.8 5.5-3.6 1.1-0.9 0.7 1.4 1.6 2.1 1.4 0.8 0.3 0.3 1.8-1.1 1.4-0.9 0.3-1.5 0.5-1.3 0-0.8 0.5-0.8 0.1-1.5-0.2-1.4-0.7-1.1-0.2-0.9-0.1-2.5 0.2-1.6 0.3-0.7 0.3-0.6 0.3-0.6 0.4-2 1.9-0.5 0.5-0.6 0.3-1.3 0.6-0.7 0.3-0.7 0.1-0.8 0-1.6-0.3-2.6-0.3-0.8-0.2-1.1-0.8-0.8-0.2-0.9 0-1.1 0.3-0.8 1-2 5-1.4 5.1 0 1.2 0.1 0.8 0.5 0 0.7-0.6 0.4-1.1 0.6-0.5 0.8-0.2 0.7 0.3 0.5 0.4 0.4 0.6 0.5 1.5 0.3 0.6 1.4 0.7 0.4 0.5 0.1 0.8-0.5 0.5-0.7 0.2-1.5 0-0.9 0.6-0.1 0.6 0.2 0.7 0.4 0.5 0.3 0.8 0.2 0.9-0.5 2.6 0 1.1-0.3 1.2-0.6 0.3-0.6 0.2-0.2 0.5 0 2.3 0.2 0.8 0.4 0.5 1.4 1.5 0.5 0.3 0.7-0.1 1.1-0.8 0.7-0.3 0.7-0.1 0.8 0.1 0.7 0.2 0.7 0.3 0.6 0.3 0.5 0.6 0.4 0.7-0.1 4-0.1 0.8 0 0.8 0.1 0.8 0.3 0.5 0.5 0.4 0.5 0.4 0.6 0.3 0.7 0 0.7-0.2 0.7 0 0.6 0.5 0.2 0.8 0.1 1.2-1.2 1.1-18.6-4.5-29.1-10.7-1.1-0.7-21.5-33.7-2.5-5.2-0.2-0.8-0.2-1.8-0.3-1.3-0.5-0.7-0.7-0.5-2.7-1.3-9.2-6-0.1-0.1-0.3-0.4-0.3-0.6-0.7-2.1-0.4-0.8-1.5-2.1-0.6-1.4-0.3-0.7-0.1-0.8 0-0.8 0.1-0.8 0.2-0.8 2.1-4 0.8-1.1 1.6-1.4 0.4-0.6 0.4-0.7 0.1-0.8 0-0.8-0.1-0.9-0.6-1.2-3.4-4.3-3-1.8-1.6-0.3-1.1-0.1-0.8 0-2.8-0.8-3.8 0.8-1.5 1-0.3 0.6-0.6 1.5-0.8 3.2-0.9 1.5-0.7 0.6-1 0.2-1.1 0-1.6 0.7-0.8 0.7-2.6 3.5-2.8 3.3-1.5 1.2-1.3 0.6-0.8-0.2-0.6-0.3-0.6-0.5-1-1-0.8-1.1-0.7-1.3-1.2-3-0.5-1.1-0.8-1.2-1.5-1.4-0.8-0.3-1.1-0.3-2 0-1 0.3-0.9 0.3-0.5 0.4-0.4 0.6-0.4 0.6-0.1 0.8 0 0.8 0.2 0.7 1.2 2.6-0.2 1.1-0.9 1.3-2.4 2.1-1.5 0.8-1.3 0.5-12-0.9-0.8-0.3-0.5-0.3-1.1-1-1.6-1.8 0.1-1.4 1.2-0.9-5.1-0.7 1.2-4-0.1-0.8-0.2-1.1-1.2-2 0.2-2 1.6-8.1 0.1-2.3-0.2-1.5-0.6-0.4-0.9-1.2-0.4-0.5-0.5-0.5-2.1-3.7-1.6-5.9-0.5-2.7-0.1-1.8 1.2-1.9 0.2-1.2-0.2-1.1-0.6-1.6-0.2-0.9 0-0.6 0.4-0.5 0.4-0.4 0.4-0.6 0.3-0.8 0.3-1.7 0.3-0.8 0.4-0.5 0.6-0.4 0.7-0.3 0.7-0.6 0.6-0.9 0.5-1.9 0.1-1.2-0.2-0.9-0.4-0.4-0.8-0.5-1.9-1.7-1.3-1.7-0.9-0.8-2.5-1.6 1.6-7 0.9-2.4 0.4-0.6 2.1-2.7 0.3-1.2 0.2-1.6 0.5-1 0.6-0.8 1-0.8 0.1-0.7-0.2-0.6-0.4-0.7-0.4-0.8 0-1.4 0.4-1 0.7-1.2 0.3-0.9 0-0.9-0.4-0.6-0.6-0.5-1.3-0.8-0.6-0.9 0.1-1.3 0.7-2.3 0.4-2.7 0.5-1.5 0.6-0.9 0.7-0.7 0.8-1.4 0.1-0.9-0.2-0.7-0.8-1.2-0.4-0.6-0.8-3.6-0.4-0.9-0.4-0.6-0.5-0.5-0.6-0.4-0.6-0.6-0.6-0.9-1.1-2.7-0.5-0.8-0.6-0.4-0.7-0.4-0.8-0.2-0.8 0-18 0.6-0.9-0.2-0.8-0.3-0.7-0.6-0.1-0.7 0.3-0.7 2.4-3.7 1.1-1.3 3-2.8 0.3-0.8 0.4-1.2 0-1.2 0.3-1.8 0.6-1.4 1.2-1.9 0.4-1.2 0.1-1.1-0.1-0.7-1.1-1.3 1.6-2.1 2.5-1.3 3.9-0.6 1.9 0.1 5.2-0.9 1.5 2.7 1.6 1.5 1.6 0.8 1.1 0.4 1.1 0.1 0.8 0 1.6-0.3 5.6-1.8 11.5-6.3 0.6-0.4 0.4-0.5 0.1-0.7-0.4-2.5 0.1-1.8 0.6-3.1-0.2-0.9-4.4-1.3-0.8-0.6-1.2-1.3-0.4-0.9-0.1-0.9 0.1-0.9 0.3-1.8 0-1.2-0.6-2.3-0.9-1.5-2.5-5.1-0.3-0.3 0.7-0.2 0.8-0.2 0.4-0.2 0.1-0.2-0.4-0.8-0.1-0.6-0.3-0.8 0-0.5 0-0.3 0.6 0.1 0.3 0.3 0.1-0.4-0.1-0.3-0.5-0.2-0.5-0.2-0.3-0.8-0.1-0.3 0.3-0.2 0.6-0.2 0.5-0.2 0.8-1.1 0.5-0.6 0.2-0.4 0.1-0.4 0.4-0.3 0.2-0.9 0.1-0.9 0-0.4-0.4-0.1-0.5 0-0.5-0.1-0.6-0.2-0.1-0.2-0.1-0.2 0-0.3 0.4-0.4 0.1-0.3-0.5-0.3-0.2 0-0.5 0-0.5-0.2-0.3 0.2-0.6 0.1-0.5-0.6-0.8-0.9-0.3-0.3 0-0.3-0.4-0.1-0.2 0.2-0.2 0.1-0.2 0-0.3-0.2 0-0.1 0.3-0.4 0.1-0.3 0-0.5 0-0.3 0.4-0.4 0.1-0.4-0.3-0.2-0.4 0-0.4-0.1-0.1-0.2-0.2-0.3 0.1-0.3 0.4-0.2-0.1-0.5-0.2-0.3 0.3-0.6 0.5-0.2 0.4-0.5 0-0.4-0.5-0.2-0.2-0.3-0.3-0.7-0.2-0.6 0-0.6 0-0.3 0-0.1 0.1-0.6 0.2 0 0.7-0.4 0.7 0.1 0.2 0.2 0.3 0.2 0.6-0.2 0.1-0.4-0.6-0.5-0.4-0.7-0.3-0.7 0.4-0.8-0.1-0.6-0.3-0.8-0.1-0.5 0.3-0.6 0.3-0.7 0.4-1 0-0.5-0.4-0.2-0.2-0.2-0.3-0.3-0.4-0.2-0.4 0-0.2-0.2 0-0.3 0.1-0.4 0.2-1 0.5-0.5 0.5-0.3-0.1-0.4-0.3-0.5 0-0.3-0.1-0.1 0.4-0.5 0.4-0.4 0.6-0.4 0.7-0.2 0.8-0.1 0.6 0 0.3-0.4 0-0.1-0.4 0-0.3 0-0.3 0-0.3-0.2-0.3-0.4 0.2-1.1 0.3-1.2 0.4-0.6 0.4-0.2 0.2-0.1 1.5 1 2.9 5 2.1 1.9 2.9 2 5.7 3.1 2.3 0.8 7.7 1.5 2.9 0.2 3.5-0.6 2.6-1.8 0.5-3.4 0-0.1 0.1-0.1 0-0.5-0.1-0.3-0.1-0.2-0.1-0.5-0.5-1.4 0-0.1 0-0.4 0-0.2 0-0.2-0.6-1.3-0.4-2.9-0.1-2-0.3-2.5-0.1-1.3 0-0.3 0.7-0.3 3.1-0.2 2.9 0.5 1.1 0 0.4 0.2 1.1 0.4 1 0.5 0.6 0 0.8-0.1 0.9 0.4 0.8 0.3 0.4-0.1 1.1-0.9 1.8-1.5 1.5-1.4 2-1.5 1.5-1.1 0.7-0.1 1.5 0.8 0.2 2-0.7 5.9 0.4 1.1 2.6 1 1.5 0.8 1.3 1.1 0.5 1.2-0.5 1.1-0.3 0-0.7 0-0.2 0-0.3 0.5-0.4 0.4-0.5 0.4 0 0.5-0.8 0.3-1.1 1.3 0.8 2 0.4 1.7-0.2 1.7-0.9 1.2-2.6 2.1-0.7 1.2 0 2.2 0.7 0.3 1.2-0.3 0.7 0.1 0.3 0.1 0.4 0.1 0.6 0.6 0.8 1 0.8 0.8 0.9 0.3 1.6-0.2 0.6 0 0.1 0.1 0.2 0 0.5 0.2 0.3-0.1 0.3 0.2 0.6 1.5-0.2 0.8-1.5 2.6-0.3 1.2 0.5 1.4 2.3 2.7-2.2 4.5-0.4 2.6 2.1 1.7-3.4 3.9 0 0.5 0.4 0.8 0.2 1-0.1 0.2-0.4 0-0.9 0.1-0.5 0.4-0.2 0.1-0.1 0.1-0.3-0.1-0.6-0.6-0.4-0.2-1.7 1.9-0.4 1.9 0.5 5.4 2.1-0.5 1.6 1.1 2.7 3.3 1.9 1.2 10.7 3.9 12.6-0.1 0.2-0.2 1.3 0 0.6 0 0.5 0.2 0.5-0.3 0.7 0 0.4-0.1 0.2-0.3 0.4-1 1.1-1.7 1.4-1.7 0.6-0.9 0.4-0.7 0.5-0.9 0.1-1.1 0-0.8 0-0.7-0.2-0.5-0.1-0.5-0.1-0.5 0.1-0.3 0.3-0.2 0.1 0.4 0.2 0.5 0.9-0.1 1.1-0.4 0.4-0.1 2.4 0.8 0.5 0.5 0.5 0.5 0.8 0.1 0.6 0.3 1-0.2 0.7-0.2 0.5-0.5 0.3-0.5 0.4-0.5 0.2-0.4-0.3-0.9-0.4-0.8-0.8-0.7-0.1-0.8 0.4-0.7 0.9-0.6 0.9-0.4 0.5-0.5 0.1-0.6-0.2-1.1-0.3-0.6-0.1-0.5 0.5-0.9 0-0.6-0.2-0.6-0.1-0.4 0.4-0.6 0.3-0.5-0.1-0.5-0.3-0.5 0.4-0.4 0.2-0.5 0.1-0.2 0.9 0.1 0.7 0.1 1-0.2 0.8-0.3 0.8-0.7 0.1-0.5 0.7-0.3 0.7-0.2 0.4-0.3 0.1-0.7 0.5-0.9 0.8-1 0.5-0.8 0.8-0.6 6.7-1.5 0.4 0.2 1.1 0.2 0.8-0.1 0.3 0 1.1-0.2 1.4 0 1.4 0 0.9-0.2 0.8-0.3 1.7-1 1-1 0.1 0 7.3-0.8 0.5 0.3 0.8 0.2 0.7-0.2 0.6-0.2 0.8-0.3 0.4 0 0.4 0.4 0.6-0.1 0.7-0.2 1.4 0 0.8-0.3 3 2 3.8 1.5 2.5 1.4 2.5 3.2 1.7 3.7 0.2 2.5 2 0.7 1 0.2 1.3 0 0.8 0.5 0.6 1.2 0.5 1.3 0.4 0.9 1.5 1.3 2 1 2.3 0.6 2.9 0.1 0.7-0.4 0.5-0.9 0.5-0.5 0.8 0.3 0.6 0.4 0.7 0.2 1.6-0.1 1.7-0.4 0.9-0.9 0.7-1 1-0.6 2.4 0.1 6.5 0.9 2.3-0.6 6.9 4.1 1.3-0.1 1-1.9 2.3 0.2 2.3 1.4 0.1 0.1 1 2.1 0 7.9-0.4 0.8-0.5 0.8 0.2 0.7 1.7 0.1 1-0.3 0.8-0.7 0.7-1 0.4-0.9 0.4 2.9-1.2 2.6-0.1 1.6 3.8-0.2-1 2.6 0.9 1.5 3.5 2.3 0.3 1.2-3.3 1.1-1.3 1.2 1.2 0 0.9 0.3 0.8 0.4 0.9 0.3-1.9 0.9 1.2 1.7 1.5 0.2 1.7-0.7 1.4-1.2 0.7 2.6 1.5 1.3 1.9 0.9 1.7 1.1 1.6 2.2 0.9 2.6-0.5 2-3 0.1 0.6 1.4 1.6 2.1 1.6 3.4 0.2 0.9-2 5.8 0.2 1.7 4.1 3.8 1.2 0.5 0.8-1 0.8-1.2 1.1-0.7 1.6 0.3 0.6 0.7 0.5 0.6 1.2 0.3 3.3 0.3 2.8 0.9 2 1.8 0.9 2.9 2.7-0.9 1.2 2.2 0.7 3.2 1.3 2.5-2.2 0.8-1.2 0.1-1.4-0.1 0 1.1 1.2 1.1 0.3 0.6 0.4 1.2 1.9-0.6 1.9 3 2.1-0.4-0.8-0.7-0.2-0.7 0.5-0.5 1.4-0.1 1.4 0.1 0.7 0.5 0.5 0.8 0.8 1 1.6 1.5 0.5 0.9 0.3 1.6 0.3 1.1 0.7 0.6 1.9 0.7 0.7 0.9 0 0.5 0.1 0.1 1.2-0.5 1.1-0.7 0.9-1 0.5-0.9-0.1-0.3 2 0 1.8-0.2 1.7-0.9 1.8-1.9 1.6 1.3 2 3.1 1.6 0.5 2.1-0.5 0.5-1.5 0.1-1.9 0.7-2 0.4-1 0.1-0.5 0.5-0.3 2.5 0 1.2 0.2 0.8 0.4 0.3 0.7-0.3 2.5-1.4 3.7-0.3 2.6 2 3 4.6 0.5 5.1-0.3 3.4 0.8 1.2 2.1 1.3 4.7 0.9 1.6 1.9 0.9 0.5-1.3 0-2.3 0.4-2.3 2.2 0.6 3.8 1.6z" id="CISV" name="Savanes">
  </path>
  <path d="M160.8 431.6l2.7 1.2 2.6 1.1 3.3 0.6 0.9-0.2 0.5-0.8 0.6-0.6 1-0.1 1.9 0.7 2 1.9 0.1 0.1 0.2 0.7 0.2 0.6 0.3 0.7 0.9 1 0.1 0.6-0.2 0.6-0.2 0.6 0 0.6 0.5 0.3 1 0.3 0.7 0.4 0.8 0.3 0.6 0.4 1 0.9 0.6 0.5 0.8 0.4 0.3 0.7 0.3 0.7 0.3 0.7 1 0.9 0.5 0.5 1.1 1.8 0.3 0.7 0.7 0.6 1.5 0.4 2.9 0.5 2.4 0.8 1.1 0.8 0.5 0.7 0.6 0.5 0.8 0.5 0.5 0.6 0.4 1.4 0.5 0.3 0.5-0.2 1.1-1 0.5 0.1 0.5 0.5 0.4 0.6 0.4 0.4 0.7 0 1-0.4 2.2-1.1 1.5-1.6 0.8-0.5 0.4-0.6 0.5-0.4 0.4 0 0.5 0.4 0.3 0.7 0.4 0.7 0.6 0.1 1.1-0.1 1.2-0.5 1.2 0.2 1.1-0.1 1-0.2 1.3-0.9 1.4-1.2 0.6-0.4 0.7-0.2 0.9-0.1 0.6-0.7 0.5-0.6 0.4-0.5 0.5-0.4 0.5-0.3 0.2-0.4-0.1-0.6-0.3-0.5-0.2-0.6 0.1-0.6 0.5-0.4 0.7-0.5 1-0.9 0.2-0.7 0-0.8-0.2-0.7-0.1-4.4-0.2-0.7-0.1-0.4-0.9-1.5-0.1-0.3-0.2-0.5 0-0.8 0.1-0.8 0.3-0.6 0.6-1 0.2-0.2-0.1-0.3-0.2-0.4-0.9-0.9-0.4-0.6-0.2-0.7-0.2-0.9 0.2-3.6 1.3-4.8 0.5-0.9 0.3-0.5 0.4-0.5 1-0.9 2.3-1.6 0.9-1 0.9-1 0.5-0.6 0.8-0.4 1.2 0 1 0.3 2.1 1.9 1.5 1 0.8 0.8 0.5 0.6 0.7 1.3 0.4 0.6 0.8 0.5 1.1 0.4 4.9 1.2 2.4 1.2 5.2 3.3 0.5 0.5 0.5 0.6 4.8 7.7 1.2 2.6 4.2 0.9 17.8-0.1 1.7 4.4 0 2.9-1 1.7-1.4 1.4-1.4 1.8-0.6 1-0.2 1-0.2 2.3 0.3 1.4 1.2 1.5 0.3 1.1 0.6 9.3 0.9 4.9 1.5 3.7 0.1 1.7 0 1.5-0.4 1.5-0.7 1.3 0.9 2.3 1.5 6.2 1 1.3 3.1-1 1.5 0 1.3 2.5 3.1 0.4 1.1 0.9 0.1 2.8-2.1 1.5-2.5 1.2-1.2 1.8 0.8 3.4 0.1 1.5-0.1 0.4-0.4 0.3-0.3 0.4-0.1 0.8 0.4 0.6 1.9 1.1 0.5 0.8-0.3 3.8-2.4 1.6-2.8 1-1.3 1.9-0.4 1.6-1 1.4-0.9 1.1-0.8 1.3-0.7 0.2-0.6 0.4-0.3 0.9 0.1 0.9 0.6 1.5 1.3 7.1 0.3 3.5-0.9 2.5-0.7 1.5 0.2 1.5 0.7 1.6 0.3 1.3-1 4.8 0 1.5 5.4 13.1 0.2 2.1-0.5 2.1-2.5 8.1-0.6 4.4 0 1.6 0.3 3 2.1 3.1-0.3 1.4-0.5 0.7-0.6 0.9-0.6 1.6 0 1.1 0.2 1.1 0.7 1.3 0.5 0.7 0.6 0.6 0.6 0.4 2.8 1 0.9 0.7 1.1 1 1.7 2.2 0.8 1.4 0.7 1.7 2.4 12.1-0.1 0.9-0.2 0.7-0.2 0.7-0.4 0.7-0.3 1.9 0.4 4.1-4.4 6.7-0.5 2.5 0.5 0.5 1.3 1.1-1.1 0.1-3.8 0.9-0.7 0.3-2.2 1.3-0.3 0.3-1.9 2.7-0.5 0.5-0.5 0.4-0.6 0.3-0.6 0.2-1 0.4-1.1 0.7-1.6 1.4-0.8 4.4 0.7 18.8 1.9 27.9 1.6 6 0.6 12.7-1.7 43.8-43.2 8.4-2.6 0.5-1.8-3.7-2.6-11.2 0.1-5.2 0.9-5.9-0.6-5-4.5-1.9-0.5 4.2-0.7 2.3-1 1.1-1.4-0.9-0.7-2-0.9-1.8-2.2-0.4 0.4-2.4-1 0.4-1.8 1.5-1.6 0.8-1-0.5-1.9-2.4-1-0.9 1.1-1.5-0.7-0.9-3.1-1.4-0.4 0-2.9-1.6-0.2-0.6-2.5-0.3-2.1-1.7-1.5-1.8-0.9-0.7-1.6 1.8-1.6 2.8-2 1.1-2.5-3.6-1.7-1.7-5.6-2.9-1.8-2.3-0.2-1 0.1-4.1 0.3-0.6 1.3-0.7 0.3-0.8-0.3-0.9-0.7-0.4-0.8-0.2-0.4-0.5-0.5-3.2-0.5-1.3-1.4-1.3-1.3-0.1-1.7 0.5-1.4 0.7-0.1 0.7-1.5-2-0.4-2.9 0.4-3.2 0.6-3 1.9-5.4-0.4-2-2.1-2.6-6.3-5.1-0.5-0.7-0.4-1.6-0.2-0.5-0.9-0.3-0.7 0.2-0.6 0.2-0.7-0.1-9.1-2.1-2.3-1.6-2.5-0.6-3.8 0.1-6.5 0.9-1.7 0.7-3.1 1.8-2 0.5-2.3 0-1.2-0.4-0.9-0.7-1.5-0.9-1.7-0.6-11-2.5-1.2-0.5-0.3-0.6 0-1-0.1-1.1-0.7-1.2-1.1-0.5-0.5 0.4-0.5 0.6-0.7 0.1-1.5-1.3-1.4-1.6-1.4-0.6-1.9 1.6-1.4-0.7-1.8 0-1.7 0.6-1.5 1.5-1.7-1.7 0.5-0.9 1.3-0.7 0.7-1.3-0.3-1.1-1.3-2.6-0.2-1.3 0.7-2.3 1-0.9 0.2-0.9-1.8-2.1-4.5-2.4-1.6-2.1-0.9-0.6-0.7 1.2-0.6 2.6-1.1 2.7-1.8 1.4-2.6-0.8-4.2-5.7-1.5-1.4-1.7-0.4-3.4 0.1-1.3-0.3-2.4-0.2 3.4-4.4 0.7-0.3 1.7-0.3 0.7-0.4 0.3-0.6 0.6-2-0.2-0.2 0.2 0 2.3-1.4 0.4 0.1 1.9-2.4 10.2-8.1 2.8-3.1 12.7-14.2 2-3.1 1.7-4.1 1.2-4.3 0.2-2-0.1-1.9-0.7-0.8-1.1-0.8-0.7-1.1 1.8-3.9 0.1-2.2-0.1-2.4 0.1-2.5 0.8-1.2 2.9-2.2 1-1.4 0.4-3.4-2.4-13.6-0.2-3.4-0.4-1.4-0.9-1.4-2-2.1-0.5-0.9-0.2-0.9 0.3-1.8 0-1-0.6-1.1-1.7-2.1-0.7-1.1-1.1-4.5-0.9-1.8-2.4-3.5-0.9-1.7-0.8-2.7-1.7-13.8-2.9-10.1-2.5-5-5.9-3 6.4-5.9 3.6-1.9 3.3 3.9 2.7-0.2 5-1.5 4.7 1.2 5.3 4.1 5.2 2.3 4-4.6 0.1-1-0.5-2.3 0.1-1.1 0.7-1.6 2.8-3.6 0.6-0.5 1.6-1 0.6-0.5 0.1-0.6-0.4-1.4 0.1-0.6 4.5-5.2 0.7-2.1 0.5-4.7 0.5-2.3 0.7-0.8 0.9-0.6 0.8-0.8 0.3-1.4-0.7-1.5-3.2-2.8-1-1.5 0.3-5.7 7-10.7 1.5-5.5 0.2-3.5-0.3-1.2 2.2 0.1 5.9-1 1.4 0.5 1.4 1.1 1.7 1.1 2.5 0.2-0.5-1.7z" id="CIMG" name="Montagnes">
  </path>
  <path d="M238.1 772.7l2.6-0.5 43.2-8.4 1.7-43.8-0.6-12.7-1.6-6-1.9-27.9-0.7-18.8 0.8-4.4 1.6-1.4 1.1-0.7 1-0.4 0.6-0.2 0.6-0.3 0.5-0.4 0.5-0.5 1.9-2.7 0.3-0.3 2.2-1.3 0.7-0.3 3.8-0.9 1.1-0.1 4.8 4.1 1.1 2.5 0.3 1.6 0 1.2 0 1-0.2 0.7-0.3 0.5-0.6 0.3-1.4 0.5-0.7 0.1-0.7 0.4-0.7 0.5-0.6 1.1 0 0.8 2.9 7.4 16.3 19.6 2 1.4 1.6 0.5 20.3-0.2 1.4-0.3 1.5-0.8 10.5-7.9 1.1-0.6 1.6 0.6 7.1 4.3 2.5 0.7 2.4 0 8.6-3.5 3.5-0.6 0.3 4.1 1.5 17.8 1.8 6.7 2.8 7.6 2.7 4.9 0.9 1.1 0.8 0.8 0.4 0.2 0 0.1 1.8 1.6 1.2 1.3 0.6 1.1 1.2 2.1 0.4 1.3 0.3 1.1 0.7 8 0.4 1.3 0.5 0.9 1.1 0.9 0.5 0.4 0.7 0.8 0.8 1.3 4.2 9.4 8.2-2.3 3.2-0.1 1.1 0.4 3.4 2.1 0.5 0.8 1.2 2.6 3.1 2.6 0.4 0.5 0.3 0.7 0.2 0.7-0.3 1.6 0 0.8 0.2 0.9 0.6 0.5 0.7 0.3 0.4 0.4 0.4 1.6 0.9 1.6 0.8 0.8 0.5 0.8 0.5 0.6 1.5 2.4-0.1 1.4-0.2 0.7-0.3 0.6-0.2 0.7 0 0.8 0.2 1.6 0.3 0.6 0.3 0.6 0.3 0.6 0.6 2.9 0.3 0.6 0.5 0.6 0.9 0.9 0.6 0.8 0.5 0.5 0.8 0.5 1.5 0.6 0.6 0.7 0.4 0.8 0.4 0.5 2.2-0.3 17.6-6 0.1 0.3 3.6-3.5 7.4-6.7 3.8 2.2 5.2 3.8 5.2 2.2 5.2-1.5 1.4 4.5 0 1.5 2.3 1.5 2.9 3.7 2.3 6 2.2 2.2 0.7 3.7 3 0.8 3-1.5 3-2.2 0 1.4 0 2.3 0.7 6.7 0 6 0 2.9 0 6 0 7.5 1.3 0.7-1.3 2.3 0 2.2 0 6 0 4.5-5 0.3-4.1-0.7-3.6-2.1-3.9 2.9 2.9 0.8 1 0.1-11.3 3.5-31.2 4.7-1 0.3-15.9 5-2.4 1.2-1 1.3-1.7 0-7.4 2.7-11.1 5.8-38.6 12.9-1.2 1-0.9 2.1-2.1 1.2-14.9 3.6-2.9 0.4-2.2 0.7-3.8 3.6-2.3 1.5-17.9 5.2-14.1 1-3.7 1.8-3.3 0.8-1.6 0.9-3.9 4.9-7.6 6.3-8.8 5.3-5.8 1.8-10.5 1.1-8.3 3.6-1.8 1.2-1.4 2.8-1.5 0.2-1.8 0-1.3 0.5-2.6 2.1-7.6 4.2-11.1 9.2-2.5 0.9-3.4-0.2-6.2-1.3-2.3 0.3-4.6-3.2-0.8-1.7 0.2-1.4 1.4-2.6 0.5-1.4-0.2-1.4-1-2.8 0.3-3.6-0.3-1.5-0.4-1.3-0.2-1.3 0.6-30.3-0.6-7.3-0.4-1.3-0.8-1-1.1-0.8-1.1-1.1-0.7-1.6 0-0.2 0-1.1 0.8-2.9 0.2-1.6-1-4.4 0.1-1.3 4.3-3.4 1.8 0.2 1.2 0.8 0.6 0.1 0-2.2-0.8-2.7-1.4-1.9-0.9-1.9 0.2-3.1-0.1 0-1.1-8.2 0.4-2.4 1.7-2.6 2.4-1.1 2.3 0.1 2 0.8 3.8-7 0.9-2.5 0.1-2.3-1.2-6.7 1.5-4.7 0.6-1.3 1-1.3 3.7-2 0.3-0.4 1.7 0.3-0.3 0.6-0.7 0.7 0.2 0.7 0.4 1 0 1 0.4 0.6 1.3-0.6 0.7-0.9 0.5-2.4 0.4-0.9 1.7-2.4 0.8-1.5 0.2-1.6-0.4-2.7-0.8-2.7-1-0.2-1.5 0.3-2.1-1.2-1.3-1.9-1-2.4-0.6-2.6 0-2.2 2 1 0.6-1.5-0.1-5.3 1-2.1 1.7-1.3 0.7-1.2-0.2-0.2-1.4-1.4 0.9 0.1 2.8-0.2-1.9-2.5-0.7-2.7 1-1.7 2.9 0.5-1.8-2.3-3-6z" id="CIBS" name="Bas-Sassandra">
  </path>
  <path d="M297.5 640.7l-1.3-1.1-0.5-0.5 0.5-2.5 4.4-6.7-0.4-4.1 0.3-1.9 0.4-0.7 0.2-0.7 0.2-0.7 0.1-0.9-2.4-12.1-0.7-1.7-0.8-1.4-1.7-2.2-1.1-1-0.9-0.7-2.8-1-0.6-0.4-0.6-0.6-0.5-0.7-0.7-1.3-0.2-1.1 0-1.1 0.6-1.6 0.6-0.9 0.5-0.7 0.3-1.4-2.1-3.1-0.3-3 0-1.6 0.6-4.4 2.5-8.1 0.5-2.1-0.2-2.1-5.4-13.1 0-1.5 1-4.8-0.3-1.3-0.7-1.6-0.2-1.5 0.7-1.5 0.9-2.5-0.3-3.5-1.3-7.1-0.6-1.5-0.1-0.9 0.3-0.9 0.6-0.4 0.7-0.2 0.8-1.3 0.9-1.1 1-1.4 0.4-1.6 1.3-1.9 2.8-1 2.4-1.6 0.3-3.8-0.5-0.8-1.9-1.1-0.4-0.6 0.1-0.8 0.3-0.4 0.4-0.3 0.1-0.4-0.1-1.5-0.8-3.4 1.2-1.8 2.5-1.2 2.1-1.5-0.1-2.8-1.1-0.9-3.1-0.4-1.3-2.5-1.5 0-3.1 1-1-1.3-1.5-6.2-0.9-2.3 0.7-1.3 0.4-1.5 0-1.5-0.1-1.7 3.4-3.5 3.1-1.9 4-0.9 51.8-3.1 21 6.1 3.2 0.3 4.3-0.2 21-5.1 4.3 0.2 1.7 3.8 1.7 2.7 0.2 0.7 0.2 0.7 0.5 4.4 0.7 0.8 1.3 0.9 5.3 2.3 3.7 1.1 2.4 1.6 2.5 3.5 4.2-2.5 0.4-0.7 0.5-0.9 0-0.6-0.4-2.6 0.1-1.1 0.5-1.5 4-3.7 4.5-3.4 1.6-0.2 1.9 0.4 10.9 4.3 2.6-1 2.6-1.4 2.7-1.8 2-0.7 1.5-0.3 4.2-0.1 1.7 5.2 0.4 2.4-0.8 9.4 0.2 1.5 0.3 0.9 0.5 0.5 0.6 0.4 0.8 0.2 0.9 0.2 1.3 1.2 1.6 2.1 2.6 5.4 1 2.5 0.4 1.8-0.3 0.7-0.4 0.4-0.6 0.4-1.4 0.2-1.3 0 0.6 2.7 0.4 0.5 1.9 2.4-1.1 9.1 0.3 2.9 0.8 1.1 0.5 0.3 1.4 0.5 1.1 1.2 0.3 0.9-0.1 0.8-0.5 0.6-1.1 1-0.5 0.7 0.1 0.6 0.3 0.6 1.1 0.9 0.4 0.6 0.5 0.4 0.6 0.4 2.1 0.8 0.8 0.6 0.7 0.9 1 1.6 0.2 0.9-0.5 0.9 2.6 0.3-0.8 2.2-1.5 3 0.7 3 5.2 0 1.5 0.7 0.7 3 0.8 0 0.7 2.2 3.7 0.8 4.5-0.8 3-1.5 0.7 1.5 0.8 0 0.7 3 0 6 1.5 3.8 5.1 0.4-2.9 4.1-3 4.5-0.7 2.9 0 5.3 0 4.5-1.5 0.7-1.5 1.5 0 1.5 0.8 1.5 1.5 0.8 1.4 1.5 0.8 0 0.7 0 3 0.7 2.2 3 0 3.7 0.8 0.8 0.7 1.5 1.5 2.2 1.5 3 1.5 4.5 0 2.2-0.8 4.5 0 1.3-2.9 1-5.2 0-5.2 0-6.7 3.7-3.7 3.7-6.7 5.3-3.7 3.7-6 1.5-3 1.5-3.7 2.3-5.2 0-5.9 0-6-1.5-4.4 0-7.4 0-5.2 0-4.5 0-3.7-0.8-0.7 0 0 4.5-0.8 3.7-0.7 7.5-4.5 0 0 3.7-1.5 5.3-2.2 1.5-1.5 2.2-3.7 0-3.7 0-3.7-0.7-4.5 0-3.7 0-3-0.8-2.9 0-3.8 2.3-5.2 4.4-4.4 1.5-0.1 0.1-0.3-4.1-3.5 0.6-8.6 3.5-2.4 0-2.5-0.7-7.1-4.3-1.6-0.6-1.1 0.6-10.5 7.9-1.5 0.8-1.4 0.3-20.3 0.2-1.6-0.5-2-1.4-16.3-19.6-2.9-7.4 0-0.8 0.6-1.1 0.7-0.5 0.7-0.4 0.7-0.1 1.4-0.5 0.6-0.3 0.3-0.5 0.2-0.7 0-1 0-1.2-0.3-1.6-1.1-2.5-4.8-4.1z" id="CISM" name="Sassandra-Marahoué">
  </path>
  <path d="M730.2 347.9l0.6 0.8 0.9 3.1-0.3 2-3.9 3-1.1 1.9-2.4 0.8-0.8 0.7 0.3 2.6 5.2 2.9 1.3 2.8-0.6 1.9-0.9 2.6-3 1-1.9 0.3-0.4-0.4-1 1.8 0.3 1.2 0.9 0.8 0.7 1.1 0.4 0.2 0.5 0 0.6 0.1 0.5 0.6 0 1.1-0.4 0.6-0.4 0.4-0.2 0.5-0.4 1.3-0.6 0.4 0 0.4 1.5 1.6 0.7 1.1 0.2 1.4-0.3 1.5-1.1 1.5-2.1 0.4-7-0.1-1.5 0.2 0.1 1.4 0.6 2 0.2 1.4 0.7 1 3.3 2 0.9 1.4-0.4 1.7-2.1 3-0.5 1.7 0.4 1.7 1.1 0.4 1.4 0.1 1.5 0.8 5.4 6.7 1.8 1.6-0.3 0.8-1.1 1.5-0.6 0.6-3.2-1-2.4 1.9-1.5 3.5-0.7 5.2-20.8 4.2-3 0.9-1.1 0.9-0.7 0.7-3.2 4.8-8 8.8-2.6 2-11.1 5.5-3.7 3.2-2.1 0.9-2.3 0.6-1.7 0.2-1.8-0.1-2.9-1.1-1.5-0.1-1 0-5.5 1.2-1.3 5.5 0.2 2.4 0.4 0.8 0.4 1.5 2.2 16.8-0.4 1.6-0.7 0.9-0.9-0.1-4.5-1.2-0.9 0-0.8 0-0.8 0.3-0.8 0.6-0.8 0.9-1.3 1.9-1.5 1.6-0.8 0.7-3.6 2.5-3 3.7-11.3 0.4-3.6-0.4-0.8-0.5-2.6-2.6-1.8-1.1-1.2-0.4-1.1-0.1-8.3 0.5-2.2 0.6-1.6 0.8-2.5 3.1-2.1 3.9-1.1 1.1-1.8 1-7.9 3-2 1.2-0.9 0.7-0.8 0.8-0.7 0.8-0.5 0.9-0.9 1.8-0.3 0.9-0.9 1.1-1.5 1.2-15.8 7.7-2.5 2.9-1.6 3.3-0.7 1-0.9 0.2-1 0-1.1 0.1-1.8 0.8-1.1 1.1-2.6 3.3-1 0.7-1 0.3-2.7-0.5-0.9 0.1-4.5 1.2-1.3 0.2-1-0.1-0.9-0.3-0.9-0.5-0.8-0.6-2.5-2.7-2.9-4.2-0.6-0.8-0.9-0.7-1.3-0.5-1 0-1 0.1-5.9 2.5-16.2 4.1-2.3 0-1.6-0.2-2.6-0.3 0.5-0.9-0.2-0.9-1-1.6-0.7-0.9-0.8-0.6-2.1-0.8-0.6-0.4-0.5-0.4-0.4-0.6-1.1-0.9-0.3-0.6-0.1-0.6 0.5-0.7 1.1-1 0.5-0.6 0.1-0.8-0.3-0.9-1.1-1.2-1.4-0.5-0.5-0.3-0.8-1.1-0.3-2.9 1.1-9.1-1.9-2.4-0.4-0.5-0.6-2.7 1.3 0 1.4-0.2 0.6-0.4 0.4-0.4 0.3-0.7-0.4-1.8-1-2.5-2.6-5.4-1.6-2.1-1.3-1.2-0.9-0.2-0.8-0.2-0.6-0.4-0.5-0.5-0.3-0.9-0.2-1.5 0.8-9.4-0.4-2.4-1.7-5.2 2.3-1.4 0.8-1 1.4-2 0.4-1.3 0.1-1.1-0.7-2.2-0.4-1.5-0.1-1.8 0.1-0.9 0.6-2.4 0.3-0.6 2-2.8 0.6-1.4 0.4-1.6 0.1-0.8 0-0.8-0.2-0.9-0.5-1.4-0.6-2.6 0-1.3 1.2-6.7 0.1-0.1 1.2-0.4 2.2-0.3 1.3 0 4.7 0.3 6.1-0.9 3.7-1.6 8.2-5.4 0.8-1 0.4-0.8 0.1-1.2-0.2-2.2 0.8-0.3 1.6-0.4 4.2 0.1 2.3 0.5 1.2-2.1 2-0.4 2.4 0.6 1.9 1 1.1-2 1.8 0.5 1.1-1.3 0.3-2-1.6-3.3 1.9-0.7 2.1-0.1 2.1 0 1.9-3-0.2-3.7-2.7-6.9 2.9 0-1.2-2.5-1.9-1.1-2-0.6-1.5-0.8-0.6-0.8-1.4-3.1-0.6-0.7-0.7-0.4-1.6-0.8-2.9-2-0.9-0.4-6.8-1.6-0.3-0.6-0.2-0.9-0.3-0.9-0.6-0.4-4.9 0-1.1-0.3-0.7-0.7-0.5-0.7-0.6-0.3-1.6-1-3.9-4.8-1.3-1.1-0.5-0.3 0.8-0.6 1.3-0.7 1.3-0.3 1.2 0.1 2.7 0.9 3.4 0.3 1.3-0.5 1.6-1.8-11.6-6.6-0.8-2.4 1.2-1.1-0.1-1.2-0.2-0.8-0.6-0.5-0.7 0-0.7 0.2-0.7 0-0.6-0.3-0.5-0.4-0.5-0.4-0.3-0.5-0.1-0.8 0-0.8 0.1-0.8 0.1-4-0.4-0.7-0.5-0.6-0.6-0.3-0.7-0.3-0.7-0.2-0.8-0.1-0.7 0.1-0.7 0.3-1.1 0.8-0.7 0.1-0.5-0.3-1.4-1.5-0.4-0.5-0.2-0.8 0-2.3 0.2-0.5 0.6-0.2 0.6-0.3 0.3-1.2 0-1.1 0.5-2.6-0.2-0.9-0.3-0.8-0.4-0.5-0.2-0.7 0.1-0.6 0.9-0.6 1.5 0 0.7-0.2 0.5-0.5-0.1-0.8-0.4-0.5-1.4-0.7-0.3-0.6-0.5-1.5-0.4-0.6-0.5-0.4-0.7-0.3-0.8 0.2-0.6 0.5-0.4 1.1-0.7 0.6-0.5 0-0.1-0.8 0-1.2 1.4-5.1 2-5 0.8-1 1.1-0.3 0.9 0 0.8 0.2 1.1 0.8 0.8 0.2 2.6 0.3 1.6 0.3 0.8 0 0.7-0.1 0.7-0.3 1.3-0.6 0.6-0.3 0.5-0.5 2-1.9 0.6-0.4 0.6-0.3 0.7-0.3 1.6-0.3 2.5-0.2 0.9 0.1 1.1 0.2 1.4 0.7 1.5 0.2 0.8-0.1 0.8-0.5 1.3 0 1.5-0.5 0.9-0.3 1.1-1.4-0.3-1.8-0.8-0.3-2.1-1.4-1.4-1.6 0.9-0.7 3.6-1.1-0.8-5.5 3.5-2.2-2-1.6-0.9-0.4 0-0.9 1.5-0.1 1.5 0.1 1.4 0.4 1.3 0.5-2.3-4.3-8.5-5.6 0.2-3.8 3.2 0.6 2.2-2 1.4-3.2 1.8-6.3 0-2.5-0.9-2.1-1.9-2.1 4.3 0.2 2.7-2.6 1.4-4.2 0.4-4.6 0.8-3.8 2.1-3.8 4.8-5.7 3.1 0.7 6.4-1 1.7 0 0.9 0.2 0.8 0.8 0.8 1.3 3.5 8.2 0.4 0.8 0.5 0.7 1.2 0.8 1 0.3 0.9 0.1 0.8-0.2 0.6-0.3 0.5-0.4 1.1-1.1 0.8-1 0.7-0.5 1.1-0.2 14.5 2.4 2.1 0.6 1.6 0.9 0.4 1.6 0.5 4.4 0 2 0.1 1 0.3 1.1 0.8 1.4 0.5 0.7 1.4 1.3 0.5 0.6 0.3 0.6 1.7 4.2 0.7 0.9 0.7 0.6 0.8 0.3 1.3 0.6 1.6 1.4 0.6 0.3 2.2 0.3 0.6 0.3 1.1 0.7 1.4 0.2 0.6 0.4 0.5 0.4 0.4 0.6 0.2 1.2 0 1.6-1.8 13.1 0 0.1 0 0.1 0.1 0.2-0.2 1-0.6 1.5-1.8 2.7-1.1 1.1-1 0.4-1.1 0.7 0 5.3 51.5 1.7 1.7-0.9 1.7-0.6 1 0 1.2 0.4 5.1 1.9 0.5 0.4 0.5 0.6 0.7 1.2 1.2 0.8 1.9 0.8 4.8 1.1 2 0.8 1.2 0.7 1.4 2.5 0.5 0.6 0.5 0.4 2.5 1.4 1.1 0.9 0.4 0.6 0.4 0.6 0.4 1.5 1.2 8.6 0.2 0.8 0.4 0.8 0.7 0.8 0.7 0.3 0.9 0.1 3.3-0.7 1.1-0.2 1.6 0 0.9 0.3 0.7 0.5 0.3 0.6 0.3 1.7 0.5 0.9 0.8 0.8 2.8 1.6 0.7 0.7 0.7 1.5 0.5 0.8 1 0.9 0.9 0.3 0.9 0.1 0.7-0.2 1.6-0.6 0.9-0.3 1.4-0.1 0.9 0.2 0.7 0.4 1.1 1.3 1.1 0.9 0.9 0.2 0.9 0 0.8-0.1 0.8-0.2 1.2-0.1 1.6 0.1 3.1 0.7 1.7 0.2 1.3-0.1 2.4-0.6 1.2-0.1 1.8 0 2.2 0.6 0.5 0.2 0.4 0.3 1.4 1.6 0.7 0.7 0.8 0.2 0.7-0.1 2.2-0.8 1.4-0.4 2.1-0.4z" id="CIVB" name="Vallée du Bandama">
  </path>
  <path d="M191.5 282l1.7 0.4 3.5 4.9 6.4 12 0.9 1.3 1 0.9 1.2 0.8 2.6 1.3 4.4 1.5 8.2 7.2 1 1.1 3.9 6.2 0.5 0.6 0.5 0.3 5.2 3 6.2 7.3 1.2 0.8 1.6 0.8 3.1 2 1 0.8 0.7 0.8 1.4 2.5 3.8 5.2 1.9 1.9 1.2 0.7 1.3 0.6 1.5 0.5 1.1 0.5 3.5 2.4 1.3 1.1 0.8 0.9 0.4 0.8 0.5 1.4 1.2 2.1 4.6 4.2-0.7-5.4-1.1-2.9-1.5-2.7-1.8-1.3 1.7-0.7 0.2-0.7-1-0.5-1.9-0.1 1.3-2.6 0.5-2.8 0.2-5.3 1.7-6.9 0.2-2.4 0.3-1.2 1.2-1.2 0.4-1.1-0.3-1.1-1.3-2.5-0.3-0.8-0.1-2.6-0.6-2.2-1.2-1.7-2-0.8 1-1.2 0.7-1.3 0.3-1.5 0-1.9 0.9-1.7 0-0.8-1.4-0.4-1.1-0.1-0.6-0.3-0.3-0.6 0.1-0.6 0.3-0.3 1.9 0 3.5-1.1 2-1.5 2.2-2 1.8-1.1 1.2-1.6 0.3-0.5 0-0.1 0.2-0.3 0.4-0.3 0.7-0.4 0.9 0 1.3 0.3 0.7 0.4 0.4 0.2 0.1 0.1 0 0.1 0.4 0.3 0.5 0.3 0.6 0.4 0.9 0.1 2.4-0.2 0.8 0.1 0.6 0.3 0.5 0.6 1.6 2.3 0.4 0.5 0.6 0.5 0.7 0.3 0.7 0.3 0.8 0.1 0.9 0.1 2.3-0.2 4-0.9 1 0.2 0.7 0.4 0.6 0.5 0.8 0.3 1 0.1 1.6-0.1 0.9 0.3 0.7 0.4 1 0.9 0.5 0.3 0.5 0 0.3-0.9 0-0.9-0.7-6.4 0-0.1-0.1-2 0.1-1 0.3-1.1 0.9-1.3 0.4-1.1 0.2-0.9 0.9-0.8 1.4-0.8 5.6-1.3 1.7-0.6 1.8-1.2 1.3-0.6 3.4-1 5.2-3.1 5.1 0.7-1.2 0.9-0.1 1.4 1.6 1.8 1.1 1 0.5 0.3 0.8 0.3 12 0.9 1.3-0.5 1.5-0.8 2.4-2.1 0.9-1.3 0.2-1.1-1.2-2.6-0.2-0.7 0-0.8 0.1-0.8 0.4-0.6 0.4-0.6 0.5-0.4 0.9-0.3 1-0.3 2 0 1.1 0.3 0.8 0.3 1.5 1.4 0.8 1.2 0.5 1.1 1.2 3 0.7 1.3 0.8 1.1 1 1 0.6 0.5 0.6 0.3 0.8 0.2 1.3-0.6 1.5-1.2 2.8-3.3 2.6-3.5 0.8-0.7 1.6-0.7 1.1 0 1-0.2 0.7-0.6 0.9-1.5 0.8-3.2 0.6-1.5 0.3-0.6 1.5-1 3.8-0.8 2.8 0.8 0.8 0 1.1 0.1 1.6 0.3 3 1.8 3.4 4.3 0.6 1.2 0.1 0.9 0 0.8-0.1 0.8-0.4 0.7-0.4 0.6-1.6 1.4-0.8 1.1-2.1 4-0.2 0.8-0.1 0.8 0 0.8 0.1 0.8 0.3 0.7 0.6 1.4 1.5 2.1 0.4 0.8 0.7 2.1 0.3 0.6 0.3 0.4 0.1 0.1 9.2 6 2.7 1.3 0.7 0.5 0.5 0.7 0.3 1.3 0.2 1.8 0.2 0.8 2.5 5.2 21.5 33.7 1.1 0.7 29.1 10.7 18.6 4.5 0.8 2.4 11.6 6.6-1.6 1.8-1.3 0.5-3.4-0.3-2.7-0.9-1.2-0.1-1.3 0.3-1.3 0.7-0.8 0.6 0.5 0.3 1.3 1.1 3.9 4.8 1.6 1 0.6 0.3 0.5 0.7 0.7 0.7 1.1 0.3 4.9 0 0.6 0.4 0.3 0.9 0.2 0.9 0.3 0.6 6.8 1.6 0.9 0.4 2.9 2 1.6 0.8 0.7 0.4 0.6 0.7 1.4 3.1 0.6 0.8 1.5 0.8 2 0.6 1.9 1.1 1.2 2.5-2.9 0 2.7 6.9 0.2 3.7-1.9 3-2.1 0-2.1 0.1-1.9 0.7 1.6 3.3-0.3 2-1.1 1.3-1.8-0.5-1.1 2-1.9-1-2.4-0.6-2 0.4-1.2 2.1-2.3-0.5-4.2-0.1-1.6 0.4-0.8 0.3 0.2 2.2-0.1 1.2-0.4 0.8-0.8 1-8.2 5.4-3.7 1.6-6.1 0.9-4.7-0.3-1.3 0-2.2 0.3-1.2 0.4-0.1 0.1-1.2 6.7 0 1.3 0.6 2.6 0.5 1.4 0.2 0.9 0 0.8-0.1 0.8-0.4 1.6-0.6 1.4-2 2.8-0.3 0.6-0.6 2.4-0.1 0.9 0.1 1.8 0.4 1.5 0.7 2.2-0.1 1.1-0.4 1.3-1.4 2-0.8 1-2.3 1.4-4.2 0.1-1.5 0.3-2 0.7-2.7 1.8-2.6 1.4-2.6 1-10.9-4.3-1.9-0.4-1.6 0.2-4.5 3.4-4 3.7-0.5 1.5-0.1 1.1 0.4 2.6 0 0.6-0.5 0.9-0.4 0.7-4.2 2.5-2.5-3.5-2.4-1.6-3.7-1.1-5.3-2.3-1.3-0.9-0.7-0.8-0.5-4.4-0.2-0.7-0.2-0.7-1.7-2.7-1.7-3.8-4.3-0.2-21 5.1-4.3 0.2-3.2-0.3-21-6.1-51.8 3.1-4 0.9-3.1 1.9-3.4 3.5-1.5-3.7-0.9-4.9-0.6-9.3-0.3-1.1-1.2-1.5-0.3-1.4 0.2-2.3 0.2-1 0.6-1 1.4-1.8 1.4-1.4 1-1.7 0-2.9-1.7-4.4-17.8 0.1-4.2-0.9-1.2-2.6-4.8-7.7-0.5-0.6-0.5-0.5-5.2-3.3-2.4-1.2-4.9-1.2-1.1-0.4-0.8-0.5-0.4-0.6-0.7-1.3-0.5-0.6-0.8-0.8-1.5-1-2.1-1.9-1-0.3-1.2 0-0.8 0.4-0.5 0.6-0.9 1-0.9 1-2.3 1.6-1 0.9-0.4 0.5-0.3 0.5-0.5 0.9-1.3 4.8-0.2 3.6 0.2 0.9 0.2 0.7 0.4 0.6 0.9 0.9 0.2 0.4 0.1 0.3-0.2 0.2-0.6 1-0.3 0.6-0.1 0.8 0 0.8 0.2 0.5 0.1 0.3 0.9 1.5 0.1 0.4 0.2 0.7 0.1 4.4 0.2 0.7 0 0.8-0.2 0.7-1 0.9-0.7 0.5-0.5 0.4-0.1 0.6 0.2 0.6 0.3 0.5 0.1 0.6-0.2 0.4-0.5 0.3-0.5 0.4-0.4 0.5-0.5 0.6-0.6 0.7-0.9 0.1-0.7 0.2-0.6 0.4-1.4 1.2-1.3 0.9-1 0.2-1.1 0.1-1.2-0.2-1.2 0.5-1.1 0.1-0.6-0.1-0.4-0.7-0.3-0.7-0.5-0.4-0.4 0-0.5 0.4-0.4 0.6-0.8 0.5-1.5 1.6-2.2 1.1-1 0.4-0.7 0-0.4-0.4-0.4-0.6-0.5-0.5-0.5-0.1-1.1 1-0.5 0.2-0.5-0.3-0.4-1.4-0.5-0.6-0.8-0.5-0.6-0.5-0.5-0.7-1.1-0.8-2.4-0.8-2.9-0.5-1.5-0.4-0.7-0.6-0.3-0.7-1.1-1.8-0.5-0.5-1-0.9-0.3-0.7-0.3-0.7-0.3-0.7-0.8-0.4-0.6-0.5-1-0.9-0.6-0.4-0.8-0.3-0.7-0.4-1-0.3-0.5-0.3 0-0.6 0.2-0.6 0.2-0.6-0.1-0.6-0.9-1-0.3-0.7-0.2-0.6-0.2-0.7-0.1-0.1-2-1.9-1.9-0.7-1 0.1-0.6 0.6-0.5 0.8-0.9 0.2-3.3-0.6-2.6-1.1-2.7-1.2-0.3-1.4-1.7-3.1-2.4-2.6-2.6-1.6-0.8-2.1-0.1-2.1 0.9-4.3 1-1.8 0.9-2-0.2-1.4-1.7 0.1-8.5 2.9-1.4 0.2-13.7-4.2-11.7-7.8 0.2-1.5 2.3-2.4 0.4-1.7-0.4-2.6 0-2.7 1.8-8.1-0.2-3-0.8-1.8-1-1.5-0.7-1.6 0-1.7 0.8-1 6.8-5.5 2-0.2 5.1 1 2.8-0.3 4.7-1.9 2.9-0.2 1.2 0.4 1.5 1.4 0.9 0.4 1.2 0.1 2.5-0.2 1.3 0.2 4.2-1.1 2.2-0.3 2 0.4 1.7 1.4 1 1.9 0.8 2 1 1.9 1.6 1.4 2 1.1 2.3 0.7 2.4 0.1 2.4-1.1 0.2-2-0.4-2.4 0.6-2.2 3.1-0.5 3 4.1 4.4 9 3.2 2 3.9 0.5 8.2-0.9-2.9-6-0.9-3.1 0.4-3.4 1.1-3.6 0-2.4-1.8-6-0.3-3 0.3-5.5-0.7-2.6-1-1.3-4-2.6-1.3-1.6-3.4-6.1-0.9-1.2-2.7-2.4-0.7-0.8-1.1-1.8-0.9-0.6-0.8 0-1.5 0.7-0.7 0.1-8.4-2.6-3.1-0.3-6.5-2-1.4-4.4 2.6-12.4 0.6-7 0.6-3.4 1.4-3.4 2.1-2.3 12.7-6.5 2.7-0.3 2.8 0 3.4-0.5 2.2-1.7z" id="CIWR" name="Woroba">
  </path>
  <path d="M521.8 625.1l0-1.3 0.8-4.5 0-2.2-1.5-4.5-1.5-3-1.5-2.2-0.7-1.5-0.8-0.8 0-3.7-2.2-3-3-0.7-0.7 0-0.8 0-1.4-1.5-1.5-0.8-0.8-1.5 0-1.5 1.5-1.5 1.5-0.7 0-4.5 0-5.3 0.7-2.9 3-4.5 2.9-4.1 3.1 0.3 4.4 1.5 3-0.7 11.9-3.8 8.9 0 6.7 0 0 3.8 5.9 0.7 3 4.5 2.2 3.7 1.5 1.5 3.7 0 5.2 2.3-0.7 6.7 2.2 6 3.7 0.8-1.5 5.2-5.2 5.2-4.4 2.3-4.5 3-1.5 2.2-5.9 0-3.7-1.5-2.3-0.7-1.5 0.7-0.7 0.8-1.5 0 0 2.2-0.7 1.5 0 2.2 1.5 3.8 0 6-3.8-2.3-2.2 0-0.7 3.8-1.5 5.2-0.8 2.2-1.4 2.3-1.5 3 0.7-3.8-0.7-3-3.7-0.7-3-0.8-4.5 0-2.2-0.7-2.2-2.2 1.5-4.5 0.7-3-1.5 0.5z" id="CIYM" name="Yamoussoukro">
  </path>
  <path d="M545.8 667.4l2 0.5 2.2 1.5-2.2 9-1.5 6-0.7 2.2 1.5 3 3.7 2.2 3.7 4.5 3.7 3 5.2 0 4.5 0 3.7 0 4.4 0.8 3.8 0.7 1.4 3 0 5.2-1.4 4.5-3.8 3 0 5.2 0 4.5 0.8 6.7 3 3.8 5.9 2.9 0.7 1.5 0 0.8 1.5 1.5 1.5 4.5-3.7 8.2-5.2 10.4 0 3.7-2.2 6 0 2.3 2.2 3.7 0 6-3 3.7-2.2 9.7-3.7 6-0.8 6.7 0 8.9 0.8 6-1.6 2.9-2.2 0.7-2.3 1.3-1.5 1.2-0.5 0.4-0.5-0.5-1.8-1.5-4.1-2.1-4.7-1-3.5 0.9-0.8 0.2-0.5-0.6-1-0.7-0.2-0.3-0.3-0.4-0.9 0-1.5 1.6-2.5-0.7-2.7-1.2-2.1 0.3-0.9 0-1.5-0.7-0.8 0.6-0.1 1.4 0.6 1.7-0.5-0.2-1.6-0.8 0.1 1.5-0.1 0.5 1.2-0.4 0.2 0.5 0.6 0.8 0.1 0.1 1-0.5 0.7-0.3 2-0.2 0 1-1.1 1.2-3.3 1.7-1.4 0.9 0-2.8-1.1 3.2-7.2-3-3.7-0.7-3.9-2.3-1.3-0.7 0-7.5 0-6 0-2.9 0-6-0.7-6.7 0-2.3 0-1.4-3 2.2-3 1.5-3-0.8-0.7-3.7-2.2-2.2-2.3-6-2.9-3.7-2.3-1.5 0-1.5-1.4-4.5-5.2 1.5-5.2-2.2-5.2-3.8-3.8-2.2-7.4 6.7-3.6 3.5-0.1-0.3-17.6 6-2.2 0.3-0.4-0.5-0.4-0.8-0.6-0.7-1.5-0.6-0.8-0.5-0.5-0.5-0.6-0.8-0.9-0.9-0.5-0.6-0.3-0.6-0.6-2.9-0.3-0.6-0.3-0.6-0.3-0.6-0.2-1.6 0-0.8 0.2-0.7 0.3-0.6 0.2-0.7 0.1-1.4-1.5-2.4-0.5-0.6-0.5-0.8-0.8-0.8-0.9-1.6-0.4-1.6-0.4-0.4-0.7-0.3-0.6-0.5-0.2-0.9 0-0.8 0.3-1.6-0.2-0.7-0.3-0.7-0.4-0.5-3.1-2.6-1.2-2.6-0.5-0.8-3.4-2.1-1.1-0.4-3.2 0.1-8.2 2.3-4.2-9.4-0.8-1.3-0.7-0.8-0.5-0.4-1.1-0.9-0.5-0.9-0.4-1.3-0.7-8-0.3-1.1-0.4-1.3-1.2-2.1-0.6-1.1-1.2-1.3-1.8-1.6 0-0.1-0.4-0.2-0.8-0.8-0.9-1.1-2.7-4.9-2.8-7.6-1.8-6.7-1.5-17.8 0.1-0.1 4.4-1.5 5.2-4.4 3.8-2.3 2.9 0 3 0.8 3.7 0 4.5 0 3.7 0.7 3.7 0 3.7 0 1.5-2.2 2.2-1.5 1.5-5.3 0-3.7 4.5 0 0.7-7.5 0.8-3.7 0-4.5 0.7 0 3.7 0.8 4.5 0 5.2 0 7.4 0 4.4 0 6 1.5 5.9 0 5.2 0 3.7-2.3 3-1.5 6-1.5 3.7-3.7 6.7-5.3 3.7-3.7 6.7-3.7 5.2 0 5.2 0 2.9-1 1.5-0.5-0.7 3-1.5 4.5 2.2 2.2 2.2 0.7 4.5 0 3 0.8 3.7 0.7 0 3.8-1.5 1.5-2.2 1.5 0.7 2.2 2.2 1.5 2.3 0.8 0 3.7-0.8 1.5-2.2 1.5-1.5 3 0 3.7 0 0.8 0.7 2.2 2.3 0.7 2.9 1.5 3.8 0.8 1.4 0 1 0.2z" id="CIGD" name="Gôh-Djiboua">
  </path>
  <path d="M741.3 832.3l-4.7-2.6-9.8-1.3-4.5-1.3-2.1-3.2 2.7 0.9 2.9-0.3 2.6-1.4 1.6-2.1 2 2.5 1 1.1 1.2 0.4 0.9-0.4 0.4-0.8-0.1-1-0.7-0.8 0-1 1.9 0.4 4.9 2 1 0.1 1.4-0.5 3.2 1.2 4.4 2.4-0.2 1.1-8.1 1.5-1.9 3.1z m-62.4-13.4l-1.1-1.6 0.7-6 2.3-6.7-0.8-3.8 1.5-4.4 2.2 0.7 3.7-3.7-0.7-3.7-0.7-2.3 0-3.7 0-6 0-1.5 6.6 0 9.7 1.5 2.2 0.8 3.7-0.8 8.2 0.8 3-1.5 3.7 0 4.5-3 3.7-0.8 0.7 0 0 5.3 0 5.2 3 0 1.5 1.5 1.5 0.7 1.4 2.3 1.5 1.5 3 2.2 0.7 2.2 0 1.5 2.3 1.5 0.7 2.3 0 1.4-0.7 4.5 0 3 0.4 0.2-0.4 0.1-0.5 1.3 0.4 0.8 3 2.1 3.5 4.8 2.2 2.3 2.4 1.1-1.2 1.8-2.2-0.2-2.4-0.5-1.8 0.9-1.1 0-1.7-2.1-1.3-0.6-1.5 0.1-2.2-0.3-1.5-0.5-1.7-1-1.3-1.4-0.3-1.8-0.7 0.6-0.8 0.6-0.4 0.6-0.6-1.1-0.4-1.2-0.2-1.1 0.1-1.5-1 0-0.2 2-0.6 1.7-1.2 0.9-1.7-0.6-1.1 0.8-1.6 0.2-1.6-0.3-1.6-0.7-3.3 0.5-1.6 0.4 1.4 1.3 2.2 0.5 2.3-0.1 1.8-0.8 2 2-1.9 1.5-2.4 1.4-2.5 0.5-2.4-1-1.7-1-3.1-1.4-3-0.9-1.3 0.4-1.2 1.3-2.6-0.7-4-2.1-1.9 0.6-1.5 0.9-1.5 0.5-1.9-0.9-0.8 0.8-1 0-1-0.7-1-1.2-3.8 2.6-1 0.4-0.9 0.3-2.1-0.4 0.3-0.6 0.4-1.7 0.3-0.6-2.2-0.4-1.4-0.3-1.6 0.3-1.3 1.2z m13.5 12.3l-2-5-2.9-1.5 1.2-0.2 3.7-2.1 2.2-0.4 17.4-0.5 4.4 1.5-1.3 0.6-1.4 0.3-1.5 0.1-1.6-0.1 10.5 4.9-28.7 2.4z" id="CIAB" name="Abidjan">
  </path>
  <path d="M719.1 431.4l-0.8 6.5 0.8 2.3 2.1 0 2.4-0.7 2 0.4 1.4 0 1.4-1.1 1.4-0.1 1.1 2.7-0.4 1.3-1.1 1.4-2.5 2.1-1.9 0.9-1.3 0.3 0.1 0.5 2.3 1.3 2 0.7 4.2 1 1.5 1.2 1.8-1.6 1.9 1.4 0.6 1.1 0.8 1.5 0.7 2.5-0.3 0.8-0.8 0.8-0.6 0.9 0.2 0.9 1 1.2 0.4 0.6 0.8 2.8-0.2 1-1.5 0.7 0 1 3.1 0 2.2 0.5 1.5 1.4 1 2.9 1.5-0.7 1.4 0.1 1.1 0.6 0.9 1 2.8-0.3 3.1 0.3 1.8 1.6-1.1 3.3 1.3 4.6 1.6 1.6 3.5 0.7 1.7 0.9 0.5 2 0.1 2 0.5 1 1.7 0.5 0.8 1.3 0.8 1.3 1.2 0.8 5.6-1.5 2.8 0.7 1.2 4.2-0.8 1.7-2.8 2.7 0.2 1.4 1.2 0.8 1.6 0.8 1.9 0.6 1.5 0.2 1.2 0.6 0.6 0.9 0.5 1.1 3.1 4.6 0.4 0.1 0.9 5.8-0.4 2.3-2.3 1.2 0.2 3.2-2.1 3.3-1.3 2.1 0.3 3.1 1-0.4 1-0.6 0.1 0.5 0 0.3 0.2 0.2 0.6 0-0.9 2.2-1.1 0.7-2.8 0.1-3.7 0.8-0.2 0.8 0.1 4.2 0.3 1.5 0.1 1.5-0.5 1.8-0.8 1.8-0.6 0.9-0.8 0.5-1.7 0.8-0.5-2.4-1.4-0.5-1.8 1-1.1 1.9 0 1.7 1.3 4.6 0.6 1.4 1.2 1.5 1.6 0.7 4 0.8 0.1-0.5 1-0.6 1.2-0.2 0.5 0.7-0.1 1-0.4 0.8-0.6 0.4-0.8 0.4 1 2.3-1.8 0.2-5.1-1.6-0.3 3-1.9 1.4-4.4 0.5-2.6 1.1-1.5 1.5-1.1 1.7-1.7 1.5-5.2 0.9-3.4 3-0.7 3.7 1.3 2.3 1.4 0.1 0.8-3.3 2 1.5 1.4 2.7 0.3 2.5-1.2 1.2-1.4 0.9-1.9 2-1.6 2.6-0.4 2.3 1.2 0.7 2.4 2.1 1.4 2-1.6 1-0.3 1-6 5.9 3.6 7.6-0.2 3.1-4.4 1.9 2 1.6 0.9 1.8 0.7 2.1 0.4 0.7 0.4 0.7 0.4 0.9 0.3-0.1-1.3 3.5-7.5 3-5.9 3-3.7 1.5-5.2 1.5-3-3.8-5.2 0.8-1.5 0-1.5 0-2.9 1.5-2.3 0-5.9 1.5-2.2 5.2 0 3.7-2.3 4.5-2.2 2.3-0.7 5.2 0 3.7 0 2.3 0 4.5 0.7 2.9 1.5 9-1.5 3-5.9 0-5.2 0-2.3 2.2-0.7 0.8-1.5 0-5.9-4.5-7.4-0.7-5.2-2.3 0-3.7-5.2 0-1.5 0-1.5 2.2-3 0.8-3.7 0-3 0-3.7 0-11.9-4.5-8.1-0.8-5.2 0-5.2 3.8-3 0.7-0.8 0-5.9 0-6.7-0.7-5.2-0.8-3.7-1.5 1.5-4.5-3 0-4.4 0-5.2 0-5.2 1.5-5.2 0.8-3-2.3-5.2-4.4-5.9-5.3-2.3-0.7-3.7 0-2 0.2-1-0.2-1.4 0-3.8-0.8-2.9-1.5-2.3-0.7-0.7-2.2 0-0.8 0-3.7 1.5-3 2.2-1.5 0.8-1.5 0-3.7-2.3-0.8-2.2-1.5-0.7-2.2 2.2-1.5 1.5-1.5 0-3.8 0.7 3-0.7 3.8 1.5-3 1.4-2.3 0.8-2.2 1.5-5.2 0.7-3.8 2.2 0 3.8 2.3 0-6-1.5-3.8 0-2.2 0.7-1.5 0-2.2 1.5 0 0.7-0.8 1.5-0.7 2.3 0.7 3.7 1.5 5.9 0 1.5-2.2 4.5-3 4.4-2.3 5.2-5.2 1.5-5.2-3.7-0.8-2.2-6 0.7-6.7-5.2-2.3-3.7 0-1.5-1.5-2.2-3.7-3-4.5-5.9-0.7 0-3.8-6.7 0-8.9 0-11.9 3.8-3 0.7-4.4-1.5-3.1-0.3-5.1-0.4-1.5-3.8 0-6-0.7-3-0.8 0-0.7-1.5-3 1.5-4.5 0.8-3.7-0.8-0.7-2.2-0.8 0-0.7-3-1.5-0.7-5.2 0-0.7-3 1.5-3 0.8-2.2 1.6 0.2 2.3 0 16.2-4.1 5.9-2.5 1-0.1 1 0 1.3 0.5 0.9 0.7 0.6 0.8 2.9 4.2 2.5 2.7 0.8 0.6 0.9 0.5 0.9 0.3 1 0.1 1.3-0.2 4.5-1.2 0.9-0.1 2.7 0.5 1-0.3 1-0.7 2.6-3.3 1.1-1.1 1.8-0.8 1.1-0.1 1 0 0.9-0.2 0.7-1 1.6-3.3 2.5-2.9 15.8-7.7 1.5-1.2 0.9-1.1 0.3-0.9 0.9-1.8 0.5-0.9 0.7-0.8 0.8-0.8 0.9-0.7 2-1.2 7.9-3 1.8-1 1.1-1.1 2.1-3.9 2.5-3.1 1.6-0.8 2.2-0.6 8.3-0.5 1.1 0.1 1.2 0.4 1.8 1.1 2.6 2.6 0.8 0.5 3.6 0.4 11.3-0.4 3-3.7 3.6-2.5 0.8-0.7 1.5-1.6 1.3-1.9 0.8-0.9 0.8-0.6 0.8-0.3 0.8 0 0.9 0 4.5 1.2 0.9 0.1 0.7-0.9 0.4-1.6-2.2-16.8-0.4-1.5-0.4-0.8-0.2-2.4 1.3-5.5 5.5-1.2 1 0 1.5 0.1 2.9 1.1 1.8 0.1 1.7-0.2 2.3-0.6 2.1-0.9 3.7-3.2 11.1-5.5 2.6-2 8-8.8 3.2-4.8 0.7-0.7 1.1-0.9 3-0.9 20.8-4.2z" id="CILC" name="Lacs">
  </path>
  <path d="M786.1 529.8l4.5-1.4 0.7-0.2 0.5 0.1 2.3 0.7 0.9-0.2 1.2 0.8 0.6-0.1 0.7-0.2 0.7 0.3 0.9 0.5 1.8 0.9 0.8 0.8 0.6 0.7 2.1 7.2 0.3 0.7 0.4 0.6 0.5 0.6 1.5 1.3 2.3 2.7 0.8 0.3 0.7-0.1 0.5-0.4 0.9-1.2 1.1-1.9 1.8 0 3 0.4 10.3 3.2 1.7 1 3.1 2.5 4.8 2.9 2.2 2 1.7 1.8 5.8 11.3 0.2 2.6 0 0.1-0.1 0-1.7 1.1-16.3 28-2.4 5.5-0.2 5.2 0.7 1.4 1.7 2.3 1.8 3.4 0.1 0.3 0.4 0.9-2.8 7.8-0.8 0.9-2.6 1.5-0.3 0.5-0.7 1-0.2 2.3 11.1 50.2 1.7 2.1 0.4 0.5 4.2 3.8 3 7.9 4.3 23.6 2 5.1 5.5 10 1.7 5.1 0.2 2.7 0.1 2.5-0.6 7.7-0.7 8.4 9.1-0.7-1.4 8.8 0.8 3.7 3.3 1.8 2.8-0.3 4.5-2.8 2.3-0.9 10.1 2.6 1.8 1.5 1.1 1.8 0.5 2.3 0.4 7.4 2.5 10.2 3.8 9 0.6 2.6-0.3 2.5-1.1 1.3-0.2 0.1-0.6 0.1-0.4-0.1-0.7 0.1-0.5-0.1-0.3-0.5-0.4-0.5-0.3-0.5-0.6 0-0.2 0.5-0.4 0.4-0.5 0.5 0.1 0.3-1.9-0.4-1 8.8 0.4 1.9 2 2.9 0.6 1.6-0.1 1.2-0.5 3 0.1 1.3 0.4 0.5 1.9 1.6 0.7 0.9-1.3 2.6-2 1.5-3.3 0.5-5.6-0.3-0.3-3.9-4.7-0.6-5.8 0.7-3.7-0.1 1.1 2.8-0.7 2.9-2 2.2-2.8 0.9-2.2-0.7-7.5-3.5-2.3-1.7-2.8 0.8-5.6 0.1-2.4 1.1-1.1-2.7-2.2-3.2-2.6-2.7-2.2-1.2-1.2-1 1.5-2.3 2.2-2 0.9-0.5 0.6-2 0.5-4.2 0.8-1.6 1.9-1.2 1.5-0.4 1-0.9 0.3-2.8-0.3-2.1-0.9-1-1.7-0.3-2.3 0-0.7 0.3-0.8 0.7-1.1 0.7-1.2 0.3-1.2-0.2-1.9-0.8-1.3 0-1.3 0.4-2.7 1.9-1.8 0.7 1.4 3.2 0.7 2.9-1 2-4 0.5 0.6 1 0 1-0.6 1-1 0.9 1.3 0.9 0.6 0.2-0.9 0 1.3 0.5 1.5 0.3 1.5 0.2 1.5-0.1 0 0.9-1.3 0.6-2.1-0.1-1.5 0.4-1.2 0.9-1.1 1.2-0.9 1.4-0.6 1.5-1.5-1-1 0.5 0.2 1.3 2.3 1.1-0.9 1.9 0.9 1.1 1.8 0.6 2 0.3-5.1 4.2-9.3-0.5-22.7-4.8-13.1-2.8-6.6-0.4-4.5-0.9-1.1-0.4-0.5-0.7 0.3-1.3 0.3-1-0.2-1-1.4-1.2 1-1.8-1.4 1.2-1.1 1.8-0.8 2-0.4 1.8-1.1 0-1.7-1-2.7-0.2-5.7 0.2-1.9-0.5-1.7-0.9 1.9-3.1 8.1-1.5 0.2-1.1 0.7 0.4-0.3-0.9-0.2-0.9-0.1-0.5-0.3-0.8 0.6 0 1.6 0.1 3.7 0.5 1.5-0.6 0 0.1 0.8 1.5 2.2 1.5 3 0 0.7 0 0.8 0 1.5-0.8 1.4-2.2 2.3 3 5.2-3-1.5-2.3-0.8-3 0-2.2 3.8-0.7 2.2-3.8 0-3.7 0.7-3 0-4.5-0.7-4.4 0.7-9.7 1.5-1.5 1.5-2.3 5.2-1.5 4.5 0 4.4-2.2 6-3 2.9-1.5 0-3.7 0-6 0-3.7 0-1.5 0-3.7-1.5-1.5-2.9-1.5 0-1.5 0-2.3 2.2-2.2 2.2 1.5 1.5-2.2 2.2-2.3 5.2-8.2-0.7-0.7-4.5 0.7-7.4 3 1.5-4.5-3-2.2 0.8-2.3-2.3-3.7 3-1.5 0.8-1.5 0.7-2.2 0.7-6 1.5-3 0.8 0 1.5-3-2.3 0-1.5-2.2-0.7-2.3 0.7 0 0.8-1.4 0-1.5 0-0.8 1.5 0-3-3-0.7-5.2-4.5 3-2.2-4.5 0-2.2-2.3-0.8 3 0 2.2-0.7 0-0.8-0.7-3-3.7-3.7-2.2-3-2.3-3-2.2-4.5-1.5-3-2.2-2.9-1.5 2.9-1.5 0 0 0.8-2.2-0.8-5.2-3.7-1.5 0 0-1.5-1.5-1.5 0-3.7 0-5.3-3-8.2-0.7-2.2-0.7-0.8-2.3-6 0.8-2.9-1.5-3-2.2 2.2-1.5 2.3-3.7-2.3-4.6 1.7-0.4-0.7-0.4-0.7-0.7-2.1-0.9-1.8-2-1.6 4.4-1.9 0.2-3.1-3.6-7.6 6-5.9 0.3-1 1.6-1-1.4-2-2.4-2.1-1.2-0.7 0.4-2.3 1.6-2.6 1.9-2 1.4-0.9 1.2-1.2-0.3-2.5-1.4-2.7-2-1.5-0.8 3.3-1.4-0.1-1.3-2.3 0.7-3.7 3.4-3 5.2-0.9 1.7-1.5 1.1-1.7 1.5-1.5 2.6-1.1 4.4-0.5 1.9-1.4 0.3-3 5.1 1.6 1.8-0.2-1-2.3 0.8-0.4 0.6-0.4 0.4-0.8 0.1-1-0.5-0.7-1.2 0.2-1 0.6-0.1 0.5-4-0.8-1.6-0.7-1.2-1.5-0.6-1.4-1.3-4.6 0-1.7 1.1-1.9 1.8-1 1.4 0.5 0.5 2.4 1.7-0.8 0.8-0.5 0.6-0.9 0.8-1.8 0.5-1.8-0.1-1.5-0.3-1.5-0.1-4.2 0.2-0.8 3.7-0.8 2.8-0.1 1.1-0.7 0.9-2.2-0.6 0-0.2-0.2 0-0.3-0.1-0.5-1 0.6-1 0.4-0.3-3.1 1.3-2.1z" id="CICM" name="Comoé">
  </path>
 </g>
 <g id="points">
  <circle class="4.663182285406888|-8.313100260623267" cx="111.8" cy="909.4" id="0">
  </circle>
  <circle class="7.216148959961368|-5.256904378144807" cx="543.1" cy="547.1" id="1">
  </circle>
  <circle class="10.40735730315447|-2.811947672162038" cx="888.2" cy="91.3" id="2">
  </circle>
 </g>
 <g id="label_points">
  <circle class="Denguélé" cx="243.2" cy="203" id="CIDN">
  </circle>
  <circle class="Zanzan" cx="827.5" cy="370.9" id="CIZZ">
  </circle>
  <circle class="Lagunes" cx="643.7" cy="742.2" id="CILG">
  </circle>
  <circle class="Savanes" cx="462.4" cy="202.4" id="CISV">
  </circle>
  <circle class="Montagnes" cx="202.8" cy="586.9" id="CIMG">
  </circle>
  <circle class="Bas-Sassandra" cx="352.1" cy="809.2" id="CIBS">
  </circle>
  <circle class="Sassandra-Marahoué" cx="390" cy="572.8" id="CISM">
  </circle>
  <circle class="Vallée du Bandama" cx="608.3" cy="391.6" id="CIVB">
  </circle>
  <circle class="Woroba" cx="351.9" cy="375" id="CIWR">
  </circle>
  <circle class="Yamoussoukro" cx="540.4" cy="590.8" id="CIYM">
  </circle>
  <circle class="Gôh-Djiboua" cx="487.7" cy="711.6" id="CIGD">
  </circle>
  <circle class="Abidjan" cx="711.1" cy="798.7" id="CIAB">
  </circle>
  <circle class="Lacs" cx="661.4" cy="580.3" id="CILC">
  </circle>
  <circle class="Comoé" cx="792.6" cy="602.2" id="CICM">
  </circle>
 </g>
</svg>