<?xml version="1.0"?>
    
<!--********* Copyright (c) 2024 Pareto Softare, LLC DBA Simplemaps.com ***************************************
************* Free for Commercial Use, full terms at  https://simplemaps.com/resources/svg-license ************
************* Attribution is appreciated! https://simplemaps.com *******************************************-->

<svg baseprofile="tiny" fill="#6f9c76" height="1000" stroke="#ffffff" stroke-linecap="round" stroke-linejoin="round" stroke-width=".5" version="1.2" viewbox="0 0 1000 1000" width="1000" xmlns="http://www.w3.org/2000/svg">
 <g id="features">
  <path d="M308.8 827.3l0.1 0 1.3-0.6 0.5-0.4 0.5-0.4 0.7-1 0.8-0.8 0.8-0.7 2.1-1.2 0.5-0.4 0.3-0.4 1.8-3.4 0.1-0.2 0.1-0.2 0-0.4-0.1-0.8 0-0.4 0.2-0.2 0.7-0.8 0.2-0.3 0.2-0.3 0-0.2 0-0.3-0.4-1.1 0-1 0-1.6 0.3-1.3 0.2-0.3 0.3-0.2 1.3-1.2 0.6-0.6 1.1-1.7 0.3-0.5 0.3-0.5 0.4-0.6 0.5-0.5 0.2-0.1 0.3-0.2 0.6-0.2 0.4-0.1 1.8-0.3 0.4-0.1 0.2-0.1 0.2-0.1 0.5-0.6 0.1-0.1 0.2-0.1 1.1 0.5 1.5 0.9 1.3 1 0.6 1.5-0.7 2.6 3.9 12.9 0.6 0.3 6.2-1 24.8-7.3 2-0.6 5.1-1.1 1.8 0 1.4 0.2 0.6 0.5 0.4 0.6 0.5 1.6 0.3 1.8 0.4 0.4 3.3-0.1 3.7-0.6 1.8 0.3 1.1 0.5 0.7 0.4 1 0 2.4-0.4 0.9 0 1 0.7 2.3 2.9 0.9 2 1.3 5.9 0.8 1.2 0.9 0.7 0.8 0.2 0.7 0.5 0.4 0.8 0.4 2.3 0.4 0.8 1 0.7 3.3 3.5 2.9-0.5 2.2-0.3 3.3 0.6 1.3-0.1 3.2-0.7 12.3 0.1 1.8-0.2 3.8-1.2 5.9-2.8 0.9-0.6 1.1-3 0.7-2.1 2.5-4.6 0.8-0.7 1.8-0.6 0.9-0.5 1.6-1.1 3.6-1.9 0.6-0.8 2.5-4.9 1.4 0.7 1.4 1.1 2.8 0.6 1 0.5 1.7 1.2 8.9 4.3 1.2 0.8 0.1 0.6-0.4 1-0.1 0.2-0.3 0.5 0.2 0.9 0.9 0.3 1.3-0.1 3.8-1.2 1.6-0.9 2.7-10.1 1-1.7 2.7-2.8 8.4-6.8 4.4-4.6 0.9-0.5 0.9 0 0.6 0.3 0.4 0.3 0.5 0.7 1.9 3.8 1.6 2 1.3 1.3-1.4 9.5 0.1 0.7 0.1 0.6 0.4 0.9 0.9 1.5 2.5 3.3 5.5 5.2 2.1 2.5 2.9 5.1 1.2 3.5 0.8 3.9 0.2 8.9 0.3 1 2.3 3.3 0.4 0.3 1.5 0.6 0.6 0.4 0.2 0.3 0.3 0.2 1.9 0.3 1.4 0.6 1.1 0.3 2.6 0.1 1.1 0.3 1.1 0.7 1.5-1.4 0.1-0.2 0.6 0.4 1.4 1.4 0.5 0.1 1-0.1 3.5 1 1.1 0.5 0.4-0.6 0.5-0.5 0.5 0 0.5 1.4 0.5 0.2 0.6-0.2 0.2-0.6 0.5-0.9 1.1-0.3 1.3 0.2 0.9 0.7 0.7-0.3 0.4-0.1 0.4 0.1 0.7 0.3 0.9-0.9 1.1 0.3 0.8 1-0.1 1.2 1.9 0.7 0.5 0.6 0.5 1.9 0.5 0.5 0.9 0.1 1 0-0.5-0.8-1-2.4-0.1-0.6 0.7-1 0.8 0.1 0.8 0.6 0.7 0.3 1.5 1.8 0.7 0.4 1.1 0 0.6 0 0.2-0.3 0.3-0.9 0.5 0.2 0.6 0.6 0.2 0.4 2.9 1.8 0.9 0.3 4.6 0 1.1-0.4 0.2-0.9-0.5-2.2 0.3-1.1 0.8 0.1 1.1 0.5 1 0.3-0.8-1.3 0.1-0.5 1.2-0.4 3-2.5 0.9-0.5 1-0.3 0.9-0.3 0.7 4.8 2.5 54 0.1 0.2-3.3 0-12.2-0.2-13.5-0.1 0-1.9 0.3-2.4-0.3-1.1-0.8-1-1.2-1-1.2-0.9-0.9-0.4-0.5 0.1-1.1 0.5-0.8 0-0.5-0.2-1.1-0.9-2.2-0.4-2.4-0.1-0.7 0.3-0.9 0.6-1.6 1.5-0.7 0.4-3.4 0.4-2.2-1-1.2-0.3-1.1 0.5-0.9 0.3-1.4-0.2-2.3-0.9-0.8 0.8-0.9 0.3-1-0.1-1.1-0.4-0.7 0.9-1.6-0.3-1.8-0.8-1.3-0.4-1 0.4-0.9 0.8-1.1 0.7-1.6 0.3-10.7-1.6-1.8-0.7-1.3-1-1.8 0.5-1.4-0.5-4.4-1.4-3-0.2-4.4 1-1.4-0.3-2.6-1.6-0.9-0.3-0.8 0.1-1.6 0.8-0.9 0.3-1.5 0.2-3 1-1.6 0.3-3.4-0.2-3.2-0.5-1.4 0-4.7 0.3-5.9-0.3-6.1 0.5-6.9-0.2-2.6 0.3-1.2-0.1-4.1-1.3-1.6-1.3-0.8-0.5-1.1-0.1-1 0.2-2 0.8-21 0.7-0.2 0.7 0.4 1.1 0.1 1-0.5 1.1-0.6 0.9-0.5 0.9-0.1 1.2 0 1-0.2 1-0.3 0.9-0.5 0.9-23.5 0-23.6 0-23.6 0-1.1 0-17.3 0-5.1 0-10.6 0-1.6-0.3-5-2.5-1.4-0.3-1.4-0.5-2-1.4-1.8-1.6-1-1.3-0.2-1.6 0.3-1.6-0.1-1.5-0.9-1.3 1-0.9 0-0.5 0.6-1.4 0.2-14.7 2.4-10.5 1.4-3.3 0.3-1.3 0.3-10 0.8-3.6 1.2-3.2 1.5-2.3 1.6-2 1-2.2 0.2-2.5-3-11.5-1.4-1.9 0-0.5 0.7 0 0.5-0.1 0.9-0.4 0-0.3z" id="CMSU" name="Sud">
  </path>
  <path d="M644.9 294.9l0-0.1-0.1-0.2 0.7-4.8-0.8-1.3-7.3-2.2-1.2 0-2.4-0.5-1.6-2.2-2.5-1.8-0.3-0.3-2-2.9-1.1-0.7-2.5-0.9-4.3-0.8-1.6-0.1-3.2 0.3-3.1-0.3-5-1-1.1 0.1-1.2 0.3-1.3 1.1-0.7 1-0.4 0.9 0 0.9 0.3 0.9 1.2 1.7 0.4 0.9-0.4 0.8-1 0.6-5 1.6-1.8 0.9-1.2 0.4-1.6-0.2-2.9-0.1-3.8 1.2-1 0-0.9-0.4-0.7-0.7-1.6-2.6-0.3-0.6 0.8-0.4 1.6-1.3 1-1.2 1.2-2.7 0.2-1.1-0.2-0.9-0.5-1.6 0-1.1 1.8-4.9 2.7-15.1 2.9-10.1 2.2-4.6 14-20.1 0.5-1 0.5-1.3-0.5-3 0.4-1.7 0.8-1.3 1.3-1.1 3-1.8 0.9-1.2 1.4-3.2 1.9-3.4 2.6-3.3 2.9-3 3.1-2.5 2.4 0 3.1 0.9 5.5 2.4 1.6 0.2 1.8-0.5 1.7-0.8 1.4-1.1 2.1-2.2 1-0.4 2.1-0.3 0.7-0.3 7-6.5 1.4-0.8 4.7-1.5 1.7-1 2.9-2.6 1.6-1 4.1-1.5 1.3-0.7 1-1.5 0.8-1.9 0.6-2 0.3-1.7 0-2-0.5-1.6-0.9-1.4-1.3-1.3-0.4-0.5-0.3-0.6-0.3-0.5-0.6-0.4-1.3 0-0.3-0.1-0.7-0.9-0.2-0.8 0.4-0.7 2.9-3.8 0.6-1.3 1.7-8.2 0.9-2.6 0.3-2.7-0.1-0.6-0.1-0.8-1.5-3.5-0.1-1.6 1.4-0.9-0.2-0.8 1.4-5.8 0.4-0.9 0.4-0.5 0.2-0.5 1.5-1.6-0.1-0.8-0.4-0.8-0.9-0.5-0.7 0.2-1.1 0.6-1 0.4-0.4-0.4-0.6-1.7-1.2-1-1.6-0.9-1.5-1.1 0.7-0.4 0.3-0.1 0-0.6-0.8-0.4-2.4-1.8-0.5-0.5-0.2-0.8 0.4-1.2-0.2-0.8-2.2-1.1-5-1.3-16.2-0.5-1.2-0.2-1.1-0.7-0.7-1.2 0-0.9 0.4-2.5 0.1-1.5-0.4-1.4-0.2-0.4-0.1-6.2-4.4-21.5-4.4-21.5 1.6 0 26.2-0.2 0.8 0.5 0.6 0.3 3.6 5.7 0 0.1 1.2 1.2 0.6 1.2 0.3 1.4-0.2 1.6-1.2 3.7 0 1 0.8 1.2 2.4 1.8 1.4 1.5 0 3.1 0.2 0.7 0.3 0.4 0.4 0 0.7-0.3 0 0.8 0.1 0.8 0.4 0.4 0.7-0.1 0.1-0.1 1.4-1.1 0.6-0.1 0.1 0.1 0.5 0.2 0.1 0.4 0.1 0.5 0.2 0.5 0.3 0.1 0.5 0 0.2 0.1 1.3 1 0.1 0.1 0 0.1 0.7 0.3 0.6 0.1 0.1 0 0.6-0.1 1.1-0.3 0.2 0.1 1.1 0.4 0.5 1.3-0.7 1.7-0.1 0.2 0 0.1 0 0.5 0.4 0.7 0.1 0 0 0.1 0.1 0.1 0.3 0.1 0.9-1.5 0.4-0.3 0.1 0.1 0.6 0.2 0.7 0.7 0.5 0.8 0.2 0.7 0.1 0.1 0.5 1.2 1.4 0.2 2.6-0.6 0.2 0.5 0.7 1.2 1.8 6.7 0.8 3.2-0.3 0.4-0.2 0.3-0.4 0.9-0.2 0.6 0 0.9 0.1 0.1 0.3 0.1 0.5 0.4 0.1-0.1-0.1-0.1 0.3-0.1 0.1 0 0.5 0.2 0.4 0.3 0.1 0.3-0.2 0.9 0.1 0.4 1.1 1.9 1.3 6.2-0.2 0.7 0 2.7-0.1 2.9-0.1 1-0.4 1.3 0 1 0.2 0.5 0 0.1 0.4 0.3 0.4 0.5 0 0.2 0.1 0.6-0.4 0.5-0.6 0.2-0.4 0.3 0.3 1.2 0.1 0.1 0.3 0.4 0.7 0.5 1.3 0.9 1.7 2.1 0.8 0.6 0.5 0.2 0.8-0.1 1.3-1 0.1 0 1.4-0.2 1.4 0.7 0.7 0.5 0.8 0.8-0.4 0.5-0.3 0.9 0 0.9 0.4 0.8 0.6 0.6 0.1 0.5-0.2 0.4 0 0.2-0.1 0.8-0.1 0.2 0.8 1.2 1.4 1.2 0.2 0.7-0.1 0.1-0.1 0.1-0.5 0.1-0.6-0.3-0.5 0.1-0.3 0.2 0 0.2-0.1 0.1 0.1 0.3 0.1 0.2 0.7 1.4 0.1 0.7 0 0.5-0.2 0.5-0.2 0.1 0 0.1-0.2 0.1-0.1 0.1-0.3 0.1-0.2 0.1-0.1 0.1-0.2 0.2-0.1 0.1-0.1 0.4 0 0.1 0 0.2-0.1 0.1 0.1 0.2 0.1 0.5 0.2 0.5 0.2 0.4 0 0.3 0.1 0.2 0 0.1 0.1 0.9 0 0.2 0.2 0.5 0.1 0.1 0.2 0.2 0.2 0.2 0.1 0.2 0.4 0.2 0.1 0 0.1-0.1 0.3 0 0.2-0.2 0-0.2 0-0.1 0-0.1 0.1-0.2 0.2 0.1 0.5 0.8 2 4.7-0.3 0.4 0 0.1-0.2 0.1-0.1 0-0.2 0-0.6 0.1-0.3 0.1-0.1 0.1-0.4 0.3-0.1 0.1-0.1 0.2 0 0.2 0 0.1 0.1 0.2 0.1 0.1 0.3 0.2-0.3 0.5 0.1 0.3 0.9 0.8 0.1 0.5-0.1 0-0.2 0-0.1 0-0.1-0.1-0.6-0.2-0.2-0.1-0.2 0-0.2 0.1-0.2 0.1-0.3 0.3-0.3 0.7 0 0.1 0 0.1 0 0.4 0.1 0.2 0 0.2 0.1 0 0 0.2 0 0.1-0.1 0 0 0.1 0.1 0.2-0.1 1.4 0.2 1.6 1.2 3.6 0.9 1.4 0.3 0.5-0.2 0.3 0.3 0.5 0.1 0.1 0.1 0.1 0.8 0.3 0.8 1 0.9 2.6-1 2.3-0.1 0-0.5 0.3-0.5 0.2-0.1 0.1-0.1 0.2 0 0.3-0.1 0.3-0.1 0-0.1 0.1-0.2 0.1-0.2 0.1 0 0.1 0 0.3-1.7 1.9-0.7 1.4-0.5 1.6 0 0.3-0.1 0.2-0.1 0.8 0 0.1 0 0.1 0 0.1-0.3 2.5-0.4 1.3 0 0.9 0.1 0.2 0 0.1 0 0.2-0.2 0.4 0.3 0.7 0 0.3-0.2 0.3-0.1 0-0.7 0.2-0.3 0.2-0.1 0 0 0.1-0.1 0.2 0.3 0.7 0 0.2 0 0.2-0.5 0.1-0.1 0.1-0.2 0.2 0 0.3 0.4 0.5 0.1 0.2-0.1 0.7-0.2 1 0 0.1 0 0.3-0.6 4.9 0.6 8.2 0.5 6.9 2.2 5.1 0.8 1.2 0.5 1.4-0.3 2-1 3.5 0.2 3 6 11.7 0.6 1.9-0.1 1.3-0.8 1.4-0.4 1.9-0.1 2 0.5 1.5 0.5 0.5 0.7 0.3 0.9 0.2 0.9 0.1 0.8 0.2 0.6 0.4 0.3 0.3 1.6 0.8 0.7 1.4 1.1 2.9 1.2 1.3 1 0.9 0.8 0.9 0.3 1.6 0 0.5 0 0.3 0.1 1.2 0.5 1.7 0.9 1.3 10.8 10.2 3 4.2 0.5 0.3 0.6 0.3-0.1 0.4 0.3 0.2 1.2 1 1 1 1.2 0.9 5.2 3.2 2.4 0.8 0.4 0.1 3.4 3.1-1.4 0.4-16.5 4.1-1.2 0.2-4.4 0.2-12.5-4.1-0.7-0.2-3.9-0.2-0.8 0-3.6 0.4-0.7 0.2-0.9 0.5-0.6 0.6-0.8 0.7-0.8 0.5-2.3 0.6-2.4-0.2-4.6-1.1-3.6-0.2-1.1 0.4-6.9 2.2-1.9 0.5-2.7-0.1-0.4 0-23-5.7-19 1.2-0.3 0.1z" id="CMEN" name="Extrême-Nord">
  </path>
  <path d="M727.7 511l-0.1 0-0.2-0.2-0.6-0.2-0.9-0.2-1.1 0.1-1.2 0.5-1.8 1-4.9 4.3-1.1 0.7-1.2 0.4-1.8 0.2-1.2 0-1.3 0.2-1.2 0.4-16.4 7.2-5.9 3.6-0.9 0.5-1 0.4-0.9 0.2-0.9 0.1-0.9 0-1-0.3-1-0.7-0.6-0.4-1.2-1.8-4.9-1-1.9-2.8-0.5-1.1-0.7-1.2-0.9-1-1.3-0.8-1-0.4-1.1-0.1-5.7 0.5-1.9 0-1-0.2-0.9-0.5-0.6-0.7-0.1-1.3 0.2-1 0.2-1-0.3-4.4-1.2-2.5-1.2-1-0.9-0.5-1.4-1.1-4.2-4.5-1.5-2.6-0.2-1.3-0.5-0.7-0.8-0.8-3.3-2.5-0.4-0.5-0.5-0.7-0.3-0.9-0.6-2.8-0.6-0.7-0.8-0.3-13.7-1.5-2-0.5-0.9-0.7-0.6-0.7-0.1-3.5-0.9-1-1-0.2-1.8 0.2-9 2-0.9 0.1-0.9-0.1-2-0.7-1.1 0-1.4 0.3-1.1 0.4-1.9 1.2-0.9 0.4-2.8 1-0.8 0.6-1 1.1-0.8 0.3-1-0.2-4.2-2.7-1.7-0.8-1.4-0.7-1.3-1.2-0.8-1-2.1-1.6-5.6-1.2-0.8 0.5-0.6 0.9-0.8 0.8-0.2 0.7-0.2 1-0.2 3.2-0.6 0.9-4.1-0.2-2.2 0.3-1.9 0.5-1.7 0.4-1.1-0.1-1.2-0.3-6.8-3.6-1.1-0.3-12.6-1.9-6.4-1.8-1.3-1.3-2-0.9-0.8-0.1-1-0.3-1.9-0.7-1-0.6-0.7-0.8-0.6-1.3-0.1-2.4-0.2-1.8 0.2-0.9 0.5-0.6 0.5-0.8 0.1-0.8-0.3-0.9-1.6-2.6-0.7-0.8-1.3-0.4-1-0.1-3-0.1-2-0.3-1.7-0.6-1.9-0.9-15-13.7-3.3-4.6-1-0.9 0.3-0.7 0-1.6-1.2-6.4-0.2-3.6 0.6-3.4 1.8-2.6 1.7-0.8 3.1 0.6 1.6-0.3 1-0.6 0.6-1 0.5-0.9 0.6-0.8 2.4-1.7 0.6-0.7 0-2.2-0.2-1.2-1.9-4.5-0.6-1.1 2.1 0.7 1.2 0.2 1.1-0.2 1.2-0.5 0.9-0.6 1-0.6 1.4-0.1 1.1 0.3 2.5 1.1 1.2 0.3 1.2-0.3 8-4.3 1.4-1.5 1.2-2.6 0.7-2.3 0.6-0.9 0.9-0.4 1.1 0 1 0.2 1 0 1-0.4 1.7-2.4 0.9-3.4 1.8-15-0.6-2.9 0.1-3.3 1.6-3.8 3.6-6.5 0.5-1.4 0.3-1.5 0.1-3.1-0.7-2.4-0.7-1.7-2.3-0.3-0.3-0.3 0.5-1.4 0.5-0.4 4.7-2.2 0.6-0.5 0.9-0.8 2.3-3 1-0.8 5.5-2.4 6.2-1 5.1-2 2.2-5.7 0.4-5.2 1-5.4 0.8-1.9 0.7-1.3 0.2-1.3-0.9-1.8-2.2-2.3-0.8-1.3-0.2-1.8 0.6-1.7 1.9-2.9 0.3-1.9-0.3-1.5-0.9-2.6-0.1-1.6 1.4-2.8 2.7-1 6.1-0.7 1.5-0.6 1.1-0.7 0.3 0.6 1.6 2.6 0.7 0.7 0.9 0.4 1 0 3.8-1.2 2.9 0.1 1.6 0.2 1.2-0.4 1.8-0.9 5-1.6 1-0.6 0.4-0.8-0.4-0.9-1.2-1.7-0.3-0.9 0-0.9 0.4-0.9 0.7-1 1.3-1.1 1.2-0.3 1.1-0.1 5 1 3.1 0.3 3.2-0.3 1.6 0.1 4.3 0.8 2.5 0.9 1.1 0.7 2 2.9 0.3 0.3 2.5 1.8 1.6 2.2 2.4 0.5 1.2 0 7.3 2.2 0.8 1.3-0.7 4.8 0.1 0.2 0 0.1-1.1 0-0.7 0.3-0.2 0.6 0 0.8-0.2 0.8-3.8 7.6-2.5 3.4-6.4 5.6-4.8 7 0.1 1.1 7 5.6 22.5 26 0.7 3.4 1.5 2.5 11.6 9.4 2.1 1.7 3.8 3.1 4.8 3.8 12.7 10.3 0.7 0.2 0.6 0.2 0.1 0 0.6-0.2 0.7-0.2 0.7 0.1 0.7 0.1 0.6 0.3 0.5 0.3 3.1 2.3 0.7 0.8 0.3 0.6 0 0.2 0.1 0.2 0.5 0.4 0.6 0.2 0.6 0.5 0.4 0.7 0.7 2 0.2 1 0 0.7 0.3 0.6 1.1 0.3 2.9 0.4 2 0.7 1.6 1.1 1.3 1.6 3.4 5.5 4.5 4.5 1.2 1.6 2.1 4.5 10.6 22.8 4.9 17 2.6 6.6 3.8 2.7 1.3 0.1 0.4 0 2.4 0.5 1.8 0.4 0 0.9-0.1 7.2-1 4.7-2.2 4.4-3.2 4.2-0.6 1.1-4.2 5.8-0.3 1.2 1.5 1.5-0.2 1-0.3 0.1-1.5 0.1-0.5 0.1-0.5 0.4-0.6 1.3-0.3 0.5-3.7 2.9-6.1 3.4-1.1 1z" id="CMNO" name="Nord">
  </path>
  <path d="M727.7 511l-1.8 1.5-1.5 3.7-1.1 1.9-0.4 0.8-0.1 0.8 0.4 4.6-0.2 0.8-0.7 0.8-1.8 0.9-0.7 0.4-0.8 1.3-0.6 1.5-1.3 4.9-2.5 6.9-1.7 3.3-1.3 3.6-0.6 1.2-1 0.8-4.7 2.3-1.3 0.9-1.1 1.2-0.8 1.9-9 20.5-2 2.7-0.2 0.9 0.3 1.9 0.1 0.9-0.2 0.8-0.8 1.5-3 3.8-1.2 1-11.2 5.4-3.3 0-0.7 1.2-1.2 1.5-2.3 2.3-1.1 0.3-1.9 1.8-1 0.9 0.1 0.3 0 0.5 0-0.1-0.2 0-1.6-0.8-1.4-1.8-0.7-0.2-0.7 0.1-0.6 0.6-0.3 0.4-0.4 0.7-0.5 0.6-1 0.4-4.1 0.2-7.4 1.9-4.2 0.5-6.4 1-1.4-0.3-3.9-1.4-1.4-0.1-1.1 0.2-8.2 3.2-7.3 0.9-31 0.2-38.2 0-20.2 0-8.2-0.2-1.9-0.7-0.2-0.6-0.6-0.7-1.4-1.5-0.3-0.5-0.2-0.6-0.2-0.8-0.4-0.9-0.5-0.8-0.8-0.8-10.1-7.4-1.3-0.5-1.6-0.3-2.9 0-1.7 0.3-1.3 0.6-1.8 1.1-0.9 0.5-0.9 0.2-0.9 0.2-1.8 0.1-2-0.2-1.3-0.3-1.1-0.4-1.8-1-1.8-1.3-2.6-2.8-0.4-0.5-0.5-0.7-2.1 0.2-0.8 0.3-0.1 0.3 0.2 1.1-0.1 0.3-0.6 0.1-0.4-0.2-0.2-0.3-0.7-0.2-0.6 0.3-1.1 1.5-1 0.3-1 0.2-0.6 0.3-0.3 0.4-0.5 0.3-1.5 0.2-1.6-0.1-1.6 0.2-1.5 1-1.5 1.3-3.1 2-3.8 3.5-1.8 0.9-0.6 0.5-1.3 0.6-17.9 4-2.7 1.4-1.6 0.4-1.3-0.5-0.8 0.1-1.3 0.7 0.4-1.6 1.3-3.2 0-1.4-0.5-1.8-1.3-3.3-0.4-1.8-0.1-1.4 0.1-1.8 0.2-0.9 0.8-1.8 0.1-0.9-0.2-0.8-1.2-0.8-1.1-0.6-6.3-1.5 0.8-1.9 0.8-3.4 0.1-2.2-0.5-4.1 2.3-0.2 0.4 0.1 0.9 0.6 0.6 0.1 0.5-0.3 0.8-0.7 0.3-0.2 0.9 0.1 1.7 0.4 0.8 0.1 2-0.5 2-1 1.5-1.4 0.5-1.8 0.5-3.3 1.2-2.7 2.1-1.7 3.1-0.3 2.1-1.2 1.9-2.6 2.3-5.3 0.5-2.2 0.2-2.1-0.4-1.4-1.7-2-0.6-1.2 0.5-2.1 1.4-2 4.9-4.5 4.5-2.9 0.3-0.4 0.3-1 0.3-0.4 0.4-0.1 0.8 0.1 0.9-0.2 1.2-0.1 0.5-0.2 0.5-0.6 0.1-0.7 0.3-0.8 1.1-0.7 3.4-3.1 0.9-0.5 1.1-0.3 0.8 0 0.7 0.4 0.7 0.2 0.8-0.4 0.7-1.8-1-1.9-3.1-3.4-3.9-5.7-1.1-0.9-1.9-0.4-0.4-0.5 0.6-0.7 1.4-1 1.6-1.5 4.9-7.3 4.6-4.6 5-4.8 2.1-3.2 1.2-0.8 1-0.9 0.3-1.6-1.1-4.7-0.2-1.7 0.3-1.7 0.5-1.7 2.9-5.1 7.8-10.9 3-3.2 0.4-1.1-0.2-1.3-0.5-2-0.5-3.1 0-3 0.5-2 3.2-4.6 0.3-1 1 0.9 3.3 4.6 15 13.7 1.9 0.9 1.7 0.6 2 0.3 3 0.1 1 0.1 1.3 0.4 0.7 0.8 1.6 2.6 0.3 0.9-0.1 0.8-0.5 0.8-0.5 0.6-0.2 0.9 0.2 1.8 0.1 2.4 0.6 1.3 0.7 0.8 1 0.6 1.9 0.7 1 0.3 0.8 0.1 2 0.9 1.3 1.3 6.4 1.8 12.6 1.9 1.1 0.3 6.8 3.6 1.2 0.3 1.1 0.1 1.7-0.4 1.9-0.5 2.2-0.3 4.1 0.2 0.6-0.9 0.2-3.2 0.2-1 0.2-0.7 0.8-0.8 0.6-0.9 0.8-0.5 5.6 1.2 2.1 1.6 0.8 1 1.3 1.2 1.4 0.7 1.7 0.8 4.2 2.7 1 0.2 0.8-0.3 1-1.1 0.8-0.6 2.8-1 0.9-0.4 1.9-1.2 1.1-0.4 1.4-0.3 1.1 0 2 0.7 0.9 0.1 0.9-0.1 9-2 1.8-0.2 1 0.2 0.9 1 0.1 3.5 0.6 0.7 0.9 0.7 2 0.5 13.7 1.5 0.8 0.3 0.6 0.7 0.6 2.8 0.3 0.9 0.5 0.7 0.4 0.5 3.3 2.5 0.8 0.8 0.5 0.7 0.2 1.3 1.5 2.6 4.2 4.5 1.4 1.1 0.9 0.5 1.2 1 1.2 2.5 0.3 4.4-0.2 1-0.2 1 0.1 1.3 0.6 0.7 0.9 0.5 1 0.2 1.9 0 5.7-0.5 1.1 0.1 1 0.4 1.3 0.8 0.9 1 0.7 1.2 0.5 1.1 1.9 2.8 4.9 1 1.2 1.8 0.6 0.4 1 0.7 1 0.3 0.9 0 0.9-0.1 0.9-0.2 1-0.4 0.9-0.5 5.9-3.6 16.4-7.2 1.2-0.4 1.3-0.2 1.2 0 1.8-0.2 1.2-0.4 1.1-0.7 4.9-4.3 1.8-1 1.2-0.5 1.1-0.1 0.9 0.2 0.6 0.2 0.2 0.2 0.1 0z" id="CMAD" name="Adamaoua">
  </path>
  <path d="M409.1 576.8l0.5 4.1-0.1 2.2-0.8 3.4-0.8 1.9-3 2.9-1 0.6-1.5 0.7-1.1 0.1-1 0-6.2-0.6-0.6 1.8 0.5 3.7-1.1 5.1-0.6 1.2-0.8 0.9-0.9 0.7-3.6 2-3.6 1.3-1.7 0.2-1.3 1.8-3.5-0.8-5.5-1.1-1.1 0.2-1.3 0.4-0.5 0.6-0.3 0.8-3.1 7.5-3.2 5.3-0.7 0.4-1.8 0.6-4.2-0.3-1.4 0-13.9 2.6-1.3 4.8-0.6 0.8-0.9 0.7-0.8-0.2-0.6-0.6-0.4-0.8-0.5-0.9-0.7-0.6-0.9-0.4-3.8-1-1.2-0.1-0.8 0.2-0.6 0.3-4.9 3.7-2.4-0.8-4-0.9-3-1-4.4 2.3-4.9-2.3-4.7-1.4-2.3-1.2-1-1-0.7-0.9-0.6-1.4-0.5-0.5-0.8-0.3-2 0.4-1.8-0.5-2-2.7-0.9-0.9-0.8-0.5-0.8-0.3-0.7-0.7-0.3-1.1 0.9-4-0.8-1.1-0.6-0.5-0.1-0.1-0.1-0.1 0-0.1-0.1-0.1-0.3-0.6 0.4-1 1-1.3 7.7-4.8 1.9-2.3 1.6-0.5 0.8 0.3 0.9 0.2 0.8-0.3 0.5-0.9 0.5-1.4-0.1-2.5 0.5-1.7 0.4-4-3.8-12.4-0.8-1.5-1.1-3.3-1.9-3.1-1.2-1 6-19 1.4-1.7 1.9 0.2 1.5 0.7 1.6 0.5 1.8-0.8 19.3-16.4 1.9-1.1 1.1 0.3 0.6 1.3 1.1 5.8 0.8 1.5 1.7 1.3 2.2 0.7 20.3-0.3 0-1.8 0.3-1.2 0.7-1.1 0.9-1.3 0.5-0.4 0.5-0.1 0.3-0.3 0.5-6 0.7-3 0.9-2.9 1.2-2.2 1.4 1.8 0.5 3.9 1.4 1.2 2.1 0.7 5.5 2.9 6.4 2.4 2.6 1.8 1.3 3.2 0.7 3.6 1.6 3.4 2.5 2.6 7.4 1.3 2.7 2.1 1.5 3.2 0.2 3.8-0.1 3.1 0.2 3.1 1.4 6.2 1.5 3.7 1.3 1.2 2.1 0.3 4.9-0.5z" id="CMNW" name="Nord-Ouest">
  </path>
  <path d="M290.3 569.1l1.2 1 1.9 3.1 1.1 3.3 0.8 1.5 3.8 12.4-0.4 4-0.5 1.7 0.1 2.5-0.5 1.4-0.5 0.9-0.8 0.3-0.9-0.2-0.8-0.3-1.6 0.5-1.9 2.3-7.7 4.8-1 1.3-0.4 1 0.3 0.6 0.1 0.1 0 0.1 0.1 0.1 0.1 0.1 0.6 0.5 0.8 1.1-0.9 4 0.3 1.1 0.7 0.7 0.8 0.3 0.8 0.5 0.9 0.9 2 2.7 1.8 0.5 2-0.4 0.8 0.3 0.5 0.5 0.6 1.4 0.7 0.9 1 1 2.3 1.2 4.7 1.4 4.9 2.3 4.4-2.3 3 1 4 0.9 2.4 0.8 1.4 3.1-0.1 0.6-0.3 0.9-3.5 1.3-6.2 5.4-1.3 1.5-0.7 1.3-0.3 3.5-0.4 1.3-3.3 8.2-3 2.3-2.7 0.6-2.8 3.3-0.9 0.6-0.9 0.1-0.9 0-0.6 0.2-0.4 0.6 0.1 0.8 0.6 3 1.3 3.2 3 3.6 1.1 1.9 1.5 3.4 0.2 1.4-0.8 1-2.7 0.5-1.4 1.7-1 2.4-0.6 1.9-0.3 1.2 0.6 1 1.7 1.9-0.1 0.9-0.5 0.8-0.8 0.7-1.5 1.9-2.5 2.4-0.8 1.2-0.4 1.3-0.1 0.8 0 2.1-0.8 1.9-2.1 1.6-2.2 3.2-0.6 2.7-0.5 0.7-0.8 0.3-0.6 0-1-0.3-1.9 0.1-0.6 0.5-1.2 1.8-2.5 4.4-0.6 2.2-0.3 4.6 0.1 1.1 0.7 2.2-0.4 1.7-5.4 8.7-0.5 2.2-0.2 2 1.7 1 5.5 1 1.2 0.7 0.6 0.9 0.6 1.8 0.1 0.8-0.5 0.6-1 1-0.5 0.7-0.9 1.6-0.7 0.6-0.5 0.3-0.6 0.2-1-1.1-0.9 0.4-2.2 2.4 0.2 0.3-0.2 0.3-3.2 5.2-0.8 1.9-0.2 0.8-0.1 0.4-0.3 0.2-0.7 0.2-1.5 0.8-2.5 2.4-0.1 0-1.4-0.7-0.8-2.7 0.4-2.9 1.4-1.9 0-0.5-1.9 0.5-0.9 1.3-0.5 1.4-2.7 2.5-2.3-0.5-0.8 0.2 0.1-1.5 0.1-1.1-0.2-0.9-1.1-0.8-0.9-0.2-1.5 0-1.4 0.2-0.7 0.2-1.3-0.1-4.1-2.7-6.9-3.2-0.9-0.7-0.2-2.2 1.5-4.8 0.2-2.2-2.4-2.3-1.9-2.6-1.4-3.1-1.9-11.2 0.5-2 2-3.5 0.8-1.8-1.8 1.9-1 0.6-0.5-1.2 0.2-0.9 0.4-1 0.2-1-0.2-1.1-0.6-0.6-1.8-0.6-0.6-1.3-0.6-0.9-0.7-0.8-0.6-0.2-0.3 1 2.4 3.7 0.6 1.8-0.5 1.2-0.7 0.3-0.6-0.5-0.3-1.2-3.8-3-0.1 1 0.1 0.8 0.4 0.6 0.7 0.3-1.1 1.9-0.3 0.3-0.5-0.2-1.6-0.9-0.3-0.3-0.6-0.7-1.3-0.5-1.3-0.7-0.6-1.4-0.8-2.9-3.6-5-0.4-3.2-1.3 2 0.5 2.3 1.2 2.4 2 7.3 0.7 0.7 0.9 0.4 0.8 0.7 0.5 2-1.7 1-9.8 0.7-0.9-0.4 0.4-1 1-1.1 0.8-0.7-0.9-0.5-0.9 0-0.6 0.4-0.5 1.7-0.6 0.4-0.9-0.1-0.9-0.3-1.2-1.2-0.5-1.9 0.4-1.4 1.3 0.2 0.4-1 1.6-2.8-1 0.8-1 0-0.8-0.7-0.4-1.2 0.2-1.1 0.6-1.1 1.4-1.6 2.3-1.5 0.4-0.7 0-0.9-0.3-1-0.1-0.9 0.4-1 0.6 0.6-0.3-3.1 0.1-1.6 0.9-0.7 0.4-0.1 1.4-1.4-0.3-1.1-0.3-1.1-0.2-1.7 0.7-1.2 2.1-1.6 0.5-1.4 3.1-4.9 1.2-1.7 0.7-1.5 1.2-3.5 0.5-1 1.5-2.4 0.8-0.8 0.9-0.4 0.9-0.2 0.8-0.4 0.6-1 2.1-10.7-0.1-0.9-0.6-1.9-0.1-1 0.5-1.9 1.7-3.4 0.5-1.7 0-1.7-0.3-1.5-0.1-1.6 0.5-1.7 1.1-1.5 1.5-1.5 1.2-1.5 0.4-1.9-0.8-2.1-1.5-1.6-1.8-1.4-1.6-1.5-1-2 0.6-1.1 1.4-1.1 1.4-1.7 0.3-2-0.7-1.3-0.8-1.3-0.2-1.6 0.9-1.3 2.8-1.9 1-1.3 1.4-1.3 1.7 0.2 1.7 0.6 1.4-0.1 0.2-1.1 0.2-2.2 0.4-0.6 1.3-0.6 1-1.1 1.7-2.4 7.3-7.6 10.8-8.7 2-2.9 2.2-4.7 1.1-1.3 1.1-0.6 0.9 0 1 0 1.2 0 2.2-1.4 2.4-4.6 2.3-1.4 0.5-0.2 3.2-1.2 1.6-0.8 1.2-1.2 1.9-3.5 1.1-1 2.4-0.5 0.9 0 2.8 0 1-0.8 0.1-0.2z" id="CMSW" name="Sud-Ouest">
  </path>
  <path d="M602.9 914.9l-0.1-0.2-2.5-54-0.7-4.8-0.9 0.3-1 0.3-0.9 0.5-3 2.5-1.2 0.4-0.1 0.5 0.8 1.3-1-0.3-1.1-0.5-0.8-0.1-0.3 1.1 0.5 2.2-0.2 0.9-1.1 0.4-4.6 0-0.9-0.3-2.9-1.8-0.2-0.4-0.6-0.6-0.5-0.2-0.3 0.9-0.2 0.3-0.6 0-1.1 0-0.7-0.4-1.5-1.8-0.7-0.3-0.8-0.6-0.8-0.1-0.7 1 0.1 0.6 1 2.4 0.5 0.8-1 0-0.9-0.1-0.5-0.5-0.5-1.9-0.5-0.6-1.9-0.7 0.1-1.2-0.8-1-1.1-0.3-0.9 0.9-0.7-0.3-0.4-0.1-0.4 0.1-0.7 0.3-0.9-0.7-1.3-0.2-1.1 0.3-0.5 0.9-0.2 0.6-0.6 0.2-0.5-0.2-0.5-1.4-0.5 0-0.5 0.5-0.4 0.6-1.1-0.5-3.5-1-1 0.1-0.5-0.1-1.4-1.4-0.6-0.4-0.1 0.2-1.5 1.4-1.1-0.7-1.1-0.3-2.6-0.1-1.1-0.3-1.4-0.6-1.9-0.3-0.3-0.2-0.2-0.3-0.6-0.4-1.5-0.6-0.4-0.3-2.3-3.3-0.3-1-0.2-8.9-0.8-3.9-1.2-3.5-2.9-5.1-2.1-2.5-5.5-5.2-2.5-3.3-0.9-1.5-0.4-0.9-0.1-0.6-0.1-0.7 1.4-9.5 2.3-4.8 0.8-2.4 0.2-2-0.2-4.6 0.2-1.4-0.3-1-0.7-0.6-4.7-2-1.6-1.6-1.1-2.1-0.1-1.1 0-0.9 0.4-0.8 0.5-0.4 0.2-0.2 0.5 0 1.4-0.7 0.7-1 0.4-0.8 0.4-0.4 0.5-0.3 0.6-0.1 4.7-1.9 1.8 0 0.4-0.1 0.2-0.1 0.1-0.1 0.1-0.1 0.2-0.4 0.3-0.2 1.7-1.4 0.1-0.1 0.1-0.3 0.6-0.9 1.6-1.5 0.5-0.4 0.6-0.3 1.1-0.5 0.9-0.2 1.5-0.8 0.6-0.7 0.3-0.9 0-0.8-0.3-0.7-0.9-1.3-0.9-1.5 0-1.3 2.8-9.1 0.6-3.2 0-1-0.1-0.8-0.9-2.7 2.6-2.1 1-2 1.3-5.3 1.2-3.2 1-1.6 1-1.1 3.7-2.2 0.9-0.4 0.8-0.1 0.6 0 0.6 0.2 0.7 0.3 0.6 0.1 0.9 0.1 1.1 0 2.1-0.2 0.9 0.1 1.9 0.5 0.9 0.1 1-0.3 1.8-0.6 0.8-0.1 1 0.1 1.7 0.6 0.9-0.1 0.6-0.4 0.8-1.2 2.1-17.7-1.1-3-2.9-5.7-1.2-1.3-1-0.5-1.8 0-0.9-0.2-1-0.2-4-1.5-1-0.6-0.2-0.8 0.1-0.7 0.2-0.4 0.4-1.8-0.1-1.2-0.5-1.6-1.5-2.7-1-1.5-8.9-9.3-5.3-4.1-0.8-1.4 4-1 4.9 0.1 1.3-0.2 1-0.5 0.6-0.7 3.7-6.4 3.4-8.4 0.4-2.1-0.2-1.2-1.3-1.9-0.7-1.8-1.6-2.7-1.2-2.9-0.2-1.2-0.3-0.6-0.3-0.5-2-2.3-0.6-0.9-0.4-0.8-1.1-3.6-0.6-1.2-1.9-2.9-2.1-2.4-0.5-0.9-0.2-0.7-0.1-0.4 0.6-2.6-0.1-0.8-0.3-1.7 0.2-1.3 0.2-1 38.2 0 31-0.2 7.3-0.9 8.2-3.2 1.1-0.2 1.4 0.1 3.9 1.4 1.4 0.3 6.4-1 4.2-0.5 7.4-1.9 4.1-0.2 1-0.4 0.5-0.6 0.4-0.7 0.3-0.4 0.6-0.6 0.7-0.1 0.7 0.2 1.4 1.8 1.6 0.8 0.2 0 0 0.1 0.1 0.4-0.3 0.7-0.3 0.4-0.3 0.7-0.3 0.3-0.4 0-0.8-0.6-0.4 0-0.6 0.7-0.2 0.5 0.1 0.7 0.7 0.9 0.6 0.6 1 1.1 1.1 1 1.2 1.2 0.5 1.3 0.4 1.4 0.5 1.2 1.3 0.9 1.4 0 2.5 0.3 1.1-0.2 2.2-1.3 0.9 0.1 1.1 1.6 0.4 1.6 1.1 1.4 0.5 8.5 0.6 1.6-0.6 1.1-1 4.3-1.4 3.6-0.3 1.2 0.2 1.4 0.4 1.1 1.1 1.9 0.5 1.2 0.1 1-0.1 2.4-0.3 0.8-1.1 2.2-0.3 1.3 0.1 2.3-0.3 0.9-1.1 0.4 0 0.6-0.7 1.3-0.8 1.2-0.3 0.4-0.2 1-0.4 1.4-0.7 1.3-0.9 0.9-0.7 0.2 0.3 0.8 1.3 1.4 1.6 1.1 3.4 1.1 1.6 0.8 1.3 1.3 0.9 1.6 0.6 1.8 0.3 1.8 0 4 0.3 3.1-0.5 2.9 0 0.3-0.1 1.2 0.3 0.9 0.5 0.7 0.4 0.7-0.2 2.1 0.3 0.8 0.5 0.8 0.4 1 1.1 7.4-0.1 0.8-0.3 2-0.3 0.8-0.1 0.6 0.5 1.3 0.5 6 1.1 3.7 2 3.4 2.9 2.7 12.5 8.6 3.4 1.3 1 0.5 0.5 0.8 0.5 2 0.5 1.1 2.8 3.4 1.2 2.2 0.7 2.2 0.8 4.7 0.1 4.5 0.5 2.1 0.9 0.8 1.2-0.2 1.2 0.5 0.5 1.1 0.3 1.1 0.4 0.5 1.1 0 1.2 0.2 1 0.7 0.2 0.8-1.6 0.7-1.7 0.4-3.1 1.5-1.5 0.3-1.3-0.2-2.6-0.6-1.3 0 4.6 11.1 6.8 10 6.4 6.8 0.8 0.8 5.3 5.7 6.6 7 8.2 8.7 7.8 8.3 7.4 7.8 5.9 6.3 0.6 0.3 0.6 0.2 1 0.2 0.3-0.1 0.9-0.5 0.4-0.2 0.5 0.1 0.9 0.6 0.3 0.1 3.3-0.4 1.3 0.5 1.6 1.2 1.3 1.7 0.6 1.5 1.1 4 0.2 0.4 0.2 0.4 0.4 0.3 1-0.4 0.9-0.2 0.7 0.1 0.9 0.3 0.6 0.7 1.7 2.4 1.1 2.6 1 1.7 0.8 1.8 0.2 2.1-0.7 1.8-2.1 2.1-0.3 2.1 0.3 2.7 0 1.1 0.2 0.7 0.8 0 1.1-0.2 1 0.1 0.9 0.2-0.7 1.1-0.6 1.2-0.3 0.8 0.2 1.7 1.2 2.7 0.3 1.6-0.4 1.5-1.2 2.7-0.1 1.8 0.3 1 1 1.8 0.4 1.5 0 2.9 0.1 0.7 0.6 1.6 1 2 1.5 1.7 0.5 0.8 0.3 0.7 0.2 0.7 0.1 1.6 0.2 0.4 1.1 0.7 0.3 0.2 0 0.7-0.4 1-0.1 0.8 1 0.5 0.3 0.3 0.4 0.3 0.5 0.7-0.7 0.9-3.2 2.4-1.4-1.4-1.6-0.3-1.3 0.8-0.5 1.7-0.9 1.8-0.2 0.9 0.1 1 0.4 0.7 0.2 0.7-0.2 1.1-0.2 0.1-0.3 0-0.3 0.1-0.3 0.3-0.1 0.5 0 0.4 0.1 0.2 0.1 0.7 0.3 0.6 0 0.7-1.2 1.7-0.2 0.8 0.1 2.9 0.3 0.4 0.5 0.2 0.7 0.6 1.4 2.4 2.6 6.9 1.9 8.7-0.2 1.3-0.9 0.3-1.7-0.5-0.7 0.2-3.5 5-3.1-4-0.7-1.3 0-0.8 0.3-0.8 0.1-0.8-0.4-0.9-0.6-0.6-0.9-0.3-0.9 0-0.8 0.4-1.4-0.5-1.5-0.4-1.2-0.5-0.2-1.3-0.9 0.5-1 0.4-1 0-0.4-0.6-0.2-1.2-0.5-0.6-0.8-0.4-1.8-1.2-2.1-0.7-1-0.5-3-3.9-0.6-0.3-1.9-0.3-0.9-0.4-0.9-0.5-0.3-0.3-7.5-0.9-6.7-1.9-3.4-0.7-3.5 0.5-4 2.4-1.6 0.5-1.5 0.8-0.9 0.1 0-0.2-1.8-0.8-0.4-0.1-0.6-0.6-0.1-0.4 0.1-0.4 0.1-1-0.2-0.6-0.4-0.6-0.6-0.5-2.7-1-0.4-0.2-0.3-0.6-0.5-1.2-0.4-0.4-1.6-0.7-1.3 0.4-1 0.4-2.5-0.9-1.1 2.3-1.1-0.4-0.5 0-0.8 1.3-1.3 1.2-1.3 0.4-0.9-1.4-1.5 0.5-1.2-0.3-3.8-3-0.8-0.1-0.6 1.9-0.7 0.4-1.7 0.2-3.1-0.3 0.3-1.9 0.8-2.2-1.5-1.1-0.3-0.7-1-1.6-1.1-1.1-0.6 0.5 0 0.9-0.1 1-0.6 0.7-1.2 0.3-4.8 0.6-0.2-0.4 0-1.8-0.1-0.5-0.4 0-0.7 0.2-0.8 0-0.8-0.2 0.5-0.2 1.2-0.9-2.2-1.1-0.5 0.2 0.5 2-1.2-0.5-1.5-1.6-1.1-0.7-2 0.1-0.8-0.4 0.7-1.2-1.9-0.9-2.6-2.9-2.1-0.5-0.4 0.5-0.7 0.7 0 0.7 0.2 0.7-0.2 0.7-0.8 0.2-6.2 1.4-1.6 1-0.4 0.1-1.2-0.2-1.5-1.4-1.2-0.8-5-0.6-3.5 1.3-0.7 0.1-8.3-0.1-12.5-0.1-14.1-0.1-12.7-0.1z" id="CMES" name="Est">
  </path>
  <path d="M261.7 775.7l0.1 0 2.5-2.4 1.5-0.8 0.7-0.2 0.3-0.2 0.1-0.4 0.2-0.8 0.8-1.9 3.2-5.2 0.2-0.3 0.3 0.4 0.7 0.3 0.7 0.1 0.8 0.5 0.1 0.4 0.8 1.9 0.9 0.9 1.3 1.1 0.7 1.3-1.1 1.5-1.2-0.5-0.5-0.1-0.6-0.2-1-0.8-1-1.7-0.5-0.3-0.3-0.2-0.2-0.3-0.1-0.8-1 0.2-0.7 0.3-0.4 0.5-0.1 0.9 2.1 1.3 0.6 0.6 0.2 0.9-0.2 0.7-0.3 0.8-0.2 1.1 0.2 0.6 1.3 0.7 0.6 0.6-1 0.5-1.3 0.3-2.8 0.3-1.5-0.2-2.7-0.7-1.2-0.2-1-0.5z m72.2 29l-0.6-1.5-1.3-1-1.5-0.9-1.1-0.5-0.2 0.1-0.1 0.1-0.5 0.6-0.2 0.1-0.2 0.1-0.4 0.1-1.8 0.3-0.4 0.1-0.6 0.2-0.3 0.2-0.2 0.1-0.5 0.5-0.4 0.6-0.3 0.5-0.3 0.5-1.1 1.7-0.6 0.6-1.3 1.2-0.3 0.2-0.2 0.3-0.3 1.3 0 1.6 0 1 0.4 1.1 0 0.3 0 0.2-0.2 0.3-0.2 0.3-0.7 0.8-0.2 0.2 0 0.4 0.1 0.8 0 0.4-0.1 0.2-0.1 0.2-1.8 3.4-0.3 0.4-0.5 0.4-2.1 1.2-0.8 0.7-0.8 0.8-0.7 1-0.5 0.4-0.5 0.4-1.3 0.6-0.1 0 0-0.2-1.2 0.1-0.8-0.2-0.7-0.5-0.5-0.5-0.5-0.7-2.1-3.9-5.9-7.4-3.3-2.8-7.6-5.3 1.7-0.3 2-1 6.4-4.9 1.8-0.7 2.1-0.1-2.5-0.7-2.2 0.9-2.1 1.3-2.1 0.7-5.4 0.5-0.9-0.5-0.4-1 0.3-1 1.3-0.7-2.3-5.5-3.8-5.2-1-2-0.5-1.9 2 1.9 0.4 0.3 0.4 0.3 0.7 1.7 0.3 0.7 1 0.4 1.4 0.2 3-0.1-0.8-0.4-2.5-0.7-0.7-0.4-0.4-0.4-0.2-0.4-0.5-0.7-0.7-1.6 0.3-2 0.9-1.9 1.3-1.3 3 2.7 1.7 0.4 0.8-1.9 2.6 1.3 1 0.8 0.7 1.1 0.4-0.8 0-0.9-0.3-0.8-0.6-0.7 0.2-0.1 0.9 0.1-3.7-1.4-1.8-1-0.5-1.5 1-1 2-0.7 2.3-0.4 1.6 0 0-0.4-0.1-0.2-0.4-0.5 0.2-0.1 0.2 0 0.1-0.1 0-0.4-7.8 1.4-2.4-0.3-1.2-1.3 0.4-2 1.2-1.8 1.5-0.8 1.3-1.2 3.5-5.2 2.3-1.2 0.3-0.4 0.3-0.8-0.1-0.5-1.3 0.6-1.5 1.1-0.7 0.7-0.6 0.9-0.5 0 0-1.6-1.4 1.1-2.6 3.9-1.4 1.5-1.7 0.9-2.1 0.6-1.6-0.3 0-1.7-1.1 1-1.5-0.8-1.4-1.4-0.8-1.8 0.4-1.9-0.1-0.1 0.6-0.2 0.5-0.3 0.7-0.6 0.9-1.6 0.5-0.7 1-1 0.5-0.6-0.1-0.8-0.6-1.8-0.6-0.9-1.2-0.7-5.5-1-1.7-1 0.2-2 0.5-2.2 5.4-8.7 0.4-1.7-0.7-2.2-0.1-1.1 0.3-4.6 0.6-2.2 2.5-4.4 1.2-1.8 0.6-0.5 1.9-0.1 1 0.3 0.6 0 0.8-0.3 0.5-0.7 0.6-2.7 2.2-3.2 2.1-1.6 0.8-1.9 0-2.1 0.1-0.8 0.4-1.3 0.8-1.2 2.5-2.4 1.5-1.9 0.8-0.7 0.5-0.8 0.1-0.9-1.7-1.9-0.6-1 0.3-1.2 0.6-1.9 1-2.4 1.4-1.7 2.7-0.5 0.8-1-0.2-1.4-1.5-3.4-1.1-1.9-3-3.6-1.3-3.2-0.6-3-0.1-0.8 0.4-0.6 0.6-0.2 0.9 0 0.9-0.1 0.9-0.6 2.8-3.3 2.7-0.6-0.6 5.8 1.3 1.7 0.8 0.1 0.8-0.3 0.8-0.5 0.8-0.6 0.8-0.1 1.1 0.5 2.6 1.8 0.5 0.7 0.3 0.6 0.2 1.2 1.1 2.1 0.1 3.3-0.8 1.8 0.1 0.4 0.1 0.3 0.6 1 0.5 1.5 0.4 0.7 0.3 0.5 3 1.7 0.3 0.4 0.2 0.6 0.3 2.1 0.3 0.9 0.1 0.1 0.3 0.5 0.7 0.6 0.4 0.2 1.1 1.1 0.5 2.5 0.6 0.8 0.4 0.1 0.3 0 0.2 0 0.5 0 0.3-0.1 0.8-0.1 2-4.2 0.6-0.8 0.4-0.6 2.9-2 1-0.9 0.6-1.1 0.3-1.1 0.8-1.2 0.8-0.2 0.9 0.1 0.8 0.3 0.9 0.2 0.8-0.1 1.7-0.6 0.9-0.2 2.2-0.3 1 1.3 0.7 2.8 0.8 1.3 0.7 1.4 1.4 3.8 0.9 0.9 1.8 0.7 0.7 0.9 0.7 0.6 1.5 0.6-1.6 3.5-1.6 1.9-2.7 2.2-3.2 1.7-0.7 0.6-0.7 1.5-0.5 4.2 0.6 0.5 0.7 0.2 3.9-2.4 2.6-1.2 1.8-0.3 0.9 1.1 0.3 1.1 0.1 1.1-0.1 0.9-0.3 1.4-0.3 0.8-0.5 0.8-3.5 3.6-3.1 5-0.5 1.4-0.3 1.2 0 0.8 0.1 0.5 0.2 0.3 0.3 0.4 0.7 0.3 0.9 0 0.9-0.2 0.9-0.2 0.8 0.2 1.5 1.3 0.8 0.4 0.6 0.1 0.8 0 0.6 0.1 0.8 0.4 0.8 0.6 0.7 0.6 0.9 0.6 3.2 0.5 1-0.3 1.1-0.5 3.2-3 1.3-0.6 1-0.9 0.3-0.4 0.5-0.6 0.8-0.7 0.6 0.2 0.3 0.6 0.2 1 0.5 0.6 1.3 0.6 2.4-2.4 0.9-2 0.8-4 0.4-1.2 0.8-0.8 0.8-0.4 1-0.1 1 0.2 0.9 0.3 0.8 0.1 0.7-0.1 1.4-0.7 0.9-0.1 0.7 0 0.7 0.4 0.3 2.3-0.5 7.3 2.6 6.7 3.9 6.6 8.1 7.3 0.4 0.5 0.7 1.1-1.9 1.7-2.4 1.6-0.7 0.4-0.6 0.2-4.2 1.1-1 0.6-1 1-1.3-0.3-3.1 1.5-3.6 0.7-2.9 1.5-1.5 0.4-1.9-0.1-0.8 0.1-0.6 0.3-0.4 0.3-0.5 0.3-0.9 0.1-0.5 0.2-1 0.8-0.7 0.1-0.6 1.1-0.9 1.4-0.7 1.6-1.9 3-0.8 1.6-0.4 1.5 0 0.9 0.4 2.1 0.1 1.1 0 0.7-0.8 3 0.2 2.1-0.8 2.4-0.6 1-0.6 0.8-0.9 0.7-0.8 0.2-0.9-0.3-0.7-0.7-1.3-1.8-0.9-0.9-1.1-0.7-2.6-0.7-0.8-0.2-0.5-0.4-0.7-0.6-0.6-0.6-1-1-4.4 2.1-1.8 1.8-0.9 1.9-0.3 1-0.5 3.7-1.7 4.3-0.4 1.3-0.3 3.8-0.3 0.3-0.2 0.3-0.3 0.2-0.7 0.4-2 1.8-0.4 0.2-0.5 0.2-0.3 0.1-0.3 0-0.2 0-0.4 0-0.4-0.2-0.3-0.1-0.5-0.5z" id="CMLT" name="Littoral">
  </path>
  <path d="M407.9 588.4l6.3 1.5 1.1 0.6 1.2 0.8 0.2 0.8-0.1 0.9-0.8 1.8-0.2 0.9-0.1 1.8 0.1 1.4 0.4 1.8 1.3 3.3 0.5 1.8 0 1.4-1.3 3.2-0.4 1.6-1.2 0.9-0.8 0.8 1 0.5 0.1 1.2-0.5 1.3-1.1 0.8 0.3 0.8 0.1 1.5 0.1 0.9 0.3 0.5 0.4 0.3 0.3 0.6 0.1 1.1-0.1 1-0.3 0.7-0.1 0.8 0.5 1 0.8 0.3 0.9-0.2 0.7 0.1 0.3 1.1-0.2 0.5-1.1 0.5-1.5 3-0.4 0.6-0.6 0.4-0.7 0.1-0.6 0.3-0.6 1.4-0.7 0.7-1.7 1 0.6 1-0.6 1.3-1 1.3-0.6 1.2 0.2 0.9 0.1 0.6 0.1 0.3 0.8 1.4 0.1 0.3 0.2 0.9 0.1 2.9-0.1 1.3-0.7 2.2-0.3 0.7-0.4 0.5-0.2 0.3-1 1.4 1.1 1.4 0 0.4-0.1 0.5-0.2 0.5-0.3 0.9-0.2 0.4-0.3 0.2-1.2 0.4-0.2 0.1-2 3.3-0.4 0.5-0.3 0.1-0.4 0.1-0.5 0.1-0.6 0.2-0.6 0.3-1 0.9-0.3 0.6-0.2 0.6 0 1 0.2 1.7 0 0.5-0.5 2.3-0.1 0.6 0 1 0.3 0.6 0.3 1-1.6 0.5-2.1 1-1.3 1-1.2 1.5-0.5 1.1-0.2 1-0.3 1.9-0.8 2.7-1.6 4.3-0.2 0.7-0.9 2.1-0.8 0.6-0.9 0.4-1.9 0-1.6-0.2-1.1-0.3-3.3-3.2-1-0.6-1.1-0.4-0.8 0.2-0.6 0.6-0.2 0.3-0.2 0.2 0 0.2-0.3 0.6-0.4 0.7-0.8 0.7-0.8 0.5-10.8 5.2-1.3 0.3-1.1 0-5.8-1-1.5-0.6-0.7-0.6-0.7-0.9-1.8-0.7-0.9-0.9-1.4-3.8-0.7-1.4-0.8-1.3-0.7-2.8-1-1.3-2.2 0.3-0.9 0.2-1.7 0.6-0.8 0.1-0.9-0.2-0.8-0.3-0.9-0.1-0.8 0.2-0.8 1.2-0.3 1.1-0.6 1.1-1 0.9-2.9 2-0.4 0.6-0.6 0.8-2 4.2-0.8 0.1-0.3 0.1-0.5 0-0.2 0-0.3 0-0.4-0.1-0.6-0.8-0.5-2.5-1.1-1.1-0.4-0.2-0.7-0.6-0.3-0.5-0.1-0.1-0.3-0.9-0.3-2.1-0.2-0.6-0.3-0.4-3-1.7-0.3-0.5-0.4-0.7-0.5-1.5-0.6-1-0.1-0.3-0.1-0.4 0.8-1.8-0.1-3.3-1.1-2.1-0.2-1.2-0.3-0.6-0.5-0.7-2.6-1.8-1.1-0.5-0.8 0.1-0.8 0.6-0.8 0.5-0.8 0.3-0.8-0.1-1.3-1.7 0.6-5.8 3-2.3 3.3-8.2 0.4-1.3 0.3-3.5 0.7-1.3 1.3-1.5 6.2-5.4 3.5-1.3 0.3-0.9 0.1-0.6-1.4-3.1 4.9-3.7 0.6-0.3 0.8-0.2 1.2 0.1 3.8 1 0.9 0.4 0.7 0.6 0.5 0.9 0.4 0.8 0.6 0.6 0.8 0.2 0.9-0.7 0.6-0.8 1.3-4.8 13.9-2.6 1.4 0 4.2 0.3 1.8-0.6 0.7-0.4 3.2-5.3 3.1-7.5 0.3-0.8 0.5-0.6 1.3-0.4 1.1-0.2 5.5 1.1 3.5 0.8 1.3-1.8 1.7-0.2 3.6-1.3 3.6-2 0.9-0.7 0.8-0.9 0.6-1.2 1.1-5.1-0.5-3.7 0.6-1.8 6.2 0.6 1 0 1.1-0.1 1.5-0.7 1-0.6 3-2.9z" id="CMOU" name="Ouest">
  </path>
  <path d="M516.8 804.4l-1.3-1.3-1.6-2-1.9-3.8-0.5-0.7-0.4-0.3-0.6-0.3-0.9 0-0.9 0.5-4.4 4.6-8.4 6.8-2.7 2.8-1 1.7-2.7 10.1-1.6 0.9-3.8 1.2-1.3 0.1-0.9-0.3-0.2-0.9 0.3-0.5 0.1-0.2 0.4-1-0.1-0.6-1.2-0.8-8.9-4.3-1.7-1.2-1-0.5-2.8-0.6-1.4-1.1-1.4-0.7-2.5 4.9-0.6 0.8-3.6 1.9-1.6 1.1-0.9 0.5-1.8 0.6-0.8 0.7-2.5 4.6-0.7 2.1-1.1 3-0.9 0.6-5.9 2.8-3.8 1.2-1.8 0.2-12.3-0.1-3.2 0.7-1.3 0.1-3.3-0.6-2.2 0.3-2.9 0.5-3.3-3.5-1-0.7-0.4-0.8-0.4-2.3-0.4-0.8-0.7-0.5-0.8-0.2-0.9-0.7-0.8-1.2-1.3-5.9-0.9-2-2.3-2.9-1-0.7-0.9 0-2.4 0.4-1 0-0.7-0.4-1.1-0.5-1.8-0.3-3.7 0.6-3.3 0.1-0.4-0.4-0.3-1.8-0.5-1.6-0.4-0.6-0.6-0.5-1.4-0.2-1.8 0-5.1 1.1-2 0.6-24.8 7.3-6.2 1-0.6-0.3-3.9-12.9 0.7-2.6 0.5 0.5 0.3 0.1 0.4 0.2 0.4 0 0.2 0 0.3 0 0.3-0.1 0.5-0.2 0.4-0.2 2-1.8 0.7-0.4 0.3-0.2 0.2-0.3 0.3-0.3 0.3-3.8 0.4-1.3 1.7-4.3 0.5-3.7 0.3-1 0.9-1.9 1.8-1.8 4.4-2.1 1 1 0.6 0.6 0.7 0.6 0.5 0.4 0.8 0.2 2.6 0.7 1.1 0.7 0.9 0.9 1.3 1.8 0.7 0.7 0.9 0.3 0.8-0.2 0.9-0.7 0.6-0.8 0.6-1 0.8-2.4-0.2-2.1 0.8-3 0-0.7-0.1-1.1-0.4-2.1 0-0.9 0.4-1.5 0.8-1.6 1.9-3 0.7-1.6 0.9-1.4 0.6-1.1 0.7-0.1 1-0.8 0.5-0.2 0.9-0.1 0.5-0.3 0.4-0.3 0.6-0.3 0.8-0.1 1.9 0.1 1.5-0.4 2.9-1.5 3.6-0.7 3.1-1.5 1.3 0.3 1-1 1-0.6 4.2-1.1 0.6-0.2 0.7-0.4 2.4-1.6 1.9-1.7-0.7-1.1-0.4-0.5-8.1-7.3-3.9-6.6-2.6-6.7 0.5-7.3-0.3-2.3-0.7-0.4-0.7 0-0.9 0.1-1.4 0.7-0.7 0.1-0.8-0.1-0.9-0.3-1-0.2-1 0.1-0.8 0.4-0.8 0.8-0.4 1.2-0.8 4-0.9 2-2.4 2.4-1.3-0.6-0.5-0.6-0.2-1-0.3-0.6-0.6-0.2-0.8 0.7-0.5 0.6-0.3 0.4-1 0.9-1.3 0.6-3.2 3-1.1 0.5-1 0.3-3.2-0.5-0.9-0.6-0.7-0.6-0.8-0.6-0.8-0.4-0.6-0.1-0.8 0-0.6-0.1-0.8-0.4-1.5-1.3-0.8-0.2-0.9 0.2-0.9 0.2-0.9 0-0.7-0.3-0.3-0.4-0.2-0.3-0.1-0.5 0-0.8 0.3-1.2 0.5-1.4 3.1-5 3.5-3.6 0.5-0.8 0.3-0.8 0.3-1.4 0.1-0.9-0.1-1.1-0.3-1.1-0.9-1.1-1.8 0.3-2.6 1.2-3.9 2.4-0.7-0.2-0.6-0.5 0.5-4.2 0.7-1.5 0.7-0.6 3.2-1.7 2.7-2.2 1.6-1.9 1.6-3.5 5.8 1 1.1 0 1.3-0.3 10.8-5.2 0.8-0.5 0.8-0.7 0.4-0.7 0.3-0.6 0-0.2 0.2-0.2 0.2-0.3 0.6-0.6 0.8-0.2 1.1 0.4 1 0.6 3.3 3.2 1.1 0.3 1.6 0.2 1.9 0 0.9-0.4 0.8-0.6 0.9-2.1 0.2-0.7 1.6-4.3 0.8-2.7 0.3-1.9 0.2-1 0.5-1.1 1.2-1.5 1.3-1 2.1-1 1.6-0.5-0.3-1-0.3-0.6 0-1 0.1-0.6 0.5-2.3 0-0.5-0.2-1.7 0-1 0.2-0.6 0.3-0.6 1-0.9 0.6-0.3 0.6-0.2 0.5-0.1 0.4-0.1 0.3-0.1 0.4-0.5 2-3.3 0.2-0.1 1.2-0.4 0.3-0.2 0.2-0.4 0.3-0.9 0.2-0.5 0.1-0.5 0-0.4-1.1-1.4 1-1.4 0.2-0.3 0.4-0.5 0.3-0.7 0.7-2.2 0.1-1.3-0.1-2.9-0.2-0.9-0.1-0.3-0.8-1.4-0.1-0.3-0.1-0.6-0.2-0.9 0.6-1.2 1-1.3 0.6-1.3-0.6-1 1.7-1 0.7-0.7 0.6-1.4 0.6-0.3 0.7-0.1 0.6-0.4 0.4-0.6 1.5-3 1.1-0.5 0.2-0.5-0.3-1.1-0.7-0.1-0.9 0.2-0.8-0.3-0.5-1 0.1-0.8 0.3-0.7 0.1-1-0.1-1.1-0.3-0.6-0.4-0.3-0.3-0.5-0.1-0.9-0.1-1.5-0.3-0.8 1.1-0.8 0.5-1.3-0.1-1.2-1-0.5 0.8-0.8 1.2-0.9 1.3-0.7 0.8-0.1 1.3 0.5 1.6-0.4 2.7-1.4 17.9-4 1.3-0.6 0.6-0.5 1.8-0.9 3.8-3.5 3.1-2 1.5-1.3 1.5-1 1.6-0.2 1.6 0.1 1.5-0.2 0.5-0.3 0.3-0.4 0.6-0.3 1-0.2 1-0.3 1.1-1.5 0.6-0.3 0.7 0.2 0.2 0.3 0.4 0.2 0.6-0.1 0.1-0.3-0.2-1.1 0.1-0.3 0.8-0.3 2.1-0.2 0.5 0.7 0.4 0.5 2.6 2.8 1.8 1.3 1.8 1 1.1 0.4 1.3 0.3 2 0.2 1.8-0.1 0.9-0.2 0.9-0.2 0.9-0.5 1.8-1.1 1.3-0.6 1.7-0.3 2.9 0 1.6 0.3 1.3 0.5 10.1 7.4 0.8 0.8 0.5 0.8 0.4 0.9 0.2 0.8 0.2 0.6 0.3 0.5 1.4 1.5 0.6 0.7 0.2 0.6 1.9 0.7 8.2 0.2 20.2 0-0.2 1-0.2 1.3 0.3 1.7 0.1 0.8-0.6 2.6 0.1 0.4 0.2 0.7 0.5 0.9 2.1 2.4 1.9 2.9 0.6 1.2 1.1 3.6 0.4 0.8 0.6 0.9 2 2.3 0.3 0.5 0.3 0.6 0.2 1.2 1.2 2.9 1.6 2.7 0.7 1.8 1.3 1.9 0.2 1.2-0.4 2.1-3.4 8.4-3.7 6.4-0.6 0.7-1 0.5-1.3 0.2-4.9-0.1-4 1 0.8 1.4 5.3 4.1 8.9 9.3 1 1.5 1.5 2.7 0.5 1.6 0.1 1.2-0.4 1.8-0.2 0.4-0.1 0.7 0.2 0.8 1 0.6 4 1.5 1 0.2 0.9 0.2 1.8 0 1 0.5 1.2 1.3 2.9 5.7 1.1 3-2.1 17.7-0.8 1.2-0.6 0.4-0.9 0.1-1.7-0.6-1-0.1-0.8 0.1-1.8 0.6-1 0.3-0.9-0.1-1.9-0.5-0.9-0.1-2.1 0.2-1.1 0-0.9-0.1-0.6-0.1-0.7-0.3-0.6-0.2-0.6 0-0.8 0.1-0.9 0.4-3.7 2.2-1 1.1-1 1.6-1.2 3.2-1.3 5.3-1 2-2.6 2.1 0.9 2.7 0.1 0.8 0 1-0.6 3.2-2.8 9.1 0 1.3 0.9 1.5 0.9 1.3 0.3 0.7 0 0.8-0.3 0.9-0.6 0.7-1.5 0.8-0.9 0.2-1.1 0.5-0.6 0.3-0.5 0.4-1.6 1.5-0.6 0.9-0.1 0.3-0.1 0.1-1.7 1.4-0.3 0.2-0.2 0.4-0.1 0.1-0.1 0.1-0.2 0.1-0.4 0.1-1.8 0-4.7 1.9-0.6 0.1-0.5 0.3-0.4 0.4-0.4 0.8-0.7 1-1.4 0.7-0.5 0-0.2 0.2-0.5 0.4-0.4 0.8 0 0.9 0.1 1.1 1.1 2.1 1.6 1.6 4.7 2 0.7 0.6 0.3 1-0.2 1.4 0.2 4.6-0.2 2-0.8 2.4-2.3 4.8z" id="CMCE" name="Centre">
  </path>
 </g>
 <g id="points">
  <circle class="2.225880779726589|8.890189548606614" cx="227" cy="909.5" id="0">
  </circle>
  <circle class="6.796516475180772|12.741523169843788" cx="530.3" cy="548.3" id="1">
  </circle>
  <circle class="12.509811094498502|15.822590066833527" cx="773" cy="91.6" id="2">
  </circle>
 </g>
 <g id="label_points">
  <circle class="Sud" cx="482.7" cy="864.7" id="CMSU">
  </circle>
  <circle class="Extrême-Nord" cx="663.6" cy="241.2" id="CMEN">
  </circle>
  <circle class="Nord" cx="620.2" cy="414.5" id="CMNO">
  </circle>
  <circle class="Adamaoua" cx="560.8" cy="548" id="CMAD">
  </circle>
  <circle class="Nord-Ouest" cx="338" cy="583.7" id="CMNW">
  </circle>
  <circle class="Sud-Ouest" cx="258.1" cy="679.3" id="CMSW">
  </circle>
  <circle class="Est" cx="631.6" cy="781.6" id="CMES">
  </circle>
  <circle class="Littoral" cx="329.5" cy="757.9" id="CMLT">
  </circle>
  <circle class="Ouest" cx="365.2" cy="657.6" id="CMOU">
  </circle>
  <circle class="Centre" cx="468" cy="709.5" id="CMCE">
  </circle>
 </g>
</svg>