<?xml version="1.0"?>
    
<!--********* Copyright (c) 2024 Pareto Softare, LLC DBA Simplemaps.com ***************************************
************* Free for Commercial Use, full terms at  https://simplemaps.com/resources/svg-license ************
************* Attribution is appreciated! https://simplemaps.com *******************************************-->

<svg baseprofile="tiny" fill="#6f9c76" height="924" stroke="#ffffff" stroke-linecap="round" stroke-linejoin="round" stroke-width=".5" version="1.2" viewbox="0 0 1000 924" width="1000" xmlns="http://www.w3.org/2000/svg">
 <g id="features">
  <path d="M266.9 848.2l3.8 3.6 2.1 5 0.9 5.9 0.3 5.9-1.2 5.5-2.9 2.6-3.1 1.8-2 3.6-2.5 0-2.6-3.6-6.4-4.3-2.4-4.3-2.5 2.4 1.5-3.1 0.5-3-0.5-3-1.5-3 4.6 0-1.4-6.6 4-2.3 6.2-0.8 5.1-2.3z" id="CVBR" name="Brava">
  </path>
  <path d="M402.8 829.4l1.9 8.5-0.2 4.5-1.7 3.9 1.1 3.8-7.6 7.9-10.9 1.2-7-5.6-3.2-7.9 1.6-6.7 1.5-6.2 12.2-2.8 12.3-0.6z" id="CVCF" name="Santa Catarina do Fogo">
  </path>
  <path d="M402.8 829.4l-12.3 0.6-12.2 2.8-11.1-16-7.7-11.9 8.9-4.6 6-1.9 7-0.7 7.3 1.7 4.8 4.2 3 5.5 4.4 11.7 1.9 8.6z" id="CVMO" name="Mosteiros">
  </path>
  <path d="M378.3 832.8l-1.5 6.2-1.6 6.7 3.2 7.9 7 5.6 10.9-1.2 7.6-7.9 1.7 3.9 0.1 4-2.2 3.4-11.8 10.9-14.2 5.6-13-1.7-11.5-6.1-19.4-16.3-4.7-6.7-1.9-7.2 1.9-7.2 4.6-8.3 6.1-7.5 8.2-6 11.7-6 7.7 11.9 11.1 16z" id="CVSF" name="São Filipe">
  </path>
  <path d="M582.1 749.3l1.2-3.4 0.3-4.1 0.7-3.8 1.7-2.4 1.6-1.7 0.8-1.9-1.1-5.9-2.9-6.8-3.7-5.6-3.8-2.1 2.2-0.8 7-3.8-5-2-2.1-0.4 9.4-7.3 2.5 0 0.2 2.6 0.5 1.5 0.7 1.2 0.7 2 6.3-3.9 5.4 3.3 1.8 6-4.3 4.2 4.5 6.4 5.3 3.9 11.2 6.2-2.6 2.6-4.8 8.1-5.2 7.7-13.1 1.6-10.1-1.2-5.3-0.2z" id="CVTA" name="Tarrafal">
  </path>
  <path d="M582.1 749.3l5.3 0.2 10.1 1.2 13.1-1.6-0.4 6.2 6.3 6.2 6 4.3 0.8 5.4 2.6 0.8 4.7-4.3 2 2.7 0.8 6.2-8 6.5-2 1.9 1.2 6.6 2.4 4.8 2.6 3.5-3.3 3.8-0.8 5.1-2.6 1.5-7.1 0.8-3 4.6-6.4 2.7-5.7 6.2-5.2-6.1-0.1-11.4-3.8-2.7-5.5-1.7-4.6-2.4-0.2-1.3-2.3-8-1-1.4-1.3-1.3-1.3-1.9-0.9-2.8 1-2.8 4.8-8.5 1.2-3.2-0.3-4.6-4.3-11.9 3.2-0.9 2-2.4z" id="CVCA" name="Santa Catarina">
  </path>
  <path d="M600.7 824.6l5.7-6.2 6.4-2.7 3-4.6 7.1-0.8 2.6-1.5 0.8-5.1 3.3-3.8 5.9-0.6 0.1 5.6 5.2 4.6 4.1 5.8 1.2 9.3 5.6 2.7 1.2 6.6 4.3 5.6 2.8 6.4-2.7-0.3-2.8-1.5-2.5-0.4-11.3-0.2-9.3-1.3-8.6-2.9-9.1-3.2-13-11.5z" id="CVRS" name="Ribeira Grande de Santiago">
  </path>
  <path d="M660 845.9l-2.8-6.4-4.3-5.6-1.2-6.6 9.3-1.9 8.6-5.8 6.7-1.2 6.6 4.4-2.2 1.6 2.6 2.4-3.3 5.5-2.1 5.5-2.6 4.2-4.8 1.7-2.7 0.3-5.3 1.5-2.5 0.4z" id="CVPR" name="Praia">
  </path>
  <path d="M651.7 827.3l-5.6-2.7-1.2-9.3-4.1-5.8 6.8-3.8 4.8-5.5 6.4-5.4 5.6-1.9 4.1 2.3 3.3 2.3 4.5-1.9 2.2-4.4 4.8 9.1 1.3 1.3 1 0.4 1 0.8 1.3 2.5 0.7 1.7 0.9 1.3 1.2 1 1.8 0.6-1.6 5.2-2.3 3.4-5.7 4.3-6.6-4.4-6.7 1.2-8.6 5.8-9.3 1.9z" id="CVSD" name="São Domingos">
  </path>
  <path d="M633.4 776.6l-0.8-6.2-2-2.7 2-1.9 9.8-11.7 2.5 2.7 5.7 3.6 5-0.6 1.1 1.6 0.6 1.2 0.8 1 1.9 0.9-0.5 0.5 2.2 2.1 2.4 2 0.5 0 0.9 0.2 3-0.4 0.9 0.2 0.2 1.1-0.4 2.8 0.2 1.1 9.1 17.1-2.2 4.4-4.5 1.9-3.3-2.3-4.1-2.3-7.8-6.9-5 1.5-5.3-2.4 0.5-2.3-0.7-3.5-9-1.9-3.7-0.8z" id="CVCR" name="Santa Cruz">
  </path>
  <path d="M610.6 749.1l5.2-7.7 4.8-8.1 5.9 1.2 2.8 2.5 5.1 8.4 8 8.7-9.8 11.7-2 1.9-4.7 4.3-2.6-0.8-0.8-5.4-6-4.3-6.3-6.2 0.4-6.2z" id="CVSM" name="São Miguel">
  </path>
  <path d="M798.9 704.6l2 4.4 0.5 5.5-0.4 9.5 3.7 19.9-0.4 9.6-5.4 8.9-1.7 0.6-5.3 0.7-2.2 0.8-1.3 1.7-1.6 4.2-1.7 1.3-4.7 0.5-4.5-1.3-7.2-4-7.9-5.7-3.8-4.2-2.1-4.4 1-4.3 2.7-4.3 1.3-4.3-2.7-4 4.8-2.9 2.1-4.5-1.3-3.8-5.6-0.5 1.9-5.2 7.3-5.4 4.8-8.8-1.6-0.6-0.2-0.3 0.1-0.5-0.8-1.2 4.7-2 4.6-2.7 0.1 1.1-0.1 3.6 2.9-2.3 0.7-0.8 0.9-1.6 2.6 2.5-2.6 2.2 4.9 2.3 7.5-1.8 4 2.1z" id="CVMA" name="Maio">
  </path>
  <path d="M949.3 423.5l1.3 0.6 2.5 3.4 1.4 3.8-2 1.8-1 1.5-0.5 3.3-0.9 3.3-5.6 3.6-18.5 14.9-12.3 6.6-6.3 2-19.4 1.3-3.4-0.6-3.3-1.7-4.8-4.1-3.9-1.1-12.2-5.6-4.1-3.9-2.1-7.5 0.2-6.7 1.9-6.3 3.5-4.6 5-1.8 6.4-6.4-3.7-30.7 3-10.9 1.4 2.5 1.4 1.9 4.1 3 5.8 2.8 8.6 2.9 7.8 0.9 3.4-3.1 2.6-5.5 6-1 20 5.1 3.6 1.5 3.4 2.4 1.3 2.5 2.1 6.7 1.4 1.4 5.8 2.5 1.3 5.9-1.2 13.4z" id="CVBV" name="Boa Vista">
  </path>
  <path d="M377.8 225.3l4.8-1.6 2.4 0.3 4.6 1.9 4 2.6 8 7.1 4.1 2.1 3.6 0.2 18.7-2.9 3.3 0.6 12.3 6 2.8 0.6 27.8 2.3 7.6 3 6.6 5.3 3.5 2.1 1.6-1.4 0 12.2-3.8 0.9-23.9 0.2-26-11.7-14-3.4-13.1 5.2-4.8 5.8-9.8 17.7-3.1 13.3-0.5-10.5 2-14.9 1.9-9.3-1.9-11.1-6.2-5.2-9.5-0.6-3.3-4.7 3.3-4.6-3-7.5z" id="CVRB" name="Ribeira Brava">
  </path>
  <path d="M377.8 225.3l3 7.5-3.3 4.6 3.3 4.7 9.5 0.6 6.2 5.2 1.9 11.1-1.9 9.3-2 14.9 0.5 10.5-3-4.3-4.7-13-2-3-2.3-2.4-1.8-2.9-0.8-4.8-0.2-3.7-0.8-2.6-1.8-1.7-3-0.6-7.8-2.3-5.6-6-2-7.9 2.7-8 15.9-5.2z" id="CVTS" name="Tarrafal de São Nicolau">
  </path>
  <path d="M865.9 254.7l-4.1-26.7-5.1-10.6-7.1 3.7-1.4-5.1-0.5-6.9 1.1-6.4 3.1-3.5 0-2.4-4-1.2-2.2-3.4-0.8-4.7 0.2-11.1 7-5.5 16.1-10.2 1.8 2.5 6.1 5.8 1.3 2.6-0.4 1.5-2.2 4.2-2.3 3.5 0.6 0.9 1.3 0.8 0.7 1.2-0.9 20.9 0.9 6.6 1.6 2.4 4.4 4.2 1 2-0.4 3.9-1.4 7-0.3 3.6-0.7 2-3.1 2.2-1.1 1.8 0.2 1.9 0.7 2.6 0.8 2.2 0.6 0.5-2.2 2.8-2.4 1.3-3 1.1-3.9 2z" id="CVSL" name="Sal">
  </path>
  <path d="M194.2 148.4l-1.1 1.5 2.9 3.4 4.8 3.3 4.8 1.5 1.6 1.9 1.6 4.4 0.9 4.9-0.5 3.4-5.4 4.3-8.2 3-9.2 1.8-8.6 0.5-2.1 0.8-3.3 3.3-1.3 0.8-2.4-0.3-21.2-8.3-3.4-2-2.7-2.6-1.7-3.4-4.4 2.1 1.5-7.5 3.9-6.2 4.9-4.2 4.6-1.5 10.5-0.3 4.4-2-2.1-4.8 9.5-5.1 2-2.5 2.3 0 2 5 3.4-0.7 5.9-4.3 3.4 1.8 3 3.4 1.4 3.2-1.7 1.4z m110.4 95.5l7.8 1.5-2 5.1-4.9-0.5-3.9-1-1-4.1 4-1z m-61.1-62.7l8.3 3 4.4 5.1 3.4 7.7 6.4 1.5 3.9-2.6 3.9 1.6-0.5 4.6-5.9 2.5-6.8 0.5-5.8 0-3-3-1.9-4.1-6.4-2.6-4.9-4.5 0-5.1 4.9-4.6z" id="CVSV" name="São Vicente">
  </path>
  <path d="M84.3 63.2l6.4-2.9 8-4.9 7.8-2 20.5-10.1 5.5-1.3 3.9 1.3 3.9 2.7 8.6-0.3 4.8 1.3 3.2 2.5 1.3 2.7 0.2 8.1-4.2 2.3-5.4 3.8-6.3 4.9-13.4 3.5-15.4 6.3-11.1-7.7-18.3-10.2z" id="CVRG" name="Ribeira Grande">
  </path>
  <path d="M84.3 63.2l18.3 10.2 11.1 7.7 15.4-6.3 13.4-3.5 15 2.8 9.4 6.3 4.7 3.2-9.6 10.5-1.6 0-1.4 1.3-6.3 2.4-1.5 1.2-2.9 3.7-20.3 9.6-9.3 9.7-6.6 8.7-8.4 6.1-14.7 1.8-12.8 0-3.9 0.8-3 1.2-3 0-4.1-3.1-0.9-4.4-0.1-23.4-4.7-8.2-1.1-1-5.9-1.1-2.2-1.6-1.8-5.9 1.6-5 8.3-9.7 4.8-3.2 4.9-0.7 4.4 0.3 3.2-0.1 3.4-2.4 8.2-7.9z" id="CVPN" name="Porto Novo">
  </path>
  <path d="M142.5 71.3l6.3-4.9 5.4-3.8 4.2-2.3 1.7 1.6 8 2.1 1.8 1.2 1 1.8 4.6 4 1.3 2.5-0.6 3.8-2 3.4-2.6 2.9-4.7-3.2-9.4-6.3-15-2.8z" id="CVPA" name="Paul">
  </path>
  <path d="M629.6 799.9l-2.6-3.5-2.4-4.8-1.2-6.6 2-1.9 8-6.5 3.7 0.8 9 1.9 0.7 3.5-0.5 2.3-0.6 2.8-1.1 6.1-6.8 5.1-2.3 0.2-5.9 0.6z" id="CVSS" name="São Salvador do Mundo">
  </path>
  <path d="M640.8 809.5l-5.2-4.6-0.1-5.6 2.3-0.2 6.8-5.1 1.1-6.1 0.6-2.8 5.3 2.4 5-1.5 7.8 6.9-5.6 1.9-6.4 5.4-4.8 5.5-6.8 3.8z" id="CVSO" name="São Lourenço dos Órgãos">
  </path>
 </g>
 <g id="points">
  <circle class="14.923574143736651|-25.225729946835695" cx="90.9" cy="840.3" id="0">
  </circle>
  <circle class="15.880637934911576|-23.87880611928276" cx="545.5" cy="505.3" id="1">
  </circle>
  <circle class="17.07696767388024|-22.801267057240413" cx="909.1" cy="84.3" id="2">
  </circle>
 </g>
 <g id="label_points">
  <circle class="Brava" cx="262.6" cy="866.1" id="CVBR">
  </circle>
  <circle class="Santa Catarina do Fogo" cx="389.3" cy="844.5" id="CVCF">
  </circle>
  <circle class="Mosteiros" cx="382.8" cy="813.6" id="CVMO">
  </circle>
  <circle class="São Filipe" cx="353" cy="839.2" id="CVSF">
  </circle>
  <circle class="Tarrafal" cx="602" cy="735" id="CVTA">
  </circle>
  <circle class="Santa Catarina" cx="602" cy="783.2" id="CVCA">
  </circle>
  <circle class="Ribeira Grande de Santiago" cx="630.1" cy="825" id="CVRS">
  </circle>
  <circle class="Praia" cx="668.2" cy="833.2" id="CVPR">
  </circle>
  <circle class="São Domingos" cx="664.2" cy="808.1" id="CVSD">
  </circle>
  <circle class="Santa Cruz" cx="655.1" cy="775.4" id="CVCR">
  </circle>
  <circle class="São Miguel" cx="624.9" cy="752.2" id="CVSM">
  </circle>
  <circle class="Maio" cx="781.6" cy="742.9" id="CVMA">
  </circle>
  <circle class="Boa Vista" cx="904.8" cy="429.7" id="CVBV">
  </circle>
  <circle class="Ribeira Brava" cx="429" cy="243.8" id="CVRB">
  </circle>
  <circle class="Tarrafal de São Nicolau" cx="387.9" cy="252.9" id="CVTS">
  </circle>
  <circle class="Sal" cx="862.3" cy="205.8" id="CVSL">
  </circle>
  <circle class="São Vicente" cx="174.8" cy="164.8" id="CVSV">
  </circle>
  <circle class="Ribeira Grande" cx="124.9" cy="60.4" id="CVRG">
  </circle>
  <circle class="Porto Novo" cx="94" cy="103.3" id="CVPN">
  </circle>
  <circle class="Paul" cx="164.3" cy="70" id="CVPA">
  </circle>
  <circle class="São Salvador do Mundo" cx="635.3" cy="788.2" id="CVSS">
  </circle>
  <circle class="São Lourenço dos Órgãos" cx="650.5" cy="794" id="CVSO">
  </circle>
 </g>
</svg>