<?xml version="1.0"?>
    
<!--********* Copyright (c) 2024 Pareto Softare, LLC DBA Simplemaps.com ***************************************
************* Free for Commercial Use, full terms at  https://simplemaps.com/resources/svg-license ************
************* Attribution is appreciated! https://simplemaps.com *******************************************-->

<svg baseprofile="tiny" fill="#6f9c76" height="521" stroke="#ffffff" stroke-linecap="round" stroke-linejoin="round" stroke-width=".5" version="1.2" viewbox="0 0 1000 521" width="1000" xmlns="http://www.w3.org/2000/svg">
 <g id="features">
  <path d="M796.2 284.6l-0.3-1.8-2.3-0.5-2.3 0-0.8-2.3-2-1-3.1-1.9 1.2-0.9 2.3 0 3.9 0.9 1.9 2.5 2.4 0 1.9 0 2.3 1.3 1.6 2.9-0.7 0-2.4 0.4-1.6 0.5-1.5 0-0.5-0.1z m-18.9-15.1l-1.6-0.8-0.4-1.6 0.7-3 0.5-2.2 2.4-0.9 3 0.5 0 6.1-2.7 1-1.9 0.9z m-234 178.2l-0.2-1.3-2.9-14 0-2.4 3-19.9 0-2.3-1-2.4-3.3-6.9-5.2-8-15.2-17.6-2.4-2.1-3.7-2.2-23.7-8.6-1.4-0.1-5.6 0.2-2-0.5-3.9-1.7-3.4-3.4 0.4-11.3 1.7-4.7 0.8-1.4 1.2-1.7 1.7-1.4 9.4-6 4.2-2.1 5.7-1.4 3.2 0 2.5 0.6 1.6 1.2 2.3 3.1 1.8 1.1 2.1 0.7 2.4 0.2 2.2-0.2 10.1-3.3 1.9 0.7 1.4 1.2 2.9 1.5 1 0.7 0.4 1.4 0 1.5 0.5 1.5 1.7 0.7 3.6-1.7 5.2-4 10.1-10 12.4-10.1 4.5-0.8 2.3 0.8 1.8 1.3 2.6 2.8 2.5 0.3 3.4-0.7 6-2.3 3.5-0.4 9.4 1.7 2 0.2 2-1.5 2.2-2.8 3.6-7.5 1-4.2 0.2-3.2-0.3-1.9 0.4-1.3 0.9-0.8 2.5-0.1 1.8 0.6 1.3 0.9 4.4 3.6 2 0.8 2.3 0.3 2.7-0.8 7.6-4.6 3-0.8 2.1 0.4 1.7 1.1 2 0.8 2.3 0.2 2.2-0.4 1.9-1.4 4.8-13.3 0.7-2.9 0.9-1.7 1.1-1.5 4.6-2 0-0.5-0.5-1-1.4-2.6-1.8-1.6-1.4-1.6-1-1.8-1.6-6.4-1.1-3.2 2.5-5.1-0.2-3-3.8 0.2-3.5-2.5-0.9-1 1.4-4.2 3.2-2.9 3.5 0 4.6 1 6.2 2.4 3.1-0.5 0.8-6.2 1.9-3.8 3.1 0 4.3 3.8 3.1 5.2 2.3 9 6.3 4.8 6.2 0.9 5.4-4.7 5.8-2.9 11.7 9.5 7.3 0 2-0.9 7.4 0.9 4.2-1.8 2.7 2.8 8.6 4.2 1.5 4.3-4.3 3.8 1.6 3.8 7.8 3.3-2 7.1-4.3-1.4-0.7 9.1-10.5 4-13.1 13.1-3.7 7.8-3.4 9.8-2.5 11-0.9 10.8 1.1 11.6-1.3 5-4.7 2-3 2.3-3.5 10.8-2.2 3.5-7.6 2.2-16.6 0.2-6.3 1.7-4.4 4.5-5.1 7-5.9 6.4-6.8 2.8-15.9 3.9-14.4 7-11.7 2.6-7.5-9-0.5 17-14.1 8.7-36.9 7.7-7.5 3.5-4.5 3.1z m277.1-178.2l4.5 1.2 3.4-0.6 7.6-0.3 2.7 0.3 0.1 0.2 0.7 1.3 1.1 3 0.8 5.1 0.8 2 1.9 2.4 9.6 9.2-2.2 2.4-13.6-3-9.3 2-3.8-2.4 6.1-5.7 4.3-1 0-10.4-9.3-0.9-5.4-4.8z" id="CY03" name="Larnaca">
  </path>
  <path d="M820.4 269.5l0.4-13.2-3.9-4.3-11.7-5.1 2.7-6.7 4.7-3.8 6.6-3.4 3.9 2.9 3.1 3.3 7-1.4 6.2-4.3 3.5-4.3 2.7-3.3 8.9 7.1 4.2-4.7 0.1 0 3.1 1.9 6.2 1.9 7.8 1.9 10.9-5.2 22.9 5.2 1.6-2.5 4.9 4.1 6.9 6 7.5 8.6 5.6 16.6 5.6 10.7 6.8 9.8 5.9 4.1-6.9 0.5-12.8-1.4-12.4-3.5-5.5-6.2-5.9-3-27 3.4-23.5 7.2-5.1 3-1.8 1.9-9.6-9.2-1.9-2.4-0.8-2-0.8-5.1-1.1-3-0.7-1.3-0.1-0.2-2.7-0.3-7.6 0.3-3.4 0.6-4.5-1.2z" id="CY04" name="Famagusta">
  </path>
  <path d="M652 240.1l0.9 1 3.5 2.5 3.8-0.2 0.2 3-2.5 5.1 1.1 3.2 1.6 6.4 1 1.8 1.4 1.6 1.8 1.6 1.4 2.6 0.5 1 0 0.5-4.6 2-1.1 1.5-0.9 1.7-0.7 2.9-4.8 13.3-1.9 1.4-2.2 0.4-2.3-0.2-2-0.8-1.7-1.1-2.1-0.4-3 0.8-7.6 4.6-2.7 0.8-2.3-0.3-2-0.8-4.4-3.6-1.3-0.9-1.8-0.6-2.5 0.1-0.9 0.8-0.4 1.3 0.3 1.9-0.2 3.2-1 4.2-3.6 7.5-2.2 2.8-2 1.5-2-0.2-9.4-1.7-3.5 0.4-6 2.3-3.4 0.7-2.5-0.3-2.6-2.8-1.8-1.3-2.3-0.8-4.5 0.8-12.4 10.1-10.1 10-5.2 4-3.6 1.7-1.7-0.7-0.5-1.5 0-1.5-0.4-1.4-1-0.7-2.9-1.5-1.4-1.2-1.9-0.7-10.1 3.3-2.2 0.2-2.4-0.2-2.1-0.7-1.8-1.1-2.3-3.1-1.6-1.2-2.5-0.6-3.2 0-5.7 1.4-4.2 2.1-9.4 6-1.7 1.4-1.2 1.7-0.8 1.4-1.7 4.7-18.6-8.1-3.1-0.2-4.2 0.3-3 1.2-5.4 1.1-2.7-0.7-1.6-1.6-0.6-2.2-2.4-3.2-4-4-18.1-13.2-1-1.1-0.6-1-0.5-1.7-1.2-2.8-1.9-3.4-4.7-5.6-3.4-2.1-3-0.8-2.3 0.4-3.7 1.7-17.3 12.3-4.1 1.9-4.3 0.7-10.8 0.3-3.4-0.3-3-0.9-6.3-4.1-3.2-1.1-3.3-0.5-3.2-0.1-4.3 0.4-2.7-0.5-2.7-1.4-7.4-4.9-2.9-0.6-2 0.6-2.2 3.6-1.5 1.2-2.1 0.6-2.3 0.4-1.9 0.7-0.8 1.6-0.3 1.8 0.1 2.1-0.4 2.2-1.5 4.1-0.6 2.4-0.3 2.4 0 8.3-12.1-4.9-2.2 0.3-2.4 0.8-1 1.9-1.7 2.5-2.5 2.6-5.6 3.4-3.4 0.7-1.9-0.3 0-1.2 0.3-1.3-0.3-1.2-3-1.3-1.3 0.7-0.3 1.5 0.1 1.8-0.8 2-1.3-0.3-1.3-0.9-1.4-1.4-5.5-4.5-2.6-2.9-1.6-2.1-1.1-2.2-1.7-6.1-0.2-1.9 0.3-0.9 0.7-0.9 3 0.3 1.1-0.6 0.4-1.5 0.1-3.6 0.3-1.6 1.8-3.4 0.8-2 0.4-2.5 0.1-2.6-0.1-2.4-0.9-4.4-0.3-2.1 0-5.5-0.8-2.6-1.5-3.3-10.3-18.2-2.8-2.5-7.6-4.7-2.9-3.8-4-7-1.6-3.8-0.7-3 0.7-1.7 1.3-1.3 2.1-0.5 2.1 0 2.2-0.4 1.4-1.2 0.7-2 0.3-19.5-1-2.2-2-2-2.7-1.6-3.9-3.2-1.7-3.1-0.8-4.1-1-2.2-3-3-2.4-1.9-13.6-15 0.6-2.3 0.8 0.5 3.3 0.7 5-1.1 8.5-3.7 0.4 2.6 6.2 6.6 5.5-1 4.3-4.7 2.3-6.7 0.6-2 4.8-0.6 4.7 0.6 15.8 2.1 9.9 1.2-0.4 3.9 1 7.2 3.9 6.1 5.5 6.2 6.2 3.3 7.8 2.4 17.5 4.3 9.7 6.2 7.7 9.9 4.7 12.4 7.8 0.5 3-5.3 4.7-6.2 3.1-1.4 5.8-1.4 11.7 1.4 5.4 1 5.8-1 6.2-1.4 11.3-6.2 9.7-11.3 12.4-6.2 8.5-4.8 12.5-3.8 11.2-5.7 8.5-2.8 6.6 6.6 5.5-0.9 10.9-12.4 7.7-2.8 16.3-2.8 16.8 6.5 8.1 4.8 15.2 1.4 14.3 3.9 7.8 0.4 5.4-2.8 9.3 0 14.8-4.7 3.1-2.4 3.8-6.2 5.9-5.7 6.6-1 3.9 3.4 1.5 7.1 1.6 8.5 6.1 11.9 5.5 10 9.4 17.1 3.4 5.6 0 11 0 11.8-2.7 11.5-2.7 14.6 0.4 5.7 5 1.4 0-3.8 0.8-6.1 1.6-7.6 2.3-4.2 2.4-6.8z" id="CY01" name="Nicosia">
  </path>
  <path d="M229.5 475.8l0.3-12.8-0.3-2.3-0.7-1.9-1.1-1.6-0.3-1.6 0.6-1.4 3.4-2.3 2.9-2.4 3.7-4.5 8.6-5.9 2.1-2 3.5-2.7 4.1-4.3 5.1-3.1 1.6-2.4 1-3.7 0.3-7.6-1-3.4-1.6-2.3-1.5-1.1-1.1-1.3 0.3-2.8 1.5-4 8.3-11.9 2.4-2.7 1.7-1 2.1-0.5 1.9-0.7 2.4-3 7.1-15.5 2.8-4.4 2.8-2.5 2.2-1 2.1-1.6 2.4-3.1 0.9-2.4-0.2-2.7-5.7-7.8-2-8.2 0-8.3 0.3-2.4 0.6-2.4 1.5-4.1 0.4-2.2-0.1-2.1 0.3-1.8 0.8-1.6 1.9-0.7 2.3-0.4 2.1-0.6 1.5-1.2 2.2-3.6 2-0.6 2.9 0.6 7.4 4.9 2.7 1.4 2.7 0.5 4.3-0.4 3.2 0.1 3.3 0.5 3.2 1.1 6.3 4.1 3 0.9 3.4 0.3 10.8-0.3 4.3-0.7 4.1-1.9 17.3-12.3 3.7-1.7 2.3-0.4 3 0.8 3.4 2.1 4.7 5.6 1.9 3.4 1.2 2.8 0.5 1.7 0.6 1 1 1.1 18.1 13.2 4 4 2.4 3.2 0.6 2.2 1.6 1.6 2.7 0.7 5.4-1.1 3-1.2 4.2-0.3 3.1 0.2 18.6 8.1-0.4 11.3 3.4 3.4 3.9 1.7 2 0.5 5.6-0.2 1.4 0.1 23.7 8.6 3.7 2.2 2.4 2.1 15.2 17.6 5.2 8 3.3 6.9 1 2.4 0 2.3-3 19.9 0 2.4 2.9 14 0.2 1.3-6.2 4.1-7.2 1.4-35.8-4.2-35.7 4.2-7.7 2.1-7 4.8-23.1 21.5-5.1 10.2-12.4 0-10.5 1.4-3.5 4.3-3.4-2.4-0.8-8.5 5.7-5.2 2.4 3.3 9.7 0-1.2-16.5-16.3-2.4-6.2 6.2-3.1 5.7-3.1-2.9-6.2-2.8-1.8 4.1-14.5-3.8-9.4-7.3-2.6-5.4-0.4-7.8-2.9 0.6-3.9 0-2.5 0-2.6-0.2-1.7-0.7-2.4 2.7-2.4 3.2-1.6 2.2-6.7 1.1-3.6 9-10-1.4-5.9-1.7-3.3 4.2 0.3 9.6-5.7 2.1-20.8 2.6-20.7-4-12-5.3z" id="CY02" name="Limassol">
  </path>
  <path d="M192.1 165.3l-0.6 2.3 13.6 15 2.4 1.9 3 3 1 2.2 0.8 4.1 1.7 3.1 3.9 3.2 2.7 1.6 2 2 1 2.2-0.3 19.5-0.7 2-1.4 1.2-2.2 0.4-2.1 0-2.1 0.5-1.3 1.3-0.7 1.7 0.7 3 1.6 3.8 4 7 2.9 3.8 7.6 4.7 2.8 2.5 10.3 18.2 1.5 3.3 0.8 2.6 0 5.5 0.3 2.1 0.9 4.4 0.1 2.4-0.1 2.6-0.4 2.5-0.8 2-1.8 3.4-0.3 1.6-0.1 3.6-0.4 1.5-1.1 0.6-3-0.3-0.7 0.9-0.3 0.9 0.2 1.9 1.7 6.1 1.1 2.2 1.6 2.1 2.6 2.9 5.5 4.5 1.4 1.4 1.3 0.9 1.3 0.3 0.8-2-0.1-1.8 0.3-1.5 1.3-0.7 3 1.3 0.3 1.2-0.3 1.3 0 1.2 1.9 0.3 3.4-0.7 5.6-3.4 2.5-2.6 1.7-2.5 1-1.9 2.4-0.8 2.2-0.3 12.1 4.9 2 8.2 5.7 7.8 0.2 2.7-0.9 2.4-2.4 3.1-2.1 1.6-2.2 1-2.8 2.5-2.8 4.4-7.1 15.5-2.4 3-1.9 0.7-2.1 0.5-1.7 1-2.4 2.7-8.3 11.9-1.5 4-0.3 2.8 1.1 1.3 1.5 1.1 1.6 2.3 1 3.4-0.3 7.6-1 3.7-1.6 2.4-5.1 3.1-4.1 4.3-3.5 2.7-2.1 2-8.6 5.9-3.7 4.5-2.9 2.4-3.4 2.3-0.6 1.4 0.3 1.6 1.1 1.6 0.7 1.9 0.3 2.3-0.3 12.8-7.7-3.4-25.5-15.9-9.1-4-10.4-2.5-21.1-2.3-8.7-3.6-8.4-5.2-19.8-15.8-2.9-3.4-3.1-17.5-2-2.8-0.4-5.7-11.5-31.9-5.6-4.8-10.6-7-4.5-4.7-4-6.1-3-7.3-0.4-7.8 4.3-7.8-9.5-15.8-1-6.4 0-13.3-2.1-11.4-10.9-18.8-4-9.4-2.1-15.2 1.7-11.1 5.7-3.7 10 7 14.9 16.4 8.3 6.5 9.4 4 20.6-1 18-9.6 14.8-14.6 11.1-16 7.4-18.9 5.3-10.2 7.9-5.8 1-2.8 1.4-2.9 2.9-1.3 2.4 0.7 3.8 2.6z" id="CY05" name="Paphos">
  </path>
  <path d="M418.2 46.7l-5.1-1.1 11.3 1.1-6.2 0z m315 5.3l-65 10.4 1.5-1 7.4-1.4 10.2-0.7 4.6-2.1 7.9-2.8 1.2 0 6.8 0 5.7-1.4 5.1-1.4 5.1 0 6.3 0 2.8 0 0.4 0.4z m-100 16l-12.8 2.1-23.9-2.7 1.4-1.1 7.4 2.1 10.3-1.4 8-0.7 2.8 1.4 4 0 2.8 0.3z m-54.8-2.7l-31.1-3.5-9-4.2-0.3 0 0.8-0.4 3.9 1.4 4.6 2.8 4-3.5 4.5 1.4 6.9 2.8 2.2 0.7 4 0 8.6 2.1 0.9 0.4z m-60.2-10.2l-12.6-1.7 1.9-1.8 2.8 0.7 2.3 0 3.4 0 2.2 2.8z m-49.8-4.7l-4.6 0.2 2.1-4.6 1.2 2.1 0 1.4 1.3 0.9z m-44.5-2.5l-3.2-0.6 2 0.1 1.2 0.5z m-21.8-5.2l-1.6-0.5-10.8-6.4 3.4 0.5 8.5 5.5 0.5 0.9z m-17.3-9.8l-1.9-1.1 1.1 0.3 0.8 0.8z m-10.4-3.8l-5.6-0.9 0.4-4.5 1.1 2.1 1.7 1.4 1.7 1.4 0.7 0.5z m-5.7 0.8l5.3 17.4 1.2 11.1-3.8-2.6-2.2-5.6-0.6-4.9 0-7 0-6.9 0.1-1.5z" id="CY06" name="Kyrenia">
  </path>
 </g>
 <g id="points">
  <circle class="34.664018059361815|32.363108757306144" cx="90.9" cy="473.9" id="0">
  </circle>
  <circle class="34.976007275895654|33.276805040185714" cx="545.5" cy="284.8" id="1">
  </circle>
  <circle class="35.36599379656296|34.00776206648937" cx="909.1" cy="47.5" id="2">
  </circle>
 </g>
 <g id="label_points">
  <circle class="Larnaca" cx="638.6" cy="350.1" id="CY03">
  </circle>
  <circle class="Famagusta" cx="864.3" cy="259.1" id="CY04">
  </circle>
  <circle class="Nicosia" cx="460.7" cy="255.2" id="CY01">
  </circle>
  <circle class="Limassol" cx="381.2" cy="385.1" id="CY02">
  </circle>
  <circle class="Paphos" cx="163.9" cy="321.4" id="CY05">
  </circle>
  <circle class="Kyrenia" cx="699.9" cy="55.9" id="CY06">
  </circle>
 </g>
</svg>