<?xml version="1.0"?>
    
<!--********* Copyright (c) 2024 Pareto Softare, LLC DBA Simplemaps.com ***************************************
************* Free for Commercial Use, full terms at  https://simplemaps.com/resources/svg-license ************
************* Attribution is appreciated! https://simplemaps.com *******************************************-->

<svg baseprofile="tiny" fill="#6f9c76" height="1000" stroke="#ffffff" stroke-linecap="round" stroke-linejoin="round" stroke-width=".5" version="1.2" viewbox="0 0 1000 1000" width="1000" xmlns="http://www.w3.org/2000/svg">
 <g id="features">
  <path d="M802.2 715.6l-133.6 210.1-7.9-2.7-5.1 4.3-5 6.3-1.5 0.5-11.3-0.9-2.1-0.2-5.4-0.4-1.2-0.1-2.5-0.2-2.5-0.7-14.3-1.5-7.3-3.7-0.2-0.1-11.6-13.1-4.8-18.4-5.8-9.7-0.6-0.1-53.7-9.7-0.3 0-7.7 1.3-8.1 1.5 0-0.1 2.3-51.7 6.4-14 40.7-23.6 63.9-37.7 15.7-12.6 24.2-44.4 73.6-14.8 15.9 6.4 49.8 30z" id="DJAS" name="Ali Sabieh">
  </path>
  <path d="M802.2 715.6l-49.8-30-15.9-6.4-73.6 14.8-24.2 44.4-15.7 12.6-63.9 37.7-104.5-18.5-41.3-61.2-12.8-40.7-11.4-58-2-21.5 17.8 21.9 7.7 6.2 58.8 26.8 0.3 12.4 2.8 10.5 16.6 6.5 10 9.2 6.2 2.4 7-1.3 8-7.4 5.7-1.8 4.4 1.2 4.7 2.2 4.9 1 4.6-2.5 2.9-6.5-3.4-3.9-5.2-2.7-2.6-2.9 4.4-8.5 10.1-7.1 23-8.9 34.2-4.1 10.9-2.9 5.2-3.9 4.1-4.2 4.1-1.6 5.7 4.2 4.1 2 12.9-0.2 0.6 1.2 27.4 29.4 29 3 18.5-0.1 59.8-11.2 2-0.5 5.4 7.8 5.7 4.2 15.7 8.5 7.3 7.2-26.2 41.2z" id="DJAR" name="Arta">
  </path>
  <path d="M559.1 788.7l-40.7 23.6-6.4 14-2.3 51.7 0 0.1-0.1 0-6.8 1.8-47.2 12.6-14.1 4.4-57.6 18.4-29.4 4-65 5.7-23.2 0.4-8.1 4-6.7 0.7-13.5 4.5-10.9 11.1-12.3 6.8-5.4 1.3-4.3 0.4-7.8 0.3-24.4-3.7-11.2-1.9-18.2-3.7-22.6-6.2-11.9-5.2-0.9-0.4-1.7-0.7-9.4-11.7 5.4-11.9 0.9-24.9 0.3-9.9 1.9-35.6 2.7-46.1-1.8-12-7.4-51.2-17.1-65.3 4.7-16.2 10.2-35.8 4.4-15.1 1-3.6 14.6-49.2 31.4-16.8 2.4-1.9 10.8-8.2 15.7-12.1 21.4-31.5 81.6 19.7 21 8.3 86 87.1 2 21.5 11.4 58 12.8 40.7 41.3 61.2 104.5 18.5z" id="DJDI" name="Dikhil">
  </path>
  <path d="M471.4 643.7l-58.8-26.8-7.7-6.2-17.8-21.9-86-87.1-21-8.3-81.6-19.7 17.1-25 16.9-25.5 34.6-59 0.6-0.6 5-5.9 15.4-17.7 43.7-65 18.5-15.8 8.1-7.4 8.7-26.3 7-19.5 13.4-17.2 16.9-20.3-4.3-4.4 20.1-21.8 8.8-1.5 13.7 3.6 23.2 10.4 78.9 70.3 6.7-9.7 2.4-0.7 1.2 8.4-1.5 10.3-6.7 5.6-1.9 2.6-1.5 3.2-0.8 3.8 0.1 4 1.2 4 11.8 24.3 2.7 3.7 3.7 4.2 25.1 21.7 4.6 2.9 5.2 2.1 12.9 3.6 104 116.1 5.9 9.2 14.3 30.8 4.2 6.4 12 12.2-5 2.1-3.5 2.3-2.3 3.5-1.9 7.1-2.7 3.1-7.1 2.6-27.5 1.3-7.2 2.7-7.6 5.3-7.5 3.4-13.7-5-9.6 1.6-46.9 16.7-13.2 8.1-11.6 12.6-35.3 64.6-3.4 4.5-4.7 2.6-15.7 4.6-4.6 0.3-12.1-2.2-13.3 0.5-4.2-0.5-2.8-2-4.8-6.7-2.7-1.9-11 0.7-5.9 4.3-0.1 3.6 6.7-1.6 2.2 11.2 0 0.5z" id="DJTA" name="Tadjourah">
  </path>
  <path d="M750.4 493.8l-12-12.2-4.2-6.4-14.3-30.8-5.9-9.2-104-116.1-12.9-3.6-5.2-2.1-4.6-2.9-25.1-21.7-3.7-4.2-2.7-3.7-11.8-24.3-1.2-4-0.1-4 0.8-3.8 1.5-3.2 1.9-2.6 6.7-5.6 1.5-10.3-1.2-8.4 15.9-4.5 6.9-9.9 4.2-4.7 15.1-2.8 6.3-3.4 2.9-13.9-4.7-16.2-1.7-15.4 21.9-20.8 11.8-28 8.4-7.4 4.5 0.6 6.2 4.9 5.2-0.5 109.5-47.2 8.2 5.5 4.8 9.1 3.9 10.2 5.4 8.8 49.3 56.5 11.9 19 7.1 7.5 7.9 2.3 8.2-5.8 0 18.2 1 8.7 2.5 8.7 4 7.1 4.6 5.6 3.6 6.3 1.6 9.2 0.6 19.7 1.5 10.4 3.2 7.2 18.8 26.4 1.5 8.7-1.5 30 3.7 38.9-2.7 16.5-7.4 15.3-10.9 12.8-13.4 8.7-4 1.1-13.6 2.4-13.7 7-10.1 1.9-21.6 0.5-9.6 2.6-16.4 11.7-38.7 46.6-2.6 1.7-3 1.3z" id="DJOB" name="Obock">
  </path>
  <path d="M794.3 646.7l-2 0.5-59.8 11.2-18.5 0.1-29-3-27.4-29.4-0.6-1.2 70.5-0.9 10.7-2.2 10.1 0.3 10.8 6.5 9.9-2.4 5.3-7.1 3.9-6.8 5.4-1.6 3 5.3 7.2 30.1 0.5 0.6z" id="DJDJ" name="Djibouti">
  </path>
 </g>
 <g id="points">
  <circle class="11.030954246636062|41.842802592163146" cx="123.7" cy="909.2" id="0">
  </circle>
  <circle class="11.737041895192233|42.67222848339521" cx="541.8" cy="546.2" id="1">
  </circle>
  <circle class="12.619651455887446|43.33576919638086" cx="876.3" cy="91.1" id="2">
  </circle>
 </g>
 <g id="label_points">
  <circle class="Ali Sabieh" cx="653.4" cy="814" id="DJAS">
  </circle>
  <circle class="Arta" cx="583.2" cy="714.8" id="DJAR">
  </circle>
  <circle class="Dikhil" cx="264.4" cy="749.8" id="DJDI">
  </circle>
  <circle class="Tadjourah" cx="465.2" cy="430" id="DJTA">
  </circle>
  <circle class="Obock" cx="748.6" cy="261.7" id="DJOB">
  </circle>
  <circle class="Djibouti" cx="731.1" cy="640.8" id="DJDJ">
  </circle>
 </g>
</svg>