<?xml version="1.0"?>
    
<!--********* Copyright (c) 2024 Pareto Softare, LLC DBA Simplemaps.com ***************************************
************* Free for Commercial Use, full terms at  https://simplemaps.com/resources/svg-license ************
************* Attribution is appreciated! https://simplemaps.com *******************************************-->

<svg baseprofile="tiny" fill="#6f9c76" height="1000" stroke="#ffffff" stroke-linecap="round" stroke-linejoin="round" stroke-width=".5" version="1.2" viewbox="0 0 1000 1000" width="1000" xmlns="http://www.w3.org/2000/svg">
 <g id="features">
  <path d="M733.3 679.4l0.7 16.8-6 82.7-41.6 73.9-14.6 11.3-9.9 2.6-8-0.6-20.6 2.7-17.3-4.1-12.7 2.4-11 10.1-10.4 27.4-28.3 12.4-6.6 15.4-0.9 1.4-18.8-67.5-2-21 28.3-43.2 20.2-16.3 18.8-9.9 8.1-5.7 5.8-5.7 24.9-41.7 0.3-3.2-0.9-1.2-7.3-5.3 16.3-14.6 7.7-4 85.8-15.1z" id="DM09" name="Saint Patrick">
  </path>
  <path d="M733.3 679.4l-85.8 15.1-7.7 4-16.3 14.6 3.1-12.3 0.1-2.2-0.4-4.1-0.9-3.4-1.7-4.3-0.3-1.6-0.1-1.4 0.8-3.5-6.8-6.2-33.1-21.7 0.3-88.9-14.5-36.2 34.9-84 38.4-36.6 9.3-6.5 0.8 0.5 0.9 0.3 0.7 0.3 0.6-0.2 1.4-0.3 0.8 0.1 1.4 0.2 0.6 0 1.5-0.8 1.7-1.5 3.5-3.8 5.1-4.4 0.8-0.3 0.7-0.2 3.3-0.1 0.9-0.1 1.1-0.3 1.2-0.7 2.1-1.7 7.3-7.6 1.2-1 0.8-0.3 0.6-4.1-1.5-42.7-0.8-3 3.3-7.8 11.2-14.3 3 4.5 19.2 74.1 3.4 77.1-14.1 59 9.3 3.4 8.4 7 10.1 4-12.7 76.8 2.9 67.1z" id="DM03" name="Saint David">
  </path>
  <path d="M703.8 306.4l-11.2 14.3-3.3 7.8 0.8 3 1.5 42.7-0.6 4.1-0.8 0.3-1.2 1-7.3 7.6-2.1 1.7-1.2 0.7-1.1 0.3-0.9 0.1-3.3 0.1-0.7 0.2-0.8 0.3-5.1 4.4-3.5 3.8-1.7 1.5-1.5 0.8-0.6 0-1.4-0.2-0.8-0.1-1.4 0.3-0.6 0.2-0.7-0.3-0.9-0.3-0.8-0.5-9.3 6.5-38.4 36.6-11.1-28.3-31-25.1-11.9-6.5-7.8-3.4-6.2-0.7-6.4-1.3-7.4-2.6-21.1-9.3-2.5-0.6-2.2 0.5-8.4 4.2-8.1 2.6-12 1.3-9.7-4.4-7.3-4.7-26-26-4.2-18-4.9-41.4-2.6-10.3-13.3-11-1.7-12.4 1.2-61-2-22.8-0.9-0.4-1.5-2.3-0.6-0.4-0.7-0.2-0.6-0.2-0.8 0.1-0.6 0.1-0.9 0.2-1.9-0.1-1.1-0.1-3.6-1.6-0.8-0.6-0.8-0.8-1-1.9-0.5-0.9-7.3-2.9-13.7-13.7-5.4-9.4-18.1-79.9 24.3 0.9 22.9 8.8 24.8 18.7 32.7 48.4 26.3 17.4 30.2-16 25.2-4.9 100.6 40.1 3.7 14.3 12.9 32.1 20.1 34.2 11.3 20.1 31.3 45.2z" id="DM02" name="Saint Andrew">
  </path>
  <path d="M337.5 47.1l18.1 79.9 5.4 9.4 13.7 13.7 7.3 2.9 0.5 0.9 1 1.9 0.8 0.8 0.8 0.6 3.6 1.6 1.1 0.1 1.9 0.1 0.9-0.2 0.6-0.1 0.8-0.1 0.6 0.2 0.7 0.2 0.6 0.4 1.5 2.3 0.9 0.4 2 22.8-1.2 61 1.7 12.4 13.3 11 2.6 10.3 4.9 41.4-112.5-60.6-0.8 0.3-1.3 0.2-1.6-0.1-8.6-1.7-0.9 0-10.6-2.7-1.7-0.3-1.8 0.4-1.3 0-4.5-1.1-1.6 0.9-0.8 0.7-6.7 8-1.7-1.6-8.3-11.3 0.1-19.7 9.9-13.7 33.9-24 10.4-21-14-2.8-24.6-9-15.6-1.4 16.8-24.8 23.6-90.2 40.1 1.6z" id="DM05" name="Saint John">
  </path>
  <path d="M421.6 321l4.2 18-36.9 5-13.8 6.7-2.9 3.7-2 3.5-12.3 12.5-32.8 27.8-9.6-13.8-11.2-6.9-13.2-11-4.5-25.5-1.9-51.1-8.4-16.2-9.4-8.7 6.7-8 0.8-0.7 1.6-0.9 4.5 1.1 1.3 0 1.8-0.4 1.7 0.3 10.6 2.7 0.9 0 8.6 1.7 1.6 0.1 1.3-0.2 0.8-0.3 112.5 60.6z" id="DM11" name="Saint Peter">
  </path>
  <path d="M604.9 443.3l-34.9 84-67.9 32.1-6.2 0.8-8.8-1.3-34.7-8.3-25 0.6-22.6 7.3-4.2-33.3-6.3-18.5-46.7-46.4-7.4-17.5-3.9-20.1-9-21.4-2.2-3.1 32.8-27.8 12.3-12.5 2-3.5 2.9-3.7 13.8-6.7 36.9-5 26 26 7.3 4.7 9.7 4.4 12-1.3 8.1-2.6 8.4-4.2 2.2-0.5 2.5 0.6 21.1 9.3 7.4 2.6 6.4 1.3 6.2 0.7 7.8 3.4 11.9 6.5 31 25.1 11.1 28.3z" id="DM06" name="Saint Joseph">
  </path>
  <path d="M570 527.3l14.5 36.2-0.3 88.9-83.6 43.3-0.7 1.5-0.3 0.8-0.3 0.9-4.5 14.8-1.9 3.3-3 2.6-1.6 0.5-1.4 0.3-0.8-0.1-0.9-0.3-0.9 0-1.1 0-3.9 1-1.2 0.2-3.6-0.3-0.6 0.1-23.6-1.4-2.9-41.1-9.2-38-28.7-61.8-4-14.9-0.7-5.3 22.6-7.3 25-0.6 34.7 8.3 8.8 1.3 6.2-0.8 67.9-32.1z" id="DM10" name="Saint Paul">
  </path>
  <path d="M623.5 713.1l7.3 5.3 0.9 1.2-0.3 3.2-24.9 41.7-5.8 5.7-8.1 5.7-18.8 9.9-20.2 16.3-28.3 43.2-33.6-13.8-0.2-12.8 1-9-11.2-23.9-25.6-29.9-4.6-25.2-0.8-11.1 23.6 1.4 0.6-0.1 3.6 0.3 1.2-0.2 3.9-1 1.1 0 0.9 0 0.9 0.3 0.8 0.1 1.4-0.3 1.6-0.5 3-2.6 1.9-3.3 4.5-14.8 0.3-0.9 0.3-0.8 0.7-1.5 83.6-43.3 33.1 21.7 6.8 6.2-0.8 3.5 0.1 1.4 0.3 1.6 1.7 4.3 0.9 3.4 0.4 4.1-0.1 2.2-3.1 12.3z" id="DM04" name="Saint George">
  </path>
  <path d="M525.3 845.3l2 21-34.9 16.5 0.1-2.7-0.8-48.6 33.6 13.8z" id="DM07" name="Saint Luke">
  </path>
  <path d="M527.3 866.3l18.8 67.5-8.9 13.7-24.6 7-22.8-6.3-4.1-16.8 6.8-51.3-0.1 2.7 34.9-16.5z" id="DM08" name="Saint Mark">
  </path>
 </g>
 <g id="points">
  <circle class="15.223411357802123|-61.47693844436012" cx="281.2" cy="909.1" id="0">
  </circle>
  <circle class="15.396230354621489|-61.357106087217154" cx="524.3" cy="545.7" id="1">
  </circle>
  <circle class="15.612254100645696|-61.26124020150278" cx="718.8" cy="91" id="2">
  </circle>
 </g>
 <g id="label_points">
  <circle class="Saint Patrick" cx="647.5" cy="805.3" id="DM09">
  </circle>
  <circle class="Saint David" cx="656.1" cy="562.5" id="DM03">
  </circle>
  <circle class="Saint Andrew" cx="529.2" cy="250" id="DM02">
  </circle>
  <circle class="Saint John" cx="349" cy="213.2" id="DM05">
  </circle>
  <circle class="Saint Peter" cx="334.4" cy="328.4" id="DM11">
  </circle>
  <circle class="Saint Joseph" cx="477.5" cy="464.9" id="DM06">
  </circle>
  <circle class="Saint Paul" cx="500.1" cy="622.9" id="DM10">
  </circle>
  <circle class="Saint George" cx="545" cy="739.7" id="DM04">
  </circle>
  <circle class="Saint Luke" cx="508.3" cy="856.8" id="DM07">
  </circle>
  <circle class="Saint Mark" cx="513.8" cy="915.2" id="DM08">
  </circle>
 </g>
</svg>