<?xml version="1.0"?>
    
<!--********* Copyright (c) 2024 Pareto Softare, LLC DBA Simplemaps.com ***************************************
************* Free for Commercial Use, full terms at  https://simplemaps.com/resources/svg-license ************
************* Attribution is appreciated! https://simplemaps.com *******************************************-->

<svg baseprofile="tiny" fill="#6f9c76" height="898" stroke="#ffffff" stroke-linecap="round" stroke-linejoin="round" stroke-width=".5" version="1.2" viewbox="0 0 1000 898" width="1000" xmlns="http://www.w3.org/2000/svg">
 <g id="features">
  <path d="M954.4 40.8l0 11.5 0 11.4 0 11.4 0 11.5 0 1.6 0 4.8 0 7.3 0 9.5 0 11.3 0 12.5 0.1 13.4 0 13.9 0 13.8 0 13.3 0 12.5 0 11.2 0 9.4 0 7.3 0 4.7 0 1.7 0 5.4-0.7 1.6-2.1 0.6-9.2 0-10.8 0-10.9 0-10.9 0-10.8 0-10.9 0-10.9 0-10.9 0-10.8 0-10.9 0-10.9 0-10.8 0-10.9 0-10.9 0-10.9 0-10.8 0-10.9 0-10.9 0-10.8 0-10.9 0-10.9 0-10.8 0-10.9 0-10.9 0-10.8 0-10.9 0-10.9 0-10.9 0-10.8 0-10.9 0-10.9 0-10.8 0-10.9 0 0 9.1 0 9 0 9.1 0 9 0 9.1 0 9 0 9.1 0 9 0 9 0 9.1 0 9 0 9 0 9 0 9 0 9 0 9 0 8.9 0 9 0 9 0 9 0 8.9 0 9 0 8.9 0 9 0 8.9 0 8.9 0 9 0 8.9 0 8.9 0 8.9 0 9 0 8.9 0 9.5-0.4 4-1.5 1.9-11 3-23.6 11.4-3.9 1.1-18.2 2.7-6.6 2.2-6.8 4.7-11.6 8.1-13.5 9.4-10.8 7.5-2.1 2.7-9.2 13.1-3.5 7.4-1.4 7.9 1.1 7.5 5.2 15 1.5 7.6 1.7 29.1 1.8 29.2 3.1 48 0.6 10.1 1.2 18.7-15.8 0-4.5 0-12.6 0-19.6 0-25.4 0.1-30.1 0-30.2 0-3.3 0-35.9 0-37.1 0-37 0-35.9 0-33.5 0-30.1 0-25.4 0-19.6 0-12.6 0-4.5 0-12.5 0-1 1-1.9 10-2.1 11.1-4.6 13.3-0.7 3.6-2.5 10.6-0.4 3.4 2.6 12.4-1.2-2.9-3.5-5.2-0.4-2.9 0.3-1.6 1-2.7 0.2-1.6 0-5.6 0.4-2 2-5.9 4.5-34.5 1-4.2 0.2-1.7 0.2-4.7 6.8-1.1 23.8-4.7 16.2-1.2 42.1 0 16.1-2.3 13 0 18.4 1.2 15.1 2.3 16.2 2.3 18.3 0 15.1 1.1 19.4 0 14.1-1.1 9.7-5.8 8.6-11.5 3.2-9.3 3.3-8.2-1.1-8.2-1.1-4.6 5.4-5.8 6.5-9.3 6.5-5.8 2.1-4.7 6.5-4.7 7.5-8.2 4.4-5.8 5.3-8 1.1-7.1 2.2-9.4 0-16.3 2.2-19.8 3.2-13 2.1-10.5 2.2-16.4 6.5-28.2 2.1-8.2 4.4-12.9 5.3-11.9 4.4-8.2 5.4-7.1 7.5-4.7 11.9-4.7 8.6-4.7 10.8-4.8 9.7-3.5 8.7-4.8 3.2-4.6 5.4-8.3 7.5-15.3 4.4-9.5 6.4-11.9 7.6-8.3 4.7-3.2 3.9-2.7 9.8-6 11.8-7.1 8.7-5.9 7.5-6 6.5-4.6 7.5-7.2 3.3-6 4.3-10.7 5.4-16.7 4.3-17.8 4.3-19.2 3.2-11.9 3.3-14.3 4.3-10.9 3.2-11.9 2.2-4.9 0-5.9 2.2-8.5 0.4-0.6 2.8-4.2 7.6-2.3 8.6-2.5 13.6-1.9 4-2.1 2-7 1.6-6.1 5.1-9.9 5.7-7.9 3.4-4.8 4.4-8.4 4.5-6 7.6-7.6 6.7-6 2.3-6.2 0-7.3-4.8-5.9-3.4-10.8 13.9-3.3 12.2-3.7 11.2-3.6 13.4-4.8 10 0 7.8-1.2 11.2 2.4 11.1 1.2 7.8 3.6 13.4 7.2 11.2 4.9 6.6 0 7.2-2.4 6.1-3.4 3.7-0.2 5.5 2.4 8.7 4.9 8.9 0 8.9-1.3 6.7-6 11.2-9.7 8.9-7.3 8-4.6 6.5-1.2 7.3 0 8.3-0.2 13.4 1.2 8.9 0 12.2-1.7 10.1-2 4.5-3.7 0-4.8-2.2-7.2-2.5-7-0.6-6.4 1.5-6.8 1.6-5.4-1.1-8.5-3.2-10.1-0.6-5.6 0.1-0.3 0.1 0 6.9 0 7.6 0z" id="EH" name="W. Sahara">
  </path>
 </g>
 <g id="points">
  <circle class="21.111640767047177|-16.683452572626553" cx="90.9" cy="817.5" id="0">
  </circle>
  <circle class="23.869461576561463|-12.471534946162317" cx="545.5" cy="495.4" id="1">
  </circle>
  <circle class="27.31673758845432|-9.102000844990927" cx="909.1" cy="82.8" id="2">
  </circle>
 </g>
 <g id="label_points">
  <circle class="W. Sahara" cx="528.2" cy="483.8" id="EH">
  </circle>
 </g>
</svg>