<?xml version="1.0"?>
    
<!--********* Copyright (c) 2024 Pareto Softare, LLC DBA Simplemaps.com ***************************************
************* Free for Commercial Use, full terms at  https://simplemaps.com/resources/svg-license ************
************* Attribution is appreciated! https://simplemaps.com *******************************************-->

<svg baseprofile="tiny" fill="#6f9c76" height="875" stroke="#ffffff" stroke-linecap="round" stroke-linejoin="round" stroke-width=".5" version="1.2" viewbox="0 0 1000 875" width="1000" xmlns="http://www.w3.org/2000/svg">
 <g id="features">
  <path d="M582.5 551.6l6.8-11.4 6.8-15.1 12.1-17.4 2.1-5.2 0.6-5.2-0.3-5.8-2.7-13.5-0.3-4.4 0.2-1 0.2 0 0.7-0.4 1.2-0.2 2.5 0.4 1.3 0.6 0.6 1.3 0.5 5.5 0.5 1.2 3.9 1.6-0.6-2.4 1.1-0.7 3.7 0.2 1 0.7 0.4 1.2-0.7 0.8-2.1-0.8-0.8 1 6.5 6.8 0-0.3 0.5-0.3 0.6 0.3 0.7 1.2 0.2 1-0.2 3.9-1.1 3.2 0 1.5 1.1 1.9 3.5 2.5 1.1 1.6 0 2.7 1.5-0.9 1.3-0.6 1.4-0.1 1.5 0.5 0-2.7 3.1 1.4 7.3-0.3 4 2.2 4.2 3 3.8 1.1 9.2 0.3 15.7 3.6 1.5 0.7 1.7 2.1 2.2 5.2 1.8 2.4 6 4.2 4 2.9 3.3 4 2.1 4.8 0.8 5.2 1 2.2 2.3 1.4 2.2 1 1.1 1.2 0.6 1 2.5 3.2 1.8 5.6 2.8 3.4 6.3 5.5 3.5 4.1 1.2 2 0.9 2.5 1.1 4.6 0.6 1.7 1.1 1.5 1.9 1.4 4.5 2.8 2.3 2 2.1 2.5 4.9 9.4 1.5 5.8 1.1 2.1 8.7 2.6 1.8 0.1 4.4-1.6 1.7-0.3 1 0.7 2.7 4.6 2.2 2.3 1 0.6 1.9 0.4 1.5 0 3-0.8 1.1-0.1 2.3 0.9 4.8 3.2 1.8 0.7 1.5 1.1 0.7 2.5 0.4 2.9 0.6 2.1 5.6 4.4 0.9 1.9 0.6 0 3.1 4.3 1 1.9 0.3 0.2 1.2 0.5 0.3 0.2 0.6 1.6 0.8 3.1 1 1.5 1.4 0.4 1.7-0.6 1.4-0.8 0.5 0.1 0.5 0.9 2.4 1.6 0.9 0.8 0.5 1.3 0.8 3.2 0.5 1.2 3.2 2.4 0.5 0.2 0.6 1.9 1 0 0.9-0.9-0.1-0.5-0.7-0.5-2-2.6-0.4-0.8-0.3-0.3-0.4-0.2-0.4-0.5 0-1 0.4-0.1 1.9 0.1 0.5 0 0.1-3.7-1.9-1.6-2.3-1.2-2.9-0.2-1.1-0.4 0.4-0.8 1.2-0.7 1.8 0 4.7 3.8 5 6.7 1.9 0.9 2.5 1.6 0.9 3.4-0.1 5.7 1.6 4.6 1.2 2.2 1.4 0.9 1.4 1.5 1 3.6 2.1 16.1 1.9 3.3 0.7 6.8-0.1 0.7 0.4 0.4 4.1 2.5 2.9 0.8 6.2 0.6 2.6-0.5 1.6-1.3 0.9-1.8 0.9-2.1 1.8 0.4 0.5 0.8 0 1.2 0.5 1.4 0.8 0.7 1 0.5 0.7 0.7 0.3 1.4 1.1 1.9 6.8 5.8 4.8 7.9 1.7 1.2 2.7 0.4 2.3 1 1.8 1.4 1.6 1.5 1.1 2.1 1.3 7.9 2.2 5 0.5 2.7 0.4 3.9 0.5 2.2 1 1.5 1.9 0.5 1.8-0.6 1.8-1 1.9-0.7 1.8 3.7 2.7 2.3 3.7 1.2 4.9 0.3-0.7 0.7-1.2 2.1 1.3 0.1 1.1-0.3 1.3-0.7-0.1-0.2 2.5-1.6 0.4-0.1 1.6-1.8 1.3-2 0.3-1.3 0-0.9 0.2-0.8 1.3-0.7-0.8-1.4-0.2-1.4 0.3-1.2 0.7-1 3.9 3 1.9 1.9 0.7 1.4 0.6 1.5 1.5 1.1 1.7 1.1 1.4 1.1 0.9 1.8 0.2 4.2 0.3 2.1 3.6 6.6-0.8 1-29.5 12.8-1.4 0.1-1.7-1.3-1.2-0.2-2.3 2-3.2 7.6-5.9 5.6 0.5 4.1 1.3 4.4-0.8 3.8-1.7 0.9-4.1 0.7-1.1 1.3-1.9 2.7-4.3 1.2-0.6 0.2-1.8 2.6-21.3-19-6.3-2.8-3.6-1-2.4 0.5-5.5 5.8-5.4-5.5-4.6-2.3-9.1-12.5-8.9-15.2-6.4-5.6-6.6-3.7-0.8-0.8-1.7-2-1.9-2.2-0.9-1-1-1.7-1.2-2.4-1.8-3.8-1.4-2.9-1.7-2-1.6-3.4-1.8-3.3-5.8-6.5-1.1-1.3-5.1-6.2-0.8-0.9-12.5-11.9-6.7-7.8-5.7-5.5-6-5.8-5.4-5-4.5-5.3-6.4-6.6-9.8-9.6-2.7-2.5-2.8-2.5-5.5-4.6-3.8-3.8-5-4.6-3.1-4.5-2.9-3.7-2.6-3.3-4.7-4.9-3.3-2.9-3.1-3-9.4-9.5-3-2.9-8.4-7.6-6.1-5.3-8.8-7.7-9.9-11.3-8.3-5.9-4.5-1.8-9.2-7.3-0.4 0.2 0.4-0.2-2.8-2.3-3.1-2.2-11.2-7.9-13.7-8.7-5.2-2.3-2.7-1.3z" id="ERDK" name="Debubawi Keyih Bahri">
  </path>
  <path d="M607.8 472.6l-0.2 1 0.3 4.4 2.7 13.5 0.3 5.8-0.6 5.2-2.1 5.2-12.1 17.4-6.8 15.1-6.8 11.4-0.2-0.1-7.3-4.8-8.5-4.1-6.3-3.6-6.7-1.6-4.5-1.1-6.9 1.1-1.9-0.5-2.7 1-1.7 1.8-2 2.2-0.9 1-2.9-0.6-2.8-0.5-2.5 0.7-4.1 3.5-2.7 0.8-0.1 0-1.4-1.2-0.7-0.6-0.6-1 0-0.1-1.5-1.1-0.9-1.4-0.8-0.2-0.7-0.4-0.7-0.8-1.3-0.4-0.8-0.7-1.4-0.7-0.7 0.6-0.5 0.1-1.6-1 0-0.1-0.5-0.8-0.8-0.9-0.2 0-0.2 0-0.7-0.1-0.2-0.9-0.8-0.6-0.7-1.1-0.5-0.5-0.3-0.7-0.8-0.8-0.2-1.1-1.2-0.4-1.1-0.2-1.1-0.1-1-0.2-0.8 0.1-0.9-0.3-0.9-0.4-0.8 0-0.6-0.6-0.8-0.9-0.3-1-1-1.1-0.7-0.9-0.6-0.7-0.3 0-0.1 0-0.5 0-0.4-0.2-0.4-0.6-39.3-68.2-2.8-6.6-4.3-7-5.7-3.7-11.7-6.3-6.6-5.8-7.9-8.8-12.4-19.1-3.3-6.4-2.4-6.3-4.6-17.2-11.9-20.2-2.1-2.6-1.7-1.3-18.4-2.3-6.4-2-6.3-2.6-6.7-4.6-2.9-3.8-1.5-4.7-0.3-11.5 0.4-3.5 0.9-2.5 1.2-2.3 0.7-2 0.4-2.7-0.1-3.3-0.9-4.2-1.7-4.8-3.9-7.1-3.4-4.1-3.2-2.8-3.1-3.5-1.3-3.6-2.1-7.6-1.6-3.1-2.7-4-1.2-2.8-0.9-2.9-0.8-2.1-1.5-1.2-31-5.6-3.4-1.7-3-3.3-0.9-3.3 0.5-4.2 1.9-9.2-0.1-4.6-0.7-2.9-1.8-2.5-2.1-2.3-3-3.9-1-2.9 0.3-3.4 1-3 1.5-7 2.3-58.3-1-16-0.2-1.4 0.1-0.1 3.2-1.2 3.1 0.1 1 1 0.1 1 0.1 1.4 0.1 1.8 0 1.2 0 0.3 0 2.6 0.7 0.1 1 0.1 0.6 0.1 0.5 0 0.8 0.1 0.8 0.2 0.8 0.4-0.5-1.9-0.1-0.3 0.4-0.4 1.4-2.7 0.1-1.5-0.4-1-0.1-0.9 0.6-1.3 0.8-0.1 4.8-1.6 2.2 1.4 2 2.1 2.4 1.5 3.3-0.5 2.3-2.3 0.2-2 0.3-0.1 0.5-0.2 0.3-0.2 0.7-0.4 0.2-2.1 0.7-0.4 0.6-1.9 0.1-0.3 0.2-1.8 0.3-1.8 5.8-2.9 0.8-0.6 2.2-0.6 1.5-3.2-0.2-0.2 2.2-3.6 1.1-3 0.8-1 0.5-1.5 0-0.8 5.8-15.6 3.8-5.5 19.3-16.3 0.3 1.5 1.3 1.5 1 4.4 5.8 8.3 0.4 1.4 0.2 2.9 0.3 1.5 2.4 3.5 0.5 0.8 0.6 2.5 12.8 19.6 9.5 22.2 9.4 16.6 3.3 12.1 1.6 2.8-1.7 5.5 2.5 4.3 3.8 3.9 1.9 4.4 0.7 5.5 1.1 4.7 4.1 8.4 0.6 2.8 0.4 5.7 0.7 2.9 2.1 4.1 0.8 5.8 0.7 2.4 4.5 10.3 2.9 11.1-1.9-1 2.8 6.3 0.7 3.1 0.3 4.2-2.5 2.6 2.1 6.5-0.6 3.6-0.9-0.9 0.2 2.2 1.3 0.6 1.5 0 0.7 0.5-0.2 4.9 0.2 1.3 0.5 1.3 0.6 1.1 0.5 1.3 0.3 1.7-0.2 5.6 0.2 1.8 0.4 1.3 1.3 2.3 0.2 1.7-0.2 1.8-0.8 3.5 0 2 4.2 18.4 0.5 6.3 0.5 2.1 3.2 7.1 4.7 18.4 2.7 4.9 8.1 5 1.2 2.2 1.1 0.9 5 2.3 1.4 1.2 0 1.8-0.6 1.6-0.9 1.4-0.4 1.5 0.4 1.6 2 2.1 0.4 1.1 0.2 3.8 0.7 2.2 3.7 4.2-2.3 0.2-1.6 1.4-0.6 2 0.8 2.3 0.6-1.3 1.2-1.4 1.5-0.6 1.4 1.2-0.3 2.7-2.7 1.3-3 0.4-1.5 0 0.3 1.3 2.5 4 0.6 4.7 0.3 1.1 2 0.7 3.1 0.3 3-0.4 1.3-1.1 1-1.7 2.5-0.3 2.7 0.5 2.1 1 3.2 4.4 7.2 23.1 0.5 0.5 2.6 1 0.5 0.5 0.4 2.5 0.8 2.3 1.1 2 1.5 1.4-2 7.7-0.7 12.1 0.3 0.5 1.2 1 0.3 0.5 0.5 2.1 1.3 1.1 1.8 0.1 1.9-1 1.4 2.7 1.5 0.4 2.2-0.7 2.9-0.4 1-0.8 0.7-1.6 0.3-1.8-0.1-1.1-0.7-1.3 0.5-1 1.6-1.1 2.6-4.7 0.3-2.7-2.7-4.8-1.5-5.6-1.1-2-1.8-0.1-1.1 2.2-0.9 1.2-1.2-2.9-0.3-2.7 0.3-7.3-0.2-1.6-0.7-2.7-0.1-1.5 0.3-1.8 0.7-0.5 1-0.3 0.7-0.9 1-4.8 0.9-1.4 1.9 1.4 0.9 0 0.1-1.1 0.9-2.7 0.9 0 0 0.4 0 1.4 1.5-1.2 1.8-3 1.2-1.6 2 3.7 2.7 2.9 13 10.8 2 1 3.1 0.7 1.1 0.4 1.3 0.9 1.6 1.3 1 1.4 0.5 1.5-0.3 1.5-1 1.7-2.4 1.9-1.2 1.3-0.8 1.4-2 5.3 1.5-0.2 1.2 0.4 0.7 0.8 0.3 1.5-0.3 0.4-1.4 0.5-0.2 0.5 0.2 0.6 0.7 0.6 0.1 0.3 0.7 1.2 3.2 2.4 0.7 1.2 0.4 1.8 1.8 3.6 0.6 1.9-0.1 1.5-0.3 1.9-0.2 1.8 0.6 1.6 1.7-0.7 1.9 0.4 1.5 1.1 0.6 1.4 0.2 1.2 0.6 0.3 0.6 0.1 0.4 0.9-0.1 1.3-0.7 2.1-0.2 1 1.3 2.5 3.2 1.6 10 3.6 2.2 1 1 0.9 1 2.5 2-0.4 3.1-2.7 3.1-1.2 2.1-2.8 1.7-3.2 2-2.3-0.2 2.2 0.5 2 1.2 1 2.2-0.4 0.8-1.2-0.3-1.6 0.2-1.4 2.5-0.6 1.4-0.1 0.4-0.1 1.5 1.1-0.3 0.5-0.3 1 0.3 0.9 1.7 0.5 1 0.4 0.4 0.8 0.5 0.7 1.3 0.1 0.9-0.5 0.8-0.7 0.7-0.9 0.5-0.8-0.7-1.1-0.3-1.2 0-2.6 0.7 0.7 0.7 1.5 0.5 0.7 3.7 0.9 0.3 1.2-0.1 1.3 0 1.2 0.7 1.2 1.1 0.7 0.5-0.1z m-25.3-97.2l2 0.1 0.7 0.3 1.1 5.7-0.9 2.5-1.9 1.1-2.8-1.4-1-0.2-1.3-0.3-6.5 1.6-2.9 0.2-2.9-1-4.7-2.3-3.1-0.4-6.8 1.4-1.3-0.2-0.7-0.2-0.6-0.5-0.8-1-0.5-0.8-0.4-0.2-0.5-0.5 0-0.1-1.3 2.4-1.5 1.2-2.3 0.2-3.4-0.7-5.5-2.2-0.7-0.1-1.8-0.4-3.1 0.7-1.2-1.6-0.8-1.2-3.6-10.7 1.5 0 1 0.3 0.1 0.6 0 0.1-0.8 0.9 1.1 0.7 0.8 0.8 0.3 0.6 0.3 0.5 0.3 1.3 1 0 1.3-0.5 1.8 0.7 1.9 1.1 1.5 0.6 1.7-0.1 5.7-1.8-2.5-4.5-3.3-3.7-4-2.5-4.6-0.9-4.5 1-1.6-0.5-0.9-2.5 0.2-2.8 1.2-1.6 1.7-0.2 3.3 2.1 0.8 0.6 1.8 0.1 0.5-1.1-1.6-2.4-0.7-2.4-0.2-0.5 2.7-1.3 3.6-0.3 1.4 0.1 0.2 0 0.6-1.8-0.9-2.2-1.6-1.9-1.4-0.9-4.7 0.3-1.5-0.7-1.7-2.4 5 0.4 5.2 1.2 5 2 3 2 0.9 0.6 1.3 2 0.6 1-0.7 2.1-1.4 1.5-0.2 1.6 1 1.1 1.3 0 1.2-0.5 1.2-0.6-0.3-0.5-0.6-1-0.1-0.9 1.4-0.4 1.4 0.8 0.3 1.8 0.1 0.2-0.8 11.4 0.3 2.2 0.8 1.6 0.1 0.4 2.4 4.1 0.5 1.2 1.4 0.1 7.9 2.3 2.1-3.9 0.8-0.9 1.1-0.3-1.8-0.7-2.8-0.8-1.1-1.6 1-1.6 2.4-0.8 3.1-0.2 2.7 0.2 1.6 0.3 1.2 0.4 0.5 0.3 0.5 0.2 0.9 0.7 0.5 1.1 0.2 1.3 0.4 1 1.2 0.5 1.9 0.4 2.8 2 1.8 0.4z m-39.6-57.4l-2 1.9-0.4 2.1 0.8 0.8 1.2 0.7 1 0.9 1.4 1 0.6 1.3-2.4 0.7-4-1.3-3.3-1.9-5.8-0.6-1.4-1.4 0-2.3 1.1-2.2 2.4-0.9 3.1-0.3 1.2-0.8-0.5-1.1-0.3-1.4 0-1.5 0.2-1.6 1-0.6 3.5 2.8 1 0.5 1.3 0.4 2.5 1.1 1 1.6-0.9 1.3-2.3 0.8z" id="ERDU" name="Debub">
  </path>
  <path d="M260.1 106.2l0.2 1.4 1 16-2.3 58.3-1.5 7-1 3-0.3 3.4 1 2.9 3 3.9 2.1 2.3 1.8 2.5 0.7 2.9 0.1 4.6-1.9 9.2-0.5 4.2 0.9 3.3 3 3.3 3.4 1.7 31 5.6 1.5 1.2 0.8 2.1 0.9 2.9 1.2 2.8 2.7 4 1.6 3.1 2.1 7.6 1.3 3.6 3.1 3.5 3.2 2.8 3.4 4.1 3.9 7.1 1.7 4.8 0.9 4.2 0.1 3.3-0.4 2.7-0.7 2-1.2 2.3-0.9 2.5-0.4 3.5 0.3 11.5 1.5 4.7 2.9 3.8 6.7 4.6 6.3 2.6 6.4 2 18.4 2.3 1.7 1.3 2.1 2.6 11.9 20.2 4.6 17.2-8.5 1.5-5.1 1.8-1.6 0.3-1-0.1-1.6-1.3-1-0.6-1.9-0.3-1.1 0.2-1.6 1.2-13.9 1.7-24.9-0.7-4.5-1.2-2.9-2.1-3.7-7.3-3.6-5-4.6-4.5-6.4-4.2-4.5-1.3-3.7-0.1-3.3 1.1-7.5 3.7-2.9 1.1-3.5 0.3-2.4-0.9-13.3-9-7.8-3.5-4.5-1.3-3.6-0.5-4.7-0.2-3.1-0.6-2.8-1.5-3.9-2.7-4.8-2.5-3.8-0.9-3.8-0.1-9.6 1.3-9.9 0.1-2-0.8-1-1 0.1-1.3-0.2-1.3-1-1.4-2.5-1.7-4.2-1.8-4.7-1.4-2.6-2-2.3-3.3-2.5-6-4.2-6.4-5.2-5.2-8.4-5.2-6.9-2.4-12.8-3-3.1-1.2-1.9-1.1-0.9-1.4-1.9-4.4-1.1-1.6-1.1-1.2-1.2-0.9-1.1-1-0.9-1.5-0.9-2.2-0.9-3.5-0.9-7.8-0.9-3.8-1.1-3-1.5-2.3 0.4-2.2-0.6-0.4-1-0.4-1.2-0.4-0.9-0.7-0.7-0.6-0.8-1.1-0.7-1.5-0.4-1.1-1.1-0.4-0.8-0.2-0.3-0.9-0.5-1.5-0.7-2.3-0.7-2.4-0.3-2.7 0.1-1.3 0.1-0.2 1-3.4 0.1-0.6 0.2-0.4 0.6-3 0.3-1.1 0.1-1.8 0-0.2-1.1-1.8 0.4-1 2.1-1.8 1.8-1.4 1.1 0 2.8-0.9 0.5-0.8 0.1-0.2 1-1.7 2.4-2.4 0.2-0.5 0.5-1 0-0.9-0.5-0.8-0.1-0.1-0.6-1 0.8-1.9 1.4-1.5 2.1-0.6 0-1.4 0.2-0.2 0.3-0.1 0.3-0.2 0.4-0.1 0.3-0.3 0.6-0.3-0.2-0.1 0.2-0.1-0.4-0.6-0.9-0.5-0.5-0.5-0.7-0.8-0.5-0.7-0.2-0.2-0.5-1.8 0.5-1.8 0.3-0.7 0.5-1.4 0-0.2 0-0.2 0-0.4 0-1.3-2.1-6.5 0.6-0.9 0.4-0.3 0-0.4 0.1-0.1 0-0.1 0-0.2-0.1-0.7-0.6-0.4-0.2-0.3-1.6-2.4-0.5-0.8 1.1-1.5 0.6-2.8 0-0.1 1-0.9 1.5-1 0.4-1.9 0-0.4 0-0.4 0-1.6-0.3-0.5 0-0.1-0.2-0.9-0.1-0.2-0.7-1.2-0.4-0.7-0.1-0.2 1.6 0.7 2 1.4 2.4 1 3.5 0.6 1.4 0.6 5.3 3.2 1.3 0.2 7.4-1.2 2 0.3 4.2-0.2 6.4-4.1 3.9-0.3 12.8 3.6 7.6-9.2 1.1-2.8 0.7-3.2 3-5.4 0.8-2.8 0.6-0.1 0.4-0.3 0.5-1-0.4-0.6-0.5-0.7-0.3-0.3 0.4-3-0.2-2.6 0-0.3 0.6-0.1 0.6-0.3 0.4-1.2-0.8-1.1-0.5-0.7-0.5-1.4-0.1-1-0.2-0.4-0.2-1.2 0-0.4 0.2-0.4 0.3-0.1 0.2-0.3 0.3-0.1 18-5.7 5.5-0.7 4.5-2.4 4.4-0.3 0.6-0.7 0.6 0.5 0.5 0 0.3 0.3 0.6-0.5 0.2-0.4 0.1-0.4 0-2 0.2-0.5 0.6-0.9 0-0.7-0.1-1.6 0.4-0.3 1.4-1.4-0.2-0.5-0.1-1.1-0.1-0.6-0.1-0.8-0.1-0.6 2.5-1.3 2.8 0.7 4.1 4 3.1 0.9 3.2-0.7 2.7-2.1 0.1-0.1 0.9-0.4 1-0.8 1.9-1 0.9-0.2 0.5-0.2 0.6-0.2 1-1 1.5-0.7 0-0.7-0.5-0.6-0.2-1 0.5-1.3 5.2-3.5z" id="ERSK" name="Semenawi Keyih Bahri">
  </path>
  <path d="M117.3 265.4l1.5 2.3 1.1 3 0.9 3.8 0.9 7.8 0.9 3.5 0.9 2.2 0.9 1.5 1.1 1 1.2 0.9 1.1 1.2 1.1 1.6 1.9 4.4 0.9 1.4 1.9 1.1 3.1 1.2 12.8 3 6.9 2.4 8.4 5.2 5.2 5.2 4.2 6.4 2.5 6 2.3 3.3 2.6 2 4.7 1.4 4.2 1.8 2.5 1.7 1 1.4 0.2 1.3-0.1 1.3 1 1 2 0.8 9.9-0.1 9.6-1.3 3.8 0.1 3.8 0.9 4.8 2.5 3.9 2.7 2.8 1.5 3.1 0.6 4.7 0.2 3.6 0.5 4.5 1.3 7.8 3.5 13.3 9 2.4 0.9 3.5-0.3 2.9-1.1 7.5-3.7 3.3-1.1 3.7 0.1 4.5 1.3 6.4 4.2 4.6 4.5 3.6 5 3.7 7.3 2.9 2.1 4.5 1.2 24.9 0.7 13.9-1.7 0.3 56.6-9.1-1.1-4.3 0.7-5.6 2.4-11.7 2.8-12.2 1-1.9 0.4-2.1 0.8-2.4 1.6-5.2 5.8-3 5.1-2 2.6-1.9 1.7-5.1 2-3 1.8-2.4 2.2-1.3 1.9-2 5.6-2.5 5.1-0.5 2.5 0.2 3.3 1 4 4.2 9.5 0.7 5.1-0.5 1.2-0.4-0.5-1.1-0.4-0.8-0.7-1.2-0.4-0.9 0.4-0.2 0-0.9-0.4-0.4 0-0.1-0.1-0.5 0.1-1.1-0.1-0.5-0.1-1-0.2 0 0.1-0.2 0.2-7.1 1.3-0.2-0.1-0.6-0.5-0.1 0-0.9-0.3-0.7-0.6-0.8-0.3-0.4-0.7-0.1-0.3-0.6-0.4-0.3 0-0.5-0.2-0.5-0.7-0.2 0-0.2-0.1-0.3-0.1-1.2 0.1-0.9-0.3-0.9-0.2-0.8 0-0.7 0-0.9-0.3-0.9-0.5-0.3-0.3-0.4-0.5-0.7-0.8-0.7-0.6-0.4-0.3-0.5-0.3 0-0.2-0.1-0.6 0.4-1 0.2-0.8-0.1-0.2-0.1-0.6-0.6-0.6-0.8-0.1-0.6-0.1-0.1 0-0.2-0.7-0.5-0.6-0.7 0.3-0.3-0.8 0.1-1.1-0.1-0.7-0.3-1.1-0.3-1.1-0.9 0.4-0.4 0.2-0.5 0.3 0-1.1 0-0.1 0-1.1-0.2-1-0.3-0.8-1.6-0.3-0.7 0 0-0.1 0-0.2-0.1-0.4-0.3-0.2-0.2 0.2-0.2 0.2-0.4 0.1-0.2-0.8-0.1-0.2-0.4-0.4-1.5 1.8-1.1-2.1-1.6-2.4-2.4-2.1-4.2 10.2-1.5-0.8-2.3 1.1-3.8 5.1-3.1 4.7-1.1 5.2 0.2 2.8 1 3.4-1.2 3.3-2.8-1.7-1.6 0-2.4 2.7-1.1 2.9-0.8 2-1.2 1.4-0.4 2.2-1.3 2.4-1.3 2.6-0.6 0.5-0.3 0.3-0.2 2.4-1.8 1.4-0.3 0-1.6 0.5-0.2 0-0.4 0.1-4.2 1.3-0.6 0.2-1.1 0.3-2.6 1.3-0.5 1.8-0.5 0.1-1.4 0.3-0.4 0.3-0.8 0.5-0.2 0.1-3.2-2-0.4 0-2-0.1-2.5-1.7-0.4 0.1-0.5 0.1-0.2 0.1-1.3 0.3-2-0.2-0.2 0-1.1 0-0.5 0-0.1-0.1-0.1-0.3-0.2-0.6-1.5-0.4-0.3 0.1-1.8 0.7-0.2 0.1-1.2 0.4-0.1 0.1-0.6 1.3-2.9 4.6-0.4 0.2-0.3 0.4-0.3 0.7-0.3-0.1-0.4 0.1-0.5 0.7-0.4-0.3-0.4 0-0.5 0.4-0.1 0.1-0.2-0.1-0.3-0.2 0-0.2-0.2 0.1-0.1 0.1-1-1.6-2.6-1.5-3.3-2.9-1.9 0.3-3 1-10-0.2-4.7 1.1-3.9 2.9-2.1 3.1-1.1 2.7-0.4 2.9-0.1 3.4-0.4 2.9-1 2.3-1.5 1.8-1.7 1.1-1 0.3-2.5-0.3-1.1 0-2 1.7-0.8 0.3-1.4-0.2-1.2-0.4-0.4-0.2-0.2-0.5-0.1-0.3-0.9-0.8-0.7-1-0.9-0.4-0.3 0-1.1-1.5-0.8-0.6-4.5-0.6-8.8-2.6-4.4-0.6-9.3 0-1.3 0.3-2.2 1.4-1.2 0.3-6.1 0-2.7 0.5-2.1 0.9-0.2 0-0.4 0-0.9 0.2-0.1 0-0.1 0.6-0.4 0.2-1.9 0.5-2.9 0.1-2.3 0.5-1.7 1.4-0.5 1.3-0.2 0.4-0.4-0.5-2.7-7.9-0.1-0.5-0.1-0.5-0.3-0.9 0-0.5 0-1.4-2.2-23.4-0.6-6.1-1.4-16.1-2.7-27.4-1.6-16.6 0-0.2-0.7-4.6-0.1-1.8-2-12.9-0.4-2.6 9.7-9.6 0.2-0.2 3.5-0.9 0.1-0.1 1.7-4.3 0.2-0.6 0.2 0 6.4-16.8 1.7-4.4 1.6-3.8 0.6-1.4 0-0.1 0.9-1.2 0.9-2.3-0.1-1.3 0-0.1-0.1-1.4-0.1-0.5-0.7-1.2 1.2-3.5 0-0.2 0.7-2.1 2.5-7.4 2.7-9.1 0.3-0.9 2.7-9.1 0.6-1.8 1-1.6 1.6-2.7 2.3-3.4 0.2-0.4 1-1.6 0.1-0.2 1.2-1.8 0.4-0.4 2.5-7.6 4.5-12.7 1-3.7 1-3.8 2-5.6 0.6-1.5 0-0.2 0.5-1.7 0.5-1.4 2.5-8.5 0.9-2.6 2.2-3.7 5.7-6 1.4-3.6 0-0.4 0.3-0.3 0.8-0.5 0.2-0.1-0.2-0.9-0.1-0.1-0.1 0-0.5-0.1-0.7 0 0-0.6-0.3-0.7 0-0.1 0.1-0.4-0.4-1.3-0.7-0.6 0-1.8-0.3-0.2-0.1-0.3-0.6-1-0.1-0.3 0-1.4 2.3-1.2 0.1-0.6 0.1-0.1 0-0.6 0.2-1.3 1-3.9 0.1-0.6 0.2-0.5z" id="ERGB" name="Gash Barka">
  </path>
  <path d="M438.4 441l4.3 7 2.8 6.6 39.3 68.2 0.4 0.6-0.5-0.3-0.5 0.1-0.8 0.2-1-0.4-0.9-0.4-0.8-0.4-0.5-0.6-0.7-0.8-0.4-1.6-0.2-1.2-0.2-1.1-0.6-0.3-1-0.7-0.7-0.5-0.7-0.7-0.7-0.8-0.6-0.6-0.8-0.4-0.7-0.4-0.7-0.3-0.7 0-0.9 0-1 0.1-0.9-0.1-0.7-0.1-0.9 0.1-1-0.2-1-0.4-0.8-0.4-0.1 0-0.2 0.1-0.3 0.3-0.1 0.1-0.2 0.2-1-0.7-0.3 0.9-0.1 0.9-0.4 1.4-0.3 0.4-0.3 0.3 0 0.1-0.3 0.2-0.3 0.2-0.2 0.7 0.1 1.1 0.4 1.1-0.6 1-0.5 1.1-0.6 0.9 0 0.8 0.5 0.5 0.6 0.7 0.8 1 0.2 1.1 0.2 1.4 0.3 1.1 0.2 0.8 0.3 1-0.2 0.9-1.3 1.8-2.8 1.3 0-0.1-1 0.4-0.3 0.4-0.5 0.3-0.5-0.4 0-1.2 0.2-1-1 0.3-0.1 0-1 0.5-0.1 0.1-0.3 0.1-0.3-0.3-0.5-0.3 0-0.1-0.1-0.4 0-0.5-0.4 0-0.8 0-1 0-0.9-0.6-0.2-0.1-0.8-0.3-0.8 0.1-0.2 0-0.7 0.2-0.2 0-0.1 0-0.6-0.1-0.6 0-0.8-0.2-0.6 0.6 0.4 1 0.2 1.1-0.6 1 0 0.8 0.7 0.9 0.2 0.7-0.9-0.2-0.9-0.6-0.6-0.7-0.9-0.4-0.9-0.5-0.6 0.6-0.8 0.6-0.8 0.7 0 0.6-0.1 0.1 0 0.1 0.4 0.8 0.2 0.2-4.7-0.7-3.3 0.5-1.9 1.7-2.9 4.8-1.1 0-0.2-0.4-0.1-0.8-0.3-0.7 0-1-0.2-1.1-0.1-0.3 0-1-0.6-0.7-0.4-0.6-0.4-0.8 0.5-0.2 0.6-0.2 0.1-0.2 0.3-0.4 0.5-0.7 0.6-0.9 0.5-1.1 0.1-1.6 0-1.3 0.2-0.2 0.4-0.5 0.3-0.4 0.1-0.7 0.1-0.4-0.3-0.7 0.1-0.7-0.7-0.3-0.4 0-0.6 0-0.6-0.6-0.1-1-0.3-0.8-0.4-0.9-0.5-0.9-0.6-0.8-0.5-0.6-0.5-0.5-0.8-0.3-1-0.4-1.3-0.3-1.1-0.2-1.6-0.1-3.3 0.7-0.2 0.1-1 0.2-1.5-0.6-0.1-0.2-0.4-0.5-0.8-1-0.9-0.5-0.8 0.1-0.6-0.1-0.9-0.4-0.1 0.1-0.6-0.3-3.9-0.9-4.8-0.5-0.2-0.5-1.8 1.7-0.2 2.4 0.2 2.6-0.4 2.6-1.9 2.5-2.8 1.8-5.6 2.6-4.5 4.2-2.4 1.6-0.4 0.1-1-0.1-1.1-0.2-0.9 0.6-2.8 0.3-8.1 3.4-0.5 0.1-1.1-0.1-0.9 0.5-0.9 0.2-1.3 0.1-0.6-0.1-1-0.1-0.8-0.4-0.9-0.2-0.6 0.2-1.4-0.4-2.7-0.1-8 4.1-0.2-0.1-0.9 0-1 0.1-1 0.3-1.1 0.3-0.9 0.1-0.3 0.3-0.2 0.2-0.1 0.1-0.1 0-0.1 0.1-0.7 0.3-0.9 0.1-0.1 0.1-8.2 0.9-6.7 0-0.2 0 0-0.5-0.5-0.7-0.4-0.1-0.4 0-0.1-0.1-0.4-0.9-0.2-0.9-0.4-1.3-0.4-0.9-0.2-1-0.9 0-0.8 0-0.9-0.1-0.3-0.8-0.1-0.9-0.5-0.7-0.9 0.3-1-0.2-1 0.1-0.6-0.6-0.9-0.3-0.2-0.6-0.1-0.2-0.5-1-0.1-1-0.9-0.4-0.8 0.3-0.5-0.9 0.2-1.2-0.6-0.9-0.9-0.4-0.7-0.9-0.6-0.9-0.7-0.9-0.2-1.2-0.1-1.2 0.3-0.8-0.7-0.7-0.3-0.9-0.7-0.4-0.7-0.5-0.6-0.5-0.2-1-0.8-0.8-1-0.3-1-0.1-0.9-0.5 0.1-1 0.1-0.9 0.4-0.9-0.6-0.7 0-0.8-0.1-1.1-0.3-1.1-0.1-0.9-0.6-0.4-0.3-0.3 0.5-1.2-0.7-5.1-4.2-9.5-1-4-0.2-3.3 0.5-2.5 2.5-5.1 2-5.6 1.3-1.9 2.4-2.2 3-1.8 5.1-2 1.9-1.7 2-2.6 3-5.1 5.2-5.8 2.4-1.6 2.1-0.8 1.9-0.4 12.2-1 11.7-2.8 5.6-2.4 4.3-0.7 9.1 1.1 67.4-0.1 1.4 0.3 1.7-0.6 1.1-0.7 1.5-1.8z" id="ERMA" name="Maekel">
  </path>
  <path d="M388.4 384.6l2.4 6.3 3.3 6.4 12.4 19.1 7.9 8.8 6.6 5.8 11.7 6.3 5.7 3.7-1.5 1.8-1.1 0.7-1.7 0.6-1.4-0.3-67.4 0.1-0.3-56.6 1.6-1.2 1.1-0.2 1.9 0.3 1 0.6 1.6 1.3 1 0.1 1.6-0.3 5.1-1.8 8.5-1.5z" id="ERAN" name="Anseba">
  </path>
 </g>
 <g id="points">
  <circle class="12.642262153436379|36.76949498010363" cx="90.9" cy="795.8" id="0">
  </circle>
  <circle class="14.90018471495168|40.11390356758114" cx="545.5" cy="479.8" id="1">
  </circle>
  <circle class="17.722587916845804|42.78943043756315" cx="909.1" cy="80.1" id="2">
  </circle>
 </g>
 <g id="label_points">
  <circle class="Debubawi Keyih Bahri" cx="776.4" cy="663.4" id="ERDK">
  </circle>
  <circle class="Debub" cx="326.9" cy="177.9" id="ERDU">
  </circle>
  <circle class="Semenawi Keyih Bahri" cx="219.7" cy="277.2" id="ERSK">
  </circle>
  <circle class="Gash Barka" cx="163.9" cy="435.5" id="ERGB">
  </circle>
  <circle class="Maekel" cx="355.6" cy="492.2" id="ERMA">
  </circle>
  <circle class="Anseba" cx="386" cy="423.1" id="ERAN">
  </circle>
 </g>
</svg>