<?xml version="1.0"?>
    
<!--********* Copyright (c) 2024 Pareto Softare, LLC DBA Simplemaps.com ***************************************
************* Free for Commercial Use, full terms at  https://simplemaps.com/resources/svg-license ************
************* Attribution is appreciated! https://simplemaps.com *******************************************-->

<svg baseprofile="tiny" fill="#6f9c76" height="1000" stroke="#ffffff" stroke-linecap="round" stroke-linejoin="round" stroke-width=".5" version="1.2" viewbox="0 0 1000 1000" width="1000" xmlns="http://www.w3.org/2000/svg">
 <g id="features">
  <path d="M305.3 930.1l0.7 1.5-0.5 1.3-0.6 1.3 0.4 1.5-0.5 0.4-0.2-0.1-0.3-0.4-0.3-0.5-1.3-0.7-0.2-0.3-0.2-1.2 0.3-1.2 0.4-1.1 0.2-1.1 0.8 2.2 0.5 0.9 0.3-0.7-0.4-1.6 0.1-0.5 0.8 0.3z m22.1 16.9l-0.3-0.3-0.2-0.8 0.3-0.6 0.5-0.2 0.5-0.1 0.3 0.5 0.3 1 0.2 0.8-0.3 0.4-0.9-0.4-0.4-0.3z m4-2.2l-0.5 0 0 0.1 0.5 0.4 0.3 0.7-0.3 0.4-1.9-1-0.5-0.6-0.2-0.4 0.1 0 0.1-0.3 0.6-0.4 1.6 0.5 0.4 0 0.2 0.1 0.1 0.4-0.5 0.1z m-13.8-7.5l0.1 0.1 0.2 0.1-0.1 0.1-0.5 0.1-0.1 0 0.3 0.3 0.1 0.4-0.2 0.5-0.3 0.5-0.4 0.6-0.3 0.1-1-0.9-0.2 0.2-0.2 0.5-0.5 0.3-0.6-0.1-0.4-0.4 0.2-0.9 0.9-1.8 0.6-0.5 0.5-0.1 0.3 0 0.3-0.2 0.3 0 0.1 0.3 0 0.3 0.2 0.1 0.2-0.2 0.3 0.1 0.1 0.3 0.1 0.2z m-6.9-0.8l0.9-0.7 0.5-0.1-0.4 1.9-0.7 1.2-1.1 0.2-0.5-0.5 0.5-0.9 0.8-1.1z m3.6 0.6l-0.1 0.3-0.7 0.5-1.1-0.3 0-1.2 0.6-0.4 1.3-0.2 0.1 0-0.3-0.1 0.1-0.3 0.5-0.2 0.3 0.2-0.2 0.5-0.3 0.5-0.2 0.7z m-8.9 5.2l0.8-1.6 1.4-1.6 0.8 0.2 1.3 0.6 1.5 0.3 0.3 0.8-1.8 1-1.1-0.1-1.1 0.2-0.5 0.2-0.1 1.1-0.6 0.6-0.8-0.3-0.1-1.4z m29.9-37.5l0.2 0.4 0.1 0.9-0.3 0.8-0.4 0.3-0.5-0.5-0.2-0.9 0.2-0.5 0.4-0.5 0.3 0 0.2 0z m-15 26.1l0.1 0.3 0.1 0.7-0.3 0.6-0.4 0-0.5-0.5-0.7-1.1-0.1-1 0.3-0.4 0.4-0.1 0.2 0.1 0.3 0.4 0.4 0.6 0.2 0.4z m-9.5-10l0.3 0.2 0.1 0.3 0.1 0.5 0 0.5-1.8 3.6-0.4-0.1 0-0.4 0.2-0.5 0-0.5 0-0.4 0-0.8-0.1-0.6-1.1 0.9-0.3-0.6 0-1.2 0.5-0.9 0.7-0.3 1.2 0.7 0.6-0.4z m14.5 2.5l-1.1-0.5-0.3-1.9 0.2-1.7 0.7 0 0.4 0.4 1.1 0.8 0.3 0.4-0.1 0.9-0.5 0.5-0.5 0.2-0.5-0.1 0.3 1z m-5 0.2l0.8 0.8 0.4 0.7-0.3 0.7-0.8 0.4-0.6-0.4-0.2-0.4-0.1-0.8 0.2-0.8 0.6-0.2z m3.5-7.3l-1.4 1.1-0.3-0.2 0-0.4 0-0.3 0-0.6 0.1-0.4 0.3-0.8 0.1-0.3 0.2-0.2 0.1-0.4 0.1-0.4 0.3-0.2 0.4 0.2 0.4 0.3 0.2 0.7-0.1 0.7-0.2 0.7-0.2 0.5z m-32.1 16.8l-0.9 0-0.5 0.4-0.1 0.4-0.1 0.4-0.3 0.3-0.5 0.2-0.5-0.1-0.3-0.3 0-0.8-0.6-0.4-0.7 0.3-0.6 0.7-0.4 0.9-0.5-2 0.6-0.5 0.9-0.8 0.8-0.4 0-1.8 0.8-0.1-0.2-1.5 0.7-0.6 0.6 0 1.2-0.4 0.8 0 1-0.2 0.6 0.5 1 0.5 0.4 0.5 0.2 0.5 0.3 0.3 0.3-0.2 0.3-0.4 0.3-0.5 0.3-0.5-0.4 2.4-0.1 1.2 0 1 0.2 0.3 0.2 0.1 0.3 0.3 0.1 0.6-0.2 0.7-0.5 0-1-0.5-1.5 0.3-0.6 0.5 0.1 1 0.2 1.2-0.3 0.5-0.4-0.2 0.1-0.7-0.6-2.4-0.5-0.7z m-10-8.9l0.1 0.6 0.6 0.8 0.3 0.4 0.1 0.5 0.1 0.4 0 1.4-0.1 0.6-0.3 0.1-0.3-0.1-0.3 0.2-0.5-0.8-0.9-1.6-0.6-0.7 0.3 1.3 0.1 1.2-0.1 1.1-0.6 1-0.7 0.4-0.8-0.4-0.6-1-0.4-1.6-0.1-0.7 0-0.3 0.1-0.3 0.5-0.5 0.3-0.5 0-0.8-0.1-0.8 0.1-0.7 0.2-0.4 0.6-0.9 0.3-0.4 0.4-0.4 0.6 0 0.5 0.2 0.7 0.8 0.3 0.5 0.1 0.6 0.1 0.8z m14.5 11.7l1.3-0.7 1.2-1.6 1.1 0.6 1.2-0.1 1.1 1.7 0.8 2.2 0.3 1.5 0.1 0.7-0.5 1.1-0.9 1.1-0.4 0.3 0.3-1.6-0.5-0.4-0.7 0.4-1 0.3-0.7-0.5 0.4-0.7 0.2-0.8-0.6-0.9-1 0-0.7-0.8-1.3-0.2 0.3-1.6z" id="FI01" name="Åland">
  </path>
  <path d="M648.2 410.1l-0.1 0-8.8 0.2-3.2 1.1-1.9-0.1-16.1-6.1-1.6 1.1-0.2 0.5-0.2 1.4-0.1 2.3-0.3 1.2-0.4 0.3-1.3 0-0.4 0.2-0.8 0.9-0.7 1.2-0.6 1.7-0.4 2.2 0.1 3.1 1 2.3 1.4 1.4 1.4 0.9 0 0.2-0.1 0.6 0 0.1 0.5 0 1.3-0.6 0.9-0.2 0.6 0.1 0.5 0.6-0.2 0.7 0.1 0.2 0.4 0.1 0.1 0.1 0.1 0.1-0.1 0.5-0.7 2.1-0.2 0.4 0 0.4 0.2 0.2 0.9 1-0.1 0.7-1.1 1.2-0.5 0.9 0 0.6-0.3 1.3-0.5 0.5-1.1 0.5-1.8 0.2-0.4 0.6 0.5 1.4 0.3 0.9 0.3 0.4 0.2 0.4-0.3 0.7-0.1 0.2 2.3 1.9 1.1 0.7 0.6 0 0.5 0.2 0 2-0.5 1.5-0.7 0.6-1.8 0.5-4.7-0.6-3.2 1-0.9 0.1-0.8-0.3 0-0.1 0.1-0.7 0-0.1-0.1-0.3-0.2 0-0.7 0-0.1 0.3 0.1 0.3 0.1 1.3 0.1 0.3 0 0.4-0.5 0.2-0.2 0.3 0.6 1.1 0.8 0.7 3 4.4 0.7 2.4-0.3 1.4-1.4 1.9-1.7 0.8-3.4 0.4-3.4 1.5-1.7 0.3-15.8-2.2 0-0.2 0.1-1-1-1.4-0.8-1.9-1.4-4.1-1.6-2.7-1.4 0.3-1.2 1.5 0.2 0.3-0.7 0.5-0.7-0.1-3.9-2.3-1.1 0.9-8.6 14.3-2.5 3-9.6 4.1-24.2-1.3-0.9-0.6-0.2-1.4 0-2.4 0.2-3.7-1.3-0.4-9.3 4.9-4.2 1.2-9.5-0.6-4.4 1.5-7.2 7.9-2.6 3.7-1.1 1.3 0-0.2-0.3-0.9-0.4-0.8-0.5-0.3-0.9 0.3-0.5-0.7-0.6-0.5-1.8 0.4-0.8-0.1-0.4-0.6-0.7-1.4-0.4-0.5-1.3-0.7-1.5-0.3-1.5 0.3-1.3 0.7-0.9 1.2-0.5 0.4-0.7 0.2-0.4-0.4-0.2-0.8 0-3.5-0.1-0.6-0.3-0.4-2.4-1.3-0.4-0.7-0.6-1.2-0.5-1.3-0.2-1.7 0.4-2.3 0.6-1.7 2.1-4.7 0.5-1.7 0.3-0.6 0.6-0.5 1-0.3 0.4-0.4 0.1-1.2-0.6 0.7-2 1.2-0.3 0-0.3 0-0.3 0.2-0.1 0.7 0 0.9 0 0.5-0.1 0.1-0.9 0.9-1.6 4.1-0.9 1.2-0.9 0.1-0.8-0.2-0.8 0-0.8 0.7-0.1 0.3-0.1 0.4-0.1 0.5-0.2 0.4-0.4 0.2-1.8-0.9-1.1-1.7-0.4-0.4-1.4-0.6-1.5-1.2 0.4 1.2 0.1 1.4-0.3 1.1-0.7 0.6-0.7-0.3-0.7-1.1-0.5-1.2-0.4-1.1 0-0.6 0-1.6-1.4-2.6-0.8-3.6-1-1.7-0.8-1.8 0.1-2.1-0.1-1.3-0.9-4.6-0.4-1.2-0.4-0.6-0.9-1-0.4-0.6-0.3-0.8-2-6.1-0.8-1.2-3.9-1.4-1.3-1.2-0.9-1.6-1.3-4.6-0.3-2.4-0.6-2-0.1-1.1 0.1-0.9 0.3-1.2 0.1-0.9 0-1.3-0.2-1.7 0-1.2-0.2-1-0.7-1.7-0.2-1.1 0.4-2.1 0.9-1.4 1.1-0.8 0.9-0.4 0-1.5 0.9-0.8 1.2-0.6 0.7-0.9 0.1-1.1 1.9-1.4 0.8-0.8 0.4-1.4 0-1.6-0.1-1.7-0.3-1.7 0.4-1.5 0.2-1.7 0.2-1.9 0-1.9-0.4-3.4 0-0.7 1.2-2.1 0.5-1.7 0.8-0.2 0.9 0 0.5-0.3 0.2-0.8-0.1-0.7-1.5-4.6-1-2.6-0.8-1.3-1.4-2.1-2.1-4.8-0.9-1.2-1.1-0.5-0.7-0.7-0.9-1.5-1.3-3.1-0.3-0.8-0.1-0.7-0.1-0.8 0-1.2-0.2-1.1-0.3-0.5-0.4-0.5-1-1.9-0.8-1.1-0.6-1.2-0.3-1.9 0.5-0.8 0.4-0.9 0.3-1 0.3-1.2-0.6-0.4-0.2-0.7 0.1-1.8 0.3-1.5 0.7-0.9 4.2-2 1-1.6 0.8-3-1.2-0.8 0-2.2 0.4-2.7 0.1-2.2-0.5-0.7-0.8-0.4-2.5-0.5-2.5-1.6-1.5 0.1-1.5 0.7-1.4 0.1-1.2-1.6-0.5-2.4 0.5-1.9 0.8-1.7 0.7-2-0.4-1.1 1-1.1 1.3-1.1 0.7-0.9-0.2-2.4-0.2-1.5-0.9-2.5-0.3-1.6-0.4-3.9-0.5-1.5-0.1-1.3 0-5.7-0.2-2.1-0.1-2.3 0.2-2.3 0.6-1.8 1.3-1 2.6-1 1.2-1 0.9-1.9 0.1-1.8-0.7-1.2-2.6-1-3.3-4.2-1-0.9-2.8-2.6-0.3-0.9-0.1-0.8-1.5-5.9-0.4-1.1-0.5-0.7-1.3 0.1-3.1 2.2-0.8 0.1-0.2-0.6-0.2-0.1-0.1-0.2-0.1-0.9 0-0.5 0.2-0.9 0.2-2.5-0.1-0.8-0.3-0.7 0.2-2.3-0.5-1.7-1.7-2.1-0.5-1-0.2-0.9-0.1-0.8-0.2-0.8-0.6-0.8-5.5-3.9-1-1.4-1.6-3.4-0.9-1-2.2 0.9-1.1-1.3-1.1-1.8-1-1.1-0.7 0-0.7 0.3-0.6 0-1.6-1.2-1.6-0.2-2.4-1.3-2.9-0.3-0.2-0.2 0-1-0.1-0.2-2.5-0.8-8.5-0.1-1.3-1.1-0.1-0.5 0.1-0.7-0.1-0.6-0.3-0.3-0.1-0.1-0.5-0.6-0.5-1-1-1.5-0.2-0.6-1.7-2.2-6.7-2-0.8-3.2-2-1.4-3.3-3.4-2.9-0.9-1.2-1.1-0.4-1-1.1-3.2-0.2-1.1-0.4-1-0.7-0.6-2.7 0-0.3-0.2-0.2-0.3-0.2-0.9-0.2-0.2-0.5-0.7-2.2-4.1-2.4-2.5-2.9-2.9-6.2-2.6-0.8-1.2 0.1-2.1 1.1-0.6 0.7-1.7 0-1.8-0.9-1.4-1.7-0.6-2.6-2.6-4.4-0.7-2-1.9 3.5-6.4 1-0.6 10.7 6.5 1.4 0.5 1.1-0.8 2.1-4.5-4.6-9.7 1.1-3.5 0.6-1.6 0.7-1 8-5.4 12 2.1 0.9 0.8 10.5 20.6 2.8 5.5 5.1 5.8 0.5 1.3 0.6 2.6 0.4 1 2.8 5.2 3 2.6 0.5 1 1 9.3 0.4 1.9 0.7 0.3 4.3-1.6 1-0.1 1 0.2 9.4 5 6.2-1.1 1.9 0.6 1 1.1 2.9 4.9 0.8 0.4 10.5-6.9 5.9-1 3.5-2 1.2-4.2 0.7-4.4 2.4-1.8 2.9 0.1 7.4 4.1 1.2 2.1 0.9 1.1 5.4 3.7 5.5 1.9 6.7 2.4 3.4 2.9 2.8 4.4 1.1 3.1 0.7 0.9 1-0.2 0.8-1.4 0.4-1.8 0.5-1.7 1.1-1 0.9 0 2.4-1.7 1-0.2 0.7-0.4 0.6-1 0.4-2.1-0.4-0.9 0-0.6 0.2-0.6 0.2-0.8 0-4.7 0.2-2.3 0.5-2 1.4-2.9 6.9-6.3 1.7-1 1.8-0.4 4.5 1.6 0.9-0.2 0.9-0.9 0.5-1.5 0.5-1.5 0.6-1.4 1.1-1.7 0.5-1 0.1-1.4 0.5-1.3 1.5-1.5 0.3-1.4-0.1-0.7-0.3-0.5-0.7-0.7-0.3-0.6 0-0.5 0-0.4 0-0.4-0.6-1.6 0-0.7 0.3-1 0.1-0.7 0-3.4 0.1-0.5 0.1-0.3 0.2-0.5 0-0.8-0.1-0.7-0.5-1.9-0.2-0.5-0.6-2.8 0.1-2.8 1.4-8.4 0.5-1.4 3.3-6.1-0.1-0.9-1.2-4.1 0.9-2.4 0.4-0.6 0.4-0.9-0.1-2.5 0.3-1.3 0.5-1.1-0.2-0.8-0.4-0.6-0.1-0.6 0.5-1.2 2.2-1.8 1-1.8 0.6-2.3 0.1-2.5-0.9-2.4-0.6-1-0.1-1 0.2-1.1 0.5-1.3 0.9-1.5 1-0.8 5.5-1.6 0.6-0.4 0.5-0.8 0.4-1 1.7-2.8 1.8-3.9 3.8-4.4 1-2.2-0.4-1.9 0.4-0.8 1.3-1.9 0.7-2.1 1.2-0.7 6.4-1.1 2.4 0.7 3.5-1 1.1 0.4 2.1 1.5 1.1-0.3 0.9 0.1 2.8 2.1 0.7 0.1 7.8-3 1.5-2-0.3-0.3-0.5-0.7-0.3-0.2 0.4-1 0.6-0.3 0.6 0 0.6-0.3 2.3-3.1 4.4-2.2 0.3-1.9 1.5-2.3 2-0.7 4.7 1 2.7-1.7 1.2 0.5 1.1 1.8 2 4.8 6.9 12.4 0.8 0.9 7.1 3.2-0.1 3.6 0.9 2.2 1.4 1.2 1.5 0.6 12 5.9 12 6 0.6 1.1 2.1 8.3 5.2 12.8-4.3 9.2-13.4 16.8-0.5 1.4-0.3 2.3-0.6 7.7 0 1.7 0.4 1.1 4.3 5.5-4.5 4.4-4.5 1.7-9.5 7-1.7 0.1 0.1 1.9 0.5 1 0.7 0.5 7.4-0.6 3.1 0.7 2.7 3-2 7.7-1.1 3.3-9.5 18.8-0.5 1.3 0 1.5 0.5 2.4 0.8 2.9 6.7 25.9 1 2.1 1.4 1 10.5 4.5 10.6 4.5 1.2 0.9 1.1 1.6 3 6.5 1.4 3 6.3 13.5 2.4 3 10.9 10.5-0.8 1.3-0.4 1-0.1 1.2-0.4 6.3-0.1 1.3-1 4.3-0.6 1.8-14.7 20.2-0.4 1-0.5 1.7-0.2 0.7-0.4 0.6-1.9 2.3-12.1 23-1.8 7.8 1.4 6.7 8.6 14.7 1.5 5 0 0.2 1.1 1.8 0.1 0.8 0 0.9 0.2 1 0.3 0.7 4.3 7.2 0.3 1.6 0.5 3.9z" id="FI10" name="Lapland">
  </path>
  <path d="M483.4 486.5l1.1-1.3 2.6-3.7 7.2-7.9 4.4-1.5 9.5 0.6 4.2-1.2 9.3-4.9 1.3 0.4-0.2 3.7 0 2.4 0.2 1.4 0.9 0.6 24.2 1.3 9.6-4.1 2.5-3 8.6-14.3 1.1-0.9 3.9 2.3 0.7 0.1 0.7-0.5-0.2-0.3 1.2-1.5 1.4-0.3 1.6 2.7 1.4 4.1 0.8 1.9 1 1.4-0.1 1 0 0.2 15.8 2.2 1.7-0.3 3.4-1.5 3.4-0.4 1.7-0.8 1.4-1.9 0.3-1.4-0.7-2.4-3-4.4-0.8-0.7-0.6-1.1 0.2-0.3 0.5-0.2 0-0.4-0.1-0.3-0.1-1.3-0.1-0.3 0.1-0.3 0.7 0 0.2 0 0.1 0.3 0 0.1-0.1 0.7 0 0.1 0.8 0.3 0.9-0.1 3.2-1 4.7 0.6 1.8-0.5 0.7-0.6 0.5-1.5 0-2-0.5-0.2-0.6 0-1.1-0.7-2.3-1.9 0.1-0.2 0.3-0.7-0.2-0.4-0.3-0.4-0.3-0.9-0.5-1.4 0.4-0.6 1.8-0.2 1.1-0.5 0.5-0.5 0.3-1.3 0-0.6 0.5-0.9 1.1-1.2 0.1-0.7-0.9-1-0.2-0.2 0-0.4 0.2-0.4 0.7-2.1 0.1-0.5-0.1-0.1-0.1-0.1-0.4-0.1-0.1-0.2 0.2-0.7-0.5-0.6-0.6-0.1-0.9 0.2-1.3 0.6-0.5 0 0-0.1 0.1-0.6 0-0.2-1.4-0.9-1.4-1.4-1-2.3-0.1-3.1 0.4-2.2 0.6-1.7 0.7-1.2 0.8-0.9 0.4-0.2 1.3 0 0.4-0.3 0.3-1.2 0.1-2.3 0.2-1.4 0.2-0.5 1.6-1.1 16.1 6.1 1.9 0.1 3.2-1.1 8.8-0.2 0.1 0 0.2 1.8 0.6 3.2 0.9 2.9 2.1 5.4 5.3 9.8 3 4.3 1 2.4 0.7 3.6 1.1 7 0.3 1.6 1.5 3.8 0.4 1.5 1.1 4.5 1.3 3.9 0.3 1.6 1.1 8.4 0.2 2.2-0.1 1.9-0.6 0.9-1.3-0.5-2.2-1.5-8.9 2.7-2.2 1.7 1 1.8 2.8 2.2 1.2 1.8-0.5 1.1-3 3.6-0.5 1.3-9 0.5-2.5-0.7-2.5-1.4-2.6-0.8-1.3 0.2-1.9 4.3-3 1.7-6.1 0.7-9.9 4.5-1.2 1 0.1 0.2 0.1 0.5 0.1 0.2-0.3 0.8-1.1 2.3-0.9 1.4-0.5 0.4-0.3 0.1 1.2 0.2 0.2 0.3 0.1 1.4-2.3 1.1-17.6 3.8-2 0.9-1.6 1.8-1.4 3.2-0.5 2-0.4 2.1-0.5 1.9-0.8 1.3-0.9 0.1-3.5-1.5-14.8 1.9-2.1 1.5-0.9 1.8 0 2.9 1.9 2.1 1.7 2.4 0.5 1.1-0.4 0.8 0.1 0.2 0.1 0.1 0.6 0.6 0 0.8-0.2 0.8-0.3 1.2-0.2 2 0 0.9 0.3 0.9-0.2 0.9-0.8 0.8 0.5 0.3-0.7 1.3-1 0.5-1.4-0.1-4.3-1.1-2.4 0-4.5 2.8-2.4 2.4-0.8 1.2-0.5 1.7 0.1 0.1 0.5 0 0 0.4-0.1 1.1-0.1 0.6-0.6 0.9-0.7 0.5-2.2 2.8-1.5 0.6-4.5 0.4-0.1 0.7 0.2 0.7-0.1 0.6-0.5 0.8-0.4 0.2-0.8 0.2-0.6 0.6-0.3 1.2-0.6 1.1-0.5 0.2-0.4 0.3 0.1 0.4 0.3 0.1 0.1 0.1-0.5 0.4-2.8 0.7-1 0.5-2.5 2.8-0.6 0.4-1.1 0.5 0 0.1 0.1 0 0.1 0-0.1 0.6-0.2 0.5-0.8 0.7 0.8 0.9 3.6 3.4 1.9 3.1 0.3 1.8 0 1.9 0.5 0.4 1.6 1.7 1 0.6 1.3 0.3 2.6-0.1 0.5 0.1 0.5 0.6-0.2 2.3 0.2 0.7 0.4 0.3 0.8 0.3 1.4 0.2 0.5 1.6 0.2 10.7 0.3 3.6 0.6 1.5 2.5 2.2-6.6 2.3-14.6 12.8-2.2 3.9 0.5 2.1 1.4 13.3-0.2 2.8-1.5 0.8-0.9 0.7-0.8 1.5-0.2 1.2-0.5 3-0.1 1-0.3 0.8-1.1 2-4.1 1.8-2.1 0.4-2.2-0.7-1.6-1.5-3-3.9-1.9-1.2-9-1.1-1.8-0.8-3.2-3.4-1.7-0.9-3-0.7-1.5 0.4-1.5 1.7-1 3.2-0.6 3.1-0.9 2.4-2 1.1-1-2.2-8.6-10-5.1-4.5-2.4-3.6-4.3-9-1.5-2.1-1.9-1.3-3.2-1.5-1-1.3-0.1-0.8-0.5-2.1-0.1-0.6-1.2-0.9-1.8-2-0.6-1.5-1-3.9-0.2-2-2.2-2.6-5.7-2.8-6.5-4.8 0.7-0.9-0.3 0 0.1-1.4 0.2-1.2 0.4-0.6 0.8 0.5 0.6 0.1 1.7-1 0.5-0.5 0.3-0.8 0.7-2.7 0.8 0.1 1.6 1 0.7 0.7-0.3-1-0.3-1.1-0.1-1.2 0.2-1.4 0.4-1.3 1.1-1.6 0.5-1.2 0.4-2.6 0.3-0.8 0.8-0.7 1.6-0.7 0.6-0.8-0.1-1.4 0.4 0.1 0.5-0.1 0.3-0.3 0.4-0.6 0.2 0.1 1.4-1 1.4 0 0.2-0.3 0-1.5 0-0.7 0.2-0.5 0.5-0.2 1 0.3 0.4-0.3 0.3-0.7 0.2-1.1 0.2-0.4 0.7-0.6 0.7-0.2 0.7-0.5 0.6-1.6 0-0.6-0.2-0.7 0-0.7 0.7-0.6 0-0.7-0.1-0.7-0.1-0.1 0.3-1.8 0.2-1 1-1.9 0.2-0.7 0.2-0.8 0.1-0.6 0.3-0.3 0.4-0.2 1.1-1.6 1.5-0.9 0.7-0.7 0.6-1.3-0.4-1-0.1-0.3 0-0.5 0.4-1 0.5-0.5 1.1-0.9-1.4-1.3-0.4-0.8 0.7-0.3 0.8 0.1 2.9 1.7 0.4-0.1 0.3-0.5 0-0.4-0.4-0.6-0.1-0.5 0.3-1.5 0.7-0.4 1.5-0.1 0.2-1.7 1.4-0.9 4.6-0.7 6.5-3.7 0.8-0.2 0.6 0.3 0.4 0.8 0.3 1 0.5 0.9 0.3 0 0.2-0.3 0.3-0.1 0.4 0.4 0.1 0.3 0.2 1.3 0.1 0.4 0.6 1 0.5 0.7 0.7 0.4 0.9 0.1 0 0.5-0.4 0-0.3 0.1-0.6 0.5 1.3 0.6 3.5-1.2 0.3-0.3-0.5-1.6 0.1-0.8 0.5-2.7 0.1-0.6-0.3-1.1-0.5 0-0.4 0.4-0.5 0.2-0.6-0.4-1-1.2-1.4-0.6-0.7-0.8-1.2-2.5 0.2-0.2 0.4-0.7 0.2-0.2-0.3-0.6 0.6-0.3 3.8 0.6 0.7 0.5 1.3 1.5 0.8 0.8 0.9 0.2 0.6-0.4 0.2-1.2-0.3-1.1-0.4-0.8-0.3-0.8 0.2-1.4-0.2-0.5-0.1-0.4 0-0.4 0.1-0.5-0.9-1.1-0.4-0.8-0.2-0.8-0.1-1-0.1-0.7-0.3-0.5-0.3-0.5-1.1-1.2-4.2-1.2 0.2-1.9 0.3-1 1.3-1.4 0.5-0.7 0.3-1 0.1-1.2-0.2-1.3 0.5 0.1 0.4-0.1 0.5-0.2 0.4-0.4-0.3-0.1-0.4-0.4-0.3-0.1 0.3-1.4 0.2-0.4-0.6-0.5-0.3-0.1-0.4 0 0.6-0.9 0.5-2.8 0.5-1.2-0.2-0.3-0.2-0.6-0.2-0.3 0.4-0.1 0.2-0.2 0.5-0.9-2.6-3.1 0.5-0.3 1 0 0.6-0.3 0.3-0.5 0.6-1.3 0.3-0.6-0.4-1.5 0.5-3.3-0.2-1.6-1.1-2-1.1-1.7-2.7-2.9-0.8-0.4-1 0-0.9 0.3-0.8-0.2-0.9-1.4-0.2-0.7-0.1-0.7z m-3.7 47.6l1.5-0.2 1.1 1.2-1.3 0.8-2.4 0-3.2-0.9-2.1 0.2-0.7 1.6-2.9 1.8 1.1 2.4 2.2-0.2 0.6 0.5-0.4 0.4-0.5 0.1-0.4 0-0.5 0-0.3 0.3-0.4 0.7-0.3 0.2-0.6 0.2-0.8 0-0.5-0.6 0.4-1.3-0.2-0.3-0.3-0.9-0.5-0.9-1 2.2-1 0.4-1.2-2.2-0.7-1.5-0.3-1.2-0.3-1.2 0.8-1.1 2.6-2.7 3.2-0.3 3.4-1 1.8 0.7 0.6 1.3-0.9 0.6 0.3 0.6 0.9-0.2 1.1 0.2 2.1 0.3z" id="FI14" name="Northern Ostrobothnia">
  </path>
  <path d="M549.2 622.1l-2.5-2.2-0.6-1.5-0.3-3.6-0.2-10.7-0.5-1.6-1.4-0.2-0.8-0.3-0.4-0.3-0.2-0.7 0.2-2.3-0.5-0.6-0.5-0.1-2.6 0.1-1.3-0.3-1-0.6-1.6-1.7-0.5-0.4 0-1.9-0.3-1.8-1.9-3.1-3.6-3.4-0.8-0.9 0.8-0.7 0.2-0.5 0.1-0.6-0.1 0-0.1 0 0-0.1 1.1-0.5 0.6-0.4 2.5-2.8 1-0.5 2.8-0.7 0.5-0.4-0.1-0.1-0.3-0.1-0.1-0.4 0.4-0.3 0.5-0.2 0.6-1.1 0.3-1.2 0.6-0.6 0.8-0.2 0.4-0.2 0.5-0.8 0.1-0.6-0.2-0.7 0.1-0.7 4.5-0.4 1.5-0.6 2.2-2.8 0.7-0.5 0.6-0.9 0.1-0.6 0.1-1.1 0-0.4-0.5 0-0.1-0.1 0.5-1.7 0.8-1.2 2.4-2.4 4.5-2.8 2.4 0 4.3 1.1 1.4 0.1 1-0.5 0.7-1.3-0.5-0.3 0.8-0.8 0.2-0.9-0.3-0.9 0-0.9 0.2-2 0.3-1.2 0.2-0.8 0-0.8-0.6-0.6-0.1-0.1-0.1-0.2 0.4-0.8-0.5-1.1-1.7-2.4-1.9-2.1 0-2.9 0.9-1.8 2.1-1.5 14.8-1.9 3.5 1.5 0.9-0.1 0.8-1.3 0.5-1.9 0.4-2.1 0.5-2 1.4-3.2 1.6-1.8 2-0.9 17.6-3.8 2.3-1.1-0.1-1.4-0.2-0.3-1.2-0.2 0.3-0.1 0.5-0.4 0.9-1.4 1.1-2.3 0.3-0.8-0.1-0.2-0.1-0.5-0.1-0.2 1.2-1 9.9-4.5 6.1-0.7 3-1.7 1.9-4.3 1.3-0.2 2.6 0.8 2.5 1.4 2.5 0.7 9-0.5-0.2 0.5-0.3 3.3 0.5 7.9-0.4 3.3-3.9 5.2-1.3 3 1.7 1.8 5.2-0.2 2.5 1.1 0.2 3.4-0.4 0.7-0.4 0.6-0.3 0.6 0 0.9 0.4 0.7 0.7 0.2 0.4 0.3-0.2 1.2-0.9 1.2-5.6 1.4-1.5 1.4-1.1 2.4-0.4 3.8 1.7 7.4 2.4 5.9 3 3.8 3.6 0.9 6.9 0.1 1.4 0.7 0.6 0.7 0.1 0.5-0.2 0.6-0.1 0.9-0.1 1.1-0.1 0.5 0.1 0.5 0.4 1 0.4 0.7 1.5 1.6 0.6 1.7-0.3 1.7-0.7 1.4-0.9 1-6.3 3.1-0.3 0.4-0.1 0.5 0.1 0.2 0.3 0.2 0.1 0.1 0 1.5 0.2 0.8 0.2 0.8 0 0.2-0.1 0.3 0.1 0.2 0 0.3 0.4 0.2 0.1 0.2-0.1 0.5 1.7 1.1 1.3 1.7-0.3 2-0.8 2.2-0.3 2.2 0.7 1.7 1.5 1.4 2.6 1.7 5.8 2 1.9 1.5 1 1.5 0.8 1.5 0.9 1.2 2.2 0.6 1.2 0.8 0.8 1.3-0.3 1.7-0.7 1.7 0.1 1.4 0.4 1.4 0.6 1.6 0.9 3.6-0.2 2.9-1 2.5-1.6 2.5-6.7 8-2.3 5.5-2.4 3.2-5.6 2.4-1.9 1.4-0.6-0.4-1.9 0.4-5.5 2.7-0.6 0.1-0.3-0.1-0.6-0.8-0.2-0.6-1.8-10.6-0.6-0.9-0.6-0.3-26.7 2.6-13.4-3.5-2 0.1-1.9 0.9-0.1 0.3 0 1.3-0.3 0.9-0.5 1.4-3.1 6-0.5 1.6-0.7 1.6-0.7 1.5-0.7 1-1 0.6-0.6-0.7-0.7-1.1-2.7-1.9-2.6-4.5-1.3-1.1-1.4-0.7-9.8-9.3-3.8-1.4-3.4-2.3-1-0.4-1 0.1 0 0.1 0.1 0.2-0.3 0.4-1 0.3-0.7-0.1-0.3-0.1-1-1.5-0.8-0.7-19.1-5.1z" id="FI05" name="Kainuu">
  </path>
  <path d="M604.2 645.6l3.1-6 0.5-1.4 0.3-0.9 0-1.3 0.1-0.3 1.9-0.9 2-0.1 13.4 3.5 26.7-2.6 0.6 0.3 0.6 0.9 1.8 10.6 0.2 0.6 0.6 0.8 0.3 0.1 0.6-0.1 5.5-2.7 1.9-0.4 0.6 0.4-0.7 0.5 0.8 2.2 8.9 11.1 5.1 4.1 2.3 3.4 0.7 1.6 1 0.9 12.3 7.1 5.7 7.1 7.5 5.3 1 1 0.8 1.4 0.3 1.6 0 1.6 0.3 1.7 0.3 1.7 0.5 1.2 0.9 1.3 2.4 1.8 1 1.2 2.4 3.8 0.9 0.8 0.4 0.4 0.9 1.5 0.6 2 0.6 2 1.2 1.1-3.3 6.4-1.4 3.1-1.2 3.4-1.7 7.6-0.6 1.8-1.7 2.7-0.6 1.9-0.9 3.8-0.6 1.7-0.8 1-0.1 0-1.9 1.2-0.6 0.7-0.4 0.9-0.7 1.7-5.3 6.1-0.5 0.8-0.9 2.7-0.6 1-0.7 0.7-4.2 3.2-3.3 3.4-1.4 0.8-0.7 0.6-0.5 0.7-1 2.6-4.7 6.6-5.2 6-7.2 11.1-3.2 0.1-18.3 9.8 3.3-4.6 1.5-3.3-0.1-1.4-0.6-0.6 0.7-1.3-0.3-0.7-2.3-2.4-0.2-1.3 0.2-1 0.4-1.3 0.8-1.6-0.8-1.2-1.1-0.7-2.2-2.3-1.9-2.8-1.3-3-0.6-2-0.7-2.8-0.3-3.2 0.2-1.6-0.3-1.9-0.7-0.9-1.4-2.2-0.6-1.2-1-2.7-1.1-4-1.2-2.2-1.5-0.6-1 0.6-0.7 1.6-0.2 0.4-0.5 0-1.2-0.5-0.4-0.4 0-0.2 0.2-1.2-0.1-0.2-0.4-0.1-0.2-0.2-0.1-0.1 0-1 0.1-0.8 0.3-1.4 0.4-1.2 0.3-0.5-0.3-0.7-3.1-1.4-0.3-0.4 0.9-0.8-0.3-0.5-1.6-1.2-0.9-1.1-0.3-0.6-0.9-1.1-0.6-0.4-3.2-3.2-0.7-0.5-5.6-1.8 0.4-1.4 0.4-0.9 0.3-0.3 0.5-0.5-2-4.2 1-1.8 1.9-1.2 0.7-1 0.9-2.6 1-0.2 1.6 1 1.5 1.7 1.6 1 1.2-0.5 4.7-4 0.2-1-1.8-1-1.1-1.2-0.8-1.7-1.2-0.8-0.6-0.8-0.2-0.8 0.2-0.6 0.3 0.3 0.6 0.4 0.6 0 0.4-0.1 0.1-0.4-0.1-0.2-0.6-0.7-0.2-0.2 0.3-0.7 0.4-0.4 2.1-1.3 0.5-0.5-0.2-1.4-6.5-5-5.8-8.5-1.8-1.9-1.1-0.8-0.9-1 1.5-2.2 0.1-0.6-0.5-0.3 0.2-0.4 2-1.6 0.1-0.4-0.1-0.2-0.3-0.4 0.2-0.5 1.2-1.8 0.4-1 0.2-1 0.1-1.9 0.1-0.7 0.1-0.8-0.3-1.1-1.6-1.4-1-1.1-0.8-1.4-0.5-1.7-0.3-2-0.5-1.8-0.3-0.8-0.2-1.5 0.3-0.7 0.8-0.5 0.8-0.1 0.4-0.2-0.6-0.9-0.9-1-0.7-1.9-0.3-2.2-0.7-2.9 0.6-1.2 0.1-0.2-0.4-0.7-0.6-0.5-1.1-0.4-3-0.4-0.9-0.7-2-2.9-1.2-1.1z" id="FI13" name="North Karelia">
  </path>
  <path d="M648.8 809.6l18.3-9.8 3.2-0.1-6.2 9.6-5 5.3-0.7 1.2-0.9 2.7-0.7 1.3-5.3 6.4-1.2 0.9-2.4 1.1-0.8 0.8-0.7 1.2-0.7 1.9-0.6 1.6-5.4 5.8-1 1.7-0.5 0.9-0.5 1.1-2.2 3.4-2.7 2.5-5.6 3.5-2 1.6-2.6 2.7-2.1 1.2-0.6 0.7-1.2 2-2.3 2.6-0.6 1.1-0.7 1.6-1.4 2.3-3.3 0.9-1.6 1.3-5.4 5.6-3.4 5.1-3.6 2.6-5.3 7.1-0.6-0.2-0.3 0-0.9-0.1-0.1-0.2 0.1-0.1 0.1-0.1 0.1-0.2-0.2-0.5-1.9-1.3-0.6-0.7-0.3-0.8-0.6-2-0.4-0.7-1.5-0.6-1.6 0.2-1.4-0.4-0.5-0.9-1.1-1.6-6.5 0.1-1.2-0.7-1-1.3-1.8-2.6-1.2-1.1-4.6-2-1.3-0.8-2.5-2.9-0.5-0.9 0-0.4 0.6 0.1 0.5 0.4 1.2 0.3 1.1-0.2 0.6-0.4 0.1-0.8-0.4-0.3-0.3-0.5-0.2-0.7-0.5-0.6-0.5-0.3-1.2-0.2-0.3-0.2-0.2-0.4 0.6-1-0.3-0.9-0.1-1.1 0.7-1.5 1.3-1 0.6-0.3 0.3-0.5-0.4-0.5-0.2-0.1-0.5-0.1-0.3 0-0.1-0.6 0.7-1.5 0.3-0.9-0.1-1.3 4.4-0.5 0.7-0.2 0.6-0.8 0-0.4 0.1-0.5 0.2-0.3 0.3-0.2 0.3-0.3-0.1-0.2 0-0.3-0.1-0.2-0.9 0-0.9-0.4-0.4-0.9 0.3-0.5-0.1-1.3-2-2.8-1.3-1.2-0.6-0.9 0.7-0.2 0.4-0.4-0.5-0.4-3.6 0.1-6.2-1.2-0.3-1.2 0.6-0.8 1.2-0.4 2.8 0.3 0.7-0.2 3.4-2 1.7-0.3 2 0.2 8.8 3.1 23.7-1 5.9-3.5 2-2.2 0.5-0.8 0.2-0.8 0.2-0.6 0.2-0.4 0.8-1.3 0.8-0.9 0.9-0.2 0.6 0.3 1.1 2.1 0.9 0.6 3.3 0.3 3.6-0.9 2.2-1.3 0.3-0.8-0.1-1.8 0.2-0.5 0.7-0.1 2 0.4 5.9 0 5.1-1.1 2.1-0.9 0.9-1 2.6-3.8 4.6-2.9 2.5-2 1.1-3.1z" id="FI02" name="South Karelia">
  </path>
  <path d="M561.8 853.1l0.1 1.3-0.3 0.9-0.7 1.5 0.1 0.6 0.3 0 0.5 0.1 0.2 0.1 0.4 0.5-0.3 0.5-0.6 0.3-1.3 1-0.7 1.5 0.1 1.1 0.3 0.9-0.6 1 0.2 0.4 0.3 0.2 1.2 0.2 0.5 0.3 0.5 0.6 0.2 0.7 0.3 0.5 0.4 0.3-0.1 0.8-0.6 0.4-1.1 0.2-1.2-0.3-0.5-0.4-0.6-0.1 0 0.4 0.5 0.9 2.5 2.9 1.3 0.8 4.6 2 1.2 1.1 1.8 2.6 1 1.3 1.2 0.7 6.5-0.1 1.1 1.6 0.5 0.9 1.4 0.4 1.6-0.2 1.5 0.6 0.4 0.7 0.6 2 0.3 0.8 0.6 0.7 1.9 1.3 0.2 0.5-0.1 0.2-0.1 0.1-0.1 0.1 0.1 0.2 0.9 0.1 0.3 0 0.6 0.2-0.8 1.1-3.3 3.4-3.1 3.9-0.7-0.7-0.5-0.9-0.5-0.5-0.9 0.5 0.2 0.2 0.2 0.6 0.1 0.2-0.6 0.4-0.1 0.8 0.3 1 0.4 0.9-0.5 0.4-0.2 0.1 0.5 0.5 0.2 0-1.3 1.3-0.4 0.2-2.6-0.5 0.4-0.8 1.1-0.6 0.6-0.6-1.5-0.3-0.7 0.1-0.6 0.7-0.3 0.9 0.1 0.6 0.3 0.6 0.4 1-1.4-0.5-3.1-2.7-1.4 0.6 0.4 0.1 0.2 0.2 0.2 0.7-0.2 0.2-0.3 0.6-0.3 0.3 0.5 0.3 0.3 0.3 0.3 0.4 0.2 0.5-1.8-0.4-3.3-2.6-1.6-0.6-2.8-0.2-0.6-0.3-0.1-1 1-0.3 1.9 0.3-0.9-0.8-2.7-1.8 0.6-1.4-0.5-0.5-0.8 0.4-0.6 1 0.3 1.1 0.5 1.2 0.1 1-0.9 0.8 0-1-0.3-0.2-0.7 0.2-0.4-0.2-0.5-1.1-0.5-0.3-0.2 0.3-0.4 1-0.3 0.3-0.3-0.2-0.6-1.1-0.3-0.3-0.4 0.1-0.4 0.3-0.3 0.4-0.1 0.5 0.2 0.7-0.3 0.5-0.3 0.3-0.5 1.6-0.8 0.4-1.7-0.2 0.9 1.2 0.4 0.9-0.1 0.8-0.3-0.2-1.1-1.3-0.4-0.6-3.4 1.3-1.1 0 0.3-0.4 0.2-0.5 0.3-1.2-0.6 0-0.8 0.2-0.7 0.5-0.6 0.6-0.1 0.6 0.1 1.3-0.1 0.5-0.3 0.3-0.7 0.5-0.4 0.4-0.5 0.2-0.7-0.8-0.7-1-0.5-0.7-0.7-0.1-0.8 0-0.7 0.4-0.1 0.8-0.8 0.3-0.9-0.5-1-1-0.7-1.2-0.3-1.4 0.6-0.8 1-0.6 0.7-0.7 1-2.1 0.2-0.5-0.1-1.7 0.1-0.7 0.4-0.7 1.7-1.4 1.5 0.2 3.2 2.5-0.8-3-1.2-2-1.4-0.9-1.7 0.7-0.8 1.1-1.5 2.7-0.3-0.2-1.6-0.3-1-1.2-0.9-1.5-1.2-1.3-2.5-1.5-0.8-1.2 0-1.1 0-1.1-0.3-0.4-0.7-1.7-0.5-0.6-0.6-0.2-1.3 0.2-0.8-0.2-0.2-1.8-0.4-1.6-0.7-1.2-0.9-0.8-2.3-0.3-0.3-0.6 0-1.1 0.5-0.7 0.5-0.4 0.3-0.1 0.1-0.6 0.1-0.7 0.4-1 0.6-1 0.3-0.6-0.5-0.8-2.6-0.7-1.2-1.2 0.1-2.2 0.4-0.1 1.4 0.3 0.6-0.3 0.3-0.6 0.6-2.4-0.2-0.6-0.2-0.3-0.3-0.8-0.1-0.8-0.2-0.7-0.5-0.7-0.4-0.5-0.6-0.4-0.4-0.2-0.2-1.3 0.3-1.1 0.9-1.3 1.7-1 1.3 1.2 1.2 0.2 3.8-1.7 3.5-3.4 0.8-1.5 0.6-2.7 0.3-0.4 0.9-0.5 1.8-0.6 3.6-1 0.8 0.3 0.4 0.7 0.3 0.8 0.3 0.5 0.2 0.7-0.8 1.7-0.1 0.3 0.3 0.8 0.5 0.1 1.3-0.3 1.3-0.9 1-1 0.4-0.6 0.5-1.5 0.5-0.6 0.7-0.4 0.8-0.3 1.2 0 0.5 0.9 0.1 0.8 0.3 0.9 0.5 0.7 0.3 1 0.2 1.3 0 0.5 0.1 1 0.1 0.4 0.6 1.1 2.1 1.5 7.8-0.8z m-22.6 54.3l1.6 1.1 0.3 0.3-0.1 0.4-0.5 0.5-2.3 0.7-0.6 0.6-0.3 1.5-0.4 0-0.5-0.5-0.7-1.4 0.3-0.6 1.7-0.4 0.5-0.4 0.3-0.4-0.1-0.6 0.2-0.4 0.3-0.4 0.3 0z" id="FI09" name="Kymenlaakso">
  </path>
  <path d="M524.9 884.1l0.8 0.2 1.3-0.2 0.6 0.2 0.5 0.6 0.7 1.7 0.3 0.4 0 1.1 0 1.1 0.8 1.2 2.5 1.5 1.2 1.3 0.9 1.5 1 1.2 1.6 0.3 0.3 0.2-3.2 6.3-0.4 2.5 1.1 2.4-0.6 1.2-0.3 0.5-0.3 0.3-1.1 0-0.2 0.3 0.3 1.2-0.5-0.1-0.3-0.4-0.8-1 0.1 0.9-0.1 0.4-0.3 0.2-0.4 0-0.4 0.3-0.1 0.5 0 0.5-0.3 0.3-0.6-0.6-0.6-1.2-0.4-1.3-0.3-0.5-0.4-0.4-0.6-0.9-0.6-0.8-0.6 0 0 1 0.5 1 1.1 1.7-3.5-0.7-0.3 0.1-0.8 0.9-0.3 0.1-0.3-0.5-1.4-1.5-1.2-0.7-0.5-0.4-1.3-1.9-1.2-0.9-1.3-0.7-1.1-0.1 0 0.6 2 1 0.4 0.5 0.8 1.3 0.9 0.5 0.3 0.7 0.1 0.8 0 0.6-0.2 0.4-0.6-0.1-0.4 0.1 0.2 0.9 0.4 0.6 1.4 0.9 0.7 1.4 0.3 0.4 0.5 0.2 0.3 0.4-0.1 0.9-0.2 0.9-0.4 0.4-1.9 0.5 0-1.7-1.5-2.4 0.3-1-0.5 0-0.3 0.4-0.3 0.4-0.3 0.2-0.4-0.1-0.4-0.2-2.2-2.2-0.7-0.6-1-0.4 1.3 1.8 0.8 0.8 0.7 0.4-0.4 1.6-0.8 1.5-0.1 1 0.4 1.1 1.1 2 0.3 1.5-0.8-0.1-0.5-0.2-0.5-0.5-0.5-0.7 0.3-0.5-0.6-0.9-0.7-0.3-0.8-0.1-0.7-0.3-1.1-1.5-0.6-0.5-0.6 0.5 0.2 1.3 1.4 1 2.5 1.3-2.6 1 0 0.5-0.6 0.4-1-0.5-3-3.5-0.2-0.5 0.1-1 0.2-0.7 0.5-0.3-0.8-0.5 0-0.6 2 0-0.5-1.6-0.8-0.1-0.8 0.6-0.7 0.7-0.9 0.6-2.9 0.9 0 0.5 0.6 0.3 0.2 0.8-0.1 1-0.1 1-0.2 0.2-0.3 0.1-0.2 0.3-0.2 1.2-0.2 0.4-0.3 0.2-5.2 0.1 0-1.1-0.4-0.5-1.4-0.4 0.1 0.3 0.1 0.9 0.1 0.3-1.2 0.5-3.4 0-0.2 0.1-0.1 0.3 0 0.9-0.2 0.4-0.4-0.2-0.6-0.5-0.1 0.6 1.3 0.9 0.5 0.6-0.3 0.2-0.5 0 0.6 0.8-0.8 0.5-2.2 0.6-0.8-0.1 0.1-0.5 0-0.2 0.1-0.3-1.6 1-0.4 0.6 0.8 0.5-0.3 0.4-0.6 0-0.5 0.7-0.7-0.3-0.5-0.8 0.5-0.6 0.4-1 0.1-1.2-0.2-0.9-0.8-0.1-0.5 1-0.9 3.6-0.3 0.6-3.2 0.2-0.8-0.2-0.4-0.9 1.4-0.5-0.1-1.3-1-1.1-1.3 0.3 0.8 2.1-0.6 0.3-0.9 0.9-0.5 0.3-2 0.3-1.2 0.4-0.3 0.2-0.2 0.3-0.1 0.6 0.1 0.9-0.1 0.3-0.5 0-0.3-0.6-0.1-0.8-0.2-0.7-0.4-0.5-2.3-1.3-0.5-0.1-0.2 0.2 0.4 0.8 0.6 0.5 0.5 0.2 0.3 0.4-0.4 0.9-0.5 0.5-0.5 0.3-0.4 0.3-0.3 0.9 2.5-1-0.2 0.7-0.3 0.5-0.8 0.8 0.8 0.6 0 0.5-2.5 1.8-1.5 2.2-0.7 0.7-0.8 0.3-1.1 0.1 0.3-1.1 1-2.4 0.4-0.6-0.6-0.1-1 0.9-1.7 2.3-0.2-1.3-0.7 0.4-0.7 1-0.7 0.4 0.3-1.2 0.4-0.6 0.5-0.4 0.5-0.7 0.1-0.5 0-0.6 0-0.8 0.3-0.9-1.8-0.1-0.9 0.3-0.6 0.9 0.5 0.5-1.2 0.8-0.3 0.2-0.5 0-1.3-0.5-1-0.1-0.7 0.3 0 0.7 0.9 0.6-0.6 0.5-0.7-0.2-0.5-0.5-0.7-0.3-0.3 0.1-1.4 0.8-0.4 0-0.4-0.4-0.7 1.2-0.7-0.1-0.2-0.7 0.6-0.9 0-0.5-0.7 0.1-0.4 0.5-0.3 0.7-0.4 0.7-0.6 0.7-0.5 0.3-2.5 0.4-2.7 2.7-1.1-0.8-6 0.8-0.5-0.3-0.4-0.9-0.4-0.3-0.4 0-2.5 0.7-1.6 0.8-0.8 0 0.4-1.1 1.6-2.9 0.5-0.6 1.1-0.3 0.5-0.4 0.1-0.6-0.3-0.6-0.1-0.7 0.2-0.7 0.3-0.8-1.4 0.5-0.4 0.3-0.3 0.6-0.2 0.8-0.2 0.6-0.6 0.3-0.3 0.3-0.2 0.8-0.1 0.9-0.3 0.8-0.3 0.5-0.8 0.6-0.4 0.4-1.2 2.2-1.4 1.6-3.3 1.9-0.6 0.8 0 1.4 0.4 1.1 0.7 0.3 0 0.5-6.3 1.1-0.5 0.4-2.3-0.4-0.8 0.2-0.7 0.4-2.2 0.5-0.7-0.1 0.7-0.5 0.9-1.7 0.6-0.4 1.5-0.3 5.2-2.5 1.5-0.2-0.3-1.5 0.2-0.6 0.4 0 0.5 0.2 1.2-0.1 0.9-0.4 0.8-1.1 0.9-1.6 0.6-1.6 0.7-2.2 0.2-1.5-0.6 0.6-2.5 5.4-1 1.4-0.7 0 0.1-0.2 0-0.5 0.1-0.3-0.3-0.4-0.4-0.1-0.4 0.1-0.4 0.4 0.1 0.5-1.4-0.5-0.4 0.7-0.2 0.8-0.2 0-0.3-0.5-0.1-0.8 0.4-2.2 0-0.3 0.6-0.6 2.8-1.1 0.5-0.8 0.9-1.8 0.6-0.5-1.9-0.8-3.7 0.8-1.7 0-0.9-0.4-0.8-0.5-0.6-0.8-0.3-1.1 0.3-0.9 0.6-0.9 0.3-0.4 0.2 0.4 1.5 0.9 1.7-0.4 2.9-2.1 3.8-4.4 0.6-0.3 0.5 0.1-0.2 0.4-0.1 0.5 0.6 0.5 0.7 0.3 1.5 0.1 1.7-0.2 1.8-0.8 2-1.9 0.8-0.3 0.4 0 2.1 0.5 0.4-0.1 0.4-1.1-0.2-0.8-0.5-1.1-0.8-0.8-0.4-0.3-0.3-0.4 0.5-0.3 0.5 0 0.2 0.1 0.2-0.9 0.4-0.7 1.6-1 1.5-1.7 0.3-1.9 0.5-2 0.7-0.3 0.8-1.3 0.2-1.9 0-1.2-0.5-1.2-2.9-0.2 0.7-1.8 0.9-0.7 4-1.2 0.5-0.8-0.1-1.2-0.3-1 0.2-1.1 0.5-0.2 0.7-0.9 0.6-1.3 0.2-0.7-0.3-0.9-0.4-0.2-0.5-0.6 0-1 0.6-1.2 1.8-0.3 9.1 2.5 1.6 1 0.6 0.7 1.2 2.4 0.7-0.2 0-1 0.2-0.9 1.2-0.6 1.5 0.2 0.6 0.2 0.3 1.4 0.3 1.1 1.8 0.8 2.3-0.5 1.5-1.4 0.2-0.9-0.1-2.1 0.2-1.4 0.7-1.4 0.7-0.5 5.1 0.5 6-0.8 1.9-0.9 1.2-0.2 1.2 0.1 2.5 1.1 0.5-0.2-0.2-0.4-0.4-2 0.4-0.5 2.9-1.4-0.3-0.3-1.8-0.5-0.9 0.2-1.4 1.1-0.1-0.3 0.2-1 0.4-0.7 0.7-1 1-0.6 0.6-0.2 0.7-0.4 0-0.4-0.3-0.6-0.8-0.8-0.4-0.7-0.3-1.1 3.1-0.8 0.5 0.2 0.1 0.2 0.2 0.7 0.5 0.7 1.9 2.5 0.9 0.8 1 0.4 1.6-0.5 2.5-2.1 1.2 0 0.7 0.9 0.6 1.7 0.5 2 0 2 1.8 1.2 1.5 0 10.2-3.4 0.9 0.3 0.4 0.5 0.4 0.6 0.6 0.5 1 0.3 2.1-0.1 3.4 0.9 1.8-0.2 0.8-0.5 0.7-0.9 0.4-1.4-0.2-0.1 0-0.5-0.1-0.5-0.1-0.5z m-14.8 41.1l0.3-0.6 0.7-0.2 1.3 0.1-0.5 1-0.4 0.3-0.6 0.3-0.6-0.1-0.2-0.8z m-7.1-2.3l-1.1-0.3-0.8-1.2-0.2-1.5 0.6-1.3 0.6 0.4 3.2 3.4-0.3 0.5-0.6 0.3-0.6 0.5-0.4 0.7 0.1 1.1-0.9-0.6-0.3-0.3 0.2-0.5 0.5-1.2z m-63.2 19.7l0.3 0.3-0.1 0.1 0 0.6-0.4 0.4-0.5 0 0 0.2 0 0.1-0.3 0.2-0.6 0.1-0.5-0.5-0.3 0-0.1-0.1 0.3-0.6 0.6-0.8 0.8-0.2 0.8 0.2z" id="FI18" name="Uusimaa">
  </path>
  <path d="M439.2 892.1l-0.6 1.2 0 1 0.5 0.6 0.4 0.2 0.3 0.9-0.2 0.7-0.6 1.3-0.7 0.9-0.5 0.2-0.2 1.1 0.3 1 0.1 1.2-0.5 0.8-4 1.2-0.9 0.7-0.7 1.8 2.9 0.2 0.5 1.2 0 1.2-0.2 1.9-0.8 1.3-0.7 0.3-0.5 2-0.3 1.9-1.5 1.7-1.6 1-0.4 0.7-0.2 0.9-0.2-0.1-0.5 0-0.5 0.3 0.3 0.4 0.4 0.3 0.8 0.8 0.5 1.1 0.2 0.8-0.4 1.1-0.4 0.1-2.1-0.5-0.4 0-0.8 0.3-2 1.9-1.8 0.8-1.7 0.2-1.5-0.1-0.7-0.3-0.6-0.5 0.1-0.5 0.2-0.4-0.5-0.1-0.6 0.3-3.8 4.4-2.9 2.1-1.7 0.4-1.5-0.9-0.2-0.4 0.9-1.1-0.8-1-0.2 0.5-0.4 1.2-0.1 0.4-0.3 0.2-0.7 0.4-0.3 0.3-0.1-1.2-0.3-0.8-0.6-0.4-1.3-0.4-0.8-0.9-0.5-0.4 0.4-0.7 0-0.7-0.2-0.6-0.4-0.5 2-3.5 0.8-1.1 2.4-2.4 0.6-1.2 0.2-0.7 0.3-1.2 0.3-0.6 1-0.9 0.3-0.5 0-0.7-0.8-0.2-1 1-0.8 1.5-0.5 1.3-2.1-0.7-2.4 1.1-5.2 4.7-4.6 1.4-2.1 1.1-1.1 0.1 0.6-0.7 1.9-1.4-0.7-0.2-0.1-0.6 0.7-1.5 0.4-0.4 1.8-0.8-1.9 0.2-0.9 0.4-1.7 1.4-0.9 0.4-2 0.1 0.3-0.5 0.1-0.5 0-0.5 0.1-0.5 0.3-0.4 0.6-0.6 0.8-1.2 1.2-1.3 0.2-1.1 1.8-2.2 1.2-0.9 0.1-1.1-0.2-0.7-1.6 1.7-1.4 0.3-3-0.2 0.8-2-5.8 1.5-1.3-0.1-0.5-0.2-1.1-1.4-2.5-1.9-0.8-0.4-1.6-0.1-0.2-0.6-0.1-0.9-0.3-0.4-0.7 1.1-0.6 0.8-0.7-0.2-1-1.4-0.1-0.2 0.1-0.6 0-0.2-0.2 0-0.5 0.1-0.1-0.1-0.3-0.3-0.3-0.1-0.1-0.3 0.2-0.9-1.8 0 0.2-0.5 0.2-1 0.1-0.5-0.6-0.4-1.1-0.3-1.1-0.1-0.7 0.3-0.4 0.8 0.2 0.9 0.9 1.9-1.7-0.6-0.8 0-0.8 0.6 0.2-1.3 0.5-2.3 0.1-1.6 0-1.1 0.1-1 0.4-0.8 1-0.2-0.5-0.6-0.2-0.8 0.1-0.8 0.4-0.9-2.5 1.9-0.7 1-0.8 0.7-2 0.4-0.6 0.7-0.1 0.6 0.3 1-0.1 0.7-0.2 0.5-0.2 0.3 0 0.4 0 0.9-0.5 1-1.1 0.5-1.2 0.1-0.8-0.4 1-0.9-0.5-1.6-2-3.1 0.6-0.1 1.7 0.6 0-0.5-0.9-0.4-2.5-0.1-1.2 0.4-0.4 0.1-0.3-0.2-0.6-0.7-0.4-0.1 0-0.6 0.2 0 0.2-0.1 0.3-0.3-0.5-1.1 1.2 0.4 0.6 0.1 0.3-0.5-1.8-1.6-0.8-0.4-0.8-0.9-0.6-1.2-0.3-1.1 0-0.4 0.1 0 0-0.2-0.1-0.4 2.6 0.8 0.5 0 0.3-1-0.2-0.8-0.4-0.7-0.3-0.9 1.8 0 0-0.5-0.8-0.1-0.8-0.3-0.8-0.5-0.7-0.7 0.6-0.4 0.3-0.1 0.4 0-0.8-1.2-0.5-0.3-0.5-0.1 0.3-1-0.3-1.1-0.5-0.6-0.5 0.2-0.3-0.3-0.2-0.4-0.1-0.4-0.2-0.6 0.4-0.7-0.6-1.5 0.5-0.3 1.8 0.4 1-0.1 0.7-0.9-0.4-0.3-0.4-0.1-0.9 0-0.3-0.2-0.7-1.4 0.3-0.2 0.7-0.7 0.3-0.2 0.4 0.2 0.3 0.5 0.3 0.4 0.4 0-0.2-0.8-0.2-0.8-0.1-0.7-0.3-0.3-0.5-0.2-0.2-0.3 0-0.5-0.2-0.6-1.7-3.6-0.6-0.6 0.5-0.8 0.2-0.2-1-0.9-0.3-0.6-0.2-1.1 0.8 0 1.7 1.2 0.8 0.3 0.8-0.2 0-0.4 0.4 0.1 1.2 2.5 1.5 0.8 3-0.3 1-0.7-0.1-0.5 0.1-0.8 0.3-0.7 0.6-0.2 0.4 0.4 0.2 0.8 0.1 1 0.2 0.6 0.9 0.5 1.2 0.3 1.3-0.3 0.5-0.3 0.4-1 0-0.7 0.5-0.5 0.8-0.1 0.5 0 0.4 0.3-0.1 0.2-0.4 0.9 1.2 0.6 2.3 2 0.9 0.3 0.8 0.5 0 0.4-0.1 0.6-0.1 0.4 0 0.3 0.2 0.7 1 1.1 0.4 0.9 0 0.5 0.6 0.8 5.4 1 0.8-0.3 1.5-1.9 1.2-0.8 11.7-1.4 0.4-0.4-0.3-0.2-1.1-1.4 0.5-0.9 0.8-0.4 5.6 0.3 1.3-0.3 1.6-0.8 1-1.2-0.3-2.1 0.3-0.5 0.4-1-0.1-1-0.4-0.4 0-0.9 0.6-0.1 3 2.8 1.8 0.7 0.9 1 0.5 0.2 0.9 0 1.7-0.3 1.6 0.2 1 0.8 0.8 1 1 0.6 1.6 2.1 0.9 0.8 0.5 0.3 0.6 0.8 0 0.8-0.2 1.1-0.5 0.5-0.4 0-0.3 0.1 0 0.2 0.3 1.2 0.1 0.2-0.6 0.2-2.2-0.3-1.3 0.3-0.7 1.5 0.1 1.9 0.9 0.9 1.7 0.4 0.2 0.7-0.5 0.5-0.7 0.8-0.6 1.1-0.2 0.6 0.5 1.2 2.1 1.9 1.3 0.8 1.5 0.4 1.8-0.3 3.5-1.3 0.9-0.2 1.3 1.6 0.6 1 1.6 1.1 3 0.7 1.9 2.1 2.3 0.7 4.9 0.2z m-55.1 44.6l-0.2-1.7 0.3-0.7 0.7 0.3 0.7 1.1 0 2.7 0 1.3-0.2 1.1-0.3 0-0.4-0.7-0.6-0.2-0.5 0.3-0.3 0.8-0.2 0.2-0.4-0.9-0.4-1.2-0.2-0.9-0.2-1.1 0-1.2 0.2-0.9 0.6-0.4 0.4 0.5 0.1 0.9 0.1 0.8 0.8-0.1z m-33.7-6.1l1.2-1.8 1.5-0.8 1.6 0.1 1.5 1-0.3 0.8-0.3 0.4-0.9 0.7 0.6 0.1 0.3 0.3-0.1 0.6-0.3 0.7-0.5 0.3-0.5 0-1-0.3-0.4 0-1 0.4-0.4 0.3-0.4 0-0.4-0.4-0.4-0.5-0.4-0.4 0.7-0.5 0.7-0.1 1.4 0.1-0.3-0.9-0.6-0.2-1.3 0.1z m9.1-4.1l2.1-0.5 2 0 1.2 1 0 0.5-0.4 0-0.4 0-0.4 0.2-0.3 0.3 0.2 0.2 0.6 0.9-2.8 0 1.3 0.4-0.4 0.3-0.3 0.2-0.4 0.1 0.1 0.2 0.2 0.3-0.8 0.9-1.2 0.6-1.2 0.1-0.9-0.6 0.4-0.4 0-0.2-0.1-0.9 0.5-0.5 0.2-0.1 0-0.4-0.6-0.4 0.1-0.8 0.6-0.9 0.7-0.5z m-14.4-1.6l0.5 1.1 1 0.5 2 0 0 0.5-1.5-0.1-0.5 0.5-0.3 1.2-0.2 0-0.3-0.6-0.6-0.3-1.2-0.2-0.5-0.2-0.4-0.5-0.4-0.3-0.7 0 0.5-1 0.8-0.4 1.8-0.2z m26.1 0l0.4 1.1-2.2 2 0.2 0.2 0.6 0.7 0.2 0.2-1.1 1.3-1.1 0.2-1-1-0.6-2.1 0.5-0.3 1.8-0.7 1.1-1.2 0.5-0.4 0.7 0z m5.5 0.6l0.5-1.5 0.9-1.4 0.9-0.8 0.8 0.6 0.2 1.8-1.1 1.9-1.3 0.8-0.9-1.4z m23.5-2.8l0.8-1.8 0.9-1.5 1.1-0.8 1.4 0.2-0.3 1.7-0.7 1-0.9 0.7-0.8 0.9-0.3 0.8-0.1 0.7-0.2 0.6-1 0.5-0.3 0.6 0 0.8 0.3 0.9-0.3 0.1-0.2 0.1-0.1 0.2-0.2 0.2 0.2 0 0.6 0.5-0.2 0.7-0.1 0.3 0.5 2.3-1.2 2.1-3.1 2.7 0 0.5 0.4-0.1 0.2 0.2 0.4 0.4-0.3 0.5-0.5 1.3-0.2 0.3-0.9-0.2-0.4 0.1-0.5 0.6-0.5-1.4-0.5-1.2-0.3 0.8-1.2 1.5-0.2 0.1-0.1 0.3 0 0.9-0.2 0 0.1-1.1-0.2-0.7-0.2-0.2-0.5 0.5-0.1-0.9 0.2-0.6 0.3-0.6 0.1-1-0.4 0.6-1.3 1.3-0.6 0.9-1.6 0.5-0.6 0.3 0-1.9 0-0.9 0.2-0.8-0.2-1 0.1-0.9 0.1-0.8-0.1-0.6-0.4-0.5-1-0.6-0.5-0.7 0.8-0.3 1.4-1 0.7-0.2 3.7 0 0-0.5-6.9-0.6 0.4-1.6 0.3-2.1 0.6-1.6 1-0.3-0.7 1.9-0.2 0.8 0.5 0.4 3.7-0.7 1.4-1 0.6-0.4 7.2-1.1 1.1-1.1z m-27.3-5.4l1-0.2 4.3 0.4 2.7 1 0.6 0.8 0 0.9-0.2 0.4-0.7 0.3-0.3-0.1-0.3-0.3-0.3-0.2-0.3 0.3-0.1 0.2-0.5 0.5-0.2 0.1-1.6 0.4-0.6-0.1 0.6-0.8-0.5-0.8-0.8-0.4-0.9 0-0.6 0.2 1.5 0-0.7 1.5-1-0.3-1-0.6-0.7 0.1-0.4 0-0.1-1.1 0.3-1.3 0.8-0.9z m10.4-0.5l-0.6 0.4-0.7 0.1-1.4-0.5 0.6-1.3 0.7-0.8 0.9-0.4 0.9-0.1 0.2 0.2-0.1 0.3 0 0.3 0 0.2 1.1 0.6 0.5 0 0.5 0 0.4 0.2 0.3 0.8-0.8 0.9-1.1 0.7-1.1 0.4-1 0 0.2-0.4 0.2-0.5 0.3-1.1z m-14.4-1l-0.7 0.4-0.7 0.1-0.7-0.2-0.7-0.3-0.1 0.1-0.2 0.2-0.2 0.2-0.3 0 0-0.2 0-0.7 0-0.2-0.8-0.7-0.4-0.2-1.1-0.3-0.9-0.5-0.7-0.7-0.4-0.9 0.3-0.8 0.6-0.7 0.8-0.3 0.6 0 0-0.5-1.8-2 0.2-1 0.2-0.8 0.3-0.4 0.6 0.1 0.6 0.6 1.6 1.1 0.3 0.6 0.2 0.7 0.3 0.4 0.3 0.1 0.4 0.1 0.6 1.6 0 0.4-1-0.3-0.6-0.1-0.4 0.4 0.5 0.5 1 0.5 0.5 0.6-0.3 0.5 1.3-0.1 0.5 0.3 0.3 0.8-0.9 0.5-0.4 0.1 0.6 0.3 0.3 0.1 0.4 0 0 0.6z m-10.1-11.1l-0.4 0.8-0.5 0.9-0.5 0.3-0.2-0.7 0.4-1.5 0.8-1.8 1-1.3 0.9 0-0.2 1-0.3 0.8-1 1.5z m-15 0l-0.7-0.4-1.3-0.2-0.6-0.6 0.4-1.6-0.3-0.9-0.5-0.8-0.3-1.4 0.7 0 1.1 1.4 1 1.7 0.1 0.7 0.6 2.1-0.2 0z m2.8-5.9l0.6 1.3 1.9 0.3 0.7 1-0.1 0-0.1 0.1-0.2 0.1-0.3-0.2-0.1 0.7-0.1 0.7 0 0.6 0.2 0.5-0.6-0.1-0.5 0.4-0.1 0.6 0.5 0.7-1-0.5-0.9-0.9-0.8-1.4-0.4-1.9-0.5 0.8-0.4 0.3-0.3-0.5-0.1-1.3 0.3-1.1 0.7-0.3 1.6 0.1z m-3.6-0.5l-0.6 0-0.3-0.4-0.1-0.7-0.2-0.5-0.8-0.2-0.4-0.2-0.4-0.6-0.3-1.1 0.2-0.5 0.9-0.5 0.2-0.5 0.2-0.6 0.2-0.3 0.4 0.4 0 0.6 0.2 0.6 0.2 0.5 0.4 0.4-0.3 1-0.2 1.2 0.1 0.8 0.6 0.1 0 0.5z m-1.2-23.8l-1.2 0-0.6-0.2-0.5-0.4 0.9-0.8 1.8 0.8 0.8-0.5-0.1-0.3 0-0.2-0.1-0.3 0-0.3 0.2-0.1 0.3-0.6 0.2-0.3-1-1.5-0.7-0.5-0.8-0.1 1-1.3 0.5-0.3 0.8 0.1 0.6 1.1 0.6 0.7 1.3 1.3-0.7 0.8-0.6 0.2-0.4 0.5-0.1 1.6-0.2 0.7-0.8 0.1-0.8-0.3-0.4 0.1z m60 61.1l1.1-0.1 0.4 0.3-0.3 0.5-0.1 0.7-0.2 0.5-0.2 0.3-0.2 0-0.3 0.4-0.3 1-0.2 0.6-0.2 0.4-0.5-0.4-0.3-1.2 0.1-1 1.1-0.2 0-0.3-0.3-0.3-0.5 0-0.3-0.3 0.3-0.5 0.9-0.4z m2.6-3.2l0.2 0.5 0 0.5-0.2 0.6-0.4 0.3-0.4 0.1-0.1-0.1 0-0.3-0.2 0-0.5 0.3-0.6 0.3-1 0-0.3 0-0.6-0.1-0.1-0.2 0.5-0.5 0.3-0.7 0.3-0.6 0.2-0.3 0.5-0.4 0.9-0.5 0.8 0.1 0.4 0.4 0.3 0.6z m-35.7-1.4l0.3 0.1 0.4 0.4-0.1 0.6-0.8 0.2-0.6 0.1-1-0.2-0.2-0.2-0.3-0.6 0.2-0.5 0.6-0.3 0.4-0.2 0.5 0.5 0.6 0.1z m11.9-4.6l2.3-0.9 0.4 0.6-0.7 1.4-0.9 0.6-0.9 0.3 0 0.3 0.5 0.5 0.1 0.4-0.4 0.1-1 0-0.3-0.2 0.1-0.2 0-0.3-0.1-0.6 0.2-0.4 0.1-0.2 0-0.2 0.1-0.5 0.2-0.5 0.3-0.2z m-12.2-7l-0.3 0.1-0.1-0.1 0.2-0.3 0.6-0.5 0.5-0.1-0.1 0.4-0.4 0.4-0.4 0.1z m-1 0.3l-0.5 0.3-0.7 0-0.6-0.2-0.5-0.7-0.4 0-0.3-1.1 0.1-0.5 0.6 0 0.5 0.1 0.6-0.2 1.3 0 0.5 0.2 0.1 0.5-0.7 1.6z m12.7-6.4l-0.4 0.7-3.2 1.1-0.4 0.1-0.8-0.2-0.5-0.6 0-0.4 0.3-0.3 3.3-0.9 1.1-0.1 0.6 0.6z m-3.5-1.2l0.1 0.6-3.6 1.7-0.3-0.1 0.7-1.3 0.6-0.6 0.3-0.1 2.2-0.2z m-32.1 0l0.5 1 0.2 0.9-0.1 0.4-0.1 0.1-0.2-0.2-0.3 0.1-0.2-0.3 0-0.5-0.1-0.2-0.2-0.1-0.8 0.2-0.3-0.5 0-0.5 0.3-0.4 0.2-0.5 0.4-0.1 0.7 0.6z m42.9 37.6l0.5 0.1 0.1 0.1-0.3 0.4-2.3 1.3-0.6 0.1-0.4-0.2-0.1-0.6 0.3-0.4 0.2 0 0.2 0 0.9-0.5 0.8-0.1 0.3-0.2 0.4 0z m-33.2-28l0.6 0 0.4 0.2-0.2 0.7-0.4 0.6-0.2 0.5-0.1 0.4-0.4 0.1-0.2-0.1-0.3 0.1-0.6-0.4 0-1 0.3-1.2 0.6-1 0.7 0 0 0.7-0.3 0.2 0.1 0.2z m-12.6-45l0.3 0.1 0 1-0.2 0.6-0.5-0.2-1.4-0.9-0.2 0.1-0.1-0.1-0.1-0.3-0.2-0.3-0.3-0.3 0.1-0.3 0.6-0.2 0.6 0.3 0.1 0.7 0.1 0.2 0.3-0.1 0.2 0 0.2 0.2 0.2-0.1 0.3-0.4z" id="FI19" name="Finland Proper">
  </path>
  <path d="M404.9 862l-1.8-0.7-3-2.8-0.6 0.1 0 0.9 0.4 0.4 0.1 1-0.4 1-0.3 0.5 0.3 2.1-1 1.2-1.6 0.8-1.3 0.3-5.6-0.3-0.8 0.4-0.5 0.9 1.1 1.4 0.3 0.2-0.4 0.4-11.7 1.4-1.2 0.8-1.5 1.9-0.8 0.3-5.4-1-0.6-0.8 0-0.5-0.4-0.9-1-1.1-0.2-0.7 0-0.3 0.1-0.4 0.1-0.6 0-0.4-0.8-0.5-0.9-0.3-2.3-2-1.2-0.6 0.4-0.9 0.1-0.2-0.4-0.3-0.5 0-0.8 0.1-0.5 0.5 0 0.7-0.4 1-0.5 0.3-1.3 0.3-1.2-0.3-0.9-0.5-0.2-0.6-0.1-1-0.2-0.8-0.4-0.4-0.6 0.2-0.3 0.7-0.1 0.8 0.1 0.5-1 0.7-3 0.3-1.5-0.8-1.2-2.5-0.4-0.1 0-0.2-0.6-0.5-0.9-0.2 1-0.7 2.2 1.1 1-0.4-0.5-0.5-0.5-0.9-0.1-1 0.4-0.7-0.4-1.9-0.2-0.8-0.4-0.5 0.4-0.1 0.9-0.5-0.3 0.1-0.2-0.1-0.3-0.2-0.2-0.2 0.5-1.1-0.5 0 0.5-0.5 0.5-0.2 1.2 0.1-0.2-0.8 0-0.2 1.1-0.7 1.1-0.3-0.5-1.7-0.7-0.7-1.8-0.8 0.4-0.8 0.5-0.4 0.3-0.5-0.2-1 1.5 0 0-0.5-0.1-0.5 0.1-1.4 0-0.7-0.1-0.5-0.2-0.2-0.2-0.4 0-0.4 0.1-0.8-0.1-0.4-0.2-1.5-0.2-0.5-0.6-0.6-0.5-0.3-1-0.4-0.5-0.4 1.1-0.6 2.3 0.2 1.2-0.6-0.6-1.2-0.5-0.8-1.2-1.2-2.6-1.3-0.7-0.8 4.9 0.7 1.4-0.7-0.8-2.3-0.2-0.4-0.5-0.2-1 0.4-0.5-0.2-1.5-2.1-0.3-0.9-0.1-0.3 0.2-0.2 0.6-0.2 1-0.2 4.3 1.9 2.3 1.6 1.1 0.4 0-0.6-2.5-2.6-1.3-1.9-0.8-3.3-0.7-0.6-0.8-0.4-0.5-0.7-0.1-0.7 0.3-1.1-0.1-0.6-0.9-1.9 0-0.5 0.7 0.2 1.3 1.1 0.6-0.3-1-1.2-2.6-1.8-0.7-1.8 0.1-1 0.3-1 0.3-1.1-0.1-0.9-0.5-0.5-0.7-0.2-0.4-0.5 0.2-1.2-1.1-1.7-0.6-1-0.3-1.1 0.3-0.3 0.3-0.5 0.1-0.5-0.8-0.5-0.1-0.7-0.1-0.7-0.2-0.6-0.4-0.1-1.7 0.1-0.3-0.1 0.8-1.1 1-0.7 0.8-1.3 0.7-1.3 0.7-1.1 1.9-1 2-0.2 4.3 0.3 10.6 2.8 3.2-0.6 1.6-1.4 4.3-5.7 1.9-1.5 4-1.8 1.7-1.8 0.7-1 3.9-4.1 1.4-2 0.5-1.1 0.4-1.6 0.6-2.5 1.2-0.1 3.1 1.5 5 1.1 0 2.2 0.6 5.6-0.2 0.8-0.8 0.2-1.5 0.1-0.7 0.6-0.1 1.2 0.1 1.1 0.2 1 0 1 0 1.4 0.1 0.6-0.1 0.3-0.8 0.8-0.8 0.5-2.4 0.1-1.4 0.7-1.3 1-1.6 2 0 0.9 3.4 1.9 0.6 1.3 0.2 1 0.7 1.1 1 0.5 0.5 0.2 0.6 0.9 0.1 0.8 0.5 0.8 1.1 0.6 0 0.6-1.3 0.4-0.2 0.3 0 0.4 0.9 0.4 0.8 0.6 1.2 1.5 0 1.9-0.6 1.3-1.2 1.3-1.4 0.8-0.8 0.7-0.7 1.1-0.7 1.9-0.6 1.5-0.1 0.3-0.1 0.7 0.1 0.8 0.3 0.8 0.4-0.3 0.3-0.6 0.7-0.7 0.5 0.6 0.2 1.5-0.6 1.3-0.8 0.1-0.1 0.4 0.2 1.3-0.9 2-2.3 2.3 0 1.6 1.5 2.5 1.2 1.2 1 0.4 0.9 0.7-0.1 0.5-0.1 0.9 0.2 0.8 0.1 0.4-0.1 0.4-1.8 0.4-0.3 0.3 0.1 0.2 0 0.1 0.1 0.7-0.2 0.3-0.4 0.1-0.3 0.2-0.2 0.5-0.1 0.4-0.5 0.2-1-0.4-1.1-0.2-0.2 0.6 0.7 2.7 0.2 0.5 0 0.5-0.7 0.5 0.1 0.7 0.3 0.6 2 3 0.3 0.7 0.1 0.6 0.1 0.7 0.5 0.5 0.7 0.3 2.4-0.2 4.5 1 2.1 1.5 0.7 1.1 0.2 1.5-1 0-0.1 1 0.1 0.9 0.4 1.3 0.7 0.9 0.4 0.3 0.2 0.5-0.9 0.9-0.5 0.6-0.3 0.4 0.3 0.8 0.4 0 1.8-0.3 0.4 0.3 0 0.6-0.4 0.1-0.5 0.3-0.3 0.6 0.1 0.9z m-57.3-10l0.3 0.2 0.1 0.2-0.3-0.1-1.3-0.7-0.7 0.4-0.7 0-0.2-0.1 0.1 0-0.1-0.3-0.1-0.7 0.1-0.4 0.3-0.1 0.1-0.2 0-0.2 0.2-0.5 0.6-0.4 0.5 0.3-0.2 0.7 0.1 0.7 1.2 1.2z m3.7-35.4l0.1 0.1 0.1 0.3-0.2 0.3-0.3 0-0.1 0.2-0.1 0.4-0.3 0-0.8-0.3-0.6-0.4-0.1-0.2 0.4-0.1 0.5-0.8 1.4 0.5z" id="FI17" name="Satakunta">
  </path>
  <path d="M355.9 786.3l-4.3-0.3-2 0.2-1.9 1-0.7 1.1-0.7 1.3-0.8 1.3-1 0.7-0.8 1.1-0.1 0-0.9-0.7-0.4-0.2 0.6-1.6-0.5-0.6-1.7-0.5 1.5-5.1 0.3-2 0.2-3.7 0.3-0.7 0.5 1.7 0.7-2.3 0.1-1.1-0.3-0.9 0.6-0.9 1.1-0.9 0.5-0.6 0.2-1.1-0.3-0.8-1-1.1 0.7-2.8-0.8 0.1-0.4 0.8-0.4 1.1-0.7 0.8 0.2-1.3 0.4-2.3 0.2-1.3 0-3.7 0.2-1.2-2 0.8-0.5-0.3-0.3-0.8-0.1-1.1 0.2-1 0.5-0.9-0.3-1.2-2.4 4.1-0.1 0.9 0.5 1.1-0.8-0.2-0.2-1.2 0.2-1.6 0.3-1.4-0.2-0.1-0.4-0.3-0.2-0.1 0.3-1 0.2-0.3 0.3-0.4-0.6-0.5-0.7 0.2-0.7 0.6-0.6 0.8-0.1-1 0.7-2.5 0.2-1.4-0.6 0.6-0.5 0.2-0.3-0.4-0.1-1.5 0.1-1.4 0.3-1.1 0.5-0.8 0.6-0.6-0.2-0.6-0.8-1.5 0.7-0.7 0.8-1.1 0.8-0.7 0.7 0.2-0.6-1.5-2.6-0.7-0.6-1.1-0.4 0.3-0.4 0.6-0.7 1.3 0.1-1.9 0.6-3.2-0.2-1.5 0.7-0.2 1-0.8 0.9-1.1 0.4-1.2 0-0.9-0.2-0.1-0.2 0.1-0.3-0.2-0.7-0.9-0.2-0.5-0.3-1.4 0.2-1.1 0.6-0.8 0.8-0.3 0.7 0.8 0.5 0.2 0.2-0.7 0.1-0.2 0.6-1.2 0.3-0.5 0.2-1.4 0-1.1 0.2-1.1 0.6-0.9 0.9 0.1 2.5 1.1 0.8-0.4 0.3-0.4 0.7-0.8 0.2-0.5 0.2-0.5 0.2-1.1 0.3-1.1 0.4-1.7 0.1-0.6 0.2-0.1 1.3-0.6-0.6-2.9-0.1-1.5 0-1.8-0.1-0.6 0-0.3 0.1-0.2 0.5-0.6 0.4 0 0.3 0.4 0.2 0 0-1.2 0.5-1.1 1.1 0.6 1.5 1.9 1.1 0.5 1.1 0.9 1.2 0.5 1.2-0.8-1.6-2.3-2.5-2.3-0.7-1-0.2-1.1 0.7-1.2-0.5 0.3-0.5 0.2-0.5-0.2-0.4-0.5-0.2-0.9 0-0.9 0-0.6-0.5-0.2 0.3-0.9 0.4-0.3 1.1 0.1 0-0.5-1.4-0.6-0.5-0.6-0.1-1.4 0.3-0.7 0.7-0.6 0.7-0.5 0.5-0.1 2.2 2.3 1.1 0.5 0.8-1.7 0.7 0.7 1 0.7 1.1 0.2 0.8-0.5-0.6-0.4-1.1-0.4-0.6-0.3 0-0.6 1.5-1.1 0.5-0.2 1.5 0.2 0.9-0.3 1.8-1.3 0.9-0.1-0.4 1.2-0.1 0.8 0.4 3.2-0.1 0.7-0.3 0.9 0.9 0.2 2.9 2.6-0.4-1.8-0.6-1.6 1-0.5 0.4-0.5 0.3-0.7 0.3-0.8 0-0.7 0.2-0.7 0.3-0.6 0.7-0.5 0.4 0.4 0.3 0.7 0.3 0.5 0.6 0 1-0.8 0.5-0.3 0.4 0.1 0.8 0.5 0.6 0 0.2-0.3 0-0.3 0-0.4 0-0.2 0.2 0 0.3 0.2 0.2 0.3 0.1 0.1 1.5-2.3 0.8-1.5 0.5-1.3 0.2 0 0.9 2.1 0.8-0.6 0.8-1.8 0.8-1.3-0.4-0.5-0.2-0.6-0.4-1.2-0.5-0.9-1-1.1-1.9-2.7-0.1-0.4-0.7-0.1-0.5-0.2-0.5-0.5-0.4-0.9-0.2-2.2 0.9-1.1 1.2 0.1 1 1.2 1.2 1.6 1.1 0.5 1.2 0.2 1.2 0.8-3-3.5-1.5-2.3-0.3-2.1 0.4-1.1 0.4-0.3 1 0.2 0.7 0.4 0 0.8-0.3 0.9 0.1 0.8 0.8 0.4 1 0.2 0.6 0.7-0.1 2.1 0.5-0.4 0.6-0.9 0.4-0.4 0-0.6-0.3-0.8 0.1-0.7 0.3-0.7 0.2-0.9 0.1-0.1 0.6-3 0.4-0.6 0.4-0.4 0.3-0.6 0.2-1 0.2-0.1 1.6 1-0.3-1.1-1.5-2.9 0.6-1.1 0.3-0.4 0.4-0.3-0.1-0.5-0.1-0.3-0.1-0.3 1.6 0.4 0.7-0.3 0.2-1.5 0-1.6-0.1-0.8 0.2-0.1 0.7 0.4 0.5 1 0.4 0.4 0.1-0.5 0.1-0.8 0.4-0.4 0.4-0.1 0.4 0.2 0.5 0.7 0.5 0.9 0.1 1-0.1 1.1 0.4 0.7 0.7 1.8 0.3 0.4 0.5-0.1 0.7-0.3 0.6-0.4 0.5-0.7 0.3-0.2 0.3-0.1 0.4-0.1 0.1-0.7 0-0.6 0-0.5 0.1-0.4 0.2-0.5 0.5-0.8 1.2-0.6 0.6-0.9-0.7-0.6-1.9-1.1 2.6 0-0.8-1.3-0.3-0.4 1 0.5 0.5 0.1 0.4-0.4 0.1-0.4 0.1-0.7 0-0.6-0.2-0.3-0.6-0.4-0.4-0.9 0.2-1 0.7-0.5 0.8 0.1 0.4 0.6 0.7 1.8 0.6 0.8 0.4-0.1 0-0.9-0.4-1.1 0-0.1 0.4 0.4 0.4 0.2 0.4-0.2 0.5-0.3 6 5.3 1.8 0.3 0.9-0.7 0.8-1.1 1.1-1 1.5-0.4 1.3 0.5 1.1 0.6 0.8 0.1 1-2 1 0.1 3.2 2.2 4.6 4.3 0.7 1.7-0.5 0.4-3.9 0.9-2.5 1.5-1.1-0.5-0.3-1-0.3-1.3-0.2 0.1-0.4 0.2-0.3 0.2-0.1 0.4 0.1 0.2 0.3 1 0.1 0.3-0.1 0.2-0.1 0.1-0.5 0.4-0.2 0.1-0.1 0.2 0.1 0.2 0 0.3 0 0.3 0.1 0.3-0.2 0.2-0.6 0.4 0.7 0.3 1.1 0.4 1.9 0 0.8 0.5 0.1 0.6 0.4 2.4 0.7 0.8 0.7 0.3 0.9 0.9 0.4 1.7 0.9 7.3 0.4 1.4 0.9 1.7 0 0.3-0.1 0.1-0.2 0-0.1 0.1-1.8-1.3-1.4-1.5-0.8-1.1-1-2.3-0.6-0.8-1.6-1.1-2.1-0.7-2-0.2-1.7 0.1-1.9 1.1-1.3 1.8-2.4 5-1.5 2.1-1.5 0.5-3.9-0.8-0.8 0.1-0.5 0.9 0 1.3-0.8 0.3-0.9-0.5-2.4-0.7-3.7-0.3-1.1 0.1 0.6 1-3.3 2-0.3 0.4 0.6 1.2 0.1 0.3-0.4 0.3-2 0.7-1.1 1.1-0.4 0.9 0.1 1.1 0.8 0.4 0.2 0 0 0.6-0.5 0.9-0.4 0.7 0 0.2 0.4-0.1 0.4-0.1 0.1 0.4-0.5 1.9-0.1 0.3 0.3 0 0.4-0.2 2.4-0.2 0.4 1.4 0 2.2-0.1 0.6-0.4 0.3-0.6 0.3-0.2 0.7 0.2 0.4 0 0.9-0.5 2-0.6 0.4-0.8-0.2-0.4 0-1.3 0.6-0.3 0.8 0.1 0.4 0.4 0.5-0.8 0.2-0.7 0.6-0.6 1-2.6 5.8-0.2 1.4-0.1 0.8-0.6 2.3 0 2.1-0.3 1.5-0.7 0.6-3.2 4.6-1.5 1.5-1.3 0.8-1.3 0.2-6.9-1.6-2.8-1.4-1.6-1.1-3-3.5-0.9 0.4-0.3 0.8-0.5 1.2-0.5 1.5-0.2 2.7 0 1.2 0.4 2 0.4 0.8 0.7 1.2 0.5 0.5-0.4 1.7-2.8 3.4-2 1.9-1.8 1.3 0 1.3 0.2 1.5 0.1 0.5 0.6 0-0.2 1.3-0.2 1.2-0.7 2.5-1.2 3.4-0.2 1.5 0.1 0.6 0 1.4-0.2 1.3-0.3 0.5-0.2 0.8 0.1 0.4 0.3 0.1 0.4 0 0.2 0.2-0.1 1 0 0.2 2.9-0.9 1.4 0.5 0.4 0.6 0.2 1.1-0.8 0.3 0.1 0.8 0.2 0.6 0.2 1.3 0 1.6 0 0.9 0.5 1 0.6 0.1 1 0.5 0.7 0.8 0.3 0.7-0.2 0.9-1.5 0.4-1.1 0.6-0.5 0.9 0.1 1.1 0.4 0.7 0.4 1-0.1 1-1.7 0.4-0.4 2.5-0.2 4.7-0.1 1.1 0.1 0.1 0.2 0.4 0.1 0.4 0.1 0.4z m-8.3-98.7l-0.2 1.1-0.1 1.1 0.2 0.9 0.3 0.9-0.8 0.5-1 0.2-0.5-0.3 0.6-1-0.7-0.1-2.6 2.4 0 0.5 0.2 0.1 0.8 0.4-0.7 0.8-0.6 0.3-1.5 0.1-0.5-0.6-0.4-1-0.4-1.1-0.7-0.7-0.5 0.3-0.5 0.5-0.6 0-0.5-1.3 0.8 0 0-0.6-0.5-0.4-1-1.4-0.4-0.7-0.2-0.8-0.6-2.6-0.1-0.9 1.5 1.3 1.5-0.1 1.5-0.6 1.6 0 0 0.5-0.6 0.3-0.4 0.6-0.8 2 0.1 0.7 0.1 0.1-0.1 0-0.1 0.3 0.5 0.4 2.1 0.2 0.3 0.2 0.2 0.3 0.3 0.1 0.3-0.3 0.1-0.6-0.1-0.5-0.2-0.5 0.1-0.4 0.9-1 1.5-0.7 1.5 0 0.9 1.1z m-3.8-3.4l-0.1-1.3-0.4-0.1-0.5 0.3-0.5 0-1.8-2.2 0.1-0.4 0.2-0.1 0.4 0 1-0.5 1.3-1.2 1.3-0.7 1 1.2 0 1.3-0.6 1.4-1.4 2.3z m26.2-2.8l0.2 0 1 1.7-0.1 0.6-0.4 1-0.6 0.4-0.6 0-0.3-0.3 0.1-0.6-0.1-0.2-0.3 0.1-0.1 0.4 0 0.4-0.2 0.2-0.2 0-0.2-0.2-0.2-0.6 0.2-1 0.4-0.9 0.5-0.3 0.7 0.5 0.3-0.1-0.1-0.4-0.6-0.5-0.1-0.4 0.2-0.1 0.2 0 0.1 0.2 0.2 0.1z m4.3 5.8l-0.3 0.1-1.9-0.9-0.2-0.4 0.2-0.3-0.2-0.4-0.4-0.3 0-0.4 0.3-0.2 0.3-0.2 0.2-0.5-0.3-0.8-0.3-0.7-0.2-0.5 0.4-0.2 0.5-0.2 0.7-0.4 0.5 0.2 0.3 0 0.3 0.3 0.3 0.6 0.3 0.3 0.2 0 0.1-0.4 0.2-0.2 0.3 0.1 0.3 0.2 0.1 0.4 0.2 0 0.3-0.2 0.2-0.4 0.1-0.7 0.2-0.6 0.2-0.4 0.2-0.2 0.1 0.1 0.2 0.7 0.1 0.4 0 1 0.3 0.6-0.1 0.3-0.3 0.8-0.5 1.1-0.5 0.5-0.8 0-1.1-1.2-1.6 0.3 0 0.2 0.9 0.3 0.8 0.4 0.1 0.9-0.2 0.5-0.3 0.1-0.2 0.1 0 0.2z m-6.9-6.6l-0.3-0.1-0.1-0.4 0.1-0.2 0.1-0.3 0.2-0.4 0.1-0.4 0.2-0.5 0.2-0.4 0.3-0.3 0.2-0.4 0.1-0.4 0.4-0.5 0.6-0.1 0.6 0.2 0.6-0.4 0.5-0.1 0.2 0.2 0.2 0.1 0.3 0.2 0.4-0.1 0.2 0.1 0 0.2-0.2 0.2-0.4 0.1 0.1 0.3 0.1 0.5-0.3 0.6-0.6 0.2-1.2-0.7-0.5 0.2-0.4 0.8-0.2 0.4-0.5 0.6-0.7 0.7-0.3 0.1z m31.5-37.2l0.5 0 0.2 0.3-0.1 0.3-0.1 0.1-0.1 0.2 0 0.5-0.2 0.5-0.1 0.3-0.1 0.5-0.2 0.8-0.4-0.2-0.4-0.4-0.2 0.3 0.2 0.6-0.2 0.5-0.4 0.1-0.3 0.4-0.7 0.2-0.7-0.6-0.6-0.8-0.4-1.2-0.2-0.3-0.1-0.3-0.1-0.4 0.8-0.6 0.3-0.3 0.3-0.4 0.7-0.6 0.9-0.5 0.7 0.1 0.3 0.6 0.2 0.5 0.2 0.1 0.1-0.2 0.2-0.1z m-59.2 68.8l-0.6-0.6-0.3 0.3-0.6 0.3-0.8-0.6-0.4-0.8 0-0.3 0.2-0.1 0.3 0.2 0.1 0.2 0.1-0.4 0.2-0.6-0.3-0.3-0.4-0.4-0.3-0.7-0.1-0.7 0.2-0.4 0.4-0.3 0.2 0 0.1 0.3 0.2 0.2 0.9 0.4 0.4 0.4 0.5 0.6 0.3 0.9 0.2 1.2 0 0.8-0.2 0.3-0.3 0.1z" id="FI12" name="Ostrobothnia">
  </path>
  <path d="M432.1 610.7l6.5 4.8 5.7 2.8 2.2 2.6 0.2 2 1 3.9 0.6 1.5 1.8 2 1.2 0.9 0.1 0.6 0.5 2.1 0.1 0.8 1 1.3 3.2 1.5 1.9 1.3 1.5 2.1 4.3 9 2.4 3.6 5.1 4.5 8.6 10 1 2.2-4.9 3.3-3.1 3.1-1 2.3 0 3.4 0.6 2.9-0.3 0.1-0.9 0.7-0.3 0.3 0 1.5 0.1 1.1-0.2 1.9-0.5 2.2-0.2 1.5 0 1.7-0.1 0.4-5.6-1.6-2.1-0.2-6.1 3.3-5.3-2.7-1.5 0 0.4-0.7 0.5-0.5 0.8-0.7-0.9-1.3-3.3-3.9-2.5-2-6.4-1.5-1.4-0.7-1.2-1-1.1-1.3-1-1.5-0.9-1.8-0.7-1.9 0.1-0.1 0.2 0 0.1-0.1 0-0.3-0.9-1.7-0.4-1.4-0.9-7.3-0.4-1.7-0.9-0.9-0.7-0.3-0.7-0.8-0.4-2.4-0.1-0.6-0.8-0.5-1.9 0-1.1-0.4-0.7-0.3 0.6-0.4 0.2-0.2-0.1-0.3 0-0.3 0-0.3-0.1-0.2 0.1-0.2 0.2-0.1 0.5-0.4 0.1-0.1 0.1-0.2-0.1-0.3-0.3-1-0.1-0.2 0.1-0.4 0.3-0.2 0.4-0.2 0.2-0.1 0.3 1.3 0.3 1 1.1 0.5 2.5-1.5 3.9-0.9 0.5-0.4-0.7-1.7-4.6-4.3-3.2-2.2-1-0.1-1 2-0.8-0.1-1.1-0.6-1.3-0.5-1.5 0.4-1.1 1-0.8 1.1-0.9 0.7-1.8-0.3-6-5.3-0.5 0.3-0.4 0.2-0.4-0.2-0.4-0.4 0.2-1.1 0-0.4-0.2-0.8 2.1-2.2 0.6-0.9 0.5-0.4 1.7 0.7 0.4-0.3 0.3-0.5 0.5-0.4-0.1-0.1-0.4-0.4 0-0.6 0.5-0.6 0.5-0.3 1.1-0.3 2.9 0.1 1.1-0.4 0.8-1.4 0.9 1 0.8-0.1 0.8-0.9 0.8-1.2-1.2-1.1-0.5-0.7 0-0.8 0.3-1.1-0.1-0.8-0.2-0.8-0.1-0.8 0.1-0.5 0.4-3.8 0.5-0.7 0.7 0 1.3 0.7 0.3 0.2 0.4 0.7 0.3 0.2 0.4 0 0.4-0.3 0.3-0.2 1.2 0.8 2.4 0.4 0.6-0.9-0.5-2-0.9-2-0.6-1 0.3-0.9 0.4-0.1 1.1 0.4 0.3-0.3 0.8-1.4 0.5-0.5 0.1-1.1 0.7-1.1 0.9-0.9 0.1-0.1z" id="FI07" name="Central Ostrobothnia">
  </path>
  <path d="M522.1 670.3l1.1-2 0.3-0.8 0.1-1 0.5-3 0.2-1.2 0.8-1.5 0.9-0.7 1.5-0.8 0.2-2.8-1.4-13.3-0.5-2.1 2.2-3.9 14.6-12.8 6.6-2.3 19.1 5.1 0.8 0.7 1 1.5 0.3 0.1 0.7 0.1 1-0.3 0.3-0.4-0.1-0.2 0-0.1 1-0.1 1 0.4 3.4 2.3 3.8 1.4 9.8 9.3 1.4 0.7 1.3 1.1 2.6 4.5 2.7 1.9 0.7 1.1 0.6 0.7 1-0.6 0.7-1 0.7-1.5 0.7-1.6 0.5-1.6 1.2 1.1 2 2.9 0.9 0.7 3 0.4 1.1 0.4 0.6 0.5 0.4 0.7-0.1 0.2-0.6 1.2 0.7 2.9 0.3 2.2 0.7 1.9 0.9 1 0.6 0.9-0.4 0.2-0.8 0.1-0.8 0.5-0.3 0.7 0.2 1.5 0.3 0.8 0.5 1.8 0.3 2 0.5 1.7 0.8 1.4 1 1.1 1.6 1.4 0.3 1.1-0.1 0.8-0.1 0.7-0.1 1.9-0.2 1-0.4 1-1.2 1.8-0.2 0.5 0.3 0.4 0.1 0.2-0.1 0.4-2 1.6-0.2 0.4 0.5 0.3-0.1 0.6-1.5 2.2 0.9 1 1.1 0.8 1.8 1.9 5.8 8.5 6.5 5 0.2 1.4-0.5 0.5-2.1 1.3-0.4 0.4-0.3 0.7 0.2 0.2 0.6 0.7 0.1 0.2-0.1 0.4-0.4 0.1-0.6 0-0.6-0.4-0.3-0.3-0.2 0.6 0.2 0.8 0.6 0.8 1.2 0.8 0.8 1.7 1.1 1.2 1.8 1-0.2 1-4.7 4-1.2 0.5-1.6-1-1.5-1.7-1.6-1-1 0.2-0.9 2.6-0.7 1-1.9 1.2-1 1.8 2 4.2-0.5 0.5-0.3 0.3-0.4 0.9-0.4 1.4-0.3 1.1-0.5 1.2-0.6 0.9-0.3 0.3-0.1 0.3 0.8 0-0.6 0.8-0.7 0.4-3.7 0.3-0.6 0.5 2.1 0.8-0.1 1-0.5 0.3-0.3-0.5-3-0.6-0.7-0.7-0.1 0.5 0.1 0.2 0.1 0.1 0 0.1-0.4 3-0.4 1.1-0.4 0.4-0.4 0.8 0.7 1.2 0.2 0.9-0.3 1-0.8 0.2-2.7-1-0.4 0.5 0.2 0.4 0.5 0.5 0.1 0.4 0 0.4-0.3 0.2-0.3 0-0.5 0.1-0.5 0.5-0.2 0.3 0.1 0.6 0.3 0.2 0.5 0.4 0.2 0.8 0.1 0.6 0.3 0.7 1 0.7 0.2 0.1-0.1 1-0.6 0.7-1.2 0.3-1.4-0.2-1.1 0.2-4.4 2.9-0.6 1.5-0.2 1-1.2 0.4-2.3-0.1-0.5 0.4 0.8 0-0.2 0.8-0.4 0.6-0.7-0.3-0.8-1-1-0.8-0.6 0.4-1.3 0-0.3 0.2-2.8-3.2-0.7-1.7 0.7-1.9-1.1-0.5-1.7-0.5 0.1-0.1 0-0.4 0.1-0.3-0.9-0.6-4.7-4.7-1.3-1.6-0.6-0.4-1.1-1-0.7-0.2-0.1-0.1-0.8-0.9-1.2-0.7-0.1-0.3-1.3-0.3 0.1 0.2 0.3 1.1-0.2 0.5-0.3 0.1-1.4 1.4-1 0.4-0.9 0.1-1.9 0.8-0.7 0-0.2-0.5-0.7-1-0.7-0.3-0.7-0.2-2 1.1-1.3 0.2-1.8-0.7-0.5 0-0.4 0.2 0 1.2 0.2 0.8-0.5 0-2.7-1.6-0.7 0-0.7 0.6-0.4 0.6-0.3 0.8 0.1 0 0.3 0.2-0.5 0.7-0.7 0.4-1.1 0-2.2-1.5-0.9-0.8-2.6-0.2-1-0.5-3.8-3.3-0.2-1.1 3.7-4.6 0.5-0.9-0.1-0.5-0.2 0-0.1 0-0.1-0.1 0.4-0.8 0.2-1.2-0.6-2.5-0.8-2.6-0.9-1.1-0.3-1.6-0.3-1.1-0.5-1-1.3-1.5-1.1-1-1-0.1-0.7 1.3-0.8 0.8-0.5-0.2-6.9-6-0.4-1 0.7-1.2 0.2-0.2-0.7-0.9-2.5-1.6-1.2-1.3-0.6-1.1 0.4-1.3 4.5-1.3 2.1 0.2 1.4 0.5 0.4 0 0.8-0.9 0.5-1-0.2-1.1-0.7-0.1-1.1-0.7-0.9-1.2-0.4-0.7-0.1-1.4 0.4-0.5 0.9-0.3 1.7 0.3-0.5-1-1.1-1.1-1.4-2.5-1.1-2.5-1.6-2.2-0.2-2.5 0-1.7 0.2-0.7 0.8-0.3 0.1-1.1-0.7-2.3-1.2-4.9-0.9-2.2-0.6-0.7-0.2-1.4 0.4-0.9 2.4-4.2 0.3-1.1-0.8-0.8-0.4-0.3z" id="FI15" name="Northern Savonia">
  </path>
  <path d="M615.3 735.9l5.6 1.8 0.7 0.5 3.2 3.2 0.6 0.4 0.9 1.1 0.3 0.6 0.9 1.1 1.6 1.2 0.3 0.5-0.9 0.8 0.3 0.4 3.1 1.4 0.3 0.7-0.3 0.5-0.4 1.2-0.3 1.4-0.1 0.8 0 1 0.1 0.1 0.2 0.2 0.4 0.1 0.1 0.2-0.2 1.2 0 0.2 0.4 0.4 1.2 0.5 0.5 0 0.2-0.4 0.7-1.6 1-0.6 1.5 0.6 1.2 2.2 1.1 4 1 2.7 0.6 1.2 1.4 2.2 0.7 0.9 0.3 1.9-0.2 1.6 0.3 3.2 0.7 2.8 0.6 2 1.3 3 1.9 2.8 2.2 2.3 1.1 0.7 0.8 1.2-0.8 1.6-0.4 1.3-0.2 1 0.2 1.3 2.3 2.4 0.3 0.7-0.7 1.3 0.6 0.6 0.1 1.4-1.5 3.3-3.3 4.6-1.1 3.1-2.5 2-4.6 2.9-2.6 3.8-0.9 1-2.1 0.9-5.1 1.1-5.9 0-2-0.4-0.7 0.1-0.2 0.5 0.1 1.8-0.3 0.8-2.2 1.3-3.6 0.9-3.3-0.3-0.9-0.6-1.1-2.1-0.6-0.3-0.9 0.2-0.8 0.9-0.8 1.3-0.2 0.4-0.2 0.6-0.2 0.8-0.5 0.8-2 2.2-5.9 3.5-23.7 1-8.8-3.1-2-0.2-1.7 0.3-3.4 2-0.7 0.2-2.8-0.3-1.2 0.4-0.6 0.8 0.3 1.2 6.2 1.2 3.6-0.1 0.5 0.4-0.4 0.4-0.7 0.2 0.6 0.9 1.3 1.2 2 2.8 0.1 1.3-0.3 0.5 0.4 0.9 0.9 0.4 0.9 0 0.1 0.2 0 0.3 0.1 0.2-0.3 0.3-0.3 0.2-0.2 0.3-0.1 0.5 0 0.4-0.6 0.8-0.7 0.2-4.4 0.5-7.8 0.8-2.1-1.5-0.6-1.1-0.1-0.4-0.1-1 0-0.5-0.2-1.3-0.3-1-0.5-0.7-0.3-0.9-0.1-0.8-0.5-0.9-1.2 0-0.8 0.3-0.7 0.4-0.5 0.6-0.5 1.5-0.4 0.6-1 1-1.3 0.9-1.3 0.3-0.5-0.1-0.3-0.8 0.1-0.3 0.8-1.7-0.2-0.7-0.3-0.5-0.3-0.8-0.4-0.7-0.8-0.3-3.6 1-0.6-2-0.7-0.9-2.8-1-1.2-0.8-2-2.1-0.5-0.3-0.4-0.4 0.4-1.1 0.4-0.6 0.2-0.3-0.2-0.4-1.1-0.9-0.7-0.9-0.3-1.1 0.1-0.5 0.7-1.8 0.2-0.7-0.1-0.5-0.2-0.3-0.5-0.7-0.1-0.3 0.2-0.9 0.4-0.6 0.4-0.3 0.1 0 0.1-0.6 0-0.8-0.1-1-0.2-0.8-0.2-0.5 0.1-0.3 1.3 0.3 0.1-0.3 0-0.3 0-1.3 0-0.8 0.4-0.2 0.9-0.6 0.1-0.5 0-0.4 0.1-0.6 0.5-1.2 0.8-0.3 3.7 1.9 0.7-0.5 0.5-3.8 0-1.2-0.3-1-1.2-2.6-0.5-0.8-3.2-3.6-0.3-0.6-0.2-1.3 0.2-2.9 0-0.8-0.3-0.6-1.1-0.1-0.3 0.1 0.5-2.4 0-2 0.5-1.4 1-0.6 0.1-2-5.3-8.7-0.1-2.9 3.3-4.8 2.5-2 0.9-0.1 1 1 0.3-0.2 0.5-0.4 0.5-0.6 0.2-0.3 0.1-0.5-0.1-0.1-0.2 0-0.1-0.1 0.5-0.9 0.8-0.4 0.5-0.1 0.9 0.2 0.4 0.4 1 1.1 1 0.7 0.9 0 0.4-0.3-0.4-0.4-0.4-0.8 0-0.7-0.1-1.1-0.2-0.9-0.2-0.4 0.2-0.9 1-0.4 0.5-0.4 0.3-0.4 0.1-0.6-0.1 0-0.3-0.1-0.1-0.1 0.3-0.9 0.4-0.6 1.1-0.7 1.8-0.4 0.1-0.7-2.7-2.5-0.2-0.9 0.2-0.5 0.2-0.5 0.3-1.1 0.2-1.6 2.2 1.5 1.1 0 0.7-0.4 0.5-0.7-0.3-0.2-0.1 0 0.3-0.8 0.4-0.6 0.7-0.6 0.7 0 2.7 1.6 0.5 0-0.2-0.8 0-1.2 0.4-0.2 0.5 0 1.8 0.7 1.3-0.2 2-1.1 0.7 0.2 0.7 0.3 0.7 1 0.2 0.5 0.7 0 1.9-0.8 0.9-0.1 1-0.4 1.4-1.4 0.3-0.1 0.2-0.5-0.3-1.1-0.1-0.2 1.3 0.3 0.1 0.3 1.2 0.7 0.8 0.9 0.1 0.1 0.7 0.2 1.1 1 0.6 0.4 1.3 1.6 4.7 4.7 0.9 0.6-0.1 0.3 0 0.4-0.1 0.1 1.7 0.5 1.1 0.5-0.7 1.9 0.7 1.7 2.8 3.2 0.3-0.2 1.3 0 0.6-0.4 1 0.8 0.8 1 0.7 0.3 0.4-0.6 0.2-0.8-0.8 0 0.5-0.4 2.3 0.1 1.2-0.4 0.2-1 0.6-1.5 4.4-2.9 1.1-0.2 1.4 0.2 1.2-0.3 0.6-0.7 0.1-1-0.2-0.1-1-0.7-0.3-0.7-0.1-0.6-0.2-0.8-0.5-0.4-0.3-0.2-0.1-0.6 0.2-0.3 0.5-0.5 0.5-0.1 0.3 0 0.3-0.2 0-0.4-0.1-0.4-0.5-0.5-0.2-0.4 0.4-0.5 2.7 1 0.8-0.2 0.3-1-0.2-0.9-0.7-1.2 0.4-0.8 0.4-0.4 0.4-1.1 0.4-3 0-0.1-0.1-0.1-0.1-0.2 0.1-0.5 0.7 0.7 3 0.6 0.3 0.5 0.5-0.3 0.1-1-2.1-0.8 0.6-0.5 3.7-0.3 0.7-0.4 0.6-0.8-0.8 0 0.1-0.3 0.3-0.3 0.6-0.9 0.5-1.2 0.3-1.1z" id="FI04" name="Southern Savonia">
  </path>
  <path d="M481 670.2l2-1.1 0.9-2.4 0.6-3.1 1-3.2 1.5-1.7 1.5-0.4 3 0.7 1.7 0.9 3.2 3.4 1.8 0.8 9 1.1 1.9 1.2 3 3.9 1.6 1.5 2.2 0.7 2.1-0.4 4.1-1.8 0.4 0.3 0.8 0.8-0.3 1.1-2.4 4.2-0.4 0.9 0.2 1.4 0.6 0.7 0.9 2.2 1.2 4.9 0.7 2.3-0.1 1.1-0.8 0.3-0.2 0.7 0 1.7 0.2 2.5 1.6 2.2 1.1 2.5 1.4 2.5 1.1 1.1 0.5 1-1.7-0.3-0.9 0.3-0.4 0.5 0.1 1.4 0.4 0.7 0.9 1.2 1.1 0.7 0.7 0.1 0.2 1.1-0.5 1-0.8 0.9-0.4 0-1.4-0.5-2.1-0.2-4.5 1.3-0.4 1.3 0.6 1.1 1.2 1.3 2.5 1.6 0.7 0.9-0.2 0.2-0.7 1.2 0.4 1 6.9 6 0.5 0.2 0.8-0.8 0.7-1.3 1 0.1 1.1 1 1.3 1.5 0.5 1 0.3 1.1 0.3 1.6 0.9 1.1 0.8 2.6 0.6 2.5-0.2 1.2-0.4 0.8 0.1 0.1 0.1 0 0.2 0 0.1 0.5-0.5 0.9-3.7 4.6 0.2 1.1 3.8 3.3 1 0.5 2.6 0.2 0.9 0.8-0.2 1.6-0.3 1.1-0.2 0.5-0.2 0.5 0.2 0.9 2.7 2.5-0.1 0.7-1.8 0.4-1.1 0.7-0.4 0.6-0.3 0.9 0.1 0.1 0.3 0.1 0.1 0-0.1 0.6-0.3 0.4-0.5 0.4-1 0.4-0.2 0.9 0.2 0.4 0.2 0.9 0.1 1.1 0 0.7 0.4 0.8 0.4 0.4-0.4 0.3-0.9 0-1-0.7-1-1.1-0.4-0.4-0.9-0.2-0.5 0.1-0.8 0.4-0.5 0.9 0.1 0.1 0.2 0 0.1 0.1-0.1 0.5-0.2 0.3-0.5 0.6-0.5 0.4-0.3 0.2-1-1-0.9 0.1-2.5 2-3.3 4.8 0.1 2.9 5.3 8.7-0.1 2-1 0.6-0.5 1.4 0 2-0.5 2.4 0.3-0.1 1.1 0.1 0.3 0.6 0 0.8-0.2 2.9 0.2 1.3 0.3 0.6 3.2 3.6 0.5 0.8 1.2 2.6 0.3 1 0 1.2-0.5 3.8-0.7 0.5-3.7-1.9-0.8 0.3-0.5 1.2-0.1 0.6 0 0.4-0.1 0.5-0.9 0.6-0.4 0.2-0.3-0.7-0.2-0.6 0.1-0.7 0.1-0.4-0.3-0.9-0.5-0.2-1.4 0.2-3.3 1.4-0.3 0.4-0.3 0-1-1.3-1.6-0.7-0.3-0.4-0.4-0.7 0-0.2 0.2-0.1 0.2-0.5 0.1-0.8 0.3-1 0.1-0.4-0.1-0.4-0.3-0.3-0.2-0.4-0.5-0.7-0.8 0.7-0.8-0.1-0.3-0.6-0.5-1.6-0.3-0.8-0.5-0.6-1.5-1.4-0.3 0.4-0.2 0.7-0.4 0.7-0.6 0.2-0.4-0.1-0.1-0.7 0.2-0.6 0.1-0.8-0.3-0.7-0.3-0.2-0.4 0.9-0.3 1-1 3-1.4 2.7-0.6 0.6-0.5 0 0.3-0.7-0.7-0.2-1.8-0.1-1 0.2-1.1 0.6-1.3 1.3-0.6 0.3-1.9-0.5-0.5 0.3-0.5 1.9-1 6.9-0.6 2.9-0.6 1.8-0.6 1.1-0.9 0.5-16.2 2.5-0.3-0.4-0.6-2.4-0.2-2.3-0.5-1.7-0.8-0.5-0.1-0.4 0.5-0.9-0.2-1.4-1.1-0.3-0.9 0.9-0.9 0.3-0.2-0.8-0.7-1.4-0.5-1.4 0.3-1.7 1.2-1.3 1.5 0.4 2.4 1.2 0.8-0.4 0-0.5 0.1-0.3 0.1-0.2 0.2-0.5-0.1-0.8-0.9-1.2-0.5-1-0.2-1.1 0.3-1.4 0.5-0.6 0.6 0.2 0.3 0.4 0.6 0.3 0.4-0.6-0.1-1.2-0.8-1.9-0.2-0.8 0.2-0.1 0.4-0.4-0.8-0.3-0.8-0.8-0.3-2.2 0.4-3.1 0.2-3.8-0.4-2.6-1.5-5.5-0.3-1.4-0.7-1.4-3.5 1.7-1.1 0.1-2.2-1.3-0.6-0.7 0-0.6-0.1-1.2 0.1-1.4 0-0.8-0.6-0.9-0.7-0.5-0.9-1.3-0.7-1.5-0.9-1.5-1.3-0.9-1.1 0-1.9 1-0.7 0.5 0.5 1.1-1 0.4-1.5-0.3-0.5-0.6-1.1-0.7-1.5-2.5-0.4-1.8-1.3-2-3.1-0.7-1.6-0.7-1.6-1.1-0.8-0.8-0.7-1.1-0.5-1.7-0.1-2.6 1.1-2.1 3.1-4.1 1.3-1.4 1.1-0.8 0.8-0.1 3.1 1.1 0.8-0.2 0.4-0.8-0.3-0.9 0-0.9 1.6-0.7 0.6 0.3 0.3 0.1 0.5 0.1 0.4 0.6 0.1 0.5 0.4 0.1 0.8-0.7 0.8-0.6 0.5-0.2 0.5-0.1 0.4-0.4-0.1-0.5 0-0.3 0.4-0.5 0.1-1.1 0.1-0.8 0.1-0.3 0-0.3-0.1-0.3 0-0.5 0.1 0 0.4 0.1 0.1-0.2-0.2-0.1-0.1-0.3 0-0.5 0.1-0.2 0.1-0.2 0.8-0.2 0.1-0.3-0.1-0.3-0.1-0.9-0.1-0.2-0.1-0.3 0-0.3 0.9 0.1 0.1-0.2 0-0.5-0.3-0.2-1 0.2-1.2-0.1-0.1-0.8 0.3-0.6 1.9-2-0.5-1.2-0.8-0.9-1.2-2.1-2.8-6.7-2.3-3.9 0-1.5 0.5-0.2 2.3-0.3 0.4-1.2-0.3-1-0.9-1.3-1.3-0.5-0.7 0-0.7-1.3 0-1.4-0.3-1.2-0.5-0.4-0.5-0.9-0.3-1.1-0.1-0.9 0-0.9 0-0.8-0.1-0.6-0.2 0-0.2 0.2-0.3-0.2-0.5-2.1 1.3-0.4 1-1 0.7-1.5 0.6-1.9 6.1-3.3 2.1 0.2 5.6 1.6 0.1-0.4 0-1.7 0.2-1.5 0.5-2.2 0.2-1.9-0.1-1.1 0-1.5 0.3-0.3 0.9-0.7 0.3-0.1-0.6-2.9 0-3.4 1-2.3 3.1-3.1 4.9-3.3z" id="FI08" name="Central Finland">
  </path>
  <path d="M400 766.5l-5-1.1-3.1-1.5-1.2 0.1-0.6 2.5-0.4 1.6-0.5 1.1-1.4 2-3.9 4.1-0.7 1-1.7 1.8-4 1.8-1.9 1.5-4.3 5.7-1.6 1.4-3.2 0.6-10.6-2.8-0.1-0.4-0.1-0.4-0.2-0.4-0.1-0.1 0.1-1.1 0.2-4.7 0.4-2.5 1.7-0.4 0.1-1-0.4-1-0.4-0.7-0.1-1.1 0.5-0.9 1.1-0.6 1.5-0.4 0.2-0.9-0.3-0.7-0.7-0.8-1-0.5-0.6-0.1-0.5-1 0-0.9 0-1.6-0.2-1.3-0.2-0.6-0.1-0.8 0.8-0.3-0.2-1.1-0.4-0.6-1.4-0.5-2.9 0.9 0-0.2 0.1-1-0.2-0.2-0.4 0-0.3-0.1-0.1-0.4 0.2-0.8 0.3-0.5 0.2-1.3 0-1.4-0.1-0.6 0.2-1.5 1.2-3.4 0.7-2.5 0.2-1.2 0.2-1.3-0.6 0-0.1-0.5-0.2-1.5 0-1.3 1.8-1.3 2-1.9 2.8-3.4 0.4-1.7-0.5-0.5-0.7-1.2-0.4-0.8-0.4-2 0-1.2 0.2-2.7 0.5-1.5 0.5-1.2 0.3-0.8 0.9-0.4 3 3.5 1.6 1.1 2.8 1.4 6.9 1.6 1.3-0.2 1.3-0.8 1.5-1.5 3.2-4.6 0.7-0.6 0.3-1.5 0-2.1 0.6-2.3 0.1-0.8 0.2-1.4 2.6-5.8 0.6-1 0.7-0.6 0.8-0.2-0.4-0.5-0.1-0.4 0.3-0.8 1.3-0.6 0.4 0 0.8 0.2 0.6-0.4 0.5-2 0-0.9-0.2-0.4 0.2-0.7 0.6-0.3 0.4-0.3 0.1-0.6 0-2.2-0.4-1.4-2.4 0.2-0.4 0.2-0.3 0 0.1-0.3 0.5-1.9-0.1-0.4-0.4 0.1-0.4 0.1 0-0.2 0.4-0.7 0.5-0.9 0-0.6-0.2 0-0.8-0.4-0.1-1.1 0.4-0.9 1.1-1.1 2-0.7 0.4-0.3-0.1-0.3-0.6-1.2 0.3-0.4 3.3-2-0.6-1 1.1-0.1 3.7 0.3 2.4 0.7 0.9 0.5 0.8-0.3 0-1.3 0.5-0.9 0.8-0.1 3.9 0.8 1.5-0.5 1.5-2.1 2.4-5 1.3-1.8 1.9-1.1 1.7-0.1 2 0.2 2.1 0.7 1.6 1.1 0.6 0.8 1 2.3 0.8 1.1 1.4 1.5 1.8 1.3 0.7 1.9 0.9 1.8 1 1.5 1.1 1.3 1.2 1 1.4 0.7 6.4 1.5 2.5 2 3.3 3.9 0.9 1.3-0.8 0.7-0.5 0.5-0.4 0.7 1.5 0 5.3 2.7-0.6 1.9-0.7 1.5-1 1-1.3 0.4 0.5 2.1 0.3 0.2 0.2-0.2 0.2 0 0.1 0.6 0 0.8 0 0.9 0.1 0.9 0.3 1.1 0.5 0.9 0.5 0.4 0.3 1.2 0 1.4 0.7 1.3 0.7 0 1.3 0.5 0.9 1.3 0.3 1-0.4 1.2-2.3 0.3-0.5 0.2 0 1.5 2.3 3.9 2.8 6.7 1.2 2.1 0.8 0.9 0.5 1.2-1.9 2-0.3 0.6 0.1 0.8 1.2 0.1 1-0.2 0.3 0.2 0 0.5-0.1 0.2-0.9-0.1 0 0.3 0.1 0.3 0.1 0.2 0.1 0.9 0.1 0.3-0.1 0.3-0.8 0.2-0.1 0.2-0.1 0.2 0 0.5 0.1 0.3 0.2 0.1-0.1 0.2-0.4-0.1-0.1 0 0 0.5 0.1 0.3 0 0.3-0.1 0.3-0.1 0.8-0.1 1.1-0.4 0.5 0 0.3 0.1 0.5-0.4 0.4-0.5 0.1-0.5 0.2-0.8 0.6-0.8 0.7-0.4-0.1-0.1-0.5-0.4-0.6-0.5-0.1-0.3-0.1-0.6-0.3-1.6 0.7 0 0.9 0.3 0.9-0.4 0.8-0.8 0.2-3.1-1.1-0.8 0.1-1.1 0.8-1.3 1.4-3.1 4.1-1.1 2.1-2.6-2.1-1-1.3-0.7-2.6 0.1-0.8 0.1-0.8 0.1-0.8-0.4-0.9-0.6-0.2-0.5 0.5-0.6 0.8-0.3 0.3-0.3 0 0.1-1.9-0.3-0.1-0.3 0.2-0.3 0.3 0 0.5 0 0.4-0.6 0.6-0.6 0.2-1.1 0.8-2.1 1.9-1.5 0.8-4.7 0.3-0.9 0.3 0.1 0.4 0.1 0.9 0.1 1.4-0.3 0.1-0.5-0.2-2.7-0.3-0.7-0.5-1.1-1.9-0.5-0.6-1.5-0.1-1 1-1.7 3.6-2.8 3.4-4 2.3-4.3 1.2-3.9 0.3z" id="FI03" name="Southern Ostrobothnia">
  </path>
  <path d="M413.3 865.5l-1-0.6-0.8-1-1-0.8-1.6-0.2-1.7 0.3-0.9 0-0.5-0.2-0.9-1-0.1-0.9 0.3-0.6 0.5-0.3 0.4-0.1 0-0.6-0.4-0.3-1.8 0.3-0.4 0-0.3-0.8 0.3-0.4 0.5-0.6 0.9-0.9-0.2-0.5-0.4-0.3-0.7-0.9-0.4-1.3-0.1-0.9 0.1-1 1 0-0.2-1.5-0.7-1.1-2.1-1.5-4.5-1-2.4 0.2-0.7-0.3-0.5-0.5-0.1-0.7-0.1-0.6-0.3-0.7-2-3-0.3-0.6-0.1-0.7 0.7-0.5 0-0.5-0.2-0.5-0.7-2.7 0.2-0.6 1.1 0.2 1 0.4 0.5-0.2 0.1-0.4 0.2-0.5 0.3-0.2 0.4-0.1 0.2-0.3-0.1-0.7 0-0.1-0.1-0.2 0.3-0.3 1.8-0.4 0.1-0.4-0.1-0.4-0.2-0.8 0.1-0.9 0.1-0.5-0.9-0.7-1-0.4-1.2-1.2-1.5-2.5 0-1.6 2.3-2.3 0.9-2-0.2-1.3 0.1-0.4 0.8-0.1 0.6-1.3-0.2-1.5-0.5-0.6-0.7 0.7-0.3 0.6-0.4 0.3-0.3-0.8-0.1-0.8 0.1-0.7 0.1-0.3 0.6-1.5 0.7-1.9 0.7-1.1 0.8-0.7 1.4-0.8 1.2-1.3 0.6-1.3 0-1.9-1.2-1.5-0.8-0.6-0.9-0.4 0-0.4 0.2-0.3 1.3-0.4 0-0.6-1.1-0.6-0.5-0.8-0.1-0.8-0.6-0.9-0.5-0.2-1-0.5-0.7-1.1-0.2-1-0.6-1.3-3.4-1.9 0-0.9 1.6-2 1.3-1 1.4-0.7 2.4-0.1 0.8-0.5 0.8-0.8 0.1-0.3-0.1-0.6 0-1.4 0-1-0.2-1-0.1-1.1 0.1-1.2 0.7-0.6 1.5-0.1 0.8-0.2 0.2-0.8-0.6-5.6 0-2.2 3.9-0.3 4.3-1.2 4-2.3 2.8-3.4 1.7-3.6 1-1 1.5 0.1 0.5 0.6 1.1 1.9 0.7 0.5 2.7 0.3 0.5 0.2 0.3-0.1-0.1-1.4-0.1-0.9-0.1-0.4 0.9-0.3 4.7-0.3 1.5-0.8 2.1-1.9 1.1-0.8 0.6-0.2 0.6-0.6 0-0.4 0-0.5 0.3-0.3 0.3-0.2 0.3 0.1-0.1 1.9 0.3 0 0.3-0.3 0.6-0.8 0.5-0.5 0.6 0.2 0.4 0.9-0.1 0.8-0.1 0.8-0.1 0.8 0.7 2.6 1 1.3 2.6 2.1 0.1 2.6 0.5 1.7 0.7 1.1 0.8 0.8 1.6 1.1 1.6 0.7 3.1 0.7 1.3 2 0.4 1.8 1.5 2.5 1.1 0.7 0.5 0.6 1.5 0.3 1-0.4-0.5-1.1 0.7-0.5 1.9-1 1.1 0 1.3 0.9 0.9 1.5 0.7 1.5 0.9 1.3 0.7 0.5 0.6 0.9 0 0.8-0.1 1.4 0.1 1.2 0 0.6 0.6 0.7 2.2 1.3 1.1-0.1 3.5-1.7 0.7 1.4 0.3 1.4 1.5 5.5 0.4 2.6-0.2 3.8-0.4 3.1 0.3 2.2 0.8 0.8 0.8 0.3-0.4 0.4-0.2 0.1 0.2 0.8 0.8 1.9 0.1 1.2-0.4 0.6-0.6-0.3-0.3-0.4-0.6-0.2-0.5 0.6-0.3 1.4 0.2 1.1 0.5 1 0.9 1.2 0.1 0.8-0.2 0.5-0.1 0.2-0.1 0.3 0 0.5-0.8 0.4-2.4-1.2-1.5-0.4-1.2 1.3-0.3 1.7 0.5 1.4 0.7 1.4 0.2 0.8 0.9-0.3 0.9-0.9 1.1 0.3 0.2 1.4-0.5 0.9 0.1 0.4 0.8 0.5 0.5 1.7 0.2 2.3 0.6 2.4-3.2-1.4-0.4 0.7 0.2 0.9 0.5 1.4 0.6 1.1 0.3 1 0 1.8-0.2 1.8 0.1 1.7 0.6 1.4-0.5 0.4-0.3 0.6-0.2 0.8 0.1 0.4-0.4 0.7-2.9 1.3-0.9-0.1-0.5-0.7-0.9-2-0.2-0.5-0.4 0.9-0.4 1.1-1 0.8-1.2-0.4-2.6-1.2-1.2-0.1-1.3 0.4-5.1 3.6-1.3 0.4-2.4 0.1-0.4 0.4-0.1 1.3 0.3 0.8 0.5 0.6 0.2 0.1-0.4 0.9-2 2-1.5 0.8-1.9 0.7 0 0.2 0.2 0.8-1.9-0.3-2.1 0.6-3.7 2.2-5 1.3-0.7 0.6-0.4 0.8 1.2 0.4 0.1 0.3 0 0.3-0.2 0.9-0.1 0.3 0.3 0.1 1.9-0.6 0.4 0 0.5 0.6-0.3 0.8-0.7 0.6-1 0.7 0.1 0.4 0.3 0.3 0.6 0.8 0.4 1 0.1 0.6-0.5 1-0.6-0.3-2.1-3.3-2.1-0.7-0.6-0.4-1.6 0.3-2.9 1.4-4.1 0-0.6 0.2 0.1 0.3 0.3 1.1-1.2-0.4-3.5-2.8-2.4-1-2.9 1.5z" id="FI11" name="Pirkanmaa">
  </path>
  <path d="M484 879.2l0.3 1.1 0.4 0.7 0.8 0.8 0.3 0.6 0 0.4-0.7 0.4-0.6 0.2-1 0.6-0.7 1-0.4 0.7-0.2 1 0.1 0.3 1.4-1.1 0.9-0.2 1.8 0.5 0.3 0.3-2.9 1.4-0.4 0.5 0.4 2 0.2 0.4-0.5 0.2-2.5-1.1-1.2-0.1-1.2 0.2-1.9 0.9-6 0.8-5.1-0.5-0.7 0.5-0.7 1.4-0.2 1.4 0.1 2.1-0.2 0.9-1.5 1.4-2.3 0.5-1.8-0.8-0.3-1.1-0.3-1.4-0.6-0.2-1.5-0.2-1.2 0.6-0.2 0.9 0 1-0.7 0.2-1.2-2.4-0.6-0.7-1.6-1-9.1-2.5-1.8 0.3-4.9-0.2-2.3-0.7-1.9-2.1-3-0.7-1.6-1.1-0.6-1-1.3-1.6-0.9 0.2-3.5 1.3-1.8 0.3-1.5-0.4-1.3-0.8-2.1-1.9-0.5-1.2 0.2-0.6 0.6-1.1 0.7-0.8 0.5-0.5-0.2-0.7-1.7-0.4-0.9-0.9-0.1-1.9 0.7-1.5 1.3-0.3 2.2 0.3 0.6-0.2-0.1-0.2-0.3-1.2 0-0.2 0.3-0.1 0.4 0 0.5-0.5 0.2-1.1 0-0.8-0.6-0.8-0.5-0.3-0.9-0.8-1.6-2.1 2.9-1.5 2.4 1 3.5 2.8 1.2 0.4-0.3-1.1-0.1-0.3 0.6-0.2 4.1 0 2.9-1.4 1.6-0.3 0.6 0.4 2.1 0.7 2.1 3.3 0.6 0.3 0.5-1-0.1-0.6-0.4-1-0.6-0.8-0.3-0.3-0.1-0.4 1-0.7 0.7-0.6 0.3-0.8-0.5-0.6-0.4 0-1.9 0.6-0.3-0.1 0.1-0.3 0.2-0.9 0-0.3-0.1-0.3-1.2-0.4 0.4-0.8 0.7-0.6 5-1.3 3.7-2.2 2.1-0.6 1.9 0.3-0.2-0.8 0-0.2 1.9-0.7 1.5-0.8 2-2 0.4-0.9-0.2-0.1-0.5-0.6-0.3-0.8 0.1-1.3 0.4-0.4 2.4-0.1 1.3-0.4 5.1-3.6 1.3-0.4 1.2 0.1 2.6 1.2 1.2 0.4 1-0.8 0.4-1.1 0.4-0.9 0.2 0.5 0.9 2 0.5 0.7 0.9 0.1 2.9-1.3 0.4-0.7-0.1-0.4 0.2-0.8 0.3-0.6 0.5-0.4 0 0.8 0.2 1.5 0.5 0.3 0.5 0.1 0.8 0.4 0.7 0.2 0.5-0.2 0.5 0.5 0.1 0.9 0.5 0.7 1.6 0.1 4.1 1 0.7 0.9 0.1 0.7 0.5 1.1 1.1 1 0.3 0.8 0 0.6-0.1 0.8-0.3 0.7-0.2 0.4-0.2 0.8 0.1 0.4 0 0.4 0 0.6 0.9 0.5 0.8 0.8 0 2.1-1.3 3.6-0.6 1.1-0.2 0-0.3 0.1-0.5 0.2 0.1 0.2 0.6 0.4 0.6 0.7 0.2 0.3 0.2 0.5 0 0.5-0.7 0.5-0.6 0.5-1.1 1.1-0.9 1.4-0.9 1.6-1.6 4.1-0.4 0.6-0.1 0.7 0.1 0.7 0.2 0.6 0.1 0 0.3 0 0.2 0.1z" id="FI06" name="Tavastia Proper">
  </path>
  <path d="M536 844.5l-1.8 0.6-0.9 0.5-0.3 0.4-0.6 2.7-0.8 1.5-3.5 3.4-3.8 1.7-1.2-0.2-1.3-1.2-1.7 1-0.9 1.3-0.3 1.1 0.2 1.3 0.4 0.2 0.6 0.4 0.4 0.5 0.5 0.7 0.2 0.7 0.1 0.8 0.3 0.8 0.2 0.3 0.2 0.6-0.6 2.4-0.3 0.6-0.6 0.3-1.4-0.3-0.4 0.1-0.1 2.2 1.2 1.2 2.6 0.7 0.5 0.8-0.3 0.6-0.6 1-0.4 1-0.1 0.7-0.1 0.6-0.3 0.1-0.5 0.4-0.5 0.7 0 1.1 0.3 0.6 2.3 0.3 0.9 0.8 0.7 1.2 0.4 1.6 0.2 1.8 0.1 0.5 0.1 0.5 0 0.5 0.2 0.1-0.4 1.4-0.7 0.9-0.8 0.5-1.8 0.2-3.4-0.9-2.1 0.1-1-0.3-0.6-0.5-0.4-0.6-0.4-0.5-0.9-0.3-10.2 3.4-1.5 0-1.8-1.2 0-2-0.5-2-0.6-1.7-0.7-0.9-1.2 0-2.5 2.1-1.6 0.5-1-0.4-0.9-0.8-1.9-2.5-0.5-0.7-0.2-0.7-0.1-0.2-0.5-0.2-3.1 0.8-0.2-0.1-0.3 0-0.1 0-0.2-0.6-0.1-0.7 0.1-0.7 0.4-0.6 1.6-4.1 0.9-1.6 0.9-1.4 1.1-1.1 0.6-0.5 0.7-0.5 0-0.5-0.2-0.5-0.2-0.3-0.6-0.7-0.6-0.4-0.1-0.2 0.5-0.2 0.3-0.1 0.2 0 0.6-1.1 1.3-3.6 0-2.1-0.8-0.8-0.9-0.5 0-0.6 0-0.4-0.1-0.4 0.2-0.8 0.2-0.4 0.3-0.7 0.1-0.8 0-0.6-0.3-0.8-1.1-1-0.5-1.1-0.1-0.7-0.7-0.9-4.1-1-1.6-0.1-0.5-0.7-0.1-0.9-0.5-0.5-0.5 0.2-0.7-0.2-0.8-0.4-0.5-0.1-0.5-0.3-0.2-1.5 0-0.8-0.6-1.4-0.1-1.7 0.2-1.8 0-1.8-0.3-1-0.6-1.1-0.5-1.4-0.2-0.9 0.4-0.7 3.2 1.4 0.3 0.4 16.2-2.5 0.9-0.5 0.6-1.1 0.6-1.8 0.6-2.9 1-6.9 0.5-1.9 0.5-0.3 1.9 0.5 0.6-0.3 1.3-1.3 1.1-0.6 1-0.2 1.8 0.1 0.7 0.2-0.3 0.7 0.5 0 0.6-0.6 1.4-2.7 1-3 0.3-1 0.4-0.9 0.3 0.2 0.3 0.7-0.1 0.8-0.2 0.6 0.1 0.7 0.4 0.1 0.6-0.2 0.4-0.7 0.2-0.7 0.3-0.4 1.5 1.4 0.5 0.6 0.3 0.8 0.5 1.6 0.3 0.6 0.8 0.1 0.8-0.7 0.5 0.7 0.2 0.4 0.3 0.3 0.1 0.4-0.1 0.4-0.3 1-0.1 0.8-0.2 0.5-0.2 0.1 0 0.2 0.4 0.7 0.3 0.4 1.6 0.7 1 1.3 0.3 0 0.3-0.4 3.3-1.4 1.4-0.2 0.5 0.2 0.3 0.9-0.1 0.4-0.1 0.7 0.2 0.6 0.3 0.7 0 0.8 0 1.3 0 0.3-0.1 0.3-1.3-0.3-0.1 0.3 0.2 0.5 0.2 0.8 0.1 1 0 0.8-0.1 0.6-0.1 0-0.4 0.3-0.4 0.6-0.2 0.9 0.1 0.3 0.5 0.7 0.2 0.3 0.1 0.5-0.2 0.7-0.7 1.8-0.1 0.5 0.3 1.1 0.7 0.9 1.1 0.9 0.2 0.4-0.2 0.3-0.4 0.6-0.4 1.1 0.4 0.4 0.5 0.3 2 2.1 1.2 0.8 2.8 1 0.7 0.9 0.6 2z" id="FI16" name="Päijät-Häme">
  </path>
 </g>
 <g id="points">
  <circle class="60.32442881661916|20.11601073543571" cx="299.3" cy="916.5" id="0">
  </circle>
  <circle class="64.43006315150092|26.14417603824181" cx="522.3" cy="588.3" id="1">
  </circle>
  <circle class="69.56210607010311|30.966708280486685" cx="700.7" cy="100.5" id="2">
  </circle>
 </g>
 <g id="label_points">
  <circle class="Åland" cx="292.7" cy="930.3" id="FI01">
  </circle>
  <circle class="Lapland" cx="546.6" cy="298.8" id="FI10">
  </circle>
  <circle class="Northern Ostrobothnia" cx="530.5" cy="528.9" id="FI14">
  </circle>
  <circle class="Kainuu" cx="612.9" cy="574.8" id="FI05">
  </circle>
  <circle class="North Karelia" cx="666.4" cy="726.5" id="FI13">
  </circle>
  <circle class="South Karelia" cx="594.5" cy="861.8" id="FI02">
  </circle>
  <circle class="Kymenlaakso" cx="549.4" cy="875.3" id="FI09">
  </circle>
  <circle class="Uusimaa" cx="473.4" cy="908.9" id="FI18">
  </circle>
  <circle class="Finland Proper" cx="400.5" cy="893.7" id="FI19">
  </circle>
  <circle class="Satakunta" cx="374.8" cy="822.9" id="FI17">
  </circle>
  <circle class="Ostrobothnia" cx="375.2" cy="708" id="FI12">
  </circle>
  <circle class="Central Ostrobothnia" cx="448.4" cy="659.3" id="FI07">
  </circle>
  <circle class="Northern Savonia" cx="572.3" cy="690.4" id="FI15">
  </circle>
  <circle class="Southern Savonia" cx="585" cy="801.9" id="FI04">
  </circle>
  <circle class="Central Finland" cx="496.4" cy="746.4" id="FI08">
  </circle>
  <circle class="Southern Ostrobothnia" cx="408.1" cy="721.8" id="FI03">
  </circle>
  <circle class="Pirkanmaa" cx="433" cy="809.9" id="FI11">
  </circle>
  <circle class="Tavastia Proper" cx="459.3" cy="872.3" id="FI06">
  </circle>
  <circle class="Päijät-Häme" cx="504.6" cy="853" id="FI16">
  </circle>
 </g>
</svg>