<?xml version="1.0"?>
    
<!--********* Copyright (c) 2024 Pareto Softare, LLC DBA Simplemaps.com ***************************************
************* Free for Commercial Use, full terms at  https://simplemaps.com/resources/svg-license ************
************* Attribution is appreciated! https://simplemaps.com *******************************************-->

<svg baseprofile="tiny" fill="#6f9c76" height="30" stroke="#ffffff" stroke-linecap="round" stroke-linejoin="round" stroke-width=".5" version="1.2" viewbox="0 0 1000 30" width="1000" xmlns="http://www.w3.org/2000/svg">
 <g id="features">
  <path d="M3.9 20.5l0 0.1 0.1 0 0 0.1 0.1-0.1 0 0.1-0.1 0-0.1-0.1 0-0.1 0.1 0-0.1 0z m-1-0.4l0-0.1 0.1 0 0 0.1-0.1 0z m-2.5 0l0-0.1 0.1 0 0.1 0.1-0.1 0 0-0.1-0.1 0.1 0 0.1 0-0.1z m3-2.3l0.1 0.1 0 0.1-0.1 0-0.1 0 0-0.1-0.1 0 0.1-0.1 0.1 0z m-0.8-0.7l0.1 0.1 0 0.1-0.1 0 0-0.1 0-0.1z m2.1-0.2l0.1 0 0 0.1 0.1 0 0 0.1-0.1 0-0.1 0-0.1 0 0-0.1 0-0.1 0.1 0z m-1.8-2l0.1 0 0 0.1 0 0.1-0.1 0-0.1 0.1 0 0.1 0-0.1 0-0.1 0.1 0-0.1-0.1 0.1 0 0-0.1-0.1 0-0.1 0 0-0.1 0.1 0 0 0.1 0.1 0z m996.5 5.6l0 0.1 0 0.1 0.1 0-0.1 0-0.1 0.1 0-0.1 0.1 0 0-0.1-0.1 0 0.1-0.1z m-3.8-0.4l0.1 0 0.1 0 0 0.1 0 0.1-0.1 0-0.1-0.1 0 0.1-0.1 0-0.1 0 0-0.1 0 0.1-0.1-0.1 0.1 0-0.1 0-0.1 0-0.1 0.1-0.1 0 0 0.1-0.1 0 0 0.1 0.1 0 0 0.1-0.1 0 0-0.1 0 0.1-0.1 0-0.1 0-0.1 0-0.1 0-0.1 0-0.1 0 0.1-0.1 0.1 0 0-0.1 0.1 0 0.2 0 0-0.1 0.1 0 0-0.1 0.1-0.1 0.1 0 0.1 0 0.1 0 0-0.1 0.1 0 0.1 0 0.1 0 0 0.1z m0.3-0.3l0 0.1 0 0.1-0.1 0 0-0.1 0-0.1 0.1 0z m3.9-0.9l0.1 0-0.1 0.1-0.1 0 0 0.1 0.1-0.1 0 0.1-0.1 0 0 0.1-0.1-0.1 0-0.1-0.1 0 0.1 0 0.1-0.1 0.1 0z m-1.6-1.6l0 0.2 0 0.1-0.1 0 0-0.1 0-0.1-0.1 0 0-0.1 0 0.1-0.1 0 0-0.1 0-0.1 0-0.1 0.1 0 0.1 0 0.1 0.1 0 0.1z m0.2-0.6l0 0.1-0.1-0.1 0-0.1 0.1 0 0 0.1z m-1.9-0.2l0.1 0.1-0.1 0-0.1-0.1 0-0.1 0.1 0.1z m0.1-0.3l0.1-0.1 0 0.1 0.1 0.1 0 0.1-0.1 0 0 0.1-0.1 0-0.1-0.1 0-0.1 0-0.1 0.1 0z m0.6 0l0-0.1 0.1 0 0 0.1 0 0.1 0-0.1-0.1 0z m1.3-1l0 0.1-0.1 0.1-0.1 0.1 0-0.2 0-0.1-0.1 0 0.1-0.1 0.1 0 0-0.1 0.1 0.1 0 0.1z m-994.1 5.5l0-0.1 0.1 0 0 0.1-0.1 0z m-0.3-1.5l0-0.1 0.1 0 0 0.1-0.1 0z m-2.2-2.6l-0.1 0 0-0.1 0.1 0 0-0.1 0.1 0.1 0 0.1-0.1 0z m0.4-0.9l0-0.1 0.1 0 0 0.1-0.1 0z m0-0.6l0.1 0 0 0.1-0.1-0.1z" id="FJE" name="Eastern">
  </path>
  <path d="M993.5 18.7l0 0.1 0 0.2-0.1-0.1 0-0.1 0-0.1 0.1 0z m0.3-0.8l-0.2-0.1-0.1 0-0.2-0.1-0.1 0.1 0-0.1-0.1 0-0.1 0-0.1 0-0.2-0.1-0.1 0-0.1-0.1 0-0.1 0-0.1-0.1 0 0-0.1 0-0.1 0-0.1 0-0.1 0-0.1 0.1 0 0.1 0 0.1 0 0-0.1 0-0.1 0-0.1 0.1 0.1 0.1-0.1 0-0.1-0.1 0 0-0.1-0.1-0.1 0.1 0 0.1-0.1 0.1 0 0-0.1 0-0.1 0 0.1 0.1 0 0-0.1 0-0.1 0.1 0 0.1-0.1 0.1 0 0-0.1 0.1 0 0 0.1 0 0.1 0-0.1 0-0.1 0.1 0 0.1 0 0.1 0 0-0.1 0.1 0 0-0.1 0.1 0 0 0.1-0.1 0.1 0.1 0 0-0.1 0.1 0 0.1 0 0.1 0 0.1 0 0.1 0 0-0.1 0.1 0 0.1 0 0.1 0 0.1 0 0-0.1 0.1-0.1 0.1 0.1 0.1 0 0 0.1 0 0.1 0 0.1-0.1 0 0.1 0.1-0.1 0 0.1 0 0-0.1 0.1 0 0.1 0 0.1 0.1 0 0.1 0.1 0.1 0.1 0 0 0.1 0 0.1 0 0.1-0.1 0.1-0.1 0 0-0.1-0.1 0-0.1 0-0.1 0 0 0.1-0.1 0-0.1 0-0.1 0-0.1 0-0.1-0.1-0.1-0.1 0-0.1-0.1 0 0 0.1 0 0.1 0 0.1 0 0.2 0.1-0.1 0.1-0.1 0 0.1 0 0.1-0.1 0-0.1 0.1-0.1 0.1 0 0.1 0 0.1 0 0.1 0 0.1 0.1 0-0.1 0.1-0.1 0.1-0.2-0.1-0.1 0-0.1 0 0 0.1-0.1 0.1 0 0.1 0 0.1 0.1 0 0.1 0-0.1 0.1 0 0.1 0 0.1-0.1 0z m-1.9-2.8l0.1 0 0.1 0-0.1 0.1-0.1 0 0.1-0.1-0.1 0z m0.5-0.5l0.1-0.1 0 0.1-0.1 0 0 0.1-0.1 0 0 0.1 0-0.1 0 0.1-0.1 0 0-0.1 0-0.1 0.1 0 0-0.1 0.1 0 0 0.1z m0.5-0.6l-0.1 0 0 0.1 0 0.1 0-0.1-0.1 0 0-0.1 0.1 0 0-0.1 0.1 0 0 0.1z m0.3-0.6l0.1 0 0 0.1 0 0.1-0.1 0-0.2 0.2 0 0.1-0.1 0 0-0.1 0 0.1 0-0.1 0-0.1 0 0.1 0.1 0 0.1-0.2 0.1-0.1 0.1 0-0.1-0.1z m-8.2 14.8l0-0.1 0.1 0 0 0.1-0.1 0z" id="FJW" name="Western">
  </path>
  <path d="M994.8 18.3l0.1 0 0 0.1-0.1 0.1-0.1-0.1 0.1 0 0-0.1z m-1-0.4l0.1 0 0-0.1 0-0.1 0.1-0.1-0.1 0-0.1 0 0-0.1 0-0.1 0.1-0.1 0-0.1 0.1 0 0.1 0 0.2 0.1 0.1-0.1 0.1-0.1-0.1 0 0-0.1 0-0.1 0-0.1 0-0.1 0.1-0.1 0.1-0.1 0.1 0 0-0.1 0-0.1-0.1 0.1-0.1 0.1 0-0.2 0-0.1 0-0.1 0-0.1 0.1 0 0 0.1 0.1 0.1 0.1 0.1 0.1 0 0.1 0 0.1 0 0.1 0 0-0.1 0.1 0 0.1 0 0.1 0 0 0.1 0.1 0 0.1-0.1 0-0.1 0-0.1 0-0.1 0.1 0.1 0.1 0.1 0.1 0 0.1 0.1 0 0.1 0 0.1-0.1 0.1 0 0.1 0.1 0 0 0.1 0 0.1 0.1-0.1 0 0.1 0 0.1-0.1 0.1 0 0.1 0.1 0.1 0.1 0 0 0.1 0.1 0 0-0.1 0 0.1 0 0.1-0.1 0.1-0.2 0.1 0 0.1 0-0.1-0.1 0 0-0.1-0.1 0-0.1 0.1 0 0.1-0.1 0 0-0.1-0.1 0-0.1 0-0.1 0-0.1 0 0 0.1-0.1 0 0 0.1-0.1 0-0.1 0 0 0.1-0.1 0.1-0.1 0-0.2 0-0.1 0-0.1 0-0.1 0-0.1 0 0 0.1-0.1-0.1-0.1 0 0-0.1-0.2 0z" id="FJC" name="Central">
  </path>
  <path d="M995.4 13.7l0 0.1-0.1 0 0 0.1-0.1-0.1 0-0.1 0.1 0 0.1 0z m4.4-0.4l-0.1 0 0.1 0 0-0.1 0.1 0 0 0.1-0.1 0z m-3.7-0.2l0.1 0-0.1 0.1-0.1 0 0-0.1 0.1 0z m3.9-1.2l-0.2 0.2-0.1 0 0 0.1-0.1 0 0 0.1 0 0.1-0.2 0.1 0 0.1-0.1 0.1 0 0.1-0.1 0-0.1 0-0.2 0.2-0.1 0.1 0 0.1 0 0.1-0.1 0 0 0.1-0.1 0 0 0.1 0 0.1 0 0.1 0-0.1 0.1 0 0 0.1 0.1-0.1 0.1-0.1 0.1 0 0-0.1 0.1 0 0-0.1 0.1 0 0-0.1 0.1 0 0-0.1 0.1 0 0.1-0.1 0.1-0.1 0.1-0.1 0.1 0 0.1 0.1-0.1 0 0 0.1-0.1 0.2 0 0.1-0.1 0 0 0.1 0.1 0 0 0.1 0.1 0 0.1 0.1-0.1 0-0.1 0 0.1 0.1-0.1 0 0-0.1 0 0.1-0.1 0 0-0.1-0.1 0 0-0.1-0.1 0-0.1 0-0.1 0 0 0.1-0.1 0-0.1 0 0 0.1-0.1 0-0.1 0.1 0-0.1-0.1 0-0.1 0.1-0.1 0-0.1 0-0.1 0-0.3 0 0.1 0 0-0.1 0.1 0 0-0.1 0-0.1-0.1 0-0.1 0 0-0.1-0.1 0.1-0.2 0-0.1 0.1 0 0.1-0.1 0.1-0.1 0-0.1 0 0 0.2 0.1 0-0.1 0.1-0.1 0-0.1 0 0-0.1-0.1 0 0-0.1 0 0.1-0.1-0.1-0.1 0.1-0.1 0.1 0 0.1-0.1 0 0 0.1 0.1 0-0.1 0 0 0.1-0.1 0-0.1 0 0-0.1-0.1-0.1 0-0.1 0-0.1-0.1-0.1 0-0.1-0.1-0.1-0.2 0.1-0.1-0.1 0-0.1 0 0.1 0-0.1 0.1 0 0-0.1 0.1 0 0-0.1 0.1 0 0-0.1-0.1 0.1 0-0.1-0.1 0 0.1-0.1 0.1 0 0 0.1 0.1 0 0.1 0 0 0.1 0.1 0 0-0.1 0.2-0.1 0.1 0 0 0.1 0-0.1 0-0.1 0.1-0.1 0 0.1 0.1 0 0-0.1 0.1 0 0-0.1 0-0.1 0.1 0 0.1 0 0.2 0 0.1-0.1 0.1 0 0.1 0 0-0.1 0.1 0 0.1 0 0.1 0 0.1 0 0.1 0 0.1 0 0-0.1 0.1 0 0-0.1 0.1-0.1 0 0.1 0-0.1 0-0.1 0.1 0 0.1 0 0.1 0 0-0.1 0.1 0.1 0-0.1 0.1 0.1 0-0.1 0.1 0 0.1 0 0-0.1 0.1 0 0.1 0 0 0.1 0.1-0.1 0.1 0 0 0.1-0.1 0 0.1 0 0.1-0.1 0.1 0 0.2-0.1-1000 0 1000 0z" id="FJN" name="Northern">
  </path>
  <path d="M992 1.4l-0.1 0.1-0.1-0.1-0.1 0 0.1 0 0-0.1 0.1 0.1 0.1 0z" id="FJR" name="Rotuma">
  </path>
 </g>
 <g id="points">
  <circle class="-21.249322202367587|-161.9999999987313" cx="50" cy="26.8" id="0">
  </circle>
  <circle class="-17.554986278985844|18.000000000553435" cx="550" cy="16" id="1">
  </circle>
  <circle class="-12.937066374758665|161.99999999998124" cx="950" cy="2.7" id="2">
  </circle>
 </g>
 <g id="label_points">
  <circle class="Eastern" cx="995.1" cy="20.2" id="FJE">
  </circle>
  <circle class="Western" cx="993.6" cy="16.6" id="FJW">
  </circle>
  <circle class="Central" cx="995.1" cy="17" id="FJC">
  </circle>
  <circle class="Northern" cx="733.2" cy="11.9" id="FJN">
  </circle>
  <circle class="Rotuma" cx="991.9" cy="1.4" id="FJR">
  </circle>
 </g>
</svg>