<?xml version="1.0"?>
    
<!--********* Copyright (c) 2024 Pareto Softare, LLC DBA Simplemaps.com ***************************************
************* Free for Commercial Use, full terms at  https://simplemaps.com/resources/svg-license ************
************* Attribution is appreciated! https://simplemaps.com *******************************************-->

<svg baseprofile="tiny" fill="#6f9c76" height="621" stroke="#ffffff" stroke-linecap="round" stroke-linejoin="round" stroke-width=".5" version="1.2" viewbox="0 0 1000 621" width="1000" xmlns="http://www.w3.org/2000/svg">
 <g id="features">
  <path d="M457.3 510.5l4.5 3.1-0.6 5.6-3.6 5.5-4.5 2.4-2.2 0.6-2.6 1.5-2.2 2.3-2 6.3-2.4-0.2-2.1-3-0.2-5-0.1-0.7-0.2-0.6-0.3-0.6-0.5-0.6 2.7-3.1 2.4-5.4 1.1-6.7-0.9-7.4-3.1-5.3-4.1-2.6-3.6-3.3-1.4-7.1 1.1-7.8 2.7 3.4 4 11.4 12.5-1.4 5.4 1.4 3.9 5.4-1.2 2-1.1 2.8-0.8 3.4-0.6 3.7z m-380.3-161.2l-2.8 0.9-7.6 5 0 2.5 2.3 1.4 2.6 0.4 2.7-0.5 2.8-1.3-6 10.1-8.8 0-9.3-6.5-7.4-8.9 1.2-1.3 1.3-0.9 2.7-0.9 2.2 1.1 5.5 1.6 4.2 4.2 1.1-1.7 1-5.2 0.8-2 0.5-2.8 1.1-2.6 2.7-1 2.2 0.6 1.9 1.6 1.6 2.7 1.5 3.5z m62.5 53.6l-7.4 2.4-5.1-0.2-11.9-5 1-4.1 0.7-1.5-3.7-0.1-1.5-2.7-0.8-3.3-1.1-2.4-2.5-1-5.4-0.6-2.5-1.2-0.9-1-0.6-1-0.7-0.8-1.3 0 2-9-1.7-5.9-4-3.4-4.8-1.4 4.5-5.4 3.4-2.4 4.1-0.6 10.3 0.2 1.5-0.4 3.1-6.9 4.8-7.6 2.9-3 3.7-1.9 1.2-0.2 2.7 0 1.1 0.2 2 1.4 0.7 1.6 0.2 1.4 0.6 1 5.2 2.6 2.1 3-1.1 4.3-4.8 4.1-12.4 7.3-4.6 7-0.6 3.4 1.3 0.9 18.4-6.3 7.7-7.1 5-2.8 4.1-4.3 2.4-9.3-1.1-3.4-2.5-1.3-1.1-1.7 2.8-4.8 3.2-3 2.9-0.4 1.9 2.4 0.8 5.4-0.5 3.6-1.2 4.2-1.4 3.7-1.3 2.4-1.4 3.8-0.6 10-0.5 4.6-1.6 4.8-5.5 12 10.5 0-2 3.8-1.7 7.5-1.6 3-3.6 2.6-11.8 2.8z m-81.9-109.6l5.4-0.1 9.1 4.4 4.9 1.1-4.4 2.6-10-0.6-4.1 2.3-1.9 4.1-0.8 4.8 0 12.2-3.1-1.2-3.2-2-2.6-3.2-1.4-4.8 1.5-8.2 2-5.4 3.1-3.6 5.5-2.4z m415.5 25l-6.9 8.3-16.8 15.4-26.8 39.3-5.1 10.6-2.4 6.4-2.7 5.2-3.9 3.6-11.2 3-16.2 12.2-1.9-12.1-0.8-1.7-6.4-1-3.4-1.2-1.5-1.9-1.1-4.5-2.5 0.2-2.6 2.2-1.6 2.1-0.6 4.3 3 8.4-0.7 3.9-5 3-21.9-1.7-5.9 3.3-3 0.4-1.5-3.7 0.8-2.5 4.6-4.9 1.5-3.4-16.7 7-4.1 3.8-2.7 7.5 1.5 6.3 2.9 6.9 1.6 9.2-1.3 6.2-3.1 5.1-20.3 24.4-3 2.5-5.6-0.3-7.9-5.8-5.5 0.5 1 0.6 0.3 2.1-0.1 2.6-0.5 1.7-1.7 1.1-1.7-1.7-1.8-2.3-4.2-3.1-4.7-7.7-1.5-1.8-3-1.1-4.9-4.5-3.4 0-1.5 1.7-0.5 2.9 0.8 2.7 6.8 3.4 3.9 5.7 2.7 7.3 1.7 7.3-10.4 12.5-14.2 8.1-13.7-1.5-8.8-16.3 3.3 0.4 2.5 0.9 2.3 0.3 2.6-1.6-4.7-3.7-6.3-7.1-5.6-8-2.6-6.5 1.9-1.3 3.4-4 1.4-4.3-4-2-25.6-1.1-3.2 1.1-2.1 3 1.5 1.8 3.3 0.9 3.2 0.2 5.2 2.5 5.7 6.2 4.9 7.5 2.5 6.6-14.7 0-4.2-0.7-2.1-2-1.3-2.9-11.5-15.8-3-2.9-3.3-0.5-3.4 0.1-3.4-0.9-4.5-4.4-8.3-11.7-4.5-3.7-11.7-2.6-3.9-4.6 1.7-9.9 2.7-4.1 6.3 1.4 13.7 5.8 11 0.8 2.7 1.8 1.1 4-0.1 4.7 1.1 3.2 5-0.5-3.7-14 17.2-2.3 16.1-6.4 0-2.8-8.1-4.7-6.9-1.2-5.9-3.2-5.3-10.4 22-0.2 11.6 2.9 4.7 8.6 1.7 0 1-3.1 1.1-1.9 3.1-3.7 0.4 4.2 1.3 3.7 2 1.5 2.5-2.1 2.7-2.9 2.4-0.2 2.7 1 7.1 1.2 2.6 1.4 4.2 3.4 4.2 4.7 2.2 0.1 2.2-4.8-3.4-2.5 0-2.9 6.4 0.2 7.2-1.4 6.8-2.9 5.6-4.3 6.5-12.2 1.4-1.8 0.8-1.7-1.4-3.2-2.9-1.9-3.5 2.3-9.2 8.5-12.1 4.7-12.6-0.3-10.5-5.8 20.2 1.3 5.1-2.7 1.8-1.3 5-2.2 1-2.2 0.8-3.7 1.9-3.7 2.4-3.2 2-2-2.4-4.9 0.2-3.2 1.4-2.7 0.8-3.3-0.4-3.9-1.3-8.9-0.2-5.6 2.6-7 6.1-5.1 7-2.1 5.2 1.6-2 3.4-2.1 3-4.6 4.8 7.8-1.9 3.2 0 1.3 3.3-0.7 3.8-4.8 11.6 3 1.9 7.4 6.8 0.4-6.7 2-5.1 3.4-2.7 4.8 0.5-3.1-6.1-0.9-4.7 0.5-13.3 1-3.8 2.3-2.5 2.9-1 2.6 0.3 1.7 1.9 1.8 6.5 1.5 3 1.8-0.4 2.3-2 2-0.4 0.9 4.2 1.1 1 2.5-1.6 7.7-7.1 0.8-7.5-0.3-8.6 0.5-6-6.8-2.4-6.3 1.4-6 2.6-6.1 1.4-14.9-2.2-6.5 2 1.5 8.6-2 4.7-1.9 0-2.1-1.7-2.8-0.4-11.4 7.4-3.4 1.2-11.4 0-3.6 1.4-1.9 3.4-1.4 3.7-1.8 2.7-5.2 0-2.6-6-2.4-7.3-4.5-3.5-5.6-2.4-4.7-6.3-2.8-8.3 0.2-8.4 3.6-7 4.1 0.8 4.8 3.8 25.3 8 7.2 0.2 6-2.7 11.7-9.3 5.9-2 20 2.1 17.8-7.2 5.3 0.9 10.6 10.8 6.1 2.9 14.1 1.5-3.7-7.6-6.1-4.2-7.1-1.8-6.6-0.4-5-2.5-15-17-2.7-1.6-5.1-2-2.7-2.2-6.9-11-6.6-0.7-37.3-17.2-3.1-3-2.6-8.5-0.6-4.8 2.4-2.2 14.9 0 12.2 3.3 2.6-2-3.6-8.2-5.2-5.5-6.7-3.8-7.1-2.3-9.7-1.3-7 0.6-3.4-0.5-8-4.6-3.4-0.7-2.5-1-2.9-2.4-1.9-3.2 0.3-3.1 1-4.4-1.3-4.9-3.8-8.7 2.8 0.2 2.7-0.2 2.4-1 2.3-2.1 8.4 5.8 28.1 11.1 8.9 5.5 25.9 22 20.7 10.5 22.8 3.5 41.7-8.2-6.1-7.1-18-1.6 2.4-9.3 5.4-7 5.9-5.5 1.4-5.3 1.7-1.7 3 2.8 0.9 2.5 1.8 10.3 15.4-12.9 8.3-3.7 7.5 2.5 0 2.7-1.4 1.3-0.7 1.3-0.6 1.5-0.8 1.5 23.9 4.6 7.5 3.7-4 2-4.3 0.8-9.1 0 7.3 8.3 13.5 0 47.7-11.1 4.6-1.9 8.5-7.9 5.2-1.3 0 2.8-17.8 13-6.6 3.4 11.5 6.5 12.2 0.2 24.9-9.5-1.7-3.8-3-3.5-3.5-2.6-3.1-1-1.6-2.3-0.2-12-0.7-5.1 2.1 0.3 4.4-0.6 2.2 0.3-0.5-1.8-0.7-4.6-0.4-1.9 3.6-0.1 4.6 1 4 2.3 1.6 3.7 1.9 2.7 25.8 10.5 6.8 4.8 3.8 5.9-10.9-0.6-4.4 2-2.2 6.4 1 6.1 3.2 0.3 4.2-1.5 3.7 0.9-6.7 4-11.8 13.5-5.9 4.8-1.7-4.5-2.6-1.5-3.1 0.9-3 2.3 0 2.8 1 2.1-0.3 2.4-2.2 6.6 1.8-1.1 5.3-1.5 0 2.6-8.1 11.4-0.9 2.6-0.8 11.3-1.8 2.6-3.1 1.8-6.3 8-3.6 1.5-2.8-1.6-1.4-3.5-0.1-4.5 1-4.3-7.9 9.6-4.3 3.5-3.6-2-13.8 14 7-0.5-1 4.4-8.8 11.5-11.2 21z m-67.7-178.5l-3.7 2.4-1.7 0.2 0 3 3.5 4.8-2.9 4-5.8 2.2-5.2-0.2-4.9-3.1-4.4-4.6-3.7-5.5-2.6-6.2 12-3.8 3.9 0 3.9 1.1 9.9 5.6 1.7 0.1z m-68.7 36.1l-18.1 3.5-3.7-0.6-4.7-2.1-3.6-3.8-0.7-5.5 3.5-5.8 6.3-3.3 12.2-2.1 2.8 1.8 5.1 7.8 2.7 1.8 3.7-0.3 3.3-0.9 3-1.7 3-2.7-4.6-4.5-13.9-8-9.7-3.1-11.9-8.8-3.5-3.5-4.1-5.9-0.3-2.7 2.7-2.5 4.1-0.5 2.3 2.6 1.5 4 1.7 3.7 5.2 4.5 6.6 2.2 7 0.8 6.4-0.5 13.7-3.2 6.3 1.7 2.7 8.5 1.1 1.6 2 4.4 0.6 4.4-3 2.1-9.6 11.1-3.9 9.4-1.3 1.6-2.6-0.2-7.3-4.2-3-1.1z m597.1 122.8l10.1-3.6 4.9-0.7 5.7 1.5 0 2.8-7.1 0.6-25.7 12.8-5.2 1-17.3 0.4-3.3 1.2-0.2 3.2-3.3 2.9-3.3 1.5-38.6 4.6-19.7-3.2-9.9 0.4 0 2.8 3.1 0.6 8.8 5.2 4.2 1.6 13.3 1 0 2.8-7.1 2.2-14.9-1-7.4 1.6-17.6 11.2-6.8 0.3 5.4 2.6 5.3-0.4 15.7-7.7 17-0.2-3.5 4.7-6.3 4.5-6.9 3.5-10.9 3.1-19.3 12.3-12.2 5.4-23.3-3.8-13.1 1-9.2 3-40.3-0.6-6.1-2.4-8.7-8.2-11.7-4.5-5.7-4.9-5.4-3.1-2.6-2.9-1.3-3.5-0.9-4.2-1.4-3.6-2.5-1.6-3.1 2.4-2.8 5.8-2 6.2-0.7 3.9 1.3 5.2 3.4 5 4.2 3.9 11.8 3.7 10.3 5.4 9.3 7.3 4.9 7.8-3.6 7.2 6.6 2.2 14.4-4 7.4 0.4 9.5 2.7 7.3 5.3 0.1 8.4 6.9 5.7-13.2 9-4.1 5.1 2.9 2.8 1.9 3.7 1.1 4.7 2.2 14.1-0.1 4.2-2 1.5-4.3 0.2-2.3-2-7.9-15.2-2.9-4.3-3-3.6-3.5-2.5-4.7-0.8-2.3-0.9-3-3.7-1.6-0.8-1.6 0.8-0.7 1.8-1 1.9-2.8 0.9-2.2-0.5-3.8-1.9-1.9-0.4-3.3 1.4 0.2 3.2 1.3 3.9 0.1 2.9-3.4 3.8-7.9 4.9-3.5 3.9-4.2 3-2.6-4.8-3-13.8-5.2 5.9-2.9-3.5-1.8-7.4-2-6-5.5-2.8-5.6 1.4-4.4-0.1-1.9-7.2-4.6 2.5-3.7-1.2-7.4-7.2-1.9-3.1-1.4-1.5-1.9-0.5-3 1.3-1.2 2.1-0.8 2.4-1.9 2.4-3.7 1.8-3.2 0.5-3.3-0.8-3.7-1.5-2.2-1.6-1.7-2-1.9-1.5-3-0.6-1.8 0.9-3.7 3.8-2.2 1-2.6 2.4 1.4 4.7 3.8 2.8 7.5-4.9 13.3 3.4 3.7 2.7 0.5 5.8-0.1 6 1.9 2.6 5-0.9 3.5-1.5 3.3-0.4 4.8 2.8-8.7 11.1 9.2-0.6 4.5 0.8 3.8 2.9-4.3 4-9.8 4.1-3.4 3.1-1.9 7.7 3.6 2.5 5.9-0.5 14.6-5.1 4.9-0.3 0.8 4.2-2.7 3.5-13.1 8 3.2 5.5 5.8 5 3.5 5.5-3.7 6.7-5.4 1.2-6.3-2.7-10.9-7-6.6-0.8-5.8 1-5.1-0.6-5-5.6-1.3-3.5-0.6-3.5-1-3.4-2.5-3.7-2.9-1.7-3.1-0.8-3-1.6-2.9-4.4-4.4 2-10.2-11.9-4.8-1.3-1.1 2.6-1.1 4.9-1.3 8-1.3 2.7-2.9-2.8-4.4-6.9-5.7 4 2.5 7.3 8.4 11.2-1-0.1-1.8 2.6-1.7 3.8-0.7 3.8 1.3 2.7 3 1 6 0.6 6.3 3.7 4.1 4.8 1.5 6.1-1.1 8-1.6 1.5-3 3.9-1.4 4.1 3.2 1.9 0.6 1.6 5.7 6.4 1.3 0.5-1.9 7.3-5.1-2.5-8.6-10.5-5.8-3.5-12.9-2.6-5.5-5 1-8-3.1-5.1-5.1-2.9-11.7-3-4.4-3.4-0.1-5.2 6.1-6.8-4.3-2.3-8.7 2.9-3.6-2-0.7-2.4 0.2-5.3-0.4-2-7.9-9.1-9.4-7.2-2.4-2.5-2.8-4-1.8-4.6 0.5-4.4 1.7-1.4 2.2 0.3 2.3 1.3 1.8 1.5 5.3 6.1 1.9 1.2 4.6-0.3 3.3-3 0.6-4.9-3.4-5.9 10.5-2.2 4.6-3.2 2.4-6.1-4.5-2.3-5.1-3.8-4.2-5-1.9-5.8 0.3-3.7 1.3-1.7 2 0.6 2.5 3.4 2.5 1.7 3.7 0.3 6.9-0.6-4-8-2.1-3-2.7-2.8 4.2-2.1 9-1.6 4.2-2 0-3-14.2-4-6.6-4.5-0.1-8.1 6-3.9 8.4 3.1 8.6 5 6.6 1.4 5.3-5-3.7-5.1-6.7-5.1-3.6-4.9 1.5-4.6 3.3-0.3 3.9 0.8 3.5-1.3 1.5-3.4-0.1-3.6-1.7-2.9-3.2-1.4 4.4-2.8 19-7.1 5.1 5 3.1-4.3 3.4-18.8 3.9 4.1 4.1 0.8 9.1-2.3-4.3-9.7-0.9-4.3 24.4-17 4.3 5.6 3.2-2.6 3.2-5.6 4-3 19.4-3.6 4.2 0.8 1.4 3.2 0.1 3.6-0.3 3.8 0.4 3.6 1.3 3.1 1.8 2.7 1.4 3 0.7 3.8-0.8 3.8-1.4 3.7-0.9 3.4 1.4 6-0.1 3.5-0.7 3.4-0.9 2.8 4.3-1.8 4.9-1.2 4.2-2.5 2.2-5.7-1.2-5.9-3-7.1-2.4-7.4 0.9-10.8-3.3-3.4-2.9-4.7 1.6-8.5 2.2-2.1 2.9-0.4 2.4-0.9 1.1-3.6-0.8-3.8-2-0.4-2.5 0.3-5.4-3.2-17.9-6.9-11.4-9.9-5.6-9.7 4.5-6.9 7.2-8.4 2.6-14 12.8 24.9 8.1 8.6 5.4-11-6.8-9.5-1.6-9.3 3.8-4.9 9.6 3.9-6.6-6.8-23.1-10.6-5.1-3.6 0.9-6.1 2.4-6.6 3.4-5.3 3.7-2.7 1.5 0.7 5 3.8 2.2 1.1 3.1 0 8.3-2.5 2.3-1.8 1.2-3.9 0.9-3.9 0.8-1.8 17.1-0.5 6-1.7 5-3.4 2.3-5.5-1.5-5.5-7.2-10.8-2.7-7.1-2.4-3.1-2.6-2.8-1.9-1.1-1.2-1.8-3.1-12.3 5.3 2.1 8.1 9.7 3.9 2.3 5.6 0.8 11.9 4.6 21.1 12.8 5.9 1.1 13 0 2.9 1.3 2.5 2.1 2.8 1.7 3.9 0.2 0-2.5-1-5 3.9-4.4 5.9-3.2 24.1-2.4 4.5 2.4 4.2 3.4 10.3 3.5 4.5 4.3 11.5 13.8 1.7 5.6 0.9 8.3 1.1 5.6-1.2 4.5-6 5-5 2.2-6.6 1.8-6.4 0.5-4.7-1.5-2.5-4.6-4.3-13.9-3.6-3.7-4.3 1.1-4 4.6-7.3 10.7 8.6 0.2 1.5 5.5-3.2 18.1 3.4 2.8 16-8.9 5.9 0.6 1.1 4.3-0.4 5.1-1 5.4-0.6 4.9 0.3 7 0.9 2.5 3.9 0 1-0.6 1.7-3.8 1.6-0.8 1.1 1.2 1.6 6.1 0.9 2.3 3.4 2.2 4-0.2 3.5-2.3 2-4.1 5.3 3.2 3.2 4.2 1.6 5.8 0.4 7.9 1.5 5.5 3.6 7 4.3 6 3.7 2.5 4.4-2.6-2.1-6.1-6.6-10.8 2.7-5 5.5 1.1 10.9 6.7-1.9-9.6-6.1-4.1-6.5-2.5-3-4.8 1.7-3 3.4-2.6 2.3-3.2-1.2-5.1-3.3-1.8-7.8 3.6-3.7-0.6-2.6-3.2-0.2-3.2 0.3-3.3-1-4.2-1.2-2.3-1.8-2.5-1.7-0.5-0.7 3.8-1 3.9-2.5 2.1-3.1 0.9-2.9 0.1-2.9-1.5 1.2-3.7 4.5-5.9 11.6-23.9 3.1-3.6 2.8-1.3 6.8-6 3.4-1.3 53.2-4 14-4.4 7.6 0.1 6.7 1.9 2.8 2.2 2.7 4.2 4.3 16.7 1.7 2.5 2.7 2.1 7.8 13.4 2.7 2.8 3.5 2.1 6.9 2.1-2 4-4.9 3.1-1.9 4.2 6.5 0 2 3.7-2.2 4.6-6.3 2.6-31.6-4.3-21.3-12.9-5.3-1.2-2.2 3.3 3.1 9.9-13.5-5.8-16.1 8.3 4.5 7.5 8.5 6.2 9.5 4.3 7.1 1.7 14.6-3.6 7.1 4.4 23.7 2.5 9.4 2.8 8 5.5 3.3 9.3-4.6 5.2-10.6 4-18 3.4 0 3 15.3 5.6 5.7-0.2z m-490.2-167.1l-10.6-2.7-2.4-1.5-1.7-3.4-0.6-3.5 1.3-2.6 3.6-0.4 5.8-3 6.5 2.3 6.6 4.1 6.2 2.1 26-2.8 2.3 0.6 0.1 1.5-0.3 1.9 0.7 2.1 1.7 2.7 0.8 2.6 1.5 1.8 3.8 0.7 1.7-1.1 1.1-2.5 0.8-2.7 0.7-1.5 2.6-2.1 1.8-0.9 2.5-0.3 5.8 2.2 4.3 5.7 2.7 8.1 1.1 9.1-6.2 1.6-5.9 3.3-14.7 0.7-6-3.1-8.5-13.4-6.5-3.1-28.6-2.5z m-5 428.1l4.2-7.3 6.5-2.2 8.6-0.1 0.9 4.7-6 1.8 0 5.6-4.7 4.8-3 5.6 5.7 3.8 9.9-1.3 6.9-3.6 3 5.2-6.4 4.8-5.1 5.2-2.1 6.1-7-3.4-5.6-3.8-3.9-4.3-6.5 0.9-3.1-5.2-5.6-4.2 7.7-6.6 6.5-1.7-0.9-4.8z m343.1-137.6l3.4 3.3 0.1 0.6-1.2 0.6-0.3 2.9-0.8 3.4-2.9 0.1-4.8-2.1-2.3 0 0 1.8 1.6 4-1.2 1.8-2.9-0.4-0.3 1.1 2.7 1.8 2.8-1.3 2.1-2.5 0.5 0.9-1.2 3.8-0.6 3.9 0.5 3.9 2.1 4.7-0.2 2.5-0.7 1.7 0.1 2.6 1.7 3.1-1.2 1.8-5.3-1-2-2.2 1.9-2.3 0.1-2.8-1.4 0-2.7 0.9-4.1-2.1-3.6-2.8-5.8-3-0.7-2.1 0-3.7-1.3-3.3-3.2-3-2.1-3.6 1.8-2.7 3.1-2.3 3.5-2 3.7-1 2.5-1.7 2.4-0.5 0.7-0.5-1.9-1.9 0.9-1.1 3.8 0.2 3 1.2 1.4 2 1.1 1.8 1.4 0.2 2.3-0.4 1.4-1.8-0.3-2.8 1.1-0.4 1.3 0.7z m-320.7-11.7l1.5 1.9 0.6 4.2-2.2 3-2.5 0.9-1.4-0.5-0.5-1.2-0.6-1.4-0.9-1.1-1.3-0.1-1.5 0.3-1.1-1.7 1.5-5-0.5-3.2 1-4.2 3.1-3.1 2.6 0.9 0.1 2.7-0.9 3.3 1.4 3.1 1.6 1.2z m-16.3-260.3l3.5 3.9 3.5 3.4 6.9 5.2 0.4-8.2 5.6 0.8 1.4 6.5 5.6 3.4 9.6 1.3 0.9 4.7-7.4 1.8-9.5 4.8-7.8 4.4-7.4 0.9-7.3-4.7 0.8-6.1 5.2-4.4-6.1-1.7-9.9 1.8-7.9-4.7-1.7-4.4 6.9-0.8 7.4-0.9 2.1-7.4 5.2 0.4z m-200.2-18.5l3.4 3.8 0.9 4.9-1.2 4.1-1.5 0.7-0.8-2.3-0.2-2.3-0.8-1.8-3.1-1.2-5-1.2-5.1-4.2-2.6-8.6 3.5-3.4 7 5.8 3.5 4.3 2 1.4z m-132.4-85.9l1.5 1.7 0.2 2-2 0.6-3.4-1-8.4-3.9-3.5-0.8-2.2-1-0.2-2.1 2.1-1.9 1.5-1.7-0.2-2-1.7-3.9 0.1-3.5 3.5 0.9 3.3 3.4 3.5 5.1 1.2 2.3 1 2.7 0.6 1.3 3.1 1.8z" id="FK" name="Falkland Is.">
  </path>
 </g>
 <g id="points">
  <circle class="-52.33758479284457|-61.138990837059666" cx="90.9" cy="564.1" id="0">
  </circle>
  <circle class="-51.78608156029934|-59.347039336395966" cx="545.5" cy="336.6" id="1">
  </circle>
  <circle class="-51.0967025196178|-57.913478135865006" cx="909.1" cy="56.1" id="2">
  </circle>
 </g>
 <g id="label_points">
  <circle class="Falkland Is." cx="699.8" cy="264.1" id="FK">
  </circle>
 </g>
</svg>