<?xml version="1.0"?>
    
<!--********* Copyright (c) 2024 Pareto Softare, LLC DBA Simplemaps.com ***************************************
************* Free for Commercial Use, full terms at  https://simplemaps.com/resources/svg-license ************
************* Attribution is appreciated! https://simplemaps.com *******************************************-->

<svg baseprofile="tiny" fill="#6f9c76" height="1000" stroke="#ffffff" stroke-linecap="round" stroke-linejoin="round" stroke-width=".5" version="1.2" viewbox="0 0 1000 1000" width="1000" xmlns="http://www.w3.org/2000/svg">
 <g id="features">
  <path d="M630.1 952.9l-9.8 1.6-9.4-9-15.7-23.6-38.7-36.7-18.4-26.4 2-22.7-11.2-13.9-13.2-21.2-9.8-22-1.2-16.2-2-4.4-3.8-13.5 8.7 0-0.9-3.3-0.2-0.8-1.8-2.5 15.6-10.6 7.5-1.1 6.3 6.1-8.6 9.7-3.1 2.5 4.1 4 4.3 1.9 4.5 0.4 4.8-0.7-20.6 18.9 0 5.6 37.7-4.5 11.4 15 26.2 3.9 9.4 10.1 1 12-4.8 7.1-6.9 1.4-5.6-5-5.3-6.7-7-3.2-6.5 0.8-3.3 5.8 8.3 2.2 4.9 7.6 3.5 8.6 3.9 6 4.3 0.9 9.3-2.3 4.2 1.4 4.1 5.2 1.8 5.7-1.3 4.8-4.6 3.2 0 6.1 17.7 9.3-1.6 7.7-3.8 1.3-4.9-1-4.8 0.3-14.6 8.3-7.5 0.9-9.6-3.1 0 6.7 4.8 1.2 4.2 3.1 3.2 5.7 2 8.3 4.9-10.1 7.6-3.3 16.9 1.2-1 3.3-1.9 8.9 9.4 4 6.4 13 2 15.2-3.5 10.9z m18-381l-6 9.5-2.8 6.2 1.4 2.8 0.9 4.7-0.9 26-2.1 2.9-3.1 6.3-3.8 6.3-4.3 2.9-3-2.5-27.8-58.6-5.7-6.5-39-7.2-6.9-2.9-5.7-6.4-2.4-11.5-1.8-15.8-9.2-22-3.5-14.4 9.9 1.8 18 8.1 8.6 1.8 13.7-2.3 5.1 2.3 4 4.6 6 10.8 4.8 3.1 32.4 9.4 5.2 6.4 2.8 12.8 12.3 12.5 2.9 8.9z m-328.7-248.2l-11.5-9.9-8-20.7-0.9-18 10.2-1.7 15.2 15.6 5.2 3.1 3.2 0.6 9.9-0.6 3.3-2 1.1-4.3 0.3-4.2 1.2-2 5-2 7.4-8.9 29.9-7.8 0 5.7-2.8 0 0 6.8 16.5 11.5 5.4 1.5 4.7 3 6.8 14.9 4.4 6.4 10.6 3.8 11.2-0.7 10.5 2.3 8.4 13.3-5.3 11.6-3.8 11.8-5.2 9.4-9 4.4-7.6-1.4-7-3.4-6.9-0.9-7.6 5.7 3.4 3.3 3.5 2.2 3.8 1.1 4.2 0.2-24.9 12.4-7.4 6.2 3.6-9.8 1.9-3.1-2.9-12.7-4.9-11.2-5.9-5.4-6.4 4.4 3.6 3 5.2 6.3 3.9 7.8-0.8 7.8-4.5 1-19-13.5-26.5-5.6-17.2-12.3-6-0.7 0-6.2 40.7 0-9.5-7.5-11-5.7-21.7-4.9z m68.7-69l-4.1-5.4-1.3-3.4-0.5-6.8 1-9.8 2.5-2.5 2.8-0.3 2.4-3 2.4-12.6 0.4-9.3 1.9-6.4 6.7-3.5-8.1-13.5 0.1-19.2 5.4-36.1 2.2 4.4 1.9 0.9 2.1-0.3 2.5 1.3 29.2 7.1 14.4 8.9 6.1 12.5 5.5 22.2 20.5 41.3 0 21 14.3 4.9 24.3 21.4 21.6 6.9 3.7 5.3 0.4 7.9-2.7 9.7-4 6.7-5.7 5.9-5.9 4.2-4.8 1.9 37.3-1.8 6.4 11.3 6 13.7 2 9.7-3.5 4.3-24.9 0 0 6.8 15.1 6.9 28.8-0.7 11.7 11.9-4.6 11.1-3.3 14.9 0.9 12.9 14.1 8.2-0.8 7.6-2.2 11.7 1.7 15.2-13.9 5.3-13-14-12.3-18.9-26.9-18.4-22.7-39.2-15.1-8.9-6-2.1-4-6.3-2.1-10.6-0.7-14.8-2.8-8.4-6.6-8.8-7.8-7.4-6.3-4.3-33.5-5.6-7.5-4-4.3-8.7 0.4-8.6 6.8-3.6-3.7-10.9-5.8 1.1-6.8 6.1-7 3.7-4.6-2.1-11.9-11.3-3.8-5.3z m71.4-109.6l-3.7-5.5-4.8-5.1-3.9-5.3-0.6-6.3 3.6-6.4 4.4 1 4.9 3.8 4.5 1.6 9.3-4 15.5-12.2 19.5-4.3 5.2 1.8 4.4 3.6 3.8 4.4 4 3.5 5.3 0.9 1.8 9.4-7.4 6.5-9.7 5.7-4.8 6.9 0.2 15.4 1.2 12.4 3.5 10.1 6.7 8.7-4.3-27.9 1.9-10.8 31.8-11.4 10.5 0.7 6.7 11.9-3.4 0.9-8 5.9 33.3 5.7 4.1 4.3-3.6 9.2-7.7 8.8-8.6 2.7 0 6.9 4.9 1.6 8.1 8.3 4.4 2.5 3.5-0.7 8.1-4.9 4.3-1.2 23.3 8.8 18 12.6 1.3 5.9-5.6 3.4-10.7 1.1-25.6-3.7-7.9 3.7 0 6.2 52.2 28.2 15.3 16-22.2-3-22-10 0 6.2 9.4 2 8.6 6.9 14.3 15.4 0 6.8-7.7-1.2-8.8 1.3-7.8 4.4-5.1 8.5 1.9 1.7 1.8 2.7 2.1 1.3 0 6.7-3.6 3.8-1.6 3.8 0.2 4.4 1.9 6.1-15.6-10.9-4.2-19-0.2-22.7-3.3-22-7.4-16.4-11.4-18.7-12.9-12-12 3.5 10 11.9 12.7 11.3 10.9 15.3 4.5 23.8-7.6 19.7-17.3-14.2-33.5-42.9-17.4 1.1-4.4-4.2-2.7-4-8.9-9.7-3.3-1.9-5.1-4.9-26.7-45.8-14.8-46.4z m220.6 90.9l-14.5-20.4-4.8-13.9 1.8-15.7 3-5.5 1.7 0.6 1.1 3.1 1.6 1.8 3.4-1.2 0.7-3.5 0-5.2 1.5-6.3 0.8-7.8-1.2-25.3-1-7.5-5.2-18.9-3.5-16.9 2.2-13.3 12.4-7.9-3.2 6.8 11.9 36.1 14.6 25.7 18.1 18.3 22.8 13.9-7.9 14-13.3 2.1-13.7-6-9-10.1-2.9 6.8 15.8 22.3 8.4 7.3 8.1-5.2 1.2 16 1.5 5.2 3.1 4.4 0 6.2-7.1 5.1-8.7 2.2-8.4-2.3-6.5-8.2-11.6-24.9-6.7-7.1-6.5 3.4 9.1 31.1 3.8 9.8 1.7 6.4-2.9 0.2-4-2.4-4.3-3.8-1.2-3-0.8-3.3-1.4-3.2z m-435.7 76l5.9 5.4 3.9 2.7-4 1.7-5.4 0.7-34.9-3.3-1.5-6.5 11.5-6.8 12.4-0.7 12.1 6.8z m527.7-183.1l12.8 0.3 6.7 4.6-0.5 5.9-12.5 13.3 2.8 9.4 0.1 8.4-2 5.8-3.9 4.8-5.5 3.3-6.7 2.6-7.1-1.4-5-9.2-4.5-12.1-1.5-10.2 5.1-7.1 7.1-3.6 14.6-14.8z m-112.4 16.7l1.9 7.6 0.5 13.5-6.3 5.2-9.3-4.7-8.6-12.7-4.2-8.7-11.5-28.8-4.7-21.1 1.5-20.3 7-7.4 6.9 7 3.8 13.4 18.3 43.3 4.7 13.7z m-29.6 23.6l2.8 3.9 3.8 9.9-1.8 9.6-6.5 1.9-7.7-4.5-6.1-10-3.4-14.8-4.2-13.6-3.1-5.8-8.4-13.3-11.3-21.6-3-7.6-7.6-23.2-0.8-12.9 4.3-4 5.9 5.4 5.7 10.7 11.7 30.5 29.7 59.4z m104.6-55l3.3 3.7 2.9 9.3-2 8.1-2.8 6.2-7.6 3.6-13.6-5.1-12.7-12.9-10.1-18.1-6.3-15.4-4-23.3-5.5-5.7-4.1-11.8 5.7-7.3 10 3.2 6.1 7.2 4.3 11.6 3.2 13.4 5.3 10.1 6.1 8.7 2.4 8.1 0 6.3 2.4 5.8 4.5-1.1 4.7-6.2 5.1-0.4 2.7 2z" id="FO" name="Faeroe Is.">
  </path>
 </g>
 <g id="points">
  <circle class="61.44435052710508|-7.575736054610512" cx="237.6" cy="909.8" id="0">
  </circle>
  <circle class="61.8462710880735|-6.891552297088836" cx="529.2" cy="549.1" id="1">
  </circle>
  <circle class="62.348671789284026|-6.344205291071496" cx="762.4" cy="91.6" id="2">
  </circle>
 </g>
 <g id="label_points">
  <circle class="Faeroe Is." cx="458" cy="241" id="FO">
  </circle>
 </g>
</svg>