<?xml version="1.0"?>
    
<!--********* Copyright (c) 2024 Pareto Softare, LLC DBA Simplemaps.com ***************************************
************* Free for Commercial Use, full terms at  https://simplemaps.com/resources/svg-license ************
************* Attribution is appreciated! https://simplemaps.com *******************************************-->

<svg baseprofile="tiny" fill="#6f9c76" height="1000" stroke="#ffffff" stroke-linecap="round" stroke-linejoin="round" stroke-width=".5" version="1.2" viewbox="0 0 1000 1000" width="1000" xmlns="http://www.w3.org/2000/svg">
 <g id="features">
  <path d="M730.4 205.2l-120.4-1.8-0.1 1.3-0.2 1.4-0.2 0.5-0.3 0.5-1.6 2-0.4 0.6-0.2 0.5-0.1 0.5-0.2 1.9-0.2 0.5-0.5 0.7-1.8 1.9-2.7 5.4-0.4 0.5-2.3 2.6-0.4 0.8-0.3 0.7-0.3 0.7-1.6 3.5-1.1 1.9-4.2 5.3-0.1 0.3-0.1 0.1-0.5 2.3-0.1 3 0.4 5.3 0 0.8-0.4 1.6-0.1 0.7 0.1 0.6 0.3 0.5 0.1 0.3 0.1 0.5-0.8 4-0.6 1.3-1 1.1-104.4 70.9-1.2 1.1-0.2 0.9 0.8 1.3 14.7 15.6-112.6-0.3 0.9-0.8 0.9-1.3 0.3-0.3 0.6-0.5 1-1.3 0.8-1.7 0.2-0.8 0-0.8-0.1-1.6-1-4.9 0.3-1.4 0.3-0.8 0.8-0.6 0.5-0.5 0.4-0.7 0.3-0.6 0.2-1.2 0.5-3.8 3-10.7 0.6-1.4 1.7-3 0.2-0.5 0.5-1.7 0.3-0.7 0.5-0.9 0.6-0.7 1.1-1.7 0.5-1.2 1.6-5.9 0.2-0.4 0.2-0.4 0.7-0.8 2.2-1.7 0.3-0.6 0.4-1 0.7-3.4 1.4-4 0.3-1.9 0.3-10-0.4-3.1-1.4-5.8-0.6-0.4-1.3 0-75.7 26.2-2.1 0.4-1.2-0.3-0.7-1.3-1.2-4.3-0.6-1.3-0.8-1.4-2.3-3-0.1-2.1 0.5-2.8 2.1-5.6 1.7-2.9 2.2-7.3 0.8-20.6 3.3 0 43.5 0.1 32.9 0.1 10.5 0.1 43.5 0.1-0.2-38-0.2-38.1-0.2-30.4-0.1-7.6-0.2-38 0-11.7-1.1-5.6 0.9-1.5 0.6-1.7 0.2-1.8 0-1.8 0.3-2.4 0.9-1.6 1.1-1.6 0.9-2-0.3-1.9-0.6-1.9 0.2-1.4 38.8-1.4 3.8-1.3 1.8-0.4 2 0.2 1.5 0.8 2.9 2.4 7.5 2.5 2.2 0.2 4.9-0.7 12.8 0.4 11-0.9 11 0.6 8.6-0.6 2.6 0.1 5.9 0.9 6.3 0.3 2.9-0.6 5.5-1.8 2.9-0.4 1.5-0.4 3.1-1.7 1.3-0.1 1.8 0.6 4.8 2.9 2.6 0.6 8-1.9 5.6 0.4 8.1 2.7 2.5 0.8 3.4-0.8 2.3 1.7 3.5 1.3 19.6 2.9 2.9-0.6 2.1-1.2 1.6-1.4 1.9-0.8 2.4 0.7 3.4 1.5 2.8 0.6 1.3-1.8 2 0.9 1.9 0.1 1.6-0.6 1.5-1.4 4.4 1.6 2.5 0.4 1.6-0.4 2-1 2.3 0.6 4 1.7 6.2-0.7 1.4-0.6 2.9-2.8 1.7-1.2 1.3-0.5 4.4 0.2 4 0.8 2.1 1.5 0.9 0.4 1.4 0.1 2.1-0.9 1-0.2 1.6 0.6 2.2 1.7 2.2 1.9 1.4 1.7 0.6 2.1-0.6 4.4 0.1 3.6 0 8.7-0.5 4.7-1.5 3.5-5.2 2.8-0.8 0.7-2.7 2.9-0.7 0.5-1.4 0.5 0 1.3 0.8 2.7-0.3 1.4-0.7 1.1-1 0.9-1 1.1-1 1.7-0.9 2.3-1.8 0.5-0.6 0.6 1.9 2.6 1.2 2.6 0.7 1.1 0.6 1.7-0.2 2.4-1.5 5.3-1.1 2.2-1.5 1.9-1.8 1.1 1.1 2.5-0.4 2.5-1 2.7-0.6 3.1 0.9 6.6-0.5 3.5-2.5 2.9 2.4 4.2 2.7 3.7 1-1.1 1.6 1.3 1 1.7 0.2 2-0.9 2.1 3 1.5 2.6 7 2.4 1.5-0.2 1.2 0.2 6.8-0.1 1.2 0.1 1.1 0.5 1 1.2 1.8-0.3 0.7-0.9 0.6-1.4 2.9-2.1 1.4-2.4 0.8-2.1 0.3-1.1 0.9-0.6 2.1-1 1.8-2.8 0.2 1.5 1.3 1.7 0.7 1.4 1 0.4 2z" id="GA9" name="Wouleu-Ntem">
  </path>
  <path d="M497.9 349.3l-14.7-15.6-0.8-1.3 0.2-0.9 1.2-1.1 104.4-70.9 1-1.1 0.6-1.3 0.8-4-0.1-0.5-0.1-0.3-0.3-0.5-0.1-0.6 0.1-0.7 0.4-1.6 0-0.8-0.4-5.3 0.1-3 0.5-2.3 0.1-0.1 0.1-0.3 4.2-5.3 1.1-1.9 1.6-3.5 0.3-0.7 0.3-0.7 0.4-0.8 2.3-2.6 0.4-0.5 2.7-5.4 1.8-1.9 0.5-0.7 0.2-0.5 0.2-1.9 0.1-0.5 0.2-0.5 0.4-0.6 1.6-2 0.3-0.5 0.2-0.5 0.2-1.4 0.1-1.3 120.4 1.8 1.6 0.2 2.9-0.5 5 0.4 3-0.6 2.7-1.2 2.7-3.3 2.6-0.3 2.5-0.7 0.9-2.6 1.2-1.1 2.8-0.7 3.2-0.4 2.2 0.2 5.1 1.8 4.4 0.9 4.4-0.1 4.9-0.9 1.9-1.3 3.3-4.5 5.2-2 1.9-1.5 2-1.4 2.9-0.2 1.4 0 1.3-0.1 2.7-0.5 0.9-0.4 1.8-1.4 0.9-0.4 0.8 0.2 1.7 0.8 0.4 0.1 1.6-0.5 0.5-0.4 1.7-3.4 1.4-3.8 0.1-0.7 2.1-0.5 27.4 2.6 2.5 0.5 2.6 1.6 2.2 2.1 2.2 1.7 3.1 0.1 5.2-2 2.6-0.6 2.9 0.2 5.7 1.6 1.3 0.9 0.9 0.9 1.1 0.8 1.8 0.4 0.2 0.8 0.2 0.8 1.3 0.8 1.6 0.7 1.6 1.2 0.8 1.6 2.2 9.1 0.4 3.8-0.2 10.9 1.2 3.7 2.3 3 6.9 3.3 2 2.9 2.3 7.4 1.6 3.4 2 3.2 2.5 2.9 2.7 2.5 3.5 1.7 1.1 1.2-0.3 2-1.3 1.3-1.7 1-1.1 1.2 0.5 1.8 0.9 6.8-4.9 6-6.7 5.7-4.2 6-0.5 7.5-0.9 3.1-10.8 9.3-0.5 0.8-0.8 0.6-2 0.7-7.3 0.4-8.1-0.9-7.2 1-4.4 6.1 1.6 3 0.9 3-0.6 3-2.7 3.1-10.7 5.9-3.1 3.3-5.1 11.5-5 7.4-0.6 3.4 0.7 3.7 1.4 4.5 0.7 3.5 0.6 10.5 0.9 1 1.7 0.1 1.8 0.3 1.1 1.8-0.2 1.5-2.1 2.6-0.6 1.5 0.3 2.1 0.8 1.6 0.1 1.5-1.5 1.9-1.5 1.4-1.8 2.4-0.1 0-10.7-3.7-7.1-5.2-3.2-1.9-2.9-1.2-29-6.3-2.2-0.2-5.6 0.4-27.3-1.1-2.9 0-1.2-0.3-1.5-0.7-1.4-0.8-1.6-0.6-3.9 0.1-1.7-0.3-1.7-0.7-1.4-0.9-5.5-2.7-1-1.1-0.7-1.3-2.7-8.8-0.3-2.9-0.6-1.2-2.4-1.7-2-2-1.2-0.5-4.3 0.6-1.3 0-1.2-0.2-0.8-0.3-1.3-0.6-2.7-1.6-2.4-1.8-1.1-0.4-4.2 3.8-1.7 1-2.1 0.3-1.6-0.2-4.5-1.3-3.6-0.6-2.6 0.2-1.7-0.5-1.3-1-0.8-1.3-1.1-1.4-1.2-0.9-1.2-1.3-1.5-0.8-1.9-0.3-9.5 4.6-1.4 0.3-1.4-0.2-1.4-0.9-1.3-1.1-1-1.2-1-0.8-0.8 0.5-21.9 98.1-22.8 11.5-107.1 39.4-4.4-9.1-0.5-1.5-2.3-11.7-2.2-4.7-1.7-2.6-1.3-1.3-5.4-4.5-1.2-1.4-0.8-1.6-2.3-7.5-0.3-2.2 0.1-3.7-0.1-2.3-0.4-1.9-0.8-1.5-7.5-11.3-0.8-1.4-0.4-1.4-0.3-1.4 0-3.5 0.5-4.1-0.6-6.6-1.2-4.9-0.5-1-0.9-1-1.3-0.4-1.4-0.2-1.2-0.3-0.8-0.8-0.5-0.7-0.5-1.2 0-1.3 0.3-1.4 2.5-4.6 1.2-4.5 1.2-1.5 3.7-2.6 2.1-2 20.4-10.6 2.5-0.5 1.6-0.6 2.1-1.8 1.7-1.1 2.8-2.3 0.8-1.6 0.6-1.9-0.3-2.1 0.7-4.6z" id="GA6" name="Ogooué-Ivindo">
  </path>
  <path d="M666 657.1l0.3-1 2-5.3 1-4 2.1-4.5-0.1-1.3-0.5-2.8 0.3-1.5 10.8-22.2 2.5-3.2 0.8-1.3 0.5-1.4 1.2-1.5 0.9-1.7 0.6-1.7 0.4-4.2 0.4-1.4 1.3-2 1.3-1.4 1.4-1 1.2-1.1 1.1-1.6 0.7-2.5 1.6-1.3 4.2-2.3 1.2-0.1 0.7 0 1.2 0.2 1.2-0.1 1.4-0.4 1.5-0.9 1.4-1.2 1.2-1.4 2.1-2.8 1.2-1.2 1.3-0.8 2.6-1 0.9-1 2.4-4.3 1.5-1.3 1.5-0.9 1.4-0.5 1.2-1.8 0.5-2.8 0.1-6-0.5-5.5-1.4-5.5-0.1-0.9 1.3-1.1 10.6 5.2 2.5 2.1 1.1-0.4 0.9-0.8 23.5-28.6 18.1-26.7 0.2-2.4-0.9-3.5-36.2-71.1-1.4-1.2-1.4-0.6-1.5-0.3-1.3-0.6-1.2-1-0.7-1.8-0.4-1.6-0.2-3.1-1.4-5.9-0.7-1.2-0.9-1-0.6-1 1-1.7 3.5-5 3.7-7.2 0.3-7.4 27.3 1.1 5.6-0.4 2.2 0.2 29 6.3 2.9 1.2 3.2 1.9 7.1 5.2 10.7 3.7 0.1 0-6.6 8.8-1.5 3.6-0.1 4.1 6.7 8 0.8 0.6 1-0.2 1.9-0.7 0.6-0.6 0.4-1.1 0.5-0.9 1.2-0.4 5.2 0.6 1.4 0.5 1.1 1 1.1 1.4 5.3-1.4 5.8 0.9 5.3 2.6 3.8 3.7 2.4 5 1.8 5.8 1.1 6 0.2 5.4 2.5-1.3 2.4-0.8 2.5 0 2.6 1.1 2.4 0.5 2.2-0.7 2.3-1.1 2.4-0.4 4.1 1.2 5.5 2.4 4.9 3.1 3.2 4.3 5.8 4 1.8 1.9 3.4 7 1.3 4.3-1 4.7-5.9 12.8-0.8 3.6 0 3.5 1 3.7 0.6 4.4-1.6 3.1-2.6 2.9-2.2 3.5-0.8 3.4-0.7 6.2-1.5 3.1-0.1 2.1 4.2 11.4 1.5 3.1 0.5 1.7-0.1 1.3-0.8 2.5 0 1.2 1 1.8 0.6 0.6 2.5 2.4 1.1 1.9 0.3 1.3-0.2 4.5-0.6 3.3-0.5 1.4-0.8 1.5-1.1 1.2-1.2 0.9-1 1.1-0.4 1.6 0.9 2.8 2.1 2.2 5.1 3.3 0.8 3-1 1.7-1.8 1.2-1.7 1.6-0.5 1.4-0.3 3.5-1.8 4.2 1.9 1.9 1.6 2.6 0.1 2.2-4.8 0.9-0.9 1.2-0.6 1.7-1 1.5-1.3 1-1.4 0.7-3 1-1.3 1.2 1 1.1 2.8 1.5 1.7 5.9 2.5 0.8 3.1 0.5 1.1 1-3.4 2-1.8 2-0.9 3.1-0.5 11.6-0.8 3.7-0.1 1.3 1.1 6.3-1.1 2-3.8 2.1-0.3 0.1-16.9 6.6-1.1 1.1-0.7 1-0.4 1.3 0.1 1.7-0.7 1.4 0 0.9 0.8 0.7 1.2 0.9 0.7 1.2-0.2 1.5-0.9 2.8-0.8 7.7-0.7 2.1-1 0.9-2.5 0.9-0.8 0.7-0.1 1.4 0.9 2.6-0.1 1.1-1.9 2.1-5 1.8-2 1.6 0.5 4.9 11 9.4 1.1 4.6-0.6-0.4-7 1.6-1.4 0.7-1.3 0.8-2.8 2.4-1.2 1.2-0.7 1.5 0.1 3.8-1 1.3-1.4 1.1-1.2 1.3-0.9 2.6-0.7 1.9-0.9 1-1.3 0.2-1.4-0.6-2.3-1.2-1.4-0.2-0.9 0.2-6.7 2.1-1.1 0-1-0.9-0.4-2.6-1.3-1-1.4 0-1.4 0.6-2.5 1.5-3.1 0.7-3.5-0.2-3.4-1.1-2.3-2.1 0.1-0.7 0.1-5.6 1.1-1.3 3-1.5 2.1-4.4 1.7-1.1 0.6-0.9-1.9-2.7-1.5-1.1-1.6-0.7-1.1-1.1-0.5-4-1-1.5-2.6-2.7-1.8-2.6-3.3-6.8-1.3-6-1.3-3-1.7-2.8-2-1.9-1.6-1.1-0.4-0.2-0.4 0.8-3 4.5-1.5 2.9-0.4 1.6-0.2 2.9-0.6 1.5-1.1 1.6-11.1 10.7-0.9 1.5-0.5 3.1-0.6 1.3-1.5 1-3.4 1.1-1.8 0.9-1.4 1.3-2.1 2.6-1.2 1.2-4.8 3.3-1.4 1.4-0.8 1.4-0.4 1.3-0.7 1.2-1.5 0.9-0.7-0.3-1.3-1.7-0.9-0.3-2 0.6-0.8 0-3.1-0.5-2.8 0.7-2.6-0.3-25.3-9.4-1.4-0.3-1.7 0.2-2.8 1.6-1.6 0.4-3-0.8-9.4-4.2-3.6-0.7-1.8 0.6-2.7 2.6-1.6 1.7-2 0.1-0.4-0.9 0.7-1.3 1.7-1.4 0.6-1 0.6-1.2 0.4-1.3 0.1-1.2 0.3-1.5 0.8-1.2 1.3-1.3-0.4-1.6-0.7-0.2-0.9 0.1-1-1.2-0.4-1.1-0.7-3.9-1.4-1.7-2.7-4.5-1.3-1.2-3.5 1.8-2.1 0.1-0.6-2.6-0.1-1.5-0.6-1-1.9-1.9-0.3-0.9 0.2-0.9 0.7-1.1 0.2-0.7 0.6-1 0.1-0.8-2.7-0.7-0.4-0.8 0.2-0.9 0-0.6 0.2-0.1-0.5-3.3-0.7-0.9-2.2-2.2-0.9-1.1-1.3-3.1-3.2-10.5-1.7-3.5-2.4-1.7-6.1-2-0.7-0.5z" id="GA2" name="Haut-Ogooué">
  </path>
  <path d="M666 657.1l-9.6-6.9-6.2-2.6-7.1 0.2-1.6 0.6-7.1 4.8-0.9 0.8-0.7 0.9-0.9 1.9-0.2 1.2-0.1 1.6-0.6 1.5-1.9 1-2.6-0.8-2.7-2.9 0.5-3.1-0.7-2.2-1-0.4-1.4-0.4-1.4-0.1-10.2 1-1.5-0.1-17.8-6.2-1.5-0.8-9-7.5-1.9-2.1-9.6-13.1-1.3-1-1.5-0.6-1.5-0.8-1.4-1.3-1.4-3.2-0.4-1.7-0.1-1.4 0.3-0.8 0.4-0.6 0.4-0.6 1.1-1 0.8-1.1 0.7-1.2 0.2-0.3 0.3-1.3 0.3-3.4-0.4-5.4-2.1-6.9-0.3-1.6 0-2.8-0.1-0.9-0.9-1.5-5.2-6.4-3-2.9-1.2-0.8-5.6-2.5-1.2-0.7-5.2-5.1-7.1-5-2.3-2.5-5.2-7.1-0.8-1.6-1.3-4.4-0.4-3.1 0.1-2.4 0.3-1.2-0.1-0.7-0.4-0.5-1.4-0.2-1.4 0.4-1.5 0.6-10 6.3-4.3 1-2.9 1.2-1.5 0.5-1.5-0.1-2.8-0.7-1.4-0.6-1.1-1.3-0.3-2.6 0.5-2.7 0.2-2.4-0.2-2.9-0.4-1.9-0.9-2.9-0.5-0.8-0.3-0.4-2.8-3-0.8-1.4-0.6-1.4-0.3-1.6-0.4-3.5-0.5-2.5-0.1-1.4 0.9-8.3 0.7-1.8 1.1-1.9 3.9-4.5 2.8-4.3 107.1-39.4 22.8-11.5 21.9-98.1 0.8-0.5 1 0.8 1 1.2 1.3 1.1 1.4 0.9 1.4 0.2 1.4-0.3 9.5-4.6 1.9 0.3 1.5 0.8 1.2 1.3 1.2 0.9 1.1 1.4 0.8 1.3 1.3 1 1.7 0.5 2.6-0.2 3.6 0.6 4.5 1.3 1.6 0.2 2.1-0.3 1.7-1 4.2-3.8 1.1 0.4 2.4 1.8 2.7 1.6 1.3 0.6 0.8 0.3 1.2 0.2 1.3 0 4.3-0.6 1.2 0.5 2 2 2.4 1.7 0.6 1.2 0.3 2.9 2.7 8.8 0.7 1.3 1 1.1 5.5 2.7 1.4 0.9 1.7 0.7 1.7 0.3 3.9-0.1 1.6 0.6 1.4 0.8 1.5 0.7 1.2 0.3 2.9 0-0.3 7.4-3.7 7.2-3.5 5-1 1.7 0.6 1 0.9 1 0.7 1.2 1.4 5.9 0.2 3.1 0.4 1.6 0.7 1.8 1.2 1 1.3 0.6 1.5 0.3 1.4 0.6 1.4 1.2 36.2 71.1 0.9 3.5-0.2 2.4-18.1 26.7-23.5 28.6-0.9 0.8-1.1 0.4-2.5-2.1-10.6-5.2-1.3 1.1 0.1 0.9 1.4 5.5 0.5 5.5-0.1 6-0.5 2.8-1.2 1.8-1.4 0.5-1.5 0.9-1.5 1.3-2.4 4.3-0.9 1-2.6 1-1.3 0.8-1.2 1.2-2.1 2.8-1.2 1.4-1.4 1.2-1.5 0.9-1.4 0.4-1.2 0.1-1.2-0.2-0.7 0-1.2 0.1-4.2 2.3-1.6 1.3-0.7 2.5-1.1 1.6-1.2 1.1-1.4 1-1.3 1.4-1.3 2-0.4 1.4-0.4 4.2-0.6 1.7-0.9 1.7-1.2 1.5-0.5 1.4-0.8 1.3-2.5 3.2-10.8 22.2-0.3 1.5 0.5 2.8 0.1 1.3-2.1 4.5-1 4-2 5.3-0.3 1z" id="GA7" name="Ogooué-Lolo">
  </path>
  <path d="M623.8 658.4l-1.8-1.8-1.6-0.4-0.5 1.9 1.2 15.7 1.2 5.9 3 4.6 5.7 2.6-0.6 2.5-2.7 4.1-1 2.2-0.3 2.2 1.1 6-1 4.1-2 5-1 4.7 1.6 3.2-57.6 12.4-4.5-0.5-4.4-3-5-6.2-2.6-1.9-1.5-0.9-4.5 2.3-6.2 1.9-5.2 1.1-3.2 1.3-4.9 4.5-2.5 1.4-2.4-0.2-2.6-1.4-4.9-3.8-1.1-1.3-0.6-1.2-0.9-1.2-2-1-7.3-2.2-5.4-0.2-0.3 0.1-1.2 2.9 3.2 8.4 0.5 3.2-1.1 8.1 0.1 2.5 1.1 3.1 3.7 5.9 1.4 3.2 0.7 3.7 0 3-0.7 3.1-1.3 3.6-10.6 17.3-0.3 1.1 0-0.1-10.2-13.1-11.6-12-11.4-9.2-8.4-9.5-2.8-2.5-0.7-1.3-2.7-10.1-0.7-1.4-1.2-1.4-12-7.3-1.2-1.2-0.8-1.3-0.4-1.4-0.3-1.5-0.4-1.4-0.8-1.5-1.1-1.3-1.5-1.2-1.6-0.8-2.1-0.6-62.8 8.1-5.9-9.3-2.1-2.4-0.7-0.4-0.6-0.5-0.5-0.6-3.9-5.8-0.9-2.1-2.7-10-0.3-0.7-0.5-0.6-2.7-1.9-1.2-1.4-0.8-1.6-0.5-2 0-1.7 0.2-1.5 1.8-4.8 0.3-1.4-0.5-1.5-1.5-1-2.9-1-3-2.5-6.1-3.3-1.4-0.1-1.4 0.8-1.3 1.1-1.4 0.7-1.5 0.3-1.6-0.1-10.2-2.5-2.9 0-1.5-0.7-1.6-1.5-1.5-0.8-3.3-2.3-4.6-1.2-4.7-2.5-7.2-2.4-3-0.4-4.8-0.1-1.3-0.2-1.3-0.6-1.4-1-1.3-1.3-4.8-5.9-0.8-1.4-1.8-4.5-0.8-1.5-2-2.7-2.1-2.2-0.2-1.3 1.4-1.4 1.2-1 0.9-1.3 0-1.4 0.4-1.6 1.4-1.7 1.4-0.9 1.5-0.4 1.4 0 1.3-0.3 1.3-0.6 1.2-1.9 1.3-3 0.9-4.5 0.2-2.6-0.2-2-1.6-7.5-0.2-2.9 0-2.8 0.5-1.6 0.9-1.6 10.2-9.8 2-4.2 0.8-5.8 12.5-12.8 4.3-2.8 2-0.8 2.2-0.6 3.6-0.3 2.3 0.3 3.5 0.7 8.5 0.2 1.7 0.9 1.6 1.5 1.1-1.2 0.5-1.3 0.3-1.3 0.7-1.2 1.5-0.6 0.8-1.2 0.4-1.2 0-1.4 0.3-1.4 0.8-1.3 1.3-1.2 1.9-2.7 0.8-1.5 0.2-1.4-0.3-1.4-0.8-1.1-0.6-1 0.1-0.7 0.2-0.5 0.7-0.6 5.3-2.5 1.2-0.7 0.7-0.8 5.8-10 0.4-1.4-0.4-2.9 0.1-1.3 0.5-2.9 1.3-4.6 0.9-1.3 1.4-1.2 7.3-4.4 1.7-1.5 1.4-1.5 4.2-6.2 1.1-1.3 1.3-1 1-0.9 0.4-1.2-0.4-1.4-1.8-2.7-0.1-1.2 0.8-0.6 3.4 0.7 1.6-0.7 1.1-0.9 1.5-0.6 1.5-0.2 2.1 0.3 1.6 0.6 1.2 1.4 0.8 1.4 1.3 1 1.6 0.3 1.9-0.5 1.3-1 1.8-2.5 1.3-0.8 1.5 0 3.1 2.1 1.3 0.4 1.2-0.7 2-2.4 1.3-0.9 1.5-0.7 2.9-0.8 26-1.5 5.9-1.3 1.7 0 2 0.4 22.3 17.2 8.4 4 8.5 3 4.7 0.7 12.7 0.5-2.8 4.3-3.9 4.5-1.1 1.9-0.7 1.8-0.9 8.3 0.1 1.4 0.5 2.5 0.4 3.5 0.3 1.6 0.6 1.4 0.8 1.4 2.8 3 0.3 0.4 0.5 0.8 0.9 2.9 0.4 1.9 0.2 2.9-0.2 2.4-0.5 2.7 0.3 2.6 1.1 1.3 1.4 0.6 2.8 0.7 1.5 0.1 1.5-0.5 2.9-1.2 4.3-1 10-6.3 1.5-0.6 1.4-0.4 1.4 0.2 0.4 0.5 0.1 0.7-0.3 1.2-0.1 2.4 0.4 3.1 1.3 4.4 0.8 1.6 5.2 7.1 2.3 2.5 7.1 5 5.2 5.1 1.2 0.7 5.6 2.5 1.2 0.8 3 2.9 5.2 6.4 0.9 1.5 0.1 0.9 0 2.8 0.3 1.6 2.1 6.9 0.4 5.4-0.3 3.4-0.3 1.3-0.2 0.3-0.7 1.2-0.8 1.1-1.1 1-0.4 0.6-0.4 0.6-0.3 0.8 0.1 1.4 0.4 1.7 1.4 3.2 1.4 1.3 1.5 0.8 1.5 0.6 1.3 1 9.6 13.1 1.9 2.1 9 7.5 1.5 0.8 17.8 6.2 1.5 0.1 10.2-1 1.4 0.1 1.4 0.4 1 0.4 0.7 2.2-0.5 3.1z" id="GA4" name="Ngounié">
  </path>
  <path d="M491 790l-1.4 5.5 0.7 3.4 2.5-0.4 5.9-4.1 4.1-1.3 2.9 1 2.4 2.6 5 7.3 11.1 11.8 2.1 3.3 0 3.2-3.6 2.2-3.3 0.3-2-0.2-1.6 1-1.9 3.6-0.7 2.5-0.1 10.1-0.3 0.8 0.3 0.6 1.2 1.2 1.2 0.9 8.2 3.4 3.1 1.8 5.8 4.9 5.3 2.5 6.9 1.9 5.6 2.6 1.5 4.7-1.9 3.1-6.3 4.7-2 3.5-8.2 19.6-0.4 3.4 1.4 3 3 1.8 3.4 1.1 2.8 1.5 1 3.1-1.1 3.3-2.6 3-3.1 2.4-2.6 0.9-0.3 0.2-2.7-0.1-8.4-2.4-2.9-0.3-7.9 1-3.1-1.1-2.5-2.6-11.5-18.7-5.4-4.1-7.2-1-4.1 2.7-2.7 4.5-3.2 4.1-5.5 1.9-6 1.2-4.7 2.9-4.3 3.5-5 3.3-3.7 3.2-2.4 4.6-9.7 26-2.2 4.2-2.9-1.8-3.5-2.2-7.1-7.5-2.3-9.4-1.3-2.5-1-2.7-0.5-2.8-0.2-3.4-3.1-3.3-4.8-3.6-17.8-15.1-23.4-16.2-1.2-6.5 0.2-2.3 0.8-2.5 0.5-3.3-0.5-2.8-1.4-2.7-2.1-1.7-3.2-1.9-4.2-3.2-2.5-1.2-0.5-2.8-5.5-6.1-1.9-2.3-2.7-2.8-4-4.2-15.3-12.9-18.5-14.4-7.4-6.1-18.8-13.7-8.8-7.4-2.4-1.9 5.4-1.5 0.2 0 43-12.5 2.9 0 1.3-0.6 1.4-2.2 0.6-1.7 1.2-6.1 0.5-1.6 1.1-1.5 1.4-1.6 2.7-1.6 1.8-0.7 1.5-0.4 1-0.7 0.1-1-0.3-1.1-2-3.2-0.4-1.4 0.3-1.6 0.9-1.7 1.9-2.4 1.5-3.6 4.9-4.3 20.8-10.3 62.8-8.1 2.1 0.6 1.6 0.8 1.5 1.2 1.1 1.3 0.8 1.5 0.4 1.4 0.3 1.5 0.4 1.4 0.8 1.3 1.2 1.2 12 7.3 1.2 1.4 0.7 1.4 2.7 10.1 0.7 1.3 2.8 2.5 8.4 9.5 11.4 9.2 11.6 12 10.2 13.1 0 0.1z" id="GA5" name="Nyanga">
  </path>
  <path d="M328.4 237.2l-0.8 20.6-2.2 7.3-1.7 2.9-2.1 5.6-0.5 2.8 0.1 2.1 2.3 3 0.8 1.4 0.6 1.3 1.2 4.3 0.7 1.3 1.2 0.3 2.1-0.4 75.7-26.2 1.3 0 0.6 0.4 1.4 5.8 0.4 3.1-0.3 10-0.3 1.9-1.4 4-0.7 3.4-0.4 1-0.3 0.6-2.2 1.7-0.7 0.8-0.2 0.4-0.2 0.4-1.6 5.9-0.5 1.2-1.1 1.7-0.6 0.7-0.5 0.9-0.3 0.7-0.5 1.7-0.2 0.5-1.7 3-0.6 1.4-3 10.7-0.5 3.8-0.2 1.2-0.3 0.6-0.4 0.7-0.5 0.5-0.8 0.6-0.3 0.8-0.3 1.4 1 4.9 0.1 1.6 0 0.8-0.2 0.8-0.8 1.7-1 1.3-0.6 0.5-0.3 0.3-0.9 1.3-0.9 0.8-2.7-0.5-0.6 0-0.6 0.1-4.4 2.1-2.2 0.4-0.9 0-5.8 0.8-2-0.1-0.9 0.4-0.3 0.4-0.2 1.4 0 2.1-0.3 1-0.5 0.9-0.5 0.7-2.6 2.3-0.3 0.4-0.5 0.9-0.1 0.4-0.1 0.4 0.1 1.2 0 0.6 0.4 1 1.3 2.7 0 1.2-0.6 1.4-4 2-1.2 0.9-1.6 1.9-3 3-2.4 1.4-1.7 2 0 0.4 0.6 1.5 0.5 2.9 0.2 1.4-0.1 0.6-0.6 0.6-0.6 0.3-1.2 0.3-1 0.5-0.4 0.8-0.1 0.7 0.1 0.8-0.7 0.7-17.5 13.7-1.8 1.1-2.7 1.1-10.4 6.2-1.6 1.5-4.9 6-3.2 2.7-17.6 11-13.2 5.5-2.5 0.2-0.8-0.9-0.3-1.3-0.3-2.8-0.5-1.4-1-4.3-0.6-1.4-1.1-1.2-1.3-0.8-1.4-0.5-2.7-0.2-1.4-0.5-1.5-0.7-1.4-0.4-1.5 0.3-1.4 1.5-1.2 1.4-1.8 1.9-2.5 1.7-4.5 2.5-2.4 0.3-1.7-0.5-2.9-2.5-1.4-0.3-2.5 1.6-3.6 1.8-1.4 0.2-4.3 0.2-1.5 0.4-5.9 2.2-5.6 2.9-1.5 0.4-1.1 0.6-0.8 1.3 2 18.6-0.8 3.6-6.7-8.2-4.7-3.2-4.8-2.3-1.4-0.3-2.7-0.2-1.9-1.2-2.1-2.1-7.5-10.1-1.3-2.8-3.3-12.2-1.9-1.9-0.1 0 0-10 1.1-3 3.2-6.5 0.7-2.9 0.2-1.6 0.6-3.1 0.1-1.8-0.3-1.3-1.7-3.7 0.2-1.9 0.5-1.7 0.8-1.5 1.1-1.4 0.7-1.4-0.3-1.2-0.6-1.2-0.4-1.1-0.2-3.1-5.1-27.5-1.6-4.7 0.4-1.3 0.8-3.8 0.3-0.8 0.6-0.5 4.6-4.1 1.6-0.4 1.4 1 1.3 2.9 0.6 3.5-0.3 3-1.4 5.4 0.3 1.7 0.6 1.5 0.1 1.2-1.5 0.5-0.8 0.6-0.3 1.5 0.2 1.7 0.4 1.3 1.3-1.2 0.7-1.3 0.9-1.1 1.6-0.4 4.8 0 0.7 0.5 0.8 1.9 3.8 3.7 1.3 2.8 0.5 5.5 1 0.8 1.1 0.8 1 0 0.5-1.6-0.8-6.2 0.2-2.6 1.5-2.6 7.2 2 1.8 1 0.8 1.5 1.2 5.1 1 1.4 0.6-1 4.1-4.1 1.3-1 2.2 0.1 1.3 0.9 1.5 3 7.2-1.2 5.3 5.4 4.5 7 4.7 3.7-5.3-9.7-2.1-2.7-0.4-2.4 2.8-1.3 3.8 0.2 2.3 2.1 1.8-1.1 2.6-3.5 1.6-1.6 5.1-3.2 1.8-0.6 2.4 0 4.2 1.6 2.4 0.5 2.1-0.2 5.9-1.9 0-1.1-7.3 0.2-2.9-0.9-2.8-2.3-2.2 1.5-2.7 1.3-2.9 0.9-11.2 0.7-1.9 0.7-6.5-2.3-1.9-1.2-2.1-2-1.2-0.6-4.6 0.1-1.6-0.7-6.9-5.2-5.1-3-2.1-2.1-0.8-2.9-1 0-0.8 1.7-0.8 0.5-1.8-0.3-1.2 0.4-3.3 1.4-1 0.2-1.2-1.6-0.8-5.2-1.6-1.1-2-2.1-7-16-1.8-2.7-4.1-4.5-2.7-1.4-2.5 0.2-2.3-0.1-1.9-2.2-0.1-2.2 0.5-8 1.1-1.7 3.1-0.4 3.3-0.6 1.6-0.7 3-1.7 1.5-0.6 1.9-0.2 1.3 0.3 1.2 0.5 2 0.3 1.2-0.3 2-1.4 2.6-1 2.3-1.4 2.6-1.2 2.8 0.3 2.3 2.4 1.1 3.3-0.5 3-2.5 1.4-6.3-1.4-3 0.4-2 2.9 3.3-1 4.3 0.3 3.4 1.8 0.8 3.9 1.8-0.6 1.2-1 0.8-1.5 0.2-1.9 1.8 2.4 0.2 4.2-0.7 4.1-1.3 2.2 1.4 4.1 1.2 1.3 2.4 0.6-0.6-2.3 0-3 0.7-2.6 1.3-1.1 1-1.3 1.4-6.3 1.2-2.3-2-2.9-0.5-2.9 0.5-7.2-1.5-17.2-5.1-13.6-0.4-3.5-0.7-2.3-1.2-1.5-0.8-1.7 0.7-2.9 1.8-3.1 1.9-1.5 2.2-0.4 2.6 0 2.6-0.7 1.4-1.8 0.9-2 1.5-1.4 2.6-0.5 8.5 0.2 2.3 0.8 1.9 3.1 1.3 6.2 1.3 3.1 1.2-2.4 0.6-1.9 4.3 0.5 2.2 0.9 2.4 1.7 3.8 4.3 2.4 1.8 2.6 1.1 2.5 0.4 2.3-0.5 1.8-1.7 0.5-1.9 0-4.3 0.8-2.1 2.8-0.4 4.2-0.5 15.9 0.1 40.1 0.1z" id="GA1" name="Estuaire">
  </path>
  <path d="M277.8 564.9l-0.8 5.8-2 4.2-10.2 9.8-0.9 1.6-0.5 1.6 0 2.8 0.2 2.9 1.6 7.5 0.2 2-0.2 2.6-0.9 4.5-1.3 3-1.2 1.9-1.3 0.6-1.3 0.3-1.4 0-1.5 0.4-1.4 0.9-1.4 1.7-0.4 1.6 0 1.4-0.9 1.3-1.2 1-1.4 1.4 0.2 1.3 2.1 2.2 2 2.7 0.8 1.5 1.8 4.5 0.8 1.4 4.8 5.9 1.3 1.3 1.4 1 1.3 0.6 1.3 0.2 4.8 0.1 3 0.4 7.2 2.4 4.7 2.5 4.6 1.2 3.3 2.3 1.5 0.8 1.6 1.5 1.5 0.7 2.9 0 10.2 2.5 1.6 0.1 1.5-0.3 1.4-0.7 1.3-1.1 1.4-0.8 1.4 0.1 6.1 3.3 3 2.5 2.9 1 1.5 1 0.5 1.5-0.3 1.4-1.8 4.8-0.2 1.5 0 1.7 0.5 2 0.8 1.6 1.2 1.4 2.7 1.9 0.5 0.6 0.3 0.7 2.7 10 0.9 2.1 3.9 5.8 0.5 0.6 0.6 0.5 0.7 0.4 2.1 2.4 5.9 9.3-20.8 10.3-4.9 4.3-1.5 3.6-1.9 2.4-0.9 1.7-0.3 1.6 0.4 1.4 2 3.2 0.3 1.1-0.1 1-1 0.7-1.5 0.4-1.8 0.7-2.7 1.6-1.4 1.6-1.1 1.5-0.5 1.6-1.2 6.1-0.6 1.7-1.4 2.2-1.3 0.6-2.9 0-43 12.5-0.2 0-5.4 1.5-8.6-6.5-25.7-31.9-3.2-5.5 2.7 2 4.1 4.4 3.1 1.6 3.4 0.4 2-1.3 1.8-2.3 2.7-2.8-0.3 2-0.7 1.6-0.4 1.6 0.5 1.8 0.7-0.3 0.6-0.4 0.4-0.6 0.3-0.7 0 2.7 0.4 2.7 1.2 1.5 2.3-0.9 5.2 1.8 0.8 0.7 0.3 0 2.2 3.3 0.5 3.2 1 0 0.3-1.4 0.5-0.7 0.8 0.1 1.4 0.9 0.2-0.5 0-0.3 0.1-0.1 0.7-0.1 0.4 5.3 0.6 1.7 1-1.1 1.1-0.6 1.3-0.3 1.5 0.1-0.5 2 0.6 0.5 1.3-0.6 1.6-1 1.1-1.2 1.1-2.7 0.8-1.1 2.1-0.8 3.2-0.4 3-0.1 1.7 0.3 3.8-0.4 1.3-0.7 0.8-1.8-2.8-1.6-1.1-0.4 0.3-2.8-2.8-1.4-3.6-1.4-1.9-2.4-1 0 1 2.6 2 7.4-2.1-0.3-1.1-1.1-0.7-1.1-0.6-0.5-1.2-0.7-1.6-2.7-1.2-0.6-1.1-0.2-1.8-0.6-1-0.2-0.6 0.4 0.1 0.8 0.2 1-0.2 0.7-1 1.1-0.9 1.4-0.7 1.4-0.4 1.2-2.1-0.9-1.8-1.1 0.5-1.5-0.8-3 0.3-1.5 1.3-0.7 1.7 0.1 1.4-0.2 0.5-1.2-1.7-1.4-3.7-1.2-4-0.7-2.6 0.2-3.2-6.7-0.3-1.1-1.5-1-0.7 0-0.3 1.5-0.5 0.1-2.1 1.1-0.3 0.2-3.7-0.8-3.4 2.6-3.3 3.2-3.4 0.9-1.4-0.7-1.4-1.4-0.9-1.6-0.4-1.7 0.3-0.5 1.7-1.6 0.5-0.3 0.8-0.4-1.1-0.9-1.6-0.8-0.6 0-0.2-1.2 0.2-1.1 0-1-0.9-0.6-1.2-0.2-1 0.1-0.6 0.5-0.3 1 1.8 3.4 0.5 2.2-1.3 1.8-2.3-1-6.1-7.3-2.5-1.6 1.4 2.1 3.2 3.9 1.3 2-3.3-2.2-3.8-3.7-3.3-4.3-1.5-3.8 0-0.8-1.1-3.3-0.9-13.2-1.1-2.1-14.4-14.2-3.9-2.2-4.4-5.2-2-1.7 0.4-0.6 0.6-1.4-3.2-0.8-1.8-2.6-2-5.5-6.1-6-0.9-1.5-0.7-0.2-1.4-1.3-1.2-1.3-0.2-0.7-1.5-0.7 0.3-1.4 1.1-0.9 0.6 0.5 1.1 2.7 2.7 2 3.2 1.1 3-0.3-0.3 0.5-0.2 0.2-0.2 0-0.4 0.4 1.9 0.7 1.1-0.7 1.1-3.1 0.9 0 1.1 3.1-0.9 0.2-0.6 0.5-0.4 0.6-0.1 1 0.5 0.9 1-0.6 0.7-1.1-0.2-0.6 7.4 0 4 1 2.1 2.4-0.4 2.9-3.2 2.7 1.7 1.9 0.9 0.7 0.9 0.3 3.1 0.3 0.8 0.2 0.4 0.9 0 2.5 0.2 1.1 3 2 0.1 0.7 0.7 1.7 0.8 1.2 0.3-1.1 0.5-0.7 2-0.8 0.5-0.5-0.4-2.6-0.9-2.9-1.3-2-1.3 0-1.6-1.8-3.6-2.5-0.8-1.6 1.7-2.6 1.4-0.9-0.2-1-4.8-8.1-2.7-2.8-1.4 1.4-2.3-1.3-0.7-0.7-0.5 1.4 0 1.4 0.5 3.2-2.7-2.2-3.7-6.8-2.5-1-1.1 0.9-0.7 1.7-0.4 1.7-0.4 0.7-1.3 0.5-0.8 1.2-0.3 1.5 0 1.8-1-1.1-1.1-0.7-1.3-0.3-1.6 0 1.6-2.9-0.3-1.6-3.3-2.4-3.2 2-2.1-0.7-1.3-2.9-0.3-4.3 0.1-1.7 0.6-2.5 0.1-1.2 0-6-0.2-1.6-1.3-3.3-0.4-1.6 0.1-4.5-0.1-1.5-2.5-6-3.3-4.6-8-8.3-18.2-25.4-1.4-2.5-1.4-3.6-1.3-3.2-0.7-3.1 2 3.9 1.4 4.3 1.8 2.6 2.8 3.1 2.3-0.2 2.2 1 1.8 1.7 1.5 4.6 3.4 3.5 0.8 2.9 0.9 1.4 4.6 5.7 2 1.2 0.8 1 7 5.6 1.2 0.7 4.3 1.2 1.4 18.1 0.9 2.2 1.7-0.8 0.4-1.4-1.3-2 0.4-1.1 1.3-0.6 1.1 0.6 0.8 1.2 0.3 1.3 2.1-2.5 3.4-2 3.9-1.2 3.6-0.3-0.9 2.3-0.2 2.4 0.9 2.1 2.1 1.2 1-4.9 0-2.4-1-1.7 4.6-0.6 12 1.6 4.3-1-6-2.3-2.3-1.7-1.7-2.9-1.3-5.4-0.2-3.2 0.6-2.4-1.2-0.4-2.8-1.6-0.7-0.1-1.8 0.1-1 0.4-0.1 0.9 0.6 2.2-0.2 1.5-0.5 0.7-0.6 0.5-3.6 4.9-3.4 2.3-3.9 1.2-4.7 0.4-1 0.2-0.9 0.3-1 0-1.1-0.5-0.8-1.1-0.2-2.3-1-2.2-0.1-1.3 0.1-2.6-0.6-0.8-1.3-0.3-1.4-0.2-0.8-0.2-0.2-2.3 1.1-1.5 2.2-0.9 2.5-0.3 1.2-0.8 0.3-2-0.6-2.1-1.4-1.1 0-0.9 1.3-0.4 3.5-0.3 1.1-0.4 1.2-1.4 0.7-2.8 2.3-4.2-0.5-2.5-2.7-5 0.8-0.9 0.2-0.7-0.6-0.6-1.4-0.8 0 2.9 1 7.6-0.4 1.5-1 1.5-1.5 1-1.5 0.4-1.3-0.4-1.2-2-1-0.5-2.4 0.8-1.4 2-1.2 2.2-1.5 0.9-6.9 1.3-2.4-0.3-1.7-1.9-0.4-3.1 0.2-2.8 0.4-1.2-0.3-0.2-1-0.9-0.5-0.9-0.7 0.2-0.9 0.6-1.4 0.6-0.3 0.5-0.6 0.4-1.8-0.3-2.2-1.2-5.1-3.8-2.2-0.9-1.7-1-1.3-2.4-0.4-2.9 1-2.7-0.4-0.5-0.3-0.4-0.3-1 2.8-2-0.7-3.4-2.5-3.4-2.7-2.2 1.8 4.4-0.8 3.9-0.5 1.4-0.9-0.2-0.5-1.5-1.1-8.9-2.4-6.4-14.4-18.5 3.7 3.5 2.1 1.1 2.2-0.8-2.1-0.8 0.9-2 1.2-1.7 1.1-1 0.8-0.3-1.7-0.7-4.3 2.8-2.5-0.6-0.9-2.3-1-3.6-1.1-2.5-1.4 1-1.1 0-1.2-5.2-0.8-1.8-2.2-3.7-3.8-8.7-3.1-5.3-1.9-7.6-4.5-5.8-3.4-10.7 2-3 1.1 1-1.3 2.8 1.6 1.3 4.6 0.9-0.6 1.3-0.1 0.9 0.2 0.7 0.5 1 3.2-0.1 2.1 3.5 1.3 5 0.6 6.1 0.8 2.1 1.4 1.7 2.1 0.7 1.1 1 0.3 2.1 0.7 2 2.4 0.7-1.3-2.5 0.1-2.4 0.7-2.6 0.5-2.8 0.8-2.1 1.9-0.2 2.6 0.6 2.5 0.1 0-1-1.4-0.6-1.5-1.2-1-1.5 0-1.7 1.1-1 1.4 0.2 3.5 1.6 1.4 2.1 1.1 2.4 0.5 2.3 1.1 2.8 5.2 4.9 1.7 2.6 0 3-1 5.1 1 2 1 0 0.6-2.7 0.4-8.8 0.8-2.8 3.4-3.7 0.8-2.4-0.1-2-0.3-0.9 0.3-0.5 1-1.1 0.9-0.6 2.4-0.8 0.8-0.5 0.3-1.5-0.2-1.6 0.1-1.3 1.7-0.7 2 3.9-0.3-3.4-1.7-2.3-1.2-2.4 1.2-3.8 8.6-7.7 2.6-5.2 13-14.3 3.6-5.6 2.1-6-0.1-8.8 0.1 0 1.9 1.9 3.3 12.2 1.3 2.8 7.5 10.1 2.1 2.1 1.9 1.2 2.7 0.2 1.4 0.3 4.8 2.3 4.7 3.2 6.7 8.2 9.5 30.3 5.9 7.9 3.1 1.5 1.9 1.1 1.3 1.1 0.6 0.3 1.5 1.5 0.8 1.6 1.2 1 1.4 0.5 1.5 0.1 3.9-0.3 0.8 0 1.2 0.3 5.5 0.3 2.9-0.2 1.4 0.3 1.8 1 5 4.1 1.2 1.9 0.6 1.7-0.1 1.4-1.1 2.6 0 1 0.1 0.8 2.4 5.6 0.3 1.5-0.1 1.5-0.2 1.6-1 2.9-3.8 7.1-0.3 1.4 0.1 1.3 1.3 1.6 9 8.2 1.3 0.8 1.2 0.5 0.8 0.3 6.7 1.1 2.4 1.1z m-155.2-91.1l5.3 1.1 1.1 5-0.5 6.1 0.1 4.6-2.5 1.7-2.1 1-2-0.2-2.3-1.5-1.3-1.9 0-1.8 0.4-2 0-2.2-0.6-1.3-2-2.1-0.5-1.6 0-1.6 0.3-1.1 1.7-2.2 1.6-1.6 3.1-1.9 1.3-1.6 0.8 1.5 0 1.1-0.6 0.9-1.3 0.5 0 1.1z" id="GA8" name="Ogooué-Maritime">
  </path>
  <path d="M385.3 349l112.6 0.3-0.7 4.6 0.3 2.1-0.6 1.9-0.8 1.6-2.8 2.3-1.7 1.1-2.1 1.8-1.6 0.6-2.5 0.5-20.4 10.6-2.1 2-3.7 2.6-1.2 1.5-1.2 4.5-2.5 4.6-0.3 1.4 0 1.3 0.5 1.2 0.5 0.7 0.8 0.8 1.2 0.3 1.4 0.2 1.3 0.4 0.9 1 0.5 1 1.2 4.9 0.6 6.6-0.5 4.1 0 3.5 0.3 1.4 0.4 1.4 0.8 1.4 7.5 11.3 0.8 1.5 0.4 1.9 0.1 2.3-0.1 3.7 0.3 2.2 2.3 7.5 0.8 1.6 1.2 1.4 5.4 4.5 1.3 1.3 1.7 2.6 2.2 4.7 2.3 11.7 0.5 1.5 4.4 9.1-12.7-0.5-4.7-0.7-8.5-3-8.4-4-22.3-17.2-2-0.4-1.7 0-5.9 1.3-26 1.5-2.9 0.8-1.5 0.7-1.3 0.9-2 2.4-1.2 0.7-1.3-0.4-3.1-2.1-1.5 0-1.3 0.8-1.8 2.5-1.3 1-1.9 0.5-1.6-0.3-1.3-1-0.8-1.4-1.2-1.4-1.6-0.6-2.1-0.3-1.5 0.2-1.5 0.6-1.1 0.9-1.6 0.7-3.4-0.7-0.8 0.6 0.1 1.2 1.8 2.7 0.4 1.4-0.4 1.2-1 0.9-1.3 1-1.1 1.3-4.2 6.2-1.4 1.5-1.7 1.5-7.3 4.4-1.4 1.2-0.9 1.3-1.3 4.6-0.5 2.9-0.1 1.3 0.4 2.9-0.4 1.4-5.8 10-0.7 0.8-1.2 0.7-5.3 2.5-0.7 0.6-0.2 0.5-0.1 0.7 0.6 1 0.8 1.1 0.3 1.4-0.2 1.4-0.8 1.5-1.9 2.7-1.3 1.2-0.8 1.3-0.3 1.4 0 1.4-0.4 1.2-0.8 1.2-1.5 0.6-0.7 1.2-0.3 1.3-0.5 1.3-1.1 1.2-1.6-1.5-1.7-0.9-8.5-0.2-3.5-0.7-2.3-0.3-3.6 0.3-2.2 0.6-2 0.8-4.3 2.8-12.5 12.8-2.4-1.1-6.7-1.1-0.8-0.3-1.2-0.5-1.3-0.8-9-8.2-1.3-1.6-0.1-1.3 0.3-1.4 3.8-7.1 1-2.9 0.2-1.6 0.1-1.5-0.3-1.5-2.4-5.6-0.1-0.8 0-1 1.1-2.6 0.1-1.4-0.6-1.7-1.2-1.9-5-4.1-1.8-1-1.4-0.3-2.9 0.2-5.5-0.3-1.2-0.3-0.8 0-3.9 0.3-1.5-0.1-1.4-0.5-1.2-1-0.8-1.6-1.5-1.5-0.6-0.3-1.3-1.1-1.9-1.1-3.1-1.5-5.9-7.9-9.5-30.3 0.8-3.6-2-18.6 0.8-1.3 1.1-0.6 1.5-0.4 5.6-2.9 5.9-2.2 1.5-0.4 4.3-0.2 1.4-0.2 3.6-1.8 2.5-1.6 1.4 0.3 2.9 2.5 1.7 0.5 2.4-0.3 4.5-2.5 2.5-1.7 1.8-1.9 1.2-1.4 1.4-1.5 1.5-0.3 1.4 0.4 1.5 0.7 1.4 0.5 2.7 0.2 1.4 0.5 1.3 0.8 1.1 1.2 0.6 1.4 1 4.3 0.5 1.4 0.3 2.8 0.3 1.3 0.8 0.9 2.5-0.2 13.2-5.5 17.6-11 3.2-2.7 4.9-6 1.6-1.5 10.4-6.2 2.7-1.1 1.8-1.1 17.5-13.7 0.7-0.7-0.1-0.8 0.1-0.7 0.4-0.8 1-0.5 1.2-0.3 0.6-0.3 0.6-0.6 0.1-0.6-0.2-1.4-0.5-2.9-0.6-1.5 0-0.4 1.7-2 2.4-1.4 3-3 1.6-1.9 1.2-0.9 4-2 0.6-1.4 0-1.2-1.3-2.7-0.4-1 0-0.6-0.1-1.2 0.1-0.4 0.1-0.4 0.5-0.9 0.3-0.4 2.6-2.3 0.5-0.7 0.5-0.9 0.3-1 0-2.1 0.2-1.4 0.3-0.4 0.9-0.4 2 0.1 5.8-0.8 0.9 0 2.2-0.4 4.4-2.1 0.6-0.1 0.6 0 2.7 0.5z" id="GA3" name="Moyen-Ogooué">
  </path>
 </g>
 <g id="points">
  <circle class="-3.6238885889049346|8.985738417256641" cx="120.9" cy="909" id="0">
  </circle>
  <circle class="-1.1201481294221218|11.887450049742219" cx="542.1" cy="545.3" id="1">
  </circle>
  <circle class="2.0095274449313933|14.20881935573068" cx="879.1" cy="90.9" id="2">
  </circle>
 </g>
 <g id="label_points">
  <circle class="Wouleu-Ntem" cx="548.4" cy="139.3" id="GA9">
  </circle>
  <circle class="Ogooué-Ivindo" cx="760.7" cy="286" id="GA6">
  </circle>
  <circle class="Haut-Ogooué" cx="820.2" cy="590.7" id="GA2">
  </circle>
  <circle class="Ogooué-Lolo" cx="647.8" cy="522.8" id="GA7">
  </circle>
  <circle class="Ngounié" cx="420.1" cy="615.1" id="GA4">
  </circle>
  <circle class="Nyanga" cx="419.1" cy="821.2" id="GA5">
  </circle>
  <circle class="Estuaire" cx="272.3" cy="300.9" id="GA1">
  </circle>
  <circle class="Ogooué-Maritime" cx="172" cy="522.4" id="GA8">
  </circle>
  <circle class="Moyen-Ogooué" cx="400.2" cy="409.4" id="GA3">
  </circle>
 </g>
</svg>