<?xml version="1.0"?>
    
<!--********* Copyright (c) 2024 Pareto Softare, LLC DBA Simplemaps.com ***************************************
************* Free for Commercial Use, full terms at  https://simplemaps.com/resources/svg-license ************
************* Attribution is appreciated! https://simplemaps.com *******************************************-->

<svg baseprofile="tiny" fill="#6f9c76" height="258" stroke="#ffffff" stroke-linecap="round" stroke-linejoin="round" stroke-width=".5" version="1.2" viewbox="0 0 1000 258" width="1000" xmlns="http://www.w3.org/2000/svg">
 <g id="features">
  <path d="M760.3 106l-0.1 0-4.6 3-1.2 1.3-1.4 1.9-0.6 2.3-1.5 4.1-1.2 2-1.2 1.4-5.3 3.6 7.3 15.8 1.8 1.2-4.4 2.5-1.2-0.7-1.3-0.5-2.2 1.3-2.1 1.9-6.7 15-1.3 4-8.6-8.1-3.5-1.3-9.8 2.5-11.1 1.3-11.1-1.3-10.1-4.3-8.4-7.6-6.1-8.5-3.2-2-6.2-1.2-5.5-1.8-10.1-6.2-4.6-1.4-11.5-0.9-10.2-2.7-19.8-10.1 0-0.1-0.1 0-15-11-13.6-12.8-8.3-5.4-6.9 2.8-6.3 6.6-0.1-0.1-0.6-0.5-1.8-0.3-2.3 0.5-3.7 2.7-7.5 3.5-19.1 11.3-0.7 2.6-0.6 0-17.8-13-3.5-8.7 0.5-14.3 0.9-4.4-3.4-1.9-10.5-0.6-2.3 0.2-5.3-0.2-13.6-2-4.2-0.2 0.4-2.1 2.4-6.9 3.1-6.5 3.3-5.3 9.4-10.2 12.8-9.4 14-5.3 13.1 2.1 2.8 2.7 5.8 7.8 2.6 1.9 6.4-1.5 22.8-14.6 22-8.2 6.4 0.3 18 6.9 30.5 1.4 11 3.7 5.8 4.6 4.9 4 3.8 5.3 2.7 5.8 5.9 20.1 2.1 2.4 12.4 7.6 4.2 1.5 3.7-1.2 18.6-10.4 12.2-3.3 12.4 0.9 13 6.1 5.8 4.7 4.1 5.2 2.9 5.9 4 13.5 2 4.2 3 3.3 2.5 1.8z" id="GMM" name="Central River">
  </path>
  <path d="M447.5 67.2l4.2 0.2 13.6 2 5.3 0.2 2.3-0.2 10.5 0.6 3.4 1.9-0.9 4.4-0.5 14.3 3.5 8.7 17.8 13-0.6 4.7-2.2 4.1-3.2 3-3.3 1.1-5.7-0.6-10.3-2.9-4.7-0.7-4.3-1.5-5-3.6-7.3-6.6-2.7-1.3-2.7 0.5-2.6 1.1-2.4 0.6-2.7-0.6-2.4-1.5-1.8-1.5-1.3-0.6-4.2-1-3.4-1.8-3.9-0.8-6 1.6-3 2.5-4.5 6-3 2-5.1 0.2-8.2-3.9-5.2-0.6-5.5 1.3-13.3 7.2-10.8 3.3-96.7 7.6-9.5-3.4-6-1-5.7 1.3-5.4 3-8.5 6.3-12.6 12.9-2.9 2.2-2.3 1-2.3 1.9-2.3 0.9-2.5-1.9-0.2-2.3 0.9-3.2 0.5-3.7-1.2-3.5-5.1 4.7-0.7 2.5 1.8 3.6-3 1.5-1.3 0.4 0 2.1 1.5 0.4 1.4 1 1.4 0.5-5.9 3.1-10.3 1.5-10.4 0.4-6.5-0.5-23.4-5.8-9.8-0.6 1.8-2.7 3.7-7.7 0.7-3.3-0.7-4.3-3-6.1-0.6-2.4-1.3-2.1-5.5-4.2-1.9-3.5-3-1.8-0.7-1.2 0-6.3 2.6-13.1-0.3-4.9-1.7-4.1-2-3.1 18.9 0.1 18.7 0.1 18.8 0.1 18.7 0 18.8 0.1 18.7 0.1 18.8 0.1 12.3 0 6.4 0 18.8 0.1 18.7 0.1 18.8 0 18.7 0.1 18.8 0.1 18.7 0 18.8 0.1 18.8 0.1 14.7 0 4.8-1.6 0.6-12.3 0.7-4.2z" id="GMN" name="North Bank">
  </path>
  <path d="M760.3 106l21.9 15.7 7.2 3.5 5.6 0.7 5.2-1.2 17.7-6.4 16.8-10.5 5.7-2.5 17.4-4 14-7.2 6.1-1.5 3.2-0.1 5.3 0.4 3.1-0.5 3.6-1.5 6.1-3.7 4.1-0.6 6.3 1.1 7.7 2.7 7.2 3.7 5.1 4.1 1.6 2.7 1.9 5.9 1.6 2.6 0.6 0.6 2.1 1.8 6.9 4.1 3 2.5 7.2 14.7-1.1 15.9-8.6 13.1-15 6.6-22.8 2-12.1 3.2-12.2 0.2-12.9 4.7-5.3 0-4.5 2-14.5 11-6.6 3.3-8.7 0.3-16.4-3.1-17.2 1.5-8.1-0.6-7.9-2.3-11.1-5.7-3.2-2.2-2.8-2.6-2.3-3.1-3.4-3.5-4-1.2-9.5-0.4-4.4-1.2-4-2.3-2.8-2.6 1.3-4 6.7-15 2.1-1.9 2.2-1.3 1.3 0.5 1.2 0.7 4.4-2.5-1.8-1.2-7.3-15.8 5.3-3.6 1.2-1.4 1.2-2 1.5-4.1 0.6-2.3 1.4-1.9 1.2-1.3 4.6-3 0.1 0z" id="GMU" name="Upper River">
  </path>
  <path d="M543.1 92.6l-6.8 7.1-4.2 6.9-1.2 19.2-1.8 8.6-6.2 8.1-8.7 5.8-9.9 3.7-9.8 1.8-11.1 0-33-7-9.4-0.5-7 2.7-7 3.8-9.1 3.1-4.9 0.5-20.4-2-3.8 0.1-13.6 4.3-21 2.1-3.5 1.9-1.2 4.4-0.5 22-0.2 0-44-9.6-2.4-0.1-8.2 2-6.1 0.7-2.2 0.6-2.2 0.3-1.8-0.2-2.9-1-2.2-0.3-3.1 1.4-2.1 3.5-1 1.1-1.8 0.1-2.3-1-3-2.8-1.1-2.3-0.4-2-0.5-1.5-1.2-1.4-5.8-0.6-4.2 2.1-3.3 0.4-3.1 1-2.8 1.8-2.4 2.4-2.9 2.1-1.3-1.8-1.4-8.5-0.1-3.5-0.7-3-1.9-1.3-1.5-0.7-0.9-1.9-0.6-2.4-0.2-2.6 1-5.7 2.5-3.9 12.1-10.1 2.2-2.4 1-3.3 1.3-1.5 2.9 0.5 5 2 42.3 2.3 16.2-3.8 5.7-0.6 3.3 0.2 1.8 0.3 1.5 0.1 2.8-0.6 2.3-1 1.6-1.3 1.2-1.3 0.9-0.6 6.6-0.4 19.5 2.3 6.2-0.7 17.6-5.5 2.8-1.6 5.7-4.1 2.8-0.8 2.9 1 4.3 4.5 3 1 4.2 0 3.2-0.5 2.9-1.3 3.4-2.4 2.6-3.1 4.8-7.5 2.9-2.1 3.6-0.2 3.8 1.2 3.4 1.9 2.7 2.2 3.1 1.4 3.2-0.5 3.2-1.3 2.8-0.7 5.7 1.7 3.7 3.8 2.8 4.3 3.2 3.1 10.4 3.5 13.3 0.8 10.8-4.5 3-12.7-1.6 0 0.7-2.6 19.1-11.3 7.5-3.5 3.7-2.7 2.3-0.5 1.8 0.3 0.6 0.5 0.1 0.1z" id="GML" name="Lower River">
  </path>
  <path d="M349 189.2l-0.1 4.8-0.6 22.1-2 1.5-11.3-0.1-8.1-0.1-19.4-0.1-39.3-0.4-66.8-0.6-45.9-0.4-49.8-0.5-13.1-0.1-10.5 2.4-4.5 7.5-0.9 3-4.8 4.7-1.9 2.6-1.1 3.4-0.5 7.2-4.6-4-4.6-1.6-0.8-2.2 1.3-2.5 2.1-4.5-0.5-4.7-5.9-15.3-0.2-3.7 0.7-14.5-0.7-4-1.7-4.2-5.1-5.9-1.4-4.1 2.4-5-1.1-1.6-2.8-7 2.7-3.3 3.2-9.6 3.2-2 3.6-0.8 4-2.2 3.4-2.8 8.2 11.1 9.5 9.8 12.4 1 13.3-9.8 7.2-5.9 2.1 9.3-0.7 5.2 11.1 13.2 2.5 1.8 15.3 0.7 4.3 1.2 3.9 2.5 2.4 2.2 3.1 1.5 6.1 0.5 3 2.1 1.7 4.8 0.1 5.6-1.8 4.3 6-5 2.7-0.2 3.9 3.1-1.8-3.2-5.5-5.6-1.1-0.8-0.8-4-2.1-2.6-3.3-1.1-4.2 0.3 0-2.1 8.9 0.2 4.2-0.6 3.6-1.9 3 6.2 3.5-1.3 4.1-4.4 4.9-2.4 5.6-1.7 11.1-7.4 6.1-1.7 8.4 2.6 1.3 6.2-1.3 7.1 0.7 5.5 5.4 1.5 7.4-2.2 10.3-5.7 0-2.3 4.2-2.1 5.8 0.6 1.2 1.4 0.5 1.5 0.4 2 1.1 2.3 3 2.8 2.3 1 1.8-0.1 1-1.1 2.1-3.5 3.1-1.4 2.2 0.3 2.9 1 1.8 0.2 2.2-0.3 2.2-0.6 6.1-0.7 8.2-2 2.4 0.1 44 9.6 0.2 0z" id="GMW" name="West Coast">
  </path>
  <path d="M116.2 146.8l-7.2 5.9-13.3 9.8-12.4-1-9.5-9.8-8.2-11.1 17.7-21.8 7.7-6.5 0.6 3.2 1.7 2.3 2.6 1.7 3.1 1.5 5.4-2.8 5.3-0.3 4.7 1.9 3.2 3.3 1.6 5.6-3.3 1-5 0.3-3.4 3.7 4.7 4.2 4 8.9z" id="GMB" name="Banjul">
  </path>
 </g>
 <g id="points">
  <circle class="13.10275760877073|-16.67915186376441" cx="90.9" cy="234.4" id="0">
  </circle>
  <circle class="13.404747842518539|-15.173657474773446" cx="545.5" cy="140.7" id="1">
  </circle>
  <circle class="13.7822356347033|-13.969261963580674" cx="909.1" cy="23.5" id="2">
  </circle>
 </g>
 <g id="label_points">
  <circle class="Central River" cx="612.9" cy="71.2" id="GMM">
  </circle>
  <circle class="North Bank" cx="283" cy="106.6" id="GMN">
  </circle>
  <circle class="Upper River" cx="860.8" cy="140.1" id="GMU">
  </circle>
  <circle class="Lower River" cx="320.6" cy="158.4" id="GML">
  </circle>
  <circle class="West Coast" cx="203.1" cy="194.7" id="GMW">
  </circle>
  <circle class="Banjul" cx="90.1" cy="140.7" id="GMB">
  </circle>
 </g>
</svg>