<?xml version="1.0"?>
    
<!--********* Copyright (c) 2024 Pareto Softare, LLC DBA Simplemaps.com ***************************************
************* Free for Commercial Use, full terms at  https://simplemaps.com/resources/svg-license ************
************* Attribution is appreciated! https://simplemaps.com *******************************************-->

<svg baseprofile="tiny" fill="#6f9c76" height="751" stroke="#ffffff" stroke-linecap="round" stroke-linejoin="round" stroke-width=".5" version="1.2" viewbox="0 0 1000 751" width="1000" xmlns="http://www.w3.org/2000/svg">
 <g id="features">
  <path d="M595.4 486.6l-0.1-0.8-1.5-1.2-2.8-0.8-4.9-0.5-5.1 0.2-4.4-1.4-0.8-4.5 1.3-5.3 2.2-3.9 1.2-0.9 1.4-0.6 1.3-0.8 0.9-1.4 0.2-1.2-0.5-2.1 0-1.1 0.5-1.5 0.8-1.4 0.4-1.4-0.1-1.5-5.3-4.6-1.2-0.6-1.7-1.1-1.4-1.3-1.5-2.2-1.1-0.3-1.3 0-1.2-0.1-0.8 0.1-2.2-0.1-1.5-0.5 1.2-1 1.3-1-0.3-0.7-1.9-1.2-1.8-2-1.4-1.9-0.5-2.2 0.7-3.1 0.1-1.8-0.9-0.8-1.3-0.6-0.9-1.1-0.6-3.4-0.4-1.1-1.2-1.2-3.1-2.2-0.9-1.2-0.9-3.3-0.5-0.9-0.8-0.7-2-0.7-0.7-0.4-0.7-1.2-1.5-4.2-2.9-5.6-4.2-5.5-5.1-4.9-9.1-5.8-0.9-1.5-1.7-8.2-0.8-2.7-1.4-1.2-1.7-0.2-4.1-1.2-3.2-0.3-21.6 0.1 3.3-8.3 3.7-13.1 1.9-28.4 9.2-3 6.6-5.6 10.7-1.2 6.6-6 10.7-10.8 8.8-3 8.1-3 4.4 1.5 4.4 4.5 10 0.7 9.2-1.1 3.7-4.5 3-1.8 1.6 1.8 0.8 1.2 0.2 0.9 0.1 1-0.1 1.2 0.2 0.8 0.3 0.8 0.5 0.5 0.5 0.3 0.7 0.2 2.7 0.2 0.9 0.3 0.8 0.5 0.7 0.5 5.7 6.3 1.3 0.7 0.6 0.4 1.7 1.9 1-0.3 1.1-0.2 0.9-0.5 0.6-0.8 0.4-1.1 1.2 0.4 3.5 0.4 2.4 0.1 1-0.2 4.7-1.1 1 0.4 0.8 0.8 1.3 0.9 1.8 0.5 3.3-0.2 1.6 0.6-1.5 1.3 0.2 1.2 2.6 2.2 0.5 0.9 0.9 2.4 0.3 0.6 1.1-0.4 0.2-1 0-0.9 0.4-0.4 0.9-0.4 2.9-2.2 0.7-0.8 0.4-2.2-0.1-2 1.1-0.6 0.5 0.3 0.4 3.5 0.2 0.5 0.2 0.5 0.4 0.5 0.2 0.7-0.1 0.9-1 1.5-0.7 0.8-0.6 0.8-0.3 0.8 0 1.4 0.3 0.8 0.3 0.6 0.4 0.4 0.2 0.7-0.3 1.2-4 8.1-0.9 1.2-0.8 0.3-0.8 0.1-1.6-0.1-2.6-0.6-0.5 0.3-0.2 0.6 0.1 1.2 0.1 0.8 0.1 1.2-0.6 3.7 0 1.2 0.2 1 0.2 0.6 0.6 2 0.7 1.1 0.3 0.5 0.7 1 0.2 0.6 0 0.9-0.2 1.1-1.1 2-0.8 0.9-0.7 0.7-1.1 0.5-0.5 0.6-2.7 4-1.4 1-0.4 0.4-0.4 0.5-0.4 0.5-0.4 0.4-0.5 0.4-0.5 0.2-0.6 0.2-1.3-0.1-0.6 0-0.4 0.6-0.3 0.9 0.1 2.8-0.1 1.1-0.3 1-0.7 1.3-0.5 0.8-1.1 0.9-0.6 0.8-0.2 0.6-0.1 0.5 0 0.7 0.2 1.3 1.1 2.7 0.2 0.7 0.3 2.3 0.2 0.7 0.7 1 0.5 1.2 0.6 1.1 0.2 0.7-0.1 0.8-0.3 1-1.7 2.8-0.5 0.3-0.6 0.2-1.6 0.2-0.7 0.2-0.5 0.7-0.4 1.2-0.2 4 0.2 1.1 0.2 0.6 0.4 0.5 0.2 0.5 0.1 0.5-0.5 0.4-1.4 0.6-0.5 0.4-1 1.2-1.2 0.8-0.5 0.3-0.4 0.5-0.3 0.5-0.2 0.8 0 1.3 1 6.1 0 1.8-0.3 3.1-1 2.9-0.5 7.1 1.9 5.6 2.2 5.3 1.1 10-1.5 11.6-5.1 3.7-3.4 4.5-2.1 5.1-1.1 4.8-1.4 3.9-0.4 0.7-1.8 1.6-6.7 4.6-2.7 1.5z" id="GNFA" name="Faranah">
  </path>
  <path d="M409.6 383l-3.9 0.8-2.1-0.1-2-0.4-2.3-0.9-2.9-1.8-2.3-2-2.2-1.4-2.8-0.1-18.4 3.9-5.6 2-4.4 2.6-0.7 1.2-0.1 0.7 0.2 0.9 0 1.3-1.7 9.2 0.1 0.4 0.4 1.4 0.1 0.6-0.4 0.3-0.6-0.1-0.6 0-0.3 0.6 0.1 1.5-0.2 0.5-0.4 0.1-3.8 2.3-1.1 1.2-2 3.5-0.4 0.4-6.4-2-7-3.4-19.2-0.4-6.9 1.9-7.4 4.1-4.8 3.7-2.9 4.5-5.2 2.6-0.4-5.2-1.8-5.6-5.5-7.1-5.2-1.9-4.8-3-1.4-5.2 2.5-3.7 1.9-4.1-1.1-10.9-2.6-3-5.2-4.5 4.8-4.8 1.1-3.4 3.7-3.3 5.9-2.3 0-9.7 2.9-3 2.3-3.7-0.8-4.2-1.8-2.6 0-13.5 11-2.6 13.6-4.1 4.6-1.4 5.4-1.6 1.8-4.6 1.4-0.2 1.6-0.4 1.2 0.4 1.9 1.5 2.1 1.1 1 0.6 0.8 0.7 2.6 1.6 2.5 0.7 1.4-0.5 1-1 1.3-2.6 1.7-1.4 2.5-1.7 4.9-1.9 4.7-2.4 5.8-5.7 1.4-0.9 0.9-0.3 0.6 0 0.9 0.5 0.3 3.2-0.8 2.6 0.2 1.3 0.6 1 1.5 0.8 0.9 0.4 2.3 0.7 1.2 0.4 0.8 0.8 0.4 2.4 0.6 1.1 1.5 0.7 1.9 1.1 2.1 2.1-2.3 2.6-0.4 0.6-0.2 0.9 0.1 2.1-0.2 1.3-0.8 2.6-1.1 2.4-0.4 1.4 0 1.7 2 7.9 0.3 0.6 0.5 0.5 1 0.4 1.2 0.1 1.2 0 1.1-0.1 3.6-1.3 1.3-0.2 1.3-0.1 1.2 0.2 3.4 0.8 1.7 0.1 0.9 0 1.3-0.3 0.4-0.1 0.4 0.1 0.5 0.3 0.9 1.4 5.2 10 7.4 9.6 0.3 1.3 0.2 1.9-0.1 4.2-0.2 1.9-0.3 1.3-1.8 4.1-0.4 1.2 0.1 1.2 1.5 4.8 2.6 5.3 0.1 0z" id="GNKD" name="Kindia">
  </path>
  <path d="M409.6 383l-0.1 0-2.6-5.3-1.5-4.8-0.1-1.2 0.4-1.2 1.8-4.1 0.3-1.3 0.2-1.9 0.1-4.2-0.2-1.9-0.3-1.3-7.4-9.6-5.2-10-0.9-1.4-0.5-0.3-0.4-0.1-0.4 0.1-1.3 0.3-0.9 0-1.7-0.1-3.4-0.8-1.2-0.2-1.3 0.1-1.3 0.2-3.6 1.3-1.1 0.1-1.2 0-1.2-0.1-1-0.4-0.5-0.5-0.3-0.6-2-7.9 0-1.7 0.4-1.4 1.1-2.4 0.8-2.6 0.2-1.3-0.1-2.1 0.2-0.9 0.4-0.6 2.3-2.6-2.1-2.1-1.9-1.1 6.9-4.1 5.9-4.9 4.4-2.2 9.5-1.5 3-5.3 8.8-9 8.9-6.7 9.9-2.3 10.7-0.7 4.8-2.3 2.5-5.6 2.6-6-0.7-9-3.4-4.2 3.4-1.5 5.5-0.9 5.4-0.4 4-0.7 2.1-1.5 3.5-3.4 0.3-0.5 5.3-5.8 0.8-1.7 7.7-4.4 1.3-1.1 0.7-1.5 0.3-4.4 0.5-1.5 0.9-1 1.4-0.3 1.2-0.2 0.8-0.2 1-0.6 0.8-0.8 0.5-1 0.7-0.6 1.4 0.7 1.5-1.2 1.5 0.4 1.6 0.8 2.1 0 1.3-1.2 2.1-3.9 2.5-2 4.3 5.5 2.7 6.7 0 5.5-7.7 5.6-13.6 9.4-8.1 0-11.4 9.7-0.9 0.9-0.6 0.4-1 1.4 1.7 8.3 0.1 4-0.5 5.1-0.4 0.8 1.4 1.2 3.8 1.7 0 7.6-1.6 45.2 0.1 16.2-0.8 6.7-2.7 3.9-1.6 11 2.4 9.3-39.6 0.2-0.4 5.8-0.2 1.8-0.8 1.1-23 5.1z" id="GNMM" name="Mamou">
  </path>
  <path d="M594.8 285.8l-3 1.8-3.7 4.5-9.2 1.1-10-0.7-4.4-4.5-4.4-1.5-8.1 3-8.8 3-10.7 10.8-6.6 6-10.7 1.2-6.6 5.6-9.2 3-1.9 28.4-3.7 13.1-3.3 8.3-4.4 0-12.5 0.1-2.4-9.3 1.6-11 2.7-3.9 0.8-6.7-0.1-16.2 1.6-45.2 0-7.6-3.8-1.7-1.4-1.2 0.4-0.8 0.5-5.1-0.1-4-1.7-8.3 1-1.4 0.6-0.4 0.9-0.9 11.4-9.7 8.1 0 0.9 4.4 27.2 0.4 2.6 3 4 4.5 7 2.6 7-1.9 13.7-9 9.9-7.1 9.2-1.9 6.7-1 1.1 1.6-0.2 1-1.9 4.5-0.8 1.3-0.8 0.8-0.6 0.2-1.1 0.7-1.1 1.2-0.9 1.2-0.7 0.6-0.7 0.4-1.2 0.5-0.4 0.2-1.7 1.9-0.5 0.9-0.4 0.9-0.9 3.4-1.1 2.9-0.7 1.2-0.8 0.7-1.5 0.3-1.2 0.5-1.7 1-3.1 2.2-0.7 1.1-0.2 1.1 0.2 1.2 0.5 1.2 0.8 1.1 1 1.1 1.6 1.1 16.3 5.2 1 0.8 0.6 0.3 0.7 0.2 1.7 0.1 0.7 0.2 0.7 0.5 1.2 1.5 0.5 0.5 3.1 1.4 0.5 0.6 0.5 0.6 1.7 2.9 0.4 0.5 3 2.9z" id="GNDB" name="Dabola">
  </path>
  <path d="M289.5 422.6l5.2-2.6 2.9-4.5 4.8-3.7 7.4-4.1 6.9-1.9 19.2 0.4 7 3.4 6.4 2-0.1 5.3-0.5 1-1 0.1-1.2-0.1-1.2 0.4-0.5 1-1.1 4.1-0.3 0.6-0.3 0.3-0.4 0.2-0.7 0.2-0.9 0.5-0.1 0.5 0.2 0.6 0 0.6-4.2 13.5-0.5 0.7-0.9 0.7-0.4 0.5-0.3 0.8-0.5 0.7-0.6-0.1-0.6-0.4-0.5-0.1-2.1 1.2-0.7 0.6-1 1.3 0.1 1 0.5 1.1-0.1 1-1.7 0.4-2.1 1.1-3 4.9-2 1.7-2.6 0.5-2.3-0.2-2.4 0.2-2.7 1.4-2.4-2.5-2.6 1.8-1.9 3.8-0.6 3.6 0.6 1.2 1.7 2.1 0.1 1-0.5 0.2-1.9 0.2-0.7 0.3-1.2 1.7-1 1.8-1.6 3.9-1.7 2.1-2.2 1.4-4.7 2.3-3.7 2.8-1.9 0.3-2.8-1-4.6-2.9-2-0.5-3.2 0.6-5.3 1.6-2.9 2.2-1.4-0.9-1.1-1-0.5-1.4 0.4-1.9 0.3-0.1 1.9 0.1 0.4-0.2 0-0.4-0.1-0.6 0.1-0.4 3.3-3.5 2.3-3.8 1.5-1.8 2.1-1.2 2.2-0.1 3.9 0.8 2.3-0.7 0-0.8-7.5 0.3-3.5-0.4-1.5-1.3 0.2-0.4 1.1-1 0.4-0.7 0-1.6 0.9-2.5 0.6-2.6-2.7 2.8-1.1 3.1-0.8 3.2-1.2 3.6-3-1.3-1.3-0.8-0.8-1.3 1.1-0.6 0.2-1.2-0.4-3.2 0.2 0 0.2-0.6 0.3-0.9 0.1-0.6-0.2-0.5-1.2-0.7-0.3-0.2-0.4-2.5 0-3.7 0.8-2.3 2.2 1.7-0.4-2.7 0.1-1.2 0.3-1.2-0.9 0-0.7 0.9-1 0.5-1.3 0.3-1.6 0-0.9 0.6-0.6 1.3-1.2 5.7-0.8 1.2-2.8-1.4-1.3-0.4-0.5-0.8 1-1.9-1.3-1.1-1.2-1.9-0.8-2.4-0.2-2.3 0.9-2.4 2.7-3.5 0.8-2.6-0.9 0-3 2.3-4.6 0.3-4.1-1.3-1.8-2.6-0.8-3.7 0-2 1.3-1.9 1.1-1.4 0.9-1.6 0.6-1.9 0.2-2.3 3.8-3 4-0.4 6.7-2.2 6.2-3 5.2 2.2 4.8 4.9 3.6 2.2 9.2 0.8 5.2-0.8z" id="GNFO" name="Forécariah">
  </path>
  <path d="M683.7 554.5l-1.7 0.4-0.7 0.1-2.3 0-2.1 0.3-2 0.7-2 1-4.8 3.8-4.9 2.9-2.7 0.5-1.6-0.6-0.5-1.7 1.2-5.8-0.8-1.8-1.9-1-6.9-1.8-2.1 0-2.1 0.6-4.1 4.1-2.1 1.2-0.9-2.1-2.6 1-1.2 0.2-1.4-0.1-1.4 0.2-1-0.3-1-0.6-3.4-1-0.8-0.1-3.7 0.6-1.9 0.7-1.5 1-1.4 1.3-1.2 1.7-3 6.1-1.5 1.9-7.2 7.1-4.3 2.8-2.3 0.9-1.3-0.3-3.5-2.2-1.8-0.8-4.1-0.2-3.4 1.1-2.4 2.6-0.9 4.1-2.5-2.1 1.3-4.1 2.8-4.2 2.2-2.6 1.8-3 1.8-10.7 1.3-0.2 0.3-0.9 0-1.5 0.3-1.7 0.9-1.5 1.9-1.8 1.9-3.6 2-2.6 2.3-2 2.5-0.5 2.8-0.2 2.3-1.6 1.7-2.4 1-2.7-5.3-7-0.7-1.2-1.8-1.4-5-6.7-0.4-0.3-0.9-0.6-0.4-0.5 0-0.4 0.1-1.3 0-0.6-1.2-3.5-0.2-1.2-0.2-9.1 0.6-4.3 1.9-7.3-0.1-0.4-0.1-0.7 2.7-1.5 6.7-4.6 1.8-1.6 0.4-0.7 1.4-3.9 1.1-4.8 4.4 2.7 0.7 0.7 0.5 1.3-1.1 7.8 0.2 0.8 0.4 0.5 4.5 3.4 1.9 0.5 11 13.2 0.2 0.7 0.3 0.6 0.3 0.4 1 0.4 5.1 1.3 1.8 0.9 1.2 0.9 1.2 2.4 0.2 0.4 1.6 0.1 2.7 0 9.8-1.5 2.1-0.6 1.7-1 0.8-0.6 1-1 6.4-3.7 1.2-0.5 5.1 0.6 20.6 4.7-1.4 5-1.5 4.1-5.5 2.2-4.5 2.6-4 4.1-1.5 7.9 5.8 23.7z" id="GNGU" name="Guéckédou">
  </path>
  <path d="M894.5 374.5l-2.6 1-0.1 1.1 0.4 1.3 0.4 1 0.4 0.2 0.7 0.1 0.7 0.2 0.5 0.6 0.2 2.2 0.2 0.7-0.2 0.3-0.6 0.1-0.3 0.5 0.5 1.1 0.5 0.2 2.3-0.2 0.5 2.7-4.5 32.3-0.1 1.1 0 2.8 0.5 2.8 0.6 2.2 0.9 2 7.1 10.2 2.1 2.2-9.6-0.4-7.7 3.5-7.3 3.9-6 0.7-8-3.5-5.2-1.8-6.3-0.3 1.6-9.6-1.1-7.9-5.9-7.8-5.9-5.2-7.3-3-5.2-2.2-12.5-0.8-4.8-1.1-2.9-4.9-5.6-2.2-17.3 1.1-12.1 6.4-6.6 5.2-4.5 17.5-0.9 8.8-15.1-5.1-25.1 1-9.8-9.6-0.4 0-3.6-0.6-1.1 0-10.3-2-9.6 0.5-7.3-5.3-7.6-9.1 3.9-2.5 8.9-1.5 4.4-5.9 4.4-3 0.4-6.7 4.4-5.7 4.8-3.7 1.1-12.3-3.3-5.6 0-19.5 4.4-10.1 1.8-19.1 5.9-6.7 13.3-13.9 6.2-9.3 4.5-5.6 6.2-3.4 8.9 3.4 10.6 2.2 6.7 3 23.9 1.9 1.1 13.1 1.1 7.1 5.9 6.7 5.1 1.9 8.9 1.9 4.4 3.3 2.2 7.5 0.7 6 6.3 6.4 12.2 1.8 11.7 2.3 5.9 2.6 1.1 6.4 3.7 8.6 6.3 6.7 9.5 3.4 5.9 2.6 7.5 0.8z" id="GNKA" name="Kankan">
  </path>
  <path d="M894.5 374.5l-7.5-0.8-5.9-2.6-9.5-3.4-6.3-6.7-3.7-8.6-1.1-6.4-5.9-2.6-11.7-2.3-12.2-1.8-6.3-6.4-0.7-6-2.2-7.5-4.4-3.3-8.9-1.9-5.1-1.9-5.9-6.7-1.1-7.1-1.1-13.1-23.9-1.9-6.7-3-10.6-2.2-8.9-3.4 0.4-5.3 0.7-4.1 2.6-5.2 3.7-4.2 9.2-6.7 10.7-3.8 9.9-4.1 11.4-7.9 6.6-6.3 4.5-12.4 1.4-13.5 2.6-11.3 5.2-12.3 2.9-3.9 1.1-3.4 1.4-3.1 2.1-1.4 0.2 0 0.3 0.4-0.6 0.5-0.1 0.3 0.2 0.4 0.3 0.3 0.2 0.2 1.3-1.2 2.3-1.7 0.7-0.6 2.4 8.1 0.5 2.2 1 2.5 1.3 2.4 1.4 1.8 4.8 2.2 0.1 0.4 0.2 0.5 0.2 0.4 1.1 0.1 0.9 0.1 0.8 0.2 0.5 0.2 0.7 0.2 0.2 0 0.4 0.2 0.1 0.1 0.1 0.1 0.1 0.1 0.2 0.1 0.1 0.1 0.5 0.1 0.2-0.1 0.2-0.1 0.2-0.1 0.2-0.2 0.3-0.8 0-0.4 0.1-0.1 0.3 0.3 0.5 0.1 0.2-0.2 0.1-0.4 0.3-0.2 0.3 0 0.5 2.1 0.5 2.3 0.9 1.9 1.5 0.5 1.4 0 0.3 0.7 0.9 0.4 1.5 0.4 0.6-0.3 0.3-0.3 0.4-0.1 0.6 0.1 0.9 0.3 0.2 0 1.7 0.6 0.2 0.2 0.5 0.8 0.6 0.2 0.9 0 0.7-0.2 0.1 0 2.7 1.3 2.7 2.3-0.2 0.1-0.2 0-0.3 0-0.9 0.3-0.1 0.1-0.5 0.1-2.6 1.2-1.4 1.6 1 1.9 2.2 0.4 0.7-0.1 1.3 0.3 0.2 0.1 1.3 0-0.7 3.1-1.4 1.7-2.3 0.8-0.1 0-1.3-0.5-0.8-0.3-0.9-0.6-0.6-0.5-0.7-0.2-1-0.2-1 0-1 0.3-0.7 0.3-0.4 0.4-0.1 0-0.1 0.2-0.6-0.1-1.2 0.8-1.3 2.8 0.1 0.5 0.4 0.6 0.3 0.8-0.2 0.9-0.5 0.3-1.2 0.1-0.4 0.1-1 0.7-2.6 1.1-0.8 0.5-1.5 2.2-0.7 4.4-1.1 2-1 0.6-2.5 0-1 0.4-1.2 1.5 0 1.2 0.3 1.2-0.1 1.4-1.3 2.5-5.6 5.8-1.1 1.6-1 2-0.5 2.2 0.6 2 1.8 1.3 0.9-0.3 0.4 0.9 0.2 0.1 0.3 0.2 0.8 0.2 1.7-0.2 0.7-0.3 0.9-0.4 0.7-0.5 0.7-0.3 0.4-0.1 0.3-0.1 0.4 0 0.3 0.4 0.3 0.3 0.2 0.2 0.2 0.1 0.1-0.2 0.1-0.1 0.2-0.4 0.3-0.4 0.3-0.4 0.1-0.3 0.3 0 0.1 0 0.2 0.4 0.5 0.6 0.7 0.3 0.7-0.4 0.2-0.5 0.4-0.1 0.6-0.1 0.5-0.5 0.6-0.7 0.6-0.3 0.4-0.5 0.5-0.3 1.3-0.5 1.6-0.5 0.8-0.1 0.1 0 0.4-0.5 0.6-0.6 0.5-0.3 0.3-0.2 0.1-0.4-0.2-0.5 0.3-0.4 0-0.6-0.2-0.5 0.3-0.4 0.7-0.5 0.2-0.6 0.4-0.9 0.4-1 0.1 0 1.5 0.5 2.5-0.1 1.3-0.4 1.1 0.2 2.3 0.8 1.2-0.2 2.4-1.3 1.4 0 2.7 1.4 2.6 2.4 1.9 2.8 0.7 2.9 0.2 12.9-0.3 2.3-0.7 1.1-0.9 1-2.6 6.9-0.2 2.6 3.2 1.3 0.6 2.2 0.6 8.1-0.3 0.1-1 0.1-0.4-0.1-0.4 0.3-0.1 0.3 0.2 0.7 0.2 0.3 0 1 0 0.8-0.3 0.7-0.5 0.7-0.3 0.8 0.1 0.5 0 1.5 0 0.3 0 0.7 0.2 0.4 0.2 0.9 0.1 0.4 0.7 0.2 0.5-0.1 0.5 0 0.8 0.1 0.2 0 0.4 0.1 0.5 5.8 1.3 3.3 3.8 5.2 2.7 5-0.1 0.7 0.1 0.5 0.2 0.4 0.2 0 0.4-0.2 0.4-0.2 1.4 0.7 0.5 0 0.3 0.1 0.8 0 0.6 0.2 0.6 0 0.3 0.1 0.1-0.3 0.1-0.2 2.1-0.4 1.9-0.8 1.1-0.6 0.8 0.3 1.2 1.9 0.4 1.5 0.2 3.3 0.6 1.6 2.4 1.7 2.3 0.4 0.9 1.2 0.9 0.6 1.3 0.5 1.1-0.2 0.4-0.4 0.4-0.4 0.5-0.1 0.3-0.4 0.2-0.3 1.6 0 2.3 1.4 1.8 2.7 1.3 3.1 0.8 2.8 0.3 3.2-0.7 2.9-2.7 6-1.2 1.4-0.9 1.6-0.6 1.6-0.4 1.8-2.4 3.1-2.8 1.6-6.2 2.3-2.3 2.2-2.5 3.3-1.3 3.1 1.1 1.4 1.6 0.6-0.5 1.2-1.5 1.2z" id="GNMD" name="Mandiana">
  </path>
  <path d="M904.6 443.2l2 1 2.6 0.6 2.8 0.1 2.2-0.2 2.5-1 4.7-2.6 2.6-0.6 5 0.1 0.7 1-3.3 9.9-0.3 2.9-4.4 10.8 0.1 4.5 6.2 2.5 1.6-0.3 1.2-0.5 1 0.2 1.7 3.2 1.3 1.3 2.8 2.2 5.1 2.8 1.5 1.9-0.2 0.2-1.9 1.4-2.9 0.5-2.5 0-2.3 0.2-11 5.7-1.9 1.9 0 0.1-1.2 3-0.6 2.9-0.5 6.1-2.2 10.7 1.2 3.9 5.6 1.7 2.7 0.3 7.4 2.2 0.5-0.1 1.3-0.6 0.7 0 0.8 0.5 1 1.6 0.6 0.7 2.3 2 0.9 1.1 2.9 5.3 1.1 1.4 3.5 2.3 0.8 1 0.7 2.4-0.3 4.7 0.3 2.6 1.5 5.2 0 2.1-0.9 3.1-0.4 3 0.8 2.7 2.5 5.2-7.1 0.8-3.4-0.5-2.8-1.7-3.8-7.8-2.6-3.5-2.7 0.4-0.5 1.9 0.4 2-0.3 1.8-2 0.9-2.1-0.1-2-0.6-1.7-0.9-1.4-1.2-0.9-1.7-0.7-1.7-0.8-1.7-1.6-1.2-1.7-0.3-1.9 0.2-3.6 1-1.2-0.2-2.1 0.2-1-0.1-0.8-0.4-1.4-1.1-1-0.4-2.5 0.2-4.1 1.6-2.5 0.3-4.4-0.9-1.7 0.2-5.9 4.8-0.7 0.8 0 1.5 0.7 1.4 0.8 1.3 0.7 1.6 0.1 2.5-1.5 7.1 0 2.3 0.3 2.3-0.3 1.5-2 2.1-0.2 1.3 10.2 6.7 11.9 3.7 1.2-0.2 7.4-2.5 1.5-0.1 0.1 1.2-0.7 1.8-0.9 1.5-0.8 3.8 0.1 1.8 0.7 1.8 2.2 1.4 2.1 2.2 1.5 2.7 0.3 1.3 0.4 1.4-2.2-0.1-1.5-1-1.2-1-1.2-0.4-5.1 0.9-1.9-0.1 0.2 1.1-5.4-3.5-11.7-10.8-8.9-7.4-11-3-7.4 0.4-1.8-3-4.1-3-7.3-0.7-1.5-4.5-4.8-5.2-7.7-1.9-10.3 0.8-10.7 4.8-10.7 2.6 1.9-5.2 2.5-7.1 2.2-8.1-1.8-10.8-4-10.5-5.9-8.2-1.9-5.5-0.2-26.9 5.3-4.9 5.2-2.5 9.4-1.8 5.3-2.4 4.4-2 0.1-0.7 0.2-0.7 1-2.1 0.3-1.2 0.4-1.2 5.4-9.4 5.6-3.9 2.8-5.3 4.2-5.7 4.2-1.4 1-5 5.3-1.7 6.3 0.3 5.2 1.8 8 3.5 6-0.7 7.3-3.9 7.7-3.5 9.6 0.4z" id="GNBE" name="Beyla">
  </path>
  <path d="M843.7 655l4.3-4.1 2.6-5.2-2.6-6.7-2.2-6.7 0-7.8 3.3-7.4 4.1-6.7 1.8-6 3.7-3.3 1.1-4.5 0.7-7 7.4-0.4 11 3 8.9 7.4 11.7 10.8 5.4 3.5-0.2 2.9-1.2 4.9-6.1 9.3-0.3 4.9 0.9 1.3 2.8 2.4 0.6 1.3-0.3 1.3-0.7 0.7-0.8 0.4-0.5 0.7-0.5 2-0.4 4.1-0.6 1.8-4 4.6 0 0.5 0.3 1.2-0.1 0.5-0.5 0.5-1.4 0.8-0.5 0.5-2.5 3.1-0.5 1.4-0.1 0.9 0.4 2.1-0.1 0.8-3.5 4-4.4-2-4.7-3.6-4.1-1-4.3 1.3-2.3 0.2-2.9-3.4-3.1 1.6-5.6 5.2-3.7-2.4-3.9-2.9-2.3-2.8-0.8-3.4 0.7-4.6z" id="GNLO" name="Lola">
  </path>
  <path d="M352.2 73.3l-0.1 0.2-3.9 2.6-5.6 2.6-3.9 2.6-1.7 1.5-1.4 0.8-1.4 0.6-6.3 2.2-1.7 1.1-1.1 1-3.2 9.5-0.3 1.3-2.1 2.7-2.7 3.5-3.4 2.4-8 0.4-2.6 3-2.9 2-1.6 3.2-23.7 0.2-4-1.2-2.5-0.7-1.1-1.6-0.2-0.7 0.1-1.8 0.1-1.7-0.4-1.5-1.7-1-1.4 0.2 0.1 1.2 0.6 1.5 0 0.9-1.4 0.1-1.3-0.7-1.1-1.2-0.9-1.3-0.9-1.8-0.3-1.9 0.2-2 1.3-4.3-0.2-1.9-0.6-1.9-0.9-2-1.1-1.3-1.8-1.1-1.3-0.9-1-1.6-0.3-1.9 0.6-0.6 1-0.3 0.8-1.2-0.8-1.7-2.5-1.2-1.5 0.2-1.4 0.1-2.8 3.9-1.4-0.5-1.3-1.4-1-1.2-1.2-0.9-0.2 1.1 1.1 3.6-4.6-1.2-1.6-1.2-0.7 0.2-0.5 1.1-3-0.3-1.1 0.3-0.9 0.5-1.9 1.6-7.5 3.7-1.5 0.3-0.1-1-3.3-6.6 0.5-3.3 1-2.5 0.1-1.4-0.4-3.6 0.1-1.7 0.3-1 2.2-5.2 0.4-2.1-0.3-2.2-1.4-2.5-6.2-7.8-1.1-3.4-0.3-2.8 1-8.3 39.7 1.5 5.5 1.5 0.4 0.1 0.5 0.2 1.1 0.8 0.6 0.2 0.7 0 0.3-0.3 0.3-0.4 0.6-0.2 3.7-0.8 1.1-0.1 1 0.3 1.5 1 1.1 0.2 1-0.2 2.1-0.6 0.9 0 0.7 0.3 1.2 1.3 0.5 0.2 0.5 0 1.6-0.5 1.1 0 0.8-0.1 0.8 0 1 0.7 1.2-1.4 2.2 1.2 2.2-0.1 2.1-0.4 1.9 0.3 1.6 1.7 0.5 2.4-0.1 2.5-0.5 2.2-1.8 4.3-0.5 2 0.6 2.5 1.4 2 1.8 1 2.1 0.2 2.4-0.3 2.2 0.9 2-0.2 1.4-1.2 0.4-2.4 2.1-5 4.4-0.1 4.8 2.5 3.1 2.7-0.1 0.5-0.2 0.9 0.3 1 1.3 1.2 1.1 0.5 3.7 0.2 1.9 1 0.5 1.2 0.8 1 2.5 0.4 7.9-0.5 2.5 0.3 2.4 1 2 1.6 3.5 3.9 0.6 1.2 0.1 0.9 0.5 0.5 1.7 0 0.2 0z" id="GNKN" name="Koundara">
  </path>
  <path d="M352.2 73.3l0.9-0.3 3.6-2 2.4-0.9 2-0.4 2.1 0.1 2.6 0.6 5.3 1.9 2.2 1.6 3.5 5.4 2 1 20.7-5.4 4.5-2.6 4.1-3.7 2.2-1.1 3-0.1 7.4 2.5 2.6 0.2 1.6-0.3 4.7-2.5 1.4-1 0.5-0.2 0.8 0 0.3 0.1 0.1 0.2 7.5 3.2 2.5 0.5 10 0.4 4.6-0.7 9.5-3.6 5-0.9 10.6-0.8 4.1 0.4 8.1 2.9 3.4 0.2-0.1 2.3-0.1 0.1-2.2 0.3-0.6 0 0.1-0.4 0.3-0.4 0-0.3-0.5-0.1-0.1 0.1-0.4 0.4-0.4 0.5-0.4 0.1-0.2 0-0.3 0-0.1 0-0.2-0.1-0.1 0.1-1.9 1-0.6 2.8 0.8 5 0.1 2.9-2.3 5-1.7 1.7-0.1 0-0.1 0.2-1.6 1.7-2 3.7 2.3 5 2.3 2.1-0.3 9.8-5.5 11.7-3.4 9.4-5.5 5.2-2.9 9.8-1.5 4.9-14 0.4-8.1 1.5-4.4 2.2-4.8 1.6-1.3 1.2-2.4 0.4-2.3-0.3-3.2 2.5-8.5-0.1-6.2-1.1-4.1-3.4-7.3-2.6-3.7-2.3-14.4 0.2-22.4 0.2-37.8 0.5-0.9-5.2 0.1-3.1 1.1-5.9 3-5.6 0.2-0.7 0-0.8-0.2-1-0.6-1.3-0.8-1.4-0.4-0.5-0.6-0.3-0.9 0-0.7 0.4-0.7 0.7-1.1 1.8-0.6 0.7-0.6 0.2-0.6-0.1-1-0.3-0.8-0.4-0.5-0.6 0-0.8 4.2-7.8 0.6-1.8 2-13.5-0.1-1-0.1-0.8-0.6-2.1-1.7-2.9 0.3-1.3 3.2-9.5 1.1-1 1.7-1.1 6.3-2.2 1.4-0.6 1.4-0.8 1.7-1.5 3.9-2.6 5.6-2.6 3.9-2.6 0.1-0.2z" id="GNML" name="Mali">
  </path>
  <path d="M745.6 646.4l-1.6-2.1-1.1-2.1-3.2-4.1-2.8-5.1-1.2-5.2 0.3-5.2 1.6-5.4 0.1-0.4 0.9-1.1 0.3-1.2-0.2-1.3-0.7-1.3-1.4-1.7-1.3-0.2-1.3 1-1.5 1.9 0.2-1.5 1.3-2.2 0.3-1.3-2.2-9 0-1.4-0.5-1.5-1.2-0.6-2.9-0.6-1.8-1.3-0.2-3.4 0.8-3.5 1.2-1.9 0.5-0.6 0.2-0.6-0.1-0.5-0.6-0.5-0.7-1.3-0.5-1.4-0.6-1.3-1.2-1 1.4-1.4 0.7-0.6 0.9-0.5 0.5-0.2 1.5-0.9-0.7-0.3-0.8-1-2.2-1.5-6.1-2.6-1.6-2.2-1-0.7-0.9 0.9-0.6 0.9-0.9 0.4-1 0.1-1-0.1-2.1 0.1-1.9 0.4-1.1-0.4 0.2-2.2 1.2-1.6 1.6-1.1 1-1.5-0.7-2.6-1.6-1.6-2.4-1.2-2.4 0-1.5 1.7-0.3 2.6-0.1 1.8-0.4 0.3-1.7-1.9-1.3-2.1-0.6-2.2-0.8-5.8-0.7-2.2-1.3-1.6-2-0.3 0 1.5-0.6 1.1-0.8 0.9-0.9 1.1 0 1 0.4 0.9-0.1 0.8-3.1 0.9-2.2 1.2-1.1 0.3-0.6-0.8-0.5-0.6-0.6-0.2-5.8-23.7 1.5-7.9 4-4.1 4.5-2.6 5.5-2.2 1.5-4.1 1.4-5 21.7 5 2.3-0.1 3.3-0.5 2.9-0.9 12.5-7 7.2-8 1.4-8.2 1.9-3.8 5.8 1 2.1 10.2 3.9 9.9 11.1 1.1 22-6.4 0.2 26.9 1.9 5.5 5.9 8.2 4 10.5 1.8 10.8-2.2 8.1-2.5 7.1-1.9 5.2-3.7 3-5.9 11.5-2.5 8.6-5.3 3.6-2.1 3.6-2 3.6-2.8 3.8-2.8 1.7-5.4 4.4-2.3 5-9 8.1-4.2 3.4-3.3 7-2.1-0.7-2.6 0.3z" id="GNMC" name="Macenta">
  </path>
  <path d="M745.6 646.4l2.6-0.3 2.1 0.7 3.3-7 4.2-3.4 9-8.1 2.3-5 5.4-4.4 2.8-1.7 2.8-3.8 2-3.6 6.7 5 2.7 6 1.3 9.4 5.3 10.1 3.4 10.1 3.3 7.3 9.3 4.1 9.9 1.4-0.3 4.2-0.2 0.8-0.7 1.2-0.2 0.7 0.1 0.8 0.5 0.2 0.6 0.2 0.3 0.5 0.1 2.9-0.4 2.5-1.2 2.2-2.1 2.3-3.4 2-0.8 0.6-0.4 1.2-0.2 2.5-0.5 1.1-1 1-2 0.5-1.1 0.8-2.3 2.7-1.1 1.7-0.6 1.4 0.3 2.1 0.9 2.2 0.6 2.3-0.8 2.5-1.4 0.8-5.3 2-1.6 0.2-2.3-3.7-1.6-1-0.7 2.9-1.3-0.5-0.5 0.1-0.4 2-0.6 0-2.7 0.9-1 0.5-2.1-0.2-1.7 1-1.5 1.4-1.7 1.2-1.6 0.5-1.8 0.3-0.7 0.3-0.9 0.3-1.4 1.2 1.1-4.2-0.4-1.7-2.4-1.2-1-0.8 0-2.1-0.7-0.5-2.8 0.1-0.7-0.1-3-2.8-1.7-7.8-1.8-2.5-1.9-0.2-4.1 1.1-2-0.3-0.7-0.8-0.8-2.5-0.9-1.1-1-0.6-0.9-0.3-1.8-0.2-2 0-1.1 0.2-0.5 0.5-0.3 1.3-0.6 0.4-0.7 0.2-1.9 2.7-1.4-1.2-2.3-4.1-1.4 2-3.6 3.5-1 0.5 0-0.1-0.5-0.3 1.4-1.2 0.7-1.2 0.3-1.5 0.1-1.7 0.5-1.5 1.2-1.2 2.5-1.9 2.8-4.2 1-2.6-0.4-1.7 2.1-2.6 0.9-1.4 0.6-3.3 0.7-1.9 1.1-1.6 1.3-1-2.6-3-0.2-4.2 1.2-4.4 1.4-3.2-1.5-1.9z" id="GNYO" name="Yomou">
  </path>
  <path d="M843.7 655l-14.7-0.8-0.9 2.5-3.2 3.9-0.9 2.6-9.9-1.4-9.3-4.1-3.3-7.3-3.4-10.1-5.3-10.1-1.3-9.4-2.7-6-6.7-5 2.1-3.6 5.3-3.6 2.5-8.6 5.9-11.5 3.7-3 10.7-2.6 10.7-4.8 10.3-0.8 7.7 1.9 4.8 5.2 1.5 4.5 7.3 0.7 4.1 3 1.8 3-0.7 7-1.1 4.5-3.7 3.3-1.8 6-4.1 6.7-3.3 7.4 0 7.8 2.2 6.7 2.6 6.7-2.6 5.2-4.3 4.1z" id="GNNZ" name="Nzérékoré">
  </path>
  <path d="M176.1 164l2.3-0.8 5.3-3.3 0.9-0.7 2.7 1.3 2.4 0 2.2-1.3 1.5-2.4 0.4-1.2 0.2-2.8-0.5-1.4 0.4-0.7 1.8 0 1.1 0.8 0.4 2.5 1 0.6 1.8 0.5 0.1 0.8-0.3 1 0.7 0.9 2.5 0.3 3.1-0.5 3-1.2 1.9-1.5 0.7-1.6 0.6-5.4 0-2.3-1.8-14.7 0.4-5.2 1-5.1-0.1-2.4-1.4-2-1.1-0.6-4.4-0.7-2-0.9-1.4-1-2.7-2.9-0.7-1.3-0.3-0.9-0.6-0.8-3.3-1.1-1.2-0.9-2.4-2.3-2.4-1.5-2.4-0.8-3.3-0.4-0.9-0.5 0.5-1.4 0-2.7 0.3-1.3 2.7-3 7.5-3.5 2.9-2.4 2.3-1.4 3.4-0.9 2.1 0.7-1.6 2.8 8.3-0.1 3.6-1.3 2-3.2 3.3 6.6 0.1 1 1.5-0.3 7.5-3.7 1.9-1.6 0.9-0.5 1.1-0.3 3 0.3 0.5-1.1 0.7-0.2 1.6 1.2 4.6 1.2-1.1-3.6 0.2-1.1 1.2 0.9 1 1.2 1.3 1.4 1.4 0.5 2.8-3.9 1.4-0.1 1.5-0.2 2.5 1.2 0.8 1.7-0.8 1.2-1 0.3-0.6 0.6 0.3 1.9 1 1.6 1.3 0.9 1.8 1.1 1.1 1.3 0.9 2 0.6 1.9 0.2 1.9-1.3 4.3-0.2 2 0.3 1.9 0.9 1.8 0.9 1.3 1.1 1.2 1.3 0.7 1.4-0.1 0-0.9-0.6-1.5-0.1-1.2 1.4-0.2 1.7 1 0.4 1.5-0.1 1.7-0.1 1.8 0.2 0.7 1.1 1.6 2.5 0.7 4 1.2 23.7-0.2 1.6-3.2 2.9-2 2.6-3 8-0.4 3.4-2.4 2.7-3.5 2.1-2.7 1.7 2.9 0.6 2.1 0.1 0.8 0.1 1-2 13.5-0.6 1.8-4.2 7.8 0 0.8 0.5 0.6 0.8 0.4 1 0.3 0.6 0.1 0.6-0.2 0.6-0.7 1.1-1.8 0.7-0.7 0.7-0.4 0.9 0 0.6 0.3 0.4 0.5 0.8 1.4 0.6 1.3 0.2 1 0 0.8-0.2 0.7-3 5.6-1.1 5.9-0.1 3.1 0.9 5.2 0.1 2.1 0.1 1.1 0.2 0.6 0.3 0.6 0.5 0.4 1.2 0.6 0.5 0.4 0.6 1.1 0.5 1.2 0.2 0.7 0.3 0.6 0.7 0.5 0.2 0.3 0.3 0.5 0.3 0.4 0.5 0.5 0.5 0.4 0.5 0.3 4.3 1.8 0.6 0.3 0.3 0.7 0.1 0.8-0.3 1.4 0.1 0.8 0.2 0.7 0 0.7-0.3 0.9-1.3 1-0.8 0.6-2.7 1.1-1.1 0.7-0.8 0.9-4.8 6.9-2.8 2-7 3.3-0.6 0.3-2.8 3-1.6 1.3-0.6 0.3-0.5 0.3-0.6 0.9-0.6 1.5-1.8 6.2-1.3 2.6-2.4 3.7-0.6 1.3 2.6 10.9-8.8-0.4-1.1 0.5-4.7 1.8-10.8 2.6-6.3 0.4-0.8-0.1-1.2-1-0.2-0.5-2.3-23.6-1.9-0.6-0.5-0.2-1.3 0-7.3-1.4-5.1-1.6-5.4 0.2-0.7-0.4-1-0.3-1.3-0.1-10.7 0.2-1.8 0.4-1.8 0.6-3 1.5-1.3 1.1-0.9 0.8-0.8 0.6-1.1 0.4-2 0.2-1.5 0-2.2-0.3-0.6-0.3-0.5-0.2-0.6-0.2-1-0.1-4.6 0.8-5.7 2-1.9 1.8-4.1-6.6-5.2-1.1-3.3-3-1.1-6.4-1.8-7.1-4.5-3.4-6.2 0-3.3-2.7 0-3.7 2.9-3.8 1.1-5.4z" id="GNGA" name="Gaoual">
  </path>
  <path d="M176.1 164l-1.1 5.4-2.9 3.8 0 3.7 3.3 2.7 6.2 0 4.5 3.4 1.8 7.1 1.1 6.4 3.3 3 5.2 1.1 4.1 6.6-2.2 2.1-2.4 0.4 0.6 1.2 0.5 0.3 0.7 0.1 1.6 0.2 0.5 0.3 1.2 1.5 0.8 0.8 1.5 2 0.2 0.8-0.2 2.8 0.3 0.8 0.5 0.5 0.5 0.3 1.4 1.2 0.2 0.6 0.1 0.8-0.1 1.1 0.2 2.7-0.2 1.1-1.2 5.2-0.3 0.4-0.4 0.3-1.2 0.6-1 0.8-2.4 2.2-0.4 0.7 0.1 1.3-1.2 5.6-1.9 4.7-2.3 6.8-8.6 4-7.3-0.5-6.2 8.7-7.4 7.4-5.4 7.9-7.7 6.1-8.4 2.6-15.9 0.8-6.6 3-4.8 4.1-4.5 3.6 0.1-0.1-0.1 0-1.9 0.2-1.4 0.9-1.1 1.2-1.4 1.1-1.6 0.6-2.1 0.3-1.9-0.3-1.1-1.5-0.8 0-0.9 1.6-0.8-0.5-0.6-1.9-0.2-2.1 0.1-2.2 0.3-1.7 1.3-3.4 1.4 0.4 1.6-1.3 1.8-2 1.9-1.3-3-0.1-1-1.6 0.2-2.3 1.4-6.9 1-1.8 1.4 0.8 0.7 0 0.2-1.9 1-1 1-0.5 0.5-0.6 1.6-5.6 2.9-5.9 1.7-0.7 1-1.7 0.1-2-0.6-1.7 0.4-0.5 1.2-1.9-2.4 0.7-0.3 1 0.4 1.4-0.3 2-4.1 2.9-0.5 0.5-1.7 1.4-2.1 3.1-1.7 3.3-1.4 4.1-1.7 2.7-3.5 4.2-3.4 3-1.7 0.7-0.7-1.5 0.2-2 0.7-1.4 1.1-0.8 1.3-0.6-0.9-0.2-0.7 0.1-0.8 0.3-0.9 0.7-1.7-1.6 1.5-5 1-2.1 1.3-2 0.7-0.7 1.8-1.2 0.8-0.7 0.7-1 0.3-0.8 0.2-0.3-0.6-0.3-1-0.6-1.6 2.1-5.6 4.4-1.4 2.1-1.4 4.6-1.7 1.5-1.2-2.5-1.6-1.5-1.2-1.7-0.3-2.9 1.7 0 1.4-1.1 1.1-1.7 0.8-1.6 0.6-1.6 0.4-1.9 0.1-1.6-0.2-0.8 0.4-0.8 0.2-0.5 0.2-1.4-2.3 1.7-0.7 1-0.3 1.2-0.6 0.5-3.6 1.7-0.9 0-0.1-1.4 0.1-1.4 0.3-1.2 0.6-1.1-0.7-1.2-0.1-1.1 0.5-1 1.1-1-2.3-0.2-0.7-1.5 0.3-1.9 1-1.5 1.6-1 2.1-0.8 2.3-0.6 2-0.2 1.5-0.8 0.8-1.7 0.5-1.8 0.6-0.8 2-0.5 2.3-2.8 2-1-0.9-0.7-0.7-0.8-0.9-2-0.2 1.2-0.4 1.1-0.6 0.8-0.9 0.4-0.7 0.1-1.9 0.8-0.4 0.3-0.5 2.5-1.3 2.1-1.9 1-2.2-0.9-0.6 0.6-0.6 0.3-0.8 0.1-1.3 0 0.8-2.4-0.8-1.5-1.1-0.4-0.6 1.3-3.4 4.6-3.8-0.7-2.5-7.1-2.9 0.1 2.1 2.2 0.3 2.3-0.7 2.2-0.8 1.9-2.6-1.9-1.4-0.6-2 0 4.1 3.1 1.5 1.6 0.4 2.1-1.2 2.3-2.3 2.3-2.3 1.6-1 0.1-0.2-0.3-0.6-0.1-0.6 0.1-0.3 0.3 0.2 0.8 0.6 1.2 0.1 0.6 0 4.3 0.5 0.7 1.1 0.6 1.2 0.7 0.5 1.4-0.2 0.6-1.5 2.5-2.2-1.1-4.4-0.7-2.2-1.3-2.6-2.7-2-2.8-1.2-2.7-0.2-2.5 0.8-2.3 1.9-2.4 0.9-0.4 2.4-0.8 0.5-0.4 0.1-1 0.4-0.8 0.5-0.8 0.6-0.5 0-0.8-0.6 0.1-0.1-0.2 0-0.4-0.1-0.4 3.5-3.6 4.1-4.9 11.8-22.9 2.4-9.8 1.8-4.7 12.2-17.9 2.2-2.4 3-1.7 5.1-0.5 10.1 1.2 5.1-0.9 10.9-6 11.4-6.3 1.5-1.2 0.8-1.3 1.5-3 0.9-1 1.3-0.8 0.7 0.1 0.7 0.4 10.2 0.7 2.9-0.4 1.2 0.2 1.1 0.8 1 0.9 1.2 0.7 2 0.5 1.7-0.1 3.7-0.6 1.9 0 5.4 0.8z" id="GNBK" name="Boke">
  </path>
  <path d="M821.3 166l-2.1 1.4-1.4 3.1-1.1 3.4-2.9 3.9-5.2 12.3-2.6 11.3-1.4 13.5-4.5 12.4-6.6 6.3-11.4 7.9-9.9 4.1-10.7 3.8-9.2 6.7-3.7 4.2-36.1 0.3-6.2-1.1-5.6-7.9-4.4-6.3-4.8-2.7-2.9-3.7-1.1-15.4-2.2-12.8-1.9-4.8-6.2-3.4-4.1-4.5-8.6-1.5 0.4-20.9-4.8-12.1-6.1-6.7-4.3-4-7.1-11 1-1.3 1.1-1.2 0.9-1.3 12.3-6.6 11-8.4 4.8-6.7 7.9-5.2 0.6 0.1 0.9 0.5 0.4 0.3 0.2 0.2 0.4-0.1 1 0 2-0.3 0.9 0.2 0.7 0.2 0.6 0 0.1-0.1 0.4 0.1 2 1.6 1.2 0.7 2.2 0.7 3.6 0.1 0.3 0.2 0.6 0.1 0.9 0 0.5 0 0.6 0 0.8 0.1 0.2 0.1 0.3 0.2 0.2-0.1 0.5-0.3 0.4 0 0.8-0.1 0.3 0 0.7-0.4 0.4-0.5-0.5-1.4-0.3-1.3 0-0.3 0.1-0.2 0-0.1 0.4-0.3 0.8-0.2 0.6-0.7 0.4-1 0.2-0.6 0-1-0.3-0.7-0.3-0.6 0.2-0.5 0-0.6-0.3-0.7 0-0.4 0-0.2 0.4-0.6 0.2-0.5 0.1-0.4 0.4-0.3 0.3-0.4 0.1-0.5 0.6-0.1 0.2-0.3 0.2-0.4 0.2-0.4 0.6-0.5 0.1-0.2 1.4-0.9 0.2 0 0.1-0.2 1.3-0.8 0.5-0.2 0.4 0.1 0.6-0.1 0.1-0.3 0.1-0.1 0.3-0.1 0.4 0 0.6 0 0.3-0.3 0.1-0.2 3.7-1.2 0.4 0 0.3 0.1 0.3 0.1 0.1 0.1 0.4 0.1 0.2-0.1 0.3-0.3 0.3-0.1 0.4 0.1 0.6 0 0.9-0.1 0.4-0.4 0.1-0.4 0.3-0.4 0.1-0.3 0.1-0.1 0-0.1 1.5-0.5 1.5-1.4 0.4-0.1 0.3-0.4 0.4-0.3 0.1-0.2 1.7-1.2 4.2-2 0.2 0.4 0.4 0 0.2-0.1 0.3-0.3 0.4-0.3 0.3-0.2 1.1-0.1 1.8 0.3 0.1 0.2 0.2 0.3 0.5 0.2 0.3-0.3 0.2-0.2 1.5 0.3 0.2 0 0.6 0.3 0.2 0.4 0.2 0.1 0.2 0 0.3-0.2 0.1-0.1 0.4 0.1 0.4-0.1 0.1-0.1 0.2 0.1 0-0.1 0.1 0.3 0.6 0.1 0.7 0.2 0.5 0 0.3-0.2-0.2-0.3-0.2-0.3-0.4-0.4 0-0.4 0.5-0.6 0.1-0.4 0.7-0.7 0.2 0.2 0.3 0.4 0.5-0.3 0.5-0.4 0.3-0.4 0.2-0.3 0-0.6-0.3-0.5-0.1-0.5 0-0.7 0.3-0.5 0-0.2 0-0.2-0.4-0.7 0.1-0.4 0.4-0.1 0.7-1.3 0.5-0.1 0.3-0.4 0.2-0.6 0.3-0.5 0-0.2 0.1-0.1-0.1-0.3-0.1 0-0.3-0.1-0.1 0 0.1-0.8 0-0.8 0.5-0.2 0.6-0.2 0.1-0.2-0.1-0.2-0.1-0.1-0.5-0.4-0.2-0.1-0.3-0.1-0.8-0.2-0.9 0-0.5-0.2-0.4-0.3 0-0.1-0.2-0.3-0.2-0.1-0.3 0-0.5-0.2-0.3-1 0-0.5 0.1-0.8-0.2-0.5-0.1-0.1-0.3-0.4-0.6-0.1-0.6-0.2-0.1-0.4-0.1-0.8 0-0.3-0.2-0.2-0.1-0.1-0.3 0.1-0.3 0.3-0.1 0-0.3 0.1-0.2-0.1-0.2-0.1-0.7-0.5-0.6-0.7 0-0.7 0.1-0.7-0.1-1-0.4-0.4-0.6 0-0.4 0-0.3 0.5-0.1 0.1-0.2 0.1-0.1 0.1-0.3-0.3-0.1-0.4-0.3-0.5-0.1-0.1-0.2-0.3-0.1-0.5 0-0.3 0.3-0.4 0.1-0.2 0.7-0.2 0.4-0.2 0.4-0.4 0.2-0.2 0.6-0.3 1.2 0.1 0.7-0.2 0.3-0.2 0-0.2 0-0.1 2.1-0.6 1.5-1 0.3 0.2 0.1 0.6-0.1 0.5 0 0.4 0.3 0.2 0.5-0.1 0.5-0.2 0.3-0.5 0-0.2 0-0.5 0-0.4 0.2-0.5 1.7 1 1.7 0.6 0.5-0.3 0.2 0.2 0.3 0.1 0.7-0.4 0.4-0.4 0.1-0.2 0.1-0.3 1.2-0.1 9.3 2 5.2 1.7 14.6 7.6 2.8 1.5 0 0.1 0 0.4 0 0.3 0.5-0.1 0.2 0.4 0.3 0.1 0.4 0 0.1 0.6 0.7 0.5 1.2 1.1 0.7 0.8 0.9 1.7 0.2 2.7-1.1 2.8-1.7 2.5-1.3 2.7-0.2 3.3 0.4 1.2 0.4 0.6-0.2 0.3 0 0.1 0 0.5 0.5 0.2 0.2-0.2 0.3 0.5 0.4 1.3 0.9 1.4 0.3 0 0.2 0.4 0.1 0.2 0.2 0.2 0.5 0.1 0.2-0.2 0.2-0.2 0.1 0 0.3-0.1 0.3-0.1 0.3 0.3 0.2 0 0.2-0.1 0.2-0.4 0.2-0.1 0.1 0.4 0.2 0.2 0.3-0.1 0.2 0 0.5-0.1 0.5 0.1 0.4-0.1 0-0.4 0.1 0 1.6 2.2 1 2.8-0.2 2.8-1.8 4.9-0.5 2.7 0.5 2.4 2.2 1.9 2.7 0.1 1-0.1 0.1 0.1 0 0.3 0.1 0.5 0.2 0 0.3-0.2 0.1-0.1 0.1-0.1 0 0.4-0.2 0.3 0.4 0.3 0.3-0.2 0.2-0.8 0.5-0.3 0.6-0.3 1.7 0.4 2.2 1.9 0.6 2.1-0.2 2.4 0.2 2.7 0.6 1.3 0.9 1.2 0.6 1.3 0.1 1.5-2.2 11.4-0.7 0.7-0.4 0.8-0.1 0.5-0.2 0.5-0.3 0.2-0.3 0.8 0.3 0.4 0.8 0.8 0 0.1-3 15.7-0.2 0.9 0 0.3 0.8 0.1 0.8 0.1 0.4 0.1 0.4 0.4 0.6-0.1 0.7 0 0.2-0.1 0.3 0.6 0.4 0.3 0.7 0.2 0.4 0.1 0.6 0.6 1 0.6 0.7 0.2 0.7 0.1 0.6 0.3 0.2 0.2 0.4-0.2 0.4-0.4 0.2-0.2 0.4-0.2 0.3 0.3 0.2 0.4 0.3 0.2 0.3-0.2 0.1 0z" id="GNSI" name="Siguiri">
  </path>
  <path d="M384.1 152.7l14.4-0.2 3.7 2.3 7.3 2.6 4.1 3.4 6.2 1.1 8.5 0.1 3.2-2.5 2.3 0.3 2.4-0.4 1.3-1.2 4.8-1.6 4.4-2.2 8.1-1.5 14-0.4 1.5-4.9 2.9-9.8 5.5-5.2 3.4-9.4 5.5-11.7 0.3-9.8 7.5 3.4 2.2 1.7 4.9 6.7 0.9 42-1.1 4.9-11.4 2.3-9.6 3-3.3 7.5-8.8 6.7-21.8 9.4-17.6 10.2-6.3 4.1-1.2 4.2-3 0.2-2.3-0.7-0.8 0-0.8-4.4-0.7-4.5-4.4-4.6-6.1-9.4-10.5-15-7.4-10.5-2.2-6.2z" id="GNKB" name="Koubia">
  </path>
  <path d="M508 202.9l-2.5 2-2.1 3.9-1.3 1.2-2.1 0-1.6-0.8-1.5-0.4-1.5 1.2-1.4-0.7-0.7 0.6-0.5 1-0.8 0.8-1 0.6-0.8 0.2-1.2 0.2-1.4 0.3-0.9 1-0.5 1.5-0.3 4.4-0.7 1.5-1.3 1.1-7.7 4.4-0.8 1.7-5.3 5.8-0.3 0.5-3.5 3.4-2.1 1.5-4 0.7-5.4 0.4-5.5 0.9-3.4 1.5-1.3 0.3-5.3 0.1-1.4-0.3-1.2-0.5-1-1.5-0.9-2-0.6-4.2-0.1-2.7 0.2-2.7 0.6-3.9-0.2-2.1-0.8-1.8-2.1-2.2-1.7-1.2-1.8-0.9-1.3-0.4-1.2-0.6-1.1-1.5-1.2-2.4-1.2-5 1.2-4.2 6.3-4.1 17.6-10.2 21.8-9.4 8.8-6.7 3.3-7.5 9.6-3 11.4-2.3 1.1-4.9-0.9-42 2 1.8 2.4 1.6 2.5 1.3 2.5 0.9 2.3 0 1-0.4 0.4 0.2 0.9 0.4 0.2 0.1 0.5 0 1 0 0.4-0.2 0.1-0.4 0-0.4 0.5-0.4 0.3-0.6 0.1-0.1 0.6 0 0.8-0.2 0.3 0.3 0.3 0 0-0.3 0.1 0 0.2 0 0.2 0.2 0.3 0.2 0.5-0.2 0.1-0.1 0.3 5 1.9 4.5 5.7 5.5 0 7.7 0 5.3-1.4 2.8-0.1 4.3-0.4 3.6-0.5 5.6-9.4 11.9-0.3 1.3 0 0.9 0.2 0.8 0.3 0.5 0.4 0.5 0.9 0.8 1 0.7 7.1 3.5 0.6 0.9-0.8 1.9-0.8 0.9-1.5 0.5-1.8 1.2-1.5 1.3-0.6 0.9-0.7 0.6-4.3 1.5-1.3 0.7-1.2 0.8-1.9 1.9-4.9 7.4z" id="GNTO" name="Tougué">
  </path>
  <path d="M493.7 235.6l13.6-9.4 7.7-5.6 0-5.5-2.7-6.7-4.3-5.5 4.9-7.4 1.9-1.9 1.2-0.8 1.3-0.7 4.3-1.5 0.7-0.6 0.6-0.9 1.5-1.3 1.8-1.2 1.5-0.5 0.8-0.9 0.8-1.9-0.6-0.9-7.1-3.5-1-0.7-0.9-0.8-0.4-0.5-0.3-0.5-0.2-0.8 0-0.9 0.3-1.3 9.4-11.9 0.5-5.6 0.4-3.6 0.1-4.3 1.4-2.8 0-5.3 0-7.7-5.7-5.5-1.9-4.5-0.3-5 0.3-0.3 0.3-0.3 0.3-0.5 0.2-0.4 0.1-0.1 0.1-0.2 0.1-0.1 0.2-0.1 0.4-0.3 0.3-0.1 0.6-0.3 0-0.1 0.1-0.3 0.2-0.2 0.1-0.2 0.3-0.1 0.3 0.1 0.1 0 0.4-0.2 0.7-0.9 0.3-0.8 0.2-0.3 0.3-0.6-0.1-0.3-0.1-0.2-0.2-0.3-0.1-0.3-0.4-0.4-0.1-0.5 0-0.1-0.1-0.4 0.1 0 1-0.5 0.8-1.4 0.6 0 0.5 0 0.4 0.2 0.2 0.2 0.6 0 0.4-0.3 0.2-0.4 0.1-0.3 0-0.3-0.1-0.2 0-0.3-0.1-0.4 0.1-0.2 0-0.4 0-0.4 0.2-0.3 0.2-0.3 0.5-0.3 0.2-0.2 0.5 0 0.6-0.2 0.4-0.2 0.6-0.1 0.4-0.1 0.4-0.2 0.1-0.3 0.2-0.4 0-0.5 0-0.6 0.4-0.8 0.1-0.7 0.6-0.4 0.3 0 0.3 0.2 0.4 0.1 0.2-0.4-0.3-0.5-0.2-0.7-0.3-0.4 0-0.4 0.3-0.3 0.1-0.1 0.1-0.2 0.2-0.3 0.2-0.7 0.4-0.6 0.2-0.7 0.9-0.2 2.9 0.1 2.3-0.8 0.8 0.1 0.5-0.2 0.2-0.4 1.5-0.5 2.4-0.1 3 0.8 2.2 1.6 4.9 7.7 2.9 2.2 2.9 1.3 2.2 1.9 0.7 3.5-0.3 1.1-1.2 2.2-0.2 1 0.6 1.3 3.3 3.4 0.2 0.3 0 0.2 0.4 0.7 0.9 1.6 0 0.2 0.4 0.7 0.2 0.6-0.1 0.5-0.3 0.3-0.2 0.2-0.3 0.4-0.3 0.5-0.2 0.7 0.3 0.7 0.2 0 0.9-0.2 0.6 0.1 0.5-0.1 0.6 0.5 0.5 0.2 0.7 1.4 3.5 3.7 5.1-0.2 0.7-0.3 0.1 0 0.6 0.1 0.1-0.2 0.4-0.3 0.4-0.4 0.7 0 0.7-0.3 0.7-0.8-0.1-0.6-0.1-0.7 0-0.3 0.2-0.4 0.3-0.7 0.4-0.1 0.5-0.5 0.1-0.5 0.2-0.9 0.1-0.7 0.1-0.5 0.2-0.6 0.1-0.1 0.5-0.7 1.1-0.7 0.4 0 0.3 0.2 0.1 0.2 0.5-0.3 0.4-0.4 0.4-0.4 0.1-0.3 0-0.1 0.3-0.2 0.5-0.1 0.4 0.1 0.1 0 0.4 0 0.6-0.5 0.1-0.5 0.1-0.1 0.1-0.1 0.7-0.2-0.8-2.8 0.7-0.8 0.5-0.2 0.6-0.1 0.6 0 0.7-0.4 0.5-0.2 0.3 0 0.2 0.2 0.1 0.1 0.5-0.4 0.5-0.6 0.4-0.6 0.2-0.8 0.1-0.3 0.4-0.3 0-0.9-0.3-1.4 0-1 0.3 0.1 0.5 0 0.2-0.5 0-0.2 0.2-0.1 0.4-0.5-1-2.5 0.1-1.2 1-0.4 0.6 0.1 0.4 0.1 0.4 0.1 0.9 0.2 0.3 0.2 0.5 0 0.7 0 0.4 0 0.5 0 0.7-0.1 0.4-0.1 0.5-0.1 0.6-0.2 0.2-0.1 0-0.1 0.1-0.1 0.1-0.2 0.7-1 0.1-0.2 0.9-0.7 0.9-0.1 1.1 0 0.3-0.3 0.1-0.4-0.2-0.6-0.2-0.3-0.1-0.1 0-0.2 2.4-2.1 0.7-0.5 0.2 0.1 0.5 0.6 0.3 0.4 0.1 0.1 0.1 0 0.1 0 0.7-0.2 0.9-0.3 0-0.1 1.5 0.5-0.1-1.8 0.7-0.5 1.1-0.1 1.2-0.6 0.5-1.1 0.2-0.3 0.9 0.6 0.4 0.7 0.3 0 0.7-1.4 0.2-0.1 0 0.2 0 0.3 0.1 0.5 0.1 0.7 0.5 0.2 0.1-0.1 0.7-0.2 0.6-0.2 0-0.1 0.2-0.3-0.1-0.4-0.2-0.7 0-0.3 0-0.2 0.2-0.2 0.2 0.1 0.3 0.1 0.8 0 0.1 0 0.3-0.2 0.1 0.1 0.2 0.3 0 0.2 0.1 0.1 0.1 0.2 0.2-0.1 0.1 0 0.1 0 0.3-0.5 0.2-0.5 0.3 0 0.5 0.5 0.3 0.4 0 0.4 0.4 0.5 0.5 0.4 0.5-0.2 0.4-0.2 0.3-0.1 0.1-0.1 2.3 0.5 4.3 2.1 2.4 0.4 0.3 0 0.1 0.1 1.8 0.4 0.3 0 0.6-0.2 0.1-0.2 0-0.2 0.6 0.1 1.2 0.6 1.7 1.4 1 0.6 0.2 0.1-0.1 0.3 0 0.5 0.5 0.2 0.9-0.1 0.4 0 0.1 0.3 0.1 0.3 0.5 0 0.1-0.3 0-0.1 0.2-0.2 0.4-0.1 0 0.6 0.1 0.4 0.1 0.2 0.1 0.5 0.4 0 0.3-0.2-0.1-0.4 0-0.1-0.1-0.3-0.1-0.4 0-0.3 0.1-0.2 0.1 0 0.1 0.1 0.1 0.2 0.2 0.4 0.4 0.4 0.3 0.1 0.4 0.1 0.3-0.2 0.1-0.1 2.4 1.8 1.5 0.8 2.3 0.7 1.8 0.9 0 0.1 0.1 0.3 0.2 0.4 0.4-0.1 0.1 0 0.2 0.2 0.3 0.3 0.3 0 0.3-0.2 0.6 0.4 2.5 0.4 2.2 0.6 2.3 1.9 0.1 0.3 0.3 0.4 0.4 0 0.1-0.1 0.5 0.5 0 0.1 0.3 0.4 0.1 0-7.9 5.2-4.8 6.7-11 8.4-12.3 6.6-0.9 1.3-1.1 1.2-1 1.3 7.1 11 4.3 4 6.1 6.7 4.8 12.1-0.4 20.9-13.5 0.4-12.7-9.8-9.6-1.7-7.8 3.1-1.8 5.3 6.9 16.2 0.1 7.8-3.9 3.6-10.1 0.4-11.3 0-4-0.8-1.9-3.4-6.3-3.3-5.7 0.9-0.9 5.3-0.1 9.1-6.7 1-9.2 1.9-9.9 7.1-13.7 9-7 1.9-7-2.6-4-4.5-2.6-3-27.2-0.4-0.9-4.4z" id="GNDI" name="Dinguiraye">
  </path>
  <path d="M112.3 305.1l4.5-3.6 4.8-4.1 6.6-3 15.9-0.8 8.4-2.6 7.7-6.1 11.6 0 2.4 3.6 5.4-0.8 7.2-3.5 0.9 0.9 0.6 0.2 0.4-0.3 0.3-0.6 0.5-0.5 1.5-0.6 0.6-0.3 4.6-0.8 1.1-3.9 1.1-0.3 1-0.5 0.8-0.9 1-0.5 1.2-0.1 3.3 1.3 1.2 0.3 2.2-0.3 1.4 0.1 1.2 0.9 13.7 0.9-1.4 20-5.9 4.5-2.2 1.5-5.2 1.9-2.9 4.5-6.7 7.5-2.2 5.2 1.2 7.1-2.7 7.1-3.5 6.7-4.7 7-0.5 0.6-0.2 0.9 0.4 1.6 0.4 0.9 0.4 0.8 0.6 0.7 14 11.9 0.6 0.3 0.6 0.2 1.4 0.3 4.8 0 0.8 0.2 1.2 0.5 1 1 1.2 2.1 0 0.2-0.5-0.4-0.4 1.7-0.2 2.4-0.3 1.2-1.4 0.8-2.4 3.5-1.7 0.8 0.1 0.5-0.5 0.4-4.3 1.6-0.5 0-2.5-0.2-2.3-0.4-1.8-0.7-0.8-0.9-0.7-1.4-1.7-2.1-2.1-2-1.8-0.9-3.3-2.1-0.7-0.9-1.5-2.9-1.1-0.5-2-0.1-1-0.3-1-0.8-2.4-2.6-1.8-0.7-1.3-0.2-1.3-0.5-1.9-1.6-0.4-3.1 1.9-3.6 3.1-1.9 3.3 2.3-0.9-1.5-1.7-2.1-1.6-1.4-0.7 0.3-1 1.6-1.8-0.7-1.4-1.4 0.3-0.8 2.7-1.1 2-2.6 3.3-5.7-1.7 0.9-1.3 1.1-2.4 2.7-1.4 0.8-3.3 1.6-0.8 0.6-0.2 1.5 0.2 5.7-0.4 1.4-1 1.3-1.6 0.9-2 0.3-2.8-0.9-2.2-1.8-1.1-2.5 0.1-2.5 2-2 3-2.2 1.8-2.3-1.7-2-0.5 1.8-1.4 1-1.9 0.5-2 0.1 0.3 2.7-2.2 2.1-2.7 0.9-1.4-1-0.4-0.9-0.8-1-0.9-1.4-0.4-1.9 0.4-0.9 0.8-0.7 0.5-0.8-0.4-0.9-0.7-0.3-0.7 0.2-0.5 0.4-0.2 0.5-1.2 2-2.7-1.5-7.3-6.8-1.3-0.6-1.7-0.4-1.9 0.1-1.7 0.5-1.6 0.2-1.6-0.8-2.5 2.5-1.3-1.4-0.4-3 0-2.8 1-4-0.1-1.6-0.5-1.6-0.7-0.8-0.8-0.5-7.6-7.9-1.3-2.7-0.4-2.6 0.1-3.2 0.6-2.9 1.2-1.5z" id="GNBF" name="Boffa">
  </path>
  <path d="M284 317.9l0 13.5 1.8 2.6 0.8 4.2-2.3 3.7-2.9 3 0 9.7-5.9 2.3-3.7 3.3-1.1 3.4-4.8 4.8-3.6 0-10 0.8-5.9 4.9-4 6.7-1.5 9.3 1.5 7.1 0 4.1-3 5.6-3.6 4.9 0.7 9 0.8 6.6-1.7 2.3-2.2 0.7-1.7-1.1-1.7-2.2-1.3-2.8-0.3-2.4-3.8 1.5-2.9 1.8-3.7-3.9 2.5-2.9 1.5-3.3 1.8-3 0.3-1.9-0.1-7.1 0.1-0.9 0.6-0.6 1.7-0.7 0.3-0.8 0.8-1.4 1.8-0.8 1.8-1.2 0.6-2.1-2.5 1.4-1.5 0.4-1.3-0.8-5.3-6.4-0.4-1.4-0.5 0.2-0.4 0.1-0.8 0.5 1.4 3.9 0.4 3.5-1.4 2.8-3.7 1.8-4.5-0.5-2.3-2.9-0.3-4 1.2-3.7 5.1-6.4 2-4.1-0.4-4.1-0.6-0.5 0-0.2-1.2-2.1-1-1-1.2-0.5-0.8-0.2-4.8 0-1.4-0.3-0.6-0.2-0.6-0.3-14-11.9-0.6-0.7-0.4-0.8-0.4-0.9-0.4-1.6 0.2-0.9 0.5-0.6 4.7-7 3.5-6.7 2.7-7.1 7.8 0 9.6 2 23.7 5.1 9.3-2.4 5-7.4 8.9-7.3 10.1-2.6 9.5-0.9z" id="GNDU" name="Dubréka">
  </path>
  <path d="M218 421.3l3.7 3.9-4.3 2.4-3.4 1-0.2 0.3-0.9 0.6-0.9 0.2-0.5-0.6 0.2-1.1 0.7-0.3 0.8-0.2 0.8-0.5 4-5.7z" id="GNC" name="Conakry">
  </path>
  <path d="M265.9 368.4l5.2 4.5 2.6 3 1.1 10.9-1.9 4.1-2.5 3.7 1.4 5.2 4.8 3 5.2 1.9 5.5 7.1 1.8 5.6 0.4 5.2-5.2 0.8-9.2-0.8-3.6-2.2-4.8-4.9-5.2-2.2-6.2 3-6.7 2.2-4 0.4-3.8 3-0.8 0-2.7 5.5-0.8-6.6-0.7-9 3.6-4.9 3-5.6 0-4.1-1.5-7.1 1.5-9.3 4-6.7 5.9-4.9 10-0.8 3.6 0z" id="GNCO" name="Coyah">
  </path>
  <path d="M609.5 469.5l2.1-5.1 3.4-4.5 5.1-3.7 1.5-11.6-1.1-10-2.2-5.3-1.9-5.6 0.5-7.1 15.6 1.9 1.1 0 1.3-0.2 2.2-0.9 1.1-0.7 0.7-0.6 1.3-1.4 2.6-4.2 3.1-3.8 1.5-1.4 0.4-0.3 0.4-0.3 1.5-0.4 2-0.4 6.1-0.4 6.6 0.3 1.1 0.2 3.5 1.6 4.6 3.8 7.6 9.1 7.3 5.3 9.6-0.5 10.3 2 1.1 0 3.6 0.6 0.4 0 9.8 9.6 25.1-1 15.1 5.1-2 22.4-10 6.1-2 13.3-1.9 3.8-1.4 8.2-7.2 8-12.5 7-2.9 0.9-3.3 0.5-2.3 0.1-21.7-5-20.6-4.7-5.1-0.6-1.2 0.5-6.4 3.7-1 1-0.8 0.6-1.7 1-2.1 0.6-9.8 1.5-2.7 0-1.6-0.1-0.2-0.4-1.2-2.4-1.2-0.9-1.8-0.9-5.1-1.3-1-0.4-0.3-0.4-0.3-0.6-0.2-0.7-11-13.2-1.9-0.5-4.5-3.4-0.4-0.5-0.2-0.8 1.1-7.8-0.5-1.3-0.7-0.7-4.4-2.7z" id="GNKS" name="Kissidougou">
  </path>
  <path d="M763.5 439.6l0.9-8.8 4.5-17.5 6.6-5.2 12.1-6.4 17.3-1.1 5.6 2.2 2.9 4.9 4.8 1.1 12.5 0.8 5.2 2.2 7.3 3 5.9 5.2 5.9 7.8 1.1 7.9-1.6 9.6-5.3 1.7-1 5-4.2 1.4-4.2 5.7-2.8 5.3-5.6 3.9-5.4 9.4-0.4 1.2-0.3 1.2-1 2.1-0.2 0.7-0.1 0.7-4.4 2-5.3 2.4-9.4 1.8-5.2 2.5-5.3 4.9-22 6.4-11.1-1.1-3.9-9.9-2.1-10.2-5.8-1 2-13.3 10-6.1 2-22.4z" id="GNKE" name="Kérouané">
  </path>
  <path d="M313.2 309.8l-4.6 1.4-13.6 4.1-11 2.6-9.5 0.9-0.4-5.1-0.4-4.7 2.7-4.8-1.5-10.2-24-13-25.5-1.8-13.7-0.9-1.2-0.9-1.4-0.1-2.2 0.3-1.2-0.3-3.3-1.3-1.2 0.1-1 0.5-0.8 0.9-1 0.5-1.1 0.3-1.1 3.9-4.6 0.8-0.6 0.3-1.5 0.6-0.5 0.5-0.3 0.6-0.4 0.3-0.6-0.2-0.9-0.9-7.2 3.5-5.4 0.8-2.4-3.6-11.6 0 5.4-7.9 7.4-7.4 6.2-8.7 7.3 0.5 8.6-4 2.3-6.8 1.9-4.7 1.2-5.6-0.1-1.3 0.4-0.7 2.4-2.2 1-0.8 1.2-0.6 0.4-0.3 0.3-0.4 1.2-5.2 0.2-1.1-0.2-2.7 0.1-1.1-0.1-0.8-0.2-0.6-1.4-1.2-0.5-0.3-0.5-0.5-0.3-0.8 0.2-2.8-0.2-0.8-1.5-2-0.8-0.8-1.2-1.5-0.5-0.3-1.6-0.2-0.7-0.1-0.5-0.3-0.6-1.2 2.4-0.4 2.2-2.1 1.9-1.8 5.7-2 4.6-0.8 1 0.1 0.6 0.2 0.5 0.2 0.6 0.3 2.2 0.3 1.5 0 2-0.2 1.1-0.4 0.8-0.6 0.9-0.8 1.3-1.1 3-1.5 1.8-0.6 1.8-0.4 10.7-0.2 1.3 0.1 1 0.3 0.7 0.4 5.4-0.2 5.1 1.6 7.3 1.4 1.3 0 0.5 0.2 1.9 0.6 2.3 23.6 0.2 0.5 1.2 1 0.8 0.1 6.3-0.4 10.8-2.6 4.7-1.8 1.1-0.5 8.8 0.4 2.3 6.4 5.1 5.8 4.1 10.6-0.7 0.2-4.4 3-0.7 0.8-0.4 0.6 0.1 0.7-0.3 1.1-0.4 2.9-1.6 1.8-1 0.8-0.2 0.7 0 0.7 0.2 0.7-0.1 1.8 0.1 0.8 0.5 1.4 0 0.9-0.4 0.7-0.9 0.7-0.3 0.7-0.1 0.6 0.3 0.5 0.4 0.4 0.2 0.5 0.1 0.6 0 1.5 0.1 0.7 0.3 1.4 0.1 1.4 0.2 0.6 0.4 0.5 0.9 0.7 0.6 0.4 0.5 0.2 0.5 0.4 0.3 0.6 0 0.7-0.8 4.5-0.3 1-0.5 0.9-0.6 0.9-0.2 0.7 0.3 0.4 0.4 0.2 0.5 0.3-0.2 0.7-1.4 2.9-0.7 1-0.7 0.6-0.7 0.5-0.2 0.6-0.1 1.5 0.1 0.7 0.3 0.5 0.4 0.5 0.3 0.4 4.1 3.8 3.1 9.1z" id="GNTE" name="Télimélé">
  </path>
  <path d="M323.9 153.4l37.8-0.5-0.8 8.6 3.7 3.4 1.8 6.4 0 8.3-3.6 3.4-1.9 7.1-1.8 5.6-0.5 10.6-1.6-2-8 0.1-3.2-0.9-2.2 1-0.5 0.7 0 0.6 0.4 1.2-0.1 0.8-0.3 0.8-0.6 1-0.6 0.5-0.7 0.4-3.3 0.8-1.8 0.7-0.9 0.9-1.2 1.3-3.1 5.6-0.2 0.6-0.1 0.7-0.2 2.4-0.1 0.7-0.5 1.2-0.6 1.1-0.2 0.6-0.2 1.4-0.1 0.6-0.3 0.6-0.1 0.7-0.4 1.1-0.4 1.4-2.3 3.9-0.9 2.5-0.9 4.3-0.1 0.1-0.3 0.1-0.5 0.1-0.4-0.1-0.3-0.1-0.1-0.1-1.1-1-0.6-0.4-0.5-0.1-0.8 0.1-0.2 0.5 0 0.5 0 0.3 0.1 0.2-0.1 0.3-0.3 0.8-0.5 0.4-0.6 0.2-0.7 0-0.6 0-4.1-10.6-5.1-5.8-2.3-6.4-2.6-10.9 0.6-1.3 2.4-3.7 1.3-2.6 1.8-6.2 0.6-1.5 0.6-0.9 0.5-0.3 0.6-0.3 1.6-1.3 2.8-3 0.6-0.3 7-3.3 2.8-2 4.8-6.9 0.8-0.9 1.1-0.7 2.7-1.1 0.8-0.6 1.3-1 0.3-0.9 0-0.7-0.2-0.7-0.1-0.8 0.3-1.4-0.1-0.8-0.3-0.7-0.6-0.3-4.3-1.8-0.5-0.3-0.5-0.4-0.5-0.5-0.3-0.4-0.3-0.5-0.2-0.3-0.7-0.5-0.3-0.6-0.2-0.7-0.5-1.2-0.6-1.1-0.5-0.4-1.2-0.6-0.5-0.4-0.3-0.6-0.2-0.6-0.1-1.1-0.1-2.1z" id="GNLE" name="Lélouma">
  </path>
  <path d="M372.1 307.1l-1.5-0.7-0.6-1.1-0.4-2.4-0.8-0.8-1.2-0.4-2.3-0.7-0.9-0.4-1.5-0.8-0.6-1-0.2-1.3 0.8-2.6-0.3-3.2-0.9-0.5-0.6 0-0.9 0.3-1.4 0.9-5.8 5.7-4.7 2.4-4.9 1.9 0.6-18.2 3.3-7.1 8.1-5.6 7-6 6.6-1.5 4.8-7.9 2.2-6.7 5.5-4.1 5.6-2.7 4.4-2.6 15.1-0.4-1.5-5.2-3.3-2.6-1.1-4.9 2.9-4.5 0.4-6 2.6-3.8 1.5-5.6 2.1-1.2 1.4-0.4 0.9 0.4 1.3 1.1 0.7 0.4 0.9 0.1 0.8-0.1 0.8 0 2.3 0.7 3-0.2 1.2 5 1.2 2.4 1.1 1.5 1.2 0.6 1.3 0.4 1.8 0.9 1.7 1.2 2.1 2.2 0.8 1.8 0.2 2.1-0.6 3.9-0.2 2.7 0.1 2.7 0.6 4.2 0.9 2 1 1.5 1.2 0.5 1.4 0.3 5.3-0.1 1.3-0.3 3.4 4.2 0.7 9-2.6 6-2.5 5.6-4.8 2.3-10.7 0.7-9.9 2.3-8.9 6.7-8.8 9-3 5.3-9.5 1.5-4.4 2.2-5.9 4.9-6.9 4.1z" id="GNDL" name="Dalaba">
  </path>
  <path d="M361.7 152.9l22.4-0.2 2.2 6.2 7.4 10.5 10.5 15 6.1 9.4 4.4 4.6 0.7 4.5 0.8 4.4-0.8 0.1-0.9-0.1-0.7-0.4-1.3-1.1-0.9-0.4-1.4 0.4-2.1 1.2-13.9 3.4-2.4 8.7-13.6 4.6-6.2 1.4-2.6-0.4-2.9-1-0.9-0.4-1.1-0.8-0.5-0.5-0.4-0.6-0.3-0.8 0-1.3 0.1-1.8 0-0.8-0.2-1-1.1-3.8-1.4-3-2.1-2.6 0.5-10.6 1.8-5.6 1.9-7.1 3.6-3.4 0-8.3-1.8-6.4-3.7-3.4 0.8-8.6z" id="GNLA" name="Labé">
  </path>
  <path d="M343.4 302.4l-2.5 1.7-1.7 1.4-1.3 2.6-1 1-1.4 0.5-2.5-0.7-2.6-1.6-0.8-0.7-1-0.6-2.1-1.1-1.9-1.5-1.2-0.4-1.6 0.4-1.4 0.2-1.8 4.6-5.4 1.6-3.1-9.1-4.1-3.8-0.3-0.4-0.4-0.5-0.3-0.5-0.1-0.7 0.1-1.5 0.2-0.6 0.7-0.5 0.7-0.6 0.7-1 1.4-2.9 0.2-0.7-0.5-0.3-0.4-0.2-0.3-0.4 0.2-0.7 0.6-0.9 0.5-0.9 0.3-1 0.8-4.5 0-0.7-0.3-0.6-0.5-0.4-0.5-0.2-0.6-0.4-0.9-0.7-0.4-0.5-0.2-0.6-0.1-1.4-0.3-1.4-0.1-0.7 0-1.5-0.1-0.6-0.2-0.5-0.4-0.4-0.3-0.5 0.1-0.6 0.3-0.7 0.9-0.7 0.4-0.7 0-0.9-0.5-1.4-0.1-0.8 0.1-1.8-0.2-0.7 0-0.7 0.2-0.7 1-0.8 1.6-1.8 0.4-2.9 0.3-1.1-0.1-0.7 0.4-0.6 0.7-0.8 4.4-3 0.7-0.2 0.6 0 0.7 0 0.6-0.2 0.5-0.4 0.3-0.8 0.1-0.3-0.1-0.2 0-0.3 0-0.5 0.2-0.5 0.8-0.1 0.5 0.1 0.6 0.4 1.1 1 0.1 0.1 0.3 0.1 0.4 0.1 0.5-0.1 0.3-0.1 0.1-0.1 0.9-4.3 0.9-2.5 2.3-3.9 0.4-1.4 0.4-1.1 0.1-0.7 0.3-0.6 0.1-0.6 0.2-1.4 0.2-0.6 0.6-1.1 0.5-1.2 0.1-0.7 0.2-2.4 0.1-0.7 0.2-0.6 3.1-5.6 1.2-1.3 0.9-0.9 1.8-0.7 3.3-0.8 0.7-0.4 0.6-0.5 0.6-1 0.3-0.8 0.1-0.8-0.4-1.2 0-0.6 0.5-0.7 2.2-1 3.2 0.9 8-0.1 1.6 2 2.1 2.6 1.4 3 1.1 3.8 0.2 1 0 0.8-0.1 1.8 0 1.3 0.3 0.8 0.4 0.6 0.5 0.5 1.1 0.8 0.9 0.4 2.9 1 2.6 0.4 6.2-1.4 13.6-4.6 2.4-8.7 13.9-3.4-1.5 5.6-2.6 3.8-0.4 6-2.9 4.5 1.1 4.9 3.3 2.6 1.5 5.2-15.1 0.4-4.4 2.6-5.6 2.7-5.5 4.1-2.2 6.7-4.8 7.9-6.6 1.5-7 6-8.1 5.6-3.3 7.1-0.6 18.2z" id="GNPI" name="Pita">
  </path>
  <path d="M616.9 416.6l1-2.9 0.3-3.1 0-1.8-1-6.1 0-1.3 0.2-0.8 0.3-0.5 0.4-0.5 0.5-0.3 1.2-0.8 1-1.2 0.5-0.4 1.4-0.6 0.5-0.4-0.1-0.5-0.2-0.5-0.4-0.5-0.2-0.6-0.2-1.1 0.2-4 0.4-1.2 0.5-0.7 0.7-0.2 1.6-0.2 0.6-0.2 0.5-0.3 1.7-2.8 0.3-1 0.1-0.8-0.2-0.7-0.6-1.1-0.5-1.2-0.7-1-0.2-0.7-0.3-2.3-0.2-0.7-1.1-2.7-0.2-1.3 0-0.7 0.1-0.5 0.2-0.6 0.6-0.8 1.1-0.9 0.5-0.8 0.7-1.3 0.3-1 0.1-1.1-0.1-2.8 0.3-0.9 0.4-0.6 0.6 0 1.3 0.1 0.6-0.2 0.5-0.2 0.5-0.4 0.4-0.4 0.4-0.5 0.4-0.5 0.4-0.4 1.4-1 2.7-4 0.5-0.6 1.1-0.5 0.7-0.7 0.8-0.9 1.1-2 0.2-1.1 0-0.9-0.2-0.6-0.7-1-0.3-0.5-0.7-1.1-0.6-2-0.2-0.6-0.2-1 0-1.2 0.6-3.7-0.1-1.2-0.1-0.8-0.1-1.2 0.2-0.6 0.5-0.3 2.6 0.6 1.6 0.1 0.8-0.1 0.8-0.3 0.9-1.2 4-8.1 0.3-1.2-0.2-0.7-0.4-0.4-0.3-0.6-0.3-0.8 0-1.4 0.3-0.8 0.6-0.8 0.7-0.8 1-1.5 0.1-0.9-0.2-0.7-0.4-0.5-0.2-0.5-0.2-0.5-0.4-3.5-0.5-0.3-1.1 0.6 0.1 2-0.4 2.2-0.7 0.8-2.9 2.2-0.9 0.4-0.4 0.4 0 0.9-0.2 1-1.1 0.4-0.3-0.6-0.9-2.4-0.5-0.9-2.6-2.2-0.2-1.2 1.5-1.3-1.6-0.6-3.3 0.2-1.8-0.5-1.3-0.9-0.8-0.8-1-0.4-4.7 1.1-1 0.2-2.4-0.1-3.5-0.4-1.2-0.4-0.4 1.1-0.6 0.8-0.9 0.5-1.1 0.2-1 0.3-1.7-1.9-0.6-0.4-1.3-0.7-5.7-6.3-0.7-0.5-0.8-0.5-0.9-0.3-2.7-0.2-0.7-0.2-0.5-0.3-0.5-0.5-0.3-0.8-0.2-0.8 0.1-1.2-0.1-1-0.2-0.9-0.8-1.2-1.6-1.8-3-2.9-0.4-0.5-1.7-2.9-0.5-0.6-0.5-0.6-3.1-1.4-0.5-0.5-1.2-1.5-0.7-0.5-0.7-0.2-1.7-0.1-0.7-0.2-0.6-0.3-1-0.8-16.3-5.2-1.6-1.1-1-1.1-0.8-1.1-0.5-1.2-0.2-1.2 0.2-1.1 0.7-1.1 3.1-2.2 1.7-1 1.2-0.5 1.5-0.3 0.8-0.7 0.7-1.2 1.1-2.9 0.9-3.4 0.4-0.9 0.5-0.9 1.7-1.9 0.4-0.2 1.2-0.5 0.7-0.4 0.7-0.6 0.9-1.2 1.1-1.2 1.1-0.7 0.6-0.2 0.8-0.8 0.8-1.3 1.9-4.5 0.2-1-1.1-1.6 0.1-9.1 0.9-5.3 5.7-0.9 6.3 3.3 1.9 3.4 4 0.8 11.3 0 10.1-0.4 3.9-3.6-0.1-7.8-6.9-16.2 1.8-5.3 7.8-3.1 9.6 1.7 12.7 9.8 13.5-0.4 8.6 1.5 4.1 4.5 6.2 3.4 1.9 4.8 2.2 12.8 1.1 15.4 2.9 3.7 4.8 2.7 4.4 6.3 5.6 7.9 6.2 1.1 36.1-0.3-2.6 5.2-0.7 4.1-0.4 5.3-6.2 3.4-4.5 5.6-6.2 9.3-13.3 13.9-5.9 6.7-1.8 19.1-4.4 10.1 0 19.5 3.3 5.6-1.1 12.3-4.8 3.7-4.4 5.7-0.4 6.7-4.4 3-4.4 5.9-8.9 1.5-3.9 2.5-4.6-3.8-3.5-1.6-1.1-0.2-6.6-0.3-6.1 0.4-2 0.4-1.5 0.4-0.4 0.3-0.4 0.3-1.5 1.4-3.1 3.8-2.6 4.2-1.3 1.4-0.7 0.6-1.1 0.7-2.2 0.9-1.3 0.2-1.1 0-15.6-1.9z" id="GNKO" name="Kouroussa">
  </path>
  <path d="M200.1 331.4l-1.2-7.1 2.2-5.2 6.7-7.5 2.9-4.5 5.2-1.9 2.2-1.5 5.9-4.5 1.4-20 25.5 1.8 24 13 1.5 10.2-2.7 4.8 0.4 4.7 0.4 5.1-10.1 2.6-8.9 7.3-5 7.4-9.3 2.4-23.7-5.1-9.6-2-7.8 0z" id="GNFR" name="Fria">
  </path>
 </g>
 <g id="points">
  <circle class="7.464367165664586|-14.710191555925004" cx="90.9" cy="682.7" id="0">
  </circle>
  <circle class="9.6576389540684|-11.00085256336541" cx="545.5" cy="410.8" id="1">
  </circle>
  <circle class="12.399228689573166|-8.033381369317734" cx="909.1" cy="68.5" id="2">
  </circle>
 </g>
 <g id="label_points">
  <circle class="Faranah" cx="575.4" cy="358.5" id="GNFA">
  </circle>
  <circle class="Kindia" cx="328.3" cy="356" id="GNKD">
  </circle>
  <circle class="Mamou" cx="434.9" cy="316.7" id="GNMM">
  </circle>
  <circle class="Dabola" cx="511.2" cy="277.1" id="GNDB">
  </circle>
  <circle class="Forécariah" cx="287.3" cy="444.3" id="GNFO">
  </circle>
  <circle class="Guéckédou" cx="632.6" cy="529.1" id="GNGU">
  </circle>
  <circle class="Kankan" cx="767.1" cy="351" id="GNKA">
  </circle>
  <circle class="Mandiana" cx="837.4" cy="286.8" id="GNMD">
  </circle>
  <circle class="Beyla" cx="865.5" cy="510.9" id="GNBE">
  </circle>
  <circle class="Lola" cx="872.4" cy="631.9" id="GNLO">
  </circle>
  <circle class="Koundara" cx="285.5" cy="87.7" id="GNKN">
  </circle>
  <circle class="Mali" cx="414" cy="114.3" id="GNML">
  </circle>
  <circle class="Macenta" cx="761.6" cy="549.9" id="GNMC">
  </circle>
  <circle class="Yomou" cx="776.8" cy="666.4" id="GNYO">
  </circle>
  <circle class="Nzérékoré" cx="819.4" cy="609.1" id="GNNZ">
  </circle>
  <circle class="Gaoual" cx="255.2" cy="155.7" id="GNGA">
  </circle>
  <circle class="Boke" cx="146.8" cy="219.2" id="GNBK">
  </circle>
  <circle class="Siguiri" cx="742.5" cy="173.8" id="GNSI">
  </circle>
  <circle class="Koubia" cx="450.9" cy="170.7" id="GNKB">
  </circle>
  <circle class="Tougué" cx="481.3" cy="194.8" id="GNTO">
  </circle>
  <circle class="Dinguiraye" cx="582.9" cy="173.7" id="GNDI">
  </circle>
  <circle class="Boffa" cx="166.7" cy="316.9" id="GNBF">
  </circle>
  <circle class="Dubréka" cx="228.9" cy="356.9" id="GNDU">
  </circle>
  <circle class="Conakry" cx="217.4" cy="425.3" id="GNC">
  </circle>
  <circle class="Coyah" cx="257.5" cy="399.5" id="GNCO">
  </circle>
  <circle class="Kissidougou" cx="684" cy="461.3" id="GNKS">
  </circle>
  <circle class="Kérouané" cx="801" cy="446.3" id="GNKE">
  </circle>
  <circle class="Télimélé" cx="243.9" cy="246.5" id="GNTE">
  </circle>
  <circle class="Lélouma" cx="335" cy="194" id="GNLE">
  </circle>
  <circle class="Dalaba" cx="399.3" cy="261.7" id="GNDL">
  </circle>
  <circle class="Labé" cx="382.4" cy="192.5" id="GNLA">
  </circle>
  <circle class="Pita" cx="350.1" cy="244.6" id="GNPI">
  </circle>
  <circle class="Kouroussa" cx="646.4" cy="260.7" id="GNKO">
  </circle>
  <circle class="Fria" cx="243.9" cy="309.2" id="GNFR">
  </circle>
 </g>
</svg>