<?xml version="1.0"?>
    
<!--********* Copyright (c) 2024 Pareto Softare, LLC DBA Simplemaps.com ***************************************
************* Free for Commercial Use, full terms at  https://simplemaps.com/resources/svg-license ************
************* Attribution is appreciated! https://simplemaps.com *******************************************-->

<svg baseprofile="tiny" fill="#6f9c76" height="917" stroke="#ffffff" stroke-linecap="round" stroke-linejoin="round" stroke-width=".5" version="1.2" viewbox="0 0 1000 917" width="1000" xmlns="http://www.w3.org/2000/svg">
 <g id="features">
  <path d="M772.5 297.2l1.2 8.8-0.2 7.6-0.6 2.8-0.8 2-1.2 1.6-6 5.3-1.5 1.7-1.8 3-1 2.5-0.6 2.9-0.8 17.2-1.4 3.1-5.7 7.6-9.8 17.3-2.9 4.2-2.1 1.4-3.1 0.6-2.6 0.9-1.5 1.3-0.8 1.7 0.1 1.4 0.6 1 1.2 0.7 11.1 3 10.2 3 4.7 2.1 2.8 2.4 0.5 0.9 0.2 0.7-1.1 2-1.7 3.6-0.3 1.9 0.3 2.1 1.2 2.5 1.4 1.3 3.1 1.7 0.6 1.8 0.5 10.3 0.4 2.5 0.9 3.2 1.3 1.1 1.5 0.5 1.8 0 0.9 1 0.3 1.5-0.1 1.8 0.1 2.2 0.5 1.3 0.9 1.1 0.6 1.3 0.8 4 0.8 1.2 1.7 0.9 1.7 0.2 1.3-0.6 1.2-1.2 0.9-0.9 1-0.1 1.4 0.8 0.8 1.4 0.7 1.9 0.1 2-0.5 2-1.4 2.1-2.1 1.6-2.5 1.2-2.5 0.9-5.9 1.2-3 0.2-2.5-0.1-1.9-0.3-3.3-1-1.4-0.1-1.5 0.2-1.9 0.7-0.8 0.4-3.8 1.5-3.7 2.1-0.8 0.6-0.9 1-0.9 1.3-1.5 3.1-1.1 3.3 0.1 0.3 0 0.1-3.1 0.4-0.9 2.3 0 4.7-0.6 2.1-1.8 1.8-2.6 0.5-2.8-0.4-2.8-1.2-2.6-2-4.1-4.7-2.7-1.9-2.4-0.9-4.7-0.5 0.2-0.9-0.2-2.7-1.2-4 0.3-1.9 1.2-1 2.1-0.7 2.4-0.5 2-0.1-1-0.8-1.9-0.7-2.3-0.4-1.9-0.2-1.7-0.5-3.9-2.2-2-0.5-6.5 1.4-1.7-0.4-0.6-1.6 0.7-1.7 1.2-1.4 1-0.7-2.9 1.3-3.7 3.2-3 3.5-1.3 2.3-1.1 1.1-5.3 1.3-3.9 1.7-1.4-1.9-2.5-7.6-1.3-2-1.7-1.6-2.6-1.3-2.9-0.6-2 0.4-1.9 0.9-5 0.9-4.7 2.3-2.4 0.5-1.4-0.9-3.7-4.2-2.1-1.4 0.3-1.6-0.4-1.3-2-2.7 2.4-1 1.9-1.8 1.4-2.4 2.5-8.1 1.4-2.9 1.8-1.2 2.5-1.3 2.2-3.1 1.7-3.6 0.8-2.9-0.4-6 0.6-2.6 4.4-2 6.2-5.6 2.8-3.6 0.5-0.3 0.3-0.8 0.8-0.8 0.7-1.1 0.4-1.6 1.8-4.6 2.6-4.7 3.2-2.5 2.1 0.7 2 1.9 3 1 4.2-0.6 3-1.4 2.8-1.8 3.5-1.7-3.2 0.2-6.5 4.3-2.8-0.6-6.9-6.6-2.4-4.4 1.7-4.3 9.3-9.2 0.4-0.6 1-1.8 0.8-0.9 3.2-2.1 1.3-1.3 0.6-1.1 1.4-3.2 0.7-0.9 0.7-0.7 0.5-1.1 0.6-3.8 0.7-1.1 0.8-0.8 0.3-0.8 0.9-1.5 5.6-5.5 1.7-5.4-0.6-6.6-4.4-13-1.5-3-0.5-1.3-0.2-1.8 0.4-1.6 0.7-1.1 0.7-0.8 0.4-0.9 1.3-19.7-0.5-3.6-1.3-2.7-1.3-3.6 2-2.8 3.2-2.2 1.8 2.7 0.1 3-0.5 3.3 0.4 3.2 2 2.6 3.7 3.2 4 2.8 2.9 1 2.7 0.7 10.1 5 3.2 0.5 21.4 0 10.2 0z" id="GQLI" name="Litoral">
  </path>
  <path d="M807.4 297.2l2.4 0 47.5 0 47.5 0 47.5 0 1.2 6.1 0.1 12.8 0.2 41.6 0.1 8.3-0.1 0-16.5-2.2-6.9 1.1-1.8 0.8-1.9 0.3-10.2-1.1-3.5 0.2-3.1 0.7-3.2 0.3-2.6-0.1-2.7-1.4-1.3-1.4-0.8-1.9-4.7-29.7-0.7-2.2-1-1.2-1.4-0.6-2.2 0.9-1.6 1.2-2.5 2.6-1.5 1.3-2.2 0.8-2.6 0.2-4-0.7-2.8-0.9-18.2-7.7-4.4-0.9-1.5-0.2-5.8 2.3-17.7 10.6-0.9-1.1-2.8-0.7-6.8 0.6-1.7-0.2-1.8-1.6-0.3-0.2-0.7-1.4-0.3-2 0.4-3.7 0.6-2.4 1.3-3.1 0.3-2-0.4-2.3-2.4-6.7-1.4-5.2-0.2-7.9z" id="GQKN" name="Kié-Ntem">
  </path>
  <path d="M772.5 297.2l34.9 0 0.2 7.9 1.4 5.2 2.4 6.7 0.4 2.3-0.3 2-1.3 3.1-0.6 2.4-0.4 3.7 0.3 2 0.7 1.4 0.3 0.2 1.8 1.6 1.7 0.2 6.8-0.6 2.8 0.7 0.9 1.1 4.1 4.9 10.7 8.5 0.8 2.6-0.3 3.7-0.8 3.8-1.1 2.9-4.1 6.1-0.6 2.3 0.3 2.1 2 3 0.6 1.8-0.9 4.4-1.8 3.3 0.2 2.6 5.3 2.6 4.9 1.2 4.3 0.5 4.2-0.4 4.6-1.4 5.2-2.6 1.9-0.4 1.5 0.1 2.8 0.9 1.5 0.2 1.6-0.7 1.2-1.2 1.1-0.3 2.1 3.8 1.3-0.5 1.9-2.2 1.2-0.5 1.1-0.7 1.2-0.5 1 0.6 0.3 0.7 0.3 1.7 0.5 0.5 2.5 0.7 8.1 1.4 0.8-0.1 0.6-0.4 1.5-0.7 0 0.9-1 1.7-1.6 0.9-5.6 2.1-1.8 1.3-7.2 7.8-1.2 1.9-2.3 4.4-6.6 8.9-3 4.9-2.1 5-0.2 1.8 0.3 2.1 1.2 2.5 10.3 11.5 2 1.3 6.6 3 1.8 2.3 1.6 3.2 2.6 10.4 1.4 2.7 1.3 0.9 1.3 0.7 1.1 0.8 0.9 1.2 0.2 1.7-0.2 1.4-2.2 3.2-0.3 0.4-36-0.1-47.5-0.1-3.7 0-43.9-0.2-17.3 0-4.6 0.6 0-0.1-0.1-0.3 1.1-3.3 1.5-3.1 0.9-1.3 0.9-1 0.8-0.6 3.7-2.1 3.8-1.5 0.8-0.4 1.9-0.7 1.5-0.2 1.4 0.1 3.3 1 1.9 0.3 2.5 0.1 3-0.2 5.9-1.2 2.5-0.9 2.5-1.2 2.1-1.6 1.4-2.1 0.5-2-0.1-2-0.7-1.9-0.8-1.4-1.4-0.8-1 0.1-0.9 0.9-1.2 1.2-1.3 0.6-1.7-0.2-1.7-0.9-0.8-1.2-0.8-4-0.6-1.3-0.9-1.1-0.5-1.3-0.1-2.2 0.1-1.8-0.3-1.5-0.9-1-1.8 0-1.5-0.5-1.3-1.1-0.9-3.2-0.4-2.5-0.5-10.3-0.6-1.8-3.1-1.7-1.4-1.3-1.2-2.5-0.3-2.1 0.3-1.9 1.7-3.6 1.1-2-0.2-0.7-0.5-0.9-2.8-2.4-4.7-2.1-10.2-3-11.1-3-1.2-0.7-0.6-1-0.1-1.4 0.8-1.7 1.5-1.3 2.6-0.9 3.1-0.6 2.1-1.4 2.9-4.2 9.8-17.3 5.7-7.6 1.4-3.1 0.8-17.2 0.6-2.9 1-2.5 1.8-3 1.5-1.7 6-5.3 1.2-1.6 0.8-2 0.6-2.8 0.2-7.6-1.2-8.8z" id="GQCS" name="Centro Sur">
  </path>
  <path d="M953.9 366l0.2 33.3 0.2 41.6 0.2 41.6-47.5-0.1-11.6-0.1 0.3-0.4 2.2-3.2 0.2-1.4-0.2-1.7-0.9-1.2-1.1-0.8-1.3-0.7-1.3-0.9-1.4-2.7-2.6-10.4-1.6-3.2-1.8-2.3-6.6-3-2-1.3-10.3-11.5-1.2-2.5-0.3-2.1 0.2-1.8 2.1-5 3-4.9 6.6-8.9 2.3-4.4 1.2-1.9 7.2-7.8 1.8-1.3 5.6-2.1 1.6-0.9 1-1.7 0-0.9-1.5 0.7-0.6 0.4-0.8 0.1-8.1-1.4-2.5-0.7-0.5-0.5-0.3-1.7-0.3-0.7-1-0.6-1.2 0.5-1.1 0.7-1.2 0.5-1.9 2.2-1.3 0.5-2.1-3.8-1.1 0.3-1.2 1.2-1.6 0.7-1.5-0.2-2.8-0.9-1.5-0.1-1.9 0.4-5.2 2.6-4.6 1.4-4.2 0.4-4.3-0.5-4.9-1.2-5.3-2.6-0.2-2.6 1.8-3.3 0.9-4.4-0.6-1.8-2-3-0.3-2.1 0.6-2.3 4.1-6.1 1.1-2.9 0.8-3.8 0.3-3.7-0.8-2.6-10.7-8.5-4.1-4.9 17.7-10.6 5.8-2.3 1.5 0.2 4.4 0.9 18.2 7.7 2.8 0.9 4 0.7 2.6-0.2 2.2-0.8 1.5-1.3 2.5-2.6 1.6-1.2 2.2-0.9 1.4 0.6 1 1.2 0.7 2.2 4.7 29.7 0.8 1.9 1.3 1.4 2.7 1.4 2.6 0.1 3.2-0.3 3.1-0.7 3.5-0.2 10.2 1.1 1.9-0.3 1.8-0.8 6.9-1.1 16.5 2.2 0.1 0z" id="GQWN" name="Wele-Nzás">
  </path>
  <path d="M47.7 872.5l-1-1.8-0.2-1.9 0.7-1.6 1.6-1.1 2.1 3.6-0.6 3.9-2.2 2-2.6-1.9 0.8-0.2 0.6-0.7 0.8-0.3z" id="GQAN" name="Annobón">
  </path>
  <path d="M524.2 63.9l0.2-2.5 2.1-5.6 4.2-6.8 5.5-5.5 6.6-1.8-0.4 0.6-0.6 1.7 4.9 1 2.2 0.1 1.5-1.1 3.6 1.1 5.2 0.7 5.4-0.1 4.4-1.7 0.4 0.7 0.5 0.2 1.3 0.2 4.2 5.3 1.6 2.7 0.7 3.4-0.3 3-0.6 2.8-1 2.5-1.3 2.1-5.8 5.1-1.6 4.4-5.3 6.2-2.5-6.2-0.4-0.7-0.5-0.6-1.4-1-2.1-0.7-4.3-0.9-4.1-0.2-1.2 0.1-1.3 0.1-1.9-0.4-2.2-0.9-6.9-4.9-2.1-1.1-4.3-1.5-2.3 0.2-0.1 0z" id="GQBN" name="Bioko Norte">
  </path>
  <path d="M524.2 63.9l0.1 0 2.3-0.2 4.3 1.5 2.1 1.1 6.9 4.9 2.2 0.9 1.9 0.4 1.3-0.1 1.2-0.1 4.1 0.2 4.3 0.9 2.1 0.7 1.4 1 0.5 0.6 0.4 0.7 2.5 6.2-0.4 0.6-3.2 8.5-2.7 2.2-0.8 3.7-0.4 0.9-0.4 0.5-4.5 2.7-0.6 2.6-0.1 7.3-1 2.6-7.1 8.3-5.5 8.9-1.4 1.8-1.6-1-3.6-1.6-0.8-1-1 0.4-2.3-0.8-4.4-2.5-1.2 0.4-3.6 0.8-1.6 0-1.7-0.7-3.4-2.2-2.1-0.5-3.4-0.1-3.8-0.9-3-2.3-1.3-4.7-0.7-1.7-1.4-2.1-1.1-2.1 0.5-1.8 0.7-1.4 0.9-6.8 1.1-3 2.1-4 3-2.7 3.7 1.1 2-1.2 2.7 0.1 5.7 1.1 2.6-1.1 0.9-2.6-0.4-2.9-1.5-2.2 2-1.1 2.5-1.8 2.2-2.1 0.9-2 0.9-12.3z" id="GQBS" name="Bioko Sur">
  </path>
 </g>
 <g id="points">
  <circle class="-1.2132768165841104|5.898207350320881" cx="90.9" cy="833.9" id="0">
  </circle>
  <circle class="0.8859582495793912|8.760383053863382" cx="545.5" cy="500.5" id="1">
  </circle>
  <circle class="3.5100020822837683|11.05012361669738" cx="909.1" cy="83.5" id="2">
  </circle>
 </g>
 <g id="label_points">
  <circle class="Litoral" cx="707.7" cy="424.7" id="GQLI">
  </circle>
  <circle class="Kié-Ntem" cx="916.9" cy="322.7" id="GQKN">
  </circle>
  <circle class="Centro Sur" cx="809.5" cy="422.6" id="GQCS">
  </circle>
  <circle class="Wele-Nzás" cx="916.7" cy="426.6" id="GQWN">
  </circle>
  <circle class="Annobón" cx="48.8" cy="870.1" id="GQAN">
  </circle>
  <circle class="Bioko Norte" cx="552.8" cy="58.8" id="GQBN">
  </circle>
  <circle class="Bioko Sur" cx="529.7" cy="104.3" id="GQBS">
  </circle>
 </g>
</svg>