<?xml version="1.0"?>
    
<!--********* Copyright (c) 2024 Pareto Softare, LLC DBA Simplemaps.com ***************************************
************* Free for Commercial Use, full terms at  https://simplemaps.com/resources/svg-license ************
************* Attribution is appreciated! https://simplemaps.com *******************************************-->

<svg baseprofile="tiny" fill="#6f9c76" height="583" stroke="#ffffff" stroke-linecap="round" stroke-linejoin="round" stroke-width=".5" version="1.2" viewbox="0 0 1000 583" width="1000" xmlns="http://www.w3.org/2000/svg">
 <g id="features">
  <path d="M752.3 27.6l77.2 0.3 105 0.5-2.4 19.9 0.5 6.8 2.9 8.2 14.9 18.9 3.3 6.2 0.8 5.1-1.1 5.3-5.2 12.4-0.6 2.6-0.3 3.9 0.9 8.7-0.3 3.6-2.3 5.8-1.2 8-0.1 0.2-4.9 7.5-8.6 3.2-20.1 0.3 3.8-6.9-5-1.4-8.1 1.9-5.6 3.4-7.2 5.9-18 8.5-6.4 7.4-0.8 3.1 0 6.5-1.3 3.3 2.3 1.1 7.8 1.1 6 2 5.6 3.5 5.8 5.6 3 2.1 8.1 2.9 1.4 1.7 0.7 2.4 1.7 2.9 6.5 7.2 3.5 2.4 4.8 2.1 10.4 1.7 2.9 1.4 3.2 5 0.4 5.7-2.6 12.3-1 12.6 4.6 35.6-0.1 5.5-1.5 13-1.6 4-4.7 3.5-7.1 2.9-7.7 1.4-5.9-0.9-1.8-2.2 0.7-2.2-0.2-2-4.3-1.2-2.5-1.6-0.9-6-2.6-1.9-4.5-0.1-0.9 1.7 1.4 3.4-0.7 6.9-0.8 2.9-3.8 5.8-5.1 3-6 0.1-6.4-3.2-2.4 1.8-12.7 7.9-5.6 2-12.9-2.1-4.7 0.1-8.9 1.6-4.1 0.1-4.9-1.1-2.8-1.7-2.6-2.3-2.6-1.8-3-0.6-6.8 1-24.8-1.7-1.7-0.9-1.5-0.2-3.2 1.7-2.3 2.6-3.5 7.3-2 3-3.7 3-27.6 15.1-0.1-0.1-6.7-9.5-1.5-5.3 0-2.2-1.1-4.4-12.8-3 1.6-16.8 1.1-4.1 1-0.8 1.2-0.8 4.8-2.1 1.7-1.3 2.2-2.5 0.5-1.8-0.3-1.6-1-1.1-2.2-1.9-0.8-1.6-0.5-1.9 0.1-5.7-1.7-11.2-0.6-13.7 0.2-3.6 0.5-2.6 3.5-10.3 0.2-2.3-0.5-1.8-1-1.1-6.1-4.4-1.1-1.2-0.9-1.5-0.8-2.9 0-1.9 0.6-1.3 0.6-0.6 1-2.2 1.1-3.7 1.4-8.4 0.1-4-0.8-2.4-1.2-0.7-4.4-2-2.4-1.4-1.3-1.1-1.2-1.6-1-2.9 0-2.7 0.6-3.4 0.9-1.8 1.4-1.1 1.5-0.4 1.7 0 3.7 0.7 1.4 0 1.4-0.3 1.3-0.7 3.2-2.7 1.3-0.7 1.4-0.3 1.5 0.2 1.9-1 1.9-2.3 2.5-6.6 0.6-3.5-0.3-2.5-0.9-1.1-1.3-0.8-3-1-1.4-0.8-1.2-0.8-0.9-1-0.6-0.8-0.5-1-4.7-15.8 0-2.4 0.3-1.9 1.7-3 0.9-1.9 0.9-3.6 0-2-0.4-1.8-0.9-1.2-2.2-2.1-2.5-1.5-1.3-0.5-5-1.5-1.4-0.6-1.2-0.9-1-1.1-1.7-2.5-1.1-1.1-1.3-0.7-4.9-0.9-0.5-0.7 0-0.7 0.2-0.4 0.6-0.6 0.7-1 0.5-1.3-0.8-0.8-1.4-0.5-0.4-1 0.3-1.2 0.9-1.2 1-1.1 1-1 1.2-0.6 1.1-0.2 2.3 1.1 1.6 0.2 1.7-0.1 1.8-0.3 1.6-0.6 1.4-0.9 1.1-1.4 0.1-1-0.2-1.1-0.7-1.5-1.4-5.2 0-2.1 0.7-1.2 1.1-0.3 0.8 0.3 0.7 0.7 1.4 2.5 1 0.9 1.2 0 1-0.7 0.9-1.1 1-0.9 1.5-0.7 1.6-0.6 1.8-1.6 0.5-1.8 0-1.8-0.6-1.6-0.7-1.3-3.9-4.6-1.1-0.9-1.3-0.6-1.4-0.1-1.3 0.5-4.1 2.4-1.4 0.5-1.5 0.5-1.7-0.1-1.3-0.6-1.1-1.9-0.9-2.8-1-5.4 0.2-2.7 0.7-2 1.3-0.7 1.5 0 1.3 1.2 0.1 1.5-0.3 2 0.3 1.3 1.2 0.5 1.4-0.2 2.4-0.9 0.7 0.2 0.8 0.6 0.8 1 1.4 0.6 1.6 0 3.3-0.5 1.4 0.4 1.1 0.9 1 2.6 0.5 0.7 0.9 0.6 1.2 0.1 1.2-0.4 0.9-0.7 3.5-3.5 1.1-0.9 1.4-0.6 1.7 0 1.4 0.6 1.2 0.9 2 1.9 0.9 0.7 0.5 0.3 1.5 0.2 0.8-0.1 0.5-0.2 0.6-0.4 1.1-1.4 1.1-2 1.6-4.1 0.4-2.2-0.6-1.3-1.1-0.1-1.2-0.5-1.9-1.9-3-1.2-1.1-0.9-0.8-1.3-1-4-1.4-17.3 0.6-2.1 1.1-0.6 1.1 0.7 2.2 1.9 1.7 2.5 1 1 1.3 0.4 1.7-0.2 1.5-0.5 1.4-1.4 1.3-2.1 1.3-4.2 4.8-10z" id="GWGA" name="Gabú">
  </path>
  <path d="M703.7 341.1l12.8 3 1.1 4.4 0 2.2 1.5 5.3 6.7 9.5 0.1 0.1-26.3 14.5-12.2 2.2-24.7-2.9-12.2 1.3-7.2 4-5.3 5.9-29.4 43.3-4.5 11.4-5.9 23.7-28.4 55.2-9.9 11.9 0 0.1-8.5 8.7-11.5 8.1-7.5 3.9-3.4-0.5 0.8-4 2.1-2.1 2.6-1.3 2.6-1.9 4.4-6.8 1.8-1.6 0-2.1-2.2 0-1.2 2.8-1.5 2.5-2.2 1.9-3.2 1.1-3.4 0.1-3.3-0.7-2.4-1.8-1-2.7 5.3-22.2 1.8-3.7 3.1-1.6 1.9-4 1.4-4.4 1.8-3.5 1.7-0.8 3.7 0.2 1.6-0.5 0.2-1.1-0.4-4.1 0.2-1 12.3-1-0.6-2.5-1.5-2.1-1.9-1.5-2.1-1.1 4-4.2 2.3-5.7-0.3-5.4-4.1-3.3-2.7 7.9-4.4 5.7-5.9 3.5-7.3 1.5 1.7 4.8-1.3 3-2.9 0.6-3.3-2.2-0.7 1.5-0.8 1.2-0.6 1.4-0.1 2.1-1.2-0.8-3.1-1.3-0.1 5.8-1.7 2.7-3.1 1.9-4 3.2-3.4 4.4-4.4 8.5-7.7 10.4-3.2 3.2-3.6 1.3-3.9-1.7-4.5-4-3.4-4.5-0.4-3.2 3.3-2.4 8.8-4.4 3.2-2.5 1.5-3.5 2.3-13.1-3.2-25.5 3.2-7.4-6.6 1.1-1.8 4.4 1 5.9 1.5 5.1 0.5 4.6-0.4 7.3-2.1 5.2-7.7-3-10.5 0.2-3.1-0.9-2.3-1.3-1.6-1.3-1.2-0.6-7 1-3.6-0.6-1.6-3.4-0.8-3.3-2.1-2.2-3-1.3-3.3-0.4-4.4-3.1-1.1-7.3 0.4-14.5 0.7-3.2-0.2-2.1-1.6-0.9-1.8 0-1-0.4-0.3-0.9-0.1-1.9 0.4-3.2 1.5-4 0.3-3.2 1.5-2.8 7.5-10.1 3.2-2.6 1.9 0.5 6 2.8 3.4 0.7 3-1 4.1-4.1 3-0.9 3-1.7 3.5-4.1 3.1-4.7 0.1-0.1 2.7-1.9 14.6-12.3 5.4-1.8 1.5 0.6 5.3 2.7 4.9 3.6 2.4 1 1.1 0.5 1 0.9 4.6 5.9 1.4 1.3 1.8 1.3 3.3 1.6 2.4 0.5 2 0.1 10.8-3.9 7-1.1 1.7-0.4 2.8-1.4 1.5-0.5 11.5-2.7 2.5-1.2 1.8-1.2 3.2-4.9 3.5-7.2 1.8-2.3 1.2-1.3 0.9-1.2 0.7-1.1 0.5-1.6 0.4-1.6 0.1-1.9-0.2-5.6 0.4-3.7 0.3-1.8 4-8.7 13.5-19.9 7-13 5.2 2.7 1.3 2.7 0 3.5 1.4 5 4.9 6.8 7.4 6.4 8.2 3.4 7.1-2.2 7.9-8.1 3-1 4.9 0.3 1 0.6 3.4 2.8 1.9 0.8 2.7-0.3 8.3-3.7 6.7-1.5 13.6-1.4 6.7 0.4z" id="GWTO" name="Tombali">
  </path>
  <path d="M595.5 26.9l23.9 0.1 105 0.5 27.9 0.1-4.8 10-1.3 4.2-1.3 2.1-1.4 1.4-1.5 0.5-1.7 0.2-1.3-0.4-1-1-1.7-2.5-2.2-1.9-1.1-0.7-1.1 0.6-0.6 2.1 1.4 17.3 1 4 0.8 1.3 1.1 0.9 3 1.2 1.9 1.9 1.2 0.5 1.1 0.1 0.6 1.3-0.4 2.2-1.6 4.1-1.1 2-1.1 1.4-0.6 0.4-0.5 0.2-0.8 0.1-1.5-0.2-0.5-0.3-0.9-0.7-2-1.9-1.2-0.9-1.4-0.6-1.7 0-1.4 0.6-1.1 0.9-3.5 3.5-0.9 0.7-1.2 0.4-1.2-0.1-0.9-0.6-0.5-0.7-1-2.6-1.1-0.9-1.4-0.4-3.3 0.5-1.6 0-1.4-0.6-0.8-1-0.8-0.6-0.7-0.2-2.4 0.9-1.4 0.2-1.2-0.5-0.3-1.3 0.3-2-0.1-1.5-1.3-1.2-1.5 0-1.3 0.7-0.7 2-0.2 2.7 1 5.4 0.9 2.8 1.1 1.9 1.3 0.6 1.7 0.1 1.5-0.5 1.4-0.5 4.1-2.4 1.3-0.5 1.4 0.1 1.3 0.6 1.1 0.9 3.9 4.6 0.7 1.3 0.6 1.6 0 1.8-0.5 1.8-1.8 1.6-1.6 0.6-1.5 0.7-1 0.9-0.9 1.1-1 0.7-1.2 0-1-0.9-1.4-2.5-0.7-0.7-0.8-0.3-1.1 0.3-0.7 1.2 0 2.1 1.4 5.2 0.7 1.5 0.2 1.1-0.1 1-1.1 1.4-1.4 0.9-1.6 0.6-1.8 0.3-1.7 0.1-1.6-0.2-2.3-1.1-1.1 0.2-1.2 0.6-1 1-1 1.1-0.9 1.2-0.3 1.2 0.4 1 1.4 0.5 0.8 0.8-0.5 1.3-0.7 1-0.6 0.6-0.2 0.4 0 0.7 0.5 0.7 4.9 0.9 1.3 0.7 1.1 1.1 1.7 2.5 1 1.1 1.2 0.9 1.4 0.6 5 1.5 1.3 0.5 2.5 1.5 2.2 2.1 0.9 1.2 0.4 1.8 0 2-0.9 3.6-0.9 1.9-1.7 3-0.3 1.9 0 2.4 4.7 15.8 0.5 1 0.6 0.8 0.9 1 1.2 0.8 1.4 0.8 3 1 1.3 0.8 0.9 1.1 0.3 2.5-0.6 3.5-2.5 6.6-1.9 2.3-1.9 1-1.5-0.2-1.4 0.3-1.3 0.7-3.2 2.7-1.3 0.7-1.4 0.3-1.4 0-3.7-0.7-1.7 0-1.5 0.4-1.4 1.1-0.9 1.8-0.6 3.4 0 2.7 1 2.9 1.2 1.6 1.3 1.1 2.4 1.4 4.4 2 1.2 0.7 0.8 2.4-0.1 4-1.4 8.4-1.1 3.7-1 2.2-0.6 0.6-0.6 1.3 0 1.9 0.8 2.9 0.9 1.5 1.1 1.2 6.1 4.4 1 1.1 0.5 1.8-0.2 2.3-3.5 10.3-0.5 2.6-0.2 3.6 0.6 13.7 1.7 11.2-0.1 5.7 0.5 1.9 0.8 1.6 2.2 1.9 1 1.1 0.3 1.6-0.5 1.8-2.2 2.5-1.7 1.3-4.8 2.1-1.2 0.8-1 0.8-1.1 4.1-1.6 16.8-6.7-0.4-13.6 1.4-6.7 1.5-8.3 3.7-2.7 0.3-1.9-0.8-3.4-2.8-1-0.6-4.9-0.3-3 1-7.9 8.1-7.1 2.2-8.2-3.4-7.4-6.4-4.9-6.8-1.4-5 0-3.5-1.3-2.7-5.2-2.7-9.4 1-0.4-1.6 7.5-8.9 1-2.4-1.1-1.3-7.6-3.4-1.2-0.1-1.3 0.5-1.7 1-0.8-1.1-1.1-2.6-1.6-2.7-0.5-2.3-1-2.2-2.7-1.2-3.2 0.2-2 1.6-1.2 4-7.7 2.7-5.4-4.8-4.1-6.8-4-3.4-8.8-1.1-2.6-0.8-3.4-2.1-1.7-2.1-1.4-2.4-2.5-2.9-1.3-3.9 2.6-3.6 3.8-3.5 1.9-3.6 5.4-14.8 0.2-1.9 1.3-0.8 4.4-0.2 3-0.8 0-0.1 0.1 0 0.8 0.2 3.4 0.2 3.1-0.7 1.6-0.6 1.4-0.6 1.2-0.8 0.9-0.6 0.5-0.5 0.2-0.9-0.1-1.1-0.7-2-2.1-4.3-0.4-1.4-0.1-0.7 0.1-2 0.5-2.1 1.1-2.6 0.5-1.6-0.9-1.5-12-6.9-1.6-1.2-2.4-1.2-3.4-0.8-1.3-0.7-0.9-1.2-0.6-1.5-1.1-7.5-1.2-2.9-9.3-16.1-0.2-1.9 0.6-2.2 2.2-3.5 2.9-3.4 1.1-1 1.2-0.9 1.2-0.5 1.6 0.1 1.5 0.4 1.6 0.2 1.6-0.2 1.5-0.5 1.6-0.4 1.4 0 1.1 0.2 1 0.4 7.8 4.2 1.6 0.5 1.7 0.3 5.7 0.3 3.3 0.6 1.2-0.9 0.6-2.5 0.2-14 0.8-5.9-0.6-4.1-0.9-2.4-1.1-1.3-5.7-4.8-0.9-1.1-0.8-1.3-0.5-1.6-0.3-1.9-1.1-29.8 0.5-1.6 1.5-0.7 14.3-2.9 4.7-1.7 1.3-0.8 3.5-2.8 1.4-0.7 1.5-0.6 1.4-0.7 1.2-0.9 0.9-1.2 0.3-1.7-1-2.5-0.9-1.7-0.7-1.1-0.7-1-4-3.8-7.4-5.1-1-1-0.6-1.8 0-2.5 1.9-4.7 1.3-2.5 2.9-4.3 1.3-3 4.7-7.9 0.7-1.6 0.6-2.1 0.1-3.5-0.5-3.6-3.4-6.1z" id="GWBA" name="Bafatá">
  </path>
  <path d="M595.5 26.9l3.4 6.1 0.5 3.6-0.1 3.5-0.6 2.1-0.7 1.6-4.7 7.9-1.3 3-2.9 4.3-1.3 2.5-1.9 4.7 0 2.5 0.6 1.8 1 1 7.4 5.1 4 3.8 0.7 1 0.7 1.1 0.9 1.7 1 2.5-0.3 1.7-0.9 1.2-1.2 0.9-1.4 0.7-1.5 0.6-1.4 0.7-3.5 2.8-1.3 0.8-4.7 1.7-14.3 2.9-1.5 0.7-0.5 1.6 1.1 29.8 0.3 1.9 0.5 1.6 0.8 1.3 0.9 1.1 5.7 4.8 1.1 1.3 0.9 2.4 0.6 4.1-0.8 5.9-0.2 14-0.6 2.5-1.2 0.9-3.3-0.6-5.7-0.3-1.7-0.3-1.6-0.5-7.8-4.2-1-0.4-1.1-0.2-1.4 0-1.6 0.4-1.5 0.5-1.6 0.2-1.6-0.2-1.5-0.4-1.6-0.1-1.2 0.5-1.2 0.9-1.1 1-2.9 3.4-2.2 3.5-0.6 2.2 0.2 1.9 9.3 16.1 1.2 2.9 1.1 7.5 0.6 1.5 0.9 1.2 1.3 0.7 3.4 0.8 2.4 1.2 1.6 1.2 12 6.9 0.9 1.5-0.5 1.6-1.1 2.6-0.5 2.1-0.1 2 0.1 0.7 0.4 1.4 2.1 4.3 0.7 2 0.1 1.1-0.2 0.9-0.5 0.5-0.9 0.6-1.2 0.8-1.4 0.6-1.6 0.6-3.1 0.7-3.4-0.2-0.8-0.2-0.1 0-0.1-1.9-1.8-2.1-2.1-1.3 0-1-3-1-3.4-0.2-2.9 1.3-2.4 0.5-6.5-2.7-3.3-0.8-4.2 1.3-9.1 5.5-4.8 1.3-2.5 2-8.4 9.4-4.3 3.1-6.8 1.1-5.6-1.1-11.9-4-11.5-1.9-3.7-1.8-4.2-3.7-5.6-3.7-6.6-1.5-7 0.3-6.5 1.8-2.2 1.4-4.8 4.1-1.9 0.9-6.4-0.4-3.3 0.2-2.4 1.1-9.3 9.4-1.8 1.1-3.2 1.3-5.5-3.3-1.6-1.4-3.9-4.8-2.4-1.1-3.7-1.2-1.6-1.3-1.1-1.1-3.5-6.3-1.9-6.3-0.9-1.8-9.5-11.8-0.9-2.4-0.3-1.4 0-1.9 2.3-8.8 0.1-2.5-0.3-2.1-0.4-1.7 0-1.8 3.6-12.4 0.3-3.2-0.2-2.4-0.7-1.3-1-1.1-1.3-0.9-7.9-2.6-1.5-0.7-1.2-0.8-1.2-1-2.9-3.3-6.8-5.8-4.1-4.5-0.8-1.3-0.6-1.3 0-1.3 0.5-1.3 2.3-2 0.3-1.9-0.6-1.1-0.6-1.4 0.2-2 3.4-4.6 1.8-2 1.6-1 0.9 1.4 0.5 3 1.1 0.7 1.5 0 1.8-0.2 1.7-0.5 1.2-1 0.3-1.9-0.4-1.5-0.1-1.5 0.9-1.4 2.7-1.1 2.2-0.4 5.6 0.4 1.6-0.4 5.9-2.9 1.5-1.4 1.6-2.8 1.6-1.9 11.2-7.2 5.7-2.1 3.1-1.5 5.4-3.9 2.9-1.1 2.4-0.4 1.4 0.4 1.3-0.1 1-0.1 1.4-0.4 1.7-0.1 1.7 0.3 1.2 0.8 1.5 4.9 0.9 1.2 1.2 0.8 1.7 0 1.7-0.6 9.9-7 1.4-0.7 1.6-1.2 1.4-1.8 1.7-6.8 0.7-4.3 0.2-4.1-1-6.9-5.5-18.6-0.7-1.7 15.7-11.6 18-8.3 17.3-12.5 7.6-3.5 8.5-1.3 14.5 0.1 81.2 0.3z" id="GWOI" name="Oio">
  </path>
  <path d="M432.7 63.7l0.7 1.7 5.5 18.6 1 6.9-0.2 4.1-0.7 4.3-1.7 6.8-1.4 1.8-1.6 1.2-1.4 0.7-9.9 7-1.7 0.6-1.7 0-1.2-0.8-0.9-1.2-1.5-4.9-1.2-0.8-1.7-0.3-1.7 0.1-1.4 0.4-1 0.1-1.3 0.1-1.4-0.4-2.4 0.4-2.9 1.1-5.4 3.9-3.1 1.5-5.7 2.1-11.2 7.2-1.6 1.9-1.6 2.8-1.5 1.4-5.9 2.9-1.6 0.4-5.6-0.4-2.2 0.4-2.7 1.1-0.9 1.4 0.1 1.5 0.4 1.5-0.3 1.9-1.2 1-1.7 0.5-1.8 0.2-1.5 0-1.1-0.7-0.5-3-0.9-1.4-1.6 1-1.8 2-3.4 4.6-0.2 2 0.6 1.4 0.6 1.1-0.3 1.9-2.3 2-0.5 1.3 0 1.3 0.6 1.3 0.8 1.3 4.1 4.5 6.8 5.8 2.9 3.3 1.2 1 1.2 0.8 1.5 0.7 7.9 2.6 1.3 0.9 1 1.1 0.7 1.3 0.2 2.4-0.3 3.2-3.6 12.4 0 1.8 0.4 1.7 0.3 2.1-0.1 2.5-2.3 8.8 0 1.9 0.3 1.4 0.9 2.4-11.9 6.5-0.3 0.3 0.2 0.2-2.2-2.3-1.7 1.2-2.8 2.8-4.2 2.4-5.5-0.2-1.8-1.2-2-3.5-2.3-1.5-2.6-0.7-1.2 0.1-1.3 0.4-11.2 0.8-3.8-1.1-2.1-3.6-2 0-2.2 5-5.5 3.1-6.8 1.7-6 0.5 0.8 2.2 0.4 0.9 0.9 1.2-1 0.3-0.7 0-0.4 0.3 0 1.3-2.3-1.3-1.7-1.3 0.1 1.4 1 4.1-0.6 3.7-2.5 4-4.4 3.9-4 1.8-22 0.3-2.8 1-6 2.7-2.3 0.6-1.6 1-1.9 2.2-2.4 2.2-3.4 0.8-2.9-1-2.6-2.2-4.6-5.2-7.3 1.6-9.5-1.8-8.2-3.5-3.5-3.5-6.1-13.4-2.8-1.6-8-1.2-3.4-1.5-2.5-2.8-1.8-3.7-1.2-4.3-1-9.3-2.9-7.7-0.7-4.2 8.1-17.6 3.1-3.8 3.4-2.9 3.7-2.2 3.8-1.7 0.2 3.6 1.4 2.7 2.2 0.6 2.6-2.7 0.3-2.5-2.6-4.5 0.1-3.4 3.3-4.7 5.1-3.2 5.5-2.3 21.7-12.9 4.9-4 2.3-2.8 3.3-5.2 2.7-2.3 2.6-1.2 6.6-1.6 2.9-1.2-7.9-0.3-5.2 2.2-4.1 4.1-4.1 5.3-6 4.2-15.3 3.2-6.1 2-10.2 6.6-3 2.6-10 11.5-5.6-2.3 0.5-5.6 2.2-6.8-0.2-6-1.6 4.5-3.8 6-1.8 11.1-2.9 4.4-4.4 1.4-5.8-2.5-2 2-0.8-1.3-3.4-2.8-0.6 4-2.4 1.8-3.6 0.5-4.5-0.1-0.7 1.1-1.8 2.2-1.8 1.3-0.8-1.4-0.5-1.2-1.3-1-1.6-0.7-5.7-1.1-2.8-2.1-1.7-3-0.6-3.4-1.8-1.6-7.1-8.1-0.2-1.9-2-1.1-6.3-5.3-2.8-1.7-1.4 0.3-4.5 1.7-2.2-0.1-1.7-1.4-2.8-4.8-1.6-2.1-11-8.6-3.3-1.7-4.4 0-3.4 1.4-3.1 1.8-3.5 1.1-2.1-2.7 6.7-4.7 10.9-2.6 40.2 2.7 5.4-0.2 15.5-3.9 14.9-0.1 9-3.7 23.7-12.9 20.5-11.1 3.1-0.7 3.2 0.6 6.4 2.6 2.4 0.4 1.4-0.6 1.3-1 2-0.9 22.4-3.9 10.5 1 18.5 6.2 5.7 1.1 23.6-1.7 2.9 0.1 51.1 3.1 10.2-2.2 74.8-35.1 0.9-0.6z" id="GWCA" name="Cacheu">
  </path>
  <path d="M360.4 223.1l9.5 11.8 0.9 1.8 1.9 6.3-14 25.6-1.8 10.2-0.2 5.2 0.4 7.8-0.8 0.3-19.2 3.5-2.9 1.8-2.8 2.6-14.2 7.4-5.6 1.4 6-24.5 5.5-10.2 7.2-0.5 1.7 1.1 2.2 0.8 2.8 0.3 3.1-0.2 0-2.1-5.6-0.3-6.9-6-5.7 0.1-4.7 3.6-1.3 5.2-0.6 5.7-9.6 18.9-3 1.7-5.8-1.4-1.2-3.9 1.9-11.2-5 2.4-1.1 4.9-0.2 6-2 5.5-1.8 1-6.5 2.4-2.8 1.8-3 2.6-1.7 0.4-1.2-1.3-1.2-2.8-0.8-6 1.8-6.1 5.1-10.8 4.3-16.8 1.8-4.1 1.2-1.2 1.8-1.2 2.2-1.1 1.9-0.4 1.2-1.1 2-7.4 7.6-11.6 2.5-2.7 4.2-2.5 6.2-2.5 6.6-1.7 5.2 0.2 1.6 1.7 1.1 2.9 1.6 2.7 2.9 1.1 5.9 0.4 2.6 0.7 2.5 1.2 1-4.3 2.1-4.4 1.2-3.7-0.2-0.2 0.3-0.3 11.9-6.5z m-148.1 48.5l5.1-1.8 5.8 0.2 10.5 1.6 3.9-0.6 4.4-1.5 8.9-4.5-1.2-1.2 0.1-0.2 0.6-0.5 4.2-0.1 3.9-0.2 4.3 0.4 2.2 2.6 0.6 0.9-1 7.9-2.4 3.7-2.9 3.4-2.3 4.2-2.6 11.8-1.8 4.8-3.6 4.3-3-2.2-3.5 0.5-3.3 1.3-2.7 0.4-3.7-2.4-7.4-11.1-3.4-1.8-3.7 0-2.8-0.7-1.2-3.8-0.1-8.4-0.6-3.9-1.3-3.1z" id="GWBM" name="Biombo">
  </path>
  <path d="M372.7 243l3.5 6.3 1.1 1.1 1.6 1.3 3.7 1.2 2.4 1.1 3.9 4.8 1.6 1.4 5.5 3.3-1.1 0.4-1.8 1.1-8.8 12.7-2.4 2-6 1.7-13.1 8-5.7 2.4-0.4-7.8 0.2-5.2 1.8-10.2 14-25.6z" id="GWBS" name="Bissau">
  </path>
  <path d="M608.1 323.9l-7 13-13.5 19.9-4 8.7-0.3 1.8-0.4 3.7 0.2 5.6-0.1 1.9-0.4 1.6-0.5 1.6-0.7 1.1-0.9 1.2-1.2 1.3-1.8 2.3-3.5 7.2-3.2 4.9-1.8 1.2-2.5 1.2-11.5 2.7-1.5 0.5-2.8 1.4-1.7 0.4-7 1.1-10.8 3.9-2-0.1-2.4-0.5-3.3-1.6-1.8-1.3-1.4-1.3-4.6-5.9-1-0.9-1.1-0.5-2.4-1-4.9-3.6-5.3-2.7-1.5-0.6-5.4 1.8-14.6 12.3-2.7 1.9-0.1 0.1 1.5-4-16.3 13.3-5.9 3.2-4.6-2.7-0.9-3.5 1.4-9.2 1.8-3 3.5-3.7 2.4-3.3-1.6-1.6-5.1 1.4-3.8 3.8-2.5 5.1-0.9 5.3-1.9 3.5-4.3 2.2-4.8 1.7-3.4 2-2.8 4.7-1.5 4.1-2.5 2.7-6.1 1-3.9 1.3-3.3 1.7-2.5-0.9-1.3-6.4 0.9-3.2 4.4-10.9 1.5-2.4 0.9-2.1 8.3-12.3-5.2-0.3-1.8-2 0.1-3.6 0.8-4.5 2.4 1.5 2.6 0.2 2.7-1.2 2.7-2.7 0.2 1.9 1.6 4.5 1.3-4 2.2-3.4 2.5-0.8 2.1 4 2.2 0-0.3-2.9-0.8-2.8-1.3-2.5-1.8-2.3 1.4-0.2 0.2-0.3-0.1-0.5 0.5-1 2.7 1.1 3.2 0.7 4.2 0.2 4.9 1.3 1.7-1-2.4-4.4 1-2.3 1.1-3.9 2 0 2.4 3.3 4.1-0.5 3.4 0.1 0.2 5.4 5.7-2.1-0.2-4.1-3.5-4.6-4.2-3.7-1.3 0.8-1 0.4-3.6 0.9 0-2.1 6.5-2.2 3-1.7 2.8-2.5 2.2 3.8 3.7 4.3 4.9 2.4 5.4-2-3.6-0.6-0.3-2 0.7-2.9-0.8-3-2.4-1.2-2.5 0.1-2.1-0.9-1.1-4 3.3 1.1 6.5 1.4 2.3 1.5 4-2.1-0.6 2-0.8 4.3-0.7 2 7.3 5.2 2.2-0.4 2.8-4.8-1.5-2.7-3.8-5.1-0.8-1.5 0.8-2 2.1-2.4 2.5-1.9 2.5-1 0.6 0.7 2.3 1.4 3.1 1.4 3.3 0.7 1.9 1 1 2.6 0.4 3.4-0.1 3.3 5.7-2.1-0.5-1-0.7-2.1-0.6-1 4.4 0.3 3.1 1.6 2.4 2.8 2.2 3.6-11.7 2.3-4.3-0.1 1.4 1.6 0.7 1.2 1.1 0.8 2.5 0.5-1.2 4.8 1.6 2.7 2.6-0.2 2.8-8.1 3.5-0.3 3.5 0.7 1.6-0.6 9.4-0.5 2.7-0.5 3.4-1.7 2.4-2 1.5-2.8 1-4-3.7 1.2-2.7 1.5-3 1.1-9.9 1.1-2.2-0.8-1-3.1 0.6-1.4 1.6-1 2-0.6 2.1-0.1-1.2-2.7 0-1.7 1.2-3.9-3.4-0.8-2.7 1.6-1.7 3.3-0.5 4.2-4-4.7-2.6-1.4-3.7 0.1 0-2.3 2.1-1.1 4.4-5.1 0-2-2.2-4.2-2.1 0-4 10.4-3.6 0.8-4.4-2.5-4.2-0.4 3.1-4.6 4.2-2.1 3.6-2.4 1.3-5.5-2.5 2.6-2.8 1.4-2.7-0.1-2.3-1.9-1.9 0-0.2 3.1-0.9 2-1.9 1-3 0.3 0.9 4.4-2.2 1.2-3.1-1.6-1.7-4-4.5 6.5-2.5-1.7 1.5-5.2 7.3-3.7-2.6-1.9-1.1-2.5 0.3-2.8 1.6-3.2 1.8 0 1.3 0.9 1.2 0.3 3.6 0.7-1.3-4.2-2.6-2.7-6-3.2-2.1 0-0.8 4.9-2 3.9-1.6 4.2 0.4 5.6-3.1 1.2-2.6 3.9-2.6 1.1-1.8-1.1 0.8-2.8 3.1-4.6-3.5-1.5-0.6-3.7 2-9.1-2.9 1.8-1.8 2.5-1 3.3-0.4 3.7-1.1 0.3-6.2-0.1-2.7 0.8 4 2 0 2.3 3.4 2.4 3.4 2.1 1.5 2.7-1.2 4-2.6 1-2.8-1.2-1.7-2.8-1.4 2.4-1.2 2.6-0.8 2.6-0.6 2.8-2.3-11.7-1.8-4.1-1.5 0.5-0.1-0.6-3.3-1.3-5.4-1-1.6-0.1-4.2 0.4-10 2.5-0.9 0.8 0.3-4-9.6 9.3-5.1 2.6-5.3-3.7 1.4-2.6 0-6.4 0.4-3.5-3.9-0.2-2.4 1.2-1.7 1.8-1.9 1.5-0.1 1-2.3 2.6-2.6 1.7-1.3-2.2-1-5.1-1.6-4.9 0-5.1 5.5-8.2 2.3-6.7 2.1-3.1 11.1-11.4 3.3-2.2 1.8-0.7 0.8-1.1 0.2-3.4 0.7-3 1.8-2.6 3.8-3.7 1.8 0 0.8 2 0.9 0.8 1.1 0.6 1.2 0.9 1.2-2.8 1.4-1.1 1.8 0.3 1.9-0.7 6.8 0.2 11.9 3.3 6.5 0.8 36.6 0 1.5-1 5-4.5 1.6-1.1 7.8-1.8 4.9-4.4 3.9-4.7 4.7-3.3 6.8 0 1.2 4.5-2 6.2-3 4.7-2.2 5.7 0.3 7.5 1.9 7.5 3.1 5.2 5.7 2.6 7.5 1.3 6.6 2.2 2.8 5.4 3.2 3.5 6.9 1.6 6.9-1.3 3.1-5 1.2-4 2-1.6 3.2-0.2 2.7 1.2 1 2.2 0.5 2.3 1.6 2.7 1.1 2.6 0.8 1.1 1.7-1 1.3-0.5 1.2 0.1 7.6 3.4 1.1 1.3-1 2.4-7.5 8.9 0.4 1.6 9.4-1z" id="GWQU" name="Quinara">
  </path>
  <path d="M431 329.4l0.9-0.8 10-2.5 4.2-0.4 1.6 0.1 5.4 1 3.3 1.3 0.1 0.6-2.5 0.8 2 4.1-4.1 0 1.2 8 1.4 3.4 3.5 3.1-2 4.1-4.5-3.2-4-4.3-5.9-9-0.9 5.3 2.1 5.1 3 5 1.9 5.3-1.4-0.7-4.7-1.4-1.3 4.1-2.5 0-2.1-3.1-0.1-5.1-2.1 0-1.2 2.7-0.8 3.1-0.4 3.3 0.2 3.4-2.6-1.3-1-0.7 0 6-3.1-2-1.2-2.7-0.8-3.2-2.2-3.5-1.7-3.3 1.3-2.4 3.4-2.5 1.5-4.5 3-4.7 2.8-5.5 0.3-3z m-153.8 145.2l5.8 4.3 4.5 5.9 3 7.3 2 13.1 2.1 2.9 2.1 2.1 0.9 2.6-1.5 3.9-3.6 1.9-4 0.3-3-0.8-2.4 1.4-3.1-0.1-7.8-1.3-0.7 0.7-1.8 1.2-1.9 0.5-0.9-1.4-0.1-2.5 0.1-1.6 1-0.8 2.2-0.3 3.1-0.8 8.3-3.9 1.8-1.5-1.4-3.3-3.3-1.2-3 1.7-0.4 4.9-2.2-2-1.9-2.3 2.6-4.5 1.4-3.5 0.3-3.7-0.2-4.6-1.6-6.8 0.4-3.9 3.2-3.9z m-8.1 12.4l0.6 8.8-0.8 4.2-2.9 4.5-6.3 7.6-3.4 2.2-1.5-3.6-1-4.7-1.8-3.7-0.3-3.9 3.1-5.3-6.8 0-3.3-2.9-0.3-4.6 2.4-4.7 4.3-3.4 15.8-5 1.2 2.5 0.7 4.1 0.3 7.9z m-22.3 12.3l-4.2 0 0 2.3 2.9 5.8-1.2 5.5-1.4 4.5 1.9 2.7-6 4-5.3 0.3-5.2-0.4-6.1 2.3-1-2.6-0.4-2.5 0.4-2.5 1-2.9-1.9 0-3.8 6.4 1.8 4.1-3.7-1.1-1-0.9-1.3-2.1-6.8 0.9-7.3-4.8-6.4-7.6-4-7.3 3.9-3.9 4.8-3.6 5.1-1.8 4.4 1.1-4.1 1.7-1.8 0.4 0.3 1.3 0.3 0.9 0.5 0.9 0.9 1.2 2.7-2.7 3.3-1.5 2.9-2.3 2.4-10.2 2.5-1.9 2.7-1 1.7-3.3 1.6 1.6 4.5 2.5 0.8-7.4 4.5-3.2 5.9 0.6 5 4 1.9 2.3-0.8 1.7-1.9 2-1 3.1 0.5 4.5 1.3 2.8 4.2 6.1z m56.9-55.7l7.7-0.1 1.5 3.1-3.1 11.3-0.3 12.5-2.7 3.9-7.3 0.3-7.4-5.5-0.1-9.2 4.7-9.6 7-6.7z m58.8 0l-0.9 5.5 1.5 9.9-0.6 5.4-1.4 1.2-1.9-3.4-2.7-3.9-4.3-0.4 0 2.2 2.3 0 0 2.1-2.3 4.1-1.6 2-2.2 2-1.7-2.4-0.8-0.8-3.6 1.3 1.6 3.2 0.3 4.4-0.7 4.7-1.2 4.2-0.6-1.3-1-1.4-0.6-1.3-1.8 0.2-0.7 0.2-0.5 0-1.1-0.4-1.8 0-2.9 3.4-2.8-1.5-2-4.1-0.6-4.1 2.1-2 3.4-2.3 1.2-2.3-4.6-1.7 0-1.9 6.2-6.5 0.3-1.3-0.6-3.6 0.3-1.3 1.4-0.3 2 0.3 1.8 0.1 0.7-1 3.1-6.1 7.2-2 7.5 0.2 4.6 0.7z m-152.4 24.8l-19.5 1.6-3.8-0.7-7.9-3.8-1.4-0.1 0.4-3.6 1.1-3 2-2 2.9-0.8-0.4-5.1 4.1-4.8 5.8-2.9 4.5 0.4 2.2-2.2 2.7 3.5 3.3 0.4 3.9-0.6 4.3 0.8 1.3 2.2 0.8 3.9 0.4 4-0.3 2.3-3.5 1.4-2.9 1.9-1.3 2.8 1.3 4.4z m150.4-82.8l0.6 0.7 0.6 0.9 1 0.5 1.9-0.2-0.3 1.4-0.3 1-1.5 1.9 1.8 2.4-1.5 2.5-6.5 5.3-1.5-2.8-0.3-1.2-2.3 0-3.4 3.3-4.8 0-4.2-2.2-1.5-3.1 1.4-2.8 2.4-0.3 2.5 0.7 1.6 0.1 2.2-2.2 1.7-2.5 1.2-2.7 0.9-2.9 2.3 2.2 1.5-1.2 4.5-3.1 1.5 1.2 0.1 0.9-1.6 2.2z m-174.7 14.3l-6.2 0.1-3.6-0.5-4.2-1.5 3.6-2.4 5.4-2.8 4.8-3.6 2.2-4.7 3.4-3 7.6-2.2 8.3-0.9 5.2 0.9 1.4 3-1 2.9-8.8 9.3-1.8 1.5-1 1.3-0.7 1.7-0.9 1.7-1.6 1.3-2.5 0.1-9.6-2.2z m-6.1-14.6l-1.9 0.7-3 0.1-3 1.4-1.4 0.5-0.9 1.2-1.2 0.7-1.8-1.3-3.8-4.4-1.2-0.8-0.7 0.2-15.5-0.2-2.7 2.4-2.3 1.4-3.3 0.3 0.9-2 1.3-2.1-1.8-3.8 0.4-0.8 1.4-1.6-2.9-1.7-1.3-0.4 11-5.6 12.2-0.2 11.3-1.5 8-9.2 1.4 0.4 0.3 0.2-0.1 0.4 0.6 1.1 2.2 0 2.2-0.3 2-0.7 1.7-1.1 1.1 0.9 0.5 0.9 0.4 2.3-0.9 5.5-2.3 4.5-4.9 6.6-1.2 2.6-0.2 1.8-0.6 1.6z m75.1-5l0.9-5 2.2-6.5 3-5.7 3.1-2.4 4.8-2 6.7-7 3.7 0.5 0.4 4.8 2.2 3.2 2.5 0.2 1.2-4 3.7 3.8-1 8.1 3.3 2.7-3.6 6.1-0.9 7.4 1.3 7.4 3.2 6.1-5.8 2.1-7.7 4.4-6.5 1.6-2.4-6.2-2.2 0-0.4 1.4-0.9 1.5-0.6 1.4-0.9-1.1-2.2-2.1-0.9-1.1-1.7 3.3-2.7 2.4-2.9 1.7-2.8 0.9-2.9-4-10.2-7.2-1.3-3.3 10.3-6.2 6.7-7.2 1.3 0z m162.5-36.3l-0.1 4.1-3.2 3.5-0.9 3.7 1.7 3.4 2.8 3.1 0.3 2.2-5.7 0.8-3.7-0.5-2.6-2-2.7 0.4-0.5 0.9-5.8 5.3-1.4 0.4-6.7-0.4 0 2.1 6.3 2.3-1.1 4.8-4.2 2.7-2.8-3.6-3.3 0.9-4.1-0.4-3.3-1-1.5-0.5-1.4 1-2.5-2-0.8-2.8 3.7-1.4 3.9-2.2 2.7-4.5 3.7-3.8 6.9 0.2 0.6-4.6 3-3.4 3.7-2.9 2.7-3.6 5 1.3 4.5-1.3 3.8-1.9 3-0.3z" id="GWBL" name="Bolama">
  </path>
 </g>
 <g id="points">
  <circle class="11.015228803022891|-16.575050529749475" cx="90.9" cy="530.4" id="0">
  </circle>
  <circle class="11.71594667653334|-15.041188057948276" cx="545.5" cy="318.6" id="1">
  </circle>
  <circle class="12.591844018421401|-13.814098080507314" cx="909.1" cy="53.1" id="2">
  </circle>
 </g>
 <g id="label_points">
  <circle class="Gabú" cx="795.3" cy="236.2" id="GWGA">
  </circle>
  <circle class="Tombali" cx="571.9" cy="438.4" id="GWTO">
  </circle>
  <circle class="Bafatá" cx="640.8" cy="177.7" id="GWBA">
  </circle>
  <circle class="Oio" cx="480.9" cy="152.8" id="GWOI">
  </circle>
  <circle class="Cacheu" cx="267.7" cy="178" id="GWCA">
  </circle>
  <circle class="Biombo" cx="318.5" cy="251" id="GWBM">
  </circle>
  <circle class="Bissau" cx="373.4" cy="268.2" id="GWBS">
  </circle>
  <circle class="Quinara" cx="543.9" cy="384.6" id="GWQU">
  </circle>
  <circle class="Bolama" cx="224.9" cy="500.9" id="GWBL">
  </circle>
 </g>
</svg>