<?xml version="1.0"?>
    
<!--********* Copyright (c) 2024 Pareto Softare, LLC DBA Simplemaps.com ***************************************
************* Free for Commercial Use, full terms at  https://simplemaps.com/resources/svg-license ************
************* Attribution is appreciated! https://simplemaps.com *******************************************-->

<svg baseprofile="tiny" fill="#6f9c76" height="1000" stroke="#ffffff" stroke-linecap="round" stroke-linejoin="round" stroke-width=".5" version="1.2" viewbox="0 0 1000 1000" width="1000" xmlns="http://www.w3.org/2000/svg">
 <g id="features">
  <path d="M553.3 921.6l-0.1-0.1 1.1-7.2 1-2.8 4.3-6.2 5.3-5.4 1.4-2 6.2-14.5 5.1-7.7 4.5-8.5 19.5-54.6 8.5-16.4 1.5-4.2 0.5-2.3 0.3-2.5 0-3.7-1.3-15.8 0-1.8 0.3-1.7 0.2-1 2-3.6 9.6-13 0.4-0.9-0.4-2.4-7.7-18.3-12.9-18.5-1.4-3.8-0.7-3.5-0.3-3.4 0.6-5.6 0-2.3-4.2-16.4 0-2.8-0.3-2.8-0.7-1.8-3.9-8-11.5-17-0.9-2-1-2.6-3.8-15.9-0.3-2.1 0-1.6 0.9-3.5 0.1-1.7-0.1-1.1-5-17.1-7.4-10.3-1.8-3.5 0.4-2.6 5-13.4 2.1-8.2 10.5-18.3 1.3-4.7 20.6-0.4 3.8-0.8 2.2-1.2 4.8-13.9 1.9-7.7 1.9-5.1 3.1-4.3 12.1-13.5 6-15.8 2.5-4.6 4-5.3 3-7.7 1.9-3.4 3.9-4.2 0.8-1.8 0.5-2.7 1-11.8 6.6-27.5 2.2-5.6 0.3-1-0.1-1.1-0.1-1.1-1.9-1.8-1.7-0.3-1.9-2.2-3.8-8.2 0.4-4.1-0.5-5.9-0.7-3-2.1-3.4 1.5-1.4 1.5-0.7 1.1-0.3 0.9 0 0.6 0.3 0.5 0.4 0.9 0.9 0.7 0.4 0.7 0.1 0.7-0.2 0.5-0.5 0.6-0.6 2.6-4.6 0.6-2 0-0.7-0.1-0.6-0.3-0.5-0.9-0.8-0.5-0.4-0.5-0.4-0.3-0.5-0.9-4-0.2-1.8 0.3-1.6 0.5-0.8 0.7-0.8 0.6-0.3 0.6-0.3 1.4-0.2 0.7-0.1 4.2-0.7 1.8-0.5 1.3-0.8 0.6-0.7 0.2-0.8 0-0.7-0.7-2.6 0.5-2.2 0.6-1.4-0.1-0.9 0.2-1.1 0.2-1.4 0-2.1 1.6-1.7 1.2-0.7 0.4-0.5 0.6-0.1 2.4 0.2 2.6 0.9 2 1 2.5 1.2 3.8 2.3 1.5 0.8 4.3 2.9 5 3.6 10.1 10.3 2.6 3.7 2.3 4.5 1.1 5 0.4 3.1 0.4 1.4 0.7 1.3 0.2 1.1 0.1 1.3-1.8-2.6-0.9-0.8 2.2 4.4 0.7 1.8 0.1 2.6 0.2 2 0.3 4.5-2 4.3-0.6 2.3-0.8 2.1-0.6 1.4-0.1 2.6-1.2 3-0.3 2.9 2.9 4.7-0.3 6.7-1.4 3.9-1.5 2.4-1.4 2.8-6.2 9 0 0.9-1.2 2.5-0.4 2-0.1 2.6-0.5 2.9-1.3 2-5.9 6-1 1.3-0.4 1.4 0.4 1.1 1.1 0 1.8-0.7 1.2 0.3 0.8 0 0.4 0.3 0.2 8.6 0.2 1 0.6 0.7 1.1 0.3 1.1-0.2 0.8-0.5 0.3-0.8-1.2-1.5-0.7-1.2 0.2-1.2 1.1-0.6 1.4 0 1.2 0.3 0.5 0.8 0.1 0.2 0.9 2.1 4 5 1 2.5-0.6 1.7-1.5 1.4-2 1.2-1.9 0.7-0.6-2.4-1.1-1.3-1.5-0.5-2.2 0-1.4 0.7-0.8 1.7-0.8 3.5-1.9 4.2-0.3 1.4-0.2 1.6 0.6 1.4 4.4 4-1.2 0.8-1-0.1-1-0.5-1-0.2-1.8 0.3-1 0.4-1 0.5-1.3 0.5-3.1 0.9-9.7 1-2 0.6-1.6 0.1-0.8-0.4-1.9-1.8-0.7-0.4-3.1 0.2-2.9 0.5-5.3 1.9-4.9-2.1-4.6 0.3-4.1 2-3.3 3.2-1.8 3.5-1.5 1.1-3 0.4-1.5-0.3-1.2-0.5-1.2-0.4-1.5 0.4-0.9 0.9-2.5 4.2-1.7 2-2.2 2.4-2 2.8-0.8 4.2 0.9 1.7 2 1 2.1 1.4 1.6 5.1 3.3 4.2 1 2.1-0.1 2.4-1 2.1-2.2 3.2-2 6.3-2.1 3.5-2.2 5.4-0.9 4.1-1.2 1.6-1.4 1.6-1.2 1.9-0.5 2.2 0.4 2 0.7 1.8 0.3 2.1-0.3 3.1-0.7 2.4-1.4 2.1-10.7 11-1.7 2.6-0.2 2.5 1.5 5.3 1.6 10.5 1.2 4.3 3 3.8 8.1 6.4 2 2.3 6.2 9.1 2.6 5.6 0.6 2.4 0.3 5.6 0.7 2.6 1.4 2.3 2 1.3 6 2.5 4.7 3 0.5 0.9 0.6 2.1 1 1.8 0.1 0.5 0.1 0.4 0.6 0.6 0.6 0.3 1.3 0.1 0.2 0.4 0.5 0.2 2.6 1.5 2 2.3-0.2 2.2-1.9 3.6 0.1 0.8 0.2 1.5 0 0.8-0.7 2.3 0 1 0.2 1.3 0.6 1.4 0.4 0.7 0.6 0.5 1 0.4 3.5 0.7 2 1.2 0.1 0 3.8 2.1 1.3 0.4 1.1-0.2 1.2-2.4 1.6 0.3 1.6 1 0.7 0.5 1 0 1 0.2 0.7 0.4 0.3 0.6 0.4 0.6 0.9-0.6 0.9-0.8 0.3-0.4 3.5-0.9 0.8-1.1-0.1-2.2 3.9 1.7 3.2 1 3.3-0.6 3.9-3 3.1 6.3 0.3 1.7-0.2 4.3-0.2 0.7-1 1.6 0.2 1 0.8 1 0.4 1.5-0.1 1.4-0.7 2.6-0.1 1.5 0.3 1.3 1.3 2.9-0.3 1.4-0.8 1-0.2 0.8 1.3 1 1.2 0.2 1.3-0.4 1-0.7 0.9-0.7 0.2 0.3 0 0.1 0.1 0.1 0.4 0.2-1.8 3.6 1.1 2.3 2.1 1.9 1.1 2.7 0.2 1 0.6 1.6 0.1 0.9-0.4 0.5-1.7-0.1-0.4 0.4 0.2 1.5 0.3 1.1 0.1 1-0.6 1.1-1 1.6 1.5 0.9 4.1 0.4 0.6 1.8-1.3 1.8-2 1.5-1.1 1.2 1.6 6.4 0.5 1.2 1 0.6 0.4 1.1 0.6 1.2 1.4 0.5 1.2-0.3 2.4-1.1 1.5-0.3 0.9 0.8-2.2 4.5 0.8 2.3 0.4-0.3 4.2-0.6 1.2 0.5-0.2 1.4-0.9 1.5-0.5 1.2 0.7 1.7 3.1 3.3 1.3 2.3 0.7 4.8 1 0.7 2.5-1.4 0.9 1.6-0.4 1.4-0.6 1.6 0.1 2.1 0.6 1.1 3.1 3.6 0.2 0.9-0.6 4.2 0.8 1.1 1.7-0.6 2.5-1.8 1.1 1.1-0.2 1.3-0.6 1.4-0.3 1.2 0.4 1.7 0.6 1.1 2 1.8 0.6 1.2-0.2 1.3-0.8 1.8 1 2.2 4.4 3.9 1.3 2.7 0 4.4 0.5 1.1 1.1 0.6 2.9 0.5 1.1 0.6 1.5 2.4 1.2 5.4 1 2.7 0.8 3.6 11.9 16.8 3.3 1.4 12.1 0.2 4.6 2.4 0.7 1 0.9 0.9 1 0.6 2.6 0.8 1 0.9 0.8 1.2 0.4 1.4-5.7 2.2-3.8 2.1-1.9 0.2-1.9-1-1.8-1.4-1.9-1.2-2.4-0.3-2 0.8-1.7 1.3-1.7 0.9-2.5-0.1-2.5-0.4-1.6 0.4-5.3 4.2-1.5 0.7-1.7 0-8.7-1.5-1.6-0.6-2-1.6-0.8-1.2-1-0.6-2.7 0-4.1 0.4-2 0-2.2-0.5-3.2-1.7-2.3-1.9-1.5-2.5-0.7-3.5-3.8-3-5.9 2.4-10.5 6.6-2.5-0.5-4.4-2.8-3-0.3-2.8 1.1-1.8 1.6-1.5 2-1.9 1.7-2.6 1.4-1.7 0.6-1.3 1.1-3 8.2-1.3 2.2-8.2 10.3-3.6 2.8-5.8 1.4-3.7 0.2-10.4-1.9-4.4-0.3-3.9 1.1-9.9 4.4-4.2 2.5-2.1 0.8-2-0.1-3.7-1.5-2-0.3-0.7 0.9 0.1 1.9 0.8 3.8-0.4 2.1-0.8 2.2-2.2 4-2 2.4-5.1 1-5.8-0.2-4-1.1-0.8-1-0.9-2.7-1-1.2-2-1-1.3 0.2-1.1 0.7-1.6 0.5-2.3-0.1-2.7-0.4-2.6-0.8-2.1-1.1-0.9-0.9-1.2-2-0.6-0.3-1.4 1-0.8 1.6-0.7 1.8-0.9 1.5-1 0.7-2.9 1.3-0.8 0.8-0.2 1.2 0.7 2.6-0.1 1.2-3.3 2.2-1.6 0.3-8.9 1.5-0.3 0.4z" id="GYMA" name="Mahaica-Berbice">
  </path>
  <path d="M329.3 219.3l0.8-0.1 2.1 0.6 4.4 1.6 3.8 2.3 2.8 2.8 1 0.6 0.9 0.1 1.7-0.6 1.4 0.1 2.2 0.5 3.8 1.8 4.4 1.1 0.8-0.2 0.8-0.3 0.8-0.6 0.9-0.8 0.8-0.8 0.6-0.8 0.5-0.7 0.7-0.7 1-0.7 1.9-0.3 4.9 1.8 1.2 0.1 1-0.2 0.9-0.6 0.8-0.7 1.1-1.8 0.7-0.8 1.7-1.6 0.6-0.9 0.5-1.5 0.2-0.7 0.9-0.8 1.4-0.7 3.7-1 1.8-0.2 1.2 0.1 17.8 9.8 12.8 3 0.8 0.4 0.8 0.7 10.2 10.5 0.7 0.5 1 0.5 3.4-0.3 0.9 0.2 0.8 0.4 1.8 1.5 7.4 2.4 1.7 0.3 1.4 0 2.6-2.1 1.5-1.1 0.4-0.5 0.4-2.3 0.2-0.7 0.5-0.5 0.6-0.6 1.4-0.5 1-0.1 0.9 0 5.5 1.3 6.6 3 0 2.5-2.4 7.9-0.3 2 0.4 1.5 0.9 0.5 0.9 0.3 3 0.6 0.7 0.4 1.4 0.9 0.6 0.3 4.4 1.6 1.5 0.3 1.6 0.1 0.8-0.1 0.7-0.1 0.7-0.2 0.7-0.4 2.3-2.4 0.7-0.6 1.4-0.1 3.3 1.1 1.2 1.9 0.1 0.7 0.5 5 0.7 1.6 1 1.1 1.1 0.6 2.2 0.6 1.8 0.1 0.8-0.1 0.6-0.1 1.5-0.5 1.1-0.3 1 0.1 0.6 1.1 0 0.9 1.9 4.6 2.1 3.6 0.3 1.9-0.7 7-0.5 2.7-0.4 4.3 0.5 1.4 0.6 0.8 0.7 0.2 1.5 0.3 6.1 0.3 1.4 0.3 1.3 0.5 7.3 3.9 1.1 0.4 1 0 0.6-0.3 0.9-0.3 0.7 0 1.9 0.8 0.2 0.1-0.3 1.4-8.2 11.7 0.5 0.3 0.3 0.4 3.8-3.4 1.3-0.8 0.3-0.5 0.4-0.7 0.5-0.4 1.6 0.8 1.1 0.1 0.6 0 0.2 1.3 0 5.5 0.3 2.4 3 5.9 0.4 2.2-0.1 1.1-0.2 1.1-0.4 1.1-0.6 0.9-0.3 0.9 0.5 1 0.7 1.1 0.4 1.2-1.8 16.5 0.1 2.5 1.3 3 0.4 1.3 0 10.1-0.4 3-1.6 2.3-3.1 6.5-0.5 2.8 0.5 7.8-0.8 7.9 0.1 8.5-0.7 5.2-1.4 5-2.3 5.1-2.8 5.4-2.1 2.2-2.9 0.9-10.7 1.7-5 0.2-3.1-5-0.7-0.8-0.7-0.6-0.9-0.4-1-0.3-1.3-0.2-5.5-0.4-0.9-0.2-0.9-0.5-0.9-0.7-3.2-4.3-0.6-0.5-1-0.3-1.2 0.1-4.5 1.9-1 0.4-1.2 0-1.7-0.3-0.9-0.7-0.5-0.8-0.1-0.9 0.2-4.7-0.2-0.9-0.6-0.7-1.6-1.5-0.8-0.9-0.7-0.9-1.7-3.5-0.6-0.8-2.3-2.3-2.7-3.5-0.8-0.8-0.9-0.8-0.9-0.4-1-0.1-1.2 0.2-0.9 0.3-4.5 2.5-1.2 1.1-1.4 1.5-2.3 2.9-1.7 3-0.6 0.9-1.1 1-2.1 1.2-1.3 0.4-1.2 0.3-0.8 0-1.8-0.1-1.9-0.3-9.2-2.8-0.7 0-0.5 0.1-0.7 0.4-5.3 3.5-3.5 3.3-0.6 0.8-0.4 1.1 0 1.4 0.9 4.6 0.9 10.2-1.3 2.4-7 0.6-2 0-11.1-2.3-1.9 0.1-3.9 0.6-5.4-0.3-0.9 0-0.8 0.2-8 2.5-1.4 0.7-1.2 1.1-1.1 1.5-1.4 2.8-1.2 3.7-2.2 4.7-0.5 1.7-1 1.3-1.7 1.6-5.8 4.5-2.4 2.6-1.1 0.8-0.3-0.3-3.9-9.1-1-1.4-5.6 2-1.7-1.6-1.2-2.9-1.6-0.5-5.1 1.3-2.3 1.2-4.9 5-2.4 1.6-2.7 0.1-5.4-1.9-2.5 0.1-1 0.8-1.4 2.4-1.2 0.9-0.9-0.1-0.8-0.6-0.9-0.9-0.9-0.6-2.4-0.5-7 1-1.8-0.2-1.3-0.7-1.3-0.7-1.5-0.7-1.4-0.3-7.3-0.5-2.7 0.1-4.9 1.1-0.3-0.3-78.5-88.7-1.4-1.6-0.2-1.9 0.5-0.5 0.2-0.1 2.3-0.4 1.5-1 0-0.7 1.8-1.5 5-7.9 1.3-1 0.5-0.7 0.4-0.3 0.4-0.4 0.4-0.7 0.3-0.3 0.4-0.3 0.1-0.3 0.1-1.3 0.3-0.5 0.7-0.1 1.3 0.3 0.5 0 1.4-0.3 0.7-0.9 1.1-0.7 0.7 0.3 0.5 0.6 0.9 0.3 0.6-0.4 0.4-0.8 0.3-0.5 1.2 0.1 0.3 0 0.5-1.2 0.7-2.2 0.1-1-0.3-1.7 0-1 0.2-0.3 0.7-0.8 1.4 0 1.5-0.1 2 0.5 0.8 0 0.6-0.7 0.5-0.3 0.3-0.2-0.2-0.8-0.2-0.6-0.1-0.4-0.6-0.2-0.5-0.7-0.2-0.3 0-0.5 0.7-4.6 0.7-0.9 0.4-0.9-0.7-0.2-1.1-0.3-0.6-0.3-0.1-0.2-0.3-0.5 0-0.3-0.3-0.1-1.5-0.9-0.3-0.4-0.5-1.1-0.5-1.4-0.5-0.6-0.4-1.5-0.1-0.1 0.2-0.1 0.7-0.9 0.6-1.3 0.2-0.4 0.3-1-0.3-0.7-0.1-0.3 0-0.8 0.3 0 0.2-0.5-0.5-0.3-0.1-0.5 0.5-0.1 0.2 0 0.3 0 0.4-2.7 0.7 0.2 0.3-1.2 0-0.9-0.4-1.4 0-0.8 0.1-0.4-0.3-0.8-0.8-0.5-1.2-1-0.6-0.7-0.3-0.4-0.3-1.1 0-0.1 0-0.3 0.4-0.4 0.7-1.9-0.4-1.4 0-0.6-0.2-0.9-0.8-0.8-1.5 0-0.7 0.3-0.6-0.5-0.6-0.3-0.5 0.6-0.1 0.4-0.1 0.3-0.6-0.4-1-1 0.4 0 0.4-0.6 0-0.4 0-0.4-0.6-0.3-0.4-0.6 0-0.1 0-1.1-0.1-0.1 0.7-3.4 0.2-0.1 0.7 0.1 0.4-1.2 0.2-0.8 0.4-0.9 0.1-0.8 0.1-0.4 1.4-0.4 0.5-0.6-0.1-0.5 0.5-0.6-0.6-0.9-0.2-0.5 0.8-1.5 0.2-0.3 0-0.1 0.5-0.3 0.9-0.1 0.3-0.3 0.1-0.1 0.7-0.1 0.2-0.9 0.9-0.4 0.4-0.4 0-0.6 0-0.9 0.2-0.6 2-0.9 0.1-0.1 1.5 0.3 1.5 0.4 1 0.6 0.4 0.2 0.5 0.3 0.7-0.4 0.4-0.7 0.3-0.8 0.2-0.4 0.4-0.4 0.9 0.1 1 0.2 0.8 0.3 2 0 0.5 0 1.2 0 1.3-0.7 1.2-0.2 0.7 0.2 0.9 0.8 0.6 0.6 2 0.2 1.7-0.1 1.4-1 0.8-1.4 0.2-0.3 0.5-0.3 1.2-1 1.1 0 0.7-0.4 0.4-0.2 0.4-1-0.1-0.8-0.8-0.3-0.9-0.5 0-0.5-0.2-1.1-1-1.4 0-0.3 0.1-0.7 0.3-0.6 0.4-0.5 0.1-0.1 0.9 0.1 1.6 0.5 0.2 0.1 1.9 1.6 0.9 0.6 1.1 0.3 0.9 0.2 1 0.1 0.8 0.1 0.4-0.3 2.2-0.5 0.8-0.1 1.1 0.5 1.1 0.7 4.5 2.5 2 0.4 1.7 0.5 1.8 0.2 2.5-3.2 0.6-1 0.7-1.9 1-1.5 1.3-1.1 1-0.4 2-0.4 2.6-0.7 0.6 0 1.8-1.5 1.9-0.4 2.3 0.1 1.7-0.2 1.1-1.2 0.6-1.3 0.3-0.5 1.7-0.1 1.6 0 1.8-1 1.3-1.3 1.3-1.8 0.6-0.9 0.9-0.7 0.5-0.7 1.7-1 1-0.1 2-0.5 0.6-0.2 0.8-0.1 0.5 0.1 0.6 0.4 0.5 0.5 1 1.1 0.4 0.2 0.2-0.3 0.6-0.5 0.2-0.5 0.1-0.6 0.1-0.2 0.3-0.5 0.1-0.2-0.1-0.5 0.1-2.1 0-0.8 0.3-0.7 0-0.5-0.1-0.6 0-0.1 0-0.5 0.4-0.4 0.3-1.3 0.3 0 0.8-0.2 0.5-0.3 0.2-0.3 0.1-0.3 0-0.5 0-0.3 0-0.2 0.4-0.2 0.1 0 0.3-0.3 0.1-0.1 1.2-1 0.6-0.9 0.5 0.1 0.3 0.2 0.8 0 0.5-0.3 0.5-1.1 0.2-0.6 0.2-0.3 0.3-1 0.1-1.6 0.3-0.1 0.3-0.2 0-0.4-0.3-0.6 0.1-0.5 0-0.3-0.1-0.3-0.1-0.2 0.3-0.4 0.2-0.2 0-0.7-0.3-0.4 0.2-0.4-0.2-0.5-0.7-0.6-0.5-0.1-0.6-0.3-0.4-0.5-0.2-0.3-0.6-0.2-0.6-0.3-0.4-0.6-0.3-0.2-0.3-0.3-0.5-0.1-0.6-0.1-0.2 0z" id="GYPM" name="Pomeroon-Supenaam">
  </path>
  <path d="M580.2 530.5l-1.3 4.7-10.5 18.3-2.1 8.2-5 13.4-0.4 2.6-5.7-2.4-3.8-1.6-1.9-0.5-1-0.1-1 0-1.9 0.3-1 0.2-3.1 1.4-2.6 1.6-1.7 1.5-1.9 2.1-2.5 4.2-0.6 0.9-16.5 14.6-2.3 2.9-3.3 3.5-2 1.5-0.8 0.5-0.5 0.2-1.4 0.2-4.1-0.1-1.7-0.5-0.9-0.6-1-0.9-8.4-10.8-0.7-1.4-0.5-1.2-0.6-3.2-1.2-2.8-0.4-0.5-0.6-0.6-0.9-0.3-0.7-0.1-0.8 0-0.8 0.2-0.9 0.3-5.5 2.7-0.9 0.3-0.9 0.2-0.8 0.1-2.6-0.4-1.7-0.1-7.3 1.2-16.6-0.6-1.8-0.4-1.8-0.7-4.1-1.9-0.9-0.7-0.9-0.8-0.9-1.1-0.4-1.2-0.1-1.1 0.7-1.6 0.6-1.1 1.5-1.8 0.5-1 0.1-1.2-1-5.2-0.1-5.3 0.4-2.3 0.7-1.8 0.7-0.8 0.6-0.9 0-1.5-0.5-2-1.8-4.2-0.6-2-0.9-2.1-2.7-0.9-2.6 0.7-1 0.4-0.9 0.5-1 0.8-1 0.9-1.3 1.5-0.8 1.1-3.9 8-0.6 0.9-0.8 0.8-0.9 0.7-1.2 0.5-2.5 0.3-4.5-0.4-1.5 0.2 0.1-1.2-0.5-0.4-1.4-0.2-1.4-0.4-1.1-1-0.9-1.2-1-1-7.2-4.1-1.6-2.1-1 1.1-1 0.3-2.7-0.7-0.5-0.1-1.4 0-0.5-0.2-0.5-0.7 0.3-1.6-0.5-0.4-1.6-0.1-2.3 1.2-1.2 0.1-0.6-0.6-1.8-2.3-1.1-0.7-1.2-0.3-1.4 0-1.3 0.3-0.5 1-0.7 0.8-1.5-0.2-2.9-1-2.4 0.4-1.9 0.5-1.3-0.3-0.7-2.3-0.6-0.9-1.4-0.7-1.3 0-0.6 0.9-0.3 1.5-0.7 0.5-1.1 0-1.5-0.3-1.9-1-1.4-1.9-0.6-2.2 0.4-2.4 3.3-3.5 1-0.1 2.5-0.1 1.1-0.4 1.2-1.1 0.4-1.1 0.1-1.3 0.3-1.4 0.6-1.4 3.5-5.2 1.1-2 0.7-2.1 0.3-2.3-0.5-5.4 1.7-5.5 0.3-7.4 0.9-3.6 0.9-2.2 0.4-2.3 0.1-4.8 2.2-7.4-0.2-3.5-3.4-1.8-5.4-3.1-2.6-1.9-1.6-1.8 1.1-0.8 2.4-2.6 5.8-4.5 1.7-1.6 1-1.3 0.5-1.7 2.2-4.7 1.2-3.7 1.4-2.8 1.1-1.5 1.2-1.1 1.4-0.7 8-2.5 0.8-0.2 0.9 0 5.4 0.3 3.9-0.6 1.9-0.1 11.1 2.3 2 0 7-0.6 1.3-2.4-0.9-10.2-0.9-4.6 0-1.4 0.4-1.1 0.6-0.8 3.5-3.3 5.3-3.5 0.7-0.4 0.5-0.1 0.7 0 9.2 2.8 1.9 0.3 1.8 0.1 0.8 0 1.2-0.3 1.3-0.4 2.1-1.2 1.1-1 0.6-0.9 1.7-3 2.3-2.9 1.4-1.5 1.2-1.1 4.5-2.5 0.9-0.3 1.2-0.2 1 0.1 0.9 0.4 0.9 0.8 0.8 0.8 2.7 3.5 2.3 2.3 0.6 0.8 1.7 3.5 0.7 0.9 0.8 0.9 1.6 1.5 0.6 0.7 0.2 0.9-0.2 4.7 0.1 0.9 0.5 0.8 0.9 0.7 1.7 0.3 1.2 0 1-0.4 4.5-1.9 1.2-0.1 1 0.3 0.6 0.5 3.2 4.3 0.9 0.7 0.9 0.5 0.9 0.2 5.5 0.4 1.3 0.2 1 0.3 0.9 0.4 0.7 0.6 0.7 0.8 3.1 5-1.8 0.8-0.9 2.5-1.1 2-0.4 1.2-0.1 1.4 0 1.1-0.1 1-0.6 0.9 5.8 8.7 1.4 1.4 0.7 1.9-0.1 8.9-3 17.8 0.3 5.1 3 7.8 3.1 17.5 1.6 2.1 5.6-1.6 1.8 1.9 1.8 5.2 2.9 4.1 1.8 1 0.6 0.2 5.2 1.7 1.3 0.7 0.9 0.6 1.8 1.1 2.5 0.8 5.7 1 18.5-0.2 9-2.1 1.8-0.3z" id="GYPT" name="Potaro-Siparuni">
  </path>
  <path d="M560.9 577.7l1.8 3.5 7.4 10.3 5 17.1 0.1 1.1-0.1 1.7-0.9 3.5 0 1.6 0.3 2.1 3.8 15.9 1 2.6 0.9 2 11.5 17 3.9 8 0.7 1.8 0.3 2.8 0 2.8 4.2 16.4 0 2.3-0.6 5.6 0.3 3.4 0.7 3.5 1.4 3.8 12.9 18.5 7.7 18.3 0.4 2.4-0.4 0.9-9.6 13-2 3.6-0.2 1-0.3 1.7 0 1.8 1.3 15.8 0 3.7-0.3 2.5-0.5 2.3-1.5 4.2-8.5 16.4-19.5 54.6-4.5 8.5-5.1 7.7-6.2 14.5-1.4 2-5.3 5.4-4.3 6.2-1 2.8-1.1 7.2 0.1 0.1-1.5 1.9 0.8 2.5 2.4 4.8 0.7 2.6 0.1 3-0.8 2.1-3.8 6-1 0.1-1-0.6-1-0.3 0-0.3-0.4-0.5-0.7-0.5-0.6-0.3-0.5 0.2-1.6 1.2-0.8 0.4-12.5-1.2-1.9 0.1-1.4 1.1-3.4 4.9-1.9 2.2-2.4 1.6-2.9 1.2-2.5 0.6-2.2 0.1-2.2-0.3-2.5-1.1-3.2-2.5-1-2.5-0.7-2.7-1.9-2.9-2.3-1.9-2.5-1.3-0.7-0.3-4.8-1.9-20.4-3.6-7.9-2.5-2.2-1.2-1.5-2.1-2.7-5.9-1-1.3-2.2-1.3-0.6-2.1-0.2-2.3-1.5-1.9-1.1-0.1-2.5 0.7-1.5-0.4-0.4-0.6-0.9-1.9-0.4-0.7-0.7-0.3-1.5-0.2-0.6-0.2-1.1-1.3-2.4-4.3-1.1-1.3-3.9-3.1-2-2.6-3.5-5.6-2.5-2.1-2.6-0.8-2.2 0.2-2.1 0.6-2.5 0.2-1.4-0.4-1.3-0.6-1.1-0.9-2.7-2.9-0.2-1 2-2.6 2.6-5-0.2-1.5-0.3-0.2-0.8 0.2-1.5-0.3-4.6-1.8-1.5-0.1-2.4 0.9-1.5-0.1-1.2-1.3-0.5-2.5-0.2-2.7 0-2 0.5-1.4 1.5-2.4 0.6-1.3 0.1-1.1-0.3-3.2 0.2-1.1 0.7-2 0.1-1-0.4-1.3-1.4-2.6-0.1-1.6 0.3-1.3 1.4-2.2 0.4-1.2 0-1.3-1.2-3.6-0.1-4.6 0.7-4.8-0.2-4.2-2.6-2.9-1.1-0.3-2.4-0.1-1.2-0.2-1.5-0.8-3.8-3.2-4.8-2.6-2.4-1.6-1.2-2.4 0.2-1.1 1.2-2.1 0-1.3-0.3-1.3-0.1-2.7-0.2-1.3-3.6-8-0.4-2.4 0-1.5-0.2-0.9-1-2.1-0.5-0.5-1.6-0.6-0.6-0.5 0.1-0.4 0.6-1.5 0-0.6-3.8-7.6-0.5-2.3 0.8-20.1 2.5-10.1 0.4-2.6-0.5-7 0.6-3.1 1.2-2.9 3.3-5.4 0.6-0.5 0.9-0.3 0.7-0.4 0.4-0.8-0.2-0.9-0.9-1.3-0.1-0.7 0.3-0.4 1.6-0.2 0.3-0.5-0.3-0.8-1-1.1-0.4-0.8 0.1-1.6 0.6-1 0.9-0.8 0.8-1.1 1.7-5.5 0.5-1.3 3.2-5.2 1.3-4.2 0.4-0.1 0.7 0 0.9-0.2 0.6-0.6 0.1-0.9-0.7-1.6-0.2-0.8 0.5-5.9-2.1 0.7 0.3-2.1 2.2-5.1-1-3.2-2.3-2.5-1.9-2.7 0.1-3.6 3.1-3.4 10-3.5 4.7-4.4 2.8-1.2 1.1-0.9 0.7-1.4 0.1-1-0.2-1.1 0.1-1.5 1-3.1 1.6-1.5 5-2.3 2.4-1.9 0.4-1.7-0.5-2-0.4-2.8 0.8-2.5 1.8-2.9 2.3-2.3 2.2-0.9 1.3-0.2 0.6-0.6 0.2-0.9-0.2-1.3-0.9-1-1.5-0.5-3.9-0.6-1.1 0-0.8-0.5 0.1-3.1-0.5-0.8-0.8-0.6-1.7-3.1-4.2-3.9-1.1-1.9 0.4-2.9 1.3-2 0.4-1.8-2.6-2-5.3-1.7-2-1.5-1.5-3.2-0.2-1.4 0-1 0.3-2.2 0.3-0.7 1.1-1.5 0.3-0.8-0.3-0.8-1.2-1.4-0.3-0.6 1.3-2.3 4.2-4.3 0.8-2.9 0-0.9 1.5-0.2 4.5 0.4 2.5-0.3 1.2-0.5 0.9-0.7 0.8-0.8 0.6-0.9 3.9-8 0.8-1.1 1.3-1.5 1-0.9 1-0.8 0.9-0.5 1-0.4 2.6-0.7 2.7 0.9 0.9 2.1 0.6 2 1.8 4.2 0.5 2 0 1.5-0.6 0.9-0.7 0.8-0.7 1.8-0.4 2.3 0.1 5.3 1 5.2-0.1 1.2-0.5 1-1.5 1.8-0.6 1.1-0.7 1.6 0.1 1.1 0.4 1.2 0.9 1.1 0.9 0.8 0.9 0.7 4.1 1.9 1.8 0.7 1.8 0.4 16.6 0.6 7.3-1.2 1.7 0.1 2.6 0.4 0.8-0.1 0.9-0.2 0.9-0.3 5.5-2.7 0.9-0.3 0.8-0.2 0.8 0 0.7 0.1 0.9 0.3 0.6 0.6 0.4 0.5 1.2 2.8 0.6 3.2 0.5 1.2 0.7 1.4 8.4 10.8 1 0.9 0.9 0.6 1.7 0.5 4.1 0.1 1.4-0.2 0.5-0.2 0.8-0.5 2-1.5 3.3-3.5 2.3-2.9 16.5-14.6 0.6-0.9 2.5-4.2 1.9-2.1 1.7-1.5 2.6-1.6 3.1-1.4 1-0.2 1.9-0.3 1 0 1 0.1 1.9 0.5 3.8 1.6 5.7 2.4z" id="GYUD" name="Upper Demerara-Berbice">
  </path>
  <path d="M473.1 240.5l-6.6-3-5.5-1.3-0.9 0-1 0.1-1.4 0.5-0.6 0.6-0.5 0.5-0.2 0.7-0.4 2.3-0.4 0.5-1.5 1.1-2.6 2.1-1.4 0-1.7-0.3-7.4-2.4-1.8-1.5-0.8-0.4-0.9-0.2-3.4 0.3-1-0.5-0.7-0.5-10.2-10.5-0.8-0.7-0.8-0.4-12.8-3-17.8-9.8-1.2-0.1-1.8 0.2-3.7 1-1.4 0.7-0.9 0.8-0.2 0.7-0.5 1.5-0.6 0.9-1.7 1.6-0.7 0.8-1.1 1.8-0.8 0.7-0.9 0.6-1 0.2-1.2-0.1-4.9-1.8-1.9 0.3-1 0.7-0.7 0.7-0.5 0.7-0.6 0.8-0.8 0.8-0.9 0.8-0.8 0.6-0.8 0.3-0.8 0.2-4.4-1.1-3.8-1.8-2.2-0.5-1.4-0.1-1.7 0.6-0.9-0.1-1-0.6-2.8-2.8-3.8-2.3-4.4-1.6-2.1-0.6-0.8 0.1-0.4-0.1-0.5-0.1-0.2-0.4-0.1-0.3 0.2-0.2-0.1-0.1-0.1-0.5-0.1 0 0.1-0.3-0.8-1-2.7-1-1.3 0.6-2 0.8-1.6-0.2-1.5-1.7-1.1-1.3-2.1-1.1-0.8 0.1-0.8 0.8-0.9 1-1.2 0.8-1.5 0.3-0.3-0.1-0.7 0.1-0.2 0.7-0.3 0.1-1.9 1.9-2.5 4.4-0.6-0.8-1.5-2.1-1.3-1.3-1.3-1-1.7-1.9-0.5-1.8-1-0.6-2-0.7-1.2-3-0.7-3 0.2-0.6 0.5-0.9 1.7-1.2 0.7-1.4 0.2-0.9 0.5-0.8 0.9-0.2 0.6-0.6 0-1-0.2-2.3-1.1-2.6-0.6-1.5-0.3-1.8-1.1-1-1.1-1.3-0.9-1.1-0.6-1 0-1.4-0.2-1.1-0.3-0.6-1.8-1.2-1-0.1-0.8-0.3-0.9-1.1-0.9 0.1-1.2-0.6-0.5-2-1-3.4-0.4-1.5-0.2-0.9-0.1-1 0.8-1.3 0.4-0.1 0.5-0.1 0.2-0.1 2.8-0.9 0.5-0.6 0.5 0 0.8 0 1.1-0.2 1.1-2.2 0.2-1 0.3-0.5 0.8-1.2 0.3-2.1 0.1-0.1 1.7 0.3 1.2-0.8 0.4-1.3 0.8 0.3 0.2-0.1 0-1.8-0.1-1.2 0.1-1.5 0.1-0.3 0.5-0.4 0.6-0.4 0.4-1.2 0.6-1.3 0.4-0.7-1.5-2.3 0.7-1.1 0.7-0.4 0.3-1 0-0.3 0.9-1 0.8-1.5 0.1-0.1 0.6-0.7 1-1.9 0.4-0.6-0.1-0.2 1.4-1.3 2.7-0.9 10.4 0.2 5.4-0.5 1.1-0.9 0.2 0.3 0.1 0.5 0 0.4 0 0.3 0.3 0.1 0.2-0.2 0.2-0.3 0.2-0.3 0.2-0.3 0.4-0.3 0.2-0.1 0.2-0.3 0.7-0.6 0.5-0.3 0.2-0.2 0.3 0 0.4-0.2 0.1-0.1 0.2-0.6 0.1-0.3 0.3-0.3 0.2-0.2 0.4-0.4 0.4-0.4 0-0.4 0-0.1 0.3-0.4 0.8-0.1 0.2 0 0.7 0 0.3-0.3 0.4-0.3 0.3-0.3 0-0.4 0-0.1 0.3 0 0.3-0.1 0-0.5 0.3-0.2 0.4-0.2 0.4-0.3 0.8-0.3 1.2-0.3 0.1-0.3 0.3-0.2 0.1-0.1 0.1-0.3 0-0.4 0.1-0.2 0.1-0.2 0.4-0.2 0.1-0.3 0.2 0 0.3 0.2 0.1 0 0.1-0.3 0.1-0.4 0-0.3 0.7-1 0.2-0.3 0.9-0.3 0.1-0.3-0.1-0.3-0.3 0-0.4 0-0.1-0.2 0-0.3 0.2-0.4 0.3-0.2 0.4-0.2 0.4-0.1 0.2-0.2 0.3-0.4 0.3-0.3 0.3-0.2 0.7-0.3 0.3 0 0.4 0 0.3 0 0.3 0.1 0.2-0.2 0-0.2 0-0.4 0-0.1 0.2-0.1 0.2 0 0.3 0.1 0.3 0.2 0.2 0.3 0.4 0.2 0.1-0.3 0.2-0.2 0.1-0.4 0.2-0.3 0.2-0.1 0.5-0.1 0.4-0.2 0.3-0.1 0.6 0.1 0.4 0.1 0.4-0.6 0.5-0.7 2.9-2.4 1.8-2.9 0.2-0.2 0.6 0 0.5 0 0.6-0.2 0.5-0.2 0.5-0.2 0.6 0 0.2 0.3 0.2 0.6 0.3 0.2 0.5 0 0.4 0.4 0.7 0.2 0.4 0.2 0.3 0.1 0.5 0.1 0.7-0.2 1.4-1.3 1.4-1.1 1.1-1.4 1.7-2.9 0.3-1.7 0.2-2.4 1-2 1.2-1.2-1.2-2 0-1.1 0.7-1.9 2.7-2.1 2-0.4 0.4-0.7 0.3-1 0.8-0.5 6.2-1.4 2.5-0.1 2.5-0.9 0.6-0.5 1.1-0.2 11.5 1.7 0-1.4-1.1-3.1-1.3-1.9-1.3-1-3.3-2.7-4.4-2-2.6-4.3-12.8-14.4-7.6-11.1 2.5 1.1 4 2.6 4.4 4.5 7 10.7 4.6 4.5 3.5 1.8 6 1.6 3.1 1.6 6.7 4.9 3.6 1.9 3.6 0.8 1.1 1.9 0.3 0.3 0.1 1 0.5 0.2 0.8-0.1 6.9 1.4 0.9 0.9 1.6 2 11 9.4-2.9-4.5-4.3-4.3-5.1-3.4-9.2-3.8-11.3-7.8-7.5-4.1-1-1.4-1.5-3.4 0.3-1.6 2.9-0.5 2 0.9 4.4 3.5 5 1.5 2.4 1.7 4 3.4 8 4.8 11.3 5.1 13 9.4 22.4 13.4 7.4 5.6 1.8 1.7 1.8 2.4 6.7 6.1 16.8 18.9 6.3 5 3.5 5.2 2.9 3.9-6 7.5-4.6 4.4-2.6 1.6-15 6.2-1.8 1-7.3 7.6-1.4 1.9-0.8 1.5 0.1 0.9 0.2 0.9 0.4 0.9 2.3 3.6 0.5 0.9 0.3 1 0.1 1-0.2 1.2-0.8 1-3.2 2.5-1 1.1-0.7 1-6.8 20.9-0.3 1.7 0 1.8 0.1 1.7 2.5 9.1 0.1 1.4z" id="GYBA" name="Barima-Waini">
  </path>
  <path d="M568.4 242l5.5 0.8-0.1 0.6-6.9 5-6.2 1.9-2.4 2.7-0.3-2.1 0.7-2.8 1.3-2.5 1.9-1.5 1.1-1.6 0.5-0.5 1.1-0.2 3.8 0.2z m-29.3 59.8l-0.2-0.1-1.9-0.8-0.7 0-0.9 0.3-0.6 0.3-1 0-1.1-0.4-7.3-3.9-1.3-0.5-1.4-0.3-6.1-0.3-1.5-0.3-0.7-0.2-0.6-0.8-0.5-1.4 0.4-4.3 0.5-2.7 0.7-7-0.3-1.9-2.1-3.6 5.3-3.3 3.9-2 0.9-0.6 1-1 3.6-5.6 1-1 1.3-0.8 2.2-0.7 1.5 0 1.2-0.2 0.8-0.6 0.6-1.2 0.3-1 1-6.1 1-1.5 2.3-1.8 8.4-4.5 2.3-0.7-2 1.5-1.8 2.3-1.4 2.4-0.8 2.6-0.7 4.7-2.9 7.4-0.3 2.6 0.3 8.2-0.3 1.2-1.1 1.6-0.3 1.3 0 22.1-0.7 2.6z m4.4 3.1l0.5-16.3 1.3-5.1 12.9-22.9 3.3-4.5 4.5-3.1 5.4-1.4 5.2 0.3 4.7 1.4 7.3 3.9 2.4 2.2 0.6 0.4 0.4 0.4 1 0.9 0.6 0.3 0 0.3-1.4 5.6-0.3 0.9-0.3 1.4-0.1 1.1 0.2 2.1 0.4 2 0.9 2.5 0.1 0.8 0 0.9-1.4 3.5-6.5 12.6-1 1.4-0.2 0.2-0.2 0.2-4.1 4.1-1.5 1.9-0.3 0.5-0.2 0.8-0.1 0.9 0.7 2.3 0.8 2 0.2 0.7 0 0.9-0.4 1.3-1.2 2.6-0.2 0.7-0.2 0.7 0 1 0.2 1.3 0.7 2 0.5 1 0.4 0.7 1.5 1.3 1.2 1.3 0.3 0.5 0.2 0.9-0.1 1-0.5 2-0.7 1.8-1.1 1.5-0.3 0.6-0.2 0.7 0 0.8 0.8 1.8 0.9 1.6 0.3 0.6 0.3 1.3 1.2 3 0.4 1.2-0.1 1.6-2 3.2-2.2-1.4-0.9-0.4-1.4-0.4-5.4-0.3-0.7-0.1-0.4-0.3 0.2-1.1 0-0.7-2.1-6.9-0.1-0.8 0-0.8-0.1-1.1-0.3-1.2-0.7-2.1-1.5-2.9-4.7-5.3-5-3.2-1.3-1.2-1.5-1.7-6.9-10.7-2.7-1.7 0 0.2z" id="GYDE" name="Demerara-Mahaica">
  </path>
  <path d="M512.5 273.9l-1.9-4.6 0-0.9-0.6-1.1-1-0.1-1.1 0.3-1.5 0.5-0.6 0.1-0.8 0.1-1.8-0.1-2.2-0.6-1.1-0.6-1-1.1-0.7-1.6-0.5-5-0.1-0.7-1.2-1.9-3.3-1.1-1.4 0.1-0.7 0.6-2.3 2.4-0.7 0.4-0.7 0.2-0.7 0.1-0.8 0.1-1.6-0.1-1.5-0.3-4.4-1.6-0.6-0.3-1.4-0.9-0.7-0.4-3-0.6-0.9-0.3-0.9-0.5-0.4-1.5 0.3-2 2.4-7.9 0-2.5-0.1-1.4-2.5-9.1-0.1-1.7 0-1.8 0.3-1.7 6.8-20.9 0.7-1 1-1.1 3.2-2.5 0.8-1 0.2-1.2-0.1-1-0.3-1-0.5-0.9-2.3-3.6-0.4-0.9-0.2-0.9-0.1-0.9 0.8-1.5 1.4-1.9 7.3-7.6 1.8-1 15-6.2 2.6-1.6 4.6-4.4 6-7.5 0.3 0.3 3 6.3 2 2.9 0.5-0.8-1.2-3 0.2-1.4 1.7 0.1 3 1.1 2.6 2.1 2.4 2.3 2 2.5 2 3 2.6 4.2 3.1 3.8 1.9 2.8 9.7 9.6 2.2 3.8 0.9 4.1-1.2 4 0.8-0.9-0.6 5.3 0.6 15.9-2.2 13-1.5 2-2.7 2.1-2.3 0.7-8.4 4.5-2.3 1.8-1 1.5-1 6.1-0.3 1-0.6 1.2-0.8 0.6-1.2 0.2-1.5 0-2.2 0.7-1.3 0.8-1 1-3.6 5.6-1 1-0.9 0.6-3.9 2-5.3 3.3z" id="GYCU" name="Cuyuni-Mazaruni">
  </path>
  <path d="M653.8 377.5l3.8 8.2 1.9 2.2 1.7 0.3 1.9 1.8 0.1 1.1 0.1 1.1-0.3 1-2.2 5.6-6.6 27.5-1 11.8-0.5 2.7-0.8 1.8-3.9 4.2-1.9 3.4-3 7.7-4 5.3-2.5 4.6-6 15.8-12.1 13.5-3.1 4.3-1.9 5.1-1.9 7.7-4.8 13.9-2.2 1.2-3.8 0.8-20.6 0.4-1.8 0.3-9 2.1-18.5 0.2-5.7-1-2.5-0.8-1.8-1.1-0.9-0.6-1.3-0.7-5.2-1.7-0.6-0.2-1.8-1-2.9-4.1-1.8-5.2-1.8-1.9-5.6 1.6-1.6-2.1-3.1-17.5-3-7.8-0.3-5.1 3-17.8 0.1-8.9-0.7-1.9-1.4-1.4-5.8-8.7 0.6-0.9 0.1-1 0-1.1 0.1-1.4 0.4-1.2 1.1-2 0.9-2.5 1.8-0.8 5-0.2 10.7-1.7 2.9-0.9 2.1-2.2 2.8-5.4 2.3-5.1 1.4-5 0.7-5.2-0.1-8.5 0.8-7.9-0.5-7.8 0.5-2.8 3.1-6.5 1.6-2.3 0.4-3 0-10.1-0.4-1.3-1.3-3-0.1-2.5 1.8-16.5-0.4-1.2-0.7-1.1-0.5-1 0.3-0.9 0.6-0.9 0.4-1.1 0.2-1.1 0.1-1.1-0.4-2.2-3-5.9-0.3-2.4 0-5.5-0.2-1.3 1.4-0.1-0.9-0.8 2-4.9 0-0.2 2.7 1.7 6.9 10.7 1.5 1.7 1.3 1.2 5 3.2 4.7 5.3 1.5 2.9 0.7 2.1 0.3 1.2 0.1 1.1 0 0.8 0.1 0.8 2.1 6.9 0 0.7-0.2 1.1 0.4 0.3 0.7 0.1 5.4 0.3 1.4 0.4 0.9 0.4 2.2 1.4 3.2 1.5 0.7-0.1 0.9-0.1 2.2-1.1 4.6-1.3 4.1 3.7 0.8 0.4 1.8 0.3 1.4 4 0 2.1-1.5 5 1.4 2.2 1.7 0.8 8.4 2.8 3.8 0.7 1 0.1 5.2 0.8 0.6 0.9 0.8 2 1.4 1.3 2.3 3.2 0.8 0.5 1.1 0.1 1.1-0.1 1.8 0.1 1.1 0.7 2.2 2.2 0.9 0.2 0.9-0.3 0.7-0.7 0.7-0.8 1-0.6 1.5-0.4 5.5 0.3 0.9-0.2 2.9-1.1 0.8-0.2 2.5 0.1 1.4-0.5z" id="GYUT" name="Upper Takutu-Upper Essequibo">
  </path>
  <path d="M581.2 349l2-3.2 0.1-1.6-0.4-1.2-1.2-3-0.3-1.3-0.3-0.6-0.9-1.6-0.8-1.8 0-0.8 0.2-0.7 0.3-0.6 1.1-1.5 0.7-1.8 0.5-2 0.1-1-0.2-0.9-0.3-0.5-1.2-1.3-1.5-1.3-0.4-0.7-0.5-1-0.7-2-0.2-1.3 0-1 0.2-0.7 0.2-0.7 1.2-2.6 0.4-1.3 0-0.9-0.2-0.7-0.8-2-0.7-2.3 0.1-0.9 0.2-0.8 0.3-0.5 1.5-1.9 4.1-4.1 0.2-0.2 0.2-0.2 1-1.4 6.5-12.6 1.4-3.5 0-0.9-0.1-0.8-0.9-2.5-0.4-2-0.2-2.1 0.1-1.1 0.3-1.4 0.3-0.9 1.4-5.6 0-0.3 0.5 0.2 0.4-0.5 0.5-1.5 1-0.3 10.6 1.3 7.6 3.7 2.4 2 3.7 2.8 4.6 4.5 0.6 0.4-0.1 0.3 0.2 6.8 0.4 1.6 0.7 1.8 1 1.9 0.4 1.1 0.2 1.1-0.4 3.2 0.1 0.9 0.4 0.8 0.9 1.5 0 0.7-1.1 0.6-0.9 0-1-0.1-0.8-0.2-0.8-0.1-0.9 0.1-0.8 0.3-0.5 0.7-0.1 1.1 0.2 1 1 2.8 0.1 0.8 0 0.9-0.2 0.9-0.3 1-0.5 0.8-1.1 0.8-0.9 0.3-3.6 0.4-1.6 0.4-0.6 0.3-0.5 0.4-0.9 1-2.5 3.8-1.1 1.2-1.1 0.7-0.8 0.5-0.9 0.6-1 1.3-0.9 1.6-6.5 16.9-0.4 1.4-0.2 1.9 0.3 6.5 1.1 6-1.8-0.3-0.8-0.4-4.1-3.7-4.6 1.3-2.2 1.1-0.9 0.1-0.7 0.1-3.2-1.5z" id="GYEB" name="East Berbice-Corentyne">
  </path>
  <path d="M673.8 327.8l0.1 0.9-0.6 1.4-0.5 2.2 0.7 2.6 0 0.7-0.2 0.8-0.6 0.7-1.3 0.8-1.8 0.5-4.2 0.7-0.7 0.1-1.4 0.2-0.6 0.3-0.6 0.3-0.7 0.8-0.5 0.8-0.3 1.6 0.2 1.8 0.9 4 0.3 0.5 0.5 0.4 0.5 0.4 0.9 0.8 0.3 0.5 0.1 0.6 0 0.7-0.6 2-2.6 4.6-0.6 0.6-0.5 0.5-0.7 0.2-0.7-0.1-0.7-0.4-0.9-0.9-0.5-0.4-0.6-0.3-0.9 0-1.1 0.3-1.5 0.7-1.5 1.4 2.1 3.4 0.7 3 0.5 5.9-0.4 4.1-1.4 0.5-2.5-0.1-0.8 0.2-2.9 1.1-0.9 0.2-5.5-0.3-1.5 0.4-1 0.6-0.7 0.8-0.7 0.7-0.9 0.3-0.9-0.2-2.2-2.2-1.1-0.7-1.8-0.1-1.1 0.1-1.1-0.1-0.8-0.5-2.3-3.2-1.4-1.3-0.8-2-0.6-0.9-5.2-0.8-1-0.1-3.8-0.7-8.4-2.8-1.7-0.8-1.4-2.2 1.5-5 0-2.1-1.4-4-1.1-6-0.3-6.5 0.2-1.9 0.4-1.4 6.5-16.9 0.9-1.6 1-1.3 0.9-0.6 0.8-0.5 1.1-0.7 1.1-1.2 2.5-3.8 0.9-1 0.5-0.4 0.6-0.3 1.6-0.4 3.6-0.4 0.9-0.3 1.1-0.8 0.5-0.8 0.3-1 0.2-0.9 0-0.9-0.1-0.8-1-2.8-0.2-1 0.1-1.1 0.5-0.7 0.8-0.3 0.9-0.1 0.8 0.1 0.8 0.2 1 0.1 0.9 0 1.1-0.6 0-0.7-0.9-1.5-0.4-0.8-0.1-0.9 0.4-3.2-0.2-1.1-0.4-1.1-1-1.9-0.7-1.8-0.4-1.6-0.2-6.8 0.1-0.3 2.7 2.1 6.6 6.3 3.9 4 1.1 1.8 2.2 1 2.7 2.8 7.1 5.7 3.9 3.2 2.6 2.2 1.6 1.8 1.9 1.8 2.4 2.6 2.5 6.1 3.7 8.8 1.4 1.7 0.4 2.4 0.5 1 1.1-1.5z" id="GYES" name="Essequibo Islands-West Demerara">
  </path>
 </g>
 <g id="points">
  <circle class="1.554429695511614|-61.144214439952464" cx="228.8" cy="909.3" id="0">
  </circle>
  <circle class="4.503305739949393|-58.69032210940274" cx="530.1" cy="546.7" id="1">
  </circle>
  <circle class="8.18940079549662|-56.727208244962966" cx="771.2" cy="91.2" id="2">
  </circle>
 </g>
 <g id="label_points">
  <circle class="Mahaica-Berbice" cx="675.3" cy="797.2" id="GYMA">
  </circle>
  <circle class="Pomeroon-Supenaam" cx="376.4" cy="333.1" id="GYPM">
  </circle>
  <circle class="Potaro-Siparuni" cx="449.9" cy="490.1" id="GYPT">
  </circle>
  <circle class="Upper Demerara-Berbice" cx="494.2" cy="755.8" id="GYUD">
  </circle>
  <circle class="Barima-Waini" cx="409.9" cy="157.8" id="GYBA">
  </circle>
  <circle class="Demerara-Mahaica" cx="564.7" cy="288.4" id="GYDE">
  </circle>
  <circle class="Cuyuni-Mazaruni" cx="518.6" cy="213.5" id="GYCU">
  </circle>
  <circle class="Upper Takutu-Upper Essequibo" cx="588.2" cy="439.8" id="GYUT">
  </circle>
  <circle class="East Berbice-Corentyne" cx="600.4" cy="300.8" id="GYEB">
  </circle>
  <circle class="Essequibo Islands-West Demerara" cx="631.3" cy="336.1" id="GYES">
  </circle>
 </g>
</svg>