<?xml version="1.0"?>
    
<!--********* Copyright (c) 2024 Pareto Softare, LLC DBA Simplemaps.com ***************************************
************* Free for Commercial Use, full terms at  https://simplemaps.com/resources/svg-license ************
************* Attribution is appreciated! https://simplemaps.com *******************************************-->

<svg baseprofile="tiny" fill="#6f9c76" height="781" stroke="#ffffff" stroke-linecap="round" stroke-linejoin="round" stroke-width=".5" version="1.2" viewbox="0 0 1000 781" width="1000" xmlns="http://www.w3.org/2000/svg">
 <g id="features">
  <path d="M840.9 131.1l-31.2 24.7-29.1 14.3-25.2-5.7-39.7 4.3-37.1 1.4-15.9-15.8-22.5-1.4-25.2 12.9-29.1 15.8-9.3-4.3-19.9 4.3-2.6 14.3-41.1 15.8-14.5-10.1-49 5.8-9.3-44.5-9.3-45.8-10-6.2-5-11.8 15.4-9.3 28.8 0 9.5 10.3 5.2 2.3 20-19.4 15.8-2.3 17.9 2.3 8.8-25.3 13.7-15.9 19.1-6.3 16.7 14.2 28.5 0 35.4 2 15.5-1.2 8.3-0.7-12.7 16.7-8.6 10.3-12.4 12.8-8.3 0-1.1 19.8 14.6-4.2 1.3-7 19.8-5.7 6.7-7.4 13.1-24.3 6.6-1.4 5.3 5.7 9.4-5.7 5.2 5.7-7.4 15.4 10-2.5 10.9 10.2-0.8 12.5 8.3 5.3 13.5-7.8 3.1 7 0 11.6-3.6 14.8 12.7 0.9 6.9 11 15.8 7.7 47.6-14.3 10.5-5.8z" id="HK5168" name="North">
  </path>
  <path d="M509.3 742.4l-45.1 3.2 5.6-15.9 0-55.7-16.8 0.3 3.6-11.8 0.6-24.6 11.2 4.5 7 21.1 14.1 15.4 12-4.9 0 11.3-12 8.7 21.1-1.5 19.5 0 8.4 4.4-19.6 13.8-6.7 9.1 10.6 22.8-13.5-0.2z" id="HK5170" name="Islands">
  </path>
  <path d="M702.9 613.9l-10.5 12.8 6.4 17.2 8 15.7-8 2.9 12 34.4-21.1 4.3-5.4-7.2-13.2-11.5-0.1-19.3-5.4-21.2-11.6-9.7-9.9 8.3 9.9 3.3 0 14.3-6.7 1.4-11.8 14.4 11.8 18.5-5.3 13 6.6 12.9-20 4.3-2.8-28.7 5.6-4.3-4.7-8.9-17.8 8.9-7.9-4.4 7.9-9.8-11.9-7.2 7.8-11.6-3.8-10-14.8-2.8 1.9-15.6-21.5 14.2-6.6 10-4 0-3.9-10-2.8-13-14.9-8.5-27.5-1.3-11.7-5.8-6.9-14.4-2.5-8.5-8-14.3-10.7-4.3 24.7 0.2 15.9 8.6 22.5 17.1 21.7-1.5 18.1-1.3 26.5-0.8 21.2-0.7 50.3 4.3 34.9 15.6z" id="HK5156" name="Southern">
  </path>
  <path d="M467.1 572.4l1.4-11.5 3.9-2.9 8.1-4.2 14.7-7.3 17-5.6 18.3 5.6 12.2 7.3 14.6 4.2-5.4 38.8-21.7 1.5-22.5-17.1-15.9-8.6-24.7-0.2z" id="HK5153" name="Central and Western">
  </path>
  <path d="M557.3 558l22.4 0 12.8 7.4 14.6 2.9-4 11.4-6.6 15-26.5 0.8-18.1 1.3 5.4-38.8z" id="HK5154" name="Wan Chai">
  </path>
  <path d="M579.7 558l15.8-14.3 14.6-8.6 16.3 6.6 15.6 4.8 10.5 11.5 10.8-2.8 13.1 5.7 13.3 24.2 13.2 10.2 0 18.6-34.9-15.6-50.3-4.3-21.2 0.7 6.6-15 4-11.4-14.6-2.9-12.8-7.4z" id="HK5155" name="Eastern">
  </path>
  <path d="M268.7 491.1l6.6-11.8 30.2-24.3 5.4 12.8 39.5-31.6 9.4 6.5 9.4 10.8-5.2 14.3-2.7 15.8-6.9-5.9-13.2-2.6-11.8 0-1.6 15.4-59.1 0.6z" id="HK5165" name="Tsuen Wan">
  </path>
  <path d="M840.9 131.1l4 10.1-31.9 25.8-18.5 17.2-20 8.7-22.4 9.9-19.9 14.4-7.9 12.8-17.5 11.6-13.3 0-25-33.1-23.9 4.5-9.1-5.9-4.1 8.7 2.7 15.6 7.9 4.3 2.6 12.9-12.1-2.8-1.1-8.5-12.1-7.3-19.7 2.9-6.6 8.7-32.6 6.8 15.3 8.9 18.6 13 21.6 14.6 8.6 6.1-40 12.4-18.6 0.5-29 0.9-27.8 10-19.9-73 23.8-30.1 41.1-15.8 2.6-14.3 19.9-4.3 9.3 4.3 29.1-15.8 25.2-12.9 22.5 1.4 15.9 15.8 37.1-1.4 39.7-4.3 25.2 5.7 29.1-14.3 31.2-24.7z" id="HK5169" name="Tai Po">
  </path>
  <path d="M624.5 291l11 7.8-3 14.5 8.3 7-9.4 18.8 10.6-3.1 13.3-26.9 18.3-17.9 6.8-19.5 9.5-0.3 13 8.8 0.8 33.2-1.3 31.5-22.5 33-25.2 40.1-63.6 14.1-26.4 5.9-17.9 5.3-8.6-22.5-6.6-22.9 38.4-54.4-4.1-39.6 18.6-0.5 40-12.4z" id="HK5163" name="Sha Tin">
  </path>
  <path d="M899.6 251.7l4.8 11.5 26.4 1.4 23.8 5.7-4 14.2 6.6 28.8-20.3-9.5-12.8-2.1-19.7 38.7 8.2-4.7 16.8 24.2 8.2 39.2-5.4 1.4-1.4-9.1-15.9-0.8 5.3 15.6-6.6 15.9-9.2 8.5-15.8 5.6-5.6 24.5-8.9-12.9 0-22.9-17.6 11.3-5-12.7-10.6-13 2.6-28.5-23.6-10-3-15.9-14.5 10.3-17 4.1-23.9-17.3-13.6 0-15.7 23 7.9 27.2 10.9 15.8-5.7 12.8-15.7-14.2-1.4-18.7-13.5 7.1-4.9 11.4 17.4 17.5 11.5 47.1 7.9 2.7 23.9 4.9 1.3 20.9 6.7 0 13.4-2.8 13.1 17.2-10.1 12-13.5 9.4-12.2-4.2-2.6 1.4 1.2 10.1-0.2 14.2 17.8-5.7 5.2 14.4 0 12.9-10.9 7.1-13.1-11.6-18.1-10.7 2.5-16.4-10.9-30.1-14.5-11.3 1.3-14.4 1.3-11.4-18.4-11.6-6.9 31.5 2.6 17.2-16.2 17.6-12-27.3 9.2-34.4-13.2-24.3-18.6-41.5 25.2-40.1 22.5-33 51.7-8.6 30.4-18.6 31.8-15.8 25.2 14.4 29.1 14.3 23.9-15.8-2.7-38.7 7.8-24.4z" id="HK5162" name="Sai Kung">
  </path>
  <path d="M689.3 545.5l-7.7 8.3-18.3-18.7-27.8-34.3-5.9-24.1-5.3-19.9 49 2.7 13.2 24.3-9.2 34.4 12 27.3z" id="HK5161" name="Kwun Tong">
  </path>
  <path d="M635.5 500.8l5.3 17.2-4 0-28.9-31.3-15.2 17.4 8.3 12.5 0 5.6-13.1-5.6-3.5 13.8-8.7 6.1 0.9-24-4-18.7 1.1-15.9 1.6-24.1-10.6-15.8 26.4-5.9 13.3 27.4 19.9-2.7 5.3 19.9 5.9 24.1z" id="HK5158" name="Kowloon City">
  </path>
  <path d="M575.7 536.5l-7.9 4.4-7.8-10 1.6-20.8-4.3-9.3-1.3-8.5-9.2 0 0-13 26.9-1.4-1.1 15.9 4 18.7-0.9 24z" id="HK5157" name="Yau Tsim Mong">
  </path>
  <path d="M546.8 479.3l-12.4-11.5-11-6.3 4.4-12.5 19-5.7 17.9-5.3 10.6 15.8-1.6 24.1-26.9 1.4z" id="HK5159" name="Sham Shui Po">
  </path>
  <path d="M523.4 461.5l-12.8-7.4-23.4-11.4-1.4 9.3-17.3-28.5-1.5-9.1 30.1-5 13.9-6.2-7.2-23.9 13.2-5.7 14.6 24.3 6.6 22.9 8.6 22.5-19 5.7-4.4 12.5z" id="HK5164" name="Kwai Tsing">
  </path>
  <path d="M310.9 427.7l-9.4-5.6 0-10.2-27.7 0-11.5-9.3-15.6-4.9-10.1-22.9-6.5-1.4-3.9-13-10.6 11.7 17.4 15.8-33.4 4.1-17.1 14.2-24.1-12.8-8 0-19.6-12.9 6.6-21.5-13.1-19.9-23.1-18.5 21.2-18.1 36-2.2 17.6-12.8 33.7 18.7 46.4 23 79.5 0 1.3 40.1-23.9 18.6 14.6 15.7-16.7 24.1z" id="HK5166" name="Tuen Mun">
  </path>
  <path d="M176 287.5l22.2-41.7 39.8-17.2 35.8-54.6 10.6 0 13.3 4.5-1.7 11.2-1 13.1 6.5-4.2 20.1-5.7 5.2 0 2.6-7.3-1.4-9.9 0-14.4 19.8-10.1 26.7-7.1 6.4-7.2 6.8-13 13.1-4.3 8.2-2.8 11.9-5.9 10 6.2 9.3 45.8 9.3 44.5 49-5.8 14.5 10.1-23.8 30.1 19.9 73-38.4 10.1-71.6 21.4-62.2 23-1.3-40.1-79.5 0-46.4-23-33.7-18.7z" id="HK5167" name="Yuen Long">
  </path>
  <path d="M591.1 432.1l63.6-14.1 18.6 41.5-49-2.7-19.9 2.7-13.3-27.4z" id="HK5160" name="Wong Tai Sin">
  </path>
 </g>
 <g id="points">
  <circle class="22.196413249015528|113.8655298274528" cx="47.9" cy="710.1" id="0">
  </circle>
  <circle class="22.35116386397761|114.1475122468365" cx="526.5" cy="426.3" id="1">
  </circle>
  <circle class="22.544602132680215|114.37309818234345" cx="909.3" cy="71.1" id="2">
  </circle>
 </g>
 <g id="label_points">
  <circle class="North" cx="573.9" cy="118.8" id="HK5168">
  </circle>
  <circle class="Islands" cx="122.5" cy="598.5" id="HK5170">
  </circle>
  <circle class="Southern" cx="621.7" cy="626.9" id="HK5156">
  </circle>
  <circle class="Central and Western" cx="522.5" cy="565.5" id="HK5153">
  </circle>
  <circle class="Wan Chai" cx="574.8" cy="576.7" id="HK5154">
  </circle>
  <circle class="Eastern" cx="630.8" cy="569.1" id="HK5155">
  </circle>
  <circle class="Tsuen Wan" cx="455.2" cy="361.1" id="HK5165">
  </circle>
  <circle class="Tai Po" cx="578" cy="211.3" id="HK5169">
  </circle>
  <circle class="Sha Tin" cx="604.5" cy="379.1" id="HK5163">
  </circle>
  <circle class="Sai Kung" cx="847.2" cy="353.8" id="HK5162">
  </circle>
  <circle class="Kwun Tong" cx="659.3" cy="489.7" id="HK5161">
  </circle>
  <circle class="Kowloon City" cx="591.7" cy="475.8" id="HK5158">
  </circle>
  <circle class="Yau Tsim Mong" cx="566.2" cy="501.2" id="HK5157">
  </circle>
  <circle class="Sham Shui Po" cx="552.7" cy="460.3" id="HK5159">
  </circle>
  <circle class="Kwai Tsing" cx="514.1" cy="429.2" id="HK5164">
  </circle>
  <circle class="Tuen Mun" cx="182.5" cy="342.9" id="HK5166">
  </circle>
  <circle class="Yuen Long" cx="385.2" cy="256.7" id="HK5167">
  </circle>
  <circle class="Wong Tai Sin" cx="633.9" cy="440" id="HK5160">
  </circle>
 </g>
</svg>