<?xml version="1.0"?>
    
<!--********* Copyright (c) 2024 Pareto Softare, LLC DBA Simplemaps.com ***************************************
************* Free for Commercial Use, full terms at  https://simplemaps.com/resources/svg-license ************
************* Attribution is appreciated! https://simplemaps.com *******************************************-->

<svg baseprofile="tiny" fill="#6f9c76" height="981" stroke="#ffffff" stroke-linecap="round" stroke-linejoin="round" stroke-width=".5" version="1.2" viewbox="0 0 1000 981" width="1000" xmlns="http://www.w3.org/2000/svg">
 <g id="features">
  <path d="M562.3 85.3l-0.6 1.5-1.3 4.2-0.2 1.1-0.1 0.6-4.6 10.5-0.5 0.6-0.5 0.2-1.3-1.7-0.8-1.3-0.6-0.8-1.9-1-5.2-0.7-3.8-1.3-17.7-1-1.6-0.5-1.4 0.3-10.7 3.4-5-0.1-18.9-4-0.4-0.2-0.4-0.4-0.7-0.8-0.7-1.8-0.3-1.1-0.2-1-0.1-0.7 0-0.5-0.3-0.6-1.7-2.2-0.8-0.9-1-0.7-3.1-0.3-2.5-1.8-0.3-0.1-0.2-1.9-0.7-1.1-2.6-1.7-1-1.2-0.4-1.8 0.3-3.6-0.1-1.8-0.3-1-1.5-5.2-0.6-3.1 0.1-1.3 0.1-1.9 4-4.5 0.4-0.6 4.9-1.9 0.9-0.6 1.4-0.8 3-1 1.6-1.9 0.6-0.7 1.1 1.6 0.1 0.1 0.9-1.7 1.8 1.4 1.9 0.3 2-0.2 1.8 0.2 1.3 0.8 2.6 2.8 1.3 0.9 1.3 0.2 3.4-0.4 1.6 0.2 1.5 0.9 3.7 3 0.9 0.7 6.7 4.2 2 2.1 1 0 0.6-2 1-0.8 1.2 0.2 1.4 0.9 4.1 0.8 3.3 2.3 2.8 3.5 2.5 4.2 2.9 3.8 4.7 2.9 1.8 4 1.1 0 1.1-3.2 1.1 0.7 4.2 1 0.7 0.3 0.7 0.5 0.6 0.7 0.7 0.8 1 0.9 0.4-0.7 0.3-1 0.9 0 1.9 1.9 1.4 1.9z" id="HR20" name="Medimurska">
  </path>
  <path d="M631.1 170.8l1.6 1.4 1.6 0.4 1.6-2.8 0.9 3.8-0.2 1.9 0.5 0.7 3.1-0.2 3.6-1.4 1.7 0.7 1 3.6 0.8-0.7 0.6-0.7 0.4-0.7 1.3-0.8 13.1 0.6 6.6 1.3 5.6 2.6 7.3 7.7 1.1 2.1 0.2 1.8 0.8 3.3 0.2 2.5 0.2 1.2 0.3 1.5 1.2 0.8 3.5 0.2 18.8 5.8 4.5 3.3 3 5.2 0 1 1.9-0.4 0.8-1.6 0.8-1.7 1.4-0.8 2.5 0 0.1 0.1 1.1 4.2 1.4 3.6 1.8 3.3 0.7 1.9 0.7 1.3 0.7 0.5 4.3 1 0.9 0.4 0.9 0.9 1.1 1.4 1.3 2.6 0.5 1.7 0.3 1.3 0.2 1.6 1 1.1 1.7 1.3 7.6 4.1 0.4 0.4 0.2 0.3 0.4 2.6-3.9 1.5-14.6 17.7-2.3 6-1.3 2.6-1.2 1.5-1 1.1-5.4 4-0.9 0.6-0.8 0.1-0.6-0.3-1.2-0.3-2.5-0.2-5.2 0.8-1.5 0.1-1.3-0.2-0.9-0.6-0.4-0.8-0.3-1-0.6-1-0.9-0.9-1.5-0.6-6.8-0.8-1.5-0.6-1.4-0.7-8.7-2.7-5.4-3.6-1.1-1.1-1.8-2-0.6-0.4-0.9-0.2-10.7-6.1-0.4 0-0.2 0.5 0.1 1.6-0.2 0.7-0.4 0.8-0.8 0.8-0.6 0.2-0.7-0.1-0.6-0.4-0.5-0.5-0.5-0.5-1.1-0.7-1-0.8-6.4-1.2-0.9-3.9 10.4-18.2 0.1-3-0.5-1-6.3-4.5-1.1-0.7-1.4-0.4-0.9-0.1-0.6 0.2-1 1-0.8 0.5-1.3 1.3-0.8 0.5-1.9 0.1-2.9-2.4-0.6-0.9-0.4-0.8 0.2-0.8 0.8-1.6 0.1-1.1-0.2-1.2-0.5-1.7-0.7-0.7-0.7-0.3-4.6 0.9-0.2 0-0.2-0.4-0.9-0.8-1.4-1.9-2.4-1.4-1.1-1.4-0.7-1.1 0-0.8 0.1-1.7 0-0.9-0.3-1.2-21.1-14.8-1-4-0.2-1.2 0.1-0.7 0.7-1.5 0-0.6-0.7-1.1 0.3-1 1-1.3 2.5-2.6 4.5-7 0.9-1 0.8-0.7 2.9-1.8 1.6-0.4 1.5-0.1 8 1.2 1.5-0.1 1.1-0.2 0.1-0.2z" id="HR10" name="Viroviticko-Podravska">
  </path>
  <path d="M562.3 85.3l0.9 1.2 1.5 3.7-0.5 3.5 1.2 3.3 1.5 4.5 1 1.3 1.2 1 5.7 6.7 3.8 7.2 1.5 1.9 8.2 6.7 1.2 1.7 0.8 2.4 1.8 1.9 7.4 5.6 2.3 1.2 12.5 0.4 1.7 1 6.2 8.1 0.8 2.1 2 7.1 0.3 2.2 1.1 3.7 2.4 0.9 2.5 0.4 1.4 1.9-1.1 0.2-2 0.9-1 0.3 0 1.5 2.3 0.8 0.2 0.2-0.1 0.2-1.1 0.2-1.5 0.1-8-1.2-1.5 0.1-1.6 0.4-2.9 1.8-0.8 0.7-0.9 1-4.5 7-2.5 2.6-1 1.3-0.3 1 0.7 1.1 0 0.6-0.7 1.5-0.1 0.7 0.2 1.2 1 4-5.3-5.1-2.2-1.7-0.8-0.8-0.9-1.1-2.1-3.3-1.2-1.4-1.3-0.9-2-0.2-1.2 0-1 0.4-2.6 1.9-0.9 0.1-0.6-0.5-0.7-1.6 0.1-1.9 0.3-2.1 0-1.9-1.7-2-2.7-1.9-6.3-3.3-2.2-1.6-0.9-1.8 1.6-4.3 0.1-1-0.5-0.8-0.8-0.7-2.5-1.4-1-0.8-0.8-0.9-0.4-1-0.3-0.6-0.1-0.9-0.4-1.5-0.4-0.7-0.5-0.6-1.1-0.5-1.1-0.3-1-0.1-0.9 0.1-0.7 0.6-0.6 1.3-0.6 2.3-0.3 0.6-0.6 0.7-1.5 1.2-0.4 0.5-0.5 0.5-0.7 0.1-1.1-1-0.6-1.2-0.9-0.6-1.2 0-2.8 1.2-2.6 1.7-1.6 2.7-1.8 3.2-1.3 3.9-2.1 4.5-0.5 3.3-0.2 9.3-2.2-1.1-4.6 1.9-1.1 0.2-1-0.3-0.7-0.6-1.2-0.8-0.9 0-1.4 0.4-0.5-0.1-0.5-0.2-0.2-0.7-0.6-0.9-0.9-0.9-5.9-3.4-1-0.8-3.9-4.1-0.8-0.5-0.6 0-0.5 0.4-0.4 0.5-0.3 0.6-0.5 1.1-0.5 0.4-1.1 0.8-2.1 0.6-0.9-0.2-0.4-0.4 0.3-1.4 0.3-1.1 0.2-0.5-0.1-0.5-0.2-0.5-0.4-0.5-1.2-1.4-2.5-3.7-1.7-0.9-11.3-3.7-1-3.9 0.4-8.1-0.4-2.5-1.1-4.4 0.1-1.7 0.5-1.1 2.4-0.7 0.5-0.1 2.2 0.3 0.8-0.1 0.7-0.4 5.4-4 0.6-0.2 0.3 0.2 0.3 0.3 0.3 1 0.3 0.5 0.4 0.3 0.8 0.1 4-0.9 1.9-0.8 0.9-0.9 0.5-1 0.4-1.6 0.5-0.7 14.8-9.2 5.5-2 2.6-0.2 0.8 0.2 0.5 0.7 0.5 1.5 0.5 0.3 1.9-0.6 3-1.5 5.6-3.8 2.6-2.3 1.4-2.1 0.8-2.7 1.1-2.1 0.4-1.3 0.2-1.2-0.1-0.9-0.2-0.8-0.3-0.4-0.4-0.4-1.4-0.9-2.1-2.3 5.2 0.7 1.9 1 0.6 0.8 0.8 1.3 1.3 1.7 0.5-0.2 0.5-0.6 4.6-10.5 0.1-0.6 0.2-1.1 1.3-4.2 0.6-1.5z" id="HR06" name="Koprivničko-Križevačka">
  </path>
  <path d="M892.1 289l-2.4 1.9-5.2 1.1-1.4-0.1-0.8-0.4-0.2-0.5-0.2-0.5-0.3-0.4-0.7-1-0.5-0.4-1.8-1.1-0.4-0.4-0.4-0.5-0.2-0.5-0.3-1-0.2-0.5-0.5-0.8-0.9-0.9-2.1-1.5-1.3-0.6-1.9-0.1-1 0.2-0.8 0.3-0.6 0.5-0.9 1-0.9 0.6-1.4 0.5-4.4 0.7-0.9 0.3-0.3 0.5-0.1 0.5 0.1 0.6 0.4 0.5 1.2 1.5 0.3 0.4 0.2 0.6 0.2 1.5 0 1.3-0.2 1.3-1 1-1.3 1-11.2-0.5-3 1.8-3.6 1.7-1.5 1-1 0.8-0.2 0.7-0.2 0.9-0.3 5.1-0.3 1.1-0.3 0.7-1.1 0.8-0.4 0.4-0.3 0.6-0.1 0.7-0.1 0.9 0.1 1 0 1.2-0.3 1.3-0.5 0.6-0.6 0.2-5.5-0.2-0.8 0.4-0.7 0.8-0.4 0.9-0.7 0.9-6.6 0.9-1.7 0.8-1.1 1-0.2 1.1-0.2 0.8-0.4 6.3 0 0.9 0.2 0.3 0.3 0.4 0.7 0.4 0.9 0.3 5.1 0.8 0.9 0.3 0.8 0.7 0.4 0.9 0.2 1.3-0.1 2.7-0.3 1.3-0.3 1.3-0.8 1.5-0.7 0.7-0.9 0.3-0.6 0-1.1-0.6-7.7-4-19.1-6.7-5.6-0.9-4.1 0.5-1.9 0.5-1.1 0.8-0.7 1.1-1.2 1.1-2 0.8-4.8 0.3-3.5-0.5-10.3-3.8-1.3-0.8-0.5-0.5-0.1-0.2-0.2-0.2-6-4.5 4.1-6.8 0.2-2.2-0.4-0.7-0.4-0.9-0.4-1.8-0.4-1-0.4-0.9-0.4-0.5-1.3-0.8-1.3-0.6-0.2-0.6 0-0.6 0.4-0.4 0.4-0.4 0.4-0.4 0.5-0.4 0.5-0.3 0.6-0.2 1.1-0.2 0.8-0.5 0.8-0.9 2-3.6 0.7-1 5.2-5.2 1.8-1.3 1.8-0.7 3.9 0 3.1-0.7 0.9-0.4 8.7-6.9 1.6-0.8 1.2-0.1 3.8 1.4 1.6 0.2 0.3 0 6.7-3.1 2.4-0.6 3.4-0.2 1.7-0.2 0.4-0.4 0-0.5-1.1-1.4-0.5-0.9-0.3-0.9 0-1.3-0.1-0.8-0.5-0.6-3-2-1.6-1.7-0.6-0.4-0.6-0.1-0.5 0.1-0.3 0.1-0.4 0.3-0.2 0.6-0.2 0.9-0.1 2.4-0.1 0.7-0.4 0.7-0.7 0.5-1 0.2-6.4-0.4-0.9 0.2-1.3 0.5-0.7 0-0.6-0.3-0.6-0.6-1.7-2.4-0.4-0.4-0.4-0.3-0.4-0.2-6.6 0.2-0.7-0.2-0.7-0.4-0.7-0.7-1.3-2.2-0.6-0.7-0.7-0.4-0.6-0.1-0.5-0.2-0.4-0.4-0.3-4 0-0.8 0.2-0.5 0.3-0.2 2.1-0.8 1-0.6 1.1-1.5 0.1-1-0.5-1.2-0.5-1-1.5-2.2-1.2-0.7-2.9-0.8-0.9-0.6-1.8-1.8-0.8-0.6-1-0.5-10.5-2.2-0.4-2.6-0.2-0.3-0.4-0.4-7.6-4.1-1.7-1.3-1-1.1-0.2-1.6-0.3-1.3-0.5-1.7-1.3-2.6-1.1-1.4-0.9-0.9-0.9-0.4-4.3-1-0.7-0.5-0.7-1.3-0.7-1.9-1.8-3.3-1.4-3.6-1.1-4.2-0.1-0.1 10.7 0 16.1 4.5 1.8 0 1.7-0.7 2.7-1.9 1.3-0.5 12.7 0 2.8 1 4.8 3.5 3.5 0.1 2.6 2.8 2.7 1.1 2.6-1.1 2.5-1.4 2.5 0 2.5 3.4 0.1 0 1 0.3 1 0.1 1.1-0.1 1.1-0.3 3-2.4 5.3-6.6 2.5-1.7 3.5 1.6 4-1.5 6.6-5.7 1.9-2.2 3.3-6.6 2.3-2.6 0.2-0.1 0.5-1.3 0.4-2.7 0.6-1.1 3.5-3.5 2.8-0.6 7.7 2.7 6 3.2 1.9 0.2 1.6-0.9 0.7-1.5 0.7-2.1 1.5-2.3 2 1.8 0.7 0 1 0 2.6-1.9 3.1-0.9 1.7-0.9 1.5-1.8 2.3-0.2 0.9 3.4-2.7 1.8-1.2 1.1-1.4 1.7 3.2 2.5 1.6 1.8 0.5 1.7-1.2 1.5-1.9 0.4-4.9 0.4-0.4 6.1-0.4 1.3-0.5 0.9-0.3 1 0.6 1.3 2.3 2.4 1.1 1.9 4.5 5.6 0.7 3.3 0.7 6.7 1.2 2.8 2.2 1.7 2.6 1.5 2.2 2 0.9 3.2-0.8 1.9-4.3 5.8-1.7 1.3-1.8 1.9-0.7 4.1-0.1 4.1-0.6 1.9 1.3 1.1 3.1 5 1.5 1.4 2.8 0 2-1.6 1.6-1.9 2.7-1.4 1.3-0.9 1.4-0.4 1.4 1 0.9 1.8 0.5 1.1 0.7 1 1.5 1.3 2.6 1.2 2.2 0.5 2 1.1 1.7 3.2-4.4 4.4-9.2-1.3-1.2-0.2-2.1 5.4 0.1 4 0.8 2.6z" id="HR14" name="Osjecko-Baranjska">
  </path>
  <path d="M140.2 282.6l-0.1 1.9 0.1 1.2 0.6 1.7 1.4 2.2 1.4 1.5 8.2 4.8 1.4 1.1 0.3 0.7-0.4 1.3-0.4 1.1-0.1 1.6 0.3 2.3 1.5 6.5 0.2 2.3 0 1.6-0.6 2.3-1.4 3-0.4 1.2-0.1 1.4 0 3.7 1.2 12.1 0.1 5.2-0.2 2 0 1.9 0.2 1.4 0.6 1.4 0.7 0.8 3.5 1.5 0.1 0-0.1 0.3-0.2 0.8-3.6 5.1-4.6-1.8 2.4 3-0.3 3.3-1.9 3.1-2.5 2.5-1-1.6-0.6 1.8 0 1.5 0.6 4.1-0.6-0.4-1-0.5-0.6-0.4 0 1.3 2.4 2.8 1.1 4.7-0.4 5-1.9 4-1.8 1.3-1.2-0.1-1.2-0.8-1.7-0.4-1.8 0.7-1.8 1.7-1.4 2-0.8 1.7-1 0 0.4-4.3 1.2-1.9 0.7-1.9-1.3-4-3.2-2.9-0.5-1.7 0.3-1.5-0.2-1.1-1.8-0.2 0.6 2.6-0.7 3.8 0.7 1.8 1.6 1 1.5 0.2 1.1 0.5 0.6 2.1-1.6 1.7-2.2 4.3-1 1.1-0.6-1.1-0.9 0 0.6 1.5 0.3 1.8-0.2 2-0.7 2.1-1.2-0.4-0.7 0.1 0.1 0.7 0.8 1.1 0 1.5-0.8 0-0.2 0.2 0 0.5-0.2 0.9-1.5-0.9-3.4 1-2.4-0.1 1.2 1 0.8 1 1.1 2.3-1 0 0 1.4 1 0 0 1.6-1.1 0.7-0.7 1-1.3 2.7 0.3 1.6 0.2 0.5 0 0.6-0.5 1.8 1.6-0.1 1 0.4 0.7 1 0.9 1.6-5.6 0.3-2.7-0.4-2.2-1.5-0.3 0.9-0.1 0.2-0.7 0.5-0.9-3.5-1.4-0.4-1.6 0.4-1.4-0.9-1.1 1.5 1.7 0.7 1.6 1.3 0.7 1.8-0.7 2.2 1.4 3.6 0.7 0.9-2.3 1.2-0.6-2 0.1-3.6-0.5-3.2-1.1-0.9-4.6-1.8-1.6-0.2 0.3-0.8 0.4-1.5 0.3-0.7-0.5-0.1-1.1 0.1-0.5 0 1.1-1.5-1.1-1.6-1.7 0.4-2.4-0.8-2.5-1.8-1.9-2.2 1.2-1.4 1.6 2.3 2.2 0.7 2.2-1.3 1.3-3.2-4.1 1-1.6-0.4-1.6-2.1 0-1.3 0.6-0.6 0.7-1.5 0.8-1-1.8-2.1-3.5-8.4-6.3-6.8-8-11.2-1.2-1-1.9-2.2-2.6-2.1-3.2-0.5 0.7-1.4 0.8-2.2 0.6-0.9-3.7-5.3 3.9-2.6 13.6-1-3.1-1.5-3.5-0.5-7.2 0.3-3.8 1.2-1.8-0.1-0.7-1.8 0.3-2.3 0.4-1.9-0.2-1.5-1.6-0.9 0.8-1.5 0.1-1.1-0.6-0.9-1.3-1.1 0-1.3 1.3-0.8 0.6-1.4-0.1-1.8-0.8-2.1 1.1-2.2-0.1-2.2-1.1-1.9-2-1.2 0.6-1.3 0.8-1.1 1.2-0.7 1.6 0 0-1.4-1.5-0.7-1.2-1-0.9-1.3-0.6-1.6 1.6-0.3 1.4-0.7 2.3-2-1.8-0.9-4.1-0.2-1.5-0.3-1.7-1.7-1.4-2.6-0.1-2.3 2.2-1 0-1.3-1.8-2-4.6-13.1 0.3-0.4 0.5-0.5 0.3-0.6-0.7-1-0.1-0.1 0.4-0.4 0.4-1.6-2.5-5.9-0.4-3.2 0.8-2.9 1 0 1.5 1.2 7 3.4 3.2 0.4 5.3 5.8 2.9 0.7 2.6-0.1 15.3-0.7 7.3 4.6 2.1 2.1 2.4 0.7 8.2 1.2 1.6-1.2 1.4-2.1 2.2-2.2 7.2-3.1 2-2.7-3.2-3.9 0-2.4 0.5-1.5 1.1-0.8 2.4 0.6 4 0.8 2.2 1.2 2.1 2.1 3.8 2.8 4.1 1.4 3.7 0.2z" id="HR18" name="Istarska">
  </path>
  <path d="M805.2 906.4l0.7 3.4-0.9 6.7 0.1 3.7 1.1 3.2 1.7 2.8 1.9 2.3 1.2 0.8 2.7 1.5 0.8 2.4-0.2 3.1-3.4-5.3-2.1-1.3-5.1-1.6-2.3-1.3-0.2-3-26.6-17.3-2.8-4.2 0.1-2 0.3-2.8 0.1-2.7-1-1.1-7.9-1.4-6.3-3.7-2.5-0.6-2.6-0.2-2.4-0.6-1.9-1.4-1-2.1 3.1 0-3.3-3.2-1.3-1.6-0.7-2.4-2.3 2.3-3.8-2-6.5-6-9.2-4.7-3.2-3.5 1.9-4.7-4.3 0.2-4.6-3.6-4.4-1-1 0.2-1.2 0.5-1 0.7-0.9 1.8-1-0.4-0.9-0.8-0.4-0.4-1-0.7-3.6-3-2.2-0.9 2.9 2.8 1.4 2 2 5.2 0 0.9-1 0.7-1-0.2 0-1.3 0.2-1.6-0.2-1.1-3.1-2-7.7-3.3-7-1.4-8.2-3.8-8.4-1.6-13.1-5.2 0.4-5.3-3.9-2.6-10.2-2.3-12.3-8.7-5.2-1.7-2.5-1.8-1.1-0.5-1.9-0.4-16.4 0-5-1.2-2.6-1.1-2.8-1.8-1.5-2.1 1.6-2.2 0-1.4-1.5-0.7-0.9-1.1-0.7-1.2-1-1.4 3.3 0.6 5 4.2 2.7 1 13.2-1.4 12.5 1.7 23.1 9.5 5.5 3.5 4.3 3.9 0.3 0.8 0 1.2 0.1 1.2 0.6 1.1 0.7 0.3 1.8-0.4 0.7 0.1 2.8 2.1 1.3 0.6 1.7 0.2 0.6-0.4-0.1-2 0.6-0.5 0.9 0.3 1.5 1.1 0.8 0.2 1.9 0.3 1.4 0.8 2.4 1.8 6 1.9 2.9 1.5 1.7 2.3 1 0 2.2-0.3 6.5 6.4 4 1.1-4.7-3.7-1.4-2.5 1.8-2.5-1-1.4-4.4 1.7-3.9-2.5 1.9-3 2.1-2.2 3.4-0.8 3.4 0.7 6.5 2.6 3.2 0.5 1.3-0.6 1.2-1.1 1.4-0.1 1.8 2.5 0.4 2-0.2 5.1 0.4 2.4 4.8 7.6 1.7 1 5.4 1.6 3.7 2.8 6.6 7.6 3.6 3 8.4 5.4 26.9 18.1 5 2.8 8.4 2.8 4.2-0.2 1.7 1.3 3.1 4.6 0.1 0.1 2.3 1.5 5.5 0.6 2.5 0.9z m-151.9-123.6l21 13.9 1.7 1.9 4.7 5.6 4.7 11.1 0 0.1 0.5 5.8-4.3 3.2-8.3 1.8-0.1-0.1-4.7-2.7-2.3 1-2.9-1.8-2.6-2.7-1.6-2.2-2.1-4-0.6-2.5 1.3-1.9 3.5-1.8-2.2-0.9-2.5 1-2.8 1.6-3 1.1 1.1-0.5 3-2.3-1.5-0.1-1.5-0.2-1.3-0.8-1-1.8 1.2-1.5-1-1.9-0.2-0.9-3.3 2.8-5.2-4.7-0.8-1.1 4.3-3.1 1-0.6 1-0.8-0.1-0.7-0.6-0.5-1.6-1.1-0.7-0.7-0.5-0.8-0.7-1.9-0.6-0.9-0.7-0.8-0.9-0.4-1.8-0.2-0.7-0.3-0.4-0.4-0.1-0.6 0.3-1.9 0.3-0.5 0.6-0.2 2.6 0.8 3.2 0.5 0.8 0.3 0.4 0.3 0.6 0.8 0.6 0.5 0.8 0.3 1.2 0.1 2.8-0.3 1.1-0.5 0.7-0.5 0.2-0.4z m-91.2 76.6l9.7 1.4 2 1.3 0.3 3.2-1.8 3-2.9 2-3.2 0.5-0.4-1.5-1.3-0.2-2.4-1.1-1.6 1.9-2.1 0.6-2-1.1-1.7-2.9 1.9-1.1 0.3-1.8-0.8-1.2-1.4 1.3-1.1 0 1.1-2.5 2.8-1.2 4.6-0.6z m123.3 8.6l3.1 2.7 7.9 3.5 2.8 3.9-55.9-16-1.8 2.3-3.1-1.4-3-2.9-1.6-2.2 2.7-0.5 5-1.9 2.8 0.2-0.7 0.3-0.9 0.5-1.6 1.4 1.7-0.1 1.7 0.1 1.5 0.5 1.4 1 1.2-1.5 2.6 1.8 7.5 0.1 5.8 3.6 7.9 1.5 3.5 1.6-0.5 0.5-0.1 0.1-0.4 0.9 8.8 0.9 1.7-0.9z m-81.2-47.6l2.6 3.6 2.4 2.3 5.6 4.1-1.1 1.6-2.9-1.6-3.3 0.2-7 1.4-14.2-3-6.5 0.4-11.5 4.4-7.2 1.1-17.2-3.5-7.5-2.3-2.8 0.3-0.1 1-2.6-0.9-2.6-1.8 10.5-5.7 0-1.6-2.9-0.9-6.1-0.8-2.6-1 3.3-2.1 3.4-0.1 3.5 0.6 3.5 0 3.2 2 4.2 1.7 8.6 2.2 8.4 0 2.1-0.7 3.5-1.9 18-1.7 12.1 3.8 3.2-1.1z" id="HR19" name="Dubrovacko-Neretvanska">
  </path>
  <path d="M399.6 343.1l-2.7-1.9-0.6-0.2-0.6-0.1-0.7 0-0.5-0.1-0.4-0.2-0.4-0.3-0.4-0.1-0.3 0-1.4 0.8-0.6 0-0.6-0.3-0.9-0.2-2.2 0.1-0.6 0.2-0.4 0.3-0.9 0.8-0.4 0.2-0.4 0.1-10.1-2.2-0.4-0.4-0.4-1-0.2-1.8-0.2-1.2-0.1-1 0.1-0.8 0.7-0.8 1-1.7 0.6-1.5 2-1.8 0.3-0.5-0.2-0.9-0.2-0.8-0.3-1-0.1-1 0.2-1.1 0.8-2.6 0.2-1.3 0.2-1.3 0-1.4-0.2-1.2-0.2-1.1-0.1-1 0.3-0.9 2.4-2.1 0.2-0.4-0.1-0.5-0.4-1.3-0.5-0.9-1-1.5-0.3-0.7-0.1-0.7 0.1-1.2 1-3.6 0-0.9-0.4-0.7-1.4-1.4-0.6-0.7 0.1-0.8 0.8-0.8 2.1-0.6 4.1 1 2 0 0.7 0.5 1 1.5 0.8 0.2 1.5-0.2 1.1 0.1 1.3 0.6 1.4 1.1 1.3 1.2 0.8 0.6 0.9 0.4 1.2-0.1 3.1-1.1 1.1-0.8 0.5-1.1 0-2 1.6-3.2 0.4-1.2-0.4-1.7 0.2-1.5 0.3-1 0.6-1.2 0.1-1-0.8-1.3-0.8-1.6-0.8-1.2-2.2-8.6 4.2-4.9 2.2-0.9 0.9 0.2 0.6 0.4 0.5 0.5 0.2 0.7 0 0.8-0.1 0.7 0.6 0.6 0.4 0.2 4.3 0.8 3.2 3.6 0.8 1.8 0.1 0.7-0.1 0.8-0.1 2.6 1.3 2.1 6.4 0.5 2.2-0.6 1.2-1.3 1.2-0.9 1.2-0.2 1.5 0.1 1.2 0.4 0.7 0.4 1.4 1.4 4.3-5.2 1-0.7 1.9-0.4 2 0.2 0.4-0.2 0.3-0.4-0.3-0.7-0.3-0.4-0.6-0.7-0.2-0.9 0-3.2-0.4-1.2-0.9-1.2-2.6-2.1-0.6-0.6-0.4-0.8-0.1-0.9-0.1-1.6-0.3-0.7-0.7-0.6-1.4-0.5-0.6-0.3-0.3-0.6-0.2-1.2 0.1-1.1 0.4-0.7 0.8-0.4 3.3 0.4 1.5-0.2 1.1-0.5 4.4-3.6 2.6-2.9 0.5-0.5 1-0.4 0.9-0.1 1.2 0.3 1.5 1 1.3 2.1 0.5 0.7 0.7 0.4 1.5 0.2 1.1 0.4 1.1 0.7 1.1 1.1 1.3 1.1 1.6 0.3 4.2-1.7 2-1.9 3-6.4-0.8-6.5 0.6-2.8-1-5.9 0.2-2.1 0.5-1.6 2.4-3.7 0.8-0.7 0.8-0.1 2.6 1.6 1.1 0.4 0.5 0 2.9-0.9 0.6-0.4 0.4-0.5 0.1-0.3 0.5-4.4 1.2-4.6 0.1-1.3 0-1-0.1-1-0.5-1.6 6.3 0 0.2-0.3 0.7-1.5 0.2-0.3 0.3-0.2 0.4-0.2 0.5 0.1 0.5 0.5 0.3 1.4 1.8 3 6.6 7.8 2.2 2.5 0 1.4-0.6 1.3-0.5 1.6-0.5 2.7 0.1 1 0.6 0.5 1.1 0.1 1.3 0.5 1.7 1.4 1.4 0.7 1.7 0.5 1.9 0.8 3.5 2.7 2.3 3 1.5 1.4 0.8 0.5 2.8-0.1 3.2 0.7 10.4 5 0.8 0.7 1.7 2.2 1.1 0.7 1.5 0.5 3.7 0.5 0.9 0.7 0.6 0.9 2.2 5.8 0.7 1.4 1.2 2.1 0.9 0.8 1.4 0.6 0.5 0.3 0.4 0.4 1.5 2.5 2.2 3 0.8 1.2 0.2 0.9-2.7 2.8-0.7 0-0.5 0-0.5-0.2-0.5 0-0.5 0-0.4 0.1-0.2 0.6 0.1 0.8 0.9 2.1 1.1 1.2 1.3 1 1.1 0.4 1.4 0.2 3-0.2 1.1 0.5 0.6 0.8 0.8 1.6 0.5 0.4 0.8-0.2 2.6-1.6 5.5 4.5 5.2 2.6 1 0.9 0.2 0.3 2.6 4.2 1.9-0.4 2.1-0.9 0.6-0.2 0.7 0.1 0.5 0.5 0.3 1.3-0.2 1.2-0.3 0.8-0.7 1.2-0.8 1.4-0.1 0.9 0 0.8 0.4 0.8 1.6 1.4 12.6 7.9 5.7-1.3 1.3 3.8 0.1 0.8-0.3 0.8-0.8 0.6-0.6 0.7-0.2 0.7 0.7 1.1 2.2 2 0.5 0.5 0.1 0.7-0.3 0.5-1 0.8-1.8 0.3-1.4 0.1-0.9 0.2-1.8 0.8-0.5 0.2-0.5 0.8-1.8 3.1-2.4 2.3-0.8 0.6-4 4-0.4 0.7-0.3 0.7-0.4 2.1 0.2 0.9 0.7 0.9 1.5 1 2.1 2.2 2.1 5.2-4-1.8-6.6-5-3-6.6-0.9 0.8-2.4 1.6-1 0.7 0.7-1.8 0.1-1.3-0.2-1.3-0.6-1.7-1.5 2.8-1.6-1.1-1.9-2.3-2.2-0.9 0.6 1.5 0.4 1.5-3.2 0.4-0.9-1.2 0.1-1.9-0.2-1.7-1.2-4.6-1.3-1.3-4.2 3.6-0.5 1-1.2 1.8-1.6 1.8-1.3 0.8-0.8 2.4-1.6 1.1-1.7 0.7-1.5 1.6-0.9 2.6 0.1 1.9-0.2 1.6-1.9 1.7-4 0.5-30.6-9.2-9-0.3-7.2 5-5 11.2-2.1 3.3-1.7 1.3-4 1.2-1.5 1-1.1 2 0 1.3 0.3 1.4-0.3 2.6-0.7 1.7-3.1 5.9-1.7 6.2-0.8 3.1-3.8 1-5.7-1.3-5.9-2.5-4.3-2.8-14.1-14.1-2.7-3.5-3.2-8.6-2.4-3.9-1.9-1.5-3.4-0.7-1.3-1 0.1-1 0.5-1.6 0.1-1.9-1.3-2-1.9-0.9-1.7-0.1-3.5 0.7-14.7-0.4-8.3 1.4-3.5 3.1z" id="HR03" name="Sisacko-Moslavacka">
  </path>
  <path d="M650.2 260.3l6.4 1.2 1 0.8 1.1 0.7 0.5 0.5 0.5 0.5 0.6 0.4 0.7 0.1 0.6-0.2 0.8-0.8 0.4-0.8 0.2-0.7-0.1-1.6 0.2-0.5 0.4 0 10.7 6.1 0.9 0.2 0.6 0.4 1.8 2 1.1 1.1 5.4 3.6 8.7 2.7 1.4 0.7 1.5 0.6 6.8 0.8 1.5 0.6 0.9 0.9 0.6 1 0.3 1 0.4 0.8 0.9 0.6 1.3 0.2 1.5-0.1 5.2-0.8 2.5 0.2 1.2 0.3 0.6 0.3 0.8-0.1 0.9-0.6 5.4-4 1-1.1 1.2-1.5 1.3-2.6 2.3-6 14.6-17.7 3.9-1.5 10.5 2.2 1 0.5 0.8 0.6 1.8 1.8 0.9 0.6 2.9 0.8 1.2 0.7 1.5 2.2 0.5 1 0.5 1.2-0.1 1-1.1 1.5-1 0.6-2.1 0.8-0.3 0.2-0.2 0.5 0 0.8 0.3 4 0.4 0.4 0.5 0.2 0.6 0.1 0.7 0.4 0.6 0.7 1.3 2.2 0.7 0.7 0.7 0.4 0.7 0.2 6.6-0.2 0.4 0.2 0.4 0.3 0.4 0.4 1.7 2.4 0.6 0.6 0.6 0.3 0.7 0 1.3-0.5 0.9-0.2 6.4 0.4 1-0.2 0.7-0.5 0.4-0.7 0.1-0.7 0.1-2.4 0.2-0.9 0.2-0.6 0.4-0.3 0.3-0.1 0.5-0.1 0.6 0.1 0.6 0.4 1.6 1.7 3 2 0.5 0.6 0.1 0.8 0 1.3 0.3 0.9 0.5 0.9 1.1 1.4 0 0.5-0.4 0.4-1.7 0.2-3.4 0.2-2.4 0.6-6.7 3.1-0.3 0-1.6-0.2-3.8-1.4-1.2 0.1-1.6 0.8-8.7 6.9-0.9 0.4-3.1 0.7-3.9 0-1.8 0.7-1.8 1.3-5.2 5.2-0.7 1-2 3.6-0.8 0.9-0.8 0.5-1.1 0.2-0.6 0.2-0.5 0.3-0.5 0.4-0.4 0.4-0.4 0.4-0.4 0.4 0 0.6 0.2 0.6 1.3 0.6 1.3 0.8 0.4 0.5 0.4 0.9 0.4 1 0.4 1.8 0.4 0.9 0.4 0.7-0.2 2.2-4.1 6.8-25.1-3.8-1.4 0.2-1.1 0.3-0.9 0.6-0.7 0.6-0.7 0.8-0.4 0.6-0.2 0.6 0 0.5 0.3 0.6 0.2 0.4 0.6 0.8 0.2 0.4 0 0.5-0.2 0.3-0.3 0.2-1.4 0.2-0.3 0.2-0.4 0.4-0.2 0.3-0.3 0.6-0.3 0.8-0.6 1.2-1.7 1.9-1.6 1.1-3.3 1.3-1.2 0.2-3.7-0.4-0.9 0.2-0.5 0.4 0 0.8-0.1 2-0.2 0.7-0.2 0.7-0.2 0.7-0.3 0.4-0.3 0.4-0.5 0.3-0.8 0.3-0.9 0.3-2.1 0.1-2.6-0.4-2.6-0.8-0.5-0.5 0.4-1 1.6-3 0-0.2-0.3-0.9-2.1-3.5-0.2-0.4 0-0.5 0.2-1.2 0.1-0.8-0.1-0.6 0-0.4-0.1-0.4-0.4-0.9-0.2-0.5-0.7-0.5-1.4-0.6-3.2-0.9-2.3-0.1-4.7 0.5-2.5-0.4-4.3-1.9-4.1-2.6-2.8-2.4-5.7-6.9-2.6-2.7-13.4-9.6-5.7 0.1-7.7 3.5-2.2 0.2-1.9-0.5-1.6-1.1-2.6-0.7-2 0.4-1.9 1.1-6.8 5.6-5.7 1.3-12.6-7.9-1.6-1.4-0.4-0.8 0-0.8 0.1-0.9 0.8-1.4 0.7-1.2 0.3-0.8 0.2-1.2-0.3-1.3-0.5-0.5-0.7-0.1-0.6 0.2-2.1 0.9-1.9 0.4-2.6-4.2-0.2-0.3-1-0.9-5.2-2.6-5.5-4.5-0.5-1.8 0.2-2.1 0.1-0.9 0-0.5 0-0.7 0.4-3.3 2.2-6.3 2.3 0.8 0.2 0.7 0.3 1.1-0.1 1 0 1.1 0.5 0.7 0.6 0.4 7.3 3.5 1.4 0.3 0.9-0.1 0.9-0.4 1.1-0.3 2-0.2 2 0.7 1.8-0.3 4-1.3 2.3-0.4 3.6-0.1 2-0.5 1.5-0.8 0.7-0.9 1-0.9 0.7 0 0.8 0.6 1.3 1.4 2.1 1.7 1.6 1 1.7 0.2 15.6-2.6 2.3 0.2 5.2 1.5 2.4 0.2 1.7-0.3 1.2-0.7 0.9-0.8 0.7-1.3 1.9-6.5 0.2-1.2-0.1-1-0.4-0.7-1.3-1.9z" id="HR12" name="Brodsko-Posavska">
  </path>
  <path d="M401.2 271.5l2.2 8.6 0.8 1.2 0.8 1.6 0.8 1.3-0.1 1-0.6 1.2-0.3 1-0.2 1.5 0.4 1.7-0.4 1.2-1.6 3.2 0 2-0.5 1.1-1.1 0.8-3.1 1.1-1.2 0.1-0.9-0.4-0.8-0.6-1.3-1.2-1.4-1.1-1.3-0.6-1.1-0.1-1.5 0.2-0.8-0.2-1-1.5-0.7-0.5-2 0-4.1-1-2.1 0.6-0.8 0.8-0.1 0.8 0.6 0.7 1.4 1.4 0.4 0.7 0 0.9-1 3.6-0.1 1.2 0.1 0.7 0.3 0.7 1 1.5 0.5 0.9 0.4 1.3 0.1 0.5-0.2 0.4-2.4 2.1-0.3 0.9 0.1 1 0.2 1.1 0.2 1.2 0 1.4-0.2 1.3-0.2 1.3-0.8 2.6-0.2 1.1 0.1 1 0.3 1 0.2 0.8 0.2 0.9-0.3 0.5-2 1.8-0.6 1.5-1 1.7-0.7 0.8-0.1 0.8 0.1 1 0.2 1.2 0.2 1.8 0.4 1 0.4 0.4 10.1 2.2 0.4-0.1 0.4-0.2 0.9-0.8 0.4-0.3 0.6-0.2 2.2-0.1 0.9 0.2 0.6 0.3 0.6 0 1.4-0.8 0.3 0 0.4 0.1 0.4 0.3 0.4 0.2 0.5 0.1 0.7 0 0.6 0.1 0.6 0.2 2.7 1.9-1.5 1.5-1.8 4.8-0.1 1.6 0.5 13-0.6 3.4-3.6 9.4-0.1 4.1 1.8 6.6-0.6 3.8-3.8 6.7-0.7 2.3-0.1 0-1.2 1-1.1 0.1-1.1-0.1-0.7-0.5-0.5-0.3-2.3-0.6-3.5-2.4-0.9-0.2-0.6 0.1-2.8 2.6-1 0.6-2 0.9-1.3-0.2-3.3-2.9-3.3-1.3-1.3-0.3-1 0.3-1.5 2.3-0.5 0.5-0.3 0.3-0.4 0.4-0.2 0.5-0.1 0.7 0.2 0.8 0.6 1.1 3.9 5.7 0.5 3-6-5.1-1-1.1-0.4-0.9-0.3-0.8-0.7-0.7-1.1-0.5-1.9-0.3-2.4 0.3-0.6 0-0.7-0.3-0.6-0.5-0.9-1.3-0.5-1.3-1.2-3.9-0.4-1-0.8-0.8-3.1-2.5-1.8-1.9-0.7-1.3-3-6.9-0.6-0.8-0.5-0.5-20.7-12.8-0.9-0.7-0.7-0.8-1-1.5-0.6-0.6-1.3-1.2-0.9-1.1-0.7-1.1-0.5-0.9-0.8-1-0.6-0.3-0.9 0.6-3.9 3.9-5.2 0.3-18.1-4.1-5.7-5.7-0.3-0.7-0.1-1.1 0.8-0.4 0.4-0.4 0.5-0.7 0.3-0.9 0.2-11.4 0.6-4.3-0.4-1.2-0.4-1.2-0.7-1.3-0.9-2.2 0-1.2 0.3-0.8 0.6-0.5 0.4-0.4 0.2-0.3 0.2-0.8 0.2-1.2 0.8-2.7 0.9-1.7 5.4-3.6 0.7 0 0.9 0.1 1.2 1 1.8 1.1 4.4 1.5 1.7 0.9 1.1 1 0.3 0.8 1.3 1.1 0.6 0.2 0.3 0 2-3.5 0.6-0.9 0.5-0.4 4.9-2.1 1-1 0.5-1-0.1-1.9 0-0.7 0.4-0.7 0.8-1 3-2.5 1-1.1 0.6-1.1 1.3-4.2 0.5-2.1 0.2-1.2 0.1-0.9 0-1.1-0.3-1.6-0.6-1.6-0.4-0.8 8.5-3.2 5 0.1 1.8-0.5 1.3-1.2 2.7-3.9 1.5-1.3-7.7-5.2-2.2-3.8-1.3-4.7-0.9-5.7-0.1-0.2-0.8-2.5-1.1-2.4-0.2-1.8 2-1 1-0.9 0.6-1.7 0.9-1.7 4.5-1.4 1.9-1 2.2-0.8 3.1 0-0.8-1.9-2.5-4.2-0.3-0.3 2.2-1.3 2.8-3.3 5.9-1.1 1.5 0.3 0.8 0.5 0.7 0.8 1.2 2 2.3 2.4 1.6 1.4 5.2 2.6 0.9 0.6 0 0.5-0.2 0.7-0.1 0.7 0.1 0.6 0.3 0.8 2.6 2.9 4.1 3 1.6 0.7 1.2 0 1.5-2.6 0.5-0.6 0.8-0.8 1-0.6 1.8-0.2 1.3 0.2 0.9 0.4 5.7 3.6 4.1 0.8 1.5 0.5 1.4 0.7 1.8 1.2 1 0.4 0.7 0 0.4-0.3 1.5-1.6 0.3 0.1 0.2 0.4 0.8 4.1-0.1 1.1-0.6 1-0.8 0.8-0.5 0.9 0.2 1.1 2.3 2 0.8 0.9 3 4 0.6 0.4 0.8 0.2 1.6-0.2 2-0.6z" id="HR04" name="Karlovacka">
  </path>
  <path d="M363.3 412.4l-0.5-3-3.9-5.7-0.6-1.1-0.2-0.8 0.1-0.7 0.2-0.5 0.4-0.4 0.3-0.3 0.5-0.5 1.5-2.3 1-0.3 1.3 0.3 3.3 1.3 3.3 2.9 1.3 0.2 2-0.9 1-0.6 2.8-2.6 0.6-0.1 0.9 0.2 3.5 2.4 2.3 0.6 0.5 0.3 0.7 0.5 1.1 0.1 1.1-0.1 1.2-1 0.1 0-0.5 1.5 0.5 5.5 2.1 4.3 2.5 4 1.4 4.1-0.7 3.8-2.7 1.3-3.1 1-2.3 3 0.2 3.6 1.7 3.7 3.9 6.5 0.9 1.1 3.6 2.5 1.2 2 1 2.2 1.3 1.4 2.3-0.3 1.4-0.5 2.8-0.2 1.3-0.5 1.2-1.3 0.8-1.9 1.1-1.4 1.9 0.2 1.1 1.2 0.5 2 0.4 2.3 0.6 1.9 1.1 1.2 1.3-0.4 1.3-0.7 1.2 0.1 1.6 2.4 1.2 5.4 2 3 1.6 1 1.9 0.7 3.8 0.5 1.9 0.9 1.2 2 0.7 2.7 0.6 3-0.2 0.2-1.3 0.6-0.7 2.9-2.5 3.2-1.2 3.5 3.1 3.4 3.2 0.4 5.6-2.5 3.3 0.6 1.7 2.3 1.1 3.8 0.8 4.2 3.8 10.7 1 4 0 3.4-0.9 1.5-1.3 0.9-1 0.9-0.1 1.6 0.6-0.6 1.7 0 2.8 0.8 3.2 2 1.6 1.7 0.5 2 0 0.1-0.4 3.6-0.5 1.8-1.6 3.5-0.5 2.4 0.2 3.2 1.5 6.7 2.8 9.3 2.5 3.7 6.7 7.2 2.3 3.9 3.4 8.4 2.2 3.8 3 2.9 1.7 1.4 1.5 0.8 1.7 0.2 4-0.3 1.5 0.6 2 3.3 0.7 3.2 1.3 2.5 6.7 2.5 2.7 2.1 2.4 2.8 1.7 2.5-5.1-0.5-1.5 0.4-2.2 0.8-5.2 3.5-2.8 2.7-0.3 1.1-0.3 0.9-0.6 0.7-1.7 0.6-2.6 0.1-4.9-1.4-1-2.2-0.6-0.4-1.4-0.6-1 0-0.9 0-0.8 0.4-1.6 1.2-11.1 3.3-3.3 0-2.8-0.5-3.3-1.4-1.6-1.9-0.9-1.8-0.1-1.7 0.1-4.3 0.2-2.1 0.1-1-0.3-2.8-0.1-0.5-0.3-0.9-0.1-0.2-0.1-0.2-0.1-0.3-0.1-0.6 0-0.6 0.1-0.5 0.1-0.9-0.2-1-1.1-1.7-1.7 0.2-4 3.8-1 0.6-0.9 0.4-0.6 0.1-0.7-0.1-3-0.6-3.8 0-1 0.3-0.5 0.5-0.7 1.2-0.2 0.6-0.1 0.2 0 0.2 0 0.2 0.1 0.5 0.1 0.5 0.7 1.3 0.2 0.7-0.1 0.6-0.3 0.6-0.3 0.2-0.6 0.3-1.6 0.3-0.5 0.2-0.4 0.3-0.5 0.6-0.3 0.7-0.2 0.7 0.1 0.7 0.3 1.7 0 0.7-0.8 0.5-5.6 1.2-1.1 0.4-1.3 0.9-1.2 0.9-3.1 3.5-1 0.9-0.6 0.3-0.4 0-0.4-0.2-0.5-0.4-3.1-3.4-0.5-0.4-5.5-2-1.9-0.1-3.2 0.6-0.8-0.3-2.2-1.2-0.7 0-0.5 0.3-0.8 1.1-0.1 0.5 0.3 0.7 1.8 1.9 0.2 0.4 0.1 0.4-0.3 0.8-0.5 1-0.8 1-1 0.9-1.3 0.7-0.8 0.5-0.4 0.7-0.2 0.6-0.1 1.2-0.3 1.1-0.6 1.1-1.1 1-1 0.2-0.9-0.1-3.1-1.6-3.4-2.8-0.6 0-0.5 0.4-5.3 4.6-0.8 0.5-0.8 0-0.7-0.4-4.8-4.5-3.5-2.1-4.3 4.3-0.3-0.2-3.1-4.9-2-2.3-2.2-0.9-2.3-0.4-1.4-0.4-1.2-0.6-1.7-1.3-0.8-1.4-0.6-1.5-1.1-1.7-8.4-10.2-4-6.1-2.8-2.9-3.1-1.3-6.5-7.9 0.1-0.7-6.9-7.6-1.7-1-1.4-1.2-0.7-1.5 0.6-2.2-2.4-1.7-8-8.4 2.4-3.8-1.3-4.8-3.2-4.1-3.2-2.1 1.8-2.2 2.8-1.7 2.7 0.5 1.1 4.1 1.8 2.4 3.3-1.6 1.5-3.3-3.5-2.7 1.2-0.3 0.2-0.4 0.1-0.1 0.6 0.8 1.2 0-0.8-2.6-0.5-0.9 7.6 5.1 3.2 4.2 1.7 1.4 2.4 0.2-2-7.4 1.3-0.5 0.7-0.6 0.4-0.8 0.8-1.1-2.1-0.6-1.7-1.7-1.4-2.3-1.2-2.6 3 1.1 4.3 3.9 4.4 1.7 11 6.3 2.4 0.9 12.2 1.9 3.3-0.3 0.6-2.4-2.2-1.4-10.1-1.5-0.7-0.7-4.7-6-1.2-0.9-15.1-7.3-2.2-2.2 0.1 0 3.3-7.6 0.7-1 1.2-1.5 1.3-0.4 1.2 0 1.1 0.4 1.9 1.1 3.4 3.1 2.3 2.6 0.7 0.6 0.9 0.4 1 0.3 11.8 1.1 1.2 0.3 1.6 1.7 5.1 6.3 1.2-3.6 0.7-0.5 1.3-0.5 1.5-0.2 2-0.8 1.6-1.7 2.5-3.2 1.3-2.3 1-2.5 0.6-2.1 0.1-1.5-0.2-0.8-0.6-0.4-0.5-0.4-0.6-0.4-0.4-0.6-0.2-0.8-0.2-0.8-0.3-0.6-0.7-0.4-0.8-0.3-0.7-0.4-0.5-0.5-0.7-0.9-0.4-1.1 0.5-1 1.2-1.3 7.9-5.9-2.5-7-2.2-3-9.3-8.7-0.6-1.4-0.1-0.9 0.5-0.8 0.4-0.8 0.1-0.5-0.1-0.7-0.4-1-0.9-4.5-0.7-1.2-2.3-2.5-0.4-1.5-0.2-4.1-0.7-3.3-0.8-2-0.9-1.4-1-0.8-2.6-1.8-1.1-1-1.5-1.8-0.5-1.8-0.1-1.9 0.5-0.8 1.1-0.3 5.5 0 1.2-0.2 1.1-0.5 0.8-0.8 1-0.6 1.7-0.7 1.5-1.4 4.3-2.7 0.5-0.5 0.4-0.7 0.4-1.6-0.2-1-0.6-0.6-2.5-0.6-0.9-0.4-1.8-1.4-2.5-1.2-2.4-1.8-0.9-1-0.1-0.6 0.3-0.6 3.1-2.3 1.9-2.1 1.1-4.2z m-40.6 196.6l-0.9-2.5-4.1-4.8-1.4-2.3 2.9 0.1 2.5 1.1 8.3 6.3 4.4 1 0.8 0.3 0.4 1.2 0.4 3.6 0.4 1.2 0.9 1 2.1 0.9 1.2 0.8 1.2 1.6 1.3 2.3 1.1 2.6 0.6 2.4-1.2-0.6-1.1-0.5-1.2-0.2-1.3-0.1-1.2-0.4-0.6-0.9-0.3-0.9-0.6-0.8-3.9-1.2-2.1-1.2-1.3-2.1 0.6-0.5 0.4-0.8-2-0.9-2.8-1.9-2.4-2.1-1.1-1.7z m-7.4-11l-2-2.2-1.4-2.9-1.4-1.9-1.7 1.1-0.9 0-0.2-1-0.3-0.5-0.3-0.6-0.4-0.8-1.5 2.4-3-2.4-3.2-3.8-4.1-3.4-5.4-6.7-2.8-2.2 0.3-0.8 0.1-0.2 0.1 0 0.5-0.5-0.6-1.2-1.4-3.3 25.2 20.5 3.2 4.2 1.2 6.2z m-63.4-28l1.2-0.8 1 0 1 0.9 0.9 1.6-2 0.8-3.3-1.1-2.3-2.4 0.4-3.4 0.7 2.4 1.3 1.4 1.1 0.6z m46.5 42.6l11.1 7.8 0.5 2.5-3.8 1.3-7.7-6.1-1.9 0.5 0.7 0.8 0.4 1 0.7 1 3.8 2.8 0.9 0.9 1.2 0.9 1.2-0.2 0.9 0.3 0.3 1.9-0.7 1-1.5-0.9-1.4-1.6-0.5-0.7-5.5-3.3-2.3-2-2.3-2.8-6.1-9.4-3.7-4.5-6.1-13.2-3.1-3-4.3-2-13.1-14-0.3-2.4-0.8-1.9-2-3.1 0.8-0.2 0.7 0.1 0.6 0.1 3 3.5 8.6 6.9 0.8 1.4 0.7 2 0.9 1.7 1.3 0.7 2.1 0.7 1.3 1.2 1.4 0.7 2-1.1-0.7 2.1-0.3 0.8 2.1 0.3 1.3 1.2 0.6 2.2 0.2 2.9 0.6 2.6 1.5 2.1 7.2 7.9 1.7 1 2.2 0.3 0.5 1 4.3 6.3z m-59.3-73.5l2.1 1.5 2.8 2.7-0.3 1.3-2.2 0-1.4 0.4-0.9 1.1-1.8-0.4-1.6-2.3 0.2-1.7 1.6 0 0.5-0.7 0-1.6 1-0.3z m-22.5-10.4l4.6 3.2 2.8 3.7-0.6 0.7-2.6-1.4-6.4-5.9-0.6-1.7 2.8 1.4z m28.4-8l1.2 2.1 0.8 3.9-1.5 1.5-2.5-0.8-1.7-1.3-2.7-2.4 0.2-1.8 1.6-2.6-0.7-6.7 0.6-0.3 0.7-0.2 1.7-0.3 1.8 1 1.3 1.9 0.3 2.1-0.8 1.8-0.5 1.3 0.2 0.8z" id="HR13" name="Zadarska">
  </path>
  <path d="M820.5 343.8l1.1 0.6 0.6 0 0.9-0.3 0.7-0.7 0.8-1.5 0.3-1.3 0.3-1.3 0.1-2.7-0.2-1.3-0.4-0.9-0.8-0.7-0.9-0.3-5.1-0.8-0.9-0.3-0.7-0.4-0.3-0.4-0.2-0.3 0-0.9 0.4-6.3 0.2-0.8 0.2-1.1 1.1-1 1.7-0.8 6.6-0.9 0.7-0.9 0.4-0.9 0.7-0.8 0.8-0.4 5.5 0.2 0.6-0.2 0.5-0.6 0.3-1.3 0-1.2-0.1-1 0.1-0.9 0.1-0.7 0.3-0.6 0.4-0.4 1.1-0.8 0.3-0.7 0.3-1.1 0.3-5.1 0.2-0.9 0.2-0.7 1-0.8 1.5-1 3.6-1.7 3-1.8 11.2 0.5 1.3-1 1-1 0.2-1.3 0-1.3-0.2-1.5-0.2-0.6-0.3-0.4-1.2-1.5-0.4-0.5-0.1-0.6 0.1-0.5 0.3-0.5 0.9-0.3 4.4-0.7 1.4-0.5 0.9-0.6 0.9-1 0.6-0.5 0.8-0.3 1-0.2 1.9 0.1 1.3 0.6 2.1 1.5 0.9 0.9 0.5 0.8 0.2 0.5 0.3 1 0.2 0.5 0.4 0.5 0.4 0.4 1.8 1.1 0.5 0.4 0.7 1 0.3 0.4 0.2 0.5 0.2 0.5 0.8 0.4 1.4 0.1 5.2-1.1 2.4-1.9 2.2 2.3 2.3 3.8-1.3 3-3.9 0.6-3.4 1.9 0.3 4.3 2.8 2 0.1 0 1.7 0.6 1.1 1.3 2.4 1.8 3.5 0 2.2 0.4 2.4 0.9 2.1 2.2 0.4 2.1 0.8 4.6 8.4 4.9 5.9 2.5 9.7 4.8 4.6 1.4 13.6 1.5 2.9 1.4 1.6 4.4-0.3 5.1-1.8 1.8-0.5 0.5-13.3 0.6-0.7-0.5-1.3-2-0.7-0.3-1.1 0.4-0.6 1-0.4 1-0.8 0.5-6.5 0.9-3.2-0.2-3-1.1-1.7-1.7-2.9-4.2-1.8-1-3.4 0.8 1.1 3.2 2 4.1-0.6 3.6-3.4 0.6-8.6-0.8-2.3 2.1 0.2 1.9 1.2 1.7 1.5 1.5 1.2 1.5 1.2 2.7 0.4 2.1 0.6 5.2 1.3 6.4 0.2 2.3-0.4 2.1-0.7 2.6-0.5 2.7 0.3 2.2 1.7 1.5 3.1-1.2 1.4 1.6 0.6 3.3-1.1 1.6-1.7 0.7-1.5 0.9-2.4 4.1-1.4 1.9-1.9 1.1-2.2-0.3-3.1-3.4-2.1-0.6-4.1 2.3 0.4 4.4 3.3 6.3-0.1 0-1.6 0.5-4.6 0.1-13.1 0.4-4.8-1.6-2.5-1.7-3.8-2.5-5.3-5.7-1.6-6.2 1.1-2.1 2.5-1.9 0.8-0.7 0.1-0.4 0.4-1.7-0.2-0.8-0.8-1-0.4-0.7-0.1-0.6 0-1.2 0-0.4-0.5-1.3-0.4-1-0.6-0.6-1.1-0.4-4.3-0.4-1.8-0.8-1.9-2.2-5.7-11.8-0.8-1-0.9-0.5-1 0.1-0.8 0.8-0.5 1.3-0.3 1.3-0.4 1.1-1.5 0.7-1.3-0.5-1-1.5-0.9-1.7-1-2.9-0.7-1-1.2-0.5-1 0.2-2.2 1.3-1 0.4-1.2-0.1-2.5-0.6-1.3-0.1-2.2 1 0 0.4-0.1 0-0.1 0-3.4-5.5-1.2-3.3-0.2-2.3 0-1.8 0.1-1.7 0.3-1.4 0.5-1.2 0.6-1.2 3.8-4.5z" id="HR16" name="Vukovarsko-Srijemska">
  </path>
  <path d="M653.3 782.8l-0.2 0.4-0.7 0.5-1.1 0.5-2.8 0.3-1.2-0.1-0.8-0.3-0.6-0.5-0.6-0.8-0.4-0.3-0.8-0.3-3.2-0.5-2.6-0.8-0.6 0.2-0.3 0.5-0.3 1.9 0.1 0.6 0.4 0.4 0.7 0.3 1.8 0.2 0.9 0.4 0.7 0.8 0.6 0.9 0.7 1.9 0.5 0.8 0.7 0.7 1.6 1.1 0.6 0.5 0.1 0.7-1 0.8-1 0.6-4.3 3.1-7.6-10.1-22.1-11.5-5.3-4.4-2.6-1.3-1.1-1-1-2.7-1.1-1.2-1.6-0.7-1.5-0.3-1-0.5-1.1-1.2-1.6-2.6-0.3-0.9-0.5-2.8-0.2-0.8-0.7-0.3-2-0.6-0.6-0.4-14.5-18.9-4.3-2.9-1.6-1.5-1.1-1.4-1.2-1-19.8-2.9-9-4-10.5-2.3-14-10.2-0.2-0.5-0.1-1-0.4-0.9-0.8-0.5-1 0.3-1.4 1-0.7 0.2-5.9-1.5-11.5 0 0-1.4 3 0 3.6-0.9 3.3-1.5 2.7-2-2.6-1.6-3.5-0.8-14.9-0.3-1.9 0.5-2.8 1.9-1.1 0.3-2.8 0.5-6.4 2-18.8 0.4 0 1.5 5.1 1.3 2.2 1.6 1.2 3-9.5 0 0.3 2.3-2.2-0.2-5-2.1-4.1-0.2-1.7-0.9-2.2-1.9-0.2 0 0.9-1.1 1.7-0.3 3.3-0.1 0.8-0.5-0.1-0.5-0.4-0.3-0.8-0.4-0.8-0.5-0.5-0.7 0-1.3 0.6-0.7 1.2-0.5 1.5-0.4 2.6-1 0.8-0.6 0.1-0.5-0.8-0.2-0.5-0.4-0.8-1.8-2.2-2.5-0.7-1.5-0.5-1.6-0.4-2.4 0.5-1.1 0.7-1 1.7-1.9 0.9-0.5 0.8 0 0.8 0.4 0.8-0.1 0.9-0.3 10.6-13.7 1.4-1.1 0.7 0.1 8.4 3.6 1.6-0.2 1-0.9 1.3-1.7 1.1-0.9 1.2-0.7 3.3-1.4 4.3-1 3.6-1.6 1.4-1.3 0.3-1.3-0.7-0.9-0.8-0.9-0.3-0.8-0.2-1.2 1.5-3.1 0.1-0.6-0.1-0.6-0.1-1 0.3-1.8 1-1 10.5-7.3 1-1.4 0-1.4-0.8-1.3-6.2-7.3-1.3-1.2-1.2-0.8-4.2-2.1-0.5-1.2-0.4-1.1 2.1-6.5 4.9 1.4 2.6-0.1 1.7-0.6 0.6-0.7 0.3-0.9 0.3-1.1 2.8-2.7 5.2-3.5 2.2-0.8 1.5-0.4 5.1 0.5 4.4 6.5 7.5 7.7 5 7 6.4 5.9 1.1 3.1 0.6 3.6 1.3 4.6 2.2 3.5 17.1 13.7 24.4 25 7.4 8.7 4.9 4.4 3.5 3.1 8.9 5.1 14.9 2.3 4.8 3.2 2.4 5.5-2.9 17.8 3.5 10.6 5.9 9.1 6.3 5.9 3.1 2 1.6 1.4 1.1 2.3 1.2 4.3 1.8 4.1 2.4 2.8 1.3 0.9z m-186.2 16l0.7-0.9 0.7-0.6 0.5 0.3 0.3 2-0.5 1.3-1 0.9-1.8 1.3-1.8 2.4-1.8 1.5-13.7 4.2-5.3 0.4-3.7-1.3 3.3-1.8 0.4-3.2-1.2-2.5-1.5 0.3-1 0-2.2-2.8 0.7-0.7 0.6-0.4 0.8-0.2 1.1-0.2 3.6-2.2 5.8-1.2 6.1 0.1 4.6 1.8-0.8 1-0.3 0.5 3.5-1.5 1.9 0.1 2 1.4z m69.6-11.6l-3.5 0.4-17-3.7-13-5-4.7-0.9-2.7-1.9-1.7-0.4-6.9-2.9 0.7-1 0.7-0.4 1.7-0.1 1.9 1.1 1.7-0.2 3.8-2.4 1 1.5 0.4-0.8 1.8-2 0 1.3 5.5-1.8 4.7 2.9 4.3 3.5 4.4-0.2-4.2-4.4-4.1-2.5-1.4-1.6 2.3 0.3 4.2-0.3 3.2 2.8 0.6-0.1 1.5-1.2 1.1-0.3 1.9 0 4.6 0.7 2 0.9 1.1 1 0.9 1.7 1.3 1.7 1.9 1.3 0.1 1-0.2 0.3-0.5 0-0.4 0.2 3 2.3 3.3 1.3 3.6 0.6 15-0.1 2.5-1.4 2.1 2.1 2.8 0.9 9.6 0.5 9.2 2.4 14-0.6 7 0.7 5.9 2.8-38.5 0-38.5 0z m-29.6-33.2l-12.1-7-2.5-3.2 1.2 0.8 0.9 0.8 1 0 0.1-1.4 0.5-0.2 0.7 0.2 0.8-0.2-0.8-1.5 0.1-1.4 1-1 1.8-0.5-2.1-3.7-2.1-4.9 3.2-0.2 1 0.2 6.2 2.5 29.9 1.1 18.8 5 0 1.5-2.1 0 1.6 0.8 1.5 0.5 1.2-0.2 0.9-1.1 1.4 1.1 2.9 3.4 1.7 0.5 1.3-0.2 1.2 0.4 1.1 2-2 3.9-1.1 1.2-1.2-0.7-2.8 3.8-5.1 1.2-28.5 0.9-9.9-1.4-9.7-3z m-16.8-13.1l-2.4 2.7-4.2-1.1-10.3-6.5-7.6-3.2-3.9-0.6-0.1-0.9 0.2-0.3 0.4 0 0.4-0.2-1.5-1.3-0.4-1.5 0.8-1.2 2.2-0.5 8.8 0.7 3.2 1.8 0.7 3.4 4.2-0.5 2.9 2.4 2.8 3.7 3.8 3.1z m-12.5-34.2l3.7 1.3 6.3 2.4-0.7 1.3-5.8 0.6-7.9-1.4-2.2 0.2-1.3 0.7-1.9 0.5-2.5-0.4-1.9-0.7-1-0.8 0-1.1 1.1-0.5 0.7 0.1 1 0.2 2.1 0.3 1.3-1.1-0.6-1.7 2.5-1 7.1 1.1z" id="HR17" name="Splitsko-Dalmatinska">
  </path>
  <path d="M473.1 82.2l0.3 0.1 2.5 1.8 3.1 0.3 1 0.7 0.8 0.9 1.7 2.2 0.3 0.6 0 0.5 0.1 0.7 0.2 1 0.3 1.1 0.7 1.8 0.7 0.8 0.4 0.4 0.4 0.2 18.9 4 5 0.1 10.7-3.4 1.4-0.3 1.6 0.5 17.7 1 3.8 1.3 2.1 2.3 1.4 0.9 0.4 0.4 0.3 0.4 0.2 0.8 0.1 0.9-0.2 1.2-0.4 1.3-1.1 2.1-0.8 2.7-1.4 2.1-2.6 2.3-5.6 3.8-3 1.5-1.9 0.6-0.5-0.3-0.5-1.5-0.5-0.7-0.8-0.2-2.6 0.2-5.5 2-14.8 9.2-0.5 0.7-0.4 1.6-0.5 1-0.9 0.9-1.9 0.8-4 0.9-0.8-0.1-0.4-0.3-0.3-0.5-0.3-1-0.3-0.3-0.3-0.2-0.6 0.2-5.4 4-0.7 0.4-0.8 0.1-2.2-0.3-0.5 0.1-2.4 0.7-0.5 1.1-0.1 1.7 1.1 4.4 0.4 2.5-0.4 8.1 1 3.9-4.7 1-2.6 1.5-1.7 0.2-1.1-0.1-0.4-0.3-0.9-0.9-0.5-0.8-0.5-1-0.7-2.8-0.4-0.9-2.4-4-1.1-11.4 0.2-1.8 0.1-1.9 0.7-3 0-1.2-0.1-0.8-0.1-0.3-1.1-2-0.7-1.6 0-1.3 0.8-2.8-0.3-0.7-0.5-0.3-2 0.1-1.1-0.2-0.9-0.7-0.8-1.6-0.6-1-1-1-0.9-0.1-1.1 0.6-0.7 1-1.3 2-0.7 1-1 0.6-0.8 0.4-2.9-0.1-2.2-1-1.4-0.1-1.1 0-2.2 0.6-2.4 0.1-2.2-0.1-1.1 0.1-1 0.3-1.8 0.8-1.3 0.1-1.8-0.3-4.3-1.5-1.3-0.3-2.1 0.1-1.4-0.1-0.8-0.4-0.4-0.8-0.2-1.1-0.4-1.6-0.7-0.9-0.9-0.6-6.6-2.2-1.2-1.1-0.6-1.2 0-1.8-0.3-1.9-0.4-1 0.3 0 0.4 0 5.4-3 4.6-2.6 5.2-0.9 1.7-0.5 0.8-0.2 3.2-1.6 3-2.1 1.7-1.9 0.4-0.4 1.1-3.1 0-2.9-0.3-3.2 0-4 4.8 1 0.8 0.2 1.8-0.3 1.5-1.2 1.2-1.7 1.3-1.4 1.9-0.4 1.5 0.7 0.8 0.9 2.8 2.7 2.2 1.3 2.6 0.6 1.3-0.1 5.5-1.3 3.5 0 0.8-0.7-0.1-0.5z" id="HR05" name="Varaždinska">
  </path>
  <path d="M411.4 108.8l0.4 1 0.3 1.9 0 1.8 0.6 1.2 1.2 1.1 6.6 2.2 0.9 0.6 0.7 0.9 0.4 1.6 0.2 1.1 0.4 0.8 0.8 0.4 1.4 0.1 2.1-0.1 1.3 0.3 4.3 1.5 1.8 0.3 1.3-0.1 1.8-0.8 1-0.3 1.1-0.1 2.2 0.1 2.4-0.1 2.2-0.6 1.1 0 1.4 0.1 2.2 1 2.9 0.1 0.8-0.4 1-0.6 0.7-1 1.3-2 0.7-1 1.1-0.6 0.9 0.1 1 1 0.6 1 0.8 1.6 0.9 0.7 1.1 0.2 2-0.1 0.5 0.3 0.3 0.7-0.8 2.8 0 1.3 0.7 1.6 1.1 2 0.1 0.3 0.1 0.8 0 1.2-0.7 3-0.1 1.9-0.2 1.8 1.1 11.4-2.2-0.5-0.2-0.1-0.2 0.1-0.7 0.2-2.1 1.2-0.5 0.1-0.7 0-2.2-0.7-0.7 0-0.6 0.3-0.4 0.7 0.1 1.3 0.3 0.7 0.5 0.5 0.8 0.4 0.6 0.4 0.4 0.4 0.5 0.5-0.1 0.7-0.5 0.7-2.3 1.3-0.5 0.5 0.3 0.9 0.2 0.4 1.4 1 0.5 0.5 0.4 0.6 0 0.5-0.4 0.5-1.5 0.3-0.7 0.1-0.5-0.1-0.9-0.4-0.7-0.2-0.6-0.1-0.5 0-0.3 0-0.1 0.3-0.2 0.6-0.1 1.3 0.1 0.7 0.2 0.5 0.9 0.8 0.2 0.2 0.1 0.3-0.4 0.5-0.5 0.5-4.6 1.7-2.3 0.3-1.8 1.6-2.9 0.8-19.3 10.5-1.5-0.7-0.5-1-0.1-1.2-0.2-0.6-1.7-1.6-0.6-1.5-1.5-2.7-1-0.9-1.1-0.7-9.6-2.8-2-0.9-1.3-0.7-0.9-0.4-1.2-0.1-2.7 1-2 1.5-3.2 0.6-10.8-0.9-2.7 0-0.2-4.6 1.2-4.5 1.8-2.7 0.6-2.3-0.8-1.2-1.3-2.2-1.9-1.3-4.3-1.8-1.9-1.2-1.2-1.3-3.1-3.2-2.1-5 0-5.6 2.2-6.3 2.9-5.5 0.5-0.7 2.1-2.8 3.3-1.7 2.6 0.2 11 0.8 2.9-1.9 3.2-5.3 1.6-1.2 0.5-0.4 2.4-1.2 2.4-0.6 6.9-0.2z" id="HR02" name="Krapinsko-Zagorska">
  </path>
  <path d="M485.3 160.9l11.3 3.7 1.7 0.9 2.5 3.7 1.2 1.4 0.4 0.5 0.2 0.5 0.1 0.5-0.2 0.5-0.3 1.1-0.3 1.4 0.4 0.4 0.9 0.2 2.1-0.6 1.1-0.8 0.5-0.4 0.5-1.1 0.3-0.6 0.4-0.5 0.5-0.4 0.6 0 0.8 0.5 3.9 4.1 1 0.8 5.9 3.4 0.9 0.9 0.6 0.9 0.2 0.7 0.5 0.2 0.5 0.1 1.4-0.4 0.9 0 1.2 0.8 0.7 0.6 1 0.3 1.1-0.2 4.6-1.9 2.2 1.1-0.1 2.3 0 2.1 0.6 7 0 1.4-0.3 2.8-0.8 3.2-2.2 2.8-1.2 0.9-1.3 0.5-2 0-1.2-0.6-0.5-0.8 0.1-1 0.3-1.1 0.1-1.1-0.5-0.8-0.8-0.1-1 0.7-3.3 5.4-0.4 1.6 0.1 1.8 0.4 3.3-0.3 1.2-1 0.4-5-2-4.4 0.1-1.3 0.6-1.7 2.9-2.4 1.6-6.6-7.8-1.8-3-0.3-1.4-0.5-0.5-0.5-0.1-0.4 0.2-0.3 0.2-0.2 0.3-0.7 1.5-0.2 0.3-6.3 0 0.5 1.6 0.1 1 0 1-0.1 1.3-1.2 4.6-0.5 4.4-0.1 0.3-0.4 0.5-0.6 0.4-2.9 0.9-0.5 0-1.1-0.4-2.6-1.6-0.8 0.1-0.8 0.7-2.4 3.7-0.5 1.6-0.2 2.1 1 5.9-0.6 2.8 0.8 6.5-3 6.4-2 1.9-4.2 1.7-1.6-0.3-1.3-1.1-1.1-1.1-1.1-0.7-1.1-0.4-1.5-0.2-0.7-0.4-0.5-0.7-1.3-2.1-1.5-1-1.2-0.3-0.9 0.1-1 0.4-0.5 0.5-2.6 2.9-4.4 3.6-1.1 0.5-1.5 0.2-3.3-0.4-0.8 0.4-0.4 0.7-0.1 1.1 0.2 1.2 0.3 0.6 0.6 0.3 1.4 0.5 0.7 0.6 0.3 0.7 0.1 1.6 0.1 0.9 0.4 0.8 0.6 0.6 2.6 2.1 0.9 1.2 0.4 1.2 0 3.2 0.2 0.9 0.6 0.7 0.3 0.4 0.3 0.7-0.3 0.4-0.4 0.2-2-0.2-1.9 0.4-1 0.7-4.3 5.2-1.4-1.4-0.7-0.4-1.2-0.4-1.5-0.1-1.2 0.2-1.2 0.9-1.2 1.3-2.2 0.6-6.4-0.5-1.3-2.1 0.1-2.6 0.1-0.8-0.1-0.7-0.8-1.8-3.2-3.6-4.3-0.8-0.4-0.2-0.6-0.6 0.1-0.7 0-0.8-0.2-0.7-0.5-0.5-0.6-0.4-0.9-0.2-2.2 0.9-4.2 4.9-2 0.6-1.6 0.2-0.8-0.2-0.6-0.4-3-4-0.8-0.9-2.3-2-0.2-1.1 0.5-0.9 0.8-0.8 0.6-1 0.1-1.1-0.8-4.1-0.2-0.4-0.3-0.1-1.5 1.6-0.4 0.3-0.7 0-1-0.4-1.8-1.2-1.4-0.7-1.5-0.5-4.1-0.8-5.7-3.6-0.9-0.4-1.3-0.2-1.8 0.2-1 0.6-0.8 0.8-0.5 0.6-1.5 2.6-1.2 0-1.6-0.7-4.1-3-2.6-2.9-0.3-0.8-0.1-0.6 0.1-0.7 0.2-0.7 0-0.5-0.9-0.6-5.2-2.6-1.6-1.4-2.3-2.4-1.2-2-0.7-0.8-0.8-0.5-1.5-0.3-5.9 1.1-2.8 3.3-2.2 1.3-2.5-2.9-0.5-0.4-0.6 0.3-1.8 0.5-0.7 0.6-0.2 0.9-0.7 0.4-2-0.7-1.3-1-0.8-1.1-1.6-3-1.5-1.5-1.1-0.5-0.3-0.9 0.2-0.5 0.8-2.1 1.3-1.5 6.2-3.5 4.2-1.4 15-5 0.1-0.1 1.8-1.4-0.2-2.1-0.7-2.3 0.8-2.1 1.7-0.8 1.7 0.2 1.7 0.6 1.7 0.3 0.1 0 1.5-0.6 2.9-2.4 1.5-0.7 4 0.7 5.8 1 6-0.2 3-0.9 3.1-1.7 1.6-2.2-0.1-3.1-1.8-4.5-0.7-2.8 0.6-2.7 1.1-2.6 0.8-2.7 0.2-3.7-0.2-6.8 2.7 0 10.8 0.9 3.2-0.6 2-1.5 2.7-1 1.2 0.1 0.9 0.4 1.3 0.7 2 0.9 9.6 2.8 1.1 0.7 1 0.9 1.5 2.7 0.6 1.5-4 2.3-8 1.8-2.2 0.1-2.8-0.1-1.3 0.4-0.6 0.8 0.1 1.1 0.3 1.3 0.2 1.6-0.2 1.5-0.8 1.6-1.2 0.7-3.8 0.7-1.1 0.5-0.5 0.4-0.1 0.7 0 0.7-0.7 3.3 0.3 0.5 0.9 0.7 5.6 0 1.9 1.7 3.8 5.2-1.7 2.6-3.5 4.9 3.1 4.5-3.1 6.8-4.8-3-1.2 2.7-0.6 2.2-0.1 1.2 0.1 1.1 0.2 0.7 0.2 0.4 0.7 0.8 1.1 1.2 4.3 3.2 9.5 4.3 1 0.7 1 0.7 0.6 0.9 0.5 0.9 0.3 1 0.5 1 0.6 0.8 2.7 1.7 2.7-4.5 1.1-11.3 3.2-5.1 18.9-12.4 7.5-7.7 0.5 0.1 4.4 2.8 2.6 1.1 0.4-0.2 0.4-0.7 0.4-1.8 1.1-2.3 0.1-0.3 0.3-1.5 0.3-2 0.2-0.6 0.2-0.5 2.4-2.7 0.3-0.5-0.3-1.3-0.9-1.9-5.6-7.7-0.9-1.7-2.1-6-4.1-8.2 4.6-1.7 0.5-0.5 0.4-0.5-0.1-0.3-0.2-0.2-0.9-0.8-0.2-0.5-0.1-0.7 0.1-1.3 0.2-0.6 0.1-0.3 0.3 0 0.5 0 0.6 0.1 0.7 0.2 0.9 0.4 0.5 0.1 0.7-0.1 1.5-0.3 0.4-0.5 0-0.5-0.4-0.6-0.5-0.5-1.4-1-0.2-0.4-0.3-0.9 0.5-0.5 2.3-1.3 0.5-0.7 0.1-0.7-0.5-0.5-0.4-0.4-0.6-0.4-0.8-0.4-0.5-0.5-0.3-0.7-0.1-1.3 0.4-0.7 0.6-0.3 0.7 0 2.2 0.7 0.7 0 0.5-0.1 2.1-1.2 0.7-0.2 0.2-0.1 0.2 0.1 2.2 0.5 2.4 4 0.4 0.9 0.7 2.8 0.5 1 0.5 0.8 0.9 0.9 0.4 0.3 1.1 0.1 1.7-0.2 2.6-1.5 4.7-1z" id="HR01" name="Zagrebacka">
  </path>
  <path d="M158.3 352.3l-0.1 0-3.5-1.5-0.7-0.8-0.6-1.4-0.2-1.4 0-1.9 0.2-2-0.1-5.2-1.2-12.1 0-3.7 0.1-1.4 0.4-1.2 1.4-3 0.6-2.3 0-1.6-0.2-2.3-1.5-6.5-0.3-2.3 0.1-1.6 0.4-1.1 0.4-1.3-0.3-0.7-1.4-1.1-8.2-4.8-1.4-1.5-1.4-2.2-0.6-1.7-0.1-1.2 0.1-1.9 0.4 0 4-0.7 7.3-3.4 3.9-1.2 3.4 0.8 6.1 2.7 7.2 1.4 7.1-0.7 5.9-3.3 2.8-2.7 6.1-4.4 2-3.7 0.8-3.2 0.6-4.9 0.2-1 0.9-2.8 1.5-2.1 3.8-4.4 1.7-2.3 1.9-4.5 1.2-1.3 0.8-0.3 1.8-0.8 1.7 0.9 0.3 3.4-0.2 4.1 0.2 2.9 1.4 2.8 2 2.1 5.3 4.2 1.1 0.5 0.9 0.6 0.1 0 0.9 1.2 0.3 1.7-0.6 3.9 0.1 1.1 3 2.6 14.3 6.3 0 0.1 0.1 0 1.3 3.5 1.1 2.6 6.4 1.4 6.6-2.4 2.9-5.1 0.6-4.7 2.8-0.1 3.5 2.3 2.7 2.5 2.2 0.3 1.4 0.2 1.7 0.8 1.5 1.4 7.5 0.2 1.6 1.3 11.2 9.6 7 1 6.4-2.4 0.4 0.8 0.6 1.6 0.3 1.6 0 1.1-0.1 0.9-0.2 1.2-0.5 2.1-1.3 4.2-0.6 1.1-1 1.1-3 2.5-0.8 1-0.4 0.7 0 0.7 0.1 1.9-0.5 1-1 1-4.9 2.1-0.5 0.4-0.6 0.9-2 3.5-0.3 0-0.6-0.2-1.3-1.1-0.3-0.8-1.1-1-1.7-0.9-4.4-1.5-1.8-1.1-1.2-1-0.9-0.1-0.7 0-5.4 3.6-0.9 1.7-0.8 2.7-0.2 1.2-0.2 0.8-0.2 0.3-0.4 0.4-0.6 0.5-0.3 0.8 0 1.2 0.9 2.2 0.7 1.3 0.4 1.2 0.4 1.2-0.6 4.3-0.2 11.4-0.3 0.9-0.5 0.7-0.4 0.4-0.8 0.4 0.1 1.1 0.3 0.7 5.7 5.7 3 5.8 0 1.2-0.1 1.5-0.6 1.7-0.6 0.7-0.9 0.3-2.7 0.2-4.3-0.4-2.4 0.4-0.7-0.2-0.4-0.3-0.8-0.9-0.8-0.2-1.2 0.3-5.6 3.5-0.4 0.6-0.2 0.7 0 2.9-0.7 1.4-0.1 0-3.8-8.9-0.6-3.7-1.5-2.6-2.4-1.8-9.4-5.1-16.7-13-7.8-10.4-2.2-1.2-2.6-2.7-1.1-3 2.1-2.1-1.8-1.8-5.6-4.2 2.8 3.3 0.5 0.4-0.6 1.7-1.3 1-1.6-0.1-1.3-1-2.1-2.4-16.7-8.5-5.9-1.4-2.8-1.5-2.5-0.5-2.8 2.2-3.2 5.1-2.9 6.7-2 7.5-1.7 15.1-2 7z m32.5 127.8l12.4 13.4 1.2 4.3-3.4 0.4-4.2-4-5.1-6.7-2.1-1.5 0-1.5 3.3 1 1 0.5-4.3-5.6-2.4-2-2.8-1.2-1.1 2.2-1.6 0.8-1.8-0.4-1.8-1.3 0-1.3 1 0 0-0.1-0.2-0.5-0.6-1.1 2.8-3.4-1-4.3-4.1-7-0.8-2.9-1.1-6.7-0.2-3.7 3 2.1 3.9 1.8 2.6 2.8-1.1 5.1 0.7 1.9 0.7 3.4 0.7 5.9 0.9 2 5.5 7.6z m45.4-45.9l0 1.6 0.3 1.1 1.8 1.7-2.1-1.4-2.4-0.7-2.3-0.1-1.7 0.6-6.4-7.3 2-0.1 1.9 0.1 1.8 0.5 1.7 0.9 0-1.4-0.5-0.7-0.2-0.5 0-0.6-0.3-1.3 2.6 2.2 0.6 0.9 1.1 0-2-4.3-1.3-1.8-2.1-1.4-0.3-0.7-0.7-2.3 3.3 0.5 3.1 1-0.5-0.9-0.6-2.2 2.9 0.3 2.2 1.6 0.5 2.2-2.4 2 0 1.3 1.1 0.8 6.1 6 3.7 2.2 1.7 1.6 4.4 7.4 1.2 4.4-1.4 3-4.4-3.8-7.4-8.5-5-3.9z m-34.9 25.1l-0.9 1.9 0.1 1.8 1 0.6 1.9-1.2 1 2.9-1 1.6-1.1 1.2-1.1 0.6-1.7-0.3-4.5 0-7-7.9-5.1-11 0.4-9.6-0.7-0.2-0.4-0.3-0.4-0.4-0.6-0.4-1.4 0.9-0.9-1.6-0.6-2.9-0.2-7-0.3-2-0.7-0.8-1.7-0.2-2.4-2.9-2.5-13-3-3.2 0.1-1 0.2-0.6 0.8-1.4-1.4-3.9 1.4-0.7 3.6 1.5 1.1 0.9 2.8 4.2 1.4 1 2.7 0.1 1.6-0.2 0.9-1.3 0.6-3.1-0.5-1.2-0.7-3.4 0.2-2.2 2.1 2.4 1.1-1.5-3.1-2.9-2.2-3.8-4.7-13.2-0.9-1.7-8.2-9.9-1.3-2.7-0.2-3.2 1.7-4.5 1.7-3 2.2-2.2 2.8-0.7 3.7 1.4 1.2 2.5-0.5 8.8 0.4 5.2 1 3.9 2.8 8 3.7 7.7 0.9 1.2 2 1.7 3.5 0.5 1.9 0.9 1.2 2.7-0.4 3.8-1.3 3.9-1.7 3 1.2 1.5-1.5 3.8-0.2 3.1 0.5 7.1 2 6.4 0.3 3.6-2.3 1.3 0.8 2.4 1.9 3.2 0.6 1.7 0.1 2.3-0.9 2.7-0.3 2.7 1 4.7 2 3.4 2.4 3 2 3.5z m32.2-61l-2.6-0.7-7.5-5.1-4.4-1.8-0.7-1.6-0.1-3.4 0.4-7.8-0.9-1.8-2.7 1.4 0 1.5 2.1 1.6-4 0.3-12.3-1.9-3.9-1.3-3.9-3.1-3.3-4-2.1-3.6 1.3-1.9 1.3-0.9 1.4-0.2 1.8 0 0.6-1-0.1-2 0.2-2.1 1.4-0.9 5.8-0.1 2.5-1.3-1.4-3 2-3 0.8-1.8 0.4-1.8-0.4-1.7-0.5-1.6 0.1-1.7 1.7-1.9 0.3-2.4-0.1-1.9-0.8-1.2-1.5-0.4 2.3-2.5 2.2-0.2 5 2.7-1.6-0.1-0.5 0.1 0.3 1.6 0.5 1.3 0.6 0.9 0.7 0.8 2.3 4 2 4.9-4.1 2 2.4 1.6 4.8 0.5 3.3-1.1 0.9 4-1.9 7.7 1 4.6 2 2.1 2.7 0.9 6.9 0.1-0.1 6.2 9.2 8.6 2.3 6-0.9 0-1.8 1.3-1.9 0.5-2-0.5-1.7-1.3-2.1 1.6 0 1.4 2.1 1.8-0.6 1.4-2.3 0.9-2.9 0.3z m-73.7 61.2l3.3-3.9 2.3 0.4-0.1 2.1-0.9 1.3-2.1 0.5-0.2 0.3-0.3 0.3-0.1 0.8 0.3 1.1-0.4 1.2 0.1 1.1 0.4 0.7 1 1.9 0.8 2.7-1.1 0.3-1.8-1.2-1.9-0.6-1.1-1.4 0.1-1.9 0.3-1.6 1.4-4.1z" id="HR08" name="Primorsko-Goranska">
  </path>
  <path d="M360.3 628.2l4.3-4.3 3.5 2.1 4.8 4.5 0.7 0.4 0.8 0 0.8-0.5 5.3-4.6 0.5-0.4 0.6 0 3.4 2.8 3.1 1.6 0.9 0.1 1-0.2 1.1-1 0.6-1.1 0.3-1.1 0.1-1.2 0.2-0.6 0.4-0.7 0.8-0.5 1.3-0.7 1-0.9 0.8-1 0.5-1 0.3-0.8-0.1-0.4-0.2-0.4-1.8-1.9-0.3-0.7 0.1-0.5 0.8-1.1 0.5-0.3 0.7 0 2.2 1.2 0.8 0.3 3.2-0.6 1.9 0.1 5.5 2 0.5 0.4 3.1 3.4 0.5 0.4 0.4 0.2 0.4 0 0.6-0.3 1-0.9 3.1-3.5 1.2-0.9 1.3-0.9 1.1-0.4 5.6-1.2 0.8-0.5 0-0.7-0.3-1.7-0.1-0.7 0.2-0.7 0.3-0.7 0.5-0.6 0.4-0.3 0.5-0.2 1.6-0.3 0.6-0.3 0.3-0.2 0.3-0.6 0.1-0.6-0.2-0.7-0.7-1.3-0.1-0.5-0.1-0.5 0-0.2 0-0.2 0.1-0.2 0.2-0.6 0.7-1.2 0.5-0.5 1-0.3 3.8 0 3 0.6 0.7 0.1 0.6-0.1 0.9-0.4 1-0.6 4-3.8 1.7-0.2 1.1 1.7 0.2 1-0.1 0.9-0.1 0.5 0 0.6 0.1 0.6 0.1 0.3 0.1 0.2 0.1 0.2 0.3 0.9 0.1 0.5 0.3 2.8-0.1 1-0.2 2.1-0.1 4.3 0.1 1.7 0.9 1.8 1.6 1.9 3.3 1.4 2.8 0.5 3.3 0 11.1-3.3 1.6-1.2 0.8-0.4 0.9 0 1 0 1.4 0.6 0.6 0.4 1 2.2-2.1 6.5 0.4 1.1 0.5 1.2 4.2 2.1 1.2 0.8 1.3 1.2 6.2 7.3 0.8 1.3 0 1.4-1 1.4-10.5 7.3-1 1-0.3 1.8 0.1 1 0.1 0.6-0.1 0.6-1.5 3.1 0.2 1.2 0.3 0.8 0.8 0.9 0.7 0.9-0.3 1.3-1.4 1.3-3.6 1.6-4.3 1-3.3 1.4-1.2 0.7-1.1 0.9-1.3 1.7-1 0.9-1.6 0.2-8.4-3.6-0.7-0.1-1.4 1.1-10.6 13.7-0.9 0.3-0.8 0.1-0.8-0.4-0.8 0-0.9 0.5-1.7 1.9-0.7 1-0.5 1.1 0.4 2.4 0.5 1.6 0.7 1.5 2.2 2.5 0.8 1.8 0.5 0.4 0.8 0.2-0.1 0.5-0.8 0.6-2.6 1-1.5 0.4-1.2 0.5-0.6 0.7 0 1.3 0.5 0.7 0.8 0.5 0.8 0.4 0.4 0.3 0.1 0.5-0.8 0.5-3.3 0.1-1.7 0.3-0.9 1.1-0.8 0 0 1.4-1.8-1.3-3.5 0.1-1.1-1.7-0.1 0.4 0 0.6-0.2 0.5-0.7 0 0.3-2.4 0.8-0.4 1.2 0.1 1.4-0.9 0.5-1.4-0.4-1-0.3-1.1 0.8-1.6-2.5 0.3-1 0.3-0.8 0.8-0.5-2-1.3-1.1-3.5-1.2 2.6-0.3 0.3-1.4-1.3-1.4-2.7 0.1 0-1.4 0.7-0.4 0.8-0.7 0.7-0.5-1.6-1.1-0.6-0.3 1.1-1.3-1.1-1.5 1.1-1.5-1-3.2 1.7-1.2 5.6 0.1 0-1.6-6.9-1.4-2.5 0 1.8-1.2 1.5 0.1 1.3 0.7 1.2 0.4 1.6-0.6-0.3-1.4-1.3-1.5-1.6-0.9 2.1-0.8 1-1.6-0.3-1.8-1.8-1.7 0.1 4-1.3 0.2-3.7-3.2-2.2-1.9-1 0.1-1.4-0.3-1-0.4-0.9-1-2.2-3.4-1-1.2-6.2-3.6-1.8-1.7-3.2-1.1-10-0.8-2.1-2.4-1.6-4.8-3.6-1.7-4-1.1-2.4-3.2 4.6 2 2.5 0.6 2.4 0.3 0-1.6-0.9-0.4-0.6 0-0.4 0.3-0.1 0.1-4.2-3.6-9.9-5-4.2-3.6z m20.3 48.7l9.5 4.3-9.1-2.7-1.5 0.6-1.3-1.7-6.7-5-2.5-1.2 1.2-1.6 0.6 1.1 0.7 0.4 4.7 0.5 1.7 1.6 1.3 2 1.4 1.7z m-64.3-46.7l0.8 2.2 11.7 9.6 1.8 2.4 2 2.2 4.4 3.8-1.3-0.9-9.1-4.2-2.9-2-3.2-4.2-4.2-3.1-2-1.9-2.3-2.9-0.8-2.6 2-1.3 3.1 2.9z" id="HR15" name="Šibensko-Kninska">
  </path>
  <path d="M277.3 359l18.1 4.1 5.2-0.3 3.9-3.9 0.9-0.6 0.6 0.3 0.8 1 0.5 0.9 0.7 1.1 0.9 1.1 1.3 1.2 0.6 0.6 1 1.5 0.7 0.8 0.9 0.7 20.7 12.8 0.5 0.5 0.6 0.8 3 6.9 0.7 1.3 1.8 1.9 3.1 2.5 0.8 0.8 0.4 1 1.2 3.9 0.5 1.3 0.9 1.3 0.6 0.5 0.7 0.3 0.6 0 2.4-0.3 1.9 0.3 1.1 0.5 0.7 0.7 0.3 0.8 0.4 0.9 1 1.1 6 5.1-1.1 4.2-1.9 2.1-3.1 2.3-0.3 0.6 0.1 0.6 0.9 1 2.4 1.8 2.5 1.2 1.8 1.4 0.9 0.4 2.5 0.6 0.6 0.6 0.2 1-0.4 1.6-0.4 0.7-0.5 0.5-4.3 2.7-1.5 1.4-1.7 0.7-1 0.6-0.8 0.8-1.1 0.5-1.2 0.2-5.5 0-1.1 0.3-0.5 0.8 0.1 1.9 0.5 1.8 1.5 1.8 1.1 1 2.6 1.8 1 0.8 0.9 1.4 0.8 2 0.7 3.3 0.2 4.1 0.4 1.5 2.3 2.5 0.7 1.2 0.9 4.5 0.4 1 0.1 0.7-0.1 0.5-0.4 0.8-0.5 0.8 0.1 0.9 0.6 1.4 9.3 8.7 2.2 3 2.5 7-7.9 5.9-1.2 1.3-0.5 1 0.4 1.1 0.7 0.9 0.5 0.5 0.7 0.4 0.8 0.3 0.7 0.4 0.3 0.6 0.2 0.8 0.2 0.8 0.4 0.6 0.6 0.4 0.5 0.4 0.6 0.4 0.2 0.8-0.1 1.5-0.6 2.1-1 2.5-1.3 2.3-2.5 3.2-1.6 1.7-2 0.8-1.5 0.2-1.3 0.5-0.7 0.5-1.2 3.6-5.1-6.3-1.6-1.7-1.2-0.3-11.8-1.1-1-0.3-0.9-0.4-0.7-0.6-2.3-2.6-3.4-3.1-1.9-1.1-1.1-0.4-1.2 0-1.3 0.4-1.2 1.5-0.7 1-3.3 7.6-0.1 0-21.3-22-7.3-10.1-4.3-4.8-4.3-2.1-0.6-1-5-4.1-1.3-0.1-0.9-1.9-15.4-24.2-2.7-7.2 1.8-2.7-0.2-3.2-1-3.8-0.6-4.4-0.4-12 0.4-3.8 3.3-13.7 1.5-3.3 1-4.1-1.1-5-5.1-11.8 0.1 0 0.7-1.4 0-2.9 0.2-0.7 0.4-0.6 5.6-3.5 1.2-0.3 0.8 0.2 0.8 0.9 0.4 0.3 0.7 0.2 2.4-0.4 4.3 0.4 2.7-0.2 0.9-0.3 0.6-0.7 0.6-1.7 0.1-1.5 0-1.2-3-5.8z m-20.1 122.5l-1.7-1.5-16.1-19.9-2.8-4.8-1.5-4.9 0.7 0 0.5 0.4 5.9 6.9 10.1 14.9 5.9 4.6-0.5-6.4 3.6-0.2 5.3 3.4 4.3 4.5 3.5 5.8 2.3 2.3 5.7 1.8 1.7 2.5 1.5 3.3 2.1 3.6-3-0.5-4.3-3.6-3.2-0.3 0.7-2.3 0.4-0.8-6.4-3.7-3-1.2-1.7-1.3-2.1-1-2.7 0 0 1.4 8.5 4.7 12.6 18.2 7.5 5.2-2.5-2-2.4-2.9-2.1-3.7-1.5-4.6 6.4 3.2 14.4 15.2 3.4 2.2 2.2 2.5 4.4 4 2 2.3-3 0.8-3.6-2.1-3.8-2.9-3.4-1.7 0 1.5 2.8 0.6 2.7 1.8 2.3 2.4 1.8 2.6-3.2 0 0.3 1.2 0.4 0.7 0.6 0.5 0.8 0.5-3.3-0.9-6.8-3-3.7-0.4 0 1.4 6.4 4.5 0 1.3-3.5-0.8-3.2-1.9-2.7-2.8-2.2-3.3 0-1.3 2.1 0 0-1.6-1.3-0.8-0.7-0.9-1.3-2.7 1.7 0.1 1.1-0.3 0.8-1 0.7-1.6-3.9-2.6-1.3-0.5-1.5 0.2-2.4 1.4-1.4-0.1-1.6-1.9-2.7-5.7-9.5-8-1.4-0.3-8.1-4.9 0-1.3 0.9-0.3 1.5-0.9 0.9-0.4-1.9-3.6-4.4-6.5-0.1-1.8z" id="HR09" name="Licko-Senjska">
  </path>
  <path d="M605.5 195.1l21.1 14.8 0.3 1.2 0 0.9-0.1 1.7 0 0.8 0.7 1.1 1.1 1.4 2.4 1.4 1.4 1.9 0.9 0.8 0.2 0.4 0.2 0 4.6-0.9 0.7 0.3 0.7 0.7 0.5 1.7 0.2 1.2-0.1 1.1-0.8 1.6-0.2 0.8 0.4 0.8 0.6 0.9 2.9 2.4 1.9-0.1 0.8-0.5 1.3-1.3 0.8-0.5 1-1 0.6-0.2 0.9 0.1 1.4 0.4 1.1 0.7 6.3 4.5 0.5 1-0.1 3-10.4 18.2 0.9 3.9 1.3 1.9 0.4 0.7 0.1 1-0.2 1.2-1.9 6.5-0.7 1.3-0.9 0.8-1.2 0.7-1.7 0.3-2.4-0.2-5.2-1.5-2.3-0.2-15.6 2.6-1.7-0.2-1.6-1-2.1-1.7-1.3-1.4-0.8-0.6-0.7 0-1 0.9-0.7 0.9-1.5 0.8-2 0.5-3.6 0.1-2.3 0.4-4 1.3-1.8 0.3-2-0.7-2 0.2-1.1 0.3-0.9 0.4-0.9 0.1-1.4-0.3-7.3-3.5-0.6-0.4-0.5-0.7 0-1.1 0.1-1-0.3-1.1-0.2-0.7-2.3-0.8-2.2 6.3-0.4 3.3 0 0.7 0 0.5-0.1 0.9-0.2 2.1 0.5 1.8-2.6 1.6-0.8 0.2-0.5-0.4-0.8-1.6-0.6-0.8-1.1-0.5-3 0.2-1.4-0.2-1.1-0.4-1.3-1-1.1-1.2-0.9-2.1-0.1-0.8 0.2-0.6 0.4-0.1 0.5 0 0.5 0 0.5 0.2 0.5 0 0.7 0 2.7-2.8-0.2-0.9-0.8-1.2-2.2-3-1.5-2.5-0.4-0.4-0.5-0.3-1.4-0.6-0.9-0.8-1.2-2.1-0.7-1.4-2.2-5.8-0.6-0.9-0.9-0.7-3.7-0.5-1.5-0.5-1.1-0.7-1.7-2.2-0.8-0.7-10.4-5-3.2-0.7-2.8 0.1-0.8-0.5-1.5-1.4-2.3-3-3.5-2.7-1.9-0.8-1.7-0.5-1.4-0.7-1.7-1.4-1.3-0.5-1.1-0.1-0.6-0.5-0.1-1 0.5-2.7 0.5-1.6 0.6-1.3 0-1.4-2.2-2.5 2.4-1.6 1.7-2.9 1.3-0.6 4.4-0.1 5 2 1-0.4 0.3-1.2-0.4-3.3-0.1-1.8 0.4-1.6 3.3-5.4 1-0.7 0.8 0.1 0.5 0.8-0.1 1.1-0.3 1.1-0.1 1 0.5 0.8 1.2 0.6 2 0 1.3-0.5 1.2-0.9 2.2-2.8 0.8-3.2 0.3-2.8 0-1.4-0.6-7 0-2.1 0.1-2.3 0.2-9.3 0.5-3.3 2.1-4.5 1.3-3.9 1.8-3.2 1.6-2.7 2.6-1.7 2.8-1.2 1.2 0 0.9 0.6 0.6 1.2 1.1 1 0.7-0.1 0.5-0.5 0.4-0.5 1.5-1.2 0.6-0.7 0.3-0.6 0.6-2.3 0.6-1.3 0.7-0.6 0.9-0.1 1 0.1 1.1 0.3 1.1 0.5 0.5 0.6 0.4 0.7 0.4 1.5 0.1 0.9 0.3 0.6 0.4 1 0.8 0.9 1 0.8 2.5 1.4 0.8 0.7 0.5 0.8-0.1 1-1.6 4.3 0.9 1.8 2.2 1.6 6.3 3.3 2.7 1.9 1.7 2 0 1.9-0.3 2.1-0.1 1.9 0.7 1.6 0.6 0.5 0.9-0.1 2.6-1.9 1-0.4 1.2 0 2 0.2 1.3 0.9 1.2 1.4 2.1 3.3 0.9 1.1 0.8 0.8 2.2 1.7 5.3 5.1z" id="HR07" name="Bjelovarsko-bilogorska">
  </path>
  <path d="M420.7 181l1.7 1.6 0.2 0.6 0.1 1.2 0.5 1 1.5 0.7 19.3-10.5 2.9-0.8 1.8-1.6 2.3-0.3 4.1 8.2 2.1 6 0.9 1.7 5.6 7.7 0.9 1.9 0.3 1.3-0.3 0.5-2.4 2.7-0.2 0.5-0.2 0.6-0.3 2-0.3 1.5-0.1 0.3-1.1 2.3-0.4 1.8-0.4 0.7-0.4 0.2-2.6-1.1-4.4-2.8-0.5-0.1-7.5 7.7-18.9 12.4-3.2 5.1-1.1 11.3-2.7 4.5-2.7-1.7-0.6-0.8-0.5-1-0.3-1-0.5-0.9-0.6-0.9-1-0.7-1-0.7-9.5-4.3-4.3-3.2-1.1-1.2-0.7-0.8-0.2-0.4-0.2-0.7-0.1-1.1 0.1-1.2 0.6-2.2 1.2-2.7 4.8 3 3.1-6.8-3.1-4.5 3.5-4.9 1.7-2.6-3.8-5.2-1.9-1.7-5.6 0-0.9-0.7-0.3-0.5 0.7-3.3 0-0.7 0.1-0.7 0.5-0.4 1.1-0.5 3.8-0.7 1.2-0.7 0.8-1.6 0.2-1.5-0.2-1.6-0.3-1.3-0.1-1.1 0.6-0.8 1.3-0.4 2.8 0.1 2.2-0.1 8-1.8 4-2.3z" id="HR21" name="Grad Zagreb">
  </path>
  <path d="M650.2 260.3l6.4 1.2 1 0.8 1.1 0.7 0.5 0.5 0.5 0.5 0.6 0.4 0.7 0.1 0.6-0.2 0.8-0.8 0.4-0.8 0.2-0.7-0.1-1.6 0.2-0.5 0.4 0 10.7 6.1 0.9 0.2 0.6 0.4 1.8 2 1.1 1.1 5.4 3.6 8.7 2.7 1.4 0.7 1.5 0.6 6.8 0.8 1.5 0.6 0.9 0.9 0.6 1 0.3 1 0.4 0.8 0.9 0.6 1.3 0.2 1.5-0.1 5.2-0.8 2.5 0.2 1.2 0.3 0.6 0.3 0.8-0.1 0.9-0.6 5.4-4 1-1.1 1.2-1.5 1.3-2.6 2.3-6 14.6-17.7 3.9-1.5 10.5 2.2 1 0.5 0.8 0.6 1.8 1.8 0.9 0.6 2.9 0.8 1.2 0.7 1.5 2.2 0.5 1 0.5 1.2-0.1 1-1.1 1.5-1 0.6-2.1 0.8-0.3 0.2-0.2 0.5 0 0.8 0.3 4 0.4 0.4 0.5 0.2 0.6 0.1 0.7 0.4 0.6 0.7 1.3 2.2 0.7 0.7 0.7 0.4 0.7 0.2 6.6-0.2 0.4 0.2 0.4 0.3 0.4 0.4 1.7 2.4 0.6 0.6 0.6 0.3 0.7 0 1.3-0.5 0.9-0.2 6.4 0.4 1-0.2 0.7-0.5 0.4-0.7 0.1-0.7 0.1-2.4 0.2-0.9 0.2-0.6 0.4-0.3 0.3-0.1 0.5-0.1 0.6 0.1 0.6 0.4 1.6 1.7 3 2 0.5 0.6 0.1 0.8 0 1.3 0.3 0.9 0.5 0.9 1.1 1.4 0 0.5-0.4 0.4-1.7 0.2-3.4 0.2-2.4 0.6-6.7 3.1-0.3 0-1.6-0.2-3.8-1.4-1.2 0.1-1.6 0.8-8.7 6.9-0.9 0.4-3.1 0.7-3.9 0-1.8 0.7-1.8 1.3-5.2 5.2-0.7 1-2 3.6-0.8 0.9-0.8 0.5-1.1 0.2-0.6 0.2-0.5 0.3-0.5 0.4-0.4 0.4-0.4 0.4-0.4 0.4 0 0.6 0.2 0.6 1.3 0.6 1.3 0.8 0.4 0.5 0.4 0.9 0.4 1 0.4 1.8 0.4 0.9 0.4 0.7-0.2 2.2-4.1 6.8-25.1-3.8-1.4 0.2-1.1 0.3-0.9 0.6-0.7 0.6-0.7 0.8-0.4 0.6-0.2 0.6 0 0.5 0.3 0.6 0.2 0.4 0.6 0.8 0.2 0.4 0 0.5-0.2 0.3-0.3 0.2-1.4 0.2-0.3 0.2-0.4 0.4-0.2 0.3-0.3 0.6-0.3 0.8-0.6 1.2-1.7 1.9-1.6 1.1-3.3 1.3-1.2 0.2-3.7-0.4-0.9 0.2-0.5 0.4 0 0.8-0.1 2-0.2 0.7-0.2 0.7-0.2 0.7-0.3 0.4-0.3 0.4-0.5 0.3-0.8 0.3-0.9 0.3-2.1 0.1-2.6-0.4-2.6-0.8-0.5-0.5 0.4-1 1.6-3 0-0.2-0.3-0.9-2.1-3.5-0.2-0.4 0-0.5 0.2-1.2 0.1-0.8-0.1-0.6 0-0.4-0.1-0.4-0.4-0.9-0.2-0.5-0.7-0.5-1.4-0.6-3.2-0.9-2.3-0.1-4.7 0.5-2.5-0.4-4.3-1.9-4.1-2.6-2.8-2.4-5.7-6.9-2.6-2.7-13.4-9.6-5.7 0.1-7.7 3.5-2.2 0.2-1.9-0.5-1.6-1.1-2.6-0.7-2 0.4-1.9 1.1-6.8 5.6-5.7 1.3-12.6-7.9-1.6-1.4-0.4-0.8 0-0.8 0.1-0.9 0.8-1.4 0.7-1.2 0.3-0.8 0.2-1.2-0.3-1.3-0.5-0.5-0.7-0.1-0.6 0.2-2.1 0.9-1.9 0.4-2.6-4.2-0.2-0.3-1-0.9-5.2-2.6-5.5-4.5-0.5-1.8 0.2-2.1 0.1-0.9 0-0.5 0-0.7 0.4-3.3 2.2-6.3 2.3 0.8 0.2 0.7 0.3 1.1-0.1 1 0 1.1 0.5 0.7 0.6 0.4 7.3 3.5 1.4 0.3 0.9-0.1 0.9-0.4 1.1-0.3 2-0.2 2 0.7 1.8-0.3 4-1.3 2.3-0.4 3.6-0.1 2-0.5 1.5-0.8 0.7-0.9 1-0.9 0.7 0 0.8 0.6 1.3 1.4 2.1 1.7 1.6 1 1.7 0.2 15.6-2.6 2.3 0.2 5.2 1.5 2.4 0.2 1.7-0.3 1.2-0.7 0.9-0.8 0.7-1.3 1.9-6.5 0.2-1.2-0.1-1-0.4-0.7-1.3-1.9z" id="HR12" name="Brodsko-Posavska">
  </path>
 </g>
 <g id="points">
  <circle class="42.62285986201154|13.79679359147484" cx="90.9" cy="893.1" id="0">
  </circle>
  <circle class="44.27512056371755|16.74997495100489" cx="545.5" cy="542.8" id="1">
  </circle>
  <circle class="46.340446440850066|19.112520038628933" cx="909.1" cy="90.7" id="2">
  </circle>
 </g>
 <g id="label_points">
  <circle class="Medimurska" cx="500.6" cy="74.7" id="HR20">
  </circle>
  <circle class="Viroviticko-Podravska" cx="692" cy="239.1" id="HR10">
  </circle>
  <circle class="Koprivničko-Križevačka" cx="523.6" cy="151.8" id="HR06">
  </circle>
  <circle class="Osjecko-Baranjska" cx="832.2" cy="256.9" id="HR14">
  </circle>
  <circle class="Istarska" cx="111.2" cy="338.7" id="HR18">
  </circle>
  <circle class="Dubrovacko-Neretvanska" cx="670.8" cy="809.5" id="HR19">
  </circle>
  <circle class="Sisacko-Moslavacka" cx="478.2" cy="304.5" id="HR03">
  </circle>
  <circle class="Brodsko-Posavska" cx="651.1" cy="329.6" id="HR12">
  </circle>
  <circle class="Karlovacka" cx="340.2" cy="330.2" id="HR04">
  </circle>
  <circle class="Zadarska" cx="407.6" cy="554" id="HR13">
  </circle>
  <circle class="Vukovarsko-Srijemska" cx="869.2" cy="343.3" id="HR16">
  </circle>
  <circle class="Splitsko-Dalmatinska" cx="541.6" cy="687.9" id="HR17">
  </circle>
  <circle class="Varaždinska" cx="483.6" cy="116.4" id="HR05">
  </circle>
  <circle class="Krapinsko-Zagorska" cx="413.3" cy="144.8" id="HR02">
  </circle>
  <circle class="Zagrebacka" cx="479.6" cy="185.1" id="HR01">
  </circle>
  <circle class="Primorsko-Goranska" cx="243.3" cy="319.1" id="HR08">
  </circle>
  <circle class="Šibensko-Kninska" cx="437.2" cy="643.1" id="HR15">
  </circle>
  <circle class="Licko-Senjska" cx="308.3" cy="436.3" id="HR09">
  </circle>
  <circle class="Bjelovarsko-bilogorska" cx="582.2" cy="223.9" id="HR07">
  </circle>
  <circle class="Grad Zagreb" cx="426.9" cy="206.3" id="HR21">
  </circle>
  <circle class="Brodsko-Posavska" cx="683.7" cy="300.3" id="HR12">
  </circle>
 </g>
</svg>