<?xml version="1.0"?>
    
<!--********* Copyright (c) 2024 Pareto Softare, LLC DBA Simplemaps.com ***************************************
************* Free for Commercial Use, full terms at  https://simplemaps.com/resources/svg-license ************
************* Attribution is appreciated! https://simplemaps.com *******************************************-->

<svg baseprofile="tiny" fill="#6f9c76" height="613" stroke="#ffffff" stroke-linecap="round" stroke-linejoin="round" stroke-width=".5" version="1.2" viewbox="0 0 1000 613" width="1000" xmlns="http://www.w3.org/2000/svg">
 <g id="features">
  <path d="M857.6 225.9l-0.1-0.1-2.8-3.7-2.7-11.5-2.3-3.5-6.2 7-3.5-3.5 0.7-5.2-3.8-6.9-9.4-5.3-4.5 0.3-3.3 5.6-1.6 4.2-2.5 2.5-2.8-1.7-2.4-3-2.7-1.1-2.9 0-5.6-2.1-2.6-2.5-6.6-1.4-2.2-3.1-12.6-9.9 0.6-11.2 1.7-10.7-1.4-4.2-4.2-1.5-5.2 3.1-21.7 1.7-6 2.4-11.1-8.9-9.7-1.3 0.8-5.2 0.9-2.5 1.5-1.5 5.8-3.9 0.9-0.2 3.3 0.2 1.4-0.6 0.5-1.2 0.4-1.4 0.9-1 2.2-0.1 1.4 1.2 1.2 1.7 1.6 1.4 1.9 0.4 6.4-0.4-0.9 0 4.5-0.2 4.6-1.3 3.4-3.4 1.3-6.3-0.4-2.7-1-1.6-0.7-1.8 0.2-3.5 1-2.8 1.5-2.9 1.9-2.4 2-1.4 2.5-0.4 8.6 0.4 5-0.7 2.2 0 5.3 2.6 2.6 0.4 2.5-0.4 10.2-6.4 1.6-0.4 2.2-0.1 2.5-2 2.4-2.6 2-1.5 8.5-0.6 2.6-0.9 1.9-1.6 3.8-4.5 4.5-6.7 0.8-0.8 1.6-0.2 2.6 1.4 1.2 0.3 3.7-2.4 2.8-4.6 5-10.6 2.8-3.1 0.2 0 1.3-1.4 4.4-1.8 3 0.4 0.1 0.1 0.1 0.2 0 0.1 0.1 0 0.1 0.1 0.1 0.1 0.1 0.1 0.2 0.1 0.2 0.1 0.1 0.1 0.1 0.1 0.1 0 0.2 0.1 0.2 0.1 0.2 0 0.2 0.1 0.1 0 0.2 0 0.3-0.1 0.1 0 0.2-0.1 0.2 0 0.3-0.1 1.9 1 0 0.1-0.1 0.2 0 0.2-0.1 0.1 0 0.2-0.1 0.2-0.1 0.2-0.1 0.1-0.1 0.2 0 0.2-0.1 0.1-0.1 0.1 0 0.1-0.1 0.3-0.1 0.1-0.2 0.2-0.1 0.1-0.1 0.1 0 0.1-0.2 0.1-0.2 0.1-0.1 0-0.2 0.1-0.1 0-0.3 0-0.3 0.1-0.1 0-0.1 0-0.1 0.1-0.1 0.1-0.1 0.1 0 0.1 0 0.1 0 0.1 0 0.1 0.1 0.1 0.1 0.1 0.1 0.1 0.1 0 0.1 0.1 0.1 0 0.1 0.1 0.2 0.1 0.2 0.1 0.1 0.1 0.1 0.1 0.1 0.2 0.2 0.2 0.1 0.1 0.1 0.1 0 0.1 0.1 0.1 0 0.1 0.1 0.2 0.1 0.1 0 0.2 0.1 0.2 0.1 0.2 0.1 0.4 0.5 0.9 0.8 1.1 0.1 0 0.2 0.1 1.6 0.4 0.1 0 1.3 0.4 0.9 1.5 0 1.9-0.3 2.4 0.1 2.7 1.4 4.1 6.6 10.2 0.9 0.9 0.9 0.3 1-0.3 0.4 0.4 0.4 0.5 0.1 0 0-0.1 0-0.1 0-0.1 0.1-0.1 0-0.1 0-0.1 0-0.1 0.1-0.1 0-0.1 0.1 0 0.1 0 0-0.1 0.1 0 0.1-0.1 0.1 0 0.1-0.1 0.2-0.1 0.1 0 0.1 0 0-0.1 0.1 0 0-0.1 0-0.1 0.1 0 0-0.1 0-0.1 0-0.1 0.1-0.1 0-0.1 0.4 0.1 2.6 1 2.1 0.5 2.1-0.2 2.2-1.1 0.1 0.1 0.1 0 0-0.1 0.1 0 0-0.1 0.1 0 0-0.1 0.6-0.1 0.5 0.1 0.6 0.3 9.9 13.2 1.8 4.1 1.9 6.4 1.2 2.5-0.3 0.9 0.1 0 0.1 0 0.1 0 0.1 0 0.2 0 0.1 0 0.1 0 0.2 0.1 0.2 0.1 0 0.1 0.1 0.1 0.1 0.1 0.1 0.1 0.1 0.1 0.1 0 0.1 0 0 0.1 0.1 0 0.1 0 0.1 0 0.1 0 0.2 0 0.2 0 0.2 0 0.1 0 0.1 0 0.1 0 0.1 0 0.1-0.1 0.1-0.1 0.1 0 0.2-0.1 0.1-0.1 0.2 0 0 0.2 0 0.1 0 0.1 0.1 0.1 0-0.1 0.2 0 0.1 0 0.1 0.1 0.2 0.2 0.1 0.1 0.1 0.1 0.2 0.4 0.3 0.3 0.3 0.3 0.1 0.1 0.2 0.1 0.2 0 0.2 0 0.4 0 0.3 0 0.1 0 0.1 0 0.1 0 0.3 0.1 0.3 0 0.3 0 0.3 0 0.1-0.1 0.2 0 0.2 0.1 0.2 0 0.2 0.1 0.2 0.2 0.1 0.1 0.3 0.1 0.3 0.1 0.3 0 0.4 0 0.2 0 0.2 0 0.1-0.1 0.1-0.1 0.1 0 0.2-0.1 0.1-0.2 0.2-0.3 0.2-0.1 0.2-0.2 0.2-0.3 1-0.6 2.4-0.8 2.3-1.5 2.3-0.6 2.2 1.4 0.4 1 4.8 2.7 4 3.7 1.8 2.3 1.4 2.7 0.9 3.8-0.5 2.1-0.9 1.9-0.1 1.1 0 0.1-0.4 0 0 0.2 0 0.1 0.1 0.3 0 0.2 0.1 0-0.2 0.2-0.1 0-0.3-0.2 0 0.1-0.1 0.1 0 0.1-0.1 0.1-0.1 0 0 0.1-0.1 0-0.1 0.2 0 0.1-0.1 0.1-0.1 0.1 0 0.1-0.2 0.2 0 0.1 0 0.1-0.1 0-0.1 0.1-0.1 0.1 0 0.1 0.1 0 0.1 0 0.1 0 0.1 0.1 0.1 0.1 0 0.1 0.1 0 0.1 0 0.1 0 0.1 0 0 0.1 0 0.1-0.1 0.1-1.2 1.5 1.1 2.5 4.9 4-2.2 2.6-3.3 6.2-2.2 2.1-5.4 2-2.1 1.5-1.5 2.7 0.1 1.7 0.7 1.3 0.2 1.4-1.1 2.3-0.8 0.5-2.9 0.3-2.7 1.3-1.7 1.3-3.3 4.3-3.9 3.5-4.9 2.1-5.1 0.7-4.6-0.7-10-5.3-4.1 1-2.2 7.8-1.5 1.5-1.8 0.7-1.9 0.2-6.2-0.9-1.7 0.1-2.4 0.9-2.5 1.4-1.5 1.6-2.9 4.4-1.1 1.1-2.2 1.6-1 1.3-0.5 1.4-0.5 3.7-0.4 1.7-3.3 4.8-0.4 1.3-0.1 1.4-0.2 1.3 0 0.3-0.7 1.5-1.1 0.8z m-40.8-81.4l-7.1-0.6 0-6-3.8-2.8-5.1 3.6-2.4-2.5-6.8 0.5-2.3 4.5-1.3 4.3-1 10.1-1 12.1 8.1 2.6 9.2 2.5 4.4 3 7.4-1.5 3.1-6.6 0.3-7.1 4.4-1 0.4-7.6-0.4-7-2.7-3.1-3.4 2.6z" id="HUSZ" name="Szabolcs-Szatmár-Bereg">
  </path>
  <path d="M674.4 484.7l0-0.1-1.6-2.4-2.5-1.9-1-3 1.1-4.8 0.2-4.6-1.5-3.7-2.3-2.9-2.6 0.3-1.2-2.3-7.1 1.9-6.7-0.1 2.4-5.3-4.3 1.1 0.1-8.1 1.3-2.5-0.8-3.9 2.9-5 1.8-6.3-4-1.7-2.1-3.9-0.4-14.6 1.8-9.2-0.4-12.5-4.3-4-6.7-1.8-10.9-3.9-2-6.5 1.4-5.7 5.3-4.6 4.7-0.5 4.5 1.2 3.8-5.4 3.9 1.1 3.1-2.7 2.1 1.4 1.6 2.3 2.7-0.6 2.5-1.8 2.2-0.4 2.1-1.4 1.4-5.9-0.7-6.4-1.3-2.5-0.1-3 5.1-6.2-0.1-2.6-0.5-1.2 1.4-2.5 2.2-1.6 8.1-10 2.6-1 2.7 0.8 1.9-1.1 1.2-2.6 1.9-0.6 1.5-2.5 1.1-2.6 3.2-1.3 1.5-2 1-2.7 2-2.7 2.6-1.3 16.6 10.9 5.7 2 6 0.7 8.8 4.3 2.7 5.7-0.1 14.2-0.3 5.6 1.7 3.1 3.2 0.9 2.5 2.5-1.2 4.8 2.5 2.5 4.5 0.9 9.3-2.6 5.6 0.1 9.2-9.3 5.7-2.8 3.3-0.8 0.3 1 1.2 0.6 1.3 0.2 0.9 0.8 1.2 2.3 0.1 0.2-0.5 0.2-2.6 9.7-1.1 1.4-6.1 5.1-0.6 0.2-0.2 0.5-0.2 2.3 0.1 2.4 0.5 2.1 0 2.1-1.1 2.5-1.4 1.2-4.9 1.4-2.8 2.6-1.7 3.2-2.8 7.9-0.6 0.9-0.5 1-0.3 1.2-0.1 1.2 0.3 0.5 0.3 0.5 0.4 0.4 3.6 2.4-0.4 3.9-2.5 3.6-2.7 1.6-3.6 0.6-1.5 2.3-0.2 0.7-0.9 2.6-2.8 3.7-2.9 1.5-4.9-0.4-2.9 0.8-2 2.4-0.8 3.7-0.5 7.5-1.7 3.6-2.3 2.9-1.9 3.1-0.3 4 3.9 7.5 0.8 4.3-3.1 2.3-5.6 0.3-2.7 0.9-2.2 2.7-1.4 4.2-0.5 8.6-1.2 3.8-1.5 2.9-1.3 1-3.9 0-0.9 0.4-6.4 7.8-2.4 1-2.6-2.3-0.9-1.1-1.1-0.6-1.1 0-1.3 0.6-2.6 0.1-5-2.2-2.4-0.5-0.9 0.3-2 1.1-1.3 0.1-1.1-0.5-2.4-2.1-1.3-0.6-2.6-0.2-2.9 0.8-1.5 0.9z m51-79.2l5.3-6.5-2.4-6.5 1.6-7.7-6.1-8.9-12.9-6-5.5 10-5.8 6.1 2.1 10 1.6 10.4 7.4-0.1 6.3-1.2 8.4 0.4z" id="HUBE" name="Békés">
  </path>
  <path d="M718.2 150.4l9.7 1.3 11.1 8.9 6-2.4 21.7-1.7 5.2-3.1 4.2 1.5 1.4 4.2-1.7 10.7-0.6 11.2 12.6 9.9 2.2 3.1 6.6 1.4 2.6 2.5 5.6 2.1 2.9 0 2.7 1.1 2.4 3 2.8 1.7 2.5-2.5 1.6-4.2 3.3-5.6 4.5-0.3 9.4 5.3 3.8 6.9-0.7 5.2 3.5 3.5 6.2-7 2.3 3.5 2.7 11.5 2.8 3.7 0.1 0.1-0.8 0.5-6.5 1.7-8.3 6.3-4 4.3-2.6 4.9 0.4 6.1 1.2 6.9 0.1 6.6-2.6 5.5-6 1.8-2.4 1.5-2.5 2.7-5.1 7.6-0.9 2.3-1.5 7.1-0.7 1.8-1.5 2.9-0.6 2.2 0 2.3 0.3 1.7 0 1.9-0.8 2.4-1.1 1.6-3 2.8-1.3 1.9-0.6 1.8-0.6 3.5-0.9 1.7-2.7 2.7-6.6 4.4-3 2.8-5.3 6.3 0.2 0.7-3.3 0.8-5.7 2.8-9.2 9.3-5.6-0.1-9.3 2.6-4.5-0.9-2.5-2.5 1.2-4.8-2.5-2.5-3.2-0.9-1.7-3.1 0.3-5.6 0.1-14.2-2.7-5.7-8.8-4.3-6-0.7-5.7-2-16.6-10.9 3.8-9.9 0.7-12.5-1.3-9.4-2.2-9.3-1.6-16.8-1.8-8-4.2-4-4.3-0.5-4.3-2-5.2-5.4-3.1-10.1 9.8-0.9 6.7-6.9 0.8-1.9 0.9-1.1 3.2-6.3 0-1.5 7.4-1.4 0-1.2-0.8-6.1 2.8-3 0.8-1.5 0.4-3.2 0-3.7-0.3-1.9 0.1-1.5 1.2-2.6 4.4-5.2 1.1-1.7 0.7-2.8 0.3-1.7z m57.9 57.7l-2-1.5 1.7-10.6-2.7 2-5.8 6.1-5.6 16.3-3 11.5 0.3 10.1 9.2 0 2.7 9.5 4.2 1.8 3.4 2.5 1.7 8.1 8.2 0 7.4-9.6 5.1-1 5.4 5.5 9.2-10.5 2.7-7.5 0.3-12.6-4.4-8-5.1-6.6-4.7 1.5-4.4 5.6-6.1 3.5-3.7-5-3.1-9.1-2.4-9.1-6.8 1-1.7 6.1z" id="HUHB" name="Hajdú-Bihar">
  </path>
  <path d="M674.4 484.7l-1.2 0.6-5.2 4.4-0.6 1.1 0.1 1.8 1.2 4.3 0 1.5-1.1 1.1-1.2-0.2-1.3-0.4-1 0.3-0.7 1.5-0.1 2.3 0 0.4-0.7 2-2.1 2.2-2.6 1.4-7.6 1.6-1-0.1-1.6-0.6-1.3-0.9-3.9-3.6-5.3-2.2-5.5-1.3-3.3 5.3-21.5 0.6-5.5 6.9-7.2-6.2-2.4-1-3.4 1.6-1 0.1-1-0.5-1.4-1.9-0.7-0.6 1.7-7 1.8-2.3 3.2 0.4 3.2 3.8 2.3 5 3.2-0.8 0.3-4.2-2.7-2.3-1.8-3.4-0.3-3 1.7-3 4.6 0.9 3.7-0.2-0.2-4.6 7.7-1.3 5.8 0 5.8 3.1 7.9 0.7 6.3-4.9 3.7-10.7 4.7-5.7 2.3-5.6 6.7 0.1 7.1-1.9 1.2 2.3 2.6-0.3 2.3 2.9 1.5 3.7-0.2 4.6-1.1 4.8 1 3 2.5 1.9 1.6 2.4 0 0.1z m-48.8-105.2l10.9 3.9 6.7 1.8 4.3 4 0.4 12.5-1.8 9.2 0.4 14.6 2.1 3.9 4 1.7-1.8 6.3-2.9 5 0.8 3.9-1.3 2.5-2.6-3.1-4.8-4.9-4.4-5.4-4.8-3.1-11.5 4.6-5.8-1.9-4.8-0.4-2.1 4.6-2.6 11.5-3.2 4.6-2.3-8.1-3-2.2-1.4 6.6 0.1 4.6 0.9 4.1 0.4 4.4 0.7 2.1 1.6 1.4-0.6 3.2 0.8 2.9-4.1 0.2-2.6-5-2.7-2.6-4.7 5.3-7.9-1.5-5.3 3.4-0.5 10.3 7.9 2.3 1.3 4.9-1.3 2.3-0.7 13.6-3.8 0.5-5.6-3.2-8.6-0.8-5.4 1.2-2 0.8-11.2 4.7-2.3-0.5-8.2-5.3-2-5.7-3.3-6.2-2.6-6.7 0.4-5.5 2.1-4.1 0.1-4.4-0.4-4.6 2.7-2 3.1-0.4 3.7 1.2 3.9-0.4 3.7-2.7 4.2-1.4 2.9 0.2 1.7-3.9 2.3-8.8-1.5-9.1-6.4-4.5-0.2-8 5.1-3.5 11.6 1.8 4.7-5.1 2.5-21.4-1.2-3.5-2.7-2.1 5.8-8.2 6.6-5.9 9.9 6.3 15.4-5.1 4.8 4.5 4.9 1.4 4.3-3.5 4.8-1.4 4.4-2.7z" id="HUCS" name="Csongrád">
  </path>
  <path d="M285.3 192l0.3 2.6 1.2 4.2 0.1 4.4-0.5 3.5 1 3.5-0.2 6.1 3.9 3.5-2.9 8 3.2 4.5-1.5 3.4-3-1.1-1.2 1.3 1.5 5.5-2.1 5.7 0 4-4.1-4.5-4.7-3.1-0.1 3.8-2.5-1.1-2.5-0.4-2.3 2.2-4.8-2.3-6.1 2.1-5.7 4.4-5.4-2.4-3.8 2.4-6.9-1-2.7 4.1-3.1 1-2.9 0-2 1.8-2.4-0.1-2.2-0.8-4.5-3.3-5 0.4-5 1.6-2.4-0.5-1.2 2.1-3.7 2.9-5.2 1.9-3.1-5.1-3.5-2.6-12.7 6.8 1.1-5.1 1.4-4.1-3.3-0.9-14.4 8.3-10.9-1.9-3.3-2.7-10.1 6.3-3.8 0.8-3.7-3.7-6.9-1.6-1.9-1.4-1.6-2.1-0.3-0.3 1.8-1.5-0.5-8 1.5-1.6 3.9-1.7 1.5-2.5 0.1-3.1-1-2.5-1.9-1.9-2.3-1.2 0.8-3.9-1.1-4-2.4-3.2-2.9-1.3-4.4 0.8-2.4-1 4.4-3.5 5.1-0.1 7.4 1.9 1-1.8-0.5-4.7 3.9-5.2 0.3 0.7 1.5 1.5 1.5 0.9 7.5 1.2 1.2-0.3 1.5-1.4 2.6-4.2 1.8-1.5 1.9 5.2 5.1 0.9 10.6-2.7 9.8-1.3 2.8-1.3-1.6-0.9-1.1-1.5-0.7-2-0.2-6.6-0.9-4-0.2-3.4 2-2.3-0.9-1.2-1.2-3.8-1.1-0.8-2.8-1.3-0.8-0.9-0.1-2.1 1.7-0.9 4.6-1.1 2.2-1.7 1.4-2 0.7-2.6 0.6-3.6-0.3-0.4-0.7-0.2-0.7-0.4-0.1-0.9 0.4-0.6 1.2-0.8 0.3-0.4 0.3-1.7 0.7-1.2 0.1-1.3-1.5-1.6 8.4-7.1 4.9-2.9 4.9 1 5.5 1.6 1.4 0.3 8.7 1.4 4.3 3.5 13.7 18.5 1.3 1.2 1.4 0.6 3.4 0.7 1.2 0.8 4.6 6.8 1.6 1.7 1.4-0.1 1.3-0.6 1.5-0.2 2 1 2.8 2 2.5 2.3 1.1 2.1 1.4 1.6 5.7 3 3 1.7 11.2 3.1 7.8-0.5z m-21.1 4.5l-6.3-1.5-13 4.5-2.6 9.9-7.8 6 4.4 6.9 2-0.6 4.7 3.2 5.3-3.9 8.6 0 5.7-2.9 8.4-5.2 1-3.7-1.5-6.6-2.8-6.7-6.1 0.6z" id="HUGS" name="Gyor-Moson-Sopron">
  </path>
  <path d="M128.9 203l-3.9 5.2 0.5 4.7-1 1.8-7.4-1.9-5.1 0.1-4.4 3.5-6.5-2.7-3.7 0.9-7.5-3.1-2.4-1.4 1.2-1.5 2-3.3 1-1 0.8 1 0.6 0.6 0.7 0.2 0.9-0.6 1.5-1.4 5.4-2.9 1.1-1.1 0.8-1.7-0.3-2.6 0.8-1.9 4.9-2.3 5.7 0.7 10.7 4.2 1.7 1.2 0.7 1.8 0.5 2.1 0.7 1.4z" id="HUSN" name="Sopron">
  </path>
  <path d="M116.9 253l0.3 0.3 1.6 2.1 1.9 1.4 6.9 1.6 3.7 3.7 3.8-0.8 10.1-6.3 3.3 2.7 10.9 1.9 14.4-8.3 3.3 0.9-1.4 4.1-1.1 5.1 12.7-6.8 3.5 2.6 3.1 5.1 6 7.5 7.5 5.2-8.9 4-1.2 1.2 0.1 3-1 2.2-1.7 1.7-1.6 4.9 1.1 5.6-0.6 9.5 2.8 20.6-16.4 4-3.7 5.2-1.5-0.4-1.5 0.3-1-1.1-0.4-1.6-3.2 0-1.8 2.8 0.6 2.4-1.1 2.1-5.6 3.3-6.2 1.4-3.2-0.5-6.2 1.4-1.5 3.6-2.6 0.2-2.9-1.1-4.7 3.4-13.4 0.8-5.1 2.5-2.2 3.6-1.6 4.6-2.4 3.6-6.1 5.7-2.7 5.1-5.7 3.8-6.3 0 1.2 6.8-6.5 10-0.8 0.8-0.1-0.1-1-0.4-0.1-3.3-1.8 0.3-1.3-1.5-1.1-2.2-1.5-2-1.9-5.6-0.3-0.7 0.2-0.8 0.3-1.4 1.2-2.1 0.6-0.9 0.9-2.2 0.7-2.4 0.3-1.7-0.5-1-2-0.1-1.2-0.6-0.6-0.8-2-2.5-1.4-0.8-12.4 1.1-5.9 0.5-0.7-0.2-4.8-1.2 2.1-1 1.7-1.6 4.9-6.7 1.5-1.6 3.4-2.5 2.8-1.2 1-0.7 0.9-1.5 0-1.2-0.1-1 0.4-1.2 1.3-1.2 1.4-0.3 1-0.9 0.6-3 1.3-2.2 1.8-0.2 5 1 5.5-0.7 2.8 0.4 2.3 1.7 0.8 0.6 0.6 0.2 0.7-0.2 0.6-0.5 0-0.1 2.2-0.4 3.5 0 2.5-0.6-0.6-2.2-1.9-1.7-1.9-0.7-3.8-0.4 1.6-1.6 6-2.4 1.5-1 0.6-1-0.5-1.1-1.6-0.8-2.7-0.9-1-2.6 0.9-2.8 2.8-1.8 3.1-4.1 0.6-2.3-1.6-2.4-2.2-0.2-4.5 2.2-1.8-1.2 0-1.1 1.1-3.3 0-1.8-0.9-1.2-1.2-0.2-1 0.1-0.8-0.7-0.5-3.2 2.1-4.3-0.5-3.5 4.2-2.3 1.9-1.7 0.9-2.6-0.6-3.3-4-8.6-0.4-0.3-0.6-0.3-0.6-0.3-0.4-0.8 0.1-1.1 0.6-0.6 0.7-0.3 0.2-0.6-0.3-7.6 1.4-2.5 1.6-0.5 1.8 1.3 1.6 2.6 14.4-6.6 5.1-3.9z m4.3 31.4l-3.5-0.8-8.6 3.1-1.6-1.3-3.4 0-0.6 2.3 1.5 5 1.6 6.9 2.8 8.9 4 3.3 3.8-3.5 3.1 0.4 3.7 0.8 0.3-6.1 1-4.4 0.9-5.3-2.9-9.5-2.1 0.2z" id="HUVA" name="Vas">
  </path>
  <path d="M577.1 380l-6.6 5.9-5.8 8.2 2.7 2.1 1.2 3.5-2.5 21.4-4.7 5.1-11.6-1.8-5.1 3.5 0.2 8 6.4 4.5 1.5 9.1-2.3 8.8-1.7 3.9-2.9-0.2-4.2 1.4-3.7 2.7-3.9 0.4-3.7-1.2-3.1 0.4-2.7 2 0.4 4.6-0.1 4.4-2.1 4.1-0.4 5.5 2.6 6.7 3.3 6.2 2 5.7-2.9-1.9-2.8-0.9-2.9-0.1-7.8 1.5-2.8-0.1-2.5 0.5-3.3 1.5-3.1 2.1-2 2.2 0.3 1.5 1 1.8 0.3 1.6-3.5 1.9-1 1.3-0.6 1.5-1 1.3-2.3 1.9-1.1 0.4-1.5 0.3-1.7 0.8-1.1 1.6-1 2-1.3 1.5-2.3 0.8-4.9 0-2.5 0.5-1.1 0.9-1.6 1.2-1 2.4-0.6 2.3-1.5 2-3.7 0.7-11.8-1.2-2.9-1.8-2-3.8-3-1.2-3.1 1.4-2.1 3.6-0.2 5.7-2.4 0.7-3.4-0.5-3.1 2.3-0.5 0.7-0.1 0.7 0.2 0.7 1 1.6 0.3 0.9-0.2 0.6-0.7 0.4-2.6-1.2-8.2-0.7-2 0.2-1.3 1.5-1.5 0.9-2.7 0.8-2.3 1.6-0.8 0-2.8-2.8 3-3.9 1-5.9 1.8-3.7 1-4.1-0.9-2.8-0.1-4.6-2.2-4.7 0-2.7-0.9-2.1-2.4-0.4-2.4 0.2 3.1-1.6 2.7-2.9-3-1.6-1.6-3.8 1-2 2.1 1.1 2.1-1.2 2.7-6.1-0.9-2.3-1.6 0.5-1.6-0.7-0.4-1.1 0.5-1 2.4-1.6 7.6-1.7 2.1-2.2-0.1-16.5-0.5-2.4-1.9-3.8-0.5-3.1 0.9-6.9 3.2-10.6-0.3-5.9-1.7-6.4-4.1-11.6-2.5-4.6 3.6-4 9.1-4.1 3.8-3.9 2-3.6 0.7-2.7-0.4-2.8-1.3-4.4-0.2-1.7-0.1-2.2-0.3-2-0.8-0.9-0.4-0.7-2.3-3.3-0.5-0.6-0.5-0.7-2.4-2.6-0.7-1.3-0.2-1.6 0.1-2.6 0.1-3.2 0.4-2.4 1.1-2.9 1.3-2.3 1.3-1 1.1-1.7 0.1-3.6-0.9-8.2-0.7-3.4-0.1-2 0.3-1.3 0.7-1.1 0.6-1.3 0.2-1.8 2.9-6.6 6.3-0.4 6.2-1.8 10-8.1 14.4-6.5 4.9 1.3 3.8 4.1 0.6 5.7-3.2 5.2-1 5.5 2.7 4.2 3.9-1.3 3-5.8 3.8-2.5 4.1-1.6 1.6-2.8 0.3-3.9 1.9-2.5 9.2 1.4 5.1 5.1 7.4 12.3 3.1 3.1-2.7 3-6.8-3.5-1.9 3.5-0.8 4.6 2.4 6.2 2.6 7.3 4.5 8.1 3.2 11.1 5.2 4.2 4.2-8 0-8.9 4-6.1 4.7 0 4.2-3.1 0.3-5.3 2.6-0.2 2.3-3.1 3.8-3.6 4.2-1 4 3 4.2 1.5 5.6-6.8 3.8-2.7 3.9-1.8 4.5 2.7 4.9 5.4-4.6 3.4-0.8 1.6 0.8 1.6 2 0.6 2.1 0.4 1.6 0.7 0 1.2-2.4 3.6-1.3-0.2-2.4-2.1-3-0.3 0 3.1 2.7 1.7-2 3.7-4-0.3-4.6 1.8-2.9 4.3 0.8 0.4-1.9 5 0.6 2.7 1.8 1.5 2.6-0.6 3.5 1.2z" id="HUBK" name="Bács-Kiskun">
  </path>
  <path d="M605 485.5l0.2 4.6-3.7 0.2-4.6-0.9-1.7 3 0.3 3 1.8 3.4 2.7 2.3-0.3 4.2-3.2 0.8-2.3-5-3.2-3.8-3.2-0.4-1.8 2.3-1.7 7-2.2-0.6-1.3 0.2-3.4 1.7 0.7-13.6 1.3-2.3-1.3-4.9-7.9-2.3 0.5-10.3 5.3-3.4 7.9 1.5 4.7-5.3 2.7 2.6 2.6 5 4.1-0.2 1.1 2.7 0.6 2.5-1.1 2.8 3.5 2.5 2.9 0.7z" id="HUSD" name="Szeged">
  </path>
  <path d="M81.9 400.4l0.8-0.8 6.5-10-1.2-6.8 6.3 0 5.7-3.8 2.7-5.1 6.1-5.7 2.4-3.6 1.6-4.6 2.2-3.6 5.1-2.5 13.4-0.8 4.7-3.4 2.9 1.1 2.6-0.2 1.5-3.6 6.2-1.4 3.2 0.5 6.2-1.4 5.6-3.3 1.1-2.1-0.6-2.4 1.8-2.8 3.2 0 0.4 1.6 1 1.1 1.5-0.3 1.5 0.4 3.7-5.2 1.4 2.1 1.6 1.8 3.5 1.5 0.9 1.9-0.7 2.1-1.1 2-0.5 2.5 1.7 44.2-1.7 13.6 4.1 6.2 7.2-3 0.8 25.7-2.1 7-2.3 4.3-1.6 6.3-15.1 3.7-3.9-7.8-1.1-7.1-3.6-3.6-1.3-8.4-5.6 0.3-0.9 7.8-3.8 0.7 0 5.8 0.2 7.4 0.5 9.1 5.3 3.9 7 1 5.2-2.5 2.3 5-0.7 4.4-2.5 3.1-2.4 0.8-2.2 0.2-9.4 3.5-3.4-4-5.1 2-1-2.9 0.4-3.1-1.3-3.1-0.8-1.1-1.2-1.6-1.7-1.7-0.7-0.1-0.3 0.9-0.3 0.7-0.9-0.8-0.6-0.8-0.6-0.6-0.6-0.4-0.6-0.3-3.6-0.8-0.9-0.6-1 2.8-1 0-1.6-3.5-4.1-2.5-2.5-3.3-2.2-3.7-2.4-3-2.9-2-3.6-0.7-1.2-0.8-1-0.2-0.8 0.7-0.6 1.7-0.8 0-1.8-1.8-5.8-3.6-0.8-0.6-1.9-8.4-4.5-3.9-5-7.8-4.8-2.8-2.4-2-0.6-1.4-0.5-1.3 1.3-1.9 2.5-1.2 0.8-0.8 1.1-1-0.8-3.7-2-1.4-2.5-0.1-0.7-0.3z m59.6-16.6l8.6-1.7 5.1-2-2.3-15.1-6.7-6.2-10.1 1.7 0.6 12.2 4.8 3.3 0 7.8z" id="HUZA" name="Zala">
  </path>
  <path d="M176.1 453.6l15.1-3.7 1.6-6.3 2.3-4.3 2.1-7-0.8-25.7 5.1-8.9 5.5-4.5 8.9 0.5 5.5-2.8 6.9-0.9 27.3-11.6 24.1-14.4 6-1.8 5.3-5.6 3.2-2 3.5-0.9 12.9-7.3 7.3 0.6 6.7 3.1 3 7.6 2.7 5.1-0.4 1.3-0.6 1.2-0.1 11.1 0.9 5.5-6.2 2.7-1.5 0.3-1.2 1.1-1.5 3.2-1.9 2.7-0.9 2.8-0.3 3.3-2.6 5.9-1.1 7.3-0.4 7.6-4 7.8-2.5 9 1.2 8 2.9 1.7 3.9 18.4-2.6 2.3-0.9 4.2-2.6 3-15.3 1.9-12.4 16.2-4.1 3.3-6.5 0.2-6.3 2.2-3.8 4.5 0.3 11.9-2.3 6.1-7.9 4.1 3.8 11.8-2 3.9 1.5 5.8 2.9 4.6 3.8 3.5 2.2 3.9-0.4 5.6-3.2 1.7-3.6-0.3-0.2-1-0.1-2.2-0.7-2.9-0.2-1.6-1-1.8-6.3-6.7-4.9-2.2-5.7-1.2-11.5-0.6-1.1 0.7-0.4 0.7-0.5 0.6-0.7 0.5-0.9-3.1-1.4-0.6-3.2 1.2-2.7 0.2-0.4-0.5 0.2-1.8-0.8-3.3-1.4 2.5-1.4-0.4-1.3-1.1-0.3-0.3-2-0.7 0-1.3 1-0.2 1.6-0.8 1-0.2-1.2-1.6-2.2-0.3-2.1-0.8-0.9-3.3-0.3-1.9-1.7-6.2-0.7-1.8-5.4-7-1.5-0.9-10.9-0.4-2-1-6.4-4.9-1.6-1.7-0.7-2-1.1-1.5-7.1-5.8-1.3-1.7-3.3-6.2-5-5.9-1-0.9-0.9-1.1-1.3-3.9 5.1-2 3.4 4 9.4-3.5 2.2-0.2 2.4-0.8 2.5-3.1 0.7-4.4-2.3-5-1.2-5.8 3.2-0.8z m94.8-3.1l-3.6-2.9-1.6 3.5-0.1 5.3-0.8 5.2-3.2 4.1 3.6 10.4 1.2 11.6 5.2-4 4.4 2.9 1.7-4.7 2.8-6.4 4.4-3.5-1.2-10.4-4-11.1 0-1.1-8.8 1.1z" id="HUSO" name="Somogy">
  </path>
  <path d="M406.2 516.3l2.4-0.2 2.4 0.4 0.9 2.1 0 2.7 2.2 4.7 0.1 4.6 0.9 2.8-1 4.1-1.8 3.7-1 5.9-3 3.9 2.8 2.8-0.6 0-1.8-1.6-1.3 2.1-0.6 1.7-0.6 1.4-1.4 0.8-1.6-0.3-5.3-2.7-6.6-2.3-2.6 0.5-3 3-0.5 1-0.4 2.3-0.3 1.2-0.2 0-2 2.3-3 5.7-1.6 2-5.8 5-3.4 1.3-3.1-1.5-2.1 1.5-4.7 5.8-2.5 2-1 0.3-0.9 0.1-1-0.1-0.8-0.3-0.1 0-2.2-2.9-2.2 0-2.1 1.2-2.3 0.9-2.3-0.8-2.4-2.6-3 0-4.1-3.1-2.5-0.8-11 0-1.2 0.4-2.3 1.7-1.5 0.5-1.5 0-14.1-3.9-9.3 0-2.2 0-1.2 0.7-0.7 1.5-0.7 1.4-1.6 0.3-0.1-0.8-2.6-4.5-3.9-2.9-16.3-5-3.1-0.2-1.1-0.7-0.2-1.3 3.6 0.3 3.2-1.7 0.4-5.6-2.2-3.9-3.8-3.5-2.9-4.6-1.5-5.8 2-3.9-3.8-11.8 7.9-4.1 2.3-6.1-0.3-11.9 3.8-4.5 6.3-2.2 6.5-0.2 4.1-3.3 12.4-16.2 15.3-1.9 2.6-3 0.9-4.2 2.6-2.3 3.4 1.1 3.5 0.2 2.6-3.5 2.2-4.2 15.8-1.4 4.1 0.7 0.6 2.5-0.4 3.2 5.1 5.9 2.6 6.9 2 16.6 5.3-3.8 2.3-2.7 3.3-0.6 6.7 6.5 2.6 0 2.7-1.7 2.2 2.5 3.4 7.4 4.1 6.2 4.3 5 6.7 3.7 7.1 2.1z m-56.9 8.4l1.2-2.4-2-7.5-4.8-12.1-5.6 3.4-5.2-1.1-5.6-0.6-5.5 3.9-2.8 3.4-1.4 7.8 2.5 4-2.1 4.6 4.5 2.9 5.2 5.2 4.8 2.3 3.6-2.3 2.4-4 1.6-4.7 2.4-4 2.4 0 4.4 1.2z" id="HUBA" name="Baranya">
  </path>
  <path d="M858.1 61.6l-2.8 3.1-5 10.6-2.8 4.6-3.7 2.4-1.2-0.3-2.6-1.4-1.6 0.2-0.8 0.8-4.5 6.7-3.8 4.5-1.9 1.6-2.6 0.9-8.5 0.6-2 1.5-2.4 2.6-2.5 2-2.2 0.1-1.6 0.4-10.2 6.4-2.5 0.4-2.6-0.4-5.3-2.6-2.2 0-5 0.7-8.6-0.4-2.5 0.4-2 1.4-1.9 2.4-1.5 2.9-1 2.8-0.2 3.5 0.7 1.8 1 1.6 0.4 2.7-1.3 6.3-3.4 3.4-4.6 1.3-4.5 0.2 0.9 0-6.4 0.4-1.9-0.4-1.6-1.4-1.2-1.7-1.4-1.2-2.2 0.1-0.9 1-0.4 1.4-0.5 1.2-1.4 0.6-3.3-0.2-0.9 0.2-5.8 3.9-1.5 1.5-0.9 2.5-0.8 5.2-0.3 1.7-0.7 2.8-1.1 1.7-4.4 5.2-1.2 2.6-0.1 1.5 0.3 1.9 0 3.7-0.4 3.2-0.8 1.5-2.8 3 0.8 6.1 0 1.2-7.4 1.4 0 1.5-3.2 6.3-0.9 1.1-0.8 1.9-6.7 6.9-9.8 0.9-3.7 0.4-2.4 1-4.3-0.7-3.1-2-14.7-3-2.8-4.6-1.8-6.2-6.2-7.3-8.5-15.2-1.1-0.8-1.1-1.7 1.3-1.9 0.9-1.8-0.5-3.9-1.8-3.1-2.5-2.9-0.9-4.1 1.6-2.9 6-6.3 1.7-8 5-3.2 6.8-1.5 8.1-0.5 4.4 6 7.1 5.1 7.2 4.6 5.4-0.5 6.8-2.1 4.4-5-0.7-4.6-3.1-5.6 0-6.1-2.7-7.6-3.7-5.6-5.1-3-4.7 0-5.8-4.1-6.1 4.6-7.9 6-6.4 5.6-7.1 0.5-4.4 5.3-7.3-7.7-8.6 11.4-4.5-3.4-4.8 0.4-3.9 3.4-4.7 0-2.2-1.8-1.7-2.9-1.9-0.7-2.2 0.3-2.6-3.2-3.2-2.7-2.9 1.3-2.6-2.7-3.8-2.7-1.4-1.8 5.4-3.3 2.5-1 1.1-0.9 1-1.8 0.7-3.6 0.6-1.4 1.6-2 1.2-0.2 1.4 0.5 2.3 0.2 2.3-1 4-3.7 1.5-0.7 2.7 1.4 1.5 1.6 1.6 0.7 3.1-1.6 3.9-3.9 3.3-5.1 2.8-5.9 5.2-16 1.6-3.1 2-2.7 4.1-4.3 0.3-0.3 1.8-2.7 0.1-0.7 0-0.7 0-0.8-0.1-0.7-0.2-3.5 0-1.7 0.2-1.5 3.8-1.5 8.3-0.6 28.4-6.6 2.2 0 2 1.1 4 3.6 2 0.5 4.2 0.5 7.3 4.4 4.7 0.5 3.4-0.3 3.9 0.7 3.8 1.7 2.7 2.7 3.4 0.8 10.3-5 4.5-1 2.4 1.1 1.7 1.4 1.5 0.6 2-1.1 1.5-2.2 0.8-2.2 1.1-1.9 2.7-1.5 2.2-0.5 4.6-0.1 6.9-2.2 2 0.6 4.5 2.7 2.4 0.9 1.1 1.1 0.9 1.7 1.3 3.9 0.9 1.5 2.1 1 4.9-0.1 2.3 0.5 1.2 2.3 1.7 8.3 1.1 2.2 7.5 11.6 3.2 3.7 3.5 2.6 4.2 1.5 4.1-0.4 7-3.6 5.7-0.8 4.1-2.4 2-0.7 7-0.4 2.4-0.9 2.4-0.1 8.1 0.8 2.5-0.8 2.3-1.8 2.5-3.3 1.6 0.3 0.1 0 1.5 0.3 0.2-0.1z" id="HUBZ" name="Borsod-Abaúj-Zemplén">
  </path>
  <path d="M574 107l1.4 1.8 3.8 2.7 2.6 2.7-1.4 0.8-1.1 1.5-3.8 1.8-2.9 3.1-3.9 1-1.8 1.2-0.7 2.7 1 1.1 1.6 0.8 2.9 5.4 0.9 6.6-4 0.5-3.3 2.9-1.7 5.1-0.5 4.6-3.4 3.5-3.7 2.4-1.8-1.9-2.3 0.1-1.9 3.1-1.4 3.5-3.4 2.5-4.3-2.5-3.8 2.7-6.7 11.6-5.1 1.6-12.6 15.1-8.3 1.6-8 4.6-1.3-13.1-4.5-10-5.2-2.4-28.6-5.5-10.8 0.3-16.6-11.9-3.2-7 4.7-4.2-0.4-9.3-4.5-6.5 6.5-1.4 1.9-1 3 0.2 2.7 0.1 8-1.2 16.6 2.1 1.5-0.3 8-5.2 18.1 0.4 7.2-5.1 0.2-1 0-1.1 0-1.1-0.2-1.1-0.1-0.1 0-0.1 0-0.1 0.1-0.1 1.5-3.2 1.3-7.8 1.5-2.9 2.3-1.4 12.3-3.2 1.4 0 1.4 0.4 1.5 1.3 2.9 3.6 1.4 0.7 6.1-1.2 3.2 0.5 2.4 2.9 0 2-0.7 1.7-0.4 1.7-4.4 5.6-1 8.1-2.1 8.2 10.5 2 3.8-6.6 6.4-4.6 5.4-5.7 3.1-1.2 6.1-5.7 3.1-1.9 5.1-1.6 0.4-0.2z" id="HUNO" name="Nógrád">
  </path>
  <path d="M537.6 110.6l1.3 1.9 1.3 0.2 4.8-1.9 3.3 1.1 5.1 4.6 2.8 1.1-5.4 5.7-6.4 4.6-3.8 6.6-10.5-2 2.1-8.2 1-8.1 4.4-5.6z" id="HUST" name="Salgótarján">
  </path>
  <path d="M285.1 251.1l0-4 2.1-5.7-1.5-5.5 1.2-1.3 3 1.1 1.5-3.4-3.2-4.5 2.9-8-3.9-3.5 0.2-6.1-1-3.5 0.5-3.5-0.1-4.4-1.2-4.2-0.3-2.6 30.7-2 16.5 1.7 5-0.5 10-4.1 27.4-3.2 6 0.5 4.9 2.1 4 0.8 3.9-0.4 3.3-2 4.4-5.1 2.4-1.8 3-0.8 3.3-1.1 0.3 0 4.1 3 4.8 1 3 4.7 1.3 3.4 0.8 6 1.7 1.8-2.4 2.1-3-1-5.5 1.9 1.4 10.2-7-0.8-7 1 1.3 2.5 0.8 2.9-3.6 2.7-2.9 3.8-2.1 5.3-3.4 3.3-22.7 1.3 1.1-4-4.5-6.7-6.8-1.5-5.3-0.8-3.7 3.9 1.6 5.1-1.3 3.9 4.7 5.8 7 4.2-2.1 2.2-2.6 1.1-3.8 3.9-6.7 3.4-2 2.9 1.7 1.8 1.3 2.4-7.1 1.9-2.4-1.6-1.8-2.9-7.8-6.8-2.8-0.1-2.3 3.7-3.2 0.9-3.1 0.1-1.4 4.7 0.4 5.8-1.5 2.4-0.9 3.2-15.3 3.3-3-0.7-1.5-3.6-0.8-4.1-4.3-0.7-5.1-2.1 0.8-5.4-0.4-5.7z" id="HUKE" name="Komárom-Esztergom">
  </path>
  <path d="M521.6 338.5l-3.1-3.1-7.4-12.3-5.1-5.1-9.2-1.4-1.9 2.5-0.3 3.9-1.6 2.8-4.1 1.6-3.8 2.5-3 5.8-3.9 1.3-2.7-4.2 1-5.5 3.2-5.2-0.6-5.7-3.8-4.1-4.9-1.3-14.4 6.5-10 8.1-6.2 1.8-6.3 0.4-2.9 6.6-6.6-8.1-2.1-1.5-0.8-1.7-1.1-3.9-1.3-7.7 0-3.9 0.3-4 0.7-3.7 2.8-5.8 1.5-9.8-2.1-3.3 3.4-2.9 1.9-5 0.9-5 15.2-2.9 6.7 4.2 4 0.5 12.8-9.1 2.5-3.3 6.4-4.9 3-7.7-1.9-2.1-2.6-1.1-10.2-7.9-2.9 0.6-0.5-2.4-5-3.5-3-3.9-5.8-3.6-6.4 0.4-3.1 3.2-3.7 1.7-8.1 1.2 1.2 11.7 4.7 13.5 0.1 2.5-2.6 5.9-4.1-4.7-4.5-2.8-3.7-3.9-3.4 1.6 0.8 6.6 2.4 6.6-5.7 6.1-1.7-2-3.5-8.7 0.8-5.6-1.5-5.1-6.8-8.5-5.3-10.8 3.4-3.3 2.1-5.3 2.9-3.8 3.6-2.7-0.8-2.9-1.3-2.5 7-1 7 0.8-1.4-10.2 5.5-1.9 3 1 2.4-2.1-1.7-1.8-0.8-6-1.3-3.4-3-4.7-4.8-1-4.1-3-0.3 0 0.2-0.1-5.2-3.8-3.9-3.8-0.8-3.8 0.3-4.2 1.3-8.2-0.4-2.3-0.9-0.8-0.2-0.8 1.7-2.1 1.2-0.8 2.6-0.4 1.3-1.1 3.6-7.5 2.3-1.9 12.8-2.9 4.5 6.5 0.4 9.3-4.7 4.2 3.2 7 16.6 11.9 10.8-0.3 28.6 5.5 5.2 2.4 4.5 10 1.3 13.1 8-4.6 8.3-1.6 2 3.1 1.6 0.8 1.7 0.4-0.8 2.6-1.6 2.6 1.4 3.7 2.5 2.9 3.7 6.2 0.2 3.4 1.9 2.4-1.3 5.9 2.5 5.5 4.3 2.8 5-0.5 0.7 3.7 0 3.2 5.6 4.9 2.5 3.5 24.1 24 1.1 2.7 0 3.6-0.6 3 0.4 2.8 2.3 3.6 3.4 2.4 4.7 7.8-3.5 9-0.7 9.5 4.3 9 7.4 6.6 8.5 3.3-7.5 5.6-4.9-5.4-4.5-2.7-3.9 1.8-3.8 2.7-5.6 6.8-4.2-1.5-4-3-4.2 1-3.8 3.6-2.3 3.1-2.6 0.2-2.4-0.7-4.3 0.2-10.3-6.4-6.1-6.2z" id="HUPE" name="Pest">
  </path>
  <path d="M702.2 294.4l-2.6 1.3-2 2.7-1 2.7-1.5 2-3.2 1.3-1.1 2.6-1.5 2.5-1.9 0.6-1.2 2.6-1.9 1.1-2.7-0.8-2.6 1-8.1 10-2.2 1.6-1.4 2.5 0.5 1.2 0.1 2.6-5.1 6.2 0.1 3 1.3 2.5 0.7 6.4-1.4 5.9-2.1 1.4-2.2 0.4-2.5 1.8-2.7 0.6-1.6-2.3-2.1-1.4-3.1 2.7-3.9-1.1-3.8 5.4-4.5-1.2-4.7 0.5-5.3 4.6-1.4 5.7 2 6.5-4.4 2.7-4.8 1.4-4.3 3.5-4.9-1.4-4.8-4.5-15.4 5.1-9.9-6.3-3.5-1.2-2.6 0.6-1.8-1.5-0.6-2.7 1.9-5-0.8-0.4 2.9-4.3 4.6-1.8 4 0.3 2-3.7-2.7-1.7 0-3.1 3 0.3 2.4 2.1 1.3 0.2 2.4-3.6 0-1.2-1.6-0.7-2.1-0.4-2-0.6-0.8-1.6 0.8-1.6 4.6-3.4 7.5-5.6-8.5-3.3-7.4-6.6-4.3-9 0.7-9.5 7.8 1.6 6.7 5 1.8 0.6 2 1.2 3.7 2.1 6.8-1 4.1-3 0.3-6.4-4.8-2-2.7-5.7 4.2-3.1 1-2.5-3.5-6.7-9.1-7.5-8.2-10-9.5 11-5.2 7.2-2.3-3.6-0.4-2.8 0.6-3 0-3.6-1.1-2.7-24.1-24-2.5-3.5-5.6-4.9 0-3.2-0.7-3.7-5 0.5-4.3-2.8-2.5-5.5 1.3-5.9 7.3-3.3 7.3-0.8 3 2.4 1.6 0.4 7.4-10.1 2.2-2.2 3.1 0.9 6.4-2.1 5.3 1.8 1 8.1 2.2 7.5 7.1 4.9 6.7-1.8-2.1-1.5-1.3-2.8 12.7-3.5 1.8 1.4 1.4 5.2 2.6 3.4 5.1 2.8 2.3 6.3-0.9 4.4 1.5 3.5 2.4 3 7.7 5.1 2.9 0.9 3.3-1 1.3-1.1 1.7-2.2 0.7-0.8 4.8-1.6 1.9-1.7 0.7-4.2 1.2-1.6 23.7-16.1 0.8-3.5 0-1.2 1.2-0.3 0.7-0.5 0.4-0.8 0.4-1.3-0.8-2.3 1.4-1.3 4-1.7 1.8-2.5 0.6-1.9 0.8-1.5 2.4-1 3.7-0.4 3.1 10.1 5.2 5.4 4.3 2 4.3 0.5 4.2 4 1.8 8 1.6 16.8 2.2 9.3 1.3 9.4-0.7 12.5-3.8 9.9z" id="HUJN" name="Jász-Nagykun-Szolnok">
  </path>
  <path d="M430.6 334.4l-0.2 1.8-0.6 1.3-0.7 1.1-0.3 1.3 0.1 2-7.8-4.1-7.4 7.7-1.8 10.8 2.1 6.5 11.1 7.8-6.2 2-5.8 4-13.1 16.7-5.7 3.7-2.5 0.9-2.4 1.4-4-1.1-9.5-15-2.7 0.2-2.7 2.1-1.7 3-1.6 2.1-1.7 0.2-5.6-1-5.6-2.6-9.3-7.7-1.1 0.5-6.8 0-7 1.9-0.9-5.5 0.1-11.1 0.6-1.2 0.4-1.3-2.7-5.1-3-7.6 5.1-7.9 2-9.7-1.4-5 1.1-13-1.9-4.8-3.8-2.2-4.8-11.1-5.7-5.6-1.6-5.3 0.8-5.4 4.8-1.3-4.5-8.7 0.9-3.2 1.5-2.4-0.4-5.8 1.4-4.7 3.1-0.1 3.2-0.9 2.3-3.7 2.8 0.1 7.8 6.8 1.8 2.9 2.4 1.6 7.1-1.9-1.3-2.4-1.7-1.8 2-2.9 6.7-3.4 3.8-3.9 2.6-1.1 2.1-2.2 2.7-6.6 4.5-3.3 22.7-1.3 5.3 10.8 6.8 8.5 1.5 5.1-0.8 5.6 3.5 8.7 1.7 2 3.9 4.8 1 2.8 1.6 2.2 4.7 0.6 2.1 3.3-1.5 9.8-2.8 5.8-0.7 3.7-0.3 4 0 3.9 1.3 7.7 1.1 3.9 0.8 1.7 2.1 1.5 6.6 8.1z m-63-47.8l-2.6-5.5-2.7-0.7-3.4 5.4-7.3 7.4-6.6 7.5 6.3 7.2 3.9 6.9 1.6 7.4 1.6 5.8 8.2-5 4.4 2.3 4.8-7.8 2.3-5.4 0-5.4-3.1-4.2 0-5.1 1.3-7-5-3.8-3.7 0z" id="HUFE" name="Fejér">
  </path>
  <path d="M193.9 262.3l5.2-1.9 3.7-2.9 1.2-2.1 2.4 0.5 5-1.6 5-0.4 4.5 3.3 2.2 0.8 2.4 0.1 2-1.8 2.9 0 3.1-1 2.7-4.1 6.9 1 3.8-2.4 5.4 2.4 5.7-4.4 6.1-2.1 4.8 2.3 2.3-2.2 2.5 0.4 2.5 1.1 0.1-3.8 4.7 3.1 4.1 4.5 0.4 5.7-0.8 5.4 5.1 2.1 4.3 0.7 0.8 4.1 1.5 3.6 3 0.7 15.3-3.3 4.5 8.7-4.8 1.3-0.8 5.4 1.6 5.3 5.7 5.6 4.8 11.1 3.8 2.2 1.9 4.8-1.1 13 1.4 5-2 9.7-5.1 7.9-6.7-3.1-7.3-0.6-12.9 7.3-3.5 0.9-3.2 2-5.3 5.6-6 1.8-24.1 14.4-27.3 11.6-6.9 0.9-5.5 2.8-8.9-0.5-5.5 4.5-5.1 8.9-7.2 3-4.1-6.2 1.7-13.6-1.7-44.2 0.5-2.5 1.1-2 0.7-2.1-0.9-1.9-3.5-1.5-1.6-1.8-1.4-2.1 16.4-4-2.8-20.6 0.6-9.5-1.1-5.6 1.6-4.9 1.7-1.7 1-2.2-0.1-3 1.2-1.2 8.9-4-7.5-5.2-6-7.5z m107.9 67.2l-0.4-12.3-1.6-8.5-4.1-8.5-3.9-4.2-4.5 1.4-1.6 6.1-7.7 0.5-0.3 3.3 2.6 3.3-0.4 5.2-2.5 6.1 3.5 7.6 3.9 8 6 1.4 2.9-2.8 2.6-8.5 5.5 1.9z" id="HUVE" name="Veszprém">
  </path>
  <path d="M425.1 370.6l-0.1 2.6 0.2 1.6 0.7 1.3 2.4 2.6 0.5 0.7 0.5 0.6 2.3 3.3 0.4 0.7 0.8 0.9 0.3 2 0.1 2.2 0.2 1.7 1.3 4.4 0.4 2.8-0.7 2.7-2 3.6-3.8 3.9-9.1 4.1-3.6 4 2.5 4.6 4.1 11.6 1.7 6.4 0.3 5.9-3.2 10.6-0.9 6.9 0.5 3.1 1.9 3.8 0.5 2.4 0.1 16.5-2.1 2.2-7.6 1.7-2.4 1.6-0.5 1 0.4 1.1 1.6 0.7 1.6-0.5 0.9 2.3-2.7 6.1-2.1 1.2-2.1-1.1-1 2 1.6 3.8 3 1.6-2.7 2.9-3.1 1.6-7.1-2.1-6.7-3.7-4.3-5-4.1-6.2-3.4-7.4-2.2-2.5-2.7 1.7-2.6 0-6.7-6.5-3.3 0.6-2.3 2.7-5.3 3.8-2-16.6-2.6-6.9-5.1-5.9 0.4-3.2-0.6-2.5-4.1-0.7-15.8 1.4-2.2 4.2-2.6 3.5-3.5-0.2-3.4-1.1-3.9-18.4-2.9-1.7-1.2-8 2.5-9 4-7.8 0.4-7.6 1.1-7.3 2.6-5.9 0.3-3.3 0.9-2.8 1.9-2.7 1.5-3.2 1.2-1.1 1.5-0.3 6.2-2.7 7-1.9 6.8 0 1.1-0.5 9.3 7.7 5.6 2.6 5.6 1 1.7-0.2 1.6-2.1 1.7-3 2.7-2.1 2.7-0.2 9.5 15 4 1.1 2.4-1.4 2.5-0.9 5.7-3.7 13.1-16.7 5.8-4 6.2-2z m-21.1 95.1l-1-3.8-0.5-3.1-2.5-3.9-3.1 0.6-1.2 3.6-3.5 0.6-2.4-0.9-2 2.8-2.9 2.6-1.3 2.7-0.4 2.7 0.8 2.1 1.3 1.6 2.9-1.7 0.7-1.6 0.6 0 0.4 2.5 0.5 2.9 1.7 1.5 2.7 0.9 2.2-3.3 1.2-3.1 1.3-2 3.1 1.3 3.2 1.1 3.1 0.3 3.5 0.9 3 0.9 3.2-0.1 1.2-2.2-0.2-1.9-1.1-1.4-1.8 0.4-1.6 0.9-0.2-2-0.5-1-0.9-0.5-1.2-0.4-1.2 1.2-0.6 0.9 0 0.4-0.7-0.4-0.7-0.9-0.5-0.8 0-0.4-4.6 0z" id="HUTO" name="Tolna">
  </path>
  <path d="M576.5 311l3.5-9-4.7-7.8-3.4-2.4 5.2-7.2 9.5-11 8.2 10 9.1 7.5 3.5 6.7-1 2.5-4.2 3.1 2.7 5.7 4.8 2-0.3 6.4-4.1 3-6.8 1-3.7-2.1-2-1.2-1.8-0.6-6.7-5-7.8-1.6z" id="HUSK" name="Szolnok">
  </path>
  <path d="M428.9 261.1l2.6-5.9-0.1-2.5-4.7-13.5-1.2-11.7 8.1-1.2 3.7-1.7 3.1-3.2 6.4-0.4 5.8 3.6 3 3.9 5 3.5 0.5 2.4 2.9-0.6 10.2 7.9 2.6 1.1 1.9 2.1-3 7.7-6.4 4.9-2.5 3.3-12.8 9.1-4-0.5-6.7-4.2-15.2 2.9 0.8-7z" id="HUBU" name="Budapest">
  </path>
  <path d="M428.1 268.1l-0.9 5-1.9 5-3.4 2.9-4.7-0.6-1.6-2.2-1-2.8-3.9-4.8 5.7-6.1-2.4-6.6-0.8-6.6 3.4-1.6 3.7 3.9 4.5 2.8 4.1 4.7-0.8 7z" id="HUED" name="Érd">
  </path>
  <path d="M629 166.4l1.1 1.7 1.1 0.8 8.5 15.2 6.2 7.3 1.8 6.2 2.8 4.6 14.7 3 3.1 2 4.3 0.7-0.8 1.5-0.6 1.9-1.8 2.5-4 1.7-1.4 1.3 0.8 2.3-0.4 1.3-0.4 0.8-0.7 0.5-1.2 0.3 0 1.2-0.8 3.5-23.7 16.1-1.2 1.6-0.7 4.2-1.9 1.7-4.8 1.6-0.7 0.8-1.7 2.2-1.3 1.1-3.3 1-2.9-0.9-7.7-5.1-2.4-3-1.5-3.5 0.9-4.4-2.3-6.3-5.1-2.8-2.6-3.4-1.4-5.2-1.8-1.4-12.7 3.5 1.3 2.8 2.1 1.5-6.7 1.8-7.1-4.9-2.2-7.5-1-8.1-5.3-1.8-6.4 2.1-3.1-0.9-2.2 2.2-7.4 10.1-1.6-0.4-3-2.4-7.3 0.8-7.3 3.3-1.9-2.4-0.2-3.4-3.7-6.2-2.5-2.9-1.4-3.7 1.6-2.6 0.8-2.6-1.7-0.4-1.6-0.8-2-3.1 12.6-15.1 5.1-1.6 6.7-11.6 3.8-2.7 4.3 2.5 3.4-2.5 1.4-3.5 1.9-3.1 2.3-0.1 1.8 1.9 3.7-2.4 3.4-3.5 0.5-4.6 1.7-5.1 3.3-2.9 4-0.5-0.9-6.6-2.9-5.4-1.6-0.8-1-1.1 0.7-2.7 1.8-1.2 3.9-1 2.9-3.1 3.8-1.8 1.1-1.5 1.4-0.8 2.9-1.3 3.2 2.7 2.6 3.2 2.2-0.3 1.9 0.7 1.7 2.9 2.2 1.8 4.7 0 3.9-3.4 4.8-0.4 4.5 3.4 8.6-11.4 7.3 7.7 2.3 2.4 0.7 4.7-0.5 4.6-1.7 8-6 6.3-1.6 2.9-3.7-4.5 0-5.7-1.3-3.8-6.3-1.3-2.2 7-3.3 1.9 0.8 6.3 1.7 7.6-1.7 8.2 0 8.2 3 7.6 5.9 0 3-3.8 0-5.7 2.9-3.1 4.7-1.2z" id="HUHE" name="Heves">
  </path>
  <path d="M625.5 148.7l0.9 4.1 2.5 2.9 1.8 3.1 0.5 3.9-0.9 1.8-1.3 1.9-4.7 1.2-2.9 3.1 0 5.7-3 3.8-5.9 0-3-7.6 0-8.2 1.7-8.2-1.7-7.6-0.8-6.3 3.3-1.9 2.2-7 6.3 1.3 1.3 3.8 0 5.7 3.7 4.5z" id="HUEG" name="Eger">
  </path>
  <path d="M632.3 119.8l4.4-5.3 7.1-0.5 6.4-5.6 7.9-6 6.1-4.6 5.8 4.1 4.7 0 5.1 3 3.7 5.6 2.7 7.6 0 6.1 3.1 5.6 0.7 4.6-4.4 5-6.8 2.1-5.4 0.5-7.2-4.6-7.1-5.1-4.4-6-8.1 0.5-6.8 1.5-5 3.2 0.5-4.6-0.7-4.7-2.3-2.4z" id="HUMI" name="Miskolc">
  </path>
  <path d="M647.4 448.8l-0.1 8.1 4.3-1.1-2.4 5.3-2.3 5.6-4.7 5.7-3.7 10.7-6.3 4.9-7.9-0.7-5.8-3.1-5.8 0-7.7 1.3-2.9-0.7-3.5-2.5 1.1-2.8-0.6-2.5-1.1-2.7-0.8-2.9 0.6-3.2-1.6-1.4-0.7-2.1-0.4-4.4-0.9-4.1-0.1-4.6 1.4-6.6 3 2.2 2.3 8.1 3.2-4.6 2.6-11.5 2.1-4.6 4.8 0.4 5.8 1.9 11.5-4.6 4.8 3.1 4.4 5.4 4.8 4.9 2.6 3.1z" id="HUHV" name="Hódmezôvásárhely">
  </path>
  <path d="M428.9 341.9l0.7 3.4 0.9 8.2-0.1 3.6-1.1 1.7-1.3 1-1.3 2.3-1.1 2.9-0.4 2.4-0.1 3.2-11.1-7.8-2.1-6.5 1.8-10.8 7.4-7.7 7.8 4.1z" id="HUDU" name="Dunaújváros">
  </path>
  <path d="M544.7 351.6l-0.3 5.3-4.2 3.1-4.7 0-4 6.1 0 8.9-4.2 8-5.2-4.2-3.2-11.1-4.5-8.1-2.6-7.3-2.4-6.2 0.8-4.6 1.9-3.5 6.8 3.5 2.7-3 6.1 6.2 10.3 6.4 4.3-0.2 2.4 0.7z" id="HUKM" name="Kecskemét">
  </path>
  <path d="M362.8 241.1l-7-4.2-4.7-5.8 1.3-3.9-1.6-5.1 3.7-3.9 5.3 0.8 6.8 1.5 4.5 6.7-1.1 4-4.5 3.3-2.7 6.6z" id="HUTB" name="Tatabánya">
  </path>
  <path d="M264.2 196.5l6.1-0.6 2.8 6.7 1.5 6.6-1 3.7-8.4 5.2-5.7 2.9-8.6 0-5.3 3.9-4.7-3.2-2 0.6-4.4-6.9 7.8-6 2.6-9.9 13-4.5 6.3 1.5z" id="HUGY" name="Gyôr">
  </path>
  <path d="M121.2 284.4l2.1-0.2 2.9 9.5-0.9 5.3-1 4.4-0.3 6.1-3.7-0.8-3.1-0.4-3.8 3.5-4-3.3-2.8-8.9-1.6-6.9-1.5-5 0.6-2.3 3.4 0 1.6 1.3 8.6-3.1 3.5 0.8z" id="HUSH" name="Szombathely">
  </path>
  <path d="M141.5 383.8l0-7.8-4.8-3.3-0.6-12.2 10.1-1.7 6.7 6.2 2.3 15.1-5.1 2-8.6 1.7z" id="HUZE" name="Zalaegerszeg">
  </path>
  <path d="M174.1 460.2l-5.2 2.5-7-1-5.3-3.9-0.5-9.1-0.2-7.4 0-5.8 3.8-0.7 0.9-7.8 5.6-0.3 1.3 8.4 3.6 3.6 1.1 7.1 3.9 7.8-3.2 0.8 1.2 5.8z" id="HUNK" name="Nagykanizsa">
  </path>
  <path d="M301.8 329.5l-5.5-1.9-2.6 8.5-2.9 2.8-6-1.4-3.9-8-3.5-7.6 2.5-6.1 0.4-5.2-2.6-3.3 0.3-3.3 7.7-0.5 1.6-6.1 4.5-1.4 3.9 4.2 4.1 8.5 1.6 8.5 0.4 12.3z" id="HUVM" name="Veszprém">
  </path>
  <path d="M270.9 450.5l8.8-1.1 0 1.1 4 11.1 1.2 10.4-4.4 3.5-2.8 6.4-1.7 4.7-4.4-2.9-5.2 4-1.2-11.6-3.6-10.4 3.2-4.1 0.8-5.2 0.1-5.3 1.6-3.5 3.6 2.9z" id="HUKV" name="Kaposvár">
  </path>
  <path d="M349.3 524.7l-4.4-1.2-2.4 0-2.4 4-1.6 4.7-2.4 4-3.6 2.3-4.8-2.3-5.2-5.2-4.5-2.9 2.1-4.6-2.5-4 1.4-7.8 2.8-3.4 5.5-3.9 5.6 0.6 5.2 1.1 5.6-3.4 4.8 12.1 2 7.5-1.2 2.4z" id="HUPS" name="Pécs">
  </path>
  <path d="M404 465.7l4.6 0 0 0.4 0.5 0.8 0.7 0.9 0.7 0.4 0-0.4 0.6-0.9 1.2-1.2 1.2 0.4 0.9 0.5 0.5 1 0.2 2 1.6-0.9 1.8-0.4 1.1 1.4 0.2 1.9-1.2 2.2-3.2 0.1-3-0.9-3.5-0.9-3.1-0.3-3.2-1.1-3.1-1.3-1.3 2-1.2 3.1-2.2 3.3-2.7-0.9-1.7-1.5-0.5-2.9-0.4-2.5-0.6 0-0.7 1.6-2.9 1.7-1.3-1.6-0.8-2.1 0.4-2.7 1.3-2.7 2.9-2.6 2-2.8 2.4 0.9 3.5-0.6 1.2-3.6 3.1-0.6 2.5 3.9 0.5 3.1 1 3.8z" id="HUSS" name="Szekszárd">
  </path>
  <path d="M367.6 286.6l3.7 0 5 3.8-1.3 7 0 5.1 3.1 4.2 0 5.4-2.3 5.4-4.8 7.8-4.4-2.3-8.2 5-1.6-5.8-1.6-7.4-3.9-6.9-6.3-7.2 6.6-7.5 7.3-7.4 3.4-5.4 2.7 0.7 2.6 5.5z" id="HUSF" name="Székesfehérvár">
  </path>
  <path d="M725.4 405.5l-8.4-0.4-6.3 1.2-7.4 0.1-1.6-10.4-2.1-10 5.8-6.1 5.5-10 12.9 6 6.1 8.9-1.6 7.7 2.4 6.5-5.3 6.5z" id="HUBC" name="Békéscsaba">
  </path>
  <path d="M776.1 208.1l1.7-6.1 6.8-1 2.4 9.1 3.1 9.1 3.7 5 6.1-3.5 4.4-5.6 4.7-1.5 5.1 6.6 4.4 8-0.3 12.6-2.7 7.5-9.2 10.5-5.4-5.5-5.1 1-7.4 9.6-8.2 0-1.7-8.1-3.4-2.5-4.2-1.8-2.7-9.5-9.2 0-0.3-10.1 3-11.5 5.6-16.3 5.8-6.1 2.7-2-1.7 10.6 2 1.5z" id="HUDE" name="Debrecen">
  </path>
  <path d="M816.8 144.5l3.4-2.6 2.7 3.1 0.4 7-0.4 7.6-4.4 1-0.3 7.1-3.1 6.6-7.4 1.5-4.4-3-9.2-2.5-8.1-2.6 1-12.1 1-10.1 1.3-4.3 2.3-4.5 6.8-0.5 2.4 2.5 5.1-3.6 3.8 2.8 0 6 7.1 0.6z" id="HUNY" name="Nyíregyháza">
  </path>
 </g>
 <g id="points">
  <circle class="45.88273797715425|16.433213535757744" cx="90.9" cy="558.2" id="0">
  </circle>
  <circle class="47.01389371245111|19.824996179796905" cx="545.5" cy="338.2" id="1">
  </circle>
  <circle class="48.42783838157218|22.538422295028234" cx="909.1" cy="56.5" id="2">
  </circle>
 </g>
 <g id="label_points">
  <circle class="Szabolcs-Szatmár-Bereg" cx="860.3" cy="139.7" id="HUSZ">
  </circle>
  <circle class="Békés" cx="676.8" cy="411.7" id="HUBE">
  </circle>
  <circle class="Hajdú-Bihar" cx="732.7" cy="208.4" id="HUHB">
  </circle>
  <circle class="Csongrád" cx="586.7" cy="419.1" id="HUCS">
  </circle>
  <circle class="Gyor-Moson-Sopron" cx="205.7" cy="211.4" id="HUGS">
  </circle>
  <circle class="Sopron" cx="110.2" cy="203.1" id="HUSN">
  </circle>
  <circle class="Vas" cx="152.4" cy="302.2" id="HUVA">
  </circle>
  <circle class="Bács-Kiskun" cx="482.5" cy="426.8" id="HUBK">
  </circle>
  <circle class="Szeged" cx="588.4" cy="484.4" id="HUSD">
  </circle>
  <circle class="Zala" cx="130" cy="412.8" id="HUZA">
  </circle>
  <circle class="Somogy" cx="225.1" cy="479.3" id="HUSO">
  </circle>
  <circle class="Baranya" cx="293.1" cy="536.3" id="HUBA">
  </circle>
  <circle class="Borsod-Abaúj-Zemplén" cx="722.2" cy="91.4" id="HUBZ">
  </circle>
  <circle class="Nógrád" cx="508.3" cy="153.1" id="HUNO">
  </circle>
  <circle class="Salgótarján" cx="540" cy="121.8" id="HUST">
  </circle>
  <circle class="Komárom-Esztergom" cx="329.6" cy="220.5" id="HUKE">
  </circle>
  <circle class="Pest" cx="503.3" cy="271.3" id="HUPE">
  </circle>
  <circle class="Jász-Nagykun-Szolnok" cx="641.8" cy="300.2" id="HUJN">
  </circle>
  <circle class="Fejér" cx="361.4" cy="358.2" id="HUFE">
  </circle>
  <circle class="Veszprém" cx="237.4" cy="319" id="HUVE">
  </circle>
  <circle class="Tolna" cx="367.9" cy="433.7" id="HUTO">
  </circle>
  <circle class="Szolnok" cx="591.2" cy="299.7" id="HUSK">
  </circle>
  <circle class="Budapest" cx="448.9" cy="245.5" id="HUBU">
  </circle>
  <circle class="Érd" cx="421.9" cy="267.8" id="HUED">
  </circle>
  <circle class="Heves" cx="585.5" cy="179.6" id="HUHE">
  </circle>
  <circle class="Eger" cx="618.9" cy="157.9" id="HUEG">
  </circle>
  <circle class="Miskolc" cx="665.7" cy="118" id="HUMI">
  </circle>
  <circle class="Hódmezôvásárhely" cx="621.8" cy="461" id="HUHV">
  </circle>
  <circle class="Dunaújváros" cx="421.3" cy="352.9" id="HUDU">
  </circle>
  <circle class="Kecskemét" cx="525.3" cy="357.2" id="HUKM">
  </circle>
  <circle class="Tatabánya" cx="360.6" cy="228.6" id="HUTB">
  </circle>
  <circle class="Gyôr" cx="256.2" cy="208.3" id="HUGY">
  </circle>
  <circle class="Szombathely" cx="116.5" cy="296.5" id="HUSH">
  </circle>
  <circle class="Zalaegerszeg" cx="146.3" cy="370.1" id="HUZE">
  </circle>
  <circle class="Nagykanizsa" cx="164.4" cy="447" id="HUNK">
  </circle>
  <circle class="Veszprém" cx="289.5" cy="317.7" id="HUVM">
  </circle>
  <circle class="Kaposvár" cx="273.4" cy="466.6" id="HUKV">
  </circle>
  <circle class="Pécs" cx="332.6" cy="519" id="HUPS">
  </circle>
  <circle class="Szekszárd" cx="395.2" cy="465.7" id="HUSS">
  </circle>
  <circle class="Székesfehérvár" cx="363.4" cy="302.8" id="HUSF">
  </circle>
  <circle class="Békéscsaba" cx="714.9" cy="388.6" id="HUBC">
  </circle>
  <circle class="Debrecen" cx="784.2" cy="237.6" id="HUDE">
  </circle>
  <circle class="Nyíregyháza" cx="801.8" cy="155.2" id="HUNY">
  </circle>
 </g>
</svg>