<?xml version="1.0"?>
    
<!--********* Copyright (c) 2024 Pareto Softare, LLC DBA Simplemaps.com ***************************************
************* Free for Commercial Use, full terms at  https://simplemaps.com/resources/svg-license ************
************* Attribution is appreciated! https://simplemaps.com *******************************************-->

<svg baseprofile="tiny" fill="#6f9c76" height="1000" stroke="#ffffff" stroke-linecap="round" stroke-linejoin="round" stroke-width=".5" version="1.2" viewbox="0 0 1000 1000" width="1000" xmlns="http://www.w3.org/2000/svg">
 <g id="features">
  <path d="M509.3 266.1l-0.2-0.1-0.3 0-7.6-0.9-2.7 0.6-6-1.8-1.3-1.2 1.7-0.4 6.2-4.3 4.4-1 0-1.8-4.5-0.2-2-0.9-1.8-2.3 7.5-6.3-0.4-4.6 6.4-5.8-0.4-5.9 1.5 0.9 0.9 1.1 1.1 0.9 1.7 0.3 1.6-7.6 0.7-2.1-0.4-0.5-0.2 0-0.1-0.2-0.2-0.8-2.7 2.6-2.7 1.4-9.4 1.6-5 4.1-2.8 1.5 0-1.4 1.4-2.1 0.2-2.2-1-1.7-2-0.7-2 1.1-3.5 4.5-3.5 1.8-6.4 7.2-1.9 1.6-1.9 1.2-2 0.4 0-1.4 3.3-4 2.1-1.8 2.6-0.7 1.8-1.8-0.4-3.3-1.7-2.1-2 2.2-1 0 0.5-5.2-1.8 0-2.3 3.2-1.1 4.5-0.7 1.4-1.5-1.2-1.3-1.9-0.6-1.7 0.1-1-0.1-1-1.1-0.4-0.9 0.3-1.4 1-0.9 0.4-3.3 0.2-1.6 0.6-1.5 3.3-1.7-0.5-2.8-2-10.4-0.1-2.4-1.5 1.1-2.3-1.3-1.3-11.3-4.4-2.5 0 0.5-0.9 0.3-0.8 0.4-0.8 0.7-0.9 0-1.4-1.8-1.2-0.9-1.7 0.3-1.5 1.9-0.7 2-0.2 1.7-0.8 1-1.8 0.4-2.8 1.6-1.8 9.7-7.2 3.6-1.4 13.7 0.4 7.3 2.4 3.7 0.1 0-1.5-9.6-2.4-2.6-2.6 2.1-1 6.2-0.3 1.6 0.6 1.7 2.8 2.2 2.8 2.5 1.4 2.5-1.3-7.3-7.3-5.1-1.9-5-3.6-3.2-0.3 0.5-2.3 1.1-0.6 1.3 0 1.7-0.4 1.3-1.1 1.9-2.5 1.5-1.3 2.7 2.8 3 0.2 6.5-1.2 7.6 3.1 2.9 0 0-1.6-2.5-0.4-3-1.3-2.2-2.5 0.1-4 1.9-2 5.4 0.9 2-0.5-1.8-1.6-1.5-4.2-1.8-0.9-2.6-0.2-0.7 0.2-0.5 1.1-0.3 1.7 0 1.5-0.1 0.8-3.9-0.2-3.2-3.5-2.5-4.9-1.8-4.5 1.8-1.3 1.3 0.7 1.3 1.4 1.8 0.7 1.9-0.3 1.8-0.7 3.4-2.3-4-1.7-3.1-3-5.2-6.6 0-1.7 1.1-1.2 1.5-0.5 1.5 0.3 1.6 1.4 1.4-2.4 0.4-0.9-0.9 0 0.7-3.4 1.1-0.6 1.4 0.2 1.5-1 2.7-5.8 1-0.9 1.3 1.4 0.4 5.6 1.3 1.2 0.7-1 0.9-4.4 1.2-1.3-1.6-7-0.5-4.2 0.6-1.9 1.6-1.6 2.2-7.4 1.3-2.5 2.2-0.1 7.7 3.4 2.5-0.5 4.2-2.3 2.3-0.5-0.9 2.1-0.9 1.6-0.7 1.6-0.3 2.2 0.7 1.2 1.6-1.4 4.1-5.9 8.3-5.3 2.7-1 1.9-1.9 1.3-3.9 1.7-3.5 3.1-0.6 3.6 2.8-1.1 2.7-6.3 4.4 0 1.6 5.8-3.1 0.9 0.6 0.9 1.2 2.1-0.2 2.2-1 1.3-0.9 1.8 3.4 0 1.5-0.5 2.8 1.1-0.4 2.1-1.6 2.1-0.8-0.7 2.4-1 1.6-1.4 0.8-1.7 0.3 0 1.6 2.6-0.1 1.5 0.5 1.2-0.1 1.4-1.9 1.6-4.4-0.4-2.6-3.1-4.5-0.8-4.9 2.2-2.9 3.6-2.8 3.5-4.2 0.3 1.2 0.2 0.1 0.5 0.5-3.2 11.3-0.2 1.7 0.3 0.4 0.4 1 0.7 1.1 1 0.8 1.2 0 1.3-1.6 1.3-0.2 1.8 0.9 2.9 1.9 2.6 2.5 1.1 2.2 0.3 0.9 1.2 3.2 0.4 1.7 0 1.7-0.7 4.3-0.2 2.2 1-2.2 2.2-6.3 1-1.4 0.5-1.7-0.9-3.8-1.3-3.7-0.7-1.5-0.2-2.4-0.6-3.1-1.2-2.6-1.7-0.9-1.1 1.8 0.3 3.5 0.9 3.7 0.8 2.5-1.9-0.3-1.3-1.4-1.1-1.7-1.3-1.5-4-1.2-1.7-1.5 0.5-3.1 3.7-7.6 0-1.4 5 0.8 2.1-0.8 5-4.3 1.7-0.6 2.3 0.9 1.5 2.3 1.1 2.4 1.2 1.1 0.7 1.8-0.3 3.7-0.6 3.7-0.3 1.3 0.8 2.2 1.7 1.6 4 2 0.1 2.8 1.1 3.3 1.6 2.6 1.5 1.1 1.9 1.8 0.2 4-0.8 3.9-1.3 1.8-2.1 0.6-1.6 1.5-2.5 3-7.5 4.9 0 1.6 8.2-1.5 2.7 1.4-1.5 5-1.6 1.8-6.9 4.9-4.5 6.6-1.9 1.6 0 1.7 2.7-0.9 2.5-1.7 13-12.8 1.5-0.3 1.1-2.6 2.8-1.3 3.2-0.8 2.3-1.1 1.8-2.9 0.8-3.9-0.6-3.3-2.5-1.5-0.6-1 0.5-2.1 1.5-3.4 0-5.8-1-0.4-5.5-8.6-3.2-2.7-1.1-1.4-0.6-1.6-0.5-2.6 0-2.3 3.1-2.8 1.5-4.2 0.3-4.9-1.5-3.8 2.4 0.2 2 1 1.9 0.3 2.2-1.5-0.4-0.8-0.1-0.6-0.1-0.7-0.3-1.2 2.8 2.4 2.9 1.8 3-0.1 5.2-5.7 2.8-0.9 2.8 1.4 2.1 4.4-2.9 0.1-0.9-0.1 2.6 1.9 3 1.4 3.1 0.2 2.7-2-8.8-7.1-4.1-5.3-0.3-5.6-3.7-2.2-1.6-1.5-1.2-1.6 2.2-1.4 2.4 0.5 4.7 2.7 9.5 3.5 2.2 0.3 5.3 2.9 1.8 1.6 7.1 10.9 2 1.8 6.9 3.2 5.1 0.9 6.2 2.7 2.9 2.2 3.1-1.4 1.9 3.7-0.5 4.9-4.1 2.5-3.8 0.8-4.6 2-4.4 2.8-4.6 4.7-4.5 2.4-3.7 1.2-1.9 1.7-6 8.5-2.1 3.9-1.8 4.4-0.3 1-2.6 1-1.2 1.5-1.1 1.7-1.1 1.3-8.8 1.3-1.6 1.3-1.4 1.6-3.9 6.1 0.6 2.1-0.4 0.4-0.7 0.2-0.6 1.7 0.8 6.1-0.2 2-0.9 1.7-0.2 0.3-2.8 1.1-1.1 1.5-0.5 2.8 0.6 6.1 0 2.5-1.4 5.1-2.2 4.2-10 12.5-0.9 3.2-0.2 5.9 0.4 1.8 0.8 0.8 0 0.5-1.8 0.8-1.5-0.1-2.5-1.4-4.2 1.3-4.7-1.4-2.4 1.5-4.8 4.7-4.7 2.7-4.7 0.4-4.5-2.4-3.9-3.5-1.9-0.1-4.7 4.8-6.8 3.4 2.2 1.9 0.9 0.5-1.1 3.6 1.1 2.4 2.3 1.5 2.4 0.7 1.1 0.7 1.4 3 1.1 1.2 1.1 0.1 2.2-1.7 1-0.3 1.9 1.1 4.4 4 2.2 0.8 2.3-1.1 2.1-1.6 1.5 0.4 0.3 4.6 0 0.2-5.7 1.9-13.6 13.1-5.3 2-5.4-0.2-10.4-2.4-2.9 3.2-2.8 4.2-1.7 3.4-0.7 1-1.6 1.5-3.3 2-7.3 2.2-2.5 1.4z m-49-130l2.2 1 1.7 1.2 1.1 2.1 0.6 3.9-6 1.9-3-0.2-2.2-1.7 0-1.5 0.3-1 0.1-0.1-0.1-0.3-0.3-1.9 2-1.4 0.8-0.3-0.3-0.6-0.4-0.7-0.3-0.4 1.2-1.3 1-0.3 0.8 0.5 0.8 1.1z" id="IEDL" name="Donegal">
  </path>
  <path d="M491.2 262.7l1.3 1.2 6 1.8 2.7-0.6 7.6 0.9 0.3 0 0.2 0.1-0.8 0.4 1.8 1.6 0.4 1.8 0.3 2 1.3 1.9 3.3 3.7 5.8 8.2 3.2 3.4 3.5 1.9 4 0 2.9 7.4 1.8 3.4 2.4 2.6 1.2 0.5-0.8 1.2-1.2 1.5-1.7 1.4-0.3 0.5-0.3 0.6-0.2 0.9-0.3 0.8-0.4 0.7-0.4 0.7-2.3 2.3-0.5 0.4-0.7 0.3-0.7 0.1-0.9-0.1-0.7-0.3-0.8 0-0.7 0.2-0.7 0.5-0.5 0.5-0.4 0.7-0.2 0.8 0.2 1.1 2.5 5.1 0.3 1.2-0.1 0.8-0.3 0.8-0.6 0.7-0.5 1-0.3 0.7 0.2 0.6 0.5 0.3 1.1 0.1 2.7-0.5 0.8 0 0.6 0.3 2.3 1.7 1.1 0.5 3.1 0.6 1.8 1.4 15.8 15.7 1.2 0.4 0.6-0.3 0.2-0.8 0.3-0.8 0.4-0.7 0.6-0.3 0.9 0 0.8 0.2 2.4 1.6 1.1 0.3 1.6 0.3 1.1 0.6 6.1 5.8 2.7 3.2 1.9 1.4 3.7 3.4 2.5 3.7 0.9 0.4 0.8 0.1 0.7 0 0.7 0.4 0.7 0.8 0.4 0.8 0.3 0.9 0.2 1.1 0.2 4.3 0.1 0.6 0.5 1.3 0.2 0.8-0.1 1.1-0.4 1.4-1.9 4-0.8 3.9-5.5-0.5-2.6 1.5-2.9 2.7-0.5 1-3.4 4.1-5.6 4.9-2.1 2.4-1.2 1.8-0.1 1-0.1 1-0.1 1.9-0.2 0.9-0.5 1.9-0.4 1-0.7 1.4-0.7 0.5-0.9 0.1-1.7-0.2-1.7 0.1-0.8-0.1-0.5-0.6-0.8-1.4-0.6-0.7-0.9-0.4-0.5 0.4-0.2 0.7 0 2-0.2 1.2-0.4 0.5-0.3 0.1-0.5-0.4-0.4-0.5-0.4-0.7-0.2-0.8-0.5-0.6-1.8-0.5-4.5 2.6-0.6-3.2-1.8-3.3-1.7-1.6-1.5-1.4-2.2-1.7-0.7-1.2-0.3-1.9 0.5-1.5-0.4-4.8-1.3-3.5-4-6-0.6 1.8-1.1 1.8-1.4 1.6-1.7 1.3-1.1-1.2-2.5 0.3-1-0.8-0.2-1.5 0.2-4-0.5-0.8-1.5-1.2 1.1-2.8 1.8-2.5 0.9-0.8 0.6-0.8 1-1.9 0.3-2-2.1-1.3-0.4-1.2-0.9-6.9 0.1-2.7 1.1-1.8 1.8-1.4 1.5-0.2 0.5-0.6 0.3-0.7 0.2-0.8 0-0.9 0-3-0.9-1.1-1.7-1.3-6.5-2.6-2.4-0.6-3.2 1.5-2.1-1.5-1.1-1.2-4.1-6.5-0.6-0.6-0.6-0.4-0.8-0.4-0.8-0.2-1-0.1-0.8 0.1-3.1 1-0.9 0-0.7-0.3-4.2-3.4-0.4-0.7-0.4-0.8 0-1.6-0.3-1.2-0.8-1.3-1.6-1-0.4-0.7-0.2-1 0.6-2.8 0.4-4.1 0-1.3-0.2-1.5-0.7-2.7-0.3-2-0.2-3.6-0.4-2.4-1.2-3.8-1.1-1.3-1-0.7-0.8-0.4-0.5-0.7-0.3-0.9-1-4.8-0.1-1.1 0.1-1.2 0.7-1.7 0.7-1 0.8-0.6 0.6-0.4 0.6-0.5 0.5-1 0.3-1.5 0.6-4.4 0.2-1.3 0.3-0.8 0.1-0.9-0.2-0.9-0.9-1-3.7-1-0.8 0-0.7 0.2-1.1 1.1-0.6 0.3-0.8 0-0.3-0.8 0.4-1.4 1.9-2.9 1.2-1.3 1-0.8 0.9-1.3-0.8-3.5-0.1-0.3 11.2-2.2z" id="IELM" name="Leitrim">
  </path>
  <path d="M540.4 304.9l1 0.4 5.4 0.9 2 1.5 1 3.8 0.5 10.3 1.8 3.7 2.7 1.6 7.5 1.1 8.2-0.6 2.5 0.5 9.9 7.4 0.9 1.5 0.2 2.1 0.5 2 1.6 1.2 14.7 3.4 2.9-0.6 5.7-4.5 3.4 0.3-1.5 2 0.5 0.4 1.3-0.2 1.2 0.3 1 2.1 0.3 1 0.6 0.1 2-0.5 6.7 2.3 1.4-0.1 0.4 0.4 8.2 3.5 3.1 0.5 1.6-0.5 0.9-0.1 9.7 3 1.1 0.1 1-0.3 1-1 0.7-0.4 0.8-0.2 1.2 0.1 3.4 1 1.2 0.1 1-0.3 1.8-1.3 0.7-0.3 3.6-0.5 0.8 0.2 0.4 0.5-0.1 1.2-0.4 0.7-0.4 0.7 0.9 1.4 12.2 12.5 2.8 1.9 0.8 0.3 1.1 1 1.2 1.7 5 9 0.6 1.5 1 3.1 2.2 2.2 8.5 5.1-2.8 3-0.3 0.9-0.7 0.9-0.9 0.4-2-0.3-1.4 0.1-1.4 0.5-4.1 2.4-3 0.5-1.5-0.1-1.2-0.3-0.6-0.4-1.1-1.1-0.6-0.4-0.8-0.4-0.8-0.3-0.7 0-0.6 0.2-0.1 0.9 0.2 0.8 0.3 0.8 0.1 0.9 0 0.8-0.4 0.6-0.5 0.5-0.9 0.2-0.8 0-2-1-0.6 0-0.1 0.8 0.2 0.9 0.3 0.9 1.6 3.7 0.9 1.2 3.9 4.6 0.3 0.7 0.2 0.7 0 0.9-0.4 0.8-0.8 0.8-1.2 0.8-0.5 1-0.8 1.1-1.2 1.1-4.1 2.2-3.3 0.4-9.7-2-5.5-2.7-2-0.6-1.1-0.5-1-0.3-0.9 0-2.7 1.9-1.9 1-1.9 0.5-1 0.7-0.8 0.7-1.4 0.4-1.9-0.4-3.8-2-1.5-1.2-0.9-0.9-0.5-1-0.8-1.2-1.9-0.3-5.6 2.8-6.9 3.8-7.5-6.5-1.8-2.6-0.2-0.9 0-1-0.3-1.3-0.5-1.6-1.3-2.7-0.9-1.2-0.9-0.8-2.8-0.6-1.8 0-0.8 0.1-3.2 1.1-1 0.1-1-0.1-0.5-0.6 0-0.7 0.2-0.8 0.7-1.5 0.3-0.7 0.5-0.7 0.6-0.3 0.8-0.2 0.6-0.3 0.1-0.7-0.1-1-0.4-1.2-0.9-1.7-0.9-0.7-2-0.5-0.9-0.9-0.5-0.9-2.5-4.5 0.8-3.9 1.9-4 0.4-1.4 0.1-1.1-0.2-0.8-0.5-1.3-0.1-0.6-0.2-4.3-0.2-1.1-0.3-0.9-0.4-0.8-0.7-0.8-0.7-0.4-0.7 0-0.8-0.1-0.9-0.4-2.5-3.7-3.7-3.4-1.9-1.4-2.7-3.2-6.1-5.8-1.1-0.6-1.6-0.3-1.1-0.3-2.4-1.6-0.8-0.2-0.9 0-0.6 0.3-0.4 0.7-0.3 0.8-0.2 0.8-0.6 0.3-1.2-0.4-15.8-15.7-1.8-1.4-3.1-0.6-1.1-0.5-2.3-1.7-0.6-0.3-0.8 0-2.7 0.5-1.1-0.1-0.5-0.3-0.2-0.6 0.3-0.7 0.5-1 0.6-0.7 0.3-0.8 0.1-0.8-0.3-1.2-2.5-5.1-0.2-1.1 0.2-0.8 0.4-0.7 0.5-0.5 0.7-0.5 0.7-0.2 0.8 0 0.7 0.3 0.9 0.1 0.7-0.1 0.7-0.3 0.5-0.4 2.3-2.3 0.4-0.7 0.4-0.7 0.3-0.8 0.2-0.9 0.3-0.6 0.3-0.5 1.7-1.4 1.2-1.5 0.8-1.2z" id="IECN" name="Cavan">
  </path>
  <path d="M626.3 348.3l0.8-0.1-3.1-6.6 0-1.6 1-1.2 4.2-2.5 0.4 0.6-0.4 1.7-0.2 2.1 0.1 2.7-0.2 2.1 0.5 1 1.9-1 1.3-1.4 1-2.1 0.3-2.4-0.6-2.3 2.7-1.4-0.2-1.2-1.2-1.1-0.7-1 0.8-2.3 0.8-1.5 1.2-1.2 1.5-1.2 7.6-2 2.9-1.9-0.9-3.9 1.9-2.7-4.9-4.1 0.9-3.3-4.6-2.3-0.4-2.5 0.7-0.2 1 0.3 0.8-0.9 0.1 0 1.1-2.2 0-0.1-0.4-0.4-0.5-1.2-0.4-1.4 0.2-1.1 0.4-0.3 0.6-0.3 2.4 0.5 1.1 0 4.5-3.5 6.7-10.6 4-3.9 4.3-0.4 4.7 2.3 8.5 7.2 0.9 1.6 1.3 4 1.1 0.7 1.6 0.1 0.9 0.9 1.3 3.7 1.6 4.4 0.3 3.4-1.1 2.4-2.4 1.3 4.8 2.5 1.3 1.4 0.6 2 0.5 2.3 0.8 2.4 2.2 3.7 2.7 3.2 2.9 2.5 3 1.9 1.7 0.1 1.1-1.2 1-1.5 1.5-0.9 1.6 0.2 1.5 0.9 2.9 2.5 2 2.3 1.1 1.4 0.8 4.2-1.3 4.2-3.1 4 1.4 2.7-0.1 2.7-2.2 5.5 2.1 1.7 3.7 4.5 2 1.1 0.7-0.5 0.8-1.2 3.7 0.9 1.1 0.7 0.6 0.6 0.4 0.7 0.3 0.7 0.9 3.2 0.2 0.9-0.1 1.8-0.1 0.6 0 0.4 0 0.3 0.4 1.4 0.1 1-0.3 1.2-0.8 1.5-1.5 0.7-1 0-0.7-0.4-1.2-1-0.7-0.3-0.8-0.2-1.1 0.5-1.2 0.9-1.8 2.4-0.8 1.5-0.2 1.8 0 1.1 0.1 1 0.4 0.9 0.7 0.9 0 1.4-0.4 1-7.1 4.5-5.7-2.7-3.1 0.6-8.5-5.1-2.2-2.2-1-3.1-0.6-1.5-5-9-1.2-1.7-1.1-1-0.8-0.3-2.8-1.9-12.2-12.5-0.9-1.4 0.4-0.7 0.4-0.7 0.1-1.2-0.4-0.5-0.8-0.2-3.6 0.5-0.7 0.3-1.8 1.3-1 0.3-1.2-0.1-3.4-1-1.2-0.1-0.8 0.2-0.7 0.4-1 1-1 0.3-1.1-0.1-9.7-3-0.9 0.1-1.6 0.5-3.1-0.5-8.2-3.5-0.4-0.4z" id="IEMN" name="Monaghan">
  </path>
  <path d="M713.1 397.2l7.1-4.5 0.4-1 0-1.4-0.7-0.9-0.4-0.9-0.1-1 0-1.1 0.2-1.8 0.8-1.5 1.8-2.4 1.2-0.9 1.1-0.5 0.8 0.2 0.7 0.3 1.2 1 0.7 0.4 1 0 1.5-0.7 0.8-1.5 0.3-1.2-0.1-1-0.4-1.4 0-0.3 0-0.4 0.1-0.6 0.1-1.8-0.2-0.9-0.9-3.2-0.3-0.7-0.4-0.7-0.6-0.6-1.1-0.7-3.7-0.9 0.7-1 0.7-0.8 1.1-0.3 2.1 0.9 1.1 0.2 11.7-4.4 3.8-0.2 0.1 0.4 0.5 1 0.9 1 0.8 0.7 1 0 3.5-1.3 3.3-0.6 0.8-0.8 0.6-2-0.1-1.9-0.2-1.8 0.2-1.5 1.8-3.1 1.1 0.2 1.1 1.6 1.6 1.2 1.8-0.4 2-1 2-0.3 2.1 1.7 8.6 8.5 2.1 1.1 1 0.7 2 3.3 0.8 0.8 3 0.3 1.1 0.4 1.1 0.7 2.6 3.9-0.5 2.9-4.5 5.4-2.3 0.9-3.5-1.3-3.2-2-1.9-1.6-1.9 0.3-9.6-4.2-7.3-0.9 0 1.7 1.7 1.2-0.9 2.2-1.7 3-0.9 3.9-0.7 6.9-0.1 4.2 0.8 4.1 3 4.2 4.6 2.4 10.2 1.4 0 1.7-1.5 4.2-0.1 4.1 1.4 3.5 3 2.5-2.8 3.2-0.7 6.2 0.4 6.1-0.8 0.3-7.9 2.9-1.3 0.1-13.2-0.6-3.7 0.5-0.9-0.2-0.9-0.9-0.8-2.2-0.1-1.4 0.2-1 0.4-0.7 1.7-2.6 0.3-0.8 0-0.8-0.5-0.7-1.4-0.7-1.1-0.3-4.7-0.1-0.5-0.1-0.7-0.5-2.6-2.6-1.2-2.5-0.5-0.8-0.7-0.5-1.2-0.5-0.9-0.8-0.8-1.8-0.9-3-1.5-2.9-0.2-0.7-0.1-1 0-1.9-0.1-0.9-0.1-0.9-0.2-0.8-2.7-2.5-10.7-6.9z" id="IELH" name="Louth">
  </path>
  <path d="M759.4 523.6l-2.4 1.1-1.7 2.9 0.9 1.7 3.7-0.9 1.4 2.6 5.1 1.5 3.3 2.5 1.2 4.6-0.7 3.2-1.9 2.5 0.3 4.3-0.3 3.7-0.4 3-0.8 0.1-1.3 1.1-0.5 1-0.2 1.1-0.2 1.8-0.6 1.7-0.3 0.8-0.5 0.7-0.5 0.5-0.5 0.4-1 0-1.2-0.5-2.1-1.8-0.8-1.2-0.3-1.2 0-0.9-1.4-1.1-1.3-0.8-11.6-3.3-0.8-2.4-0.5-0.5-0.8-0.6-0.7-0.2-3.8-0.1-0.7-0.2-0.3-0.7 0.1-0.9 0.9-1.1 0.7-0.6 0.6-0.7 0-0.8-0.4-0.8-0.5-0.5-0.4-0.2-0.6-0.3-0.6-0.4-0.5-1-0.1-1.6 0.9-3.8 0.8-2.2 1.6-2.5 0.6-0.9 1.1-0.9 0.3-0.8 1.3-5.9 1.4-2.9 2.6 1.5 1.9-0.3 1.6-2 2.9 0 2.2 0.9 1.5-0.9 2.4 0 1.9 3.2z" id="IED" name="Dublin">
  </path>
  <path d="M759.4 523.6l-2.4 1.1-1.7 2.9 0.9 1.7 3.7-0.9 1.4 2.6 5.1 1.5 3.3 2.5 1.2 4.6-0.7 3.2-1.9 2.5 0.3 4.3-0.3 3.7-0.4 3-0.8 0.1-1.3 1.1-0.5 1-0.2 1.1-0.2 1.8-0.6 1.7-0.3 0.8-0.5 0.7-0.5 0.5-0.5 0.4-1 0-1.2-0.5-2.1-1.8-0.8-1.2-0.3-1.2 0-0.9-1.4-1.1-1.3-0.8-11.6-3.3-0.8-2.4-0.5-0.5-0.8-0.6-0.7-0.2-3.8-0.1-0.7-0.2-0.3-0.7 0.1-0.9 0.9-1.1 0.7-0.6 0.6-0.7 0-0.8-0.4-0.8-0.5-0.5-0.4-0.2-0.6-0.3-0.6-0.4-0.5-1-0.1-1.6 0.9-3.8 0.8-2.2 1.6-2.5 0.6-0.9 1.1-0.9 0.3-0.8 1.3-5.9 1.4-2.9 2.6 1.5 1.9-0.3 1.6-2 2.9 0 2.2 0.9 1.5-0.9 2.4 0 1.9 3.2z" id="IED" name="Dún Laoghaire–Rathdown">
  </path>
  <path d="M767.9 556.3l0.8 0.3 1.3 1.2 1.2 0.8 2.3 1.2 1.4 0.3 1.1 0 4.1-2.2 1.1 0 0.9 0.1 6 3.5 1.1 0.4 0.8 0.2 0.7-0.2 0.6-0.3 1.4-1.2 2.2-1.1 0.1 0 1.6 2 0.8 2.5-1 4.2 1.8 2.7 4.8 9.9-0.3 0.9-0.1 0.1-0.1 0-0.5 0.4 0.7 3.8-0.2 5.5-0.8 5.4-1.1 3.5-0.6 3.6 1.8 3.6 5.8 6.6 0.4 1.7-1.8 0.8-0.7 0.9-1.4 4.3-0.7 1-1.5 1.6-4.6 10.8 1 1.7-5.9 5.7-1.6 2.1-1.5 3.3-3.3 10.8 0.8 5-0.4 1.1-0.6-0.9-0.5-1.5-0.2-0.8-0.6-1.4-0.4-0.5-0.3-0.3-0.3-0.3-2-1.2-0.9-0.3-4.2-0.3-0.8-0.4-0.4-0.5-0.3-0.7-0.3-0.8-0.3-0.7-0.5-0.5-0.8-0.3-1.1 0-1.2 0.4-1.6 1.2-1.1 0.6-1.1 0.3-1.2-0.4-0.7-0.6-0.6-0.6-0.7-0.4-1-0.3-5.9 0.7-1.3 0.7-1.3 0.9-1.7 1.8-0.6 1.2-0.5 1.2-0.2 0.8-0.3 0.8-0.4 0.7-0.5 0.5-0.5 0.5-0.5 0.5-0.4 0.7-0.9 2.4-0.7 1.3-0.5 0.6-0.5 0.5-1.9 1.2-0.5 0.5-0.5 0.6-0.4 0.6-0.8 1.4-0.4 0.7-0.6 0.6-0.7 0.6-5.2 2.5-0.8 0.2-0.8 0-1-0.2-1-0.6-1-1.5-0.5-1-1.6-1.5-4.8-2-2.4-4.2-0.6-0.7-0.7-1.1-0.4-1-0.4-1.8-0.5-1.4-1.7-2.4-0.7-0.7-0.6-0.2-0.7 0.1-1.2 0.6-0.6-0.2-0.4-0.9 0-2 0.1-1.3 0.2-1.1 0.4-1.7 0.7-1.5 1.5-2.7 0.4-1.7 0.3-0.8 0.5-0.5 0.7-0.2 0.7 0.2 3.4 1.9 0.5 0.5 0.5 0.6 0.8 1.2 0.5 0.6 0.5 0.5 0.7 0.4 1.7 0.4 1.8 0 0.8-0.2 1.3-0.7 1.2-0.9 1.3-0.8 2.8-1.1 0.7-0.4 0.3-0.7 0.1-0.9 0-1-0.2-4.7 0.1-0.8 0.2-0.7 0.5-0.4 0.6-0.2 0.4-0.2 0.4-0.5 0-0.8-0.4-1.1-0.4-0.6-0.6-0.5-0.6-0.3-0.7-0.1-1.1 0.5-0.8 0.5-0.8 0.3-0.9 0.1-1-0.1-2.1-0.8-1.3-1.2-4.7-2.2-16.9-4.8 0.3-2.6-0.3-1.7-0.5-1.4-0.8-1.3-1.7-2.4-3.8-4.6-0.3-0.7-0.1-0.8 0.1-0.8 0.4-1 2.1-4.4 4.1-6.8 1.7-3.6 0.5-0.9 0.8-0.7 3.6-1.7 2.6-1.6 5-2.1 0.7-0.5 6.3-5.8 0.9-1.1 0.5-1 0.3-1.3-0.1-1-0.1-0.9 0.3-1 0.5-0.9 2.1-1.3 0.7-0.7 0.1-1.4-0.2-0.9-0.6-1.5-0.1-0.9 0.4-0.8 0.7-0.7 3.4-1.1 0.7-0.6 0.6-1 0.7-2.9 0.6-1 0.5-0.5 3.5-2.5 11.6 3.3 1.3 0.8 1.4 1.1 0 0.9 0.3 1.2 0.8 1.2 2.1 1.8 1.2 0.5 1 0 0.5-0.4 0.5-0.5 0.5-0.7 0.3-0.8 0.6-1.7 0.2-1.8 0.2-1.1 0.5-1 1.3-1.1 0.8-0.1z" id="IEWW" name="Wicklow">
  </path>
  <path d="M723.5 671.5l4.8 2 1.6 1.5 0.5 1 1 1.5 1 0.6 1 0.2 0.8 0 0.8-0.2 5.2-2.5 0.7-0.6 0.6-0.6 0.4-0.7 0.8-1.4 0.4-0.6 0.5-0.6 0.5-0.5 1.9-1.2 0.5-0.5 0.5-0.6 0.7-1.3 0.9-2.4 0.4-0.7 0.5-0.5 0.5-0.5 0.5-0.5 0.4-0.7 0.3-0.8 0.2-0.8 0.5-1.2 0.6-1.2 1.7-1.8 1.3-0.9 1.3-0.7 5.9-0.7 1 0.3 0.7 0.4 0.6 0.6 0.7 0.6 1.2 0.4 1.1-0.3 1.1-0.6 1.6-1.2 1.2-0.4 1.1 0 0.8 0.3 0.5 0.5 0.3 0.7 0.3 0.8 0.3 0.7 0.4 0.5 0.8 0.4 4.2 0.3 0.9 0.3 2 1.2 0.3 0.3 0.3 0.3 0.4 0.5 0.6 1.4 0.2 0.8 0.5 1.5 0.6 0.9-2.4 5.6-6.4 11.5-0.8 4.2 0.2 3.4 1.4 6.5 0.4 3.4-0.4 9.7-1.8 3.9-8.3 13.9-2.5 3-2.3 1.3-2.1 3-3.2 5.7-1.3 3.5-0.1 4.2 0.3 3.9-0.3 3-0.9-1.7-1.1-1.1-1.2-0.5-8 0.7-2.9-0.9 0.8-4.1-1.2 0.5-1.2 0.7-1.1 0.8-1.1 1.1 0 1.4 2.1 0.8 1.9 1.7 1.6 2.5 1 3-0.9 2.3 4.3 1 1.3 1.8 0.7 2.4 1.7-2 3.3-5.5 0 1.4-2.3 4.7 2.7 5.1 7.1 7.2-3.9 9.7-1.8 2.5-1.4 1.4-1 0.4-1.3-0.3-1.7-1.3 0.3-1.2 1-1 1.2-2.8-0.2-1-1.6-0.2-0.8 0.5-1.2 1.7-1.7 1.4-0.2 0.5-0.4 0.2-6 0 0-1.3 2.8 0-1.9-1.7-1.4 0-2.3 1.7-6.6 1.3-5.8 3.5-2.4-0.3-3.6-3.9-2.5-1.3-10.2-3.1-9.7 1.5-2.6-0.7 0-1.7 2.1-0.9 1.9-1.9 1.4-2.9 0.3-3.4-1.7 2.3-2.3 2.3-2.7 1.2-2.7-1.2-0.9 1.4 0.1 1.8 0.2 0.7 0 0.7-0.3 1.6 1.5-1 0.4-0.7 0.9 0-0.5 3.3-0.4 1.3-1 1.4 0.9 0.1 1-0.1 0 1.7-0.5 0.1-0.9-0.1-0.5 0 1 1.5-9.9 6.1-1.4 1.5-1.5 2.8-1.9 1.9-2.3-1.4 1.2-2.8 1.7-1.5 1.7-1.1 1.6-1.7 0-2.2-2.4-9.1-0.8-1.5-1.3-2.1-1.6-1.8-1.5-0.8-1.5-1.5-2-7-1.8-2.4 0.4 2.6-0.5-0.1-0.8-0.3-0.9-0.5-0.5-0.4-0.4-0.6-0.3-0.7 0.1-1.1 0.5-1.4 1.7-3.4 0.4-1.1 0.2-1 0.1-2 0-1.3-0.1-1.1 0.2-1.1 0.5-1.2 2.9-3.2 0.5-0.8 1.2-2.4 0.4-1.3 0.3-1.5 0-2.6-0.2-2.5 0.1-0.7 0.8-0.4 0.8 0 1.5 0.4 0.7-0.9 0.6-1.6 0.5-3.7-0.5-3.9 5.4-0.3 0.8-0.2 1.4-0.7 0.5-0.7 0.4-0.9 0.6-2.8 0.4-1.5 2.5-4.6 0.5-1.7 0.3-1.3 0.7-1.4 5.7-7 0.8-1.8 0.3-2.1 0.2-6 0.7-1.3 1.3-1.4 3.5-2.5 1.9-0.8 1.4-0.4 2.5 0.7 0.9 0.1 0.9 0 0.8-0.3 0.8-0.5 0.9-0.8 1.3-1.7 0.6-1-0.2-0.9-0.4-0.4-0.6-0.3-1-0.4-0.6-0.3-0.4-0.6-0.2-0.8-0.1-0.8 0.3-0.8 0.6-0.6 2.2-0.3 2.1-1.3 3.5-5.2z" id="IEWX" name="Wexford">
  </path>
  <path d="M680.3 727.1l0.5 3.9-0.5 3.7-0.6 1.6-0.7 0.9-1.5-0.4-0.8 0-0.8 0.4-0.1 0.7 0.2 2.5 0 2.6-0.3 1.5-0.4 1.3-1.2 2.4-0.5 0.8-2.9 3.2-0.5 1.2-0.2 1.1 0.1 1.1 0 1.3-0.1 2-0.2 1-0.4 1.1-1.7 3.4-0.5 1.4-0.1 1.1 0.3 0.7 0.4 0.6 0.5 0.4 0.9 0.5 0.8 0.3 0.5 0.1 0.4 2.4-0.6-0.8-2.1 0.8-3.1 2.2-1.3 0.7-1.6 0.5-2.6 0.2-0.8 0.2-1.3-0.2-1.8-0.7-3.7-2.3-3.3-1.6-1.7 0.1-1.1 0.3-0.8 0.4-0.5 0.5-2.2 3.1-0.4 0.5-0.6 0.5-1.3-0.3-2.1-1.4-4-3.5-4.5-5.2-2.7-4-1.7-1.7-5.4-3.7-2.9-7.6-0.6-2.9 0.1-2 0.3-2.2 0.1-4.4-0.3-1.5-0.4-1-4.1-4.2-0.8-1.2-0.9-1.1-2.6-1.9-0.7-0.6-0.1-0.8 0.2-0.7 0.5-0.6 0.9-0.9 2-1.2 1.1-1 0.4-0.5 0.2-0.5 0.1-0.6 0-0.7 0-1.7-0.3-0.8-0.5-0.4-2.1 0.3-0.9-0.3-0.4-0.7-0.3-0.9-0.1-3.8 0.5-5.5 0.1-2.3-0.2-1.2-0.4-0.9-1.4-0.9-0.8-0.7-0.3-1.1 0-3.2-0.3-1.1-0.3-0.8-3.9-4.6-6.5-13.5-0.9-1.3-0.4-0.6-0.6-0.5-2.7-1.5-2.5-1.8-0.7-0.4-3-1.1-3.2-5-0.7-1.6-1.4-4.4 6.8-1.3 0.7-0.6 0.7-0.7 0.3-1.2 0.8-1.5 2.7-2.7 1.4-0.8 1.1-0.1 0.5 0.6 0.7 0.6 1 0.7 2.2 0.6 2.8 1.4 1.9 0.6 0.5 0.3 1.8 1.6 0.9 0.5 1.7 0.7 1 0 6.9-2.8 1.6-1 0.9-1 0.3-0.8 0.5-0.9 0.8-0.9 1.5-1.3 1 0 0.8 0.3 0.8 0.6 0.4-0.3 0.4-0.6 0.8-2.3 0.7-1.4 0.6-0.9 0.8-0.9 1.6-1.4 1.1-0.6 1-0.2 0.8 0.1 2.5 1.3 1.5 0.3 0.9-0.2 0.7-0.4 0.3-0.7 0.4-1.8 0.2-0.7 6-4.5 1.3-0.3 0.9 0 0.7 0.4 4.6 3.9 0.5 0.6 0.2 0.7 0.1 0.8-0.1 2 0.1 0.9 0.2 0.8 0.8 1.3 0.7 1.3 0.6 0.6 0.8 0.6 4.1 0.9 0.7 0.5 0.4 0.5 0.5 0.7 0.6 1.3 0.3 0.8 0.7 1.4 1.3 1.6-2.9 2.8-1.3 3.1-0.9 3-0.3 1.8 0.1 2.8-0.4 0.9-0.6 1 0.4 0.5 1.5 0.5 0.6 0.6 0.6 0.8 0.5 1.4 0.7 0.7 0.7 0.2 0.7-0.3 1.8-1.2 0.7-0.2 0.8 0.1 0.7 0.3 0.7 0.9 0.7 1.1 1.8 3.7 0.1 0.2 1 1.2 1.1 1 0.7 0.4 0.1 0.5-0.1 0.5-0.4 1-0.3 0.9-0.1 1.6 0.1 2.1 0.5 4.2 0.4 1.9 0.4 1.4 0.8 1.3 0.9 1.2 3.7 3.4 1.1 1.3 0.4 1 0.1 1-0.4 2.9-0.2 0.9-0.3 0.8-1.3 1.8-0.1 3.7 2.2 13.3z" id="IEKK" name="Kilkenny">
  </path>
  <path d="M648.7 770.9l3.3 1.6 3.7 2.3 1.8 0.7 1.3 0.2 0.8-0.2 2.6-0.2 1.6-0.5 1.3-0.7 4.3 7.7-3.8 3.5-3.1-0.9-6.5 0.9-5.2-4.9-2.1-9.5z" id="IEWD" name="Waterford">
  </path>
  <path d="M478 859.1l-2.5 5.5-6.3 0-6.8-0.5-4.7-3.1 1.7-7.5 5.2-4.9 7.1 1.3 7.3 5.5-2.8 0.3-2.8 1.7 4.6 1.7z" id="IECO" name="Cork">
  </path>
  <path d="M478 859.1l-2.5 5.5-6.3 0-6.8-0.5-4.7-3.1 1.7-7.5 5.2-4.9 7.1 1.3 7.3 5.5-2.8 0.3-2.8 1.7 4.6 1.7z" id="IECO" name="Cork">
  </path>
  <path d="M365.3 765.8l0.4 2.3-0.3 0.5-5.2 5.1-1.1 1.9-0.5 1.8-0.2 2.2 0.1 1.2 0.2 1 0.7 1.4 0.5 0.8 0.5 1.2 1.2 2.1 0.3 0.7 0.5 1.6 2.4 12.3 3.2 9.8 0.8 1.4 0.2 0.3 0.4 0.4 0.5 0.3 0.5 0.2 0.2 0.3-0.1 0.6-0.3 0.9-0.3 0.4-0.6 0.6-1.2 0.7-0.7 1-0.6 1.6-0.5 3.6 0.1 1.8 0.4 1.1 0.6 0.3 1.7 0.3 0.8 0.3 0.6 0.3 2.3 1.8 2.9 1.3 1.9 0.4 0.5 0.2 0.5 0.4 0.2 0.8-0.1 0.9-0.3 0.8-0.6 0.9-0.7 0.6-0.8 0.2-1.7-0.2-0.8 0-10.9 3.2-1.9 1.2-0.5 0.4-1.4 1.6-1.3 0.8-2.1 0.9-0.7 0.6-0.7 0.7-0.7 1.2-0.2 0.9 0.1 0.9 0.3 0.6 0.4 0.6 1.5 1.7 0.4 0.7 1.2 4.1 0 1.1-0.2 1-0.6 0.9-1.6 1.8-1.2 1.6-1 1.7-1.9 2.3-0.9 0.5-1.6 0.5-0.7 0.3-1.2 0.8-0.8 0.3-2.7 0.3-1.4 0.5-3.2 1.9-0.8 0.7-0.9 1.2-1.3 2.6-0.9 1.3-0.7 0.8-0.7 0.3-0.8 0.2-3.5 0.4-2.6 0.7-1.5 0.2-0.8-0.1-1.6-0.4-1.8-0.1-8.4 1.6-0.6 0.3-0.8 0.6-4.2 5.2-1.1 1-0.7 0.6-0.7 0.3-0.8 0.2-3.7 0-0.8 0.2-0.7 0.3-1.2 0.8-0.6 0.5-6.7 8.5-0.6 0.4-0.7 0.4-0.8 0.2-1.8 0.1-2.3 0.5-0.7-0.1-0.4-0.6-0.1-0.8 0.2-0.7 0.5-1.5 0.1-0.8-0.2-0.7-0.5-0.5-1.3-0.8-0.2-0.6 0-0.7 0.1-0.8 0-0.8-0.4-1.6-0.7-1.2-0.5-0.7-0.9-0.9-0.9-0.7-0.5-0.6 0.6-0.9 0.3-3.7 1.8 1.3 2.4 0.4 5.2-0.2 0-1.5-1.1-0.2-2.7-1.3 0-1.3 1.9-1.3 3.5-4.1 2.7-1.5 1.6-3 0.7-0.9 1.1-0.3 3.6 0.3 4.4-1.4 8.1-4.6 4.4-1.4 0-1.7-10 1.3-14.4 5.5-2.6 1.6-1.2 1.4-0.8 1.5-4.6 0-2.1 0.7 0.9 1.6-4.1 2.7-1.5 0.4 0.2-1.1 0.4-2.5 0.3-1.1-2 0-1.1 0.9-0.8 1.2-0.8 0.9-1.7 0.6-3.3 0.5-1.6 0.6-6 4.8-3.1 1.4-3.1-1.7-2.8 3-3.5 2.8-3.6 2.2-3.4 1.1 0.8-2.9-13-6.2 5.3-1.6 1.2-5.4-2.3-5.6-5.6-2.7-1.5 1.2-3.5 5.3-1.6 1.2-1.6 0.9-4.3 4-2.1 1.4-0.7-2.9 1.6-6.5-0.9-2.9-2-0.5-2.8 0.3-1.8-0.4 1-2.5-0.1-1-0.3-0.3-0.3 0-0.2-0.2 0.2-0.8 0.3-0.5 0.3-0.6 0.1-1.1-0.5-0.1-0.9 0.1-0.5 0 0-1.5 4.5-0.6 11.5-4.1 2.3 0 1.2-0.7 0.4-1.5-0.1-1.6-0.5-0.7-1.9-1.1-1.2-2.5-1.4-2.2-2.6-0.4 0-1.4 1.6-1 3.4-1.2 1.7-0.9-1.1-3.3 2.8-1.5 3.9-0.8 3.5-2.5 8.8-4.1 13-2.8 5.6-3.4 2.9-7.6 1.1 0-0.1 4.1 1.3 1.7 2 0.4 1.9-0.1-0.5-2 2.9-13.2 4.3 2.5 4.3 0.2 10.2-1.3-1-0.9-1.1-1.5-0.8-0.7 4.8-3.1-27.3 1.6 1.8 4.6-0.9 2.5-0.6 1-0.8-3.6-1.4-1.5-1.8-0.9-1.9-0.6-4.2-0.3-18.5 4.7-3.2 2.1-1.5-1.4-1.4-2.1-1.4-1.3-1.4 0.5-1 1.4-1 0.6-3.5-3.6-1.6-0.1-3.8 1.2 0 1.4 1.4 0 1.1 0.3 2.3 1.2 0 1.4-3.5-0.6-6.5-2.3-3.2 0 0.1 1.5 0.4 0.7 1.4 0.7-3 0.1-5.4 2.6-2.9 0.5-3.3-1.3-1-2.7-0.2-3.8-1.2-4.5 1.2-0.6 2.5-2.4 0-1.4-1.4-1.8 1.6-2 2.9-1.7 2.6-0.7-1 3 3.1 2.6 1.7 0.6 1.4-0.8 0.3-1.8-0.4-1.6-0.1-1.6 1.6-2-1.4-1.1-0.6-0.3 1.3-3.4 1.6-0.9 2.1 0.1 2.6-0.6 1.6-1.7 3-4.9 1.6-1 14.3-4.2 2.1 1.9-1.6 8.5 0.2 1.4 9-1.4 4-2.4 3.7-4 1.2-4.8-3.3-4.3 4.9-0.1 1.5 0.8-0.7 2.4 0.7 3.2 0.1 3.5 0.6 2.8 1.9 1.2 2.3 0.4 4.2 2 4.6 1 5.7 0.1 2-1.2 2.8-3.7 1.6-0.9 1.7 0.8-0.9 0.7-0.9 0.8 2.3 1.4 9.9-1.4-2.2-2.3-1.9-0.6-4.4 0-4.4-2.6-2.1-0.5-2.1 1.5-1-1.1-0.8-1.4-0.5-1.7-0.3-2 1.7 1.6 1.2 0.9 1.5 0 2.1-1-1.8-1.1-0.9-0.3-1.2-0.1 0-1.7 1.4-0.1 3.5-1.3-1.5-3.8 0.4-10.9-2.3-2.3-7.2-1.4-3.9-1.9-2.5-2.7 2.1-2.2 2.6-0.9 9.3-0.6 13.7-6.4 1.8-1.6 2-3 2.4-1.5 3.6 0.1 3.6 1 2.3 1.2-0.6-3.1-1.6-1.5-2.2-0.4-2.3 0.3 0.8-1.2 0.3-1.2-0.3-1.1-0.8-1.2 0-1.5 1.1-1.4 0.3-1.3-0.4-2.7 0.5-1.6 3.3-4 0.7 0.7 0.9-0.6 1.1-1.1 1.4-0.5 5.7 1.5 10.9 0 1.1 0.5 1.2 1 1.4 0.5 1.4-1.1 1-1.5 0.9-0.7 1.1-0.2 10.4 0.4 0.7 1.4 1.9 2.4 0.4 2.1 0.3 1.9 1.2 2.2 1.2 1.5 1.6 1.7 0.8 1.2 0.5 1.2 0.1 1.6-0.3 0.9-0.4 0.7-0.6 0.5-0.6 0.5-0.3 0.6-0.3 0.7-0.3 1.7-0.3 1.1-0.5 0.9-0.4 1.8 0 1.1 0.3 0.9 0.7 1.3 0.5 0.7 0.5 0.8 0.6 1.3-0.1 0.8-0.3 0.7-0.6 0.5-0.4 0.5-0.5 0.9-0.4 1-0.3 1.8 0 0.9 0.2 1 0.3 0.4 1.6 1.6 0.5 0.7 0.6 1.2 0 0.9-0.3 0.8-0.5 0.5-2.1 1-0.6 0.6-0.3 1.3 0.2 0.7 0.4 0.6 2.2 1 0.6 0.5 0.9 1.3 0.7 1.2 0.4 0.5 0.7 0.4 2.4 0.7 1.9 1.2 2.1 1 0.7 0.5 0.7 0.6 0.4 0.6 1.7 2.8z m-150.6 82.4l1.5 0.2 0.6 1.4-1 1.7-2.5 1.7-5.3 2.5-4.8 0.5-1.3 1.3-2.8 0.4-0.4-1.7 2.4-3.2 7-4.8 1.3-1.2 2.5 0.1 1 0.2 1 1.1 0.8-0.2z" id="IEKY" name="Kerry">
  </path>
  <path d="M454.4 679.5l0.6 8-3.3 4-7.9-1.3-2.9-5.3 3.9-1.5 0.3-0.6 0.4-3.1 0.7-1 1.1-0.2 0.6 0.6 0.4 0.8 0.8 0.4 2 0.1 1.8-0.3 1.5-0.6z" id="IELK" name="Limerick">
  </path>
  <path d="M440.9 684.9l-2.2 0.4-1.1-1.1-0.7-2.3-1.7-1.4-2.1-0.4-2.1 0.2-0.1 0-1.7 0-2.5 0-8.9-3.6-4.6-1-8.9 1.4-2.4-0.4-1.5-1.1-0.2-1.4 1.8-1.6 0-1.5-0.6-2 0.2-2.7-0.3-2.3-2.1-0.9 1.1-1.8 1.6-3 1-1.3-3.6 1-4.3 2.4-3.2 3-0.3 2.9-4.5 8.5-12.1 16.6-2.6 1.4-12.3 1.4-0.7 0.6-2.2 3-1.3 1-1.7 0.3-1.8-0.2-1.6-0.7-1.4-0.9 2.2-2 3-2 2.2-2.4 0-3-4.3 2.7-10.1 3.2-7 0.2-2.9-0.5-2.7-1.2-1.1-2-1-1.3-4.7-0.6-1.8-1.9 0.7-3.6-1.5-1.2-5 0.1 0 1.6 1.2 0.4 1.1 0.9 0.9 1.4 0.6 1.8-10.4 4.9-6.1 1.3-3 1.4-1.2 2.5-0.5 3.2-1 0.4-1.3-0.8-1-0.4-3.6 2.7-24.6 3.4 0-1.4 2.5-1.1 5.8-4.3 7.1-1.9 27.8-26.8-0.3-0.9-0.6-2.2 1.5-0.7 2-1.7 1.3-0.7 1.8-0.5 4.3 0.5 1.5-0.3 2.6-1.1 1.5-0.3 1.3-0.9 0.6-2.2 0.4-2.5 1.1-2.2-0.8-0.9 0-0.1 0.4-0.3 0.4-1.6-1.1-1.7 1.5-0.8 1.5-1.5 1.4-1.8 1.3-2.1 0.8-2 0.4-1.8 0.5-1.4 1.2-1 0-1.6 0.2-3 8.5-8.3 1.6-4.4-2.6-0.8-10.8 0.6-3.6-1.3 3.9-3.9 1.6-2.1 4.1-7 1.3-1.6 1.5-1-1-1.6 7.3-14 3-3.3 2.3-3.8 1.8-4.9 2.4-4 2.9-1.2 3.3 1.9 6.4 6.2 3 1.3 2.7-1 2.8-1.8 3.1-0.9 3.2 2 0.4-3.7-2-2-6-2 0-1.7 8.1-1.5 2.1 0.8 4.2 3.5 2.7 0.3 0-0.2 0.4 0.3-0.1 1.3-0.2 0.5-0.4 0.5-0.3 0.2-1.2 0.5-0.4 0.5-0.3 0.8-0.1 0.9 0 0.9 0.2 0.9 0.2 0.8 0.3 0.8 0.3 0.6 0.4 0.7 0.4 0.6 1 0.9 14.8 8.6 0.5 0.6 0.4 0.7 0.2 0.8 0 0.9-0.1 0.9-0.2 0.8 0 0.9 0.1 0.9 0.3 0.8 0.3 0.7 0.4 0.6 0.3 0.8 0.1 0.7-0.1 0.8-0.4 0.6-0.7 1.2-0.2 0.4-0.1 0.3 0 0.4 0 0.7 0.5 2.5 0.3 0.8 0.3 0.7 0.5 0.7 2.1 1.1 0.7 0.2 0.7 0 0.9-0.9 0.4-0.9 0.5-0.6 0.7-0.1 1 0.8 0.9 0.5 1.1 0.3 1.6 0 1.3-0.1 1.7-0.9 1.9-1.9 2.4-1.7 0.5-0.5 0.8-1.3 0.4-0.9 0.3-0.6 0.9-1.3 1-1.1 0.7-0.5 2.4-0.8 2.3-1.2 1.6-0.5 9.7-0.7 1.7 0.2 1.4 0.5 4.7 3.5 3.1 1.5 1.5 1.5 0.3 0.6 0.3 1.1 0.4 1.6 0.7 1.3 2.4 1.2 4.7 1.2 1.6-0.1 1.5-0.9 1.2-0.5 1.3-0.2 5.4 1.5 2.4 0 4.9-1.8 1.1 1.2 2 1.2 0.5 0.5 0.5 0.5 0.2 0.8-0.2 1.1-0.6 1.3-6.6 9.2-0.9 0.7-0.8 0.2-5.7-0.2-0.8 0.1-0.7 0.8-0.6 1.4-0.9 4.6-0.5 1.5-0.5 1.2-2.6 3.8-0.3 0.9-0.3 1.2-0.1 1.2-1.4 4 0.4 5.3-1.8 5-2.4 3.7-4.4 2.4 0 2.4 0.6 2.9-0.4 2.4-0.8 1-1 0.6-1 0.5-1 0.1-1.4 0.5-0.5 1.3-0.4 1.5-0.9 1.4-1.3 0.8-1.5 0.6-1.8 0.3-2-0.1-0.8-0.4-0.4-0.8-0.6-0.6-1.1 0.2-0.7 1-0.4 3.1-0.3 0.6-3.9 1.5z" id="IECE" name="Clare">
  </path>
  <path d="M378.6 546l0.4-5.7 4.3-5.3 6.2-5.1 9.4 4.3 6.9 3.3 1.6 8.6-4.5-0.1 0-1.5-10.9-1.6-2.8 0.5-4.8 2.1-5.8 0.5z" id="IEG" name="Galway">
  </path>
  <path d="M378.6 546l0.4-5.7 4.3-5.3 6.2-5.1 9.4 4.3 6.9 3.3 1.6 8.6-4.5-0.1 0-1.5-10.9-1.6-2.8 0.5-4.8 2.1-5.8 0.5z" id="IEG" name="Galway">
  </path>
  <path d="M420.2 452.3l-4.3 2.6-5.7 1.6-9.2 0-1.4 0.5-0.9 0.7-0.2 2.9-0.2 0.9-0.4 1.7-0.5 1-0.8 1.3-2.6 2.9-0.5 1.1-0.2 1.1-0.5 1.4-0.9 0.7-1.5 0.6-0.8 0.6-0.5 0.7 0 0.8 0.3 0.7 0.4 0.7 0.4 0.7-0.1 1.2-0.8 1.6-5.4 7-2.3 3.6-1.1 1.2-3.3 2.7-1.3 0.6-1.1 0.3-1.1 0.1-4.4 1.1-1-0.1-2.4-0.9-1.4-0.7-0.5-0.5-0.5-0.6-0.3-0.6-0.3-0.8-0.3-0.6-0.6-0.9-0.5-0.5-2.1-0.9-0.6-0.4-0.6-0.5-0.9-1.4-0.6-1.2-0.3-1-0.4-2.6-0.8-0.7-1.3-0.6-5.1 0-1.2-0.2-0.4-0.6-0.1-0.8 0.1-0.6 0.3-1 0-0.8-0.1-0.9-1.4-0.4-13.1 0.8-1.7-0.3-2.9-1.4-0.5-0.5-1-1-0.4-0.4-0.4-0.3-0.6-0.2-3.8-0.6-0.7-0.2-0.6-0.6-0.4-0.6-0.1-0.9-0.3-2-0.3-1-0.8-1.1-0.8 0-0.9 0.4-1.2 0.8-1.1 0.3-15.1 0.1 0-0.4-2.4-1.2-9.5 0.8-6-2.3-11.2-6.9-1.9-10.4 0.8-4.9 1.5-3.8 0.9-3.6-1.3-4.3 1.3-0.9 5.3-0.9 3.7-1.5 3.2-0.4 1.5-0.5 1.4-1.4 0.8-0.2 2.8 1.9 1.5 0.6 25.5-4.6 0-1.7-2.1-0.4-5.5-2.8 0.8-0.5 0.5-0.5 0.7-0.4 0.9-0.2 0-1.6-0.6-1.9 1.4-2.1 4.8-3.9-1.1-0.1-2.6-1.5 1.1-1 0.8-1.4 0.6-1.8 0.3-2.2-0.9 0.2-0.6 0.2-0.5 0.4-0.8 0.8-3.9-1.5-19.6-0.1-13.5 7.7-7.5 1.8-4.5-4.8 1.7-1.4 0.8-6.5 2.3-1.7-0.4-2.2 0-1 0.4-1.6 0-1.4-1 0 0-1.6 6.6-1.8 1.2 0.7 3 2.2 1.9 0.5 1.6 1.2 0.6 5.5 1.6 1.2 1.2-0.7-0.1-1.9-0.2-2.6 0.5-2.7-1.3-1.4-1.1-1.8-1.3-1.3-1.9-0.3 0 1.4 0.9 1.8-1.6-0.6-1-1.7-1.6-5.8 0.1-1.1 0-1-0.6-1.1-0.9-0.2-2.3 0.3-0.5-0.8-0.5-1.5-1-1.3-1-1.9-0.4-3.5 0.6-3.5 1.5-1.1 1.8-0.5 1.6-2.2-1.9-0.8 0-1.4 1.2-1.4 1.8-1-1.1-1.6 3.9-3.3-1.3-1.2-1.6-0.1-3.6 1.3 0.3 1.9-0.1 0.9-0.7 0.3-1.5 0.2 0 1.6 1 0-4 5-3.9 0.8-3.4-2.9-2.8-6.1 2.7 0.1 6.2-1.8 2.4-1.5-4.1-3.1-1.7-2.3-0.8-2.7 0.9 0.5 1.9 0.7 0.9 0.5-1.8-2.8-4.7-5.4 1.8 1.3 1.7 0.1 1.3-1 0.8-2-7.1-6-3.1-1.2-2.1 2.4 2 2.5-0.8 2-2.3 0.9-2.6-0.6 1.2 2.5 0.7 0.7 0 1.6-2-0.2-1.7 0.3-2.9 1.7 0 1.5 1.8 0.6 0.7 1.4 0.3 4.5-1.2 0.1-2.6 1.5 1.8 1.3 1.7 2.2 0.3 2-2.4 0.9-2.5-0.2-2.1-0.9-1.2-2.4-0.2-4.5 0.8-2.8 3.1-6.6 0.7-2.7 0.4-4.3 1.2-1.9 1.5-1.5 1.6-2.9-4.3-0.1-1.7-0.9-1.5-2.1 2.6 0 1.2-2.2 0.8-3.1 1.1-2.7 1.5-1.4 6-3.6 0.6-1 0.3-1.2 0.6-0.9 1.4-0.1 0.8 0.8 0.3 1.4 0.2 1.5 0.5 1.1 1.7 1.5 2.4 1.2 2.4 0.3 2-1.3 1 1.8 1.1 1 1.2 0 1.4-1.1 0.2 0.7 0 0.4 0.1 0.2 0.7 0.1-3.1 5.9-3.2 2.7-3.4-0.4-3.5-3.3-0.9 4.6 2.1 1.4 3.3 0.2 2.5 1.1 2.2 1.6 1.9-1.7 1.8-2.6 2.1-1.3-1.9-2.8 0.9-3.8 2.2-3.3 2.1-1.4 3 0.8 4.8 3.6 3 0.5-0.8-2-1-1.3-2.9-1.6 0-1.7 1.4-0.5 1.3-0.1 3 0.6-2.6-1.5-7.2-1.6-1.5-2.4-0.8-3.4 0.3-1.7 8-2.2 2.9 0.7 5.3 3.3 2.6 0.8 23.6 1.7 1.5-0.2 2.6-1.2 1.5-0.3 1.2 0.4 1.9 2.1 1.1 0.7 10.9 1.6 1.3-0.4 1.7-0.9 1.6-1.3 1-1.3 1.3-1.1 1.7 0.3 6.1 3 1.3 0.1 1 1 1.1 4.4 0.7 1.1 2.5-0.5 1.4-0.5 0.2-0.7 0.9 1.9 0.3 1.9-0.4 1.7-0.8 1.1 0 1.6 3 1.5 0 1.7-2.6 1.9 0.6 2.2 6.7 6 1.7 2.7 1.1 3.6 0 4.6 0.9 0 0.1-4.2 0-0.3 0.1 0 0.3 1.2 3.4 3.3 0.8 0.6 0.9 0.3 2.9 0.1 1.1-0.1 0.8-0.4 0.5-0.5 0.3-0.7 0.4-0.7 0.6-0.5 1.6-0.6 0.8-0.1 9.1 2 1.2 0.7 0.8 0.9 1 2.4 0.5 1 1.8 2.4 0.3 1.1-0.2 0.8-0.6 0.5-2.3 0.8-0.6 0.5-0.4 0.6-0.5 1.7-0.5 0.6-0.6 0.5-0.5 0.6-0.3 0.6-0.2 0.9 0 0.9-0.2 0.8-0.4 0.7-0.6 0.4-2 1.2-0.4 0.5-0.4 0.5-0.5 1.1-0.8 2.4-0.2 0.9 0 1 0 0.8 0.8 0.8 1.3 0.4 4.7 0.7 2.5 1.5 1 0.4 1.5-0.3 1-0.3 2.2-1.2 0.8-0.2 0.8 0.1 0.6 0.5 0.3 1.1 0 1 0.6 2.5 0.1 0.3 0.3 0.6 2 1.9 0.9 2.5 0.5 0.5 0.7 0.5 3.8 0.6 6-0.7 1.3-0.4 1-1.1 1.2-2.1 0.7-0.5 1-0.4 1.6-0.3 0.7-0.7 0.7-0.9 0.5-0.4 2.9-1.1 0.7-0.4 0.6-0.5 0.5-0.6 0.2-0.8 0.2-1.8 0.3-0.8 0.4-0.6 0.7-0.4 0.7-0.2 1 0 0.9 0.2 7.6 4.1 0.4 1 0.3 1.5-0.4 7.1 0.6 3.6-2.5 1.4-1.7-0.2-6.6-3.3-1.4-0.1-1.1 0.4-0.5 1-0.2 0.9 0.2 0.9 0.8 1.3 0.2 0.8-0.6 3.2-0.1 0.9 0.1 0.9 0.2 0.9 0.3 0.7 0.4 0.6 0.5 0.6 4.7 3 0.4 0.5 0.2 1.2 0 1.5-0.5 2.5-0.6 1.1-0.8 0.5-0.8-0.3-2.1-1.1-0.9-0.2-1 0-1.2 0.3-0.6 0.6-0.3 0.9 0 2-0.3 1.3-0.6 0.9-1.2 1.6-0.9 1.6-1.1 3.1-0.3 1.6 0.2 1 4.4 3.1 0.5 0.5 0.5 0.7 0.3 0.7 0.1 1.9-0.1 2.7-1.2 6.4-0.8 2.7-0.8 1.8-2.3 2.8-0.5 0.5-3.8 2.5-1.4 0.6-0.9 0.2-0.8 0-2 0.9-3.6 5z m-157.5-66.5l1.6-0.9 1.5-0.5 1.4 0.2 1.1 1.2 0 1.6-1.1 1.8-0.9 3.7-0.4 4.1 0.5 3.1-3 2.8-2.6-1.5-2.6-3.3-3.1-2.8-1.7-0.1-1.9 0.3-1.5-0.3-0.6-2.3 0.3-3.5 0.5-2.6-0.2-2.2-1.5-2-2.8-0.9-10.4 2.3-3.8-0.5-6.7-2.6-3.7-0.1 0-1.5 3.6-0.2 2.9-0.8 2.4-2.4 1.6-4.6 1.1 1.3 1.1 0.5 1.2-0.5 1.2-1.3 3 3.6 3.5-1 3.5-2.7 2.8-1.5 12 0.4 2.6 1.2 2.8 6.2-2.8 0 0.3 1.9 0 1.8-0.4 1.6-0.8 1.2 0 1.8z" id="IEMO" name="Mayo">
  </path>
  <path d="M480 264.9l0.1 0.3 0.8 3.5-0.9 1.3-1 0.8-1.2 1.3-1.9 2.9-0.4 1.4 0.3 0.8 0.8 0 0.6-0.3 1.1-1.1 0.7-0.2 0.8 0 3.7 1 0.9 1 0.2 0.9-0.1 0.9-0.3 0.8-0.2 1.3-0.6 4.4-0.3 1.5-0.5 1-0.6 0.5-0.6 0.4-0.8 0.6-0.7 1-0.7 1.7-0.1 1.2 0.1 1.1 1 4.8 0.3 0.9 0.5 0.7 0.8 0.4 1 0.7 1.1 1.3 1.2 3.8 0.4 2.4 0.2 3.6 0.3 2 0.7 2.7 0.2 1.5 0 1.3-0.4 4.1-0.6 2.8 0.2 1 0.4 0.7 1.6 1 0.8 1.3 0.3 1.2 0 1.6 0.4 0.8 0.4 0.7 4.2 3.4 0.7 0.3 0.9 0 3.1-1 0.8-0.1 1 0.1 0.8 0.2 0.8 0.4 0.6 0.4 0.6 0.6 4.1 6.5 1.1 1.2 2.1 1.5 0 2.4-0.6 1.2-0.6 0.9-1.4 1-2.7 0.9-1.4 0.8-0.5 1-0.6 1.7-0.8 1.1-1.4 1.2-0.4 0.9-0.1 0.9 0.2 1-0.1 1.1-0.6 0.2-0.4-0.3-1.1-1-1-0.2-1.4 0.3-2.9 1.6-1.2 1.1-0.7 1.2-0.7 2.6-0.8 2.1-0.7 0.8-0.4 0.5-1.6 0.4-0.9-0.2-1.6-0.6-1.2-0.1-1.3 0.2-2.3 0.9-0.6 0.7 0 0.8 0.1 1-0.2 1.4-1.1 2.6-0.2 1.1-0.2 0.9 0 0.4 0.2 0.3 0.5 0.4 2.8 1.5 0.7 0.3 1.7 0 0.8 0.3 0.4 0.5 0.3 0.7 0.2 0.9 0.3 0.7 0.9 1.3 0.3 0.9-0.4 0.6-0.6 0.3-11.1-0.7-1.4 0.3-0.7 0.5-0.2 0.5 0.4 0.4 0.4 0.2 0.3 0.6-0.4 0.5-0.6 0.3-0.9 0.1-0.9 0-0.9-0.2-1.5-0.7-2.9-2-2.4-0.6-0.6-0.4-0.5-0.6-0.2-0.9-0.2-1.8-0.2-0.9-0.3-0.7-0.5-0.6-0.6-0.5-0.8-0.3-4.5 0.2-0.8-0.1-1.2-0.7-0.6-3.6 0.4-7.1-0.3-1.5-0.4-1-7.6-4.1-0.9-0.2-1 0-0.7 0.2-0.7 0.4-0.4 0.6-0.3 0.8-0.2 1.8-0.2 0.8-0.5 0.6-0.6 0.5-0.7 0.4-2.9 1.1-0.5 0.4-0.7 0.9-0.7 0.7-1.6 0.3-1 0.4-0.7 0.5-1.2 2.1-1 1.1-1.3 0.4-6 0.7-3.8-0.6-0.7-0.5-0.5-0.5-0.9-2.5-2-1.9-0.3-0.6-0.1-0.3-0.6-2.5 0-1-0.3-1.1-0.6-0.5-0.8-0.1-0.8 0.2-2.2 1.2-1 0.3-1.5 0.3-1-0.4-2.5-1.5-4.7-0.7-1.3-0.4-0.8-0.8 0-0.8 0-1 0.2-0.9 0.8-2.4 0.5-1.1 0.4-0.5 0.4-0.5 2-1.2 0.6-0.4 0.4-0.7 0.2-0.8 0-0.9 0.2-0.9 0.3-0.6 0.5-0.6 0.6-0.5 0.5-0.6 0.5-1.7 0.4-0.6 0.6-0.5 2.3-0.8 0.6-0.5 0.2-0.8-0.3-1.1-1.8-2.4-0.5-1-1-2.4-0.8-0.9-1.2-0.7-9.1-2-0.8 0.1-1.6 0.6-0.6 0.5-0.4 0.7-0.3 0.7-0.5 0.5-0.8 0.4-1.1 0.1-2.9-0.1-0.9-0.3-0.8-0.6-3.4-3.3-0.3-1.2-0.1 0 0.5-3.3 0.2-3.3-0.8-3.5 3.1-1.3 3-3.1 2.4-4.7 1-6.2 2-3.9 4.6-0.5 8.4 1.9 0.9-0.3 0.8-0.8 0.7-0.4 1.6 1.4 2.4 1.4 2.2 0.8 3 2.3 2.1 0.4 6.8 0 3-0.9 2.8-2.2 3.8 2.9 8.4-1.7 3.8 1.9 0.8 2.3 0.4 2.7 0.9 2.3 3.9 1.5 1.6 1.6 2.8 4.4 1.9-1.5 2.1-0.5 4.5 0.2 0-1.6-2-1-2.5-0.7-2.1-1.4-0.9-2.6-0.9-1.8-2.1-1.3-2.5-0.8-2.1 0 0-1.8 0.9-1.1 1.6-2.8 1.2-0.9 3.1 1.5 1.8 0.5 0.8-1.2 1.6-1 9.7 1.9-2.2-2.9-2.5-2-2.6-1.2-2.6-0.4-2.8 0.2-1-0.6-0.4-1.9 0.8-2.4 1.7 0.6 3.2 2.6 2.7-1.6-1-2.3-3-1.8-2.9-0.8-13.7 0-0.7-0.8-0.2-2.4 0.6-1.8 1.4-1.6 1.6-1 4-1.2 16-11.4 2.2-0.8 0.9-0.7 0.4-1.9 0.1-4.7 0.5-4 1 0.7 1 2.6 0.4 1.4 0.6 0.2 0.1 0.2 0.1 1.4 4-2.9 4.1-2 0.4-0.1z" id="IESO" name="Sligo">
  </path>
  <path d="M623.3 422.7l5.6-2.8 1.9 0.3 0.8 1.2 0.5 1 0.9 0.9 1.5 1.2 3.8 2 1.9 0.4 1.4-0.4 0.8-0.7 1-0.7 1.9-0.5 1.9-1 2.7-1.9 0.9 0 1 0.3 1.1 0.5 2 0.6 5.5 2.7 9.7 2 3.3-0.4 4.1-2.2 1.2-1.1 0.8-1.1 0.5-1 1.2-0.8 0.8-0.8 0.4-0.8 0-0.9-0.2-0.7-0.3-0.7-3.9-4.6-0.9-1.2-1.6-3.7-0.3-0.9-0.2-0.9 0.1-0.8 0.6 0 2 1 0.8 0 0.9-0.2 0.5-0.5 0.4-0.6 0-0.8-0.1-0.9-0.3-0.8-0.2-0.8 0.1-0.9 0.6-0.2 0.7 0 0.8 0.3 0.8 0.4 0.6 0.4 1.1 1.1 0.6 0.4 1.2 0.3 1.5 0.1 3-0.5 4.1-2.4 1.4-0.5 1.4-0.1 2 0.3 0.9-0.4 0.7-0.9 0.3-0.9 2.8-3 3.1-0.6 5.7 2.7 10.7 6.9 2.7 2.5 0.2 0.8 0.1 0.9 0.1 0.9 0 1.9 0.1 1 0.2 0.7 1.5 2.9 0.9 3 0.8 1.8 0.9 0.8 1.2 0.5 0.7 0.5 0.5 0.8 1.2 2.5 2.6 2.6 0.7 0.5 0.5 0.1 4.7 0.1 1.1 0.3 1.4 0.7 0.5 0.7 0 0.8-0.3 0.8-1.7 2.6-0.4 0.7-0.2 1 0.1 1.4 0.8 2.2 0.9 0.9 0.9 0.2 3.7-0.5 13.2 0.6 1.3-0.1 7.9-2.9 0.8-0.3 0.6 10.2 0.7 3.4 0.9 3.3 0.9 2.5 1.4 1.2 2 1.5-0.7 0.6-1.4 0.6-1.2 0.1-1.6-0.2-0.8 0-0.5 0.1-0.6 0.7-0.6 1.3-1.5 4.5-0.8 1.4-1.3 1.3-2.5 1.5-2 2-0.7 0.4-0.7 0.3-0.8-0.1-0.5-0.5-0.4-0.6-0.3-0.7-0.4-0.6-0.4-0.6-0.7-0.5-0.8-0.3-1.8-0.2-1.8 0.3-0.7 0.6-3.1 3.6-0.8 1.3-0.4 1.2-0.1 1.3 0.4 1.9 0.5 1.1 0.5 0.8 0.6 0.5 1.5 1.6 0.6 0.5 2.9 1.4 0.6 0.5 0.5 0.5 0.4 0.7 0.3 0.7 0.3 0.6 0.5 0.6 0.8 0.7 0.6 0.4 0.8 0.7 0.4 0.8 0 1.3-0.4 1.7-1.5 2.8-0.5 1.4-0.3 1.1 0.1 0.8-0.4 0.8-0.8 0.7-4.6 1.8-0.7 0.6-0.8 0.8-0.7 1.8-1.8 2.9-5.3 5.5-6.6-1.2-2.2-1-0.6-0.4-0.9-0.2-1.1 0.2-2.5 1.5-1 0.4-0.9 0-3-1.5-2-0.6-4.1-0.5-1.2-0.4-0.9-0.5-0.5-0.5-1.7-1.5-1.4-0.8-9.8-1.6-2.1 0.3-2.1 1.1-0.9 0.8-0.5 0.7-0.2 0.6-0.5 1-0.3 0.5-0.8 0.4-1.3 0.2-3.9-0.5-2-0.7-1.3-0.8-0.4-0.4-0.2-0.4-0.2-0.7-0.3-1.6-0.3-0.7-0.2-0.4-0.3-0.2-1.7-1.4-0.4-0.7-0.4-0.7-0.3-0.7-0.4-0.6-0.8-0.4-1.3-0.1-2.3 0.5-1.3-0.2-0.8-0.3-1 0-1.3 0.5-11.4 10-1.4 1.6-1.9 4.8-14.8-11.9 0.8-0.8 1.3-0.8 2.1-0.9 0.6-0.5 0.5-0.5 0.7-0.4 0.7-0.3 1.8 0.2 1.7-0.2 1.3-0.7 3.6-2.7 0.5-0.6 1-1.2 0.3-0.7 0.5-1 0.1-0.7 0.2-0.8 0-1.1-0.1-2.9 0.4-0.7 0.7-0.1 1.5 0.6 0.3-0.1 0.5-0.1 0.5-0.5 0.3-0.7 0.2-0.9 0.2-0.9 0.3-1.9 0.5-1.6 0.9-2.4 0.1-1.1-0.2-1.5-0.7-2.4 0-1.4 0.2-1 0.4-0.6 0.6-0.4 0.6-0.3 2-0.3 0.6-0.4 0.3-0.9 0-1.2 0.1-1.1 0.2-0.8 0.7-1.5 0.5-1.6 0.1-1.9 0.1-1 0.3-0.8 0.4-0.6 1-1.2 0.4-0.7 0.2-0.8 0.3-0.9 0.1-0.9-0.5-1.1-0.9-1.3-2.4-1.9-1.9-0.7-1.2-0.2-0.7 0.1-0.6 0.3-0.6 0.3-1.1 1.1-1.9 1.2-0.6 0.4-1.4 1.8-0.8 0.1-1.2-0.6-1.7-1.3-3-3-2-1-1.3-0.4-1.1-0.1-1.2-0.3-3.4-1.8-7.1-4.9-0.6-0.6-0.4-0.8-0.1-1.2 0-1.1 0-0.9-0.1-0.9-0.5-1-1.1-1.2-2.1-1.6-2.4-3.5-0.8-1.7-2-1.9-7-4.3z" id="IEMH" name="Meath">
  </path>
  <path d="M759.4 523.6l-2.4 1.1-1.7 2.9 0.9 1.7 3.7-0.9 1.4 2.6 5.1 1.5 3.3 2.5 1.2 4.6-0.7 3.2-1.9 2.5 0.3 4.3-0.3 3.7-0.4 3-0.8 0.1-1.3 1.1-0.5 1-0.2 1.1-0.2 1.8-0.6 1.7-0.3 0.8-0.5 0.7-0.5 0.5-0.5 0.4-1 0-1.2-0.5-2.1-1.8-0.8-1.2-0.3-1.2 0-0.9-1.4-1.1-1.3-0.8-11.6-3.3-0.8-2.4-0.5-0.5-0.8-0.6-0.7-0.2-3.8-0.1-0.7-0.2-0.3-0.7 0.1-0.9 0.9-1.1 0.7-0.6 0.6-0.7 0-0.8-0.4-0.8-0.5-0.5-0.4-0.2-0.6-0.3-0.6-0.4-0.5-1-0.1-1.6 0.9-3.8 0.8-2.2 1.6-2.5 0.6-0.9 1.1-0.9 0.3-0.8 1.3-5.9 1.4-2.9 2.6 1.5 1.9-0.3 1.6-2 2.9 0 2.2 0.9 1.5-0.9 2.4 0 1.9 3.2z" id="IED" name="Fingal">
  </path>
  <path d="M742.8 554.7l-3.5 2.5-0.5 0.5-0.6 1-0.7 2.9-0.6 1-0.7 0.6-3.4 1.1-0.7 0.7-0.4 0.8 0.1 0.9 0.6 1.5 0.2 0.9-0.1 1.4-0.7 0.7-2.1 1.3-0.5 0.9-0.3 1 0.1 0.9 0.1 1-0.3 1.3-0.5 1-0.9 1.1-6.3 5.8-0.7 0.5-5 2.1-2.6 1.6-3.6 1.7-0.8 0.7-0.5 0.9-1.7 3.6-4.1 6.8-2.1 4.4-0.4 1-0.1 0.8 0.1 0.8 0.3 0.7 3.8 4.6 1.7 2.4 0.8 1.3 0.5 1.4 0.3 1.7-0.3 2.6-3 6.9-1.4 2.3-1.4 0.9-1.1 0.4-4.4 0.2-3.8 0.9-3.4-0.4-0.7 0.6-1.2 0.4-0.7-0.2-0.6-0.4-0.5-0.5-1-1.2-1-0.8-3.3-1.9 0.1-2.7-0.1-0.9-0.4-2.7-0.7-1.9-4.3-8.6-1.6-2-1.2-0.9-1.6 0.7-1.3 0.2-0.6-0.2-0.7-0.4-1.4-0.7-1.8-0.3-0.8-0.3-0.6-0.4-0.5-0.6-0.3-0.7-0.9-1.2-0.4-0.5-0.5-0.7-0.4-1.1-0.3-1.4 0.3-2.1 0.3-1.1 0.5-0.8 2.4-2.9 0.4-0.6 0.4-0.8 0.1-0.6 0-2.9-0.4-3.8-0.7-3.2-2-5.5-2-3.5-0.8-0.9-0.1-0.6 0-0.9 0.4-1.5 0.4-0.7 0.5-0.6 0.6-0.1 0.7 0 0.7-0.2 0.4-0.5 0.3-0.9-0.1-0.9-0.7-1-0.7-0.5-2.7-0.1-1.2-1.2-5.5-2-0.4-0.5 0.2-0.5 0.9-0.3 0.9 0 1.9 0.4 11.2-0.3 0.7-0.4 0.5-0.7 0.3-1.1 0.5-1.6 0.5-1 0.3-0.8-0.2-0.8-1-0.8-1-0.2-1.8-0.1-0.7-0.1-0.7-0.4-0.6-0.4-0.5-0.5 0-0.6 0.6-0.7 3.7-2.8 1.1-1 0.5-0.6 0.3-1.2 0.1-1.5 0.1-2.8 0.3-1.3 0.6-0.8 1-0.7 0.4-0.5 0.3-1 0.1-1.8 0.4-0.9 0.5-0.7-0.4-1.3-1.5-2.2-9.5-9.1-0.5-0.8 0.1-2.4 1.9-4.8 1.4-1.6 11.4-10 1.3-0.5 1 0 0.8 0.3 1.3 0.2 2.3-0.5 1.3 0.1 0.8 0.4 0.4 0.6 0.3 0.7 0.4 0.7 0.4 0.7 1.7 1.4 0.3 0.2 0.2 0.4 0.3 0.7 0.3 1.6 0.2 0.7 0.2 0.4 0.4 0.4 1.3 0.8 2 0.7 3.9 0.5 1.3-0.2 0.8-0.4 0.3-0.5 0.5-1 0.2-0.6 0.5-0.7 0.9-0.8 2.1-1.1 2.1-0.3 9.8 1.6 1.4 0.8 1.7 1.5 0.5 0.5 0.9 0.5 1.2 0.4 4.1 0.5 2 0.6 3 1.5 0.9 0 1-0.4 2.5-1.5 1.1-0.2 0.9 0.2 0.6 0.4 2.2 1 6.6 1.2-2.1 4.3-1.4 2.9-1.3 5.9-0.3 0.8-1.1 0.9-0.6 0.9-1.6 2.5-0.8 2.2-0.9 3.8 0.1 1.6 0.5 1 0.6 0.4 0.6 0.3 0.4 0.2 0.5 0.5 0.4 0.8 0 0.8-0.6 0.7-0.7 0.6-0.9 1.1-0.1 0.9 0.3 0.7 0.7 0.2 3.8 0.1 0.7 0.2 0.8 0.6 0.5 0.5 0.8 2.4z" id="IEKE" name="Kildare">
  </path>
  <path d="M706.7 625.1l16.9 4.8 4.7 2.2 1.3 1.2 2.1 0.8 1 0.1 0.9-0.1 0.8-0.3 0.8-0.5 1.1-0.5 0.7 0.1 0.6 0.3 0.6 0.5 0.4 0.6 0.4 1.1 0 0.8-0.4 0.5-0.4 0.2-0.6 0.2-0.5 0.4-0.2 0.7-0.1 0.8 0.2 4.7 0 1-0.1 0.9-0.3 0.7-0.7 0.4-2.8 1.1-1.3 0.8-1.2 0.9-1.3 0.7-0.8 0.2-1.8 0-1.7-0.4-0.7-0.4-0.5-0.5-0.5-0.6-0.8-1.2-0.5-0.6-0.5-0.5-3.4-1.9-0.7-0.2-0.7 0.2-0.5 0.5-0.3 0.8-0.4 1.7-1.5 2.7-0.7 1.5-0.4 1.7-0.2 1.1-0.1 1.3 0 2 0.4 0.9 0.6 0.2 1.2-0.6 0.7-0.1 0.6 0.2 0.7 0.7 1.7 2.4 0.5 1.4 0.4 1.8 0.4 1 0.7 1.1 0.6 0.7 2.4 4.2-3.5 5.2-2.1 1.3-2.2 0.3-0.6 0.6-0.3 0.8 0.1 0.8 0.2 0.8 0.4 0.6 0.6 0.3 1 0.4 0.6 0.3 0.4 0.4 0.2 0.9-0.6 1-1.3 1.7-0.9 0.8-0.8 0.5-0.8 0.3-0.9 0-0.9-0.1-2.5-0.7-1.4 0.4-1.9 0.8-3.5 2.5-1.3 1.4-0.7 1.3-0.2 6-0.3 2.1-0.8 1.8-5.7 7-0.7 1.4-0.3 1.3-0.5 1.7-2.5 4.6-0.4 1.5-0.6 2.8-0.4 0.9-0.5 0.7-1.4 0.7-0.8 0.2-5.4 0.3-2.2-13.3 0.1-3.7 1.3-1.8 0.3-0.8 0.2-0.9 0.4-2.9-0.1-1-0.4-1-1.1-1.3-3.7-3.4-0.9-1.2-0.8-1.3-0.4-1.4-0.4-1.9-0.5-4.2-0.1-2.1 0.1-1.6 0.3-0.9 0.4-1 0.1-0.5-0.1-0.5-0.7-0.4-1.1-1-1-1.2-0.1-0.2-1.8-3.7-0.7-1.1-0.7-0.9-0.7-0.3-0.8-0.1-0.7 0.2-1.8 1.2-0.7 0.3-0.7-0.2-0.7-0.7-0.5-1.4-0.6-0.8-0.6-0.6-1.5-0.5-0.4-0.5 0.6-1 0.4-0.9-0.1-2.8 0.3-1.8 0.9-3 1.3-3.1 2.9-2.8 3.8-2.8 8.7-2.7 1.6-0.9 0.9-0.9 0.7-3.7 0.1-0.9-0.2-5.9 0.3-3 3.3 1.9 1 0.8 1 1.2 0.5 0.5 0.6 0.4 0.7 0.2 1.2-0.4 0.7-0.6 3.4 0.4 3.8-0.9 4.4-0.2 1.1-0.4 1.4-0.9 1.4-2.3 3-6.9z" id="IECW" name="Carlow">
  </path>
  <path d="M663.3 653.1l-1.3-1.6-0.7-1.4-0.3-0.8-0.6-1.3-0.5-0.7-0.4-0.5-0.7-0.5-4.1-0.9-0.8-0.6-0.6-0.6-0.7-1.3-0.8-1.3-0.2-0.8-0.1-0.9 0.1-2-0.1-0.8-0.2-0.7-0.5-0.6-4.6-3.9-0.7-0.4-0.9 0-1.3 0.3-6 4.5-0.2 0.7-0.4 1.8-0.3 0.7-0.7 0.4-0.9 0.2-1.5-0.3-2.5-1.3-0.8-0.1-1 0.2-1.1 0.6-1.6 1.4-0.8 0.9-0.6 0.9-0.7 1.4-0.8 2.3-0.4 0.6-0.4 0.3-0.8-0.6-0.8-0.3-1 0-1.5 1.3-0.8 0.9-0.5 0.9-0.3 0.8-0.9 1-1.6 1-6.9 2.8-1 0-1.7-0.7-0.9-0.5-1.8-1.6-0.5-0.3-1.9-0.6-2.8-1.4-2.2-0.6-1-0.7-0.7-0.6-0.5-0.6-1.1 0.1-1.4 0.8-2.7 2.7-0.8 1.5-0.3 1.2-0.7 0.7-0.7 0.6-6.8 1.3-1.4-7.4-0.9-2.5-1.3-1.3-0.8-1.1-1.3-2.1-0.4-1.3-0.1-1.1 0.7-2.5 0.1-2.6 0.3-1.5 0.4-1 1.4-2.9 0.4-0.6 1.1-1 2.4-1.8 0.5-0.7 0.5-1-0.1-0.8-0.5-0.5-0.8-0.3-3.7-0.6-0.8-0.3-1.2-0.8-0.5-0.6-0.9-1.2-1.4-2.6 2.3-2.6 1.1-1.5 0.4-0.7 0.2-0.8 0.2-0.9 0.4-3.4 0.7-3.1 0.6-1.5 0.5-0.7 0.4-0.5 2.3-1.9 0.5-0.5 0.4-0.6 0.4-0.8 0.5-1.6 0.3-0.7 0.4-0.6 0.6-0.7 3.4-2.5 1.1-1.2 0.4-0.7 0.2-0.8 0.3-0.8 0.8-1.3 0.3-0.8 0-0.7-0.2-0.7-0.4-0.6-0.9-1-3.9-5.6-0.7-1.4-0.3-0.7-0.2-0.8 0-0.9 0.1-0.9 0.2-0.8 0.4-0.8 0.4-0.6 1-0.7 18.3-5.7 1.2-0.1 1.6 0.2 4.5 1.2 1.2 0.1 0.6-0.7 0.4-0.7 0.2-1.3 0.2-0.7 0.3-0.6 0.5-0.6 1.3-0.8 3.6-0.5 1 0.1 1.2 0.3 1.9 1.1 0.9 0.8 0.6 0.9 3.1 5.1 0.2 0.9 0.1 2.8 0.2 0.9 0.3 0.8 0.6 1.4 0.4 0.7 0.9 0.6 1.4 0.5 3.6-0.1 2.4-0.5 4.3-2.2 1.2-0.9 2.6-0.6 6 0.2 1.6 0.4 2-0.5 2.8-3.3 2.7 0.1 0.7 0.5 0.7 1 0.1 0.9-0.3 0.9-0.4 0.5-0.7 0.2-0.7 0-0.6 0.1-0.5 0.6-0.4 0.7-0.4 1.5 0 0.9 0.1 0.6 0.8 0.9 2 3.5 2 5.5 0.7 3.2 0.4 3.8 0 2.9-0.1 0.6-0.4 0.8-0.4 0.6-2.4 2.9-0.5 0.8-0.3 1.1-0.3 2.1 0.3 1.4 0.4 1.1 0.5 0.7 0.4 0.5 0.9 1.2 0.3 0.7 0.5 0.6 0.6 0.4 0.8 0.3 1.8 0.3 1.4 0.7 0.7 0.4 0.6 0.2 1.3-0.2 1.6-0.7 1.2 0.9 1.6 2 4.3 8.6 0.7 1.9 0.4 2.7 0.1 0.9-0.1 2.7-0.3 3 0.2 5.9-0.1 0.9-0.7 3.7-0.9 0.9-1.6 0.9-8.7 2.7-3.8 2.8z" id="IELS" name="Laoighis">
  </path>
  <path d="M759.4 523.6l-2.4 1.1-1.7 2.9 0.9 1.7 3.7-0.9 1.4 2.6 5.1 1.5 3.3 2.5 1.2 4.6-0.7 3.2-1.9 2.5 0.3 4.3-0.3 3.7-0.4 3-0.8 0.1-1.3 1.1-0.5 1-0.2 1.1-0.2 1.8-0.6 1.7-0.3 0.8-0.5 0.7-0.5 0.5-0.5 0.4-1 0-1.2-0.5-2.1-1.8-0.8-1.2-0.3-1.2 0-0.9-1.4-1.1-1.3-0.8-11.6-3.3-0.8-2.4-0.5-0.5-0.8-0.6-0.7-0.2-3.8-0.1-0.7-0.2-0.3-0.7 0.1-0.9 0.9-1.1 0.7-0.6 0.6-0.7 0-0.8-0.4-0.8-0.5-0.5-0.4-0.2-0.6-0.3-0.6-0.4-0.5-1-0.1-1.6 0.9-3.8 0.8-2.2 1.6-2.5 0.6-0.9 1.1-0.9 0.3-0.8 1.3-5.9 1.4-2.9 2.6 1.5 1.9-0.3 1.6-2 2.9 0 2.2 0.9 1.5-0.9 2.4 0 1.9 3.2z" id="IED" name="South Dublin">
  </path>
  <path d="M521.9 567l5.3-3.8 5.9-2.4 2.5-2.3 1-4-1.1-2.7-7.4-5.8-1.8-2.5-0.2-0.8-0.2-1.3 0.8-2.4 2.9-5 1.1-2.2 1.2-1.5 5.7-5 2.5-3.4 6.3 1.3 1 0.5 0.6 0.5 0.5 0.5 1.3 0.8 1.5 0.6 0.6 0.4 0.7 0.3 0.7 0 0.9-1.2 0.7-0.5 1.3-0.2 5.3 0.9 4.3-0.8 7.1-2.9 1.2-1 0.1-0.9 0.2-0.9 0.2-0.7 0.9-1.2 2.2-2.1 4.4-3 1-0.2 1.6 0 1.9 0.8 2.5 1.7 2.1 1.1 0.5 0.5 0.2 0.6 0.1 0.5 0.2 1.4 1 4.2 0.3 0.8 1.6 3.5 1.5 2.6 0.5 0.6 0.5 0.6 0.6 0.2 0.6-0.2 0.2-1.1 0-1 0.2-0.8 0.6-0.6 1.6 0.2 0.8 0.4 1.2 1.2 0.7 0.4 2 0.1 0.6 0.4 1 1.2 1.2 0.2 1.8-0.3 8.3-3.4 13.2-12 0.9-0.6 1.1-0.5 5.3-1 1.8-1.4 3.5-4.5 14.8 11.9-0.1 2.4 0.5 0.8 9.5 9.1 1.5 2.2 0.4 1.3-0.5 0.7-0.4 0.9-0.1 1.8-0.3 1-0.4 0.5-1 0.7-0.6 0.8-0.3 1.3-0.1 2.8-0.1 1.5-0.3 1.2-0.5 0.6-1.1 1-3.7 2.8-0.6 0.7 0 0.6 0.5 0.5 0.6 0.4 0.7 0.4 0.7 0.1 1.8 0.1 1 0.2 1 0.8 0.2 0.8-0.3 0.8-0.5 1-0.5 1.6-0.3 1.1-0.5 0.7-0.7 0.4-11.2 0.3-1.9-0.4-0.9 0-0.9 0.3-0.2 0.5 0.4 0.5 5.5 2 1.2 1.2-2.8 3.3-2 0.5-1.6-0.4-6-0.2-2.6 0.6-1.2 0.9-4.3 2.2-2.4 0.5-3.6 0.1-1.4-0.5-0.9-0.6-0.4-0.7-0.6-1.4-0.3-0.8-0.2-0.9-0.1-2.8-0.2-0.9-3.1-5.1-0.6-0.9-0.9-0.8-1.9-1.1-1.2-0.3-1-0.1-3.6 0.5-1.3 0.8-0.5 0.6-0.3 0.6-0.2 0.7-0.2 1.3-0.4 0.7-0.6 0.7-1.2-0.1-4.5-1.2-1.6-0.2-1.2 0.1-18.3 5.7-1 0.7-0.4 0.6-0.4 0.8-0.2 0.8-0.1 0.9 0 0.9 0.2 0.8 0.3 0.7 0.7 1.4 3.9 5.6 0.9 1 0.4 0.6 0.2 0.7 0 0.7-0.3 0.8-0.8 1.3-0.3 0.8-0.2 0.8-0.4 0.7-1.1 1.2-3.4 2.5-0.6 0.7-0.4 0.6-0.3 0.7-0.5 1.6-0.4 0.8-0.4 0.6-0.5 0.5-2.3 1.9-0.4 0.5-0.5 0.7-0.6 1.5-0.7 3.1-0.4 3.4-0.2 0.9-0.2 0.8-0.4 0.7-1.1 1.5-2.3 2.6-9.1-3.2-2.5 0.2-1.4 1.9-1.6 1.5-1.8 1.1-0.8 0.7-0.3 0.6 0.2 0.3 0.4 0.5 0.4 0.6 0.2 0.7-0.2 0.7-0.2 0.7-0.7 1.1-0.3 0.4-4.5 3.8-1.8 1.9-2.3 3.1-0.9 0.5-0.7 0-0.4-0.4-1.2-1.3-0.7-0.3-0.4 0.3-0.1 0.7 0.8 3.2-0.3 1.1-0.7 1.2-1.7 1.8-1.1 0-0.6-0.3-0.9-2-0.3-1.1 0-0.8-0.2-0.9-0.4-0.7-0.5-0.4-2.6-1-0.9-0.6-0.6-0.7-0.4-0.7-0.3-0.7-0.1-0.8 0.1-1.7-0.1-0.8-0.3-0.8-0.9-1.3-0.3-0.5-0.2-0.7 0-0.7 0.4-0.6 0.6-0.3 0.8 0.1 0.7 0.2 2.1 1 0.7 0.2 0.6 0 0.6-0.1 0.6-0.3 1-1 0.9-1 0.6-0.9 0.3-0.6 0.2-0.8 0.2-0.8-0.1-0.9-0.4-0.8-0.5-0.9-2.1-2.5-0.4-0.7-0.1-0.7 0-0.9 0.3-0.7 0.4-0.6 0.7-0.3 0.7-0.2 2.6 0.4 0.8 0 0.7-0.3 0.4-0.5 0.1-0.7-0.2-0.5-0.2-0.4-0.4-0.5-0.7-1.1-0.3-0.8-0.2-0.8-0.1-0.9 0-0.9 0.1-0.9 0.2-0.9 0.3-0.7 0.4-0.7 0.7-0.3 1.6-0.4 0.7-0.3 0.5-0.6 0.3-0.7 0-0.9 0-1.9 0.1-0.9 0.1-0.9 0.3-0.8 0.6-1.3 0.2-0.6 0.1-0.5-0.1-0.8-0.5-1.5-0.3-0.7-0.7-2.3-0.6-1.8-0.6-1-0.7-0.6-8.8-4.2-9.8-7.9z" id="IEOY" name="Offaly">
  </path>
  <path d="M616.4 426.5l6.9-3.8 7 4.3 2 1.9 0.8 1.7 2.4 3.5 2.1 1.6 1.1 1.2 0.5 1 0.1 0.9 0 0.9 0 1.1 0.1 1.2 0.4 0.8 0.6 0.6 7.1 4.9 3.4 1.8 1.2 0.3 1.1 0.1 1.3 0.4 2 1 3 3 1.7 1.3 1.2 0.6 0.8-0.1 1.4-1.8 0.6-0.4 1.9-1.2 1.1-1.1 0.6-0.3 0.6-0.3 0.7-0.1 1.2 0.2 1.9 0.7 2.4 1.9 0.9 1.3 0.5 1.1-0.1 0.9-0.3 0.9-0.2 0.8-0.4 0.7-1 1.2-0.4 0.6-0.3 0.8-0.1 1-0.1 1.9-0.5 1.6-0.7 1.5-0.2 0.8-0.1 1.1 0 1.2-0.3 0.9-0.6 0.4-2 0.3-0.6 0.3-0.6 0.4-0.4 0.6-0.2 1 0 1.4 0.7 2.4 0.2 1.5-0.1 1.1-0.9 2.4-0.5 1.6-0.3 1.9-0.2 0.9-0.2 0.9-0.3 0.7-0.5 0.5-0.5 0.1-0.3 0.1-1.5-0.6-0.7 0.1-0.4 0.7 0.1 2.9 0 1.1-0.2 0.8-0.1 0.7-0.5 1-0.3 0.7-1 1.2-0.5 0.6-3.6 2.7-1.3 0.7-1.7 0.2-1.8-0.2-0.7 0.3-0.7 0.4-0.5 0.5-0.6 0.5-2.1 0.9-1.3 0.8-0.8 0.8-3.5 4.5-1.8 1.4-5.3 1-1.1 0.5-0.9 0.6-13.2 12-8.3 3.4-1.8 0.3-1.2-0.2-1-1.2-0.6-0.4-2-0.1-0.7-0.4-1.2-1.2-0.8-0.4-1.6-0.2-0.6 0.6-0.2 0.8 0 1-0.2 1.1-0.6 0.2-0.6-0.2-0.5-0.6-0.5-0.6-1.5-2.6-1.6-3.5-0.3-0.8-1-4.2-0.2-1.4-0.1-0.5-0.2-0.6-0.5-0.5-2.1-1.1-2.5-1.7-1.9-0.8-1.6 0-1 0.2-4.4 3-2.2 2.1-0.9 1.2-0.2 0.7-0.2 0.9-0.1 0.9-1.2 1-7.1 2.9-4.3 0.8-5.3-0.9-1.3 0.2-0.7 0.5-0.9 1.2-0.7 0-0.7-0.3-0.6-0.4-1.5-0.6-1.3-0.8-0.5-0.5-0.6-0.5-1-0.5-6.3-1.3 0.1-0.1 1.4-2 0.1-5.1-3.5-13-0.1-1.9 0.7-2.9 0-3.1-1.3-8.2 5.6-3.5 2.3-0.9 10.4-1.5 1.7 0 0.9 0.3 0.7 0.4 0.6 0.4 0.5 0.5 5 1.9 6.1 0.4 5.5-1 2.3-0.8 1.1-0.9 0-1.8 0.1-0.9 0.3-0.7 1.8-2.4 0.4-0.7 1-2.5 0.6-0.9 1.2-1.1 0.7-0.8 0.6-1 0.7-1 1.5-1.3 2.3-0.8 1-1 0.5-0.9-0.1-1.9-0.2-0.7-0.4-0.7-0.6-0.5-4-2.5-0.5-0.6-0.2-0.7 0.1-0.9 0.7-0.3 0.7 0.1 0.8 0.2 1.4 0.9 0.8 0.3 0.5-0.4 1.4-2.2 3.4-2.9 0.4-0.5 0.4-0.5 1-2.3 1.2-1.8 0.8-0.9 0.6-0.3 2.8-0.2 0.8-0.4 0.6-0.5 1.1-2 1.1-1.6 0.8-0.8 0.7-0.5 0.7-0.3 0.9-0.1 0.9 0.1 2 0.5 1.9 0 1-0.4 0.7-0.5 0.5-0.7 0.4-0.6 0.3-0.8 0.1-0.9 0-1.9 0.1-0.6 0.1-0.4 0-0.3 0-0.4-0.2-0.5-0.5-1.4-0.7-1.2-0.8-1.1z" id="IEWH" name="Westmeath">
  </path>
  <path d="M543.1 418.9l4.5-2.6 1.8 0.5 0.5 0.6 0.2 0.8 0.4 0.7 0.4 0.5 0.5 0.4 0.3-0.1 0.4-0.5 0.2-1.2 0-2 0.2-0.7 0.5-0.4 0.9 0.4 0.6 0.7 0.8 1.4 0.5 0.6 0.8 0.1 1.7-0.1 1.7 0.2 0.9-0.1 0.7-0.5 0.7-1.4 0.4-1 0.5-1.9 0.2-0.9 0.1-1.9 0.1-1 0.1-1 1.2-1.8 2.1-2.4 5.6-4.9 3.4-4.1 0.5-1 2.9-2.7 2.6-1.5 5.5 0.5 2.5 4.5 0.5 0.9 0.9 0.9 2 0.5 0.9 0.7 0.9 1.7 0.4 1.2 0.1 1-0.1 0.7-0.6 0.3-0.8 0.2-0.6 0.3-0.5 0.7-0.3 0.7-0.7 1.5-0.2 0.8 0 0.7 0.5 0.6 1 0.1 1-0.1 3.2-1.1 0.8-0.1 1.8 0 2.8 0.6 0.9 0.8 0.9 1.2 1.3 2.7 0.5 1.6 0.3 1.3 0 1 0.2 0.9 1.8 2.6 7.5 6.5 0.8 1.1 0.7 1.2 0.5 1.4 0.2 0.5 0 0.4 0 0.3-0.1 0.4-0.1 0.6 0 1.9-0.1 0.9-0.3 0.8-0.4 0.6-0.5 0.7-0.7 0.5-1 0.4-1.9 0-2-0.5-0.9-0.1-0.9 0.1-0.7 0.3-0.7 0.5-0.8 0.8-1.1 1.6-1.1 2-0.6 0.5-0.8 0.4-2.8 0.2-0.6 0.3-0.8 0.9-1.2 1.8-1 2.3-0.4 0.5-0.4 0.5-3.4 2.9-1.4 2.2-0.5 0.4-0.8-0.3-1.4-0.9-0.8-0.2-0.7-0.1-0.7 0.3-0.1 0.9 0.2 0.7 0.5 0.6 4 2.5 0.6 0.5 0.4 0.7 0.2 0.7 0.1 1.9-0.5 0.9-1 1-2.3 0.8-1.5 1.3-0.7 1-0.6 1-0.7 0.8-1.2 1.1-0.6 0.9-1 2.5-0.4 0.7-1.8 2.4-0.3 0.7-0.1 0.9 0 1.8-1.1 0.9-2.3 0.8-5.5 1-6.1-0.4-5-1.9-0.5-0.5-0.6-0.4-0.7-0.4-0.9-0.3-1.7 0-10.4 1.5-2.3 0.9-5.6 3.5-3.5-9.1-4.6-8.3-0.8-2-0.5-1.7-0.1-0.9 0.2-1.7 0.7-2.2 2.3-5.2 0.7-1.9 0.9-3.7 1.3-2.9 2.5-4.5 2.8-2 0-0.9-0.2-1.1 0.2-0.9 0.6-0.7 0.8-0.7 1.1-0.3 1.2 0.3-0.6-2.3-0.3-0.9 4.8-2.4 0.9-0.9 0.3-2.5-0.4-2-0.8-0.9-1 0.6-2-2-0.9-3z" id="IELD" name="Longford">
  </path>
  <path d="M510.8 349.7l3.2-1.5 2.4 0.6 6.5 2.6 1.7 1.3 0.9 1.1 0 3 0 0.9-0.2 0.8-0.3 0.7-0.5 0.6-1.5 0.2-1.8 1.4-1.1 1.8-0.1 2.7 0.9 6.9 0.4 1.2 2.1 1.3-0.3 2-1 1.9-0.6 0.8-0.9 0.8-1.8 2.5-1.1 2.8 1.5 1.2 0.5 0.8-0.2 4 0.2 1.5 1 0.8 2.5-0.3 1.1 1.2 1.7-1.3 1.4-1.6 1.1-1.8 0.6-1.8 4 6 1.3 3.5 0.4 4.8-0.5 1.5 0.3 1.9 0.7 1.2 2.2 1.7 1.5 1.4 1.7 1.6 1.8 3.3 0.6 3.2 0.9 3 2 2 1-0.6 0.8 0.9 0.4 2-0.3 2.5-0.9 0.9-4.8 2.4 0.3 0.9 0.6 2.3-1.2-0.3-1.1 0.3-0.8 0.7-0.6 0.7-0.2 0.9 0.2 1.1 0 0.9-2.8 2-2.5 4.5-1.3 2.9-0.9 3.7-0.7 1.9-2.3 5.2-0.7 2.2-0.2 1.7 0.1 0.9 0.5 1.7 0.8 2 4.6 8.3 3.5 9.1 1.3 8.2 0 3.1-0.7 2.9 0.1 1.9 3.5 13-0.1 5.1-1.4 2-0.1 0.1-2.5 3.4-5.7 5-1.2 1.5-1.1 2.2-2.9 5-0.8 2.4 0.2 1.3-4.9-0.1-7.8-0.7-1.5-0.6-1-0.9-1.1-1.2-1.8-2.7-0.6-1.6-0.3-1.3 0.2-2.7 0-0.5 0-0.7-0.5-1.4-0.8-0.9-1.2-0.9-2.5-1.6-1.3-1-0.9-1.1-0.5-1.5-0.1-1.1 0.2-1 0.6-1.5 1-2.2 0.2-0.7-0.2-0.8-0.6-1.5-0.5-0.9-2-2.6-0.5-1.2-0.1-1.1 0.3-0.7 1-1.1 0.3-0.5-0.1-0.6-0.4-0.6-1.5-1.7-1.6-2.6-0.5-0.6-0.4-0.8-0.4-1 0-0.9 0.2-1.8-0.1-0.8-0.3-1.5-0.4-1.1-0.3-1.5-0.1-0.9 0.1-0.9 0.6-2.4 0-0.7-0.1-0.6-0.3-1.1-1.9-4.5-0.1-0.8 0.2-0.7 0.5-0.4 1.2-0.1-0.7-0.9-5-3.5-3.3-3.1-3.3-2-0.8-1-0.4-1.1-0.2-0.9-0.4-0.8-1.4-2.2 0.1-0.7 0.4-0.5 0.8-0.3 2.8-0.2 0.7-0.4 0.3-0.6 0-0.7-0.3-0.7-0.4-0.7-0.7-0.7-2.5-1.6-1.1-0.6-3.6-1-1.5-0.7-1.1-1-0.4-0.7-0.3-0.8-0.2-0.7 0-0.9 0-2.1-0.3-0.9-0.6-0.7-1.2-0.9-0.9-0.4-0.8-0.2-9.4-0.3-1.7-0.5-1 0.1-1.2 0.3-3.3 2-4.5 2.1-1.3 0.8-0.8 0.9-0.1 0.9-0.3 0.9-0.4 0.6-0.5 0.6-0.6 0.5-10.8 2.7-0.7 0.3-3.1 0.6-5.2-0.1-2.1-1.7 3.6-5 2-0.9 0.8 0 0.9-0.2 1.4-0.6 3.8-2.5 0.5-0.5 2.3-2.8 0.8-1.8 0.8-2.7 1.2-6.4 0.1-2.7-0.1-1.9-0.3-0.7-0.5-0.7-0.5-0.5-4.4-3.1-0.2-1 0.3-1.6 1.1-3.1 0.9-1.6 1.2-1.6 0.6-0.9 0.3-1.3 0-2 0.3-0.9 0.6-0.6 1.2-0.3 1 0 0.9 0.2 2.1 1.1 0.8 0.3 0.8-0.5 0.6-1.1 0.5-2.5 0-1.5-0.2-1.2-0.4-0.5-4.7-3-0.5-0.6-0.4-0.6-0.3-0.7-0.2-0.9-0.1-0.9 0.1-0.9 0.6-3.2-0.2-0.8-0.8-1.3-0.2-0.9 0.2-0.9 0.5-1 1.1-0.4 1.4 0.1 6.6 3.3 1.7 0.2 2.5-1.4 1.2 0.7 0.8 0.1 4.5-0.2 0.8 0.3 0.6 0.5 0.5 0.6 0.3 0.7 0.2 0.9 0.2 1.8 0.2 0.9 0.5 0.6 0.6 0.4 2.4 0.6 2.9 2 1.5 0.7 0.9 0.2 0.9 0 0.9-0.1 0.6-0.3 0.4-0.5-0.3-0.6-0.4-0.2-0.4-0.4 0.2-0.5 0.7-0.5 1.4-0.3 11.1 0.7 0.6-0.3 0.4-0.6-0.3-0.9-0.9-1.3-0.3-0.7-0.2-0.9-0.3-0.7-0.4-0.5-0.8-0.3-1.7 0-0.7-0.3-2.8-1.5-0.5-0.4-0.2-0.3 0-0.4 0.2-0.9 0.2-1.1 1.1-2.6 0.2-1.4-0.1-1 0-0.8 0.6-0.7 2.3-0.9 1.3-0.2 1.2 0.1 1.6 0.6 0.9 0.2 1.6-0.4 0.4-0.5 0.7-0.8 0.8-2.1 0.7-2.6 0.7-1.2 1.2-1.1 2.9-1.6 1.4-0.3 1 0.2 1.1 1 0.4 0.3 0.6-0.2 0.1-1.1-0.2-1 0.1-0.9 0.4-0.9 1.4-1.2 0.8-1.1 0.6-1.7 0.5-1 1.4-0.8 2.7-0.9 1.4-1 0.6-0.9 0.6-1.2 0-2.4z" id="IERN" name="Roscommon">
  </path>
  <path d="M583.3 667.1l3 1.1 0.7 0.4 2.5 1.8 2.7 1.5 0.6 0.5 0.4 0.6 0.9 1.3 6.5 13.5 3.9 4.6 0.3 0.8 0.3 1.1 0 3.2 0.3 1.1 0.8 0.7 1.4 0.9 0.4 0.9 0.2 1.2-0.1 2.3-0.5 5.5 0.1 3.8 0.3 0.9 0.4 0.7 0.9 0.3 2.1-0.3 0.5 0.4 0.3 0.8 0 1.7 0 0.7-0.1 0.6-0.2 0.5-0.4 0.5-1.1 1-2 1.2-0.9 0.9-0.5 0.6-0.2 0.7 0.1 0.8 0.7 0.6 2.6 1.9 0.9 1.1 0.8 1.2 4.1 4.2 0.4 1 0.3 1.5-0.1 4.4-0.3 2.2-0.1 2 0.6 2.9 2.9 7.6-16.5-2.2-5.4-2-9.2-1.3-20.2 3.6-3.8 0.1-1 0.3-1 0.7-1.2 1.6-0.4 1.4-0.1 1.2 0.2 1.8 0.1 4.8 0.5 3.4 0.4 0.4 2.2 1 0.7 0.3 0.5 0.6 0.3 0.7 0.2 0.7 0.3 1.7 0.3 1.8 0.3 3.5-1 0.7-1.9 0.5-18.2-1.9-1.4-0.5-0.9-0.6-1.1-1-1-0.3-1.5-0.3-4.4 0.4-1.2 0.5-0.6 1.4-0.2 1 0 1.1 0.2 1.7 0 0.9-1.4 0.7-1.3 0.4-12.2-0.5 0.3-1.9 0-0.7-0.4-0.9-4.2-1.1-2-1.2-0.8-0.8-0.7-1.4-0.7-3-0.9-3-2.4-2.1 3.6-4.9 0.3-0.9 0.2-1.2-0.5-0.6-0.5-0.5-0.8-0.4-0.7-0.4-0.6-0.8 0.1-1.4 1.3-5.4-0.2-1.6-0.5-0.8-3.8-0.3-1.1-0.9-1.1-1.6-1.8-4-1-1.7-0.9-1-2.6 0.2-1.1-0.2-5.4-5.2-1.2-0.7-1-0.4-1.7 0.2-0.9-0.1-1.6-0.5-1.2-0.2-0.6 0.1-0.1 0-0.5-0.1-0.7-0.5-1.5-1.5-0.5-1.1 0-0.8 0.7-1.7 0.2-2.4 0.1-1.1 0.2-0.7 0.4-0.8 0.4-0.6 1.7-1.4 1.2-1.5 0.3-0.3 0.5-0.3 0.7-0.1 0.7 0.2 0.5 0.2 0.3 0.3 0.2 0.3 0.1 0.4 0.1 0.8 0 1-0.1 2.4 0.3 0.9 0.4 0.6 0.8 0.2 0.6-0.6 0.5-1.2 0-2.7 0.1-2 0.2-0.2 2.2-1.4 2.1-1 1.6-0.4 0.9 0.1 1.5 0.4 0.8 0.1 0.8-0.1 0.5-0.3 0.4-0.2 0.2-0.2 0.2-0.3 0.3-0.7 0.4-1.6 0.2-1.3 0.1-1.8 0-3.4-0.3-2-0.4-2.1 0.1-1 0.4-0.7 1-1.1 0.4-1 0.4-1.3 0.5-4.5 0.3-1.3 1.4-3.8 0.5-2.1 0.7-4.1 6.3-2.5 5.7 0 7.6 8.4 9.6 11.6 2.5 3 4.3 2.8-1.5 7.6 0.1 1.1 0.6 0.2 0.7-0.2 0.6-0.8 1.9-8.3 2.1 1.3 7 0.4 9.2-3.6 10.5-6.2 7.6-12.2 0.9-5.3-1.5-4.5-0.1-4.3 2.5-3.5z" id="IETA" name="North Tipperary">
  </path>
  <path d="M583.3 667.1l3 1.1 0.7 0.4 2.5 1.8 2.7 1.5 0.6 0.5 0.4 0.6 0.9 1.3 6.5 13.5 3.9 4.6 0.3 0.8 0.3 1.1 0 3.2 0.3 1.1 0.8 0.7 1.4 0.9 0.4 0.9 0.2 1.2-0.1 2.3-0.5 5.5 0.1 3.8 0.3 0.9 0.4 0.7 0.9 0.3 2.1-0.3 0.5 0.4 0.3 0.8 0 1.7 0 0.7-0.1 0.6-0.2 0.5-0.4 0.5-1.1 1-2 1.2-0.9 0.9-0.5 0.6-0.2 0.7 0.1 0.8 0.7 0.6 2.6 1.9 0.9 1.1 0.8 1.2 4.1 4.2 0.4 1 0.3 1.5-0.1 4.4-0.3 2.2-0.1 2 0.6 2.9 2.9 7.6-16.5-2.2-5.4-2-9.2-1.3-20.2 3.6-3.8 0.1-1 0.3-1 0.7-1.2 1.6-0.4 1.4-0.1 1.2 0.2 1.8 0.1 4.8 0.5 3.4 0.4 0.4 2.2 1 0.7 0.3 0.5 0.6 0.3 0.7 0.2 0.7 0.3 1.7 0.3 1.8 0.3 3.5-1 0.7-1.9 0.5-18.2-1.9-1.4-0.5-0.9-0.6-1.1-1-1-0.3-1.5-0.3-4.4 0.4-1.2 0.5-0.6 1.4-0.2 1 0 1.1 0.2 1.7 0 0.9-1.4 0.7-1.3 0.4-12.2-0.5 0.3-1.9 0-0.7-0.4-0.9-4.2-1.1-2-1.2-0.8-0.8-0.7-1.4-0.7-3-0.9-3-2.4-2.1 3.6-4.9 0.3-0.9 0.2-1.2-0.5-0.6-0.5-0.5-0.8-0.4-0.7-0.4-0.6-0.8 0.1-1.4 1.3-5.4-0.2-1.6-0.5-0.8-3.8-0.3-1.1-0.9-1.1-1.6-1.8-4-1-1.7-0.9-1-2.6 0.2-1.1-0.2-5.4-5.2-1.2-0.7-1-0.4-1.7 0.2-0.9-0.1-1.6-0.5-1.2-0.2-0.6 0.1-0.1 0-0.5-0.1-0.7-0.5-1.5-1.5-0.5-1.1 0-0.8 0.7-1.7 0.2-2.4 0.1-1.1 0.2-0.7 0.4-0.8 0.4-0.6 1.7-1.4 1.2-1.5 0.3-0.3 0.5-0.3 0.7-0.1 0.7 0.2 0.5 0.2 0.3 0.3 0.2 0.3 0.1 0.4 0.1 0.8 0 1-0.1 2.4 0.3 0.9 0.4 0.6 0.8 0.2 0.6-0.6 0.5-1.2 0-2.7 0.1-2 0.2-0.2 2.2-1.4 2.1-1 1.6-0.4 0.9 0.1 1.5 0.4 0.8 0.1 0.8-0.1 0.5-0.3 0.4-0.2 0.2-0.2 0.2-0.3 0.3-0.7 0.4-1.6 0.2-1.3 0.1-1.8 0-3.4-0.3-2-0.4-2.1 0.1-1 0.4-0.7 1-1.1 0.4-1 0.4-1.3 0.5-4.5 0.3-1.3 1.4-3.8 0.5-2.1 0.7-4.1 6.3-2.5 5.7 0 7.6 8.4 9.6 11.6 2.5 3 4.3 2.8-1.5 7.6 0.1 1.1 0.6 0.2 0.7-0.2 0.6-0.8 1.9-8.3 2.1 1.3 7 0.4 9.2-3.6 10.5-6.2 7.6-12.2 0.9-5.3-1.5-4.5-0.1-4.3 2.5-3.5z" id="IETA" name="South Tipperary">
  </path>
  <path d="M648.7 770.9l3.3 1.6 3.7 2.3 1.8 0.7 1.3 0.2 0.8-0.2 2.6-0.2 1.6-0.5 1.3-0.7 4.3 7.7-3.8 3.5-3.1-0.9-6.5 0.9-5.2-4.9-2.1-9.5z" id="IEWD" name="Waterford">
  </path>
  <path d="M454.4 679.5l0.6 8-3.3 4-7.9-1.3-2.9-5.3 3.9-1.5 0.3-0.6 0.4-3.1 0.7-1 1.1-0.2 0.6 0.6 0.4 0.8 0.8 0.4 2 0.1 1.8-0.3 1.5-0.6z" id="IELK" name="Limerick">
  </path>
 </g>
 <g id="points">
  <circle class="51.642739106804726|-10.253946493470966" cx="222.8" cy="911" id="0">
  </circle>
  <circle class="53.21900865726121|-8.011616577898401" cx="530.8" cy="555.8" id="1">
  </circle>
  <circle class="55.18934559533182|-6.217752645440353" cx="777.2" cy="93" id="2">
  </circle>
 </g>
 <g id="label_points">
  <circle class="Donegal" cx="533" cy="151.2" id="IEDL">
  </circle>
  <circle class="Leitrim" cx="505.4" cy="304.6" id="IELM">
  </circle>
  <circle class="Cavan" cx="622.3" cy="385.5" id="IECN">
  </circle>
  <circle class="Monaghan" cx="681" cy="337.2" id="IEMN">
  </circle>
  <circle class="Louth" cx="740.6" cy="400.3" id="IELH">
  </circle>
  <circle class="Dublin" cx="770.7" cy="523.3" id="IED">
  </circle>
  <circle class="Dún Laoghaire–Rathdown" cx="779.8" cy="545.7" id="IED">
  </circle>
  <circle class="Wicklow" cx="760.8" cy="609.6" id="IEWW">
  </circle>
  <circle class="Wexford" cx="724.4" cy="722.7" id="IEWX">
  </circle>
  <circle class="Kilkenny" cx="642.7" cy="711.6" id="IEKK">
  </circle>
  <circle class="Waterford" cx="587.2" cy="780.3" id="IEWD">
  </circle>
  <circle class="Cork" cx="420.3" cy="835.4" id="IECO">
  </circle>
  <circle class="Cork" cx="467.8" cy="856.8" id="IECO">
  </circle>
  <circle class="Kerry" cx="326.6" cy="805.9" id="IEKY">
  </circle>
  <circle class="Limerick" cx="429.1" cy="713.9" id="IELK">
  </circle>
  <circle class="Clare" cx="374" cy="627.7" id="IECE">
  </circle>
  <circle class="Galway" cx="446.4" cy="522.3" id="IEG">
  </circle>
  <circle class="Galway" cx="390.8" cy="536.8" id="IEG">
  </circle>
  <circle class="Mayo" cx="355.8" cy="401.4" id="IEMO">
  </circle>
  <circle class="Sligo" cx="425.9" cy="346.4" id="IESO">
  </circle>
  <circle class="Meath" cx="709.1" cy="458.4" id="IEMH">
  </circle>
  <circle class="Fingal" cx="772.8" cy="487.5" id="IED">
  </circle>
  <circle class="Kildare" cx="692.5" cy="560.9" id="IEKE">
  </circle>
  <circle class="Carlow" cx="694.3" cy="667.2" id="IECW">
  </circle>
  <circle class="Laoighis" cx="611.4" cy="608.3" id="IELS">
  </circle>
  <circle class="South Dublin" cx="752.6" cy="542.7" id="IED">
  </circle>
  <circle class="Offaly" cx="562.3" cy="564" id="IEOY">
  </circle>
  <circle class="Westmeath" cx="614.5" cy="484.1" id="IEWH">
  </circle>
  <circle class="Longford" cx="567.9" cy="450.5" id="IELD">
  </circle>
  <circle class="Roscommon" cx="504.6" cy="432.2" id="IERN">
  </circle>
  <circle class="North Tipperary" cx="509.1" cy="643.7" id="IETA">
  </circle>
  <circle class="South Tipperary" cx="527.5" cy="737.4" id="IETA">
  </circle>
  <circle class="Waterford" cx="658.1" cy="780.3" id="IEWD">
  </circle>
  <circle class="Limerick" cx="449" cy="685.7" id="IELK">
  </circle>
 </g>
</svg>