<?xml version="1.0"?>
    
<!--********* Copyright (c) 2024 Pareto Softare, LLC DBA Simplemaps.com ***************************************
************* Free for Commercial Use, full terms at  https://simplemaps.com/resources/svg-license ************
************* Attribution is appreciated! https://simplemaps.com *******************************************-->

<svg baseprofile="tiny" fill="#6f9c76" height="1000" stroke="#ffffff" stroke-linecap="round" stroke-linejoin="round" stroke-width=".5" version="1.2" viewbox="0 0 1000 1000" width="1000" xmlns="http://www.w3.org/2000/svg">
 <g id="features">
  <path d="M420.4 405.8l0.8-0.3 1.7-0.5 0.4-0.2 0.8 0 0.9 0.2 1.6 0.6 0.8 0.1 0.6 0 0.4-0.1 0.4 0.2 0.4 0.4 0.2 1-0.1 0.6-0.2 0.4-0.6 0.6-0.2 0.3-0.1 0.3 0 0.4 0.3 1.4-0.1 0.4-0.1 0.4-0.2 0.8 0 2-0.1 0.4-0.2 0.3-0.3 0.2-0.4 0.1-0.3 0-0.4 0-0.8-0.1-1.2-0.4-0.8-0.2-0.4 0.1-0.4 0.1-0.3 0.2-0.1 0.1-0.3 0.5-0.1 0.2-0.1 0.3 0 0.4 0 0.4 0.1 0.3 0 0.2 0.4 0.5 0.6 0.5 1.3 1 0.8 0.8 0.1 0.4 0 0.4-0.1 0.3-0.2 0.4-0.3 0.2-0.3 0.3-0.3 0.2-1.1 0.5-0.7 0.4-0.2 0.2-0.3 0.4-0.1 0.3-0.1 0.4 0.1 0.3 0 0.3 0.2 0.3 0.1 0.2 4.8 1.6 0.9 0.1 0.7-0.3 2-1.5 0.8-0.5 1.1-0.3 0.3-0.4 0-0.3-0.2-0.2-0.3-0.3-0.2-0.3-0.2-0.4-0.1-0.4-0.2-0.3-0.3-0.3-0.4-0.2-0.4-0.1-0.3-0.2-0.2-0.2 0.1-0.3 0.6-0.2 3.2-0.5 0.5-0.3 0.6-0.7 0.6 0.1 1 0.4 3.3 1.9 0.7 0.6 0.6 0.9 0.5 1.2 1.3 4 0.5 0.8 0.3 0.6 0.5 0.5 0.2 0.2 1.7-0.8 6.5-5.3 5.4 6.9 1.8 1.4 0.4 0.1 0.8 0.3 0.2 0.2 0.3 0.4 0.1 0.6 0 1.1-0.2 0.6-0.3 0.9-0.1 0.4 0 0.4 0.1 0.4 0.8 2.4 0.1 1 0 0.5 0 0.5-0.1 0.4-0.5 1.2-0.1 0.4-0.1 0.5 0 0.5 0.3 2.9-0.1 1.4 0 0.5 0.3 1.2 0.1 0.5 0 2-0.2 1.4 1.6 1.5 14.2 10.2 0 0.1-3.1 6.1-0.9 6.3-0.1 6.5-1.1 7.5-8.9 15-2.9 7.8 2.3 7.7 4.4 3.4 5.2 0.8 5.5-0.9 5-1.7 11.8-1.6 24.7 0.2 11.6-4.4 21.6-18 11.4-6.6 13.5-1.1 0.1 0.1-0.3 13.5-0.1 2.3-0.8 5.2-3.5 9.4-3.7 6.6 1.5 1.7-0.3 5-2.8 4.9-2.5 5.6 1.1 6.4 1.9 5.9 2.1 4.6 2.9 5.8 1.4 6.3-0.9 6.6-9.3 18.5-1.3 6.7 0.1 7.3-2.3 4.2-5.3 5.1-2.4 2.4-2.5 5.2-0.6 5.2 0.1 5.2-0.6 5.1-1.2 2.2-3.3 3-1.6 1.8-1.3 2.8-0.6 2.6-0.9 5.8-1.6 5.5-11.6 23.6-8.5 28.2-1 5.4-3.4 9.4 0 5.5 1 2.4 2.8 4.6 0.6 3.3-0.4 3.2-1.1 2.4-1.4 2.4-1.1 2.8-1.9 12-1.4 3.9-0.1 6.6 4.1 14 0 7.2-3.3 7.7-8.4 12.7-2.3 9-0.1 2.8-0.8 2-1 1.8-0.7 2-1.5 7.7-0.2 13.9-0.8 4.6-9.2 24.9-1.5 5.7-1 12.8-1.9 5.7-2.6 4.3-1.4 5-0.9 6.2-0.8 3-1.3 2-3.4 4.3-1.6 2.4-0.8 1.6-0.3 1.5-0.7 0.9-1.5 0-1.8-0.1-1.4 0.1-1.7-3.3-4.5-9.4-1.4-5.4 0.3-15.8-5.1-23.4-7.7-21.5-8.7-23.8-1.2-12.4 0.1-1.4-0.2-1.4-0.3-1.4-0.6-1.2-7.6-22.1-11.7-33.8-6.6-18.9-2.2-3.2-10.8-9.5-1.3-2.2-0.5-2.6 0.4-4.1 1.9-6.8 0-3.2-2-2.8-3.1-4.3-1.2-3.9-0.4-9.5-4.3-18.3-12.2-32.3-10.1-26.7-7.6-20.1-6.2-19.5-7.8-24.4-2.1-6.3 3.2-2.9 10.2-7.6 6.9-7.5 0.6-4-1.6-7.9 0-4 4.3-8.1 22.4-21.5 2.9-2.1 0.1 0 6.4-5.9 5.5-4.6-7.1-4.3-7.7-5.8 1.7-4 4.8-6.2 17.6-30.4 1.3-1.8 11.2-25.2z" id="ILD" name="HaDarom">
  </path>
  <path d="M528.1 249.5l-0.4-1.1-5.6-5.3-0.7-0.4-0.9-0.6-0.3 0.2-0.3 0.2-0.5 0.6-0.5 1-0.3 0.3-0.2 0.3-0.3 0.3-1.8 0.9-0.3 0.2-0.3 0.3-0.1 0.4-0.1 0.4-0.1 0.4-0.2 0.5-0.3 0.4-1.1 0.7-0.4 0.3-0.1 0.3-0.2 0.3-0.4 0.5-0.6 0.6-1.3 1-0.8 0.3-0.6 0.1-0.5-0.1-0.4-0.1-5.7-1.2-0.9-0.4-0.6-0.4-1.3-0.7-0.6-0.5-0.4-0.5-0.2-0.4-0.4-0.5-1.3-0.8-0.3-0.4-0.1-0.4-0.1-0.4 0.1-0.4 0.5-1.7 0.1-0.9-0.1-0.6-0.3-0.4-2.7-1.7-0.8-0.8-0.2-0.3-0.1-0.4-0.1-0.5 0-0.4-0.1-0.7-0.3-0.8-0.9-1.4-0.3-0.8 0-0.5 0.2-0.3 0.4-0.2 0.4-0.1 0.9-0.1 0.5 0.1 0.5 0.1 1.1 0.5 0.9 0.1 0.1-0.3-0.3-0.7-1.6-1.7-0.6-1-0.3-0.7 0-0.5 0.2-0.9 0.1-0.3 0.4-0.7 0.2-0.3 0.6-0.6 0.3-0.2 0.4-0.1 0.4-0.2 0.4 0 0.5 0 0.9 0.2 2.6 1.2 0.4 0 0.4 0 0.3-0.2 0.3-0.3 0.6-1 1.5-3.3 0.4-0.7 0.3-0.3 0.3-0.2 2.8-1.6 0.1-0.5 0-1-0.9-4.2 0-0.4 0.1-1.4 0.3-0.8 0.2-0.3 0.3-0.2 0.4 0 0.3 0.2 0.3 0.2 0.6 1 0.2 0.3 0.3 0.3 0.3 0.2 0.3-0.1 0.4-0.1 0.3-0.3 0.5-0.5 0.5-0.6 0.3-0.7 0-0.5 0-0.5-0.1-1.2 0.1-0.6 0.2-0.5 1-0.6 0.3-0.4 0.1-0.8-0.4-3.3 0.1-0.4 0.3-0.7 0.2-0.3 1.9-3.1 0.3-0.6 0.2-0.9 0.2-1.9 0-0.9 0-0.7-2.1-4.5-0.4-1.1-0.2-0.9 0-0.5 0.5-2.9 0-0.8-0.2-0.5-0.3-0.2-0.7-0.4-2.9-0.8-0.7-0.4-0.3-0.2-0.7-0.5-0.2-0.3-0.6-0.4-1.6-1.2-0.3-0.4-0.1-0.5 0.5-2.9-0.1-0.7-0.2-0.5-0.8-0.5-0.3-0.5-0.4-0.7-0.7-1.6-0.5-0.6-0.5-0.4-1.4-0.5-0.5-0.1 0.9-3-0.4-2.9-2.4-1.2 1.2-3.5 1.3-14.4 2.7-7.6 0.8-4.5-0.8-4.1 0.9-0.9 1.1-1.5 0.9-0.7-1.4-1.6 0.9-0.2 0.2-0.2 15.9 1.2 0.8-0.3 0.5-0.4 1.7-1.3 1.3-0.5 1.2 0.1 2.8 0.7 1.4 0.1 1-0.3 0.7-0.3 1.7-0.5 3.9-1.3 1.9 0 0.5 0 1.1 0.4 1.1 0.6 2.2 1.8 2 2.4 1.4 2.8 1.8 2.4 2.6 0.3 2.2-0.5 9-2.4 7.7-3.3 1.8-0.8 6-0.5 0.4-1.2 0.6-2.4 3.7-6.6 1.7-4 1.1-6 0.4-11.6 1.6-5.3 1.8-3.2 1.1-3.2 1.4-2.3 2.3-0.2 0.6 0.7 0.5 0.7 3.6 5.7 2.5 1.8 0.1 0 1.1 1 0.2-1 1.1-1.1 1.5-1.7 0.4-3.1 2.2-1.2 4.2-0.5 1.6-3 7.6-7.9 3.5-1 2.6-0.2 2.8-0.8 2.7-1.3 2.4-1.5 1.7-1.9 1.5-1.7 4-7.9 3-3.6 0.3 1.2-1.1 1.5-0.3 3.9-0.6 1.3-0.5 3.1-3.2 2.4-0.7 0.7-0.9 1-4.3 2 0.8 0.5 6.8 4.7-6.7 9.4 1.4 1.9 5.6 3.8 0.8 11.1 4.4 2.8 0.7 6.8-2.2 4.6-2.2 3.5 0 3.5 7.4 3.2-0.6 3.1 2.6 22.5 1.1 2.9 4.7 7.8-2.8 5.3-1.4 0.4-3.4 5.8-2.3 7.1 0.7 2.9-1.5 6-9.9 11.8-5.3 7.9-3.4 0.9-10.9 6.9-6.5 5.9-3.2 1.7-4.7-0.6-3.7 2.6-3 4-1.7 1.6-1.4 0.6-0.5 0.7-0.1 2 0.8 1.7 1.7 1 0 1.4-1.4 0 0 1.8 1.2 2.1 0.6 6.1 1.1 2.9-0.8 1.2-0.3 0.2-0.1-0.6-0.3-0.8-0.5 0.8-0.9 2.5-1.2-1.6 0.7 4.9 0.5 1.5-2.7 0 0 1.6 1.1-0.1 0.8 0 1.4 2.1 0.4 1 1.9 2 0 1.4-1.8 0.6-1.2 1.2-0.7 1.6-0.4 1.6 0.8 0.5 0.4 0.4 0.5 0.4 0.9 0.1 0 1.8-1.2 0.8-1.4 0.6 1.2 1.6-2.7 1.8 0.5 0.4 0.4-0.1 0.3 0.2 0.3 1.1-1.5 0 0 1.4 1.3 1.3 0.2 0.9-0.9 0.7-1.9 0.3 0.9 2.6 0.4 0.8 1 1 0.8 1.5-16-4.2-4.6-1.2-4.7-0.1-5.2-1.6-1.1-5.9 0.1-7.3-1.7-5.5-5.9-3.6-5.9-0.7-12.5 0.6-3.6-1.3-5.6-4.7-2.7-1.4z" id="ILZ" name="HaZafon">
  </path>
  <path d="M501.4 166.9l0.5 0.1 1.4 0.5 0.5 0.4 0.5 0.6 0.7 1.6 0.4 0.7 0.3 0.5 0.8 0.5 0.2 0.5 0.1 0.7-0.5 2.9 0.1 0.5 0.3 0.4 1.6 1.2 0.6 0.4 0.2 0.3 0.7 0.5 0.3 0.2 0.7 0.4 2.9 0.8 0.7 0.4 0.3 0.2 0.2 0.5 0 0.8-0.5 2.9 0 0.5 0.2 0.9 0.4 1.1 2.1 4.5 0 0.7 0 0.9-0.2 1.9-0.2 0.9-0.3 0.6-1.9 3.1-0.2 0.3-0.3 0.7-0.1 0.4 0.4 3.3-0.1 0.8-0.3 0.4-1 0.6-0.2 0.5-0.1 0.6 0.1 1.2 0 0.5 0 0.5-0.3 0.7-0.5 0.6-0.5 0.5-0.3 0.3-0.4 0.1-0.3 0.1-0.3-0.2-0.3-0.3-0.2-0.3-0.6-1-0.3-0.2-0.3-0.2-0.4 0-0.3 0.2-0.2 0.3-0.3 0.8-0.1 1.4 0 0.4 0.9 4.2 0 1-0.1 0.5-2.8 1.6-0.3 0.2-0.3 0.3-0.4 0.7-1.5 3.3-0.6 1-0.3 0.3-0.3 0.2-0.4 0-0.4 0-2.6-1.2-0.9-0.2-0.5 0-0.4 0-0.4 0.2-0.4 0.1-0.3 0.2-0.6 0.6-0.2 0.3-0.4 0.7-0.1 0.3-0.2 0.9 0 0.5 0.3 0.7 0.6 1 1.6 1.7 0.3 0.7-0.1 0.3-0.9-0.1-1.1-0.5-0.5-0.1-0.5-0.1-0.9 0.1-0.4 0.1-0.4 0.2-0.2 0.3 0 0.5 0.3 0.8 0.9 1.4 0.3 0.8 0.1 0.7 0 0.4 0.1 0.5 0.1 0.4 0.2 0.3 0.8 0.8 2.7 1.7 0.3 0.4 0.1 0.6-0.1 0.9-0.5 1.7-0.1 0.4 0.1 0.4 0.1 0.4 0.3 0.4 1.3 0.8 0.4 0.5 0.2 0.4 0.4 0.5 0.6 0.5 1.3 0.7 0.6 0.4 0.9 0.4 5.7 1.2 0.4 0.1 0.5 0.1 0.6-0.1 0.8-0.3 1.3-1 0.6-0.6 0.4-0.5 0.2-0.3 0.1-0.3 0.4-0.3 1.1-0.7 0.3-0.4 0.2-0.5 0.1-0.4 0.1-0.4 0.1-0.4 0.3-0.3 0.3-0.2 1.8-0.9 0.3-0.3 0.2-0.3 0.3-0.3 0.5-1 0.5-0.6 0.3-0.2 0.3-0.2 0.9 0.6 0.7 0.4 5.6 5.3 0.4 1.1-0.3-0.2-3.5 0.2-2.8 2.2-5 5.8-6.1 3.9-5.9 2.8-5.3 3.8-3.9 6.8-2.3 12.2-0.1 0-2.2 0.2-1.3-0.3-0.2-0.4-0.3-0.3-0.2-0.3-0.4-0.4-0.7-0.4-3.1-2.8-0.8-0.5-0.7-0.3-9.8-0.8-1.9 0.2-0.5 0.1-2.2 0.2-8.2-0.2-0.1 0 1.1-5.3 6.1-30.6 1.2-2.3 1.1-10.4 1-3.2-0.3-3.4 4.5-19.2 1.1-21.1 1.6-4.8 3-1.6 2.5 0.6 4 2.6 3 0.6 1.8-0.4 6.9-7.4 0.9-2 1.6-6.2z" id="ILHA" name="Haifa">
  </path>
  <path d="M452.4 424.8l-6.5 5.3-1.7 0.8-0.2-0.2-0.5-0.5-0.3-0.6-0.5-0.8-1.3-4-0.5-1.2-0.6-0.9-0.7-0.6-3.3-1.9-1-0.4-0.6-0.1-0.6 0.7-0.5 0.3-3.2 0.5-0.6 0.2-0.1 0.3 0.2 0.2 0.3 0.2 0.4 0.1 0.4 0.2 0.3 0.3 0.2 0.3 0.1 0.4 0.2 0.4 0.2 0.3 0.3 0.3 0.2 0.2 0 0.3-0.3 0.4-1.1 0.3-0.8 0.5-2 1.5-0.7 0.3-0.9-0.1-4.8-1.6-0.1-0.2-0.2-0.3 0-0.3-0.1-0.3 0.1-0.4 0.1-0.3 0.3-0.4 0.2-0.2 0.7-0.4 1.1-0.5 0.3-0.2 0.3-0.3 0.3-0.2 0.2-0.4 0.1-0.3 0-0.4-0.1-0.4-0.8-0.8-1.3-1-0.6-0.5-0.4-0.5 0-0.2-0.1-0.3 0-0.4 0-0.4 0.1-0.3 0.1-0.2 0.3-0.5 0.1-0.1 0.3-0.2 0.4-0.1 0.4-0.1 0.8 0.2 1.2 0.4 0.8 0.1 0.4 0 0.3 0 0.4-0.1 0.3-0.2 0.2-0.3 0.1-0.4 0-2 0.2-0.8 0.1-0.4 0.1-0.4-0.3-1.4 0-0.4 0.1-0.3 0.2-0.3 0.6-0.6 0.2-0.4 0.1-0.6-0.2-1-0.4-0.4-0.4-0.2-0.4 0.1-0.6 0-0.8-0.1-1.6-0.6-0.9-0.2-0.8 0-0.4 0.2-1.7 0.5-0.8 0.3 5.4-12.3 3.7-5.9 4.3-14.4 0 0.1 1.8 2 1 0.6 6.4 0.8 4 0.1 0.7-0.1 0.7-0.3 0.1 0 0.1 0 0-0.1 3-3.2 0.2-0.2 0.3-0.4 0.5-0.3 1.3-0.7 0.7-0.2 0.6-0.1 0.4 0.2 0.3 0.2 0.7 0.9 0.8 0.6 0.5 0.2 0.9-0.2 3.5-1.4 0.9-0.7 0.4-0.6-0.1-0.4-0.1-0.3-0.1-0.2-0.5-0.4-0.3-0.3-1.8-0.8-0.3-0.3-0.1-0.3-0.1-0.4-0.9-5.5-0.2-0.4-0.1-0.4-0.2-0.3-0.6-0.6-0.9-0.6-0.3-0.3-0.6-0.4-0.2-0.2-0.1-0.1-0.2-0.3-0.2-0.3-0.1-0.4 0-0.5 0-0.4 0.1-0.9 0.2-0.8 0.2-2.3 0.1-1.1 0.2-0.4 1.3-1.7 0.4-0.7 1.4-2.8 0.5-1.8 0-0.5-0.1-0.4-0.3-1-0.1-0.4 0-0.5 0.2-0.8 0.2-1 0-1.7-0.1-0.5-0.1-0.4-0.2-0.4-0.2-0.2-1.1-0.6-0.3-0.2-0.2-0.2-0.5-0.7-0.9-0.6-1.2-1-0.3-0.2-0.8-0.4-0.8-0.2-4.2-0.6-1.2 0.1 6.6-20.7 5.9-29.7 0.1 0 8.2 0.2 2.2-0.2 0.5-0.1 1.9-0.2 9.8 0.8 0.7 0.3 0.8 0.5 3.1 2.8 0.7 0.4 0.4 0.4 0.2 0.3 0.3 0.3 0.2 0.4 1.3 0.3 2.2-0.2 0.1 0-0.8 4-1.4 4.8-0.8 0.5-2.6 1-0.8 0.6-0.8 2.9-0.7 7.4-0.6 3.1 2.5 0.7 1.4 1.8 0.3 2.5-0.7 2.9-1.4 2.9-7.7 7.2-0.7 3.5 0.9 3 2.9 5.5 1.9 6.1-0.5 8 4.5 16.1-2 2.3 0.4 4-0.2 3.5-2.2 2.7 2.8 4.1 1.3 1.1-0.8 1.3 0.4 1.3 2.1 1.7 2.7 0.5 1.8 3.7-0.9 11-0.8 1-4.7 0.2-1.6 0.5-1.2-0.2-4.2 0-2.4 0.2-3.1 1.5-2.4 1.6-2 0-2 1.9-0.5 0.7-1.5 3.5-1.2 1.2-1.2 0.7-12.1 3.3z" id="ILM" name="HaMerkaz">
  </path>
  <path d="M477.2 467.6l0-0.1-14.2-10.2-1.6-1.5 0.2-1.4 0-2-0.1-0.5-0.3-1.2 0-0.5 0.1-1.4-0.3-2.9 0-0.5 0.1-0.5 0.1-0.4 0.5-1.2 0.1-0.4 0-0.5 0-0.5-0.1-1-0.8-2.4-0.1-0.4 0-0.4 0.1-0.4 0.3-0.9 0.2-0.6 0-1.1-0.1-0.6-0.3-0.4-0.2-0.2-0.8-0.3-0.4-0.1-1.8-1.4-5.4-6.9 12.1-3.3 1.2-0.7 1.2-1.2 1.5-3.5 0.5-0.7 2-1.9 2 0 2.4-1.6 3.1-1.5 2.4-0.2 4.2 0 1.2 0.2-1.7 2-2.2 1.9-0.3 0.9 0.6 0.5 4.2 0.6 2.3-0.2 2.8-0.7 3.6-3.7 2.1-1.1 1.7-0.3 2.3 0.1 2.3 1.4 1.9 3.9 3 1.7 1.7-0.2 3.1 2.5 7.3 1.5 2.4-0.3 0-1.2-0.7-1.4 0.2-1.2 1.3-0.3 1.3 0 3.3 1.8 0.5-0.3 0.1-0.9 0-3.5-0.7-3.4-0.7-2.3-0.9-1.8 0.1-1.4 1.4-1 1.9 0.5 0.9 2.8-0.1 2.3 0.3 1.7 1.2 1.8 2.2-0.6 1.1 0.1 0.7 0.7 0.7 0.7-1.1 1.7 0.4 0.4 1.3 0.2 0.9 0.6-0.8 1.7-1 1.5 0.6 2.7 0.3 1.9 0.5 0.7-0.9 1.4-1.1 3.2 0.1 1.7 1.3 1.3 0.6 1.9-0.9 1.5-1.1 1-0.7 3.4-0.9 1-0.4 1.9-0.9 0.4-1.3-0.8-0.7-1.1-0.7-0.4-1 0.9-2.8-1.8-5.1 0.7-2.5-2.8-2.4-0.3-1.1-0.9-4.6 1-2.3 3.5-4.1 3.6-6.8 6-16.9 10.7-3.6 4.3-0.5 0.9z" id="ILJM" name="Jerusalem">
  </path>
  <path d="M447.8 331.4l1.2-0.1 4.2 0.6 0.8 0.2 0.8 0.4 0.3 0.2 1.2 1 0.9 0.6 0.5 0.7 0.2 0.2 0.3 0.2 1.1 0.6 0.2 0.2 0.2 0.4 0.1 0.4 0.1 0.5 0 1.7-0.2 1-0.2 0.8 0 0.5 0.1 0.4 0.3 1 0.1 0.4 0 0.5-0.5 1.8-1.4 2.8-0.4 0.7-1.3 1.7-0.2 0.4-0.1 1.1-0.2 2.3-0.2 0.8-0.1 0.9 0 0.4 0 0.5 0.1 0.4 0.2 0.3 0.2 0.3 0.1 0.1 0.2 0.2 0.6 0.4 0.3 0.3 0.9 0.6 0.6 0.6 0.2 0.3 0.1 0.4 0.2 0.4 0.9 5.5 0.1 0.4 0.1 0.3 0.3 0.3 1.8 0.8 0.3 0.3 0.5 0.4 0.1 0.2 0.1 0.3 0.1 0.4-0.4 0.6-0.9 0.7-3.5 1.4-0.9 0.2-0.5-0.2-0.8-0.6-0.7-0.9-0.3-0.2-0.4-0.2-0.6 0.1-0.7 0.2-1.3 0.7-0.5 0.3-0.3 0.4-0.2 0.2-3 3.2 0 0.1-0.1 0-0.1 0-0.7 0.3-0.7 0.1-4-0.1-6.4-0.8-1-0.6-1.8-2 0-0.1 1.9-6.2 0.1-1.1-0.2-2.5 0.1-1.1 2.7-1.5 9.4-29.4z" id="ILTA" name="Tel Aviv">
  </path>
 </g>
 <g id="points">
  <circle class="29.685543049126828|34.33033694151017" cx="354" cy="910" id="0">
  </circle>
  <circle class="31.252355103577067|35.150197777657255" cx="516.2" cy="550.1" id="1">
  </circle>
  <circle class="33.210870171639854|35.80608644657492" cx="646" cy="91.8" id="2">
  </circle>
 </g>
 <g id="label_points">
  <circle class="HaDarom" cx="457.1" cy="635.7" id="ILD">
  </circle>
  <circle class="HaZafon" cx="580.7" cy="174.1" id="ILZ">
  </circle>
  <circle class="Haifa" cx="491.9" cy="204.2" id="ILHA">
  </circle>
  <circle class="HaMerkaz" cx="450.5" cy="400.3" id="ILM">
  </circle>
  <circle class="Jerusalem" cx="493.5" cy="434.3" id="ILJM">
  </circle>
  <circle class="Tel Aviv" cx="447.7" cy="362.2" id="ILTA">
  </circle>
 </g>
</svg>