<?xml version="1.0"?>
    
<!--********* Copyright (c) 2024 Pareto Softare, LLC DBA Simplemaps.com ***************************************
************* Free for Commercial Use, full terms at  https://simplemaps.com/resources/svg-license ************
************* Attribution is appreciated! https://simplemaps.com *******************************************-->

<svg baseprofile="tiny" fill="#6f9c76" height="907" stroke="#ffffff" stroke-linecap="round" stroke-linejoin="round" stroke-width=".5" version="1.2" viewbox="0 0 1000 907" width="1000" xmlns="http://www.w3.org/2000/svg">
 <g id="features">
  <path d="M115.1 89.3l-0.3 0.3-5.2 5.6-1 2.5-1.4 6.4 0.7 3.5 1.2 3.2 0 3-1.8 3.2-8.1 8.3-2.6 4.5-0.5 2.6 0.6 2 3 4.1 0.3 0 0 0.8 0.3 0.5 0.3 0.3 0.3 0.5 0.3 1 0.1 0.7-0.2 0.3-0.1 0.3-0.1 2 1.7 16.1 1 1.3 0.2 0.4 0 0.3 0.4 3.6-0.2 0.3-0.4 0.2-0.5 0.4-0.2 0.7 0.4 0.9 0.6 1.2 0.3 1.1 3.2 3.8 1.1 2.7-0.5 7.4 0.7 3.1 1.7 2.7 13.8 9.1 6.1 1.1 5 0 6.6 6 0.8 1.6 5.8 3.3 2 1.9 2.2 0.9 1.4-1 0.8-1.2 0.1-0.5 0.7-1.7 1.6-1.9 2.8-1.8 2.3-0.5 1.2 0.1 1.3-1.2 2-1.3 2.1 0.3 1.5 1.5 1.9 1.2 2.4 0.5 1.5 1.3 0.2 1.3-0.6 0.8 1.8 5.5 0 3.9 1.7 2.5 4.6 0.6 11.2-1.3 6.5 14.6-1.2 0.4-1.4 0.8-0.2 1.2 0.4 1-0.3 0.9-0.8 1.6-2 2.3-3.5 1.6-5.4-0.5-4.9-1.4-1.8-1.2-0.8-0.9-0.9-0.8-0.7-0.9-0.3-0.7-0.6-0.5-24.3 2.3-11.9-1.7-4.1 1.6-1 1.4-0.1 2.8-2.3 3.5-7.6 2.4-1.5 1.6-0.5 0.9-1 1.1-0.7 2.8-2.6 3-0.8 1.9-1.8 1.9-1.6 0.9 0 0.1-1.1-0.4-1.2 0-1.6 0.8-0.8 0.2-1 0.7-1 0.3-1-0.1-0.9-0.9-0.3-0.9 0.3-1.2 0.6-1.2 0.6-1 0.1-1.1-0.5-1.2-1.5-1.9-0.2-1.2 0.1-2.7-0.3-1.2-0.6-0.6-0.9-0.7-0.3-0.7 1.2-0.8-0.9-1.1-0.4-1-0.1-2.5-0.2-1.4-0.5-1.5-0.8-1-1.2-0.1-2.7 1.1-1.3 0.1-1.3-0.6-0.6-0.6-0.1-0.6-0.1-0.6-0.2-0.7-0.4-0.6-0.4-0.4-0.3-0.4-0.1-0.9-0.6-0.6-0.7-0.7-0.2-0.1-0.7-0.9 0.1-0.9 0.2-0.2 0.6-0.2 0.2-0.1 0-1.3 0.5-2 0.9-2.1 0.1-1.1-0.5-1.3-1.1-2.1-0.7-0.9-0.8-0.4-0.6-0.1-0.6-0.1-0.5-0.4-0.4-0.5-0.6-0.5-0.7-0.1-1.4 0-1.3-0.2-0.9-0.7-0.4-1 0.5-1.4 1.7-2.1 0.7-1 0.2-1.5-0.2-1.3-0.4-0.9-0.3-1.1 0.2-1.6 0.6-0.6 0-0.7-0.3-0.5-1-0.5-0.5-0.6-0.4-0.2-0.4 0-0.9 0.3-0.5-0.1-0.2-0.3-0.2-0.9-0.2-0.4-0.4-0.2-0.3-0.1-0.3-0.2-0.3-0.4-0.4-1 0-0.6 0.6-1.7 0.3-1.1-0.3-1-0.4-1-0.2-1.2 0.4-1.1 0.6-0.5 0.6-0.4 0.6-0.7 0.1-1.9-1.1-1.3-2.7-1.7-0.4-0.8-0.2-0.8-0.5-0.6-1.7 0.3-0.4-0.5-0.7-1.7-0.7-0.6-1.8-0.1-0.6-0.4-0.3-1 0.6-1.7-0.2-1-0.2-1.3 0.1-1.4 0.3-1.5 0.4-1.2-0.2-1-1-0.8-1-1.1 0.2-1.8 0.4-0.5 1.7-1.3 0.4-0.8-0.1-0.6-1.7-2.1-1.2-1-1.3-0.6-1.3 0.1-0.6 0.4-0.7 0.2-0.7 0-0.3-0.7 0-0.4 0.2-0.9-0.1-0.3-0.3-0.3-0.3 0.1-0.3 0.1-0.4-0.1-0.5-0.7-0.3-0.7-0.2-0.7-0.2-0.6-0.6-0.3-1.6-0.9-0.6-0.1-3.1 0.3-1.6-0.2-0.8-1.3 0.1-0.5 0.1-0.2 0.5-0.6 0.4-0.7-0.1-0.7-0.2-0.9 0.1-0.7 0.3-0.7 0.4-0.8 0.4-0.9 1.1-1.3 0.5-0.9 0.4-1.2 0.4-0.8 0.6-0.5 0.9-0.4 0.3-0.4-0.4-1.1 0.1-0.6 0.3-0.3 0.9-0.4 0.3-0.4 0.3-0.9 0.3-1.2 0.2-1.1-0.2-2.9 1.3-1.5 1.7-1.4 1.1-1.5 0-0.9-0.4-1-0.6-0.8-0.6-0.6-0.8-0.3-0.6 0.2-1.5 0.9-2.4-0.5-0.7-0.3-0.4-0.3-0.1-0.5 0.1-1 0-0.5-0.1-1.6 0-0.7 0.6-2.4 0-1-0.4-3.1 0.2-2.4 0-1.2-0.3-1-0.3-0.4-0.4-0.3-0.9-0.2-0.5-0.3 0.1-0.4 0.4-0.4 0.2-0.5-0.2-1-0.2-0.8-0.1-0.7 0.2-1.2 1.2-4.4-0.2-1.8-2.5-1.2-0.8-0.7-0.6-0.9-0.5-1.4-0.2-0.4-0.1-0.5 0-0.5 0-0.6-0.4-0.3-0.4-0.4-0.3-0.4-0.2-0.9-0.1-0.5-0.3-0.4 0.7-1.1 0.7-0.6 0.5-0.8-0.4-2.4 0.2-0.9 0.9-1.9-0.4-1.5-1.8-1.2-2.1-1.2-1.2-0.9 0-0.5 0.3-1.1-0.1-0.6-0.5-1.2-0.2-0.5 0-0.5 0.1-0.4 0-0.5-0.5-1.2-0.3-1.3-0.2-0.6-1.3-1.4-0.2-0.8 0.5-0.7 0.9-0.6 0.7-0.3 0.8 0 1 0.1 1.1-0.1 2.6-0.7 1.1 0.2 3.2 1.6 1.2 0.1 1.1-0.3 2.4-1.1 0.9-0.6 0.8-1.3 0-1.1-0.1-1.1 0.2-1.4 0.5-0.7 0-0.7-0.1-0.8-0.1-0.9 0.1-1 0.2-0.8 1.5-3.1 0.3-0.8 0-0.3 0.1-0.7-0.2-2 0.2-0.7 5-4.1 1.2-0.4 0.7 0.6 1.3 1.9 0.6 0.7 2.8 1.3 0.9 0.8 3.9 2.8 0.1 0.2 0.7 0.4 0.1 0.1 1 0.2 1.1 0-0.1 0.3-0.2 0.2 1 0.7 0.6 1.3 1.4 5.9 0.6 1.2 0.9 0.9-0.4 0.7 0.2 0.4 1.2 0.9 0.3 0.1 0.5-0.1 0.3 0.1 0.2 0.3 0.1 0.3 0.2 0.2 1.7 1.1 0.2 0.4 0.2 0.4 0.4 0.6 0.5 0.6 0.4 0.2 0.4 0.6 0.8 2 0.3 0.6 0.4 0.6 0.3 0.6 0.5 3.1 0.3 0.9 1.3-0.4 4.9 1.6 0.1-0.1 0.3-0.2 0.5-0.2 0.4 0.1 0.1 0.4-0.1 0.5 0 0.6 0.5 0.2 0.6 0.1 0.6 0.4 0.3 0.7-0.4 0.9 0.3 0.6 0.4 0.3 0.5 0.2 0.4 0.5 0.2 0.5 0.4 1.3 0.2 0.5 0.5 0.3 1.1 0.5 0.2 0.4-0.1 0.7-0.2 0.5-0.1 0.5 0.1 0.6 0.5 0.7 1 0.7 1.1 0.5 0.5 0.1z" id="IR02" name="West Azarbaijan">
  </path>
  <path d="M186.7 76.9l0.3 1.2 0.2 0.1 0.1 0.6 0.6 0.8 1.5 0.7 0.7 1.2 0.8 3.7-0.2 1.2-0.3 1.1-0.9 1.4-4.1 2.8-3 0.4-1.8 1.1-2.1 0.4-2.2-1.8-1 0-0.1 1 0 1.7-0.3 1.7-0.7 0.6-2.5-0.6-1.7 0.2-0.5 0.8-1.3 0.8-1.9 2.5-0.7 3.7 1.3 3.3 2.4 1.4 3.2-1.2 3.3-1.8 3.1-0.8 7 2 2-1.6 1.8-2.5 2.9-2.2 0.6-0.8-0.7-0.2-0.7-1 5.4-9.4 3.6-2.4 1.9 0.1 3.2-1.9 3-2.7 1.9 0.7-0.7 6.9 0.8 1.1 0.1 4.5 2.7 6.8-0.5 4.1-1.7 2.3 0 1.7 2.5 1.4 0.9 3-2.3 1.5-3.4-0.5-3.2 0.9-2 2.2-3.8 2.7-1.4 2.8-1.2 1.6-1 2.2-0.2 3.1 0.5 1.8 2.3-0.9 3-0.3 1.5 1.4 0.6 0.5 1.4 0.2 10.6-1.5 3.3 1.6 1.4 4.4 0.3 4.8 2.4 5.9 3.7 5.1 3.1 2.9 0.5 1-0.5 1.7-1 2.3-0.4 5.4 1.4 6.5 4.6 2.8 0.3-0.1 1 0.2 3.5 1.8 1.2 1.1 0.4 4.3 1.2 2.9 2.9 1.9 1 1 2.2 1.8-0.2 0.3-0.2 0.9 0.4 0 0.4-0.5 0.7-0.3 1.6-0.1 0.7 0.4 0.6 1.3 0.5 0 0.6 0.3 0.7 0.3-0.6 0.3-1.6 1.3-3.5 1.4-11.3-1.2-3.1 0.5-4.4-0.7-14.8 1.8-1.7 0.7-1.6 0.9-2.6 2.8-3.1 1.5-1.4 1-2 3.3-7.1 7.3-0.9 1.8 0 2.9 0.3 1.9-11.2 1.3-4.6-0.6-1.7-2.5 0-3.9-1.8-5.5 0.6-0.8-0.2-1.3-1.5-1.3-2.4-0.5-1.9-1.2-1.5-1.5-2.1-0.3-2 1.3-1.3 1.2-1.2-0.1-2.3 0.5-2.8 1.8-1.6 1.9-0.7 1.7-0.1 0.5-0.8 1.2-1.4 1-2.2-0.9-2-1.9-5.8-3.3-0.8-1.6-6.6-6-5 0-6.1-1.1-13.8-9.1-1.7-2.7-0.7-3.1 0.5-7.4-1.1-2.7-3.2-3.8-0.3-1.1-0.6-1.2-0.4-0.9 0.2-0.7 0.5-0.4 0.4-0.2 0.2-0.3-0.4-3.6 0-0.3-0.2-0.4-1-1.3-1.7-16.1 0.1-2 0.1-0.3 0.2-0.3-0.1-0.7-0.3-1-0.3-0.5-0.3-0.3-0.3-0.5 0-0.8-0.3 0-3-4.1-0.6-2 0.5-2.6 2.6-4.5 8.1-8.3 1.8-3.2 0-3-1.2-3.2-0.7-3.5 1.4-6.4 1-2.5 5.2-5.6 0.3-0.3 0.8 0.2 0.9 0.6 0.3 0.1 0.3 0 1.3 0.1 2.7 0.6 4.2 0.1 2.4 0.9 1.1 0.5 9.9 2.1 3.1 1.4 2.8 0.7 0.4-0.1 3.2-0.4 0.8-0.4 2.4-1.8 1-0.4 0.6-0.2 1.8-0.1 1.1-0.3 0.5-0.1 0.7 0.2 4.9 2.1 0.8 0.3 0.9-0.1 1-0.4 0.8-0.5 0.7-0.6 0.7-0.7 0.5-0.9 1.3-2.7 0.6-0.8 0.9-0.7 2.7-1.4 0.8-0.8 0.8-1.8 0.6-0.9 0.3-0.3 0.8-0.5 0.4-0.3 0.3-0.3 1.2-2.1 0.6-0.8 0.7-0.6 0.8-0.3 0.8-0.1 1.3 0.6 0.7 0.2 0.6-0.1 2.8-1.6z" id="IR01" name="East Azarbaijan">
  </path>
  <path d="M254.6 194.6l-0.7-0.3-0.6-0.3-0.5 0-0.6-1.3-0.7-0.4-1.6 0.1-0.7 0.3-0.4 0.5-0.4 0 0.2-0.9 0.2-0.3-2.2-1.8-1-1-2.9-1.9-1.2-2.9-0.4-4.3-1.2-1.1-3.5-1.8-1-0.2-0.3 0.1-4.6-2.8-1.4-6.5 0.4-5.4 1-2.3 0.5-1.7-0.5-1-3.1-2.9-3.7-5.1-2.4-5.9-0.3-4.8-1.4-4.4-3.3-1.6-10.6 1.5-1.4-0.2-0.6-0.5-1.5-1.4-3 0.3-2.3 0.9-0.5-1.8 0.2-3.1 1-2.2 1.2-1.6 1.4-2.8 3.8-2.7 2-2.2 3.2-0.9 3.4 0.5 2.3-1.5-0.9-3-2.5-1.4 0-1.7 1.7-2.3 0.5-4.1-2.7-6.8-0.1-4.5-0.8-1.1 0.7-6.9-1.9-0.7-3 2.7-3.2 1.9-1.9-0.1-3.6 2.4-5.4 9.4 0.7 1 0.7 0.2-0.6 0.8-2.9 2.2-1.8 2.5-2 1.6-7-2-3.1 0.8-3.3 1.8-3.2 1.2-2.4-1.4-1.3-3.3 0.7-3.7 1.9-2.5 1.3-0.8 0.5-0.8 1.7-0.2 2.5 0.6 0.7-0.6 0.3-1.7 0-1.7 0.1-1 1 0 2.2 1.8 2.1-0.4 1.8-1.1 3-0.4 4.1-2.8 0.9-1.4 0.3-1.1 0.2-1.2-0.8-3.7-0.7-1.2-1.5-0.7-0.6-0.8-0.1-0.6-0.2-0.1-0.3-1.2 0.3-0.2 0.5-0.6 0.2-0.4 0.8-2.3 1.7-2.8 0.2-0.6 0.4-0.5 2.3-1.4 4.7-1.8 0.5-0.3 1.4-0.8 1.6-1.6 2.4-3 1.5-1.3 2-1.1 3.3-1.2 1-0.1 0.6-0.4 2.5-2.5 0.9-0.5 5.6-3.2 2-2.1 0.8-0.7 0.9-0.7 1.1-0.3 3.6 0.1 0.6-0.2 0.5-0.4 0.5-0.8 0.7 0.1 0.9 0.7 2.9 2.7 7.9 9.5 3.2 3 1.3 1.8 1.1 2.2-0.5 0.2-1.2 0.4-2.5 1.7-3 0.5-1.5 0.9-1.4 1.3-0.9 1.7-0.1 2.1 0.7 1.6 1.1 1.7 2.7 2.6 2.7 1.1 0.7 0.7 1.4 3 0.3 0.8-0.1 0.8-0.2 0.9-0.3 0.8-0.5 0.6-1.9 1.2-8.7 1.6-0.2 0.4 0 0.4-0.1 0.4-2.5 1.5-0.4 0.7 0.1 2.5 0.9 1.7 3.1 2.5 6.2 3.1 0.6 0.5 0.1 0.5 0.3 0.9-0.2 1.2 0.1 1 2.2 1.8 0.8 1.1 0.8 0.8 1.5 0 2.4-1.1 1.1 0 0.5 1.3 0.3 1.6 0.7 0.8 0.7 0.7 0.8 1.3 0.8 0.8 0.7 1 1.1 1.5 0.7 0.8 1.2 2.1 1.5 1.5 0.3 0 0.3 0.6 1.5 1.4 0.9 1.3 0.3 1.1 1.1 0.4 1.8 0.4 0.7 0.8-0.4 1.1-10.6 12.7-1 2.3-0.4 3.2-1.5 2.3-0.1 3.3 4.3 12 7.8 12.3 2.6 2.7 3 2.4 1.6 2 0.1 1.7-0.2 2.6 0.4 3.1 0.5 1.4-3.2-1.7-1.6 0.5-1.9 1.3-1.7-0.2-1.3-0.8-0.9 0.4-0.6 1 0 1-0.7 1-1.4 0.3-3.5-3.7-2-0.7-1.3 0.4z" id="IR03" name="Ardebil">
  </path>
  <path d="M274.7 195.8l-0.5-1.4-0.4-3.1 0.2-2.6-0.1-1.7-1.6-2-3-2.4-2.6-2.7-7.8-12.3-4.3-12 0.1-3.3 1.5-2.3 0.4-3.2 1-2.3 10.6-12.7 0.4-1.1-0.7-0.8-1.8-0.4-1.1-0.4-0.3-1.1-0.9-1.3-1.5-1.4-0.3-0.6 2.2 0.2 1.1-0.3 1.3-0.6 1.2-0.7 0.9-1 1-0.5 1.6 0 3 0.6 0.1 5.3-0.5 1.7 0.3 1.3 0.1 3.2 0.9 2.2 0.7 7.3 1.9 7-0.4 1.1 0 1.4 0.2 1.3 0.4 0.9 1.6 2.7 0 0.6-0.1 0.6-0.1 0.4 0.5 2.3 1 2.3 2.4 3.6 3.2 3.3 3.4 2.5 7.6 3.9 3.5 1.2 18.1 2.5 2-0.3 1.6-0.7 1.5-0.3 1.7 0.9-0.5 0.1-0.5-0.2-0.3 0-0.3 0.5 3.9 1.5 6.1 1.4 2.2 0.9 1.5 1.4-0.2 2.1 0.4 0.8 0.6 2.2 0.5 0.8 0.7 1.1 1.1 3.2 1.4 2.3 1.6 1.6 3.4 2.6 2.4 2.8 0.7 0.4 0.9 0.3 2.9 2 0 0.2-0.4 1.5-1.6 2.3-2.5 1.3-1.9 1.8-1 4.9-2.9 5.2-2.5 1.6-6.4-0.6-3.9 0.8-1 0.6-1 0.3-8.8 4.8-2.4 0.4-4.3-0.8-1-0.7-1.5-0.3-2.4 0.1-6.4-1.9-2.9-2.7-2.7-3.4-0.6-1.9-0.1-1-4.4-2.1-2.8-9.7-2-3.2-5.2-5.6-7.1-4.5z" id="IR19" name="Gilan">
  </path>
  <path d="M115.5 266.1l0-0.1 1.6-0.9 1.8-1.9 0.8-1.9 2.6-3 0.7-2.8 1-1.1 0.5-0.9 1.5-1.6 7.6-2.4 2.3-3.5 0.1-2.8 1-1.4 4.1-1.6 11.9 1.7 24.3-2.3 0.6 0.5 0.3 0.7 0.7 0.9 0.9 0.8 0.8 0.9 1.8 1.2 4.9 1.4 5.4 0.5 3.5-1.6 2-2.3 0.8-1.6 0.3-0.9-0.4-1 0.2-1.2 1.4-0.8 1.2-0.4 1.3 1.4 23.8 4.7 0.1 0.3 1.5 1.6 0.3 0.7 0.2 1.1 0.5 1.3 0.5 1.1 0.4 0.7-0.4 0.4-0.1 0.6 0.3 1.4-0.1 0.4-0.2 0.4-0.2 0.3 0.1 0.5 0.2 0 0.8 0.1 0.9 3.3 0 6-1 4.2-1.9 2-0.8 2.1 0.7 1.5 12.9 7.9 0.9 0.8 0.9 1.6 0.5 1.3-7-3.8-1.7 0.4 0.9 2.4 1.3 1.8 0.6 1.2 0 1.5-3.4 1.1-1.3 1.3-1.6 0.7-1.4-0.4-2.2-4.6-1.1 0.1-2.5 2.8-0.7 1.4 3.3 4.9 5 11.4 2.3 2.8 2 1.2 2.7 2.7 1.3 5.3-1 4.3-1.6 2.6-1.6 1.4-1-0.5-1.5-3.8-0.9 0.3-0.5 1.6-1.8 0.9-2.8 0.8-1.5 0.8-1.4 0.1-2.1-0.3-7.2-8.2-5.4-2.5-1.8-1.6-1.4-0.1-0.5 1.1 0.8 1.7-0.1 2-1.6 1.5-6.8 0.4-0.5 1.1-0.3 3.8-0.9 0.5-1.9-0.1-2.9 0.3-2.8 2.9-2 0.7-0.6 1.3 0 1.6-1 1.2-1.6 0.2-0.9 1.3-0.2 1.9-1.8 0.9-3.2 0.5-4.2-0.5-2.9 0.3-1.5-1.7-0.1-2.3 0.4-1.7-0.2-1.2-1.1 0.1-2-1.4-11.3-15.5-9-7.1-1.3-0.4 0.1-0.2-0.3-1.7-1.1-1.3-2.6-2.4-3-4.8-0.7-1.7 0-0.5 0.1-0.5 0.3-0.4 0.4-0.3 0.1-0.2 0.1-0.2-0.1-0.3-0.1-0.2-0.6-1.1-0.4-1.2 0.2 0 0.3 0 1.4 0.4 0.1-0.8-0.4-2.2 0-1 0.1-1 0.4-0.9 0.6-0.7 1-0.3 3.3 0.1 0.9-0.2 2.4-1.3 1.9 0.1 0.9-0.1 0.8-0.7 0.6-1 1.4-0.9 0.8-0.7 0.5-0.9 0.1-0.9-0.3-0.8-0.8-0.5-1-0.2-0.9 0.5-0.8 0.5-0.9 0.4-2 0.4-1 0-0.9-0.4-0.4-0.3-0.3-0.3-0.2-0.4-0.2-1.2-0.2-0.2-0.4-0.1-1.4-0.5-0.8 0-0.8 0.3-0.9 0.5-0.9 0.3-3-0.1-1.5 0.5-0.5-0.1-0.5-0.1-0.5-0.1-1.1 1-0.9 0.5-1 0.1-0.8-0.6-0.5-0.1-1.8 0.6-0.8-0.3-0.6-0.8-1.2-2.9-2.2-3.1-1.4-1.3-1.3-0.3-0.6-0.4-1.7-1.6-1.8-0.6z" id="IR16" name="Kordestan">
  </path>
  <path d="M144.8 307.8l1.3 0.4 9 7.1 11.3 15.5 2 1.4 1.1-0.1 0.2 1.2-0.4 1.7 0.1 2.3 1.5 1.7 2.9-0.3 4.2 0.5 3.2-0.5 1.8-0.9 0.2-1.9 0.9-1.3 1.6-0.2 1-1.2 0-1.6 0.6-1.3 2-0.7 2.8-2.9 2.9-0.3 1.9 0.1 0.9-0.5 0.3-3.8 0.5-1.1 6.8-0.4 1.6-1.5 0.1-2-0.8-1.7 0.5-1.1 1.4 0.1 1.8 1.6 5.4 2.5 7.2 8.2 2.1 0.3 1.4-0.1 0.1 0.9-0.3 1.6-1.6 1.8-1.8 4.2-2.2 3.3-4.7 0.5-1.5 0.6-0.7 0.9 0.4 2.3 2.4 1.9 3.5 1.9 1.5 0.3 1.3 0.7 0.7 2.3 1.2 1.9 4-4.2 2.2-1 1.1-0.2 0.9 1.4 0.5 2.3-0.6 3.8 0.2 2.6-1.5 1.2-5.3-1.1-4.6 0.3-1.8 2.6-0.8 1.6-3.2-0.4-1.4 0.4-0.9 0.6-0.1 1.3 0.4 3-0.3 3.2-2.3 1.2-3.3 0.2-2.7 1.3-0.3 0.8 0.1 0.6 0.3 0.4 0.3 0.3 0.2 0.5 0.1 0.6-0.1 1.1 0 0.6 0.2 0.4-0.7 1.1-0.8 0.6-0.8-0.2-1.6-0.2-7.5 1.8 0 1.7 1.3 2 0.7 1.4-0.7 3.7-1 1.9-7.4-0.3-8 2-5.5-0.4-11.8-3.9-3.5-3-3.1-1.9-3.8-0.9-3.8-0.3-7.1-2.9-7.3 1-2.7-0.1-0.9 1 0.6 2.2-0.5 3.6-1.8 5.7-1 8.2-1 0.9-0.2-0.5-2.2-1.6-0.7-0.7-0.7-0.9-0.4-0.9-0.4-1-0.2-1.2-0.3-0.9-0.6-0.7-0.8-0.6-0.6-0.7-4.2-7.7-0.1 0-0.1-0.1-0.1 0-1.4 0.2-1.2-0.1-1.1-0.6-0.9-1.3 1-0.5 0.4-0.3 0.4-0.4 0.7-1.6 0.4-1.5 0.6-1.2 1.1-1 0.7-0.8 1.9-1.5 0.5-0.7 0-0.6-0.3-0.5-0.3-0.5-0.3-0.6 0.1-0.6 0.7-1 0.2-0.6 0.7-2.7 0.1-1.4-0.3-1.3-0.7-1.1-1-0.6-1 0-1 0.7-0.9-0.6-0.6-1.3-1.4-4.7 0.4-0.7 2.5-0.6 0.4-0.3 0.3-0.3 0.2-0.4 0.3-0.5 0-1.7-0.4-2.3 0.2-1.6 1.9 0.6 1.6 0.8 1.4 0.4 3.3 0.2 1 0.4 0.3-0.1 0.2-0.3 0.1-0.6 0-0.7-0.1-0.3-0.6-0.8-0.1-0.9 0-1.1-0.2-1.1-0.2-0.4-0.2-0.3-0.2-0.3-0.2-0.6-0.2-0.5-0.3-0.4-0.4-0.3-0.4-0.3-0.7-0.8 0.4-0.9 1.3-1.5 0.1-0.7-0.1-1.1 0.1-0.7 0.5-0.7 0.6-0.2 1.3-0.1 1.3-1 0.3-1.4-0.1-1.4 0.3-1.1 1.1-0.1 0.8 0.5 0.6 0.3 1.3 0.4 0.7-0.9 0.3-1.4 0.4-1.1 0.2-1.1-0.5-1.5-0.1-0.8 0-0.7 0.2-0.7 0.5-0.5 0.3-0.1 0.7 0 0.3-0.2 0.1-0.3-0.1-0.7 0-0.2 0.6-1.1 0.4-0.1 0.7 0.2 1 0.6 0.5 0.2 0.6 0 1.4 0.6 0.7-0.2 0.7-0.6 1.3-0.8 0.4 0 0.9 0.2 1.2-0.4 0.6-0.1 0.5-0.3 0.4-0.7-1-1.1 0.6-1.7 1-1.7 0.2-1.5-0.7-0.6-1.8 0-0.7-0.5-0.1-0.9 0.4-0.7 0.6-0.7 0.2-0.6z" id="IR17" name="Kermanshah">
  </path>
  <path d="M126 402.2l1-0.9 1-8.2 1.8-5.7 0.5-3.6-0.6-2.2 0.9-1 2.7 0.1 7.3-1 7.1 2.9 3.8 0.3 3.8 0.9 3.1 1.9 3.5 3 11.8 3.9 5.5 0.4 8-2 7.4 0.3 1-1.9 0.7-3.7-0.7-1.4-1.3-2 0-1.7 7.5-1.8 1.6 0.2 0.8 0.2 0.7 0.9 1 2.5 0.5 2.8-0.3 1.8-0.6 1.2-1.1 1.2-2.7 1.8-0.9 1.3-16.5 4.7-2.9 2.8-1 2.5-0.9 0.1-0.8 0.4-0.1 0.8-0.7 2.2 0 0.4 0.8 0.5 1 1.8 1.5 0.8 1.2 1.6 1 0.4 2.6 1.5 0.5 0.2 0.2 0.5-0.1 0.6-0.6 1 0.2 0.4 0.6 0.8 0.6 0.5 0.9 0.4 1.7 0.6 0.1 0.2 0.1 0.2 0.1 0.3 0.4 0.1 0.2-0.1 0.3-0.2 0.3-0.1 0.4 0.1 0.2 0.2 0.2 0.3 2.4 1.8 0.8 0.3 0 0.8 0.9 0.9 1.2 0.7 2 0.5 5.8 2.9 0.5 0.6 0.2 0.7 0.6 0.2 0.7 0 0.5 0.3 1.2 1.3 0.9 1.8 0.6 0.6 0.9 0.3 0.7 0.4 1.5 1.7 5.6 7.3 7.6 16 0.9 1.3 0.6 0.6-4.4 10.1-3.4 4.7 0.1 2.9 0.5 3.5-1.7 2.8-4.9 3.2-1.2 0.5-0.1-0.1-1-0.4-0.7-0.1-0.4-0.5-0.4-0.5-0.6-0.4-0.7-0.2-0.3-0.3-0.1-0.4 0.1-0.8 0.2-0.6 0.3-0.5 0.2-0.5 0.1-0.8-0.2-0.7-1-0.7-0.2-0.8-0.5-0.2-0.3-0.3-0.8-1.2-0.2-0.3-0.2-0.3-1.4-1.3-0.2-0.3-0.3-0.8 0-0.3 0.2-0.2 0.4-1 0.2-0.3 0.2-0.4-0.1-0.6-0.2-0.4-1.3-1-0.8-1-0.5-0.9-0.6-0.7-1-0.5-2.7-0.9-0.6-0.1-2.2 1.2-0.8 0.3-1.7 0.2-1.5-0.3-1.4-0.8-1.5-1.1-14.2-12.4-2-2.2-3-1.9-2.2-1.7-0.2-0.1-4.4-2.6-1.3-1.3-4.7-2.2-5-1.6-5.5 0.6-2.8-0.3-1-2.3 0.6-0.6 0.8-0.7 0.7-0.7 0.3-1-0.3-0.7-0.7-0.6-0.9-0.4-2-0.3-0.7-0.5 0.1-0.7 0.9-0.5 1-0.1 0.8 0 0.8-0.1 1-0.8 1.3-1.2 0.6-0.8 0.3-0.8 0-0.5-0.5-0.3-0.2-0.5 0-0.5 0.3-1.1 0-0.6-0.4-0.9-0.7-0.7-1.5-1.2-1.9-2.6-1.6-1.6-0.2-0.8 0-0.9-0.2-1.2-0.3-1-0.6-1-1.6-2-0.1-0.1-0.2-0.1-0.1-0.1-0.1 0-0.2-0.1-0.3 0.1-0.2 0.1-0.9 0.8-1.4 0.2-1.4-0.3-0.8-0.7 0.7-1 2.3-1.3 0.5-0.9-0.3-1.3-1-0.6-0.8-0.9 0.2-1.7-1 0.2-2.3 0.1-0.9 0.3-1.4 1.4-0.7 0.5-0.9 0.2-0.3-0.4 0-2-0.1-0.4z" id="IR05" name="Ilam">
  </path>
  <path d="M213.4 487.9l1.2-0.5 4.9-3.2 1.7-2.8-0.5-3.5-0.1-2.9 3.4-4.7 4.4-10.1 2.5-3.8 6.5-17 2.5-1.9 11.6-0.8 3.3-1 5-0.4 4.9 1.5 2.4 2.3 3 0.9 10.4 1.1 11 7.6 6.6 0.6 3.5-0.7 2.2 5.6 2.6 1.4 4.1-0.3 4.7 1.8 1.9 2.6-1 1.6-1.2 4.2 0.2 1.6 0.7 3.4 7.1 11.2 1.5 3.8 1.1 1.5 1.2 0.8 0.7 0.8 2.2 0.7 0.8 0.8 0.6 1.5 1.3 4.6 1.4 3.4 1.5 2.3 2.3 2.1 0.9 1.6 4 4.3 1.4 3.1-0.1 2.6-2.6 3.2-1.7 3.2-3.1 4.2-5.6 5.1-3.7 1.5-1.6 1.2-1.2 1.6-0.7 1.8 0 3.2 2.1 7.8 0.2 2.2-0.3 0.9-0.2 1.6-0.4 1.8 0.3 1.3 8-1 1.9 2.4 3.7 3.7 4.5 2.4 2.6 1.9 0.8 2.9-2.7 6.4 0.4 2.8 1.5 1.7 0.8 3.7 0.8 8.5-7.2-0.3-2.7-1.4-4.9 0.9-3 1.5-1.3-0.5-1.6-0.2-1.8 0.2-1.7 0.7-14.8 9.4-1.7 0.7-1.5-0.3-1.3-1.9-0.2-0.9 0-2.5-0.4-0.9-0.3-0.5-0.1-0.3-0.2-0.2-0.5-0.3-0.5-0.2-0.4-0.1-1-0.1-0.5 0-1 0.3-0.6 0.1-0.5-0.2-0.7-0.5-0.4-0.1-1 0.2-1.7 0.7-1 0.2-1.2-0.1-0.5-0.4 0.1-2.3-0.2-0.1-0.6-0.5-0.2-0.3 0-0.3 0-0.8 0.1-0.5 0.2-0.3-0.1-0.4-0.5-0.3-0.3 0.9-0.5 0.9-0.7 0.7-0.8 0.1-0.8-0.6-0.4-0.7-0.5-0.5-0.9-0.1-1.1-0.4-3.1-1.8-0.6-0.6-0.3-1.8-0.9-1.1-1.2-0.6-1.5-0.4 0.5-0.9 0.8-0.2 1.9 0.3 1 0 1.6-0.6 0.8-0.1 1 0.3 1.9 1 0.7 0.2 1 0.1 0.8 0.3 0.7 0.6 0.6 0.9 0.2-0.8 0.9-1.6 1.4-1.7 0.3-0.6 0-1-0.9 0.2-0.7-0.4-0.5-0.9-0.3-2-0.6 0.3-0.7 0.8-0.8 0.6 0.1-0.7 0.1-0.2 0.2-0.3-0.4-0.6-0.4 0.1-0.5 0.4-0.7 0.1-0.3-0.2-0.5-0.7-0.3-0.2-0.3 0.1-0.4 0.2-0.3 0.1-0.9-0.2-0.9-0.2-0.8-0.1-0.8 0.5-1.7-0.3-1.3 0.9-0.3 1.1 1.2 0.6 1.5 0.3 1.2 0.7 0.4 1-1 0.9-0.8 0-2.5-0.3-0.6 0.1-2.5 2.4-0.2 0.3-0.4 0.6-0.3 0.7 0.6 0.5-0.2 0.4-0.3 0.4-0.2 0.3 0.4 1.2 0.8 0.8 0.9 0.8 0.8 0.8 0.4 1 0.3 1.2 0.3 2.5-0.1 0.7-0.4 1.1-0.2 0.6 0 0.6 0.3 1 0 0.6-0.3 1.1-0.6 1-0.8 0.7-1 0.2-3.2-0.4-0.8 0.4-0.9-0.4-3.3 0-2-1.1-0.8-0.2-0.1 1 0.2 0.6 0.7 1.1 0.1 0.7-0.2 0.5-0.3 0.5-0.4 0.4-0.4 0.3-1.1 0.3-3.5-0.3 0-0.4-0.2 0.3-0.1 0.2-0.3-0.2-1.5-0.4-0.7-0.4-0.6-0.6-0.3-0.3-0.2-0.3-0.5-1.1-0.1-0.7-0.8-2.7-0.1-0.1-0.3-0.6-1-1-0.5-1.3-0.1-0.4 0.1-0.6 0.3-0.4 0.5-0.4 0.3-0.5 0.2-0.6-0.1-0.6-0.3-0.5-0.3-0.5-1.8-1.7-1.5-1.7-1-1.6-0.4-0.4-0.6-0.2-0.6 0-1.7 0.3-0.6 0-0.5-0.1-0.6-0.2-0.3-0.4-0.2-0.5-0.4-2.4-0.5-1.2-0.6-1.1-0.7-0.8-0.5-0.3-0.6-0.2-4.9-0.7-0.1-1.7 0.1-26.4-0.1-0.7-0.5-0.3-15.5 0 0.2-13.3 0.1-9.5 7.2-19.5 0.3-1.3-0.2-1.2-0.6-0.9-1.9-1.4-0.7-0.9-0.2-0.4-0.2-1-0.3-0.5-0.4-0.3-0.8-0.6-0.3-0.4-1.7-3.1-0.2-0.9-0.5-1-1.7-0.8-0.7-0.9-1.1-2.4-0.6-1z" id="IR10" name="Khuzestan">
  </path>
  <path d="M691.5 154.5l-5.7 3.5-1.7 1.8 0 2.6-0.6 2.2-0.7 2.1 1.8 1.3 21.1 1 0.9 1.1 0.6 2 1.1 2.5 4.2 4 1.3 2.7 0.3 2.4-1 1.9-1.3 1.5-0.4 1 0 1.2-0.5 1.8-1.7 2.3-2.8 8.4-2 2.4 0.3 2 2.3 1.6 1.3 1.5 0.8 1.6 1.3-0.2 0.7-1.7 0.6-0.3 0.4 1.5 0.9 1.4 1.6 0.8 0.2 1.4-2.8 3-0.3 1.6 0.6 0.9 1.7 1 0.3 1.9-1.5 4.6-1.8 1.6-3.6 0.9-13-2-31.2-17.3-7.5-0.4-11.3 9.2-2.8 3.7-0.3 2.6 0.3 2.1-0.1 1.6-7.2 1.2-2.3-0.9-4.5-0.7-2.7-0.9-5.3-4.6-5.6-6.3-0.9-1.9 0.2-1.2 0.9-3.5 0.2-4-0.2-1.5-0.3-0.7-0.3-0.4 0.3-0.9 1.2-1 2.7-0.8 0.5-1.4-2.3-0.9-1.8 0.3-3.4-2.4-7.1-9.5 1.4-1.3 3.5-6.2 3.4-1.4 1.4-1.3 1.5-0.6 1.2-0.2 5.5-2 2.6-3.6-0.9-3.6-1.9-1.5-2.2-1.1-1.6-1.9-0.1-2.7 1-3.8 0-1.4-0.6-2.6-0.1-2.1 0.3-1.7-0.3-4.2 1.5 0.6 0.7 0.1 4.1-0.7 0.2-0.1 0.3 0.2 0.2-0.1 0.2 0.3 0.1-0.3 0.3 0 0.3 0.2-0.1-1.3 0.6-0.9 0.3-0.2-0.1-0.5-0.2-0.3-0.1-0.7-0.2 0-0.3-0.3-0.2 0 0-0.2 0.1-0.1-0.5-1.6 0.2-0.1 0.3-0.3-0.2-0.2 0.2-0.2 0.1-0.3 0.4-0.1 2.1-1.9 1.3-1 1.1-0.4 4.3-0.2 0.8 0.2 0.7 0.4 0.6 0.5 0.6 0.3 0.8-0.2 0.5-0.2 0.1 0 0.8-0.3 0.1-0.1 2.2-1 2.3-0.4 0.5 0.1 1.8 1.5 1.6 0.9 0.7 0.3 7.1 1.3 1.1 0.4 0.4 0.5 0.2-0.2 0.2 0.1 1 0.1 0.6-0.4 0.3 0 0.4-0.1 0.4-0.2 0.5-0.8 0.2-0.2 0.6-0.4 1.3-0.6 0.2-0.2 0.8-1.7 0.6-0.7 0.2-0.1 0.3 0 0.5 0.1 1 0.3 0.5 0.4 0.2 0.3 0 0.5 0.2 0.5 1.1 1.9 0.8 2 0.6 0.9 1.5 1.6 0.6 1.8 1 1.5 0.2 1-0.1 1-1 3.2 1.2 1.6 6.8 2.7 0.5-0.1 0.1 0.2 0.2 0 0.4 0 0.6-0.4 0.4 0.1 0.4-0.3 0.5 0.1 2.4 0.7 2.3 0 0.5-0.2 0.1 0.1 0.7 0.1 0.2-0.1 0.5 0.3 0.6 0.5 0.6 0.4 0.2 0z" id="IR31" name="North Khorasan">
  </path>
  <path d="M617.7 143.6l0.3 4.2-0.3 1.7 0.1 2.1 0.6 2.6 0 1.4-1 3.8 0.1 2.7 1.6 1.9 2.2 1.1 1.9 1.5 0.9 3.6-2.6 3.6-5.5 2-1.2 0.2-1.5 0.6-1.4 1.3-3.4 1.4-3.5 6.2-1.4 1.3-1.9 1.6-8.8 13.6-3.9 8.6-0.9 6.5-1.6 4.1-2.4 1.1-16.8-2.3-4 0.4-8.2 4.8-8 6.2-2.9 3.2-6.7 3.1-3.3 0.8-3.6-0.6-9.3 0.2-1.9-3-5-5.1-10.4-6.3-1.6-2.9-0.5-1.4-0.1-0.8 7.1 0.6 0.7 0.5 0.9 0.2 5.8-1.6 0.6-0.5 0.3-0.9 0-6.1-0.2-1-0.7-0.4-0.9-0.4 0.1-0.8 1.1-2.1-1.1-1.7-0.8-2.2-1-5-1.4-3.8-0.2-0.9-0.5-5 12.9 1.2 0.4-0.1 2.3 0.3 0.1-0.2 0.7-0.5 1.1-1.2 2.9 0.2 2.4-0.7 1.9-1.7 0.4-0.2 0.2-0.2 0.2 0 0.3-0.4 0.5-0.1 0.2-0.2 0.3-0.3 0.3-0.4 0.2-0.1 0.3 0.1 0.1-0.1 0-0.1 0.2 0.1 0.2-0.4 0.2-0.2 0.1 0 0.2-0.2 0.3 0.1 0.4-0.2 0.2 0 0.3-0.3 0-0.1 0.2 0 0.3-0.1 2.8 0.7 1.1 0 0.7-0.4 0.1 0 0 0.2 0.3-0.1 0.1 0.1 0.1-0.1 0.3 0 0.7-0.5 0.4-0.2 0.3-0.4 0.2-0.4 0.5-0.5-0.1-0.2 0.1 0 0-0.1 0.1-0.1 0-0.1 0.1 0.1 0-0.2 0.2-0.1 0.8-0.6 0.1 0.1 0.1-0.1 0.1 0.1 0.2-0.2 0.1 0.2 0-0.3 0.3 0 0.1-0.2 0.1 0.1 0.1 0 0.1-0.3-0.1-0.2 0.7-0.6 0.1-0.3 0.3-0.2 0.2-0.7 0-0.7 0.1-0.4 0.1-0.1 0-0.1 0.2-0.4 0-0.2 0.1-0.1 0.4-2.1-0.3-0.6-0.3 0-0.5-0.5-0.2-0.4 0-0.4 0-0.1 0-0.1 0-0.2 0.1-0.1-0.1-0.1 0-0.1 0.1-0.1 0.1 0.2 0.1-0.1-0.2-0.3 0.2 0.1 0-0.2 0.2-0.2 0.3 0-0.1-0.2 0-0.2-0.1 0 0-0.2-0.1-0.2 0.2 0-0.2-0.2 0.1 0 0.1 0 0.1-0.2 0.2 0-0.1-0.2 0.3 0-0.1-0.1 0-0.1-0.1-0.1 0.2-0.1 0.1-0.2 0.1-0.1 0-0.1-0.1-0.1 0.3 0 0-0.1-0.1-0.1 0.1-0.1-0.1-0.3 0.1 0-0.1-0.3 0.1 0 0-0.1 0.1 0.1 0-0.1-0.1-0.2 0.1-0.4 0.1-0.1 0.1 0.1 0-0.1 0.2 0 0-0.1 0.1-0.1 0-0.2 0.1 0.1 0.1-0.2 0.1-0.1-0.1-0.1 0.3 0-0.2-0.1 0.1-0.2-0.2 0 0-0.1 0.2 0.1 0-0.1 0.2 0 0-0.2 0.1-0.1 0.2 0.1 0.1-0.1-0.1-0.1 0.1-0.1-0.1 0 0.1-0.2 0.1 0 0-0.1 0.1 0 0.1-0.2 0.1 0 0.1-0.2 0-0.1 0.1 0 0 0.3 0.1-0.2 0.1 0-0.1-0.2 0.2 0 0 0.1 0-0.2 0.1 0 0.1 0.1 0.1-0.1-0.1 0.1 0.1 0.1 0.2-0.2 0.1 0.2 0.2 0-0.1 0.2-0.1 0 0.1 0 0.2-0.2-0.1-0.2 0.2 0 0.1-0.1 0.1-0.1 0.1-0.2 0.2 0 0-0.1 0.2 0.1 0-0.3 0.2 0 0-0.1 0.5-0.2 0.1 0.2 0-0.1 0.1 0.1 0.1-0.2 0.1-0.1 0-0.1 0.2 0.1 0.1 0 0-0.1-0.2 0 0.2-0.1 0-0.1 0.1 0 0.1-0.1 0.4-0.2 0.1-0.2 0.1 0 0-0.1-0.1 0-0.1-0.2 0.2-0.2 0.4-0.3 0.4-0.1-0.1-0.1 0.1-0.1 0.3 0.1-0.1-0.1 0.3-0.2 0-0.2 0.4 0 0-0.1 0.1 0 0 0.1 0.1 0 0.1-0.1-0.3-0.3 0.2-0.1 0.2-0.1 0-0.2 0.2 0.1 0.1-0.2 0.1 0 0.4 0 0.2 0-0.3-0.1 0.2-0.2-0.1 0 0.1-0.1 0-0.1 0.2 0 0-0.1 0.3-0.1-0.1-0.2 0.2 0 0-0.1 0.2-0.1 0-0.2-0.1-0.2-0.1 0 0.8-0.9 0.1 0 0.1-0.2 0.1-0.2 0.2-0.3 0-0.1 0-0.1 0-0.1 0.3 0 0.2-0.1 0-0.1 0.1 0.1 0.1-0.2 0.2-0.1-0.1-0.4 0.1 0 0-0.1 0.3 0 0.1 0 0.1 0 0.5-0.2 0.4-0.5 0.3-0.8 0.2 0 0-0.1 0.1 0-0.1-0.2 0.2 0 0.1-0.2 0.1 0 0.1-0.1 0.1 0.2 0.1-0.1 0.2 0 0-0.1 0.1 0.1 0.2-0.1-0.1-0.2 0.1 0.2 0.3-0.1 0.1 0.1 0.2-0.4 0.2 0.1 0-0.2 0.2 0.1 0-0.2 0.1 0 0.1 0.2 0.3 0 0 0.1 0.1 0 0.1 0.1 0.3 0 0.1 0.4 0.2 0 0.1-0.2 0.2 0.2 0-0.1 0.2-0.1-0.2-0.2 0.2 0-0.1-0.2 0.1 0 0-0.1 0-0.1 0-0.1 0.1-0.2 0.3-0.1 0-0.1 0.2 0 0-0.1 0.1-0.1 0-0.2 0.1 0 0-0.1 0.2-0.1 0-0.1 0.1 0.1 0.1 0 0.3 0.1 0-0.2 0.2-0.1 0.1 0.1 0.3-0.1 0-0.3 0.2 0.1 0.1-0.2 0.2 0.1 0-0.2 0.1 0 0.2-0.2 0.1 0.2 0.1-0.1 0 0.1 0.8-0.6 1.1-0.5 0.1-0.3 0.4-0.3 2.9-1.4 0.4-0.4 1-1.1 0.7-0.7 0.8-0.3 3-0.1 6.4-1.4 1.1 0 1-0.1 0.6-0.3 1-0.2 0.6 0 3 0.7 1.8 1 0.7 0.3 2.4 0 0.8 0.3 1.3 0.6 0.6 0.2 0.7 0.1 6.8-1.2 1.9 0.2 0.2 0.1z" id="IR27" name="Golestan">
  </path>
  <path d="M821.2 376.8l-3.7 0.6-29.3 0.1-6.1-2.2-4.7-7.6-2.5-2.2-4.9 1.9-4.4 2.5-14 2.1-1.3 1.5-1.3 0.9-4.8-1.5-7.5-0.9-2.5 0.9-0.7 1.7 0.2 1.4 1.9 3-0.5 3.8-1 4.2 0.5 2.5-0.1 2.2-1.2 2.9-0.8 3.2 0.3 2.5 1.3 1.2 1.1 0.8 0.5 1.4 0.4 1.6 7.1 5.2-1.4 2.6-0.3 1.6-2.3 3.8-2.1 2.1-14.8 9.9-6.6 9.9-1.5 6.6-2 3.5-1.2 1.4-1.2-0.9-3.9-5.9-4-2.5-3-1.4-1.1-0.9-4-2.3-3.1-7-3.5-23.8-1.9-3.6-2-2.6-12 2.8-9.4-1.1-2.2-3.5-2.9-16.3 0.4-9.7 5.9-17.8 3.2-5.8 18.7-13.3 4.5-4.4 0.7-3.7-1.6-3.6-13.8-10.6-5.2-1.4-11.9 3.1-18.7 8.9-19.2 5 7.5-9.4 6.1-5.5 5.4-3.2 9.9-3.8 1.4-1.1 2-4.7 8.2-14.1 0.8-4-3.1-3.6-11.2-9.1-1.3-3.3-1.5-7-0.9-11 0.7-6.3 1.9-3.7 1.3-5.4-1.2-4.7-1.9-1.1-1.5-0.1-0.9 0.3 0.1-1.6-0.3-2.1 0.3-2.6 2.8-3.7 11.3-9.2 7.5 0.4 31.2 17.3 13 2 3.6-0.9 1.8-1.6 1.5-4.6-0.3-1.9-1.7-1-0.6-0.9 0.3-1.6 2.8-3-0.2-1.4-1.6-0.8-0.9-1.4-0.4-1.5-0.6 0.3-0.7 1.7-1.3 0.2-0.8-1.6-1.3-1.5-2.3-1.6-0.3-2 2-2.4 2.8-8.4 1.7-2.3 0.5-1.8 0-1.2 0.4-1 1.3-1.5 1-1.9-0.3-2.4-1.3-2.7-4.2-4-1.1-2.5-0.6-2-0.9-1.1-21.1-1-1.8-1.3 0.7-2.1 0.6-2.2 0-2.6 1.7-1.8 5.7-3.5 0.2 0 0.7-0.1 0.1-0.1 0.4 0.1 0.1 0.2 0.2 0.2 0.4 0.9 0.3 0.3 0.7 0.3 0.8 0 0.1-0.1 0.7-0.1 0.7-0.1 0.1 0 1.6 0.5 0.4 0.2 0.1 0 4.9 2.4 0.5 0.2 0.4 0.2 0.3 0.2 0.8 0.3 0.6 0.2 2 0.4 0.5 0.2 0.2 0 0.5 0 0.9 0.1 0.3 0.1 0.4 0.1 0.8 0.4 0.4 0.4 0 0.4-0.1 0.4 0 0.5 0.8 1.4 0.1 0.4 0.1 1.1 0 0.8 0.3 0.7 0.8 0.7 0.8 0.3 3.7 0.5 0.5 0.3 1.3 0.9 0.6 0.2 0.5-0.1 1.4-0.1 2.4-0.3 0.4-0.2 0.4-0.2 0.7-0.9 0.4-1 0.6-0.9 0.7-0.5 0.5 0 0.4-0.1 0.8 0.4 2.3 2.1 2.1 0.9 1 0.1 1.1-0.1 0.4-0.2 0.3-0.4 0.3-0.3 0.5 0 0.1 0 1 0.2 0.5 0 0.5-0.2 0.1-0.1 0.5-0.7 0.1-0.9 0.3-0.4 0.6 0.4 2.2 1.2 3.6 0.9 1.9 0.8 0.7 0.5 0.6 0.2 1.4 0.2 0.5 0.3 1.5 1.6 6.3 4.5 0.5 0.1 0.5 0 0.6-0.2 2-1 1.1 0.3 0.2 0.1 0.8 0.8 0.9 1.3 0.2 0.8-0.1 1.3 0.2 0.6 0.2 0.5-0.2 0.5-0.3 0.6-0.2 0.7 0.1 1.2 1 4.1 0.5 0.8 3 2.5 0.9 1 0.2 0.4 0 0.3-0.2 0.2-0.1 0.1 0 0.4-0.2 0.5 0.2 0.4 0.7 0.2 0.4 0.3 0.3 0.4 0.4 0.2 0.4 0 0.4-0.2 1.1-0.4 0.7 0.1 0.8 0.9 0.3 0.9 0.3 1.1 0.3 1 0.2 0.1 0.1-0.1 0.7 0.4 0.1 0 0.3-0.4 0.5-0.8 0.5-0.3 0.5 0 5 1.7 1.8 0.6 0.1 0.1 3 2.5 1.7 1 0.6 0.1 1.9 0.4 1.4 0.2 1.7 0.8 1.4 1.8 1.8 3.8 2.2 3.3 5 6.1 0.9 1.6 1.4 3.6 1 1.8 1.5 0.8 0.2 0 7.3-0.1 6.6-0.1 10.1-0.2 5.5-0.1 4.9-0.1 1.4 0.3 0.9 0.1 1 0.2 0.9 0.1 0.4 2 0.4 0.9 0.2 0.5 0 0.8 0 0.7-0.1 0.2 0 0.1-0.1 0.3-0.2 0.5-0.1 0.1-0.3 0.4 0 0.3-0.2 0.4 0.1 0.7 0.3 0.8-0.1 0.7-0.3 1.3-0.1 0.4-0.5 2.4 0 0.2-0.2 1.8-0.1 0.8 0.3 0.7 0.3 0.8 0.1 0.1 0 0.1-0.2 0.2 0 0.2-0.2 0.4 0.1 0 0.4 0.2 0.4 0.3 0.3 0.3 0.2 0.4 0.1 0.6 0.1 0.6 0 0.2 0 0.8 0 0.4 0.2 0.4 0 0.1 0.7 1.2 0.3 1.5 0.4 2.1 0 0.2 0.1 0.7 0 0.3 0 0.6 0.1 0.3 0 0.1-0.1 0.2-0.3 0.4-0.2 0.3-0.2 0.4-0.1 0.1-0.1 0.4 0 0.1-0.1 0.5 0 0.5-0.2 0.6-0.4 0.3-0.4 0.2-0.3 0.3 0 0.2-0.1 0.5 0.1 1.1 0 0.6-0.1 0.1-0.1 0.5-0.1 0.3-1.1 0.5-0.2 0.4-0.3 0.4 0.5 0.2 1.1 0.2 1 0.5 0.6 0.6 0.2 0.1 0.7 0.9 0.1 0.1 0.4 0.8 0.4 0.7 0.1 0.2 0 0.3 0.3 0.8 0.1 1.7 0.1 0.3 0.1 0.9 0.1 1-0.2 0.6-0.1 0.7 0.1 0.1 0.2 0.3 0 0.6-0.3 1.3 0 0.2-0.1 0.2 0.1 0.6 0 0.4-0.2 0.4-0.1 0.1-0.5 0.5-0.1 0.2-0.1 0.2 0.1 1.5 0.7 1.3 1.1 1.8 0.4 0.6 0 0.1 0.5 2.2 0.1 1.2-0.3 1.2-0.7 1.1-1.1 1.3-0.5 1.2-0.4 1.8-0.2 0.6-1 1.3-0.3 0.6-0.2 1.2 0.2 3-0.4 1-0.9 0.5-1.1 0.2-1 0-0.7 0.6-0.3 1.2 0 1.3 0 0.5 0.3 0.3 0.2 0.5 0 0.6-0.5 0.2-0.3 0.3 0.3 0.6 1.7 2.2 0.1 0.3-0.1 0.6-0.1 0.5 0.1 0.5 0.4 0.5-1.1 1.6-0.3 0.9-0.3 2.3-0.7 2.2-0.2 1.1-0.1 0.6-0.7 1.1-0.1 0.7 0 0.6 0.2 1 0.1 0.5-0.2 2.1-0.4 1.9-1.5 0.4-0.2 1-0.9 1.6-1.5 1.2-0.9 1 0 1.4 0.1 1.4-0.2 1.4-0.5 0.7-0.5 0.1-0.6 0-0.7 0.1-0.6 0.3-0.3 0.4-0.3 0.5-2.1 2.4-0.9 0.6-1.2 0.4-2.6 0.3-1.1 0.6-0.7 1.2 0.5 0.1 0.4 0.2 0.3 0.4 0.4 1.4 0.4 0.4 1.2 0.5 0.5 0.5 0.5 0.7 0.7 1.5 3.5 4.5 0.6 1.1-3.6 0.2-4.7 0.3-3.4 0.2 0.4 1.2-0.8 0.8-2.2 1.2-1.7 1.7-1.5 2-1.3 2.7-0.3 2.5 0.1 0.8z" id="IR30" name="Razavi Khorasan">
  </path>
  <path d="M821.2 376.8l0.5 4.9 1.4 8.7-0.1 2.2-1.5 3.3-0.4 1.8 1.2 4.2 3 2.8 3.8 1.6 3.7 0.3 3.4-0.2 1.9 0.1 1.5 0.4 0.8 0.4 0.8 0.8 0.4 0.8-0.1 0.1-0.3 0.6-0.7 0.2-2.3 0.2-0.8 0.5-0.1 0.9 0.1 0.9 0.1 1-0.2 1.1-0.5 0.6-1.6 1-1.3 1.2-1.8 2.5-2.3 3.1-2.6 3.4-2.3 3.1-0.2 0.8 0 4.5 0.7 3.5 1.4 4.6 1.6 5.5 1.6 5.6 1.7 5.9 1.9 6.4 2.1 7.8 1.6 5.9-0.1 4.6-0.6 4.4-0.3 0.9-1.2 1.6-0.4 0.9 0.2 0.3 0.4 0.2 0.2 0.3-0.4 1.3 0.1 0.5 0.3 0.6 0.2 0.6 0 1.2-0.3 3.4 0.1 2.7 0.6 5.1-0.6 4.1 0.2 1.3 0.7 2.7 0.5 5.1 1.6 0.7 4.7 0.7 7.9 1.2 0.1 0 0.9 3.2-0.7 6.6-3 7.3-2.2 8.1-1 14.3 0.2 4.2 2.4 10.6-0.1 1.7-0.8 1.1-1.5 0.7-6.5 0.2-3.8-3.3-7.4-10.6-5.8-4.3-4.4-1.2-1.1-0.9-1.6-1.7-2.6-0.5-35.3 10.1-1.5 0.7-18.8-27.4-6.8-5.1-53.5-24.2 0.6-1.1 2.5-6.4 4.8-7.5 1.8-4.8 6.2-8.5 0.8-2.6 0.4-2.7 1.1-3.1 0.1-3-1.9-3.2-1.4-3.1-0.1-1.7-1.4-1.6-0.7-1.2-0.3-1.3 0.8-2 1.2-2.1 0.4-1.7-0.2-4.3 1.2-1.4 2-3.5 1.5-6.6 6.6-9.9 14.8-9.9 2.1-2.1 2.3-3.8 0.3-1.6 1.4-2.6-7.1-5.2-0.4-1.6-0.5-1.4-1.1-0.8-1.3-1.2-0.3-2.5 0.8-3.2 1.2-2.9 0.1-2.2-0.5-2.5 1-4.2 0.5-3.8-1.9-3-0.2-1.4 0.7-1.7 2.5-0.9 7.5 0.9 4.8 1.5 1.3-0.9 1.3-1.5 14-2.1 4.4-2.5 4.9-1.9 2.5 2.2 4.7 7.6 6.1 2.2 29.3-0.1 3.7-0.6z" id="IR29" name="South Khorasan">
  </path>
  <path d="M775.4 570.5l1.5-0.7 35.3-10.1 2.6 0.5 1.6 1.7 1.1 0.9 4.4 1.2 5.8 4.3 7.4 10.6 3.8 3.3 6.5-0.2 1.5-0.7 0.8-1.1 0.1-1.7-2.4-10.6-0.2-4.2 1-14.3 2.2-8.1 3-7.3 0.7-6.6-0.9-3.2 8 1.1 9.2 1.4 5.5 0.8 2.5 0.4 1.3 0.5 0.9 0.7 1.7 2.1 0.3 1.1-0.3 2.3 0 1.1 0.4 1.1 1.3 2.1 0.4 1.3 0.1 1.6 0.1 0.6 0.8 1.7 0.6 1.8 0.2 1.1 0 1.1-0.3 1.1-0.9 1.8 0.2 0.7 0.2 3.7-0.3 0.2-0.1 0.4-0.1 0.9 0.1 0.1 0.1 0.3-0.8 0.9-3.9 4.7-6 7.2-5.3 6.5-3.9 4.6-5.1 6.1-2.6 3.2-3.9 4.7-7.3 8.7-3.6 4.2-2.7 3.2 3.8 4.5 2.5 2.9 3.1 3.7 3.5 4.3 3.7 4.4 3.9 4.6 0.9 0.8 1 0.4 0.8 0.6 0.4 1.3-0.1 1.1-0.5 1.9 0 1 0.4 1.1 1.5 1.7 0.6 0.9 0.2 0.6 0.1 1.4 0.3 0.6 0.5 0.6 0.4 0.1 0.4 0.1 0.5 0.2 0.5 0.8 0.3 0.9 0.3 0.8 0.8 0.3 0.5 0.4 0.1 0.5-0.1 0.5-0.5 0.4-0.3 0.4-0.2 0.3 0.2 0.3 0.3 0.3 0.6 0.3 0.6 0.4 0.4 0.6 2 4.5 0.2 1.1 0.1 0.9 0.3 0.8 1.3 1.5 1.4 3 1.4 1.7 4.8 4.4 2 2.5 3 2.8 1.5 1.7 0.8 0.5 2.8 0.8 2.3 1.3 1.4 0.4 3.1 0.3 1.5 0.3 4 1.8 6.2 1.3 1.3 0.6 0.5 0.7 0.4 0.7 0.5 0.7 0.8 0.4 0.8 0.2 0.5 0.4 0.3 0.5 0.3 0.9 0.7 1.2 3 3.2 0.9 0.6 7.7-1.5 1.1 0.6 0.2 1.9-0.7 5.4-0.8 6.1 0.9 3.7 1.2 5.1 0.3 3.2 0.4 4.3 0.3 2.7 0.4 4.9 0.3 2.7-0.3 2.2-2.5 5.6 0.9 1.1 0.3 0.6-0.1 0.9-0.2 0.7-0.3 0.6-0.5 0.4-0.7 0 2 1.8 0.7 0.4 0.4 0 0.6-0.4 0.4 0 0.3 0.1 1.1 0.6 1.5 0.3 1.3 0 2.8-0.6 1.2-0.2 2.4-0.7 1.3-0.1 0.8 0.1 0.6 0 2.6-0.9 0.4 0.1 0.6 0.2 1.2 1.1 0.6 0.3 1.1 0.5 0.5 0.2 0.5 0.6 0.6 1 1.6 3.5-0.8-0.3-1 0-0.9 0.4-0.5 0.9-0.2 0.5-0.5 0.7-0.2 0.6-0.1 0.6 0.3 5.9 0.4 1 0.6 0.9 0.4 0.8-0.2 1-0.7 0.7-1.9 0.3-0.8 0.4-0.3 0.8-0.4 7.7-0.5 2.1-1.1 1-0.4 0-0.4-0.2-0.3-0.3-0.4-0.1-0.5-0.1-1.4 0.3-1.8 0-1.9-0.3-4.2-0.1-3.7-0.1-3.2-0.1-0.5 0.2-0.4 0.4-0.5 0.9-0.3 0.3-0.3 0.2-0.4 0.1-1.5 0.4-0.4-0.1-0.5-0.2-0.5-0.1-0.4 0.2-0.4 0.4-0.4 0.3-1 0.4-7.8 0.8-0.5 0.1-0.4 0.3-0.3 0.7-0.3 0.2-0.5 0.2-1-0.1-0.4 0.1-0.4 0.2-0.6 0.4-0.4 0.2-0.9 0.4-0.5 0.2-0.2 0.4-0.1 0.5 0.1 0.3 0.2 0.3 0 0.4-0.5 0.9-1.4 1.4-0.4 0.7 0.3 1.2 0.4 1 0.1 0.7-1 0.6-1.8-0.3-2.1-0.7-1.8-0.3-0.8 1.3-0.1 1.3-0.5 0.5-1.9 0.4-1 0.3-0.9 0.4-1.6 1.1-5.7 1.6-1.2 0.9-0.7 1.5-0.3 1.6-0.5 3.2-0.4 2.8-0.4 3.2-0.6 4.4-0.5 3.7-0.3 0.9-0.7 0.9-0.8 0.1-0.9 0-1 0.3-1 1.3 0.2 2 0.6 2-0.2 1.8-0.3 0.4-0.7 0.7-0.2 0.5-0.2 0.8-0.2 3-0.3 4.5-0.3 5.2-0.3 4.4-1.5 4.3-0.3-0.7-0.1-0.9-0.8-0.6-0.2-0.3-0.2-0.2-0.4 0.3-0.2 0.3 0 0.9-0.2 0.3 0.3 0.2 0.4 0.6 0.3 0.2-1-0.1-0.8-0.3-0.7 0-1.1 0.8 1.1 0.3 0.5 0.3 0.4 0.4-0.3 0.5-0.7 1-0.2 0.5 0 0.3-0.1 0.2-0.3 0.4-0.7 0.3-2.6 0.8 0.7 0.5-1.1 1.4-7.9-2.7-2.8-0.6 0-0.8-0.7-1.3-6.5-2.4-7.8-1.3-6.5-1.5-4.4-0.6-0.8-0.4 0.7-0.7-1.1-1.6-0.2-0.7 0-2.9-0.2-0.5-1.7-1.7-0.7-0.4-0.8-0.1-0.9 0-3.2 1-0.8 0.5-0.5 0.7-0.7 0.9-0.4 0.6 0 0.3 0.2 0.3 0.2 1.1 0.2 0.1 0.3 0.1 0.5 0.2 0.4 0 0.2 0.2 0.2 0.3 0.5 0.5-0.5-0.1 0 0.2 1.4 0.7-0.2 0.6-0.5-0.1-1.5-0.6-2-0.8-0.9-0.6-2 0.1-1.4-1.1 0.4-0.9 0.2-0.2-0.7-0.3-0.8-0.1-1.7 0.1-1.3 0.2-0.3 0.1-0.4 0.5 0 0.3 0.1 0.3 1 0.6-0.3 1-1.3 0-1-0.6-0.5-0.2-1.6-0.2-0.4-0.3-0.5-0.7-0.7-0.4-1.7 0.1-2.4 0.4-2.6 0.1-1.7 1.3-2-0.7-2-1.9-2.1-0.6-5.4 0.4-2.2 0-3.5-0.9-2.3-2.3-1.7-0.9-2.7 0.5-5.5 0.9-1.3 0.2-0.3-1.2 1.3-0.6 0-0.8 0.1-0.8-0.8-0.4-0.4-0.5-1.7-2.9-0.8-0.8-0.6-0.8-0.3-1.1-0.8-0.9-1.4-0.6-1.1-1-0.2-1.9-1.5-2.5-9-7.9-1.6-1.1-0.7-0.2-0.2-1 0.3-1.7 0.8-1.3 0.6-0.3 0.9-2.3 0.3-1.9 0-3.2 0.5-1.4 0.7-0.9-0.1-1.7 0.9-1.1 0.7-2-0.4-2-1.6-1.9-0.9-3.1 1.2-2.4 1.5-1.8 0-1.8-1.5-1.4-0.8-1.2 1.3-2.3 1.3-4-2.4-5-3.6-4.1-1-3.6 0.2-3.4-0.2-2-1.2-4.5 0-5.2 5.5-21.3 0.6-6.1-0.3-18.4 5.4-7.2 1.4-4.8-1.6-2.7-3.9-2.9-1.7-2.8 2.7-1.4 5.3-1.8 11-6.4 2.1-1.7 1.4-1.5 0.1-2-0.5-2.1-1.4-2.9-0.1-4.4-0.6-3.6 0.6-3.4 4-6.1 1.4-5.3 0.2-4.7-1.7-11.4-1.8-4.8-2.2-1.4-1.1-1.2 0.4-4.5 9.7-44.9z" id="IR13" name="Sistan and Baluchestan">
  </path>
  <path d="M329.7 592.3l3-1.5 4.9-0.9 2.7 1.4 7.2 0.3 5.5 2 1.8 1.3 0.8 0.8 0 2.8 1.3 3.9 2.4 2.4 2.8 5.8 2.7 1.1 10.4 0.7 6.5 2.1 3.1 3.5 2.6 5.9 3.3 5.2 3 3.2 3.8 1.4 4.2 3.9 21.1 39.8 1.1 4.8 6.9 19.6 1.2 1.9 2 0.9 1.6 0.9 3.6 4.1 6.3 14.4 6.3 7.6 6 5.7 9.4 6.8-2 1.2-0.7 0.2-2.2-0.1-2.3-0.6-0.8 0-3 0.3-0.5 0-1 0.4-0.2 0-0.3 0.3-0.7 1.5-3.7-1.6-1-1.1 0-1.1 0.4-0.6 0.8-0.4 1-0.1 0.9 0.1 1-0.2 0.6-0.5-0.5-1.2-0.7-0.7-1.9-0.7-0.7-0.6-0.4-0.6-0.8-1.8-0.3-0.5-3.5-3.7-1.6-1.2-1.7-0.7-8.4-1.9-1.8-0.9-5.5-5.2-1.7-1.1-2-0.8-2.2-0.3-3.3 0.4-0.7-0.3-0.9-0.5-1.7 0.1-1.8 0.4-3 0.6-1.8-0.3-4.1-0.9-0.5-0.1-0.3-0.4 0-0.5-0.2-0.4-0.2-0.2-1.5-0.2-2-0.7-1-1-1.1-1.9-1.1-0.7-0.4 1.5-1 0.1-0.9-3.2-0.9-1.3-0.7-2-1.8-2.9-0.8-0.7-1-1.1-0.2-1 1-2.9-0.1-1.4-0.9-1.6-1.7-1.5-0.6-0.7-1.6-2.6-1.6-1.6-0.3-0.6-2.9-7.1-0.4-1.7 0-6.8-0.6-2.3-1.1-2-1.2-1.4-1.5-1-2-0.4-1.9-0.2-0.9-0.2-0.4-0.6-0.4-1-2.2-2.8-0.4-1.1-0.3-1.4 0.2-1.4 1-0.6 0.9 0.4 0.9 0.7 0.8 1 0.5 0.9 0.5-0.4-0.1-0.4-0.2-0.5 0-0.6 0.4-0.3 0.9-0.9 0.4-0.6 0.1-1.1-0.1-1.3-0.5-0.8-0.8 0.3-0.4-1.6-0.3-0.5-0.6-0.5-0.3 0-0.4 0.3-0.4 0.1-0.2-0.3-0.1-0.9-0.1-0.4-0.1-0.3-1.1-0.2-3.7 0.2-0.9 0.2-1.2 0.7-1.3-0.2-1.1-0.9-0.4-1.5-0.1-1.3 0.1-0.6 0.5-0.7 0.3-0.7 0.3-0.9 0.4-0.4 0.7 0.8 0.3-2.2 0.1-0.4-0.5-0.2-0.3-0.3-0.5-1 0.3-1.4 0-2.1-0.3-2.1-0.3-1.5-0.7-1.1-0.9-1.3-0.7-0.3 0 1.6-0.3-0.6-1.3-2-2.5-2.1-0.4-0.7-0.3-0.9-0.8-1-1.5-1.6-2.8-1.1-0.4-0.6-0.3-1-0.7-1.1-1.3-1.4-1.2-1.8-2.2-4-1.1-1.6-0.9-0.8-1.9-1.2-1.9-1.9-0.1-0.2-0.2-0.7 0-1-0.2-0.6 0.8 0 0.1-0.4-0.3-0.4-0.6-0.3 0.5-1.8-1.1-3.1 0.3-1.4-0.6-0.5-0.8-1-0.6-1.1-0.3-0.9-0.2-0.6-0.7-0.5-0.4-0.1z m12 50.7l0.9 0.4 0.5 0.3-0.3 0.9 0.2 1-0.3 0.8-0.5 0.1-0.5-0.5-0.4-1.1-0.3-1.1-0.4-0.6 0.6-0.4 0.5 0.2z" id="IR06" name="Bushehr">
  </path>
  <path d="M744.7 816.4l-0.6 0.3-0.8 1.3-0.3 1.7 0.2 1 0.7 0.2 1.6 1.1 9 7.9 1.5 2.5 0.2 1.9 1.1 1 1.4 0.6 0.8 0.9 0.3 1.1 0.6 0.8 0.8 0.8 1.7 2.9 0.4 0.5 0.8 0.4-0.1 0.8 0 0.8-1.3 0.6 0.3 1.2-2.7 0.4-2.7 1.3-1 0.2-0.4-0.1-0.3-0.3-0.3-0.2-0.4 0.1-0.5 0.2-0.4 0.1-1.1-0.1-0.9-0.2-0.8-0.3-0.6-0.5-2.2-3.5-1.2-1.4-1.8-0.8-1.7 0-0.4-0.2-0.3-0.5-0.2-0.5-0.2-0.5-0.5-0.1-4.1 0-8.5-1.6-3 0.5-2.5-0.2-0.9-0.4 0.4-0.8-1.4 0-1.5 0.3-0.7 0.4-1 0.9-0.8 0.2-0.3-0.2-0.1-0.2-0.3 0-0.5 0.5-0.4 0.3-0.5 0.2-0.4-0.1-0.2-0.4-0.2 0.2-1.7 1.1-1.7 0.3-1.6-0.3-1.5-0.5-1.5-0.2-1.3-0.6-1-1.4-1.4-3-1.5-1.8-1.8-0.4-1.9 0.5-1.9 1-1.6 1.3-1.1 0.6-0.7 0 0.2-2.3 0.2-0.6 0.1-0.2 0-0.2-0.1-0.4-0.4-1.2-0.8-0.7-1-0.2-1.1-0.1-1.1 0.1-2.6 0.6-0.6-0.1-1-0.5-0.5-0.1-0.5 0.1-1 0.2-0.5 0.1-1.1-0.1-3.2-1 0.3-0.4-6.3-0.4-0.7-0.3-0.3-0.9-0.3-2.5-1.1-2.7-0.6-2.1-0.4-1-0.5-0.4-0.1-0.2-1-1.3-0.2 0-0.6 0.1-0.2-0.1-0.1-0.2-0.1-0.6-0.7-1.9-0.1-0.9-0.5-1-0.1-0.6 0.3-1.1 1.5-1.6 0.5-1.1-0.7-1.6-3.1-3.5 0.3-1.4-0.4-0.3-0.3-2.4-0.3-1.2-0.5-0.9-0.9-0.9-0.2-0.4-0.2-0.4-0.1-1.2-0.1-0.5 0.8-6.6-0.1-2.5-3.1-12.2-0.6-0.9-1.6-1.4-0.6-0.9 0.1-0.8-1.5-1-0.5-0.5 0.7 0.1 0.5-0.3 0.5-0.3 0.6-0.2-0.4-0.4-0.1-0.5 0.2-0.5 0.3-0.4-1.5 0.6-0.4 0.1-0.5-0.1-0.3-0.3-0.1-0.2-0.3-0.1-0.2-0.2-0.3-0.4-0.3-0.2-0.9 0.5-0.3-0.2-0.1-0.4 0-0.6-0.6 0.2-0.3-0.3 0-0.4 0.4-0.2 0.3-0.2 0.8-0.9 0.4-0.3 0-0.4-1.4-0.2-1.1-0.7-0.8-1.2-0.3-1.1-0.5 0.5-0.6 0.2-1.3 0-0.7-0.2-0.4-0.5-0.4-0.5-0.4-0.3-4.9 0-1.1-0.4-0.3 0.4-1.1-0.6-1.5-0.3-2.9-0.1-1.4-0.3-2.5-1-1.4-0.2-2.9 0.1-1.5 0.4-1.1 0.8-1 0.5-3.1 0.1-1.2 0.2-0.4 0.3-0.8 0.8-0.1 0.2-0.1 0.6-0.3 0.2-0.4 0.1-0.4 0.2-0.8 0.7-3.1 1.9-1.2 1 0 0.2-0.2 0.2-0.9 0.7-0.5 0.2-2.1 0.2-2 0.5-0.5 0.1-1.5-0.1-0.6 0.1-0.7 0.5-0.4 0.1-1.7 0-1.5-0.3-0.5 0-0.9 0.4-1.6 1.5-0.6 0.3-0.5 0.4-2.5 2.8 0.6-0.2 0.3-0.2 0.4-0.3 0.2 1.3-0.3 1.6-0.6 1.5-0.6 1-1.6 1.4-1.7 0.9-2 0.4-2.1-0.1-3.8-1.3-2.2-0.3-1.8 0.8-0.5 1-0.3 1-0.4 0.7-1.2 0.3-0.9 0.1-2.1 0.6-0.7 0.3-3.1 2.8-0.5 0.3-4.5 3.7-5.1 3-0.3 0.3-0.3 0.3-0.4 0.3-0.5 0.1-0.6-0.1-0.8-0.5-0.5-0.1-4.1 0.4-2-0.3-0.8-1.2-0.6-1.6-1.4-1.3-2.1-0.4-4.3 0.2-1.7-0.8-0.8-1.4-0.7-1.7-0.9-1.6-1.4-1.1-1-0.2-1 0.1-0.9 0.3-3.6 0.2-0.9-0.1-3.3-0.9-0.8-0.1-0.5-0.2-0.9-0.7-0.4-0.2-0.5 0-1 0.2-3.1 1.4-2.1 0.3-1.9 0.6-1.1 0-2.1-0.7-1.1-0.1-1.1 0.6-0.6-0.2-2.5-2.1-3.5-2.1-4.6-3.5-0.6-0.8-0.3-1-0.1-2.5-0.4-1.1-0.8-1-1.5-0.9-16-5.5-1.1-0.1-1-0.3-0.6-0.7-0.5-0.8-0.6-0.7-2.8-0.7-0.4-0.6-0.4-1.1-1-0.6-2.2-0.7-3.8-3.4-1.6-1.1-2.5-1.1 0.7-1.5 0.3-0.3 0.2 0 1-0.4 0.5 0 3-0.3 0.8 0 2.3 0.6 2.2 0.1 0.7-0.2 2-1.2 1.3 2.5 3.4 3.3 10.5 0.9 1.8 0.7 4 3.3 0.8 0.4 0.8 0.1 3.4-0.9 1.2 0 14.4 2.6 4.9-2.6 1.3-2.1-0.5-1.6 0-0.6 1-2.9 0.7-4.2 2.1-2.5 4.8-1.7 12.6-1.2 2.9 0.4 2.2 0.8 2.3-1 4.3-1 12.6 1.8 5.9-1.8 2.7-2.6 1.5-4.7 1.9-3 6.4-3.4 4.3-1.1 2.7 0.1 1.4-0.6 1.1-0.8 0.8-1.3 0.3-3-2.2-3.7-4-3.2-0.3-1.8 0.3-2.2 2.4-8.7 0.5-6-1.2-3.4-14.2-13.7-0.2-2.6 1.5-1.1 0-1.5-2.7-8.2 4 0.3 8.5 2.4 4.2 3.3 2 2.7 2.1 1.5 2.1 1 2.4-0.6 9.5-7.2 5.5-2.6 1.4-0.1 1.3 1.9 0.9 20.5-1.1 3.9 0.9 5.3 4.3 5.4 4 3.7 4.8 3 5.6 0.8 3-0.5 5.6-2.8 5.1-4.8 1.4-1.8 2.2-1.7 2.6 0.1 4.9 2.4 0.3 0.9-0.4 5.4 1.7 8.3 0.7 1.2 1 0.8 1.4 0.2 2.5 1.3 1.8 2.4 1.1 2.1 2.2 2.4 2.1 3.2 0.3 2.7-1.3 1.1-0.8 1.6 1.1 1.6 1.2 0.6 1.3 2.6 1.4 4.2 1.5 19.8 1 3.1 14.5 7.7 3.2 2.4 1.4 0.4 2.2-2.1 1.2-1.5 1.9-1.3 3.1 0 3.2 2 3.6 2.9 2.7 3.2 1.4 3-0.4 1-3-1.8-1-0.1 0 1.1 1.1 3.4 0.1 1.3-0.3 0.9-0.9 1-0.6 1.7-1.1 10.2 0.3 1.6 0 1.5-0.6 2.9-1 1.2 0.1 1.1 6.3-0.5 3.8 0.7 2.6-0.2 1.6-0.8 1.7 0.4 1.8 0.8 2.9 0.5 0.9 0.5-0.1 0.6-0.4 1 0.1 1 0.5 1.1 0.1 1.7 0.8 1.4 1.9 0.4 2.4 0.1 2-0.2 1.4-1.5 1.4-0.4 1.8 0.8 1.3 0 0.7 0.5 1.9 2.9z m-204.2-15.7l0.3 0.2 0.2 0.2 0.3 0.3 0.1 0.3-0.9 2-0.3 0.1-0.5-0.2-0.6-0.3-0.3-0.3 0-0.7-0.1-0.5 0-0.5 0.1-0.6 0.3-0.4 0.4-0.2 0.5 0.1 0.5 0.5z m-23.1-9.4l-3.5-0.2-0.3 0-1.6-0.7-0.9-1.6 0.5-0.7 0.7-0.6 0.8-0.2 0.9 0 0.8 0.3 1.8 0.2 0.6 0.2 0.1 0.3 0.1 0.1-0.1 0.5 0.1 0.4 0.3 0.2 0.2 0.2 0.1 0.1 0.1 0.3 0 0.3-0.1 0.3-0.1 0.3-0.5 0.3z m-33.9-16.4l-0.8 0.5-0.9 0-2.7-0.5-0.9-0.3-0.1-0.1-0.6-0.4-1.5-1.2-0.4-0.5 0.2-0.3 0.3 0 0.4-0.2 0.5 0 3.9 1.2 3.6 0.3 1.1 0.4 0.6 0.6 0.4 0.3-0.7 0.2-1.8-0.1-0.6 0.1z m141.5-1.8l0.2-1.4 0.7-1 1.2-0.5 1.8-0.2 0.2 1.6-1.4 1.3-1.8 0.5-0.9-0.3z m-5.1-8.9l0.9 0.2 1.2 0.5 0.7 0.6 0.3 0.2 0.4 1-0.8 0.4-0.7 0.5-2.9 0.7-1.1 1-1 2.3-0.6 0.9-1.9 2-0.3 0.7-0.4 0.5-1.8 0.9-0.4 0.5-0.4 0.2-2.4 2.3-1.3 0.8-1.1-0.5-1.1-1-1.2-1-3.1 1.6-0.9 0.8-0.9 0.5-1 0-2.1-0.3-1 0.2-1 0.4-2.5 1.9-2.6 1.1-1.6 1.2-0.9 0.4-2.9 0.3-2 0.6-0.9 0.6-0.4 0.1-0.2 0-0.2 0-0.6-0.2-0.4 0-0.2 0.4-0.3 0.4-0.5 0.3-0.6 0.1-0.4 0.1-0.2-0.1-0.2-0.1-0.2-0.7-0.2-1.3 0.3-0.9 0.1-0.6-0.3-0.3-0.4-1.6 0.5-0.5 2.2 0.8 0.5-0.3 0.3 0.1 0.1 0 2.5-1.4 6.3-2 0.9-0.1 0.6-0.3 0.2 0 2.2-1.4 0.9-0.7 3.1-1.2 0.5-0.1 1 0.1 0.4 0 0.4-0.2 0.5-0.4 0.4-0.1-0.1-0.4-0.2-0.4 0.7-0.8 0.2-1-0.3-2.3-0.3-0.9-0.8-0.8-0.8-0.6-0.3-0.4 1.2-0.7 6.5 2.5 1.8-0.5 5-3.2 6.2-1.4 1.9 0z m12.2-5.5l0.5 0.4 0.6 0.2 0.4 0.3 0 0.1 0.2 0.7-0.2 0.7-0.4 0.5-0.4 0.1-0.3 0.2-0.7 0.1-1.5-0.6 0.1-1.3 0.9-1.2 0.8-0.2z m-90.7 62.1l0.2 0.5 0.1 0.9-0.4 0.4-0.7-0.2-0.7-0.3-0.2-0.6 0.6-0.4 1.1-0.3z m63.5-39.5l0.3 0.5 0.1 1.3-0.6 1.1-1 0.6-0.8-0.5 0.1-1.2 0.7-1.2 0.7-0.6 0.5 0z m-106.2-0.5l0.5 0.2 0.4 0.8-0.6 0.6-0.8-0.1-0.8-0.4-0.5-0.7 0.4-0.5 0.9-0.1 0.5 0.2z m66.4 42.1l0 0.5 0.2 0.6-0.3 0.4-0.4 0-0.3 0.2-0.5-0.5-0.2 0.2 0.1-0.3-0.2-0.3-0.2-0.5 0.7-0.4 0.8-0.2 0.3 0.3z" id="IR23" name="Hormozgan">
  </path>
  <path d="M341.6 227.2l2.5-1.6 2.9-5.2 1-4.9 1.9-1.8 2.5-1.3 1.6-2.3 0.4-1.5 0-0.2 2.3 1.5 1 0.3 0.6 0.3 1.4 1.5 0.7 0.6 7.4 4 6.8 4.9 4 1.8 13.1 2.6 8.4 2.4 8.7 1.6 8.4 2.4 8.7-1.1 7.8-2.9 8.1-2 8.3-1.6 8.1-1.6 8-2.4 7.8-2.4 15.7-3.6 2.1-0.3 18.5-1.1 3.4-0.8 2.3-1.9-0.1 2.2-2.7 0.9-3.3 0.5-2.2 0.6-0.6 0.3-0.7-0.1-1.2-0.4-0.7 0.1-1.3 0.6-0.8 0.1-2.7-0.4-2.4 0 0.3 0.7 0.7 0.2 1.5-0.1-0.9 0.4-0.4 0 1.2 1.5 1.9 0.9 0.2 0 0.1 0.8 0.5 1.4 1.6 2.9 10.4 6.3 5 5.1 1.9 3-4.7 1.4-3.9 2.3-3.6 3.5-1.6 3.3-1.1 3.5-0.7 4.7-1.9 2.2-4.8 4.3-1.1 1.6-0.6 1.4-1.1 1.6-2 1.8-3.4 1.8-3.6 1.2-2.3 0.3-1.6-0.8-2.4 0.8-3 1.7-2.2 0.7-4.8 0.5-0.7 0.3-4.2-2.9-2.1-0.5-1.5 0.9-2.5 0.3-3.6-0.7-5.3-2.9-4.3-0.8-3.3-1.4-3.1-0.4-4.4 3.4-6.1 7.4-3.2 1.3-3.7-0.2-2.3-0.8-1.5-0.9-1.6-1.9-2.8-5.2-4.8-5.2-6.4-2.5-7.2-0.6-5.1-3-3.1-3.6-7.7-1.7-2-0.9-1.7-1.6-0.9-1.3-3-1.2-7.8-1.5 0-1.2-0.6-1.6-7.6-5.8-2.6-1.4-12.6-10.6z" id="IR21" name="Mazandaran">
  </path>
  <path d="M603.6 186.8l7.1 9.5 3.4 2.4 1.8-0.3 2.3 0.9-0.5 1.4-2.7 0.8-1.2 1-0.3 0.9 0.3 0.4 0.3 0.7 0.2 1.5-0.2 4-0.9 3.5-0.2 1.2 0.9 1.9 5.6 6.3 5.3 4.6 2.7 0.9 4.5 0.7 2.3 0.9 7.2-1.2 0.9-0.3 1.5 0.1 1.9 1.1 1.2 4.7-1.3 5.4-1.9 3.7-0.7 6.3 0.9 11 1.5 7 1.3 3.3 11.2 9.1 3.1 3.6-0.8 4-8.2 14.1-2 4.7-1.4 1.1-9.9 3.8-5.4 3.2-6.1 5.5-7.5 9.4-17 28.6-5.1 2.6-12.1-0.2-4.3 0.8-0.9 0.4 0 0.1-0.4-0.6-1.2-1-2.5-0.8-112.4 3.4-2.5-0.4-20-6.6-3.2-0.5-12.9 0.8-4.6-0.8-9.2-4.9 1.6-2.3 2.1-4.9 1.3-5 0.1-4.6-0.7-2.3 0.2-2.5 1.5-4.6 2.4-3.8 0.6-3.5-2.2-3.9-5.3-7-0.3-2.5 0.3-2.6 0.8-3.5 0.7-5.3 0.8-0.9 0.8 0.4 0.6 0.6 1 0.4 2.8 0.1 2.6 2.3 8.6 5.2 3.5 1.2 3.6 0.1 10.6 3.1 3.8 0.1 5.3-1.7 4.7-2.5 7.5-6.9 1.5-5.2-0.6-5.8-1.5-6.5 0.7-0.3 4.8-0.5 2.2-0.7 3-1.7 2.4-0.8 1.6 0.8 2.3-0.3 3.6-1.2 3.4-1.8 2-1.8 1.1-1.6 0.6-1.4 1.1-1.6 4.8-4.3 1.9-2.2 0.7-4.7 1.1-3.5 1.6-3.3 3.6-3.5 3.9-2.3 4.7-1.4 9.3-0.2 3.6 0.6 3.3-0.8 6.7-3.1 2.9-3.2 8-6.2 8.2-4.8 4-0.4 16.8 2.3 2.4-1.1 1.6-4.1 0.9-6.5 3.9-8.6 8.8-13.6 1.9-1.6z" id="IR12" name="Semnan">
  </path>
  <path d="M201.7 236.7l-6.5-14.6-0.3-1.9 0-2.9 0.9-1.8 7.1-7.3 2-3.3 1.4-1 3.1-1.5 2.6-2.8 1.6-0.9 1.7-0.7 14.8-1.8 4.4 0.7 3.1-0.5 11.3 1.2 3.5-1.4 1.6-1.3 0.6-0.3 1.3-0.4 2 0.7 3.5 3.7 1.4-0.3 0.7-1 0-1 0.6-1 0.9-0.4 1.3 0.8 1.7 0.2 1.9-1.3 1.6-0.5 3.2 1.7 7.1 4.5 5.2 5.6 2 3.2 2.8 9.7-3.8 1.3-5.2 3.4-1.9 4.5 1 3.7 2.5 3.1 1.5 3.9 1.6 2.3 2.3 1.2 1.5 0.1 0.9 0.5 0.9 1 1.2 0.7 0.9 1.6 0.7 2.8 1.5 2.5 1.1 2.4 0.7 6.2-1 1.6-8.6 2.3-4.8 2.7-2.9 3.3-0.2 2.3 0.1 0.6-4.3-2-3.1-0.2-4.3 1.2-2.6 1.9-1.7 0.4-2 0.1-1.5 0.3-1 0.7 0.1 1.8 6 5.4 3.5 5.1 0 1-1.7 2.4-3.5 1.2-4-0.9-4.1-2.3-10.1-0.3-2.2-1.3-1.5-2.9-0.5-1.3-0.9-1.6-0.9-0.8-12.9-7.9-0.7-1.5 0.8-2.1 1.9-2 1-4.2 0-6-0.9-3.3-0.8-0.1-0.2 0-0.1-0.5 0.2-0.3 0.2-0.4 0.1-0.4-0.3-1.4 0.1-0.6 0.4-0.4-0.4-0.7-0.5-1.1-0.5-1.3-0.2-1.1-0.3-0.7-1.5-1.6-0.1-0.3-23.8-4.7-1.3-1.4z" id="IR11" name="Zanjan">
  </path>
  <path d="M291.8 218.8l4.4 2.1 0.1 1 0.6 1.9 2.7 3.4 2.9 2.7 6.4 1.9 2.4-0.1 1.5 0.3 1 0.7 4.3 0.8 2.4-0.4 8.8-4.8 1-0.3 1-0.6 3.9-0.8 6.4 0.6 12.6 10.6 2.6 1.4 7.6 5.8 0.6 1.6 0 1.2-11.2-1.2-5.3 0.4-1.4 2.1 2.4 3.3 1.8 1.5 3.3 1 2.2 1.9-1.5 5-2.3 4.7-0.5 2.1-1.6 1.6-9.6 4.7-2.6 2.5-0.6 2.2 0.4 1.8 1.2 2.7 1.1 1.7-1.5-0.2-2.8 0.1-8.4 3.7-2.2 0.1-2.6 0.8-2.4 1.2-8.3 2.5-2 1.5-1.4 3.3-8.2 0.2-1.2-0.8-6.7-1.7-1.3 0.3-6-1-3.3-2.5 1.5-2.1-1.8-2.3-3.9-2.3-5.2 0-2.2 0.9-3.5-5.1-6-5.4-0.1-1.8 1-0.7 1.5-0.3 2-0.1 1.7-0.4 2.6-1.9 4.3-1.2 3.1 0.2 4.3 2-0.1-0.6 0.2-2.3 2.9-3.3 4.8-2.7 8.6-2.3 1-1.6-0.7-6.2-1.1-2.4-1.5-2.5-0.7-2.8-0.9-1.6-1.2-0.7-0.9-1-0.9-0.5-1.5-0.1-2.3-1.2-1.6-2.3-1.5-3.9-2.5-3.1-1-3.7 1.9-4.5 5.2-3.4 3.8-1.3z" id="IR28" name="Qazvin">
  </path>
  <path d="M301 299l8.2-0.2 1.4-3.3 2-1.5 8.3-2.5 2.4-1.2 2.6-0.8 2.2-0.1 8.4-3.7 2.8-0.1 1.5 0.2 2 0.4 4.7 0.3 4.7 1.4 2.7 2.5 1.1 0.6 0.5-0.8 0-1-1.8-2.5 0.6-1.6 2.7 0.1 1.8 2.1 0 3.2 0.3 2 1.3-0.3 1.3-2.7 2.2-0.2 2.2 2.7 1.2 2.4 0 4-4 13.2-1.4 1.9-1.5 4.5-0.9 8.8-0.5 2.2-0.9 0.6-4.9 1.6-5.8 0.9-2.8 1.9-4.1 1.2-4.3-0.6-2.6 2.2-0.1 3.7 1 1.4-0.5 1.1-4.4 2.5-0.5 3 2.6 2.9 2.1 1.9 1.7 0.8 1.9-0.2 1.3 0.9 1.4 1.6 0.7 1.7-0.2 2.3 1.2 2.9 2.2 2.7 3.1 2.6 12.1 1.1 4.9 2.7 10.8 2.9-0.5 3.4-4.5 10.9-1.3 2.3-2.7 0-2.9 0.9-2.7 2.3-2.9 1.8-19.6 5.2-7.5 4.4-3.9 3.2-0.4-0.4-3-1.6-0.4-1.6 0.1-1.7-1-1.1-1.5-1.1-0.8-1.4-1-0.6-1.7 1.2-0.9 1.8-0.3 1.5-1.1 0.7-1.5-1.1-1.6-1.7-3.5-1.8-1.6-1.3-0.4-1.4 0.5-1.7 0.7-1.6 0-1.5-1.3-2.2-2.1-2.5-2.6-0.8-2.3 1.3-2.6 0.9-2.1 1.2-1.6 5-0.9 0.9-3.8 2.4-1.3-0.5-5.3-0.4-3.1-1.2-2.4-1.4-0.6-1.2 0.2-1.3 0.4-1.3 1.9-4.3-0.2-1.3-0.5-1.6 0.3-1.8 0.7-1.2 5-4.4 0.8-1.2 0.1-1.3-0.8-3.7-0.3-3.1-0.7-3.1-3.4-6.6-0.4-6-0.8-3.6-2.3-1-0.7-1.6 1.6-0.6 4.9 0.5 2.1 1 1.1-0.2-0.8-4.5 0.2-4 1.2-2 0.6-2-0.6-3.4 1.2-1.8 8.6-0.4 4.1 0.7 1.1 1.6-1 2.2 0.7 2.6 1.9 2.2 1.5 1.4 2.1 0.2 1.1-2.3-1-6.2-1.2-2.9-2.3-2.7-2.4-1.1-5-1.4-2.1-1.1-1.1-1.1-0.1-0.8 0.8-0.9 1.4-0.2 2.7-0.8 2.3-2.7-0.6-2.6-2.1-3.5-0.9-3.9 1.5-1.9 1.3-0.1 0.1 1.1-0.1 1.4 1 1.4 1.6 0.3 1.6-1.8 0.1-2.2-1.1-1.5-0.4-2 0.1-1.4z" id="IR22" name="Markazi">
  </path>
  <path d="M314.9 465.5l1.2-4.2 1-1.6-1.9-2.6-4.7-1.8-4.1 0.3-2.6-1.4-2.2-5.6-0.1-0.6 0.3-1.3 0.6-1.2 1.1-0.7 3.8-1.2 2.1-1.6 0.9-6.7 2.7-3.2 7-2 1.1-0.6 0.1-1.1 0.3-1.3 4.7-9.6-0.1-2.4 0.2-3.1 1.1-2.3 3.9-3.2 7.5-4.4 19.6-5.2 2.9-1.8 2.7-2.3 2.9-0.9 2.7 0 1.3-2.3 4.5-10.9 0.5-3.4-1.3-0.7-1-2.4 1.4-11.2 0.6-1.7 1.8-1.8 4.5-1.9 10.1-1.2 3.7 0.2 15.8-4.1 9.2 4.9 4.6 0.8 12.9-0.8 3.2 0.5 20 6.6 2.5 0.4 112.4-3.4 2.5 0.8 1.2 1 0.4 0.6 0.6 38.4-1.3 4-4 7-2.7 1.9-3.7 0.4-4.7 2.5-2.5 3.2-2.1 9.4-1.6 4.2-1.8 3.4-2.6 3.2-4.9 2.8-49.9 17.2-14.9-3.4-3.4 0.1-4.6 1.8-2.8 1.8-2.1 1.7-3 1.8-3.4 1-1.9 1.2-0.4 1.9 1.4 17.1-0.4 3.6-2 7.8-0.9 6.7-0.5 1.4 0.1 3.8 2.1 8.2-0.1 0-16.1 4.6-3.5 0-10.5-2.3-2.1-2-0.5-5.1-0.7-1.5-0.8-0.1-6.4 3.5-0.9 1.3-1.4 0.6-6.3 4.3-3.6 0.5-4.5-1.1-0.2 1.6 1.1 2.6 1.4 1.5 1.9 0.7 2.1 0.4 2.7 2.1 1.3 3.7-1.1 3.7-1 5.7-3.9 9.9-0.4 4.8 0.5 3.3 0 1.7-1.3 0.4-3.6 0.6-1-0.9-6.6-4.8-5-5.4-2.6-6.7-0.4-3.7 0.5-1.9 0.1-4.3-4.3-14.3-1-6.3 0.3-2.9 1.6-1.2 2-0.8-0.2-1.7-1.4-1.8-0.9-1.7 0.2-1.7 1.9-1.4 1.5-2.9-0.9-5.8-2.5-4.4-5.4-4.2-2.5-2.5-6-4.6-0.5-4.4 0.3-4.1-1-1.6-0.4-1.6-0.7-0.8-1.3-0.3-0.4-1.4-0.5-2.5-1.8-1.6-2.1 0.3-1 1.1-2 0.7-6.2 0.2-1.8 0.3-5.2 3.5-2.2 0.4-1.4-0.5-2.4 0.5-3-0.3-2.9-2.4-2.9-1.6-2.1 0.4-1.4 0.8-1.7 0.3-3.2-0.4-9.3 5z" id="IR04" name="Esfahan">
  </path>
  <path d="M339.4 522l1.7-3.2 2.6-3.2 0.1-2.6-1.4-3.1-4-4.3-0.9-1.6-2.3-2.1-1.5-2.3-1.4-3.4-1.3-4.6-0.6-1.5-0.8-0.8-2.2-0.7-0.7-0.8-1.2-0.8-1.1-1.5-1.5-3.8-7.1-11.2-0.7-3.4-0.2-1.6 9.3-5 3.2 0.4 1.7-0.3 1.4-0.8 2.1-0.4 2.9 1.6 2.9 2.4 3 0.3 2.4-0.5 1.4 0.5 2.2-0.4 5.2-3.5 1.8-0.3 6.2-0.2 2-0.7 1-1.1 2.1-0.3 1.8 1.6 0.5 2.5 0.4 1.4 1.3 0.3 0.7 0.8 0.4 1.6 1 1.6-0.3 4.1 0.5 4.4 6 4.6 2.5 2.5 5.4 4.2 2.5 4.4 0.9 5.8-1.5 2.9-1.9 1.4-0.2 1.7 0.9 1.7 1.4 1.8 0.2 1.7-2 0.8-1.6 1.2-0.3 2.9 1 6.3 4.3 14.3-0.1 4.3-0.5 1.9-1.6-0.1-3 0.5-2.4 2.1-2.5 1.3-5.4-0.7-1.6 0-17.5-15.6-1.5-0.1-2.5 0.1-8.2-3.3-3.4-2.1z" id="IR08" name="Chahar Mahall and Bakhtiari">
  </path>
  <path d="M347.5 591.6l-0.8-8.5-0.8-3.7-1.5-1.7-0.4-2.8 2.7-6.4-0.8-2.9-2.6-1.9-4.5-2.4-3.7-3.7-1.9-2.4-8 1-0.3-1.3 0.4-1.8 0.2-1.6 0.3-0.9-0.2-2.2-2.1-7.8 0-3.2 0.7-1.8 1.2-1.6 1.6-1.2 3.7-1.5 5.6-5.1 3.1-4.2 3.4 2.1 8.2 3.3 2.5-0.1 1.5 0.1 17.5 15.6 1.6 0 5.4 0.7 2.5-1.3 2.4-2.1 3-0.5 1.6 0.1 0.4 3.7 2.6 6.7 5 5.4 6.6 4.8 1 0.9 1.4 6.8 0 2.6-0.3 0.6-1.2 1.2-2.3 1.4-2.6 0.7-5-1.3-1.7-1.1-1.1-1.3-1.2-0.3-5.4-2.6-3.8-1-0.7 0.8 0.8 4.6 1.4 4.2 0.1 1.3-0.6 1.1 0.3 1.2 1.2 2-0.1 2.8-1 2.1-12.5 7.3-2 0.3-7.9-0.4-4.8 1.1 0 0.2-0.8-0.8-1.8-1.3-5.5-2z" id="IR18" name="Kohgiluyeh and Buyer Ahmad">
  </path>
  <path d="M467.2 744.1l-9.4-6.8-6-5.7-6.3-7.6-6.3-14.4-3.6-4.1-1.6-0.9-2-0.9-1.2-1.9-6.9-19.6-1.1-4.8-21.1-39.8-4.2-3.9-3.8-1.4-3-3.2-3.3-5.2-2.6-5.9-3.1-3.5-6.5-2.1-10.4-0.7-2.7-1.1-2.8-5.8-2.4-2.4-1.3-3.9 0-2.8 0-0.2 4.8-1.1 7.9 0.4 2-0.3 12.5-7.3 1-2.1 0.1-2.8-1.2-2-0.3-1.2 0.6-1.1-0.1-1.3-1.4-4.2-0.8-4.6 0.7-0.8 3.8 1 5.4 2.6 1.2 0.3 1.1 1.3 1.7 1.1 5 1.3 2.6-0.7 2.3-1.4 1.2-1.2 0.3-0.6 0-2.6-1.4-6.8 3.6-0.6 1.3-0.4 0-1.7-0.5-3.3 0.4-4.8 3.9-9.9 1-5.7 1.1-3.7-1.3-3.7-2.7-2.1-2.1-0.4-1.9-0.7-1.4-1.5-1.1-2.6 0.2-1.6 4.5 1.1 3.6-0.5 6.3-4.3 1.4-0.6 0.9-1.3 6.4-3.5 0.8 0.1 0.7 1.5 0.5 5.1 2.1 2 10.5 2.3 3.5 0 16.1-4.6 0.1 0 12 4.6 7.1 6.5 6 7.4 11 27.8 7.9 14 7.5 9.3 2 3.6 1.7 12 1.3 3.2 7.4 5.5 9.5 4.9 0 1.1 1.3 4.2 3.8 8 0.6 2.1 1 1.8 1.1 1.1 2.1 1.4 10.8 1 2.7 1.1 9.6 23.7 2.7 8.2 0 1.5-1.5 1.1 0.2 2.6 14.2 13.7 1.2 3.4-0.5 6-2.4 8.7-0.3 2.2 0.3 1.8 4 3.2 2.2 3.7-0.3 3-0.8 1.3-1.1 0.8-1.4 0.6-2.7-0.1-4.3 1.1-6.4 3.4-1.9 3-1.5 4.7-2.7 2.6-5.9 1.8-12.6-1.8-4.3 1-2.3 1-2.2-0.8-2.9-0.4-12.6 1.2-4.8 1.7-2.1 2.5-0.7 4.2-1 2.9 0 0.6 0.5 1.6-1.3 2.1-4.9 2.6-14.4-2.6-1.2 0-3.4 0.9-0.8-0.1-0.8-0.4-4-3.3-1.8-0.7-10.5-0.9-3.4-3.3-1.3-2.5z" id="IR14" name="Fars">
  </path>
  <path d="M696.3 513.8l53.5 24.2 6.8 5.1 18.8 27.4-9.7 44.9-0.4 4.5 1.1 1.2 2.2 1.4 1.8 4.8 1.7 11.4-0.2 4.7-1.4 5.3-4 6.1-0.6 3.4 0.6 3.6 0.1 4.4 1.4 2.9 0.5 2.1-0.1 2-1.4 1.5-2.1 1.7-11 6.4-5.3 1.8-2.7 1.4 1.7 2.8 3.9 2.9 1.6 2.7-1.4 4.8-5.4 7.2 0.3 18.4-0.6 6.1-5.5 21.3 0 5.2 1.2 4.5 0.2 2-0.2 3.4 1 3.6 3.6 4.1 2.4 5-1.3 4-1.3 2.3 0.8 1.2 1.5 1.4 0 1.8-1.5 1.8-1.2 2.4 0.9 3.1 1.6 1.9 0.4 2-0.7 2-0.9 1.1 0.1 1.7-0.7 0.9-0.5 1.4 0 3.2-0.3 1.9-0.9 2.3-1.9-2.9-0.7-0.5-1.3 0-1.8-0.8-1.4 0.4-1.4 1.5-2 0.2-2.4-0.1-1.9-0.4-0.8-1.4-0.1-1.7-0.5-1.1-0.1-1 0.4-1 0.1-0.6-0.9-0.5-2.9-0.5-1.8-0.8-1.7-0.4-1.6 0.8-2.6 0.2-3.8-0.7-6.3 0.5-0.1-1.1 1-1.2 0.6-2.9 0-1.5-0.3-1.6 1.1-10.2 0.6-1.7 0.9-1 0.3-0.9-0.1-1.3-1.1-3.4 0-1.1 1 0.1 3 1.8 0.4-1-1.4-3-2.7-3.2-3.6-2.9-3.2-2-3.1 0-1.9 1.3-1.2 1.5-2.2 2.1-1.4-0.4-3.2-2.4-14.5-7.7-1-3.1-1.5-19.8-1.4-4.2-1.3-2.6-1.2-0.6-1.1-1.6 0.8-1.6 1.3-1.1-0.3-2.7-2.1-3.2-2.2-2.4-1.1-2.1-1.8-2.4-2.5-1.3-1.4-0.2-1-0.8-0.7-1.2-1.7-8.3 0.4-5.4-0.3-0.9-4.9-2.4-2.6-0.1-2.2 1.7-1.4 1.8-5.1 4.8-5.6 2.8-3 0.5-5.6-0.8-4.8-3-4-3.7-4.3-5.4-0.9-5.3 1.1-3.9-0.9-20.5-1.3-1.9-1.4 0.1-5.5 2.6-9.5 7.2-2.4 0.6-2.1-1-2.1-1.5-2-2.7-4.2-3.3-8.5-2.4-4-0.3-9.6-23.7-2.7-1.1-10.8-1-2.1-1.4-1.1-1.1-1-1.8-0.6-2.1-3.8-8-1.3-4.2 0-1.1 2.1-0.9 0.5-0.4 4.7-0.6 1.5-1.1 0-1.5-0.7-2.2-0.5-3.1 0.6-17.6-1.5-1.1-1.5-1.8-1.2-5.5-2.7-7.3-2.7-5-0.1-2.7 1.1-4 2.1-4.2 4.2-4.6 26.4-4.7 6.1 0.2 3.8 0.8 8.9-1.2 8-3.5 0.7-3.8 0.6-17.4 2.1-4.5 25-13.2 3.3-3.5 9.8-5.6 2.2-2.3 1-1.6 6 1.1 50.6 21.8z" id="IR15" name="Kerman">
  </path>
  <path d="M226.1 327l1.5-0.8 2.8-0.8 1.8-0.9 0.5-1.6 0.9-0.3 1.5 3.8 1 0.5 1.6-1.4 1.6-2.6 1-4.3-1.3-5.3-2.7-2.7-2-1.2-2.3-2.8-5-11.4-3.3-4.9 0.7-1.4 2.5-2.8 1.1-0.1 2.2 4.6 1.4 0.4 1.6-0.7 1.3-1.3 3.4-1.1 0-1.5-0.6-1.2-1.3-1.8-0.9-2.4 1.7-0.4 7 3.8 1.5 2.9 2.2 1.3 10.1 0.3 4.1 2.3 4 0.9 3.5-1.2 1.7-2.4 0-1 2.2-0.9 5.2 0 3.9 2.3 1.8 2.3-1.5 2.1 3.3 2.5 6 1 1.3-0.3 6.7 1.7 1.2 0.8-0.1 1.4 0.4 2 1.1 1.5-0.1 2.2-1.6 1.8-1.6-0.3-1-1.4 0.1-1.4-0.1-1.1-1.3 0.1-1.5 1.9 0.9 3.9 2.1 3.5 0.6 2.6-2.3 2.7-2.7 0.8-1.4 0.2-0.8 0.9 0.1 0.8 1.1 1.1 2.1 1.1 5 1.4 2.4 1.1 2.3 2.7 1.2 2.9 1 6.2-1.1 2.3-2.1-0.2-1.5-1.4-1.9-2.2-0.7-2.6 1-2.2-1.1-1.6-4.1-0.7-8.6 0.4-1.2 1.8 0.6 3.4-0.6 2-1.2 2-0.2 4 0.8 4.5-1.1 0.2-2.1-1-4.9-0.5-1.6 0.6 0.7 1.6 2.3 1 0.8 3.6 0.4 6 3.4 6.6 0.7 3.1 0.3 3.1 0.8 3.7-0.1 1.3-0.8 1.2-5 4.4-12.8-5.5-3.1 0.3-2.5-0.1-1.2 0.3-2.5 2.6-1.4 0.3-1.7-0.6-10.5-1.3-20.2-13.3-1-1.4-2-1.3-1.2-0.6 0.8-1.6 1.8-2.6 4.6-0.3 5.3 1.1 1.5-1.2-0.2-2.6 0.6-3.8-0.5-2.3-0.9-1.4-1.1 0.2-2.2 1-4 4.2-1.2-1.9-0.7-2.3-1.3-0.7-1.5-0.3-3.5-1.9-2.4-1.9-0.4-2.3 0.7-0.9 1.5-0.6 4.7-0.5 2.2-3.3 1.8-4.2 1.6-1.8 0.3-1.6-0.1-0.9z" id="IR24" name="Hamadan">
  </path>
  <path d="M204.2 379.2l0.8-0.6 0.7-1.1-0.2-0.4 0-0.6 0.1-1.1-0.1-0.6-0.2-0.5-0.3-0.3-0.3-0.4-0.1-0.6 0.3-0.8 2.7-1.3 3.3-0.2 2.3-1.2 0.3-3.2-0.4-3 0.1-1.3 0.9-0.6 1.4-0.4 3.2 0.4 1.2 0.6 2 1.3 1 1.4 20.2 13.3 10.5 1.3 1.7 0.6 1.4-0.3 2.5-2.6 1.2-0.3 2.5 0.1 3.1-0.3 12.8 5.5-0.7 1.2-0.3 1.8 0.5 1.6 0.2 1.3-1.9 4.3-0.4 1.3-0.2 1.3 0.6 1.2 2.4 1.4 3.1 1.2 5.3 0.4 1.3 0.5 3.8-2.4 0.9-0.9 1.6-5 2.1-1.2 2.6-0.9 2.3-1.3 2.6 0.8 2.1 2.5 1.3 2.2 0 1.5-0.7 1.6-0.5 1.7 0.4 1.4 1.6 1.3 3.5 1.8 1.6 1.7 1.5 1.1 1.1-0.7 0.3-1.5 0.9-1.8 1.7-1.2 1 0.6 0.8 1.4 1.5 1.1 1 1.1-0.1 1.7 0.4 1.6 3 1.6 0.4 0.4-1.1 2.3-0.2 3.1 0.1 2.4-4.7 9.6-0.3 1.3-0.1 1.1-1.1 0.6-7 2-2.7 3.2-0.9 6.7-2.1 1.6-3.8 1.2-1.1 0.7-0.6 1.2-0.3 1.3 0.1 0.6-3.5 0.7-6.6-0.6-11-7.6-10.4-1.1-3-0.9-2.4-2.3-4.9-1.5-5 0.4-3.3 1-11.6 0.8-2.5 1.9-6.5 17-2.5 3.8-0.6-0.6-0.9-1.3-7.6-16-5.6-7.3-1.5-1.7-0.7-0.4-0.9-0.3-0.6-0.6-0.9-1.8-1.2-1.3-0.5-0.3-0.7 0-0.6-0.2-0.2-0.7-0.5-0.6-5.8-2.9-2-0.5-1.2-0.7-0.9-0.9 0-0.8-0.8-0.3-2.4-1.8-0.2-0.3-0.2-0.2-0.4-0.1-0.3 0.1-0.3 0.2-0.2 0.1-0.4-0.1-0.1-0.3-0.1-0.2-0.1-0.2-1.7-0.6-0.9-0.4-0.6-0.5-0.6-0.8-0.2-0.4 0.6-1 0.1-0.6-0.2-0.5-0.5-0.2-2.6-1.5-1-0.4-1.2-1.6-1.5-0.8-1-1.8-0.8-0.5 0-0.4 0.7-2.2 0.1-0.8 0.8-0.4 0.9-0.1 1-2.5 2.9-2.8 16.5-4.7 0.9-1.3 2.7-1.8 1.1-1.2 0.6-1.2 0.3-1.8-0.5-2.8-1-2.5-0.7-0.9z" id="IR20" name="Lorestan">
  </path>
  <path d="M619.8 329.6l19.2-5 18.7-8.9 11.9-3.1 5.2 1.4 13.8 10.6 1.6 3.6-0.7 3.7-4.5 4.4-18.7 13.3-3.2 5.8-5.9 17.8-0.4 9.7 2.9 16.3 2.2 3.5 9.4 1.1 12-2.8 2 2.6 1.9 3.6 3.5 23.8 3.1 7 4 2.3 1.1 0.9 3 1.4 4 2.5 3.9 5.9 1.2 0.9 0.2 4.3-0.4 1.7-1.2 2.1-0.8 2 0.3 1.3 0.7 1.2 1.4 1.6 0.1 1.7 1.4 3.1 1.9 3.2-0.1 3-1.1 3.1-0.4 2.7-0.8 2.6-6.2 8.5-1.8 4.8-4.8 7.5-2.5 6.4-0.6 1.1-50.6-21.8-6-1.1-1 1.6-2.2 2.3-9.8 5.6-3.3 3.5-25 13.2-2.1 4.5-0.6 17.4-0.7 3.8-8 3.5-8.9 1.2-3.8-0.8-6.1-0.2-26.4 4.7-4.2 4.6-2.1 4.2-1.1 4 0.1 2.7 2.7 5 2.7 7.3 1.2 5.5 1.5 1.8 1.5 1.1-0.6 17.6 0.5 3.1 0.7 2.2 0 1.5-1.5 1.1-4.7 0.6-0.5 0.4-2.1 0.9-9.5-4.9-7.4-5.5-1.3-3.2-1.7-12-2-3.6-7.5-9.3-7.9-14-11-27.8-6-7.4-7.1-6.5-12-4.6-2.1-8.2-0.1-3.8 0.5-1.4 0.9-6.7 2-7.8 0.4-3.6-1.4-17.1 0.4-1.9 1.9-1.2 3.4-1 3-1.8 2.1-1.7 2.8-1.8 4.6-1.8 3.4-0.1 14.9 3.4 49.9-17.2 4.9-2.8 2.6-3.2 1.8-3.4 1.6-4.2 2.1-9.4 2.5-3.2 4.7-2.5 3.7-0.4 2.7-1.9 4-7 1.3-4-0.6-38.4 0-0.1 0.9-0.4 4.3-0.8 12.1 0.2 5.1-2.6 17-28.6z" id="IR25" name="Yazd">
  </path>
  <path d="M415.9 331.4l0.7 2.3-0.1 4.6-1.3 5-2.1 4.9-1.6 2.3-15.8 4.1-3.7-0.2-10.1 1.2-4.5 1.9-1.8 1.8-0.6 1.7-1.4 11.2 1 2.4 1.3 0.7-10.8-2.9-4.9-2.7-12.1-1.1-3.1-2.6-2.2-2.7-1.2-2.9 0.2-2.3-0.7-1.7-1.4-1.6-1.3-0.9-1.9 0.2-1.7-0.8-2.1-1.9-2.6-2.9 0.5-3 4.4-2.5 0.5-1.1-1-1.4 0.1-3.7 2.6-2.2 4.3 0.6 4.1-1.2 2.8-1.9 5.8-0.9 4.9-1.6 0.9-0.6 0.5-2.2 0.9-8.8 1.5-4.5 1.4-1.9 0 0.2 13.5 0.1 11.3 3.5 26.8 16z" id="IR26" name="Qom">
  </path>
  <path d="M391.2 259.6l5.1 3 7.2 0.6 6.4 2.5 4.8 5.2 2.8 5.2 1.6 1.9 1.5 0.9 2.3 0.8 3.7 0.2 3.2-1.3 6.1-7.4 4.4-3.4 3.1 0.4 3.3 1.4 4.3 0.8 5.3 2.9 3.6 0.7 2.5-0.3 1.5-0.9 2.1 0.5 4.2 2.9 1.5 6.5 0.6 5.8-1.5 5.2-7.5 6.9-4.7 2.5-5.3 1.7-3.8-0.1-10.6-3.1-3.6-0.1-3.5-1.2-8.6-5.2-2.6-2.3-2.8-0.1-1-0.4-0.6-0.6-0.8-0.4-0.8 0.9-0.7 5.3-0.8 3.5-0.3 2.6 0.3 2.5 5.3 7 2.2 3.9-0.6 3.5-2.4 3.8-1.5 4.6-0.2 2.5-26.8-16-11.3-3.5-13.5-0.1 0-0.2 4-13.2 0-4-1.2-2.4-2.2-2.7 1.3-2.9 3-1.8 2.5-3.1 1.3-3.5 4.2-0.2 0.5-2.8 0.2-3.8 2.9-3.3 3.8-1.4 3.8 0.5 2.6-1.7 0-3.2 0.2-2.5z" id="IR07" name="Tehran">
  </path>
  <path d="M365 247.8l7.8 1.5 3 1.2 0.9 1.3 1.7 1.6 2 0.9 7.7 1.7 3.1 3.6-0.2 2.5 0 3.2-2.6 1.7-3.8-0.5-3.8 1.4-2.9 3.3-0.2 3.8-0.5 2.8-4.2 0.2-1.3 3.5-2.5 3.1-3 1.8-1.3 2.9-2.2 0.2-1.3 2.7-1.3 0.3-0.3-2 0-3.2-1.8-2.1-2.7-0.1-0.6 1.6 1.8 2.5 0 1-0.5 0.8-1.1-0.6-2.7-2.5-4.7-1.4-4.7-0.3-2-0.4-1.1-1.7-1.2-2.7-0.4-1.8 0.6-2.2 2.6-2.5 9.6-4.7 1.6-1.6 0.5-2.1 2.3-4.7 1.5-5-2.2-1.9-3.3-1-1.8-1.5-2.4-3.3 1.4-2.1 5.3-0.4 11.2 1.2z" id="IR09" name="Alborz">
  </path>
 </g>
 <g id="points">
  <circle class="25.795014112171714|44.98010157892244" cx="90.9" cy="827.7" id="0">
  </circle>
  <circle class="31.67986168692856|54.632483971461504" cx="545.5" cy="511.4" id="1">
  </circle>
  <circle class="39.03592115537464|62.35438988549276" cx="909.1" cy="86.1" id="2">
  </circle>
 </g>
 <g id="label_points">
  <circle class="West Azarbaijan" cx="83.3" cy="101" id="IR02">
  </circle>
  <circle class="East Azarbaijan" cx="151.2" cy="154.7" id="IR01">
  </circle>
  <circle class="Ardebil" cx="239.3" cy="134.6" id="IR03">
  </circle>
  <circle class="Gilan" cx="313.6" cy="206.4" id="IR19">
  </circle>
  <circle class="Kordestan" cx="185.2" cy="285.6" id="IR16">
  </circle>
  <circle class="Kermanshah" cx="173.7" cy="365.7" id="IR17">
  </circle>
  <circle class="Ilam" cx="173.1" cy="427.8" id="IR05">
  </circle>
  <circle class="Khuzestan" cx="277" cy="515.9" id="IR10">
  </circle>
  <circle class="North Khorasan" cx="652.9" cy="173.9" id="IR31">
  </circle>
  <circle class="Golestan" cx="570.7" cy="192.8" id="IR27">
  </circle>
  <circle class="Razavi Khorasan" cx="756.8" cy="287" id="IR30">
  </circle>
  <circle class="South Khorasan" cx="773.3" cy="477.1" id="IR29">
  </circle>
  <circle class="Sistan and Baluchestan" cx="828.2" cy="741.2" id="IR13">
  </circle>
  <circle class="Bushehr" cx="398.1" cy="675.8" id="IR06">
  </circle>
  <circle class="Hormozgan" cx="636.6" cy="729.8" id="IR23">
  </circle>
  <circle class="Mazandaran" cx="461" cy="248.1" id="IR21">
  </circle>
  <circle class="Semnan" cx="544.6" cy="297.7" id="IR12">
  </circle>
  <circle class="Zanjan" cx="254.2" cy="234.6" id="IR11">
  </circle>
  <circle class="Qazvin" cx="319.5" cy="262.7" id="IR28">
  </circle>
  <circle class="Markazi" cx="314" cy="363.2" id="IR22">
  </circle>
  <circle class="Esfahan" cx="417.8" cy="428.1" id="IR04">
  </circle>
  <circle class="Chahar Mahall and Bakhtiari" cx="361.5" cy="498.3" id="IR08">
  </circle>
  <circle class="Kohgiluyeh and Buyer Ahmad" cx="362.5" cy="560.1" id="IR18">
  </circle>
  <circle class="Fars" cx="475.6" cy="649.4" id="IR14">
  </circle>
  <circle class="Kerman" cx="678.2" cy="610.8" id="IR15">
  </circle>
  <circle class="Hamadan" cx="263.7" cy="321.4" id="IR24">
  </circle>
  <circle class="Lorestan" cx="247.2" cy="407.8" id="IR20">
  </circle>
  <circle class="Yazd" cx="589.1" cy="467.6" id="IR25">
  </circle>
  <circle class="Qom" cx="377.2" cy="334.9" id="IR26">
  </circle>
  <circle class="Tehran" cx="394.7" cy="290.3" id="IR07">
  </circle>
  <circle class="Alborz" cx="366.5" cy="265.7" id="IR09">
  </circle>
 </g>
</svg>