<?xml version="1.0"?>
    
<!--********* Copyright (c) 2024 Pareto Softare, LLC DBA Simplemaps.com ***************************************
************* Free for Commercial Use, full terms at  https://simplemaps.com/resources/svg-license ************
************* Attribution is appreciated! https://simplemaps.com *******************************************-->

<svg baseprofile="tiny" fill="#6f9c76" height="679" stroke="#ffffff" stroke-linecap="round" stroke-linejoin="round" stroke-width=".5" version="1.2" viewbox="0 0 1000 679" width="1000" xmlns="http://www.w3.org/2000/svg">
 <g id="features">
  <path d="M863 149.2l0.8 4.5 0.1 2.2-0.2 0.8-1.1 1.1-0.4 0.9 0 0.9 0.1 2.2-0.1 0.9-1.9 4.9-0.3 1.4-0.9 0.9-5.4 6.7-6 4.5-1.9 2.5 0.2 3.5-1.7 2.8-4.1 4.6 2.4-0.1 2.2-1.8 3.9-5-1.3 4.1-2.4 4.5-0.9 3.6 2.9 1.5 2.9-0.9 6.5-3.8 17.7-4.8 6.4-3.5 3.3-0.9 2.7 2.9-3.6 8.4-2 2.1 0.2 1.7 0.6 1.7 0.3 0.7 0.4 0.5 1.9 1.4 5.2 3.6 1.5 1.9-4.5 1.4-2.4 1.9-2 5.1-4.2 5.1-1.7 4.3-6.3 7.5-1.2 2.6-1 2.9-0.4 3.4 1-1.6 1.8-4.3 0.9-0.9 0.9-0.6 2.8-2.8 0.8-1.3 1.5-3.3 10.2-15.4 1.8-1.3 2.2 0.6 6.6 4.9-1.3-1.9-2.4-2.6-0.9-2.2 18.1 10.9 2.3 0.4 9.1-2.3 1.5 0.2 1 1 0.6 2.4 0.1 2-0.5 1.4-1.1 0.3 0 1.3 2.6-0.1 1.2 0.4 0.7 1.2 0.1 1.4-0.2 1.8-0.4 2.3 0.6 1.5 0.7 1.1 1.5 1.4 3.8-5.7 2.1-1.6 2.5 0.6 0.5 0.9 0.1 1.2-0.1 1.2 0.1 0.7 0.5 0.1 1.2-0.4 0.5 0.3 2.9 3.2 0.6 1 0.1 4.4-1.2 2.7-1.5 1.9-0.9 1.8 0.2 1.2 1 3.7 0 1.7-0.5 0.8-2.9 2.1 0.9 1.2 0 1.5-0.3 1.8 0 2.2-2.8 2.1-7.5-1.2-3.3 1.8 2.1 1.8 6.4 2.3 0.3 3.2-1.9 2.2-2.7 1.2-4.1 0.1-1.7 0.5-3.5 2.2-6.8 1.3-2.2 1.4 1.3 1.8 13.1-4.9 4 0.4 7.9-2.1 2.5 0.8 4.1 2.7 2.1 2.3 0.8 2.1 0.4 1.1-2 1.5-3.3 5.3-1.8 1.2-10.4 2.7-11.1 0-4.7 1.2-5.1 0 2.5 2 9.6-2 12.7 1.5 5.7-1.5 3.1 0 0.8 0.7-0.4 1.4-1.3 2.2-0.2 1.2 0.1 0.9 0 0.8-0.4 0.9-3.2 1.4-2.7 0.3-2.6 1 0 1.5 6.3-1.3 1.5 1.3 0 1.2-0.8 0.2-0.7 0.6-0.7 0.8-0.6 1.2 2.6 0 0.8 0.4 0.6 0.9 0.5 0.9 0.4 0.4 0.8-0.6 1.3-2.7 0.7-0.6 0.2-0.8 2.4-4.7 3.3-4 0.3 2.9-0.1 4.1-0.2 4-0.5 2.4 0 1.4 1.5 1.1 0.4 1.9-0.5 2.4-1.4 2.6-1.7 1.6-3.5 1-1.6 1.4 1.4 2.7 0.8 1.8-0.2 0.9-1.3 0.6-2.6 2.8-1.3 0.7-5.9-1.5-5.1 0.9-1.7-0.9-0.8-1.8-0.7-2.7-0.8-2.4-1.3-1.1-1.4-0.4-2.7-1.9-4.3-1.5-4.6-4.5-2.5-1 0.5 2.1 0.9 1.6 1 1.1 0.9 0.5-3 3.4-16.7 0.6 0 1.5 26 2.5 0.8 0.8 1.1 1.5 1 1.9 0.5 1.9 0.7 1 3.8 3.6 8.5 3.9 1.7 2.8-3.5 2.7-4-0.6-7.2-3.5-8.2 1.4-5.1-2.2-1.4 0.8 4.9 3.5 11.8 2.8 5.3 4.4 0.6 1.1 0.8 1.8 0.3 1.7-0.9 0.7-1.3 0.6-2.1 2.8-1.1 0.6-8.6-3.4-2.4 2.2 8.9 3.6 1.5 1.5 0 2.1-2.3 0.7-9.4-0.4-2.6-1-0.5 0.9-0.7 0.6-1.7 1.1 0 1.4 2.5 3.2 1.4 2.1 1.2 2.7-1.3 0.5-3.8 3.4-18.3 3.9-2.9-0.9-1.7-1-1.1-1.3-2.3-7.6-2.1-2.1-2.2-4.5-1.3-1-6.4-1.4 0.8 1.1 0.9 0.3 1.9 0 1.2 0.9-0.2 2-0.5 2.2-0.2 1.4 1.3 1.6 4.1 2.3 1.4 0.2 0 1.3-0.1 2.4 1.1 3 1.6 2.7 1 1.1 4.2 1.4 1.5 1.7-0.9 2.1 0.6 1.4-13.8-4.7-4.2 3.3 1.3 1.7 3.3 1.7 1.6 1.9 0.8 2.1-0.1 1.9-0.9 1.5-1.5 1-11 0-1 1.3 1 2.6 1.6 2.1 0.9 0 0.8 2 1.8 1.2 1.6 0.1 0.3-1.4 3.4-0.9 5.1-7.7 2.6-1.9 0.5 1-1.3 2.1-7.5 9.2-1.1 2.3-0.3 1.7-0.2 4-0.4 1.5-2.7 4.8-0.3 1.7 0.1 1.2 0.1 0.7 0.1 1.3 0 0.7-0.5 0.6-0.4 0.4-0.4 0.5-0.2 1.2-0.1 0.8-0.9 3-0.4 0.6-8.5 1-6 2.1-2.1 1 3.6-2.9 7.3-2.1 3.8-1.5-2.1-1.5-9.2-1.4-0.6 0.3-0.1 0.8 0.1 2.5-0.3 0.6-0.6 0.4-1.8 1.8-1 0.4-0.3 0.5-1.7 3.3-1 0.9-4.5 3-1.9 2-1.7 2.3-1 2.3 0.4-2.2 0.3-0.9 0.4-0.8 0-1.3-0.6 0-0.5 1.9-1.3 1.6-1.4 1.2-1 0.5-0.3 0.6 0.3 1.4 0.6 1.4 0.8 0.6 1.8-0.2 0.8-0.4 0.8-0.8 0.4 2.6 0.7 2.6-1.8-0.1-2.5 3.2-1.6 0.8-3.8-0.4-1.7-0.7-1.6-1.4-2.6-3.2-1.6-1.4-1.7-0.6-0.7 0.5-1.5 2.5-0.8 0.8-1-0.3-1-0.7-0.9-0.3-1.1 1.3 1.1 1.4-0.9 0.9-1 0.3-2-0.1 1.6-5.2 0-1.1-2.6 0.7-1.3-0.1-0.6-1.3-0.4-3-0.9-1.9-1.1-0.7-1 1 0 1.3 0.7 0.9 0.5 1 0.3 1.3 0.3 1.9-1.1-0.7-2.4-0.9-1.1-0.9 0-1.2 0.8-2.7-1.2-4-2-3.6-1.8-1.6-1.7-1.9-3.3-1.3-2.1-0.6 1.4 1.1 2.9 1.2 1.7 0.9 0.8 2.1 1.6 4.6 0.7 1.6-0.7 1.1-0.7 0.3-0.7-0.4-0.7-1 0 1.5 1.6 1.5 0.3 2.9-0.7 3.3-1.2 2.8-2 1-4.6-1.2-1.9 1.3 1.1 1.1 1.3 0.3 2.7 0-2.1 1.8-5.3 1.9-4.7 0.5-5 1.8-2.1 1.8-0.4-0.9-0.5-0.9-0.2-0.9-2.3 3.3-7.4 5.9 6.9-2.4 1.6 1.2-2.7 2.3-21.4 6.6-3 2.7 3.9 0 0 1.2-5.2 4.5-1.8 0.6-0.8 0.5-2.8 3.4-2 1.4-0.8 1-0.6 1.6-0.9-1.8-0.8-0.4-0.8 0.8-0.9 1.4 0 1.3 1.1 0 0 1.1-4.9 3.5-1.8 0.5 0.5-2.7-4.5 3.4-2.1 2.6-1.3 3.1 1.3 0.1 1.1-1 0.8-1.1-2.1 4.4-1.1 1.6-5.9 5.1-4 6.3-2.5 1.4 1-0.6 1-0.9 0.9-1.4 0.4-2.2-12.4 10.3-11 3.2-1.7-0.5-1.4-1.5 0.6 1.1 0.7 0.8 0.8 0.5 0.8 0.1-1.6 0.9-1.3 0.4 0.3 2-0.1 2.5-0.4 2.3-0.9 0.8-0.4-0.6-0.2-1.2 0-2.6-0.2-0.6-1.5-1.3-3.1-4.3-0.8-0.8-1.3-0.5-0.7 0.5-0.2 1.7 0 2.7 0.2 3.5 0 2.4-0.5 1.1-1.1-0.6-0.2-1.7 0.4-4.7-0.2-1.7-0.6-2.1-0.6-1.2-0.3 1.2 0 5-0.1 2.3-0.4 2.2 1.1 1.7-0.4 1.2-1.3 0.8-1.7 0.3 1-4.2 0-1.9-0.5-1.5 0.4-1.7 0.2-0.7 0.3-0.3 0.7-0.5 0.1-1.1-0.3-0.9-0.2-0.1 0.4-5 0.1-2.7-0.2-1.2-0.3-0.8-0.9-1.4-0.9-0.8-0.5 1-0.2 4.9 0.1 1.9 0.7 1.7-1.3 1.2-1.6-0.1-1.3 0.3-0.9 2.3 1 1.9 0.5 2.2 0.5 2 1.4 1.5-1.5 2.1-3.1 0.7-5.9-0.2-1.2-0.4-3-2.2-1.1 0.7-1.1 1.3-0.9 0-0.3-3.2-10.1 6.4-4.6 1.5-0.1-2.1 0.3-32.6 0.5-3.7 2.9-11.5 38.4-82 15.6-32 2-6.9 1.7-7.6 0.5-2.6 0.2-1.8 0-1.6-0.2-1.7-0.3-1.5-0.5-1.6-0.2-1.6-0.4-1.5-1.9-5.4-0.2-1.5 0.1-0.9 0.2-0.7 2.2-4.8 1.2-1.8 0.6-1.2 0.2-0.9 0-0.9-0.4-1.5-0.1-0.7 0-1.1 0.2-1.3 0.4-2.9 0.4-1.1 0.5-0.7 2.1-0.1 4.7-2.4 1.5-0.4 3.3-0.1 1.5-0.3 0.6-0.3 0.9-0.9 4.3-6.3 3.5-3.8 1-0.6 5.5-1.8 1-0.8 1.2-1.4 2-3.3 0.7-1.6 0-1.1-1.5-1.2-0.3-0.5-0.1-0.8 0-0.9 0.4-1.9 0.2-0.8 1.1-6.7 0.1-0.8-0.1-3.4-0.2-2.5 0-1.7 0.1-1.6 0.2-1.3 0-0.5-0.1-0.3-0.2-1 0.1-1.4 0.6-2.8 0.5-1.6 0.4-1.1 2.4-3.5 2.4-5.1 0.9-0.9 4.3-3.2 0.9-1.1 0.7-1.6 1-3.2 0.4-1.6 0.1-1.3-0.4-2.3-0.5-1.4-2.3-4.1-1.5-2.1-6.3-4.4-0.4-0.5-0.6-1.1-0.2-0.6-0.1-0.7 0-1.2 0.4-2.2 0.3-1.1 0.4-0.8 1.1-1.3 1.6-3.2 1.5-0.6 0.8-0.8 1.1-1.5 1.1-2.5 1.3-3.8 0.8-3.2 0.2-1.4 0.3-3.6 0.2-1.2 0.5-1.4 0.7-0.9 1.1-0.2 25.6 5.2 0.9-0.1 0.2-0.9 0.1-2.4 0.1-1.5 0.4-1.8 1.9-6.4 0.1-1.7-0.2-1.6-0.3-1.6-0.3-1.5-0.1-2-0.1-5.2-0.1-1.5-0.3-1.1-0.6-1.6-0.1-0.9-0.1-1.4 0.2-3.1 0.2-1.4 0.4-1.3 0.9-0.6 17.1-4.7 0.7-0.5 0.2-1 0.1-0.9 0.3-1.1 0.6-1.3 1.3-1.6 1.2-1 4.4-2.6 1-1.1 0.8-1.5 1.1-4.7 7.3-1.1 4.9-3.8 3.3-3.7 2.1-4.4 33.5-4.4 2.6-7.6 4-1z" id="IS7" name="Austurland">
  </path>
  <path d="M676.7 447l-38.4 82-2.9 11.5-0.5 3.7-0.3 32.6 0.1 2.1-6.7 2.3-7.7 1.8 0.9-1.3 0.5-1.6 0-2-0.5-1.9-0.6 2.6-1 1.8-1.2 0.6-1.2-1.3 0.2 1 0 0.5 0.1 0.4 0.3 0.6 0 1.4-10.7 7.7 0.8-4.1 2.2-2.3 2.6-1 2.3-0.3 0-1.4-5.4-2.8-2-2.2-0.4 2.5 0.1 1 0.3 1.5-2.1 1.5-2-0.4-2.1-1-2.2-0.1 1.7 1.4 0 1.2-2.1-0.1-0.9 0.4-0.9 1.1-1.4-0.8-1.5 1.1-1.2 2.1-0.5 2-0.4 3.3-1.1 2.3-1.5 0.6-1.5-1.7-1.1 1.5-0.4 1.7 0.5 1.3 1.3 0.5 1-0.4 1.7-1.7 1.2-0.4 6.5 0.7 2.3-0.7-3.6 6.9-2.1 1.9-2.2-1.2 0.3-0.3 0.1 0 0-0.1 0.2-0.8-3.4 0 0.1 1.8-2.3-0.3-1.3 1.1 1.1-0.2 0.7 0.6 0.3 1.3-0.3 2.1 6.1-0.4 1.2-1-2 6.3-3 5.7-3.8 4.2-8.4 3.8-5.4 4.1-5.2 1.2-2.7-3.7 1.1-1.4 2.3-0.8 0.9-1 1.1-2 1-0.9 2.6-0.2 0-1.3-2.3 0-4.4 1.3-2.3 0-5.6-3.6-1.7-0.3 0.5 1.4-0.6 0.2-0.2 0.4-0.3 0.6 0.8 1.1 1.8 3.2 0.5 0.6 0.8 1.2 0.4 2.6 0.3 2.6 0.2 1.2 3.5 0.2 1.9 0 1.4 0.3-17.6 2.7-10.2 4.9-17.4 4.8-4.2-0.2-15.8-4.9-6.6 1.8-2.4-0.7 0.9-0.1 0.4-0.3 0.4-0.7-3-0.7-1.4-0.8-1.2-1.2-1.7 2.4-11.1-2.4-1-0.4-4.3-3.3-6.8-1.4-9.6-6.5-13.2-3.6-2.7-2.4 1.2-0.2 0.6-0.7-0.1-0.9-1-0.8-1-0.1-1.4 1.1-1 0.4-7.9-1.4 0.2 0.9 8.2 1.7-21.7-1.5-1.4-2.3-0.4 0.2-0.2 0.3-0.2 0.3-0.3 0.4-0.4-0.8-0.2-0.2-0.6-0.2 0.6 2.6-6.3 0.1-3.1-0.8-12.5-10.6-1.3-1.5 1.2 1.1 1.3 0.4 1.4-0.3 1.3-1.2-1.1-0.2-1.9-0.9-1-0.2 0.4-2.8 0.1-0.9-1.5 2.3-1.3 0.9-1.5-0.4-1.9-1.6 0-1.2 2.9 1.2-1.1-2.8-1.5-1.7-1.7-1.3-1.4-1.8-1.3-3.1-0.8-2.3-0.9-1.1-2.1 0.2 0 1.1 2.9 4.1 1.7 3.1 1.1 3.1-5.5-5.1-2.5-3.3-1.6-4.3 0.4-0.3 0.8-1.1-0.7-0.9-1.1-2.9 2.3-2.7 2.6-1.5 5.6-0.9 2.6 1.2 4.5 4.9 2.8 0.4-1.4-1.8-2-3.5-1.1-1.2-6.3-3.7 2.5-4.7 0.3-1.8-0.3-2.6-0.9-0.7-0.7 0.7 0.3 1.5 0 1.1-1 1.8-3.6 4.7-2.3 2.7-1.6 1.6-2 0.7-0.6 0.7-0.1 1.8 0.1 2.1-0.2 1.8-0.7 1.9-0.4 0.3-3.7-2.1-3.6-3.2-2.8-1.3-5.8-4.6 5.4 0 1 0.5 2 1.9 1.2 0.2 0.2-1.1 1.1-0.3 2.7 0.1 0-1.3-2.3 0 0-1.2 0.3-0.1 0.6 0.1 0.3 0 0-1.2-5.9 1.5-2.1-0.3 0-1.2 2.8-3.7 0.9-5.7-1.2-4.8-3.1-1.1 0 1.2 2.3 0.9-0.2 2.6-1.6 3-3.1 4.2-1.9 1.5-2.2 0.5-2.3-1.3 0.9 3.1 0.3 0.8-3.3-3.6-7.5-5-10.5-4-3.6-2.6-2-0.9-1.9-1.6-1.7-2.9 0.5-1.4-0.2-1.9-0.8-4.3 6.4 0.4 3.5-0.9 2.4-2.1-6.2 0-3.9-2.2-1.4-0.4-4.2 1.2-0.9 0.8-0.8 1.1-2.5 2.8-1 0.7 0 1.1 4.2 1.9 2.1 1.8 1.1 2.8-1.7-0.9-3.8-0.6-3.8 0.5-2.3 0.9-1.3 2 1.1 3.2-0.4 0.1-0.3 0.3-0.2 0.5-0.3 0.4-24.1 3.3-2.9-2-2.8-3-2.6-1.8-2.7-0.4-11.4 4.2 0-0.1 1.6-3.4 1.5-2.5 19.9-22.5 3.2 0.1 0.5-0.2 0.1-0.3 0.6-3 0.4-1.1 2-2.3 2-2.9 3.4-6.7 7.1-14.3 0.7-2.1 0.7-2.6-1.1-4.8-0.3-1.2 0.1-1.4 0.3-1.1 1.1-3 1-1.7 19.6-20.2 5.9-7.6 12.2-11.5 9.5-11.4 2-1.5 13.3-4.8 25.9-16.8 22.2-10.5 2.3-2.3 1.3-1.8 0.3-0.7 0.4-1.4 0.2-1.5-0.1-2.3-0.2-2.9 0-1.3 0.2-1.1 1.2-4.6 21.2 9.5 1.9 0.5 2.4-0.2 21.6-6.6 20.6 0.1 23.3-10.5 36.7-8.1 7.7 7.2 8.2 5 23.5 13.7 41.6 24.7 46.7 28.1z m-72.1 142.2l0.6 1.1 0.1 1.6-0.5 2.1-1.3 1.8-0.5 0.3 0.6-0.8 0.4-1-0.2-1.1-0.6-0.5-0.9 0.1-3.6 1.3 0.2-1.6 2.5-2.5 1.4-0.9 0.6-0.2 1.2 0.3z m-206.8 50.5l0.4 0.7 0.4 2.1-0.6 2-0.8 1.8-0.8 1.2-0.6-0.7-0.4-1.7-0.6-1.4-0.6-2.1 0.3-2.1 1.6-0.9 2-0.1 0.1 0.3-0.4 0.9z" id="IS8" name="Suðurland">
  </path>
  <path d="M283.3 536.4l-19.9 22.5-1.5 2.5-1.6 3.4 0 0.1-2.3 0.8-3.4 0.2-1.1-0.1-4.3 1.4-22.2-5.1-1.8 1.2-1.5 2.3-1.5 1.6-1.8-1.3 1.2-1.3-2 0-3.1 2-2.6 0.9-1.6 1.6-0.9 0.6-0.9 0.2-8-0.9-1.8 0.7-0.4 0.5-0.4 0.9-0.5 0.7-0.7 0.4-1-0.6-1.2-2.5-0.9-0.5 0.5-2 0.6-1.2 0.5-1.2 0.1-2.1-0.3-2.1-0.7-0.9-0.9-0.8-0.9-1.5 1.3-1.9 1.6-6.8 0.8-1.5 3.6 0 0.6-0.6-0.4-2-0.8 0-1.9 1.3-1.6-0.4-1.8-1.3-1.4-2.4-0.5-3.6 1.2-3.6 0.4-1.5 0-2.2-0.1-3.9 0.1-1.7-0.1-1.6 0.5-1.5 0.8-1.4 1.1-0.7 1.1 0.5 2.6 2.8 2.8 2 2.2 3.4 2.1 4.6 1.1 4.8-1.2 0 1.4 2.1 2 0.6 8 0.4 2-0.5 1.3-1.3-1-1.4 0.5-1.5 1.2-1.3 1-0.9 1.2-0.6 3.9-0.7 3-2.4 0.9-0.3 1 0.4 2.2 1.9 1.1 0.4 2.1-0.8 4-3.5 7.3 7.9 8.7-0.4 10.7-0.7 12.2 1.4z" id="IS2" name="Suðurnes">
  </path>
  <path d="M324.7 467.6l-19.6 20.2-1 1.7-1.1 3-0.3 1.1-0.1 1.4 0.3 1.2 1.1 4.8-0.7 2.6-0.7 2.1-7.1 14.3-3.4 6.7-2 2.9-2 2.3-0.4 1.1-0.6 3-0.1 0.3-0.5 0.2-3.2-0.1-12.2-1.4-10.7 0.7-8.7 0.4-7.3-7.9 6.9-1.4 2.2-1.5 2-3.2 0.7 1.1 0.5 0.2 0.5-0.4 0.5-0.9 0-1.2-1.4-1.5-2-1.4-2-0.6-1.4 0.8 0.9-3 2-1.5 2.3-0.2 1.6 0.9-0.7 0.2-1.5 1.2 1.5 0.8 1.6 0.2 1.7-0.3 1.4-0.7 0-1.4-1.7 0 1.1-1.1 0.6-0.2-5.2-4.8-2.7-1.5-2.9-0.2 2.5-1.9 12.4 2.3 0.6 0.7 0.4 0.9 0.5 0.6 2.6 1.5 1.3-0.1 1.2-1.4-0.9 0.2-0.9-0.1-0.8-0.5-0.8-0.9 1-1.4 0.6-0.6 0.7-0.6-1.7-1.2 2.1-0.9 2.9 1 1.1-0.1 1.7 0 1.7-3.8-2.8 1.6-1.5 0.2-0.7-1.2 0.6-2.3 1.3-1.1 2.6-1.3-1.7-1.1-2.5-0.3-2.5 0.4-1.8 1 0.5-3.2-0.9-1.5-1.7-0.4-2.3 0.1-0.8 0.3-0.7 0.5-0.6 0.9-3.1-0.6 2.5-2.1 0.8-1.6-0.5-2.8 1.6-1.1 3.5-2.5 2.5-2.8 1.8-3.2 1.4-3.9 0.8-1.2 1.4-0.8 1.8-0.5 3.6 0.6 1.6 0-1.7-0.7-0.7-0.7-0.6 0 3.3-2.9 1.8-0.8 2-0.3 11.3 3 1.9-0.4 1.4-2.3 5.2-1.7 7.6-0.4 3.3-2.1 1-0.2 3.7 0.7 0.8 0.4 1.1 0.9 0.3 0.5 0.2 0.9-0.2 0.7-0.3 2.6z" id="IS1" name="Höfuðborgarsvæði">
  </path>
  <path d="M421.3 383.6l-1.2 4.6-0.2 1.1 0 1.3 0.2 2.9 0.1 2.3-0.2 1.5-0.4 1.4-0.3 0.7-1.3 1.8-2.3 2.3-22.2 10.5-25.9 16.8-13.3 4.8-2 1.5-9.5 11.4-12.2 11.5-5.9 7.6 0.3-2.6 0.2-0.7-0.2-0.9-0.3-0.5-1.1-0.9-0.8-0.4-3.7-0.7-1 0.2-3.3 2.1-7.6 0.4-5.2 1.7 0.9-1.5-3.7 2.1-2-0.9 0-1.2 0.8 0 0.7-0.3 1.3-1 0.1-0.9-0.2-0.2-0.2 0-0.2-0.2 0.5 0-15-1-7 1.7-6.2 5.7-0.3 0.7-0.3 1.1-0.4 1.1-0.7 1.1-0.7 0.5-1.6 0.6-0.8 0-1.3 0.5-3.7 2.8-1.2 1.5-3.1 2.8-3.9-0.6-7.4-2.8 0-1.4 3.5-2.1 3.3-3.1 2.7-3.9 1.8-1.1 1.8 1.1 1.5-1.7 3.6-1.1 1.6-1.1-7.3-0.8-2.3 0.8-1.6 1.1-1.3 0.4-1.2-1-1.6-3.3 1.1-1.7 0.2-2.3 0.1-2.7 0.6-3 0.5-0.2 0.7 0.6 0.6 0 0.4-3.3 0.4-1.5 1.1-2.7 0.1-2 2.1-1.9 9.3-4.9 4.9-0.4-0.4-1.8-0.8-0.9-1-0.3-1.2 0.2 0-1.2 1.5-1.4 3.1-4.3 2.8-1.3 1.3-1.6 0.8-0.7 1.1-0.2 3.5 0.2-0.3 3.5 1.6 0.5 2.1 0.1 1.1 1.9 1.1 1.5 6.8 0.4-1.3-1.1-2.9 0.3-1.5-0.4-1.1-1.3-1.9-3-1.5-0.9 3.4-1.5 0-1.2-8.5 0 0-1.4 4.7-2.9 1.6-1.6 1.3-0.4 6.5 1.1 0-1.4-6.4-1.4-2 0-5.3 5-2.1 0.3 0-1.3 2.2-2.1 0.8-1.4 0.5-1.9-3.3 3.6-1 0.6-0.7 1-0.6 4.4-1 1-0.8 0.6-3.4 3.4-4.3 1.6-1.3 1.1 0.5 2.6-2.4-0.8-2.3 0.6-4.8 4.2-2 2.3-1.3 0.8-1.3-0.5-0.9-1.9 0.1-1.9 1.4-4.2-1.7 0.6-0.8 2.1-0.3 2.9 0 3-0.3 0.9-2 3.7-0.3 1.7 0 1.4-0.1 1.1-0.7 1.1-3 0-0.4 0.7-0.3 0.7-0.7 0.6-0.8 0.4-0.7 0.1-1.3-0.6-1.5-1.7-1.3-2.5-0.7-3-0.8 1.1-0.6 0.8-0.7 0.4-0.8 0.3 1.2-2.4 1-3 0.4-2.9-0.9-2.1 0.4-0.3 0.8-1.1-0.7-0.7-0.6-0.5-0.8-0.2-0.8 0 0.4-0.6 0.8-2 0-1.2-3.8 2.9-2.3 1.1-1.8-0.2-1.5-2.3-0.6-3.2 0.3-3 1.2-2 0-1.2-1.4-0.2-1.1-1.5-0.7-1.6-0.4-0.7-1.1-0.6-1.2-1.4-1.1-1.7-0.9-1.7 2.1 0.9 2.1 2.2 2.2 1.4 2.1-1.7-1.7 0 0.5-2.2 0.7-1.5 1-0.9 1.1-0.7-0.8-1.1-0.3-0.2 0-1.3 9.5-4.9 2.4-3 0-1.3-5.1 4.4-2.7 1.5-2.7 0.5-2.2 1.5-2.5 2.7-2.4 1.7-1.6-1.8 1.1-0.8 2.3-3.3 1.6-1.7 1-1.4 0.8-2-0.6-1.3 0.7-0.4 0.5-0.5 1-1.8-1.8-2.2-2.5-0.7-5.3 0.3 1.2-2.7-1.7 0 0.6-1.9 1.5-3.8 0.7-2.3-0.8 0.2-0.8 0.8-0.6 1.3-0.6 1.7-0.5-1.8-0.7-0.8-0.8 0.3-0.8 0.9 0 1.4-4.5-1.4-1.3 0.7-2.5 2.7-1.3 0.6 0 1.4 0.6 0.2 1.6 1.2-7.6 1.4-1.9-1.4 1.9 0.2 1-0.1 0.7-0.8-0.2-1.1-0.9-1.6-1-1.4-0.7-0.6-8.8 0 1.3 1.4 4.4 2.6 0 1.4-2.2-0.1-3.9-3.5-2.4-0.4 0.6 0-10.3-1-9.9 0-11.3-0.8-4.8-5.1-4.6-0.3-7.9 1.8-0.1 0.5-1.4 2.7-0.6 0.8-0.8 0.8-1 0.6-1 0.2-9.5-3 0.8-0.8 1-0.5 1-0.2-1.3-0.5-3.2 1.7-2.5 3.2-0.3 3.9-1.6 4.5-2.2 1.9-6.1 0.2-1.8 0.5-3.6 2-1.7 0.2-5.9-3.5-1.3-1.8-1.2-0.5-0.8-0.9-0.4-3.3-0.4-1.7-3.6-5.7-1.5-3-1.2-3.3-2.3-8.2 0.5-1.5 1.7 1.7 1.5-0.7 3.1-3.6 1.6-1 8.9-2.6 1.7 0.2 6.7 4.4 9 1.6 0.8-0.5 1.5-2.5 0.8-0.8 3.4 0.1 0.8-0.8 3.1-4.8 3.3-1.2 7.5 1.4 0-1.5-0.5-0.6-0.2-0.5-0.2-0.7-0.3-0.9 3.5-0.2 1.1 1-0.6 3.4 1.1 0.8 0.7-1.1 0.7-1.3 0.9 0.1 0.3 1.9 0 2.7 0.4 1.4 1.5-2 1.3 1.2 1.5-0.7 1.2-1.9 0.5-1.9-0.3-2-0.6-2.5-0.4-2.8 0.2-2.7 2.3-3.1 3.4-0.7 6.7 1.1-0.6 2.2-1 1.6-2.4 1.7 0.3 0.7 0.4 1.9-1 0.2-0.7 0.8-0.6 1.2-0.6 1.7 4.6 6.8-0.5-3-0.1-2.4 0.4-2.1 0.8-2 0.5-0.4 1.6-0.3 0.6-0.5 0.6-1.1 0.5-2.5 0.4-1.1 2.2-3.1 2.4-0.2 2.2 1.9 1.9 3.5 1.3-2.1 1.7-1.2 5.1-1.3 4.9-3.4-1.3-0.9-6 0.9 0-1.5 3.4-0.8 6.2-6.4 3.3-0.8-0.5 0.8-0.6 0.6 1.5 0.4 1.3 0.9-0.1 1.5 0 0.3 0.1 0.7-1.1 1.7-2.5 1.4-0.9 1.2 1.1 0.3 1.4-0.1 1.4-0.6 1.2-1.1 0.5 3.8 0.7 1.6 2.7 1.3 3.7 3.4 1.4 0.6 0-1.2-1-0.7-0.9-1.2-2.1-3.6 2.3-3 1.2-0.9 1.6-0.1 0.2-2.6 1.5-0.7 6.9 0.3 6.8-1.6 11.1 2.2 7.4 3.9 0.8-0.5 1.3-1.8 0.7-0.5 6.2 0 1.7 0.8 1.8 1.4 1.7 0.6 0.2-0.2 1.4-1.3 2.1 1.5 9.2-1.5 2.2-1.8 0-2.5-1.4-1.9-2.5-0.4 0.8-2.6 1-0.9 1.2-0.5 1.5-1.4 1-2.2 3.5-10 0.3-6.8-2.7-2.8-3.5 0.3-2.6 2.7 0 1.3 0.6 0 0 1.5-12.4 10.7-4.1 1.7-23.5-4.6-5.9-4.9-0.9-0.4-0.4 0.2-1.2 0.8-7.5 1.2-2.2-0.9-1.6-2 1.3-0.8 2.4-0.8 1.9-1.7 0.6 1 0.6 0.5 1.5 0 0-1.5-1.8-1.3-2.1-0.3-3.9 1.6 0.8-2.9 1.5-2.8 2.8-3.7 3.8-1.8 1.5-1.7-0.3-3.2 1.2-0.5 3 0.5 0.8-0.8 2.4-4.7 2.2-1.7 9.2-2.6 7.7-6.1 3-3.7 5.3-2.8 1.9-2.1-0.2-0.2-0.2 0-0.1-0.1 0-0.9 1.2 0.1 2 2.3 1.3 0.2-0.8-3.1-0.3-1 5.1-3 10.7-3.4 3.1-1.9 2-1.2 1.4-1.3 2-5.1 1-1.6 2.2-1.6 0.9 2.7 0.1 5.9-0.3 2.3-0.5 3 0.1 1.1 0.2 1-0.2 0.8-0.6 0.8-2 1.8-0.9 1.7-0.3 1.3 0.2 1.3 0.5 1 1.7 2.1 0.5 0.8 0.3 0.2 7.1-2.1 3.1 0 0.9 0.6 0.6 1.1 1.4 4.5 4.8 9.9 2.4 2.8 0.6 1.5 0.5 0.8 0.5 0.4 0.7 0.2 0.8 0.5 4.2 5.3 0.6 1.3 0.4 1.5 0.3 1.3 1.5 5.2 0.3 1.5-0.2 1.4-0.5 1.5-2.1 4.3-0.3 0.9-0.3 0.9-0.1 1-0.1 1.3 0 1.4 0.2 1.9 1.4 4.4 0.4 1.9 0.6 1 1.5 1.3 0.8 1 1.5 2.5 0.5 0.6 0.9 1 0.3 0.6 0.1 0.9 0 0.7-0.1 1.3 6.4 5.7 2.4 1.4 2.7 1 5.5 0.1 0.8 2.1 7.1 4.7 1.1 0.4 6.8 0.5 0.9 0.4 3.2 3.2 1.3 0.2 26.5-8.1 1.2 0.2 3.9 2 19.6 0.5 24.3 1.1 0.8 0.3 0.4 1 0.2 0.9 0.1 1.4-0.1 1.3-0.5 1.7-0.8 1.4-9.4 10.4-4.4 7.6z" id="IS3" name="Vesturland">
  </path>
  <path d="M338.3 350.4l-5.5-0.1-2.7-1-2.4-1.4-6.4-5.7 0.1-1.3 0-0.7-0.1-0.9-0.3-0.6-0.9-1-0.5-0.6-1.5-2.5-0.8-1-1.5-1.3-0.6-1-0.4-1.9-1.4-4.4-0.2-1.9 0-1.4 0.1-1.3 0.1-1 0.3-0.9 0.3-0.9 2.1-4.3 0.5-1.5 0.2-1.4-0.3-1.5-1.5-5.2-0.3-1.3-0.4-1.5-0.6-1.3-4.2-5.3-0.8-0.5-0.7-0.2-0.5-0.4-0.5-0.8-0.6-1.5-2.4-2.8-4.8-9.9-1.4-4.5-0.6-1.1-0.9-0.6-3.1 0-7.1 2.1-0.3-0.2-0.5-0.8-1.7-2.1-0.5-1-0.2-1.3 0.3-1.3 0.9-1.7 2-1.8 0.6-0.8 0.2-0.8-0.2-1-0.1-1.1 0.5-3 0.3-2.3-0.1-5.9-0.9-2.7-2.2 1.6-1 1.6-2 5.1-1.4 1.3-8 2.7-2.8 0-5.9-1.3-4.9 1.5-1.6-0.2 1.6-3 1.8-2.4-3-2.9-1.1-2.2-0.4-3-1.1 0.8-1.1 0.5-1.2 0.2-1.2-0.1 0.5 2.7-0.7 0.9-1.2-0.2-0.9-0.7-0.7-1.8-1.6-4.8-1-1.6 0.4 3.4-0.2 2.8-0.7 2.5-1.2 2.2-1.5 1.8-0.8 0.7-0.8 0.3-0.3 0.9-0.5 1.8-0.7 1.9-0.7 0.8-3.2 0.3-1.3-0.6-2.3-3.4-4.8-4.5-3.5-1.8-0.4-1.8 1.6-3.2 1.8-1.3 9.1-2 3.8-2.7 2-0.7 0.9-0.8 0.2-2.1 0.1-2.3 0.1-1.8 0.8-1.4 0.9-1.1 1.8-1.5-2.5 0.7-6 8.9-2.8 2.3-2.7 1.3-5.8 0.4 0-1.3 3.5-2.6 1-1.4 0-1.5-1.7 0.2-1.2 1.1-2.1 2.9-1.7 0.7-1.1-0.8-0.9-1.1-1.5-0.2 0 1.4 1 1.6-0.4 1.8-1.2 1.4-4.6 1.9-1.2-0.6-0.9-3.5 0-3.2 0.3-2.5 0-2.5-1.1-3.3-1.6-7.1-1-2.4-1 1.9 0 1 0 2.2 0.1 2.1 1.3 4.3 0 1.6-0.5 1.5-1.5 3.5-0.9 1.4-1.1 0.1-1.2-1.9-1.6-3.8-0.7-0.3-0.5 5.2-0.6 1.6-0.9 0.7-1.1-0.1-0.6-0.8-0.6-1.6-1.9-6.3-0.4-3.2 0.6-3.4 1.9-3.7-0.8-1.1-0.4 0.3-0.4 0.7-0.7 0.1-2.2-1.5-1.4 0-0.5 0.3-0.4 1.2 0.1 1.1 0.7 4.3 0.8 2.5 2.3 15.2-1.2 1.2-1.4-0.3-1.5-0.7-1.5-0.2 0-1.2 0.5-1.7-0.4-1.3-1-0.9-1.1-0.3-2.7 0.9-0.9-0.3-0.1-1.9-0.7 0.2-2-0.2 0-1.4 1.9-2.1 3.7-5 2.2-1.1-0.8-2.2-1.4-1.5-2.9-1.9-0.4 4.5-1.7 3.8-2.1 1.9-1.7-1.3-0.5-2.2-0.4-2.4-0.5-2-0.9-0.8-0.2 1.4-0.4 6.3-0.2 1.8-1.8 2.3-4.9 1.2-2.4 1.4-4.5-2.3-2.4-2.5 0.2-2.9 0-1.3-2.3 1.4-1.4 3.9-0.1 4.4 1.6 2.6 0 1.5-1.1 1.1-1.9 3.1-1.1 1.1-1.3 0.4-5.5-0.7-2.2-1-1.4-0.2-1.2-0.7-1-1.4-0.9-1.8-0.5 0.1-0.5 0.1-0.4 0.2-0.9 0.9 0.4 0.3 0.2 0.2 0.6 0.9-2.4 1-4.3 3.6-11.1 2.2-2.5-1.4-0.1 2.4-0.4 0.7-0.5 0.2-0.7 0.7-3.1 5.4-15.1 4.3-3.8-0.5-3.4-2.3 0-1.5 0.5-1.5-0.4-1.5-0.8-1.3-1-1.1 1.5 0.2 0.7 0.4 0.6 0.8 0.3-3.6-1.5-1.9-1.9 0.3-0.9 2.6-1.9-3-12.7-5.2-23.5 2.5-3-0.6-1.7-3.3 3.6-2.2 1.8-1.8 0.8-2 1-1.4 4.8-3.1 1.5-1.7 0.3-3.1 0-3.6 0.5-3 2.5-1.7 1.5-1.9 1.1-0.5 2.1 0.4 8 4.8 2.4 0.4 1.4 0.9 4.5 5.8 3.2 2.1 5.8 1.5 1.4 1.9 1.2 2.3 1.4 1.8 2.5 1.3 2.4-0.2 4.6-2.4-3.7 0.1-2-0.5-1.5-0.9-1.4-1.7-1.1-2.4-1.3-2-1.6-0.9-4.1-4.5-2.3-3.9-2.6-3.6-1.4-2.9 12.4 2.6 8.1 4.8 2.5 0.8-1.5-3.1-2.2-2.6-2.4-1.8-3.6-1.3-4.2-2.9-3.9-1.4-1.8-1.8-2.9-4.2-3.4-7-0.3-2.5 0.1-2.4-0.1-2.4-0.8-2.4 3.5-3.1 3.5 0.2 34.8 19.6 0.7 1 1.5 3 2.2 1.7 0.6 1 0.9 3.6-0.4 2.2-0.9 2.1-0.7 3 1.5 0.9 1.9-1.6 3.4-4.7 0.3 1 1.3 1.7 0.9-1.9 4.5 1.2 2-0.7 0-1.3-0.7-0.4-0.4-0.5-0.6-1.9 1.4-0.1 3.7-2.6 1.4-0.2 1.3 0.2 1.2-0.1 1.2-1.3-9.8 0.9-4.5-1.5-3.2-2.1-1.1-1.3-1.5-2.4-0.8-2.2 0.8-1 5.1-2.4 1.2 0.4 1.2 1.2 6.8-0.9 2.1-2 1.7-0.5 3.6 1.4 1.8 0.2 1.6-1.6-1-1-0.5-0.3-0.7 0 0-1.3 3.9-2.7 1.2-1.5-4.6 0.7-2.6 1.2-3.5 3.2-22.2-0.6-4.4-1.8-2.8-2.7-4.4 1.6-0.9-0.9-1.2-2-4.8-5.4-2.6-5.5-1.8-6.5 0.3-6.2 3.5-4 1.6-0.1 4.7 2.9 6.1 1.4 1.6 1 2.6 3.2 1.5 1.3 1.6 0.2 5.2-1.6 10.1 4.1 3.4 0 5.9 4.4 3.2 1.3 2.8-1.4-6.8-2.3-2.2-2.7-6.8-0.6-2.1-1.3-3.9-3.5-8.5-2.1-1.9-1.4-4.5-6.2-2.2-1.3-1.1-1.9-1.8-0.7-3.8-3.6-3.3-4.7-0.8-1.7 0-6.2 0.5-3.3 1.2-2.5 3.4-1.2 4.3 1 14.9 9.1 4.4 1.2 2.9-1.8 0.4 3.2 1 2.8 1.4 1.8 1.7 0.7 0-1.3-1.4-2.1-2.5-6.4-1.7-1.3-1.9-0.4-3.8-1.9-1.9-0.5-1-0.7-2.5-3.4-4.8-4.4-2.8-3.9 2.7-2.3 7.2-0.7 5.4 0.9 7.3 6.1-1.9-1.8-3.3-5.4-1.8-1.1-7.9 0.2-2-1.5 0-1.5 0.8-1.6 1.2-1.8 1.4-1.5 0.8-0.4 0.6-0.3 3.4-0.2 1.3-1.1 0.1-2.7 1.9-1 12.9 3.8 8.4 6.2 2.5 0.6 1.6 1.3 2.1 3.1 1.4 3.7-0.3 3 0.6 4.4 4-6.4 1.6-0.8 0.9 0.6 0.8 1.2 1.1 2.5 1.5 2.2 0.2 1.1 0 2.9 0.5 3.3 0.1 2-0.5 1.5-1.4 2.6-0.4 0.4-3.7 7.1-0.8 2 0.6 0 1.7-2.9 4.5-5.6 1.7-2.7 0.4-1.7 0.4-1.8 0.5-1.5 0.9-0.6 1 0.7 0.6 1.5 1.2 4.8-0.4 0.9-0.1 0.6 1.2-1.2 1.3-1.9 1.3-1.2 1.2 1.4-1.4 4.7-1.9 4.7-2.4 3.8-2.7 2 3.3-0.2 1.5-0.8 1.4-1.8 1.6-5.2 1.2-3.1 0.9-0.6 1.1 5.4-0.5 5.7-0.8 4.7 0.5 2.9 2.8-9.8-0.2-4.5 0.4-5.2 0.7-4.9 0.8-3.4 0.7-1.5 0.4-0.3 5.6 0.5 0.6 0.6 0.2 2.8 0.5 1.7 0.7 1 3.2 3.3 2.9 5.7 0.5 0.7 0.1 1-0.4 4.3-0.3 2.3-0.5 1.9-0.7 1 0.2 0.8 0.4 0.5-4.3 11.9-0.8 3.7 0.6 1.7 1-0.3 2-7.8 5.4-14.8 0.6-3.9 0-1.6 1.7-0.3 1.2 1.9 0.9 2.9 1.3 2.6 0.6 0.1 0.5-0.5 0.5 0 0.6 1.8 0 1.6-0.4 1.5-0.1 1.4 1.1 1 0.2-1.1 0.3-2 0.6-1.5 0.6 0.4 0 1.4-0.6 6.9-0.6 2.3-2 3.8-0.7 2.3 0 1.2 3.1-1.8 3.2-11.2 2.7-2.1 0-1.5-1.7-1.9-1-3.9-0.6-4.4-0.7-3.6-1.2-2.9-1.5-2.7-1.8-2-1.7-0.9 0.8-2.6 0.4-2.5 0.5-2.2 1.1-2.1 1.6-0.8 1.7-0.1 1.4-0.7 1-2.8-1.7 0.1-4.1 2-1.5 1.6-1.6 0.6-6.9-3.5-4.6-4.8-19.6-8.6-5.7-6.2-3.5-9 3.9-2.5 12.2-3.4 2.6 0.2 8.7 2.7 2.3 0 0.9 0.4 0.4 0.8 0.3 1 0.4 0.8 2.2 2.3 1.2 0.3 1.1-1.2-0.6-0.7-0.4-1-0.7-2.7 4.1 0.1 2.1-0.6 3.6-2.9 4.1-0.4 1.9-1.6-11.2 1.8-3.4-1.8-1.6-1.7 0.3-0.3 1.3-0.2 1.4-1.4 0.8-1.5 1.2-1.2 1.4-0.7 1.4 0 0-1.5-1.9-1.1-1.1 0.4-3.2 3.5-4.2 2.3-4.9 0.5-3.8-0.8-0.7-0.5-0.1-2.2 0.7-1.5 1.7-2 0.3-1.5 0.4-4.1 0.3-1.3 1.2-1.3 3.9-1.7-3.6 0.8-2.7 1.9-6.5 7.1-1.5 0.9-3.4 0.6-1-1.2 0.5-2.7 1.3-2.9 1.1-1.5 0-1.5-2.8 1.1-1.4 1.2-1.4 1.9-3.3 5.9-0.7 0.4-1.9 2.4-13.1-3.5-3.4-1.9-2.2-3-1.4-1.3-0.5-1.3 1.1-1.9 3.1-0.3 4 1.6 3.5-0.5 1.8-6.5-2.3-0.3-2.6-2-2.4-2.9-1.8-3.2 2.6-2 2.6 1.2 2.5 2.3 2.5 1.3-0.6-2.3-0.4-1-0.7-1 9.1-1.5 0.5 0.2 0.5 0.8 0.7 2.5 0.5 0.9 1.8 0.5 0.8-1.6-0.3-2.1-1.4-1-1.3-0.5-4.1-3.7 8.2 0 1.5 0.6 2.9 2.9 3.7 1.5 3 3.6 1.6 1.2 2.2-0.3 3.2-3.9 1.9-1.4-0.2-0.8-0.3-2 3.2-1.2 2.7 2.2 2.6 3 5.7 2.9 1.2-0.3 0.4-2.5-0.6-2.1-2.2-1.5-0.6-1.9 2.7 0.4 2.5 2.6 1.9 4.1 0.8 4.8 1.4 3.1 6.7 3.7 2.1 3.9-1.2 2 1.1 1.3 3.5 0.8 0 1.4-1.5-0.5-0.6 0.8-0.2 1.8 0 2.2 0.5 1.1 0.7 1.4 0.1 1.5-1.3 1.5 0 1.5 1.1 1.4 1.1-1.3 1.3-1 1.4-0.6 1.3 0 0.7 0.9 0.7 1.4 0.8 0.6 0.6-1.4 1.3-2.6 1.3-0.4 0.7 1.4-0.4 3 5.8-0.6 1.5 0.6 0.7-1.3 0.8-0.1 0.7 0.6 0.6 0.8 0.4 0.7 3 4.9-0.8 1.4-4.8 4.1 1.1 0.8 1-0.6 1.1-1 1.3-0.7 1.2 0.3 3.8 3.3 1.1 1.5 0.6 0.6 0.8 0.1 1.7-1.1 0.9-0.2 5.2 2.8-0.3 0.7-0.3 1.9 1.4 0.9 0.8 2.5 0 2.4-1.1 1.2 0.3 1.2 0.7 2 0.1 1.1 0-0.1 0.2 3.3 0.4 3.9 0.5 1.4 1.1 1 1.2-0.1 1.5-0.9 1.4-0.4 1 1.4 0.2 2.9-0.8 2.5-0.9 2.3-0.7 2.2 1.1-0.3 1.3-1 1.1-1.1 0.4-1.1 0.1-3.4-0.1-1.6-1.7-4 1-1.1 3-1.5 3.6-0.3 0.6 0.7 0.5 1.5 0.3 1.5 0.4 0.7 1.5 0.7-1 1.6-1.8 1.5-0.7 0.2-0.6 2 0.4 1.5 1.6 2.7 2.1 1.8 8.9-2.6 2.4 0.7 1.9 1.1 1.5 2.4 1 4.3-11.6 1.1-2.2 1.8-8.7 2.6-1.2 0 1.5 2.9 2.3-0.4 4.6-2.5 7.8-1.4 2.4 1.4-1 1.7-3.6 2.6 0 1.4 8.9-2.6 2.2 1.9 1.2 4 0.2 3.5-0.9 2.6-2.5 1.6 3.9 2.7 0 1.5-4.1 9.6-1.5 2.7-2.4 2.2-8.3 3.2 0 1.5 1.7 0.2 3.1-0.6 1.4 0.4 4.4 2.9 1.3 1.2-6.8 8.2-2.4 1.9-11.2-0.5-0.8-0.9-1.3-2.6-0.4-0.6-1.6-1.2-1.5-2.6-1-2.8-0.1-1.7-2.1-2.9-2.5-1.4-2.7 0.1-2.3 1.4 1.6 0.3 3.8 2.6 1.4 1.2 0.1 0.6 1.8 3.3 0.3 0.3 0.2 2.4-0.2 1.6-0.7 1.3-1 1.6 1.3 1.4 0.7 1 0.3 1 0.4 2.7 1 1.5 0.9 0.8 0.4 0.6 1.5 1.3 13.7-0.4 2.4 1.3 1.1 2.6-0.8 2.3-4.3 6.8-1.7 1.8 0 1.3 4-2.2 5.1-4.6 4.3-1 1.8 8.6-1.7 7.2-4.1 7-4.9 5.1-3.9 1.6 0 1.4 8.3-3.2 3.2-2.9 1.7-0.7 1.9 0.4 1.2 1.1 2.3 3.9 3.2 3.1 0.8 1.9-0.6 3.3 1.2 0.7 0.1 1.5-0.2 2.1 0.1 2.4 0.5 4.4 0 3.1-0.4 3.9 0 2 3.2 10.3 1.2 2-0.4 0.4 0 0.1-0.1 0.2-0.1 0.5 1.6 1.8 1.7 3.3 0.8 3.8-0.7 3.5 0 1.2 1.3 1.2 0.5-0.5 0 1.8 0.8 2.7 0.1 3.4-0.2 3.6 0 1.7 0.4 2 0.7 2.3 1.2 2.7 2 5.5 1.4 7.5 0.5 2 1.3 3.1z" id="IS4" name="Vestfirðir">
  </path>
  <path d="M549 368.3l-36.7 8.1-23.3 10.5-20.6-0.1-21.6 6.6-2.4 0.2-1.9-0.5-21.2-9.5 4.4-7.6 9.4-10.4 0.8-1.4 0.5-1.7 0.1-1.3-0.1-1.4-0.2-0.9-0.4-1-0.8-0.3-24.3-1.1-19.6-0.5-3.9-2-1.2-0.2-26.5 8.1-1.3-0.2-3.2-3.2-0.9-0.4-6.8-0.5-1.1-0.4-7.1-4.7-0.8-2.1-1.3-3.1-0.5-2-1.4-7.5-2-5.5-1.2-2.7-0.7-2.3-0.4-2 0-1.7 0.2-3.6-0.1-3.4-0.8-2.7 0-1.8 0.9-0.7 0.6-2.7-1.2-4.8-0.2-3.1-0.2-1.5-0.8-2-1.4-2.9-0.7-1.8 1.3-2.2 0.4-0.6-0.3-1.7 0.6-1.3 0.8-1.1 0.6-1.2 0.5-3-0.1-2.7-1.7-15-0.3-6.3 1-2.8 2.6 1.4 1.7 3.6 2.6 8.4 2.4 4.8 0.3 1.4 0.6 1.4 2.8 1 1.1 1 0.6-1.5-2.1-4.5-2-6.1-1.4-6.5-0.7-5.9-0.3-4.6 0-3.3 0.3-2.9 0.4-1.1 1-1.9 0.3-1 0.9-5.7 0.3-1.3 2.5-4.9 9.3-7.4 5-6.8 1.6-0.8 1.5-0.5 1.2-0.8 0.3-2 1.1-0.2 0.8 0.6 1.5 2.3 0.4 0.1 1-0.2 0.3 0.1 0.2 1.8-0.2 0.5-0.4 0.1-0.2 0.5-0.6 8-0.1 4 0.7 3-1 3.4-0.1 3.4 0.9 2.1 1.9-0.7-0.9-3.7 0.2-3.2 1-1.5 2 1.5 0.7 1.3 0.1 0.8-0.1 1.2 0.3 2.3-0.3 1.5-0.2 1.4 0 1.1 0.3-0.1 1.6 0.9 0.4 0.5 0.6 1.7 0.3 1.3 0.4 1.2 0.9 1.3 1 0.7 0.9 0.5 1.1 0.2 1-0.2 0.3-0.2 1.5-1.1 0.8-2.1 0.4-3.1 1-4.2-1-0.9-1.3-2.7-0.9-0.5-2.8 0.2-1.4-0.4-1.1-1.3 2.7-1.1 2.6-0.2 1.1-0.4 2.3-1.8 1.2-0.5 1 1.9-0.3 8.9 1.2 2.8-0.3-3.2 0.7-2.4 0.6-2.3-1-3 0.9-2.6 2.7-3.9 1.2-2.4 0.3-1.4 0.1-3.3 0.5-1.5 0.7-0.7 1.5 0 1.7-0.5-1.8-0.4-1.1-2.4-0.2-2.8 1.2-1.4 1-0.7 0.8-2.1 0.5-2.8 0.2-3.3-0.6-5.2-1.6-4.7-2.1-3.7-1.9-2.1 0-1.5 2.2-2.1-0.9-5.8-2.1-6.6-3.1-7.1-0.6-1.9-0.5-6.9-0.6-3.4-0.8-2.6-1.2-2.1-1.5-1.8 1.3-1.9 1.1-3.1 0.4-3.3-1-2.6 1.6-1.5 2-0.3 3.4 0.4 0.8-0.3 1.5-1.8 0.8-0.7 1.1-0.3 2.9 0.3 1.6-0.9 3-3.8 1.3-0.8 4 1.5 0.9 0.1 1 0.1 1.7-1.7 0.4 4.3 1.1 2.6 1.6 1.5 2 1.3-0.6 1.5 0.9 0.8 0.6 1.6 0.8 3 1 3 3.5 6.7 0.5 1.8 0.3 1.6 0.4 1.3 1 0.8-0.3 0.7-0.5 1.5-0.3 0.6 1.6 2.7 2.2 2.2 1.5 2.6-0.2 3.7 1.5 1.4 4.4 0.7 3.3 2.3 1-0.1 0.9 0.2 1 1.7 0.5 0.5 1.1-0.2 0.4 0.4 0.5 1.4 0.3 1.4 0.1 1.4 0.2 1.4 1.9 4 0.4 1.5 0.4 2.5 0.5 5.4 0.5 2.3 1.8 2.4 4.2 1.3 1.6 2.5 0.5-4.3 0.6-1.5 2.6 0.3 0.3 0.4 1.1 1.7 0.6 0.5 0.9 0.3 2.4-0.1-0.8 0.4-0.6 0.7-0.2 0.9 0.3 1.7 0.7 0 1.5-1 0.9-1.2 0.7-2.8 1-5.7 0.5-5.9 0.1-5-0.6-4.7-1.2-5-2.3-7-0.2-1.3-4.9-5.5 0-1.4 0.3-1.9 0.8-1.6 1-0.7 1.5-0.4 1.6-1 1.6-1.7 1.2-2.3-0.9-1.2-0.8-1.6-0.7-2-0.7-4.3-0.1-0.7 0.4-0.6 0.8-1.6 1.5-1.9 4.7-2.5 11-1.9 3.8 3 2.1 0.4-0.2-3.4 0.6-0.8 0.7-0.5 0.7-0.2 0.8 0.2-0.2 0.8-0.3 2 1.6 0.7 2.8 2.9 1.7 0.4-1-0.9-0.8-1.2-0.5-1.5-0.5-1.9 0.6 0 0-1.3-0.5-0.3-0.7-0.8-0.5-0.4 0-1.2 0.8-1.5 0.9-4.7 0.5-2.1 0.4 0.2 3.8 3.6 0.6 1 0.7 1.4 1.4 3.9 2.8 5.9 0.9 1.5 6.9 8.4 1 2.3 0.1 1.6-1.5 1.3-0.4 0.4-0.2 0.4 0 0.1-0.1 0.2 0 0.3-0.1 0.7 0 0.8 0.1 1.4 0 0.7-0.1 0.5-0.2 0.5-0.4 0.5-0.6 0.3-0.5 0.5-0.4 0.6-0.2 0.8 0.2 0.5 0.3 0.4 1.4 0.8 1 0.9 0.5 1 0.4 1.4 0.2 1.8 0 1.7-0.1 1.4-0.3 1.3-0.6 1.3-2.1 3.6-0.6 0.7-0.6 0.5-0.8 0.3-2.9 0.2-0.5 0.2-0.5 0.5-0.4 0.6-0.4 0.9-0.3 1.1-0.2 1.4-0.1 2 0.2 1.4 0.5 1.2 0.7 0.8 3.1 2.3 4 4.3 1.7 0.6 0.8 0.8 0.8 1.4 1.3 3.4 0.5 1.7 0.2 1.3-0.2 0.7-0.2 0.9-0.1 1.4 0.3 1.2 0.5 1 0.6 0.8 0.7 1.2 0.1 1.1 0.1 1.9-0.2 1.1-0.6 1-3.4 2.8-0.6 0.5-0.3 0.7-0.2 0.9 0 2.5-0.2 0.9-0.4 0.7-0.9 1.3-0.3 0.6-0.1 0.7-0.1 1.6-0.2 0.8-0.4 0.7-0.5 0.6-0.9 0.8-0.3 0.4-0.2 0.6-0.1 1 0.1 0.8 0.2 0.6 0.4 0.8 0.2 0.2 0.3 0.3 0.2 0.1 1.2 0.4 0.6 0.4 0.6 0.7 1.6 2.6 0.3 0.4 0.5 0.2 2.7 0.5 0.7 0.5 1.2 1.3 1.9 1.4 1.2 1.6 1.5 1.6 0.5 0.9 0.1 0.9 0.1 0.7-0.2 0.7-0.2 0.7-0.4 0.8-1.8 2.2-0.2 0.3-0.2 0.6 0 0.6 0 1.7 0 0.6-0.1 0.9-0.3 0.8-0.9 2-0.4 1.3-0.1 1.6 0.5 0.9 0.8 0.7 1.2 0.6 1.3 1 1.1 1.3 0.8 2.1 0.3 1.9 0.2 2.1 0.6 1.5 0.9 1 1.1 0.6 5.6 0.8 0.8 0.5 0.6 1 0.5 2 1 6.8 1.1 3.1 1.4 2.6 3.6 4.2 6.7 4.3 1.2 1.2 1.4 2.2 0.6 2.1 0.8 4.5 0.9 7.6 0.3 9.9 0 5.3-0.2 4.3-0.4 3.7-2 12.8-3.6 15.8z" id="IS5" name="Norðurland vestra">
  </path>
  <path d="M863 149.2l-4 1-2.6 7.6-33.5 4.4-2.1 4.4-3.3 3.7-4.9 3.8-7.3 1.1-1.1 4.7-0.8 1.5-1 1.1-4.4 2.6-1.2 1-1.3 1.6-0.6 1.3-0.3 1.1-0.1 0.9-0.2 1-0.7 0.5-17.1 4.7-0.9 0.6-0.4 1.3-0.2 1.4-0.2 3.1 0.1 1.4 0.1 0.9 0.6 1.6 0.3 1.1 0.1 1.5 0.1 5.2 0.1 2 0.3 1.5 0.3 1.6 0.2 1.6-0.1 1.7-1.9 6.4-0.4 1.8-0.1 1.5-0.1 2.4-0.2 0.9-0.9 0.1-25.6-5.2-1.1 0.2-0.7 0.9-0.5 1.4-0.2 1.2-0.3 3.6-0.2 1.4-0.8 3.2-1.3 3.8-1.1 2.5-1.1 1.5-0.8 0.8-1.5 0.6-1.6 3.2-1.1 1.3-0.4 0.8-0.3 1.1-0.4 2.2 0 1.2 0.1 0.7 0.2 0.6 0.6 1.1 0.4 0.5 6.3 4.4 1.5 2.1 2.3 4.1 0.5 1.4 0.4 2.3-0.1 1.3-0.4 1.6-1 3.2-0.7 1.6-0.9 1.1-4.3 3.2-0.9 0.9-2.4 5.1-2.4 3.5-0.4 1.1-0.5 1.6-0.6 2.8-0.1 1.4 0.2 1 0.1 0.3 0 0.5-0.2 1.3-0.1 1.6 0 1.7 0.2 2.5 0.1 3.4-0.1 0.8-1.1 6.7-0.2 0.8-0.4 1.9 0 0.9 0.1 0.8 0.3 0.5 1.5 1.2 0 1.1-0.7 1.6-2 3.3-1.2 1.4-1 0.8-5.5 1.8-1 0.6-3.5 3.8-4.3 6.3-0.9 0.9-0.6 0.3-1.5 0.3-3.3 0.1-1.5 0.4-4.7 2.4-2.1 0.1-0.5 0.7-0.4 1.1-0.4 2.9-0.2 1.3 0 1.1 0.1 0.7 0.4 1.5 0 0.9-0.2 0.9-0.6 1.2-1.2 1.8-2.2 4.8-0.2 0.7-0.1 0.9 0.2 1.5 1.9 5.4 0.4 1.5 0.2 1.6 0.5 1.6 0.3 1.5 0.2 1.7 0 1.6-0.2 1.8-0.5 2.6-1.7 7.6-2 6.9-15.6 32-46.7-28.1-41.6-24.7-23.5-13.7-8.2-5-7.7-7.2 3.6-15.8 2-12.8 0.4-3.7 0.2-4.3 0-5.3-0.3-9.9-0.9-7.6-0.8-4.5-0.6-2.1-1.4-2.2-1.2-1.2-6.7-4.3-3.6-4.2-1.4-2.6-1.1-3.1-1-6.8-0.5-2-0.6-1-0.8-0.5-5.6-0.8-1.1-0.6-0.9-1-0.6-1.5-0.2-2.1-0.3-1.9-0.8-2.1-1.1-1.3-1.3-1-1.2-0.6-0.8-0.7-0.5-0.9 0.1-1.6 0.4-1.3 0.9-2 0.3-0.8 0.1-0.9 0-0.6 0-1.7 0-0.6 0.2-0.6 0.2-0.3 1.8-2.2 0.4-0.8 0.2-0.7 0.2-0.7-0.1-0.7-0.1-0.9-0.5-0.9-1.5-1.6-1.2-1.6-1.9-1.4-1.2-1.3-0.7-0.5-2.7-0.5-0.5-0.2-0.3-0.4-1.6-2.6-0.6-0.7-0.6-0.4-1.2-0.4-0.2-0.1-0.3-0.3-0.2-0.2-0.4-0.8-0.2-0.6-0.1-0.8 0.1-1 0.2-0.6 0.3-0.4 0.9-0.8 0.5-0.6 0.4-0.7 0.2-0.8 0.1-1.6 0.1-0.7 0.3-0.6 0.9-1.3 0.4-0.7 0.2-0.9 0-2.5 0.2-0.9 0.3-0.7 0.6-0.5 3.4-2.8 0.6-1 0.2-1.1-0.1-1.9-0.1-1.1-0.7-1.2-0.6-0.8-0.5-1-0.3-1.2 0.1-1.4 0.2-0.9 0.2-0.7-0.2-1.3-0.5-1.7-1.3-3.4-0.8-1.4-0.8-0.8-1.7-0.6-4-4.3-3.1-2.3-0.7-0.8-0.5-1.2-0.2-1.4 0.1-2 0.2-1.4 0.3-1.1 0.4-0.9 0.4-0.6 0.5-0.5 0.5-0.2 2.9-0.2 0.8-0.3 0.6-0.5 0.6-0.7 2.1-3.6 0.6-1.3 0.3-1.3 0.1-1.4 0-1.7-0.2-1.8-0.4-1.4-0.5-1-1-0.9-1.4-0.8-0.3-0.4-0.2-0.5 0.2-0.8 0.4-0.6 0.5-0.5 0.6-0.3 0.4-0.5 0.2-0.5 0.1-0.5 0-0.7-0.1-1.4 0-0.8 0.1-0.7 0-0.3 0.1-0.2 0-0.1 0.2-0.4 0.4-0.4 1.5-1.3-0.1-1.6-1-2.3-6.9-8.4-0.9-1.5-2.8-5.9-1.4-3.9-0.7-1.4-0.6-1-3.8-3.6-0.4-0.2 0-0.1 0.8-1.2 2.9-2.6 7.3-2.7 2.6 1.2-0.6 6.6 1.6-0.7 1.1-1.8 1.9-4.3-0.4-2.1-0.2-0.7 1.5-1.2 2.2 0.4 4.1 2-0.6 3.1-1.4 4.4-0.2 3 0.9 0 5.9-6.3 2.4 0.6 2 2.4 1.7 2.7 1.5 1.3 0.8 1.4-1 3.2-2.3 5.2 1 0.1 1.2-0.3 1.1-0.8 0.9-1.1 0.9-0.8 1.1 0.9 1.1 1.3 0.9 0.7 1.3 1.5 0.8 3.6 0.6 4.1 0.9 3.1-1.5 6.1-0.7 3.6 0.3 1.5 5.9 1.6 3.8 2.4 6.1 0.9 0.8 0.7 0.9 1.5 1.4 3.3 1.9 1.6 0.6 2 0.4 2.4 0.8 2.6 0.1 0.9 0.3 0.7 0.6 0.3 1.6-0.3 0.7 0.2 0.6 0.7 0.8 2.5 0.2 1.7-0.2 5.6 0.4 2.3 1.5 3.6 0.4 1.5 0 8.4 0.3 1.3 0.7 0.6 2.4 3.5 3.9 4.1-0.5 2.7 0.5 3.6 0.9 2.8 1.4 0.5 1-2.5 0-3.7-0.7-3.6-0.9-2.4-0.6-0.7-1.7-1.4-0.5-0.7-0.4-2.3 0.3-1.3 0.4-0.9 0.3-1.2-0.1-1.8-0.2-1.4 0-1.5 0.3-2.1 0.4-0.8 1.4-1.3 0.4-0.6 0.5-3.8-0.2-3.2-2.5-9.5-0.1-0.7 0.1-2.8-0.2-0.7-0.5 0-0.6 0.2-0.5-0.1-1.6-3.6-0.6-0.7-0.1-0.2-0.1-0.5-0.2-0.4-0.5-0.2-0.4 0.5-0.7 1.9-0.3 0.4-1.1-0.8-2.5-3.2-0.9-1.5 0.8-2.9-0.3-2.7-1-2-2.4-1.6-1.7-4.2-1-1.9 0-1.4 0.6 0 0-1.6-2.3-5.6-1-9.5 0.5-9.5 2.2-5.9 1.1-0.5 7.4 0.5 1.1 0.7 2 1.7 1.1 0.4 3.5-0.4 1.3 0.4-0.2 0.7 0 0.3 0 0.1-0.4 0.4 3.1 1.8 8.1-2.1 3.5 1.6 0.7 1.5 0.8 4.1 0.8 1.5 0.9 0.4 3.3-0.4 1.4 0.8 2.7 3.8 1.5 0.9 1.1 1 3.3 5.1 1 2.2 1.3 5.9 1 2.7 2.6 2 1.4 2 2.1 4.2 2.8 8.4 1.2 2.6 0.4-3.9-0.7-3-1.1-2.7-0.9-3 1.6 0.1 1.9-0.5 1.9-1 1.4-1.3-7.5 0.4-2-1.7 13.1-0.2 0.9 1 0.6 2.3 1.2 3.7 0.5 0 0.4-1.4 0.1-1.5-0.3-1.4-0.7-1.2 0-1.3 1-0.9 1-1.5 0.5-2.1-0.3-2.7 1.3-1.4 0.5-1 0.5-1.6 0-1.1-0.2-3.2 0.2-2.6 1-2.8 2.1-2.7 2.4-2 2.1-0.8 0.9-1.1 0.4-2.4 0.1-2.4-0.3-1.1-0.9-0.6 0.4-1.5 1.7-2.8 2.2-2.4 5-1.9 0.9-3.6 2.2 2.1 8.3 0.8 2.1 1.5 0.1 0.2 1.6 3.5 3.2 8.8-0.1 1.1 0 0.4 0 0.4 0.1 1-1.1 0 0 1.4 0.9 0.8 1.1 0.5 1-0.2 1-1.1-0.6-0.2-1.2-1.2 2.9-2.3 10.4-2.9 3.1 1-1.4-0.1-1.3 0.5-1.2 0.9-1.2 1.5 1.1 0.7 1.4 2.9 0.6-0.2 1.7-4.1 1-1.6 1-0.5 2.3 2.3 1.7 3.6 1.8 3.1 2.7 0.6 0-1.3-2.6-1.9-1.3-1.4-0.9-1.5-0.7-2.7 0-2-0.3-1.6-1.6-1.5 3.8-2.7 5.6-1.9 3.4-2.2 1.9 0-7.3 4.3-2.3 2.5 7.3-2.9 1.7 0.1 2 1.9 3.2 4.9 2.2 0.3 0-1.5-2.9-3.1-1.5-2.2-0.7-2.3 0.4-3.1 0.8-2.7 1.3-2 1.4-1.3 0.1-1-0.1-0.2 0.2-1 0.8-1.6 0.5-2 0.2-1.9-0.2-3.2-0.5-1.7-0.8-1.4-1.3-3.1-0.4-0.7-0.5-0.4-0.5-0.1-0.5-0.8-0.1-1.7-0.1-1.9-0.1-1.1-2.3-1.9-0.6-1.6 0.6-3.7-0.3 0-0.8 0 0.3-0.6 0.5-1.6 0.3-0.7-0.6-0.6-0.4-0.9-0.7-2.6 1.7 0 0-1.4-1.4-2-1.6-6.6-2.3-2.7 0.7-2.9 1.7-2.5 1.8-0.3 0.5 1.2 0 1.6 0.2 1.3 1 0.2 0.2-0.9 0.3-2 0.6-1.9 1.1-0.9 2.3-1 1.4 0.1 0 1.6-0.4 2.3 0.3 1.9 0.7 1.4 0.8 0.7-0.1-1.1-0.1-0.9-0.1-0.9-0.3-1.2 1.3-0.5 2.5-2.1 0.7-0.3 1.2 1 0.9 1.6 1 1.3 1.5 0.3-1.2 1.3-0.5 0.2 1.4 1.3 1.5-0.3 1.6-0.8 0.5-0.2 0-1.5 1-1.5 0.8-1.9 1-1.3 0.1 0.5 0.6 2.3 0.9 0.4 0.9-1.2 0.7-3.9 0.7-0.9 1.8-1 2.3 0 4.7 2.1 0.9-0.5 3.9-1.7 6.9 7 3.9 1.6-1.1 1.9-1.3 0.8-1 1.3-0.6 3.2 0.9-0.1 0.3 0.1 0 1.3-1.7 1.5 0.4 0.6 0.8 1.6 0.5 0.6-1 1.9 1.1 0.3 3-0.8 3.3 0.8 1.4-0.8-0.1 1-0.2 2.2-0.2 1 7.9 0 1.5 0.6 1.3 1.4 0.8 1.9-0.2 1.9 0 1.2 1.7 5.7-3.5 6.5-1.9 2.6-2.5 2.1 1.1 2.9 1-1.1 1 0.6 1.1 1.2 2.8 1.2 0.2 1.5-0.3 2.2-0.7 2.8 1.3 1.1 6 0.3 2.9-1.4 1 0.3 0.4 0.9 0.8 1.4 0.4 0 0.5-0.4 0.8-0.8 0.2 2.2 0.5 1.8 0.8 1.2 2.3 1.1 2.5 2.8 2.7 2.1 1.6 2.8 1.6 1.8 1.9-1.8-0.6-0.3-0.3-0.4-0.2-0.8 1.4-1.1 1.1-2.2 0.7-3.2 0.2-4-0.3-4.1-0.4-2.9 0.5-2 2.4-1.4 10.2 0 5.8-2.1 0.4-1.6 0.1-1.8 0.5-1.6 5.8-3.9 0.9-2.4 0.6-3.2 1.4-2.5 3.2-3.3 2.2-1.6 7-1.4 2 0.6 3.1 2.7 2 0.9 15.7-2.6-3.9 4.3-14.6 6.8-6.5 5-7.6 1.9-2.6 2.2-2 3.6 2 0.8 1 1 0.4 1.6 0.5 0.4 1.7 3.7 0.4 0.9 0.6 1.1-0.4 2.4-1 3.4-0.7 1.6-7.9 7.6-1.4 0.7-5.1 0.3-2.1 2-1.5 4.5 2.5 2 1.2 0.6 4.9 0.3 1.1 1.6 0.4 3.8-0.8 0.7-1.5 1.5-1 0.7 1.7 1.4 9.3 0.3 5.3 2.5 3.8-0.3 6.7-6.2 4.3-0.6 1.8 1 1.6 1.9 1.2 3.1 0.4 4.6 0.5 2.3 1.2 0.9 1.2 0.2 0.5 0.8 0.2 2.3z m-279.6-118.3l2 2.8 0.7 0.5-0.4 1.9-1.6 1.2-1.4-2.4-0.2-3.4 0.9-0.6z m-30.6 113.1l0.7 1.1 1.2 2.7 0 2.3-1 0.8-1-0.4-0.7-0.7-0.5-1.3-0.2-1.5-0.5-2.5-0.8-2.9 0.5-0.7 1.6 1.8 0.7 1.3z" id="IS6" name="Norðurland eystra">
  </path>
 </g>
 <g id="points">
  <circle class="63.55508656729984|-23.988057018994574" cx="90.9" cy="619.4" id="0">
  </circle>
  <circle class="64.82206249176754|-18.469563364226524" cx="545.5" cy="379.6" id="1">
  </circle>
  <circle class="66.40578239735218|-14.05476844041208" cx="909.1" cy="63.6" id="2">
  </circle>
 </g>
 <g id="label_points">
  <circle class="Austurland" cx="814.5" cy="330.3" id="IS7">
  </circle>
  <circle class="Suðurland" cx="490.4" cy="516" id="IS8">
  </circle>
  <circle class="Suðurnes" cx="232.4" cy="547" id="IS2">
  </circle>
  <circle class="Höfuðborgarsvæði" cx="290.6" cy="493.2" id="IS1">
  </circle>
  <circle class="Vesturland" cx="291.2" cy="361.7" id="IS3">
  </circle>
  <circle class="Vestfirðir" cx="246.1" cy="150.5" id="IS4">
  </circle>
  <circle class="Norðurland vestra" cx="464.6" cy="294.7" id="IS5">
  </circle>
  <circle class="Norðurland eystra" cx="657.9" cy="272.3" id="IS6">
  </circle>
 </g>
</svg>