<?xml version="1.0"?>
    
<!--********* Copyright (c) 2024 Pareto Softare, LLC DBA Simplemaps.com ***************************************
************* Free for Commercial Use, full terms at  https://simplemaps.com/resources/svg-license ************
************* Attribution is appreciated! https://simplemaps.com *******************************************-->

<svg baseprofile="tiny" fill="#6f9c76" height="395" stroke="#ffffff" stroke-linecap="round" stroke-linejoin="round" stroke-width=".5" version="1.2" viewbox="0 0 1000 395" width="1000" xmlns="http://www.w3.org/2000/svg">
 <g id="features">
  <path d="M423.5 39.5l4.3 0.3 10.9 2.7 8.5 5.2 13.2-3.4 21.3 0 21.9 2.5 15.1 3.9 1.9 1.9 1.5 5.5 2 1.8 2.5 0 2.2-1 1.3-1.4-0.3-0.8 18.6 3.2 2.3 1.4 7 6.2 2.2 1.4 13.5 0.5 14.3-2.5 0.4 2 3.5 16.1 0.3 2.2 0.8 3.2 0.9 1.5 2.2 2.1 1.1 1.6 0.7 1.7-0.8 9.8 0.1 1.3 0.9 1.6 5.1 6.2 1.8 2.7 1.3 4.1 0.5 3.7 0.7 2.4 0.5 1.2 2.8 3.7 8 8-25 14.1-8.5 3.3-55.7 7.1-37.6-0.5-20.4-3.8-8-3.2-2.2-0.4-1.7 0-14.1 3.2-1 0.5-2.9 2.3-1.6 0.9-2.9 1.2-2 0.4-1.8 0-10.6-1.8-9.7-3.2 16.5-78.8 0.1-2.2-0.1-2-2.3-2.7-0.5-1.3-0.1-1.6 1.2-2.7 0.3-2.6-0.3-3.1-4.8-12.4-0.3-3.6 0.9-8.7 0.1-0.9z" id="JM06" name="Saint Ann">
  </path>
  <path d="M423.5 39.5l-0.1 0.9-0.9 8.7 0.3 3.6 4.8 12.4 0.3 3.1-0.3 2.6-1.2 2.7 0.1 1.6 0.5 1.3 2.3 2.7 0.1 2-0.1 2.2-16.5 78.8-18.6-13-6-2.6-1.3 0-15.9-2.3-2.4-0.1-2.3 0.6-3 1.4-4.6 2.9-2.6 0.9-5.3 1.4-58.7-6 18.9-118.5 0.2-0.8 29.5 6.5 40.4 0.8 17.9 4.4 24.5 1.8z" id="JM07" name="Trelawny">
  </path>
  <path d="M311.2 26l-0.2 0.8-18.9 118.5-47.6 17 4-11.5 0.1-4.2-3.3-10.6-1.2-2.2-0.6-0.8-0.8-0.8-0.8-0.7-1.1-0.5-2.4-2.9-4.5-9.8-5.3-10.7-1-1.4-2.1-1.9-5.8-3.1-1.5-1.1-0.9-0.9-2-4.7-4.7-8.7-1.2-2.7-0.6-3.2-1-2.1-0.7-1.2-6.8-5.6-1.4-1.8-0.8-1.5 2.8-9.9 0.2-1.3 0-4.2 3.3 1.2 4.6 1.2 4.7-0.8 4.2-3 0.4-2.8-0.1-3.4 2.6-4.5 9.4-12.1 4.3-4 7.3-3.4 16.8-2.7 19.1 0.7 33.5 7.3z" id="JM08" name="Saint James">
  </path>
  <path d="M201.1 52.3l0 4.2-0.2 1.3-2.8 9.9 0.8 1.5 1.4 1.8 6.8 5.6 0.7 1.2 1 2.1 0.6 3.2 1.2 2.7 4.7 8.7 2 4.7 0.9 0.9 1.5 1.1 5.8 3.1 2.1 1.9 1 1.4 5.3 10.7-34.9-2.1-9.1-1.6-22.8-13.3-3.7-1.1-3.8-0.5-51.7 0.2-2.3 0.7-15.6 18.4-2.1 1.6-2.1 0.5-2.2 0-22.5-3.3-3.7-0.3 0.6-3.2-0.6-13.2 0.8-3.8 3.2-5.2 0.4-3.3 1.4-1.7 6.5-0.5 4-2.7 3.3-5.1 4.3-3.5 7 2.3 4.3-12.4 12.7-11.8 14.9-4.9 10.6 8.2 6.2-7.3 6.6-0.2 7.7 2.9 9.5 1.8 26.9-3.3 9 0.1 4.4 1.6z" id="JM09" name="Hanover">
  </path>
  <path d="M233.9 118.3l4.5 9.8 2.4 2.9 1.1 0.5 0.8 0.7 0.8 0.8 0.6 0.8 1.2 2.2 3.3 10.6-0.1 4.2-4 11.5-6.3 3.2-1.4 1.1-1.9 1.9-4.5 7.3-2.7 5.6-0.7 2.7-0.1 1.3 0.1 1.2 0.6 2.3 0.4 1-1 6.5-8.2 23.7-2.9 5.6-6.4-14.8-3.2-4.7-3.6-2.5-4.2-2.1-3.3-0.9-2.5-2.3-2-5.3-2.6-10.3-7.8-15.9-10.3-5.8-30.6 0.7-18.7-3.1-6.9-0.1-3.9 3.6-3.2 1.8-2.8-0.6-10.2-4.2-1-0.6-5.9-1-12.8-4.1-7.1-0.9-7.3-1.8-7.1-4.7-5.2-6.8-1.8-7.6 2.3-3.7 6.1-4.3 2.9-3.7 0.6-2.5 3.7 0.3 22.5 3.3 2.2 0 2.1-0.5 2.1-1.6 15.6-18.4 2.3-0.7 51.7-0.2 3.8 0.5 3.7 1.1 22.8 13.3 9.1 1.6 34.9 2.1z" id="JM10" name="Westmoreland">
  </path>
  <path d="M292.1 145.3l58.7 6 2.1 39.2 28.3 117.8 1 2-9.9-1.7-56.3 3.2-2.8-0.5-8.7-5.9-14.6-7.3-3.7-2.8-1.8-3.4-4.3-11.2-0.9-3.5-1.6-2.8-7.4-2.6-2.3-1.9-0.6-9.2 0.7-11-2.6-9.3-10.6-3.9-28.8-0.2-6.6-2.5-3.5-8.1 2.9-5.6 8.2-23.7 1-6.5-0.4-1-0.6-2.3-0.1-1.2 0.1-1.3 0.7-2.7 2.7-5.6 4.5-7.3 1.9-1.9 1.4-1.1 6.3-3.2 47.6-17z" id="JM11" name="Saint Elizabeth">
  </path>
  <path d="M350.8 151.3l5.3-1.4 2.6-0.9 4.6-2.9 3-1.4 2.3-0.6 2.4 0.1 15.9 2.3 1.3 0 6 2.6 18.6 13 1 6.5 45.2 92.9-0.6 2.5-1.1 3.4-0.2 2.1 0.2 3 1 5.9 0.7 2.7 0.7 1.8 1.9 2.6 4.8 4.1 0.9 1.6 0.4 1.4-0.2 1.4-2.4 8.1-0.9 5.4-0.4 1.1-0.7 0.8-0.9 0.6-1.1 0.3-1.3 0-3.6-0.4-1.3 0.4-0.8 0.5-1.2 1.1-0.4-0.2-9.2-3.4-9.7-1.3-7.7 3.2-8.8 5.9-8.8 0.8-18.1-5.2-8-1.4-1-2-28.3-117.8-2.1-39.2z" id="JM12" name="Manchester">
  </path>
  <path d="M412.8 162.1l9.7 3.2 10.6 1.8 1.8 0 2-0.4 2.9-1.2 1.6-0.9 2.9-2.3 1-0.5 14.1-3.2 1.7 0 2.2 0.4 8 3.2 20.4 3.8 37.6 0.5 11.8 30 1.6 7.7-1.5 3.1-1.2 4.1-1 6.4 0.2 2.1 0.3 1.6 1.7 2.6 0.7 0.8 2.3 3.6 2.3 4.3 1 2.9 0.6 2.2 0.1 15.2 0.3 3.4 0.5 2.5 0.5 1.2 0.5 1 8.1 10.8 0.7 1.9 0.4 1.8-0.2 1.5 2 20.9-2.9 1.7-6.9 13.7-1.6 3.9 3.2 12.1-3.1 1.2-5.2 3.3-3.1 1.2 1.1 2.3 0.7 4.5 1 2.7-4.4-2-4.5-0.2-4.3 1.5-4 3.4 7.3 4.5 7.7 1.7 8.1-0.7 8.3-2.5 4.3 16.4-1.3 7.5-10.2 3.2-8.6-0.4-7.8-1.8-7.7-3.7-36.1-32.4-7.4-9.4-30.7-17.9 1.2-1.1 0.8-0.5 1.3-0.4 3.6 0.4 1.3 0 1.1-0.3 0.9-0.6 0.7-0.8 0.4-1.1 0.9-5.4 2.4-8.1 0.2-1.4-0.4-1.4-0.9-1.6-4.8-4.1-1.9-2.6-0.7-1.8-0.7-2.7-1-5.9-0.2-3 0.2-2.1 1.1-3.4 0.6-2.5-45.2-92.9-1-6.5z" id="JM13" name="Clarendon">
  </path>
  <path d="M529.3 166.5l55.7-7.1 8.5-3.3 25-14.1 6.3-1.9 1.2-0.3 1.3 0 8 0.8 1.3 1 1.3 1.6 2.5 6 1.4 2 3.3 2.4 1.8 1.9 1.6 3.4 0.8 3.5 0.6 3.8 0.9 1.8 4.8 6.7 4.4 4.3 9.8 4-0.9 11.5 0.2 1.7 0.6 2.7 2.8 5.7 0.4 2.2-0.1 1.7-1.4 3.1-0.6 1-0.6 0.8-0.8 0.7-0.9 0.7-1.2 2.3-1.5 3.6-2.4 8.9-0.6 3.8 0 2.4 3 2.7 0.4 0.5 0.4 0.7 0.8 2 0.6 0.9 0.7 0.7 1 0.4 1.2 0 1-0.3 2.1-0.9 1.1-0.3 2.9 4 1.3 5-1.3 4.5-1.9 4.7-5.2 5.8-1.6 3.4-5.4-0.7-1.6 3.2-1.7 10-7.4 26.4-5.5 7.8-6.7 4.3-5.5 0-3.6-1.6-3.3-2.3-4.6-1.8-23 0 0-3.2 8.8-3-4.5-4-5.6-7.5-4.4-3.4-5-2-12-1.3-10.9 3.8-6.4 3.8-2-20.9 0.2-1.5-0.4-1.8-0.7-1.9-8.1-10.8-0.5-1-0.5-1.2-0.5-2.5-0.3-3.4-0.1-15.2-0.6-2.2-1-2.9-2.3-4.3-2.3-3.6-0.7-0.8-1.7-2.6-0.3-1.6-0.2-2.1 1-6.4 1.2-4.1 1.5-3.1-1.6-7.7-11.8-30z" id="JM14" name="Saint Catherine">
  </path>
  <path d="M679.3 251.2l-1.3-5-2.9-4-1.1 0.3-2.1 0.9-1 0.3-1.2 0-1-0.4-0.7-0.7-0.6-0.9-0.8-2-0.4-0.7-0.4-0.5-3-2.7 0-2.4 0.6-3.8 2.4-8.9 1.5-3.6 1.2-2.3 0.9-0.7 0.8-0.7 0.6-0.8 0.6-1 1.4-3.1 0.1-1.7-0.4-2.2-2.8-5.7-0.6-2.7-0.2-1.7 0.9-11.5 5.7-2.3 0.9-0.8 1-1.2 0.5-1.1 0.5-1 1.6-0.8 2.6-0.4 5.3 0 2.3-0.5 7 1.3 23.1 11 2.6 8.9 0.1 1.1 3.8 11 0.5 0.9 1.2 1.7 1.6 1 2.7 0.8 5.4 1.1 4.1-0.7 2-0.9 0.9-1.3 0.9-2.1 0.6-1 0.8-0.7 5.4 0.9 18.8 7.8-3.8 3.5-0.7 2.8-0.6 3.5-0.1 6.6 0.5 2.7 1 2.5 1.1 1.9 2.3 8.2 0.7 1.5 3.1 4.2 1.3 2.5 0 1.5-0.7 0.8-1.1 0.3-4.1-0.4-1.7 0.4-1.6 0.7-1.9 2.8-0.4 2.5 0.2 4.1-0.2 1.9-0.4 1.4-2.6 3-2.5 4-11.5-2.8-3.1-1.7-6.4-2.6-8.6 0.5-15.1 3.6-6.4 0.8-21.7-0.8 0-3 45.7-2.7-1.9-1.8 2.3-1.3-0.4-5.7-3.5-8.1-4.1-2.2-6.2-1.5-10.7 0.6-3.5 0.9-4.2 1.7-3.2 2.1-0.7 1.6-1.4 4.1-2.7-1.6-7.4-4.9-5.5-2.6z" id="JM02" name="Saint Andrew">
  </path>
  <path d="M694.9 260.3l1.4-4.1 0.7-1.6 3.2-2.1 4.2-1.7 3.5-0.9 10.7-0.6 6.2 1.5 4.1 2.2 3.5 8.1 0.4 5.7-2.3 1.3-1-1-2.1-2-5.5-1.3-12.5-0.1-8.5 0.1-6-3.5z" id="JM01" name="Kingston">
  </path>
  <path d="M759.5 278.6l2.5-4 2.6-3 0.4-1.4 0.2-1.9-0.2-4.1 0.4-2.5 1.9-2.8 1.6-0.7 1.7-0.4 4.1 0.4 1.1-0.3 0.7-0.8 0-1.5-1.3-2.5-3.1-4.2-0.7-1.5-2.3-8.2-1.1-1.9-1-2.5-0.5-2.7 0.1-6.6 0.6-3.5 0.7-2.8 3.8-3.5 7.8 5.3 3.2 4.3 0.7 0.8 0.9 0.8 2.7 1.8 3.2 1.5 19.7 6.3 2.9 1.7 1.6 0.1 1.9-0.2 3.4-1.2 1.6-1.1 1.8-1.8 0.9-0.6 0.9-0.5 1.7-0.2 5.9-0.1 2.1-0.3 1.5-0.4 2.8-1.5 2.1-0.9 1.7 0.1 2 0.5 9.1 5.3 13.6 2.2 12.3 3.6 2.3 1 0.7 0.6 0.7 0.8 2.8 4 1.1 1.2 1.6 1.4 5.7 1.4 15.1 2.1 4.4-0.6 11.6-3.6 0.2 0 3.4 8 6.1 10.5 7.8 8.3 11.3 8.5-4.3 3.5-21.5 5.5-15.1 8.3-8.7 2.5-7.4-1.9 2.9-2.1 1.2-1.5 1.6-5.3-7.5 2.7-6.7 10-7.2 2.2-6.5-1.9-7.5-3.4-7.6-2-12.5 4.7-32.7 2.8-23-3.5-3.4 0.1-3.1 0.6-3.4-0.4-4.3-3-1.9-3.9-0.8-5.1-1.3-4.3-3.2-1.9-3.4-1-2.2-2.5-1.9-2.9-2.6-2.3-1-0.2z" id="JM03" name="Saint Thomas">
  </path>
  <path d="M771.7 215.7l-18.8-7.8-5.4-0.9-0.8 0.7-0.6 1-0.9 2.1-0.9 1.3-2 0.9-4.1 0.7-5.4-1.1-2.7-0.8-1.6-1-1.2-1.7-0.5-0.9-3.8-11-0.1-1.1-2.6-8.9 19.5-54.6 1.3-1.5 2.4 0.6 6.1 3.2 7.9 8.1 6.1 3.9 7 2.2 13.8-0.9 7.3 5.2 2.3 0.6 2.1 2 2.5 1.8 3.4 0.8 31.3 0 2.1 1.3 3.3 6.3 1.5 1.9 30.6 5.8 15.9 5.7 2 9.1 11.8 11.4 9.2 13.1 13.3 29.3 2.9 7-0.2 0-11.6 3.6-4.4 0.6-15.1-2.1-5.7-1.4-1.6-1.4-1.1-1.2-2.8-4-0.7-0.8-0.7-0.6-2.3-1-12.3-3.6-13.6-2.2-9.1-5.3-2-0.5-1.7-0.1-2.1 0.9-2.8 1.5-1.5 0.4-2.1 0.3-5.9 0.1-1.7 0.2-0.9 0.5-0.9 0.6-1.8 1.8-1.6 1.1-3.4 1.2-1.9 0.2-1.6-0.1-2.9-1.7-19.7-6.3-3.2-1.5-2.7-1.8-0.9-0.8-0.7-0.8-3.2-4.3-7.8-5.3z" id="JM04" name="Portland">
  </path>
  <path d="M618.5 142l-8-8-2.8-3.7-0.5-1.2-0.7-2.4-0.5-3.7-1.3-4.1-1.8-2.7-5.1-6.2-0.9-1.6-0.1-1.3 0.8-9.8-0.7-1.7-1.1-1.6-2.2-2.1-0.9-1.5-0.8-3.2-0.3-2.2-3.5-16.1-0.4-2 7.6-1.3 5 1.3 8.7 4.1 4.9 0.9 24.6-1.1 4.8-2.5 6.8-0.8 5.5 0.4 5 0.9 3 3.8-1.3 4.6 0 5.9 4.6 4.3 14.8 9.3 13.1 7.6 2.1 4.3 3.9 11.5 2.5 3.8 3.9 2.4 7.6 2.1 21.5 1.7 4.8 1-1.3 1.5-19.5 54.6-23.1-11-7-1.3-2.3 0.5-5.3 0-2.6 0.4-1.6 0.8-0.5 1-0.5 1.1-1 1.2-0.9 0.8-5.7 2.3-9.8-4-4.4-4.3-4.8-6.7-0.9-1.8-0.6-3.8-0.8-3.5-1.6-3.4-1.8-1.9-3.3-2.4-1.4-2-2.5-6-1.3-1.6-1.3-1-8-0.8-1.3 0-1.2 0.3-6.3 1.9z" id="JM05" name="Saint Mary">
  </path>
 </g>
 <g id="points">
  <circle class="17.74428735352376|-78.26532954805154" cx="90.9" cy="359.6" id="0">
  </circle>
  <circle class="18.07304716662594|-77.17198646139829" cx="545.5" cy="215.9" id="1">
  </circle>
  <circle class="18.483996933003667|-76.29731199207569" cx="909.1" cy="36" id="2">
  </circle>
 </g>
 <g id="label_points">
  <circle class="Saint Ann" cx="487.8" cy="105.1" id="JM06">
  </circle>
  <circle class="Trelawny" cx="361.9" cy="90" id="JM07">
  </circle>
  <circle class="Saint James" cx="259.7" cy="77.3" id="JM08">
  </circle>
  <circle class="Hanover" cx="150.1" cy="75.7" id="JM09">
  </circle>
  <circle class="Westmoreland" cx="153.1" cy="130.6" id="JM10">
  </circle>
  <circle class="Saint Elizabeth" cx="311.6" cy="223.8" id="JM11">
  </circle>
  <circle class="Manchester" cx="403.6" cy="235.6" id="JM12">
  </circle>
  <circle class="Clarendon" cx="500.3" cy="246.1" id="JM13">
  </circle>
  <circle class="Saint Catherine" cx="606.6" cy="227.3" id="JM14">
  </circle>
  <circle class="Saint Andrew" cx="701.3" cy="220.6" id="JM02">
  </circle>
  <circle class="Kingston" cx="714.7" cy="256.6" id="JM01">
  </circle>
  <circle class="Saint Thomas" cx="837" cy="269.2" id="JM03">
  </circle>
  <circle class="Portland" cx="815.2" cy="198.4" id="JM04">
  </circle>
  <circle class="Saint Mary" cx="667.2" cy="127.4" id="JM05">
  </circle>
 </g>
</svg>