<?xml version="1.0"?>
    
<!--********* Copyright (c) 2024 Pareto Softare, LLC DBA Simplemaps.com ***************************************
************* Free for Commercial Use, full terms at  https://simplemaps.com/resources/svg-license ************
************* Attribution is appreciated! https://simplemaps.com *******************************************-->

<svg baseprofile="tiny" fill="#6f9c76" height="791" stroke="#ffffff" stroke-linecap="round" stroke-linejoin="round" stroke-width=".5" version="1.2" viewbox="0 0 1000 791" width="1000" xmlns="http://www.w3.org/2000/svg">
 <g id="features">
  <path d="M443.1 704.3l5.7 2.5 36.7 24.4 7.9 12.2-2.4 5.7-10.5 1.5-16.3 0-46.9-9.6-48.4-1.3-11.2-4-3-5.3 0.7-12.2-2-6.6-6-5.7-6.3-2.8-5-3.7-2-9.4-0.8-25.5 4.1-10.5 11.3 4 9.8 5.3 29 5.6 13.1 4 36 24 6.5 7.4z" id="KMM" name="Moûhîlî">
  </path>
  <path d="M954.5 651.1l-0.3 86.2-3.9 12.8-7.9 5.3-6.1-2.5-7.1-6-5.7-7.3-2.4-6.1-1.3-8.8-3.8-5-50.9-35.3-5.7-9.1-4.2-10.8-10.5-5.3-27.3-5.6-42.9-22.1-5.8-4.7-27.8-16.6-9.3-10.1 11.1-0.4 9.3 2.3 17.7 7.7 12.1 3.1 22.3 3.3 8.1 3.3 3.7-3 6.9-3.6 3.6-3.1 20.7 4.3 18.3-16.8 10.5-26.3-2.4-23.9 6.8-2 9.5-5.6 7.4-2 3.4-1.5 3-2.3 3.3-1.7 4.8 0.2 4 2.9 5.4 9.8 2.4 2.2 29.2 94.2 1.8 9.9z" id="KMA" name="Andjouân">
  </path>
  <path d="M220.5 360.7l1.7 7.1 4.4 8 16.1 21.6-0.3 5.9-7.8 12.6-2.3 7.1-0.7 5.1-1.8 4-5.1 3.6-6.6 2.1-9.4 1.4-8.2-0.9-3.6-5.3-4.5-8.9-38.7-35.9-10.2-4.3-29.6-1.7-7.3-1.8-7.9-4.4-13.3-10.7-5.6-7.2-2-6.2-0.9-6.2-3.1-6.9-17.6-17.2-7.6-11.3-3.1-17.3 1.9-6.9 4.5-8.5 14.9-21.9 0.2-7.5-2-7.6-0.7-8.2 9.6-124.7-1.5-8.2-3.7-7.6 6.7-12.2 6.6-17.3 7.2-13.5 8.1-0.3 29.4-10 17.2-2.6 12.7 5.1 8.2 10.9 6.1 11.4 3.2 12.8-15.4 131.7 6.2 28.5 30.7 44.2 11.1 28.9 0.3 7.2-1 14.9 0.7 7.2 3.2 5.2 4.5 4.5 4.2 5.1 1.9 7.1z" id="KMG" name="Andjazîdja">
  </path>
 </g>
 <g id="points">
  <circle class="-12.32935149346683|43.27901858963252" cx="90.9" cy="719.4" id="0">
  </circle>
  <circle class="-11.921734322204427|43.93693688178797" cx="545.5" cy="431.3" id="1">
  </circle>
  <circle class="-11.412212858126425|44.46327151551233" cx="909.1" cy="71.9" id="2">
  </circle>
 </g>
 <g id="label_points">
  <circle class="Moûhîlî" cx="386.8" cy="704.4" id="KMM">
  </circle>
  <circle class="Andjouân" cx="897" cy="637.5" id="KMA">
  </circle>
  <circle class="Andjazîdja" cx="117.9" cy="294.4" id="KMG">
  </circle>
 </g>
</svg>