<?xml version="1.0"?>
    
<!--********* Copyright (c) 2024 Pareto Softare, LLC DBA Simplemaps.com ***************************************
************* Free for Commercial Use, full terms at  https://simplemaps.com/resources/svg-license ************
************* Attribution is appreciated! https://simplemaps.com *******************************************-->

<svg baseprofile="tiny" fill="#6f9c76" height="1000" stroke="#ffffff" stroke-linecap="round" stroke-linejoin="round" stroke-width=".5" version="1.2" viewbox="0 0 1000 1000" width="1000" xmlns="http://www.w3.org/2000/svg">
 <g id="features">
  <path d="M713 874.5l-13.2-35.7 81.4 6.8 50-20.6-37.5 37.4-44.6 9.3-36.1 2.8z" id="KN10" name="Saint Paul Charlestown">
  </path>
  <path d="M713 874.5l36.1-2.8 44.6-9.3 37.5-37.4 35.5 129.5-127.8-10.4-25.9-69.6z" id="KN07" name="Saint John Figtree">
  </path>
  <path d="M866.7 954.5l-35.5-129.5 44.7-13.1 37.5 13.1 32.6 20.5 0.5 25-4.6 25.1-14.1 34.9-11.1 12.2-50 11.8z" id="KN04" name="Saint George Gingerland">
  </path>
  <path d="M946 845.5l-32.6-20.5-37.5-13.1-44.7 13.1-46.4-91.6-47-34.1 36.7-39.9 57.2 1.2 49.8 16.8 38.2 37.3 22.2 62.9 3.2 26.1 0.9 41.8z" id="KN05" name="Saint James Windward">
  </path>
  <path d="M831.2 825l-50 20.6-81.4-6.8 21.2-121.3 16.8-18.2 47 34.1 46.4 91.6z" id="KN12" name="Saint Thomas Lowland">
  </path>
  <path d="M65.8 147.6l9.6-41.2 10.7-9.9 7.4-5.3 8.2-3.1 13-3.2 33.6-14.4 11.9-8.5 10.2 24.1 0 28.1 1.7 33.7 9 16.8 17.8 5.7 1.8 16.8-78.6-16.8 3.6-20.6-16.1-7.5-10.7 15-33.1-9.7z" id="KN09" name="Saint Paul Capesterre">
  </path>
  <path d="M65.8 147.6l33.1 9.7 10.7-15 16.1 7.5-3.6 20.6 78.6 16.8-19.6 39.3-12.5 0-14.3 33.7-19.6 32.5-81.2-92.7 12.3-52.4z" id="KN02" name="Saint Anne Sandy Point">
  </path>
  <path d="M134.7 292.7l19.6-32.5 14.3-33.7 12.5 0 19.6-39.3 55.4 48.7 19.6 22.4 3.6 18.7 67.9 13.1-10.7 39.3-21.5 11.2-8.9 24.4-6.3 20.3-47.1-19.2-118-73.4z" id="KN13" name="Saint Thomas Middle Island">
  </path>
  <path d="M299.8 385.3l6.3-20.3 8.9-24.4 21.5-11.2 10.7-39.3 25 0 19.6 1.9 10.8 33.7 14.2 28-7.1 9.4 21.8 40.5-55.7 3.1-35.6-4.9-40.4-16.5z" id="KN14" name="Trinity Palmetto Point">
  </path>
  <path d="M431.5 403.6l-21.8-40.5 7.1-9.4-14.2-28 17.8-5.6 12.5 20.5 37.5 7.5 28.6 15 25 20.6 24.9-2.3 8.3 20.6 31.1 54 45.1 22.8 37.6 21.3 33 47.2 0.2 47.7-61.4 23.4-34.9-24-29.6-108.6-54.5-34-36-40.8-25.3-9.2-31 1.8z" id="KN03" name="Saint George Basseterre">
  </path>
  <path d="M402.6 325.7l-10.8-33.7 17.9-24.3 26.8 3.7 28.6 0 22.1-11.8 22.3 24.2 39.4 97.6-24.9 2.3-25-20.6-28.6-15-37.5-7.5-12.5-20.5-17.8 5.6z" id="KN11" name="Saint Peter Basseterre">
  </path>
  <path d="M391.8 292l-19.6-1.9-1.8-37.4 12.5-29.9 10.7-18.8 19.4-10.7 29.1 17.5 45.1 48.8-22.1 11.8-28.6 0-26.8-3.7-17.9 24.3z" id="KN08" name="Saint Mary Cayon">
  </path>
  <path d="M347.2 290.1l-67.9-13.1-3.6-18.7-19.6-22.4 33.9-50.6-3.5-20.6 19.4-36 107.1 64.6-19.4 10.7-10.7 18.8-12.5 29.9 1.8 37.4-25 0z" id="KN01" name="Christ Church Nichola Town">
  </path>
  <path d="M200.7 187.2l-1.8-16.8-17.8-5.7-9-16.8-1.7-33.7 0-28.1-10.2-24.1 7.6-16.5 138.1 83.2-19.4 36 3.5 20.6-33.9 50.6-55.4-48.7z" id="KN06" name="Saint John Capesterre">
  </path>
 </g>
 <g id="points">
  <circle class="17.11629663774549|-62.84485836743381" cx="98.2" cy="909.1" id="0">
  </circle>
  <circle class="17.242419701949597|-62.68270829825264" cx="544.6" cy="545.6" id="1">
  </circle>
  <circle class="17.400073532204733|-62.55298824290771" cx="901.8" cy="90.9" id="2">
  </circle>
 </g>
 <g id="label_points">
  <circle class="Saint Paul Charlestown" cx="747.8" cy="857.3" id="KN10">
  </circle>
  <circle class="Saint John Figtree" cx="794.1" cy="905.3" id="KN07">
  </circle>
  <circle class="Saint George Gingerland" cx="895.7" cy="876.4" id="KN04">
  </circle>
  <circle class="Saint James Windward" cx="860.9" cy="743.4" id="KN05">
  </circle>
  <circle class="Saint Thomas Lowland" cx="758.2" cy="786.7" id="KN12">
  </circle>
  <circle class="Saint Paul Capesterre" cx="137.1" cy="114.8" id="KN09">
  </circle>
  <circle class="Saint Anne Sandy Point" cx="122.1" cy="213.2" id="KN02">
  </circle>
  <circle class="Saint Thomas Middle Island" cx="228.4" cy="286.3" id="KN13">
  </circle>
  <circle class="Trinity Palmetto Point" cx="367.3" cy="359.7" id="KN14">
  </circle>
  <circle class="Saint George Basseterre" cx="641.3" cy="543.1" id="KN03">
  </circle>
  <circle class="Saint Peter Basseterre" cx="478.2" cy="308.3" id="KN11">
  </circle>
  <circle class="Saint Mary Cayon" cx="414.8" cy="234.1" id="KN08">
  </circle>
  <circle class="Christ Church Nichola Town" cx="330.1" cy="218.8" id="KN01">
  </circle>
  <circle class="Saint John Capesterre" cx="240.6" cy="145.4" id="KN06">
  </circle>
 </g>
</svg>