<?xml version="1.0"?>
    
<!--********* Copyright (c) 2024 Pareto Softare, LLC DBA Simplemaps.com ***************************************
************* Free for Commercial Use, full terms at  https://simplemaps.com/resources/svg-license ************
************* Attribution is appreciated! https://simplemaps.com *******************************************-->

<svg baseprofile="tiny" fill="#6f9c76" height="944" stroke="#ffffff" stroke-linecap="round" stroke-linejoin="round" stroke-width=".5" version="1.2" viewbox="0 0 1000 944" width="1000" xmlns="http://www.w3.org/2000/svg">
 <g id="features">
  <path d="M482.6 659.8l-5.8-10-0.1 0-0.2-0.1-0.1 0-26.7-3.5-47.6-6.3-47.6-6.3-47.7-6.3-47.6-6.3-53.5-6.7-53.4-6.6-53.4-6.6-53.4-6.6 13.8-15.6 72-80.7 29.9-50.5 30.7-33.8 7.1-10.7 14.2-37.4 35.8-59.3 9.3-20.7 1.2-5.5 1.8-16.7 2.5-7.9 17.5-32.8 40.7-104.1 16.3-23.4 25.1-17.1 77.1-32 27.5-3.4 123.6 0 27.4 5.4 103.6 52.2 3.4 9.3 5 8.4 4.7 10.7 2.1 11.7-0.1 20.5 1.5 13 6.2 18.2 12.5 26.4 14.7 20.3 12.6-0.5 8.3 24.6 11 24.6 20.2 29.1 9.4 21.7-2 11.2-10.7 1.5-19.6-8.5-10-6.2-3.2-5-9.3-1.4-11.7-2.5-8.7-1.5-27.9 4.7-14.1 12.2-12.1 12.2-29.4 16.4-20.2 18.9-10.6 16.8-10.1 13.2-21.7 10.3-2 8.7-4.5 8.1 10.6 0.9 17.8-3.1 13.2-2.6 10.6-4.2 11.2-4.1 6.6 4-13.6 9.2 0 6.6-3 7.6 11.7 8 8.1 0 0.3-0.1 0.5 1.8 2.6 5.5-9.1 1.3-2 22.6-27.6 34.3-4.9 73.7-1.8 7.3-11.1 3.8-107 15.3-23.4 16.3-13.4 8.1z m433.6-402.5l-9 16.8-14.7 18.7-17.6 16.1-17.8 8.9-3.2-0.4-17.5-1.9-11.6-14.1-16.7-40-19.9-36.1-2.8-3.3-2.6-3.2-9.6-5.7-3.6-5.8 9.1-6.5 5.6-2.9 10.3-7.3 5.3-1.4 1.8-3.2 2.8-19-7.6-3.1-4-0.6-4.6 0.2-0.1 0 4.8-8.2 6.8 0.6 11.6 7.6 5.4 0.9 6.6-0.5 3.8-3.7-2.8-8.6 8.7-3.9 7.1-4.4 1.8-4.9-7.7-5.3 0-0.1-5.5-0.7-6.3 2.9-4.6-2.2-2.1-3.6-1.1-5.8-0.5-5.9 0.5-3.8 0-0.1-8.5 0.2-1.1-1-1.8-1.5 2-4 6.1-4.6 6.9-2.9 6.8-0.4 6.5 2.1 6.2 4.6 74.5 106.5 7.2 19.9-3.3 24.6z m-131-162.3l-3 2.9-4.7 6.2-2.1 2.2-13 6.9-3.6 0.6-3.5-2.1-2.6-3.7-0.7-3.5 6.6-4.6 9.8-13.2 5.3-3 18.7-2.7 7.4 0.7-1.5 5.8-13.1 7.5z" id="KWJA" name="Al Jahrah">
  </path>
  <path d="M482.6 659.8l13.4-8.1 23.4-16.3 107-15.3 11.1-3.8 1.8-7.3 4.9-73.7 27.6-34.3 9.4 9.4 7 11.9 0.6 23.3 75.2-13 30.1-2.1 4.2-0.6 4.1 11.2 6.6 10.6 2.5 11.1 11.8 74.6 8.4 18.3 23.9 35.8 7.2 6.9 18.4 6.2 1.4 8.2-2 10.8-0.6 10.9 3.9 10.8 13.1 18.5 2.8 6.6 5 7.6 11.2 4.8 19.8 4.2-4.7 8.4-2 9.7 0.5 9.9 2.9 9.3-7.2-5.1-2.6-2.3-0.6 4.3 0.5 2.7 2.1 2.1 4.5 2.3-3.5 4.7-2.3 1.3-1.9-0.8-2-1.8-3.3 0-0.4 11.4 4.4 2.7 6.6-3.3 5.7-6.7 1.3 5.6 2 26.2 1.7 6.7 3.9 7.3 7.5 10 5.5 5.9 0.1 0.1-84.9 0.9-85.1 0.9-85 0.9-85.1 0.9-25.7 0.2-3.9-14.4-9-9.4-11-7.7-10.2-9.5-7.2-12.3-6.5-16.1-4.6-16.6-1.9-29.4-2.2-13.8-26.5-72.9-23.1-39.5z" id="KWAH" name="Al Ahmadi">
  </path>
  <path d="M798.3 529.9l-4.2 0.6-30.1 2.1-5.1-30.5-7.2-17 19.7 0 21-8.3-0.4 2.6-0.4 10.1 1.5 16.2 5.2 24.2z" id="KWMU" name="Mubarak Al-Kabeer">
  </path>
  <path d="M792.4 476.8l-21 8.3-19.7 0-8.1-19.2-5.8-11.5 13.7-9.8 1 1.4 7.1 6.4 4.9 1.7 13.3 4.6 17.7-3.6-3.1 21.7z" id="KWHA" name="Hawalli">
  </path>
  <path d="M682.9 477.1l-2.6-5.5-0.5-1.8 8.8-3 10.7-3.6 2.9-13.2 7.1-3.1 9.2 3 9.6-7.1 5-8.1 7.6-3.6 3.5 3.2 7.3 10.3-13.7 9.8 5.8 11.5-39.6 5.2-21.1 6z m226.4-83.9l7.5 2.9 3.7 3.2 5.6 4.7 3.7 5 3.8 5 5 14.9-1 5.6-7.1-2.5-4.5-1-4.6-3-13.2-11.7-9.1-3.5-12.7-2-10.1 0.5 0.4-14.3 0-0.1 5.3-8.3 8.3-1.1 19 5.7z" id="KWKU" name="Al Asimah">
  </path>
  <path d="M671.8 501l2-22.6 9.1-1.3 21.1-6 39.6-5.2 8.1 19.2 7.2 17 5.1 30.5-75.2 13-0.6-23.3-7-11.9-9.4-9.4z" id="KWFA" name="Al Farwaniyah">
  </path>
 </g>
 <g id="points">
  <circle class="28.611740553418024|46.627453016613764" cx="90.9" cy="858.8" id="0">
  </circle>
  <circle class="29.237624799911778|47.57762576218271" cx="545.5" cy="516.7" id="1">
  </circle>
  <circle class="30.01998010802897|48.33776395863787" cx="909.1" cy="86.2" id="2">
  </circle>
 </g>
 <g id="label_points">
  <circle class="Al Jahrah" cx="453.7" cy="325.9" id="KWJA">
  </circle>
  <circle class="Al Ahmadi" cx="718.7" cy="735.9" id="KWAH">
  </circle>
  <circle class="Mubarak Al-Kabeer" cx="776.4" cy="505.9" id="KWMU">
  </circle>
  <circle class="Hawalli" cx="763.8" cy="469.5" id="KWHA">
  </circle>
  <circle class="Al Asimah" cx="710.9" cy="458.8" id="KWKU">
  </circle>
  <circle class="Al Farwaniyah" cx="718.2" cy="504.9" id="KWFA">
  </circle>
 </g>
</svg>