<?xml version="1.0"?>
    
<!--********* Copyright (c) 2024 Pareto Softare, LLC DBA Simplemaps.com ***************************************
************* Free for Commercial Use, full terms at  https://simplemaps.com/resources/svg-license ************
************* Attribution is appreciated! https://simplemaps.com *******************************************-->

<svg baseprofile="tiny" fill="#6f9c76" height="1000" stroke="#ffffff" stroke-linecap="round" stroke-linejoin="round" stroke-width=".5" version="1.2" viewbox="0 0 1000 1000" width="1000" xmlns="http://www.w3.org/2000/svg">
 <g id="features">
  <path d="M501.7 202l8.7-40.4 8.9-15.9 54.3-78.2 31.4-22 43 14.1-10 39.5 14.9 20.5 24.2 14-32.1 20.4-27.8 25.8-11.1 37.3-5.8 43.4-49.9-8.9-16.7-28.7-32-20.9z" id="LC06" name="Gros Islet">
  </path>
  <path d="M501.7 202l32 20.9 16.7 28.7 49.9 8.9-2.6 19.8-8.3 68.8-14 57.4-22.2 60.3-8.4 63.1 0 48.7-25.1-8.6-19.4-22.9 0-43.1 0-28.6-2.8-48.8-5.6-45.9-16.7-28.7-39-8.6-38.1-12.8 54.1-81.9 11.6-9.2 21.6-12.3 11.1-11 5.2-14.2z" id="LC02" name="Castries">
  </path>
  <path d="M398.1 330.6l38.1 12.8 39 8.6 16.7 28.7 5.6 45.9 2.8 48.8 0 28.6 0 43.1-5.6 43-16.7 17.2-44.6-11.5-30.6-51.6-36.2-25.8-33.4-8.6-24.6 0.2 4.4-19 12.1-31.9 53.1-77.1 19.9-51.4z" id="LC01" name="Anse-la-Raye">
  </path>
  <path d="M500.3 547.1l19.4 22.9 25.1 8.6 0 23-8.3 54.4-24.2 13.6-14.2 8-22.9 12.8-75.2 28.7-52.9 25.8-41.2 32.4-13.5-15-8.7-17.3 15.4-35.9 2.5-23.2-2.5-45-3.5-14.7-6.3-11.6-5.6-14.5-0.9-23.3 5.8-24.2 20-42.6 24.6-0.2 33.4 8.6 36.2 25.8 30.6 51.6 44.6 11.5 16.7-17.2 5.6-43z" id="LC10" name="Soufrière">
  </path>
  <path d="M305.9 777.3l41.2-32.4 52.9-25.8 75.2-28.7 22.9-12.8 1.5 11.3-10.5 6.8-7 19.3-27.4 62.8-24.2 48.2-15.3 33.5-65-25.4-37.2-44.8-7.1-12z" id="LC03" name="Choiseul">
  </path>
  <path d="M415.2 859.5l15.3-33.5 24.2-48.2 27.4-62.8 7-19.3 10.5-6.8 1.2 10 7.8 29.8 14.9 51.5 14 34.6 2.4 46.6 0.7 31.4-10.3 25.2-13.9-19.1-101.2-39.4z" id="LC07" name="Laborie">
  </path>
  <path d="M498.1 677.6l14.2-8 29.7 35.2 44.6 48.7 27.8 31.6 24.9 33.8-10.7 2.9-9.5 6.4-10.3 21.9-20 87.4-13.9 13.3-6.8 3.7-11.1 0-26.7-36.5 10.3-25.2-0.7-31.4-2.4-46.6-14-34.6-14.9-51.5-7.8-29.8-1.2-10-1.5-11.3z" id="LC11" name="Vieux Fort">
  </path>
  <path d="M512.3 669.6l24.2-13.6 47.3 11.5 61.2 17.2 51.7-1.3-27.6 112-5.9 15.8-6.7 2.8-17.2 4.9-24.9-33.8-27.8-31.6-44.6-48.7-29.7-35.2z" id="LC08" name="Micoud">
  </path>
  <path d="M544.8 578.6l0-48.7 47.3-8.6 39 14.3 33.4-17.2 36.6-7.2-10.8 71.2 6.4 101-51.7 1.3-61.2-17.2-47.3-11.5 8.3-54.4 0-23z" id="LC09" name="Praslin">
  </path>
  <path d="M544.8 529.9l8.4-63.1 22.2-60.3 14-57.4 44.5-5.7 41.8-2.9 41.5 5.6-0.2 59.9-15.9 105.2-36.6 7.2-33.4 17.2-39-14.3-47.3 8.6z" id="LC05" name="Dennery">
  </path>
  <path d="M600.3 260.5l5.8-43.4 11.1-37.3 27.8-25.8 32.1-20.4 17.9 20 6.1 28.5 7.6 96.5 8.5 67.5-41.5-5.6-41.8 2.9-44.5 5.7 8.3-68.8 2.6-19.8z" id="LC04" name="Dauphin">
  </path>
 </g>
 <g id="points">
  <circle class="13.734528038176013|-61.068743455402796" cx="304.5" cy="909.1" id="0">
  </circle>
  <circle class="13.893414746210421|-60.970965134979835" cx="521.7" cy="545.6" id="1">
  </circle>
  <circle class="14.092023131253432|-60.892742478641466" cx="695.5" cy="90.9" id="2">
  </circle>
 </g>
 <g id="label_points">
  <circle class="Gros Islet" cx="583" cy="142.7" id="LC06">
  </circle>
  <circle class="Castries" cx="527.5" cy="315.3" id="LC02">
  </circle>
  <circle class="Anse-la-Raye" cx="424.3" cy="465.6" id="LC01">
  </circle>
  <circle class="Soufrière" cx="376.7" cy="646.4" id="LC10">
  </circle>
  <circle class="Choiseul" cx="399.6" cy="777.3" id="LC03">
  </circle>
  <circle class="Laborie" cx="488" cy="825.6" id="LC07">
  </circle>
  <circle class="Vieux Fort" cx="579.9" cy="813.1" id="LC11">
  </circle>
  <circle class="Micoud" cx="619.1" cy="725.8" id="LC08">
  </circle>
  <circle class="Praslin" cx="622.1" cy="605.3" id="LC09">
  </circle>
  <circle class="Dennery" cx="638.9" cy="442.4" id="LC05">
  </circle>
  <circle class="Dauphin" cx="654.1" cy="256.4" id="LC04">
  </circle>
 </g>
</svg>