<?xml version="1.0"?>
    
<!--********* Copyright (c) 2024 Pareto Softare, LLC DBA Simplemaps.com ***************************************
************* Free for Commercial Use, full terms at  https://simplemaps.com/resources/svg-license ************
************* Attribution is appreciated! https://simplemaps.com *******************************************-->

<svg baseprofile="tiny" fill="#6f9c76" height="1000" stroke="#ffffff" stroke-linecap="round" stroke-linejoin="round" stroke-width=".5" version="1.2" viewbox="0 0 1000 1000" width="1000" xmlns="http://www.w3.org/2000/svg">
 <g id="features">
  <path d="M462.8 941l-2.9-29.3-8.1-36-19.7-33.6-1.6-35.9-29.4-7.2-27.3-26.9 28-57.6-1.6-92.1 45-5.9 18 24 3.3 43.2 8.1 52.9 31.1 24 26.1 4.8 11.4 31.2-17.9 26.4 17.9 31.1 29.5 0 3.2-31.1-11.4-24 44.1 7.2 4.9 50.3 11.2 52.4-20.7 26.4-60.4 19.2-80.8-13.5z" id="LI09" name="Triesen">
  </path>
  <path d="M674.3 845.9l-49.6 63-11.2-52.4-4.9-50.3 44.1-16.8 8.2 35.9 13.4 20.6z m12.9-193.5l13.6 50.6-41.6-0.1-24.5-2.4-17.9 7.3-27.8 4.8-6.5-64.9-11.5-40.8-26.1-19.2 6.5-45.7 27.8 16.9 22.9 24 27.7 31.2 26.2 43.2 31.2-4.9z m-169.1-229.6l0.3 37.5-11.1 26.5-29.4-7.2-37.6-12-22.9 16.8-14.7-26.4-21.2-7.3 8.2 69.7-37.4-12.8-8.5-16.7-22.5-71.5 4.3-88.9 39.6 21.7 50.6 2.4 40.9-14.4-3.3 38.4 32.7 36.1 32 8.1z" id="LI07" name="Schaan">
  </path>
  <path d="M700.8 703l4.6 17-20.3 112.2-10.8 13.7-13.4-20.6-8.2-35.9 1.6-36-19.6-52.9 24.5 2.4 41.6 0.1z m-157.6 93.6l-11.4-31.2-26.1-4.8-31.1-24-8.1-52.9-3.3-43.2-18-24 1.6-52.8 11.5-12 31 0 9.8-26.5 8.2-38.4 21.2 31.2 22.9 24-6.5 45.7 26.1 19.2 11.5 40.8 6.5 64.9-22.9 4.8 1.7 40.8-3.3 40.8-21.3-2.4z" id="LI10" name="Triesenberg">
  </path>
  <path d="M562.6 486.5l43.2 25.6 69.9 97.8 11.5 42.5-31.2 4.9-26.2-43.2-27.7-31.2-22.9-24-27.8-16.9 11.2-55.5z m-99.8 454.5l-98.7-16.4-66.2-19.6-3.3-40.3 34.3-46.2 44.9-46.4 27.3 26.9 29.4 7.2 1.6 35.9 19.7 33.6 8.1 36 2.9 29.3z m101.7-142l11.4 24-3.2 31.1-29.5 0-17.9-31.1 17.9-26.4 21.3 2.4z" id="LI01" name="Balzers">
  </path>
  <path d="M518.4 460.3l44.2 26.2-11.2 55.5-22.9-24-21.2-31.2 11.1-26.5z m28.8-102.5l-29.1 65-32-8.1-32.7-36.1 3.3-38.4 26.1-21.7 34.3 9.6 30.1 29.7z" id="LI05" name="Planken">
  </path>
  <path d="M525.1 266.9l25.2 60.1-3.1 30.8-30.1-29.7-34.3-9.6-26.1 21.7-36-21.7-27.8-21.6-3.2-43.3 13-43.3 21.3-2.4 14.7 36.1 50.6 26.4 35.8-3.5z" id="LI02" name="Eschen">
  </path>
  <path d="M492.1 166.6l-8 24.7 13 38 28 37.6-35.8 3.5-50.6-26.4-14.7-36.1 29.4-28.9 38.7-12.4z" id="LI04" name="Mauren">
  </path>
  <path d="M465.9 95.8l37.9 35.2-11.7 35.6-38.7 12.4-29.4 28.9-1.7-26.5 19.6-28.9 9.9-28.8 14.1-27.9z" id="LI08" name="Schellenberg">
  </path>
  <path d="M465.9 95.8l-14.1 27.9-9.9 28.8-19.6 28.9 1.7 26.5-21.3 2.4-26.1-12-19.9-6.3 22.3-64 48.6-82.5 26.7 39.6 11.6 10.7z" id="LI06" name="Ruggell">
  </path>
  <path d="M445.2 616.5l-45 5.9-24.5-69.2-23.4-45.6 37.4 12.8-8.2-69.7 21.2 7.3 14.7 26.4 22.9-16.8 37.6 12 29.4 7.2-8.2 38.4-9.8 26.5-31 0-11.5 12-1.6 52.8z m163.4 189.7l-44.1-7.2 3.3-40.8-1.7-40.8 22.9-4.8 27.8-4.8 17.9-7.3 19.6 52.9-1.6 36-44.1 16.8z" id="LI11" name="Vaduz">
  </path>
  <path d="M456.7 340.2l-40.9 14.4-50.6-2.4-39.6-21.7 2.7-56.6 28.4-81.9 19.9 6.3 26.1 12-13 43.3 3.2 43.3 27.8 21.6 36 21.7z" id="LI03" name="Gamprin">
  </path>
 </g>
 <g id="points">
  <circle class="47.062920393996386|9.482878095345626" cx="315.1" cy="909.2" id="0">
  </circle>
  <circle class="47.147080662919954|9.552796304827185" cx="520.5" cy="545.9" id="1">
  </circle>
  <circle class="47.252280999074415|9.608730872412432" cx="684.9" cy="91" id="2">
  </circle>
 </g>
 <g id="label_points">
  <circle class="Triesen" cx="479.7" cy="817.1" id="LI09">
  </circle>
  <circle class="Schaan" cx="421.8" cy="410.2" id="LI07">
  </circle>
  <circle class="Triesenberg" cx="519.3" cy="657.8" id="LI10">
  </circle>
  <circle class="Balzers" cx="381.4" cy="859.1" id="LI01">
  </circle>
  <circle class="Planken" cx="498.6" cy="370.4" id="LI05">
  </circle>
  <circle class="Eschen" cx="454.8" cy="295.7" id="LI02">
  </circle>
  <circle class="Mauren" cx="462.6" cy="216.3" id="LI04">
  </circle>
  <circle class="Schellenberg" cx="471.4" cy="139.8" id="LI08">
  </circle>
  <circle class="Ruggell" cx="415.9" cy="129.7" id="LI06">
  </circle>
  <circle class="Vaduz" cx="428.1" cy="526.9" id="LI11">
  </circle>
  <circle class="Gamprin" cx="361.2" cy="293.7" id="LI03">
  </circle>
 </g>
</svg>