<?xml version="1.0"?>
    
<!--********* Copyright (c) 2024 Pareto Softare, LLC DBA Simplemaps.com ***************************************
************* Free for Commercial Use, full terms at  https://simplemaps.com/resources/svg-license ************
************* Attribution is appreciated! https://simplemaps.com *******************************************-->

<svg baseprofile="tiny" fill="#6f9c76" height="1000" stroke="#ffffff" stroke-linecap="round" stroke-linejoin="round" stroke-width=".5" version="1.2" viewbox="0 0 1000 1000" width="1000" xmlns="http://www.w3.org/2000/svg">
 <g id="features">
  <path d="M193 266.4l2.9 0.3 7.6 1.8 0.7 0.4 1 0.6 0.6 1.5 0.7 0.4 0.6 0.2 1.3-0.1 3-0.6 0.5 0 0.5 0.3 1.8 1.3 15.4 2.9 1.2-0.2 3.1-0.5 1.8 2.8 1.3 0.6 3.6-0.3 3.4 0 4.3 0.5 2.2 1 1.9 1.5 12.5 17.4 0.5 1.1 0.7 2 0.8 4.5 0.1 4.2-0.2 1.8 1 4.9-0.3 1.6-0.8 1.4-2.9 1.9-1.5 1.5-0.7 0.8-0.7 0.7-1 0.6-4.5 1.4-1 0.5-0.9 0.6-3.1 2.8-15.5 9.6-5.1 1.1-1.2 0.3-1 0.5-0.8 0.7-0.6 0.8-0.8 0.7-4.4 3.1-0.8 0.9-0.9 1.1-3.3 5.7-0.5 0.5-0.6 0.6-1.8 0.9-1.6 1.4-0.7 0.8-0.9 0.5-0.9 0.3-2.2 0-1 0.3-3.9 2.1-1 0.8-1.7 2.1-0.8 0.8-1.1 0.5-3.4 1-1 0.5-0.8 0.7-1.3 1.5-0.7 0.5-1.2 0.7-2 2.4-2.4 3.8-1.4 1.7-1.5 1.1-2.7 0.5-1.4 0.5-1.5 1.1-0.7 1 0.1 0.1 1.5 1.5 0.8 2.4-0.9 4.1-0.1 1.9 0.3 2.2-0.2 1.8-5.6 15.2-2.8 6.1-0.2 1.7 0.3 1.2 2.2 2.4 0.7 1.2 0.6 2.5-0.5 3.4-0.3 4.3-1.7 6.7-0.5 1.5-0.3 0.5-0.5 0.5-0.8 0.2-1.8-0.7-1-0.2-0.7 0.1-0.8 0.3-0.8 0.5-1.1 0.8-1 1.1-1.5 2.3-0.6 2-0.3 2.7-0.4 1.4-0.9 0.8-2.2 0.5-2.1 0.9-0.9 0.6-1.1 0.9-1.2 1.3-1.7 2.6-0.6 1.7-0.3 1.6 0.3 2.8 0.7 2.6-33.4-12-25.7-11.4-4.7-5.6-0.2-8.5 1.3-4.8 0.3-2.1 0-2.8-2.9-5.5-0.8-1-4-1.2-4.2-2.6-3.6-3-2.1-2.2-5.5-7.8 6.8-3.1 1.7-1-0.5-5.5 0.9-3.6 5.9-3.4 2-3.5 1.4-4.1 0.4-3.2-0.7-4.4 0.7-1.4 4.6-0.5 1.6-0.6 1.2-1.2 0.4-1.9-0.7-2.7-3.1-5-0.5-2.2 0.6-0.8 3.9-3.6 7.5-11.7 3.6-0.8 17.6-8 1.9-1.7 13.9-18 3.8-4.9 31.8-25.2 8.8-5 8.1-1.8 2.9-1.3 2.3-1.8 2.3-2.8z" id="LRCM" name="Grand Cape Mount">
  </path>
  <path d="M176.9 385.2l-1.5-1.5-0.1-0.1 0.7-1 1.5-1.1 1.4-0.5 2.7-0.5 1.5-1.1 1.4-1.7 2.4-3.8 2-2.4 1.2-0.7 0.7-0.5 1.3-1.5 0.8-0.7 1-0.5 3.4-1 1.1-0.5 0.8-0.8 1.7-2.1 1-0.8 3.9-2.1 1-0.3 2.2 0 0.9-0.3 0.9-0.5 0.7-0.8 1.6-1.4 1.8-0.9 0.6-0.6 0.5-0.5 3.3-5.7 0.9-1.1 0.8-0.9 4.4-3.1 0.8-0.7 0.6-0.8 0.8-0.7 1-0.5 1.2-0.3 5.1-1.1 15.5-9.6 3.1-2.8 0.9-0.6 1-0.5 4.5-1.4 1-0.6 0.7-0.7 0.7-0.8 1.5-1.5 2.9-1.9 0.8-1.4 0.3-1.6-1-4.9 0.2-1.8-0.1-4.2-0.8-4.5-0.7-2-0.5-1.1-12.5-17.4-1.9-1.5-2.2-1-4.3-0.5-3.4 0-3.6 0.3-1.3-0.6-1.8-2.8-3.1 0.5-1.2 0.2-15.4-2.9-1.8-1.3-0.5-0.3-0.5 0-3 0.6-1.3 0.1-0.6-0.2-0.7-0.4-0.6-1.5-1-0.6-0.7-0.4-7.6-1.8-2.9-0.3 28.6-35 8.1-6.9 10.1-5.5 1.6-0.5 4.9-0.8-0.5-52.2 0.3-2.6 11 9.6 21.4-5.6 12 11.2 38.9 12 5.6-8 19.9 28.1 34.1-8 54.1 22.4 2.4 14.5-31.8 73.7 4.3 25.2-3 3-8 4.6-3.5 2.6-4.1 5.1-1.1 0.9-1.3 0.6-1 1.2-1 0.8-1.2-0.3-1.1-0.5-1.3-0.3-1.4 0-1.3 0.2-5 1.4-4.6 2-7.9 5.4-6.7 6.7-3.6 2.7-3.3 0.6-2.4-1.1-0.6-0.3-0.5-0.4-0.1-0.5 0.3-0.5 0.5-0.4 0.2-0.5-0.1-0.5-0.5-2.1-0.4-0.8-0.6-2.3-0.4-0.8-0.6-0.7-0.4-0.7 0.1-0.8 0.6-0.8 0.9-0.9 0.5-0.6 0.3-1.3 0.1-0.5-0.1-0.6-0.4-0.4-3-1.2-7.5-1.8-5.6-0.2-2.2 0.9-0.7 0.7-1.8 2.3-14 11.4-1.1 1.5-2.1 3.9-3.3 4.5-6.8 7.1-1.6 1.2-1.7 0.5-1.6 0.3-1.6 0-5.5-1-0.8 0-1.6 0.5-7.1 3.2-2.1 1.3-1.4 1.1-0.3 0.7-0.3 0.8-0.2 4.8-0.6 3.7-1.9 6.8-6.3 1.4-23.5 0.1-11.2 4.4-1.7 1-2.2 1.9-1.7 1.3-2.2 1.2-3.9 1.7-1.8 0.3-1.3-0.1-1.5-1.5-1.5-1.7-0.8-1.1-0.4-0.9-0.3-0.9-0.5-0.5-1.5-1.5-0.3-1.2 0.1-0.6 0.6-1.3 0-0.6-0.3-1.5 0.1-0.7 0.5-0.8 0.1-0.9-0.3-0.9-0.4-0.7-0.5-1.5-0.1-0.6 0.2-0.6 0.3-0.7 0.2-0.7 0.3-0.8 0.4-1.5 0-0.6-0.1-0.6-0.3-0.7-0.4-0.9-0.1-0.7 0-0.5 0.5-0.4 0.8-0.1 3.3 0.1 0.7-0.2 0.2-0.4-0.5-0.5-0.3-0.4-0.3-0.6 0.1-0.9-0.3-0.8-1.2-1.1-13.4-2.8-0.9 0-1.1 0-4 1.1-4.6 0.3-2.5-0.3-11.9-4.1-1.4 0-1.6 0.6z" id="LRGP" name="Gbarpolu">
  </path>
  <path d="M418 338l-4.3-25.2 31.8-73.7-2.4-14.5-54.1-22.4-34.1 8-19.9-28.1-5.6 8-38.9-12-12-11.2-21.4 5.6-11-9.6 0.8-2 2-1.6 5.4-3 2.3-2.2 4.9-9.3 3.2-3.9 5-2.5 4.3-0.6 17.3-0.1 4.4-0.6 4.2-1.4 4.1-2.4 5.3-5.1 0.6-4-1.7-4.3-1.6-6.1 0.5-4.9 3.7-8.2 6.6-26.6 0.2-11.2 2.3 0.2 2.2-0.4 4.5-1.7 1.6 3.6 3.6-2.1 7.3-7.1 3.6-1.1 3.6 0.1 12.2 3 3.2 1.9 1.5 3.2-2.2 10.1 0.9 2.9 2.9 1 4.5-0.8 8.7-5.1 8.3-6.6 3.6-1.9 3.5-1.1 3.6-0.4 4.1-0.1 1.1-0.2 3-0.8 1 0.5 1 1 1.1 1.4 1.9-0.6 3.8-2 5.4-1.5 0.2-1.5-0.7-1.6 0-1.8 1.5-1.8 1.5-1.6 1.1-1.9-0.2-2.6 3.7 0.5 2.2 2.8 1.3 3.7 1.3 10.2 1 3.8 2.2 3.8 3 3.2 0.8-0.5 0.1-3.1 0.5-4.5 2.6-3 4.3 0 4.2 2 2.8 2.8 1.2 4.7-1.8 2.6-2.8 1.9-2 2.8-0.3 3.9 1.9 0.6 3.2-0.7 3.7-0.1 1.7 0.2 1.9-0.3 1.5-0.7 1.1-1.5 1.5-1.7 1.7 1.3 2.8 3.8 10.7 4.5 3.8 2.8 1.5 1.6 1.1 0.6-2.6 1.6-0.9 0.4-1.4 0.8-1.4 1-2.3 2.4 2 1.9 1.1 2.3 0.8 2.4 1.2 2.1 1 1 0.4 0.9-0.4 1-1 1-2.1 3.4-1.4 6.2 0.4 5.8 3.1 2.3 5.2 1 2.1 1.2 0.7 2.5 0 2.5 4 15.7-0.5 2.3-2.3 3.9-0.3 2.5 2.5-3.2 2.3-1.8 2.3 0.2 2.5 3 1.1 2.3 0.4 2.3-0.5 2.1-1.5 2-0.3 0.7-2.8 9.4-0.5 9.1 2.1 9 4.9 9 5.6 7.2 1.8 3.6 2.9 3.7 2.6 3.4-2.3 5.5-2.2 7.7 0.4 7.3 4.5 5.3-2.3 1.7-1.9 2.8-1.2 3.3-1 5.8-1.6 2.4-3.8 4.5 0.8 3-1.8 4.6-4.9 7.3-4.4 3.3-2 2.1-0.9 2.7-0.1 2.9-0.6 2.6-1.3 2.2-2.4 2 0.8 0.6 0.3 0.7 0.1 0.8 0.3 0.8-5.1 5.5-8.3 5.6-3.4 1.5-4.8 1.1-4.1 2-5.9 1.1-2.2 1.7-1.6 2.4-1.2 2.7 1.1 2.4-1.4 3.3-2.8 3-2.9 1.6 0-1.4-1.9 1-3.6 2.5-1.8 0.8-2 0.5-1.5 0-7.7-1-3.1-0.8-6.3-3z" id="LRLO" name="Lofa">
  </path>
  <path d="M673.7 493.1l-0.1 0-3.5 7.9-5.1 17.2-12.8 25.8-3.4 5.2-4.8 5.7-5.7 4.6-6 2.3-3 1.6-2.7 7-3.2 2.7 2.4 3.5 0.5 5.3-1 5.6-1.9 4.1-3.3 2.3-8.7 1-3.7 1.2-2.7 3.7 1.7 2.6 2.6 2.1 0 2-3.9 5-1.3 5 1.2 2.3 3.1-3 3.3 3 1.7 3.3-0.5 4-3.2 4.8-2.1 2-3.5 1.7-24.8-0.6-5.7 1.4 0.9-5 0.3-1.8 0.1-0.4 1.8-2.9 0.1-0.7-0.2-0.9-1-1.7-2.3-3-0.6-1.5-0.1-1 0.1-1 0.8-1.8 1.5-1.3 0.5-0.1 0.3-0.4-0.1-0.3-0.6-0.7-0.5-0.4-0.4-0.4-0.8-1-0.5-0.9-0.6-0.6-0.3-0.3-0.4-0.2-0.5-0.1-0.3-0.2-0.4-0.2-0.1-0.5 0.1-0.8 0.8-2.7 0.2-0.6 0.2-0.2 0.3-0.1 0.4 0 1.7 0.2 0.6 0 0.6-0.2 0.7-0.4 0.5-0.4 0.8-0.8 0.3-0.4 0-0.3-0.2-0.4-3.5-2.7-1-1.1-0.4-0.6 0-0.2 0.1-0.4 0.5-0.8 3.5-4.3 0.2-0.3 0.3-0.5-0.2-0.6-0.3-1-1.8-3-0.6-0.6-1.2-0.6-0.6-0.6-0.1-0.1 0-0.4 0.1-0.6 0.8-2.6 0-0.5-0.1-3-0.2-0.6-0.4-0.7-1.1-1.1-4.4-2.9-0.4-0.4-0.2-0.5 0.2-0.4 0.7-0.6 1.1-0.5 0.2-0.2 0.1-0.2 0.2-1.1 0.3-0.2 0.4-0.2 0.3-0.5 0.1-0.9 0-1.7 0.1-1 0.2-0.4 0.5-0.1 0.3 0.3 0.4 0.5 0.3 0.8 0.3 0.3 0.2 0.1 0.3-0.1 0.3-0.3 0.9-1.5 0.5-0.5 0.2-0.7 0.3-2.4 0.3-0.7 0.4-0.4 2.8-1 0.5-0.3 0.2-0.2 0.1-0.5 0-0.6-0.3-2.4-0.2-1.1-0.1-0.6 0-0.5-0.1-1-0.7-4.4 0-1.2 0.3-1 1.1-0.9-0.4-0.7-1.3-1-4-1.9-5.1-1.3-0.7-0.2-2.1-2.8-4.1-9.3 0.2-6.4 0.5-3.3 0.1-0.9-0.3-3.5 0.1-1.3 0.3-1.3 1.6-4.6 1-5.2 0-0.8-0.3-0.8-0.8-0.6-0.6-0.3-0.5-0.1-1.2 0.4-0.4 0.1-0.5 0-0.4-0.2-0.2-0.1-0.1-0.5 0.1-0.5 1.8-3.5 0.3-1.1 1-6.1 0.8-2 0.3-0.6 2.4-2.9 0.3-0.3 0.5-0.3 3-1.1 0.4-0.3 0.3-0.3 0.5-1.2 0.1-0.4 0.1-0.4 0.4-1.8 0.6-1.5-0.1-0.6-0.4-0.6-1.3-0.9-0.9-0.4-1.6-0.2-1.9 0.7-0.5 0.3-1.2 0.5-2.5-0.4-9.7-3.2 2.2 0.1 0.9-0.5 1-1 1.2-3.5-0.1-1.4-1.5-2.6 0-1.2 1.6-1.9 0.7-1.1 0.6-1.4 0.8-3.1-0.4-1.4 0-1 1.4-2.1 0.6-1 0.3-1.1 0.5-1 1.6-1.4 0.4-0.9 0-1.2-0.7-1.4-0.7-0.8-0.1-1 0.7-1.1 0.8-0.9 0.9-0.7 0.7-0.8 1.6-1.3 0.7-1.1 0.1-1.5-0.9-4.4-0.2-2.1 0.2-2.3 1.1-6.1 0-1.7-1.8-1.8-1.1-1.9-0.5-0.4-0.4-0.1-1-0.1-0.6-0.1-1-0.4-0.5-0.8-0.7-2.4-0.5-0.9-0.8-0.9-0.7-1-0.5-1.7-0.6-1.2-0.7-0.9-1.9-1-0.9-0.6-1.2-1.7-1.3-1.5-0.1-0.9 3.6-3.7 0.5-0.6 0-0.1 0.1-3 0.3-1.9 0.9-2.7 0.1-2.1 0.5-3.3 3.8-5.3 7-23.5 0.8-2 1.2-0.4 3-0.5 2.8-0.9 3-2.1 2.7-2.5 3-1.6 3.6 0.3 1.8-1 4.7-1.4 1-0.1 0.7-3.4 1-0.3 2.2 1 1.2-5.1 2.7 1.7 4.1 6.5 2.8-0.3 9.3-3.6 2.3-1.4 1.4-4.3-1-4.1-1.5-3.9-0.5-3.6 1-2.3 2-3 3.9-4.9 2-1.2 3.5-1.1 1.8-1.6 0.8-1.9 0.3-4.4 0.8-2.1 1.3-1 5.9-3.6 3.7-3.9 2.1-4 0.8-4.2-0.2-5.1-0.6-1-1-0.2-0.8-0.4-0.3-1.4 0.4-1.2 1.3-2.2 0.3-1.3 0.5-7.4 1.5-4.5 5.6-6.9 1.7-4.3 25.5 1.4-1.1 8.1 1.3 5.9 4 4.9 6.9 5.1 6.5 4.1 8.9 4.5 3.9 7.6 4.4 15.3 2.5 20.9 1.2 4.2 1.4 2.6 3.7 5.2 1.3 2.8 1.7 6.7 1 1.7 2.6 3.2 0.9 1.7 0.1 1.4-0.5 2.8 0.2 1.4 0.8 1.3 3.1 3.2 1.3 2.2 0.6 2 0.3 5.3 3.7 20.6-0.6 5.2-1.6 2-4.3 3.4-1.2 1.9-0.3 3.8 0.3 3.5-0.2 3.4-2.7 6 1 1.6 1.8 1.1 1 1.3 0.2 2.9-0.4 3-1.8 6.5-2.7 6.3-3 4.7-19.3 21.6-4.2 4.7-15.4 12.3-2.9 3.5-0.5 0-3.6 2-0.2 0 0.2 0.4-1 3-0.4 0.9-1 0.6-2.6 0.4-1 0.5-5.3 6.7z" id="LRNI" name="Nimba">
  </path>
  <path d="M612.9 626.1l0.5-4-1.7-3.3-3.3-3-3.1 3-1.2-2.3 1.3-5 3.9-5 0-2-2.6-2.1-1.7-2.6 2.7-3.7 3.7-1.2 8.7-1 3.3-2.3 1.9-4.1 1-5.6-0.5-5.3-2.4-3.5 3.2-2.7 2.7-7 3-1.6 6-2.3 5.7-4.6 4.8-5.7 3.4-5.2 12.8-25.8 5.1-17.2 3.5-7.9 0.1 0 3.6 0.2 2.1 0.5 5.2-0.2 2.5 0.7 2.3 2.1 6.4 8.6 3.9 1.3 2.7-2.2 1.7-4 1-4 1-1.8 1.4 0.9 2.4 3.2 6.7 3.6 2.9 3.3-0.3 1.2-1.6 1.4-1.1 3.5 0.4 2.1 1.9 3.9 0.5 1.7-1.1 1.9-2 1.1-0.7 1.3 2.5 2.6 2.3-2.2 2.7-1 2.6 0 2.2 1 2.8-2.3 2.2 0.9 2.1 2.3 2.3 2.1 1-0.1 0.7-1 0.9-0.7 1.6 0.9 1.1 1.7 0.2 1.8 0 1.5 0.3 0.8 2 0.8 16.6 3.7 2.5 1 2.3 1.3 1.5 1.1 1.8 0.6 3.5 0 2.9-0.7 4.8-2.7 2.5-1 9.9-1.4 5.8-0.2 3.7 0.9 3.5 2.4 13.8 3.3 1.2 0.1 0.9-0.4 1-0.2 1.3 0.4 0.4 0.7 0.6 2.5 0.7 1.1 9.5 7.6 3.3 4.1 0.6 2.9-2.9 8.3-1 4.5-0.5 4.9 0.6 4.4 2.3 3 0.1-1 2.1-1.1 2.6-0.8 2 0.2 2 1.9 0.9 2 0.7 4.9 0.7 0.7 1.1 0.4 1.1 0.5 0.5 1.4-0.4 1.2-2 1-0.5 1-0.1 6.2 0.2 1.5 2.8 3.5 8.4 4.5 2.6 2.5 3.9 5.4 2.9-1.5 2.5-4.3 2.4-2.9 1.4 1.2 2.3 2.7 3.2 2.5 3.8 0.6 0.3 0.8 4.4 2.4 0.6 0.1 4.6 2.1 1.1 1.4-1.7 2.2 1.6 1.4 2.9 3.6 1.5 0.8 2.5-1.2 2.6-2.2 1.6-0.7-0.7 3.6 3.3 0.6 1.5 2.8 1 3.1 2 1.2 1.7-1.6 1.1-3.5 0.6-6.4 6.9 3 1 7.4-1.4 9.1-0.2 7.9 3.9 16.9 2.8 5.6 4.6 9.2 2.7 3.5-4.5-0.8-1.5 2.6 1 4.1 2.9 3.8-4.2 0.2-1.4-0.1 2.2 2.1-0.1 0-145.6 6.1-13.8 2.7-28.1 3.1-23.5 0.3-7.5-2.8 0-0.1 0.4-2.2 0-0.8-0.1-0.9-0.4-0.7-0.7-0.8-1.1-0.8-3-1-3.3-0.7-0.9-0.6-0.9-0.8-0.9-1.8-0.2-1.1 0-1.1 0.2-0.8 0.4-0.9 0.9-1.6 4.5-6.3 0.3-0.8 0.2-0.7 0.4-2.3 0.2-0.8 0.4-0.8 0.5-0.7 0.6-0.6 0.8-0.4 0.8-0.3 1.6-0.4 1-0.1 6.9-0.2 1.8-0.2 3.6-0.9 0.8-0.4 0.7-0.5 0.6-0.7 0.4-0.7 0.2-0.7 0.2-0.8 0.1-2.3-0.2-1.5-0.8-3.1-1.2-3.4-3.3-6-4.1-5.9-3-3.1-2.5-1.9-6.5-4-1.7-0.6-1.9-0.4-6.9-0.4-2 0.2-1.5 0.5-0.7 0.6-13.7 16.7-12.3-5.3-55.8-31.3z" id="LRGG" name="Grand Gedeh">
  </path>
  <path d="M714 713.3l7.5 2.8 23.5-0.3 28.1-3.1 13.8-2.7 145.6-6.1 0.1 0 0.3 0.4-1.1 1.8-2.5 2-1.6 3.1 0.2 8.1-1 2.3-3-1.6 0.1 3.4 0.8 3.9 1.5 3.6 2 3 3.2 1.7 2.2-0.4 1.6 0.3 1.2 4.1 0.6 4.1-0.2 2.4-1.3 2.3-2.6 3.6-0.5 1.4-0.8 3.6-1.1 1.3-2 1-0.5-0.9-0.1-1.6-0.6-1.4-0.3-1.1 1.1-1.1 0.4-0.8-2.5-0.5-0.5 0.6-5.6 3-1.5 2-1 2-2.2 7.1 1.7 10.1-0.1 3.6-1.3 3.8-5.7 10.5-3.1-1.2-3.6-0.1-3.5 1.6-2.7 3.9-0.5 3.8 1.7 12.4-0.3 4.6 1.5 3 2 2.8 1.2 4.2 0 3.2-0.8-0.1-1.8-1.2-2.8-0.3-6.5 5.2-0.1 2 1.5 6.6-0.3 2.5-1.2 4.4 0 1.7-0.1-0.1-0.7-0.5-1.6-0.8-4.4-1.1-1.3-0.6-1-0.9-1.8-3.5-0.6-0.7-1-0.7-1.8-0.5-2.9-0.4-6.6-3.5-1.7-0.5-1.2 0.1-0.6 0.4-0.6 0.3-0.8 0.1-0.7-0.1-0.9-0.3-0.7-0.1-0.8 0.3-0.7 0.4-2.3 2.1-1.7 1-0.8 0.3-1.1 0.3-1.1-0.1-2.4-0.7-0.9 0-1.4 0.4-0.6 0-1.4-0.1-1 0.1-0.9 0.1-0.7-0.1-0.7-0.7-0.6-1.8-0.5-3.2-0.2-0.7 0-0.8 0-0.8 0.3-0.9 0.1-0.6-0.1-0.8-0.3-0.9-0.1-1.7 0.1-31-0.3-1.1-0.5-1-1-1-0.8-0.5-1.6-0.5-34.7-6.1-29.9-4.9-7.1-0.5-1.4 0.8-1-0.1-1.3-0.4-7.6-5.1-3.1-0.9-9.5-1.2 0.5-6.8-0.2-3.4-0.9-3.4-0.9-1.9-6.6-9.9-15.1-15.5-1-1.6-1.2-2.4-1.8-5.6-0.7-3.4 0.2-2.8 1.7-7.8z" id="LRRG" name="River Gee">
  </path>
  <path d="M800.9 790.1l34.7 6.1 1.6 0.5 0.8 0.5 1 1 0.5 1 0.3 1.1-0.1 31 0.1 1.7 0.3 0.9 0.1 0.8-0.1 0.6-0.3 0.9 0 0.8 0 0.8 0.2 0.7 0.5 3.2 0.6 1.8 0.7 0.7 0.7 0.1 0.9-0.1 1-0.1 1.4 0.1 0.6 0 1.4-0.4 0.9 0 2.4 0.7 1.1 0.1 1.1-0.3 0.8-0.3 1.7-1 2.3-2.1 0.7-0.4 0.8-0.3 0.7 0.1 0.9 0.3 0.7 0.1 0.8-0.1 0.6-0.3 0.6-0.4 1.2-0.1 1.7 0.5 6.6 3.5 2.9 0.4 1.8 0.5 1 0.7 0.6 0.7 1.8 3.5 1 0.9 1.3 0.6 4.4 1.1 1.6 0.8 0.7 0.5 0.1 0.1 0 0.2 1 2.5 1.7 1.5 1.6 1.3 1.3 1.6 0.6 1.9 0.9 11.2-0.9 45.9 0.3 2 0.6 1.9 0.4 2.3-0.4 5.4 1.5 4.4 0.3 2-0.7 2.1-2.2 4-0.3 2.2 1.2 2.5 7 4.8 0 0.1-11.2 1.1-3.2-0.4-5-2.1-2.8-0.5-14.6 0-1.8-0.7-0.9-1.5-0.7-1.5-1-0.7-3.5-0.3-8.4-3.4-2.6-1.5-2.4-2.1-1.3-2.4-1.2-2.9-1.9-2.5-2.4-0.7 0.7-1.7 3.2-5.1 0.7-1.5 0.6-1.6 0.3-1.5-0.1-7.8 0.3-4.1 1.5-5.7 0.3-1.8-0.4-1.7-0.9-2.1-5-8.7-3.1-4.2-9.4-15.9-1.4-1.8-1.6-1.6-1.8-1.6-1.6-1.1-3.1-1.8-13.9-6-15.3-5.2-0.8-0.5-1.6-1.2-1.1-1.5-0.5-0.7-0.3-1.1-0.3-1.2-0.3-1.8 0-2.1 7.5-18.7 3.2-5.7 5.1-8.5 1.4-1.9 0.7-1.2 0.5-1.3 0.4-1.4-0.1-2.8-0.2-1.5-2.3-5.6z" id="LRMY" name="Maryland">
  </path>
  <path d="M277.6 410.2l1.9-6.8 0.6-3.7 0.2-4.8 0.3-0.8 0.3-0.7 1.4-1.1 2.1-1.3 7.1-3.2 1.6-0.5 0.8 0 5.5 1 1.6 0 1.6-0.3 1.7-0.5 1.6-1.2 6.8-7.1 3.3-4.5 2.1-3.9 1.1-1.5 14-11.4 1.8-2.3 0.7-0.7 2.2-0.9 5.6 0.2 7.5 1.8 3 1.2 0.4 0.4 0.1 0.6-0.1 0.5-0.3 1.3-0.5 0.6-0.9 0.9-0.6 0.8-0.1 0.8 0.4 0.7 0.6 0.7 0.4 0.8 0.6 2.3 0.4 0.8 0.5 2.1 0.1 0.5-0.2 0.5-0.5 0.4-0.3 0.5 0.1 0.5 0.5 0.4 0.6 0.3 2.4 1.1 3.3-0.6 3.6-2.7 6.7-6.7 7.9-5.4 4.6-2 5-1.4 1.3-0.2 1.4 0 1.3 0.3 1.1 0.5 1.2 0.3 1-0.8 1-1.2 1.3-0.6 1.1-0.9 4.1-5.1 3.5-2.6 8-4.6 3-3 6.3 3 3.1 0.8 7.7 1 1.5 0 2-0.5 1.8-0.8 3.6-2.5 1.9-1 0 1.4 2.9-1.6 2.8-3 1.4-3.3-1.1-2.4 1.2-2.7 1.6-2.4 2.2-1.7 5.9-1.1 4.1-2 4.8-1.1 3.4-1.5 8.3-5.6 5.1-5.5-0.3-0.8-0.1-0.8-0.3-0.7 0.1 0.1 1.8-0.9 6.2-6.1 2.4-3.5 4.1 7.3 2.5 2.1 3.2-4.8 1.3-0.3 1-0.8 0.5-2.3 0.9-0.8 1.9-0.3 3.6-0.1 3.1 0.4 1.5 0.5 1.8 1.1 1.5 1.9 1.5 4.3 1.3 1.5 3.3 0.5 7.3-1.9 3.3 0.3 3.1 4.4 2.9 13.6 5.3 4.9 1.3 0.2 4.8-0.2 1.2 0.9 0.1 3.7 1.7 1.4 4.2 2.1 0.7 2.9-2 7.4 2.5-2.2 1.7-0.6-0.8 2-7 23.5-3.8 5.3-0.5 3.3-0.1 2.1-0.9 2.7-0.3 1.9-0.1 3 0 0.1-0.5 0.6-3.6 3.7 0.1 0.9 1.3 1.5 1.2 1.7 0.9 0.6 1.9 1 0.7 0.9 0.6 1.2 0.5 1.7 0.7 1 0.8 0.9 0.5 0.9 0.7 2.4 0.5 0.8 1 0.4 0.6 0.1 1 0.1 0.4 0.1 0.5 0.4 1.1 1.9 1.8 1.8 0 1.7-1.1 6.1-0.2 2.3 0.2 2.1 0.9 4.4-0.1 1.5-0.7 1.1-1.6 1.3-0.7 0.8-0.9 0.7-0.8 0.9-0.7 1.1 0.1 1 0.7 0.8 0.7 1.4 0 1.2-0.4 0.9-1.6 1.4-0.5 1-0.3 1.1-0.6 1-1.4 2.1 0 1 0.4 1.4-0.8 3.1-0.6 1.4-0.7 1.1-1.6 1.9 0 1.2 1.5 2.6 0.1 1.4-1.2 3.5-1 1-0.9 0.5-2.2-0.1-2.4 0.3-3.5 0-20.3 5.1-2.5-0.3-0.3-1.1-0.6-1-1.6-0.7-0.9 0.4-0.6 0.8-1.4 1.2-3.2 2.3-1 1.1-0.5 1.2-0.3 1.2-0.5 1.2-0.8 1.1-1.5 1.3-1.5 0.3-1.9 0-1 0.3-4.2 4.1-3.2 2.2-1.1 1.8-1.4 2.6-1 0.1-1.1-0.3-1.9-0.4-1.2 0.4-1.1 0.7-0.9 1-1.2 0.1-1-0.2-1.5-0.1-0.7 0.5-0.4 0.9-0.3 1.1-1.3 2.1-1.3 1.4-0.7 0.5-1 0.3-2.1-0.2-0.9 0-1.8 0.2-1.1 0-2.5-0.9-1.8-0.2-1 0.5-3.9 3.5-5.8 3.3-2.6 0.9-1.7 0-0.7-0.8-0.5-0.8-0.3-0.8-0.2-0.8 0-0.8 0.1-0.8 0.3-0.9 0.3-0.9 2-3.4 5.4-6.8 3-3 2.6-3.1 0.5-0.8 0.3-0.8 0.1-0.7 0-0.8-0.1-0.9-0.3-1.1-0.8-1.5-1-1.3-5.1-4.4-5.6-6.9-1-0.9-1.2-0.9-2.1-0.9-1.3-0.2-1 0-0.8 0.2-10.6 1.2-1.5-0.1-0.9-0.5-0.6-0.4-1.1-1.5 4.3-9.6 1.1-3.2 0.1-1.3-0.1-1.5-0.4-2.1-0.4-1.4-0.5-1.3-0.6-0.9-0.7-1-1.5-1.5-2.9-2.3-3.5-2.2-1.7-0.9-1.8-0.5-2-0.5-0.9-0.1-0.8 0.1-0.8 0.3-0.9 0.6-1.5 1.6-1.1 1.5-0.4 0.8-0.3 0.9-0.3 1-0.2 1.1 0 1.9 0.6 5-0.1 0.8-0.2 0.9-0.6 0.8-3.1 3-0.6 0.8-0.7 1.6-0.7 1.7-0.4 1.6-0.3 3.2-0.6 2.6-0.3 0.7-0.7 0.9-1.2 0.9-2.5 1.1-1.5 0.3-1.1-0.1-0.7-0.5-0.8-0.5-1.5-1.7-3.7-5.1-0.8-0.7-1.5-1.1-0.8-0.4-4.8-1.6-9.1-2.2-1.9-0.2-0.8 0.2-2.4 0.9-4.9 2.7-2.9 0.8-1.8 0.2-1.7-0.2-26.4-8.7-1.8-1-1.8-1.3-1.8-1.5-3.6-3.7-1.1-0.9-1.5-0.9-2.9-1.6-1.7-0.6-1.4-0.4-3.3 0.2-4.6 0.7-7.1 0.1-3.5-3-2.2-0.7-1 0.1-1.8 0.3-2 0.1-9.3-0.5-2.6-0.9-2.2-1.7-0.7-1.8-6.7-7.9 0.2-0.1 3-1.2 1.4-1.6 3.4-6z" id="LRBG" name="Bong">
  </path>
  <path d="M147.4 471.6l-0.7-2.6-0.3-2.8 0.3-1.6 0.6-1.7 1.7-2.6 1.2-1.3 1.1-0.9 0.9-0.6 2.1-0.9 2.2-0.5 0.9-0.8 0.4-1.4 0.3-2.7 0.6-2 1.5-2.3 1-1.1 1.1-0.8 0.8-0.5 0.8-0.3 0.7-0.1 1 0.2 1.8 0.7 0.8-0.2 0.5-0.5 0.3-0.5 0.5-1.5 1.7-6.7 0.3-4.3 0.5-3.4-0.6-2.5-0.7-1.2-2.2-2.4-0.3-1.2 0.2-1.7 2.8-6.1 5.6-15.2 0.2-1.8-0.3-2.2 0.1-1.9 0.9-4.1-0.8-2.4 1.6-0.6 1.4 0 11.9 4.1 2.5 0.3 4.6-0.3 4-1.1 1.1 0 0.9 0 13.4 2.8 1.2 1.1 0.3 0.8-0.1 0.9 0.3 0.6 0.3 0.4 0.5 0.5-0.2 0.4-0.7 0.2-3.3-0.1-0.8 0.1-0.5 0.4 0 0.5 0.1 0.7 0.4 0.9 0.3 0.7 0.1 0.6 0 0.6-0.4 1.5-0.3 0.8-0.2 0.7-0.3 0.7-0.2 0.6 0.1 0.6 0.5 1.5 0.4 0.7 0.3 0.9-0.1 0.9-0.5 0.8-0.1 0.7 0.3 1.5 0 0.6-0.6 1.3-0.1 0.6 0.3 1.2 1.5 1.5 0.5 0.5 0.3 0.9 0.4 0.9 0.8 1.1 1.5 1.7 1.5 1.5 1.3 0.1 1.8-0.3 3.9-1.7 2.2-1.2 1.7-1.3 2.2-1.9 1.7-1 11.2-4.4 23.5-0.1 6.3-1.4-3.4 6-1.4 1.6-3 1.2-0.2 0.1-4.2 1.7-5.9 0.7-1.4 0.8-0.4 2 0.1 2.9-0.3 2.7-1.6 1.2-0.8 1.1 0.3 2.6 1.1 4.5-0.7 1.9-3.7 4.3-1.3 1.9 0.3 0.1-0.3 4.2-0.3 1.3-0.8 2-0.4 1.3-0.2 2.3 0.2 7.2 0.9 1.6 5.7 5.8 1.8 2.6 0 1.5-2.5 2.5-5 3.9-2.4 0.5-3.6-1.7-0.7-0.7-0.7-0.7-8.7-5.6-1.9-0.9-1.1-0.1-1.2 0.1-1.6 0.6-1.9 1.2-1.9 1.6-3.4 3.1-3.2 2.4-0.7 0.3-5.1 1-2.7 0.9-2.3 1.4-1.1 1.1-0.6 1.1-0.2 1.4-0.1 2.1 0.2 1.7 0.3 1.7 2 5.9 0.5 1.8-0.3 2.6-2.4 5.9-0.1 0.1 0 0.1-3.8-7.6-7.1-7.6-8.2-5.7-33.8-18.3-5-1.8z" id="LRBM" name="Bomi">
  </path>
  <path d="M269.6 419.1l6.7 7.9 0.7 1.8 2.2 1.7 2.6 0.9 9.3 0.5 2-0.1 1.8-0.3 1-0.1 2.2 0.7 3.5 3 0.7 5.3-0.4 2-10.8 20.8-0.8 2-0.4 1.4 0.2 1.5 0.6 1.6 0.4 0.8 2.5 3.2 0.9 1.7 0.7 1.7 0.5 1.8 0.8 4.9 0.3 12.6-0.4 3.3-0.5 2.1-0.7 0.9-1.6 1.4-0.9 0.5-1 0.5-7.5 2.5-0.7 0.4-1 1.1-1.2 1.8-3.5 6.8-1.4 1.5-0.8 0.6-1.8 1-9.9 3.8-1.7 0.9-6.9 5.3-1.7 0.7-2.5 0.9-1 0.4-1 0.7-1.6 1.4-0.8 1-0.6 1-4.4 14.5-4.9-1.2-27.6-14.1-4.2-3.8 1.6-3.7 1.1 1.8 1.1 1.2 1.5 0.9 2.3 0.5-3.5-5.9-0.7-5.2 2.1-4.8 4.9-4.9-3 0-2.3 0.6-1.7 1.1-1.8 1.4-1.3-2.7 0-0.1 0.1-0.1 2.4-5.9 0.3-2.6-0.5-1.8-2-5.9-0.3-1.7-0.2-1.7 0.1-2.1 0.2-1.4 0.6-1.1 1.1-1.1 2.3-1.4 2.7-0.9 5.1-1 0.7-0.3 3.2-2.4 3.4-3.1 1.9-1.6 1.9-1.2 1.6-0.6 1.2-0.1 1.1 0.1 1.9 0.9 8.7 5.6 0.7 0.7 0.7 0.7 3.6 1.7 2.4-0.5 5-3.9 2.5-2.5 0-1.5-1.8-2.6-5.7-5.8-0.9-1.6-0.2-7.2 0.2-2.3 0.4-1.3 0.8-2 0.3-1.3 0.3-4.2-0.3-0.1 1.3-1.9 3.7-4.3 0.7-1.9-1.1-4.5-0.3-2.6 0.8-1.1 1.6-1.2 0.3-2.7-0.1-2.9 0.4-2 1.4-0.8 5.9-0.7 4.2-1.7z" id="LRMO" name="Montserrado">
  </path>
  <path d="M301.6 435.1l7.1-0.1 4.6-0.7 3.3-0.2 1.4 0.4 1.7 0.6 2.9 1.6 1.5 0.9 1.1 0.9 3.6 3.7 1.8 1.5 1.8 1.3 1.8 1 26.4 8.7 1.7 0.2 1.8-0.2 2.9-0.8 4.9-2.7 2.4-0.9 0.8-0.2 1.9 0.2 9.1 2.2 4.8 1.6 0.8 0.4 1.5 1.1 0.8 0.7 3.7 5.1 1.5 1.7 0.8 0.5 0.7 0.5 1.1 0.1 1.5-0.3 2.5-1.1 1.2-0.9 0.7-0.9 0.3-0.7 0.6-2.6 0.3-3.2 0.4-1.6 0.7-1.7 0.7-1.6 0.6-0.8 3.1-3 0.6-0.8 0.2-0.9 0.1-0.8-0.6-5 0-1.9 0.2-1.1 0.3-1 0.3-0.9 0.4-0.8 1.1-1.5 1.5-1.6 0.9-0.6 0.8-0.3 0.8-0.1 0.9 0.1 2 0.5 1.8 0.5 1.7 0.9 3.5 2.2 2.9 2.3 1.5 1.5 0.7 1 0.6 0.9 0.5 1.3 0.4 1.4 0.4 2.1 0.1 1.5-0.1 1.3-1.1 3.2-4.3 9.6-16 19.3-4.6 4.5-0.9 0.1-0.8 0.1-0.8-0.1-0.8-0.2-0.7-0.3-4.2-2.2-1-0.3-1.2-0.1-1.8 0.2-1.2 0.5-1.1 0.9-2 2.2-5.6 5.1-2 1.3-1.5 0.7-1.7 0-1.7-0.3-5.9-1.8-3.1-0.1-2.6 0.5-3.5-0.6-0.7 0.3-1.8 1.7-0.7 1.1-1 1-1.8 1.3-1.7 0.5-3 0.5-1.7-0.1-1.3-0.3-0.7-0.6-1.3-1.5-0.6-0.6-0.8-0.5-3.3-1-0.6-0.4-0.4-0.6-0.3-0.5-0.3-0.5-0.6-0.5-1.5-1-0.6-0.6-0.4-0.9-0.1-0.9 0.2-0.9 0.2-0.6 0.1-0.5-0.1-0.5-0.9-0.4-2.3-0.7-3.4 1.2-7.7 1.5-1.8 1-1 0.6 0.5 1.6 0.6 0.6 0.9 0.3 0.7 0.5 0.3 2 0.5 1 1.8 1 0.6 0.7 0 1-0.8 1.9-0.6 2.3-1 1.9-1 2.3-6.6 7.2-0.5 1-0.1 1.1 0.1 1.2 1 3.3 0 1.2-0.7 1.8-1.3 2.1-3.7 3.4-2.4 1.3-2.1 0.8-0.8 0.6 0 0.9 0.1 0.9 0 1 0.1 0.8 0.4 0.8 0.7 0.8 0.4 1.1 0 1.2-0.7 1.3-1.1 0.6-1.3 0.4-0.7 0.7-1 2.3-3.2 4-0.5 0.9-0.4 1-0.8 6.4 0.1 1.3 0.8 2 0.2 1-0.2 1.2-1.6 2.2-0.7 1.4-0.2 1.1-2.2 4.2-0.1 0.3-0.2-0.2-2.7-2.9-3.2-2.5-7-4.3-3.5-1.5-4.1-0.2 0 1.6 11 5.7 4.9 4.1 1.6 4.9-3.2-4-6-3.6-6.8-2.8-38.5-9.6 4.4-14.5 0.6-1 0.8-1 1.6-1.4 1-0.7 1-0.4 2.5-0.9 1.7-0.7 6.9-5.3 1.7-0.9 9.9-3.8 1.8-1 0.8-0.6 1.4-1.5 3.5-6.8 1.2-1.8 1-1.1 0.7-0.4 7.5-2.5 1-0.5 0.9-0.5 1.6-1.4 0.7-0.9 0.5-2.1 0.4-3.3-0.3-12.6-0.8-4.9-0.5-1.8-0.7-1.7-0.9-1.7-2.5-3.2-0.4-0.8-0.6-1.6-0.2-1.5 0.4-1.4 0.8-2 10.8-20.8 0.4-2-0.7-5.3z" id="LRMG" name="Margibi">
  </path>
  <path d="M552.6 464.3l9.7 3.2 2.5 0.4 1.2-0.5 0.5-0.3 1.9-0.7 1.6 0.2 0.9 0.4 1.3 0.9 0.4 0.6 0.1 0.6-0.6 1.5-0.4 1.8-0.1 0.4-0.1 0.4-0.5 1.2-0.3 0.3-0.4 0.3-3 1.1-0.5 0.3-0.3 0.3-2.4 2.9-0.3 0.6-0.8 2-1 6.1-0.3 1.1-1.8 3.5-0.1 0.5 0.1 0.5 0.2 0.1 0.4 0.2 0.5 0 0.4-0.1 1.2-0.4 0.5 0.1 0.6 0.3 0.8 0.6 0.3 0.8 0 0.8-1 5.2-1.6 4.6-0.3 1.3-0.1 1.3 0.3 3.5-0.1 0.9-0.5 3.3-0.2 6.4-45.2 0.2-3 2-1.6 0.6-3.2 1-1.6 0.7-1 0.4-8.6 1.8-0.9 0.4-0.8 0.6-1 0.9-0.6 0.7-0.4 0.8-0.1 0.7 0 0.8 0.2 0.7 0.6 1.5 0.2 0.8 0.2 0.7 0 1.5-0.3 1.4-1.5 5.5-0.1 1.6 0.1 3.2 2.1 11.2-0.4 1.1-1 1.4-6.6 6-1.2 1.5-4.7 7.5-1.2 1.5-0.9 0.4-0.8-0.1-0.7-0.6-0.6-0.6-1-1.5-0.7-0.5-0.8-0.4-1.5-0.3-3-0.2-2.5 0.1-2.3 0.4-1.3 0.6-1 0.8-0.6 0.9-0.4 0.9-0.3 0.9-0.1 0.9 0.2 1.9-0.1 1-0.6 1.4-0.7 0.8-5.4 2.1-1.3 0.9-0.8 1-0.2 0.8 0 0.9 0.2 1.6 0.2 0.7 0.1 0.8 0 1.4-0.1 0.7-2.6 8.2-0.1 0.9 0 0.7 0.7 2.2 0 0.9-0.3 0.8-1.1 2-0.3 0.8 0 0.8 0.4 1.5 1.9 3.8 0.1 0.8 0 0.8-0.3 0.7-7 11.1-0.6 1.6-0.7 2.7-0.1 0.8 0 0.8 0.4 1.5 1.9 4.1 0.4 1.5 0.1 0.7 0 1.4 0 0.6-0.2 0.5-1.3 2.6-0.4 0.9-0.1 0.8 0 0.9 0.1 0.9 0.2 0.9 0.4 0.8 1.5 2.3 0.7 1.6 1.4 6.6 0.1 1.1-0.1 1.2-0.6 2.1-0.7 1.2-4.9 4.7-1 1.4-0.6 1.3-0.4 1.4-0.7 0.7-1 0.6-1.4 0.6-0.8 0.7-0.4 0.7-0.2 0.9 0 1 0 0.1-23.3-22.5-29.4-24.2-7.7-8.6-1.5-1.3-3.8-2.2-1.3-1.6-0.6-2.2 0.9-2.7-0.3-2.6-2-3.3-3.4-2.8-3.8-2-3.2-0.7-2.3-1.3-15.2-12-8.7-9.6-11.4-7.1-3.9-1.8-8.1-1.5-3.8-2.2-2.3-2.9 0.6-2.9 2 1.2 1.6 0.2 1.4-0.9 1-2-4.3-0.9-2.9-2.3 0.1-0.3 2.2-4.2 0.2-1.1 0.7-1.4 1.6-2.2 0.2-1.2-0.2-1-0.8-2-0.1-1.3 0.8-6.4 0.4-1 0.5-0.9 3.2-4 1-2.3 0.7-0.7 1.3-0.4 1.1-0.6 0.7-1.3 0-1.2-0.4-1.1-0.7-0.8-0.4-0.8-0.1-0.8 0-1-0.1-0.9 0-0.9 0.8-0.6 2.1-0.8 2.4-1.3 3.7-3.4 1.3-2.1 0.7-1.8 0-1.2-1-3.3-0.1-1.2 0.1-1.1 0.5-1 6.6-7.2 1-2.3 1-1.9 0.6-2.3 0.8-1.9 0-1-0.6-0.7-1.8-1-0.5-1-0.3-2-0.7-0.5-0.9-0.3-0.6-0.6-0.5-1.6 1-0.6 1.8-1 7.7-1.5 3.4-1.2 2.3 0.7 0.9 0.4 0.1 0.5-0.1 0.5-0.2 0.6-0.2 0.9 0.1 0.9 0.4 0.9 0.6 0.6 1.5 1 0.6 0.5 0.3 0.5 0.3 0.5 0.4 0.6 0.6 0.4 3.3 1 0.8 0.5 0.6 0.6 1.3 1.5 0.7 0.6 1.3 0.3 1.7 0.1 3-0.5 1.7-0.5 1.8-1.3 1-1 0.7-1.1 1.8-1.7 0.7-0.3 3.5 0.6 2.6-0.5 3.1 0.1 5.9 1.8 1.7 0.3 1.7 0 1.5-0.7 2-1.3 5.6-5.1 2-2.2 1.1-0.9 1.2-0.5 1.8-0.2 1.2 0.1 1 0.3 4.2 2.2 0.7 0.3 0.8 0.2 0.8 0.1 0.8-0.1 0.9-0.1 4.6-4.5 16-19.3 1.1 1.5 0.6 0.4 0.9 0.5 1.5 0.1 10.6-1.2 0.8-0.2 1 0 1.3 0.2 2.1 0.9 1.2 0.9 1 0.9 5.6 6.9 5.1 4.4 1 1.3 0.8 1.5 0.3 1.1 0.1 0.9 0 0.8-0.1 0.7-0.3 0.8-0.5 0.8-2.6 3.1-3 3-5.4 6.8-2 3.4-0.3 0.9-0.3 0.9-0.1 0.8 0 0.8 0.2 0.8 0.3 0.8 0.5 0.8 0.7 0.8 1.7 0 2.6-0.9 5.8-3.3 3.9-3.5 1-0.5 1.8 0.2 2.5 0.9 1.1 0 1.8-0.2 0.9 0 2.1 0.2 1-0.3 0.7-0.5 1.3-1.4 1.3-2.1 0.3-1.1 0.4-0.9 0.7-0.5 1.5 0.1 1 0.2 1.2-0.1 0.9-1 1.1-0.7 1.2-0.4 1.9 0.4 1.1 0.3 1-0.1 1.4-2.6 1.1-1.8 3.2-2.2 4.2-4.1 1-0.3 1.9 0 1.5-0.3 1.5-1.3 0.8-1.1 0.5-1.2 0.3-1.2 0.5-1.2 1-1.1 3.2-2.3 1.4-1.2 0.6-0.8 0.9-0.4 1.6 0.7 0.6 1 0.3 1.1 2.5 0.3 20.3-5.1 3.5 0 2.4-0.3z" id="LRGB" name="Grand Bassa">
  </path>
  <path d="M561.3 522.8l4.1 9.3 2.1 2.8 0.7 0.2 5.1 1.3 4 1.9 1.3 1 0.4 0.7-1.1 0.9-0.3 1 0 1.2 0.7 4.4 0.1 1 0 0.5 0.1 0.6 0.2 1.1 0.3 2.4 0 0.6-0.1 0.5-0.2 0.2-0.5 0.3-2.8 1-0.4 0.4-0.3 0.7-0.3 2.4-0.2 0.7-0.5 0.5-0.9 1.5-0.3 0.3-0.3 0.1-0.2-0.1-0.3-0.3-0.3-0.8-0.4-0.5-0.3-0.3-0.5 0.1-0.2 0.4-0.1 1 0 1.7-0.1 0.9-0.3 0.5-0.4 0.2-0.3 0.2-0.2 1.1-0.1 0.2-0.2 0.2-1.1 0.5-0.7 0.6-0.2 0.4 0.2 0.5 0.4 0.4 4.4 2.9 1.1 1.1 0.4 0.7 0.2 0.6 0.1 3 0 0.5-0.8 2.6-0.1 0.6 0 0.4 0.1 0.1 0.6 0.6 1.2 0.6 0.6 0.6 1.8 3 0.3 1 0.2 0.6-0.3 0.5-0.2 0.3-3.5 4.3-0.5 0.8-0.1 0.4 0 0.2 0.4 0.6 1 1.1 3.5 2.7 0.2 0.4 0 0.3-0.3 0.4-0.8 0.8-0.5 0.4-0.7 0.4-0.6 0.2-0.6 0-1.7-0.2-0.4 0-0.3 0.1-0.2 0.2-0.2 0.6-0.8 2.7-0.1 0.8 0.1 0.5 0.4 0.2 0.3 0.2 0.5 0.1 0.4 0.2 0.3 0.3 0.6 0.6 0.5 0.9 0.8 1 0.4 0.4 0.5 0.4 0.6 0.7 0.1 0.3-0.3 0.4-0.5 0.1-1.5 1.3-0.8 1.8-0.1 1 0.1 1 0.6 1.5 2.3 3 1 1.7 0.2 0.9-0.1 0.7-1.8 2.9-0.1 0.4-0.3 1.8-0.9 5-4.5 3.2-3.6 4.5-2.6 5.2-0.6 2.8-0.5 5.9-0.9 2.4-1.7 1.6-2 0.8-4.6 0.7-2.7 1.1-6.6 5.1-1.9 1-6 2.5-3.4 2.5-6.1 6.1-5.9 3.4-4.4 4.8 0.7 3.1 1.3 2.8 1.6 2.6 1.1 3.3 4.4 19.6-0.1 1.2-0.2 1.8-1 3.6-0.8 1.9-6 7.9-0.9 0.9-0.3 0.1-0.4 0-0.6-0.1-0.9 0.1-0.7 0.1-1.2 0.4-0.6 0.7-0.4 1-0.6 2.1-0.5 1-0.6 0.7-1.2 0.5-0.6 0.3-1.4 1.4-0.4 0.3-0.4 0.3-0.7 0.3-3.2 1-0.5 0.4-0.3 0.4-0.1 0.4 0 0.7 0.1 1.2 0.2 0.9 0.1 0.3 0.3 0.4 0.3 0.3 1.9 1.4 0.4 0.6 0.1 0.3-0.1 0.3-0.5 0.5-0.3 0-11.3-10.6-1.5-3.2-2.3-7.8-1.9-3.8-2.3-2.2-3.5-2.4-3.7-1.9-3.2-0.8-0.6-0.4-6-1.2-1.3 0.1-0.3-2.1 2.6-3.2 0.5-2-3.5-5.2-21.4-12.5-7.8-7.4 0-0.1 0-1 0.2-0.9 0.4-0.7 0.8-0.7 1.4-0.6 1-0.6 0.7-0.7 0.4-1.4 0.6-1.3 1-1.4 4.9-4.7 0.7-1.2 0.6-2.1 0.1-1.2-0.1-1.1-1.4-6.6-0.7-1.6-1.5-2.3-0.4-0.8-0.2-0.9-0.1-0.9 0-0.9 0.1-0.8 0.4-0.9 1.3-2.6 0.2-0.5 0-0.6 0-1.4-0.1-0.7-0.4-1.5-1.9-4.1-0.4-1.5 0-0.8 0.1-0.8 0.7-2.7 0.6-1.6 7-11.1 0.3-0.7 0-0.8-0.1-0.8-1.9-3.8-0.4-1.5 0-0.8 0.3-0.8 1.1-2 0.3-0.8 0-0.9-0.7-2.2 0-0.7 0.1-0.9 2.6-8.2 0.1-0.7 0-1.4-0.1-0.8-0.2-0.7-0.2-1.6 0-0.9 0.2-0.8 0.8-1 1.3-0.9 5.4-2.1 0.7-0.8 0.6-1.4 0.1-1-0.2-1.9 0.1-0.9 0.3-0.9 0.4-0.9 0.6-0.9 1-0.8 1.3-0.6 2.3-0.4 2.5-0.1 3 0.2 1.5 0.3 0.8 0.4 0.7 0.5 1 1.5 0.6 0.6 0.7 0.6 0.8 0.1 0.9-0.4 1.2-1.5 4.7-7.5 1.2-1.5 6.6-6 1-1.4 0.4-1.1-2.1-11.2-0.1-3.2 0.1-1.6 1.5-5.5 0.3-1.4 0-1.5-0.2-0.7-0.2-0.8-0.6-1.5-0.2-0.7 0-0.8 0.1-0.7 0.4-0.8 0.6-0.7 1-0.9 0.8-0.6 0.9-0.4 8.6-1.8 1-0.4 1.6-0.7 3.2-1 1.6-0.6 3-2 45.2-0.2z" id="LRRI" name="River Cess">
  </path>
  <path d="M573.6 635.4l5.7-1.4 24.8 0.6 3.5-1.7 2.1-2 3.2-4.8 55.8 31.3 12.3 5.3 13.7-16.7 0.7-0.6 1.5-0.5 2-0.2 6.9 0.4 1.9 0.4 1.7 0.6 6.5 4 2.5 1.9 3 3.1 4.1 5.9 3.3 6 1.2 3.4 0.8 3.1 0.2 1.5-0.1 2.3-0.2 0.8-0.2 0.7-0.4 0.7-0.6 0.7-0.7 0.5-0.8 0.4-3.6 0.9-1.8 0.2-6.9 0.2-1 0.1-1.6 0.4-0.8 0.3-0.8 0.4-0.6 0.6-0.5 0.7-0.4 0.8-0.2 0.8-0.4 2.3-0.2 0.7-0.3 0.8-4.5 6.3-0.9 1.6-0.4 0.9-0.2 0.8 0 1.1 0.2 1.1 0.9 1.8 0.9 0.8 0.9 0.6 3.3 0.7 3 1 1.1 0.8 0.7 0.8 0.4 0.7 0.1 0.9 0 0.8-0.4 2.2 0 0.1-1.7 7.8-0.2 2.8 0.7 3.4 1.8 5.6 1.2 2.4 1 1.6 15.1 15.5 6.6 9.9 0.9 1.9 0.9 3.4 0.2 3.4-0.5 6.8-2.7 1-1.8 1-1.2 1.2-6.8 8.1-1.8 3-0.8 0.9-1 0.8-1.7 0.7-1.2 0.2-9.2 0-1.7 0.2-0.8 0.4-0.8 0.4-14.2 10.9-6.4 3.6-1 1.2-1.4 1.9-5 8.6-3 6.5-0.6 0.8-0.9 0.7-1.8 0.7-1.1 0.3-5.4 0.4-0.8 0.6-0.8 1.3-1.5 5.4-0.5 3.2-1 3.3-1.9 2.5-5.6 5-9.3-3.4-6.7-3.6-15-12.7-5.6-3.6-6.6-3-2.2-0.4-4.4-2-6.6-1-5.2-1.6-5.1-2.4-3.6-2.7 0.6-0.5 0.2-0.2 0-0.2 0.5-0.7-9.4-2.6-7.6-4.5-12.2-10.6-3.4-2.1-7.5-3.6-6.6-4.9-3.9-1.5-3.6-1.8-2.8-3.8 2.8 0-2.9-3.9-4.3-2.4-4.7-1.8-4.2-2.2-13.7-12.9 0.3 0 0.5-0.5 0.1-0.3-0.1-0.3-0.4-0.6-1.9-1.4-0.3-0.3-0.3-0.4-0.1-0.3-0.2-0.9-0.1-1.2 0-0.7 0.1-0.4 0.3-0.4 0.5-0.4 3.2-1 0.7-0.3 0.4-0.3 0.4-0.3 1.4-1.4 0.6-0.3 1.2-0.5 0.6-0.7 0.5-1 0.6-2.1 0.4-1 0.6-0.7 1.2-0.4 0.7-0.1 0.9-0.1 0.6 0.1 0.4 0 0.3-0.1 0.9-0.9 6-7.9 0.8-1.9 1-3.6 0.2-1.8 0.1-1.2-4.4-19.6-1.1-3.3-1.6-2.6-1.3-2.8-0.7-3.1 4.4-4.8 5.9-3.4 6.1-6.1 3.4-2.5 6-2.5 1.9-1 6.6-5.1 2.7-1.1 4.6-0.7 2-0.8 1.7-1.6 0.9-2.4 0.5-5.9 0.6-2.8 2.6-5.2 3.6-4.5 4.5-3.2z" id="LRSI" name="Sinoe">
  </path>
  <path d="M740 777.8l9.5 1.2 3.1 0.9 7.6 5.1 1.3 0.4 1 0.1 1.4-0.8 7.1 0.5 29.9 4.9 2.3 5.6 0.2 1.5 0.1 2.8-0.4 1.4-0.5 1.3-0.7 1.2-1.4 1.9-5.1 8.5-3.2 5.7-7.5 18.7 0 2.1 0.3 1.8 0.3 1.2 0.3 1.1 0.5 0.7 1.1 1.5 1.6 1.2 0.8 0.5 15.3 5.2 13.9 6 3.1 1.8 1.6 1.1 1.8 1.6 1.6 1.6 1.4 1.8 9.4 15.9 3.1 4.2 5 8.7 0.9 2.1 0.4 1.7-0.3 1.8-1.5 5.7-0.3 4.1 0.1 7.8-0.3 1.5-0.6 1.6-0.7 1.5-3.2 5.1-0.7 1.7-4-1.3-5.2-4-2.4-0.9-3.5-0.5-2.1-1.1-1.7-1.4-2.1-1.4-3.8-1.5-9.3-2.5-7.3-1.1-13.5-5.3-26-3.2-7.6-2.5-9.2-10.2-3.4-1.7-4.1-0.8-22.1-8-23.8-16.9-12.4-6.9-20.5-7.5 5.6-5 1.9-2.5 1-3.3 0.5-3.2 1.5-5.4 0.8-1.3 0.8-0.6 5.4-0.4 1.1-0.3 1.8-0.7 0.9-0.7 0.6-0.8 3-6.5 5-8.6 1.4-1.9 1-1.2 6.4-3.6 14.2-10.9 0.8-0.4 0.8-0.4 1.7-0.2 9.2 0 1.2-0.2 1.7-0.7 1-0.8 0.8-0.9 1.8-3 6.8-8.1 1.2-1.2 1.8-1 2.7-1z" id="LRGK" name="Grand Kru">
  </path>
 </g>
 <g id="points">
  <circle class="4.558143470892514|-11.271582302718398" cx="105.7" cy="909.3" id="0">
  </circle>
  <circle class="6.245407560897956|-9.225548567078418" cx="543.8" cy="546.4" id="1">
  </circle>
  <circle class="8.354487673404758|-7.5887215785664335" cx="894.3" cy="91.1" id="2">
  </circle>
 </g>
 <g id="label_points">
  <circle class="Grand Cape Mount" cx="131" cy="379.4" id="LRCM">
  </circle>
  <circle class="Gbarpolu" cx="335.1" cy="281.3" id="LRGP">
  </circle>
  <circle class="Lofa" cx="407.8" cy="136" id="LRLO">
  </circle>
  <circle class="Nimba" cx="648.8" cy="403.9" id="LRNI">
  </circle>
  <circle class="Grand Gedeh" cx="776" cy="618.2" id="LRGG">
  </circle>
  <circle class="River Gee" cx="837" cy="752.3" id="LRRG">
  </circle>
  <circle class="Maryland" cx="865.2" cy="873" id="LRMY">
  </circle>
  <circle class="Bong" cx="484.3" cy="394.8" id="LRBG">
  </circle>
  <circle class="Bomi" cx="204.7" cy="452.3" id="LRBM">
  </circle>
  <circle class="Montserrado" cx="242.4" cy="508.2" id="LRMO">
  </circle>
  <circle class="Margibi" cx="322" cy="463.6" id="LRMG">
  </circle>
  <circle class="Grand Bassa" cx="397.5" cy="555.7" id="LRGB">
  </circle>
  <circle class="River Cess" cx="509.8" cy="626.1" id="LRRI">
  </circle>
  <circle class="Sinoe" cx="622.5" cy="731.5" id="LRSI">
  </circle>
  <circle class="Grand Kru" cx="739" cy="844.3" id="LRGK">
  </circle>
 </g>
</svg>