<?xml version="1.0"?>
    
<!--********* Copyright (c) 2024 Pareto Softare, LLC DBA Simplemaps.com ***************************************
************* Free for Commercial Use, full terms at  https://simplemaps.com/resources/svg-license ************
************* Attribution is appreciated! https://simplemaps.com *******************************************-->

<svg baseprofile="tiny" fill="#6f9c76" height="987" stroke="#ffffff" stroke-linecap="round" stroke-linejoin="round" stroke-width=".5" version="1.2" viewbox="0 0 1000 987" width="1000" xmlns="http://www.w3.org/2000/svg">
 <g id="features">
  <path d="M894.5 454l-0.2 0-6.1-1.1-1.7 0.3-1.6 0.8-8.8 6.8-2.4 1.4-10.4 3.2-3.6 1.8-7 6.6-1.8 0.7-3.5-0.8-2.8-1.9-5.1-5.1-3-4.5-4.1-8.9-4.1-3.7-6-3.5-11.1-4.6-11.8-3.4-3.4-0.1-2.9 0.7-5.6 2.9-3.4 0.9-3.7 0.2-4.3-0.3-18.3 0.9-5.1-0.3-17-5.4-5.9-0.9-16.7 1.2-2.6-0.6-1.4-2.9-0.3-1.4 0.2-1.6-0.8-1.3 4.9-4.7 3-4.9 2-6.4 0.7-8.8-0.9-17.7 0.6-8.8 0-0.1-2-0.6-1.6-1.5-2.8-1.4-6-1.4-4.5-0.5-3.9 0.1-2.3 0.9-1.2 1.5-1.2 1.9-2 1.1-2.5-1.1-5.5-7.5-3-2.3-5.4-1.9-3.3-2-1.3-3.2 0.9-2.7 3.7-6.9 10.8-24.7 1.3-5.8-0.1-4.4-1.7-4.3-1.8-2.9-2.1-1.7-2.7 0.9-4 2.7-21.5 18.6-9.7 5.5-14.9 3.4 1.1-7.5 0.3-7.9 1.4-5.4 2.9-5.4 5.7-6.7 4.2-3.8 4.2-2.5 7.2-1.7 3.6-1.5 4-2.9 30.9-28.6 5.6-6.4 2.7-6.3 2.7-8.8 2.9-41.8 1.2-5.8 3.2-6.4 1.8-8.6 10.2-4.6 1.8-1.7 2.4-3.2 0.3-2-0.2-1.4-0.8-1.2-0.9-0.9-0.9-1.1-0.9-1.4-0.7-2.4-0.4-9.2 3.4-25.2 0.3-1 5.9 2.2 5.7 3.5 0.1 0.1 5.1 4.5 4.8 5.8 15 26.6 20.6 21.1 5.4-0.3 8.8 2.4 8.1 3.8 3.4 4.3 0.1 8.4 2.2 5.4 4.9 3.4 8.4 2.3 12.9 5.9 30.8 32.6 12.3 3.8 14.9 0.4 11.4 4.8 1.9 24.6 4.2 5.1 5.8 4.5 5.1 5.8 2.9 7.2 4.1 15.1 10.4 14.2 3.8 9.3 0.3 2.6-0.3 6.5 0.3 3.1 1.7 2.6 5 5 1.1 2.5-1.3 6.2-6.9 9.9-0.7 6.8 0.2 6.2-1.7 4.8-3.1 3.8-4.3 3.2-9.8 4.3-11.2 3.5-10.5 4.6-7.9 8.1-2.7 9-0.1 9.3z" id="LSJ" name="Mokhotlong">
  </path>
  <path d="M727.4 125.2l-0.3 1-3.4 25.2 0.4 9.2 0.7 2.4 0.9 1.4 0.9 1.1 0.9 0.9 0.8 1.2 0.2 1.4-0.3 2-2.4 3.2-1.8 1.7-10.2 4.6-10 2.7-2.5 1.2-1.9 1.7-4.4 5.6-10 15.7-2.1 4.4-1.4 4.5-2.1 13.7-1 3.4-1.9 3.4-2.4 3-3.2 2.8-3.3 2.2-4.2 2-4.5 1.5-4.6 1-4.1 0.4-4.2-0.2-3.9-0.7-16.6-6.4-3.1-0.3-2.7 0.4-1.8 1.3-1.5 2.3-4.7 9.6-1.2 1.9-1.7 1.2-3-0.4-2.9-2.6-3.4-7.1-1-5.4 0-4.9 8-27.8 0.3-4.1-0.6-4.6-1.8-5.9-0.9-4.8-0.3-5-0.7-4.5-1.7-4.6-5-2.7-3-0.6-6.1-0.2-4-0.5-3.2-1.3-3-2.4-3.5-4.5-3.5-3.3-5.3-2.7-4-1.3-4.3-2.3-13.2-9.4-5-1.7-4.4-0.2-3.2 0.8-3 0.3-9.5-2-2.2-1.9-1.7-3.8-1.7-9.3-0.1-14.9-1.7-6-7.7-4.9-2.8-2.2 4.7-0.4 7.5 3.3 8.6 0.9 8.6-1.1 7.6-2.9 7.2-6.6 10.1-17.4 7.2-7.3 7.7-3.2 52-3.5 7.4-1.8 21.3-14.5 5.5-0.7 7.1 5.2 5 6 3.4 7.1 2.2 8.3 2.7 17.5 4 6 16.5 0.4 5.6 4.7 10.8 20.5 3.1 2.4 11.7 2.1 0.2 0.1z" id="LSB" name="Butha-Buthe">
  </path>
  <path d="M713.8 180.5l-1.8 8.6-3.2 6.4-1.2 5.8-2.9 41.8-2.7 8.8-2.7 6.3-5.6 6.4-30.9 28.6-4 2.9-3.6 1.5-7.2 1.7-4.2 2.5-4.2 3.8-5.7 6.7-2.9 5.4-1.4 5.4-0.3 7.9-1.1 7.5 0.2 4.6 0.7 1.6 1.6 2.8 10.6 14.1 2.5 2.4 4.2 3.2 1.5 2.1 0.4 1.5-1.1 1.5-2.2 1.6-2.7 1-11.2 1-4.1-0.4-5.4-2-18.5-10.2-12.2-4.7-10.5-2.3-3.7-0.3-4.2-1.6-3.6-3.5-9.3-18.9-10.1-29.1-4.4-8.7-1.3-4.3-0.2-4.2 0.2-3.8-0.3-3-1.5-2.3-2.4-1.5-2.7-0.9-5.9-1-3.7-0.2-3.7 0.6-4.3 1.2-3.9 3.9-12.5-3.4-3.6-4.6-1.7-3.4-2.1-3.4-6.4-8-3.9-3.7-4.2-3.3-3.8-1.9-3.6-1.1-8-1.4-3.9-1.2-3.4-2.5-3-4.6-2.3-5.1-2.6-4.5-3.2-3.7-8.4-7.1-4.7-5.3-4.7-4.1-4.7-3.1-4.3-1.8-3.7-0.4-3.6 1.7-4.1 5.5-2.4 7.4-3 5-4.8 3.2-3.5 3.7-10.6 16.4-3.5 3.1-4.5 3-6.3-0.4-3.9-0.9-3.2-1.7-5.8-4.3-3.2-1.7-3.1 0.1-13.8 9.2-2.7 1.5-3.3 1.3-4.3 1.1-14.1 9.5-4.3 1.2-4.7-2-4.7-0.9-6.1 0.1-10 4.5-3.2 0-1.3-7.9 2.5-2.9 2.6 2.9 1.8-0.7 3.5-1.8 2.3-0.4-3.2-4.3-4.7-4.8-1.7-3.9 5.9-1.6 4.7-2.1 4.6-5 7.2-10.4 1.4-0.5 1.8 0.5 1.5 0.2 0.6-1.8 0-3.1 0.4-1.4 0.9-1.3 0.8-2.3 0.4-3.5 0-5.9 3.1-3.4 5.9-2 4-3.3-2.8-7.2 42.6 2.9 9.9-4.5 3.5-6.4 2.4-6.8 3-5.6 5.4-3.1 7.1 0.8 4.4 4.1 3.5 4.5 4.2 2.2 10.1 0 3.4-1 0.4-2.5-0.1-3.3 1.6-3.4 14.1-18.9 16.6-17.8 1.2-2.4 10.3-15.3 5-6.2 3.7-5.2 3.4 1.3 20.2-2.1 2.8 2.2 7.7 4.9 1.7 6 0.1 14.9 1.7 9.3 1.7 3.8 2.2 1.9 9.5 2 3-0.3 3.2-0.8 4.4 0.2 5 1.7 13.2 9.4 4.3 2.3 4 1.3 5.3 2.7 3.5 3.3 3.5 4.5 3 2.4 3.2 1.3 4 0.5 6.1 0.2 3 0.6 5 2.7 1.7 4.6 0.7 4.5 0.3 5 0.9 4.8 1.8 5.9 0.6 4.6-0.3 4.1-8 27.8 0 4.9 1 5.4 3.4 7.1 2.9 2.6 3 0.4 1.7-1.2 1.2-1.9 4.7-9.6 1.5-2.3 1.8-1.3 2.7-0.4 3.1 0.3 16.6 6.4 3.9 0.7 4.2 0.2 4.1-0.4 4.6-1 4.5-1.5 4.2-2 3.3-2.2 3.2-2.8 2.4-3 1.9-3.4 1-3.4 2.1-13.7 1.4-4.5 2.1-4.4 10-15.7 4.4-5.6 1.9-1.7 2.5-1.2 10-2.7z" id="LSC" name="Leribe">
  </path>
  <path d="M834.2 550.5l-0.5 9.6-2.3 11.4-0.2 10.3 5.5 7.7 4.7 3.7 1 3.1-0.2 3.8 0.8 6.1 4.1 8.2 0.9 4.3-2.4 3.7-4.3 2.1-9.9 3-4.5 2-29.3 18.3-14.7 9.2-43.5 28.6-24 10-24.7 5.3-33.6 12.8-12.6 0-18.1-7.1-6.3-0.7-6.1 1.5-16.2 9.7-9.2 3.3-18-2.6-9 1.4-7.4 6.6-3.2 6-0.1-0.2-6.4-9-1.8-1.1-2.3-1.1-2.3 0.4-2.8 0.2-32.3-4-4.2-1.9-2.7-2.7-1.4-2.9-0.5-2.8 0-3.2 0.4-3.6 1.8-7.3 1.7-3.3 2.9-3.1 11.5-6 7.1-0.5 1.7-1.6 1.1-3.4-2.5-7.4-2.8-9.8 1.9-1.3 11.5-5.8 13.5 2.9 4.1 4.1 6.1 10.9 1.4 1.7 1-0.7 1.7-0.4 13-8.8 8.2-6.8 2-1.3 1.7-1 2.1-0.8 2.3-1.8 3-3 4.7-6.9 3.8-3.5 3.9-2.8 12.8-5.2 4.4-2.2 2.7-2.8 1.6-5-0.1-5.3-2.2-13.1 0.8-8 2.3-10.7 0.1-9.1-5.5-10.2 6.3-2.4 3.6-0.2 5 0.2 7.6 1.7 10.4 4.1 7.2 4.2 6.9 5.2 2.6 2.6 2 2.8 1.1 3.2 0.3 3.8-0.7 8.2 0.2 3.6 0.8 2.7 1.8 2.3 2.1 1.6 1.6 0.8 4.7-2.2 2.8-2.8 2.4-3.1 2.6-2.7 3.6-1.7 3.5 0.2 3.6 1.2 3.5 0.4 3.8-2 2.9-5.4-1-5.4-2.4-5.3 0.6-0.1 3.5-0.8 7.7-0.1 5.4 1.1 5.1 2.2 20.1 16.5 5.5 2.4 6 0.7 7.7-1 5.9-1.9 5.6-2.9 5.8-6.5 2.7-4.8 1.5-4.8 2.9-26.4 2.1-3.3 3.6-2 7.7 1.8 12.6 4.9 7.7 0.8 5.6-1.4 0.2-0.1z" id="LSH" name="Qacha's Nek">
  </path>
  <path d="M894.5 454l0 1.7 2.6 10.3 5.3 6.6-6.1 4.2-0.6 6.7 0.1 7.1-4.2 5.4-28.8 8.9-10.8 8.7-6.1 10.7-4.7 12.2-7 12.8 0 1.2-0.2 0.1-5.6 1.4-7.7-0.8-12.6-4.9-7.7-1.8-3.6 2-2.1 3.3-2.9 26.4-1.5 4.8-2.7 4.8-5.8 6.5-5.6 2.9-5.9 1.9-7.7 1-6-0.7-5.5-2.4-20.1-16.5-5.1-2.2-5.4-1.1-7.7 0.1-3.5 0.8-0.6 0.1 2.4 5.3 1 5.4-2.9 5.4-3.8 2-3.5-0.4-3.6-1.2-3.5-0.2-3.6 1.7-2.6 2.7-2.4 3.1-2.8 2.8-4.7 2.2-1.6-0.8-2.1-1.6-1.8-2.3-0.8-2.7-0.2-3.6 0.7-8.2-0.3-3.8-1.1-3.2-2-2.8-2.6-2.6-6.9-5.2-7.2-4.2-10.4-4.1-7.6-1.7-5-0.2-3.6 0.2-6.3 2.4-10.6 8.1-3.7 4.9-9.7 1.4-8.5 2.8-9.8 6.3-9.1 5.6-6.7 2.1-7.3-3.5-9.1 3.5-1.8 7 0 6.3-5.5 1.4-7.3 0.8-7.3 4.2-3.7-7-3-5.7-5.5-2.1-4.8-2.8-0.7-3.1-5.6-26.3-5.6-10.2 9.4-11.5-9.1-9.8-7.9-1.1-5.7-21.8-0.5-3.8 0.5-4.4-9.7-55.6-0.9-3.3-1.4-1.9-3-1.3-0.9-1.6-0.6-2.3-0.7-1.7-2.4-1-1-1.2-1.1-1.8-2.1-2.5-1.3-2.7-0.7-3.7 1-6.3-0.4-4.2 0.4-4 0.9-3.7 1.4-4.1 1.7-3.6 2.1-2.3 2.9-0.3 4.8-2 3.6-2 20.3-18.9 3.7-5.9 1.1-2.1 3.1-5 1.8-2 16.3-12.3 3-3.6 1.7-4.3 0-6.7-5.2-12.7-2-6.4-1.1-2.6-1.4-2.4-2.9-4.2-1.2-6.4 5.9-14.6 3.9-3.9 4.3-1.2 3.7-0.6 3.7 0.2 5.9 1 2.7 0.9 2.4 1.5 1.5 2.3 0.3 3-0.2 3.8 0.2 4.2 1.3 4.3 4.4 8.7 10.1 29.1 9.3 18.9 3.6 3.5 4.2 1.6 3.7 0.3 10.5 2.3 12.2 4.7 18.5 10.2 5.4 2 4.1 0.4 11.2-1 2.7-1 2.2-1.6 1.1-1.5-0.4-1.5-1.5-2.1-4.2-3.2-2.5-2.4-10.6-14.1-1.6-2.8-0.7-1.6-0.2-4.6 14.9-3.4 9.7-5.5 21.5-18.6 4-2.7 2.7-0.9 2.1 1.7 1.8 2.9 1.7 4.3 0.1 4.4-1.3 5.8-10.8 24.7-3.7 6.9-0.9 2.7 1.3 3.2 3.3 2 5.4 1.9 3 2.3 5.5 7.5 2.5 1.1 2-1.1 1.2-1.9 1.2-1.5 2.3-0.9 3.9-0.1 4.5 0.5 6 1.4 2.8 1.4 1.6 1.5 2 0.6 0 0.1-0.6 8.8 0.9 17.7-0.7 8.8-2 6.4-3 4.9-4.9 4.7 0.8 1.3-0.2 1.6 0.3 1.4 1.4 2.9 2.6 0.6 16.7-1.2 5.9 0.9 17 5.4 5.1 0.3 18.3-0.9 4.3 0.3 3.7-0.2 3.4-0.9 5.6-2.9 2.9-0.7 3.4 0.1 11.8 3.4 11.1 4.6 6 3.5 4.1 3.7 4.1 8.9 3 4.5 5.1 5.1 2.8 1.9 3.5 0.8 1.8-0.7 7-6.6 3.6-1.8 10.4-3.2 2.4-1.4 8.8-6.8 1.6-0.8 1.7-0.3 6.1 1.1 0.2 0z" id="LSK" name="Thaba-Tseka">
  </path>
  <path d="M235.4 343.6l3.1-1 3.7-3.2-0.6-5-2.3-9.9 0.1-4.1 2.5-3.8 3.8-2.3 3.8-1.5 2.7-1.5 21.4-26.3 8.5-15.9-0.5-2.4 3.2 0 10-4.5 6.1-0.1 4.7 0.9 4.7 2 4.3-1.2 14.1-9.5 4.3-1.1 3.3-1.3 2.7-1.5 13.8-9.2 3.1-0.1 3.2 1.7 5.8 4.3 3.2 1.7 3.9 0.9 6.3 0.4 4.5-3 3.5-3.1 10.6-16.4 3.5-3.7 4.8-3.2 3-5 2.4-7.4 4.1-5.5 3.6-1.7 3.7 0.4 4.3 1.8 4.7 3.1 4.7 4.1 4.7 5.3 8.4 7.1 3.2 3.7 2.6 4.5 2.3 5.1 3 4.6 3.4 2.5 3.9 1.2 8 1.4 3.6 1.1 3.8 1.9 4.2 3.3 3.9 3.7 6.4 8 2.1 3.4 1.7 3.4 3.6 4.6 12.5 3.4-5.9 14.6 1.2 6.4 2.9 4.2 1.4 2.4 1.1 2.6 2 6.4 5.2 12.7 0 6.7-1.7 4.3-3 3.6-16.3 12.3-1.8 2-3.1 5-1.1 2.1-3.7 5.9-11-17.3-1.6-0.6-2-0.5-0.9 1.5-1.2 1.3-1.5 1-8.1 2.8-2.9 1.5-2.4 2-4.3 5.4-12.1 9.5-8.6 8.7-3.8 2.4-2.8-0.7-2.4-2.6-1.1-3.2-0.3-3.9 0.8-9.4 0-4.4-0.3-4-2.8-12.2-1.2-3.6-1.7-2.5-1.9-0.1-2.3 2.3-7 10.5-3.3 3.7-7.7 6.2-7.1 3.9-4.1 1.5-11 2.3-4.5-0.7-3.4-1.2-22.6-13.5-6-2.1-4.2-0.5-3.8 0.1-6.9 1.6-2.8 1.3-2 1.7-1.3 2.4-0.6 2.6-0.9 2.9-1.9 1.9-5.6 1.1-6.1-2.3-11.1-2.3-5.7-2.7-9.3-6.8-3-0.7-2.6 1.2-4.3 6.1-3.7 3.2-4.6 2-8.4 1.3-4.2-0.4-3.5-1.6-1.7-2.6-1-2.5 0-2 0.2-1.3 1.8-4.8-0.1-1.1-0.6-1-1.5-0.8-1.8-0.6-1.5-0.8-1-1-1.7-3.2-0.3-0.7z" id="LSD" name="Berea">
  </path>
  <path d="M156.8 450.5l0.8-0.9 2.5-3.8 1.9-4.5 0.7-4.9 2-1.6 8.8 0.4 2-1.8 1.6-7.7 4.1-6.7 15.5-17.1 2.5-1.8 1.5-2.6 0.5-5.5-1.1-3.3-2.2-2.7-1.5-2.5 0.9-2.9 3.4-2.8 3.4-1.1 3.5-1.9 3.6-5 0.9-3.8 0.7-10 1.2-3.5 6.2-3.9 15.2-5 0.3 0.7 1.7 3.2 1 1 1.5 0.8 1.8 0.6 1.5 0.8 0.6 1 0.1 1.1-1.8 4.8-0.2 1.3 0 2 1 2.5 1.7 2.6 3.5 1.6 4.2 0.4 8.4-1.3 4.6-2 3.7-3.2 4.3-6.1 2.6-1.2 3 0.7 9.3 6.8 5.7 2.7 11.1 2.3 6.1 2.3 5.6-1.1 1.9-1.9 0.9-2.9 0.6-2.6 1.3-2.4 2-1.7 2.8-1.3 6.9-1.6 3.8-0.1 4.2 0.5 6 2.1 22.6 13.5 3.4 1.2 4.5 0.7 11-2.3 4.1-1.5 7.1-3.9 7.7-6.2 3.3-3.7 7-10.5 2.3-2.3 1.9 0.1 1.7 2.5 1.2 3.6 2.8 12.2 0.3 4 0 4.4-0.8 9.4 0.3 3.9 1.1 3.2 2.4 2.6 2.8 0.7 3.8-2.4 8.6-8.7 12.1-9.5 4.3-5.4 2.4-2 2.9-1.5 8.1-2.8 1.5-1 1.2-1.3 0.9-1.5 2 0.5 1.6 0.6 11 17.3-20.3 18.9-3.6 2-4.8 2-2.9 0.3-2.1 2.3-1.7 3.6-1.4 4.1-0.9 3.7-0.4 4 0.4 4.2-1 6.3 0.7 3.7 1.3 2.7 2.1 2.5 1.1 1.8 1 1.2 2.4 1 0.7 1.7 0.6 2.3 0.9 1.6 3 1.3 1.4 1.9 0.9 3.3 9.7 55.6-0.5 4.4 0.5 3.8 5.7 21.8-15.2-2.4-8.5 0-11.6-0.8-9.1 2.9-3 4.2 7.3 4.2 5.4 9.8 1.9 8.4 1.8 7.7 0 4.2 10.3 0.7 7.9-2.1 4.3 1.4-3.7 8.4 1.9 7 3 7.7 0 2.8-7.9 0-6.7 3.5 1.2 6.4 0 9.8-6.1 7-9.7 2.8-3.1-9.5-3.7-3.2-1.3-2.9-2.8-3.4-4.6-2.5-16.9-2.3-5.9-1.8-8.2-6.2-8.3-4-48.2-9.4-8-2.7-14.7-0.1-31.2 4.5-4.2-2.1-0.6-3 2.9-3.6 3.6-3.7 1.9-5-0.2-6.1-18.2-29.9-3.9-3-3.9-0.8-11.8 0.4-8.8-2.3-4.2-3.8-1.6-4.6 0.3-9.8-1-3.5-1.8-0.5-2.2 1.4-6.5 8.2-1.6 1.4-2.1 1.2-9.9 2.9-3.6 0.1-2.9-0.5-5.6-1.6-2.7-1.9-1.6-2.7-0.2-3.1-0.7-3.8-1.9-4.9-9.5-10.8-2.6-4.5-1.5-4.2-4.6-8.3-1.2-3.5-1.1-7.5-1.7-3.6-1.9-1.8-2.3-1.1-2.5-0.5-1.9 0.1-4.1 0.9-8-1.9-0.9-0.2z" id="LSA" name="Maseru">
  </path>
  <path d="M108.7 623.1l-30.9-73.8-3.2-6.4-10.9-16.5-5-4.4-4.9-2.8-5.3-4.3-3-1.5 4.5-10.7 0.2-6.9 2.8-4 4 0 3.5 5.1 2.5-3.3 2.9-6.9 2-1.8 3.7-0.1 1.1 2.2 1 2.7 3 1.3 1.7-1.2 12.1-12.8 2-1.4 10.6-4.3 10.9-1.1 3.8-1.4 6.7-3.7 10.5-2.2 7.9-3.4 12.2-7.2 1.7-1.8 0.9 0.2 8 1.9 4.1-0.9 1.9-0.1 2.5 0.5 2.3 1.1 1.9 1.8 1.7 3.6 1.1 7.5 1.2 3.5 4.6 8.3 1.5 4.2 2.6 4.5 9.5 10.8 1.9 4.9 0.7 3.8 0.2 3.1 1.6 2.7 2.7 1.9 5.6 1.6 2.9 0.5 3.6-0.1 9.9-2.9 2.1-1.2 1.6-1.4 6.5-8.2 2.2-1.4 1.8 0.5 1 3.5-0.3 9.8 1.6 4.6 4.2 3.8 8.8 2.3 11.8-0.4 3.9 0.8 3.9 3 18.2 29.9 0.2 6.1-1.9 5-3.6 3.7-2.9 3.6 0.6 3 4.2 2.1 31.2-4.5 14.7 0.1 8 2.7 48.2 9.4 8.3 4 8.2 6.2 5.9 1.8 16.9 2.3 4.6 2.5 2.8 3.4 1.3 2.9 3.7 3.2-7.8 4.6-0.7 9.8-5.4-1.4-9.8-2.8-9.7-6.3-9.1 0-9.8 0-6-7-6.7-4.2-4.3 5.6-1.2 10.5-2.4 6.3-4.3-6.3-6.7-8.4-6.7-0.7 1.9 9.1-1.3 5.6-6 7-7.9 2.1-8.6-4.9-6-5.6-7.3 4.2-3.1 7-5.4 1.4-6.3 0.3-3.7 2.7-4.2 1.7-3.5 0-3.8-2.4-2.5-2.6-2.2-3-5.4-8.5-3.3-1.9-4.7-0.6-8 0.8-4.8-0.4-3.5-2-1.7-2.3-1.1-1-0.8 0.2-1.8 6.9-0.7 2-1.1 1.9-1.6 1.7-2 1.7-1.9 1.3-1.5 1.3-0.6 1.4-0.6 2.2-1 2.3-1.1 1.6-15.5 15.7-1 1.2-0.8 1.4-1.5 3.5-1.1 1.4-1.7 1.4-2.6 0.9-3.4 1.9-2.1 0.3-2.7-0.7-8-7.6-9.6-7-1.2-1.4-0.6-1-2.9-6.6-1.3-4.2-1-4.9-0.9-6 0-7.5 1.1-7.9 1-3.8 6.5-17.9 0.1-2.7-1.8-2.4-3.3-0.9-5.6 1-3.6 2.8-2 2.2-2.6 2.1-3.3 1.2-7.5 0.5-3-0.9-2.2-1.4-1.8-0.4-2.7 0.9-10.6 8.2-25.7 12.5-6.1 2.3z m378.3-91.2l7.9 1.1 9.1 9.8-9.4 11.5 5.6 10.2 5.6 26.3 0.7 3.1 4.8 2.8 5.5 2.1 3 5.7 3.7 7 7.3 11.2 3 8.4-3.6 4.2-3.7 4.9-5.4-4.2-5.5-4.9-5.5-7-9.7-5.6-10.4-1.4-8.5-0.7-15.2-0.7 0-9.8-1.2-6.4 6.7-3.5 7.9 0 0-2.8-3-7.7-1.9-7 3.7-8.4-4.3-1.4-7.9 2.1-10.3-0.7 0-4.2-1.8-7.7-1.9-8.4-5.4-9.8-7.3-4.2 3-4.2 9.1-2.9 11.6 0.8 8.5 0 15.2 2.4z" id="LSE" name="Mafeteng">
  </path>
  <path d="M108.7 623.1l6.1-2.3 25.7-12.5 10.6-8.2 2.7-0.9 1.8 0.4 2.2 1.4 3 0.9 7.5-0.5 3.3-1.2 2.6-2.1 2-2.2 3.6-2.8 5.6-1 3.3 0.9 1.8 2.4-0.1 2.7-6.5 17.9-1 3.8-1.1 7.9 0 7.5 0.9 6 1 4.9 1.3 4.2 2.9 6.6 0.6 1 1.2 1.4 9.6 7 8 7.6 2.7 0.7 2.1-0.3 3.4-1.9 2.6-0.9 1.7-1.4 1.1-1.4 1.5-3.5 0.8-1.4 1-1.2 15.5-15.7 1.1-1.6 1-2.3 0.6-2.2 0.6-1.4 1.5-1.3 1.9-1.3 2-1.7 1.6-1.7 1.1-1.9 0.7-2 1.8-6.9 0.8-0.2 1.1 1 1.7 2.3 3.5 2 4.8 0.4 8-0.8 4.7 0.6 3.3 1.9 5.4 8.5 2.2 3 2.5 2.6 3.8 2.4 3.5 0 4.2-1.7 3.7-2.7 6.3-0.3 5.4-1.4 3.1-7 7.3-4.2 6 5.6 8.6 4.9 7.9-2.1 6-7 1.3-5.6-1.9-9.1 6.7 0.7 6.7 8.4 4.3 6.3 2.4-6.3 1.2-10.5 4.3-5.6 6.7 4.2 6 7 9.8 0 9.1 0 9.7 6.3 9.8 2.8 5.4 1.4 0.7-9.8 7.8-4.6 3.1 9.5 9.7-2.8 6.1-7 15.2 0.7 8.5 0.7 10.4 1.4 9.7 5.6 5.5 7 5.5 4.9 5.4 4.2 3.7-4.9 3.6-4.2-3-8.4-7.3-11.2 7.3-4.2 7.3-0.8 5.5-1.4 0-6.3 1.8-7 9.1-3.5 7.3 3.5 6.7-2.1 9.1-5.6 9.8-6.3 8.5-2.8 9.7-1.4 3.7-4.9 10.6-8.1 5.5 10.2-0.1 9.1-2.3 10.7-0.8 8 2.2 13.1 0.1 5.3-1.6 5-2.7 2.8-4.4 2.2-12.8 5.2-3.9 2.8-3.8 3.5-4.7 6.9-3 3-2.3 1.8-2.1 0.8-1.7 1-2 1.3-8.2 6.8-13 8.8-1.7 0.4-1 0.7-1.4-1.7-6.1-10.9-4.1-4.1-13.5-2.9-11.5 5.8-1.9 1.3-9.3 6.7-12.5 4.2-16.2-1.5-8.6 1.4-3.7 5.6-2.2 6-5.6 3.5-12.8 4-6.6 0.9-19.4-5-3.3 0.3-9.4 2.1-10.2-0.1-3.9 1.6-3.1 2.6-2.6 3.4-7.9 14.9-1.5 5.5 0 6.4 3 10.7 0.5 5.2-2.1 5.2-1.8 1.8-4.5 3-1.9 2.1-1.3 2.4-2 5.3-1.3 2.5-10.2 5.7-5.9 7.2-1.7 1.6-6.4 2.4-6.7 0.4-12.6-2.8-1.5-1.2-2.5-4.4-1.9-1.2-3.5 0.4-1.4 2.5 0.1 3.7 0.7 4 5.5 17 0.4 8.2-4.3 8.3-12.7 5.9-25.4-10.3-13.3 3.6-2.5 3.9-2.5 9.5-2.6 3.2-3.1 0.4-3.9-1-5.1 1.8-1.4-4.8-13.6-6.3-5.9-5-4-6.5-2.8-10.6-2.7-2.9-6 0-7.9 3.3-2.6 0.4-3.8-0.6-7.5-2.1-0.2-0.1-4.1-0.5 0.6-6.7-8.3-23.3-0.7-12.4 8.2-20.3 5.6-5.8 0.3-4.2-3.5-2.9-5.7-1.6-8.3 0-4.7 1.1-3.4-1.4-4.6-7.2-2.5-6.1-5.1-20.4-5.3-8.7-17.9-15.2-7.2-8.5-10.2-24.6z" id="LSF" name="Mohale's Hoek">
  </path>
  <path d="M551 731.8l-6.3 12-5.9 5.9-3.4 2.6-4.7 6.8-2.6 2.6-3.6 1.6-10.9 1.6-6.9 2.8-7.8 4.8-5.8 6.5-0.8 8.1 4.1 5.8 5.5 2.6 4.4 3.8 1 9.9-2.7 9.3-4.9 5.9-31.7 25.1-3 5.2 0.8 3.4 4.4 7.6 1.2 4.3-0.5 3.5-6.3 20.2-1.3 2.6-3 4-2.9 2.5-3.2 1.8-3.1 2.2-2.4 4.1-2.2 8.7 0.3 7.1 0.9 6.9-0.1 8.5-9-4-44.1-3.8-7.8-2.6-7.5-3.7-3.5-2.9-3-2.9-3.1-2.5-4.4-1.5-3.2 0.5-7.2 3.6-3.7 0.6-15.7-2.1-13-4.1-11.2-7.2-20.2-23.1-22.8-17.4-2.3-3.7-0.6-3.9-0.2-3.9-1.3-3.8-8.9-12.8-9.8-9.6-1.2-4.3 5.1-1.8 3.9 1 3.1-0.4 2.6-3.2 2.5-9.5 2.5-3.9 13.3-3.6 25.4 10.3 12.7-5.9 4.3-8.3-0.4-8.2-5.5-17-0.7-4-0.1-3.7 1.4-2.5 3.5-0.4 1.9 1.2 2.5 4.4 1.5 1.2 12.6 2.8 6.7-0.4 6.4-2.4 1.7-1.6 5.9-7.2 10.2-5.7 1.3-2.5 2-5.3 1.3-2.4 1.9-2.1 4.5-3 1.8-1.8 2.1-5.2-0.5-5.2-3-10.7 0-6.4 1.5-5.5 7.9-14.9 2.6-3.4 3.1-2.6 3.9-1.6 10.2 0.1 9.4-2.1 3.3-0.3 19.4 5 6.6-0.9 12.8-4 5.6-3.5 2.2-6 3.7-5.6 8.6-1.4 16.2 1.5 12.5-4.2 9.3-6.7 2.8 9.8 2.5 7.4-1.1 3.4-1.7 1.6-7.1 0.5-11.5 6-2.9 3.1-1.7 3.3-1.8 7.3-0.4 3.6 0 3.2 0.5 2.8 1.4 2.9 2.7 2.7 4.2 1.9 32.3 4 2.8-0.2 2.3-0.4 2.3 1.1 1.8 1.1 6.4 9 0.1 0.2z" id="LSG" name="Quthing">
  </path>
 </g>
 <g id="points">
  <circle class="-30.55439742171238|27.123842646795225" cx="90.9" cy="896.8" id="0">
  </circle>
  <circle class="-29.71918220564777|28.34071927861215" cx="545.5" cy="536" id="1">
  </circle>
  <circle class="-28.675163185567005|29.314220584065687" cx="909.1" cy="89.3" id="2">
  </circle>
 </g>
 <g id="label_points">
  <circle class="Mokhotlong" cx="797.5" cy="322.7" id="LSJ">
  </circle>
  <circle class="Butha-Buthe" cx="630.5" cy="127.6" id="LSB">
  </circle>
  <circle class="Leribe" cx="523.5" cy="208.9" id="LSC">
  </circle>
  <circle class="Qacha's Nek" cx="675" cy="654.7" id="LSH">
  </circle>
  <circle class="Thaba-Tseka" cx="625.6" cy="466.3" id="LSK">
  </circle>
  <circle class="Berea" cx="377.3" cy="310.6" id="LSD">
  </circle>
  <circle class="Maseru" cx="356.3" cy="471.6" id="LSA">
  </circle>
  <circle class="Mafeteng" cx="144.1" cy="532.3" id="LSE">
  </circle>
  <circle class="Mohale's Hoek" cx="268.3" cy="717.8" id="LSF">
  </circle>
  <circle class="Quthing" cx="394.9" cy="834.6" id="LSG">
  </circle>
 </g>
</svg>