<?xml version="1.0"?>
    
<!--********* Copyright (c) 2024 Pareto Softare, LLC DBA Simplemaps.com ***************************************
************* Free for Commercial Use, full terms at  https://simplemaps.com/resources/svg-license ************
************* Attribution is appreciated! https://simplemaps.com *******************************************-->

<svg baseprofile="tiny" fill="#6f9c76" height="762" stroke="#ffffff" stroke-linecap="round" stroke-linejoin="round" stroke-width=".5" version="1.2" viewbox="0 0 1000 762" width="1000" xmlns="http://www.w3.org/2000/svg">
 <g id="features">
  <path d="M945.1 365.3l0-0.1-0.4-1.1-3.3-6-1.3-1-2.2-1.1-2.2-0.1-7.1 2.2-1.4 0.9-1 1.2-7.7 4.8-17.3 5.1-20.9-1.1-7.8-1.8-5.4-3.5-3-1.3-1.9 0.1-1.4 0.7-1.5 1.1-2.8 0.5-1.9-1.1-1.1-2.7 0.2-2.6 1.1-2.6 1-2 0.1-1.9-1-1.9-2-1.9-4.1-2-2.1-0.5-9.7 0.3-0.6 0.1-0.9 0.4-0.9 0.7-1.1 1-0.6 1-1 2.3-0.5 0.9-0.9 1.2-1.5 1.3-2.1 1-2.7 0.7-1.7-0.5-0.7-0.9-0.4-1.1-0.3-1.1-1.1-1.4-1.1-0.2-4.5 1.2-1.8-0.5-1.3-1.2-1.6-3.2-1.8-2.3-5.9 3.3-5.7-1.9-6.7-4.3-3.1 10.9-1 2.2-4.6 5.5-4.4 2.9-0.8 1.5-0.5 1.8-0.6 4.1 0.6 2.4 0.6 1.8 2.4 3 4.7 4.3 1 1.6 0.8 1.5 2.6 3.2 1.6 1.4 2.8 1.5 1.2 1.1 1.5 0.9 1.5 0.6 0.9 1.1-0.5 1.7-3.7 3.1-0.5 1.5 0.2 1.2 1 0.9 0.5 0.7-0.5 1.1-1.2 1.4-3.1 2.7-0.3 2.2 0.4 1.9 0.7 1.5-0.8 0.7-2.1 0.1-8.3-1.6-1.4-0.8-0.4-1.1-0.5-1-4.9-0.1-16 3.8-21.1 6.6-2 1.1-2.3 0.4-2.5-0.3-9.8-3.5-7.3-0.2-1-6.1-0.4-1.3-0.9-2-2.6-2.1-2.3-1.2-6.3-1.6-1.1-0.9-0.3-1.5 0.8-3.1 0.9-4.2-0.3-5.4 5.3-2.1 1.4-0.9 2.2-1.9 2.7-1.7 1.7-2.2 1.5-0.8 1.8-0.6 1.2-0.6 0.3-1.3-2.1-1.6-7.5-4.5-1.8 0-1.5 0.3-1.6-0.1-1-1.1-0.6-3.2 0.7-1.7 2.4-3.1 0.7-1.6 0.6-1.7-0.1-1.5-0.9-1.3-2.5-0.5-2.1 0.4-1.8 0.7-1.5 0.3-1.5-0.8-2-2.9-4.2-3.3-1.4-1.5-0.7-1.2 0.4-5.4-11.8 1-1.5-0.4-1.5-0.8 0-1.3 0.2-1.9 0-2.1-0.2-2.3-0.6-1.8-0.8-0.6-1.1 0.1-6.2 3.1-3 0.8-1.4-0.3-0.5-1 0.2-1.7 0.1-1.7-0.8-1.7-1.6-0.5-7.5-0.2-2.5-0.9-1.8-1.4-1-1.8-0.8-1.7-0.5-1.8-0.1-1.6 0.1-1.8 0.6-1.5 0.9-1.2 2.2-1.4 0.8-0.9 0.1-1.5-1-2.4-3.8-4.4-21.4-16.2 3-5.1 0-1.8-0.5-1-0.3-0.9-0.2-1.1-0.1-4.6 0.5-2.5 1.2-2.4 1.6-1.6 2.8-2.2 0.6-1.4-0.1-1.8-1-3.4-1.6-2.4-1.8-1.7-2-1.2-1.5-1.2-0.5-1.1 1.2-1.1 4.5-1.2 1.1 0.6 1 1.2 1.8 0.8 1.7-0.5 1.3-1.4 0.8-1.9-0.1-1.3-0.7-1.6-3.3-2.5-0.8-1.3 0.4-2.1 0.3-1.3-0.2-3.5 10.1 1.6 1.8-0.4 2.3-1 1.9-0.2 4.4 1.9 1.5 0.2 1.2-0.9 0.6-0.9 0.5-1 0.8-0.7 1.3-0.3 5 0.4 2.1-0.3 2.9-1.6 4.7-1.2 9.7 0.8 0.6 0.2 2.3 1.7 0.5 0.6 1.1 2.1 1 1.1 2.3 2 0.4 1.2-0.5 2.4 0.3 0.8 1.4 0.5 2.3 0 4.5-0.9 17.8-7 1.2-0.3 1.7-0.1 3.4 1.2 1.4 0.2 0.9-0.7 0.2-1.9-0.9-4.1 1.1-2 1.1-1.3 11.7-6.7 3.1 3 0.6 2 1.1 2.8 1 1.4 1 0.6 0.9-0.3 1.7-1.7 1.2-0.8 1.5-0.1 1.4 1.2 0.6 1.3 2.8 4.4 6.4-3.2 2.3-1.8 2.2-0.5 16.7-0.5 1.9 0.4 0.5 0.6 0.4 1.1 0.2 0.7 0.3 1.6 5.8-6.7 1.2-1.8 2.2-4.6 1.4-0.9 1.2 0.2 3 1.3 2.9 0.4 1-0.5 0.8-1.6 2.5-8.7 1.4-3.8 4.2-6.3 0.8-3.1 1-2.5 2-2.5 3.2-2.5 1.6-1.6 1.9-2.7 0.9-1.8 0.3-2.7 0-5 3.1-5.5 8.7 5.8 9.6 10.8 15.3 13.4 3.9 6.1 3.6 8.4 8.1 14.8 9.7 7.4 21.5 10.4 8.7 2.4 8.8 0.7 1.5 6.5 0.6 7.4-0.4 7.2-1.5 6-3 4.8-3.8 4.4-3 5-0.7 6.6 2.9 5.7-0.5 3.2-5.5 5.5-1.3 3.1-2 10.1-1.1 2.6-3.7 6.9-1.5 5 0.7 2.9 2.4 1.7 9.2 3.4 2.7 0.2 9.3-2.6 25.7 4.6 3.5 2.7 1.4 4.6-1.7 4.3-3.7 2.9-4 1.1z" id="LTUT" name="Utenos">
  </path>
  <path d="M945.1 365.3l-6 1.6-2.4 1.4-4.4 4.4-2.4 3.4-1.2 2.9-1 7.5-1.7 7.9-2.4 3.9-3.4 0.6-16.3-7.3-2.2 0.2-1.3 1.4-0.9 1.6-1 1-1.5 0.5-1.3 0-17.2-4.4-6.9 1.2-4.9 7.7-0.4 3.1 0.1 6.7-0.2 3.2-0.8 2.3-5.7 12.5-2.7 4.2-2.6 3.9-2.3 2.6-5.6 3.2-18.8 3.9-2.8-0.1-5.7-1.3-2.8-0.1-5.8 2.5-1.8 1.6-0.6 2-0.3 2.5-1 2.7-3.2 3.8-3.6 2.8-3.1 3.2-1.6 5.1 0.3 2.4 1.3 5.4 0.1 2.2-0.7 2.2-0.8 0.5-1 0.1-1.6 0.8-3.3 3-1.7 2.4-0.5 3.6 0.6 13.7-0.3 2.7-0.6 2.9-0.8 2.4-0.7 2.7-0.1 3.4 1 5.2 3.8 9.5 0.9 5.2-0.8 5.3-2.2 4.2-2.9 3-9.5 5.6-2.3 3.2-1.7 5.4-0.7 7 0.1 5.6-0.6 5.1-2.7 5.8-7.1 8.6-2.9 5.7-0.3 6.7 2.2 3.4 3.3 1.3 6.7-0.5 9.3-4.9 2.3-0.6 2.1 1.3 0.9 2.1 0.5 2.6 1.6 4.7 0.6 1 0.7 0.2 1.7-0.6 0.7 0.1 1.5 1.7 1.4 1.9 1.2 2.4 1 3 0.7 0.8 0.8 0.3 0.8 0.6 0.4 1.6-0.4 1.2-1.8 2.5-0.5 1.2-0.2 12.1-1.2 4.1-3.6 2.7-1.8 0.3-5.8-0.8-1.7 0.8-2.4 3.4-1.6 0.9-3.4 0.1-13.7-2.2-4.2-2.1-3.5-3.4-1.2-4.7 1.2-1.8 4.4-1.6 1.1-1.9-0.9-2.3-3.7-2 0.4-2.6 3.1-1.9 3.7 0.3 1.3-1-10.9-14.9-0.8-1.5-1-1-2-0.5-3.9 1.9-6.2 9.2-3.7 2.4-12.7 0.7-9.9-3.5-2.7 0.5-2 3.5-3.2 12.4-2.5 5.5-6.4 7.1-6.7 4.4-6.9 1.2-12.2-4.8-7.2-1-7.1 0.8-0.8 0.5 0-0.1-2.8-5.5-1.1-3.8-0.7-1.8-1-1.3-1.4-1-3.8-1.8-1.5-1.4-0.7-2.1 0.5-2.5 16.6-16.6 5.6-7.3 1.1-3.9 0.9-8.1 0.7-3.7 0.5-1.2 0.7-0.8 1.5-0.9 4.1-0.9 2.9-1.5 0.4-1.7 0.2-1.3-0.3-12.1-7.7 0.7-12.7 4.7-7.2 5.3-1.7 0.3-2-0.7-3.1-0.6-1.9 0.4-2.4 1.6-1.3 0.5-1.7-0.1-1.1-1.4-0.3-1.6 0.5-1.8 0.2-1.5-0.4-1.6-1-0.9-4.5-2.1-4.3-0.8-2.1 0.1-2.7 1.6-3.7 1.6-1.9 1.4-5.2 1.5-2.6 0.2-13.6-1.9-3.1-1.9-0.6-1.8 0-2.2 0.6-2.2 0.7-4-0.7-2-2.7-2.9-0.1-0.6 0.4-0.8 0.8-0.9 0.1-2.5 0.4-1.6-1.6-6.1 1.7-2.1 0.5-1.2 0.6-2.1 0.4-5.7 0.5-2.5 0.8-1.6 1.4-0.3 1.2 0.7 1.5 0.3 1.4-0.3 1.2-1.1 0.8-1.5 0.4-2.5 0.4-1.6-0.1-1.5-0.2-1.1-2.2-2.6 0.4-3.1-0.2-1.4-0.3-2-0.6-2.2-0.4-2.1 0.2-2.6 1.4-2 2.6-1.6 6.3-2 1.9-3.2 1-0.9 1.7 0.1 5.7 1.3 1.7-0.4 1.1-1.2 0.3-3.1 0.1-2.7 0.3-2.5 0.5-2.5 0.8-2 1-2.3 0.4-1.2 1.1-5.1 0.4-1.6 1-1.4 1.8-1.5 10.2-5.7 2-2.1 2.7-5.6 4.5-3.5-0.8-1.7-3.4-4.6-2.7-2.2-2.9-1.1-6.6-0.5-2.8-1.2-8.3-7.8-8-4.1-2-2.5-1.3-0.6 2.9-4.3 1-2.3 0.9-1.6 0.5-0.8 0.8-0.7 2-1.2 0.8-0.8 0.8-1 0.9-0.7 2.7-1.6 1.3-1 0.9-1.1 0.4-1.3 0-1.3-0.5-2.9-1.6-2.8-4.7-2.3-2-7.2-0.8-1.1-1.5-0.3-3 1.6-1.9 0.1-1.8-1.2-1.7-3.1-0.1-3.3 0.2-2.1-0.4-1.6-1.3-1.2-2.6-1.9-1.3-1.2-1.5-2-1.1-2.5-0.5-3.9 0.5-2 1.1-1.2 1.5-0.3 1-0.6-0.2-1-2-1.4-6.1-2.2-1.9-1.7-1.3-2.3-1.2-9.6-3-4.9-1-3.2 0.3-3.4 0.4-2.5-0.2-2.7 0.6-2.5 0.6-1.7 2.4-8 4.4-3.5 1.1-0.2 1.3 0 1.2 0.8 1.4-0.7 5.6-6.1 1.8-2.9 1-2.6 1-4.8 0.9-2.6 1.8-3.1 1.6-0.7 1.7 0.3 3.6 1.9 1.9 0.4 2.5-0.5 0.9-1.1-0.1-1.4-1.2-1.2-2.8-2.1-0.8-1.4-0.1-1.4 0.8-1 0.8-0.6 3-0.8 21.4 16.2 3.8 4.4 1 2.4-0.1 1.5-0.8 0.9-2.2 1.4-0.9 1.2-0.6 1.5-0.1 1.8 0.1 1.6 0.5 1.8 0.8 1.7 1 1.8 1.8 1.4 2.5 0.9 7.5 0.2 1.6 0.5 0.8 1.7-0.1 1.7-0.2 1.7 0.5 1 1.4 0.3 3-0.8 6.2-3.1 1.1-0.1 0.8 0.6 0.6 1.8 0.2 2.3 0 2.1-0.2 1.9 0 1.3 1.5 0.8 1.5 0.4 11.8-1-0.4 5.4 0.7 1.2 1.4 1.5 4.2 3.3 2 2.9 1.5 0.8 1.5-0.3 1.8-0.7 2.1-0.4 2.5 0.5 0.9 1.3 0.1 1.5-0.6 1.7-0.7 1.6-2.4 3.1-0.7 1.7 0.6 3.2 1 1.1 1.6 0.1 1.5-0.3 1.8 0 7.5 4.5 2.1 1.6-0.3 1.3-1.2 0.6-1.8 0.6-1.5 0.8-1.7 2.2-2.7 1.7-2.2 1.9-1.4 0.9-5.3 2.1 0.3 5.4-0.9 4.2-0.8 3.1 0.3 1.5 1.1 0.9 6.3 1.6 2.3 1.2 2.6 2.1 0.9 2 0.4 1.3 1 6.1 7.3 0.2 9.8 3.5 2.5 0.3 2.3-0.4 2-1.1 21.1-6.6 16-3.8 4.9 0.1 0.5 1 0.4 1.1 1.4 0.8 8.3 1.6 2.1-0.1 0.8-0.7-0.7-1.5-0.4-1.9 0.3-2.2 3.1-2.7 1.2-1.4 0.5-1.1-0.5-0.7-1-0.9-0.2-1.2 0.5-1.5 3.7-3.1 0.5-1.7-0.9-1.1-1.5-0.6-1.5-0.9-1.2-1.1-2.8-1.5-1.6-1.4-2.6-3.2-0.8-1.5-1-1.6-4.7-4.3-2.4-3-0.6-1.8-0.6-2.4 0.6-4.1 0.5-1.8 0.8-1.5 4.4-2.9 4.6-5.5 1-2.2 3.1-10.9 6.7 4.3 5.7 1.9 5.9-3.3 1.8 2.3 1.6 3.2 1.3 1.2 1.8 0.5 4.5-1.2 1.1 0.2 1.1 1.4 0.3 1.1 0.4 1.1 0.7 0.9 1.7 0.5 2.7-0.7 2.1-1 1.5-1.3 0.9-1.2 0.5-0.9 1-2.3 0.6-1 1.1-1 0.9-0.7 0.9-0.4 0.6-0.1 9.7-0.3 2.1 0.5 4.1 2 2 1.9 1 1.9-0.1 1.9-1 2-1.1 2.6-0.2 2.6 1.1 2.7 1.9 1.1 2.8-0.5 1.5-1.1 1.4-0.7 1.9-0.1 3 1.3 5.4 3.5 7.8 1.8 20.9 1.1 17.3-5.1 7.7-4.8 1-1.2 1.4-0.9 7.1-2.2 2.2 0.1 2.2 1.1 1.3 1 3.3 6 0.4 1.1 0 0.1z" id="LTVL" name="Vilniaus">
  </path>
  <path d="M585.1 553.3l1.6 6.1-0.4 1.6-0.1 2.5-0.8 0.9-0.4 0.8 0.1 0.6 2.7 2.9 0.7 2-0.7 4-0.6 2.2 0 2.2 0.6 1.8 3.1 1.9 13.6 1.9 2.6-0.2 5.2-1.5 1.9-1.4 3.7-1.6 2.7-1.6 2.1-0.1 4.3 0.8 4.5 2.1 1 0.9 0.4 1.6-0.2 1.5-0.5 1.8 0.3 1.6 1.1 1.4 1.7 0.1 1.3-0.5 2.4-1.6 1.9-0.4 3.1 0.6 2 0.7 1.7-0.3 7.2-5.3 12.7-4.7 7.7-0.7 0.3 12.1-0.2 1.3-0.4 1.7-2.9 1.5-4.1 0.9-1.5 0.9-0.7 0.8-0.5 1.2-0.7 3.7-0.9 8.1-1.1 3.9-5.6 7.3-16.6 16.6-0.5 2.5 0.7 2.1 1.5 1.4 3.8 1.8 1.4 1 1 1.3 0.7 1.8 1.1 3.8 2.8 5.5 0 0.1-4.5 2.7-0.7 1.7 0 2 0.2 1.7-0.1 1-2.9 1.9-1.3 1.7-1 0.1-0.3 0.9 0.7 4 1.9 5.7 2 4.5 1.4 5-0.3 7.2 0 0.1-2 4.5-2.7 1.5-10.1 1.6-2.8-0.2-2.3-2.3-2-5.1-0.5-0.4-0.6-0.1-0.6 0.1-3.7 2.8-9.9 2-7.8 4.5-17.7 16-5.6 2.8-5.6 0-4.9-1.5-5.2 0.2-3-0.6-1.6-2.5-2.7-7.5-4.3-5.3-4.9-1.7-5.1 0.9-9.6 5.2-4.5 1.3-9.9 0.1-2.6-0.6-4.5-3-2.5-1-2.3 0.5-11.8 6.8-1.2 0.2-1.3-0.4-2.8-1.7-1.1-0.2-2.4 1-2.6 2-9.7 1.3-7.6 3.3-2.4 0.2-2.7-0.9-13.9-8.5-5.3-1.4 0.6-1.5 0.1-1.4-0.4-1.3-1-1.2-1.6-1.4-1.2-1.9-0.7-2.4 0.1-2.8 0.7-1.2 0.9-1 1.8-1.6 2.4-4-0.1-6-2.3-12.3-1.1-5.6-1.7-5.9-2.2-5.3-2.5-3.8-1.5-0.8-3.3-0.9-1.6-1.1-1.4-2.1-2.8-5.4-1.5-2.3-2.9-2.4 0-0.1 0.5-4.8 1.5-8.6-0.2-1.6-0.4-1.8 0-1.9 0.4-1.8 1.2-2.8 0.4-2.3 1.8-4.6 2.7-3.5 2.2-1.8 3.8-1.5 4.9-0.9 1.4-0.7 0.1-1.4-0.3-0.8-1.9-1.3-0.7-1 1.1-1.9 1.5-1.3 11.7-4.5 0.2-1.9 0-0.9-0.3-2.8-0.1-2.1 0.4-2.3 1-2 1.3-1.5 13-10.4 1.5-0.4 1.7 0.5 2.5 2.7 1.3 2.2 2.8 2.9 8 2.2 1.7 1.7 14.4-0.7 0.4 0.8-0.4 0.9 0.7 0.2 2.2-0.7 4.1-2.5 5.3-4.3 9-3.5 0.6-0.4 0.3-0.6 0-0.9-0.2-0.7-0.3-0.5-1.2-1.3-0.4-0.5-0.3-0.6-0.3-0.9-0.1-0.9 0-1 0.3-0.9 0.4-0.8 0.6-0.7 0.9-0.9 1.1-0.7 3.6-1.2 3 0.1 3.1 0.9 1.4 0.8 1.4 0.5 1.3 0.2 17.1-3.4 3.1-1.2 3-0.5 2.4 0.4 3.3 2.3 1.4 1.8 2.8 1.3 2.2 0.5 13.7-1.8z" id="LTAL" name="Alytaus">
  </path>
  <path d="M824.7 169.3l-3.1 5.5 0 5-0.3 2.7-0.9 1.8-1.9 2.7-1.6 1.6-3.2 2.5-2 2.5-1 2.5-0.8 3.1-4.2 6.3-1.4 3.8-2.5 8.7-0.8 1.6-1 0.5-2.9-0.4-3-1.3-1.2-0.2-1.4 0.9-2.2 4.6-1.2 1.8-5.8 6.7-0.3-1.6-0.2-0.7-0.4-1.1-0.5-0.6-1.9-0.4-16.7 0.5-2.2 0.5-2.3 1.8-6.4 3.2-2.8-4.4-0.6-1.3-1.4-1.2-1.5 0.1-1.2 0.8-1.7 1.7-0.9 0.3-1-0.6-1-1.4-1.1-2.8-0.6-2-3.1-3-11.7 6.7-1.1 1.3-1.1 2 0.9 4.1-0.2 1.9-0.9 0.7-1.4-0.2-3.4-1.2-1.7 0.1-1.2 0.3-17.8 7-4.5 0.9-2.3 0-1.4-0.5-0.3-0.8 0.5-2.4-0.4-1.2-2.3-2-1-1.1-1.1-2.1-0.5-0.6-2.3-1.7-0.6-0.2-9.7-0.8-4.7 1.2-2.9 1.6-2.1 0.3-5-0.4-1.3 0.3-0.8 0.7-0.5 1-0.6 0.9-1.2 0.9-1.5-0.2-4.4-1.9-1.9 0.2-2.3 1-1.8 0.4-10.1-1.6 0.2 3.5-0.3 1.3-0.4 2.1 0.8 1.3 3.3 2.5 0.7 1.6 0.1 1.3-0.8 1.9-1.3 1.4-1.7 0.5-1.8-0.8-1-1.2-1.1-0.6-4.5 1.2-1.2 1.1 0.5 1.1 1.5 1.2 2 1.2 1.8 1.7 1.6 2.4 1 3.4 0.1 1.8-0.6 1.4-2.8 2.2-1.6 1.6-1.2 2.4-0.5 2.5 0.1 4.6 0.2 1.1 0.3 0.9 0.5 1 0 1.8-3 5.1-3 0.8-0.8 0.6-0.8 1 0.1 1.4 0.8 1.4 2.8 2.1 1.2 1.2 0.1 1.4-0.9 1.1-2.5 0.5-1.9-0.4-3.6-1.9-1.7-0.3-1.6 0.7-1.8 3.1-0.9 2.6-1 4.8-1 2.6-1.8 2.9-5.6 6.1-1.4 0.7-1.2-0.8-1.3 0-1.1 0.2-4.4 3.5-4.1-4.3-2-4.9-1.9-2.4-2.2-1.8-7.2-4-1.1 0.1-0.2 1.3-0.2 1.4-1 0.9-2.1 0-3.3-1-1.8-1.7-1.5-2.2-1.9-2.4-1.3-0.5-1.7 0.5-1.5 1.3-7.6 3.8-3 0.8-2.6-0.7-1.9 0.2-1.4 0.7-2.8 2.6-1.6 0.7-0.8-0.7-0.1-1.5 1-4.2 0.3-2.2-0.1-2.4-0.8-2-4.5-4.6-1.7-2.2-3.1-2.9-1.8-0.7-1.4 0.2-1.2 1-2.9 0.3-2.2-1-1.6-1.7-0.7-2.3-0.7-4.8-0.4-1.9-0.9-1.7-1.2-0.8-1.1-0.3-3-0.1 1.4-3.3 0.6-1 1.8-2.5 2.4-4.5 1.3-3.6 1.5-0.9 3.4 0.2 1.5-0.6 2.2-2.1 1.3-0.2 1.5 0.1 1.4-0.1 1-1.4 0-2.3-2-8.3 0.2-3.1 1.3-1.4 1.7-1.2 1.5-1.6 0.8-2-0.3-4.1 0.1-2.3-0.8-6.8-0.7-1.7-2.5-3-0.4-1.9 0-1.4-0.4-1.2-0.8-1-2-1.1-1.6-0.4-2.6-2.6-1.9-8 5.9-0.7 0.5-0.5 0.6-1.2-0.1-1.8 0-1.7 1.1-2.1 1.9-1.3 4.3-2 3.4-2.6 1.4-2.8-0.4-4.2 0.7-1.3 1.2-2.7 0.2-2.9-0.5-4.3-0.9-1.7-1.4-0.9-1.4-0.4-1.8-0.9-1.7-1.1-1.6-2-0.7-2-0.3-2-0.3-7.4 0.1-1.6 0.2-1.5 0.3-1.2 0.5-0.9 0.7-0.7 0.7-0.1 0.9 0.5 0.9 0.7 0.7 0.2 0.9 0 1.1-1.5 0.7-2.3 1-5.5 1.4-3 3.6-5.3 0.4-2.6 0.1-2.8 0.4-2 0.9-2.5 1.1-1.5 1.6-1.1 4.7-1.3 1.1-1.5 0.3-2.3 0.1-4.2-0.3-2-0.7-1.2-0.8 0.1-1.1 0.8-0.8-0.1-1.1-0.8-0.8-3 0.5-2.6 1-2.1 1.3-1.9 0.3-1.7-0.3-1.4-0.2-2.7-0.1-1.6 4.1-0.8 18.5-9.7 0.2-0.1 4.7-0.8 4.2 1.6 0.8 0.3 4.7 3.5 5.2 3.8 0.1 0 4.9 1.4 2.2-1 3.1-1.4 0.3-0.1 3.8-2.3 1.8-1 3-1.8 3-3 2.3-3.2 0.7-0.9 6.5-8.9 1.2-1.7 1.8-2.5 6-4.7 0.1-0.1 2.9-1.3 2.8-1.2 8.8-3.9 0.6-0.3 0.6-0.3 1.2-0.5 2.8-1.2 1.5-0.1 3.4 1.3 1.3-0.2 1-2.5 0.2-3.1 0.6-3 2.1-2 3.3 1.1 2.5 4.2 0.3 0.5 1.7 5.1 2.3 6.7 4 16.9 1.7 5.2 1.6 2.8 5.1 5.8 1.5 2.7 2.8 8.9 4.5 8.4 0.3 0.3 0.6 0.4 1.4 1 2.7 2 0.6 0.4 4 0.7 0.9 0.2 0.2 0 6.2 1.1 14 2.4 11.8 2.1 2.4 0.4 3.2 0.5 2.8 0.5 3.9 0.7 4 0.7 8.1-1.5 2.4-0.4 6 2.9 1.8 0.8 2.6 0.6 9.3-0.8 1.8 0.8 0.1 0.1 1.1 2.4 2.9 9.3 0.5 1.2 0.8 1.7 1.7 1.7 0.2 0.2 8.9 6.2 4.5 5.2 11.8 13.3 13.9 9.3z" id="LTPN" name="Panevezio">
  </path>
  <path d="M301.3 50.2l-2 1.9-1.1 0.7-0.8 1.4 0.4 1.7 1 1.7 0.9 2.1-0.1 2.5-0.8 2.4-1.2 2.3-2.2 1.7-2.2 0.5-2.2-0.1-4.1-1.3-1.9 0-1.8 1.2-1.1 2.8-1.3 1.7-0.6 1.7 0.4 1 1.6 2.3 0.1 2.4-1 3-2.4 3.6-2.6 2.3-4.3 6.4-2.2 16.2 5.7 1.8 0.8 1 0.5 1.2-1.5 2.7-0.1 2 0.8 0.5 1.3-0.1 1.1 0.1 0.7 1.2 0.2 2 0.8 2.2 1.9 1.4 2.1 0.8 2.1 0 6.8-3.3 5.8 0.9 2.8-0.5 2.1-1 1.2-1.4 1.6-1 4.6-1.4 3.4-0.4 2.1 0.5 1.1 1.3 0 1.4-0.5 2.1-0.4 2.2 0.5 2.3 0.7 1.8 2.4 3.1-2.5 1.3-1.9 0.4-0.3 0.4-0.7 1.4-0.6 0.6-0.7 0.4-7.3 1.6-1.5 1.5-0.2 2.3 1.3 4.4 0.1 3.6 0 2.2-0.5 1.4-0.9 1.1-2.2 1.7-0.8 1 0 1.4 0.6 2 2.1 3 1.5 1.6 2 0.3 1.6-0.5 1.2-1.1 0.7-1.4 0.7-1.2 1.1-0.3 1.2 1 1.8 2.9 1.3 1.3 1.6 1 0.8 0.8-0.2 0.9-2 1.1-1.9 1.4 0.6 3-4.6 5.6-2.2 6.7-1.6 2.1-2.3 1.1-2.1 0.3-2.5 0.7-1.1 1.6-0.3 2.2 0.4 5.1-0.6 2.7-1.6 1.5-2.3 1.6-1.8 0.9-2.1 0.6-1.7 0.8-2.1 1.8-0.1 1.8 1.9 4.6 0.5 2.5-0.5 3.6-0.4 2.6-0.3 2.4 0.3 2.3 0.8 4.5-0.1 2.1-1.3 1.5-1.3 0.7-4.9 4.4-11.7 1.9-1.9-0.3-1.8-1-1.7-0.5-3.9 0.2-1.8-0.4-4.7-2.3-3.8 0.4-12.8 1.5-5.3 2.4-2.7 2-1.9 0.4-2 0-2-0.6-1.2 0.3-0.7 0.5-0.6 1.2-0.6 1.5-0.5 2-0.1 1.6 0.2 1.6-0.2 1.2-0.8 1.3-3.8 3.8-1.6 0.6-2.1-0.2-2-0.7-17.6 2.5-8.2-7.2-4.6-6.7-0.5-1.9-0.5-1.2-1.3-1.9-0.7-1.6-0.7-3.9-0.4-1.3-0.5-1.5-3-5.2-0.2-1.6 0.6-1.6 0.3-1.3 0.1-1.6 0.2-1.6 0.4-1.4-0.4-1.1-1.2-0.8-2.5 0.2-3.6 1.3-7.4 0.2-1.9 0.6-1.8 0.3-1.2-0.4-0.7-1.7 0.4-1.3 0.9-1.3 0.4-1.1-0.1-1.2-0.8-1.2-1.2-1.4-1.7-2.9-0.2-1.6 0.1-1.9-0.2-1.3-0.9-0.3-2.9 2.6-2 0.9-1.4 0.4-6.5-0.6-0.3-1.7 0.1-1.5 0.5-1.2 0.9-1.7 2.2-2.5 8.1-6.7 0.8-1 0.5-1.4 2.2-1.9 0.6-1.4-0.4-2-0.6-1.5-2.8-4.4-0.7-1.6-0.6-2.5-0.1-2.6 0.7-11.2-0.4-1.8-0.4-1.7 0-1.5 0.6-1.7 1.9-1.5 3.6-0.9 1.4-1.2 1.6-2.2 5.4-10.6 1-5.7 7.4-7 1.6-1 6-0.3 1.6-0.5 1.3-1.1 1.6-2.1 1.3-1.2 2.1-0.4 7.6 0.1 1.6-1.1 1.2-1.1 3.8-8.2 1.8-4.6 0.7-1.1 1-1.9 1-3 1-1.2 1.4-0.7 1.6-0.1 1.3-0.8 0.4-1.2-0.6-2.7-4.5-10.4-0.8-1.5-1.8-2.4-0.6-2.2-0.3-2.8-0.1-5.8-1-2.4-1.3-1.7-1.3-1.1-0.8-1.6-0.3-1.7 0.5-2 1-1.3 5.6-3 2-1.7 0.3-1.1 0.3-1.7 1.9-0.9 0.8-0.4 17.2-8.1 7 0.5 2.9 1.5 5.7 4.3 3.1 1.2 44.4-1.5 1.5 0 2.7 0.6 0.2 0 5.9 1.4 1.1 0.3 0.4 0.2z" id="LTTE" name="Telšiai">
  </path>
  <path d="M206.5 51.1l-0.3 1.7-0.3 1.1-2 1.7-5.6 3-1 1.3-0.5 2 0.3 1.7 0.8 1.6 1.3 1.1 1.3 1.7 1 2.4 0.1 5.8 0.3 2.8 0.6 2.2 1.8 2.4 0.8 1.5 4.5 10.4 0.6 2.7-0.4 1.2-1.3 0.8-1.6 0.1-1.4 0.7-1 1.2-1 3-1 1.9-0.7 1.1-1.8 4.6-3.8 8.2-1.2 1.1-1.6 1.1-7.6-0.1-2.1 0.4-1.3 1.2-1.6 2.1-1.3 1.1-1.6 0.5-6 0.3-1.6 1-7.4 7-1 5.7-5.4 10.6-1.6 2.2-1.4 1.2-3.6 0.9-1.9 1.5-0.6 1.7 0 1.5 0.4 1.7 0.4 1.8-0.7 11.2 0.1 2.6 0.6 2.5 0.7 1.6 2.8 4.4 0.6 1.5 0.4 2-0.6 1.4-2.2 1.9-0.5 1.4-0.8 1-8.1 6.7-2.2 2.5-0.9 1.7-0.5 1.2-0.1 1.5 0.3 1.7 6.5 0.6 1.4-0.4 2-0.9 2.9-2.6 0.9 0.3 0.2 1.3-0.1 1.9 0.2 1.6 1.7 2.9 1.2 1.4 0.8 1.2 0.1 1.2-0.4 1.1-0.9 1.3-0.4 1.3 0.7 1.7 1.2 0.4 1.8-0.3 1.9-0.6 7.4-0.2 3.6-1.3 2.5-0.2 1.2 0.8 0.4 1.1-0.4 1.4-0.2 1.6-0.1 1.6-0.3 1.3-0.6 1.6 0.2 1.6 3 5.2 0.5 1.5 0.4 1.3 0.7 3.9 0.7 1.6 1.3 1.9 0.5 1.2 0.5 1.9 4.6 6.7 8.2 7.2 0.7 2.4-0.4 1.4-0.9 1.8-1.2 1-8 3.6 0.3 2.6 2.3 1.9 0.5 1.5 1 9 0.8 2 2.3 2.6 0.7 2 3.2 13.4 1.6 1.9 1.6-0.2 2.7-2.3 1.4-0.3 1.5 0.8 3.2 2.6 6.3 2.9 5 1.4 0.9 0.8 0.5 0.8 0.1 2.3-2.4 1.4-1.2 7.5-1.2 2.3-2 2.3-2.6 2.3-11.6 13.3-1.6 3.6 0.4 2.1 1.8 1 4.9 0.7 14.8 6.6 1.4 1.4 0.9 1.7 2 6 2.3 5.4 0.3 1.6-0.1 1.4-0.9 4.3 0.7 1.3 1.4 0.3 1.8-1.2 2.8-2.7 1.1-0.6 4-0.6 1.5 0.1 1.6 0.9 2.8 2.8 1.7 0.9 1.7 0.1 3.2-0.6 1.4 0.2 1.3 0.6 1.2 0.3 1.5 0.1 1.3-0.2 2.7 1.5 0.2 3.2-0.6 1.3-1.3 2.1-0.6 2.5-1.7 4-0.3 1.8 0 5.8 0 0.1-2.9-0.4-16.8 4.4-2 2.1-1.7 2.4-2.9 2.2-3.6 0.3-4.1-1.3-3.5-2.9-1.4-4.5 0-4.4-0.5-3-1.8-1.4-4 0.4-4.1 3.1-1.3 0.6-1.5-0.6-3.8-2.5-5.5-1.4-3-2-5.2-4.6-10.7-2.3-2.7-2.3-2.7-3.5-10.9-8.6-6.3-3.1-15.6-0.5-5.6-4.6-9.6-16.6-4.8-4.8-3.9 0.6-12.7 10.7 0.2-1.4-0.7-6.2 0-2 1-1.1 1.1 0.4 1.2-0.2 0.9-2.7-0.3-2.2-1.1-3.2-1.3-2.8-1-1.2-1.2-1.2-0.5-2.9 0.1-6.1-1.6-0.3-9 8.6-0.8-2 0-0.6 0.4-0.3 5.9-13.6 1.3-2.1 2.4-3 0.1-6.6-1.9-11-1.9-8.2-0.2-2.1-0.7-0.9-1.4-1.7-1.5-2.2-0.7-2.6 0.2-3.3 0.2-2.2 0.1-2-0.5-2.8-5.8-15.6-1.1-4.8-0.5-5.1-1-2.8-6.4-11.2-1.5-1.7-1.4-0.9-1-1.8-0.7-6.8-1.4-5.4-2.5-23.2 0-12.2 0.4-3 1.4-3.8 0.4-2.6 0-23.7-0.8-9.7 1.5-0.4 4.4-1.1 5.8 0 3.3-0.1 3.2-0.9 3-0.8 2.3-5.3 1.1-7.6 2.1-7 0-0.2 0.1-0.3 0.1-0.3 0-0.1 0.4-1.1 3.9-6.1 5.5-6 5.7-4.9 4.8-2.4 6.4-0.4 0.6 0 2.4-0.8 1.3-1 4.6-3.6 4.3-3.3 11.4-8.8 5.7-2.9 13.7-0.7 1.1-0.5 0.6-0.3 0.2 0 0.2-0.1 0.1-0.1 5.6-2.6 0.3-0.2 24.1-11.3 4-2 0.8-0.3 4.2-2 1-0.5 1.3-0.6z m-151 305.9l-10-2.6 11.6-20.2 6.4-16.1 6.4-22.2 1.6-23 1-4.7-0.8-1.3 0.8-2.6-1.3-5.5 0.4-17.1-1.3-7.5 5 6.3 2.2 12.2 0.3 23.9-0.4 3.4-1.4 4.6-0.3 3.2 0 10.3-1.8 4.5-2.4 4.5-0.9 4.2 3 3.7 0 1.7-2.3 2.9-2.8 5.1-2.5 6.1-1 5.6-2 5.5-7.6 10.2 0.1 4.9z" id="LTKL" name="Klaipedos">
  </path>
  <path d="M543 86.3l0.1 1.6 0.2 2.7 0.3 1.4-0.3 1.7-1.3 1.9-1 2.1-0.5 2.6 0.8 3 1.1 0.8 0.8 0.1 1.1-0.8 0.8-0.1 0.7 1.2 0.3 2-0.1 4.2-0.3 2.3-1.1 1.5-4.7 1.3-1.6 1.1-1.1 1.5-0.9 2.5-0.4 2-0.1 2.8-0.4 2.6-3.6 5.3-1.4 3-1 5.5-0.7 2.3-1.1 1.5-0.9 0-0.7-0.2-0.9-0.7-0.9-0.5-0.7 0.1-0.7 0.7-0.5 0.9-0.3 1.2-0.2 1.5-0.1 1.6 0.3 7.4 0.3 2 0.7 2 1.6 2 1.7 1.1 1.8 0.9 1.4 0.4 1.4 0.9 0.9 1.7 0.5 4.3-0.2 2.9-1.2 2.7-0.7 1.3 0.4 4.2-1.4 2.8-3.4 2.6-4.3 2-1.9 1.3-1.1 2.1 0 1.7 0.1 1.8-0.6 1.2-0.5 0.5-5.9 0.7 1.9 8 2.6 2.6 1.6 0.4 2 1.1 0.8 1 0.4 1.2 0 1.4 0.4 1.9 2.5 3 0.7 1.7 0.8 6.8-0.1 2.3 0.3 4.1-0.8 2-1.5 1.6-1.7 1.2-1.3 1.4-0.2 3.1 2 8.3 0 2.3-1 1.4-1.4 0.1-1.5-0.1-1.3 0.2-2.2 2.1-1.5 0.6-3.4-0.2-1.5 0.9-1.3 3.6-2.4 4.5-1.8 2.5-0.6 1-1.4 3.3-21.1 10.6-7.1 5.1-3 3-1.5 2-2.3 4.7-1.1 0.5-1.2-0.6-2.5-1.6-4.5-0.2-1.8-4.3 0.4-1.4 0.7-2 0.9-1.6 0.8-2-0.2-1.2-0.8-0.6-3-1-2-2.1-1.6-0.8-1.3-0.3-1 0.4-0.7 0.5-0.6 0.8-0.9 0.7-1 0.4-1.8 0.4-0.6 0.5-0.2 0.8-0.1 1.6-0.3 1.1-1.6 0.7-2.6 0-5.2-1.5-3.4-2.1-11.7-10-7.9 4.9-1.3 1.3-2.1 0.7-1.4-0.7-1-1.8-1.3-4.3-0.8-1.5-1-0.9-2.8-0.6-3.4-0.2-9.6 1.2-3.2 2.4-2.8 4.7-0.6 2.1-0.9 1.6-1.4 1.5-5.5 3.8-23.9 9.5-4-1-1.1-1.1-0.5-1.7-0.3-2-1.1-1.2-2-0.6-11.4 1.8-9 3.4-4.8 4.2-3.7-1.9-0.9-6.5 3.2-5-0.2-1.2-1.1-1.1-1.6-1-5.8-8.9-1.7-1.8-7.2-4.5-2.1-2.1-1-2-1.3-3.1-0.3-1.7 0.1-1.6 0.7-1.4 0.4-1.8-0.6-1.1-3.3-1.5-1.8-1.9-0.7-1.9-0.3-1.4 0-2.4 4.9-4.4 1.3-0.7 1.3-1.5 0.1-2.1-0.8-4.5-0.3-2.3 0.3-2.4 0.4-2.6 0.5-3.6-0.5-2.5-1.9-4.6 0.1-1.8 2.1-1.8 1.7-0.8 2.1-0.6 1.8-0.9 2.3-1.6 1.6-1.5 0.6-2.7-0.4-5.1 0.3-2.2 1.1-1.6 2.5-0.7 2.1-0.3 2.3-1.1 1.6-2.1 2.2-6.7 4.6-5.6-0.6-3 1.9-1.4 2-1.1 0.2-0.9-0.8-0.8-1.6-1-1.3-1.3-1.8-2.9-1.2-1-1.1 0.3-0.7 1.2-0.7 1.4-1.2 1.1-1.6 0.5-2-0.3-1.5-1.6-2.1-3-0.6-2 0-1.4 0.8-1 2.2-1.7 0.9-1.1 0.5-1.4 0-2.2-0.1-3.6-1.3-4.4 0.2-2.3 1.5-1.5 7.3-1.6 0.7-0.4 0.6-0.6 0.7-1.4 0.3-0.4 1.9-0.4 2.5-1.3-2.4-3.1-0.7-1.8-0.5-2.3 0.4-2.2 0.5-2.1 0-1.4-1.1-1.3-2.1-0.5-3.4 0.4-4.6 1.4-1.6 1-1.2 1.4-2.1 1-2.8 0.5-5.8-0.9-6.8 3.3-2.1 0-2.1-0.8-1.9-1.4-0.8-2.2-0.2-2-0.7-1.2-1.1-0.1-1.3 0.1-0.8-0.5 0.1-2 1.5-2.7-0.5-1.2-0.8-1-5.7-1.8 2.2-16.2 4.3-6.4 2.6-2.3 2.4-3.6 1-3-0.1-2.4-1.6-2.3-0.4-1 0.6-1.7 1.3-1.7 1.1-2.8 1.8-1.2 1.9 0 4.1 1.3 2.2 0.1 2.2-0.5 2.2-1.7 1.2-2.3 0.8-2.4 0.1-2.5-0.9-2.1-1-1.7-0.4-1.7 0.8-1.4 1.1-0.7 2-1.9 4.1 2.2 6.9 7.2 2.6 1.2 2.4-0.4 1.9-0.8 0.2-0.1 0.6-0.2 9.2-3.8 9.9-4.2 5.7-3.9 0.7-0.5 3.9-2.7 5.5-1 1.7 0.9 3.3 1.9 3.8 8 5.4 13.8 7.1 5.5 4.3-1 3.5-0.9 0.1-0.1 1.7-1.8 5.9-6.5-1.3-2.9 2.8-1.8 1.3-0.3 15.7-3.7 0.2 0 0.8-0.2 3.4 0.7 10.4 4.4 16 6.9 5.6 0.4 2.7-1.7 6.6-3.9 5-1.5 1.1 0.1 9.7 0.5 4.2-0.7 1.3 0.4 1.3 2 0.2 2-0.2 1.8 0.2 0.9 4.8 0.8 1.7-0.4 3.2-0.7 5.8-1.4 5.1 0.2 2 0.6 17.1 5.5 10.1 8 1.6 1.3 2.8 2.2 5.2 2.9 1.4 0.3 3.2 0.6 0.3 0z" id="LTSA" name="Šiauliai">
  </path>
  <path d="M483.5 573l-8-2.2-2.8-2.9-1.3-2.2-2.5-2.7-1.7-0.5-1.5 0.4-13 10.4-1.3 1.5-1 2-0.4 2.3 0.1 2.1 0.3 2.8 0 0.9-0.2 1.9-11.7 4.5-1.5 1.3-1.1 1.9 0.7 1 1.9 1.3 0.3 0.8-0.1 1.4-1.4 0.7-4.9 0.9-3.8 1.5-2.2 1.8-2.7 3.5-1.8 4.6-0.4 2.3-1.2 2.8-0.4 1.8 0 1.9 0.4 1.8 0.2 1.6-1.5 8.6-0.5 4.8 0 0.1-3.1-2.7-12.4-4.7-5.9-3.7-9.6-8-2.8-1.4-3.2 0.7-3.7 1.6-3.5 0-2.8-3.9 0-2.8 0.9-3 0.6-2.5-1-1.5-5.3-0.6-1.7-1.2-1-1.7-0.7-2.1-0.9-2.1-1.6-1.7-1.6-0.3-3.5 0.7-1.7-0.2-9.3-4.8-3.3-0.5-3.8 1.9-0.2 0.3-4 7.3-2.9 2.4-9.3-16.6-4.1-9.2-0.9-10.4 1.1-20.7 3.4-12.7 0.7-4.8-0.2-2.9-1-6.1 0.1-2.8 0.6-1.8 3.4-5.1 0.1-1-0.4-1.2-0.3-1.3 0.3-1.3 0.5-0.5 1.3-0.3 1.6-1.4 2.8-1.5 1.2-1.4 2.1-3.6 4.8-3.6 2.4-2.5 2-4.7 0.4-4.8-0.6-4.9-2.4-10.9-1.2-3.4-1.9-2.2-9.3-4.4-1.2-2.1 1.7-3.6-2.1-0.8-1.5-1.7-1.1-1.8-1-1.1-1.4-0.5-8.7 0-2.6-1.3-1.8-3.3-2-6-2.6-12.2-1.7-5.4-1.5-1.7 4.4-2.1 1.2 1.4 2.8 2.1 0.9 0.4 2 0 13.1-2.4 4.6-2 1.8-1.4 7.7-2.6 7.9-1.1 8.4 2.4 2.2-1.5 1.9-1.7 2.9-1.4 4.8-1.3 49.2 9.2 14.3-2 3.2 1 8 6.5 3.3 0.5 3.6-0.5 3.4 0.2 2.9 2.7 0.9 2.4 0 2.5-1.2 1.1-1.2 0.3-2 0-0.9 0.3-0.8 0.4-0.7 0.6-1 1.5-1.7 3.4-0.9 1.2-0.9 0.8-1.2 0.4-1.4 0.2-6.7-0.8-1.7 0.4-1.7 0.8-1.1 0.9-1.1 1.2-0.9 1.6-0.2 1.5 0.6 1.5 7.6 1.9 1.7 1.8 1.4 1.9 3.4 11 3.8-0.8 3.7-2 2.2 0.3 2.9 1.4 4.2 3.4 3.3 3.4 1.2 1.7 0.5 1.5-0.1 1.5-0.3 1.7-0.1 1.5 0.5 3 1 2.2 0.4 1.4 0.6 2.8-1.8 0.9-0.3 0.8-0.7 1.2-0.6 1.7-1.6 2-0.3 1.3 0.5 0.9 1.1 0.2 1.5-0.1 1.2 0.5 1.2 1.5-0.2 2.9 0.5 1.7 0.8 1.4 0.6 0.7 0.8 1.8 0.1 2-0.4 3.4 2.9 12.5-0.2 2.6-0.8 2.4-1.5 0.9-3.9 1.4-1.6 0.8-1.1 1.4 0 1 0.7 0.8 1 0.6 0.8 0.6 0.6 0.9 0.7 0.7 4.4 1.7 1.3 1.7-0.1 1.5-1.1 1.5-1.3 1.5-0.9 2 0.3 1.6 1 1.2 3.5 2.8 1.8 2.5 1.6 1.4 1.8 0.4 2.9-0.3 1 0.4 1.1 1.8 2.6 7.9 0.3 2.7-0.4 2-1.3 1.8-0.8 1.6-1 2z" id="LTMR" name="Marijampoles">
  </path>
  <path d="M192.9 267.4l17.6-2.5 2 0.7 2.1 0.2 1.6-0.6 3.8-3.8 0.8-1.3 0.2-1.2-0.2-1.6 0.1-1.6 0.5-2 0.6-1.5 0.6-1.2 0.7-0.5 1.2-0.3 2 0.6 2 0 1.9-0.4 2.7-2 5.3-2.4 12.8-1.5 3.8-0.4 4.7 2.3 1.8 0.4 3.9-0.2 1.7 0.5 1.8 1 1.9 0.3 11.7-1.9 0 2.4 0.3 1.4 0.7 1.9 1.8 1.9 3.3 1.5 0.6 1.1-0.4 1.8-0.7 1.4-0.1 1.6 0.3 1.7 1.3 3.1 1 2 2.1 2.1 7.2 4.5 1.7 1.8 5.8 8.9 1.6 1 1.1 1.1 0.2 1.2-3.2 5 0.9 6.5 3.7 1.9 3.5 6.7 1.7 2.3 3.1 2.2 3.3 0.7 0.8 0.9 0.4 1.6-0.6 2.5 0.3 2.7 3.3 3 0.9 0.2 1.9 0 2.6-1 1.2-0.1 1 0.7 1 2.1 0.3 2-0.1 2.3-0.6 4 0.1 1.9 0.8 2.1 1.4 2 3 2.4 2.9 3.3 0.4 1.5 0.3 1.7 0.6 1.1 1 0.4 1.6-0.8 0.8-1 0.6-0.9 0.6-0.6 0.8-0.4 0.8-0.6 0.5-0.8 0.4-0.9 0.4-0.6 0.7-0.4 0.6-0.4 0.3-0.8 0-1-0.1-0.9 0-0.8 0.2-0.4 0.8 0.1 0.9 0.6 1.9 2.2 10.6 8.3 0.5 1-0.2 1.2-2.1 2.3-0.9 1.7 0.3 1.6 1.7 1.1 4 0.1 4.4-0.9 0.9-0.5 1.2-1.2 0.7-0.4 1.3-0.4 1.7 0.2 2.1 0.8 2.8-0.3 1.7-0.5 1.1-0.7 0.8-0.8 1.1 0 1.5 0.6 2.7 2 0.8 1.9 0.6 3.3 0.9 1.1 2.9 1 9.8 0.1 6.1-1.2 1.8 0.6 2.5 2.1 0.8 1.8 1.2 1.1 1.3 0.2 8.8-2 4 0.6 3 3.9-2.8 3.5-0.7 2.2-0.3 2.7 0.2 5 0.3 2.8 0 2.6-0.6 2.1-1.9 2.8-2.6 4.8-1.7 8.4-14.3 2-49.2-9.2-4.8 1.3-2.9 1.4-1.9 1.7-2.2 1.5-8.4-2.4-7.9 1.1-7.7 2.6-1.8 1.4-4.6 2-13.1 2.4-2 0-0.9-0.4-2.8-2.1-1.2-1.4-4.4 2.1-0.9-1.1-3.8-2.1-16.2 4.8-25.7-3.1 0-0.1 0-5.8 0.3-1.8 1.7-4 0.6-2.5 1.3-2.1 0.6-1.3-0.2-3.2-2.7-1.5-1.3 0.2-1.5-0.1-1.2-0.3-1.3-0.6-1.4-0.2-3.2 0.6-1.7-0.1-1.7-0.9-2.8-2.8-1.6-0.9-1.5-0.1-4 0.6-1.1 0.6-2.8 2.7-1.8 1.2-1.4-0.3-0.7-1.3 0.9-4.3 0.1-1.4-0.3-1.6-2.3-5.4-2-6-0.9-1.7-1.4-1.4-14.8-6.6-4.9-0.7-1.8-1-0.4-2.1 1.6-3.6 11.6-13.3 2.6-2.3 2-2.3 1.2-2.3 1.2-7.5 2.4-1.4-0.1-2.3-0.5-0.8-0.9-0.8-5-1.4-6.3-2.9-3.2-2.6-1.5-0.8-1.4 0.3-2.7 2.3-1.6 0.2-1.6-1.9-3.2-13.4-0.7-2-2.3-2.6-0.8-2-1-9-0.5-1.5-2.3-1.9-0.3-2.6 8-3.6 1.2-1 0.9-1.8 0.4-1.4-0.7-2.4z" id="LTTA" name="Taurages">
  </path>
  <path d="M585.5 324.4l-2.4 8-0.6 1.7-0.6 2.5 0.2 2.7-0.4 2.5-0.3 3.4 1 3.2 3 4.9 1.2 9.6 1.3 2.3 1.9 1.7 6.1 2.2 2 1.4 0.2 1-1 0.6-1.5 0.3-1.1 1.2-0.5 2 0.5 3.9 1.1 2.5 1.5 2 1.3 1.2 2.6 1.9 1.3 1.2 0.4 1.6-0.2 2.1 0.1 3.3 1.7 3.1 1.8 1.2 1.9-0.1 3-1.6 1.5 0.3 0.8 1.1 2 7.2 4.7 2.3 1.6 2.8 0.5 2.9 0 1.3-0.4 1.3-0.9 1.1-1.3 1-2.7 1.6-0.9 0.7-0.8 1-0.8 0.8-2 1.2-0.8 0.7-0.5 0.8-0.9 1.6-1 2.3-2.9 4.3 1.3 0.6 2 2.5 8 4.1 8.3 7.8 2.8 1.2 6.6 0.5 2.9 1.1 2.7 2.2 3.4 4.6 0.8 1.7-4.5 3.5-2.7 5.6-2 2.1-10.2 5.7-1.8 1.5-1 1.4-0.4 1.6-1.1 5.1-0.4 1.2-1 2.3-0.8 2-0.5 2.5-0.3 2.5-0.1 2.7-0.3 3.1-1.1 1.2-1.7 0.4-5.7-1.3-1.7-0.1-1 0.9-1.9 3.2-6.3 2-2.6 1.6-1.4 2-0.2 2.6 0.4 2.1 0.6 2.2 0.3 2 0.2 1.4-0.4 3.1 2.2 2.6 0.2 1.1 0.1 1.5-0.4 1.6-0.4 2.5-0.8 1.5-1.2 1.1-1.4 0.3-1.5-0.3-1.2-0.7-1.4 0.3-0.8 1.6-0.5 2.5-0.4 5.7-0.6 2.1-0.5 1.2-1.7 2.1-13.7 1.8-2.2-0.5-2.8-1.3-1.4-1.8-3.3-2.3-2.4-0.4-3 0.5-3.1 1.2-17.1 3.4-1.3-0.2-1.4-0.5-1.4-0.8-3.1-0.9-3-0.1-3.6 1.2-1.1 0.7-0.9 0.9-0.6 0.7-0.4 0.8-0.3 0.9 0 1 0.1 0.9 0.3 0.9 0.3 0.6 0.4 0.5 1.2 1.3 0.3 0.5 0.2 0.7 0 0.9-0.3 0.6-0.6 0.4-9 3.5-5.3 4.3-4.1 2.5-2.2 0.7-0.7-0.2 0.4-0.9-0.4-0.8-14.4 0.7-1.7-1.7 1-2 0.8-1.6 1.3-1.8 0.4-2-0.3-2.7-2.6-7.9-1.1-1.8-1-0.4-2.9 0.3-1.8-0.4-1.6-1.4-1.8-2.5-3.5-2.8-1-1.2-0.3-1.6 0.9-2 1.3-1.5 1.1-1.5 0.1-1.5-1.3-1.7-4.4-1.7-0.7-0.7-0.6-0.9-0.8-0.6-1-0.6-0.7-0.8 0-1 1.1-1.4 1.6-0.8 3.9-1.4 1.5-0.9 0.8-2.4 0.2-2.6-2.9-12.5 0.4-3.4-0.1-2-0.8-1.8-0.6-0.7-0.8-1.4-0.5-1.7 0.2-2.9-1.2-1.5-1.2-0.5-1.5 0.1-1.1-0.2-0.5-0.9 0.3-1.3 1.6-2 0.6-1.7 0.7-1.2 0.3-0.8 1.8-0.9-0.6-2.8-0.4-1.4-1-2.2-0.5-3 0.1-1.5 0.3-1.7 0.1-1.5-0.5-1.5-1.2-1.7-3.3-3.4-4.2-3.4-2.9-1.4-2.2-0.3-3.7 2-3.8 0.8-3.4-11-1.4-1.9-1.7-1.8-7.6-1.9-0.6-1.5 0.2-1.5 0.9-1.6 1.1-1.2 1.1-0.9 1.7-0.8 1.7-0.4 6.7 0.8 1.4-0.2 1.2-0.4 0.9-0.8 0.9-1.2 1.7-3.4 1-1.5 0.7-0.6 0.8-0.4 0.9-0.3 2 0 1.2-0.3 1.2-1.1 0-2.5-0.9-2.4-2.9-2.7-3.4-0.2-3.6 0.5-3.3-0.5-8-6.5-3.2-1 1.7-8.4 2.6-4.8 1.9-2.8 0.6-2.1 0-2.6-0.3-2.8-0.2-5 0.3-2.7 0.7-2.2 2.8-3.5-3-3.9-4-0.6-8.8 2-1.3-0.2-1.2-1.1-0.8-1.8-2.5-2.1-1.8-0.6-6.1 1.2-9.8-0.1-2.9-1-0.9-1.1-0.6-3.3-0.8-1.9-2.7-2-1.5-0.6-1.1 0-0.8 0.8-1.1 0.7-1.7 0.5-2.8 0.3-2.1-0.8-1.7-0.2-1.3 0.4-0.7 0.4-1.2 1.2-0.9 0.5-4.4 0.9-4-0.1-1.7-1.1-0.3-1.6 0.9-1.7 2.1-2.3 0.2-1.2-0.5-1-10.6-8.3-1.9-2.2-0.9-0.6-0.8-0.1-0.2 0.4 0 0.8 0.1 0.9 0 1-0.3 0.8-0.6 0.4-0.7 0.4-0.4 0.6-0.4 0.9-0.5 0.8-0.8 0.6-0.8 0.4-0.6 0.6-0.6 0.9-0.8 1-1.6 0.8-1-0.4-0.6-1.1-0.3-1.7-0.4-1.5-2.9-3.3-3-2.4-1.4-2-0.8-2.1-0.1-1.9 0.6-4 0.1-2.3-0.3-2-1-2.1-1-0.7-1.2 0.1-2.6 1-1.9 0-0.9-0.2-3.3-3-0.3-2.7 0.6-2.5-0.4-1.6-0.8-0.9-3.3-0.7-3.1-2.2-1.7-2.3-3.5-6.7 4.8-4.2 9-3.4 11.4-1.8 2 0.6 1.1 1.2 0.3 2 0.5 1.7 1.1 1.1 4 1 23.9-9.5 5.5-3.8 1.4-1.5 0.9-1.6 0.6-2.1 2.8-4.7 3.2-2.4 9.6-1.2 3.4 0.2 2.8 0.6 1 0.9 0.8 1.5 1.3 4.3 1 1.8 1.4 0.7 2.1-0.7 1.3-1.3 7.9-4.9 11.7 10 3.4 2.1 5.2 1.5 2.6 0 1.6-0.7 0.3-1.1 0.1-1.6 0.2-0.8 0.6-0.5 1.8-0.4 1-0.4 0.9-0.7 0.6-0.8 0.7-0.5 1-0.4 1.3 0.3 1.6 0.8 2 2.1 3 1 0.8 0.6 0.2 1.2-0.8 2-0.9 1.6-0.7 2-0.4 1.4 1.8 4.3 4.5 0.2 2.5 1.6 1.2 0.6 1.1-0.5 2.3-4.7 1.5-2 3-3 7.1-5.1 21.1-10.6 3 0.1 1.1 0.3 1.2 0.8 0.9 1.7 0.4 1.9 0.7 4.8 0.7 2.3 1.6 1.7 2.2 1 2.9-0.3 1.2-1 1.4-0.2 1.8 0.7 3.1 2.9 1.7 2.2 4.5 4.6 0.8 2 0.1 2.4-0.3 2.2-1 4.2 0.1 1.5 0.8 0.7 1.6-0.7 2.8-2.6 1.4-0.7 1.9-0.2 2.6 0.7 3-0.8 7.6-3.8 1.5-1.3 1.7-0.5 1.3 0.5 1.9 2.4 1.5 2.2 1.8 1.7 3.3 1 2.1 0 1-0.9 0.2-1.4 0.2-1.3 1.1-0.1 7.2 4 2.2 1.8 1.9 2.4 2 4.9 4.1 4.3z" id="LTKU" name="Kauno">
  </path>
 </g>
 <g id="points">
  <circle class="54.01462904847496|21.218376278803543" cx="90.9" cy="693.5" id="0">
  </circle>
  <circle class="55.03693362418706|24.156452057176995" cx="545.5" cy="421" id="1">
  </circle>
  <circle class="56.31481434382718|26.506912679875757" cx="909.1" cy="70.3" id="2">
  </circle>
 </g>
 <g id="label_points">
  <circle class="Utenos" cx="764.8" cy="294.5" id="LTUT">
  </circle>
  <circle class="Vilniaus" cx="695.8" cy="501.7" id="LTVL">
  </circle>
  <circle class="Alytaus" cx="543.2" cy="630.9" id="LTAL">
  </circle>
  <circle class="Panevezio" cx="639.1" cy="141.9" id="LTPN">
  </circle>
  <circle class="Telšiai" cx="233.8" cy="164.5" id="LTTE">
  </circle>
  <circle class="Klaipedos" cx="141.6" cy="295.5" id="LTKL">
  </circle>
  <circle class="Šiauliai" cx="410.2" cy="168.2" id="LTSA">
  </circle>
  <circle class="Marijampoles" cx="393.6" cy="516.2" id="LTMR">
  </circle>
  <circle class="Taurages" cx="272.5" cy="331.7" id="LTTA">
  </circle>
  <circle class="Kauno" cx="530.6" cy="432.6" id="LTKU">
  </circle>
 </g>
</svg>