<?xml version="1.0"?>
    
<!--********* Copyright (c) 2024 Pareto Softare, LLC DBA Simplemaps.com ***************************************
************* Free for Commercial Use, full terms at  https://simplemaps.com/resources/svg-license ************
************* Attribution is appreciated! https://simplemaps.com *******************************************-->

<svg baseprofile="tiny" fill="#6f9c76" height="1000" stroke="#ffffff" stroke-linecap="round" stroke-linejoin="round" stroke-width=".5" version="1.2" viewbox="0 0 1000 1000" width="1000" xmlns="http://www.w3.org/2000/svg">
 <g id="features">
  <path d="M266.7 282.8l5.6-1.8 17.8 0 6.6-15.5 17.8 15.5 10-8.6 14.4-6.9-2.2-15.6 4.5-15.5 13.3 0 17.8-7 7.7 8.7 12.3 3.5 11.1 8.6 11.1 10.4 11.1 5.2 10-3.5 3.3 3.5 11.1 0-3.3 13.8-15.6 10.3-6.6 15.6 7.7 12.1 6.7-3.5-6.7 15.6 2 0.7-3.1 6.2 5.6 10.3 5.5 12.1 0 1.7-5.5 6.9-10 5.2-6.7 1.7 2.3 8.7-4.5 10.3-2.2 15.5-1.1 6.9-11.1 3.5-1.1 8.6-2.3 17.2-6.6 5.2-5.8 1.5-0.9 0.2-5.6-8.6-4.4-1.7-8.9-5.2-7.8-5.2-11.1 0-3.3 5.2-8.9 13.8-6.6-1.7 4.4-5.2 0-8.6-6.7-12.1-5.5-8.6-5.6 5.2-2.2 5.1-3.3 3.5-1.1 10.3-11.2-8.6-6.6-5.2 0-10.3-1.1 0-10 1.7-13.4 3.5 6.7 10.3-10 5.2-10 0-10 1.7-4.4-5.2-2.3-6.9-7.7 0-2.1-0.2-2.4-8.4-16.6-15.5-14.5 0-1.1 0 1.1-19 13.4 0-1.2-12 8.9-20.8-1.1-15.5 1.7-5.1 1.6-2.2 5.7-3.8 4.1-1 5.5-1.3 2.3-0.5 0.1-0.1 9-1.5 6.7-1.8 6.6-12 8.9-8.7 0-3.4 0-6.9z" id="LUWI" name="Wiltz">
  </path>
  <path d="M517.2 300.3l-2.7 1.5-7.8-1.8-3.4-1.7-1.1-10.4-3.3 0-11.1-1.7-5.6 0-2.2 6.9 6.7 3.5-1.1 0 0 8.6-3.4 5.2-2.2 6.9 0 13.8-3.3 10.4-4.8 6.8-8.5-1.7-10 0 0-8.6 1.1-15.5-6.7-1.7-2.2 12-11.4-4.4-2-0.7 6.7-15.6-6.7 3.5-7.7-12.1 6.6-15.6 15.6-10.3 3.3-13.8-11.1 0-3.3-3.5-10 3.5-11.1-5.2-11.1-10.4-11.1-8.6-12.3-3.5-7.7-8.7-17.8 7-13.3 0-4.5 15.5 2.2 15.6-14.4 6.9-10 8.6-17.8-15.5-6.6 15.5-17.8 0-5.6 1.8 0-7-8.9 0 0-19 2.4-6.5 4-1.8 5.9-6.3 0.2-0.9 10.9 0 5.5-26 6.7-10.3-2.2-5.2-4.5-8.7 0-2.3 1.1-0.9 4.9-7.2 0.2-0.9 8.3-6 10-1.7-1.1-22.5 2.2-8.7 1-9.7 29.3-14.4 5.4-5.7 9.8-3.1 10-10.4 2.2 0 4.5-24.3-1.5-16.3 15.3-1.6 12.5-9.9 5.1 5.6 2.7 12.1 4.9 9.2 7.2 3.5 3.5 1.7 9.1 1.3 18.3-2.9 7.1-4.4 5.1-5.6 4.4-0.6 1.9-0.2 10.4 10.1 3.5 11.6-0.9 11.9 1.8 9.9 12 5.4-5.6 18.2-3.9 17.3-5.1 35.4 1.5 0.9 4.8-0.5 1.8 0.3-3 4.1-7.5 14.6 8.8 5.1 5.2 10.3 5 26.3-2.2 13.9 3.5 10.2 13.9 21.3 3.1 8.8z" id="LUCL" name="Clervaux">
  </path>
  <path d="M228 422.3l2.1 0.2 7.7 0 2.3 6.9 4.4 5.2 10-1.7 10 0 10-5.2-6.7-10.3 13.4-3.5 10-1.7 1.1 0 0 10.3 6.6 5.2 11.2 8.6 1.1-10.3 3.3-3.5 2.2-5.1 5.6-5.2 5.5 8.6 6.7 12.1 0 8.6-4.4 5.2 6.6 1.7 8.9-13.8 3.3-5.2 11.1 0 7.8 5.2 8.9 5.2 4.4 1.7 5.6 8.6 0.9-0.2 3.5 14-8.8-5.2-1.2 8.6 5.6 8.7 1.1 12 0 3.4 5.6 6.9 11.1-5.1 7.8-1.8 10 0 5.3-3.5-4.2 13.9 4.4 10.3 5.6 5.2-10 5.1-8.9 6.9-2.2 3.5-6.7 5.1-3.3 10.3 0 6.9 1.1 15.5-8.9 8.6-5.6 8.6 3.4 3.4 3.3 0 8.9 0-1.1 6.9 0 13.8 0 3.4-3.7 7.9-4.1-1-10-1.8-2.2 0-10 3.5-7.8 5.1-5.6 1.7-6.6 8.6-8.9 3.5-13.3 0-2.3-5.2-3.3-1.7-7.8-5.2-11.2 0 3.5-6.8-15.6-13.8-10 0-8.9 1.8-8.9 0-7.7-1.8 4.4-24-4.4-12.1-8.9-10.3-12.3-24.1-6.6-8.6-4.5-3.4-2.2 0-11.1-3.4-8.9 0-1.1-19-3.3-12-1.1-12.1-6.7-6.9 7.8-1.7 0-13.8 1.1-8.6 0-7.4 5.7 0.6-4.4-6.7 6.5-7.2 21.1 0-2.1-7.1z" id="LURD" name="Redange">
  </path>
  <path d="M580.6 404.1l1.2 2.9 12.6 12.9 27.4 12.2 11.8 7.6 3.8 6.9 3.2 8.7 1.3 3.4-8.6 0-6.7 0-8.8 0 3.3 8.6-8.9 12.1-1.1 6.9 1.1 3.4 11.1 6.9-4.4 6.9-6.7 0 0 6.9-5.5 3.4-1.2 12.1-4.4 1.7-4.6 9.7-2.1-6.3-4.4-3.4-8.9-1.7-3.3 0-16.7-10.4-5.5-8.6-1.2-15.5-7.7 0-12.3 0-9.9 0-8.9 0-8.9 1.8-10 8.6-10-3.5-4.5-8.6-5.5 0-7.8-3.4-3.3-5.2-10 3.5-15.6 3.4-6.6 0-3.4-1.7-2.4 1.6-5.3 3.5-10 0-7.8 1.8-11.1 5.1-5.6-6.9 0-3.4-1.1-12-5.6-8.7 1.2-8.6 8.8 5.2-3.5-14 5.8-1.5 6.6-5.2 2.3-17.2 1.1-8.6 11.1-3.5 1.1-6.9 2.2-15.5 4.5-10.3-2.3-8.7 6.7-1.7 10-5.2 5.5-6.9 0-1.7-5.5-12.1-5.6-10.3 3.1-6.2 11.4 4.4 2.2-12 6.7 1.7-1.1 15.5 0 8.6 10 0 8.5 1.7 0.3 0.1 5.6 1.7 5.5 13.8 7.8 3.5 4.5 1.7-1.1 19 13.3 3.4 7.8 6.9 4.4 3.5 8.9 12 8.9 3.5 11.1 8.6 5.5 3.4 2.3-15.5 5.5 0 8.9-6.9 9.5-2.9z" id="LUDI" name="Diekirch">
  </path>
  <path d="M287.3 806.6l8.3 4.2 6.7 15.5 2.2-5.2 4.4 15.4 12.3 0 11.1-5.1 8.9-1.7 4.4 0 6.7-1.7 6.6-5.2 3.4 0 1.1-8.5 8.9 0 8.8 0 2.3 8.5 2.2 0 7.8-5.1 3.3-1.7 2.2-12 7.8-3.4 2.2-1.6 7.8-5.3 24.4 0 6.7-5.1 11.1-1.7 10 10.2 17.8 18.9 7.8 3.4 5.5 1.7 3.3 0 5.6 0 12.2 8.6 12.2 5.1 7.8 1.7 0 12-1.1 5.2-8.9 3.4 0 3.4 1.9 10.1 11.4 1 0-0.8 8.9-1.7 13.4 3.4 6.6-10.3 4.5-6.8 2.2-3.5 5.5 0 6.9 2.7 2 9.3 0 10.3-32.2 3.4-5.7 0.7-7.6 1-4.5 0-5.8 0-3 0-4.5 5.2 0 0.7 0 8.6-19.2 2.1 5.3 11.4-22.8 2.1-5.7 2.3-4.3 7.6 0.1 8-1.7 6.1-0.1 0.5-1.5 0.6-8.3 3.2-7.3 11.1-3.4-1.1-1.1-6.8-10-8.6-20 22.2-13.3-3.4-18.9-3.4-12.2 1.7-3.3-25.6-11.1-30.8-10 1.7-22.3-8.5-11.1 1.7-16.6 3.4-13.4 0-15.5-12-10-10.2 2.2-12-4.4-8.6-5.6-13.7-11.1 15.4 0.8-19.4 7.4-8 7.4 0 15.5-8.5 1.7-7.7z" id="LUES" name="Esch-sur-Alzette">
  </path>
  <path d="M641.9 458.7l3.6 9.5 0.8 4.2 6.5 0.6 8.9-5.5 3.2-1.9 7.1 0.2 2 1.3 11.7 7.4 23.2 22.1 13.6 8.8 14.1 3.8 38.7 0 24.9 7.4 3.2 0.2 4.3 4.7-0.3-0.3-1.7 1.8-0.1 10.5-1.2 0.9-3.8 27.1-0.1 8.9 2.2 5.5-0.3 4.9-7.9 6.9-0.6 10.9-8.4-2.2-12.2 0-7.8 0-4.4 3.4-8.9 15.5-2.2-12-5.6-8.6-11.1-1.8-2.2-3.4-5.6-6.9-5.5-5.1-4.5 5.1-6.6 3.5-2.3 0 0 13.7-3.3 3.5-7.8 0-4.4-8.6-4.5 0-5.5 12-7.8 1.7-13.3-5.1-11.1 0-6.7-6.9-12.2-1.7-7.8-3.5-3.2-3.8 3.2-8.2 6.7-17.2-10-5.2-1.1-6.8-5.6-3.5-11.1 0-4.4-8.6-0.2-0.6 4.6-9.7 4.4-1.7 1.2-12.1 5.5-3.4 0-6.9 6.7 0 4.4-6.9-11.1-6.9-1.1-3.4 1.1-6.9 8.9-12.1-3.3-8.6 8.8 0 6.7 0 8.6 0z" id="LUEC" name="Echternach">
  </path>
  <path d="M793.9 598.6l0 0.2 1.9 10.2 3.8 9 5.8 7.7-7-2.7-3.8 1.8-2.8 6.1 5.6 6.4 0.2 0.4-11 8.5-8.3 7.2-38.7 25.1-12.5 17.6 1.4 4.2 5.2 3.5 4.9 4.8 0.8 8.3-2.2 5.6-6.1 9-8.1 16.8-14 17.4-3.5-6.3-6.6 0-12.3 5.2-4.4-12-6.7-1.7-1.1 0-2.2-5.2-4.4 0-13.4 0-3.5-7.5-2-4.5-3.4-10.3-5.5-5.1-6.7-6.9 0-15.4-3.3-6.9-5.6-10.3-1.1 0-6.6-10.3-5.6 0-5.6-3.4-5.5 0-22.2 0-11.1-3.4-7.8 6.8-7.8-3.4-8.3-2.9 0.5-0.5 5.6-13.8 7.8-6.8-2.3-12.1 7.8-13.7 7.8-1.7 12.2-8.6 2.2-18.9 7.8 1.7 7.8 1.7 10 3.4 8.9-5.1 0.1-0.4 3.2 3.8 7.8 3.5 12.2 1.7 6.7 6.9 11.1 0 13.3 5.1 7.8-1.7 5.5-12 4.5 0 4.4 8.6 7.8 0 3.3-3.5 0-13.7 2.3 0 6.6-3.5 4.5-5.1 5.5 5.1 5.6 6.9 2.2 3.4 11.1 1.8 5.6 8.6 2.2 12 8.9-15.5 4.4-3.4 7.8 0 12.2 0 8.4 2.2z" id="LUGR" name="Grevenmacher">
  </path>
  <path d="M306.6 630.7l11.2 0 7.8 5.2 3.3 1.7 2.3 5.2 13.3 0 8.9-3.5 6.6-8.6 5.6-1.7 7.8-5.1 10-3.5 2.2 0 10 1.8 4.1 1 2.6 0.7 2.2 10.3 2.2 1.7-3.3 12 6.6 0 7.8 0 13.3 5.2 10 0 6.7 0 5.6-3.5 0-8.5 7.7 6.8 3.4 3.5 11.1 0-2.2 17.1-4.5 12 11.1 5.2 5.6 10.3 5.5 10.3-3.3 6.8-13.3 0-4.5 0-1.1-5.1-7.8-6.9-6.6 8.6-6.7 0-3.3 10.3-2.3 12-4.4 3.4-1.1 6.9-6.7 5.1 0 10.3-11.1 0-6.6 1.7-1.2 8.6-3.3 6.9-6.7 6.8 7.8 3.5 0 6.8 0 7-2.2 1.6-7.8 3.4-2.2 12-3.3 1.7-7.8 5.1-2.2 0-2.3-8.5-8.8 0-8.9 0-1.1 8.5-3.4 0-6.6 5.2-6.7 1.7-4.4 0-8.9 1.7-11.1 5.1-12.3 0-4.4-15.4-2.2 5.2-6.7-15.5-8.3-4.2 3.9-18 5.5-5.2-10-3.4-7.7-1.7 8.8-8.6 13.4-8.5 0-22.3 6.6-10.3 12.3-5.2 4.4 0 0-36-31.1-18.9-1.1-13.7 10-15.5 4.3-8.6z" id="LUCA" name="Capellen">
  </path>
  <path d="M399.7 623.2l3.7-7.9 0-3.4 0-13.8 1.1-6.9-8.9 0-3.3 0-3.4-3.4 5.6-8.6 8.9-8.6-1.1-15.5 0-6.9 3.3-10.3 6.7-5.1 2.2-3.5 8.9-6.9 10-5.1-5.6-5.2-4.4-10.3 4.2-13.9 2.4-1.6 3.4 1.7 6.6 0 15.6-3.4 10-3.5 3.3 5.2 7.8 3.4 5.5 0 4.5 8.6 10 3.5 10-8.6 8.9-1.8 8.9 0 9.9 0 12.3 0 7.7 0 1.2 15.5 5.5 8.6 16.7 10.4 3.3 0 8.9 1.7 4.4 3.4 2.1 6.3 0.2 0.6 4.4 8.6 11.1 0 5.6 3.5 1.1 6.8 10 5.2-6.7 17.2-3.2 8.2-0.1 0.4-8.9 5.1-10-3.4-7.8-1.7-7.8-1.7-2.2 18.9-12.2 8.6-7.8 1.7-7.8 13.7 2.3 12.1-7.8 6.8-5.6 13.8-0.5 0.5-7.2 8-6.7-3.4-5.6 0-7.7 0-6.7-6.9-4.4 0-5.6-1.7-8.9 0-7.8 3.5-8.8 6.8 2.2-17.1-11.1 0-3.4-3.5-7.7-6.8 0 8.5-5.6 3.5-6.7 0-10 0-13.3-5.2-7.8 0-6.6 0 3.3-12-2.2-1.7-2.2-10.3-2.6-0.7z" id="LUME" name="Mersch">
  </path>
  <path d="M709 765.7l-7.1 8.6-12.1 19.2-4.6 13.7 0 39.4-1.6 12-5.3 40.1 2.3 33.3-12.8-8.2-21.2-8.6-8.8-6.8-10-20.5-18.9-12-14.5-1.7 0-10.3-2-9.3-0.2-0.9-2.2-10.3-7.8-6.9 2.2-10.2 7.8 0-4.4-8.6 3.3-5.1 7.8 1.7 6.6 0 7.8 1.7 2.2-10.3 7.8-13.7 7.8-1.7 4.4 0 13.4 1.7-1.1-13.7-6.7-5.1-14.5-6.9 24.3-28.1 3.5 7.5 13.4 0 4.4 0 2.2 5.2 1.1 0 6.7 1.7 4.4 12 12.3-5.2 6.6 0 3.5 6.3z" id="LURM" name="Remich">
  </path>
  <path d="M517.2 300.3l9.2 26.4 6.4 11 8.7-17.2 13.8 22.4 25.3 61.2-9.5 2.9-8.9 6.9-5.5 0-2.3 15.5-5.5-3.4-11.1-8.6-8.9-3.5-8.9-12-4.4-3.5-7.8-6.9-13.3-3.4 1.1-19-4.5-1.7-7.8-3.5-5.5-13.8-5.6-1.7-0.3-0.1 4.8-6.8 3.3-10.4 0-13.8 2.2-6.9 3.4-5.2 0-8.6 1.1 0-6.7-3.5 2.2-6.9 5.6 0 11.1 1.7 3.3 0 1.1 10.4 3.4 1.7 7.8 1.8 2.7-1.5z" id="LUVD" name="Vianden">
  </path>
  <path d="M592.4 854.6l-6.9-2.7-5.5 0-2.2 3.5-4.5 6.8-6.6 10.3-13.4-3.4-8.9 1.7 0 0.8-11.4-1-1.9-10.1 0-3.4 8.9-3.4 1.1-5.2 0-12-7.8-1.7-12.2-5.1-12.2-8.6-5.6 0-3.3 0-5.5-1.7-7.8-3.4-17.8-18.9-10-10.2-11.1 1.7-6.7 5.1-24.4 0-7.8 5.3 0-7 0-6.8-7.8-3.5 6.7-6.8 3.3-6.9 1.2-8.6 6.6-1.7 11.1 0 0-10.3 6.7-5.1 1.1-6.9 4.4-3.4 2.3-12 3.3-10.3 6.7 0 6.6-8.6 7.8 6.9 1.1 5.1 4.5 0 13.3 0 3.3-6.8-5.5-10.3-5.6-10.3-11.1-5.2 4.5-12 8.8-6.8 7.8-3.5 8.9 0 5.6 1.7 4.4 0 6.7 6.9 7.7 0 5.6 0 6.7 3.4 7.2-8 8.3 2.9 7.8 3.4 7.8-6.8 11.1 3.4 22.2 0 5.5 0 5.6 3.4 5.6 0 6.6 10.3 1.1 0 5.6 10.3 3.3 6.9 0 15.4 6.7 6.9 5.5 5.1 3.4 10.3 2 4.5-24.3 28.1 14.5 6.9 6.7 5.1 1.1 13.7-13.4-1.7-4.4 0-7.8 1.7-7.8 13.7-2.2 10.3-7.8-1.7-6.6 0-7.8-1.7-3.3 5.1 4.4 8.6-7.8 0-2.2 10.2 7.8 6.9 2.2 10.3 0.2 0.9z" id="LULU" name="Luxembourg">
  </path>
 </g>
 <g id="points">
  <circle class="49.484377534825654|5.778116595518637" cx="223.1" cy="909.4" id="0">
  </circle>
  <circle class="49.775155276138634|6.159412805199722" cx="530.8" cy="547.1" id="1">
  </circle>
  <circle class="50.13862745277986|6.46444977294459" cx="776.9" cy="91.2" id="2">
  </circle>
 </g>
 <g id="label_points">
  <circle class="Wiltz" cx="367.9" cy="343.3" id="LUWI">
  </circle>
  <circle class="Clervaux" cx="426.3" cy="170.8" id="LUCL">
  </circle>
  <circle class="Redange" cx="312.8" cy="527.6" id="LURD">
  </circle>
  <circle class="Diekirch" cx="501.4" cy="443.8" id="LUDI">
  </circle>
  <circle class="Esch-sur-Alzette" cx="421.6" cy="873" id="LUES">
  </circle>
  <circle class="Echternach" cx="668" cy="536.1" id="LUEC">
  </circle>
  <circle class="Grevenmacher" cx="680" cy="679.5" id="LUGR">
  </circle>
  <circle class="Capellen" cx="374.1" cy="711.6" id="LUCA">
  </circle>
  <circle class="Mersch" cx="497.7" cy="579.6" id="LUME">
  </circle>
  <circle class="Remich" cx="649.6" cy="845.9" id="LURM">
  </circle>
  <circle class="Vianden" cx="520.1" cy="363" id="LUVD">
  </circle>
  <circle class="Luxembourg" cx="538.8" cy="751.4" id="LULU">
  </circle>
 </g>
</svg>