<?xml version="1.0"?>
    
<!--********* Copyright (c) 2024 Pareto Softare, LLC DBA Simplemaps.com ***************************************
************* Free for Commercial Use, full terms at  https://simplemaps.com/resources/svg-license ************
************* Attribution is appreciated! https://simplemaps.com *******************************************-->

<svg baseprofile="tiny" fill="#6f9c76" height="1000" stroke="#ffffff" stroke-linecap="round" stroke-linejoin="round" stroke-width=".5" version="1.2" viewbox="0 0 1000 1000" width="1000" xmlns="http://www.w3.org/2000/svg">
 <g id="features">
  <path d="M414.1 372.2l11.9-2.5 7 3.3 13.4 0 2.4 4.1 4.7 6.6 7.1 5.8 3.9-2.5 3.2-7.4 3.9-2.5 4-4.9 7-1.6 4.8-11.6 2.6-10.9 8.4-1.4 9.4-0.8 7.9 0.8 7.1 3.3 5.5 2.5 2.4-3.3-3.2-5-7.1-5.7 4.8-4.9 4.7-5.8 5.5 3.3 5.5 3.3 7.1 0 3.1 2.5 5.6 2.4 9.5 2.6 0 1.3 0.5 3 0.1 0.4 1 1.7 0.2 0.7 0.2 0.7 0.3 1.6 0.1 2.4-0.1 0.4-0.3 0.6-0.1 0.5-0.1 0.5 0.2 0.6 0.3 0.8 0.3 0.6 1 0.8 0.4 0.6 0.2 0.2 0.2 0.2 0.1 0.3 0.2 0.7 0.2 0.3 0.2 0.2 0.3 0.3 0.4 0.4 0.3 0.2 0.1 0.3 0.2 0.4 0.1 1.2 0.3 0.3 0.2 0.3 0.3 0.2 0.3 0.2 0.2 0.2 0.2 0.3 0.2 0.6 0.2 0.3 0.3 0.2 0.2 0.1 0.4 0.2 0.6 0.3 0.2 0.2 0.2 0.4-0.1 0.6-0.7 2.1 0.1 0.3 0.3 0.3 0.2 0.5 0.2 0.6 0 1.6 0.1 0.3 1.4 2.1 0.9 0.9 1.1 0.7 0.3 0.2 0.4 0 0.4 0.1 0.8-0.1 0.8 0.1 0.3 0.2 0.2 0.3 0.1 0.6-0.1 1.1 0.1 0.6 0.1 0.5 0.2 0.4 0.1 0.5 0.1 0.9 0.1 0.5 0.1 0.4 0.2 0.3 0.1 0.3-0.1 0.7-0.3 0.9-1.4 2.5-0.4 0.5-0.4 0.4-0.3 0.3-0.1 0.4 0.1 0.7 0.3 1.2-0.2 0.5-0.3 0.6-0.8 1.2-0.4 0.6-0.6 0.6-0.2 0.4-0.2 0.5-0.6 2.8-0.2 0.5-0.4 0.5-0.8 0.6-0.2 0.3 0 0.5 0.1 0.6 0.2 0.4 0.3 0.2 1.1 0.1 0.3 0.2 0.1 0.3-0.1 0.5-0.1 0.6 0 0.9 0 0.3-0.5 0.4-0.6 0.5-0.3 0.3-0.2 0.5-0.2 0.8 0 1.5-0.1 0.4-0.2 0.3-0.7 0.2-0.2 0.4-0.3 1-0.1 2.4-0.3 2-0.2 0.5-0.3 0.4-0.7 0.7-0.5 0.1-0.4 0.1-0.4-0.1-0.3 0.1-0.4 0-0.2 0.1-0.2 0.1-0.2 0.2-0.2 0.3-0.2 0.5-0.1 0.9 0 1 0 0.4-0.2 0.5-0.4 0.6-0.7 0.7-0.2 0.3-0.1 0.4-0.1 0.8 0.1 0.5 0.1 0.8-0.1 0.7-1.7 3.1-2.1 2.9-3.5 0.8-1.8 0.7-9 1.7-2.5 0.1-1.5-0.2-0.6-0.5-0.8-1.3-0.4-0.6-0.9-0.3-2.1 0.4-2.7-0.4-1.7-0.5-1-0.5-0.6-0.6-0.3-0.6-0.4-0.5-0.5-0.4-1.8-1-0.5-0.4-0.4-0.5-0.5-1.3-0.1-0.7 0-0.5 0-0.6-0.6-0.5-1.2-0.6-2.7-0.9-1.7-0.3-1.4 0-1.6 0.2-1 0.2-0.7 0.4-2.1 1.6-0.6 0.2-2.4 0.4-0.7 0.2-0.6 0.3-1 0.9-0.3 0.5-0.7 1.2-0.4 0.5-0.6 0.2-0.7-0.9-0.7-0.5-1.3-0.5-1.8-0.2-3.2 0-0.8-0.4-0.2-0.5 0.2-1.4 0-0.7-0.1-0.7-0.7-2.1-0.4-0.6-0.5-0.1-0.6 0.1-0.8 0-1 0.5-0.8 0.2-2.6-0.2-2.3-0.4-1.3-0.1-1 0.1-3.8 1-4.1 0.3-1-0.1-0.8-0.2-0.7-0.4-0.5 0.2-0.9 0.9-1.2 0.6-1 0.8-0.6 0.3-1.2 0.3-0.7 0.2-0.5 0.3-0.8 0.3-1.1 0.2-1.7 0.2-1 0.3-0.6 0.5-0.2 0.5-0.5 0.5-0.6 0.2-1.7 0.5-1.3 0.2-0.9 0.2-2 1.3-0.6 0.3-0.6 0-0.8-0.1-0.7 0.3-0.6 0.4-1.3 0.4-0.8 0-0.4-0.5-0.1-1.2-0.3-0.6-0.5 0-1.3 0.6-1 0.3-0.8-0.1-0.7-0.2-0.7-0.4-0.8-0.3-2.5-0.6-0.7-0.2-0.4-0.4-0.7-0.7-0.5-0.3-0.8-0.1-2.9-7.2-4.7-4.9-0.8-5 3.1-3.3-0.7-4.9-5.6-0.8-7 0.8-5.5 0-2.4-6.6-3.9-16.5 0.7-6.6z" id="MGM" name="Boeny">
  </path>
  <path d="M414.1 372.2l11.9-2.5 7 3.3 13.4 0 2.4 4.1 4.7 6.6 7.1 5.8 3.9-2.5 3.2-7.4 3.9-2.5 4-4.9 7-1.6 4.8-11.6 2.6-10.9 8.4-1.4 9.4-0.8 7.9 0.8 7.1 3.3 5.5 2.5 2.4-3.3-3.2-5-7.1-5.7 4.8-4.9 4.7-5.8 5.5 3.3 5.5 3.3 7.1 0 3.1 2.5 5.6 2.4 9.5 2.6 0 1.3 0.5 3 0.1 0.4 1 1.7 0.2 0.7 0.2 0.7 0.3 1.6 0.1 2.4-0.1 0.4-0.3 0.6-0.1 0.5-0.1 0.5 0.2 0.6 0.3 0.8 0.3 0.6 1 0.8 0.4 0.6 0.2 0.2 0.2 0.2 0.1 0.3 0.2 0.7 0.2 0.3 0.2 0.2 0.3 0.3 0.4 0.4 0.3 0.2 0.1 0.3 0.2 0.4 0.1 1.2 0.3 0.3 0.2 0.3 0.3 0.2 0.3 0.2 0.2 0.2 0.2 0.3 0.2 0.6 0.2 0.3 0.3 0.2 0.2 0.1 0.4 0.2 0.6 0.3 0.2 0.2 0.2 0.4-0.1 0.6-0.7 2.1 0.1 0.3 0.3 0.3 0.2 0.5 0.2 0.6 0 1.6 0.1 0.3 1.4 2.1 0.9 0.9 1.1 0.7 0.3 0.2 0.4 0 0.4 0.1 0.8-0.1 0.8 0.1 0.3 0.2 0.2 0.3 0.1 0.6-0.1 1.1 0.1 0.6 0.1 0.5 0.2 0.4 0.1 0.5 0.1 0.9 0.1 0.5 0.1 0.4 0.2 0.3 0.1 0.3-0.1 0.7-0.3 0.9-1.4 2.5-0.4 0.5-0.4 0.4-0.3 0.3-0.1 0.4 0.1 0.7 0.3 1.2-0.2 0.5-0.3 0.6-0.8 1.2-0.4 0.6-0.6 0.6-0.2 0.4-0.2 0.5-0.6 2.8-0.2 0.5-0.4 0.5-0.8 0.6-0.2 0.3 0 0.5 0.1 0.6 0.2 0.4 0.3 0.2 1.1 0.1 0.3 0.2 0.1 0.3-0.1 0.5-0.1 0.6 0 0.9 0 0.3-0.5 0.4-0.6 0.5-0.3 0.3-0.2 0.5-0.2 0.8 0 1.5-0.1 0.4-0.2 0.3-0.7 0.2-0.2 0.4-0.3 1-0.1 2.4-0.3 2-0.2 0.5-0.3 0.4-0.7 0.7-0.5 0.1-0.4 0.1-0.4-0.1-0.3 0.1-0.4 0-0.2 0.1-0.2 0.1-0.2 0.2-0.2 0.3-0.2 0.5-0.1 0.9 0 1 0 0.4-0.2 0.5-0.4 0.6-0.7 0.7-0.2 0.3-0.1 0.4-0.1 0.8 0.1 0.5 0.1 0.8-0.1 0.7-1.7 3.1-2.1 2.9-3.5 0.8-1.8 0.7-9 1.7-2.5 0.1-1.5-0.2-0.6-0.5-0.8-1.3-0.4-0.6-0.9-0.3-2.1 0.4-2.7-0.4-1.7-0.5-1-0.5-0.6-0.6-0.3-0.6-0.4-0.5-0.5-0.4-1.8-1-0.5-0.4-0.4-0.5-0.5-1.3-0.1-0.7 0-0.5 0-0.6-0.6-0.5-1.2-0.6-2.7-0.9-1.7-0.3-1.4 0-1.6 0.2-1 0.2-0.7 0.4-2.1 1.6-0.6 0.2-2.4 0.4-0.7 0.2-0.6 0.3-1 0.9-0.3 0.5-0.7 1.2-0.4 0.5-0.6 0.2-0.7-0.9-0.7-0.5-1.3-0.5-1.8-0.2-3.2 0-0.8-0.4-0.2-0.5 0.2-1.4 0-0.7-0.1-0.7-0.7-2.1-0.4-0.6-0.5-0.1-0.6 0.1-0.8 0-1 0.5-0.8 0.2-2.6-0.2-2.3-0.4-1.3-0.1-1 0.1-3.8 1-4.1 0.3-1-0.1-0.8-0.2-0.7-0.4-0.5 0.2-0.9 0.9-1.2 0.6-1 0.8-0.6 0.3-1.2 0.3-0.7 0.2-0.5 0.3-0.8 0.3-1.1 0.2-1.7 0.2-1 0.3-0.6 0.5-0.2 0.5-0.5 0.5-0.6 0.2-1.7 0.5-1.3 0.2-0.9 0.2-2 1.3-0.6 0.3-0.6 0-0.8-0.1-0.7 0.3-0.6 0.4-1.3 0.4-0.8 0-0.4-0.5-0.1-1.2-0.3-0.6-0.5 0-1.3 0.6-1 0.3-0.8-0.1-0.7-0.2-0.7-0.4-0.8-0.3-2.5-0.6-0.7-0.2-0.4-0.4-0.7-0.7-0.5-0.3-0.8-0.1-2.9-7.2-4.7-4.9-0.8-5 3.1-3.3-0.7-4.9-5.6-0.8-7 0.8-5.5 0-2.4-6.6-3.9-16.5 0.7-6.6z" id="MGM" name="Sofia">
  </path>
  <path d="M671.1 239.2l-0.6-2.3-0.5-0.8-3-4.1-0.6-0.3-0.6-0.3-0.6-0.4-0.7-0.7-0.3-0.4-0.2-0.4-1.2-3.2-0.1-0.3 0-0.4 0.2-0.6 0.1-0.4-0.1-0.3 0-0.3-2.3-5.2-0.4-0.7-0.6-0.6-1.2-1.6-1-1-0.2-0.3 0-0.4 0.1-0.3 0.3-0.6 0.2-0.3 0.5-0.4 0.8-0.5 0.2-0.3 0.1-0.4 0-0.6-0.2-0.4-0.2-0.3-0.9-0.9-0.2-0.2-1-0.4-0.2-0.2-0.7-0.6-0.3-0.2-0.6-0.3-0.7-0.2-0.3-0.2-1.3-1.1-1.2-1.5-0.8-1.6-0.2-0.3-0.2-0.2-1.9-1.3-2.2-2.3-1.7-1.3-0.3-0.4-0.3-0.7-0.4-0.4-0.5-0.5-0.2-0.3-0.2-0.3-0.8-2.6-0.5-1-0.4-0.3-0.3-0.1-0.3 0.1 5.2-5.8 3.2-10.5 6.3-1.6 0.8-5.7 1.5-4.9 3.2-12.9-4-13 4-4 0.8-11.4 3.1-5.6-0.8-4.9-4.7-0.8 3.9-5.6 5.6-5.7 5.7-5.9 1.1 1.3 0.5 1.1 0.2 0.8 0.6 1.4 0.1 0.7-0.1 0.8-0.8 1.4-0.4 0.9 0.6-0.3 0.6-0.1 0.5 0 0.5 0.4 0.4-0.7 0.4-0.6 0.3-0.6 0.3-1.8 0.5-0.5 0.7-0.1 0.9 0.3-0.3 0.7-0.2 0.2 0.8 0.2 0.9 0.4 0.7 0.6 1.6 1.4 0.3 0.5-0.3 1.6 0.1 0.6 0.8 1.7 0.6 0.7 0.8 0.3 0.8-0.1 0.9 0 0.6 0.6 0.1 1.3-0.5 0.3-0.7 0.2-0.2 0.5 0.9 1.1 0.8 0.5 0.9 0.3 0.6 0.5 0.3 1.3 0.3 1 1.5 1.7 0.3 0.6 0.1 3.5-0.5 5.2 0 1 0.3 1.3 0.1 1 0.2 0.8 1.7 2.6 0.2 1.1-0.2 2.7 0.3 1 0.8 0.5 0.8-0.2 0.7-0.4 0.7 0.1 0.5 0.9-0.1 1.2-0.4 2.1 0.1 1.8 0.9 3.7 0.7 1.8 0.3 0.4 0.7 0.5 0.3 0.4 0.1 0.5-0.1 1.2 0 0.5 0.2 1.3 0.2 0.5 0.2 0.2 0.2 0.2 0.2 0.1 0.3 0 0.4 0.1 0 0.2 0 0.4 0.2 0.4 0.2 0.7-0.5 2.2 0.3 1 0.5 0.8 1.5 3 0.5 2.2 0.7 12.9 1.2 4.8 0.2 1.8 0 2.3-0.6 1.9-0.2 1.1-0.1 2.3 0.2 1.3 0.4 0.8 1.6 1.5 1 1.9 0.1 1.9-0.8 4.9-0.6 2.1-0.2 1 0.1 1.1 0.8 3.1 0.5 7.2 1.7 3.5 0.2 2.4-0.6 2.1-1.4 0.8 0.6 0.8 1.7 0.9 0.7 0.5 0.5 0.9 0.4 1.1 0.8 4.2 4.5 10 1.1 1.7 3.1 3.8 0.6 1 0.5 2.3 0.7 0.6 0.8 0.5 0.8 0.6 0.8 1.6 0.6 2.1 0.3 4.2-0.1 0.4-0.3 1-0.6 1 0 0.5 0.1 0.5 0.1 0.6-0.1 0.5-0.6 1.5-0.1 0.7 0.1 0.6 0.2 0.6 0 0.4-0.2 0.5-0.8 0.8-0.3 0.4-0.4 2.3-1.1 3.3-0.1 1.2-0.4 1.7-5.6 10.7-0.5 1.9 0.6 0.3-0.4 0.9-4.5 5.9-1.5 3.7-0.7 0.8-1 0.3-1-0.1-1 0-0.9 0.7-1.3-3.2-1-1-0.2 0-0.4-0.4-2.4-7.6-0.2-1.2-0.1-0.5-0.2-0.5-0.6-0.9-0.4-0.6-0.3-0.9-0.2-1.1-0.2-2-0.9-2.6-1-2.5-0.1-0.5 0-0.4 0.7-2.5 0-0.4-0.1-1.7 0.1-0.4 0.1-0.3 1.1-2.9 0.1-0.4 0.1-0.4 0-0.4-0.3-0.6-2.3-3.5-0.3-0.6 0-0.4-0.1-0.4 0.1-0.8 0.3-1.5 0.1-0.3 0.7-1.1 0.1-0.4 0.1-0.3-0.3-0.7-0.5-0.8-1.3-1.5-0.4-0.7-0.1-0.6 0.4-0.5 0.2-0.2 0.2-0.2 0.4-0.2 1.6-0.7 0.3-0.2 0.2-0.1 0.2-0.3 0.2-0.3-0.1-0.3-0.2-0.4-4.1-5.5-1.2-2.4-0.5-0.5-0.2-0.2-0.3-0.1-0.4-0.1-0.6 0.1-0.4 0.1-0.9 0.6-0.3 0.1-0.7 0-3.1-0.6-0.9-0.1-0.7 0-0.3 0.2-5.1 2-0.4 0.1-0.6-0.3-0.7-0.7-1.4-2-0.6-1-1.2-1.5-3.8-3.3z" id="MGD" name="Diana">
  </path>
  <path d="M671.1 239.2l-0.6-2.3-0.5-0.8-3-4.1-0.6-0.3-0.6-0.3-0.6-0.4-0.7-0.7-0.3-0.4-0.2-0.4-1.2-3.2-0.1-0.3 0-0.4 0.2-0.6 0.1-0.4-0.1-0.3 0-0.3-2.3-5.2-0.4-0.7-0.6-0.6-1.2-1.6-1-1-0.2-0.3 0-0.4 0.1-0.3 0.3-0.6 0.2-0.3 0.5-0.4 0.8-0.5 0.2-0.3 0.1-0.4 0-0.6-0.2-0.4-0.2-0.3-0.9-0.9-0.2-0.2-1-0.4-0.2-0.2-0.7-0.6-0.3-0.2-0.6-0.3-0.7-0.2-0.3-0.2-1.3-1.1-1.2-1.5-0.8-1.6-0.2-0.3-0.2-0.2-1.9-1.3-2.2-2.3-1.7-1.3-0.3-0.4-0.3-0.7-0.4-0.4-0.5-0.5-0.2-0.3-0.2-0.3-0.8-2.6-0.5-1-0.4-0.3-0.3-0.1-0.3 0.1 5.2-5.8 3.2-10.5 6.3-1.6 0.8-5.7 1.5-4.9 3.2-12.9-4-13 4-4 0.8-11.4 3.1-5.6-0.8-4.9-4.7-0.8 3.9-5.6 5.6-5.7 5.7-5.9 1.1 1.3 0.5 1.1 0.2 0.8 0.6 1.4 0.1 0.7-0.1 0.8-0.8 1.4-0.4 0.9 0.6-0.3 0.6-0.1 0.5 0 0.5 0.4 0.4-0.7 0.4-0.6 0.3-0.6 0.3-1.8 0.5-0.5 0.7-0.1 0.9 0.3-0.3 0.7-0.2 0.2 0.8 0.2 0.9 0.4 0.7 0.6 1.6 1.4 0.3 0.5-0.3 1.6 0.1 0.6 0.8 1.7 0.6 0.7 0.8 0.3 0.8-0.1 0.9 0 0.6 0.6 0.1 1.3-0.5 0.3-0.7 0.2-0.2 0.5 0.9 1.1 0.8 0.5 0.9 0.3 0.6 0.5 0.3 1.3 0.3 1 1.5 1.7 0.3 0.6 0.1 3.5-0.5 5.2 0 1 0.3 1.3 0.1 1 0.2 0.8 1.7 2.6 0.2 1.1-0.2 2.7 0.3 1 0.8 0.5 0.8-0.2 0.7-0.4 0.7 0.1 0.5 0.9-0.1 1.2-0.4 2.1 0.1 1.8 0.9 3.7 0.7 1.8 0.3 0.4 0.7 0.5 0.3 0.4 0.1 0.5-0.1 1.2 0 0.5 0.2 1.3 0.2 0.5 0.2 0.2 0.2 0.2 0.2 0.1 0.3 0 0.4 0.1 0 0.2 0 0.4 0.2 0.4 0.2 0.7-0.5 2.2 0.3 1 0.5 0.8 1.5 3 0.5 2.2 0.7 12.9 1.2 4.8 0.2 1.8 0 2.3-0.6 1.9-0.2 1.1-0.1 2.3 0.2 1.3 0.4 0.8 1.6 1.5 1 1.9 0.1 1.9-0.8 4.9-0.6 2.1-0.2 1 0.1 1.1 0.8 3.1 0.5 7.2 1.7 3.5 0.2 2.4-0.6 2.1-1.4 0.8 0.6 0.8 1.7 0.9 0.7 0.5 0.5 0.9 0.4 1.1 0.8 4.2 4.5 10 1.1 1.7 3.1 3.8 0.6 1 0.5 2.3 0.7 0.6 0.8 0.5 0.8 0.6 0.8 1.6 0.6 2.1 0.3 4.2-0.1 0.4-0.3 1-0.6 1 0 0.5 0.1 0.5 0.1 0.6-0.1 0.5-0.6 1.5-0.1 0.7 0.1 0.6 0.2 0.6 0 0.4-0.2 0.5-0.8 0.8-0.3 0.4-0.4 2.3-1.1 3.3-0.1 1.2-0.4 1.7-5.6 10.7-0.5 1.9 0.6 0.3-0.4 0.9-4.5 5.9-1.5 3.7-0.7 0.8-1 0.3-1-0.1-1 0-0.9 0.7-1.3-3.2-1-1-0.2 0-0.4-0.4-2.4-7.6-0.2-1.2-0.1-0.5-0.2-0.5-0.6-0.9-0.4-0.6-0.3-0.9-0.2-1.1-0.2-2-0.9-2.6-1-2.5-0.1-0.5 0-0.4 0.7-2.5 0-0.4-0.1-1.7 0.1-0.4 0.1-0.3 1.1-2.9 0.1-0.4 0.1-0.4 0-0.4-0.3-0.6-2.3-3.5-0.3-0.6 0-0.4-0.1-0.4 0.1-0.8 0.3-1.5 0.1-0.3 0.7-1.1 0.1-0.4 0.1-0.3-0.3-0.7-0.5-0.8-1.3-1.5-0.4-0.7-0.1-0.6 0.4-0.5 0.2-0.2 0.2-0.2 0.4-0.2 1.6-0.7 0.3-0.2 0.2-0.1 0.2-0.3 0.2-0.3-0.1-0.3-0.2-0.4-4.1-5.5-1.2-2.4-0.5-0.5-0.2-0.2-0.3-0.1-0.4-0.1-0.6 0.1-0.4 0.1-0.9 0.6-0.3 0.1-0.7 0-3.1-0.6-0.9-0.1-0.7 0-0.3 0.2-5.1 2-0.4 0.1-0.6-0.3-0.7-0.7-1.4-2-0.6-1-1.2-1.5-3.8-3.3z" id="MGD" name="Sava">
  </path>
  <path d="M566.2 341.9l0.2-1.5 0.1-0.4 0.4-1 0.1-0.5 0.6-3.9 0-0.6-0.1-0.8-0.5-2.3 0-0.5 0.1-0.5 0.4-1 0.4-0.5 0.4-0.4 0.8-0.6 0.5-0.5 0.2-0.5 0-0.4 0-0.8 0.2-0.4 0.2-0.1 0.3 0.1 0.6 0.3 0.3 0.1 0.2-0.1 0.2-0.1 0.6-0.3 0.3-0.1 0.3 0 0.4 0.1 0.6 0.3 0.7 0.2 0.8 0 0.4-0.1 0.3 0.1 0.4 0.1 0.5 0.3 0.4 0.2 0.3 0 1.6 0.1 0.4 0 0.3-0.1 0.3-0.1 0.3-0.2 0.4-0.1 1.1-0.2 0.3-0.1 0.9-0.5 0.3-0.1 3-0.6 0.8 0.1 0.4 0.1 0.4 0 0.3 0 0.7-0.1 0.3 0 0.4 0.1 0.2 0.2 0.7 0.7 1 1.2 0.2 0.3 0.9 0.5 0.4 0.4 0.3 0.2 0.4 0.1 1.1 0.2 0.3 0.2 0.2 0.2 0.1 0.4 0.1 1.2 0.1 0.4 0.2 0.2 0.3 0 0.6-0.2 0.4 0 0.8 0 1.5-0.3 0.3 0.1 0.3 0.1 0.5 0.3 0.7 0.7 1.8 2.3 1.1 0.7 0.6 0.3 1.4 0.4 1.2 0.6 1.1 0.8 0.4 0.5 0.2 0.2 0.1 0.7 0.2 0.3 0.3 0.2 0.5 0.4 0.3 0.2 0.1 0.2 0.1 1 0.2 0.3 0.3 0.6 0.2 0.3 0 0.4 0.2 1.5-0.1 0.8 0 0.3 0.2 0.4 0.1 0.2 0.2 0.3 0.7 0.6 0.2 0.3 0.1 0.4-0.1 0.4-0.1 0.3-0.2 0.7-1 1.7-0.3 0.6-0.2 0.8 0 0.4 0 0.8 0.1 0.8 0.2 0.7 0.6 1.2 2 3 0.3 0.2 0.2 0.2 0.4 0.1 0.4 0 0.3-0.1 0.3-0.1 0.6-0.4 0.5-0.4 1.1-1.1 5.4-3.7 0.3-0.2 0.3-0.1 0.4 0 0.8 0 1-0.2 0.4 0.1 1.3 0.5 0.4 0 0.4 0.1-1.6 7.2 0 5.7-3.9 9.9 1.6 10.7-3.2 7.4 4.1 4.8-3.3 8.4-5.5 4.2 1.6 3.3 6.3 3.3 1.5 5.8-2.3 6.6-7.9 0-3.9 1.6 3.9 5 5.5 6.6 0.8 6.6-7.9 5-7.9 1.7-2.3 9.1 0 13.3 3.1 9.9 5.5 15 0 12.5-5.5 1.7-0.8 10-11 3.3 2.4 12.6-5.5 0-2.4 15-10.2-0.8-4.8-4.2-4.7 3.3-8.8 1.8 0.6-1.6 0.2-1.7 0-0.4-0.1-0.5-0.2-0.6-0.2-0.8 0-4.1 0-0.8 0.2-0.4 0.8-1 0.2-0.6 0.1-0.5 0-0.5-0.2-1.2 0-1.6 0.1-0.6 0.2-0.4 0.8-1.5 0.5-1 0.2-0.7 0-0.8 0.1-0.4 0.2-0.4 0.9-1 1-1.7 0.3-0.5 0.1-0.5 0.2-1 0.5-4.3 0-0.9-0.2-1.3 0-2.3-0.3-1-0.1-0.5-0.1-0.7 0.1-2 0-0.5-0.1-0.3-2.1-4.1-0.1-0.5-0.1-0.9 0-0.5 0.1-0.5 1.1-2.1 0.3-0.9 0.1-0.6 0-0.9 0-0.4 0.2-0.4 0.3-0.5 0.3-0.5 0.2-0.6 0.1-0.7 0.2-3.2 0-1.5 0.1-2.2 0-0.4-0.5-1.8-0.2-1.6-0.1-5.2 0.8-4.4 2.1-6 0.2-1.2 0.1-0.8-0.1-0.9 0.5-5.5 0-2.4 0.1-0.6 0-0.4 0.1-0.2 0.4-0.5 1-0.8 0.3-0.4 0.3-0.6 0-0.4 0-0.5 0-0.3-0.2-0.3-0.5-0.9-0.1-0.5-0.1-0.6 0-1.8-0.1-0.5-0.9-1.7-0.2-0.4-0.1-0.6 0.1-4.1 0-0.2 0-0.2-0.2-1.1-0.1-1.3 0.1-0.7 0.2-0.7 0.2-0.6 0-0.4-0.1-0.3-0.3-0.6-0.3-0.7-0.3-1.5-0.2-0.7-0.5-0.9-0.1-0.3-0.2-2.9-0.1-0.4-0.2-0.3-0.2-0.2-0.3-0.2-1-0.4-0.5-0.4-0.3-0.2-0.8-0.5-0.3-0.2-0.2-0.4-0.1-0.3-0.3-1.4 2.1-2.9 1.7-3.1 0.1-0.7-0.1-0.8-0.1-0.5 0.1-0.8 0.1-0.4 0.2-0.3 0.7-0.7 0.4-0.6 0.2-0.5 0-0.4 0-1 0.1-0.9 0.2-0.5 0.2-0.3 0.2-0.2 0.2-0.1 0.2-0.1 0.4 0 0.3-0.1 0.4 0.1 0.4-0.1 0.5-0.1 0.7-0.7 0.3-0.4 0.2-0.5 0.3-2 0.1-2.4 0.3-1 0.2-0.4 0.7-0.2 0.2-0.3 0.1-0.4 0-1.5 0.2-0.8 0.2-0.5 0.3-0.3 0.6-0.5 0.5-0.4 0-0.3 0-0.9 0.1-0.6 0.1-0.5-0.1-0.3-0.3-0.2-1.1-0.1-0.3-0.2-0.2-0.4-0.1-0.6 0-0.5 0.2-0.3 0.8-0.6 0.4-0.5 0.2-0.5 0.6-2.8 0.2-0.5 0.2-0.4 0.6-0.6 0.4-0.6 0.8-1.2 0.3-0.6 0.2-0.5-0.3-1.2-0.1-0.7 0.1-0.4 0.3-0.3 0.4-0.4 0.4-0.5 1.4-2.5 0.3-0.9 0.1-0.7-0.1-0.3-0.2-0.3-0.1-0.4-0.1-0.5-0.1-0.9-0.1-0.5-0.2-0.4-0.1-0.5-0.1-0.6 0.1-1.1-0.1-0.6-0.2-0.3-0.3-0.2-0.8-0.1-0.8 0.1-0.4-0.1-0.4 0-0.3-0.2-1.1-0.7-0.9-0.9-1.4-2.1-0.1-0.3 0-1.6-0.2-0.6-0.2-0.5-0.3-0.3-0.1-0.3 0.7-2.1 0.1-0.6-0.2-0.4-0.2-0.2-0.6-0.3-0.4-0.2-0.2-0.1-0.3-0.2-0.2-0.3-0.2-0.6-0.2-0.3-0.2-0.2-0.3-0.2-0.3-0.2-0.2-0.3-0.3-0.3-0.1-1.2-0.2-0.4-0.1-0.3-0.3-0.2-0.4-0.4-0.3-0.3-0.2-0.2-0.2-0.3-0.2-0.7-0.1-0.3-0.2-0.2-0.2-0.2-0.4-0.6-1-0.8-0.3-0.6-0.3-0.8-0.2-0.6 0.1-0.5 0.1-0.5 0.3-0.6 0.1-0.4-0.1-2.4-0.3-1.6-0.2-0.7-0.2-0.7-1-1.7-0.1-0.4-0.5-3 0-1.3z" id="MGA" name="Analanjirofo">
  </path>
  <path d="M566.2 341.9l0.2-1.5 0.1-0.4 0.4-1 0.1-0.5 0.6-3.9 0-0.6-0.1-0.8-0.5-2.3 0-0.5 0.1-0.5 0.4-1 0.4-0.5 0.4-0.4 0.8-0.6 0.5-0.5 0.2-0.5 0-0.4 0-0.8 0.2-0.4 0.2-0.1 0.3 0.1 0.6 0.3 0.3 0.1 0.2-0.1 0.2-0.1 0.6-0.3 0.3-0.1 0.3 0 0.4 0.1 0.6 0.3 0.7 0.2 0.8 0 0.4-0.1 0.3 0.1 0.4 0.1 0.5 0.3 0.4 0.2 0.3 0 1.6 0.1 0.4 0 0.3-0.1 0.3-0.1 0.3-0.2 0.4-0.1 1.1-0.2 0.3-0.1 0.9-0.5 0.3-0.1 3-0.6 0.8 0.1 0.4 0.1 0.4 0 0.3 0 0.7-0.1 0.3 0 0.4 0.1 0.2 0.2 0.7 0.7 1 1.2 0.2 0.3 0.9 0.5 0.4 0.4 0.3 0.2 0.4 0.1 1.1 0.2 0.3 0.2 0.2 0.2 0.1 0.4 0.1 1.2 0.1 0.4 0.2 0.2 0.3 0 0.6-0.2 0.4 0 0.8 0 1.5-0.3 0.3 0.1 0.3 0.1 0.5 0.3 0.7 0.7 1.8 2.3 1.1 0.7 0.6 0.3 1.4 0.4 1.2 0.6 1.1 0.8 0.4 0.5 0.2 0.2 0.1 0.7 0.2 0.3 0.3 0.2 0.5 0.4 0.3 0.2 0.1 0.2 0.1 1 0.2 0.3 0.3 0.6 0.2 0.3 0 0.4 0.2 1.5-0.1 0.8 0 0.3 0.2 0.4 0.1 0.2 0.2 0.3 0.7 0.6 0.2 0.3 0.1 0.4-0.1 0.4-0.1 0.3-0.2 0.7-1 1.7-0.3 0.6-0.2 0.8 0 0.4 0 0.8 0.1 0.8 0.2 0.7 0.6 1.2 2 3 0.3 0.2 0.2 0.2 0.4 0.1 0.4 0 0.3-0.1 0.3-0.1 0.6-0.4 0.5-0.4 1.1-1.1 5.4-3.7 0.3-0.2 0.3-0.1 0.4 0 0.8 0 1-0.2 0.4 0.1 1.3 0.5 0.4 0 0.4 0.1-1.6 7.2 0 5.7-3.9 9.9 1.6 10.7-3.2 7.4 4.1 4.8-3.3 8.4-5.5 4.2 1.6 3.3 6.3 3.3 1.5 5.8-2.3 6.6-7.9 0-3.9 1.6 3.9 5 5.5 6.6 0.8 6.6-7.9 5-7.9 1.7-2.3 9.1 0 13.3 3.1 9.9 5.5 15 0 12.5-5.5 1.7-0.8 10-11 3.3 2.4 12.6-5.5 0-2.4 15-10.2-0.8-4.8-4.2-4.7 3.3-8.8 1.8 0.6-1.6 0.2-1.7 0-0.4-0.1-0.5-0.2-0.6-0.2-0.8 0-4.1 0-0.8 0.2-0.4 0.8-1 0.2-0.6 0.1-0.5 0-0.5-0.2-1.2 0-1.6 0.1-0.6 0.2-0.4 0.8-1.5 0.5-1 0.2-0.7 0-0.8 0.1-0.4 0.2-0.4 0.9-1 1-1.7 0.3-0.5 0.1-0.5 0.2-1 0.5-4.3 0-0.9-0.2-1.3 0-2.3-0.3-1-0.1-0.5-0.1-0.7 0.1-2 0-0.5-0.1-0.3-2.1-4.1-0.1-0.5-0.1-0.9 0-0.5 0.1-0.5 1.1-2.1 0.3-0.9 0.1-0.6 0-0.9 0-0.4 0.2-0.4 0.3-0.5 0.3-0.5 0.2-0.6 0.1-0.7 0.2-3.2 0-1.5 0.1-2.2 0-0.4-0.5-1.8-0.2-1.6-0.1-5.2 0.8-4.4 2.1-6 0.2-1.2 0.1-0.8-0.1-0.9 0.5-5.5 0-2.4 0.1-0.6 0-0.4 0.1-0.2 0.4-0.5 1-0.8 0.3-0.4 0.3-0.6 0-0.4 0-0.5 0-0.3-0.2-0.3-0.5-0.9-0.1-0.5-0.1-0.6 0-1.8-0.1-0.5-0.9-1.7-0.2-0.4-0.1-0.6 0.1-4.1 0-0.2 0-0.2-0.2-1.1-0.1-1.3 0.1-0.7 0.2-0.7 0.2-0.6 0-0.4-0.1-0.3-0.3-0.6-0.3-0.7-0.3-1.5-0.2-0.7-0.5-0.9-0.1-0.3-0.2-2.9-0.1-0.4-0.2-0.3-0.2-0.2-0.3-0.2-1-0.4-0.5-0.4-0.3-0.2-0.8-0.5-0.3-0.2-0.2-0.4-0.1-0.3-0.3-1.4 2.1-2.9 1.7-3.1 0.1-0.7-0.1-0.8-0.1-0.5 0.1-0.8 0.1-0.4 0.2-0.3 0.7-0.7 0.4-0.6 0.2-0.5 0-0.4 0-1 0.1-0.9 0.2-0.5 0.2-0.3 0.2-0.2 0.2-0.1 0.2-0.1 0.4 0 0.3-0.1 0.4 0.1 0.4-0.1 0.5-0.1 0.7-0.7 0.3-0.4 0.2-0.5 0.3-2 0.1-2.4 0.3-1 0.2-0.4 0.7-0.2 0.2-0.3 0.1-0.4 0-1.5 0.2-0.8 0.2-0.5 0.3-0.3 0.6-0.5 0.5-0.4 0-0.3 0-0.9 0.1-0.6 0.1-0.5-0.1-0.3-0.3-0.2-1.1-0.1-0.3-0.2-0.2-0.4-0.1-0.6 0-0.5 0.2-0.3 0.8-0.6 0.4-0.5 0.2-0.5 0.6-2.8 0.2-0.5 0.2-0.4 0.6-0.6 0.4-0.6 0.8-1.2 0.3-0.6 0.2-0.5-0.3-1.2-0.1-0.7 0.1-0.4 0.3-0.3 0.4-0.4 0.4-0.5 1.4-2.5 0.3-0.9 0.1-0.7-0.1-0.3-0.2-0.3-0.1-0.4-0.1-0.5-0.1-0.9-0.1-0.5-0.2-0.4-0.1-0.5-0.1-0.6 0.1-1.1-0.1-0.6-0.2-0.3-0.3-0.2-0.8-0.1-0.8 0.1-0.4-0.1-0.4 0-0.3-0.2-1.1-0.7-0.9-0.9-1.4-2.1-0.1-0.3 0-1.6-0.2-0.6-0.2-0.5-0.3-0.3-0.1-0.3 0.7-2.1 0.1-0.6-0.2-0.4-0.2-0.2-0.6-0.3-0.4-0.2-0.2-0.1-0.3-0.2-0.2-0.3-0.2-0.6-0.2-0.3-0.2-0.2-0.3-0.2-0.3-0.2-0.2-0.3-0.3-0.3-0.1-1.2-0.2-0.4-0.1-0.3-0.3-0.2-0.4-0.4-0.3-0.3-0.2-0.2-0.2-0.3-0.2-0.7-0.1-0.3-0.2-0.2-0.2-0.2-0.4-0.6-1-0.8-0.3-0.6-0.3-0.8-0.2-0.6 0.1-0.5 0.1-0.5 0.3-0.6 0.1-0.4-0.1-2.4-0.3-1.6-0.2-0.7-0.2-0.7-1-1.7-0.1-0.4-0.5-3 0-1.3z" id="MGA" name="Atsinanana">
  </path>
  <path d="M537 638.7l-2.4 12.7-3.1 7.6 1.5 5 2.4 6-3.9 19.4-2.4 10.2-2.4 5.1 2.4 5.1-9.5 5.1-7 4.3-4.8 6.8-7.8-3.4-6.3 0-7.9 0-6.3-0.9-4.7-5.9-1.6-8.5-2.4-6-11-5.9-11.8-3.4-9.5-0.9-7.8 0.9-5.5-0.9-9.9-6.4 0.7-0.2 0.3-0.1 0.3-0.2 0.2-0.2 0.1-0.3 0.1-0.4-0.1-0.7-0.1-0.7 0-0.2 0-0.3 0.2-0.2 1.2-0.6 0.2-0.3 0.2-0.3 0.1-0.4 0-0.3-0.1-0.4-1-4.5-0.1-0.4 0.1-0.4 0.3-1.4 0.1-0.5-0.1-0.8-0.4-1.9 0-0.4 0-0.3 0.2-0.4 2.4-2.7 0.1-0.3 0.2-0.4 0-0.4 0.1-0.4-0.1-1.2 0.1-0.3 0.2-0.3 0.2-0.3 0.3-0.1 0.7-0.2 0.3-0.2 0.1-0.3 0.3-0.7 0.2-0.3 0.1-0.3 0.3-0.2 0.3-0.1 0.4-0.1 0.3-0.1 0.3-0.3 0.1-0.3 0.3-0.2 0.6-0.3 0.8-0.5 0.8-0.2 0.3-0.1 0.3-0.2 0.3-0.1 1.2-0.1 0.4-0.1 0.3-0.2 0.2-0.2 0.2-0.3 0.2-0.3 0.1-0.4 0.1-1.7 0-0.8-1.2-6.8 0-0.4 0.1-0.4 0.2-0.2 0.7-0.7 0.4-0.5 0.9-1.6 8.3 0 7.9-4.2 8.7-2.6 4.7-5 5.5-5.1 5.5-2.5 4.7 1.7 5.5-1.7 1.6 5.1 6.3 9.2 8.7 5.9 7.8 0 4.8-6.7 10.2-4.2 4.7 1.7 2.4 4.2 7.9 0.8z" id="MGF" name="Vatovavy-Fitovinany">
  </path>
  <path d="M537 638.7l-2.4 12.7-3.1 7.6 1.5 5 2.4 6-3.9 19.4-2.4 10.2-2.4 5.1 2.4 5.1-9.5 5.1-7 4.3-4.8 6.8-7.8-3.4-6.3 0-7.9 0-6.3-0.9-4.7-5.9-1.6-8.5-2.4-6-11-5.9-11.8-3.4-9.5-0.9-7.8 0.9-5.5-0.9-9.9-6.4 0.7-0.2 0.3-0.1 0.3-0.2 0.2-0.2 0.1-0.3 0.1-0.4-0.1-0.7-0.1-0.7 0-0.2 0-0.3 0.2-0.2 1.2-0.6 0.2-0.3 0.2-0.3 0.1-0.4 0-0.3-0.1-0.4-1-4.5-0.1-0.4 0.1-0.4 0.3-1.4 0.1-0.5-0.1-0.8-0.4-1.9 0-0.4 0-0.3 0.2-0.4 2.4-2.7 0.1-0.3 0.2-0.4 0-0.4 0.1-0.4-0.1-1.2 0.1-0.3 0.2-0.3 0.2-0.3 0.3-0.1 0.7-0.2 0.3-0.2 0.1-0.3 0.3-0.7 0.2-0.3 0.1-0.3 0.3-0.2 0.3-0.1 0.4-0.1 0.3-0.1 0.3-0.3 0.1-0.3 0.3-0.2 0.6-0.3 0.8-0.5 0.8-0.2 0.3-0.1 0.3-0.2 0.3-0.1 1.2-0.1 0.4-0.1 0.3-0.2 0.2-0.2 0.2-0.3 0.2-0.3 0.1-0.4 0.1-1.7 0-0.8-1.2-6.8 0-0.4 0.1-0.4 0.2-0.2 0.7-0.7 0.4-0.5 0.9-1.6 8.3 0 7.9-4.2 8.7-2.6 4.7-5 5.5-5.1 5.5-2.5 4.7 1.7 5.5-1.7 1.6 5.1 6.3 9.2 8.7 5.9 7.8 0 4.8-6.7 10.2-4.2 4.7 1.7 2.4 4.2 7.9 0.8z" id="MGF" name="Atsimo-Atsinanana">
  </path>
  <path d="M432.6 635l-7.4 1.2-6.3 1.7-7.9 8.4-13.4 5.1-6.3 7.6-4.7 5-7.1-0.8-3.9-4.2-8.7-0.9-3.2 7.6 0 17-5.8 9.1-1.5 0.8-1.4 1.1-2.2 0.5-3.2 1.6-4.8 0.1-2.1 0.6-1.9 1.1-0.5-1.8-0.4-0.5-0.6-0.4-0.3 0.1-0.6 1-1.2 1.3-0.6 0-1-2-2.1-1.2-2.3 0.1-2.3 1-1.9 1.1-1.1 1.1-1.5 2.1-1.1 0.4-2.2 0.6-1.3 0.2-1.4-0.3-0.6-0.4-0.7-0.7-0.4-0.3-0.9-0.2-0.8-0.1-0.8-0.2-0.8-0.6-0.3-0.6-0.2-1.5-0.3-0.7-1.6-1.7-1-1.8-0.5-1.2-0.2-0.9-0.4-0.9-2.1-1.7-0.5-1.6-0.1-1.5-0.5-1.1-1.1-2.2-0.1-0.7-0.1-1.4-0.2-0.7-0.4-0.6-1.8-1.3-1.2-1.7-0.6-1.2-0.3-1-0.6-0.9-2.7-1.5-0.6-0.9-0.5-3.5-0.3-0.8-0.8-0.8-2.2-1.5-0.9-1 0-0.4 1.7-0.9 0.8-1.2 0.3-0.2 3.5 0 2.3-0.6 1.2 0.3 1.1 0.5 1.2 0.2 1.5-0.6 1.8-1.4 1.6-1.8 0.6-1.7 0.3-2 2.3-6.3 2.3-13 4-7.8 1.3-1.3 2.1-0.5 1.1-1 3.4-6.4 0.8-2.7 0.6-3.2 0.8-3 1.7-2.1 0 0.6 0.1 0.4 0.3 0.8 1.5-3.7 0.9-1.1 2.8-2.2 0.8-0.9-0.2-2.1 0.7-2.5 4.5-9.2 1.4-2.1 3.7-3.7 1.5-1.9 1.2-2.1 1-2.5 0.3-2 0.1-2.9-0.5-2.2-1.2-0.2-0.5-1.8-0.3-0.5-0.5-0.3-0.9 0-0.4-0.2-0.8-0.7-0.9-1-0.6-1.2-0.3-1.2 0.3-0.9 1.2-2.3 0.5-0.7 0.5-0.9 0.2-1.1-0.1-2.3-0.1-0.7-0.3-0.6-0.1-0.6 0.1-0.8 0.3-0.3 1.1-0.7 0.3-0.4 0.4-1.3 0.1-1 0.5-0.7 1.4-0.2 0.8-1.2-0.2-2.6-1.3-4.4-0.9-2.2-1.2-1.9-3-2.9-0.5-0.8-0.5-2.2-1.1-2.2-4.6-5.9 1.4 0.3 2.7 1 2.1 0.2 1.4 0.4 0.5 0 0.6-0.2 1.4-0.4 0.7-0.1 0.7 0 0.6 0 0.6 0.2 0.5 0.1 0.4 0.2 0.4 0.4 0.8 1 2.6 3.7 0.5 0.5 0.6 0.3 1.4 0.4 0.9 0 1.7-0.2 1.4 0.3 0.8 0.1 1.1-0.1 1.1 0.6 0.5 0 1.2-0.3 0.7 0 1.8 0.8 1.2 0.7 0.6 0.4 1.4 0.4 0.8 0.1 0.7 0 2.1-0.6 0.8-0.4 0.7-0.8 0.5-1.1 0.6-0.7 0.9-0.6 0.7-0.3 0.7-0.1 0.7 0 1.2 0.5 1.7 0.5 0.5 0.2 0.6 0.2 0.7-0.1 1-0.5 1.4-0.3 1.3 0 0.6-0.3 0.5-0.4 0-0.8-0.4-0.5-0.4-0.5-2.7-1.9-0.5-0.5-0.4-0.4-0.4-0.8-0.2-0.6-0.1-0.6 0.2-0.8 0.7-1.1 0.4-0.8 0.3-1-0.1-0.8-0.2-0.7-0.3-0.7-0.3-0.6-0.6-3.2-0.4-1.2-0.2-0.7-0.2-0.7-0.3-0.5-0.5-0.2-0.5-0.2-0.2-0.2-0.3-0.5-0.1-0.6 0-0.8 0.3-1 0.7-1.4 0.3-1 0-1-0.4-2.2-0.2-0.5-0.3-0.4-0.3-0.4-1.3-1.2-0.9-1.7 0-0.7 0.2-0.8-0.1-0.7-0.3-0.6-0.8-1-0.3-0.5-0.2-0.7 0-1.3-0.5-1.2-1.3-6.3-0.3-0.7-0.3-0.6-1.4-2.2-0.3-0.6-0.3-1.1-0.2-0.6-2.3-3.3-0.3-0.5-0.3-0.6 0.1-0.6 0.3-0.6 1-1.7 0.4-0.5 2.5-2.1 1.6-0.9 1.6-0.5 0.8-0.5 0.6-0.6 0.4-0.5 0.4-0.5 0.9-0.9 0.7-0.9 0.3-0.3 0.9-0.7 0.4-0.4 0.5-0.4 0.5-0.1 1.5 1.1 2 0.9 0.6 0.5 0.5 0.6 0.5 0.4 0.6 0.2 0.8-0.2 1.2-0.8 2.4-1.1 0.9 0 0.9 0.2 1.6 0.6 0.8 0.5 0.7 0.5 1 0.8 0.6 0.4 5.6 2.5 0.8 0.1 0.9-0.4 1.3-0.8 0.5-0.4 0.3-0.5 0.4-0.1 0.7 0 1.2 0.6 0.6 0.4 0.3 0.5 0.2 0.6 0.3 0.6 0.4 0.4 0.6 0.1 0.6-0.3 0.6-0.6 0.3-0.3 0.4-0.3 1.2-0.3 1.1 0.4 0.4 0.6 1.8 2.8 0.3 0.7 0 0.5-0.7 0.8-0.2 0.2-0.1 0.4-0.1 0.4 0 2.1 0.9 8-0.4 3.4-0.2 0.5-0.2 0.2-0.2 0.3-1.1 0.7-0.3 0.2-0.2 0.3-0.2 0.2-0.3 0.7-0.2 0.2-0.2 0.2-0.9 0.5-0.2 0.2-0.3 0.3-0.5 0.9-0.1 0.3-1.1 1.2-0.5 0.4-0.6 0.5-0.4 0.6-0.1 0.4 0.1 0.4 0.2 0.7 0.2 0.7 0.3 3.3 0.3 1.4 0.1 0.4 0.4 1.8 0 0.6-0.1 0.4-0.1 0.3-0.6 1-0.3 0.6-0.3 1.1 0.1 0.6 0.1 0.3 0.4 0.2 1 0.3 0.3 0.2 0.2 0.2 0.2 0.2 0.5 0.9 1.1 3 0.2 0.3 0.2 0.3 0.3 0.2 1.1 0.7 0.3 0.4 0.3 0.5 0.3 1.2 0.3 0.5 0.3 0.4 1.4 0.5 0.4 0.2 0.3 0.5 0.1 0.4 0 0.4-0.3 0.8-0.2 0.5-0.1 0.8 0.1 0.5 0.2 0.4 0.6 0.7 0.8 1.1 0.6 1.2 0.1 0.3 0.5 0.5 1.2 1 0.6 0.8 0.5 0.4 0.3 0.2 0.3 0.2 0.3 0 0.4 0 0.3-0.2 0.8-0.5 0.6-0.3 1.1-0.3 0.3 0 0.4 0 0.5 0.4 0.1 0.5 0.1 0.7 0.1 0.4 0.6 1.3 0.2 1.1 0.6 1.9 0.2 0.6 0 0.6 0.1 2-0.2 1.7 0 1.9 0 0.6-0.2 0.2-0.3 0.2-1 0.4-0.1 0.1-0.2 0.1-0.1 0.4 0.2 3.6-0.1 0.4-0.1 0.4-0.2 0.4-0.1 0.5-0.2 0.9 0.1 0.5 0.1 0.5 0.3 0.2 0.2 0.4 0.3 0.6 0.6 2.4 1.3 3.3 0.2 0.7 0.1 1 0.1 0.7 0.4 1.4 0 0.5-0.2 2.6-0.1 0.4-0.1 0.3-0.4 0.6-0.4 0.5-0.5 0.4-0.5 0.5-0.2 0.6-0.1 0.3-0.2 1.3-0.1 0.3-0.3 0.6-1.5 1.9-0.2 0.6-0.1 1.7-0.1 0.3-0.1 0.4-0.5 0.9-0.1 0.4 0.1 0.5 0.4 0.7 0.3 0.3 0.3 0.3 0.5 0.4 1 0.5 0.2 0.2 0.2 0.3 0.1 0.4-0.1 0.5-0.3 0.7 0 0.4 0.1 1-0.1 0.4-0.1 0.3-0.3 0.2-0.5 0.4-0.3 0.2-0.1 0.3-0.1 0.3-0.1 0.5 0.1 1.2-0.1 0.4-0.1 0.4 0 0.4 0.1 0.5 0.4 0.7 0.2 0.5 0 0.7 0 1 0.1 0.5 0.3 0.8 0.5 1.2 0.8 3.5 0.1 1.3 0 0.5 1.1 4.6 0.1 0.7 0 0.5-0.1 0.4-0.2 0.6-0.2 0.8-0.1 0.4 0 0.4 0.6 2.6 0 0.4 0 0.9-0.1 0.4-0.1 0.3-0.7 1.1 0 0.2-0.1 0.3-0.1 1.2-0.2 0.8-0.1 0.4-0.1 0.3-0.1 0.3 0 0.6 1.6 7.2 0.3 3.2 0 0.4-0.1 0.4-0.2 0.3-0.3 0.2-0.3 0.1-1.2 0.1-0.3 0.2-0.3 0.2-0.1 0.4-0.1 0.4-0.1 1.3-0.1 0.3-0.2 0.4-0.3 0.6-0.1 0.3-0.4 2-0.1 0.4 0.1 0.8-0.1 0.8 0 0.6 0.2 0.8 0.4 1.6 0.1 0.9 0 0.6-0.1 0.8z" id="MGU" name="Anosy">
  </path>
  <path d="M432.6 635l-7.4 1.2-6.3 1.7-7.9 8.4-13.4 5.1-6.3 7.6-4.7 5-7.1-0.8-3.9-4.2-8.7-0.9-3.2 7.6 0 17-5.8 9.1-1.5 0.8-1.4 1.1-2.2 0.5-3.2 1.6-4.8 0.1-2.1 0.6-1.9 1.1-0.5-1.8-0.4-0.5-0.6-0.4-0.3 0.1-0.6 1-1.2 1.3-0.6 0-1-2-2.1-1.2-2.3 0.1-2.3 1-1.9 1.1-1.1 1.1-1.5 2.1-1.1 0.4-2.2 0.6-1.3 0.2-1.4-0.3-0.6-0.4-0.7-0.7-0.4-0.3-0.9-0.2-0.8-0.1-0.8-0.2-0.8-0.6-0.3-0.6-0.2-1.5-0.3-0.7-1.6-1.7-1-1.8-0.5-1.2-0.2-0.9-0.4-0.9-2.1-1.7-0.5-1.6-0.1-1.5-0.5-1.1-1.1-2.2-0.1-0.7-0.1-1.4-0.2-0.7-0.4-0.6-1.8-1.3-1.2-1.7-0.6-1.2-0.3-1-0.6-0.9-2.7-1.5-0.6-0.9-0.5-3.5-0.3-0.8-0.8-0.8-2.2-1.5-0.9-1 0-0.4 1.7-0.9 0.8-1.2 0.3-0.2 3.5 0 2.3-0.6 1.2 0.3 1.1 0.5 1.2 0.2 1.5-0.6 1.8-1.4 1.6-1.8 0.6-1.7 0.3-2 2.3-6.3 2.3-13 4-7.8 1.3-1.3 2.1-0.5 1.1-1 3.4-6.4 0.8-2.7 0.6-3.2 0.8-3 1.7-2.1 0 0.6 0.1 0.4 0.3 0.8 1.5-3.7 0.9-1.1 2.8-2.2 0.8-0.9-0.2-2.1 0.7-2.5 4.5-9.2 1.4-2.1 3.7-3.7 1.5-1.9 1.2-2.1 1-2.5 0.3-2 0.1-2.9-0.5-2.2-1.2-0.2-0.5-1.8-0.3-0.5-0.5-0.3-0.9 0-0.4-0.2-0.8-0.7-0.9-1-0.6-1.2-0.3-1.2 0.3-0.9 1.2-2.3 0.5-0.7 0.5-0.9 0.2-1.1-0.1-2.3-0.1-0.7-0.3-0.6-0.1-0.6 0.1-0.8 0.3-0.3 1.1-0.7 0.3-0.4 0.4-1.3 0.1-1 0.5-0.7 1.4-0.2 0.8-1.2-0.2-2.6-1.3-4.4-0.9-2.2-1.2-1.9-3-2.9-0.5-0.8-0.5-2.2-1.1-2.2-4.6-5.9 1.4 0.3 2.7 1 2.1 0.2 1.4 0.4 0.5 0 0.6-0.2 1.4-0.4 0.7-0.1 0.7 0 0.6 0 0.6 0.2 0.5 0.1 0.4 0.2 0.4 0.4 0.8 1 2.6 3.7 0.5 0.5 0.6 0.3 1.4 0.4 0.9 0 1.7-0.2 1.4 0.3 0.8 0.1 1.1-0.1 1.1 0.6 0.5 0 1.2-0.3 0.7 0 1.8 0.8 1.2 0.7 0.6 0.4 1.4 0.4 0.8 0.1 0.7 0 2.1-0.6 0.8-0.4 0.7-0.8 0.5-1.1 0.6-0.7 0.9-0.6 0.7-0.3 0.7-0.1 0.7 0 1.2 0.5 1.7 0.5 0.5 0.2 0.6 0.2 0.7-0.1 1-0.5 1.4-0.3 1.3 0 0.6-0.3 0.5-0.4 0-0.8-0.4-0.5-0.4-0.5-2.7-1.9-0.5-0.5-0.4-0.4-0.4-0.8-0.2-0.6-0.1-0.6 0.2-0.8 0.7-1.1 0.4-0.8 0.3-1-0.1-0.8-0.2-0.7-0.3-0.7-0.3-0.6-0.6-3.2-0.4-1.2-0.2-0.7-0.2-0.7-0.3-0.5-0.5-0.2-0.5-0.2-0.2-0.2-0.3-0.5-0.1-0.6 0-0.8 0.3-1 0.7-1.4 0.3-1 0-1-0.4-2.2-0.2-0.5-0.3-0.4-0.3-0.4-1.3-1.2-0.9-1.7 0-0.7 0.2-0.8-0.1-0.7-0.3-0.6-0.8-1-0.3-0.5-0.2-0.7 0-1.3-0.5-1.2-1.3-6.3-0.3-0.7-0.3-0.6-1.4-2.2-0.3-0.6-0.3-1.1-0.2-0.6-2.3-3.3-0.3-0.5-0.3-0.6 0.1-0.6 0.3-0.6 1-1.7 0.4-0.5 2.5-2.1 1.6-0.9 1.6-0.5 0.8-0.5 0.6-0.6 0.4-0.5 0.4-0.5 0.9-0.9 0.7-0.9 0.3-0.3 0.9-0.7 0.4-0.4 0.5-0.4 0.5-0.1 1.5 1.1 2 0.9 0.6 0.5 0.5 0.6 0.5 0.4 0.6 0.2 0.8-0.2 1.2-0.8 2.4-1.1 0.9 0 0.9 0.2 1.6 0.6 0.8 0.5 0.7 0.5 1 0.8 0.6 0.4 5.6 2.5 0.8 0.1 0.9-0.4 1.3-0.8 0.5-0.4 0.3-0.5 0.4-0.1 0.7 0 1.2 0.6 0.6 0.4 0.3 0.5 0.2 0.6 0.3 0.6 0.4 0.4 0.6 0.1 0.6-0.3 0.6-0.6 0.3-0.3 0.4-0.3 1.2-0.3 1.1 0.4 0.4 0.6 1.8 2.8 0.3 0.7 0 0.5-0.7 0.8-0.2 0.2-0.1 0.4-0.1 0.4 0 2.1 0.9 8-0.4 3.4-0.2 0.5-0.2 0.2-0.2 0.3-1.1 0.7-0.3 0.2-0.2 0.3-0.2 0.2-0.3 0.7-0.2 0.2-0.2 0.2-0.9 0.5-0.2 0.2-0.3 0.3-0.5 0.9-0.1 0.3-1.1 1.2-0.5 0.4-0.6 0.5-0.4 0.6-0.1 0.4 0.1 0.4 0.2 0.7 0.2 0.7 0.3 3.3 0.3 1.4 0.1 0.4 0.4 1.8 0 0.6-0.1 0.4-0.1 0.3-0.6 1-0.3 0.6-0.3 1.1 0.1 0.6 0.1 0.3 0.4 0.2 1 0.3 0.3 0.2 0.2 0.2 0.2 0.2 0.5 0.9 1.1 3 0.2 0.3 0.2 0.3 0.3 0.2 1.1 0.7 0.3 0.4 0.3 0.5 0.3 1.2 0.3 0.5 0.3 0.4 1.4 0.5 0.4 0.2 0.3 0.5 0.1 0.4 0 0.4-0.3 0.8-0.2 0.5-0.1 0.8 0.1 0.5 0.2 0.4 0.6 0.7 0.8 1.1 0.6 1.2 0.1 0.3 0.5 0.5 1.2 1 0.6 0.8 0.5 0.4 0.3 0.2 0.3 0.2 0.3 0 0.4 0 0.3-0.2 0.8-0.5 0.6-0.3 1.1-0.3 0.3 0 0.4 0 0.5 0.4 0.1 0.5 0.1 0.7 0.1 0.4 0.6 1.3 0.2 1.1 0.6 1.9 0.2 0.6 0 0.6 0.1 2-0.2 1.7 0 1.9 0 0.6-0.2 0.2-0.3 0.2-1 0.4-0.1 0.1-0.2 0.1-0.1 0.4 0.2 3.6-0.1 0.4-0.1 0.4-0.2 0.4-0.1 0.5-0.2 0.9 0.1 0.5 0.1 0.5 0.3 0.2 0.2 0.4 0.3 0.6 0.6 2.4 1.3 3.3 0.2 0.7 0.1 1 0.1 0.7 0.4 1.4 0 0.5-0.2 2.6-0.1 0.4-0.1 0.3-0.4 0.6-0.4 0.5-0.5 0.4-0.5 0.5-0.2 0.6-0.1 0.3-0.2 1.3-0.1 0.3-0.3 0.6-1.5 1.9-0.2 0.6-0.1 1.7-0.1 0.3-0.1 0.4-0.5 0.9-0.1 0.4 0.1 0.5 0.4 0.7 0.3 0.3 0.3 0.3 0.5 0.4 1 0.5 0.2 0.2 0.2 0.3 0.1 0.4-0.1 0.5-0.3 0.7 0 0.4 0.1 1-0.1 0.4-0.1 0.3-0.3 0.2-0.5 0.4-0.3 0.2-0.1 0.3-0.1 0.3-0.1 0.5 0.1 1.2-0.1 0.4-0.1 0.4 0 0.4 0.1 0.5 0.4 0.7 0.2 0.5 0 0.7 0 1 0.1 0.5 0.3 0.8 0.5 1.2 0.8 3.5 0.1 1.3 0 0.5 1.1 4.6 0.1 0.7 0 0.5-0.1 0.4-0.2 0.6-0.2 0.8-0.1 0.4 0 0.4 0.6 2.6 0 0.4 0 0.9-0.1 0.4-0.1 0.3-0.7 1.1 0 0.2-0.1 0.3-0.1 1.2-0.2 0.8-0.1 0.4-0.1 0.3-0.1 0.3 0 0.6 1.6 7.2 0.3 3.2 0 0.4-0.1 0.4-0.2 0.3-0.3 0.2-0.3 0.1-1.2 0.1-0.3 0.2-0.3 0.2-0.1 0.4-0.1 0.4-0.1 1.3-0.1 0.3-0.2 0.4-0.3 0.6-0.1 0.3-0.4 2-0.1 0.4 0.1 0.8-0.1 0.8 0 0.6 0.2 0.8 0.4 1.6 0.1 0.9 0 0.6-0.1 0.8z" id="MGU" name="Androy">
  </path>
  <path d="M432.6 635l-7.4 1.2-6.3 1.7-7.9 8.4-13.4 5.1-6.3 7.6-4.7 5-7.1-0.8-3.9-4.2-8.7-0.9-3.2 7.6 0 17-5.8 9.1-1.5 0.8-1.4 1.1-2.2 0.5-3.2 1.6-4.8 0.1-2.1 0.6-1.9 1.1-0.5-1.8-0.4-0.5-0.6-0.4-0.3 0.1-0.6 1-1.2 1.3-0.6 0-1-2-2.1-1.2-2.3 0.1-2.3 1-1.9 1.1-1.1 1.1-1.5 2.1-1.1 0.4-2.2 0.6-1.3 0.2-1.4-0.3-0.6-0.4-0.7-0.7-0.4-0.3-0.9-0.2-0.8-0.1-0.8-0.2-0.8-0.6-0.3-0.6-0.2-1.5-0.3-0.7-1.6-1.7-1-1.8-0.5-1.2-0.2-0.9-0.4-0.9-2.1-1.7-0.5-1.6-0.1-1.5-0.5-1.1-1.1-2.2-0.1-0.7-0.1-1.4-0.2-0.7-0.4-0.6-1.8-1.3-1.2-1.7-0.6-1.2-0.3-1-0.6-0.9-2.7-1.5-0.6-0.9-0.5-3.5-0.3-0.8-0.8-0.8-2.2-1.5-0.9-1 0-0.4 1.7-0.9 0.8-1.2 0.3-0.2 3.5 0 2.3-0.6 1.2 0.3 1.1 0.5 1.2 0.2 1.5-0.6 1.8-1.4 1.6-1.8 0.6-1.7 0.3-2 2.3-6.3 2.3-13 4-7.8 1.3-1.3 2.1-0.5 1.1-1 3.4-6.4 0.8-2.7 0.6-3.2 0.8-3 1.7-2.1 0 0.6 0.1 0.4 0.3 0.8 1.5-3.7 0.9-1.1 2.8-2.2 0.8-0.9-0.2-2.1 0.7-2.5 4.5-9.2 1.4-2.1 3.7-3.7 1.5-1.9 1.2-2.1 1-2.5 0.3-2 0.1-2.9-0.5-2.2-1.2-0.2-0.5-1.8-0.3-0.5-0.5-0.3-0.9 0-0.4-0.2-0.8-0.7-0.9-1-0.6-1.2-0.3-1.2 0.3-0.9 1.2-2.3 0.5-0.7 0.5-0.9 0.2-1.1-0.1-2.3-0.1-0.7-0.3-0.6-0.1-0.6 0.1-0.8 0.3-0.3 1.1-0.7 0.3-0.4 0.4-1.3 0.1-1 0.5-0.7 1.4-0.2 0.8-1.2-0.2-2.6-1.3-4.4-0.9-2.2-1.2-1.9-3-2.9-0.5-0.8-0.5-2.2-1.1-2.2-4.6-5.9 1.4 0.3 2.7 1 2.1 0.2 1.4 0.4 0.5 0 0.6-0.2 1.4-0.4 0.7-0.1 0.7 0 0.6 0 0.6 0.2 0.5 0.1 0.4 0.2 0.4 0.4 0.8 1 2.6 3.7 0.5 0.5 0.6 0.3 1.4 0.4 0.9 0 1.7-0.2 1.4 0.3 0.8 0.1 1.1-0.1 1.1 0.6 0.5 0 1.2-0.3 0.7 0 1.8 0.8 1.2 0.7 0.6 0.4 1.4 0.4 0.8 0.1 0.7 0 2.1-0.6 0.8-0.4 0.7-0.8 0.5-1.1 0.6-0.7 0.9-0.6 0.7-0.3 0.7-0.1 0.7 0 1.2 0.5 1.7 0.5 0.5 0.2 0.6 0.2 0.7-0.1 1-0.5 1.4-0.3 1.3 0 0.6-0.3 0.5-0.4 0-0.8-0.4-0.5-0.4-0.5-2.7-1.9-0.5-0.5-0.4-0.4-0.4-0.8-0.2-0.6-0.1-0.6 0.2-0.8 0.7-1.1 0.4-0.8 0.3-1-0.1-0.8-0.2-0.7-0.3-0.7-0.3-0.6-0.6-3.2-0.4-1.2-0.2-0.7-0.2-0.7-0.3-0.5-0.5-0.2-0.5-0.2-0.2-0.2-0.3-0.5-0.1-0.6 0-0.8 0.3-1 0.7-1.4 0.3-1 0-1-0.4-2.2-0.2-0.5-0.3-0.4-0.3-0.4-1.3-1.2-0.9-1.7 0-0.7 0.2-0.8-0.1-0.7-0.3-0.6-0.8-1-0.3-0.5-0.2-0.7 0-1.3-0.5-1.2-1.3-6.3-0.3-0.7-0.3-0.6-1.4-2.2-0.3-0.6-0.3-1.1-0.2-0.6-2.3-3.3-0.3-0.5-0.3-0.6 0.1-0.6 0.3-0.6 1-1.7 0.4-0.5 2.5-2.1 1.6-0.9 1.6-0.5 0.8-0.5 0.6-0.6 0.4-0.5 0.4-0.5 0.9-0.9 0.7-0.9 0.3-0.3 0.9-0.7 0.4-0.4 0.5-0.4 0.5-0.1 1.5 1.1 2 0.9 0.6 0.5 0.5 0.6 0.5 0.4 0.6 0.2 0.8-0.2 1.2-0.8 2.4-1.1 0.9 0 0.9 0.2 1.6 0.6 0.8 0.5 0.7 0.5 1 0.8 0.6 0.4 5.6 2.5 0.8 0.1 0.9-0.4 1.3-0.8 0.5-0.4 0.3-0.5 0.4-0.1 0.7 0 1.2 0.6 0.6 0.4 0.3 0.5 0.2 0.6 0.3 0.6 0.4 0.4 0.6 0.1 0.6-0.3 0.6-0.6 0.3-0.3 0.4-0.3 1.2-0.3 1.1 0.4 0.4 0.6 1.8 2.8 0.3 0.7 0 0.5-0.7 0.8-0.2 0.2-0.1 0.4-0.1 0.4 0 2.1 0.9 8-0.4 3.4-0.2 0.5-0.2 0.2-0.2 0.3-1.1 0.7-0.3 0.2-0.2 0.3-0.2 0.2-0.3 0.7-0.2 0.2-0.2 0.2-0.9 0.5-0.2 0.2-0.3 0.3-0.5 0.9-0.1 0.3-1.1 1.2-0.5 0.4-0.6 0.5-0.4 0.6-0.1 0.4 0.1 0.4 0.2 0.7 0.2 0.7 0.3 3.3 0.3 1.4 0.1 0.4 0.4 1.8 0 0.6-0.1 0.4-0.1 0.3-0.6 1-0.3 0.6-0.3 1.1 0.1 0.6 0.1 0.3 0.4 0.2 1 0.3 0.3 0.2 0.2 0.2 0.2 0.2 0.5 0.9 1.1 3 0.2 0.3 0.2 0.3 0.3 0.2 1.1 0.7 0.3 0.4 0.3 0.5 0.3 1.2 0.3 0.5 0.3 0.4 1.4 0.5 0.4 0.2 0.3 0.5 0.1 0.4 0 0.4-0.3 0.8-0.2 0.5-0.1 0.8 0.1 0.5 0.2 0.4 0.6 0.7 0.8 1.1 0.6 1.2 0.1 0.3 0.5 0.5 1.2 1 0.6 0.8 0.5 0.4 0.3 0.2 0.3 0.2 0.3 0 0.4 0 0.3-0.2 0.8-0.5 0.6-0.3 1.1-0.3 0.3 0 0.4 0 0.5 0.4 0.1 0.5 0.1 0.7 0.1 0.4 0.6 1.3 0.2 1.1 0.6 1.9 0.2 0.6 0 0.6 0.1 2-0.2 1.7 0 1.9 0 0.6-0.2 0.2-0.3 0.2-1 0.4-0.1 0.1-0.2 0.1-0.1 0.4 0.2 3.6-0.1 0.4-0.1 0.4-0.2 0.4-0.1 0.5-0.2 0.9 0.1 0.5 0.1 0.5 0.3 0.2 0.2 0.4 0.3 0.6 0.6 2.4 1.3 3.3 0.2 0.7 0.1 1 0.1 0.7 0.4 1.4 0 0.5-0.2 2.6-0.1 0.4-0.1 0.3-0.4 0.6-0.4 0.5-0.5 0.4-0.5 0.5-0.2 0.6-0.1 0.3-0.2 1.3-0.1 0.3-0.3 0.6-1.5 1.9-0.2 0.6-0.1 1.7-0.1 0.3-0.1 0.4-0.5 0.9-0.1 0.4 0.1 0.5 0.4 0.7 0.3 0.3 0.3 0.3 0.5 0.4 1 0.5 0.2 0.2 0.2 0.3 0.1 0.4-0.1 0.5-0.3 0.7 0 0.4 0.1 1-0.1 0.4-0.1 0.3-0.3 0.2-0.5 0.4-0.3 0.2-0.1 0.3-0.1 0.3-0.1 0.5 0.1 1.2-0.1 0.4-0.1 0.4 0 0.4 0.1 0.5 0.4 0.7 0.2 0.5 0 0.7 0 1 0.1 0.5 0.3 0.8 0.5 1.2 0.8 3.5 0.1 1.3 0 0.5 1.1 4.6 0.1 0.7 0 0.5-0.1 0.4-0.2 0.6-0.2 0.8-0.1 0.4 0 0.4 0.6 2.6 0 0.4 0 0.9-0.1 0.4-0.1 0.3-0.7 1.1 0 0.2-0.1 0.3-0.1 1.2-0.2 0.8-0.1 0.4-0.1 0.3-0.1 0.3 0 0.6 1.6 7.2 0.3 3.2 0 0.4-0.1 0.4-0.2 0.3-0.3 0.2-0.3 0.1-1.2 0.1-0.3 0.2-0.3 0.2-0.1 0.4-0.1 0.4-0.1 1.3-0.1 0.3-0.2 0.4-0.3 0.6-0.1 0.3-0.4 2-0.1 0.4 0.1 0.8-0.1 0.8 0 0.6 0.2 0.8 0.4 1.6 0.1 0.9 0 0.6-0.1 0.8z" id="MGU" name="Atsimo-Andrefana">
  </path>
  <path d="M432.6 635l-7.4 1.2-6.3 1.7-7.9 8.4-13.4 5.1-6.3 7.6-4.7 5-7.1-0.8-3.9-4.2-8.7-0.9-3.2 7.6 0 17-5.8 9.1-1.5 0.8-1.4 1.1-2.2 0.5-3.2 1.6-4.8 0.1-2.1 0.6-1.9 1.1-0.5-1.8-0.4-0.5-0.6-0.4-0.3 0.1-0.6 1-1.2 1.3-0.6 0-1-2-2.1-1.2-2.3 0.1-2.3 1-1.9 1.1-1.1 1.1-1.5 2.1-1.1 0.4-2.2 0.6-1.3 0.2-1.4-0.3-0.6-0.4-0.7-0.7-0.4-0.3-0.9-0.2-0.8-0.1-0.8-0.2-0.8-0.6-0.3-0.6-0.2-1.5-0.3-0.7-1.6-1.7-1-1.8-0.5-1.2-0.2-0.9-0.4-0.9-2.1-1.7-0.5-1.6-0.1-1.5-0.5-1.1-1.1-2.2-0.1-0.7-0.1-1.4-0.2-0.7-0.4-0.6-1.8-1.3-1.2-1.7-0.6-1.2-0.3-1-0.6-0.9-2.7-1.5-0.6-0.9-0.5-3.5-0.3-0.8-0.8-0.8-2.2-1.5-0.9-1 0-0.4 1.7-0.9 0.8-1.2 0.3-0.2 3.5 0 2.3-0.6 1.2 0.3 1.1 0.5 1.2 0.2 1.5-0.6 1.8-1.4 1.6-1.8 0.6-1.7 0.3-2 2.3-6.3 2.3-13 4-7.8 1.3-1.3 2.1-0.5 1.1-1 3.4-6.4 0.8-2.7 0.6-3.2 0.8-3 1.7-2.1 0 0.6 0.1 0.4 0.3 0.8 1.5-3.7 0.9-1.1 2.8-2.2 0.8-0.9-0.2-2.1 0.7-2.5 4.5-9.2 1.4-2.1 3.7-3.7 1.5-1.9 1.2-2.1 1-2.5 0.3-2 0.1-2.9-0.5-2.2-1.2-0.2-0.5-1.8-0.3-0.5-0.5-0.3-0.9 0-0.4-0.2-0.8-0.7-0.9-1-0.6-1.2-0.3-1.2 0.3-0.9 1.2-2.3 0.5-0.7 0.5-0.9 0.2-1.1-0.1-2.3-0.1-0.7-0.3-0.6-0.1-0.6 0.1-0.8 0.3-0.3 1.1-0.7 0.3-0.4 0.4-1.3 0.1-1 0.5-0.7 1.4-0.2 0.8-1.2-0.2-2.6-1.3-4.4-0.9-2.2-1.2-1.9-3-2.9-0.5-0.8-0.5-2.2-1.1-2.2-4.6-5.9 1.4 0.3 2.7 1 2.1 0.2 1.4 0.4 0.5 0 0.6-0.2 1.4-0.4 0.7-0.1 0.7 0 0.6 0 0.6 0.2 0.5 0.1 0.4 0.2 0.4 0.4 0.8 1 2.6 3.7 0.5 0.5 0.6 0.3 1.4 0.4 0.9 0 1.7-0.2 1.4 0.3 0.8 0.1 1.1-0.1 1.1 0.6 0.5 0 1.2-0.3 0.7 0 1.8 0.8 1.2 0.7 0.6 0.4 1.4 0.4 0.8 0.1 0.7 0 2.1-0.6 0.8-0.4 0.7-0.8 0.5-1.1 0.6-0.7 0.9-0.6 0.7-0.3 0.7-0.1 0.7 0 1.2 0.5 1.7 0.5 0.5 0.2 0.6 0.2 0.7-0.1 1-0.5 1.4-0.3 1.3 0 0.6-0.3 0.5-0.4 0-0.8-0.4-0.5-0.4-0.5-2.7-1.9-0.5-0.5-0.4-0.4-0.4-0.8-0.2-0.6-0.1-0.6 0.2-0.8 0.7-1.1 0.4-0.8 0.3-1-0.1-0.8-0.2-0.7-0.3-0.7-0.3-0.6-0.6-3.2-0.4-1.2-0.2-0.7-0.2-0.7-0.3-0.5-0.5-0.2-0.5-0.2-0.2-0.2-0.3-0.5-0.1-0.6 0-0.8 0.3-1 0.7-1.4 0.3-1 0-1-0.4-2.2-0.2-0.5-0.3-0.4-0.3-0.4-1.3-1.2-0.9-1.7 0-0.7 0.2-0.8-0.1-0.7-0.3-0.6-0.8-1-0.3-0.5-0.2-0.7 0-1.3-0.5-1.2-1.3-6.3-0.3-0.7-0.3-0.6-1.4-2.2-0.3-0.6-0.3-1.1-0.2-0.6-2.3-3.3-0.3-0.5-0.3-0.6 0.1-0.6 0.3-0.6 1-1.7 0.4-0.5 2.5-2.1 1.6-0.9 1.6-0.5 0.8-0.5 0.6-0.6 0.4-0.5 0.4-0.5 0.9-0.9 0.7-0.9 0.3-0.3 0.9-0.7 0.4-0.4 0.5-0.4 0.5-0.1 1.5 1.1 2 0.9 0.6 0.5 0.5 0.6 0.5 0.4 0.6 0.2 0.8-0.2 1.2-0.8 2.4-1.1 0.9 0 0.9 0.2 1.6 0.6 0.8 0.5 0.7 0.5 1 0.8 0.6 0.4 5.6 2.5 0.8 0.1 0.9-0.4 1.3-0.8 0.5-0.4 0.3-0.5 0.4-0.1 0.7 0 1.2 0.6 0.6 0.4 0.3 0.5 0.2 0.6 0.3 0.6 0.4 0.4 0.6 0.1 0.6-0.3 0.6-0.6 0.3-0.3 0.4-0.3 1.2-0.3 1.1 0.4 0.4 0.6 1.8 2.8 0.3 0.7 0 0.5-0.7 0.8-0.2 0.2-0.1 0.4-0.1 0.4 0 2.1 0.9 8-0.4 3.4-0.2 0.5-0.2 0.2-0.2 0.3-1.1 0.7-0.3 0.2-0.2 0.3-0.2 0.2-0.3 0.7-0.2 0.2-0.2 0.2-0.9 0.5-0.2 0.2-0.3 0.3-0.5 0.9-0.1 0.3-1.1 1.2-0.5 0.4-0.6 0.5-0.4 0.6-0.1 0.4 0.1 0.4 0.2 0.7 0.2 0.7 0.3 3.3 0.3 1.4 0.1 0.4 0.4 1.8 0 0.6-0.1 0.4-0.1 0.3-0.6 1-0.3 0.6-0.3 1.1 0.1 0.6 0.1 0.3 0.4 0.2 1 0.3 0.3 0.2 0.2 0.2 0.2 0.2 0.5 0.9 1.1 3 0.2 0.3 0.2 0.3 0.3 0.2 1.1 0.7 0.3 0.4 0.3 0.5 0.3 1.2 0.3 0.5 0.3 0.4 1.4 0.5 0.4 0.2 0.3 0.5 0.1 0.4 0 0.4-0.3 0.8-0.2 0.5-0.1 0.8 0.1 0.5 0.2 0.4 0.6 0.7 0.8 1.1 0.6 1.2 0.1 0.3 0.5 0.5 1.2 1 0.6 0.8 0.5 0.4 0.3 0.2 0.3 0.2 0.3 0 0.4 0 0.3-0.2 0.8-0.5 0.6-0.3 1.1-0.3 0.3 0 0.4 0 0.5 0.4 0.1 0.5 0.1 0.7 0.1 0.4 0.6 1.3 0.2 1.1 0.6 1.9 0.2 0.6 0 0.6 0.1 2-0.2 1.7 0 1.9 0 0.6-0.2 0.2-0.3 0.2-1 0.4-0.1 0.1-0.2 0.1-0.1 0.4 0.2 3.6-0.1 0.4-0.1 0.4-0.2 0.4-0.1 0.5-0.2 0.9 0.1 0.5 0.1 0.5 0.3 0.2 0.2 0.4 0.3 0.6 0.6 2.4 1.3 3.3 0.2 0.7 0.1 1 0.1 0.7 0.4 1.4 0 0.5-0.2 2.6-0.1 0.4-0.1 0.3-0.4 0.6-0.4 0.5-0.5 0.4-0.5 0.5-0.2 0.6-0.1 0.3-0.2 1.3-0.1 0.3-0.3 0.6-1.5 1.9-0.2 0.6-0.1 1.7-0.1 0.3-0.1 0.4-0.5 0.9-0.1 0.4 0.1 0.5 0.4 0.7 0.3 0.3 0.3 0.3 0.5 0.4 1 0.5 0.2 0.2 0.2 0.3 0.1 0.4-0.1 0.5-0.3 0.7 0 0.4 0.1 1-0.1 0.4-0.1 0.3-0.3 0.2-0.5 0.4-0.3 0.2-0.1 0.3-0.1 0.3-0.1 0.5 0.1 1.2-0.1 0.4-0.1 0.4 0 0.4 0.1 0.5 0.4 0.7 0.2 0.5 0 0.7 0 1 0.1 0.5 0.3 0.8 0.5 1.2 0.8 3.5 0.1 1.3 0 0.5 1.1 4.6 0.1 0.7 0 0.5-0.1 0.4-0.2 0.6-0.2 0.8-0.1 0.4 0 0.4 0.6 2.6 0 0.4 0 0.9-0.1 0.4-0.1 0.3-0.7 1.1 0 0.2-0.1 0.3-0.1 1.2-0.2 0.8-0.1 0.4-0.1 0.3-0.1 0.3 0 0.6 1.6 7.2 0.3 3.2 0 0.4-0.1 0.4-0.2 0.3-0.3 0.2-0.3 0.1-1.2 0.1-0.3 0.2-0.3 0.2-0.1 0.4-0.1 0.4-0.1 1.3-0.1 0.3-0.2 0.4-0.3 0.6-0.1 0.3-0.4 2-0.1 0.4 0.1 0.8-0.1 0.8 0 0.6 0.2 0.8 0.4 1.6 0.1 0.9 0 0.6-0.1 0.8z" id="MGU" name="Menabe">
  </path>
  <path d="M414.1 372.2l11.9-2.5 7 3.3 13.4 0 2.4 4.1 4.7 6.6 7.1 5.8 3.9-2.5 3.2-7.4 3.9-2.5 4-4.9 7-1.6 4.8-11.6 2.6-10.9 8.4-1.4 9.4-0.8 7.9 0.8 7.1 3.3 5.5 2.5 2.4-3.3-3.2-5-7.1-5.7 4.8-4.9 4.7-5.8 5.5 3.3 5.5 3.3 7.1 0 3.1 2.5 5.6 2.4 9.5 2.6 0 1.3 0.5 3 0.1 0.4 1 1.7 0.2 0.7 0.2 0.7 0.3 1.6 0.1 2.4-0.1 0.4-0.3 0.6-0.1 0.5-0.1 0.5 0.2 0.6 0.3 0.8 0.3 0.6 1 0.8 0.4 0.6 0.2 0.2 0.2 0.2 0.1 0.3 0.2 0.7 0.2 0.3 0.2 0.2 0.3 0.3 0.4 0.4 0.3 0.2 0.1 0.3 0.2 0.4 0.1 1.2 0.3 0.3 0.2 0.3 0.3 0.2 0.3 0.2 0.2 0.2 0.2 0.3 0.2 0.6 0.2 0.3 0.3 0.2 0.2 0.1 0.4 0.2 0.6 0.3 0.2 0.2 0.2 0.4-0.1 0.6-0.7 2.1 0.1 0.3 0.3 0.3 0.2 0.5 0.2 0.6 0 1.6 0.1 0.3 1.4 2.1 0.9 0.9 1.1 0.7 0.3 0.2 0.4 0 0.4 0.1 0.8-0.1 0.8 0.1 0.3 0.2 0.2 0.3 0.1 0.6-0.1 1.1 0.1 0.6 0.1 0.5 0.2 0.4 0.1 0.5 0.1 0.9 0.1 0.5 0.1 0.4 0.2 0.3 0.1 0.3-0.1 0.7-0.3 0.9-1.4 2.5-0.4 0.5-0.4 0.4-0.3 0.3-0.1 0.4 0.1 0.7 0.3 1.2-0.2 0.5-0.3 0.6-0.8 1.2-0.4 0.6-0.6 0.6-0.2 0.4-0.2 0.5-0.6 2.8-0.2 0.5-0.4 0.5-0.8 0.6-0.2 0.3 0 0.5 0.1 0.6 0.2 0.4 0.3 0.2 1.1 0.1 0.3 0.2 0.1 0.3-0.1 0.5-0.1 0.6 0 0.9 0 0.3-0.5 0.4-0.6 0.5-0.3 0.3-0.2 0.5-0.2 0.8 0 1.5-0.1 0.4-0.2 0.3-0.7 0.2-0.2 0.4-0.3 1-0.1 2.4-0.3 2-0.2 0.5-0.3 0.4-0.7 0.7-0.5 0.1-0.4 0.1-0.4-0.1-0.3 0.1-0.4 0-0.2 0.1-0.2 0.1-0.2 0.2-0.2 0.3-0.2 0.5-0.1 0.9 0 1 0 0.4-0.2 0.5-0.4 0.6-0.7 0.7-0.2 0.3-0.1 0.4-0.1 0.8 0.1 0.5 0.1 0.8-0.1 0.7-1.7 3.1-2.1 2.9-3.5 0.8-1.8 0.7-9 1.7-2.5 0.1-1.5-0.2-0.6-0.5-0.8-1.3-0.4-0.6-0.9-0.3-2.1 0.4-2.7-0.4-1.7-0.5-1-0.5-0.6-0.6-0.3-0.6-0.4-0.5-0.5-0.4-1.8-1-0.5-0.4-0.4-0.5-0.5-1.3-0.1-0.7 0-0.5 0-0.6-0.6-0.5-1.2-0.6-2.7-0.9-1.7-0.3-1.4 0-1.6 0.2-1 0.2-0.7 0.4-2.1 1.6-0.6 0.2-2.4 0.4-0.7 0.2-0.6 0.3-1 0.9-0.3 0.5-0.7 1.2-0.4 0.5-0.6 0.2-0.7-0.9-0.7-0.5-1.3-0.5-1.8-0.2-3.2 0-0.8-0.4-0.2-0.5 0.2-1.4 0-0.7-0.1-0.7-0.7-2.1-0.4-0.6-0.5-0.1-0.6 0.1-0.8 0-1 0.5-0.8 0.2-2.6-0.2-2.3-0.4-1.3-0.1-1 0.1-3.8 1-4.1 0.3-1-0.1-0.8-0.2-0.7-0.4-0.5 0.2-0.9 0.9-1.2 0.6-1 0.8-0.6 0.3-1.2 0.3-0.7 0.2-0.5 0.3-0.8 0.3-1.1 0.2-1.7 0.2-1 0.3-0.6 0.5-0.2 0.5-0.5 0.5-0.6 0.2-1.7 0.5-1.3 0.2-0.9 0.2-2 1.3-0.6 0.3-0.6 0-0.8-0.1-0.7 0.3-0.6 0.4-1.3 0.4-0.8 0-0.4-0.5-0.1-1.2-0.3-0.6-0.5 0-1.3 0.6-1 0.3-0.8-0.1-0.7-0.2-0.7-0.4-0.8-0.3-2.5-0.6-0.7-0.2-0.4-0.4-0.7-0.7-0.5-0.3-0.8-0.1-2.9-7.2-4.7-4.9-0.8-5 3.1-3.3-0.7-4.9-5.6-0.8-7 0.8-5.5 0-2.4-6.6-3.9-16.5 0.7-6.6z" id="MGM" name="Melaky">
  </path>
  <path d="M516.8 488.5l2.9 0.7 4.4 1 1.9 1.3 1.8 0.7 0.9 1.9 6.7 11.4 3.1 10.8-2.3 6.7-6.3 4.2-8.7 0-8.6-1.7-2.4-3.3-7.1-0.9-7.9 1.7-7.8 5-5.5 5.8-4.8 0.9-6.3-1.7-14.9 2.5 6.3-9.2 9.4-11.6 6.3-10 3.2-11.7 6.3-5.8 6.3-0.8 10.2 0.8 12.9 1.3z" id="MGT" name="Analamanga">
  </path>
  <path d="M414.1 372.2l11.9-2.5 7 3.3 13.4 0 2.4 4.1 4.7 6.6 7.1 5.8 3.9-2.5 3.2-7.4 3.9-2.5 4-4.9 7-1.6 4.8-11.6 2.6-10.9 8.4-1.4 9.4-0.8 7.9 0.8 7.1 3.3 5.5 2.5 2.4-3.3-3.2-5-7.1-5.7 4.8-4.9 4.7-5.8 5.5 3.3 5.5 3.3 7.1 0 3.1 2.5 5.6 2.4 9.5 2.6 0 1.3 0.5 3 0.1 0.4 1 1.7 0.2 0.7 0.2 0.7 0.3 1.6 0.1 2.4-0.1 0.4-0.3 0.6-0.1 0.5-0.1 0.5 0.2 0.6 0.3 0.8 0.3 0.6 1 0.8 0.4 0.6 0.2 0.2 0.2 0.2 0.1 0.3 0.2 0.7 0.2 0.3 0.2 0.2 0.3 0.3 0.4 0.4 0.3 0.2 0.1 0.3 0.2 0.4 0.1 1.2 0.3 0.3 0.2 0.3 0.3 0.2 0.3 0.2 0.2 0.2 0.2 0.3 0.2 0.6 0.2 0.3 0.3 0.2 0.2 0.1 0.4 0.2 0.6 0.3 0.2 0.2 0.2 0.4-0.1 0.6-0.7 2.1 0.1 0.3 0.3 0.3 0.2 0.5 0.2 0.6 0 1.6 0.1 0.3 1.4 2.1 0.9 0.9 1.1 0.7 0.3 0.2 0.4 0 0.4 0.1 0.8-0.1 0.8 0.1 0.3 0.2 0.2 0.3 0.1 0.6-0.1 1.1 0.1 0.6 0.1 0.5 0.2 0.4 0.1 0.5 0.1 0.9 0.1 0.5 0.1 0.4 0.2 0.3 0.1 0.3-0.1 0.7-0.3 0.9-1.4 2.5-0.4 0.5-0.4 0.4-0.3 0.3-0.1 0.4 0.1 0.7 0.3 1.2-0.2 0.5-0.3 0.6-0.8 1.2-0.4 0.6-0.6 0.6-0.2 0.4-0.2 0.5-0.6 2.8-0.2 0.5-0.4 0.5-0.8 0.6-0.2 0.3 0 0.5 0.1 0.6 0.2 0.4 0.3 0.2 1.1 0.1 0.3 0.2 0.1 0.3-0.1 0.5-0.1 0.6 0 0.9 0 0.3-0.5 0.4-0.6 0.5-0.3 0.3-0.2 0.5-0.2 0.8 0 1.5-0.1 0.4-0.2 0.3-0.7 0.2-0.2 0.4-0.3 1-0.1 2.4-0.3 2-0.2 0.5-0.3 0.4-0.7 0.7-0.5 0.1-0.4 0.1-0.4-0.1-0.3 0.1-0.4 0-0.2 0.1-0.2 0.1-0.2 0.2-0.2 0.3-0.2 0.5-0.1 0.9 0 1 0 0.4-0.2 0.5-0.4 0.6-0.7 0.7-0.2 0.3-0.1 0.4-0.1 0.8 0.1 0.5 0.1 0.8-0.1 0.7-1.7 3.1-2.1 2.9-3.5 0.8-1.8 0.7-9 1.7-2.5 0.1-1.5-0.2-0.6-0.5-0.8-1.3-0.4-0.6-0.9-0.3-2.1 0.4-2.7-0.4-1.7-0.5-1-0.5-0.6-0.6-0.3-0.6-0.4-0.5-0.5-0.4-1.8-1-0.5-0.4-0.4-0.5-0.5-1.3-0.1-0.7 0-0.5 0-0.6-0.6-0.5-1.2-0.6-2.7-0.9-1.7-0.3-1.4 0-1.6 0.2-1 0.2-0.7 0.4-2.1 1.6-0.6 0.2-2.4 0.4-0.7 0.2-0.6 0.3-1 0.9-0.3 0.5-0.7 1.2-0.4 0.5-0.6 0.2-0.7-0.9-0.7-0.5-1.3-0.5-1.8-0.2-3.2 0-0.8-0.4-0.2-0.5 0.2-1.4 0-0.7-0.1-0.7-0.7-2.1-0.4-0.6-0.5-0.1-0.6 0.1-0.8 0-1 0.5-0.8 0.2-2.6-0.2-2.3-0.4-1.3-0.1-1 0.1-3.8 1-4.1 0.3-1-0.1-0.8-0.2-0.7-0.4-0.5 0.2-0.9 0.9-1.2 0.6-1 0.8-0.6 0.3-1.2 0.3-0.7 0.2-0.5 0.3-0.8 0.3-1.1 0.2-1.7 0.2-1 0.3-0.6 0.5-0.2 0.5-0.5 0.5-0.6 0.2-1.7 0.5-1.3 0.2-0.9 0.2-2 1.3-0.6 0.3-0.6 0-0.8-0.1-0.7 0.3-0.6 0.4-1.3 0.4-0.8 0-0.4-0.5-0.1-1.2-0.3-0.6-0.5 0-1.3 0.6-1 0.3-0.8-0.1-0.7-0.2-0.7-0.4-0.8-0.3-2.5-0.6-0.7-0.2-0.4-0.4-0.7-0.7-0.5-0.3-0.8-0.1-2.9-7.2-4.7-4.9-0.8-5 3.1-3.3-0.7-4.9-5.6-0.8-7 0.8-5.5 0-2.4-6.6-3.9-16.5 0.7-6.6z" id="MGM" name="Betsiboka">
  </path>
  <path d="M516.8 488.5l2.9 0.7 4.4 1 1.9 1.3 1.8 0.7 0.9 1.9 6.7 11.4 3.1 10.8-2.3 6.7-6.3 4.2-8.7 0-8.6-1.7-2.4-3.3-7.1-0.9-7.9 1.7-7.8 5-5.5 5.8-4.8 0.9-6.3-1.7-14.9 2.5 6.3-9.2 9.4-11.6 6.3-10 3.2-11.7 6.3-5.8 6.3-0.8 10.2 0.8 12.9 1.3z" id="MGT" name="Bongolava">
  </path>
  <path d="M516.8 488.5l2.9 0.7 4.4 1 1.9 1.3 1.8 0.7 0.9 1.9 6.7 11.4 3.1 10.8-2.3 6.7-6.3 4.2-8.7 0-8.6-1.7-2.4-3.3-7.1-0.9-7.9 1.7-7.8 5-5.5 5.8-4.8 0.9-6.3-1.7-14.9 2.5 6.3-9.2 9.4-11.6 6.3-10 3.2-11.7 6.3-5.8 6.3-0.8 10.2 0.8 12.9 1.3z" id="MGT" name="Vakinankaratra">
  </path>
  <path d="M537 638.7l-2.4 12.7-3.1 7.6 1.5 5 2.4 6-3.9 19.4-2.4 10.2-2.4 5.1 2.4 5.1-9.5 5.1-7 4.3-4.8 6.8-7.8-3.4-6.3 0-7.9 0-6.3-0.9-4.7-5.9-1.6-8.5-2.4-6-11-5.9-11.8-3.4-9.5-0.9-7.8 0.9-5.5-0.9-9.9-6.4 0.7-0.2 0.3-0.1 0.3-0.2 0.2-0.2 0.1-0.3 0.1-0.4-0.1-0.7-0.1-0.7 0-0.2 0-0.3 0.2-0.2 1.2-0.6 0.2-0.3 0.2-0.3 0.1-0.4 0-0.3-0.1-0.4-1-4.5-0.1-0.4 0.1-0.4 0.3-1.4 0.1-0.5-0.1-0.8-0.4-1.9 0-0.4 0-0.3 0.2-0.4 2.4-2.7 0.1-0.3 0.2-0.4 0-0.4 0.1-0.4-0.1-1.2 0.1-0.3 0.2-0.3 0.2-0.3 0.3-0.1 0.7-0.2 0.3-0.2 0.1-0.3 0.3-0.7 0.2-0.3 0.1-0.3 0.3-0.2 0.3-0.1 0.4-0.1 0.3-0.1 0.3-0.3 0.1-0.3 0.3-0.2 0.6-0.3 0.8-0.5 0.8-0.2 0.3-0.1 0.3-0.2 0.3-0.1 1.2-0.1 0.4-0.1 0.3-0.2 0.2-0.2 0.2-0.3 0.2-0.3 0.1-0.4 0.1-1.7 0-0.8-1.2-6.8 0-0.4 0.1-0.4 0.2-0.2 0.7-0.7 0.4-0.5 0.9-1.6 8.3 0 7.9-4.2 8.7-2.6 4.7-5 5.5-5.1 5.5-2.5 4.7 1.7 5.5-1.7 1.6 5.1 6.3 9.2 8.7 5.9 7.8 0 4.8-6.7 10.2-4.2 4.7 1.7 2.4 4.2 7.9 0.8z" id="MGF" name="Amoron'i Mania">
  </path>
  <path d="M566.2 341.9l0.2-1.5 0.1-0.4 0.4-1 0.1-0.5 0.6-3.9 0-0.6-0.1-0.8-0.5-2.3 0-0.5 0.1-0.5 0.4-1 0.4-0.5 0.4-0.4 0.8-0.6 0.5-0.5 0.2-0.5 0-0.4 0-0.8 0.2-0.4 0.2-0.1 0.3 0.1 0.6 0.3 0.3 0.1 0.2-0.1 0.2-0.1 0.6-0.3 0.3-0.1 0.3 0 0.4 0.1 0.6 0.3 0.7 0.2 0.8 0 0.4-0.1 0.3 0.1 0.4 0.1 0.5 0.3 0.4 0.2 0.3 0 1.6 0.1 0.4 0 0.3-0.1 0.3-0.1 0.3-0.2 0.4-0.1 1.1-0.2 0.3-0.1 0.9-0.5 0.3-0.1 3-0.6 0.8 0.1 0.4 0.1 0.4 0 0.3 0 0.7-0.1 0.3 0 0.4 0.1 0.2 0.2 0.7 0.7 1 1.2 0.2 0.3 0.9 0.5 0.4 0.4 0.3 0.2 0.4 0.1 1.1 0.2 0.3 0.2 0.2 0.2 0.1 0.4 0.1 1.2 0.1 0.4 0.2 0.2 0.3 0 0.6-0.2 0.4 0 0.8 0 1.5-0.3 0.3 0.1 0.3 0.1 0.5 0.3 0.7 0.7 1.8 2.3 1.1 0.7 0.6 0.3 1.4 0.4 1.2 0.6 1.1 0.8 0.4 0.5 0.2 0.2 0.1 0.7 0.2 0.3 0.3 0.2 0.5 0.4 0.3 0.2 0.1 0.2 0.1 1 0.2 0.3 0.3 0.6 0.2 0.3 0 0.4 0.2 1.5-0.1 0.8 0 0.3 0.2 0.4 0.1 0.2 0.2 0.3 0.7 0.6 0.2 0.3 0.1 0.4-0.1 0.4-0.1 0.3-0.2 0.7-1 1.7-0.3 0.6-0.2 0.8 0 0.4 0 0.8 0.1 0.8 0.2 0.7 0.6 1.2 2 3 0.3 0.2 0.2 0.2 0.4 0.1 0.4 0 0.3-0.1 0.3-0.1 0.6-0.4 0.5-0.4 1.1-1.1 5.4-3.7 0.3-0.2 0.3-0.1 0.4 0 0.8 0 1-0.2 0.4 0.1 1.3 0.5 0.4 0 0.4 0.1-1.6 7.2 0 5.7-3.9 9.9 1.6 10.7-3.2 7.4 4.1 4.8-3.3 8.4-5.5 4.2 1.6 3.3 6.3 3.3 1.5 5.8-2.3 6.6-7.9 0-3.9 1.6 3.9 5 5.5 6.6 0.8 6.6-7.9 5-7.9 1.7-2.3 9.1 0 13.3 3.1 9.9 5.5 15 0 12.5-5.5 1.7-0.8 10-11 3.3 2.4 12.6-5.5 0-2.4 15-10.2-0.8-4.8-4.2-4.7 3.3-8.8 1.8 0.6-1.6 0.2-1.7 0-0.4-0.1-0.5-0.2-0.6-0.2-0.8 0-4.1 0-0.8 0.2-0.4 0.8-1 0.2-0.6 0.1-0.5 0-0.5-0.2-1.2 0-1.6 0.1-0.6 0.2-0.4 0.8-1.5 0.5-1 0.2-0.7 0-0.8 0.1-0.4 0.2-0.4 0.9-1 1-1.7 0.3-0.5 0.1-0.5 0.2-1 0.5-4.3 0-0.9-0.2-1.3 0-2.3-0.3-1-0.1-0.5-0.1-0.7 0.1-2 0-0.5-0.1-0.3-2.1-4.1-0.1-0.5-0.1-0.9 0-0.5 0.1-0.5 1.1-2.1 0.3-0.9 0.1-0.6 0-0.9 0-0.4 0.2-0.4 0.3-0.5 0.3-0.5 0.2-0.6 0.1-0.7 0.2-3.2 0-1.5 0.1-2.2 0-0.4-0.5-1.8-0.2-1.6-0.1-5.2 0.8-4.4 2.1-6 0.2-1.2 0.1-0.8-0.1-0.9 0.5-5.5 0-2.4 0.1-0.6 0-0.4 0.1-0.2 0.4-0.5 1-0.8 0.3-0.4 0.3-0.6 0-0.4 0-0.5 0-0.3-0.2-0.3-0.5-0.9-0.1-0.5-0.1-0.6 0-1.8-0.1-0.5-0.9-1.7-0.2-0.4-0.1-0.6 0.1-4.1 0-0.2 0-0.2-0.2-1.1-0.1-1.3 0.1-0.7 0.2-0.7 0.2-0.6 0-0.4-0.1-0.3-0.3-0.6-0.3-0.7-0.3-1.5-0.2-0.7-0.5-0.9-0.1-0.3-0.2-2.9-0.1-0.4-0.2-0.3-0.2-0.2-0.3-0.2-1-0.4-0.5-0.4-0.3-0.2-0.8-0.5-0.3-0.2-0.2-0.4-0.1-0.3-0.3-1.4 2.1-2.9 1.7-3.1 0.1-0.7-0.1-0.8-0.1-0.5 0.1-0.8 0.1-0.4 0.2-0.3 0.7-0.7 0.4-0.6 0.2-0.5 0-0.4 0-1 0.1-0.9 0.2-0.5 0.2-0.3 0.2-0.2 0.2-0.1 0.2-0.1 0.4 0 0.3-0.1 0.4 0.1 0.4-0.1 0.5-0.1 0.7-0.7 0.3-0.4 0.2-0.5 0.3-2 0.1-2.4 0.3-1 0.2-0.4 0.7-0.2 0.2-0.3 0.1-0.4 0-1.5 0.2-0.8 0.2-0.5 0.3-0.3 0.6-0.5 0.5-0.4 0-0.3 0-0.9 0.1-0.6 0.1-0.5-0.1-0.3-0.3-0.2-1.1-0.1-0.3-0.2-0.2-0.4-0.1-0.6 0-0.5 0.2-0.3 0.8-0.6 0.4-0.5 0.2-0.5 0.6-2.8 0.2-0.5 0.2-0.4 0.6-0.6 0.4-0.6 0.8-1.2 0.3-0.6 0.2-0.5-0.3-1.2-0.1-0.7 0.1-0.4 0.3-0.3 0.4-0.4 0.4-0.5 1.4-2.5 0.3-0.9 0.1-0.7-0.1-0.3-0.2-0.3-0.1-0.4-0.1-0.5-0.1-0.9-0.1-0.5-0.2-0.4-0.1-0.5-0.1-0.6 0.1-1.1-0.1-0.6-0.2-0.3-0.3-0.2-0.8-0.1-0.8 0.1-0.4-0.1-0.4 0-0.3-0.2-1.1-0.7-0.9-0.9-1.4-2.1-0.1-0.3 0-1.6-0.2-0.6-0.2-0.5-0.3-0.3-0.1-0.3 0.7-2.1 0.1-0.6-0.2-0.4-0.2-0.2-0.6-0.3-0.4-0.2-0.2-0.1-0.3-0.2-0.2-0.3-0.2-0.6-0.2-0.3-0.2-0.2-0.3-0.2-0.3-0.2-0.2-0.3-0.3-0.3-0.1-1.2-0.2-0.4-0.1-0.3-0.3-0.2-0.4-0.4-0.3-0.3-0.2-0.2-0.2-0.3-0.2-0.7-0.1-0.3-0.2-0.2-0.2-0.2-0.4-0.6-1-0.8-0.3-0.6-0.3-0.8-0.2-0.6 0.1-0.5 0.1-0.5 0.3-0.6 0.1-0.4-0.1-2.4-0.3-1.6-0.2-0.7-0.2-0.7-1-1.7-0.1-0.4-0.5-3 0-1.3z" id="MGA" name="Alaotra-Mangoro">
  </path>
  <path d="M537 638.7l-2.4 12.7-3.1 7.6 1.5 5 2.4 6-3.9 19.4-2.4 10.2-2.4 5.1 2.4 5.1-9.5 5.1-7 4.3-4.8 6.8-7.8-3.4-6.3 0-7.9 0-6.3-0.9-4.7-5.9-1.6-8.5-2.4-6-11-5.9-11.8-3.4-9.5-0.9-7.8 0.9-5.5-0.9-9.9-6.4 0.7-0.2 0.3-0.1 0.3-0.2 0.2-0.2 0.1-0.3 0.1-0.4-0.1-0.7-0.1-0.7 0-0.2 0-0.3 0.2-0.2 1.2-0.6 0.2-0.3 0.2-0.3 0.1-0.4 0-0.3-0.1-0.4-1-4.5-0.1-0.4 0.1-0.4 0.3-1.4 0.1-0.5-0.1-0.8-0.4-1.9 0-0.4 0-0.3 0.2-0.4 2.4-2.7 0.1-0.3 0.2-0.4 0-0.4 0.1-0.4-0.1-1.2 0.1-0.3 0.2-0.3 0.2-0.3 0.3-0.1 0.7-0.2 0.3-0.2 0.1-0.3 0.3-0.7 0.2-0.3 0.1-0.3 0.3-0.2 0.3-0.1 0.4-0.1 0.3-0.1 0.3-0.3 0.1-0.3 0.3-0.2 0.6-0.3 0.8-0.5 0.8-0.2 0.3-0.1 0.3-0.2 0.3-0.1 1.2-0.1 0.4-0.1 0.3-0.2 0.2-0.2 0.2-0.3 0.2-0.3 0.1-0.4 0.1-1.7 0-0.8-1.2-6.8 0-0.4 0.1-0.4 0.2-0.2 0.7-0.7 0.4-0.5 0.9-1.6 8.3 0 7.9-4.2 8.7-2.6 4.7-5 5.5-5.1 5.5-2.5 4.7 1.7 5.5-1.7 1.6 5.1 6.3 9.2 8.7 5.9 7.8 0 4.8-6.7 10.2-4.2 4.7 1.7 2.4 4.2 7.9 0.8z" id="MGF" name="Ihorombe">
  </path>
  <path d="M537 638.7l-2.4 12.7-3.1 7.6 1.5 5 2.4 6-3.9 19.4-2.4 10.2-2.4 5.1 2.4 5.1-9.5 5.1-7 4.3-4.8 6.8-7.8-3.4-6.3 0-7.9 0-6.3-0.9-4.7-5.9-1.6-8.5-2.4-6-11-5.9-11.8-3.4-9.5-0.9-7.8 0.9-5.5-0.9-9.9-6.4 0.7-0.2 0.3-0.1 0.3-0.2 0.2-0.2 0.1-0.3 0.1-0.4-0.1-0.7-0.1-0.7 0-0.2 0-0.3 0.2-0.2 1.2-0.6 0.2-0.3 0.2-0.3 0.1-0.4 0-0.3-0.1-0.4-1-4.5-0.1-0.4 0.1-0.4 0.3-1.4 0.1-0.5-0.1-0.8-0.4-1.9 0-0.4 0-0.3 0.2-0.4 2.4-2.7 0.1-0.3 0.2-0.4 0-0.4 0.1-0.4-0.1-1.2 0.1-0.3 0.2-0.3 0.2-0.3 0.3-0.1 0.7-0.2 0.3-0.2 0.1-0.3 0.3-0.7 0.2-0.3 0.1-0.3 0.3-0.2 0.3-0.1 0.4-0.1 0.3-0.1 0.3-0.3 0.1-0.3 0.3-0.2 0.6-0.3 0.8-0.5 0.8-0.2 0.3-0.1 0.3-0.2 0.3-0.1 1.2-0.1 0.4-0.1 0.3-0.2 0.2-0.2 0.2-0.3 0.2-0.3 0.1-0.4 0.1-1.7 0-0.8-1.2-6.8 0-0.4 0.1-0.4 0.2-0.2 0.7-0.7 0.4-0.5 0.9-1.6 8.3 0 7.9-4.2 8.7-2.6 4.7-5 5.5-5.1 5.5-2.5 4.7 1.7 5.5-1.7 1.6 5.1 6.3 9.2 8.7 5.9 7.8 0 4.8-6.7 10.2-4.2 4.7 1.7 2.4 4.2 7.9 0.8z" id="MGF" name="Haute Matsiatra">
  </path>
  <path d="M516.8 488.5l2.9 0.7 4.4 1 1.9 1.3 1.8 0.7 0.9 1.9 6.7 11.4 3.1 10.8-2.3 6.7-6.3 4.2-8.7 0-8.6-1.7-2.4-3.3-7.1-0.9-7.9 1.7-7.8 5-5.5 5.8-4.8 0.9-6.3-1.7-14.9 2.5 6.3-9.2 9.4-11.6 6.3-10 3.2-11.7 6.3-5.8 6.3-0.8 10.2 0.8 12.9 1.3z" id="MGT" name="Itasy">
  </path>
 </g>
 <g id="points">
  <circle class="-24.91581795193498|43.586961297886404" cx="294.1" cy="907.1" id="0">
  </circle>
  <circle class="-19.45383878870228|47.22746422698897" cx="522.9" cy="536.2" id="1">
  </circle>
  <circle class="-12.626364834661409|50.139866570271025" cx="705.9" cy="89.4" id="2">
  </circle>
 </g>
 <g id="label_points">
  <circle class="Boeny" cx="447.7" cy="336.9" id="MGM">
  </circle>
  <circle class="Sofia" cx="585.2" cy="274.1" id="MGM">
  </circle>
  <circle class="Diana" cx="635.7" cy="155" id="MGD">
  </circle>
  <circle class="Sava" cx="679" cy="188.7" id="MGD">
  </circle>
  <circle class="Analanjirofo" cx="665.9" cy="338.1" id="MGA">
  </circle>
  <circle class="Atsinanana" cx="629.3" cy="473.9" id="MGA">
  </circle>
  <circle class="Vatovavy-Fitovinany" cx="563.4" cy="659.9" id="MGF">
  </circle>
  <circle class="Atsimo-Atsinanana" cx="523.9" cy="807.2" id="MGF">
  </circle>
  <circle class="Anosy" cx="477.9" cy="887.3" id="MGU">
  </circle>
  <circle class="Androy" cx="416" cy="903" id="MGU">
  </circle>
  <circle class="Atsimo-Andrefana" cx="336" cy="752.4" id="MGU">
  </circle>
  <circle class="Menabe" cx="388.4" cy="599" id="MGU">
  </circle>
  <circle class="Melaky" cx="371.3" cy="405.2" id="MGM">
  </circle>
  <circle class="Analamanga" cx="541.1" cy="466.2" id="MGT">
  </circle>
  <circle class="Betsiboka" cx="516.6" cy="386.4" id="MGM">
  </circle>
  <circle class="Bongolava" cx="452.8" cy="480.6" id="MGT">
  </circle>
  <circle class="Vakinankaratra" cx="499.5" cy="556" id="MGT">
  </circle>
  <circle class="Amoron'i Mania" cx="503.1" cy="615.2" id="MGF">
  </circle>
  <circle class="Alaotra-Mangoro" cx="592.2" cy="438.8" id="MGA">
  </circle>
  <circle class="Ihorombe" cx="443" cy="722.4" id="MGF">
  </circle>
  <circle class="Haute Matsiatra" cx="483.8" cy="670.6" id="MGF">
  </circle>
  <circle class="Itasy" cx="497.9" cy="504.5" id="MGT">
  </circle>
 </g>
</svg>