<?xml version="1.0"?>
    
<!--********* Copyright (c) 2024 Pareto Softare, LLC DBA Simplemaps.com ***************************************
************* Free for Commercial Use, full terms at  https://simplemaps.com/resources/svg-license ************
************* Attribution is appreciated! https://simplemaps.com *******************************************-->

<svg baseprofile="tiny" fill="#6f9c76" height="949" stroke="#ffffff" stroke-linecap="round" stroke-linejoin="round" stroke-width=".5" version="1.2" viewbox="0 0 1000 949" width="1000" xmlns="http://www.w3.org/2000/svg">
 <g id="features">
  <path d="M216.6 602.6l0.1 0.1 0 0.1 0.7 1.3 2.7 2.2 0.6 0.5 2.4 1.8 1.6 1.9 7.7 3.9 1 1.1 1.5 1.7 0.5 1.3 0.4 4.5 3.5 7.7 2.6 1.5 5.9 0.3 3.5 0.8 0.8 1.2 1 3.7-0.3 5-0.3 3.2 0.8 3 6 3.2 3.4 2.5 3.5 3.4 4 1 0.8 0.9-0.2 1.7-0.4 1.3 0.7 3.5 0.7 0.9 0.2 1-1.7 1.1-3.6 0.5-2.4 0.4-3-0.6-4 0.5-2.5 0.5-1.6-0.2-1.5-1.4-1.6-3.1-1.2-1.2-1.1-0.7-1.1 0.7-1.5 2.4-1.8 2.6-2.2 0.6-1.8 0.9-4.2-0.3-0.3 0.3-0.6 0.4 0 0.1-0.1 0.1-0.2 0.3 0.1 0.1 0.2 0.1 0.5 0 0.5 0 0.3 0.2-0.1 0.8-0.1 0.4 0.6 0.5 0.3 0.5-0.1 0.6 0.6 0.6 0.7 0 0.1 0.2-0.1 0.6 0.1 0.5 0 0.6 0 0.2-0.3 1.1 0.3 0.7 0.1 0.3 0.1 1.1 0.2 0.3-0.3 0.1-0.4 0.1-0.3 0.3-0.1 0.1-0.2 0-0.1 0-0.3-0.4-0.6-0.4-0.5-0.1-1.1-0.2-0.2 0.1-0.1 0.1-0.2 0.3 0.3 0.6 0.1 0.3 0 0.8 0 0.5 0.4 1.1 0 0.1-0.1 0.2-0.3-0.1-0.1 0 0 0.1-0.4 0.4-0.2 0.1-0.3 0-0.2 0 0 0.1-0.1 0.1 0 0.2 0.6 0.5-0.7 0.8-0.3 0.2-0.2-0.1-0.4 0 0 0.1 0 0.1 0.1 0.3 0.2 0.2-0.1 0.7 0.2 0.1 0.4 0.7 0.2 0 0.1 0 0.3 0.2-0.1-0.3-0.1-0.1 0.3-0.1 0.4 0.2 0.2-0.1 0.1 1 0.4 0.3 0.6 0.3 0.4 0.2 0.1-0.1 0.2-0.2 0.3 0.2 0 0.6 0.2 0.4 0.3 0.1 0.2 0.4-0.3 0.3 0.2 0.1 0.2 0.1 0.7-0.1 0.3-0.3 0.3-0.2-0.1-0.3 0.1-0.1 0.1 0 0.2 0 0.2 0.1-0.1 0.2-0.4 0.5-0.1 0.3 0.4 0.1 0.3 0.3 0.1 0.5-0.2 0.3 0.2 0.3 0.1 0.1 0.7-0.1 0.3 0.1 0.1 0.3 0.1 0.1 0.1 0.9 0.1 0 0.3 0 0 0.3 0.3-0.1 0.4 0.2 0.1 0 0.7-0.2 0.5-0.3 0.2-0.2 0-0.2 0.2 0 0.1 0 0.3 0.3 0.3 0.3 0.6 0.4 0.2 0.4 0.1 0.1 0.6-0.2 0.3-0.1 0.7 0 0.4-0.4 0.5-0.4 0-0.3 0.7-0.4 0-0.2-0.3-0.2-0.2 0.1-0.4 0.2-0.6 0.1-0.1 0 0.1-1 0.2-0.2 0.6-0.3 0.5-0.2 0.3-0.8-0.2-0.3 0-0.3-0.6-0.4-0.3-0.2 0.3-0.2 0.6-0.1 0.4-0.3 0.3-0.8 0.4-0.3 0.6 0.1 0.6-0.3 0.4 0.2 0.6 0.5 0.1 0.1 0.2 0.2 1-0.6 0.2 0 0.1 0 0.3 0 0.2 0.3 0.1 0.5 0 0.4 0.3 0.3 0.3 0.2 0.4 0.8 0.2 0.1-0.3 0.7-0.1 0.4 0.2 0.2 0.4 0.1 0.5 0.4 0.3 0.5-0.2 0.3 0 0.1-0.4-0.1-0.1-0.1-0.5 0-0.2 0.1 0.2 0.6 0.2 0.8 0.2 0.5-0.3 0.7-0.5-0.1-0.1 0.4 0.2 0.4-0.3 0.1-0.5-0.2-0.3 0.3-0.1 0.2 0.2 0.4-0.3 0.3-0.5-0.1-0.2 0.3-0.1 0.2 0 0.4 0.3 0.3 0.1 1-0.2 0.3-0.4-0.1-0.3 0 0.1 0.2-0.3 0.3-0.3 0.1-0.3-0.1-0.2 0.3-0.2 0.3-0.1 0.6-0.4 0.4-0.4-0.1 0.1 0.6-0.3 0.4-0.3 0.9 0.1 0.5-0.2 0.6 0.1 1.3 0.3 0.4 0 0.7 0 0.2-0.1 0 0.3 0.9 0.3 0.6 0 0.4-0.4 0-0.6 0.1 0.1 0.2 0.2 0.3 1.6 1.2 0.5 0.2 0.3 0.8-0.1 0.5 0.4 0.5 0.4 0.3 0.2 0.2 0.8 0.3 0.1 0.2 0.2 0.1 0.3 0.2-0.3 0.7 0.5 0.2 0.1 0.8-0.2 0.5 0.6 0.5 0.2 0.3-0.5 0.3 0 0.6 0 0.6 0.2-0.3 0.4 0.3-0.1 0.6-1.2 0.4-0.2-0.4-0.4 0.2-0.2 0.3-0.2-0.1-0.3 0.3-0.4 0.6-0.4 0.2-0.1 0.4 0.3 0 0.3 0.3 0 0.6 0.1 0.2 0 0.4-0.2-0.1-0.7-0.2-0.2 0.2 0.1 0.1 0.1 0.1 0.2 0.3-0.2 0.4 0.1 0.5-0.3 0.1-0.3 0.4-0.4 0.1-0.3 0.3 0.2 0.4 0.2 0.3 0.2 0.2 0.4-0.1-0.1 0.5-0.1 0.3-0.3 0.1-0.5 0.3 0 0.4 0.4 0.1-0.1 0.3-0.2 0.1-0.5 0.2-0.3 0.3-0.2 0 0.1 0.4-0.2 0.2-0.2 0.1-0.4 0.1 0.1 0.3-0.2 0.6-0.3 0.4 0 0.3 0.1 0.6-0.2 0.5-0.1 0.7-0.3 0.3 0.5 0.5 0 0.4 0.3 0.3 0 0.3-0.2 0.2 0 0.5-0.5-0.1-0.3 0-0.2 0.3 0 0.4 0.1 0.4-0.2 0-0.2 0.1 0 0.4 0.2 0.2-0.1 0.4 0.3 0.1 0.2 0.6 0.4 1.5 0.3 0.2-0.2 0.6-0.4 0.4 0.1 0.4 0.3 0.5-0.1 0.2-0.3 0.5 0 0.1 0.1 0.2 0.2 0.2-0.2 0.3-0.4 0.2-0.3 0.6 0.1 0.6 0.1 0.6-0.7 0.8-0.2 0-0.4-0.3-0.2 0.2-0.3 0.3-0.4 0-0.1 0.4-0.2 0.6 0.2 0.3 0.1 0.1 0.2 0.1 0.3 0.1 0 0.3 0.1 0.5-0.3 0-0.6 0.4-0.5 0 0 0.3-0.4 0.3-0.2 0.3 0.4 0.4 0.4 0.1-0.2 0.4 0.4 0.5 0.3 0.2 0.1 0.7 0.2 0.3 0.2-0.1 0.4 0.1 0.1 0.3 0.1 0 0.2 0.2-0.1 0.5 0.4 0.3-0.2 0.1 0 0.3-0.3 0.2 0 0.2 0.2 0.3-0.2 0.2-0.2 0.2-1.1 1.1-0.3 0-0.3 0.6-0.8 0.1-0.3 0.9-0.5 0.2-0.4 0.6-0.3 0.9-0.9 0.4-0.2 0-1.5 1.2-0.1 0.1 0.1 0.8-0.5 0.3-0.1 0.4-0.9 1.1-0.2 0.2-0.3 0.1-0.3 0.3-0.2 0.1-0.2 0.4-0.1 0.2-0.7-0.1-0.4 0.1-0.3 0 0-0.1-0.1 0 0-0.4-0.2-0.2-0.4-0.1-0.5-0.2-0.2-0.1-0.3 0-0.4-0.1-0.4 0.1-0.7 0.4-0.1 0.2-0.1 0.9-0.2 0.9-0.9 1.8-0.2 0.8-0.1 0.2-0.5-0.6-2.3 1.5-1.7 1.4-3.4 2.7-0.3-0.1-0.3-0.1-0.2 0-0.3-0.1-0.3-0.1-0.3-0.1-0.5-0.1-0.3-0.2-0.3-0.4-0.2-0.1-0.3-0.1-0.3-0.2-0.1-0.3-0.3-0.1-0.3-0.1-0.1 0-0.2 0 0-0.3-0.3-0.2-0.3-0.2-0.3 0-0.1-0.1-0.2-0.2-0.1-0.1-0.2-0.1-0.2-0.1-0.1 0-0.2 0-0.4 0-0.2-0.1-0.2 0-0.3 0-0.1-0.1-0.2 0-0.3 0-0.2-0.1-0.1 0-0.2 0.1-0.2-0.1-0.4 0-0.2-0.2-0.2 0-0.2-0.1-0.3-0.1-0.1 0.1-0.2 0-0.1-0.1-0.2 0-0.2 0-0.2-0.1-0.2-0.1-0.2 0-0.2 0.2-0.2 0-0.3 0.1-0.3 0.1-0.1 0.1 0 0.1 0 0.1-0.3 0.2-0.2 0.2-0.2-0.1-0.1 0-0.1-0.1-0.1-0.2-0.2-0.2-0.5-0.3-0.5-0.2 0 0.1-0.2 0.1 0 0.1-0.1 0.1-0.1 0.2 0 0.2 0 0.2 0 0.1-0.1 0.2-0.3 0.1-0.2 0-0.2-0.1 0.1-0.1 0-0.2-0.1-0.3-0.1-0.1-0.1-0.1-0.4-0.2-0.3-0.1-0.4 0.1-0.2 0.1-0.2 0.3-0.1 0.2 0 0.2 0.1 0.2 0 0.1-0.1 0.1-0.4 0.1-0.5 0-0.2 0.1-0.2 0.1-0.1 0.2-0.2 0.1-0.3 0.1-0.1 0.1-0.1 0.1 0 0.2 0 0.2 0.1 0.1 0.1 0.1 0.1 0.2 0.1 0.2 0.1 0.1 0.1-0.1 0.1 0 0.1-0.2 0.2-0.1 0.3 0.1 0.1 0.1 0.1 0.5-0.1 0.3 0.1 0.3 0.2 0.3 0.3 0.3 0.1 0 0.1 0.1 0.1-0.1 0.1 0 0.1-0.2 0.1 0 0.1 0 0.1 0.1 0 0.2 0 0.4 0.1 0.1 0.2 0.1 0.3 0.1 0.2 0.1 0 0.1 0.1 0.2-0.1 0.4 0 0.2 0.2 0.5 0.2 0 0.1 0.1 0.1 0 0.1 0.1 0.2 0.2 0.2 0.1 0.4 0 0.4 0.1 0.1 0 0.1 0.1 0.2 0.1 0.1 0.1 0 0.1 0 0.1-0.3 0.1-0.2 0.1 0 0.3-0.1 0.4 0.1 0 0.1 0 0.1 0 0 0.1 0 0.1 0 0.1-0.2 0.2-0.1 0.3-0.1 0.2-0.2 0-0.3 0.6-0.2 0.1-0.1 0.1 0.2 0.3 0 0.1 0 0.1-0.1 0.2 0 0.4 0 0.2 0.1 0.2 0.1 0.3-0.1 0.1-0.2 0.2-0.2 0.2-0.2 0.1-0.1-0.2-0.1-0.1-0.3 0.4-0.1 0.1-0.2 0.3 0 0.2 0.2 0.2 0.1 0.1 0 0.1-0.1 0.1-0.2 0-0.4-0.1-0.2 0 0-0.1-0.1 0-0.1 0-0.2 0-0.1 0-0.1 0.1-0.1 0-0.1 0-0.1 0-0.1-0.2-0.3-0.1-0.8-0.2 0 0.1-0.2 0.2-0.2-0.1-0.1-0.2 0-0.1-0.8-0.1-0.5 0.1-0.2 0-0.1 0.2-0.2 0.1 0 0.1-0.2 0-0.1-0.2-0.1-0.1-0.2 0-0.1 0-0.3 0.2-0.1-0.1-0.2-0.1-0.2 0-0.2 0.1-0.2-0.1-0.1 0.1-0.1 0-0.3 0.1-0.1 0-0.1 0.3-0.2 0.1-0.1 0.2 0 0.1-0.1 0.2 0 0.1 0.1 0.1 0 0.2-0.1 0 0 0.1-0.2 0.2-0.2 0.1-0.1 0.1-0.7 0.6-0.7 0.2 0 0.1 0 0.1-0.2 0.2 0 0.2-0.2 0.2-0.4 0-0.3 0-0.2 0-0.1 0-0.1 0.2-0.1 0-0.2 0-0.1-0.1-0.1 0-0.2-0.1-0.1 0-1.7 0.6-0.2 0.2-0.2 0-0.2 0-0.1 0-0.1 0.1 0 0.1-0.3 0.1-0.2-0.1-0.2 0.1-0.6 0.4 0 0.1-0.1 0-0.7 0.4-0.3 0.3-0.1 0.2-0.1 0.1-0.1 0.2-0.2 0-0.1 0.3-0.1 0.1-0.2 0.2 0 0.2-0.1 0.2-0.2 0.2 0 0.1 0 0.2 0.2 0.3-0.1 0.3-0.1 0.2 0.2 0.3 0.1 0.3 0 0.5-0.1 0.2-0.2 0.5-0.2 0.3-0.4 0.1-0.1 0.1-0.1 0.1 0 0.2 0.1 0.6 0.3 0.6-0.2 0.2-0.4 0.2-0.1 0-0.3 0-0.2 0.1-0.2 0.1-0.1 0-0.2 0 0-0.1-0.4-0.1-0.3 0-0.2 0.1-0.4 0-0.3-0.1-0.1-0.1-0.1 0-0.5-0.3-0.4 0-0.5 0-0.3 0.1-0.2-0.2-0.2-0.2-0.1 0-0.1-0.2 0.1-0.3-0.2-0.1-0.4-0.1-0.3-0.2-0.1-0.1-0.4-0.3-0.2 0-0.2 0.3-0.1 0.2-0.1 0-0.3 0-0.3-0.1-0.4-0.1-0.9 0.2-0.5 0-0.1 0-0.1-0.1-0.2-0.1-0.4-0.2-0.3-0.1-0.1-0.1-0.1-0.1-0.2-0.2-0.2 0-0.1-0.2-0.1-0.1 0-0.2-0.2-0.1-0.1-0.1 0-0.1 0-0.2 0-0.1 0-0.1-0.1-0.1-0.1-0.1 0-0.2 0-0.1-0.1 0-0.1 0-0.1 0-0.3 0.1-0.1 0-0.1 0-0.2 0-0.2 0-0.1 0.1-0.2 0-0.1-0.1-0.1 0 0-0.1-0.2-0.1-0.3-0.1-0.1-0.1 0-0.1-0.1 0.1-0.1 0 0 0.2-0.2 0-0.1 0-0.1 0-0.1 0.1-0.1 0-0.2-0.1-0.1-0.1-0.1 0-0.1 0-0.1-0.1 0-0.2-0.1 0-0.7-0.4-1.1-0.4-0.7-0.3-1-0.8-0.1 0-0.1 0.1-0.2 0-0.1-0.1-0.2-0.2-0.1-0.1-0.1-0.1 0-0.1-0.1 0.1 0 0.1 0 0.2 0.1 0.2 0 0.2-0.1 0.1-0.2 0 0-0.3-0.1 0 0-0.2 0-0.3-0.2 0-0.1 0.2 0 0.1-0.2 0-0.1-0.1 0-0.2-0.2 0-0.4 0.1-0.3-0.1 0.1-0.2 0-0.1 0-0.3 0.1-0.6 0.1-0.1 0.1 0 0.2 0 0.1-0.1-0.1-0.1-0.1-0.2-0.2-0.2-0.1 0.1-0.1 0 0 0.1-0.1 0.2-0.1 0.1-0.3-0.1-0.6 0.1-0.4-0.1-0.1 0-0.2-0.2-0.3 0 0 0.1 0 0.1 0 0.1-0.4 0.1-0.1 0-0.8-0.2 0-0.1-0.3-0.2-0.2-0.2-0.2-0.1-0.3 0.1-0.2 0.1-0.1-0.1 0-0.1-0.3 0-0.1-0.1-0.3-0.2 0-0.2 0-0.2 0-0.1-0.1-0.1-0.1 0-0.2 0.1-0.2 0-0.4 0-0.1 0-0.4-0.2-0.2-0.1-0.3 0.2-0.2 0.1-0.2 0.1-0.2 0.1-0.2 0.1-0.2-0.2-0.2-0.2 0-0.2-0.2-0.2-0.1-0.2-0.2 0-0.1 0.2-0.1 0.2-0.1 0-0.1 0-0.1 0 0-0.1 0-0.1-0.1-0.1-0.2 0 0 0.1-0.4 0-0.1-0.1-0.1 0-0.1 0 0 0.1 0 0.1 0 0.1 0.1 0.3 0 0.2 0 0.1-0.3 0.1-0.3 0.1-0.1 0.1-0.2-0.1-0.1-0.3 0-0.3 0-0.1 0-0.1 0-0.1-0.2-0.1-0.1-0.2 0-0.1-0.1-0.2 0-0.1-0.1 0-0.2-0.1-0.2-0.1-0.1 0.1 0 0.1 0 0.2 0 0.1-0.1 0-0.2-0.1-0.2-0.2-0.2-0.1-0.3-0.1-0.1 0-0.1 0.1 0 0.1 0.1 0.3 0.1 0.2 0.2 0.3 0.2 0.3 0.1 0.2 0 0.2-0.1 0.1-0.1 0-0.3 0.1-0.3-0.1-0.4-0.3-0.3 0-0.3 0.1-0.1 0.2 0 0.2 0.2 0.2 0.1 0.2 0 0.1 0 0.2-0.3 0.2-0.4 0.1-0.3 0.1-0.1 0.1 0-0.1-0.1 0-0.1-0.2-0.2-0.3-0.1 0-0.4-0.2-0.2 0-0.5 0.2-0.3 0.1-0.1 0.3 0 0.3 0.1 0.5 0 0.1 0.1 0.1 0.1 0.3 0 0.2-0.1 0.1-0.1 0-0.4 0-0.5 0.1-0.4 0.3 0 0.1-0.3 0.4-0.1 0.1 0 0.1-0.1 0-0.3 0.2-0.2 0-0.2 0-0.3 0.1-0.2 0-0.2 0-0.3 0-0.3 0-0.1-0.1-0.4-0.1-0.2 0-0.2-0.1-0.2 0-0.5 0.1 0 0.6 0.4 1.1-0.2 0.2 0 0.1 0 0.1-0.1 0.2-0.3 0-0.1-0.1 0 0.5 0.2 0.6 0 0.4-0.2 0.1 0 0.2-0.2 0.3-0.1 0.3-0.3 0.3-0.2 0.2-0.1-0.2-0.1 0-0.3 0.1-0.3 0.2-0.3 0-0.2 0-0.2 0.1-0.1 0.1-0.2 0.1-0.3-0.1-0.2 0.1-0.1 0.1-0.1 0-0.2 0 0 0.2 0.1 0.2 0.1 0.2 0.2 0.3 0.3 0.1 0.1 0.2 0.1 0.2-0.1 0.1 0 0.1-0.1 0.2-0.2 0.2-0.2 0-0.1 0-0.2 0-0.2 0-0.1 0.1 0 0.2-0.2 0.1-0.2 0.2-0.2 0.1-0.1 0-0.1-0.1-0.2 0-0.5 0.3-0.2 0.3-0.2 0.3 0 0.3-0.1 0.3 0 0.4-0.1 0.2-0.2 0.2-0.2 0.1-0.1 0.3-0.1 0.2 0 0.1 0.1 0.3 0 0.3-0.3 0.3-0.4 0.2-0.3 0-0.2 0.2-0.1 0.1-0.1 0.1-0.2-0.1-0.1 0-0.2 0-0.2 0.1-0.2-0.2-0.1 0-0.2 0-0.2-0.2-0.1 0-0.1 0-0.2-0.1-0.2-0.1-0.2 0.2-0.3-0.1-0.2 0 0-0.1-0.1-0.1-0.1-0.1-0.2-0.2-0.1-0.1-0.1 0-0.1 0-0.2 0-0.2-0.2-0.1-0.1-0.2 0 0-0.3-0.2 0-0.2-0.2-0.2-0.1-0.1-0.1-0.2-0.1-0.3-0.3-0.2 0.1-0.3 0-0.4 0.1-0.1-0.1-0.1-0.3 0.1-0.3 0.1-0.2 0.1-0.2 0.2-0.1 0.1-0.1 0-0.2-0.1-0.3-0.1-0.3-0.1-0.1-0.3-0.7-0.2-0.3 0-0.1 0-0.2 0-0.3 0.1-0.1 0-0.2-0.1-0.1-0.2-0.2-0.1-0.2-0.1-0.3-0.2-0.2-0.1-0.2-0.1-0.2-0.1 0-0.1-0.1-0.2-0.2 0.1-0.2 0-0.1 0.2-0.1 0.1-0.1 0.1-0.3 0-0.2-0.1-0.2 0.1-0.1 0.1-0.1 0.1-0.1 0.2 0 0-0.1-0.1-0.1 0-0.2-0.1-0.2 0.1-0.2-0.1-0.1 0-0.2 0.1-0.2-0.1-0.2-0.1-0.1 0-0.3-0.1-0.2 0-0.1 0.1-0.1 0-0.1-0.1-0.2-0.1-0.2-0.2-0.1-0.4 0-0.2 0-0.3-0.1-0.1-0.1-0.2 0-0.2 0.1-0.2-0.1 0-0.1-0.3-0.1-0.1-0.1-0.1-0.2-0.2 0-0.2-0.1-0.4-0.2-0.1-0.2-0.2-0.1-0.1 0-0.1-0.1 0-0.2-0.3-0.3-0.3-0.3-0.2-0.2-0.1-0.2-0.1-0.2-0.1 0-0.1-0.1 0-0.1 0-0.1 0.1 0-0.1-0.3-0.1-0.2-0.2-0.1-0.1-0.3-0.1-0.2-0.1-0.2 0.1-0.2-0.2-0.2 0-0.2-0.1-0.1-0.1 0-0.1 0.1-0.3 0-0.1-0.1-0.2-0.2-0.1-0.1 0-0.1 0-0.2-0.2 0-0.2 0-0.1-0.3-0.1-0.1-0.2 0-0.1-0.1-0.2-0.1-0.2 0-0.1 0-0.2 0.2-0.1 0.2-0.2-0.1 0-0.1-0.2-0.1-0.2 0.1-0.1 0.1-0.2 0-0.2-0.1-0.3 0-0.2-0.1-0.2 0-0.1 0.1-0.2 0.2-0.2 0.1 0 0.2-0.1 0.2-0.2 0.1-0.4-0.1-0.3 0-0.3 0-0.2 0-0.3 0-0.2 0-0.2 0-0.2 0.1-0.3 0-0.1-0.1-0.1 0-0.1-0.1 0.1-0.1 0-0.2-0.1-0.1-0.2 0.2-0.1 0-0.1 0.1 0 0.2 0 0.2-0.1 0.2-0.1 0.4-0.1 0.2-0.1 0.3-0.1 0.1-0.1 0.2-0.1 0.1 0 0.2 0.1 0.2 0.1 0.3 0.1 0.2 0 0.2-0.2 0-0.1-0.1-0.2 0-0.3 0.1 0 0.4-0.2 0.3 0 0.3 0 0.2-0.1 0.2 0 0.1-0.2 0.1-0.2 0.1-0.2 0-0.2 0.1-0.3 0.1-0.2 0-0.1 0.1-0.3 0.1 0 0.2-0.1 0.1 0 0.2 0 0.1 0 0.1-0.1 0 0.1 0.2 0 0.2 0 0.2 0 0.1-0.1 0.2-0.2 0.1-0.2 0-0.2-0.1-0.2 0-0.2-0.1-0.2 0.1-0.1 0-0.2-0.1-0.2 0.1-0.2 0.1-0.1 0.4-0.1 0.2 0 0.1 0 0.2 0.1 0 0 0.3 0.2 0.2 0 0.1 0.1 0.1 0.1 0.1 0 0.2-0.1 0.2-0.1 0.2-0.1 0.3-0.1 0-0.3 0.4-0.1 0.1-0.1 0-0.1-0.1-0.2 0.1 0 0.1-0.1 0.1 0 0.1 0 0.1-0.3 0.1-0.1 0.1-0.2 0.1-0.1 0-0.1 0.1 0 0.1-0.1 0.2-0.2 0.2-0.1 0.1-0.1 0.2-0.1 0-0.2 0.1-0.2-0.1 0-0.1-0.1 0-0.1 0 0 0.1-0.1 0-0.1-0.1-0.4 0.1-0.3 0 0 0.1-0.2 0.2-0.2 0.2 0 0.2 0 0.2-0.2 0.1-0.5 0-0.2 0-0.1-0.1-0.4-0.2-0.2-0.1-0.3-0.1-0.3-0.1-0.3 0-0.4 0.1-0.4-0.2-0.4-0.4-0.4-0.3-0.2-0.1-0.3 0.1-0.4-0.1-0.2-0.2-0.2-0.4-0.1-0.2-0.3-0.3-0.2-0.1-0.2-0.3-0.2-0.1-0.4-0.1-0.3-0.1-0.3-0.2-0.1-0.2-0.2-0.3 0-0.2 0-0.4 0.1-0.3 0-0.3-0.1-0.2-0.2-0.2-0.1-0.2 0-0.2-0.1-0.1-0.1-0.2-0.1-0.2-0.6-0.1-0.6-0.2-0.4 0-0.2 0-0.1 0.1-0.1-0.1-0.1-0.2-0.3-0.1-0.1-0.1-0.3-0.1-0.2-0.1-0.3 0-0.1-0.2-0.2-0.1-0.2 0.1-0.1-0.1-0.3-0.1-0.3-0.1-0.3 0-0.5-0.5 0-0.2-0.1-0.2-0.1-0.3-0.1-0.3-0.2-0.1-0.3-0.1-0.1-0.1-0.2-0.1-0.1-0.1 0.1-0.1 0.1-0.3-0.1-0.1-0.2-0.1-0.1-0.1-0.1-0.1-0.1-0.1 0.1-0.1 0.1-0.1 0.1-0.3 0-0.2 0-0.1 0.1-0.3-0.1-0.2-0.1-0.1 0-0.2 0.1-0.1 0.1-0.1 0.2-0.2 0-0.2-0.1-0.1 0.1-0.1 0.1 0 0.1 0 0-0.2 0.1-0.1 0-0.1 0.1-0.1 0.1-0.1 0.1 0 0.3-0.2 0.1-0.1 0.1 0 0.1 0.1 0.1 0 0.1-0.1 0.1-0.2 0-0.1 0-0.1 0.1 0.1 0.1 0 0.2 0 0.2-0.3 0-0.3 0-0.3-0.1-0.2 0-0.1-0.1-0.1 0-0.2 0.2-0.1 0.2 0 0.1 0 0.1 0 0.1 0 0.2-0.1 0.1-0.1 0-0.1 0.1-0.2 0-0.3 0.1-0.5-0.2-0.2-0.1-0.1 0-0.1 0-0.2 0.1-0.2 0-0.2 0-0.2 0.1-0.2-0.1-0.3 0-0.1 0-0.2-0.1-0.2-0.2-0.2-0.1-0.3-0.2-0.1-0.2-0.1 0-0.1 0-0.2 0.1-0.1 0.1-0.1 0.1 0.1 0.1 0.2 0.1-0.1 0.1-0.1 0.1-0.2 0-0.2-0.1-0.3-0.1-0.3 0.1-0.2 0.1-0.2 0.1 0 0.2 0 0.1 0 0.1 0 0.2-0.1 0.2-0.2 0.2-0.2 0.2 0 0 0.2-0.1 0.2-0.1 0.1 0.3 0 1-0.1 0.1 0 0-0.1 0.3 0 0.3 0.1 0.1-0.1 0.1 0 0.2-0.1 0.2-0.2 0.1-0.2-0.1-0.1-0.1-0.1 0-0.2 0-0.1-0.2 0-0.2-0.2 0-0.2 0-0.1 0.2-0.1 0.1-0.1 0.2-0.2 0-0.2 0-0.2 0.1-0.2-0.1-0.1-0.1-0.2-0.2-0.2 0-0.2-0.1-0.3 0-0.1 0.1 0 0.3 0 0.3-0.1 0.2-0.3 0.1 0 0.1 0 0.2-0.1 0-0.1 0-0.2-0.1-0.3 0-0.1-0.1-0.2-0.2-0.2-0.1-0.2 0-0.3 0.1-0.1 0-0.2 0-0.2 0-0.1-0.1-0.2-0.1-0.1-0.2-0.2-0.2 0.1-0.1 0.1-0.1 0.2 0 0.1-0.2 0 0 0.2 0 0.3 0.1 0.2 0 0.1-0.1 0.1-0.1-0.1-0.1-0.2-0.2-0.1 0-0.3 0-0.3 0.1-0.3 0.1-0.3 0-0.3-0.2-0.4-0.3-0.1-0.2 0.1 0-0.1 0-0.1 0.2-0.2 0-0.1 0-0.2-0.2-0.1-0.2 0-0.2 0-0.2-0.1-0.1-0.2-0.3 0.1-0.2 0.2-0.1 0.3 0 0.1 0 0.2 0 0.1 0 0.2-0.1 0 0 0.1-0.3-0.1-0.2-0.1-0.2-0.1 0-0.1 0-0.4 0.1-0.4-0.1-0.2-0.2-0.1-0.1 0-0.2 0.1-0.2 0.1 0 0.1-0.1 0-0.1-0.1 0-0.2 0.1-0.1 0.1-0.3 0-0.3 0.1-0.2 0.1 0 0.3 0.1 0.2 0 0.4 0 0.1 0 0.1-0.1 0.2-0.2 0.1-0.2 0.1-0.3 0.2-0.2 0.2-0.4 0.1-0.2-0.2-0.2-0.3-0.2-0.3-0.3-0.2-0.1-0.2-0.2 0-0.2 0.2-0.1 0.1-0.1 0.4-0.1 0.1-0.2 0.1-0.3 0-0.4-0.1-0.2-0.1-0.1-0.1-0.3 0.1-0.2-0.2-0.2-0.1-0.2-0.1-0.2-0.2-0.2-0.2-0.1-0.1 0.1-0.2 0-0.1 0-0.1 0-0.2-0.1-0.3-0.1-0.1-0.2 0-0.4 0-0.2 0.1-0.1 0.2-0.2 0-0.1 0-0.2 0-0.2 0-0.2 0-0.1 0.1-0.1 0.1-0.1 0.1 0.1 0.1 0.1 0 0.1 0.1 0 0 0.1 0.1 0.1 0.2-0.1 0.2-0.2 0-0.2-0.1-0.5 0-0.5 0-0.1 0.2-0.2 0.2 0 0.2 0 0.3 0 0.1 0 0.3 0 0.2 0.1 0.2 0 0.3-0.1 0.2 0 0.2-0.1 0.2 0 0.2 0 0.1-0.1 0.1-0.2 0.1-0.3 0-0.1-0.2 0-0.3 0-0.2 0-0.2-0.2 0-0.2 0.2-0.1 0.1-0.3-0.1-0.2-0.1-0.3-0.2-0.2-0.2-0.1-0.3-0.1-0.1-0.1-0.2 0-0.1-0.1 0.2-0.1 0.1 0 0.3-0.1 0.2 0 0.2-0.1 0-0.2 0-0.1 0-0.4 0-0.2 0.1-0.3 0.1-0.3-0.2-0.2-0.1-0.2-0.1-0.1 0.1-0.3 0.1-0.4 0.1-0.3-0.1-0.1-0.2-0.1-0.1 0.2-0.1 0.1-0.1 0.1-0.1 0.1-0.3-0.1 0-0.1-0.1-0.1 0.1-0.2-0.1-0.2 0-0.1-0.1-0.2-0.2 0-0.1-0.1 0-0.1 0.1-0.1 0.1-0.1 0.2-0.1 0.2 0 0.1-0.2 0-0.2 0-0.2-0.1-0.2-0.2-0.2-0.1-0.2 0-0.3 0.1-0.4 0.1-0.2 0.1-0.2 0.1-0.1 0.3-0.1 0.2-0.2 0-0.3 0-0.1-0.2-0.1-0.2-0.1-0.2-0.1-0.1-0.1-0.1-0.3 0.1-0.3 0.1-0.1 0.1-0.1 0.1 0.1 0.1 0 0 0.1 0 0.2 0.1 0 0.3-0.1 0.2-0.1 0.3 0 0.6-0.2 0.2-0.1 0.4-0.1 0.1 0 0.3-0.2 0.1-0.3-0.1-0.2-0.1-0.1-0.2-0.2-0.1-0.3 0-0.3 0-0.3 0-0.3 0-0.3-0.1-0.3-0.2-0.3-0.2-0.2-0.4-0.2-0.3 0-0.4 0-0.2 0.1 0 0.2 0 0.1 0.1 0.2 0.1 0.3 0 0.3-0.1 0.2 0 0.2-0.1 0-0.1 0-0.1 0-0.1-0.2-0.2-0.1-0.1-0.1-0.2-0.1-0.1 0-0.1 0-0.1 0.1-0.2 0.1 0 0.1-0.1 0.1-0.1-0.1 0-0.2 0.1-0.2 0.1-0.1 0.1-0.2 0-0.2-0.2-0.2 0-0.2-0.1-0.1-0.1-0.1 0.1-0.2 0.1-0.1 0.1-0.1 0.1 0 0.1 0.1 0.2 0 0.3 0 0-0.2 0.1-0.1-0.1-0.2-0.1-0.1-0.1-0.2-0.3-0.1-0.3-0.1-0.2-0.1 0.1-0.1 0.1-0.2 0.1-0.2 0-0.3-0.1 0-0.2-0.1-0.5-0.5-0.4-0.5-0.1-0.2 0-0.2 0.1-0.1 0.3-0.3 0.1-0.2 0-0.2 0.1-0.2-0.1-0.2-0.2-0.1-0.2-0.1-0.2-0.2-0.1-0.2-0.2-0.2-0.2 0-0.3 0-0.3-0.1-0.5 0.2-0.3-0.1-0.2-0.2-0.2-0.1 0-0.2-0.2-0.3-0.2-0.1-0.2-0.1-0.2-0.1-0.1-0.2-0.1-0.1-0.1-0.4-0.1-0.5-0.1-0.2-0.2-0.2-0.3-0.1-0.3-0.1 0-0.1 0-0.3 0-0.1 0.1-0.2 0.2-0.1 0.2-0.2 0-0.1 0.1-0.1 0.1-0.3 0.1-0.2 0.1-0.3 0-0.3-0.1-0.2-0.1-0.2-0.3-0.1-0.3 0-0.6 0-0.4 0-0.3-0.1-0.2-0.5-0.1-0.4 0.1-0.4 0.1-0.4 0.1-0.2 0.2-0.3 0.2-0.2 0.2-0.4 0.1-0.2 0-0.3-0.2-0.1-0.3-0.3-0.2-0.2-0.1-0.2-0.1-0.2 0-0.3 0-0.2-0.2-0.2-0.4-0.1-0.5-0.1-0.3 0-0.1-0.2-0.5-0.5-0.2-0.2-0.3-0.1-0.2-0.2 0.1-0.2 0.1-0.3-0.1-0.2-0.1-0.1-0.2-0.3-0.1-0.4 0-0.4 0.1-0.4 0-0.5-0.1-0.2-0.2-0.1-0.3 0.2-0.4 0.1-0.3 0-0.1 0-0.4 0-0.3 0-0.2-0.1 0-0.1 0.1-0.2 0.1-0.2 0.2-0.2 0.2-0.3 0.1-0.2 0-0.3-0.1-0.2-0.3-0.1-0.3 0-0.4 0.1-0.5 0.1-0.5 0.2-0.9-0.1-0.6 0-0.1-0.1-0.1-0.2 0-0.2-0.1-0.2-0.1-0.2-0.2-0.2-0.1-0.2-0.3-0.1-0.5 0-0.6 0-0.4 0.1-0.3 0.1-0.1 0 0 0.1-0.1 0.1-0.1 0.4 0.1 0.3 0.1 0.2 0 0.2-0.2 0.3-0.3 0.3-0.2 0.4-0.2 0.2-0.2 0.4 0 0.2-0.1 0.5-0.1 0.3-0.3 0.3-0.3 0-0.1 0-0.3 0.1-0.3 0.1-0.1 0.3-0.2 0.3-0.1 0.4-0.1 0.2-0.1 0.1-0.2 0-0.3 0-0.5 0.1-0.5 0.1-0.1-0.1-0.2-0.2 0-0.1 0.1-0.1 0.1-0.2 0-0.3-0.1-0.2-0.1-0.2-0.2-0.1-0.3-0.5-0.2-0.4-0.1-0.2-0.4-0.3-0.5-0.2-0.2-0.5-0.1-0.2-0.2-0.3-0.2-0.1-0.4 0-0.2-0.1 0-0.2 0-0.2 0.1-0.3 0.1-0.2 0.1-0.2 0.2-0.4 0.1-0.4 0.2-0.4 0.2-0.4 0.1-0.3 0.1-0.3 0-0.4-0.2-0.6-0.3-0.3-0.4-0.3-0.3-0.2-0.3-0.2-0.1-0.3-0.2-0.3-0.1-0.1-0.3-0.2-0.4-0.1-0.3-0.3-0.2-0.3-0.2-0.2-0.2-0.3-0.2-0.1-0.4-0.1-0.5-0.2-0.5-0.3-0.4-0.3-0.3-0.3 0-0.1-0.1-0.2-0.2-0.5-0.4-0.5-0.4-0.2-0.3-0.2-0.2-0.2 0-0.1 0.1-0.7-0.1-0.2-0.1-0.1-0.4-0.3-0.5-0.4-0.2-0.4-0.3-0.2-0.4-0.3-0.2-0.3-0.2-0.3 0.1-0.4 0.1-0.5-0.1-0.3-0.1-0.5 0-0.3-0.1-0.3-0.2-0.2-0.1-0.3-0.1-0.3-0.2-0.2-0.2-0.2 0-0.2-0.2-0.2-0.2-0.3-0.2-0.2-0.2-0.4-0.1-0.4 0.2 0 0.2 0 0.2-0.2 0-0.2 0.2 0 0.1-0.1 0.2 0 0.2-0.1 0.1 0 0.1-0.1 0.2 0 0.1-0.1 0.2-0.2 0.2-0.1 0.1 0 0.4-0.2 0.2-0.2 0.1-0.1 0.1-0.2 0.1 0.1 0.2 0 0.2-0.1 0.1-0.1 0.1-0.1 0.1-0.2 0-0.2 0.1-0.2 0.3-0.1 0.2-0.1 0.2-0.1 0-0.2 0.2-0.1 0.1-0.1 0.1-0.3 0.2-0.2 0-0.2 0.1-0.1 0-0.1 0.1 0 0.2-0.1 0.1-0.2 0.2-0.3 0.1 0 0.2-0.1 0.3 0 0.2-0.2-0.1-0.2-0.1-0.2 0.1-0.2 0-0.2 0.1-0.2 0-0.3 0-0.3 0.2-0.2 0-0.3-0.1-0.3 0.1-0.2 0.2-0.3-0.1-0.3 0.1-0.4 0.2-1.1 0.3-1.5 0-0.2-0.2-0.2-0.2-0.2-0.3-0.2-0.9-0.7-0.4-0.3-0.5-0.4-0.5-0.4 0-0.1 0-0.1-0.1 0 0-0.2-0.1-0.1-0.1-0.1-0.2-0.3-0.2 0-0.2 0-0.1-0.1-0.2-0.3 0-0.1 0-0.1 0.2-0.3 0.1-0.2 0-0.3-0.1-0.3-0.1-0.3-0.3-0.4-0.1-0.1 0-0.1 0-0.1 0.3-0.2 0.1-0.1 0-0.2-0.1-0.8 0.1 0 0.2-0.1 0.1 0 0.1-0.2 0.1-0.1 0.1-0.1 0.1-0.3 0-0.2-0.2-0.4 0-0.2 0-0.1 0.1-0.3 0.2-0.1 0.1-0.1 0.2 0 0.3 0 0.1-0.1 0.2-0.3 0.1-0.3-0.2-0.3-0.5-0.7-0.1-0.2 0.1-0.2 0.1-0.4 0.1-0.2 0.1-0.1 0.1-0.2 0.2-0.5 0.1-0.2-0.2-0.4 0.1-0.5 0-0.4 0.2-0.4-0.1-0.1-0.3-0.1-0.2-0.1-0.2-0.1 0-0.2 0.1-0.3-0.1-0.2-0.1-0.2-0.3-0.1-0.1-0.2-0.1-0.1-0.2-0.2-0.3-0.8-0.3-1.1-0.5-1.6-0.1-0.2-0.1-0.3-0.2 0.1 0-0.2-0.2 0-0.2 0-0.3 0-0.3-0.1-0.2-0.2-0.3-0.1-0.3-0.1-0.2 0-0.3 0.1-0.3-0.1-0.1-0.3-0.2-0.1-0.5 0.1-0.1-0.1-0.2-0.1-0.1-0.1-0.1-0.1 0.1-0.1 0.2-0.1 0.1-0.1 0-0.2 0.1-0.1 0.1-0.2-0.2-0.1-0.3 0-0.2 0 0-0.1 0.1-0.1 0.1 0 0.2 0 0.2 0 0.1-0.2 0.1-0.1-0.1-0.1-0.2-0.1-0.1-0.2-0.1-0.1-0.2 0 0-0.2 0-0.2 0.1-0.1 0.2 0 0.1 0 0-0.1 0.1-0.2 0-0.2-0.1-0.4-0.3-0.2-0.3-0.2-0.2 0.1-0.3 0.2-0.3 0.2-0.2-0.1-0.1-0.2-0.2-0.2 0-0.2 0.1-0.1 0.1-0.1 0.1-0.2 0-0.3-0.2-0.1-0.2 0 0 0.3 0 0.1-0.1 0-0.2 0-0.1-0.1-0.2 0-0.1 0.2-0.1 0-0.1 0-0.1 0-0.4 0-0.3-0.2-0.2-0.1-0.1-0.3-0.2-0.3-0.2 0.1-0.2-0.1-0.2 0.2-0.3-0.1-0.2-0.1-0.2-0.2-0.4-0.1 0-0.3 0-0.1 0-0.3 0-0.3 0.1-0.2 0.1-0.1 0.1-0.1 0.1-0.1 0.2-0.2 0-0.2-0.1-0.1-0.2-0.3-0.2-0.2-0.3-0.3-0.1-0.1 0-0.2 0-0.1 0.1-0.2 0.2-0.5 0.1-0.1 0-0.2-0.1-0.1-0.1-0.1-0.2 0-0.3-0.1-0.3-0.1-0.2-0.2-0.1-0.4 0.1-0.4 0.1-0.5 0.2-0.5 0.1-0.2-0.1-0.4-0.1-0.5 0-0.4 0.1-0.1 0.1-0.1 0-0.1 0.1-0.1 0.1-0.1 0.2 0 0.3 0 0.5 0.1 0.2 0 0.1-0.2 0-0.3 0-0.4 0.2-0.1 0.1-0.2 0.3-0.4 0.1-0.2 0-0.2 0-0.4 0.1-0.4-0.1-0.2 0-0.2 0.2-0.2 0.1-0.1 0.2 0 0.1 0 0.3 0 0.1-0.1 0.2-0.1 0.1-0.1 0.1-0.3 0.2-0.4 0-0.3 0-0.4 0-0.1-0.2-0.3-0.2-0.2-0.4-0.1-0.4-0.1-0.4 0-0.2-0.1 0-0.2 0-0.2 0.1 0 0.1-0.1 0.3-0.2 0.2-0.1 0.1-0.1 0.2-0.2 0-0.1-0.1-0.2-0.1-0.1-0.2 0.1-0.3-0.1-0.2-0.2-0.3-0.2-0.1 0-0.7 0-0.3-0.1-0.1 0-0.3-0.1-0.1-0.1-0.2-0.2 0-0.2 0.2-0.3 0.1-0.3-0.1-0.4 0-0.2-0.2-0.2-0.3 0-0.4-0.1-0.3-0.1-0.1-0.2-0.1-0.3 0-0.2-0.1-0.6 0-0.1-0.1-0.3 0 0.1 0.1 0 0.3 0.1 0.2 0.1 0.3 0 0.5 0.1 0.3-0.1 0.4 0 0.9-0.1 0.4 0 0.2 0 0.5-0.1 0.2-0.2 0.4-0.3 0.3-0.2 0.4 0 0.6 0.1 0.4 0 0.2 0.3 0.1 0.3 0.2 0.4 0.1 0.1 0.1 0.2 0.3 0.2 0.3 0.1 0.5 0.3 0.7 0.5 0.3 0.2 0.4 0 0.3 0.2 0.2 0.1 0.1 0 0.1 0 0-0.1 0.2-0.1 0-0.1 0.1-0.2 0.1-0.2 0-0.5-0.1-0.2 0-0.2 0-0.4-0.1-0.1 0-0.2 0.2-0.1 0.1-0.2 0.1 0 0.3 0 0.1 0.1 0 0.1 0.2 0 0.2 0 0.2 0.1 0.4 0 0.3-0.1 0.1 0 0 0.1 0 0.1 0.1-0.1 0.1-0.1 0.1-0.1 0.2-0.1 0.2 0.1 0.2 0.2 0.4-0.1 0.3 0 0.2-0.1 0.3 0 0-0.1 0.4 0 0.3-0.3 0.7-0.2 0.3-0.2 0.1-0.1 0.1-0.1 0-0.1-0.1-0.2 0.1-0.2 0-0.2-0.1-0.3 0.1-0.4 0-0.3 0.2-0.4 0.3-0.1 0.8-0.2 0.2 0 0.4 0 0.1 0 0.2 0.1 0.2-0.2 0.2-0.1 0.2-0.1 0.1-0.1 0.2-0.3 0.2-0.2 0.1-0.1 0.2-0.2 0.2-0.1 0.1-0.2 0.2 0 0.2 0 0-0.1 0-0.1 0.2 0.1 0.2-0.1 0.1 0 0.2-0.1 0.1-0.2 0.1-0.2 0.2-0.4 0.2-0.2 0.2 0 0.1-0.2 0-0.2 0.1 0 0.1-0.1 0-0.2 0-0.1 0-0.3 0.2 0 0.1 0 0.2-0.1 0.1 0.1 0.2-0.1 0.1 0.1 0.1 0.1 0.1-0.1 0.2-0.1 0-0.2 0-0.2 0.1-0.2-0.2-0.1 0-0.1-0.1-0.2-0.2 0-0.1-0.1 0-0.2-0.1-0.1-0.2-0.2 0-0.1-0.1-0.2 0-0.1 0-0.4 0-0.1 0.1-0.2 0-0.2 0.1-0.2 0.1-0.1 0.1 0 0-0.1 0-0.2 0.1-0.2 0.1-0.1 0.1-0.3 0.1-0.3-0.1-0.2 0.1-0.1 0.1-0.2 0.1-0.1 0-0.2 0-0.1 0-0.3 0-0.3 0.4-1.1 0.1-0.4-0.1-0.1-0.1-0.2-0.1 0 0-0.1 0-0.1-0.1-0.1-0.1-0.2-0.1-0.1-0.2 0-0.2-0.1-0.1-0.1-0.2 0.1-0.3 0.1-0.2 0.2 0.1 0.1-0.2 0.1-0.3 0.1-0.4-0.2-0.2 0-0.1-0.2-0.1-0.2 0-0.2 0.2-0.3 0-0.2 0.3-0.2 0.2-0.3 0.1-0.3-0.1-0.1-0.1-0.4-0.1-0.1-0.1 0 0-0.1-0.3-0.1 0-0.1-0.2-0.1 0-0.3 0-0.2 0.2-0.4 0.2-0.3 0.4-0.4 0.2-0.2 0.3-0.2 0.3-0.3 0.2-0.1 0.1-0.3 0-0.2-0.1-0.1-0.3-0.4-0.1 0-0.3-0.1-0.2-0.2-0.1-0.3-0.2-0.2-0.1-0.3-0.1-0.3 0-0.2 0.1-0.3 0.1-0.3 0.2-0.3 0.1-0.1 0.1-0.1 0.1-0.1 0.2-0.2 0.2-0.1 0.1-0.1 0.1-0.1 0-0.2 0.1-0.1 0.2 0 0-0.1 0.2-0.5 0.3-1 0-0.1-0.1-0.2-0.1-0.2 0.1-0.2 0-0.1-0.1-0.2 0-0.1 0-0.2-0.1-0.3-0.1-0.2 0.2-0.4 0-0.2 0.3-0.4 0.4-0.5 0.1-0.2-0.1-0.1 0-0.5 0.1-0.3 0-0.2 0-0.2 0-0.1 0.1 0 0.3-0.2 0.4-0.3 0.1-0.3 0.2-0.1 0.1-0.2 0.2-0.4 0.1-0.3 0.1-0.7 0.1-0.5 0.2-0.4 0.1-0.4 0-0.3 0-0.5 0.1-0.2 0.1-0.2 0.2-0.2 0-0.2 0-0.3-0.1-0.2-0.1-0.3 0.1-0.3 0-0.3 0.1-0.2 0-0.4 0.1-0.3 0.3-0.5 0.6-0.5 0-0.1 0.1-0.1 0.4-0.2 0.2-0.1 0.2-0.1 0.1-0.2 0.1-0.2 0-0.2-0.2-1-0.1-0.8 0-0.1 0-0.2 0.1-0.3 0.1-0.2 0.1 0 0.1 0 0.3 0 0.1 0 0.1 0.1 0.6 0.1 0.4 0 0.2 0 0.2-0.1 0.2 0 0.1 0.1 0.2 0 0.1 0.1 0 0.1 0 0.2 0.1 0 0.1 0 0.1-0.1 0.1-0.1 0.1-0.1 0.2 0.2 0.2 0.2 0.1 0.2 0.1 0 0.3 0 0.5-0.1 0.4-0.1 0.1-0.1 0.3-0.2 0.2-0.2 0.6-0.2 0.2-0.2 0.3-0.1 0.4 0 0.1-0.2 0.4-0.4 0.1-0.3 0-0.1 0.1-0.3 0.2-0.4 0-0.1 0.1-0.2 0.1-0.1 0.1-0.1 0.2 0 0.2 0 0.1-0.1 0.1-0.2 0.1-0.2 0.1-0.1 0.2 0 0.1 0 0.1-0.1 0.1-0.1 0.2 0 0.3 0.1 0.2 0 0.1 0 0.2 0.2 0.3-0.3 0.3-0.3 0.1-0.1 0.4-0.1 0.3-0.1 0-0.2 0.1-0.2-0.2-0.2-0.2-0.2-0.1-0.3-0.1-0.1-0.3-0.2-0.1 0-0.3-0.1-0.2-0.1 0.2-0.1 0.4 0 0.2 0 0.5 0 0.3 0 0.8 0.1 0.2 0 0.3 0 0.1 0 0-0.1 0.1 0 0.2 0.1 0.2 0 0.1-0.2 0.2-0.1 0.5 0.1 0.4 0.1 0.1-0.1 0.1 0 0.1 0.1 0.3 0.2 0.2 0 0.1 0 0.4 0 0 0.1 0.1 0.2 0 0.1 0.1 0.4 0.1 0.2 0.1 0.4 0.2 0.2 0.3 0.2 0.2 0.2 0 0.1 0.2 0.2 0.3 0.7 0.5 0.4 0.2 0.3 0.1 0.2 0.3 0.5 0.1 0.1 0 0.1 0.1 0.4-0.1 0.7 0 0.2 0.2 0.2 0.3 0.1 0.2 0.1 0.3 0.2 0.1 0.1 0 0.1 0.1 0.3 0.2 0 0.2 0.4 0.1 0.1 0.3 0 0.1 0.1 0.2 0.3 0.6 0.7 0 0.3 0.1 0.1 0.2 0.2 0.2 0.3 0.1 0.2 0 0.1 1 0.9 0.4 0.4 0.3 0.1 0.5 0.6 0.1 0.4 0.8 0.6 0.4 0.2 0.9 0.4 0.1 0 0.7 0.4 0.4 0.4 0.3 0.5 0.6 0.3 0.3 0.2 0.3 0.2 0.1 0 0.1 0.2 0.1 0.1 0.1 0.1 0.5 0.3 0.2 0.1 0.2 0.1 0.1 0.1 0.1 0 1.2 1 1.3 1.1 1.2 1.1 0.7 0.4 0.4 0.5 0.4 0.3 1.1 1 0.2 0.1 0.4 0.3 0.3 0.1 0.4 0.3 0.1 0.4 0.2 0.1 0.1 0 0.2 0.1 0.1 0.2 0 0.3 0.1 0.1 0.2 0.2 0.1 0.2 0 0.2 0 0.2 0.1 0.2 0.2 0.3 0.2 0.2 0.1 0.1 0.1 0.3 0.1 0.1 0.1 0.1 0 0.2 0.1 0.2 0.1 0.2 0.5 0.8 0.2 0 0.2 0.1 0.4 0.2 0.2 0.1 0.3 0.2 0.5 0.4 0 0.3 0.1 0.2 0.1 0.1 0 0.1 0.2 0.1 0.1 0.2 0 0.3 0.1 0.1 0.2 0.2 0.4 0.3 0.1-0.1 0-0.1 0.1-0.1 0.1-0.2 0-0.2 0.1-0.1 0.2-0.1 0.1 0 0-0.1 0-0.2 0.1 0 0.2-0.1 0.1 0-0.1-0.4 0-0.2 0.1-0.2 0.1-0.4 0.1-0.4 0.1-0.4 0.1-0.7-0.1-0.4 0.2-0.4 0.3-0.4 0.2-0.2 0-0.1 0.3-0.3 0.1 0 0.4-0.1 0.3-0.1 0.2-0.1 0-0.1 0-0.1 0.2-0.7 0.2-0.4 0.2-0.5 0.1 0 0-0.1-0.1-0.5-0.1 0-0.2-0.5 0-0.3 0.2-0.4 0.2-0.4 0.3-0.2 0.4-0.2 0.3-0.3 0.1-0.4 0.2-0.2 0.4-0.1 0.2 0 0.2 0.2 0.3 0.1 0-0.2 0.1-0.3 0-0.2 0.1-0.2 0.2-0.2 0.2-0.3 0.5-0.3 0.1-0.1 0.2-0.1 0.2 0 0.2 0 0.2 0.2 0.2-0.1 0.2 0 0.3-0.3 0-0.2 0.1-0.3 0-0.2 0.3-0.5 0.2-0.3 0.1-0.1 0.1-0.1 0-0.1-0.2-0.5-0.1-0.2-0.2-1.1 0-0.1 0-0.3-0.1-0.2-0.1-0.7 0.1-0.1 0-0.3 0.1-0.2 0.3-0.3 0.4 0 0.5-0.1 0.3 0.3 0.2 0 0.3-0.1 0.3 0.2 0.4 0.2 0.3 0.1 0.1 0 0.2 0.1 0.2 0.1 0.3 0.3 1 0.2 0.2 0 0.3 0 0.3-0.2 0.5 0 0.4 0 0.4-0.1 0.3-0.1 0.4-0.1 0.2 0 0.8-0.1 0.4-0.2 1-0.1 0.8-0.1 1.3-0.2 0.4 0.1 0.3-0.1 1.3 0 0.6 0.1 2.3 0 0.6 0.1 0.7-0.1 0.6 0.1 0.1 0.1 0.6 0.2 1.3 0 0.4-0.1 0.2 0 0.5-0.4 1.1-0.6 1.4-0.8 1.3-0.7 0.7 0.5 0.6 0.3 0.4 0 1.4 0.3 3.1-0.6 0.7 0.1 2.1 0.8 1.1 0.2 0.9-0.2 0.9 0 1.2 0.5 0.9 0.4 0.4-0.5 0.8 0 0.6 0.3 1 1 0.6-0.1 0.6 0 1.6-0.9 0.6 0.3 0.6 0 4.1-0.3 0.2 0 2.1-0.1 0.8 0.2 0.7 0.3 0.7 0.3 0.5 0.1 0.3 0 0.2 0.1 0.2 0 0.2 0 0.3 0 0.4 0 0.5-0.1 7.5-0.3 1.9 0 1-0.1 0.9 0 2.7-0.2 0.9 0 0.4 0-0.1-0.2-1.2-4.9-0.6-2.4-0.1-0.3-0.5-1.7 0.1-0.2 0.1 0 4.3-3.8 1.4-1.2 0.5-0.5 1.2 0.6-0.2 1.1-0.2 1-0.2 1.3-0.4 1.8-0.3 1.9-0.2 2.5 0.1 0.5 0.2 0.8 0.1 0.1 1.9 0 1.6 0 1.5 0 3.1 0 2.5 0z" id="ML01" name="Kayes">
  </path>
  <path d="M221.7 777.1l3.4-2.7 1.7-1.4 2.3-1.5 0.5 0.6 0.1-0.2 0.2-0.8 0.9-1.8 0.2-0.9 0.1-0.9 0.1-0.2 0.7-0.4 0.4-0.1 0.4 0.1 0.3 0 0.2 0.1 0.5 0.2 0.4 0.1 0.2 0.2 0 0.4 0.1 0 0 0.1 0.3 0 0.4-0.1 0.7 0.1 0.1-0.2 0.2-0.4 0.2-0.1 0.3-0.3 0.3-0.1 0.2-0.2 0.9-1.1 0.1-0.4 0.5-0.3-0.1-0.8 0.1-0.1 1.5-1.2 0.2 0 0.9-0.4 0.3-0.9 0.4-0.6 0.5-0.2 0.3-0.9 0.8-0.1 0.3-0.6 0.3 0 1.1-1.1 0.2-0.2 0.2-0.2-0.2-0.3 0-0.2 0.3-0.2 0-0.3 0.2-0.1-0.4-0.3 0.1-0.5-0.2-0.2-0.1 0-0.1-0.3-0.4-0.1-0.2 0.1-0.2-0.3-0.1-0.7-0.3-0.2-0.4-0.5 0.2-0.4-0.4-0.1-0.4-0.4 0.2-0.3 0.4-0.3 0-0.3 0.5 0 0.6-0.4 0.3 0-0.1-0.5 0-0.3-0.3-0.1-0.2-0.1-0.1-0.1-0.2-0.3 0.2-0.6 0.1-0.4 0.4 0 0.3-0.3 0.2-0.2 0.4 0.3 0.2 0 0.7-0.8-0.1-0.6-0.1-0.6 0.3-0.6 0.4-0.2 0.2-0.3-0.2-0.2-0.1-0.2 0-0.1 0.3-0.5 0.1-0.2-0.3-0.5-0.1-0.4 0.4-0.4 0.2-0.6-0.3-0.2-0.4-1.5-0.2-0.6-0.3-0.1 0.1-0.4-0.2-0.2 0-0.4 0.2-0.1 0.2 0-0.1-0.4 0-0.4 0.2-0.3 0.3 0 0.5 0.1 0-0.5 0.2-0.2 0-0.3-0.3-0.3 0-0.4-0.5-0.5 0.3-0.3 0.1-0.7 0.2-0.5-0.1-0.6 0-0.3 0.3-0.4 0.2-0.6-0.1-0.3 0.4-0.1 0.2-0.1 0.2-0.2-0.1-0.4 0.2 0 0.3-0.3 0.5-0.2 0.2-0.1 0.1-0.3-0.4-0.1 0-0.4 0.5-0.3 0.3-0.1 0.1-0.3 0.1-0.5-0.4 0.1-0.2-0.2-0.2-0.3-0.2-0.4 0.3-0.3 0.4-0.1 0.3-0.4 0.3-0.1-0.1-0.5 0.2-0.4-0.2-0.3-0.1-0.1-0.1-0.1 0.2-0.2 0.7 0.2 0.2 0.1 0-0.4-0.1-0.2 0-0.6-0.3-0.3-0.3 0 0.1-0.4 0.4-0.2 0.4-0.6 0.3-0.3 0.2 0.1 0.2-0.3 0.4-0.2 0.2 0.4 1.2-0.4 0.1-0.6-0.4-0.3-0.2 0.3 0-0.6 0-0.6 0.5-0.3-0.2-0.3-0.6-0.5 0.2-0.5-0.1-0.8-0.5-0.2 0.3-0.7-0.3-0.2-0.2-0.1-0.1-0.2-0.8-0.3-0.2-0.2-0.4-0.3-0.4-0.5 0.1-0.5-0.3-0.8-0.5-0.2-1.6-1.2-0.2-0.3-0.1-0.2 0.6-0.1 0.4 0 0-0.4-0.3-0.6-0.3-0.9 0.1 0 0-0.2 0-0.7-0.3-0.4-0.1-1.3 0.2-0.6-0.1-0.5 0.3-0.9 0.3-0.4-0.1-0.6 0.4 0.1 0.4-0.4 0.1-0.6 0.2-0.3 0.2-0.3 0.3 0.1 0.3-0.1 0.3-0.3-0.1-0.2 0.3 0 0.4 0.1 0.2-0.3-0.1-1-0.3-0.3 0-0.4 0.1-0.2 0.2-0.3 0.5 0.1 0.3-0.3-0.2-0.4 0.1-0.2 0.3-0.3 0.5 0.2 0.3-0.1-0.2-0.4 0.1-0.4 0.5 0.1 0.3-0.7-0.2-0.5-0.2-0.8-0.2-0.6 0.2-0.1 0.5 0 0.1 0.1 0.4 0.1 0-0.1 0.2-0.3-0.3-0.5-0.5-0.4-0.4-0.1-0.2-0.2 0.1-0.4 0.3-0.7-0.2-0.1-0.4-0.8-0.3-0.2-0.3-0.3 0-0.4-0.1-0.5-0.2-0.3-0.3 0-0.1 0-0.2 0-1 0.6-0.2-0.2-0.1-0.1-0.6-0.5-0.4-0.2-0.6 0.3-0.6-0.1-0.4 0.3-0.3 0.8-0.4 0.3-0.6 0.1-0.3 0.2 0.3 0.2 0.6 0.4 0 0.3 0.2 0.3-0.3 0.8-0.5 0.2-0.6 0.3-0.2 0.2-0.1 1 0.1 0 0.6-0.1 0.4-0.2 0.2-0.1 0.3 0.2 0 0.2-0.7 0.4 0 0.3-0.5 0.4-0.4 0.4-0.7 0-0.3 0.1-0.6 0.2-0.1-0.1-0.2-0.4-0.6-0.4-0.3-0.3-0.3-0.3-0.1 0-0.2 0 0 0.2-0.2 0.2-0.5 0.3-0.7 0.2-0.1 0-0.4-0.2-0.3 0.1 0-0.3-0.3 0-0.1 0-0.1-0.9-0.1-0.1-0.1-0.3-0.3-0.1-0.7 0.1-0.1-0.1-0.2-0.3 0.2-0.3-0.1-0.5-0.3-0.3-0.4-0.1 0.1-0.3 0.4-0.5 0.1-0.2-0.2-0.1-0.2 0-0.1 0-0.1 0.1 0.1 0.3-0.3 0.2-0.3 0.3-0.7 0.1-0.2-0.1-0.2-0.1 0.3-0.3-0.2-0.4-0.3-0.1-0.2-0.4 0-0.6-0.3-0.2-0.2 0.2-0.1 0.1-0.4-0.2-0.6-0.3-0.4-0.3-0.1-1-0.2 0.1-0.4-0.2-0.3 0.1 0.1 0.1 0.1 0.3-0.3-0.2-0.1 0-0.2 0-0.4-0.7-0.2-0.1 0.1-0.7-0.2-0.2-0.1-0.3 0-0.1 0-0.1 0.4 0 0.2 0.1 0.3-0.2 0.7-0.8-0.6-0.5 0-0.2 0.1-0.1 0-0.1 0.2 0 0.3 0 0.2-0.1 0.4-0.4 0-0.1 0.1 0 0.3 0.1 0.1-0.2 0-0.1-0.4-1.1 0-0.5 0-0.8-0.1-0.3-0.3-0.6 0.2-0.3 0.1-0.1 0.2-0.1 1.1 0.2 0.5 0.1 0.6 0.4 0.3 0.4 0.1 0 0.2 0 0.1-0.1 0.3-0.3 0.4-0.1 0.3-0.1-0.2-0.3-0.1-1.1-0.1-0.3-0.3-0.7 0.3-1.1 0-0.2 0-0.6-0.1-0.5 0.1-0.6-0.1-0.2-0.7 0-0.6-0.6 0.1-0.6-0.3-0.5-0.6-0.5 0.1-0.4 0.1-0.8-0.3-0.2-0.5 0-0.5 0-0.2-0.1-0.1-0.1 0.2-0.3 0.1-0.1 0-0.1 0.6-0.4 0.3-0.3 4.2 0.3 1.8-0.9 2.2-0.6 1.8-2.6 1.5-2.4 1.1-0.7 1.1 0.7 1.2 1.2 1.6 3.1 1.5 1.4 1.6 0.2 2.5-0.5 4-0.5 3 0.6 2.4-0.4 3.6-0.5 1.7-1.1-0.2-1-0.7-0.9-0.7-3.5 0.4-1.3 0.2-1.7-0.8-0.9-4-1-3.5-3.4-3.4-2.5-6-3.2-0.8-3 0.3-3.2 0.3-5-1-3.7-0.8-1.2-3.5-0.8-5.9-0.3-2.6-1.5-3.5-7.7-0.4-4.5-0.5-1.3-1.5-1.7-1-1.1-7.7-3.9-1.6-1.9-2.4-1.8-0.6-0.5-2.7-2.2-0.7-1.3 0-0.1-0.1-0.1 1 0 1 0 3.2 0 2.3 0-0.1 0.1-0.1 0 5.1 0 3.8 0 4 0 4.5 0 4.7 0 7.3 0 7.9 0 8.4 0 8.7 0 9 0 9.2 0 9.4 0 9.5 0 9.4 0 9.4 0 9.2 0 9 0 8.7 0 8.4 0 2.4 0 0.6 0 0 0.1-1.5 6.9-3.8 11.9-1.6 2.9-5.2 6.8-0.9 3.1 3.3 5.6 2.7 3.7 1.9 6.8 1.2 3.4-0.1 3.7-1.4 2-1.2 2.1-1.6 1.1-6.8-2-2 0.6-1.1 2.7-4.3 5.7-2 3.3-8.2 15.2-1.9 9.8 1.9 4.3 3.3 3.3-1.2 3.6 4.8 5.8 0.6 1.7 0.3 1.5-1.6 1.8-1.9 2-0.8 2.9-0.1 0.1-0.3 0-0.1 0-0.7-0.2-0.5-0.1-0.5-0.3-0.7 0-0.8 0.3-1.2 0.5-0.1 0.1-0.3 0.1-0.9 0.8-0.4 0.1-0.4 0.4-0.2 0-0.3 0.4-0.5 0.7-0.3 0.9-0.2 0.3-0.5 0.8-0.2 0.2-0.5 0.4-0.2 0.1-0.5 0.6-0.4 0.2-0.5 0-0.2 0-0.3 0.2 0.7 1.3 0.5 1.8 0.5 1.9-1.6 3.2-1.1 2.1-0.7 2.1 0.8 0.9 1.7 2-0.2 1.4 0.2 3.1 0.4 0 2.8 0.6 3.6 1.5 1.1 0.5 0.3 2.3 1.1-1 0.9-0.6 0.6 0.5 1.8-0.4 0.9 2.1 5.2-0.7 4-0.5 3.2 0.2 3.6 6.2 0.1 0 0.3-0.6 0.2-0.3 0-0.1 0.2-0.4 0.5-0.3 0.6-0.2 0.5-0.1 0.2 0.1 0.5 0.5 0.5 0.1 0.5 0 0.3-0.2 0 0.1 0.1 0.1 0.1 0.2 0.1 0.4 0.1-0.1 0.1 0 0.2 0.2-0.2 0.2-0.2 0.3 0.2 0.5-0.4 0.9 0.2 0.4 0.8 1.2 0.4 0.6 0 1 0 0.3 0.1 0.3 0.3 0 0.2-0.2 0.1 0.1 0 0.3-0.1 0.2-0.1 0.3 0.1 0.1 0.2 0.1 0.6 0 0.3 0.1 0.5 0.5 0.4 0.8 0.6-0.4 0.4-0.3 0.8 0 0.3-0.4 0.7 0.1 0.6 0.3 0.3 0.2 0.1 0.6 0.6 0.2 0.5 0.4 0 0.1 0.1 0.7 0.5 0.2 0.2 0.5-0.3 0.5 0.1 0.6-0.3 0.5-0.3-0.1-0.4-0.2-0.3-0.3-0.2 0.2 0.1 0.2 0.4 0.8-0.1 0.4-0.1 0.2 0.1 0.2 0.1 0.1 0.2 0 0.8 1.1 0.7 0.7 0 0.4-0.1 0.4-0.5 0.1-0.8 0-0.3 0.2 0.1 0.7-0.2 0.5 0.5-0.2 0.4 0.1 0.5-0.3 0.4-0.1 0.4 0.1 0.5-0.1 1 0 0.7 0.3 1 0 0.6 0.5 0.4 0.3 0 0.7 0.4 0.3 0.2 0.6 0.7 0.8-0.1 0.4 0 0.1 0.2 0.6-0.1 0.4 0.2 0.3 0.3 0.2 0.4-0.2 0.5 0.1 0.5 0.2 0.5 0.2 0 0.4 0.3 0.3 0.2 0 0.2 0 0.2-0.3 0.1-0.2 0.1-0.2 0.2 0 0.2 0.3 0.3 0.2 0.2 0.1 0.3-0.1 0-0.2 0-0.4 0-0.1-0.1-0.5 0.5-0.5 0.4-0.1 0.6-0.3 0.5 0.1 0.2 0.4 0 0.3 0 0.1 0.5-0.1 0.4-0.1-0.1 0.7 0.3 0.8 0.2 0.5-0.5-0.1-0.3 0.1 0 0.2 0.1 0.3 0.4 0.2-0.1 0.4-0.3 0.5 0.2 0.3 0.6 0.9 0.4 0.1 0.5-0.1-0.3 4-3.4 0.1-3.5 0.6-2.2-0.3-1.3 1.6 0.3 2.6-0.9 0.7-1.6 0-2.2-2.3-3.5 0.1-1.7 1.2-0.3 0.6-0.1 0-0.1 0.1 0 0.1-0.8 0.7-0.8 1-0.3 0.4-0.2 0.6 0.1 0.5 0.5 0.9-0.1 0.7 0.4 0.8 0.1 0.4-0.1 0.4 0.1 0.5 0.4 0.5-0.2 0.8-0.7 0.6 0 0.1-0.2 0.3-0.3 0.3-0.1 0.6-0.4 0.4-0.3 0.6-0.2 0.3-0.2 0.5-0.5 0.5-0.2 0.2-0.1 0.5 0 0.3-0.6 0.8-0.4 0.7-0.1 0.7-0.3 1.1-0.3 0.1-1.2 1.1-0.8 1.8-0.1 0.4-0.1 0.3 0.1 0.4 0.1 0.1 0.1 0.3-0.2 0.6 0 0.7-0.1 0.4-0.8 1.2-1 0.1-0.3 0.2-0.6 0-0.7 0-0.3-0.4-0.1-0.4 0.2-0.5 0.2-0.4 0.3-0.2 0-0.3-0.2-0.2-0.2-0.4-0.5-0.3 0.3-0.8-0.1-0.5 0.1-0.3 0.2-0.2 0.1-0.3-0.1-0.4-0.9-0.7-0.7-0.2-0.6-0.3-0.4 0-0.6-0.3-0.4 0-0.6-0.1-0.1-0.1-0.1-0.1-0.2-0.1-0.1-0.1-0.6-0.2-0.3 0.1-0.2 0.1-0.1-0.2-0.1-0.3-0.1-0.2-0.1-0.1-0.2 0-0.1 0.1-0.1 0.1-0.1-0.1-0.4-0.1-0.1 0-0.2-0.1-0.4 0-0.2 0.1-0.9 1-0.6-0.6-0.4-0.4-6.2-2-1.7-2-1.4-0.6-2.8 0.6-0.1-5.3-1.2-1.2-2.4 0.6-4.7 0.1 0.1-0.1 0-0.1-0.2-0.2-0.2 0-0.3-0.1-0.1-0.3 0.1-0.3 0.4-0.4 0.3-0.3 0.3-0.5 0.1-0.6 0-0.2-0.4 0-0.4-0.2-0.6-1-0.3 0-0.4 0.3-0.5 0.2-0.5-0.1-0.3-0.1-0.4-0.4-0.2-0.9 0.1-0.4 0.5-0.2 0.1-0.3 0.6 0.1 0.8 0 0.4-0.2 0.3-0.2 0.6-0.5 0.2-0.2 0.4-0.7 0.1-0.4-0.3-0.5-0.4-0.2-0.3 0-0.3 0-0.9 0.6-0.2-0.1-0.2-0.3-0.2-0.5 0.1-0.3 0.2-0.3 0.2-0.2 0.2 0.3 0.6-0.1 0.5-0.2 0.3-0.7 0.7-0.6 0.7-0.1 0.3-0.3 0-1-0.3-0.5-0.6-0.5-0.2-0.1-0.7 0-0.4 0.1-0.1-0.1-0.4-0.4 0-0.3 0.2-0.3 0.9-1.2 0.3-0.3 0.4-1.1-0.1-0.4-0.5-0.4-0.5 0.1-0.5-0.2-0.6-0.7-0.3-0.8 0.3-0.5 0.2-0.1 0.2-0.5-0.2-0.3-0.1-0.2 0-0.2-0.2-0.7-0.7-0.6-0.1 0 0-0.1 0-0.5 0-0.3 0.6-0.6 0.3-0.7 0-0.7 0.3-0.5-0.3-0.6 0-0.1 0.2-0.4-0.2 0.1-0.3 0.1-0.2 0.4 0 0.5-0.6 0.7-0.5 0.2-0.2-0.1-0.1-0.1-0.1 0-0.2 0.1-0.2 0.7-0.5 0.2-0.2 0.3 0 0.5-0.3 0.1-0.1 0.5 0.2 0.3-0.4 0.2 0 0.6-0.3 0.1-0.6 0.2-0.6-0.2-0.9 0-0.1 0.2-0.4 0.3-0.3 0.3-0.4-0.1 0 0.3 0.2 0.4-0.1 0.1-0.8-0.1-0.2 0.2-0.1 0.3 0 0.3-0.3 0.1-0.2 0.8-0.4 0.6 0 0.2 0 0.1 0.1 0.2 0.2 0.3-0.2 0.3-0.1 0.1-0.2 0.2 0.1 0.3 0 0.2-0.3 0-0.2-0.2-0.1-0.1-0.1 0-0.1 0.1-0.4 0.5-0.1 0.1 0 0.2 0 0.3-0.1 0.4-0.1 0.3-0.3-0.2-0.3-0.2-0.3 0.4-0.6 0.1-0.3 0.1 0 0.3-0.3 0.1-0.5 0.2 0.2 0.3-0.1 0.2-1-0.3-0.8 0.3 0 0.3-0.1 0.1-0.2-0.2-0.1-0.1-0.1-0.1-0.1 0 0 0.3-0.4 0.3-0.5-0.1-0.2 0.1 0.1 0.2 0.3 0.1 0.1 0.2-0.2 0.2-0.5 0.3-0.3-0.1-0.2-0.2-0.3 0.2-0.1 0.1-0.2 0 0-0.2-0.1 0 0-0.1-0.2 0.3 0 0.3 0 0.2-0.2 0.2-0.5 0.1-0.1 0-0.1-0.1-0.2 0-0.1 0.1-0.2 0.1 0 0.1-0.1 0.5-0.2 0.3-0.1 0.1-0.1-0.1-0.1 0-0.3-0.1 0 0.2-0.1 0.1-0.2 0.6-0.2 0-0.1 0.4-0.3 0.2 0 0.2 0.4 0.1-0.1 0.3-0.3 0.1 0.2 0.3 0 0.1-0.2 0.2 0.1 0.4-0.2 0.2-0.3 0-0.1 0.3 0.1 0.2 0.2 0 0.2-0.1 0.1 0.1 0 0.2-0.2 0.3 0.1 0.3-0.1 0.1-0.2 0.3 0.2 0.6 0 0.1 0 0.3 0 0.2 0 0.2-0.3 0.1-0.2 0.1 0.1 0.3-0.1 0.1-0.3 0.1 0 0.4-0.7 0.3 0 0.5-0.4 0.1-0.4 0.2-0.2 0-0.3-0.1-0.1 0.2 0 0.3-0.1 0-0.2 0-0.3 0.1-0.3 0.1-0.3 0.3 0.4 0-0.1 0.5-0.2 0.1-0.1 0.1-0.2-0.1-0.3 0.4-0.2 0-0.1 0.4-0.3 0.2-0.1-0.1-0.1-0.2-0.3 0.4-0.4 0-0.4-0.2-0.3-0.2-0.4 0-0.2 0-0.2 0.1-0.2-0.1-0.6-0.1-0.1 0.1-0.1-0.2-0.7 0-0.2 0.3-0.2 0.2-0.4 0.7-0.7 0.6-0.4 0.4-0.7 0.2-0.5 0.4-0.5 0-5.9 3.6-2.4 1.8-1.8 1.4-1.7 0.1-0.2 0.7-3.5 3.7-2.3 0.8-0.7 0.3-0.8 0.1-1 0-0.7 0-0.7 0-0.8 0-0.7 0-1.4-1.3-0.4-0.2-0.4-0.1-0.6 0.5-0.1 0.3 0 0.3-0.8 0.4-5 1.8-3.5-0.1-3.3 1-0.2 0.2 0.3 0 0.2 0 0.3 0.4 0.1 0.2 0.1 0.3 0 0.1-0.4-0.1-0.6 0.7-0.4 0.2-0.3 0.1-0.1 0.2 0 0.5 0 0.1-0.2 0-0.1-0.4-0.2-0.1-0.5-0.1-0.1 0-0.3 0.1-0.1 0.1 0 0.4-0.4 0.1-0.3 0.4 0.6 0.2 0 0.1-0.3 0.1-0.3 0.3 0 0.4-0.3 0-0.1 0.1 0.1 0.2 0.3 0 0.1 0.1-0.1 0.3 0.1 0.4 0.2 0.2-0.1 0.2-0.3-0.2-0.2 0.2 0.4 0.4 0 0.2-0.1 0-0.1 0.4-0.5 0 0.1 0.3 0.4 0.3 0 0.4-0.3 0.4-0.5-0.1 0 0.1 0 0.3-0.1 0.4-0.1 0 0 0.1-0.2 0-0.1 0 0 0.1-0.1 0-0.1-0.1-0.1 0-0.2 0.1 0 0.1-0.1 0.1-0.2 0-0.1-0.2-0.1 0.1 0 0.2-0.1 0.3-0.1 0.1-0.1 0.1-0.1 0-0.1 0.1-0.2-0.1-0.1 0 0-0.1-0.1 0-0.1-0.1-0.2-0.1-0.1 0-0.3-0.1-0.2-0.1-0.4-0.1-0.4 0-0.5-0.1-0.1-0.1 0-0.3-0.1-0.2 0-0.1-0.3-0.3-0.2-0.3-0.2-0.1-0.4-0.2-0.1-0.3-0.3-0.3-0.2-0.2-0.3-0.3-0.1-0.1 0.2-0.2 0.1-0.1-0.1-0.1-0.2-0.1-0.2-0.3 0.5-0.4 0.4-0.1 0.1-0.1 0.1 0-0.2-0.2-0.2-0.2-0.2-0.2-0.3-0.1-0.2-0.2 0-0.2 0.1-0.2 0.1-0.2-0.1-0.2-0.2-0.2-0.1-0.1-0.4-0.2-0.4-0.3-0.1-0.3-0.3-0.6-0.2-0.2-0.2-0.6 0.1-0.3 0.1-0.3-0.2-0.2-0.2-0.2-0.3-0.2-0.5 0.4-0.3 0.3-1.1 0.7-0.5 0.6-0.2-0.1-0.1-0.2-0.1-0.1 0.1-0.2 0.2-0.2-0.1-0.1-0.1 0-0.1 0-0.2-0.1-0.1-0.2-0.1-0.1-0.2 0.1-0.1 0.1-0.2 0.2-0.2 0-0.3-0.2-0.3 0-0.4-0.1-0.4-0.3-0.3-0.2-0.1-0.1-0.4-0.1-0.1-0.1-0.2-0.3-0.1 0.1-0.3 0-0.2 0-0.2-0.2-0.2 0-0.4 0-0.3-0.1 0-0.1 0-0.4 1.4-7.1-0.4-0.4-0.1-0.2 0.1-0.3 0.2-0.1 0.1-0.2 0-0.3 0.2-0.3 0.3-0.4 0.1-0.1 0.1 0 0.5-0.8 0.3-0.5 0.2-0.3 0.2-0.3 0-0.2 0-0.2-0.1-0.3-0.1-0.3 0.1-0.5 0.2-1 0.2-1 0.1-0.9 0-0.3 0-0.4 0.1-0.3 0.2-0.4 0.2-0.4 0-0.2-0.1-0.1-0.1-0.1-0.2-0.1 0-0.2-0.2-0.1-0.2 0-0.2-0.3-0.1-0.2 0.1-0.2-0.3-0.1-0.3-0.1-0.2-0.1 0.1-0.2 0.1-0.3-0.2-0.1-0.2-0.1 0-0.1-0.2 0-0.1-0.1-0.2-0.3-0.3-0.2 0-0.1-0.2-0.2 0-0.1 0.2-0.2-0.1-0.3-0.1 0.2-0.1 0.1-0.1 0.1-0.1 0.1-0.3 0.1-0.1 0.1-0.1-0.2 0-0.1 0-0.1 0-0.1-0.1 0-0.2 0 0-0.1-0.1 0 0 0.2 0 0.1-0.1 0.2-0.3 0.1-0.2 0.1-0.1 0.4-0.1 0.1-0.2-0.2 0.1-0.1 0-0.2-0.1 0.1-0.1 0.1-0.1 0-0.1-0.2 0-0.2-0.2-0.1-0.1 0-0.1-0.2-0.1 0.1-0.1 0-0.1-0.2-0.2 0.1-0.3-0.1-0.1-0.1-0.1 0-0.2 0.1-0.2 0-0.1 0 0-0.1-0.1-0.2 0-0.2 0.1-0.2 0-0.2-0.1 0-0.2 0 0-0.2 0-0.1 0.2-0.1 0-0.2-0.1-0.2-0.1-0.2 0.1-0.2 0.1-0.3 0-0.2-0.1-0.3 0.1-0.2 0-0.1 0-0.2 0.1-0.1 0.2 0.1 0.2 0.1 0.2-0.2 0-0.1 0-0.2-0.1-0.1 0.1-0.1 0.1-0.2 0.1-0.1 0-0.2-0.1-0.2-0.1-0.2 0.1-0.1 0.1-0.1-0.1-0.1-0.1-0.2 0.1-0.2 0.2 0 0.2-0.1 0-0.2 0.1-0.1 0.1-0.1 0-0.1-0.1-0.1 0-0.1 0-0.1-0.1 0-0.1 0-0.1 0 0-0.2-0.1-0.1-0.2 0 0-0.3 0.1-0.1 0.1-0.1 0-0.1-0.3 0-0.2-0.1-0.2-0.4 0.1-0.2 0.1-0.2-0.2 0-0.2 0.1-0.3-0.2-0.2-0.3 0.1-0.3-0.1 0.2-0.1 0-0.1 0.1-0.1 0 0 0.1-0.1-0.1-0.1 0 0 0.2 0 0.2-0.2 0-0.2 0-0.2 0-0.1 0.1-0.2 0 0-0.1-0.1-0.2-0.1 0.1-0.1 0.1-0.1 0.1-0.2-0.1-0.1 0-0.2 0 0 0.1-0.1 0-0.1 0.1-0.2 0-0.1-0.1-0.1-0.1 0-0.2 0-0.2 0.1-0.2-0.1-0.1-0.2 0-0.1-0.1 0-0.1 0.2-0.2 0-0.1-0.2-0.1-0.1 0 0-0.1 0-0.1 0-0.2-0.1-0.2-0.1 0-0.1 0.2-0.1 0-0.1 0.1-0.1 0.1-0.2-0.1 0-0.3 0.1-0.1 0-0.2 0.2-0.3-0.1-0.2 0.3-0.7 0.3-0.5 0.7-1.1 0.5-0.8 0.2-0.5 0.1-0.3 0.3-0.2 0.3-0.3 0.2-0.2 0.2-0.3-0.1-0.2-1-1.6-0.1-0.1-0.4 0-0.2-0.1-0.3-0.3-0.3-0.3-0.6-0.5-0.3-0.3-0.1-0.3-0.1 0-0.2 0-0.1-0.2-0.2 0.1 0-0.2 0-0.1 0.1-0.1 0-0.2 0.1-0.2-0.2-0.1-0.2-0.3-0.1-0.3-0.2-0.2-0.4-0.2-0.4 0-0.1-0.1-0.3-0.1-0.4-0.1 0-0.1z m58.9-14.6l-0.3 0.3-0.2 0-0.2 0-0.3 0-0.2 0-0.2 0-0.1 0-0.1 0-0.7 0.2 0.1 0 0 0.1-0.1 0 0 0.1 0.1-0.1 0.1 0.1 0 0.1 0 0.1 0 0.1 0 0.1-0.1 0.1 0 0.1-0.1 0-0.1 0 0 0.1-0.1 0.1-0.1 0 0-0.1-0.1 0-0.1 0-0.1 0-0.1 0-0.1 0-0.1-0.1-0.1-0.1 0-0.1-0.1 0 0-0.2 0-0.1-0.1-0.1-0.1-0.1 0-0.1 0-0.1-0.1-0.1-0.1 0-0.1 0.3-0.1 0.3-0.1 0.2-0.1 0.4-0.1 0.3-0.1 0.4-0.1 0.2 0 0.1-0.2 0.7 0 0.2 0 0.1-0.1 0.3-0.1 0-0.1 0.3-0.1 0.3-0.1 0.7 0 0.1-0.1 0-0.1 0-0.1 0 0-0.1-0.1 0-0.1 0 0 0.1-0.1 0 0 0.1 0 0.1 0 0.1 0 0.1 0.1 0 0 0.1-0.1 0.1 0.1 0.1-0.1 0 0.1 0.1 0.1 0 0.1 0.1 0 0.1 0 0.1-0.1 0.1 0 0.1-0.1 0.1 0 0.1 0 0.1 0 0.1 0.2 0 0.1 0 0.2 0 0.1 0.1 0.2-0.1 0.2 0 0.1-0.1 0.3-0.1 0.2 0 0.5 0-0.1-0.1 0-0.2 0-0.1-0.1-0.1 0-0.1-0.1-0.2 0-0.2 0.1-0.2 0-0.1 0-0.1 0.2-0.2 0.1 0 0.1 0 0.1 0 0.1 0 0.1 0.2 0 0.1 0.1 0 0 0.1 0.1 0 0.1 0.1 0 0.1 0.1 0 0.1 0.1 0.1 0.1 0.1 0 0.1 0.1 0 0.1 0.1 0 0.1 0 0 0.1 0.1 0 0.1 0 0.1 0 0.1 0.3 0.4 1.1 0.1 0.2 0.6 1.3 1.5 0.7 1.4 0.5 0.9-0.8-0.2-1.1-0.1-1 0-0.3-0.1-0.4 0-0.4-0.1-0.7 0.2-0.3 0.2-0.1 0-0.1 0.4-0.4 0-2.3 0-1.1 0-0.1 0-0.1 0-0.1 0-0.1-0.1 0 0-0.1 0-0.1 0.1 0 0-0.1 0-0.1-0.1-0.1 0-0.1-0.1 0-0.1 0-0.1 0 0-0.1-0.1 0-0.1 0-0.1 0-0.1 0-0.1 0-0.1 0 0-0.1-0.1 0 0-0.1-0.1 0 0-0.1-0.1-0.1 0-0.1 0.1 0-0.1-0.1-0.1-0.2 0-0.3-0.3-0.6-0.5 0.4-0.2 0.2-0.4 0.3-0.3 0.3-0.2 0.1-0.2 0.2z" id="ML02" name="Koulikoro">
  </path>
  <path d="M250 830.1l0-0.1 0.5 0.1 0.3-0.4 0-0.4-0.4-0.3-0.1-0.3 0.5 0 0.1-0.4 0.1 0 0-0.2-0.4-0.4 0.2-0.2 0.3 0.2 0.1-0.2-0.2-0.2-0.1-0.4 0.1-0.3-0.1-0.1-0.3 0-0.1-0.2 0.1-0.1 0.3 0 0-0.4 0.3-0.3 0.3-0.1 0-0.1-0.6-0.2 0.3-0.4 0.4-0.1 0-0.4 0.1-0.1 0.3-0.1 0.1 0 0.5 0.1 0.2 0.1 0.1 0.4 0.2 0 0-0.1 0-0.5 0.1-0.2 0.3-0.1 0.4-0.2 0.6-0.7 0.4 0.1 0-0.1-0.1-0.3-0.1-0.2-0.3-0.4-0.2 0-0.3 0 0.2-0.2 3.3-1 3.5 0.1 5-1.8 0.8-0.4 0-0.3 0.1-0.3 0.6-0.5 0.4 0.1 0.4 0.2 1.4 1.3 0.7 0 0.8 0 0.7 0 0.7 0 1 0 0.8-0.1 0.7-0.3 2.3-0.8 3.5-3.7 0.2-0.7 1.7-0.1 1.8-1.4 2.4-1.8 5.9-3.6 0.5 0 0.5-0.4 0.7-0.2 0.4-0.4 0.7-0.6 0.4-0.7 0.2-0.2 0.2-0.3 0.7 0 0.1 0.2 0.1-0.1 0.6 0.1 0.2 0.1 0.2-0.1 0.2 0 0.4 0 0.3 0.2 0.4 0.2 0.4 0 0.3-0.4 0.1 0.2 0.1 0.1 0.3-0.2 0.1-0.4 0.2 0 0.3-0.4 0.2 0.1 0.1-0.1 0.2-0.1 0.1-0.5-0.4 0 0.3-0.3 0.3-0.1 0.3-0.1 0.2 0 0.1 0 0-0.3 0.1-0.2 0.3 0.1 0.2 0 0.4-0.2 0.4-0.1 0-0.5 0.7-0.3 0-0.4 0.3-0.1 0.1-0.1-0.1-0.3 0.2-0.1 0.3-0.1 0-0.2 0-0.2 0-0.3 0-0.1-0.2-0.6 0.2-0.3 0.1-0.1-0.1-0.3 0.2-0.3 0-0.2-0.1-0.1-0.2 0.1-0.2 0-0.1-0.2 0.1-0.3 0.3 0 0.2-0.2-0.1-0.4 0.2-0.2 0-0.1-0.2-0.3 0.3-0.1 0.1-0.3-0.4-0.1 0-0.2 0.3-0.2 0.1-0.4 0.2 0 0.2-0.6 0.1-0.1 0-0.2 0.3 0.1 0.1 0 0.1 0.1 0.1-0.1 0.2-0.3 0.1-0.5 0-0.1 0.2-0.1 0.1-0.1 0.2 0 0.1 0.1 0.1 0 0.5-0.1 0.2-0.2 0-0.2 0-0.3 0.2-0.3 0 0.1 0.1 0 0 0.2 0.2 0 0.1-0.1 0.3-0.2 0.2 0.2 0.3 0.1 0.5-0.3 0.2-0.2-0.1-0.2-0.3-0.1-0.1-0.2 0.2-0.1 0.5 0.1 0.4-0.3 0-0.3 0.1 0 0.1 0.1 0.1 0.1 0.2 0.2 0.1-0.1 0-0.3 0.8-0.3 1 0.3 0.1-0.2-0.2-0.3 0.5-0.2 0.3-0.1 0-0.3 0.3-0.1 0.6-0.1 0.3-0.4 0.3 0.2 0.3 0.2 0.1-0.3 0.1-0.4 0-0.3 0-0.2 0.1-0.1 0.4-0.5 0.1-0.1 0.1 0 0.1 0.1 0.2 0.2 0.3 0 0-0.2-0.1-0.3 0.2-0.2 0.1-0.1 0.2-0.3-0.2-0.3-0.1-0.2 0-0.1 0-0.2 0.4-0.6 0.2-0.8 0.3-0.1 0-0.3 0.1-0.3 0.2-0.2 0.8 0.1 0.1-0.1-0.2-0.4 0-0.3 0.4 0.1 0.3-0.3 0.4-0.3 0.1-0.2 0.9 0 0.6 0.2 0.6-0.2 0.3-0.1 0-0.6 0.4-0.2-0.2-0.3 0.1-0.5 0.3-0.1 0-0.5 0.2-0.3 0.5-0.2 0.2-0.7 0.2-0.1 0.1 0 0.1 0.1 0.2 0.1 0.5-0.2 0.6-0.7 0-0.5 0.2-0.4 0.3-0.1 0.2-0.1-0.2 0.4 0 0.1 0.3 0.6-0.3 0.5 0 0.7-0.3 0.7-0.6 0.6 0 0.3 0 0.5 0 0.1 0.1 0 0.7 0.6 0.2 0.7 0 0.2 0.1 0.2 0.2 0.3-0.2 0.5-0.2 0.1-0.3 0.5 0.3 0.8 0.6 0.7 0.5 0.2 0.5-0.1 0.5 0.4 0.1 0.4-0.4 1.1-0.3 0.3-0.9 1.2-0.2 0.3 0 0.3 0.4 0.4 0.1 0.1 0.4-0.1 0.7 0 0.2 0.1 0.6 0.5 0.3 0.5 0 1-0.3 0.3-0.7 0.1-0.7 0.6-0.3 0.7-0.5 0.2-0.6 0.1-0.2-0.3-0.2 0.2-0.2 0.3-0.1 0.3 0.2 0.5 0.2 0.3 0.2 0.1 0.9-0.6 0.3 0 0.3 0 0.4 0.2 0.3 0.5-0.1 0.4-0.4 0.7-0.2 0.2-0.6 0.5-0.3 0.2-0.4 0.2-0.8 0-0.6-0.1-0.1 0.3-0.5 0.2-0.1 0.4 0.2 0.9 0.4 0.4 0.3 0.1 0.5 0.1 0.5-0.2 0.4-0.3 0.3 0 0.6 1 0.4 0.2 0.4 0 0 0.2-0.1 0.6-0.3 0.5-0.3 0.3-0.4 0.4-0.1 0.3 0.1 0.3 0.3 0.1 0.2 0 0.2 0.2 0 0.1-0.1 0.1 4.7-0.1 2.4-0.6 1.2 1.2 0.1 5.3 2.8-0.6 1.4 0.6 1.7 2 6.2 2 0.4 0.4 0.6 0.6 0.9-1 0.2-0.1 0.4 0 0.2 0.1 0.1 0 0.4 0.1 0.1 0.1 0.1-0.1 0.1-0.1 0.2 0 0.1 0.1 0.1 0.2 0.1 0.3 0.1 0.2 0.2-0.1 0.3-0.1 0.6 0.2 0.1 0.1 0.2 0.1 0.1 0.1 0.1 0.1 0.6 0.1 0.4 0 0.6 0.3 0.4 0 0.6 0.3 0.7 0.2 0.9 0.7 0.1 0.4-0.1 0.3-0.2 0.2-0.1 0.3 0.1 0.5-0.3 0.8 0.5 0.3 0.2 0.4 0.2 0.2 0 0.3-0.3 0.2-0.2 0.4-0.2 0.5 0.1 0.4 0.3 0.4 0.7 0 0.6 0 0.3-0.2 1-0.1 0.8-1.2 0.1-0.4 0-0.7 0.2-0.6-0.1-0.3-0.1-0.1-0.1-0.4 0.1-0.3 0.1-0.4 0.8-1.8 1.2-1.1 0.3-0.1 0.3-1.1 0.1-0.7 0.4-0.7 0.6-0.8 0-0.3 0.1-0.5 0.2-0.2 0.5-0.5 0.2-0.5 0.2-0.3 0.3-0.6 0.4-0.4 0.1-0.6 0.3-0.3 0.2-0.3 0-0.1 0.7-0.6 0.2-0.8-0.4-0.5-0.1-0.5 0.1-0.4-0.1-0.4-0.4-0.8 0.1-0.7-0.5-0.9-0.1-0.5 0.2-0.6 0.3-0.4 0.8-1 0.8-0.7 0-0.1 0.1-0.1 0.1 0 0.3-0.6 1.7-1.2 3.5-0.1 2.2 2.3 1.6 0 0.9-0.7-0.3-2.6 1.3-1.6 2.2 0.3 3.5-0.6 3.4-0.1 0.3-4-0.5 0.1-0.4-0.1-0.6-0.9-0.2-0.3 0.3-0.5 0.1-0.4-0.4-0.2-0.1-0.3 0-0.2 0.3-0.1 0.5 0.1-0.2-0.5-0.3-0.8 0.1-0.7-0.4 0.1-0.5 0.1 0-0.1 0-0.3-0.2-0.4-0.5-0.1-0.6 0.3-0.4 0.1-0.5 0.5 0.1 0.5 0 0.1 0 0.4 0 0.2-0.3 0.1-0.2-0.1-0.3-0.2-0.2-0.3-0.2 0-0.1 0.2-0.1 0.2-0.2 0.3-0.2 0-0.2 0-0.3-0.3 0-0.4-0.5-0.2-0.5-0.2-0.5-0.1-0.4 0.2-0.3-0.2-0.2-0.3 0.1-0.4-0.2-0.6 0-0.1 0.1-0.4-0.7-0.8-0.2-0.6-0.4-0.3 0-0.7-0.4-0.3-0.6-0.5-1 0-0.7-0.3-1 0-0.5 0.1-0.4-0.1-0.4 0.1-0.5 0.3-0.4-0.1-0.5 0.2 0.2-0.5-0.1-0.7 0.3-0.2 0.8 0 0.5-0.1 0.1-0.4 0-0.4-0.7-0.7-0.8-1.1-0.2 0-0.1-0.1-0.1-0.2 0.1-0.2 0.1-0.4-0.4-0.8-0.1-0.2 0.2-0.2 0.3 0.3 0.4 0.2 0.3 0.1 0.3-0.5-0.1-0.6 0.3-0.5-0.2-0.5-0.5-0.2-0.1-0.7 0-0.1 2.6-3 8.2-3.8 0.5-1.1 2.1-4.1 2.5-0.5 1.9 0.3 0.5 1.1 1.9 0.8 3.4 0.3 2.8-1.2 2-1.7 0.5-0.1 2.5-0.7 4.3-1.3 1.4 0.3 1.1 1.9 1.7 1.1 1 1.1 0.5 2.2 0.8 1.4 1.6 0 1.4 0.2 0.9 1.4 2.1 0.2 0 0.7 0.3 0 1-3.9 0.5-1.9-0.1-4.7-0.9-4.7 1.2-0.9 2.3 0.6 0.1 0 0 0.1 0.1 0.1 0.1 0 0.1 0.1 0 0.1 0.3 0.2 0.3 0.2 0.3 0.4 0 0.2 0.4 0.8 0.1 0.2 1.2 0.6 0.1 0.3 0.1 0.2 0.3 0.4 0.1 0.2 0.1 0.2 0.4 0.5 0.1 0.2 0 0.1 0.1 0.1 0.3 0.1 0 0.5 0.3 0.4 0.5 0 0.3 0.2 0.4 0.2 0.4 0.3 1 0.4 0.2 0.8 0.2 0.2 0.7 0.1 0.4 0.3 0.6 0.8 0.4 0.8 0.5 0.4 0.2 1 0 0.6 0 0.1 0.2 0.6 0 0.6-0.3 0.4 0.3 1.7 0.4 1.4 0 1.6 0.3 1 0.6 0.5 0.8-0.2 1-0.5 0.6-1.3-0.4-1.9 0-0.6 0.5-0.3 0.7 0 4.1-0.1 0.6 2.4 5.2-2.9 3.7-1.7 0.1-3-0.3-2.1 1.5-0.7 1-0.7 0.2-0.5 0.5-0.7 0.6 0.5 0.3 0.3 0.4 0.1 0.3 0 0.5-0.2 0.9 1.4 0.7 1.5 1.1 0.6 0.4 0.3 0.6 0.3 0.7 0.2 0.8-0.6 1.1-0.4 1.8 0.4 3.4 0.6 0 0.1 0.1 0.1 0.2 0 0 0.2 0.1 0.2-0.1 0.1 0 0.2 0 0.2 0.1 0.2 0 0.3 0 0.2-0.1 0.3-0.2 0.3 0 0.1-0.1 0.2-0.2 0.2 0.1 0.2 0 0.2-0.1 0.4 0.2 0.2 0.4 0.4 0.2 0 0.4 0.5 0 0.1 0 0.1 0.7 0.5 0.1 0 0.5 0 0.4 0.1 0.3 0.2 0.2 0.3 0.6 0.4 0.5 1.8 0 0.4 0 0.6 0.2 0.1 0.3 0.1 0.7 0.4 0.3 0.2 0.4 0.4 0 0.1 0 0.1-0.2 0.1-0.3 0.4-0.3 0.3-0.4 0.3-0.5 0.5-0.3 0.1-0.3 0.2-0.7 0.7-0.1 0.2-0.1 0.3-0.1 0.2 0.1 0.2 0 0.2 0.1 0.4-0.2 0.2-0.2 1-0.4 1.2-0.1 0.3 1.1 2.7 0.2 0.4 0.4 0.9 0.7 1.8-0.3 0.1-0.4 0.2-0.3 0.1-0.3-0.2-0.1-0.1-0.2 0 0-0.1-0.1 0 0-0.3-0.1-0.2-0.1-0.3-0.1 0-0.2-0.1-0.1-0.2-0.1-0.2-0.2 0-0.4 0-1 0.1-0.3 0 0 0.2-0.1 0.3 0 0.4 0 1 0.2 0.6 0.1 0.2-0.2 0.1-1.3 0.9-0.6 0.4-0.4 0.3-0.5 0.8-0.2 0.3-0.2 0.1-0.3 0.1-0.1 0.1-0.2 0.1-0.2 0.1-0.1 0.2-0.3 0.2-0.5 0.5-0.5 0.2-0.2 0.2-0.2 0.1 0 0.1 0 0.2 0.1 0.2 0.3 0.5 0.4 0.7 0.4 0.6 0.1 0 0.2 0 0.1 0 0.1 0.1 0.3 0.5 0.1 0.3-0.1 0.2-0.2 0-0.5 0.2-0.5-0.1-0.1 0-0.8 0.1-1.2-0.1-0.2 0.1-0.1 0.2-0.2 0.3-0.2 0.3-0.2 0.1-0.2 0.2-0.3 0.2 0 0.1-0.1 2.4 0 0.5 0 0.2-0.2-0.1-0.4 0-0.4-0.1-0.2 0-0.1 0-0.3-0.1-0.4 0-0.3-0.1-0.2 0-0.4 0-0.1 0.1-0.4 0-0.3 0-0.2 0.1-0.1 0.2-0.2 0.2 0 0.2-0.3 0.2-0.1 0.1 0 0.1 0 0.1 0 0.2-0.1 0.3-0.1 0.1-0.1 0-0.1 0-0.1 0.2 0 0.2 0 0.3-0.2 0.4-0.2 0.4-0.3 0.2-0.4 0-0.3-0.2-0.2 0-0.2 0-0.1 0-0.2 0-0.4 0-0.1-0.1-0.1 0-0.2-0.1-0.3 0-0.3 0.1-0.2 0.1 0-0.1 0-0.1 0-0.1-0.1-0.1-0.1 0.1-0.1 0.1-0.2 0.1-0.4-0.2-0.1 0 0-0.1-0.2 0-0.2 0.1-0.3 0.2-0.2-0.1 0-0.1-0.1 0-0.2-0.1 0-0.1 0-0.1 0-0.1-0.2 0-0.1 0.1-0.1 0.2-0.2-0.1-0.2-0.1-0.2-0.1-0.1 0.1 0 0.1-0.2 0.1-0.3 0.1-0.2 0.1-0.1 0.2-0.2 0.2-0.2 0-0.2 0-0.3 0-0.2-0.1-0.1 0-0.2 0-0.1 0-0.2 0.1-0.1-0.1-0.5 0-0.1 0-0.3 0.1-0.3 0-0.3 0-0.1-0.1-0.1 0-0.2-0.1-0.3 0.1-0.3 0-0.2 0-0.1 0.1-0.1 0.1-0.1 0.1-0.1-0.1-0.2 0.1-0.1 0.1-0.2 0-0.1 0-0.1 0-0.1 0.1-0.1 0.1-0.2 0-0.3-0.1-0.1 0.1-0.2 0.2 0 0.2-0.2 0.1-0.3-0.1 0-0.1-0.1-0.1-0.5 0.2-0.5 0-0.1 0.1-0.1 0.1-0.2-0.1-0.2-0.1-0.3 0.1-0.1 0-0.4 0-0.4 0.1-0.2 0-0.1 0.1-0.2 0.1-0.2 0.1-0.1-0.1-0.1 0-0.2 0-0.1-0.1-0.1-0.1-0.2 0-0.2 0-0.1 0.2-0.2 0.1 0 0.1-0.1 0.2-0.2 0-0.1 0.1-0.3 0-0.1 0.1 0 0.1-0.2 0.1-0.3-0.1-0.1 0-0.1 0.1-0.1 0.1-0.2 0-0.4 0.1-0.2 0.2-0.1 0.2-0.4 0.2-0.3 0.1-0.2 0-0.1-0.1-0.1 0-0.1 0 0 0.2-0.1 0.5-0.2 0.2-0.1 0-0.2 0-0.1-0.1-0.1 0.1-0.1 0.1-0.1 0.1-0.2 0.1-0.1 0.2 0 0.3-0.2 0.2-0.2 0.2 0 0.2-0.1 0.2-0.2 0.1-0.1-0.1 0 0.1 0.1 0.1 0 0.1-0.1 0.2-0.2-0.1-0.4 0.1-0.1 0.1-0.3 0.1-0.2 0.2 0 0.1 0 0.1-0.1 0.2-0.3 0.1 0 0.1 0 0.1-0.3 0.2-0.3 0.2-0.3 0.1-0.2-0.1-0.1 0.2-0.1 0.1-0.1 0-0.1 0.1 0 0.1 0 0.1-0.1 0.1 0 0.1 0 0.2 0.1 0.1 0 0.1-0.2 0.1 0 0.1 0.1 0.1 0 0.1-0.1 0.1-0.2 0.1-0.2-0.1-0.2 0 0 0.1-0.1 0.1-0.1 0.2-0.2-0.1-0.1-0.2-0.2-0.1 0 0.1-0.2 0-0.2-0.1-0.1-0.1 0-0.1 0-0.2 0.1-0.2-0.2-0.1-0.1 0-0.1 0-0.1 0-0.1 0.1-0.2 0-0.1 0.1-0.1 0 0 0.2-0.1 0.2-0.2 0.3-0.1 0.1-0.3-0.1-0.2-0.1-0.3 0-0.1-0.1-0.1-0.1-0.1 0-0.1 0-0.1 0.3-0.5 0.3-0.1 0.2-0.1 0.1-0.3 0.2-0.4 0.1-0.2 0-0.1-0.2-0.1-0.1 0-0.1-0.1-0.1-0.2 0.1-0.3 0.1-0.3-0.1-0.7-0.5-0.1 0-0.1 0-0.2 0.2-0.3 0.1-0.1 0.1 0 0.2 0.2 0.1 0.2 0.1 0.2 0 0.1 0.1 0.1 0 0 0.1 0.3-0.1 0.2 0 0.1 0.2 0.1 0.2 0.1 0 0.1 0 0.2 0 0.1 0.1 0.2 0.1 0 0.2 0.1 0.1 0.1 0 0.1-0.1 0.1 0 0.1 0.3 0.1 0 0.1-0.1 0-0.2 0.1-0.2 0.2 0 0.1 0.2 0 0.1 0.1 0 0.1-0.1 0.1 0 0.1 0.1 0 0.1 0.2 0 0.1 0 0.1-0.1 0.1-0.1 0.2 0.1 0.1 0.2 0.1 0.1 0.3 0.2 0.1 0 0.3 0 0.1 0 0.1 0.2 0.1 0.1 0.2 0.2 0.2 0 0.2-0.1 0 0.1 0.1 0.2 0.1 0.2 0.1 0.1 0 0.3-0.1 0.1-0.2 0 0 0.1 0.1 0.1 0.2 0.2 0.2 0 0.1 0.1 0.2 0.1 0.1-0.1 0.2-0.2 0.3 0 0.1-0.1 0.2 0.1-0.1 0.4 0.1 0.1 0.1 0.3-0.1 0.4 0 0.4-0.1 0.2-0.1 0.3-0.1 0.7 0 0.2-0.2 0.2-0.1 0.2 0.2 0.2 0.1 0.2 0 0.3 0 0.4 0 0.2 0 0.2-0.1 0.1-0.2 0.4-0.1 0.3-0.1 0.2-0.3 0.3-0.1 0.2 0 0.3-0.1 0.2-0.2 0.2 0 0.2-0.2 0.1-0.1 0.2 0 0.5 0 0.2 0.2 0.2 0.2 0.1 0.3 0.1 0.6 0.1 0.1 0.1 0.3-0.1 0.1 0 0.3 0 0.1 0 0.2 0.1 0.2-0.1 0.2 0 0.3 0.2 0.2 0.1 0 0.2 0.1 0.2 0.1 0.1 0.3 0.2 0.2 0.2 0.2 0.4 0.1 0.7 0 0.6 0.2 0.2 0.1 0.2 0.1 0.1 0 0.1 0.1 0.3 0.1 0.2 0.2 0.2 0 0.2-0.1 0.1 0 0.2-0.1 0.3 0 0.2-0.1 0.2-0.1 0.3 0.1 0.2-0.1 0.1 0 0.2 0.1 0.2 0.2 0.3 0 0.1 0 0.2 0.1 0.1-0.2 0.1 0 0.1-0.1 0.2-0.1 0.2 0 0.4 0 0.3 0.2 0.5 0.2 0.2 0.1 0.3 0 0.4-0.1 0.4-0.1 0-0.1 0.2-0.5 0.2-0.2 0.4-0.3 0.2-0.4 0.4-0.5 0.2-0.3 0.3-0.3 0.6-0.2 0.9-0.2 0.5-0.1 1.1 0.1 1.4 0 0.3 0.1 1.5 0.1 1.2 0 0.5-0.2 0.4-0.2 0.3-0.3 0.1-0.3 0.1-0.2 0.1-0.2 0.1-0.1 0-0.5 0.2-0.5 0.2-0.4 0.3-0.4 0.2-0.3 0.2-0.2 0.2-0.3 0.4 0 0.1 0 0.4 0 0.6 0 0.5 0.1 0.8 0 0.4-0.1 0.2-0.1 0.2-0.1 0.3-0.3 0.2-0.5 0.5-0.3 0.2-0.1 0-0.6 0.2-0.3 0.3-0.8 0.5-0.4 0.1-1.2 0.3-0.2 0.1-0.3 0.1-1.3 0.3-1 0.2-1.3 0.2-0.2 0 0 0.2 0 0.2 0 0.1 0 0.2 0.1 0.3 0 0.5 0 0.2 0 0.2 0.1 0.4 0.3 0.7 0.1 0.4 0.1 0.4 0.1 0.3-0.1 0.3-0.1 0.2 0 0.3-0.2 0.2-0.1 0.2-0.1 0.3-0.3 0.3 0.7-0.1 0.1 0.1 0.1-0.1 0.4-0.1 0.3-0.1 0.2 0.1 0.2 0.2 0.2 0.2-0.1 0.2 0 0.2-0.1 0.4-0.1 0.3 0 0.4 0 0.3 0.3 0.5 0.2 0.4 0.1 0.3 0 0.2 0 0.2-0.1 0.4-0.2 0.2 0.1 0.3 0.1 0.1 0.2 0.2 0.2 0 0.2 0.1 0.2 0.2 0.1 0.1 0.4 0.2 0.3 0.1 0.2 0.1 0 0.2 0.1 0.2 0.1 0.3 0.2 0.3 0.3 0.3 0 0.2-0.1 0.3-0.2 0.3-0.2 0.3 0.1 0.3 0 0.1-0.2 0.1-0.1 0.2 0 0.2 0 0.1-0.1 0.2-0.2 0.4-0.1 0.3-0.2 0.3-0.1 0.3 0 0.4-0.1 0.4-0.2 0.3-0.2 0-0.1 0.1-0.3 0.2-0.2 0.1-0.4-0.1-0.1 0-0.2 0.1-0.2 0.2 0 0.1 0.2 0 0.2 0.1 0.1 0.1 0.1 0.3-0.1 0.1-0.1 0.2-0.2 0.3 0.1 0.2-0.1 0.3-0.1 0.2 0.2 0.3 0 0.3 0 0.1-0.1 0.3-0.2 0.6 0 0.3 0.1 0.3 0 0.8 0 0.6 0.1 0.5 0 0.2 0 0.1 0 0.2-0.1 0.5 0 0.1-0.2 0.3-0.2 0.2-0.2 0.1-0.1-0.1-0.1 0 0 0.2 0.1 0 0.1 0.1 0.1 0 0 0.2 0.1 0.2-0.1 0.1 0 0.1 0.1 0 0.2 0 0.1 0.1 0.2 0.1 0.2 0.1 0 0.1 0 0.3-0.1 0.3-0.1 0.1-0.2 0.2 0 0.1 0.1 0.1 0.1 0.4 0 0.1 0.1 0.3 0.1 0.3 0.1 0.2 0 0.2-0.1 0.1-0.2 0.1-0.3 0.2-0.2 0.3 0 0.2-0.1 0.4-0.1 0.3-0.2 0.2 0.1 0.1 0 0.4 0 0.2-0.2 0.2-0.2-0.1-0.1 0.1 0 0.1 0 0.2-0.1 0.1 0 0.1-0.2 0.2 0.1 0.1 0.1 0.2-0.1 0.1-0.1 0-0.1 0 0 0.1 0 0.2-0.1 0.2-0.2 0-0.1 0.1 0.1 0.2 0 0.2-0.2 0-0.1 0.1 0 0.1 0 0.1-0.2 0.2 0 0.2 0.2 0.1 0 0.2 0 0.2-0.2 0.4-0.2 0.3-0.1 0.2 0.1 0.3-0.2-0.1-0.2 0-0.2-0.1 0-0.1-0.3-0.1-0.1-0.2-0.1 0-0.2-0.1-0.1-0.1-0.2-0.1-0.3-0.2-0.2 0-0.2-0.2 0-0.2 0-0.1-0.1-0.1-0.2-0.1-0.1 0-0.1-0.1-0.1 0.1-0.2 0.1-0.2 0.2-0.3 0.1-0.6 0-0.3 0.1-0.2 0-0.2-0.1-0.1 0-0.3 0.1-0.3 0-0.2 0.1-0.4-0.1-0.1-0.1-0.4-0.1-0.3-0.3-0.1 0-0.1-0.2-0.2-0.2-0.3-0.1-0.1 0.1-0.1 0.1-0.1 0.2-0.1 0-0.3-0.1-0.2 0.1-0.2 0.2 0 0.2-0.3 0.3-0.1 0.1-0.1 0.1-0.4 0.3-0.6 0.4-0.3 0.1-0.4 0.1-0.5 0-0.5 0-0.5 0.1-0.1 0-0.3 0-0.5 0-0.1-0.1-0.2-0.1-0.3-0.3-0.3-0.1-0.3 0.1-0.5 0.2-0.2 0.2-0.2 0.2-0.1 0.2-0.3 0-0.2 0.2-0.4 0.2-0.2 0.3-0.3 0.4-0.2 0.4 0 0.2-0.1 0.1-0.3 0.1-0.3 0.2 0 0.1-0.3 0.3-0.4 0.1-0.3 0.1-0.3 0-0.4-0.1 0 0.1-0.1 0.2-0.1 0.2 0.1 0.2 0 0.1-0.1 0.3-0.1 0.2 0 0.1 0 0.3 0.1 0.2-0.2 0.4 0 0.2 0.1 0.2 0.1 0.4-0.1 0.2-0.1 0.2-0.4 0.2-0.3 0.2-0.2 0.3 0 0.3 0.4 0.3 0.1 0.3 0.1 0.4 0 0.1-0.2 0.2-0.1 0.2-0.2 0.2-0.3 0.1-0.4 0.1-0.2-0.1-0.3-0.1-0.2-0.2-0.2-0.2-1-0.3-0.1 0-0.4 0.2-0.4 0-0.1-0.2 0-0.1-0.1 0-0.1 0.2 0.1 0.2 0 0.2 0.1 0.2 0 0.3 0 0.3-0.1 0.4-0.1 0.3-0.2 0.3-0.3 0.4-0.5 0.6-0.4 0.7-0.2 0.4 0 0.1-0.2 0-0.3 0.1-0.2 0-0.2 0-0.2 0-0.5 0-0.1 0-0.5-0.1-0.4 0-0.2-0.1-0.2-0.1-0.2-0.1-0.1-0.1-0.1 0.1-0.1 0-0.2-0.1-0.1-0.1-0.1 0-0.2 0-0.3 0-0.3 0-0.6 0-0.5-0.1-0.4-0.1-0.7 0.1-0.5 0-0.4 0-0.3 0-0.1-0.2-0.3-0.2-0.1 0-0.2-0.1-0.3 0-0.2-0.2-0.3-0.1-0.4-0.1-0.1 0-0.1-0.1-0.4-0.1-0.2-0.3-0.2-0.1-0.2-0.1-0.2-0.2-0.1 0-0.1 0-0.2 0 0-0.2 0.1-0.2 0.1-0.1 0.1-0.2 0.1-0.1 0-0.3-0.1-0.1-0.2 0.1-0.2 0-0.2 0.1-0.1-0.1-0.2-0.1-0.3-0.1-0.2-0.1 0-0.2 0.1-0.2-0.1-0.2 0-0.3 0-0.3 0-0.2-0.4-0.2-0.3-0.2-0.1-0.2 0.1-0.3 0-0.1 0.3-0.2 0.2-0.1 0.1 0 0.1-0.1 0.1 0 0.2-0.2 0.3 0 0.2 0 0.1 0 0.3 0 0.2 0.2 0 0.1 0 0.1 0 0.1 0 0.1 0.1 0.1 0.1 0.1 0.1-0.2 0-0.3 0.2-0.2 0-0.2 0.2 0 0.1-0.1-0.1-0.1-0.1 0-0.1-0.1-0.2-0.2-0.1-0.1-0.2-0.3 0-0.4 0.1-0.3 0.2-0.1 0.1-0.1 0.1-0.1 0.1 0 0.2-0.1 0.1-0.2 0.2-0.2 0.2-0.1 0.2 0 0.1 0 0.1 0-0.1-0.2-0.1 0-0.1 0-0.2-0.1-0.2-0.2-0.2-0.1-0.2-0.2 0-0.2-0.1-0.1-0.2-0.1-0.1-0.2 0.1-0.1 0.2-0.1 0-0.2 0.1-0.3 0.1-0.2-0.1-0.3 0-0.1 0.1-0.1 0.1 0 0.2 0 0.2-0.1 0.2 0 0.1 0.1 0.1 0 0.1 0 0.1 0.1 0.1 0 0.1-0.2 0-0.2-0.1-0.2-0.1-0.3-0.3-0.2-0.4-0.1-0.2-0.1-0.2-0.1-0.1-0.2-0.1-0.2-0.1-0.2-0.1-0.7 0-0.4 0.1-0.1 0-0.1 0.2-0.3 0.4-0.2 0.3-0.2 0.2 0 0.1-0.1 0.1-0.1-0.1-0.1-0.2-0.2-0.1-0.2-0.2-0.1-0.1 0-0.2 0-0.4 0-0.3 0.1-0.1 0-0.3-0.1-0.1 0-0.1-0.2-0.1-0.2 0-0.1 0.1-0.2-0.1-0.2-0.1-0.1 0-0.2-0.3-0.1-0.1-0.2-0.2-0.1-0.1 0.1-0.1 0.1-0.2 0.2-0.1 0.1-0.2 0.1-0.2 0-0.2 0-0.2 0-0.1-0.1-0.1 0-0.1-0.3-0.2-0.4 0.1-0.2 0.2-0.1 0-0.2 0-0.3 0.1-0.1 0.2-0.2 0.2-0.1 0.4-0.2 0.3-0.1 0.2-0.1 0.2-0.2 0.2-0.4 0.2-0.3 0-0.3 0.1-0.2-0.1-0.1-0.1 0.1 0 0.1-0.1 0-0.1-0.1 0-0.3 0.1-0.2 0-0.1 0.1-0.1 0.2-0.1 0-0.1-0.1-0.1-0.1 0 0 0.1-0.1 0-0.2 0.1-0.2 0.1-0.2-0.2 0.1-0.2-0.1-0.2-0.1-0.2 0-0.1 0-0.1 0-0.2 0.2-0.1 0.1-0.2 0.1-0.2 0.1 0 0.3 0 0.1 0 0.2 0 0.3 0 0.2 0 0.1-0.1 0.1-0.1 0.2-0.2 0.2 0 0-0.1-0.1-0.1-0.1 0-0.1 0-0.1 0-0.2 0-0.2-0.2-0.2-0.2-0.4-0.2-0.2-0.1 0-0.2-0.1-0.1-0.1-0.1-0.1 0-0.3 0-0.3 0-0.2-0.2 0-0.1 0-0.2 0-0.3 0.1-0.3 0.3-0.3 0-0.2 0-0.2 0-0.2 0-0.1-0.1-0.3-0.1-0.2 0.1-0.1 0.1-0.2 0.3-0.1 0-0.1 0.2-0.2 0.1-0.2 0.1-0.1 0.1-0.1 0-0.2-0.1 0-0.2 0-0.2 0-0.2-0.1-0.1-0.1-0.2-0.1-0.3-0.2-0.3 0-0.3-0.1 0-0.1-0.1 0-0.1 0-0.1 0.1-0.2 0.1-0.3 0.2 0 0.1-0.6 0.4-0.8 0.6-0.6 0.5-0.7 0.6-0.4 0.4-0.2 0.1-0.3-0.2-0.3-0.1-0.4 0-0.2 0-0.4-0.2-0.4-0.2-0.2 0-0.2-0.1-0.3-0.1-0.2-0.2-0.2 0-0.3-0.1-0.3-0.1-0.2-0.2-0.3 0.1-0.2 0-0.2 0.2-0.3 0.1-0.3 0.1 0 0.2 0 0.1 0 0.1 0 0.5 0.2 1 0 0.8 0.2 1.1 0.2 0.5 0 0.1 0 0.1 0 0.1 0.2 0.6 0 0.2 0.1 0.1 0 0.1 0 0.2-0.1 0.2-0.5 0.4-0.3 0.3-0.4 0.7-0.2 0.3-0.1 0.1-0.4-0.2-0.3-0.2-0.2-0.1-0.2-0.1-0.4-0.1-0.4 0-0.1 0-0.5-0.1-0.3-0.1-0.3-0.1-0.4 0.1 0-0.1-0.5 0.1-0.3-0.1-1-0.4-0.6-0.2-0.3-0.3-0.1-0.3-0.2-0.3-0.3-0.2-0.3-0.2-0.3-0.2-0.2-0.2-0.3-0.1-0.5 0-0.5 0-0.2-0.2-0.2-0.3-0.2-0.2-0.2-0.3-0.2-0.3 0-0.4-0.1-0.4 0-0.2-0.2-0.3 0-0.1-0.1-0.1-0.1 0-0.3 0.1-0.2 0-0.2-0.1-0.5-0.1-0.2 0.1-0.1 0.1 0.1 0.2 0 0.1-0.2 0.1-0.2 0.1-0.2 0.2-0.1 0.5 0 0.4 0.1 0.2 0.1 0.1 0.1 0 0.1 0 0.2 0-0.1 0.1-0.3 0.1-0.3 0-0.2 0.1-0.3 0.1-0.2 0.2-0.1 0.2 0.1 0.1 0.1 0.2 0 0.2-0.2 0.1-0.2 0.2-0.1 0.4 0 0.2 0 0.1 0.1 0 0.1 0 0.2 0.1 0.1 0.1 0.1 0.1 0.1 0.1 0 0.2-0.1 0.4-0.1 0.3-0.2 0.2 0.1 0.2 0.1 0.3 0 0.2-0.1 0.4 0.1 0.2 0.1 0.3 0.3 0.2 0 0.1-0.3 0.1-0.1-0.1-0.1 0-0.3-0.1-0.2 0.2-0.1 0 0 0.2-0.1 0.1 0 0.1 0.1 0.2 0 0.3 0.1 0.2 0.1 0.1 0.2 0.1 0 0.2-0.1 0.1-0.2 0.1-0.2 0.3 0.1 0.1 0.1 0.2-0.2 0.1 0 0.1 0.1 0.1 0 0.1 0.1 0 0.2 0 0.1 0.1 0 0.2-0.2 0.1 0 0.1 0 0.2 0 0.1-0.1 0.2 0.1 0.1 0.1 0 0.1-0.1 0.2 0.1 0 0.1 0.1 0.1 0.3 0.3 0.2 0.3 0.2-0.1 0.2-0.1 0.1 0.1 0.3 0 0.2 0.1 0 0.1-0.2 0.2 0 0.1 0 0.1 0.1 0.1 0.2 0.1 0.2 0 0.2 0 0.2 0 0 0.2-0.1 0.3 0 0.4-0.2 0.1-0.1 0.2 0 0.1-0.2 0.3-0.3 0.4-0.2 0.1-0.2 0-0.2 0.1 0.1 0.1 0.1 0.4 0.2 0 0.2 0.1 0 0.1 0 0.2-0.2-0.1-0.2-0.1 0 0.2 0 0.1 0.2 0.3 0 0.3 0.1 0.3 0 0.1-0.1 0.1-0.4 0-0.2 0.1-0.1 0-0.2 0.2-0.1 0.2-0.3 0.1-0.2 0.1-0.2 0.3-0.1 0.2-0.1 0-0.3-0.1-0.3 0-0.2 0.1-0.2 0-0.2-0.1-0.3-0.1-0.2 0-0.3-0.1 0-0.1-0.2-0.1-0.3-0.2-0.3-0.2-0.6-0.2-0.5-0.1-0.3 0-1.1-0.3-0.5-0.1-0.2-0.1 0-0.2-0.1-0.1 0-0.1-0.2-0.2-0.1-0.1-0.1-0.1-0.2 0-0.3 0-0.3 0.2-0.1 0.1-0.2 0.3-0.2 0.5-0.1 0.1-0.2 0-0.2 0.1-0.2 0.2 0 0.1-0.2-0.1-0.1 0.1-0.3 0.1-0.1 0-0.1 0.1 0 0.1-0.1 0.1 0 0.2-0.1-0.1-0.1-0.1-0.1 0-0.2 0.1 0 0.1-0.1 0.1-0.3 0-0.2 0 0-0.1-0.6 0.1-3.1-0.4-0.2 0-0.2 0.1 0 0.2 0 0.2-0.1 0.1-0.2 0.2 0 0.1-0.1 0.2-0.1 0.1-0.3 0.1-0.1 0.1 0 0.2 0 0.3-0.1 0.1-0.1 0.2 0 0.2-0.2 0.1-0.1-0.1-0.2 0-0.2 0.1-0.1 0.1-0.1 0.4-0.2 0.5-0.1 0.1-0.2 0.2-0.3 0.2-0.1 0.2-0.2 0.2-0.1 0.1-0.1 0.1-0.1 0.2-0.2 0.1-0.1 0.2 0 0.1 0 0.2 0.1 0.1-0.1 0.2-0.1 0.2-0.1 0.1 0.1 0.1 0.1 0.2 0.2 0.1 0.3 0.1 0.3 0.2 0.1 0 0.3 0.3 0.3 0.1 0.3 0.2 0.1 0.3 0 0.2-0.1 0.4-0.3 0.6-0.2 0.4 0 0.1-0.4 0.9-0.1 0.2-0.6 0.5-0.3 0.2-0.5 0.2-0.4 0.1-0.5 0.1-0.1 0-0.4 0.1-0.4-0.1-0.4-0.2-0.1-0.3-0.1-0.2-0.3 0-0.4-0.1-0.1-0.2-0.1-0.5 0.1-0.3 0.1-0.2 0.2-0.3 0.1-0.3 0-0.4-0.1-0.2-0.1-0.2-0.1-0.1-0.1-0.2-0.3 0-0.2 0-0.2 0.1-0.3-0.1-0.4-0.2-0.4-0.2-0.2-0.2-0.3-0.3-0.2-0.3-0.1-0.2-0.2-0.2-0.2-0.2-0.3-0.3-0.4-0.1-0.5 0-0.5 0-0.6-0.1-0.9-0.1-1 0-0.9 0-1.1-0.1-0.9-0.1-0.2-0.1-0.3-0.3-0.1 0-0.1 0-0.1 0-0.2 0.2-0.2 0.2-0.4 0-0.3 0-0.2 0.2-0.1 0.1-0.3-0.1-0.2 0.1-0.2 0.1 0 0.1-0.3 0.4-0.3 0.2-0.3 0.1-0.3-0.1-0.2-0.1 0-0.1-0.2 0-0.2 0.1-0.1-0.2-0.2 0-0.1 0.1-0.2-0.1-0.2-0.1 0-0.2-0.2-0.1-0.1 0.1-0.1 0.1-0.2 0.1 0-0.2 0.1-0.1-0.1-0.1-0.2 0 0-0.1-0.1-0.2-0.1 0-0.2 0 0.1-0.2-0.1-0.1 0.2-0.2 0.2 0 0.2 0 0.1 0 0.1-0.2 0.2-0.1 0.2 0 0-0.1 0.1-0.1 0-0.1 0.1-0.3 0.1-0.3 0.1-0.4 0.1-0.3-0.1-0.4 0-0.8 0-0.3 0-0.3-0.2-0.2-0.1-0.2-0.1-0.1-0.2-0.3-0.1-0.1-0.3 0-0.2 0-0.1 0-0.8 0-1.2 0.4 0 0.1-0.1 0.3-0.1 0-0.2-0.1 0-0.1 0-0.1-0.2 0-0.1 0.1-0.2-0.1-0.1-0.1 0-0.2 0.2 0 0.2 0 0-0.1 0-0.1 0-0.2 0-0.2 0-0.1-0.2-0.1-0.1-0.1 0-0.2 0-0.1 0-0.2-0.2 0-0.2 0 0-0.2-0.1-0.3 0-0.4-0.2-0.1-0.3-0.1 0-0.1 0-0.1 0.2 0 0.1 0-0.1-0.2-0.1-0.1-0.1-0.1 0-0.2 0.1-0.1 0.1 0.1 0.1-0.1-0.1-0.1-0.2-0.1 0-0.2 0.1-0.2 0.1-0.1 0.1 0.1 0.1-0.1 0.1-0.1 0.1 0 0.1-0.1 0-0.1-0.1 0-0.1-0.1-0.1 0-0.1-0.1 0-0.1 0.1-0.2-0.1-0.1-0.1-0.1 0.1-0.2-0.1-0.2-0.1 0-0.2 0-0.3-0.1-0.1-0.1-0.2-0.1-0.4 0-0.2-0.1-0.2-0.1-0.1 0-0.3-0.1-0.2 0-0.4 0-0.4-0.1-0.4-0.1-0.5 0.2-0.2 0.2-0.1 0.3-0.2 0.1-0.1 0.1 0 0.1-0.2 0.3-0.1 0.2-0.1 0.4-0.1 0.3-0.3 0.1-0.4 0-0.2-0.1-0.3-0.1-0.6-0.1-0.7-0.2-0.5-0.3-0.3-0.4-0.5-0.4-0.2-0.2-0.1-0.1-0.2-0.3-0.1-0.2-0.3-0.1-0.1 0.1-0.2 0.2-0.2 0.2-0.3 0.3-0.2 0.2-0.1 0.1-0.2 0.2-0.4 0.2-0.7 0.4-0.1 0.1-0.1 0.3-0.2 0.3 0 0.1 0 0.2-0.2 0.2-0.3 0.2-0.3 0.1-1 0.2-0.4 0.2-0.1 0.2-0.3 0.3-0.3 0.1 0 0.3-0.1 0 0.2 0.4 0.2 0 0.1 0.1 0.1 0.2 0.1 0.2-0.1 0.2-0.1 0.2 0 0.2-0.1 0.1-0.1 0.1-0.2 0-0.1 0-0.1-0.1-0.2 0-1 0.6 0.1 0.2 0.1 0.5-0.1 0.1-0.2 0-0.1 0.1-0.3 0.1-0.2 0.1 0.2 0.1-0.3 0.6 0.2 0 0.2 0 0.1-0.1 0.1 0 0.1-0.1 0.1 0 0.1 0.1 0.1 0.1 0 0.1-0.2 0-0.1 0.1-0.4 0.1 0 0.1 0 0.2-0.1 0.1 0 0.1 0 0.1 0 0.2-0.2 0.1-0.2 0-0.1 0.1-0.2 0.1-0.3 0.4-0.4 0.3-0.1 0.1-0.1 0 0 0.1 0 0.1-0.1 0.1-0.1 0.1-0.2 0.4 0.2 0.2-0.1 0-0.2 0-0.1 0.2 0 0.1-0.1 0.3-0.1-0.1 0-0.2-0.1 0-0.2 0.1 0 0.1 0 0.1 0 0.1-0.1 0.1-0.2 0-0.1 0.2-0.3 0-0.2 0.1 0 0.2-0.1 0.2-0.3 0.3 0 0.2-0.2 0.1-0.1 0-0.1 0.2-0.1-0.1-0.1-0.1-0.2 0-0.1 0.1 0 0.2 0.1 0.2-0.1-0.1-0.1 0.1-0.1 0.1-0.3 0-0.3-0.1-0.2 0-0.1-0.1-0.2 0.1-0.2 0.1-0.4 0-0.3 0.1-0.4 0.4-0.1 0.2-0.1 0.3 0 0.3-0.1 0.1 0 0.1-0.2 0.2-0.2 0-0.1 0-0.3 0.2 0.1 0.2 0.1 0.1-0.2 0.1-0.1 0-0.2 0-0.2 0.1-0.2 0.2-0.2 0.1-0.3 0-0.3-0.2-0.3 0.1-0.2-0.1-0.3-0.1-0.2-0.2-0.5-0.3-0.2-0.1 0.1-0.4 0.1-0.1 0-0.3 0.2-0.3 0.3-0.2 0.1 0 0.2-0.2 0.1-0.4 0.1-0.4 0.1-0.3-0.1-0.3 0-0.4 0.2-0.2 0.2-0.2 0.2-0.2 0.1-0.3 0-0.3-0.1-0.2-0.1-0.3-0.2-0.1-0.1-0.1-0.1-0.2 0.1-0.2-0.1-0.2-0.4-0.3-0.2-0.2-0.1-0.5-0.1-0.5-0.1-0.4-0.1-0.3-0.2-0.3 0-0.1-0.1-0.3 0-0.3-0.1-0.4-0.3-0.4-0.4-0.2-0.3-0.1-0.3 0-0.2 0.1-0.1 0.1-0.2 0-0.2 0-0.2 0.1-0.4 0-0.1 0.2-0.1 0.2-0.2 0-0.2 0.2-0.2 0.2-0.5 0-0.6-0.2-0.4-0.2-0.4-0.6-0.2-0.3-0.2-0.4-0.2-0.5-0.3-0.3-0.2-0.3-0.2-0.4-0.1-0.3-0.1-0.3 0-0.2 0.1-0.3 0.1-0.2 0-0.2 0-0.2 0.1-0.1 0.1-0.1-0.2-0.2 0-0.3-0.1-0.3 0.1-0.2 0.1 0 0.1 0 0.1-0.2-0.1-0.2 0-0.1-0.1-0.1-0.2 0-0.1 0-0.1 0-0.1-0.1-0.1-0.2-0.2 0-0.1 0.1 0 0.2-0.2 0.1-0.2 0.2-0.2 0-0.2 0-0.1 0-0.1 0.1-0.3 0.2 0 0.2-0.2 0.1-0.2 0.1-0.3 0.1-0.1 0-0.1 0-0.3 0-0.3 0.1-0.1 0.1-0.3 0.3-0.2 0-0.2 0-0.1 0.1-0.1 0.1-0.1 0.1-0.1 0-0.2 0-0.3-0.1-0.3 0-0.2 0-0.2 0-0.7-0.3-0.1 0-0.2 0.1-0.1 0-0.1-0.2 0-0.2 0-0.3 0-0.3-0.1-0.4-0.1-0.4 0-0.4 0-0.3 0-0.2-0.2-0.3-0.1-0.4-0.1-0.3-0.2-0.7 0-0.6-0.2-0.3-0.2-0.3-0.2-0.4-0.2-0.4 0-0.3-0.1-0.3-0.2-0.1-0.2-0.2-0.2-0.3 0-0.2 0-0.1 0-0.1 0.1-0.2 0-0.2 0-0.2-0.1-0.1-0.1 0 0-0.2 0-0.2-0.2-0.2-0.2-0.1 0-0.1-0.2 0-0.1 0-0.2 0-0.1 0-0.2 0.2-0.1-0.1-0.2 0-0.1 0-0.4-0.1-0.2 0-0.2 0.1-0.3-0.1-0.1-0.2-0.1-0.4-0.1-0.2 0-0.3 0-0.1 0-0.7 0-0.2 0.2-0.4 0.2-0.3 0.1-0.3 0-0.4 0-0.4-0.1-0.2-0.1-0.3 0.1-0.1 0.1-0.1 0.2 0 0.5 0 0.1-0.1 0.2 0 0.1-0.2 0-0.1 0-0.3 0.1-0.3 0.1 0 0-0.1 0.3-0.1 0.1-0.1 0.1-0.3-0.1-0.2-0.2-0.1-0.2 0-0.2-0.2 0-0.2 0-0.3-0.1-0.3 0.1-0.1 0.2-0.3 0.3-0.5 0.1-0.4 0-0.5-0.1-0.2-0.3-0.3-0.2-0.2-0.3-0.1-0.5 0-0.6 0.1-0.2-0.1-0.1-0.1 0-0.3-0.1-0.3 0.1-0.2 0.2-0.3 0.7-0.6 0.4-0.5 0.1-0.1 0.1-0.4 0.1-0.5 0.1 0-0.2-0.4-0.1-0.2-0.2-0.3 0.1-0.3 0.2-0.3 0.3-0.2 0.8-0.7 0.3-0.2 0.5-0.4 0.5-0.5 0.2-0.3 0-0.2 0-0.2-0.3-0.4-0.2-0.4-0.2-0.6-0.3-0.5-0.1-0.4-0.1-0.1 0.1-0.8-0.1-0.7 0.1-0.6-0.1-0.6-0.1-0.3 0-0.1-0.2-0.5-0.1-0.3-0.2-0.1-0.2-0.1-0.5-0.1-0.1-0.1-0.2-0.1-0.4-0.2-0.2-0.2-0.2-0.2-0.3-0.4-0.2-0.3-0.2-0.3-0.2-0.3-0.3-0.2-0.2-0.2-0.3-0.1-0.3-0.2-0.5 0-0.2 0.1-0.3 0.1-0.2 0.1-0.1 0-0.2 0.2-0.4 0-0.2 0-0.5 0-0.7 0-0.7-0.1-0.4-0.3-0.1 0-0.3 0.1-0.4 0.1-0.4 0-0.6-0.1-0.4 0-0.1 0.1-0.1 0.1 0 0.2 0.1 0.3-0.1 0.1-0.2 0.4-0.2 0.4-0.1 0.3-0.3 0.2-0.1 0.2 0.1 0.2 0 0.3-0.2 0.2 0.1 0.2 0 0.2-0.2 0.1-0.2 0.1-0.2 0.3-0.2 0.2-0.1 0-0.3 0.1-0.8 0.2-0.6 0.2-0.2 0.1-0.1 0.3-0.3 0.1-0.3 0.3-0.2 0.3-0.3 0-0.1 0-0.2 0.2-0.2 0.2-0.4-0.1-0.2-0.3-0.1-0.1-0.1 0-0.1 0 0 0.1-0.1 0.2-0.2 0.2-0.1 0.1 0 0.1-0.1 0.1-0.1-0.1 0-0.1-0.2-0.1-0.1-0.2-0.2 0-0.1 0-0.2 0.1-0.3 0.1-0.4 0.2-0.3 0.2-0.4 0.2-0.7 0.1-0.4-0.1-0.1-0.1-0.1-0.1-0.2-0.4-0.1-0.4-0.1-0.3 0.1-0.3 0.1-0.4-0.1-0.4-0.1-0.3-0.1-0.2 0.2-0.2 0.2-0.4 0.3-0.4 0.4-0.3 1.2-0.8 0.3-0.3 0-0.3 0-0.3 0-0.4 0.1-0.4 0.2-0.5 0.3-0.3 0.6-0.4 0.5-0.4 0-0.2-0.1-0.1-0.1-0.2-0.1-0.3-0.1-0.5 0.1-0.5 0.2-0.3 0.2-0.2 0.2-0.1 0.3-0.1 0.5 0.1 0.4 0.2 0.2 0 0.2-0.1 0.3 0 0-0.2 0.1-0.3 0.1-0.2 0.1-0.2 0.1-0.3 0.1-0.2 0-0.1-0.1-0.2-0.1-0.3-0.1-0.4-0.1-0.5 0.1-0.4 0.1-0.5 0.2-0.4 0-0.1 0.3-0.2 0.4-0.1 0.4 0 0.3 0.1 0.3 0 0.1 0 0.3 0 0.1-0.1 0.1-0.1 0.1-0.1 0.2-0.2 0.2 0 0.3 0 0.5 0.1 0.1 0 0.1 0 0.3-0.1 0.3-0.2 0.1-0.2-0.1-0.2-0.1-0.2-0.2-0.3-0.1-0.4 0-0.2-0.2-0.4-0.1-0.2 0-0.3 0.1-0.2 0.2-0.5 0.1-0.2 0.1 0 0-0.1 0.2-0.2 0.3-0.1 0.4-0.1 0.5 0 0.4 0.1 0.3 0.1 0.3 0.2 0.4 0.3 0.4 0.1 0.6 0.2 0.7 0.1 0.3 0 0.4-0.1 0.3 0 0.2-0.1 0.3-0.2 0.1-0.2 0.1-0.2 0.2-0.3 0.2-0.6 0.1-0.5 0-0.3 0-0.2-0.2 0 0 0.1-0.4 0-0.1 0-0.2 0-0.6 0-0.1 0-0.6-0.2-0.2 0-0.2-0.2-0.2-0.1-0.1-0.5 0-0.4 0.3-0.5 0.4-0.4 0.1-0.1 0.2-0.1 0.1 0 0.4-0.2 0.1 0 0.1 0 0.3 0 0.5 0 0.4 0 0.2-0.2-0.1-0.1-0.3-0.1-0.3-0.2-0.2-0.3-0.3 0-0.4 0-0.7-0.1-0.5-0.2-0.4-0.4-0.4 0-0.2 0-0.3 0.1-0.4 0-0.3-0.1-0.2-0.4-0.1-0.1-0.8-0.2-0.1 0-0.4-0.2-0.2 0-0.2 0-0.1 0.2-0.3 0.1-0.7-0.2-0.4-0.1-0.1-0.4-0.1-0.2 0-0.3-0.1-0.3-0.3-0.3-0.2-0.2 0.1-0.2 0.1-0.2 0-0.1-0.1-0.2-0.2-0.1-0.1-0.2 0.1-0.2 0-0.3-0.3-0.6-0.3-0.2 0-0.2-0.1 0z" id="ML03" name="Sikasso">
  </path>
  <path d="M473.4 760.7l0-0.1-3.4-0.6-1.8-0.4-1.1 0.4-0.8 0.6-0.7-0.2-0.6-0.3-0.4-0.3-1.1-0.6-0.7-1.5-0.9-1.4-0.5 0.2-0.3 0-0.4-0.1-0.3-0.3-0.6-0.5-0.5 0.7-0.2 0.5-1 0.7-1.5 0.7 0.3 2.1-0.1 3-3.7 1.7-5.2 2.9-0.6-2.4-4.1 0.1-0.7 0-0.5 0.3 0 0.6 0.4 1.9-0.6 1.3-1 0.5-0.8 0.2-0.6-0.5-0.3-1 0-1.6-0.4-1.4-0.3-1.7 0.3-0.4 0-0.6-0.2-0.6 0-0.1 0-0.6-0.2-1-0.5-0.4-0.4-0.8-0.6-0.8-0.4-0.3-0.7-0.1-0.2-0.2-0.2-0.8-1-0.4-0.4-0.3-0.4-0.2-0.3-0.2-0.5 0-0.3-0.4 0-0.5-0.3-0.1-0.1-0.1 0-0.1-0.1-0.2-0.4-0.5-0.1-0.2-0.1-0.2-0.3-0.4-0.1-0.2-0.1-0.3-1.2-0.6-0.1-0.2-0.4-0.8 0-0.2-0.3-0.4-0.3-0.2-0.3-0.2 0-0.1-0.1-0.1-0.1 0-0.1-0.1 0-0.1-0.1 0-2.3-0.6-1.2 0.9 0.9 4.7 0.1 4.7-0.5 1.9-1 3.9-0.3 0 0-0.7-2.1-0.2-0.9-1.4-1.4-0.2-1.6 0-0.8-1.4-0.5-2.2-1-1.1-1.7-1.1-1.1-1.9-1.4-0.3-4.3 1.3-2.5 0.7-0.5 0.1-2 1.7-2.8 1.2-3.4-0.3-1.9-0.8-0.5-1.1-1.9-0.3-2.5 0.5-2.1 4.1-0.5 1.1-8.2 3.8-2.6 3-0.5-0.4-0.6-0.2-0.1-0.6-0.3-0.2-0.6-0.3-0.7-0.1-0.3 0.4-0.8 0-0.4 0.3-0.6 0.4-0.4-0.8-0.5-0.5-0.3-0.1-0.6 0-0.2-0.1-0.1-0.1 0.1-0.3 0.1-0.2 0-0.3-0.1-0.1-0.2 0.2-0.3 0-0.1-0.3 0-0.3 0-1-0.4-0.6-0.8-1.2-0.2-0.4 0.4-0.9-0.2-0.5 0.2-0.3 0.2-0.2-0.2-0.2-0.1 0-0.1 0.1-0.1-0.4-0.1-0.2-0.1-0.1 0-0.1-0.3 0.2-0.5 0-0.5-0.1-0.5-0.5-0.2-0.1-0.5 0.1-0.6 0.2-0.5 0.3-0.2 0.4 0 0.1-0.2 0.3-0.3 0.6-0.1 0-3.6-6.2-3.2-0.2-4 0.5-5.2 0.7-0.9-2.1-1.8 0.4-0.6-0.5-0.9 0.6-1.1 1-0.3-2.3-1.1-0.5-3.6-1.5-2.8-0.6-0.4 0-0.2-3.1 0.2-1.4-1.7-2-0.8-0.9 0.7-2.1 1.1-2.1 1.6-3.2-0.5-1.9-0.5-1.8-0.7-1.3 0.3-0.2 0.2 0 0.5 0 0.4-0.2 0.5-0.6 0.2-0.1 0.5-0.4 0.2-0.2 0.5-0.8 0.2-0.3 0.3-0.9 0.5-0.7 0.3-0.4 0.2 0 0.4-0.4 0.4-0.1 0.9-0.8 0.3-0.1 0.1-0.1 1.2-0.5 0.8-0.3 0.7 0 0.5 0.3 0.5 0.1 0.7 0.2 0.1 0 0.3 0 0.1-0.1 0.8-2.9 1.9-2 1.6-1.8-0.3-1.5-0.6-1.7-4.8-5.8 1.2-3.6-3.3-3.3-1.9-4.3 1.9-9.8 8.2-15.2 2-3.3 4.3-5.7 1.1-2.7 2-0.6 6.8 2 1.6-1.1 1.2-2.1 1.4-2 0.1-3.7-1.2-3.4-1.9-6.8-2.7-3.7-3.3-5.6 0.9-3.1 5.2-6.8 1.6-2.9 3.8-11.9 1.5-6.9 0-0.1 4.9 0 7.3 0 4.3 0 4 0 3.7 0 3.5 0 7.4 0 8.7 0 0 0.1 0.1 0 0.1 0 0.1 0 0-0.1 0-0.3 0-0.1 0.8-0.3 3.5-1.1 1.3-0.4 3-1 0.3 0.8 0.1 0.6 0.1 0.5 0.2 0.4 0.1 0.4 0 0.4 0.5 0 0.9 0.1 0.6 0.1 2-0.1 0.5 0.1 1.5 0 1.1 0.2 0.4 0.2 0.7 0.3 0.2 0.3 0.1 0.1 0.4 0.7 0.3 1.3 0.3 1.5 0.2 0.4 0.2 0.6 0.1 0.8 0.2 0.6 0.1 0.7 1.3 3.9 1.6 5.6-2 3.1-3.9 6.7-3.6 2.9-4.2-0.2-1.6 0.5-0.5-0.1-1.3 0.4-0.4-0.2-0.4 0.1-0.8-0.1-0.5 0.8-0.3 0-0.4-0.3-0.1 0.1-0.6 0.1-0.3 0.1-0.3 0.3-0.3 0.5 0 0.1-0.4 0.2-0.3-0.1-0.2-0.1-0.5-0.4-0.7 0.2-0.6-0.2-0.2-0.1-0.2 0.8-1.4 5-2 4.6 0.3 2.4 0.5 2-1.1 1.4-0.4 4-2.3 1.7-0.2 1.6 8.5 5.4 10.3 4.2 3.3 2.4 3.8 3.3 0.5 5.6 3.8 2.7-1.1 3.2 0.7 6 4.1 0.6 3.8-0.6-0.2-1.3 0-0.5-0.1-0.9 0-1.5 0.7-0.8 0.8-1.2 0.8-1.5 0.6-0.6 0.6-0.6 0.6-0.1 0.5 0.4 1.3 2.4 0.6 1.2 0 0.8 0.1 2.4 0.8 1.1 0.6 2.3-3 3 0.8 1.3 0 1.6 0.7 2.7-1.2 2.1 0 0.9 0.8 1.7 0 3.3 1.2 0.2 1.1 0.1 2.1 0.3 1.5-0.4 2 0.5 2.6 0.3 0.8-0.1 0.5-0.2 0.2 0 0.1 0 0.3-0.2 0.4 0 0.3 0 0.3 0.2 0.2 0.1 0.3 0.3 1.4 0.3 1.2 0.3 1.5-0.3 3.3-2.1 0.6-0.4 1-0.5 0.8-1.2 2-1.3 1.9-2.8 0.1-0.9 0.6-1.2 0.8-0.6 1.1-0.8 0.1-0.4 0-0.3 0.2-0.4 0.4-0.2 0.6 0 0.4-0.1 0-0.3-0.3-0.6-0.2-0.3 0.1-0.4 0.3-0.3 1-0.1 0.7-0.3 5.6-2.2 3-0.8 1.1-0.7-0.3 1.4 0.4 1.4 2.8 3.5 1.7 7.9 2.9 5.8-0.2 5.5-0.2-0.2-0.1 0.1-0.1 0.1-0.1 0.1 0 0.2 0.1 0.4-0.1 0.2-0.1 0.1-0.3 0.2 0 0.1 0.2 0.2 0.1-0.2 0.2-0.2 0.1-0.2 0.1-0.1 0.1 0 0 0.1 0.1 0.3 0.1 0.4-0.1 0.1-0.1 0.1-0.1 0-0.1 0.1-0.3 0.2-0.2 0.2-0.3 0.4-0.1 0.2 0 0.7 0 0.2-0.2 0-0.2 0-0.4-0.1-0.2-0.1-0.5 0-0.3 0.1-0.2 0.3-0.2 0.1-0.3 0.3-0.5 0.2-0.3 0.3-0.4 0.4-0.3 0.2-0.2-0.1-0.4 0-0.2 0-0.3 0.2-0.3 0.1-0.3 0.1-0.2 0.1-0.3 0.2-0.2 0.4-0.1 0.4-0.1 0.7 0.1 0.4 0 0.3 0 0.3-0.2 0.3 0 0.3-0.2 0.3-0.3 0.4-0.1 0.3-0.4 0.2-0.2 0.1-0.2 0.4-0.1 0.3-0.2 0.4-0.2 0.2-0.4 0.2-0.1 0-0.5 0.2-0.2 0.2-0.2 0.3-0.1 0.1-0.3 0.1-0.5 0.1-0.8 0-0.6 0.2-0.4 0.2 0 0.1-0.3 0.3-0.3 0.5-0.2 0.1-0.8 0.3-0.1 0.1-0.1 0-0.4 0.4-0.1 0.3 0.4 0.3 0.4 0.4 0.5 0.8 0.3 0.2 0.2 0.4-0.2 0.3-0.3 0.3-0.3 0.1-0.3 0.1-0.3-0.1-0.2-0.1-0.1-0.1-0.6-0.1-0.7-0.1-0.5-0.2-0.2 0.2-0.2 0.2-0.3 0-0.2 0.2-0.1 0.2-0.3 0.3-0.1 0.3-0.1 0.2-0.3 0.2-0.2 0.2-0.3 0.1-0.3 0.3-0.2 0.1-0.1 0.3-0.3 0.3 0 0.1 0 0.4-0.1 0.5 0 0.3 0.3 0.1 0.3 0.1 0.2 0.2 0 0.2 0 0.1 0.2 0.2 0.2 0 0.3 0.2 0.2 0.2 0.2 0.3 0.2 0.4 0.3 0.3 0.8 1.1 0.7 0.7 0.1 0.3-0.1 0.5 0 0.3 0.1 0.3 0 0.1 0.2 0.3 0 0.4 0.2 0.5 0.2 0.2 1.3 0.6 0.7 0.2 0.1 0.2 0.3 0.4 0 0.2 0.1 0.8 0.1 1.7-0.1 0.2-0.3 1.8-0.1 0 0 0.7 0.7 2.4 0.1 0.4-0.1 0.3-0.1 0.1-0.2 0.8 0 1 0 0.2-0.2 0.2-0.2 0.5-0.2 0.8-0.1 0.1-0.1 0.5-0.1 0.2 0 0.2-0.1 0.1-0.1 0-0.1 0-0.1 0-0.2 0.1 0 0.1-0.1 0.2 0 0.1-0.3 0.1-0.2 0.1-0.1 0.3-0.3 0.1-0.2 0.2-0.1-0.1-0.2-0.1-0.1 0-0.2 0-0.2-0.1-0.4 0.1-0.2 0.1-0.1 0-0.2 0.2-0.3 0.2-0.1-0.1-0.2-0.2-0.4-0.1-0.3-0.1-0.2 0 0-0.3 0-0.2-0.1-0.1-0.3-0.4-0.5-0.5-0.9-0.2-0.4 0.1-0.5 0.3-0.2 0.1-0.3 0.2-0.8 0.3-0.3 0.2-0.2-0.1-0.7 0.1-0.4 0.1-0.3 0.1-0.2-0.1-0.2-0.1-0.3-0.1-0.1 0.1-0.2 0.1-0.2 0-0.1-0.2-0.1 0 0-0.1-0.2 0-0.2 0.1-0.6 0.1-0.3-0.1z" id="ML04" name="Sgou">
  </path>
  <path d="M679.6 627.3l-0.1 0.1-0.7 0.6-0.5 0.3-0.8 0.7-0.5 0.3-0.7 0.6-0.5 0.3-0.8 0.6-0.6 0.5-0.1 0-0.2 0.2-0.4 0.3-3.3 2.5-3.4 2.7-1.7 1.2-2.7 2.1-0.1 0.3-0.2 0.2-0.4 0.6-0.5 0.7-0.7 0.6-0.1 0.1-0.5 0.6-0.9 0.4-1.5 0.3-1.9 0.6-2.5 0.7-1.5 0-0.4 0-1.5 0-1.4 0.1-1.9 0.4-1.9 0.7-4.4 2-2.9 1.5-2.3 1.5-1 0.6-1.7 1.1-1.8 1-2.1 0.8-2.3 1-2.2 0.5-3.1 0.8-3.2 0.8-3.3 0.5-3 0.8-0.1 1.3 0 0.3 0 0.8-0.2 1.5 0 0.9 0 0.8-0.1 0.8 0 0.7-0.1 0.3-0.2 0.3-0.2 0.4-0.2 0.7-0.1 0.7-0.1 0.7 0.1 0.9 0 0.8 0 1 0 0.8-0.1 0.8-0.2 0.9-0.4 0.6-0.3 0.8-0.4 0.9-0.3 0.7-1.2 0.7-1.5 0.7-1 0.5-0.1 0.1-0.2 0-0.2-0.1-0.1-0.1-0.1-0.1-0.2-0.1-0.5-0.3-0.7-0.4-0.7-0.4-1.4-1-1.2-0.6-3.6-1.7-1.9-1-1.3-0.4-1.4-0.4-1.9-0.6-0.8-0.2-4.1-1.2-0.3-0.1-0.1 0.1-0.2 0.1-0.4 0.3-1.2 0.9-0.5 0.4-1.5 1.1-0.6 0.5-1.2 0.9-0.6 0.4-0.4 0.3-0.5 0.5-0.4 0.4-0.8 0.8-1.5 1.4-1 0.9 0 0.1-0.3 0.2-0.6 0.3-0.4 0.2-1.6 0.8-1.2 0.5-2.6 1.2-0.3 0.1-0.5 0.3-0.6 0.4-0.7 0.5-0.5 0.4 0 0.1-0.1 0.3-0.2 0.6-0.1 0.2-0.4 1.3-0.1 0.1 0.1 0.1 0.2 0 0.2 0 0 0.1 0.1 0 0.2 0.1 0.1 0.1 0.2 0.4-0.5 1.3-0.6 1.8-0.4 1.1-0.3 1.2-0.2 0.5-0.1 0.4-0.2 0.3-0.1 0.3 0 0.3-0.2 0.1 0 0.2-0.2 0.2-0.1 0.3-0.1 0.4-0.2 0.3-0.3 0.2-0.1 0.1 0 0.2 0 0.1-0.2 0.2-0.1 0.2 0 0.1 0 0.4 0 0.8 0 0.7 0 2.5 0 0.8 0 0.2 0.2 0.3 0.5 0.7 0.1 0.1-0.1 0.3 0.1 0.2 0.1 0.4 0.7 1.6 0.1 0.5-0.1 0.1-0.1 0-1.1 0.4-1 0.4-0.2 0.1-0.2 0.1-1 0.4-0.5 0.1-0.1-0.1 0-0.1 0-0.1-0.1-0.2-0.1-0.4-0.2 0-0.2-0.2-0.2-0.2-0.1-0.3-0.1 0-0.2 0-0.3 0-0.1 0-0.3 0-0.2-0.1-0.1-0.2-0.2 0-0.2-0.1-0.2 0.1-0.4 0.2-0.2 0.4 0 0.2-0.2 0.1 0 0.1-0.1 0.3 0 0.3-0.1 0.2-0.2 0.4-0.2 0.3-0.5 0-0.3-0.1-0.3-0.3-0.1 0-0.2-0.2-0.1-0.2 0-0.1 0.1-0.2 0.1-0.2-0.2-0.3 0-0.4 0-0.2-0.2-0.3-0.1 0-0.2-0.1-0.1 0-0.2-0.2-0.2-0.2-0.2-0.1-0.2 0.1-0.2-0.1-0.2-0.2-0.1-0.3-0.1-0.2-0.2-0.1-0.2-0.2-0.3-0.2-0.4 0-0.1 0.1-0.4 0.2-0.5 0.2-0.3-0.1-0.3 0-0.1-0.1-0.2 0.1-0.2 0.2-0.4 0-0.2 0-0.6-0.1-0.3 0.2-0.1 0-0.2 0-0.1-0.1-0.1 0-0.1-0.1-0.2 0-0.2-0.2-0.2-0.5-0.1-0.1-0.5-0.5-0.1-0.1-0.4-0.1-0.3 0-0.7-0.1-1.1-0.3-0.3 0-0.2 0.2-0.1 0.2-0.2 0.3-0.1 0.2 0 0.2 0.1 0 0.3 0 0.2 0.1 0.3 0.2 0.2 0.2 0.3 0 0.1 0.1 0.1 0.3-0.1 0.7 0 1.2-0.1 1.7-0.1 1.2 0 0.7-0.1 0.1-0.4 0.4-0.3 0.3-0.6 0.6-0.1 0.1 0.1 0.3 0.2 1.1 0.3 1.9 0.2 0.5 0.1 1.7 0.2 2 0.1 2 0.2 1.5 0 0.2 0.3 0.1 0.4 0.1 0.2 0.1 0 0.2 0 0.1 0 1 0.1 0.3 0.1 0.7 0 0.7 0 0.7-0.1 0-0.3 0-0.6 0-0.2 0-0.5 0-5.3 0.3-1.3 0.4-0.8 0-1.8 0-0.1 0-0.3 0.1 0 0.1-0.1 0.2-0.3 0.2-0.1 0.3-0.1 0.1 0.1 0.2 0 0.2 0.2 0.2 0.3 0.3 0.1 0.5 0 0.6 0.3 0.6 0.1 0.3 0.1 0.5 0 0.5 0.2 0.4 0 0.2 0.1 0-0.1 0.2-0.1 0.1-0.1 0.1-0.2 0.2-0.2 0.1-0.1 0.2-0.1 0.2-0.2 0.1-0.2 0-0.1 0-0.3 0.1-0.2-0.2-0.1 0-0.3 0-0.2 0-0.1-0.1-0.5 0-0.2-0.1-0.3-0.1-0.4-0.1-0.4-0.2-0.3 0-0.2 0.1-0.1 0-0.2 0.1-0.1-0.2-0.1 0-0.1 0.1-0.1 0.1-0.1-0.1-0.2-0.2-0.2 0 0 0.1-0.1 0.1-0.1-0.1-0.1 0-0.2 0.1-0.1 0.1-0.1 0-0.2-0.1 0-0.2 0.1-0.2 0-0.2 0-0.1-0.1-0.3-0.1-0.1 0-0.4-0.1-0.2-0.1 0-0.1 0.1-0.3-0.1-0.3 0-0.4-0.1-0.4-0.1-0.3 0.1-0.1-0.1-0.1 0-0.4-0.1-0.7-0.6-0.1 0-0.1-0.1-0.1-0.2-0.1-0.3-0.5-0.4-0.9-1-0.7-0.5-0.4-0.3-0.4-0.2-0.1-0.2-0.1-0.2-0.2 0-0.2-0.1-0.3-0.2-0.5-0.1-0.3-0.1-0.6-0.2-0.6-0.3-0.1 0-0.5-0.4-0.3-0.2 0-0.1 0-0.1-0.2-0.2-0.2-0.1 0.1-0.2 0-0.1 0.1-0.3 0-0.2-0.4-0.3-0.8-0.6-1.1-1.1-0.7-0.6-0.1 0-0.3 0.2-0.3 0.2-0.2 0-0.1 0.1-0.2 0.2-0.1 0-0.2 0-0.7 0-0.2-0.1-0.2-0.1-0.2-0.3-0.6-0.1-0.7-0.3-1.4-0.2-1.1-0.2-0.2 0.1-0.1 0-0.5 0-0.1 0-0.1 0-0.2 0.1-0.3 0.2-0.1 0.1-0.1-0.1-0.2-0.1-0.3-0.1-0.2-0.1 0-0.1 0-0.1 0-0.1 0-0.2 0-0.3-0.1-0.4-0.1-0.3 0.1-0.1 0.3-0.1 0.6-0.2 0.3 0 0.2-0.1 0-0.1 0.1-0.2 0.1-0.4 0.1-0.1 0-0.1 0.2 0 0.2 0 1.2-0.1 0.1 0 0.1-0.3 0.1-0.2 0-0.1-0.3-0.2-0.2-0.1-0.3 0-0.4 0-0.1 0-0.8-0.1-0.3-0.1 0-0.2 0-0.1 0-0.2 0-0.2 0-0.5-0.1-0.2-0.2-0.3-0.2-0.3 0-0.2 0-0.1-0.3-0.1-0.1-0.1-0.2-0.1-0.1-0.2 0.2-5.5-2.9-5.8-1.7-7.9-2.8-3.5-0.4-1.4 0.3-1.4-1.1 0.7-3 0.8-5.6 2.2-0.7 0.3-1 0.1-0.3 0.3-0.1 0.4 0.2 0.3 0.3 0.6 0 0.3-0.4 0.1-0.6 0-0.4 0.2-0.2 0.4 0 0.3-0.1 0.4-1.1 0.8-0.8 0.6-0.6 1.2-0.1 0.9-1.9 2.8-2 1.3-0.8 1.2-1 0.5-0.6 0.4-3.3 2.1-1.5 0.3-1.2-0.3-1.4-0.3-0.3-0.3-0.2-0.1-0.3-0.2-0.3 0-0.4 0-0.3 0.2-0.1 0-0.2 0-0.5 0.2-0.8 0.1-2.6-0.3-2-0.5-1.5 0.4-2.1-0.3-1.1-0.1-1.2-0.2 0-3.3-0.8-1.7 0-0.9 1.2-2.1-0.7-2.7 0-1.6-0.8-1.3 3-3-0.6-2.3-0.8-1.1-0.1-2.4 0-0.8-0.6-1.2-1.3-2.4-0.5-0.4-0.6 0.1-0.6 0.6-0.6 0.6-0.8 1.5-0.8 1.2-0.7 0.8 0 1.5 0.1 0.9 0 0.5 0.2 1.3-3.8 0.6-4.1-0.6-0.7-6 1.1-3.2-3.8-2.7-0.5-5.6-3.8-3.3-3.3-2.4-10.3-4.2-8.5-5.4 0.2-1.6 2.3-1.7 0.4-4 1.1-1.4-0.5-2-0.3-2.4 2-4.6 1.4-5 0.2-0.8 0.2 0.1 0.6 0.2 0.7-0.2 0.5 0.4 0.2 0.1 0.3 0.1 0.4-0.2 0-0.1 0.3-0.5 0.3-0.3 0.3-0.1 0.6-0.1 0.1-0.1 0.4 0.3 0.3 0 0.5-0.8 0.8 0.1 0.4-0.1 0.4 0.2 1.3-0.4 0.5 0.1 1.6-0.5 4.2 0.2 3.6-2.9 3.9-6.7 2-3.1-1.6-5.6-1.3-3.9-0.1-0.7-0.2-0.6-0.1-0.8-0.2-0.6-0.2-0.4-0.3-1.5-0.3-1.3-0.4-0.7-0.1-0.1-0.2-0.3-0.7-0.3-0.4-0.2-1.1-0.2-1.5 0-0.5-0.1-2 0.1-0.6-0.1-0.9-0.1-0.5 0 0-0.4-0.1-0.4-0.2-0.4-0.1-0.5-0.1-0.6-0.3-0.8 0.3-0.2 0-0.1 0.2-0.2 0.3-0.2 0.3-0.3 0.2-0.2 0.4-0.2 0.3-0.4 0.2-0.2 0.3-0.2 0.3-0.3 0.1-0.3 0.2-0.1 0.2-0.1 0.3-0.3 0.3-0.4 0.3-0.2 0.2-0.3 0.1-0.1 0.2-0.2 0.2-0.2 0.1 0 0.3-0.4 0.1-0.2 0.1-0.1 0.1 0 0.1-0.2 0.4-0.3 0.2-0.3 0.3-0.3 0.2-0.3 0.1-0.1 0.2-0.2 0.1 0.1 0 0.2 0.2 0 0.1 0.1 0.3 0.2 0.2 0.3 0.1 0.1 0.2 0.1 0.1 0.1 0.2 0.2 0.3 0.2 0.1 0.1 0.4 0.4 0.2 0.1 0.5 0.5 0.2 0.2 0.2 0.1 0.1 0.1 0.4 0.5 0-0.1 0.2 0.3 0.8 0.8 0.7 0.2 0.6-0.1 1.5-0.2 1.8-0.2 0.7 0 0.9 0 0.5-0.2 1.2 0 0.3 0.2 0.1 0 0.6 0 0.1 0 0.1 0.1 0.9 0 0.2 0.1 0.7 0 0.2 0.1 0.1 0.2 0.1-0.2 0.8 0 0.3 0.2 0.1 0 0 0.5 0.3-0.1 0.1-0.1 0.3-0.3 0.1-0.1 0-0.1 0.1 0 0.2 0.1 0.1-0.1 0-0.1 0.2-0.1 0.3 0 0.1 0.1-0.1 0.3 0 0.1 1-0.1 0.8 0.3 8.7 0.4 1.5-0.1 0.2 0 1.9-0.1 4.8-0.4 3-1 1-0.8 0.5-0.4 0.4-0.7 0.1-0.9 0.1-0.8 0.5-0.7 0.4-0.6 0.9-0.3 0.9 0.1 1 1 0.5 1.1 1 0.5 0.7-0.2 0.5-1.3 1.7-2 0.9-0.9 0.7-0.3 0.9-0.6 0.4 0 0.4-0.3 0.4-0.2 0.7-0.7 0.1-0.4 0.1-0.4 0.4-0.1 0.5 0.2 0.6-0.1 1.1-0.5 1.7-1.2 4.5-0.6 0.2 0.8 1.3 2.9 0.2 1.1 1.2 0.8 2.2 1 0.7 0.8 1 0.5 0.9 0 0.5 0.2 0.6 0.4 0.2 1.1 0.9 2 1 1.1 0.3 0.4 0.5 0.3 0.3 0.5-0.1 0.6-0.7 0.8-0.6 0.3-0.6 0.9 0.1 0.9 0.1 0.2 0.3 0.3 0.5 0.1 0.8-0.1 0.6-0.2 0.4 0.1 0.4 0.1 0.2 0.3 0.4 0.3 0.5 0.2 0.4-0.2 0.3 0.1 0.4 0.1 0.3 0.1 0.3-0.1 0.4 0.2 0.2 0 0.5-0.3 0.5 0 1.7 0.2 1.6 0 0.4 0.1 0.6 0.3 0.3-0.4 0.3-0.5 0.5-0.5 2.2-1.7 1.5-2.2 0.5-2.3 0.6-1 0.7-0.3 1.5-2.7 1.5-2.6 1.7 0.2 1.5 0 1.7 0.9 1.4 0.7 0.7-0.1 0.3-0.5 0.9-0.8 1.5 0.2 0.6-0.2-0.1-0.9-0.3-1 0.2-0.7 0-0.4-0.5-0.2-0.2-0.2-0.4-0.2-0.2-0.2 0.4-0.6 0.1-0.6 0.3-0.5 0.2-0.4 0.5-0.3 0.3-0.2 0.4-0.1 0.3-0.2 0.2-0.7-1.2-0.9-0.1-0.9 0.2-0.6 0.5-0.2 0.5 0.2 0.6 0.5 0.3 0.8 0.8 0.8 0.5 0 0.3 0.1 0.5 0 0.7-0.2 0.6 0 0.4 0.1 0.3 0.3-0.2 0.7 0 0.5-0.2 0.3 0 0.3 0.4 0.2 1-0.1 3.5-0.3 0.2-0.6 0-0.6 0.1-0.9 0.7-0.1 0.7 0.4 0.3 1.2 0.8 0.1 0.6-0.9 0.4-1.1 0.9-0.7 0.5-0.9 1.2 0.2 0.5 1.5 1.1 0.7 0.3 1.7 0.8 1.8 1 1.6 1.8 1.7 2.1 1.5 1.6 2.5-0.9 4.9 0.9 3.9 5.2 5.6 7.2 2.8 3.5 2.7 4.6 1 7.8 1.2 9.6 0.4 6.7-3.1 5.8-4.1 5-1.4 7.2-0.3 10.1 4.4 5.9 3.6 5 1.6 5 4.8 3 8.1 4.6 2.2 5.6-0.1 11.2-3.3 1.5-0.4 0.2-0.1z" id="ML05" name="Mopti">
  </path>
  <path d="M681.8 626.4l-0.4 0.1-0.4 0-0.1 0.1-0.9 0.4-0.2 0.2-0.2 0.1-0.2 0.1-1.5 0.4-11.2 3.3-5.6 0.1-4.6-2.2-3-8.1-5-4.8-5-1.6-5.9-3.6-10.1-4.4-7.2 0.3-5 1.4-5.8 4.1-6.7 3.1-9.6-0.4-7.8-1.2-4.6-1-3.5-2.7-7.2-2.8-5.2-5.6-0.9-3.9 0.9-4.9-1.6-2.5-2.1-1.5-1.8-1.7-1-1.6-0.8-1.8-0.3-1.7-1.1-0.7-0.5-1.5-1.2-0.2-0.5 0.9-0.9 0.7-0.4 1.1-0.6 0.9-0.8-0.1-0.3-1.2-0.7-0.4-0.7 0.1-0.1 0.9 0 0.6-0.2 0.6-3.5 0.3-1 0.1-0.4-0.2 0-0.3 0.2-0.3 0-0.5 0.2-0.7-0.3-0.3-0.4-0.1-0.6 0-0.7 0.2-0.5 0-0.3-0.1-0.5 0-0.8-0.8-0.3-0.8-0.6-0.5-0.5-0.2-0.5 0.2-0.2 0.6 0.1 0.9 1.2 0.9-0.2 0.7-0.3 0.2-0.4 0.1-0.3 0.2-0.5 0.3-0.2 0.4-0.3 0.5-0.1 0.6-0.4 0.6 0.2 0.2 0.4 0.2 0.2 0.2 0.5 0.2 0 0.4-0.2 0.7 0.3 1 0.1 0.9-0.6 0.2-1.5-0.2-0.9 0.8-0.3 0.5-0.7 0.1-1.4-0.7-1.7-0.9-1.5 0-1.7-0.2-1.5 2.6-1.5 2.7-0.7 0.3-0.6 1-0.5 2.3-1.5 2.2-2.2 1.7-0.5 0.5-0.3 0.5-0.3 0.4-0.6-0.3-0.4-0.1-1.6 0-1.7-0.2-0.5 0-0.5 0.3-0.2 0-0.4-0.2-0.3 0.1-0.3-0.1-0.4-0.1-0.3-0.1-0.4 0.2-0.5-0.2-0.4-0.3-0.2-0.3-0.4-0.1-0.4-0.1-0.6 0.2-0.8 0.1-0.5-0.1-0.3-0.3-0.1-0.2-0.1-0.9 0.6-0.9 0.6-0.3 0.7-0.8 0.1-0.6-0.3-0.5-0.5-0.3-0.3-0.4-1-1.1-0.9-2-0.2-1.1-0.6-0.4-0.5-0.2-0.9 0-1-0.5-0.7-0.8-2.2-1-1.2-0.8-0.2-1.1-1.3-2.9-0.2-0.8-4.5 0.6-1.7 1.2-1.1 0.5-0.6 0.1-0.5-0.2-0.4 0.1-0.1 0.4-0.1 0.4-0.7 0.7-0.4 0.2-0.4 0.3-0.4 0-0.9 0.6-0.7 0.3-0.9 0.9-1.7 2-0.5 1.3-0.7 0.2-1-0.5-0.5-1.1-1-1-0.9-0.1-0.9 0.3-0.4 0.6-0.5 0.7-0.1 0.8-0.1 0.9-0.4 0.7-0.5 0.4-1 0.8-3 1-4.8 0.4-1.9 0.1-0.2 0-1.5 0.1-8.7-0.4-0.8-0.3-1 0.1 0-0.1 0.1-0.3-0.1-0.1-0.3 0-0.2 0.1 0 0.1-0.1 0.1-0.2-0.1-0.1 0 0 0.1-0.1 0.1-0.3 0.3-0.1 0.1-0.3 0.1 0-0.5-0.1 0-0.3-0.2-0.8 0-0.1 0.2-0.1-0.2-0.2-0.1-0.7 0-0.2-0.1-0.9 0-0.1-0.1-0.1 0-0.6 0-0.1 0-0.3-0.2-1.2 0-0.5 0.2-0.9 0-0.7 0-1.8 0.2-1.5 0.2-0.6 0.1-0.7-0.2-0.8-0.8-0.2-0.3 0 0.1-0.4-0.5-0.1-0.1-0.2-0.1-0.2-0.2-0.5-0.5-0.2-0.1-0.4-0.4-0.1-0.1-0.3-0.2-0.2-0.2-0.1-0.1-0.2-0.1-0.1-0.1-0.2-0.3-0.3-0.2-0.1-0.1-0.2 0 0-0.2-0.1-0.1-0.2 0.2-0.1 0.1-0.2 0.3-0.3 0.3-0.2 0.3-0.4 0.3-0.1 0.2-0.1 0-0.1 0.1-0.1 0.2-0.3 0.4-0.1 0-0.2 0.2-0.2 0.2-0.1 0.1-0.2 0.3-0.3 0.2-0.3 0.4-0.3 0.3-0.2 0.1-0.2 0.1-0.1 0.3-0.3 0.3-0.3 0.2-0.2 0.2-0.3 0.4-0.4 0.2-0.2 0.2-0.3 0.3-0.3 0.2-0.2 0.2 0 0.1-0.3 0.2-3 1-1.3 0.4-3.5 1.1-0.8 0.3-0.4 0.1 0.5-0.2 0.1-0.1 0.8-3.7 1.2-5.6 1.1-5.1 0-0.3 0-0.1 0.1-0.5 0.2-0.4 0-0.1 0.1-0.7 1.1-5 0.3-1.8 0.2-1 0.8-3.8 0.1-1 1.5-7.3 0.4-2.5 0.9-4.4 0.4-2.4 0.4-1.5-8.2-5.1-5-3.2-2-1.3 0-0.4-0.2-2.2-0.7-5.7-0.7-7.2-0.4-4.7-0.8-7.9-0.1-0.7-0.5-4.9-0.8-6.9-0.8-7.5-0.7-7.2-0.6-6-0.7-6-0.7-7.1-0.8-6.8-0.6-5.5-0.5-5-1-9.7-0.4-3.8-0.3-3.1-0.8-6.5-0.6-6.5-0.8-6.3-0.6-6.3-0.8-6.5-0.4-4.5-1-8.5-0.2-2.6-0.5-4 0-0.2 0-0.1-0.7-6.1-1.2-11.5-0.7-6.2 0-0.5-0.5-4.3-1.3-11.7-0.1-2.4-0.1-3.1 0-0.5-0.1-1-1.7-15.6-1.3-12.3-1.2-11.1-1.2-11.6-0.4-3.5-0.1-0.5-0.1-0.8-0.5-5.2-1.3-12.7-1.2-11.6-1.2-10.8-1.2-12-0.7-6.2-1.6-14.1-1.4-14-1.3-11.3-1.2-11.5-0.8-9.1-0.4-4.3-0.4-3.6-1.8-15.5-1.1-9.8-0.1-0.3-0.1-0.9-0.2-2.1-0.2-2-0.1-0.7-0.2-1.4-0.1-0.8-0.1-1.6-0.2-1-0.4-3.8 0-0.5-0.1-0.7-0.4-2.8-0.5-4.7-0.1-0.2-0.3-3.2-1.1-10.3-1.3-12.6-2.2-21.3-1.2-12.5-0.3-2.4 0-0.1-0.1-1-0.1-0.2 0-0.2 0.4-0.1 5.4 0 9.3 0 16 0 22.5 0 17.5 0 2.2 0 13.3 0 9 0 0.1 0 0.1 0 0.1-0.1 0.4 0.3 1.1 0.9 4.5 3.2 3.8 2.6 3.8 2.7 3.3 2.4 10.2 7.2 11.2 7.7 6.8 4.6 0.9 0.6 5.1 3.5 1.1 0.7 0.1 0.1 16.2 11 4.7 3.2 0.5 0.3 2.5 1.7 5.9 4.2 4.8 3.2 2.2 1.7 0.1 0.1 5.3 3.6 5.2 3.6 0.3 0.2 0.1 0.1 0.8 0.5 4.5 3.2 4.3 2.9 5.6 3.9 2.5 1.7 0.1 0.1 0.5 0.3 0.8 0.6 2.6 1.8 2.3 1.6 1.4 0.9 1.9 1.4 2.6 1.8 0.9 0.5 1.2 0.9 0.3 0.2 1.5 1 0.6 0.4 3.8 2.7 1.5 1.1 0.6 0.4 0.8 0.6 0.7 0.4 2 1.4 0.4 0.3 12.3 8.7 9.5 6.5 0.6 0.4 1.1 0.8 2.1 1.5 1.5 1 0.1 0.1 1.1 0.7 0.1 0.1 1.9 1.3 7.6 5.3 5.9 4.2 15.1 10.6 8.2 5.9 11.9 8.4 15.3 11 7.2 5.2 0.3 0.2 1.6 1.1 0.5 0.4 1.8 1.3 1.7 1.2 5.7 4.1 0.5 0.4 0.4 0.3 2.9 2 0.8 0.6 1.2 0.8 0.4 0.3 1.8 1.3 0.4 0.3-0.1 0.3-12.2 39.9-36 30.8-22.2 18.9-42.1 22.8 4.1 13.4 47.3 40.7 13 2.2-3.1 60.3-9.9 6.4-22 0.6-3.8 16.3 5.2 11.4 1.5 3.6-1 4.4-4.6 4.3-2 3.8 1.4 4.5-1.2 1.8 2.5 2.8 25.5 2 9.6 0.8 8.4 0.8 3.4 2.4 1.2 7.2-1.3 7.2-0.5 2.8-2.1 11.8-8 9.5 1.9 6.5 6.4 7.2 3.3 7.7-0.8 7.5-2.7 7.1-5.8 6 0.3 3.4 2.6 2.1 5.6 0.7 0.3 3.2-2.1 4.2 2.1 8z" id="ML06" name="Tombouctou">
  </path>
  <path d="M681.8 626.4l-2.1-8 2.1-4.2-0.3-3.2-5.6-0.7-2.6-2.1-0.3-3.4 5.8-6 2.7-7.1 0.8-7.5-3.3-7.7-6.4-7.2-1.9-6.5 8-9.5 2.1-11.8 0.5-2.8 1.3-7.2-1.2-7.2-3.4-2.4-8.4-0.8-9.6-0.8-25.5-2-2.5-2.8 1.2-1.8-1.4-4.5 2-3.8 4.6-4.3 1-4.4-1.5-3.6-5.2-11.4 3.8-16.3 22-0.6 9.9-6.4 3.1-60.3 40.1 9.9 12.9 3.5 11.2 22.8 10.8 15.6-5.3 5.2 4.9 6.1 13.3-0.3 15 6.5 9.8 8 1.3 0.4 27.1-2.5 3.4 0.9-4.3 8.9-18.1 38.5 6.1 6 13.2-4 2.9 1.1 2 2.2-0.9 14.5 2.8 14.6 0 0.1-1.6-0.3 0.1 0.4 0.4 0.5-0.3 0.2-0.3 0.2 0.1 0.6 0 0.9-0.1 0.6 0.1 0.5 0 0.5-0.1 0.4-0.4 0.4-0.3 0.7-0.3 0.7-0.6 0.7-0.1 0.5 0.1 0.4-0.2 0.4 0 1-0.3 0.9 0 0.3-0.1 0.2-0.4 1 0.1 0.3-0.1 0.1-0.2 0.2-1 0.4-0.5 0-0.5 0.5-0.3 0.6-0.8 0.1-0.5 0.4-0.2 0.7-0.2 0.4-0.4 0.3-0.4 0-0.2 0.3 0 0.5 0.2 0.5-0.3 0.3-0.5 0.5 0 0.4-0.1 0.6-0.6 1-0.1 0.5 0.1 0.3-0.1 0.5 0.2 0.4 0.1 0.3 0 0.4-0.5 0-0.5 0.2-0.5 0.3-0.4 0.3-0.1 0.3 0 0.2-0.1 0.2-0.2 0-0.3 0-0.5 0.2-0.4 0.6-0.2 0.4-0.2 0.1-0.3 0.1-0.3-0.1-0.3 0-0.1 0-0.1 0.3-0.2 0.3-0.2 0.3-0.1 0.4 0 0.1-0.5 0.2-0.2 0-0.6 0.1-0.3 0.1-0.2 0.1 0 0.6 0 0.3 0.1 0.2-0.1 0.1-0.2 0.2-0.4 0-0.3 0.1-0.2 0.1 0 0.2 0 0.2 0.9 0.4-4.2 11.7-1.7 14.4-2.6 3.5-0.2 0.3 0 0.1-0.1 0-0.1 0-0.2 0.2-0.2 0.2-1.6 1.5-1.6 1.5-1.6 1.4-1.5 1.5-1.8 1.6-1.6 1.5-1.7 1.6-1.5 1.3-0.3 0.4-1.1 0.9-0.2 0.3-1.6 1.4-0.6 0.6-0.3 0.2-0.3 0.1-0.4 0.3-0.5 0.3-0.3 0.2-0.1 0-0.2 0-1 0.2-0.5 0.1-1.5 0.2-1 0-0.6 0.1-1.5 0.1-1 0-1.9 0.2-1.3 0.1-0.7 0-0.6 0-0.4 0.1-1 0.2-0.2 0.2-0.7 0.3-0.3 0.2-0.4 0-0.5 0-0.1 0-0.1 0-0.8-0.3-0.3-0.1-1.6-0.5-1.2-0.4-0.4-0.1-0.3-0.2-0.9-0.6-0.4-0.2-0.2-0.1-1.2-0.2-0.4-0.1-0.7-0.2-0.6-0.1-0.2 0.1-1.1 0.3-0.4 0.1-3.3 1-0.1 0-0.4 0.1-0.6 0.2-0.7 0.2-0.7-0.1-0.3-0.1-0.7-0.2-0.9-0.2-1-0.2-1-0.1-2.2-0.5-0.7-0.1-0.6-0.1-0.5-0.2-0.7-0.1-0.2 0-0.4 0.1-0.8 0.3-1.3 0.3-0.3 0.1-1 0.3-0.5 0-1.2 0.1-1.6 0-1.3 0-0.3-0.1-0.9 0.1-0.2-0.1-0.9-0.3-0.4-0.1-1.3-0.5-0.4-0.2-0.5-0.2-0.3-0.1-0.7-0.3-0.8-0.3-1.4-0.5-0.7-0.2-0.8-0.3-0.6-0.2-0.9-0.3-0.6-0.2-0.3-0.1-0.5-0.2-0.6-0.2-0.8-0.3-0.2 0-2.9-0.7-2.2 0.3-0.2 0.2-0.8 0.4-0.5 0.3-0.6 0.4-0.4 0.2-0.4 0.2-1.3 0.8-1.2 0.7-0.6 0.3-0.2-0.2-0.1-0.2-0.1-0.2-0.1-0.1-0.6-0.8-0.8-1.2-0.4-0.6-0.5-0.8-0.3-0.4-0.2-0.1-0.3 0-0.1 0-0.4 0-0.2 0-0.2 0-1.2 0-1.3 0-1.6 0-0.4 0-0.4-0.1-0.9 0-1.3 0-1.7 0-1.6 0-1.5 0-0.7 0-0.4 0z" id="ML07" name="Gao">
  </path>
  <path d="M954 458.2l-56-0.1-43.3 2.2-10.2-5.3-14.8-0.1-2.6 17.6-11.1 1.7-3.4-0.9-27.1 2.5-1.3-0.4-9.8-8-15-6.5-13.3 0.3-4.9-6.1 5.3-5.2-10.8-15.6-11.2-22.8-12.9-3.5-40.1-9.9-13-2.2-47.3-40.7-4.1-13.4 42.1-22.8 22.2-18.9 36-30.8 12.2-39.9 0.1-0.3 0.1 0.1 6.8 4.4 7.4 5.1 6.6 5.1 3.9 2.7 5.1 3.7 3.7 2.9 3.9 2.7 4.4 3.5 0.2 0.1 3.5 3 4.1 3 6.4 4.3 4 2.6 2.5 1.7 0.6 0.3 2.2 1.3 0.5 0.5 0.2 2 0.6 2.5 0 2.3-0.1 0.4 0 0.7 0 0.5 0 0.5 0 0.6 0.1 0.2 0.1 0.4-0.2 1.5-0.2 1-0.1 0.8-0.1 0.8-0.2 0.9-0.1 0.8 0 0.1-0.1 0.6-0.2 0.6-0.3 1.2-0.1 0.3 0 0.3-0.1 1.1 0 0.3 0 0.5 0 0.9 0 0.1 0.1 0.4 0.2 0.4 0.5 0.3 1.8 0.1 1 0 0.3-0.1 0.1-0.1 0.1-0.1 0.4-0.2 0.1-0.1 0.3-0.1 0.3-0.1 0.2 0 0.3 0.2 0.4 0 0.1-0.1 0.3-0.1 0.4-0.1 0.4-0.1 0.5 0 0.3 0 0.2 0 0.2 0.1 0.4 0.4 0.1 0.1 0 0.1 0.2 0.2 0.3 0.3 0.3 0.3 0.1 0.2-0.1 0.2 0 0.2 0.1 0.2 0.1 0.3 0 0.1 0.2 0.4 0.2 0.2 0.3 0.3 0.4 0.4 0.3 0.2 0.2 0.1 0.2 0.3 0 0.1 0.3 0.3 0.3 0.1 0.4-0.1 0.1-0.1 0-0.1 0.1-0.1 0.2 0 0.1 0.1 0.4 0.1 1.5 0.4 0.6 0.2 0.6 0.3 0.4 0.2 0.6 0.2 0.3 0.2 0.4 0.3 0.3 0.2 0.8 0.3 0.8 0.2 0.5 0.1 0.1 0 0.3 0 0.1 0 0.1 0.1 0.1 0.1 0.3 0 0.1 0 0.1-0.1 0.1 0.1 0.1 0.2 0.1 0.1 0.2 0.1 0.3 0 0.1 0 0.2 0.1 0.3 0.2 0.2-0.1 0.2 0 0.1 0.1 0.1 0 0.1 0.2 0.1 0.3 0.1 0.2 0.2 0.3 0.1 0.1 0.2 0.1 0.2 0.2 0.3 0 0.4 0 0.2 0.1 0 0.1 0.1 0.2 0.2 0.2 0.4 0.1 0.2 0.2 0.1 0.4 0 0.1 0.1 0.2 0.1 0 0.1 0.2 0 0.1 0.1 0 0.2 0.2 0.2 0.2 0.1 0.1 0.1 0.1 0.1 0 0.1 0.2 0 0.1 0 0.1-0.1 0-0.3 0.4 0 0.2 0 0.1 0.1 0.1 0.2 0.1 0 0.2-0.1 0.1-0.1 0.2 0 0.2 0 0.1 0.1 0.2 0.3 0.1 0.1 0.1 0.1 0.1 0.2 0.1 0 0.2-0.2 0.4-0.1 0.3-0.1 0.2 0 0.3-0.2 0.3 0 0.2-0.1 0.1 0.1 0.2 0.1 0.2 0.2 0.1 0.1 0.3 0.1 0.1-0.1 0.2 0 0.3-0.2 0.1-0.1 0.1 0 0.1 0 0.2 0.2 0.4 0 0.2-0.1 0.1 0 0.1 0.1 0.2 0.5 0.5 0.1 0 0.5 0.5 0.3 0.1 0.2 0.1 0.3 0.2 0.1 0 0.1 0.1 0.1 0.1 0.1 0.2 0.2 0.2 0.2 0.2 0.5 0.1 0.1 0.1 0.2 0.2 0.1 0.2 0.1 0.2 0.1 0 0.2-0.1 0.1 0 0.2 0 0.6 0.1 0.2 0.2 0.2 0.1 0.3 0.4 0.2 0.3 0.1 0.3 0 0.2-0.1 0.2 0.1 0.2 0.2 0.2 0.3 0.2 0.1 0.3 0.2 0.2 0.1 0.3 0.1 0.1 0.1 0.1 0.4 0.2 0.2 0 0.6 0 0.7-0.1 0.6-0.1 0.4 0 0.3 0 0.2 0.1 0.2-0.1 0.3 0 0.1 0.1 0.2 0.1 0.2 0 0.2-0.2 0.2 0.1 0 0.2 0 0.2 0 0.3 0.2 0.3 0.2 0.1 0.2 0.2 0.1 0.2 0.1 0.1 0.1 0.2 0 0.2 0 0.3-0.1 0.1-0.1 0.2-0.1 0.2 0.1 0.2 0.2 0.3 0.2 0.1 0.1 0.1 0.3 0.3 0.3 0.2 0.2 0.1 0.2 0.1 0.6-0.6 0.1-0.3 0.2-0.5 0.1-0.3 0.1-0.2 0-0.1 0.2-0.1 0.3 0 0.3 0.2 0.3-0.1 0.2-0.1 0.3-0.2 0.2-0.2 0.1 0 0 0.2 0.2 0.4 0.1 0.1 0.1-0.1 0.2-0.1 0.3-0.1 0.2-0.4 0.1-0.3 0.2-0.2 0.3 0 0.2-0.1 0.3-0.4 0.2-0.1 0.3-0.1 0.4 0.1 0.2 0 0.1 0.3 0.3 0.2 0.3 0.1 0.4 0.5 0.5 0.3 0.3 0 0.4-0.1 0.3-0.1 0.4 0.2 0.4 0.4 0.4 0 0.5-0.3 0.3-0.2 0.1-0.4 0.1-0.4 0.2-0.1 0.3 0 0.4 0.1 0.3 0 0.3 0 0.2-0.2 0.1-0.3 0.2-0.3 0.3 0 0.2 0 0.4-0.4 0-0.2-0.1-0.2 0.1-0.2 0-0.2-0.1-0.4 0-0.1 0.2-0.3 0-0.2 0-0.2 0.1-0.1 0.1-0.1 0.4 0.1 0.2-0.1 0.3-0.2 0.2 0.1 0.2 0.1 0.2 0.2 0.2 0.2 0.2 0.1 0.1 0.2 0.2 0.1 0.4 0 0.3 0.3 0.3 0 0.2 0 0.3-0.1 0.3 0 0.2 0.1 0.2 0 0.3 0.2 0.2 0.2 0.1 0 0.1 0.3 0.2 0.3 0.2 0.1 0.3 0 0.2 0 0.1 0.2 0.3 0.2 0.1 0.2-0.1 0.2 0.1 0.3-0.2 0.1-0.1 0.2-0.1 0.2 0.1 0.4 0.1 0.3 0 0.3 0.2 0.1 0.1 0.2 0.2 0.2 0 0.2 0 0.2 0 0.2 0.3 0 0.1 0.2 0.3 0 0.1-0.1 0.3 0 0.2 0.2-0.1 0.2 0 0.2 0.1 0.1 0.2 0 0.2 0 0 0.2-0.1 0.2 0.2 0.1 0.2 0.2 0.2 0.2 0.1 0.2-0.1 0.2-0.1 0.1-0.1 0.2 0 0.3 0.1 0.3 0.3 0.5 0.3 0.2 0.2 0.1 0.1 0.1 0.1 0.3 0.2 0 0.2-0.1 0.4-0.1 0.3 0.1 0 0.2 0.2 0.4 0.2 0.3 0 0.3 0 0.3 0 0.4-0.3 0.4-0.2 0.3-0.2 0.2-0.1 0-0.2 0-0.2 0.2-0.1 0.3 0.1 0.3 0.2 0.5 0.1 0.4 0 0.5 0 0.3-0.1 0.3 0 0.2-0.2 0.5-0.1 0.3 0 0.3 0 0.1 0.2 0 0.6-0.3 0.3-0.3 0.1-0.2 0-0.6 0-0.1-0.1-0.3 0.1-0.2 0.1-0.1 0.1-0.1 0.2-0.1 0.3-0.4 0.3-0.1 0.4 0.1 0.5-0.1 0.3-0.1 0.2-0.3 0.3-0.3 0.2-0.1 0.4 0.1 0.1-0.1 0.1-0.2 0.1-0.1 0.2-0.2 0.2 0 0.2 0 0.2 0.3 0.1 0 0.5 0.3 0.4-0.2 0.3 0 0.2 0.1 0.3 0.1 0.2 0 0.1-0.3 0.1-0.1 0.2 0 0.2 0.3 0.1 0.3 0.3 0.3 0.2 0.5 0.1 0.4 0.2 0.1 0.5 0.3 0.3 0.4 0 0.2 0 0.3 0 0.1 0.2 0.1 0 0.1 0.1 0.1 0.1 0.2 0.6-0.1 0.4-0.1 0.2 0.2 0.5 0 0.3-0.1 0.1-0.4 0.2-0.2 0.3-0.1 0.3 0 0.1-0.2 0.2-0.2 0.3-0.1 0.2 0.1 0.3 0.1 0.2 0.1-0.1 0.2 0 0.1 0.1 0 0.9-0.3 0.5-0.3 0.3-0.1 0-0.2-0.1-0.2 0-0.2 0.2-0.5 0-0.4 0-0.1 0.2-0.4 0.2-0.3 0.2-0.2 0.2-0.1 0.2 0 0.2 0.1 0 0.2 0.3 0.1 0.2 0.2 0.2 0.2 0 0.2 0 0.2 0 0.1 0 0.2-0.2 0.2 0 0.2 0.1 0.2 0.3 0.2 0 0.2 0 0.2 0.1 0.2 0.1 0.6 0.2 0.2 0.1 0.3-0.1 0.1 0 0.3 0.1 0.1 0.2 0.1 0.3 0.5 0 0.2 0.1 0.2 0.3 0.2 0.1 0.2 0.1 0.2 0.2 0 0.5-0.1 0.3 0 0.3 0 0.2 0.1 0 0.1 0.2 0.1 0.2 0.1 0.1 0.1 0 0.3 0 0.1 0.2 0.2 0.2 0 0.2 0.1 0.1 0.1 0.1 0 0.3 0.1 0.4-0.1 0.4 0.1 0.5 0.1 0.6 0.2 0.4 0 0.3 0 0.4-0.2 0.6 0 0.3 0.1 0.3 0.2 0.3 0.1 0.2 0.2 0.1 0.1 0.1 0.2 0.1-0.1 0-0.2 0-0.1 0.3 0 0.6 0 0.5 0 0.2 0.1 0.3 0.3 0.4 0.1 0.4 0 0.3 0.2 0.2-0.1 0.4 0 0.2 0 0.2 0 0.2 0.2 0.3 0 0.2 0 0.4-0.1 0.3 0.1 0.2 0.2 0.3 0.1 0.3 0.1 0.3 0.2 0.3 1.1 0 0.1 0.1 0.1 0.5 0.3 0.4 0.2 0.2 0.2 0.5 0.4 0.3 0.2 0.5 0 0.9 0.2 0.4 0.2 0.4 0.1 0.4 0.2 0.2 0.2 0.3 0.3 0.4 0.1 0.1 0.1 0.2 0.1 0.2 0.3 0.1 0.1 0.5 0.2 0.4 0.1 0.2 0.1 0.2 0.4 0.3 0.4 0.1 0 0 0.1 0.2 0.1 0.5 0.1 1.1 0.3 0.1 0 0.5 0.2 0.1 0 0.4 0.2 0.1 0.1 0.1 0 0.1 0 0.2-0.1 0.3 0 0.2 0 0.2 0 0.6 0 0.3 0.1 0.2 0 0.2 0.1 0.2 0.1 0.4 0.1 0.2 0.2 0.2 0.7 0 0.1-0.1 0.2-0.2 0.3-0.1 0.3 0 0.1-0.1 0.2-0.2 0.4 0 0.3-0.1 0.3-0.1 0.5 0 0.1 0 0.3 0.3 0.6-0.1 0.5 0 0.4-0.2 0.3-0.1 0.1-0.5 1.1-0.1 0.3 0 0.4 0 0.3 0.1 0.3 0 0.1-0.1 0.1 0 0.2 0.1 0.6 0 0.1 0.4 0.6 0.1 0.3 0.1 0.3 0.1 0.2 0.2 0.1 0.1 0.1 0 0.1 0 0.2 0 0.7-0.5 0.8-0.4 0.5-0.1 1.3 0 0.4 0.3 0.7 0 0.1 0.2 0.4 0.1 0.1 0.1 0.2 0.3 0.4 0.8 0.9 0.1 0.3-0.1 0.3-0.1 0.1-0.1 0.5-0.2 0.2-0.2 0.2-0.3 0.4 0.1 0.4 0 0.3 0.1 0.2 0.2 0.2 0.1 0.2 0 0.4 0.1 0.2 0.1 0.3 0.2 0.3 0.1 0.2-0.1 0.2 0.4 0.6 0.2 0.5 0.2 0.6 0.4 0.6 0.3 0.7 0.2 0.4 0.1 0.4 0 0.3-0.1 0.4-0.1 0.4-0.1 0.2-0.2 0.2-0.5 0.2-0.5 0.3-0.9 0.6-0.6 0.2-0.1 0.1-0.3 0.6-0.3 0.7-0.4 0.9-0.3 0.6-0.2 0.7-0.2 0.5-0.1 0.4-0.3 0.2-0.3 0.4-0.5 0.4-0.5 0.4-0.3 0.4-0.3 0.3-0.2 0.1-0.2 0.2-0.2 0.1 0 0.1-0.1 0.1-0.2 0.2-0.1 0-0.2 0.1-0.1 0.3-1.2 1.1 0 1-0.3 0.3-0.1 0.6 0.1 0.2 0.1 0.2 0.1 0.1 0 0.4 0 0.2 0.2 0.3 0.9 0.3 0.4 0.3 0.1 0.1 0.2 0 0.3 0 0.2 0 0.2 0.2 0.1 0.1 0 0.2 0.2 0.2 0.3 0.2 0.2 0.2 0.1 0.1 0.2 0.1 0.2 0 0 0.1 0.7 0.5 0.1 0.1 0.1 0 0.1 0.2 0 0.1 0.7 0.4 0.9 0.3 0.3 0.4 0.1 0.2 0.1 0.1 0.2 0.1 0.2 0.3 0.2 0.1 0.2 0.1 0.3 0.2 0.2 0.1 0.4 0.2 0.6 0.8 0.5 0.8 0.1 0.3 0.2 0.1 0.4 0 0.6 0 0.2 0 0.3 0.1 0.2 0.3 0.4 0.3 0.1 0.1 0 0.2 0.2 0.3 0.3 0.2 0.3 0.3 0.8-0.2 1.8-0.4 1-0.2 0.5-0.1 2.9-0.6 2.1-0.4 3.7-0.8 4.3-0.8 3.2-0.7 14.5-3 0.7-0.3 0.9-0.2 6.6-1.3 5.1-1.1 0 0.1 0 6.9 0 7.2 0 7.2 0.1 7.2 0 0.1 0.6 0 0 3.6 0 4.2 0 4.3 0 4.1 0 4.4 0 4.1 0 4.2 0 4.3 0 1.9 0 2.1-0.1 0.1-0.1 0-0.3 0z" id="ML08" name="Kidal">
  </path>
  <path d="M280.6 762.5l0.2-0.2 0.2-0.1 0.3-0.3 0.4-0.3 0.2-0.2 0.5-0.4 0.3 0.6 0 0.3 0.1 0.2 0.1 0.1-0.1 0 0 0.1 0.1 0.1 0 0.1 0.1 0 0 0.1 0.1 0 0 0.1 0.1 0 0.1 0 0.1 0 0.1 0 0.1 0 0.1 0 0 0.1 0.1 0 0.1 0 0.1 0 0 0.1 0.1 0.1 0 0.1 0 0.1-0.1 0 0 0.1 0 0.1 0.1 0 0 0.1 0 0.1 0 0.1 0 0.1 0 1.1 0 2.3-0.4 0.4 0 0.1-0.2 0.1-0.2 0.3 0.1 0.7 0 0.4 0.1 0.4 0 0.3 0.1 1 0.2 1.1-0.9 0.8-1.4-0.5-1.5-0.7-0.6-1.3-0.1-0.2-0.4-1.1-0.1-0.3-0.1 0-0.1 0-0.1 0 0-0.1-0.1 0-0.1 0 0-0.1-0.1-0.1-0.1 0-0.1-0.1-0.1-0.1-0.1 0 0-0.1-0.1-0.1-0.1 0 0-0.1-0.1 0 0-0.1-0.1-0.2-0.1 0-0.1 0-0.1 0-0.1 0-0.2 0.2 0 0.1 0 0.1-0.1 0.2 0 0.2 0.1 0.2 0 0.1 0.1 0.1 0 0.1 0 0.2 0.1 0.1-0.5 0-0.2 0-0.3 0.1-0.1 0.1-0.2 0-0.2 0.1-0.1-0.1-0.2 0-0.1 0-0.2 0 0-0.1 0-0.1 0-0.1 0.1-0.1 0-0.1 0.1-0.1 0-0.1 0-0.1-0.1-0.1-0.1 0-0.1-0.1 0.1 0-0.1-0.1 0.1-0.1 0-0.1-0.1 0 0-0.1 0-0.1 0-0.1 0-0.1 0.1 0 0-0.1 0.1 0 0.1 0 0 0.1 0.1 0 0.1 0 0.1 0 0-0.1 0.1-0.7 0.1-0.3 0.1-0.3 0.1 0 0.1-0.3 0-0.1 0-0.2 0.2-0.7 0-0.1 0.1-0.2 0.1-0.4 0.1-0.3 0.1-0.4 0.1-0.2 0.1-0.3 0.1-0.3 0.1 0 0.1 0.1 0 0.1 0 0.1 0.1 0.1 0.1 0.1 0 0.1 0 0.2 0.1 0 0 0.1 0.1 0.1 0.1 0.1 0.1 0 0.1 0 0.1 0 0.1 0 0.1 0 0 0.1 0.1 0 0.1-0.1 0-0.1 0.1 0 0.1 0 0-0.1 0.1-0.1 0-0.1 0-0.1 0-0.1 0-0.1-0.1-0.1-0.1 0.1 0-0.1 0.1 0 0-0.1-0.1 0 0.7-0.2 0.1 0 0.1 0 0.2 0 0.2 0 0.3 0 0.2 0 0.2 0 0.3-0.3z" id="MLBKO" name="Bamako">
  </path>
  <path d="M793.1 615l2.6-3.5 1.7-14.4 4.2-11.7-0.9-0.4 0-0.2 0-0.2 0.2-0.1 0.3-0.1 0.4 0 0.2-0.2 0.1-0.1-0.1-0.2 0-0.3 0-0.6 0.2-0.1 0.3-0.1 0.6-0.1 0.2 0 0.5-0.2 0-0.1 0.1-0.4 0.2-0.3 0.2-0.3 0.1-0.3 0.1 0 0.3 0 0.3 0.1 0.3-0.1 0.2-0.1 0.2-0.4 0.4-0.6 0.5-0.2 0.3 0 0.2 0 0.1-0.2 0-0.2 0.1-0.3 0.4-0.3 0.5-0.3 0.5-0.2 0.5 0 0-0.4-0.1-0.3-0.2-0.4 0.1-0.5-0.1-0.3 0.1-0.5 0.6-1 0.1-0.6 0-0.4 0.5-0.5 0.3-0.3-0.2-0.5 0-0.5 0.2-0.3 0.4 0 0.4-0.3 0.2-0.4 0.2-0.7 0.5-0.4 0.8-0.1 0.3-0.6 0.5-0.5 0.5 0 1-0.4 0.2-0.2 0.1-0.1-0.1-0.3 0.4-1 0.1-0.2 0-0.3 0.3-0.9 0-1 0.2-0.4-0.1-0.4 0.1-0.5 0.6-0.7 0.3-0.7 0.3-0.7 0.4-0.4 0.1-0.4 0-0.5-0.1-0.5 0.1-0.6 0-0.9-0.1-0.6 0.3-0.2 0.3-0.2-0.4-0.5-0.1-0.4 1.6 0.3 0-0.1-2.8-14.6 0.9-14.5-2-2.2-2.9-1.1-13.2 4-6.1-6 18.1-38.5 4.3-8.9 11.1-1.7 2.6-17.6 14.8 0.1 10.2 5.3 43.3-2.2 56 0.1 0 1.6 0 4.1 0 7.1 0 7.2 0 7.1 0.1 7.2 0 7.1 0 7.2 0 3.6 0 5.9-0.3 0-0.8 0 0 0.1 0 0.6-0.2 0-0.4 0.2-0.3 1-0.1 1.1 0.3 5.6-0.2 0.6-0.8 1.2-0.1 0.5 0 3.7 0 7.7 0.1 4.9 0 6.4-0.4 1.3-0.8 0.7-2.4 1.3-1.3 1-1.1 1.1-0.8 1.3-4.9 12.2-0.3 1.6 0.2 1.6 0.7 1.7 0.1 0.1 0 0.1 0 0.1 0 0.3 0 0.2-0.1 0.2-3.2 3.2-0.8 1.3-0.4 1.1-0.5 5.6-0.4 2.2-0.7 1.7-0.2 0.3-1.3 1.7-2.1 1.1-2.1 0.4-2.3 0.5-2 1.1-2.7 3-1.6 1.8-4.9 3-0.5 1.5-0.5 6.1-0.5 0.4-0.5-0.1-0.3-0.1-5.7-1-10.4-1.8-6.6-1.1-2.2 0-0.8 0.2-0.4 0.3-0.2 0.6-0.1 1.1 0 2.1-0.3 0.7-2.7 0.1-2.5 0.1-3.8-0.1-2.1-0.1-4.9-0.1-2.1-0.1-1.5 0.1-2.7 0-2 0.2-5 0.2-2.8 0.2-2 0-3.1 0.2-1.9 0.1-4.7 0.3-2.2 0.1-2 0.1-2.3 0.1-2 0.2-2.9 0.1-0.4 0-4.1 0.3-4.5 0.2-2.3 0.1-0.2 0-5.3 0.2-5.3 0.2-5.3 0.2-5.4 0.2-4 0.1-0.9 0.2z" id="ML09" name="Menaka">
  </path>
 </g>
 <g id="points">
  <circle class="10.884278381534754|-11.415132913023848" cx="90.9" cy="864" id="0">
  </circle>
  <circle class="16.827534657866988|-3.174092967056483" cx="545.5" cy="526.2" id="1">
  </circle>
  <circle class="24.25660500328228|3.4187389897174096" cx="909.1" cy="88.2" id="2">
  </circle>
 </g>
 <g id="label_points">
  <circle class="Kayes" cx="156.3" cy="697.7" id="ML01">
  </circle>
  <circle class="Koulikoro" cx="297.5" cy="707.9" id="ML02">
  </circle>
  <circle class="Sikasso" cx="318.1" cy="848.4" id="ML03">
  </circle>
  <circle class="Sgou" cx="393.1" cy="705.1" id="ML04">
  </circle>
  <circle class="Mopti" cx="524.5" cy="652" id="ML05">
  </circle>
  <circle class="Tombouctou" cx="507.5" cy="253.8" id="ML06">
  </circle>
  <circle class="Gao" cx="738" cy="524.2" id="ML07">
  </circle>
  <circle class="Kidal" cx="784.1" cy="383.8" id="ML08">
  </circle>
  <circle class="Bamako" cx="280.7" cy="766.1" id="MLBKO">
  </circle>
  <circle class="Menaka" cx="883.5" cy="530.7" id="ML09">
  </circle>
 </g>
</svg>