<?xml version="1.0"?>
    
<!--********* Copyright (c) 2024 Pareto Softare, LLC DBA Simplemaps.com ***************************************
************* Free for Commercial Use, full terms at  https://simplemaps.com/resources/svg-license ************
************* Attribution is appreciated! https://simplemaps.com *******************************************-->

<svg baseprofile="tiny" fill="#6f9c76" height="481" stroke="#ffffff" stroke-linecap="round" stroke-linejoin="round" stroke-width=".5" version="1.2" viewbox="0 0 1000 481" width="1000" xmlns="http://www.w3.org/2000/svg">
 <g id="features">
  <path d="M860.6 274.6l-2.4-2.8-5.8-9.4-0.4-0.5-0.4-0.4-0.6-0.2-12 0.6-5.3 1.1-13 0.5-2.5 0.7-4.8 2.4-3.4-6.3-1.7-2.5-0.8-0.9-0.9-0.8-0.8-0.6-0.9-0.5-3.1-1.3-0.5-0.3-0.5-0.4-0.3-0.6-0.3-0.8-0.1-1.1 0.1-3.3 0.9-7.6-0.2-1.1-0.4-0.5-0.6-0.5-5-2.7-12.9-10.4-17.1-3.8-5.5-2.6-1.5-0.3-0.8 0-0.8 0.1-1 0.3-4.8 2.6 0.3-5-0.3-3.8-1.2-5.3-1.2-2.5-0.3-0.6-1.5-2.9-0.7-7.2 0.4-2.9 0.7-1.8 0-2.5-0.3-2.4-0.5-1.7-1.7-4.3-5.5-10.3-1.1-2.6-0.5-1.5 0.3-1 0.7-2.1 0-0.8-0.1-1.2-1.1-3.2-0.9-5.8-0.1-2 0.1-0.2 0.1-0.2 0.5-0.4 0.2-0.4 0.1-0.3 0-0.2-0.1-0.3-2.1-3 0-0.1 8.6-3.9 1.2-0.2 3.1 0.3 2.5 1.3 0.8 0.2 0.9 0 1.2-0.4 2.6-1.3 1.7-1.5 0.6-0.5 0.6-0.3 0.6-0.1 1.5-0.1 0.5-0.3 0.3-1 0-1.5 0.1-0.7 0.3-0.8 2-4 0.7-1 0.8-0.9 5.8-4.4 0.7-1.1 0.5-0.4 1.5-1.1 0.5-0.5 1.4-1.2 4.9-2.6 0.6-0.1 1.2 0.2 0.6 0 0.4-0.2 3.4-3.5 0.6-0.4 1.2-0.3 0.6-0.3 1.7-1.8 2.4-1.4 2.4-0.9 1.3 0.2 2.6 1.3 1.4 0.4 5.2-0.8 2.7 0.7 6.9 4 0.5 0.5 0.4 0.6 0.6 1.3 0.4 0.6 4.1 4.6 4.5 3.4 0.5 0.2 1.8-0.1 0.6 0.2 1 0.1 2-0.4 3 0.7 0.9 0 1-0.3 8.5-5 2.4-0.7 2.3 0.1 2.3 0.9 7.8 3.1 1.2 1.1 1 1.5 0.9 1.7-6 13.4-0.4 1.1-6 13.5-5.9 13.4-0.1 0.7 0.4 1.5 0 0.8-0.5 1.3-7 10.9 0.1 1.1 0 0.7 0.6 8.4-0.1 0.9-4.1 2.6-0.1 0.1-1.1 0.7-2.3 1-0.6 0.8 0 0.4 0.4 2.7 0 0.2 0.9 5.4 0.3 0.2 0.1 0.5 0.7 0.9 7.2 7.7 1.7 0.9 1.7-1.1 3.1-4.1 2.8-1.8 1.7-0.6 5.2 1.2 2 0 7.2-1.6 2-0.1 0.8 0.1 3.4 1.5 2.1 0.8 0.7 0.4 6.9 6.5 1.3 0.1 1.1-1.4 0.5-0.9 0.2-0.2 0.9-1.5 0.5-0.4 1.5-1.3 6-8 0.8-0.7 1.3-0.5 4.5 0.3 0.7 0 1.9-0.9 1.6-0.3 1.7 0 0.7 0.2 1.3 0.8 0.8 0.2 5.4 0.4 2 1 1.8 2.2 3 5 1.5 1.6 5.8 2.6 2.5 0.9 0.7 0.5 0.4 0.6 0.2 0.8 0.3 3 0.2 0.7 0.3 0.5 0.3 0.2 0 0.1 0.3 0.1 0.1 0 2.6 1.1 1.1 0.3 0.6 0.4 0.2 0.6-0.2 0.4-0.6 0.9-0.2 0.6 1.1 0.4 4.4 4 0.4 0.5 0.4 0.8 0.2 0.7 0.4 0.5 0.7 0.2 0.1 0.2 0.4-0.1 0.5 0.2 1.2 0.9 2 2.4 0.8 1.2 0.7 1.5 0.2 0.8 0 2.4 0.1 0.5 0.1 0.3 0.1 0.2 0.4 0.6 0.9 1 0.4 0.5 0.2 0.3 0 0.4 0.2 0.3 0.2 0.3 0.3 0.1 0.5 0 0.3 0.1 0.1 0.3-0.1 0.4-0.2 0.3-0.1 0.3 0 0.6 0.1 0.2 0.1 0.1 0.1 0.2 0.2 0 0.1 0.2 0 0.2-0.1 0.3 0 0.3 0 0.9-0.4 1.3 0 0.7 0.1 0.4 0.4 0.7 0.1 0.3 0 0.4-0.2 0.3-0.2 0.3-0.2 0.3-0.1 0.1-0.2 0.5-0.4 0.4-0.7-0.3-1-0.1-0.2 0.6-0.2 0.3-0.5 0.7-0.2 0.2-0.7 0.4-0.4 0.2-0.8 0.8-0.1 0.1-0.3 0-0.6-0.1-1-0.9-0.6-0.1-0.7 0-2.1-0.4-1.4 0.1-2.5 0.6-1.3 0-7.2-2-0.7-0.3-0.7-0.6-0.8-1.7-0.5-0.7-0.6 0.2-0.7 0.8-0.4 0.3-0.5-0.2-0.3-0.5-0.1-0.7-0.2-0.6-0.6-0.3-0.9 0.3-0.7 0.8-0.3 0.6-0.2 0.2 0 0.1-0.4 0.8-0.6 0.1-0.1-0.1-0.1 0.7-0.3 0.1-1-0.2-1.1-0.6-1-0.4-0.4 0.2-0.8 0.5-0.5 0.2-2.2 0-1.1-0.3-1.8-0.9-1-0.3-0.9-0.1-0.9 0-0.9 0.3-0.9 0.6-1.1 1-0.4 0.1-1.5 0.1-0.5 0.2-2.2 1.7-0.9 0.1-1.4 0.4-0.7 0.3-0.6 0.4-0.3 0.5-0.2 0-0.6 0.9-0.6 0.5-0.1 0-0.1 0.1 0 1-0.4 0.2-1.5 0.2-0.1-0.1-0.1 0.1-1.1 0.1-0.7-0.1-1.2-0.8-0.2-0.2-0.3-0.8-0.5-0.7-0.1-0.1-0.3-0.6-0.4-0.4-0.3 0-1.2 0.9-0.5 0.1-0.1 0-0.5-0.3-2.3 0.6 0.5 1.3 0 0.6-0.2 0.6-1 1.4-0.3 1.1-0.1 2.3-0.7 1.2 0 0.2-1.1 0.3-9.4-0.6-3.6-0.8-0.5 0-0.2 0.1-0.6 0.7-1.8 1.5-0.4 0.2-1.7 0.2-1.2 0.4-0.6 0.5z" id="MN061" name="Dornod">
  </path>
  <path d="M109.2 117.5l0.7 0.4 1.5 0.9 0.3 0.3 0.2 0.2 0.2 0.3 0.7 1.9 0.8 2.7 0.3 1.4 0 0.2 0 1.1 0.1 0.3 0.1 0.5 0.1 0.4 1.9 3 0.4 1 0.5 2.1 0.1 0.2 0.2 0.5 0.2 0.4 0.1 0.5 0.2 0.5 0.2 0.2 0.3 0.3 0.7 0.8 5.3 2.6 3 2.5 0.3 0.7 0.2 0.7-0.1 0.5 0 0.2 0 0.4 0.1 0.1 0.1 0.5 0.5 1.1 0.1 0.2 0.1 0.1 0.8 0.4 1.6 0.1 2.8 0.4 0.7 0.1 0.2 0.1 0.2 0.2 0.1 0.5 0.1 1.2 0 0.3 0 0.2-0.1 0.5 0 0.2 0 0.3 0 0.2 0.1 0.4 0.2 0.3 1.8 2.8 0.2 0.3 0.3 0.2 0.1 0.1 0.6 1.9 1.7 3.8 0.4 0.4 0.7 0.5 2.1 0.7 0.4 0.2 0.2 0.2 0.2 0.3 0.6 1.1 0.9 0.9 0.3 0.4 0.1 0.2 0.4 1 1 3.5 0.1 0.4 0.1 0.3 0 0.3-0.1 1.1 0 0.8-1.4 0.1-2.8-0.7-2.9 0.6-8.5 4-3 0.6-0.1 0.5 0.1 0.4 0.2 0.4 0.3 0.3 2 0.9 0.5 0.4 0.4 0.8 1 3.2 0.1 0.9-0.1 0.6-1.1 1.7-0.4 0.9 0 1.1 0.1 1.3 0.3 1.1 0.6 3.7 0.1 1 0.1 0.6 0.2 0.7 0.5 0.5 1.4 1 0.4 0.5 0.9 1 0.3 0.4 0.3 0.7 1.1 4 2.3 7 0.8 1.5 0.6 0.7 0.6 0.8 0.5 1.1 1.9 5.8 0.2 0.9 0 1.1 0 0.8-0.2 0.7-0.2 0.5-0.2 0.6 0.1 0.8 0.7 1.2 3.9 4.8 1.8 2.8-0.1 1.4-1.3 3.4-0.2 0.9-0.1 0.9 0 0.9 0.3 0.9 0.6 1.1 1.3 1.1 0.8 0.6 1.1 0.4 2.3 1.6 2.9 2.7 2 2.9 2.3 1.5 0 1-0.2 0.8-0.7 0.6-0.5 0.3-4.1-0.6-3.5 0.4-0.5-0.2-0.8-0.6-0.6 0.2-0.3 0.3-0.4 0.7-0.5 1.5-0.5 0.6-0.7 0.2-0.9-0.2-0.9-0.6-0.7-0.9-1.1-1.8-0.6-0.6-0.9 0-0.8 0.1-0.9 0-1.8-0.8-2-0.5 0-0.1-0.2-0.7-0.5-1.2-0.4-0.1-0.8-1.4-0.1 0-0.2-0.4-0.3-0.9-0.4-0.6 0.4-1.2-0.1-0.3-0.3-0.7-0.6-0.7-0.1-1.1-0.6-1-0.4-0.3-0.3-0.5-0.6-0.5-0.6-0.4-0.6-0.2-0.7 0.1-0.6-0.2-1.7-2.2-0.6-1-0.8-0.9-0.7-1.3-0.4-1-0.6-0.8-0.1-0.1-2-3.6-0.4-1-0.3-0.3-0.5-0.7 0-0.4 0.4-0.5 0.1-1 0.4-0.6-0.5-0.5-0.5-0.8-0.6-0.5 0-0.1 0.1-1.5 0.4-0.7-0.1-0.9 0-0.2-1-1.2-0.7-0.3-1.4-2.7-0.2-0.3-0.3-0.6 0.2-1.5 0.2-0.2-0.1-0.5-0.6-0.5-0.6-0.3-0.8-0.2-0.2-0.2-0.4-0.1-0.6-0.1-0.7-0.1-1.3-0.6-1.2-0.9-1-1.1-0.4-0.5-0.2-0.6 0.1-1.3 0.4-1-0.6-0.2 0.1-0.3-0.1-0.8-0.4-0.5-1.2 0-1.1-0.4-0.5 0.3-0.2 0.5 0 0.6-0.1 0.5-0.4 0.5-0.9 0.4-3 0.2-0.9-0.2-0.3-0.5-0.3-1.2-0.1-0.4 0-0.1-0.1 0-0.9-0.6-0.2-0.1-0.1-0.1-0.4 0-0.3-0.2-0.3-0.6-0.3-0.7-0.2-0.6-0.4-0.2-0.5-0.1-0.4-0.4-0.2-0.6 0-0.7 0-0.1 0.6-0.6-0.6 0.1-0.1-0.6-0.8-0.5-1.1 0.1-0.8 0.3-1.4 0-0.5 0-1.1-0.7-0.4 0-0.6 0.3-1.4 1.1-0.5 0.5-0.6 0.6-0.8 0.1-1.4-0.3-2.6 0-0.8-0.3 0-0.1-0.1 0-0.3-0.5-0.3-0.6-0.7-0.8-1.9-2.4-0.4-0.4-0.8-0.2-1.6 0.2-0.4 0-0.2-0.1-0.1 0.1-0.9-0.6-1.9-2-0.8-0.3-0.7 0.1-0.5-0.2-0.4-0.3-0.1-0.4-0.2-0.4-1-1.9-0.1-0.9-0.2-0.6 0.4-0.7 0.3-1.1-0.6-0.4-0.1-0.4-1.6-1.9-0.1-0.3-0.1 0.1-0.7-0.3-0.5 0.1-0.6 0.2-0.6-0.1-0.9-0.5 0-0.1-0.1 0-1.2-1.7-0.3-0.8-0.4-0.3-1-0.5-0.2 0-0.6 0-2.4-0.3-0.6-1-0.5-0.5-1.4-0.7-1.4-0.3-1.3-0.9-0.2-0.3-0.3-0.4 0-0.6 0.8-0.9 0.8-0.6 0-0.4-0.2-0.3 1.1-0.8 0.3-0.4-0.1-0.5 0.1-0.1-0.1 0 0-0.5-0.8-0.9-1.6-1.1-0.6-0.2-1.2 0.1-0.3-0.2-1.2-1.5-0.6-0.7-0.4-0.3-0.2-0.3-0.5-0.4-0.1-0.1-0.2-0.3-0.3-0.2-0.6-0.3-0.4-0.4 0-0.6 0.2-0.5 0-0.1 0.1-0.5 0.5-0.8 1.9-0.9 1-0.9 0-1 0.2-0.2-0.2-0.2 0-0.2-0.4-0.5-0.6-0.2-0.1 0 0-1.4 0.2-0.9-0.3-0.6 0.1-0.5 0-1-0.4-1.3-0.1-0.6 0.6 0.3 0.5 0 2.9-0.4 0.5-0.3 0.5-0.7 1-1 2.3-1.4 1-1 0.1-1.1-0.6-1.3-0.3-1.3 0.5-1.3 0.3-0.5 0.5-1.4 0.3-0.6 0.7-0.5 5.1-0.9 0.7 0 1.3 0.5 0.7 0 1.8-0.1 0.6-0.2 1.1-0.8 0.5-0.1 0.5 0 0.4 0.4 0.8 1 0.6 0.6 0.6 0.1 4.3 0.3 0.1-0.2-0.5-1.4 0-1.7 0.1-0.6 0.2-0.5 0.6-0.2 0.6 0.3 0.3 0.5 0.2 0.7 0.3 0.7 0.3 0.4 0.2 0.5 0.2 0.4 0.4 0.3 1.1-0.2 4.1-1.9 1-0.8 0.6-1-0.4-1.1-0.7-1.2 0.3-1.1 0.8-0.5 1 0.2 1.6 1.6 0.8 0.5 1 0 0.7-0.8 0.6-1.1 0.6-0.8 1 0 1.3-0.9 2.7-0.9 1.8-1 0.6-0.5 0.3-0.7-0.3-0.8-0.5-0.3-1.3-0.7-0.3-0.5 0-0.4 0.4-0.5 0-0.5-0.1-0.2-0.5-0.5-0.2-0.3 0-0.5 0.2-1.7 0.1-0.4 0.3-0.3 0.9-0.8 1.5-0.6 4.1-0.1 1.6-0.4 1.4-0.7 0.7-1.1 0-0.5z" id="MN071" name="Bayan-Ölgiy">
  </path>
  <path d="M138.8 258.5l2 0.5 1.8 0.8 0.9 0 0.8-0.1 0.9 0 0.6 0.6 1.1 1.8 0.7 0.9 0.9 0.6 0.9 0.2 0.7-0.2 0.5-0.6 0.5-1.5 0.4-0.7 0.3-0.3 0.6-0.2 0.8 0.6 0.5 0.2 3.5-0.4 4.1 0.6 0.5-0.3 0.7-0.6 0.2-0.8 0-1-2.3-1.5-2-2.9-2.9-2.7-2.3-1.6-1.1-0.4-0.8-0.6-1.3-1.1-0.6-1.1-0.3-0.9 0-0.9 0.1-0.9 0.2-0.9 1.3-3.4 0.1-1.4-1.8-2.8-3.9-4.8-0.7-1.2-0.1-0.8 0.2-0.6 0.2-0.5 0.2-0.7 0-0.8 0-1.1-0.2-0.9-1.9-5.8-0.5-1.1-0.6-0.8-0.6-0.7-0.8-1.5-2.3-7-1.1-4-0.3-0.7-0.3-0.4-0.9-1-0.4-0.5-1.4-1-0.5-0.5-0.2-0.7-0.1-0.6-0.1-1-0.6-3.7-0.3-1.1-0.1-1.3 0-1.1 0.4-0.9 1.1-1.7 0.1-0.6-0.1-0.9-1-3.2-0.4-0.8-0.5-0.4-2-0.9-0.3-0.3-0.2-0.4-0.1-0.4 0.1-0.5 3-0.6 8.5-4 2.9-0.6 2.8 0.7 1.4-0.1 1.3-0.5 1.6-1.4 2.7-3.7 1.8-3 0.9-0.9 2.8-1.7 1.3-0.5 1-0.2 1 0.2 0.7 0.5 0.5 0.5 0.3 0.7 1.9 7.4 0.6 0.4 0.5 0 0.7-0.3 0.5-0.1 0.7 0.1 0.8 0.9 0.6 1.2 1 2.9 0.6 1.2 0.5 0.4 0.7-0.1 1.3-1 0.4-0.2 10.3 2.5 3.1 0.8 1.4-0.6 1.3-1.1 1.2-1.4 1.4-1.1 1.1-0.4 0.9-0.1 1.4 0.3 0.3 0.1 0.2 0.2 0.1 0.1 0.4 0.3 2.3 1.2 0.5 0.6 0.2 0.3 0.1 0.2 0.1 0.3 0 0.2 0.2 1.1 0.2 1.1 0.1 0.5 0.1 0.2 0.2 0.3 0.1 0.2 0.7 0.5 1.8 2 0.6 0.5 2.6 1.4 0.9 0.7 0.3 0.3 0.1 0.2 0 0.3 0 0.2-0.1 0.1-0.1 0.1 0 0.2-0.2 0.4 0 0.3 0 0.4 0 0.8-0.1 0.4-0.1 0.3-0.4 0.9-0.9 1.3-3.4 3.6-1.5 1.3-2 1.3 1.2 3.9 0.6 1.6 0.3 1.5 0.1 1.2 0 1.1 0.3 0.8 3.4 4.7 2.5 4.5 0.1 2.2 0.1 0.7 0.1 0.8 1.2 1.6 2.1 2 5.9 5.4 4 2.6 1.9 0.9 0.4 0.7 0.2 0.8-0.1 1.1 0 1.2 0.4 1.5 0.5 1.6 1.6 2.9 2.6 3.8 1 2.1-0.1 1.5-0.2 0.8-0.8 1.1-1.2 0.9-5.7 2.6-2.6 1.6-3.1 3-1.5 0.5-0.9 0.2-2.9-0.3-0.7-0.2-0.6 0-0.4 0.4 0.1 0.8 0.3 0.8 1.8 3.5 0.4 1.3 0.2 1.4-0.1 1.3-0.4 1.1-3.3 5.8-2.7 6.9-0.1 0.7 0.3 2.1 0 0.7-0.4 0.7-0.7 0.5-0.4 0.5-1 2.3-0.6 0.8-0.7 0.6-3.2 2-0.7 0.7-0.6 0.9-0.2 1.4 0.7 8.9-0.1 4.8-1.5 12.8 0 0.2-0.7 0-0.6-0.1-0.5-0.1-0.6 0-0.3 0.1-1.4-0.5-0.8 0-1.2-0.7-0.4-0.1-0.9 0.2-0.5 0-1.3-0.2-3.2 0.9-1.9 0.1-2.7 0.7-0.5-0.1-1.3-0.5-0.5-0.1-1.3 0.3-0.8-0.3-0.2 0.1-0.8-0.3-0.5 0-1.4 0.4-0.3-0.1-0.4-0.4-1.3-1.4-1.4-0.2-0.6-0.3-0.9-0.2-1-0.1-1 0.1-1.5 0.3-4.9-0.2-0.6 0-1.2 0.4-0.6 0.1-2.8-0.7-0.3 0.1-0.3 0.1-0.1 0-0.6-0.6-0.7-1-0.9-0.9-0.1-0.1-0.5-0.4-0.6 0-0.5 0.4-0.5 0.5-0.4 0.4-0.9-0.5-1 0-1.2-0.2-0.5 0-1.6-0.9-0.4-0.3 0-0.8-0.8-0.5-0.2-0.2-1-0.5-1.2-0.2-1.3-0.1-1 0.2-2 1.1-0.9 0-0.1-0.3 0.8-1.1-0.5-1.9-1.6-0.9-0.3-1-0.3-1.8-0.9-1.8 0.1-0.2-0.8-0.9-0.2-0.2-0.4-0.4-0.6-0.8-0.2-0.1-0.7-1.4 0.4-4.5 1.3-4.7 4.1-7.2 3.2-3 0.1-0.4 0.9-1.9 0.1-1.8 0-0.1 0-0.1-0.8-2.1-0.8-1-0.1-0.9-0.1-0.3-0.5-1-0.5-1.2-0.1-0.3-0.8-1.4 0.7-1.4 1.1-0.7 0.7-2.6 0.7-0.9 0.1-1.5 0.6-0.5 0.6-2.4 0.1-0.1 0-0.4-0.2-0.6-0.2-0.1 0-0.1-0.4-0.6-0.6-0.2 0.9-4.2 0-0.1z" id="MN043" name="Hovd">
  </path>
  <path d="M750.5 211.9l0.3 3.8-0.3 5 4.8-2.6 1-0.3 0.8-0.1 0.8 0 1.5 0.3 5.5 2.6 17.1 3.8 12.9 10.4 5 2.7 0.6 0.5 0.4 0.5 0.2 1.1-0.9 7.6-0.1 3.3 0.1 1.1 0.3 0.8 0.3 0.6 0.5 0.4 0.5 0.3 3.1 1.3 0.9 0.5 0.8 0.6 0.9 0.8 0.8 0.9 1.7 2.5 3.4 6.3 4.8-2.4 2.5-0.7 13-0.5 5.3-1.1 12-0.6 0.6 0.2 0.4 0.4 0.4 0.5 5.8 9.4 2.4 2.8-0.4 0.3-0.6 1.3 0 0.1-1.3 1.9-0.1 0.1-4 4.1-4 8.1-0.2 1.1 0.4 1.2 0.6 1 0.2 0.9-0.6 1.4-1.7 2.4-0.7 0.6-1.1 0.6-0.8 0.1-0.6 0-0.2 0.1-1-0.1-0.3 0.1-0.6 0.6-1 0.9-0.2 0.2-4.8 4.2-2 2.3-0.6 0.5-7.7 2.3-1.9 0.3-2.9 0-0.5 0-0.1 0-1.6 0.1-0.1-0.1-1.1 0.1-1.4 0.1-1.3 0.3-0.5 0.1-0.7 0-0.6 0.2-0.9 0-0.5-0.1-4.8-1.9-0.1 0-0.4-0.3-0.5 0.1-0.3 0.2-0.6 0.1-2.2 0.9-0.7 0-0.5 0.4-0.4 0.2-0.3 0.2-0.1 0.4-0.2 1.8-0.3 0.9-0.8 1.8-1.6 2.3-5.8 5.6-1.4 0.9-0.4 0.4-0.3 0.4-0.5 1-0.9 1.3-0.9 0.8-0.5 0.3-0.5 0-0.7 0.4-0.7 0.2-1.6 0.1-0.7 0.3-0.3 0.3-0.1 0.1-0.2 0.2-0.9 1-0.3 0.3-0.9 0.3-1.1 0.5-0.3 0.3-1.1 1.4-2.5 2.2-1.6-0.4-1 0-0.5 0-0.5-0.5-0.5-0.2-4.8-0.4-0.4-0.1-0.9 0-4.3-0.4-2.5-1.1-1.2 0-6.4-1.8-3.8-1.7-0.8-0.6-0.6-0.8-1.1-2-2.3-2.3-0.9-0.6-0.9-0.2-7.7 0.2-2.7-0.8-0.4 0-0.4-0.1 0-0.1-0.1-2.3 0-1.8 0.1-2-0.1-0.9-0.2-0.7-0.8-1-0.6-0.5-0.7-0.5-0.6-0.6-0.6-0.8-0.3-2.5-0.3-1-0.9-0.9-0.8-0.4-0.4-0.5-0.2-0.3 0-1.3 0.5-10.7-0.4-2.1-0.6-1.9-2.5-5.5-0.5-1.7-0.3-0.7-0.5-0.6-10.5-4.8-0.1-1.3 0.1-0.5 0.3-0.7 1.8-2.6 0.2-0.7 0.2-0.8-0.1-0.8-0.2-0.9-0.9-3.1-0.3-1.3 0-0.9 0.1-3.2 0.4-1.6 0.7-1.5 2.6-4.6 2-3.9 0.7-2.9 1-7.7 0.3-1.2 0.4-1.1 1-1.7 2.9-3.3 0.8-0.8 1.3-0.8 1.2-0.5 0.4-0.1 0.6 0 3.6 0.7 3.3 0.2-0.5-2.5-0.2-1.9 0-1.3 0.2-2.1 0.1-0.8 0.2-0.7 0.2-0.6 0.3-0.6 0.4-0.6 0.5-0.6 0.6-0.6 1.6-1.1 8.7-3.3 1.5-0.2 0.4-0.1 0.7-0.5 0.2-0.1 2-0.3z" id="MN051" name="Sühbaatar">
  </path>
  <path d="M709.3 277.4l10.5 4.8 0.5 0.6 0.3 0.7 0.5 1.7 2.5 5.5 0.6 1.9 0.4 2.1-0.5 10.7 0 1.3 0.2 0.3 0.4 0.5 0.8 0.4 0.9 0.9 0.3 1 0.3 2.5 0.6 0.8 0.6 0.6 0.7 0.5 0.6 0.5 0.8 1 0.2 0.7 0.1 0.9-0.1 2 0 1.8 0.1 2.3 0 0.1-0.1 0-0.3 0.1-0.3 0.1-0.3 0.3-1.3 0.9-1.1 0.3-0.5 0.3-1.7 1.2-0.7 0.8-0.6 0.9-5.3 10.9-0.3 1 0 0.6 0.1 1.4 0 0.6-0.2 0.8-0.2 0.5-0.6 0.9-0.7 1.6-0.3 0.4-0.1 0.1-0.7 0.7-0.6 1.1-0.5 1.3-0.3 1.1 0 1.6 0.4 0.8 1.8 1.1 0.5 0.7 0.2 0.7 0.2 1.5 0.4 1.5 0.7 1.2 2.5 3.6 1 1 3.2 2.1 0.8 0.9 0.8 1 2.6 4.6 0.4 1.4 0.1 1.1-0.1 1.3-0.3 1.1-0.7 0.4-0.4 0.1-1.4 0.6-2-0.1-0.6 0.3-4.4 5.4-0.8 0.9-1 0.4-3 0.3-0.7 0.3-1.8 1.5-6.9 2.7-3.4 2-1.2 1.1-3.8 5.4-3.3 3.5-0.4 0.8-0.7 1.9-1 1.7-1.1 1.3-2.7 2.2-0.6 0.6-0.7 2-0.6 0.7-7.5 3.3-1 0.6-0.3 0.3-0.3 0.3-0.2 0.3-0.4 0.2-0.5 0.1-1.6 0-2.1 0.3-1.1 0.4-0.4 0.1-1.5 0.8-2.2 0.9-1.5 0.6-0.2 0.2-4.3 3.2-0.1 0-0.2 0-0.2 0.1-0.3 0.1-0.4 0.1-0.4 0.3-0.2 0.1-3.5 0.3-1.4 0.4-0.7 0.1-7.4-0.9-0.9 0.1-2.8 1.5-1 0.3-0.8 0.1-7.4-1.4-3.6 0-0.1 0-0.1 0-2.3 0.1-2.4-0.7-1.7-0.2-3.6 0.6-0.9-18.4 0.1-0.9 0.4-1.6 0.4-1.8 0.1-1.8 0-1.5-0.1-1.5-1.4-7.4-0.3-3.6-0.1-4.7-0.2-5.8-5.9-18.1-2.5-5.1-0.3-0.9-0.1-0.7 0-1.2 1.2-5.7 1.5-1.1 0.4-0.7 0.4-1.2 0.8-6.4 0.4-1.6 0.6-0.7 0.7-0.3 2.1-0.2 10-1.3 2.8-1.7 1.3-2.5 0.9-1.4 1-0.8 0.5-0.2 0.5-0.1 1.1 0.1 0.6-0.2 0.2-0.5 0-0.8-0.6-2.2-2.1-13-0.5-8.2 0.1-3.1 0.7-4.1 1.6-4.8-1.1-0.1-3.8 1.4-0.8-0.4-0.8-0.8-1-1.9-0.4-0.5-0.3-0.6-0.3-1.4 0.1-1.2 0.8-6.1 0.1-2.7-0.1-0.9-0.3-1.2-0.7-2-1-1.7-4.5-4.8-0.5-0.7-0.1-0.6 0.3-0.6 0.6-0.8 2.7-2.3 0.3-0.4-1.4-0.2-1.9 0-1.2-0.3-0.9-0.3-0.8-0.8-0.6-0.8-0.4-1.8 1.3-0.7 1.4-0.4 1.8-0.4 2.5 0 4.3 0.8 3.5 0.5 4.5-2.2 2-1.1 1-1 0.4-0.5 1.9-4.8 3.5 1.6 0.5 1.6 0.1 0.6 0.1 0.9-0.1 2.9 0 0.3 0.3 0.3 0.3-0.1 0.2-0.1 1-1.5 0.5-0.5 0.5-0.3 0.5 0.2 0.4 0.6 0.3 1.1 0.1 1.2 0.1 1.1-0.1 0.8-0.2 1.1-0.5 1.3-2.1 4-0.3 0.8-0.2 0.9 0 0.5 0 0.8 0 0.4 0.2 0.7 0.2 0.3 0.9 1.9 2.6 2.6 0.7 1.3 0.9 2.4 0.6 0.9 0.8 0.7 4.2 3 2.8 0.3 7-0.7 1.3-0.5 1.3-0.8 4.5-3.7 0.2-0.4 0.9-2 1.1-3.8 0.1-0.7-0.1-0.8-0.7-3.8 0-1.2 0.3-0.5 1.2-0.2 1.6 0.1 0.7 0.4 0.8 0.8 0.8 1.6 1.6 2.5 4.6 4.8 0.6 0.8 0.5 1.2 0.8 2.5 0.9 1.5 2.4 2.4 5.9 3.7 1.9 0.7 1.6 0 1.9-1.3 5.4-5z" id="MN063" name="Dornogovi">
  </path>
  <path d="M196.3 326.9l0-0.2 1.5-12.8 0.1-4.8-0.7-8.9 0.2-1.4 0.6-0.9 0.7-0.7 3.2-2 0.7-0.6 0.6-0.8 1-2.3 0.4-0.5 0.7-0.5 0.4-0.7 0-0.7-0.3-2.1 0.1-0.7 2.7-6.9 3.3-5.8 0.4-1.1 0.1-1.3-0.2-1.4-0.4-1.3-1.8-3.5-0.3-0.8-0.1-0.8 0.4-0.4 0.6 0 0.7 0.2 2.9 0.3 0.9-0.2 1.5-0.5 3.1-3 2.6-1.6 5.7-2.6 1.2-0.9 0.8-1.1 0.2-0.8 0.1-1.5-1-2.1-2.6-3.8-1.6-2.9-0.5-1.6-0.4-1.5 0-1.2 0.1-1.1-0.2-0.8-0.4-0.7-1.9-0.9-4-2.6-5.9-5.4-2.1-2-1.2-1.6-0.1-0.8-0.1-0.7-0.1-2.2 6.9-0.8 3.5-1.4 3.7-2 2.7-1.8 0.8-0.2 1 0 1.5 0.3 1.2 0.5 0.7 0.5 0.9 0.8 0.4 0.2 0.3 0.1 2 0.3 3.3 1.1 3.7 0.4 3.3-0.1 0.5-0.1 1-0.4 0.3-0.1 0.9 0.1 0.8-0.1 2.4 0.8 0.9 0.4 0.5 0.6 0.6 0.9 0.5 0.8 0.4 0.8 0.3 0.5 0.3 0.3 0.5 0.5 1 0.1 1.2-0.7 0.8-0.3 7.2 0.4 1.2 0.9 1 0.5 0.9 0.3 0.3 0.1 1.7 1.7 1.9 1.4 10.3 6.6 0.8 0.4 0.4 0.1 1 0.5 0.6 0.7 0.4 0.6 0.6 2.1 0.7 1.5 1.6 2.1 0.6 1.1 0.6 2.9 0.6 1.7 0.4 0.9 0.3 2.5 1 0 7.3-2.3 1 0.2 1 0.6 2.4 1.2 0.3 2.6 0.2 1.1 0.5 1.3 0.8 1.4 2 2.2 0.3 0.7-0.1 1.4 0.1 0.6 0.2 0.4 1.4 0.2 3 0.1 0.2 0 0.5 0.2 0.6 0.4 0.3 0.1 0.4 0 0.7-0.1 0.5-0.1 0.9-0.6 1.5-1.4 0.3-0.3 0.4-0.7 0.1-0.2 0.2-0.1 0.5-0.1 1.2 0 1.4 0.9 2 1.3 2.3 0.6 0.3 2.8-0.2 3.4 0 1 0.2 0.9 0.3 1 0.6 1.8 0.3 0.5 0.4 0.5 1.3 0.7 0.6 0.5 0.4 0.8 0.6 1.9 0.6 0.7 2.4 1.8 0.8 0.8 1.1 1.5 0.6 0.5 0.6 0.4 1.4 0.4 0.9 0.2 0.8 0.2 0.5 0.3 1 1.2 5.4 7.6 0.8 1.7 0.5 2.5 1.6 11.4-0.2 1.6-0.3 2.1-3.3 11.2-0.9 1.8-0.4 0.4-1 1-0.5 0.4-0.4 0.8-0.2 0.9-0.1 1.4 0 1.3 0.5 5.2 0 4.1-0.2 1.2-0.4 1.8-0.5 1.2-0.7 1.1-0.4 0.6-0.6 0.6-1.4 1-3.6 1.9-0.4 0.6-0.2 0.8 0 3.6 1 10.1 0 1.1-1.3 10.8 0.3 3.5-0.1 1.2-0.2 1.3-2.2 7.2-1.4 3-0.2 1.1 0 1.2 1.5 20.2-9.3-1.2-3.6-0.5-5.8-1.1-0.5 0.1-1.2 0.3-0.6 0.2-7.8 0.8-10.1 1.1-2.3 0.4-0.2-0.9 0.1-1.9-0.5-2.5-0.1-2.2-3.2-3.2-1.4-1.2-2.7-2.4-0.9-1.2-1.6-1.5-1.4-1.1-0.9-1.1-1.2-1.6-0.6-0.8-0.1-0.8-0.2-2.4-0.4-1.5-0.1-1-2.6-5.8-0.2-0.4-0.5-1-0.1-0.6-2.4-6-0.3-2.7-0.2-0.5-0.6-1-1.4-3.5-0.6-1-3.1 0-2.4-1.1 0-0.3-0.4-0.3 0-0.4 0.5-0.7 0-0.4 0.2-1.2 0.2-2.4 0.2-0.7 0.1-1 0-0.4 0.3-0.3 1-0.8 0.3-0.3 0-1.1-0.4 0-2.9 0.5-4 0.5-0.9-0.2-1.7 0.5-0.7 0.1-1.1-0.1-1-1-1.5-0.5-0.6 0.1-1.6-0.5-1.4-0.7-0.6-0.2-1.3-0.4-0.4-0.8-0.6-1-0.1-0.4-1.3-1.5-1.1-0.7-1-0.6-0.8-0.7-0.6-0.3-0.3-0.3-1.3-0.7-0.5-0.1-1.4 0.1-0.7-0.1-0.7-0.3-0.1-1.3-0.2-1-0.7-0.4-0.9-0.4-0.3-0.6-1-1.5-1.7-1.1-0.8-0.6-1.1-0.8-1.6-1-1.5-0.9-1.3-0.7-1.1-0.4-1.3-0.8-1.3-0.8-2.4-1.1-0.5-0.8-1.1-0.5-0.4-0.2-3.4-2.3-0.7 0.3-0.1 0-1.2-0.1-1.2-0.5-1.3-0.7-0.9 0.1-0.3-0.1-0.6-0.1-0.5 0.1-0.7-0.2-1.4-0.5-0.6-0.1-0.9 0-0.2-0.1-0.8-0.1-1.7 0.2z" id="MN065" name="Govi-Altay">
  </path>
  <path d="M331.2 416.3l-1.5-20.2 0-1.2 0.2-1.1 1.4-3 2.2-7.2 0.2-1.3 0.1-1.2-0.3-3.5 1.3-10.8 0-1.1-1-10.1 0-3.6 0.2-0.8 0.4-0.6 3.6-1.9 1.4-1 0.6-0.6 0.4-0.6 0.7-1.1 0.5-1.2 0.4-1.8 0.2-1.2 0-4.1-0.5-5.2 0-1.3 0.1-1.4 0.2-0.9 0.4-0.8 0.5-0.4 1-1 0.4-0.4 0.9-1.8 3.3-11.2 0.3-2.1 0.2-1.6-1.6-11.4-0.5-2.5-0.8-1.7-5.4-7.6-1-1.2-0.5-0.3-0.8-0.2-0.9-0.2-1.4-0.4-0.6-0.4-0.6-0.5-1.1-1.5-0.8-0.8-2.4-1.8-0.6-0.7-0.6-1.9-0.4-0.8-0.6-0.5-1.3-0.7-0.4-0.5-0.3-0.5-0.6-1.8-0.3-1-0.2-0.9 0-1 0.2-3.4-0.3-2.8-0.1-2.3 0.2-0.9 1.2-3 4.4-13.7 0.2-1.2 0.1-1.3 0.2-1.2 0.5-0.8 0.8-0.5 1-0.1 2.7-0.1 1.7-0.4 1.7-0.7 2.3-3.5 0.8-1.7 0.4-1.2-0.2-0.8-0.2-0.8 0-1 0.4-0.6 1.3-1.4 0.8-1.4 0.5-1 0.3-0.8 0.2-0.8 0.2-1.1 0-0.5 0-0.3-0.1-0.3 1.8-1.7 1.1-0.7 2.8-0.9 2.3-0.3 0.5 0.1 0.5 0.2 0.5 0.2 0.3 0.4 0.4 0.4 0.7 1.8 0 2.7 0.4 0.8 0.5 0.6 5 3.3 0.7 0.3 0.9 0 3.4-0.1 2.4-0.4 0.8-0.3 0.5-0.3 0.6-0.4 1.4-1.9 0.6-0.4 0.7-0.2 1.8-0.3 0.6-0.4 0.5-0.4 0.5-0.7 0.7-0.7 2-1.2 0.7-0.1 0 3.3 0.2 1.3 0.4 1 0.5 0.7 0.8 0.8 2.1 1.7 0.7 1 0.4 1.1 0.1 1-0.1 1.1-0.2 2.1 0 1 0.1 1.2 0.3 0.7 0.3 0.8 0.1 0.6 0.1 0.6-0.1 0.8 0 0.8 0.2 1 0.3 0.7 0.5 0.4 0.6 0 2.5-0.6 9.9-3 0.9-0.2 0.6 0.1 0.3 0.4 0.3 2.6 0.4 1 0.7 1.1 0.4 1 0.4 1.5 0.2 0.4 0.3 0.2 1.5 0.4 0.9 0.3 0.9 0.8 0.5 0.8 0.6 1.9 0.4 0.9 0.4 0.6 0.6 0.4 2.1-0.1 2.1-0.7 1 0 3.1 0.5 1.3-0.1 3.5-0.8 0.7 0.3 1.7 1.8 1.1 2.1 0.3 0.5 3.2 3.2 2.7 3.4 0.2 3.3 0.2 0.7 0.2 0.7 0.4 0.5 0.1 0.6-0.1 0.8-2.5 3.2-0.5 1.1 0.3 0.7 0.4 0.4 0.4 0.7 0.3 1 0.2 2.1 0 1.6-0.2 0.8-0.2 0.5-0.5 0.7-0.7 0.6-0.9 0.4-1.5 0.6-0.6 0.5-0.5 0.7-0.4 0.9-0.4 0.9-0.2 1 0.1 3.5 0.4 2.1 0.1 1.4-0.1 1.6-1.2 4.3 0.1 2.1-0.1 1-1 2.6-1.3 1.8-1.6 1.6-0.3 0.5-0.2 0.6 0 0.8 0.4 2.1 0 0.9-0.1 1.2 0.1 0.6 0.2 0.6 0.3 4.3 0.2 1.5 0.4 1.8 0.3 0.9 0.3 0.8 0.6 0.6 0.7 0.5 3.5 1.1 1.8 1.1 1.1 1 2.6 1.6 0.6 1.1-0.8 2.2-1.1 2.8-0.1 0.4 0 0.6 0.1 0.7 0.4 1 1.3 2.9 0.8 2.3 4.6 18.6-14 8.6-1.4 0.5-0.6 0.1-21.8-0.3-2.5 0.5-2-0.7-4.1-4.2-3.2-4.3-4.8-4.4-0.4-0.3-0.4-0.1-0.4 0.1-8.5 2.2-0.2 0.3-0.1 0.5-0.1 2.5 1.3 32.4 2.9 23.3 0.1 0-4.2 1.2-11.5-1.5-11.5-1.5-11.4-1.5-11.5-1.6z" id="MN069" name="Bayanhongor">
  </path>
  <path d="M609.8 346.5l-1.2 5.7 0 1.2 0.1 0.7 0.3 0.9 2.5 5.1 5.9 18.1 0.2 5.8 0.1 4.7 0.3 3.6 1.4 7.4 0.1 1.5 0 1.5-0.1 1.8-0.4 1.8-0.4 1.6-0.1 0.9 0.9 18.4-9.3 1.5-1.5-0.1-1 0.4-1.5 0.2-1.8-0.3-1.8-1.7-1.6 0.2-1 0.5-1.4 0.2-1 0.8-0.8 1.3-1.1 0.3-0.4 0.3-0.8 0.5-11.2 1.8-12.7 5.6-12.7 5.5-11.2 5.9-2 1-1.2 1-0.4 0.2-0.5 0.2-1.5 0.8-1.6 0.2-0.5 0.2-5.2 5.6-0.9 0.3-0.5-0.7-1.1-1.1-0.3 0-0.1-0.1-0.6-0.2-8.2-0.1-1.6-0.2 0-0.4-0.8-0.2 0-7-0.5 0 0-0.7-11 2.2-7.6 1.5-5.6-1.3-1.4-0.5-3.7-1.2-1.8-0.9-8.3-4.5-0.9-0.4-1.5-0.3-0.3-0.2-0.4-0.2-2.5-1.1-1.6-1-0.4-0.2-1.3-0.9-2-0.8-2.4-0.3-1.9 0-1.3-0.5-0.9 0.8-1-0.3-1.1-0.2-1.4 0-1.7-0.3-2-1.1-1.4-0.4-0.9 0.2-1.5-0.6-0.7-0.9-1.4-1.9-0.7-1.1-5.5-7.5-1.3-0.5-4.4-0.4-0.6-0.1-0.1 0-0.6-0.1-3.3-0.6-1.3-0.3-1.8-0.6-10.3-2.8-2.9-1-1.5-0.3-2.6 0.1-2.9 0.4-2.8-0.5-5 0.1-1.3 1-7.9-1.3-1.3 0-9.8 3.1-0.1 0-2.9-23.3-1.3-32.4 0.1-2.5 0.1-0.5 0.2-0.3 8.5-2.2 0.4-0.1 0.4 0.1 0.4 0.3 4.8 4.4 3.2 4.3 4.1 4.2 2 0.7 2.5-0.5 21.8 0.3 0.6-0.1 1.4-0.5 14-8.6 2.2-1 8.3-2.6 14.2-1.1 10.5 0.8 0.1-0.6-0.3-1.1-1.7-4.8 0-1.3 0.3-1.1 1.4-1.2 0.4-0.7 0.5-1.1 0.5-1.9 0.4-1.3 4.9-10.6 0.8-1.5 5.9-3.2 4.8-3.7 0.8-0.9 0.6-0.9 2-3.8 0.3-0.7 0.1-0.7 9.3 0.2 0.6 0.8 0.2 0.3 0 0.2 0 0.2-0.1 0.8 0 0.5 0.1 1.6 0 0.2 0 0.2-0.1 0.3-0.3 0.5 0 0.3 0 0.2 0 0.3 0 0.2 0.1 0.5 0.1 0.3 0 0.3 0 0.5-0.1 0.9-0.1 0.5-0.1 0.3 0.1 0.4 1.1 2.4 0.7 0.8 0.7 0.6 2.1 0.7 12.6 2 11.6 1.3 8 0.8 1.7 0.4 0.6 0.4 3.6 6.6 1.8 2.6 0.8 1.6 0.4 1 0 0.8 0 0.8 0.4 1 0.5 0.8 2.3 1.9 2.1 1.3 2.2 0.9 0.9 0.2 8.8-1.4 2.5-0.4 1.3-0.4 2.1-0.9 2.5-2 2-1.1 16.2-5.6 0.8 0 1.3 0.2 2 1 0.6 0.1 2.8-0.4 4.6-1.5z" id="MN053" name="Ömnögovi">
  </path>
  <path d="M466 100.1l-0.1 0-1.5 0.9-1.8 1-1.2 1.2-1.1 1.2-0.3 0.4-0.3 1-0.2 0.5-0.3 1.8-0.6 1.4-0.2 0.4-1 1.1-0.6 0.5-0.6 0.6-0.7 0.7-0.8 1.1-0.1 0.6-1.2 1.7-1.2 1.3-0.6 1-0.2 0.8 0 0.7 0.1 0.7 0.1 0.4 0.3 0.4 0.5 0.4 1.5 0.9 2.3 1 2.4 0.8 3.6 1.7 2 0.6 2.3 1.1 2.3 1.3 0.8 0.8 1 1.1-2.3 1.8-0.9 0.5-0.4 0.1-0.6 0-1.6-0.3-0.5 0-0.6 0.1-0.6 0.4-0.2 0.2-0.3 0.5-0.9 2.6-0.8 1.6-0.3 0.5-1.1 1.3-1.3 1.1-0.5 0.3-1.3 0.6-2.3 0.8-1.2 0.1-1.3 0.5-2.1 0.5-1.7 0.7-0.6 0.4-0.5 0.5-1.1 1.3-1.3 1-0.2 0.6-0.4 0.7-0.7 0.8-0.7 0.4-0.4 0.1-1.2 0.2-1 1.1-0.4 0.7-1 2.7-0.2 0.7 0 0.7 0 1.1 0.5 2.8 0.1 0.3-5.8 1.2-3.1-0.2-0.9-0.5-6.6-4.8-8.7-4.7-0.8-0.4-0.7 0.1-0.3 0.4-0.2 0.2-0.1 0.2-0.1 0.2 0 0.2-0.1 0.9-0.1 0.3-0.4 0.6-0.4 0.6-1.1 0.8-0.5 0.5 0 0.3 0 0.4-0.2 0.3-3.3 0.8-0.6 0-0.5-0.6-0.4 0.4-0.1 0.5-0.1 0.6-0.1 0.2 0.1 0.5 0.2 0.3 0.3 0.2 3.4 1.9 0.6 0.8 0 0.2 0 0.2-0.3 0.4-0.1 0.3-0.7 0.5-0.2 0.1-0.2 0.1-0.1 0-0.4 0.1-0.3 0.2-1.2 0.8-0.4 0.2-0.6 0.3 0 0.2 0 0.2 0.1 0.2 0 0.3-0.2 0.2-0.3 0.5-0.6 0.5-0.4 0.7-0.2 0.4 0.1 0.2 0.4 0.2 0.1 0.1 0.1 0.2-0.2 0.2-0.5 0.5-0.1 0.2-0.1 0.2 0.1 0.2 0.1 0.2 0 0.4-0.3 0.4-0.2 0.8-0.2 0.5 0 0.5 0 0.3 0.3 0.7 0 0.5 0.1 0.6 0.2 0.4 0.3 0.6 0.2 0.3 0.1 0.2 0.2 0.1 0.3 0.1 0.6 0.1 0.2 0.1 0.1 0.1 0.3 0.3 0.6 0.9-1.2 1-2.5 0.8-2.6 0.5-0.8 0.5-0.3 0.8 0.2 0.9 0 0.8-0.3 1-0.9 0.4-1 0.2-0.9-0.2-0.7-0.3-4.3-2.5-1-0.5-2.7-0.1-0.6 0.2-0.6 0.5-0.3 0.6-0.3 0.9-0.3 3.5-0.4 0.9-0.4 0.5-0.5 0.1-6.3 0.6-0.7-0.2-0.6-0.2-0.6-0.4-0.6-0.2-0.3 0.1-0.4 0.4-0.4 0.6-0.5 0.7-0.8 0.6-0.8 0.2-0.7-0.1-0.9-0.5-2.4-2.7-0.2-2.8-1.7-6.1-0.3-1.5-0.1-1.3 0.1-0.9 0.1-0.7 0.2-0.6 2-3.3 0.5-1.1 0.5-1.3 0.5-1.9 0-0.6-0.2-0.8-0.7-2.2-0.4-2.6-0.6-5.2-0.2-1-0.2-0.6-0.5-0.5-8.8 0.9-1.4 3-1.5 2.1-1.6 1.1-0.7 0.2-1.1 0.1-0.6-0.2-0.6-0.3-1.3-1-1-0.6-2-0.7-3.9-0.5-2.8 0.2-0.8 0.2-0.9 0.4-1.8 0.6-1.3-0.1-0.7-0.3-8.6-6.4-1.6-0.7-2.9-0.1-5.4-0.4-2.3-0.6-1.4-0.9-5.9-5.6-0.7-1-0.5-1.6 0-0.7 0-1.1 0.3-1.3 0.2-0.7 0.4-1 0.4-0.6 1.3-1.7 2.3-2.1 2.5-1.7 0.6-0.7 0.3-0.5-0.2-0.5-1-1.5-0.2-0.5-0.2-0.4-0.1-0.5-0.1-0.4 0-0.2 0.4 0.2 0.5 0.3 0.3 0.8 0.7 1.1 1.4 0.7 1.7 0.4 1.1 0 1.2-0.4 1.3-0.6 2.4-1.8 1.9-1.4 0.9-1.1 0.2-1.4-0.3-0.8-0.2-0.5 0.1-0.4 2.1-0.5 2.6-1.3 0.6-0.1 0.6 0.2 1 1.1 0.5 0.3 0.5-0.3 0.8-1 0.9-0.8 4-2.2 1.6-1.8 4.4-9.7 0.2-0.7 0.1-0.9-0.1-0.7-0.2-1.4 0.1-1.5 0.9-2.7 0.1-1.4-0.2-1.1-0.5-0.9-0.7-0.6-0.7-0.3-1.8-0.3-0.7-0.3-2.2-1.7-0.6-0.6-0.4-0.8-1.4-3.7-0.9-2.3 0.1-0.9 1.2-1.8-0.1-0.5-0.9-0.7-0.4-0.5-0.3-0.6-0.3-0.5-1.3-0.8-1-1.1-0.8-1.3-0.1-1.4 1.8-3.9 0.5-1.5 0.2-1.5 0.2-0.6 0.8-2.1 0.1-0.7-0.1-1-0.4-1.5 0-0.7 0.2-0.8 0.3-0.6 0.8-1.1 0.4-0.6 1.3-3 0.5-1 0.4-0.4 0.4-0.1 1.3-0.7 0.7-0.1 2.3 0.5 0.3-0.8 0.1-1.1-0.2-2 0.1-1 0.3-0.8 0.7-1.6 0.2-0.9 1.7-2.9 2.6-1.2 5.5-1.6 0.9-0.8 0.9-1 0.8-1.2 1.9-3.9 0.4-2.1 0.2-0.7 1.1-1.5 0.2-0.7 0.1-0.7 0-1.6 0.2-0.8 0.9-1 1.1 0 0.3 0.2 0.7 0.6 0.4 1.4 0.5 1.1 0.9 0.6 4.9 1.7 1 0.6 0.6 0.8 0.5 0.8 0.6 0.7 0.8 0.5 6.6 1.9 3.5 0.1 0.8 0.4 2.1 2 1.9 2.2 1.9 1.8 2.5 0.8 2.6-0.3 3.2 0.6 8.5-0.1 1.7 1 1.9 0.6 12.2 6.3 1.3 1.2 1.2 0.3 1.2 0 1.1 0.3 1.1 1 1 1.3 1 0.6 1.1 0 2.6-1 1.3-0.1 1.2 0.2 2.1 0.9 1.5-0.1 0.8 0.1 0.5 0.3 1.5 1.1 0.7 0.3 2.3-0.2 0.5 0.2 1 0.9 0.5 0.3 2.2 0.1 0.7 0.4 0.4 0.5 2.7 1.8 0.2 0.8-0.4 0.9-1.2 2.1-0.1 0.5 0.2 0.4 0.2 0.8 0.1 0.8 0 0.8-0.2 1.5 0.1 1.7 0.5 1.8 0.8 1.6 0.8 1.3 0.3 0.6 0 0.6-0.2 0.7-0.3 0.5 0.7 1.2-0.2 1.2-0.5 1.3-0.3 1.2 0.4 1.4 0.8 0.9 1.8 1.3 0.6 1.3-0.3 1-0.7 1-0.5 1.1-0.2 1.3 0.3 1.3 0.6 1.2 0.7 0.9 1.3 0.5 2.8 0.4 1.2 0.9 2 3.9 0.9 0.7 0.1 0.1z" id="MN041" name="Hövsgöl">
  </path>
  <path d="M438.7 161.2l-0.1-0.3-0.5-2.8 0-1.1 0-0.7 0.2-0.7 1-2.7 0.4-0.7 1-1.1 1.2-0.2 0.4-0.1 0.7-0.4 0.7-0.8 0.4-0.7 0.2-0.6 1.3-1 1.1-1.3 0.5-0.5 0.6-0.4 1.7-0.7 2.1-0.5 1.3-0.5 1.2-0.1 2.3-0.8 1.3-0.6 0.5-0.3 1.3-1.1 1.1-1.3 0.3-0.5 0.8-1.6 0.9-2.6 0.3-0.5 0.2-0.2 0.6-0.4 0.6-0.1 0.5 0 1.6 0.3 0.6 0 0.4-0.1 0.9-0.5 2.3-1.8-1-1.1-0.8-0.8-2.3-1.3-2.3-1.1-2-0.6-3.6-1.7-2.4-0.8-2.3-1-1.5-0.9-0.5-0.4-0.3-0.4-0.1-0.4-0.1-0.7 0-0.7 0.2-0.8 0.6-1 1.2-1.3 1.2-1.7 0.1-0.6 0.8-1.1 0.7-0.7 0.6-0.6 0.6-0.5 1-1.1 0.2-0.4 0.6-1.4 0.3-1.8 0.2-0.5 0.3-1 0.3-0.4 1.1-1.2 1.2-1.2 1.8-1 1.5-0.9 0.1 0 4 1 3.5 2.7 1.2 0.5 1.3 0.3 4.4-0.6 2 0.6 1.1 2.3 0.4 1.3 0.6 0.8 0.9 0.3 2.8-0.3 0.9 0.2 1 0.5 1.7 1.2 1.9 0.9 1.9 0.1 3.3-2.4 1.7 0 3.6 1.6 1.9 0.4 2.3-0.4 2.2-0.9 1.4-1.6 0.6-1 1.5-1.1 0.8-0.8 2.7 2.4 2.2 3 0.3 0.7 0.4 1.4 0.1 0.8 0.1 1.5 1.7 1.8-0.2 0.3-0.2 0.4-0.5 0.2-0.6 0.2-1.3 0.1-0.1 2.3 0.1 1.5 0.2 0.9 0.3 0.8 1.1 1.5 3.2 3.5 0.6 1 0.7 1.4-1.7 1.8 0 4.5-0.1 1.5-0.2 0.9-0.6 2.4-0.7 1.3-0.6 1.7-0.5 2.8-0.7 2.9-0.4 3.3-0.5 2.1-1.4-0.7-0.8-0.2-1.1-0.2-0.7 0.1-0.7 0.2-0.3 0.2-1.7 1.7-4-1.3-1.1-0.4-1.2 1.1-1.7 2.3 0 2.4 5.2 1.5 1.6 0.2 1.7 0.8 0.9 0.6 1.3 0.6 1.3 1.3 1.3 1.1 0.9 1.2 1.1 1.1-0.1 0.3-0.3 0.6-0.3 0.4 0.2 0.3-0.4 0.7 0.3 3.1 0.2 1.7 0.3 3.7 0 3.3-0.1 1.8-0.5 1.9-0.3 0.6-0.3 0.3-1.5 1.1-1.2 1.2-1 1.8-0.7 2-0.3 0.8-1.2 2 1.2 1.3 1.4 2.1 0.2 0.9 0.2 2.2 1.2 0.8 1.7 0.6 1.6 0.3 2.9 0.1 0.3-0.1 0.3-0.2 0.4 0.1 0.2 0.1 0.2 0.2 0.1 0.4 0.1 1.1-0.6 0.6 0.1 2 0.1 1.3 1.2 4.6 0.6 1.9-2.9 0.3-3.7 0-0.4 1-0.8 1.3-2.2 0-1.5 0.1-0.7 0.1-1.3 0.5-3.6 2.4-1.2 1.2-1.3 1.2 0.5 1.6 0.3 0.5 0.4 0.5 0.6 0.6 0.9 1 0.2 0.4 0.1 0.6 0 0.6-0.7 1.3-2.1 0.6-3.5 0.8-2.4 0.3-0.6-0.1-1-0.1-0.7-0.1-1 0.1-2 0.5-0.2-1.7-0.3-2-1.9-1.9-1.2-0.9-1.8-1.7-1.3-0.9-1.2-1.1-0.9-1.3-0.7-0.9-0.9-1.5-0.6-1.5-0.9-1.5-1.4-1.9-0.7-0.5-0.6-0.3-0.7-0.1-1.3-0.1-0.7-1.2-0.9-2-0.2-0.6-0.4-1.2-1.6-0.8-1.9-0.9-0.5-0.4-0.5-0.5-0.2-0.3-0.1-0.8-0.3-3.1-0.4-2.1-0.3-1.1-0.8-1.4-0.8-1.2-0.6-1.3-1.4-2-1.4-1.4-1.6-0.2-1.4 0-0.6-0.2-0.7-0.2-1.8-1.4-0.5-0.4-0.8-1-0.3-2.4-0.4-1.1-0.7-0.8-1.4-1-0.5-0.5-0.4-0.6-0.3-0.6-0.2-0.9 0.1-1.2 0-0.7-0.7-4.9-1.1-3.8-0.8-2-1.2 0.7-1.2 0.8-0.8 0.2-0.6 0-0.6-0.2-0.5-0.3-0.3-0.6-0.3-0.8-0.3-0.6-0.7-0.8-0.6-0.4-0.3-0.2-0.7-0.1-1.1-0.1-1.4-0.9-0.6-0.6-0.6-0.5-1-1.3-0.4-0.8-0.3-1.6z" id="MN067" name="Bulgan">
  </path>
  <path d="M147.4 174l0-0.8 0.1-1.1 0-0.3-0.1-0.3-0.1-0.4-1-3.5-0.4-1-0.1-0.2-0.3-0.4-0.9-0.9-0.6-1.1-0.2-0.3-0.2-0.2-0.4-0.2-2.1-0.7-0.7-0.5-0.4-0.4-1.7-3.8-0.6-1.9-0.1-0.1-0.3-0.2-0.2-0.3-1.8-2.8-0.2-0.3-0.1-0.4 0-0.2 0-0.3 0-0.2 0.1-0.5 0-0.2 0-0.3-0.1-1.2-0.1-0.5-0.2-0.2-0.2-0.1-0.7-0.1-2.8-0.4-1.6-0.1-0.8-0.4-0.1-0.1-0.1-0.2-0.5-1.1-0.1-0.5-0.1-0.1 0-0.4 0-0.2 0.1-0.5-0.2-0.7-0.3-0.7-3-2.5-5.3-2.6-0.7-0.8-0.3-0.3-0.2-0.2-0.2-0.5-0.1-0.5-0.2-0.4-0.2-0.5-0.1-0.2-0.5-2.1-0.4-1-1.9-3-0.1-0.4-0.1-0.5-0.1-0.3 0-1.1 0-0.2-0.3-1.4-0.8-2.7-0.7-1.9-0.2-0.3-0.2-0.2-0.3-0.3-1.5-0.9-0.7-0.4 0.1-0.9 0.2-1.2 0.4-0.8 0.9-0.6 3.7-0.8 1.1-0.6 3.4-2.6 0.6-0.2 1.2-0.2 0.5-0.2 1.4-1.2 1.3-0.1 2.4 0.5 1.2 0 0.6-0.2 0.4-0.2 0.5-0.4 0.4-0.6 0.1-0.6 0-1.3 0.3-0.5 1-0.6 2.2-0.7 1-0.8 2-2.6 0.8-0.7 1-0.5 3.3 0 1-0.3 2.7-1.5 1.1 0 2.4 0.5 0.9-0.3 0.5-0.7 0.2-1 0.3-0.9 0.7-0.7 2.9-1.2 0.7-0.8 1.4-2.7 0.8-0.7 2-1.2 2.1-0.8 2.1-0.2 4.6 0.9 2.7-0.1 2.4-1.4 1.5-3.2 0-0.8 0-0.8 0.2-0.7 0.4-0.6 0.5-0.3 0.7-0.3 0.7 0.2 0.4 0.6 0.6 1.8 0.7 1.1 0.9 0.7 1.1 0.5 1.1 0.8 1.6 2.4 1.1 0.6 0.6 0 0.7-0.3 0.6-0.5 0.5-0.6 0.3-0.7 0.2-1.5 0.2-0.7 1-0.8 1.8-0.3 1.8 0.1 1.1 0.7 0.4 1.6 0 2.1 0.5 1.8 0.3 0.9 0.2 0.5 0.4 0.3 0.5 0.3 1.8 0.5 0.9 0 1.4-0.1 6.6-0.4 3.3 1.1 9.9 0.4 9.9 0.5 0.6 0.3 0.4 0.6 0.1 0.7 0.1 1.6 1.1 2.8 0.2 1.1 0.2 4.6 0.3 2.3 0.3 1.1 0.4 0.9 0.6 0.8 2.4 1 0.5 0.5 0.2 0.5 0.1 0.7 0.2 0.6 0.3 0.6 1.2 1.2 0.3 0.5 0.5 1.3 0.3 0.4 0.6 0.2 0.8-0.1 2.7-1 4.9-0.2 0.9 0.2 0.8 0.7 0.6 1.4 0.5 1 0.2 0.3 1.4 0.8 7.9-0.1 1.2 0.4 1.3 1 0.5 0.6 0.4 0.3-0.5 0.8 0.1 1.4 0.4 1.9 0.2 2.4 0 0.6-0.1 0.2-0.1 0.4-0.5 1.5-0.2 1 0 1.1 0.3 1.3 0.7 1.7 0.3 0.9 0.4 1.7 0.2 0.6 0.5 0.7 0.8 0.6 1.7 1 0.7 0.6 0.5 0.8 0.4 0.8 0.2 1.2-0.1 2.4-2.4 4.9-0.3 1.3 0 1.4 0.2 1.2 0.2 1.1-0.2 1-0.4 1.1-0.2 1-0.1 0.9 0 1.4 0 0.4-0.4 1.7-1 2-0.9 0.4-2.3 0.1-1.3 0.2-2.2 2.1-2 1.1-3.4 1.9-3.7 1-4.8 0.5-2.6-0.3-0.2-0.1-1.3-0.8-0.8-0.3-3.4 0.1-1.2-0.2-8.1-3.3-1.2 0-11.7 6.2-0.7 0.9-1.3 2.2-1 0.9-1.1 0.8-1.5 1.7-1.7 4.6-2.6-1.4-0.6-0.5-1.8-2-0.7-0.5-0.1-0.2-0.2-0.3-0.1-0.2-0.1-0.5-0.2-1.1-0.2-1.1 0-0.2-0.1-0.3-0.1-0.2-0.2-0.3-0.5-0.6-2.3-1.2-0.4-0.3-0.1-0.1-0.2-0.2-0.3-0.1-1.4-0.3-0.9 0.1-1.1 0.4-1.4 1.1-1.2 1.4-1.3 1.1-1.4 0.6-3.1-0.8-10.3-2.5-0.4 0.2-1.3 1-0.7 0.1-0.5-0.4-0.6-1.2-1-2.9-0.6-1.2-0.8-0.9-0.7-0.1-0.5 0.1-0.7 0.3-0.5 0-0.6-0.4-1.9-7.4-0.3-0.7-0.5-0.5-0.7-0.5-1-0.2-1 0.2-1.3 0.5-2.8 1.7-0.9 0.9-1.8 3-2.7 3.7-1.6 1.4-1.3 0.5z" id="MN046" name="Uvs">
  </path>
  <path d="M519.7 156.6l0.5-2.1 0.4-3.3 0.7-2.9 0.5-2.8 0.6-1.7 0.7-1.3 0.6-2.4 0.2-0.9 0.1-1.5 0-4.5 1.7-1.8-0.7-1.4-0.6-1-3.2-3.5-1.1-1.5-0.3-0.8-0.2-0.9-0.1-1.5 0.1-2.3 1.3-0.1 0.6-0.2 0.5-0.2 0.2-0.4 0.2-0.3-1.7-1.8-0.1-1.5-0.1-0.8-0.4-1.4-0.3-0.7-2.2-3-2.7-2.4 0.7-0.8 0.9-0.5 1.9-0.5 2.9 0.1 0.9-0.2 0.7-0.4 1.1-1.1 0.7-0.2 2.6 0 0.8-0.2 1.7-1.2 0.7-0.2 0.9-0.2 3.3 0.4 0.8 0 0.7-0.2 0.8-0.4 3-2.7 1.1-0.6 1.4-0.2 8.8 2.4 4-0.3 0.7 0.2 1.4 0.6 1.4 0.3 1.5 0.1 0.8 0.1 1.5 1.3 0.1 0.3 0 0.4 0.1 0.4 0.1 0.4 0.2 0.2 2.2 0.2 0.8 0.4 1.1 0.9 0.6 0.3 0.6 0.1 5.5-1.7 3.1-0.3 3.1 0.4 2.5 0.8 1.2 0.7 4.2 3.7 1 0.5 0.3 0.4 0.4 1.7 0.2 0.4 0.6 0.6 0.2 0.3 0.2 0.5 0.2 1.1 0.3 0.4 0.4 0.4 0.8 0.4 0.4 0.3 1.4 1.3 0.8 0.6 0.9 0.4 0.9-0.1 0.7-0.4 0.7-0.1 1.7 1.5 10.3 0.2 0.4 0.2 0.2 0.1 1 0.8 0.6 0.1 0.9-0.1 0.3 0 1.4 0.5 1.3 0.1 0.3 0.4-0.1 1.2-0.2 0.7-0.3 0.6-0.1 0.7 0 0.9 0.5 2.1 0.2 1.6 0 0.6-0.2 0.5-0.6 1.7 0 0.5 0.3 0.3 0.7 0.1 1.1-0.1 0.4 0.4-0.3 0.9 0 0.7 0.3 0.7 0.5 0.6 2 1.5 0.6 0.3 2.4 0.3 0.7 0.3 0.4 0.5 0.3 0.5 0.2 0.6 0.3 0.6 1.6 2 3.9 3.5 1.8 1.2 0.9 0.1-0.9 4.3-0.4 4.5-1.1-0.1-0.9 0-3.3 0.5-1 0.3-2 0.9-1.8 1.1-0.4 0.5-0.7 0.8-1.1 0.9-2.6-1.9-0.7-0.3-1-0.4-0.8-0.2-1.1-0.1-2.1 0-0.8 0.1-1.7 0.5-0.9 0.3-2 1.5-2 1.9 1.5 2.8 0.4 0.5 0.8 0.7 1.8 0.9 0.6 0.3 0.2 0.3 0.3 0.6 0.2 0.7-0.1 1-0.7 1.7-0.5 1.7-0.5 1.4-0.5 1.3-0.3 0.5-0.2 0.3-0.6 0.3-0.6 0.1-1.5-0.2-0.5 0-0.5 0.2-0.9 0.6-1.2 0.6-1.7 0.6-3.4 1.1-1.2-1.5-0.4-0.4-0.6-0.3-0.7-0.3-1-0.1-1.1 0.1-2.2 0.6-0.5 0-2.1-0.1-0.9 0.2-0.5 0.2-0.8 0.7-0.7 0.8-1.2 1.1-0.8 0.4-1 0.3-0.9 0-2.6-0.6-1.1-0.4-1.6-0.9-0.3-0.7-0.5-0.5-4.4-2.1-3.4-2.1-0.9 0.7-0.7 0.5-1.4 0.5-1.4-0.9-0.5-0.5-0.3-0.3 0.6-1.6 0.5-1.7 0-1.1-0.2-0.7-0.2-0.3-0.5-0.6-0.9-0.7-0.9-0.3-2.8-0.6-5.2 1.3-1.8 0.6-0.7 0.4-1.4 0.9-1.9 1.5 0.4 1.1 0.5 2.3 0.5 1.4-1.9 1-1.9 0.9-1.6 0.9-0.9 0.6-0.6 0.2-1.7 0.3-0.6 0.2-1.9 1-0.6 0.5-0.6 0.2-0.6 0.1-0.7 0-1.5-0.4-1.8-0.8-2-0.6-1.4-0.5-2-0.9-5-1.9-0.2-1.7-0.3-3.1 0.4-0.7-0.2-0.3 0.3-0.4 0.3-0.6 0.1-0.3-1.1-1.1-0.9-1.2-1.3-1.1-1.3-1.3 2.6-1.7 1.3-1.1 0.9-0.9 0.4-0.5 0.2-0.6 0-0.6-0.3-0.7-0.8-1.6-0.3-1.2z m52.1-18.1l-0.9-0.2-1.4-0.4-1.2-0.6-1.2-0.9-1.3-0.6-0.9-0.6-1.2-0.5-1.1-0.3 0.3-1 0.5-1.3 1.6-1.9 0.3-0.5 0.1-0.2 0.1-0.6 0-1-0.2-2.5-2.3 0.8-0.3 0.2-0.1 0.1-0.8 1.7-0.6 0.9-0.4 0.4-0.4 0.2-1.7 1.2-0.2 0.3-0.7 1.3-0.3 0.5-0.7 0.6 0.2 1.4 0.5 1.2 0.1 0.9 0.2 0.8 0.5 0.9 0.2 0.5 0.1 0.5 0 0.1 0 1-0.1 1.9-0.2 0.8-0.7 4.3-0.4 3.4-0.6 3.1-0.5 1.1 1.7 0.7 1.1 0.4 3.1 0.5 0.6 0 0.7-0.1 0.7-0.2 0.3-0.1 0.6-0.5 1-1.1 1.8-1.1 1.7-0.6 0.7-0.1 1.5-0.1 0.9 1.3 1.4 1 0.9 0.5 3.7 1.4 3.2-0.9 2.4-1-0.1-3.3-0.4-2.4 0.2-2.3 0.3-2.3 0.1-2.7-0.1-1.7-0.2-0.8-0.4-0.8-0.3-0.5-0.8-0.8-0.5-0.3-1-0.5-0.9-0.6-0.9-0.4-3.3-1.2-1 1.7-0.6 0.7-1.1 0.9-0.6 0.2-0.7 0.1z" id="MN049" name="Selenge">
  </path>
  <path d="M207.9 219.4l-2.5-4.5-3.4-4.7-0.3-0.8 0-1.1-0.1-1.2-0.3-1.5-0.6-1.6-1.2-3.9 2-1.3 1.5-1.3 3.4-3.6 0.9-1.3 0.4-0.9 0.1-0.3 0.1-0.4 0-0.8 0-0.4 0-0.3 0.2-0.4 0-0.2 0.1-0.1 0.1-0.1 0-0.2 0-0.3-0.1-0.2-0.3-0.3-0.9-0.7 1.7-4.6 1.5-1.7 1.1-0.8 1-0.9 1.3-2.2 0.7-0.9 11.7-6.2 1.2 0 8.1 3.3 1.2 0.2 3.4-0.1 0.8 0.3 1.3 0.8 0.2 0.1 2.6 0.3 4.8-0.5 3.7-1 3.4-1.9 2-1.1 2.2-2.1 1.3-0.2 2.3-0.1 0.9-0.4 1-2 0.4-1.7 0-0.4 0-1.4 0.1-0.9 0.2-1 0.4-1.1 0.2-1-0.2-1.1-0.2-1.2 0-1.4 0.3-1.3 2.4-4.9 0.1-2.4-0.2-1.2-0.4-0.8-0.5-0.8-0.7-0.6-1.7-1-0.8-0.6-0.5-0.7-0.2-0.6-0.4-1.7-0.3-0.9-0.7-1.7-0.3-1.3 0-1.1 0.2-1 0.5-1.5 0.1-0.4 0.1-0.2 0-0.6-0.2-2.4-0.4-1.9-0.1-1.4 0.5-0.8 0.1 0.1 0.6 0.3 0.5-0.2 0.5-0.5 0.7-1.1 0.6-0.4 2.8-0.4 1.1-0.6 1.1-1.5 0.8-0.8 1.1-0.4 1.1 0.2 0.7 1 0.4 1.2 0.5 0.9 0.7 0.3 0.8-0.6 0.3-0.6 0.3-0.5 0.4-0.4 0.4-0.3 0.4-0.2 0.5-0.1 0.4 0.1 0.4 0.2 4.2 1.9 1.3 1 1.2 1.3 0.7 0.4 0.7 0.1 0.8-0.3 1.4-0.9 0.7-0.4 0.8 0 0.6 0.3 0.4 0.6 0.4 1 0.4 0.7 0.5 0.2 0.6-0.2 0.6-0.5 1.5-1.6 0.6-0.1 7.6 1.2 1 0.9 1 1.8 0.5 0.5 0.8 0.3 0 0.2 0.1 0.4 0.1 0.5 0.2 0.4 0.2 0.5 1 1.5 0.2 0.5-0.3 0.5-0.6 0.7-2.5 1.7-2.3 2.1-1.3 1.7-0.4 0.6-0.4 1-0.2 0.7-0.3 1.3 0 1.1 0 0.7 0.5 1.6 0.7 1 5.9 5.6 1.4 0.9 2.3 0.6 5.4 0.4 2.9 0.1 1.6 0.7 8.6 6.4 0.7 0.3 1.3 0.1 1.8-0.6 0.9-0.4 0.8-0.2 2.8-0.2 3.9 0.5 2 0.7 1 0.6 1.3 1 0.6 0.3 0.6 0.2 1.1-0.1 0.7-0.2 1.6-1.1 1.5-2.1 1.4-3 8.8-0.9 0.5 0.5 0.2 0.6 0.2 1 0.6 5.2 0.4 2.6 0.7 2.2 0.2 0.8 0 0.6-0.5 1.9-0.5 1.3-0.5 1.1-2 3.3-0.2 0.6-0.1 0.7-0.1 0.9 0.1 1.3 0.3 1.5 1.7 6.1 0.2 2.8-8.8 4.1-1.6 0.2-0.9 0.4-0.8 0.9-1 2-0.8 1-1.2 0.8-2.2 0.7-6 0.1-0.8 0.3-0.7 0.4-0.5 0.6-0.4 0.5-0.7 2.2 0.2 1.1 1 2.5 0.4 1.5 0.1 1.1-0.2 0.9-1.2 4-0.1 1 0.1 0.8 0.3 0.7 0.9 0.5 0.8 0.3 4.2 0.5 0.1 0.3 0 0.3 0 0.5-0.2 1.1-0.2 0.8-0.3 0.8-0.5 1-0.8 1.4-1.3 1.4-0.4 0.6 0 1 0.2 0.8 0.2 0.8-0.4 1.2-0.8 1.7-2.3 3.5-1.7 0.7-1.7 0.4-2.7 0.1-1 0.1-0.8 0.5-0.5 0.8-0.2 1.2-0.1 1.3-0.2 1.2-4.4 13.7-1.2 3-0.2 0.9 0.1 2.3-2.3-0.6-2-1.3-1.4-0.9-1.2 0-0.5 0.1-0.2 0.1-0.1 0.2-0.4 0.7-0.3 0.3-1.5 1.4-0.9 0.6-0.5 0.1-0.7 0.1-0.4 0-0.3-0.1-0.6-0.4-0.5-0.2-0.2 0-3-0.1-1.4-0.2-0.2-0.4-0.1-0.6 0.1-1.4-0.3-0.7-2-2.2-0.8-1.4-0.5-1.3-0.2-1.1-0.3-2.6-2.4-1.2-1-0.6-1-0.2-7.3 2.3-1 0-0.3-2.5-0.4-0.9-0.6-1.7-0.6-2.9-0.6-1.1-1.6-2.1-0.7-1.5-0.6-2.1-0.4-0.6-0.6-0.7-1-0.5-0.4-0.1-0.8-0.4-10.3-6.6-1.9-1.4-1.7-1.7-0.3-0.1-0.9-0.3-1-0.5-1.2-0.9-7.2-0.4-0.8 0.3-1.2 0.7-1-0.1-0.5-0.5-0.3-0.3-0.3-0.5-0.4-0.8-0.5-0.8-0.6-0.9-0.5-0.6-0.9-0.4-2.4-0.8-0.8 0.1-0.9-0.1-0.3 0.1-1 0.4-0.5 0.1-3.3 0.1-3.7-0.4-3.3-1.1-2-0.3-0.3-0.1-0.4-0.2-0.9-0.8-0.7-0.5-1.2-0.5-1.5-0.3-1 0-0.8 0.2-2.7 1.8-3.7 2-3.5 1.4-6.9 0.8z" id="MN057" name="Dzavhan">
  </path>
  <path d="M734.7 142.2l0 0.1 2.1 3 0.1 0.3 0 0.2-0.1 0.3-0.2 0.4-0.5 0.4-0.1 0.2-0.1 0.2 0.1 2 0.9 5.8 1.1 3.2 0.1 1.2 0 0.8-0.7 2.1-0.3 1 0.5 1.5 1.1 2.6 5.5 10.3 1.7 4.3 0.5 1.7 0.3 2.4 0 2.5-0.7 1.8-0.4 2.9 0.7 7.2 1.5 2.9 0.3 0.6 1.2 2.5 1.2 5.3-2 0.3-0.2 0.1-0.7 0.5-0.4 0.1-1.5 0.2-8.7 3.3-1.6 1.1-0.6 0.6-0.5 0.6-0.4 0.6-0.3 0.6-0.2 0.6-0.2 0.7-0.1 0.8-0.2 2.1 0 1.3 0.2 1.9 0.5 2.5-3.3-0.2-3.6-0.7-0.6 0-0.4 0.1-1.2 0.5-1.3 0.8-0.8 0.8-2.9 3.3-1 1.7-0.4 1.1-0.3 1.2-1 7.7-0.7 2.9-2 3.9-2.6 4.6-0.7 1.5-0.4 1.6-0.1 3.2 0 0.9 0.3 1.3 0.9 3.1 0.2 0.9 0.1 0.8-0.2 0.8-0.2 0.7-1.8 2.6-0.3 0.7-0.1 0.5 0.1 1.3-5.4 5-1.9 1.3-1.6 0-1.9-0.7-5.9-3.7-2.4-2.4-0.9-1.5-0.8-2.5-0.5-1.2-0.6-0.8-4.6-4.8-1.6-2.5-0.8-1.6-0.8-0.8-0.7-0.4-1.6-0.1-1.2 0.2-0.3 0.5 0 1.2 0.7 3.8 0.1 0.8-0.1 0.7-1.1 3.8-0.9 2-0.2 0.4-4.5 3.7-1.3 0.8-1.3 0.5-7 0.7-2.8-0.3-4.2-3-0.8-0.7-0.6-0.9-0.9-2.4-0.7-1.3-2.6-2.6-0.9-1.9-0.2-0.3-0.2-0.7 0-0.4 0-0.8 0-0.5 0.2-0.9 0.3-0.8 2.1-4 0.5-1.3 0.2-1.1 0.1-0.8-0.1-1.1-0.1-1.2-0.3-1.1-0.4-0.6-0.5-0.2-0.5 0.3-0.5 0.5-1 1.5-0.2 0.1-0.3 0.1-0.3-0.3 0-0.3 0.1-2.9-0.1-0.9-0.1-0.6-0.5-1.6-3.5-1.6-1.9-1.5-0.9-0.9-1-1.2-0.3-0.8-0.5-1.6-1.1-3.3-0.4-0.5-0.9-1-0.3-0.5-0.6-2.4 0-0.4-0.2-0.3-1.7-1.9-0.3-0.3-0.3-0.8-0.5-1.9-0.2-0.3-0.3-0.2-0.3-0.2-0.3-0.2-0.2-0.5 0.2-0.7 0.4-0.6 0.3-0.7 0.1-1-0.2-0.5-0.3-0.6-0.1-0.5 0.1-0.4 0.3-0.3 0.2-0.2 0.3-0.3 1-2 0.2-0.7 0.1-0.4 0-1 0-0.2 0.2-0.4-0.2-0.3-0.3-0.3-0.2-0.4 0.1-1.4-0.1-0.5-0.3-1.7 0.1-0.5 0.5-0.8 0.1-0.6 1.9-0.4 1.4-0.4 0.7-0.3 1.2-0.7 0.5-0.4 1.2-1.1 1.7-1.7 1-0.9 0.4-0.3 1-0.5 0.3-0.2 0.4-0.4 0.4-1 0.4-2 0.6-1.7 0.6-1 0.5-0.5 0.4-0.3 0.5-1 0.5-1.4 0.1-1.1-0.1-1-0.5-2.5-0.8-2.1-0.4-1.7-0.7-2.5-0.9-5-0.5-1.4-0.6-1.4-0.2-0.7-0.3-2.1-0.2-0.7-1.1-2-1.2-3-1-1.8-1.1-1.2-1.7-1.7-0.6-0.6-0.6-0.5-0.5-0.7-0.8-0.6-0.8-1.1 0.4-4.5 0.9-4.3 1.1 0.1 4.1-0.8 3 0.1 2-0.4 2.9 0.9 0.7 0 2.9-0.8 3.6 0.4 0.7 0.2 0.7 0.4 1.5 0.6 0.6 0.3 1.1-0.1 0.4 0.2 0.1 0.3 0.1 0.7 0.1 0.4 0.5 0.2 0.7 0.3 6-0.4 1.6 0.6 0.9 1.1 0.4 0 2.3 0.6 7.6 2.2 1.2-0.1 1.2-0.5 1.2-0.9 1-1 0.5-0.6 0.2-0.3 0.4 0 1.4 1.6 0.5 0.4 1.6 0.4 2.7 1.7 1.2 0.4 1.2 0.1 1.2-0.1 3.1-1.1 3.5-2 4.9-3.6 3.8-1.4 0.6-0.3 0.8-1.1 0.5-0.4 0.7-0.1 0.6 0.2 1.3 0.7 0.7 0.2 0.7 0 0.6-0.2 3.2-1.7 1.3-0.4 10.4-0.7 2.8-1.2z" id="MN039" name="Hentiy">
  </path>
  <path d="M571.8 138.5l0.7-0.1 0.6-0.2 1.1-0.9 0.6-0.7 1-1.7 3.3 1.2 0.9 0.4 0.9 0.6 1 0.5 0.5 0.3 0.8 0.8 0.3 0.5 0.4 0.8 0.2 0.8 0.1 1.7-0.1 2.7-0.3 2.3-0.2 2.3 0.4 2.4 0.1 3.3-2.4 1-3.2 0.9-3.7-1.4-0.9-0.5-1.4-1-0.9-1.3-1.5 0.1-0.7 0.1-1.7 0.6-1.8 1.1-1 1.1-0.6 0.5-0.3 0.1-0.7 0.2-0.7 0.1-0.6 0-3.1-0.5-1.1-0.4-1.7-0.7 0.5-1.1 0.6-3.1 0.4-3.4 0.7-4.3 0.2-0.8 0.1-1.9 0-1 0-0.1-0.1-0.5-0.2-0.5-0.5-0.9-0.2-0.8-0.1-0.9-0.5-1.2-0.2-1.4 0.7-0.6 0.3-0.5 0.7-1.3 0.2-0.3 1.7-1.2 0.4-0.2 0.4-0.4 0.6-0.9 0.8-1.7 0.1-0.1 0.3-0.2 2.3-0.8 0.2 2.5 0 1-0.1 0.6-0.1 0.2-0.3 0.5-1.6 1.9-0.5 1.3-0.3 1 1.1 0.3 1.2 0.5 0.9 0.6 1.3 0.6 1.2 0.9 1.2 0.6 1.4 0.4 0.9 0.2z" id="MN037" name="Darhan-Uul">
  </path>
  <path d="M641.4 245.2l-1.9 4.8-0.4 0.5-1 1-2 1.1-4.5 2.2-3.5-0.5-4.3-0.8-2.5 0-1.8 0.4-1.4 0.4-1.3 0.7-2.8 0.6-0.2 1.6-0.2 1.6-0.2 2.5-0.1 0.6-0.3 0.7-0.2 0.3-0.5 0.5-0.3 0.2-0.7 0.2-2.4 0.3-1.3 0.5-0.6 0.4-0.2 0.2-1.5 2.2-0.4 0.4-0.5 0.4-2.9 1.1-1.4 0.4-0.7 0.1-4.5 0.2-2.3 0.3-1.7-1.2-1.2-1.1-1.7-1.7-1.1-1.1-1.8-1-1-0.3-2.8-0.6-1.9 0-2.5 0-5.4 0-5.4-0.1-0.3-0.8-0.2-0.3-0.5-0.5-0.6-0.4-3-0.9-1-0.4-1.3-0.9-1.8-1.7-0.5-0.4-0.3-0.1-0.7-0.1-1 0.1-1.9 0.4-1.1 0.5-2.5 3.5-0.6 0.7-2.1 2.8-2.2 4.1-1.4-1.2-1.1-0.8-0.7-0.6-1.7-1-1.9-0.7-2.8-0.9-2.6-1-2.5 3.2-1 1-1.6 1.1-3.8 3.3-0.6-0.6-0.7-1-1.3-1.2-3.6-2.5-0.5-0.4-0.2-0.4-0.3-0.6-0.1-0.7 0-3.9-0.1-0.7-0.2-0.8-0.3-0.8-0.8-1.1-0.6-1.3-0.5-0.7-0.9-1.3-1.1-1.4 1.2-1.3 0.7-0.6 0.5-0.2 0.8-0.1 0.2-1.8 0.1-1.1-0.1-0.9-0.2-0.7-0.2-0.6-0.3-0.5-1.1-1.2-1.8-1.6-1-1.2-0.3-0.5-0.5-1.3-0.4-2.4-0.1-1.1 0.1-1.4 0.7-1.3 0-0.6-0.1-0.6-0.2-0.4-0.9-1-0.6-0.6-0.4-0.5-0.3-0.5-0.5-1.6 1.3-1.2 1.2-1.2 3.6-2.4 1.3-0.5 0.7-0.1 1.5-0.1 2.2 0 0.8-1.3 0.4-1 3.7 0 2.9-0.3-0.6-1.9-1.2-4.6-0.1-1.3-0.1-2 0.6-0.6-0.1-1.1-0.1-0.4-0.2-0.2-0.2-0.1-0.4-0.1-0.3 0.2-0.3 0.1-2.9-0.1-1.6-0.3-1.7-0.6-1.2-0.8-0.2-2.2-0.2-0.9-1.4-2.1-1.2-1.3 1.2-2 0.3-0.8 0.7-2 1-1.8 1.2-1.2 1.5-1.1 0.3-0.3 0.3-0.6 0.5-1.9 0.1-1.8 0-3.3-0.3-3.7 5 1.9 2 0.9 1.4 0.5 2 0.6 1.8 0.8 1.5 0.4 0.7 0 0.6-0.1 0.6-0.2 0.6-0.5 1.9-1 0.6-0.2 1.7-0.3 0.6-0.2 0.9-0.6 1.6-0.9 1.9-0.9 1.9-1-0.5-1.4-0.5-2.3-0.4-1.1 1.9-1.5 1.4-0.9 0.7-0.4 1.8-0.6 5.2-1.3 2.8 0.6 0.9 0.3 0.9 0.7 0.5 0.6 0.2 0.3 0.2 0.7 0 1.1-0.5 1.7-0.6 1.6 0.3 0.3 0.5 0.5 1.4 0.9 1.4-0.5 0.7-0.5 0.9-0.7 3.4 2.1 4.4 2.1 0.5 0.5 0.3 0.7 1.6 0.9 1.1 0.4 2.6 0.6 0.9 0 1-0.3 0.8-0.4 1.2-1.1 0.7-0.8 0.8-0.7 0.5-0.2 0.9-0.2 2.1 0.1 0.5 0 2.2-0.6 1.1-0.1 1 0.1 0.7 0.3 0.6 0.3 0.4 0.4 1.2 1.5 3.4-1.1 1.7-0.6 1.2-0.6 0.9-0.6 0.5-0.2 0.5 0 1.5 0.2 0.6-0.1 0.6-0.3 0.2-0.3 0.3-0.5 0.5-1.3 0.5-1.4 0.5-1.7 0.7-1.7 0.1-1-0.2-0.7-0.3-0.6-0.2-0.3-0.6-0.3-1.8-0.9-0.8-0.7-0.4-0.5-1.5-2.8 2-1.9 2-1.5 0.9-0.3 1.7-0.5 0.8-0.1 2.1 0 1.1 0.1 0.8 0.2 1 0.4 0.7 0.3 2.6 1.9 1.1-0.9 0.7-0.8 0.4-0.5 1.8-1.1 2-0.9 1-0.3 3.3-0.5 0.9 0 1.1 0.1 0.8 1.1 0.8 0.6 0.5 0.7 0.6 0.5 0.6 0.6 1.7 1.7 1.1 1.2 1 1.8 1.2 3 1.1 2 0.2 0.7 0.3 2.1 0.2 0.7 0.6 1.4 0.5 1.4 0.9 5 0.7 2.5 0.4 1.7 0.8 2.1 0.5 2.5 0.1 1-0.1 1.1-0.5 1.4-0.5 1-0.4 0.3-0.5 0.5-0.6 1-0.6 1.7-0.4 2-0.4 1-0.4 0.4-0.3 0.2-1 0.5-0.4 0.3-1 0.9-1.7 1.7-1.2 1.1-0.5 0.4-1.2 0.7-0.7 0.3-1.4 0.4-1.9 0.4-3.7-0.2-2 2-0.9 1.1-0.4 0.8-0.6 1.8-0.4 1.4-0.1 1.1 0.1 0.8 0.5 1.8 0.3 1.6 0.9 1.4 0.6 0.5 0.6 0.3 3.5 0.6-0.3 0.7-0.4 0.6-0.2 0.7 0.2 0.5 0.3 0.2 0.3 0.2 0.3 0.2 0.2 0.3 0.5 1.9 0.3 0.8 0.3 0.3 1.7 1.9 0.2 0.3 0 0.4 0.6 2.4 0.3 0.5 0.9 1 0.4 0.5 1.1 3.3 0.5 1.6 0.3 0.8 1 1.2 0.9 0.9 1.9 1.5z m-55-48.6l-0.6-0.2-1.7-0.7-0.7-0.2-2.4-0.5-2.9-0.7 0.1 0-6.6-1.3 0.5 1.9 0.5 2 0.8 2.8 0.3 5.5 0.7 1 0.4 0.6 0.4 1.3 0.4 1.4 0 3.3 0.2 0.8 0.2 0.7 0.3 0.3 0.6 0.4 2.4 0.6 1 0.4 4.2-0.4 3.3-0.6 0.7 0 2.2 0.1 1.1 0.2 1.1 0.4 1 0.8 2.2 1.9 0.7 0.4 0.8 0.2 1.7 0.2 2.1-0.1 1.3-0.2 1.5-0.4 0.1-1 0.8-3.9 0.3-2 0.7-2.8 0-0.7-0.2-0.6-0.4-0.6-0.8-0.5-1.8-0.6-1.8-0.4-0.7-0.2-0.7-0.4-0.5-0.5-0.5-0.5-0.8-1.1-0.8-0.9-1.7-2.8-1.5-1.8-0.6-1.1-0.7-1.5-2.8 1.2-2.3 0.7-1.1 0.1z" id="MN047" name="Töv">
  </path>
  <path d="M427.6 253.2l-1.7-1.8-0.7-0.3-3.5 0.8-1.3 0.1-3.1-0.5-1 0-2.1 0.7-2.1 0.1-0.6-0.4-0.4-0.6-0.4-0.9-0.6-1.9-0.5-0.8-0.9-0.8-0.9-0.3-1.5-0.4-0.3-0.2-0.2-0.4-0.4-1.5-0.4-1-0.7-1.1-0.4-1-0.3-2.6-0.3-0.4-0.6-0.1-0.9 0.2-9.9 3-2.5 0.6-0.6 0-0.5-0.4-0.3-0.7-0.2-1 0-0.8 0.1-0.8-0.1-0.6-0.1-0.6-0.3-0.8-0.3-0.7-0.1-1.2 0-1 0.2-2.1 0.1-1.1-0.1-1-0.4-1.1-0.7-1-2.1-1.7-0.8-0.8-0.5-0.7-0.4-1-0.2-1.3 0-3.3-0.7 0.1-2 1.2-0.7 0.7-0.5 0.7-0.5 0.4-0.6 0.4-1.8 0.3-0.7 0.2-0.6 0.4-1.4 1.9-0.6 0.4-0.5 0.3-0.8 0.3-2.4 0.4-3.4 0.1-0.9 0-0.7-0.3-5-3.3-0.5-0.6-0.4-0.8 0-2.7-0.7-1.8-0.4-0.4-0.3-0.4-0.5-0.2-0.5-0.2-0.5-0.1-2.3 0.3-2.8 0.9-1.1 0.7-1.8 1.7-4.2-0.5-0.8-0.3-0.9-0.5-0.3-0.7-0.1-0.8 0.1-1 1.2-4 0.2-0.9-0.1-1.1-0.4-1.5-1-2.5-0.2-1.1 0.7-2.2 0.4-0.5 0.5-0.6 0.7-0.4 0.8-0.3 6-0.1 2.2-0.7 1.2-0.8 0.8-1 1-2 0.8-0.9 0.9-0.4 1.6-0.2 8.8-4.1 2.4 2.7 0.9 0.5 0.7 0.1 0.8-0.2 0.8-0.6 0.5-0.7 0.4-0.6 0.4-0.4 0.3-0.1 0.6 0.2 0.6 0.4 0.6 0.2 0.7 0.2 6.3-0.6 0.5-0.1 0.4-0.5 0.4-0.9 0.3-3.5 0.3-0.9 0.3-0.6 0.6-0.5 0.6-0.2 2.7 0.1 1 0.5 4.3 2.5 0.7 0.3 0.9 0.2 1-0.2 0.9-0.4 0.3-1 0-0.8-0.2-0.9 0.3-0.8 0.8-0.5 2.6-0.5 2.5-0.8 1.2-1-0.6-0.9-0.3-0.3-0.1-0.1-0.2-0.1-0.6-0.1-0.3-0.1-0.2-0.1-0.1-0.2-0.2-0.3-0.3-0.6-0.2-0.4-0.1-0.6 0-0.5-0.3-0.7 0-0.3 0-0.5 0.2-0.5 0.2-0.8 0.3-0.4 0-0.4-0.1-0.2-0.1-0.2 0.1-0.2 0.1-0.2 0.5-0.5 0.2-0.2-0.1-0.2-0.1-0.1-0.4-0.2-0.1-0.2 0.2-0.4 0.4-0.7 0.6-0.5 0.3-0.5 0.2-0.2 0-0.3-0.1-0.2 0-0.2 0-0.2 0.6-0.3 0.4-0.2 1.2-0.8 0.3-0.2 0.4-0.1 0.1 0 0.2-0.1 0.2-0.1 0.7-0.5 0.1-0.3 0.3-0.4 0-0.2 0-0.2-0.6-0.8-3.4-1.9-0.3-0.2-0.2-0.3-0.1-0.5 0.1-0.2 0.1-0.6 0.1-0.5 0.4-0.4 0.5 0.6 0.6 0 3.3-0.8 0.2-0.3 0-0.4 0-0.3 0.5-0.5 1.1-0.8 0.4-0.6 0.4-0.6 0.1-0.3 0.1-0.9 0-0.2 0.1-0.2 0.1-0.2 0.2-0.2 0.3-0.4 0.7-0.1 0.8 0.4 8.7 4.7 6.6 4.8 0.9 0.5 3.1 0.2 5.8-1.2 0.3 1.6 0.4 0.8 1 1.3 0.6 0.5 0.6 0.6 1.4 0.9 1.1 0.1 0.7 0.1 0.3 0.2 0.6 0.4 0.7 0.8 0.3 0.6 0.3 0.8 0.3 0.6 0.5 0.3 0.6 0.2 0.6 0 0.8-0.2 1.2-0.8 1.2-0.7 0.8 2 1.1 3.8 0.7 4.9 0 0.7-0.1 1.2 0.2 0.9 0.3 0.6 0.4 0.6 0.5 0.5 1.4 1 0.7 0.8 0.4 1.1 0.3 2.4 0.8 1 0.5 0.4 1.8 1.4 0.7 0.2 0.6 0.2 1.4 0 1.6 0.2 1.4 1.4 1.4 2 0.6 1.3 0.8 1.2 0.8 1.4 0.3 1.1 0.4 2.1 0.3 3.1 0.1 0.8 0.2 0.3 0.5 0.5 0.5 0.4 1.9 0.9 1.6 0.8 0.4 1.2 0.2 0.6 0.9 2 0.7 1.2 1.3 0.1 0.7 0.1 0.6 0.3 0.7 0.5 1.4 1.9 0.9 1.5 0.6 1.5 0.9 1.5 0.7 0.9 0.9 1.3 1.2 1.1 1.3 0.9 1.8 1.7 1.2 0.9 1.9 1.9 0.3 2 0.2 1.7-3 1.9-1.3 0.3-4.4 0.2-5-0.6-1.1-0.4-0.6-0.5-1.5-3.3-0.6-1-0.8-0.8-4.9-1.8-0.7-0.1-1.6 0-2.3-1.3-0.3-0.1-0.8-0.1-0.4 0.4-0.3 0.6 0.1 0.9 0.3 0.8 0.4 0.6 0.5 0.6 0.5 0.3 0.7 0.3 0.4 0.3-0.1 1.3-1.7 3.8-1.1 1.9-2.2 1.5-0.3 0.6-0.3 0.8-0.1 2.1-0.5 2.3-1.5 0.6-0.7-0.2-0.7-0.5-0.6-0.6-1.1-1.8-0.7-0.7-0.7-0.2-0.8 0-3.3 1.4-5.9 1.7-2 1.5-0.8 0.9-1.3 0.9-15.2 3.4z" id="MN073" name="Arhangay">
  </path>
  <path d="M515.7 165.5l-1.3-0.6-0.9-0.6-1.7-0.8-1.6-0.2-5.2-1.5 0-2.4 1.7-2.3 1.2-1.1 1.1 0.4 4 1.3 1.7-1.7 0.3-0.2 0.7-0.2 0.7-0.1 1.1 0.2 0.8 0.2 1.4 0.7 0.3 1.2 0.8 1.6 0.3 0.7 0 0.6-0.2 0.6-0.4 0.5-0.9 0.9-1.3 1.1-2.6 1.7z" id="MN035" name="Orhon">
  </path>
  <path d="M616.8 255l0.4 1.8 0.6 0.8 0.8 0.8 0.9 0.3 1.2 0.3 1.9 0 1.4 0.2-0.3 0.4-2.7 2.3-0.6 0.8-0.3 0.6 0.1 0.6 0.5 0.7 4.5 4.8 1 1.7 0.7 2 0.3 1.2 0.1 0.9-0.1 2.7-0.8 6.1-0.1 1.2 0.3 1.4 0.3 0.6 0.4 0.5 1 1.9 0.8 0.8 0.8 0.4 3.8-1.4 1.1 0.1-1.6 4.8-0.7 4.1-0.1 3.1 0.5 8.2 2.1 13 0.6 2.2 0 0.8-0.2 0.5-0.6 0.2-1.1-0.1-0.5 0.1-0.5 0.2-1 0.8-0.9 1.4-1.3 2.5-2.8 1.7-10 1.3-2.1 0.2-0.7 0.3-0.6 0.7-0.4 1.6-0.8 6.4-0.4 1.2-0.4 0.7-1.5 1.1-4.6 1.5-2.8 0.4-0.6-0.1-2-1-1.3-0.2-0.8 0-16.2 5.6-2 1.1-2.5 2-2.1 0.9-1.3 0.4-2.5 0.4-8.8 1.4-0.9-0.2-2.2-0.9-2.1-1.3-2.3-1.9-0.5-0.8-0.4-1 0-0.8 0-0.8-0.4-1-0.8-1.6-1.8-2.6-3.6-6.6-0.6-0.4-1.7-0.4-8-0.8-11.6-1.3-12.6-2-2.1-0.7-0.7-0.6-0.7-0.8-1.1-2.4-0.1-0.4 0.1-0.3 0.1-0.5 0.1-0.9 0-0.5 0-0.3-0.1-0.3-0.1-0.5 0-0.2 0-0.3 0-0.2 0-0.3 0.3-0.5 0.1-0.3 0-0.2 0-0.2-0.1-1.6 0-0.5 0.1-0.8 0-0.2 0-0.2-0.2-0.3-0.6-0.8-9.3-0.2 0-2.6 0.2-0.9 0.3-0.8 0.7-1.5-0.4-1.1-3-2.9-1.2-1.6-0.5-1-0.4-0.8-0.1-1-0.2-1 0-0.8 0.2-0.7 0.3-0.7 1.1-1.6 1.6-1.5 0.6-0.5 0.7-0.3 1.9-0.3 6.4-0.8 1.3-2.3 0.2-2.8 1.2-6 0.1-0.5 0.2-2.9 0.1-0.4 0.3-0.5 0.5-0.2 0.8-0.3 3.6-0.3 1.8-0.7 0.6-0.7 0.4-0.8 0.4-0.9 1.7-2.1 0.2-1 0.1-1.9 0.2-1 0.2-0.6 1.5-1.6 0.7 1 0.6 0.6 3.8-3.3 1.6-1.1 1-1 2.5-3.2 2.6 1 2.8 0.9 1.9 0.7 1.7 1 0.7 0.6 1.1 0.8 1.4 1.2 2.2-4.1 2.1-2.8 0.6-0.7 2.5-3.5 1.1-0.5 1.9-0.4 1-0.1 0.7 0.1 0.3 0.1 0.5 0.4 1.8 1.7 1.3 0.9 1 0.4 3 0.9 0.6 0.4 0.5 0.5 0.2 0.3 0.3 0.8 5.4 0.1 5.4 0 2.5 0 1.9 0 2.8 0.6 1 0.3 1.8 1 1.1 1.1 1.7 1.7 1.2 1.1 1.7 1.2 2.3-0.3 4.5-0.2 0.7-0.1 1.4-0.4 2.9-1.1 0.5-0.4 0.4-0.4 1.5-2.2 0.2-0.2 0.6-0.4 1.3-0.5 2.4-0.3 0.7-0.2 0.3-0.2 0.5-0.5 0.2-0.3 0.3-0.7 0.1-0.6 0.2-2.5 0.2-1.6 0.2-1.6 2.8-0.6z" id="MN059" name="Dundgovi">
  </path>
  <path d="M441.5 364.5l-4.6-18.6-0.8-2.3-1.3-2.9-0.4-1-0.1-0.7 0-0.6 0.1-0.4 1.1-2.8 0.8-2.2-0.6-1.1-2.6-1.6-1.1-1-1.8-1.1-3.5-1.1-0.7-0.5-0.6-0.6-0.3-0.8-0.3-0.9-0.4-1.8-0.2-1.5-0.3-4.3-0.2-0.6-0.1-0.6 0.1-1.2 0-0.9-0.4-2.1 0-0.8 0.2-0.6 0.3-0.5 1.6-1.6 1.3-1.8 1-2.6 0.1-1-0.1-2.1 1.2-4.3 0.1-1.6-0.1-1.4-0.4-2.1-0.1-3.5 0.2-1 0.4-0.9 0.4-0.9 0.5-0.7 0.6-0.5 1.5-0.6 0.9-0.4 0.7-0.6 0.5-0.7 0.2-0.5 0.2-0.8 0-1.6-0.2-2.1-0.3-1-0.4-0.7-0.4-0.4-0.3-0.7 0.5-1.1 2.5-3.2 0.1-0.8-0.1-0.6-0.4-0.5-0.2-0.7-0.2-0.7-0.2-3.3-2.7-3.4-3.2-3.2-0.3-0.5-1.1-2.1 15.2-3.4 1.3-0.9 0.8-0.9 2-1.5 5.9-1.7 3.3-1.4 0.8 0 0.7 0.2 0.7 0.7 1.1 1.8 0.6 0.6 0.7 0.5 0.7 0.2 1.5-0.6 0.5-2.3 0.1-2.1 0.3-0.8 0.3-0.6 2.2-1.5 1.1-1.9 1.7-3.8 0.1-1.3-0.4-0.3-0.7-0.3-0.5-0.3-0.5-0.6-0.4-0.6-0.3-0.8-0.1-0.9 0.3-0.6 0.4-0.4 0.8 0.1 0.3 0.1 2.3 1.3 1.6 0 0.7 0.1 4.9 1.8 0.8 0.8 0.6 1 1.5 3.3 0.6 0.5 1.1 0.4 5 0.6 4.4-0.2 1.3-0.3 3-1.9 2-0.5 1-0.1 0.7 0.1 1 0.1 0.6 0.1 2.4-0.3 3.5-0.8 2.1-0.6-0.1 1.4 0.1 1.1 0.4 2.4 0.5 1.3 0.3 0.5 1 1.2 1.8 1.6 1.1 1.2 0.3 0.5 0.2 0.6 0.2 0.7 0.1 0.9-0.1 1.1-0.2 1.8-0.8 0.1-0.5 0.2-0.7 0.6-1.2 1.3 1.1 1.4 0.9 1.3 0.5 0.7 0.6 1.3 0.8 1.1 0.3 0.8 0.2 0.8 0.1 0.7 0 3.9 0.1 0.7 0.3 0.6 0.2 0.4 0.5 0.4 3.6 2.5 1.3 1.2-1.5 1.6-0.2 0.6-0.2 1-0.1 1.9-0.2 1-1.7 2.1-0.4 0.9-0.4 0.8-0.6 0.7-1.8 0.7-3.6 0.3-0.8 0.3-0.5 0.2-0.3 0.5-0.1 0.4-0.2 2.9-0.1 0.5-1.2 6-0.2 2.8-1.3 2.3-6.4 0.8-1.9 0.3-0.7 0.3-0.6 0.5-1.6 1.5-1.1 1.6-0.3 0.7-0.2 0.7 0 0.8 0.2 1 0.1 1 0.4 0.8 0.5 1 1.2 1.6 3 2.9 0.4 1.1-0.7 1.5-0.3 0.8-0.2 0.9 0 2.6-0.1 0.7-0.3 0.7-2 3.8-0.6 0.9-0.8 0.9-4.8 3.7-5.9 3.2-0.8 1.5-4.9 10.6-0.4 1.3-0.5 1.9-0.5 1.1-0.4 0.7-1.4 1.2-0.3 1.1 0 1.3 1.7 4.8 0.3 1.1-0.1 0.6-10.5-0.8-14.2 1.1-8.3 2.6-2.2 1z" id="MN055" name="Övörhangay">
  </path>
  <path d="M631.7 207.5l-0.1 0.6-0.5 0.8-0.1 0.5 0.3 1.7 0.1 0.5-0.1 1.4 0.2 0.4 0.3 0.3 0.2 0.3-0.2 0.4 0 0.2 0 1-0.1 0.4-0.2 0.7-1 2-0.3 0.3-0.2 0.2-0.3 0.3-0.1 0.4 0.1 0.5 0.3 0.6 0.2 0.5-0.1 1-3.5-0.6-0.6-0.3-0.6-0.5-0.9-1.4-0.3-1.6-0.5-1.8-0.1-0.8 0.1-1.1 0.4-1.4 0.6-1.8 0.4-0.8 0.9-1.1 2-2 3.7 0.2z" id="MN064" name="Govĭ-Sümber">
  </path>
  <path d="M586.4 196.6l1.1-0.1 2.3-0.7 2.8-1.2 0.7 1.5 0.6 1.1 1.5 1.8 1.7 2.8 0.8 0.9 0.8 1.1 0.5 0.5 0.5 0.5 0.7 0.4 0.7 0.2 1.8 0.4 1.8 0.6 0.8 0.5 0.4 0.6 0.2 0.6 0 0.7-0.7 2.8-0.3 2-0.8 3.9-0.1 1-1.5 0.4-1.3 0.2-2.1 0.1-1.7-0.2-0.8-0.2-0.7-0.4-2.2-1.9-1-0.8-1.1-0.4-1.1-0.2-2.2-0.1-0.7 0-3.3 0.6-4.2 0.4-1-0.4-2.4-0.6-0.6-0.4-0.3-0.3-0.2-0.7-0.2-0.8 0-3.3-0.4-1.4-0.4-1.3-0.4-0.6-0.7-1-0.3-5.5-0.8-2.8-0.5-2-0.5-1.9 6.6 1.3-0.1 0 2.9 0.7 2.4 0.5 0.7 0.2 1.7 0.7 0.6 0.2z" id="MN1" name="Ulaanbaatar">
  </path>
 </g>
 <g id="points">
  <circle class="42.115457447203205|89.34861412234251" cx="90.9" cy="439.6" id="0">
  </circle>
  <circle class="46.331931785055396|105.43198924933715" cx="545.5" cy="273.2" id="1">
  </circle>
  <circle class="51.602524707370634|118.29868935093286" cx="909.1" cy="46" id="2">
  </circle>
 </g>
 <g id="label_points">
  <circle class="Dornod" cx="799.5" cy="165.5" id="MN061">
  </circle>
  <circle class="Bayan-Ölgiy" cx="106" cy="170.2" id="MN071">
  </circle>
  <circle class="Hovd" cx="183.9" cy="237" id="MN043">
  </circle>
  <circle class="Sühbaatar" cx="766.9" cy="279.1" id="MN051">
  </circle>
  <circle class="Dornogovi" cx="673.4" cy="348.4" id="MN063">
  </circle>
  <circle class="Govi-Altay" cx="283.2" cy="307.9" id="MN065">
  </circle>
  <circle class="Bayanhongor" cx="385.3" cy="308.7" id="MN069">
  </circle>
  <circle class="Ömnögovi" cx="511" cy="393" id="MN053">
  </circle>
  <circle class="Hövsgöl" cx="390.8" cy="101.5" id="MN041">
  </circle>
  <circle class="Bulgan" cx="482.7" cy="165.5" id="MN067">
  </circle>
  <circle class="Uvs" cx="186" cy="133.9" id="MN046">
  </circle>
  <circle class="Selenge" cx="541.7" cy="142.6" id="MN049">
  </circle>
  <circle class="Dzavhan" cx="292.4" cy="192.3" id="MN057">
  </circle>
  <circle class="Hentiy" cx="688.3" cy="208.4" id="MN039">
  </circle>
  <circle class="Darhan-Uul" cx="565.9" cy="145.6" id="MN037">
  </circle>
  <circle class="Töv" cx="553.6" cy="222.4" id="MN047">
  </circle>
  <circle class="Arhangay" cx="428.2" cy="207.6" id="MN073">
  </circle>
  <circle class="Orhon" cx="515.7" cy="160.6" id="MN035">
  </circle>
  <circle class="Dundgovi" cx="570.9" cy="310.8" id="MN059">
  </circle>
  <circle class="Övörhangay" cx="464.4" cy="293" id="MN055">
  </circle>
  <circle class="Govĭ-Sümber" cx="627.9" cy="214.8" id="MN064">
  </circle>
  <circle class="Ulaanbaatar" cx="588.7" cy="205.6" id="MN1">
  </circle>
 </g>
</svg>