<?xml version="1.0"?>
    
<!--********* Copyright (c) 2024 Pareto Softare, LLC DBA Simplemaps.com ***************************************
************* Free for Commercial Use, full terms at  https://simplemaps.com/resources/svg-license ************
************* Attribution is appreciated! https://simplemaps.com *******************************************-->

<svg baseprofile="tiny" fill="#6f9c76" height="1000" stroke="#ffffff" stroke-linecap="round" stroke-linejoin="round" stroke-width=".5" version="1.2" viewbox="0 0 1000 1000" width="1000" xmlns="http://www.w3.org/2000/svg">
 <g id="features">
  <path d="M257.4 497.1l39.9-180 101.8-271.6 76 30.8 39.4 10.8 50-2.6-28.1 117.7 56.1 110.6-45 57-40.5 84.6-26.9 98.6-81-37.6-141.7-18.3z" id="MSP" name="Saint Peter">
  </path>
  <path d="M257.4 497.1l141.7 18.3 81 37.6 58.4 61 63 37.6 107.4 18.8 19.4 28.3 22.2 43.7 16.5 44.9 3.9 33.9-21.2 52.2-34.7 40.6-48.7 28.2-60.7 12.3-308.3-84.2-68.2-245.6 28.3-127.6z" id="MSA" name="Saint Anthony">
  </path>
  <path d="M480.1 553l26.9-98.6 40.5-84.6 45-57 82.9 105.3 54.2 101.3-2 45.7-24.6 79.1 5.9 26.2-107.4-18.8-63-37.6-58.4-61z" id="MSG" name="Saint Georges">
  </path>
 </g>
 <g id="points">
  <circle class="16.682558560947147|-62.225652634705895" cx="256.2" cy="909.1" id="0">
  </circle>
  <circle class="16.74014317500809|-62.18085282981897" cx="527.1" cy="545.5" id="1">
  </circle>
  <circle class="16.812123942584268|-62.145012985909425" cx="743.8" cy="90.9" id="2">
  </circle>
 </g>
 <g id="label_points">
  <circle class="Saint Peter" cx="431.3" cy="314.4" id="MSP">
  </circle>
  <circle class="Saint Anthony" cx="461.5" cy="745.9" id="MSA">
  </circle>
  <circle class="Saint Georges" cx="607.4" cy="521.9" id="MSG">
  </circle>
 </g>
</svg>