<?xml version="1.0"?>
    
<!--********* Copyright (c) 2024 Pareto Softare, LLC DBA Simplemaps.com ***************************************
************* Free for Commercial Use, full terms at  https://simplemaps.com/resources/svg-license ************
************* Attribution is appreciated! https://simplemaps.com *******************************************-->

<svg baseprofile="tiny" fill="#6f9c76" height="884" stroke="#ffffff" stroke-linecap="round" stroke-linejoin="round" stroke-width=".5" version="1.2" viewbox="0 0 1000 884" width="1000" xmlns="http://www.w3.org/2000/svg">
 <g id="features">
  <path d="M854.4 560.3l54.8 23.4-16.2 11.8-2.8 9.5-16.1 0-9.1 3.5-0.8-21.7-10.1-4.3-12.6-11.2 12.9-11z" id="MT21" name="Kalkara">
  </path>
  <path d="M854.4 560.3l-12.9 11-9.7 9.2-11 6.3-21.7-18.2 13.3-10.3 16-6.2 12.7 2.5 13.3 5.7z" id="MT60" name="Valletta">
  </path>
  <path d="M828.4 552.1l-16 6.2 0.7-9.6-24-5.3-10.6-8.2 8.1-24 33.4-28.7 5.9 11.1 2.7 29.2-0.2 29.3z" id="MT56" name="Sliema">
  </path>
  <path d="M820 482.5l-33.4 28.7-8.1 24-10.2 5.6-7.1-7.8-7-4.8-1.4-9.8 8.4-6.9 0.7-10.4-4.2-5.2 0.7-7.8 16.8-3.4 23.6-19.1 15.1 5.4 6.1 11.5z" id="MT48" name="San Giljan">
  </path>
  <path d="M798.8 465.6l-23.6 19.1-16.8 3.4-0.7 7.8-19.6 1.7-9.1-2.6-2.9-12.9-8.4-7.8-11.2-5.2 1.4-19.1 4.3-31.8 32.7 28.2 53.9 19.2z" id="MT40" name="Pembroke">
  </path>
  <path d="M712.2 418.2l-4.3 31.8-1.4 19.1-17.5 0.8-10.5 4.4-5.6 5.2-2.9 16.4 0.7 11.3 9.2 9.5-7 10.4 4.2 10.4-8.5 4.3-14 2.6-13.3-6.9-2.8-7.8-0.7-8.7-1.4-8.6-2.1-7.8-4.9-7.8-9.8-1.8-8.5-10.3-3.5-5.2 3.5-4.4 0-8.6-4.9-11.3 2.1-12.1 7.8-13.9 14.7-24.2 18.1-33.7 16.3 6.5 47 40.4z" id="MT38" name="Naxxar">
  </path>
  <path d="M648.9 371.3l-18.1 33.7-14.7 24.2-7.8 13.9-2.1 12.1 4.9 11.3 0 8.6-3.5 4.4 3.5 5.2 8.5 10.3-7.1 8.7-6.3 5.2-6.3-5.2-2.8-9.5-6.3-5.2-9.1-6.9-12.6-2.6-19 3.4-4.9 4.4 2.8 3.4 9.1-0.8 7.1 2.6 2.8 8.6 8.4 5.2 8.4 3.5 2.1 6-4.9 4.4-9.1 5.2-5.6 5.1-7.8-0.8-10.5-4.3-8.4-7-1.4-11.2-2.8-15.6-5.6-7.8-17.5-1.7-7.7-1.8-0.7-8.6 6.3-6.1 3.5-8.7-4.2-5.2-13.4-3.4-4.9-13.9 1.4-13 7-5.2 19-6 15.4-10.4 23.8-7 14.3-36.9 53.8 6.2 23 9.2z" id="MT51" name="San Pawl il-Bahar">
  </path>
  <path d="M572.1 355.9l-14.3 36.9-23.8 7-15.4 10.4-19 6-7 5.2-1.4 13 4.9 13.9-4.9 6-15.4 1.8-8.4 6.9-18.9 8.7-15.5 5.2-14.7 2.8-6.4-62.7-13.5-46.4-24.8-30.2 30.1-27 30.2-18.6 33.2-10.9 37.4-3.5 0 21.7-21.6 4-13.9 7.2-30.6 27.1 133.7 15.5z" id="MT30" name="Mellieħa">
  </path>
  <path d="M496.1 448.3l13.4 3.4 4.2 5.2-3.5 8.7-6.3 6.1 0.7 8.6 7.7 1.8 17.5 1.7 5.6 7.8 2.8 15.6 1.4 11.2 8.4 7 10.5 4.3 7.8 0.8 2.1 8.7-10.6 3.5-12.6 0-16.8 2.6-14.7 1.7-7 8.7-7.8 0.8-9.1-4.3-7.7 4.3-9.1 0-7 7.8-5.6 4.3-8.4-0.8-9.9-10.4-9.1 2.6-10.6-6.1 0-33.6-4.1-40.6 14.7-2.8 15.5-5.2 18.9-8.7 8.4-6.9 15.4-1.8 4.9-6z" id="MT31" name="Mġarr">
  </path>
  <path d="M422.4 553.9l10.6 6.1 9.1-2.6 9.9 10.4 8.4 0.8 5.6-4.3 7-7.8 9.1 0 7.7-4.3 9.1 4.3 7.8-0.8 7-8.7 14.7-1.7 16.8-2.6 12.6 0 10.6-3.5 7 8.7 6.3 6 7.7 7.8-1.4 10.4-2.1 7.8-8.4 2.6-10.5 0-12 0.9-7 7.7 1.4 12.2 14.8 5.2 5.6 5.1 11.9 0 7 0.9-0.7 12.1 4.2 3.5 4.9 30.3-8.4 11.2-14.7 2.6-19-3.4-6.3-8.7-1.4-7.8-5.6-6-12.6 0-24.5 3.4-16.9-0.8-12.7 7.7-4.2-6.6-7.5-8.8-33.6-18.2-7.3-14 0-57.1z" id="MT46" name="Rabat">
  </path>
  <path d="M475 658.6l12.7-7.7 16.9 0.8 24.5-3.4 12.6 0 5.6 6 1.4 7.8 6.3 8.7-1.4 9.5-9.8 17.3-8.4 7.8-2.7 26-18.1-10.1-39.6-62.7z" id="MT07" name="Dingli">
  </path>
  <path d="M555 670.8l19 3.4 14.7-2.6 8.4-11.2 8.4-0.9 7 5.2 14.1 6.1 14.7 6.9 14.7-5.2 7-6.9 3.5-7 14.1-2.5 9.8 1.7 7.7 6.9 4.2 2.6 6.3-3.5 7.7 7 7.7 0 1.4 11.2-11.2 9.5-8.4 9.5-9.8 1.8-2.1 6-7 3.5-2.8 8.6-5.6 11.3-8.5 2.6-7 1.7-8.4 7.8 2.1 8.6-2.1 5.2-10.5 0-9.1 6.1-8.3 16.8-10.3-3.3-83.7-46.3 2.7-26 8.4-7.8 9.8-17.3 1.4-9.5z" id="MT55" name="Siġġiewi">
  </path>
  <path d="M626.7 781l8.3-16.8 9.1-6.1 10.5 0 2.1-5.2-2.1-8.6 8.4-7.8 7-1.7 8.5-2.6 13.3 2.6 11.2 4.3 14-2.6 2.8 8.7-7 3.4-0.7 6.1 4.9 4.3-5.6 5.2-7 6-14 16.5-5 12.7-58.7-18.4z" id="MT44" name="Qrendi">
  </path>
  <path d="M685.4 799.4l5-12.7 14-16.5 7-6 5.6-5.2-4.9-4.3 0.7-6.1 7-3.4-2.8-8.7 13.4-0.9 9.1-0.8 10.5 4.3 6.3 7.8-9.8 10.4 0.7 6 7.7 7.8 7.7 2.6 10.5-5.2 9.1-6 8.5 4.3 6.3 2.6 8.4-7.8 11.2-1.7 3.5 12.1 4.9 14.7-2.1 5.2-10.5 1.7-13.3-4.3-6.3 0-1.4 6.9 4.9 11.2-2.8 5.2-3.8 6.8-59.1-5.9-45.2-14.1z" id="MT68" name="Żurrieq">
  </path>
  <path d="M789.7 819.4l3.8-6.8 2.8-5.2-4.9-11.2 1.4-6.9 6.3 0 13.3 4.3 10.5-1.7 2.1-5.2-4.9-14.7-3.5-12.1 9.8-0.9 5.6-6.9 2.1-7.8 6.3-2.6 11.3-2.6 3.5-8.6 8.4 0 9.8 4.3 11.2 13 6.2 14.4-18.4 20.5-11.8 24.7 0 36-38-15.4-10.4-6.4-22.5-2.2z" id="MT05" name="Birżebbuġa">
  </path>
  <path d="M890.8 762.2l-6.2-14.4-11.2-13-9.8-4.3-8.4 0-1.4-13.9 14.7 0.9 5.6-5.2 14 1.7 14.1 7.8 7.7-8.6 12.6 6 13.3 1.7 15.6 4.2-9.6 34.7-32.6-18.1-18.4 20.5z" id="MT28" name="Marsaxlokk">
  </path>
  <path d="M951.4 725.1l-15.6-4.2-13.3-1.7-12.6-6-3.5-6.1-0.7-6.1 2.8-6.9-3.5-9.5-7.7-15.6 6.3-6 7-0.9 6.3-7.8 2.8-8.6 20-12.3 5.4 8.8 9.4 71.4-3.1 11.5z" id="MT27" name="Marsaskala">
  </path>
  <path d="M865 608.5l9.1-3.5 16.1 0 8.5 13 11.2 5.2 18.6-8 11.2 18.2-20 12.3-2.8 8.6-6.3 7.8-7 0.9-6.3 6-19-1.7-7-7.8-10.5-0.9-5.6-3.4 2.8-9.5 4.2-7 2.1-6.9-5.6-2.6 0.7-9.5 5.6-11.2z" id="MT64" name="Żabbar">
  </path>
  <path d="M890.2 605l2.8-9.5 16.2-11.8 19.3 31.5-18.6 8-11.2-5.2-8.5-13z" id="MT63" name="Xgħajra">
  </path>
  <path d="M72.1 175.6l-23.6-15.3 7.4-31.6-8.7-32-1.7-24.8 18.5 15.5 25.2 11.1 10.1-4.2 4.5 10.5 8.4 4.8-3.9 13.2-7.8 7.6 0 11.1-15.7 16.7-12.7 17.4z" id="MT50" name="San Lawrenz">
  </path>
  <path d="M72.1 175.6l12.7-17.4 15.7-16.7 0-11.1 7.8-7.6 3.9-13.2 16.9 1.4 7.3 8.3 15.7 2.8 6.7 9 3.4 10.4 6.1 3.5 0.6 5.5-0.6 18.1-11.7-3.5-9.6-1.4-8.9 4.2-15.2 10.4-15.7 15.7-20.1-8.7-15-9.7z" id="MT22" name="Kerċem">
  </path>
  <path d="M107.2 194l15.7-15.7 15.2-10.4 8.9-4.2 9.6 1.4 11.7 3.5 4.5 6.9 9 2.8-1.7 5.5-6.1 11.1-9.6 11.1-1.9 7.4-28.7-7.9-26.6-11.5z" id="MT36" name="Munxar">
  </path>
  <path d="M162.5 213.4l1.9-7.4 9.6-11.1 6.1-11.1 8.4 2.1 18 0 10.6 2.8 7.9 7.6 11.2 3.5 10.7 6.2 7.3-0.7 4.6 9.7-32.2 7.2-44-3.4-20.1-5.4z" id="MT52" name="Sannat">
  </path>
  <path d="M258.8 215l-4.6-9.7 1.1-3.4 9.5-9.7 1.1-13.2 5.1-5.6 4.5-9.7 10.1 7 10.1 2 18.5 0 5.6 7 1.8 8.8-53.4 24.4-9.4 2.1z" id="MT13" name="Għajnsielem">
  </path>
  <path d="M321.6 188.5l-1.8-8.8-5.6-7 19.6-2.7 5.6-7.7 0.6-13.8 1.7-7 8.4-2.1 8.4-5.5 11.3-7.7 32.7 34.8-28.9 21.1-41.7 1.7-10.3 4.7z" id="MT42" name="Qala">
  </path>
  <path d="M314.2 172.7l-18.5 0-10.1-2-10.1-7 0.5-13.2 3.4-8.3 1.7-13.2 7.3-3.4 0-32.6 7.1-20.2 60.9 39.2 13.4 14.2-11.3 7.7-8.4 5.5-8.4 2.1-1.7 7-0.6 13.8-5.6 7.7-19.6 2.7z" id="MT37" name="Nadur">
  </path>
  <path d="M295.5 72.8l-7.1 20.2 0 32.6-7.3 3.4-1.7 13.2-3.4 8.3-0.5 13.2-12.9-9.7-9-4.2-10.7 2.1-13.4 2.8-14.6-2.8 1.1-7.6-5-6.9-6.8-9.8 6.2-0.6 2.8-5.6-3.3-9.7 1.1-9.7 8.4-9.7 11.2-5.6 14-0.7 2.3-5.5-0.6-9.7-1.1-7.7 9.8-9.5 25 9.2 15.5 10z" id="MT61" name="Xagħra">
  </path>
  <path d="M255 53.6l-9.8 9.5 1.1 7.7 0.6 9.7-2.3 5.5-14 0.7-11.2 5.6-8.4 9.7-1.1 9.7 3.3 9.7-2.8 5.6-6.2 0.6-12.9 0-13.4-10.4-1.1-16.6-5.7-7.6-7.8 2.7-5.1-2.1-2.2-15.2 0.6-18.1 7.2-11.8 54.7-8.3 36.5 13.4z" id="MT65" name="Żebbuġ">
  </path>
  <path d="M152.1 122.1l-15.7-2.8-7.3-8.3-1.7-19.4-5.1-13.9-8.4-10.4 1.1-11.4 48.8-7.4-7.2 11.8-0.6 18.1 2.2 15.2 5.1 2.1 7.8-2.7 5.7 7.6 1.1 16.6-11.8-0.7-10.7 1.4-3.3 4.2z" id="MT16" name="Għasri">
  </path>
  <path d="M112.2 109.6l-8.4-4.8-4.5-10.5-10.1 4.2-25.2-11.1-18.5-15.5 28.1-9.8 41.4-6.2-1.1 11.4 8.4 10.4 5.1 13.9 1.7 19.4-16.9-1.4z" id="MT14" name="Għarb">
  </path>
  <path d="M168.9 150.5l-0.6-5.5-6.1-3.5-3.4-10.4-6.7-9 3.3-4.2 10.7-1.4 11.8 0.7 13.4 10.4 12.9 0 6.8 9.8 5 6.9-1.1 7.6-2.2 14.6-8.5 0.7-7.8-0.7-6.2 5.5-0.5-9.7-8.5-4.8-4.4-7-7.9 0z" id="MT45" name="Victoria">
  </path>
  <path d="M168.3 168.6l0.6-18.1 7.9 0 4.4 7 8.5 4.8 0.5 9.7-8.4 6.3-9-2.8-4.5-6.9z" id="MT10" name="Fontana, Gozo">
  </path>
  <path d="M180.1 183.8l1.7-5.5 8.4-6.3 6.2-5.5 7.8 0.7 8.5-0.7 2.2-14.6 14.6 2.8 13.4-2.8 10.7-2.1 9 4.2 12.9 9.7-4.5 9.7-5.1 5.6-1.1 13.2-9.5 9.7-1.1 3.4-7.3 0.7-10.7-6.2-11.2-3.5-7.9-7.6-10.6-2.8-18 0-8.4-2.1z" id="MT62" name="Xewkija">
  </path>
  <path d="M619.6 495l9.8 1.8 4.9 7.8 2.1 7.8 1.4 8.6 0.7 8.7 2.8 7.8-4.2 5.2 0 9.5 4.9 16.4-8.4-0.8-8.4-6.1-13.4-6-14.7 1.7-7.7 4.3-7.7-7.8-6.3-6-7-8.7-2.1-8.7 5.6-5.1 9.1-5.2 4.9-4.4-2.1-6-8.4-3.5-8.4-5.2-2.8-8.6-7.1-2.6-9.1 0.8-2.8-3.4 4.9-4.4 19-3.4 12.6 2.6 9.1 6.9 6.3 5.2 2.8 9.5 6.3 5.2 6.3-5.2 7.1-8.7z" id="MT32" name="Mosta">
  </path>
  <path d="M641.3 537.5l13.3 6.9 14-2.6 5 9.5-6.4 18.2-14.7 0.9-10.5-1.8-4.9-16.4 0-9.5 4.2-5.2z" id="MT24" name="Lija">
  </path>
  <path d="M585.9 579.9l2.1-7.8 1.4-10.4 7.7-4.3 14.7-1.7 13.4 6 8.4 6.1 8.4 0.8 10.5 1.8 14.7-0.9 6.4 9.5 8.4 5.2 13.3 2.6-2.1 9.5-5.6 7.8-26.7 1.8-14.7 0.8-7.7 7.8-11.9 2.6-12.7-1.7-11.9-3.5-13.3 2.6-4.2-13.8 0.7-9.6 0.7-11.2z" id="MT01" name="Attard">
  </path>
  <path d="M564.2 608.5l-14.8-5.2-1.4-12.2 7-7.7 12-0.9 10.5 0 8.4-2.6-0.7 11.2-0.7 9.6-8.4 0-8.4 2.6-3.5 5.2z" id="MT35" name="Mtarfa">
  </path>
  <path d="M588.7 614.5l-7-0.9-11.9 0-5.6-5.1 3.5-5.2 8.4-2.6 8.4 0 4.2 13.8z" id="MT29" name="Mdina">
  </path>
  <path d="M597.1 660.4l-4.9-30.3-4.2-3.5 0.7-12.1 13.3-2.6 11.9 3.5 12.7 1.7 11.9-2.6 7.7-7.8 14.7-0.8 26.7-1.8-2.8 7.8-4.2 6.9 2.1 12.2 5.6 6 11.9 1.7 7 6.1 0 9.5 1.4 9.5-6.3 3.5-4.2-2.6-7.7-6.9-9.8-1.7-14.1 2.5-3.5 7-7 6.9-14.7 5.2-14.7-6.9-14.1-6.1-7-5.2-8.4 0.9z" id="MT66" name="Żebbuġ">
  </path>
  <path d="M724 670.8l-7.7 0-7.7-7-1.4-9.5 0-9.5-7-6.1-11.9-1.7-5.6-6-2.1-12.2 4.2-6.9 2.8-7.8 5.6-7.8 2.1-9.5 14 12.1 15.4 1.8 8.5 4.3 12.6 2.6 11.9 17.3-7.7 4.3-1.4 6.9-7.7 8.7-16.9 26z" id="MT43" name="Qormi">
  </path>
  <path d="M757.7 495.9l4.2 5.2-0.7 10.4-8.4 6.9-4.9-5.2-6.3 6.1-11.9 4.3-14.1-0.8-6.3-2.6-2.1-13.9-5.6-9.5-2.1-13.9-10.5-4.3 0-8.7 17.5-0.8 11.2 5.2 8.4 7.8 2.9 12.9 9.1 2.6 19.6-1.7z" id="MT57" name="Swieqi">
  </path>
  <path d="M679.9 516.7l-9.2-9.5-0.7-11.3 2.9-16.4 5.6-5.2 10.5-4.4 0 8.7 10.5 4.3 2.1 13.9 5.6 9.5 2.1 13.9-3.5 6.9-9.1-6.9-7.7-2.6-9.1-0.9z" id="MT15" name="Għargħur">
  </path>
  <path d="M752.8 518.4l1.4 9.8 7 4.8 7.1 7.8-6.4 12.7-23.6 1.3-8.8 3-23-6.5-0.7-24.2 3.5-6.9 6.3 2.6 14.1 0.8 11.9-4.3 6.3-6.1 4.9 5.2z" id="MT49" name="San Ġwann">
  </path>
  <path d="M668.6 541.8l8.5-4.3-4.2-10.4 7-10.4 9.1 0.9 7.7 2.6 9.1 6.9 0.7 24.2-9.1 3.5-9.8 2.6-14-6.1-5-9.5z" id="MT19" name="Iklin">
  </path>
  <path d="M724.7 600.7l-15.4-1.8-14-12.1 1.4-10.4-3.5-10.4-5.6-8.6 9.8-2.6 9.1-3.5 23 6.5 8.4 7 2.5 7-6.4 6.9-4.5 2.6-1.5 7.5-3.3 11.9z" id="MT04" name="Birkirkara">
  </path>
  <path d="M667.2 569.5l6.4-18.2 14 6.1 5.6 8.6 3.5 10.4-1.4 10.4-13.3-2.6-8.4-5.2-6.4-9.5z" id="MT02" name="Balzan">
  </path>
  <path d="M745.8 607.6l-12.6-2.6-8.5-4.3 3.3-11.9 1.5-7.5 4.5-2.6 6.4 1.8 13.1 3.9 10.2 10-14.1 5.7-3.8 7.5z" id="MT54" name="Santa Venera">
  </path>
  <path d="M757.7 624.9l-11.9-17.3 3.8-7.5 14.1-5.7 10.2 1.3 12.4-6.9 4.6 6.5-3.6 4.8-10.7 6.6-4.9 19.1-14-0.9z" id="MT18" name="Ħamrun">
  </path>
  <path d="M748.6 636.1l1.4-6.9 7.7-4.3 14 0.9 4.9-19.1 10.7-6.6 4.8 3.2 4.9 10.3-0.7 18.2-6.3 18.2-10.6 13-9.1 0-9.8-7.8-7.7-1.7 0-7.8-4.2-9.6z" id="MT26" name="Marsa">
  </path>
  <path d="M693.9 708.8l2.1-6 9.8-1.8 8.4-9.5 11.2-9.5-1.4-11.2 16.9-26 7.7-8.7 4.2 9.6 0 7.8 7.7 1.7 9.8 7.8 9.1 0 3.5 13 0 12.1-0.7 10.3 4.3 11.3 0 6.1 0.7 11.2 5.6 5.2 10.5 7.8 7.7 9.5 5.6 10.4-11.2 1.7-13.3-13-8.5-11.2-11.2-6.1-2.1-10.4-4.9-2.6-7-9.5-6.3-3.4-8.4 6-12.6-3.4-9.2-5.2-10.5 7.8-8.4 3.4-9.1-5.2z" id="MT25" name="Luqa">
  </path>
  <path d="M678.5 732.2l5.6-11.3 2.8-8.6 7-3.5 9.1 5.2 8.4-3.4 10.5-7.8 9.2 5.2 12.6 3.4 3.5 7.8-3.5 5.2-4.2 10.4-9.1 0.8-13.4 0.9-14 2.6-11.2-4.3-13.3-2.6z" id="MT33" name="Mqabba">
  </path>
  <path d="M756.3 746.9l-6.3-7.8-10.5-4.3 4.2-10.4 3.5-5.2-3.5-7.8 8.4-6 6.3 3.4 7 9.5 4.9 2.6 2.1 10.4-16.1 15.6z" id="MT23" name="Kirkop">
  </path>
  <path d="M805.4 761.6l-8.4 7.8-6.3-2.6-8.5-4.3-9.1 6-10.5 5.2-7.7-2.6-7.7-7.8-0.7-6 9.8-10.4 16.1-15.6 11.2 6.1 8.5 11.2 13.3 13z" id="MT47" name="Safi">
  </path>
  <path d="M855.2 730.5l-3.5 8.6-11.3 2.6-6.3 2.6-2.1 7.8-5.6 6.9-9.8 0.9-5.6-10.4-7.7-9.5 5.6-5.2 0-5.2 0.7-9.5 2.8-6.9 4.9-3.5 1.4-9.5 1.4-4.3-1.4-9.6 2.8-5.2 11.2 3.5 9.9 13 11.2 19 1.4 13.9z" id="MT17" name="Għaxaq">
  </path>
  <path d="M909.9 713.2l-7.7 8.6-14.1-7.8-14-1.7-5.6 5.2-14.7-0.9-11.2-19-9.9-13-11.2-3.5 3.5-4.3 9.1-6 4.9-3.5 2.2-7.8 5.6-1.7 8.4-2.6 5.6 3.4 10.5 0.9 7 7.8 19 1.7 7.7 15.6 3.5 9.5-2.8 6.9 0.7 6.1 3.5 6.1z" id="MT67" name="Żejtun">
  </path>
  <path d="M858.7 629.2l5.6 2.6-2.1 6.9-4.2 7-2.8 9.5-8.4 2.6-5.6 1.7-2.2 7.8-4.9 3.5-3.5-8.7 2.1-6.9-6.3-6.9-11.2-3.5 12.6-13.8 8.4 0 13.4-0.9 9.1-0.9z" id="MT08" name="Fgura">
  </path>
  <path d="M821.5 681.1l-2.8 5.2-16.8-3.4-11.2-1.8-7.8-5.1 12.7-8.7 7.7-4.3 3.5-9.5 8.4-8.7 11.2 3.5 6.3 6.9-2.1 6.9 3.5 8.7-9.1 6-3.5 4.3z" id="MT59" name="Tarxien">
  </path>
  <path d="M782.2 698.4l0.7-10.3 0-12.1 7.8 5.1 11.2 1.8 16.8 3.4 1.4 9.6-1.4 4.3-16.8-0.9-19.7-0.9z" id="MT53" name="Santa Luċija">
  </path>
  <path d="M803.3 740l-10.5-7.8-5.6-5.2-0.7-11.2 0-6.1-4.3-11.3 19.7 0.9 16.8 0.9-1.4 9.5-4.9 3.5-2.8 6.9-0.7 9.5 0 5.2-5.6 5.2z" id="MT11" name="Gudja">
  </path>
  <path d="M779.4 663l10.6-13 6.3-18.2 0.7-18.2 9.1-7.7 9.1-8.7 12.6 14.7-7 13 7 6.1-12.6 13.8-8.4 8.7-3.5 9.5-7.7 4.3-12.7 8.7-3.5-13z" id="MT39" name="Paola">
  </path>
  <path d="M812.4 558.3l-13.3 10.3-8.9-6-20.5-0.4-7.8-8.7 6.4-12.7 10.2-5.6 10.6 8.2 24 5.3-0.7 9.6z" id="MT12" name="Gżira">
  </path>
  <path d="M799.1 568.6l21.7 18.2-5.6 10.4-9.1 8.7-9.1 7.7-4.9-10.3-4.8-3.2 3.6-4.8-4.6-6.5 4.4-12.4 8.4-7.8z" id="MT09" name="Floriana">
  </path>
  <path d="M769.7 562.2l20.5 0.4 8.9 6-8.4 7.8-11.3 2.6-9.1-0.8-0.6-16z" id="MT58" name="Ta' Xbiex">
  </path>
  <path d="M820.8 586.8l11-6.3 14 11.7-18 19.7-12.6-14.7 5.6-10.4z" id="MT20" name="Isla">
  </path>
  <path d="M865 608.5l-5.6 11.2-0.7 9.5-9.1 0.9-13.4 0.9-8.4 0-7-6.1 7-13 18-19.7 19.2 16.3z" id="MT06" name="Cospicua">
  </path>
  <path d="M786.3 588.8l-12.4 6.9-10.2-1.3 6-7.4 0.6-8.8 9.1 0.8 11.3-2.6-4.4 12.4z" id="MT41" name="Pietà">
  </path>
  <path d="M729.5 557.8l8.8-3 23.6-1.3 7.8 8.7 0.6 16-0.6 8.8-6 7.4-10.2-10-13.1-3.9-6.4-1.8 6.4-6.9-2.5-7-8.4-7z" id="MT34" name="Msida">
  </path>
  <path d="M841.5 571.3l12.6 11.2 10.1 4.3 0.8 21.7-19.2-16.3-14-11.7 9.7-9.2z" id="MT03" name="Birgu">
  </path>
 </g>
 <g id="points">
  <circle class="35.8149335661843|14.20278160702557" cx="90.9" cy="803.3" id="0">
  </circle>
  <circle class="35.92468291380539|14.39455406910404" cx="545.5" cy="482.3" id="1">
  </circle>
  <circle class="36.061869598331754|14.547972038766815" cx="909.1" cy="80.4" id="2">
  </circle>
 </g>
 <g id="label_points">
  <circle class="Kalkara" cx="877.6" cy="587.6" id="MT21">
  </circle>
  <circle class="Valletta" cx="825.8" cy="568.5" id="MT60">
  </circle>
  <circle class="Sliema" cx="808.9" cy="523.4" id="MT56">
  </circle>
  <circle class="San Giljan" cx="779.8" cy="498.7" id="MT48">
  </circle>
  <circle class="Pembroke" cx="743.7" cy="471.2" id="MT40">
  </circle>
  <circle class="Naxxar" cx="656.6" cy="438.4" id="MT38">
  </circle>
  <circle class="San Pawl il-Bahar" cx="568.5" cy="435.7" id="MT51">
  </circle>
  <circle class="Mellieħa" cx="452" cy="394.9" id="MT30">
  </circle>
  <circle class="Mġarr" cx="475.2" cy="510.8" id="MT31">
  </circle>
  <circle class="Rabat" cx="504.9" cy="603.8" id="MT46">
  </circle>
  <circle class="Dingli" cx="519.6" cy="680.1" id="MT07">
  </circle>
  <circle class="Siġġiewi" cx="613.7" cy="720.7" id="MT55">
  </circle>
  <circle class="Qrendi" cx="676" cy="764.7" id="MT44">
  </circle>
  <circle class="Żurrieq" cx="729.5" cy="782.3" id="MT68">
  </circle>
  <circle class="Birżebbuġa" cx="847.7" cy="777.8" id="MT05">
  </circle>
  <circle class="Marsaxlokk" cx="894.2" cy="735.2" id="MT28">
  </circle>
  <circle class="Marsaskala" cx="928.9" cy="684.1" id="MT27">
  </circle>
  <circle class="Żabbar" cx="886.9" cy="639.5" id="MT64">
  </circle>
  <circle class="Xgħajra" cx="907.7" cy="605.6" id="MT63">
  </circle>
  <circle class="San Lawrenz" cx="77.8" cy="123.1" id="MT50">
  </circle>
  <circle class="Kerċem" cx="122.9" cy="147.1" id="MT22">
  </circle>
  <circle class="Munxar" cx="148.3" cy="186.7" id="MT36">
  </circle>
  <circle class="Sannat" cx="205.5" cy="203.2" id="MT52">
  </circle>
  <circle class="Għajnsielem" cx="283.5" cy="187.6" id="MT13">
  </circle>
  <circle class="Qala" cx="364.3" cy="158.7" id="MT42">
  </circle>
  <circle class="Nadur" cx="315.9" cy="129.2" id="MT37">
  </circle>
  <circle class="Xagħra" cx="253.9" cy="115.2" id="MT61">
  </circle>
  <circle class="Żebbuġ" cx="196.1" cy="75.1" id="MT65">
  </circle>
  <circle class="Għasri" cx="142" cy="86" id="MT16">
  </circle>
  <circle class="Għarb" cx="91.7" cy="78.4" id="MT14">
  </circle>
  <circle class="Victoria" cx="192.9" cy="145" id="MT45">
  </circle>
  <circle class="Fontana, Gozo" cx="178" cy="166.3" id="MT10">
  </circle>
  <circle class="Xewkija" cx="235.4" cy="176.5" id="MT62">
  </circle>
  <circle class="Mosta" cx="606.1" cy="532.6" id="MT32">
  </circle>
  <circle class="Lija" cx="654.6" cy="557.3" id="MT24">
  </circle>
  <circle class="Attard" cx="630.5" cy="590.9" id="MT01">
  </circle>
  <circle class="Mtarfa" cx="567.2" cy="593.2" id="MT35">
  </circle>
  <circle class="Mdina" cx="576.9" cy="607.2" id="MT29">
  </circle>
  <circle class="Żebbuġ" cx="644" cy="642.9" id="MT66">
  </circle>
  <circle class="Qormi" cx="721" cy="626.9" id="MT43">
  </circle>
  <circle class="Swieqi" cx="718.1" cy="500.8" id="MT57">
  </circle>
  <circle class="Għargħur" cx="686.2" cy="498.3" id="MT15">
  </circle>
  <circle class="San Ġwann" cx="734.8" cy="538.9" id="MT49">
  </circle>
  <circle class="Iklin" cx="691.4" cy="537.4" id="MT19">
  </circle>
  <circle class="Birkirkara" cx="713.5" cy="574.5" id="MT04">
  </circle>
  <circle class="Balzan" cx="682" cy="569.6" id="MT02">
  </circle>
  <circle class="Santa Venera" cx="739.9" cy="593.4" id="MT54">
  </circle>
  <circle class="Ħamrun" cx="763" cy="610" id="MT18">
  </circle>
  <circle class="Marsa" cx="777.7" cy="641.3" id="MT26">
  </circle>
  <circle class="Luqa" cx="755.5" cy="680.7" id="MT25">
  </circle>
  <circle class="Mqabba" cx="714.2" cy="722.8" id="MT33">
  </circle>
  <circle class="Kirkop" cx="756.2" cy="727.2" id="MT23">
  </circle>
  <circle class="Safi" cx="773.9" cy="750.1" id="MT47">
  </circle>
  <circle class="Għaxaq" cx="831.3" cy="723" id="MT17">
  </circle>
  <circle class="Żejtun" cx="864.7" cy="688.1" id="MT67">
  </circle>
  <circle class="Fgura" cx="841.2" cy="645.1" id="MT08">
  </circle>
  <circle class="Tarxien" cx="814.6" cy="668.3" id="MT59">
  </circle>
  <circle class="Santa Luċija" cx="799.8" cy="690.9" id="MT53">
  </circle>
  <circle class="Gudja" cx="798.4" cy="715.2" id="MT11">
  </circle>
  <circle class="Paola" cx="807.7" cy="633.9" id="MT39">
  </circle>
  <circle class="Gżira" cx="780.2" cy="550.9" id="MT12">
  </circle>
  <circle class="Floriana" cx="802" cy="589.3" id="MT09">
  </circle>
  <circle class="Ta' Xbiex" cx="782.1" cy="570.4" id="MT58">
  </circle>
  <circle class="Isla" cx="828.6" cy="595" id="MT20">
  </circle>
  <circle class="Cospicua" cx="845.6" cy="614.5" id="MT06">
  </circle>
  <circle class="Pietà" cx="776.6" cy="586.5" id="MT41">
  </circle>
  <circle class="Msida" cx="754" cy="569.4" id="MT34">
  </circle>
  <circle class="Birgu" cx="850.9" cy="588.1" id="MT03">
  </circle>
 </g>
</svg>