<?xml version="1.0"?>
    
<!--********* Copyright (c) 2024 Pareto Softare, LLC DBA Simplemaps.com ***************************************
************* Free for Commercial Use, full terms at  https://simplemaps.com/resources/svg-license ************
************* Attribution is appreciated! https://simplemaps.com *******************************************-->

<svg baseprofile="tiny" fill="#6f9c76" height="1000" stroke="#ffffff" stroke-linecap="round" stroke-linejoin="round" stroke-width=".5" version="1.2" viewbox="0 0 1000 1000" width="1000" xmlns="http://www.w3.org/2000/svg">
 <g id="features">
  <path d="M267.5 949.3l0.1 0 0 0.1 0 0.2 0 0.1 0 0.1-0.1 0 0-0.1-0.1 0 0-0.1 0-0.1 0-0.1 0-0.1 0-0.1 0.1 0 0 0.1z m1.2-5.1l0 0.1 0 0.1-0.1 0 0 0.1-0.1 0 0 0.1 0 0.1-0.1 0 0 0.1-0.1 0 0 0.1-0.1 0 0 0.1 0 0.1-0.1 0 0 0.1 0 0.1 0 0.1-0.1 0 0 0.1-0.1 0 0 0.1 0 0.1-0.1 0 0-0.2 0-0.1 0-0.1 0-0.1 0-0.4 0.1 0 0-0.1 0-0.1 0.1 0 0-0.1 0.1 0 0-0.1 0.1 0 0-0.1 0.1 0 0.1 0 0-0.1 0.1 0 0 0.1 0.1 0 0-0.1 0.1 0z m10.1-20.7l-0.1 0 0 0.1-0.1 0 0 0.1-0.1 0 0 0.1-0.1 0-0.1 0.2 0 0.1-0.1 0-0.1 0.1 0 0.1-0.1 0.1 0 0.1-0.1 0.1-0.1 0.1-0.1 0-0.1 0 0 0.1-0.1 0-0.1 0-0.1 0 0 0.1-0.1 0.1 0 0.1 0 0.1 0 0.1-0.2 2 0.4 2.9 0 0.1 0.1 0 0 0.1 0.1 0 0 0.1 0 0.1 0.1 0 0 0.1-0.6 4.1 0.1 0.1 0.1 0 0.1 0 0.1 0 0 0.1 0.1 0 0 0.1 0.1 0 0 0.1 0.1 0 0 0.1 0 0.1 0 0.1 0.1 0 0 0.1 0 0.1 0 0.1 0 0.1-0.1 0-0.1 0 0 0.1 0 0.1-0.1 0-0.1 0 0 0.1 0 0.1 0.1 0.1 0 0.1 0.1 0 0.1 0.1 0.1 0.1 0 0.1 0.1 0 0 0.1 0 0.1 0 0.1 0.1 0-0.1 0.1 0 0.1 0.1 0 0 0.1 0.1-0.1 0.1 0 0.1 0 0.1 0 0.1 0 0.1 0 0 0.1 0 0.1 0.1 0 0 0.1 0.1 0 0 0.1 0 0.1 0 0.1 0 0.1 0 0.1 0 0.1-0.1 0.1-0.1 0 0 0.1-0.1 0 0 0.1-0.1 0 0 0.1-0.1 0-0.1 0 0-0.1-0.1-0.1 0.1-0.1 0.1-0.1-0.1 0-0.1 0 0-0.1 0 0.1-0.1 0-0.1 0-0.1 0-0.1 0-0.1 0 0.1 0 0-0.1-0.1 0 0-0.1-0.1 0-0.1 0-0.1 0-0.1 0-0.1 0 0-0.1 0 0.1-0.1 0 0 0.1-0.1 0-0.1 0 0 0.1-0.1 0 0 0.1-0.1 0 0.1 0 0 0.1 0.1 0 0 0.1-0.1 0 0 0.1 0 0.1-0.1 0 0 0.1-0.1 0 0 0.1-0.1 0-0.1 0 0 0.1 0.2 0.1 0 0.1 0 0.1 0 0.1-0.1 0 0 0.1-0.1 0 0 0.1 0 0.1-0.1 0-0.1 0 0 0.1 0.1 0 0 0.1 0 0.1 0.1 0 0 0.1 0.1 0 0 0.1 0 0.1 0 0.1 0 0.1 0.1 0.1 0.1 0 0.1 0.1 0 0.1 0 0.1 0 0.1-0.1 0 0 0.1 0 0.1 0.1 0 0.1 0.1 0.1 0 0.1 0 0 0.1 0.1 0 0 0.1 0.1 0.1 0 0.1-0.1 0 0 0.1 0 0.1 0 0.1 0.1 0 0 0.1-0.1 0 0.1 0-0.1 0 0 0.1-0.1 0 0 0.1-0.1 0.1-0.1 0-0.1 0-0.1-0.1 0-0.1-0.1 0 0 0.1-0.1 0-0.1 0.1-0.1 0-0.1-0.1-0.1 0 0 0.1 0 0.1 0.1 0 0 0.1 0.1 0 0.1 0 0.1 0 0.1 0 0.1 0.1 0.1 0 0 0.1 0.1 0 0.1 0 0 0.1 0.1 0 0 0.1 0.1 0 0 0.1 0.1 0 0.1 0 0.1 0 0.1 0 0.1 0 0.1 0 0.1 0.1 0.1 0 0.1 0 0.1 0 0.1 0 0 0.1 0 0.1 0.1 0 0 0.1-0.1 0.1 0.1 0 0 0.1 0 0.1 0.1 0 0 0.1-0.1 0 0.1 0 0 0.1 0 0.1 0.1 0 0 0.1 0-0.1 0.1 0 0 0.1 0 0.1 0.1 0 0 0.1 0 0.1-0.1 0-0.1 0-0.1 0 0 0.1 0.1 0 0 0.1-0.1 0 0 0.1-0.1 0 0 0.1-0.1 0 0 0.1-0.1 0 0 0.1 0 0.1-0.1 0-0.1 0 0-0.1-0.1 0 0-0.1-0.1 0 0-0.1 0-0.1 0-0.1 0 0.1 0-0.1 0.1 0-0.1 0 0-0.1 0 0.1-0.1 0-0.1 0 0-0.1 0 0.1-0.1 0 0-0.1-0.1 0 0-0.1-0.1 0 0-0.1-0.1 0-0.1 0-0.1 0 0 0.1-0.1 0-0.1 0 0 0.1 0 0.1 0 0.1-0.1-0.1-0.1 0-0.1 0-0.1 0-0.1 0 0-0.1-0.1 0-0.1 0-0.1 0 0 0.1-0.1 0 0 0.1 0 0.1-0.1 0 0 0.1-0.1 0 0 0.1-0.1 0-0.1 0-0.1 0 0 0.1 0-0.1-0.1 0.1 0-0.1-0.1 0.1-0.1 0-0.1-0.1-0.1 0 0 0.1 0-0.1-0.1-0.1 0 0.1-0.1 0-0.1 0 0 0.2 0 0.1 0 0.1-0.1 0 0 0.1-0.1 0 0 0.1-0.1 0-0.1 0 0 0.1 0-0.1 0 0.1-0.1 0-0.1 0 0 0.1 0 0.1-0.1 0-0.1 0-0.1 0 0 0.1 0.1 0-0.1 0 0 0.1 0 0.1-0.1 0 0.1 0-0.1 0.1 0 0.1-0.1 0 0 0.1-0.1 0-0.1 0 0 0.1 0.1 0-0.1 0-0.1 0 0 0.1-0.1 0-0.1 0 0.1 0 0 0.1-0.1 0 0 0.1 0 0.1 0 0.1-0.1 0 0-0.1-0.1 0 0 0.1-0.1 0 0-0.1 0 0.1-0.1 0-0.1 0 0-0.1-0.1 0 0-0.1-0.1 0-0.1 0-0.1 0 0-0.1 0-0.1-0.1 0-0.1 0 0 0.1 0 0.1-0.1 0 0 0.1 0-0.1-0.1 0-0.1 0 0 0.1-0.1 0 0 0.1 0.1 0 0 0.1-0.1 0 0 0.1-0.1 0-0.1 0-0.1-0.1-0.1 0.1 0 0.1-0.1 0 0 0.1-0.1 0-0.1 0 0 0.1 0.1 0 0 0.1 0 0.1 0 0.1-0.1 0 0 0.1-0.1 0.1 0 0.1 0.1 0 0.1 0 0.1 0 0 0.1 0 0.1 0 0.1 0.1 0.1 0 0.1 0 0.1-0.1 0 0 0.1-0.1 0 0.1 0 0 0.1 0.1 0 0 0.1 0.1 0 0 0.1 0 0.1 0.1 0 0.1 0 0.1 0 0.1 0 0 0.1 0 0.1-0.1 0 0 0.1-0.1 0 0 0.1 0 0.1-0.1 0 0 0.1-0.1 0 0 0.1 0 0.1 0 0.1-0.1 0-0.1 0-0.1 0 0-0.1-0.1-0.1-0.1 0-0.1 0 0 0.1 0 0.1 0 0.1-0.1 0.1 0 0.1 0 0.1 0 0.1 0 0.1 0-0.1-0.1 0 0 0.1-0.1 0 0 0.1-0.1 0 0 0.1-0.1 0-0.1 0-0.1 0 0 0.1-0.1 0 0-0.1 0 0.1-0.1 0 0-0.1-0.1 0 0 0.1-0.1 0-0.1-0.1-0.1 0-0.1 0-0.1 0 0-0.1-0.1 0-0.1 0 0-0.1 0-0.1 0-0.1 0-0.1 0-0.1 0 0.1 0 0.1 0-0.1 0-0.1 0-0.1-0.1 0 0-0.1-0.1 0 0-0.1-0.1 0-0.1 0 0-0.1-0.1 0 0-0.1 0-0.1-0.1 0 0-0.1-0.1 0 0-0.1 0-0.1-0.1 0 0-0.1 0-0.1-0.1 0 0-0.1 0-0.1-0.1 0 0-0.1-0.1-0.1-0.1 0 0-0.1-0.1 0 0-0.1-0.1 0-0.1 0-0.1 0 0.1 0 0.1 0 0.1 0 0 0.1 0.1 0 0.1 0-0.1 0 0-0.1 0.1 0-0.1 0 0-0.1 0-0.1-0.1 0-0.1 0 0-0.1 0 0.1-0.1 0 0-0.1 0.1 0 0.1 0 0.1 0 0-0.1-0.1 0-0.1 0 0.1 0.1-0.1 0-0.1 0-0.1 0 0 0.1 0.1 0-0.1 0-0.1 0-0.1 0 0-0.1-0.1 0-0.1 0-0.1 0-0.1 0 0 0.1-0.1 0-0.1 0 0-0.1 0 0.1-0.1 0-0.1 0 0-0.1-0.1 0-0.1 0 0 0.1-0.1 0 0 0.1-0.1 0.1 0 0.1 0 0.1-0.1 0 0 0.1-0.1 0 0 0.1-0.1 0 0 0.1-0.1 0-0.1 0 0-0.1-0.1 0-0.1 0-0.1 0-0.1 0 0-0.1 0-0.1 0-0.1 0.1-0.1 0-0.1 0-0.1 0-0.1 0.1 0 0-0.1 0-0.1 0.1-0.1 0-0.1 0-0.1 0-0.1 0.1-0.1 0-0.1 0.1 0 0-0.1 0.1-0.1 0-0.1 0-0.1 0.1-0.1 0-0.1 0-0.1 0.1 0 0-0.1 0-0.1 0.1 0 0-0.1 0-0.1 0-0.1 0.1-0.1 0-0.1 0.1 0 0-0.1 0.1 0 0-0.1 0-0.1 0.1 0 0 0.1 0 0.1 0.1 0 0.1 0 0 0.1-0.1 0 0 0.1-0.1 0 0 0.1-0.1 0 0 0.1 0 0.1 0 0.1 0 0.1 0.1 0 0.1 0 0.1 0 0.1 0 0.1 0 0.1 0 0.1 0 0.1 0 0 0.1 0.1 0 0.1 0 0.1 0 0.1 0 0.1 0 0 0.1 0.1 0 0.1 0 0.1 0 0 0.1 0.1 0 0-0.1 0.1 0 0 0.1 0.1 0-0.1-0.1 0.1 0 0.1 0 0.1-0.1 0-0.1 0-0.1 0.1-0.1 0.1 0 0-0.1 0-0.1 0.1 0 0.1 0 0-0.1 0.1 0 0-0.1 0.1 0 0-0.1 0-0.1 0-0.1 0.1 0 0-0.1 0.1 0 0.1-0.1 0-0.1 0.1 0-0.1 0 0-0.1 0.1 0 0.1 0 0-0.1 0.1 0 0-0.1-0.1 0 0-0.1 0.1 0 0-0.1 0.1 0 0-0.1 0.1 0 0-0.1 0-0.1 0.1 0 0-0.1 0-0.1 0-0.1 0.1 0 0.1 0 0-0.1 0.1 0 0-0.1 0-0.1 0-0.1 0-0.1-0.1 0 0-0.1 0.1 0 0.1 0 0.1 0 0-0.1 0-0.1 0-0.1-0.1 0 0-0.1 0-0.1 0-0.1 0-0.1 0-0.1 0.1 0 0-0.1 0-0.1-0.1 0 0-0.1-0.1 0 0-0.1 0-0.1 0-0.1 0.1 0 0-0.1 0.1 0 0.1 0 0.1 0 0.1 0 0.1 0 0.1 0 0.1 0 0-0.1 0-0.1 0 0.1 0-0.1 0-0.1-0.1 0 0-0.1 0.1 0 0-0.1 0.1-0.1 0-0.1-0.1 0-0.1 0-0.1 0-0.1 0 0-0.1-0.1 0 0-0.1-0.1 0 0-0.1-0.1 0-0.1 0 0-0.1 0 0.1-0.1 0-0.1 0-0.1 0-0.1 0-0.1 0 0.1 0 0-0.1-0.1 0 0-0.1-0.1 0-0.1 0 0 0.1 0.1 0 0 0.1 0-0.1-0.1 0 0-0.1-0.1 0 0-0.1 0-0.1 0-0.1 0-0.1 0-0.1 0-0.1 0-0.1 0-0.1 0-0.1 0.1 0 0.1 0 0-0.1 0.1 0 0.1 0 0.1 0 0-0.1 0.1 0 0.1 0 0.1 0 0-0.1 0.1 0 0.1 0 0.1 0-0.1 0 0 0.1 0.1 0 0.1 0 0-0.1 0.1 0 0.1 0 0-0.1-0.1 0 0-0.1 0.1 0 0-0.1-0.1 0-0.1 0 0 0.1-0.1 0 0 0.1-0.1 0 0-0.1 0-0.1 0-0.1 0-0.1 0-0.1-0.1 0 0-0.1-0.1 0-0.1 0-0.1 0 0-0.1-0.1 0-0.1 0 0-0.1 0-0.1-0.1 0 0-0.1-0.1 0-0.1 0 0-0.1 0-0.1 0-0.1 0.1 0 0-0.1 0-0.1 0.1-0.1 0-0.1 0-0.1 0-0.1 0-0.1 0-0.1 0-0.1 0-0.1 0-0.1 0-0.1 0.1 0 0-0.1 0-0.1 0-0.1 0.1 0 0-0.1 0-0.1 0.1-0.1 0.1 0 0-0.1 0.1 0 0.1 0 0-0.1 0.1 0 0-0.1 0 0.1 0-0.1 0.1 0 0.1 0 0-0.1 0.1 0 0.1-0.1 0.1 0 0-0.1 0.1 0 0.1-0.1-0.1 0 0.1 0 0-0.1 0-0.1 0-0.1-0.1 0 0-0.1-0.1-0.1-0.1 0-0.1 0 0-0.1-0.1 0 0-0.1-0.1 0 0-0.1-0.1 0-0.1 0-0.1 0 0-0.1-0.1 0 0-0.1-0.1 0 0-0.1 0-0.1 0-0.1 0-0.1 0-0.1 0-0.1-0.1-0.1 0-0.1 0-0.1-0.1-0.1 0-0.1 0-0.1 0-0.1 0-0.1-0.1 0 0-0.1 0-0.1 0-0.1 0-0.1 0-0.1 0-0.1 0-0.1 0-0.1 0-0.1 0-0.1 0-0.1 0-0.1 0.1 0 0-0.1 0-0.1 0-0.1 0-0.1 0.1 0 0-0.1 0-0.1 0.1 0 0-0.1 0.1 0 0-0.1 0-0.1 0-0.1 0.1 0 0.1 0 0.1-0.1 0-0.1 0-0.1-0.1 0 0.1-0.1 0 0.1 0.1 0 0-0.1 0.1 0 0-0.1 0-0.1 0-0.1 0.1 0 0-0.1 0-0.1 0.1 0-0.1 0 0.1 0-0.1 0 0-0.1 0.1 0 0-0.1 0.1-0.1 0.1 0 0-0.1 0-0.1 0.1 0 0-0.1 0-0.1 0-0.1 0-0.1 0.1 0 0-0.1 0-0.1 0.1 0 0-0.1 0.1-0.1 0-0.1 0.1 0 0-0.1-0.1 0 0-0.1 0-0.1 0-0.1 0-0.1-0.1-0.1-0.1 0 0-0.1 0-0.1 0.1 0 0-0.1 0.1 0 0.1-0.1 0-0.1 0-0.1 0-0.1 0-0.1 0.1 0 0-0.1 0-0.1 0.1 0 0-0.1 0-0.1 0-0.1 0.1 0 0-0.1 0-0.1-0.1 0 0-0.1 0.1 0 0-0.1 0.1 0 0-0.1 0.1 0 0-0.1 0-0.1 0.1 0 0-0.1 0.1 0 0-0.1 0-0.1 0.1 0 0-0.1 0-0.1 0.1 0 0.1 0 0.1 0 0.1 0 0.1 0 0.1 0 0 0.1 0.1 0 0-0.1 0.1 0 0-0.1 0-0.1 0-0.1 0-0.1 0.1-0.1 0-0.1 0-0.1 0.1-0.1 0-0.1 0-0.1-0.1 0 0-0.1 0-0.1-0.1 0 0-0.1 0-0.1-0.1 0 0-0.1 0.1 0 0-0.1 0.1 0 0.1 0 0-0.1 0.1 0 0-0.1 0.1 0 0-0.1 0.1 0 0-0.1 0.1 0 0-0.1 0-0.1 0.1 0-0.1 0 0.1 0 0-0.1 0.1 0-0.1 0 0.1 0 0-0.1 0.1 0-0.1 0 0.1 0 0.1 0 0-0.1 0.1 0 0.1-0.1 0.1 0 0.1 0 0.1 0 0-0.1 0.1 0 0-0.1 0.1 0 0-0.1 0.1 0 0-0.1 0.1 0-0.1 0 0.1-0.1-0.1 0 0.1 0 0-0.1 0-0.1 0.1 0 0-0.1 0.1 0 0.1 0 0-0.1 0.1 0 0-0.1 0-0.1 0.1 0 0-0.1 0.1 0 0.1 0 0.1 0 0.1 0 0.1 0 0.1 0 0-0.1 0.1 0 0.1 0.1 0-0.1 0.1 0 0-0.1 0.1 0 0.1 0 0.1-0.1 0.1 0 0.1 0 0-0.1 0.1 0 0.1 0 0.1 0 0-0.1 0.1 0 0.1 0 0-0.1 0.1 0 0.1 0 0-0.1 0.1 0 0.1 0 0.1 0 0.1 0 0-0.1 0.1 0 0.1 0 0-0.1 0.1 0 0.1 0 0.1 0 0.1 0 0-0.1 0 0.1 0.1 0 0.1 0 0 0.1 0.1 0 0 0.1 0.1 0 0 0.1-0.1 0.3 0 0.3 0 0.1-0.1 0 0 0.1 0 0.1 0 0.1 0 0.1 0 0.1 0 0.1 0 0.1 0 0.1 0 0.1 0 0.1z" id="MUBL" name="Black River">
  </path>
  <path d="M307 933l0 0.1-0.1 0-0.1 0-0.1 0 0-0.1 0.1 0 0-0.1 0.1 0 0 0.1 0.1 0z m1-3.2l0 0.1 0 0.1-0.1 0 0 0.1 0.1 0 0 0.1-0.1 0 0 0.1-0.1 0 0.1 0 0 0.2-0.1 0-0.1 0 0 0.2 0 0.1 0 0.1 0 0.1 0.1 0-0.1 0 0 0.1 0.1 0 0 0.1 0 0.1 0.1 0 0-0.1 0 0.1 0.1 0 0 0.1-0.1 0-0.1 0 0 0.1 0 0.1 0.1 0 0-0.1 0.1 0 0.1 0 0 0.1-0.2 0 0 0.1-0.1 0-0.1 0 0 0.1 0 0.1-0.1 0-0.1 0 0 0.1-0.1 0 0-0.1-0.1 0 0 0.1-0.1 0 0 0.1-0.1 0 0-0.1-0.1 0 0-0.1 0.1 0 0-0.1 0.1 0 0-0.1 0-0.1 0-0.1 0.1 0-0.1 0 0-0.1 0-0.1 0-0.1 0-0.2 0.1 0-0.1 0 0-0.1 0.1 0 0.1 0 0.1 0-0.1 0 0-0.1 0-0.1 0.1 0 0-0.1 0-0.1 0-0.1-0.3 0-0.1 0 0-0.1-0.1 0 0-0.1-0.1 0 0-0.1 0.1 0 0 0.1 0.1 0 0.1 0 0.1 0 0.1 0-0.1 0 0 0.1 0.1 0 0-0.1 0.1 0 0.1 0 0-0.1-0.1 0-0.1 0-0.1 0-0.1 0 0-0.1 0.1 0 0-0.1 0.2 0 0 0.1 0.1 0 0.1 0 0-0.1 0 0.1 0-0.1 0.1 0 0.1 0 0-0.1 0.1 0z m-2.4 5.3l-0.1 0-0.1 0-0.1 0-0.1-0.1-0.1 0-0.1 0-0.1 0-0.1 0-0.1 0-0.1 0-0.1 0 0-0.1-0.1 0-0.1 0 0 0.1-0.1 0-0.1 0-0.1 0-0.1 0-0.1 0-0.1 0-0.1 0 0 0.1-0.1 0-0.1 0 0 0.1-0.1 0-0.1 0.1 0 0.1-0.1 0-0.1 0 0 0.1-0.1 0.1 0 0.1-0.1 0-0.1 0-0.1 0 0 0.1-0.1 0-0.1 0-0.1 0-0.1 0-0.1 0-0.1 0.1-0.1 0.1-0.1 0 0 0.1-0.1 0-0.1 0 0 0.1 0 0.1-0.1 0.1 0 0.1 0 0.1-0.1 0 0 0.1-0.1-0.1-0.1 0-0.1 0-0.1 0-0.1 0 0 0.1-0.1 0 0 0.1-0.1 0-0.1 0 0 0.1-0.1 0-0.1 0 0-0.1-0.1 0 0 0.1-0.1 0-0.1 0 0 0.1-0.1 0 0-0.1-0.1 0 0 0.1-0.1 0-0.1 0 0-0.1-0.1 0-0.1 0-0.1 0-0.1 0-0.1 0 0 0.1-0.1 0.1 0-0.1-0.1 0-0.1 0-0.1 0 0-0.1-0.1 0-0.1-0.1-0.1 0 0-0.1-0.1 0-0.1 0-0.1 0-0.1 0-0.1 0-0.1 0.1 0-0.1-0.1 0 0-0.1-0.1 0-0.1 0-0.1-0.1-0.1 0-0.1 0 0-0.1-0.1 0-0.1 0-0.1 0 0 0.1-0.1 0-0.1 0-0.1 0-0.1 0 0-0.1-0.1 0-0.1 0-0.1 0-0.1 0-0.1-0.1-0.1 0-0.1 0-0.1 0-0.1 0-0.1 0 0-0.1-0.1 0-0.1 0-0.1 0 0 0.1-0.1 0-0.1 0 0 0.1-0.1 0 0 0.1-0.1 0-0.1 0-0.1 0-0.1 0 0-0.1-0.1 0-0.1 0 1.5-5.3-3.4-3.4 3.1-2.3-2.7-2.7-0.1 0 0-0.1-0.1 0-0.1 0-0.1 0-0.1 0-0.1 0-0.1 0-0.1-0.1-0.1-0.1-0.1 0 0-0.1 0-0.1 0-0.1-0.1 0 0-0.1-0.1 0-0.1 0 0 0.1-0.1-0.1-0.1-0.1 0-0.1 0.1 0 0-0.1 0.1 0 0-0.1 0.1 0 0.1-0.1 0.1 0 0-0.1 0.1-0.1 0.1 0 0-0.1 0-0.1 0.1 0 0.1 0 0 0.1 0.1 0 0.1 0 0-0.1 0 0.1 0.1 0.1 0-0.1 0-0.1 0.1 0 0-0.1 0 0.1 0.1 0 0-0.1 0 0.1 0.1 0-0.1 0 0 0.1 0.1 0 0.1 0 0-0.1 0.1 0 0.1 0 0-0.1-0.1 0 0.1 0 0.1 0 0 0.1 0-0.1 0.1 0-0.1 0 0.1 0 0-0.1 0.1 0 0.1 0 0-0.1 0.1 0 0-0.1 0-0.1 0.1 0 0-0.1-0.1 0 0.1 0 0.1 0 0-0.1-0.1 0 8.9-4 0 0.1 0.1 0 0 0.1 0.1 0 0 0.1 0 0.1 0.1 0 0 0.1 0 0.1 0.1 0 0 0.1 0 0.1 0.1 0 0 0.1 0 0.1 0.1 0 0 0.1 0.1 0-0.1 0 0.1 0 0 0.1 0.1 0.1 0 0.1 0 0.1 0.1 0-0.1 0 0.1 0 0 0.1 0 0.1 0.1 0-0.1 0.1 0 0.1 0-0.1-0.1 0-0.1 0-0.1 0 0 0.1 0 0.1-0.1 0 0 0.1 0 0.1 0 0.1 0 0.1 0 0.1 0.1 0 0 0.1 0 0.1-0.1 0 0 0.1-0.1 0 0 0.1-0.1 0 0 0.1-0.1 0 0 0.1 0-0.1-0.1 0-0.1 0 0-0.1-0.1 0-0.1 0 0 0.1-0.1 0-0.1 0.1-0.1 0 0-0.1-0.1 0 0 0.1-0.1 0 0.1 0-0.1 0 0 0.1 0.1 0 0-0.1 0 0.1 0.1 0-0.1 0 0 0.1 0.1 0 0.1 0 0 0.1 0.1 0-0.1 0 0.1 0 0.1 0 0 0.1-0.1 0 0.1 0-0.1 0 0 0.1-0.1 0-0.1 0 0-0.1 0 0.1 0-0.1 0 0.1 0-0.1-0.1 0 0 0.1 0-0.1-0.1 0 0-0.1-0.1 0 0 0.1-0.1 0 0-0.1-0.1 0 0.1 0 0 0.1-0.1 0 0 0.1-0.1 0-0.1 0 0-0.1 0 0.1-0.1 0 0 0.1-0.1 0 0.1 0-0.1 0 0.1 0 0.1 0 0 0.1 0.1 0 0.1 0 0-0.1 0.1 0 0.1 0-0.1 0 0 0.1-0.1 0 0 0.1 0.1 0 0-0.1 0.1 0 0 0.1 0.1 0 0-0.1 0 0.1 0.1 0 0-0.1 0.1 0 0-0.1 0 0.1 0.1 0 0.1 0 0-0.1 0 0.1 0-0.1 0.1 0 0-0.1 0.1 0 0.1 0 0.1 0 0.1 0-0.1 0 0 0.1 0 0.1-0.1 0 0 0.1 0.1 0 0 0.1-0.1 0 0.1 0-0.1 0 0.1 0 0 0.1 0 0.1 0-0.1 0 0.1 0.1 0 0 0.1-0.1 0 0-0.1-0.1 0-0.1 0 0 0.1 0 0.1 0-0.1-0.1 0 0-0.1-0.1 0.1-0.1 0 0-0.1 0.1 0-0.1 0-0.1 0-0.1 0 0 0.1 0.1 0-0.1 0 0 0.1 0.1 0 0.1 0 0 0.1-0.1 0 0.1 0 0 0.1-0.1 0 0.1 0 0.1 0 0 0.1 0-0.1 0 0.1 0 0.1 0.1 0 0.1 0 0-0.1 0 0.1 0.1 0 0-0.1 0 0.1-0.1 0 0.1 0 0 0.1-0.1 0 0.1 0 0 0.1-0.1 0 0 0.1 0 0.1 0.1 0 0.1 0 0 0.1 0.1 0 0-0.1 0.1 0 0.1 0-0.1 0 0-0.1 0-0.1-0.1 0 0-0.1 0-0.1 0.1 0 0.1 0 0 0.1 0 0.1 0.1 0 0.1 0 0 0.1 0 0.1 0 0.1 0.1 0 0 0.1-0.1 0 0 0.1-0.1 0 0.1 0 0-0.1 0.1 0 0-0.1 0.1 0 0 0.1 0.1 0 0-0.1 0-0.1 0 0.1 0.1 0 0-0.1-0.1 0-0.1 0 0.1 0 0.1 0 0-0.1-0.1 0 0-0.1 0-0.1-0.1 0-0.1 0 0-0.1 0.1 0-0.1 0 0-0.1-0.1 0-0.1 0 0-0.1 0.1 0 0.1 0 0.1 0 0.1 0 0.1 0.1 0.1 0 0.1 0 0.1 0 0.1 0 0 0.1 0 0.1 0.1 0.1 0 0.1 0.1 0.1 0 0.1 0.1 0 0 0.1 0.1 0 0.1 0 0-0.1 0.1 0-0.1 0 0.1 0 0.1 0 0 0.1 0-0.1 0 0.1 0 0.1 0 0.1 0-0.1 0 0.1 0 0.1 0-0.1 0 0.1 0 0.1 0 0.1 0 0.1 0 0.1 0 0.1 0 0.1 0.1 0 0 0.1 0 0.1 0.1 0 0 0.1 0 0.1 0 0.1 0.1 0 0 0.1 0 0.1 0-0.1 0 0.1 0.1 0-0.1 0-0.1 0 0 0.1 0 0.1 0 0.1 0 0.1 0.1 0.1 0 0.1 0.1 0.1 0 0.1 0.1 0.1 0.1 0 0 0.1 0.1 0 0 0.1 0.1 0 0 0.1 0.1 0 0.1 0 0 0.1 0 0.1 0.1 0 0 0.1 0 0.1 0.1 0 0 0.1 0.1 0 0 0.1 0.1 0 0.1 0 0.1 0 0 0.1 0 0.1 0.1 0 0 0.1 0 0.1 0 0.1 0.1 0 0 0.1 0 0.1 0 0.1 0.1 0 0 0.1 0.1 0.1 0.1 0 0.1 0 0 0.1 0.1 0 0 0.1 0 0.1 0.1 0 0 0.1 0.1 0.1 0 0.1 0.1 0 0 0.1 0.1 0 0 0.1 0.1 0 0 0.1 0 0.1 0.1 0 0 0.1 0 0.1 0 0.1 0.1 0 0 0.1 0.1 0 0.1 0-0.1 0-0.1 0 0 0.1-0.1 0.1-0.1 0 0 0.1-0.1 0 0 0.1 0 0.1-0.1 0-0.1 0 0 0.1-0.1 0-0.1 0 0-0.1 0 0.1 0-0.1-0.1 0 0 0.1-0.1 0-0.1 0-0.1 0-0.1 0.1-0.1 0-0.1 0-0.1 0-0.1 0 0 0.1 0 0.1 0 0.1-0.1 0 0 0.1 0-0.1 0 0.1 0.1 0 0 0.1-0.1 0 0.1 0 0 0.1 0.1 0 0-0.1 0.1 0 0.1 0 0-0.1 0 0.1 0.1 0-0.1 0 0 0.1 0 0.1 0 0.1-0.1-0.1-0.1 0 0 0.1-0.1 0 0 0.1 0.1 0 0 0.1 0-0.1 0.1 0 0.1 0 0.1 0 0 0.1 0-0.1 0.1 0 0.1 0 0 0.1 0.1 0 0 0.1 0.1 0 0 0.1 0.1 0 0 0.1-0.1 0 0.1 0-0.1 0 0 0.1 0 0.1-0.1 0-0.1 0 0 0.1 0 0.1-0.1 0-0.1 0 0 0.1 0 0.1 0.1 0 0-0.1 0 0.1 0.1 0 0 0.1 0 0.1 0-0.1 0.1 0 0.1 0 0 0.1 0.1 0 0 0.1-0.1 0 0 0.1 0 0.1-0.1 0 0.1 0 0 0.1 0 0.1-0.1 0 0 0.1 0 0.1-0.1 0 0-0.1 0 0.1-0.1 0 0 0.1 0.1 0 0 0.1-0.1 0 0-0.1 0 0.1 0-0.1 0 0.1-0.1 0-0.1 0-0.1 0 0 0.1 0.1 0 0 0.1 0.1 0 0.1 0 0 0.1 0 0.1-0.1 0 0 0.1-0.1 0 0 0.1-0.1 0-0.1 0 0 0.1 0.1 0-0.1 0 0-0.1 0 0.1 0.1 0 0 0.1-0.1 0 0.1 0-0.1 0 0.1 0 0 0.1 0 0.1 0.1 0-0.1 0 0 0.1 0.1 0 0 0.1 0 0.1 0 0.1 0.1 0 0 0.1-0.1 0 0.1 0 0 0.1 0.1 0-0.1 0 0 0.1-0.1 0 0-0.1 0 0.1 0 0.1 0-0.1 0 0.1 0 0.1-0.1 0 0-0.1 0 0.1-0.1 0 0 0.1 0 0.1 0.1 0-0.1 0 0-0.1 0 0.1 0-0.1-0.1 0 0-0.1-0.1 0 0 0.1 0-0.1-0.1 0 0 0.1 0-0.1-0.1 0-0.1 0 0-0.1 0-0.1-0.1 0 0-0.1-0.1 0-0.1 0 0 0.1 0 0.1-0.1 0-0.1 0.1-0.1 0 0 0.1-0.1 0 0 0.1-0.1 0 0 0.1-0.1 0 0 0.1 0 0.1 0.1 0-0.1 0 0.1 0 0 0.1 0.1 0 0 0.1 0-0.1 0.1 0 0 0.1 0.1 0 0 0.1 0.1 0 0.1 0 0 0.1 0.1 0 0 0.1 0 0.1 0 0.1 0 0.1 0 0.1 0 0.1 0 0.1 0 0.1 0 0.1 0 0.1z" id="MUFL" name="Flacq">
  </path>
  <path d="M299.6 947.4l0 0.1 0.1 0 0 0.1 0 0.1-0.1 0-0.1 0 0 0.1 0-0.1 0-0.1 0-0.1 0.1 0 0-0.1z m1.9-2.8l0.1 0 0 0.1 0.1 0 0 0.1 0.1 0 0 0.1-0.1 0 0 0.1 0 0.1-0.1 0-0.1 0-0.1 0-0.1 0 0-0.1-0.1 0 0-0.2 0.1 0 0-0.1 0-0.1 0.1 0 0.1 0z m-7.1-8.2l0.1 0 0.1 0 0 0.1 0.1 0 0.1 0 0.1 0 0.1 0 0-0.1 0.1 0 0-0.1 0.1 0 0.1 0 0-0.1 0.1 0 0.1 0 0.1 0 0 0.1 0.1 0 0.1 0 0.1 0 0.1 0 0.1 0 0.1 0.1 0.1 0 0.1 0 0.1 0 0.1 0 0 0.1 0.1 0 0.1 0 0.1 0 0.1 0 0-0.1 0.1 0 0.1 0 0.1 0 0 0.1 0.1 0 0.1 0 0.1 0.1 0.1 0 0.1 0 0 0.1 0.1 0 0 0.1 0.1-0.1 0.1 0 0.1 0 0.1 0 0.1 0 0.1 0 0 0.1 0.1 0 0.1 0.1 0.1 0 0 0.1 0.1 0 0.1 0 0.1 0 0 0.1 0.1-0.1 0-0.1 0.1 0 0.1 0 0.1 0 0.1 0 0.1 0 0 0.1 0.1 0 0.1 0 0-0.1 0.1 0 0 0.1 0.1 0 0-0.1 0.1 0 0.1 0 0-0.1 0.1 0 0 0.1 0.1 0 0.1 0 0-0.1 0.1 0 0.1 0 0-0.1 0.1 0 0-0.1 0.1 0 0.1 0 0.1 0 0.1 0 0.1 0.1 0-0.1 0.1 0 0-0.1 0-0.1 0.1-0.1 0-0.1 0-0.1 0.1 0 0.1 0 0-0.1 0.1 0 0.1-0.1 0.1-0.1 0.1 0 0.1 0 0.1 0 0.1 0 0.1 0 0-0.1 0.1 0 0.1 0 0.1 0 0-0.1 0.1-0.1 0-0.1 0.1 0 0.1 0 0-0.1 0.1-0.1 0.1 0 0-0.1 0.1 0 0.1 0 0-0.1 0.1 0 0.1 0 0.1 0 0.1 0 0.1 0 0.1 0 0.1 0 0-0.1 0.1 0 0.1 0 0 0.1 0.1 0 0.1 0 0.1 0 0.1 0 0.1 0 0.1 0 0.1 0 0.1 0.1 0.1 0 0.1 0 0.1 0-0.1 0.1 0 0.1-0.1 0-0.1 0 0 0.1-0.1 0-0.1 0-0.1 0-0.1 0 0 0.1-0.1 0-0.1 0.1 0 0.1 0 0.1 0 0.1 0 0.1 0.1 0-0.1 0.1 0 0.1 0 0.1 0 0.1 0.1 0-0.1 0 0 0.1 0 0.1-0.1 0 0 0.1-0.1 0 0 0.1 0 0.1 0.1 0 0.1 0 0.1 0 0.1 0 0 0.1 0.1 0 0.1 0 0.1 0 0.1 0 0 0.1 0.1 0 0 0.1 0.1 0 0 0.1-0.1 0 0 0.1-0.1 0-0.1 0 0 0.1-0.1 0-0.1 0-0.1 0-0.1 0 0-0.1-0.1 0-0.1 0-0.1 0-0.1 0-0.1 0 0.1 0 0-0.1-0.1 0 0 0.1 0-0.1-0.1 0-0.1 0 0 0.1 0 0.1 0.1 0 0 0.1 0.1 0 0 0.1 0 0.1-0.1 0 0 0.1 0.1 0.1-0.1 0 0.1 0 0 0.1-0.1 0 0 0.1 0 0.1 0.1 0-0.1 0.1 0 0.1-0.1 0 0 0.1-0.1 0-0.1 0 0 0.1-0.1 0-0.1 0-0.1 0-0.1 0-0.1 0-0.1 0-0.1 0 0-0.1-0.1 0-0.1 0 0 0.1-0.1 0 0-0.1-0.1 0-0.1 0 0 0.1-0.1 0 0 0.1-0.1 0 0 0.1 0 0.1 0.1 0-0.1 0.1 0 0.1-0.1 0.1 0 0.1-0.1 0 0 0.1-0.1 0 0 0.1 0 0.1 0 0.1-0.1 0 0 0.1-0.1 0 0 0.1-0.1 0 0 0.1-0.1 0 0 0.1 0 0.1-0.1 0 0 0.1-0.1 0 0 0.1-0.1 0-0.1 0 0 0.1-0.1 0-0.1 0 0 0.1-0.1 0 0 0.1 0 0.1-0.1 0 0-0.1-0.1 0 0-0.1-0.1 0-0.1 0 0 0.1-0.1 0-0.1 0-0.1 0 0 0.1-0.1 0 0 0.1-0.1 0 0 0.1-0.1 0-0.1 0-0.1 0-0.1 0 0-0.1 0-0.1 0.1 0 0-0.1-0.1 0 0-0.1 0-0.1-0.1 0 0-0.1 0-0.1-0.1 0 0-0.1-0.1 0 0-0.1-0.1 0 0 0.1-0.1 0 0-0.1-0.1 0-0.1 0-0.1 0-0.1 0-0.1 0 0 0.1 0.1 0-0.1 0 0 0.1-0.1 0 0.1 0 0 0.1 0.1 0 0 0.1 0.1 0 0 0.1-0.1 0 0 0.1 0.1 0-0.1 0 0 0.1 0.1 0-0.1 0 0 0.1 0.1 0-0.1 0 0.1 0 0 0.1-0.1 0 0.1 0-0.1 0 0 0.1 0 0.1 0 0.1 0.1 0-0.1 0 0 0.1 0 0.1-0.1 0 0 0.1 0.1 0 0 0.1-0.1 0 0 0.1 0.1 0 0 0.1-0.1 0 0 0.1-0.1 0 0 0.1-0.1 0 0 0.1 0.1 0 0 0.1 0 0.1-0.1 0-0.1 0-0.1 0-0.1 0-0.1 0 0 0.1-0.1 0-0.1 0 0.1 0 0.1 0 0 0.1 0.1 0 0 0.1 0.1 0 0.1 0 0 0.1 0.1 0 0 0.1 0.1 0 0 0.1-0.1 0 0 0.1 0 0.1 0.1 0 0-0.1 0.1 0-0.1 0.1 0.1 0 0.1 0 0 0.1 0.1 0.1 0 0.1 0.1 0 0-0.1-0.1 0 0-0.1 0-0.1 0-0.1-0.1 0 0.1 0 0.1 0 0 0.1 0.1 0 0.1 0 0-0.1 0.1 0 0 0.1-0.1 0 0 0.1 0.1 0.1 0-0.1 0.1 0 0 0.1 0 0.1 0 0.1 0 0.1 0.1 0 0 0.1 0.1 0 0 0.1-0.1 0 0 0.1 0 0.1 0 0.1 0 0.1 0 0.1 0 0.1 0-0.1 0 0.1-0.1 0 0.1 0 0 0.1 0.1 0-0.1 0 0 0.1 0.1 0 0 0.1 0.1 0 0-0.1 0.1 0 0.1 0 0 0.1 0.1 0 0 0.1 0-0.1 0.1 0 0-0.1 0-0.1 0.1 0-0.1 0 0 0.1 0-0.1 0-0.1 0-0.1 0 0.1 0.1 0 0 0.1 0 0.1-0.1 0 0.1 0 0 0.1 0.1 0-0.1 0 0.1 0 0 0.1 0 0.1 0.1 0 0-0.1-0.1 0 0-0.1 0.1 0 0 0.1 0.1 0 0 0.1 0 0.1-0.1 0 0-0.1 0 0.1 0.1 0 0 0.1 0.1 0 0 0.1 0.1 0 0-0.1 0 0.1 0.1 0 0.1 0-0.1 0 0.1 0 0 0.1 0 0.1 0 0.1 0 0.1 0 0.1 0 0.1 0 0.1 0 0.1 0 0.1-0.1 0 0 0.1 0 0.1-0.1 0 0 0.1-0.1 0 0 0.1-0.1 0 0 0.1-0.1 0 0 0.1-0.1 0 0 0.1 0 0.1-0.1 0 0 0.1-0.1 0-0.1 0 0-0.1 0-0.1-0.1 0 0-0.1-0.1 0-0.1 0-0.1 0 0 0.1-0.1 0 0 0.1-0.1-0.1-0.1 0 0-0.1-0.1 0-0.1 0 0-0.1-0.1 0-0.1 0 0-0.1-0.1 0 0-0.1-0.1 0 0 0.1 0.1 0 0 0.1 0.1 0 0 0.1-0.1 0-0.1 0 0-0.1-0.1 0-0.1 0 0 0.1 0 0.1-0.1 0 0 0.1 0.1 0 0 0.1 0.1 0 0.1 0 0.1 0 0.1 0 0-0.1 0.1 0 0.1 0.1 0 0.1 0 0.1 0.1 0 0.1 0 0 0.1-0.1 0 0 0.1-0.1 0 0-0.1-0.1 0 0 0.1-0.1 0 0 0.1-0.1 0 0 0.1-0.1 0-0.1 0 0 0.1-0.1 0 0 0.1 0 0.1 0 0.1 0.1 0-0.1 0.1-0.1 0-0.1 0-0.1 0-0.1 0-0.1 0-0.1 0 0 0.1-0.1 0 0 0.1 0 0.1-0.1 0 0 0.1 0.1 0 0 0.1-0.1 0 0 0.1-0.1 0 0 0.1-0.1 0 0 0.1-0.1 0 0 0.1-0.1 0 0 0.1-0.1 0.1 0-0.1-0.1 0 0 0.1-0.1 0-0.1 0 0 0.1-0.1 0-0.1 0 0 0.1-0.1 0 0 0.1 0 0.1-0.1 0 0-0.1 0 0.1-0.1 0 0 0.1 0 0.1 0.1 0 0.1 0 0-0.1 0.1 0 0-0.1 0-0.1-0.1 0 0-0.1 0.1 0 0 0.1 0 0.1 0.1 0 0 0.1 0.1 0 0 0.1-0.1 0-0.1 0 0 0.1-0.1 0 0 0.1 0-0.1-0.1 0-0.1 0 0 0.1-0.1 0-0.1 0 0 0.1-0.1 0-0.1 0 0 0.1-0.1 0 0.1 0-0.1 0-0.1 0-0.1 0 0 0.1-0.1 0 0 0.1-0.1 0 0.1 0-0.1 0-0.1 0 0 0.1-0.1-0.1-0.1 0.1-0.1 0 0 0.1-0.1 0-0.1 0 0 0.1 0-0.1 0 0.1-0.1 0 0 0.1-0.1 0-0.1 0 0 0.1-0.1 0 0 0.1 0-0.1-0.1 0 0 0.1-0.1 0-0.1 0 0 0.1-0.1 0-0.1 0 0-0.1-0.1 0 0 0.1-0.1 0-0.1 0 0 0.1-0.1 0-0.1 0-0.1 0 0 0.1-0.1 0-0.1 0 0 0.1 0-0.1-0.1 0 0 0.1-0.1 0-0.1 0 0 0.1-0.1 0 0 0.1 0-0.1-0.1 0-0.1 0-0.1 0 0 0.1-0.1 0 0-0.1-0.1 0 0-0.1-0.1 0-0.1 0 0 0.1-0.1 0-0.1 0 0-0.1 0-0.1-0.1-0.1 0-0.1 0-0.1-0.1 0-0.1 0 0-0.1 0.1 0 0.1 0 0-0.1-0.1 0 0-0.1 0-0.1 0-0.1-0.1 0 0 0.1 0-0.1-0.1 0 0.1 0 0-0.1 0-0.1-0.1 0 0-0.1-0.1 0 0-0.1-0.1 0 0-0.1 0 0.1-0.1 0-0.1 0 0-0.1 0.1 0 0-0.1 0-0.1-0.1 0-0.1 0 0-0.1-0.1 0 0.1 0 0-0.1 0.1 0 0-0.1-0.1 0 0-0.1-0.1 0 0-0.1 0.1-0.1 0.1 0 0-0.1-0.1 0-0.1 0-0.1 0 0 0.1 0-0.1-0.1 0 0-0.1 0-0.1-0.1 0-0.1 0 0-0.1 0-0.1 0.1 0 0-0.1-0.1 0 0 0.1-0.1 0 0 0.1-0.1 0-0.1 0 0-0.1 0.1 0 0-0.1 0-0.1 0-0.1-0.1 0-0.1 0-0.1 0-0.1 0 0.1 0 0-0.1 0.1 0-0.1-0.1-0.1 0 0-0.1-0.1 0 0-0.1-0.1 0-0.1 0 0-0.1-0.1-0.1-0.1 0 0-0.1 0-0.1 0-0.1-0.1 0 0 0.1 0 0.1-0.1 0 0-0.1 0-0.1-0.1 0 0-0.1-0.1 0 0-0.1 0-0.1-0.1 0 0 0.1 0 0.1-0.1 0 0-0.1 0-0.1-0.1 0-0.1 0 0-0.1 0-0.1-0.1 0 0-0.1-0.1 0 0-0.1-0.1 0-0.1 0 0-0.1 0-0.1 0.1 0 0-0.1-0.1 0 0 0.1 0-0.1 0-0.1 0-0.1 0.1 0 0-0.1 0-0.1-0.1 0-0.1 0 0-0.1-0.1 0 0-0.1 0.1 0-0.1 0 0-0.1-0.1 0 0-0.1 0-0.1-0.1-0.1 0-0.1-0.1 0-0.1 0 0-0.1-0.1 0 0-0.1 0-0.1-0.1 0 0-0.1-0.1 0 0-0.1-0.1 0 0-0.1-0.1 0 0-0.1 0.1 0-0.1 0 0-0.1 0.1 0 0-0.1-0.1 0 0-0.1-0.1-0.1 0.1 0 0-0.1 0-0.1-0.1 0 0-0.1 0-0.1 0-0.1-0.1 0 0-0.1-0.1 0-0.1 0 0.1 0 0-0.1-0.1 0 0-0.1 0-0.1 0.1 0 0-0.1 0-0.1-0.1 0-0.1 0-0.1 0-0.1 0-0.1 0 0 0.1-0.1 0-0.1 0-0.1 0-0.1 0-0.1 0 0-0.1-0.1 0-0.1 0-0.1 0-0.1 0-0.1 0-0.1 0 0-0.1 0.1 0 0-0.1-0.1 0 0 0.1-0.1 0 0-0.1-0.1 0-0.1 0-0.1 0-0.1 0 0-0.1-0.1 0-0.1 0 0 0.1-0.1 0-0.1-0.1-0.1 0-0.1 0-0.1 0 0-0.1 0-0.1-0.1 0 0 0.1-0.1 0 0-0.1-0.1 0.1 0-0.1-0.1 0-0.1 0-0.1 0.1 0-0.1-0.1 0 0 0.1-0.1 0 0-0.1-0.1 0-0.1 0 7.1-5.8 0.1 0 0.1 0 0 0.1 0.1 0 0.1 0 0 0.1 0.1 0 0.1 0 0.1 0 0.1 0 0.1 0 0-0.1 0.1 0 0.1 0 0.1 0 0 0.1 0.1 0 0.1 0 0.1 0 0.1 0 0.1 0 0-0.1 0.1 0 0-0.1 0.1 0 0.1-0.1 0.1 0 0-0.1 0.1 0 0.1 0 0.1 0 0.1 0.1 0.1 0 0.1 0 0.1 0 0 0.1 0.1 0 0.1 0 0 0.1 0.1 0 0-0.1 0.1 0 0.1 0 0.1 0 0.1-0.1 0.1-0.1 0-0.1 0.1 0 0-0.1 0.1-0.1 0-0.1 0.1 0 0-0.1 0.1 0 0.1 0 0.1 0z" id="MUGP" name="Grand Port">
  </path>
  <path d="M291.5 921.7l0 0.1-0.1 0 0 0.1 0.1 0.1 0.1 0.1 0-0.1 0.1 0 0.1 0 0 0.1 0.1 0 0 0.1 0 0.1 0 0.1 0.1 0 0.1 0.1 0.1 0.1 0.1 0 0.1 0 0.1 0 0.1 0 0.1 0 0.1 0 0 0.1 0.1 0 2.7 2.7-3.1 2.3 3.4 3.4-1.5 5.3-0.1 0-0.1 0-0.1 0 0 0.1-0.1 0 0 0.1-0.1 0.1 0 0.1-0.1 0 0 0.1-0.1 0.1-0.1 0.1-0.1 0-0.1 0-0.1 0 0 0.1-0.1 0 0-0.1-0.1 0-0.1 0 0-0.1-0.1 0-0.1 0-0.1 0-0.1-0.1-0.1 0-0.1 0-0.1 0 0 0.1-0.1 0-0.1 0.1-0.1 0 0 0.1-0.1 0 0 0.1-0.1 0-0.1 0-0.1 0-0.1 0-0.1 0 0-0.1-0.1 0-0.1 0-0.1 0 0 0.1-0.1 0-0.1 0-0.1 0-0.1 0-0.1 0 0-0.1-0.1 0-0.1 0 0-0.1-0.1 0-0.1 0-0.1-0.1-0.1 0-0.1 0-0.1 0-0.1 0-0.1 0-0.1 0-0.1 0-0.1 0-0.1 0 0-0.1-0.1 0-0.2-0.1-0.1-0.1-0.1 0 0-0.1-0.1 0 0-0.1-0.1 0-0.1 0-0.1 0-0.1-0.1-0.1 0-0.1-0.1-0.1 0-0.1 0-0.1 0-0.1 0-0.1 0-0.1 0 0-0.1-0.1 0-0.1 0-0.1 0-0.1 0 0-0.1-0.1 0-0.1 0-0.1 0-0.1-0.1-0.1-0.1-0.1 0-0.1 0-0.1 0-0.1 0 0-0.1-0.1 0 0-0.1-0.1-0.2-0.2-0.2-0.1-0.3-0.2-0.2-0.2-0.3-0.2-0.2-0.1-0.1-0.1-0.1-0.1-0.1-0.1-0.2 0-0.1-0.1 0 0-0.1 0-0.1 0-0.1 0-0.1 0.1 0 0-0.1 0.1 0 0.1 0 0-0.1 0.1 0 0-0.1 0-0.1 0.1 0-0.1 0 0-0.1 0-0.1 0-0.1 0.1 0 0-0.1-0.1 0 0-0.1-0.1 0 0-0.1-0.1 0 0-0.1 0-0.1 0-0.1 0-0.1-0.1 0 0-0.1-0.1 0 0-0.1-0.1 0 0-0.1 0-0.1 0-0.1-0.1 0 0-0.1-0.1 0 0-0.1 0-0.1 0-0.1 0-0.1-0.1 0 0.1 0 0-0.1-0.1 0-0.1 0 0.1 0 0-0.1 0.1 0 0-0.1-0.1 0-0.1 0 0-0.1-0.1 0-0.1 0 0-0.1 0-0.1 0-0.1 0.1 0 0-0.1-0.1 0 0-0.1 0.1 0 0-0.1 0-0.1-0.1 0 0-0.1 0 0.1-0.1 0 0-0.1 0-0.1 0-0.1-0.1 0-0.1-0.1 0-0.1 0-0.1 0-0.1 0.1 0-0.1 0-0.1 0 0-0.1-0.1 0-0.1 0 0 0.1-0.1 0-0.1 0 0.1 0 0-0.1 0-0.1-0.1 0 0 0.1-0.1 0 0-0.1 0-0.1-0.1 0 0 0.1-0.1 0-0.1 0.1-0.1 0-0.1 0 0 0.1-0.1 0-0.1-0.1-0.1 0-0.1 0-0.1 0-0.1 0 0-0.1 0.1 0 0-0.1-0.1 0-0.1 0 0 0.1-0.1 0 0-0.1 0-0.1 0-0.1 0 0.1-0.1 0 0-0.1-0.1 0 0.1 0 0-0.1 0.1 0-0.1 0 0-0.1-0.1 0-0.1 0-0.1 0-0.1 0 0-0.1 0-0.1-0.1 0-0.1 0 0 0.1 0 0.1-0.1 0 0-0.1-0.1 0-0.1 0-0.1 0 0-0.1 0-0.1-0.1 0-0.1 0 0-0.1-0.1 0-0.1 0 0-0.1 0-0.1-0.1 0 0-0.1 0-0.1 0.1 0 0-0.1-0.1-0.1 0-0.1 0-0.1 0.1 0 0-0.1-0.1 0 0-0.1 0-0.1 0.1 0 0-0.1-0.1 0 0-0.1-0.1 0-0.1 0-0.1 0 0-0.1 0-0.1 0-0.1 0-0.1-0.1 0 0-0.1-0.1 0 0-0.1 0.1 0 0-0.1-0.1 0 0-0.1-0.1 0-0.1-0.1 0-0.1 0-0.1 0-0.1-0.1 0-0.1 0 0-0.1 0.1 0 0-0.1 0-0.1 0-0.1 0-0.1 0-0.1 0-0.1-0.1 0 0-0.1-0.1 0 0-0.1 0.1 0 0-0.1 0-0.1 0.1 0 0-0.1 0-0.1 0.1-0.1 0-0.1-0.1 0-0.1-0.1-0.1-0.1 0-0.1 0-0.1 0.1 0 0-0.1 0.1 0 0.1 0 0.1 0 0.1 0 0-0.1 0.1 0 0-0.1 0-0.1 0.3-0.1 0.2-0.1 0.1-0.1 0.1 0 0.1 0 0.1-0.1 0.1 0 0.1 0 0.1 0 0.1 0 0.1 0 0.1 0 0.1 0 0.1 0.1 0.1 0 0.1 0.1 0.1 0 0 0.1 0.1 0 0 0.1 0.1 0.1 0 0.1 0.1 0 0 0.1 0 0.1 0.1 0 0.1 0 0 0.1 0.1 0 0 0.1 0.1 0 0 0.1 0.1 0 0.1 0 0 0.1 0.1 0 0.1 0.1 0.1 0 0.1 0 0 0.1 0.1 0 0.1 0 0 0.1 0.1 0 0 0.1 0.1 0 0.1 0 0.1 0.1 0.1 0 0.1 0 0.1 0.1 0.1 0 0-0.1 0.1 0 0.1 0 0.1 0 0-0.1 0.1 0.1 0-0.1 0.1 0 0 0.1 0.1-0.1 0.1 0 0-0.1 0.1 0 0.1 0 0.1 0.1 0.1 0 0.1 0 0.1 0 0 0.1 0.1 0 0-0.1 0.1 0 0.1 0 0-0.1 0.1 0 0.1 0 0.1 0 0-0.1 0.1 0 0.1 0 0.1-0.1 0.1 0 0-0.1 0.1 0 0 0.1 0.1 0 0 0.1 0.1 0 0.1 0 0 0.1 0.1 0 0 0.1 0.1 0 0.1 0 0 0.1 0.1 0 0.1 0 0.1 0 0.1 0 0.1 0 0.1-0.1 0.1-0.1 0-0.1 0.1 0 0.1 0 0-0.1 0.1 0 0.1 0 0-0.1 0.1 0 0-0.1 0.1 0 0.1-0.1 0.1 0 0-0.1 0.1 0 0-0.1 0.1 0 0-0.1 0-0.1 0.1 0 0-0.1 0-0.1 0-0.1 0-0.1 0-0.1 0 0.1 0.1 0 0.1 0 0.1 0 0.1 0 0-0.1 0.1 0 0-0.1 0-0.1 0.1 0 0.1 0 0.1 0 0-0.1 0.1 0 0-0.1 0-0.1 0.1-0.1-0.1 0 0-0.1 0 0.1 0.1 0 0.1 0 0.1 0 0.1 0 0-0.1 0.1 0 0.1-0.1 0.1 0 0.1 0 0.1 0 0-0.1 0.1 0 0.1-0.1 0.1 0 0-0.1 0.1 0 0.1 0 0.1 0.1 0.1 0 0-0.1 0.1 0 0.1 0 0-0.1 0.1 0z" id="MUMO" name="Moka">
  </path>
  <path d="M293.8 920.4l0.1 0 0 0.1-0.1 0-0.1 0 0.1 0 0 0.1-0.1 0 0 0.1 0 0.1-0.1 0 0 0.1-0.1 0-0.1 0 0 0.1-0.1 0 0.1 0-0.1 0 0 0.1 0-0.1-0.1 0-0.1 0 0.1 0 0 0.1-0.1 0-0.1 0 0 0.1-0.1 0-0.1 0 0-0.1 0.1 0-0.1 0 0-0.1 0 0.1-0.1 0 0-0.1 0 0.1-0.1 0 0 0.1 0 0.1-0.1-0.1 0-0.1 0 0.1-0.1 0-0.1 0 0-0.1-0.1 0-0.1 0 0 0.1 0 0.1-0.1 0-0.1 0.1 0 0.1-0.1 0-0.1 0.1-0.1 0 0 0.1-0.1 0-0.1 0 0 0.1-0.1 0-0.1 0 0 0.1-0.1 0-0.1-0.1-0.1 0-0.1 0 0 0.1-0.1 0-0.1 0.1-0.1 0 0 0.1-0.1 0-0.1 0-0.1 0-0.1 0.1-0.1 0 0 0.1-0.1 0-0.1 0-0.1 0-0.1 0 0-0.1 0 0.1 0.1 0-0.1 0.1 0 0.1 0 0.1-0.1 0 0 0.1-0.1 0-0.1 0-0.1 0 0 0.1 0 0.1-0.1 0 0 0.1-0.1 0-0.1 0-0.1 0-0.1 0 0-0.1 0 0.1 0 0.1 0 0.1 0 0.1 0 0.1-0.1 0 0 0.1 0 0.1-0.1 0 0 0.1-0.1 0 0 0.1-0.1 0-0.1 0.1-0.1 0 0 0.1-0.1 0 0 0.1-0.1 0-0.1 0 0 0.1-0.1 0-0.1 0 0 0.1-0.1 0.1-0.1 0.1-0.1 0-0.1 0-0.1 0-0.1 0-0.1 0 0-0.1-0.1 0-0.1 0 0-0.1-0.1 0 0-0.1-0.1 0-0.1 0 0-0.1-0.1 0 0-0.1 0-0.1 0-0.1 0-0.1 0-0.1-0.1-0.1 0-0.1 0-0.1 0-0.1 0.1 0 0-0.1 0-0.1 0-0.1-0.1 0 0-0.1-0.1-0.1 0-0.1 0-0.1 0-0.1 0-0.1 0.1 0 0-0.1 0-0.1 0-0.1-0.1 0 0-0.1-0.1-0.1 0-0.1 0-0.1-0.1-0.1 0-0.1-0.1 0 0-0.1 0-0.1 0.1-0.1-0.1 0 0-0.1 0-0.1 0-0.1 0.1 0-0.1-0.1 0-0.1 0.1 0 0-0.1-0.1-0.1-0.1-0.2-0.1-0.1 0-0.1-0.1-0.1-0.1 0 0-0.1-0.1 0 0-0.1 0-0.1 0-0.1-0.1 0 0-0.1-0.1-0.1-0.4 0.2-0.3 0-0.1 0.1-0.1 0-0.1 0 0 0.1-0.1 0 0-0.1 0 0.1-0.1 0-0.1 0-0.1 0-0.1 0 0-0.1-0.1 0 0-0.1-0.1 0-0.1 0 0 0.1 0-0.1-0.1 0 0-0.1-0.1 0-0.1-0.1-0.1 0 0 0.1-0.1 0 0-0.1-0.1 0-0.1 0-0.1 0-0.1 0 0-0.1-0.1 0 0-0.1-0.1 0 0 0.1 0 0.1-0.1 0-0.1 0-0.1 0 0-0.1-0.1 0 0-0.1-0.1 0 0-0.1-0.1 0 0 0.1-0.1 0 0-0.1-0.1 0 0-0.1 0 0.1-0.1 0 0-0.1 0-0.1-0.1 0 0-0.1 0-0.1 0-0.1 0-0.1 0-0.1 0-0.1 0-0.1-0.1-0.1 0.1 0 0-0.1 0-0.1 0-0.1 0.1-0.1 0-0.1 0-0.1 0-0.1 0.1 0 0-0.1 0-0.1 0.1 0 0-0.1 0.1 0 0-0.1 0-0.1 0.1 0 0-0.1 0.1 0 0-0.1 0.1 0 0.1 0 0-0.1 0.1 0 0.1 0 0-0.1 0.1 0 0.1 0 0.1-0.1 0.1 0 0-0.1 0.1 0 0.1 0 0.1 0 0.1 0 0-0.1 0-0.1 0-0.1-0.1 0-0.1 0 0-0.1-0.1 0-0.1-0.1 0-0.1-0.1 0 0-0.1-0.1 0 0-0.1 0-0.1-0.1 0 0-0.1-0.1 0 0-0.1 0-0.1 0-0.1 0 0.1 0-0.1 0-0.1 0-0.1 0.1 0 0.1 0 0-0.1 0.1 0 0.1 0 0.1 0 0-0.1 0.1 0 0-0.1 0-0.1 0.1 0 0-0.1-0.1 0 0-0.1-0.1 0-0.1 0 0-0.1-0.1 0 0-0.1 0-0.1 0-0.1 0-0.1 0-0.1 0-0.1 0-0.1 0.1 0 0-0.1 0-0.1 0.1 0 0-0.1 0.1 0 0-0.1 0.1 0 0-0.1 0.1-0.1 0-0.1 0.1 0 0-0.1 0-0.1 0-0.1 0-0.1 0.1 0 0-0.1 0-0.1-0.1 0 0.1 0-0.1 0 0-0.1 0.1 0 0-0.1 0.1 0 0-0.1 0 0.1 0.1 0 0-0.1 0-0.1-0.1 0 0-0.1 0-0.1 0.1 0 0-0.1 0-0.1 0-0.1 0-0.1 0.1 0 0-0.1 0-0.1 0.1 0 0-0.1 0.1 0 0 0.1 0-0.1 0 0.1 0.1 0 0-0.1 0.1 0 0-0.1 0.1 0 0.1 0 0.1 0 0.1 0 0-0.1 0.1 0 0.1 0 0.1 0 0-0.1 0.1 0 0-0.1 0.1 0 0-0.1 0.1 0 0.1 0 0.1 0 0-0.1 0-0.1 0.1 0 0-0.1 0-0.1 0.1 0 0-0.1 0-0.1 0-0.1 0-0.1 0.1 0 0-0.1 0-0.1 0-0.1 0-0.1 0.1 0 0-0.1 0.1 0 0-0.1 0.1 0 0.1-0.1 0.1-0.1 0-0.1 0 0.1 0-0.1 0.1 0-0.1 0 0-0.1 0 0.1 0.1 0 0-0.1 0.1 0 0-0.1 0.1 0 0-0.1 0.1 0 0-0.1 0-0.1 0.1 0 0-0.1 0-0.1 0-0.1 0-0.1-0.1 0 0-0.1 0-0.1 0-0.1-0.1 0 0-0.1 0-0.1-0.1 0 0-0.1-0.1 0 0-0.1-0.1 0 0-0.1 0.1 0 0-0.1 0-0.1-0.1 0 0-0.1 0.1 0 0-0.1 0.1 0 0 0.1 0.1 0 0 0.1 0.1 0 0.1 0 0 0.1 0.1 0 0.1 0 0 0.1 0.1 0 0.1 0 0.1-0.1 0.1 0 0 0.1 0.1 0 0.1 0 0.1 0 0-0.1 0.1 0 0.1 0 0 0.1 0.1 0 0 0.1 0 0.1-0.1 0 0 0.1 0-0.1 0 0.1-0.1 0 0 0.1-0.1 0 0 0.1-0.1 0 0 0.1 0.1 0 0 0.1 0 0.1 0 0.1 0 0.1 0.1 0 0.1 0-0.1 0.2 0.1 0 0.1 0.1 0.1 0.1 0.1 0.1 0.1 0 0 0.1 0.1 0 0 0.1 0.1 0 0.1 0.1 0.1 0.1 0.1 0 0 0.1 0.1 0.1 0.2 0.1 0.1 0.1 0.1 0.1 0.1 0 0.1 0.1 0 0.1 0.1 0 0.3 0.3 0.4 0.3 0.4 0.3 0.2 0.2 0.2 0.2 0.3 0.2 0.2 0.1 0.1 0.1-0.2 0.2 0 0.1 0.1 0.1 0 0.1 0 0.1 0 0.1 0 0.1 0 0.1 0 0.2 0 0.1 0 0.1 0 0.1-0.1 0 0 0.1 0 0.1-0.1 0.1 0 0.1-0.1 0-0.1 0.1-0.1 0 0 0.1-0.1 0-0.1 0.1-0.1 0-0.1 0.1-0.1 0-0.1 0.1 0.1 0 0.1 0.1 0.1 0 0 0.1 0.1 0 0.1 0.1 0.2 0.1 0.1 0.1 0.1 0 0 0.1 0.2 0.1 0.1 0.1 0.1 0 0 0.1 0.1 0 0.1 0.1 0.1 0 0 0.1 0.1 0 0.1 0.1 0.1 0 0.1 0.1 0.1 0.1 0.1 0 0 0.1 0.1 0 0.1 0.1 0.1 0 0 0.1 0.1 0 0.1 0.1 0.1 0.1 0.1 0 0.1 0.1 0.1 0 0.1 0.1 0.1 0.1 0.2 0.1 0 0.1 0.1 0 0.1 0 0 0.1 0.1 0 0.1 0 0.1 0.1 0.1 0-1.8 1.4 1.4 3z" id="MUPA" name="Pamplemousses">
  </path>
  <path d="M278.3 945l0-0.1 0.1 0 0-0.1 0.1 0 0-0.1 0.1 0 0-0.1-0.1 0 0-0.1 0.1 0 0.1 0 0.1 0 0-0.1 0-0.1-0.1 0 0-0.1 0-0.1-0.1 0 0 0.1 0-0.1-0.1 0 0-0.1 0-0.1-0.1 0 0.1 0 0-0.1-0.1 0 0-0.1 0-0.1-0.1 0 0.1-0.1 0-0.1-0.1 0 0-0.1 0-0.1-0.1 0-0.1 0-0.1 0-0.1 0-0.1-0.1-0.1 0-0.1 0-0.1 0-0.1 0-0.1 0-0.1 0 0-0.1-0.1 0 0-0.1-0.1 0 0-0.1-0.1 0-0.1 0 0-0.1-0.1 0-0.1-0.1-0.1 0-0.1 0-0.1 0-0.1 0 0-0.1-0.1 0 0-0.1 0-0.1 0.1 0 0.1 0.1 0.1 0 0.1-0.1 0.1 0 0-0.1 0.1 0 0 0.1 0.1 0.1 0.1 0 0.1 0 0.1-0.1 0-0.1 0.1 0 0-0.1 0.1 0-0.1 0 0.1 0 0-0.1-0.1 0 0-0.1 0-0.1 0-0.1 0.1 0 0-0.1-0.1-0.1 0-0.1-0.1 0 0-0.1-0.1 0-0.1 0-0.1-0.1-0.1 0 0-0.1 0-0.1 0.1 0 0-0.1 0-0.1 0-0.1-0.1-0.1-0.1 0-0.1-0.1 0-0.1 0-0.1 0-0.1 0-0.1-0.1 0 0-0.1-0.1 0 0-0.1 0-0.1-0.1 0 0-0.1 0.1 0 0.1 0 0-0.1 0-0.1 0.1 0 0-0.1 0.1 0 0-0.1 0-0.1 0-0.1-0.2-0.1 0-0.1 0.1 0 0.1 0 0-0.1 0.1 0 0-0.1 0.1 0 0-0.1 0-0.1 0.1 0 0-0.1-0.1 0 0-0.1-0.1 0 0.1 0 0-0.1 0.1 0 0-0.1 0.1 0 0.1 0 0-0.1 0.1 0 0-0.1 0 0.1 0.1 0 0.1 0 0.1 0 0.1 0 0.1 0 0 0.1 0.1 0 0 0.1-0.1 0 0.1 0 0.1 0 0.1 0 0.1 0 0.1 0 0-0.1 0 0.1 0.1 0 0.1 0-0.1 0.1-0.1 0.1 0.1 0.1 0 0.1 0.1 0 0.1 0 0-0.1 0.1 0 0-0.1 0.1 0 0-0.1 0.1 0 0.1-0.1 0-0.1 0-0.1 0-0.1 0-0.1 0-0.1 0-0.1-0.1 0 0-0.1-0.1 0 0-0.1 0-0.1-0.1 0-0.1 0-0.1 0-0.1 0-0.1 0-0.1 0.1 0-0.1-0.1 0 0-0.1 0.1-0.1-0.1 0 0-0.1 0-0.1 0-0.1-0.1 0 0-0.1-0.1-0.1-0.1-0.1-0.1 0 0-0.1-0.1-0.1 0-0.1 0-0.1 0.1 0 0.1 0 0-0.1 0-0.1 0.1 0 0.1 0 0-0.1 0-0.1 0-0.1 0-0.1-0.1 0 0-0.1 0-0.1 0-0.1-0.1 0 0-0.1-0.1 0 0-0.1-0.1 0 0-0.1-0.1 0-0.1 0-0.1 0-0.1-0.1 0.6-4.1 0-0.1-0.1 0 0-0.1 0-0.1-0.1 0 0-0.1-0.1 0 0-0.1-0.4-2.9 0.2-2 0-0.1 0-0.1 0-0.1 0.1-0.1 0-0.1 0.1 0 0.1 0 0.1 0 0-0.1 0.1 0 0.1 0 0.1-0.1 0.1-0.1 0-0.1 0.1-0.1 0-0.1 0.1-0.1 0.1 0 0-0.1 0.1-0.2 0.1 0 0-0.1 0.1 0 0-0.1 0.1 0 0-0.1 0.1 0 0.1 0 0.1 0 0.1 0 0.1 0-0.1 0 0 0.1-0.1 0 0 0.1 0 0.1 0.1 0.1 0.1 0.1 0.1 0 0 0.1-0.1 0.1 0 0.1 0 0.1-0.1 0 0 0.1 0 0.1-0.1 0 0 0.1 0.1 0 0 0.1 0.1 0 0 0.1 0 0.1 0 0.1 0 0.1 0 0.1 0 0.1-0.1 0 0 0.1 0.1 0 0.1 0 0 0.1 0 0.1 0 0.1 0.1 0.1 0.1 0 0 0.1 0.1 0 0 0.1-0.1 0 0 0.1 0.1 0 0 0.1 0.1 0 0 0.1 0 0.1 0 0.1 0 0.1 0.1 0 0.1 0 0.1 0 0 0.1 0.1 0 0 0.1-0.1 0 0 0.1 0 0.1 0.1 0 0 0.1-0.1 0 0 0.1 0 0.1 0.1 0.1 0 0.1-0.1 0 0 0.1 0 0.1 0.1 0 0 0.1 0 0.1 0.1 0 0.1 0 0 0.1 0.1 0 0.1 0 0 0.1 0 0.1 0.1 0 0.1 0 0.1 0 0 0.1 0.1 0 0-0.1 0-0.1 0.1 0 0.1 0 0 0.1 0 0.1 0.1 0 0.1 0 0.1 0 0.1 0 0 0.1 0.1 0-0.1 0 0 0.1-0.1 0 0.1 0 0 0.1 0.1 0 0-0.1 0 0.1 0 0.1 0 0.1 0.1 0 0-0.1 0.1 0 0.1 0 0 0.1-0.1 0 0 0.1 0.1 0 0.1 0 0.1 0 0.1 0 0.1 0.1 0.1 0 0-0.1 0.1 0 0.1 0 0.1-0.1 0.1 0 0-0.1 0.1 0 0 0.1 0 0.1 0.1 0 0-0.1 0.1 0 0 0.1 0 0.1-0.1 0 0.1 0 0.1 0 0-0.1 0.1 0 0.1 0 0 0.1 0.1 0 0.1 0-0.1 0 0 0.1 0 0.1 0 0.1 0.1 0.1 0.1 0 0 0.1 0 0.1 0 0.1 0.1 0 0-0.1 0 0.1 0.1 0 0 0.1 0 0.1-0.1 0 0 0.1 0.1 0 0 0.1-0.1 0 0 0.1 0 0.1 0 0.1 0.1 0 0.1 0 0 0.1 0.1 0 0.1 0 0 0.1-0.1 0 0 0.1-0.1 0 0.1 0 0.1 0 0 0.1-0.1 0 0.1 0 0 0.1 0 0.1 0 0.1 0 0.1 0.1 0 0 0.1 0.1 0 0 0.1 0 0.1 0 0.1 0.1 0 0 0.1 0.1 0 0 0.1 0.1 0 0 0.1 0 0.1 0 0.1 0 0.1 0.1 0 0 0.1 0.1 0 0 0.1 0.1 0 0 0.1-0.1 0 0 0.1 0 0.1 0 0.1 0.1 0-0.1 0 0 0.1 0 0.1-0.1 0 0 0.1-0.1 0-0.1 0 0 0.1-0.1 0 0 0.1 0 0.1 0 0.1 0 0.1 0.1 0 0 0.1 0.1 0.2 0.1 0.1 0.1 0.1 0.1 0.1 0.2 0.2 0.2 0.3 0.2 0.2 0.1 0.3 0.2 0.2 0.1 0.2 0 0.1 0.1 0 0 0.1 0.1 0 0.1 0 0.1 0 0.1 0 0.1 0.1 0.1 0.1 0.1 0 0.1 0 0.1 0 0 0.1 0.1 0 0.1 0 0.1 0 0.1 0 0 0.1 0.1 0 0.1 0 0.1 0 0.1 0 0.1 0 0.1 0 0.1 0.1 0.1 0 0.1 0.1 0.1 0 0.1 0 0.1 0 0 0.1 0.1 0 0 0.1 0.1 0 0.1 0.1 0.2 0.1 0.1 0 0 0.1 0.1 0 0.1 0 0.1 0 0.1 0 0.1 0 0.1 0 0.1 0 0.1 0 0.1 0 0.1 0.1-7.1 5.8-0.1 0-0.1 0 0-0.1 0 0.1-0.1 0 0.1 0 0 0.1-0.1 0 0-0.1-0.1 0-0.1 0-0.1 0-0.1 0-0.1 0 0.1 0-0.1 0 0-0.1-0.1 0 0-0.1 0.1 0-0.1 0-0.1 0 0-0.1 0.1 0-0.1 0 0-0.1-0.1 0-0.1 0-0.1 0 0-0.1-0.1 0-0.1 0 0-0.1-0.1 0 0-0.1 0 0.1-0.1 0 0-0.1-0.1 0 0 0.1 0 0.1-0.1 0 0-0.1-0.1 0 0 0.1-0.1 0 0 0.1-0.1 0 0 0.1-0.1 0 0.1 0 0 0.1-0.1 0 0 0.1-0.1 0 0 0.1-0.1 0-0.1 0 0 0.1-0.1 0-0.1 0 0 0.1-0.1 0-0.1 0 0 0.1 0.1 0 0 0.1-0.1 0 0 0.1 0 0.1 0 0.1 0 0.1-0.1 0 0 0.1 0 0.1-0.1 0 0 0.1 0.1 0-0.1 0 0 0.1 0 0.1-0.1 0 0 0.1 0 0.1 0.1 0 0 0.1 0.1 0 0 0.1 0 0.1-0.1 0 0 0.1-0.1 0 0 0.1 0.1 0-0.4 0-0.5 0.1-0.4 0-0.3 0z" id="MUPW" name="Plaine Wilhems">
  </path>
  <path d="M278.8 923.5l0-0.1 0-0.1 0-0.1 0-0.1 0-0.1 0-0.1 0-0.1 0-0.1 0-0.1 0-0.1 0.1 0 0-0.1 0-0.3 0.1-0.3 0-0.1 0.1 0 0 0.1 0.1 0 0 0.1-0.1 0 0 0.1 0 0.1-0.1 0 0 0.1 0 0.1 0 0.1 0 0.1 0.1-0.1 0-0.1 0-0.1 0-0.1 0.1 0 0 0.1 0.1 0 0 0.1 0-0.1 0-0.1-0.1 0 0-0.1 0 0.1 0-0.1 0.1 0 0.1 0 0.1 0 0-0.1 0-0.1 0-0.1 0-0.1 0-0.1 0-0.1-0.1 0 0-0.1 0.1 0 0-0.1 0.1 0 0.1 0 0-0.1 0.1-0.1 0-0.1 0.1-0.1 0-0.1 0.1-0.1 0-0.1 0-0.1 0 0.1 0.1 0 0.1 0 0-0.1 0 0.1 0.1 0 0.1 0 0.1 0 0.1 0 0 0.1 0.1 0.1 0.1 0 0.1 0.1 0.1 0 0.1 0.1 0 0.1 0 0.1 0 0.1 0 0.1 0.1 0 0-0.1 0.1 0-0.1 0 0-0.1-0.1 0 0-0.1 0.1 0 0 0.1 0.1 0-0.1 0 0-0.1 0 0.1 0.1 0 0.1 0 0 0.1 0.1 0 0-0.1 0.1 0-0.1-0.1 0.1 0 0-0.1 0.1 0 0.1 0 0-0.1 0.1 0 0-0.1-0.1 0 0 0.1-0.1 0-0.1 0 0-0.1 0 0.1-0.1 0 0-0.1 0 0.1 0 0.1-0.1 0-0.1 0 0-0.1-0.1-0.2 0.1 0 0.1-0.1 0.1 0-0.1 0 0-0.1-0.1 0 0 0.1-0.1 0-0.1 0-0.2-0.2-0.1-0.1-0.1-0.1 0-0.1-0.1 0 0 0.1-0.1-0.1-0.1-0.1-0.1 0 0-0.1 0-0.1 0-0.1 0.1 0 0.1-0.1 0.4-0.3 0.1 0.1 0-0.1 0.1 0 0.1-0.1 0.1 0 0.1 0 0 0.1 0.1 0.1 0.2 0.1 0.1 0.1 0.1 0 0.1 0-0.1-0.1 0.1-0.1 0.1 0 0.1 0 0-0.1 0-0.1 0.1 0 0 0.1 0.1 0 0 0.1 0.1 0 0.1 0 0.1 0 0.1 0 0 0.1 0.1 0 0-0.1 0.1 0 0.1 0.1 0.1 0 0 0.1 0.1 0 0 0.1 0-0.1 0.1 0 0.1 0 0 0.1 0.1 0 0 0.1 0.1 0 0.1 0 0.1 0 0.1 0 0-0.1 0 0.1 0.1 0 0-0.1 0.1 0 0.1 0 0.1-0.1 0.3 0 0.4-0.2 0.1 0.1 0 0.1 0.1 0 0 0.1 0 0.1 0 0.1 0.1 0 0 0.1 0.1 0 0.1 0.1 0 0.1 0.1 0.1 0.1 0.2 0.1 0.1 0 0.1-0.1 0 0 0.1 0.1 0.1-0.1 0 0 0.1 0 0.1 0 0.1 0.1 0-0.1 0.1 0 0.1 0 0.1 0.1 0 0 0.1 0.1 0.1 0 0.1 0 0.1 0.1 0.1 0 0.1 0.1 0 0 0.1 0 0.1 0 0.1-0.1 0 0 0.1 0 0.1 0 0.1 0 0.1 0.1 0.1 0 0.1 0.1 0 0 0.1 0 0.1 0 0.1-0.1 0 0 0.1 0 0.1 0 0.1 0.1 0.1 0 0.1 0 0.1 0 0.1 0 0.1-0.1 0 0 0.1-0.1 0-0.1 0.1-0.1 0-0.1 0 0 0.1-0.1 0-0.1 0-0.1 0 0 0.1-0.1 0-0.1 0 0 0.1-0.1 0 0-0.1-0.1 0-0.1 0-0.1 0-0.1-0.1-0.1 0-0.1 0 0 0.1-0.1 0-0.1 0.1 0-0.1-0.1 0 0 0.1-0.1-0.1 0 0.1-0.1 0-0.1 0-0.1 0 0 0.1-0.1 0-0.1-0.1-0.1 0-0.1 0-0.1-0.1-0.1 0-0.1 0 0-0.1-0.1 0 0-0.1-0.1 0-0.1 0 0-0.1-0.1 0-0.1 0-0.1-0.1-0.1 0 0-0.1-0.1 0-0.1 0 0-0.1-0.1 0 0-0.1-0.1 0 0-0.1-0.1 0-0.1 0 0-0.1 0-0.1-0.1 0 0-0.1-0.1-0.1 0-0.1-0.1 0 0-0.1-0.1 0-0.1-0.1-0.1 0-0.1-0.1-0.1 0-0.1 0-0.1 0-0.1 0-0.1 0-0.1 0-0.1 0-0.1 0.1-0.1 0-0.1 0-0.1 0.1-0.2 0.1-0.3 0.1 0 0.1 0 0.1-0.1 0 0 0.1-0.1 0-0.1 0-0.1 0-0.1 0-0.1 0-0.1 0-0.1 0z" id="MUPL" name="Port Louis">
  </path>
  <path d="M298.7 908.6l0 0.1 0.1 0 0.1 0 0 0.1 0.1 0 0 0.1 0.1 0 0 0.1-0.2 0 0-0.1-0.1 0-0.1 0-0.2 0 0 0.2 0 0.1 0.1 0 0.1 0 0.1 0 0 0.1 0 0.1 0.1 0 0 0.1 0.1 0 0 0.1 0.1 0 0 0.1 0.1 0 0 0.1 0.2 0 0.1 0 0.1 0 0 0.1 0.1 0 0 0.1-0.1 0 0 0.1 0 0.1-0.2 0 0 0.1 0-0.1-0.1 0-0.1 0 0-0.1-0.2 0 0 0.1-0.1 0 0-0.1-0.1 0-0.1 0-0.1 0 0-0.1-0.1 0 0 0.1 0 0.1-0.1 0 0 0.1-0.1 0 0-0.1 0 0.1 0 0.1-0.1 0 0-0.1-0.1 0-0.1 0-0.1 0 0-0.1 0 0.1 0 0.1-0.1 0-0.1 0 0-0.1 0.1 0 0-0.1 0-0.1-0.1 0 0-0.1 0-0.1 0-0.1 0-0.2 0.1 0 0 0.1 0.1 0 0-0.1 0.1 0 0-0.1 0.1 0 0 0.1 0.1 0 0-0.1 0.1 0 0.2 0 0-0.1 0-0.1-0.1 0 0-0.1 0-0.1-0.1 0 0-0.1-0.1 0-0.1 0 0.1 0 0-0.2 0.1 0 0-0.1 0.1 0 0.1 0 0.1 0 0-0.1 0.1 0z m4 7.8l-8.9 4-1.4-3 1.8-1.4-0.1 0-0.1-0.1-0.1 0-0.1 0 0-0.1-0.1 0-0.1 0 0-0.1-0.2-0.1-0.1-0.1-0.1-0.1-0.1 0-0.1-0.1-0.1 0-0.1-0.1-0.1-0.1-0.1 0 0-0.1-0.1 0-0.1-0.1-0.1 0 0-0.1-0.1 0-0.1-0.1-0.1-0.1-0.1 0-0.1-0.1-0.1 0 0-0.1-0.1 0-0.1-0.1-0.1 0 0-0.1-0.1 0-0.1-0.1-0.2-0.1 0-0.1-0.1 0-0.1-0.1-0.2-0.1-0.1-0.1-0.1 0 0-0.1-0.1 0-0.1-0.1-0.1 0 0.1-0.1 0.1 0 0.1-0.1 0.1 0 0.1-0.1 0.1 0 0-0.1 0.1 0 0.1-0.1 0.1 0 0-0.1 0.1-0.1 0-0.1 0-0.1 0.1 0 0-0.1 0-0.1 0-0.1 0-0.2 0-0.1 0-0.1 0-0.1 0-0.1 0-0.1-0.1-0.1 0-0.1 0.2-0.2-0.1-0.1-0.2-0.1-0.3-0.2-0.2-0.2-0.2-0.2-0.4-0.3-0.4-0.3-0.3-0.3-0.1 0 0-0.1-0.1-0.1-0.1 0-0.1-0.1-0.1-0.1-0.2-0.1-0.1-0.1 0-0.1-0.1 0-0.1-0.1-0.1-0.1-0.1 0 0-0.1-0.1 0 0-0.1-0.1 0-0.1-0.1-0.1-0.1-0.1-0.1-0.1 0 0.1-0.2 0.1 0 0-0.1 0.1 0 0.1 0 0.1 0 0 0.1 0.1 0 0.1 0 0 0.1 0.1 0 0.1 0 0.1 0 0-0.1 0.1 0 0-0.1 0 0.1 0.1 0 0-0.1 0.1 0-0.1 0 0-0.1 0.1 0 0-0.1 0-0.1-0.1 0-0.1 0 0-0.1 0 0.1-0.1 0 0-0.1-0.1 0-0.1 0 0-0.1-0.1 0 0.1 0-0.1 0 0-0.1 0.1 0 0-0.1 0-0.1 0.1 0 0-0.1 0.1 0 0-0.1 0-0.1 0-0.1 0.1 0 0-0.1 0.1 0 0.1 0 0-0.1 0-0.1 0-0.1-0.1 0-0.1 0 0-0.1 0.1 0 0-0.1 0.1 0 0 0.1 0-0.1 0 0.1 0.1 0 0.1 0 0 0.1 0.1 0 0-0.1 0.1 0-0.1 0 0-0.1 0.1 0 0.1 0 0.1 0 0-0.1 0-0.1 0-0.1 0-0.1-0.1 0 0-0.1-0.1 0 0.1 0 0.1 0 0 0.1 0.1 0 0.1 0 0.1 0 0-0.1 0.1 0 0-0.1 0.1 0 0-0.1 0.1 0 0.1 0 0-0.1 0.1 0 0-0.1 0 0.1 0.1 0 0-0.1 0 0.1 0.1 0 0 0.1 0.1 0 0.1 0 0.1 0 0-0.1 0 0.1 0-0.1 0.1 0 0-0.1 0.1 0 0-0.1 0-0.1 0.1 0 0.1 0-0.1 0 0.1 0 0.1 0 0 0.1 0.1 0 0.1 0 0 0.1 0-0.1 0.1 0 0 0.1 0.1 0 0.1 0 0 0.1 0.1 0 0.1 0 0-0.1 0 0.1 0 0.1 0.1 0 0.1 0 0.1 0 0.1 0 0-0.1 0 0.1 0-0.1 0.1 0 0 0.1 0.1 0 0.1 0 0-0.1 0.1 0 0-0.1 0 0.1 0.1 0-0.1 0 0 0.1 0.1 0 0 0.1 0-0.1 0 0.1 0.1 0 0-0.1 0.1 0 0 0.1-0.1 0 0.1 0 0.1 0 0.1 0 0 0.1-0.1 0-0.1 0 0 0.1 0 0.1-0.1 0 0 0.1 0 0.1 0.1 0 0.1 0 0.1 0 0-0.1 0.1 0 0 0.1 0 0.1 0 0.1 0.1 0-0.1 0 0.1 0 0 0.1 0.1 0 0 0.1 0.1 0 0 0.1 0-0.1 0.1 0 0 0.1 0 0.1-0.1 0-0.1 0 0.1 0 0 0.1 0.1 0 0.1 0-0.1-0.1 0.1 0 0 0.1 0.1 0-0.1 0 0.1 0 0.1 0 0 0.1 0-0.1 0 0.1 0.1 0 0-0.1 0 0.1 0.1 0 0 0.1 0-0.1 0.1 0 0 0.1 0.1 0 0 0.1 0.1 0 0-0.1 0.1 0 0-0.1 0 0.1 0.1 0 0.1 0-0.1 0 0-0.1 0-0.1-0.1 0 0.1 0 0-0.1 0.1 0 0-0.1-0.1 0 0-0.1 0 0.1 0-0.1 0.1 0 0.1 0 0.1 0-0.1 0 0.1 0-0.1 0 0 0.1 0 0.1 0.1 0 0 0.1-0.1 0-0.1 0 0 0.1 0 0.1 0 0.1 0.1 0 0-0.1-0.1 0 0.1 0 0-0.1 0-0.1 0.1 0 0 0.1 0-0.1 0 0.1 0.1 0 0-0.1 0.1 0 0 0.1 0.1 0-0.1 0 0.1 0 0.1 0 0-0.1 0 0.1 0.1 0 0-0.1 0 0.1 0-0.1 0-0.1 0 0.1 0.1 0 0 0.1-0.1 0 0 0.1 0 0.1 0 0.1 0.1 0 0.1 0 0 0.1 0.1 0 0.1 0 0.1 0 0.1 0 0 0.1 0 0.1 0.1 0 0.1 0 0-0.1 0.1 0 0.1 0 0.1 0 0 0.1 0.1 0 0.1 0 0.1 0 0.1 0 0 0.1 0.1 0 0-0.1 0 0.1 0.1 0 0-0.1 0.1 0 0 0.1 0.1 0-0.1 0 0 0.1 0.1 0-0.1 0-0.1 0-0.1 0 0 0.1 0.1 0-0.1 0 0.1 0 0 0.1-0.1 0 0.1 0 0 0.1 0.1 0 0-0.1 0 0.1-0.1 0 0 0.1 0 0.1 0 0.1 0.1 0 0 0.1 0-0.1-0.1 0 0 0.1-0.1 0-0.1 0-0.1 0-0.1 0-0.1 0 0-0.1-0.1 0 0 0.1 0.1 0 0 0.1 0.1 0 0 0.1 0 0.1 0.1 0-0.1 0 0.1 0 0.1 0 0.1 0 0-0.1 0.1 0 0 0.1 0 0.1 0.1 0 0 0.1-0.1 0 0.1 0 0 0.1-0.1 0 0.1 0-0.1 0 0 0.1 0 0.1 0 0.1 0.1 0 0 0.1 0 0.1-0.1 0-0.1 0-0.1 0 0 0.1 0 0.1 0 0.1 0.1 0 0.1 0 0 0.1 0.1 0 0-0.1 0 0.1 0-0.1 0.1 0 0 0.1 0.1 0 0 0.1 0 0.1 0 0.1 0.1 0-0.1 0 0 0.1 0 0.1-0.1 0 0.1 0 0 0.1-0.1 0.1 0 0.1 0.1 0 0 0.1-0.1 0 0-0.1-0.1 0 0 0.1 0.1 0-0.1 0 0 0.1-0.1 0 0.1 0 0.1 0 0 0.1 0-0.1-0.1 0 0 0.1 0 0.1 0.1 0 0-0.1 0 0.1 0 0.1 0.1 0 0-0.1-0.1 0 0.1 0 0-0.1 0.1 0 0 0.1-0.1 0 0.1 0 0 0.1-0.1 0-0.1 0 0 0.1 0-0.1-0.1 0 0-0.1-0.1 0 0-0.1-0.1 0 0 0.1 0 0.1 0 0.1 0.1 0 0 0.1 0.1 0 0-0.1 0 0.1 0-0.1 0.1 0 0 0.1-0.1 0 0.1 0 0 0.1-0.1 0 0 0.1-0.1 0 0.1 0 0 0.1 0.1 0-0.1 0 0 0.1-0.1 0-0.1 0 0 0.1 0.1 0 0-0.1 0 0.1-0.1 0 0 0.1 0.1 0 0-0.1 0.1 0 0.1 0 0 0.1 0.1-0.1 0 0.1 0.1 0 0.1 0 0 0.1 0 0.1 0.1 0 0-0.1 0.1 0 0 0.1-0.1 0-0.1 0-0.1 0-0.1 0 0 0.1 0 0.1 0.1 0-0.1 0 0.1 0.1 0-0.1 0.1 0 0 0.1-0.1 0 0 0.1 0.1 0 0-0.1 0.1 0 0 0.1 0-0.1 0 0.1 0 0.1-0.1 0 0 0.1-0.1 0 0.1 0 0.1 0 0.1 0-0.1 0 0 0.1 0.1 0 0-0.1 0.1 0 0 0.1-0.1 0 0 0.1 0 0.1 0 0.1 0.1 0 0.1 0 0 0.1 0 0.1-0.1 0 0 0.1-0.1 0 0.1 0 0.1 0 0.1 0 0 0.1 0.1 0 0 0.1-0.1 0 0.1 0 0.1 0 0.1 0 0.1 0 0 0.1 0.1 0 0 0.1 0 0.1 0.1 0-0.1 0 0.1 0-0.1 0 0 0.1 0.1 0 0-0.1 0.1 0-0.1 0 0 0.1 0.1 0 0 0.1-0.1 0 0.1 0 0.1 0-0.1 0 0 0.1 0.1 0-0.1 0 0 0.1 0.1 0 0.1 0 0 0.1 0.1 0-0.1 0 0 0.1 0.1 0-0.1 0 0 0.1 0 0.1 0.1 0 0-0.1 0-0.1 0.1 0 0 0.1 0.1 0 0.1-0.1 0.1 0 0.1 0 0 0.1-0.1 0 0.1 0 0 0.1-0.1 0-0.1 0-0.1 0-0.1 0 0 0.1 0.1 0 0 0.1 0.1 0-0.1 0-0.1 0-0.1 0.1-0.1 0 0 0.1 0.1 0 0-0.1 0.1 0 0 0.1 0.1 0 0.1 0 0.1 0 0 0.1-0.1 0 0.1 0 0 0.1 0.1 0-0.1 0 0 0.1-0.1 0 0 0.1 0 0.1 0.1 0 0 0.1 0.1 0 0 0.1 0-0.1 0.1 0 0 0.1 0-0.1 0.1 0 0 0.1 0.1 0 0.1 0 0-0.1 0.1 0-0.1 0 0 0.1 0.1 0 0 0.1 0.1 0 0 0.1-0.1 0 0 0.1 0.1 0 0-0.1 0.1 0 0 0.1 0.1 0 0.1 0 0.1 0 0-0.1 0.1 0 0 0.1 0 0.1 0.1 0 0.1 0 0-0.1 0.1 0 0.1 0 0.1 0 0.1 0 0 0.1 0.1 0 0.1 0 0-0.1 0 0.1 0.1 0 0.1 0 0.1 0 0 0.1 0.1 0 0 0.1 0.1 0 0.1 0 0.1 0 0 0.1 0.1 0 0.1 0 0.1 0 0.1 0 0.1 0 0 0.1z m-13-11.7l0 0.1 0 0.1-0.1 0-0.1 0 0-0.1 0.1 0 0-0.1 0.1 0z m2.5-4.1l0 0.1-0.1 0 0 0.1 0.1 0 0 0.1 0 0.1 0 0.2 0 0.1-0.1 0 0.1 0 0 0.1 0 0.1 0.1 0 0 0.1-0.1 0 0 0.1-0.1 0 0-0.1-0.1 0 0-0.1-0.1 0 0-0.2-0.1 0 0 0.1-0.2 0-0.1 0 0-0.1-0.1 0 0-0.1-0.1 0-0.1 0 0-0.1 0-0.1 0.1 0 0-0.1 0.1 0 0-0.1 0.1 0 0.2 0 0.1 0 0.1 0 0-0.1 0-0.1 0.1 0 0.2 0z m4.2-5l0 0.1 0.1 0 0 0.1 0.1 0 0 0.1 0 0.1 0.1 0 0 0.1 0.1 0 0 0.1-0.1 0 0 0.1 0 0.1-0.1 0 0 0.1-0.2 0 0-0.1-0.1 0 0-0.1-0.1 0-0.1 0 0-0.1-0.1 0 0-0.1 0-0.1-0.1 0 0-0.2 0.1 0 0-0.1 0.1 0 0-0.1 0.1 0 0.2 0z m-1.5-1.3l0.1 0 0 0.1 0.1 0 0.1 0 0.1 0 0 0.1 0.1 0 0 0.1 0.1 0 0 0.1 0 0.1 0 0.1 0.1 0 0 0.1 0.1 0 0 0.1 0 0.2 0 0.1 0 0.1 0 0.1-0.1 0 0 0.1-0.1 0 0 0.1-0.1 0-0.1 0 0 0.1-0.1 0-0.2 0-0.1 0 0-0.1 0 0.1-0.1 0-0.1 0 0 0.1-0.2 0 0-0.1-0.1 0-0.1 0 0-0.1-0.1 0 0-0.1-0.1 0 0-0.2 0.1 0 0-0.1 0.1 0 0-0.2 0-0.1-0.1 0 0-0.1-0.1 0 0-0.1-0.1 0 0-0.1 0.1 0 0.1 0 0 0.1 0-0.1 0.1 0 0-0.1 0.1 0 0-0.1 0.1 0 0-0.1 0.1 0 0-0.1 0-0.1 0.1 0 0.2 0z m11.7-2.4l0 0.1 0.1 0 0.1 0 0 0.1 0.1 0 0 0.1 0.1 0 0 0.1-0.1 0 0 0.1-0.1 0-0.1 0 0 0.1 0 0.2 0 0.1 0.1 0 0 0.1 0.1 0 0 0.1 0 0.1-0.1 0 0 0.1-0.1 0 0 0.1 0 0.1-0.1 0-0.1 0 0 0.1-0.1 0 0 0.1-0.1 0-0.2 0-0.1 0 0-0.1-0.1 0-0.1 0-0.1 0 0-0.1-0.1 0 0-0.1 0-0.1-0.1 0 0-0.3 0.1 0 0-0.1 0-0.1 0-0.2 0-0.1 0.1 0 0-0.1 0-0.1 0.1 0 0.1 0 0-0.1 0.1 0 0-0.1 0.1 0 0.3 0 0.1 0 0-0.1 0.1 0z m1.1-2.3l0.2 0 0 0.1 0 0.1 0.1 0 0 0.1 0 0.1 0 0.1-0.1 0 0 0.1-0.1 0-0.1 0-0.1 0 0-0.1-0.1 0 0-0.2-0.1 0 0-0.1 0.1 0 0-0.1 0-0.1 0.1 0 0.1 0z" id="MURR" name="Riviere du Rempart">
  </path>
  <path d="M270.5 950.9l0-0.1 0-0.1 0-0.1 0-0.1 0.1-0.1 0-0.1 0-0.1 0-0.1 0.1 0 0.1 0 0.1 0.1 0 0.1 0.1 0 0.1 0 0.1 0 0-0.1 0-0.1 0-0.1 0.1 0 0-0.1 0.1 0 0-0.1 0-0.1 0.1 0 0-0.1 0.1 0 0-0.1 0-0.1-0.1 0-0.1 0-0.1 0-0.1 0 0-0.1 0-0.1-0.1 0 0-0.1-0.1 0 0-0.1-0.1 0 0.1 0 0-0.1 0.1 0 0-0.1 0-0.1-0.1-0.1 0-0.1 0-0.1 0-0.1-0.1 0-0.1 0-0.1 0 0-0.1 0.1-0.1 0-0.1 0.1 0 0-0.1 0-0.1 0-0.1-0.1 0 0-0.1 0.1 0 0.1 0 0-0.1 0.1 0 0-0.1 0.1-0.1 0.1 0.1 0.1 0 0.1 0 0-0.1 0.1 0 0-0.1-0.1 0 0-0.1 0.1 0 0-0.1 0.1 0 0.1 0 0 0.1 0-0.1 0.1 0 0-0.1 0-0.1 0.1 0 0.1 0 0 0.1 0 0.1 0.1 0 0.1 0 0.1 0 0 0.1 0.1 0 0 0.1 0.1 0 0.1 0 0-0.1 0 0.1 0.1 0 0-0.1 0.1 0 0 0.1 0.1 0 0-0.1 0-0.1 0-0.1 0.1 0 0-0.1-0.1 0 0.1 0 0.1 0 0-0.1 0.1 0 0.1 0-0.1 0 0-0.1 0.1 0 0.1 0 0-0.1 0.1 0 0-0.1 0.1-0.1-0.1 0 0.1 0 0-0.1 0-0.1 0.1 0-0.1 0 0-0.1 0.1 0 0.1 0 0.1 0 0-0.1 0-0.1 0.1 0 0.1 0 0-0.1 0 0.1 0-0.1 0.1 0 0.1 0 0-0.1 0.1 0 0-0.1 0.1 0 0-0.1 0-0.1 0-0.2 0.1 0 0.1 0 0-0.1 0.1 0.1 0 0.1 0-0.1 0.1 0 0.1 0.1 0.1 0 0.1-0.1 0 0.1 0.1-0.1 0 0.1 0-0.1 0.1 0 0.1 0 0.1 0 0-0.1 0.1 0 0-0.1 0.1 0 0-0.1 0-0.1 0.1 0 0-0.1 0.1 0 0.1 0 0.1 0 0 0.1 0.1 0 0.1 0 0.1 0 0.1 0 0.1 0.1 0-0.1 0-0.1 0-0.1 0.1 0 0.1 0 0-0.1 0.1 0 0.1 0 0.1 0 0 0.1 0.1 0 0 0.1 0.1 0 0 0.1 0.1 0 0-0.1 0 0.1 0.1 0 0.1 0 0-0.1 0 0.1 0.1 0-0.1 0 0 0.1 0-0.1 0 0.1 0 0.1 0 0.1 0.1 0 0 0.1 0.1 0 0 0.1 0.1 0 0.1 0 0-0.1 0-0.1 0.1 0 0.3 0 0.4 0 0.5-0.1 0.4 0-0.1 0 0-0.1 0.1 0 0-0.1 0.1 0 0-0.1 0-0.1-0.1 0 0-0.1-0.1 0 0-0.1 0-0.1 0.1 0 0-0.1 0-0.1 0.1 0-0.1 0 0-0.1 0.1 0 0-0.1 0-0.1 0.1 0 0-0.1 0-0.1 0-0.1 0-0.1 0.1 0 0-0.1-0.1 0 0-0.1 0.1 0 0.1 0 0-0.1 0.1 0 0.1 0 0-0.1 0.1 0 0.1 0 0-0.1 0.1 0 0-0.1 0.1 0 0-0.1-0.1 0 0.1 0 0-0.1 0.1 0 0-0.1 0.1 0 0-0.1 0.1 0 0 0.1 0.1 0 0-0.1 0-0.1 0.1 0 0 0.1 0.1 0 0-0.1 0 0.1 0.1 0 0 0.1 0.1 0 0.1 0 0 0.1 0.1 0 0.1 0 0.1 0 0 0.1 0.1 0-0.1 0 0 0.1 0.1 0 0.1 0-0.1 0 0 0.1 0.1 0 0 0.1 0.1 0-0.1 0 0.1 0 0.1 0 0.1 0 0.1 0 0.1 0 0 0.1 0.1 0 0-0.1-0.1 0 0.1 0 0-0.1 0 0.1 0.1 0 0.1 0 0.1 0 0.1 0 0 0.1 0.1 0 0-0.1 0.1 0 0 0.1 0.1-0.1 0.1 0 0.1 0 0 0.1 0.1-0.1 0 0.1 0.1 0 0-0.1 0.1 0 0 0.1 0 0.1 0.1 0 0.1 0 0.1 0 0.1 0.1 0.1 0 0-0.1 0.1 0 0.1 0 0 0.1 0.1 0 0.1 0 0.1 0 0.1 0 0 0.1 0.1 0 0-0.1 0.1 0 0 0.1-0.1 0 0 0.1 0.1 0 0.1 0 0.1 0 0.1 0 0.1 0 0.1 0 0 0.1 0.1 0 0.1 0 0.1 0 0.1 0 0.1 0 0-0.1 0.1 0 0.1 0 0.1 0 0.1 0 0.1 0 0 0.1 0 0.1-0.1 0 0 0.1 0 0.1 0.1 0 0 0.1-0.1 0 0.1 0 0.1 0 0 0.1 0.1 0 0 0.1 0 0.1 0 0.1 0.1 0 0 0.1 0 0.1-0.1 0 0.1 0.1 0 0.1 0.1 0 0 0.1-0.1 0 0 0.1 0.1 0-0.1 0 0 0.1 0.1 0 0 0.1 0.1 0 0 0.1 0.1 0 0 0.1 0.1 0 0 0.1 0 0.1 0.1 0 0 0.1 0.1 0 0.1 0 0 0.1 0.1 0.1 0 0.1 0 0.1 0.1 0 0 0.1 0.1 0-0.1 0 0 0.1 0.1 0 0 0.1 0.1 0 0.1 0 0 0.1 0 0.1-0.1 0 0 0.1 0 0.1 0 0.1 0-0.1 0.1 0 0 0.1-0.1 0 0 0.1 0 0.1 0.1 0 0.1 0 0 0.1 0.1 0 0 0.1 0.1 0 0 0.1 0 0.1 0.1 0 0.1 0 0 0.1 0 0.1 0.1 0 0-0.1 0-0.1 0.1 0 0 0.1 0 0.1 0.1 0 0 0.1 0.1 0 0 0.1 0 0.1 0.1 0 0-0.1 0-0.1 0.1 0 0 0.1 0 0.1 0 0.1 0.1 0 0.1 0.1 0 0.1 0.1 0 0.1 0 0 0.1 0.1 0 0 0.1 0.1 0 0.1 0.1-0.1 0 0 0.1-0.1 0 0.1 0 0.1 0 0.1 0 0.1 0 0 0.1 0 0.1 0 0.1-0.1 0 0 0.1 0.1 0 0.1 0 0-0.1 0.1 0 0-0.1 0.1 0 0 0.1-0.1 0 0 0.1 0 0.1 0.1 0 0.1 0 0 0.1 0 0.1 0.1 0 0 0.1 0-0.1 0.1 0 0.1 0 0.1 0 0 0.1-0.1 0-0.1 0.1 0 0.1 0.1 0 0 0.1 0.1 0 0 0.1-0.1 0 0 0.1-0.1 0 0.1 0 0 0.1 0.1 0 0.1 0 0 0.1 0 0.1-0.1 0 0 0.1 0.1 0 0.1 0 0-0.1 0 0.1 0.1 0 0 0.1 0.1 0 0 0.1 0.1 0 0 0.1 0 0.1-0.1 0 0.1 0 0 0.1 0-0.1 0.1 0 0 0.1 0 0.1 0 0.1 0.1 0 0 0.1-0.1 0-0.1 0 0 0.1 0.1 0 0.1 0 0 0.1 0 0.1 0.1 0.1 0 0.1 0 0.1 0 0.1 0 0.1-0.1 0 0 0.1-0.1 0-0.1 0-0.1 0-0.1 0 0 0.1-0.1 0-0.1 0 0 0.1-0.1 0-0.1 0-0.1 0 0 0.1-0.1 0-0.1 0-0.1 0 0 0.1-0.1 0-0.1 0-0.1 0-0.1 0 0-0.1-0.1 0-0.1 0 0 0.1-0.1 0 0 0.1-0.1 0 0 0.1-0.1 0 0.1 0-0.1 0 0 0.1 0-0.1-0.1 0 0 0.1-0.1 0 0 0.1-0.1 0 0 0.1 0 0.1-0.1 0 0-0.1 0 0.1-0.1 0 0 0.1-0.1 0 0 0.1-0.1 0-0.1 0 0 0.1-0.1 0 0 0.1-0.1 0-0.1 0-0.1 0 0 0.1 0-0.1-0.1 0 0 0.1 0-0.1-0.1 0-0.1 0 0 0.1-0.1 0 0-0.1-0.1 0-0.1 0-0.1 0 0 0.1 0-0.1-0.1 0.1-0.1 0-0.1 0 0 0.1-0.1 0 0 0.1-0.1 0-0.1 0-0.1 0-0.1 0 0 0.1-0.1 0 0-0.1-0.1 0-0.1 0-0.1 0-0.1 0-0.1 0 0 0.1 0-0.1-0.1 0-0.1 0-0.1 0-0.1 0 0 0.1 0 0.1-0.1 0 0.1 0-0.1 0 0 0.1-0.1 0-0.1 0-0.1 0.1-0.1 0-0.1 0-0.1 0-0.1 0-0.1 0-0.1 0 0 0.1-0.1 0 0-0.1-0.1 0 0 0.1-0.1 0 0 0.1-0.1 0 0-0.1 0 0.1-0.1 0 0 0.1-0.1 0-0.1 0-0.1 0-0.1 0 0 0.1-0.1 0-0.1 0-0.1 0-0.1 0-0.1 0 0-0.1-0.1 0-0.1 0 0-0.1-0.1 0 0-0.1-0.1 0 0.1 0-0.1 0 0-0.1 0-0.1 0-0.1-0.1-0.1-0.1 0 0-0.1 0 0.1-0.1 0 0 0.1 0.1 0 0 0.1-0.1 0 0 0.1 0 0.1-0.1 0 0 0.1-0.1 0-0.1 0-0.1 0-0.1 0-0.1 0 0-0.1-0.1 0 0-0.1-0.1 0 0-0.1-0.1 0-0.1 0 0-0.1-0.1 0-0.1 0-0.1-0.1-0.1 0-0.1 0-0.1 0-0.1 0-0.1 0-0.1 0-0.1 0-0.1 0.1-0.1 0-0.1 0-0.1 0-0.1 0-0.1 0-0.1 0.1-0.1 0-0.1 0-0.1-0.1-0.1 0 0 0.1-0.1 0 0-0.1-0.1 0 0-0.1-0.1 0-0.1 0 0-0.1-0.1 0-0.1 0-0.1 0-0.1 0-0.1 0 0-0.1 0 0.1 0-0.1-0.1 0 0-0.1 0-0.1 0-0.1-0.1 0 0-0.1-0.1 0-0.1 0 0-0.1-0.1 0 0-0.1-0.1 0-0.1 0-0.1-0.1-0.1 0-0.1 0-0.1 0-0.1 0 0-0.1-0.1 0 0-0.1 0-0.1-0.1 0 0-0.1-0.1 0-0.1 0-0.1 0-0.1 0 0 0.1-0.1 0 0-0.1-0.1-0.1 0.1 0-0.1 0 0-0.1-0.1 0-0.1 0 0 0.1-0.1 0 0 0.1 0.1 0-0.1 0.1-0.1 0 0 0.1-0.1 0.1 0 0.1-0.1 0 0 0.1-0.1 0-0.1 0 0 0.1-0.1 0-0.1 0-0.1 0 0 0.1-0.1 0-0.1 0-0.1 0-0.1 0 0 0.1-0.1 0-0.1 0-0.1 0-0.1 0-0.1 0-0.1 0-0.1 0-0.1 0-0.1 0-0.1 0-0.1 0-0.1 0-0.1 0 0-0.1-0.1 0 0-0.1-0.1 0 0-0.1-0.1 0-0.1-0.1-0.1 0 0-0.1-0.1 0-0.1 0-0.1 0-0.1 0 0-0.1-0.1 0-0.1 0-0.1 0-0.1 0 0-0.1-0.1 0-0.1 0 0-0.1 0-0.1 0-0.1-0.1 0 0-0.1-0.1 0-0.1 0-0.1 0-0.1 0-0.1 0 0-0.1-0.1 0 0 0.1 0-0.1-0.1 0-0.1 0 0-0.1-0.1 0-0.1 0 0-0.1-0.1 0 0-0.1-0.1 0-0.1 0 0-0.1-0.1 0-0.1 0 0-0.1-0.1 0 0-0.1-0.1 0 0 0.1-0.1 0 0-0.1-0.1 0 0-0.1-0.1 0 0-0.1-0.1 0-0.1 0 0 0.1 0-0.1 0.1-0.1 0-0.1 0-0.1 0-0.1z" id="MUSA" name="Savanne">
  </path>
  <path d="M461.3 566.3l0 0.1 0.1 0 0 0.1 0 0.1 0.1 0 0 0.1 0 0.2 0 0.1-0.1 0 0 0.1-0.1 0-0.1 0-0.2 0-0.1 0 0-0.1 0-0.1-0.1 0-0.1 0 0-0.1 0-0.1 0-0.2 0-0.1 0.2 0 0.1 0 0.1 0 0-0.1 0.2 0z m4.3 13.3l0.1 0 0 0.1-0.1 0 0 0.2 0 0.1-0.1 0 0 0.1-0.2 0 0-0.1-0.1 0 0-0.2 0.1 0 0-0.1 0.1 0 0-0.1 0.1 0 0.1 0z m-3 3l0.1 0 0 0.1 0.1 0 0 0.1 0.2 0 0 0.1 0.1 0 0-0.1 0 0.1 0.1 0 0 0.1 0 0.1-0.1 0-0.1 0 0 0.1-0.1 0 0-0.1-0.1 0 0 0.1-0.1 0-0.1 0 0 0.1-0.1 0 0-0.1 0-0.1 0-0.3 0-0.1 0-0.1 0.1 0z m-0.4 1.2l0.1 0 0 0.1 0.1 0 0 0.1-0.3 0-0.1 0 0-0.1 0.1 0 0-0.1 0.1 0z m0.3 0.8l0.1 0 0 0.1 0 0.1 0 0.1-0.1 0-0.1 0 0-0.1-0.1 0 0-0.1 0-0.1 0.1 0 0.1 0z m0 0.4l0.1 0 0.1 0 0 0.1-0.1 0 0 0.1-0.1 0 0-0.1 0-0.1z m0.4 0.5l0 0.1 0.1 0 0 0.1 0 0.1-0.1 0-0.1 0 0.1 0 0-0.1-0.1 0 0.1 0 0-0.1-0.1 0 0-0.1 0.1 0z m-2.6 1.4l0 0.1 0.1 0 0 0.1-0.1 0 0 0.1-0.1 0-0.2 0-0.1 0 0-0.1-0.1 0 0-0.1 0.1 0 0-0.1 0.4 0z m9.1 1.1l0 0.1 0 0.1-0.1 0 0 0.1 0.1 0 0 0.1-0.1 0 0 0.1 0 0.1 0 0.1-0.1 0 0 0.1 0 0.1-0.1 0 0 0.1-0.1 0 0-0.1 0.1 0 0-0.1 0.1 0 0-0.1 0-0.1 0-0.1 0.1 0 0-0.2 0-0.1 0-0.1 0.1 0 0-0.1z m-4.5 3l0 0.1 0.1 0 0 0.1 0-0.1-0.1 0-0.1 0 0-0.1 0.1 0z m6.3 0.6l0 0.1 0.1 0 0.1 0 0 0.1 0 0.1-0.1 0-0.1 0 0-0.1 0-0.1-0.1 0 0-0.1 0.1 0z m-17.3 2.3l0.1 0 0 0.1 0.1 0 0 0.1-0.1 0-0.1 0 0 0.1-0.1 0-0.1 0-0.1 0-0.1 0 0-0.1-0.1 0 0-0.1-0.1 0 0-0.1 0.1 0 0.5 0z m16.5 2.2l0.1 0 0.1 0 0 0.1 0 0.1 0.1 0 0.1 0 0.1 0 0 0.1 0.1 0 0 0.2-0.1 0 0 0.1-0.1 0 0 0.1-0.1 0 0-0.1 0 0.1-0.1 0 0-0.1-0.1 0-0.1 0 0-0.1-0.1 0 0-0.1 0-0.1 0.1 0 0-0.1 0-0.1-0.1 0 0-0.1 0.1 0z m-7.5 1l0.1 0 0 0.1 0 0.1 0 0.1-0.1 0 0-0.1 0-0.1-0.1 0 0-0.1 0.1 0z m-8.4 1.4l0 0.1 0.1 0 0 0.1 0 0.1 0 0.1-0.1 0-0.1 0-0.1 0-0.1 0 0-0.1-0.1 0 0-0.2 0.1 0 0-0.1 0.2 0 0.1 0z m10.8 0.4l0 0.1 0.1 0 0 0.1-0.1 0 0 0.1-0.1 0 0-0.2 0.1 0 0-0.1z m-1.3 4.6l0 0.1 0.1 0 0 0.1-0.1 0 0 0.1-0.1 0 0-0.1 0-0.1 0.1 0 0-0.1z m2 1.7l0 0.1 0 0.1-0.1 0 0-0.1 0-0.1 0.1 0z m0.9 0.2l0 0.1-0.1 0 0 0.1 0 0.1-0.1 0 0-0.1 0-0.1 0.1 0 0-0.1 0.1 0z m-0.2 0.5l0 0.1 0 0.1-0.1 0 0 0.1 0-0.1 0-0.1 0-0.1 0.1 0z m-0.3 0.5l0 0.1-0.1 0 0 0.1-0.1 0 0 0.1-0.1 0 0 0.1 0-0.1 0-0.1 0.1 0 0-0.1 0.1 0 0-0.1 0.1 0z m0.5 0.6l0.1 0 0 0.1 0.1 0 0 0.1 0.1 0 0 0.1 0 0.1 0 0.1-0.1 0 0-0.1-0.1 0-0.1 0 0-0.1-0.1 0 0-0.2 0.1 0 0-0.1z m-7.8 2l0 0.1 0.1 0 0 0.1-0.1 0 0 0.1-0.1 0 0-0.1-0.1 0 0-0.2 0.1 0 0-0.1 0.1 0 0.1 0-0.1 0 0 0.1z m0.1 0.8l-0.1 0 0.1 0 0-0.1 0.1 0 0.1 0 0-0.1 0.1 0 0.1 0 0-0.1 0-0.1 0.1 0 0.1 0 0-0.1 0.1 0 0 0.1 0 0.1-0.1 0 0 0.1-0.1 0-0.1 0 0 0.1-0.1 0-0.1 0 0 0.1-0.1 0-0.1 0z m-0.1-0.3l0.1 0-0.1 0 0 0.1-0.1 0 0 0.1-0.1 0 0 0.1 0.1 0 0 0.1 0 0.1 0.1 0 0 0.1 0 0.1 0.1 0-0.1 0 0 0.1-0.1 0 0-0.1 0-0.1-0.1 0-0.1 0 0-0.1 0-0.1 0-0.2 0-0.1 0.1 0 0-0.1 0.1 0 0-0.1 0.1 0 0.1 0 0 0.1-0.1 0z m0 0.9l0.1 0 0 0.1-0.2 0 0 0.1-0.1 0 0 0.1 0 0.2 0 0.1 0.1 0 0.1 0 0 0.1 0.1 0 0 0.1 0 0.1 0.1 0 0.1 0 0 0.1 0.1 0 0 0.1 0 0.1 0.1 0 0 0.1 0 0.1 0 0.1 0.1 0 0 0.1 0 0.1 0 0.1 0 0.2 0 0.1 0 0.1-0.1 0 0 0.1 0 0.1-0.1 0 0 0.1 0 0.1-0.1 0 0 0.1 0 0.1-0.1 0 0 0.1 0 0.1 0.1 0 0 0.1 0 0.1 0 0.1 0 0.1-0.1 0 0 0.1 0 0.1-0.1 0 0 0.1-0.1 0 0 0.1 0 0.1-0.1 0 0 0.1 0 0.1-0.1 0 0 0.1-0.1 0 0.1 0 0-0.1 0-0.1 0.1 0 0-0.1-0.1 0 0.1 0 0-0.2 0-0.1 0-0.1 0.1 0 0-0.1 0.1 0 0-0.4-0.1 0 0-0.1 0-0.1 0-0.1 0.1 0 0-0.1 0-0.1 0.1 0 0-0.1 0-0.1-0.1 0 0-0.1 0-0.1 0-0.2 0-0.1 0.1 0 0-0.1 0-0.1 0-0.1-0.1 0 0-0.2 0.1 0-0.1 0 0-0.1 0-0.1-0.2 0 0-0.1-0.1 0 0-0.2 0-0.1 0-0.1-0.1 0 0-0.1 0-0.1 0-0.2 0-0.1 0.1 0 0-0.1 0.1 0 0.1 0z m-0.3 4.3l0 0.1 0 0.1-0.1 0 0 0.1-0.1 0 0 0.1-0.1 0-0.1 0 0-0.1 0.1 0 0.1 0 0-0.1 0.1 0 0-0.1 0.1 0 0-0.1z m-0.5 1l-0.2 0 0-0.1 0-0.1 0.1 0 0-0.1 0-0.1 0.1 0 0.1 0 0 0.1-0.1 0 0 0.1 0 0.1 0 0.1z m-0.7 0.6l-0.2 0 0-0.1 0.1 0 0-0.1 0.1 0 0.1 0 0-0.1 0.1 0 0-0.1 0-0.1 0.1 0 0.1 0 0 0.1 0 0.1-0.1 0 0 0.1-0.1 0 0 0.1-0.1 0-0.1 0 0 0.1z m-0.3 0.1l0 0.1-0.1 0-0.1 0 0-0.1 0.1 0 0.1 0z m-0.3 0l0 0.1 0 0.1-0.1 0-0.1 0 0 0.1 0-0.1 0-0.1 0.1 0 0.1 0 0-0.1z m-0.5 0.7l-0.1 0 0-0.1 0.1 0 0-0.1 0.1 0 0 0.1 0 0.1-0.1 0z m-0.3 0.3l-0.1 0 0-0.1 0.1 0 0-0.1 0.1 0-0.1 0 0 0.1 0 0.1z m-1 0.3l0 0.1 0.2 0 0 0.1-0.1 0-0.1 0 0-0.2z m-1.5 0.3l0 0.1 0.1 0 0 0.1-0.1 0 0 0.1-0.1 0-0.1 0 0-0.1-0.1 0-0.1 0 0 0.1-0.1 0-0.1 0 0-0.1-0.1 0 0.1 0 0-0.1 0.1 0 0.1 0 0.1 0 0.2 0 0-0.1 0.1 0z m0.9 0.1l0 0.1-0.1 0-0.3 0-0.2 0-0.1 0 0-0.1 0.3 0 0.2 0 0.2 0z m-1.6 0.2l0.1 0-0.1 0 0 0.1-0.1 0 0 0.1-0.1 0 0-0.1 0-0.1 0.1 0 0.1 0z m-0.4 0l0 0.1 0 0.1-0.1 0-0.1 0-0.1 0 0-0.1 0.1 0 0 0.1 0.1 0 0-0.1 0.1 0 0-0.1z m-0.4 0.2l0 0.1-0.1 0 0 0.1 0-0.1-0.1 0 0 0.1-0.1 0-0.1 0 0-0.1 0.1 0 0.1 0 0.1 0 0-0.1 0.1 0z" id="MUCC" name="Saint Brandon Islands">
  </path>
  <path d="M786.7 884.8l-0.1 0-0.1 0 0 0.1-0.1 0 0 0.1-0.1 0-0.1 0 0 0.1 0 0.1 0.1 0 0.1 0 0 0.1 0-0.1 0.1 0 0 0.1 0 0.1 0.1 0 0 0.1-0.2 0-0.1 0-0.1 0-0.1 0 0-0.1-0.1 0 0-0.1-0.1 0-0.1 0-0.1 0 0-0.1-0.1 0-0.1 0 0-0.1-0.1 0-0.1 0-0.1 0 0-0.1-0.1 0 0-0.1-0.1 0-0.2 0-0.1 0 0-0.1-0.1 0 0-0.1-0.1 0 0-0.1-0.1 0 0-0.1 0-0.1-0.1 0 0-0.1 0-0.1-0.1 0 0-0.1-0.1 0 0-0.1 0.1 0 0-0.1 0-0.1 0-0.1 0-0.1 0-0.1-0.1 0 0.1 0 0-0.1 0.1 0 0.1 0 0-0.1 0.1 0 0 0.1 0-0.1 0-0.1 0.1 0 0-0.1 0.1 0 0 0.2 0.1 0 0 0.1 0.1 0 0-0.1 0-0.1-0.1 0 0-0.1 0-0.1-0.1 0 0-0.1 0-0.1 0-0.1 0-0.1 0.1 0 0-0.1-0.1 0 0 0.1-0.1 0 0 0.1-0.1 0-0.1 0 0 0.1-0.1 0 0 0.1-0.1 0 0 0.1-0.1 0 0 0.1-0.1 0 0 0.1-0.1 0 0-0.1 0-0.1-0.1 0-0.1 0-0.1 0 0 0.1 0 0.1-0.1 0 0 0.1-0.1 0-0.1 0 0-0.1-0.1 0 0 0.1 0 0.1 0.1 0 0.1 0 0 0.1 0 0.1-0.1 0-0.2 0-0.1 0 0-0.1-0.1 0-0.1 0 0 0.1-0.1 0 0-0.1-0.1 0-0.1 0 0-0.1 0-0.1-0.1 0 0-0.1 0-0.1 0-0.1-0.1 0 0 0.1 0-0.1-0.1 0 0-0.3 0-0.2 0.1 0 0-0.1 0 0.1 0.1 0 0-0.1 0 0.1 0.2 0 0.1 0 0 0.1 0.1 0 0-0.1 0 0.1 0.1 0 0-0.1 0-0.1-0.1 0 0-0.1-0.1 0 0.1 0 0-0.1 0-0.1-0.1 0 0-0.1 0.1 0 0-0.1 0-0.1-0.1 0 0 0.1-0.1 0 0-0.1-0.1 0 0-0.1 0.1 0 0-0.1 0-0.1-0.1 0 0-0.1 0-0.1 0-0.2 0-0.2 0.1 0 0-0.1 0.1 0 0.1 0 0-0.1 0.1 0 0-0.1 0.2 0 0.1 0 0-0.1 0.1 0 0-0.1 0-0.1 0.2 0 0 0.1 0 0.1 0.1 0 0.1 0 0 0.1 0.1 0 0-0.1 0-0.1 0.1 0 0-0.1 0.1 0 0.1 0 0.1 0 0.2 0 0-0.1 0.1 0 0.2 0 0.1 0 0-0.1 0.1 0 0-0.1 0 0.1 0.1 0 0 0.2-0.1 0-0.1 0 0 0.1 0-0.1 0 0.1-0.1 0 0.1 0 0.1 0 0 0.1 0.1 0 0-0.1 0-0.1 0.1 0 0-0.3 0-0.1 0 0.1 0.1 0 0.1 0 0 0.1 0.1 0 0-0.1 0.1 0 0-0.1 0-0.1 0.1 0 0.2 0 0.1 0 0 0.1 0.1 0 0 0.1 0.1 0 0 0.1 0.1 0 0-0.1 0.1 0 0-0.1 0-0.1 0-0.1 0-0.1 0.1 0 0-0.1-0.1 0 0-0.1 0-0.1-0.1 0 0.1 0 0-0.1 0.1 0 0.1 0 0.1 0-0.1 0 0-0.1 0.1 0 0.1 0 0-0.2 0.1 0 0-0.1 0 0.1 0.1 0 0-0.1 0.1 0 0.1 0 0 0.1 0.1 0 0-0.1-0.1 0 0-0.1 0.1 0 0.1 0 0-0.1 0-0.1-0.1 0-0.1 0 0-0.1 0-0.1 0-0.1 0-0.1 0 0.1 0.1 0 0-0.1 0.1 0 0.1 0 0.1 0 0 0.1 0.1 0 0.1 0 0-0.1 0-0.1 0.1 0 0.2 0 0-0.1 0-0.1 0.1 0 0-0.1 0.1 0 0-0.1 0.1 0 0.1 0 0.1 0 0 0.1 0.1 0 0.1 0 0 0.1 0.1 0 0 0.1-0.1 0 0 0.1 0.1 0 0 0.1 0.1 0 0.1 0 0-0.1 0-0.1 0.1 0 0-0.1 0-0.1 0-0.1 0.1 0 0-0.1 0-0.1 0.1 0 0.1 0 0-0.1 0.2 0 0 0.1 0.1 0 0-0.1 0.2 0 0-0.1 0.1 0 0.1 0 0-0.1 0.1 0 0.1 0 0-0.1 0.1 0 0.1 0 0-0.1 0.1 0 0-0.1 0.1 0 0.1 0 0.1 0 0-0.1 0.1 0 0.1 0 0-0.1 0.1 0 0-0.1 0.1 0 0.1 0 0-0.1 0.1 0 0-0.1 0.1 0 0-0.1 0.3 0 0.1 0 0 0.1 0.1 0 0-0.1 0.1 0 0-0.1 0.1 0 0 0.1 0 0.2 0 0.1 0 0.1 0.1 0 0-0.1 0.1 0 0-0.1 0 0.1 0-0.1 0.1 0 0-0.1 0.1 0 0.1 0 0-0.1 0-0.1 0.2 0 0.1 0 0.1 0 0 0.1 0.1 0 0 0.1 0.1 0 0.1 0 0 0.1 0.1 0 0.1 0 0 0.1 0.2 0 0.1 0 0.1 0 0 0.1 0.2 0 0 0.1 0-0.1 0.1 0 0 0.1 0.1 0 0.1 0 0 0.1 0.1 0 0 0.1 0.2 0 0-0.1 0-0.1 0.1 0 0 0.1 0 0.1 0.1 0 0 0.1 0.3 0 0 0.1 0.1 0 0.1 0 0 0.1 0.1 0 0.1 0 0 0.1 0.1 0 0-0.1 0.1 0 0 0.1 0.1 0 0.1 0 0 0.1 0 0.1 0.1 0 0 0.1 0.1 0 0 0.1 0.1 0 0-0.1 0.1 0 0-0.1 0.1 0-0.1 0 0 0.1 0.1 0 0 0.1 0.1 0 0 0.1 0 0.1 0.1 0 0 0.1 0 0.2-0.1 0-0.1 0-0.1 0 0 0.1 0 0.5-0.1 0 0.1 0 0 0.1-0.1 0 0 0.1-0.1 0 0 0.1 0 0.2 0.1 0 0.1 0 0.1 0 0 0.1 0.1 0 0 0.2 0 0.1 0.1 0 0 0.1 0 0.1 0.1 0 0 0.1 0 0.2 0 0.2 0 0.1-0.1 0 0.1 0 0 0.1-0.1 0 0 0.1-0.1 0 0 0.1-0.1 0 0 0.1-0.1 0-0.1 0 0 0.1-0.1 0 0-0.1-0.1 0 0 0.1 0 0.1-0.1 0 0 0.1-0.1 0 0 0.1-0.1 0 0 0.1-0.1 0-0.1 0-0.1 0 0 0.1-0.1 0 0 0.1-0.1 0 0 0.1-0.1 0 0-0.1-0.1 0 0 0.1-0.1 0 0 0.1 0 0.1-0.1 0 0 0.1-0.1 0 0 0.1 0 0.1-0.1 0-0.1 0-0.1 0 0 0.1 0-0.1 0 0.1-0.1 0 0 0.1-0.1 0-0.1 0 0 0.1-0.1 0 0.1 0 0 0.1-0.1 0 0 0.1-0.1 0 0 0.1-0.1 0 0 0.1-0.1 0 0-0.1-0.1 0-0.1 0-0.1 0 0-0.1-0.1 0-0.1 0-0.2 0-0.1 0 0-0.1-0.1 0 0.1 0 0-0.1 0.1 0 0-0.1-0.1 0-0.1 0 0 0.1-0.1 0 0 0.1 0 0.1-0.1 0 0 0.1-0.1 0 0 0.1-0.1 0-0.1 0 0 0.1-0.1 0 0 0.1 0 0.1-0.1 0 0-0.1-0.1 0 0 0.1-0.1 0 0-0.1-0.1 0 0-0.1-0.1 0 0-0.1-0.1 0-0.1 0 0 0.1-0.1 0-0.1 0-0.1 0 0-0.1 0 0.1-0.1 0 0-0.1-0.1 0 0 0.1-0.2 0-0.1 0 0 0.1-0.1 0-0.2 0-0.1 0-0.3 0 0 0.1-0.1 0 0 0.1-0.2 0 0-0.1-0.1 0 0-0.1-0.1 0-0.1 0-0.1 0 0 0.1-0.2 0-0.1 0 0 0.1 0-0.1-0.1 0-0.2 0-0.1 0-0.1 0 0 0.1-0.1 0 0-0.1-0.2 0 0 0.1-0.1 0 0 0.1-0.1 0 0-0.1-0.1 0 0 0.1-0.1 0-0.1 0 0 0.1-0.1 0-0.1 0-0.1 0 0 0.1 0.1 0 0.1 0 0.1 0 0 0.1-0.2 0 0 0.1 0.1 0 0.1 0 0 0.1 0 0.1-0.1 0 0 0.2 0.1 0 0 0.1-0.1 0 0 0.1 0 0.1 0-0.1 0 0.1-0.1 0 0.1 0 0 0.1 0.1 0 0.1 0 0 0.1 0.1 0-0.2 0 0 0.1-0.1 0-0.1 0-0.1 0-0.1 0-0.1 0 0-0.1-0.1 0-0.1 0 0 0.1-0.1 0-0.1 0-0.1 0-0.1 0-0.1 0 0-0.1-0.1 0 0 0.1z m3.1-8.1l0.1 0 0 0.1-0.1 0 0 0.1-0.1 0 0-0.1 0-0.1 0.1 0z m-9.7 2.2l0 0.1 0.1 0 0 0.2-0.1 0 0 0.1 0.1 0-0.1 0 0 0.2 0 0.1-0.1 0 0-0.2 0-0.3 0-0.1 0.1 0 0-0.1z m-0.4 1.5l0 0.1 0 0.2 0 0.1 0 0.2-0.1 0 0 0.2 0 0.2 0 0.1 0 0.1-0.1 0-0.1 0 0-0.1 0-0.3 0.1 0 0-0.2 0-0.1 0-0.1 0-0.1 0.1 0 0-0.2 0-0.1 0.1 0z m1.9 3.1l0 0.1-0.1 0 0 0.1-0.1 0 0-0.1 0-0.1 0.2 0z m10.3 0.1l0 0.1 0 0.1 0 0.1-0.1 0 0-0.1-0.1 0 0.1 0 0-0.1 0.1 0 0-0.1z m-8.6 0.3l0 0.1 0.1 0 0 0.1 0 0.1 0 0.1-0.1 0 0 0.1-0.1 0 0.1 0 0 0.1 0 0.1-0.1 0-0.1 0 0-0.1 0-0.1 0-0.1-0.1 0 0-0.1 0.1 0 0-0.1 0-0.1 0.1 0 0-0.1 0.1 0z m5.3 0.6l0 0.1 0.1 0 0 0.1 0 0.1-0.2 0 0-0.1-0.1 0 0-0.1 0.1 0 0-0.1 0.1 0z m-0.5 0.3l0 0.1 0.1 0 0 0.1 0 0.1 0 0.1 0-0.1-0.1 0 0-0.1-0.2 0 0-0.1 0.1 0 0-0.1 0.1 0z m1 0.2l0.1 0 0 0.1 0.1 0 0.1 0 0 0.1 0.1 0 0.1 0 0.1 0 0 0.1 0 0.1 0 0.1 0.1 0 0.1 0 0.1 0 0 0.1 0.1 0 0.1 0 0 0.1 0.1 0 0 0.1-0.1 0-0.1 0 0-0.1-0.1 0-0.1 0-0.2 0 0-0.1-0.1 0 0-0.1-0.1 0 0-0.1-0.1 0 0-0.1-0.1 0-0.1 0 0-0.1-0.1 0 0-0.1-0.1 0 0-0.1 0.1 0z m-4.3 0.2l0 0.1 0.3 0 0.1 0 0 0.1 0.2 0 0 0.1-0.1 0 0 0.1-0.1 0 0-0.1-0.1 0 0 0.1 0 0.1-0.1 0 0 0.1-0.2 0 0 0.1-0.1 0 0-0.1-0.2 0 0-0.1 0.1 0 0-0.1-0.1 0 0-0.2 0.1 0 0-0.1 0.1 0 0-0.1 0.1 0z m6 0.3l0 0.1 0.1 0 0.1 0 0.1 0 0 0.1 0.1 0 0 0.1 0.1 0 0 0.1 0.1 0 0.1 0 0 0.1 0 0.1-0.1 0 0-0.1 0 0.1 0 0.1 0 0.1-0.2 0 0-0.1-0.1 0 0-0.1-0.1 0 0-0.1-0.1 0-0.1 0 0-0.1 0.1 0 0-0.1-0.1 0 0-0.1 0-0.1-0.1 0 0.1 0 0-0.1z m-0.1 1.2l0.1 0 0 0.1 0-0.1 0.1 0 0.1 0 0 0.1 0 0.1-0.2 0 0-0.1-0.1 0 0-0.1z" id="MURO" name="Rodriguez Island">
  </path>
  <path d="M203.3 45.5l0.1 0 0.1 0 0 0.1 0.1 0 0 0.1 0.1 0 0 0.1 0.1 0 0 0.1 0.1 0 0.1 0 0 0.1 0.1 0 0 0.1 0 0.1 0.1 0 0 0.1 0 0.1 0.1 0 0 0.1 0 0.1 0.1 0 0 0.1 0 0.1 0.1 0 0 0.1 0 0.1 0.1 0 0 0.1 0 0.1 0.1 0 0 0.1 0 0.1 0.1 0 0 0.1 0 0.1 0.1 0 0 0.1 0 0.1 0 0.1 0.1 0 0 0.1 0 0.1 0 0.1 0.1 0 0 0.1 0 0.1 0 0.1 0.1 0 0 0.1 0.1 0 0 0.1 0 0.1 0.1 0 0 0.1 0 0.1 0.1 0 0 0.1 0.1 0 0 0.1 0.1 0 0 0.1 0 0.1 0.1 0 0 0.1 0.1 0 0 0.1 0 0.1 0.1 0 0 0.1 0 0.1 0.1 0 0 0.1 0 0.1 0 0.1 0.1 0 0 0.1 0 0.1 0.1 0 0 0.1 0 0.1 0.1 0 0 0.1 0 0.1 0.1 0 0 0.1 0 0.1 0.1 0 0 0.1 0 0.1 0.1 0 0 0.1 0.1 0 0 0.1 0.1 0 0 0.1 0.1 0 0 0.1 0.1 0 0 0.1 0.1 0 0 0.1 0.1 0 0 0.1 0.1 0 0 0.1 0.1 0 0 0.1 0.1 0 0 0.1 0 0.1 0.1 0 0 0.1 0 0.1 0 0.1 0.1 0 0 0.1 0 0.1 0 0.1 0.1 0 0 0.1 0 0.1 0.1 0 0 0.1 0 0.1 0 0.1 0 0.1 0.1 0 0 0.1 0 0.1 0.1 0 0 0.1-0.1 0-0.1 0 0-0.1-0.1 0-0.1 0-0.1 0 0-0.1-0.1 0 0-0.1-0.1 0 0-0.1-0.1 0-0.1 0 0-0.1-0.1 0 0-0.1-0.1 0 0-0.1-0.1 0 0-0.1-0.1 0 0-0.1-0.1 0 0-0.1-0.1 0 0-0.1 0-0.1-0.1 0 0-0.1 0-0.1-0.1 0 0-0.1-0.1 0 0-0.1-0.1 0 0-0.1-0.1 0 0-0.1-0.1 0 0-0.1 0-0.1-0.1 0 0-0.1-0.1 0 0-0.1-0.1 0 0-0.1-0.1 0 0-0.1-0.1 0 0-0.1 0-0.1-0.1 0 0-0.1-0.1 0 0-0.1 0-0.1-0.1 0 0-0.1 0-0.1-0.1 0 0-0.1-0.1 0 0-0.1 0-0.1-0.1 0 0-0.1 0-0.1 0-0.1-0.1 0 0-0.1 0-0.1-0.1 0 0-0.1-0.1 0 0-0.1-0.1 0 0-0.1 0-0.1-0.1 0 0-0.1-0.1 0 0-0.1-0.1 0 0-0.1 0-0.1 0-0.1-0.1 0 0-0.1 0-0.1-0.1 0 0-0.2 0-0.1-0.1 0 0-0.1 0-0.1 0-0.1-0.1 0 0-0.1 0-0.1-0.1 0 0-0.1-0.1 0 0-0.1 0-0.1-0.1 0 0-0.1-0.1 0 0-0.1 0-0.1-0.1 0 0-0.1-0.1 0 0-0.1-0.1 0 0-0.1-0.1 0 0-0.1 0-0.1-0.1 0 0-0.1 0-0.1 0-0.3 0-0.2 0-0.1 0-0.1 0-0.4 0.1 0 0-0.1 0.2 0z m6 9.2l0.1 0 0 0.1 0.1 0 0.1 0 0 0.1 0.1 0 0 0.1 0.1 0 0.1 0 0 0.1 0.1 0 0.1 0 0 0.1 0.1 0 0.1 0 0 0.1 0.1 0 0.1 0 0 0.1 0.1 0 0.1 0 0.1 0 0 0.1 0.1 0 0.1 0 0 0.1 0.1 0 0.2 0 0.1 0 0 0.1 0.1 0 0.1 0 0 0.1 0.1 0 0.1 0 0 0.1 0.1 0 0.1 0 0 0.1 0.1 0 0.1 0 0 0.1 0.1 0 0 0.1 0.1 0 0 0.1 0.1 0 0.1 0 0 0.1 0 0.1 0.1 0 0 0.1 0.1 0 0 0.1 0.1 0 0 0.1 0 0.1 0.1 0 0 0.2 0 0.1 0 0.1 0 0.1 0.1 0 0.1 0 0 0.1-0.1 0 0 0.2 0 0.1 0 0.1 0 0.1-0.1 0 0 0.1-0.1 0 0 0.1 0 0.1 0 0.1-0.1 0-0.1 0 0 0.1-0.1 0-0.1 0 0 0.1-0.1 0-0.1 0 0 0.1-0.1 0 0 0.1-0.1 0-0.1 0-0.1 0 0 0.1-0.3 0-0.1 0 0-0.1-0.1 0 0-0.1-0.1 0 0-0.1-0.1 0 0-0.1 0-0.1-0.1 0 0-0.1 0-0.1 0-0.1-0.1 0 0-0.1 0-0.1 0-0.4-0.1 0 0-0.2 0-0.2 0-0.1-0.1 0 0-0.1 0-0.1 0-0.2-0.1 0 0-0.1 0-0.1 0-0.1-0.1 0 0-0.1-0.1 0 0-0.1 0-0.1-0.1 0 0-0.1-0.1 0 0-0.1 0-0.1-0.1 0 0-0.1-0.1 0 0-0.1-0.1 0-0.1 0 0-0.1-0.1 0 0-0.1-0.1 0 0-0.1-0.1 0 0-0.1-0.1 0 0-0.1-0.1 0 0-0.1-0.1 0 0-0.1-0.1 0 0-0.1 0.1 0z" id="MUAG" name="North Islands">
  </path>
 </g>
 <g id="points">
  <circle class="-20.01613480546697|56.93158225995362" cx="232.7" cy="907.9" id="0">
  </circle>
  <circle class="-15.940744109535268|60.39047127448293" cx="529.7" cy="539.9" id="1">
  </circle>
  <circle class="-10.84650573962065|63.15758248610637" cx="767.3" cy="90" id="2">
  </circle>
 </g>
 <g id="label_points">
  <circle class="Black River" cx="274.2" cy="936.4" id="MUBL">
  </circle>
  <circle class="Flacq" cx="300.7" cy="927.9" id="MUFL">
  </circle>
  <circle class="Grand Port" cx="293.2" cy="943.8" id="MUGP">
  </circle>
  <circle class="Moka" cx="288.4" cy="929.6" id="MUMO">
  </circle>
  <circle class="Pamplemousses" cx="287.5" cy="916.2" id="MUPA">
  </circle>
  <circle class="Plaine Wilhems" cx="281.2" cy="935" id="MUPW">
  </circle>
  <circle class="Port Louis" cx="283.7" cy="921.9" id="MUPL">
  </circle>
  <circle class="Riviere du Rempart" cx="294.3" cy="912.3" id="MURR">
  </circle>
  <circle class="Savanne" cx="283.5" cy="948.6" id="MUSA">
  </circle>
  <circle class="Saint Brandon Islands" cx="459.4" cy="612.4" id="MUCC">
  </circle>
  <circle class="Rodriguez Island" cx="791.1" cy="880.2" id="MURO">
  </circle>
  <circle class="North Islands" cx="204.8" cy="49" id="MUAG">
  </circle>
 </g>
</svg>