<?xml version="1.0"?>
    
<!--********* Copyright (c) 2024 Pareto Softare, LLC DBA Simplemaps.com ***************************************
************* Free for Commercial Use, full terms at  https://simplemaps.com/resources/svg-license ************
************* Attribution is appreciated! https://simplemaps.com *******************************************-->

<svg baseprofile="tiny" fill="#6f9c76" height="1000" stroke="#ffffff" stroke-linecap="round" stroke-linejoin="round" stroke-width=".5" version="1.2" viewbox="0 0 1000 1000" width="1000" xmlns="http://www.w3.org/2000/svg">
 <g id="features">
  <path d="M493.5 953.8l1.1 0.7-0.8 0-0.2-0.2-0.1-0.5z m4.8-1.3l-0.4 0.5-0.2 0.4-0.3 0.3-0.6 0.2 0.1-0.7 0.3-0.3 1.1-0.4z m-9.3-1.7l0.3 1.2-0.4-0.2 0-0.3 0-0.3 0.1-0.4z m13.4-3.6l-1.4 2-0.1-1.2 0.4-1 0.5-0.5 0.6 0.7z m0.8-4.3l-0.2 2.2-0.8-0.8-0.2-0.9 0.3-1 1-0.7 0.1 0.3 0 0.3-0.2 0.3 0 0.3z m-17.3 1.3l0.8 0.8 0.8 1.2 0.6 1.5 0.2 1.3-0.8 0-1.9-4.2-0.5-2.2 1.6-0.8 0 0.9-0.7 0-0.1 0.4 0.1 0.5-0.1 0.6z" id="MV01" name="Addu">
  </path>
  <path d="M525.1 907.4l1 1.1 0.2 0.6-0.1 0.7-0.7-0.6-0.3-0.6-0.1-0.6 0-0.6z" id="MV29" name="Gnaviyani">
  </path>
  <path d="M485.6 847.9l0.4 0.4 0.5 0.2 0.2 0.4-0.2 0.7-0.5-0.3-0.1-0.3 0-0.1-0.1-0.1 0-0.4-0.2-0.5z m13.2-1.4l1 0.3-0.5 0.6-0.2 0-0.1-0.4-0.2-0.5z m-20-3.5l0 0.1 0.4 1.1 0 0.1-0.5-0.2 0-0.2-0.1-0.1 0.1-0.2 0-0.1 0-0.1 0.1-0.4z m39.8-1.7l-1.1 0.6 0.2-0.7 0.3-0.1 0.3 0.1 0.3 0.1z m-46-2.4l0.2 0.2 0.2 0.1 0.1 0.1-0.2 0.3-0.6-0.3 0-0.2 0.3-0.2z m-2.9-11.4l0.3 1.1-0.4-0.3-0.1-0.3 0.1-0.3 0.1-0.2z m-2.1-10.8l0 1-0.4-0.4 0-0.3 0.4-0.3z" id="MV28" name="Gaafu Dhaalu">
  </path>
  <path d="M534.3 829.3l-0.1 0-0.5 0.8 0 0.1-0.3-0.6 0-0.1 0.1-0.2 0.3 0.1 0.5-0.1z m-2.5-14l0 0.1 0.3 1-0.5-0.2-0.1-0.2 0.1-0.3 0.2-0.4z m-12.2-15.5l0 0.3 0 0.3-0.1 0.1-0.2 0-0.2-0.4 0.1-0.2 0.3 0 0.1-0.1z m-1.7-14.1l-0.1 0.3 0 0.2 0 0.2-0.1 0-0.1 0-0.2-0.4 0.1-0.2 0.1 0 0.1 0 0.1 0 0.1-0.1z m-2.2-9.9l-0.1 0.3 0 0.2 0 0.1 0 0.1-0.1 0.1-0.1 0-0.2-0.4 0.1-0.2 0.2-0.1 0.2-0.1z" id="MV27" name="Gaafu Alifu">
  </path>
  <path d="M454.9 465.8l0.2 0.2 0.2 0.2 0 0.2-0.4 0.2-0.4-0.2 0.1-0.2 0.2-0.2 0.1-0.2z m-4.4-0.8l0.1 0.2 0.1 0.1 0.3 0.2 0.1 0.1-0.3 0.1-0.6 0 0-0.1 0.2-0.3 0.1-0.3z m15.7-4.1l-1.9 1.2-0.1 0 0.5-0.8 0.5-0.4 0.5 0 0.5 0z m1.6-7.8l0.1 0.3 0.2 0.1 0 0.1 0.1 0.1-0.5 0.3-0.3-0.3 0-0.1 0.2-0.2 0.2-0.3z m-29-12.6l0 0.1 0.1 0.4 0.3 0.2 0.1 0.3-0.3 0.4-0.3-0.1-0.3-0.2 0-0.4 0.2-0.3 0.2-0.4z m30.2-0.8l0.1 0.3 0.3 0.2 0 0.1-0.5 0.2-0.3-0.2 0-0.1 0.2-0.2 0.2-0.3z m-0.8-4.4l0.2 0.2 0.1 0.2 0.1 0 0 0.2-0.4 0.2-0.1 0-0.3-0.2 0.1-0.2 0.2-0.2 0.1-0.2z m-0.1-7.6l0.1 0.3 0.1 0.1 0.1 0.1 0.1 0.1-0.5 0.2-0.3-0.2 0-0.1 0.2-0.2 0.2-0.3z" id="MV00" name="Alifu Dhaalu">
  </path>
  <path d="M530.1 415.4l-0.1 0.1-0.8 0.8-0.3 0.1 0.2-0.3 0.3-0.3 0.7-0.4z m3.5-18.8l0.1 1.2-0.5-0.4-0.2-0.2 0-0.3 0.3-0.1 0.3-0.2z m22.7-38.6l-0.2 0.3-0.4 0.1 0.6-0.4z m0-2.1l-0.4 0.4 0.1-0.3 0.3-0.1z m-38-2.5l0.1 1-0.4-0.2 0-0.2 0.2-0.3 0.1-0.3z m3.3-18.8l0 0.3 0.1 0.3 0 0.2-0.3 0.1-0.2-0.3 0.1-0.2 0.2-0.1 0.1-0.3z m10-10.3l0 0.3 0 0.3 0 0.2-0.3 0.1 0-0.1-0.2-0.2 0.1-0.2 0.2-0.1 0.2-0.3z m-5-29l-1.3 0.2 0.3-0.5 0.2-0.1 0.4 0.2 0.4 0.2z m-1.2 131.3l-0.2 0.2-0.3 0.2-0.1 0.2-0.1-0.3 0.1-0.3 0.2-0.1 0.2 0.1 0.2 0z m0.7-8.6l0 0.2-0.6 0.2 0.6-0.4z m-11.4-2.9l-0.1 0.1-0.4 0.3 0-0.2 0.5-0.2z m9-20.2l-0.2 0.2-0.2 0.1 0.4-0.3z m20.1-26.1l-0.4 0.2-0.3 0 0.7-0.2z m1.9-2.5l0 0.1-0.1 0.3 0.1 0.2 0 0.2-0.3 0.1-0.2-0.3 0.1-0.1 0.2-0.2 0.2-0.3z m3-0.8l-0.1 0.3 0.1 0.2 0 0.1-0.1 0.1-0.1 0-0.2 0-0.1 0-0.2-0.5 0.2-0.1 0.2 0 0.3-0.1z m3.5-2.7l0 0.3 0.1 0.3 0 0.2-0.3 0.1-0.2-0.3 0.1-0.2 0.2-0.1 0.1-0.3z m-13.3-26.5l0 0.3 0.1 0.3 0 0.2-0.3 0.1-0.1-0.1-0.1-0.2 0.1-0.2 0.1-0.1 0.2-0.3z" id="MV26" name="Kaafu">
  </path>
  <path d="M440 408.3l0 0.3 0.2 0.1 0.1 0.1 0 0.1 0.1 0-0.2 0.2-0.6-0.2-0.1 0 0-0.1 0.3-0.2 0.2-0.3z m31.1-30.6l0.2 0.2 0.2 0.1 0.2 0.1 0 0.2-0.4 0-0.1-0.1 0-0.2-0.1-0.3z m-3-0.1l1.6 0.5-0.5 0.1-0.4-0.1-0.7-0.5z m1.4-20l-0.1 1.9-0.8-0.1-0.2-0.1-0.5-0.9 1.6-0.8z" id="MV02" name="Alifu Alifu">
  </path>
  <path d="M472.1 304.2l-1.1 1.7 0 0.1 0-1.2 0.3-0.5 0.4-0.1 0.4 0z m-7.2-0.4l0.6 0-0.2 0.1-0.4 0 0-0.1z m-0.5-15.8l-0.4 0.4 0.1-0.2 0.3-0.2z m1.7-0.3l0 0.1-0.1 0.2-0.1 0.1-0.2 0 0.4-0.4z m13.6-9.9l-0.1 0.3-0.3 0.1 0.4-0.4z m0.5-1.4l0.1 0.4 0.2 0.2 0 0.2-0.4 0-0.3-0.3 0.1-0.1 0.2-0.1 0.1-0.3z m4.9-3.2l0 0.3-0.4 0 0 0.1 0.4-0.4z m1.5-1.4l0.4 0.1 0.4 0.2-0.1 0-0.3-0.1-0.4-0.2z m-28.4-7.6l-0.1 0.3-0.2 0.1-0.1 0 0.4-0.4z m31.7-0.8l0 0.3-0.4 0.1 0.4-0.4z m-2.3-6.3l-0.4 0.4 0-0.2 0.4-0.2z m-18.5-6.3l-0.1 0.3-0.3 0.1 0.4-0.4z" id="MV20" name="Baa">
  </path>
  <path d="M532.7 263.2l-0.3 0.2-0.4-0.1 0.7-0.1z m10.9-4.2l-1.3 0.8-0.6 0.1-0.8-0.2-0.1 0 0.7-0.4 0.7-0.2 0.7-0.1 0.7 0z m-14.4-3l0 0.1-0.7 0.1 0.4-0.2 0.1 0 0.2 0z m18.6-2.9l-0.1 0-0.2 0.2-0.5-0.1 0.8-0.1z m2-1.2l-0.1 0-0.7 0.1 0.4-0.2 0.4 0.1z m-29-2.2l0.1 0.3 0.2 0.2 0.1 0.2-0.2 0.1-0.4-0.2 0-0.2 0.1-0.2 0.1-0.2z m-8.7-0.7l0.2 0.2 0.4-0.1 0.2 0-0.1 0.3-1.1 0.2-0.2-0.3 0.2-0.1 0.3-0.1 0.1-0.1z m3.2-7l-0.7 0.1 0.3-0.2 0.4 0.1z m21.7-2.7l-0.2 0.1-0.5 0 0.7-0.1z m-20.3-1.4l0.1 0.4-0.3 0.2 0.2-0.6z m11.6-9.4l-0.3 0.2-0.4-0.1 0.7-0.1z m19.5 14.6l0.5 0.9 0.3 0.9-0.1 1-0.4 1-0.5-3.2 0.2-0.6z" id="MV03" name="Lhaviyani">
  </path>
  <path d="M467.9 237.4l-0.2 0.2 0 0.2-0.1 0.2-0.3 0.1-0.1-0.5 0.1-0.1 0.3 0 0.3-0.1z m8.5-3l-0.2 0.2-0.1 0.3-0.1 0.2-0.2 0-0.1-0.4 0.1-0.2 0.3 0 0.3-0.1z m-1.2-25.8l-0.2 0.3-0.1 0.3-0.1 0.2-0.3 0-0.1-0.6 0.1-0.1 0.1 0 0.2 0 0.4-0.1z m0 29.3l-0.2 0.2-0.2 0.4-0.2 0.2-0.2-0.6 0.1-0.1 0.3 0 0.4-0.1z m-14.2-3.6l-0.1 0.2-0.1 0.2-0.1 0.2-0.2 0.1-0.2-0.5 0.1-0.1 0.3 0 0.3-0.1z m15.7-14.5l-0.2 0.3 0 0.2-0.1 0.2-0.2 0-0.2-0.4 0.1-0.2 0.3 0 0.3-0.1z m-0.5-6.9l-0.1 0.2-0.1 0.3-0.1 0.1-0.2 0.1-0.2-0.5 0.2-0.1 0.2 0 0.3-0.1z m-3.2-11l-0.1 0.6-0.4 0.4 0.5-1z m-1.2-5l-0.2 1.1-0.3-0.3-0.2-0.2 0.1-0.2 0.3-0.2 0.3-0.2z m-1.5-5.9l0.3 1.6-0.4-0.3-0.1-0.4 0.2-0.9z m-3.7-12.3l-0.2 1.5-0.5-0.8 0.1-0.3 0.6-0.4z m-1.9-1.4l-0.2 0.2-0.1 0.3 0 0.1-0.2-0.1-0.2-0.1 0-0.5 0.2-0.1 0.2 0.2 0.3 0z" id="MV13" name="Raa">
  </path>
  <path d="M468.6 134.2l0.2 0.2 0.3 0.2 0.1 0.1-0.1 0.2-0.6-0.1-0.1-0.2 0.2-0.2 0-0.2z m-6.6-12l0.2 0.3 0.2 0.1 0.1 0.1 0.1 0-0.1 0.3-0.6-0.2-0.1-0.1 0.2-0.3 0-0.2z m41.7 43.2l-0.2 0.4-0.4 0 0.6-0.4z m0.2-3.3l-0.1 0-0.5 0.4-0.1 0 0.3-0.3 0.4-0.1z m-3.7-2.4l-0.2 0.3-0.4 0.1 0.6-0.4z m5.8-2.9l-0.2 0.2-0.1 0.3-0.1 0.2-0.2 0 0-0.3 0.1-0.2 0.2-0.1 0.3-0.1z m-6-1.8l-0.6 0.4 0.2-0.3 0.4-0.1z m6-2l-0.3 1.2-0.3-0.5 0.1-0.2 0.2-0.2 0.3-0.3z m-27.5-3.9l-0.6 0.4 0.2-0.2 0.4-0.2z m24.1-2l0.1 0.4 0.2 0.2 0 0.3-0.4 0.3-0.5-0.3 0.1-0.3 0.3-0.2 0.2-0.4z m-13.1-5.5l-0.3 0.3-0.4 0.1 0.7-0.4z m10.1-1l-0.3 0.7-0.4 0.3-0.1 0 0.1 0 0.7-1z m-15.4-1.6l-0.2 0.4-0.4 0 0.6-0.4z m13.2-2.2l0.1 0 0.1 0.3 0.1 0.1 0.1 0 0.2 0.2-0.1 0.5-0.7-0.2-0.1-0.2 0.2-0.3 0.1-0.4z m-8.4-0.6l-0.6 0.4 0.2-0.2 0.4-0.2z m7.3-2.1l-0.3 0.2-0.1 0.2-0.2 0.1-0.2-0.1 0.1-0.3 0.2-0.1 0.2 0 0.3 0z m-19.4-2.2l0.2 0.3 0.2 0.1 0.1 0.1-0.1 0.3-0.5-0.1-0.1-0.2 0.1-0.2 0.1-0.3z m-13.7-8.3l0.2 0.3 0.2 0.1 0.1 0 0.1 0.1-0.1 0.3-0.6-0.2-0.1-0.1 0.1-0.3 0.1-0.2z m17-0.1l-0.3 0.6-0.3 0.2-0.1 0.1 0.7-0.9z" id="MV24" name="Shaviyani">
  </path>
  <path d="M517 666l1.2 0.3-0.6 0.7-0.2 0-0.2-0.5-0.2-0.5z m4.1-1.7l0.1 0.5 0.2 0.4-0.1 0.3-0.2 0-0.7 0.1 0.1-0.5 0.2-0.3 0.2-0.2 0.2-0.3z m6.1-2.4l1.3 0-0.8 0.7-0.3 0-0.1-0.4-0.1-0.3z m7.6-1.9l-0.8 0.7-1.4 1.1 0-0.1-0.1 0 0-0.1-0.1 0 0.3-0.3 0.3-0.4 0.5-0.4 1.3-0.5z m2.1-3.2l0 0.1-0.4 0.9 0 0.2-0.1-0.4 0.1-0.3 0.2-0.2 0.2-0.3z m-33.1-2.6l-0.9 0.5 0-0.7 0.2 0 0.2 0.1 0.1 0 0.4 0.1z m35.1-4.6l-0.5 2.4-0.4 1.2-0.5 1-0.1 0 1.1-3.8 0.4-0.8z m-0.4-5.1l0 1.2-0.3-0.3 0.1-0.3 0.2-0.6z m-27.1-1.8l0.3 0.3 0.4 0.1 0 0.2-0.5 0.4-0.4-0.3 0.1-0.2 0.1-0.2 0-0.3z m26.4-4.1l-0.1 0.5-0.3 0 0.2-0.2 0.2-0.3z m1.4-6.5l-0.5 1.2-0.1-0.4 0.1-0.3 0.2-0.2 0.3-0.3z m1.4-3.2l2 0-0.2 0.2-0.4 0.3-1.4 0.9-0.7 0.4 0-0.5 0.1-0.4 0.6-0.9z" id="MV05" name="Laamu">
  </path>
  <path d="M479.6 622.3l-0.3 0.2-0.1 0-0.2 0.1 0-0.1 0.6-0.2z m7-2.3l-0.1 0.2 0 0.3-0.1 0.1-0.3-0.1-0.1-0.3 0.1-0.1 0.3 0 0.2-0.1z m1.4-1.5l0.1 0.2 0.5 0.7-0.7 0-0.1-0.2 0.1-0.4 0.1-0.3z m-19.5-8.8l-0.2 0.3-0.4-0.1 0.6-0.2z m-2.6-6.1l0.1 1.3-0.5-0.4 0-0.3 0.2-0.3 0.2-0.3z m48.6-2.4l0 0.1 0 0.3-0.2 0.2 0 0.1 0.2-0.7z m1.2-10.4l0.9 1.5 0.4 1.2 0.1 0.3 0.1 1.6-0.5 1.5-1-5.1 0-1z m-4.6-8l0.1 1.4-0.2-0.1-0.2-0.2 0-0.3 0.2-0.3 0.1-0.5z m-19.6-5.5l-0.2 0.3-0.4 0 0.6-0.3z" id="MV08" name="Thaa">
  </path>
  <path d="M462.9 562.3l0.3 0.1 0.3 0 0.1 0.2-0.2 0.4-0.4 0 0-0.2 0-0.2-0.1-0.3z m-3.2-1.4l0.1 1.2-0.7-0.3-0.1-0.3 0.4-0.3 0.3-0.3z m17.4-5.6l1.2-0.4 0 0.1-0.5 0.8-0.3 0-0.4-0.4 0-0.1z m-1.6-24.6l0.8 0.7-0.6 0.2-0.1-0.1 0-0.4-0.1-0.4z m-16.1-1.9l0 0.1-0.3 0.9-0.3 0.3 0-0.3 0.6-1z" id="MV17" name="Dhaalu">
  </path>
  <path d="M538.1 380.4l0.7 0.7-0.1 1-0.3 1.8-1.3 3.4-1.3 1.4-1.8 1.1-2.8-0.2-1.2-0.6-5.3-1.8 0.1-0.7 9.3 0.5 1-0.6 0.6-1.9 0.9-2.7 1.5-1.4z" id="MV12" name="Meemu">
  </path>
  <path d="M463.1 515.5l0.1 0.2 0.2 0.1 0.2 0.1-0.2 0.3-0.5 0.1-0.1-0.2 0.2-0.2 0.1-0.4z m8.8-3.1l0.1 0 0.1 0.3 0.2 0.1 0.1 0.2-0.4 0.3-0.4-0.2 0.1-0.2 0.1-0.2 0.1-0.3z m7.5-11.1l0.2 0.2 0 0.1 0.2 0 0.2 0.1-0.2 0.4-0.5 0-0.1-0.1 0.1-0.3 0.1-0.4z m-1.2-5.5l0.2 0.2 0.2 0.2 0.1 0.2-0.5 0.2-0.3-0.1 0-0.2 0.2-0.2 0.1-0.3z m-23.1-7l0.2 0.3 0.2 0 0.1 0.1-0.1 0.4-0.6 0 0-0.1 0.1-0.3 0.1-0.4z" id="MV14" name="Faafu">
  </path>
  <path d="M534.6 483.2l0.1 0.1 0.2 0.1 0 0.3-0.3-0.5z m26.9-10.5l0.6 0.5-0.2 0-0.3-0.2-0.1-0.3z m-28.1-5.8l0.3 0.5-0.3-0.1 0-0.4z" id="MV04" name="Vaavu">
  </path>
  <path d="M538.1 380.4l0.7 0.7-0.1 1-0.3 1.8-1.3 3.4-1.3 1.4-1.8 1.1-2.8-0.2-1.2-0.6-5.3-1.8 0.1-0.7 9.3 0.5 1-0.6 0.6-1.9 0.9-2.7 1.5-1.4z" id="MV12" name="Malé">
  </path>
  <path d="M520.2 205.8l0 0.1-1.4 2.6-0.1-0.1 0.3-0.8 1.2-1.8z m-1.2-6.7l0 0.4 0.2 0.3 0.1 0.2-0.5 0.4-0.4-0.4 0.1-0.3 0.3-0.2 0.2-0.4z m7.9-5.4l-1.9 1.2-0.1 0 0.7-0.9 0.5-0.3 0.4 0 0.4 0z m-2.5-8.2l0 0.3 0 0.3 0 0.2-0.3 0.1-0.3-0.4 0.1-0.2 0.3-0.1 0.2-0.2z m-4.5-6.9l0.6 1.5-1-0.5-0.2-0.4 0.6-0.6z" id="MV25" name="Noonu">
  </path>
  <path d="M438.6 127l-0.3 0.2-0.2 0.2-0.1 0.2-0.1-0.3 0.1-0.3 0.2-0.1 0.2 0.1 0.2 0z m31.5-17.3l-0.2 0.2-0.1 0.2-0.2 0.1-0.2-0.1 0.1-0.5 0.2-0.1 0.2 0.1 0.2 0.1z m-4.4-0.7l0.2 0.2 0.2 0.1 0.1 0.1-0.1 0.3-0.5-0.1-0.1-0.2 0.1-0.2 0.1-0.2z m12.3-2l-0.1 0.3 0.1 0.2 0.1 0.2-0.3 0.1-0.1-0.2-0.2-0.3 0.1-0.2 0.2 0 0.2-0.1z m1.7-4.7l-0.2 0.2-0.1 0.2-0.1 0.2-0.3-0.1 0.1-0.6 0.2-0.1 0.2 0.2 0.2 0z m2.9-5.4l-0.9 0.9 0.1-0.7 0.2-0.2 0.3 0 0.3 0z m4.2-4.9l-0.2 0.5-0.2 0.4-0.2 0.3-0.5 0.2 0.1-0.9 0.3-0.4 0.7-0.1z m-8-5.8l-0.1 0.3 0.1 0.2 0 0.2-0.2 0.1-0.1-0.1-0.3-0.3 0.1-0.2 0.3-0.1 0.2-0.1z m-13.8-0.5l-0.2 0.2-0.1 0.2-0.1 0.1-0.3-0.1 0.1-0.5 0.2-0.1 0.2 0.1 0.2 0.1z m28.1-2.7l0.5 0 0.2 0.1 0 0.3 0.1 0.4-1.6 3.6-0.9 1.6-1.5 1.2-0.1 0 0.5-1.8 2-3.2 0.8-2.2z" id="MV23" name="Haa Dhaalu">
  </path>
  <path d="M495.7 77.9l1.8 0.3-0.9 0.6-0.7 0.2-0.3-0.3 0.1-0.8z m-21.7-1.3l-0.2 0.2-0.2 0.2-0.1 0.2-0.2-0.1 0.1-0.6 0.2-0.1 0.2 0.1 0.2 0.1z m17.3-0.2l-0.2 0.2-0.1 0.2-0.2 0.1-0.2-0.1 0.1-0.5 0.2-0.1 0.2 0.1 0.2 0.1z m-19.6-1.1l0 0.3 0.1 0.2 0 0.2-0.3 0.1-0.3-0.5 0.1-0.2 0.2 0 0.2-0.1z m14.2 0l0 0.1-0.2 0.1-0.1 0.3-0.1 0.1-0.2-0.1-0.1 0 0.1-0.6 0.2 0 0.2 0.1 0.2 0z m-15.5-0.9l-0.2 0.1-0.2 0.2-0.1 0.2-0.2-0.1 0.1-0.6 0.2-0.1 0.2 0.2 0.2 0.1z m16.5-4.3l-0.1 0.3 0.1 0.3 0 0.2-0.2 0.1-0.3-0.5 0-0.2 0.3-0.1 0.2-0.1z m12.5-2.5l-0.1 1.6-0.5 1.6-0.6 0.7-0.3-0.9 0.1-1.1 0.4-1.1 0.5-0.8 0.5 0z m-33.5-4.6l0 0.1 0 0.3-0.2 0.3 0.2-0.7z m31.7-1.6l-0.4 2.3-0.1 0.1-0.1 0-0.1-0.1-0.1 0 0-1.1 0-0.8 0.3-0.4 0.5 0z m-35.7-2.3l0 0.4-0.1 0.2 0.1-0.6z m10.3-4.3l0.2 1.6-0.5-0.6 0-0.4 0.3-0.6z m-3.5-3.4l-0.2 0.7-0.1-0.4 0.3-0.3z m-4.3-4.2l-0.1 1.1-0.7-0.7 0.1-0.2 0.3-0.1 0.4-0.1z m-3.4-1.7l0.1 0.1 0 0.3-0.2 0.2 0.1-0.6z" id="MV07" name="Haa Alifu">
  </path>
 </g>
 <g id="points">
  <circle class="-0.2987810443564145|72.7382430339824" cx="444.1" cy="909.2" id="0">
  </circle>
  <circle class="2.819545808509135|73.2724227196756" cx="506.2" cy="546.3" id="1">
  </circle>
  <circle class="6.717454374591073|73.69976646823017" cx="555.9" cy="91.1" id="2">
  </circle>
 </g>
 <g id="label_points">
  <circle class="Addu" cx="486.7" cy="946" id="MV01">
  </circle>
  <circle class="Gnaviyani" cx="525.7" cy="908.7" id="MV29">
  </circle>
  <circle class="Gaafu Dhaalu" cx="486.2" cy="848.8" id="MV28">
  </circle>
  <circle class="Gaafu Alifu" cx="533.7" cy="829.6" id="MV27">
  </circle>
  <circle class="Alifu Dhaalu" cx="465.1" cy="461.3" id="MV00">
  </circle>
  <circle class="Kaafu" cx="529.4" cy="416" id="MV26">
  </circle>
  <circle class="Alifu Alifu" cx="468.8" cy="358.7" id="MV02">
  </circle>
  <circle class="Baa" cx="471.4" cy="304.9" id="MV20">
  </circle>
  <circle class="Lhaviyani" cx="548.2" cy="244.9" id="MV03">
  </circle>
  <circle class="Raa" cx="466.2" cy="179.3" id="MV13">
  </circle>
  <circle class="Shaviyani" cx="502.5" cy="147.9" id="MV24">
  </circle>
  <circle class="Laamu" cx="538.2" cy="651.9" id="MV05">
  </circle>
  <circle class="Thaa" cx="516.6" cy="593.9" id="MV08">
  </circle>
  <circle class="Dhaalu" cx="477.6" cy="555.5" id="MV17">
  </circle>
  <circle class="Meemu" cx="520.3" cy="550.7" id="MV12">
  </circle>
  <circle class="Faafu" cx="472" cy="512.9" id="MV14">
  </circle>
  <circle class="Vaavu" cx="561.7" cy="473" id="MV04">
  </circle>
  <circle class="Malé" cx="533.6" cy="388.4" id="MV12">
  </circle>
  <circle class="Noonu" cx="518.9" cy="199.9" id="MV25">
  </circle>
  <circle class="Haa Dhaalu" cx="491.8" cy="87.1" id="MV23">
  </circle>
  <circle class="Haa Alifu" cx="498.6" cy="69.4" id="MV07">
  </circle>
 </g>
</svg>