<?xml version="1.0"?>
    
<!--********* Copyright (c) 2024 Pareto Softare, LLC DBA Simplemaps.com ***************************************
************* Free for Commercial Use, full terms at  https://simplemaps.com/resources/svg-license ************
************* Attribution is appreciated! https://simplemaps.com *******************************************-->

<svg baseprofile="tiny" fill="#6f9c76" height="1000" stroke="#ffffff" stroke-linecap="round" stroke-linejoin="round" stroke-width=".5" version="1.2" viewbox="0 0 1000 1000" width="1000" xmlns="http://www.w3.org/2000/svg">
 <g id="features">
  <path d="M427.7 71.9l2.2 4.1 0.5 0.5 0.5 1-0.1 1.3-0.3 2 0 0.8 0.4 1.1 0.8 1.3 0.4 1.1 0.2 2.1 0.2 1.2 0.8 2-0.1 1.2-0.4 0.7-2 0.4-0.8 0.3-0.7 0.4-0.7 0.6-1.5 1.5-1.2 1-0.4 0.5-1 2.3-0.8 1.2-0.7 0.9-1.6 1.4-0.9 0.3-1.4 0.3-0.4 0.4-0.7 1-0.6 0.5-5.5 3.5-2.9 0.9-0.5 0.3-0.2 0.5-0.1 1.4 0.3 1 0.5 0.8 1.4 1 0.8 0.4 0.7 0.6 0.6 0.7 0.9 1.3 0.9 0.9 1.2 0.7 1.2 0.2 1.6 0.2 0.4 0.1 0.9 0.5 3.9 3.3 1.5 0.8 1.1 0.4 2.6 0 4.1-0.4 0.8 0.3 0.8 1.1 1.3 2.7 26.1 40.8-28.1 12.7-3.3 1.3 0-0.4-0.1-1.2-0.8-2.1 0-3-3.1-0.4-1.8-2.1-2.2-5.2-0.9-1-3.2-2.8-0.9-1.4-3-7.1-0.4-2.8 0.7-6.5-0.3-3.6-1.6-1.9-2.3-1.6-2.1-2.8-3-1-2-1.8-1.9-2-2.4-2-9.3-4.2-1.5-2.1 0-3 0.6-2.9 2.2-5.5 3.4-5.3 0.8-2.4-0.7-3.2-1.8-4.6-0.8-0.9-4.2-1.6-1.4-0.7-1.4-1.2-0.9-1.4-1.7-3.2-1.2-1.3-2.9-1.8-1.1-1.6-0.3-1.7 0.4-1.1 0.6-1 0.3-1.2-0.2-1.8-0.5-1.5-1.6-2.9-2.3-1.6-6.1-0.4-2.7-1.2-0.6 3-0.4 3.4-1 2.1-2.5-0.9-0.7-1.1-0.2-1.4-0.5-1.2-1.2-0.6-1.6 0.4-1.2 0.8-1.3 0.6-1.5-0.5-1.4-3.1 2-8.4 0-3.1-1-0.5-1.7-1.6-0.7-0.4-1.4 0-0.7 0.6-0.7 0.2-1.1-0.9-0.6-1.6-0.2-6.7 0.8-0.8 0.2 0 0.5 0 1-0.2 1.1-0.2 0.3 0 0.2-0.1 0.3-0.1 0.2-0.3 0.4-0.2 0.7-0.5 0.4-0.3 0.3-0.2 1.7 1 5.7 5.7 7 5.4 1.1 0.5 3.1 0.6 3.3 1.4 0.4 0.2 1.1-0.3 1.3-1.1-0.1 0.1 0.1 0.1 0.1 0.1 0.1 0 0.1 0.1 0.1 0 0.1 0.1 0.1 0 0.2 0.1 0.2 0 0.1 0 0.1 0 0-0.1 0.1 0.1 0.1 0 0.1 0 0.1 0 0.1 0.1 0.1 0 0 0.1 0.1 0.1 0.1 0.1 0.1 0 0.1 0 0-0.1 0-0.1 0-0.1 0-0.1 0.1-0.1 0.1-0.1 0-0.1 0.1 0 0-0.1 0-0.1 0.1 0.1 0-0.1 0.1 0 0-0.1 0.1 0.1 0 0.1 0.1 0 0.1-0.1 0-0.1 0.1 0 0.1 0 0.1-0.1 0-0.2 0.1-0.1 1.5 0.5 1.4 0.1 1-0.3 0.6-0.4 0 0.1 0.1 0.1 0 0.1 0.1 0 0.1-0.1 0-0.1 0.1 0 0-0.1 0.2 0 0.1 0 0 0.1 0 0.1 0.1 0.1 0.1 0.1 0 0.1 0.1 0 0.1 0 0.1 0 0-0.1 0.1-0.1 0.1 0.1 0.1 0 0.1 0.1 0.1-0.1 0.1 0 0.1 0 0.1-0.1 0.1-0.1-0.1-0.2 0.1-0.1 0.1 0 0.1-0.2 0.1 0 0.1 0 0.1 0 0.1 0 0.1 0 0.1 0 0-0.1-0.1 0-0.1 0 0-0.1 0-0.1-0.1-0.1 0.1 0 0.1-0.1 0.4 0.2 0.1 0 0.9 0.3 6.5 4.6 2.1 2 1.9 4.3 1.4 2.2 1.8 1.2 2.2 0.7 4.7 0.3 2.3-0.5 0.1 0.1 0.2 0 0.2 0 0 0.1 0.1 0.1 0.1 0.1 0.1 0.1 0.1-0.1 0.1 0.1 0.2-0.1 0.1-0.1 0.1 0 0.2 0 0.1-0.1 0.1-0.1 0-0.1 0.1 0 0.1-0.1 0.1 0 0.1 0.1 0.1 0 0.1 0 0.1-0.1 0-0.1 0-0.1 0.2-0.1 0.2 0 0.1-0.2 0.1 0 0.1 0 0.1-0.1 0.2 0 0-0.1 0.1-0.2 0.1-0.1 0.2 0.1 0.2 0 0-0.1 0.1-0.1 0-0.1 0.1 0 0.3-0.1 0.1-0.1 0-0.3 0.1-0.1 0.1-0.1 0-0.2 0-0.1 1.8-0.8 3.9 0.4 3.4 1.1 3 0.6z" id="MWCT" name="Chitipa">
  </path>
  <path d="M461.8 169.3l16.1 13.6 2.5 1.5 0.7 0 1.4-0.5 1.1-0.3 1.1 0 2.5 0.9 1.5 0.2 0.1 0 0.4 1 1.3 1.8 1 1.9-0.1 1.4-0.7 4 0 1.8 1.6 6.3 1.9 22.3-0.1 4-4.3 3.3-15.7 9.3-1.6-3-1.4-2.1-1.6-1.9-7.4-5.9-0.8-0.2-0.4 0.6-0.2 0.8-0.8 5-1 0.7-1.6 0.2-10.8-1.5-3.5 0.4-4.1 1.1-0.6 0.4-0.2 0.7 0.2 0.7 0.4 0.7 0.3 0.5 0.1 0.5-0.1 0.7-0.3 0.8-0.7 0.8-0.8 0.6-0.9 0.3-0.9 0.1-1.1 0-1-0.7-0.6-0.8-0.9-1.9-0.7-0.6-1-0.1-4.4 0.6-1.2 0-1.4-0.2-1.5-0.9-1.2-0.9-1.2-1.1-1.1-0.9-1.2-0.3-1.5 0.3-0.9 0.6-0.6 0.8-1.4 2.5-0.7 0.8-1.7 1.8-2 1.7-2.3 1.7-1 0.3-0.9-0.3-0.4-1.1 0.1-1 0.4-0.9 0.4-0.9 0.2-1.1 0-1.2-0.3-2-0.5-2-0.6-0.7-0.9-0.4-3.9-0.2-4.2-0.7-5.2-2.1-2.2-0.9-0.4-3.5-0.8-3.7-1.7-1.4-1.6 0.2-1.4 0-0.9-0.6 0.1-1.7 1-2 1.1-0.4 1.2 0.3 1.4 0.1 1.7-1.1 2.1-3.2 1.4-1.2 1.5-0.6 2.9-0.5 1.6-0.7 1.6-0.2 3.7 0.7 1.8 0.1 1.5-0.7 2.1-2.1 1.7-0.3 2.3-1.4 1.3-2 1.8-4.7 5.6-6.3 1.5-1 1.5-0.6 4.4-3.3 1.8-1.6 1.9-2.8-0.1-0.5 3.3-1.3 28.1-12.7z" id="MWRU" name="Rumphi">
  </path>
  <path d="M569.6 278.9l0.5 0.9 2.1 1.8-2.2-1.8-0.4-0.9z m-95.5-37.1l15.7-9.3 4.3-3.3-0.3 10.7 0.7 3.8 1.6 2.2-3.1 5.6-0.8 3 1.2 3 0.7 1.1 0 1.2-0.3 2.9 0.3 1.8 0.8 1 1.1 0.7 1 1.2 2.3 6.6 0.7 14.5 2.3 8.3-0.1 3.4 0.6 1.2 0.7 1.1 0.6 1.7 0.6 3.1-0.1 3.8-1 2.3-4.6 4.5-1.3 0.7-0.7 0.7-0.5 0.7-0.4 1.5-0.4 0.6-1.2 1-2.7 1.5-1.1 1.1-1.3 2.6-0.9 3.5 0 3.4 1.4 2.4-13 10-1.4 1.9-0.7 2-0.6 4.5-1.4 5.8-0.4 3.7-1.3 5.7 0 1.9-0.2 0-8.4-2-4.6-2-1.5-1-2.5-2.2-1.1-0.4-1 0-2.1 0.5-6.8 0-1-0.2-0.7-0.5-0.6-0.6-0.6-0.9-0.5-0.6-0.7-0.4-1.9-0.7-0.9-0.5-0.7-0.6-0.1-1 0.3-1.1 1.1-1.9 1.1-1.3 1.1-0.8 1.2-0.4 1.2-0.1 1.3-0.3 1.1-0.6 0.9-0.9 2.3-3.1 0.4-1.1-0.3-1.4-0.4-1.1-0.5-1.5-0.1-1.6 0-2.3-0.2-1.8-0.7-2.7 0.1-1.1 0.3-1 1-1.6 0.5-2.4 0.7-2.1 0-1.9-0.4-1-1.6-1.4-0.5-0.7-0.3-0.8-0.1-0.7-0.3-0.6-0.4-0.3-1.3-1.2-0.7-0.9-0.5-1.2-0.2-1.2-0.1-1.2 0-1.4 0.3-2.4 1.3-6.4 0.5-1.3 0.9-1.2 1.6-2 1.3-1 1.1-0.7 0.7-0.3 0.7-0.4 2.4-2.4 0.9-0.5 0.9-0.3 0.9 0 0.6 0.1 4.5 1.3 0.8 0.1 0.9-0.1 1.1-0.3 1-0.6 0.9-1.2 0.9-1.6 1.3-3.2 1.1-1.4 1.2-0.8 1.7-0.1 0.6 0.1 0.7 0.1 1.2 0.6 0.5 0.2 0.4-0.2 1.6-0.8 2.1-0.5 1-0.5 0.5-1 0.1-2-1.4-4.3-1.6-1.8-0.4-0.7-2.7-10.5-0.6-0.9-0.8-0.6-1.7-0.9-0.3-1.4 0.2-2.1 2.8-9.3 1.2-8.3z" id="MWNB" name="Nkhata Bay">
  </path>
  <path d="M548.7 357l0.9-3.2 1.2-1 3.2 1.6-1.9 1 0 1.3 0.4 1.4-0.5 1.5-1.2 0.6-1.3-0.4-1.1-0.8-0.7-0.7 1-1.3z" id="MWLK" name="Likoma">
  </path>
  <path d="M427.7 71.9l2.2 4.1 0.5 0.5 0.5 1-0.1 1.3-0.3 2 0 0.8 0.4 1.1 0.8 1.3 0.4 1.1 0.2 2.1 0.2 1.2 0.8 2-0.1 1.2-0.4 0.7-2 0.4-0.8 0.3-0.7 0.4-0.7 0.6-1.5 1.5-1.2 1-0.4 0.5-1 2.3-0.8 1.2-0.7 0.9-1.6 1.4-0.9 0.3-1.4 0.3-0.4 0.4-0.7 1-0.6 0.5-5.5 3.5-2.9 0.9-0.5 0.3-0.2 0.5-0.1 1.4 0.3 1 0.5 0.8 1.4 1 0.8 0.4 0.7 0.6 0.6 0.7 0.9 1.3 0.9 0.9 1.2 0.7 1.2 0.2 1.6 0.2 0.4 0.1 0.9 0.5 3.9 3.3 1.5 0.8 1.1 0.4 2.6 0 4.1-0.4 0.8 0.3 0.8 1.1 1.3 2.7 26.1 40.8-28.1 12.7-3.3 1.3 0-0.4-0.1-1.2-0.8-2.1 0-3-3.1-0.4-1.8-2.1-2.2-5.2-0.9-1-3.2-2.8-0.9-1.4-3-7.1-0.4-2.8 0.7-6.5-0.3-3.6-1.6-1.9-2.3-1.6-2.1-2.8-3-1-2-1.8-1.9-2-2.4-2-9.3-4.2-1.5-2.1 0-3 0.6-2.9 2.2-5.5 3.4-5.3 0.8-2.4-0.7-3.2-1.8-4.6-0.8-0.9-4.2-1.6-1.4-0.7-1.4-1.2-0.9-1.4-1.7-3.2-1.2-1.3-2.9-1.8-1.1-1.6-0.3-1.7 0.4-1.1 0.6-1 0.3-1.2-0.2-1.8-0.5-1.5-1.6-2.9-2.3-1.6-6.1-0.4-2.7-1.2-0.6 3-0.4 3.4-1 2.1-2.5-0.9-0.7-1.1-0.2-1.4-0.5-1.2-1.2-0.6-1.6 0.4-1.2 0.8-1.3 0.6-1.5-0.5-1.4-3.1 2-8.4 0-3.1-1-0.5-1.7-1.6-0.7-0.4-1.4 0-0.7 0.6-0.7 0.2-1.1-0.9-0.6-1.6-0.2-6.7 0.8-0.8 0.2 0 0.5 0 1-0.2 1.1-0.2 0.3 0 0.2-0.1 0.3-0.1 0.2-0.3 0.4-0.2 0.7-0.5 0.4-0.3 0.3-0.2 1.7 1 5.7 5.7 7 5.4 1.1 0.5 3.1 0.6 3.3 1.4 0.4 0.2 1.1-0.3 1.3-1.1-0.1 0.1 0.1 0.1 0.1 0.1 0.1 0 0.1 0.1 0.1 0 0.1 0.1 0.1 0 0.2 0.1 0.2 0 0.1 0 0.1 0 0-0.1 0.1 0.1 0.1 0 0.1 0 0.1 0 0.1 0.1 0.1 0 0 0.1 0.1 0.1 0.1 0.1 0.1 0 0.1 0 0-0.1 0-0.1 0-0.1 0-0.1 0.1-0.1 0.1-0.1 0-0.1 0.1 0 0-0.1 0-0.1 0.1 0.1 0-0.1 0.1 0 0-0.1 0.1 0.1 0 0.1 0.1 0 0.1-0.1 0-0.1 0.1 0 0.1 0 0.1-0.1 0-0.2 0.1-0.1 1.5 0.5 1.4 0.1 1-0.3 0.6-0.4 0 0.1 0.1 0.1 0 0.1 0.1 0 0.1-0.1 0-0.1 0.1 0 0-0.1 0.2 0 0.1 0 0 0.1 0 0.1 0.1 0.1 0.1 0.1 0 0.1 0.1 0 0.1 0 0.1 0 0-0.1 0.1-0.1 0.1 0.1 0.1 0 0.1 0.1 0.1-0.1 0.1 0 0.1 0 0.1-0.1 0.1-0.1-0.1-0.2 0.1-0.1 0.1 0 0.1-0.2 0.1 0 0.1 0 0.1 0 0.1 0 0.1 0 0.1 0 0-0.1-0.1 0-0.1 0 0-0.1 0-0.1-0.1-0.1 0.1 0 0.1-0.1 0.4 0.2 0.1 0 0.9 0.3 6.5 4.6 2.1 2 1.9 4.3 1.4 2.2 1.8 1.2 2.2 0.7 4.7 0.3 2.3-0.5 0.1 0.1 0.2 0 0.2 0 0 0.1 0.1 0.1 0.1 0.1 0.1 0.1 0.1-0.1 0.1 0.1 0.2-0.1 0.1-0.1 0.1 0 0.2 0 0.1-0.1 0.1-0.1 0-0.1 0.1 0 0.1-0.1 0.1 0 0.1 0.1 0.1 0 0.1 0 0.1-0.1 0-0.1 0-0.1 0.2-0.1 0.2 0 0.1-0.2 0.1 0 0.1 0 0.1-0.1 0.2 0 0-0.1 0.1-0.2 0.1-0.1 0.2 0.1 0.2 0 0-0.1 0.1-0.1 0-0.1 0.1 0 0.3-0.1 0.1-0.1 0-0.3 0.1-0.1 0.1-0.1 0-0.2 0-0.1 1.8-0.8 3.9 0.4 3.4 1.1 3 0.6z" id="MWCT" name="Chitipa">
  </path>
  <path d="M386.8 230l2.2 0.9 5.2 2.1 4.2 0.7 3.9 0.2 0.9 0.4 0.6 0.7 0.5 2 0.3 2 0 1.2-0.2 1.1-0.4 0.9-0.4 0.9-0.1 1 0.4 1.1 0.9 0.3 1-0.3 2.3-1.7 2-1.7 1.7-1.8 0.7-0.8 1.4-2.5 0.6-0.8 0.9-0.6 1.5-0.3 1.2 0.3 1.1 0.9 1.2 1.1 1.2 0.9 1.5 0.9 1.4 0.2 1.2 0 4.4-0.6 1 0.1 0.7 0.6 0.9 1.9 0.6 0.8 1 0.7 1.1 0 0.9-0.1 0.9-0.3 0.8-0.6 0.7-0.8 0.3-0.8 0.1-0.7-0.1-0.5-0.3-0.5-0.4-0.7-0.2-0.7 0.2-0.7 0.6-0.4 4.1-1.1 3.5-0.4 10.8 1.5 1.6-0.2 1-0.7 0.8-5 0.2-0.8 0.4-0.6 0.8 0.2 7.4 5.9 1.6 1.9 1.4 2.1 1.6 3-1.2 8.3-2.8 9.3-0.2 2.1 0.3 1.4 1.7 0.9 0.8 0.6 0.6 0.9 2.7 10.5 0.4 0.7 1.6 1.8 1.4 4.3-0.1 2-0.5 1-1 0.5-2.1 0.5-1.6 0.8-0.4 0.2-0.5-0.2-1.2-0.6-0.7-0.1-0.6-0.1-1.7 0.1-1.2 0.8-1.1 1.4-1.3 3.2-0.9 1.6-0.9 1.2-1 0.6-1.1 0.3-0.9 0.1-0.8-0.1-4.5-1.3-0.6-0.1-0.9 0-0.9 0.3-0.9 0.5-2.4 2.4-0.7 0.4-0.7 0.3-1.1 0.7-1.3 1-1.6 2-0.9 1.2-0.5 1.3-1.3 6.4-0.3 2.4 0 1.4 0.1 1.2 0.2 1.2 0.5 1.2 0.7 0.9 1.3 1.2 0.4 0.3 0.3 0.6 0.1 0.7 0.3 0.8 0.5 0.7 1.6 1.4 0.4 1 0 1.9-0.7 2.1-0.5 2.4-1 1.6-0.3 1-0.1 1.1 0.7 2.7 0.2 1.8 0 2.3 0.1 1.6 0.5 1.5 0.4 1.1 0.3 1.4-0.4 1.1-2.3 3.1-0.9 0.9-1.1 0.6-1.3 0.3-1.2 0.1-1.2 0.4-1.1 0.8-1.1 1.3-1.1 1.9-0.3 1.1 0.1 1 0.7 0.6 0.9 0.5 1.9 0.7 0.7 0.4 0.5 0.6 0.6 0.9 0.6 0.6 0.7 0.5 1 0.2 6.8 0-7.4 6.2-2 3.2 0 1 0.5 3.3 0.4 1.3 1 1 1.3 0.5 3.6 0.3 1.6 1 1.5 1.5 1.7 3.6 1.2 1.7 2.1 2.4 0.4 1.8 0.2 2.6 0.6 1.7 0.7 1.4 0.9 1.2 1 1.1 1.1 0.6 3-0.1 1.5 0.2 4.2 2.1 1.3 0.5 1.4 0.3 1.4 0.2 1.4-0.1 2.7-0.7 1 0 1.2 0.6 0.3 0.5 0.1 0.4-0.1 0.3-0.2 0.3-1.8 1.6-0.9 1.2-0.9 2.6-0.3 0.9-0.6 0.6-0.6 0.3-2.2 0.3-2.4 0.6-1 0.4-0.9 0.5-1.9 1.5-1.2 0.8-3.7 1.3-3.4 0.5-0.9 0.4-0.8 0.6-0.7 0.6-0.6 0.7-3.1 5.3-2.6 3.5-0.9 0.3-1 0.5-0.4 0.4-0.4 0.2-0.5 0-0.7-0.4-2.5-2.2-1-0.6-0.8-0.2-0.6 0.1-1.3 0.1-0.5 0.2-0.5 0.3-0.4 0.3-0.9 0.7-0.5 0.3-1.2 0.4-0.6 0.1-0.7 0-1.6-0.1-1.5-0.2-1.3-0.4-0.5-0.3-0.6-0.3-0.6-0.6-1.3-1.4-2-3-0.7-0.8-0.5-0.3-0.6-0.3-0.8-0.1-0.7 0-1.4 0.1-0.5-0.5-0.4-1.3 0.1-3.4 0.3-1.4 0.5-0.9 0.4-0.4 0.4-0.4 0.2-0.5 0-0.9-0.3-0.9-0.8-1.5-1.4-1.8-0.3-0.8-0.2-1.3-0.1-6.3 0.3-1.4 0.2-0.6 0.3-0.6 0.4-0.4 1.1-1.3 0.3-0.5 0.3-0.6 0.2-0.6 0.1-0.8-0.6-0.8-0.8-0.6-5.1-1.1-1.7-0.4 0.5-0.3 1-1.9-0.2-2.3-1.3-0.5-1.9 0-4.4-1.5-8.4 2.5-4-1.4-2.3-3.5-2-8.1-1.4-3.8-1.3-1.6-3.2-3.1-0.9-1.9-0.1-3.9 0.4-3.9 4.5-10.6 1-6 0.7-1.8 0.4-1.9-0.5-1.6-1.3-2.6 0-1.8 1.5-4.4 0.4-4.3-1-14.9-0.3-4-0.7-1.9-1.5-1.8-1.9-0.3-2 0.3-1.9 0-1.9-0.8-0.4-0.9 1.7-3.6 0.8-2.2 0.1-1.4-0.5-9.9 1-1.6 2.9 2.4 1-1.6 0-1.5-0.2-1.5 0.2-1.7 0.5-0.6 1.8-0.7 0.6-0.6 0.1-0.7-0.4-1.3 0.2-0.8 8-12.3 1.6-3.3 1-3.5-3.7-6.4-2.5-2.6-2.1-2.9-1.7-3.2-1.1-3.5-0.3-3.4z" id="MWMZ" name="Mzimba">
  </path>
  <path d="M412.2 392.9l1.7 0.4 5.1 1.1 0.8 0.6 0.6 0.8-0.1 0.8-0.2 0.6-0.3 0.6-0.3 0.5-1.1 1.3-0.4 0.4-0.3 0.6-0.2 0.6-0.3 1.4 0.1 6.3 0.2 1.3 0.3 0.8 1.4 1.8 0.8 1.5 0.3 0.9 0 0.9-0.2 0.5-0.4 0.4-0.4 0.4-0.5 0.9-0.3 1.4-0.1 3.4 0.4 1.3 0.5 0.5 1.4-0.1 0.7 0 0.8 0.1 0.6 0.3 0.5 0.3 0.7 0.8 2 3 1.3 1.4 0.6 0.6 0.6 0.3 0.5 0.3 1.3 0.4 1.5 0.2 1.6 0.1 0.7 0 0.6-0.1 1.2-0.4 0.5-0.3 0.9-0.7 0.4-0.3 0.5-0.3 0.5-0.2 1.3-0.1 0.6-0.1 0.8 0.2 1 0.6 2.5 2.2 0.7 0.4 0.5 0 0.4-0.2 0.4-0.4 1-0.5 0.9-0.3-1.5 9.2-0.1 3.7 0.3 1.1 0.5 1.3 0.6 0.6 0.8 0.4 0.9 0 6.5-0.8 0.9 0 1 0.2 1.1 0.3 1.4 0.9 1 1.3 1.2 2 3.8 4.4 0.5 1.5 0.2 0.7-0.2 0.3-1.2 0.6-4.5 3.7-0.3 0.4-0.5 0.8-0.8 2.2-0.3 0.4-1.5 1.4-8.3 4.1-0.9 0.8-1.1 1.1-0.2 0.9-0.6 1.3-0.7 0.6-1.1 0.7-1.7 0.7-1.5 1.2-0.7 0.8-1.4 2.7-2.3 2.6-1.3 1.1-1.1 0.6-0.8 0.4-0.4 0.6-0.3 0.8-0.4 0.5-0.5 0.3-2 0.3-1.9 0.7-1.7 1-1.8 0.8-1.7 0.2-1.8 1.8-1 2.5-0.4 0.9-0.5 0.6-1 0.7-1.7 0.9-0.5 0.4-1.2 2.4-0.9 0.7-0.9 1.2-0.7 0.5-0.7 0.2-0.7 0-0.7-0.1-0.5-0.2-0.4-0.1-0.4-0.3-0.8-0.7-0.4-0.4-0.5-0.4-0.7-0.2-1 0-0.5 0.4-0.4 0.5 0 0.7 0.2 0.5 0.3 0.5 0.6 1 0.3 0.5 0.2 0.6 0 0.7-0.1 0.6-0.9 2.7-0.4 0.7-1.4 2.3-0.8 2.7-2.1 4-1 1.3-0.6 0.3-1.1 0.3-0.7 0.5-1 2.4-0.2 0.9 0.2 0.6 0.3 0.5 0.3 0.8 0 1.1-0.2 1.9-0.4 1-0.4 0.7-3.3 2.8-2.1 2.3-4.6-5.2-3.1-1.9-1.2-1.1-1.6-1.9-4-3.8-1.4-1.8-1-1.9-1.3-3.3-1.8-4-0.6-1.4-0.1-1.5 0.5-2.4 0-1.2-0.6-1.7-0.6-0.8-0.7-0.3-25.1 1.5-1.6 0.2 1.6-6.6 2.1-4.6 2.8-3.6 3.5-1 0.6-1.6-0.4-1.4-1.8-2.7-0.9-2-0.5-1.9-0.1-2.1 1.8-12.9 3.1-7.2 0.5-3.2-0.9-2.9-2.8-2.6-3.1-1.9-0.7-1.3-0.7-8.6 0.4-2 1.5-3.2 4.1-6.1 3.5-7 1.2-1.6 1.6-1.5 1-0.4 0.8 0.2 0.6 0.7 0.5 0.9 0.8 0.7 1-0.4 1-0.9 0.9-0.5 1.8-0.5 0.9-0.1 1.1 0.3 0.8 0.8 1.3 2.6 0.5 0.6 1.2-0.1 0.5-0.6 0.4-0.8 0.7-0.6 0.5-0.4 0.5-0.5 0.7-0.4 1.2-0.4 1.6-1.1 1.9-4 1.3-1.5 0.9-0.4 3-0.5 1.5 0.1 1.1 0.6 0.9 0.6 0.9 0.3 2.6-0.6 2.6-1.6 2.3-2.4 1.8-2.7 1.3-1.2 3.4-1.4 1.1-1.4 0-2.9 0.6-0.8 1.7-0.3 0.8-2 3-1.8z" id="MWKS" name="Kasungu">
  </path>
  <path d="M342.8 507.2l1.6-0.2 25.1-1.5 0.7 0.3 0.6 0.8 0.6 1.7 0 1.2-0.5 2.4 0.1 1.5 0.6 1.4 1.8 4 1.3 3.3 1 1.9 1.4 1.8 4 3.8 1.6 1.9 1.2 1.1 3.1 1.9 4.6 5.2-0.7 1.7-0.8 1-0.4 0.4-0.7 1-0.5 1.1-0.4 1.4-0.2 0.5-1.6 1.8-0.3 0.5-0.2 0.5 0 0.7 0.3 0.9 0.1 0.9-0.2 1.3-0.4 0.8-0.4 0.7-0.7 0.9-0.2 0.6-0.2 0.8-0.2 3-0.2 1-0.3 0.7-0.8 0.9-0.2 0.8 0.2 1 1.1 2.3 1 1.3 1 1 0.9 0.7 0.7 0.9 0.5 0.8 1.7 4.4 2.3 3.5 0.5 1.2 0.2 1.4-0.2 1.6-0.4 0.9-0.1 0.8 0 1.1 0.8 3.6-0.2 1.8-0.9 2.7-0.2 1.4 0.2 1.6 1.8 4.8 1.3 5.9-0.3 2.1-0.3-0.6-0.8-0.7-1-0.4-1.7-1.1-0.9-1.1-2.9-4.7-0.5-2.1 0.6-5.9-1.2-3.3-2.6-2-6.3-3.5-1.9-2.4-3.6-6.7-1.6-1.4-1.1 0.7-1.1 3-1.1 1-3.9 1.1-1.6 0.9-1.6 1.7-3.5 5.9-2.1 0.5-2.7-3.5-0.6-1.8 0.4-5.9 0.2-0.7 0-0.6-0.7-1-0.9-0.5-2 0.2-1-0.8-0.7-1.9-0.2-1.7-0.5-1.8-5.7-7-1.6-1.5-3.5-1.3-4.2-0.9-3.3-1.4-0.7-3.2 1.3-1.3 4.1-2 1-1.3-0.6-1.4-4.3-6.1-3.1-1.4-4.1 0-3.7-0.8-1.3-3.8 0.5-2.4 1.1-0.9 1.6 0.1 2.2 0.8 1.4-0.3 3.1-2.6 1.5-1 4.2-0.6 1.5-1.1 0.5-2.6-0.1-2.1 0.3-1.9 0.9-1.3 2.1-0.3 3.3-1.7 2-4.5 1.5-6.3z" id="MWMC" name="Mchinji">
  </path>
  <path d="M449.7 366l2.1-0.5 1 0 1.1 0.4 2.5 2.2 1.5 1 4.6 2 8.4 2 0.2 0 0 0.1 1 7.6 2.1 5.6 0.2 1.1 0 1.3 0.4 1.1 2 0.8 0.6 0.9 0.2 1.1-0.2 0.9 2.6 0.6 2.2-0.3 2.3 0 2.6 1.7 3.6 10.4 0.4 2.6-0.1 1.1-0.7 1.1-1.1 1.2-0.5 1.1-0.3 2.9 0 2.8 0.5 3 1.8 5.4 2.4 4.3 1.7 2 4.3 1.9 0.1 2.5-1.5 5.7 0.7 2.5 3.5 3.1 1.2 2 0.1 1.5-0.7 2.8 0.3 1.4 0.8 0.8 0.9-0.7 0.6-1.4 0.3-1.1 0.3 1.6-0.8 3.5-0.2 2 1.3 5.9 0.2 19 1.1 8.1-0.5 3.3-2.5 3.5-1.4 3.3 0.4 3.9 1.4 3.8 0.6 1-0.3 0-9.8 5.6-4.7 2.1-2.8 0.5-1.4 0.2-3.4 1.6-1-15.5-2.4-9 0.2-1.8 0.4-1.5 0.5-1.1 0.1-0.9-1-6.2-0.3-1.2-0.6-0.9-1.3-0.2-1.1 0-0.9-0.2-0.7-0.5-0.4-1.1-0.1-1.2 0.2-1 0.3-1 0.2-0.9-0.3-0.6-0.5-0.1-4.8 1.5-0.5 0.3-0.2 0.5-0.8 2.9-0.4 1-0.5 0.6-0.8 0.7-0.9 0.2-0.9-0.3-1-0.7-0.8-0.8-0.6-0.7 0.1-2-0.1-1.1-1.3-2.3-0.6-0.9-0.6-0.6-0.8-2.3-0.1-5.8 1.5-1.4 0.3-0.4 0.8-2.2 0.5-0.8 0.3-0.4 4.5-3.7 1.2-0.6 0.2-0.3-0.2-0.7-0.5-1.5-3.8-4.4-1.2-2-1-1.3-1.4-0.9-1.1-0.3-1-0.2-0.9 0-6.5 0.8-0.9 0-0.8-0.4-0.6-0.6-0.5-1.3-0.3-1.1 0.1-3.7 1.5-9.2 2.6-3.5 3.1-5.3 0.6-0.7 0.7-0.6 0.8-0.6 0.9-0.4 3.4-0.5 3.7-1.3 1.2-0.8 1.9-1.5 0.9-0.5 1-0.4 2.4-0.6 2.2-0.3 0.6-0.3 0.6-0.6 0.3-0.9 0.9-2.6 0.9-1.2 1.8-1.6 0.2-0.3 0.1-0.3-0.1-0.4-0.3-0.5-1.2-0.6-1 0-2.7 0.7-1.4 0.1-1.4-0.2-1.4-0.3-1.3-0.5-4.2-2.1-1.5-0.2-3 0.1-1.1-0.6-1-1.1-0.9-1.2-0.7-1.4-0.6-1.7-0.2-2.6-0.4-1.8-2.1-2.4-1.2-1.7-1.7-3.6-1.5-1.5-1.6-1-3.6-0.3-1.3-0.5-1-1-0.4-1.3-0.5-3.3 0-1 2-3.2 7.4-6.2z" id="MWNK" name="Nkhotakota">
  </path>
  <path d="M566.2 526.5l-1.1 4.8-0.2-2.3 0.2-1.8 0.3-1 0.7 0.3 0.1 0z m-83.3-3.1l3.4-1.6 1.4-0.2 2.8-0.5 4.7-2.1 9.8-5.6 0.3 0 5.6 9.3 2.4 5.4 2.2 2.6 1 1.5 1.1 1.1 1.6 0.5 2.1-0.4 3.5-1.3 1.8 0.2 1.5 1 0.9 1.4 1.5 3.3 1.5 1.7 3.4 3 0.7 1.7 0.8 1.2 1.8 1.3 1.3 1.6-0.5 1.9-1.3 2.1 0 1.7 0.4 1.6-0.2 2.2-0.6 0.9-1.9 1.5-0.7 0.9-0.1 1.1 0.8 2 0.2 0.9-2 5.5-0.8 1.3-2.9 3.2-1.9 2.5-0.5 3 1.9 10.2 0.3 0.9-0.6 0.3-0.5 0.3-0.6 0.4-0.8 0.6-2.4 2.6-0.6 0.5-0.5 0.2-1.3-0.9-1.9-1.9-3.6-5.4-3.8-6.9-1.6-1.9-7-6.9-5-7.1-1.2-0.4-1.4 0-0.9 0.2-0.9 0.3-4 2-1.1 0.4-1-0.1-0.6-0.5-0.2-0.8 0.1-0.7 0.5-0.9 0.7-0.9 1.5-1 3.2-1.3 1.3-1.3 0.2-3.3 0.5-0.5 0.1-0.1 0.2-0.2 0.5-0.3 0.7-0.3 1.1-0.2 1.7-0.6 0.5-0.3 0.6-0.4 0.3-0.5 0.2-0.6 0.1-0.8-0.1-0.4-0.5-0.6-1-0.5-0.7-0.7-0.3-1 0-0.7 0.1-1.1 0-1.3-0.3-1.1-0.8-0.6-0.7-0.1-0.7 0.3-4.1 2.2-1.1 0.2-1 0-0.8-0.2-1-0.6-0.9-0.8-5.2-5.1-0.7-0.6-1.4-0.8-0.1-0.4 0.4-0.8 0.6-1 0.3-1.8 0-1.4-1.8-8.6 2-1.8z" id="MWSA" name="Salima">
  </path>
  <path d="M566.2 526.5l3.4 2.2 11.7 10.7 10 9.2 9.9 11.9 12.3 14.7 10.4 12.5 9.7 11.7 7.7 14.8 9.9 12.6 11.9 15.2 4.2 5.2-0.1 0.1-3.1 2.5-2.6 1-3.4 0.1-2.8 0.4-5.6 1.3-2.5 1-1.6 1-1.7 1.9-0.3 0.6 0 0.8 0.5 4-0.1 1.6-0.5 1.6-1.2 1.6-1.2 0.6-1.2 0.5-1.7 0.9-3 3.2-1.6 0.8-1.8 0.4-1.7-0.4-5.8-2-1.3-0.2-0.8-0.4-0.7-0.6-1.2-2-1.3-1.4-1.9-1.7-0.7-0.5-0.6-0.3-0.5-0.2-0.8-0.1-0.3 0.2-0.3 0.5-0.2 1.2-0.2 0.5-0.6 0.9-0.4 1.1 0 0.7 0 0.6 0.1 0.6 0.5 1.5 0.1 0.3-0.2 0.9-31.3 0-1.1 0-3.9-2.9-3.4-1.6-1.5-1.4-13.3-17.8-3.1-9.4-1.7-8.3-0.7-11.9 0-4.9 0-0.2 1-0.3 1.7-0.3 2-0.8 1.8-1.2 0.8-1.3 0.1-1 0.5-0.6 1.3-0.8 0.2-1-0.7-1.2-0.9-1.2-0.5-1.1 1.1-3.1 2.6-2.9 2-2.8-0.7-2.8-1.8-3.3 0.4-3.1 2.2-1.5 3.4 1 1.5 1.2 2.5 2.7 1.6 0.9-1 4.1 0.9 4.8 2.6 3.3 3.7-0.9 0.5 0.6 1.4 1.2 0.5 0.6 2.6-0.4 2.8 2.5 2.2 3.8 0.9 3.4 0.7 1.1 2.8 3.4 0.4 0.7 2 0.7 1.3 1.6 2.2 3.4 5.5 4.8 0.2 0.5 0.3 0.7 0.4 0.8 0.6 0.4 1-0.1 1.7-1.2 0.9-0.3 0.8-0.8 0.9-2 0.6-2 0-1.2-1.8-2.8-4.7-9.6-1.2-3.6-0.4-4.2-3.6-5.6-1-2 0.1-1.9 0.4-2 0.1-1.8-1.3-3.1-4.1-6.4-0.9-3.3-0.2-4.1-0.4-2.2-0.8-2.7-0.1-2-0.4-0.7-1.4-1.7-1.3-1.9-1.4-4.1-0.6-3.3-1.6-2.2-4.3-0.9-11.8 0.4-1.7-0.2-2.1-1-2.6-2.7-0.6-3.1 0.8-7.5-0.5-5.4 1.1-4.8z" id="MWMG" name="Mangochi">
  </path>
  <path d="M667.3 647.2l4.1 5.3 5.6 5.7 1.3 1.7 0.6 2 1.2 24.7 0.8 1 1.4 0.2 2.5 0-4.3 10.1-3.1 7.5-5.5 13.1-0.8 2.9 0 2.8 0.5 1.9-29.4-0.5-0.3 0.2-0.5 0.3-0.2 0.3-1.1 0.9-1.2 0.8-1.5 0.6-2.4 0.8-1.5 0.2-1.3 0-2.1-0.7-5.8-2.4-2.3-0.5-1.3 0.1-1.3 0.4-0.7 0.5-2.2 2.3-1.1 0.7-1.1 0-1.4-0.2-1.9-0.7-1.9-0.4-1.1 0.2-0.9 0.7-1 1-1.4 0.9-1.1 0-0.8-0.6-0.5-0.7-0.9-2 0.9-0.9 0.9-1.9 0.4-2.5 1.6-4.4 0.7-3.1 2-4.2 0.3-1.1 0.1-1.9 0.3-1 0.8-1.4 3.4-5.5 1.7-1.2 1.2-1 0.8-2.6 1.1-9.5-0.2-5.6-1.3-5.1-2.7-2.9-0.4-0.2 0.2-0.9-0.1-0.3-0.5-1.5-0.1-0.6 0-0.6 0-0.7 0.4-1.1 0.6-0.9 0.2-0.5 0.2-1.2 0.3-0.5 0.3-0.2 0.8 0.1 0.5 0.2 0.6 0.3 0.7 0.5 1.9 1.7 1.3 1.4 1.2 2 0.7 0.6 0.8 0.4 1.3 0.2 5.8 2 1.7 0.4 1.8-0.4 1.6-0.8 3-3.2 1.7-0.9 1.2-0.5 1.2-0.6 1.2-1.6 0.5-1.6 0.1-1.6-0.5-4 0-0.8 0.3-0.6 1.7-1.9 1.6-1 2.5-1 5.6-1.3 2.8-0.4 3.4-0.1 2.6-1 3.1-2.5 0.1-0.1z" id="MWMH" name="Machinga">
  </path>
  <path d="M511 632l-0.9-1.4-3.2-1.7-1 0.2-0.9 0.5-0.8 0.7-0.9 0.6-0.9 0.2-1.8-0.2-0.9 0.1-11.3 4-8.3 0.3-3.6 1.5-0.9 1.2-1.3 3-0.9 0.6-12-1.6-3.3 0-3.1 0.8-6.7 4-3.2 1.2-3.2-0.3-6.1-4.8-2.5 0.8-1.7 2.7-1 3.4 0 4.1-0.3 2.1-1.2 0.8-2-0.7-1.3-1.2-1-1.5-0.7-2 2-1 1-1.6 1.2-0.7 1-0.9 2.5-4 0.4-1.3 0.3-5.1 0.4-1.8 0.5-1.7 0.9-1.4 1-1.2 1.5-0.9 7.9-3.8 1.3-1 1.3-1.4 2.4-1.7 1.4-0.5 2.1 0.2 1.1-0.3 2.7-1.1 1.1-0.2 1 0 1-0.5 0.9-1 0.6-1.9 0.5-5.5 0.5-1.6 0.9-1.2 1.6-0.9 4.4-0.5 1.2-0.6 1.4-1.2 1.4-1.5 1.3-1.9 1.7-1.3 1.8-1.8 1.1-3.3 0.7-1.4 1-1.5 1.7-1.9 1.4-2.1 1.7-1.6 1-1.5 3.1-5.9 0.5-1.4 0.5-1.2 0.6-0.8 1.4-0.7 2.9-2.1 2.1-2 2-3.4 5 7.1 7 6.9 1.6 1.9 3.8 6.9 3.6 5.4 1.9 1.9 1.3 0.9 0.5-0.2 0.6-0.5 2.4-2.6 0.8-0.6 0.6-0.4 0.5-0.3 0.6-0.3 0.3 0.7 4 4.8 0.7 1.2 0.3 1.6 0.7 1.9 0.9 1.8 0.9 1.2 2 1.5 1.6 0.5 1.8 0.1 2 0.8 1.9 1.7-0.1 1.5-0.6 1.5 0.3 1.8 1.6 1.1 1.8-0.4 1.9-1 0.8-0.3 0 0.2 0 4.9-9.3 5.7-8.5 6.4-6.5 2.7-1.8 0.4-1.2-0.1-1.3-1.2-1.9-0.8-0.8-0.6-0.7-0.5-0.8-0.3-1-0.3-1.7-0.2-2.7-0.5-0.6 0-0.6 0.2-1.2 0.9-1.4 1.2z" id="MWDE" name="Dedza">
  </path>
  <path d="M391.6 539.7l2.1-2.3 3.3-2.8 0.4-0.7 0.4-1 0.2-1.9 0-1.1-0.3-0.8-0.3-0.5-0.2-0.6 0.2-0.9 1-2.4 0.7-0.5 1.1-0.3 0.6-0.3 1-1.3 2.1 1.5 0.6 0.5 0.5 0.9 0 0.9-0.7 4.1 0 1.8 1.9 8.7 0.2 1.6 0.5 1.7 1.1 1.7 5.3 2.7 6.7 0.1 18-5 1.1-0.1 0.6 0.3 0.2 1 0.1 1.1 0.3 1.1 0.7 2.6 0.4 2.8 0.5 1.5 1.4 1.1 2 0.7 4.1-0.1 5.4-0.8 1.6-0.1 1.8 0.1 2.7 0.7 3.4 1.4 2.3 0.6 0.7 0.3 1.4 0.9 0.9 0.8 0.4 0.4 0.6 0.9 1 1 1.7 0.9 5.9-0.7 2.3-0.5 2.1-0.9 1.4-0.8 1.3-0.6 1.5-0.3 4.1 0.5 1.1 0 3.2-1.8-0.2 3.3-1.3 1.3-3.2 1.3-1.5 1-0.7 0.9-0.5 0.9-0.1 0.7 0.2 0.8 0.6 0.5 1 0.1 1.1-0.4 4-2 0.9-0.3 0.9-0.2 1.4 0 1.2 0.4-2 3.4-2.1 2-2.9 2.1-1.4 0.7-0.6 0.8-0.5 1.2-0.5 1.4-3.1 5.9-1 1.5-1.7 1.6-1.4 2.1-1.7 1.9-1 1.5-0.7 1.4-1.1 3.3-1.8 1.8-1.7 1.3-1.3 1.9-1.4 1.5-1.4 1.2-1.2 0.6-4.4 0.5-1.6 0.9-0.9 1.2-0.5 1.6-0.5 5.5-0.6 1.9-0.9 1-1 0.5-1 0-1.1 0.2-2.7 1.1-1.1 0.3-2.1-0.2-1.4 0.5-2.4 1.7-1.3 1.4-1.3 1-7.9 3.8-1.5 0.9-1 1.2-0.9 1.4-0.5 1.7-0.4 1.8-0.3 5.1-0.4 1.3-2.5 4-1 0.9-1.2 0.7-1 1.6-2 1-1.6-4.4-1-1.5-1.3-1-3-1.5-1.3-1-1-1.5-0.6-1.5-0.7-1.4-1.6-1.3-4.8-2.2-1.4-1.2-2.1-2.8-5.8-11.8-2-2.8-1.6-3.1 0.3-2.1-1.3-5.9-1.8-4.8-0.2-1.6 0.2-1.4 0.9-2.7 0.2-1.8-0.8-3.6 0-1.1 0.1-0.8 0.4-0.9 0.2-1.6-0.2-1.4-0.5-1.2-2.3-3.5-1.7-4.4-0.5-0.8-0.7-0.9-0.9-0.7-1-1-1-1.3-1.1-2.3-0.2-1 0.2-0.8 0.8-0.9 0.3-0.7 0.2-1 0.2-3 0.2-0.8 0.2-0.6 0.7-0.9 0.4-0.7 0.4-0.8 0.2-1.3-0.1-0.9-0.3-0.9 0-0.7 0.2-0.5 0.3-0.5 1.6-1.8 0.2-0.5 0.4-1.4 0.5-1.1 0.7-1 0.4-0.4 0.8-1 0.7-1.7z" id="MWLI" name="Lilongwe">
  </path>
  <path d="M568.7 902.8l0.8-1.3 0.1 0 2.4-3.8 1.9-1.8 2.1-1.3 1.4-0.6 0.6-0.7 0.1-0.7-0.3-0.9-0.1-1.3 0.6-2 0.7-1.3 6.2-6.9 2.2-2.1 0.8-0.5 0.4-0.5 0.3-0.8 3.7-17.5 6.4 7 0.9 0.4 1.1 0.2 0.4-0.8 2-0.4 5.3 1.6 0 0.1-0.4 1.6 0 4.7-0.6 2.1-1.6 1.7-7.9 5.3-1.5 1 1.9 5.3 1.8 3 0.5 1.2 0.7 1 1.2 0.4 1.1 0.2 2.5 1 0.7 0.4 0.5 0.5 0.6 1.3 0.5 0.6 0.3 0.2 1 0.5 0.3 0.2 2.7 3 0.4 0.6 0.3 7.9 0.5 2.4 2.3 4.6 0.5 3-2.8 2.4-0.3 2.5 0.3 4.6-0.4 0.5-0.7 0.5-0.5 0.7 0 0.7 0.5 0.6 3.7 2.2 0.7 1-0.6 1.5-1.2 2.2-0.1 1.9 1 4.5 0.1 2.4-0.3 2-0.6 1.7-0.8 1.3-0.1 0-6.5 0.7-11.5-0.3-6-1-1.7-1.7 0.4-3.1-3.8-5.7 0.9-3.7 2.5-2.1 2.9-1.4 2.5-1.8 1.3-3.3 0.4-3.8-0.1-4.4-1-3.7-2.6-1.9-3.8-0.1-3.4 0.3-3.2-0.5-3.4-2.7-2.1-2.8-0.9-1.1-1.6-1.1-0.8-0.3-1.7-0.3-0.8-0.5-0.5-0.9-0.4-2.3-0.5-1-0.8-0.5z" id="MWNS" name="Nsanje">
  </path>
  <path d="M568.7 902.8l-1-0.8-2-0.9-1.7-1-1.2-1.8-0.8-2.6-0.9-1.6-5.3-4.6-1.2-1.6-2-3.9-1.5-1.7-7.2-3.8-0.9-0.4-0.7-0.5-1.4-3.5-0.6-1.1-0.7-0.9-3.7-2.8-1.5-1.4-1.2-1.8-3.2-8.3-2.5-2.6-5.1-0.8-3.9-0.1-2.2-2.3-4.7-10.4 0.4-4 2.3-7.7-0.5-3.3-2-2.7-9.5-10.1-1.6-1-3.8-1.9-1.4-1.2-1.3-3.3-0.2-4.2 0.6-4.2 1.2-2.9 3.3-3.6 2-1.5 1.9-1 2.4-0.7 1.2-0.7 0.1-0.1 1.6 0.7 16.1 6.9 4.5 1.5 24.2 0.6 11.6 1.1 1.4 0.3 0.5 0.4 0.2 0.5 0.6 1.6 0.3 0.6 0.2 0.6 0 0.8-0.4 1-1.3 2.4-0.4 1.2 0.2 2.3-0.1 1-1.8 3.3 0 1.4 0.5 0.5 1.1 0 1.2-0.1 1.2 0.3 0.4 0.6-0.1 0.6-0.8 1.2-0.1 0.7 0 1 0.4 1.8 0.4 0.7 0.3 0.2 0.7-0.6 6.5 10.6 15.3 17.6 0.1 0.9 0.1 1.2-0.2 0.9 1.5 5-3.7 17.5-0.3 0.8-0.4 0.5-0.8 0.5-2.2 2.1-6.2 6.9-0.7 1.3-0.6 2 0.1 1.3 0.3 0.9-0.1 0.7-0.6 0.7-1.4 0.6-2.1 1.3-1.9 1.8-2.4 3.8-0.1 0-0.8 1.3z" id="MWCK" name="Chikwawa">
  </path>
  <path d="M506.7 787.5l7-9.9 1.4-3.8 0.3-4.7 13.5 1.5 13.5 1.4 12.2 1.3 0.3 7.4-0.2 0.8-0.6 0.9-0.7 0.8-1.8 1 0 1.5 0.8 2.7 0.7 8.8-24.2-0.6-4.5-1.5-16.1-6.9-1.6-0.7z" id="MWMW" name="Mwanza">
  </path>
  <path d="M515.4 769.1l-1-7.1 0-4 1.4-2 2.1-1 2.2-3.7 2.3-1.4 0.8-1.5 0.5-2.9 0.6-1.5 1.3-1.8 1.4-0.9 1.5-0.8 1.5-1.2 2.1-3.1 0.4-3-1.1-8.4 1.6 0.1 5.3 1.1 6.8 2.1 0.5 0 1.9-0.3 0.9 0.1 0.9 0.2 1.6 0.6 4.5 0.8 1.7 0.6 1.4 0.6 0.9 0.8 1 1 0.5 1.6 0.3 1.3 0.1 1.2-0.1 0.7-0.3 1.2 0.1 0.6 0.2 0.4 0.8 0.2 0.5 0 1.3-1.5 24.1 1.3-5 3.1-0.3 0.2-2.1 1-3.6 0.4-1.1 0.4-3.2 2.7-1.1 0.5-1.8 2.8-4.2 12.3-1.7 2.7-2 0.8-5.6 3.6-1.3 1.3-0.3 2-12.2-1.3-13.5-1.4-13.5-1.5z" id="MWNE" name="Neno">
  </path>
  <path d="M531.4 724.8l-1.2-9.1 0.2-2 1.1-1.3-0.3-1.3-0.7-1.5-0.3-1.7 0.7-1.6 2.3-3.3 0.8-1.7 0.3-2-0.9-1.8-1.2-1.8-1-1.9-0.7-2.3-0.3-2 0-8.7-0.7-3.7-1.2-3.5-1.9-3.8-1.1-4 1.6-7-0.2-4-1.8-3.7-6-5.9-2.6-3.3-3.8-7.7-1.5-2.2 1.4-1.2 1.2-0.9 0.6-0.2 0.6 0 2.7 0.5 1.7 0.2 1 0.3 0.8 0.3 0.7 0.5 0.8 0.6 1.9 0.8 1.3 1.2 1.2 0.1 1.8-0.4 6.5-2.7 8.5-6.4 9.3-5.7 0.7 11.9 1.7 8.3 3.1 9.4 13.3 17.8 1.5 1.4 3.4 1.6 3.9 2.9-0.6 1.4 0.2 1.8 0.5 1.9 0 1.2-0.2 1.5-1.9 6.8-0.5 1-5.8 8.1-0.3 0.8-0.2 0.5 0.4 1.1 0.1 0.8 0 1-8.5 38-1.3 1.5-0.5 0-0.8-0.2-0.2-0.4-0.1-0.6 0.3-1.2 0.1-0.7-0.1-1.2-0.3-1.3-0.5-1.6-1-1-0.9-0.8-1.4-0.6-1.7-0.6-4.5-0.8-1.6-0.6-0.9-0.2-0.9-0.1-1.9 0.3-0.5 0-6.8-2.1-5.3-1.1-1.6-0.1z" id="MWNU" name="Ntcheu">
  </path>
  <path d="M671.6 726.1l2.7 11 3.2 13.3-0.3 4.9 0 0.1-0.1 0-13 0.5-4.3 1.3-2.8 1.3-1.6 1.8-2.7 2.5-6 4-1.3 0.6-1.3 0.9-0.9 0.9-1.5 3.7-2.7 2-0.9 0.7-3.4 4-0.9 0.3-1.4 0.2-4.8 0.2-1.4 0.3-1.6 0.7-0.9 0.4-3.2 0.2-5.1-1.8-1.3-0.8-1.4-1.2-1.6-2.4-0.8-1.6-0.9-2.6-0.8-1.1-1-0.8-1.8-0.8-1.2-0.8-0.8-1.2-0.1-1.2 0.2-1.7-0.2-0.7-0.6-0.2-1.3 0.7-0.8 0.5-0.7 0.4-0.8-0.3-1.6 0.3-1.5 0.1-0.6-0.1-0.7-0.3-0.5-0.6-0.1-0.9 0.2-0.8 0.4-0.7 2.3-2.8 0.3-0.7-0.1-0.4-0.8-0.2-2 0-0.9-0.2-1.1-0.9-1.1-1.2-3.8-5.7-2.6-2.2-2.4-4.4 5-3.1 4.6-1.2 1.4-1.4 2.3-3.7 5.2-4.9 0.9 2 0.5 0.7 0.8 0.6 1.1 0 1.4-0.9 1-1 0.9-0.7 1.1-0.2 1.9 0.4 1.9 0.7 1.4 0.2 1.1 0 1.1-0.7 2.2-2.3 0.7-0.5 1.3-0.4 1.3-0.1 2.3 0.5 5.8 2.4 2.1 0.7 1.3 0 1.5-0.2 2.4-0.8 1.5-0.6 1.2-0.8 1.1-0.9 0.2-0.3 0.5-0.3 0.3-0.2 29.4 0.5z" id="MWZO" name="Zomba">
  </path>
  <path d="M641.7 772.9l1.5-3.7 0.9-0.9 1.3-0.9 1.3-0.6 6-4 2.7-2.5 1.6-1.8 2.8-1.3 4.3-1.3 13-0.5 0.1 0-0.7 9.4-1 14.8-0.7 10.5-1.1 17-1.2 4.4 0 0.1-0.1 0-0.1 0-0.1-0.1-0.2-0.1-0.1 0-0.3 0-0.1 0-0.2-0.1-0.5-0.4-0.2 0-0.2 0-0.2 0.1-0.1 0-0.3 0-0.1 0-0.2 0-0.4 0.2-0.3 0.1-0.1 0.1-0.1 0.1-0.2 0.1-0.5 0.3-0.1 0.1-0.2 0-0.1 0-0.1 0.1-0.3 0.1-0.2 0.1-0.1 0.1-0.1 0.1-0.2 0.2-0.1 0.1-0.2 0-0.1 0.1-0.2 0-0.5-0.2-0.4-0.1-0.2-0.2-0.9-0.8-0.8-0.4-2-1.6-1.7-1.7-1.4-1-0.5-0.1-2.8 1-4.5 4-0.6-0.7-3.3-9.2-0.2-0.5-0.2-0.1-0.1-0.1-0.1 0-0.1 0-0.2 0.1-0.2 0.1-0.1 0-0.1 0-0.1-0.1-0.1 0-0.1-0.1-0.1-0.1-0.1-0.2-0.2-0.2-0.1-0.1 0-0.2-0.2-0.1-0.2-0.3-0.1-0.1-0.1 0-0.1 0.1-0.1 0 0-0.1-0.2-0.1-0.1-0.1-0.1 0-0.1-0.1-0.2-0.2-0.2-0.1-0.2-0.2-0.2-0.4-0.6-1.8-0.4-2.3-0.8-10.9 0-0.1-0.1-0.1-0.1-0.1-0.2-0.1-0.2-0.1-0.1 0-0.3-0.1-0.1-0.1-0.1 0-0.4 0-0.1 0-0.1 0-0.1 0-0.1-0.2 0.1-0.6 0.2-0.7 1.3-2.2 0.3-0.4 0.1-0.1 0-0.1 0.2-0.2 0.1-0.3 0.6-1.1 0.1-0.1 0.2 0 0.1-0.1 0.1-0.1 0.1-0.1 0.2-0.3 0-0.1 0.1-0.2 0.4-1.2 0.2-0.6 0-0.2-0.1-0.2-0.9-1z" id="MWPH" name="Phalombe">
  </path>
  <path d="M620.5 781.9l3.2-0.2 0.9-0.4 1.6-0.7 1.4-0.3 4.8-0.2 1.4-0.2 0.9-0.3 3.4-4 0.9-0.7 2.7-2 0.9 1 0.1 0.2 0 0.2-0.2 0.6-0.4 1.2-0.1 0.2 0 0.1-0.2 0.3-0.1 0.1-0.1 0.1-0.1 0.1-0.2 0-0.1 0.1-0.6 1.1-0.1 0.3-0.2 0.2 0 0.1-0.1 0.1-0.3 0.4-1.3 2.2-0.2 0.7-0.1 0.6 0.1 0.2 0.1 0 0.1 0 0.1 0 0.4 0 0.1 0 0.1 0.1 0.3 0.1 0.1 0 0.2 0.1 0.2 0.1 0.1 0.1 0.1 0.1 0 0.1 0.8 10.9 0.4 2.3 0.6 1.8 0.2 0.4 0.2 0.2 0.2 0.1 0.2 0.2 0.1 0.1 0.1 0 0.1 0.1 0.2 0.1 0 0.1 0.1 0 0.1-0.1 0.1 0 0.1 0.1 0.2 0.3 0.2 0.1 0 0.2 0.1 0.1 0.2 0.2 0.1 0.2 0.1 0.1 0.1 0.1 0.1 0 0.1 0.1 0.1 0 0.1 0 0.2-0.1 0.2-0.1 0.1 0 0.1 0 0.1 0.1 0.2 0.1 0.2 0.5 3.3 9.2 0.6 0.7 4.5-4 2.8-1 0.5 0.1 1.4 1 1.7 1.7 2 1.6 0.8 0.4 0.9 0.8 0.2 0.2 0.4 0.1 0.5 0.2 0.2 0 0.1-0.1 0.2 0 0.1-0.1 0.2-0.2 0.1-0.1 0.1-0.1 0.2-0.1 0.3-0.1 0.1-0.1 0.1 0 0.2 0 0.1-0.1 0.5-0.3 0.2-0.1 0.1-0.1 0.1-0.1 0.3-0.1 0.4-0.2 0.2 0 0.1 0 0.3 0 0.1 0 0.2-0.1 0.2 0 0.2 0 0.5 0.4 0.2 0.1 0.1 0 0.3 0 0.1 0 0.2 0.1 0.1 0.1 0.1 0 0.1 0 0-0.1-0.8 3.1 0.1 1.8 0.6 3.7-0.1 1.8-1.1 2.6-1.7 1.9-8.3 5.8-1.2 0.6-1 0.1-2.2-0.4-1.2 0.1-10.8 3.3-2.8 0.3-0.6 0.7-0.3 1.8-0.7 1.1-1.5-0.1-1.5-0.7-1-0.9-0.8-2-1.9-1.3-2.3-0.6-2.3-0.2-2.6 0.7-2.1 1.5-8 7.2-0.6 0.8-1.3-1.3-0.4-0.6-0.1-1.1 0.2-1.2 0.8-2.1 0.7-1.2 0.7-0.8 0.6-0.5 1-1.1 0.5-3.4-1.4-10.8 1.5-3.8 0.5-0.6 0.6-1.3 0.1-1.7-1.6-19.7 0.1-4.4 2.2-6.7z" id="MWMU" name="Mulanje">
  </path>
  <path d="M608.7 866.9l0-0.1-5.3-1.6-2 0.4-0.4 0.8-1.1-0.2-0.9-0.4-6.4-7-1.5-5 0.2-0.9-0.1-1.2-0.1-0.9-15.3-17.6-6.5-10.6 3.1-0.8 0.9-0.6 2.9-2.6 1.1-1.4 2.1-4 0.8-1 0.8-0.8 0.6-0.3 0.7-0.2 2.2-0.1 1.6-0.4 12.3-7.4 4.2 0 1.1 0.3 0.7 0.6 0.8 1.1 0.8 1 4.1 3.8 0.7 1.1 0.6 1.7 0.6 2.5 0.5 1.1 0.9 1.2 1.4 1.4 2.3 1.3 1.4 10.8-0.5 3.4-1 1.1-0.6 0.5-0.7 0.8-0.7 1.2-0.8 2.1-0.2 1.2 0.1 1.1 0.4 0.6 1.3 1.3-2.5 3-2.1 4.5-0.8 5.5 0.3 1.3 1.3 3.3-0.4 1.2-2.7 3.3-0.2 0.6z" id="MWTH" name="Thyolo">
  </path>
  <path d="M401.8 522.3l2.1-4 0.8-2.7 1.4-2.3 0.4-0.7 0.9-2.7 0.1-0.6 0-0.7-0.2-0.6-0.3-0.5-0.6-1-0.3-0.5-0.2-0.5 0-0.7 0.4-0.5 0.5-0.4 1 0 0.7 0.2 0.5 0.4 0.4 0.4 0.8 0.7 0.4 0.3 0.4 0.1 0.5 0.2 0.7 0.1 0.7 0 0.7-0.2 0.7-0.5 0.9-1.2 0.9-0.7 1.2-2.4 0.5-0.4 1.7-0.9 1-0.7 0.5-0.6 0.4-0.9 1-2.5 1.8-1.8 0.9 4.1 0.5 0.5 0.9 0.7 1.3 0.7 1.6 1.2 3.1 3.1 1.6 2.3 1.3 2.4 2.5 6.5 0.3 1.6 0.3 5.2 0.4 2.1 0.6 0.9 0.6 0.4 0.8 0.1 5.9 0.1 6.3-2.1 1.2-0.3 1.8 0 1.8 0.4 2.9 1.1 1.6 0.3 3.2-0.2 1.8 0 6.5 2.4 1.1 0.2 1 0 0.7-0.1 3.2-1.4 1-0.5 1.8 8.6 0 1.4-0.3 1.8-0.6 1-0.4 0.8 0.1 0.4 1.4 0.8 0.7 0.6 5.2 5.1 0.9 0.8 1 0.6 0.8 0.2 1 0 1.1-0.2 4.1-2.2 0.7-0.3 0.7 0.1 0.8 0.6 0.3 1.1 0 1.3-0.1 1.1 0 0.7 0.3 1 0.7 0.7 1 0.5 0.5 0.6 0.1 0.4-0.1 0.8-0.2 0.6-0.3 0.5-0.6 0.4-0.5 0.3-1.7 0.6-1.1 0.2-0.7 0.3-0.5 0.3-0.2 0.2-0.1 0.1-0.5 0.5-3.2 1.8-1.1 0-4.1-0.5-1.5 0.3-1.3 0.6-1.4 0.8-2.1 0.9-2.3 0.5-5.9 0.7-1.7-0.9-1-1-0.6-0.9-0.4-0.4-0.9-0.8-1.4-0.9-0.7-0.3-2.3-0.6-3.4-1.4-2.7-0.7-1.8-0.1-1.6 0.1-5.4 0.8-4.1 0.1-2-0.7-1.4-1.1-0.5-1.5-0.4-2.8-0.7-2.6-0.3-1.1-0.1-1.1-0.2-1-0.6-0.3-1.1 0.1-18 5-6.7-0.1-5.3-2.7-1.1-1.7-0.5-1.7-0.2-1.6-1.9-8.7 0-1.8 0.7-4.1 0-0.9-0.5-0.9-0.6-0.5-2.1-1.5z" id="MWDO" name="Dowa">
  </path>
  <path d="M580.6 672.3l1.1 0 31.3 0 0.4 0.2 2.7 2.9 1.3 5.1 0.2 5.6-1.1 9.5-0.8 2.6-1.2 1-1.7 1.2-3.4 5.5-0.8 1.4-0.3 1-0.1 1.9-0.3 1.1-2 4.2-0.7 3.1-1.6 4.4-0.4 2.5-0.9 1.9-0.9 0.9-5.2 4.9-2.3 3.7-1.4 1.4-4.6 1.2-24.1-1.3 8.5-38 0-1-0.1-0.8-0.4-1.1 0.2-0.5 0.3-0.8 5.8-8.1 0.5-1 1.9-6.8 0.2-1.5 0-1.2-0.5-1.9-0.2-1.8 0.6-1.4z" id="MWBA" name="Balaka">
  </path>
  <path d="M597.9 764.6l1.6-0.3 0.8 0.3 0.7-0.4 0.8-0.5 1.3-0.7 0.6 0.2 0.2 0.7-0.2 1.7 0.1 1.2 0.8 1.2 1.2 0.8 1.8 0.8 1 0.8 0.8 1.1 0.9 2.6 0.8 1.6 1.6 2.4 1.4 1.2 1.3 0.8 5.1 1.8-2.2 6.7-0.1 4.4 1.6 19.7-0.1 1.7-0.6 1.3-0.5 0.6-1.5 3.8-2.3-1.3-1.4-1.4-0.9-1.2-0.5-1.1-0.6-2.5-0.6-1.7-0.7-1.1-4.1-3.8-0.8-1-0.8-1.1-0.7-0.6-1.1-0.3-4.2 0-2.6-4.9-0.7-2.1-0.2-2.4 0.3-11.5-0.3-3.4-0.5-2.2-0.7-0.9-0.2-1.7 0.1-1.3 4.3-8z" id="MWCR" name="Chiradzulu">
  </path>
  <path d="M569.3 822.6l-0.7 0.6-0.3-0.2-0.4-0.7-0.4-1.8 0-1 0.1-0.7 0.8-1.2 0.1-0.6-0.4-0.6-1.2-0.3-1.2 0.1-1.1 0-0.5-0.5 0-1.4 1.8-3.3 0.1-1-0.2-2.3 0.4-1.2 1.3-2.4 0.4-1 0-0.8-0.2-0.6-0.3-0.6-0.6-1.6-0.2-0.5-0.5-0.4-1.4-0.3-11.6-1.1-0.7-8.8-0.8-2.7 0-1.5 1.8-1 0.7-0.8 0.6-0.9 0.2-0.8-0.3-7.4 0.3-2 1.3-1.3 5.6-3.6 2-0.8 1.7-2.7 4.2-12.3 1.8-2.8 1.1-0.5 3.2-2.7 1.1-0.4 3.6-0.4 2.1-1 0.3-0.2 2.4 4.4 2.6 2.2 3.8 5.7 1.1 1.2 1.1 0.9 0.9 0.2 2 0 0.8 0.2 0.1 0.4-0.3 0.7-2.3 2.8-0.4 0.7-0.2 0.8 0.1 0.9 0.5 0.6 0.7 0.3 0.6 0.1 1.5-0.1-4.3 8-0.1 1.3 0.2 1.7 0.7 0.9 0.5 2.2 0.3 3.4-0.3 11.5 0.2 2.4 0.7 2.1 2.6 4.9-12.3 7.4-1.6 0.4-2.2 0.1-0.7 0.2-0.6 0.3-0.8 0.8-0.8 1-2.1 4-1.1 1.4-2.9 2.6-0.9 0.6-3.1 0.8z" id="MWBL" name="Blantyre">
  </path>
  <path d="M424.2 493.5l1.7-0.2 1.8-0.8 1.7-1 1.9-0.7 2-0.3 0.5-0.3 0.4-0.5 0.3-0.8 0.4-0.6 0.8-0.4 1.1-0.6 1.3-1.1 2.3-2.6 1.4-2.7 0.7-0.8 1.5-1.2 1.7-0.7 1.1-0.7 0.7-0.6 0.6-1.3 0.2-0.9 1.1-1.1 0.9-0.8 8.3-4.1 0.1 5.8 0.8 2.3 0.6 0.6 0.6 0.9 1.3 2.3 0.1 1.1-0.1 2 0.6 0.7 0.8 0.8 1 0.7 0.9 0.3 0.9-0.2 0.8-0.7 0.5-0.6 0.4-1 0.8-2.9 0.2-0.5 0.5-0.3 4.8-1.5 0.5 0.1 0.3 0.6-0.2 0.9-0.3 1-0.2 1 0.1 1.2 0.4 1.1 0.7 0.5 0.9 0.2 1.1 0 1.3 0.2 0.6 0.9 0.3 1.2 1 6.2-0.1 0.9-0.5 1.1-0.4 1.5-0.2 1.8 2.4 9 1 15.5-2 1.8-1 0.5-3.2 1.4-0.7 0.1-1 0-1.1-0.2-6.5-2.4-1.8 0-3.2 0.2-1.6-0.3-2.9-1.1-1.8-0.4-1.8 0-1.2 0.3-6.3 2.1-5.9-0.1-0.8-0.1-0.6-0.4-0.6-0.9-0.4-2.1-0.3-5.2-0.3-1.6-2.5-6.5-1.3-2.4-1.6-2.3-3.1-3.1-1.6-1.2-1.3-0.7-0.9-0.7-0.5-0.5-0.9-4.1z" id="MWNI" name="Ntchisi">
  </path>
 </g>
 <g id="points">
  <circle class="-16.74769242957901|32.825357683150784" cx="333.7" cy="908.3" id="0">
  </circle>
  <circle class="-13.646548982157015|34.44585308873265" cx="518.5" cy="541.8" id="1">
  </circle>
  <circle class="-9.770119672879519|35.74224941319814" cx="666.3" cy="90.3" id="2">
  </circle>
 </g>
 <g id="label_points">
  <circle class="Chitipa" cx="454.9" cy="132.2" id="MWCT">
  </circle>
  <circle class="Rumphi" cx="445.3" cy="208.3" id="MWRU">
  </circle>
  <circle class="Nkhata Bay" cx="470.1" cy="316.8" id="MWNB">
  </circle>
  <circle class="Likoma" cx="550.4" cy="356.8" id="MWLK">
  </circle>
  <circle class="Chitipa" cx="408.8" cy="91.8" id="MWCT">
  </circle>
  <circle class="Mzimba" cx="416.6" cy="330.9" id="MWMZ">
  </circle>
  <circle class="Kasungu" cx="396.3" cy="460.7" id="MWKS">
  </circle>
  <circle class="Mchinji" cx="360.3" cy="547.6" id="MWMC">
  </circle>
  <circle class="Nkhotakota" cx="478.6" cy="442.2" id="MWNK">
  </circle>
  <circle class="Salima" cx="520" cy="553.4" id="MWSA">
  </circle>
  <circle class="Mangochi" cx="587.6" cy="646" id="MWMG">
  </circle>
  <circle class="Machinga" cx="649.7" cy="696.5" id="MWMH">
  </circle>
  <circle class="Dedza" cx="500.2" cy="604.6" id="MWDE">
  </circle>
  <circle class="Lilongwe" cx="430.7" cy="588.7" id="MWLI">
  </circle>
  <circle class="Nsanje" cx="590.7" cy="902.6" id="MWNS">
  </circle>
  <circle class="Chikwawa" cx="547.8" cy="838.8" id="MWCK">
  </circle>
  <circle class="Mwanza" cx="532.9" cy="783.8" id="MWMW">
  </circle>
  <circle class="Neno" cx="545.6" cy="751.9" id="MWNE">
  </circle>
  <circle class="Ntcheu" cx="553.8" cy="681.9" id="MWNU">
  </circle>
  <circle class="Zomba" cx="625.6" cy="754" id="MWZO">
  </circle>
  <circle class="Phalombe" cx="657.8" cy="784.8" id="MWPH">
  </circle>
  <circle class="Mulanje" cx="635.7" cy="818.4" id="MWMU">
  </circle>
  <circle class="Thyolo" cx="597.9" cy="829.3" id="MWTH">
  </circle>
  <circle class="Dowa" cx="454.3" cy="538.9" id="MWDO">
  </circle>
  <circle class="Balaka" cx="590.4" cy="703.9" id="MWBA">
  </circle>
  <circle class="Chiradzulu" cx="606.9" cy="790" id="MWCR">
  </circle>
  <circle class="Blantyre" cx="576.2" cy="781.4" id="MWBL">
  </circle>
  <circle class="Ntchisi" cx="456.5" cy="503.3" id="MWNI">
  </circle>
 </g>
</svg>