<?xml version="1.0"?>
    
<!--********* Copyright (c) 2024 Pareto Softare, LLC DBA Simplemaps.com ***************************************
************* Free for Commercial Use, full terms at  https://simplemaps.com/resources/svg-license ************
************* Attribution is appreciated! https://simplemaps.com *******************************************-->

<svg baseprofile="tiny" fill="#6f9c76" height="1000" stroke="#ffffff" stroke-linecap="round" stroke-linejoin="round" stroke-width=".5" version="1.2" viewbox="0 0 1000 1000" width="1000" xmlns="http://www.w3.org/2000/svg">
 <g id="features">
  <path d="M342.3 901.4l0.5-1.8 1.4-3.1 4 1.2 1.5 1.4-1 0.9-0.4 0.7-0.2 0.3-1.4 1.2-0.5 0.3-0.6 0-0.5-0.1-1-0.7-0.9-0.3-0.9 0z" id="MZL" name="Maputo">
  </path>
  <path d="M761.4 208.2l-1.1 0.5-1.5 0-1.2-0.6-0.5-1.2-0.4-1.2-0.9-0.5-2.4 0-2 0.4-4.3 1.4-2.2-0.3-0.7-0.4-0.5-0.5-0.7-0.4-1.9-0.3-0.3-0.2-0.2-0.1-0.7 0.4-1.3 1.5-0.5 0.4-2.2 0.7-1 0.5-0.7 1.4-0.7 0.6-1.5 0.8-1.4 1.3-3 3.7-1.7 0.9-0.6 0-1.7-0.3-2.2 0-1.1 0.3-3 2.2-1 0.4-1 0.2-2.1 0.2-0.5 0.1-0.4 0.3-0.4 0.4-0.3 0.3-0.6 0.1-1.6 0.3-0.8 0.3-1 0.5-0.7 0.6-0.4 0.6-0.4 1-0.9 0.9-1.2 0.8-1 0.4-2 0.4-0.5 0.2-0.5 0.7-0.4 0.2-1.1 0.2-1.2 0.5-1.8 1.2-1.9 1.5-1.2 0.5-1.9-0.8-1.4-0.1-2.3 0.3-1.1 0.5-1 0.7-0.8 1.1-0.3 1.2-0.5 0.3-3.1 0.7-2.2 1.6-1.7 0.5-2.9 2.3-1 0.3-3.5 0.4-0.8 0.3-1.7 1-1.2 0.2-6.6 0.2-2-0.6-2-0.8-1.6-0.2-1.6 0.3-3.1-2.7-0.8-1-0.1-0.6-0.3-0.5-3.1-4.6-0.3-1.1-0.3-0.4-0.4-0.5-0.2-0.3 0-0.4 0-0.3 0-0.3-0.1-0.3-0.7-1.4-0.2-0.4-0.3-0.3-0.8-0.8-0.2-0.4-1.7-4.1-0.1-0.4-0.2-0.7-0.1-0.3 0-0.4 0.1-0.6 0-0.5-0.1-0.6-0.4-1.1-0.2-0.6-0.8-1.2-0.8-1.1-0.1-0.4-0.1-0.3 0-0.4 0.3-2 0-0.4 0-0.6-0.4-0.6-0.3-0.8-0.3-1.3-0.2-0.4-0.3-0.2-0.3 0-0.3 0.1-0.2 0.1-0.3 0.1-0.2 0.2-0.3 0-0.3 0-0.5-0.3-0.2-0.3-0.1-0.4-0.5-2.3 0-0.3 0.1-0.3 0.1-0.3 0.1-0.1 0.1-0.2 0.8-0.9 1.1-0.8 1-0.9 0.6-0.4 0.4-0.4 1-0.9 0.1-0.3 0.1-0.2 0.2-0.6 0.1-0.3 0.1-0.2 0.2-0.2 0.6-0.6 0.1-0.2 0.3-0.9 0.2-0.2 0.3-0.4 0.1-0.2 0.1-0.4-0.1-0.6 0.1-0.3 0.1-0.2 0.3-0.5 0-0.2 0-0.6 0-0.3 0.1-0.2 0.6-0.6 0.1-0.3 0-0.4 0-1.5-0.2-0.4-0.2-0.2-0.6-0.1-0.6 0.1-0.3 0.1-0.2 0.1-1.9 1.3-0.2 0-0.2 0-0.6-0.2-0.6-0.1-0.6-0.2-0.3-0.1-0.2-0.2-0.4-0.3-0.3-0.5-0.2-0.1-0.2-0.2-0.3-0.1-1.1-0.4-2.7-0.5-0.3-0.2-0.3-0.3-0.1-0.3 0.1-0.3 1.2-1.4 0.2-0.5 0.1-0.4 0.1-0.4 0-1 0.1-0.4 0.1-0.4 0-0.6-0.1-1.8 0.1-0.5 0.1-0.6 0.1-0.4 0-0.4-0.1-0.6 0-0.4 0.2-1.4-0.1-1 0.1-0.6 0.1-0.3 0.3-0.4 0.2-0.3 0.1-0.3 0-0.3 0.1-0.3-0.2-1.6 0-0.3 0.1-0.3 0.7-1.3 0-0.3-0.1-2.5-0.1-0.5-0.3-0.5-0.1-0.3 0-0.4 0.5-2.6 0.2-0.5 0.1-0.9 0.1-0.9-0.1-0.5-0.1-0.4-0.3-0.6-0.4-1 0-0.4 0.1-0.3 0.2-0.2 0.7-0.4 0.9-0.6 0.3-0.4 0.4-0.4 0.2-0.5 0.4-0.4 1.4-1.5 1-1.3 0.6-0.5 0.9-0.5 0.3-0.3 0.2-0.5 0.4-3.3 0.2-0.9 0.8-1.9 0.2-1 0.2-0.3 0.2-0.2 0.5-0.2 0.2-0.2 0.7-0.6 0.6-0.8 0.1-0.2 0.2-0.2 0.3-0.1 1-0.4 0.6-0.4 1.9-1.6 0.2-0.5 0.1-0.8 0.2-1.9 0.1-0.8 0.2-0.5 0.2-0.1 1.1-0.4 0.2-0.2 0.2-0.2 0.5-1.2 0.2-1.3 0.1-0.3 0.2-0.1 0.6-0.5 0.7-0.7 0.1-0.2 0.1-0.2 0.3-1.5 0-0.3 0.2-0.2 0.1-0.5 0.4-2.7 0-0.9 0-0.5-0.3-0.5-0.6-0.9-0.5-0.5-0.4-0.9-0.2-0.2-0.2-0.6-0.4-1.2 0-0.5 0.3-3.8 0.4-1.5 0.2-1.1 0.1-0.6 0.1-0.4 0.3-0.4 0.1-0.3 0.1-0.4 0.2-1.1 0.6-1.6 0.3-1.4 0.1-0.3 0.1-0.2 0.2-0.2 1.9-2.7 0-0.1 1.4-1.6 5.1-3.5 1.2-1.5 0.6-0.6 0.2-0.2 1.6-0.4 1-0.5 0.6-0.1 0.6 0.1 1.2 0.2 0.2 0.1 0.3 0 1-0.5 1-1 1.1-1 0.7-0.5 0.6-0.1 0.5-0.2 0.9-0.6 1.3-1.2 0.1 0 1.8-0.4 6.7 0 0.1 0 0.7-0.2 1.1-0.2 1.6-0.7 1.3 0.2 1.2 0.7 0.2 0.1 0.1 0 0.3 0.1 0.2 0.1 0.3 0.1 0.1 0.1 0.1 0 0.4 0.1 0.4 0.2 0.2 0.1 0.1 0 1 0 0.7-0.2 0.6-0.2 1.2-0.6 6.1-4.9 4.2-3.4 0.8-0.5 0.9-0.3 0.3 0 3.7-0.3 8.8-1.9 1.3-0.6 5.3-3.6 5.4-2.3 1-0.5 6.5-5.2 1.5-0.5 0.6-0.6 1-1.3 3.1-3.1 1.9-1.5 1.9-0.6 1.5-0.6 0.7-0.5 1.2-0.8 1.7-1.7 0.8-1.5 0.9-0.3 0.8 0.1 0.3 0.6-0.5 0.7 1 0.2 1.4-1.2 0.8 0.6 0.3 1.1-0.6 0.9-0.8 0.7-0.3 0.6 0.3 0.8 1 0.4 1.1 0.2 0.8 0.4 0.4 0.8 0.1 1.8 0.4 0.9 0.7 0.4 2.1 0.3 0.8 0.4 0.4 0.9-0.8 0.2-2-0.2-1.6 0.5-4.5 3.5 0.4 1.8 0.4-0.3 0.3-0.3 0.2-0.4 0.2-0.4 1 0.8 3.6 1.9 1 1.1-1 1-2.9 1.3-0.9 0.9-1.1 1.4-0.6 1.5 0.5 1.9-0.4 1.9 0.4 0.5 0.6-0.1 0.7-1.4 0.5-0.3 1.4 0.6-0.1 1.5-0.7 1.7-0.8 1.1-1.6 1.8-0.3 0.6-0.1 0.7 0.4 1.3 0 0.5-0.6 1-3.5 2.5-0.4 0.7-0.7 1.9-0.5 0.5-0.6 0.2-1.3 0-0.6 0.1 0.5 0.8 0.5 1.1 0.4 0.4 0.4-1.1 0.8 0.4 0.8 0.8 0.7 0.9 0.5 0.8 1.5-0.4 0.3 1.7-0.3 1.8-0.4 2-0.5 1.7-0.5 0.7-0.6 0.7-0.2 0.9 0.6 0.8 0.8 0.8 0.4 0.6-0.3 0.6-1.2 1.4-0.1 0.4 0.6 0.8 0.1 0.6 0.2 1.8 0.2 1 1 0.9 0.2 0.3 0 0.4 0.1 2.6 0.3 0.9 0.7 0.8 0.4-0.2 0.3-0.1 0.8 0.3-1.5 1.5-0.3 1.5 0.3 1.6 0.7 1.6 1.6 2.3 0 0.5-0.8 0.8-0.3 0.6-0.1 1.7-0.7 2.5 0 0.8 0.2 1 0.9 1.4 0.3 0.9-0.1 0.9-0.4 1.1-0.6 0.9-0.7 0.4-0.8-0.2-0.7-0.3-0.5 0.1-0.2 1.1 1.3-0.3 1.2 0.9 0.8 1.4 0.4 1.4-0.2 0.7-0.3 0.7-0.3 0.6 0.2 0.9 0.5 0.4 0.7 0.1 1.5-0.1-0.2 0.5-0.3 0.5-0.4 0.3-1.2 0.3-0.3 0.5-0.5 1.1-1.3 2-0.1 0.9 0.7 0.8 0.5 0.3 0.7 0.1 2.2 0.1 0.2 0.2 0 3.7 0.2 0.8 0.5 0.3 0.6 0.2 1.5 0.7 0.3 0.5-0.4 0.6-0.5 0.1-0.9-1-0.6 0-0.3 0.5 0 0.7 0.5 2.4 0.4 0 0.6-0.3 0.6 0 0.4 0.6 0.4 1.4 0.3 0.3 0.6 0.1 0.3 0.5 0 0.6-0.2 0.6-0.9 0.8-1.1 0.3-1.1-0.3-0.8-0.8-0.1 0.4 0.1 0.6 0.2 0.4 0.1 0.1-0.8 0.4-1.4-0.1-0.3 0.4 0.3 0.5 0.7 0.4 0.5 0.6-0.3 1.1-0.5 1.4-0.4 0.4-0.4 0.5-0.2 0-0.1-0.2-0.3-0.3 0-0.4-0.2-0.4-0.5-0.3-0.5 0-0.3 0.1-1.5 0.8-1.1 0.7-0.9 0.9-0.4 0.8 0.1 1 0.3 0.6 2.6 2.4 0.8 0.3 0.9-0.3 0.7-0.9-0.3-0.8-0.6-0.7-0.2-0.9 0.4-0.4 0.8 0 0.9 0.2 0.6 0.4 0.7 0.2 0.9-0.2 0.8 0 0.3 0.9-0.3 1.8-1.3 3.1-0.2 1.7 0.1 1 0.5 1.8 0.1 1-0.3 4-0.3 1-0.7 0.7-0.7 0.5-0.5 0.8 0.2 0.6 0.6-0.3 1.4-1.1 0 4.4 0.2-0.1 0.6-0.1 0.2-0.1-0.2 1.2-1.6 1.7-0.4 0.9-0.1 2.3-0.3 1.2-0.6 0.8z" id="MZP" name="Cabo Delgado">
  </path>
  <path d="M654.9 95.8l0 0.1-1.9 2.7-0.2 0.2-0.1 0.2-0.1 0.3-0.3 1.4-0.6 1.6-0.2 1.1-0.1 0.4-0.1 0.3-0.3 0.4-0.1 0.4-0.1 0.6-0.2 1.1-0.4 1.5-0.3 3.8 0 0.5 0.4 1.2 0.2 0.6 0.2 0.2 0.4 0.9 0.5 0.5 0.6 0.9 0.3 0.5 0 0.5 0 0.9-0.4 2.7-0.1 0.5-0.2 0.2 0 0.3-0.3 1.5-0.1 0.2-0.1 0.2-0.7 0.7-0.6 0.5-0.2 0.1-0.1 0.3-0.2 1.3-0.5 1.2-0.2 0.2-0.2 0.2-1.1 0.4-0.2 0.1-0.2 0.5-0.1 0.8-0.2 1.9-0.1 0.8-0.2 0.5-1.9 1.6-0.6 0.4-1 0.4-0.3 0.1-0.2 0.2-0.1 0.2-0.6 0.8-0.7 0.6-0.2 0.2-0.5 0.2-0.2 0.2-0.2 0.3-0.2 1-0.8 1.9-0.2 0.9-0.4 3.3-0.2 0.5-0.3 0.3-0.9 0.5-0.6 0.5-1 1.3-1.4 1.5-0.4 0.4-0.2 0.5-0.4 0.4-0.3 0.4-0.9 0.6-0.7 0.4-0.2 0.2-0.1 0.3 0 0.4 0.4 1 0.3 0.6 0.1 0.4 0.1 0.5-0.1 0.9-0.1 0.9-0.2 0.5-0.5 2.6 0 0.4 0.1 0.3 0.3 0.5 0.1 0.5 0.1 2.5 0 0.3-0.7 1.3-0.1 0.3 0 0.3 0.2 1.6-0.1 0.3 0 0.3-0.1 0.3-0.2 0.3-0.3 0.4-0.1 0.3-0.1 0.6 0.1 1-0.2 1.4 0 0.4 0.1 0.6 0 0.4-0.1 0.4-0.1 0.6-0.1 0.5 0.1 1.8 0 0.6-0.1 0.4-0.1 0.4 0 1-0.1 0.4-0.1 0.4-0.2 0.5-1.2 1.4-0.1 0.3 0.1 0.3 0.3 0.3 0.3 0.2 2.7 0.5 1.1 0.4 0.3 0.1 0.2 0.2 0.2 0.1 0.3 0.5 0.4 0.3 0.2 0.2 0.3 0.1 0.6 0.2 0.6 0.1 0.6 0.2 0.2 0 0.2 0 1.9-1.3 0.2-0.1 0.3-0.1 0.6-0.1 0.6 0.1 0.2 0.2 0.2 0.4 0 1.5 0 0.4-0.1 0.3-0.6 0.6-0.1 0.2 0 0.3 0 0.6 0 0.2-0.3 0.5-0.1 0.2-0.1 0.3 0.1 0.6-0.1 0.4-0.1 0.2-0.3 0.4-0.2 0.2-0.3 0.9-0.1 0.2-0.6 0.6-0.2 0.2-0.1 0.2-0.1 0.3-0.2 0.6-0.1 0.2-0.1 0.3-1 0.9-0.4 0.4-0.6 0.4-1 0.9-1.1 0.8-0.8 0.9-0.1 0.2-0.1 0.1-0.1 0.3-0.1 0.3 0 0.3 0.5 2.3 0.1 0.4 0.2 0.3 0.5 0.3 0.3 0 0.3 0 0.2-0.2 0.3-0.1 0.2-0.1 0.3-0.1 0.3 0 0.3 0.2 0.2 0.4 0.3 1.3 0.3 0.8 0.4 0.6 0 0.6 0 0.4-0.3 2 0 0.4 0.1 0.3 0.1 0.4 0.8 1.1 0.8 1.2 0.2 0.6 0.4 1.1 0.1 0.6 0 0.5-0.1 0.6 0 0.4 0.1 0.3 0.2 0.7 0.1 0.4 1.7 4.1 0.2 0.4 0.8 0.8 0.3 0.3 0.2 0.4 0.7 1.4 0.1 0.3 0 0.3 0 0.3 0 0.4 0.2 0.3 0.4 0.5 0.3 0.4 0.3 1.1 3.1 4.6 0.3 0.5 0.1 0.6 0.8 1 3.1 2.7-1.6 0.7-2.1 0.6-4.5 0.5-2.1 1.1-1.8 1.9-1 0.8-8.8 1.7-0.5 0.3-0.4 0.5-0.8 0.7-0.9 0.6-0.8 0.2-1.9-0.9-1.1-1.7-1.2-1.4-2.3-0.1-0.9 0.6-1.4 1.7-0.7 0.3-4.1-0.3-1.1 0.1-1.1 0.4-0.7 0.8 0.5 1.1 0 1-0.8 1.3-1.2 1.2-1 0.7-4.1 0-0.8 0.5-2.1 2.1-1.8 2.6-1.5 1.6-1.8 1.6-5.4 2.9-1 0.2-0.3-0.1-1-0.5-0.7-0.1-0.6 0-0.3 0.2-0.2 0.3-3.4 2.8-1 0.4-0.6 0.1-0.5 0.3-0.9 0.7-0.5 0.2-1.1 0.3-0.5 0.2-0.7 0.6-1.5 1.7-0.3 0.5-0.4 0.4-2.8 1.1-1.4 1.9-0.8 1.6-0.2 0.6-0.5 1-2.3 2.4-0.4 0.7-0.1 0.4-0.7 1.1-2.8 2.7 0.1 2.3-0.2 0.8-2.1 3.3-0.4 0.4-0.4 0.2-0.3 0.3-0.3 0.4-0.2 0.7-0.3 0.4-0.7 0.5-2.9 3.3-1.6 1-0.3 0.1-0.3 0.1-0.7 0-0.2 0.1-0.4 0.1-1.9 1.4-0.2 0.1-0.7 0.1-0.3 0.1-0.9 0.5-0.2 0.1-0.4 0-0.3 0-0.9-0.2-0.3 0-0.4 0.1-0.2 0.2-0.2 0.2-1.4 2.9-1.2 1.4-0.1 0.3-0.1 0.2 0 0.3 0 0.4 0.1 0.3 0 0.6 0 1.1-0.2 0.5-0.3 0.5-0.6 1-0.5 0.4-0.4 0.1-0.2-0.1-0.6-0.3-0.4-0.3-0.3-0.1-0.3-0.1-0.3-0.1-0.3-0.1-0.2-0.1-0.6-0.6-0.2-0.1-0.4-0.1-0.4-0.1-17.5 0.1-1.4 0 0.2-2.2-1.5-6.1-1.2-5.1-0.2-0.8 0-1.3 0.3-1.4 2.5-5.9 1.5-3.5 1.9-4.6-1.1 0-0.7-0.1-0.3-0.5-0.5-11.3-0.3-0.9-0.7-0.8-2.5-2.6-1.9-2.4-1.9-2.4-5.5-7-4.5-5.8-3.5-6.8-4.5-5.4-4.8-5.7-5.6-6.7-4.6-5.5-4.6-4.2-5.3-4.9-1.6-1-0.3-0.2 0.3-1.3 0.1-1-0.3-3.7 0-0.4 0.1-0.3 0-0.3-0.1-0.5-1.8-1.1-1.2-1.3-0.4-0.7-0.2-1 0.2-0.9 0.9-2.4-0.2-1.4-0.4-2-0.2-1.9 0.6-1.5 0.4-1.3-0.5-2-2.3-4.5-0.3-1.1-0.1-1.2 0.1-1.5 0.2-0.6 0.9-1.9 0.3-2.6 0.2-0.6 0.5-0.5 1.1-2.2 0.3-0.9 0.1-0.3-0.1-0.4-0.3-0.3-0.3-0.3-0.7-3-0.4-0.6-0.5-0.6-0.4-0.5-0.3-1.6-0.2-0.6-0.6-1.2-1.4-1.9-0.2-0.4-0.1-0.5-0.8-1.2-0.3-1.2-0.5-0.7-0.1-0.4 0.2-0.3 0.7-0.5 0.2-0.3 0-1.5-0.5-3.2 0.7-2.8 0.2-1.6-0.3-1.5-0.8-1.1 0.8-1 2-1.8 1-1.1 0.4-0.3 1.1-0.4 0.4-0.2 0.3-0.5 0.5-1.4 0.3-0.3 2.3-0.8 0.9-2 1.1-4.9 2.5-5.3 0.2-1.4-0.2-2.6 0.1-1.3 0.5-2.4-0.1-5.2 21.8 0.3 0.4-0.1 0.3 0 0.3 0 0.6 0 0.6 0 0.1 0.3 0.3 0.3 0.5 0.2 1.3 0.1 0.2-0.1 0.7-0.3 0.4-0.1 0.2-0.1 0.2 0 0.5 0.4 0.3 0.4 0.1 0.3 0.2 0.3 0.6 0.2 0.1-0.9 0.6 0 0.8 0.3 0.9 0.2 1.2-0.7 0.1 0 2.8-0.7 0.5-0.3 0.4-1.1 0.4-0.8 0.6-0.7 0.6-0.4-0.4-1.2 1-0.6 2.6-0.4 0.9-0.8 1.7-2 0.2-0.2 0.5-0.3 0.2 0 0.1 0 0.4 0.1 1.2 0.2 0.2 0.1 0.5 0.2 1 0.4 0.3 0.1 0.3 0 1.2 0 0.5 0 0.6 0.3 0.1 0 0.6 0.8 0.3 0.3-0.5 1.2 0.5 1 0.9 0.6 1.1-0.3 0.7-0.1 1.1 0.5 0.9 0.6 1 0.5 0 0.1 0.5 0.2 1.2 0.3 0.5 0.2 0.4 0.4 0.4 0.3 0.3 0.3 0.5 0.1 0.8 0.4 0.3 1 0.1 1.2 0.3 0.9 0.1 0.2-0.3 0.8 0.1 1.1 0.5 1 0.6 0.4 0.5-0.1 1.5-0.3 0.1 0 0.1 0 0.4 0.1 0.2 0 0.8 0.5 0.5 0.2 0.1 0 0.7-0.1 1.9-0.6 1.6-0.2 0.4-0.3 0.3-0.2 0.2-0.1 0.1 0 0.7 0 1 0 1.4 0 0.6 0 2.3 0 0.4 0.3 0.4 1.2 0.1 0.2 0.2 0.1 0.3 0.1 1.3 0.7 0.9 0.1 2.7-0.5 0.6-0.1 0.8-0.2 1.3-0.2 0.5-0.3 0.2-0.3 0.5-0.4 0.4-0.1 1.6-0.6 0.6-0.4 0.4-0.4 0.8-1.1 0.7-1 0-0.1 0.9-1.1 0.1-0.1 1.4-1.6 0.3-0.1 0.5-0.2 0.5 0.3 1.1 0.1 1 0.6 0.3 0.2 0.3 0.1 0.4 0.1 3.2-0.3 1.7-0.2 0.4-0.2 0.1 0 0.4-0.3 0.9-0.5 0.5 1.4 0.1 0.2 1.4 1.8 1.8 1.6 1.9 0.8 4.4 1.1 2.3 0.2 1.9-0.2 0.5-0.2 0.4-0.3 0.4-0.2 0.5 0 0.6 0.3 0.9 0.9 0.5 0.3 2.6 0.7 1.1 0 1-0.2 0.4-0.2 0.4-0.3 0.3-0.6 0.3-0.7 0.4-0.7 0.7-0.3 1.1-0.2 1.8-1 1.2-0.2 1.6 0 1.2-0.2 0.9-0.6 2.4-1.9 3.8-1.6 1.1-0.8 0.6-0.6 0.4-0.7-0.1-0.7-0.3-0.6-0.2-0.7 0.3-1.2 1.3-2.3-0.1-0.9 0.5-0.7 0.8-2.4 0.1-0.8 0.4-0.4 3.3-1.9 0.8-0.2 2.1-0.2 0.5-0.1 0.4-0.4 0.1-0.1 3-0.5 1.2 0 0.4 0 0-0.1 0.1-0.1 0.3-0.1 0-0.1 0.3 0 0.1 0.2 0.2 0.3 0.5 0.3 0.2 0.1 0.1 0 0.3 0.3 0.7 0.5 0.6 0.2 0.6-0.1 1.2-0.5 0.1 0 0.4-0.2 2.4 0.4 0.4 0.3 1.5 1 1.1 1.1 1.8 2 0.5 0.3 1.3 0.6 4.2 1.1 1.5 0.9z" id="MZA" name="Niassa">
  </path>
  <path d="M487.5 404.5l0.2 0.9 0.3 6.3 0.2 1.1 1.3 2.4 0.3 2 0 0.4-0.6 1-0.2 0.4 0 0.5-0.1 1.3 0 0.2 0.6 3.1 0 10.7-0.5 2.3-0.6-0.4-1.2-0.9-3.4-1.7-0.7-0.5-0.3-0.6-0.5-0.2-1.4-1.3-1.6-1.1-0.9-0.9-0.7-0.9-0.2-0.5-0.1-0.4 0-1 0-0.3-0.7-2-0.3-0.4-0.8-0.9-0.2-0.5-0.5-2.3-1.5-3.8-0.5-0.7-0.2-0.3-0.1-0.8-0.9-1.4-0.2-0.5-0.3 0-0.1-1.1-0.6-2.1-1-2.3-2.1-3.6-1.3-5.4-0.7-1.7-0.5-0.5-4.7-4-1.2-0.6-4-1.2-3.9-2.1-9.9-5.4-2.8-0.9-3.5-0.7-3.5-0.2-0.9-0.4-0.8-0.5-2.7-2.3-0.4-0.2-0.5-0.2-1.2-0.2-0.5-0.2-0.9-0.1-1.8 0.5-0.9-0.2-0.4-0.6-0.2-0.8-0.2-0.6-0.7-0.3-0.9-0.1-0.6-0.2-1.3-0.6-1-0.9-1.6-2.6-1.8-2.2-1.5-2.4-0.9-1.1-0.2 0.2-1.9 0-0.7 0.1-2.3 0.9-0.9 0.1-5.3-0.5-1.7 0.2-1.4 0.6-1.3 0.8-1.1 1.1-1.7 2.7-0.5 0.3 0.2 1.2-0.1 0.4-0.1 0.8 0 0.3 0.3 0.5 0.1 0.3-0.1 0.4-0.3 0.5-3 3.8-0.1 0.3-0.1 0.5-0.1 0.3-0.4 0.2-0.6 0.2-0.2 0.1-0.7 0.5-0.9 1-0.1 0.3-0.1 0.4-0.1 0.6 0.1 0.8-0.1 0.3-0.2 0.9 0 0.3 0.1 0.3-0.1 0.4-0.3 0.6-1.7 2.5-0.2 0.4-1.7 5.1-0.3 1.2-0.1 0.7-0.1 0.2-0.2 0.3-0.4 0.4-0.4 0.2-0.3 0.1-1.9 0.3-0.2 0.1-0.3 0.2-0.2 0.2-0.3 0.4-0.2 0.2-0.4 0.3-0.6 0.5-0.4 0.5-0.6 1.1-0.7 1.6 0 1.2-0.1 0.5-0.3 0.5-0.1 0.4 0 0.6 0.5 1.3 0 0.4-0.2 0.4-1.9 3.9-0.5 0.7-0.5 0.6 0 0.3 0.1 0.5 0.2 0.4 0.1 0.4 0 0.3-0.4 1.5-1.3 0.6 0.2-0.4 0.3-0.8 0-0.9-0.4-0.5-1.1-0.7-0.5-0.3-0.5-1.1-0.2-1.2 0-0.6-0.1-2-0.7-3.4-1.4-3.2-2.2-3.9-2.9-5.2-0.1-0.4 3.8-3.7 0.8-1.1 0.9-1.7 1.5-5.8 0.3-1.5-0.6 0-0.9 0.4-1.6 1-0.8 0.2-1.6-0.1-3.3-0.7-1.6-0.1-0.8 0.1-0.7 0.3-0.5 0.3-0.3-0.1-1.4-1.1-0.5-2.1-0.1-1.3-0.2-0.8-0.6-0.5-6.3-2.6-8.3-3.3-5.4-2.2-4.1-0.6-10.3 0.2-5.4-0.8-0.9-0.4-0.4-0.9-0.3-2.1-0.5-0.9-0.6-0.6-2.2-1.1-1-0.9-3.2-3.5-1.4-1.1-1.3-0.6-8.7-0.6-2-1-0.8-0.6-1.1-0.1-1.1 0-1-0.2-0.1-0.1 0.1-0.3 0-0.3-0.3-0.1-0.2 0-0.4 0.1-0.2 0-0.3-0.4-0.2-0.5-0.2-0.5-0.5-0.4-1-0.5-0.7-0.8-1-1.8-0.7-0.9-0.9-0.7-1-0.3-5.3-1.3-2.3-0.2-1.3 0.8-0.4 0.8-0.4 0-0.5-0.3-0.4-0.2-0.8 0.4-0.9 1.1-0.6 0.6-1.2 0.5-0.9-0.1-0.8-0.6-0.8-0.9-2.1-1.5-2.3-0.5-5.7 0-8.5 0.1-3.8 0-5.8 0.1-0.1-3.8-0.1-6.5-0.1-5.2-0.1-4.4 0.8-0.3 0.1-0.1-0.6-1.6-0.3-0.5-1.5-1.6-0.1-0.7 0.4-1.2 0.9-1.9 0.2-0.5-0.2-0.6-0.8-1-0.1-0.7-0.2-3.5-0.2-1.1-0.4-1-0.5-1-0.7-0.7-0.7-0.3-1.7-1.1-1.3-2.6-2-6.8-0.2-2.3 0-2.4-0.4-1.6 0-0.4 0.9-0.2 4.6-0.6 3.8-2 4.9-2.4 5.6-2 4.4-1.7 7.3-2.7 5.2-1.2 7.4-1.7 0.9 0 5.4-1.4 6.8-1.6 5.4-1.3 4.5-1.7 4.9-2.6 3.6-1.9 7.5-2.5 6.8-2.3 5.3-1.7 3.9-1.9 2-0.6 4.2-0.8 4.9-1.6 5.5-1.9 7.9-2.8 8.8-3 9-3.1 6.6-2.2 4.6-1.6 3.8-1.3 2.9 1.6 1.1 0.9 0.6 1.5-0.3 2.7 0.3 1 1.3 2.2 0.4 0.5 0.8 0.5 0.4 0.1 0.4 0.4 0.2 0.3 0.7 1.4 0.9 1.3 2.7 5.4 0.9 1.3 0.7 0.5 2.2 1 0.7 0.6 0.3 0.7 0.3 0.6 0.4 0.7 0.6 0.5 1.4 0.7 0.6 0.4 0.5 0.7 0.7 2.1 0.3 0.9 0.5 0.7 0.6 0.5 0.9 0.3 0.5-0.4 0.2-0.9 0-1.9 0.5-1.6 0.8-1.2 1.1-0.3 2.8 2.2 1.5 0.1 1.4-0.5 3.1-1.9 1.4-0.4 1.5 0 5.6 0.8 0.4-0.3 0.6-1.4 0.4-0.5 1.6-0.7 3.8-0.1 5.2-1.9 0.4-0.1 0.9 0.1 0.4 0 0.4-0.3 0.3-0.3 0.4-0.3 0.5-0.1 1.5 0.8 0.4 0.7 0.7 1 1.7 3.5 1.2 1.5 2.8 2.7 0.8 1.7 0.1 1.8-0.7 3.3 0.5 1.8 0.8 1.8 0.6 1.6 0.3 1.7 0 4 0.1 0.9 0.3 1 0.5 0.9 0.6 0.8 0.4 0.8-0.1 1-0.4 0.8-1.1 1.4-0.3 0.8 0.1 0.8 0.4 0.7 0.1 0.6-0.5 0.6-0.1 0.9 0.5 4.1 0.6 3.9-0.2 1.4-1 1.4-0.7 0.5-0.7 0.4-0.6 0.5-0.6 0.8-0.3 0.6-0.2 1.4-0.4 0.7-1 0.6-1 1.7-1 0.5-0.6 0.9-0.1 1.8 0.5 3.3-0.1 2.2-0.7 1.7-3.2 4.5-0.6 0.4-1.1 0.3-0.9 0.4-0.9 0.8-1.5 1.6-0.5 1.3-0.3 1.9 0.1 2 0.6 1.5 0.6 0.6 1.8 0.8 0.7 0.5 4.4 4.6 0.9 1.2 0.2 1.6-1 3.5-0.2 1.8 2.1 4.8 1 1.1 1.8 0 2.4 0.4 1.1 1.2 1.5 3.8 0.5 0.8 0.7 0.7 1.7 1.2 0.3 0.4 0.3 0.5 0.7 1.7 0.3 0.2 0.4 0.2 3.3 1.7 0.7 0.8 0.9 1.8 0.5 0.7 2.5 2.1 0.4 0.8 0.4 1.1 0.5 0.9 0.8 0.5 0.9 0.4 0.5 0.3 0.3 0.3 0.3 0.4 0.1 1.1 0.3 0.4 0.3 0.2 0.8 0.1 0.4 0.2 0.7 0.5 0.5 0.5 0.9 1.3 1.6 1.2 1.4 0.3 1.6-0.2 1.7 0.1 1.2 0.8 0.5 1.7 0 2-0.1 1.8-0.6 1.5-1.2 0.8-1.3 0.7-1.2 0.9-0.4 1.7 1.7 2.7-0.1 1.4 0.8 0.7 2.7 0.5 5.3 0.2 3-0.4z" id="MZT" name="Tete">
  </path>
  <path d="M368.2 418.5l1.3-0.6 0.4-1.5 0-0.3-0.1-0.4-0.2-0.4-0.1-0.5 0-0.3 0.5-0.6 0.5-0.7 1.9-3.9 0.2-0.4 0-0.4-0.5-1.3 0-0.6 0.1-0.4 0.3-0.5 0.1-0.5 0-1.2 0.7-1.6 0.6-1.1 0.4-0.5 0.6-0.5 0.4-0.3 0.2-0.2 0.3-0.4 0.2-0.2 0.3-0.2 0.2-0.1 1.9-0.3 0.3-0.1 0.4-0.2 0.4-0.4 0.2-0.3 0.1-0.2 0.1-0.7 0.3-1.2 1.7-5.1 0.2-0.4 1.7-2.5 0.3-0.6 0.1-0.4-0.1-0.3 0-0.3 0.2-0.9 0.1-0.3-0.1-0.8 0.1-0.6 0.1-0.4 0.1-0.3 0.9-1 0.7-0.5 0.2-0.1 0.6-0.2 0.4-0.2 0.1-0.3 0.1-0.5 0.1-0.3 3-3.8 0.3-0.5 0.1-0.4-0.1-0.3-0.3-0.5 0-0.3 0.1-0.8 0.1-0.4-0.2-1.2 0.5-0.3 1.7-2.7 1.1-1.1 1.3-0.8 1.4-0.6 1.7-0.2 5.3 0.5 0.9-0.1 2.3-0.9 0.7-0.1 1.9 0 0.2-0.2 0.9 1.1 1.5 2.4 1.8 2.2 1.6 2.6 1 0.9 1.3 0.6 0.6 0.2 0.9 0.1 0.7 0.3 0.2 0.6 0.2 0.8 0.4 0.6 0.9 0.2 1.8-0.5 0.9 0.1 0.5 0.2 1.2 0.2 0.5 0.2 0.4 0.2 2.7 2.3 0.8 0.5 0.9 0.4 3.5 0.2 3.5 0.7 2.8 0.9 9.9 5.4-3.1 3.6-1 2.2-0.6 1-0.6 0.6-1.1 0.9-0.3 0.3-3.9 1.8-2.6 0.7-0.4 0.1-1.6 0.9-0.8 0.6-0.3 0.4-3.1 6.5-0.2 0.4 0 0.4 0 0.4 0.1 3.1-0.1 1-0.4 1.2-0.9 2-0.8 2.3-0.4 2.8 0 2.9-0.2 0.7-2.1 5.1-0.1 0.7 0 0.8 1.6 5.8 0.1 0.8-0.7 5.3-0.1 0.7 0.2 0.7 0.5 0.4 4.3 1.6 0.3 0.2 0.2 0.3 0.1 0.2 0.7 0.8 0.2 0.3 0.5 0.2 0.1 0.4 0.2 0.5-0.3 2.4 0 0.2 0.3 0.8 0 1.5-0.2 2.2-1.3 4.8-0.7 1.7-0.8 0.9-2.2-0.3-0.7 0.1-0.6 0.5-1.6 2.2-0.1 0.1-0.1 0-0.1 0.1-0.4 0.1-0.3-0.1-0.5-0.1-0.6-0.3-0.7-0.4-0.5-0.6-0.2-0.1-0.7-0.5-0.2-0.1-0.4-0.4-0.1-0.3-0.1-0.3-0.1-0.7-0.2-0.6-0.5-1-0.2-0.2-0.7-0.7-0.1-0.1-0.2-0.1-0.5-0.2-1.5-0.3-0.3-0.1-0.6 0-0.3 0.7-0.4 1.7-0.1 0.4-0.2 0.3-0.5 0.5-0.7 0.5-1.2 0.7-0.9 0.7-0.2 0.2-0.6 0.9-1.4 1.6-0.1 0.3 0 0.3 0.1 0.3 1.3 2.3 0.2 0.5 0.1 0.3 0 0.3 0 0.4-0.1 0.6-0.5 1.7-0.1 0.3 0.1 0.3 0.1 0.2 0.5 0.1 0.3 0 0.1 0.3 0.1 0.7 0.1 0.3 0.1 0.2 0.3 0.5 0.2 0.3 0.1 0.4 0 0.5-0.2 0.3-0.9 1.3-0.3 0.1-0.3 0.1-0.3 0.1-0.3 0.2-0.4 0.6-0.5 0.6-0.5 0.3-0.2 0.3-0.3 0.3-0.9 1.4-1.5 1.6-0.8 1-0.3 0.6-0.5 1.9-0.1 0.7 0.6 1.3 1.7 0.1 0.7 0.2 1.8 1.1 1.9 0.6 0.5 0.4 0.4 0.6 0.2 0.6 0.2 0.6 0.6 0.4 0.6 0.3 0.5 0.1 0.6 0.2 0.4 0.5 0.4 0.6 0.3 1.3 0.3 0.6 0.5 0.5 0.5 0.3 1.2 0.2 0.7 0.4 0.3 0.4 0.3 0.6 0.5 0.5 0.6 0.2 0.4 0-0.3 1.8-5.2 19.6 0 13.8-0.2 1-0.3 0.3-0.6 0.1-1.4 0.1-0.5 0.1-0.5 0.1-0.5 0.4-0.2 0.3 0 0.4 0.1 0.6 0.1 0.3 0.1 0.3 1.3 2.1 0.1 0.7 0 1.1-0.3 2.7 0 1.1 0.1 0.5 0.3 0.1 1.1-0.1 0.3 0.1 0.3 0.2 0.2 0.1 0.3 0.8 0.2 0.2 0.2 0.2 0.3 0.1 0.3 0 0.7 0 0.2 0.1 0.3 0.2 0.2 0.1 0.5 0.6 0.1 0.1 0.2 0.1 0.8 0.4 0.1 0.1-0.2 0.1-0.9 0.4-0.5 0.1-0.7 0-0.1 0-0.1 0.1-0.3 0.4-0.1 0.1-1.3 0.8-0.3 0.3-0.2 0.3-0.4 0.8-0.2 0.2-0.1 0.2-0.5 0.3-1.7 0.7-0.4 0.2-0.3 0.2-0.6 0.6-0.1 0-0.1 0.1-0.4 0.2-1.3 0.2-0.7 0.3-0.1 0.1-0.1 0.1-1.3 2.3-0.2 0.1-0.2 0-0.6 0-0.2 0-0.2-0.1 0-0.1-1-1.1-0.4-0.3-0.3-0.2-0.5-0.2-0.2-0.1-0.2-0.3-0.2-1-0.1-0.2-0.2-0.2-0.3-0.1-0.2 0-0.3 0.1-1.2 0.8-0.3 0.1-0.3 0-1.1 0-0.3 0-0.6 0.2-0.3 0.1-0.2 0.2-0.5 0.6-0.3 0.2-0.5 0.2-0.6 0.2-0.3 0.1-0.2 0.2-0.2 0.1-0.5 0.5-0.3 0.4-4.8 4.1-0.2 0.3-0.1 0.3 1.4 4.7 0.1 0.2 0.2 0.2 1.3 0.5 0.5 0.4 0.1 0.2 0.2 0.3 0 0.3 0.1 1.1 0.2 0.7 0.1 0.2 0.7 0.9 0.3 0.6 0.1 0.3 0 0.4 0 0.3-1.1 2.8-0.1 0.7 0 0.6 0.1 0.4 0 0.5-0.1 0.6 0.1 0.8 0.2 0.7 13.1 13.8 0.7 0.4 6.2 2.3 0.6 0.4 0.2 0.7 0.1 0.7 0.2 11.5 0.2 0.6 0.4 0.3 0.7 0.1 4.2 0.3 0.5 0.2 5.3 4.1 0.4 0.4 0.2 0.4 0.1 0.5 0.1 0.4-0.1 0.4-0.3 0.8-0.1 0.2-0.2 0.3-0.2 0.2-0.4 0.3-1.1 0.6-0.5 0.2-0.3 0.2-0.3 0.3-0.3 0.6-0.1 0.5 0 0.5 0.1 0.7 0 0.4-0.1 0.3-0.2 0.2-0.8 0.4-0.2 0.3-0.3 0.8-0.1 0.7-0.3 4-2.6 0.2-0.9 0.5-1.1 1.2-1.4 2.1-0.2 0.5-0.1 0.5-0.3 0.4-0.3 0.2-0.2 0.1-0.6 0.3-0.6 0.1-0.2-0.3-0.5-0.9-1.1-0.4-1.3 0.1-3 0.5-9-0.4-2.1 0.2-1.9 0.7-3.5 2.8-1.1 0.7-2.2 0.5-1.9 1-1.1 0.3-1.3 0-0.1-0.1-1.9-0.8-1.2-0.2-1 0.2-3.1 1.4-1 0.6-1 1-0.9 1.1-0.3 0.9-0.5 1-1-0.4-1-0.7-0.4-0.4-1.2-0.1-0.8 0-0.4-0.5-0.1-1.6-0.4-0.9-0.8-0.7-1-0.6-0.7-0.3-0.8 0-3 0.4-1-0.1-0.9-0.3-0.7-0.3-5.9-4.6-2.1-0.9-1-0.1-3.4 0.1-0.8-0.3-3-1.9-2.2-2-0.1-0.2-3.8-6.6 0.1-0.2 0.2-0.3 0.2-0.4 0-0.4-0.2-0.1-0.2 0-0.3 0-0.4-0.6-0.8-0.5-0.3-0.5 4.1-5.2 2.6-3.4 1.2-2.5 0.4-2.1-0.8-5.9-0.7-6 0.1-2.3 0.5-2.3 1.7-2.2 2.3-0.3 2.4 0.3 2.3-0.4 1.3-1.4 1.7-3.4 1.7-3.2 3.3-4.2 2.4-2.9 0.4-0.7 0.3-0.8 0.3-1.7 0-0.5-0.3-0.7-0.1-0.4 0.1-0.6 0.7-1.3 0.3-0.8 0.4-2.8 0.4-0.5 0.9-0.1 0.8-0.3 0.4-0.8 0.3-1.7 0.8-0.6 2.8 0.1-0.2-0.4-0.3-1.3 0.2-4.2 1-3.2 0.1-2.3 0.3-1.3 0.2-1.1-0.5-0.6-1.2-0.5-1.1-0.7-0.9-0.9-0.4-1 0.4-2.1-0.1-1.2-0.9-0.5-1 0.3-1.5 1.6-1.2 0.4-1.2-0.1-1-0.2-0.6-0.6-0.1-1.2 0.1-0.6 0.3-0.5 0.3-0.5-0.1-0.7-0.2-0.6 0-0.5 0.4-4 0-1-0.4-1.2-0.7-0.3-1 0.1-1 0-0.5-0.7-0.1-1.1 0.4-2.3-0.1-1.6 0.1-0.6 1.9-2.2 0.8-1.2 0.4-0.9 0.2-1 0-1.4 1.6-6.9-0.4-1.9-0.4-0.5-0.5-0.4-0.4-0.4-0.3-0.7-0.1-0.7-0.1-0.3-0.4-0.3-0.5-0.2-0.9-0.1-3.3 0.5-0.7-0.1-0.6-0.2-0.4-0.4-0.1-0.7 0.1-0.8-0.1-0.6-0.4-1.2 0.1-0.7 0.5-0.4 0.6-0.4 0.6-0.4-0.7-0.5-0.3-0.8-0.4-3 0.1-0.5 5.1-2.3 1.5-0.3 2.2 0.2 1.4-0.1 0.9-0.8 0.5-1.2 0.4-1.4 0.1-1.9-0.4-1.5-1.6-3.1-0.6-2-0.2-1.1 0.1-1 0.7-0.7 0.9-0.4 0.9-0.3 1-0.5 1-0.6 1.2-0.5 0.9-0.7 0.3-1.2-0.2-0.5-0.6-0.8-0.1-0.6 0.2 0.1 1.1-1.6 1.5-1.2 0.2-0.6-0.4-1-0.9-1.1-2.5-2-0.8-1.2-0.2-0.8 0.1-0.4 0.3-0.5 0.4-0.7 0.5-1.2 0-0.4-0.2-1.8-1.8-5.7-0.1-1.2 0.2-1.1 0.1-0.5-0.6-0.8-0.1-0.5 0.2-0.4 0.5-0.3 0.4-0.3 0.2-0.8-0.1-0.9-0.7-1.6 0-1.1 0.1-1 0.4-1.2 0.5-0.9 0.9-0.4 1.3-0.9 0.2-2-0.1-2.4 0.2-2.1 0.8-2 0.3-1.1-0.3-1.1-0.7-1-1.9-0.9-1-0.7-0.2-0.5-0.5-1.8 0-0.6 0.3-0.4 0.4-0.3 0.4-0.4 2-4.1 0.8-1.1z" id="MZB" name="Manica">
  </path>
  <path d="M374.5 868.2l-0.1-2.5 0-0.4 0.3-0.9 0.2-1.3 0-0.4-0.2-1-0.1-0.4-0.2-0.5-0.4-0.8-0.3-0.3-0.4-0.3-0.7-0.4-0.9-0.3-3.7-0.4-0.2-0.1-0.2-0.5-0.1-0.6 0-0.2 0.1-0.2 0.2-0.8 0-0.3-0.3-1.8 0.1-1-0.1-0.5-0.1-0.2 0-0.3 0-0.2 0.1-0.6 0-0.4-0.2-0.3-0.4-0.3-0.8-0.3-0.5-0.2-1.2-0.1-0.3-0.1-0.2-0.2-0.2-0.6-0.3-6.1 0.1-0.3 0.1-0.2 0.2-0.2 0.2-0.2 0.1-0.3 0-0.3-0.2-0.6-0.5-1 0-0.8 0.1-0.9 0.8-3.2 0-0.7-0.5-0.4-2.7-1.1-0.7-0.5-0.8-0.6-0.4-0.5-0.2-0.3-0.3-1.5-0.2-0.6-0.2-0.6-3.3-4.9-2-2.4-0.1-0.3-0.1-0.3-0.1-0.3-0.3-5.7 0.1-0.9-0.1-0.2-0.1-0.3-0.1-0.3-0.4-0.2-0.3-0.2-1.3-0.4-0.6-0.4-0.2-0.2-0.3-0.1-0.3-0.1-0.4 0-1.1 0.2-1.2 0.5-0.4 0.1-0.3 0-0.5 0-0.5-0.2-0.8-0.3-1.5-0.9-1.5-0.6-0.3-0.3-2.9-3.1-0.4-0.4-0.5-0.3-0.8-0.4-6.1-0.8-1.3-0.7-0.4-0.1-1.7-0.3-1-0.3-0.2-0.2-0.7-0.4-3-0.5-1.3-0.4-0.5-0.1-0.3 0-0.4 0-6.6 3.3-0.8 0.5-3-6.5-0.3-2.4-0.4-9.1 0-1-0.3-0.9-0.6-0.7-3.4-2.5-1-0.9-0.7-1.2-2.1-5.1-2-7.1-1.1-2.1-5-5.4-1-2-0.3-2.4 1.1-13-0.3-1.7-3.6-11.3-2.2-6.7-2.7-8.5-2.7-8.4-2.3-7.2 0.5-1 4.2-3 3.4-2.4 2.7-3.1 2.8-3 2.7-3.1 2.8-3.1 2.7-3.1 2.8-3 2.7-3.1 2.7-3.1 2.8-3 2.7-3.1 2.8-3.1 2.7-3 2.8-3.1 2.7-3 2.7-3.1 2.8-3.1 2.7-3 2.6-2.8 1.8-2.1 2 1.3 0-0.3 2.2 2 3 1.9 0.8 0.3 3.4-0.1 1 0.1 2.1 0.9 5.9 4.6 0.7 0.3 0.9 0.3 1 0.1 3-0.4 0.8 0 0.7 0.3 1 0.6 0.8 0.7 0.4 0.9 0.1 1.6 0.4 0.5 0.8 0 1.2 0.1 0.4 0.4 1 0.7 1 0.4 0.5-1 0.3-0.9 0.9-1.1 1-1 1-0.6 3.1-1.4 1-0.2 1.2 0.2 1.9 0.8-0.3 1.2-0.3 0.6-0.2 0.5-1.6 1.9-0.8 1.5-0.4 0.4-0.3 0.4-0.8 0.7-1.1 1.3-0.4 0.7-0.2 0.3-0.3 0.4-0.1 0.3 0 0.3-0.1 0.4 0 0.3 0 0.4 0.7 2.9 0.1 0.6 0 0.5-0.2 0.6-0.1 0.6 0 0.7 0.1 0.4 0.2 0.4 5.3 6.8 3.6 2.8 0.1 0.2 0.1 0.3 0 1.4 0.1 0.8 0.2 0.9 1.6 2.6 0.1 0.6 0.1 0.4-0.2 1.4-0.8 3.7 0 0.4 0.3 1.3 0 1.1-0.1 1 0.1 0.7 0.6 2.3 0.1 1.1 0 0.3-0.1 0.3-0.2 0.2-0.3 0.2-1.5 0.5-0.5 0.3-0.2 0.2-0.1 0.2-0.1 0.3-0.1 2.2 0 0.3-0.6 1.7-0.5 3.2 0 0.4 0.1 0.3 0.1 0.8 0.6 1.3 3.1 5 0.3 0.3 0.3 0.3 0.7 0.4 0.2 0.2 0.4 0.5 0.6 0.9 0.5 0.8 0.9 1.4 1 0.9 1.6 1.1 0.3 0.2 0.5 0.3 1.2 1.1 0.9 0.6 0.5 0.3 0.3 0.5 0.3 0.5 0.4 0.4 0.2 0.2 1.1 0.8 0.4 0.3 0.7 0.9 0.9 1.6 1.8 2.6 0.4 1.1 0.1 1 0 1 0.1 0.4 0.3 0.4 0.3 0.2 0.3 0.2 0.2 0.2 0.5 0.6 0.2 0.2 0.4 0.4 0.7 0.7 0.5 0.7 0.4 0.3 0.4 0.2 0.3 0.1 0.3 0.2 0.6 0.6 0.3 0.3 0.3 0.4 0.3 0.4 1.2 2.2 0.1 0.3 0.2 0.2 0.4 0.4 0.1 0.3 0.1 0.4 0 0.8 0.1 0.5 0.1 0.5 0.7 1.2 0.2 0.5 0.1 0.7 0 1.6 0.1 0.4 0.2 0.4 0.5 0.5 0.3 0.3 0.5 0.3 0.2 0.2 0.1 0.2 0 0.4-0.2 0.3-0.2 0.1-1.5 0.5-0.6 0-0.3 0.1-0.2 0.1-0.1 0.3-0.1 0.3 0.1 0.4 0 0.4 0.2 0.4 0.6 1 0 0.4 0 0.4 0.1 0.3 0.1 0.3 0.5 0.5 0.3 0.3 0.1 0.4 0.2 0.8 0.1 0.5 0.3 0.3 0.1 0.1 0.3 0.1 0.3 0.1 0.7 0 0.4 0.2 0.3 0.3 0.7 1.4 0.1 0.5-0.1 0.3-0.2 0.3-0.2 0.2-0.1 0.2 0 0.3 0.1 0.4 0.3 0.4 0.2 0.3-0.1 0.4-0.2 0.3-0.2 0.2-0.3 0.1-0.2 0.2-0.2 0.2-0.1 0.3-0.2 0.5-0.2 0.3-0.2 0.2-0.8 0.7-0.2 0.2-0.1 0.3 0 0.3 0.2 0.3 0.3 0.1 0.3 0 0.3-0.2 0.5-0.3 0.3-0.1 0.3 0 0.3 0.1 0.2 0.3 0.8 1.5 0.1 0.4 0 0.4-0.2 0.3-0.3 0.4-0.2 0.3 0 0.6-0.1 0.3-0.6 0.9-0.1 0.3 0 1.4-0.2 1 0 0.9-0.1 0.7-0.1 0.4 0.1 0.6 0.2 1 0 0.6-0.1 0.4-0.1 0.2 0 0.4 0.3 3.9-0.1 1 0 0.6 0 0.4-0.1 0.2-0.1 0.1 0 0.1-0.4 0.8-0.2 0.6 0 0.4 0 0.3 0.4 1.7 0 0.4 0 0.5 0.1 0.2 0.1 0 0.4-0.4 0.3-0.2 0.4 0 0.3 0.1 0.3 0.1 0.5 0.2 0.2 0.1 0.3 0 0.6 0 0.1 0.1 0.2 12.3 0.2 0.9 0.2 0.9 6.4 11.2 0.4 0.5 0.4 0.1 2.1-0.7 2.2-0.5 0.7-0.2 0.5-0.3 0.2-0.2 0.5-0.2 0.1-0.1 0.1 0 0.6-0.1 0.3-0.1 0.2-0.1 0.7-0.5 0.3-0.1 0.4-0.1 0.7 0 0.3-0.1 0.7-0.4 0.3-0.1 1.1 0 0.3-0.1 0.3-0.1 1.4-0.7 0.3 0 0.3 0.1 0.2 0.1 0.2 0.2 0 0.3-0.4 0.6-1.6 1.6-0.4 0.6-0.2 0.7 0.5 0.8 3.9 4.1 0.2 0.4-0.3 0.3-7.4 3.9-0.7 0.4-0.4 0.5 0 0.7 0.2 0.8 0.1 0.8 0.3 0.9 0.3 0.6 0.4 0.5 0.9 0.3 4.1 0.1 1.6 0.6 1.6 2.9-6.8 2.9-1.4 0.4-5.8 2.5-2.9 0.4-11.7 4.4-10.7 4-7.5 4-6.3 2.2-7.7 4.3-2.1 0.6 0-0.4 0.8-0.4 0.9-0.6 0.7-0.7 0.5-0.7-0.7 0.2-2.2 1.1-0.4 0.5-0.7 0.5-1.2 0.1-1 0.4 0.4 1.2 0.3-0.2 0.7-0.3-0.7 1.3-1.2 0.8-2.7 1.2-1.1 0.7z" id="MZG" name="Gaza">
  </path>
  <path d="M516 313.4l1.4 0 17.5-0.1 0.4 0.1 0.4 0.1 0.2 0.1 0.6 0.6 0.2 0.1 0.3 0.1 0.3 0.1 0.3 0.1 0.3 0.1 0.4 0.3 0.6 0.3 0.2 0.1 0.4-0.1 0.5-0.4 0.6-1 0.3-0.5 0.2-0.5 0-1.1 0-0.6-0.1-0.3 0-0.4 0-0.3 0.1-0.2 0.1-0.3 1.2-1.4 1.4-2.9 0.2-0.2 0.2-0.2 0.4-0.1 0.3 0 0.9 0.2 0.3 0 0.4 0 0.2-0.1 0.9-0.5 0.3-0.1 0.7-0.1 0.2-0.1 1.9-1.4 0.4-0.1 0.2-0.1 0.7 0 0.3-0.1 0.3-0.1 1.6-1 2.9-3.3 0.7-0.5 0.3-0.4 0.2-0.7 0.3-0.4 0.3-0.3 0.4-0.2 0.4-0.4 2.1-3.3 0.2-0.8-0.1-2.3 26.2 0.4 0.4 0.4 0.9 0.6 0.7 0.8 0.7 0.7 0.3 0.5 0.2 0.2 0.1 0.3 0.1 0.6 0.1 0.2 0.2 0.2 0.3 0.4 0.3 0.5 1 2.9 0.3 0.3 0.4 0.3 1.7 0.9 0.2 0.2 0.2 0.5 0.2 0.3 0.3 0.4 0.3 0 0.3 0 1.1-0.7 0.3-0.1 0.9-0.1 0.3-0.1 0.3-0.1 0.2-0.2 0.2-0.1 0.3-0.4 1-1.7 0.4-0.4 0.7-0.6 0.3-0.1 0.4-0.1 0.6 0 0.4 0.1 0.9 0.5 0.3 0.2 0.2 0.2 0.6 0.9 0.1 0.3 0.3 0.2 0.4 0.3 0.9 0.3 0.4 0.2 0.3 0.3 0.2 0.7 0.3 0.4 0.4 0.1 0.6 0.1 0.4 0.1 0.3 0.1 0.5 0.6 0.6 0.3 0.4 0.1 0.4 0 0.3 0 0.6-0.2 1.4-0.8 0.2-0.2 0.5-0.6 0.2-0.2 0.3 0 0.8-0.1 0.3-0.1 0.3 0 0.5-0.3 0.4-0.3 0.3-0.1 0.4-0.1 0.8 0 0.4 0.1 0.3 0.1 0.2 0.2 0.7 1.1 0.3 0.4 0.2 0.3 0.4 0.2 0.4 0.2 0.4 0.1 0.3 0 0.6-0.3 1.9 0 0.3 0.2 0.3 0.2 0.3 0.4 0.1 0.2 0.6 0.5 0.2 0.2 0.1 0.2 0.2 0.3 0.4 0.4 0.7 0.4 2.6 1 0.6 0.3 0.7 0.6 0.6 0.2 0.6 0.2 0.6 0.5 0.9 0.5 0.3 0.2 0 0.3 0 0.3-0.1 0.2 0 0.3 0.2 0.3 0.8 0.5 0.2 0.2 0.1 0.2 0.5 1 0.3 0.5 0.7 0.8 0.8 0.5 0.8 0.4 0.5 0.2 2.8 0.4 0.3 0 0.7-0.1 1.2-0.3 0.4-0.1 0.2 0.1 1.6 0.8 0.2 0.2 0.4 0.3 0.6 0.5 0.3 0.3 0.2 0.3 0.1 0.1 0.4 0.3 0.5 0.2 0.3 0.3 0.2 0.2 0.2 0.6 0.1 0.3 0.2 0.2 0.9 0.6 0.8 0.6 0.5 0.1 1.3 0.3 0.4 0.1 0.4 0.3 0.2 0.2 0.4 0.4 0.1 0.3 0.3 0.8 0.2 0.9 0.1 0.2 0.4 0.4 0.6 0.4 2.5 1.1 2.5 0.6 0.5 0.3 0.4 0.2 0.1 0.3 0.2 0.9 0.2 0.5 0.2 0.2 0.2 0.1 0.7 0.5 0.1 0.2 0.2 0.2 2.8 1.9 0.4 0.3 0.2 0.5 0.4 0.8 1 1.5 0.2 0.2 0 0.3 0.3 1.2 0.1 0.3 0.2 0.4 0.4 0.5 0.2 0.3 0.1 0.4 0 0.2 0.1 0.4 0.1 0.4 0.9 1 0.3 0.3 0.1 0.2 0 0.3 0 0.3 0 0.4-0.1 0.6 0 0.3 0 0.3 0.1 0.3 0.3 0.5 1.1 1.3 1.1 1.9 1 2.6 0.1 0.3 0.1 0.3-0.1 0.7-0.1 0.3-0.1 0.3-0.5 1-0.1 0.3 0 0.3 0 0.6 0 0.4-0.1 0.6 0 0.4 0.1 0.2 0.7 1.9 0.4 1 0.2 0.6 0.3 0.5 0.6 0.8 0.6 0.9 0.3 0.5 0.4 1 0.5 0.9 0.1 0.2 0.3 0.7 0.3 1.5 0.1 0.2 0.1 0.3 0.6 0.8 0.3 0.5 0.2 0.5 0.3 1.2 0.2 1.1 0 0.2 0.1 0.4 0 0.7 0 0.7 0 0.3-0.1 0.3-0.2 0.2-0.2 0.2-0.4 0.1-0.8 0.1-0.5 0.2-0.6 0.3-0.2 0.1-0.2 0.2-0.1 0.3-0.1 0.2-0.1 0.4-0.1 1.8 0.1 0.6 0.1 0.4 0.1 0.4 0.4 0.5 0.2 0.3 0.2 0.2 1.5 0.6 0.4 0.3 0.2 0.2 0.3 0.5 0.6 1.3 0.4 0.7 0.5 1 0 0.3 0.2 0.4 0.2 0.6 1.3 1.6 0.4 0.8 0.1 0.3 0.5 0.6 0.1 0.2 0 0.3 0.1 0.4-0.2 1.3 0.1 0.6 0.1 0 0 0.9-0.6 0.8-0.9 0.5-1.1 0.2 1 0.4 0.7-0.3 0.5 0 0 1.1-0.3 1-0.6 0.9-0.7 0.7-0.9 0.4-1.9 0.2-1.8-0.1-1.7 0.2-3.1 2-1.9 0.7-8.2 0.7-0.8-0.3-1.3-1.3-0.8-0.2 1.1 1.5-0.9 1.2-1.9 0.7-1.8 0.3 0.2-1-2.5 2.5-0.8 0-0.6-0.4-0.4-0.4-0.3-0.1-0.4 0.3-0.2 0.4 0 0.5 0.2 0.5-14.7 5.9-0.7 0.5-1.2 1.4-0.8 0.5-0.8 0-1-1.3-0.1-3.7-0.7-1.1 0.3 1.2-0.6 0.2-0.7 0-0.6-0.3-0.6-0.3 0.8 1.1 1.2 1.3 0.6 1.2-1.2 0.9 1.1 0.7-1.2 1-3.4 1.3-6.9 1.5-2.9 1.6-6.7 4.6-0.6 0.1 0.2-0.7-1.3 0.5-2 1.7-2 1.5-1.9-0.3-1.2 1.5-6.8 4-1.4 1.4-0.8 0.6-0.7 0.1-0.6-0.4-0.8 1.3-0.6 0.4-0.7 0.2-1.4 0-0.5 0.3-0.2 0.8-0.6 0.9-1.4 0.8-1.5 0.5-1.2-0.3-0.2 2-1.5 1.9-3.7 3.2-3.8 6.4-1.6 1.5 0-0.4-0.3-1.1-0.4 0.4-0.4-0.7-0.5-0.6-0.5-0.4-0.7-0.3-0.8-0.6-0.2-0.7 0-0.8-0.1-0.8-1.1-1.2-1.5-0.6-1.4 0.4-0.7 1.4 1.7-1.1 1.2 0.9 0.7 1.8 0.4 1.8 0.2 2 0.4 0.7 1.8 0.4 0.6 0.4 0.6 0.5 0.7 0.5-1.6 3-0.7 1-1.4 1.4-0.4 0.8-0.2 1-0.4 0.6-1-0.1-1.2-0.4-1-0.1-0.8 0.5-0.5 0.8-0.9 1.7 1-0.4 1.6-1.1 0.7-0.4-0.6 1.2-3.7 4.5-2.1 1.8-4.9 5.7-2.4 2.3-1.8 0.4-0.4 2.2-0.3 0.8-0.3-0.2-1.1-0.5 0.2 1.1 0.1 0.3-0.6 0-1 0-0.7 0.2 0 0.4 0.3 0.7-0.2 0.6-1 1.2-2 4.4-0.8 1.2 0.1-0.7-0.1-0.5-0.3-0.1-0.4 0.2-0.2 0.4-0.2 1.2-0.5 1.2 0.5 0.2 0.4-0.3 0-0.4 0.1 0.1 0.4 0.2 0.2 0.1 0 0.2 0 0.5 0.7 1.3-0.4 0.5-0.9 0.3-0.7 0.4-1 0.4-1.2-0.4-1.1-0.6-1-0.4-1.2-1.2-1.8-3.5-0.1 1.7 1.2 3.8 0.3 2-0.8 1.8 0.5 0.2 0.3 0.2 0.2 0.4 0.1 0.5-0.2 0.3-0.4-0.1-0.8-0.4-1.7 0.3-1.5 0.5-1.9 0.2-0.8-0.8-0.2-3.2 0.1-0.4 0.2-0.5 0-0.2 0.1 0 0.7-0.2 0.8-0.4 0.6-0.6 0.9-1.4-0.1-0.4-0.9-1-0.9-1.4-1.3 0.5-1-0.2-0.2-0.6 1-0.4-0.4-1.1-0.2-1.8 0.2-1.7 1-0.7 0.9-0.2 0.1-0.4-0.3-0.6-0.2-0.7 0.1-2.6-0.3-0.6-0.3-0.6-0.7-2.1-0.1-0.5-0.3-0.3-0.3-0.6-0.3-1.4-0.4-1.3-0.6-1-0.7-0.9-1.1-0.5-0.6-0.6-0.7-0.9-0.6-0.4-2.2-0.9-3.2-1.6-1.1-1.1 0.2-1.4-0.4-0.4-0.8-1.5-0.3-0.4-1.4-1.4 0.5-1.2-1-0.8-2.6-1.3-1.9-1.6-1.1-0.6-1.6-0.4-1.3-0.7-0.7-0.2-0.5 0-1.3 0.4-0.7 0-0.7-0.3-1.6-1.6-0.7-0.4-0.7-0.3-0.5-0.4-0.5-0.6-0.6-1.5-0.4-0.7-0.7-0.5-1.9-1.1-0.4-0.6-0.3-0.9-0.3-2-0.3-0.9-0.3 0-0.3-0.4-0.9-0.8-0.3-0.6-0.7-0.4-1.7-2.2-0.6-0.4-0.6-0.5 0.5-2.3 0-10.7-0.6-3.1 0-0.2 0.1-1.3 0-0.5 0.2-0.4 0.6-1 0-0.4-0.3-2-1.3-2.4-0.2-1.1-0.3-6.3-0.2-0.9 0.4-0.6 0.3-0.7 0.1-0.9-0.1-1.2-0.4-2 0-0.9 0.6-1 0.3-0.7-0.3-0.5-1.7-1-0.3-0.2 0-0.4 0.3-0.3 0.3-0.2 0.1-0.3-0.1-2 0.1-1.2 1.4-1.1-0.3-1.4-1.1-2.1-0.2-1.1-0.1-3.6-0.2-0.3-1.2-1.4-0.2-0.1-0.4-0.2-0.2-0.1-0.2-0.3-0.3-0.5-0.2-0.3-0.3-0.2-1.2-0.4-0.5-0.1-0.6-0.2-0.3-0.5-0.2-0.5-0.8-1.4-0.9-2.4 0.7-0.5 3.6-2.4 0.8-0.8 0.2-1 0-2.1 0.2-0.8 0.1-0.2 1.2-1.5 0.2-0.6-0.6-1.5-0.1-0.6 0.4-2.5 0.9-2.1 1.2-1.3 0.3-0.4 3.6-3.3 1-0.7 1.2-0.3 1 0 1.1 0.3 0.9 0.6 0.3 0.9 0.5 0.5 0.7 0.3 0.6 0 0.4-0.5 0.1-0.8 0.3-0.4 1.3-0.1 5-1.5 0.5 0 1 0.2 0.5-0.1 0.5-0.3 3.8-2.6 0.8-0.9 0.5-1.2 0.1-0.8-0.3-1.7-0.1-0.9 0.4-1.4 0.5-2 0.6-7.8 0.3-4.8 0.5-6.8 0.2-4.3 0-0.1z" id="MZQ" name="Zambezia">
  </path>
  <path d="M342.3 901.4l0.5-1.8 1.4-3.1 4 1.2 1.5 1.4-1 0.9-0.4 0.7-0.2 0.3-1.4 1.2-0.5 0.3-0.6 0-0.5-0.1-1-0.7-0.9-0.3-0.9 0z" id="MZL" name="Maputo">
  </path>
  <path d="M382.1 647.2l0.1 0.1 1.3 0 1.1-0.3 1.9-1 2.2-0.5 1.1-0.7 3.5-2.8 1.9-0.7 2.1-0.2 9 0.4 3-0.5 1.3-0.1 1.1 0.4 0.5 0.9 0.2 0.3 0.6-0.1 0.6-0.3 0.2-0.1 0.3-0.2 0.3-0.4 0.1-0.5 0.2-0.5 1.4-2.1 1.1-1.2 0.9-0.5 2.6-0.2 6-0.6 0.7 0.3 0.6 0.6 0.9 0.2 1.2-0.7 1.5-1.7 1-0.6 1.3 0.6 1.6 1.4 0.8 0.3 0.9 0 1.7-1 1.5-1.9 2.3-3.7 1.4-1.1 6.1-1.9 2.5-2 0.9-0.3 0.6-0.1 0.6-0.1 0.4 0 2.3 1.8 0.6 0.3 1.6-0.2 1.1-1.3 0.9-1.3 2.8-2 0.4-0.4 0.2-0.4 0.6-0.4 5.3-2.2 4.1-0.7 0.7-0.2 1.1-0.8 0.9-0.1 0.3 0-0.2 0.4 0 0.3 0.6 0.1-0.4 1.2-0.2 0.6-0.5 0.5-0.5-0.4-0.6 0-0.5 0.3-0.2 0.7 0.2 0.4 0.4 0.1 0.3 0 0.2 0 0.1 0.4-0.1 0.4 0 1.6-0.4 0.8-0.6 0.5-1 0.2-0.3-0.2-0.4-0.4-0.5-0.1-0.4 0.7 0 0.8 0.3 0.4 0.5 0.2 0.8 0.5 0.2 0.1 0.2 0 0.2 0.3 0 0.3-0.1 0.3-0.2 0.2-0.1 0 0.1 0.6 0 0.5 0.1 0.4 0.5 0.4-0.3 0.7 0.4 0.3 0.6 0.2 0.4 0.3 0.2 0.8-0.4 0.3-0.6 0.2-0.6 0.3-0.6 0.7 0.2 0.2 0.6 0.1 0.5 0.5 0.1 0.6-0.1 2.4 1.3-1.4 1.6-6.6 0 1-0.3 3.6-0.5 1.6 0.4 4.9 1.7 4.3 3.1 5.5 0.8 1 0.7 0.4 1.6 3.9 0.1 2.4-0.2 4.8 0.5 2.5 1.5 3.4 0.2 1 0.3 3.5 0.5 2.7 0.5 4.7-1.6 14.6 0 2.4 0.3 1.4 0.8 0.6 0.9 0.4 0.9 0.5 1 1.8 0.7 0.9 0.4-0.6-0.2-2.5 0.4-0.8 1.2-0.8-1.2-2-0.7-2.8 0-2.8 0.9-2-0.2-0.6 0-0.4 0.2-0.3 0.3-0.3 0.6 1.6 0.5 0.4 0.7-0.9-1.3-2.4-0.5-0.3 0.3-0.7 1.1-1.6 0.1-0.3-0.1-0.4 0-0.3 0.2-0.2 0.3-0.1 0.3-0.1 0.2-0.2 0.1-0.1 0.3-0.7 0.5-0.2 0.6 0 0.4 0.3 0.2 0.5 0 0.7-0.2 1.3 1.1 9.5 0.4-0.9 0.2-1 0.2-3.2 0.5-1.3 0.1-1 0.4 0-0.7 7 0 1.1 0.3 3.8-0.1 1.2-2.6 8.8-0.2 7 1.7 12.4 0.9 2.2 0.5-0.7 0.1-0.3 0.1-0.5 0.9 0.4 0.8 0 0.5-0.3-0.4-0.5 0-0.4 1 0.5-0.2 1.6-1.9 4-1.2 1.6-2 5.1-1 1.7-0.3 0.9-0.2 1.2 0.1 1.1 0.5 2.1 0.1 1.2-0.3 2.4-3.1 9.3-0.8 7.5 0 4.9-0.1 1.1-0.4 1.3-0.5 0.5-0.5-1.2 0.1-1.1 0.2-1-0.2-0.7-1.3-0.3-0.9 0.2 0.2 0.4 0.6 0.5 0.3 0.1 0.3 1.3 0 0.6-0.1 1.1-0.5 2.2-0.1 1.2 0.1 1.9-0.1 0.7-0.2 0.6-0.4 0.8-0.1 0.6 0 0.3 0.3 1.1 0 0.7-0.1 0.7-0.5 1.1-0.1 0.6 0.5-0.1 2.4-2.9-0.8-2-0.1-1 0.5-0.9 0.8-0.1 0.7 0.4 1.4 1.3 1 0.4 0.6 0 0.3-0.5 0.4-4-0.2-0.6 0-0.5 2.2 0.6 0.5 0.6 0.3 2.6 0.1 0.4 0.3 0.2 0.1 0.3-3 9.9-0.1 1.2 0.1 0.7 0.5 1.2 0.1 0.6-0.2 0.5-0.3 0.4-0.4 0.3-0.2 0.3-0.3 1.2-0.6 1.1-8.1 12-5.9 6.5-0.1 0.5 0 0.8-0.2 0.6-0.2 0.5-3.9 3.8-15.4 8.3-8.5 4.1-8.7 2.2-0.2 0.1-1.6-2.9-1.6-0.6-4.1-0.1-0.9-0.3-0.4-0.5-0.3-0.6-0.3-0.9-0.1-0.8-0.2-0.8 0-0.7 0.4-0.5 0.7-0.4 7.4-3.9 0.3-0.3-0.2-0.4-3.9-4.1-0.5-0.8 0.2-0.7 0.4-0.6 1.6-1.6 0.4-0.6 0-0.3-0.2-0.2-0.2-0.1-0.3-0.1-0.3 0-1.4 0.7-0.3 0.1-0.3 0.1-1.1 0-0.3 0.1-0.7 0.4-0.3 0.1-0.7 0-0.4 0.1-0.3 0.1-0.7 0.5-0.2 0.1-0.3 0.1-0.6 0.1-0.1 0-0.1 0.1-0.5 0.2-0.2 0.2-0.5 0.3-0.7 0.2-2.2 0.5-2.1 0.7-0.4-0.1-0.4-0.5-6.4-11.2-0.2-0.9-0.2-0.9-0.2-12.3-0.1-0.1-0.6 0-0.3 0-0.2-0.1-0.5-0.2-0.3-0.1-0.3-0.1-0.4 0-0.3 0.2-0.4 0.4-0.1 0-0.1-0.2 0-0.5 0-0.4-0.4-1.7 0-0.3 0-0.4 0.2-0.6 0.4-0.8 0-0.1 0.1-0.1 0.1-0.2 0-0.4 0-0.6 0.1-1-0.3-3.9 0-0.4 0.1-0.2 0.1-0.4 0-0.6-0.2-1-0.1-0.6 0.1-0.4 0.1-0.7 0-0.9 0.2-1 0-1.4 0.1-0.3 0.6-0.9 0.1-0.3 0-0.6 0.2-0.3 0.3-0.4 0.2-0.3 0-0.4-0.1-0.4-0.8-1.5-0.2-0.3-0.3-0.1-0.3 0-0.3 0.1-0.5 0.3-0.3 0.2-0.3 0-0.3-0.1-0.2-0.3 0-0.3 0.1-0.3 0.2-0.2 0.8-0.7 0.2-0.2 0.2-0.3 0.2-0.5 0.1-0.3 0.2-0.2 0.2-0.2 0.3-0.1 0.2-0.2 0.2-0.3 0.1-0.4-0.2-0.3-0.3-0.4-0.1-0.4 0-0.3 0.1-0.2 0.2-0.2 0.2-0.3 0.1-0.3-0.1-0.5-0.7-1.4-0.3-0.3-0.4-0.2-0.7 0-0.3-0.1-0.3-0.1-0.1-0.1-0.3-0.3-0.1-0.5-0.2-0.8-0.1-0.4-0.3-0.3-0.5-0.5-0.1-0.3-0.1-0.3 0-0.4 0-0.4-0.6-1-0.2-0.4 0-0.4-0.1-0.4 0.1-0.3 0.1-0.3 0.2-0.1 0.3-0.1 0.6 0 1.5-0.5 0.2-0.1 0.2-0.3 0-0.4-0.1-0.2-0.2-0.2-0.5-0.3-0.3-0.3-0.5-0.5-0.2-0.4-0.1-0.4 0-1.6-0.1-0.7-0.2-0.5-0.7-1.2-0.1-0.5-0.1-0.5 0-0.8-0.1-0.4-0.1-0.3-0.4-0.4-0.2-0.2-0.1-0.3-1.2-2.2-0.3-0.4-0.3-0.4-0.3-0.3-0.6-0.6-0.3-0.2-0.3-0.1-0.4-0.2-0.4-0.3-0.5-0.7-0.7-0.7-0.4-0.4-0.2-0.2-0.5-0.6-0.2-0.2-0.3-0.2-0.3-0.2-0.3-0.4-0.1-0.4 0-1-0.1-1-0.4-1.1-1.8-2.6-0.9-1.6-0.7-0.9-0.4-0.3-1.1-0.8-0.2-0.2-0.4-0.4-0.3-0.5-0.3-0.5-0.5-0.3-0.9-0.6-1.2-1.1-0.5-0.3-0.3-0.2-1.6-1.1-1-0.9-0.9-1.4-0.5-0.8-0.6-0.9-0.4-0.5-0.2-0.2-0.7-0.4-0.3-0.3-0.3-0.3-3.1-5-0.6-1.3-0.1-0.8-0.1-0.3 0-0.4 0.5-3.2 0.6-1.7 0-0.3 0.1-2.2 0.1-0.3 0.1-0.2 0.2-0.2 0.5-0.3 1.5-0.5 0.3-0.2 0.2-0.2 0.1-0.3 0-0.3-0.1-1.1-0.6-2.3-0.1-0.7 0.1-1 0-1.1-0.3-1.3 0-0.4 0.8-3.7 0.2-1.4-0.1-0.4-0.1-0.6-1.6-2.6-0.2-0.9-0.1-0.8 0-1.4-0.1-0.3-0.1-0.2-3.6-2.8-5.3-6.8-0.2-0.4-0.1-0.4 0-0.7 0.1-0.6 0.2-0.6 0-0.5-0.1-0.6-0.7-2.9 0-0.4 0-0.3 0.1-0.4 0-0.3 0.1-0.3 0.3-0.4 0.2-0.3 0.4-0.7 1.1-1.3 0.8-0.7 0.3-0.4 0.4-0.4 0.8-1.5 1.6-1.9 0.2-0.5 0.3-0.6 0.3-1.2z m114.7 2.5l0.6-1.1 0.5 0 0.2 0.9 0.1 1.4-0.3 4-1.9 7.9-1 0.1-0.4-0.8-0.1-1.1 0.6-4.3 1.7-7z" id="MZI" name="Inhambane">
  </path>
  <path d="M451.1 388.2l3.9 2.1 4 1.2 1.2 0.6 4.7 4 0.5 0.5 0.7 1.7 1.3 5.4 2.1 3.6 1 2.3 0.6 2.1 0.1 1.1 0.3 0 0.2 0.5 0.9 1.4 0.1 0.8 0.2 0.3 0.5 0.7 1.5 3.8 0.5 2.3 0.2 0.5 0.8 0.9 0.3 0.4 0.7 2 0 0.3 0 1 0.1 0.4 0.2 0.5 0.7 0.9 0.9 0.9 1.6 1.1 1.4 1.3 0.5 0.2 0.3 0.6 0.7 0.5 3.4 1.7 1.2 0.9 0.6 0.4 0.6 0.5 0.6 0.4 1.7 2.2 0.7 0.4 0.3 0.6 0.9 0.8 0.3 0.4 0.3 0 0.3 0.9 0.3 2 0.3 0.9 0.4 0.6 1.9 1.1 0.7 0.5 0.4 0.7 0.6 1.5 0.5 0.6 0.5 0.4 0.7 0.3 0.7 0.4 1.6 1.6 0.7 0.3 0.7 0 1.3-0.4 0.5 0 0.7 0.2 1.3 0.7 1.6 0.4 1.1 0.6 1.9 1.6 2.6 1.3 1 0.8-0.5 1.2 1.4 1.4 0.3 0.4 0.8 1.5 0.4 0.4-0.2 1.4 1.1 1.1 3.2 1.6 2.2 0.9 0.6 0.4 0.7 0.9 0.6 0.6 1.1 0.5 0.7 0.9 0.6 1 0.4 1.3 0.3 1.4 0.3 0.6 0.3 0.3 0.1 0.5 0.7 2.1 0.3 0.6 0.3 0.6-0.1 2.6 0.2 0.7 0.3 0.6-0.1 0.4-0.9 0.2-1 0.7-0.2 1.7 0.2 1.8 0.4 1.1-1 0.4 0.2 0.6 1 0.2 1.3-0.5 0.9 1.4 0.9 1 0.1 0.4-0.9 1.4-0.6 0.6-0.8 0.4-0.7 0.2-0.1 0 0-0.2-0.5-0.2-0.5 0.1-0.3 0.2-1.6 1.7-2.5 3.8-1.1 0.8-1.7 0.2 0.3-1.1-0.2-0.6-0.5 0-0.6 0.6-0.3 0.8-0.2 1-0.4 0.9-0.6 0.7-1.1 0.2-0.6-0.4-0.5-0.7-0.7-0.3-0.5 0.1-0.4 0.3-0.3 0.4-0.2 0.6 0.2 0.5 0.4-0.1 0.5-0.3 0.3 0.1-0.3 0.9-7.5 5.2-0.5 0.5-0.8 1.2-0.5 0.5-0.7-0.2-0.7 0.8-1.1 2 0.3-0.2 0.3 0 0.8-0.1 0 0.3-1.5 0.9-1.4 1.1-2.5 2.6 1.1 0-0.5 0.8-2.3 2.7-0.4 0.2-0.6 0.1-0.4 0.2-0.2 0.5-0.2 0.5-0.3 0.5-2.7 3.6-5.3 5.8-6.1 4.9-5 5.3-1.9 0.8-1.3 0.4-2.8 2.9-1.6 1.3-0.5-0.6-0.6 0.4-1.4 1.7-2.9 1.9-1.6-0.6-0.5-0.5-0.3-0.8-0.3-1.6-0.2-0.8-0.4-0.3-0.5-0.3-2.2-2-2.5-0.9-0.6-0.4-2-3.1-0.5-0.5-0.8-0.4-0.3-0.9-0.2-1-0.3-0.8-0.5-0.3-0.9-0.4-0.9-0.3-0.8-0.1-0.8 0.4-0.5 1.5-0.6 0.4 0 0.4 0.8-0.1 1-0.9 0.9-0.2 0.9 0.1 0.7 0.4 0.5 0.7 0.4 1.7 0.4 0.8 2.8 4.1 0.3 0.2 0.6 0.2 0.9 0.2 0.5 0.2 0.3 0.4 0.4 0.9 1.3 1.4 0.2 0.5-0.3 1.5-0.8 1.5-1.1 1-1.4-0.2 0.1 1 0.5 0 0.7-0.4 0.5-0.2 0.9 0.3 0.2 0.4-0.4 1.6 0 0.9 0.4 1.8 0 0.7 0 0.5-0.1 0.3-0.2 0.2-0.3 0.4-0.2 0.5 0.1 0.5 0.2 0.4 0.1 0.5-0.1 1.2 0.1 0.5 0.2 0.5 0.4 0.8 0.2 0.8 0.2 0.8 0.1 0.5-0.2 0.5-0.4 0.5-0.1 0.4-0.4 0.7-1-0.3-1.7-1-0.8 0.2-0.8 0.3-0.6 0-0.4-0.9 0 0.5 0 0.3 0 0.4 0.8 0.9 3.8 2.1 0 0.4-0.4 0.4-0.4 0.7-0.4 0.8-0.5 1.9-0.3 0.5-1 1.2-0.3 0.8 1.2 0.9-0.2 0.6-0.9 0.6-0.6 0.3-0.7-0.2-0.9-0.5 0.2 0.8 0.3 0.8 0.3 0.7 0.5 0.6 0.6 0.5 1.2 0.2 0.5 0.3 0.2 0.3 0.2 0.8 0 1-0.2 0.7-2.1 1.8-0.2 0.7 1.8-1 1.1-0.2 0.8 0.3 0.1 1.4 0.4 0.6 0.8-0.7 0.4 1.2 0.7 0.5 0.9 0.4 1 0.8 0.6 0.7 0.4 0.7 0.2 0.9 0.1 1.1 0.3 0.5 1.5-1.1 0.7 0.4-0.1 0.9-0.7 0.6-0.6 0.6 0.2 1 0.3-0.5 0.5-0.3 0.5-0.2 0.6-0.1 2.5 0.1 0.3 0.5 1.7 1.5 0.2 0.5 0 0.8-0.1 1.5 0.6-0.4 0.5 0.1 0.3 0.4 0.1 0.7-0.2 0.3-0.7 0.8-0.2 0.6 0.3 1 1.6 1.5 0.6 0.8-0.3 0.6-0.3 0.8-0.1 0.8 0 0.8 1.5-1.2 0.7-0.2 1 0.7 0.4 0.3 0.1 0.1 0 0.2 0.2 0.5 0 0.4-0.3 0-0.9 0.1-1.1 0.8-0.7 0.2-4.1 0.7-5.3 2.2-0.6 0.4-0.2 0.4-0.4 0.4-2.8 2-0.9 1.3-1.1 1.3-1.6 0.2-0.6-0.3-2.3-1.8-0.4 0-0.6 0.1-0.6 0.1-0.9 0.3-2.5 2-6.1 1.9-1.4 1.1-2.3 3.7-1.5 1.9-1.7 1-0.9 0-0.8-0.3-1.6-1.4-1.3-0.6-1 0.6-1.5 1.7-1.2 0.7-0.9-0.2-0.6-0.6-0.7-0.3-6 0.6 0.3-4 0.1-0.7 0.3-0.8 0.2-0.3 0.8-0.4 0.2-0.2 0.1-0.3 0-0.4-0.1-0.7 0-0.5 0.1-0.5 0.3-0.6 0.3-0.3 0.3-0.2 0.5-0.2 1.1-0.6 0.4-0.3 0.2-0.2 0.2-0.3 0.1-0.2 0.3-0.8 0.1-0.4-0.1-0.4-0.1-0.5-0.2-0.4-0.4-0.4-5.3-4.1-0.5-0.2-4.2-0.3-0.7-0.1-0.4-0.3-0.2-0.6-0.2-11.5-0.1-0.7-0.2-0.7-0.6-0.4-6.2-2.3-0.7-0.4-13.1-13.8-0.2-0.7-0.1-0.8 0.1-0.6 0-0.5-0.1-0.4 0-0.6 0.1-0.7 1.1-2.8 0-0.3 0-0.4-0.1-0.3-0.3-0.6-0.7-0.9-0.1-0.2-0.2-0.7-0.1-1.1 0-0.3-0.2-0.3-0.1-0.2-0.5-0.4-1.3-0.5-0.2-0.2-0.1-0.2-1.4-4.7 0.1-0.3 0.2-0.3 4.8-4.1 0.3-0.4 0.5-0.5 0.2-0.1 0.2-0.2 0.3-0.1 0.6-0.2 0.5-0.2 0.3-0.2 0.5-0.6 0.2-0.2 0.3-0.1 0.6-0.2 0.3 0 1.1 0 0.3 0 0.3-0.1 1.2-0.8 0.3-0.1 0.2 0 0.3 0.1 0.2 0.2 0.1 0.2 0.2 1 0.2 0.3 0.2 0.1 0.5 0.2 0.3 0.2 0.4 0.3 1 1.1 0 0.1 0.2 0.1 0.2 0 0.6 0 0.2 0 0.2-0.1 1.3-2.3 0.1-0.1 0.1-0.1 0.7-0.3 1.3-0.2 0.4-0.2 0.1-0.1 0.1 0 0.6-0.6 0.3-0.2 0.4-0.2 1.7-0.7 0.5-0.3 0.1-0.2 0.2-0.2 0.4-0.8 0.2-0.3 0.3-0.3 1.3-0.8 0.1-0.1 0.3-0.4 0.1-0.1 0.1 0 0.7 0 0.5-0.1 0.9-0.4 0.2-0.1-0.1-0.1-0.8-0.4-0.2-0.1-0.1-0.1-0.5-0.6-0.2-0.1-0.3-0.2-0.2-0.1-0.7 0-0.3 0-0.3-0.1-0.2-0.2-0.2-0.2-0.3-0.8-0.2-0.1-0.3-0.2-0.3-0.1-1.1 0.1-0.3-0.1-0.1-0.5 0-1.1 0.3-2.7 0-1.1-0.1-0.7-1.3-2.1-0.1-0.3-0.1-0.3-0.1-0.6 0-0.4 0.2-0.3 0.5-0.4 0.5-0.1 0.5-0.1 1.4-0.1 0.6-0.1 0.3-0.3 0.2-1 0-13.8 5.2-19.6 0.3-1.8-0.4 0-0.6-0.2-0.5-0.5-0.3-0.6-0.3-0.4-0.7-0.4-1.2-0.2-0.5-0.3-0.5-0.5-0.3-0.6-0.3-1.3-0.4-0.6-0.4-0.5-0.6-0.2-0.5-0.1-0.6-0.3-0.6-0.4-0.2-0.6-0.2-0.6-0.4-0.6-0.5-0.4-1.9-0.6-1.8-1.1-0.7-0.2-1.7-0.1-0.6-1.3 0.1-0.7 0.5-1.9 0.3-0.6 0.8-1 1.5-1.6 0.9-1.4 0.3-0.3 0.2-0.3 0.5-0.3 0.5-0.6 0.4-0.6 0.3-0.2 0.3-0.1 0.3-0.1 0.3-0.1 0.9-1.3 0.2-0.3 0-0.5-0.1-0.4-0.2-0.3-0.3-0.5-0.1-0.2-0.1-0.3-0.1-0.7-0.1-0.3-0.3 0-0.5-0.1-0.1-0.2-0.1-0.3 0.1-0.3 0.5-1.7 0.1-0.6 0-0.4 0-0.3-0.1-0.3-0.2-0.5-1.3-2.3-0.1-0.3 0-0.3 0.1-0.3 1.4-1.6 0.6-0.9 0.2-0.2 0.9-0.7 1.2-0.7 0.7-0.5 0.5-0.5 0.2-0.3 0.1-0.4 0.4-1.7 0.3-0.7 0.6 0 0.3 0.1 1.5 0.3 0.5 0.2 0.2 0.1 0.1 0.1 0.7 0.7 0.2 0.2 0.5 1 0.2 0.6 0.1 0.7 0.1 0.3 0.1 0.3 0.4 0.4 0.2 0.1 0.7 0.5 0.2 0.1 0.5 0.6 0.7 0.4 0.6 0.3 0.5 0.1 0.3 0.1 0.4-0.1 0.1-0.1 0.1 0 0.1-0.1 1.6-2.2 0.6-0.5 0.7-0.1 2.2 0.3 0.8-0.9 0.7-1.7 1.3-4.8 0.2-2.2 0-1.5-0.3-0.8 0-0.2 0.3-2.4-0.2-0.5-0.1-0.4-0.5-0.2-0.2-0.3-0.7-0.8-0.1-0.2-0.2-0.3-0.3-0.2-4.3-1.6-0.5-0.4-0.2-0.7 0.1-0.7 0.7-5.3-0.1-0.8-1.6-5.8 0-0.8 0.1-0.7 2.1-5.1 0.2-0.7 0-2.9 0.4-2.8 0.8-2.3 0.9-2 0.4-1.2 0.1-1-0.1-3.1 0-0.4 0-0.4 0.2-0.4 3.1-6.5 0.3-0.4 0.8-0.6 1.6-0.9 0.4-0.1 2.6-0.7 3.9-1.8 0.3-0.3 1.1-0.9 0.6-0.6 0.6-1 1-2.2 3.1-3.6z" id="MZS" name="Sofala">
  </path>
  <path d="M651.2 241.4l1.6-0.3 1.6 0.2 2 0.8 2 0.6 6.6-0.2 1.2-0.2 1.7-1 0.8-0.3 3.5-0.4 1-0.3 2.9-2.3 1.7-0.5 2.2-1.6 3.1-0.7 0.5-0.3 0.3-1.2 0.8-1.1 1-0.7 1.1-0.5 2.3-0.3 1.4 0.1 1.9 0.8 1.2-0.5 1.9-1.5 1.8-1.2 1.2-0.5 1.1-0.2 0.4-0.2 0.5-0.7 0.5-0.2 2-0.4 1-0.4 1.2-0.8 0.9-0.9 0.4-1 0.4-0.6 0.7-0.6 1-0.5 0.8-0.3 1.6-0.3 0.6-0.1 0.3-0.3 0.4-0.4 0.4-0.3 0.5-0.1 2.1-0.2 1-0.2 1-0.4 3-2.2 1.1-0.3 2.2 0 1.7 0.3 0.6 0 1.7-0.9 3-3.7 1.4-1.3 1.5-0.8 0.7-0.6 0.7-1.4 1-0.5 2.2-0.7 0.5-0.4 1.3-1.5 0.7-0.4 0.2 0.1 0.3 0.2 1.9 0.3 0.7 0.4 0.5 0.5 0.7 0.4 2.2 0.3 4.3-1.4 2-0.4 2.4 0 0.9 0.5 0.4 1.2 0.5 1.2 1.2 0.6 1.5 0 1.1-0.5 0.9 0.7 0.8 1 0.8 0.9 1.1 0.3 0.1 0.4-0.7 0.8-1.8 1.6-0.5 1 0.1 1.3 1.5 3.1 0.2 0.9 0.8 6.4 0.7 1.5 0.1 0.6 0.1 0.6 0.8 0.7 0.3 0.5 0.3 0.5 0.1 0.4 0.2 1.4 0.5 2.3 0.1 1.2-0.3 1.4-0.6 0.7-2 0.7 0.6 0.4 0.5 0.5 0.3 0.7-0.1 0.7-0.6 0.6-0.6 0.3-1.5 0.2-1.6 0.9 0.4 0.9 0.7 1.1-0.3 1.6 0.8-0.3 0.5-1 0.5 0 0.4 0.4-0.2 0.6-0.1 0.5 0.6 0.5-0.7 0.6-0.4 0.1 0.6 0.3 0.5 0 0.6-0.2 0.5-0.5 0-1.5 1.3-1 2.6-1.1 0.6 0.4 0.7 0.8 0.2 0.8-0.1 1.6 0.3 0.6 0.9 0.6-0.6 0.7-0.2 1-0.1 1.1 0.2 0.9-0.7 0.2-1.3 1-0.5 0.3-0.8-0.3-1-1-0.8-0.2 1.1 5.9-0.9-0.3-0.5 0.3 0 0.6 0.7 0.5-1.1 1.1 0.1 0.3 0.3 0.3 0.2 0.2 0.1 0-0.4 2.5 0.1 0.8 1.1-1 0.8-1.3 1.4-4.5 0.4-0.4 3.1-1.6 0.7-0.1 1.5 0.5 1.4 1.3 0.7 1.6-0.5 1.6-0.7 0.5-1.6 0.3-0.8 0.3-0.7 0.6 0.1 0.5 0.5 0.3 0.8-0.1 0.6-0.3 0.4-0.6 0.5-0.2 0.7 0.4 0.3 0.7-0.1 0.9-1.1 3.1 0.1 0.6 0.4 0.9 0.2 0.2 0.3 0.2 0.3 0.3 0.3 0.5 0.1 0.3 0 0.8 0.1 0.4 0.1 0.8-0.7 3.2-0.1 0.3 0 0.2 0.3 0.5 0.2 0.3 0 0.3-0.1 0.3-0.2 0.2-2.5 1-0.4 0.5-0.3 0.4-1.9 2-0.7 0.7-0.8 0.4-1 0.3-0.9 0.1-0.4-0.4-0.6-1.6-0.6-0.6 0.2 1 0.1 1 0.2 0.9 0.9 0.8 0.9 0.1 2.5 0 0.6-0.1 0.5 0.8 0.6 1.2 0.4 1.2-0.1 0.9-0.7-0.7-0.6-0.1-0.5 0.3-0.7 0.1-2.9-0.8-0.4 1 0.6 1.6 2 2.6-1.6 0.6-1.7 0.2-1.4 0.6-1.1 1.6-0.7-0.3-1.1-0.2-1-0.1-0.8 0.2-0.2 0.6-0.5 1.9-0.3 0.9 1.8 0.2 1 0.4 0.7 0.5 0.5-1.6 1-0.7 1.4 0.2 1.3 0.8 0.7 1.2 0.4 1.7-0.2 1.5-1.1 0.6 0.7 0.8-0.2 0.7-1.9 2.2-0.3 0.3 0.1 0.9-0.1 0.4-0.3 0.5-0.3 0.4-1 0.9-0.3 0.3-0.1 0.4 0.1 0.9-0.2 0.4-0.4 0.8-0.2 0.8 0.2 0.5 0.6 0-0.3 0.8-0.5 0.7-0.6 0.6-0.8 0.5-0.6 0.3-0.5 0-1.3-0.3-0.2 1.4-0.8 1-2.1 1.5-0.8 0.9-3.2 5.5-10.4 10.9-2.3 1.3-0.3 0.5-0.1 0.7-0.2 0.6-0.6 0.2-0.5 0.1-0.7 0.2-0.6 0.4-0.2 0.5 0.6 0.6 1.1-0.6 1.9-1.9 0.3 1.2-0.4 1-0.6 0.9-0.3 1-0.3 1.4-0.6 0.8-1.7 1.6-2.1 4.2-1.5 2-1.8 0.9-3.3 0-1 0.3-3.2 1.8-1.6 1.3-0.1 0.3 0.1 0.4 0.3 0.2 0.6 0.1 0 0.7 0 1.3 0 0.6 0.4 1.2 0.7 0.9 0.8 0.8 1 0.5-2.4 1.5-0.8 0.4-0.1-0.4-0.3-0.7 0-0.4-0.5 0.2-0.6 0.1-0.5 0.1-0.5-0.1 0.2 0.3 0.5 0.6 0.3 0.3-1.4 0.5-0.5 0.3-0.6 0.7 0.1 0 0 0.4 0 0.4-0.3 0.5-0.8 0.9-1.1 0.7-2.1 1.3-1.6 1.3-2.1 0.6-0.5 0.4-1.3 1.4-9.2 4.8-8 5-0.9 0.8-1.3 2-0.8 0.5-0.9-0.5 0 0.2-0.1 0-0.1-0.6 0.2-1.3-0.1-0.4 0-0.3-0.1-0.2-0.5-0.6-0.1-0.3-0.4-0.8-1.3-1.6-0.2-0.6-0.2-0.4 0-0.3-0.5-1-0.4-0.7-0.6-1.3-0.3-0.5-0.2-0.2-0.4-0.3-1.5-0.6-0.2-0.2-0.2-0.3-0.4-0.5-0.1-0.4-0.1-0.4-0.1-0.6 0.1-1.8 0.1-0.4 0.1-0.2 0.1-0.3 0.2-0.2 0.2-0.1 0.6-0.3 0.5-0.2 0.8-0.1 0.4-0.1 0.2-0.2 0.2-0.2 0.1-0.3 0-0.3 0-0.7 0-0.7-0.1-0.4 0-0.2-0.2-1.1-0.3-1.2-0.2-0.5-0.3-0.5-0.6-0.8-0.1-0.3-0.1-0.2-0.3-1.5-0.3-0.7-0.1-0.2-0.5-0.9-0.4-1-0.3-0.5-0.6-0.9-0.6-0.8-0.3-0.5-0.2-0.6-0.4-1-0.7-1.9-0.1-0.2 0-0.4 0.1-0.6 0-0.4 0-0.6 0-0.3 0.1-0.3 0.5-1 0.1-0.3 0.1-0.3 0.1-0.7-0.1-0.3-0.1-0.3-1-2.6-1.1-1.9-1.1-1.3-0.3-0.5-0.1-0.3 0-0.3 0-0.3 0.1-0.6 0-0.4 0-0.3 0-0.3-0.1-0.2-0.3-0.3-0.9-1-0.1-0.4-0.1-0.4 0-0.2-0.1-0.4-0.2-0.3-0.4-0.5-0.2-0.4-0.1-0.3-0.3-1.2 0-0.3-0.2-0.2-1-1.5-0.4-0.8-0.2-0.5-0.4-0.3-2.8-1.9-0.2-0.2-0.1-0.2-0.7-0.5-0.2-0.1-0.2-0.2-0.2-0.5-0.2-0.9-0.1-0.3-0.4-0.2-0.5-0.3-2.5-0.6-2.5-1.1-0.6-0.4-0.4-0.4-0.1-0.2-0.2-0.9-0.3-0.8-0.1-0.3-0.4-0.4-0.2-0.2-0.4-0.3-0.4-0.1-1.3-0.3-0.5-0.1-0.8-0.6-0.9-0.6-0.2-0.2-0.1-0.3-0.2-0.6-0.2-0.2-0.3-0.3-0.5-0.2-0.4-0.3-0.1-0.1-0.2-0.3-0.3-0.3-0.6-0.5-0.4-0.3-0.2-0.2-1.6-0.8-0.2-0.1-0.4 0.1-1.2 0.3-0.7 0.1-0.3 0-2.8-0.4-0.5-0.2-0.8-0.4-0.8-0.5-0.7-0.8-0.3-0.5-0.5-1-0.1-0.2-0.2-0.2-0.8-0.5-0.2-0.3 0-0.3 0.1-0.2 0-0.3 0-0.3-0.3-0.2-0.9-0.5-0.6-0.5-0.6-0.2-0.6-0.2-0.7-0.6-0.6-0.3-2.6-1-0.7-0.4-0.4-0.4-0.2-0.3-0.1-0.2-0.2-0.2-0.6-0.5-0.1-0.2-0.3-0.4-0.3-0.2-0.3-0.2-1.9 0-0.6 0.3-0.3 0-0.4-0.1-0.4-0.2-0.4-0.2-0.2-0.3-0.3-0.4-0.7-1.1-0.2-0.2-0.3-0.1-0.4-0.1-0.8 0-0.4 0.1-0.3 0.1-0.4 0.3-0.5 0.3-0.3 0-0.3 0.1-0.8 0.1-0.3 0-0.2 0.2-0.5 0.6-0.2 0.2-1.4 0.8-0.6 0.2-0.3 0-0.4 0-0.4-0.1-0.6-0.3-0.5-0.6-0.3-0.1-0.4-0.1-0.6-0.1-0.4-0.1-0.3-0.4-0.2-0.7-0.3-0.3-0.4-0.2-0.9-0.3-0.4-0.3-0.3-0.2-0.1-0.3-0.6-0.9-0.2-0.2-0.3-0.2-0.9-0.5-0.4-0.1-0.6 0-0.4 0.1-0.3 0.1-0.7 0.6-0.4 0.4-1 1.7-0.3 0.4-0.2 0.1-0.2 0.2-0.3 0.1-0.3 0.1-0.9 0.1-0.3 0.1-1.1 0.7-0.3 0-0.3 0-0.3-0.4-0.2-0.3-0.2-0.5-0.2-0.2-1.7-0.9-0.4-0.3-0.3-0.3-1-2.9-0.3-0.5-0.3-0.4-0.2-0.2-0.1-0.2-0.1-0.6-0.1-0.3-0.2-0.2-0.3-0.5-0.7-0.7-0.7-0.8-0.9-0.6-0.4-0.4-26.2-0.4 2.8-2.7 0.7-1.1 0.1-0.4 0.4-0.7 2.3-2.4 0.5-1 0.2-0.6 0.8-1.6 1.4-1.9 2.8-1.1 0.4-0.4 0.3-0.5 1.5-1.7 0.7-0.6 0.5-0.2 1.1-0.3 0.5-0.2 0.9-0.7 0.5-0.3 0.6-0.1 1-0.4 3.4-2.8 0.2-0.3 0.3-0.2 0.6 0 0.7 0.1 1 0.5 0.3 0.1 1-0.2 5.4-2.9 1.8-1.6 1.5-1.6 1.8-2.6 2.1-2.1 0.8-0.5 4.1 0 1-0.7 1.2-1.2 0.8-1.3 0-1-0.5-1.1 0.7-0.8 1.1-0.4 1.1-0.1 4.1 0.3 0.7-0.3 1.4-1.7 0.9-0.6 2.3 0.1 1.2 1.4 1.1 1.7 1.9 0.9 0.8-0.2 0.9-0.6 0.8-0.7 0.4-0.5 0.5-0.3 8.8-1.7 1-0.8 1.8-1.9 2.1-1.1 4.5-0.5 2.1-0.6 1.6-0.7z m77.9 116.5l1.8 0.2 0.1 1.2-0.2 1.2-1.4 1.4-0.4 1.6 0.1 0.9-0.3 0.8-1.3 0.4-1.2-0.4-1.2-1-0.8-1.9 0.2-2.1 0.6-1 1.5-0.7 2.5-0.6z" id="MZN" name="Nampula">
  </path>
 </g>
 <g id="points">
  <circle class="-26.040708312663366|30.745552613208286" cx="249.6" cy="906.6" id="0">
  </circle>
  <circle class="-19.484202944226734|36.06262618029728" cx="527.8" cy="534.3" id="1">
  </circle>
  <circle class="-11.288571233680939|40.31628503396848" cx="750.4" cy="89.1" id="2">
  </circle>
 </g>
 <g id="label_points">
  <circle class="Maputo" cx="338.6" cy="865.8" id="MZL">
  </circle>
  <circle class="Cabo Delgado" cx="701.9" cy="152" id="MZP">
  </circle>
  <circle class="Niassa" cx="551.9" cy="189.5" id="MZA">
  </circle>
  <circle class="Tete" cx="356.1" cy="311.7" id="MZT">
  </circle>
  <circle class="Manica" cx="385.9" cy="510.1" id="MZB">
  </circle>
  <circle class="Gaza" cx="348.4" cy="749.9" id="MZG">
  </circle>
  <circle class="Zambezia" cx="574.2" cy="369.5" id="MZQ">
  </circle>
  <circle class="Maputo" cx="345.7" cy="899.7" id="MZL">
  </circle>
  <circle class="Inhambane" cx="447.4" cy="715.7" id="MZI">
  </circle>
  <circle class="Sofala" cx="466.3" cy="494.1" id="MZS">
  </circle>
  <circle class="Nampula" cx="705.2" cy="287" id="MZN">
  </circle>
 </g>
</svg>