<?xml version="1.0"?>
    
<!--********* Copyright (c) 2024 Pareto Softare, LLC DBA Simplemaps.com ***************************************
************* Free for Commercial Use, full terms at  https://simplemaps.com/resources/svg-license ************
************* Attribution is appreciated! https://simplemaps.com *******************************************-->

<svg baseprofile="tiny" fill="#6f9c76" height="569" stroke="#ffffff" stroke-linecap="round" stroke-linejoin="round" stroke-width=".5" version="1.2" viewbox="0 0 1000 569" width="1000" xmlns="http://www.w3.org/2000/svg">
 <g id="features">
  <path d="M450.3 187.6l0.7 4.4-0.4 1-1.1 1.4-1.1 1.1-1.2 1.5-0.5 1.5-0.9 9.8-0.5 1.9-0.7 1.3-1 0.9-6.2 8-2 3.5-3.8 10.6-1.5 2.1-10 3.7-2.5 1.5-2.4 0.9-5.3 1.1-2.1 0-3.6-0.5-2.6 0-1.8-0.2-2.9-1-3.2-0.5-4.4-1-16.6-8.4-2.3-0.9-1.6-0.3-6.8 0.5-5.8-0.5-1.4 0.1-1.2 0.5-1.9 0.3-1.6-0.6-5.3-3.6-0.7-1.1-0.1-1.3 0-1.7 0-1.9-0.3-1.7-0.6-1-4.3-4.5-1.9-1.7-1.5-0.8-6.5-2-6.7-2.9-2.5-0.2-1.2 0.8-0.4 0.3-0.1 0.1-0.9 0.5-1.3 0.4-1 0-0.9-0.2-2.3-1-0.7-0.5-0.5-0.7-0.2-0.7 0-0.8 0.3-1.3 0.3-0.9 0.2-0.9 0.3-1.3 0-1.2-0.1-1.1-0.5-1.5-5.1-2.4-8.4-0.2-1.8 0.4-11.1 5-1 0.8-0.8 0.8-1.3 2.2-0.8 0.9-1.1 0.8-0.9 0.8-0.7 1-0.6 1.3-1.7 1.9-1.4 0.6-1.4 0.1-1-0.6-0.7-0.8-0.7-1.4 0-0.1-0.4-0.2-0.4-0.4-2.3-0.7-10 4.6-9-0.8-2.2-0.7-2.5-1.2-1.7-1-1.9-0.5-6-1.1-9.2-3.2-3.9-0.7-2.1-0.7-0.7-0.6 0-0.9 0.2-1.2-0.2-3.2-2.8-3.5-1.5-1.5-1.5-1.2-3.3-2.1-0.8-0.7-0.5-1.6-0.3-2.1 0.9-7.8-0.9-2.1-0.4-1.3-0.1-1.3 0.5-1.2 1-1.4 3.5-3.5 1.7-1.3 4.6-1.5 1.6-0.2 2.1-0.1 0.9 0.2 0.8 0.5 2.8 2.6 1.2 0.5 1.4 0.1 1.9-0.3 3.9-1.2 0.7-2.3-1.2-2.1-1.1-2.4-0.5-3 0.1-3 0.3-2.5 0.7-2.1 1.2-1.7 4.4-3 1.8-1.8 0.7-2.7 0.1-2-0.1-2.7-0.4-1.2-0.6-0.8-2.2-0.6-0.6-0.1-1.8-0.9-1.4-1-1.3-1.2-1.1-1.5-0.7-2.3-0.1-1.5 0.1-1.1 3.1-10 0.5-3.2 0.2-4.1 0.3-1.6 0.4-1 0.6-0.7 1.5-1.2 0.9-0.8 0.6-0.8 0.5-1 0.2-1-0.1-1.5-0.5-1.2-1.1-0.9-1.5-0.5-4.3-0.9-1.9-0.8-1.4-1.1-1.4-0.5-2-0.4-8.3 0.2-1.3 0.2-1.3 0.3-2.3 1.4-2.8 4.2-0.7 0.5-0.6 0-0.8-0.2-1.1-0.6-2.3-1.8-0.5-1-0.1-1.1 0.3-2.5 0.1-1.4-0.2-1.2-0.5-1.2-0.4-0.8-0.6-0.8-1.1-2.4-0.7-2.1-0.3-0.2-0.7-0.2-2.5 0-3.6 0.4-1.1-0.3-0.8-0.5-1.4-1.2-1-0.6-2.4-1-2.1-1.5 0.3-1.1 0.5-1.3 0.3-1.9 0-1-0.1-1.4-0.4-1.1-0.8-0.8-0.1-0.1 1.7-0.1 1.8 0.1 1.5-0.2 1.8-1.3 1.3-1.7 0.8-2.2 0.1-1.2 0.6-0.4 0.7-0.5 0.1 0 1.1-0.5 1.1-1.1 0.5-0.9 0.2-0.5-0.3-2.4 0-1.5 1-1.7 0.9-1.1 0.6-1 0-0.9-0.5-0.6-0.6-0.4-0.4-0.2-0.2-0.4 0.2-0.3 0.8-0.4 1.1-0.9 0.6-0.5-0.1-0.5-0.5-0.4-1.3-0.4-0.6-0.2-0.6-0.3-0.1-0.6 0.6-0.9 0.2-0.3 0.2-0.4 0-0.6-0.5-1.2-0.1-1.3 0.2-0.7 0.2-0.4 0.7-0.1 1.4 0.1 0.1-0.2 0.3 0.1 4.1 4 2.2 1.3 3 0.4 1.2-0.4 1.3-5 0.5-1 1.9 0.7 0.2-0.3 0.2-0.4 0-0.9 0.7-0.1 1.5-0.7 0.6-1.1 0.3-1.1 0.7-0.8 2.4-0.3 0.1 0 0.1 0 2.4 0.7 13.6 6.3 2.4 0.6 2.5-0.4 2.4-0.9 2.4-0.4 4.8 2.1 3.8-0.3 1.9 0.3 0.5 0.3 0.8 0.5 1.3 1.9 0.8 0.7 1.1 0.2 0.8-0.3 0.5 0.4 1.4 0.1 0.8-0.5 0.6-1 1.9-0.2 0.2 0.1 0.1-0.1 1.6-0.1 1.1 0.1 0.1 0.1 0-0.1 1.4 0.2 1.8 0.9 0.5 2-1.3 7.4 0.4 3.4 1.2 2.3 2 1.4 3 1.1 1.7 1.6-0.6 2.5-2.6 4.9 0.1 1.8 0.8 2.7 1 2.6 1.1 1.4 2.2 0.4 2-0.8 2.1-0.4 5 3.2 2.3 0.4 2.3 0 2.5 0.6 0.9 0.8 1.3 2.2 1 0.7 1.8 0.3 1.7-0.3 1.7 0 1.7 1.1 1.5 2 1.8 1.8 2 1.5 2.1 1.1 5.4 1.7 2 1.1 8.6 10.8 1.9 1.4 1.2-0.1 2.3-0.7 1.1 0.1 1.3 0.8 0.1 1.1-0.6 1.3-0.3 1.5 1 2.2 6.8 5.3 2.1 3.3 1.2 1.1 1.4 0.7 1.3 0.5 1.2 0.8 0.7 1.5 1.6 2.4 2.3-0.9 2.6-1.9 2.2-0.9 1 0.5 1.6 1.9 1 0.7 1.1 0.1 2.5-0.3 1.3 0.2 6.3 5.6 0.9 1.3 1.6 3.1 1.1 1 1.7-0.1 0.6-1.4 0.3-1.8 0.6-1.4 0.8-0.3 0.9-0.3 0.1 0.2 0.4-0.3 1.5-0.4 1-0.1 1.1 0.2 0.1 0 0.6-0.3 2.6 1.3 1.2 1.9 0.2-0.1 0.1-0.1 0.3-0.4 0.4 1.5 0.3 0.5 0.9 0.6 1.9 0.6 0.8 0.5 2.6 2.7 0.9 1.7 0.3 1.9-0.4 1.1-0.7 0.7-0.5 0.8-0.2 1.6 1.8 2.7 7.2-1.5 3 3.1 0.3 2.3-0.3 1.9 0.2 1.6 3.4 2.8 0.3 1.5-0.2 1.5 0.6 1.8 1.3 1.3 1.4 0.7 1.2 0.9 1 3.6 1.2 1.1 3.1 1.3 2 1.4 1.1 1.9 1 4.8 0.2 2.8 0.3 1.3 0.8 1 1.3 0.6 2.9 0.4 1.2 1 1.3 0.8 4.5 0.8 1.7 0.1 1.7-0.7z" id="NPKA" name="Karnali">
  </path>
  <path d="M163.2 76.2l-2.4 1.7-1.7 1.7-3.3 4.8-1.5 2.9-0.5 1.6 0.1 0.9 0.5 0.4 0.8 0.6 0.9 0.8 0.7 1 0.5 1.2 0.3 1.3 0.4 3.2 1.9 7.2 0.1 4.3-0.7 2.1-1.3 1.4-1.4 0.5-2.5 0.2-0.7 0.2-3.5 2-1.1 0.3-0.9 0.1-1 0-1.1 0-4.2 1-3.3 1.4-2.2 1.8-1.6 0.6-1.3 0.2-1.9-0.3-1.5 0.4-2.8 2.3-0.4 0.7-0.3 1.1 0.2 0.8 0.6 1.2 0.5 1.5 0.3 2 0 2.9-0.4 1.6-0.8 1.2-1.1 1.1-0.9 2 0.2 1.2 1.2 0.9 3.2 0.8 2.4 0.3 0.7 0.2 0.4 0.4 0.3 0.2 2.4 3.4 5.5 5.5-3.5 4.6-3.6 2-4.8 1.6-1.6 1.6-1.6 4.1-1.5 2.6-0.8 1.9-0.4 1.8-0.2 1.7-0.8 2.5-1.2 2.1-2.2 2.9-1.4 1.4-1.6 1-5.4 1.7-2 1.1-3 2.9-1.1 1.6-0.6 1.7-0.2 1-0.8 0.9-0.4 0.8-0.4 3.4-1.6 1.8-0.7 1.8-0.7 2.7-1.8 3.6 1.1 7.1-0.7 9.5 0.1 1.6 0.3 1.4 0.2 0.8 0.6 1.1 1.6 2.6 0.6 1.4 0.8 2.5 0.2 1.6-0.1 9.3 0 0.2 0 0.1-1.9-0.1-2.3 1.2-1.1 1.8-0.3 2.2 1 8.1-0.6 1.7-2.2-1.2-4.7-5.8-2-1.2-2.3-0.1-2.1 0.6-2.2 0.3-2.2-0.9-1.3-1.6-3-6.3-0.9-0.8-2-0.5-0.9-0.4-0.9-1-1.1-2-0.7-0.8-1.9-1.2-3.9-0.7-2.1-0.7-1.6-1.3-3.8-5-3.6-2.2-1-0.2-2-0.4-2.1-1.6-0.6-5.2 0-2.6 0.4-2.3 0.7-2.1 1.4-2.1 1.7-1.4 1.9-1 1.6-1.2 0.9-2.2-0.3-4.2 0.9-5.7 2.2-4.9 3.4-1.7 1.9 0.3 2.4 0 2.1-0.6 1.4-1.7-0.3-2-1.9-5.3 0.6-1.9 1.9-0.3 1.4 1.2 1.1 0.2 2.3-8.4 0.5-3-0.3-2.4-0.9-0.7-1 0.1-0.9-0.2-0.7-1.3-0.8-5.2-2.3-4.2-0.9-2.2 0.5-2.2 1.2-0.9 3.2-1.1 0.7-1.2 0.3-1.6 0.8-0.9 1-0.7 1-1.3 2.3-1.8 0.9-1 0.8-1.1 0.1-0.7-0.3-0.7-0.2-0.8 0.4-0.9 0.6-0.5 1.4-0.7 0.7-0.5 2.5-2.8 1.3-2.7 0.2-2.8-1.1-3.4-1.5-3.4-1-3.2-0.1-3.3 1.7-3.6 2.9-2.4 6.7-1.8 2.4-2 5.7-7.2 2.5-4 1.4-4.7 1-2.2 1.7-0.9 4-0.6 2.1-0.6 1.4-1 2.9-2.7 4-2.8 1.1-1.2 3.4-5.4 1.5-1.6 6.8-5.2 2.2-3.4-1.5-3.4 1.6-1.5 1.9-2.4 1.8-1.3 1.1 1.6 1.1 2.3 1.9 0.4 7.5-2.5 0.9-0.1 1.2 1.1 1.4 2.1 1.3 2.5 1.4 4.2 2.6 4.3 0.9 2 1.1 5.7z" id="NPMA" name="Mahakali">
  </path>
  <path d="M185.1 71.4l2.1 1.5 2.4 1 1 0.6 1.4 1.2 0.8 0.5 1.1 0.3 3.6-0.4 2.5 0 0.7 0.2 0.3 0.2 0.7 2.1 1.1 2.4 0.6 0.8 0.4 0.8 0.5 1.2 0.2 1.2-0.1 1.4-0.3 2.5 0.1 1.1 0.5 1 2.3 1.8 1.1 0.6 0.8 0.2 0.6 0 0.7-0.5 2.8-4.2 2.3-1.4 1.3-0.3 1.3-0.2 8.3-0.2 2 0.4 1.4 0.5 1.4 1.1 1.9 0.8 4.3 0.9 1.5 0.5 1.1 0.9 0.5 1.2 0.1 1.5-0.2 1-0.5 1-0.6 0.8-0.9 0.8-1.5 1.2-0.6 0.7-0.4 1-0.3 1.6-0.2 4.1-0.5 3.2-3.1 10-0.1 1.1 0.1 1.5 0.7 2.3 1.1 1.5 1.3 1.2 1.4 1 1.8 0.9 0.6 0.1 2.2 0.6 0.6 0.8 0.4 1.2 0.1 2.7-0.1 2-0.7 2.7-1.8 1.8-4.4 3-1.2 1.7-0.7 2.1-0.3 2.5-0.1 3 0.5 3 1.1 2.4 1.2 2.1-0.7 2.3-3.9 1.2-1.9 0.3-1.4-0.1-1.2-0.5-2.8-2.6-0.8-0.5-0.9-0.2-2.1 0.1-1.6 0.2-4.6 1.5-1.7 1.3-3.5 3.5-1 1.4-0.5 1.2 0.1 1.3 0.4 1.3 0.9 2.1-0.9 7.8 0.3 2.1 0.5 1.6 0.8 0.7 3.3 2.1 1.5 1.2 1.5 1.5-7.4 5.5-1.6 0.5-1.2 1-5.3 6-0.3 2.7 0.8 2.8 1.4 2.3 1.5 0.9 5.8 8.8 4 4.4 1.5 2.6 0.7 3 0.9 2 1.5 1.5 0.3 1.5-2.7 1.6-1.9 0.8-0.9 0.2-1.1-0.1 0-0.9 1.4-1.1-0.2-0.7-1.2-0.8 0.4-4-4.8-5.6-1.7-3.6-1.8-2.3-1.9-0.6-9.8 1.2-1.1-0.4-2.6-1.7-1.2-0.5-2.4-0.2-7.2 1-2.3-0.6-5.8-4.6-4.5-2.3-2.3-0.8-2.3-0.4-2.1 0.6-2.4 1.4-1.8 1.7-0.6 1.6 5.5 5.8 4.1 3.4 1.9 1.1 1.5-0.4 1.5-0.9 1.5-0.3 1.4 1.3 1.5 3.4 1-0.3 4.5 2.6-0.4-1.6-1.4-2.9-0.5-1.6 1.6 0.9 1.5 1.4 1.1 1.9 0.7 4.3 1.2 4 3.6 8.2 0.4 2.4-0.3 2.5-0.7 2.9-1 1.1-0.8 1.1-15.6 17.1-1.3 1.1-3.8 2.3-1.2 1.7-1.3 4.9-0.1 2.1-5.2-1-0.8-1.4-0.2-1.6-0.4-1.3-1.3-0.8-1.7 0.6-2.2-0.1-2.2-0.4-1.8-0.6-2.1-1.5-0.5-1.8-0.2-1.9-0.9-1.9-1.6-0.7-4.6 0-2-0.4-1.9-1.2-4.3-4.5-1.8-1.2-3.5-1-1.9-0.9-1.2-1.5-2.2-4.2-1.4-1.1-4.2-0.7-1.9-0.7-2-1-0.7-1 0-1.2 0.2-1.1-0.3-0.8-2.4 0 0-0.1 0-0.2 0.1-9.3-0.2-1.6-0.8-2.5-0.6-1.4-1.6-2.6-0.6-1.1-0.2-0.8-0.3-1.4-0.1-1.6 0.7-9.5-1.1-7.1 1.8-3.6 0.7-2.7 0.7-1.8 1.6-1.8 0.4-3.4 0.4-0.8 0.8-0.9 0.2-1 0.6-1.7 1.1-1.6 3-2.9 2-1.1 5.4-1.7 1.6-1 1.4-1.4 2.2-2.9 1.2-2.1 0.8-2.5 0.2-1.7 0.4-1.8 0.8-1.9 1.5-2.6 1.6-4.1 1.6-1.6 4.8-1.6 3.6-2 3.5-4.6-5.5-5.5-2.4-3.4-0.3-0.2-0.4-0.4-0.7-0.2-2.4-0.3-3.2-0.8-1.2-0.9-0.2-1.2 0.9-2 1.1-1.1 0.8-1.2 0.4-1.6 0-2.9-0.3-2-0.5-1.5-0.6-1.2-0.2-0.8 0.3-1.1 0.4-0.7 2.8-2.3 1.5-0.4 1.9 0.3 1.3-0.2 1.6-0.6 2.2-1.8 3.3-1.4 4.2-1 1.1 0 1 0 0.9-0.1 1.1-0.3 3.5-2 0.7-0.2 2.5-0.2 1.4-0.5 1.3-1.4 0.7-2.1-0.1-4.3-1.9-7.2-0.4-3.2-0.3-1.3-0.5-1.2-0.7-1-0.9-0.8-0.8-0.6-0.5-0.4-0.1-0.9 0.5-1.6 1.5-2.9 3.3-4.8 1.7-1.7 2.4-1.7 0 0.2 1.5 1.2 3-0.8 2.6 0 5.2 2.4 2.5-0.5 1.2-1.8-0.1-1.4 5.1-2.5 0.3-0.4 0.6-1.1 0-0.1z" id="NPSE" name="Seti">
  </path>
  <path d="M393.7 241.6l3.2 0.5 2.9 1 1.8 0.2 2.6 0 3.6 0.5 2.1 0 5.3-1.1 2.4-0.9 2.5-1.5 10-3.7 1.5-2.1 3.8-10.6 2-3.5 6.2-8 1-0.9 0.7-1.3 0.5-1.9 0.9-9.8 0.5-1.5 1.2-1.5 1.1-1.1 1.1-1.4 0.4-1-0.7-4.4 0.1-0.1 0.9-1.8 0.5-2.2 0.8-2.1 0.3-0.2 0.7-0.6 0.4-0.5 0.2-0.1 0.2-0.4 0.5-0.4 2.7-1 2.8-0.1 2.8 0.3 2.6-0.3 5-2.5 2.6-0.8 0.8-0.4 1-1.7 0.6-0.7 3.5-0.9 2.1-0.3 1.4 0 1.4 0.3 1 0.6 0.7 1 0.3 1.7 1.4-0.8 1.4-0.4 1.3 0.3 1 1.4 1.5 1.5 2-0.3 2.1-0.9 2 0.1 1 1.2 0.7 3.5 0.8 1.4 1.5 0.3 1.8-0.2 1.5 0.2 0.7 1.8-0.7 2.1-1.5 2-1.1 2.1 0.7 2.5 2.5 2.4 0.6 0.9 0.4 1.2 0.7 4.1 2.5 1.5 2.5 0.8 1.2 1.7-2.7 10.9 2 3.4-0.9 0.4-3.5 0.8-3 2-1.5 0.5-4.7 0.6-1.6 0.7-1.3 0.9-0.9 0.9-2.8 2.3-2.9 2-1.8 0.6-1.8 0.2-2.2-0.3-2.2 0-1.4 0.6-1 1-1.4 2.4-1.1 1.3-7.1 6.2-2.8 1.4-1.5 1-0.8 0.8-0.3 0.6 0.5 1.3 4.7 5.6 0.4 1 0.4 1.8-4.7 4.2-0.5 1.2-0.6 1.9 0.4 3.1-0.3 1.8-0.8 1.6-1.7 2-0.2 0.2-2.2 3-0.9 1.8-1.6 5.3-1 1.3-0.9 0.8-1.9 1.2 2.6 4.3 1 4.3 0.8 1.3 1.2 1.6 1 2.3 0.8 1.2 1.9 1.9 0.4 1.1 0.1 3.2-1.7 3.9-1.3 1.1-1.4 1.7-1.4 2.3-2.3 2.9-0.5 1-0.8 2.9-2.9 7.3-1.3 2.1-1.4 1.3-6.3 1.9-1.6-3.3-1-0.4-0.8 0.1-0.8-0.2-0.5-1.3-0.2-1.5 0.4-0.7-0.2-0.9-0.7-0.8-5.2-4.5-1.2-0.7-1.5-0.6-2.2-0.4-3.2-0.2-1.5-0.5-1.8-1.3-1-1.2-0.8-1.3-1-1-1.4-0.9-2.4-1.3-1.5-0.5-3-0.1-1.6-0.5-2.2-1.3-6.1-5.5-2.3-0.9-1.9-0.5-8.8 1.6-0.5-3.4-1.5-2.1-2.5-2.4-10.3-8-1.2-3.5-0.8-1-1.5-1.3-0.9-1.2-1.3-3.1-1.1-0.9-0.7-1.3 2.7-4.1-1.4-1.2 0-1 0.6-1.3 2-1.9 1.7-0.7 1.4-0.1 1.2 0 0.9-0.4 0.5-1.3 0-1-0.4-0.9-1.2-1.6-0.3-0.9 1.2-1 2.7-1.2 5.9-1.7 6-2.6 3.6-5.2 1.3-2.6 0.5-3.6z" id="NPDH" name="Dhawalagiri">
  </path>
  <path d="M443.1 334.7l6.3-1.9 1.4-1.3 1.3-2.1 2.9-7.3 0.8-2.9 0.5-1 2.3-2.9 1.4-2.3 1.4-1.7 1.3-1.1 1.7-3.9-0.1-3.2-0.4-1.1-1.9-1.9-0.8-1.2-1-2.3-1.2-1.6-0.8-1.3-1-4.3-2.6-4.3 1.9-1.2 0.9-0.8 1-1.3 1.6-5.3 0.9-1.8 2.2-3 0.2-0.2 1.7-2 0.8-1.6 0.3-1.8-0.4-3.1 0.6-1.9 0.5-1.2 4.7-4.2-0.4-1.8-0.4-1-4.7-5.6-0.5-1.3 0.3-0.6 0.8-0.8 1.5-1 2.8-1.4 7.1-6.2 1.1-1.3 1.4-2.4 1-1 1.4-0.6 2.2 0 2.2 0.3 1.8-0.2 1.8-0.6 2.9-2 2.8-2.3 0.9-0.9 1.3-0.9 1.6-0.7 4.7-0.6 1.5-0.5 3-2 3.5-0.8 0.9-0.4 1.1 1.8 5.7 3.3 7.6 1.6 1.4 0.6 1.1 1 1.9 3.1 2.3 2.1 1 1.1 1.7 5.9 1.4 2.4 2.8 0.9 2.6-0.1 1.9 0.8 1.8 1.1 2.2 0.8 6.2 1.1 1 0.6 1.1 2.2 0.7 0.9 2.2 0.8 2.1 0.5 1.4 1-0.6 5.9 1.4 1.1 5.1 0.2 2.2 1.1 2.9 3.4 1.9 1.6 1.5 0.6 1.3 0.1 6.2-0.4 1.3 0.3 1.9 0.6 1.2 0.2 1.1-0.4 0.9-0.8 1.4-3 0.6-0.8 3.4-1.8 1-0.3 0.9-0.4 0.8-1 1.1-2.3 0.7-1 0.8-0.8 2.5-0.5 2.2 0.8 4.2 3 5.4 1.7 0.8 1.5-1.2 6.4-0.4 1-0.6 1.2-0.9 0.6-1.9 0.8-0.6 0.9-0.2 0.8 0 1.5 0 0.1 0 0.8-0.7 1.7-2.9 1.7-0.7 1.3 0.9 6.9 0 2.5-0.4 3.8-2.1 1.1-1.6 1.7-2.2 4.5-1.2 1.2-4.4 3.6-1.6 1.9-1.1 2-1.8 7.1-1.4 2.8-1.1 1.2-1.2 0.7-3 0.6-2.2 0.9-2 1.3-1.1 1.1-0.9 1.1-5.7 11-1.6 2-3.5 3.4-0.6 1.2-0.2 1.4 0.3 0.8 0.4 1.2 2.2 3.7 0.5 1.9 0.2 1.8-0.4 2.5-0.6 1.3-0.8 0.8-0.9 0.3-0.9 0.1-1 0-1.1-0.1-1-0.3-0.8-0.5-0.7-0.8-0.5-0.7-0.6-0.7-0.3-0.3-1.2-0.8-1.3-2.1-1.3-1.5-1.1-0.8-1-0.5-1.1-0.3-1.2-0.2-1 0.2-0.7 0.3-2.3 1.9-6 4.2-5.1 2.1-0.8 1-0.3 2 0.4 1.2 0.6 0.9 0.4 0.4 0.5 0.5 0.2 0.8-0.5 0.3-3.8-0.4-1.6 0.5-1.3-2.1-1.1-1.1-2 0.2-1.5 1.2-1.3 1.4-1.3 0.7-1-0.1-0.8-0.3-0.4-0.6-0.1-1.2-0.3-1-1.5-1-0.6-1-0.3-2.1-0.1-1.6-0.6-1.3-2-1.1-4.8-1-10-0.1-4.8-1.1-2.2-1.3-4-3.5-2.2-0.9-2.8 0.3-5 2.8-2.6 0.7-1.6-0.2-3-0.7-1.5-0.2-1.2 0.3-2.6 1-1.1 0-1.6-0.9-3.1-3.2-1.9-1.1-2.7-0.3-9 0.1-2 1.1-0.8 0.2-4-1.5-1.3 0.1-1.5-0.8-1.8-0.3-3.2 0.1-3.2-0.6-1.3 0.2-1.3 1.4-1.6-1.4-1.8-1-1.1-1.1 0.7-1.7 1.7-1 1.9 0.1 3.3 0.9 4.1-0.7 3.5-1.9 1.7-2.8z" id="NPGA" name="Gandaki">
  </path>
  <path d="M562 355.2l1.2 0.8 0.3 0.3 0.6 0.7 0.5 0.7 0.7 0.8 0.8 0.5 1 0.3 1.1 0.1 1 0 0.9-0.1 0.9-0.3 0.8-0.8 0.6-1.3 0.4-2.5-0.2-1.8-0.5-1.9-2.2-3.7-0.4-1.2-0.3-0.8 0.2-1.4 0.6-1.2 3.5-3.4 1.6-2 5.7-11 0.9-1.1 1.1-1.1 2-1.3 2.2-0.9 3-0.6 1.2-0.7 1.1-1.2 1.4-2.8 1.8-7.1 1.1-2 1.6-1.9 4.4-3.6 1.2-1.2 2.2-4.5 1.6-1.7 2.1-1.1-0.2 1.6 0.8 1.9 2.5 1.5 2.8 0 2.2-1.1 2.2-0.5 3.5 3.3 2.1 0.9 2.2 0.5 1.8 0.1 1.5-0.4 3.1-1.4 1.3-0.2 1.4 0.7 1.1 1.1 1.1 0.9 2 0.2 1.7-0.8 2.6-2.9 1.5-1 1.9 0 1.7 0.6 3.2 1.6 2.4-0.4 2.6 0 2.6 0.3 2.4 0.6 2.3 1.6 1.5 1.5 1.4 0 2.7-4.2 0.3 1 1.1-1.4 0.3-1 1.9-0.7 0.8-0.7 0.1-1.1 0-1.2 0.3-1.1 1.6-0.3 0.5 2.8 0.2 5.6 1.8 3.3 2.1 2.7 2.5 2.4 2.9 1.9 4.9 2.2 2.4 1.5 1.7 1.9 0.4 1.4 0.5 2.8 2 2.6 0.2 1.2-0.1 1.2 0 1.5 0.9 2.9 1.2 1.8 3.9 3.5 1.4 2.3 0 2.4-0.5 2.6-0.1 2.6 1.3 3.1 2 0.8 5.1-0.6 2.8 0.3 0.4 0-2.1 5.6-0.4 3 0.3 4.5-0.1 2.8-0.4 1.2-0.7 0.7-2.5 0.5-0.7 0.2-1.1 1.1-1.5 2.3-1.8 3.9-1.4 2.3-1.3 1.8-4.4 4.8-5.3 6.6-0.5 1.8-1.3 2.4-0.7 1.2-1.3 1.3-0.5 0.8 0 0.1 0.6 1.8 0.2 0.8 0.5 5.1-2.6 2.9-6.6 1.1-1.3 0.8-0.5 0.8-0.1 1.1-0.3 1.3-1 1.7-1.2 0.6-1.6 0.1-16-1-0.8-0.3-0.7-0.4-2.4-1.9-2.8-2.6-2.8-1.5-3.3-1-3.6-0.6-4.9-0.9-7-4-1.5-1.3-1.1-1.3-0.5-1.2 0-0.2-0.4-2.9-0.2-0.8-0.5-0.7-0.5-0.7-0.5-0.8-0.4-0.8-0.2-1.4-0.9-7.9-1.5-4.7-0.5-1-0.7-0.7-1.2-0.4-5.4-1.2-5.7-2.6-1.9-0.6-1.5-0.2-7.7 0.4-1.2 0.2-3.1 1-2.3 0.2-2.5 0.7-2.4 1.5-1.8 0.6-1.4 0.1-7-0.7-1.4-4-0.5-0.8-0.8-0.8-1.2-0.6-8.2-0.3-1.8-0.4-0.5-0.5-0.1-0.6 0.5-1 0-0.7-0.4-1-1.4-2-0.8-1.3-0.5-1-0.1-0.8 0.1-0.7 0.2-0.7 0.6-1.6 0.3-0.8z" id="NPBA" name="Bagmati">
  </path>
  <path d="M656.9 412.8l2.4 1.9 0.7 0.4 0.8 0.3 16 1 1.6-0.1 1.2-0.6 1-1.7 0.3-1.3 0.1-1.1 0.5-0.8 1.3-0.8 6.6-1.1 2.6-2.9-0.5-5.1-0.2-0.8-0.6-1.8 0-0.1 0.5-0.8 1.3-1.3 0.7-1.2 1.3-2.4 0.5-1.8 5.3-6.6 4.4-4.8 1.3-1.8 1.4-2.3 1.8-3.9 1.5-2.3 1.1-1.1 0.7-0.2 2.5-0.5 0.7-0.7 0.4-1.2 0.1-2.8-0.3-4.5 0.4-3 2.1-5.6 0.8-0.2 1.5-0.7 3.5-3.5 0.7-0.5-0.1-0.8 1.4-0.6-0.1-0.2-0.5-0.7-0.2-0.1-0.6-0.7-0.4-0.4-0.1-1.3-0.2-0.7-0.1-0.6-0.3-0.8-0.1-0.8-0.2-0.7-0.7-0.9-0.8-0.8-0.2-0.2-0.4-0.8 0-1 0.2-1.3 0.1-0.8 0.1-0.6 0.1-0.9 0.2-1.2-0.6-1.9-0.2-1.1 0-0.4 0.8-0.8 1.8 0.1 1.1 0.2 0.1 0-0.4-1.5 3.5-2.6 0.2-0.2 0.8-0.9 0.6-0.5 0.4-0.3 1.4-0.9 0.2-1 0.2 0 0.1 0.3 0 0.4 0.1 0.1 0.1-0.1 0.8 1.8 0.2 3.1-0.7 2.6-1 2.1 0.3 1.2 0.8 0.9 0.8 1.5 0.8 3.6 0.7 1.6 1.7 0.9 0.1 0.1 2.2 0.6 2.3 0.3 2.1 0.5 1.9 1.4 2.6 3.3 1.1 0.8 1.1 0.2 0.9-0.3 0.9-0.5 1-0.2 1 0.5 3.8 3.2 2.2 0.9 1.5-0.1 1.4-0.8 0.2 0.2 0.3-0.5 2.2-1.1 2.4-1.3 1.5-1.8 0.2-0.8 0.3-0.5 0.1-0.2 0.2-0.8 1.9 2 3.3 5.2 0.8 3.3 0 3.4 0.6 6.4 1 3.6 0.1 2.6 0.3 2-0.4 1.4-0.5 0.9-0.8 1.3-0.9 1.8-1.1 3.7-1.2 2.6-1.2 1.7-1.4 1-2.7 0.9-2.3 0.4-1.1 0.4-0.8 0.4-3.6 3.7-1.7 1.2-5.5 6.3-10 9.3-1.7 2.5-1.9 4.3-1 2.8-0.2 1.1-0.1 1.1 0.2 0.9 1.1 2.7 0.1 1.1-0.3 1.6-0.5 2-2.9 5 0 0.8 1.8 0.5 6.3-0.1 3.6 0.8 1.6 0.5 1 0.7 0.7 1.1 0.8 0.9 0.5 0.5 3.5 2.1 0.5 0.5 0.3 0.4-0.6 1.2-3.4 4.1-3.1 2.7 0 0.7 0.3 0.6 0.6 0.5 0.5 0.5 0.6 0.7 0.9 3.1 0.8 3.7 0.1 3.7-0.4 1.8-0.7 1.1-4.7 1.4-2.9 2-3.3 4.7-2.6 1-1.1-0.1-1.5-0.4-2.9-1.3-1 0-1 0.5-1.5 1.8-0.5 0.9-0.3 0.8 0 0.9 0.1 0.7 0.9 2.6 0.3 1.6 0 6.3 0.1 1.3 0.3 1.3 0.5 1.4 0.7 1.4 2 3.1 0.6 1.1 0.4 1.5-0.1 1.2-0.4 1.1-5.2 11.2-0.2 0.4-0.2 0-2.5 0.1-0.7-0.2-0.6-0.6-7.7-4.8-3.4-1.1-3.9 1.2-2.7 0.3-1.9 1.2-7.7 6.6-2.4 1.4-1.8 0.3-0.8-0.7-0.2-1 0-1.1-0.2-1-0.9-0.8-1.1 0.3-1.1 0.4-1-0.2-6-4.8-1.6-2-1.2-4.4 0.8-9.2-0.8-4.3-1.6-1.9-8.8-4.9-1.2-0.4-8.8 3.5-4.9 2.6-4 2.2-2.1 0.6-2-0.6-1.9-0.1-1.9 1.7-1.5 1.9 0-0.1-0.2-5.1 0.2-2.5 1-4 1.7-4.6 3.7-5.4 0.6-1.4 0.4-1.4 0.2-2.2-0.2-1.6-0.2-1.2-0.2-0.7-0.2-1.1-0.1-1 0.2-1.4 0.5-1.5 1.6-2.9 7.1-9.9 0.8-2.9 0.3-3.2 0.2-0.9 0.2-0.7 0.3-0.5 0.2-1.1-0.1-1.4-0.6-2.9-0.6-1.7-0.7-1.2-0.5-0.6-0.7-0.6-0.9-0.7-2.7-1.4-1-0.8-0.5-0.8-0.4-1.1 0-1.1 0.2-0.9 1.8-2.1 5.2-3.8z" id="NPJA" name="Janakpur">
  </path>
  <path d="M728.6 511l0.2-0.4 5.2-11.2 0.4-1.1 0.1-1.2-0.4-1.5-0.6-1.1-2-3.1-0.7-1.4-0.5-1.4-0.3-1.3-0.1-1.3 0-6.3-0.3-1.6-0.9-2.6-0.1-0.7 0-0.9 0.3-0.8 0.5-0.9 1.5-1.8 1-0.5 1 0 2.9 1.3 1.5 0.4 1.1 0.1 2.6-1 3.3-4.7 2.9-2 4.7-1.4 0.7-1.1 0.4-1.8-0.1-3.7-0.8-3.7-0.9-3.1-0.6-0.7-0.5-0.5-0.6-0.5-0.3-0.6 0-0.7 3.1-2.7 3.4-4.1 0.6-1.2-0.3-0.4-0.5-0.5-3.5-2.1-0.5-0.5-0.8-0.9-0.7-1.1-1-0.7-1.6-0.5-3.6-0.8-6.3 0.1-1.8-0.5 0-0.8 2.9-5 0.5-2 0.3-1.6-0.1-1.1-1.1-2.7-0.2-0.9 0.1-1.1 0.2-1.1 1-2.8 1.9-4.3 1.7-2.5 10-9.3 5.5-6.3 1.7-1.2 3.6-3.7 0.8-0.4 1.1-0.4 2.3-0.4 2.7-0.9 1.4-1 1.2-1.7 1.2-2.6 1.1-3.7 0.9-1.8 0.8-1.3 0.5-0.9 0.4-1.4-0.3-2-0.1-2.6-1-3.6-0.6-6.4 0-3.4-0.8-3.3-3.3-5.2-1.9-2 0-0.2-0.1-0.7 0-0.1 0-2-0.1-1.3 0.2-0.3 1.2-1.8 0.3-0.8 0-0.8 0.8-1.7 0-0.2 0.8 0 1.2-0.3 0.4-0.9 0.4-1.7 0-1.2 0-0.7 0-1.6 0.4-0.8 0.3-0.1 1.5 1.1 1.5 1.4 1.8 0.8 1.5-0.3 1.4 0.3 1.9-0.4 0.2-0.3 0.1-0.1 0.1-0.8 0.2-0.3 0.8-0.3 2.1-0.7 1.4 0.6 2 1.3 1.6 1.5 0.5 1.5-0.5 3.8 0.9 1.7 3.4 1.2 7.8-0.4 3.1 2.5 0 0.1 1 3 1.8 2.1 2.4 1.1 2.9 0.3 3.3-0.6 1.4-0.4 0 0.2-0.3 8 1.2 5.6 0.8 2.6 0.2 1.2 0 0.7-0.6 2.5-0.2 2.9 0.9 5.2 0 1.8-0.2 1.2-2.1 7.4-2.1 12.7-0.5 1.7-1.1 5.1-0.4 1.3-1.3 1.5-2 2.3-0.4 0.7-0.4 1.9 1.3 4.6 4.4 7.6 0.4 2.1-0.1 1.7-0.3 0.8-0.6 0.8-0.8 0.5-1 0.4-0.9 0.5-0.6 0.7-0.3 2 0.6 5.6-0.1 2.2-0.9 7.7 0.3 1.8 0.6 1.6 2.2 2.3 1.1 1.5 0.5 1.5 1 19.1 3.7 0.6 13.3-3.1 3.9-0.1 1.9 0.7 0.5 2.3-0.6 2.5-0.4 0.9-0.7 2.6-0.1 0.8-0.6 1.5-1.6 1.3-3.1 1.9-7.8 8.3-2.5 1.1-1.8 1.6-2.5 10.5-1.6 2.7-0.6 1.6 0.3 1.2 0.4 0.9 0.2 1.4 0 1.4-0.2 1.1-0.9 1.3-2.4 2.2-0.4 1-3.1 1.1-3.5 2.1-1.1 2.8-2.2 2.5-2.7 1.8-2.9 0.8-1-0.2-4-1.5-1.5 0.2-0.8 1.2-0.8 1.5-1.1 0.9-2.1-0.4-7.8-4.8-7.5-3.4-2.2-1.4-0.1 0-1.5-1.8-1.5-1.3-1.8-1-2.1-0.5-3.4-1.4-6.9-3.7-3.3-1.2-1 0-2.4 0.3-0.8-0.1-0.8-0.9-0.1-1.8-0.8-0.8-1.9-0.4-2.4 0.3-4.2 1.5-2.5 1.6-0.8 0.2-1.1-0.2-0.7-0.5-0.5-0.6-0.8-0.4-1.7-0.5-0.7-0.1z" id="NPSA" name="Sagarmatha">
  </path>
  <path d="M816.7 521.1l0.4-1 2.4-2.2 0.9-1.3 0.2-1.1 0-1.4-0.2-1.4-0.4-0.9-0.3-1.2 0.6-1.6 1.6-2.7 2.5-10.5 1.8-1.6 2.5-1.1 7.8-8.3 3.1-1.9 1.6-1.3 0.6-1.5 0.1-0.8 0.7-2.6 0.4-0.9 0.6-2.5-0.5-2.3-1.9-0.7-3.9 0.1-13.3 3.1-3.7-0.6-1-19.1-0.5-1.5-1.1-1.5-2.2-2.3-0.6-1.6-0.3-1.8 0.9-7.7 0.1-2.2-0.6-5.6 0.3-2 0.6-0.7 0.9-0.5 1-0.4 0.8-0.5 0.6-0.8 0.3-0.8 0.1-1.7-0.4-2.1-4.4-7.6-1.3-4.6 0.4-1.9 0.4-0.7 2-2.3 1.3-1.5 0.4-1.3 1.1-5.1 0.5-1.7 2.1-12.7 2.1-7.4 0.2-1.2 0-1.8-0.9-5.2 0.2-2.9 0.6-2.5 0-0.7-0.2-1.2-0.8-2.6-1.2-5.6 0.3-8 0-0.2 0.6-0.2 0.7 0 1.3 0.1 2.8 1.7 3.5 3.8 6.1 8 4.4 2.4 2.9 0.2 5.7-0.7 6.4 1.7 2.6-1.5 1.8-1.6 2.6 1.8 0.2 0 0.8-0.1 1.3-1.4 0-0.1 0.8-0.6 0.4-0.2-0.4 1.2-1.3 2.2 0 1.9 2-0.1 9.9-2.8 4.3-1.1 1.9-0.2 2.2 0.6 0.6 0.7 0.4 1 0.6 1 0.9 0.7 1.9 0.1 3.4-1.9 1.7-0.5 2.7 0.5 2.1 0.8-2.7 7.6-2.4 5.1-1.8 2.7-1.3 1.4-1.1 0.7-0.8 0-0.9-0.4-0.7-0.6-0.7-0.4-0.8-0.2-0.9 0.3-0.5 1-1 4.5-1.2 3.4-1.3 2.3-2.1 2.8-1.2 2.1-0.9 2-1.3 5.1-1.1 7.5-0.9 3.1-0.3 2.3-0.1 1.9 0.4 1.4 0.7 1.2 6.7 7.3 0.8 0.7 1.2 0.5 5 1 10.9 4.5 4.7 1.8 1.7 1.3 0.5 0.8 0.2 0.8 0 0.8-0.2 0.7-0.7 0.8-1.7 1.6-0.5 0.9-0.3 1.3-0.3 1-0.5 1-0.9 0.7-1 0.6-5 1.7-1.3 0.7-2.9 2.2-6.2 6.5-5.3 6.6-2.2 2.1 2.5 3.5 2.5 7.3 0.9 1.5 1 1 1.9 1.1 4.4 1.8 0.2 0.1 5.5 7.6 1.7 3.3 0.2 0.9 0 2-2.4 10.5-0.3 27.2 0.2 1.9 0.5 1.7-2.7 2.1-4.2 1.9-3.9-1.1-8-4.6-3.4-0.6-3.7 0.2-3.6 1-3.1 1.9-1.3 1.8-2.1 4.5-1.4 1.2-1.5-0.3-4.7-2.1-1.4-0.9-1-1.7-0.8-1.9-1.2-1.2-3.4 1.1-6 0.7-3.2-1.4-2.5-3.4-1.9-4.1-1.1-3.7-1.3-6.2-0.1-2.1-0.3-2.3-1.3 0-1.6 1.4-3.4 3.5-1.4 1.1-4.2 1.4z" id="NPKO" name="Bhojpur">
  </path>
  <path d="M896.4 534.9l-0.5-1.7-0.2-1.9 0.3-27.2 2.4-10.5 0-2-0.2-0.9-1.7-3.3-5.5-7.6-0.2-0.1-4.4-1.8-1.9-1.1-1-1-0.9-1.5-2.5-7.3-2.5-3.5 2.2-2.1 5.3-6.6 6.2-6.5 2.9-2.2 1.3-0.7 5-1.7 1-0.6 0.9-0.7 0.5-1 0.3-1 0.3-1.3 0.5-0.9 1.7-1.6 0.7-0.8 0.2-0.7 0-0.8-0.2-0.8-0.5-0.8-1.7-1.3-4.7-1.8-10.9-4.5-5-1-1.2-0.5-0.8-0.7-6.7-7.3-0.7-1.2-0.4-1.4 0.1-1.9 0.3-2.3 0.9-3.1 1.1-7.5 1.3-5.1 0.9-2 1.2-2.1 2.1-2.8 1.3-2.3 1.2-3.4 1-4.5 0.5-1 0.9-0.3 0.8 0.2 0.7 0.4 0.7 0.6 0.9 0.4 0.8 0 1.1-0.7 1.3-1.4 1.8-2.7 2.4-5.1 2.7-7.6 2.4 1 2.1-0.2 0.2 0 0.5 0 0.2-0.1 3.2-1.6 2.7-2.4 2.1-3 1.7-3.5 1.3-2 1.2-0.2 2.2 1.2 8.8 0.4 1.1 0.4 2.4 1.2 1.4 0.3 1.4-0.3 3-1.2 1.3-0.1 2.6 0.8 4.8 2.7 2.5 0.6 2.7 0.6 1.5 0.6 0.9 0.7 0.3 1.5-1.4 2.4 0.6 5.1-1.2 3.2-1.6 3.3-2.7 10.5-6.9 11.9-2.8 6.3-0.2 1.4 0.2 1.2 0.5 2.5 0.3 0.5 1 1.1 0.2 0.5-0.2 1.1-0.6 0.7-0.5 0.6-0.5 0.9-0.9 2.8-0.3 1.4 0.1 1.8 0.5 1.4 1.4 2.4 0.3 1.4-0.7 3.1-2.7 6.2-1.7 3.8-0.5 8.8-1.6 3.7-0.2 1 0.2 1 0.5 1 1.8 1.7 2 4.5 2 1.3 1.7 0.8 1.5 1.4 2.3 3.3 2.3 4 1.6 4.4 1 1.9 2.5 3.9 1 1.9 0.4 2.2 0.4 5.4 1 4.9 0.1 2.4-0.1 2.4-0.5 2.4-1.9 5.5-5 9.9-1.6 5.4-0.8 2.7-0.1 1.2 0.3 1.6-0.9 5.1-3.3 6-4.2 4.5-3.5 0.4-1.6-1.5-3.6-2.2-1.6-1.5-0.7-1.2-0.7-2.2-0.5-1-0.3 0.1-2.7-2.2-0.1-0.5-2 0.5-3.4 2.9-1.9 0-2-1.1-1.9-0.7-1.5 0.6-0.7 2.6-0.8 1.9-1.7 0.9-1.8-0.3-1.5-1.3-1.8-1-2.5 0.9-1.2 0.9z" id="NPME" name="Mechi">
  </path>
  <path d="M535 365.7l1.6-0.5 3.8 0.4 0.5-0.3-0.2-0.8-0.5-0.5-0.4-0.4-0.6-0.9-0.4-1.2 0.3-2 0.8-1 5.1-2.1 6-4.2 2.3-1.9 0.7-0.3 1-0.2 1.2 0.2 1.1 0.3 1 0.5 1.1 0.8 1.3 1.5 1.3 2.1-0.3 0.8-0.6 1.6-0.2 0.7-0.1 0.7 0.1 0.8 0.5 1 0.8 1.3 1.4 2 0.4 1 0 0.7-0.5 1 0.1 0.6 0.5 0.5 1.8 0.4 8.2 0.3 1.2 0.6 0.8 0.8 0.5 0.8 1.4 4 7 0.7 1.4-0.1 1.8-0.6 2.4-1.5 2.5-0.7 2.3-0.2 3.1-1 1.2-0.2 7.7-0.4 1.5 0.2 1.9 0.6 5.7 2.6 5.4 1.2 1.2 0.4 0.7 0.7 0.5 1 1.5 4.7 0.9 7.9 0.2 1.4 0.4 0.8 0.5 0.8 0.5 0.7 0.5 0.7 0.2 0.8 0.4 2.9 0 0.2 0.5 1.2 1.1 1.3 1.5 1.3 7 4 4.9 0.9 3.6 0.6 3.3 1 2.8 1.5 2.8 2.6-5.2 3.8-1.8 2.1-0.2 0.9 0 1.1 0.4 1.1 0.5 0.8 1 0.8 2.7 1.4 0.9 0.7 0.7 0.6 0.5 0.6 0.7 1.2 0.6 1.7 0.6 2.9 0.1 1.4-0.2 1.1-0.3 0.5-0.2 0.7-0.2 0.9-0.3 3.2-0.8 2.9-7.1 9.9-1.6 2.9-0.5 1.5-0.2 1.4 0.1 1 0.2 1.1 0.2 0.7 0.2 1.2 0.2 1.6-0.2 2.2-0.4 1.4-0.6 1.4-3.7 5.4-1.7 4.6-1 4-0.2 2.5 0.2 5.1 0 0.1-0.3 0.3-1.8 1.3-3.9 1.2-1.6 0.1-10.4-2.8-3.2-3.4 0-4.3-0.4-3.8-4.4-1.9-2.5 0.3-6.3 2.5-2.9-0.3-0.2-1.6 0.2-1.9-1.9-1-1.5-0.2-1.3-0.4-2.6-1.4-1-2.2-0.6-2.6-1.6-2.4-2.5-1.5-5.6-1.8-2.6-1.6-1.2-2-1.8-0.4-1.8 0.7-1.5 1.1-1.3 0-13.4-3.6-1.5-1.1-0.6-2.6 1-2.9 1.6-2.9 1.1-2.7 0.6-5-0.3-4.8-1-4.7-1.8-4.6-2.9-4.2-3.3-2.3-32.1-5.9-2.4-1.6-2.1-3-1.1-2.3-1.5-1.2-3.4 0.6-1.1-0.4-1.2-3-1-1.2-2.7-1.1-1.2-0.7-1.1-1.1-0.4-2.3-2-0.4-2.2 0.9-5.7 7-2.4 1.7-3.5 0.1-4.5-0.8-1.4-0.5-0.1 0 0.1 0 1.7-1.5 0.4-1.3-0.1-1.5 0-1.4 0.8-1.4 1.3-1.6-0.4-0.6-2.4 0-1-0.4-0.1-1 0.7-1.1 0.8-0.9 1-0.2 1.3 0 7.5 1 2.5-0.2 2.3-1.5 3.8 2.7 1.4-1.6 4.5-7.6 2.6-3 1.8 0.8 1.4-1.1 2.1-3 1.4-0.6 1.2 0.1 1.4 0.3 1.8 0.2 3-1.1 2.9-2.2 2.8-1.4 3.1 1.1 3.1-1.9 1.1-1.4 0.4-1.8-0.4-1.5-1-2.3z" id="NPNA" name="Narayani">
  </path>
  <path d="M387.1 304.1l8.8-1.6 1.9 0.5 2.3 0.9 6.1 5.5 2.2 1.3 1.6 0.5 3 0.1 1.5 0.5 2.4 1.3 1.4 0.9 1 1 0.8 1.3 1 1.2 1.8 1.3 1.5 0.5 3.2 0.2 2.2 0.4 1.5 0.6 1.2 0.7 5.2 4.5 0.7 0.8 0.2 0.9-0.4 0.7 0.2 1.5 0.5 1.3 0.8 0.2 0.8-0.1 1 0.4 1.6 3.3-1.7 2.8-3.5 1.9-4.1 0.7-3.3-0.9-1.9-0.1-1.7 1-0.7 1.7 1.1 1.1 1.8 1 1.6 1.4 1.3-1.4 1.3-0.2 3.2 0.6 3.2-0.1 1.8 0.3 1.5 0.8 1.3-0.1 4 1.5 0.8-0.2 2-1.1 9-0.1 2.7 0.3 1.9 1.1 3.1 3.2 1.6 0.9 1.1 0 2.6-1 1.2-0.3 1.5 0.2 3 0.7 1.6 0.2 2.6-0.7 5-2.8 2.8-0.3 2.2 0.9 4 3.5 2.2 1.3 4.8 1.1 10 0.1 4.8 1 2 1.1 0.6 1.3 0.1 1.6 0.3 2.1 0.6 1 1.5 1 0.3 1 0.1 1.2 0.4 0.6 0.8 0.3 1 0.1 1.3-0.7 1.3-1.4 1.5-1.2 2-0.2 1.1 1.1 1.3 2.1 1 2.3 0.4 1.5-0.4 1.8-1.1 1.4-3.1 1.9-3.1-1.1-2.8 1.4-2.9 2.2-3 1.1-1.8-0.2-1.4-0.3-1.2-0.1-1.4 0.6-2.1 3-1.4 1.1-1.8-0.8-2.6 3-4.5 7.6-1.4 1.6-3.8-2.7-2.3 1.5-2.5 0.2-7.5-1-1.3 0-1 0.2-0.8 0.9-0.7 1.1 0.1 1 1 0.4 2.4 0 0.4 0.6-1.3 1.6-0.8 1.4 0 1.4 0.1 1.5-0.4 1.3-1.7 1.5-0.1 0-2.5 0.8-5.2 0.3-2.2 0.9 1 2 3.2 3.6 0.3 1.2 0.4 1.3 0 1-1.1 0.4-0.7 0.5-0.8 1.2-0.1-0.1-0.6-0.7-5.2-1.8-15.4-8.4-8.2-3-12.2-1.7-10.5-0.1-2.9 1.1-0.6 1.2-0.2 1.5 0.2 1.5 1.7 2.3-0.2 1.5-0.7 1.6-2.4 3.6-1.9 1.9-2.2 1.2-2.5 0.2-2.5-0.9-1.2-1.3-0.7-1.8-1.3-2.4-1.3-1.5-5.6-4.7-4.1-1.7-13.7 0.1-7-1.7-5.2-2.9-2.8-0.9-13.8-1-2.5-2.9-1.2-4.8-1.1-9.4-1.4-4.8-1.9-3.2-0.7-0.3 0.3-1.1 0.8-2.8 0.7-1.5 0.4-0.7 0.6-0.7 0.8-0.6 1.2-0.6 2.1-0.7 1.7-0.2 5.6 0.5 4.8-1.6-2.5-2.7-5.2-2.4-1.4-1 0.3-0.8 0.2-0.5 3.9-4.2 5-4.4 2.7-0.8 2.6 0.5 1.4 0.1 1.4-0.2 1.4-0.5 3.3-2 3.6-1.3 0.7-0.5 0.4-0.8-0.3-1.4-0.3-0.7-0.8-0.8-0.9-0.7-0.8-1.2-0.3-2 1-4 0.6-3.4 1.4-4.4 3-2.6 0.8-0.9 0.6-1.1-0.2-1.5-0.5-1.2-2.1-2.8-0.4-1.3 0.1-1.2 0.8-1.3 1.5-1.3 5-2.4 1.4-1.7z" id="NPLU" name="Lumbini">
  </path>
  <path d="M328.9 210l6.5 2 1.5 0.8 1.9 1.7 4.3 4.5 0.6 1 0.3 1.7 0 1.9 0 1.7 0.1 1.3 0.7 1.1 5.3 3.6 1.6 0.6 1.9-0.3 1.2-0.5 1.4-0.1 5.8 0.5 6.8-0.5 1.6 0.3 2.3 0.9 16.6 8.4 4.4 1-0.5 3.6-1.3 2.6-3.6 5.2-6 2.6-5.9 1.7-2.7 1.2-1.2 1 0.3 0.9 1.2 1.6 0.4 0.9 0 1-0.5 1.3-0.9 0.4-1.2 0-1.4 0.1-1.7 0.7-2 1.9-0.6 1.3 0 1 1.4 1.2-2.7 4.1 0.7 1.3 1.1 0.9 1.3 3.1 0.9 1.2 1.5 1.3 0.8 1 1.2 3.5 10.3 8 2.5 2.4 1.5 2.1 0.5 3.4-1.4 1.7-5 2.4-1.5 1.3-0.8 1.3-0.1 1.2 0.4 1.3 2.1 2.8 0.5 1.2 0.2 1.5-0.6 1.1-0.8 0.9-3 2.6-1.4 4.4-0.6 3.4-1 4 0.3 2 0.8 1.2 0.9 0.7 0.8 0.8 0.3 0.7 0.3 1.4-0.4 0.8-0.7 0.5-3.6 1.3-3.3 2-1.4 0.5-1.4 0.2-1.4-0.1-2.6-0.5-2.7 0.8-5 4.4-3.9 4.2-0.2 0.5-0.3 0.8 1.4 1 5.2 2.4 2.5 2.7-4.8 1.6-5.6-0.5-1.7 0.2-2.1 0.7-1.2 0.6-0.8 0.6-0.6 0.7-0.4 0.7-0.7 1.5-0.8 2.8-0.3 1.1-2.4-0.9-14.1 3.6-9.5 1.1-4.3-1.3-6.1-6.2-8.6-4.3-13.4-11.1-4.8-2-1.9-1.1-2.1-2.2-2.3-1.9-0.1-0.1 0.6-1.4 3.4-3.4 0.5-0.3 0.7-0.3 0.5 0 2.1 0.3 1-0.1 2.3-0.4 1.2-0.5 0.6-0.5 0.7-0.6 0.4-0.6 0.3-0.6 0.1-0.7 0.2-2.7-0.1-2.1-0.5-1.6-0.9-1.6-5.1-4.6-0.9-0.6-1-0.2-0.9-0.1-1-0.2-0.7-0.7-1.9-2.5-1-0.9-3.4-2.8-0.9-1.1-0.5-1.3 0.2-1.2 1.5-2.4 1.6-4.5 5.9-3.2-2.5-4-1.2-2.8-2.3-2.6-6.8-2.9-0.7-1.1 0-4.7-0.4-1.5-0.6-1.1-0.7-0.8-0.4-1.1 0.2-0.9 0.7-1 1.1-0.6 2.7-1.1 0.6-0.4 0.7-0.7 0.7-1.4 0.4-1.7-0.1-2.7-0.5-1.9-1.7-3.9-0.2-1.1 0.5-1.9 0.8-1.9 4-4.9 5 2.1 1.5 0.3 1.6 0.2 4.9-0.1 2.8-1.6 2.3-4.6 0.7-1 0.7-0.8 2-1.2 1.4-1.2 2.3-2.3 4.1-6.1 1.2-1.2 6.5-4 12.2-9.7 1.3-1.7 1-2.3 0.5-1.8 1.4-3.3 5.1-4.7z" id="NPRA" name="Rapti">
  </path>
  <path d="M215.1 192l2.8 3.5 0.2 3.2-0.2 1.2 0 0.9 0.7 0.6 2.1 0.7 3.9 0.7 9.2 3.2 6 1.1 1.9 0.5 1.7 1 2.5 1.2 2.2 0.7 9 0.8 10-4.6 2.3 0.7 0.4 0.4 0.4 0.2 0 0.1 0.7 1.4 0.7 0.8 1 0.6 1.4-0.1 1.4-0.6 1.7-1.9 0.6-1.3 0.7-1 0.9-0.8 1.1-0.8 0.8-0.9 1.3-2.2 0.8-0.8 1-0.8 11.1-5 1.8-0.4 8.4 0.2 5.1 2.4 0.5 1.5 0.1 1.1 0 1.2-0.3 1.3-0.2 0.9-0.3 0.9-0.3 1.3 0 0.8 0.2 0.7 0.5 0.7 0.7 0.5 2.3 1 0.9 0.2 1 0 1.3-0.4 0.9-0.5 0.1-0.1 0.4-0.3 1.2-0.8 2.5 0.2 6.7 2.9-5.1 4.7-1.4 3.3-0.5 1.8-1 2.3-1.3 1.7-12.2 9.7-6.5 4-1.2 1.2-4.1 6.1-2.3 2.3-1.4 1.2-2 1.2-0.7 0.8-0.7 1-2.3 4.6-2.8 1.6-4.9 0.1-1.6-0.2-1.5-0.3-5-2.1-4 4.9-0.8 1.9-0.5 1.9 0.2 1.1 1.7 3.9 0.5 1.9 0.1 2.7-0.4 1.7-0.7 1.4-0.7 0.7-0.6 0.4-2.7 1.1-1.1 0.6-0.7 1-0.2 0.9 0.4 1.1 0.7 0.8 0.6 1.1 0.4 1.5 0 4.7 0.7 1.1 6.8 2.9 2.3 2.6 1.2 2.8 2.5 4-5.9 3.2-1.6 4.5-1.5 2.4-0.2 1.2 0.5 1.3 0.9 1.1 3.4 2.8 1 0.9 1.9 2.5 0.7 0.7 1 0.2 0.9 0.1 1 0.2 0.9 0.6 5.1 4.6 0.9 1.6 0.5 1.6 0.1 2.1-0.2 2.7-0.1 0.7-0.3 0.6-0.4 0.6-0.7 0.6-0.6 0.5-1.2 0.5-2.3 0.4-1 0.1-2.1-0.3-0.5 0-0.7 0.3-0.5 0.3-3.4 3.4-0.6 1.4-2.6-0.8-5.7-0.6-3.3 1.5-4.5 5.3-2.6 1.8-3.1-0.3-3.1-1.8-3.1-2.4-5.5-3.2-4.5-4.8-2.4-2-2.6-0.9-5.6-1.3-2.2-1.7-0.1-0.1-1.4-2.3-2.3-1.6-9.8-5.1-1.7-1.4-0.5-1.2-0.1-1.3-0.6-1.8-1.4-2.3-2-2.2-2.4-1.7-2.5-1-1.8 0.3-0.7 1.1-0.4 1.6-1.1 1.5-1.6 0.8-1.8 0.3-1.2-0.5 0.3-1.8-1.8-0.5-0.7-1 0.4-1 1.7-0.7-1.5-3.1-6.5-7.5-1.5-3.5-2.3-7.5-2.3-3-2.6-1.4-11.1-2.1 0.1-2.1 1.3-4.9 1.2-1.7 3.8-2.3 1.3-1.1 15.6-17.1 0.8-1.1 1-1.1 0.7-2.9 0.3-2.5-0.4-2.4-3.6-8.2-1.2-4-0.7-4.3-1.1-1.9-1.5-1.4-1.6-0.9 0.5 1.6 1.4 2.9 0.4 1.6-4.5-2.6-1 0.3-1.5-3.4-1.4-1.3-1.5 0.3-1.5 0.9-1.5 0.4-1.9-1.1-4.1-3.4-5.5-5.8 0.6-1.6 1.8-1.7 2.4-1.4 2.1-0.6 2.3 0.4 2.3 0.8 4.5 2.3 5.8 4.6 2.3 0.6 7.2-1 2.4 0.2 1.2 0.5 2.6 1.7 1.1 0.4 9.8-1.2 1.9 0.6 1.8 2.3 1.7 3.6 4.8 5.6-0.4 4 1.2 0.8 0.2 0.7-1.4 1.1 0 0.9 1.1 0.1 0.9-0.2 1.9-0.8 2.7-1.6-0.3-1.5-1.5-1.5-0.9-2-0.7-3-1.5-2.6-4-4.4-5.8-8.8-1.5-0.9-1.4-2.3-0.8-2.8 0.3-2.7 5.3-6 1.2-1 1.6-0.5 7.4-5.5z" id="NPBH" name="Bheri">
  </path>
 </g>
 <g id="points">
  <circle class="26.547424593768486|80.43722667569891" cx="90.9" cy="517.7" id="0">
  </circle>
  <circle class="28.176679165393953|84.50661654291575" cx="545.5" cy="312.8" id="1">
  </circle>
  <circle class="30.213247379925786|87.76212843668922" cx="909.1" cy="52.2" id="2">
  </circle>
 </g>
 <g id="label_points">
  <circle class="Karnali" cx="312.1" cy="145" id="NPKA">
  </circle>
  <circle class="Mahakali" cx="99.3" cy="158.5" id="NPMA">
  </circle>
  <circle class="Seti" cx="172.6" cy="174.3" id="NPSE">
  </circle>
  <circle class="Dhawalagiri" cx="429.6" cy="270.6" id="NPDH">
  </circle>
  <circle class="Gandaki" cx="524.9" cy="295.2" id="NPGA">
  </circle>
  <circle class="Bagmati" cx="655.4" cy="350.5" id="NPBA">
  </circle>
  <circle class="Janakpur" cx="701.3" cy="446.8" id="NPJA">
  </circle>
  <circle class="Sagarmatha" cx="785.1" cy="439.9" id="NPSA">
  </circle>
  <circle class="Bhojpur" cx="851.4" cy="436.8" id="NPKO">
  </circle>
  <circle class="Mechi" cx="913.9" cy="467.4" id="NPME">
  </circle>
  <circle class="Narayani" cx="596.8" cy="418.9" id="NPNA">
  </circle>
  <circle class="Lumbini" cx="402.7" cy="369.7" id="NPLU">
  </circle>
  <circle class="Rapti" cx="324.8" cy="303.8" id="NPRA">
  </circle>
  <circle class="Bheri" cx="222.8" cy="279.3" id="NPBH">
  </circle>
 </g>
</svg>