<?xml version="1.0"?>
    
<!--********* Copyright (c) 2024 Pareto Softare, LLC DBA Simplemaps.com ***************************************
************* Free for Commercial Use, full terms at  https://simplemaps.com/resources/svg-license ************
************* Attribution is appreciated! https://simplemaps.com *******************************************-->

<svg baseprofile="tiny" fill="#6f9c76" height="53" stroke="#ffffff" stroke-linecap="round" stroke-linejoin="round" stroke-width=".5" version="1.2" viewbox="0 0 1000 53" width="1000" xmlns="http://www.w3.org/2000/svg">
 <g id="features">
  <path d="M968.7 50.2l0.1-0.1 0.1 0 0 0.1-0.1 0 0 0.1-0.1-0.1z m0.9-1.8l-0.1 0-0.1 0 0-0.1 0.1 0 0-0.1 0.1 0.1 0 0.1z m2.4-0.3l0.1 0.1-0.1 0.1 0 0.1-0.1-0.1 0.1-0.1 0-0.1z m-1.1 1.3l0.2 0.1 0 0.1-0.1 0 0-0.1-0.1 0 0 0.2-0.1-0.1 0 0.1-0.2 0-0.2 0 0 0.1-0.2 0.1-0.1 0.1-0.1 0-0.1-0.1-0.1 0.1 0-0.1-0.1-0.1 0 0.1-0.1 0 0 0.1-0.1 0-0.1 0.1-0.1 0 0 0.1 0.1 0 0.2-0.1 0 0.1-0.1 0 0 0.1 0-0.1-0.1 0 0 0.1-0.1 0 0 0.1-0.1 0-0.1 0-0.1 0 0-0.1 0-0.1 0.1-0.1 0-0.1 0.1 0 0-0.1 0.1 0 0-0.1 0-0.1 0-0.1 0-0.1 0.1 0 0-0.1 0.1 0 0.1 0 0.1 0-0.1-0.1 0-0.2 0.1-0.1 0.1 0 0-0.1 0.1 0 0-0.1-0.1-0.1 0-0.1-0.1-0.1 0-0.1 0-0.1 0-0.1 0-0.1 0.1-0.1 0.1 0 0.1 0 0.1 0 0.1-0.1 0.1 0.1 0 0.1 0.1 0 0.2 0.4 0.1 0 0.1 0.1 0.1 0.1 0 0.1-0.1 0.1-0.2-0.1-0.2 0 0 0.1-0.1 0.2 0.1-0.1 0.1 0 0.1 0 0.1 0.1 0.1 0 0 0.1-0.1 0 0.1 0 0.1 0 0.1 0 0-0.1 0 0.1 0.1 0 0 0.1 0 0.1-0.1 0-0.1 0z m-4.1-5.8l0 0.1 0.1 0.1 0 0.1 0 0.1-0.1 0.1-0.1 0 0-0.1 0 0.1-0.1 0 0-0.1-0.1-0.1 0.1 0-0.1-0.1-0.2 0.2-0.1 0 0 0.1 0-0.1 0-0.1 0.1 0 0-0.1 0.1-0.1 0.1 0 0.2-0.1 0.1 0z m0.7-1.8l0 0.2 0.1 0.1 0.1 0.3-0.1 0-0.1 0 0-0.1-0.1 0-0.1-0.1 0-0.1 0-0.1 0.2-0.2z m6.2 5.9l0 0.1-0.1 0 0 0.1-0.1 0-0.1-0.1 0 0.1-0.1 0-0.1 0-0.1 0-0.1-0.1-0.1 0-0.1 0 0-0.3-0.1-0.1-0.1 0.1-0.3 0-0.1 0 0.1 0 0.1-0.1-0.1 0-0.1 0-0.1 0 0.1 0.1-0.1 0.1 0.1 0-0.2 0.1-0.5-0.1 0.1-0.1 0.1 0 0.1 0 0 0.1 0.1 0 0.1-0.1-0.1 0-0.1-0.1-0.2 0-0.1 0-0.1 0 0 0.1 0.1 0.1 0 0.1-0.1 0-0.1-0.1 0-0.1-0.1-0.1-0.1 0 0-0.1 0.1 0 0.1 0 0.2-0.1 0-0.1 0-0.1-0.1-0.1-0.1 0 0.1 0.1-0.1 0.1-0.1 0-0.1-0.2-0.1-0.3-0.1 0 0-0.1-0.3 0.1-0.1 0 0 0.1-0.1 0-0.1 0-0.1 0 0 0.1-0.1 0 0-0.1-0.1 0 0 0.1-0.1 0 0-0.1-0.1 0 0-0.1-0.1-0.1-0.1 0 0.1 0 0-0.1 0.1 0-0.2-0.2 0-0.1 0-0.1-0.1-0.1-0.1 0-0.2-0.1-0.3 0-0.1 0 0 0.1 0 0.1 0 0.1-0.1 0 0 0.1-0.1 0-0.1 0-0.1 0.1-0.1 0-0.1-0.1-0.1 0 0 0.1-0.1 0 0-0.1-0.2-0.1-0.1 0-0.2 0-0.4 0-0.2 0-0.2-0.2 0-0.1-0.1 0 0.1 0 0-0.1 0.1 0 0.1-0.1 0.1-0.2 0.1-0.1 0-0.1 0.1-0.1 0.2-0.1 0-0.1 0 0.1-0.2 0.1-0.1 0-0.1 0 0 0.1 0 0.1-0.1 0.1 0 0.1-0.1-0.1 0.1 0 0-0.1-0.1 0 0 0.1-0.1 0.1-0.2 0 0-0.1 0.1 0 0-0.1 0-0.1 0.1-0.1 0.2-0.1 0.1 0 0-0.1-0.1 0-0.1 0.1-0.1 0 0-0.1 0.1-0.2 0.1 0 0-0.1-0.1 0 0 0.1-0.1 0 0 0.1-0.1 0.1 0 0.1-0.1 0-0.2 0.1-0.1 0 0 0.1-0.1 0 0-0.1 0-0.1 0-0.1 0-0.4 0-0.1 0.2 0 0.2 0 0.1 0 0.1-0.1 0.1 0 0.1 0 0.2 0 0.1 0 0.1 0 0-0.1 0.1-0.1 0.1 0 0.1-0.1-0.1 0-0.2 0-0.3 0.1-0.1-0.1 0.1-0.1 0.1-0.1 0.1 0 0.1 0-0.3 0-0.1 0 0-0.1 0-0.1 0.1-0.1 0.1 0 0.1-0.1 0.1 0 0.2 0.1 0.1-0.1-0.1 0-0.1-0.1 0.2 0 0.1-0.1 0-0.1-0.4 0.2-0.2 0.1-0.1 0.1-0.1 0-0.1 0-0.1-0.1 0-0.1 0.1-0.2 0.1-0.2 0-0.1 0.1-0.1 0.2 0.1 0.1 0.1 0.1 0 0-0.1 0-0.1-0.1 0 0 0.1-0.1-0.1-0.1 0 0-0.1-0.1 0 0-0.1 0.1-0.1 0.1-0.1 0.1 0 0 0.1 0.2 0.1-0.1 0 0 0.1 0.1 0 0-0.1 0.1 0 0.1 0.1 0 0.1 0 0.1-0.1 0 0 0.1 0.1 0 0.1 0 0-0.1 0-0.1 0.1 0.1 0.1 0 0 0.1 0.1 0.1 0 0.1 0-0.2-0.1-0.1-0.3-0.3 0-0.1 0.1 0 0.3-0.1 0.1 0 0 0.1 0 0.1 0.1 0 0.1 0 0-0.1-0.1 0-0.1-0.1 0-0.1 0.1 0-0.1 0-0.1 0-0.1 0-0.2 0.1-0.1-0.1 0-0.1 0-0.1-0.1 0 0-0.1 0-0.1 0-0.1 0.1 0 0.1 0 0.1 0.2 0.1 0 0.1 0 0-0.1-0.1 0-0.1-0.2-0.1 0-0.1 0 0.1-0.2 0.1-0.1 0.1 0 0.1 0.2 0 0.1 0 0.1 0-0.1 0-0.1 0.1 0 0.1 0-0.2-0.1-0.1-0.1 0-0.1 0-0.1 0.1 0 0.1 0 0 0.1 0.1 0 0.1 0 0 0.1 0.1 0-0.3-0.2-0.1-0.1 0.1-0.1 0.1-0.1 0.1 0 0.1 0 0-0.1-0.1 0 0.3-0.2 0.1 0.2 0 0.1 0 0.1 0 0.1 0.1 0 0 0.1 0.1 0 0-0.1-0.1-0.1 0-0.1 0-0.1 0-0.1-0.1-0.1 0.1-0.2 0-0.1 0.1 0 0.1 0.1 0 0.1 0 0.1 0 0.1 0 0.1 0.1 0 0-0.1 0-0.1 0-0.1 0-0.1-0.1-0.1 0-0.1 0.1 0 0-0.1 0.1 0.1 0 0.1 0.1 0 0.1 0-0.1 0-0.1-0.1-0.1-0.1 0.1-0.1 0.2-0.1 0-0.1 0.1 0 0.1-0.1 0.1 0 0.2 0.1 0.1 0.1 0.1 0.2 0-0.1 0-0.1 0-0.1-0.1 0-0.1-0.1 0-0.1 0-0.1 0-0.1-0.1 0 0-0.1 0.1-0.1 0.2-0.2 0.1-0.1 0.1-0.1 0.1-0.1 0-0.1 0.2 0 0.1-0.1 0-0.1 0.1 0 0.2 0 0.1 0.1 0.1 0.1 0.1 0 0 0.1 0 0.1 0 0.1-0.1 0.4-0.1 0-0.1 0.1-0.1 0.1-0.1 0.2 0 0.1-0.1 0.3 0 0.2 0 0.3-0.1 0.1 0 0.2 0.1 0.1 0 0.1 0.1 0.1 0.1 0.1 0.1 0.1 0 0.1-0.1 0.3 0.1 0.1 0 0.1 0.1 0.2 0 0.1 0 0.2 0.2 0 0.1 0 0.2 0 0.5-0.2 0.1 0.2 0.2 0.3 0.1 0.1 0.1 0.1 0.1 0 0.1-0.1 0.3-0.4 0.1-0.1 0.1 0.1 0.3 0.3 0 0.1-0.1 0.1-0.2 0.6-0.2 0.3 0 0.2 0 0.1 0 0.1 0 0.1 0 0.1 0 0.1 0.1 0.1 0 0.1 0.1 0 0 0.1 0 0.2 0 0.1 0 0.1 0.1 0.1 0.1 0.1 0 0.2 0 0.1 0 0.1 0.1 0.2 0 0.3 0 0.1-0.1 0.1 0 0.1 0.1 0.1 0 0.1 0 0.1 0 0.1 0.1 0.2 0 0.1 0 0.1-0.1 0.1 0 0.2z" id="NZSTL" name="Southland">
  </path>
  <path d="M988.3 26.2l0 0.1 0 0.1 0 0.1 0 0.1-0.1 0-0.1 0-0.1 0 0 0.1-0.1 0-0.2 0 0.1 0 0-0.1 0.1 0 0.2-0.1 0.1 0 0-0.1 0-0.1 0 0.1-0.1-0.1 0.1 0 0-0.1 0.1 0z m-1.7-0.7l0-0.1 0-0.1 0-0.1 0 0.1 0.1 0 0.1 0.1 0-0.1-0.1 0 0-0.1 0-0.1 0-0.1 0-0.1 0 0.1 0.1 0 0-0.1 0.1 0 0 0.1 0 0.1 0.1-0.1-0.1 0 0.1-0.1 0.1 0 0-0.1 0-0.1 0 0.1 0 0.1 0 0.1 0 0.1-0.1 0 0 0.1 0 0.1-0.1 0 0 0.1-0.1 0-0.1 0.1 0 0.1-0.1 0 0-0.1z m-0.6 0.5l0.1 0 0.1 0.1 0 0.1 0.1 0 0-0.1 0.1-0.1 0.1 0 0-0.1-0.1 0-0.1 0.1 0-0.1 0.1-0.1 0.1-0.1 0.1 0 0.1 0 0-0.1 0.1 0 0 0.1 0.1 0 0-0.1 0.1 0 0-0.1 0.2 0 0.1 0 0 0.1-0.1 0-0.1 0 0 0.1-0.1 0 0 0.1-0.1 0.1-0.1 0-0.1-0.1-0.1 0 0 0.1 0 0.1 0 0.1 0 0.1 0.1-0.1 0-0.1 0.2 0 0.1 0 0.1 0-0.1 0 0 0.1-0.1 0 0 0.1-0.1 0 0 0.1-0.1 0 0 0.1 0.1 0 0 0.1 0 0.1 0 0.1-0.1 0.1-0.2 0 0 0.1 0.1 0 0.3-0.2 0.1 0-0.1 0 0-0.1 0.1 0 0.1 0 0 0.1 0.1 0 0.1-0.1 0.1 0 0.1-0.1 0.1 0-0.3 0-0.1 0 0 0.1-0.1-0.1-0.1 0-0.1 0 0-0.1 0-0.1 0.1 0 0-0.1 0.1 0 0-0.1 0.1 0-0.1 0.1 0 0.1 0 0.1 0.1-0.1 0-0.1 0.1 0 0-0.1 0-0.1 0-0.1-0.1 0 0 0.1-0.1-0.1 0.1 0-0.1-0.1 0.1 0 0-0.1 0.1 0.1 0.1 0.1 0.1 0 0.1-0.1 0 0.1 0.1-0.1 0-0.1 0.1 0.1 0 0.1 0 0.1-0.1 0 0.1 0.1 0.1-0.1 0-0.1 0.2-0.1 0 0.1-0.2 0.3 0 0.1-0.1 0 0 0.1 0-0.1 0-0.1-0.1 0 0 0.1 0 0.1 0.1 0 0 0.1-0.1 0.1 0-0.1 0 0.1-0.1 0 0 0.1-0.2 0-0.1 0-0.1 0 0 0.1 0-0.1-0.1 0.1-0.1 0 0 0.1 0.1 0 0.1-0.1 0.1 0 0.1 0 0.1 0 0-0.1 0.1 0 0.1 0.1 0.1 0 0.1 0 0-0.1 0.1 0 0.1-0.1 0 0.1-0.1 0.1 0 0.1-0.1 0 0 0.1-0.1 0-0.1 0.1 0.1-0.1-0.1 0-0.1 0 0.1 0-0.1 0-0.1 0.1 0 0.1-0.1 0.1 0 0.1-0.1 0.1 0.1 0.1 0 0.1 0 0.1 0.1 0.1-0.1 0 0.1 0 0-0.1 0-0.1 0.2 0.3 0 0.1 0 0.1 0.1 0.2 0 0.1 0.1 0.1 0.1 0-0.2 0.4 0 0.1-0.4 0.4-0.1-0.1 0-0.1-0.1 0-0.1 0-0.1 0 0-0.1 0 0.1-0.3 0-0.1 0.1-0.1-0.1-0.1 0 0 0.1-0.1 0.1-0.1 0 0 0.1-0.1 0-0.1 0 0 0.1-0.2 0.1-0.1 0.3 0 0.1 0 0.1-0.1 0-0.2 0.1-0.1 0.1-0.2 0.1-0.1 0.1 0 0.1-0.1 0 0.1 0.1-0.1 0.1 0 0.1-0.1 0.1-0.1 0-0.1 0.1 0 0.1-0.1 0-0.1-0.1 0-0.1-0.1 0 0-0.1-0.1-0.1 0-0.1 0-0.1-0.1 0 0-0.1-0.1 0 0-0.1 0-0.1-0.1 0 0-0.1 0-0.1-0.1-0.1-0.1 0-0.1-0.1 0-0.1 0.1-0.3 0.2-0.4 0.1-0.1 0-0.2 0-0.1 0.1-0.1 0.1-0.1 0-0.1 0.2-0.1 0.1-0.2 0.1-0.1 0.2-0.3 0.1-0.1 0.1 0 0.1 0 0-0.1 0.1 0-0.1-0.1 0-0.1 0.1-0.1 0-0.1 0.1-0.1 0.1 0 0.1-0.1 0.2-0.4 0.1-0.1 0.1-0.2 0.1 0 0-0.2 0-0.1 0.1 0-0.1-0.1z" id="NZMBH" name="Marlborough District">
  </path>
  <path d="M986 26l0.1 0.1-0.1 0 0 0.1 0 0.2-0.1 0-0.1 0.2-0.1 0.1-0.2 0.4-0.1 0.1-0.1 0-0.1 0.1-0.1-0.1-0.1-0.1-0.1-0.1 0.1-0.1 0.1 0 0.1-0.1 0-0.1 0.1-0.1 0.2-0.2 0.1 0 0-0.1 0.1 0 0 0.1 0.1 0 0-0.1 0.1-0.1 0.1 0 0-0.1 0-0.1z" id="NZNSN" name="Nelson City">
  </path>
  <path d="M985.2 27.3l0 0.1-0.1 0.1 0 0.1 0.1 0.1-0.1 0 0 0.1-0.1 0-0.1 0-0.1 0.1-0.2 0.3-0.1 0.1-0.1 0.2-0.2 0.1 0 0.1-0.1 0.1-0.1 0.1 0 0.1 0 0.2-0.1 0.1-0.2 0.4-0.1 0.3-0.1 0-0.1 0 0 0.1-0.1 0.2 0 0.1-0.2 0.2-0.1 0-0.1 0.1 0-0.1-0.1 0 0 0.1-0.1 0.1 0-0.1-0.1-0.2 0-0.2-0.1-0.1 0-0.1-0.1 0-0.1 0.1 0-0.1-0.1 0 0-0.1-0.1 0-0.1 0 0-0.1-0.1-0.1 0-0.1 0-0.1-0.1 0 0-0.1 0-0.1 0-0.2 0.1 0 0-0.1 0-0.1 0-0.1 0-0.1 0-0.1 0-0.1 0.1-0.1 0.1 0 0.1 0 0.1-0.1 0-0.1 0.1-0.1 0.1 0 0-0.1 0-0.1 0.1-0.2 0-0.1 0.1-0.1 0.1 0 0-0.1-0.1 0 0-0.1 0.1 0 0.1 0 0.1 0 0.1 0 0.1-0.1 0-0.1 0-0.1 0-0.1 0-0.1 0-0.1 0.2 0 0.1-0.2 0.1 0-0.1 0 0-0.1-0.2 0 0-0.1-0.2-0.1-0.1-0.1 0-0.1-0.1 0 0-0.1-0.1 0-0.1 0-0.1 0 0 0.1-0.1 0 0-0.2 0-0.1 0.1 0 0-0.1 0-0.1-0.1 0 0-0.1-0.1 0 0-0.1-0.1-0.1 0-0.3-0.1 0 0.1 0 0.1-0.1 0.1 0 0.1-0.1 0.3-0.4 0.1-0.1 0.1 0 0 0.1 0.1 0 0.1 0 0-0.1 0-0.1-0.1 0 0.1-0.1 0.1-0.1 0.5 0 0.2 0 0.2 0.1 0.1 0-0.1 0-0.6-0.1 0 0.1-0.1 0 0 0.1 0 0.1 0 0.1-0.1 0 0 0.1-0.1 0 0.1 0.1 0.1 0.1-0.1 0.1 0 0.1 0.1 0 0-0.1 0.1 0.2 0 0.1 0.3 0.1 0 0.1 0.1-0.1 0.1 0 0-0.1 0.1 0 0-0.1 0.1 0 0 0.1 0.1 0 0 0.1-0.1 0 0.1 0.1-0.1 0 0.1 0 0.1 0.1-0.1 0.2 0 0.1 0.1 0-0.1 0 0 0.1-0.1 0.1 0.1 0 0 0.2 0 0.1 0.1 0 0 0.1-0.1 0 0-0.1 0 0.2 0 0.1 0.1 0 0.1 0.2 0 0.1-0.1 0.1 0.1 0.1 0.2 0 0.1 0.1 0.1 0.1 0.1 0.1z" id="NZTAS" name="Tasman District">
  </path>
  <path d="M971.3 39.2l0.1-0.4 0-0.1 0-0.1 0-0.1-0.1 0-0.1-0.1-0.1-0.1-0.2 0-0.1 0-0.1 0 0-0.1 0.1 0 0.1-0.2 0.2-0.1 0.1-0.1 0.1-0.1 0-0.1 0.1-0.1 0.1 0 0-0.1-0.1 0 0.1 0 0-0.1 0.2 0 0.1 0 0.1 0 0.1-0.1 0.1 0 0.1-0.1 0.1 0.1 0 0.1 0.2 0 0.1-0.1 0.2-0.1 0.1-0.1 0.2-0.1 0-0.1 0.1 0 0.2-0.1 0-0.1 0-0.1 0.1 0 0.1 0 0-0.1 0.1-0.1 0.1 0 0-0.1 0.2-0.1 0.2 0 0-0.1 0.1 0 0-0.1 0.1 0 0.1 0 0.1-0.1 0.1 0 0.1-0.1 0.1 0 0.1 0 0.1-0.1 0.1 0 0.1-0.2 0.1 0 0-0.1 0-0.1 0.1 0 0-0.1 0.1 0 0-0.1 0-0.1 0.1 0 0.4-0.2 0-0.1 0-0.1 0.1 0 0.1-0.1 0-0.1 0.1 0 0.1-0.1 0.1 0 0 0.1 0.1 0 0.1-0.3-0.1 0 0 0.1-0.1 0.1-0.1 0 0.1-0.2 0.1-0.1 0.1 0 0-0.1 0.2 0 0.1-0.1 0-0.1 0.1-0.1 0.1 0.1 0-0.1 0.1-0.1 0.3-0.1 0.1-0.1 0.1 0 0.1 0 0-0.1 0.1-0.1 0.1 0 0.1-0.2 0.1 0 0.2-0.4 0.1-0.1 0.1-0.1 0.1-0.1 0.1-0.1 0.1-0.2 0.2-0.4 0.1-0.1 0-0.1 0-0.1 0.2-0.2 0-0.2 0.1-0.6 0.1-0.1 0-0.1 0-0.1 0.1-0.1 0.1-0.1 0-0.1 0-0.2 0.1-0.1 0-0.1 0.1-0.2-0.1 0 0-0.2 0.2 0 0.2 0 0.1 0 0.1-0.1 0.3-0.2 0.1-0.1 0.1 0 0-0.1 0.1 0 0-0.1 0.1-0.2 0-0.1 0.1 0 0-0.1 0-0.1 0.1-0.1 0-0.1 0.1 0 0.1 0 0-0.1 0-0.1 0-0.1 0-0.1 0-0.1 0.1 0 0.1 0-0.1-0.1 0-0.5 0-0.1 0-0.2 0-0.4 0-0.1 0-0.1 0.1 0 0-0.1 0.1-0.1 0-0.1 0.1 0 0-0.1 0.1 0 0 0.3 0.1 0.1 0 0.1 0.1 0 0 0.1 0.1 0 0 0.1 0 0.1-0.1 0 0 0.1 0 0.2 0.1 0 0-0.1 0.1 0 0.1 0 0.1 0 0 0.1 0.1 0 0 0.1 0.1 0.1 0.2 0.1 0 0.1 0.2 0 0 0.1 0.1 0-0.1 0-0.1 0.2-0.2 0 0 0.1 0 0.1 0 0.1 0 0.1 0 0.1-0.1 0.1-0.1 0-0.1 0-0.1 0-0.1 0 0 0.1 0.1 0 0 0.1-0.1 0-0.1 0.1 0 0.1-0.1 0.2 0 0.1 0 0.1-0.1 0-0.1 0.1 0 0.1-0.1 0.1-0.1 0-0.1 0-0.1 0.1 0 0.1 0 0.1 0 0.1 0 0.1 0 0.1 0 0.1-0.1 0 0 0.2 0 0.1 0 0.1 0.1 0 0 0.1 0 0.1 0.1 0.1 0 0.1 0.1 0 0.1 0 0 0.1 0.1 0 0 0.1 0.1-0.1 0.1 0 0 0.1 0.1 0.1 0 0.2 0.1 0.2 0 0.1 0.1-0.1 0-0.1 0.1 0 0 0.1 0 0.1 0 0.1-0.1 0.1-0.1 0-0.1 0.1-0.1 0.1-0.2 0.1-0.1 0.1 0 0.1-0.1 0 0 0.1-0.2 0.1 0 0.2-0.1 0.1-0.1 0-0.1 0-0.1 0 0 0.1-0.1 0.1-0.1 0 0 0.1 0 0.1-0.1 0-0.1 0.2-0.2 0 0 0.1 0 0.1-0.1 0.1 0 0.1-0.2 0-0.1 0-0.1 0-0.1 0.1-0.1 0-0.1 0-0.1 0 0 0.1-0.1 0-0.1 0-0.1 0-0.1 0.1-0.1 0.1 0 0.1 0 0.1-0.1 0-0.3 0.1-0.1 0.1-0.2 0.3-0.1 0.1-0.3 0.1-0.5 0.4-0.2 0.3-0.1 0-0.1 0-0.1 0-0.1 0.1-0.4 0.2-0.3 0.1-0.3 0.2 0 0.1-0.1 0.1 0 0.1-0.1 0.1-0.1 0.1 0 0.1-0.1 0.1-0.1 0.1-0.4 0.4-0.1 0.1-0.1 0.1-0.1 0.1-0.1 0-0.1 0-0.1 0.1 0 0.1-0.1 0-0.1 0.1-0.1 0-0.1 0.1-0.1 0.1-0.1 0-0.1 0-0.1 0 0-0.1-0.1 0-0.1 0.1-0.2 0-0.1 0-0.1 0-0.2 0.1-0.1 0.1 0 0.1-0.1 0.1-0.1 0.1-0.1 0.1-0.1 0 0 0.1 0 0.1-0.1 0.2 0 0.1-0.1 0.1-0.1 0-0.2 0.1-0.6 0.2-0.3 0.1z" id="NZWTC" name="West Coast">
  </path>
  <path d="M973.7 47.7l0-0.2 0.1-0.1 0-0.1 0-0.1-0.1-0.2 0-0.1 0-0.1 0-0.1-0.1-0.1 0-0.1 0.1-0.1 0-0.1 0-0.3-0.1-0.2 0-0.1 0-0.1 0-0.2-0.1-0.1-0.1-0.1 0-0.1 0-0.1 0-0.2 0-0.1-0.1 0 0-0.1-0.1-0.1 0-0.1 0-0.1 0-0.1 0-0.1 0-0.1 0-0.2 0.2-0.3 0.2-0.6 0.1-0.1 0-0.1-0.3-0.3-0.1-0.1-0.1 0.1-0.3 0.4-0.1 0.1-0.1 0-0.1-0.1-0.1-0.1-0.2-0.3-0.1-0.2-0.5 0.2-0.2 0-0.1 0-0.2 0 0-0.2 0-0.1-0.1-0.2 0-0.1-0.1-0.1 0.1-0.3 0-0.1-0.1-0.1-0.1-0.1-0.1-0.1 0-0.1-0.1-0.1 0-0.2 0.1-0.1 0-0.3 0-0.2 0.1-0.3 0-0.1 0.1-0.2 0.1-0.1 0.1-0.1 0.1 0 0.3-0.1 0.6-0.2 0.2-0.1 0.1 0 0.1-0.1 0-0.1 0.1-0.2 0-0.1 0-0.1 0.1 0 0.1-0.1 0.1-0.1 0.1-0.1 0-0.1 0.1-0.1 0.2-0.1 0.1 0 0.1 0 0.2 0 0.1-0.1 0.1 0 0 0.1 0.1 0 0.1 0 0.1 0 0.1-0.1 0.1-0.1 0.1 0 0.1-0.1 0.1 0 0-0.1 0.1-0.1 0.1 0 0.1 0 0 0.3-0.1 0.1 0 0.1-0.1 0.1 0 0.1-0.1 0.1-0.1 0.1 0 0.1 0 0.7 0 0.1 0 0.1 0.1 0 0.1 0.1 0 0.1 0.1 0.3 0.1 0.1 0.1 0 0.1 0.1 0.1 0.1 0.2 0 0.1 0 0.1 0.2 0.1 0.1 0 0.3 0.1 0.2 0.1 0.1 0.1 0.1 0.1 0.1 0.2 0 0.2-0.1 0.1 0 0.1 0.1 0 0.1 0 0.2 0.1 0.1 0 0.1 0.1 0 0.2-0.1 0.5-0.5 0.1 0 0.1 0 0.1 0 0.2-0.1 0.5 0.1 0.3 0.2 0.2 0-0.1 0 0 0.1-0.2 0.4-0.3 0.3-0.1 0.3-0.1 0.3 0 0.1-0.1 0.1 0.1 0 0 0.1 0 0.1-0.1 0.1 0 0.1 0 0.1 0 0.1-0.1 0-0.1 0.1 0.1 0.1-0.1 0-0.1 0 0 0.1 0 0.1-0.1 0-0.1 0 0 0.1 0.1 0-0.1 0.2-0.1 0.1-0.1 0 0 0.1 0.1 0 0.1 0 0.1 0 0.1 0.1 0 0.1-0.2 0 0 0.1-0.1 0.1-0.1 0 0 0.1-0.1 0.1-0.1 0.1 0.1-0.1 0.1 0 0.1-0.1 0.1 0 0-0.1 0.1-0.1 0.1 0 0-0.1 0.1 0 0 0.1 0 0.2 0 0.1-0.1 0-0.1 0 0 0.1-0.1 0-0.5 0.1-0.3 0-0.2 0.2-0.1 0.2-0.1 0.1 0 0.1 0 0.1 0 0.1-0.1 0.1 0 0.1-0.1 0 0 0.1-0.2 0-0.1 0.1 0 0.1-0.1 0 0 0.1-0.4 0.3-0.1 0.1 0 0.2 0 0.1 0 0.1-0.1 0-0.1 0.1-0.1 0-0.1-0.1-0.1 0.1-0.1 0 0.1 0 0.2 0-0.1 0.1 0 0.1-0.1 0-0.1 0.1-0.1 0-0.1 0-0.1 0-0.2 0.1 0.1 0.1-0.1 0-0.1 0-0.1 0 0 0.1-0.1-0.1-0.1 0-0.1 0 0 0.1-0.1 0-0.1 0.1 0-0.1-0.1 0 0-0.1z" id="NZOTA" name="Otago">
  </path>
  <path d="M983.6 30l0 0.1 0.1 0.1 0.1 0 0.1 0.1 0 0.1 0 0.1 0.1 0 0 0.1 0 0.1 0.1 0 0 0.1 0.1 0 0 0.1 0 0.1 0.1 0.1 0 0.1 0.1 0 0 0.1 0.1 0.1 0.1 0 0-0.1 0.1-0.1 0.1 0 0.1-0.1 0-0.1 0.1-0.1-0.1-0.1 0.1 0 0-0.1 0.1-0.1 0.2-0.1 0.1-0.1 0.2-0.1 0.1 0 0-0.1 0-0.1 0.1-0.3 0.2-0.1 0-0.1 0.1 0 0.1 0 0-0.1 0.1 0 0.1-0.1 0-0.1 0.1 0 0.1 0.1 0.1-0.1 0.3 0 0-0.1 0 0.1 0.1 0 0.1 0 0.1 0 0 0.1 0.1 0.1-0.2 0.2-0.1 0.1 0 0.1 0 0.1 0 0.1 0 0.1-0.1 0 0 0.1-0.1 0.1 0 0.1-0.1 0-0.1 0.1-0.1 0.1 0 0.1-0.1 0 0 0.1-0.1 0 0 0.1 0 0.1 0 0.1-0.1 0 0-0.1-0.1 0.1-0.1 0-0.1 0.2-0.1 0.2 0 0.1-0.1 0.2-0.1 0 0 0.1-0.2 0.5 0 0.1-0.1 0.1 0 0.1-0.1 0 0 0.1 0 0.1 0 0.1-0.1 0 0 0.1-0.2 0.1-0.1 0-0.1 0.1 0 0.1-0.2 0.1-0.4 0.1 0 0.1-0.1 0.1-0.2 0.1-0.1 0.1 0 0.2-0.1 0.1 0 0.1 0 0.1 0 0.1 0 0.2-0.1 0.1 0 0.1 0.1 0.2 0.1 0.2 0 0.1-0.1-0.1 0 0.1 0.1 0 0.1 0.1-0.1 0-0.1 0-0.1 0.1-0.1 0 0 0.1 0.1 0 0.1 0 0-0.1 0.1 0 0.1 0 0.1 0 0 0.1 0 0.1 0.1-0.1 0-0.1 0-0.1 0.1 0.1 0 0.1 0 0.1 0.1 0 0-0.1 0.1 0 0.1 0 0 0.1 0-0.1 0.1 0 0 0.1 0.1 0 0 0.1 0 0.1 0 0.2 0 0.1 0 0.1 0 0.1-0.1-0.1-0.1 0.1 0 0.1-0.1 0-0.1-0.1 0-0.1 0-0.1 0-0.1 0-0.1-0.1 0 0 0.1 0 0.1 0 0.1 0 0.1 0.1 0.2-0.1 0-0.2 0 0-0.1-0.1 0-0.1-0.1-0.1-0.1 0-0.1 0-0.1-0.1 0.1-0.2 0-0.1 0-0.2 0.1-0.2 0.1-0.1 0-0.1 0 0.1-0.1 0.1 0 0.4-0.2 0.1 0-0.1-0.1-0.1 0-0.1 0 0-0.1-0.1 0-0.1 0-0.1 0-0.1 0.1 0 0.1 0 0.1 0 0.1 0 0.1-0.1 0-0.2 0.1-0.1 0-0.1 0-0.1 0.1-0.3 0.2-0.6 0.4-0.1 0-0.1 0-0.2 0.1-0.1 0.1-0.1 0 0 0.1-0.1 0-0.1 0.1-0.1 0 0 0.1-0.1 0-0.1 0.1-0.1 0.2-0.1 0-0.1 0-0.1 0.1-0.1 0.3 0 0.3-0.1 0 0 0.1-0.1 0.1 0 0.1-0.1 0.1 0 0.1 0 0.1 0 0.3 0.1 0.2 0 0.1-0.1 0.1 0.1 0 0 0.1 0 0.2 0 0.2-0.1 0.1 0 0.1-0.2 0-0.3-0.2-0.5-0.1-0.2 0.1-0.1 0-0.1 0-0.1 0-0.5 0.5-0.2 0.1-0.1 0 0-0.1-0.1-0.1 0-0.2 0-0.1-0.1-0.1-0.1 0-0.2 0.1-0.2 0-0.1-0.1-0.1-0.1-0.1-0.1-0.1-0.2 0-0.3-0.1-0.1-0.1-0.2-0.1 0-0.2 0-0.1-0.1-0.1-0.1-0.1 0-0.1-0.1-0.1-0.3 0-0.1-0.1-0.1-0.1 0 0-0.1 0-0.1 0-0.7 0-0.1 0.1-0.1 0.1-0.1 0-0.1 0.1-0.1 0-0.1 0.1-0.1 0-0.3 0.1-0.1 0.1-0.1 0.1-0.1 0.4-0.4 0.1-0.1 0.1-0.1 0-0.1 0.1-0.1 0.1-0.1 0-0.1 0.1-0.1 0-0.1 0.3-0.2 0.3-0.1 0.4-0.2 0.1-0.1 0.1 0 0.1 0 0.1 0 0.2-0.3 0.5-0.4 0.3-0.1 0.1-0.1 0.2-0.3 0.1-0.1 0.3-0.1 0.1 0 0-0.1 0-0.1 0.1-0.1 0.1-0.1 0.1 0 0.1 0 0.1 0 0-0.1 0.1 0 0.1 0 0.1 0 0.1-0.1 0.1 0 0.1 0 0.2 0 0-0.1 0.1-0.1 0-0.1 0-0.1 0.2 0 0.1-0.2 0.1 0 0-0.1 0-0.1 0.1 0 0.1-0.1 0-0.1 0.1 0 0.1 0 0.1 0 0.1-0.1 0-0.2 0.2-0.1 0-0.1 0.1 0 0-0.1 0.1-0.1 0.2-0.1 0.1-0.1 0.1-0.1 0.1 0 0.1-0.1 0-0.1 0-0.1 0.1-0.1 0.1 0 0.2-0.2 0-0.1 0.1-0.2 0-0.1 0.1 0 0.1 0z" id="NZCAN" name="Canterbury">
  </path>
  <path d="M990.5 10.5l0-0.1 0.1 0.1 0 0.1-0.1 0 0 0.1 0 0.1-0.1 0-0.1 0-0.1-0.1-0.1 0-0.1 0 0-0.1 0.1 0 0.1 0 0.1 0 0.2-0.1z m-0.9-1.2l0-0.1 0.1 0.1 0 0.1 0 0.1-0.1 0 0-0.1 0-0.1z m0.8-0.8l0 0.1 0 0.1-0.1 0-0.1-0.1 0.1-0.1 0.1 0z m1.1 0.4l0.1 0.1-0.1 0.1-0.1 0 0-0.1-0.1 0 0-0.1 0-0.1-0.1 0 0 0.1 0-0.1-0.1 0-0.1-0.1-0.1 0 0-0.1 0.1 0.1 0-0.1 0-0.1 0.1 0-0.1-0.1-0.1 0 0.1 0 0.1-0.1-0.1-0.1 0.1-0.1 0.1 0 0 0.1 0.1 0.1-0.1 0 0.1 0.1 0.1 0.1 0.1 0-0.1 0.1 0 0.1 0 0.1 0.1 0 0 0.1z m-2.4 3.5l-0.1-0.1 0-0.1-0.1-0.2 0-0.1-0.1-0.2 0-0.1 0.1 0 0.1 0 0.1 0 0 0.1-0.1 0 0.2 0.3 0 0.1 0 0.1 0.1 0 0-0.1 0-0.1 0.1 0 0.1 0-0.1 0-0.1-0.1-0.1 0 0.2-0.1 0 0.1 0.1-0.2 0.1 0 0.1 0 0.1 0.1 0.1-0.1-0.1 0 0-0.1-0.1 0-0.1-0.1-0.1-0.1-0.1 0.1 0-0.1 0-0.1 0.1 0 0-0.1-0.1 0-0.2 0-0.1 0-0.1 0 0 0.1 0 0.1-0.1 0 0 0.1-0.1-0.1 0 0.1-0.1 0-0.1 0 0-0.1-0.1-0.4-0.1-0.3-0.1-0.1-0.1-0.3-0.4-0.5-0.1-0.2 0-0.1 0-0.1 0.1 0 0 0.1 0 0.1 0-0.1 0-0.1 0.1 0 0 0.1 0.1 0.1 0.1 0.1 0 0.1 0.1 0-0.1 0.1 0.2 0 0 0.1-0.1 0 0 0.1 0.1 0 0-0.1 0 0.1 0.1 0.1 0-0.1 0.1 0 0-0.1 0.1-0.1-0.1 0 0-0.2 0-0.2 0-0.1 0-0.1-0.1 0 0.1-0.1-0.1-0.1-0.1 0.1-0.2 0.1-0.1-0.1 0-0.1 0-0.1 0.1 0 0.1 0 0.1 0 0.1-0.1 0.1 0 0.1-0.1 0.1 0 0-0.1-0.1 0 0.1-0.1 0.3-0.2 0.1 0 0.1 0.2 0.1 0.1 0.1 0.1 0.1 0.1 0 0.1 0-0.1 0 0.1-0.1 0 0.1 0.1 0.1 0 0.1 0-0.1 0-0.3 0 0 0.1 0 0.1 0.1 0.1 0 0.1 0 0.1-0.1-0.2-0.1-0.1 0.1 0.2-0.1 0 0 0.1 0.1 0 0 0.1-0.1 0 0 0.1 0 0.1 0 0.1 0.1 0 0.1 0 0.1 0 0.1 0-0.1 0.1-0.1 0-0.1 0-0.1 0 0.1 0.1 0.2 0.6-0.1 0 0-0.1-0.1 0-0.1 0 0.1 0 0-0.1-0.1 0 0-0.1-0.1 0-0.1 0.1-0.1 0.1 0.1 0 0.1 0-0.1 0 0 0.1 0.1 0 0 0.1 0 0.1 0 0.1 0.1 0 0-0.1 0-0.1 0 0.1 0-0.1 0.1 0 0-0.1 0.2 0.1 0.2 0 0 0.1 0 0.1-0.1 0 0 0.1 0.1 0 0.1-0.4 0.1 0.2 0 0.1 0 0.1 0.1-0.1 0.1 0-0.1-0.1 0.1-0.1 0.1 0.1 0.1 0.1-0.1 0.1 0.1 0.1 0.1 0 0-0.1 0.1 0 0.1 0 0.1 0 0.1 0 0 0.1 0.1 0.1-0.1 0.1-0.1-0.1-0.2 0.1 0 0.2-0.1 0.2-0.1 0.2-0.3 0-0.3 0.1-0.3 0.1-0.2 0.1-0.1 0z" id="NZAUK" name="Auckland">
  </path>
  <path d="M992.4 10.1l-0.1 0-0.1 0 0-0.1 0-0.1 0.1 0 0 0.1 0.1 0 0 0.1z m-3.3 2.3l0.1 0 0.2-0.1 0.3-0.1 0.3-0.1 0.3 0 0.1-0.2 0.1-0.2 0-0.2 0.2-0.1 0.1 0.1 0.1-0.1 0 0.1 0 0.1 0 0.2 0 0.1 0 0.1 0.1 0.1 0.1 0.1 0.2 0 0.1-0.1 0.1 0 0-0.1 0.1 0 0 0.1 0 0.1 0.1 0.1 0.1-0.1-0.1 0 0-0.1 0-0.1-0.1-0.1 0-0.1 0-0.1 0-0.2-0.1 0 0-0.2 0-0.1-0.1 0 0-0.1-0.1 0 0-0.1 0-0.1-0.1 0 0.1 0 0.1 0 0.1-0.1-0.1 0-0.1 0 0.1 0 0-0.1-0.1 0 0.2 0 0-0.1-0.1 0 0-0.1 0-0.1 0-0.1 0-0.1 0-0.1-0.1 0 0-0.1-0.1 0 0-0.1-0.1 0-0.1-0.1 0-0.1 0-0.1 0.1 0 0.1-0.1 0.1 0.1 0 0.1 0.1 0 0.1 0 0.1 0.1 0 0.1-0.1 0.1 0.1 0 0.1 0 0 0.1 0 0.1 0 0.1-0.1-0.1 0 0.1 0.1 0 0.1 0 0 0.1-0.1 0.1 0.1 0.1 0.1-0.1 0-0.1 0.1 0 0 0.1 0.1-0.1 0.1 0 0.1 0 0.1 0 0 0.1-0.1 0-0.1 0.1-0.1 0.1-0.1 0.1 0 0.1 0 0.1 0.1 0 0-0.1 0-0.1 0.1 0 0.1 0 0.1 0 0 0.1 0 0.1 0 0.1 0.1 0 0 0.2 0 0.1 0 0.1-0.1 0 0 0.1 0.1 0 0-0.1 0.1 0.1 0 0.1-0.1 0.1 0 0.1 0.1 0 0 0.1 0 0.1-0.1-0.1 0 0.1 0 0.1 0.1 0.1 0 0.1 0.1 0.1 0 0.2-0.1 0 0 0.2-0.1 0.1-0.1 0 0.1 0.1-0.1 0-0.1 0 0 0.1 0 0.1 0 0.1 0.1 0.1 0 0.1 0 0.2 0.1 0.1 0.1 0.2 0 0.3 0.1 0.1 0 0.1 0 0.1 0 0.1 0.1 0.1 0.1 0 0.1 0.1 0 0.1 0 0.2 0.1 0.2 0.1 0.1 0.2 0 0 0.1 0.1 0 0.1 0.1 0 0.1 0.1 0.1 0.4 0.2 0.1 0.1 0 0.1 0 0.3-0.1 0.1-0.1 0.1 0 0.1-0.1 0.1 0 0.1-0.1 0.1-0.3 0.5 0 0.3 0.1 0.1-0.2 0.3-0.1 0.1-0.2 0.3-0.1 0.1-0.1-0.2-0.1 0.1 0 0.2-0.1 0 0 0.1-0.2 0 0 0.1 0 0.1-0.1 0 0 0.1-0.1 0.1-0.1 0-0.3 0-0.2-0.1 0-0.1 0-0.2 0.1-0.1 0-0.2 0-0.1 0-0.1 0-0.1 0.1-0.1 0-0.1-0.1 0-0.1 0-0.1 0 0-0.1 0-0.1 0-0.1 0-0.1 0-0.1 0-0.1-0.1-0.1 0-0.1 0.1-0.1 0-0.2 0.1-0.1 0.1-0.1 0-0.1 0-0.1-0.1-0.1-0.1-0.1-0.1-0.1-0.2 0.1-0.1 0.1-0.2 0.2-0.1-0.1 0 0.1-0.1 0 0 0.1-0.1 0-0.1 0.1-0.2 0-0.1 0-0.1 0-0.1 0.1-0.2 0 0 0.1-0.1 0.1 0 0.1-0.1 0-0.1 0.1 0-0.1-0.1 0-0.1 0-0.3 0-0.2-0.1 0-0.1 0.1 0 0-0.1 0-0.1 0-0.6 0-0.2 0.1-0.2 0.1-0.1 0-0.2 0-0.2 0-0.1 0-0.1 0-0.1 0-0.1 0.1 0 0.1 0 0 0.1 0.1 0 0.1 0.1 0-0.1-0.1 0 0.1-0.1 0.1 0 0.1 0-0.1 0 0-0.1 0-0.1-0.1 0-0.1 0 0 0.1-0.1 0 0-0.1 0.1-0.1 0.1-0.1 0.1 0 0-0.1 0-0.1-0.1 0-0.1 0.1 0 0.1-0.1 0 0-0.1 0-0.3 0.1-0.2 0.1-0.1 0.2 0 0.1 0 0-0.1 0-0.1-0.1 0.1-0.1 0-0.1 0-0.2-0.7-0.2-0.4 0-0.2 0.1-0.1 0.1 0 0-0.1 0-0.1 0.1 0 0-0.1-0.1 0 0 0.1-0.1 0.1-0.1 0.1 0-0.1-0.1-0.1 0-0.1z" id="NZWKO" name="Waikato">
  </path>
  <path d="M993.8 24.7l-0.1 0.3-0.1 0.1-0.1 0.2 0 0.2-0.1 0.1-0.1 0-0.1 0.1 0 0.1-0.1 0.1 0 0.3-0.1 0.1-0.3 0.4-0.4 0.4-0.1 0.1-0.2 0.1-0.1 0.1-0.6 0.5-0.2 0.1-0.1 0-0.1 0.1-0.2 0-0.1 0 0-0.1 0-0.1-0.1-0.1 0-0.1 0.1-0.3-0.1 0-0.3-0.1-0.1-0.1-0.1 0.1-0.2 0.2-0.1 0 0-0.1-0.1 0 0.1-0.1-0.1-0.1 0-0.1 0-0.1 0.1-0.2 0-0.1-0.1-0.1-0.1 0.1-0.1 0 0 0.1 0 0.1 0.1 0 0 0.1 0 0.1-0.1 0 0-0.1-0.1 0.1-0.2 0-0.1-0.1-0.1-0.1 0-0.1 0-0.1 0.1 0 0.1 0 0-0.1 0.1-0.1 0.1-0.1 0.1-0.1 0-0.1 0.1 0 0.1-0.1 0 0.1 0-0.1 0-0.1 0-0.1 0.1 0 0.1-0.1 0-0.1 0.1-0.1 0-0.2 0.2-0.2 0.2-0.3 0.1-0.3 0 0.1 0.2 0.1 0 0.1 0.1 0.1 0.1 0 0.1-0.1 0.1 0 0.1 0 0.1 0 0.1-0.1 0-0.1 0.3 0.1 0.2 0.1 0.1-0.1 0.1-0.1 0.1 0.1 0.1 0 0 0.2 0.1 0 0.3-0.1 0.2-0.1 0.2-0.1 0.2 0 0.1-0.1 0.2 0.1 0.3 0z" id="NZWGN" name="Wellington">
  </path>
  <path d="M989.6 17.7l0.1-0.1 0.1 0 0-0.1 0.1-0.1 0-0.1 0.2 0 0.1-0.1 0.1 0 0.1 0 0.2 0 0.1-0.1 0.1 0 0-0.1 0.1 0 0-0.1 0.1 0.1 0.2-0.2 0.1-0.1 0.2-0.1 0.1 0.1 0.1 0.1 0.1 0.1 0 0.1 0 0.1-0.1 0.1-0.1 0.1 0 0.2-0.1 0.1 0 0.1 0.1 0.1 0 0.1 0 0.1 0 0.1 0 0.1 0 0.1 0 0.1 0.1 0 0.1 0 0.1 0 0 0.1-0.1 0.1 0 0.1 0 0.1 0 0.1 0 0.2-0.1 0.1 0 0.2 0 0.1 0.2 0.1 0.3 0 0.1 0 0.1-0.1 0-0.1 0.1 0 0-0.1 0-0.1 0.2 0 0-0.1 0.1 0 0-0.2 0.1-0.1 0.1 0.2 0.1 0.2 0 0.3 0.1 0.1-0.1 0.1 0 0.1 0 0.1 0 0.2 0.1 0 0 0.1 0.1 0.1 0 0.1 0 0.1-0.1 0.1 0 0.1 0.1 0 0 0.1 0 0.1 0.1 0 0 0.1-0.1 0 0 0.1-0.1 0.4 0 0.3-0.1 0.3 0.1 0.1 0.2 0 0.2 0.2 0.1 0 0 0.1 0 0.1 0.1 0.1 0 0.1 0 0.1 0.1 0.2 0 0.1 0 0.2 0 0.1 0.1 0.1 0.1 0 0.3 0.1 0.1 0 0.1 0.1-0.1 0.1-0.1 0-0.1 0-0.1 0.3-0.2 0.2 0 0.1-0.1 0 0 0.1-0.1 0.1-0.3 0-0.2-0.1-0.1 0.1-0.2 0-0.2 0.1-0.2 0.1-0.3 0.1-0.1 0 0-0.2-0.1 0-0.1-0.1-0.1 0.1-0.1 0.1-0.2-0.1-0.3-0.1 0 0.1-0.1 0.1-0.1 0-0.1 0-0.1 0-0.1 0.1-0.1 0-0.1-0.1 0-0.1-0.2-0.1 0-0.1 0.1-0.2 0-0.1 0-0.1 0-0.2 0.1-0.1 0-0.1 0-0.1 0-0.1 0.1-0.2 0-0.2-0.1 0 0-0.1 0-0.3-0.1-0.2 0-0.1-0.1 0-0.2-0.3 0-0.1-0.3-0.3-0.2-0.1-0.1-0.1-0.1 0-0.1 0 0-0.1 0.1-0.1 0.1 0 0-0.1 0.1-0.1 0.1 0 0-0.1 0-0.1 0.1 0 0.1-0.1-0.1 0 0-0.2 0.1-0.2 0-0.1-0.1-0.1-0.1-0.1-0.1-0.1 0-0.1 0-0.1 0-0.1-0.1 0-0.1-0.1 0-0.1-0.1-0.1-0.1-0.2-0.1-0.1 0-0.2 0.1-0.1 0.1-0.2 0.1-0.2 0-0.1 0-0.2 0-0.2-0.1-0.1 0.1-0.1 0.1-0.1z" id="NZMWT" name="Manawatu-Wanganui">
  </path>
  <path d="M988.9 17.5l0.2 0.1 0.3 0 0.1 0 0.1 0 0 0.1-0.1 0.1-0.1 0.1 0.1 0.1 0 0.2 0 0.2 0 0.1-0.1 0.2-0.1 0.2-0.1 0.1 0 0.2 0.1 0.1 0.1 0.2 0.1 0.1 0 0.1 0.1 0.1 0.1 0 0 0.1 0 0.1 0 0.1 0.1 0.1 0.1 0.1 0.1 0.1 0 0.1-0.1 0.2 0 0.2 0.1 0-0.1 0.1-0.1 0 0 0.1 0 0.1-0.1 0-0.1 0.1 0 0.1-0.1 0-0.1 0.1 0 0.1-0.1 0-0.3-0.1-0.1 0-0.1 0-0.1 0-0.3-0.3 0-0.1-0.2-0.3-0.1-0.1-0.1-0.1-0.2 0-0.5-0.1-0.1 0-0.4-0.3-0.1-0.1-0.1-0.2-0.1-0.1 0-0.2 0-0.2 0.1-0.1 0.1-0.2 0.1-0.1 0.3-0.1 0.7-0.5 0.1 0 0.3 0 0.2 0 0.1-0.1 0.3-0.4 0.1 0 0-0.2 0-0.1 0-0.1z" id="NZTKI" name="Taranaki">
  </path>
  <path d="M989 8.4l-0.3 0.2-0.1 0.1-0.1 0.1-0.1 0 0 0.1-0.1-0.1-0.1 0.1-0.1 0-0.1-0.1 0.1 0 0.1 0.1 0-0.1 0.1-0.1 0-0.1 0.1 0 0-0.1 0-0.1 0 0.1 0.1 0 0-0.1-0.1 0-0.1-0.1 0 0.1 0 0.2-0.1 0-0.1 0.1 0.1-0.1-0.1 0 0-0.1-0.1 0 0-0.1 0-0.1-0.1 0 0 0.1 0-0.1-0.1 0-0.1 0.1 0 0.1 0.1 0 0.1 0 0 0.1 0 0.1 0.1 0 0-0.1 0 0.1 0.1 0-0.1 0.1-0.1 0-0.1 0 0-0.1-0.1-0.1-0.1-0.1-0.1 0-0.1 0 0-0.1-0.1 0 0-0.1-0.1 0 0-0.1 0-0.1-0.1-0.1-0.1-0.1 0-0.1-0.1 0 0.1-0.1 0-0.1 0-0.1 0-0.1-0.1 0 0 0.1 0.1 0 0 0.1-0.1 0.1 0 0.1 0.1 0.2 0.1 0 0 0.1 0 0.1 0 0.1 0.1 0 0 0.1 0.1 0 0 0.1 0.1 0.1 0.2 0.2 0 0.1 0.1 0 0 0.1 0.1 0.1-0.1 0.1-0.1 0.1-0.2 0 0-0.1-0.1-0.4-0.4-0.5-0.1-0.2-0.6-0.8-0.7-0.9 0-0.1 0.1-0.1 0.1-0.1 0-0.1 0-0.1 0.1 0 0 0.1 0.1 0 0-0.1 0-0.1 0.1 0.1 0-0.1 0-0.1 0.1 0 0.1 0 0-0.1 0-0.1-0.1 0.1 0-0.1 0 0.1-0.1 0 0-0.2-0.1 0 0 0.1 0.1 0.1 0 0.1-0.1 0-0.1 0 0 0.1-0.1 0-0.1-0.1 0 0.1-0.1 0 0.1 0-0.1 0.1 0 0.1 0 0.2-0.1 0-0.2-0.3 0-0.1 0-0.1 0.1-0.1-0.1 0 0.1-0.1-0.1 0-0.1 0.1 0 0.1-0.1-0.1 0-0.1 0.1 0 0-0.1-0.1 0.1-0.1 0 0-0.1-0.1-0.1-0.1-0.1 0-0.1 0.1 0 0.1-0.1 0-0.2 0.1-0.1-0.1-0.2-0.1-0.2 0-0.1-0.2-0.2-0.1-0.3-0.1 0-0.6-0.8-0.1-0.1-0.2-0.1 0-0.1 0.1 0-0.1-0.1 0.1-0.1 0 0.1 0.1 0 0.1 0 0.1 0.1 0-0.1 0.1 0 0.1-0.1 0.3 0.1 0.1 0 0-0.1 0.1 0-0.1 0.1 0 0.1 0 0.1 0 0.1-0.1 0 0-0.1-0.1 0 0.1 0-0.1-0.1 0 0.1 0 0.1-0.1 0 0 0.1-0.1 0 0.1 0 0 0.1 0.1-0.1 0 0.1 0.1 0 0 0.2 0 0.1 0-0.1 0.1 0 0-0.1 0-0.1-0.1-0.1 0.1 0 0 0.2 0.1 0.2 0 0.1 0.1 0.1 0.1 0.1 0.1 0.1 0 0.2-0.1-0.2-0.1 0 0 0.1 0.2 0.1 0.3 0.2 0 0.1 0 0.1-0.1 0 0 0.2 0.1 0 0.1 0 0-0.1 0.1 0 0-0.1 0-0.1 0-0.1 0-0.1 0.1 0 0.1-0.1 0-0.1 0.1 0 0 0.1 0.1 0 0 0.1-0.1 0.1-0.1 0-0.1 0 0 0.1 0.1 0 0 0.1 0.1 0.1 0.1 0 0.1 0 0.1 0 0 0.1 0.1-0.1-0.1 0 0-0.1 0-0.1 0.1 0 0 0.1 0.1 0 0.1 0.1 0.1 0 0-0.1 0.1 0-0.1 0.1 0.1 0 0 0.1 0.1 0-0.1 0 0 0.1-0.1 0.1 0.1 0.1 0.1 0 0-0.1 0-0.1 0.1 0-0.1-0.1 0.1 0 0.1 0 0.1 0 0.1 0.1 0.1 0.1 0 0.1 0.1 0.1 0.1 0 0.1 0 0.1 0 0.1 0 0 0.1 0 0.1-0.1 0 0-0.1-0.1 0-0.1 0 0 0.1-0.1 0 0 0.1 0.1 0 0.1 0 0.1 0 0 0.1 0 0.1 0.1 0.1 0 0.1 0 0.1 0.1-0.1 0.1 0 0.1 0 0-0.1-0.1 0-0.1 0 0-0.1-0.1 0 0.1 0 0.1 0 0.1 0 0-0.1 0 0.1 0.1 0 0-0.1 0.1-0.1 0.1-0.1 0 0.1 0 0.1-0.1 0.1 0.1 0.1 0 0.1 0.1 0 0.1 0.1-0.1 0.1-0.1-0.1 0-0.1-0.1 0 0.1 0.1 0.1 0.2 0.1 0 0.1 0.1 0-0.1 0 0.1 0.1 0.1 0 0.1-0.1 0 0.2 0.2 0.1 0.1 0 0.1 0 0.1-0.1 0-0.1-0.1-0.1 0.1 0.1 0 0.1 0.1-0.1 0 0.1 0 0 0.1-0.1 0 0.2 0.1 0 0.1 0 0.1 0.1 0.2-0.1 0 0-0.1-0.1 0-0.1-0.1 0.1 0-0.1 0 0-0.1-0.1 0-0.1 0-0.1 0 0 0.1 0-0.1 0-0.1-0.1-0.1 0 0.1 0 0.2 0 0.1 0 0.1 0.1 0 0-0.1 0.1 0 0.1 0 0.1 0 0.1 0.1-0.1 0 0 0.1-0.1 0.1 0.1 0 0 0.1 0 0.1 0 0.1 0.1 0.1 0.1 0 0.1 0 0.1 0.1-0.1 0.1 0.1 0.1 0 0.1z" id="NZNTL" name="Northland">
  </path>
  <path d="M993.6 18.2l-0.1-0.1 0-0.3 0.3-0.5 0.1-0.1 0-0.1 0.1-0.1 0-0.1 0.1-0.1 0.1-0.1 0-0.3 0-0.1-0.1-0.1-0.4-0.2-0.1-0.1 0-0.1-0.1-0.1-0.1 0 0-0.1-0.2 0-0.1-0.1-0.1-0.2 0-0.2 0-0.1-0.1-0.1-0.1 0-0.1-0.1 0-0.1 0-0.1 0-0.1-0.1-0.1 0-0.3-0.1-0.2-0.1-0.1 0-0.2 0-0.1-0.1-0.1 0-0.1 0-0.1 0-0.1 0.1 0 0.1 0-0.1-0.1 0.1 0 0.1-0.1 0-0.2 0.1 0 0 0.1 0.1 0.1 0 0.1-0.1 0 0.1 0.1 0.1 0 0.1 0 0 0.1 0.1 0 0 0.1 0 0.1 0.1 0 0 0.1 0.1 0 0 0.1-0.1-0.1-0.1 0-0.1 0 0-0.1 0.1 0-0.1-0.1-0.1 0 0-0.1-0.1 0-0.2 0 0.1 0 0 0.1 0 0.1 0.1 0 0 0.1 0 0.1 0.1 0 0.1 0 0 0.1 0 0.1 0.1-0.1 0 0.1 0.1 0 0-0.1 0.1 0 0 0.1 0.1 0 0 0.1 0.1 0 0-0.2-0.1-0.1 0.1 0 0.1 0.2 0.1 0.1 0.2 0 0.1 0.1 0.1 0 0 0.1 0.1 0 0.1 0 0.5 0.4 0.1 0 0.2 0.1 0.2 0 0.2 0.1 0.1 0.1 0.3 0 0.1 0.1-0.2 0 0.1 0.1 0.1 0 0.1 0 0-0.1-0.1 0 0.1-0.1 0 0.1 0.1 0 0.1 0 0.1 0 0 0.1 0.1-0.1-0.1 0 0.1 0 0.1 0 0.2-0.1 0.1 0 0.1-0.1 0.2-0.1 0.1-0.1 0-0.1 0-0.1 0.1 0 0-0.1 0.1 0 0-0.1 0.1-0.1 0-0.1 0.1-0.1 0.3-0.1 0.1 0 0-0.1 0.1-0.1 0.1 0 0.1 0 0-0.1 0-0.1 0.1 0 0.1 0 0 0.1 0 0.1-0.2 0 0 0.1-0.1 0 0.1 0 0 0.1 0 0.1 0 0.1-0.1 0.1 0.1 0.1 0.1-0.1 0.1 0 0 0.1-0.1 0.1-0.1 0.1-0.2 0.3-0.1 0.5-0.1 0.2-0.1-0.1-0.2-0.1-0.1-0.1-0.1 0 0 0.1 0 0.1 0 0.1 0 0.1-0.1 0.1-0.1 0.1-0.1 0 0 0.1-0.1 0-0.1 0 0 0.1 0 0.2-0.1 0.1-0.1 0.1-0.3 0.1-0.2 0.2 0 0.1 0 0.1-0.2 0.2 0 0.1-0.2 0 0 0.1-0.1 0-0.1 0.1 0 0.1-0.1 0 0 0.1-0.1 0-0.1 0-0.1-0.1-0.3 0.1-0.1 0 0 0.1-0.1 0.1 0 0.2 0 0.1 0 0.1-0.1 0-0.2-0.1-0.1-0.1-0.1 0 0 0.1-0.1 0.2-0.1 0.1 0 0.2 0 0.1-0.1 0-0.1 0-0.1-0.1-0.1-0.2-0.1 0z" id="NZBOP" name="Bay of Plenty">
  </path>
  <path d="M996.1 17l0-0.1 0.2-0.2 0-0.1 0-0.1 0.2-0.2 0.3-0.1 0.1-0.1 0.1-0.1 0-0.2 0-0.1 0.1 0 0.1 0 0-0.1 0.1 0 0.1-0.1 0.1-0.1 0-0.1 0-0.1 0-0.1 0-0.1 0.1 0 0.1 0.1 0.2 0.1 0.1 0.1 0.1-0.2 0.1-0.5 0.2-0.3 0.1-0.1 0.1-0.1 0-0.1-0.1 0-0.1 0.1-0.1-0.1 0.1-0.1 0-0.1 0-0.1 0-0.1-0.1 0 0.1 0 0-0.1 0.2 0 0-0.1 0-0.1 0.6 0.1 0.1 0 0 0.1 0.1 0.1 0.1 0 0.1 0 0.1 0.1 0.1 0 0.1 0 0.1 0.1 0 0.1 0 0.1-0.1 0-0.1 0.2 0 0.1-0.1 0.1-0.1 0.1 0 0.1-0.1 0.2-0.1 0.1 0 0.1 0.1 0.1 0 0.1 0 0.1-0.1 0 0 0.1-0.1 0 0.1 0.2 0 0.1-0.1 0.1 0 0.1 0.1 0.1 0 0.1-0.1 0.1 0 0.1 0 0.1 0.1 0 0 0.1-0.1 0.1 0 0.2-0.1 0-0.3 0.4-0.3 0.3-0.1-0.1-0.1 0-0.1 0-0.1 0 0 0.1 0.1 0.1 0 0.1 0 0.1-0.1 0.1 0 0.1 0 0.3 0 0.1-0.2-0.1-0.1-0.1-0.3-0.1-0.4-0.4-0.1-0.1-0.2-0.3-0.1-0.1-0.7-0.2z" id="NZGIS" name="Gisborne District">
  </path>
  <path d="M993 19l0.1-0.1 0.2-0.3 0.1-0.1 0.2-0.3 0.1 0 0.1 0.2 0.1 0.1 0.1 0 0.1 0 0-0.1 0-0.2 0.1-0.1 0.1-0.2 0-0.1 0.1 0 0.1 0.1 0.2 0.1 0.1 0 0-0.1 0-0.1 0-0.2 0.1-0.1 0-0.1 0.1 0 0.3-0.1 0.1 0.1 0.1 0 0.1 0 0-0.1 0.1 0 0-0.1 0.1-0.1 0.1 0 0-0.1 0.2 0 0.7 0.2 0.1 0.1 0.2 0.3 0.1 0.1 0.4 0.4 0.3 0.1 0.1 0.1 0.2 0.1 0 0.1-0.1 0.1 0.1 0-0.1 0.1 0 0.1 0.2 0 0.1 0.1 0 0.1-0.1 0.1-0.1 0.2 0 0.1-0.1 0.1-0.1 0.1 0-0.3-0.1-0.1 0-0.1 0.1-0.1 0-0.1 0-0.1-0.1 0 0 0.1-0.1-0.1-0.5 0-0.4 0-0.1-0.1-0.1 0.1-0.5 0.2-0.4 0.2 0 0.1-0.1 0 0 0.1 0 0.1-0.1 0.1-0.1 0.1-0.1 0.1 0 0.1-0.1 0.1 0 0.1 0.1 0.1 0.1 0.1 0 0.3 0 0.1 0 0.1 0.1 0 0.1 0.1 0.1 0 0.1 0 0 0.1 0 0.1-0.1 0.1-0.1 0 0 0.1-0.1 0.2 0 0.1-0.1 0.1-0.1 0.3 0 0.2-0.1 0 0 0.1 0 0.1 0 0.1-0.1 0.2 0 0.1-0.2 0.2-0.1 0.1-0.1-0.1-0.1 0.1 0 0.1 0 0.1 0-0.1 0.1 0-0.2 0.4 0 0.2-0.1-0.1-0.1 0-0.3-0.1-0.1 0-0.1-0.1 0-0.1 0-0.2 0-0.1-0.1-0.2 0-0.1 0-0.1-0.1-0.1 0-0.1 0-0.1-0.1 0-0.2-0.2-0.2 0-0.1-0.1 0.1-0.3 0-0.3 0.1-0.4 0-0.1 0.1 0 0-0.1-0.1 0 0-0.1 0-0.1-0.1 0 0-0.1 0.1-0.1 0-0.1 0-0.1-0.1-0.1 0-0.1-0.1 0 0-0.2 0-0.1 0-0.1 0.1-0.1-0.1-0.1 0-0.3-0.1-0.2z" id="NZHKB" name="Hawke's Bay">
  </path>
 </g>
 <g id="points">
  <circle class="-46.63360354847618|167.07146649770925" cx="967.8" cy="47.7" id="0">
  </circle>
  <circle class="-41.48161784555697|173.1213118658109" cx="984.7" cy="27.6" id="1">
  </circle>
  <circle class="-35.04163571690796|177.9611881602922" cx="998.3" cy="4.6" id="2">
  </circle>
 </g>
 <g id="label_points">
  <circle class="Southland" cx="969.9" cy="43.7" id="NZSTL">
  </circle>
  <circle class="Marlborough District" cx="986.1" cy="28.1" id="NZMBH">
  </circle>
  <circle class="Nelson City" cx="985.4" cy="26.8" id="NZNSN">
  </circle>
  <circle class="Tasman District" cx="983.3" cy="28.5" id="NZTAS">
  </circle>
  <circle class="West Coast" cx="980.8" cy="30.7" id="NZWTC">
  </circle>
  <circle class="Otago" cx="975.5" cy="43.4" id="NZOTA">
  </circle>
  <circle class="Canterbury" cx="980.3" cy="35.5" id="NZCAN">
  </circle>
  <circle class="Auckland" cx="988.9" cy="10.1" id="NZAUK">
  </circle>
  <circle class="Waikato" cx="991.3" cy="14.9" id="NZWKO">
  </circle>
  <circle class="Wellington" cx="991.3" cy="26.3" id="NZWGN">
  </circle>
  <circle class="Manawatu-Wanganui" cx="991.6" cy="21.4" id="NZMWT">
  </circle>
  <circle class="Taranaki" cx="988.4" cy="19.6" id="NZTKI">
  </circle>
  <circle class="Northland" cx="986.8" cy="6.3" id="NZNTL">
  </circle>
  <circle class="Bay of Plenty" cx="995.3" cy="16" id="NZBOP">
  </circle>
  <circle class="Gisborne District" cx="998.4" cy="16.3" id="NZGIS">
  </circle>
  <circle class="Hawke's Bay" cx="994.3" cy="19.8" id="NZHKB">
  </circle>
 </g>
</svg>