<?xml version="1.0"?>
    
<!--********* Copyright (c) 2024 Pareto Softare, LLC DBA Simplemaps.com ***************************************
************* Free for Commercial Use, full terms at  https://simplemaps.com/resources/svg-license ************
************* Attribution is appreciated! https://simplemaps.com *******************************************-->

<svg baseprofile="tiny" fill="#6f9c76" height="1000" stroke="#ffffff" stroke-linecap="round" stroke-linejoin="round" stroke-width=".5" version="1.2" viewbox="0 0 1000 1000" width="1000" xmlns="http://www.w3.org/2000/svg">
 <g id="features">
  <path d="M537.8 150.6l-0.4 2.6-2.4 1.3-2 0.7-1 0.9-2.6 1.8-1.4 0.6-1.4-0.4-1-0.5-0.1-0.5-0.1-0.4 0.2-2.4 2.4-1.2 0.8-1-0.5-0.8-0.3-0.9-0.2-1.6 2.4-1.7 2.6 0.3 1.6 2.5 3.4 0.7z m-7.4 4.3l1.7-0.6 0.5-1.6-1.3-0.9-0.7 0-0.5 0.5 0.3 2.6z m-9.6-39.2l-0.1-0.1-0.5-1.2-0.5-4.3 0.1-1.6 1-1 1.1-0.9 0.6-1.3-0.4-1.2-2-2.7-0.4-1.6 0.4-1.4 1.7-2.4 0.6-1.4 0.3-8.6 0.6-2.9 0.2-1.8-0.5-1.9-1.3-3.8-1-0.1-4.4 1.2-2 0.1 0.4-0.9 0.8-3.4 5.8-9.2 2-4.3 0.9-0.9 1.4-0.8 0.1 0.6-0.1 1.3 1 1.6-0.2 0.5-0.4 1.4 0.6 0 0.9-0.9 2.2-0.1 0.5-0.6 0.5-0.3 1.1 0.4 1.1 1.1 0.2 1.7 0.6-1.1 0.6 0.1 0.8 0.4 1-0.1 2.4-1.7 0.9-0.2 2.6 0.7 0.6-0.1 0.2-0.8-0.3-0.9-0.7-0.7-0.6-0.2-1.7-0.2-1.1 0-0.8 0.5-0.5 0.6-0.8 0.9-1 0.5-1-0.3 0-1.1 0.7-4.1 0-1.5 2.5 2 1.1 0.5 0.5-1.5-0.4-0.7-1-1-1.2-0.8-1-0.4 0.4-0.9 0.5-0.1 0.5 0 0.5-0.3 1.1-1.4 0.4-1.1-0.1-2.1 0.3-1.4 0.5 0 1.2 2.6 1.4-0.9 0.4-0.4 0.7 0.7-0.5 0.7 0 0.3 0.2 0.2 0.3 0.7 0.8-0.7 0.5 0.3 0.4 0.6 0.6 0.5 2 0.6 1.1 0.1 1.1-0.1-0.2-0.4-0.3-1.1-0.1-0.4 1.8-0.7 0.9 2.4-0.2 1-1.2 0.1-2.2-0.1-1.5 0.5-2.6 2.3-1.4 0.9 0.1 0 0 0.6-0.8 1 2 2 0.9 0.8 1.2 0.4 0.8-0.4 0.9-0.7 1-0.2 0.9 1.3-1.6 2.9-0.8 0.3-0.5-1.8-0.9 0.1-1-0.1 0.4 0.9 0 0.6-0.1 0.5-0.3 0.6 1.1 1.1 1.3 0.8 1.2 1 0.6 1.8-1-0.1-1-0.2-0.8-0.4-0.8-0.7-1.2 0.6-1.1-0.5-0.6-1.1-0.1-1.6-0.5 0.3-1.3 0.7-0.5 0.3 0-1.1 0.1-0.7 0.4-0.6 0.7-0.3-2-0.3-2.1 1.3-1.3 1.8 0.6 1.2-0.4 1-0.1 1.2 0.1 1.2 0.4 1.3 0.8-2 0.7-1 0.9-0.3 0.6 0.6 0 1.1-0.2 1.2-0.4 1 1.7 0.7 7.8-0.1-0.8 1.3-1.3 1.1-2.7 1.6-2.5 1-0.8 0.8 0.3 1.6 2.2-1.2 1.2 1.1 0.1 1.8-2 1.4 0.4 0.9 1.1 1.6 0.4 0.7 0.7 0.4 2 0.5-0.7 0.5-0.3 0.3-0.3 1.3-1.3-0.7-1.4-0.4-1.2 0.1-0.9 1 1.4 2.2-0.6 2.2-1.4 2-1.1 2-0.1 0.8 0.1 2.2-1.7 1.7-1.4 2.6-1 1.3-1.3 0.7 0-2-1.2 2-1.2 3.1-0.6 3.6 0.6 3.2 0.5 1.1-3.6 1-1.4 0.3-1.4-0.4-0.6-0.7-0.9-1.9-0.7-0.7-2.1-0.3-0.3-0.2z" id="OMMU" name="Musandam">
  </path>
  <path d="M640.4 290.1l-10.1 17.7-11.2 9.7-10.7 3.5-25 1.2-1.5-2-8-30.7-25.7-22.8-13.5-6-0.6-8.3-8.5-29-11.5-15 0.1-3.9 0.1 0.1 1.9-0.1 1.6-0.5 0.8-1 0.5-1.6 1.9-2.3 1.4-3.5 1.3-0.6 3.3-0.4 1.5-0.8 2.9-2.8 0.5-0.5 2.4-1.7 0.5-1 0-0.6 0.2-1.7 0.3-3.2 0.4-0.5 0.4-0.4 4.7-0.6 1.9 7.8 5.6 11.6 0.9 1 0.6 2.2 0.6 4 10.2 19.4 2.1 2.4 4.9 4.4 9.4 11.6 1.9 3 0.8 1.8 0.8 2.7 8.5 10.3 10.3 8.8 8.1 6.6 2.8 1.8 12.3 4.8 15.9 4.2 2 0.9z" id="OMBA" name="Al Batnah North">
  </path>
  <path d="M514.2 204.5l-0.1 3.9 11.5 15 8.5 29 0.6 8.3-3 9.4-10.2 0-12.7 2.7-4.8 3.3 0 7.9-5.4 2.6-3.7 4.6 3.1 13.9-6.1 3.9-11.4 3.3-9.1 5.3-11.9-1.2 2.9-11.7 0.8-1.6 4-6.1 0.4-1.2-0.3-7.2-0.4-2.7-1.4-2.1-3.1-1.9-1.5-1.3-0.7-1.7 0.3-1.4 3.7-0.7 3.7-1.4 1.7-1 2.5-1.4 2.4-0.9 2.5-0.5 2.9 0.1 2.8 0.5 1.3-0.1 1.4-0.5 1.6-0.3 2.3 1.8 1.6 0.2 10.1-4.2 5.4-1.3 1-1.5-3.2-5.8-1-4.1-1.4-3.4-2.6-1.1-4.9 2-1.4-0.1-5.4-1.2-1.1-0.5-0.1-1.4 0.7-1.7 3.3-6 0.6-1.4 0.3-4.6-0.2-0.8-0.7-0.8-1.7-1.2-0.5-0.7-0.3-1.4 0.2-5.2-1.1-4-0.1-2 0.8-1.3 1.3-1.4 0.5-3.2 2.4-2.2-0.3-1.8-1.3-3-0.4-1-0.2-1.7 0.4-3.6 0-1.8-0.7-7.3 0.9-3 2.6-3.3 2.5-2.3 0.3-0.3 3.1-1.9 3.3-0.9 3.5 0.5 0.2 0.1 2.4 1.4 1 2.9 0.7 4.2 0.3 2-2.1-1.5-1.1-0.6-1.2-0.3-1.5 0.5-0.3 1.2 0.6 1.4 3.3 3 2.5 6.5 2.7 2.2 1.2 0.1z" id="OMBU" name="Al Buraymi">
  </path>
  <path d="M534.7 260.7l13.5 6 25.7 22.8 8 30.7 1.5 2-16.6 74.7-13.8 41.7-17.2 22.3-60.8 13.5-2.1 0.4 3.3-10.5-0.1-2.2-0.9-2-4.6-7.7-7-11.7-7-11.7-7-11.7-7-11.7-5.5-9.2 0.9-13.7-0.5-13.8 0.3-2.8 2.7-9 8.2-14.5 2-5.8 1.8-9.4 0.9-3.2 1.7-2.4 3.2-3.6 1.2-1.8 11.9 1.2 9.1-5.3 11.4-3.3 6.1-3.9-3.1-13.9 3.7-4.6 5.4-2.6 0-7.9 4.8-3.3 12.7-2.7 10.2 0 3-9.4z" id="OMZA" name="Al Dhahira">
  </path>
  <path d="M450.8 546.4l1.1 1.8 105.7 176.5 75.2 20.2-20.6 3.3-10.7 3-14.6 6.1-5.6 4.1-3.7 1.8-2 1.6-0.9 1.9-0.7 1-9.2 9.3-1.7 3.3-0.3 4.3 0.5 3 0.1 1-0.3 1.2-1.2 1.7-0.5 1.5-0.8 1.8-0.2 1 0 3.8-0.8 3.8-4.5 10.6 1.3 1.8-0.2 1.9-1.2 1.8-1.7 1.3-3.8 1.7-1.8 1.1-2.7 4.8-0.5 0.4-1.3 0.4-0.6 0.4-4 4.5-0.3 0.6 0.2 2.1-1 0.2-13.6-1.8-1.7 0.3-2.6 1.2-1.9 0.4-7.4-0.6-1.8 0.2-5.6 2.3-3.2 0.8-22.1 1-8.8 2.3-1.9 0.2-0.7 0.2-0.4 0.3-0.4 0.5-0.6 0.3-1.6 0-0.1 0-2.8 0.8-0.8 0.4-1.2 1.5-1.2 3.6-0.8 1.5-1.3 1.5-0.4 0.7-1.3 3.7-0.4 0.6-1.2 1.4-8 6.7-2.4 4.5-0.6 1.8-0.2 2.1 0.3 2.4 0.9 1.3 2.9 1.6 1.7 1.8 0.7 1.9 0 4.1-0.6 1.7-3.5 4.8-0.2 0.9-0.2 1.2 0.1 1.2 0.6 0.5 0.7 0.3 0 0.7-0.4 1.1-0.5 0.5-2.3 1.2-0.8 0.5-0.5 0.7-0.3 0.8-0.4 1.6-0.8 1.4 0.2 0.4-0.8 1-2.6 0.9-1.3 0.7-0.5 0.8-0.5 1.2-0.7 1.2-1 0.5-3.6 4-3.9 2.9-0.5 0-0.8-1.4-1 0.6-1.1 1.3-1 0.7-1.4 0.2-1.2 0.5-1.2 0.2-1.3-0.3-1.3 1.4-1.6 0.6-3.6 0.4-2.9 1.2-1.4 0-1-1.2-1 0.6-1.6-0.3-1 0.4-2.9-1.9-0.7 0.7-0.7-1.8-0.4-1.6-0.9-1.1-3.6-0.7-2.5-0.8-1-0.2-1.1 0.1-1.7 0.4-1.1 0.1-3-0.6-1.2 0-0.9 0.2-1.8 0.9-0.5 0.1-4.1-1.2-2.1-0.1-1.8 1.3-0.8-0.4-0.9-0.2-16.1 1.9-6.9 0-1.5 0.4-3.8 1.9-0.9 0.7-0.4 0.8 0.1 0.7 0.1 0.7 0.2 0.7-0.3 0.7-1.2 1.1-0.3 0.6-1 0.9-2.2 0.5-3.9 0.2-5.2 1.1-1.7 0.1-1.6 0.6-1.8 1-1.8 0.7-1.5-0.4-1.6 1-2.2 1.8-2 2.1-0.8 1.6-0.7 1-1.6 1-3.1 1.4-2.8 0.7-13.8 0.3-7.4 1.1-14.1 4.5-5.8 3.1-0.2 0-0.1 0.1-0.4 0.2-0.9 0.4-0.1-0.3-5.3-11.9-5.4-12.2-5.4-12.3-5.4-12.3-3.4-7.6-0.9-1.2-1.5-0.6-3.3-0.2-1.2-0.8 0.1 0 0.4-0.1 0.2 0-2.7-6.5-3.8-8.8-3.7-8.8-3.7-8.7-3.7-8.8-3.7-8.8-3.7-8.8-3.7-8.8-3.7-8.8-3.7-8.8-3.7-8.8-3.7-8.8-3.7-8.9-3.7-8.8-3.7-8.8-3.8-8.9-3.7-8.8-2.4-5.8-0.5-1.1 0.2-0.1 0.7-0.3 0.4-0.2 0.1 0 0.1-0.1 0.2-0.1-1.4 0.3 9.2-3.3 14.9-5.2 14.8-5.2 14.8-5.3 14.8-5.2 14.9-5.3 14.8-5.2 14.8-5.2 14.9-5.3 14.8-5.2 14.8-5.3 14.9-5.2 14.8-5.3 14.8-5.2 14.8-5.3 14.9-5.2 14.8-5.3 13-4.6 2.8-8.9 0.6-1.8 1.6-5.2 2.5-8 3.2-10.4 3.9-12.3 4.3-13.8 4.5-14.7 4.8-15.2 3.6-11.7z m42.6 331.2l-0.3-0.8-0.1-0.2 0.5-0.7 1-0.5 1.2-0.3 1.7 1 0.7 0.3-1.3 0.8-2.6 0-0.8 0.4z m19-6.2l0.2 1.2 0 0.2 0.9 1.1 1.1 0.7 1.3 0.5-2.8 1.7-1.5 0.6-1.3 0.2-3.9-0.2-1.2-0.5-0.7-1.9 2.3-1.4 3.3-1.1 2.3-1.1z" id="OMZU" name="Dhofar">
  </path>
  <path d="M472.9 474.8l2.1-0.4 60.8-13.5 142.7 71.5 27.5 14.2 9.3 4.7-12.3 40.4-1.7-0.6-2.6 0.2-2.5 0.8-2.8 1.8-3.5 0.9-1.1 0.8-0.6 0.8-1.5 4.4 0 1 0.5 1 0.3 0.8-0.7 0.7-1.1 0.5-2.1 0.5-1.6 0.8-1.6 1-2 2-0.8 0.9-0.5 1.1-0.2 1.2 0.2 0.9 1.3 1.4 0.2 0.8-0.6 2.1-1.5 1.2-3.8 1.5-1.5 0.9-1.5 1.3-1.3 1.5-0.5 1.7-0.4 1-1 1.2-0.9 1.6 0 2.3 1.6 3.7 0.5 2.3-1.4 3.3-1.3 5.1-0.1 1.3-0.1 2.7-2.1 4.9-1.4 5.2-1 2.2-5.5 8.2-0.8 2.4 0.3 2.8 0.7 1.1 0.7 0.9 0.7 0.9 0.2 1.2 0.1 2.8-0.1 1.4-0.5 1.2-0.6 2.4-0.2 1.8 0.6 1.8 4.2 6.9 0.7 1.6 0.5 2.5 0 2.5-0.4 2.3-1.5 4.2-0.3 1.9 0.2 2.1 1.8 4.7 0.8 1.5 2.2 2.5 0.5 1.5-0.8 3.9 0 1.8 3.2 6 0.1 1.3-2.2 2.2-1.2 1-0.4 0.1-3.9 0.6-0.4 0.5-0.4 0.5-0.9 0.7-1.1 0.7-0.8 0.2-18.1-0.8-4.9 0.7-75.2-20.2-105.7-176.5-1.1-1.8 1.1-3.5 4.6-14.8 4.2-13.8 3.9-12.4 3.2-10.5 2.5-8.1 1.6-5.2 0.6-1.9 0.4-1.4z" id="OMWU" name="Al Wusta">
  </path>
  <path d="M703 591.7l12.3-40.4-9.3-4.7-9.7-28.1-8.3-29.2 22.4-8.1 21.9-8 20.4-7.4 19.3-7.1 18.8-10.3 10.7-5.7 4.2-11.3 0.9-12.5-1.7-4.9-0.1-4.6 4.7-5.1 2 1.8 2 1.1 0.5 0.5 0.1 1-0.6 0.2-0.7-0.2-0.5-0.3 0 1.3 0.6 0.6 1.1 0.1 1.2-0.1 6.7-2.3 2.3 0.9 3.5 2.7 0.5 0 1.4-0.1 0.5 0.1 0.2 0.4 0.2 1 0.2 0.5 0 0.3-0.1 0.4 0.1 0.6 0.5 0.6 0.5 0.3 0.5 0.2 0.6 0.1 0.5 0.1 0.4-0.5-0.6-1-1.3-1.4 0.4-1.3 0.9 0 1.8-0.3 2.3 0.6 1.9 2.5 1.2 3.1 0.5 2.8-1.7 15.4-1.2 4.1-1.7 3.7-5 7-2.5 2.2-1.5 1.6-0.6 1.6-0.3 2.2-1.6 4.5-0.4 4.5-0.8 1.8-3.4 1.5-1.1 1.6-1.4 3.4-6.9 9.4-2.6 8.3-1.6 3.9-8.2 13-0.6 3-0.3 0.8-0.7 0.7-12.2 5.4-2.5 1.5-9.7 8-11.7 12.4-3.6 5.6-0.9 0.8-1.2 0.9-1.3 1.9-2.7 5-0.3 0.9-0.2 3.2-0.3 1-0.5 0.8-5 4.1 0.4 1.9-1.5 1.3-3.6 1.9 0.1 0.1-0.7 1.7-0.1 0.1-0.6 0.6-0.4 0.4-0.2 0.6 0.2 0.8 0.6 0.9 0.7 0.7 0.9 0.5 1.3-0.6 1.4-1.4 1-0.6-0.1 1.9-0.9 1.2-1.5 1.2-1.6 0.4-0.8-0.9-0.5 0-0.5 1.3-0.7 2.5-0.7 1.3-0.6 0.6-2 1.1-0.9 0.9-1.1 1.8-1 2.3-0.6 2.6-0.2 2.4-2.2 4.5-1.2 3.2 0.1 1.5-0.5 0.7-0.5 3.1-0.2 0.7-0.8 0.1-1.1 0.4-1.2 0.6-0.8 0.8-0.6 2.5-1.9 1-2.4-0.1-2.3-0.9-1.6-0.8-1.2-0.4-2.8-0.1-1.1 0.2-2.1 0.9-1.2 0.2 0.3-0.8 0.5-0.4-0.5-0.3-3-0.8-1.8-0.2-1.8-0.8-0.2-1.8 1.1-3.8 0 1.2 0.3 1 0.7 0.9 0.8 0.7 0.4-1.8-0.9-4.2 0.8-1.9 1.2-1.8 0.9-2.7 0.2-2.7-0.8-2z m56.5-1.6l0.1 2 0.5 1.6 2.7 4.8 0.8 1.4-0.4 1.1-0.7 0.7-3.3 2.5-3.6 2-1.5 1.4-2.1 3.2-1 2.1-1 4.5-0.8 1.5 0 1.1 0 0.1 0.1 0.8 0 0.6-0.3 0.7-3 2.9-1.5 2.1-0.8 0.9-0.8 0.3-1.1 0.2-1 0.2-0.4 0.6-0.3 1-0.7 1-1 0.8-1 0-0.4-0.8-0.4-0.7-0.4-2.9-0.1-2.9 0.2-1.5-0.1-0.2-0.2-0.8 0.6-7.3 0.5-1.2 0.9-1.3 0.5-0.4 1.5-1.2 0.7-0.3 0.2-0.1 0.1-0.2 0.4-1.7 0.2-0.5 1.5-0.6 1.4 0 1.5-0.3 1.5-1 0.8-1 0.3-0.5 0.3-1.1 0.1-0.2 0.3-3.6 0.6-1.7 0.8-1.4 4.1-5.5 1.6-3.4 1-3 0.8-1.1 1.3-0.3 1 1.5-0.1 1.6-0.6 1.7-0.3 1.8z" id="OMSH" name="Ash Sharqiyah South">
  </path>
  <path d="M809.5 404.3l-4.7 5.1 0.1 4.6 1.7 4.9-0.9 12.5-4.2 11.3-10.7 5.7-18.8 10.3-19.3 7.1-20.4 7.4-21.9 8-22.4 8.1-21.4-76 8.5-17.9 19.9-15.8 5.3-0.6 14.4-9.3 13.1-3.3 26 17.7 28.5 3.8 5.7-6.4 2-2.7 2.4 6 0.3 1.4 0.7 1.8 1.5 1.2 3.2 1.8 3.4 5.5 0.5 1.5 1.2 1.4 3.6 3.5 2.7 1.4z" id="OMSS" name="Ash Sharqiyah North">
  </path>
  <path d="M790 378.8l-2 2.7-5.7 6.4-28.5-3.8-26-17.7 4-21.4-21.9-22.6-18.7 2.5-2.2-9.3 2.7-13.5-0.1 0 0-0.3 0.7-0.6 5.4 2.2 1.4 0.3 1.5 0.7 3.2 3.2 1.6 1.3 3 1 4 0.5 4.2-0.1 3.6-0.7 1.9-0.7 0.7-0.6 0.7-1.8 0.7 0 1.7 0.5 3.7 0 1.9 0.4 1.8 0.9 0.8 1.2 1.7 3.8 0.8 0.8 0.4 0.2 0.4 0.4 0.3 0.4 0.3 0.3 0.2 0 0.5-0.1 0.6 0 0.6 0.1 1.2 1.1 0.7 0.8 0.4 0.7 0.6 0 0.6-1.3 0.2 0.5 0.1 0.3 0.2 0.4 0.1 0.8 0.6 0 0.1-0.5 0.4-0.8 0.5 0.4 0.3 0.1 1.1-0.5 2 2.8 0.6 1.5-0.3 1.5 0.7 1.3 0.9 4.3 1.1 1.8 5.1 4.8 3.1 1.4 1.3 1.7 1.4 4.1 0.9 1.4 2.6 2.6 1.3 1.9 0.8 5.6 5.5 5.6 0.3 0.8 0.5 2.8 0.4 0.6 0.4 0.5 2.4 2 4.6 2.7 3 2.2 2.1 2.6 1.5 2.9 0.8 2z" id="OMMA" name="Muscat">
  </path>
  <path d="M608.4 321l10.7-3.5 11.2-9.7 10.1-17.7 4.7 2.1 5.1 1.7 3.6 0.6 2 0.1 5.8-0.3 1.6 0.3 2.5 3.3 0.9 0.7 2.1 0.6 2.5 1.2 2.2 0.3 11.2-0.6 3.8 0.2 3.9 0.9-0.7 0.6 0 0.3 0.1 0-2.7 13.5 2.2 9.3-18.9 15.7-2.6 5.8-22.3 3.7-3.3-1.7-10-1.1-25.7-26.3z" id="OMBJ" name="Al Batnah South">
  </path>
  <path d="M583.4 322.2l25-1.2 25.7 26.3 10 1.1 3.3 1.7 22.3-3.7 2.6-5.8 18.9-15.7 18.7-2.5 21.9 22.6-4 21.4-13.1 3.3-14.4 9.3-5.3 0.6-19.9 15.8-8.5 17.9 21.4 76 8.3 29.2 9.7 28.1-27.5-14.2-142.7-71.5 17.2-22.3 13.8-41.7 16.6-74.7z" id="OMDA" name="Ad Dakhliyah">
  </path>
 </g>
 <g id="points">
  <circle class="17.129579977856913|52.373627089521584" cx="193.3" cy="910.4" id="0">
  </circle>
  <circle class="21.02700838536935|56.30570462681792" cx="534.1" cy="552.9" id="1">
  </circle>
  <circle class="25.898793894759894|59.45136665665499" cx="806.7" cy="92.5" id="2">
  </circle>
 </g>
 <g id="label_points">
  <circle class="Musandam" cx="532" cy="86.1" id="OMMU">
  </circle>
  <circle class="Al Batnah North" cx="562.4" cy="254.1" id="OMBA">
  </circle>
  <circle class="Al Buraymi" cx="509.2" cy="234.2" id="OMBU">
  </circle>
  <circle class="Al Dhahira" cx="512.3" cy="369.5" id="OMZA">
  </circle>
  <circle class="Dhofar" cx="353.2" cy="796.6" id="OMZU">
  </circle>
  <circle class="Al Wusta" cx="582.1" cy="592.2" id="OMWU">
  </circle>
  <circle class="Ash Sharqiyah South" cx="752.1" cy="502.6" id="OMSH">
  </circle>
  <circle class="Ash Sharqiyah North" cx="724.6" cy="421.7" id="OMSS">
  </circle>
  <circle class="Muscat" cx="747.4" cy="356.4" id="OMMA">
  </circle>
  <circle class="Al Batnah South" cx="653.6" cy="321.8" id="OMBJ">
  </circle>
  <circle class="Ad Dakhliyah" cx="614.8" cy="433.5" id="OMDA">
  </circle>
 </g>
</svg>