<?xml version="1.0"?>
    
<!--********* Copyright (c) 2024 Pareto Softare, LLC DBA Simplemaps.com ***************************************
************* Free for Commercial Use, full terms at  https://simplemaps.com/resources/svg-license ************
************* Attribution is appreciated! https://simplemaps.com *******************************************-->

<svg baseprofile="tiny" fill="#6f9c76" height="1000" stroke="#ffffff" stroke-linecap="round" stroke-linejoin="round" stroke-width=".5" version="1.2" viewbox="0 0 1000 1000" width="1000" xmlns="http://www.w3.org/2000/svg">
 <g id="features">
  <path d="M874.7 683.9l-0.5 0.3-0.4 0.2 1-1-0.1 0.2 0 0.3z m-9.3-26.1l-0.4-0.2-0.4-0.1-0.4 0.2-0.4 0.2 0.4-0.5 0.6-0.2 0.5 0.2 0.1 0.4z m-7.5-6.2l0.8-0.2 0.2 0.3-0.1 0.5-0.6 0.5 0.4-0.5-0.1-0.3-0.3-0.2-0.3-0.1z m-3.8 0.2l-0.5-0.6-0.2-0.2 0.4 0 0.1 0.1 0.1 0.3 0.1 0.4z m-4.3-1.3l-0.2-0.2-0.1-0.2-0.2-0.1-0.3 0.3 0.3-0.4 0.3 0 0.3 0.3 0.1 0.5-0.1-0.1 0-0.1-0.1 0z m-160.8-79.2l0.3-0.2 0.6 0.2 0.5 0.5 0.2 0.5 0 0.6-0.4 0.3-0.5 0.3-0.6 0.1 0.7-0.6 0.4-0.5-0.1-0.6-1.1-0.6z m53-12.3l-0.1-0.2 0-0.2-0.2-0.2-0.3-0.1 0.5 0 0.4 0.3 0 0.4-0.4 0.4 0.1-0.4z m17.7-2.7l-0.4-0.1-0.2-0.1-0.1-0.1 0.5-0.1 0.3 0 0.1 0.1-0.2 0.3z m-107.9-4.1l0.6-0.6 0.7 0.2 0.4 0.7-0.1 0.8-0.2-0.7-0.4-0.4-0.5-0.2-0.5 0.2z m23.8-3.2l1.1-0.7 1.1 0.6 0.4 1-1 0.4 0.6-0.9-0.5-0.5-0.9-0.1-0.8 0.2z m83.9-17l0.3 0.2 0 0.2 0.1 0.2-1.6-0.9 0.3 0.1 0.3 0 0.6 0.2z m-187.5-42l0.5-0.7 0.4 0.1 0.5 1.2 0 0.1-0.2-0.2-0.2-0.4-0.2-0.5-0.2 0.4-0.2 0.2-0.2 0-0.2-0.2z m72.3-22.2l-0.2-0.4-0.5-0.4-0.6-0.1-0.6 0 0.9-0.2 0.7 0.3 0.4 0.7 0 0.2 0 0.6 0 0.2-0.1-0.1 0-0.2 0-0.6z m130.9-0.1l-0.8 0-0.1-0.3 0-0.1 0.1-0.3 0.6-0.9 0.9-0.3-1.3 1.1-0.1 0.4 0.2 0.1 0.2 0.1 0.3 0.2z m-202.9-16.6l-0.4-0.3-0.1-0.1-0.2-0.2 0.5 0 0.4 0.1 0.5 0.3 0.3 0.4-0.2 0.1-0.3 0-0.2-0.1-0.3-0.2z m-48.7-16.2l0.1-0.3 0.4 0.2 0.5 0.4 0.3 0.5-0.3-0.1-0.4-0.2-0.6-0.5z m-74.2-34.6l-2.3-2.2 1.6 1.1 0.7 0.6 0 0.5z m218.9-3.1l1.2-0.2 0.4 0-0.4 0.2-0.8 0.8-0.4 0-0.3-0.2 0-0.3 0.3-0.3z m-321.7 2.1l-0.9-0.6-0.4-1 0.2-1 0.6-0.3 0.2 0.2 0.5 1.1 0.3 0.4 0.4 0.4 0 0.4-0.4 0.3-0.5 0.1z m77.1-2.9l0.2 0.5 0 0.3 0 0.3-0.4-0.9-0.2-0.4-0.3-0.3 0.1 0.1 0.6 0.4z m80.2-3.3l0.8-0.1 0.5 0.4 0 0.5-0.5 0.3-0.4 0-0.3-0.2-0.1-0.4 0-0.5z m-35.2-11.4l0.5 0 0.4 0.2 0.1 0.2-0.2 0.4-0.8-0.7-3-0.5-1.1-0.8 3 1 1.1 0.2z m-32.2-5.4l-0.4 1.3 0.2-0.8 0.1-1.1-0.1-0.4-0.3-0.3-0.1-0.1-0.4-0.2 0.1-0.1 0.4 0.2 0.2 0.1 0.1 0.3 0.2 0.5 0 0.6z m-18.7-5.4l-0.8-0.4 0.7 0.1 0.5 0.4 0.4 0.6 0.2 0.7-0.5-0.7-0.5-0.7z m-27.8-0.4l0.7 0 0.1 0.2 0.1 0.4-0.2-0.3-0.2-0.1-0.2-0.1-0.3-0.1z m-22.8-0.7l0.2-0.1 0.5 0.2 0.6 0.5 0.5 0.3-1.8-0.9z m14-4.3l-2.3-1.9-0.9-0.5 0.9 0.4 0.8 0.6 1.5 1.4z m-20.7-1.8l-0.1-0.2-0.1-0.1 0-0.2 0-0.2 0.2 0.7z m87.8-29.3l-0.4 0.2-0.5 0.2-0.5 0.1-0.5-0.1 1.5-0.2 0.4-0.2z m207.5-11l-0.2 0.3-0.4-0.3-1.1-1.1 0.5 0.2 1.2 0.9z m269 412.3l0.9-0.1 1.4-1.2 1-0.3-0.3 0.6-1.5 2-0.5-0.1-0.4-0.1-0.6-0.5 0-0.3z m-247-69l0.8-0.5 0.8 0.6 1.3 2.2-1.1 0.7-1.2-0.4-0.8-1.1 0.2-1.5z m-0.3-180l-2.2 1.2-1.3 1.1-1.2 1.3-0.5 0.1-0.7 0.1-0.7-0.2-0.4-0.2 0-0.5 0.2-0.7 0.5-1 0.9-1 0.8-1.6 1.6-1 3.3-1.4 0.8-0.7 1.2 0.2 0.2 0.9-0.3 1-0.9 0.7-1.3 1.7z m-249.5-76.4l1.2-0.4 1 0.6 0.4 1.1-0.5 1.2-1.2-0.2-1.1-0.5-0.4-0.8 0.6-1z m329.4 266.4l-3.6 0 0.9-0.3 0.9 0.1 0.9 0.2 0.9 0z m148.2-16.1l-3-1.9 1 0.1 0.8 0.3 0.7 0.6 0.5 0.9z m-134.5-30.5l0.7-0.8 0.1-0.5-1-2.8-0.2-0.2-0.2-0.1-0.8 0.2 0.2-0.1 0.4-0.2 0.2-0.1 0.3 0.1 1 1.6 0.3 2-1 0.9z m97.1-107.2l0-0.1 0-0.2 0-0.3-0.1-0.4-0.3-0.4-0.4-0.2-0.5-0.3-1.3-0.4-0.4-0.2-0.3-0.2-0.2-0.3-0.4-0.3-2-1.1-0.5-0.2-0.2 0.3 0 0.3 0 0.2-0.1-0.2-0.1-0.2-0.2-0.1-0.2-0.1 0.9-0.4 1.4 0.5 1.3 0.9 0.6 0.7 2.3 0.8 1.1 0.9-0.4 1z m-190.4-7l-0.2-0.1-0.2-0.5-0.7-0.6-2.4-1.2-0.8-0.6-0.4-0.5-0.1-0.2 1.1 0.8 3 1.7 0.4 0.6 0.3 0.6z m161.7-2.5l-4.2-4.4 1.1 0.5 1.4 1.2 1.2 1.5 0.5 1.2z m-168.3-6.6l-1.1-1.7-2.1-1.5-1-1.9-0.5-0.6-1.9-1.6 0.4 0.3 1.7 0.8 1.2 2.1 0.9 1 1.1 0.8 1 1 0.3 1.3z m-76.7-27.4l0.5-0.9-3.2-3.2 1.2 0.7 1.5 1.1 0.8 1.3-0.8 1z m-36.5-7.6l-1.1-0.8-1.6-0.4 0.8 0 0.8 0.1 0.7 0.5 0.4 0.6z m-86 1.3l-2.4-3.1 0.7 0.5 0.6 0.7 1.1 1.9z m-8.6-4.6l-0.4-0.6-0.2-0.6-0.1-0.7 0-0.8 0.7 2.7z m95.8-32.6l-3-2.1-2.3 0.1-1.9-0.2 3.7-0.4 1.1 0.3 0.9 0.7 1.5 1.6z m-8.1-1.6l-2.2-0.2-1.7-1.3-1.8-1 1.5 0.3 2.5 1.9 1.7 0.3z m-10.8-4.4l-0.2-0.1-1.2-2-1.3-1.1-1.5-0.5-0.9-0.4 0.2 0 0.9 0.3 1.4 0.2 0.7 0.3 1.2 1.4 0.5 0.9 0.2 1z m-19.2-2.8l-0.1-0.9-0.1-0.3-1.3-1.6 0.7 0.4 0.7 0.8 0.4 0.9-0.3 0.7z m-5.1-6.3l-1.4-0.5-0.9 0.2-0.4-0.6 0.3 0 0.1 0.1-0.1 0.2 0.7-0.2 0.7 0.1 0.6 0.4 0.4 0.3z m-48.4 0.4l-0.9-0.5-1.2-2.6-1-1.3-1.1-2.2-0.6-2.3-0.7-1.1-0.3-2.2 0.1 0.8 0.4 1 0.4 0.9 0.5 0.4 0.2 0.6 0.4 2.3 0.3 0.6 0.1 0.4 1.8 2 1.1 2.6 0.5 0.6z m-5.8-13.4l-4.1 0.3 2.2-0.8 1.2-0.2 0.7 0.7z m134.8 2.5l0.3-1.1 0.6-1.2 0.6-1 0.6-0.8-2.1 4.1z m105.7-6l-0.3-0.7-1.1 0-1.3 0.7 0.9-0.9 1.1-0.2 0.8 0.4-0.1 0.7z m-221-1.2l-3-2.8 0.7 0.4 2.3 2.4z m4.8-2.2l-0.8-2-2.3-3.6-1.4-0.9 1.2 0.2 0.7 0.8 1.1 2.1 1.1 1.3 0.4 0.9 0 1.2z m-130.6-41l-0.3-0.6-0.5-0.6-0.8-0.7-1.2-0.7-2.8-0.8 1.8 0.1 2 0.5 1.4 1.1 0.4 1.7z m-25.4-4.7l-0.9-1-1.8-0.8 1 0.1 1.2 0.4 0.7 0.6-0.2 0.7z m150-10.5l-0.4 0.6-0.8 0.6-0.9 0.5-0.7 0.2-0.2-0.6 0.5-1.2 1-1.9-0.9 2.2-0.2 1 0.9-0.2 1.7-1.2z m-46.4-7.4l0.5-1 0.3-0.9-1.4-0.9 1.2 0.2 0.5 0.8-0.2 1-0.9 0.8z m54.8 0.6l2.1-2.1 1.9-1.1 1-1-1.1 0.5-1.8 0.1-2.1 0.5 0.8-0.4 1-0.3 1.9-0.2 0.9-0.4 0.6-0.2 0.2 0.1 0 0.5-0.2 0.2-0.8 0.7-1.4 0.8-0.4 0.2-0.5 0.3-1.3 1.3-0.8 0.5z m-36.9-6.5l0.2-0.9-0.7-0.1-2.4 0.1 2.4-0.4 1 0.2-0.5 1.1z m398 319.3l0 0.1-0.1 0-0.2-0.2 0.1 0 0.1 0.1 0.1 0z m-104.7-24.2l-0.3 0.1-0.1 0.1-0.1 0 0.5-0.2z m-217.2-188.2l1.1-0.3 0.8 0.6 0.4 0.9 0.1 0.4-0.5-0.4-0.6-0.9-0.6-0.4-0.9 0.8 0-0.2 0-0.1 0.2-0.4z" id="PFX03" name="Tuamotu-Gambier">
  </path>
  <path d="M241.5 481.5l0.5-0.6 0.2 0.5-0.2 0.6-0.5-0.5z m46.8-31.2l0.4-0.1 0.2-0.1 0.1 0-0.2 0.3-0.6 0.5 0-0.1 0-0.2 0.1-0.3z m17.5 34.1l1 1.2 0.5 2.1-0.3 2-1.5 1-0.7-0.1-2.3-0.7-0.7-0.3-1.4-1.9-1.2-2-0.4-1.6-0.2-0.3-0.4 0-0.2 0.3-0.2 0.4-0.2 0.3-0.9 0.1-2.5 0.8-1 0.1-0.7-0.2-1.3-0.5-2.5-0.4-0.5-0.3-0.8-2.7-0.3-0.4-0.4-0.3-0.4-0.8-0.4-0.9-0.1-0.9 0.4-2.1 1.2-1.3 1.8-0.7 2-0.6 1.9-0.2 2 0.4 1.8 0.7 1.5 1 0.4 0.5 0.4 0.6 0.2 0.8 0.1 0.8-0.1 3 0.1 0.9 1.1 1.3 1.7 0.5 3.5 0.4z m-26.8-12.2l0.5 0.2 0 0.5-0.8 2-0.8 1.2-0.9 0.8-0.8 0-1-0.6-1.3-0.9-1-1-0.3-0.9 0.4-0.5 0.8-0.4 0.8-0.1 0.4 0.5 0.1 0.4 0.4 0 0.3-0.2 0.1-0.1 0.4-0.1 0.3-0.1 0.3-0.1 0.5 0.3 0.1-0.5 0.4-0.3 0.5-0.1 0.6 0z" id="PFX01" name="Windward Islands">
  </path>
  <path d="M98.3 441.7l0.2 0.4 0.2 0.6 0.2 0.5-0.2 0-0.4-0.5-0.5-1.5-0.3-0.6 0.4 0 0.2 0.3 0.1 0.3 0.1 0.5z m73.8-16.1l-0.5 0.3-0.4-0.2 0.1-0.3 0.8 0.2z m-99.6-28.4l0.1-0.5 0-0.4-0.3-0.3-0.4-0.1 0.5-0.1 0.3 0.3 0.1 0.5 0 0.5-0.1 0.2-0.3 0.2-0.1 0 0.2-0.3z m153.7 43.2l0.2-0.4 0.3 0.1 0.4 0.3 0.3 0.5 0 0.3 0 0.6-0.2 0.4-0.4-0.1-0.1 0.3-0.2 0.2-0.3 0.1-0.3 0-0.8-0.6-0.3-0.3-0.1-0.5 0.2-0.6 0.6-0.1 0.5-0.1 0.2-0.1z m-20.7-1.4l0.7-0.1 0.7 0.2 0.7 0.3 0.3 0.4 0.5 1.1 2.7 3.6-0.6 0.3-1.6 0.9-0.5 0.2-0.5-0.4-0.2 0-0.1 0.5-0.1 0.3-0.3 0.1-0.4 0.1-0.4 0-0.8-0.6-0.5-1.5-0.3-4.2 0.2-0.7 0.5-0.5z m19.8-1.4l0.8 1.5-0.1 0.2-0.3 0.2-0.3 0.3-0.4 0.3-0.6 0.1-0.3-0.5 0-0.6 0.1-0.5 0.4-1.1 0.3-0.5 0.3-0.1 0.1 0.7z m-18.9-3.6l0 1.5-0.2 0.5-0.4-0.1-0.3-0.3-2.4-1-0.3-0.3 0-0.2 0.2-1.7 0.6-0.5 0.9-0.1 1.3 0-0.2 0.4-0.1 0.2 0.9 0 0.4 0 0.2 0.2 0.1 0.2 0.2 0.3 0 0.2-0.1 0.3-0.3 0.2-0.5 0.2z m-14-6.9l0.7-0.2 0.4 0.5 0.3 0.9 0 1-0.7 0-0.6-0.6-0.3-0.9 0.2-0.7z" id="PFX02" name="Leeward Islands">
  </path>
  <path d="M369.6 771.6l0-0.3 0.8-0.3 0.8-0.2 1.7-0.1-0.1 0.3-0.2 0.2-0.3 0.2-0.3 0.2-1.3 0.3-0.6 0-0.5-0.3z m-76.8-24.5l1.1 0.4 0.2 0.7-0.5 0.7-1.9 0.2-0.5-0.2-0.3-0.6-0.1-0.7 0.3-0.3 0.5-0.1 1.2-0.1z m-83.2-44.4l0.4 0.1 0.4 0.5 0.4 0.6 0.1 0.5-0.1 1.1-0.2 1.3-0.3 0.2-0.1 0.1-0.2 0-0.2-1.2-0.4-1.2-0.3-1 0.5-1z m310.3 248.8l-0.2 0.2-0.5 0.6-0.2 0.2 0.1 0 0.1 1 0.1 0-0.3 0.6-0.3 0.4-0.5 0-0.7-0.3-0.3-0.9-0.1-1.5 0.4-1.3 0.9-0.4 0.9 0.6 0.4 0.3 0.2 0.5z" id="PFX04" name="Austral Islands">
  </path>
  <path d="M764 155.1l1.4 0 0.7 0.2 0.6 0.4 0.7 1.4 0 1.7-0.7 1.4-1.5 0.4-0.6-0.4-0.4-0.7 0-0.8 0.6-1.5-0.1-0.7-0.7-1.4z m-16.8-23.4l0.6 0.2 0.6 0.4 0.3 0.4-0.1 0.2-0.2 0.1-0.1 0.1-0.1 0.3-0.1 0.1-0.2 0.1-0.4 0.1-0.3 0.1-0.6 0.6-1 1.8-0.5 0.6-0.6-0.8 0.1-0.8 0.1-0.9-0.2-0.8 0.5-0.5 0.5-1.1 0.8-0.7 0.9 0.5z m10.8-7l0.9-0.1-0.1 0.4-2.3 1.9-1 0.4-1 0.3-1.7 0.1-2.4 0-0.5-0.1-0.2-0.2-0.5 0-0.6 0-0.2 0.2 0 1.3-0.3 0.8-0.4 0-0.6-0.3-1.8-0.4-0.8-0.4-0.5-0.7-0.4-0.5-0.2-0.6-0.2-0.7 0.2-0.6 1.4-0.4 3.8-2.2 1.5-0.3 1.4 0.2 0.5 1 0.5 0.5 0.8 0.4 1 0.2 0.9 0.1 1 0.2 0.4 0.1 0.5-0.1 0.4-0.2 0.2-0.2 0.3-0.1z m-54.2-18.5l1 1 0.5 0.2 0.6-0.3-0.6 1.3-0.3 1.5-0.6 1.2-1.3 0.5-0.8-0.4-2.1-2.9 0.8-0.6 0.8-0.8 0.9-0.6 1.1-0.1z m24.5-19.5l0.5 0.7-0.2 0.5-0.7 0.5-0.8 0.2-1.9 0.1-0.7 0.3-0.6 0.8 0.1-0.7-0.2-0.6-0.3-0.6-0.2-0.7 1.4-1.6 0.4 0 0.3 0.4 0.3 0.1 0.7-0.2 0.5 0.1 1.4 0.7z m-23.3-2.7l1.1 1.1 0.3 0.5 0.1 1-0.2 0.7-0.5-0.1-1.1-0.7-0.2 0.9-0.7 0.7-0.9 0.2-0.6-0.6-0.3 0-0.6 0.4-1.7 0.6-0.4 0.3-0.2 0.8-0.5-0.2-0.5-0.4-0.9-0.6-0.3-0.6-0.5-2.1-0.1-0.8-0.1-0.4-0.4-0.4-0.1-0.3 0.6-1.6 1.4-0.2 5.5 0.9 1.3 0 0.4-0.1 0.6-0.4 0.4-0.1 0 0.2-0.1 0.1-0.1 0.1-0.3 0.4-0.4 0.7z m-28.1-35.7l-0.3 0.6-0.4 0.5-0.4 0.1-0.5-0.6 0-1.6 1-1.3 1.4-0.5 1.5 0.4-0.6 0.5-0.2 0.1-0.8 0.1-0.4 0.4-0.3 1.3z" id="PFX05" name="Marquesas Islands">
  </path>
 </g>
 <g id="points">
  <circle class="-26.656654473045965|-153.55727698524228" cx="114.7" cy="906.2" id="0">
  </circle>
  <circle class="-18.78022223920708|-143.76027989509106" cx="542.8" cy="532.7" id="1">
  </circle>
  <circle class="-8.934681946908483|-135.92268222297008" cx="885.3" cy="88.9" id="2">
  </circle>
 </g>
 <g id="label_points">
  <circle class="Tuamotu-Gambier" cx="675" cy="486.1" id="PFX03">
  </circle>
  <circle class="Windward Islands" cx="293.7" cy="479.7" id="PFX01">
  </circle>
  <circle class="Leeward Islands" cx="207.3" cy="443.1" id="PFX02">
  </circle>
  <circle class="Austral Islands" cx="518.2" cy="951.9" id="PFX04">
  </circle>
  <circle class="Marquesas Islands" cx="749.7" cy="125.1" id="PFX05">
  </circle>
 </g>
</svg>