<?xml version="1.0"?>
    
<!--********* Copyright (c) 2024 Pareto Softare, LLC DBA Simplemaps.com ***************************************
************* Free for Commercial Use, full terms at  https://simplemaps.com/resources/svg-license ************
************* Attribution is appreciated! https://simplemaps.com *******************************************-->

<svg baseprofile="tiny" fill="#6f9c76" height="212" stroke="#ffffff" stroke-linecap="round" stroke-linejoin="round" stroke-width=".5" version="1.2" viewbox="0 0 1000 212" width="1000" xmlns="http://www.w3.org/2000/svg">
 <g id="features">
  <path d="M141.7 200.9l1.5-0.7 1.4 0 1.3 0.6 1 1.2-1.5 0.4-1.4-0.1-1.3-0.5-1-0.9z m811.6-67.7l-1.7 0.4 1.7-0.5 0.1 0 0.8 0.1 0.2 0.5 0.1 0.8-0.1-0.6-0.2-0.4-0.8-0.3-0.1 0z m-539.2-56.9l4 1.7 2 5.2 0.1 5.5-1.5 2.5-3.2-2.1-3.2-4.9-1.3-5.1 3.1-2.8z m-367.5-66.7l0.6 0-0.1 0.6-0.7 0.8-0.6 0.3-0.3-0.8 0.3-0.4 0.4 0 0.4-0.5z" id="PN" name="Pitcairn Is.">
  </path>
 </g>
 <g id="points">
  <circle class="-25.01944752683073|-130.45433102070595" cx="90.9" cy="192.7" id="0">
  </circle>
  <circle class="-24.558379825463675|-127.46682287922845" cx="545.5" cy="115.4" id="1">
  </circle>
  <circle class="-23.982045198754854|-125.07681636604649" cx="909.1" cy="19.2" id="2">
  </circle>
 </g>
 <g id="label_points">
  <circle class="Pitcairn Is." cx="416" cy="83" id="PN">
  </circle>
 </g>
</svg>