<?xml version="1.0"?>
    
<!--********* Copyright (c) 2024 Pareto Softare, LLC DBA Simplemaps.com ***************************************
************* Free for Commercial Use, full terms at  https://simplemaps.com/resources/svg-license ************
************* Attribution is appreciated! https://simplemaps.com *******************************************-->

<svg baseprofile="tiny" fill="#6f9c76" height="1000" stroke="#ffffff" stroke-linecap="round" stroke-linejoin="round" stroke-width=".5" version="1.2" viewbox="0 0 1000 1000" width="1000" xmlns="http://www.w3.org/2000/svg">
 <g id="features">
  <path d="M265 702l22.6 16.9 20.8 12.6-16.1 13.4-18.9 17.5-0.1 0-8.7 6-65.6 63.1-12.5 23.8-0.2 11.5 4.8 23.4-1.6 11.6-20.4 21.9-29.8 22.2-9.3 8.6-10.4-32.4-3.4-11.1-14.1-26.2 13-8.4 8.1-10.7 26-23.3 11.7-21.1 27.1-20.3 11.5-20.8 43.6-45.1 20.5-29.8 1.4-3.3z" id="PSGZZ" name="Gaza Strip">
  </path>
  <path d="M831.5 764.1l-39.4 3.3-33.5 19.2-63.2 52.9-33.9 12.7-72.3-0.6-34.7 4.7-14.8 5.2-15.9 2.5-15.4-2.4-12.8-9.8-6.8-22.8 8.5-22.7 26.1-43.9 3.3-22.1 0.3-19.1 2.5-18.4 9.2-17.9 1.3-2.4 10.6-12.6 49.6-31.7 19.8-17.4 12.1-10.4 6.7-10.5 13.5-2.9 3.1 2.6 7.2 1 7.3 8.1 15-2.1 8.2 5.5 2.8-2.7 2.2 1.1 2 3.3 3.8 2.3 2.6-1.1 1.1-5.8 2.8-2.8 1.9-9.9 3.3-3 2.7-4.2-1.8-5.7-3.8-3.8-0.3-4.9 3.2-9.6 2.7-4-1.7-2-0.6-5.5-1.7-7.9 2.7-4.5 2.5-5.1-2.7-1.7-3.9-0.4-1.1-1.3 3.2-5-2-2-2.2-1.9-3-0.6-6.6 1.8-3.4-5.3-1.1-4.7 0.6-6.9-2.7-8.1-5.8-1.6-3.9 2.9-0.3 4.2 2.7 5.3 2.1 6.8 1.8 9.7 0 10.5-0.2 2.5-1.5 0.9-9.6-5.2-3.9-0.2-3.7 1.1-0.8 3.5 2.1 4 0.2 3.7-7.1 0.8-21.4-4.6-9-7.2-5.2 0.6-8.6-5-5.5-11.5-6.9-4.1-6.9-0.3-4.8 0.8-6.1 3.5-10.5 10.6-8.4 2.3-6.6 0.6-12.3-1.9-1.7-1.4 0.7-2.7 6.4-5.7 5.1-5.6 4.7-1.5 13.6-0.7 2.5-2.8 2.7-32.4-5.3-10.8-7.8-1.5-6.4-4.9-0.9-3.7 2.3-3.9-3.8-3.2-8.4-12.1 6.4-7.9 0.6-10.3-1.2-11.8 6.1-6.6-13.4-47.1 1.6-23.5-5.7-17.8-8.4-16.1-2.6-8.9 1.9-10.4 22.5-20.8 4.3-8.5 2-8.7-1-7.3-4-5.1-7.3-2.3 1.8-9 2.1-21.6 2.4-8.7 2.2-1.6 7.7-2.8 2.2-1.7 4.2-14.1 2.3-11.7 6.9-35.6 11.4-20 15.3-11 17.4-8.4 17.9-11.4 14.6-17 8.1-6.2 10.4-0.6 1 0.5 7.7 4.1 16.6 13.7 10.5 3.8 36.5-1.8 17.3 2 17.2 10.8 5.2 16.1-0.3 21.3 3.2 17.3 15.1 4.5 13.8 0.5 13.6 3.5 46.9 12.2 1.7 5.3 1 6.2-3.6 0 0-4.7-4.3 0 0 4.7 3.1 6.7-0.5 20.6 5.3 10.2-2.6 8-0.2 13.1 2.2 13 4.6 8-2.9 1.7-2.2 1.8-1.6 2.5-0.9 3.8 7.6 0-7.5 32.4-2.6 11 2.5 8.1 0 5.1-4.8 2.4-2.6 3.1 0 3.7 3.1 4.4-9.7 16.7-0.4 7.9 6.1 8.5-9.8 8-3.1 11.9 1 31.5 6.3 16.1 1.3 7.2 0.3 9.4 1 5.7 3.4 7.5-0.4 5.5-2.6 3.1-4 1.2-3.6 2-1.7 5.5 14.2 54.7-6.3 8.5 0 5.1 12.3 36.8-18.5 20.6-14.5 33.9-13 30.1-9.2 49.4-3.2 50.5 0.2 1.1 0 0.6-0.2 0.2-0.4-0.2z" id="PSWBK" name="West Bank">
  </path>
 </g>
 <g id="points">
  <circle class="31.278008527983705|34.26888278103395" cx="141.9" cy="909.4" id="0">
  </circle>
  <circle class="31.81048502654082|34.955016190858544" cx="539.8" cy="547.1" id="1">
  </circle>
  <circle class="32.47608064973722|35.50392291871822" cx="858.1" cy="91.2" id="2">
  </circle>
 </g>
 <g id="label_points">
  <circle class="Gaza Strip" cx="149" cy="890.7" id="PSGZZ">
  </circle>
  <circle class="West Bank" cx="711.1" cy="321.6" id="PSWBK">
  </circle>
 </g>
</svg>