<?xml version="1.0"?>
    
<!--********* Copyright (c) 2024 Pareto Softare, LLC DBA Simplemaps.com ***************************************
************* Free for Commercial Use, full terms at  https://simplemaps.com/resources/svg-license ************
************* Attribution is appreciated! https://simplemaps.com *******************************************-->

<svg baseprofile="tiny" fill="#6f9c76" height="1000" stroke="#ffffff" stroke-linecap="round" stroke-linejoin="round" stroke-width=".5" version="1.2" viewbox="0 0 1000 1000" width="1000" xmlns="http://www.w3.org/2000/svg">
 <g id="features">
  <path d="M151 128.4l1.4 1.2 9.3 6 187.4 55.6 7 3 2.6 2-2 8.4 0 0.4 0.1 0.7 0.4 0.6 2.1 2.8 1.2 2.1 0.5 1.4 0.7 2.5 0 1 0 0.9-0.4 2.8 0.1 0.9 0.2 0.8 2.1 3.7 5.4 7.5 0.6 1 0.9 2.3 4.1 27.6 0.1 1.1-0.1 0.9-0.2 0.7-0.1 0.6-0.3 0.5-0.3 0.3-0.5 0.5-10.2 6.1-1.5 1.3-1.5 1.6-0.6 0.9-0.4 1.1-9.1 40.6-1.4 4.3-0.2 1.4 0 1 1.6 10 0.1 3.3 0.3 1.1 0.9 0.4 9.3-0.3 5.5-0.9 36.3 1.4 2.9 1 4.9 3 3.6 10.7 0.2 1.5-0.3 0.6-1.5 1.4-6.2 3.8-2.4 1.2-0.6 0-0.6-0.2-0.9-0.5-0.7-0.5-1-1-0.8-0.5-1-0.6-1.4 0.4-1.4 0.5-10.3 6.2-1.3 1.3-0.9 1.2-0.5 1.2-0.2 0.7-0.2 1.1 0.1 0.8 0.2 0.8 1.3 2.6 0.1 0.7-0.1 0.8-0.7 1.5-1.1 0.6-1.5 0.4-5.8 0-1.6 0.3-1.5 0.7-0.6 0.9-0.2 1.3 0.6 5 0 0.5-0.2 1.6-0.6 1.4-19.4 29-1 2.1-0.3 1.8 0 2.8-0.2 1.4-1 3.5-0.2 1.2 0.4 5.5-0.2 5 0.7 5.2-0.2 1.8-0.5 2.2-2.8 7.5 0 0.7 0.3 0.8 0.8 1.9 0.3 1.2-0.3 1.9-1.1 3.2-4.6 9.2-1.2 3.9-1 4.3-0.9 9.8-0.8 0.6-10 5.4-2.4 0.9-3.5 0.7-32.5 1.8-1.4 0.3-1.3 0.5-3.2 1.8-3.5 1.5-7.3 1.2-1.3 0.4-1.7 0.9-0.9 0.9-0.6 1-0.7 3.9-0.4 1.3-1.3 2.3-0.3 0.7-0.1 0.7 0.5 14.1-2.9 0.1-2.1-0.3-2.8-1.7-3.4-2.8-3.7-1.8-3.8 1.1-3.2-2.1-0.9-0.9-1.5-2.4-0.6-0.7-0.2-1.4-1.2-2.3-1.6-2.1-2.6-1.5-1.8-2.9-0.9-1 0.9-1.8 0.4-2.5-0.4-2.2-1.2-1-1.8-0.6-1.5-1.3-1.3-1.5-1.3-1.1-0.7-0.1-2 0.2-0.7-0.1-0.9-0.6-1.9-2-1-0.4-2-0.6-1.1-1.5-0.6-1.8-0.8-1.4-6.5-2.9-2.3-0.1-1.4-0.4-1-0.7-1.2-1.1-1.5-1.1-1.6-0.7-1.9-0.3-2.1-0.1-1-0.6-0.9-2.6-1.6-1 0.1-1.1 0.5-1.3 0.4-0.9-1.8 0-1.1-0.2-0.9-0.5-5.1-5.4-1.5-0.7-4.7 0-1.3-0.4-0.9-0.5-1.6-1.8-1.4-0.9-1.4-0.7-1.2-0.9-0.4-1.9-0.1-2.1-0.3-1.2-0.6-1.1-1.1-1.3-1.1-0.9-2.2-1.3-1.2-1.1-2.3-3.3-0.8-0.8-11.2-6.9-3.5-4-1.4-2.1 0-0.4-0.3-0.6 0.5-2.5-0.2-1-1.2-1.7-1.8-4-1.5-2.2-2.1-2.3-0.9-1.2-0.4-1.3-0.5-0.1-1-0.6-0.9-0.8-0.1-0.4-0.7-0.4-0.4-0.8-0.2-1-0.4-0.8-2.7-3-0.7-1.2-0.4-1.2-0.7-0.9-1.3-0.4-0.4-0.6 1.2-2.6-1.9-1.2 0-1.4 0.7-2.4-0.5-1.1-0.4-0.2-0.6 0.1-1.2-0.4-2.5-1.1-1.3-1.1 0-1.4 1.4-1.9 0.6-1.9-0.8-1.9-2.3-2.6-0.5-0.2-0.7 0.1-0.6-0.2-0.2-0.7 0-1.2-0.1-0.6-0.3-0.5-0.7-0.5-1.1-0.3-3.6-0.5-0.7-0.1-2-0.7-7-4.9-1.7-1.7-0.7-1.7-0.9-0.7-4-1.3-1.3-0.5-2.4-3.2-1.7-1.5-2.4-0.6-1.1-0.1-1.4-0.4-1.2-0.7-0.7-1 0.2-0.9 0.6-1 0.4-1.1-0.6-1.5 0.7 0-0.5-0.8-0.7-0.7-0.9-0.5-1-0.2 2.3-5.4 2.8-10.3 2.7-9.6 4.3-14.7 3.7-12.2 4.7-15.7 3.4-11.4 3.7-12.6 3.5-12 3.3-11.2 3.2-11 0.4-7.1-0.2-15.7-0.1-10.3-0.2-9.4-0.1-9.8 0.9-2.8 3.6-5.6 2.2-3.2 2.1-3.1 4.5-6.5 4.5-6.5 4.5-6.5 4.5-6.5 1.7-2.6 1.6-2.5 1.7-2.5 1.7-2.6 1.3-2.8 0.6-1.4z" id="PY19" name="Boquerón">
  </path>
  <path d="M265.1 540.7l-0.5-14.1 0.1-0.7 0.3-0.7 1.3-2.3 0.4-1.3 0.7-3.9 0.6-1 0.9-0.9 1.7-0.9 1.3-0.4 7.3-1.2 3.5-1.5 3.2-1.8 1.3-0.5 1.4-0.3 32.5-1.8 3.5-0.7 2.4-0.9 10-5.4 0.8-0.6 0.9-9.8 1-4.3 1.2-3.9 4.6-9.2 1.1-3.2 0.3-1.9-0.3-1.2-0.8-1.9-0.3-0.8 0-0.7 2.8-7.5 0.5-2.2 0.2-1.8-0.7-5.2 0.2-5-0.4-5.5 0.2-1.2 1-3.5 0.2-1.4 0-2.8 0.3-1.8 1-2.1 19.4-29 0.6-1.4 0.2-1.6 0-0.5-0.6-5 0.2-1.3 0.6-0.9 1.5-0.7 1.6-0.3 5.8 0 1.5-0.4 1.1-0.6 0.7-1.5 0.1-0.8-0.1-0.7-1.3-2.6-0.2-0.8-0.1-0.8 0.2-1.1 0.2-0.7 0.5-1.2 0.9-1.2 1.3-1.3 10.3-6.2 1.4-0.5 1.4-0.4 1 0.6 0.8 0.5 1 1 0.7 0.5 0.9 0.5 0.6 0.2 0.6 0 2.4-1.2 6.2-3.8 1.5-1.4 0.3-0.6-0.2-1.5-3.6-10.7 11.3 6.3 3.8 1.5 2.3 0.6 1.7 0.2 15.4-0.6 21.5 1.8 5.2-0.6 47.1 3.3 2.6 0.7 1.4 1 0.7 5.2 0.8 1.1 1.5 0.9 34.6 15.5 0.6 2.5 1.3 12.3 1.4 3.3 2.6 3 1.1 1.8 0.4 2.3-0.9 1.1-2.3 0-4.3-0.7-4.6 0.7-3.3 2.3-1.2 3.3 2.2 3.3 1 0.4 2.3 0.7 0.8 0.5 0.6 1.1 0.5 2.5 0.6 1.2 0.9 0.5 2.3-0.1 1 0.4 0.7 0.9 0.3 0.5 0.7 1.9 1 1.4 0.4 1.1-0.1 1.3-0.9 1-1.3 1-1 1 0.2 1.1 3.3 3.1 1.3 1.8 0.6 2.2-2.2 4.4 1.5 1.4 4.5 2.2 0.9 1.3 0.6 2 1.6 0.6 4 0.1 1.9 0.8 0.8 1.4 0.1 1.8 0 2.3 0.6 1.8 1.6 1.6 2.1 1.3 3.7 1.8 0.7 0.5 0.9 0.8 2.4 3.3 1.1 0.8 1.6 1.7 0.4 0.6 0 2.4-0.2 0.6-0.5 1.1-0.8 1.5-0.6 0.7-0.2 0.8 0.3 1.5 0.6 1.1 1.7 1.6 0.7 1.3 1.4 1.1 0.3 0.5 0.1 0.9 0.6 3.3 0.4 1.1 0 0.8-0.4 1.1-0.2 1.2-0.9 2.1-0.2 1.2 0 1.3 0.5 2.3 0.1 1.2 0.3 1.6 2.5 4.8 2.8 3 7.2 4.1 3.1 2.7 1.5 1.7 0.4 0.9 0.1 1.2-0.6 1-1.8 0.7-0.4 0.8 0.4 1.1 0.7 0.8 0.8 0.6 0.3 0.6 0 0.8-0.7 3.3-0.3 3.4-0.4 1.1-2.3 1.6-0.4 0.3-0.3 0.6-0.8 0.8-0.7 1.1-0.4 1.3 0.5 0.8 1.3 0.2 1.3-0.1 1 0.2 1.9 2.3 0.4 2.7 0.2 2.9 1 2.7 2-0.7 1.7 1.1 0.7 1.9-0.6 1.8-0.6 0.9-0.2 1.2 0.5 0.9 1 0.4 3.6-0.2 0.9 0.2 1.6 2.1-1 2.2-1.7 2.1-0.8 1.9-1.9 2.1-0.3 0.6-0.1 0.4-0.1 0.7 0.2 1.4 0.3 0.9 0.4 0.8 1.9 2.1 0.8 1.2 1.1 2 0.4 1.5 0.5 6.8 0.8 3.3 1.1 7.8 0.5 1.6 1.1 2.8-0.1 1-1 3.6-0.4 4.5 0.1 2.2 0.4 1.5 0.7 1.4 0.7 1.4 1.4 0.8 1.5 1.4 0.7 1.7-2.1 4.5-0.5 2-0.6 1.8-1.5 1.1-1.2 0.1-0.8-0.4-0.9-0.2-1.2 0.5-0.3 0.8-1.6 6.3-5.1 7.2 0 0.6 0.8 1 0.9 0.1 0.9-0.6 0.6 0 0.3 1.7-0.2 1.3-0.4 1 0.1 1 0.8 1.2 1.2 1.4 0.4 0.9-0.5 0.7-1.4 0.5-2.1-0.3-2.8-0.7-2.3 0.3-1 2.6-4.9 6.5-1 0.8-1.2 0.7-1.2 0.5-1 0.2-0.8 0.5-1.9 2.1-0.8 0.5-3.2 0-2.9 0-2.8-0.6-1.3 0.2-0.5 1.5-0.3 2.8-0.9 3.1-1.3 2.8-1.6 2.3-1.3 1.4-1.3 0.6-2.8 0.9-1.5 0.9-1.2 1-2.1 2.7-3.1-2.1-1.9-2.7-3.3-7.2-1.2-1.5-3.1-1.5-1.5-1.2-4.4-5.2-1.5-1.2-2-0.8-7.9 0-1.4-0.5-0.6-1.1-0.4-1.3-0.7-0.9-0.9-0.2-2.3 0.3-1-0.1-6.9-3.5-1.3 0-1-1.6-9-6.3-1.9 0.1-1.7 1.2-2.8 3-1.2 0.8-1.3 0.7-1.1 0.2-1.3-0.4-0.5-0.6-0.3-0.9-0.6-1.1-6.5-7.2-2.4-3.4-1.2-1.2-2.3-1.2-22.1-4.3-0.5-0.5-0.3-0.9-0.6-0.5-0.8-0.3-0.7-0.6-1.5-0.4-5.1-0.2-2.1-0.5-19.2-14.6-3.2-0.8-1-0.8-2-2-1-0.6-0.6-0.1-1.9 0-2-0.8-3.7-2.4-2.4-0.9-2.8-2-4.2-1.5-1-0.7-0.5-0.8-0.8-0.6-1.5-0.2-0.9-0.3-1.3-1.6-3.3-1.2-1.7-2.1-2-3.9-1-1.1-3.9-3.4-2.4-1.1-0.4-0.9-0.2-1-0.4-0.8-0.6-0.5-2.2-1-2.3-1.3-1-0.8-1.1-1.3-0.8-0.5-1.9-0.4-1.7-1.1-2.5-0.3-1-0.3-0.7-0.7-1.8-2.4-3.8-4-36.2-24-1.8-0.5-2.1 0.2-4.7 1.7-2.4 0.6-7.5 0.2-7.8-1.2-3.2 0.2-1-0.2-1-0.6-2-1.8-1.1-0.7-0.9-0.1-3.6 0.1-6.2-1.2-3.3-2.4-1.8-0.9-3.6-0.1-0.6-0.2-1.6-3.5-0.1-0.7-0.9-0.2-1.7-0.9-1.1-0.4-1.2-0.1-4.6 0.2-1-0.2-2-1.8-1-0.3-5.9 0.1z" id="PY15" name="Presidente Hayes">
  </path>
  <path d="M563 759.3l0.7-0.5 1.1-1.5-1.5-3.8-0.3-2.1 1.5-1 1.8-0.6 1.9-1.5 1.7-1.8 1.1-1.4-1.1-0.3-0.9-0.4-0.8-0.6-0.6-1 2.1-3.2 1.2-1.2 2.2-0.9 1.1-0.1 1 0.1 1-0.1 1-0.7 0.3-0.8 0.6-2.5 0.2-0.5 2.9 0.4 1.6-0.1 0.7-0.7 0.4-2.6 1.1-0.7 1.4-0.4 1.2-1.2 0.5-2 1.3-9.7-0.1-1.8-0.7-1.4-1.4-1.6-1.9-1.5 2.4-2.2 2.5-2.7 1-4.5-0.5-4.1-1.5-2.8-2.4-2.4 1.3-1.4 1.6-2.3 1.3-2.8 0.9-3.1 0.3-2.8 0.5-1.5 1.3-0.2 2.8 0.6 2.9 0 2.2 3.4 0.4 0.3 4 2.6 1 0.9 3 5.3 3.1 3.4 1.2 1.9 0.6 1.4 0.3 1.7 0.6 2.1 3.5 6.4 1 1.4 0.6 0.5 0.7 0.3 0.7 0 0.6-0.2 0.4-0.3 0.7-0.6 0.5-0.4 0.5-0.1 0.6 0.1 1.1 1.2 2.1 3.4-4.1 2.5-2.9 2.7-0.7 0.8-8.5 13.7-3.2 3.8-3.6 3.5-1.2 1.7-1.1 2.2-1.2 3.9-0.4 3.3 0.1 2.5 2.4 7.6 0.2 2-0.4 2.4-2.7 5.2-2.3 2.9-4.7 4.5-1.3-3.1-2.6-3.4-0.5-1-0.3-1-0.2-1.2-0.3-0.7-0.4-0.5-2.1-0.9-1-0.6-2.7-2.3-2.3-1.5-2.3-1.9-1.3-1.5-1.4-1.8-0.8-0.7-0.6-0.3-0.7 0-2.1 0.5-0.6 0-0.7-0.1-2-0.7-0.5-0.1-0.5 0.1-0.4 0.4-0.2 0.5-0.1 0.9 0.1 1.9 0 0.7-0.1 0.5-0.6 0.4-0.5 0.2-2.4-0.6-0.4-0.2z" id="PY11" name="Central">
  </path>
  <path d="M585.3 709.6l-4.3-3.4 0-1.3-3.1-7.8 0-0.1 2.1-2.7 1.2-1 1.5-0.9 2.8-0.9 1.3-0.6 2.4 2.4 1.5 2.8 0.5 4.1-1 4.5-2.5 2.7-2.4 2.2z" id="PYASU" name="Asunción">
  </path>
  <path d="M879.7 802.8l-0.1 0-0.2 0-5.7-0.5-1.1-0.2-0.6-0.7-0.2-0.7 0-0.8 0.1-0.7 0-0.6-0.1-0.5-0.2-0.3-0.4-0.4-0.6-0.4-1.9-0.9-1.4-0.6-2-0.4-1.5 0-0.8 0.3-0.9 0.4-1.3 1.2-0.6 0.4-0.6 0.2-0.7 0-0.8-0.2-0.9-0.8-0.3-0.5 0.1-0.8 0.4-1.6 0.1-0.6-0.1-0.5-0.1-0.3-0.4-0.2-0.4 0-0.6 0.3-0.5 0.4-0.6 0.6-0.7 1.1-1.5 2.8-0.4 0.5-0.7 0.7-0.7 0.4-0.6 0.3-1.4 0.3-3.3 0.3-0.7 0.7-0.4 0.6-0.3 0.8-0.1 0.2-0.3 0.2-0.4 0.3-0.6-0.1-0.8-0.4-1.5-1.1-1.1-0.7-3.2-0.8-2.6-1.1-1-0.3-0.8-0.1-2-0.1-7.4 0.4-2.1-2-3.4-10.9 5.3-3.1 0.8-0.8 0.4-1 0-1-0.6-0.8-0.7-0.4-0.7-0.2-1.9-0.1-0.8-0.3-0.7-0.5-0.5-0.6-0.4-0.5-0.4-0.5-0.6-0.4-0.6-0.1-3.2 0.9-1.7 0.4-2.9 0.2-2.4-0.1-0.9 0.1-1.3 0.7-0.7-0.2-0.8-0.3-1.4-0.7-4.1-1.7-0.5-0.4-0.6-0.8-0.3-1.3 0.3-3 0-1.1-0.6-2.2-0.1-1.1 0.4-1.2-0.4-1.1-0.4-0.7-0.6-0.9 0-1.2 0.7-2 2-4.4 0.3-0.5 2.1-1.7 0.6-0.8 0.4-1.1 1.6-4.9 0.4-1.5 0.1-2.6 0.6-1.5 0.8-1.1 2.5-2.3 0.6-0.9 0.2-0.8-0.1-0.8-0.5-0.7-1.3-1.8-0.4-1-0.2-1 0-0.8-0.2-0.7-0.5-0.5-1.4-0.4-0.9-0.1-3.6 1.1 23.3-32.7 3-3.4 1.1 0.1 1.9 1.3 2.6 2.6 1 0.6 2.4 0.8 1.3 0.4 1.1-0.1-0.1-1.1-0.5-2.2-0.1-1.2 0.6 0.7 1 1.6 0.6 0.7 0.8 0.6 0.8 0.2 1.7 0.4 1.4 0.6 0.8 0.9 0.4 1.3 0.2 1.5 1.3 2.4 2.6 0.4 2.7 0.1 2.2-0.7 0-1.4-0.1-0.6-0.2-0.6-0.2-0.5-0.7-0.9-0.2-0.5-0.3-0.5-0.1-0.6 0-0.7 0.3-2-0.1-0.5-0.3-0.5-0.5-0.3-2.7-1.1-0.5-0.3-0.4-0.3-0.3-0.4-0.2-0.5 0-0.6 0.6-2.1 0.1-0.7-0.1-0.6-0.3-0.5-0.3-0.3-8.5-6.2-8.1-7.7-0.5-0.8-0.4-0.4-0.4-0.2-0.6 0-0.6 0.1-0.5 0-0.5-0.2-0.4-0.4-0.3-0.4-0.4-0.4-0.5-0.2-0.6-0.1-1.8 0.3-0.7 0-0.7-0.1-0.6-0.1-0.6-0.3-0.4-0.3-0.5-0.3-0.7-0.8-0.3-0.4-0.3-0.5-0.4-1.1-0.4-1-0.5-1-1.2-1.8-0.2-0.7-0.1-1 0.4-1.4 0-0.9 0-0.7-0.2-0.5-0.1-0.7 0-0.7 0.1-1.7 0-0.7-0.1-0.6-0.2-0.5-0.2-0.7-0.1-0.8 0.1-1.2 0.7-0.7 1-1.6 0.2-1-0.1-1-0.9-2.6-0.4-2.1 0.2-1.2 0.4-0.7 0.8-0.5 0.7-0.6 0.6-1.4 0.3-1.3-0.2-4.5 0.4-1.1 1.1-1.9 0.1-0.9-0.1-1.1-0.6-2.5-0.1-1.6 0.1-1.1 0.3-0.9 0.5-0.8 3-3.6 2.6-3.7 11.1-3.8 2.2 0.5-0.4 4.1 0.1 1.2 0.5 1.4 1.4 1.4 1.5 0.6 1.3 0.2 1.2-0.2 2.4-1 1.5-0.3 0.8 0 7.7 2.5 2 1.1 1.1 1.2 0.2 1 0 0.7-0.2 0.6-0.2 0.6 0 0.6 0.2 0.6 0.6 0.7 0.8 0.3 0.9 0.1 3.6 0.2 1.4 0.1 0.8 0.4 0.4 0.4 0 0.5-0.1 0.6 0 1 0.6 0.8 0.5 0.3 0.6-0.1 0.5-0.2 0.5-0.4 0.6-0.5 0.4-0.5 0.6-1 0.5-0.5 0.8-0.6 1.2-0.1 0.8 0.2 1.2 0.6 0.7 0.3 0.9 0.1 0.6-0.1 1.5-0.4 0.8-0.1 0.5 0.1 0.4 0.5 1.1 2.8 0.6 0.9 0.7 0.8 0.9 0.4 7.7 1.2 2.9 0.8 2.8 1.2 2.4 0.5 2.5 0 2.3-0.2 2.6 0 1.4 0.2 2.3 1 0.1 0-1.3 3.9-2.9 4.2-0.8 1.8-4.6 20.1-0.9 3.8-0.2 2.1 0.1 1.9 0.8 2.1 2.6 4.3 0.3 2.1-0.9 1.9-3.4 3.2-1.2 1.9-2.2 7.3-2.5 4-1.9 2.4-2.8 2.7-2.3 4.1-1.2 3.9-0.2 1.3 0 2.4 0.4 2.4 1 2 0.7 2.1-0.3 2.7-0.6 2.7 0 0.2-0.2 2 1.6 3.6 0.3 2.2-1.5 1-3.6-0.2-0.9 1.1 0 2.9 1.8 5.8 0.3 2.2 0.5 1.5 2.3 2.9 0.6 1.3-0.1 2.5-1 1.9-1.1 1.8-0.5 1.8 0.8 5.1 0.1 2-0.9 1.7-0.9 0.3-2.4 0.2-0.8 0.4-0.6 1.2 0 1.1 0.4 1.2 0.5 3.3 1 3.6 0 2.5-2.1 7.2 0.4 1.7 1.8 2.2 0.4 1.4-0.7 1.3-1.1 1.6-0.8 1.5-0.1 0.3z" id="PY10" name="Alto Paraná">
  </path>
  <path d="M816.8 785.4l3.4 10.9 2.1 2 7.4-0.4 2 0.1 0.8 0.1 1 0.3 2.6 1.1 3.2 0.8 1.1 0.7 1.5 1.1 0.8 0.4 0.6 0.1 0.4-0.3 0.3-0.2 0.1-0.2 0.3-0.8 0.4-0.6 0.7-0.7 3.3-0.3 1.4-0.3 0.6-0.3 0.7-0.4 0.7-0.7 0.4-0.5 1.5-2.8 0.7-1.1 0.6-0.6 0.5-0.4 0.6-0.3 0.4 0 0.4 0.2 0.1 0.3 0.1 0.5-0.1 0.6-0.4 1.6-0.1 0.8 0.3 0.5 0.9 0.8 0.8 0.2 0.7 0 0.6-0.2 0.6-0.4 1.3-1.2 0.9-0.4 0.8-0.3 1.5 0 2 0.4 1.4 0.6 1.9 0.9 0.6 0.4 0.4 0.4 0.2 0.3 0.1 0.5 0 0.6-0.1 0.7 0 0.8 0.2 0.7 0.6 0.7 1.1 0.2 5.7 0.5 0.2 0 0.1 0-0.1 0.5 0.2 2.2 0 5.1-1.5 3.5-0.2 0.6-0.3 0.6-0.9 6.9-0.5 1.8-0.9 1.5-3.1 3.6-2.8 2.3-1.5 1.8-0.9 2.1 0.1 1.5 0.5 1.6 0.3 2.1-0.1 2.6-0.4 2.7-0.8 2.5-1.4 1.9-1 0.5-0.6-0.3-0.4-0.6-0.8-0.4-4.4 0-2.4 0.6-1.7 1.6-1.1 2.2-1.3 5.2-0.7 2-1 1.6-1.5 1.8-1.6 0.8-4.9 0.4-2.1 0.7-6.5 6.6-0.7 1.9 1.4 4.5-0.3 2.4-1.6 1.4-2.4 0.4-3.9-0.3-1.6-0.4-1.8-1-2.2-0.9-2.4 0-4.9 2.7-4.7 0.6-2 0.6-1.8 1.2-1.7 1.9-1.2 2.1-0.6 2.3-0.2 5.2-1.1 1.8-2.5 0.2-2.7-0.3-2 0.3-1.2 1.8-0.4 2.3-0.6 2-1.6 0.9-2.7 0.7-0.1 1.7 2.5 4.6 0.4 1.3 0.2 1.2-0.2 1.2-1.4 2.3 0.1 0.7 0.3 1-0.1 1.5-1 2.6-1.6 1.9-2.1 1.3-2.5 0.4-2.9 2.2-3.6 4.3-3.7 2.9-6.1-3.3-2.7-0.8-1.2-0.7-0.8-1.1-1.6-4.2-1.5-2.2-2-0.8-2.3 0.1-2.5 0.4-0.5 0-1.9 0.1-2.2-0.5-6.7-2.6-0.1-0.1-2.4-0.4-2.6-0.2-2.6 1.4-1.9 1.5-3.6 4.2-2.3 1.1-2.9 0.7-2.3 1.3-0.5 2.5 0.3 3.1-0.3 2.5-1.2 2.3-2 2.2-1.9 2.8-1.4 3.5-1.8 2.7-3.2 0.7-0.1 0-3.1-1.3-3-2.4-2.6-3-1.9-3.1-4.1-5.1-6.6-1-2.5 0.8-0.1 0-0.5-8 0.1-0.6 0.4-0.9 0.3-0.5 0.4-0.7 0-0.6-0.4-0.9-0.5-0.6-3.5-3.4-0.7-0.8-0.6-1-0.2-1.8 0.3-2.5 1.4-4.6 0.9-1.7 1-1.2 0.9-0.6 0.9-0.7 2.6-3 0.9-0.6 0.8-0.3 5.1-0.6 0.9-1.9 0.2-3.9-4-41 7.5 1.7 0.7 0.4 3.1 2.6 1.5 1 1.6 0.4 1.7-0.1 11.6-4.6 8.6-4.6 6.1-2 3.1-0.5 1.6-0.7 0.8-0.8 0.9-3.5 0.6-1.1 0.9-0.9 1.4-1.2 1.2-1.4 1-1.5 0.9-2.7 0.5-1.1 2.2-3.4 1.5-1.2 5-1.6 7-1.3 1.7-0.8 1.6-1.1 4.7-5 1.9-1.6 0.7-0.8 0.8-2.3 1.1-1.3 5.9-2.5 4.2-1.3 2.1-0.2 1.8 0 1.4 0.4 1.4-0.1 2.1-0.4 6.8-2.6 1.8-1.1 8.5-6.6 4.1-4.1 0.8-1 0.6-1 0.3-0.9-0.1-5.4 0.2-0.9 0.2-0.8 0.1-0.6 0-0.8 0.2-0.9 0.2-0.3 0.3-0.1 0.4 0.1 0.4 0.3 1.3 0.2z" id="PY7" name="Itapúa">
  </path>
  <path d="M563 759.3l0.4 0.2 2.4 0.6 0.5-0.2 0.6-0.4 0.1-0.5 0-0.7-0.1-1.9 0.1-0.9 0.2-0.5 0.4-0.4 0.5-0.1 0.5 0.1 2 0.7 0.7 0.1 0.6 0 2.1-0.5 0.7 0 0.6 0.3 0.8 0.7 1.4 1.8 1.3 1.5 2.3 1.9 2.3 1.5 2.7 2.3 1 0.6 2.1 0.9 0.4 0.5 0.3 0.7 0.2 1.2 0.3 1 0.5 1 2.6 3.4 1.3 3.1 2.8 16.3-0.2 1.2-0.4 0.8-13.3 13.4-3.9 7.6-1.2 1.7-2.1 1.7-2 2.3 7.1 41.3 0.6 2 0.9 2.2 8.3 11.9 11.6 13.6 0.7 0.4 18.3 2.8 2.9 0.8 0.8 1.7-0.7 4.4-8.9 25.7-1.9 7.5 0 0.1-1.6-1.6-0.9-0.6-2.2-0.6-0.4-0.1-2.6 0-10.1 1.5-2.6-0.3-0.7-0.2-1.5-0.6-16.3-8.3-0.1 0-1.1-0.4-10.2-2.2-0.1 0-4.3-1.5-4.5-0.9-1.4-0.3-3-1.4-0.1 0-5.9-1.2-1.9-0.4-3.1-0.1-6.1 1.1-1.5 0.1-11-1.4-27.3 2.4-9 3.9-0.4 0.3 0.4-5.6-0.1-2.3-1.3-2.2-2.5-1.8-1.3-1.4-0.6-1.5 0.5-3.2 1.4-2.3 2.3-1.4 5.1-0.9 0.5-1.1-0.2-1.8 0-2 0.3-1 0.3-0.9 0.5-0.8 0.6-0.8 0.9-0.5 0-0.1 0.6 0.5 0.3 0.8 0 0.5 0 0.3 0.8 0.4 0 0.1 0.8 0.1 0.4-0.5 0.1-1.9 0.2-0.8 0.3-0.9 0.9-1.5 1.8-2.3 0.8-1.5-1.5-1.4-0.2-1.5 0.8-1.4 1.6-1.1 4.4-1.2 2.2-0.9 0.9-1.4 1-1.1 2.4-0.2 2.2-0.2 1.4-1.1-0.7-2-1.8-1.3-1.2-1.6 1.2-2.5 1.7-0.5 1.8 0.6 1.7 0.2 1.4-1.4-0.4-0.9-0.8-1.3-0.2-1.2 1.7-0.5 1.2 0.1 0.8-0.2 0.4-0.5 0.2-8.8 0.5-2.1 0.5-1.3 0.3-0.2 0.5 0.4 3.2 0.6 1.2 0 0.5-0.7-0.3-1-0.5-0.9-0.5-1.1-0.1-1.3 0.4-0.3 1.7-1.3 0.7-0.7-0.6-0.6-0.8-1.6-0.7-0.8-2.2-1.7-0.6-0.6-0.4-1.9 0.3-1.7 0.6-1.8 0.3-1.9 0.3-0.9 1.4-1.1 0.3-1.1-2.4-2.3-0.3-1.5 0.7-1.7 3.3-6 0.5-1.6 0.3-1.9-0.5-3.6 0-1.8 0.8-0.8 1.6-0.3 2.3-1 1.7-1.3-0.1-1.5-1.4-1.1-1.6-0.8-1.2-1.1-0.2-2 1 0.4 0.8 0.4 0.5 0.7 0.4 0.8 0.9-1.2 0.9-2.4 0.9-3.7 1.1-1.1 6.5-2.4 3.3-1.9 11.6-8.7 1.3-1.8 0-1.5-4.6-1.4 0.8-1.7 3.5-2.9 0.6-0.8 0.6-1.3-0.1-1.2-2.3-0.8-0.3-0.8 0.3-0.8 2.1-0.8 2.1-1.2 1.3-1z" id="PY12" name="Ñeembucú">
  </path>
  <path d="M688.3 857l4 41-0.2 3.9-0.9 1.9-5.1 0.6-0.8 0.3-0.9 0.6-2.6 3-0.9 0.7-0.9 0.6-1 1.2-0.9 1.7-1.4 4.6-0.3 2.5 0.2 1.8 0.6 1 0.7 0.8 3.5 3.4 0.5 0.6 0.4 0.9 0 0.6-0.4 0.7-0.3 0.5-0.4 0.9-0.1 0.6 0.5 8 0.1 0-4.6 1.3-5.1 4.1-3.7 0.7-3.7-2.3-6.2-6.2-3.5-1.5-3.7 0.4-3.6 1.5-9.9 5.5-3.3 0.8-4-0.2-0.8-0.2-2.4 0-1.1-0.4-0.9-0.6-2.7-2.3-1-0.5-4.6-1.2-0.9-0.3-1.1-0.6-0.7-0.7 0-0.1 1.9-7.5 8.9-25.7 0.7-4.4-0.8-1.7-2.9-0.8-18.3-2.8-0.7-0.4-11.6-13.6-8.3-11.9-0.9-2.2-0.6-2-7.1-41.3 3.4 1.7 1.7 2.4 0.7 0.5 1.1 0.6 0.6 0.8 0.6 1 0.7 2 0.3 0.8 0.7 0.8 2.5 1.5 0.7 0.7 0.6 1 0.8 0.9 1.3 0.7 7.3 1.7 1.4 0.7 0.7 0.9 1 1 1.4 0.8 2.7 0.7 1.6 1.2 2.2 0.9 2.6 0.3 8.9-2 5.2-1.8 1.3-0.9 0.6-1.1 0.2-1.3 0-1.7 0.1-1.5 0.6-1 0.9-0.7 1.4-0.6 0.8-0.5 0.3-0.5 0.2-0.5 0.3-0.6 0.6-0.7 1-0.5 0.5-0.6 0.4-0.8 0.3-1.1 0.6-1.3 0.9-1.5 1.2-1.2 1.5-1.3 0.7-0.3 0.7-0.3 1.1-0.3 1-0.1 0.9 0 0.9 0.2 0.8 0.2 5.9 3.2 2.1 1.4 3.4 2.8 1.9 1.2 1.8 0.2 1.2-0.3 1.3 0.4 0.9 0.4 3.6 5.7 2.9 1.9 0.6 0.7 0.8 1.4 0.8 1.6 1.9 3 1.6 1.5 4.3 2.9 1.5 0.7 1.4 0.3 3.2 0.1 1.7 0.5 0.9 0.9 0.2 1-0.2 1-0.5 1.2-0.1 0.5 0 0.3 0.2 0.9z" id="PY8" name="Misiones">
  </path>
  <path d="M410.2 345.5l-4.9-3-2.9-1-36.3-1.4-5.5 0.9-9.3 0.3-0.9-0.4-0.3-1.1-0.1-3.3-1.6-10 0-1 0.2-1.4 1.4-4.3 9.1-40.6 0.4-1.1 0.6-0.9 1.5-1.6 1.5-1.3 10.2-6.1 0.5-0.5 0.3-0.3 0.3-0.5 0.1-0.6 0.2-0.7 0.1-0.9-0.1-1.1-4.1-27.6-0.9-2.3-0.6-1-5.4-7.5-2.1-3.7-0.2-0.8-0.1-0.9 0.4-2.8 0-0.9 0-1-0.7-2.5-0.5-1.4-1.2-2.1-2.1-2.8-0.4-0.6-0.1-0.7 0-0.4 2-8.4-2.6-2-7-3-187.4-55.6-9.3-6-1.4-1.2 0.7-1.3 1.2-2.8 1.3-2.7 2.9-7.9 2.8-7.8 2.8-7.9 2.8-7.8 1.9-5.2 0.8-1.3 1.6-0.7 9-1.3 2.1-0.4 4.8-0.7 4.7-0.7 2.2-0.4 33.9-7.4 34-7.4 34-7.4 33.9-7.3 15.2-3.3 8.2-0.1 18.9-0.3 18.9-0.2 18.9-0.3 18.9-0.2 8.2-0.1 2 0.5 3 2.1 2.9 2.1 5 3.1 9.4 5.8 9.4 5.9 9.3 5.8 9.4 5.8 9.3 5.8 9.4 5.9 9.4 5.8 9.3 5.8 4 2.5 1 1.2 0.4 1.6-0.3 3.5 0.2 3.4 1.7 6.1 0.3 3.4-0.3 2.3 0.2 4.5-0.2 2.3-1.5 5.6 0.1 2.8 0.1 1.7 0.6 0.4 0.8-0.1 0.7 0.2 0.7 0.7 1 1.3 0.2 1.1-3.7 1.3-0.8 1.8 0.7 1.9 1.9 1.4 0.6-0.2 0.5-0.6 0.6-0.6 1-0.1 0.7 0.4 0.8 0.9 0.5 1-1 2.9 0.2 2.8 0.7 2.6 0.8 1.8 1.6 1.9 2.2 1.7 2.2 1.2 1.9 0.4 1.5 0.9-0.3 1.9-1.5 3.1-0.3 2.2 0.2 2.7 0.4 2.6 1.1 2.6 0.1 1.2-0.1 2.3 0.3 1.5 1.3 2.1 0.4 1.2 0 1.1-0.8 2.1 0.1 1.2 0.6 1.2 1 0.8 0.8-0.1 0.9-3.8 1.4-0.8 1.6 0.3 1.4 1 0.4 0.6 0.5 1.6 0.4 0.7 0.7 0.6 1.5 1.1 0.9 0.9 0.2 1-0.7 0.8-1.2 0.5-2.2 0.5-0.8 0.6-1.1 1.3-1.5 1.1-0.8 1 0.7 0.6 2.6 0.3 2 0.4 1.7 1.1 1.1 1.6 0.3 2-1 1.1-4.2 2.3-0.9 1.4 0.3 1.2 0.7 0.5 0.7 0.2 0.3 0.3 0.5 0 2.3 1.9 2.3 2.5 0.7 0 0.4-1.9 1.9 1.6 0.1 2.4-0.9 2.5-2.7 4.2 0 1.5 1.6 3.3 0.6 4.8-0.4 5-1.4 4.6-2.3 3.4-2.8 2.1-0.5 0.8-0.1 1.4 0.5 0.8 0.6 0.6 0.3 0.6 0.9 1.1 1.6 0.5 1 1-0.7 2.8-6.7 10.4-1.6 3.7-0.3 2.3 0.1 2.4 0.8 1.9 1.8 0.8 1 0.9-0.8 2.1-1.2 2.5-0.7 1.8 0.4 1.9 1 1.9 1.3 1.6 1.1 0.6 0.5 1-4.3 7.2 0 2.1 0.4 2-0.1 2.1-1.3 2.3-0.7 1.9 0.9 1.6 1.4 1.7 0.7 2.5-0.4 1.4-2.4 4.4-0.9 0.9-0.2 1.1-2.2 6.3-0.2 1.5 0.1 1.7 0.1 1.1 1.3 0.7-0.8 1 0.7 4.5 0.8 1.8-1.1 6.7 0.4 2.6 0.8 2.4 0.9 1.4 1.6 0.5 2.5 0.1 1.9 0.5 1 1.1 0.9 3.6 4.7 5.9 0.4 1.2-1.8 1.8-0.7 0.8 0.3 1.2-34.6-15.5-1.5-0.9-0.8-1.1-0.7-5.2-1.4-1-2.6-0.7-47.1-3.3-5.2 0.6-21.5-1.8-15.4 0.6-1.7-0.2-2.3-0.6-3.8-1.5-11.3-6.3z" id="PY16" name="Alto Paraguay">
  </path>
  <path d="M600.5 497l0.4-1.1 0-0.8-0.4-1.1-0.6-3.3-0.1-0.9-0.3-0.5-1.4-1.1-0.7-1.3-1.7-1.6-0.6-1.1-0.3-1.5 0.2-0.8 0.6-0.7 0.8-1.5 0.5-1.1 0.2-0.6 0-2.4-0.4-0.6-1.6-1.7-1.1-0.8-2.4-3.3-0.9-0.8-0.7-0.5-3.7-1.8-2.1-1.3-1.6-1.6-0.6-1.8 0-2.3-0.1-1.8-0.8-1.4-1.9-0.8-4-0.1-1.6-0.6-0.6-2-0.9-1.3-4.5-2.2-1.5-1.4 2.2-4.4-0.6-2.2-1.3-1.8-3.3-3.1-0.2-1.1 1-1 1.3-1 0.9-1 0.1-1.3-0.4-1.1-1-1.4-0.7-1.9-0.3-0.5-0.7-0.9-1-0.4-2.3 0.1-0.9-0.5-0.6-1.2-0.5-2.5-0.6-1.1-0.8-0.5-2.3-0.7-1-0.4-2.2-3.3 1.2-3.3 3.3-2.3 4.6-0.7 4.3 0.7 2.3 0 0.9-1.1-0.4-2.3-1.1-1.8-2.6-3-1.4-3.3-1.3-12.3-0.6-2.5-0.3-1.2 0.7-0.8 1.8-1.8-0.4-1.2-4.7-5.9-0.9-3.6-1-1.1-1.9-0.5-2.5-0.1-1.6-0.5-0.9-1.4-0.8-2.4-0.4-2.6 1.1-6.7-0.8-1.8-0.7-4.5 0.8-1 0.1 0 1.1 1 0.9 1.7 1.3 1.3 3.4 1.2 1 0 1.8-0.8 0.7-0.1 0.8 0.5 1.4 1.6 0.5 0.4 1.2-0.3 1.6-1.4 1.1 0 1 0.3 0.8-0.2 1.2-0.6-0.2-0.1 0-0.6 0.2-0.7 0.2-0.3 0.3-0.1 1 0.4 0.4 0 2-0.8 1.3 0.2 1.4 0.4 2 0 1.1-0.3 0.8-0.4 0.7-0.2 0.9 0.4 1.6 4.4 1.2 2.2 1.3 1.3 1.7 0.4 2.4-0.3 0.9-0.4 0.4-0.3 0.5-0.1 1.3 0.1 0.8 0.3 2.3 1.6 3.9-1 0.9 0 2 0.9 1.1 0 1.5 0.6 3.3 2.1 0.6 0 0.4-0.6 0.8 0.2 1.6 0.8 1.1 0 0.5-0.6 0.2-0.6 0.1-0.4 1.6 0.2 4.5 1.1 1.9-0.4 2.5-2.1 1.4-0.3 0.4 0.4 0.3 1.7 0.7 0.6 1 0 0.6-0.2 0.6-0.4 0.7-0.2 1.6 0.2 3.1 1.2 0.9 0.5 0 0.2 0.1 0.5 0.5 0.4 1.8 0.3 0.6 0.2 0.6 0.1 0.7-0.4 1.2-0.3 3.2 0.3 1.7-0.2 2.5 0.9 1.1 0 1.1-0.7-0.1 1.7 0.5 0.4 0.8-0.1 1 0 1.8 0.9 1 0.1 1.1-2.8 1.2 1.6 1 2.7 0.2 1.4 2.4 0.4 1.3-0.5 0.9 1 21.2 5.3 4.1 1.6-0.4 0.4-2.4 1.2-0.5 0.4-4.3 6.2-0.8 0.6-3.2 2.2-0.5 0.6-0.4 0.6-0.3 0.6-0.1 0.8 0.5 2.3-0.1 0.9-0.4 0.6-1 0.7-0.2 0.5 0 0.8 0.5 2.2 0.1 0.6-0.1 2.1 0.3 2-0.1 1.3-0.2 1-0.3 0.9-0.1 1.2 0.2 1 0.4 0.8 1 1.2 0.2 0.8-0.1 0.8-0.3 1.6 0.3 0.8 0.4 0.5 0.6 0.3 0.5 0.4 0.7 0.8 0.8 1.4 0.8 2.1 0.8 4.4 0.6 2-0.1 1.1-0.4 0.7-2.3 1.5-0.6 0.8-0.6 0.8-0.2 1.3 0 0.4 0.4 0.1 0.6 0 1.4 0 1.9-0.2 0.5-0.2 0.4-0.2 0.8-0.8 0.5-0.2 0.6 0.1 0.7 0.4 0.9 1 0.6 0.5 0.6 0.4 0.6 0.2 0.7 0.1 0.6-0.1 0.5-0.2 2-0.9 1.1-0.2 0.5-0.3 0.4-0.4 0.7-1.6 1.1-1.4 0.3-0.5 0.2-0.6 0.3-2.1 0.2-0.7 0.3-0.9 0.1-0.2 0.2-0.2 0.6-0.7 0.8-0.6 0.5-0.3 0.5-0.2 5.3-0.9 0.6-0.2 1-0.5 0.4-0.3 0.4-0.4 0.6-0.9 1.2-2 0.3-0.5 0.4-0.4 0.5-0.3 0.5-0.2 1.2-0.3 0.5-0.2 0.4-0.3 2.6-2 0.5-0.2 0.5-0.1 0.5 0 0.6 0.1 1.5 0.6 0.5 0.6 0.3 0.6 14.4 37.7 0.1 0.7-0.2 1.2-0.1 3.9-0.1 0.6-0.2 0.5-0.4 0.4-0.5 0.2-0.6 0-0.5-0.1-1-0.5-0.5 0-0.4 0.2-0.2 0.5-0.1 0.6 0 0.7 0.2 1.1-0.1 0.5-0.4 0.3-0.5 0.2-0.5 0.4-0.3 0.4-0.2 0.6-0.1 0.6-0.1 0.7 0 0.9 0.4 1.6 0.1 0.8-0.2 0.6-0.5 0.4-3.8 2.1-0.9 0.6-0.4 0.3-0.4 0.4-0.2 0.5-0.5 1.1-0.3 0.4-1 0.5-0.4 0.4-0.3 0.4-0.3 0.4-0.3 0.5-0.1 0.6-0.3 2.7-0.3 1.1-0.1 0.3-0.2 0.4-0.1 0.2-0.5 0.4-3.3 1.4-1.2 1.5-0.9 1.4-1.3 1.1-1.4 1.3-2.4 1.2-0.7 0.1-0.6-0.1-0.7-0.1-0.8 0-4.1 1.1-4.4 2.2-0.7 0.3-1 0-1.4 0.2-3.2 0.7-1.5 0.2-1-0.1-0.6-0.8-0.9-0.3-1.2-0.1-2.6 0.3-1.3 0-1-0.1-2.4-1.3-1-0.2-1.5 0-5.8 0.3-5.1-1.2-2.4-0.3-0.9 0.1-0.6 0.2-0.9 0.9-0.6 0.4-0.7 0.2-0.9 0.1-2.5-0.2-1.1 0.2-1.3 0.3-2 0.9-0.7 0.2-0.7 0-0.8-0.3-0.7-0.2-1.1-0.1-0.7 0.1-0.6 0.2-0.5 0.3-0.4 0.3-0.7 0.5-4.4 1.4-7.2 1.1-4.7 0-1 0.1-0.8 0.3-1.7 0.9-2 0.8-1.1 0.2-0.7 0.1-0.3-0.1-6.7 0.5-0.6-0.1-1.1-0.2-0.5-0.2-2.6-1.5-0.5-0.2-0.5-0.3-1.2-0.5-2.6-0.3z" id="PY1" name="Concepción">
  </path>
  <path d="M661.1 367.8l2.3-2.5 0.7-1 0.1-0.7 0.4-0.2 1.3 0.5 0.8-0.1 3.3-1 0.7 0.1 0.2 0.5 0.2 0.2 1-0.6 0.5-0.8 0.8-1.9 0.5-0.5 1.7 0.9 3.4 4 1.6 0.4 0.4-0.9-1-2 0.6-0.6 1.1-0.4 0.8-0.3 3.4-2.6 1.1-1.2 1.7-3 0.2-0.3 0.8-0.4 0.3-0.4 0.6-1.7 0.3-0.7 1.5-2.3 0.9-1 1.1-0.9 1.7-0.5 7.3-1.3 1.4 0.1 1 1.1 2.7 6.7 2.3 3.5 3.1 3 5.6 3.4 3 2.9 1.7 1 1.7 0.5 17.3 0.8 1.3-0.3 1.3-0.8 1.4 0.7 1.4 1.2 1.6 0.8 6.2 0.6 1.9 1.1 0.2-0.8 1.1-2.2 5.1 6.9 4.1 3.1 1 1.1 0.8 2.6 0.4 9.2 0.7 4 1.7 3.5 2.6 2.8 3.3 1.9 2.1 0.7 1.3 0.8 0.8 1.3 0.3 2.3-0.1 0.8-0.6 1.8-0.1 0.9 0.3 1 0.6 1.7 0.1 1-1 3.6-1.8 3.1-1.3 3.3 0.3 4.1 2.2 8.4 0 1.9-0.6 3.7 0.2 1.8 2.7 3.1 1.1 1.7 0.5 2.1-0.5 4 0.1 1.8 1.1 1.4 2.8 1.8 0.3 0.9 2.2 8.2 0 1.8-2.3 5-0.4 1.8 0.7 2.4 3.1 3.3 1.1 2.1-0.2 3.3-2.7 6.1 0.3 3.8 0.6 3.3-0.1 0-0.9 0.8-1 1.6-1.8 4.9-0.8 4.2-0.7 1.1-1.1 1.1-4.2 2.4-0.8 0.4-0.9 0.2-2.9 0.1-1.4 0.6-2.2 1.3-10.4 7.7-4.2 2.4-1.1 1-1.4 2.5-0.6 0.7-0.9 0.6-2.6 1.1-2.5 0.6-3.6 0.3-0.8 0.3-0.8 0.5-0.6 0.2-0.5 0.1-0.7-0.1-0.6-0.2-1.4-0.7-1.2-0.8 0.7-0.2 1-0.4 3.4-2.5 0.2-0.2 0.2-0.4 0.5-1.9 1.7-3.2 0.5-1.1 0.1-0.6 0.1-0.7 0-2.8-0.3-2.7-0.4-1.7-0.1-0.5 0.2-0.5 2.2-3 1.1-1.2 0.6-0.9 0.7-1.5 0.1-0.7 0.1-0.6-0.4-4 0.1-1.4 0.3-1.3 0-0.5-0.3-0.4-1-0.2-1.4 0.1-6.1 1.2-0.9 0.4-0.4 0.3-0.1 0.6 0 1.6-0.1 0.9-0.3 0.7-0.3 0.6-0.6 0.3-1.1 0.6-0.7 0.5-1.5 1.2-0.6 0.3-0.5 0.1-1-0.8-1.3-1.4-1.8-3.2-0.8-1.8-0.5-1.5-0.2-0.9 0-0.8 0.3-0.5 8.3-6.9 0.9-1 0.6-1 0.3-0.5 0.1-0.6 0-0.4-0.2-0.6-0.3-0.8-0.4-0.7-0.4-0.4-1.7-1.5-0.5-0.7-0.1-0.5 0.1-0.6 0.5-1.1 0.3-0.7 0-0.7-0.2-0.7-0.5-0.7-0.8-0.8-0.8-0.5-1.5-0.3-4.2-0.3-1.3-0.2-1.6-0.5-0.5 0.1-0.9 0.5-1.2 0.2-2.1 0.4-1.9 0.5-2.3 1.2-1.1 0.9-0.8 0.4-0.5 0.1-1-0.8 0.5-0.4 0.1-0.2 0.2-0.4 0.1-0.3 0.3-1.1 0.3-2.7 0.1-0.6 0.3-0.5 0.3-0.4 0.3-0.4 0.4-0.4 1-0.5 0.3-0.4 0.5-1.1 0.2-0.5 0.4-0.4 0.4-0.3 0.9-0.6 3.8-2.1 0.5-0.4 0.2-0.6-0.1-0.8-0.4-1.6 0-0.9 0.1-0.7 0.1-0.6 0.2-0.6 0.3-0.4 0.5-0.4 0.5-0.2 0.4-0.3 0.1-0.5-0.2-1.1 0-0.7 0.1-0.6 0.2-0.5 0.4-0.2 0.5 0 1 0.5 0.5 0.1 0.6 0 0.5-0.2 0.4-0.4 0.2-0.5 0.1-0.6 0.1-3.9 0.2-1.2-0.1-0.7-14.4-37.7-0.3-0.6-0.5-0.6-1.5-0.6-0.6-0.1-0.5 0-0.5 0.1-0.5 0.2-2.6 2-0.4 0.3-0.5 0.2-1.2 0.3-0.5 0.2-0.5 0.3-0.4 0.4-0.3 0.5-1.2 2-0.6 0.9-0.4 0.4-0.4 0.3-1 0.5-0.6 0.2-5.3 0.9-0.5 0.2-0.5 0.3-0.8 0.6-0.6 0.7-0.2 0.2-0.1 0.2-0.3 0.9-0.2 0.7-0.3 2.1-0.2 0.6-0.3 0.5-1.1 1.4-0.7 1.6-0.4 0.4-0.5 0.3-1.1 0.2-2 0.9-0.5 0.2-0.6 0.1-0.7-0.1-0.6-0.2-0.6-0.4-0.6-0.5-0.9-1-0.7-0.4-0.6-0.1-0.5 0.2-0.8 0.8-0.4 0.2-0.5 0.2-1.9 0.2-1.4 0-0.6 0-0.4-0.1 0-0.4 0.2-1.3 0.6-0.8 0.6-0.8 2.3-1.5 0.4-0.7 0.1-1.1-0.6-2-0.8-4.4-0.8-2.1-0.8-1.4-0.7-0.8-0.5-0.4-0.6-0.3-0.4-0.5-0.3-0.8 0.3-1.6 0.1-0.8-0.2-0.8-1-1.2-0.4-0.8-0.2-1 0.1-1.2 0.3-0.9 0.2-1 0.1-1.3-0.3-2 0.1-2.1-0.1-0.6-0.5-2.2 0-0.8 0.2-0.5 1-0.7 0.4-0.6 0.1-0.9-0.5-2.3 0.1-0.8 0.3-0.6 0.4-0.6 0.5-0.6 3.2-2.2 0.8-0.6 4.3-6.2 0.5-0.4 2.4-1.2 0.4-0.4-4.1-1.6-21.2-5.3-0.9-1z" id="PY13" name="Amambay">
  </path>
  <path d="M910.5 635.2l-0.1 0-2.3-1-1.4-0.2-2.6 0-2.3 0.2-2.5 0-2.4-0.5-2.8-1.2-2.9-0.8-7.7-1.2-0.9-0.4-0.7-0.8-0.6-0.9-1.1-2.8-0.4-0.5-0.5-0.1-0.8 0.1-1.5 0.4-0.6 0.1-0.9-0.1-0.7-0.3-1.2-0.6-0.8-0.2-1.2 0.1-0.8 0.6-0.5 0.5-0.6 1-0.4 0.5-0.6 0.5-0.5 0.4-0.5 0.2-0.6 0.1-0.5-0.3-0.6-0.8 0-1 0.1-0.6 0-0.5-0.4-0.4-0.8-0.4-1.4-0.1-3.6-0.2-0.9-0.1-0.8-0.3-0.6-0.7-0.2-0.6 0-0.6 0.2-0.6 0.2-0.6 0-0.7-0.2-1-1.1-1.2-2-1.1-7.7-2.5-0.8 0-1.5 0.3-2.4 1-1.2 0.2-1.3-0.2-1.5-0.6-1.4-1.4-0.5-1.4-0.1-1.2 0.4-4.1-2.2-0.5-11.1 3.8-26.3 4.5-2 0.6-1.3 0.8-11 11.9-5 3.9-1.4 1.6-2.9 4.4-2.6 3.3-5.4-3.3-1-0.8-0.6-1.2-0.7-1.6-0.9-2.5-2-2.1-1.7-1.4-2.9-1.9-1.1-1.6-1.1-2.4-1.5-4.6-2.1-4.4-5.3-7.5-2.1-4.8-0.5-0.7-0.6-0.5-0.7-0.4-1.9-0.7-0.9-0.4-0.8-0.6-0.9-0.8-0.7-0.9-0.6-1.1-0.5-1.3-0.4-1.7-0.4-3.6-0.3-1.2-0.4-1-0.6-0.7-2.1-1.8-0.2-1.4 0-2.1 0.6-5.2-0.1-2.4 0.4-1.7 0.4-0.6 1.9-2.6 0.4-0.4 0.5-0.3 0.5-0.2 2.4-0.6 0.5-0.2 0.4-0.3 1.3-1.8 2.3-2.2 1.3-1.7 1.5-1.5 0.4-0.3 0.5-0.2 0.4 0 0.2 0 0.7 0.2 0.2-0.8-0.6-2.5-6.1-16.6 1.2 0.8 1.4 0.7 0.6 0.2 0.7 0.1 0.5-0.1 0.6-0.2 0.8-0.5 0.8-0.3 3.6-0.3 2.5-0.6 2.6-1.1 0.9-0.6 0.6-0.7 1.4-2.5 1.1-1 4.2-2.4 10.4-7.7 2.2-1.3 1.4-0.6 2.9-0.1 0.9-0.2 0.8-0.4 4.2-2.4 1.1-1.1 0.7-1.1 0.8-4.2 1.8-4.9 1-1.6 0.9-0.8 0.1 0 0.1 0.4-0.1 3.9 0.3 3.7 1.9 2.8 4.5 4.8 2.2 6.9 1.5 21.2 0.9 2.8 2.3 2.5 3.1 1.4 6.3 0.4 3.2 0.7 0 0.1 3.6 1.3 3.6 0.7 3.6-0.3 3.4-1.7 0-0.1 2.6-1.3 6.3 0.1 3.1-0.9 1.7-0.9 3.4-0.1 1.7-0.3 1.7-1 2.2-3 1.3-1.3 6.5-3.7 13.1-4.6 1.7-0.9 2.5-2.8 1.6-0.8 2.6 0.8 17 9.7 2.1 1.5 5.5 7.8 9.5 5.7 2.8 1.5 0 0.1-2.1 1.6-3.5 2.7-2.4 3.1-1 3.4 0.3 1.7 1.3 3.5 0.5 4.2 0.8 1.3 2.4 3.2 0.8 2.5 1.3 3.4-0.1 3.2-0.9 3.4-1.3 2.5-3.9 5.8-1.1 3.6-0.1 3.4 1.4 7.5 0 3.6-3.7 11.4z" id="PY14" name="Canindeyú">
  </path>
  <path d="M623.9 663.7l1.4-0.5 0.5-0.7-0.4-0.9-1.2-1.4-0.8-1.2-0.1-1 0.4-1 0.2-1.3-0.3-1.7-0.6 0-0.9 0.6-0.9-0.1-0.8-1 0-0.6 5.1-7.2 1.6-6.3 0.3-0.8 1.2-0.5 0.9 0.2 0.8 0.4 1.2-0.1 1.5-1.1 0.6-1.8 0.5-2 2.1-4.5-0.7-1.7-1.5-1.4-1.4-0.8-0.7-1.4-0.7-1.4-0.4-1.5-0.1-2.2 0.4-4.5 1-3.6 0.1-1-1.1-2.8-0.5-1.6-1.1-7.8-0.8-3.3-0.5-6.8-0.4-1.5-1.1-2-0.8-1.2-1.9-2.1-0.4-0.8-0.3-0.9-0.2-1.4 0.1-0.7 0.1-0.4 0.3-0.6 1.9-2.1 0.8-1.9 1.7-2.1 1-2.2-1.6-2.1-0.9-0.2-3.6 0.2-1-0.4-0.5-0.9 0.2-1.2 0.6-0.9 0.6-1.8-0.7-1.9-1.7-1.1-2 0.7-1-2.7-0.2-2.9-0.4-2.7-1.9-2.3-1-0.2-1.3 0.1-1.3-0.2-0.5-0.8 0.4-1.3 0.7-1.1 0.8-0.8 0.3-0.6 0.4-0.3 2.3-1.6 0.4-1.1 0.3-3.4 0.7-3.3 0-0.8-0.3-0.6-0.8-0.6-0.7-0.8-0.4-1.1 0.4-0.8 1.8-0.7 0.6-1-0.1-1.2-0.4-0.9-1.5-1.7-3.1-2.7-7.2-4.1-2.8-3-2.5-4.8-0.3-1.6-0.1-1.2-0.5-2.3 0-1.3 0.2-1.2 0.9-2.1 0.2-1.2 2.6 0.3 1.2 0.5 0.5 0.3 0.5 0.2 2.6 1.5 0.5 0.2 1.1 0.2 0.6 0.1 6.7-0.5 0.3 0.1 0.7-0.1 1.1-0.2 2-0.8 1.7-0.9 0.8-0.3 1-0.1 4.7 0 7.2-1.1 4.4-1.4 0.7-0.5 0.4-0.3 0.5-0.3 0.6-0.2 0.7-0.1 1.1 0.1 0.7 0.2 0.8 0.3 0.7 0 0.7-0.2 2-0.9 1.3-0.3 1.1-0.2 2.5 0.2 0.9-0.1 0.7-0.2 0.6-0.4 0.9-0.9 0.6-0.2 0.9-0.1 2.4 0.3 5.1 1.2 5.8-0.3 1.5 0 1 0.2 2.4 1.3 1 0.1 1.3 0 2.6-0.3 1.2 0.1 0.9 0.3 0.6 0.8 1 0.1 1.5-0.2 3.2-0.7 1.4-0.2 1 0 0.7-0.3 4.4-2.2 4.1-1.1 0.8 0 0.7 0.1 0.6 0.1 0.7-0.1 2.4-1.2 1.4-1.3 1.3-1.1 0.9-1.4 1.2-1.5 3.3-1.4 1 0.8 0.5-0.1 0.8-0.4 1.1-0.9 2.3-1.2 1.9-0.5 2.1-0.4 1.2-0.2 0.9-0.5 0.5-0.1 1.6 0.5 1.3 0.2 4.2 0.3 1.5 0.3 0.8 0.5 0.8 0.8 0.5 0.7 0.2 0.7 0 0.7-0.3 0.7-0.5 1.1-0.1 0.6 0.1 0.5 0.5 0.7 1.7 1.5 0.4 0.4 0.4 0.7 0.3 0.8 0.2 0.6 0 0.4-0.1 0.6-0.3 0.5-0.6 1-0.9 1-8.3 6.9-0.3 0.5 0 0.8 0.2 0.9 0.5 1.5 0.8 1.8 1.8 3.2 1.3 1.4 1 0.8 0.5-0.1 0.6-0.3 1.5-1.2 0.7-0.5 1.1-0.6 0.6-0.3 0.3-0.6 0.3-0.7 0.1-0.9 0-1.6 0.1-0.6 0.4-0.3 0.9-0.4 6.1-1.2 1.4-0.1 1 0.2 0.3 0.4 0 0.5-0.3 1.3-0.1 1.4 0.4 4-0.1 0.6-0.1 0.7-0.7 1.5-0.6 0.9-1.1 1.2-2.2 3-0.2 0.5 0.1 0.5 0.4 1.7 0.3 2.7 0 2.8-0.1 0.7-0.1 0.6-0.5 1.1-1.7 3.2-0.5 1.9-0.2 0.4-0.2 0.2-3.4 2.5-1 0.4-0.7 0.2 6.1 16.6 0.6 2.5-0.2 0.8-0.7-0.2-0.2 0-0.4 0-0.5 0.2-0.4 0.3-1.5 1.5-1.3 1.7-2.3 2.2-1.3 1.8-0.4 0.3-0.5 0.2-2.4 0.6-0.5 0.2-0.5 0.3-0.4 0.4-1.9 2.6-0.4 0.6-0.4 1.7 0.1 2.4-0.6 5.2 0 2.1 0.2 1.4 2.1 1.8 0.6 0.7 0.4 1 0.3 1.2 0.4 3.6 0.4 1.7 0.5 1.3 0.6 1.1 0.7 0.9 0.9 0.8 0.8 0.6 0.9 0.4 1.9 0.7 0.7 0.4 0.6 0.5 0.5 0.7 2.1 4.8 5.3 7.5 2.1 4.4 1.5 4.6 1.1 2.4 1.1 1.6 2.9 1.9 1.7 1.4 2 2.1 0.9 2.5 0.7 1.6 0.6 1.2 1 0.8 5.4 3.3-11.9 3.1-8 3.4-2.1 1.7-1.5 1.8-4.4 8.8-0.8 1.3-0.9 0.7-0.9-0.4-4.6-4.3-3.5-3.9-0.6-0.6-0.7-0.4-4.6-1.7-1-0.7-0.7-0.8-0.2-0.8-0.1-0.9 0.1-0.8 0.4-1.7-0.1-1.2-0.4-1.3-1.3-1.2-0.9-0.1-1.1 0.6-1 1-0.8 1.2-0.7 1.3-0.5 1.4-0.9 1.5-1.3 1.3-4.3 2.6-1.1 1-0.6 1.1-0.5 1.1-0.7 1.3-1 1-3.1 1.7-1 0.7-7.3 7.6-3.8-1.7-0.5-0.4-0.5-0.3-3.7-4.2-1.7-1.2-9.4-3.8-1.5-0.2-6.8 0.8-5.5 1.6-15.9 3-1.3 0.4-0.8 0.4-0.9 0.6-0.3 0.4-0.2 0.4-0.1 0.6-0.1 0.6 0.1 0.4 0.1 0.7 0 0.5 0 0.5-0.2 0.5-0.6 0.7-1.1 0.7-2 0.8-1.8 0.1-1.9-0.2-3.4-1-6.6-3-1.8-1.3z" id="PY2" name="San Pedro">
  </path>
  <path d="M823.2 609.9l-2.6 3.7-3 3.6-0.5 0.8-0.3 0.9-0.1 1.1 0.1 1.6 0.6 2.5 0.1 1.1-0.1 0.9-1.1 1.9-0.4 1.1 0.2 4.5-0.3 1.3-0.6 1.4-0.7 0.6-0.8 0.5-0.4 0.7-0.2 1.2 0.4 2.1 0.9 2.6 0.1 1-0.2 1-1 1.6-0.7 0.7-0.1 1.2 0.1 0.8 0.2 0.7 0.2 0.5 0.1 0.6 0 0.7-0.1 1.7 0 0.7 0.1 0.7 0.2 0.5 0 0.7 0 0.9-0.4 1.4 0.1 1 0.2 0.7 1.2 1.8 0.5 1 0.4 1 0.4 1.1 0.3 0.5 0.3 0.4 0.7 0.8 0.5 0.3 0.4 0.3 0.6 0.3 0.6 0.1 0.7 0.1 0.7 0 1.8-0.3 0.6 0.1 0.5 0.2 0.4 0.4 0.3 0.4 0.4 0.4 0.5 0.2 0.5 0 0.6-0.1 0.6 0 0.4 0.2 0.4 0.4 0.5 0.8 8.1 7.7 8.5 6.2 0.3 0.3 0.3 0.5 0.1 0.6-0.1 0.7-0.6 2.1 0 0.6 0.2 0.5 0.3 0.4 0.4 0.3 0.5 0.3 2.7 1.1 0.5 0.3 0.3 0.5 0.1 0.5-0.3 2 0 0.7 0.1 0.6 0.3 0.5 0.2 0.5 0.7 0.9 0.2 0.5 0.2 0.6 0.1 0.6 0 1.4-2.2 0.7-2.7-0.1-2.6-0.4-1.3-2.4-0.2-1.5-0.4-1.3-0.8-0.9-1.4-0.6-1.7-0.4-0.8-0.2-0.8-0.6-0.6-0.7-1-1.6-0.6-0.7 0.1 1.2 0.5 2.2 0.1 1.1-1.1 0.1-1.3-0.4-2.4-0.8-1-0.6-2.6-2.6-1.9-1.3-1.1-0.1-3 3.4-23.3 32.7-1.7 2.6-0.2 1.4 0 0.5-0.2 0.8-0.5 0.7-0.9 1.1-0.6 0.8-0.9 0.8-1.2 0.7-4.9 1.9-2.5-0.8-1.2-1.4-0.5-0.2-0.9-0.1-6.1 2.5-6 1.9-3.2 0.5-2.6-0.2-1.3-0.8-1.3-1.1-2.1-2.6-1.1-1.2-1.4-0.9-2-0.9-1.9-0.3-10.7 0.3-1.6-0.3-1.2-0.6-0.8-0.8-1.2-0.7-8.1-0.3-2.9-0.5-1.5-0.1-2.8 0.3-11.4-0.6-1.9 0.2-1.8 0.6-3 1.9-1.1 0.5-1.3 0.4-3.2 0.5-1.7 0.7-1.3 0.8-4.8 4.6-1 0.6-5.6 2.7-2.1 1.3-3.3-0.4-0.5-0.3-0.9-0.5-2.2-2.8-3.1-2.3-0.4-0.9-0.1-0.3-5.8-12-0.5-1.4-0.1-1.1 0.6-0.7 24.6-17.5 2-6.9 5-29.4 7.3-7.6 1-0.7 3.1-1.7 1-1 0.7-1.3 0.5-1.1 0.6-1.1 1.1-1 4.3-2.6 1.3-1.3 0.9-1.5 0.5-1.4 0.7-1.3 0.8-1.2 1-1 1.1-0.6 0.9 0.1 1.3 1.2 0.4 1.3 0.1 1.2-0.4 1.7-0.1 0.8 0.1 0.9 0.2 0.8 0.7 0.8 1 0.7 4.6 1.7 0.7 0.4 0.6 0.6 3.5 3.9 4.6 4.3 0.9 0.4 0.9-0.7 0.8-1.3 4.4-8.8 1.5-1.8 2.1-1.7 8-3.4 11.9-3.1 2.6-3.3 2.9-4.4 1.4-1.6 5-3.9 11-11.9 1.3-0.8 2-0.6 26.3-4.5z" id="PY5" name="Caaguazú">
  </path>
  <path d="M599.7 677.4l3.2 0 0.8-0.5 1.9-2.1 0.8-0.5 1-0.2 1.2-0.5 1.2-0.7 1-0.8 4.9-6.5 1-2.6 2.3-0.3 2.8 0.7 2.1 0.3 1.8 1.3 6.6 3 3.4 1 1.9 0.2 1.8-0.1 2-0.8 1.1-0.7 0.6-0.7 0.2-0.5 0-0.5 0-0.5-0.1-0.7-0.1-0.4 0.1-0.6 0.1-0.6 0.2-0.4 0.3-0.4 0.9-0.6 0.8-0.4 1.3-0.4 15.9-3 5.5-1.6 6.8-0.8 1.5 0.2 9.4 3.8 1.7 1.2 3.7 4.2 0.5 0.3 0.5 0.4 3.8 1.7-5 29.4-2 6.9-24.6 17.5-0.6 0.7 0.1 1.1 0.5 1.4 5.8 12 0.1 0.3 0.4 0.9-4.2-1.7-0.8-0.1-1-0.1-1.1 0.6-1 0.6-0.7 0.6-0.6 0.4-0.7 0.4-0.8 0.2-0.7 0.1-3.1-0.2-0.8-0.3-0.7-0.4-0.3-0.8 0.1-0.4 0.3-0.4 1.3-1.1 1.2-1.4 0.3-0.6 0.1-0.5 0-0.5-0.1-0.4-0.6-1.3-0.3-0.9-0.5-2.8-0.4-0.9-0.6-0.8-1.3-0.3-1-0.1-7.5 0.5-0.8-0.1-1.8-0.4-2.3-0.8-1.2-0.2-2.7-0.1-1.6-1.1-0.9-0.9-4.9-9.2-2.1-3.4-1.1-1.2-0.6-0.1-0.5 0.1-0.5 0.4-0.7 0.6-0.4 0.3-0.6 0.2-0.7 0-0.7-0.3-0.6-0.5-1-1.4-3.5-6.4-0.6-2.1-0.3-1.7-0.6-1.4-1.2-1.9-3.1-3.4-3-5.3-1-0.9-4-2.6-0.4-0.3-2.2-3.4z" id="PY3" name="Cordillera">
  </path>
  <path d="M797 726.6l3.6-1.1 0.9 0.1 1.4 0.4 0.5 0.5 0.2 0.7 0 0.8 0.2 1 0.4 1 1.3 1.8 0.5 0.7 0.1 0.8-0.2 0.8-0.6 0.9-2.5 2.3-0.8 1.1-0.6 1.5-0.1 2.6-0.4 1.5-1.6 4.9-0.4 1.1-0.6 0.8-2.1 1.7-0.3 0.5-2 4.4-0.7 2 0 1.2 0.6 0.9 0.4 0.7 0.4 1.1-0.4 1.2 0.1 1.1 0.6 2.2 0 1.1-0.3 3 0.3 1.3 0.6 0.8 0.5 0.4 4.1 1.7 1.4 0.7 0.8 0.3 0.7 0.2 1.3-0.7 0.9-0.1 2.4 0.1 2.9-0.2 1.7-0.4 3.2-0.9 0.6 0.1 0.6 0.4 0.4 0.5 0.4 0.5 0.5 0.6 0.7 0.5 0.8 0.3 1.9 0.1 0.7 0.2 0.7 0.4 0.6 0.8 0 1-0.4 1-0.8 0.8-5.3 3.1-1.3-0.2-0.4-0.3-0.4-0.1-0.3 0.1-0.2 0.3-0.2 0.9 0 0.8-0.1 0.6-0.2 0.8-0.2 0.9 0.1 5.4-0.3 0.9-0.6 1-0.8 1-4.1 4.1-8.5 6.6-1.8 1.1-6.8 2.6-2.1 0.4-1.4 0.1-1.4-0.4-1.8 0-2.1 0.2-4.2 1.3-5.9 2.5-1.1 1.3-0.8 2.3-0.7 0.8-1.9 1.6-4.7 5-1.6 1.1-1.7 0.8-7 1.3-5 1.6-1.5 1.2-2.2 3.4-0.5 1.1-0.9 2.7-1 1.5-1.2 1.4-1.4 1.2-0.9 0.9-0.6 1.1-0.9 3.5-0.8 0.8-1.6 0.7-3.1 0.5-6.1 2-8.6 4.6-11.6 4.6-1.7 0.1-1.6-0.4-1.5-1-3.1-2.6-0.7-0.4-7.5-1.7-0.2-0.9 0-0.3 0.1-0.5 0.5-1.2 0.2-1-0.2-1-0.9-0.9-1.7-0.5-3.2-0.1-1.4-0.3-1.5-0.7-4.3-2.9-1.6-1.5-1.9-3-0.8-1.6-0.8-1.4-0.6-0.7-2.9-1.9 1-2.5 1.4-1.2 1.2-0.8 1.9-1.7 0.9-1.3 0.4-1.4 0.1-1.3 0.4-1.2 0.6-1 1.4-1.3 0.4-1.2 0.1-1.1-0.2-1-0.1-1.1 0.2-0.7 0.4-0.5 2.1-1.5 0.4-0.9 0.3-1 0.3-4 1.1-4.2 0.7-1.4 3.5-4 0.5-1 0.7-3.5 3.3 0 2.5 0.3 1.4-0.6 0.8-0.9 0.7-4.9 0.7-1.9 1.1-1.9 1-0.8 1.4-0.5 4.9-0.2 1.7-0.6 0.8-0.9 0.4-1.2 0.2-1.3 0.3-1.3 0.8-1.4 0.9-0.4 0.6 0 0.7 0.4 0.7 0.2 0.9-0.1 5-2.2 1.4-0.4 1.2 0 0.8 0.4 0.5 0.3 2.8 2.3 3.9 2.6 1.9 0.2 5.7-2.8 2.4-1.7 0.2-0.3 0.1-0.2 0.3-0.9 2.1-8.6 0.5-1.1 0.9-1.1 1.3-0.6 3.3-0.9 1.3-0.8 1.8-1.7 1.2-0.5 3.6-0.8 1.2-0.5 2.4-1.9 1.4-0.9 9-3.7 1.3-0.7 0.5-0.6 1-2.2 0.8-1 1.5-1.3 1-0.3 0.9 0.1 0.9 0.3 0.9 0 1.3-0.3 0.9-1 0.6-1.1 1.3-3.5 0.8-1.6 0.3-0.5 0.6-1.2 2.5 0.8 4.9-1.9 1.2-0.7 0.9-0.8 0.6-0.8 0.9-1.1 0.5-0.7 0.2-0.8 0-0.5 0.2-1.4 1.7-2.6z" id="PY6" name="Caazapá">
  </path>
  <path d="M594.8 777.3l4.7-4.5 2.3-2.9 2.7-5.2 0.4-2.4-0.2-2-2.4-7.6-0.1-2.5 0.4-3.3 1.2-3.9 1.1-2.2 1.2-1.7 3.6-3.5 3.2-3.8 8.5-13.7 0.7-0.8 2.9-2.7 4.1-2.5 4.9 9.2 0.9 0.9 1.6 1.1 2.7 0.1 1.2 0.2 2.3 0.8 1.8 0.4 0.8 0.1 7.5-0.5 1 0.1 1.3 0.3 0.6 0.8 0.4 0.9 0.5 2.8 0.3 0.9 0.6 1.3 0.1 0.4 0 0.5-0.1 0.5-0.3 0.6-1.2 1.4-1.3 1.1-0.3 0.4-0.1 0.4 0.3 0.8 0.7 0.4 0.8 0.3 3.1 0.2 0.7-0.1 0.8-0.2 0.7-0.4 0.6-0.4 0.7-0.6 1-0.6 1.1-0.6 1 0.1 0.8 0.1 4.2 1.7 3.1 2.3 2.2 2.8 0.9 0.5 0.5 0.3 3.3 0.4-1.7 1.6-0.7 2-0.2 1.8 0.1 2 0.6 3.4 1 3.5 0.7 1.7 0.8 1.2 2.3 3.1 0.9 1.7 1 3.1 0 1.7-0.5 1.1-1 0.6-4.3 1-0.7 0.4-0.5 0.8-0.2 0.7 0.1 0.6 0.1 0.2 0.5 4.3 0.4 1.6 0.6 1.4 6.7 12.5-0.7 3.5-0.5 1-3.5 4-0.7 1.4-1.1 4.2-0.3 4-0.3 1-0.4 0.9-2.1 1.5-0.4 0.5-0.2 0.7 0.1 1.1 0.2 1-0.1 1.1-0.4 1.2-1.4 1.3-0.6 1-0.4 1.2-0.1 1.3-0.4 1.4-0.9 1.3-1.9 1.7-1.2 0.8-1.4 1.2-1 2.5-3.6-5.7-0.9-0.4-1.3-0.4-1.2 0.3-1.8-0.2-1.9-1.2-3.4-2.8-2.1-1.4-5.9-3.2-0.8-0.2-0.9-0.2-0.9 0-1 0.1-1.1 0.3-0.7 0.3-0.7 0.3-1.5 1.3-1.2 1.2-0.9 1.5-0.6 1.3-0.3 1.1-0.4 0.8-0.5 0.6-1 0.5-0.6 0.7-0.3 0.6-0.2 0.5-0.3 0.5-0.8 0.5-1.4 0.6-0.9 0.7-0.6 1-0.1 1.5 0 1.7-0.2 1.3-0.6 1.1-1.3 0.9-5.2 1.8-8.9 2-2.6-0.3-2.2-0.9-1.6-1.2-2.7-0.7-1.4-0.8-1-1-0.7-0.9-1.4-0.7-7.3-1.7-1.3-0.7-0.8-0.9-0.6-1-0.7-0.7-2.5-1.5-0.7-0.8-0.3-0.8-0.7-2-0.6-1-0.6-0.8-1.1-0.6-0.7-0.5-1.7-2.4-3.4-1.7 2-2.3 2.1-1.7 1.2-1.7 3.9-7.6 13.3-13.4 0.4-0.8 0.2-1.2-2.8-16.3z" id="PY9" name="Paraguarí">
  </path>
  <path d="M680.8 743.8l2.1-1.3 5.6-2.7 1-0.6 4.8-4.6 1.3-0.8 1.7-0.7 3.2-0.5 1.3-0.4 1.1-0.5 3-1.9 1.8-0.6 1.9-0.2 11.4 0.6 2.8-0.3 1.5 0.1 2.9 0.5 8.1 0.3 1.2 0.7 0.8 0.8 1.2 0.6 1.6 0.3 10.7-0.3 1.9 0.3 2 0.9 1.4 0.9 1.1 1.2 2.1 2.6 1.3 1.1 1.3 0.8 2.6 0.2 3.2-0.5 6-1.9 6.1-2.5 0.9 0.1 0.5 0.2 1.2 1.4-0.6 1.2-0.3 0.5-0.8 1.6-1.3 3.5-0.6 1.1-0.9 1-1.3 0.3-0.9 0-0.9-0.3-0.9-0.1-1 0.3-1.5 1.3-0.8 1-1 2.2-0.5 0.6-1.3 0.7-9 3.7-1.4 0.9-2.4 1.9-1.2 0.5-3.6 0.8-1.2 0.5-1.8 1.7-1.3 0.8-3.3 0.9-1.3 0.6-0.9 1.1-0.5 1.1-2.1 8.6-0.3 0.9-0.1 0.2-0.2 0.3-2.4 1.7-5.7 2.8-1.9-0.2-3.9-2.6-2.8-2.3-0.5-0.3-0.8-0.4-1.2 0-1.4 0.4-5 2.2-0.9 0.1-0.7-0.2-0.7-0.4-0.6 0-0.9 0.4-0.8 1.4-0.3 1.3-0.2 1.3-0.4 1.2-0.8 0.9-1.7 0.6-4.9 0.2-1.4 0.5-1 0.8-1.1 1.9-0.7 1.9-0.7 4.9-0.8 0.9-1.4 0.6-2.5-0.3-3.3 0-6.7-12.5-0.6-1.4-0.4-1.6-0.5-4.3-0.1-0.2-0.1-0.6 0.2-0.7 0.5-0.8 0.7-0.4 4.3-1 1-0.6 0.5-1.1 0-1.7-1-3.1-0.9-1.7-2.3-3.1-0.8-1.2-0.7-1.7-1-3.5-0.6-3.4-0.1-2 0.2-1.8 0.7-2 1.7-1.6z" id="PY4" name="Guairá">
  </path>
 </g>
 <g id="points">
  <circle class="-27.171836454971878|-62.23010379367744" cx="120.4" cy="907.6" id="0">
  </circle>
  <circle class="-23.851791030506842|-58.02756960968663" cx="542.2" cy="538.3" id="1">
  </circle>
  <circle class="-19.701734249925547|-54.66554226249398" cx="879.6" cy="89.6" id="2">
  </circle>
 </g>
 <g id="label_points">
  <circle class="Boquerón" cx="223.2" cy="318.7" id="PY19">
  </circle>
  <circle class="Presidente Hayes" cx="465.3" cy="497.1" id="PY15">
  </circle>
  <circle class="Central" cx="604.6" cy="715.3" id="PY11">
  </circle>
  <circle class="Asunción" cx="585.2" cy="699.3" id="PYASU">
  </circle>
  <circle class="Alto Paraná" cx="844" cy="744.6" id="PY10">
  </circle>
  <circle class="Itapúa" cx="773.5" cy="865.3" id="PY7">
  </circle>
  <circle class="Ñeembucú" cx="550.4" cy="880.6" id="PY12">
  </circle>
  <circle class="Misiones" cx="648.4" cy="872.6" id="PY8">
  </circle>
  <circle class="Alto Paraguay" cx="441.8" cy="160.6" id="PY16">
  </circle>
  <circle class="Concepción" cx="625.5" cy="428.3" id="PY1">
  </circle>
  <circle class="Amambay" cx="751.9" cy="419.9" id="PY13">
  </circle>
  <circle class="Canindeyú" cx="785" cy="580.8" id="PY14">
  </circle>
  <circle class="San Pedro" cx="681.8" cy="570.1" id="PY2">
  </circle>
  <circle class="Caaguazú" cx="773.8" cy="687.5" id="PY5">
  </circle>
  <circle class="Cordillera" cx="657.9" cy="691.3" id="PY3">
  </circle>
  <circle class="Caazapá" cx="717.6" cy="816.5" id="PY6">
  </circle>
  <circle class="Paraguarí" cx="639.6" cy="779.7" id="PY9">
  </circle>
  <circle class="Guairá" cx="719.3" cy="752.3" id="PY4">
  </circle>
 </g>
</svg>