<?xml version="1.0"?>
    
<!--********* Copyright (c) 2024 Pareto Softare, LLC DBA Simplemaps.com ***************************************
************* Free for Commercial Use, full terms at  https://simplemaps.com/resources/svg-license ************
************* Attribution is appreciated! https://simplemaps.com *******************************************-->

<svg baseprofile="tiny" fill="#6f9c76" height="824" stroke="#ffffff" stroke-linecap="round" stroke-linejoin="round" stroke-width=".5" version="1.2" viewbox="0 0 1000 824" width="1000" xmlns="http://www.w3.org/2000/svg">
 <g id="features">
  <path d="M600.3 753.7l13.6-110.8 11.6-90.8 12.3-100.7 0.3-10.5-0.7-5.7-1-3.4-1.8-4.2-1.8-3-1.8-2.2-10.9-11-15.3-11.1-0.7-0.9-0.6-0.9-0.3-0.7-0.4-2.2-1-64.1-0.2-1.5-0.3-0.9-0.4-0.9-0.6-0.9-0.6-0.6-0.5-0.4-13.8-5.5-0.9-0.6-0.8-0.9-1.2-1.8-7.1-7-1-0.6-0.9-0.3-1.1-0.1-6.4 1.2-1 0-1-0.2-1.1-0.3-1-0.5-10.6-7.7-2.7-1.5-1.9-0.7-1.9-0.4-7.2-0.2-1.8-0.4-1-0.4-1.8-1.3-4.1-3.9-2.7-3.3-0.9-0.8-0.9-0.5-1-0.2-3.1-0.3-2-0.6-12.3-7.1-0.9-0.9-1.1-1.3-0.5-1.3-1.2-4.2-0.6-1.2-0.7-1-1.8-1.7-3.7-2.7-0.5-0.3-0.5-0.6-1.1-1.7-0.4-1-0.2-0.9 0-0.9 0.1-0.8 0.4-1.4 1.1-2.8 0.9-1.6 7.2-8.8 2.1-3.1 15.2-28.7 2.6-3.9 3.4-3.8 4.2-3.9 6.1-3.4 20.4-7.7 0.6-0.6 0.7-0.2 1.9-0.4 1.9-0.4 4.8 0.6 4.8 0.6 4.9 0.6 4.8 0.6 4.3 0.5 4.3 0.6 4.3 0.6 4.3 0.6 2.4 0.3 0.5 0.9 2.1 3.5 2.4 6.6 0.2 1.3 0.2 2.6 0.4 1.5 0.6 1.5 0.6 1.1 1 0.8 0.9 0.7 0.9 0.9 0.3 1.3 2.3 0 7.7-0.1 7.7-0.1 7.6-0.1 7.7-0.1 1 1.1 0.6 0.4 1.1 0.5 0.1 0.4 0.4 2.1 0 1.7-0.3 1.1-1-0.4-0.2 0.3-0.1 0.2 0 0.2 0.8 0 0.7-0.2 0.6-0.4 0.2-0.8 0.5 0.4 0 0.4-0.5 0.9-0.2 1.3-0.1 0.6 0.3 1.1 0.5 1 3.6 4 0.2 0.6-0.6 0.9-0.3 0.9 0 1 0.2 1 0.4 0.8 1.4 1.9 0.3 0.5-0.1 0.6 0 0.2 0.7 0.4 1.4 0.6 0.5 0.1 1.5-0.1 0.4 0.2 0.8 0.4 0.5 0.1 0.2 0.2 0 0.3-0.1 0.3-0.2 0.2-0.3 0.2-0.3 0-0.3-0.2-0.7 0.4-0.2 0.3 0 0.7 0.4 0.7 0.9 0.9 1 0.7 0.8 0.4 0 0.2 1 1.5 1.7 1.7 0.2 0.5-0.4 1 0 0.6 0 0.6 0.2 0.2-0.1 0.4-0.4 0.7-0.6 0.8-0.6 0.5 0.4-0.6 0-0.4-0.1-1.2 0.1-0.7 0.3-0.4 0.1-0.4-0.2-0.7-0.6 0.7-0.7 1.8-0.7 0.5 0.8-2.1 0.1-0.6-0.3-0.9-0.3 0.1-0.4 0.7-0.8 3.4 0 0.8-0.1 0.1-0.2 0.3 0.1 0.3 0.5-0.1 0.2-0.2 0.3-0.8 0.3-0.3 0 2.2 0.2 0.5 0.4-0.1 0.4-0.4 0.2-0.5 0.4 0.5 0 0.7-0.1 0.8 0.6 0.2 0.4-0.3 0.3-0.4 0.2-0.5 0 0.8-0.1 0.3-0.2 0.2 0.2 0.5 0 0.3-0.3 0.1-0.5 0.1 0.5 1 0.1 0.3-1-0.5-0.5 0-0.3 0.5 0.9 0.4 0.8 0 0.6-0.5 0.4-0.9 0.3 0 0.3 0.7-0.5 0.6-0.2 0.9 0.2 0.8 0.8 0 0.3-0.3-0.2-0.4-0.3-0.3-0.1-0.3 0.3-0.5 0.5-0.2 1-0.3 0.8-0.1 0.6 0.3 1.5 1.5 1.6 0.8 0.4 0.6-0.8 0.6 0.6 0.2 0.6 0 0.2-0.4-0.2-0.5 0.7 0.3 0.8 0.2 1.6 0.2 0.4-0.2 0.7-0.4 0.4-0.1 0.4 0 0.9 0.3 0.5 0 0.8 0.3 0.7 0.6 1 1.4 0.3 0.3 0.3 0.2 0.3 0.2 0.3 0.4 0.1 0.3 0.1 0.9 0.1 0.4-0.6 0-0.3-0.2-0.1-0.5 0.1-0.6-0.3 0-0.9 1.1-2.4-0.3-0.8 0.9-0.4 0-0.3-0.9-0.7 0-1.6 0.9 0.3 0.2 1 0.2 0.5 0.3 0.3 0.2 0.3 0.3 0.3 0.2 0.5 0.3 0.3 0.3 0.2 0.2 0.3-0.1 0.7-0.7 0-0.1 0.2-0.2 0.1-0.3 0.2-0.2 0.2 0.2 0.4 0.3 0.4 0.2-0.3 0.7-0.4 0.3-0.5 0.2-0.3 0.5-0.1 0.5-0.1 1.2-0.1 0.6 0.5-0.1 0.5-0.3 0.5-0.4 0.4-0.4 0.5-0.1 0.6 0.1 0.9 0.5-0.4 1 0.2 0.9 0.3 1 0.2 1-0.1 2 0.2 0.9 0.7-0.1 0 0.9 0.3 0.3 0.5-0.1 0.4-0.4-0.2-0.8 0.4-0.4 0.7-0.1 0.6 0.6 0.3-0.4 0.2 0.6-0.1 0.5-0.3 0.5-0.1 0.6-0.2 0.4-0.3 0.2-0.5 0-0.5-0.1 0.4 0.6 1 0.2 0.4 0.5 0.4-0.2 0.3-0.4 0.5-1 0 0.2 0.1 0 0.2 0.1-0.5 0.9 0.4 0.1 1.1-0.3 0.7 0.1 1.1 0.5 0.7 0-1.1-1.2-0.4-0.8 0.6-0.6 0.6-0.1 0.4 0.3 0.4 0.3 0.4 0.2 0.3-0.2 0.9-0.8-0.2 0.7-0.4 1.2 0 0.7 0.3 1.1 0.2 0.6 0.2 0.3 0.8 0.4 0.8 0.9 2.5 3.9 1.3 1.6 0.4 0.3 1.2 0.5 0.4 0.4 0.6 0.6 0.5 0.4 2.6 1.2 1.7 1.2 1 0.1 1 0 1 0.1 1.4 0.8 1.2 1.2 2.2 3 0.7 1.3 3.2 2.3 0.7 0.8 0.1 1.2-1.9-1.7-1.1-0.7-2.3-0.3-0.6-0.2-0.4-0.5-0.4-1.8-0.4 0.3-0.4 0.8-0.2 0.8 0 0.6 0 0.6 0.2 0.5 0.3 0.5 0.4 0.4 0.1 0.3-0.2 2.9 0.1 0.8 1.2 3.7 0.5 0.8 0.7 0.7 0.7 0.5 3.7 1.3 1.3 1.1 0.8 1.6 0.3 2.2 0 5.3-0.2 1.1-0.4 1-0.9 0.5 0-0.7-0.3-0.3-0.5 0.2-0.4 0.5 0.3 1.2-0.1 1.9-0.4 1.9-0.4 1.3-0.6-0.5-0.2-0.7 0-0.8-0.1-0.7-0.3-0.6-0.4-0.3-0.4-0.3-0.3-0.4-0.2-0.2-0.2 0-0.2-0.1-0.1-1.4-0.1-0.3-0.1-0.3-0.4-0.5-0.5-0.5-0.6-0.4-0.4 0.2-1.2 2.2-0.3 0.3-0.5 0.3 0.2 0.6 0.5 0.7 0.2 0.2 0.1 0.4 0.4 0.6 0.1 0.5-0.1 0.1-0.3 0.1-0.3 0.2-0.2 0.4 0.1 0.7 0.2 0.7 0 0.7-0.3 0.7 0.7 0.3 0.7-0.4 0.3-0.7-0.2-0.8 0.4 0.1 0.3 0.2 0.5 0.7 0.2 0.1 0.2-0.1 0.1 0.1 0.1 0.3 0 0.3 0 0.2 0.2 0 0.2 0 1.1 0.3 0.5 0.7 0.2 0.8 0.5 0.9 0 0.3-0.9 0.9 0.5 2.2 1 2.5 0.8 1.6 2.6 3.2 1.1 1.8 0.5 2.2-0.3 0-0.8-2.2-0.3-0.4-0.5-0.1-0.6-0.3-0.6-0.4-0.5-0.8-0.7-0.5-0.6-0.1-0.2 0.9 0.4 0.7 1.1 0.8 0.3 0.5 0.2-0.5 0.1-0.2 0.3 0 1.6 3.4 5 6.4 1.1 1-0.1-0.6-0.3-0.8-0.1-0.6 0.3-0.2 0.5-0.3 0.2 0.1 0.2 1.1 0.2 0.3 0.2 0.1 0.1 0.1 0.3 0.7 0.8 0.4 1.5 0.4 0.4 0.5 0.8 2.1-0.3 0.3 0.5 0.8 0.6 1.2 0.5 1.4 0.2 1.1 0 0.6-0.3 1 0 0.6 0.1 0.7 0.2 0.4 0.2 0.3 0.2 0.8 0.6 1.2 0.2 0.7-0.3 2 0.3 1.9 0.4 1.1 0.5 0.6 0.3-0.9 1.1 0.9 1.2 1.5 0.5 0.8 0.7 0.7 0.9 3.1 1 0.7 0.9 0.8 0.4 1.9 0.1 2.9 0.1 0.5 0.4 0.9 0.5 0.8 0.4 0.4 0.7 0 0.8-0.8 0.1-0.1 0.1 0.1 3.1 5.1 2 2.3 2.2 1 2.6 0.3 2.4 0 0.7-0.2 1.6-0.5 2.9-2.4 0.1 0.4 0.3 0 1.9-0.3 0.4 0.2 0.1 0.1 0.1 0.2 0.2 0.2 0.3 0.3 0.5-0.4 0.1 0.3 0 0.1-0.1 0.4-0.1 0.4-0.3 0.1-0.3 0.3 0.1 0.5 0.2 0.4 0.1 0.1-0.1 1.6 0.3 0.3 0.7-0.3 0.6-0.4 1.2-2.1 0.1-0.2 0.5-0.4 0.5-0.4 0.4-0.6 0-1.1 0.6 0.4 0.8 0 0.7 0.2 0.2 0.6 0.3 0.6 0.5 0.1 0.7 0 0.6 0.4 0 0.4-0.7 0.3-0.9 0.3-0.7 0.4-0.4 0.7-0.1 0-1 1.1-0.2 0.4-0.2 0.6-0.2 0.3-2.6 1.9-0.4 0.6-0.1 0.2-0.6 0.8-0.2 0.4-0.1 0.5-0.1 1.1-0.1 0.4 0 0.3 0 0.3 0 0.3-0.1 0.1-0.5-0.1-0.2 0.1-0.1 0.1 0 1.1 0 0.5 0.2 0.2 2.7 0.3 1-0.3 0.5-0.3 0.4-0.3 0.4-0.3 0.6-0.1 2.9 0.6 0.7 0.6 1.3 1.5 1.9 0.5 0.2 1.9 0 1.2-0.1 3 0.3 1.2 0.6 1.1 2.5 3.2 2.2 3 2.3 2.9 2.2 2.9 2.3 3 2.2 2.9 2.3 2.9 2.2 2.9 2.3 2.9 2.2 3 2.3 2.9 2.2 2.9 2.3 2.9 2.2 2.9 2.3 2.9 2.2 2.9 2.3 2.9 2.3 3 0.9 0.8 1 0.3 7 1 6 0.8 6 0.8 6 0.8 6 0.8 6 0.8 6 0.8 6 0.8 6 0.8 6 0.8 6 0.8 6 0.8 6 0.8 6 0.8 6 0.8 6 0.8 6 0.8 5.9 0.8 0.6-0.2 2.9-3.7 2.7 4.6 3.5 5.8 3.5 5.8 3.5 5.9 3.5 5.8 2.3 3.8 0.4 1 0 1.1-1.6 5.3-0.2 0.6-0.3 1-0.8 2.6-1.2 4-1.6 5.2-1.9 6.2-2.2 6.9-2.2 7.3-0.6 1.8-1.8 5.8-2.4 7.6-2.2 7.3-2.2 6.9-1.9 6.1-1.6 5.2-1.2 4-0.8 2.5-0.3 1-1.4 4.4-6.5 2.3-7.4 2.6-7.4 2.6-7.3 2.6-7.4 2.7-7.4 2.6-7.4 2.6-7.4 2.6-7.4 2.6-7.4 2.6-7.4 2.6-7.3 2.6-7.4 2.7-7.4 2.6-7.4 2.6-7.4 2.6-7.4 2.6-4.6 1.6-0.2 0.1-0.8 0.1-6 0.8-6.9 1-6.9 1-6.9 1-6.9 1-6.9 1-7 0.9-6.9 1-6.9 1-6.9 1-6.9 1-6.9 0.9-6.9 1-6.9 1-7 1-6.9 1-3.2 0.4-3.7 0.6-5.6 0.7-3.4 1.3-0.3 0.2-0.8 0.4-1 0.5-1 0.5-1 0.5-1 0.5-0.3 0.1-0.8 0.4-0.9 0.5-1.2 0.6-0.9 0.5-6.9 3.5-8.3 4.3-7.4 3.8-5.5 2.8-0.3 0.3-0.7 0.4-3.3 4.2-3.9 5-6.9 8.5-6.4 8.1-4.2 5.3-0.7 1.4-2.1 5.6-2.9 8-1.2 1.6 0 0.1z m92.2-479.1l0.8 0.4 2.3 0.6 2.2 0.7-0.8 0.3-0.6-0.2-0.7-0.3-0.7-0.2-0.7 0.1-0.7 0.3-0.6 0.4-0.5 0.5-0.4-0.3-0.2 0-0.3-0.2-0.3-0.1 0-0.3 0.6-0.3 0.1-0.2-0.2-0.3-0.2-0.2-0.1-0.2-0.5-0.2-0.5 0.1-0.4 0.1-0.4 0.1-0.6 0.3-0.5 0.5-0.5 0.8-0.3 0.8-0.1-1.3 0.8-1.2 1.2-0.9 1.3-0.3 0.5 0.1 0.4 0.2 0.6 0.4z" id="SA04" name="Ash Sharqiyah">
  </path>
  <path d="M557.1 190.2l-0.6 0.6-20.4 7.7-6.1 3.4-4.2 3.9-3.4 3.8-2.6 3.9-15.2 28.7-2.1 3.1-7.2 8.8-0.9 1.6-1.1 2.8-0.4 1.4-0.1 0.8 0 0.9 0.2 0.9 0.4 1 1.1 1.7 0.5 0.6-1.8 2.6-0.9 0.5-1.1 0.5-1-0.1-0.9-0.4-0.8-0.6-0.6-0.8-0.1-0.1-0.2-0.3-0.8-0.7-0.6-1.4-1.1-1.3-7.2-6.5-1-0.7-1.9-1.1-1.5-0.5-13.3-2.1-1.2-0.4-1.5-0.7-1.1-0.9-1.1-1-1.5-2.1-3.6-9.6-7.3-13.2-0.7-1-1-0.8-1.2-0.4-1.5 0.1-1.2 0.5-5 3.3-1.7 0.8-1 0.2-1.1-0.1-1.7-0.6-4.6-2.4-1.2-0.4-1.5-0.1-4.3 0.4-1.1-0.1-1.2-0.3-1.5-1-1-1.1-0.6-1.5-0.3-1.1-0.1-0.6-0.2-3.7-0.1-0.4-0.4-0.4-0.9-0.5-1.5 0-1.3 0.2-1.2 0.6-3.5 1.9-1.2 0.5-1.3 0.3-1.4 0.1-1.6-0.2-2.1-0.8-1.5-1-1.3-1-5.2-6.3-1-0.9-0.9-0.6-2-0.8-14.8-3.4-1.1-0.1-4.6 0.3-5.3 1.3-1.1 0.2-1.1 0-1.5-0.3-10.5-3.4-1.4-0.2-1.8-0.1-3.1 0.4-22.9 5.3-1 0-2.5-0.6-5-2.1 6.1-6.1 0.7-1 0.4-1 0.2-0.7 0.1-0.3 1.1-16.5 0.2-1 0.3-1.1 0.6-1 0.8-1 1.1-1.1 4.7-3.6 36-22.5 3.6-2.9 1.9-2 0.8-1 0.2-1-0.3-1-0.8-0.9-6.5-5-2.1-2-0.7-1.1-1.3-2.2-1.9-4.6-0.6-0.8-1.1-1.4-0.8-0.9-1.6-1-1.3-0.5-5.1-0.7-3.5 0-2.4-0.3-1.4-0.5-1.2-0.6-8.6-6.9-1.4-0.7-1.6-0.4-4.3 0-2.6 0.4-23.6-0.6-4-0.9-1.5-0.6-1.1-0.6-3.2-2.8-1-0.8-1-0.6-1.4-0.3-29.2-4.6-5.7-0.1-13.3 2-19.2 1.9-2.1-0.1-1.9-0.5-1-0.4-1-0.5-0.9-0.8-0.7-1-1.5-2.6-0.8-1.7-1.2-2.2-1.4-2-1.3-1.3-3.8-2.7-0.7-0.9-0.3-0.8-0.1-0.7-0.1-0.3-0.2-1.3-0.2-3.1 0.2-1.7 5.2-19.3 8.1-2.4 9.7-2.8 9.7-2.8 9.7-2.9 4.9-1.4 1.5-0.6 5.2-4.9 0.8-0.7 0.4-0.1 0.2 0 0.1-0.1 0.1 0 0.1-0.1 8.6 1.5 8.5 1.5 8.5 1.4 8.6 1.5 3.4 0.6 14.8 2.9 2.3 0.9 2.4 1.4 4.4 2.6 3.8 2.3 3.8 2.3 3.8 2.2 3.8 2.3 3.8 2.3 3.7 2.2 3.8 2.3 3.8 2.3 3.8 2.2 3.8 2.3 3.8 2.2 3.8 2.3 3.7 2.3 3.8 2.2 3.8 2.3 3.8 2.2 3.8 2.3 2.9 2.5 3.7 3.2 3.6 3.1 3.6 3.2 3.7 3.2 4.1 3.5 4.1 3.6 4.1 3.6 0.8 0.7 3.2 2.8 0.1 0 4.5 3.8 3.8 3.1 3.8 3.1 3.8 3.1 3.8 3.1 5 4 4.9 4 5 4.1 4.9 4 2.1 1.7 2.9 2.3 4.9 4 4.9 4 5 4 4.1 3.4 4.1 3.3 4.1 3.3 4.1 3.4 3.4 2.6 0.2 0.1 0.3 0.2 0.3 0.1 0.3 0.1 3.9 0.3 3.5 0.3 3.4 0.4 3.4 0.3 3.5 0.3 4.4 0.4 4.4 0.4 4.4 0.4 4.5 0.4 4.4 0.4 4.4 0.4 4.4 0.4 4.4 0.4 3.3 0.3 3.3 0.3 3.3 0.3 3.3 0.3 4.5 0.4 1.9-0.4 1.2-0.2z" id="SA08" name="Al Hudud ash Shamaliyah">
  </path>
  <path d="M192.8 56.2l-5.2 19.3-0.2 1.7 0.2 3.1 0.2 1.3 0.1 0.3 0.1 0.7 0.3 0.8 0.7 0.9 3.8 2.7 1.3 1.3 1.4 2 1.2 2.2 0.8 1.7 1.5 2.6 0.7 1 0.9 0.8 1 0.5 1 0.4 1.9 0.5 2.1 0.1 19.2-1.9 13.3-2 5.7 0.1 29.2 4.6 1.4 0.3 1 0.6 1 0.8 3.2 2.8 1.1 0.6 1.5 0.6 4 0.9 23.6 0.6 2.6-0.4 4.3 0 1.6 0.4 1.4 0.7 8.6 6.9 1.2 0.6 1.4 0.5 2.4 0.3 3.5 0 5.1 0.7 1.3 0.5 1.6 1 0.8 0.9 1.1 1.4 0.6 0.8 1.9 4.6 1.3 2.2 0.7 1.1 2.1 2 6.5 5 0.8 0.9 0.3 1-0.2 1-0.8 1-1.9 2-3.6 2.9-36 22.5-4.7 3.6-1.1 1.1-0.8 1-0.6 1-0.3 1.1-0.2 1-1.1 16.5-0.1 0.3-0.2 0.7-0.4 1-0.7 1-6.1 6.1-2.7-0.7-0.9 0.1-16.4 6.8-16 9.1-7.5 2.1-16.3 7.8-1.1 0.7-1 0.7-4.7 5.2-1.7-1.4-0.6-0.3-0.7-0.2-1.1-0.1-1.5 0.3-1.3 0.3-4.5 2.3-1.1 0.5-1 0.1-1.1-0.1-0.9-0.6-0.7-0.8-1.2-2.9-1.9 0-0.8-0.1-0.9-0.3-1.5-0.9-1-0.2-1.4 0.4-1.1 0.5-1.4 0.5-1.6 0.1-8.6-0.9-2.7-0.6-4.7-1.6-2-1.2-2.9-2.4-0.7-0.9-0.7-1-0.5-1-0.7-1.7-0.5-2.1-0.3-2.8-0.1-4.4 0.4-7.9-0.2-1.1-0.4-1-0.8-0.6-1-0.2-0.9 0.3-2.7 2.6-2.9 1.8-0.9 0.8-0.6 1-0.5 1-1.8 4.5-0.5 1-0.7 0.9-1 0.5-1.2 0.3-7.4-0.5-3.6-0.7-6.6-2.2-2.5-0.4-3.4 0-10.3 2.3-4.8 1.8-0.7 0-1 0-1.8-0.6-0.3-0.2-0.3-0.3-11.1-14.5-1.4-1.3-1.9-1.3-1-0.5-8.5-2.1-2.8 0-3.4 0.6-5.7 0.4-8.9 1.7-1.8 0.6-1.5 0.7-1.5 1.5-0.7 0.4-1.1 0.2-6.2-0.6-3.5-0.9-1.5-0.1-1.4 0.3-3.7 0.1 0-0.2-0.7-0.3 0-0.3 0.6-1.1 0.7-2 0.3-2.1-0.5-1.2 0-0.7 0.5-0.9 0.4-1.1 0.9-4.4 0.2-0.7 0.5-1.1-0.1-0.3 0.1-0.7 0.4-0.4 1-0.6-0.3-0.8-0.1-1.1 0.1-0.7 0.6 0.3 0-0.2 0-0.1 0.1-0.1 0.2 0-0.4-0.7-0.1-0.8 0.2-0.8 4.8 0.9 5.1 0.9 6.7 1.1 6 1.1 6.4 1.1 5.1 0.9 2.5 0.4 5 0.9 4.5 0.7 1.1 0 1.1-0.5 4.7-3.8 4.6-3.8 5-4.2 3.3-2.8 2.8-4.7 2.7-4.5 2-3.4 2.4-4.1 1-1.1 1.2-0.6 3.7-0.8 3.9-0.8 6.2-1.3 6.1-1.2 5.8-1.2 5.1-1.1 0.9-0.8 1.9-4.7 1.5-3.5 1.5-3.8 1.3-3.1 0.6-0.9 1-0.8 4.6-2.7 5.3-2.9 3.1-1.8 0.3-0.2 0.1 0-0.1 0-2.1-2.5-4.7-5.6-4.8-5.6-4.7-5.6-4.7-5.6-0.2-0.1-0.1-0.2-0.1-0.2-0.2-0.1-5.6-6.1-5.5-6-0.1-0.1-5.6-6.1-5.6-6.1 1.6-0.5 9.1-2.8 10.6-3.2 10.7-3.2 2.6-0.7 8.1-2.5 1.6-0.4z" id="SA12" name="Al Jawf">
  </path>
  <path d="M613.9 642.9l-13.6 110.8-0.1 0-0.9 0.6-0.9 0.5-0.9 0.5-0.3 0.3-1.9 1.1-5.3 3.1-1 0.4-0.3 0-1 0-0.9 0-1.1 0-1 0-0.1 0-0.9 0-0.9 0-0.9 0 0 0.1-0.3-0.1-0.6 0-0.5-0.3-3.7-5.1-3.1-4.5-2.8-3.9-1.6-0.9-9.6 1.3-7.2 1-10.4-1.1-8.2-0.8-10.7-1.1-9.2-1-1.9-0.6-7.1-4.1-2.4-0.5-7.3-0.1-1 0-0.9 0-4.5 0-8.7-0.1-0.1 0-0.8 0.2-2.6 1-0.1 0.1-1.3 0-2.9-0.6-2.7-0.1-4.1 0.4-3.3 0.8-0.9 0.1-1.8-0.6-0.9-0.1-0.6 0.5-0.4 0.7-0.2 0.4-0.7 0.8-0.8 0.4-1.1-0.2-1.7-0.8-0.7-0.1-0.9 0.5-0.1 0-0.6 0.8-0.2 0.4-0.4 0.5-0.6 0.6-1.1 0.2-0.5-0.1-0.2-0.2-0.2-0.2-0.1-0.3 0.1-0.9 0-0.1 0-0.4-0.3-0.2-1 0.4-0.8 0-1.2-0.1-0.5-0.1-1.6 0.2-0.8 0-0.8-0.3-1-0.7-0.8-0.7-2.2-2.5 0-1.4 1.2-4.6-0.1-2.4-0.9-2.7-0.1-1.1 0-1.3 0.4-1.8 1.1-10-0.1-1.9-0.4-1.9-0.7-2-0.4-2 0-1.1 0.4-1.3 0.9-1.7 1.1-1.4 7-7.4 4.8-4.2 1.4-1.4 0.5-0.8 0.5-0.9 1-2.5 0.6-1.1 1-1 1-0.7 1-0.4 3-0.6 1.9-0.7 2-1 1.9-1.3 0.8-0.8 0.6-0.8 0.6-0.9 0.4-1.2 0.3-1.2 0.1-1.7 0-1.6-0.2-2-1.5-5.8 0-1.1 0.3-1.2 1.1-1.7 1-0.9 2.8-1.5 0.7-0.5 0.4-0.6 0.3-1 0.2-1.5 0-5.8 12 7.6 3.1 1.5 2.3 0.9 4.1 1 11.1 0.7 101.1-10.9 5.6-1.6z" id="SA10" name="Najran">
  </path>
  <path d="M474.6 643.7l0 5.8-0.2 1.5-0.3 1-0.4 0.6-0.7 0.5-2.8 1.5-1 0.9-1.1 1.7-0.3 1.2 0 1.1 1.5 5.8 0.2 2 0 1.6-0.1 1.7-0.3 1.2-0.4 1.2-0.6 0.9-0.6 0.8-0.8 0.8-1.9 1.3-2 1-1.9 0.7-3 0.6-1 0.4-1 0.7-1 1-0.6 1.1-1 2.5-0.5 0.9-0.5 0.8-1.4 1.4-4.8 4.2-7 7.4-1.1 1.4-0.9 1.7-0.4 1.3 0 1.1 0.4 2 0.7 2 0.4 1.9 0.1 1.9-1.1 10-0.4 1.8 0 1.3 0.1 1.1 0.9 2.7 0.1 2.4-1.2 4.6 0 1.4-0.8-0.9-1.8-1.1-1-0.4-2.2-1-0.7-0.2-1.5 0-0.8-0.2-0.9 0.1-1 0.4-2.1 1.3-1.3-2-2.3-3.4-0.7-0.9-0.9-0.8-3.3-1.2-0.8-0.6-0.7-0.9-1.3-2.9-0.6-0.9-1.1-1.1-3.4-2.7-0.7-1.2-0.2-1.1 0.1-1.9-0.2-0.8-0.6-0.7-1.7-0.3-0.3 0-2 1.2-1.8 1.3-0.8 0.8-0.6 0.9-0.9 1.8-2 7.5-0.4 0.9-0.6 0.6-0.8 0.4-0.9 0-0.9-0.4-1.1-0.7-4-4.2-0.7-1.1-0.6-1.1-0.3-0.9-0.5-1-0.9-0.8-1.2-0.7-1-0.2-6.8-0.1-1-0.3-0.9-0.5-0.9-1.1-0.5-0.9-0.5-1.7-0.3-0.4-0.7-0.8-1.1-0.6-1-0.3-0.9-0.1-2.9 0.4-0.9-0.2-0.7-0.7-0.4-1.2 0-1.1 0-1 0.9-5.4 0-1-0.2-0.8-0.4-0.7-1.7-0.5-4.9 0.4 1.5-5.8 0.2-1.2 0-1.2-0.3-1.4-3-9-0.5-0.9-0.7-0.7-0.8-0.5-0.9-0.3-1.9-0.4-1.8-0.1-4.7 0-0.9-0.2-0.8-0.5-0.8-0.7-0.5-0.9-0.3-1-0.3-0.9-0.2-1.9 0.3-10.6 0.1-0.9 0.4-0.4 0.7 0.3 0.7 0.6 0.9 0.4 0.8 0.1 0.8-0.4 2.2-1.7 1.9-1.1 1-0.3 0.9-0.2 1 0 4.8 0.5 0.6 0 0.6-0.2 0.8-0.3 0.8-0.6 0.6-0.8 0.4-0.9 1.5-4.7 0-1.1-0.3-1.1-1.8-3.1-0.2-0.9-0.1-1.2 0-1.1 1.3-6 0.1-0.9 0-0.9-0.3-1-0.5-0.9-0.7-0.8-0.5-0.4-0.6-0.3-0.9-0.1-1.8 0.1-1.9 0.8 4.3-9.5 0.7-2.3 0.2-3.2 0.4-1.3 0.6-1.2 1-0.9 5.1-3.6 0.9-0.9 1-1.4 0.3-1.1-0.2-1.1-0.5-0.8-1.1-1.1-0.3-1.4-0.1-1.2 2.1-7.1 0.8 1.3 4.4 9.1 0.7 1 0.8 0.7 0.9 0.5 1 0.3 1.2-0.1 1.4-0.4 2.4-1.3 1.4-1.1 11-9.9 8.5-4.7 1.2-1 1.7-1.7 1.1-0.7 1.2-0.5 1.5-0.3 2.7-0.1 0.7-0.1 0.8-0.3 2.7-1.1 1.4-0.4 1.8-0.3 1.2 0.1 1.2 0.2 2.7 1 1.3-0.1 1.5-0.5 6.8-4 4.6-1.8 6.3 5.7 2.3 2.8 1.4 2.2 2.6 3.4 3.5 4 0.6 1.1 0.3 1 0.1 0.8-0.1 0.9 0 0.2-0.3 0.9-0.4 0.8-2.5 4.1-0.8 1.7-1.7 7.9 0 1.1 0.3 1.5 0.7 1.1 2.4 2.9 4.2 7 17 15.7 0.7 0.5z" id="SA14" name="`Asir">
  </path>
  <path d="M356.1 698.4l4.9-0.4 1.7 0.5 0.4 0.7 0.2 0.8 0 1-0.9 5.4 0 1 0 1.1 0.4 1.2 0.7 0.7 0.9 0.2 2.9-0.4 0.9 0.1 1 0.3 1.1 0.6 0.7 0.8 0.3 0.4 0.5 1.7 0.5 0.9 0.9 1.1 0.9 0.5 1 0.3 6.8 0.1 1 0.2 1.2 0.7 0.9 0.8 0.5 1 0.3 0.9 0.6 1.1 0.7 1.1 4 4.2 1.1 0.7 0.9 0.4 0.9 0 0.8-0.4 0.6-0.6 0.4-0.9 2-7.5 0.9-1.8 0.6-0.9 0.8-0.8 1.8-1.3 2-1.2 0.3 0 1.7 0.3 0.6 0.7 0.2 0.8-0.1 1.9 0.2 1.1 0.7 1.2 3.4 2.7 1.1 1.1 0.6 0.9 1.3 2.9 0.7 0.9 0.8 0.6 3.3 1.2 0.9 0.8 0.7 0.9 2.3 3.4 1.3 2-1.7 1.1-2.6 2.2-1.1 1-2.1 2.6-0.1 0.2 2.4 0.8 0.9 0.7 0.3 0.7 0.1 0.2-0.1 0.9-1 0.5-1 0.3-1.1 0.4-0.9 0.8-0.3 0.8 0.1 1.1-0.3 0.9-0.9 1.8-0.2 0.9 0.1 0.8 0.4 0.7 0.2 1 0 1-0.2 0.9-0.7 1.7-0.3 1.1 0.2 0.8 0.9 1.7 0.5 1.7 0.5 0.4 1.6 0.4 0.5 0.4 0.3 0.5 0 0.6-0.1 0.4-0.4 0.3-0.4 0.2-0.4 0.2-0.6 1 0.1 0.6 0.4 0.7 0.3 1 0 0.1-0.3 0.8-0.4 0.1-0.3 0.1-1-0.3-0.8-0.2-1-0.2-0.6 0.2-0.2 0.6-0.1 1-0.1 0.8-1.1 3-0.6 0.7-0.8 0.6-0.1 0.1-1.9 1.1-0.6 0.3-0.5 0.1-1.2 0.2-0.5 0.2-0.1 0.6 0.1 0.7 0 0.7-0.3 0.7-1.2 0.8-1.5 0.6-0.3 0.2-1.7 0.6-0.1-0.2 0-1.3 0-0.3-0.3-0.5 0.6-1.4-0.3-0.9-2.1-2.3-0.5-1.1-0.1-0.8 0-2 0.5-1.9 0-0.8-0.8-0.2 0.3-0.4-0.5-0.5-0.4-0.7-0.1-0.6 0.4-0.3-0.2-0.5-1.2-1.1-0.3-0.3-0.6-0.8-1-1.1-0.3-0.3-1.3-0.7-0.5-0.1-0.5 0.3-1.4-2.1 0.6-2-0.3-0.7 0-2.2-0.2-0.8-0.4-0.2-0.5-0.3-0.1-0.5-0.4-0.4-0.8-0.1-0.9 0-0.6 0-0.5-0.5-0.4-0.7-0.6-1.3-0.2-0.6-0.2-1.6-0.2-0.6-0.4-0.4-1.9-0.8 0.1 0.8 0.3 0.7 0.8 1.3-0.9 0.5 0.4 3-0.4 0.8-0.3-0.9 0-3.1-0.2-1-0.6-1.7-0.7-6.1-0.3-1.1-0.2-0.8 0.3-2.3-0.1-0.9-0.3-1.1-0.3-0.4-0.4-0.1-0.5-0.1-0.3-0.1-0.2-0.2-0.1-0.4-0.3-0.5-4.6-4-0.4-0.1-0.1 0.2-0.3-0.4-0.5-0.9-0.8-1.2-0.3-0.8-0.2-0.4-0.3-0.1-1 0.2-0.4-0.1-0.2-0.6-0.2-0.4-1.9-1.9-0.1 0.1-0.2 0.1-0.4 0.1-0.2 0-0.4-0.4-1.3-1.9-0.5-0.3-2.5-2.4-1 0.4-1.6-1.1-1 0.1-0.4-1.2-0.7-0.7-1-0.7-0.8-0.8-1.8-2.3-0.3-0.8 0.1-0.6 0.1-0.5-0.1-0.3-0.5-0.2-0.4-0.1 0-0.4 0-0.4-0.1-0.3-1.8-1.6-0.7-1 0.4-0.8-0.2-0.3 0.8-1.9 0.4-0.8 0.7-0.8 0.8-0.5 2.7-1.5 0.8-0.8 0.5-0.7 0.8-1.8z m17.9 72.8l0 0.6-0.1 0.8-0.3 1 0.1 0.8 0.4 1.3-0.4 0.9 0 0.1-1-0.1-1.2-1.4-1-0.4-0.9 0-0.5-0.5 1.3-0.5 0.7-0.5-0.3-1-1.1-0.6-1.1 0.2-1.3 0.1-0.9 0.2-0.8 0.5-0.7 0.4-0.8-0.3-1-0.9-0.7-0.7-1-0.2-1.1-0.8-1.1-0.9-0.5-0.9-0.3-1.4-0.7-0.5-0.8 0-0.5-0.1 0.1-0.3 0-1-0.7-0.8-0.4-0.9 0.1-0.8 0.6 0.2 0.3 0.3 0.5 0.4 1.7 0.8 0.9 1.1 0.5 0.6 0.1 1.1 0 0.5 0.8 0.9 0.7 0.6 0.3 0.2 1.6-0.2 0.5 0.9 0.8 0 0.9-0.3 0.8 0 0.5 0.5 0 0.5 0.5 0 1.3-0.5-1.2-0.3-0.7-1 0.6-0.8 0.3-1.3 0.3-0.4 0.6-0.1 0.2 0.1 0.4 0.2 1.2 0.7 0 0.7 0.6 1-0.1 0.5 1.1 0.1 0.3 0.9 1.6 0.7z m-11.5-3.9l-0.6-0.5-0.7-0.8-1.1-1.4-0.9-1.3-0.3-0.5 0.5-0.4 1-0.1 0.8-0.2 0.5-0.5 0.4-0.8 0.5 0 0.1 0.1 0.2-0.9-0.3-1.1-0.6-0.3-0.6-0.3-0.5 0-1-0.2-0.5-0.1-0.2-0.2 0.4-0.3 0.4-0.2 0.1 0.4 1.4 0.1 1.1 0.5 0.7 0.8 0.1 0.2 0.2 1.2 0 0.9-0.2 1 0.2 0.8 1.4 0.3 0.4 1-1.8 0.1-0.5 0.6 0.2 0.8 1.1 0.4 0.6 0.3 0.8 0.4 0.3 1.1 0 0.5-1.3-0.8-1.6-0.4-0.7-0.2z" id="SA09" name="Jizan">
  </path>
  <path d="M57.1 199.6l3.7-0.1 1.4-0.3 1.5 0.1 3.5 0.9 6.2 0.6 1.1-0.2 0.7-0.4 1.5-1.5 1.5-0.7 1.8-0.6 8.9-1.7 5.7-0.4 3.4-0.6 2.8 0 8.5 2.1 1 0.5 1.9 1.3 1.4 1.3 11.1 14.5 0.3 0.3 0.3 0.2 1.8 0.6 1 0 0.7 0 4.8-1.8 10.3-2.3 3.4 0 2.5 0.4 6.6 2.2 3.6 0.7 7.4 0.5 1.2-0.3 1-0.5 0.7-0.9 0.5-1 1.8-4.5 0.5-1 0.6-1 0.9-0.8 2.9-1.8 2.7-2.6 0.9-0.3 1 0.2 0.8 0.6 0.4 1 0.2 1.1-0.4 7.9 0.1 4.4 0.3 2.8 0.5 2.1 0.7 1.7 0.5 1 0.7 1 0.7 0.9 2.9 2.4 2 1.2 4.7 1.6 2.7 0.6 8.6 0.9 1.6-0.1 1.4-0.5 1.1-0.5 1.4-0.4 1 0.2 1.5 0.9 0.9 0.3 0.8 0.1 1.9 0 1.2 2.9 0.7 0.8 0.9 0.6 1.1 0.1 1-0.1 1.1-0.5 4.5-2.3 1.3-0.3 1.5-0.3 1.1 0.1 0.7 0.2 0.6 0.3 1.7 1.4 0.8 1 0.7 0.5 1 0.4 13.9 3.3 2.4 0.9 1.6 0.9 0.9 1.1 0.2 0.2 1 1 1.3 0.9 2.6 1.3 5.1 4.2 2.5 2.5 0.6 1 0.4 1.1 4.7 19.1 0.5 0.9 0.7 0.9 0.6 0.7 1.7 1.1 5.2 2.8 1 0.9 0.9 1.1 0.2 1-0.1 1-0.4 1-0.7 1-0.8 0.9-5.3 4.6-2 2.7-1.3 2.6-2.5 7.8-0.8 1.6-0.7 1-0.7 0.5-1.4-2.2-0.8-0.6-1-0.6-0.9-0.1-18 2.7-4.3 0.1-2.1-0.3-1.7-0.6-5.2-4-5.4-2-1.6-0.8-1-0.9-0.7-1.9-0.5-1-1-0.8-0.8-0.1-0.5 0.5 0 0.9 0.2 0.9 0.1 1-0.2 0.7-1.1 0.5-1-0.1-1.1-0.3-3.2-1.5-1.4-0.5-1 0-1 0.1-0.6 0.3-3.8 3.1-1.2 0.8-1.3 0.3-0.9-0.3-0.4-0.7 0-0.9 0.1-1 0-1-0.3-0.9-0.7-0.8-2.7-1.7-0.7-0.8-0.3-0.8-0.1-0.8 0.1-0.4 0-0.2 0-0.2-0.1-0.6-0.4-0.7-0.7-0.5-0.9-0.4-1-0.1-4.3-0.2-1.9-0.3-1.2-0.7-1-0.8-2.4-3.7-0.9-1.7-0.8-2-1.2-4.4-0.4-0.8-0.6-0.9-1.1-0.8-0.8-0.3-0.8 0.1-8.1 4.4-0.9 0.3-1 0.2-1-0.1-1.8-0.3-1.3-0.5-3.6-2.3-2-0.9-1.3-0.2-1.2 0-0.9 0.3-11.1 5.3-5 1.2-0.9 0.5-0.8 0.7-0.2 0.8 0.2 0.8 0.7 0.5 0.9 0.1 2.8-0.5 0.8-0.1 0.6 0.1 0.7 0.3 0.8 0.5 0.6 0.7 0.4 0.6 0.4 0.9 0.6 2.9 0.1 1.3-0.1 2.7-0.9 6.5 0.1 2.1 0.2 1.1 0.3 1.1 0.4 1 0.6 1 0.7 0.9 0.9 0.9 1 0.7 1 0.4 5 1.5 0.9 0.5 0.8 0.9 0.4 1.1 0.1 1.2-0.3 1-0.3 0.8-2.6 4.3-0.8 2-0.2 1-0.1 1 0.1 1 0.3 1 2.5 5 0.6 2 0.5 2 0.2 0.8 0.4 0.6 0.6-0.2 1.6-1.3 0.9-0.3 1 0.1 7.7 4.5 0.7 0.5 0.2 0.3 0.2 0.1 0.6 2.7 0.4 1 0.5 0.9 0.8 1 5.6 4.7 0.8 0.9 0.6 0.9 0.7 1.4 1.3 3.6 1.5 5.8 0.4 1 0.1 0.1 0.3 0.1 0.7 0.2 2.7 0.2 0.9 0.1 0.6 0.4 0.6 0.5 0.3 0.9 0.1 0.9-1.6 10.9 0.6 15.7-0.2 0.7-0.4 0.9-0.9 1.2-1 0.8-1 0.5-1.1 0.2-2.1-0.1-1.9-0.4-1 0-0.9 0.1-1 0.6-0.9 1-1.2 1.5-1 1-1.1 0.7-1 0.4-0.9 0.3-1.7 0.2-3.5 0-0.9 0.2-0.9 0.4-0.7 0.8-0.5 0.8-0.3 0.9-0.5 2.8-0.1 0.3-2.7-4-2.7-3.7-1.2-1.7-0.1-1.3 0.2-0.4 0-0.4-0.1-0.5-0.1-0.3-0.3-0.2-0.6 0.6-0.4 0-0.8-0.4-0.5-0.8-0.8-1.7 1.1 0 1 0.2 1 0 1-0.4 0.6-0.8 0-2.4 1-2-0.1-1-0.9-2-0.2-1.2 0.2-2.8 0-1.1-0.3-1-0.3-0.9-0.5-0.9-0.9-1-0.5-0.5-0.4-0.3-0.4-0.4-0.4-0.9-0.4-0.3-0.9-0.7-0.8-1-0.7-1-0.6-1.1-0.1-0.5-0.1-1.1-0.1-0.4-0.2-0.4-0.7-0.7-0.2-0.5 0.7-0.5-0.6-1.1-1.9-2-0.3-0.6-0.7-2-0.3-0.4-0.5-0.4-0.3-0.2 0-0.3 0-0.6-0.1-0.3-0.4-0.5-0.6-1.4-0.3-0.5-0.6-0.4-1.3-0.6-0.5-0.3-1.7-2.7-1.1-1.4-0.9-0.1-0.1 0.6 0.3 0.5 0.1 0.5-0.5 0.3-0.5-0.2-1.3-0.9-0.7-0.2-0.4-0.3-0.9-1.2-0.3-0.5-0.1-0.3 0.1-1-0.1-0.3-0.5-0.1-0.3-0.3-0.5-1.2-0.1-1.1 0.4-1.1 0.9-1 0.6-1 0.2-1.3-0.2-1.4-0.4-1.1-1-1.1-1.4-0.7-1.5-0.4-1.4-0.1-1.6-0.6-1-1.3-2.8-6.6-1-1.6-1.8-2.6-3.2-7.9-3.4-6.1-2.1-2.7-2.5-2.2-1.1-1.3-0.7-2.1-1.3-2.3-0.9-3-0.7 0.2-0.6-0.5-1.1-1.7-2.8-2.5-3.4-4.5-1.2-2.4-0.2-0.4 0-0.5 0.1-0.4 0.4-0.7 0.1-0.4-0.2-0.6-1.1-1.5-3.6-4.4-2-1.4-0.6-0.5-1-1.2-1.2-1.9-1.3-1.3-1.6-3.1-0.5-1.2-0.1-1-0.1-1.8-0.2-0.9-0.4-0.6-1.4-1.6-0.8-1.3-1.1-2.9-0.9-1.3-0.4-0.3-0.9-0.3-0.3-0.2-0.2-0.4-0.2-0.6-0.5-1-0.2-1.3-0.4-0.7-2.2-2.6-0.7-1.2-0.4-0.4-0.7-0.4-2.1-1.6 0 0.3-0.3 0-0.4-0.6 0.5-0.5 1-0.5 0.7-0.4 0.5 0.2-0.1-0.3-0.4-0.7-0.2-0.1-1.2-0.3-0.4-0.2-0.3 0 0 0.4-0.2 0-0.2-0.3-0.3-0.4-0.3-0.2-0.3-0.1-0.8 0-0.3 0-0.6-0.6-2-1.4-0.4 0.3-0.5 0-0.5 0 0.2 0.2 0.1 0.3 0.2 0.2-0.4-0.3-0.5-0.3-0.5-0.2-0.5 0.3-0.4 0.3-1.4 0.4-0.3 0.2-0.3 0.2-0.1 0.4-0.3 0 0-0.4-0.3 0-0.6 0.2-0.9-0.2-0.8 0-0.6 0.7-0.2-0.2-0.2-0.1 0-0.4 0.4 0 0-0.3-0.2-0.4 0.2-0.2 0.4-0.3 0.4-0.1-0.4-0.2-0.4 0-0.5 0-0.4 0.2 0 0.3 0.3 0 0 0.4-0.5 0.1-0.3 0.4-0.4 0.8-0.2-0.2-0.1 0-0.1-0.1-0.2 0 0.2-0.3 0.2-0.3 0.4-0.2 0.4-0.2 0-0.2 0-0.2 0-0.3-0.6 0-0.5 0.1-0.3 0.3-0.1 0.6-0.2-0.2-0.1 0-0.1 0.1-0.2 0.1 0-0.2 0-0.3 0-0.2-0.2 0 0 0.4-0.4 0-0.2-0.4-0.2-0.3-0.2 0.1-0.3 0.2-0.4-0.3-0.1-0.1-0.2-0.4-0.2-0.2-0.3-0.6-0.1 0.1-0.1 0.1-0.2 0.2-0.2 0.2-0.5-0.4-0.2 0.2 0 0.5-0.2 0.4-0.3 0.2-0.6 0.3-0.2 0.2 0 0.3 0.9 0.7 0 0.3-0.3 0.1-0.1 0-0.1 0.1-0.1 0.1-0.3-0.3-0.2 0.9-0.1 0.6-0.3 0.4-0.9 0.1 0.1-0.2 0.1 0 0.1-0.1-0.3-0.4-0.2-0.7-0.1-0.6 0-1.2-0.3-0.3-1.1 0.4 0.2-0.6-0.2-0.3 0.6-0.9 0.4-0.4 0.4-0.2 0-0.2 0.3-0.1 0.3-0.4 0.3-0.1-0.3-0.4 0.1-0.2 0.2-0.2 0.2-0.2 0.4 0 0 0.2-0.1 0-0.1 0-0.1 0.1 0.4 0.2 0.4 0.1 0.2-0.1 0.2-0.5-0.3 0 0-0.4-0.3-0.3 0.1-0.3 0.3-0.3 0.5-0.1 0-0.3-0.2-0.5 0.4-2.2 0.2 0.1 0.3 0.1 0.2 0.1-0.1-0.1 0.1-0.5-0.3 0.1-0.1 0.1-0.3-0.2 0.9-0.9 0.9-1.6 0.7-1.8 0.4-2.3 0.9-1.3 0.3-1.4 0.3-0.9 1.2-2.1-0.3-2.2-0.1-2.3-0.7-2.3 0.8-3 0.6-1.6 0.7-1.3 0-0.3-0.3 0 0.7-1.2 0.1-0.6-0.2-0.6 0-0.3 0.5-1.5-0.1-0.4z m94.3 168.1l0.4 0.4 0.2 0.2-0.1 0-0.2-0.1-0.3 0 0 0.2 0.2 0.3-0.4-0.1-0.8-0.5-0.3-0.5 0.1-0.4-0.4 0-0.5 0.2-0.3-0.4-0.2-0.7-0.4 0-0.5 0.3-0.1-0.3 0.3-0.9 0.4-0.5 0.6 0 0.6 0.1 0.5 0.3 0.4 1 0.3-0.1 0.1-0.3 0.1 0.2 0.3 1.6z m-3.7 0.1l0.7-0.1 0.1 0.2-0.7 0.5-0.4 0.2-0.4 0.6-0.5 0.8-0.6 0.5-0.9-0.6-0.8-0.9-0.8-0.6-1.8-1.9-0.1-0.1-0.1-0.3 0-0.2 0.1-0.1 0-0.2-0.5-0.5-0.5-0.7 0.1-0.4 0.4 0.1 0.4 0.4 0.8 1 0.4 0.3 0.8 0.4 1.5 0.7 0.7 0.2 0.6 0 0.4 0.3 0.2 0.3-0.9 0-0.2 0.7 0.4 0.5 0.5-0.1 0.5-0.6 0.6-0.4z m-4-5.5l-0.4-0.2-0.6-0.5 0.1-0.7 0.6-0.4 0.6 0.1 0.4 0.5 0 0.6-0.4 0.4-0.3 0.2z m-2.5 1.7l-0.5-0.4-0.2 0-0.2-0.1-0.2-0.3 0-0.5-0.4-0.1-0.6-0.1-0.1-0.2 0.2 0.1-0.1-0.3-0.4-0.5-0.6-0.4-0.8 0-0.3 0.3-0.2 0.1-0.4 0.1 0.1-0.4 0.4-0.7 0.7-0.1 0.8 0.2 2.1 1.5 0.2 0.3 0.3 0.6 0.6 0.4 0.7 0.2 1 0.6 1.5 1.3 0.4 0.4-0.1 0.2-0.2 0.2 0.1 0.2-0.2-0.2-0.7-0.5-0.6-0.3-0.4-0.2-0.2-0.3-0.2-0.5-0.4-0.2-0.3 0.1-0.4-0.1-0.4-0.4z m4.7-2.5l0-1.4-0.1-0.3 0-0.5 0.3-0.4 0.4-0.1 0.4 0.1 0.2 0.5 0 0.4-0.1 0.4-0.2 0-0.3-0.2 0 0.1 0.1 0.3 0 0.2-0.1 0 0.3 0.6 0.3 1.3-0.2 0.4-0.5-0.7-0.3-0.2-0.2-0.5z m-9.4-1.1l0 0.3-0.3 0.5-0.3 0.3-0.3-0.2-0.6-0.4-3.4-1.8-1-0.2-0.3 0.7-0.4-0.2-0.8-0.8-0.6-0.7-0.2-1 0.3-0.8 1.1-1.1 0.5-0.6 0.3-0.2 0.1 0.3-0.3 0.5-0.7 1.1 0.1 0.4 0.3 0.4 0.3 0.3 0.2 0 0.2 0.1 0.3 0.3 0.3 0.2 0.4 0.1 1.1 1.2 0.5 0.4 0.6 0 0.4-0.1 0.1 0.2 0 0.3 0.2 0.4 0.4 0.2 0.4-0.1-0.1-0.1 0-0.2 0.2-0.2 0.4 0.1 0.6 0.4z m-6-7.6l0-0.4-0.1-1 0.1-2 0.7-1.6 1-1.1 0.3-0.1-0.5 0.6-0.5 0.7-0.4 0.8-0.1 1 0.4 0.8 0.8 0.8 0.3 0.1 0.4 0.1-0.1 0.3-0.3 0.6-0.2 0.7 0.1 0.2 0 0.3 0.4 0.3 0.5-0.2 0.1 0.1-0.2 0.4-0.4 0.3-0.6-0.1-0.9-0.7-0.4-0.4-0.4-0.5z" id="SA07" name="Tabuk">
  </path>
  <path d="M166.7 409.6l0.1-0.3 0.5-2.8 0.3-0.9 0.5-0.8 0.7-0.8 0.9-0.4 0.9-0.2 3.5 0 1.7-0.2 0.9-0.3 1-0.4 1.1-0.7 1-1 1.2-1.5 0.9-1 1-0.6 0.9-0.1 1 0 1.9 0.4 2.1 0.1 1.1-0.2 1-0.5 1-0.8 0.9-1.2 0.4-0.9 0.2-0.7-0.6-15.7 1.6-10.9-0.1-0.9-0.3-0.9-0.6-0.5-0.6-0.4-0.9-0.1-2.7-0.2-0.7-0.2-0.3-0.1-0.1-0.1-0.4-1-1.5-5.8-1.3-3.6-0.7-1.4-0.6-0.9-0.8-0.9-5.6-4.7-0.8-1-0.5-0.9-0.4-1-0.6-2.7-0.2-0.1-0.2-0.3-0.7-0.5-7.7-4.5-1-0.1-0.9 0.3-1.6 1.3-0.6 0.2-0.4-0.6-0.2-0.8-0.5-2-0.6-2-2.5-5-0.3-1-0.1-1 0.1-1 0.2-1 0.8-2 2.6-4.3 0.3-0.8 0.3-1-0.1-1.2-0.4-1.1-0.8-0.9-0.9-0.5-5-1.5-1-0.4-1-0.7-0.9-0.9-0.7-0.9-0.6-1-0.4-1-0.3-1.1-0.2-1.1-0.1-2.1 0.9-6.5 0.1-2.7-0.1-1.3-0.6-2.9-0.4-0.9-0.4-0.6-0.6-0.7-0.8-0.5-0.7-0.3-0.6-0.1-0.8 0.1-2.8 0.5-0.9-0.1-0.7-0.5-0.2-0.8 0.2-0.8 0.8-0.7 0.9-0.5 5-1.2 11.1-5.3 0.9-0.3 1.2 0 1.3 0.2 2 0.9 3.6 2.3 1.3 0.5 1.8 0.3 1 0.1 1-0.2 0.9-0.3 8.1-4.4 0.8-0.1 0.8 0.3 1.1 0.8 0.6 0.9 0.4 0.8 1.2 4.4 0.8 2 0.9 1.7 2.4 3.7 1 0.8 1.2 0.7 1.9 0.3 4.3 0.2 1 0.1 0.9 0.4 0.7 0.5 0.4 0.7 0.1 0.6 0 0.2 0 0.2-0.1 0.4 0.1 0.8 0.3 0.8 0.7 0.8 2.7 1.7 0.7 0.8 0.3 0.9 0 1-0.1 1 0 0.9 0.4 0.7 0.9 0.3 1.3-0.3 1.2-0.8 3.8-3.1 0.6-0.3 1-0.1 1 0 1.4 0.5 3.2 1.5 1.1 0.3 1 0.1 1.1-0.5 0.2-0.7-0.1-1-0.2-0.9 0-0.9 0.5-0.5 0.8 0.1 1 0.8 0.5 1 0.7 1.9 1 0.9 1.6 0.8 5.4 2 5.2 4 1.7 0.6 2.1 0.3 4.3-0.1 18-2.7 0.9 0.1 1 0.6 0.8 0.6 1.4 2.2 0.8 2 0.2 1 0.1 1.2 0 1.1-0.4 1.7-0.2 0.6-1.5 2.9-0.6 1.4 0.1 1.2 0.4 1 0.9 0.8 0.9 0.3 1 0.1 2-0.4 1.1 0 0.9 0.8 0.4 1 0.1 1-2.4 16.2 0 1.4 0.2 1.2 1.3 5.3 0.8 4.8-0.4 12.7 0.2 1.3 0.5 1.1 0.6 0.9 0.7 0.7 0.5 0.4 0.8 0.4 0.9 0.3 1 0.1 1 0 1-0.2 10.7-3.8 2.2-0.3 5.1 0.1 1.9-0.2 0.9-0.2 0.8-0.2 0.6-0.3 0.8-0.4 0.8-0.6 0.9-0.8 3.1-4 1-0.9 1.2-0.7 1.5-0.5 1.2-0.3 7.4-0.3 12.1 1.9 3.7 1 1.1 0.4 5.7 1.4 1.9 0.6 0.8 0.6 0.7 0.9 0.3 1.2 0.2 1.1-0.9 12.4 0.2 1.1 0.4 1.1 0.8 1.3 1 0.8 1 0.5 5.6 1.5 0.7 0.3 0.4 0.4 0.1 0.1 0.8 1.3 0.7 1.8 2.3 9 0.8 1.9 0.6 0.9 0.7 0.7 3.7 2.8 0.1 1.6-0.6 2.1-0.5 1.4-0.1 0.2-2 2.6-0.7 1.1-0.3 0.8 0 0.7 0.1 0.3 0.6 1.6 0 1.1-0.1 1.8-0.8 3.6-0.5 8.1 0.1 4.3-5.6-0.8-2.8 0.1-1 0.5-0.8 0.6-0.6 0.9-0.2 0.9 0.1 1 1.1 3.1 0.2 1 0.1 1-0.1 2.1-0.3 1.1-0.6 1.3-1.1 1.7-1.1 1.1-1 0.8-7.7 3.4-5.6 3.1-1.9 1.5-1.3 1.4-0.5 1.1 0.3 1 0.8 0.8 0.9 0.7 4.7 2.6 0.7 0.8 0.3 1-0.5 1.3-0.8 0.9-1 0.6-5 1.8-1.2 0.8-1.3 1.1-6 6.1-12.3 9.7-1.7 2-3.1 4.8-1.1 1.2-1 0.4-1.1 0.1-6.6-2.1-1.1-0.1-1.3 0.3-1.8 1.1-4.4 3.7-0.9 0.6-0.2 0-1.1 0.3-0.9 0.1-1 0-2.8-0.4-0.2 0-0.9-0.6-0.5-0.8-0.2-0.9 0.2-0.9 0.4-1.9 0.3-2-0.1-1-0.2-1-0.4-1-0.7-0.9-0.8-0.7-0.8-0.6-1.3-0.7-2.9-0.9-0.8-0.4-0.6-0.7-0.1-0.9 0.2-1 2.4-5.6 0.2-0.9 0.3-2.2 0-1.4-0.2-0.9-0.3-0.9-0.5-0.8-0.8-0.7-0.9-0.2-0.9-0.1-4.1 0.5-9.2 2.9-3.3 0.6-1-0.4-0.4-0.8-0.2-1.9-0.2-0.9-0.4-0.8-0.9-0.5-1.2 0-4.6 0.8-1.7 0.1-1.5-0.2-1-0.7-1-0.8-3.3-4-3.5-3.1-0.6-0.6-1.8-2.9-0.9-0.8-1.1-0.4-1.3 0.1-3 0.7-5.4 0.4-1.4 0.2-0.1-1-0.1-1.3-0.3-1-0.1-0.9-0.7-0.7-0.3-0.5-0.2-0.8 0-0.8-1 0.6-0.4-0.3-0.4 0 0.1 0.8 0.4 0.4 1.1 0.4 0 0.3-1.5-0.1-0.9-0.9-0.1-2.3-1.9-2.5-1-3.2-0.3-1.1-0.2-1.2-0.3-1.1-0.7-0.8-0.4-0.2-0.5-0.1-0.7-0.3-0.4-0.5-0.2-0.6-0.3-0.9-0.6-0.6-0.7-0.3-0.7-0.2-0.6-0.3-0.4-0.3-0.4-0.8-0.7-0.8-0.4-0.3-0.7-0.5-0.8-0.3-0.8-0.1-1-0.7-0.5-0.4-0.9-0.8-0.8-1.1-0.9-0.6-0.7-0.7-1.3-1.3-0.4-0.2-0.3 0-0.4 0.1-0.4 0.3-0.9-0.7-0.7-0.6-1.8-1.1-1.3-1 0.2-0.6 0.8-0.5 1-0.2-0.4-0.4-0.6 0.2-0.8 0.4-0.4-0.6 0.5-0.8 0.2-0.7-0.4-0.2-0.3 0.3-0.6 0.1-0.2 0.5 0.2 0.2 0.2 0.5 0 0.6 0.1 0.4-0.3 0.3-0.9-0.4-1.3 0.4-2-1.5-0.6-0.6-1.7-1.3-0.4-1-0.5-0.4-0.8-0.3-0.7-0.5-0.7-0.6-0.8-0.5-1 0-0.5-0.1-0.7 0.5-0.1 0.7 0.2 0.9-1.8 0.1-0.5-0.7-1.2-0.6-1 0.3-1-1-0.6-1.1-0.9-1.3-1.6-1.3-0.5-1.6 0.5-1 0.3 0.1 0.8 0.6 0.4-0.8-0.3-0.8-3.2-4.7z" id="SA03" name="Al Madinah">
  </path>
  <path d="M353 630.7l1.9-0.8 1.8-0.1 0.9 0.1 0.6 0.3 0.5 0.4 0.7 0.8 0.5 0.9 0.3 1 0 0.9-0.1 0.9-1.3 6 0 1.1 0.1 1.2 0.2 0.9 1.8 3.1 0.3 1.1 0 1.1-1.5 4.7-0.4 0.9-0.6 0.8-0.8 0.6-0.8 0.3-0.6 0.2-0.6 0-4.8-0.5-1 0-0.9 0.2-1 0.3-1.9 1.1-2.2 1.7-0.8 0.4-0.8-0.1-0.9-0.4-0.7-0.6-0.7-0.3-0.4 0.4-0.1 0.9-0.3 10.6 0.2 1.9 0.3 0.9 0.3 1 0.5 0.9 0.8 0.7 0.8 0.5 0.9 0.2 4.7 0 1.8 0.1 1.9 0.4 0.9 0.3 0.8 0.5 0.7 0.7 0.5 0.9 3 9 0.3 1.4 0 1.2-0.2 1.2-1.5 5.8-0.8 1.8-0.5 0.7-0.8 0.8-2.7 1.5-0.8 0.5-0.7 0.8-0.4 0.8-0.8 1.9-0.5-0.7-0.3-0.5-0.1-0.6-0.2-0.2-0.4-0.2-0.3-0.2 0.2-0.7-0.8-0.1-0.9-0.3 0.2-0.2 0-0.1 0.1-0.1 0.3-0.2-0.3-0.5-0.4-0.3-0.5 0-0.6 0.2 0.3-0.4 0.2-0.5 0.1-0.4-0.3-0.3 0.3-0.6-0.3-0.3-0.5-0.1-0.7 0.1 0.1-0.6-0.1-0.9-0.3-0.9-0.4-0.6-0.2-0.5-0.3-1.7-0.1-0.4-0.1-0.4-0.1-2.4-0.1-0.3-0.1-0.2-0.2-0.1-0.3 0-0.2-0.2-0.1-0.4 0-0.4-0.1-0.3-1.6-1.1-0.2-0.3-0.1-0.5-0.2-0.5-0.3-0.5-0.7-0.3-0.2-0.2-0.2-0.2-0.1-0.1-0.3 0.1-0.4 0.4-0.2 0.1-0.5-0.2-0.4-0.3-0.5-0.3-0.3-0.5-1.2-2.5-0.5-0.7-0.5-0.6-0.3-0.6 0-0.6 0.1-0.9 1-3 0.2-0.9 0.1-0.3 0.2-0.2 0.1-0.3-0.4-0.6-0.2-0.1-1-0.5-1.8-0.5-0.4-1.4 0-0.3-0.9-1.1-0.2-0.1 0-0.5 0.1-0.5 0.2-0.9 0.2-0.5 0.2-0.4 0.2-0.3 0.1-0.8 0.2-1 0.6-1.1-0.4-0.7-0.8-0.5-0.9-0.4-1.8-0.5-0.8-0.6-0.4-1.2-0.7-1-0.1-0.4 0-0.5 0.3-1.1 0-0.4-0.3-0.9 0-0.4-0.2-0.4-0.8-0.5-0.2-0.4-0.2-0.9-0.4-0.5-0.7-0.4-1.2-0.9 0.1-0.2 0.1-0.5-0.1-0.5-0.5-0.7-0.1-0.4 0-0.5-0.3-0.7 0.1-0.5 0.3-0.5 0.4-0.3 0.2-0.4-0.3-0.3 0.1-0.5-0.1-0.5-0.3-0.4-0.1-0.6-3.6-1.3-1.1-0.5-2.2-2.3-1-0.6 0-0.3 0.5 0.1 1 0.6 0.2-1.9-0.1-2.3-0.3-1-2-2.9-0.8-0.5-2.2-0.3-0.9 0-0.4 0.5 0.5 1.1-0.6-0.5-0.6-1-0.3-0.9-0.1-0.4-0.6-0.4-1.8-2.6-1.3-0.8-0.3-0.3 0.1-0.3 0.5-1.2-0.3-0.9-0.5-0.5-1.3-0.5-1.6-1-0.4-0.2-0.4-0.6-0.4-0.1-0.4-0.3-1-1.5-0.4-0.1-1-0.3-0.4-0.1-0.8-0.2-0.9-0.5-2-1.6-1.5-1.7 0.3-0.7-0.7-0.5-1.2-0.3-1.3-0.2-0.3-0.3-0.4-0.5-0.6-0.7-0.4-0.4 0-0.2-0.4-0.3-1.4-1.3-0.7-0.3-1 0-1 0.2-0.9 0.3-0.4 0.4-1-0.4-1.8-1.1-1-0.4 0 0.6 0.3 0.3 0.4 0.2 0.3 0.4 0.2 0.1 0.4 0.2 0.3 0.3-0.3 0.2-0.7-0.2-4.3-2.6-0.6-0.6-0.5-0.2-0.9-0.3-0.8-0.4-0.6-1.3-0.8-0.8-2.3-1.8-1.2-1.2-2.5-4.1-0.9-0.7 0-0.4 0.4 0 0.4 0 0.2-0.2 0.2-0.4-0.7-0.1-0.5-0.4-1-0.9-0.3-0.5-0.3-1.4-0.2-0.5-1.4-1.6-0.1-0.8 0.7-1.1-1.5-0.5-0.6-0.1 0.1 0.4 0.2 0.2 0.2 0.2 0.3 0.2-0.8-0.3-1-0.6-0.5-0.7 0.3-0.7-0.4-0.2-0.2-0.3 0-0.3 0.3-0.4 0.2 0.3 0.3 0.3 0.4 0.2 0.6 0.1-0.2-0.5-0.1-0.3 0-0.3-0.1-0.4-0.2 0-0.3 0.1-0.3-0.2-0.6-0.8-0.2 0-0.1 0.8-0.9-0.6-1.3-0.9-0.8-1.2 0-1.1 0.2 0.3 0.3 0.3 0.3 0.1 0.1-0.3-0.1-0.6-0.3-0.2-0.3-0.1-0.3-0.2-0.4-0.2-0.5 0-0.4 0.2-0.5 0.1 0-0.2-1.2-1.8-0.3-0.7-0.1-0.8 0-1.1-0.1-0.4-0.6-0.4-0.2-0.5 0-0.5-0.2-0.2-0.3-0.1-1.8-1.3-0.5-0.5-0.2-1.3-0.4-0.9-0.1-0.5 0.1-0.3 0.4-0.6 0.1-0.3-0.3-0.6-1.7-2.5-0.5-0.4-1.4-2.2 3.4-3 0.5-1.1 0.1-1.5-0.4-1.3-0.6-0.7 0-0.3 0.4-0.4 0-0.6-0.7-1.5-0.6 0.9-0.4 0.2-0.4-0.6-0.4-0.9 0.3-0.3-0.7-1-0.2-1.4 0.1-1.4-0.1-1.3-0.4-1.2 0-0.7 0.9-0.3 0.2-0.3 0.2-0.6 0-0.8-0.3-0.5-0.3 0.9-0.3 0.5-0.3 0.2-0.6 0-0.1-0.2 0-0.4-0.2-0.4-0.3-0.2-0.1-0.2-0.2-0.2-0.2-0.3-0.2-0.5 0-0.7-0.2-0.4-0.5-0.3-0.1-0.2-0.2-0.4 0-0.1-1.5-1.9-1.3-2.7-0.7-4 0-0.9 1.2-0.4 1.1 1.5 0.9 0 0.2-1 0-0.9 0.1-0.5 0.1-0.2 0.6-0.4 0.1-0.2 0.1-0.9 0.4-1.9 0.1-0.9-0.2 0-0.7 1.6-0.2-0.7 0.1-0.5 0.3-0.5 0.1-0.7 0-1.9 0.4-1.3 1.4-1.6 0.4-2 0.3-0.5 0.4-0.3 0.4-0.5 0.6-1.3 0.7-0.8 0.2-0.2 0-0.6-0.3-0.5-0.4-0.3-0.5 0.1-0.3 0.5-0.3 1.3-0.3 0.5-1 0.2-0.1-1.4 0.6-1.9-0.4-2.6 0.3-2.6-0.3-1.3-0.3-0.6-1.2-1.6-1.1-2.6-0.9-1.4-0.3-0.8 0.1-0.5 1.2-1.1-0.1-0.4-2.1-2.3-0.8-0.7-0.4 0.2 0.1 0.3 0.8 0.8 0.3 0.4 0.1 0.5 0.1 0.5 0.1 0.5 0.3 0.4-0.3 0.4-0.6-1.4-1.2-1.8-1.2-1.3-2.2-4.1 0-0.6 1.3 0.7 1.4 3.1 0.7 0.2 0.5 0.3 0.4-0.1 0.3-0.3 0.3-0.5-0.5-0.6-0.7-1.4-0.4-0.3-0.3-0.1-0.4-0.3-0.3-0.5-0.1-0.5-0.4-0.8-0.8-0.3-1-0.3-0.7-0.4-0.9 0.2-0.6-0.7-0.9-2 0.5-0.5 0.3-0.6 0.3-0.7 0.1-0.7-0.1-1.3-0.2-0.7-0.1-0.6-0.5-0.2-0.4 0.7-0.5-1.1-0.8-1-0.8-1.5-0.7-1-0.4-1-0.5-0.7-0.1-0.6-0.4-0.9 0-0.6-0.3-1.4-0.6-1.1-0.5-1.4-0.2-0.9 1.4-0.2 5.4-0.4 3-0.7 1.3-0.1 1.1 0.4 0.9 0.8 1.8 2.9 0.6 0.6 3.5 3.1 3.3 4 1 0.8 1 0.7 1.5 0.2 1.7-0.1 4.6-0.8 1.2 0 0.9 0.5 0.4 0.8 0.2 0.9 0.2 1.9 0.4 0.8 1 0.4 3.3-0.6 9.2-2.9 4.1-0.5 0.9 0.1 0.9 0.2 0.8 0.7 0.5 0.8 0.3 0.9 0.2 0.9 0 1.4-0.3 2.2-0.2 0.9-2.4 5.6-0.2 1 0.1 0.9 0.6 0.7 0.8 0.4 2.9 0.9 1.3 0.7 0.8 0.6 0.8 0.7 0.7 0.9 0.4 1 0.2 1 0.1 1-0.3 2-0.4 1.9-0.2 0.9 0.2 0.9 0.5 0.8 0.9 0.6 0.2 0 2.8 0.4 1 0 0.9-0.1 1.1-0.3 0.2 0 0.9-0.6 4.4-3.7 1.8-1.1 1.3-0.3 1.1 0.1 6.6 2.1 1.1-0.1 1-0.4 1.1-1.2 3.1-4.8 1.7-2 12.3-9.7 6-6.1 1.3-1.1 1.2-0.8 5-1.8 1-0.6 0.8-0.9 0.5-1.3-0.3-1-0.7-0.8-4.7-2.6-0.9-0.7-0.8-0.8-0.3-1 0.5-1.1 1.3-1.4 1.9-1.5 5.6-3.1 7.7-3.4 1-0.8 1.1-1.1 1.1-1.7 0.6-1.3 0.3-1.1 0.1-2.1-0.1-1-0.2-1-1.1-3.1-0.1-1 0.2-0.9 0.6-0.9 0.8-0.6 1-0.5 2.8-0.1 5.6 0.8-0.4 4.5 0.1 3 0.3 0.9 0.5 0.7 0.5 0.4 1.6 1 0.9 0.7 0.9 0.9 0.8 1.5 2.3 7.4 1.1 2.5 0.4 1.2 1.3 6.7 5.5 13.3 0.5 0.6 0.6 0.7 0.8 0.7 0.9 0.6 1 0.4 0.9 0.3 1.6 0.3 6.7-0.1 9.4 0.8 1.9 0.4 1.1 0.4 1 0.5 1.2 1 0.6 1 0.2 1-0.2 0.8-0.6 2-0.3 4.8 0.1 1.1 0.3 1.2 0.9 1.8 0.9 0.8 1 0.6 1.9 0.7 1 0.1 1-0.1 5.1-1.4 0.9-0.2 1 0.1 5.1 1 0.9 0.2 0.8 0.5 0.7 0.7 0 0.2-1.2 6.9 0 1.9 2.2 15.6 0 0.9-0.2 1-0.3 0.9-0.4 1-0.5 0.9-1.3 1.7-0.5 0.9-0.4 0.9-0.1 0.9 0.6 7.8-0.3 2-1.8 6.7 0 0.9 0 1 0.3 1 0.5 0.9 11.3 16.9-4.6 1.8-6.8 4-1.5 0.5-1.3 0.1-2.7-1-1.2-0.2-1.2-0.1-1.8 0.3-1.4 0.4-2.7 1.1-0.8 0.3-0.7 0.1-2.7 0.1-1.5 0.3-1.2 0.5-1.1 0.7-1.7 1.7-1.2 1-8.5 4.7-11 9.9-1.4 1.1-2.4 1.3-1.4 0.4-1.2 0.1-1-0.3-0.9-0.5-0.8-0.7-0.7-1-4.4-9.1-0.8-1.3-2.5-2.1-0.8-0.3-1.1-0.2-0.9 0.3-4 2.3-1 0.4-0.9 0.3-4.6 0-1.4 0.2-1.2 0.3-2.1 0.9-1.3 0.4-0.9-0.1-0.5-0.2-0.7-0.5-0.6-0.8-0.5-0.9-1.3-3.8-0.7-1-0.9-0.8-1.3-0.6-1.1-0.1-1 0.1-1 0.4-0.8 0.6-0.7 0.8-0.4 0.7-0.3 0.5-0.2 0.8-0.1 0.9 0.1 1 0.4 1.9 0.7 2.7 0.1 1.4 0 0.5-0.3 1.2-3 5.5-1.2 3-0.6 0.9-1 0.9-1 0.5-1 0.3-4.2 0.6-1.4 0.4-1.1 0.6-0.9 0.7-3.3 3.4-0.6 0.9-0.1 0.9 0.2 0.8 0.7 0.8 0.9 0.4 3.2 1 0.2 0.1 0.4 0.3 0.5 0.8 0.4 0.9 0.3 1 0 1-0.5 4.7 0.1 0.9 0.8 3 0.1 0.9-0.3 3.8 0.1 0.9 0.2 1 0.5 0.9 0.6 0.7 0.5 0.3 3.3 1.8 1.1 1 2.7 3.6 0.9 0.8 1 0.5 1.2 0.2 1 0 1-0.1 0.9-0.3 0.9-0.5 0.8-0.6 0.5-0.9 0.3-0.9 1.1-4.9 2.7-7.3 1.2-2 0.5-0.6 0.4-0.4 0.8-0.4 0.9-0.1 4 0 1.5-0.2 1.2-0.6z" id="SA02" name="Makkah">
  </path>
  <path d="M495 265.8l0.5 0.3 3.7 2.7 1.8 1.7 0.7 1 0.6 1.2 1.2 4.2 0.5 1.3 1.1 1.3 0.9 0.9 12.3 7.1 2 0.6 3.1 0.3 1 0.2 0.9 0.5 0.9 0.8 2.7 3.3 4.1 3.9 1.8 1.3 1 0.4 1.8 0.4 7.2 0.2 1.9 0.4 1.9 0.7 2.7 1.5 10.6 7.7 1 0.5 1.1 0.3 1 0.2 1 0 6.4-1.2 1.1 0.1 0.9 0.3 1 0.6 7.1 7 1.2 1.8 0.8 0.9 0.9 0.6 13.8 5.5 0.5 0.4 0.6 0.6 0.6 0.9 0.4 0.9 0.3 0.9 0.2 1.5 1 64.1 0.4 2.2 0.3 0.7 0.6 0.9 0.7 0.9 15.3 11.1 10.9 11 1.8 2.2 1.8 3 1.8 4.2 1 3.4 0.7 5.7-0.3 10.5-12.3 100.7-11.6 90.8-5.6 1.6-101.1 10.9-11.1-0.7-4.1-1-2.3-0.9-3.1-1.5-12-7.6-0.7-0.5-17-15.7-4.2-7-2.4-2.9-0.7-1.1-0.3-1.5 0-1.1 1.7-7.9 0.8-1.7 2.5-4.1 0.4-0.8 0.3-0.9 0-0.2 0.1-0.9-0.1-0.8-0.3-1-0.6-1.1-3.5-4-2.6-3.4-1.4-2.2-2.3-2.8-6.3-5.7-11.3-16.9-0.5-0.9-0.3-1 0-1 0-0.9 1.8-6.7 0.3-2-0.6-7.8 0.1-0.9 0.4-0.9 0.5-0.9 1.3-1.7 0.5-0.9 0.4-1 0.3-0.9 0.2-1 0-0.9-2.2-15.6 0-1.9 1.2-6.9 0-0.2-0.7-0.7-0.8-0.5-0.9-0.2-5.1-1-1-0.1-0.9 0.2-5.1 1.4-1 0.1-1-0.1-1.9-0.7-1-0.6-0.9-0.8-0.9-1.8-0.3-1.2-0.1-1.1 0.3-4.8 0.6-2 0.2-0.8-0.2-1-0.6-1-1.2-1-1-0.5-1.1-0.4-1.9-0.4-9.4-0.8-6.7 0.1-1.6-0.3-0.9-0.3-1-0.4-0.9-0.6-0.8-0.7-0.6-0.7-0.5-0.6-5.5-13.3-1.3-6.7-0.4-1.2-1.1-2.5-2.3-7.4-0.8-1.5-0.9-0.9-0.9-0.7-1.6-1-0.5-0.4-0.5-0.7-0.3-0.9-0.1-3 0.4-4.5-0.1-4.3 0.5-8.1 0.8-3.6 0.1-1.8 0-1.1-0.6-1.6-0.1-0.3 0-0.7 0.3-0.8 0.7-1.1 2-2.6 0.1-0.2 0.5-1.4 0.6-2.1-0.1-1.6 0.9-1.8 2.8-4.4 0.6-0.6 1.2-0.9 1-0.4 1-0.2 0.9 0.2 4.6 2.3 1.9 0.7 3.1 0.8 7.8 0.8 2.1 0 6.2-0.9 2 0.1 3.4 0.9 0.8 0 0.9-0.2 1-0.5 1.1-0.9 0.8-1.2 0.7-1.7 0.1-1.3-0.3-1.1-1.2-2-0.4-0.9-0.2-1 0.2-1.2 0.6-1.3 4.2-5.5 4.1-4.2 1.1-0.7 1-0.5 14.4-3.5 1.7-0.8 1.1-0.7 2.3-2.2 3.1-2 0.9-1 0.8-1.3 1.6-3.2 1.2-1.6 0.7-0.7 0.5-0.5 0.7-0.5 0.9-0.4 0.9-0.3 1-0.2 2 0 9.2 1.2 10.3-0.7 3.9 0.3 0.9-0.1 0.8-0.3 0.5-0.7 0.3-0.9 0.2-1 0.1-1.4 0-1.7-0.4-2.8-0.5-1.7-0.6-1.4-1.2-2.2-0.3-1.1 0.2-1.4 0.5-2.2-0.2-1.5-0.1-0.2-3.3-4.5-3.8-6.4-1.1-1.3-3.4-3.4-0.7-1-0.5-0.9-0.2-1 0-1 0.9-6.3 0-2.1-0.3-2.2 0.1-1.1 0.8-1.1 1-0.6 1-0.3 1.7-0.4 0.5-0.2 0.7-0.7 3.2-4.6 1.6-1.8 1.9-1.8 1.1-0.8 1.1-0.6 2.1-0.7 1-0.5 0.8-0.7 0.6-0.8 0.3-0.8 0.2-0.6 0-0.1 0-0.7-0.1-0.9-0.3-1-0.4-1.1-0.5-1-0.7-1-0.9-0.9-1.8-1.5-1.9-1.4-2.8-1.2-0.3-0.6-0.4-1.7-0.1-1.1 0.1-1 0.1-0.9 0.5-1.5 0.6-1.6 1.2-1.9 1.1-1.5 1.4-1.2 0.6-0.5 0.1 0 2.5-1 0.8 0.7 0.2 0.3 0.1 0.1 0.6 0.8 0.8 0.6 0.9 0.4 1 0.1 1.1-0.5 0.9-0.5 1.8-2.6z" id="SA01" name="Ar Riyad">
  </path>
  <path d="M370.1 406.2l-3.7-2.8-0.7-0.7-0.6-0.9-0.8-1.9-2.3-9-0.7-1.8-0.8-1.3-0.1-0.1-0.4-0.4-0.7-0.3-5.6-1.5-1-0.5-1-0.8-0.8-1.3-0.4-1.1-0.2-1.1 0.9-12.4-0.2-1.1-0.3-1.2-0.7-0.9-0.8-0.6-1.9-0.6-5.7-1.4-1.1-0.4 1.7-1.5 1.7-0.6 2.6-0.3 1.5-0.4 6.9-3.8 1.6-0.7 1.4-0.4 4.2-0.4 1-0.3 0.7-0.7 0.3-0.7-0.2-0.8-0.2-0.6-2-3.7-0.3-1.1-0.1-1 0.2-1.2 0.6-1 1.1-1.2 1-0.5 0.9-0.1 0.7 0.2 3.4 1.3 1.1 0.3 1 0 0.8-0.2 0.5-0.8 0.2-0.8 0-0.8-0.1-0.4-0.8-3.9 0-1 0-1 0.2-0.9 0.7-2.1 1-2 0.6-0.7 0.9-0.5 0.9 0 1 0.1 1.1-0.1 2-0.5 0.9-0.4 0.6-0.9 0.3-1 0.7-1.7 1.2-2.1 5.1-5.9 11.3-9.2 5.2-3.4 9.9-4.2 1.5-1 0.9-1.1 0.6-1.1 1.8-3.9 1.5-1.9 2.1-2.1 3.3-2.1 16.3-8.4 2.2-0.8 1-0.3 1 0 0.9 0.1 1 0.4 1 0.5 1.6 1.4 3.1 3.3 5.5 4.5 1.9 1.1 1 0.3 4.5 0.3 2.9 0.6 1 0 0.8-0.2 0.8-0.5 0.6-0.4 3.3-4.6 1.8-1.7 2.8 1.2 1.9 1.4 1.8 1.5 0.9 0.9 0.7 1 0.5 1 0.4 1.1 0.3 1 0.1 0.9 0 0.7 0 0.1-0.2 0.6-0.3 0.8-0.6 0.8-0.8 0.7-1 0.5-2.1 0.7-1.1 0.6-1.1 0.8-1.9 1.8-1.6 1.8-3.2 4.6-0.7 0.7-0.5 0.2-1.7 0.4-1 0.3-1 0.6-0.8 1.1-0.1 1.1 0.3 2.2 0 2.1-0.9 6.3 0 1 0.2 1 0.5 0.9 0.7 1 3.4 3.4 1.1 1.3 3.8 6.4 3.3 4.5 0.1 0.2 0.2 1.5-0.5 2.2-0.2 1.4 0.3 1.1 1.2 2.2 0.6 1.4 0.5 1.7 0.4 2.8 0 1.7-0.1 1.4-0.2 1-0.3 0.9-0.5 0.7-0.8 0.3-0.9 0.1-3.9-0.3-10.3 0.7-9.2-1.2-2 0-1 0.2-0.9 0.3-0.9 0.4-0.7 0.5-0.5 0.5-0.7 0.7-1.2 1.6-1.6 3.2-0.8 1.3-0.9 1-3.1 2-2.3 2.2-1.1 0.7-1.7 0.8-14.4 3.5-1 0.5-1.1 0.7-4.1 4.2-4.2 5.5-0.6 1.3-0.2 1.2 0.2 1 0.4 0.9 1.2 2 0.3 1.1-0.1 1.3-0.7 1.7-0.8 1.2-1.1 0.9-1 0.5-0.9 0.2-0.8 0-3.4-0.9-2-0.1-6.2 0.9-2.1 0-7.8-0.8-3.1-0.8-1.9-0.7-4.6-2.3-0.9-0.2-1 0.2-1 0.4-1.2 0.9-0.6 0.6-2.8 4.4-0.9 1.8z" id="SA05" name="Al Quassim">
  </path>
  <path d="M303.1 203l5 2.1 2.5 0.6 1 0 22.9-5.3 3.1-0.4 1.8 0.1 1.4 0.2 10.5 3.4 1.5 0.3 1.1 0 1.1-0.2 5.3-1.3 4.6-0.3 1.1 0.1 14.8 3.4 2 0.8 0.9 0.6 1 0.9 5.2 6.3 1.3 1 1.5 1 2.1 0.8 1.6 0.2 1.4-0.1 1.3-0.3 1.2-0.5 3.5-1.9 1.2-0.6 1.3-0.2 1.5 0 0.9 0.5 0.4 0.4 0.1 0.4 0.2 3.7 0.1 0.6 0.3 1.1 0.6 1.5 1 1.1 1.5 1 1.2 0.3 1.1 0.1 4.3-0.4 1.5 0.1 1.2 0.4 4.6 2.4 1.7 0.6 1.1 0.1 1-0.2 1.7-0.8 5-3.3 1.2-0.5 1.5-0.1 1.2 0.4 1 0.8 0.7 1 7.3 13.2 3.6 9.6 1.5 2.1 1.1 1 1.1 0.9 1.5 0.7 1.2 0.4 13.3 2.1 1.5 0.5 1.9 1.1 1 0.7 7.2 6.5 1.1 1.3 0.6 1.4-2.5 1-0.1 0-0.6 0.5-1.4 1.2-1.1 1.5-1.2 1.9-0.6 1.6-0.5 1.5-0.1 0.9-0.1 1 0.1 1.1 0.4 1.7 0.3 0.6-1.8 1.7-3.3 4.6-0.6 0.4-0.8 0.5-0.8 0.2-1 0-2.9-0.6-4.5-0.3-1-0.3-1.9-1.1-5.5-4.5-3.1-3.3-1.6-1.4-1-0.5-1-0.4-0.9-0.1-1 0-1 0.3-2.2 0.8-16.3 8.4-3.3 2.1-2.1 2.1-1.5 1.9-1.8 3.9-0.6 1.1-0.9 1.1-1.5 1-9.9 4.2-5.2 3.4-11.3 9.2-5.1 5.9-1.2 2.1-0.7 1.7-0.3 1-0.6 0.9-0.9 0.4-2 0.5-1.1 0.1-1-0.1-0.9 0-0.9 0.5-0.6 0.7-1 2-0.7 2.1-0.2 0.9 0 1 0 1 0.8 3.9 0.1 0.4 0 0.8-0.2 0.8-0.5 0.8-0.8 0.2-1 0-1.1-0.3-3.4-1.3-0.7-0.2-0.9 0.1-1 0.5-1.1 1.2-0.6 1-0.2 1.2 0.1 1 0.3 1.1 2 3.7 0.2 0.6 0.2 0.8-0.3 0.7-0.7 0.7-1 0.3-4.2 0.4-1.4 0.4-1.6 0.7-6.9 3.8-1.5 0.4-2.6 0.3-1.7 0.6-1.7 1.5-3.7-1-12.1-1.9-7.4 0.3-1.2 0.3-1.5 0.5-1.2 0.7-1 0.9-3.1 4-0.9 0.8-0.8 0.6-0.8 0.4-0.6 0.3-0.8 0.2-0.9 0.2-1.9 0.2-5.1-0.1-2.2 0.3-10.7 3.8-1 0.2-1 0-1-0.1-0.9-0.3-0.8-0.4-0.5-0.4-0.7-0.7-0.6-0.9-0.5-1.1-0.2-1.3 0.4-12.7-0.8-4.8-1.3-5.3-0.2-1.2 0-1.4 2.4-16.2-0.1-1-0.4-1-0.9-0.8-1.1 0-2 0.4-1-0.1-0.9-0.3-0.9-0.8-0.4-1-0.1-1.2 0.6-1.4 1.5-2.9 0.2-0.6 0.4-1.7 0-1.1-0.1-1.2-0.2-1-0.8-2 0.7-0.5 0.7-1 0.8-1.6 2.5-7.8 1.3-2.6 2-2.7 5.3-4.6 0.8-0.9 0.7-1 0.4-1 0.1-1-0.2-1-0.9-1.1-1-0.9-5.2-2.8-1.7-1.1-0.6-0.7-0.7-0.9-0.5-0.9-4.7-19.1-0.4-1.1-0.6-1-2.5-2.5-5.1-4.2-2.6-1.3-1.3-0.9-1-1-0.2-0.2-0.9-1.1-1.6-0.9-2.4-0.9-13.9-3.3-1-0.4-0.7-0.5-0.8-1 4.7-5.2 1-0.7 1.1-0.7 16.3-7.8 7.5-2.1 16-9.1 16.4-6.8 0.9-0.1 2.7 0.7z" id="SA06" name="Ha'il">
  </path>
  <path d="M367.4 592.6l-2.1 7.1 0.1 1.2 0.3 1.4 1.1 1.1 0.5 0.8 0.2 1.1-0.3 1.1-1 1.4-0.9 0.9-5.1 3.6-1 0.9-0.6 1.2-0.4 1.3-0.2 3.2-0.7 2.3-4.3 9.5-1.2 0.6-1.5 0.2-4 0-0.9 0.1-0.8 0.4-0.4 0.4-0.5 0.6-1.2 2-2.7 7.3-1.1 4.9-0.3 0.9-0.5 0.9-0.8 0.6-0.9 0.5-0.9 0.3-1 0.1-1 0-1.2-0.2-1-0.5-0.9-0.8-2.7-3.6-1.1-1-3.3-1.8-0.5-0.3-0.6-0.7-0.5-0.9-0.2-1-0.1-0.9 0.3-3.8-0.1-0.9-0.8-3-0.1-0.9 0.5-4.7 0-1-0.3-1-0.4-0.9-0.5-0.8-0.4-0.3-0.2-0.1-3.2-1-0.9-0.4-0.7-0.8-0.2-0.8 0.1-0.9 0.6-0.9 3.3-3.4 0.9-0.7 1.1-0.6 1.4-0.4 4.2-0.6 1-0.3 1-0.5 1-0.9 0.6-0.9 1.2-3 3-5.5 0.3-1.2 0-0.5-0.1-1.4-0.7-2.7-0.4-1.9-0.1-1 0.1-0.9 0.2-0.8 0.3-0.5 0.4-0.7 0.7-0.8 0.8-0.6 1-0.4 1-0.1 1.1 0.1 1.3 0.6 0.9 0.8 0.7 1 1.3 3.8 0.5 0.9 0.6 0.8 0.7 0.5 0.5 0.2 0.9 0.1 1.3-0.4 2.1-0.9 1.2-0.3 1.4-0.2 4.6 0 0.9-0.3 1-0.4 4-2.3 0.9-0.3 1.1 0.2 0.8 0.3 2.5 2.1z" id="SA11" name="Al Bahah">
  </path>
 </g>
 <g id="points">
  <circle class="17.158477215233617|35.626004539398934" cx="90.9" cy="750.8" id="0">
  </circle>
  <circle class="23.45863333035298|46.158404640498034" cx="545.5" cy="460.7" id="1">
  </circle>
  <circle class="31.333828474252186|54.584324721377314" cx="909.1" cy="77.4" id="2">
  </circle>
 </g>
 <g id="label_points">
  <circle class="Ash Sharqiyah" cx="733.3" cy="548.4" id="SA04">
  </circle>
  <circle class="Al Hudud ash Shamaliyah" cx="397.2" cy="166.1" id="SA08">
  </circle>
  <circle class="Al Jawf" cx="227.6" cy="166.7" id="SA12">
  </circle>
  <circle class="Najran" cx="531.3" cy="699.4" id="SA10">
  </circle>
  <circle class="`Asir" cx="410.2" cy="656.7" id="SA14">
  </circle>
  <circle class="Jizan" cx="399.7" cy="745" id="SA09">
  </circle>
  <circle class="Tabuk" cx="143" cy="245.9" id="SA07">
  </circle>
  <circle class="Al Madinah" cx="239.7" cy="399" id="SA03">
  </circle>
  <circle class="Makkah" cx="351.3" cy="534.7" id="SA02">
  </circle>
  <circle class="Ar Riyad" cx="530.2" cy="476.2" id="SA01">
  </circle>
  <circle class="Al Quassim" cx="417.5" cy="340.8" id="SA05">
  </circle>
  <circle class="Ha'il" cx="347.2" cy="268.7" id="SA06">
  </circle>
  <circle class="Al Bahah" cx="342.6" cy="615.2" id="SA11">
  </circle>
 </g>
</svg>