<?xml version="1.0"?>
    
<!--********* Copyright (c) 2024 Pareto Softare, LLC DBA Simplemaps.com ***************************************
************* Free for Commercial Use, full terms at  https://simplemaps.com/resources/svg-license ************
************* Attribution is appreciated! https://simplemaps.com *******************************************-->

<svg baseprofile="tiny" fill="#6f9c76" height="433" stroke="#ffffff" stroke-linecap="round" stroke-linejoin="round" stroke-width=".5" version="1.2" viewbox="0 0 1000 433" width="1000" xmlns="http://www.w3.org/2000/svg">
 <g id="features">
  <path d="M386.5 375l4.1 2.5 1.2 1.6-1.6 1.1-0.8 0-0.6-0.2-0.6-0.1-0.8 0.3-0.3 0.5-0.6 1.4-0.5 0.5-0.9 0-0.9-1-0.7-1.1-0.7-0.8-1.1 0.5-0.4 0-0.4-0.2-2.5-1.7-0.4-0.5-0.7-2.9-0.6-1.3-1.4-1.1-0.7-0.2-1.5-0.1-0.7-0.1-0.8-0.6-0.2-0.4 0.1-0.4 0-0.5 0-0.7 0-0.6-0.2-0.5-0.7-0.6-0.6-0.3-0.7-0.2-0.8-0.1-0.7 0.1-0.3 0.3-0.7 1.2-0.4 0.4-0.6 0.1-0.8 0-1.4-0.1-1.2-0.4-2.6-1.5-1.4-0.5 0.4-0.7 0.2-0.3-1.3-0.9-1.1 0.1-0.9 0.5-0.8 0.3-1.2-0.3-0.9-0.8-1.9-2.4-0.3-1-0.4-0.5-0.5-0.5-0.1-0.4 0.4-1.2 0.5-0.8 1.3-1.3 0.5-0.8 0.2 0.3 0.3 0.1 0.2 0 0.3 0.1 1 1.1 0.6 0.4 0.8 0.4 0.7 0 1.6-0.1 0.7 0.4 1.4 1.2 1.4 0.9 3.8 1.8 2 1.6 2.4 1.2 2 1.5 1.4 0.6 3.1 1 2.8 1.2 7.5 5.5z m-47.7-31.1l1.2 0.2 1.1 0.3 0.8 0.7 0.2 1.2-1.6-0.6-1.3-0.4-1.2-0.5-1.1-1.4 0.5 0 0.5 0.1 0.4 0.1 0.5 0.3z" id="SBRB" name="Rennell and Bellona">
  </path>
  <path d="M470.9 273.2l0.4-0.7-0.3-0.2-0.5-0.2-0.3-0.1-0.9-1.7 0-0.9 0.9-0.8 1.5 1.2 1.1 2 0.1 1.8-1.5 0.8-0.5-0.1-0.2-0.3-0.1-0.3 0.3-0.5z m43.3 38.3l0.7-0.4 0.5 0.6-0.1 0.8-0.9 0.4-0.9-0.1-0.8-0.3-0.8 0-1 0.4-0.5-0.3-0.7-0.1-1.1-0.1-1-0.1-4.9-1.9-1.5 0.2-1.5 1.4-0.8-0.4-0.9-0.2-1.8 0.1-0.7-0.2-0.5-0.4-0.4-0.4-0.5-0.4-3-1.2-1.1-0.9-0.6-0.3-0.9 0.1-2 0.7-0.6-0.1-0.7-0.4-2.8-0.8 0.1 0.1-0.4 0.2-0.9 0.2-0.4-0.2-0.7-0.6-0.3-0.2-0.6-0.2-0.5-0.5-0.5-1.2-0.4 1-0.1 0.5-1.5-1.1-0.8-0.2-1 0.3-0.2-0.4-0.5-0.6-0.2-0.4-0.6 0.3-0.6-0.5-0.3-0.7 0.1-0.5-0.6-0.8-0.9-0.1-0.9 0.1-0.9-0.2-0.5-0.7-0.2-0.8-0.3-0.6-1.1-0.3-0.3-0.4-0.9-0.9-1-0.6-0.4 0.3-0.3 0.6-0.7-0.5-1.3-1.3 0-0.6-0.3-0.4-0.5-0.3-0.6-0.2 0.1-0.5-0.1-0.5-0.4-0.4-0.5-0.5-0.6 0.7-0.8 0.2-1-0.1-0.9-0.3 1.4-4.3-0.8-0.5-0.1-0.6 0.1-0.8-0.4-0.7-0.4-0.1-1.4 0.3-0.8 0 0.7-0.8 0.5-1.1-0.1-1-1.1-0.4 0.7-1.7 0.5-0.8 0.5-0.4 0.3-0.1-0.1-0.3-0.5-0.5-0.3-0.1-1.1 0.1-0.4 0-0.5-0.4-0.3-0.5-0.4-0.4-1-0.1-1.8 0-0.8-0.2-0.3-0.5-0.5-0.3-0.9-0.1-1.5 0.1-0.4 0.2-0.3 0.4-0.3 0.2-0.6 0.2-0.5-0.1-0.4-0.3-1.8-0.3-0.7-0.2-0.6-0.6-0.3-1 0.6-1.5-0.3-0.8 0.3-0.3 0.2-0.2 0.1-0.2 0.4-0.2-0.5-1.1 0-1.5 0.5-1.3 1.3-0.4 0.4 0.2 0.4 0.1 0.4 0.3 0.3 0.3 3.8-0.7 7.2 3.3 7.4 4.6 4 3.3 1.3-0.5 0.8 0.5 1.4 2.2 1 0.6 1.1 0.1 1-0.1 0.9 0.1 0.8 0.3 2.1 1.3 0.3 0.5 0.7 0.7 1.5 0.1 1.6-0.4 1-0.6 2.5 0.8 1.2 0.1 0.9-0.5 0.6 0.6 1 1.3 0.7 0.5 0.8 0.3 2.3-0.3 1.1 0.3 0.4-0.2 0.3-1.5 0.4-0.3 0.7-0.2 0.6 0 1.4 0.7 1.8 2.5 0.8 0.6 0.7 0.5 0.6 1 1.4 3.8 0.3 0.4 0.5 0.5 0.5 0.1 0.3 0.3 0.4 2.3 0.5 1 0.9 0.8 2.4 1.6 0.7 0.9 0.3 1.1 0 4-0.2 0.3-0.4 0.1-0.5 0.4-0.4 0.5-0.3 0.4 0.5 1.7 2.1 0.4 2.7-0.1 2.2 0.4z" id="SBMK" name="Makira">
  </path>
  <path d="M841.7 246.4l-0.5-1.2 0.3-0.7 0.8 0.1 0.7 0.9 0.3 0.9-0.2 0.5-0.5 0.1-0.9-0.6z m-5.5-5.7l0.8-0.1 0.3 0.1-0.3 0.2-0.8-0.2z m-11.5 127.6l0.1 1-0.1 1.4 3.7-0.3 0.4 2.7-5.1 0.4-1.4 0.2-1.2-0.1-1.9-0.2-1-1.4-0.8-0.8-1-0.3-0.3-0.6-1.2-1.4-0.9-1.1 0-1.1 0.6-0.7 0.6-0.4 1.4-0.7 1.3 0 1.6 0.1 1.5-0.3 1.6 0.3 2.9 1.1-0.8 2.2z m-25-24.9l-1.6 1.7-0.5 0.1-0.7 0.2-0.5-0.2-0.6-0.3 0-0.5 0-0.6 0.4-0.5 0.3-0.5-0.1-0.9-1 0.5-0.7 0.7-0.4-0.6 0.1-1.6 1-1.2 1.2-1.1 0.9-0.3 1 0.3 1.1 0.9 0.5 1 0.1 1.3-0.5 1.6z m-28-41l-0.7 0.8-0.3 1.4-2.5 1-0.8 0.7-1.3 0.6-0.7 0.6-1.4-0.1-0.4 0.1-1.8-0.7-0.8 0.7-0.7 0.5-0.7-0.3-2.4 0.4-2.9 3.4-2.1 3.1-0.8-0.9 0.2-1.9-0.8-1-0.9-0.1-1.9 1.7-2-0.1-1-1.6-0.2-2.8 0-1.4 1.3-1 0.6-0.9 0.8-1.1 0.6 0-0.3 2.4 1 1.1 0.7 0.2 0.3-0.9 0.1-1.1 0.2-1.8 1.2-1.6 2-1.9 3.1-0.3 4.9 0.6 2.2-1 2.3 0.5 1.2 0.6 0.2 0.3 0.2 0.3 2.1-0.3 1.9 0.1 0.3 1.7z m181.9 109.6l0.7 0 0.2 1-0.4 0.3-1.2 0.4-0.3-0.6 0.6-0.6 0.4-0.5z m-209.3-128.5l-0.7 0.2-0.5-0.1-0.4-0.7 0.1-0.8 0.2-0.4 0.4-0.4 0.9 0.3 0.6 0.9-0.1 0.7-0.5 0.3z m84.6 83l0 0.6-0.4 1.1-1.1 0.8-1.2 0.2-0.5-0.8 0.4-1.2 0.9-0.8 1.3-0.2 0.6 0.3z m-50-93.8l1-0.1 0.9 0.6-0.7 1.3-1.3 1.2-1 0.2 0-1 0.1-1-0.5 0-0.1-0.5 0.4-1.4 0.3-1.5-0.1-1.3 0.3 0.4 0 3.3 0.4-0.1 0.3-0.1z" id="SBTE" name="Temotu">
  </path>
  <path d="M487.1 244l-1-0.8-0.9-1.6-0.7-1.9-0.8-4.8 0.1-0.9 0.7-1 0.8-0.2 0.9 0.1 0.9-0.3 0 0.5-0.1 0.4-0.4 0.5-0.1 0.5-0.1 0.2-0.3 0.2 0.4 1 0.9 5.7 0 1.2-0.3 1.2z m-39.8-30.4l-0.3 0.2-0.8 0.2-0.3 0.1 0-1.5-0.4-1.3-1.5-2.4 0.5-0.4 0.4 0 0.5 0.9 0.9 0.9 2.4 1.5 0.5 0.6 0.2 1.1 2.1 3 1.7 3.5 0.9 1 0.3 0.5 0.5 1.6 0.6 0.7 0.6 0.7 0.6 0.8 0.9 1.6 0.4 1.3 0.2 1.2-0.1 2.5 0.2 1.1 1 2.3 0.2 1.6-0.4 1.5-0.6 1.3-0.7 0.2-0.2-1.4-2.8-3.1-0.7-1.7-0.4-0.7-0.8-0.4-0.7 0.2-0.5 1.9-0.7 1.2-1.1-1.2-1.2-1.6-1-1.7-0.4-1.4 0-4.3 0-4-0.2-1.5 0.1-0.9 1.1-2-0.2-1.1-0.6-1.1-0.2-1.5z m91.7-70.8l-0.5-0.7 0.3-0.3 0.7 0.1 0.8 0.3-0.2 0.2-0.3 0.2-0.4 0.1-0.4 0.1z m-94 85l-3.6-2.5-0.6-0.1-0.2-1.1-0.5-1.1-2.7-3.5-0.4-0.7-0.1-0.7-0.1-1.3-0.3-0.8-0.7-1.2-3.2-3.3-4.7-2.4-1.6-1.9-3.2-0.5 0.3-1.2-1.9-2.1-0.9-0.7-0.5-0.1-1.1 0.1-0.5-0.2-0.2-0.5 0.1-1.2-0.1-0.5-1.6-1.4-3.9-1.7-1.5-1.6-4.9-9.2-1.2-3.4-0.9-1.6 0.3-0.5 0.1-0.4-0.1-0.4-0.3-0.6-0.1-1-1-3.4-1-1.5-2.8-5.7-0.3-1 0-3.7-0.1-0.6-2.2-4.9 1.2-0.8 2-1.7 1.2-0.3 0-0.7-1.6-3.6-2.7-3.6-0.4-0.6-0.8-0.5-2.4-2.3-0.7-1-0.9-3.1 1.4-1 2.6 0.3 2.5 0.9 1.3 1.3 0.6 0.2 0.7-0.2 0.7-0.3 0.4-0.6-0.2-0.6-2.1-1.4 0.2-0.5 0.5-0.4 0.6-0.3 0.6 0 0 0.5 1.5 0 0.9 0.5 1.3 1.8 0.8 0.7 0.7 0.4 0.7 0.6 0.6 1.2 0.3 0.8 0.1 0.6 0.1 0.7 0.2 0.4 0.9 0.6 0.3 0.2 2.3 3.5 3.6 3.9 2.7 2.3 1.6 2.1 0.7 1.3 0.3 1.3-0.6 1.5-1.3 0.8-1.5 0.5-1.3 0.7 0.5 0.9 0.3 0.9-0.1 0.9-1.1 1.9 0 0.9 0.3 0.9 0.1 1 0.3 1 1.3 1.2 0.3 0.7 0.4 0.6 1-0.1 1.6-0.8 0.6 0.3 1.9 1.4 0.6 0.7 0 0.4-0.3 0.4-0.1 0.5 0.4 0.6 0.5 0.3 0.5 0 0.3-0.2 0.1-0.1 1.6 0.7 1.7 1.3 1.6 1.5 1.2 1.7-0.9-0.3-0.7 0.5-0.2 0.8 0.6 0.4 0.8 0.3 0.8 0.9 0.4 1.1-0.4 1 0.6 0.4 0.3 0.4 0.1 0.6 0 0.7 0.1 0.7 0.3 0.2 0.5 0 0.5 0.3 0.4 0.3 0.5 0.2 0.4 0.4 0.1 0.8-0.2 0.3-1.7 1.3 1.2 0.6 0.4 0.4 0.3 0.5 0.9-0.4 0.8 0.2 0.4 0.6-0.2 1 0.5 0 1.3 0.4 0 0.5-1.9 0.5-0.6 0-0.3 0.4 0.1 0.8 0.3 0.8 0.3 0.4 0.5 0.5 0.4 2.5 0.8 0.8-0.9 0.5-0.5-0.5-0.3-0.6-0.7-0.4-0.6 0.4 0.2 0.8 0.5 0.8 2.7 2.8 0.8 1.1 2.1 5.4 0.7 0.6 0.7 0.6 0.9 1.3 1.4 2.4 0.8 5.4-0.1 1.5-0.4 0.9-0.7 0.2-1-0.5z m-49.5-119.3l0.8 2.5-0.5 0.1-0.6-0.1-1.3-1.8-0.3-0.8 0.3-0.8 0.7-0.2 0.5 0.4 0.4 0.7z" id="SBML" name="Malaita">
  </path>
  <path d="M348 215l1.4 0.1 2.7-0.1 0.7-0.1 0.6-0.2 0.6-0.4 1 0.6-0.4 1.3 0 0.8-1 0.4-0.6-0.7-2.1 0.3-2-0.8-0.9-1.2z" id="SBCT" name="Capital Territory (Honiara)">
  </path>
  <path d="M348 215l0.9 1.2 2 0.8 2.1-0.3 0.6 0.7 1-0.4 0-0.8 0.4-1.3-1-0.6 0.5-0.4 0.6-0.2 0.8 0.2 1.6 0.7 1.4 0.3 0.7 0.2 0.7-0.1 0.7-0.2 1.2-1 0.7-0.2 1.4 0.2 2.2 0.6 1.3 0.2 0.5-0.2 0.5-0.6 0.4-0.2 0.4 0.1 0.6 0.3 0.4 0.1 5.1 0 0.3-0.1 0.7-0.3 0.4-0.1 0.1 0.2 0.3 0.3 0.4 0.3 1.4 0.6 1.4 2 2.7 0.9 1.1 1.3 2 3 2.5-0.4 3.1 1.4 2.9 2.2 1.8 1.9 0.4 1.2 0.3 1.4 0.2 2.9 0.3 0.6 0.8 0 1.1-0.4 0.8 0.2 0.7 0.3 1.5 1 2.2 0.6 0.6 0.3 0.2 0.7-0.1 1 0.2 0.8 0.8 0.4 0.3 0.3 0 0.8 0 1.5 0.2 0.6 0.3 0.5 0.5 0.4 0.4 0.6-0.1 2.1-1.8 1.2-5.1 1-2.7 0.9-1.5 0.7-1.2 1-4.9-1.2-4.4-2.1-1.5-0.3-2.8 0.5-0.9-0.2-0.6-0.6-0.5-0.8-0.6-0.7-0.3-0.1-0.8 0.1-0.3 0-0.1-0.3-0.5-0.9-0.3-0.3-2-0.8-0.6-0.4-1.1-0.3-7.6-0.4-5.8 0.9-3 0.1-1.9-0.3-0.8 0.1-0.6 0.2-0.4-0.3-1.5-0.2-1.5-0.4-1.5-0.1-1.5-0.3-2.3-1.2-1.1-0.4-1.3 0.2-1.1 0.5-1.1 0.1-1.4-1-3.2-3.3-1.2-0.8-1.9-0.9-0.1-0.3 0.1-0.8 0-0.3-0.3-0.3-0.5-0.2-0.4-0.2-0.2-0.6-0.1-0.7-0.2-0.6-0.4-0.3-1.2-0.1-0.2-0.5 0.2-0.6 0-0.7-0.6-1.6-0.8-1.4-1-1.2-1.1-1.2-1-0.7-0.5-0.5-0.2-0.7 0.9-0.4 0.7-0.6 0.3-0.7-0.1-0.7-1-1.4-0.3-0.7 0-0.8 0.5-1.8-0.1-0.7-0.3-1-0.1-0.7-0.7-0.7-0.3-0.2 0.3-0.5 0.7-0.7 0.2-2.4 0.5-1 1-0.4 1-0.3 4.3-2.6 2.4 0.8 2.4 1.6 3.7 3.3 2.7 2 0.5 0.6 0.3 1 0.7 1.2 0.9 1.1 0.9 0.8 1.3 0.4z" id="SBGU" name="Guadalcanal">
  </path>
  <path d="M340.4 197l-1-0.4-0.5-1.1-0.2-1.4 0.5-1.3 0.4-0.1 0.4 0 0.3-0.1 0.4-0.4 0.5 1.4 0.3 1.5-0.2 1.4-0.9 0.5z m29-0.9l0.8-0.3 0.8-0.5 0.6-0.6 0.4-0.5 0.9-3.4 0.7-1.5 1.2 0.2 1.8 3.2 0.7 0.5 1.1 0.1 0.8 0.1 0.6 0.3 0.6 0.5-0.9 0.8-1 1.9-0.9 0.6-0.5 0.4-1.5-0.4-1.4-0.9-1.3-0.5-1.4 0.4 0.3 0.9-1 0.6-1.6 0.3-1.4 0.1 0.3-0.5 0-0.5-0.4-0.3-0.9-0.1 0.4-0.7 0.6-0.2 1.6 0z m-72.3-7.1l0.7-0.1 1.4-1.7 0.7-0.5 0 0.3-0.1 0.2-0.2 0.1-0.1 0.3 0 0.7-0.2 0.1 0.2 0.6-0.7 0.7-0.2 0.6 0.4 0.3 0.9-0.2-0.2 1.7-0.9 1.1-3.1 1.4 0.1-1.8 0.2-1.3 1.1-2.5z m61.6 0l-0.5-0.1-0.4-0.2-0.2-0.4-0.1-0.5 0.5-0.2 1.3-0.1 1.2-0.4 0.8-0.9 0.4 0.5 0.3-0.6 0.2-0.4-0.1-0.4-0.4-0.6 0.3-0.3 0.2 0 0.4 0.3 1.3 0.5 1.2-0.1 1.2 0.2 1 1.4 0.5 0 0.7-1.2 1.2 0.2 1.4 1 1.1 1.1 0.5 1.5-0.5 2-1 1.8-1.1 1.1-0.2-0.6-0.2-0.2-0.4 0.1-0.6 0.2 0-0.9-0.4-0.6-0.6-0.3-0.9-0.1 0.2 0.4 0.3 1-0.5 0-1.1-1.8-0.8-0.7-1.1 0.4-1 0.5-1.3 0-1.2-0.3-1-0.4-0.1-0.4 0-0.7-0.1-0.6-0.4-0.2z m-63.5-2.7l0.6-0.1 1.3 0.5-2.2 4.6-1 0.9-3.3 1-0.6-0.4-0.4-0.7-0.6-0.4-0.8 0.5-1.7-2.4 0.1-0.8 2.2 0-0.5-0.9 0.3-0.7 0.6-0.2 0.9 0.4 0-0.9 0.3 0.1 1.1 0.3-0.1-0.7-0.3-0.7-0.4-0.5-0.6-0.5 1 0 0.7 0.3 0.5 0.1 0.4-0.3 0.2-0.5 0.5 0.9 0.1 0.7 0.2 0.6 0.7 0.6 0.3 0 0.5-0.8z m62.3 0.4l-0.9-0.7 0.1-0.7 0.5-0.8 0.3-1-0.3-1.8 0.2-0.6 1-0.1 1.1 1.4 0.4 0.9-0.1 1.4-0.9-0.4-0.6 0.5-0.8 1.9z" id="SBCE" name="Central">
  </path>
  <path d="M189 75l0.6 0.5-0.5 0.6-0.1 0.7 0.1 0.8 0.5 0.7-1.9-1.4-0.1 1.1-0.7 0.4-2.1-0.1 0-0.4 0.4-0.2 0.6-0.5 0.4-0.3-2.7-0.8-0.7-0.4-0.6 0-1.7 0-0.7-0.2 1.1-0.8 1.2-0.6 1.7 0.3 2-0.2 1.7 0.1 1.1 1.2 0.4-0.5z m11.3 0.3l0.1 1 0.8 2.5 0.5 1-1.8 0.1-1-0.1-1.1-0.5-0.5 0.1-0.5 0.2-0.5 0.2-0.5-0.2-0.4-0.6-0.5-0.2-1.3-0.8 0.7-1.7 2.3-2.7 3.2 1.2 0.5 0.5z m-16.8-5.2l0 1.7-0.3 0.9-0.9 0.4-1.9 0.1-0.8 0.5-1.7 3.2-0.2-0.8-0.2-0.4-0.5 0-0.5 0.3-0.9-0.8-1.7-0.3-3.1-0.3-1.3-0.4-0.9-0.9-0.3-1.3 0.6-1.6-0.5 0.2-0.5 0.3-0.8 0.9-0.5-0.3-0.3 0.2-0.1 1-1.3-0.7-2.4-0.9-1.5-0.7-3.6-0.3-0.6 0-0.5 0.7-0.9 0-1-0.7-0.7-2.1-0.8-1-0.9-0.9-0.8-0.4-0.6 0.3-1.4 0.5-0.9 0.1 0.6-0.9-0.7-1.2-1-0.9-1.3-0.6-1.5-0.2-0.9-0.3-1.1-0.9-6.4-7.5-0.3-0.7-0.2-0.8-0.3-0.8-0.6-0.3-0.9-0.3-0.5-0.5-0.7-1.6-2.7-3.7-0.8-0.5-0.7-0.7-2.4-4.1-1.1-0.8-3.2-1.7-1-0.3-0.9-0.4-7.6-6.6-0.1-0.3-1.5-1.1-0.4-1-0.6-3.7 0-1.4 0.6-1 2.2-1.9 1.2-0.2 1.6 0.2 1.3 0.5 0.9 0.9 0.4 0.2 0.5 0.4 0.2 0.6 0.3 0.6 0.7 0 0.7-0.2 0.2-0.2 2.6 0.8 1.8 1.4 3.6 4 0.9 0.8 3.1 2.1 2.9 0.8 4.3 2.9 2.8 1.3 2.5 0.5 1.2 0.6 0.8 0.3 0.8 0.4 0.3 0.9 0.2 0.5 0.7 0 0.7 0 0.7 0.1 0.7 0.6 1.5 2 2.6 2.2 0.5 1 0.2 1.2 0.1 2.9 0.8 3.1 1.1 2.7 0.7 0.8 0.7 0.8 0.6 0.8 0.4 1.3 1-0.6 0.4-0.4 0.5 1.2 0.9 0.9 1.2 0.6 1.4 0.2 0.9 0.4 0.6 1 0.4 1.2 0.2 0.9 0.4 0.6 0.9 0.5 1.9 0.6 0.8 0.5 0.9 0.6 0.7 0.8 0.5 0.9 0.4 0 0.2-1.1 0.5-0.1 0.7 0.5 0.7 0.3 1.5 0 0.7-0.2 2.5-0.9 1.3 0 0.9 0.6 0.4 1.6z" id="SBCH" name="Western">
  </path>
  <path d="M330.8 151.1l0.8 0.7 0 0.5-0.8 0.7-0.6 0.3-0.6 0.1-0.7-0.1-0.9-0.3-0.7-0.4-0.6-0.5-1-1-0.8-1.3-0.6-0.3-0.9 0.7-1-1.1-1-0.6-0.8-0.8-0.1-1.8 0.5-1.8 0.9-1.2 1.4-0.6 1.9-0.2 2 0.5 0.6 1.1-0.2 3.2 0.4 1.5 0.8 0.9 2 1.8z m-82.1-61.9l1 0.4 1.1 1 0.7 1.1-0.2 0.8-1.1 0.1-1-0.6-0.8-0.9-0.4-1-0.7 1-1.3-0.3-2.7-1.6 0.2 0.7 0.8 1.6-0.7 0-1.7-0.4-1.6 0 0.1-0.4-0.3-1-0.8-1-1.4-0.4-0.2-0.3-0.4-0.4-0.1-0.5 0.3-0.2 0.6 0 1.1 0.3 0.4 0.1 0.1 0.1 0.6 0.1 0.4-0.1-0.4-0.8 0-0.4 0.5-0.3 0.6 0 0.5 0.5 0.8 0.4 1.7 0.3 0.8 1.1 1.1 0.5 1.4 0.4 1 0.1z m93.8 62.1l2 1.6 0.8 1.1-0.9 0.9-0.6-0.2-2.2-1.3-0.3 0-0.8 0.1-0.4-0.1-0.3-0.3-0.2-0.5-0.2-0.4-1.1-0.5-0.9-1.2-1.4-0.5-0.4-0.5-1-1.2-2.1-1.7-0.7-0.7-0.1-0.7 0.1-0.6-0.2-0.4-1-0.2-0.8-0.4-3.2-2.9-5.6-1.2-2.5-1.5-1.7-0.7-1.5-1.3-1.1-0.6-1.2-0.2-0.9 0.3-2.3-1.4-1.2-0.4-1.2 0.4-0.7-1.6-0.6-0.9-0.8-0.3-0.9-0.1-0.9-0.3-0.7-0.6-0.1-0.9-1.4 0.5-1.5-0.3-1.4-0.8-6.4-4.6-0.4-0.1-1.1 0.1-0.4 0-0.3-0.5 0-0.6 0-0.6-0.1-0.3-0.6-0.1-0.2 0.3-0.3 0.3-0.4 0-1.8-0.9-0.5-0.1-0.9 0.2-0.5-0.1 0-0.2-0.3-0.9-0.2-0.3-0.7-0.4-0.6-0.1-0.4-0.4-0.1-1-0.5 0.3-1.4 0.6-0.1-1.3-0.7-1.1-0.9-0.7-1.3-0.2-4-1.9-0.4-2.6-0.5-1.2-1.2 0.3-2.1-0.5-1-0.6 0.5-1-0.7-0.9-0.7-0.5-0.5 0-0.7 0.9-0.7-0.9-0.9-2.4-0.8-0.9-1-0.9-1.2-0.4-1.2 0.3-0.7-1.2-2.9-1.6-1.1-1-0.3-0.9 0-0.7 0.2-0.7 0.1-0.7 0-2.9-5.3-4.5-3.6-1.8-0.6-1.1-0.1-1.2 0.5-0.8 1.2 0.2 1.4 0.8 6.7 2.3 0.5 0.4 0.7 0 0.6-0.8 0.7-0.7 1 0.4 0.3-0.3 0.2-0.1 0.2-0.1 0.3-0.1 0.5 1.4 1 0.9 2.7 1.1 0.2-0.4 0.5-0.5 0.5-0.4 0.4-0.1 0.9 0.2 0.3 0.7 0.3 0.9 0.4 0.8 1.3 1.2 0.8 0.6 0.7 0.3 0.5 0.5 1 2 1.3 0.7 1 1.4 0.6 0.6 0.9 0.5 2.4 0.9 1.2 0.8 2.1 1.7 1.4 0.8-0.7 1.4 0.5 1.2 1.1 0.6 1-0.3 2.7 1.1 0.8 0.5 0.5 0.9 0.2 1 0.5 0.6 0.9-0.3 1.9 1.4 1.5-0.7 1.3-0.3 1.2 0.1 1.5 0.4-0.8 0.4 0.2 0.6 0.7 0.6 0.7 0.3 1.1 0.1 0.7 0.3 0.3 0.6 0.4 0.9 1.2-0.9 0.6 0.6 0.6 1.1 0.7 0.6 2.2 0.2 0.9-0.3 0.4-0.9 1.3 0.6 0.5 0.3 0.5 0.5 1.1-0.8 0.7 0.8 0.6 1.4 0.7 1.2 1.1 0.9 1.9 1.1 0.9 0.7 0.2 0.1 0.8 0.3 0.2 0.2 0.1 0.6 0.1 0.1 3.2 2.6 6.3 3.8 13.2 9.9 0.3 0.7-1.5 1.5-1.4 2-0.5 0.4-0.6-0.4-0.8-0.2-0.7 0.1-0.6 0.5 0 0.4 1.1 0.7 0.6 1.2 0.6 0 0.7-0.3 0.5-0.6 0.7 0.5 2 2.9 0.6 1 0.1 1 0.1 1.4z m-102-66.4l-0.6-0.6-0.5-0.7-0.8-0.7-2-0.5-1.5-1-0.9-0.2-0.5-0.4-0.1-0.8 0.3-0.7 0.5 0 0.7 0.4 0.7 0.3 0.6 0.4 0.4 0.8 0.9-0.3 0.8 0.3 1.6 1.4 0.8-0.7 1.5 0.1 1.6 0.6 1.2 0.9-0.6 0.4-0.5 0.4-0.1 0.7 0.3 0.8-3-0.6-0.8-0.3z m-5.6-9.4l-0.3 0.7-0.2 0.6 0 0.8 0 0.7-1-0.6-0.3-0.3-0.5 2.4-1-0.7-0.6-0.9-0.7-0.8-1.5 0 0-0.5 1-0.9 0.4 0 0.7 0.1 1.7-1.7 1.3-0.3 0 1.9 0.3-0.2 0.5-0.1 0.2-0.2z" id="SBIS" name="Isabel">
  </path>
  <path d="M189 75l0.6 0.5-0.5 0.6-0.1 0.7 0.1 0.8 0.5 0.7-1.9-1.4-0.1 1.1-0.7 0.4-2.1-0.1 0-0.4 0.4-0.2 0.6-0.5 0.4-0.3-2.7-0.8-0.7-0.4-0.6 0-1.7 0-0.7-0.2 1.1-0.8 1.2-0.6 1.7 0.3 2-0.2 1.7 0.1 1.1 1.2 0.4-0.5z m11.3 0.3l0.1 1 0.8 2.5 0.5 1-1.8 0.1-1-0.1-1.1-0.5-0.5 0.1-0.5 0.2-0.5 0.2-0.5-0.2-0.4-0.6-0.5-0.2-1.3-0.8 0.7-1.7 2.3-2.7 3.2 1.2 0.5 0.5z m-16.8-5.2l0 1.7-0.3 0.9-0.9 0.4-1.9 0.1-0.8 0.5-1.7 3.2-0.2-0.8-0.2-0.4-0.5 0-0.5 0.3-0.9-0.8-1.7-0.3-3.1-0.3-1.3-0.4-0.9-0.9-0.3-1.3 0.6-1.6-0.5 0.2-0.5 0.3-0.8 0.9-0.5-0.3-0.3 0.2-0.1 1-1.3-0.7-2.4-0.9-1.5-0.7-3.6-0.3-0.6 0-0.5 0.7-0.9 0-1-0.7-0.7-2.1-0.8-1-0.9-0.9-0.8-0.4-0.6 0.3-1.4 0.5-0.9 0.1 0.6-0.9-0.7-1.2-1-0.9-1.3-0.6-1.5-0.2-0.9-0.3-1.1-0.9-6.4-7.5-0.3-0.7-0.2-0.8-0.3-0.8-0.6-0.3-0.9-0.3-0.5-0.5-0.7-1.6-2.7-3.7-0.8-0.5-0.7-0.7-2.4-4.1-1.1-0.8-3.2-1.7-1-0.3-0.9-0.4-7.6-6.6-0.1-0.3-1.5-1.1-0.4-1-0.6-3.7 0-1.4 0.6-1 2.2-1.9 1.2-0.2 1.6 0.2 1.3 0.5 0.9 0.9 0.4 0.2 0.5 0.4 0.2 0.6 0.3 0.6 0.7 0 0.7-0.2 0.2-0.2 2.6 0.8 1.8 1.4 3.6 4 0.9 0.8 3.1 2.1 2.9 0.8 4.3 2.9 2.8 1.3 2.5 0.5 1.2 0.6 0.8 0.3 0.8 0.4 0.3 0.9 0.2 0.5 0.7 0 0.7 0 0.7 0.1 0.7 0.6 1.5 2 2.6 2.2 0.5 1 0.2 1.2 0.1 2.9 0.8 3.1 1.1 2.7 0.7 0.8 0.7 0.8 0.6 0.8 0.4 1.3 1-0.6 0.4-0.4 0.5 1.2 0.9 0.9 1.2 0.6 1.4 0.2 0.9 0.4 0.6 1 0.4 1.2 0.2 0.9 0.4 0.6 0.9 0.5 1.9 0.6 0.8 0.5 0.9 0.6 0.7 0.8 0.5 0.9 0.4 0 0.2-1.1 0.5-0.1 0.7 0.5 0.7 0.3 1.5 0 0.7-0.2 2.5-0.9 1.3 0 0.9 0.6 0.4 1.6z" id="SBCH" name="Choiseul">
  </path>
 </g>
 <g id="points">
  <circle class="-12.006084906752635|156.17387943243577" cx="90.9" cy="393.8" id="0">
  </circle>
  <circle class="-9.729782821277938|162.83281497238227" cx="545.5" cy="235.6" id="1">
  </circle>
  <circle class="-6.884405214434569|168.15996340433946" cx="909.1" cy="39.3" id="2">
  </circle>
 </g>
 <g id="label_points">
  <circle class="Rennell and Bellona" cx="363.1" cy="365.2" id="SBRB">
  </circle>
  <circle class="Makira" cx="483.6" cy="296.3" id="SBMK">
  </circle>
  <circle class="Temotu" cx="757.2" cy="303.9" id="SBTE">
  </circle>
  <circle class="Malaita" cx="420.3" cy="188.5" id="SBML">
  </circle>
  <circle class="Capital Territory (Honiara)" cx="352" cy="215.9" id="SBCT">
  </circle>
  <circle class="Guadalcanal" cx="364.4" cy="227.6" id="SBGU">
  </circle>
  <circle class="Central" cx="364.8" cy="187.9" id="SBCE">
  </circle>
  <circle class="Western" cx="180.6" cy="124.8" id="SBCH">
  </circle>
  <circle class="Isabel" cx="295.5" cy="118.1" id="SBIS">
  </circle>
  <circle class="Choiseul" cx="145.8" cy="50.4" id="SBCH">
  </circle>
 </g>
</svg>