<?xml version="1.0"?>
    
<!--********* Copyright (c) 2024 Pareto Softare, LLC DBA Simplemaps.com ***************************************
************* Free for Commercial Use, full terms at  https://simplemaps.com/resources/svg-license ************
************* Attribution is appreciated! https://simplemaps.com *******************************************-->

<svg baseprofile="tiny" fill="#6f9c76" height="648" stroke="#ffffff" stroke-linecap="round" stroke-linejoin="round" stroke-width=".5" version="1.2" viewbox="0 0 1000 648" width="1000" xmlns="http://www.w3.org/2000/svg">
 <g id="features">
  <path d="M913.1 85.8l0.1 0 0 0.1 0.1 0 0 0.1 0.1 0 0.1 0.1 0 0.1 0.1 0 0.1 0.1 0.1 0 0 0.1 0.1 0 0.1 0.1 0 0.1 0 0.1 0.1 0 0 0.1 0.1 0.1 0 0.1 0.1 0 0 0.1 0 0.1 0.1 0 0 0.1 0.1 0.1 0 0.1 0 0.1 0.1 0 0 0.1 0.1 0.1 0 0.1 0.1 0 0 0.1 0.1 0 0.1 0 0 0.1 0.1 0 0 0.1 0 0.1-0.1 0-0.1 0-0.1 0-0.1 0-0.1 0 0 0.1-0.1 0 0 0.1 0 0.1 0.1 0 0.1 0 0 0.1-0.1 0-0.1 0-0.1 0-0.1 0-0.1 0 0 0.1-0.1 0 0 0.1 0.1 0.1-0.1-0.1-0.1 0 0 0.1-0.1 0 0 0.1-0.1 0.1 0.1 0.1-0.1 0 0 0.1 0.1 0 0 0.1-0.1-0.1 0 0.1 0 0.1 0 0.1 0 0.1-0.1 0.1-0.1-0.1-0.1 0 0 0.1-0.1 0 0-0.1-0.1 0-0.1-0.1-0.1-0.1-0.1 0-0.1 0 0-0.1-0.1 0 0-0.1 0-0.1-0.1 0 0-0.1 0-0.1-0.1 0 0-0.1 0-0.1-0.1 0 0-0.1-0.1 0 0-0.1-0.1-0.1 0.1 0 0-0.1 0-0.1-0.1 0 0-0.1 0-0.1-0.1 0 0-0.1 0-0.1 0-0.1 0.1-0.1 0-0.1 0-0.1 0-0.1 0-0.1 0.1-0.2 0-0.1 0-0.1 0-0.1 0.1 0 0-0.1 0.1 0 0.1-0.1 0-0.1 0-0.1 0-0.1 0-0.1-0.1 0 0-0.1 0.1 0 0-0.1 0.1 0 0-0.1 0-0.1 0.1 0 0-0.1 0-0.1 0.1 0 0 0.1 0.1 0z" id="SC15" name="La Digue">
  </path>
  <path d="M885.6 117.1l0 0.1 0 0.1 0 0.1-0.1 0 0.1 0 0 0.1-0.1 0 0 0.1-0.1 0.1-0.1 0 0 0.1 0 0.1-0.1 0 0.1 0-0.1 0 0 0.1-0.1 0 0 0.1 0 0.1 0-0.1-0.1 0-0.1 0-0.1 0-0.1 0 0-0.1 0-0.1-0.1 0 0-0.1-0.1 0-0.1 0-0.1 0-0.1 0-0.1-0.1-0.1 0.1-0.1 0 0-0.1-0.1 0-0.1 0-0.1 0 0-0.1-0.1 0-0.1 0-0.1-0.1-0.1 0 0.1-0.1 0.1-0.1 0.1-0.1 0-0.1 1-0.1 0.1 0 0.2 0 0.1 0.1 0.2 0.1 0.1 0 0-0.1 0.1 0 0.1 0 0.1 0 0.1 0z" id="SC01" name="Anse Aux Pins">
  </path>
  <path d="M881.5 117l0.1 0 0.1 0 0.1 0.1 0.1 0 0.1 0 0.1 0 0 0.1 0.1 0 0 0.1 0.1 0.1 0.1 0.1 0 0.1 0.1 0 0.2 0 0.1 0 0.1 0 0 0.1 0.1 0.1 0 0.1 0.1 0 0 0.1 0 0.1 0.1 0.6-0.1 0.1 0 0.1 0 0.1-0.1 0.1 0 0.1 0.1 0 0.1 0.2 0 0.1 0.1 0.1 0 0.1 0.1 0.1 0 0.1 0.1 0.1-0.1 0.1 0 0.1 0 0.2-0.1 0.1 0 0.1 0 0.1 0 0.1-0.1 0.2 0 0.1 0 0.1 0 0.1 0.1 0.1 0 0.1-0.1 0.1 0.1 0.1-0.1 0-0.1 0-0.1 0 0.1 0.1 0 0.1 0.1 0-0.1 0-0.1 0 0 0.1-0.1 0 0.1 0 0-0.1-0.1 0-0.1 0 0-0.1-0.1 0-0.1 0 0-0.1 0 0.1 0-0.1-0.1 0-0.1 0-0.1 0-0.1 0 0-0.1 0-0.1-0.1 0 0-0.1 0-0.1-0.1 0 0-0.1-0.1 0-0.1 0 0-0.1-0.1 0 0-0.1-0.1 0 0-0.1-0.1 0-0.1 0 0-0.1-0.1 0-0.1 0 0-0.1-0.1 0 0-0.1 0-0.1 0 0.1 0-0.1 0-0.1 0.1 0-0.1 0 0.1 0 0-0.1 0-0.1 0-0.1-0.1 0-0.1 0 0-0.1-0.1 0 0-0.1 0.1 0 0.1 0 0-0.1 0 0.1 0.1 0 0 0.1 0.1 0 0-0.1 0.1 0 0-0.1 0-0.1 0-0.1 0-0.1 0-0.1-0.1 0 0-0.1-0.1 0 0-0.1 0-0.1-0.1 0-0.1-0.1 0-0.1-0.1 0-0.1 0 0-0.1 0.1 0 0-0.1-0.1 0 0-0.1 0-0.1 0.1 0 0.1 0 0.1-0.1 0-0.1 0.1 0 0.1 0 0.1-0.2 0.2-0.2 0.1-0.1 0-0.1 0.1-0.2 0-0.1-0.1-0.1-0.1-0.1-0.1-0.1 0-0.1-0.1 0 0.1 0z" id="SC02" name="Anse Boileau">
  </path>
  <path d="M883.2 117.5l0.1 0 0.1 0.1 0.1 0 0.1 0 0 0.1 0.1 0 0.1 0 0.1 0 0 0.1 0.1 0 0.1-0.1 0.1 0.1 0.1 0 0.1 0 0.1 0 0.1 0 0 0.1 0.1 0 0 0.1 0 0.1 0.1 0 0.1 0 0.1 0 0.1 0 0 0.1 0 0.1 0 0.1-0.1 0 0 0.1-0.1 0.1 0 0.1 0 0.1 0.1 0-0.1 0 0 0.1 0 0.1 0-0.1 0 0.1 0 0.1 0 0.1-0.1 0 0 0.1 0.1 0-0.1 0 0.1 0 0 0.1 0 0.1 0 0.1 0.1 0 0 0.1 0 0.1 0.1 0-0.1 0 0.1 0 0 0.1 0 0.1 0 0.1 0 0.1 0 0.1 0 0.1 0 0.1 0.1 0 0 0.1 0 0.1 0 0.1 0 0.1 0.1 0 0 0.1 0 0.1 0 0.1-0.1 0 0.1 0 0 0.1 0 0.1 0.1 0 0.1 0 0 0.1 0-0.1 0.1 0 0 0.1 0.1 0 0 0.1-0.1 0 0-0.1-0.1 0 0 0.1 0-0.1 0 0.1-0.1 0 0 0.1-0.1 0-0.4-0.2-0.3-0.1 0-0.1 0-0.1-0.1-0.1-0.1 0-0.1 0 0-0.1-0.1-0.1 0-0.2 0-0.2-0.1-0.2-0.1-0.2 0-0.1-0.1 0-0.1 0.1-0.1 0-0.1-0.1-0.1 0-0.1-0.1 0-0.1-0.1-0.1 0-0.1-0.1-0.1 0-0.1-0.1-0.2-0.1 0 0-0.1 0.1-0.1 0-0.1 0-0.1 0.1-0.1-0.1-0.6 0-0.1 0-0.1-0.1 0 0-0.1-0.1-0.1 0.1-0.1 0.1 0 0-0.1 0.1 0z" id="SC04" name="Au Cap">
  </path>
  <path d="M879.7 107.5l0 0.1 0.1 0 0 0.1 0 0.1 0.1 0 0 0.1 0 0.1 0 0.1-0.1 0 0 0.1-0.1 0-0.1 0-0.1 0 0 0.1 0 0.1 0 0.1-0.1 0 0 0.1 0 0.1 0 0.1-0.1 0-0.1 0 0-0.1 0 0.1 0 0.1 0-0.1-0.1 0 0 0.1 0 0.1 0 0.1 0.1 0-0.1 0 0 0.1 0-0.1 0.1 0 0 0.1 0 0.1-0.1-0.1 0 0.1 0.1 0 0 0.1 0 0.1 0.1 0 0 0.1 0.1 0 0 0.1 0 0.1 0.1 0-0.1 0 0.1 0-0.1 0 0.1 0 0 0.1-0.1 0 0 0.1 0.1 0-0.1 0-0.1-0.1-0.1-0.1-0.1 0-0.1 0-0.1 0 0.1 0 0 0.1-0.1 0 0 0.1-0.2 0-0.1 0.1-0.2 0-0.1 0.1-0.1-0.2-0.3 0.1 0-0.1-0.2-0.3 0-0.1 0-0.1 0.1-0.1 0-0.1-0.1 0 0.1-0.1-0.1 0-0.1-0.1 0-0.1 0-0.1 0.1 0 0-0.1 0.1 0 0-0.1 0-0.1 0-0.1 0-0.1 0-0.1 0.1 0 0-0.1 0-0.1 0.2-0.4 0.3-0.1 0.1 0 0.1-0.3 0.2 0.2 0.1 0.1 0.1 0 0.1 0.1 0.2 0.1 0.1 0 0-0.1 0-0.1 0.1 0 0-0.1 0.1 0 0.1 0z" id="SC03" name="Anse Etoile">
  </path>
  <path d="M883.2 121.9l-0.1 0 0-0.1-0.1-0.1 0.1 0 0.1 0 0.1 0-0.1-0.1 0.1-0.1 0-0.1-0.1-0.1 0-0.1 0-0.1 0-0.1 0.1-0.2 0-0.1 0-0.1 0-0.1 0.1-0.1 0-0.2 0-0.1 0.1-0.1 0.1 0 0.1 0.1 0.1 0 0.1-0.1 0.1 0 0 0.1 0.1 0.2 0.1 0.2 0 0.2 0 0.2 0.1 0.1 0 0.1 0.1 0 0.1 0 0.1 0.1 0 0.1 0 0.1 0.3 0.1 0.4 0.2-0.1 0 0 0.1 0 0.1 0-0.1-0.1 0 0 0.1 0-0.1-0.1 0 0 0.1 0-0.1 0 0.1-0.1 0 0 0.1-0.1 0-0.1 0 0 0.1-0.1 0 0 0.1 0 0.1-0.1 0 0 0.1 0 0.1 0 0.1-0.1 0 0 0.1 0 0.1 0 0.1 0 0.1 0 0.1 0 0.1 0 0.1 0 0.1 0.1 0 0 0.1 0 0.1 0 0.1 0.1 0 0 0.1 0.1 0 0 0.1 0 0.1 0 0.1-0.1 0-0.1 0 0 0.1-0.1 0-0.1 0 0 0.1-0.1 0-0.1 0.1 0-0.1-0.1 0 0-0.1-0.1 0 0-0.1-0.1 0 0-0.1-0.1 0 0-0.1 0-0.1-0.1 0 0-0.1-0.1 0 0-0.1-0.1-0.1 0-0.1 0.1 0 0.1 0 0.1 0 0-0.1-0.1-0.1 0-0.2-0.1-0.1-0.1-0.1 0-0.1-0.1 0 0-0.1-0.1 0 0-0.1 0-0.1 0-0.1-0.1 0 0-0.1 0.1-0.1 0-0.1 0-0.1z" id="SC05" name="Anse Royale">
  </path>
  <path d="M879.1 111.9l0 0.1 0 0.1-0.1 0-0.1 0-0.1 0 0 0.1-0.1 0 0-0.1-0.1 0-0.1 0-0.1 0-0.1 0-0.1 0 0 0.1 0.1 0-0.1 0.1 0.1 0 0.1 0 0 0.1 0.1 0-0.1 0 0 0.1 0 0.1 0.1 0 0 0.1 0 0.1 0.1 0 0 0.1 0.1 0 0-0.1 0.1 0.1 0.1 0 0.1 0 0 0.1-0.1 0 0-0.1 0 0.1 0 0.1 0.1 0 0 0.1 0.1 0.1 0 0.1 0 0.1-0.1 0.1 0 0.1-0.1 0 0 0.1-0.1 0.1 0 0.1 0 0.1-0.1 0.1 0 0.1-0.1 0.1 0 0.1-0.1 0 0-0.1-0.1 0 0-0.1-0.1 0 0.1-0.1-0.1 0-0.1 0-0.1 0-0.1 0 0.1-0.1 0.1 0 0.1 0 0-0.1-0.1 0 0-0.1-0.1 0-0.1-0.1-0.1 0-0.1 0 0-0.1-0.1 0-0.1 0 0-0.1 0-0.1 0.1-0.1 0.2-0.6-0.1-0.2-0.2-0.1 0-0.1 0-0.1 0-0.1-0.1 0-0.1 0 0.1-0.1 0.1 0 0-0.1 0.1 0 0.1 0 0-0.1 0.1-0.1 0-0.1 0.1 0 0.1 0 0.1 0 0-0.1 0-0.1 0.1 0 0.1 0 0.1 0 0.2 0 0 0.1 0-0.1 0.1 0 0.1 0 0.1 0 0.1 0 0-0.1 0-0.1 0-0.1 0-0.1 0.1 0 0.1 0 0 0.1-0.1 0 0 0.1 0.1 0 0 0.1 0 0.1 0.1 0 0-0.1 0.1 0 0 0.1 0 0.1-0.1 0.1 0-0.1-0.1 0-0.1 0-0.1 0-0.1 0 0 0.1 0 0.1 0 0.1 0.1 0z" id="SC09" name="Bel Air">
  </path>
  <path d="M882.2 121.7l0.1 0 0.1 0 0.1 0 0.1 0 0 0.1 0-0.1 0 0.1 0.1 0 0.1 0 0 0.1 0.1 0 0.1 0 0 0.1-0.1 0 0.1 0 0-0.1 0.1 0 0.1 0 0 0.1 0 0.1-0.1 0.1 0 0.1 0.1 0 0 0.1 0 0.1 0 0.1 0.1 0 0 0.1 0.1 0 0 0.1 0.1 0.1 0.1 0.1 0 0.2 0.1 0.1 0 0.1-0.1 0-0.1 0-0.1 0 0 0.1 0.1 0.1 0 0.1 0.1 0 0 0.1 0.1 0 0 0.1 0 0.1 0.1 0 0 0.1 0 0.1 0 0.1-0.1 0 0.1 0 0 0.1 0 0.1 0.1 0 0 0.1-0.1 0 0 0.1 0.1 0 0.2 0.1-0.6-0.1-0.1-0.1-0.2 0-0.2-0.1-0.3 0-0.2 0-0.3 0-0.1 0-0.1 0-0.6 0.1 0-0.1 0.1 0 0.1 0 0-0.1 0.1 0 0-0.1 0-0.1 0-0.1 0-0.1 0-0.1-0.1 0-0.1 0 0-0.1-0.1 0 0-0.1-0.1 0 0-0.1-0.1 0-0.1 0-0.1 0-0.1 0-0.1 0 0 0.1-0.1 0-0.1 0 0 0.1 0 0.1 0 0.1-0.1 0-0.1 0-0.1 0 0 0.1-0.1 0 0 0.1 0.1 0 0 0.1 0-0.1 0 0.1 0 0.1-0.1 0-0.1 0 0 0.1 0 0.1 0-0.1-0.1 0 0-0.1 0-0.1 0 0.1 0-0.1 0-0.1-0.1 0 0-0.1-0.1 0 0-0.1-0.1 0 0-0.1-0.1 0 0-0.1-0.1 0 0.1 0-0.1 0 0.1 0-0.1 0 0-0.1 0-0.1 0-0.1 0.1 0 0.1 0 0 0.1 0.1 0 0-0.1 0-0.1 0.1 0 0-0.1-0.1 0 0-0.1 0-0.1-0.1 0 0-0.1-0.1 0 0-0.1-0.1 0 0.1 0 0-0.1 0-0.1 0.1 0 0.1 0 0-0.1 0.1 0 0 0.1 0-0.1 0-0.1 0.1 0-0.1 0 0-0.1 0-0.1 0.1 0 0-0.1 0.1 0 0 0.1 0-0.1 0.1 0 0 0.1 0.1 0 0-0.1 0.1 0 0 0.1 0.1 0 0.1 0 0 0.1 0-0.1 0.1 0 0 0.1 0 0.1 0-0.1 0.1 0.1 0-0.1 0 0.1 0.1 0 0-0.1 0.1 0 0-0.1 0.1 0 0.1 0 0-0.1 0.1 0 0.1 0 0.1 0 0 0.1 0.1 0 0-0.1 0 0.1 0.1 0 0-0.1 0.1 0 0 0.1 0-0.1 0 0.1 0-0.1 0.1 0 0.1 0 0-0.1 0.1 0-0.1 0 0.1 0 0-0.1 0.1 0 0-0.1 0-0.1 0-0.1z" id="SC06" name="Baie Lazare">
  </path>
  <path d="M876.1 110.9l0 0.1 0.1 0 0 0.1 0.1 0 0.1 0 0.1-0.1 0.1 0.1 0.1 0 0 0.1 0.1 0 0.1 0.1 0 0.1-0.1 0-0.1 0.1 0-0.1-0.1 0-0.1 0 0 0.1 0.1 0 0 0.1 0.1 0 0 0.1 0 0.1 0.1 0.1-0.2 0 0 0.1-0.2 0.1-0.1 0-0.1 0-0.1-0.1 0 0.1 0 0.1-0.1 0.1-0.1 0 0 0.1-0.1 0-0.1 0-0.1 0-0.1 0-0.1 0-0.1 0-0.1 0-0.1 0 0.1 0 0 0.1 0 0.1 0 0.1 0 0.1 0 0.1 0.1 0.1 0 0.1 0 0.1-0.1-0.1-0.1-0.1-0.1 0-0.1 0-0.1 0-0.1 0-0.1 0-0.1 0.1 0 0.1 0.1 0 0 0.1 0.1 0 0 0.1-0.1 0 0 0.1-0.1 0-0.1 0 0 0.1-0.1 0 0 0.1-0.1 0-0.1-0.1-0.1-0.1 0-0.1-0.1 0 0-0.1-0.1-0.1 0-0.1-0.1-0.1-0.1-0.1 0-0.1-0.1-0.1-0.1-0.1-0.1 0 0-0.1-0.1 0-0.1-0.1 0-0.1-0.1 0 0-0.1 0-0.1-0.1 0-0.1-0.1-0.1-0.1 0-0.1 0-0.1 0.1 0-0.1 0 0-0.1 0 0.1 0-0.1 0-0.1 0 0.1 0-0.1 0.1 0 0.1 0 0-0.1 0.1 0 0.1 0 0-0.1 0.1 0 0.1 0 0.1 0 0.1 0 0-0.1 0.1 0 0-0.1 0.1 0 0.1 0 0.1 0 0 0.1 0.1 0 0-0.1 0.1 0 0 0.1 0.1 0 0-0.1-0.1 0 0.1 0 0 0.1 0-0.1 0.1 0 0 0.1 0.1 0 0.1 0 0.1 0 0.1 0 0.1 0 0-0.1 0.1 0 0.1 0 0.1 0 0-0.1 0.1 0 0.1 0 0.1 0 0-0.1 0.1 0 0-0.1 0.1 0 0.1 0 0.1 0-0.1 0 0 0.1 0.1 0 0-0.1 0 0.1 0.1 0 0.1 0 0.1 0z" id="SC10" name="Belombre">
  </path>
  <path d="M877.7 108.8l0 0.1-0.1 0 0 0.1 0 0.1 0.1 0.1 0.1 0-0.1 0.1 0.1 0 0 0.1-0.1 0.1 0 0.1 0 0.1 0.2 0.3 0 0.1 0.3-0.1 0.1 0.2-0.2 0.1-0.2 0.2-0.1 0.1-0.1 0.1-0.1 0.1 0 0.1-0.1 0.1 0 0.1 0 0.1 0.1 0.1 0.1 0 0 0.1 0 0.1-0.1 0 0 0.1 0-0.1-0.1 0-0.1 0-0.1 0.1-0.2 0.1-0.1 0.1-0.2 0.1 0.1 0.1-0.1 0 0-0.1-0.1-0.1 0-0.1 0-0.1-0.1 0 0-0.1-0.1 0 0-0.1 0.1 0 0.1 0 0 0.1 0.1-0.1 0.1 0 0-0.1-0.1-0.1-0.1 0 0-0.1-0.1 0-0.1-0.1-0.1 0.1-0.1 0-0.1 0 0-0.1-0.1 0 0-0.1 0.1 0 0.1 0 0-0.1 0.1 0 0-0.1 0.1 0 0.1 0 0-0.1 0.1-0.1 0-0.1 0.1 0 0-0.1 0-0.1 0-0.1 0-0.1 0-0.1 0-0.1 0-0.1 0-0.1 0.1 0-0.1 0 0.1 0 0-0.1 0-0.1 0-0.1 0-0.1 0-0.1 0-0.1 0-0.1 0.1 0 0-0.1 0.1 0 0.1 0 0.1 0 0.1 0 0.1 0 0.1 0.1 0-0.1 0.1 0z" id="SC08" name="Beau Vallon">
  </path>
  <path d="M883.5 117.1l0 0.1-0.1 0.1-0.1 0.1-0.1 0.1-0.1 0 0 0.1-0.1 0-0.1 0.1 0-0.1-0.1 0-0.1 0-0.2 0-0.1 0 0-0.1-0.1-0.1-0.1-0.1 0-0.1-0.1 0 0-0.1-0.1 0-0.1 0-0.1 0-0.1-0.1-0.1 0-0.1 0-0.1-0.1-0.1 0.1-0.1-0.1 0-0.1-0.1-0.1 0-0.1-0.1 0 0-0.2 0.1-0.2 0-0.3 0.1 0 0-0.1 0-0.1-0.1 0 0-0.1 0-0.1-0.1-0.1-0.1 0 0-0.1-0.1 0 0-0.1-0.1-0.1 0-0.1-0.1 0-0.1-0.1-0.1-0.1-0.1-0.1-0.1 0-0.1 0 0.1 0 0.1 0 0.1 0 0.1-0.1 0.1 0 0.1 0 0.1 0 0.1-0.1 0.1 0 0-0.1 0.1 0 0.1 0 0-0.1 0.1 0 0 0.1-0.1 0 0.1 0 0 0.1 0 0.1 0.1 0 0.1 0 0.1 0 0-0.1 0.1 0 0-0.1-0.1 0-0.1-0.1-0.1 0 0-0.1 0-0.1 0-0.1-0.1 0 0.1 0 0 0.1 0-0.1 0.1 0 0.1 0 0.1 0 0 0.1 0.1 0 0 0.1 0.1 0 0.1 0 0 0.1 0.1 0 0-0.1 0.1 0 0 0.1-0.1 0 0 0.1-0.1 0 0 0.1 0.1 0 0 0.1 0.1 0 0-0.1 0.1 0 0-0.1 0 0.1 0.1 0 0.1 0 0 0.1 0.1 0 0 0.1 0.1 0-0.1 0.1 0.1 0 0 0.1 0.1 0 0 0.1 0.1 0 0.1 0 0.1 0.1-0.1 0 0 0.1-0.1 0-0.1 0 0-0.1-0.1 0-0.1 0 0 0.1 0.1 0 0 0.1 0.1 0 0 0.1 0 0.1 0.1 0 0.1 0 0-0.1 0.1 0 0-0.1 0.1 0 0 0.1 0.1 0 0 0.1 0.1 0 0 0.1 0.1 0 0.1 0 0.1 0 0-0.1 0-0.1 0.2 0.2 0 0.1 0 0.1 0 0.1 0 0.1 0.1 0 0.1 0 0 0.1 0 0.1-0.2 0.2 0 0.2-0.1 0-0.3 0.5z" id="SC11" name="Cascade">
  </path>
  <path d="M879.7 107.5l-0.1 0-0.1 0 0 0.1-0.1 0 0 0.1 0 0.1-0.1 0-0.2-0.1-0.1-0.1-0.1 0-0.1-0.1-0.2-0.2-0.1 0.3-0.1 0-0.3 0.1-0.2 0.4 0 0.1 0 0.1-0.1 0 0 0.1 0 0.1 0 0.1 0 0.1 0 0.1-0.1 0-0.1 0 0 0.1-0.1-0.1-0.1 0-0.1 0-0.1 0-0.1 0-0.1 0 0 0.1-0.1 0 0-0.1-0.1 0 0-0.1 0.1 0-0.1 0 0-0.1 0 0.1 0.1 0 0-0.1-0.1 0 0.1 0 0-0.1 0-0.1 0-0.1 0-0.1-0.1 0 0-0.1 0 0.1 0-0.1 0 0.1 0.1 0 0-0.1 0 0.1 0-0.1 0.1 0-0.1 0 0-0.1 0-0.1 0-0.1 0.1 0-0.1 0 0-0.1 0.1 0 0-0.1 0-0.1 0-0.1-0.1 0 0-0.1 0-0.1 0-0.1 0.1 0 0-0.1 0-0.1-0.1 0 0-0.1 0-0.1 0-0.1 0.1 0 0.1 0 0-0.1-0.1 0 0-0.1 0-0.1 0-0.1-0.1 0 0.1 0-0.1 0 0.1 0 0-0.1 0.1 0 0.1 0 0-0.1 0.1 0 0.1 0 0 0.1 0-0.1 0 0.1 0.1 0 0-0.1 0-0.1 0.1 0 0 0.1 0 0.1 0.1 0-0.1 0 0 0.1 0.1 0 0.1 0 0 0.1 0.1 0 0-0.1 0 0.1 0.1 0 0.1 0 0-0.1 0 0.1 0.1 0 0.1 0 0-0.1 0.1 0 0-0.1 0.1 0 0 0.1 0.1 0 0.1 0 0 0.1 0 0.1 0.1 0-0.1 0 0.1 0 0 0.1 0.1 0 0.1 0 0-0.1 0.1 0 0 0.1 0-0.1 0 0.1 0.1 0-0.1 0 0 0.1 0 0.1 0.1 0 0 0.1 0.1 0 0 0.1 0.1 0 0 0.1 0.1 0 0 0.1 0.1 0-0.1 0 0 0.1 0.1 0 0 0.1 0 0.1 0.1 0 0 0.1z" id="SC12" name="Glacis">
  </path>
  <path d="M881.5 117l-0.1 0 0.1 0 0 0.1 0.1 0.1 0.1 0.1 0.1 0.1 0 0.1-0.1 0.2 0 0.1-0.1 0.1-0.2 0.2-0.1 0.2-0.1 0-0.1 0 0 0.1-0.1 0.1-0.1 0-0.1 0 0 0.1 0 0.1 0.1 0 0 0.1-0.1 0 0 0.1-0.1 0-0.1 0-0.1 0 0 0.1 0.1 0.1-0.1 0 0 0.1-0.1 0 0 0.1-0.1 0-0.1 0 0-0.1-0.1 0 0-0.1-0.1 0 0-0.1 0 0.1 0-0.1-0.1 0 0.1 0 0-0.1 0-0.1-0.1 0 0-0.1-0.1 0-0.1 0 0-0.1-0.1 0 0 0.1 0.1 0-0.1 0 0-0.1 0.1 0-0.1 0 0-0.1-0.1 0-0.1 0 0-0.1 0-0.1 0-0.1 0-0.1-0.1 0 0.1 0-0.1 0 0-0.1-0.1 0-0.1 0 0-0.1 0-0.1-0.1 0 0-0.1 0.1 0 0-0.1 0.1 0 0-0.1 0-0.1-0.1 0 0-0.1 0-0.1-0.1 0 0-0.1-0.1 0 0-0.1-0.1 0-0.1 0 0 0.1 0.1 0-0.1 0 0 0.1-0.1 0 0-0.1 0-0.1-0.1 0 0-0.1 0.1 0 0 0.1 0.1 0 0-0.1-0.1 0 0-0.1 0-0.1-0.1 0 0.1 0-0.1 0 0-0.1-0.1 0 0-0.1-0.1 0-0.1 0 0-0.1-0.1 0-0.1 0-0.1 0 0-0.1-0.1 0-0.1 0 0-0.1 0-0.1-0.1 0-0.1 0-0.1 0 0-0.1 0-0.1 0.1 0 0-0.1 0-0.1 0-0.1 0.2-0.1 0.5 0 0-0.1 0-0.1 0-0.1 0.1-0.1 0-0.1 0.1-0.1 0-0.1 0-0.1 0-0.1 0.1 0 0-0.1 0.1 0 0 0.1 0.1 0 0 0.1 0 0.1 0.1 0 0.1 0 0.1 0 0.1 0 0.2 0.1 0.2 0.2 0.3 0.1 0.2 0.2 0 0.1 0.1 0 0.1 0 0-0.1 0-0.1-0.1 0 0-0.1 0-0.1-0.1 0 0-0.1 0.1 0-0.1 0 0-0.1 0-0.1 0-0.1 0.1 0 0.1 0 0.1 0 0.1 0.1 0.1 0.1 0.1 0.1 0.1 0 0 0.1 0.1 0.1 0 0.1 0.1 0 0 0.1 0.1 0 0.1 0.1 0 0.1 0 0.1 0.1 0 0 0.1 0 0.1-0.1 0 0 0.3-0.1 0.2 0 0.2 0.1 0 0 0.1 0.1 0.1 0 0.1 0.1 0.1 0.1-0.1 0.1 0.1z" id="SC13" name="Grand Anse Mahe">
  </path>
  <path d="M881.2 114.4l-0.1 0-0.1 0 0 0.1-0.1 0-0.1 0.1-0.1 0-0.1 0-0.1 0-0.1 0.1-0.1 0-0.1 0-0.1 0-0.1 0 0-0.1-0.1 0-0.1 0 0-0.1 0.1 0 0-0.1-0.1 0 0-0.1 0.1 0 0-0.1 0-0.1 0.1 0 0-0.1-0.1 0 0-0.1 0.1 0 0-0.1-0.1 0 0-0.1 0-0.1-0.1-0.1 0-0.1 0-0.1-0.1 0 0-0.1 0.1-0.1 0.1 0 0 0.1 0.1 0 0 0.1 0.1 0 0 0.1 0.1 0 0 0.1 0.1 0 0.1 0.1 0.1 0 0 0.1 0.1 0 0 0.1 0 0.1 0 0.1 0.1 0 0.1 0 0 0.1 0.1 0 0.1 0.1 0 0.1 0.1 0 0.1 0 0 0.1z" id="SC24" name="Les Mamelles">
  </path>
  <path d="M878.3 110.2l0.1 0.1 0.1 0.1 0 0.1 0.1 0.1 0 0.1 0.1 0 0 0.1 0.1 0 0 0.1-0.2 0-0.1 0 0 0.1 0 0.1 0.1 0-0.1 0 0 0.1 0 0.1-0.1 0-0.1 0-0.1 0.1 0-0.1 0-0.1-0.1 0-0.1-0.1-0.1 0-0.1 0-0.1 0-0.1 0-0.1 0 0 0.1 0-0.1 0-0.1 0.1-0.1 0-0.1 0.1-0.1 0.1-0.1 0.1-0.1 0.2-0.2 0.2-0.1z" id="SC17" name="Mont Buxton">
  </path>
  <path d="M883.5 113.1l0 0.1-0.1 0-0.1 0 0.1 0 0-0.1 0.1 0z m-4.4 0.2l-0.1-0.1 0-0.1-0.1 0 0-0.1 0-0.1 0 0.1 0.1 0 0-0.1-0.1 0-0.1 0-0.1-0.1 0 0.1-0.1 0 0-0.1-0.1 0 0-0.1 0-0.1-0.1 0 0-0.1 0-0.1 0.1 0-0.1 0 0-0.1-0.1 0-0.1 0 0.1-0.1-0.1 0 0-0.1 0.1 0 0.1 0 0.1 0 0.1 0 0.1 0 0 0.1 0.1 0 0-0.1 0.1 0 0.1 0 0.1 0 0.1 0-0.1 0 0 0.1 0.1 0 0.1 0 0 0.1 0.1 0 0.1 0 0 0.1 0.1 0 0 0.1 0.1 0 0 0.1-0.1 0 0 0.1-0.1 0-0.1 0.1-0.1 0.1 0 0.1-0.1 0 0 0.1 0 0.1 0 0.1-0.1 0z m3.4-1.3l0.1 0 0 0.1 0.1 0 0.1 0 0 0.1 0 0.1 0.1 0 0.1-0.1 0.1 0 0.1 0 0 0.1 0.1 0-0.1 0 0.1 0 0 0.1 0.1 0 0 0.1 0 0.1 0 0.1 0.1 0 0 0.1 0 0.1 0 0.1-0.1 0-0.1 0.1-0.1 0-0.1 0-0.1 0 0-0.1-0.1 0-0.1 0 0-0.1 0-0.1-0.1 0 0-0.1-0.1 0-0.1 0 0-0.1-0.1 0-0.1 0-0.1 0 0-0.1 0-0.1 0-0.1 0.1 0 0-0.1 0-0.1 0.1 0-0.1 0 0.1 0 0-0.1 0.1 0z m-3.4 0.1l0-0.1 0-0.1 0.1 0 0.1 0 0.1 0 0-0.1 0.1 0 0.1-0.1 0 0.1 0.1 0 0 0.1 0.1 0 0 0.1 0.1 0 0.1 0-0.1 0 0.1 0 0 0.1-0.1 0 0 0.1-0.1 0 0 0.1-0.1 0 0 0.1-0.1 0 0 0.1 0.1 0-0.1 0 0-0.1-0.1 0 0-0.1-0.1 0 0-0.1-0.1 0-0.1 0 0-0.1-0.1 0z m4.5-0.4l0.1 0 0 0.1 0.1 0 0.1 0 0.1 0-0.1 0 0.1 0 0 0.1 0.1 0 0 0.1 0 0.1-0.1 0-0.1 0-0.1 0 0-0.1-0.1 0-0.1 0 0-0.1-0.1 0 0-0.1 0-0.1 0.1 0z m-0.3-0.3l0.1 0 0 0.1-0.1 0-0.1 0 0-0.1 0.1 0z m0.5-0.3l0 0.1 0.1-0.1 0 0.1 0.1 0-0.1 0 0 0.1-0.1 0 0 0.1-0.1 0-0.1 0 0-0.1 0.1-0.1 0-0.1 0.1 0z m-0.6-1.9l0.1 0 0.1 0.1 0.1 0 0 0.1 0-0.1 0 0.1 0.1 0 0.1 0 0.1 0.1 0-0.1 0 0.1 0.1 0 0.1 0 0 0.1 0-0.1 0.1 0 0 0.1 0-0.1 0 0.1 0 0.1 0.1 0-0.1 0 0.1 0 0 0.1 0 0.1 0 0.1-0.1 0-0.1 0-0.1 0.1 0 0.1-0.1 0 0 0.1 0-0.1 0 0.1-0.1 0 0 0.1 0.1 0-0.1 0-0.1 0 0 0.1-0.1 0-0.1 0-0.1 0-0.1 0-0.1 0 0 0.1-0.1 0 0 0.1-0.1 0 0 0.1 0-0.1 0 0.1-0.1 0-0.1 0 0-0.1-0.1 0 0-0.1 0-0.1 0.1 0 0-0.1 0-0.1 0.1 0 0-0.1 0-0.1 0-0.1-0.1 0 0-0.1 0-0.1 0-0.1 0-0.1 0.1 0 0-0.1 0.1 0 0-0.1 0.1 0 0 0.1 0.1 0 0-0.1 0.1 0 0-0.1-0.1 0 0.1-0.1z" id="SC18" name="Mont Fleuri">
  </path>
  <path d="M878.5 114.5l0.1 0 0-0.1 0.1-0.1 0-0.1 0.1-0.1 0-0.1 0-0.1 0.1-0.1 0-0.1 0.1 0 0-0.1 0.1-0.1 0-0.1 0-0.1 0.1 0 0-0.1 0-0.1 0-0.1 0.1 0 0-0.1 0.1-0.1 0.1-0.1 0.1 0 0-0.1 0.1 0 0-0.1 0 0.1 0 0.1 0.1 0-0.1 0 0 0.1 0 0.1 0.1 0.1 0 0.1 0.1 0-0.1 0-0.1 0.1 0 0.1 0.1 0 0 0.1 0 0.1 0.1 0.1 0 0.1 0 0.1 0.1 0 0 0.1-0.1 0 0 0.1 0.1 0 0 0.1-0.1 0 0 0.1 0 0.1-0.1 0 0 0.1 0.1 0 0 0.1-0.1 0 0 0.1 0.1 0 0.1 0 0 0.1 0 0.1 0 0.1 0 0.1 0.1 0-0.1 0 0 0.1 0.1 0 0 0.1 0 0.1 0.1 0 0 0.1 0 0.1-0.1 0-0.1 0 0-0.1-0.2-0.2-0.3-0.1-0.2-0.2-0.2-0.1-0.1 0-0.1 0-0.1 0-0.1 0 0-0.1 0-0.1-0.1 0 0-0.1-0.1 0z" id="SC19" name="Plaisance">
  </path>
  <path d="M877.4 112.2l0.1 0 0.1 0 0 0.1 0 0.1 0 0.1 0.2 0.1 0.1 0.2-0.2 0.6-0.1 0.1 0 0.1 0 0.1 0.1 0 0.1 0 0 0.1 0.1 0 0.1 0 0.1 0.1 0.1 0 0 0.1 0.1 0 0 0.1-0.1 0-0.1 0-0.1 0.1 0.1 0 0.1 0 0.1 0 0.1 0-0.1 0.1 0.1 0 0 0.1 0.1 0 0 0.1 0 0.1-0.1 0 0 0.1 0 0.1 0 0.1-0.1 0.1 0 0.1-0.1 0.1 0 0.1 0 0.1 0 0.1-0.5 0-0.2 0.1 0 0.1 0 0.1 0 0.1-0.1 0 0 0.1 0 0.1 0.1 0 0.1 0 0.1 0 0 0.1 0 0.1 0.1 0 0.1 0 0 0.1 0-0.1-0.1 0 0 0.1-0.1 0 0 0.1-0.1 0 0 0.1 0-0.1-0.1 0-0.1 0-0.1 0 0.1 0-0.1 0 0-0.1 0 0.1 0-0.1 0 0.1-0.1 0-0.1 0 0 0.1 0-0.1-0.1 0-0.1 0 0.1 0-0.1 0 0-0.1 0.1 0-0.1 0-0.1 0 0-0.1-0.1 0 0-0.1-0.1 0 0 0.1-0.1 0-0.1 0 0-0.1-0.1 0-0.1 0 0-0.1-0.1 0 0-0.1-0.1 0-0.1 0 0.1 0 0-0.1-0.1 0 0.1 0-0.1 0 0.1 0-0.1 0 0-0.1-0.1 0 0-0.1 0-0.1 0 0.1 0.1 0 0-0.1-0.1 0 0-0.1-0.1 0 0 0.1-0.1 0 0.1 0 0-0.1-0.1 0 0-0.1 0-0.1-0.1 0-0.1 0 0-0.1-0.1 0-0.1 0-0.1 0 0-0.1-0.1 0 0-0.1-0.1 0 0.1 0-0.1 0 0-0.1 0-0.1-0.1 0-0.1 0-0.1 0-0.1 0-0.1 0 0 0.1-0.1 0 0.1 0 0 0.1-0.1 0 0 0.1 0 0.1-0.1 0 0.1 0 0 0.1 0.1 0-0.1 0-0.1 0 0-0.1 0.1 0-0.1 0-0.1 0-0.1 0 0-0.1-0.1 0 0-0.1-0.1 0 0-0.1-0.1 0-0.1 0-0.1 0 0-0.1-0.1 0 0-0.1 0 0.1 0-0.1 0 0.1 0-0.1-0.1 0 0.1 0 0-0.1 0-0.1-0.1 0 0-0.1 0.1 0 0 0.1 0.1 0 0-0.1 0.1 0 0.1 0-0.1 0 0.1 0 0.1 0 0 0.1 0-0.1 0.1 0 0.1 0 0-0.1 0-0.1 0-0.1-0.1 0 0-0.1-0.1 0-0.1 0 0-0.1-0.1 0-0.1 0-0.1 0 0-0.1-0.1 0-0.1 0 0-0.1-0.1 0-0.1 0 0-0.1-0.1 0 0 0.1 0-0.1-0.1 0-0.1 0 0-0.1-0.1 0 0 0.1 0 0.1 0.1 0 0.1 0 0 0.1 0 0.1-0.1 0-0.1 0-0.1 0 0 0.1-0.1 0-0.1 0-0.1 0-0.1 0-0.1 0 0 0.1-0.1 0 0-0.1-0.1 0 0-0.1-0.1 0 0.1 0-0.1 0-0.1 0 0.1 0-0.1 0 0-0.1-0.1 0-0.1 0-0.1 0 0-0.1-0.1 0-0.1 0 0-0.1-0.1 0 0-0.1-0.1-0.1 0-0.1-0.1 0 0.1 0 0-0.1 0.1 0-0.1 0 0-0.1 0.1 0 0-0.1 0.1 0 0 0.1 0.1 0 0.1 0 0.1 0 0.1 0 0 0.1 0.1 0 0 0.1 0.1 0 0.1 0 0.1 0 0.1 0 0 0.1 0.1 0 0.1 0 0-0.1 0-0.1 0-0.1 0-0.1 0 0.1 0-0.1-0.1 0-0.1 0 0-0.1-0.1 0 0-0.1-0.1 0 0-0.1 0.1 0-0.1 0 0.1 0 0-0.1-0.1 0-0.1 0 0-0.1-0.1 0 0-0.1 0-0.1 0.1 0 0.1 0 0-0.1 0.1 0 0 0.1 0.1 0 0-0.1 0-0.1 0-0.1 0.1 0-0.1 0 0.1 0 0-0.1 0.1 0-0.1 0 0 0.1 0.1 0-0.1 0 0.1 0 0.1 0 0.1 0 0-0.1 0.1 0 0-0.1 0.1 0 0 0.1 0.1 0 0.1 0.1 0.1 0.1 0.1 0 0 0.1 0 0.1 0.1 0 0 0.1 0.1 0.1 0.1 0 0 0.1 0.1 0 0.1 0.1 0.1 0.1 0 0.1 0.1 0.1 0.1 0.1 0 0.1 0.1 0.1 0 0.1 0.1 0 0 0.1 0.1 0.1 0.1 0.1 0.1 0 0-0.1 0.1 0 0-0.1 0.1 0 0.1 0 0-0.1 0.1 0 0-0.1-0.1 0 0-0.1-0.1 0 0-0.1 0.1-0.1 0.1 0 0.1 0 0.1 0 0.1 0 0.1 0 0.1 0.1 0.1 0.1 0-0.1 0-0.1-0.1-0.1 0-0.1 0-0.1 0-0.1 0-0.1 0-0.1-0.1 0 0.1 0 0.1 0 0.1 0 0.1 0 0.1 0 0.1 0 0.1 0 0.1 0 0-0.1 0.1 0 0.1-0.1 0-0.1 0-0.1 0.1 0.1 0.1 0 0.1 0 0.2-0.1 0-0.1 0.2 0 0 0.1 0.1 0-0.1-0.1 0.1 0.1 0.2 0.1 0.2 0 0.1 0.1z" id="SC21" name="Port Glaud">
  </path>
  <path d="M885.6 117.1l-0.1 0-0.1 0-0.1 0-0.1 0 0 0.1-0.1 0-0.2-0.1-0.1-0.1-0.2 0-0.1 0-1 0.1 0.3-0.5 0.1 0 0-0.2 0.2-0.2 0-0.1 0-0.1-0.1 0-0.1 0 0-0.1 0-0.1 0-0.1 0-0.1-0.2-0.2 0.1 0 0-0.1 0 0.1 0.1 0 0.1 0 0 0.1 0.1 0 0 0.1 0.1 0 0.1 0 0 0.1 0.1 0 0 0.1 0.1 0 0.1 0 0 0.1 0.1 0 0 0.1 0.1 0 0 0.1 0.1 0 0.1 0 0.1 0 0 0.1-0.1 0 0.1 0 0 0.1 0.1 0 0.1 0 0 0.1 0.1 0 0 0.1 0.1 0 0.1 0 0-0.1 0.1 0-0.1 0 0 0.1-0.1 0 0.1 0 0 0.1 0.1 0 0.1 0 0-0.1 0-0.1 0.1 0-0.1 0 0-0.1 0.1 0 0-0.1 0.1 0 0.1 0 0 0.1 0 0.1-0.1 0 0.1 0 0 0.1-0.1 0 0 0.1 0 0.1 0.1 0 0 0.1-0.1 0 0 0.1 0 0.1 0-0.1 0 0.1-0.1 0-0.1 0-0.1 0 0 0.1-0.1 0z" id="SC20" name="Pointe Larue">
  </path>
  <path d="M881.2 114.3l0 0.1 0-0.1-0.1 0-0.1 0 0-0.1-0.1-0.1-0.1 0 0-0.1 0 0.1 0.1 0 0.1 0 0 0.1 0.1 0 0 0.1 0.1 0z m0.1-0.3l0 0.1-0.1 0-0.1 0 0-0.1-0.1 0-0.1 0 0-0.1-0.1 0 0-0.1 0.1-0.1 0.1 0 0 0.1 0.1 0 0-0.1 0 0.1-0.1 0 0.1 0 0 0.1 0.1 0 0 0.1 0.1 0z m-0.6 0l-0.1 0 0-0.1 0-0.1 0-0.1-0.1 0 0-0.1-0.1 0-0.1-0.1 0.1 0 0 0.1 0.1 0 0 0.1 0.1 0 0 0.1 0 0.1 0.1 0 0 0.1z m0.3-1.3l-0.1 0 0 0.1 0-0.1-0.1 0.1 0.1 0.1-0.1 0 0.1 0 0.1 0 0-0.1 0-0.1 0 0.1 0.1 0 0-0.1 0 0.1-0.1 0 0.1 0 0 0.1 0-0.1 0.1 0 0 0.1-0.1 0 0 0.1 0.1 0-0.1 0-0.1-0.1 0 0.1 0 0.1 0.1 0 0-0.1 0.1 0 0 0.1 0.1 0.1 0.1 0-0.1 0 0 0.1 0.1 0 0.1 0-0.1 0 0.1 0-0.1 0 0 0.1 0 0.1-0.1 0-0.1 0 0 0.1 0.1 0 0 0.1-0.1 0 0-0.1-0.1 0 0-0.1 0-0.1 0.1 0-0.1 0 0-0.1-0.1 0 0-0.1 0.1 0 0 0.1 0.1 0-0.1 0 0-0.1-0.1-0.1-0.1 0 0.1 0.1-0.1 0-0.1 0.1 0-0.1-0.1 0 0-0.1 0-0.1 0.1 0 0-0.1-0.1 0-0.1 0 0-0.1 0.1 0 0.1 0 0-0.1-0.1 0 0.1 0-0.1 0 0-0.1 0.1 0 0.1 0 0 0.1 0.1 0z m-0.7 0.8l-0.1 0 0-0.1-0.1 0 0-0.1-0.1 0 0-0.1-0.1 0 0-0.1-0.1 0 0-0.1-0.1-0.1 0-0.1 0-0.1 0.1 0-0.1 0 0-0.1 0-0.1-0.1 0 0-0.1-0.1 0 0-0.1-0.1 0-0.1 0 0-0.1-0.1 0-0.1 0 0-0.1 0.1 0-0.1 0 0.1 0 0 0.1 0.1 0 0.1 0 0 0.1 0.1 0 0 0.1 0.1 0 0 0.1 0.1 0 0-0.1 0.1 0 0-0.1 0.1 0 0.1 0 0 0.1 0.1 0 0.1 0 0-0.1 0 0.1 0.1 0 0.1 0 0 0.1 0 0.1 0 0.1 0 0.1 0 0.1 0 0.1 0 0.1 0 0.1 0.1 0 0 0.1 0-0.1 0.1 0 0 0.1 0 0.1 0.1 0-0.1 0 0 0.1 0.1 0 0 0.1-0.1 0.1 0-0.1 0-0.1-0.1 0-0.1 0 0-0.1 0-0.1 0.1 0 0-0.1-0.1 0-0.1 0 0 0.1-0.1 0 0 0.1 0.1 0 0 0.1z" id="SC25" name="Roche Caiman">
  </path>
  <path d="M879.1 111.5l-0.1 0-0.1 0-0.1 0-0.1 0 0 0.1 0-0.1-0.2 0-0.1 0-0.1 0-0.1 0 0 0.1 0 0.1-0.1 0-0.1 0-0.1 0 0 0.1-0.1 0.1 0 0.1-0.1 0-0.1 0 0 0.1-0.1 0-0.1 0.1-0.1-0.1-0.2 0-0.2-0.1-0.1-0.1 0.2-0.1 0.1-0.1 0.2-0.1 0.1-0.1 0.1 0 0.1 0 0 0.1 0-0.1 0.1 0 0-0.1 0-0.1-0.1 0-0.1-0.1 0-0.1 0.1 0 0.1 0 0.1 0 0.1 0 0.1 0 0.1 0.1 0.1 0 0 0.1 0 0.1 0.1-0.1 0.1 0 0.1 0 0.1 0 0.1 0 0.1 0 0.1 0 0.1 0 0.1 0 0 0.1 0 0.1-0.1 0 0.1 0z" id="SC22" name="Saint Louis">
  </path>
  <path d="M883.8 124.1l0.1 0 0 0.1 0.1 0 0 0.1 0.1 0 0 0.1 0.1-0.1 0.1 0 0-0.1 0.1 0 0.1 0 0-0.1 0.1 0 0.1 0 0 0.1 0.1 0 0 0.1 0.1 0 0 0.1 0.1 0 0 0.1 0 0.1 0 0.1 0 0.1 0.1 0 0 0.1 0.1 0 0 0.1 0 0.1 0 0.1-0.1 0 0 0.1 0 0.1 0 0.1 0.1 0 0 0.1-0.1 0 0 0.1 0 0.1 0 0.1 0 0.1 0 0.1 0.1 0-0.1 0 0.1 0 0 0.1 0 0.1 0.1 0 0.1 0-0.1 0 0.1 0 0 0.1 0.1 0 0.1 0 0 0.1 0 0.1 0.1 0 0.1 0 0.1 0 0 0.1 0.1 0 0.1 0 0 0.1 0-0.1 0 0.1 0.1 0 0 0.1 0.1 0 0 0.1 0 0.1-0.1 0 0 0.1 0 0.1 0.1 0 0 0.1 0.1 0 0 0.1 0 0.1 0 0.1 0.1 0 0 0.1-0.1 0 0 0.1 0.1 0-0.1 0-0.1 0 0 0.1-0.1 0-0.1 0 0-0.1 0 0.1 0-0.1-0.1 0 0-0.1-0.1 0 0-0.1-0.1 0 0 0.1 0-0.1-0.1 0-0.1 0-0.1 0-0.1 0-0.1 0-0.1 0-0.1 0-0.1 0 0 0.1-0.1 0-0.1 0 0 0.1 0 0.1 0 0.1 0.1 0 0 0.1 0-0.1 0 0.1-0.1 0-0.1 0-0.1 0 0-0.1-0.1 0 0-0.1 0.1 0 0-0.1 0-0.1 0 0.1 0-0.1-0.1 0 0-0.1-0.1 0-0.1 0 0.1 0-0.1 0 0-0.1-0.1 0-0.1 0-0.1 0-0.1 0-0.1 0 0-0.1-0.1 0 0-0.1 0.1 0 0-0.1-0.1 0 0-0.1-0.1 0 0.1 0-0.1 0-0.1 0 0-0.1-0.1 0-0.1 0-0.1 0 0 0.1-0.1 0 0-0.1 0-0.1 0-0.1-0.1 0 0-0.1 0-0.1 0-0.1-0.1 0 0.1 0 0.1 0 0-0.1 0-0.1 0-0.1 0-0.1-0.1 0 0-0.1-0.1 0 0-0.1-0.1 0-0.1 0 0-0.1 0 0.1-0.1 0-0.1 0-0.1 0 0-0.1 0 0.1-0.1 0 0-0.1-0.1 0 0-0.1 0-0.1 0-0.1 0.1 0 0.1 0 0.1 0-0.1 0 0.1 0 0-0.1 0-0.1 0-0.1 0-0.1-0.1 0-0.1 0 0-0.1 0 0.1 0-0.1-0.1 0-0.1 0 0-0.1-0.1 0-0.1 0-0.1 0 0-0.1 0-0.1-0.1 0-0.1 0 0-0.1-0.1 0 0-0.1-0.1 0 0.6-0.1 0.1 0 0.1 0 0.3 0 0.2 0 0.3 0 0.2 0.1 0.2 0 0.1 0.1 0.6 0.1-0.2-0.1-0.1 0 0-0.1 0.1 0 0-0.1-0.1 0 0-0.1 0-0.1-0.1 0 0.1 0 0-0.1 0-0.1z" id="SC23" name="Takamaka">
  </path>
  <path d="M909.3 85.9l0.1 0.1 0 0.1-0.1 0 0 0.1-0.1 0-0.1 0.1-0.1 0 0-0.1-0.1 0 0-0.1 0-0.1 0.1 0 0.1 0 0.1 0 0-0.1 0.1 0z m-4.2-2.5l0-0.1 0.1 0-0.1 0 0.1 0.1-0.1 0z m1.2 4.1l0-0.1-0.2-0.1-0.2-0.1-0.2-0.2-0.1-0.1-0.2-0.2-0.1-0.1-0.1-0.1 0-0.1-0.1-0.1-0.1 0-0.1-0.1-0.1-0.1 0-0.1-0.1 0 0-0.1-0.1-0.1-0.1-0.1 0-0.1-0.1-0.1-0.1-0.1-0.1-0.1-0.1-0.1-0.2-0.1-0.1-0.1-0.1-0.1-0.1 0-0.1-0.1-0.1-0.1-0.1 0-0.1-0.1-0.1-0.1-0.1-0.1-0.2-0.1-0.1-0.1-0.1-0.1-0.1 0 0-0.1-0.1 0-0.5-0.4-0.3-0.3-0.1-0.1-0.2-0.1-0.1 0-0.1-0.1-0.2-0.1-0.2-0.1-0.1-0.1-0.2-0.1-0.3-0.2-0.1 0-0.1-0.1-0.2-0.2-0.1-0.1-0.1 0-0.2-0.1 0-0.1 0-0.1 0.1 0 0.1 0 0.1 0 0.1 0 0 0.1 0.1 0 0.1 0 0.1 0 0 0.1 0.1 0 0.1 0 0 0.1 0.1 0 0.1-0.1 0.1 0 0.1 0 0.1 0 0 0.1 0.1 0 0.1 0 0.1 0 0-0.1 0.1 0 0-0.1 0.1 0 0-0.1 0-0.1 0-0.1-0.1 0 0.1 0-0.1 0 0-0.1-0.1 0 0-0.1 0 0.1 0.1-0.1 0 0.1 0.1 0 0.1 0 0.1 0 0 0.1 0.1 0 0.1 0 0.1 0 0 0.1 0.1 0 0.1 0.1 0 0.1 0 0.1 0.1 0 0 0.1 0 0.1 0.1 0 0 0.1 0 0.1 0.1 0 0 0.1 0.1 0 0 0.1 0.1 0.1 0 0.1 0.1 0 0 0.1 0.1 0.1 0.1 0.1 0.1 0.1 0 0.1-0.1 0 0.1 0 0 0.1 0.1 0.1 0.1 0 0.1 0 0.1 0 0.1 0 0.1 0 0 0.1 0.1 0 0.1-0.1 0-0.1 0.1 0 0-0.1 0.1 0 0.1 0 0.1 0 0 0.1 0.1-0.1 0 0.1 0.1-0.1 0-0.1 0-0.1-0.1 0 0-0.1 0.1 0 0.1 0 0-0.1 0 0.1 0.1 0 0.1 0 0 0.1 0.1 0 0 0.1 0 0.1 0.1 0.1-0.1 0 0 0.1 0 0.1 0.1 0 0.1 0 0 0.1 0.1 0 0.1 0 0 0.1 0.1 0 0 0.1 0.1 0 0.1 0.1 0.1 0 0 0.1 0.1 0 0.1 0.1 0.2 0.1 0.1 0 0.1 0 0.1 0.1 0.2 0 0.1 0 0.1 0 0-0.1 0.1 0 0-0.1 0.1 0 0-0.1 0.1 0-0.1 0 0-0.1 0-0.1 0.1 0 0.1 0 0.1 0 0.1 0 0.2 0 0.1 0 0.1 0.1 0.2 0 0.1 0 0.1 0 0.1 0 0.1 0.1 0 0.1 0.1 0.1 0 0.1-0.1 0.1-0.1 0 0.1 0.2 0.2 0.2 0.1 0.1 0.1 0.1 0.1 0 0 0.1 0.1 0 0.1 0 0.1 0 0 0.1 0.1 0 0.1 0 0 0.1 0.1 0-0.1 0.1-0.1 0.1-0.1 0.1-0.1 0 0 0.1-0.1 0-0.1 0-0.1 0-0.1 0-0.1 0-0.1 0.1 0-0.1-0.1 0-0.1 0-0.1 0 0-0.1-0.1 0 0-0.1-0.1 0 0-0.1 0-0.1 0-0.1-0.1 0 0.1-0.1 0-0.1 0-0.1-0.2-0.1-0.2 0-0.1 0 0-0.1-0.1 0.1-0.1 0-0.1 0.1-0.1 0-0.1 0.1-0.1 0 0 0.1-0.1 0 0 0.1 0 0.1-0.1 0 0.1 0.1 0 0.1 0 0.1-0.1 0 0 0.1 0 0.1-0.1 0 0 0.1 0 0.1 0 0.1-0.1 0 0 0.1 0.1 0 0 0.1 0.1 0 0 0.1 0 0.1 0 0.1 0.1 0 0.1 0 0.1 0 0 0.1 0-0.1 0 0.1 0.1 0 0.1 0 0.1 0.1 0.1 0 0 0.1 0.1 0 0.1 0 0 0.1 0.1 0.1 0 0.1-0.1 0 0 0.1-0.1 0 0 0.1-0.1 0-0.1 0-0.1 0-0.1 0-0.1 0-0.1 0-0.1-0.1 0 0.1-0.1 0-0.1 0.1z m-3.7-7.2l0.1 0 0.1 0-0.1 0 0.1 0.1 0.1 0 0 0.1 0-0.1 0.1 0.1 0-0.1 0.1 0 0.1 0 0-0.1 0.1 0 0.1 0 0.1 0 0.1 0 0 0.1 0.1 0.1 0.1 0 0.1-0.1 0.1 0.1 0.1 0 0-0.1 0.1 0 0 0.1 0.1 0 0.1 0 0-0.1 0.1 0 0.1 0 0.1 0 0.1 0 0.1 0 0.1 0 0 0.1-0.1 0-0.1 0 0 0.1-0.1 0 0 0.1-0.1 0.1-0.1 0-0.1 0-0.1 0-0.1 0.1-0.1 0-0.1 0 0 0.1 0-0.1-0.1 0-0.1 0 0 0.1-0.1 0 0-0.1-0.1 0-0.1 0 0 0.1 0.1 0.1 0 0.1 0 0.1 0 0.1 0.1 0 0.1 0 0.1 0 0.1 0 0 0.1-0.1 0-0.1 0 0 0.1-0.1 0 0 0.1 0-0.1-0.1 0-0.1 0-0.1 0 0-0.1-0.1 0 0-0.1-0.1 0-0.1 0-0.1 0-0.1 0-0.1-0.1-0.1 0 0-0.1-0.1-0.1-0.1 0 0-0.1-0.1 0-0.1 0 0-0.1-0.1 0 0-0.1-0.1 0 0-0.1 0-0.1 0-0.1 0.1 0-0.1-0.1 0.1 0 0.1 0 0-0.1 0.1 0 0 0.1 0-0.1 0.1 0.1 0-0.1 0.1 0z" id="SC07" name="Baie Sainte Anne">
  </path>
  <path d="M896.4 86.8l0 0.1 0 0.1 0 0.1 0.1 0 0.1 0.1 0.1 0 0 0.1-0.1 0-0.1 0-0.1 0 0-0.1-0.1 0 0-0.1-0.1 0 0-0.1-0.1 0-0.1 0 0-0.1-0.1 0 0.1 0 0-0.1 0.1 0 0.1-0.1 0.1 0 0.1 0.1z m1.4-1.8l0.1 0 0 0.1 0 0.1 0 0.1-0.1 0 0 0.1-0.1 0 0 0.1-0.1 0-0.1 0 0-0.1-0.1-0.1 0-0.1 0-0.1 0.1 0 0.1-0.1 0.1 0 0.1 0z m1.5-3.1l0.2 0.1 0.1 0 0.1 0.1 0.2 0.2 0.1 0.1 0.1 0 0.3 0.2 0.2 0.1 0.1 0.1 0.2 0.1 0.2 0.1 0.1 0.1 0.1 0 0.2 0.1 0.1 0.1 0.3 0.3 0.5 0.4 0.1 0 0 0.1 0.1 0 0.1 0.1 0.1 0.1 0.2 0.1 0.1 0.1 0.1 0.1 0.1 0.1 0.1 0 0.1 0.1 0.1 0.1 0.1 0 0.1 0.1 0.1 0.1 0.2 0.1 0.1 0.1 0.1 0.1 0.1 0.1 0.1 0.1 0 0.1 0.1 0.1 0.1 0.1 0 0.1 0.1 0 0 0.1 0.1 0.1 0.1 0.1 0.1 0 0.1 0.1 0 0.1 0.1 0.1 0.1 0.1 0.2 0.2 0.1 0.1 0.2 0.2 0.2 0.1 0.2 0.1 0 0.1 0.1 0.1 0 0.1 0.1 0 0 0.1-0.1 0 0 0.1 0-0.1-0.1 0-0.1 0-0.1 0-0.1 0 0 0.1-0.1 0 0 0.1-0.1-0.1 0.1-0.1-0.1 0-0.1-0.1 0-0.1-0.1 0 0-0.1-0.1 0 0-0.1-0.1 0 0-0.1-0.1 0-0.1 0 0-0.1-0.1 0-0.1 0 0-0.1-0.1 0-0.1 0 0-0.1-0.1 0-0.1 0-0.1 0 0-0.1-0.1 0-0.1 0-0.1 0-0.1 0-0.1 0-0.1 0-0.1 0-0.1 0-0.1 0-0.1-0.1-0.1 0 0-0.1 0-0.1-0.1 0 0-0.1-0.1 0-0.1 0 0-0.1-0.1 0 0-0.1 0-0.1 0-0.1-0.1 0 0-0.1 0-0.1 0-0.1 0.1-0.1 0-0.1 0-0.1-0.1 0 0.1 0 0-0.1-0.1 0 0 0.1 0-0.1-0.1 0 0-0.1 0-0.1-0.1 0 0-0.1-0.1 0 0-0.1-0.1 0 0-0.1-0.1 0-0.1 0-0.1-0.1-0.1 0-0.1-0.1-0.1 0-0.1 0-0.1 0-0.1 0-0.1 0-0.1 0-0.1 0-0.1 0-0.1 0-0.1 0-0.1 0-0.2 0-0.1 0-0.1 0-0.1 0-0.1 0-0.1-0.1 0-0.1-0.1 0-0.1 0 0-0.1-0.1 0 0-0.1-0.1 0 0-0.1-0.1 0 0-0.1 0-0.1 0-0.1 0-0.1-0.1-0.1 0.1 0-0.1-0.1 0-0.1 0-0.1 0-0.1-0.1-0.1 0-0.1-0.1 0 0-0.1-0.1 0 0-0.1 0-0.1 0-0.1 0-0.1-0.1 0 0-0.1-0.1 0 0-0.1-0.1 0 0 0.1 0-0.1-0.1 0 0-0.1 0.1 0.1 0.1 0 0-0.1-0.1-0.1 0-0.1 0-0.1 0.1 0 0.1 0 0.1 0 0-0.1z" id="SC14" name="Grand Anse Praslin">
  </path>
  <path d="M492.9 615.2l-0.1 0 0-0.1 0.1 0 0 0.1z m0.5-0.4l0.1 0 0 0.1 0.1 0 0 0.1 0.1 0 0.1 0 0 0.1-0.1 0 0 0.1 0 0.1-0.1 0.1 0 0.1 0 0.1-0.1 0 0 0.1 0 0.1-0.1 0 0 0.1 0 0.1-0.1 0 0 0.1 0 0.1-0.1 0 0 0.1 0 0.1-0.1 0 0 0.1 0 0.1 0 0.1-0.1 0 0 0.1 0 0.1-0.1 0 0 0.1 0 0.1-0.1 0 0 0.1 0 0.1-0.1 0 0 0.1 0 0.1-0.1 0 0 0.1-0.1 0 0 0.1 0 0.1-0.1 0 0 0.1-0.1 0 0 0.1 0 0.1-0.1 0 0 0.1 0 0.1-0.1 0.1 0 0.1 0 0.1 0 0.1-0.1 0 0 0.1 0 0.1-0.1 0 0 0.1-0.1 0-0.1 0 0-0.1-0.1 0-0.1 0 0-0.1 0-0.1 0-0.1-0.1-0.1 0-0.1 0-0.1 0.1 0 0-0.1 0-0.1 0.1 0 0-0.1 0-0.1 0.1 0 0-0.1 0.1 0 0-0.1 0.1-0.1 0-0.1 0.1 0 0-0.1 0.1 0-0.1 0.1 0 0.1-0.1 0 0 0.1 0 0.1-0.1 0 0 0.1 0.1 0 0-0.1 0.1 0 0-0.1 0-0.1 0 0.1 0.1 0 0-0.1-0.1 0 0-0.1 0.1 0 0-0.1 0.1 0-0.1 0 0-0.1 0-0.1 0.1 0 0-0.1 0-0.1 0.1 0 0-0.1 0-0.1 0.1 0 0-0.1 0-0.1 0.1 0 0.1 0 0-0.1 0-0.1 0-0.1 0.1 0 0-0.1 0-0.1 0-0.1 0.1 0 0-0.1 0-0.1 0-0.1 0 0.1 0 0.1 0 0.1 0 0.1 0-0.1 0.1 0 0.1 0-0.1 0 0-0.1 0.1 0 0-0.1-0.1 0 0.1 0-0.1 0 0-0.1 0-0.1-0.1 0 0-0.1 0-0.1 0.1 0 0-0.1 0.1 0 0.1 0 0 0.1 0.1 0 0-0.1-0.1 0-0.1 0-0.1 0 0-0.1 0.1 0 0-0.1 0.1 0 0.1 0 0-0.1 0.1 0 0-0.1 0-0.1 0-0.1 0.1 0 0 0.1z m-310.3-7.4l0 0.1 0-0.1 0 0.1-0.1 0 0-0.1 0 0.1 0-0.1 0 0.1 0-0.1-0.1 0 0.1 0 0.1 0z m310.4 7.2l0.1 0 0 0.1 0.1 0-0.1 0-0.1 0 0-0.1-0.1 0 0.1 0z m0-0.2l0-0.1 0 0.1 0.1 0 0.1 0 0 0.1-0.1 0-0.1 0-0.1 0 0-0.1 0-0.1 0.1 0 0 0.1z m-310.4-7.4l0 0.1-0.1 0-0.1 0 0-0.1 0.1 0 0.1 0z m-0.4 0.1l0.1-0.1 0 0.1-0.1 0z m310.8 7.1l0.1 0 0 0.1 0.1 0-0.1 0-0.1 0-0.1 0 0-0.1 0.1 0z m-310.2-10.2l0.1 0 0.1 0 0 0.1 0.1 0 0 0.1 0.1 0 0.1 0.1 0.1 0 0 0.1 0.1 0 0 0.1 0.1 0 0 0.1 0.1 0 0 0.1 0 0.1 0.1 0 0 0.1 0 0.1 0.1 0 0 0.1 0.1 0 0 0.1 0 0.1 0 0.1 0.1 0-0.1 0 0.1 0 0 0.1 0 0.1 0.1 0 0 0.1 0 0.1 0 0.1 0 0.1 0 0.1 0 0.1 0 0.1 0 0.1 0.1 0 0 0.1 0 0.1-0.1 0 0 0.1 0 0.1 0 0.1-0.1 0 0 0.1 0 0.1-0.1 0 0.1 0-0.1 0 0 0.1 0-0.1 0 0.1 0-0.1-0.1 0 0.1 0 0 0.1 0.1 0-0.1 0 0 0.1-0.1 0 0.1 0-0.1 0 0.1 0 0 0.1-0.1 0 0-0.1 0 0.1-0.1 0 0-0.1 0 0.1 0.1 0 0 0.1-0.1 0 0 0.1 0 0.1-0.1 0 0 0.1 0-0.1 0 0.1-0.1 0 0 0.1 0-0.1 0 0.1-0.1 0-0.1 0 0 0.1-0.1 0 0 0.1-0.1 0 0 0.1-0.1 0-0.1 0-0.1 0-0.1 0-0.1 0-0.1 0-0.1 0 0 0.1-0.1 0 0-0.1 0-0.1 0-0.1 0-0.1-0.1 0-0.1 0 0-0.1 0-0.1 0-0.1 0.1 0-0.1 0 0.1 0-0.1 0 0.1 0 0 0.1 0-0.1 0 0.1-0.1 0 0 0.1 0-0.1 0 0.1 0.1 0 0-0.1 0 0.1 0.1 0-0.1 0 0.1 0-0.1 0 0 0.1 0.1 0 0-0.1 0.1 0-0.1 0 0 0.1 0.1 0 0-0.1 0 0.1 0 0.1 0-0.1 0.1 0 0-0.1 0.1 0 0 0.1 0.1 0 0.1 0 0-0.1 0 0.1 0 0.1 0.1 0 0 0.1 0-0.1 0 0.1 0.1 0 0-0.1 0-0.1-0.1 0 0-0.1 0.1 0-0.1 0 0-0.1-0.1 0 0.1 0 0 0.1 0.1 0 0 0.1 0.1 0 0 0.1 0.1 0 0-0.1 0-0.1-0.1 0 0.1 0 0.1 0 0 0.1 0-0.1 0.1 0 0-0.1 0.1 0 0-0.1-0.1 0 0-0.1 0-0.1 0-0.1 0.1 0 0-0.1 0.1 0 0.1 0 0.1 0 0-0.1 0-0.1 0-0.1 0.1 0 0-0.1-0.1 0 0.1 0 0-0.1 0 0.1 0.1-0.1-0.1 0 0-0.1-0.1 0 0-0.1 0.1 0 0-0.1 0.1 0 0-0.1 0.1 0 0-0.1-0.1 0 0-0.1 0-0.1 0-0.1 0-0.1 0-0.1 0-0.1-0.1-0.1-0.1 0 0-0.1-0.1 0-0.1 0-0.1 0 0-0.1-0.1 0 0.1 0-0.1 0 0-0.1 0-0.1 0.1 0 0-0.1 0 0.1 0.1 0 0-0.1 0-0.1-0.1 0 0-0.1 0-0.1-0.1 0 0-0.1-0.1 0 0 0.1 0-0.1-0.1 0-0.1 0 0.1 0-0.1 0 0 0.1-0.1 0 0 0.1-0.1 0 0 0.1-0.1 0 0 0.1 0 0.1-0.1 0 0 0.1-0.1 0 0 0.1 0 0.1-0.1 0 0 0.1 0 0.1 0 0.1-0.1 0 0 0.1 0 0.1 0-0.1 0.1 0 0 0.1-0.1 0 0 0.1 0.1 0 0-0.1 0-0.1 0 0.1 0.1 0-0.1 0 0 0.1 0 0.1-0.1 0 0 0.1-0.1 0 0 0.1 0 0.1-0.1 0 0 0.1 0 0.1-0.1 0 0 0.1 0 0.1 0 0.1-0.1 0 0 0.1 0 0.1-0.1 0 0 0.1-0.1 0 0 0.1 0 0.1 0 0.1 0 0.1 0 0.1 0.1 0 0 0.1 0 0.1 0.1 0 0.1 0 0 0.1 0 0.1 0.1 0-0.1 0-0.1 0 0-0.1-0.1 0-0.1 0 0-0.1 0 0.1 0-0.1-0.1 0 0-0.1-0.1 0 0-0.1-0.1 0-0.1 0 0-0.1 0-0.1-0.1 0 0-0.1-0.1 0 0-0.1 0-0.1 0-0.1-0.1 0 0.1 0 0-0.1-0.1 0 0-0.1 0 0.1 0-0.1-0.1 0 0-0.1 0.1 0 0-0.1-0.1 0 0.1 0 0-0.1 0-0.1 0 0.1 0-0.1 0.1 0 0-0.1 0.1 0 0-0.1 0.1 0 0-0.1 0.1 0 0-0.1 0.1 0 0-0.1 0.1 0 0-0.1 0.1 0 0-0.1 0.1 0 0-0.1 0.1 0 0-0.1 0.1 0 0-0.1 0.1 0 0-0.1 0-0.1 0.1 0 0-0.1 0-0.1 0-0.1 0.1 0 0-0.1 0-0.1 0.1 0 0-0.1 0-0.1 0.1 0 0-0.1 0-0.1 0.1 0-0.1 0 0-0.1 0-0.1 0-0.1 0-0.1 0.1 0z m310.1 6l0.1 0 0 0.1 0.1 0 0 0.1 0.1 0 0 0.1 0.1 0 0 0.1 0.1 0 0 0.1 0 0.1 0.1 0 0 0.1 0.1 0 0 0.1 0.1 0 0 0.1 0 0.1 0 0.1 0.1 0 0 0.1 0 0.1 0 0.1 0 0.1 0.1 0 0 0.1 0 0.1 0 0.1 0 0.1 0 0.1 0.1 0 0 0.1 0.1 0 0 0.1 0 0.1 0 0.1 0 0.1 0 0.1 0 0.1-0.1 0 0 0.1 0 0.1 0.1 0 0 0.1-0.1 0 0 0.1 0 0.1 0 0.1-0.1 0 0 0.1 0 0.1-0.1 0 0 0.1 0 0.1-0.1 0-0.1 0 0 0.1-0.1 0 0-0.1 0 0.1-0.1 0 0 0.1-0.1 0 0 0.1 0 0.1-0.1 0-0.1 0 0 0.1-0.1 0 0-0.1-0.1 0 0-0.1 0-0.1 0.1-0.1 0.1 0 0-0.1 0.1 0 0-0.1 0.1 0 0-0.1 0.1 0 0.1 0 0-0.1 0-0.1 0.1 0 0-0.1 0.1 0 0-0.1 0.1 0 0-0.1 0-0.1 0-0.1 0.1 0 0-0.1 0-0.1 0-0.1 0-0.1 0-0.1 0-0.1-0.1 0 0-0.1 0-0.1 0-0.1 0-0.1-0.1 0 0-0.1-0.1 0 0-0.1 0.1 0-0.1 0 0.1 0 0-0.1-0.1 0 0-0.1-0.1 0 0-0.1 0-0.1-0.1 0 0-0.1 0-0.1-0.1 0-0.1 0 0-0.1 0-0.1 0-0.1-0.1 0-0.1 0-0.1 0-0.1 0-0.1 0-0.1 0-0.1 0 0 0.1-0.1 0-0.1 0 0 0.1-0.1 0 0 0.1-0.1 0-0.1 0 0 0.1-0.1 0 0 0.1 0 0.1 0 0.1 0 0.1-0.1 0 0 0.1 0-0.1-0.1 0 0-0.1-0.1 0 0 0.1-0.1 0 0-0.1-0.1 0 0-0.1 0-0.1 0.1 0 0-0.1 0.1 0 0-0.1 0.1 0 0-0.1 0.1 0 0-0.1 0-0.1 0.1 0 0-0.1 0-0.1 0.1 0 0-0.1 0.1 0 0-0.1 0.1 0 0.1-0.1 0.1 0 0-0.1 0.1 0 0-0.1 0-0.1 0.1 0 0.1 0 0.1 0 0 0.1 0.1 0z m-322.6-31l-0.1 0-0.1 0-0.1 0 0 0.1-0.1 0-0.1 0-0.1 0-0.1 0-0.1 0-0.1 0-0.1 0 0 0.1-0.1 0-0.1 0-0.1 0-0.1 0-0.1 0-0.1 0-0.1 0 0-0.1-0.1 0-0.1 0-0.1 0-0.1 0-0.1 0 0-0.1-0.1 0 0-0.1 0.1 0 0 0.1 0.1 0 0.1 0 0 0.1 0.1 0 0.1 0 0-0.1 0 0.1 0-0.1 0.1 0 0 0.1 0-0.1 0.1 0-0.1 0 0.1 0 0.1 0 0.1 0 0 0.1 0.1 0 0.1 0 0.1 0 0.1 0 0.1 0 0.1 0 0-0.1 0.1 0 0-0.1 0 0.1 0.1 0 0-0.1 0 0.1 0-0.1 0.1 0 0 0.1 0.1 0 0.1 0 0-0.1 0.1 0 0 0.1 0-0.1 0 0.1 0.1 0 0-0.1 0.1 0 0 0.1 0-0.1 0 0.1z m1.1-0.5l0.1 0 0 0.1-0.1 0 0 0.1 0-0.1-0.1 0 0-0.1 0-0.1 0 0.1 0.1 0z m-8.7-2.9l0 0.1 0.1 0-0.1 0 0 0.1 0-0.1-0.1 0 0-0.1 0-0.1 0.1 0 0 0.1z m12.7 0.4l0.1 0 0.1 0 0.1 0 0.1 0 0-0.1 0.1 0 0 0.1 0 0.1 0 0.1-0.1 0 0 0.1 0 0.1-0.1 0 0 0.1 0 0.1 0 0.1-0.1 0 0.1 0-0.1 0 0 0.1 0 0.1-0.1 0 0 0.1 0 0.1 0 0.1-0.1 0 0 0.1 0 0.1-0.1 0 0 0.1 0 0.1-0.1 0 0 0.1-0.1 0 0 0.1-0.1 0 0 0.1 0 0.1-0.1 0 0 0.1-0.1 0 0-0.1 0 0.1-0.1 0 0 0.1-0.1 0 0 0.1-0.1 0 0 0.1-0.1 0-0.1 0-0.1 0-0.1 0-0.1 0-0.1 0 0.1 0 0-0.1-0.1 0 0-0.1 0.1 0 0-0.1 0.1 0 0-0.1 0.1 0 0-0.1 0 0.1 0-0.1 0 0.1 0.1 0 0-0.1 0.1 0 0.1 0 0.1 0 0-0.1 0.1 0 0.1 0 0-0.1 0.1 0 0-0.1 0.1 0 0-0.1 0-0.1 0.1 0 0-0.1 0.1 0 0-0.1 0-0.1 0.1 0 0-0.1 0-0.1 0-0.1 0-0.1 0.1 0 0-0.1 0-0.1 0-0.1 0-0.1 0-0.1 0-0.1-0.1 0 0-0.1-0.1 0-0.1 0 0-0.1 0.1 0 0.1 0 0 0.1 0.1 0z m-102.1-3.6l0.1 0 0 0.1 0.1 0 0 0.1 0.1 0 0 0.1 0 0.1 0.1 0 0 0.1 0 0.1 0.1 0 0 0.1 0 0.1 0.1 0 0 0.1 0 0.1 0 0.1 0 0.1 0 0.1 0.1 0 0 0.1 0 0.1 0 0.1 0 0.1 0 0.1 0 0.1 0 0.1 0 0.1 0 0.1 0 0.1 0 0.1 0-0.1 0 0.1 0 0.1 0 0.1 0 0.1-0.1 0 0.1 0 0 0.1-0.1 0 0.1 0-0.1 0 0 0.1 0 0.1 0-0.1-0.1 0 0.1 0 0 0.1-0.1 0 0.1 0 0 0.1-0.1 0 0 0.1-0.1 0 0.1 0 0 0.1 0 0.1-0.1 0 0 0.1-0.1 0.1 0 0.1 0-0.1-0.1 0 0 0.1 0.1 0 0 0.1-0.1 0 0 0.1 0 0.1-0.1 0 0-0.1 0 0.1 0-0.1 0 0.1 0 0.1 0 0.1-0.1 0 0 0.1-0.1 0 0 0.1-0.1 0 0 0.1-0.1 0 0 0.1 0 0.1-0.1 0 0.1 0-0.1 0 0 0.1-0.1 0 0 0.1-0.1 0 0 0.1 0-0.1 0 0.1-0.1 0-0.1 0 0 0.1 0-0.1 0 0.1-0.1 0 0 0.1-0.1 0-0.1 0-0.1 0-0.1 0-0.1 0-0.1 0-0.1 0-0.1 0-0.1 0-0.1 0-0.1 0-0.1 0-0.1 0-0.1 0 0-0.1-0.1 0 0-0.1 0-0.1 0-0.1 0-0.1 0-0.1 0-0.1-0.1 0 0-0.1 0-0.1 0-0.1 0-0.1 0-0.1 0.1 0 0-0.1 0 0.1 0-0.1 0.1 0 0-0.1 0.1 0 0-0.1 0.1 0 0-0.1 0.1 0 0-0.1 0.1 0 0.1 0 0-0.1 0.1 0 0.1 0 0.1 0 0.1 0 0.1 0 0-0.1 0.1 0 0-0.1 0.1 0 0-0.1 0.1 0 0-0.1 0.1 0 0-0.1 0.1 0 0-0.1 0.1 0 0-0.1 0.1 0-0.1 0 0.1 0 0-0.1 0.1 0 0-0.1 0-0.1 0.1 0 0-0.1 0-0.1 0.1 0 0-0.1 0-0.1 0-0.1 0.1 0 0-0.1 0-0.1 0-0.1 0.1 0-0.1 0 0-0.1 0-0.1 0-0.1 0-0.1 0-0.1-0.1 0 0-0.1 0-0.1 0-0.1 0-0.1-0.1 0 0-0.1 0-0.1 0-0.1 0-0.1 0.1 0-0.1 0 0.1 0-0.1 0 0.1 0 0-0.1 0-0.1 0.1 0 0.1 0 0-0.1 0.1 0z m102.7 3l0 0.1-0.1 0 0-0.1 0-0.1 0 0.1 0.1 0z m-13.2-0.5l0 0.1-0.1 0 0-0.1 0.1 0z m-0.1-0.3l0.1 0 0 0.1-0.1 0 0-0.1z m0.7-0.3l-0.1 0 0 0.1-0.1 0 0-0.1 0-0.1 0.1 0 0 0.1 0.1 0z m12.3-0.5l0 0.1 0.1 0 0 0.1 0 0.1 0.1 0 0 0.1 0 0.1 0 0.1 0 0.1 0.1 0 0 0.1 0 0.1 0 0.1 0 0.1 0 0.1 0 0.1-0.1 0-0.1 0 0-0.1 0-0.1 0-0.1 0.1 0 0-0.1 0-0.1 0-0.1 0-0.1 0-0.1-0.1 0 0-0.1 0-0.1-0.1 0 0-0.1-0.1 0 0-0.1 0-0.1 0.1 0z m-12-0.8l0.1 0 0.1 0 0.1 0 0 0.1 0.1 0 0.1 0 0.1 0 0 0.1 0 0.1-0.1 0 0-0.1 0.1-0.1-0.1 0-0.1 0-0.1 0 0 0.1-0.1 0 0-0.1-0.1 0 0 0.1-0.1 0-0.1 0 0 0.1-0.1 0 0 0.1-0.1 0 0 0.1-0.1 0 0 0.1 0.1 0 0-0.1 0.1 0 0 0.1 0.1 0 0-0.1-0.1 0 0.1 0 0-0.1 0 0.1 0.1 0 0 0.1-0.1 0 0 0.1 0 0.1-0.1 0 0 0.1-0.1 0 0.1 0-0.1 0 0.1 0 0-0.1 0-0.1 0 0.1-0.1 0 0 0.1 0 0.1-0.1 0 0-0.1-0.1 0 0 0.1 0 0.1 0-0.1-0.1 0 0 0.1 0.1 0 0 0.1-0.1 0-0.1 0 0 0.1-0.1 0 0-0.1 0 0.1 0 0.1 0-0.1 0 0.1-0.1 0 0 0.1 0 0.1-0.1 0-0.1 0 0.1 0 0 0.1-0.1 0 0.1 0-0.1 0 0.1 0 0 0.1-0.1 0 0 0.1 0 0.1 0 0.1 0-0.1 0 0.1 0 0.1-0.1 0-0.1 0 0-0.1 0-0.1-0.1 0 0-0.1 0-0.1 0-0.1 0-0.1 0-0.1 0-0.1 0-0.1 0-0.1 0-0.1 0.1 0 0-0.1 0-0.1 0-0.1 0.1 0 0-0.1-0.1 0 0-0.1 0.1 0 0.1 0 0-0.1 0.1 0 0-0.1 0-0.1 0.1 0 0.1 0 0-0.1 0-0.1 0 0.1 0-0.1 0.1 0 0.1 0 0.1 0 0.1 0 0-0.1 0.1 0 0.1 0 0.1 0 0.1 0z m1.3 0l0 0.1-0.1 0 0.1-0.1z m4.5-3.8l0 0.1 0.1 0 0.1 0 0 0.1-0.1 0-0.1 0-0.1 0 0 0.1 0-0.1 0-0.1 0.1 0 0-0.1z m-1.1-0.2l0.1 0 0-0.1 0 0.1-0.1 0 0 0.1-0.1 0 0 0.1 0 0.1-0.1 0 0 0.1-0.1 0-0.1 0 0.1 0 0-0.1 0-0.1 0.1 0 0-0.1 0.1 0-0.1 0 0.1 0 0-0.1-0.1 0 0-0.1 0.1 0 0.1 0 0-0.1 0 0.1-0.1 0 0.1 0 0 0.1z m-118-18.2l0-0.1 0.1 0 0 0.1-0.1 0z m-0.1-0.2l0.1 0 0 0.1 0.1 0-0.1 0-0.1 0 0.1 0-0.1 0 0-0.1 0.1 0-0.1 0z m-0.6 0l0-0.1 0.1 0 0 0.1-0.1 0z m-0.8-0.1l0 0.1-0.1 0 0-0.1 0.1 0 0-0.1 0 0.1z m0.1-0.1l0.1 0 0 0.1-0.1 0 0 0.1-0.1 0 0.1 0-0.1-0.1 0-0.1 0.1 0 0 0.1 0-0.1z m1.5 0.1l0 0.1 0 0.1 0-0.1-0.1 0 0-0.1 0.1 0-0.1 0 0-0.1 0 0.1 0-0.1 0.1 0 0 0.1z m-1.6-0.1l-0.1 0 0-0.1 0.1 0 0 0.1z m-0.1-0.1l0 0.1-0.1 0 0-0.1 0.1 0z m0.9-0.2l-0.1 0 0.1-0.1 0 0.1z m0.2 0l0-0.1 0.1 0 0 0.1-0.1 0z m-2.2-0.3l0 0.1-0.1 0 0-0.1 0.1 0z m0.1-0.1l0.1 0 0 0.1-0.1 0 0.1 0-0.1 0 0 0.1-0.1 0 0.1 0-0.1 0 0.1 0-0.1 0 0.1 0-0.1 0 0-0.1 0-0.1 0.1 0z m-0.1-0.3l0.1 0 0 0.1 0.1 0 0 0.1 0.1 0 0 0.1 0.1 0 0 0.1-0.1 0-0.1 0 0-0.1-0.1 0 0-0.1 0 0.1-0.1 0 0 0.1-0.1 0 0 0.1-0.1 0 0-0.1-0.1 0 0 0.1 0-0.1 0.1 0 0-0.1 0.1 0 0-0.1 0-0.1 0-0.1 0.1 0z m0-0.1l0 0.1-0.1 0 0 0.1 0 0.1-0.1 0 0-0.1 0.1 0 0-0.1 0-0.1 0.1 0z m12.1 0.1l0 0.1-0.1 0 0-0.1 0.1 0z m-0.2-0.1l0 0.1-0.1 0 0-0.1 0.1 0z m0.2 0l0 0.1 0-0.1 0 0.1 0.1 0-0.1 0-0.1 0 0-0.1 0.1 0-0.1 0 0.1 0z m-0.8-0.1l0 0.1-0.1 0.1 0.1 0 0-0.1 0 0.1-0.1 0 0-0.1 0-0.1 0 0.1 0-0.1 0 0.1 0-0.1 0.1 0-0.1 0 0.1 0z m-11.9-0.5l0 0.1 0 0.1 0.1 0 0 0.1 0 0.1-0.1 0 0-0.1 0-0.1 0 0.1 0-0.1-0.1 0 0.1 0-0.1 0 0.1 0 0-0.1-0.1 0 0.1 0 0-0.1-0.1 0 0.1 0z m0.7-0.2l0.1 0 0.1 0 0 0.1 0-0.1 0 0.1 0.1 0 0 0.1 0.1 0 0 0.1 0.1 0 0 0.1 0.1 0 0 0.1 0 0.1-0.1 0 0-0.1 0-0.1-0.1 0-0.1 0 0 0.1 0 0.1 0.1 0 0 0.1-0.1 0 0-0.1-0.1 0 0-0.1 0-0.1-0.1 0 0-0.1 0 0.1-0.1 0 0-0.1 0.1 0-0.1 0 0-0.1 0-0.1 0-0.1z m2-0.8l0 0.1-0.1 0 0-0.1 0.1 0z m15.2 0.5l0.1 0 0 0.1-0.1 0 0-0.1z m-18.8-0.7l0 0.1 0.1 0-0.1 0 0.1 0 0 0.1 0-0.1 0 0.1 0 0.1-0.1 0 0.1 0 0 0.1 0.1 0 0 0.1 0 0.1-0.1 0 0-0.1-0.1 0-0.1 0 0-0.1 0-0.1 0.1 0 0 0.1 0-0.1 0-0.1 0-0.1 0-0.1z m3 0.1l0.1 0 0 0.1 0.1 0 0.1 0 0 0.1 0.1 0 0.1 0 0 0.1-0.1 0-0.1 0-0.1 0-0.1 0 0 0.1 0.1 0-0.1 0 0 0.1 0-0.1-0.1 0-0.1 0-0.1 0 0-0.1-0.1 0 0-0.1-0.1 0 0-0.1 0-0.1 0.1 0 0.1 0 0.1 0 0.1 0z m-3.6-0.8l0.1 0-0.1 0 0.1 0 0 0.1-0.1 0 0 0.1 0-0.1 0 0.1 0-0.1-0.1 0 0.1 0-0.1 0 0-0.1 0.1 0-0.1 0 0 0.1 0-0.1 0.1 0-0.1 0 0.1 0z m19.7 0.6l-0.1 0 0-0.1 0.1 0 0 0.1z m-19.9-0.7l0.1 0-0.1 0 0 0.1 0.1 0 0 0.1-0.1 0 0-0.1 0-0.1z m0.2-0.1l0.1 0-0.1 0-0.1 0 0 0.1 0-0.1 0 0.1-0.1 0 0-0.1 0.1 0-0.1 0 0.1 0 0-0.1 0.1 0 0 0.1 0-0.1 0 0.1z m19.9 0.5l0 0.1-0.1 0 0.1 0-0.1 0 0-0.1 0.1 0z m-0.1 0l0 0.1-0.1 0 0-0.1 0.1 0z m-0.2 0l0.1 0 0 0.1-0.1 0 0-0.1z m2.1 0l0.1 0 0 0.1-0.1 0 0-0.1-0.1 0 0.1 0-0.1 0 0.1 0-0.1 0 0.1 0z m-0.9-0.1l0 0.1-0.1 0 0-0.1 0.1 0z m-0.2-0.1l0.1 0 0 0.1-0.1 0 0-0.1z m-20.6-0.7l-0.1 0 0 0.1-0.1 0-0.1 0 0.1 0-0.1 0 0-0.1 0.1 0 0.1 0 0.1 0 0.1 0-0.1 0z m0.1-0.2l0 0.1-0.1 0-0.1 0-0.1 0-0.1 0 0.1 0 0.1 0 0.1 0 0-0.1 0.1 0 0 0.1 0-0.1z m20.6 0.5l0 0.1 0-0.1 0 0.1-0.1 0 0-0.1 0.1 0z m0.1 0l0 0.1-0.1 0 0-0.1 0.1 0z m-0.2 0l-0.1 0 0-0.1 0.1 0 0 0.1z m-0.2 0l0 0.1 0-0.1 0 0.1 0-0.1-0.1 0 0.1 0-0.1 0 0-0.1 0.1 0 0 0.1z m0.7-0.1l0.1 0 0 0.1-0.1 0 0-0.1z m-0.1 0l-0.1 0 0.1 0 0 0.1-0.1 0 0-0.1 0.1 0z m-0.9 0l0 0.1-0.1 0 0-0.1 0.1 0z m-20-0.6l0.1 0-0.1 0 0 0.1 0-0.1 0 0.1-0.1 0-0.1 0-0.1 0 0 0.1-0.1 0 0.1 0 0-0.1-0.1 0 0 0.1 0-0.1-0.1 0 0-0.1 0.1 0 0.1 0 0 0.1 0.1 0 0-0.1 0.1 0 0.1 0z m20.2 0.6l-0.1 0 0-0.1 0.1 0 0 0.1z m0.3 0l-0.1 0 0-0.1 0.1 0 0 0.1z m0.2-0.1l0 0.1 0.1 0 0 0.1-0.1 0-0.1 0 0.1 0-0.1 0 0.1 0 0-0.1-0.1 0 0.1 0-0.1 0 0-0.1 0.1 0z m-0.2 0l0 0.1 0-0.1 0.1 0 0 0.1-0.1 0 0.1 0-0.1 0 0 0.1 0-0.1 0-0.1z m0.2 0l0.1 0 0 0.1-0.1 0 0-0.1z m0.2 0l0 0.1-0.1 0 0-0.1 0.1 0z m2.3 0l-0.1 0 0 0.1-0.1 0 0-0.1 0.1 0 0.1 0-0.1 0 0-0.1 0.1 0 0 0.1z m-2.5-0.2l0.1 0 0 0.1 0-0.1 0 0.1-0.1 0 0-0.1 0 0.1 0-0.1z m-0.4 0l0 0.1-0.1 0 0.1 0-0.1 0 0-0.1 0.1 0z m2.3 0.1l-0.1 0 0-0.1 0.1 0 0 0.1z m-2-0.2l0 0.1 0.1 0 0 0.1-0.1 0 0-0.1 0-0.1z m2.6-0.2l0.1 0 0 0.1-0.1 0 0-0.1z m-22.9-0.8l0 0.1-0.1 0 0-0.1 0.1 0z m22.9 0.6l0.1 0 0 0.1-0.1 0 0-0.1z m0.1-0.1l0.1 0 0 0.1-0.1 0-0.1 0 0.1 0 0-0.1 0 0.1 0-0.1z m-1-0.1l-0.1 0 0-0.1 0.1 0 0 0.1z m-1.1-0.1l0.1 0 0 0.1 0 0.1 0.1 0 0 0.1 0 0.1 0 0.1-0.1 0 0.1 0-0.1 0 0.1 0 0 0.1-0.1 0 0.1 0-0.1 0 0 0.1 0.1 0-0.1 0 0 0.1 0 0.1 0 0.1 0 0.1 0.1 0-0.1 0 0 0.1 0.1 0-0.1 0 0-0.1 0 0.1-0.1 0 0-0.1 0 0.1-0.1 0 0-0.1 0-0.1 0 0.1 0-0.1 0-0.1 0.1 0-0.1 0-0.1 0 0.1 0-0.1 0 0-0.1 0.1 0-0.1 0 0.1 0 0-0.1-0.1 0 0-0.1 0 0.1-0.1 0 0-0.1 0-0.1 0 0.1 0.1 0 0-0.1 0.1 0 0 0.1 0-0.1 0-0.1 0 0.1 0-0.1 0.1 0 0-0.1-0.1 0 0-0.1 0.1 0 0 0.1 0-0.1 0 0.1 0.1 0-0.1 0 0.1 0 0-0.1 0-0.1 0-0.1-0.1 0z m1.2-0.1l-0.1 0 0-0.1 0.1 0 0 0.1z m0.4-0.1l0 0.1-0.1 0 0-0.1 0.1 0z m-0.1 0l0 0.1 0-0.1 0 0.1 0.1 0 0 0.1 0 0.1 0.1 0 0 0.1 0 0.1 0 0.1 0.1 0 0 0.1-0.1 0 0-0.1 0 0.1 0-0.1-0.1 0 0 0.1 0.1 0 0.1 0 0 0.1-0.1 0 0 0.1-0.1 0-0.1 0-0.1 0-0.1 0-0.1 0 0.1 0-0.1 0 0 0.1 0.1 0-0.1 0-0.1 0 0-0.1-0.1 0 0.1 0 0-0.1 0.1 0 0-0.1 0-0.1 0.1 0 0.1 0 0-0.1-0.1 0-0.1 0 0-0.1 0-0.1 0.1 0 0-0.1-0.1 0 0.1 0-0.1 0 0.1 0 0-0.1-0.1 0 0-0.1 0 0.1 0.1 0 0-0.1 0.1 0 0.1 0z m-0.9-0.3l-0.1 0 0-0.1 0.1 0 0 0.1z m0.9 0l0 0.1-0.1 0 0-0.1 0.1 0z m-20.5-0.7l0 0.1 0-0.1-0.1 0 0-0.1 0 0.1 0-0.1 0.1 0 0 0.1z m14 0.3l0.1 0 0 0.1-0.1 0 0-0.1 0 0.1 0-0.1z m-1.5-0.2l-0.1 0 0-0.1 0.1 0 0 0.1z m7.4 0.2l-0.1 0 0.1 0 0 0.1 0.1 0-0.1 0 0.1 0 0-0.1 0 0.1 0-0.1 0 0.1 0-0.1 0.1 0 0 0.1 0.1 0-0.1 0 0.1 0 0 0.1-0.1 0 0.1 0 0 0.1 0-0.1 0 0.1-0.1 0 0 0.1 0.1 0-0.1 0 0.1 0 0-0.1 0 0.1 0-0.1 0 0.1 0-0.1 0.1 0 0 0.1 0 0.1 0-0.1 0 0.1 0.1 0 0 0.1 0 0.1 0-0.1-0.1 0 0 0.1-0.1 0 0-0.1 0 0.1-0.1 0-0.1 0-0.1 0 0-0.1 0.1 0 0-0.1 0 0.1-0.1 0 0-0.1 0 0.1 0-0.1-0.1 0-0.1 0 0.1 0 0-0.1-0.1 0-0.1 0 0-0.1-0.1 0 0-0.1 0.1 0 0-0.1 0.1 0 0 0.1 0-0.1 0-0.1 0.1 0 0.1 0z m-4.5-0.2l0 0.1-0.1 0 0-0.1 0.1 0z m0.1-0.1l0 0.1 0 0.1 0-0.1 0 0.1 0-0.1 0 0.1 0-0.1-0.1 0 0-0.1 0.1 0z m-3-0.1l0.1 0 0.1 0 0 0.1 0-0.1 0 0.1-0.1 0 0-0.1 0 0.1-0.1 0-0.1 0 0-0.1 0.1 0 0-0.1 0 0.1z m0.7 0l0 0.1 0-0.1-0.1 0 0-0.1 0.1 0 0 0.1z m-9.6-0.4l0 0.1-0.1 0 0 0.1-0.1 0 0-0.1 0.1 0 0-0.1 0-0.1 0.1 0 0 0.1z m15.8 0.4l0.1 0 0 0.1-0.1 0 0-0.1 0 0.1 0-0.1z m-17.6-0.6l0 0.1-0.1 0 0-0.1 0.1 0z m0.1 0l0.1 0 0 0.1 0.1 0 0 0.1-0.1 0 0.1-0.1-0.1 0-0.1 0-0.1 0 0-0.1 0 0.1 0-0.1 0.1 0z m15.8 0.5l0 0.1-0.1 0 0-0.1 0-0.1 0.1 0 0 0.1z m-12.8-0.5l0 0.1-0.1 0 0-0.1 0.1 0z m-0.7-0.1l-0.1 0 0 0.1 0-0.1 0 0.1-0.1 0 0-0.1 0.1 0 0.1 0z m-0.4 0l0.1 0 0 0.1 0.1 0-0.1 0-0.1 0 0-0.1z m0.6 0l0.1 0 0 0.1 0-0.1 0 0.1 0.1 0-0.1 0 0.1 0-0.1 0 0 0.1 0-0.1 0 0.1-0.1 0 0-0.1-0.1 0-0.1 0 0-0.1 0.1 0 0.1 0z m15 0.4l0 0.1 0-0.1 0.1 0 0 0.1-0.1 0 0 0.1 0-0.1 0 0.1-0.1 0 0-0.1 0.1 0-0.1 0 0.1 0-0.1 0 0-0.1 0.1 0-0.1 0 0.1 0z m-1.4-0.1l0 0.1-0.1 0 0 0.1-0.1 0-0.1 0 0.1 0 0 0.1 0-0.1 0 0.1-0.1 0 0-0.1 0.1 0-0.1 0 0.1 0 0-0.1 0.1 0-0.1 0 0.1 0 0-0.1 0.1 0z m-0.7-0.1l0.1 0 0 0.1-0.1 0 0-0.1z m-13.6-0.4l0 0.1 0-0.1 0 0.1-0.1 0 0-0.1 0.1 0z m-0.1-0.1l0.1 0 0 0.1-0.1 0 0-0.1 0 0.1 0-0.1z m-0.8 0l0-0.1 0.1 0 0 0.1-0.1 0z m15.3 0.4l0 0.1-0.1 0 0-0.1 0.1 0z m-18.4-0.9l0.1 0 0.1 0 0 0.1 0-0.1 0.1 0 0 0.1 0-0.1 0 0.1 0.1 0 0.1 0 0.1 0 0 0.1 0.1 0 0 0.1 0 0.1 0 0.1 0 0.1 0 0.1 0 0.1 0-0.1 0 0.1-0.1 0 0-0.1-0.1 0 0-0.1-0.1 0-0.1 0-0.1 0-0.1 0 0 0.1 0-0.1-0.1 0 0.1 0-0.1 0-0.1 0 0-0.1-0.1 0-0.1 0 0-0.1 0 0.1 0.1 0 0 0.1 0.1 0 0 0.1 0-0.1 0 0.1 0-0.1 0 0.1 0-0.1 0 0.1 0.1 0 0.1 0 0.1 0 0-0.1 0 0.1 0.1 0 0.1 0 0 0.1 0.1 0 0 0.1 0-0.1 0 0.1 0.1 0 0.1 0 0 0.1 0.1 0 0 0.1 0 0.1 0 0.1 0.1 0 0 0.1 0.1 0 0 0.1 0 0.1 0.1 0-0.1 0 0.1 0 0 0.1 0 0.1 0 0.1 0 0.1 0 0.1-0.1 0 0 0.1 0 0.1 0-0.1-0.1 0 0.1 0 0-0.1-0.1 0 0-0.1 0-0.1 0-0.1 0 0.1 0-0.1 0-0.1 0-0.1 0-0.1-0.1 0-0.1 0 0 0.1 0 0.1 0-0.1 0 0.1-0.1 0 0.1 0-0.1 0 0-0.1 0 0.1 0 0.1 0-0.1 0-0.1 0.1 0-0.1 0 0-0.1-0.1 0 0 0.1 0-0.1 0-0.1 0-0.1 0 0.1 0-0.1-0.1 0 0 0.1 0-0.1 0-0.1 0-0.1 0 0.1 0 0.1-0.1 0 0-0.1 0-0.1-0.1 0 0-0.1 0-0.1-0.1 0 0 0.1 0 0.1-0.1 0 0-0.1 0 0.1 0.1 0 0-0.1 0.1 0 0 0.1 0 0.1 0 0.1 0.1 0 0 0.1 0-0.1 0 0.1 0 0.1 0-0.1 0 0.1 0 0.1 0-0.1-0.1 0 0 0.1 0.1 0 0 0.1-0.1 0 0-0.1 0 0.1-0.1 0 0-0.1 0 0.1 0-0.1-0.1 0 0 0.1 0.1 0-0.1 0 0.1 0-0.1 0-0.1 0 0-0.1-0.1 0-0.1 0 0-0.1 0 0.1 0-0.1 0 0.1-0.1 0 0-0.1-0.1 0-0.1 0 0 0.1 0-0.1 0 0.1 0-0.1 0 0.1 0 0.1-0.1 0 0-0.1 0.1 0-0.1 0 0 0.1 0-0.1 0 0.1 0 0.1-0.1 0 0-0.1-0.1 0 0 0.1 0.1 0-0.1 0-0.1 0 0.1 0 0 0.1-0.1 0 0.1 0-0.1 0 0.1 0 0 0.1 0 0.1 0.1 0 0 0.1 0.1 0 0.1 0 0.1 0 0 0.1-0.1 0 0.1 0-0.1 0 0.1 0 0 0.1 0.1 0 0 0.1 0-0.1-0.1 0-0.1 0 0 0.1 0.1 0 0 0.1-0.1 0-0.1 0 0 0.1 0.1 0 0.1 0 0.1 0 0.1 0 0.1 0 0 0.1 0.1 0 0 0.1 0-0.1 0 0.1-0.1 0 0 0.1-0.1 0 0 0.1-0.1 0 0 0.1-0.1 0-0.1 0 0-0.1-0.1 0 0-0.1-0.1 0-0.1 0 0-0.1-0.1 0 0-0.1-0.1 0-0.1-0.1-0.1 0 0-0.1 0.1 0-0.1 0 0 0.1 0-0.1-0.1 0-0.1 0-0.1 0 0-0.1-0.1 0 0-0.1 0 0.1-0.1 0 0 0.1 0-0.1-0.1 0 0.1 0 0 0.1-0.1 0 0-0.1-0.1 0 0.1 0 0 0.1 0 0.1 0-0.1 0.1 0 0 0.1-0.1 0 0.1 0 0-0.1 0.1 0 0 0.1-0.1-0.1 0 0.1 0.1 0-0.1 0 0.1 0 0 0.1-0.1 0 0 0.1 0-0.1 0.1 0 0 0.1-0.1 0 0 0.1-0.1 0 0.1 0 0-0.1-0.1 0 0 0.1 0 0.1-0.1 0 0-0.1-0.1 0 0 0.1 0 0.1 0-0.1 0.1 0 0 0.1-0.1 0 0.1 0-0.1 0-0.1 0 0-0.1 0 0.1-0.1 0 0-0.1 0-0.1-0.1 0 0-0.1 0-0.1-0.1 0 0.1 0-0.1 0 0.1 0-0.1 0 0-0.1 0-0.1 0-0.1 0-0.1-0.1 0 0.1 0-0.1 0 0.1 0-0.1 0 0-0.1 0-0.1 0-0.1 0-0.1 0-0.1 0-0.1 0-0.1 0-0.1 0.1 0 0-0.1 0.1 0 0-0.1 0-0.1 0.1 0 0-0.1 0.1 0 0-0.1 0-0.1 0.1 0 0-0.1 0.1 0 0-0.1 0.1 0 0-0.1 0.1 0 0-0.1 0.1 0 0.1 0 0-0.1 0.1 0 0.1-0.1 0.1 0 0.1 0 0-0.1 0.1 0 0.1 0 0.1 0 0-0.1 0.1 0 0.1 0 0.1 0 0.1 0 0-0.1 0.1 0 0.1 0 0-0.1 0.1 0 0 0.1 0-0.1 0.1 0 0.1 0z m1.9 0l0.1 0 0.1 0 0.1 0 0 0.1 0-0.1 0 0.1 0-0.1 0 0.1 0-0.1 0 0.1 0.1 0 0.1 0 0.1 0 0.1 0 0.1 0 0.1 0 0.1 0 0.1 0 0 0.1 0-0.1 0.1 0 0 0.1 0-0.1 0.1 0 0 0.1-0.1 0 0.1 0 0-0.1 0.1 0 0.1 0 0.1 0 0.1 0 0.1 0 0 0.1 0-0.1 0 0.1 0.1 0 0.1 0 0.1 0 0 0.1 0-0.1 0 0.1 0 0.1 0 0.1 0-0.1 0 0.1-0.1 0 0 0.1 0-0.1-0.1 0 0-0.1 0.1 0-0.1 0 0.1 0-0.1 0 0 0.1 0.1 0 0 0.1-0.1 0 0-0.1 0 0.1 0-0.1 0 0.1 0-0.1 0 0.1-0.1 0-0.1 0 0-0.1 0 0.1 0-0.1-0.1 0-0.1 0-0.1 0 0-0.1-0.1 0 0 0.1-0.1 0 0 0.1 0-0.1 0.1 0 0-0.1-0.1 0 0.1 0-0.1 0-0.1 0 0 0.1-0.1 0 0 0.1 0-0.1 0 0.1 0-0.1-0.1 0 0.1 0 0 0.1-0.1 0 0.1 0-0.1 0 0.1 0-0.1 0 0 0.1-0.1 0 0.1 0-0.1 0-0.1 0 0 0.1 0.1 0-0.1 0 0.1 0 0 0.1-0.1 0-0.1 0-0.1 0-0.1 0-0.1 0-0.1 0-0.1-0.1 0-0.1 0-0.1 0-0.1-0.1 0 0-0.1-0.1 0-0.1 0 0-0.1-0.1 0-0.1 0 0 0.1 0.1 0-0.1 0 0.1 0-0.1 0 0-0.1-0.1 0 0 0.1 0-0.1-0.1 0-0.1 0 0-0.1 0-0.1 0.1 0 0.1 0 0.1 0 0.1 0 0-0.1 0.1 0 0.1 0 0.1 0z m9.9 6.8l0.1 0 0 0.1 0 0.1 0 0.1 0.1 0-0.1 0 0-0.1 0.1 0 0 0.1 0.1 0 0 0.1-0.1 0 0-0.1 0 0.1 0.1 0-0.1 0 0.1 0 0 0.1 0 0.1-0.1 0 0.1 0 0 0.1 0.1 0 0-0.1 0 0.1 0-0.1 0-0.1 0.1 0-0.1 0 0-0.1 0 0.1 0-0.1 0-0.1 0 0.1 0-0.1-0.1 0 0.1 0 0-0.1 0-0.1 0 0.1 0.1 0-0.1 0 0.1 0 0-0.1 0 0.1 0-0.1 0.1 0-0.1 0 0.1 0-0.1 0 0.1 0 0-0.1 0 0.1 0-0.1 0 0.1 0.1 0-0.1 0 0.1 0 0-0.1 0 0.1 0.1 0 0 0.1 0.1 0 0-0.1-0.1 0 0-0.1 0.1 0 0.1 0 0-0.1 0.1 0 0.1 0 0.1 0 0.1 0 0 0.1 0.1 0-0.1 0 0.1 0 0 0.1 0.1 0 0 0.1 0-0.1 0 0.1 0.1 0 0-0.1 0 0.1 0-0.1-0.1 0 0-0.1-0.1 0 0-0.1 0-0.1 0 0.1 0-0.1 0.1 0-0.1 0 0-0.1 0.1 0 0-0.1 0.1 0-0.1 0 0.1 0 0 0.1 0.1 0 0 0.1 0 0.1 0 0.1 0-0.1 0.1 0-0.1 0 0.1-0.1-0.1 0 0-0.1 0.1 0 0-0.1 0 0.1 0.1 0 0 0.1 0-0.1-0.1 0 0-0.1 0.1 0 0.1 0 0.1 0 0.1 0 0 0.1-0.1 0 0 0.1 0.1 0 0-0.1 0 0.1 0-0.1 0 0.1 0-0.1 0 0.1 0-0.1 0.1 0 0 0.1 0 0.1 0.1 0-0.1 0 0.1 0-0.1 0 0.1 0-0.1 0 0.1 0-0.1-0.1 0 0.1 0-0.1 0.1 0 0 0.1 0 0.1 0-0.1 0-0.1 0-0.1 0.1 0 0 0.1 0 0.1 0.1 0-0.1 0 0.1 0 0 0.1 0.1 0-0.1 0 0-0.1 0.1 0-0.1 0 0-0.1 0-0.1-0.1 0 0.1 0-0.1 0 0-0.1-0.1 0 0-0.1 0-0.1 0.1 0 0.1 0 0.1 0 0 0.1 0.1 0-0.1 0 0-0.1 0-0.1 0 0.1 0.1 0 0-0.1 0.1 0 0.1 0 0.1 0 0.1 0 0.1 0 0.1 0 0 0.1 0.1 0 0.1 0 0 0.1 0.1 0 0 0.1 0.1 0 0 0.1 0.1 0 0-0.1-0.1 0 0.1 0-0.1 0 0-0.1 0.1 0-0.1 0 0.1 0-0.1 0 0-0.1 0 0.1 0-0.1-0.1 0 0.1 0-0.1 0 0.1 0-0.1 0 0-0.1 0.1 0 0.1 0 0-0.1 0 0.1 0-0.1 0 0.1 0-0.1 0.1 0 0.1 0 0.1 0 0 0.1 0-0.1 0 0.1 0-0.1-0.1 0 0.1 0 0-0.1 0 0.1 0.1 0-0.1 0 0.1 0-0.1 0 0 0.1 0.1 0 0-0.1 0 0.1 0-0.1 0.1 0-0.1 0 0.1 0 0-0.1 0 0.1 0 0.1 0.1 0 0-0.1 0 0.1 0.1 0-0.1 0 0-0.1 0.1 0 0 0.1 0-0.1-0.1 0 0-0.1 0 0.1 0.1 0 0-0.1 0 0.1 0-0.1-0.1 0 0.1 0 0 0.1 0.1 0 0-0.1 0 0.1-0.1-0.1 0-0.1 0.1 0 0.1 0 0 0.1 0.1 0 0 0.1 0.1 0 0-0.1-0.1 0 0-0.1 0 0.1 0-0.1 0.1 0 0 0.1 0-0.1 0 0.1 0-0.1 0 0.1 0.1 0 0.1 0-0.1 0 0-0.1 0 0.1 0.1 0 0-0.1 0 0.1 0-0.1 0 0.1 0.1 0 0-0.1 0.1 0-0.1 0 0.1 0-0.1 0 0-0.1 0.1 0 0 0.1 0.1 0-0.1 0 0-0.1 0.1 0 0 0.1 0-0.1 0 0.1 0.1 0 0 0.1 0.1 0 0-0.1-0.1 0 0.1 0-0.1 0 0-0.1 0.1 0-0.1 0-0.1 0 0-0.1 0-0.1 0.1 0 0 0.1 0-0.1 0.1 0 0 0.1 0-0.1-0.1 0 0.1 0-0.1 0 0.1 0 0.1 0-0.1 0 0.1 0-0.1 0 0-0.1 0 0.1-0.1 0 0.1 0-0.1 0 0-0.1 0.1 0 0.1 0-0.1 0-0.1 0 0 0.1-0.1 0 0-0.1 0 0.1 0-0.1 0.1 0 0.1 0-0.1 0 0-0.1 0.1 0-0.1 0-0.1 0 0-0.1 0.1 0 0 0.1 0-0.1 0 0.1 0-0.1 0.1 0.1 0-0.1 0-0.1 0 0.1 0-0.1 0 0.1 0-0.1 0.1 0-0.1 0 0-0.1 0.1 0 0 0.1 0.1 0-0.1 0 0-0.1 0.1 0 0 0.1-0.1 0 0.1 0 0-0.1 0 0.1 0-0.1-0.1 0-0.1 0 0.1 0 0-0.1 0.1 0-0.1 0 0 0.1 0.1 0-0.1 0 0.1 0 0-0.1 0 0.1 0-0.1 0 0.1 0 0.1 0.1 0-0.1 0 0.1 0 0 0.1 0-0.1 0-0.1-0.1 0 0.1 0 0-0.1-0.1 0 0.1 0-0.1 0 0-0.1 0 0.1 0-0.1 0 0.1 0-0.1-0.1 0 0.1 0-0.1 0 0 0.1 0-0.1-0.1 0 0.1 0-0.1 0 0-0.1 0.1 0 0.1 0 0.1 0 0.1 0 0 0.1 0.1 0-0.1 0 0-0.1 0.1 0 0-0.1 0 0.1 0-0.1 0 0.1 0-0.1 0 0.1 0.1 0-0.1 0 0-0.1 0.1 0 0.1 0-0.1 0 0-0.1 0 0.1 0-0.1 0.1 0-0.1 0 0 0.1 0.1 0 0-0.1 0 0.1 0-0.1 0 0.1 0.1 0-0.1 0 0.1 0-0.1 0 0.1 0 0.1 0 0-0.1 0 0.1 0.1 0-0.1 0 0.1 0 0.1 0-0.1 0 0.1 0 0.1 0 0.1 0 0 0.1 0.1 0 0-0.1 0 0.1 0.1 0 0 0.1 0-0.1 0 0.1 0-0.1 0.1 0 0 0.1 0-0.1 0.1 0 0-0.1 0.1 0 0.1 0.1 0-0.1 0 0.1 0-0.1 0.1 0 0 0.1 0-0.1 0 0.1 0 0.1 0-0.1 0.1 0 0 0.1 0.1 0 0.1 0-0.1 0-0.1 0 0-0.1 0 0.1 0-0.1 0.1 0 0 0.1 0-0.1 0.1 0 0 0.1 0-0.1-0.1 0 0-0.1 0.1 0 0 0.1 0-0.1 0 0.1 0.1 0 0 0.1 0.1 0-0.1 0 0.1 0 0-0.1 0-0.1-0.1 0 0-0.1 0-0.1 0.1 0 0 0.1 0.1 0 0 0.1-0.1 0 0.1 0 0-0.1 0-0.1-0.1 0 0-0.1 0.1 0-0.1 0 0.1 0-0.1 0 0.1 0-0.1 0 0-0.1 0 0.1 0-0.1 0.1 0-0.1 0 0.1 0-0.1 0 0-0.1 0.1 0 0 0.1 0.1 0 0 0.1 0.1 0-0.1 0 0.1 0 0 0.1 0.1 0-0.1 0 0.1 0 0 0.1 0 0.1 0 0.1 0 0.1 0-0.1 0-0.1 0.1 0 0-0.1 0 0.1 0 0.1 0-0.1 0.1 0 0 0.1 0-0.1 0 0.1 0-0.1 0 0.1 0 0.1-0.1 0 0.1 0 0-0.1 0.1 0-0.1 0 0.1 0 0 0.1 0.1 0 0 0.1 0 0.1 0.1 0 0 0.1 0-0.1-0.1 0 0-0.1 0-0.1 0-0.1 0.1 0 0 0.1 0 0.1 0-0.1 0.1 0 0.1 0-0.1 0 0.1 0-0.1 0 0-0.1 0.1 0 0 0.1 0.1 0 0.1 0 0.1 0 0.1 0 0.1 0 0.1 0 0 0.1 0.1 0 0.1 0 0 0.1-0.1 0 0.1 0 0.1 0 0 0.1 0 0.1 0 0.1 0-0.1 0.1 0-0.1 0 0-0.1 0-0.1-0.1 0 0-0.1 0-0.1 0.1 0-0.1 0-0.1 0 0-0.1 0.1 0 0.1 0 0.1 0 0.1 0 0 0.1 0.1 0 0 0.1 0 0.1 0.1 0 0 0.1 0-0.1-0.1 0 0-0.1 0-0.1 0.1 0 0.1 0 0.1 0 0 0.1 0.1 0 0 0.1 0-0.1-0.1 0 0-0.1 0.1 0-0.1 0 0-0.1-0.1 0 0-0.1-0.1 0 0-0.1-0.1 0 0-0.1-0.1 0 0-0.1 0 0.1 0-0.1-0.1 0-0.1 0-0.1 0-0.1 0 0 0.1-0.1 0 0-0.1-0.1 0-0.1 0 0-0.1 0-0.1 0-0.1-0.1 0 0.1 0 0-0.1 0 0.1 0-0.1-0.1 0-0.1 0 0-0.1 0.1 0 0-0.1-0.1 0-0.1 0 0-0.1 0.1 0 0-0.1-0.1 0-0.1 0 0-0.1 0-0.1 0 0.1 0.1 0 0.1 0 0 0.1 0.1 0-0.1 0 0.1 0 0 0.1 0-0.1 0-0.1 0 0.1-0.1 0 0-0.1 0.1 0-0.1 0 0-0.1 0.1 0-0.1 0 0.1 0 0-0.1 0 0.1 0-0.1 0-0.1 0-0.1 0-0.1-0.1 0 0-0.1-0.1 0 0.1 0-0.1 0 0 0.1-0.1 0 0 0.1-0.1 0 0-0.1-0.1-0.1 0.1 0-0.1 0 0-0.1 0-0.1-0.1 0 0.1 0-0.1 0 0-0.1 0 0.1 0-0.1 0.1 0-0.1 0 0.1 0-0.1 0 0-0.1 0-0.1-0.1 0 0-0.1 0 0.1 0-0.1 0 0.1 0-0.1 0.1 0-0.1 0 0-0.1 0.1 0 0 0.1 0.1 0 0-0.1 0 0.1 0-0.1-0.1 0 0.1 0 0-0.1-0.1 0 0.1 0-0.1 0 0.1 0 0-0.1-0.1 0 0 0.1-0.1 0 0.1 0 0-0.1-0.1 0 0.1 0 0-0.1-0.1 0 0.1 0-0.1 0 0-0.1 0 0.1 0-0.1 0 0.1 0-0.1 0 0.1-0.1 0 0-0.1 0 0.1-0.1 0 0-0.1 0-0.1-0.1 0 0 0.1 0-0.1-0.1 0 0 0.1 0-0.1 0 0.1 0-0.1 0 0.1-0.1 0 0-0.1 0-0.1 0.1 0-0.1 0 0.1 0-0.1 0 0 0.1-0.1 0 0.1 0-0.1 0 0.1 0 0-0.1 0 0.1-0.1 0 0-0.1 0 0.1 0 0.1 0-0.1 0 0.1-0.1 0 0-0.1-0.1 0 0 0.1 0-0.1 0.1 0.1-0.1 0 0 0.1-0.1 0 0-0.1-0.1 0 0.1 0 0-0.1 0 0.1-0.1 0 0-0.1 0.1 0-0.1 0 0-0.1 0 0.1 0-0.1-0.1 0 0-0.1 0.1 0 0 0.1 0-0.1 0 0.1 0-0.1 0.1 0 0 0.1 0.1 0 0-0.1 0.1 0 0-0.1 0 0.1 0.1 0 0-0.1-0.1 0 0.1 0-0.1 0 0.1 0 0-0.1 0.1 0 0-0.1-0.1 0 0 0.1-0.1 0 0.1 0 0-0.1 0 0.1-0.1 0 0 0.1-0.1 0 0.1 0 0 0.1-0.1 0 0-0.1-0.1 0 0.1 0-0.1 0 0-0.1 0 0.1 0.1 0 0-0.1 0 0.1 0-0.1 0.1 0-0.1 0-0.1 0 0-0.1 0-0.1 0 0.1-0.1 0 0-0.1 0.1 0-0.1 0 0.1 0-0.1 0 0 0.1 0.1 0-0.1 0 0 0.1 0.1 0 0 0.1 0-0.1-0.1 0 0.1 0-0.1 0 0.1 0-0.1 0-0.1 0-0.1 0 0-0.1 0 0.1 0-0.1 0 0.1-0.1 0 0-0.1-0.1 0 0-0.1 0.1 0 0 0.1 0-0.1-0.1 0 0 0.1 0 0.1 0-0.1-0.1 0 0.1 0 0-0.1-0.1 0 0-0.1-0.1 0 0 0.1 0-0.1-0.1 0 0-0.1 0-0.1 0 0.1-0.1 0 0-0.1 0.1 0-0.1 0 0-0.1-0.1 0 0-0.1-0.1 0 0-0.1 0.1 0 0.1 0 0.1 0 0.1 0 0 0.1 0-0.1 0.1 0 0 0.1 0.1 0 0.1 0 0.1 0 0.1 0 0.1 0 0.1 0 0.1 0 0.1 0 0.1 0 0 0.1 0.1 0 0.1 0 0.1 0 0.1 0 0.1 0 0 0.1 0.1 0 0.1 0 0.1 0 0.1 0 0 0.1 0.1 0 0.1 0 0.1 0 0.1 0 0 0.1 0-0.1 0 0.1 0.1 0 0.1 0 0 0.1 0-0.1 0.1 0 0 0.1 0-0.1 0.1 0 0 0.1 0.1 0 0.1 0 0.1 0 0 0.1 0 0.1 0.1 0 0-0.1 0.1 0 0.1 0 0.1 0 0 0.1 0.1 0 0.1 0 0.1 0 0.1 0 0.1 0 0 0.1 0-0.1 0 0.1 0.1-0.1 0 0.1 0.1 0 0.1 0 0 0.1 0.1 0 0.1 0 0 0.1 0.1 0 0.1 0 0.1 0 0 0.1 0.1 0 0.1 0 0 0.1 0.1 0 0.1 0 0 0.1 0.1 0 0.1 0 0 0.1 0.1 0 0.1 0 0 0.1 0.1 0 0.1 0 0.1 0 0 0.1 0.1 0 0.1 0 0 0.1 0.1 0 0.1 0 0 0.1 0.1 0 0.1 0 0 0.1 0.1 0 0 0.1 0-0.1 0 0.1 0.1 0 0.1 0 0 0.1 0.1 0 0 0.1 0.1 0 0 0.1 0 0.1 0 0.1 0 0.1 0.1 0 0 0.1 0 0.1 0 0.1-0.1 0 0.1 0 0 0.1 0 0.1 0 0.1 0 0.1-0.1 0 0 0.1 0.1 0-0.1 0 0.1 0 0 0.1-0.1 0 0 0.1 0 0.1 0 0.1 0 0.1-0.1 0 0 0.1 0 0.1 0 0.1-0.1 0 0 0.1 0 0.1-0.1 0 0 0.1 0 0.1-0.1 0.1 0 0.1-0.1 0 0 0.1-0.1 0 0.1 0-0.1 0 0 0.1 0 0.1-0.1 0 0 0.1-0.1 0 0 0.1 0 0.1-0.1 0 0 0.1-0.1 0 0 0.1-0.1 0 0 0.1-0.1 0 0 0.1-0.1 0 0.1 0-0.1 0-0.1 0 0 0.1-0.1 0-0.1 0 0 0.1-0.1 0 0 0.1-0.1 0-0.1 0-0.1 0-0.1 0 0 0.1-0.1 0-0.1 0-0.1 0 0 0.1-0.1 0-0.1 0-0.1 0-0.1 0 0 0.1-0.1 0-0.1 0-0.1 0-0.1 0.1 0-0.1 0 0.1-0.1 0-0.1 0 0 0.1-0.1 0-0.1 0 0 0.1 0-0.1-0.1 0 0.1 0-0.1 0 0 0.1 0-0.1 0 0.1-0.1 0-0.1 0-0.1 0 0 0.1-0.1 0-0.1 0-0.1 0 0 0.1-0.1 0-0.1 0 0 0.1-0.1 0-0.1 0-0.1 0 0 0.1 0-0.1 0 0.1 0-0.1 0 0.1-0.1 0 0-0.1 0 0.1 0-0.1 0 0.1-0.1 0-0.1 0 0 0.1 0-0.1 0 0.1-0.1 0-0.1 0-0.1 0-0.1 0-0.1 0 0 0.1 0-0.1 0 0.1-0.1 0-0.1 0-0.1 0-0.1 0-0.1 0-0.1 0-0.1 0-0.1 0-0.1 0-0.1 0-0.1 0-0.1 0-0.1 0-0.1 0-0.1 0 0-0.1-0.1 0 0 0.1 0-0.1-0.1 0-0.1 0-0.1 0-0.1 0-0.1 0-0.1 0 0-0.1-0.1 0-0.1 0-0.1 0 0-0.1-0.1 0-0.1 0-0.1 0 0-0.1-0.1 0-0.1 0 0-0.1-0.1 0 0-0.1-0.1 0-0.1 0 0-0.1-0.1 0-0.1 0-0.1 0-0.1 0-0.1 0-0.1 0-0.1 0-0.1 0-0.1 0-0.1 0-0.1 0-0.1 0 0 0.1-0.1 0-0.1 0-0.1 0-0.1 0-0.1 0-0.1 0 0 0.1 0-0.1 0 0.1-0.1 0-0.1 0-0.1 0 0-0.1-0.1 0 0 0.1 0-0.1 0 0.1 0 0.1-0.1 0 0.1 0 0-0.1-0.1 0-0.1 0 0 0.1-0.1 0-0.1 0 0 0.1 0-0.1-0.1 0 0 0.1 0-0.1 0 0.1-0.1 0-0.1 0-0.1 0 0 0.1-0.1 0-0.1 0 0 0.1-0.1 0-0.1 0-0.1 0 0 0.1 0-0.1 0 0.1-0.1 0-0.1 0 0 0.1 0-0.1 0 0.1-0.1 0-0.1 0 0 0.1-0.1 0-0.1 0-0.1 0-0.1 0 0 0.1-0.1 0-0.1 0 0 0.1-0.1 0-0.1 0 0 0.1-0.1 0-0.1 0 0 0.1-0.1 0-0.1 0 0 0.1-0.1 0-0.1 0-0.1 0-0.1 0-0.1 0 0 0.1-0.1 0 0-0.1 0 0.1 0-0.1 0 0.1-0.1 0-0.1 0-0.1 0-0.1 0-0.1 0 0 0.1-0.1 0 0-0.1 0 0.1-0.1 0-0.1 0-0.1 0-0.1 0 0 0.1-0.1 0-0.1 0-0.1 0-0.1 0 0 0.1-0.1 0-0.1 0-0.1 0-0.1 0 0 0.1-0.1 0-0.1 0 0 0.1-0.1 0-0.1 0 0 0.1-0.1 0-0.1 0 0 0.1 0-0.1 0 0.1-0.1 0 0.1 0-0.1 0-0.1 0 0 0.1-0.1 0-0.1 0-0.1 0-0.1 0 0 0.1-0.1 0 0 0.1-0.1 0-0.1 0-0.1 0 0 0.1-0.1 0-0.1 0-0.1 0 0 0.1-0.1 0 0 0.1-0.1 0-0.1 0 0 0.1-0.1 0 0 0.1-0.1 0 0 0.1 0-0.1 0 0.1-0.1 0-0.1 0 0.1 0-0.1 0 0 0.1-0.1 0 0 0.1-0.1 0 0.1 0-0.1 0-0.1 0 0 0.1-0.1 0 0 0.1-0.1 0 0 0.1-0.1 0-0.1 0 0 0.1-0.1 0 0 0.1-0.1 0 0-0.1 0 0.1-0.1 0-0.1 0 0 0.1-0.1 0-0.1 0 0 0.1-0.1 0-0.1 0-0.1 0 0 0.1-0.1 0-0.1 0 0 0.1-0.1 0-0.1 0-0.1 0-0.1 0-0.1 0-0.1 0-0.1 0 0 0.1 0-0.1 0 0.1-0.1 0 0-0.1 0 0.1-0.1 0-0.1 0-0.1 0-0.1 0-0.1 0-0.1 0 0-0.1 0 0.1-0.1 0 0-0.1 0 0.1 0-0.1 0 0.1-0.1 0-0.1 0-0.1 0-0.1 0-0.1 0-0.1 0-0.1 0-0.1 0-0.1 0-0.1 0-0.1 0-0.1 0-0.1 0-0.1 0-0.1 0-0.1 0-0.1 0-0.1 0 0-0.1-0.1 0-0.1 0-0.1 0 0-0.1-0.1 0-0.1 0 0-0.1-0.1 0 0-0.1-0.1 0 0-0.1-0.1 0-0.1 0-0.1 0 0-0.1-0.1 0-0.1 0-0.1 0-0.1 0 0-0.1-0.1 0-0.1 0-0.1 0-0.1 0 0-0.1-0.1 0 0-0.1-0.1 0 0-0.1-0.1 0 0-0.1-0.1 0 0-0.1-0.1 0 0-0.1 0-0.1-0.1 0 0-0.1 0-0.1-0.1 0 0.1 0-0.1 0 0-0.1 0-0.1-0.1 0 0.1 0-0.1 0 0-0.1 0-0.1-0.1 0 0.1 0-0.1 0 0-0.1 0.1 0-0.1 0 0-0.1 0-0.1-0.1 0 0-0.1 0.1 0-0.1 0 0.1 0-0.1 0 0-0.1 0 0.1 0-0.1 0-0.1 0 0.1 0-0.1 0-0.1 0-0.1 0-0.1-0.1 0 0-0.1 0-0.1-0.1 0 0.1 0-0.1 0 0-0.1 0-0.1-0.1 0 0-0.1-0.1 0 0-0.1 0-0.1 0-0.1 0-0.1-0.1 0 0-0.1 0-0.1 0.1 0 0-0.1-0.1 0 0 0.1 0-0.1 0-0.1 0-0.1 0 0.1 0-0.1-0.1 0 0-0.1 0-0.1-0.1 0 0-0.1 0 0.1 0-0.1 0-0.1-0.1 0 0.1 0-0.1 0 0-0.1 0-0.1-0.1 0 0.1 0-0.1 0 0-0.1 0-0.1-0.1 0 0.1 0-0.1 0 0.1 0-0.1 0 0-0.1-0.1-0.1 0.1 0-0.1 0 0-0.1 0-0.1 0-0.1-0.1 0 0-0.1 0-0.1 0-0.1-0.1 0 0.1 0 0-0.1-0.1 0 0.1 0-0.1 0 0-0.1 0-0.1 0-0.1 0-0.1 0 0.1 0-0.1-0.1 0 0.1 0 0-0.1 0-0.1-0.1 0 0-0.1 0.1 0-0.1 0 0-0.1 0.1 0 0.1 0 0.1 0 0.1 0 0.1 0 0 0.1-0.1 0 0.1 0-0.1 0 0 0.1 0-0.1 0.1 0 0 0.1 0.1 0 0.1 0 0 0.1 0 0.1 0.1 0 0 0.1 0 0.1-0.1 0 0.1 0 0 0.1-0.1 0 0-0.1 0 0.1-0.1 0 0.1 0 0 0.1 0 0.1 0.1 0 0 0.1 0.1 0 0 0.1 0.1 0 0 0.1 0.1 0-0.1 0 0.1 0 0 0.1-0.1 0-0.1 0 0 0.1 0.1 0 0-0.1 0.1 0 0 0.1 0-0.1 0.1 0-0.1 0 0 0.1 0.1 0 0-0.1 0.1 0 0 0.1 0.1 0 0 0.1 0 0.1-0.1 0 0.1 0 0 0.1 0-0.1 0.1 0 0.1 0 0 0.1-0.1 0 0.1 0-0.1 0 0 0.1 0.1 0-0.1 0 0 0.1 0.1 0 0-0.1 0 0.1-0.1 0 0 0.1 0-0.1 0.1 0 0 0.1 0-0.1 0 0.1 0.1 0 0 0.1 0-0.1 0.1 0 0 0.1-0.1 0 0.1 0-0.1 0 0 0.1 0.1 0 0 0.1 0-0.1 0.1 0 0-0.1-0.1 0 0.1 0 0-0.1 0-0.1 0.1 0 0 0.1-0.1 0 0.1 0 0 0.1 0 0.1-0.1 0 0 0.1 0.1 0 0-0.1 0-0.1 0.1 0 0 0.1 0 0.1 0.1 0-0.1 0 0 0.1 0.1 0-0.1 0 0 0.1-0.1 0-0.1 0 0.1 0 0 0.1 0-0.1 0.1 0 0 0.1-0.1 0 0 0.1 0.1 0-0.1 0 0 0.1-0.1 0 0.1 0 0.1 0 0.1 0 0 0.1 0-0.1 0.1 0 0 0.1-0.1 0 0.1 0-0.1 0 0 0.1 0.1 0 0-0.1 0 0.1 0.1 0 0 0.1 0-0.1-0.1 0 0-0.1 0.1 0 0-0.1 0.1 0 0 0.1 0-0.1 0-0.1 0 0.1 0.1 0 0-0.1 0 0.1 0.1 0 0 0.1-0.1 0 0-0.1 0 0.1 0 0.1 0-0.1-0.1 0 0 0.1 0 0.1 0-0.1 0.1 0 0 0.1 0 0.1 0 0.1 0-0.1 0-0.1 0-0.1 0-0.1 0.1 0 0 0.1 0.1 0 0-0.1 0 0.1 0.1 0 0.1 0-0.1 0 0 0.1 0.1 0 0-0.1 0.1 0-0.1 0 0 0.1 0.1 0 0 0.1-0.1 0 0.1 0-0.1 0 0 0.1-0.1 0 0.1 0 0.1 0 0 0.1 0.1 0 0-0.1 0 0.1 0.1 0 0-0.1 0.1 0 0 0.1 0-0.1 0 0.1 0 0.1 0.1 0-0.1 0 0 0.1 0.1 0 0 0.1-0.1 0 0.1 0-0.1 0 0 0.1 0-0.1-0.1 0 0 0.1-0.1 0 0 0.1 0.1 0 0-0.1 0 0.1-0.1 0 0.1 0 0-0.1 0.1 0 0-0.1 0.1 0 0 0.1-0.1 0 0 0.1 0.1 0 0-0.1 0-0.1 0.1 0 0-0.1 0.1 0 0.1 0 0 0.1 0.1 0 0.1 0 0.1 0 0 0.1-0.1 0 0.1 0 0.1 0 0 0.1 0-0.1 0-0.1 0-0.1 0 0.1 0.1 0 0-0.1 0 0.1 0-0.1 0.1 0-0.1 0 0.1 0-0.1 0 0.1 0 0-0.1 0-0.1 0 0.1 0.1 0 0.1 0 0-0.1 0 0.1 0.1 0-0.1 0 0.1 0 0 0.1 0 0.1 0 0.1 0 0.1 0.1 0 0-0.1 0 0.1 0.1 0 0 0.1 0.1 0-0.1 0 0 0.1 0.1 0 0-0.1 0 0.1 0-0.1 0 0.1 0-0.1 0.1 0 0 0.1-0.1 0 0 0.1 0.1 0 0-0.1 0-0.1 0.1 0 0-0.1 0 0.1 0-0.1 0.1 0 0 0.1 0 0.1 0-0.1-0.1 0 0 0.1 0 0.1-0.1 0 0 0.1 0.1 0-0.1 0-0.1 0 0-0.1 0 0.1 0.1 0-0.1 0 0 0.1 0.1 0 0 0.1 0.1 0 0.1 0 0 0.1 0.1 0 0-0.1 0 0.1 0-0.1 0-0.1 0.1 0 0-0.1 0.1 0 0.1 0-0.1 0 0.1 0-0.1 0 0 0.1 0.1 0 0.1 0 0-0.1 0 0.1 0.1 0 0-0.1 0.1 0 0 0.1 0.1 0 0-0.1 0.1 0 0 0.1-0.1 0 0.1 0-0.1 0 0.1 0-0.1 0 0.1 0 0 0.1 0.1 0-0.1 0 0.1 0 0-0.1-0.1 0 0.1 0 0 0.1 0.1 0 0-0.1 0 0.1 0.1 0 0 0.1 0-0.1-0.1 0 0.1 0-0.1 0 0.1 0 0-0.1-0.1 0 0 0.1 0-0.1 0-0.1 0.1 0 0 0.1 0-0.1 0 0.1 0-0.1 0 0.1 0.1 0 0.1 0-0.1 0 0.1 0 0-0.1 0 0.1 0.1 0 0-0.1-0.1 0-0.1 0 0.1 0-0.1 0 0.1 0-0.1 0 0-0.1 0.1 0 0 0.1 0.1 0 0-0.1 0.1 0 0 0.1 0 0.1 0-0.1 0 0.1 0-0.1 0-0.1 0 0.1 0.1 0 0-0.1-0.1 0 0.1 0 0.1 0-0.1 0 0.1 0-0.1 0 0.1 0 0-0.1 0 0.1 0.1 0 0 0.1 0.1 0 0-0.1 0 0.1 0-0.1 0 0.1-0.1 0 0-0.1 0.1 0 0.1 0 0-0.1-0.1 0 0 0.1 0-0.1 0 0.1 0-0.1-0.1 0 0-0.1 0-0.1 0.1 0 0 0.1 0-0.1 0.1 0-0.1 0 0.1 0-0.1 0 0.1 0 0-0.1 0.1 0 0 0.1 0-0.1 0 0.1 0.1 0-0.1 0 0.1 0-0.1 0 0.1 0 0 0.1 0.1 0 0 0.1-0.1 0-0.1 0 0-0.1 0 0.1-0.1 0 0.1 0 0.1 0-0.1 0 0 0.1 0.1 0 0-0.1 0.1 0 0-0.1 0.1 0 0 0.1 0.1 0 0.1 0 0.1 0 0-0.1-0.1 0 0.1 0 0-0.1 0 0.1 0-0.1 0.1 0 0 0.1 0-0.1 0.1 0 0 0.1 0-0.1 0.1 0 0 0.1 0 0.1 0.1 0 0-0.1 0.1 0 0-0.1-0.1 0 0.1 0 0-0.1 0.1 0 0 0.1 0 0.1 0-0.1 0 0.1 0-0.1 0 0.1 0.1 0 0-0.1 0.1 0 0 0.1 0.1 0 0-0.1 0 0.1 0-0.1 0 0.1 0-0.1 0.1 0-0.1 0 0.1 0 0.1 0 0-0.1 0 0.1-0.1 0-0.1 0 0-0.1-0.1 0 0-0.1 0.1 0-0.1 0 0.1 0 0-0.1 0.1 0 0.1 0 0.1 0 0 0.1 0.1 0 0.1 0 0-0.1 0-0.1 0-0.1 0 0.1 0-0.1 0.1 0 0 0.1 0.1 0 0-0.1 0.1 0 0-0.1 0-0.1 0 0.1 0.1 0-0.1 0 0 0.1 0.1 0 0 0.1 0.1 0 0-0.1 0.1 0 0.1 0 0 0.1-0.1 0 0.1 0 0.1 0 0-0.1 0-0.1 0.1 0 0-0.1 0.1 0 0 0.1 0.1 0 0-0.1 0.1 0 0 0.1 0 0.1 0.1 0 0-0.1 0.1 0-0.1 0 0.1 0 0.1 0 0-0.1 0.1 0 0 0.1 0.1 0 0-0.1 0 0.1 0-0.1-0.1 0 0.1 0-0.1 0 0-0.1 0.1 0 0.1 0 0.1 0-0.1 0 0-0.1 0 0.1 0.1 0 0 0.1 0.1 0 0-0.1 0 0.1 0.1 0-0.1 0 0-0.1 0.1 0 0-0.1 0.1 0 0 0.1 0-0.1 0.1 0 0 0.1 0.1 0 0-0.1 0 0.1 0-0.1 0.1 0 0 0.1 0-0.1 0-0.1 0.1 0 0.1 0 0.1 0 0-0.1 0.1 0 0 0.1-0.1 0 0.1 0 0 0.1 0.1 0-0.1 0 0.1 0 0-0.1 0.1 0-0.1 0 0-0.1-0.1 0 0.1 0 0-0.1 0.1 0-0.1 0 0.1 0 0 0.1 0-0.1 0.1 0-0.1 0 0.1 0-0.1 0 0-0.1 0-0.1 0.1 0 0 0.1 0-0.1 0.1 0 0 0.1 0-0.1 0 0.1 0-0.1 0.1 0 0 0.1 0.1 0 0-0.1 0.1 0-0.1 0 0.1 0 0 0.1 0-0.1 0-0.1 0.1 0 0 0.1 0-0.1 0 0.1 0-0.1 0.1 0 0 0.1 0.1 0 0 0.1-0.1 0 0.1 0 0-0.1 0 0.1 0-0.1 0.1 0 0-0.1-0.1 0 0-0.1 0.1 0 0.1 0 0-0.1 0-0.1 0.1 0 0.1 0 0 0.1 0.1 0-0.1 0 0.1 0-0.1 0 0 0.1 0-0.1 0 0.1 0.1 0 0-0.1 0 0.1 0-0.1 0.1 0z m4-5.2l0-0.1-0.1 0 0.1 0 0-0.1 0 0.1-0.1 0 0-0.1 0 0.1 0-0.1 0 0.1-0.1 0-0.1 0 0-0.1 0 0.1-0.1 0-0.1 0-0.1 0 0-0.1 0 0.1-0.1 0 0-0.1-0.1 0-0.1 0 0.1 0-0.1 0 0.1 0-0.1 0 0 0.1-0.1 0-0.1 0 0.1 0-0.1 0-0.1 0 0-0.1 0 0.1-0.1 0 0-0.1-0.1 0 0-0.1 0 0.1 0-0.1-0.1 0 0 0.1 0-0.1 0 0.1 0-0.1-0.1 0 0 0.1 0.1 0-0.1 0 0.1 0-0.1 0 0.1 0 0 0.1 0 0.1-0.1 0 0.1 0 0-0.1-0.1 0 0.1 0-0.1 0-0.1 0-0.1 0 0-0.1-0.1 0-0.1 0 0-0.1-0.1 0 0-0.1 0 0.1-0.1 0 0-0.1 0 0.1-0.1 0 0 0.1-0.1 0 0-0.1 0-0.1 0-0.1-0.1 0 0.1 0-0.1 0 0 0.1-0.1 0 0 0.1-0.1 0 0 0.1 0-0.1-0.1 0 0 0.1 0.1 0-0.1 0-0.1 0 0.1 0-0.1 0-0.1 0 0-0.1-0.1 0 0-0.1-0.1 0 0 0.1-0.1 0 0 0.1 0 0.1-0.1 0 0 0.1 0-0.1 0 0.1-0.1 0-0.1 0 0-0.1 0 0.1 0-0.1-0.1 0 0-0.1 0-0.1 0 0.1-0.1 0 0 0.1 0-0.1 0-0.1 0 0.1-0.1 0-0.1 0 0-0.1 0-0.1-0.1 0 0 0.1 0-0.1 0 0.1 0 0.1 0-0.1-0.1 0 0 0.1 0.1 0-0.1 0 0 0.1 0-0.1-0.1 0 0.1 0 0-0.1-0.1 0 0-0.1 0 0.1 0-0.1 0 0.1-0.1 0-0.1 0-0.1 0 0.1 0-0.1 0 0-0.1-0.1 0-0.1 0-0.1 0 0 0.1-0.1 0 0-0.1 0 0.1 0-0.1-0.1 0 0 0.1 0-0.1 0 0.1 0-0.1-0.1 0 0.1 0-0.1 0 0-0.1-0.1 0-0.1 0 0 0.1 0-0.1 0 0.1-0.1 0 0-0.1-0.1 0 0-0.1-0.1 0-0.1 0 0.1 0-0.1 0 0.1 0-0.1 0 0 0.1 0-0.1 0 0.1 0.1 0 0 0.1-0.1 0 0-0.1 0 0.1 0-0.1 0 0.1-0.1 0 0-0.1 0 0.1-0.1 0 0-0.1-0.1 0-0.1 0 0.1 0-0.1 0 0-0.1-0.1 0-0.1 0 0-0.1 0 0.1-0.1 0 0.1 0-0.1 0 0 0.1-0.1 0 0-0.1 0 0.1-0.1 0-0.1 0 0 0.1 0-0.1 0 0.1-0.1 0 0-0.1-0.1 0 0.1 0-0.1 0 0.1 0-0.1 0 0.1 0-0.1 0 0 0.1 0-0.1-0.1 0-0.1 0 0 0.1 0-0.1-0.1 0 0-0.1 0 0.1 0 0.1 0 0.1 0 0.1 0-0.1-0.1 0 0.1 0-0.1 0 0-0.1-0.1 0 0.1 0-0.1 0 0.1 0-0.1 0 0-0.1-0.1 0 0 0.1 0.1 0-0.1 0 0 0.1 0.1 0-0.1 0-0.1 0 0-0.1-0.1 0 0.1 0-0.1 0 0 0.1 0-0.1 0 0.1-0.1 0 0-0.1 0 0.1-0.1 0 0.1 0-0.1 0-0.1 0 0.1 0-0.1 0-0.1 0 0-0.1-0.1 0 0-0.1 0 0.1-0.1 0-0.1 0-0.1 0 0-0.1-0.1 0 0 0.1-0.1 0-0.1 0-0.1 0 0 0.1 0-0.1 0 0.1 0-0.1 0-0.1 0-0.1-0.1 0 0 0.1 0 0.1-0.1 0-0.1 0 0.1 0 0-0.1 0-0.1 0 0.1 0-0.1 0 0.1-0.1 0 0-0.1 0 0.1 0 0.1 0-0.1 0 0.1 0-0.1 0 0.1-0.1 0 0.1 0-0.1 0 0-0.1 0-0.1 0-0.1 0.1 0-0.1 0 0.1 0-0.1 0 0.1 0-0.1 0 0 0.1 0 0.1-0.1 0-0.1 0 0-0.1 0.1 0 0-0.1 0.1 0-0.1 0 0.1 0-0.1 0 0.1 0-0.1 0 0.1 0-0.1 0 0 0.1-0.1 0 0 0.1 0-0.1-0.1 0 0.1 0-0.1 0 0.1 0-0.1 0 0 0.1 0.1 0-0.1 0 0.1 0-0.1 0 0 0.1-0.1 0 0-0.1 0 0.1-0.1 0 0-0.1 0 0.1-0.1 0 0-0.1 0 0.1 0-0.1-0.1 0-0.1 0 0.1 0 0 0.1 0 0.1 0-0.1 0 0.1-0.1 0 0-0.1-0.1 0 0-0.1 0-0.1 0 0.1 0-0.1-0.1 0 0.1 0 0-0.1-0.1 0 0 0.1 0-0.1 0-0.1-0.1 0-0.1 0 0-0.1 0 0.1 0 0.1 0.1 0-0.1 0 0-0.1 0 0.1 0-0.1-0.1 0-0.1 0 0-0.1 0 0.1 0-0.1-0.1 0-0.1 0-0.1 0-0.1 0-0.1 0-0.1 0 0-0.1-0.1 0 0-0.1 0 0.1 0.1 0 0 0.1 0 0.1 0-0.1 0 0.1-0.1 0 0.1 0-0.1 0-0.1 0 0-0.1-0.1 0 0 0.1 0.1 0-0.1 0 0-0.1 0-0.1 0.1 0 0-0.1 0 0.1 0.1 0-0.1 0 0-0.1 0.1 0-0.1 0 0.1 0-0.1 0 0-0.1 0 0.1-0.1 0 0-0.1 0-0.1 0.1 0-0.1 0 0.1 0 0-0.1 0.1 0 0-0.1 0.1 0 0.1 0 0.1 0 0-0.1 0 0.1 0.1 0 0-0.1 0.1 0 0.1 0 0.1 0 0.1 0 0-0.1 0.1 0 0 0.1 0-0.1 0 0.1 0-0.1 0 0.1 0-0.1 0 0.1 0.1 0 0.1 0 0.1 0 0-0.1 0.1 0 0.1 0 0.1 0 0.1 0 0.1 0 0.1 0 0.1 0 0.1 0 0.1 0 0.1 0 0.1 0 0.1 0 0.1 0 0 0.1 0-0.1 0.1 0 0.1 0 0 0.1 0.1 0 0.1 0 0.1 0 0.1 0 0.1 0 0.1 0 0.1 0-0.1 0 0.1 0 0.1 0 0 0.1 0-0.1 0 0.1 0-0.1 0 0.1 0.1 0 0-0.1 0 0.1 0-0.1 0 0.1 0 0.1 0 0.1 0-0.1 0.1 0 0 0.1 0-0.1 0.1 0-0.1 0 0-0.1 0-0.1 0.1 0 0.1 0 0.1 0 0 0.1 0-0.1 0.1 0 0 0.1 0.1-0.1 0.1 0 0.1 0 0.1 0 0.1 0 0.1 0 0-0.1 0.1 0 0 0.1 0.1 0 0-0.1 0.1 0 0.1 0 0.1 0 0.1 0 0.1 0 0.1 0 0.1 0 0.1 0 0.1 0 0 0.1 0.1 0 0.1 0 0.1 0 0.1 0 0.1 0 0.1 0 0.1 0 0-0.1 0.1 0 0 0.1 0-0.1 0 0.1 0.1 0 0-0.1 0.1 0 0.1 0 0.1 0 0.1 0 0.1 0 0 0.1 0.1 0 0-0.1 0.1 0 0 0.1 0.1 0 0.1 0 0 0.1 0.1 0 0-0.1 0.1 0 0.1 0 0.1 0 0.1 0 0.1 0 0 0.1 0-0.1 0.1 0 0.1 0 0-0.1 0.1 0 0.1 0 0.1 0 0.1 0 0.1 0 0.1 0 0-0.1 0 0.1 0-0.1 0.1 0 0.1 0.1 0.1 0 0-0.1 0 0.1 0-0.1 0 0.1 0.1-0.1 0.1 0 0.1 0 0.1 0 0.1 0 0.1 0 0.1 0 0.1 0 0.1 0 0.1 0 0.1 0 0.1 0 0 0.1 0.1 0 0.1 0 0.1 0 0.1 0 0.1 0 0.1 0 0 0.1 0-0.1 0 0.1 0-0.1 0 0.1 0.1 0 0.1 0 0.1 0 0.1 0 0.1 0 0.1 0 0.1 0 0.1 0 0 0.1 0.1 0 0.1 0 0.1 0 0.1 0 0.1 0 0 0.1 0.1 0 0.1 0 0.1 0 0.1 0 0 0.1 0.1 0 0.1 0 0.1 0 0.1 0 0.1 0 0.1 0 0.1 0 0.1 0 0.1 0 0 0.1 0.1 0 0-0.1 0.1 0 0.1 0 0 0.1 0.1 0 0.1 0 0.1 0 0 0.1 0 0.1-0.1 0 0 0.1 0 0.1 0-0.1 0-0.1 0-0.1 0 0.1-0.1 0 0 0.1-0.1 0 0 0.1 0 0.1 0 0.1-0.1 0 0 0.1-0.1 0 0-0.1 0 0.1-0.1 0 0 0.1-0.1 0 0-0.1 0.1 0 0-0.1-0.1 0 0 0.1-0.1 0 0 0.1 0-0.1 0.1 0-0.1 0 0.1 0-0.1 0 0-0.1 0 0.1 0-0.1 0 0.1 0-0.1 0.1 0 0-0.1-0.1 0 0 0.1 0-0.1 0 0.1 0-0.1 0 0.1-0.1 0-0.1 0 0-0.1 0.1 0-0.1 0-0.1 0 0 0.1 0 0.1 0 0.1 0 0.1-0.1 0 0-0.1-0.1 0-0.1 0 0-0.1 0 0.1 0.1 0-0.1 0-0.1 0 0-0.1 0 0.1 0 0.1 0 0.1-0.1 0 0-0.1 0 0.1 0.1 0-0.1 0 0 0.1 0.1 0-0.1 0 0 0.1-0.1 0 0.1 0-0.1 0 0.1 0-0.1 0 0-0.1 0.1 0-0.1 0 0 0.1 0-0.1-0.1 0 0-0.1 0 0.1-0.1 0 0-0.1-0.1 0 0-0.1 0 0.1 0-0.1-0.1 0 0 0.1-0.1 0 0.1 0 0 0.1-0.1 0 0 0.1-0.1 0-0.1 0 0 0.1 0-0.1-0.1 0 0.1 0-0.1 0 0 0.1 0-0.1-0.1 0 0-0.1-0.1 0 0 0.1 0 0.1-0.1 0 0-0.1z m389.2-5.7l0.1 0 0.1 0 0.1 0 0 0.1 0.1 0 0.1 0 0 0.1 0.1 0 0 0.1-0.1 0 0.1 0 0 0.1 0 0.1 0.1 0 0 0.1-0.1 0 0.1 0-0.1 0 0 0.1-0.1 0 0 0.1 0 0.1-0.1 0-0.1 0 0 0.1-0.1 0-0.1 0 0 0.1-0.1 0-0.1 0-0.1 0-0.1 0-0.1 0-0.1 0 0.1 0-0.1 0 0-0.1-0.1 0 0-0.1 0-0.1 0-0.1 0-0.1 0-0.1 0-0.1 0-0.1 0.1 0 0-0.1 0.1 0 0-0.1 0.1 0 0-0.1 0.1 0 0.1 0 0.1 0z m27.5-8.5l0 0.1 0 0.1 0 0.1 0 0.1 0 0.1 0 0.1 0 0.1 0 0.1 0 0.1 0 0.1-0.1 0 0-0.1 0-0.1-0.1 0 0-0.1 0-0.1 0-0.1 0-0.1-0.1 0 0-0.1 0-0.1 0-0.1 0-0.1 0-0.1-0.1 0 0-0.1 0-0.1 0-0.1 0-0.1-0.1 0 0-0.1 0-0.1 0-0.1 0-0.1 0-0.1 0-0.1 0-0.1 0-0.1 0-0.1 0-0.1 0-0.1 0-0.1 0.1 0 0-0.1 0-0.1 0.1 0 0.1 0 0 0.1 0 0.1 0.1 0-0.1 0 0.1 0 0 0.1 0 0.1 0 0.1 0 0.1 0 0.1 0.1 0 0 0.1 0 0.1 0 0.1 0 0.1 0 0.1 0 0.1 0 0.1 0 0.1 0 0.1 0 0.1 0 0.1 0 0.1z m153.6-188.9l0 0.1-0.1 0 0-0.1 0.1 0-0.1 0 0.1 0z m-0.2-0.5l0 0.1 0 0.1 0 0.1 0 0.1 0 0.1 0 0.1-0.1 0 0.1 0 0 0.1 0.1 0-0.1 0 0 0.1 0.1 0 0.1 0 0-0.1 0.1 0 0-0.1 0-0.1 0.1 0 0-0.1 0 0.1 0.1 0-0.1 0 0 0.1 0 0.1-0.1 0-0.1 0 0 0.1-0.1 0 0 0.1 0-0.1-0.1 0 0 0.1 0.1 0 0.1 0 0-0.1 0.1 0 0-0.1 0.1 0 0 0.1 0-0.1 0 0.1 0.1 0 0-0.1 0.1 0 0-0.1 0.1 0 0-0.1 0.1 0 0-0.1 0-0.1 0 0.1 0 0.1 0 0.1-0.1 0 0 0.1-0.1 0-0.1 0 0 0.1-0.1 0-0.1 0 0 0.1-0.1 0-0.1 0-0.1 0-0.1 0-0.1 0 0-0.1 0-0.1 0-0.1 0-0.1 0.1-0.1 0-0.1 0-0.1 0-0.1 0.1 0-0.1-0.1 0.1 0z m320.5-5l0 0.1 0 0.1 0 0.1 0 0.1 0 0.1 0 0.1 0 0.1 0 0.1 0 0.1 0 0.1 0 0.1 0 0.1 0 0.1 0 0.1 0 0.1 0 0.1 0 0.1-0.1 0 0 0.1 0 0.1 0 0.1 0 0.1-0.1 0 0 0.1 0 0.1 0 0.1-0.1 0 0 0.1 0 0.1 0 0.1 0 0.1 0 0.1-0.1 0 0 0.1 0 0.1-0.1 0.1 0 0.1-0.1 0 0 0.1 0 0.1-0.1 0 0 0.1-0.1 0 0 0.1 0 0.1 0 0.1-0.1 0 0 0.1-0.1 0 0 0.1 0 0.1-0.1 0 0 0.1-0.1 0 0 0.1-0.1 0 0 0.1-0.1 0 0 0.1-0.1 0 0 0.1-0.1 0 0 0.1-0.1 0 0 0.1-0.1 0 0 0.1-0.1 0 0 0.1-0.1 0 0 0.1-0.1 0 0 0.1-0.1 0 0 0.1 0 0.1 0 0.1-0.1 0 0 0.1 0 0.1 0 0.1 0 0.1-0.1 0 0 0.1 0 0.1-0.1 0 0 0.1 0 0.1-0.1 0 0 0.1-0.1 0 0 0.1 0 0.1-0.1 0 0 0.1-0.1 0 0 0.1 0 0.1-0.1 0 0 0.1 0 0.1-0.1 0 0 0.1-0.1 0 0-0.1 0-0.1 0-0.1 0.1 0 0-0.1 0-0.1 0-0.1 0-0.1 0-0.1 0.1 0-0.1 0 0.1 0 0-0.1 0-0.1 0-0.1 0-0.1 0.1 0 0-0.1 0.1 0 0-0.1 0.1 0 0-0.1 0.1 0 0-0.1 0-0.1 0.1 0 0-0.1 0-0.1 0.1 0 0-0.1 0-0.1 0.1 0 0-0.1 0-0.1 0.1 0 0-0.1 0-0.1 0-0.1 0-0.1 0.1 0 0-0.1 0-0.1 0-0.1 0-0.1-0.1 0 0-0.1 0.1 0 0-0.1 0-0.1 0-0.1 0-0.1 0-0.1 0.1 0 0-0.1 0-0.1 0.1-0.1 0-0.1 0-0.1 0.1 0 0-0.1 0-0.1 0.1 0 0-0.1 0-0.1 0.1 0 0-0.1 0-0.1 0.1 0 0-0.1 0-0.1 0-0.1 0.1 0 0-0.1 0-0.1 0.1 0 0-0.1 0-0.1 0.1 0 0-0.1 0-0.1 0-0.1 0.1 0 0-0.1 0-0.1 0-0.1 0.1 0 0-0.1 0-0.1 0.1 0 0-0.1 0-0.1 0-0.1 0.1 0 0-0.1 0-0.1 0.1 0 0-0.1 0-0.1 0.1 0 0.1 0 0-0.1 0.1 0 0-0.1 0.1 0 0.1 0 0.1 0 0-0.1 0.1 0z m-321.6-8.8l0.1 0 0 0.1 0-0.1 0 0.1 0.1 0 0.1 0 0 0.1 0.1 0 0 0.1 0.1 0 0.1 0 0 0.1 0.1 0 0 0.1 0.1 0 0.1 0 0 0.1 0.1 0 0 0.1 0.1 0 0 0.1-0.1 0-0.1 0-0.1 0 0 0.1-0.1 0-0.1 0 0 0.1-0.1 0 0 0.1-0.1 0 0 0.1-0.1 0 0 0.1-0.1 0 0 0.1-0.1 0 0 0.1-0.1 0 0-0.1-0.1 0 0-0.1 0-0.1-0.1 0 0-0.1 0-0.1 0-0.1-0.1 0 0-0.1 0-0.1 0-0.1 0-0.1 0-0.1 0-0.1 0-0.1 0.1 0 0-0.1 0.1 0 0-0.1 0.1 0z m28.7-69.6l0.1 0 0 0.1 0.1 0 0.1 0 0 0.1 0.1 0 0 0.1 0 0.1-0.1 0 0 0.1-0.1 0 0 0.1-0.1 0-0.1 0-0.1 0-0.1 0-0.1 0 0-0.1 0.1 0-0.1 0 0.1 0-0.1 0 0-0.1 0.1 0-0.1 0 0.1 0 0-0.1 0.1 0 0-0.1 0-0.1 0.1 0 0-0.1z m9.2-5.2l0 0.1 0.1 0 0 0.1 0 0.1 0 0.1 0 0.1 0.1 0 0 0.1-0.1 0 0 0.1 0 0.1 0 0.1-0.1 0 0 0.1-0.1 0 0 0.1-0.1 0 0-0.1 0-0.1-0.1 0 0-0.1 0-0.1 0-0.1 0-0.1 0-0.1-0.1 0 0-0.1 0.1 0 0-0.1 0.1 0 0-0.1 0.1 0 0-0.1 0.1 0z m201.7-28.5l0.1 0 0.1 0 0 0.1 0.1 0 0 0.1 0 0.1 0 0.1 0 0.1 0 0.1 0 0.1-0.1 0 0 0.1 0 0.1-0.1 0 0 0.1-0.1 0 0-0.1 0-0.1 0-0.1 0-0.1 0-0.1-0.1 0 0-0.1 0-0.1 0-0.1 0-0.1 0-0.1 0.1 0 0-0.1 0 0.1z m-187.5-9.2l0.1 0 0 0.1 0.1 0-0.1 0.1 0-0.1 0 0.1-0.1 0 0 0.1 0 0.1-0.1 0 0.1 0-0.1 0 0 0.1 0.1 0 0 0.1-0.1 0 0-0.1-0.1 0 0.1 0 0-0.1 0-0.1 0-0.1 0-0.1 0.1 0 0-0.1z m0.4 0l0.1 0 0 0.1 0 0.1 0.1 0 0 0.1 0 0.1 0.1 0 0 0.1 0 0.1 0 0.1 0-0.1 0-0.1 0 0.1 0.1 0 0 0.1 0 0.1 0 0.1 0 0.1 0 0.1 0 0.1 0 0.1 0 0.1 0 0.1 0 0.1-0.1 0 0 0.1 0 0.1 0 0.1-0.1 0-0.1 0 0 0.1-0.1 0 0-0.1-0.1 0 0-0.1 0-0.1-0.1 0 0-0.1-0.1 0 0-0.1 0-0.1-0.1 0 0-0.1 0-0.1 0-0.1 0-0.1 0-0.1-0.1 0 0-0.1-0.1 0-0.1 0 0-0.1 0 0.1-0.1 0 0-0.1 0.1 0 0-0.1-0.1 0 0-0.1 0.1 0 0-0.1 0 0.1 0-0.1 0.1 0 0-0.1 0.1 0 0 0.1-0.1 0 0 0.1-0.1 0 0.1 0 0 0.1-0.1 0 0 0.1-0.1 0 0.1 0 0-0.1 0.1 0 0 0.1 0.1 0-0.1 0 0.1 0-0.1 0 0.1 0 0-0.1 0.1 0 0-0.1 0.1 0-0.1 0 0 0.1 0 0.1-0.1 0 0 0.1 0-0.1 0 0.1 0 0.1 0-0.1 0 0.1 0-0.1 0.1 0 0 0.1 0.1 0 0.1 0 0-0.1 0-0.1 0.1 0-0.1 0 0.1 0 0-0.1 0-0.1 0-0.1 0-0.1 0-0.1 0 0.1 0-0.1 0-0.1 0.1 0-0.1 0 0.1 0-0.1 0 0.1 0 0 0.1 0 0.1 0 0.1-0.1 0 0 0.1 0.1 0 0 0.1 0 0.1 0.1 0 0 0.1 0 0.1 0 0.1 0.1 0-0.1 0 0.1 0 0 0.1 0 0.1-0.1 0 0 0.1-0.1 0 0 0.1 0 0.1 0.1 0 0 0.1 0 0.1-0.1 0 0.1 0-0.1 0 0 0.1 0.1 0 0-0.1 0-0.1 0.1 0 0-0.1 0 0.1 0-0.1 0.1 0 0-0.1 0-0.1 0-0.1 0-0.1-0.1 0 0.1 0 0-0.1-0.1 0 0.1 0 0-0.1-0.1 0 0-0.1 0-0.1 0-0.1 0-0.1 0-0.1-0.1 0 0-0.1 0.1 0-0.1 0 0-0.1 0-0.1-0.1 0 0-0.1z m-0.2-1.3l0.1 0 0.1 0 0.1 0 0 0.1 0.1 0 0.1 0 0 0.1 0.1 0 0.1 0.1 0.1 0 0 0.1 0 0.1 0-0.1 0 0.1-0.1 0-0.1 0-0.1 0 0 0.1-0.1 0-0.1 0 0.1 0-0.1 0 0-0.1-0.1 0 0 0.1-0.1 0 0 0.1-0.1 0-0.1 0 0 0.1-0.1 0 0 0.1-0.1 0-0.1 0-0.1 0 0-0.1 0-0.1 0-0.1 0-0.1 0-0.1 0-0.1 0.1 0 0-0.1 0.1 0 0-0.1 0.1 0 0.1 0 0-0.1 0.1 0z m34.6-6.1l0.1 0 0.1 0 0.1 0 0 0.1-0.1 0 0 0.1-0.1 0 0 0.1-0.1 0 0 0.1-0.1 0 0 0.1-0.1 0 0 0.1 0 0.1 0.1 0-0.1 0 0 0.1 0 0.1-0.1 0-0.1 0-0.1 0-0.1 0-0.1 0-0.1 0 0 0.1-0.1 0 0 0.1 0 0.1-0.1 0 0 0.1-0.1 0 0 0.1-0.1 0-0.1 0-0.1 0-0.1 0-0.1 0-0.1 0-0.1 0-0.1 0 0 0.1-0.1 0 0 0.1-0.1 0 0 0.1 0 0.1 0 0.1-0.1 0 0 0.1-0.1 0 0 0.1-0.1 0-0.1 0 0 0.1-0.1 0-0.1 0-0.1 0-0.1 0-0.1 0-0.1 0 0 0.1-0.1 0-0.1 0 0 0.1-0.1 0 0 0.1-0.1 0-0.1 0 0-0.1 0 0.1 0-0.1 0.1 0 0-0.1 0-0.1 0-0.1 0-0.1 0-0.1 0-0.1 0-0.1 0-0.1 0.1 0 0.1 0 0-0.1 0 0.1 0-0.1 0.1 0 0-0.1 0.1 0 0.1 0 0-0.1 0.1 0 0.1 0 0.1 0 0.1 0 0.1 0 0.1 0 0-0.1 0.1 0 0.1 0 0-0.1 0.1 0 0.1 0 0.1 0 0.1 0 0.1 0 0-0.1 0.1 0 0.1 0 0-0.1 0 0.1 0-0.1 0.1 0 0.1 0 0-0.1 0-0.1 0.1 0 0-0.1 0.1 0 0.1 0 0-0.1 0.1 0 0-0.1 0.1 0 0.1 0 0-0.1 0.1 0 0-0.1 0.1 0 0-0.1 0.1 0 0.1-0.1 0.1 0 0.1 0 0.1 0z m-30.7-20.6l0 0.1 0 0.1-0.1 0 0-0.1-0.1 0 0.1 0 0-0.1 0 0.1 0.1 0 0-0.1-0.1 0 0.1 0 0-0.1 0 0.1z m-0.5-0.3l0 0.1-0.1 0 0-0.1 0.1 0z m0-0.2l0 0.1 0 0.1-0.1 0 0 0.1 0 0.1-0.1 0 0-0.1 0.1 0 0-0.1 0-0.1 0-0.1 0.1 0z m0.5-0.3l0 0.1 0 0.1-0.1 0 0.1 0 0 0.1-0.1 0-0.1 0-0.1 0 0-0.1 0.1 0 0 0.1 0-0.1 0.1 0 0-0.1 0.1 0 0-0.1-0.1 0 0-0.1 0.1 0 0 0.1z m0-1l0.1 0 0.1 0 0.1 0 0.1 0 0 0.1 0.1 0 0.1 0 0.1 0 0 0.1 0.1 0 0.1 0 0.1 0 0 0.1 0.1 0 0 0.1 0.1 0 0.1 0 0 0.1 0.1 0 0 0.1 0.1 0 0 0.1 0.1 0 0 0.1 0 0.1 0 0.1 0 0.1-0.1 0 0 0.1-0.1 0 0 0.1-0.1 0-0.1 0 0 0.1 0-0.1 0 0.1-0.1 0-0.1 0 0 0.1-0.1 0-0.1 0 0 0.1-0.1 0-0.1 0-0.1 0 0-0.1 0.1 0 0.1 0 0 0.1 0.1 0-0.1 0 0.1-0.1-0.1 0 0-0.1 0-0.1-0.1 0 0-0.1-0.1 0 0-0.1 0.1 0-0.1 0 0.1 0 0 0.1 0 0.1 0.1 0 0-0.1 0 0.1 0.1 0 0 0.1 0.1 0-0.1 0 0.1 0 0 0.1-0.1 0 0.1 0 0-0.1 0.1 0 0.1 0-0.1 0 0-0.1 0-0.1-0.1 0 0.1 0 0 0.1-0.1 0-0.1 0-0.1 0 0.1 0 0-0.1 0-0.1 0.1 0-0.1 0 0.1 0 0 0.1 0.1 0 0-0.1 0-0.1 0.1 0 0-0.1 0.1 0 0-0.1 0-0.1 0-0.1-0.1-0.1-0.1 0 0-0.1-0.1 0-0.1 0 0-0.1-0.1 0-0.1 0-0.1 0 0-0.1-0.1 0-0.1 0-0.1 0-0.1 0 0-0.1-0.1 0 0.1 0-0.1 0 0-0.1z m-0.7-0.6l0.1 0 0 0.1 0.1 0 0.1 0 0 0.1 0.1 0 0 0.1 0 0.1 0-0.1-0.1 0-0.1 0-0.1 0-0.1 0-0.1 0-0.1 0 0.1 0 0-0.1 0 0.1 0-0.1 0-0.1 0-0.1 0.1 0z m-3.4-1.1l0.1 0 0 0.1 0.1 0 0.1 0 0 0.1 0 0.1 0.1 0 0 0.1 0 0.1-0.1 0 0 0.1 0 0.1-0.1 0 0 0.1-0.1 0-0.1 0 0 0.1-0.1 0-0.1 0 0 0.1-0.1 0-0.1 0-0.1 0 0 0.1-0.1 0-0.1 0-0.1 0-0.1 0 0-0.1-0.1 0-0.1 0 0-0.1-0.1 0 0-0.1 0.1 0 0-0.1 0-0.1 0.1 0 0-0.1 0.1 0 0-0.1 0.1 0 0-0.1 0.1 0 0.1 0 0-0.1 0.1 0 0.1 0 0-0.1 0.1 0 0.1 0 0-0.1 0 0.1 0.1 0 0-0.1 0.1 0z m2.3-0.2l0 0.1 0.1 0 0 0.1-0.1 0 0-0.1 0 0.1-0.1 0 0 0.1-0.1 0 0.1 0-0.1 0 0 0.1 0.1 0 0 0.1-0.1 0 0 0.1-0.1 0 0-0.1 0.1 0 0-0.1 0-0.1 0-0.1 0.1 0 0-0.1-0.1 0 0-0.1 0.1 0 0.1 0z m-1.3-26.6l0 0.1 0.1 0-0.1 0 0.1 0 0 0.1 0 0.1 0 0.1-0.1 0 0 0.1-0.1 0-0.1 0-0.1 0-0.1 0 0.1 0-0.1 0 0-0.1 0.1 0 0-0.1 0-0.1 0.1 0 0-0.1 0.1 0 0-0.1 0 0.1 0-0.1 0.1 0z m191.1-38.7l0 0.1 0 0.1-0.1 0 0-0.1-0.1 0 0-0.1 0.1 0 0.1 0z m-2.9-1.3l0 0.1 0.1 0 0.1 0-0.1 0 0.1 0 0 0.1 0.1 0 0 0.1 0 0.1 0.1 0 0 0.1 0 0.1-0.1 0 0 0.1-0.1 0 0 0.1 0 0.1-0.1 0 0-0.1 0-0.1-0.1 0 0-0.1-0.1 0-0.1-0.1-0.1 0 0-0.1-0.1 0 0-0.1-0.1 0 0-0.1 0-0.1 0.1 0 0-0.1-0.1 0-0.1 0 0-0.1 0-0.1 0.2 0 0.1 0 0 0.1 0.1 0 0.1 0 0 0.1 0.1 0z m12-0.1l-0.1 0 0-0.1 0.1 0-0.1 0 0.1 0 0 0.1z m-1.2-0.6l0.1 0 0.1 0 0.1 0.1-0.1 0 0 0.1-0.1 0-0.1 0.1 0.1 0-0.1 0.1 0-0.1-0.1 0 0.1 0-0.1-0.1 0.1 0 0-0.1-0.1 0 0.1 0 0-0.1z m-10.1-0.1l0 0.1-0.1 0 0.1 0 0 0.1-0.1 0 0-0.1-0.1 0 0.1 0 0-0.1 0.1 0z m-4.1-0.1l0.1 0 0.1 0 0 0.1 0.1 0 0.1 0.1 0.1 0 0 0.1 0.1 0.1 0.1 0 0 0.1 0.1 0-0.1 0.1-0.1-0.1-0.1 0 0 0.1-0.1-0.1-0.1 0-0.1 0-0.1 0-0.1 0 0-0.1-0.1 0-0.1 0 0-0.1-0.1 0 0-0.1-0.1 0 0-0.1 0-0.1 0.1 0 0-0.1 0.1 0 0.1 0 0.1 0 0 0.1z m14.3-4.2l0-0.1-0.1 0 0.1-0.1 0.1 0.1-0.1 0.1z m37.6-3.2l0.1 0 0 0.1 0.1 0 0 0.1 0.1 0 0 0.1 0.1 0 0.1 0.1 0 0.1 0.1 0 0 0.1-0.1 0 0 0.1 0.1 0 0-0.1 0 0.1 0.1 0 0 0.1 0.1 0 0.1 0 0 0.1-0.1 0-0.1 0 0 0.1-0.1 0 0 0.1 0 0.1 0.1 0-0.1 0-0.1 0-0.1 0-0.1 0-0.1 0-0.1 0 0 0.1-0.1-0.1-0.1 0-0.1 0-0.1 0 0-0.1-0.1 0 0.1 0-0.1 0 0-0.1 0-0.1-0.1-0.1-0.1 0 0-0.1-0.1 0 0-0.1-0.1 0 0-0.1 0-0.1 0-0.1 0.1 0 0-0.1 0.1 0 0.1 0 0.1-0.1 0.1 0 0-0.1 0.1 0 0.1 0 0.1 0z m-64.1-10.5l0 0.1 0.1 0 0.1 0 0 0.1 0.1 0 0.1 0 0-0.1 0 0.1 0.1 0 0.1 0 0.1 0.1 0.1 0 0 0.1 0.1 0 0.1 0.1 0.1 0 0 0.1 0.1 0 0.1 0.1 0 0.1 0 0.1 0.1 0 0 0.1 0.1 0.1 0 0.1 0.1 0.1 0 0.1 0 0.1 0.1 0 0 0.1 0 0.1 0.1 0 0 0.1 0.1 0 0 0.1 0.1 0 0 0.1 0.1 0 0.1-0.1 0.1 0 0 0.1 0 0.1 0 0.1 0 0.1 0.1 0 0 0.1-0.1 0 0-0.1 0 0.1-0.1 0 0 0.1-0.1 0-0.1 0 0 0.1 0-0.1 0 0.1-0.1 0.1 0.1 0-0.1 0 0 0.1-0.1 0.1 0.1 0 0 0.1 0 0.1 0.1 0 0 0.1-0.1 0-0.1 0.1 0 0.1-0.1 0 0.1 0 0 0.1-0.1 0 0 0.1 0 0.1 0 0.1 0 0.1-0.1 0 0 0.1 0 0.1 0 0.1-0.1 0 0 0.1-0.1 0 0 0.1-0.1 0-0.1 0-0.1 0-0.1 0.1-0.1 0-0.1 0 0 0.1-0.1 0 0-0.1 0 0.1-0.1 0 0-0.1-0.1 0-0.1 0-0.1 0-0.1 0 0-0.1-0.1 0-0.1 0 0 0.1-0.1 0 0-0.1-0.1 0-0.1 0-0.1 0 0 0.1 0-0.1-0.1 0 0-0.1 0-0.1 0-0.1 0-0.1 0-0.1 0.1 0 0-0.1 0-0.1 0-0.1-0.1 0 0-0.1-0.1 0 0-0.1-0.1-0.1-0.1-0.1-0.1 0 0-0.1-0.1 0-0.1-0.1-0.1 0 0-0.1-0.1 0-0.1 0-0.1 0 0-0.1 0-0.1-0.1 0 0-0.1 0-0.1-0.1 0 0-0.1-0.1 0 0-0.1-0.1 0 0-0.1-0.1 0-0.1 0 0.1-0.1-0.1 0 0.1-0.1 0-0.1 0-0.1-0.1 0 0-0.1-0.1 0 0-0.1 0 0.1 0-0.1 0-0.1 0-0.1 0-0.1 0.1 0 0-0.1 0-0.1 0-0.1 0.1 0 0-0.1 0-0.1 0.1 0.1 0-0.1 0-0.1 0.1 0 0-0.1 0.1 0 0-0.1 0.1 0 0-0.1 0.1 0 0.1 0 0-0.1 0.1 0 0-0.1 0.1 0 0.1 0 0.1 0 0 0.1 0.1 0 0.1 0 0.1 0 0-0.1-0.1 0 0.1 0 0-0.1 0.1 0 0.1 0 0.1 0 0.1 0 0.1 0 0.1 0 0.1 0 0-0.1z m1-7.2l0.1 0 0.1 0 0.1 0 0 0.1 0.1 0 0.1 0 0 0.1 0 0.1 0.1 0 0 0.1-0.1 0 0 0.1 0.1 0 0 0.1 0.1 0.1 0 0.1 0.1 0 0 0.1 0 0.1 0.1 0 0.1 0 0-0.1 0 0.1 0.1 0 0.1 0-0.1 0 0 0.1 0 0.1 0 0.1-0.1 0 0 0.1 0-0.1-0.1 0-0.1 0 0 0.1 0 0.1-0.1 0 0 0.1 0-0.1 0 0.1-0.1 0-0.1 0-0.1 0.1-0.1 0 0-0.1-0.1 0-0.1 0 0-0.1 0-0.1 0-0.1-0.1 0 0-0.1 0-0.1-0.1 0 0-0.1 0-0.1 0-0.1 0-0.1 0-0.1 0-0.1 0.1 0 0-0.1-0.1 0 0-0.1 0-0.1 0-0.1-0.1 0 0-0.1 0.1 0 0-0.1 0.1 0 0 0.1z m61.3-4.5l0 0.1 0.1 0 0-0.1 0 0.1 0.1 0 0 0.1 0 0.1 0.1 0 0 0.1 0 0.1 0.1 0-0.1 0 0 0.1 0 0.1 0 0.1 0 0.1 0-0.1 0 0.1-0.1 0 0 0.1 0-0.1 0 0.1 0 0.1 0 0.1-0.1 0 0-0.1 0 0.1 0 0.1 0 0.1 0 0.1 0.1 0-0.1 0 0 0.1-0.1 0 0.1 0-0.1 0-0.1 0 0-0.1 0-0.1 0-0.1-0.1 0 0-0.1 0-0.1 0-0.1 0-0.1 0-0.1-0.1 0 0.1 0-0.1 0 0-0.1 0-0.1 0-0.1 0-0.1 0.1 0 0-0.1 0.1 0 0-0.1 0-0.1 0.1 0 0-0.1z m-4.4-1.6l0 0.1 0.1 0.1 0 0.1 0.1 0.1 0.1 0 0.1 0 0.1 0.1 0 0.1 0.1 0 0 0.1 0.1 0 0 0.1-0.1 0 0.1 0 0 0.1 0.1 0-0.1 0 0.1 0 0 0.1 0-0.1 0 0.1 0.1 0 0 0.1 0.1 0-0.1 0 0.1 0-0.1 0 0 0.1 0.1 0-0.1 0 0.1 0 0 0.1 0 0.1 0 0.1 0.1 0 0.1 0 0 0.1 0 0.1 0 0.1-0.1 0 0 0.1-0.1 0 0 0.1-0.1 0 0-0.1 0 0.1-0.1 0-0.1 0-0.1 0 0-0.1-0.1 0 0.1 0-0.1 0 0-0.1 0-0.1-0.1 0 0-0.1-0.1 0-0.1 0-0.1 0 0-0.1-0.1 0 0-0.1 0 0.1 0-0.1-0.1 0-0.1 0 0-0.1 0-0.1-0.1 0 0.1 0-0.1 0 0.1 0-0.1 0 0-0.1 0-0.1-0.1 0 0-0.1 0-0.1-0.1-0.1 0-0.1-0.1 0 0-0.1 0.1 0 0-0.1 0.1 0 0-0.1 0-0.1-0.1 0 0.1 0 0.1-0.1-0.1 0 0-0.1 0.1 0 0 0.1 0.1 0 0-0.1 0 0.1 0.1 0 0-0.1 0.1 0z m-0.4-0.4l-0.1 0-0.1 0 0.1 0 0-0.1 0 0.1 0-0.1 0.1 0 0 0.1z m-1.4-2.7l0.1 0 0.1 0 0 0.1 0.1 0.1 0.1 0 0.1 0 0 0.1 0.1 0 0.1 0 0 0.1 0-0.1 0 0.1 0-0.1-0.1 0.1 0.1 0-0.1 0 0 0.1 0.1 0 0 0.1 0 0.1-0.1 0-0.1-0.1-0.1 0-0.1-0.1 0-0.1-0.1 0 0-0.1-0.1 0 0-0.1-0.1 0 0-0.1 0-0.1 0-0.1 0 0.1z m1.4-0.1l0.1 0 0 0.1 0.1 0 0.1 0 0 0.1-0.1 0 0.1 0 0 0.1 0 0.1 0.1 0-0.1 0 0.1 0 0 0.1 0.1 0-0.1 0 0.1 0 0 0.1-0.1 0 0 0.1-0.1 0 0 0.1 0 0.1 0.1 0 0 0.1 0.1 0 0.1 0 0 0.1 0 0.1 0 0.1-0.1 0-0.1 0-0.1 0 0-0.1-0.1 0 0.1 0-0.1 0 0-0.1-0.1 0 0-0.1 0-0.1 0-0.1-0.1 0 0-0.1-0.1 0 0-0.1 0-0.1 0-0.1 0-0.1-0.1 0 0-0.1 0-0.1 0.1 0-0.1 0 0.1 0-0.1 0 0.1 0 0-0.1 0.1 0z m-18.4-6.6l0 0.1 0.1 0 0.1 0 0-0.1 0 0.1 0-0.1 0.1 0 0.1 0 0 0.1 0.1 0 0.1 0 0.1 0 0 0.1 0.1 0 0.1 0 0.1 0 0.1 0.1-0.1 0 0 0.1-0.1 0 0 0.1 0-0.1-0.1 0 0 0.1 0-0.1-0.1 0-0.1 0.1-0.1 0-0.1 0-0.1 0-0.1 0 0-0.1-0.1 0-0.1 0-0.1 0-0.1 0-0.1-0.1-0.1-0.1 0.1 0 0-0.1 0.1 0 0-0.1 0.1 0 0.1 0z m0.3-36.9l0.1 0 0.1 0 0 0.1 0.1 0 0.1 0 0 0.1 0 0.1 0 0.1 0 0.1 0 0.1 0.1 0 0 0.1-0.1 0 0 0.1 0 0.1 0 0.1-0.1 0 0 0.1 0 0.1-0.1 0 0 0.1-0.1 0 0 0.1-0.1 0-0.1 0-0.1 0 0-0.1 0-0.1 0-0.1 0-0.1 0-0.1 0-0.1 0-0.1-0.1 0 0-0.1 0-0.1-0.1 0 0-0.1-0.1 0 0-0.1-0.1 0 0-0.1 0.1 0 0.1 0 0.1 0 0-0.1 0.1 0 0.1-0.1 0.1 0z m-41.7-7.6l0.1 0 0.1 0 0 0.1 0 0.1 0.1 0 0 0.1 0.1 0 0 0.1 0.1 0 0 0.1 0.1 0 0 0.1-0.1 0 0 0.1-0.1 0 0 0.1-0.1 0 0 0.1 0 0.1-0.1 0-0.1 0 0 0.1-0.1 0-0.1 0-0.1 0 0-0.1 0.1 0 0-0.1 0-0.1 0.1 0 0-0.1 0-0.1-0.1 0 0.1 0 0-0.1-0.1 0 0-0.1 0-0.1 0-0.1 0-0.1 0-0.1 0.1 0z" id="SC26" name="Other Islands">
  </path>
  <path d="M878.3 110.2l0.1-0.1 0.2 0 0.1-0.1 0.2 0 0-0.1 0.1 0 0-0.1-0.1 0 0.1 0 0.1 0 0.1 0 0.1 0.1 0.1 0.1 0 0.1-0.1 0 0-0.1 0 0.1-0.1 0 0 0.1 0.1 0-0.1 0 0 0.1 0.1 0-0.1 0 0 0.1 0.1 0-0.1 0 0.1 0-0.1 0 0.1 0 0 0.1-0.1 0 0 0.1-0.1 0 0.1 0 0 0.1 0 0.1-0.1 0 0.1 0 0 0.1-0.1 0.1 0 0.1 0 0.1-0.1 0 0.1 0 0 0.1-0.1 0-0.1 0-0.1 0-0.1 0-0.1 0-0.1 0 0-0.1 0-0.1 0.1 0-0.1 0 0-0.1 0-0.1 0.1 0 0.2 0 0-0.1-0.1 0 0-0.1-0.1 0 0-0.1-0.1-0.1 0-0.1-0.1-0.1-0.1-0.1z" id="SC16" name="English River">
  </path>
  <path d="M880 109.8l0.1 0 0.1 0 0 0.1 0.1 0 0 0.1 0 0.1 0 0.1 0 0.1-0.1 0 0 0.1 0 0.1 0 0.1 0 0.1-0.1 0 0-0.1 0-0.1 0-0.1 0.1 0-0.1 0 0-0.1-0.1 0 0 0.1-0.1 0-0.1 0-0.1 0-0.1 0 0-0.1-0.1 0 0-0.1 0-0.1 0-0.1 0-0.1 0-0.1 0-0.1 0-0.1-0.1 0 0-0.1 0-0.1 0.1 0 0.1 0 0.1 0 0.1 0 0 0.1 0 0.1 0 0.1 0.1 0 0 0.1 0.1 0z" id="SC27" name="Perseverance Island">
  </path>
 </g>
 <g id="points">
  <circle class="-9.881600355331853|46.7081060421197" cx="90.9" cy="589.3" id="0">
  </circle>
  <circle class="-7.284813737085797|51.75349140308169" cx="545.5" cy="352.7" id="1">
  </circle>
  <circle class="-4.038830464278226|55.78979969185128" cx="909.1" cy="58.8" id="2">
  </circle>
 </g>
 <g id="label_points">
  <circle class="La Digue" cx="913.4" cy="87.9" id="SC15">
  </circle>
  <circle class="Anse Aux Pins" cx="884.6" cy="117.4" id="SC01">
  </circle>
  <circle class="Anse Boileau" cx="882.4" cy="120" id="SC02">
  </circle>
  <circle class="Au Cap" cx="884" cy="119" id="SC04">
  </circle>
  <circle class="Anse Etoile" cx="878.5" cy="108.5" id="SC03">
  </circle>
  <circle class="Anse Royale" cx="883.9" cy="122" id="SC05">
  </circle>
  <circle class="Bel Air" cx="878.3" cy="113.3" id="SC09">
  </circle>
  <circle class="Baie Lazare" cx="882.4" cy="123.2" id="SC06">
  </circle>
  <circle class="Belombre" cx="874.3" cy="112.1" id="SC10">
  </circle>
  <circle class="Beau Vallon" cx="877.3" cy="110.3" id="SC08">
  </circle>
  <circle class="Cascade" cx="882.1" cy="116.1" id="SC11">
  </circle>
  <circle class="Glacis" cx="877.8" cy="107" id="SC12">
  </circle>
  <circle class="Grand Anse Mahe" cx="879.9" cy="116.5" id="SC13">
  </circle>
  <circle class="Les Mamelles" cx="880.4" cy="114.3" id="SC24">
  </circle>
  <circle class="Mont Buxton" cx="878.2" cy="110.8" id="SC17">
  </circle>
  <circle class="Mont Fleuri" cx="883.3" cy="109.9" id="SC18">
  </circle>
  <circle class="Plaisance" cx="879.4" cy="114.1" id="SC19">
  </circle>
  <circle class="Port Glaud" cx="876.2" cy="114.1" id="SC21">
  </circle>
  <circle class="Pointe Larue" cx="884.5" cy="116.5" id="SC20">
  </circle>
  <circle class="Roche Caiman" cx="880.1" cy="112.8" id="SC25">
  </circle>
  <circle class="Saint Louis" cx="877.4" cy="111.8" id="SC22">
  </circle>
  <circle class="Takamaka" cx="884.1" cy="126.1" id="SC23">
  </circle>
  <circle class="Baie Sainte Anne" cx="904.2" cy="84.2" id="SC07">
  </circle>
  <circle class="Grand Anse Praslin" cx="900.7" cy="83.7" id="SC14">
  </circle>
  <circle class="Other Islands" cx="67.7" cy="548.8" id="SC26">
  </circle>
  <circle class="English River" cx="878.9" cy="110.4" id="SC16">
  </circle>
  <circle class="Perseverance Island" cx="879.8" cy="110.1" id="SC27">
  </circle>
 </g>
</svg>