<?xml version="1.0"?>
    
<!--********* Copyright (c) 2024 Pareto Softare, LLC DBA Simplemaps.com ***************************************
************* Free for Commercial Use, full terms at  https://simplemaps.com/resources/svg-license ************
************* Attribution is appreciated! https://simplemaps.com *******************************************-->

<svg baseprofile="tiny" fill="#6f9c76" height="660" stroke="#ffffff" stroke-linecap="round" stroke-linejoin="round" stroke-width=".5" version="1.2" viewbox="0 0 1000 660" width="1000" xmlns="http://www.w3.org/2000/svg">
 <g id="features">
  <path d="M130.5 615l-4.9 0.3-5.4-1.4-10-10.7 0.6-1.8-0.7-3.5 1.9-4.2 0-2.6-2.8-0.5-2.2-1.7-1.7-2.7-1.2-3.8 6.1 1.4 6.2-0.9 0.1 1.9 1.5 3.3 0.6 1.6 0.1 2.4 0.9 3.7 1.9 1.9 1.4 1 1.7 2.7 0.1 0.9 0.5 0.6 1.5 0.5 2.2-1 0.9-0.6 1.5-6.1 7.8 3.1 0.5 0.7 0.5 1-1.3 1.8-3.2 3.3-0.8 2.2-0.7 1.4-0.4 1.2-1.2 0.9-0.2 0.1-1.4 1-0.4 2.5 0 0.1z" id="SI090" name="Piran">
  </path>
  <path d="M892.3 65.6l-0.4 1.6 0.6 1.5 4 12.2 3.3 4.2 2.5 4.8 2.6 3.2 4-0.7 0.1 7.1 2.3 1-0.4 0.8-2.3 4.2-1.3-0.5-3.1-1.2-1.9 2.1-2 3.2-2.8 6.5-0.9 6.6-4.8-1.2-4.2-3.4-2-0.5-2.3 2.4-8-0.9-4.3-0.8-6.4-3.3-1.6-1.5-1.7-2.1-0.2-3.2-3.7-7.6-0.9-8.9 0.8-0.9 1.7-2.6 1.7-0.1 5.9-7.4 2.1 0.2 1.7-1 2.4-4.3 2.5-2.3 4.9-7.4 9.5 1.2 1.7-0.4 0.6-0.4 0.3-0.2z" id="SI078" name="Moravske Toplice">
  </path>
  <path d="M895.6 58l-2.6 4.5-0.7 3.1-0.3 0.2-0.6 0.4-1.7 0.4-9.5-1.2 0.8-3.2 0.8-1.6 0.9-4.4-0.3-3.3-1.9-3.5-4.1-4.1-4.9-2.8-13.9-10.2 26.7-2.3 3 1.7 4.4 5.4 0 0.1 0.1 1.1 1.5 3.7 0 5.6-0.6 2.3-1.5 2.8 0.3 1.3 0.4 1.3 3.6 2.6 0.1 0.1z" id="SI033" name="Šalovci">
  </path>
  <path d="M891.7 37.1l1.3 1.7 2.5 1.3 4.2 0.2 1.3 2.2-0.7 3.7-1.6 5.2-2 4.7-1.1 1.9-0.1-0.1-3.6-2.6-0.4-1.3-0.3-1.3 1.5-2.8 0.6-2.3 0-5.6-1.5-3.7-0.1-1.1 0-0.1z" id="SI161" name="Hodoš">
  </path>
  <path d="M843.4 33.1l1.5 0.3 12.7-1.1 13.9 10.2 4.9 2.8 4.1 4.1 1.9 3.5 0.3 3.3-0.9 4.4-0.8 1.6-0.8 3.2-4.9 7.4-2.5 2.3-2.4 4.3-1.7 1-2.1-0.2-3.8-5.2-1.2-2.1 3.1-8.3-0.6-3.5-1.2-1.4-1.9-1-2.2-0.7-5.5-5.4-1.1-3.2-1.8-1.8-1.3-1.8-3.9-1.2-3.2-1.5-0.7-4.4 2.1-5.6z" id="SI031" name="Gornji Petrovci">
  </path>
  <path d="M821.1 37.6l11.9-7.1 10.4 2.6-2.1 5.6 0.7 4.4-7.6 0.4-2 0.7-4.1 3.3-1.6 1.6-4.7 1.1-0.9-12.6z" id="SI056" name="Kuzma">
  </path>
  <path d="M913.3 125.9l1.2 3 5.2 4.3 10.3 6.1 10.6 16.7 9.8 8.3 4.1 18.1-6.9-5.6-2.9-1.7-3-0.5-6.3 0.8-2.5-0.3-2.4-1.7-4.9-5.2-2.5-1.7-3.3-0.2-3.7 0.3-3.6-0.5-3.4-2.7-1.8 3.1-0.1-0.1-2-3-1.2 1.3-0.1 0-1.4-0.5-1.8-1.5 1.7-3.3 2.8-0.1 1.8-0.4 4.9-2.2 4.5-3 1.9-2 2.3-1.4-5.5-9.1-8.9-6.5 5.5-7.9 1.5-0.9 0.1 0z" id="SI059" name="Lendava">
  </path>
  <path d="M922 114.6l-1.7 1.7-5.5 2.6-2.6 4.2 1.1 2.8-0.1 0-1.5 0.9-5.5 7.9-9.6-12.5 0.9-6.6 2.8-6.5 2-3.2 1.9-2.1 3.1 1.2 1.3 0.5 2.2 4.2 2.7 2 5.6 2.4 2.7 0.5 0.2 0z" id="SI156" name="Dobrovnik">
  </path>
  <path d="M911.3 100.5l0.2 0.1 1.5 0.6 5.4 0.4 4.3 2.9 1.6 7.9-2.3 2.2-0.2 0-2.7-0.5-5.6-2.4-2.7-2-2.2-4.2 2.3-4.2 0.4-0.8z" id="SI047" name="Kobilje">
  </path>
  <path d="M232.9 190.4l-0.1 5.7-0.6 3.5-2.2 2.2-1.5 1-2.1 3.4-3.7 1.1-2 2.5-3.5 1.8-3.8 2.6-8.4 7.7-20.3 10.9-1.7-0.4-5.1-6.4-1-1.5-1-2.7-1.7-2.2-3.6-3-9.1-5.5-4.7-2.1-3.7-0.9-7.4 3.4-3 0.8-3 0.4-1.4-1 0.9-9.3-1.2-4.2 0.7-1.6 0.4-10.7 1.7-2.2 1-2.6 0.6-3-0.1-3.3 4.4 0.4 19.1 4.6 3.9 0 18.7-3.1 8.7 1.5 26.4 12.5 4.8 0.6 4.6-0.9z" id="SI053" name="Kranjska Gora">
  </path>
  <path d="M54.2 264l4.1-7.1 3.9-8.8 3.1-3.8 3.8-0.4 3.6-1.8 6.9-5 13.4-7.2 7-7.4 6.2-8.7 7.1-6.7 9.7-1.2 7.2 0.2 5.4-2.9 2.4-5 1.2 4.2-0.9 9.3 1.4 1 3-0.4 3-0.8 7.4-3.4 3.7 0.9 4.7 2.1 9.1 5.5 3.6 3 1.7 2.2 1 2.7 1 1.5 5.1 6.4-4 5.5-18.4 10.1-4.2 4.1-2.2 3.8-4.2 10.2-16.2 2.8-5.8-0.5-6.3-1.8-13 0.4-9.9-1-5.1 1.6-1.8 1.6 1 1.4 0.2 2-0.9 1.9-3.5 1.8-11-1.6-8.1-2.6-4.7-2.2-3.9-1.2-4.4-3.2-2.4-1.5z" id="SI006" name="Bovec">
  </path>
  <path d="M121.1 316.2l-3.9-0.8-8.5 0.9-7.3-1.1-8.7-8.7-5.4-3.8-8.1-1.6-4-2.3-8.7-0.6-4.4-1.6 4.2 7.4-7.9 1.2-2.4-3.6-1.1-5.8-3.8-5.2 0-0.1-1.8-10.5-1.6-5-2.2-4.1 7.5-4.8 1.2-2.1 2.4 1.5 4.4 3.2 3.9 1.2 4.7 2.2 8.1 2.6 11 1.6 3.5-1.8 0.9-1.9-0.2-2-1-1.4 1.8-1.6 5.1-1.6 9.9 1 13-0.4 6.3 1.8 5.8 0.5 16.2-2.8 2.6 6.5-2.9 0.1-2.2 0.6-2.8 3-2.1 3.5-1.9 7.7-0.8 4.9-2.1 2-5.2 0.1-2.2 0.6-3.3 2.2-1.3 0.6-1.2-0.2-1.5-0.7-1.5 1.4-1.5 2.2-0.6 3.6 0.3 2.5 0 1.6 4 4-2.7 3.8 0 0.1z" id="SI046" name="Kobarid">
  </path>
  <path d="M125.1 320.5l-1.1-3.8-2.9-0.5 0-0.1 2.7-3.8-4-4 0-1.6-0.3-2.5 0.6-3.6 1.5-2.2 1.5-1.4 1.5 0.7 1.2 0.2 1.3-0.6 3.3-2.2 2.2-0.6 5.2-0.1 2.1-2 0.8-4.9 1.9-7.7 2.1-3.5 2.8-3 2.2-0.6 2.9-0.1 9.9 10.1 14.4 8.4 13 4.2 4.3 0.7 4.1 0 29.5-3.9 2.3 5.4 0 2.8-4.6 10.5-9 6.8-9.9 3.1-4.9 3-3.8 3.9-1.1 2.6-1 3.3 0 2.3 1.2 4.1 2.7 4.8 0.5 3.3 0 3.3 0.7 3.6 0.7 2.4 0.4 2.7-0.2 1.3-3.5 2.4-2.1-0.5-0.4 0.9-1.2 1.4-1.5 0.2-2.7-0.9-1.1 0.7-0.8 1.9 0.3 1.3 0.8 1.3 1.8 1 0.8 1.3 0.2 1.6-0.5 0.8-1.3 0.1-0.3 1.5 0.2 2.3 0 2.4-0.6 7.9-7.9-5.1-2.2-2.5-3-4.5-2.6-5.8-1-5.1-0.2-5 0.2-3-2.3-9.2-2-2.1-3.5-0.1-3.5 3-17.4-11-1.2-2.2-2.1-1.2-2.9-4.1-0.6-3.1-5.3-9-7.3 1.6z" id="SI128" name="Tolmin">
  </path>
  <path d="M90.9 360.5l27-20.7 8.3-15.3-1.1-4 7.3-1.6 5.3 9 0.6 3.1 2.9 4.1 2.1 1.2 1.2 2.2 17.4 11-0.5 8.2-1.8 2.6-2.6 4.6-3.5 2.7-2.2 0.1-7.8-3.3-6.8-0.5-4.2 2.3-3.5 2.8-6.3 9.8-2.2 1.6-0.2 1.6 3.9 5.3 1.6 2.5-0.9 1.1-1.1 0.4-1.2-0.1-1-0.9-1.1-1.2-1.8-1.5-1.1-0.7-3.3-0.5-4.8-6.3-4.6-4.3-2.6-4.5-1.6-3.9-3.1-3.1-4.1-1.8-2.6-2z" id="SI044" name="Kanal">
  </path>
  <path d="M90.9 360.5l2.6 2 4.1 1.8 3.1 3.1 1.6 3.9 2.6 4.5 4.6 4.3 4.8 6.3 6.5 6.8-4.4 2.3-2.8 2.5-0.2 0.2-8.4 2-9.3 4.4-8.6 0.7-7.9-9-0.1-0.5-0.2-0.4-0.2-0.4-0.3-0.4-1.3-1.1-3.8-4.4 4.4-4 1.5-1 2.3-2.9 0.8-2.9-0.8-2.7-2.3-2.5 6.6-8.8 5.1-3.8z" id="SI007" name="Brda">
  </path>
  <path d="M117.6 414.2l2.2-8.5-4.9-7.9-1.5 0.4 0.2-0.2 2.8-2.5 4.4-2.3-6.5-6.8 3.3 0.5 1.1 0.7 1.8 1.5 1.1 1.2 1 0.9 1.2 0.1 1.1-0.4 0.9-1.1-1.6-2.5-3.9-5.3 0.2-1.6 2.2-1.6 6.3-9.8 3.5-2.8 4.2-2.3 6.8 0.5 7.8 3.3 2.2-0.1 3.5-2.7 2.6-4.6 1.8-2.6 0.5-8.2 3.5-3 3.5 0.1 2 2.1 2.3 9.2-0.2 3 0.2 5 1 5.1 2.6 5.8 3 4.5 2.2 2.5 7.9 5.1-3.9 2-2.4 3.6 0 4-13 9.5-7.1 12-6.1 7.4-1.9 0.6-4 2.9 0.3 1 1.5 0.6 2.3 1.5 2.4 2.9 3.9 2.5 5.3 5.2 1.2 1.6 1 1.6 0.9 1 0.8 1.7 1.2 1 4.6 2.6 0.7 1 3.1 4.9-6.3-2.7-3.2 0.4-6.2 0.1-4.9-1.5-14.5-8-0.6-5.3-1.4 1-2.2-2.3-1.6-3.2 0.4-1.7 0.2-0.3 0.7 0 1.6-0.6 1.6-0.7 0.7-5.2 0-4.2-0.3-2.9-6.5 0.4-0.1-0.7-1 0.1-1-0.1-0.8-0.4-0.6-0.7-0.6-0.4-0.8-0.2-1.2 0.2-1.4-0.2-1.4-0.8-2.6-2.6-2.1-1.1-1.9-0.5-5.1-1.7z" id="SI084" name="Nova Goriška">
  </path>
  <path d="M113 428.2l2.6-5.9 2-8.1 5.1 1.7 1.9 0.5 2.1 1.1 2.6 2.6 1.4 0.8 1.4 0.2 1.2-0.2 0.8 0.2 0.6 0.4 0.6 0.7 0.8 0.4 1 0.1 1-0.1 0.1 0.7 0.2 0.8-0.3 2.8-0.3 1-0.8 0.5-1.5-0.4-3.1 1.1-5.7 5.3-9.6-2.8-4.1-3.4z" id="SI183" name="Šempeter-Vrtojba">
  </path>
  <path d="M105.7 466.8l-2.3-4.6 0.9-14.2 8.7-19.8 4.1 3.4 9.6 2.8-2.1 1.9-1.6 0.4-2.4 0.3-1.5 0.8 0 1.3 2.5 2.9 2.9 1.9 7.5 2.6 4.1-0.2 8.6 1.5-0.8 7.7-1.7 1.5-1.9 2.7-3.4 1.9-3.5 3.8-6.1 1-16.4-0.5-5.2 0.9z" id="SI075" name="Miren-Kostanjevica">
  </path>
  <path d="M105.7 466.8l5.2-0.9 16.4 0.5 6.1-1 3.5-3.8 3.4-1.9 1.9-2.7 1.7-1.5 0.8-7.7 0.9 0.5 14.5 8 4.9 1.5 6.2-0.1 3.2-0.4 6.3 2.7 7 3.7 1.6 0.2 6.4-1 4.8 7.6-14.4 4.4-28.7 3.6-6.1-0.2-1.8 0.7-5.8 4.1-1.7 3.8-11.4-8.9-4.8-1.5-10-1.2-5.9-3.3-2.1-1.1-2.1-4.1z" id="SI049" name="Komen">
  </path>
  <path d="M197.9 543.4l-0.1-0.3-2.6-0.2-4.3-2.5-3.1-3.4-23-38.9-20-9-2.8-2.2 1.7-3.8 5.8-4.1 1.8-0.7 6.1 0.2 28.7-3.6 14.4-4.4 8.3 7 15.1 8.4 1.8 3.3-4.1 6.8-3.2 1.7-2.3 1.9-0.3 2.7 1.2 4.6 1.6 3.3 0.8 3.7-1.6 3-7.5 11.4 2.1 3.8-1.6 7.7-8.5-0.5-4.4 4.1z" id="SI111" name="Sežana">
  </path>
  <path d="M262.3 609.7l-6.8-0.4-7.6-2.6-7.3-5.3-3.8-3.9-4.1-2.2-7.7-1.6 0-0.1-1-3.1-9.2-10.9-12-2.5-4.6-3.2-2.8-3.2-1.4-2-2.7-10.3-0.8-1.9 5.5-6.9 2.2-5.4-0.3-0.8 4.4-4.1 8.5 0.5 3.6 2.7 6 1.2 4.7 2.5 5.3 3.8 5.4 2.6 4.3 3.8 5.7 1.1 2-0.5 1.6-1.1 1.5-2.6 3.7-1.7 4.2 3.8-0.7 1.4-0.9 3-1.5 3.1-1.2 4.9 0.2 1.9 1 1.1 1.7-0.5 1.7 1.1-0.2 2.3-0.6 4.1-2.4 7.9-2.1 5.5 0.6 1.1 5.3 4.3 1.3 1.4 1.8 4-0.1 5-0.4 2.6 0 0.1z" id="SI035" name="Hrpelje-Kozina">
  </path>
  <path d="M154 559.4l0.5 0.8 1.9 2.1 2.3 2.5 2.2 2 2.6 2.9 1 3-1 3.3-3.4 1.8-1.6 0.1-1.9 0.6-1.3 0.2-1.9-0.2-1.9 0.3-0.9-1 6.7-1 0-2.6-3-4.4-4.3-4.7-4.5-4.9 8.5-0.8z" id="SI213" name="Ankaran">
  </path>
  <path d="M821.1 37.6l0.9 12.6-1.3 17 0.2 2.4 3.3 2.5-2.3 3.4-8.9-1.2-1.8-1.2-3.3-3.6-0.6-1.6-5-0.7-4.8 0.3 0-1.3 2-13.1-0.2-3-1.3-0.9-0.3-0.9 2.8-3 1.7-1 11.8-2.9 1.1-0.3 6-3.5z" id="SI105" name="Rogašovci">
  </path>
  <path d="M796.5 101.4l5.6 1 3.1 2.2 5.4 6.8 0.1 0 3.2 2.4 4 1-9.8 12.5-0.3 4.9 2 11.6-10.2 3.2-6.5-0.9-6.5-3.4-4.9-6.1-0.8-3.3-0.1-2.3 4.4-3.9 0.7-2-0.8-0.6-1.5-0.5-1.3 0.4-1.5 0.1-1.2-0.1-1.4-0.8-1-0.2-3.7-1.5 0.2-7.1 6.5-0.4 6-0.7 4.3-3.8 6-8.5z" id="SI029" name="Gornja Radgona">
  </path>
  <path d="M743.7 94l11-4.5 8.1-0.7 8 1.6 19.5 9.9 6.2 1.1-6 8.5-4.3 3.8-6 0.7-6.5 0.4-3.4-2.4-5.2-1.3-9.1-6.3-2.6-4.1-4-1.5-5.2-4.3-0.5-0.9z" id="SI195" name="Apace">
  </path>
  <path d="M696.7 108.3l1.5-1.2 1.7-3.6 0-5.4 0.9-6.4 4.6 2.8 22.1 3.3 7.7-0.4 8.5-3.4 0.5 0.9 5.2 4.3-0.2 7.3-1.1 2.6-0.3 2.4-1.8 2-0.1 2.1 0.6 2.5 1.7 3.3-6.3-0.5-0.6 1.2-0.9 0.9-0.8 3.7-2.8-4.1-1.3-1.5-1-1.8-1.1-1.4-1.3-0.9-1.6-2-0.3-1-0.1-1.3-0.7-1.2-1.3-1.2-4.1-1.2-3.4 0.3-1.7-0.6-1.3 0.1-0.8 0.1-1 1.4-0.8 3.1-2 3.6-0.5 2.1 0.1 1 0.3 0.4-0.9 0.5-0.7 0.7-7.7 1.4-6.7-10.1-0.2-4.8z" id="SI118" name="Šentilj">
  </path>
  <path d="M667.4 121.1l0.1-0.8 2.9-6 4.4-3.4 6.2-1.6 6.1-0.1 4.4 1.3 3.7-1.1 1.5-1.1 0.2 4.8 6.7 10.1 5.4 16.4-5 4-4.7-3.5-1-3-3.9-3.6-2.5-1.6-2-2.5-2.2-1-5.7 0.2-9.8-2.7-4.8-4.8z" id="SI055" name="Kungota">
  </path>
  <path d="M665.6 127.5l1-2.4 0.8-4 4.8 4.8 9.8 2.7 5.7-0.2 2.2 1 2 2.5 2.5 1.6 3.9 3.6 1 3 4.7 3.5 9.4 0.6 5.6 5.6 6.2 4.2 7 0.4 2.8-2 1.7 2.3 0.9 1.1 0.6 1.6 1 0.8-4.4 5.2-4.6 6-4.3 2.3-0.6 1.5-0.3 1 0.4 1.2 0.9 2 2.1 3.7-10.2-3.1-25.4-1.9-12.9 2.9-3.9-3.4 3-18.6-3.4-4.2 0-2.7-0.5-4-1.5-1.9-1.3-1-1.5-0.7-1.2-1.7-1-2.3 0.1-3.2-1.3-5.6-1.8-2.2z" id="SI070" name="Maribor">
  </path>
  <path d="M642.9 129.7l1.3 1.2 6.6 4.1 8.6-1.5 5.4-4.3 0.8-1.7 1.8 2.2 1.3 5.6-0.1 3.2 1 2.3 1.2 1.7 1.5 0.7 1.3 1 1.5 1.9 0.5 4 0 2.7 3.4 4.2-18.6 10.3-3.8 1.3-7.2-1.7 0.5-4.8 0.6-7.6-1.2-3.5-1.9-1.9-2.2-1.5-0.9-2.4-1.6-0.9 0-1.9 0.5-2.3 0.9-3 0.5-4.2-1.7-3.1 0-0.1z" id="SI178" name="Selnica ob Dravi">
  </path>
  <path d="M567 123.8l9.4 1 36.9-2-0.1 3.6-1 6.7-2.3 1.9-4.7 2.2-2 0.7-3.9 3.8-4 11-14.5 9.1-1.6 1.4-1.3 1.8-0.3 3.2-2.8 2.7-5.5-2-1.4-3.6 0.1-2.1 0.7-2.8 1.5-2.8 1.1-3.4-0.2-1.8-0.8-1.7 0.6-0.5 1 0.1 1.9-0.5 1.6-1.1 2.4-4.2 0.5-2.3 0-1.8-0.7-1.3-1.7-1.4-1.7-0.6-0.7-0.4-0.9-0.8-2.4-2.9 0.1-2.6-0.6-1.7-2.3-3.4-0.4-1.5z" id="SI101" name="Radlje ob Dravi">
  </path>
  <path d="M542 121.1l5.7 0.6 19.3 2.1 0.4 1.5 2.3 3.4 0.6 1.7-0.1 2.6-8.4 6.6-4.1 1.6-4.2-0.6-6-4.4-3.2-5.8-1.4-3.7-0.9-5.6z" id="SI081" name="Muta">
  </path>
  <path d="M494 134.8l4.1-2.5 4.1 0.7 5.6 8 10.7-15.3 16.6-5.4 6.9 0.8 0.9 5.6 1.4 3.7 3.2 5.8 6 4.4-4 1.1-0.9 1.6-1.4 3.4 0.6 3.2-0.7 3.8-9.4 8.3-0.6 1.9-1.3 1.5-1.2 0.3-3.3-1.3-3.6 1.3-0.8 0.6-0.9 0.6-0.6 0.2-1.1 0-4-5.2 1-3.6-0.5-1.4-1.4-2.7-2.8-1.8-4.6-3.7-3.2-4-1.3-2.3-1.8-1.1-4.8-0.5-6.7-5.4-0.2-0.6z" id="SI025" name="Dravograd">
  </path>
  <path d="M613.3 122.8l15.9-0.8 8.5 3.2 5.2 4.5 0 0.1 1.7 3.1-0.5 4.2-0.9 3-0.5 2.3 0 1.9 1.6 0.9 0.9 2.4-2.2 4.1-1.6 0-1.4-0.1-4.4-3.1-0.7-0.4-5.6-1.8-3.5-0.4-1.4 0.6-0.7 1.4 0.1 3.6-0.8 2.7-5.2 7.4-2.7 7-2.9 4.1-1.8 5.9-1.6-7 0.1-1.9 0.6-1.1 0.3-1.2-0.9-1.3-4.5-2.6-2.5-4.3-6.6-6.5 4-11 3.9-3.8 2-0.7 4.7-2.2 2.3-1.9 1-6.7 0.1-3.6z" id="SI093" name="Podvelka">
  </path>
  <path d="M486.7 139l1-0.2 6.3-4 0.2 0.6 6.7 5.4 4.8 0.5 1.8 1.1 1.3 2.3 3.2 4 4.6 3.7 2.8 1.8 1.4 2.7 0.5 1.4-1 3.6-2 7.8-0.4 7.4-1.1 3.6-1.9 3-1.5 1.1-6.1 2.7-6.4-0.5-0.8-0.7-4.8-5.2 6.9-7 0.8-3.8-0.6-0.9-0.4-0.6-0.1-0.8 0-1.5-0.2-2.3 0.1-5.1-0.4-2.3-0.7-1.3-2.3-0.6-0.9-0.9-1.4-2.7-1.1-2.8-1.1-1.7-1-1.1-0.8-0.6-0.6-0.7-0.6-0.4-0.7 0.1-0.9 0-0.7-0.7-1.5-3.3-0.4-1.1z" id="SI103" name="Ravne na Koroškem">
  </path>
  <path d="M463.7 161.6l2.2-6.8 3.3-7.1 4.9-7 3.6-1.6 4.1 0.5 4.9-0.6 0.4 1.1 1.5 3.3 0.7 0.7 0.9 0 0.7-0.1 0.6 0.4 0.6 0.7 0.8 0.6 1 1.1 1.1 1.7 1.1 2.8 1.4 2.7 0.9 0.9 2.3 0.6 0.7 1.3 0.4 2.3-0.1 5.1 0.2 2.3 0 1.5 0.1 0.8 0.4 0.6 0.6 0.9-0.8 3.8-6.9 7-7.1 0.1 0.9-5-1-1.2-2.1-1.7-2.9-3.1-0.9-2.7-0.1-2-1.6-1.4-1.7-0.8-1-2-1.8-0.2-1.2-0.4-1 0.3-0.7 0.2-0.9 0.2-0.8-0.2-4.5-0.2-3.2 0.6z" id="SI175" name="Prevalje">
  </path>
  <path d="M458.6 175l3-7 2.1-6.4 3.2-0.6 4.5 0.2 0.8 0.2 0.9-0.2 0.7-0.2 1-0.3 1.2 0.4 1.8 0.2 1 2 1.7 0.8 1.6 1.4 0.1 2 0.9 2.7 2.9 3.1 2.1 1.7 1 1.2-0.9 5-1.4 2.9-2.4 0.5-3.7-0.4-6.3-2-5.8-4.8-5.4-1.5-4.6-0.9z" id="SI074" name="Mežica">
  </path>
  <path d="M422.7 200l2.2 0.3 2-5.1 3.4-4.1 1.4-2.9 1.8-2 4.8-2.1 2.5 1.8 7.4-1.2 6.4-3 1.6-1.4 2.4-5.3 4.6 0.9 5.4 1.5 5.8 4.8 6.3 2 3.7 0.4 2.4-0.5 1.4-2.9 7.1-0.1 4.8 5.2 0.8 0.7 6.4 0.5-2.7 12.4-0.1 5.3-4 3-14.5 6.9-25.3-0.6-8.2-2.9-1.7 0.3-4.4 4.1-6-8.8-3.4-2.3-13.3-2.7-1-2.2z" id="SI016" name="Črna na Koroškem">
  </path>
  <path d="M298.6 209l34.6 1 9.7-2.2 3 0.7 1.4 2 0.9 2.4 1.7 1.9 4.9 2.3-0.8 1.2-3.4 8.2-1.1 3.9-3 5.9 0 3.7-0.8 5.2-13.3 0.4-2.6 1-3.6 3.4-2.2 1.4-1.2 6.5-7.4 1-1.6-0.3-1.7-1.2-6.4-1.5-2-1.8-1.1-3 0.6-1.9-1.5-1-0.8-1.2-0.5-2.5 1.9-15.4-0.7-9.8-4.2-4.9 1.1-4.9 0-0.2 0.1-0.3z" id="SI131" name="Tržič">
  </path>
  <path d="M271.3 208.1l0.6 0.1 26.7 0.8-0.1 0.3 0 0.2-1.1 4.9-4.4 1.5-2.4 2-4.2 5.5-1.5 4.2-1.3 2.9-3 2.1-3.3 0.3-2.7-0.3-6.3 4-4.8-8.6 2-5.9 0.5-7.6 2.4-3.8 0.9-0.9 2-1.7z" id="SI192" name="Žirovnica">
  </path>
  <path d="M232.9 190.4l5.1-0.9 5.1 0.1 4.7 1.5 4.2 2.1 16.2 14 3.1 0.9-2 1.7-0.9 0.9-2.4 3.8-0.5 7.6-7.5 1.4-1.5-0.4-4.2-2-0.5-0.3-2.2-1.9-23.2-12.7 2.1-3.4 1.5-1 2.2-2.2 0.6-3.5 0.1-5.7z" id="SI041" name="Jesenice">
  </path>
  <path d="M390.9 228.5l1.4-3.7 2.4-8.1 4.3-6.1 2.8-1.2 6.2-0.5 2.9-0.9 3-1.9 5.8-6.1 1.3-0.3 1.7 0.3 1 2.2 13.3 2.7 3.4 2.3 6 8.8-4.2 6 0 3.6 0.5 1.2 0.4 1.2-1.6 1.6-3.2 2.3-16.5 7.9-8.5-0.7-8.7 1.8-4.1 0.2-7.7-3.1-1.7-8.7-0.2-0.8z" id="SI180" name="Solcava">
  </path>
  <path d="M354.8 217.1l4 1.8 4.8 0.8 10-2.4 3.9 5.5 3.3 7.1 3.8 4 5-2.2 1.3-3.2 0.2 0.8 1.7 8.7-9.5 3.6-19.2-1.7-4.3-1.1-1.3 0-1.5 0.3-1.2 0.7-1 1.7-0.9 2.2-0.6 0.7-1.4 1.3-6.2-0.5 0.8-5.2 0-3.7 3-5.9 1.1-3.9 3.4-8.2 0.8-1.2z" id="SI163" name="Jezersko">
  </path>
  <path d="M904 164.7l-2.9 3.5-5.6 1.9-5.4-1.6-3-5.2-2 1.1-0.8 0.8-1.1 1.2-4-3.2-1.9-2.7 5.3-6.4 3.9-3.1 2.2-0.7 3.7-4.7 0.2-3.3 8 5.6 1.8 2.6 1 5.8-1 3.1-1.7 3.3 1.8 1.5 1.4 0.5 0.1 0z" id="SI015" name="Črenšovci">
  </path>
  <path d="M881.1 177.4l-7.5 8.5-0.2 3.5-0.1 0.1-0.8 0.4-1.2 1.1-0.7 1.4-0.7 1-1.5 0.4-1.8-0.7-1.2 1.1-0.7 0.3-0.6-0.3-3-4.4-2.3-2.2-3.7-2.7-4.4 1-0.8 1.6-1.4 0.4-3.3-0.3-6.5-2.8-0.8-0.1-12.6-2.3-4.6-1.9-9-2.1 1.8-4.3 0-1.4 0.5-1.5-0.4-1.1 0.4-1 1.7-2.4 2-1.4 1.3-1.2 9.3 1.4 5.7 1.2 7.1 4.2 5.9 1.4 3.3 0.1 3.4-0.9 1.4-1.1 0.9-1.1 0.3-1.2 0.4-2.6 0.3-1.3 0.3-1 0.1-1.1-0.8-0.8-0.6-0.9 0.8-2.5 4-2.6 1.2-0.2 2 0.1 0.8-0.6 3.6-6.8 8.9 12.7 1.9 2.7 4 3.2 1.1-1.2 0.8-0.8 2-1.1 3 5.2 5.4 1.6-2.6 1.7-7-2.9-5.1 6.1 0.3 2.2 0 0.2z" id="SI063" name="Ljutomer">
  </path>
  <path d="M892.9 171.8l-1.8 1.1-9.1 3.5-0.9 1 0-0.2-0.3-2.2 5.1-6.1 7 2.9z" id="SI176" name="Razkrižje">
  </path>
  <path d="M877.3 207.5l0.5 1.8 0.2 3.4-0.5 6.7 0.7 3.5 1.8 2.1 4.9 3.3 1.4 2 0.3 3.6 0.1 1-1.3 1.3-6.6-0.1-10.3 2.6-2.5 0.1-4.8-1.2-4.1-2.4-5.4-5.1 1.3-3 2.7 0.9 0.2-2.9-0.4-1.6-0.3-0.3 0.9-2.9-1.5-3.9 0.2-2.6 0-4.2 1.3-1.6 4.3-0.4 2.4-0.6 2.3 0.6 2.9 2 1.5 4.5 3.8-3.5 4-3.1z" id="SI202" name="Središče ob Dravi">
  </path>
  <path d="M831.4 236.3l-8.8-1.9-0.2 7.5 0.7 6-0.1 5.4-2.1 5.7-0.7 0.8 0-0.2-2.1-7.1-0.5-4.8-0.8-2.3-1-1.2-0.9-1.8 0-2.4 1-2.4 1.7-4.1 4.2-3.5 5.9 1.5 3.7 4.8z" id="SI143" name="Zavrc">
  </path>
  <path d="M820.2 259.8l-3.1 3.5-5.7 4-6 3-1.4 0.4-0.1-0.1-1.2-1.8-4-13.6 0.2-3.2-0.8-2.9-0.6-1.7-1.1-1.2 0.6-5.3 2.3-0.1 2.4-0.9 0.9-0.6 1.4-1.5 11.9-0.2-1 2.4 0 2.4 0.9 1.8 1 1.2 0.8 2.3 0.5 4.8 2.1 7.1 0 0.2z" id="SI196" name="Cirkulane">
  </path>
  <path d="M804 270.7l-3.4 1-9.6 1.7-8.6 4.8 0-0.2-0.1-0.4-0.6-3.7 0.1-0.7 0.2-0.9 0.3-0.7-0.2-1 0-1.2 0.2-1.1 0.1-1.2-0.2-1.3-1.1-2.6-0.7-1.3-0.5-1.6-0.2-1.6 0.2-1.4 0.6-1.1 0.4-1-0.1-1.9-0.1-1-0.7-1.4-1.2-1.2-1.7-1-4.8-2.1-1.1-0.9-3.2-0.4-1.2-0.1-1.5 0.6-1.6 0.3-2.2 0.9-1.2 0.2-1.4 0.7-1.6 2.5-1 2.3 0.2 2.7-1.1 7.9-7-5.1 3.6-7.7-0.5-1.4-0.8-1-1.9-4.3 4.7-1.7 0.7-2.9 1-2.3 2-9.7 5.4 5.4 5.6-0.9 7.7-5.4 2.2 1.4 7.1 2.8 1.9 1.4 0.4 1.2 1.8 4.6 2.5 1.6 5.2 1.6-0.6 5.3 1.1 1.2 0.6 1.7 0.8 2.9-0.2 3.2 4 13.6 1.2 1.8 0.1 0.1z" id="SI135" name="Videm">
  </path>
  <path d="M782.4 278.2l-10.1 5.6-0.8 0-0.1-0.1-1.6-2.7-2.4-6.6-1.4-0.8-10.6-10.3 1.1-7.9-0.2-2.7 1-2.3 1.6-2.5 1.4-0.7 1.2-0.2 2.2-0.9 1.6-0.3 1.5-0.6 1.2 0.1 3.2 0.4 1.1 0.9 4.8 2.1 1.7 1 1.2 1.2 0.7 1.4 0.1 1 0.1 1.9-0.4 1-0.6 1.1-0.2 1.4 0.2 1.6 0.5 1.6 0.7 1.3 1.1 2.6 0.2 1.3-0.1 1.2-0.2 1.1 0 1.2 0.2 1-0.3 0.7-0.2 0.9-0.1 0.7 0.6 3.7 0.1 0.4 0 0.2z" id="SI172" name="Podlehnik">
  </path>
  <path d="M771.5 283.8l-0.5 0-13 0.4-4.6 1.2-4.4 2.1-1 0.8-0.2-0.1-11.8-5.5 1.1-9.9 3.2-5.1 8.1-9.5 7 5.1 10.6 10.3 1.4 0.8 2.4 6.6 1.6 2.7 0.1 0.1z" id="SI191" name="Žetale">
  </path>
  <path d="M748 288.3l-3 2.3-5.9 9.9-5.5 3.5-20.7-1.5 0-0.1 0.1-2.2 3.9-7.2 2.8-1.8 2-4.2 2.3-2.2 1.5-1 5.7-2.8 4.8 1.7 11.8 5.5 0.2 0.1z" id="SI107" name="Rogatec">
  </path>
  <path d="M712.9 302.5l-4.8-0.3-6.2 3.1-3.8 5.2-0.2-0.1-3.7-3.6-1.8-6.6-0.9-1.1-2-1.2-3.2-4.4-5.8-15.7 1.6-2.3 1.7-1.1 3.1-0.9 6.1 0.1 9.2 3 3.5 1.2 9.2-0.2 5.4 4.2 10.9-0.8-5.7 2.8-1.5 1-2.3 2.2-2 4.2-2.8 1.8-3.9 7.2-0.1 2.2 0 0.1z" id="SI106" name="Rogaška Slatina">
  </path>
  <path d="M698.1 310.5l-1.1 1.5-5.4 10.3-4.1 11.8 0 10.5 4 9.3 5.7 6.1-4.6 4.4-2.5-1.4-1.1-4 0.3-1.5 0.9-1.5-4.2-9.4-2.6-1.4-4.8-4.1-3.6-0.8-3.1-2.7 2.8-10.4 6.3-4 3.3-6 9.9-10.4 3.7 3.6 0.2 0.1z" id="SI149" name="Bistrica ob Sotli">
  </path>
  <path d="M697.2 360l2.3 2.4 3.5 2.1 8.1 3.4 3.5 2.6 2.6 4-0.1 0-2.3 0.7-4.9 5.6-1.3-2.4-7.1 0-2.1-0.8-2-1.5-1.3-1.3-3.5-10.4 4.6-4.4z" id="SI092" name="Podcetrtek">
  </path>
  <path d="M717.2 374.5l1.5 2.2-1.3 4.4-3.4 5.1-2.2 8.4 0.3 8.6 0.5 12.7-0.4 7-1.5 5.1-2 4.9-1.2 5 1.3 5.3 3.4 8.3 0.1 6-2.8 4.1-6 3.1-5.6 1.7-11.2 0.4-10.8-1.9-0.1-0.1-1.4-2.6-6.3-9.3-1.4-3.3-1.4-2.6-0.9-3 0-3.3 1.5-4.9 4.3-2.7 3.4-1.3 1.3 0.1 1.2-1.1 1.7-0.9 0.8-3.6 2.2-1.4 0.9-2.5 0.7-4.4-0.3-14.7 3.6-9 4-0.2 7.6-3.9 12.6-9.4 4.9-5.6 2.3-0.7 0.1 0z m-38.5 10.2l2.3-0.3 1.3-0.5 1.7-0.1 2.1-0.8 4.1-0.5 0.7 0.8 0.6 0.9-5.8 10.1-4.4-1.6-1.1-0.9-0.2-1.9-1.3-5.2z" id="SI009" name="Brežice">
  </path>
  <path d="M675.9 464.9l-7.6-1.3-2.8 1.4-5.3 4.5-2.9 1-0.2 0-2.9-4.8-3.5-2.3-0.8-6.2-2.5-3.5-0.5-3.1-1.1-3.8-2.6-2.7 0.8-5.4-5.7 0.4-4.5 3.5-4.1 2.2-0.5-1.8-7.8-3-3-3.3 0.8-3.2 0.3-7 2.5-7.6 2.5-6.8 5.2-7.7 9.9-10.1 1.6-2.8 0.1-2.6-0.6-2.4-1.5-2.2-1-3.3-0.7-3 0-3.6 0.8-1.9 0.2-1.5-0.5-5.5 21.4-1.9 7.2 3.3 2.1 0.2 3.7 2.8 3.1 3.5 3.2 11.3 1.3 5.2 0.2 1.9 1.1 0.9 4.4 1.6-3.6 9 0.3 14.7-0.7 4.4-0.9 2.5-2.2 1.4-0.8 3.6-1.7 0.9-1.2 1.1-1.3-0.1-3.4 1.3-4.3 2.7-1.5 4.9 0 3.3 0.9 3 1.4 2.6 1.4 3.3 6.3 9.3 1.4 2.6 0.1 0.1z" id="SI054" name="Krško">
  </path>
  <path d="M641.3 484.8l-0.2 0.1-28.3 9.5-0.1-0.2-0.2-1 0-0.1-2.8-11.1-6.7-10.3-5.2-5.4-1.5-4-0.5-3.1-0.3-1.8 1.5-3.6 1.3-2.2 6.6-3.6 7.4-4.2 3.1 1.6 0.4 0.9 0.7 0.1 1.2-0.6 2.2-1.8 1.5-4 7.8 3 0.5 1.8 1.7 6.2 0.4 9 0.8 5 0.4 5.6 6.6 12.5 1.6 1.6 0.1 0.1z" id="SI119" name="Šentjernej">
  </path>
  <path d="M549.1 467.3l1.1 1.5 1.8 1.2-0.2 0.3-0.1 1.4-0.6 2.2 1.3 2.7 0.5 2.4 0.6 1.9-0.6 1.3-1.8 2.5-1.2 2.4 0.3 3.2 0.2 1.2 0 2.4-0.3 1.5-2.3 0-1.3 0.2-0.4 0.8-1.1 1.3 3.4 2.1 0.9 1.3 1.9 2.1-1.1 2.6-0.9 1.6-8.7-9.6-0.4-2-0.9-2.2-3.8-5.8-1.4-5.2 8.1-10.4 2.9-1.7 1.4-2.1 2.4-0.7 0.3-0.4z" id="SI203" name="Straža">
  </path>
  <path d="M598.7 569.1l-0.2-0.2-0.4-0.5-2.7-1.2-2.7-2.6-1.6-2.8-0.9-2.1 0.1-1-1.2-0.6-2.9 0.8-4.4-1.5 0.4-3.5 2.5 0 0.7-0.1 0.8-0.6 0.8-0.3 0.7-0.9 1.3-0.8 1.3-1.3 1.7-1.5 0.8-1.6 0.9-3 0.9-1.3 1.1-0.8 2.1-0.2 1.3-2.1 0.2-2.7-2.8-5.4-2.9-4.1-3.9-3.4-3.7-8.1-0.5-0.7-2.4-0.1 6-4.3 0.3-0.2-0.3 0.8 0.5 1.7 2.2 1.1 2.7 2.7 2.9 5.6 1.5 2 2.6 1.9 3.7 1.4 1.2-0.8 0.4-1.7 1.3-1.1 3.5-1 1.1-0.5 0.9 0.8 4.7 5.3 0.5 0.7 4.7 7.8 1.6 3.7-6-0.1-4 1.4-3.6 2-8.4 2.7-1.7 3-1.1 3.3-2 1.7-3.6 1.9 0.3 3.4 2.1 4.4 1.6 4.6z" id="SI073" name="Metlika">
  </path>
  <path d="M598.7 569.1l0.1 0.4 1.7 10.7 2.4 8.9 4.1 7 14.5 9.9-2.8 2.4-5.1 7.2-2.5 2.4-3.2 0.9-9.4-0.1-16.1 5.9-12 4.5-13-1.8-21.1-18.1 2.5-6.2 3.4-4.2 1.8-1.3 3.2-1.7 4.1-0.9 0.9-1.2-0.1-2-2.3-1.6-3.3 0.4-3.1 1.2-3.2 0.8-1.9-1.1-0.9-2.3 1-4.7 2.5-3.4 1.4-0.8 0.9-0.8 1.1 0.1 1 0.5 1-0.5 0-1.9-3.4-3.2-1.6-2.1 0.1-4.6-1.3-3.8 0.2-2.5-1.8-4.9 9.2 3 8-0.7 2.3-0.9 1.4-0.9 0.4-0.9 0.9-1.5 1.5-1.7 5.2-2.8 4.3 0.1 5.2 1 5.3 2.6-0.4 3.5 4.4 1.5 2.9-0.8 1.2 0.6-0.1 1 0.9 2.1 1.6 2.8 2.7 2.6 2.7 1.2 0.4 0.5 0.2 0.2z" id="SI017" name="Crnomelj">
  </path>
  <path d="M536.3 609.3l-2.9-2.5-14-0.3-2.9-2.7-3.2-1.5-2.6-0.3 0-0.1-3.5-8.1-6.2-5.7-1.7-0.4-2.3 0.4-4.6 1.4-3.5 0.3-4.8-1.2-4.3-2.5-1.6-0.4-1.9 0.6-2.8 2.3-0.8 1.6-0.6 2.7-1.5 3.8-0.8 1.2-1.3 0.8-4-0.6-0.2-0.2-6-7.1-11.4-10.7-4.9-3.6-1.8-3.3-0.4-1.5 0.5-0.8 0.1-1.9-1.1-1.6-1.8-8.8-3.7-12.8 4.5-4 1.5-3.8 6.7 3 4.6-0.9 2-2.8 3-6.1 0.3-4.4 9.6-22.2-7.7-6.3 5.2-6.1 3.8 0.1 2.5-1.3 3.1 0.4 4.6 1.7 2.1 1.4 2.1 3.4 5.5-0.5 8.8-9.9 3.7-1 12.4 2.2 0.4 7.1-1 3.1-2.4 12.4 1.4 3.6 1.3 2.6 5.4 6.1 5.8 6.9 1.3 7.3 3.8 6.6 5.4 10.1 5 2.1 1.8 4.9-0.2 2.5 1.3 3.8-0.1 4.6 1.6 2.1 3.4 3.2 0 1.9-1 0.5-1-0.5-1.1-0.1-0.9 0.8-1.4 0.8-2.5 3.4-1 4.7 0.9 2.3 1.9 1.1 3.2-0.8 3.1-1.2 3.3-0.4 2.3 1.6 0.1 2-0.9 1.2-4.1 0.9-3.2 1.7-1.8 1.3-3.4 4.2-2.5 6.2z" id="SI048" name="Kocevje">
  </path>
  <path d="M456.7 607.9l-2.5-6.5-0.1 0 0-0.1-26.8-11.8-5.7-4.9-0.1-2.1 1-7.3-0.6-3.2-1.6-2.3-0.1 0 4.9-2.5 12.4-8.6 1.8 8.8 1.1 1.6-0.1 1.9-0.5 0.8 0.4 1.5 1.8 3.3 4.9 3.6 11.4 10.7 6 7.1-1.8 5-5.8 5z" id="SI088" name="Osilnica">
  </path>
  <path d="M420.2 569.7l-1.9-1.1-2-0.9-9.9-7.9-3.7-3.9-2.7-5.2-0.2-5.6 0.3-7.6-0.6-6.3-3.2-1.8-3.4 1.4-0.1-0.1-0.2-0.9-2.7-6-0.6-4.5-5.5-17.4 3.6-1.6 1.6 1.4 5.9-0.2 6.6 2.4 6 0.2 2.9 1.8 1.4 1.8 3.3 5.3 6.1 7.5 2.7 2.6 9.1 3.1 3.6 2.4 3.1 1 0.5 1.3 0.6 1.9-0.2 1.6 0.2 1.4-1 2.2-1.5 3.8-4.5 4 3.7 12.8-12.4 8.6-4.9 2.5z" id="SI066" name="Loški Potok">
  </path>
  <path d="M392.9 530.8l-1.5 0.7-2.3 2.5-3.6 8.3-3 4.5-7.3 8.2-2.7 3.9-1.8 5.3-0.2 1.8-0.2-0.1-0.8-0.4-2.1 0.2-2-0.3-1.7 0.7-2.2-0.6-3.2 0.2-3-0.4-0.2-0.9 1.5-1.9 0.1-2.9-0.7-2.2-3.8-3.6-1.8-3.4 0.2-2.9 1-8.3-0.1-7.3-2.6-3.7-6.7-7.7-2.1-7.5 7-1.1 19.6-15.6 8.6 6.9 4.9 0.9 1.3-0.5 2.3-1.7 5.5 17.4 0.6 4.5 2.7 6 0.2 0.9 0.1 0.1z" id="SI065" name="Loška dolina">
  </path>
  <path d="M262.3 609.7l0-0.1 0.4-2.6 0.1-5-1.8-4-1.3-1.4-5.3-4.3-0.6-1.1 2.1-5.5 2.4-7.9 0.6-4.1 0.2-2.3-1.7-1.1-1.7 0.5-1-1.1-0.2-1.9 1.2-4.9 1.5-3.1 0.9-3 0.7-1.4-4.2-3.8 0.2-4.2 3.5 0.6 2.2-1.4 4.9-1.8 7.1-0.4 12.2 0.8 6.2-0.8 3.2-0.8 3.2-3 2.5-1.5 11.2-4.5 9.1-1.8 3.3-1.8 0.7-1.5-0.7-1.3 1.2-0.5 4.3-0.1 6.3 5.1 2.7 3.2 13.7 3.3-1 8.3-0.2 2.9 1.8 3.4 3.8 3.6 0.7 2.2-0.1 2.9-1.5 1.9 0.2 0.9 3 0.4 3.2-0.2 2.2 0.6 1.7-0.7 2 0.3 2.1-0.2 0.8 0.4 0.2 0.1-1.2 9.3-1.5 5.8-3.8 6.9-11.3 8.4-5.4 5-11.1 6.3-13.2 1.2-13.4-2.5-11.5-5.1-6.3-1.6-7.4 2.2-13.8 6.5-7.4 1.3-0.7 0-0.2 0z" id="SI038" name="Ilirska Bistrica">
  </path>
  <path d="M131.3 595.7l-1.5 6.1-0.9 0.6-2.2 1-1.5-0.5-0.5-0.6-0.1-0.9-1.7-2.7-1.4-1-1.9-1.9-0.9-3.7-0.1-2.4-0.6-1.6-1.5-3.3-0.1-1.9 18.5-2.8-0.3 10-3.3 5.6z" id="SI040" name="Izola">
  </path>
  <path d="M703.6 123.2l7.7-1.4 0.7-0.7 0.9-0.5-0.3-0.4-0.1-1 0.5-2.1 2-3.6 0.8-3.1 1-1.4 0.8-0.1 1.3-0.1 1.7 0.6 3.4-0.3 4.1 1.2 1.3 1.2 0.7 1.2 0.1 1.3 0.3 1 1.6 2 1.3 0.9 1.1 1.4 1 1.8 1.3 1.5 2.8 4.1-2.8 8.2-0.9 5.1 0.7 6.1-0.7 2.7-0.9 3.6-2.8 2-7-0.4-6.2-4.2-5.6-5.6-9.4-0.6 5-4-5.4-16.4z" id="SI089" name="Pesnica">
  </path>
  <path d="M728.4 181.1l-2.1-3.7-0.9-2-0.4-1.2 0.3-1 0.6-1.5 4.3-2.3 4.6-6 4.4-0.1 1.9-0.3 1.5 0.4 1.2 0.8 0.8 1.4 0.3 1.7 0.6 1.3 5.3 3.9 1.7 2.2 0.7 2.2-0.9 1.2-0.8 1.4-0.4 1 1.7 3.7-2.8 5-3.4 2.3-3.8 5.1-7.2-7.5-1.8-0.9-2.3-0.9-0.9-0.8-0.4-0.8-1.4-3.9-0.4-0.7z" id="SI026" name="Duplek">
  </path>
  <path d="M718.2 178l10.2 3.1 0.4 0.7-2.5 3.5-0.3 1.3 1.2 2.3 0.7 2.5 0.8 2.4-4.6 6.1-2.1-2.1-3.4-6.9-0.8-2.2 1.3-3.2 0.3-1.6-1.7-3.3 0.5-2.6z" id="SI169" name="Miklavž na Dravskem polju">
  </path>
  <path d="M679.9 179l12.9-2.9 25.4 1.9-0.5 2.6 1.7 3.3-0.3 1.6-1.3 3.2 0.8 2.2 3.4 6.9-6.5 1.1-1.1 0.5-2 0.3-5 0.2-1.4-0.3-2-0.9-3-2.5-6.9-3.3-7.5 0-4.5-1.9-7.3-0.9-1.9-5.9 7-5.2z" id="SI160" name="Hoce-Slivnica">
  </path>
  <path d="M734.8 163.4l4.4-5.2-1-0.8-0.6-1.6-0.9-1.1-1.7-2.3 0.9-3.6 4.6-1.6 6.1-4.8 3.5-3.5 0.9-4.8 2 0.7 2.4 3.2 1.9 0.6 4-0.3 0.2-0.8 1.6 0.5 1.4 0.1 1.7-1.6 3.3 1.9-2.5 1.1-2.2 1.4-2.6 2.2-0.4 4.4 1.3 1.6 1.9 1.1 1.3 1.9 1.5 1.7 0.6 2.7-1.9 1.1-1.7 1.4-1.5 2.7-0.4 2.5 1.5 1.3 0.8 1.1 2.3 2.8-0.6 1.3-0.9 1.7-0.6 2.4-0.9 1.7-0.7 4-8.9 4.7-2.1-1-1.7-3.7 0.4-1 0.8-1.4 0.9-1.2-0.7-2.2-1.7-2.2-5.3-3.9-0.6-1.3-0.3-1.7-0.8-1.4-1.2-0.8-1.5-0.4-1.9 0.3-4.4 0.1z" id="SI058" name="Lenart">
  </path>
  <path d="M773.7 114.8l-0.2 7.1-3.8 3.9-2.6 5.6-0.9 5.1-1.7 1.6-1.4-0.1-1.6-0.5-0.5-0.2-2.9-2.4-1.5-1.7-0.1-2-0.2-1.6-0.9-3.7-0.5-1.6-1.5-2.3-5.2-0.6-1.7-3.3-0.6-2.5 0.1-2.1 1.8-2 0.3-2.4 1.1-2.6 0.2-7.3 4 1.5 2.6 4.1 9.1 6.3 5.2 1.3 3.4 2.4z" id="SI181" name="Sveta Ana">
  </path>
  <path d="M645.2 147.6l2.2 1.5 1.9 1.9 1.2 3.5-0.6 7.6-2.8 3.4 0.2 1.8-0.5 2.6-2.4 5.5-7.4 7.9-2 9.2-5 2.3-1 0.7-1.8 0.7-1.2-0.3-3.7-3.6-1.4-0.9-7 1.2-5.6-2-1-4.3 3.1-7.7 1.8-5.9 2.9-4.1 2.7-7 5.2-7.4 0.8-2.7-0.1-3.6 0.7-1.4 1.4-0.6 3.5 0.4 5.6 1.8 0.7 0.4 4.4 3.1 1.4 0.1 1.6 0 2.2-4.1z" id="SI167" name="Lovrenc na Pohorju">
  </path>
  <path d="M574.8 170.9l2.8-2.7 0.3-3.2 1.3-1.8 1.6-1.4 14.5-9.1 6.6 6.5 2.5 4.3 4.5 2.6 0.9 1.3-0.3 1.2-0.6 1.1-0.1 1.9 1.6 7-3.1 7.7-15.5-1.3-5.8 0.4-4.5-1-7.8-5.9-2-2.6 3.1-5z" id="SI177" name="Ribnica na Pohorju">
  </path>
  <path d="M520.3 161.9l4 5.2 1.1 0 0.6-0.2 0.9-0.6 0.8-0.6 3.6-1.3 3.3 1.3 1.2-0.3 1.3-1.5 0.6-1.9 9.4-8.3 2.8 4.3 4 3.3 3.2 4.4 1.5 3.3 13.1 6.9 2 2.6-2.7 8-7 10.1-3.1 3.2-0.5 4.4-1.5 1.9-0.5 0.3-0.8-0.1-1.4 0.3-3.3 9.2-3.4-3.7-3.8-1.3-1.8-0.1-0.9 3.2-25.8-8.5-12.6-5.5 2.7-12.4 6.1-2.7 1.5-1.1 1.9-3 1.1-3.6 0.4-7.4 2-7.8z" id="SI112" name="Slovenj Gradec">
  </path>
  <path d="M570.2 133l2.4 2.9 0.9 0.8 0.7 0.4 1.7 0.6 1.7 1.4 0.7 1.3 0 1.8-0.5 2.3-2.4 4.2-1.6 1.1-1.9 0.5-1-0.1-0.6 0.5 0.8 1.7 0.2 1.8-1.1 3.4-1.5 2.8-0.7 2.8-0.1 2.1 1.4 3.6 5.5 2-3.1 5-13.1-6.9-1.5-3.3-3.2-4.4-4-3.3-2.8-4.3 0.7-3.8-0.6-3.2 1.4-3.4 0.9-1.6 4-1.1 4.2 0.6 4.1-1.6 8.4-6.6z" id="SI141" name="Vuzenica">
  </path>
  <path d="M345.7 245.2l6.2 0.5 1.4-1.3 0.6-0.7 0.9-2.2 1-1.7 1.2-0.7 1.5-0.3 1.3 0 4.3 1.1 19.2 1.7 2.8 3.2 0.3 2.7-0.6 4 1.2 3 0.5 1.8 0.8 1.6-2.7 3.9-8.2 5.1-4.2 1.3-4.9 0.2-4.8 1.9-14.4 1.1-8-0.9-2.8 0.8-2.5-1.8-0.9-1.9-0.4-2.4 0.6-1 2.8 0.9 1.2 0.2 1.1-1.4 0.8-2.1 1.3-5.9 3.4-10.7z" id="SI095" name="Preddvor">
  </path>
  <path d="M349.1 271.4l14.4-1.1-2.1 3-1.2 1.1-0.9 1.5-1.1 0.8-0.7 1.6-0.8 2.3-0.4 4.9 0.2 9.4 0.4 4 5.3 7.1 1.3 3-0.1 0.3-2.4 2.1-15 0.6-5.1-10.6-0.6-1-0.8-0.9-0.3-1.2 0.4-2.4 2.3-4.2 2.8-11 3.7-5.2 0.7-4.1z" id="SI117" name="Šenčur">
  </path>
  <path d="M363.5 270.3l4.8-1.9 4.9-0.2 4.2-1.3 8.2-5.1-0.1 5.5 2 3.9 0.8 4.5 1.6 1.8 3.2 5.4-0.1 1.6-0.3 1.7-0.5 1.5-0.8 1.1-3.3 1.7-15 16.8-10.9-1.3-5.3-7.1-0.4-4-0.2-9.4 0.4-4.9 0.8-2.3 0.7-1.6 1.1-0.8 0.9-1.5 1.2-1.1 2.1-3z" id="SI012" name="Cerklje na Gorenjskem">
  </path>
  <path d="M392.8 238l7.7 3.1 4.1-0.2 8.7-1.8 2 13.6 6.9 9.7 1.8 4.5 0.9 3.8 1.6 1.8 5.8-0.2-0.5 7.1 2.9 2.8 11.3 3.7 10.3 0.5 6.5-0.5 12.5 0.6 8.7 5.1 13.1 9.1-5.8 3.4-3.2 0.8-32.7 3.7-4.6 1.6-6.1 0-3.9-0.7-5.5-1.9-9.5 1.3-7.3-3.1-1.7 0.2-1.9 0.6-1.8 1-2.1 2.1-6.5 3.6-5.6-0.2-2.9-1.4 0.8-2.4-3.7-7-1.3-5.5-3.7-6.3 3.3-1.7 0.8-1.1 0.5-1.5 0.3-1.7 0.1-1.6-3.2-5.4-1.6-1.8-0.8-4.5-2-3.9 0.1-5.5 2.7-3.9-0.8-1.6-0.5-1.8-1.2-3 0.6-4-0.3-2.7-2.8-3.2 9.5-3.6z" id="SI043" name="Kamnik">
  </path>
  <path d="M346 312l15-0.6 3.1 20.7-2.6 3.9-4.1 2.4-3.7 0-1.9 0.7-1.2 1.5-0.4 1.4-0.2 0.9 1.2 0.8 0.9 2.8 0.9 1.8 1.2 1.5 0.8 1.5-0.6 0.7-1.5 0.6-6.4 4.7-10.5-3-6.2 2.8-3.6-1.5-1.4-1.4-2.4-3.3 1.7-6.3-0.8-2.2 0.8-3.4 2-3.2 5.7-4.5 3.4-0.7 2.4-1.3 1.4-2.2 0.5-1.1 2.8-0.9 5.9-4.3-0.8-1.8-1.4-7z" id="SI071" name="Medvode">
  </path>
  <path d="M322.8 257.9l1.2-6.5 2.2-1.4 3.6-3.4 2.6-1 13.3-0.4-3.4 10.7-1.3 5.9-0.8 2.1-1.1 1.4-1.2-0.2-2.8-0.9-0.6 1 0.4 2.4 0.9 1.9 2.5 1.8 2.8-0.8 8 0.9-0.7 4.1-3.7 5.2-2.8 11-2.3 4.2-0.4 2.4 0.3 1.2 0.8 0.9 0.6 1 5.1 10.6 1.4 7 0.8 1.8-5.9 4.3-2.5-6.7-1.5-2.1-2.4-0.7-1 0.3-1.2-0.3-0.3-2 0.6-1.6 0.6-1.2-0.5-0.4-4.6 1.3-3.3-0.2-18-7.5-1.8-1.5 0.1-2.1 0.7-1.3 1-0.9 0.7-0.8 0.2-1.2-0.4-1.1-0.6-0.8-7.7-3.7-7.7-3.1-4-2.2-4.6-5.2-7.4-5.5 3.6-1.2 14.1 3.8 1.9 0.8 11.6-0.7 6.9 2.7 7.6 5.7 1.5-0.7 0.8-1.8 0.5-4.1-1.3-2.8-4.2-5.8-1.1-0.9-0.1-1.6 0.3-1.5 2.4-2.3 0.6-2.3 1.7-1-0.7-3z" id="SI052" name="Kranj">
  </path>
  <path d="M342.3 325.1l-2.8 0.9-0.5 1.1-1.4 2.2-2.4 1.3-3.4 0.7-5.7 4.5-2 3.2-0.8 3.4 0.8 2.2-1.7 6.3-16.6-3.4-10.2 2.7-6 4.9-0.9-3.7-2.1-2.2-0.3-3.6 0.1-3.7 0.8-2.3 1.2-1.9-0.2-2-0.5-1.3-1.2-1.3 0.2-1.3 0.7-2 1.4-2.6 1.8-1.6 2.3-4.9-1-1.8-1.8-1.7-2.5-0.7-5.3 0.3-3.6 0.8-3.3-0.5 2.2-3.9 6.1-2 2.3-2.2 5-2.4 1.6-0.3 1.1-0.6 1.4-1.6 1.4-7.3 2.2-2.3 1.7-3.9 7.7 3.7 0.6 0.8 0.4 1.1-0.2 1.2-0.7 0.8-1 0.9-0.7 1.3-0.1 2.1 1.8 1.5 18 7.5 3.3 0.2 4.6-1.3 0.5 0.4-0.6 1.2-0.6 1.6 0.3 2 1.2 0.3 1-0.3 2.4 0.7 1.5 2.1 2.5 6.7z" id="SI122" name="Škofja Loka">
  </path>
  <path d="M225.5 310.8l4.6-10.5 0-2.8-2.3-5.4 3.6-2.9 5.7-1.6 16.2 2.6 2.3-1 0.7-2.3 0.9-6.5 1.2-2.8 2.2-3 3.1-0.7 3.4-0.3 9.6 1 7.4 5.5 4.6 5.2 4 2.2 7.7 3.1-1.7 3.9-2.2 2.3-1.4 7.3-1.4 1.6-1.1 0.6-1.6 0.3-5 2.4-2.3 2.2-6.1 2-2.2 3.9-18.6 3.8-0.9 1.1-6 4-1.8-3.8-7.7-2.5-10.9-1-2.7-1-1.5-1.1-0.1-2.3 0.3-3.5z" id="SI146" name="Železniki">
  </path>
  <path d="M183 232.4l1.7 0.4 9 6.2 5.9 0 13.8 2.8 4.9 3.1 5.2 1.9 0.3 0.1 4.3 4 3.2 0.7 3.8 2.5 1.7 1.7 1.6 2.1 2.8 2.5 4.1 1.3 2.3-0.3 2.4-0.8 1.7-0.7 2 0.2 1.4 2.3 1.6 4 1.3 0.9 2.7-3.3 14 1.6 1.5-0.6 2-0.3 1 0.5 1.4 2.1-0.3 6.1-3.6 1.2-9.6-1-3.4 0.3-3.1 0.7-2.2 3-1.2 2.8-0.9 6.5-0.7 2.3-2.3 1-16.2-2.6-5.7 1.6-3.6 2.9-29.5 3.9-4.1 0-4.3-0.7-13-4.2-14.4-8.4-9.9-10.1-2.6-6.5 4.2-10.2 2.2-3.8 4.2-4.1 18.4-10.1 4-5.5z" id="SI004" name="Bohinj">
  </path>
  <path d="M305.7 255.9l6.4 1.5 1.7 1.2 1.6 0.3 7.4-1 0.7 3-1.7 1-0.6 2.3-2.4 2.3-0.3 1.5 0.1 1.6 1.1 0.9 4.2 5.8 1.3 2.8-0.5 4.1-0.8 1.8-1.5 0.7-7.6-5.7-6.9-2.7-2-6.5-0.5-2.8 0.3-12.1z" id="SI082" name="Naklo">
  </path>
  <path d="M297.4 214.4l4.2 4.9 0.7 9.8-1.9 15.4 0.5 2.5 0.8 1.2 1.5 1-0.6 1.9 1.1 3 2 1.8-0.3 12.1 0.5 2.8 2 6.5-11.6 0.7-1.9-0.8-14.1-3.8 0.3-6.1-1.4-2.1-1-0.5-2 0.3-1.5 0.6-14-1.6 1.5-4.8 3.7-3.2 1-1.7 1-2.8 4.3-4.3 0.4-2.1-0.9-2.1-1.9-3.8-1.5-2.6 6.3-4 2.7 0.3 3.3-0.3 3-2.1 1.3-2.9 1.5-4.2 4.2-5.5 2.4-2 4.4-1.5z" id="SI102" name="Radovljica">
  </path>
  <path d="M486 215.1l14.5-6.9 4-3 0.1-5.3 12.6 5.5 25.8 8.5-0.4 11.1-1.6 5.8-3.6 6-0.9 8.4-8-1.6-7.3-3.7-4-5.4 0.8-3.9-0.2-0.6-0.5-0.9-0.7-0.8-1.2-1-2.3-0.5-4 0.9-2.5-0.3-3.9-1.1-2.9-1.9-10.8 3.1-0.4-9.9-2.6-2.5z" id="SI126" name="Šoštanj">
  </path>
  <path d="M460.7 214.5l25.3 0.6 2.6 2.5 0.4 9.9-4.3 12.5-1.6 4.9-0.1 6.2-4.2 9.2-5.4-0.2-10.8-8.8-2.8-1.6-1-1-4.8 2 7.5-20.9 0.6-4.4-1-4.1-0.4-6.8z" id="SI062" name="Ljubno">
  </path>
  <path d="M446.4 216l4.4-4.1 1.7-0.3 8.2 2.9 0.4 6.8 1 4.1-0.6 4.4-7.5 20.9-14.3 11.6-7.4 10-5.8 0.2-1.6-1.8-0.9-3.8-1.8-4.5-6.9-9.7-2-13.6 8.5 0.7 16.5-7.9 3.2-2.3 1.6-1.6-0.4-1.2-0.5-1.2 0-3.6 4.2-6z" id="SI067" name="Luce">
  </path>
  <path d="M425.8 308.9l9.5-1.3 5.5 1.9 3.9 0.7 6.1 0 4.6-1.6 32.7-3.7 0.8 7.4-2.6 4.9-2.1 0.8-18.9 2.2-0.9 0.6 0.4 0.8 1.9 1.1 1 2.4-6.9-2.1-9.3-1.3-12.2 2.6-5.4 4.3-7.9 3.3-2.2-2.8-2.4-0.7-1-0.6-0.9-1.1-0.8-1.2-1-0.7-1-0.2-0.3-1.3 0.5-2.4 3.2-6.4 5.7-5.6z" id="SI068" name="Lukovica">
  </path>
  <path d="M773.5 121.9l3.7 1.5 1 0.2 1.4 0.8 1.2 0.1 1.5-0.1 1.3-0.4 1.5 0.5 0.8 0.6-0.7 2-4.4 3.9 0.1 2.3 0.8 3.3 4.9 6.1-2.1 2.2-3.2 2.2-1 0.3-1.8 0-0.8 0.7-1.3-0.4-1.4-1.6-5.1-7.5-0.4-0.2-3.3-1.9 0.9-5.1 2.6-5.6 3.8-3.9z" id="SI148" name="Benedikt">
  </path>
  <path d="M624.3 335.3l3.4 11.5-1.1 4.3 0.3 3.6-0.8 2.2-2.5 4.9-14.9 1.4-4.1 1.7-3.1 2.3-1.4 0-0.9-1.2-0.4-2.4-0.5-1.5-1.2-1.9-2.3-1.5-4.3-1.6-14.5-0.1-2.8 0.6-0.3 0.6 0.2 1 2.1 2.4 0.9 1.6 0.3 1-0.9 2.3-11.1-13.2-3.8-1.8-1.2-1-0.8-0.9-0.4-1.2 0.1-0.9 0.8-1.3 1.1-0.2 1.3 0.6 2.2 1.5 3.5 1.2 1-0.5 2.4-1.6 1-1.5 0-2.2-2.3-5.4-2.5-3.8-3.6-4.4-7.1-5.3-1-2.4-5.2-6.7 18.3-0.5 7.9-1.6 3.6-4.1 0.5 2.1 1 0.3 2.1 0.2 5.7-2.3 2.5 0.1 2.1 1.4 10.6 2.1 0.5 2.8-0.5 1.2-0.7 1.4-1.1 1-1.2 0.6-0.6 0.8 0.3 1.1 1.1 0.8 5.4-0.3 14.7-6.3 3.3 5.7-0.4 4-1.8 3.5 1.1 5.8z" id="SI057" name="Laško">
  </path>
  <path d="M627.7 346.8l-3.4-11.5 9.3-6.8 1.1-0.2 1.4 0.2 0.4 1.2 2.5 3.3 1.1 1 2.7 1.6 1 1.4 0.5 1.3-0.4 1.2-0.1 1.3-0.4 1.2-0.4 0.7-1.2-0.1-1.3-0.9-1.2-1.5-0.8-0.7-1 0.4-0.3 1-0.5 0.9-2.4 2-2.1 2.4-1.2 0.6-1.2 0.3-2.1-0.3z" id="SI154" name="Dobje">
  </path>
  <path d="M679 157l-3 18.6 3.9 3.4-7 5.2-11.2-0.8-26.7 9.1 2-9.2 7.4-7.9 2.4-5.5 0.5-2.6-0.2-1.8 2.8-3.4-0.5 4.8 7.2 1.7 3.8-1.3 18.6-10.3z" id="SI108" name="Ruše">
  </path>
  <path d="M361 311.4l2.4-2.1 0.1-0.3-1.3-3 10.9 1.3 6.9 10.8 3.8 1.2-0.2 5.4-2.6 1.8-1.2 2.7-2.8 2-7.8 2.5-3.1 0.3-2-1.9-3.1-20.7z" id="SI138" name="Vodice">
  </path>
  <path d="M373.1 307.3l15-16.8 3.7 6.3 1.3 5.5 3.7 7-13 10-3.8-1.2-6.9-10.8z" id="SI164" name="Komenda">
  </path>
  <path d="M396.8 309.3l-0.8 2.4 2.9 1.4-1.8 5.3 1.7 11.9-19.9 6.4-1.9-5.5 2.8-2 1.2-2.7 2.6-1.8 0.2-5.4 13-10z" id="SI072" name="Mengeš">
  </path>
  <path d="M328.6 385.3l-0.2 2.1 1.9 4.2 2.1 1.9 2.2 1.6 0.8 2.9 0.3 2.3-0.1 2.6-1.5 3.2-6.1 1.8-0.8 1.4-1.1 1.3-1.1 4.7 0.1 3.7 0.9 3.7 5.8 15.1 1.8 2.8 3.6 4.5-3.3 1.7-11.3-8.3-4.7-1.6-2.9 2.3-3.9-9-7.3-9-6.2-6.3-2.6-1.8-1.8-0.9-1.4 0.1-1.3-0.8-1-1.9 0.5-2.1 1.3-2.4-0.5-3.1 1.3-5.7 2.5-1.7 0.4-0.8-6.9-4.6-2.8-0.8-1.7-6.9 15.5 1.9 0.6 3-2.1 1.7 0.4 1.4 1.5 1.7 6.3 2.9 1.9 0.2 0.8-0.7-0.2-1.3 0.4-1.3 1.6-0.8 7.4-1.4 2-0.8 7.6-2 1.3-0.7z" id="SI140" name="Vrhnika">
  </path>
  <path d="M327.3 386l-7.6 2-2 0.8-7.4 1.4-1.6 0.8-0.4 1.3 0.2 1.3-0.8 0.7-1.9-0.2-6.3-2.9-1.5-1.7-0.4-1.4 2.1-1.7-0.6-3-0.2-4.7 2.6-3.4 1.3-0.7 7.3-1.8 11.8 1.2 2.2 0.9 1.8 1.2 1.8 3.6 0.3 1.6 0.1 1.4-0.4 1-0.4 2.3z" id="SI162" name="Horjul">
  </path>
  <path d="M793.1 146.1l6.5 0.9-2.9 8.4 5.3 8.1-8 5.6-1.4 0.2-1.9-0.2-0.7-1-4.8-2.6-2.6-9.8 0.8-1.5 1.2-2 3.4-2.5 1.5-0.7 3.6-2.9z" id="SI153" name="Cerkvenjak">
  </path>
  <path d="M378.9 336.7l19.9-6.4-4 5.6-1.4 4.1-0.5 7-8.5-3.6-5.5-6.7z" id="SI186" name="Trzin">
  </path>
  <path d="M866.6 80.2l-5.9 7.4-1.7 0.1-1.7 2.6-0.8 0.9 0.9 8.9-7.9 3.2-2-0.7-10.4 0.5-4.6-1.9-2.4-1.9-2.6-0.8-2.5-1.2-2.1-2.1-0.5-1.4-1.2-3 0.9-3.9 0.4-2.7-0.6-8.7 2.3-3.4 5.4-0.3 2.6 0.5 1.8 0.7 2.2-0.8 2-1.5 4.3-8.5 2.7-17.6 3.9 1.2 1.3 1.8 1.8 1.8 1.1 3.2 5.5 5.4 2.2 0.7 1.9 1 1.2 1.4 0.6 3.5-3.1 8.3 1.2 2.1 3.8 5.2z" id="SI097" name="Puconci">
  </path>
  <path d="M842 43.1l3.2 1.5-2.7 17.6-4.3 8.5-2 1.5-2.2 0.8-1.8-0.7-2.6-0.5-5.4 0.3-3.3-2.5-0.2-2.4 1.3-17 4.7-1.1 1.6-1.6 4.1-3.3 2-0.7 7.6-0.4z" id="SI158" name="Grad">
  </path>
  <path d="M857.4 100.1l3.7 7.6 0.2 3.2 1.7 2.1 1.6 1.5 6.4 3.3 4.3 0.8-10.2 10.2-3.8 1.6-2.8 4.3-6.3 4-11.6-5.6-2.9-2 2.9-5.5 0.7-2.9-1.2-2.9-1.4-2.4-1.6-2.1-1.1-4.2-0.4-2.2 1.5-5.8 10.4-0.5 2 0.7 7.9-3.2z" id="SI080" name="Murska Sobota">
  </path>
  <path d="M785.2 165.5l4.8 2.6 0.7 1 1.9 0.2 1.4-0.2 8-5.6 6 9.4-7 2.1-3.4 2.3-2.7 1.2-2.2 2-1.4 1.9-0.7 6.1-5.4-7.1 1.6-6.2-0.1-1.6-0.4-2-0.6-1-1.8-1.9 1.3-3.2z" id="SI182" name="Sveti Andraž v Slovenskih Goricah">
  </path>
  <path d="M334.1 406.1l1.5-3.2 1.4-3-0.9-5.6 1.8-3.6 2.1-2.2 3.3-1.2 0.4-2.1 0.1-1.5-0.7-1.9-3.3-3.4 6.4-1.5 1.5 0.4 4.7 2.4 4.1 5.4 3.6 2.7 0.6 1.8-1.7 2.3-2.4 2.4-2.1 3-0.2 2.8 2.8 2.4 4 10.8 0 4.6 1.4 6.8 0.9 6.1 6.7 10.4-13.8 7.2-1.9 0.3-5.3-3.3-3-8.6 0.8-3.1 0.5-4.4 0.9-5.4-0.5-1.5-1.7-1.2-1.6 0-2.8-1.9-2.2-2.3-4.1-5.3-1.3-5.6z" id="SI008" name="Brezovica">
  </path>
  <path d="M322.4 350.9l2.4 3.3 1.4 1.4 3.6 1.5 6.2-2.8 10.5 3 1.9 0.1 1.7 0.7 0.9 1.1 2.4 6.4 0.7 1 0.7 1.8 0.8 2.5 0.3 3.9-0.2 2-0.2 1-3.1 1.9-4.7-2.4-1.5-0.4-6.4 1.5-5.3 2-2.1 2.8-3.8 2.1-1.3 0.7 0.4-2.3 0.4-1-0.1-1.4-0.3-1.6-1.8-3.6-1.8-1.2-2.2-0.9-11.8-1.2-7.3 1.8-1.3 0.7-2.6 3.4 0.2 4.7-15.5-1.9 0.7-4.1-1.7-1.4 5.7-9.2 0.2-2.8 0.8-2.8 0.3-6.1 6-4.9 10.2-2.7 16.6 3.4z" id="SI021" name="Dobrova-Polhov Gradec">
  </path>
  <path d="M275.4 317.1l3.3 0.5 3.6-0.8 5.3-0.3 2.5 0.7 1.8 1.7 1 1.8-2.3 4.9-1.8 1.6-1.4 2.6-0.7 2-0.2 1.3 1.2 1.3 0.5 1.3 0.2 2-1.2 1.9-0.8 2.3-0.1 3.7 0.3 3.6 2.1 2.2 0.9 3.7-0.3 6.1-0.8 2.8-0.2 2.8-5.7 9.2-6.1-5-2-2.1-3.6-4.6-1.7-1.5-3.1-1.4-23-5-3.3 0.7-1.6 0.7-0.9 3.6-1.9-2.5-0.5-1.3 0.8-4.4 0.9-3.7 13.3-23.5 6-4 0.9-1.1 18.6-3.8z" id="SI027" name="Gorenja vas-Poljane">
  </path>
  <path d="M283.6 381.5l1.7 6.9 2.8 0.8 6.9 4.6-0.4 0.8-2.5 1.7-1.3 5.7 0.5 3.1-1.3 2.4-0.5 2.1 1 1.9 1.3 0.8 1.4-0.1 1.8 0.9 2.6 1.8 6.2 6.3 7.3 9 3.9 9-6.6 16.4-15.7-6.9-6.4-4-6-1.3-15.3 2.8-1.5-4.1-3.4-9.4-1.4-2-1-3.2-0.1-3.1 0.4-3.7 2-3.9 1.8-4.9 0.3-4.2-0.5-1.8-1.3-0.5-0.3-0.9 0.6-1.6 2.9-2.3 2.3-2.4 2.5-3.2 0.4-5.6 9.3-6 4.6-7.4 1.7 1.4-0.7 4.1z" id="SI064" name="Logatec">
  </path>
  <path d="M763.8 180.5l0.7-4 0.9-1.7 0.6-2.4 0.9-1.7 0.6-1.3 0.1-0.4 1.6-1.8 3.2-1.8 2.3-1.8 9.2 5.1 1.8 1.9 0.6 1 0.4 2 0.1 1.6-1.6 6.2-11.7 1.8-6-0.1-3.7-2.6z" id="SI185" name="Trnovska vas">
  </path>
  <path d="M754.9 185.2l8.9-4.7 3.7 2.6 6 0.1 11.7-1.8 5.4 7.1-0.9 2.8-6.3 4-4 4.4-0.9 1.6-1.4 1.2-2.2 0.6-2.3-0.5-4.3-2.7-7.1-9.6-6.3-5.1z" id="SI018" name="Destrnik">
  </path>
  <path d="M722 197.8l2.1 2.1 1.9 4.3 0 1.4-0.4 1.2 3.6 6.3-13.6 8.3-5.7-6.3-4.1-2-3.4-1.1-0.4-1.5-24-14.3-2.6-2.4-0.1-0.9-0.5-2.8 7.3 0.9 4.5 1.9 7.5 0 6.9 3.3 3 2.5 2 0.9 1.4 0.3 5-0.2 2-0.3 1.1-0.5 6.5-1.1z" id="SI098" name="Race-Fram">
  </path>
  <path d="M728.8 181.8l1.4 3.9 0.4 0.8 0.9 0.8 2.3 0.9 1.8 0.9 7.2 7.5 4.2-0.6 1.6 0.5 0.9 0.5 4 5.1-3.8 2.3-0.5 1.8 0.6 3.1-1.6 2.5-5.2-1.4-3.6 1.6-5.1-0.6-5.1 1.7-3.6-6.3 0.4-1.2 0-1.4-1.9-4.3 4.6-6.1-0.8-2.4-0.7-2.5-1.2-2.3 0.3-1.3 2.5-3.5z" id="SI115" name="Starše">
  </path>
  <path d="M491.3 304.1l5.8-3.4-13.1-9.1 3.7-5.7 0-1.9 0.8-1.9 2.1-0.6 3.1-0.2 2.1-1.5 5.8-2.4 1.3-1.4 0-1.6 1.3-0.8 0.7 0.2 3.8-0.2 11.4 10.8-10.1 16.5-0.7 2.8-0.5 5.8-9.6 2.4-2.1-0.7-4.3-3.2-1.5-3.9z" id="SI189" name="Vransko">
  </path>
  <path d="M543 213.9l0.9-3.2 1.8 0.1 3.8 1.3 3.4 3.7 9.1 3.8 1.9 0.2 2.4 0.6 1.6 0.8 0.2 2.8-0.2 1.8 0.1 1.7 4.2 2.3 3.1 11.7 1 2.8 0.5 3.4 0 1.6-2.9 5.9-4.2 1.1-6.7-4.6-3.6 0.1-2.3 1.3-2 2.1-2.4 4.5-3.6-2.5-2.3-4-4.4-3.1-1.7-2.7-4.2-2.2 0.9-8.4 3.6-6 1.6-5.8 0.4-11.1z" id="SI133" name="Velenje">
  </path>
  <path d="M536.5 245.2l4.2 2.2 1.7 2.7 4.4 3.1 2.3 4 3.6 2.5-0.4 9.8-0.9 2.5-2.2 4.3-1 2.5 0.8 2.2-1.7 4.6-2.6-1.1-12.7-20.7 2-3 0.4-4.3 0.2-5.2 1.9-6.1z" id="SI173" name="Polzela">
  </path>
  <path d="M517.2 234.5l4 5.4 7.3 3.7 8 1.6-1.9 6.1-0.2 5.2-0.4 4.3-2 3-4-7.2-8.3-5.3-2.4-5.4-0.5-2.5 0.4-8.9z" id="SI125" name="Šmartno ob Paki">
  </path>
  <path d="M478.8 260.3l4.2-9.2 0.1-6.2 1.6-4.9 2.8 2 3.8 2.1 2.2-0.9 1.5 1.9-0.4 3.4 2.2 1.2 1.8 2.4 1.5 3.9 0.9 1.9-5.5 4.7-13.8 3.8-2.9-6.1z" id="SI209" name="Rečica ob Savinji">
  </path>
  <path d="M612.8 239.6l-18.3 0-10.2-11.5 6.2-9 3.8-9.7 1.9-2.5 2.1-1.5 4.9-1.3 7.8-0.6 2.7 1.8 0.8 0.5-0.1 0.9-1.5 0.8-1.3 1.1-0.7 1.7 0.2 2.5 4.3 7.4 2.5 2.2 2 1.4 0.8 2.2-0.5 3.9-0.8 2.2-6.6 7.5z" id="SI137" name="Vitanje">
  </path>
  <path d="M594.5 239.6l18.3 0 1.7 2.8 0.5 3.8 3.2 3.3 5.5 3.1-1.3 4.1 0.4 1.1 0.6 1.7 0.6 0.8 1.9 1.8-0.9 4.5 0.8 0.8 1.1 1.6-0.6 2.1-1.1 1.2-1.3 1.9-1.7 0.9-1.5 8.2-9.5-4.9-1.3-0.5-1.9-0.2-1 0.6-1.5 0.1-1.2-0.7-2.8-2.6-1.4-3.7-4.9-7.6-8.7-5.6 5.5-6.3 0.4-1.1 0.3-1.8-0.2-1.5 0.1-2.6 0.6-1.4 1.3-1.2 0.5-0.7-0.5-2z" id="SI139" name="Vojnik">
  </path>
  <path d="M608.3 190.6l5.6 2 1 5 2.1 2.5 2 2.9 4.5 2 4 2.9 4.7 1.2 7 5.6-1.7 3-0.6 2.1-0.7 2-0.7 0.9 0 1.3 1.5 1.9 1.2 1.9-0.5 1.2-0.7 1.2-1.5 1.6-0.2 1.2 4.7 4-3.8 6.9-1.3 0-1.8-0.9-2.2-0.6-1.7 0.9-1.7 1.9-3.8 7.4-5.5-3.1-3.2-3.3-0.5-3.8-1.7-2.8 6.6-7.5 0.8-2.2 0.5-3.9-0.8-2.2-2-1.4-2.5-2.2-4.3-7.4-0.2-2.5 0.7-1.7 1.3-1.1 1.5-0.8 0.1-0.9-0.8-0.5-2.7-1.8 0.6-3-0.7-1.9-2-2.8-0.6-5.2z" id="SI144" name="Zrece">
  </path>
  <path d="M607.3 186.3l1 4.3 0.6 5.2 2 2.8 0.7 1.9-0.6 3-7.8 0.6-4.9 1.3-2.1 1.5-1.9 2.5-3.8 9.7-6.2 9-12.1 1.7-4.2-2.3-0.1-1.7 0.2-1.8-0.2-2.8-1.6-0.8-2.4-0.6-1.9-0.2-9.1-3.8 3.3-9.2 1.4-0.3 0.8 0.1 0.5-0.3 1.5-1.9 0.5-4.4 3.1-3.2 7-10.1 2.7-8 7.8 5.9 4.5 1 5.8-0.4 15.5 1.3z" id="SI076" name="Mislinja">
  </path>
  <path d="M488.1 304.9l3.2-0.8 1.5 3.9 4.3 3.2 2.1 0.7 9.6-2.4 8.4-0.5 3.7 7-1.3 1.2-1.1 0.8-3.4 1.7-1.8 1.9-0.1 0.8 0.5 0.1 1-0.6 1.2-0.3 1.1 0.3 4.1 5 3.9 6.6 1.2 3.6 0.1 2.3-0.8 1-1.2 1.2-0.7 0.6-2.1 1.1-0.5 0-0.4-0.1-3.4-1-6.8 2.9-2.3 1.5-2.7 3.1-1 0.9-1.2 0.7-1.3 0.5-4.7 0.9-3.5 0-1.1 0.1-1 0.4-0.9-0.3-1.3-0.9-3.2-5.5-0.2-2 0.4-1.4 0.3-1.9-0.1-1.3-1-1.3-2.5-0.6-12.2-0.1-1.3-3.1 1.4-1.8-0.1-1.6 0.3-1.6-3.5-4.7-1-2.4-1.9-1.1-0.4-0.8 0.9-0.6 18.9-2.2 2.1-0.8 2.6-4.9-0.8-7.4z" id="SI142" name="Zagorje ob Savi">
  </path>
  <path d="M469.6 334.8l1.3 3.1 12.2 0.1 2.5 0.6 1 1.3 0.1 1.3-0.3 1.9-0.4 1.4 0.2 2 3.2 5.5 1.3 0.9 0.9 0.3 1-0.4 1.1-0.1 3.5 0 4.7-0.9 1.3-0.5 1.2-0.7 1-0.9 2.7-3.1 2.3-1.5 6.8-2.9 1.4 8.4-0.8 2.4-1.2 2.1-1.4 1.2 0.1 1.7 0.6 2.4 0.4 3.1 1.4 2.7 0.2 2.2 4.2 1.2 2.9-0.4 12.9-4.3 1 4.7 0.9 2 4.6 3.4-0.2 4 6.5 11-3.9-0.3-0.6-0.6-0.9-0.2-2.3 0.2-2.9 2.1-7-0.3-4.2 0.7-0.7 2.7-0.4 3.4-1.3 3.4-0.4 0.6-1.9 2.4-7 2.5-0.1-0.1-5-3.3-4-0.9-4-0.2-1.3-7.8-4.1-10.1-6.6-6.2-6.8-8.9-6.8-6.4-6.2-1.3-11.1 5.6-15.6-2.8-4.5 0.3-3.2-1.6-0.5-1.6-3.2-2.5 9.3-4.7 1.6-1.1 1.1-2.9 15.1-6.3 8.3-9z" id="SI060" name="Litija">
  </path>
  <path d="M475.3 286.5l-12.5-0.6-6.5 0.5-10.3-0.5-11.3-3.7-2.9-2.8 0.5-7.1 7.4-10 14.3-11.6 4.8-2 1 1 2.8 1.6 10.8 8.8 5.4 0.2 2.9 6.1-1.4 5.3-2.9 3.9-1.3 4.3-0.8 6.6z" id="SI030" name="Gornji Grad">
  </path>
  <path d="M366.7 496.3l-19.6 15.6-7 1.1-16.9-13.4-1.3-5.9-6.9-1.3-3.4-2.3-5.2-5.6-3.2-5.9 0.3-4.5 5.7-14.8-0.8-3.7 6.6-16.4 2.9-2.3 4.7 1.6 11.3 8.3 3.3-1.7 2.4 2.7 1.2 0.8 1.3 1.1 1.9-0.3 1.8-2.6 3.3-1.4 5.3 3.3 1.9-0.3 13.8-7.2 2.3 4.4-0.6 3.4 0.3 4.3 2.3 4.5-3.5 2.2-2.7 1.1-7.6 6.5-1.9 2.2-1.3 2.1-1.1 2.6 0 2 1.2 2.7 4.9 5.7 5.1 4 1.6 0.7 1 1.8 0.7 1.6-4.1 3.3z" id="SI013" name="Cerknica">
  </path>
  <path d="M374.4 457.8l-2.3-4.5-0.3-4.3 0.6-3.4-2.3-4.4 5.1-1.5 6.6 2.4 3.4 2.6 2.1 0.8 1.5 1.1 2 0.3 2.4-0.2 3.2-2.8 1.5-3.3-0.3-5.8 1.8 0.6 0.6-0.9 0.2-1.9 1.9-3 5.9 5.9 1.3 3.5 4.1 4.7 0 5-0.3 1.7-0.6 2 0.5 1.9 1.8 0.3 1.9 0.9 5.1 3.8 5.3 8-5 1.5-4.6 3.8-7.7 2.8-11.8 2-6.5 1.4-10-9.4-7.1-11.6z" id="SI134" name="Velike Lašče">
  </path>
  <path d="M337.2 445.1l-3.6-4.5-1.8-2.8-5.8-15.1-0.9-3.7-0.1-3.7 1.1-4.7 1.1-1.3 0.8-1.4 6.1-1.8 1.3 5.6 4.1 5.3 2.2 2.3 2.8 1.9 1.6 0 1.7 1.2 0.5 1.5-0.9 5.4-0.5 4.4-0.8 3.1 3 8.6-3.3 1.4-1.8 2.6-1.9 0.3-1.3-1.1-1.2-0.8-2.4-2.7z" id="SI005" name="Borovnica">
  </path>
  <path d="M265 446.2l15.3-2.8 6 1.3 6.4 4 15.7 6.9 0.8 3.7-5.7 14.8-0.3 4.5 3.2 5.9 5.2 5.6 3.4 2.3 6.9 1.3-14.9 8-4.3 3.3-10.7 4-5.2 0.3-8.5 4-6.4 1.3-4.6 0-4.9-1.3-6.8-3.1-3.3-8.3-2.8-3.7-10.1-7.3 1.8-5 1.5-2.1 1-7.8 1.9-4.9-3.7-11.7 13.6-4.9 1-1.3 8.5-7z" id="SI094" name="Postojna">
  </path>
  <path d="M340.1 513l2.1 7.5 6.7 7.7 2.6 3.7 0.1 7.3-13.7-3.3-2.7-3.2-6.3-5.1-4.3 0.1-1.2 0.5 0.7 1.3-0.7 1.5-3.3 1.8-9.1 1.8-11.2 4.5-2.5 1.5-3.2 3-3.2 0.8-6.2 0.8-12.2-0.8-7.1 0.4-4.9 1.8-2.2 1.4-3.5-0.6-3.1-1.6-0.1-0.7 1-2.4-1.5-4.1-1.5-3.1-1-2.8-0.2-5.7-1.1-2.5-0.6-2.8 0.6-3 2-3.7 3.3-1.6 3-3.2 6.8 3.1 4.9 1.3 4.6 0 6.4-1.3 8.5-4 5.2-0.3 10.7-4 4.3-3.3 14.9-8 1.3 5.9 16.9 13.4z" id="SI091" name="Pivka">
  </path>
  <path d="M573.9 255.2l2.9-5.9 0-1.6-0.5-3.4-1-2.8-3.1-11.7 12.1-1.7 10.2 11.5 0.5 2-0.5 0.7-1.3 1.2-0.6 1.4-0.1 2.6 0.2 1.5-0.3 1.8-0.4 1.1-5.5 6.3-4 1.3-8.6-4.3z" id="SI155" name="Dobrna">
  </path>
  <path d="M604.2 313.2l-10.6-2.1-2.1-1.4-2.5-0.1-5.7 2.3-2.1-0.2-1-0.3-0.5-2.1 2.2-15.8-0.4-3.2-0.9-5.2-0.2-1.6 0.5-0.9 0-0.5-0.7-2.9 0.3-1.5 1-3 1-1.8 0-13.4 4-1.3 8.7 5.6 4.9 7.6 1.4 3.7 2.8 2.6 1.2 0.7 1.5-0.1 1-0.6 1.9 0.2 1.3 0.5 9.5 4.9-0.7 4-1.3 1.7-2.3 2.1-1.2 5.3-2.1-0.2-1.3 0.5-1.7 0.8-2.2 1.6-1.7 1.8 0 7.9 0.5 2.3-2.5 2.1z" id="SI011" name="Celje">
  </path>
  <path d="M484 291.6l-8.7-5.1 0.8-6.6 1.3-4.3 2.9-3.9 1.4-5.3 13.8-3.8 5.5-4.7 1.2-1 1.7-0.9 1.8 0.5 1.8 2.5 1.2 6.6 0 8-3.8 0.2-0.7-0.2-1.3 0.8 0 1.6-1.3 1.4-5.8 2.4-2.1 1.5-3.1 0.2-2.1 0.6-0.8 1.9 0 1.9-3.7 5.7z" id="SI083" name="Nazarje">
  </path>
  <path d="M398.9 313.1l5.6 0.2 6.5-3.6 2.1-2.1 1.8-1 1.9-0.6 1.7-0.2 7.3 3.1-5.7 5.6-3.2 6.4-0.5 2.4 0.3 1.3 1 0.2 1 0.7 0.8 1.2 0.9 1.1 1 0.6 2.4 0.7 2.2 2.8-2.7 2.1 0.2 2.6 1.2 0.8 1.2 1 1.7 1.1-0.6 3.5-6-0.1-3.9 1.9-6.9 4.5-3.4 1.6-6.7 0.7-0.5-3.7-6.7-0.9 0.5-7 1.4-4.1 4-5.6-1.7-11.9 1.8-5.3z" id="SI023" name="Domžale">
  </path>
  <path d="M442.2 392.5l2.8-1.9 6.6-0.7 0.8-0.7 1.7-1 8.6 0.4 9.2 2.9 3.8 0.3 2-0.3 0.2-1.5 0.6-0.9 1.6 0.5 1.8 1.3 8.1 12.1 6.2 4.2-5.3 5.7-5.8 3.2-1.9 3.7-1 3.1-1.3 10.9-1.5 4.7 0.7 4.1 1.7 3.3-0.2 5.2-7.5 1.4-0.9 1.1 0 2.5 0.8 2.1 1.7 6.1-0.1 7.2-2 3.4-3.4 1.5-3.6-0.8-5.8 0.1-5.7-4.4-0.9-2.8-3-3.3-2-3.6-1.6-2.3 0.5-5.7 2-5.3 0.2-1.2-4.7-6.9-1.3-3.8 0-1.9 0.8-2.5 0.1-2-4-7.9-0.6-3.4-0.6-2.5 0.4-1.4-0.2-1-1.2-1-3-1.1-1.1-0.2 0.8-5.5 4.5-6.8 2-6.7z" id="SI039" name="Ivancna Gorica">
  </path>
  <path d="M346.5 357.3l6.4-4.7 1.5-0.6 0.6-0.7-0.8-1.5-1.2-1.5-0.9-1.8-0.9-2.8-1.2-0.8 0.2-0.9 0.4-1.4 1.2-1.5 1.9-0.7 3.7 0 4.1-2.4 2.6-3.9 2 1.9 3.1-0.3 7.8-2.5 1.9 5.5 5.5 6.7 8.5 3.6 6.7 0.9 0.5 3.7 0.5 3.4 5.7 3.5 5 1.3 7.1-0.4 5.9-2 1.7 0.4 2.4 1.6 5.8-0.6 3.2 2.5 0.5 1.6 3.2 1.6-0.9 3.1 0 1.8-0.5 1.3 1.8 2.4 1.8 2 1.4 2.5 0.8 2.5-1.1 2.3 0.6 8.2-2.8 1.9-4.4-2.3-2.7-2.3-1.6-0.8-2.5 0.1-4.2 2.4-1.2 2-1.6 1.7-4.7 2.7-8.7 0.3-4.1-3.1-8.5-7.8-6.9-1.5-6.1 1.1-1.8 1.4 0.2 3.8-0.9 5.6-5.7-3.2-3 0.2-6.5 2.3-1.8 3.7-8.4 3.7-2.8-2.4 0.2-2.8 2.1-3 2.4-2.4 1.7-2.3-0.6-1.8-3.6-2.7-4.1-5.4 3.1-1.9 0.2-1 0.2-2-0.3-3.9-0.8-2.5-0.7-1.8-0.7-1-2.4-6.4-0.9-1.1-1.7-0.7-1.9-0.1z" id="SI061" name="Ljubljana">
  </path>
  <path d="M441.1 364.5l4.5-0.3 15.6 2.8 11.1-5.6 6.2 1.3 6.8 6.4 6.8 8.9 6.6 6.2 4.1 10.1 1.3 7.8-4.3 3.7-3.6 1.4-6.2-4.2-8.1-12.1-1.8-1.3-1.6-0.5-0.6 0.9-0.2 1.5-2 0.3-3.8-0.3-9.2-2.9-8.6-0.4-1.7 1-0.8 0.7-6.6 0.7-0.6-8.2 1.1-2.3-0.8-2.5-1.4-2.5-1.8-2-1.8-2.4 0.5-1.3 0-1.8 0.9-3.1z" id="SI194" name="Šmartno in Litiji">
  </path>
  <path d="M370.1 441.2l-6.7-10.4-0.9-6.1-1.4-6.8 0-4.6-4-10.8 8.4-3.7 1.8-3.7 6.5-2.3 3-0.2 5.7 3.2 6 7.4 1.7 7.2 0.5 4.8-1.4 9.3 1.1 1.1 0.9 1.5 0.4 1.9-0.1 2.3 0.6 1.2 5.4 2.3 0.3 5.8-1.5 3.3-3.2 2.8-2.4 0.2-2-0.3-1.5-1.1-2.1-0.8-3.4-2.6-6.6-2.4-5.1 1.5z" id="SI037" name="Ig">
  </path>
  <path d="M446.2 350.1l-1.1 2.9-1.6 1.1-9.3 4.7-5.8 0.6-2.4-1.6-1.7-0.4-5.9 2-7.1 0.4-5-1.3-5.7-3.5-0.5-3.4 6.7-0.7 3.4-1.6 6.9-4.5 3.9-1.9 6 0.1 4.7 2.4 3.6 0.7 1.6 1.5 1.4 2.5 2.4 0.5 5.5-0.5z" id="SI022" name="Dol pri Ljubljani">
  </path>
  <path d="M544.7 284.5l2.6 1.1 5.7 5.6 4 2.3 1.5 1.9 0.2 0.6-0.9 0-0.7 0.1-0.7 1.2-0.4 2-0.1 6.4-0.4 3.5-0.5 1.4-0.7 1.1-0.9 0.9-1.1 0.7-0.9 0.3-2.1 0.2-9.7 1.3-9.4-3.8 1.9-5.9 0.3-1.6-0.4-6.1 4.5-1.9 8.2-11.3z" id="SI174" name="Prebold">
  </path>
  <path d="M426 331.9l7.9-3.3 5.4-4.3 12.2-2.6 9.3 1.3 6.9 2.1 3.5 4.7-0.3 1.6 0.1 1.6-1.4 1.8-8.3 9-15.1 6.3-5.5 0.5-2.4-0.5-1.4-2.5-1.6-1.5-3.6-0.7-4.7-2.4 0.6-3.5-1.7-1.1-1.2-1-1.2-0.8-0.2-2.6 2.7-2.1z" id="SI077" name="Moravce">
  </path>
  <path d="M463.5 492.2l-5.2 6.1-31.2-31-5.3-8-5.1-3.8-1.9-0.9-1.8-0.3-0.5-1.9 0.6-2 0.3-1.7 0-5 5.6-3.5 1.4-2.2 2.1-0.6 1.8 0.6 2 1.2 11 3.9 2.4 0 5.9-2.9 4.7 6.9-0.2 1.2-2 5.3-0.5 5.7 1.6 2.3 2 3.6 3 3.3 0.9 2.8 5.7 4.4-0.6 7.2 0.5 2 2.8 7.3z" id="SI020" name="Dobrepolje">
  </path>
  <path d="M564.4 353.3l11.1 13.2 0.8 3.2 0.6 0.9 1 0.8 2.4 0.6 1 0.5 0.9 0.5 2.3 2 1.1 0.6 0.7 0.9 0.3 1.3-1.6 1.3-4.1 0.4-22-5.4-14.5 0.9-4.6-3.4-0.9-2-1-4.7 5-1.3-0.3-4.1 2.8-0.8 1.3-0.7 1.2-5.1 6.4 3.1 10.1-2.7z" id="SI099" name="Radece">
  </path>
  <path d="M622.1 316.3l-14.7 6.3-5.4 0.3-1.1-0.8-0.3-1.1 0.6-0.8 1.2-0.6 1.1-1 0.7-1.4 0.5-1.2-0.5-2.8 2.5-2.1-0.5-2.3 0-7.9 1.7-1.8 2.2-1.6 1.7-0.8 1.3-0.5 2.1 0.2 6.4 2.8 0.6 1.5 0.8 2.4-0.7 2.6-0.2 10.6z" id="SI127" name="Štore">
  </path>
  <path d="M625.9 262.1l-1.9-1.8-0.6-0.8-0.6-1.7-0.4-1.1 1.3-4.1 3.8-7.4 1.7-1.9 1.7-0.9 2.2 0.6 1.8 0.9 1.3 0 3.8-6.9 8.2 4.7 2.2 0.8 12-0.6 6.2 3.8 2.3 0.2 2.5 2.2 1.9 4.6 0.4 1.8 1.7 8.7 0.8 6.3-1.5 6.6-6.5 0.5-5.2-2.6-1.7 0.8-1.8 0.3-29.9-9.1-5.7-3.9z" id="SI114" name="Slovenske Konjice">
  </path>
  <path d="M237.3 361.4l0.9-3.6 1.6-0.7 3.3-0.7 23 5 3.1 1.4 1.7 1.5 3.6 4.6 2 2.1 6.1 5-4.6 7.4-9.3 6-8-2.9-0.7-1-0.9-1.5-1.4-3.6-1.2-2-1.9-0.1-2.4-1-8-11.7-6.9-4.2z" id="SI147" name="Žiri">
  </path>
  <path d="M640 237l-4.7-4 0.2-1.2 1.5-1.6 0.7-1.2 0.5-1.2-1.2-1.9-1.5-1.9 0-1.3 0.7-0.9 0.7-2 0.6-2.1 1.7-3 5.2 2.4 3.1 3.8 0.9 1.8 0.9 2.3 0.8 0.9 0.9 0.4 1.5-0.3 2.1-0.1 4.1 1.2 1.3 1 0.3 1.1-0.5 3.8 0.8 3.8 1.8 5.1-12 0.6-2.2-0.8-8.2-4.7z" id="SI171" name="Oplotnica">
  </path>
  <path d="M198.3 363.7l3.5-2.4 0.2-1.3-0.4-2.7-0.7-2.4-0.7-3.6 0-3.3-0.5-3.3-2.7-4.8-1.2-4.1 0-2.3 1-3.3 1.1-2.6 3.8-3.9 4.9-3 9.9-3.1 9-6.8-0.3 3.5 0.1 2.3 1.5 1.1 2.7 1 10.9 1 7.7 2.5 1.8 3.8-13.3 23.5-0.9 3.7-0.8 4.4 0.5 1.3 1.9 2.5 0 2.9-1.6 0.7-1.5 0.2-2.9-0.3-2.7-1.1-5.2-3.6-5-4.5-1.3-0.2-0.3 0.8-0.2 1.4-0.4 1.1-2.2 2.1-1.2 1.9-1.6 0.3-1.2-0.1-1.3-1-1 0.2-0.3 0.9 0 1.4-0.8 1.8-2.8 0.2-1.7-0.5-3.8-2.3z" id="SI014" name="Cerkno">
  </path>
  <path d="M184.7 232.8l20.3-10.9 8.4-7.7 3.8-2.6 3.5-1.8 2-2.5 3.7-1.1 23.2 12.7 2.2 1.9 1.6 3.7-0.8 3.8-1.1 8.8-5.7 4.3-3.4 2.8-4.5-0.6-6 0.6-5.6 0-2.8 2.6-5.2-1.9-4.9-3.1-13.8-2.8-5.9 0-9-6.2z" id="SI207" name="Gorje">
  </path>
  <path d="M180.7 460l-3.1-4.9-0.7-1-4.6-2.6-1.2-1-0.8-1.7-0.9-1-1-1.6-1.2-1.6-5.3-5.2-3.9-2.5-2.4-2.9-2.3-1.5-1.5-0.6-0.3-1 4-2.9 1.9-0.6 6.1-7.4 7.1-12 13-9.5 0-4 2.4-3.6 3.9 5.5 0.3 1.7 1.8 1.9 2.9 1.9 5.2 2.7 6.5 7.6 7 5.9 3.8 1.2 2.8 2.5 5.7 3.7 3.7 3.8 11.4 8.1 22.5 4.7 1.5 4.1-8.5 7-1 1.3-13.6 4.9-7-4.6-1-3-1-4.1-2.8-3.2-2.2-1.2-3.1-0.8-3.8 0.2-4.9 1.5-7 4.2-3 3.3-4.2 2.6-4.5 3.6-1.7 5-6.4 1-1.6-0.2-7-3.7z" id="SI001" name="Ajdovščina">
  </path>
  <path d="M210.8 539.8l1.6-7.7-2.1-3.8 7.5-11.4 1.6-3-0.8-3.7-1.6-3.3-1.2-4.6 0.3-2.7 2.3-1.9 3.2-1.7 4.1-6.8 3.7-2 0.8-0.6 2 0.1 1 0.2 6.2 4 10.1 7.3 2.8 3.7 3.3 8.3-3 3.2-3.3 1.6-2 3.7-0.6 3 0.6 2.8 1.1 2.5 0.2 5.7 1 2.8 1.5 3.1 1.5 4.1-1 2.4 0.1 0.7 3.1 1.6-0.2 4.2-3.7 1.7-1.5 2.6-1.6 1.1-2 0.5-5.7-1.1-4.3-3.8-5.4-2.6-5.3-3.8-4.7-2.5-6-1.2-3.6-2.7z" id="SI019" name="Divaca">
  </path>
  <path d="M189.9 388.9l0.6-7.9 0-2.4-0.2-2.3 0.3-1.5 1.3-0.1 0.5-0.8-0.2-1.6-0.8-1.3-1.8-1-0.8-1.3-0.3-1.3 0.8-1.9 1.1-0.7 2.7 0.9 1.5-0.2 1.2-1.4 0.4-0.9 2.1 0.5 3.8 2.3 1.7 0.5 2.8-0.2 0.8-1.8 0-1.4 0.3-0.9 1-0.2 1.3 1 1.2 0.1 1.6-0.3 1.2-1.9 2.2-2.1 0.4-1.1 0.2-1.4 0.3-0.8 1.3 0.2 5 4.5 5.2 3.6 2.7 1.1 2.9 0.3 1.5-0.2 1.6-0.7 0-2.9 6.9 4.2 8 11.7 2.4 1 1.9 0.1 1.2 2 1.4 3.6 0.9 1.5 0.7 1 8 2.9-0.4 5.6-2.5 3.2-2.3 2.4-2.9 2.3-0.6 1.6 0.3 0.9 1.3 0.5 0.5 1.8-0.3 4.2-1.8 4.9-2 3.9-0.4 3.7 0.1 3.1 1 3.2 1.4 2 3.4 9.4-22.5-4.7-11.4-8.1-3.7-3.8-5.7-3.7-2.8-2.5-3.8-1.2-7-5.9-6.5-7.6-5.2-2.7-2.9-1.9-1.8-1.9-0.3-1.7-3.9-5.5 3.9-2z" id="SI036" name="Idrija">
  </path>
  <path d="M200.5 470.5l-4.8-7.6 1.7-5 4.5-3.6 4.2-2.6 3-3.3 7-4.2 4.9-1.5 3.8-0.2 3.1 0.8 2.2 1.2 2.8 3.2 1 4.1 1 3 7 4.6 3.7 11.7-1.9 4.9-1 7.8-1.5 2.1-1.8 5-6.2-4-1-0.2-2-0.1-0.8 0.6-3.7 2-1.8-3.3-15.1-8.4-8.3-7z" id="SI136" name="Vipava">
  </path>
  <path d="M394.9 501.5l-5.9 0.2-1.6-1.4-3.6 1.6-2.3 1.7-1.3 0.5-4.9-0.9-8.6-6.9 4.1-3.3-0.7-1.6-1-1.8-1.6-0.7-5.1-4-4.9-5.7-1.2-2.7 0-2 1.1-2.6 1.3-2.1 1.9-2.2 7.6-6.5 2.7-1.1 3.5-2.2 7.1 11.6 10 9.4-3.2 3.7 3.7 6 1 3 0.1 3 1.8 7z" id="SI150" name="Bloke">
  </path>
  <path d="M674.7 327.2l-2.8 10.4-5.2 3.6-3 3.8-2.4 1.3-2.1-0.4-1.2-0.7-1.8-0.3-0.9 1.9-0.6 2.5 2.9 6 1.8 8.3-21.4 1.9-14.4-3.7 2.5-4.9 0.8-2.2-0.3-3.6 1.1-4.3 2.1 0.3 1.2-0.3 1.2-0.6 2.1-2.4 2.4-2 0.5-0.9 0.3-1 1-0.4 0.8 0.7 1.2 1.5 1.3 0.9 1.2 0.1 0.4-0.7 0.4-1.2 0.1-1.3 0.4-1.2-0.5-1.3-1-1.4-2.7-1.6-1.1-1-2.5-3.3-0.4-1.2-1.4-0.2-1.1 0.2-9.3 6.8-1.1-5.8 1.8-3.5 0.4-4-3.3-5.7 0.2-10.6 0.7-2.6-0.8-2.4-0.6-1.5-6.4-2.8 1.2-5.3 2.3-2.1 1.3-1.7 0.7-4 1.5-8.2 1.7-0.9 1.3-1.9 1.1-1.2 0.6-2.1-1.1-1.6-0.8-0.8 0.9-4.5 5.7 3.9 29.9 9.1 1.8-0.3 1.7-0.8 5.2 2.6-1.7 1.8-0.9 1.4-1.8 1.6-3.5 4.5-4.3 2.9-3.3 1.6-5.1 3.6-2.4 2.7-0.7 1-0.2 1.9 0.8 3.5 2.4 6.1 5.1 8.1 0.7 2.4 1.5 3 2.2 2.2 4 1.6 3.3-1 2.9-0.3 1.6-0.6 3.9 2.6z" id="SI120" name="Šentjur pri Celju">
  </path>
  <path d="M671.9 337.6l3.1 2.7 3.6 0.8 4.8 4.1 2.6 1.4 4.2 9.4-0.9 1.5-0.3 1.5 1.1 4 2.5 1.4 3.5 10.4 1.3 1.3 2 1.5 2.1 0.8 7.1 0 1.3 2.4-12.6 9.4-7.6 3.9-4 0.2 5.8-10.1-0.6-0.9-0.7-0.8-4.1 0.5-2.1 0.8-1.7 0.1-1.3 0.5-2.3 0.3-3.2-11.3-3.1-3.5-3.7-2.8-2.1-0.2-7.2-3.3-1.8-8.3-2.9-6 0.6-2.5 0.9-1.9 1.8 0.3 1.2 0.7 2.1 0.4 2.4-1.3 3-3.8 5.2-3.6z" id="SI051" name="Kozje">
  </path>
  <path d="M680.5 277.8l5.8 15.7 3.2 4.4 2 1.2 0.9 1.1 1.8 6.6-9.9 10.4-3.3 6-6.3 4-3.9-2.6-1.6 0.6-2.9 0.3-3.3 1-4-1.6-2.2-2.2-1.5-3-0.7-2.4-5.1-8.1-2.4-6.1-0.8-3.5 0.2-1.9 0.7-1 2.4-2.7 5.1-3.6 3.3-1.6 4.3-2.9 3.5-4.5 1.8-1.6 0.9-1.4 1.7-1.8 6.5-0.5 3.8 1.7z" id="SI124" name="Šmarje pri Jelšah">
  </path>
  <path d="M638 365.5l0.5 5.5-0.2 1.5-0.8 1.9 0 3.6 0.7 3 1 3.3 1.5 2.2 0.6 2.4-0.1 2.6-1.6 2.8-9.9 10.1-5.2 7.7-2.5 6.8-4.8-4.1-1.1-2.8-2.3-1.2-2.1-0.7-3-0.5-6.1 0.4-1.8 1-0.9 0.8-0.3 1.1-0.1 1.5 0.5 2.1-0.8 2-1.3-0.2-3.9-3.6-1.8-0.1-0.7 0.5-0.1 0.9-0.5 1.3-4.9 2.7 0.1 3.2-10.1-5.4-6.6-5.8-4.2-5.4-1.2-2.4-0.9-1.7 0.3-2.6 0.9-1.7 1.3-1.7 0.4-2.3-0.8-0.7-1.3 0.2-1.4 0.6-1.5 1.2-2.4 0.8-1.8-0.9-1.2-2.2-4.9-3.2-6.5-11 0.2-4 14.5-0.9 22 5.4 4.1-0.4 1.6-1.3-0.3-1.3-0.7-0.9-1.1-0.6-2.3-2-0.9-0.5-1-0.5-2.4-0.6-1-0.8-0.6-0.9-0.8-3.2 0.9-2.3-0.3-1-0.9-1.6-2.1-2.4-0.2-1 0.3-0.6 2.8-0.6 14.5 0.1 4.3 1.6 2.3 1.5 1.2 1.9 0.5 1.5 0.4 2.4 0.9 1.2 1.4 0 3.1-2.3 4.1-1.7 14.9-1.4 14.4 3.7z" id="SI110" name="Sevnica">
  </path>
  <path d="M549.1 467.3l-0.3 0.4-2.4 0.7-1.4 2.1-2.9 1.7-9.7-7.3-1.1-1-3.3-6.1 0.1-8.3 1.6-2.5 2.1-2.4 2.9-2.2 2.9-0.7 1.2-0.2 2.4-0.7 1.6-1.9 1.5-2.7 1.1-0.7 1.1 0 0.2-0.1 1 1.3 1.8 1.4 1.5 1.7 1.8 1.1 1.4 1.4 4.8 2-2.7 10.1-1.9 1.7-1 0.5-1-0.1-0.5 0.1-0.4 0.5 0.3 1.6 0.1 1.1-0.1 1.5-0.4 1.4-0.9 2.2-0.7 1.4-0.7 1z" id="SI170" name="Mirna Pec">
  </path>
  <path d="M564 404.2l1.2 2.4 4.2 5.4 6.6 5.8 10.1 5.4-3.2 6.3-0.2 1.8 0.4 1.8 0.2 1.9-3.2 6.7-2.3 2.4-3.9 1.7-1.4 0.4-2 0.6-11.5-2.5-4.8-2-1.4-1.4-1.8-1.1-1.5-1.7-1.8-1.4-1-1.3-0.2 0.1-0.9-3.3-0.7-2.6 2.2 0 1.4 0 0-1.9 0-1.6-1.9-1.2 0-5.5 1-3.7 0.9-3.1 4.1-0.8 0.6-1.9 3-1.6 3.3-2.8 4.4-1.2 0.1-0.1z" id="SI199" name="Mokronog-Trebelno">
  </path>
  <path d="M542.1 472.2l-8.1 10.4-7.1-0.1-5.3-1.5-3.3 1-2.1 1.1-4.1 5.6-12.4-2.2-3.7 1-8.8 9.9-5.5 0.5-2.1-3.4-2.1-1.4-4.6-1.7-3.1-0.4-2.5 1.3-3.8-0.1-2.8-7.3-0.5-2 0.6-7.2 5.8-0.1 3.6 0.8 3.4-1.5 2-3.4 0.1-7.2-1.7-6.1-0.8-2.1 0-2.5 0.9-1.1 7.5-1.4 0.2-5.2 15.1-0.4 2.6 0.8 2.9 2.1 1.2 1.9 0.6 2.3 1.2 2.2 2.3 1.8 3.5 0.7 6-2.9 4.5 1.7 1.2 2.2 1.7 0.7 3.4-1.2 3.3 6.1 1.1 1 9.7 7.3z" id="SI193" name="Žužemberk">
  </path>
  <path d="M891.8 121l4.8 1.2 9.6 12.5 8.9 6.5-4.3 1-4.2-1.3-2.5 0.5-1.4 0.9-0.1 1.4-2 4.2-8-5.6-0.7-8.7-4.3-4.1 0.9-3.6-0.1-2.1 3.4-2.8z" id="SI132" name="Turnišče">
  </path>
  <path d="M809.8 143.8l-2-11.6 0.3-4.9 9.8-12.5 0.1 0 7.2 7.7 6.7 4.6 5.8 4-1.5 2.8 2 3.9-4.8 0.2-4.7 6-2 2.2-0.8 0.3-1-1.5-1.5-4.7-1.5-1.6-2-0.2-3.4 4.1-1.7 1.6-1.1 1.3-3.9-1.7z" id="SI100" name="Radenci">
  </path>
  <path d="M799.6 147l10.2-3.2 3.9 1.7 1.1-1.3 1.7-1.6 3.4-4.1 2 0.2 1.5 1.6 1.5 4.7 1 1.5 0.8-0.3 2-2.2 3.2 9.9-0.3 2.3-3.3 9.3-9.3-1.4-1.3 1.2-2 1.4-1.7 2.4-0.4 1 0.4 1.1-0.5 1.5 0 1.4-1.8 4.3-3.7-5.5-6-9.4-5.3-8.1 2.9-8.4z" id="SI116" name="Sveti Jurij">
  </path>
  <path d="M915.1 141.2l5.5 9.1-2.3 1.4-1.9 2-4.5 3-4.9 2.2-1.8 0.4-2.8 0.1 1-3.1-1-5.8-1.8-2.6 2-4.2 0.1-1.4 1.4-0.9 2.5-0.5 4.2 1.3 4.3-1z" id="SI187" name="Velika Polana">
  </path>
  <path d="M875.3 118.6l8 0.9 2.3-2.4 2 0.5 4.2 3.4-3.4 2.8 0.1 2.1-0.9 3.6 4.3 4.1 0.7 8.7-7.7-0.5-2.2 2.3-1.3 1.6-0.7 2.4 0.5 1.7 0.2 1.3 1.2 3-5.3 6.4-8.9-12.7-3.9-3.3-12.3-5.8 6.3-4 2.8-4.3 3.8-1.6 10.2-10.2z" id="SI002" name="Beltinci">
  </path>
  <path d="M868.4 147.8l-3.6 6.8-0.8 0.6-2-0.1-1.2 0.2-4 2.6-5.2-3.5-0.9-4.1-3.3-2.9-1.7-3.3-0.2-0.9-0.3-3.4 3.9 0.8 3.1-1.9 12.3 5.8 3.9 3.3z" id="SI188" name="Veržej">
  </path>
  <path d="M892.6 142.3l-0.2 3.3-3.7 4.7-2.2 0.7-3.9 3.1-1.2-3-0.2-1.3-0.5-1.7 0.7-2.4 1.3-1.6 2.2-2.3 7.7 0.5z" id="SI086" name="Odranci">
  </path>
  <path d="M413.4 443.7l-4.1-4.7-1.3-3.5-5.9-5.9-2.7-8.2 1.1-13.2-0.2-3.5-1.1-4.7 0.9-1.9 0.9-1.3 0.9-0.6 1-1 0.8 0.1 2.8-2.1 4.1 3.1 8.7-0.3 4.7-2.7 1.6-1.7 1.2-2 4.2-2.4 2.5-0.1 1.6 0.8 2.7 2.3 4.4 2.3-2 6.7-4.5 6.8-0.8 5.5 1.1 0.2 3 1.1 1.2 1 0.2 1-0.4 1.4 0.6 2.5 0.6 3.4 4 7.9-0.1 2-0.8 2.5 0 1.9 1.3 3.8-5.9 2.9-2.4 0-11-3.9-2-1.2-1.8-0.6-2.1 0.6-1.4 2.2-5.6 3.5z" id="SI032" name="Grosuplje">
  </path>
  <path d="M402.1 429.6l-1.9 3-0.2 1.9-0.6 0.9-1.8-0.6-5.4-2.3-0.6-1.2 0.1-2.3-0.4-1.9-0.9-1.5-1.1-1.1 1.4-9.3-0.5-4.8-1.7-7.2-6-7.4 0.9-5.6-0.2-3.8 1.8-1.4 6.1-1.1 6.9 1.5 8.5 7.8-2.8 2.1-0.8-0.1-1 1-0.9 0.6-0.9 1.3-0.9 1.9 1.1 4.7 0.2 3.5-1.1 13.2 2.7 8.2z" id="SI123" name="Škofljica">
  </path>
  <path d="M549.9 315.5l5.2 6.7 1 2.4 7.1 5.3 3.6 4.4 2.5 3.8 2.3 5.4 0 2.2-1 1.5-2.4 1.6-1 0.5-3.5-1.2-2.2-1.5-1.3-0.6-1.1 0.2-0.8 1.3-0.1 0.9 0.4 1.2 0.8 0.9 1.2 1 3.8 1.8-10.1 2.7-6.4-3.1-2.1-4.1-0.5-1.7-2.7-2.6-2-0.9-1-1.4-1.8-3.2-0.8-1-1-3 0.2-2.1 1.4-3.4 3.9-6.6 5.2-3.5 3.2-3.9z" id="SI034" name="Hrastnik">
  </path>
  <path d="M579.7 309.3l-3.6 4.1-7.9 1.6-18.3 0.5-0.6-1.7 2.1-0.2 0.9-0.3 1.1-0.7 0.9-0.9 0.7-1.1 0.5-1.4 0.4-3.5 0.1-6.4 0.4-2 0.7-1.2 0.7-0.1 0.9 0-0.2-0.6-1.5-1.9-4-2.3-5.7-5.6 1.7-4.6-0.8-2.2 1-2.5 2.2-4.3 0.9-2.5 0.4-9.8 2.4-4.5 2-2.1 2.3-1.3 3.6-0.1 6.7 4.6 4.2-1.1 8.6 4.3 0 13.4-1 1.8-1 3-0.3 1.5 0.7 2.9 0 0.5-0.5 0.9 0.2 1.6 0.9 5.2 0.4 3.2-2.2 15.8z" id="SI190" name="Žalec">
  </path>
  <path d="M517.2 342.2l3.4 1 0.4 0.1 0.5 0 2.1-1.1 0.7-0.6 1.2-1.2 0.8-1-0.1-2.3-1.2-3.6-3.9-6.6-4.1-5-1.1-0.3-1.2 0.3-1 0.6-0.5-0.1 0.1-0.8 1.8-1.9 3.4-1.7 1.1-0.8 1.3-1.2-3.7-7 5.3 3.2 7.7-0.9 9.4 3.8 9.7-1.3 0.6 1.7-3.2 3.9-5.2 3.5-3.9 6.6-1.4 3.4-0.2 2.1 1 3 0.8 1 1.8 3.2 1 1.4 2 0.9 2.7 2.6 0.5 1.7 2.1 4.1-1.2 5.1-1.3 0.7-2.8 0.8 0.3 4.1-5 1.3-12.9 4.3-2.9 0.4-4.2-1.2-0.2-2.2-1.4-2.7-0.4-3.1-0.6-2.4-0.1-1.7 1.4-1.2 1.2-2.1 0.8-2.4-1.4-8.4z" id="SI129" name="Trbovlje">
  </path>
  <path d="M520.1 284.4l-11.4-10.8 0-8 4.2-3.9 1.1-2 0.4-2.3 2.8-4.4 2.5-1.7 8.3 5.3 4 7.2 12.7 20.7-8.2 11.3-4.5 1.9-1.6-4.9-0.9-1.8-3.5-4.7-5.9-1.9z" id="SI151" name="Braslovce">
  </path>
  <path d="M508.8 309.5l0.5-5.8 0.7-2.8 10.1-16.5 5.9 1.9 3.5 4.7 0.9 1.8 1.6 4.9 0.4 6.1-0.3 1.6-1.9 5.9-7.7 0.9-5.3-3.2-8.4 0.5z" id="SI184" name="Tabor">
  </path>
  <path d="M768.2 231.7l-5.6 0.9-5.4-5.4-9-15.4 1.6-2.5-0.6-3.1 0.5-1.8 3.8-2.3 8.3 10.1 3.1 6.5 0.5 1.6 0 1.2-0.4 0.8 0.1 2.5-0.3 1.1 0.7 1 0.9 0.8 1.7 0.8 0.6 0.9-0.5 2.3z" id="SI159" name="Hajdina">
  </path>
  <path d="M778.1 227.7l-2.2-1.4-7.7 5.4 0.5-2.3-0.6-0.9-1.7-0.8-0.9-0.8-0.7-1 0.3-1.1-0.1-2.5 0.4-0.8 0-1.2-0.5-1.6-3.1-6.5-8.3-10.1-4-5.1-0.9-0.5-1.6-0.5-4.2 0.6 3.8-5.1 3.4-2.3 2.8-5 2.1 1 6.3 5.1 7.1 9.6 4.3 2.7 2.3 0.5 2.2-0.6 1.4-1.2 0.9-1.6 4-4.4 6.3-4-0.2 8.6 2.8 3.8-2.9 12.7-0.1 2.6-1 1.6-1.1 1.3-9.1 5.8z" id="SI096" name="Ptuj">
  </path>
  <path d="M748.8 243.8l1.9 4.3 0.8 1 0.5 1.4-3.6 7.7-8.1 9.5-3.2 5.1-1.1 9.9-4.8-1.7-10.9 0.8-5.4-4.2 7.8-9.5 0.9-2.7 1.3-3.3 0.5-5.8 0-4.8-1.5-3.1-2.1-1.1-5.4-0.8-1.1-1.3-1.7-2.1-0.8-2.2 0.9-2.4 25.5 1.8 4.4 1 5.2 2.5z" id="SI069" name="Majšperk">
  </path>
  <path d="M714.9 277.6l-9.2 0.2-3.5-1.2 4.3-5.3-0.6-5.5-0.3-3.6-1.9-1.8-2.5-1 0-0.5 0.3-3.6 0-4.5 2.5-3.2 8.2-0.5 3.1-1.9 1.1 1.3 5.4 0.8 2.1 1.1 1.5 3.1 0 4.8-0.5 5.8-1.3 3.3-0.9 2.7-7.8 9.5z" id="SI198" name="Makole">
  </path>
  <path d="M804 237.8l-1.4 1.5-0.9 0.6-2.4 0.9-2.3 0.1-5.2-1.6-2.5-1.6-1.8-4.6-0.4-1.2-1.9-1.4-7.1-2.8 9.1-5.8 1.1-1.3 1-1.6 0.1-2.6 11.6 1.6 1.3 5.9 0.3 3.7 2.3 5.2 0.4 2.2 0.1 1.3-1.4 1.5z" id="SI168" name="Markovci">
  </path>
  <path d="M757.2 227.2l-2 9.7-1 2.3-0.7 2.9-4.7 1.7-5.2-2.5-4.4-1-25.5-1.8-0.8-3.2 1.3-1.9 0.9-3.1-0.5-2.2 0.4-1.2 0-0.5-1.7-1.5-0.6-0.9 2.9-2.6 13.6-8.3 5.1-1.7 5.1 0.6 3.6-1.6 5.2 1.4 9 15.4z" id="SI045" name="Kidricevo">
  </path>
  <path d="M789.4 216.4l2.9-12.7 6.9 1.9 5.7-5.2 2.1-3.3 1.2-3 3.7-7.1 5.5 9.3-0.3 8.1-0.5 0.9-3.2 6.2-4.1-1.1-4.8 2.5-1.2 1.4-2.3 3.7-11.6-1.6z" id="SI024" name="Dornava">
  </path>
  <path d="M856.8 157.9l-0.8 2.5 0.6 0.9 0.8 0.8-0.1 1.1-0.3 1-0.3 1.3-0.4 2.6-0.3 1.2-0.9 1.1-1.4 1.1-3.4 0.9-3.3-0.1-5.9-1.4-7.1-4.2-5.7-1.2 3.3-9.3 0.3-2.3-3.2-9.9 4.7-6 4.8-0.2-2-3.9 1.5-2.8 2.9 2 11.6 5.6-3.1 1.9-3.9-0.8 0.3 3.4 0.2 0.9 1.7 3.3 3.3 2.9 0.9 4.1 5.2 3.5z" id="SI166" name="Križevci">
  </path>
  <path d="M790.6 188.5l0.7-6.1 1.4-1.9 2.2-2 2.7-1.2 3.4-2.3 7-2.1 3.7 5.5-1.8 1.5 2 7.1-3.7 7.1-1.2 3-2.1 3.3-5.7 5.2-6.9-1.9-2.8-3.8 0.2-8.6 0.9-2.8z" id="SI042" name="Juršinci">
  </path>
  <path d="M583.1 514.9l2.4 0.1 0.5 0.7 3.7 8.1 3.9 3.4 2.9 4.1 2.8 5.4-0.2 2.7-1.3 2.1-2.1 0.2-1.1 0.8-0.9 1.3-0.9 3-0.8 1.6-1.7 1.5-1.3 1.3-1.3 0.8-0.7 0.9-0.8 0.3-0.8 0.6-0.7 0.1-2.5 0-5.3-2.6-5.2-1-4.3-0.1-5.2 2.8-1.5 1.7-0.9 1.5-0.4 0.9-1.4 0.9-2.3 0.9-8 0.7-9.2-3-5-2.1-5.4-10.1 0.9-8.3 1.3-2.3 5.3-7.6 2.7-2.8 3.3-1.7 5.3 0.8 6.8 1.1 8.6-0.6 4.4 0.4 3.8-0.4 1.8-0.5 10.8-7.6z" id="SI109" name="Semic">
  </path>
  <path d="M534 482.6l1.4 5.2 3.8 5.8 0.9 2.2 0.4 2 8.7 9.6 1 1.1 2 2.7 0.8 2.1-0.6 1.8-0.5 0.8-0.5 0.8-0.7 0.6-0.9 0.4-2.1 1.4-0.8 3.4-5.3-0.8-3.3 1.7-2.7 2.8-5.3 7.6-1.3 2.3-0.9 8.3-3.8-6.6-1.3-7.3-5.8-6.9-5.4-6.1-1.3-2.6-1.4-3.6 2.4-12.4 1-3.1-0.4-7.1 4.1-5.6 2.1-1.1 3.3-1 5.3 1.5 7.1 0.1z" id="SI157" name="Dolenjske Toplice">
  </path>
  <path d="M415.1 513l-3.3-5.3-1.4-1.8-2.9-1.8-6-0.2-6.6-2.4-1.8-7-0.1-3-1-3-3.7-6 3.2-3.7 6.5-1.4 3.7 3.3 2.7 1.5 1.4 0.5 2.8 0.5 5.8 2.1 5.6 1 1.6 0.7 1.9 1.1 0.8 3.4-0.1 3.6-4 11.4-1.8 3.6-3.3 2.9z" id="SI179" name="Sodražica">
  </path>
  <path d="M458.3 498.3l7.7 6.3-9.6 22.2-0.3 4.4-3 6.1-2 2.8-4.6 0.9-6.7-3 1-2.2-0.2-1.4 0.2-1.6-0.6-1.9-0.5-1.3-3.1-1-3.6-2.4-9.1-3.1-2.7-2.6-6.1-7.5 3.3-2.9 1.8-3.6 4-11.4 0.1-3.6-0.8-3.4-1.9-1.1-1.6-0.7-5.6-1-5.8-2.1-2.8-0.5-1.4-0.5-2.7-1.5-3.7-3.3 11.8-2 7.7-2.8 4.6-3.8 5-1.5 31.2 31z" id="SI104" name="Ribnica">
  </path>
  <path d="M622 418.9l-2.5 7.6-0.3 7-0.8 3.2 3 3.3-1.5 4-2.2 1.8-1.2 0.6-0.7-0.1-0.4-0.9-3.1-1.6-7.4 4.2-0.6-4.3 1.3-2.6-0.9-1.7-1.4-2.2-2.8-3.3-3.1-2.2-2.7-1.3-8.6-7.2-0.1-3.2 4.9-2.7 0.5-1.3 0.1-0.9 0.7-0.5 1.8 0.1 3.9 3.6 1.3 0.2 0.8-2-0.5-2.1 0.1-1.5 0.3-1.1 0.9-0.8 1.8-1 6.1-0.4 3 0.5 2.1 0.7 2.3 1.2 1.1 2.8 4.8 4.1z" id="SI121" name="Škocjan">
  </path>
  <path d="M225 593.7l-4.5-1-2 1.4-1 2.9 0 4.4 6.1 7.3-3.7 5.1-13.5 5.8-4.2 4.1-2.5 4-3.1 2.3-15.4-2.3-4.6-1.4-3.8-3.9-13.6-8.7-28.7 1.3 0-0.1 0.4-2.5 1.4-1 0.2-0.1 1.2-0.9 0.4-1.2 0.7-1.4 0.8-2.2 3.2-3.3 1.3-1.8-0.5-1-0.5-0.7-7.8-3.1 3.3-5.6 0.3-10 15.7-2.3 0.9 1 1.9-0.3 1.9 0.2 1.3-0.2 1.9-0.6 1.6-0.1 3.4-1.8 1-3.3-1-3-2.6-2.9-2.2-2-2.3-2.5-1.9-2.1-0.5-0.8 5.7-0.5 11.4 6.2 13.6-1.4 5.8-7.2 0.8 1.9 2.7 10.3 1.4 2 2.8 3.2 4.6 3.2 12 2.5 9.2 10.9 1 3.1 0 0.1z" id="SI050" name="Koper">
  </path>
  <path d="M827.7 231.5l-5.9-1.5-4.2 3.5-1.7 4.1-11.9 0.2 1.4-1.5-0.1-1.3-0.4-2.2-2.3-5.2-0.3-3.7-1.3-5.9 2.3-3.7 1.2-1.4 4.8-2.5 4.1 1.1 7 3.1 4.5 8.7 2.8 8.2z" id="SI028" name="Gorišnica">
  </path>
  <path d="M657.1 470.5l-3.1-0.6-3.3-1.1-3.2-0.3-3.2 1.5-1.4 3.8 1.2 4.4 0.4 3.9-3.2 2.7-0.1-0.1-1.6-1.6-6.6-12.5-0.4-5.6-0.8-5-0.4-9-1.7-6.2 4.1-2.2 4.5-3.5 5.7-0.4-0.8 5.4 2.6 2.7 1.1 3.8 0.5 3.1 2.5 3.5 0.8 6.2 3.5 2.3 2.9 4.8z" id="SI197" name="Kostanjevica">
  </path>
  <path d="M672.9 184.2l1.9 5.9 0.5 2.8 0.1 0.9 2.6 2.4 24 14.3 0.4 1.5 3.4 1.1 4.1 2 5.7 6.3-2.9 2.6 0.6 0.9 1.7 1.5 0 0.5-0.4 1.2 0.5 2.2-0.9 3.1-1.3 1.9 0.8 3.2-0.9 2.4 0.8 2.2 1.7 2.1-3.1 1.9-8.2 0.5-2.5 3.2 0 4.5-0.3 3.6-1.4 0.9-4.4 0.4-5.7 0-0.3-2.4-2.2 0.4-2.8 0.8-1.1-0.4-3-1.2-1.9-2.8-2.7-0.1-0.4-1.8-1.9-4.6-2.5-2.2-2.3-0.2-6.2-3.8-1.8-5.1-0.8-3.8 0.5-3.8-0.3-1.1-1.3-1-4.1-1.2-2.1 0.1-1.5 0.3-0.9-0.4-0.8-0.9-0.9-2.3-0.9-1.8-3.1-3.8-5.2-2.4-7-5.6-4.7-1.2-4-2.9-4.5-2-2-2.9-2.1-2.5-1-5 7-1.2 1.4 0.9 3.7 3.6 1.2 0.3 1.8-0.7 1-0.7 5-2.3 26.7-9.1 11.2 0.8z" id="SI113" name="Slovenska Bistrica">
  </path>
  <path d="M504.1 402.1l4 0.2 4 0.9 5 3.3-1 6.1 3.4 5.3 7 4.8 3.7 0 4.4 0 3.7 6.3 3.7 3.2 3.6 0 0.9 3.3-1.1 0-1.1 0.7-1.5 2.7-1.6 1.9-2.4 0.7-1.2 0.2-2.9 0.7-2.9 2.2-2.1 2.4-1.6 2.5-0.1 8.3-3.4 1.2-1.7-0.7-1.2-2.2-4.5-1.7-6 2.9-3.5-0.7-2.3-1.8-1.2-2.2-0.6-2.3-1.2-1.9-2.9-2.1-2.6-0.8-15.1 0.4-1.7-3.3-0.7-4.1 1.5-4.7 1.3-10.9 1-3.1 1.9-3.7 5.8-3.2 5.3-5.7 3.6-1.4 4.3-3.7z" id="SI130" name="Trebnje">
  </path>
  <path d="M702.2 276.6l-9.2-3-6.1-0.1-3.1 0.9-1.7 1.1-1.6 2.3-3.8-1.7 1.5-6.6-0.8-6.3-1.7-8.7 2.7 0.1 1.9 2.8 3 1.2 1.1 0.4 2.8-0.8 2.2-0.4 0.3 2.4 5.7 0 4.4-0.4 1.4-0.9 0 0.5 2.5 1 1.9 1.8 0.3 3.6 0.6 5.5-4.3 5.3z" id="SI200" name="Poljčane">
  </path>
  <path d="M138.2 423.3l6.5-0.4 0.3 2.9 0 4.2-0.7 5.2-1.6 0.7-1.6 0.6-0.7 0-0.2 0.3-0.4 1.7 1.6 3.2 2.2 2.3 1.4-1 0.6 5.3-0.9-0.5-8.6-1.5-4.1 0.2-7.5-2.6-2.9-1.9-2.5-2.9 0-1.3 1.5-0.8 2.4-0.3 1.6-0.4 2.1-1.9 5.7-5.3 3.1-1.1 1.5 0.4 0.8-0.5 0.3-1 0.3-2.8-0.2-0.8z" id="SI201" name="Renče-Vogrsko">
  </path>
  <path d="M873.4 189.4l-0.1 2.6 1.1 5.7 2.9 9.8-4 3.1-3.8 3.5-1.5-4.5-2.9-2-2.3-0.6-2.4 0.6-4.3 0.4-1.3 1.6 0 4.2-0.2 2.6 1.5 3.9-0.9 2.9 0.3 0.3 0.4 1.6-0.2 2.9-2.7-0.9-1.3 3-1.6-1.5-2.8-1.4-3.5 0.7-2.4 2.6-2.2 3.2-2.8 2.3-3.3 0.6-1.7-0.3-3.7-4.8-2.8-8.2-4.5-8.7-7-3.1 3.2-6.2 2.9 2 5.1-0.8 5.6-1.1 1-0.2 5.1-2 0.7-4.1-0.4-3-0.7-3-1.3-1.6 5.8 0 1.1-2.5-2.2-2.1-1.4-2.2 0.8 0.1 6.5 2.8 3.3 0.3 1.4-0.4 0.8-1.6 4.4-1 3.7 2.7 2.3 2.2 3 4.4 0.6 0.3 0.7-0.3 1.2-1.1 1.8 0.7 1.5-0.4 0.7-1 0.7-1.4 1.2-1.1 0.8-0.4 0.1-0.1z" id="SI087" name="Ormož">
  </path>
  <path d="M604.9 448l-6.6 3.6-1.3 2.2-1.5 3.6 0.3 1.8-5.7 1.4-5.3-3.8-3.4-1.6-2.3-5.4-6-1.6-0.6-2 1.4-0.4 3.9-1.7 2.3-2.4 3.2-6.7-0.2-1.9-0.4-1.8 0.2-1.8 3.2-6.3 8.6 7.2 2.7 1.3 3.1 2.2 2.8 3.3 1.4 2.2 0.9 1.7-1.3 2.6 0.6 4.3z" id="SI085" name="Novo Mesto">
  </path>
  <path d="M786.6 142.7l6.5 3.4-3.6 2.9-1.5 0.7-3.4 2.5-1.2 2-0.8 1.5 2.6 9.8-1.3 3.2-9.2-5.1-2.3 1.8-3.2 1.8-1.6 1.8-0.1 0.4-2.3-2.8-0.8-1.1-1.5-1.3 0.4-2.5 1.5-2.7 1.7-1.4 1.9-1.1-0.6-2.7-1.5-1.7-1.3-1.9-1.9-1.1-1.3-1.6 0.4-4.4 2.6-2.2 2.2-1.4 2.5-1.1 0.4 0.2 5.1 7.5 1.4 1.6 1.3 0.4 0.8-0.7 1.8 0 1-0.3 3.2-2.2 2.1-2.2z" id="SI204" name="Sveta Trojica v Slovenskih goricah">
  </path>
  <path d="M811.7 178.4l9 2.1 4.6 1.9 12.6 2.3 1.4 2.2 2.2 2.1-1.1 2.5-5.8 0 1.3 1.6 0.7 3 0.4 3-0.7 4.1-5.1 2-1 0.2-5.6 1.1-5.1 0.8-2.9-2 0.5-0.9 0.3-8.1-5.5-9.3-2-7.1 1.8-1.5z" id="SI205" name="Sveti Tomaž">
  </path>
  <path d="M604.9 448l-6.6 3.6-1.3 2.2-1.5 3.6 0.3 1.8-5.7 1.4-5.3-3.8-3.4-1.6-2.3-5.4-6-1.6-0.6-2 1.4-0.4 3.9-1.7 2.3-2.4 3.2-6.7-0.2-1.9-0.4-1.8 0.2-1.8 3.2-6.3 8.6 7.2 2.7 1.3 3.1 2.2 2.8 3.3 1.4 2.2 0.9 1.7-1.3 2.6 0.6 4.3z" id="SI085" name="Šmarješke Toplice">
  </path>
  <path d="M265.5 222.1l-2 5.9 4.8 8.6 1.5 2.6 1.9 3.8 0.9 2.1-0.4 2.1-4.3 4.3-1 2.8-1 1.7-3.7 3.2-1.5 4.8-2.7 3.3-1.3-0.9-1.6-4-1.4-2.3-2-0.2-1.7 0.7-2.4 0.8-2.3 0.3-4.1-1.3-2.8-2.5-1.6-2.1-1.7-1.7-3.8-2.5-3.2-0.7-4.3-4-0.3-0.1 2.8-2.6 5.6 0 6-0.6 4.5 0.6 3.4-2.8 5.7-4.3 1.1-8.8 0.8-3.8-1.6-3.7 0.5 0.3 4.2 2 1.5 0.4 7.5-1.4z" id="SI003" name="Bled">
  </path>
  <path d="M335.6 402.9l0.1-2.6-0.3-2.3-0.8-2.9-2.2-1.6-2.1-1.9-1.9-4.2 0.2-2.1 3.8-2.1 2.1-2.8 5.3-2 3.3 3.4 0.7 1.9-0.1 1.5-0.4 2.1-3.3 1.2-2.1 2.2-1.8 3.6 0.9 5.6-1.4 3z" id="SI208" name="Log-Dragomer">
  </path>
  <path d="M489 227.5l10.8-3.1 2.9 1.9 3.9 1.1 2.5 0.3 4-0.9 2.3 0.5 1.2 1 0.7 0.8 0.5 0.9 0.2 0.6-0.8 3.9-0.4 8.9 0.5 2.5 2.4 5.4-2.5 1.7-2.8 4.4-0.4 2.3-1.1 2-4.2 3.9-1.2-6.6-1.8-2.5-1.8-0.5-1.7 0.9-1.2 1-0.9-1.9-1.5-3.9-1.8-2.4-2.2-1.2 0.4-3.4-1.5-1.9-2.2 0.9-3.8-2.1-2.8-2 4.3-12.5z" id="SI079" name="Mozirje">
  </path>
  <path d="M739.6 126.7l0.8-3.7 0.9-0.9 0.6-1.2 6.3 0.5 5.2 0.6 1.5 2.3 0.5 1.6 0.9 3.7 0.2 1.6 0.1 2 1.5 1.7 2.9 2.4 0.5 0.2-0.2 0.8-4 0.3-1.9-0.6-2.4-3.2-2-0.7-0.9 4.8-3.5 3.5-6.1 4.8-4.6 1.6 0.7-2.7-0.7-6.1 0.9-5.1 2.8-8.2z" id="SI210" name="Sveti Jurij v Slovenskih goricah">
  </path>
  <path d="M526.1 401.7l0.4-0.6 1.3-3.4 0.4-3.4 0.7-2.7 4.2-0.7 7 0.3 2.9-2.1 2.3-0.2 0.9 0.2 0.6 0.6 3.9 0.3 4.9 3.2 1.2 2.2 1.8 0.9 2.4-0.8 1.5-1.2 1.4-0.6 1.3-0.2 0.8 0.7-0.4 2.3-1.3 1.7-0.9 1.7-0.3 2.6 0.9 1.7-0.1 0.1-4.4 1.2-3.3 2.8-3 1.6-0.6 1.9-4.1 0.8-0.9 3.1-3-1-3.3-3.2-2.6 0-4.5-2.1-1.4-3.2-1.5 0-0.8 0-1.8 0-2.6-4.5z" id="SI211" name="Šentrupert">
  </path>
  <path d="M517.1 406.5l0.1 0.1 7-2.5 1.9-2.4 2.6 4.5 1.8 0 0.8 0 1.5 0 1.4 3.2 4.5 2.1 2.6 0 3.3 3.2 3 1-1 3.7 0 5.5 1.9 1.2 0 1.6 0 1.9-1.4 0-2.2 0 0.7 2.6-3.6 0-3.7-3.2-3.7-6.3-4.4 0-3.7 0-7-4.8-3.4-5.3 1-6.1z" id="SI212" name="Mirna">
  </path>
  <path d="M810.7 111.4l-0.7-9.7-0.2-0.4 4.8-2.9 3.3-4.4 4.5-0.2 0.5 1.4 2.1 2.1 2.5 1.2 2.6 0.8 2.4 1.9 4.6 1.9-1.5 5.8 0.4 2.2 1.1 4.2 1.6 2.1 1.4 2.4 1.2 2.9-0.7 2.9-2.9 5.5-5.8-4-6.7-4.6-7.2-7.7-0.1 0-4-1-3.2-2.4z" id="SI010" name="Tišina">
  </path>
  <path d="M510.7 602l-4.2-0.6-5-4.7-6.6-4.3-5.2 0.2-1.1 8.8-5.5 9.6-12.4 4.5-12-2.6-2-5 5.8-5 1.8-5 0.2 0.2 4 0.6 1.3-0.8 0.8-1.2 1.5-3.8 0.6-2.7 0.8-1.6 2.8-2.3 1.9-0.6 1.6 0.4 4.3 2.5 4.8 1.2 3.5-0.3 4.6-1.4 2.3-0.4 1.7 0.4 6.2 5.7 3.5 8.1 0 0.1z" id="SI165" name="Kostel">
  </path>
  <path d="M809.8 101.3l-1.4-2.9-1.6-3.2-6.2-3.9-3.3-10.3-0.2-7.4 0.4-6.1 4.8-0.3 5 0.7 0.6 1.6 3.3 3.6 1.8 1.2 8.9 1.2 0.6 8.7-0.4 2.7-0.9 3.9 1.2 3-4.5 0.2-3.3 4.4-4.8 2.9z" id="SI152" name="Cankova">
  </path>
 </g>
 <g id="points">
  <circle class="45.49565304922817|13.522763280110672" cx="90.9" cy="600.4" id="0">
  </circle>
  <circle class="46.07178323425708|15.097783427911377" cx="545.5" cy="361.9" id="1">
  </circle>
  <circle class="46.79194596554323|16.357799546151945" cx="909.1" cy="60.4" id="2">
  </circle>
 </g>
 <g id="label_points">
  <circle class="Piran" cx="119.5" cy="604.4" id="SI090">
  </circle>
  <circle class="Moravske Toplice" cx="881.9" cy="94.8" id="SI078">
  </circle>
  <circle class="Šalovci" cx="883.5" cy="40.4" id="SI033">
  </circle>
  <circle class="Hodoš" cx="896.4" cy="47.4" id="SI161">
  </circle>
  <circle class="Gornji Petrovci" cx="868" cy="51.9" id="SI031">
  </circle>
  <circle class="Kuzma" cx="831.5" cy="38.2" id="SI056">
  </circle>
  <circle class="Lendava" cx="928.4" cy="156.5" id="SI059">
  </circle>
  <circle class="Dobrovnik" cx="905.7" cy="117.5" id="SI156">
  </circle>
  <circle class="Kobilje" cx="916.8" cy="107.3" id="SI047">
  </circle>
  <circle class="Kranjska Gora" cx="188.3" cy="203.8" id="SI053">
  </circle>
  <circle class="Bovec" cx="120.4" cy="236.4" id="SI006">
  </circle>
  <circle class="Kobarid" cx="103.2" cy="290.9" id="SI046">
  </circle>
  <circle class="Tolmin" cx="162.8" cy="315.8" id="SI128">
  </circle>
  <circle class="Kanal" cx="127.9" cy="350" id="SI044">
  </circle>
  <circle class="Brda" cx="93.4" cy="386.8" id="SI007">
  </circle>
  <circle class="Nova Goriška" cx="152.1" cy="396.6" id="SI084">
  </circle>
  <circle class="Šempeter-Vrtojba" cx="123.8" cy="424.9" id="SI183">
  </circle>
  <circle class="Miren-Kostanjevica" cx="114.4" cy="451.1" id="SI075">
  </circle>
  <circle class="Komen" cx="150.2" cy="464.8" id="SI049">
  </circle>
  <circle class="Sežana" cx="193.4" cy="501.8" id="SI111">
  </circle>
  <circle class="Hrpelje-Kozina" cx="231.3" cy="572.7" id="SI035">
  </circle>
  <circle class="Ankaran" cx="158.8" cy="570.1" id="SI213">
  </circle>
  <circle class="Rogašovci" cx="811.6" cy="56.6" id="SI105">
  </circle>
  <circle class="Gornja Radgona" cx="796.5" cy="124" id="SI029">
  </circle>
  <circle class="Apace" cx="770.7" cy="101.5" id="SI195">
  </circle>
  <circle class="Šentilj" cx="712.6" cy="103.8" id="SI118">
  </circle>
  <circle class="Kungota" cx="689.7" cy="119.6" id="SI055">
  </circle>
  <circle class="Maribor" cx="698.2" cy="159.2" id="SI070">
  </circle>
  <circle class="Selnica ob Dravi" cx="660.1" cy="148.9" id="SI178">
  </circle>
  <circle class="Radlje ob Dravi" cx="588.8" cy="138.9" id="SI101">
  </circle>
  <circle class="Muta" cx="556.1" cy="131.8" id="SI081">
  </circle>
  <circle class="Dravograd" cx="531.7" cy="143" id="SI025">
  </circle>
  <circle class="Podvelka" cx="613.4" cy="148.6" id="SI093">
  </circle>
  <circle class="Ravne na Koroškem" cx="510.6" cy="163.1" id="SI103">
  </circle>
  <circle class="Prevalje" cx="488.9" cy="158.5" id="SI175">
  </circle>
  <circle class="Mežica" cx="474.8" cy="171.5" id="SI074">
  </circle>
  <circle class="Črna na Koroškem" cx="464.4" cy="195.4" id="SI016">
  </circle>
  <circle class="Tržič" cx="320.3" cy="231.5" id="SI131">
  </circle>
  <circle class="Žirovnica" cx="277.8" cy="220.6" id="SI192">
  </circle>
  <circle class="Jesenice" cx="248.8" cy="205" id="SI041">
  </circle>
  <circle class="Solcava" cx="420.2" cy="222.1" id="SI180">
  </circle>
  <circle class="Jezersko" cx="368.1" cy="229.5" id="SI163">
  </circle>
  <circle class="Črenšovci" cx="893.9" cy="158.2" id="SI015">
  </circle>
  <circle class="Ljutomer" cx="868" cy="171.1" id="SI063">
  </circle>
  <circle class="Razkrižje" cx="886.5" cy="171.9" id="SI176">
  </circle>
  <circle class="Središče ob Dravi" cx="866.5" cy="226.6" id="SI202">
  </circle>
  <circle class="Zavrc" cx="818.8" cy="241" id="SI143">
  </circle>
  <circle class="Cirkulane" cx="808.4" cy="253.3" id="SI196">
  </circle>
  <circle class="Videm" cx="790" cy="259.7" id="SI135">
  </circle>
  <circle class="Podlehnik" cx="770.3" cy="261.5" id="SI172">
  </circle>
  <circle class="Žetale" cx="749.8" cy="273.2" id="SI191">
  </circle>
  <circle class="Rogatec" cx="731.7" cy="292.5" id="SI107">
  </circle>
  <circle class="Rogaška Slatina" cx="701.7" cy="291" id="SI106">
  </circle>
  <circle class="Bistrica ob Sotli" cx="681.2" cy="333.1" id="SI149">
  </circle>
  <circle class="Podcetrtek" cx="703.6" cy="371.6" id="SI092">
  </circle>
  <circle class="Brežice" cx="694" cy="431" id="SI009">
  </circle>
  <circle class="Krško" cx="656.5" cy="410" id="SI054">
  </circle>
  <circle class="Šentjernej" cx="618.3" cy="465.9" id="SI119">
  </circle>
  <circle class="Straža" cx="543.2" cy="484.3" id="SI203">
  </circle>
  <circle class="Metlika" cx="605.7" cy="536.6" id="SI073">
  </circle>
  <circle class="Crnomelj" cx="577" cy="592.6" id="SI017">
  </circle>
  <circle class="Kocevje" cx="487.2" cy="543.4" id="SI048">
  </circle>
  <circle class="Osilnica" cx="432.3" cy="578.4" id="SI088">
  </circle>
  <circle class="Loški Potok" cx="415.3" cy="541.9" id="SI066">
  </circle>
  <circle class="Loška dolina" cx="369.5" cy="527.7" id="SI065">
  </circle>
  <circle class="Ilirska Bistrica" cx="314.6" cy="570.7" id="SI038">
  </circle>
  <circle class="Izola" cx="126.5" cy="590.1" id="SI040">
  </circle>
  <circle class="Pesnica" cx="723.2" cy="130.9" id="SI089">
  </circle>
  <circle class="Duplek" cx="739.8" cy="178.4" id="SI026">
  </circle>
  <circle class="Miklavž na Dravskem polju" cx="722.5" cy="188.8" id="SI169">
  </circle>
  <circle class="Hoce-Slivnica" cx="707.5" cy="188.6" id="SI160">
  </circle>
  <circle class="Lenart" cx="753.4" cy="157.6" id="SI058">
  </circle>
  <circle class="Sveta Ana" cx="760.6" cy="118.8" id="SI181">
  </circle>
  <circle class="Lovrenc na Pohorju" cx="629" cy="170.9" id="SI167">
  </circle>
  <circle class="Ribnica na Pohorju" cx="593" cy="171.2" id="SI177">
  </circle>
  <circle class="Slovenj Gradec" cx="539.3" cy="188.9" id="SI112">
  </circle>
  <circle class="Vuzenica" cx="561.4" cy="153.1" id="SI141">
  </circle>
  <circle class="Preddvor" cx="362.5" cy="255" id="SI095">
  </circle>
  <circle class="Šenčur" cx="348.8" cy="297.3" id="SI117">
  </circle>
  <circle class="Cerklje na Gorenjskem" cx="372.8" cy="286.3" id="SI012">
  </circle>
  <circle class="Kamnik" cx="410.3" cy="282.4" id="SI043">
  </circle>
  <circle class="Medvode" cx="340.5" cy="342" id="SI071">
  </circle>
  <circle class="Kranj" cx="330.8" cy="293.1" id="SI052">
  </circle>
  <circle class="Škofja Loka" cx="308.5" cy="326.1" id="SI122">
  </circle>
  <circle class="Železniki" cx="268.9" cy="296.1" id="SI146">
  </circle>
  <circle class="Bohinj" cx="205.3" cy="267.6" id="SI004">
  </circle>
  <circle class="Naklo" cx="312.5" cy="270.1" id="SI082">
  </circle>
  <circle class="Radovljica" cx="287.8" cy="250" id="SI102">
  </circle>
  <circle class="Šoštanj" cx="528.5" cy="226.4" id="SI126">
  </circle>
  <circle class="Ljubno" cx="472.7" cy="235.7" id="SI062">
  </circle>
  <circle class="Luce" cx="441.1" cy="245.5" id="SI067">
  </circle>
  <circle class="Lukovica" cx="434.6" cy="317.9" id="SI068">
  </circle>
  <circle class="Benedikt" cx="775.2" cy="134.4" id="SI148">
  </circle>
  <circle class="Laško" cx="586.6" cy="333.8" id="SI057">
  </circle>
  <circle class="Dobje" cx="632.8" cy="337.3" id="SI154">
  </circle>
  <circle class="Ruše" cx="659.2" cy="176" id="SI108">
  </circle>
  <circle class="Vodice" cx="370.9" cy="321.1" id="SI138">
  </circle>
  <circle class="Komenda" cx="385.4" cy="306.6" id="SI164">
  </circle>
  <circle class="Mengeš" cx="389.7" cy="324.7" id="SI072">
  </circle>
  <circle class="Vrhnika" cx="313.6" cy="409.3" id="SI140">
  </circle>
  <circle class="Horjul" cx="311.8" cy="381.5" id="SI162">
  </circle>
  <circle class="Cerkvenjak" cx="790.8" cy="158.5" id="SI153">
  </circle>
  <circle class="Trzin" cx="389" cy="339.4" id="SI186">
  </circle>
  <circle class="Puconci" cx="846.2" cy="82.8" id="SI097">
  </circle>
  <circle class="Grad" cx="832.9" cy="58.3" id="SI158">
  </circle>
  <circle class="Murska Sobota" cx="851.8" cy="119.1" id="SI080">
  </circle>
  <circle class="Sveti Andraž v Slovenskih Goricah" cx="794.5" cy="173.8" id="SI182">
  </circle>
  <circle class="Brezovica" cx="349.7" cy="410.9" id="SI008">
  </circle>
  <circle class="Dobrova-Polhov Gradec" cx="317.6" cy="361.8" id="SI021">
  </circle>
  <circle class="Gorenja vas-Poljane" cx="268.1" cy="340.5" id="SI027">
  </circle>
  <circle class="Logatec" cx="276.4" cy="421.8" id="SI064">
  </circle>
  <circle class="Trnovska vas" cx="775.3" cy="173.4" id="SI185">
  </circle>
  <circle class="Destrnik" cx="774.2" cy="193" id="SI018">
  </circle>
  <circle class="Race-Fram" cx="716.8" cy="209.7" id="SI098">
  </circle>
  <circle class="Starše" cx="734.6" cy="201" id="SI115">
  </circle>
  <circle class="Vransko" cx="503.6" cy="291.2" id="SI189">
  </circle>
  <circle class="Velenje" cx="555.7" cy="235.8" id="SI133">
  </circle>
  <circle class="Polzela" cx="542.8" cy="264.6" id="SI173">
  </circle>
  <circle class="Šmartno ob Paki" cx="526.6" cy="249.2" id="SI125">
  </circle>
  <circle class="Rečica ob Savinji" cx="489.4" cy="254.6" id="SI209">
  </circle>
  <circle class="Vitanje" cx="602.9" cy="223.4" id="SI137">
  </circle>
  <circle class="Vojnik" cx="608.7" cy="260.4" id="SI139">
  </circle>
  <circle class="Zrece" cx="627.3" cy="219.4" id="SI144">
  </circle>
  <circle class="Mislinja" cx="578.9" cy="205.7" id="SI076">
  </circle>
  <circle class="Zagorje ob Savi" cx="498.5" cy="332.1" id="SI142">
  </circle>
  <circle class="Litija" cx="507" cy="371.3" id="SI060">
  </circle>
  <circle class="Gornji Grad" cx="457.6" cy="267.7" id="SI030">
  </circle>
  <circle class="Cerknica" cx="336.9" cy="475" id="SI013">
  </circle>
  <circle class="Velike Lašče" cx="400.4" cy="460.2" id="SI134">
  </circle>
  <circle class="Borovnica" cx="337.2" cy="428.8" id="SI005">
  </circle>
  <circle class="Postojna" cx="276.6" cy="478.9" id="SI094">
  </circle>
  <circle class="Pivka" cx="296.6" cy="524.2" id="SI091">
  </circle>
  <circle class="Dobrna" cx="584.4" cy="243.6" id="SI155">
  </circle>
  <circle class="Celje" cx="595.4" cy="291.2" id="SI011">
  </circle>
  <circle class="Nazarje" cx="492" cy="272.5" id="SI083">
  </circle>
  <circle class="Domžale" cx="409.1" cy="333.1" id="SI023">
  </circle>
  <circle class="Ivancna Gorica" cx="463.4" cy="424.3" id="SI039">
  </circle>
  <circle class="Ljubljana" cx="374.1" cy="365.7" id="SI061">
  </circle>
  <circle class="Šmartno in Litiji" cx="473.2" cy="376.6" id="SI194">
  </circle>
  <circle class="Ig" cx="375.7" cy="418" id="SI037">
  </circle>
  <circle class="Dol pri Ljubljani" cx="422.3" cy="350.5" id="SI022">
  </circle>
  <circle class="Prebold" cx="544.5" cy="301.9" id="SI174">
  </circle>
  <circle class="Moravce" cx="447.8" cy="336" id="SI077">
  </circle>
  <circle class="Dobrepolje" cx="437.3" cy="458.6" id="SI020">
  </circle>
  <circle class="Radece" cx="562.4" cy="364.4" id="SI099">
  </circle>
  <circle class="Štore" cx="614.2" cy="308" id="SI127">
  </circle>
  <circle class="Slovenske Konjice" cx="652.1" cy="257.3" id="SI114">
  </circle>
  <circle class="Žiri" cx="265.6" cy="374.8" id="SI147">
  </circle>
  <circle class="Oplotnica" cx="646.6" cy="232.2" id="SI171">
  </circle>
  <circle class="Cerkno" cx="221.3" cy="336.1" id="SI014">
  </circle>
  <circle class="Gorje" cx="223.8" cy="226.8" id="SI207">
  </circle>
  <circle class="Ajdovščina" cx="189.5" cy="429.9" id="SI001">
  </circle>
  <circle class="Divaca" cx="232" cy="526.2" id="SI019">
  </circle>
  <circle class="Idrija" cx="229.8" cy="394.3" id="SI036">
  </circle>
  <circle class="Vipava" cx="222.7" cy="464" id="SI136">
  </circle>
  <circle class="Bloke" cx="377.2" cy="481.7" id="SI150">
  </circle>
  <circle class="Šentjur pri Celju" cx="634.8" cy="309.4" id="SI120">
  </circle>
  <circle class="Kozje" cx="677.6" cy="357.3" id="SI051">
  </circle>
  <circle class="Šmarje pri Jelšah" cx="672.1" cy="303" id="SI124">
  </circle>
  <circle class="Sevnica" cx="601.2" cy="389" id="SI110">
  </circle>
  <circle class="Mirna Pec" cx="541.4" cy="454.8" id="SI170">
  </circle>
  <circle class="Mokronog-Trebelno" cx="564" cy="428.3" id="SI199">
  </circle>
  <circle class="Žužemberk" cx="494.5" cy="467.4" id="SI193">
  </circle>
  <circle class="Turnišče" cx="898.1" cy="136.1" id="SI132">
  </circle>
  <circle class="Radenci" cx="818.7" cy="128.8" id="SI100">
  </circle>
  <circle class="Sveti Jurij" cx="811.9" cy="156.7" id="SI116">
  </circle>
  <circle class="Velika Polana" cx="909.4" cy="149.8" id="SI187">
  </circle>
  <circle class="Beltinci" cx="875.4" cy="135.6" id="SI002">
  </circle>
  <circle class="Veržej" cx="856.4" cy="149.1" id="SI188">
  </circle>
  <circle class="Odranci" cx="886.2" cy="146.5" id="SI086">
  </circle>
  <circle class="Grosuplje" cx="420.2" cy="416.9" id="SI032">
  </circle>
  <circle class="Škofljica" cx="392.9" cy="395.3" id="SI123">
  </circle>
  <circle class="Hrastnik" cx="552.6" cy="337.1" id="SI034">
  </circle>
  <circle class="Žalec" cx="566.1" cy="278.6" id="SI190">
  </circle>
  <circle class="Trbovlje" cx="531.9" cy="351.5" id="SI129">
  </circle>
  <circle class="Braslovce" cx="526" cy="273.2" id="SI151">
  </circle>
  <circle class="Tabor" cx="522.6" cy="298.7" id="SI184">
  </circle>
  <circle class="Hajdina" cx="758.1" cy="217.2" id="SI159">
  </circle>
  <circle class="Ptuj" cx="773.1" cy="215.5" id="SI096">
  </circle>
  <circle class="Majšperk" cx="734.5" cy="257.2" id="SI069">
  </circle>
  <circle class="Makole" cx="714.5" cy="260.7" id="SI198">
  </circle>
  <circle class="Markovci" cx="794.5" cy="228.6" id="SI168">
  </circle>
  <circle class="Kidricevo" cx="736.1" cy="225.9" id="SI045">
  </circle>
  <circle class="Dornava" cx="811.1" cy="202.5" id="SI024">
  </circle>
  <circle class="Križevci" cx="841" cy="156.9" id="SI166">
  </circle>
  <circle class="Juršinci" cx="800.1" cy="189.3" id="SI042">
  </circle>
  <circle class="Semic" cx="552.5" cy="541.3" id="SI109">
  </circle>
  <circle class="Dolenjske Toplice" cx="526.5" cy="506.3" id="SI157">
  </circle>
  <circle class="Sodražica" cx="407.3" cy="493.5" id="SI179">
  </circle>
  <circle class="Ribnica" cx="437.7" cy="505.6" id="SI104">
  </circle>
  <circle class="Škocjan" cx="608.8" cy="424.2" id="SI121">
  </circle>
  <circle class="Koper" cx="182.8" cy="596" id="SI050">
  </circle>
  <circle class="Gorišnica" cx="811.7" cy="224.3" id="SI028">
  </circle>
  <circle class="Kostanjevica" cx="640.3" cy="459.6" id="SI197">
  </circle>
  <circle class="Slovenska Bistrica" cx="676.6" cy="221.2" id="SI113">
  </circle>
  <circle class="Trebnje" cx="507.2" cy="429.2" id="SI130">
  </circle>
  <circle class="Poljčane" cx="690.7" cy="266.8" id="SI200">
  </circle>
  <circle class="Renče-Vogrsko" cx="133.9" cy="437.5" id="SI201">
  </circle>
  <circle class="Ormož" cx="845.2" cy="209.7" id="SI087">
  </circle>
  <circle class="Novo Mesto" cx="574.9" cy="484.7" id="SI085">
  </circle>
  <circle class="Sveta Trojica v Slovenskih goricah" cx="776" cy="155.8" id="SI204">
  </circle>
  <circle class="Sveti Tomaž" cx="825.5" cy="194.4" id="SI205">
  </circle>
  <circle class="Šmarješke Toplice" cx="590.5" cy="443.7" id="SI085">
  </circle>
  <circle class="Bled" cx="256.8" cy="248" id="SI003">
  </circle>
  <circle class="Log-Dragomer" cx="336" cy="385.9" id="SI208">
  </circle>
  <circle class="Mozirje" cx="505.5" cy="241.8" id="SI079">
  </circle>
  <circle class="Sveti Jurij v Slovenskih goricah" cx="744.7" cy="132.5" id="SI210">
  </circle>
  <circle class="Šentrupert" cx="545.3" cy="401.9" id="SI211">
  </circle>
  <circle class="Mirna" cx="529.8" cy="414.4" id="SI212">
  </circle>
  <circle class="Tišina" cx="827" cy="110" id="SI010">
  </circle>
  <circle class="Kostel" cx="479.1" cy="599.2" id="SI165">
  </circle>
  <circle class="Cankova" cx="809.2" cy="84.4" id="SI152">
  </circle>
 </g>
</svg>