<?xml version="1.0"?>
    
<!--********* Copyright (c) 2024 Pareto Softare, LLC DBA Simplemaps.com ***************************************
************* Free for Commercial Use, full terms at  https://simplemaps.com/resources/svg-license ************
************* Attribution is appreciated! https://simplemaps.com *******************************************-->

<svg baseprofile="tiny" fill="#6f9c76" height="492" stroke="#ffffff" stroke-linecap="round" stroke-linejoin="round" stroke-width=".5" version="1.2" viewbox="0 0 1000 492" width="1000" xmlns="http://www.w3.org/2000/svg">
 <g id="features">
  <path d="M528.1 120.7l0.2 0.8 3.4 5.7 0.8 2 0.6 2.3 0 3 0.2 1.5 0.8 1.4 0.5 0.3 0.4-0.1 0.3-0.5 0.6-0.6 0.6-0.3 1.2-0.2 1 0.2 0.9 0.9 0.8 1.3 1 2.4 0.6 0.9 0.5 0.2 0.4-0.4 0.4-0.2 0.5 0.2 0.5 1 0.5 0.6 0.5 0.4 0.6 0 3.2-0.5 2.1-1 0.9-0.3 0.8-0.1 0.5 1 0.1 1.9-1 7.2 0 2.7-0.2 2-0.8 3.5-0.2 3.1-0.3 1.5-0.5 0.6-1.1 0.1-1.7 0.9-0.9 0-1.2-0.1-0.5 0.1-0.2 0.6 0.2 1 5.4 7.2 1 0.9 0.8 1 0.5 1.2 0.2 2.1 0.7 2.4 0.3 0.9 0.4 0.7 0.5 0.5 0.7 0.3 1.8 0.4 0.4 0.5-0.4 1-1.7 1.8-1.7 1.4-5.5 2.4-2-1.6-0.7-0.1-0.9 0.1-2.8 1.3-1.9 0.2-0.4 0.1-15.3-0.3-4.5-1.2-1.5-0.1-7.3 2.1-1.9 1.1-0.6 0-0.6-0.2-0.8-0.8-0.4-0.5-0.5-0.5-0.6-0.3-1.6-0.4-0.6-0.3-0.9-1-1.2-1-10.2-3.8-12.1-1.5-26.8 4.6-5.4 6.6-3.3 2-1.7 2.2-0.3 0.9-0.2 1.6-0.2 0.4-0.2 0.4-0.3 0.4-0.9 0.7-0.8 0.3-6.6 1-0.4 0-0.3-0.2 0.3-1 0.2-0.3 0.2-0.1 0.6-0.1 0.2-0.1 0-0.6-0.1-0.9-0.2-2-0.4-0.8-0.3-0.6-0.5-0.2-0.3-0.3-0.2-0.9-0.3-0.4-1.2 0-26.4 3.8-7.6-0.4-1.8 4.2-0.5 0.7-0.8 0.8-2.6 1.3-0.4 0.6 0 0.8 0.9 3 0.2 1.4-0.2 1-0.6 0.9-0.5 0.6-0.2 0.7 0.2 1.1 0.9 1.7 2.1 2 0.2 0.3 0.1 0.8 0 1.2-0.6 2.8-0.3 1.5-2.2 4-13.6-0.8-2.7-0.6-0.1-0.4-0.3-0.6-0.3-0.3-0.2-0.3-0.2-0.4-0.2-0.5-0.2-0.5-0.2-0.4-2 0.7-6.8 4.8-0.4-2.3-0.5-0.8-5.5-6.8-1-1.7-0.6-1.2-0.5-1.7-0.1-0.8 0.1-0.6 0.4-0.5 0-0.2-0.5-0.4-0.9-0.5-2.6-2.4-0.6-0.2-0.4-0.2-0.6-0.4-0.4-0.2-0.8-0.3-0.3-0.1-0.5-0.3-3.6-3.3-0.6-0.9-0.4-0.8 0-1.4 0.2-1.5 0.1-0.6-0.1-0.6-0.2-1.1 0-0.7 0.1-0.6 0.4-1.5 0.1-0.9-0.1-1.3-0.9-3.7-0.1-0.9 0.3-0.5 0.4-0.7 0.2-0.5 0.2-0.5 0.1-0.4 0.1-0.3 0.2-0.3 0.3-0.2 0.4-0.3 0.4-0.4 0.3-0.5 0.8-0.7-3.2-4.2-0.6-0.4-0.9-0.5-3.1-0.3-6.6-1.8-5.2 1.6-1.5-0.1-0.3-0.4-1-2-0.4-0.4-0.4 0-2.1 2.3-0.2 0.4-0.1 0.4-0.1 0.4-0.5 0.8-1.1 1.1-4.3 2.5-1.2 0.2-0.6-0.1-2.2-0.7-2.9-0.6-1.4-1-0.9-2 4.7-2.7 0.7-0.6 0.9-0.9 1.5-2.7 0.9-0.9 1-0.6 4.8-1.3 1.5-1.3 1.8-2.2 2.2-3 0.8-1.6 0.3-1.4-0.5-3.2 0.1-0.5 0.1-0.5 0.3-0.7 0.1-0.4-0.1-0.4-0.1-0.3 0-0.3 0.1-0.5 0.2-0.9 0.1-0.5-0.1-0.4-0.2-0.3-0.3-0.3-0.2-0.2-0.6-0.3-0.3-0.2-0.2-0.3-0.4-1.1-0.3-0.4-0.3-0.4-0.4-0.4-0.3-0.2-2.3-0.7-0.6 0-0.3-0.1-0.2-0.4 0.6-0.9 4.3-4.5-2-3.1-0.1-0.5-0.2-1 0.1-0.9-0.1-1.8-0.4-1.2-1.3-1.8-0.8-0.8-3-1.8-0.9-0.3-0.6-0.2-0.7-0.5-1.9-1.8-0.5-0.4-0.4-0.1-0.6 0-0.2 0-3.9-2.6-0.8-0.9-0.9-1.2-2-3.6-0.3-0.6 0.1-0.2-0.1-0.4-0.2-0.5-0.8-1.6-0.1-0.4 0-0.3 0.3-0.6 0-0.4-0.2-0.6-0.4-0.9-9.8-16.4-0.2-0.4-0.1-0.5 0-0.5-0.1-1.9-2.8-0.9-0.8-1.1 3.8-3 0-1.6 0.3-7 0.1-3 2 0.5 2.6 0.5 3.6-2.3 1.6-2 5.2-6.4 4.4-2.3 0.1-0.1 2.1-3.7 0.9-1.8 0.3-3 0.8-2 0.4-0.2 2.9-1.9 7.1 1.1 4.5-2.4 1.1-0.3 1.1 0.3 5.2 2.6 4.7 1.4 4.4-0.2 6.6-6.1 3-1.1 6.5-0.2 15.8 1.5 4.6 2.8-1.4 4.1 0.2 3.5 0.8 3.4 0.4 3.6-0.7 8.1 0.9 2.7 3.1 0.6 4.1-0.3 6.1-3.6 3.5-0.8 1.5 0.5 3.2 2.3 1.5 0.8 1.6 0.1 4-0.8 5-2 1.1-1.9 0.4-3.1 1.2-4.8 0.4-0.1 2 0 0.7-0.6 0.4-1.6-0.3-1.2-0.6-0.7-0.2-0.3 2.5-8 2.2-3.4 2.3-2.3 2.6-1.3 3.1-0.6 4.9 0 1.7-0.2 2.2-0.9 1.2-1.1 13.9-15.3 0.6-1.2 0.9-0.4 0.9 0.3 1.3 0.6 2.7 4.8 1.2 1.2 3.8 2.5 1.9 5 2.9 12.4 2.6 7.8 0.8 1.8 2.7 2.1 3.4 0.9 6.4 0-0.8 1.6-0.2 1.3 0.1 3.9-0.4 2.9 9.2 3.2 3.5 0.3 3.2-0.3 5.4-2.1 1.4 1 0 0.1 1.5 4.6 0.8 4.1 1 11.8-0.3 1-1.2 1.9-0.1 1 0.6 0.8 2.1 1.6 0 0.1 0.3 0.5 0 0.1 1.3 1.3 0.3 1.1-0.4 1.4-0.9 0.5-1 0.3-0.7 0.6-6.1 9.9-0.6 3.2 2.1 2.9 4 1.4 7.3 0.6 3.6-1.3 2.2-2.4z" id="SKZI" name="Žilinský">
  </path>
  <path d="M548.5 192.4l5.5-2.4 1.7-1.4 1.7-1.8 0.4-1-0.4-0.5-1.8-0.4-0.7-0.3-0.5-0.5-0.4-0.7-0.3-0.9-0.7-2.4-0.2-2.1-0.5-1.2-0.8-1-1-0.9-5.4-7.2-0.2-1 0.2-0.6 0.5-0.1 1.2 0.1 0.9 0 1.7-0.9 1.1-0.1 0.5-0.6 0.3-1.5 0.2-3.1 0.8-3.5 0.2-2 0-2.7 1-7.2-0.1-1.9-0.5-1-0.8 0.1-0.9 0.3-2.1 1-3.2 0.5-0.6 0-0.5-0.4-0.5-0.6-0.5-1-0.5-0.2-0.4 0.2-0.4 0.4-0.5-0.2-0.6-0.9-1-2.4-0.8-1.3-0.9-0.9-1-0.2-1.2 0.2-0.6 0.3-0.6 0.6-0.3 0.5-0.4 0.1-0.5-0.3-0.8-1.4-0.2-1.5 0-3-0.6-2.3-0.8-2-3.4-5.7-0.2-0.8 3.1-3.2 2.9-2.1 5.1-0.6 4.5 2.3 8.2 7.8 5.3 2.6 3.1-2.4 1.7-6.1 0.9-8.6 2-2.4 1.1-2.7 0.9-2.9 3-6.9 0.9-1.2 0.4 0.4 3.6 0.4 1.5-1.5 3.5-4.1 2.4-1.4 12.3-1.1 0.8-1.1 1.2-3.4 0.8-3.5 0.3-2.2 0.6-1.5 1.7-1.3 1.9 0 6.5 2.5 8.2-0.3 0-4.3 2.5-0.5 13.5 6.9 3.5 0.8 3.8-1.3 1.8-1.7 2.5-3.2 1.7-0.9 1.4-0.1 3.5 0.5 6-1 2.5 0.5 14.2 16.9 2.5 1.9 3.6 0.5 2.7-0.1 2.5 0.4 3 2.2 2.6 2.7 2.6 1.9 2.9 0.6 3.8-1.4 3.4-3 5.3-7.7 3.2-3.2 2.5-0.5 3.4 0 3-0.6 1.3-2.3-2-3.7-3.7-2.2-1.9-2.2 3.2-3.7 2.5-1.1 6.4-1.3 2.5 0.2 2.9 2 2.3 2.5 2.4 1.7 3.5-0.6 2.7-2.5 5-7.4 2.9-2.1 2.2 0.6 8.9 4.8 15.6 4.4 2.6 0 5.9-1.4 2.4 0.7 2.9-1.1 2.4-1 11.4-1.3 3 0.8 1.6 1 3 2.9 1.6 1.2 1.2 0.1 2.5-0.5 1.6 0.5 2.7 2.7 5.3 8.3 2.5 2 1.7-1.1 2.2-2.7 2.8-2.5 3.2-0.6 2.9 1.6 5.9 5.4 8.6 4.3 5.7 5.5 4.6 7.4 2 8.7 1.1 7.7 4.5 3.4 11.3 2.1 5.2 3.4 1.9 0.8 1.6 0.1 3.8-0.5 1.3 0.3 1.8 1.9 0 1.8-0.5 1.5 0.4 1.6 1.2 1 7.5 2.3 8.8-0.4 3.4 1.4 8.1 8.1 5.8 1.8 12.5 0.6 5.5 2.7-1.2 4-1.1 5.6-0.8 5.6 0.1 3.2-0.3 0-0.8 0-0.1-0.1-0.4-0.2-0.2-0.1-0.4-0.2-0.2-0.2-0.3 0-0.5 0.1-0.7 0.2-0.2 0.1-0.3 0.6-0.3 0.3-0.1 0.1-0.7 0.3-0.5 0-0.5 0.1-0.2 0.1-0.2 0.3 0 0.2 0 0.7 0 0.5 0 0.3-0.1 0.5-0.1 0.1-1.5 0.2-2.8 2.2-3.3 9.6-0.1 0.1-0.2 0.3 0 0.2-0.3 0.1 0.1 0.7-1.7 3.6-0.2 1.2 0.1 3.1-0.4 1.5-1.4 2.1-1.2 0.4-0.1 0.1-0.1 0.6-2.5 2.2-1.2 1.7-0.1 0-7.3-1.9-0.8 0.1-4.1 1.2-5.3 0.3-0.8-0.3-0.6-0.6-0.2-1.2-0.1-1.6-2.4-5.8-0.3-1.2 0-0.9-0.2-0.9-0.5-1-2.8-1.6-4.3 0.1-6 8.2-3.4 1.4-0.4 0.5-0.6 0.6 0 0.5 0 0.6 0.1 0.6 0.7 2.2 0.4 2.3 0.1 1.2-0.2 0.7-0.3 0.2-0.6 0.2-9.2 0.2-4.8 0.8-3-0.1-3.3-0.9-7.3-4.4-1-0.9 0.1-0.3-0.4-0.4-0.9-0.6-2.2-1-15.4-5.1-6-0.1-0.2 6.1 0.1 0.5 0.2 0.4 0.1 0.7 0 3.2 0.1 1 0.6 2.5 0.1 0.5-0.1 1.5 0.1 0.6 0.2 0.7 0.9 2.2 0.3 0.9 0 0.9-0.3 1.1-0.5 1.3-0.6 0.7-0.9 0.6-3 1-2.6 2.3-3.7 0.7-1.1 0.5-0.1 0.4-0.2 0.8-0.3 0.4-0.4 0.3-0.6 0.4-0.9 0.3-1.3 0.2-1.5-0.1-1.8-0.6-3-2.2-1.1-0.5-1.3-0.2-2.8 0.2-4.1-0.8-10-3.9-4.7-8.4-0.7-1.2-0.9-1.8-0.5-1.5-0.2-2.5-0.2-1.1-1.9-4.7-2.2 1.1-0.4 0.4-0.8 0.5-1.3 0.4-1.2-0.2-2-1.1-0.7-0.8-0.5-0.8 0-0.6-0.2-0.6-0.3 0-0.3 0.4-0.2 1.9-0.2 0.9-0.3 0.5-0.4-0.1-0.7-0.7-1.1-1-0.6-0.2-0.8 0-1.4 0.5-0.6 0.4-0.2 0.5 0.5 1 0.2 0.5 0.1 0.8-0.4 3.1-0.5 1.8-0.5 1-0.5 0.6-0.6 0.3-0.5 0.1-2.6 0.3-1.9 0.7-0.7 0.2-2.3 0-0.8 0.1-0.6 0.2-0.4 0.5-0.3 0.4-0.1 0.6 0.1 0.5 0.1 0.5 0.2 0.3 0.8 0.7 0.3 0.2 0 0.2-0.2 0.3-0.4 0.1-2.1 0.3-2-0.2-1.7-0.9-2.9-2.7-1.8-2.8 0-0.6-0.1-0.5 0.2-0.5 0.3-0.5 0.9-1.2 0.3-0.5 0.3-0.4 1-0.9 0.2-0.4 0-0.4-0.2-0.8-0.1-0.4-0.2-0.3-0.5-0.1-1 0.4-0.9 0.1-0.8-0.3-1-0.8-1.2-0.5-1.5-0.1-2.3-0.8-3.3 0.6-0.9-0.4-1.4-1.3-0.8-0.9-0.5-0.7-0.3-0.5-0.5-0.4-0.5-0.5-0.8-0.4-0.5-0.4-0.6-0.2-0.8-0.1-2.9 1-0.8 0-3-0.4-6.1-2-2.2 0.2-0.5 0.2-0.6 0.1-0.6-0.2-0.6-0.6-1-1.4-0.3-0.8-0.1-0.6-0.1-0.4-0.4-0.6-2.7-2.6-0.7-1.1-0.3-1.1 0-0.7 0-0.5-0.1-0.6-0.4-1.3-0.6-0.4-0.9-0.1-2.2 0.4-0.9 0.3-0.6 0.3-0.1 0.3-0.2 0.3-0.7-0.1-4.5-3-3.3-0.5-3.2-2.8-5.1 1.1-0.7-0.1-1.1-0.2-1.8-0.9-0.5-0.6 0-0.6 0.6-0.7-0.1-0.5-0.9-0.5-2.5-0.6-3.7-1.7-1.8-0.4-0.5 0.1-0.2 0.7 0.2 0.4 0.4 0.9 0 0.6-0.1 0.7-0.2 0.9 0 0.6 0 0.5 0.1 0.3 0.3 0.2 0.8 0.6 0.3 0.3 0 0.2-0.3 0.2-0.6 0.2-10-1.6-2.9 0.1-1 0.3-0.7 0.4-0.1 0.3-0.1 0.4 0.1 0.4 0.5 0.9 0.1 0.3-0.1 0.3-0.9 0.9-0.4 0.3-0.7 0.4-1.6 0.8-2 0.2-1.9-0.1-0.9-0.4-2-3.3-0.3-0.6-0.8-0.4-1.3-0.3-3.4-0.4-3.8-2.3-4.2-3.2-0.9-0.8-0.3-0.7 0.4-1.8-0.2-0.6-0.8-0.3-0.7 0.2-1.3 1.3-0.4 0.8-0.2 0.8 0.8 1.5 0 0.4-0.5 0.3-3.8 1.3-0.4 0.2-0.1 0.4 0 0.5 0.3 1.3 0.3 0.6 0.3 0.4 0.2 0.2 0.2 0.2 0.1 0.3-0.3-0.2-0.6-0.7-2.5-3.6-3.6-2.4-1.2-0.3-0.1-0.3-0.4-0.4-0.4-0.1-0.7 0.3-2.4 2.4-0.8 0.4-0.5 0.1-0.4-0.2-0.4 0-0.4 0.3-1.1 1-7 3.1-2.1 1.4-0.8 0.8-2 2.8-1.9 1.8-0.1 0.5 0.5 0.5 1.8 0.3 2.1 0.7 2.3 3-4.7 3-0.9 0.9-1.1 1.6-1.9 4.8-2.3 2.2-6.5-3.8-1.2-1-0.9-0.4-3.1-1-2.9-1.6-1.1 0.1-2.4 2.2-3.1 0.2-23-2.9z" id="SKPV" name="Prešov">
  </path>
  <path d="M592.7 200.6l2.3-2.2 1.9-4.8 1.1-1.6 0.9-0.9 4.7-3-2.3-3-2.1-0.7-1.8-0.3-0.5-0.5 0.1-0.5 1.9-1.8 2-2.8 0.8-0.8 2.1-1.4 7-3.1 1.1-1 0.4-0.3 0.4 0 0.4 0.2 0.5-0.1 0.8-0.4 2.4-2.4 0.7-0.3 0.4 0.1 0.4 0.4 0.1 0.3 1.2 0.3 3.6 2.4 2.5 3.6 0.6 0.7 0.3 0.2-0.1-0.3-0.2-0.2-0.2-0.2-0.3-0.4-0.3-0.6-0.3-1.3 0-0.5 0.1-0.4 0.4-0.2 3.8-1.3 0.5-0.3 0-0.4-0.8-1.5 0.2-0.8 0.4-0.8 1.3-1.3 0.7-0.2 0.8 0.3 0.2 0.6-0.4 1.8 0.3 0.7 0.9 0.8 4.2 3.2 3.8 2.3 3.4 0.4 1.3 0.3 0.8 0.4 0.3 0.6 2 3.3 0.9 0.4 1.9 0.1 2-0.2 1.6-0.8 0.7-0.4 0.4-0.3 0.9-0.9 0.1-0.3-0.1-0.3-0.5-0.9-0.1-0.4 0.1-0.4 0.1-0.3 0.7-0.4 1-0.3 2.9-0.1 10 1.6 0.6-0.2 0.3-0.2 0-0.2-0.3-0.3-0.8-0.6-0.3-0.2-0.1-0.3 0-0.5 0-0.6 0.2-0.9 0.1-0.7 0-0.6-0.4-0.9-0.2-0.4 0.2-0.7 0.5-0.1 1.8 0.4 3.7 1.7 2.5 0.6 0.9 0.5 0.1 0.5-0.6 0.7 0 0.6 0.5 0.6 1.8 0.9 1.1 0.2 0.7 0.1 5.1-1.1 3.2 2.8 3.3 0.5 4.5 3 0.7 0.1 0.2-0.3 0.1-0.3 0.6-0.3 0.9-0.3 2.2-0.4 0.9 0.1 0.6 0.4 0.4 1.3 0.1 0.6 0 0.5 0 0.7 0.3 1.1 0.7 1.1 2.7 2.6 0.4 0.6 0.1 0.4 0.1 0.6 0.3 0.8 1 1.4 0.6 0.6 0.6 0.2 0.6-0.1 0.5-0.2 2.2-0.2 6.1 2 3 0.4 0.8 0 2.9-1 0.8 0.1 0.6 0.2 0.5 0.4 0.8 0.4 0.5 0.5 0.5 0.4 0.3 0.5 0.5 0.7 0.8 0.9 1.4 1.3 0.9 0.4 3.3-0.6 2.3 0.8 1.5 0.1 1.2 0.5 1 0.8 0.8 0.3 0.9-0.1 1-0.4 0.5 0.1 0.2 0.3 0.1 0.4 0.2 0.8 0 0.4-0.2 0.4-1 0.9-0.3 0.4-0.3 0.5-0.9 1.2-0.3 0.5-0.2 0.5 0.1 0.5 0 0.6 1.8 2.8 2.9 2.7 1.7 0.9 2 0.2 2.1-0.3 0.4-0.1 0.2-0.3 0-0.2-0.3-0.2-0.8-0.7-0.2-0.3-0.1-0.5-0.1-0.5 0.1-0.6 0.3-0.4 0.4-0.5 0.6-0.2 0.8-0.1 2.3 0 0.7-0.2 1.9-0.7 2.6-0.3 0.5-0.1 0.6-0.3 0.5-0.6 0.5-1 0.5-1.8 0.4-3.1-0.1-0.8-0.2-0.5-0.5-1 0.2-0.5 0.6-0.4 1.4-0.5 0.8 0 0.6 0.2 1.1 1 0.7 0.7 0.4 0.1 0.3-0.5 0.2-0.9 0.2-1.9 0.3-0.4 0.3 0 0.2 0.6 0 0.6 0.5 0.8 0.7 0.8 2 1.1 1.2 0.2 1.3-0.4 0.8-0.5 0.4-0.4 2.2-1.1 1.9 4.7 0.2 1.1 0.2 2.5 0.5 1.5 0.9 1.8 0.7 1.2 4.7 8.4 10 3.9 4.1 0.8 2.8-0.2 1.3 0.2 1.1 0.5 3 2.2 1.8 0.6 1.5 0.1 1.3-0.2 0.9-0.3 0.6-0.4 0.4-0.3 0.3-0.4 0.2-0.8 0.1-0.4 1.1-0.5 3.7-0.7 2.6-2.3 3-1 0.9-0.6 0.6-0.7 0.5-1.3 0.3-1.1 0-0.9-0.3-0.9-0.9-2.2-0.2-0.7-0.1-0.6 0.1-1.5-0.1-0.5-0.6-2.5-0.1-1 0-3.2-0.1-0.7-0.2-0.4-0.1-0.5 0.2-6.1 6 0.1 15.4 5.1 2.2 1 0.9 0.6 0.4 0.4-0.1 0.3 1 0.9 7.3 4.4 3.3 0.9 3 0.1 4.8-0.8 9.2-0.2 0.6-0.2 0.3-0.2 0.2-0.7-0.1-1.2-0.4-2.3-0.7-2.2-0.1-0.6 0-0.6 0-0.5 0.6-0.6 0.4-0.5 3.4-1.4 6-8.2 4.3-0.1 2.8 1.6 0.5 1 0.2 0.9 0 0.9 0.3 1.2 2.4 5.8 0.1 1.6 0.2 1.2 0.6 0.6 0.8 0.3 5.3-0.3 4.1-1.2 0.8-0.1 7.3 1.9 0.1 0-0.3 0.5-1.1 2.9-0.1 1.9 0.3 2 0.4 8.2-0.4 1.7-1.1 2.7-0.6 1-0.1 0-0.2 0.1-0.1 0.1-0.1 0.2-0.3 0.5-0.1 0.2-1.4 1.1-1.2 1.6-0.5 3.3 0.2 5.2-1 5.1-2 4.5-0.9 1.3-0.2 0-0.1 0 0 0.4-0.4 0.5-0.2 0.1-0.2 0.1-0.3 0.3-0.4 0.2-0.4 0.1-0.1 0.2-0.2 0.1 0 0.2 0.1 0.2-0.5 0.5-0.1 0.1-0.6 0.4-4.2 1.3-2 1.4-1.2 1.7-1.6 3.8-1 1.7-0.1 0-0.5 0-0.9 0.8-0.2 0.1-0.5 1-1.3 1-0.1 0-0.2 0.1-0.1-0.1-0.2 0-0.1-0.1-0.2 0-0.1-0.1-0.1 0-0.2 0 0 0.1-0.1 0 0 0.1 0 0.1 0 0.1 0 0.1 0.1 0 0 0.1 0 0.1 0 0.2 0 0.1-0.1 0 0 0.1 0 0.1 0 0.1-0.1 0 0 0.1-0.6 0.5-0.1 0 0 0.1-4.8 3.8-2.3 4-0.4 4.9 1.9 9.7-0.6 3.8-1.7 3.9-0.2 17.4-3 3.8-2.8 2.3-3 0.8-9.5-0.9-2.9 0.2-2.9 1-8.4 0.4-2.3 0.9-4.9 2.8-6.8 1.1-8.3 4.2-4.9 0.4-5-1.7-4.2-3.1-3.8-4.4-8.9-13.8-1.3-2.6-2.1-9.9-1.4-2.8-2.7-0.6-5.9 0.1-2.5-1.2-1.1-1.7-1.4-4.6-1.1-2.1-1.4-1.3-2.9-1.1-5.3-3.2-2.3-0.7-8.3 2.6-5.5 0.1-2.6 0.6-3.2 1.8-1.3 2.3-0.9 2.5-1.9 2.7-2.3 1.4-1.8-0.8-2-1.7-2.9-1.3-5.3 1.2-12.4 6-4-1-3.2-3.2-4.5-2-4.7-0.8-4 0.3-5.7-0.5-8.7-5.4-5-0.5-2.3-0.6-4.7-4.3-2.5-1.3-2.6 0-33.8 7.8-9.9 0.7-4.6 1.9-0.1 1.8-0.1 2 0.3 4.2 0.1 0.8 0 0.9 0 0.8-0.2 0.9-2.1 3.2-0.4 0.4-0.1-0.1-2.6-2-3.5 0.1-1.2 0.4-2.8 1.5-1.3 0.1-2.5-0.3-6.7 0.5-0.7-0.1-0.1-0.2 0.1-0.4 0.2-0.4 0.3-0.5 0.2-0.4-0.4-0.4-2.8-1.8-0.8-0.7-0.4-0.8 0.1-0.6 0.1-0.6 0-0.7-0.2-0.7-0.5-1.1-0.2-0.9-0.1-0.9 0.3-1.6 0.4-1.1 0.6-1.2 0.9-1.4 0.4-1 1.2-5.7 0.4-1.3 0.4-0.9 0.4-0.8 0.4-0.6 0.3-0.6 0.3-0.7 0.6-3.2 0.4-1.6 0-0.4-0.4-0.3-1.4-0.5-1.3-0.8-0.6-0.1-1.7-0.3-1.1-0.3-1.5-0.8-0.6-0.5-0.2-0.5-0.1-0.5 0.1-0.5 0.2-0.5 0.1-0.4-1.1-4.5-3.3-9.7-0.9-1.7-8.2-6.8-0.3-0.3-1.8-0.3-1.3-1.3-0.6-1.4-0.6-2.9 0-1.4 0.1-1.1 0.4-0.6 0.5-0.7 0.8-0.8 0.8-1 0.7-1-0.1-1.3-0.5-2.4 0.1-1.9 0.1-2.3 0.1-0.6 0-0.8-0.1-1.2 0.7-1.4 7.5-11.3 3.6-1.1z" id="SKKI" name="Košický">
  </path>
  <path d="M62.1 279.9l0.6 0 9.6-3 7.3-0.3 0.5-0.1 0.1-0.4-0.2-0.6-0.5-1.2 1 0 2.1 0.6 7 3.3 1.6 0.5 0.9-0.2 6.6-2.9 2.2-1.3 2.9-0.8 1.9-0.1 1.3-0.4 0.7-0.7 0.6-1.5 0.6-0.7 0.7-0.5 1.5-0.7 1.2-0.8 0.3-0.3 0.3-0.5 0.3-1 0.3-0.5 0.4-0.5 0.7-0.7 1-0.7 0.3-0.1 0.3-0.1 0.3-0.1 0.1-0.2 0.2-0.4 4.5-7.3 1.4-1.8 1-0.8 0.8 0.2 0.4 0.3 0.4 0.3 0.3 0.3 1.6 0.5 0.6 0.3 0.6 0.4 0.6 0.8 0.7 0.9 0.6 1.1 0.4 1.8 0 2.2-0.9 2.8-0.8 1.7-2.9 3.8-0.5 0.5-0.4 0.2-0.6 0.1-0.5-0.1-0.6 0.1-0.3 0.4-1.1 3-0.3 0.5-0.3 0.3-1.8 0.9 0 1.5-0.8 1.9 8.7 8.7-1.5 1-0.6 0.6-0.8 1.1-2.4 3.8-1.4 2.8 0.5 2.7 2.1 0.8 2.2 0 0.3 0 0.4 0.2 0.3 0.3 0.5 0.5 1.1 0.9 0.9 0.9 0.5 0.3 0.7 0.1 2.8 0.1 0.5 0.3 0.1 0.5-0.4 1-0.3 0.4-0.1 0.5 0.3 0.5 1.5 1.3 0.6 0.6 1.1 1.7 1.2 1.3 0.7 1.1 2.7 5.4 0.6 0.8 0.5 0.5 0.9 0 0.7 0.3 0.5 0.5 0.9 1 0.5 0.8 0.4 0.9 0.4 0.4 0 1-0.4 1.3-1.3 3.2-1.2 2-0.1 0.6 0 0.5 0.9 2.7 8.7 7-4.4 5.3-0.8 1.5-0.2 1.2 0.4 2.2 0.3 0.7 0.4 0.4 0.7 0.2 3.3 1.5 0.4 0.8-0.1 1.1-0.3 2.6 0.4 0.9 0.3 0.4 0.7-0.2 0.3 0 0.2 0.1 0.3 0.6 0.2 0.3 0 0.8-0.2 1.1-1 2.6-0.6 1-0.5 0.6-0.9-0.3-1.8 0.5-5 4-4.3 1.9-0.7 0-0.7-0.3-1.2-0.9-0.8-0.4-2.1-0.2-0.5-0.2-0.2-0.2 0-0.4 0.2-0.5 0.7-1.3-0.3-0.9-0.2-0.4 0-0.4-0.2-0.3-0.3-0.1-0.5 0.2-1 0.6-0.6 0.3-0.6 0.3-0.4 0.7-0.4 2.4 0.1 0.6 0.1 0.5 0.2 0.4 0.8 0.9 0.3 0.4 0.2 0.4 0.1 0.3-0.2 0.4-0.5 0.6-1 0.4-0.6 0.1-0.7 0.3-0.6 0.6-1.2 1.1-1.6 1.1-0.7 0.2-1.8 0-3.7-0.9-0.6 0-0.3 0.2-0.1 0.4 0.9 1.5 0.1 0.5-0.1 0.6-0.2 1 0 0.6 0 0.4 0.2 0.3 1.3 1 0.8 0.9 0.4 0.2 0.3 0.1 2.6-0.2 0.2 0 0.3 0.2 0.2 0.2 0.3 0.5-0.1 0.2-0.7 0.7-1.7 1.1-2.4 2-1.1 0.5-0.8 0.1-0.4-0.3-0.4 0.2-0.3 0.4 0 1.5 0.2 0.9 0.3 1-0.2 0.5-0.5 0.5-1.7 1-0.8 0.6-3 3.6-0.8 6 0 0.1-6.7-1.9-5.7-1.2-5.8 3.5-3.8-3.3-5.1-1.9-3.7-2 0.9-3.9-2-1.6-0.6-0.4 0.9-4.5 0.9-2.4 1.6-2-2.1-2.2-0.8-1.4-2.3-4.4-1.7-1.1-2.6-0.4-2.2-1.3-4-4.4-1.1-3.8-0.1-5.1-0.7-4.4-2.5-8.6-0.1-1.1 0.2-2.8-0.1-1-0.6-0.8-1-0.4-1.8-1.6-1.4-0.7-1.2-0.8-0.6-1.4-0.2-1.1-0.5-1.3-0.5-1.2-0.4-0.6-0.7-0.4 0.3-1.3 0.6-1.4 0.4-1-0.8-1.9-1.6-1.9-1.7-1.3-0.9-0.6-3.2-0.3-1.3-0.8-0.4-1.4 0.1-2.7 0.2-1 0.4-0.8 0.4-1.5 1.5-12.8 0.6-3.5 1.6-3.2 4.2-6 0.9-3.2 1.1-2.3 2.7-2.1 2.6-2.8 0.3-1.3z" id="SKBL" name="Bratislavský">
  </path>
  <path d="M62.1 279.9l0.9-3-1.5-11.3 0.4-4.6 2.5-3 1.9-3.4 8-23.3 1.8-3.1 0.8-0.5 0.4-1.6 1-1.5 3.6-3.2 0.7-0.4 1.7-1.3 0.8-0.6 0.2-1.3 0.2-1.2 0.1-0.5 0.9-1.4 0.4-0.6 0-0.1 0.3-2 1.2-2 5.2-3.7 0.1-0.1 0.9-0.7 2.4-1.7 7.2-1.6 7.6 2 18.2 9.3 2.8-0.5 3.1-2.1-0.4 1.5-1.5 3.5-1.7 2.4-5 4.7 3.5 1.4 2 0.5 0.5 0 0.4-0.2 0.5-0.4 2.7-3.4 0.7 0.1 0.9 0.9 1.9 2.7 1.5 1.8 0.3 0.1 0.2 0.3 0.4 0.2 0.3 0.1 1.4 0.4 0.5 0.4 0.6 0.8 1.3 1.8 0.9 1.5 0.5 1.6-0.1 1.6-0.3 0.7-0.6 0.6-0.2 0.5-0.3 0.9-0.3 0.6-0.6 1.1-0.3 0.7-0.2 0.8 0.1 0.6 0.3 0.6 0.9 0.8 0.4 0.7 0.5 2.7 0.4 0.7 0.7 0.8 1.5 1.6 1.8 2.6 3.5 7.6 3.7-3.3 1.1-0.6 0.3-0.3 0.3-0.3 0.4-0.1 0.4 0 2.2 1.3 5.2-1.6 0.5-0.9 0.5-0.6-0.1-0.5 0-0.4 0.1-0.3 0-0.4-0.1-0.7 0.1-1.1 0.1-0.4 0.1-0.4 0.3-0.1 0.4 0.1 1.1 1.2 0.4 0.2 1.5 0 0.5-0.1 0.5-0.3 1-0.9 5-2.1 2.6-0.8 2.2 1.1 1.4 1.7 1.7 3.2 0.3 0.4 0.6 0.4 2.9 1.5 3 0.4 5.5-0.1 0.9-0.2 0.1-0.3-0.1-0.4 0-0.3-0.1-0.4 0.1-0.3 0.2-0.1 0.4 0.1 0.6 0.4 1.3 1.2 1.3 2.1 0.7 0.7 0.6 0.1 0.9-0.3 0.5-0.3 0.6-0.3 0.9 0.1 0.8 0.4 1 1.1 0.3 0.6 0.3 0.5 15.5 3.4 0.4 1.5 0.2 0.4 0.1 0.5-0.3 0.5-0.8 0.6-7.4 3-1.4 0.1-1-0.1-2-1.4-0.5-0.2-0.5 0-0.7 1.2-4.9 12.7-0.3 0.5-2.7 3.1 7 3.7 0.4 0 0.6 0.3 3.5 2.9 7.2 7.3-3.5 3.9-11.3 20.4-2.7 2.7-0.7 3.5-0.2 0.7-0.1 1-0.1 0.9-0.7 4.1-0.2 0.6-0.4 0.4-0.4 0.4 0.2 0.7 0.2 0.5 4.2 3.8-1.1 1.9-0.7 1-0.3 0.7 0.1 0.6 0.3 0.7 0 0.6-0.5 0.9-0.4 0.4-0.2 0.8 0.2 0.8 0.6 1.9 0.5 0.7 0.4 0.4 0.4 0.1 0.4 0.4 1.6 1.6 0.5 0.8 0.3 0.9 0 1.3-0.5 1.8-0.5 0.8-0.7 0.6-2.6 1.6-1.8 1.4-0.4 0.1-0.3-0.2-2.2-2.7-0.5-0.2-0.3 0-0.6 0.4-1.1 0.5 0 0.7 0.5 1.1 1.3 2.7 0.5 1.3-0.1 1.4-0.4 1.2-0.3 0.4-0.3 0.4-0.5 0.2-0.5 0.2-0.4 0-0.5-0.1-1.1-0.7-1.1-0.6-0.6-0.1-0.8 0.1-2.6 1.1-0.6 0.7 0 0.8 7 7.8 0.9 1.7-0.1 1.9-1.3 3.3-0.3 0.9 0.1 0.8 0.5 0.6 1.1 0.9 0.7 0.2 0.8 0 2.6-1 1-0.1 0.5 0.3 0.3 0.8-0.6 1.9-0.1 0.6 0.3 0.4 0.7 0.6 0.5 0.2 1.1 0.1 0.7 0.3 0.3 0 0.5 0 0.4 0.1 0.4 0.4 0.4 0.9 0.1 1.3-0.8 5.2 1.1 8.3-0.4 6.1 1.2 1.1 0.2 0.7 0.2 0.9-0.1 0.9-0.2 0.8-0.3 0.8-0.3 2.8 1 1.8 0.5 1.1-0.2 0.9-1 1-2.7 1.7-3.8 3.4-1.8 2.6-1.2 0.9-0.6 0.4-0.3-0.1-0.4 0.1-0.5 0.4-0.9 1-0.6 1.1-0.5 1.6-0.1 5.1-0.7 1-1.1 1.1-3 2.4-1.3 0.7-1 0.2-0.3-0.1-0.4-0.1-0.3 0-0.3 0-0.7-0.4-0.4-0.1-0.3 0.4-0.4 0.8-1.1 5.6-0.6 1.7-1.3 1.3 0 0.1-6.8-3.7-1.7-1.9-1.2-2.4-3-2.8-3.3-2.4-2.4-1.2-1.8 0.3-1.6 0.7-1.6 0.1-2-2-5.4-8.1-1.4-1-4.1-0.9-1.6-0.6-1.6-1.5-16.4-22-5-4.2-10.4-1.6-1.6-0.4 0-0.1 0.8-6 3-3.6 0.8-0.6 1.7-1 0.5-0.5 0.2-0.5-0.3-1-0.2-0.9 0-1.5 0.3-0.4 0.4-0.2 0.4 0.3 0.8-0.1 1.1-0.5 2.4-2 1.7-1.1 0.7-0.7 0.1-0.2-0.3-0.5-0.2-0.2-0.3-0.2-0.2 0-2.6 0.2-0.3-0.1-0.4-0.2-0.8-0.9-1.3-1-0.2-0.3 0-0.4 0-0.6 0.2-1 0.1-0.6-0.1-0.5-0.9-1.5 0.1-0.4 0.3-0.2 0.6 0 3.7 0.9 1.8 0 0.7-0.2 1.6-1.1 1.2-1.1 0.6-0.6 0.7-0.3 0.6-0.1 1-0.4 0.5-0.6 0.2-0.4-0.1-0.3-0.2-0.4-0.3-0.4-0.8-0.9-0.2-0.4-0.1-0.5-0.1-0.6 0.4-2.4 0.4-0.7 0.6-0.3 0.6-0.3 1-0.6 0.5-0.2 0.3 0.1 0.2 0.3 0 0.4 0.2 0.4 0.3 0.9-0.7 1.3-0.2 0.5 0 0.4 0.2 0.2 0.5 0.2 2.1 0.2 0.8 0.4 1.2 0.9 0.7 0.3 0.7 0 4.3-1.9 5-4 1.8-0.5 0.9 0.3 0.5-0.6 0.6-1 1-2.6 0.2-1.1 0-0.8-0.2-0.3-0.3-0.6-0.2-0.1-0.3 0-0.7 0.2-0.3-0.4-0.4-0.9 0.3-2.6 0.1-1.1-0.4-0.8-3.3-1.5-0.7-0.2-0.4-0.4-0.3-0.7-0.4-2.2 0.2-1.2 0.8-1.5 4.4-5.3-8.7-7-0.9-2.7 0-0.5 0.1-0.6 1.2-2 1.3-3.2 0.4-1.3 0-1-0.4-0.4-0.4-0.9-0.5-0.8-0.9-1-0.5-0.5-0.7-0.3-0.9 0-0.5-0.5-0.6-0.8-2.7-5.4-0.7-1.1-1.2-1.3-1.1-1.7-0.6-0.6-1.5-1.3-0.3-0.5 0.1-0.5 0.3-0.4 0.4-1-0.1-0.5-0.5-0.3-2.8-0.1-0.7-0.1-0.5-0.3-0.9-0.9-1.1-0.9-0.5-0.5-0.3-0.3-0.4-0.2-0.3 0-2.2 0-2.1-0.8-0.5-2.7 1.4-2.8 2.4-3.8 0.8-1.1 0.6-0.6 1.5-1-8.7-8.7 0.8-1.9 0-1.5 1.8-0.9 0.3-0.3 0.3-0.5 1.1-3 0.3-0.4 0.6-0.1 0.5 0.1 0.6-0.1 0.4-0.2 0.5-0.5 2.9-3.8 0.8-1.7 0.9-2.8 0-2.2-0.4-1.8-0.6-1.1-0.7-0.9-0.6-0.8-0.6-0.4-0.6-0.3-1.6-0.5-0.3-0.3-0.4-0.3-0.4-0.3-0.8-0.2-1 0.8-1.4 1.8-4.5 7.3-0.2 0.4-0.1 0.2-0.3 0.1-0.3 0.1-0.3 0.1-1 0.7-0.7 0.7-0.4 0.5-0.3 0.5-0.3 1-0.3 0.5-0.3 0.3-1.2 0.8-1.5 0.7-0.7 0.5-0.6 0.7-0.6 1.5-0.7 0.7-1.3 0.4-1.9 0.1-2.9 0.8-2.2 1.3-6.6 2.9-0.9 0.2-1.6-0.5-7-3.3-2.1-0.6-1 0 0.5 1.2 0.2 0.6-0.1 0.4-0.5 0.1-7.3 0.3-9.6 3-0.6 0z" id="SKTA" name="Trnavský">
  </path>
  <path d="M287.6 89.1l0.8 1.1 2.8 0.9 0.1 1.9 0 0.5 0.1 0.5 0.2 0.4 9.8 16.4 0.4 0.9 0.2 0.6 0 0.4-0.3 0.6 0 0.3 0.1 0.4 0.8 1.6 0.2 0.5 0.1 0.4-0.1 0.2 0.3 0.6 2 3.6 0.9 1.2 0.8 0.9 3.9 2.6 0.2 0 0.6 0 0.4 0.1 0.5 0.4 1.9 1.8 0.7 0.5 0.6 0.2 0.9 0.3 3 1.8 0.8 0.8 1.3 1.8 0.4 1.2 0.1 1.8-0.1 0.9 0.2 1 0.1 0.5 2 3.1-4.3 4.5-0.6 0.9 0.2 0.4 0.3 0.1 0.6 0 2.3 0.7 0.3 0.2 0.4 0.4 0.3 0.4 0.3 0.4 0.4 1.1 0.2 0.3 0.3 0.2 0.6 0.3 0.2 0.2 0.3 0.3 0.2 0.3 0.1 0.4-0.1 0.5-0.2 0.9-0.1 0.5 0 0.3 0.1 0.3 0.1 0.4-0.1 0.4-0.3 0.7-0.1 0.5-0.1 0.5 0.5 3.2-0.3 1.4-0.8 1.6-2.2 3-1.8 2.2-1.5 1.3-4.8 1.3-1 0.6-0.9 0.9-1.5 2.7-0.9 0.9-0.7 0.6-4.7 2.7 0.9 2 1.4 1 2.9 0.6 2.2 0.7 0.6 0.1 1.2-0.2 4.3-2.5 1.1-1.1 0.5-0.8 0.1-0.4 0.1-0.4 0.2-0.4 2.1-2.3 0.4 0 0.4 0.4 1 2 0.3 0.4 1.5 0.1 5.2-1.6 6.6 1.8 3.1 0.3 0.9 0.5 0.6 0.4 3.2 4.2-0.8 0.7-0.3 0.5-0.4 0.4-0.4 0.3-0.3 0.2-0.2 0.3-0.1 0.3-0.1 0.4-0.2 0.5-0.2 0.5-0.4 0.7-0.3 0.5 0.1 0.9 0.9 3.7 0.1 1.3-0.1 0.9-0.4 1.5-0.1 0.6 0 0.7 0.2 1.1 0.1 0.6-0.1 0.6-0.2 1.5 0 1.4 0.4 0.8 0.6 0.9 3.6 3.3 0.5 0.3 0.3 0.1 0.8 0.3 0.4 0.2 0.6 0.4 0.4 0.2 0.6 0.2 2.6 2.4 0.9 0.5 0.5 0.4 0 0.2-0.4 0.5-0.1 0.6 0.1 0.8 0.5 1.7 0.6 1.2 1 1.7 5.5 6.8 0.5 0.8 0.4 2.3-0.1 1.6-0.2 0.5-0.3 0.6-0.6 0.8-1.9 4-2.2 3.4-0.6 0.4-0.7 0.2-2.4 0.1-0.9 0.5-0.7 1-3.8 7.2-0.6 0.8-2.3 2-0.6 0.6-0.2 0.5 0.3 2.1 0 1-1.1 0.3-0.9 0-8.7-2.4-4.3 6.2-2.3 2.8-0.8 1.1-0.4 0.7-0.2 0.7-0.1 0.5 0 0.4 0 0.3 0 0.4-0.1 0.4-0.5 1.6-0.1 0.4-0.1 0.5-15.6 2-1.8 3.9-11.2 6.8-5.1 4.5-2.4 1.4-0.3 0.3-0.1 0.2 0 0.3-0.2 0.2-0.4 0.1-1.1-0.9-1-1.5-0.3-0.2-0.3 0.2-0.5 0.8-0.3 0.9-0.1 0.2-1.1-0.1-3.9-1.4-1.8-5.4-1.5-3.4-0.7-0.8-3.2-2.1-0.8-0.9-0.6-0.5-0.6-0.3-1.9 0.1-0.7-0.2-0.4-0.5-0.1-1.1-0.5-0.6-0.4-0.5-0.3-1 0.1-1.6 1.3-2.4 1.4-2 0.9-2.3-0.1-1.5-1.3-2.1-1.8-1.8-2.8-0.7-6.9-4-1.3-1.8-1.7-3.3-0.9-1.1-3.5-3.7-1.3-0.8-11.3-2.4-0.3-0.4-0.2-1 0.1-0.7-0.1-0.5-0.4-0.3-0.5-0.3-3.3-0.3-1.2 0.9-0.8 1-0.1 0.7 0 0.8 0.3 1.5 0.2 1 0.1 1.1-0.1 1.6 0.2 0.7 0.1 0.4 0.2 0.2 0.1 0.2 0.2 0.4 0.2 0.8 0.7 1.5 0.1 0.2 0.1 0.1 0.2 0.1 0.1 0.1 0.1 0.4 0.2 0.2 0.2 0.2 0.1 0.2 0.2 0.3 0.3 1.6 0.1 1.3-0.1 1.1-0.3 1.5-0.2 0.6-0.4 0.3-0.6-0.3-0.5-0.3-0.6 0.2-0.4 0.3-3.1 3.4-15.5-3.4-0.3-0.5-0.3-0.6-1-1.1-0.8-0.4-0.9-0.1-0.6 0.3-0.5 0.3-0.9 0.3-0.6-0.1-0.7-0.7-1.3-2.1-1.3-1.2-0.6-0.4-0.4-0.1-0.2 0.1-0.1 0.3 0.1 0.4 0 0.3 0.1 0.4-0.1 0.3-0.9 0.2-5.5 0.1-3-0.4-2.9-1.5-0.6-0.4-0.3-0.4-1.7-3.2-1.4-1.7-2.2-1.1-2.6 0.8-5 2.1-1 0.9-0.5 0.3-0.5 0.1-1.5 0-0.4-0.2-1.1-1.2-0.4-0.1-0.3 0.1-0.1 0.4-0.1 0.4-0.1 1.1 0.1 0.7 0 0.4-0.1 0.3 0 0.4 0.1 0.5-0.5 0.6-0.5 0.9-5.2 1.6-2.2-1.3-0.4 0-0.4 0.1-0.3 0.3-0.3 0.3-1.1 0.6-3.7 3.3-3.5-7.6-1.8-2.6-1.5-1.6-0.7-0.8-0.4-0.7-0.5-2.7-0.4-0.7-0.9-0.8-0.3-0.6-0.1-0.6 0.2-0.8 0.3-0.7 0.6-1.1 0.3-0.6 0.3-0.9 0.2-0.5 0.6-0.6 0.3-0.7 0.1-1.6-0.5-1.6-0.9-1.5-1.3-1.8-0.6-0.8-0.5-0.4-1.4-0.4-0.3-0.1-0.4-0.2-0.2-0.3-0.3-0.1-1.5-1.8-1.9-2.7-0.9-0.9-0.7-0.1-2.7 3.4-0.5 0.4-0.4 0.2-0.5 0-2-0.5-3.5-1.4 5-4.7 1.7-2.4 1.5-3.5 0.4-1.5 2.9-1.9 3.8-1.1 2.4 1.1 4.3 4.6 1 1.6 2.2 0.7 1.8-0.8 0.3-0.2 1.1 0.2 17.7-7 13-5.1 2.8-2.3 5.5-9.5 2.6-2.2 3.9-0.7 3.4 0.6 3-0.2 2.9-2.8 0.2-0.3 0.4-1.1 0.8-2 1.2-7.5 1-3.6 2.1-4.3 3.3-2.1 3.9-0.6 8.6 0.6 5.3-2.4 4.7-4.4 0-0.1 3.3-5.5 1-5.4-0.2-10.9 0-1.4 0.6-6.6 2-8 3-7.4 1.3-2.2 2.5-4.1 4.7-4.5 21.5-8.4 5.9-4.6z" id="SKTC" name="Trenciansky">
  </path>
  <path d="M362.9 231.8l6.8-4.8 2-0.7 0.2 0.4 0.2 0.5 0.2 0.5 0.2 0.4 0.2 0.3 0.3 0.3 0.3 0.6 0.1 0.4 2.7 0.6 13.6 0.8 2.2-4 0.3-1.5 0.6-2.8 0-1.2-0.1-0.8-0.2-0.3-2.1-2-0.9-1.7-0.2-1.1 0.2-0.7 0.5-0.6 0.6-0.9 0.2-1-0.2-1.4-0.9-3 0-0.8 0.4-0.6 2.6-1.3 0.8-0.8 0.5-0.7 1.8-4.2 7.6 0.4 26.4-3.8 1.2 0 0.3 0.4 0.2 0.9 0.3 0.3 0.5 0.2 0.3 0.6 0.4 0.8 0.2 2 0.1 0.9 0 0.6-0.2 0.1-0.6 0.1-0.2 0.1-0.2 0.3-0.3 1 0.3 0.2 0.4 0 6.6-1 0.8-0.3 0.9-0.7 0.3-0.4 0.2-0.4 0.2-0.4 0.2-1.6 0.3-0.9 1.7-2.2 3.3-2 5.4-6.6 26.8-4.6 12.1 1.5 10.2 3.8 1.2 1 0.9 1 0.6 0.3 1.6 0.4 0.6 0.3 0.5 0.5 0.4 0.5 0.8 0.8 0.6 0.2 0.6 0 1.9-1.1 7.3-2.1 1.5 0.1 4.5 1.2 15.3 0.3 0.4-0.1 1.9-0.2 2.8-1.3 0.9-0.1 0.7 0.1 2 1.6 23 2.9 3.1-0.2 2.4-2.2 1.1-0.1 2.9 1.6 3.1 1 0.9 0.4 1.2 1 6.5 3.8-3.6 1.1-7.5 11.3-0.7 1.4 0.1 1.2 0 0.8-0.1 0.6-0.1 2.3-0.1 1.9 0.5 2.4 0.1 1.3-0.7 1-0.8 1-0.8 0.8-0.5 0.7-0.4 0.6-0.1 1.1 0 1.4 0.6 2.9 0.6 1.4 1.3 1.3 1.8 0.3 0.3 0.3 8.2 6.8 0.9 1.7 3.3 9.7 1.1 4.5-0.1 0.4-0.2 0.5-0.1 0.5 0.1 0.5 0.2 0.5 0.6 0.5 1.5 0.8 1.1 0.3 1.7 0.3 0.6 0.1 1.3 0.8 1.4 0.5 0.4 0.3 0 0.4-0.4 1.6-0.6 3.2-0.3 0.7-0.3 0.6-0.4 0.6-0.4 0.8-0.4 0.9-0.4 1.3-1.2 5.7-0.4 1-0.9 1.4-0.6 1.2-0.4 1.1-0.3 1.6 0.1 0.9 0.2 0.9 0.5 1.1 0.2 0.7 0 0.7-0.1 0.6-0.1 0.6 0.4 0.8 0.8 0.7 2.8 1.8 0.4 0.4-0.2 0.4-0.3 0.5-0.2 0.4-0.1 0.4 0.1 0.2 0.7 0.1 6.7-0.5 2.5 0.3 1.3-0.1 2.8-1.5 1.2-0.4 3.5-0.1 2.6 2 0.1 0.1-4.8 5.1-2.4 3.2-1.9 3.7-6.2 19.1-3.3 6.9-4 6.1-4.6 4.7-3.7 1.9-1.9-0.8-1.8-2-3.2-1.6-1.8 0.8-4.8 4.5-2.7 1.2-2.8-0.3-1.6-0.6-1.4 0.2-2 2.4-0.6 1.7-0.9 4.3-1.1 2.1-1.4 1.1-3 1.2-6.3 3.9-0.6 0.3-6 1.9-3.7 2.3-7.2 6.7-3.8 1.4-3.3-1.3-6.1-5.5-3.9-1.2-5.8 2.2-1.5-0.2-1.5-2.3 0.4-2 0.9-2.1-0.1-2.3-2.8-3.5-3.8-0.6-7.3 1.4-1.6-0.8-3.5-4.3-1.8-1.5-1.6-0.5-1.7-0.1-14.7 4-2.7 1.6-1.8 3.4-1.5 9.3-1.9 3.8 0 0.1-0.1 0.1 0.1 0.2 0 0.1 0.3 1.3 0.1 1.3-0.1 1.3-0.3 1.2-8.5 6.1-21.6-0.4-9.5 6.1-1.7 0.3-19.8-2.4-9.6 1.4-3.1-0.1 0-0.1-0.2-2.2-0.1-3 0.3-0.8 1.8-2.6 0.5-1.2 0.5-0.7 0.6-0.6 0.8-0.5 0.7-0.6 0.9-1 1.2-1.6 0.5-1.6 0.1-1.7-0.9-4.4-0.1-1.2 0.5-1.8 0.3-1 0.3-0.7 0.7-1 0.2-0.5 0-0.4 0-0.8 0.1-0.4-0.2-0.6-0.2-0.4-2.2-2.4-2.5 2.4-0.9 0.6-0.8 0.4-0.8 0.1-0.5 0-1-0.2-0.4 0.1-0.6 0.2-2.6 0.7-2.3 1.1-0.8 0.3-1.1 0.2-1.3 0.4-0.6 0.4-0.6 0.3-1.1 0.3-0.6 0.4-0.5 0.6-0.5 1-0.2 0.8 0 0.5-0.1 0.2-0.2 0.2-0.3 0-1-0.1-0.7 0-1.5 0.5-0.8 0.1-0.8-0.1-1.3-0.4-0.5 0-0.8 0.1-0.5 0-0.6-0.2-0.8-0.4-3.1-2.4-0.7-0.4-0.8-0.2-0.8-0.1-0.7 0-0.5 0.3-0.4 0.5-0.4 0.8-0.3 0.5-0.4 0.3-0.4 0.1-0.5-0.1-0.3-0.3-0.5-0.7-0.3-1-0.3-1.2 0-1.4 0.3-1.1 0.9-1.2 1-1 0.7-0.9 0.7-0.3 0.2-0.4 0-0.8-0.6-1.5-1.3-2.4-0.3-0.9 0.1-0.6 0.6-0.5 0.2-0.4 0-0.3-1.4-1.6 0.1-0.8 0.5-1.2 1.9-2.4 1.9-2 0.5-1.1 0.3-0.9 1.4-6.8-6.3-14.4-1-1.2-4.1-3.5-4.6-6.8-1.9-0.5-0.7 0.3-0.9 0.6-1.5 1.8-2.3 2.3-0.5 0.6-0.5 1-1 1-0.2 0.5 0 0.6-0.2 0.5-0.3 0.6-0.7 0.7-0.2 0.8 0 0.8-0.2 0.5-0.4 0.7-5.1 1.6-10 1.6-2 0.7-1.3 1.4-1.1 1.7-0.3 0.4-1.1 1-0.5 0.5-0.5 1-0.7 0-1.6-2.7 0.8-1.1 1.3-1.4 0.4-0.5 0.3-0.6 0.2-0.7 0.1-0.5 0.3-0.5 1.1-0.9 0.5-0.6 0.6-1 0.5-1.2 0.3-1.4 0.2-1.6-0.2-1.9-0.7-3.2-1.2-2.3-0.8-1-0.8-0.2-0.4-0.1-0.4-0.3-0.1-0.8 0.2-1.4 0-1.4-0.4-1.4-1.4-2.4-0.5-1.3 0.2-1.6 0.4-0.7 1.3-1.8 0.2-0.4-0.1-0.3-0.9-0.2-0.3-0.3 0-0.7 0.2-1.5 0.2-1.1 0-1.2-0.3-1.1-0.6-0.7-1.3-0.4-1.4 0-3.9 0.8-0.4-0.3 0.2-0.9 1-1.9 2.4-2.8 0.3-0.6-0.3-0.8-1.1-0.7-2.3-3.6 1.8-3.9 15.6-2 0.1-0.5 0.1-0.4 0.5-1.6 0.1-0.4 0-0.4 0-0.3 0-0.4 0.1-0.5 0.2-0.7 0.4-0.7 0.8-1.1 2.3-2.8 4.3-6.2 8.7 2.4 0.9 0 1.1-0.3 0-1-0.3-2.1 0.2-0.5 0.6-0.6 2.3-2 0.6-0.8 3.8-7.2 0.7-1 0.9-0.5 2.4-0.1 0.7-0.2 0.6-0.4 2.2-3.4 1.9-4 0.6-0.8 0.3-0.6 0.2-0.5 0.1-1.6z" id="SKBC" name="Banskobystrický">
  </path>
  <path d="M185.1 464.5l0-0.1 1.3-1.3 0.6-1.7 1.1-5.6 0.4-0.8 0.3-0.4 0.4 0.1 0.7 0.4 0.3 0 0.3 0 0.4 0.1 0.3 0.1 1-0.2 1.3-0.7 3-2.4 1.1-1.1 0.7-1 0.1-5.1 0.5-1.6 0.6-1.1 0.9-1 0.5-0.4 0.4-0.1 0.3 0.1 0.6-0.4 1.2-0.9 1.8-2.6 3.8-3.4 2.7-1.7 1-1 0.2-0.9-0.5-1.1-1-1.8 0.3-2.8 0.3-0.8 0.2-0.8 0.1-0.9-0.2-0.9-0.2-0.7-1.2-1.1 0.4-6.1-1.1-8.3 0.8-5.2-0.1-1.3-0.4-0.9-0.4-0.4-0.4-0.1-0.5 0-0.3 0-0.7-0.3-1.1-0.1-0.5-0.2-0.7-0.6-0.3-0.4 0.1-0.6 0.6-1.9-0.3-0.8-0.5-0.3-1 0.1-2.6 1-0.8 0-0.7-0.2-1.1-0.9-0.5-0.6-0.1-0.8 0.3-0.9 1.3-3.3 0.1-1.9-0.9-1.7-7-7.8 0-0.8 0.6-0.7 2.6-1.1 0.8-0.1 0.6 0.1 1.1 0.6 1.1 0.7 0.5 0.1 0.4 0 0.5-0.2 0.5-0.2 0.3-0.4 0.3-0.4 0.4-1.2 0.1-1.4-0.5-1.3-1.3-2.7-0.5-1.1 0-0.7 1.1-0.5 0.6-0.4 0.3 0 0.5 0.2 2.2 2.7 0.3 0.2 0.4-0.1 1.8-1.4 2.6-1.6 0.7-0.6 0.5-0.8 0.5-1.8 0-1.3-0.3-0.9-0.5-0.8-1.6-1.6-0.4-0.4-0.4-0.1-0.4-0.4-0.5-0.7-0.6-1.9-0.2-0.8 0.2-0.8 0.4-0.4 0.5-0.9 0-0.6-0.3-0.7-0.1-0.6 0.3-0.7 0.7-1 1.1-1.9-4.2-3.8-0.2-0.5-0.2-0.7 0.4-0.4 0.4-0.4 0.2-0.6 0.7-4.1 0.1-0.9 0.1-1 0.2-0.7 0.7-3.5 2.7-2.7 11.3-20.4 3.5-3.9-7.2-7.3-3.5-2.9-0.6-0.3-0.4 0-7-3.7 2.7-3.1 0.3-0.5 4.9-12.7 0.7-1.2 0.5 0 0.5 0.2 2 1.4 1 0.1 1.4-0.1 7.4-3 0.8-0.6 0.3-0.5-0.1-0.5-0.2-0.4-0.4-1.5 3.1-3.4 0.4-0.3 0.6-0.2 0.5 0.3 0.6 0.3 0.4-0.3 0.2-0.6 0.3-1.5 0.1-1.1-0.1-1.3-0.3-1.6-0.2-0.3-0.1-0.2-0.2-0.2-0.2-0.2-0.1-0.4-0.1-0.1-0.2-0.1-0.1-0.1-0.1-0.2-0.7-1.5-0.2-0.8-0.2-0.4-0.1-0.2-0.2-0.2-0.1-0.4-0.2-0.7 0.1-1.6-0.1-1.1-0.2-1-0.3-1.5 0-0.8 0.1-0.7 0.8-1 1.2-0.9 3.3 0.3 0.5 0.3 0.4 0.3 0.1 0.5-0.1 0.7 0.2 1 0.3 0.4 11.3 2.4 1.3 0.8 3.5 3.7 0.9 1.1 1.7 3.3 1.3 1.8 6.9 4 2.8 0.7 1.8 1.8 1.3 2.1 0.1 1.5-0.9 2.3-1.4 2-1.3 2.4-0.1 1.6 0.3 1 0.4 0.5 0.5 0.6 0.1 1.1 0.4 0.5 0.7 0.2 1.9-0.1 0.6 0.3 0.6 0.5 0.8 0.9 3.2 2.1 0.7 0.8 1.5 3.4 1.8 5.4 3.9 1.4 1.1 0.1 0.1-0.2 0.3-0.9 0.5-0.8 0.3-0.2 0.3 0.2 1 1.5 1.1 0.9 0.4-0.1 0.2-0.2 0-0.3 0.1-0.2 0.3-0.3 2.4-1.4 5.1-4.5 11.2-6.8 2.3 3.6 1.1 0.7 0.3 0.8-0.3 0.6-2.4 2.8-1 1.9-0.2 0.9 0.4 0.3 3.9-0.8 1.4 0 1.3 0.4 0.6 0.7 0.3 1.1 0 1.2-0.2 1.1-0.2 1.5 0 0.7 0.3 0.3 0.9 0.2 0.1 0.3-0.2 0.4-1.3 1.8-0.4 0.7-0.2 1.6 0.5 1.3 1.4 2.4 0.4 1.4 0 1.4-0.2 1.4 0.1 0.8 0.4 0.3 0.4 0.1 0.8 0.2 0.8 1 1.2 2.3 0.7 3.2 0.2 1.9-0.2 1.6-0.3 1.4-0.5 1.2-0.6 1-0.5 0.6-1.1 0.9-0.3 0.5-0.1 0.5-0.2 0.7-0.3 0.6-0.4 0.5-1.3 1.4-0.8 1.1 1.6 2.7 0.7 0 0.5-1 0.5-0.5 1.1-1 0.3-0.4 1.1-1.7 1.3-1.4 2-0.7 10-1.6 5.1-1.6 0.4-0.7 0.2-0.5 0-0.8 0.2-0.8 0.7-0.7 0.3-0.6 0.2-0.5 0-0.6 0.2-0.5 1-1 0.5-1 0.5-0.6 2.3-2.3 1.5-1.8 0.9-0.6 0.7-0.3 1.9 0.5 4.6 6.8 4.1 3.5 1 1.2 6.3 14.4-1.4 6.8-0.3 0.9-0.5 1.1-1.9 2-1.9 2.4-0.5 1.2-0.1 0.8 1.4 1.6 0 0.3-0.2 0.4-0.6 0.5-0.1 0.6 0.3 0.9 1.3 2.4 0.6 1.5 0 0.8-0.2 0.4-0.7 0.3-0.7 0.9-1 1-0.9 1.2-0.3 1.1 0 1.4 0.3 1.2 0.3 1 0.5 0.7 0.3 0.3 0.5 0.1 0.4-0.1 0.4-0.3 0.3-0.5 0.4-0.8 0.4-0.5 0.5-0.3 0.7 0 0.8 0.1 0.8 0.2 0.7 0.4 3.1 2.4 0.8 0.4 0.6 0.2 0.5 0 0.8-0.1 0.5 0 1.3 0.4 0.8 0.1 0.8-0.1 1.5-0.5 0.7 0 1 0.1 0.3 0 0.2-0.2 0.1-0.2 0-0.5 0.2-0.8 0.5-1 0.5-0.6 0.6-0.4 1.1-0.3 0.6-0.3 0.6-0.4 1.3-0.4 1.1-0.2 0.8-0.3 2.3-1.1 2.6-0.7 0.6-0.2 0.4-0.1 1 0.2 0.5 0 0.8-0.1 0.8-0.4 0.9-0.6 2.5-2.4 2.2 2.4 0.2 0.4 0.2 0.6-0.1 0.4 0 0.8 0 0.4-0.2 0.5-0.7 1-0.3 0.7-0.3 1-0.5 1.8 0.1 1.2 0.9 4.4-0.1 1.7-0.5 1.6-1.2 1.6-0.9 1-0.7 0.6-0.8 0.5-0.6 0.6-0.5 0.7-0.5 1.2-1.8 2.6-0.3 0.8 0.1 3 0.2 2.2 0 0.1-3.6-0.2-2.4 1.1-7.7 1.7-15.2 3.5-2.7 2.2-4.3 8.9-1.5 1.4-3.1 0.5-1.5 0.8-2.1 2.6 0.2 0.9 1.2 0.9 0.5 2.8-1.6 9.8-0.4 5.1 1 4.4 4.7 4.6 6.1 4.5-0.2 0.1-3.9 1.4-3.7 0.9-2.7 2.1-5.3 6.1-3.9 2.4-4.7 0.5-4.7-1-5.8-2.5-7.2-0.6-32.7 3.8-11.9 4.9-5.9 0.6-19.7-2.1-36.6 2.4-9.2 0.6-13.4-3.6-3.6-2z" id="SKNI" name="Nitriansky">
  </path>
 </g>
 <g id="points">
  <circle class="47.84259512918085|17.129238249688164" cx="90.9" cy="448.1" id="0">
  </circle>
  <circle class="48.583304440325136|19.97681637972668" cx="545.5" cy="270.7" id="1">
  </circle>
  <circle class="49.509191079255494|22.254878883757495" cx="909.1" cy="45.2" id="2">
  </circle>
 </g>
 <g id="label_points">
  <circle class="Žilinský" cx="415.4" cy="135.4" id="SKZI">
  </circle>
  <circle class="Prešov" cx="742.9" cy="134.5" id="SKPV">
  </circle>
  <circle class="Košický" cx="717.7" cy="240.8" id="SKKI">
  </circle>
  <circle class="Bratislavský" cx="98.7" cy="337.5" id="SKBL">
  </circle>
  <circle class="Trnavský" cx="176.3" cy="308.4" id="SKTA">
  </circle>
  <circle class="Trenciansky" cx="267" cy="196.3" id="SKTC">
  </circle>
  <circle class="Banskobystrický" cx="473.4" cy="273" id="SKBC">
  </circle>
  <circle class="Nitriansky" cx="269" cy="380.9" id="SKNI">
  </circle>
 </g>
</svg>