<?xml version="1.0"?>
    
<!--********* Copyright (c) 2024 Pareto Softare, LLC DBA Simplemaps.com ***************************************
************* Free for Commercial Use, full terms at  https://simplemaps.com/resources/svg-license ************
************* Attribution is appreciated! https://simplemaps.com *******************************************-->

<svg baseprofile="tiny" fill="#6f9c76" height="736" stroke="#ffffff" stroke-linecap="round" stroke-linejoin="round" stroke-width=".5" version="1.2" viewbox="0 0 1000 736" width="1000" xmlns="http://www.w3.org/2000/svg">
 <g id="features">
  <path d="M877.5 539.4l0.3 1.6 1.3 0.4 3.9 1.9 1.2 0.9 0.5 1.1 0.9 2.9 0.7 1.1 1.3 1-0.1 0.2 0.4 0.5 0.5 0.2 1.3-0.2 1.2-0.2 0.8-0.1 0.6 0 0.4-0.2 0.2-0.6 0.2-1 0.5-0.9 0.4-0.7 0.7-0.4 0.8-0.1 0.2 0 0.8-0.1 0.8-0.9 0.2-0.7 0.3-1.3 0-0.5 0.6-1 0.4-0.7 0.8-0.9 0.6-0.9 0.6-0.7-0.1-0.8-0.1-0.5-0.2-0.6 0.1-1.1 0.3-0.4 0.1-0.1 0.2-0.1 1.9 0.3 1.1 1.2 0.8 1.5 1.5 1.1 1.4 0.2 2.9-0.6 3.7-0.1 0.7 0.6-0.2 2.2 0.4 1.5 1.6 0.2 1.8-0.5 0.1 0 0.1 0 0.9-0.1 0 2.9 1.1 2.9 3.6 5.1 3.4 3 0.6 1.5-0.2 1.6-1.9 2.8-0.6 1.6 0.5 2.7 1.4 1.9 1.7 1.6 1.4 2 0.1 5.3 0.7 2.5 2.6 0.6 2.1 1.2 1.7 1.3 1.9 1.2 2.4 0.6 1.5 0.6-0.1 1.1-0.8 1.1-0.3 0.9 2 3 0.8 1.8 0.6 1 0.6 0.5 1.3 0.6-0.3 0.6-0.8 0.7-0.5 0.6 0 1.3-0.3 2.9-0.4 1.5 2.3 0.5 1.7-0.7 1-1.8 0.3 0.1 0.6 0.2 0.3 0.4 0.3 0.3 0.4 0.4 0.3 0.1 0.1 0 0.2-0.2 0.1 0.7 0.4 3.9-0.5 0.9-1 0.6-0.1-0.2-0.2-0.2-0.3 0.2-0.3 0.4-0.2 0.7-0.2 0.2-0.6 0-0.9-0.5-1.1-0.4-1 0.5-0.1 1 0.8 0.8 0.8 0.8 0.3 0.8-0.6 1.5-0.8 1.6-0.6 1.5 0.5 2.5-0.2 0.6-0.5 0.7-0.3 0.8 0 0.9 0.6 0.4 0.7 0.1 0.4 0.1 0.2 0.2 0.5 0.7 0.6 1 0.5 1.3 0.3 1.6 0.2 1.8-0.4 1.6-1 1.1 0 0.7 1.6 2.8 0.2 1.4-0.7 1.3-1 0.1-0.4 0-0.7 0.1-0.4 0.4 0 0.5-2 0.6-1.5 4-1.2 0.8-0.9 1.1 0.2 2.2 0.5 0.4 1.1 0.4 1.2 0.8 0.7 1.6 0.1 1.6-0.8 4.7 0.1 1.6 0.4 1.1 0.1 1.1-0.3 1.4-0.1 0-0.2 0.4-2.8 1.3-1 1 1.6 0.6 1.1 0.7 1.7 3 1.2 1-0.1-1.1 0.5-1 0.5 0.1 0.9 0.3 0.1-0.1 0.3-0.1 0-0.4 0.6 1.6 0.3 1.2 0.9 2.5 0.3 1.4 1.2-1.9 0.3-0.8 1.8 2.6-0.3 3.5-1 4-0.2 4-4.1-0.2-9.7-3.5-5-0.5-12.7 1-6.1 1.1-11.4 4.3-5.6 0.9-12-0.5-3.1-0.7-8.9-3.7-0.2-0.3-0.3-0.1-1 0-0.6 0.2-1.7 1.2-5.6 3.1-2 0.4-3.1-0.4-8.9-2.9-3.7 0.1-2.6 1.3-4.9 4.5-5.5 3-24.9 6.6-2.4-1.3-4.2-6.4-2.6-1.9-6.4-2.4-3.1-0.7-2.6-0.1-2.5 0.5-2.8 1.1-4.3 2.4-1.2 0.3-0.1 0.1-2.1-0.1-0.6-0.6-0.1-1-0.8-1.5-4.1-4.6-2.5-2-2.8-1.2-3.1-0.3-9.5 0.5-3.1-0.4-0.8-1.2-0.7-1.5-2.3-1.2-4.4-0.3-1.4-0.5-1.6-1.5-0.3-1.3 0.3-1 0-0.6-3.6-3.2-5.8-3-5.4 0-2.4 6.1-0.5 2.9-1.7 1.5-2.4 0.1-2.7-1-2.8 0.3-2.6-0.2-2.2-1.2-1.7-2.5-0.6-2.9 0.5-2.5 2.2-5.1 0.6-2.6 0.1-3.1-0.6-2.8-1.9-2.1-2.3-0.3-2.5 0.4-2.7 0.1-2.7-1.4-1.4 1.7-1.1-0.8-1-0.1-1.1 0.1-1.3 0-1.8 0.6-0.6 0.1-0.7-0.3-1.4-1.6-0.8-0.4-1.1 0.1-2.5 0.7-1.3 0.2-1.3-0.2-1.8-1.2-1.3-0.3-1.3 0.1-4.4 0.9-0.7 0.3-0.3 0.4-0.5 0.4-0.8 0-0.7-0.2-1.3-1-0.7-0.2-0.4-0.2 0.4-2.3-1.2-3-1.9-0.9-0.9 0.2-0.7 0.3-1.1 0.5-1.6 0.3-3.4 0-1.9-0.3-1.6-0.6-1.9-1-1.1-0.8-1-1.3-0.3-0.9 0.2-0.8 0.7-1.3 0.3-0.8 0.3-5.6-0.2-0.9-0.4-0.9-0.4-1.4-1-1.1-0.3-1-0.1-0.9 0.2-0.8 0.3-0.7 0.9-1.3 0.3-0.7 0.1-0.8-0.5-0.7-0.7-0.5-0.1-0.5 0.6-0.1 0.7 0 0.9 0 0.6-0.3 0.2-1-0.6-1.1-0.6-3.6-0.6-0.6-2-1.4-1.4-1.5-0.5-1.3-0.5-2.4-0.7-1-0.3-0.8 0.2-0.7 0.5-0.6 0.3-0.8-0.7-4.7-0.2-0.6-0.7-0.3-0.9-0.2-1-0.5-0.3-0.6 0.2-0.6 0.4-0.7 0.3-0.9-0.4-0.6-1-1.1-1.1-1.4-1.6-1.7-2.3-1.4-0.3-0.8 0-0.9 0.1-0.9-0.1-1-0.5-0.6-0.8-0.4-0.8-0.7-2-2.2-1-2.3-0.3-1.3-0.1-2.5-0.7-1.2 0-1 0-0.8 0.3-0.9-0.1-2.4 0.2-1.1-0.2-3.3-0.3-1-0.5-0.7-0.7-0.4 0-1.4 3.4-1.6 0.1-8.1 2.5-1.8-0.5 2.6 0.9 1.1 1.7 0.5 1.5-0.3 0.8-1.8 0.8-0.9 2.2-1.1 2.9-0.8 1.9 0.6-1 3.3 1.9-0.8 1.2-3.6 1.4-0.8 6 0 5.7 1.1 1.9-0.8 1.5-0.9 1.3 0.2 1.4 2.4-1.5 2.5-1.1 1.3-0.7 1.3 0.1 2.3 0.6 1.2 0.4 1.1 0.1 1.3 0.5 0.6 1.1-0.1 0.9 0 0.5 0.5 0.4 0.9 1 0.7 1 0.5 0.7 0.5 0.1 0.8-0.6 1.4 0.9 1.5 0.6 2-0.6 2.1-0.3 2 1.9 1.6-6 2.2 0 0.9 3 1.4 0.6 3.7-0.3 4.6 0.7 3.9 2.8 3.3 2.9 0.7 6.5-1.9 4.2-1.6 2.2 0 4.3 0.5 3.9 1.3 2.6 2.2 2.6 0 1.3-2.2 1.3-1.3 3 0 3.5-1.8 2.6-1.3 8.2 0 3.1 1.3 2.6 2.7 2.1 0 3.5 3.5 3.9 2.7 3 0.9 1.3-2.2 0-1.8 1.3-1.3 2.6 0 2.2-0.9 0.4-2.7 1.3-1.3 3 0.4 2.2 0.9 2.2-0.4 0-2.7 1.3-2.7 3.4-2.2 2.2-2.7-0.9-3.5 0-3.6 2.2-1.8 3-0.4 3.1 0 2.6-1.4 1.7-1.3 2.2 1.3 2.1 1.4 3.5 0.4 4.8-1.3 2.6-1.8 1.7-3.1 0.4-3.1 1.8-2.2 3-0.5 0.9-2.2 2.1-1.8 3.9-0.9 3.5 0.9 2.2 2.7 1.7 1.3 1.7-0.4 0.9-2.7 1.3-1.8 0.9-3.5 1.7-0.9 4.8 0.9 3.9 0 2.1-2.7-0.8-3.6-4.4-5.3-0.8-2.7 2.1-2.2 0-3.6 3.5-1.3 4.3 2.6 3.9 3.2 4.4 2.2 4.3 2.7 5.2 1.3 3.9 1.3 0.9 3.2 0.8 3.5 3.1 0 3.9-2.7 3.9-4.4 5.2-1.3 8.6-1.6z" id="SNKE" name="Kédougou">
  </path>
  <path d="M877.5 539.4l-8.6 1.6-5.2 1.3-3.9 4.4-3.9 2.7-3.1 0-0.8-3.5-0.9-3.2-3.9-1.3-5.2-1.3-4.3-2.7-4.4-2.2-3.9-3.2-4.3-2.6-3.5 1.3 0 3.6-2.1 2.2 0.8 2.7 4.4 5.3 0.8 3.6-2.1 2.7-3.9 0-4.8-0.9-1.7 0.9-0.9 3.5-1.3 1.8-0.9 2.7-1.7 0.4-1.7-1.3-2.2-2.7-3.5-0.9-3.9 0.9-2.1 1.8-0.9 2.2-3 0.5-1.8 2.2-0.4 3.1-1.7 3.1-2.6 1.8-4.8 1.3-3.5-0.4-2.1-1.4-2.2-1.3-1.7 1.3-2.6 1.4-3.1 0-3 0.4-2.2 1.8 0 3.6 0.9 3.5-2.2 2.7-3.4 2.2-1.3 2.7 0 2.7-2.2 0.4-2.2-0.9-3-0.4-1.3 1.3-0.4 2.7-2.2 0.9-2.6 0-1.3 1.3 0 1.8-1.3 2.2-3-0.9-3.9-2.7-3.5-3.5-2.1 0-2.6-2.7-3.1-1.3-8.2 0-2.6 1.3-3.5 1.8-3 0-1.3 1.3-1.3 2.2-2.6 0-2.6-2.2-3.9-1.3-4.3-0.5-2.2 0-4.2 1.6-6.5 1.9-2.9-0.7-2.8-3.3-0.7-3.9 0.3-4.6-0.6-3.7-3-1.4 0-0.9 6-2.2-1.9-1.6 0.3-2 0.6-2.1-0.6-2-0.9-1.5 0.6-1.4-0.1-0.8-0.7-0.5-1-0.5-1-0.7-0.4-0.9-0.5-0.5-0.9 0-1.1 0.1-0.5-0.6-0.1-1.3-0.4-1.1-0.6-1.2-0.1-2.3 0.7-1.3 1.1-1.3 1.5-2.5-1.4-2.4-1.3-0.2-1.5 0.9-1.9 0.8-5.7-1.1-6 0-1.4 0.8-1.2 3.6-1.9 0.8 1-3.3-1.9-0.6-2.9 0.8-2.2 1.1-0.8 0.9-0.8 1.8-1.5 0.3-1.7-0.5-0.9-1.1 0.5-2.6-2.5 1.8-0.1 8.1-3.4 1.6 0 1.4-1.8 0-0.9-0.2-1.1-0.8-0.4-0.9-0.3-1.1-0.2-1.3-0.4-0.8-0.7-0.4-2.1-0.8-1.5-1-0.5-0.9-0.2-0.9 0.4-1.6 0.2-1-0.1-1.1-0.5-0.8-0.8-0.4-0.8-0.6-0.3-0.7 0.1-0.6 1.3-1.9 0.4-0.7 0-1-0.5-0.5-0.8-0.3-1.9 0.1-3.6 0.7-1 0.1-0.9-0.1-1-0.1-0.9-0.3-0.9-0.5-0.3-0.7 0.2-0.7 0.4-0.6 0.4-0.5 0.4-0.6 0.4-0.7 0.2-0.8 0.1-1-0.1-0.9 0.1-0.8 0.1-0.8 0.4-0.7 0.3-0.7 2.7-2.6 0.5-0.6 0.3-0.8-0.2-0.4-0.4-0.3-1.6-0.4-2.2-0.9-0.8-0.1-0.9-0.1-0.8 0.2-0.8 0.3-1.3 0.8-0.7 0.2-0.9-0.1-1-0.8-0.4-0.9 0-0.9 0.3-0.7 0.4-0.6 0.6-0.8 0.1-0.2 0-0.5 0-1.5 0.6-1.5 0.1-0.9-0.4-0.6-0.7-0.2-1.6 0-1.6-0.2-0.7 0.2-0.6 0.4-0.4 0.6-0.2 0.8-0.3 0.7-0.6 0.5-0.8 0.2-1.6 0.2-1.4 0.5-1.9 0.9-0.3-0.3-0.8-1.2-0.9-2.9-0.8-1.3-2.5-2.1-3.5-1.8-3.8-1.3-3.1-0.5-1.9 0.3-3 1.8-1.8 0.7-1.5 0.3-2.6-0.2-1.6 0-3 0.8-6.8 3.5-8.5 1.9-2.8 1.2-8.2 5.2-8.7 3.1-2.5 0.6-2.7-0.4-3.6-1.6-10.7-7.8-1.2-0.8-1.5-1.7-0.9-2-2-6.6-1.4-2.9-2-2.5-2.8-2.3-6.4-3-6.1-0.5-5.9 1.7-9.1 5.1-1.8 0.5-2.1-0.7-6.1-3.7-1-1.2-2.9-9.8-1.3-2.8-1.8-2.6-2.5-2 0.6-2 2.7-4.6 1.8-2.5 2-2.2 1.5-0.6 1.8-0.3 1.9-0.1 0.8-0.1 1.5-0.7 6.8-1.7 0.7-0.4 3.5-2.8 8.6-8.4 0.5-0.7 0.3-1.1 0.3-1.8-0.2-2.7 0.6-2.7 0.2-0.3 0.6-0.3 1.4-0.5 1.4-0.7 0.6-0.8 0.6-1.2 1.3-6.3 0-2.5-0.3-3-1.3-6.8-0.7-11.5-0.8-2.7-1.8-2.8-3.4-9.9 0.1-28.7 18.3-4.5 7.1-5.1 4.4-5.2 2.7-2.4 2.2-1.1 6.1-2 6.4 6.1 1.3 2.8 2.7 2.1 2.5 1.4 64.2 24.5 7.3 1.1 40.4-0.6 1.6-0.8 38.8-28 1.2-0.6 1.6-0.5 39.8 7.4 6.4-0.1 22.2-2.9 1.8-0.9 1.8-2 12.1-18.5 11.3-28.7 0.2-1.3 0.1-1.2-0.7-3.5-1.1-2.5-15.5-20.7-0.3-1.1 1.5-0.2 4.7-1.5 2.3-0.3 1.3 0.5 1.2 1.1 1.9 2.5 8.1 4.8 2.6 2 1.6 0.9 3.4 0.8 1.6 0.9 1.3 1.4 0.7 1.5 3.4 12.2 0.1 1.6 2 1.3 5 5.9 2.6 2.2 9.3 4.4 8.2 6.5 1.1 4.4 3 2.7 0.9 2.1 1.1 1.7 2.1 1 0.2 0.2 0.7 0.3 0.4 0.1 0.8 0.1 1.7 0 0.3 0.1-0.7 1.6-0.7 1.1-0.3 1.1 0.4 1.6 1 0.9 1.5 0.4 1.1 0.9-0.1 2.5-0.8 1.4-2.9 2.8-1.1 1.6-0.3 1.5-0.1 1.9-0.5 1.7-0.2 0.2-0.5 0.1-0.4 0.1-0.2 0.4-0.1 0.1-0.1 0.3-2.3 1.4-0.9 2.7 0.3 3.1 1.8 6.7 0.3 3.1-0.2 6.6 1.9 0.4 13.7 5.1 1 2-0.6 1.9-2.2 0.8 1.2 2.1 1.5 1.9 1.8 1.5 5.8 2.2 2.1 1.4 1.4 2.2 5.4 12.8 0.4 3.4-1.1 6.1-3.3 11.7 0 6.3 1.4 4 2.4 2.4 2.8 2.1 2.6 3.1 0.9 2.9-0.1 3.1-0.8 6.1-2.4 6.8-4.9 5.1-12.6 7.1 2 1.8 2 3 3 5.9 1.9 5.5 3.3 5.1 2.7 3.1 8.5 6.2 0.9 1.1 1.3 2.2 0.9 1 1.5 0.8 1.4 0.2 1.2 0.5 1 1.7-0.3 2.7-2.1 8.2z" id="SNTC" name="Tambacounda">
  </path>
  <path d="M623.1 560.9l0.7 0.4 0.5 0.7 0.3 1 0.2 3.3-0.2 1.1 0.1 2.4-0.3 0.9 0 0.8 0 1 0.7 1.2 0.1 2.5 0.3 1.3 1 2.3 2 2.2 0.8 0.7 0.8 0.4 0.5 0.6 0.1 1-0.1 0.9 0 0.9 0.3 0.8 2.3 1.4 1.6 1.7 1.1 1.4 1 1.1 0.4 0.6-0.3 0.9-0.4 0.7-0.2 0.6 0.3 0.6 1 0.5 0.9 0.2 0.7 0.3 0.2 0.6 0.7 4.7-0.3 0.8-0.5 0.6-0.2 0.7 0.3 0.8 0.7 1 0.5 2.4 0.5 1.3 1.4 1.5 2 1.4 0.6 0.6 0.6 3.6 0.6 1.1-0.2 1-0.6 0.3-0.9 0-0.7 0-0.6 0.1 0.1 0.5 0.7 0.5 0.5 0.7-0.1 0.8-0.3 0.7-0.9 1.3-0.3 0.7-0.2 0.8 0.1 0.9 0.3 1 1 1.1 0.4 1.4 0.4 0.9 0.2 0.9-0.3 5.6-0.3 0.8-0.7 1.3-0.2 0.8 0.3 0.9 1 1.3 1.1 0.8 1.9 1 1.6 0.6 1.9 0.3 3.4 0 1.6-0.3 1.1-0.5 0.7-0.3 0.9-0.2 1.9 0.9 1.2 3-0.4 2.3-6.7-1.8-47.7-1.7-52.4-0.3-38.4-0.1-13.9-0.1-52.3-0.2-11.9-0.1-40.5-0.1-1.2-9.3 1.3-4.5 2.2-4.9 0-7.1 0-5.3-2.6-4.4-3-3.6-0.4-5.3 0.4-4-5.2-3.6-4.8-3.1-0.4-3.6-0.4-4.9-3.1-8-2.1-3.5-7-1.4-5.2-3.5-0.8-5.4 1.7-5.7 1.3-5.8 0.4-6.7 4.8-0.9 4.8-1.8 4.3-2.8 3-4 0.9-4.2 0.6-9.4 2-3.3 3.4-3.5 3-3.2 3.4-1.4 4.1 2.7 6.6 6.2 7.3 5.4 0.1 0 9.7 5 4.9 1.3 5.7 0.5 2.2 0.6 5 3.1 2.7 0.8 3 0.6 1.6 1 2.9 4.2 4.2 3.7 4.9 2.1 5.4 0.6 5.5-0.6 4.7-1.2 1.7 0.6 4.2 3.9 1.4 1.3 2 1.1 2.1 0.6 4.7 0.2 1.9 0.6 1.7 1.7 1.1 1.5 1.4 1.3 1.6 1.1 5.3 2.8 3.9 1.1 4 0.3 8.4-0.8 8 1.6 4.3-0.2 3.2-1.6 7.1-5.4 2.2-1 2.6 0.1 6.3-2.3 5.9-0.1 6-1.6 11.1-1 7.3-3.2 4.2-6.4 0.6-7.8-3.5-7.2-1.5-1.2-3.4-2-1-0.9 1.9-0.9 1.4-0.5 1.6-0.2 0.8-0.2 0.6-0.5 0.3-0.7 0.2-0.8 0.4-0.6 0.6-0.4 0.7-0.2 1.6 0.2 1.6 0 0.7 0.2 0.4 0.6-0.1 0.9-0.6 1.5 0 1.5 0 0.5-0.1 0.2-0.6 0.8-0.4 0.6-0.3 0.7 0 0.9 0.4 0.9 1 0.8 0.9 0.1 0.7-0.2 1.3-0.8 0.8-0.3 0.8-0.2 0.9 0.1 0.8 0.1 2.2 0.9 1.6 0.4 0.4 0.3 0.2 0.4-0.3 0.8-0.5 0.6-2.7 2.6-0.3 0.7-0.4 0.7-0.1 0.8-0.1 0.8 0.1 0.9-0.1 1-0.2 0.8-0.4 0.7-0.4 0.6-0.4 0.5-0.4 0.6-0.2 0.7 0.3 0.7 0.9 0.5 0.9 0.3 1 0.1 0.9 0.1 1-0.1 3.6-0.7 1.9-0.1 0.8 0.3 0.5 0.5 0 1-0.4 0.7-1.3 1.9-0.1 0.6 0.3 0.7 0.8 0.6 0.8 0.4 0.5 0.8 0.1 1.1-0.2 1-0.4 1.6 0.2 0.9 0.5 0.9 1.5 1 2.1 0.8 0.7 0.4 0.4 0.8 0.2 1.3 0.3 1.1 0.4 0.9 1.1 0.8 0.9 0.2 1.8 0z" id="SNKD" name="Kolda">
  </path>
  <path d="M369.3 542.3l-0.4 6.7-1.3 5.8-1.7 5.7 0.8 5.4 5.2 3.5 7 1.4 2.1 3.5 3.1 8 0.4 4.9 0.4 3.6 4.8 3.1 5.2 3.6-0.4 4 0.4 5.3 3 3.6 2.6 4.4 0 5.3 0 7.1-2.2 4.9-1.3 4.5 1.2 9.3-7.2-0.1-4.2 0.7-3.8 1.7-8.6 6.2-9 4.2-7.8 5.7-0.5 0.4-37.2 17.5-5.1 1-25.5-1.5-0.6-0.9-4.6-6.8-1.5-3.2-2.6-3.9-2.2-4.5-0.4-4 0.1-0.9 2.4 1.9 1.2 1.4 1.7 0.3 9.5 0.1 0.9 0.7 1.9 2 0.7 0.4 1.3-0.1 3.8-1 1.7-1 1.6-2 2.1-1.2 3.1 1.3 0.8-0.7 1-0.4 0.9-0.1 2 1.5 0.9-0.1 0.8-0.4 0.8 0.2 1.1 1.4 1 2.5 0.8 1.2 1 0.9 1 0.6 1.4 0.4 1.7 0 1.7-0.3 6.8-2.8 2.7-2.8 4.5-5.9 1.7-1.2 1.5-0.8 1.1-1.1 0.4-2-0.9-1-1.6-0.7-0.9-0.8 1.3-1.2-1.5-3.4-1.3-4.6-0.5-4.8 1.3-3.7 1.7-1.1 2.1 0 2.2 0.1 2-0.2 2.1-0.9 1.4-1.1 0.9-1.3 0.7-1.8 3 2.9 2.8 0.8 1.9-1.6 0.3-4.2-2.3 2.4-2.1-0.1-2.3-0.9-2.3-0.4-2.3 1-3.6 2.7-2.7 0.6-1.5 0-2.2 0.3-2 1-0.9 2.3 0 8.8 1.7 5.6 0.3 1.6 0.1 2.5-0.2 1.2-0.4 1-3.6 3.1-1.1 1.5-7.4 6.8-2 1.2-1.8 0.1-1.5-0.7-1.3-1.1 0.9-4.5-4.5-2.1-10.5-1.7-7.1 4.6-2.6 0.6-0.5-0.5-0.7-1.1-1-1-1.8-0.5-1.8 0.3-2.5 1.4-1.8 0.4-1.7-0.5-2.2-1.2-3.7-2.5-0.2-0.7 0.2-1.1 0.1-1-0.6-0.4-1.9-0.2-1-0.3-0.7-0.4-0.9-1.3-2.1-4-0.5-0.5-0.7-0.3-0.5-0.5-0.6-3.2-0.8-1.8-0.2-1.3 0.3-2.1 0.6-1.3 1.3-9.4 0.3-0.9 0.8-1 1.5-1.5 0.4-0.8 0.3-1 0.2-3.2 0.5-1.5-0.7-2.6-0.2-1.6 0.2-1.7 6.6-10.7 5.9-12.4 0.1-1.1-0.9-1.1-1-0.4-1.1-0.4-0.9-0.5-0.2-1.3 0.7-1.8 2.6-2.9 1.3-2.4 4 0.1 5.5 0 1-0.7 0.3-10.8 0-2.4 0.3-10.7 0.6-2.2 1.7-0.9 10.3-1 6.6-2.1 1.9-0.1 9.9 1 2.4-0.2 4.5-1.5 3.4-1.9 3.4-1.3 4.6 0.2 16.1 3.4 5.5 0z" id="SNSE" name="Sédhiou">
  </path>
  <path d="M277.5 657.5l-0.1 0.9 0.4 4 2.2 4.5 2.6 3.9 1.5 3.2 4.6 6.8 0.6 0.9-1.4-0.1-11.7 0.9-2.9-0.6-9.2-3.1-5.3-0.4-11.1 1.9-1 0.5-0.6 0.5-0.7 0.2-1.3-0.2-3.1-1.2-1.6-0.3-1.6 0.3-10.2 5.5-11.8 6.5-4.5 1.8-7.4 0-7.7 2-2.7 0.1-20-1.4-5.5 1.4-3.3 2.3-1-1.9-0.7-2-0.6-3.1-1-1-2.2-1.6-3.4-3.3-1.5-2-0.6-1.9 0-6.3 0.3-1.4 1.4-1.3 0.4-1.4 1.1-1.6 7.3-4.4 3.2-0.1 4.6 0.4 4.9-3.1 1.6-1.3 0.9-1.3 0.6-1.2 1-1.5 5.6-4.1 2.7 3.2 2.1 5.7 2.1 1.3 0.1-2.4 1.5-1.8 2.6-0.7 2.9 0.6 4.9 2.8 4.5 1.3 4.9 2.3 2.5 0.2 2.9-1.4 3.6-4.4 2.6-1.4 3.4 0.1 3 1.1 2.9 0.3 3.4-2.1 1.7-0.7 1.1 1.3 0.9 1.9 0.8 1.1 11.5-4.3 2.7-0.6 3.5-0.2 2.3-0.7 1.9-1.4 2.2-1.1 3.2 0.1 2.6 1.4 3.9 3.1z m9.8-84.1l-1.3 2.4-2.6 2.9-0.7 1.8 0.2 1.3 0.9 0.5 1.1 0.4 1 0.4 0.9 1.1-0.1 1.1-5.9 12.4-6.6 10.7-0.2 1.7 0.2 1.6 0.7 2.6-0.5 1.5-0.2 3.2-0.3 1-0.4 0.8-1.5 1.5-0.8 1-0.3 0.9-1.3 9.4-0.6 1.3-0.3 2.1 0.2 1.3-0.9 0 0 1.2-0.2 0.6-1.6 3.1-0.7 1-0.5 5.1-4.1 2.7-6.1 1-1.5 0.7-3.1 2-0.9 0.4-1.5-0.2-3.6-0.9-5.6 0-1.7 0.4-2.8 1.2-1.5 0.4-1.8 0-4.8-0.9-1.6 0.3-2.1 1.4-1.3 0.4-0.5 0.7-0.7 1.6-1 1.7-1.4 1-6-2-4.9-2.8-2.3-1.9-1-2-0.5-0.4-1.4-0.4-1.4-0.7-0.7-1 0.3-1.5 0.9-1.4 1.3-0.9 1.5-0.4 0-1.1-2.2-0.1-1.5-1.1-0.8-1.8-0.5-2.2-1 12.5-1.1 0-2-2.6-5.4-4.7-0.7-3-1.7 1.4-1.1 1.7-1.4 1.4-2.3 0.6-1.8-0.4-1.2-1-0.6-1.6 0.1-2.1 2.1-4 3-2.9 1.9-3.5-0.9-5.3-0.7 4.1-0.3 1.2-0.8 1.3-0.7 0.6-0.7 0.5-2.9 2.7-1.3 1.6-0.6 1.9-0.2 3.2 1.1 5.4-0.3 2.5-4.5 1.9-6.4 5.4-5 1.8-2.7-1.7-1.2-3.9-0.2-5.1 0.8-5.4 2.3-5.3 3.8-3 5.2 1.8 0.2-2.3-2.1-1.6-3-0.6-2.6 0.9-3.1 3.7-1.7 1.2-1.8-0.4 0.8-1.2 0.3-1.3-0.3-1.3-0.8-1.3 3.2-4.5 0.6-2.2-0.7-2.7-1.1 0-0.7 1.7-1 0.7-0.9-0.5-0.4-2.3 0.3-1.8 0.9-2 5.3-7.9 0.5-1.9-0.1-1.9-0.7-3.6-0.2-1.7 0.3-3.2 1.5-6.3 0.3-4-0.2-2.5-0.6-1.2 0.2-3.5 0.5-1.7 0.9-1.3 2.4-2.3 0.4-1.4 2.2-3.7 5.2-1.2 6.4 0.1 24.3 0.2 22.5 0.2 32.6 0.3 19.3 0.2 9.4 0z" id="SNZG" name="Ziguinchor">
  </path>
  <path d="M608.8 119l-6.1 12.9-15 6.1-2.2 5.6-16.6 15-23.5 19.5-22 17.3-5.9-4.5-11.2-5.5-12.4-6.7-6.4-8.9-7.5-11.2-16.6-11.7-7.7 0.6-11.9-6.4-2.5-0.9-84.5-0.2-1 10.3-23.2 1.6-1.6-1-30.4-35-3.1-2.8-1.8-1.2-1 1.1-0.5 0.6-2.5 1.8-2.8 1.4-0.6 0.5-0.5 0.5-0.6 1.6-1.5 2.6-1 1.2-1 0.7-27.8 15.9-0.1 0-0.7 0.4-5.2 4.3-1 1.1-0.4 0.7-0.3 0.7-0.4 1.5-0.4 0.8-0.8 0.6-6.3 3.3-1.5 1.3-1 1.8-1.8 5.1-0.7 1.1-1.1 1.2-2.1 0.3-2.3 0.1-2.5 0.4-2.1 0.8-3.2 2.4-2.7 0.9-2.8 0.5-24 0.5-0.1 0-0.3-0.4 3.4-5.8 1.4-8.5 0.4-16.7 0.9-1.7 2-6.8 2.6-6.2 0.6-10.4 1.1-3.1 2.1-1.9 5.5-1.3 2.3-1.5 0.9-1.6 0.7-1.8 6-26 0.8-6.2 1.1-2.9 2-2.8 2.7-2.7 3.2-1.9 3.4-0.7 4.8 0.9 1.7 0.1 1.7-0.3 1.5-0.7 4.3-3.1 1.7-0.8 1.8-0.3 1.8 0.4 1.4 0.8 1.1 1.1 1.8 2.7 2.5 2.7 3 1.4 3.3 0.4 3.5-0.5 1.1-0.7 1-0.6 1.1-0.2 1.3 0.3 1.9 0.8 0.9 0.1 1.1-0.2 5.8-2.7 2.1-0.2 5.2 1.2 1.2 0 3.7-0.6 2.3 0.1 6.7 2.2 4.8 0.3 1.2 0.4 3.5 1.6 2.3 0.6 2.3-0.1 2.2-0.7 2-1.4 3.3-3 1.7-1.1 2.3-0.3 6.3 1.3 2.2-0.2 1.8-0.9 1.4-1.3 3.6-5.2 1.8-1.6 2.1-1 2.3 0.2 1.4 1.1 0.8 1.6 1 1.4 1.8 0.8 2.2 0 2.1-0.5 6.2-2.7 2.3-0.5 4.7-0.1 7 1.1 2.4-0.1 15.9-2.5 3.1-1.2 0.9-0.6 0.7-0.9 0-1.1-0.5-1-2.4-2.4-0.8-2 0.3-2 1.2-1.5 2.2-0.6 2.1 0.6 1.3 1.5 1.2 1.8 1.5 1.5 1.1 0.3 1.1-0.1 1-0.4 0.9-0.7 0.8-1 0.3-1 0.5-2.1 0.9-1.5 1.5-1 3.3-1.4 1.7 0.9 1.9 2.1 0.2 0.3 1.1 2.2 1.5 1.9 2.7 0.5 4.5-1.1 25.3 1.8 1.7-0.2 4.9-1.3 1.5 0 1.3 0.3 4.2 2 1.6 0.3 1.6-0.1 6.2-1.7 1.6-0.1 6 1.3 1.6 0 1.5-0.2 1.6-0.4 1.4-0.7 3.9-2.3 1.4-0.6 2.9-0.1 9.4 3.7 1.1 0.8 0.6 1.1 0 1.7-0.8 2.9 0.2 1.2 1.4 0.6 5.7-0.5 1.4 0.7 0.5 1.2 0.2 2.8 0.8 1.2 1.5 0.7 3.6 0.2 1.6 0.3 1.2 0.7 2.5 3.4 1.1 0.9 3.5 2.5 5 5.9 8.8 8 4.9 2.9 1 0.9 2.5 3.1 1.4 0.9 2.9 1.1 1.3 0.8 0.9 1 0.1 1.1-0.9 2.3-0.3 1.3 0.3 1.1 1.5 1.9 0.6 1.3 0.1 1.3-0.8 2.8 0.6 2.5 2.5 1.3 5.8 1.7 1.2 0.8 2.3 1.7 1 1.1 0.7 1.2 1.3 4.2 0.7 1.5 0.9 1.3 1.2 1.1 1.3 0.9 1.2 0.3 1.2-0.1 1.2-0.4 2.4-1.4 2.4-1.9 1-1.1 2.6-3.8 1.1-1.1 1.3-0.7 1.3-0.4 1.4-0.1 1.4 0.2-0.3 2-0.9 2.5-0.6 2.1 0.4 1.6z" id="SNSL" name="Saint-Louis">
  </path>
  <path d="M760.9 278.9l0.3 1.1 15.5 20.7 1.1 2.5 0.7 3.5-0.1 1.2-0.2 1.3-11.3 28.7-12.1 18.5-1.8 2-1.8 0.9-22.2 2.9-6.4 0.1-39.8-7.4-1.6 0.5-1.2 0.6-38.8 28-1.6 0.8-40.4 0.6-7.3-1.1-64.2-24.5-2.5-1.4-2.7-2.1-1.3-2.8-6.4-6.1-6.1 2-2.2 1.1-2.7 2.4-4.4 5.2-7.1 5.1-18.3 4.5 0.3-2.4 0-1.7-0.2-1.9-1-1-2.3-1-24-7.1-4-1.9-2.7-2.4 5.6-4.2 2.2-12.2 6.4-4.4 5.4-11.1-6.5-14.4-4.2-15 10.1-3.9 16.6-2.2 11.7-3.5-6.3-3.1 2.7-16.7 4.8-21.1-12.3 1.7-24.7-12.8 5.4-8.3 1.1-27.8 4.2-1.7 7.5-2.8 5.9-3.9 11.8-11.1 6.4 8.9 12.4 6.7 11.2 5.5 5.9 4.5 22-17.3 23.5-19.5 16.6-15 2.2-5.6 15-6.1 6.1-12.9 0.7 0.4 1.6 0.6 0.6 0.5 0.2 0.3 0.2 0.5 0.2 0.2 0.4 0.3 0.9 0.3 0.4 0.2 1 0.9 0.3 0.2 1 0.2 1-0.3 4-2.2 0.9-0.2 2.8 0 0.5 0 1.1-0.4 4.5-1.9 7.7-1.7 2-0.8 0.9-0.3 0.8 0 1 0.2 0.3 2.1-2.5 4.7-0.3 2.4 1.5 1 5.4-2.1 2.2 0.1 0.7 0.8 1.2 2.1 0.8 0.8 4 2.8 0.9 1.1 0.4 1.2 0.1 2.7 0.2 1.2 2.1 5.1 0.9 1.6 1.1 1.5 1.3 1.3 3.8 2.9 0.8 1.2 0.4 1.3-0.1 1.3-0.6 2.6 0 1.2 0.3 1.1 0.6 0.9 2.7 3.1 1.3 2.4 0.7 2.6 0.1 3-0.3 1.3-0.5 1.3-0.4 1.3 0.2 1.3 0.8 1 1 0.8 2.3 1.4 1.2 0.9 1 1.1 1.6 2.4 0.7 1.3 0.1 1.1-0.2 1.2-2.2 3.5-0.6 1.2-0.1 1.4 0.2 1.3 1.4 3.8 2.2-0.1 4.4-0.8 2.2 0.2 1 0.4 2.8 2 1 0.4 3.4 0.9 1.9 1.1 1.6 1.5 1 1.8 0.4 2.1-0.9 5.8 0.1 1.3 0.2 1.3 0.5 1.5 0.9 0.6 4.5 1.2 2.1-0.3 2.3-1.4 1.9-1.6 2.2-1.2 2.3-0.3 2.3 1.1 1 1.1 0.4 1.4 0.6 4.2 0.5 1 1.5 2 0.7 1.2 0.2 1.1 0.1 5.2 0.5 2.5 1.2 2.3 1.8 2 8.8 6 1.9 2 1 2.5-0.8 2.1-2.5 0.4-5-0.5-1.5 1.1 0.9 1.9 3.3 3.4 1.3 1.1 1.3 0.4 1.4 0.1 3.2-0.7 1.6 0 1.4 0.4 1.4 1 0.8 1 0.3 1.2 0.1 1.2-0.8 3.9 0.1 1.2 0.4 1.4 0.2 0.4 3.7 1.2 1.2 1.2 4.3 4.2 4 1.7 0.1 0z" id="SNMT" name="Matam">
  </path>
  <path d="M474 367.7l-0.1 28.7 3.4 9.9 1.8 2.8 0.8 2.7 0.7 11.5 1.3 6.8 0.3 3 0 2.5-1.3 6.3-0.6 1.2-0.6 0.8-1.4 0.7-1.4 0.5-0.6 0.3-0.2 0.3-0.6 2.7 0.2 2.7-0.3 1.8-0.3 1.1-0.5 0.7-8.6 8.4-3.5 2.8-0.7 0.4-6.8 1.7-1.5 0.7-0.8 0.1-1.9 0.1-1.8 0.3-1.5 0.6-2 2.2-1.8 2.5-2.7 4.6-0.6 2-2.7-2.2-5.4-1.9-14.9-0.6-8.8-3.4-3.2-0.1-10.8 3.9-11.1 7.2-3.1 0.7-1.3-0.9-2.8-3.8-1.4-1.3-6.4-1.1-6.8 2.6-7.5-3.5-4.3 0-5.9-0.5-10.2-4.5-3.2 5-2.7 4.4-2.7 1.1-3.7-1.6-4.3-4.4-2.1-4.5 0-3.8 1.6-3.9-0.6-3.8-6.4-3.9-5.4-5.5-1.6-3.3-0.5-3.9-2.1-2.8-6.5-1.1 0-7.7 0-9.9 1.6-5.6 3.8-8.2 2.7-6.7 0.2-14.7 3.9-3.1 3.4-4.2 5.8-6.7 3.8-0.4 3.4-1.8 6.9-5.6 3.1-2.5 3.4-0.7 7.2-1.1 7.9-1.4 5.5-1.4 4.4-5 3.2-13.9 11.8 7.1 7.4 2.9 22.5 4.5 5.1 0.5 3.4-0.8 2.9-1.2 13-8 2.5-1.2 2.5-0.6 1.8 1.4 3.4 4.6 2.7 2.4 4 1.9 24 7.1 2.3 1 1 1 0.2 1.9 0 1.7-0.3 2.4z" id="SNKA" name="Kaffrine">
  </path>
  <path d="M361.7 480.2l-6.3 4.6-4.6 5-1.6 2.6-1.6 3.2-1.1 3.3-0.2 1.1-0.4 2-0.2 6.1-2.4 0.8-7.2-0.1-9.2 0-9.1 0-9.2-0.1-9.2 0-9.1 0-9.2-0.1-9.2 0-9.1-0.1-3.2 0-0.5-1-0.8-3-2-2.7-4.8-4.3-1.2-1.6-0.8-1.4-0.5-2.2-0.7-5-0.6-2-1-1.2-1-0.8-2.4-1.4-4.7-3.9-1.4-1.5-0.5-1.4-0.2-1.3 0.1-2.2 0.1-1.1 0.4-1 0.8-0.9 2.2-1.9 1.6-2.2 0.8-1.1 0.4-1.2 0.2-1.2 0-1.2-1.7-10.4-1-1.5-1.8-1.7-3-3.9-0.1-1.2 0.5-1.2 1.5-2.2 0.5-1.2 0.2-1.7-0.1-1.9-0.6-3.3-1-1.6-1-1.3-2.1-1.7-4.2-2.7-0.8-0.7-0.8-0.5-0.8-0.1-9.5-0.3-0.1 0 1.2-0.8-2.3 0 0-0.1 2.1-2.8 1.5-5.1 7.4-11.1 4-4.9 1.7-1.4 1.5-0.7 4.7-0.4 8.9-2 7.6-0.7 1.3 0.2 0 0.7 0.8 0.7 12.5 2.2 3.1-1.1 2.8-2.8 3-1.4 7.2 0.3 11 0.4 4.7-3-0.2 14.7-2.7 6.7-3.8 8.2-1.6 5.6 0 9.9 0 7.7 6.5 1.1 2.1 2.8 0.5 3.9 1.6 3.3 5.4 5.5 6.4 3.9 0.6 3.8-1.6 3.9 0 3.8 2.1 4.5 4.3 4.4 3.7 1.6 2.7-1.1 2.7-4.4 3.2-5 10.2 4.5 5.9 0.5 4.3 0 7.5 3.5z" id="SNKL" name="Kaolack">
  </path>
  <path d="M259.6 508.5l-6 0-9.2 0-9.1 0-9.2-0.1-9.2 0-9.2-0.1-9.1 0-9.3 0 0-0.1-1.4-2.2-0.8-1.6 0.1-4.2 2.5-2.4 3.7-1.9 3.8-3-0.8-0.4-1.5-1.2-0.8-0.4 1.8-1.8 1.4-2.3-0.2-1.8-3-0.4 0.4 2.5-0.8 2.9-1.5 2.1-2.2-0.2-1 3.2-2.3 2.1-2.9 0.9-2.8-0.9-2.6-2.8-0.7-2.8 1.3-5.9 0.2-3.8 0.4-1.5 1.4-2 5.2-6.3 0.9-2.1 0.9 0.6 2.3 1.1 0.8 0.5-0.3-0.7-0.8-2.5 5.2-1 0.2 3 1.1 2.9 1.7 1.7 2.1-0.4-1.1-3.5-0.3-3.8-0.6-3.1-2.2-1 0.8-2.1 3.2-14.1 0.2-2.5-3.2 4.7-1.4 3-1.1 6.3-1.5 3.8-2 2.5-2-0.6-1.1 0-1.4 2-2.7 0.8-3 0.4-2.9 1-1.6 1.3-0.5 1.3-0.2 1.3-0.8 1.3-0.8 0.8-1.7 1-0.9 0.8-1.5 2.8-1.1 1-1.5-0.7-0.5-1.5 0-1.9-0.3-1.6-1.3-0.7-1.9-1.3-0.8-3 0.2-3.2 1-1.9-0.9-2.1-0.6-2.3-0.5-4.9 0.2-2.6 0.5-1.5 0.9-1 3.4-2.7 1.7-0.7 1.9-0.1 4.3 0.5 2.1 0.7 1.4 1.2-0.2 2 2.1-1.9 1.6-2.2 2.1-1.2 3.3 1.2 0-3.4 1.1-1.5 1.9-0.9 2-1.6-1.8 0.6-2 0.5-1.9-0.4-1.4-1.7 6.7-4.1 2.4-2.2 3.8-4.7 2.1-1.8 4.7-1.4 2.3-2.9 1.8-0.7 1.3 0.6 1.1 1.1 1.3 0.7 1.4-0.8 0.9-0.7 2.4-1.1 0-0.1 0.1 0 9.5 0.3 0.8 0.1 0.8 0.5 0.8 0.7 4.2 2.7 2.1 1.7 1 1.3 1 1.6 0.6 3.3 0.1 1.9-0.2 1.7-0.5 1.2-1.5 2.2-0.5 1.2 0.1 1.2 3 3.9 1.8 1.7 1 1.5 1.7 10.4 0 1.2-0.2 1.2-0.4 1.2-0.8 1.1-1.6 2.2-2.2 1.9-0.8 0.9-0.4 1-0.1 1.1-0.1 2.2 0.2 1.3 0.5 1.4 1.4 1.5 4.7 3.9 2.4 1.4 1 0.8 1 1.2 0.6 2 0.7 5 0.5 2.2 0.8 1.4 1.2 1.6 4.8 4.3 2 2.7 0.8 3 0.5 1z m96.6-150.5l-5.5 1.4-7.9 1.4-7.2 1.1-3.4 0.7-3.1 2.5-6.9 5.6-3.4 1.8-3.8 0.4-5.8 6.7-3.4 4.2-3.9 3.1-4.7 3-11-0.4-7.2-0.3-3 1.4-2.8 2.8-3.1 1.1-12.5-2.2-0.8-0.7 0-0.7-1.3-0.2-7.6 0.7-8.9 2-4.7 0.4-1.5 0.7-1.7 1.4-4 4.9-7.4 11.1-1.5 5.1-2.1 2.8 0 0.1-7-0.3-4-1.5 0.2-3.3-2.3 1.2-0.9 2.2 0.5 2.3 1.6 1.5-1.8 1.1-1.5-0.2-1.5-0.5-1.7-0.4-1.2 0.5-0.6 1.2-0.3 1.4-0.4 1.2-3.8 6.7-1.4 1.6-1.5 0.7-3.2 0.8-1.7 1.1-1.3 1.7-1.9 3.5-1.4 1.6-3.4 1.1-3.1-0.7-3.2-1.1-3.5-0.3 3.4-6.3 0.1-1.1 2.5-0.7 4.1-4.6-2 0.6-1.9 3-1.6 0.7-3.3 0.1-1.3 0.3-1 0.6 1.7 2.1-0.2 1.3-2.5 3-0.4 1.1-0.4 2.2-0.7 1.3-3 3.4-0.6 1.3-0.7 4.3 0.7 14.4-0.9 0-0.9-29.2-0.7-4.4-2.5-7.3-1.3-2.6 0.1 0 1.1-1.3 4.2-1.3 0.7-0.8 0.1-0.8-0.3-0.6-0.5-0.7-0.5-0.7 0-1.3 0.4-0.7 3.8-3.2 0.7-1.2 0-0.9-0.5-0.6-0.6-0.5-0.5-0.5-0.5-0.6 2.1-8.8 7.4-21.5 0.5-0.3 0.8-0.2 4.8-0.3 0.9-0.2 0.7-0.4 0.6-0.4 0.5-0.6 1.5-1.8 1.1-0.9 0.7-0.3 1.6-0.5 1.3-0.8 2.4-2.6 3.9-5.1 0.7-1.3 1.1-3.2 1.1-4.6 1.8-2.8 1.9-0.6 6.5-0.6 12.6 0.6 1.4 0.3 0.7 0.5 1.2 1.1 0.8 0.6 1.2 0.8 1.1 0.2 1 0 7.7-1.7 1.6-0.1 4.9 0.6 4.9 1.6 1.4 0.7 1.9 1.3 1.6 1.7 1.4 0.6 2.2 0.6 16.1 2.9 2 0 12.4-1.3 5-1.3 3.7-1.7 0.6-0.4 8-8 0.4-0.6 0.3-0.8 0.4-1.7 0.7-13 0.3-0.8 0.3-0.7 0.6-0.7 0.7-0.5 1.9-0.9 0.6-0.4 7.4 5.3 3.1-0.3 4.1-1.5 2.7 0.4 3.4 3.5 4.8 2.2 19.6 7.8 3.4 2.8 2.1 5.3z" id="SNFK" name="Fatick">
  </path>
  <path d="M192.4 169.6l0.1 0 24-0.5 2.8-0.5 2.7-0.9 3.2-2.4 2.1-0.8 2.5-0.4 2.3-0.1 2.1-0.3 1.1-1.2 0.7-1.1 1.8-5.1 1-1.8 1.5-1.3 6.3-3.3 0.8-0.6 0.4-0.8 0.4-1.5 0.3-0.7 0.4-0.7 1-1.1 5.2-4.3 0.7-0.4 0.1 0 27.8-15.9 1-0.7 1-1.2 1.5-2.6 0.6-1.6 0.5-0.5 0.6-0.5 2.8-1.4 2.5-1.8 0.5-0.6 1-1.1 1.8 1.2 3.1 2.8 30.4 35 1.6 1 23.2-1.6 1-10.3 84.5 0.2 2.5 0.9 11.9 6.4 7.7-0.6 16.6 11.7 7.5 11.2-11.8 11.1-5.9 3.9-7.5 2.8-4.2 1.7-1.1 27.8-5.4 8.3 24.7 12.8 12.3-1.7-4.8 21.1-2.7 16.7 6.3 3.1-11.7 3.5-16.6 2.2-10.1 3.9 4.2 15 6.5 14.4-5.4 11.1-6.4 4.4-2.2 12.2-5.6 4.2-3.4-4.6-1.8-1.4-2.5 0.6-2.5 1.2-13 8-2.9 1.2-3.4 0.8-5.1-0.5-22.5-4.5-7.4-2.9-11.8-7.1-5.3-3.3-3.9-4.2-0.9-3.3-0.7-9.2-0.5-0.7-0.5-0.6-1.3-0.4-1.9-0.1-9.8 0.9-1.3-0.2-2.2-0.8-1.2-0.7-1.4-1-0.7-0.3-4.1-0.4-7.8 0.3-3.8 1.1-2.6-2.1-0.7-2-0.1-2-0.2-0.8-0.4-0.7-0.4-0.6-2.5-1.7-3.8-1.6-0.6-0.5-0.5-0.5-0.4-0.6-0.9-2.3-0.4-0.6-0.6-0.3-1-0.4-0.6-0.4-0.6-0.4-0.4-0.7-0.3-0.8-0.2-0.9-0.1-2 0.1-1.4-2.3-0.4-36.2 0.2-3.4 0.9-4.7 4.1-3.3-1.7-3.3-1.2-0.7-0.4-0.8-0.6-0.8-0.8-1-1.6-0.4-1.1-0.4-1.1-0.5-2.7-0.2-0.8-0.4-0.8-0.8-1.3-4.3-5.2-0.8-1.3-1.4-3.8-0.3-1.5-0.2-1.3 0.1-1.3 0.1-0.6 0.4-3.9-0.4-2.1-0.7-1.6-0.5-1-0.4-0.6-1.3-2.9-0.5-0.6-0.6-0.3-0.8 0.3-1.3 1-0.6 0.3-0.7 0.1-0.6-0.3-0.6-0.9-0.4-2-0.9-7.3-0.2-0.8-0.3-0.6-0.6-0.6-0.8-0.4-1.4-0.1-0.9 0-2.2 0.6-1.8 0.2-6.9-1.8-1.1 0-1 0.2-0.6 0.5-0.6 0.5-0.5 0.5-1.2 1.9-1.4 1.7-1.7 2.5-1 1.1-2.3 3-0.8 2.3-0.5 1.7-0.5 1.5-0.8 1.2-6.7 7.1-0.7 1.3-2 2.2-0.5 0.5-0.6 0.4-0.8 0.1-0.7-0.1-0.8-0.4-0.6-0.8-0.7-1.4-0.2-2.4 0.2-0.7 0.2-0.5 0.4-0.6 0.2-0.6 0.1-0.7-0.2-0.8-0.4-0.8-1-1.2-0.9-0.6-2.3-1.1-1.3-0.8-0.6-0.5-0.5-0.5-1.8-2.5-0.9-1.9-0.5-0.7-0.5-0.6-0.9-0.6-1.7-0.8-1.2-0.3-0.9-1.7-0.4-2.9 0.8-6.4 1-3.6 2.7-5.3 0.7-3 0-1-0.1-0.8-0.7-1.8-0.7-1.1-4.4-3.6-0.7-0.4 9.6-13 19.3-32.6 0.7-1.5-0.2-1.6-0.7-1.7z" id="SNLG" name="Louga">
  </path>
  <path d="M193.8 357l-1.1 4.6-1.1 3.2-0.7 1.3-3.9 5.1-2.4 2.6-1.3 0.8-1.6 0.5-0.7 0.3-1.1 0.9-1.5 1.8-0.5 0.6-0.6 0.4-0.7 0.4-0.9 0.2-4.8 0.3-0.8 0.2-0.5 0.3-7.4 21.5-2.1 8.8 0.5 0.6 0.5 0.5 0.6 0.5 0.5 0.6 0 0.9-0.7 1.2-3.8 3.2-0.4 0.7 0 1.3 0.5 0.7 0.5 0.7 0.3 0.6-0.1 0.8-0.7 0.8-4.2 1.3-1.1 1.3-0.1 0-1.4-2.8-1.3-1.7-1.9-0.9-3.8-0.8-1.5-1.4-0.8-2.2-1.2-8.2-1-2.6-1.2-1.9-2.8-2.9-1.3-0.7-0.9-0.2-0.7-0.6-0.2-2 0.2-1.6 0.7-3 0.2-1.7-0.7-2.5-1.8-2.7-4.6-4.7-10.6-5-1.6-1.8-0.9-2-5.2-7.9-3.9-10.5-1.5-2.1 0-0.1 2.8-20.9-0.2-1.4-0.5-1.4-2.3-3.9-0.5-1.4-0.1-3.6-0.1-0.8-0.8-2.8-3.1-6.8-0.2-0.3 1.4-0.5 5-4.2 23.5-28.1 4.7-7 10.3-11.5 20.5-36.7 0.6-0.7 0.7 0.4 4.4 3.6 0.7 1.1 0.7 1.8 0.1 0.8 0 1-0.7 3-2.7 5.3-1 3.6-0.8 6.4 0.4 2.9 0.9 1.7 1.2 0.3 1.7 0.8 0.9 0.6 0.5 0.6 0.5 0.7 0.9 1.9 1.8 2.5 0.5 0.5 0.6 0.5 1.3 0.8 2.3 1.1 0.9 0.6 1 1.2 0.4 0.8 0.2 0.8-0.1 0.7-0.2 0.6-0.4 0.6-0.2 0.5-0.2 0.7 0.2 2.4 0.7 1.4 0.6 0.8 0.8 0.4 0.7 0.1 0.8-0.1 0.6-0.4 0.5-0.5 2-2.2 0.7-1.3 6.7-7.1 0.8-1.2 0.5-1.5 0.5-1.7 0.8-2.3 2.3-3 1-1.1 1.7-2.5 1.4-1.7 1.2-1.9 0.5-0.5 0.6-0.5 0.6-0.5 1-0.2 1.1 0 6.9 1.8 1.8-0.2 2.2-0.6 0.9 0 1.4 0.1 0.8 0.4 0.6 0.6 0.3 0.6 0.2 0.8 0.9 7.3 0.4 2 0.6 0.9 0.6 0.3 0.7-0.1 0.6-0.3 1.3-1 0.8-0.3 0.6 0.3 0.5 0.6 1.3 2.9 0.4 0.6 0.5 1 0.7 1.6 0.4 2.1-0.4 3.9-0.1 0.6-0.1 1.3 0.2 1.3 0.3 1.5 1.4 3.8 0.8 1.3 4.3 5.2 0.8 1.3 0.4 0.8 0.2 0.8 0.5 2.7 0.4 1.1 0.4 1.1 1 1.6 0.8 0.8 0.8 0.6 0.7 0.4 3.3 1.2 3.3 1.7-0.6 2-1.3 0.8-7 3.8-1.7 0.4-2 0.2-1.3-0.2-0.9-0.3-0.8-0.4-0.6-0.4-0.4-0.6-0.3-0.8-0.2-0.8 0-0.9-0.3-0.8-0.5-0.7-1-0.6-2.4-0.9-0.7-0.4-4.9-4.1-0.8-0.2-0.5 0-0.3 0.1-0.1 0.1-0.2 0.1-0.6 0.3-1.2 0.2-2.1 0.3-1.3 0-1.1-0.2-1.3-0.5-1.7-1-0.4-0.4-0.4-0.3-0.6-0.3-35.5 10.3-2.8 1.5-1.4 2.2-0.9 2.4-0.6 3.4 0.1 0.7 0.3 0.5 0.8 0.8 0.6 0.3 1.4 0.4 0.7 0.3 0.6 0.4 0.4 0.6 0.3 0.8 0.1 1 0 3.8-0.4 1.6-0.1 0.9 0.3 1.8 0.2 0.8 0.3 0.8 0.6 0.5 1.4 0.6 0.6 0.4 0.6 0.5 0.5 0.5 0.4 0.6 0.1 0.7-0.1 0.7-0.5 1.6-0.2 1.3-0.1 1.3 0.3 0.7 0.4 0.5 0.6 0.5 1.4 0.6 0.6 0.5 0.5 0.5 0.4 0.7 0.2 0.9 0.2 0.9-0.4 1.3-0.8 1.5-2.2 2.4-1 1.4-0.6 1 0 0.9 0.1 0.9 0.4 0.7 0.5 0.5 1.7 1.1 7.5 3.4 3.1 0.9z" id="SNTH" name="Thiès">
  </path>
  <path d="M97.7 308.7l0.2 0.3 3.1 6.8 0.8 2.8 0.1 0.8 0.1 3.6 0.5 1.4 2.3 3.9 0.5 1.4 0.2 1.4-2.8 20.9 0 0.1-4.4-6.1-4.3-4-2.5-1.7-2.9-1.4-3.2-0.5-2.4-0.7-6.3-3.3-0.9-1.1-4.9 0-4.2-0.5-3.7 0.3-3.3 2.4 1.2 1.4 1.8 0.6-1.1 2.2-1.9 0.9 0.5 0.5 0.9 1.1 0.5 0.5-0.9 2.1-0.5 0.2-0.5 0.9-2-1.3-9.9-12.4-2.3-2.1 24.3-6.6 7.2-5.9 20.7-8.9z" id="SNDK" name="Dakar">
  </path>
  <path d="M363.8 339.1l-3.2 13.9-4.4 5-2.1-5.3-3.4-2.8-19.6-7.8-4.8-2.2-3.4-3.5-2.7-0.4-4.1 1.5-3.1 0.3-7.4-5.3-0.6 0.4-1.9 0.9-0.7 0.5-0.6 0.7-0.3 0.7-0.3 0.8-0.7 13-0.4 1.7-0.3 0.8-0.4 0.6-8 8-0.6 0.4-3.7 1.7-5 1.3-12.4 1.3-2 0-16.1-2.9-2.2-0.6-1.4-0.6-1.6-1.7-1.9-1.3-1.4-0.7-4.9-1.6-4.9-0.6-1.6 0.1-7.7 1.7-1 0-1.1-0.2-1.2-0.8-0.8-0.6-1.2-1.1-0.7-0.5-1.4-0.3-12.6-0.6-6.5 0.6-1.9 0.6-1.8 2.8-3.1-0.9-7.5-3.4-1.7-1.1-0.5-0.5-0.4-0.7-0.1-0.9 0-0.9 0.6-1 1-1.4 2.2-2.4 0.8-1.5 0.4-1.3-0.2-0.9-0.2-0.9-0.4-0.7-0.5-0.5-0.6-0.5-1.4-0.6-0.6-0.5-0.4-0.5-0.3-0.7 0.1-1.3 0.2-1.3 0.5-1.6 0.1-0.7-0.1-0.7-0.4-0.6-0.5-0.5-0.6-0.5-0.6-0.4-1.4-0.6-0.6-0.5-0.3-0.8-0.2-0.8-0.3-1.8 0.1-0.9 0.4-1.6 0-3.8-0.1-1-0.3-0.8-0.4-0.6-0.6-0.4-0.7-0.3-1.4-0.4-0.6-0.3-0.8-0.8-0.3-0.5-0.1-0.7 0.6-3.4 0.9-2.4 1.4-2.2 2.8-1.5 35.5-10.3 0.6 0.3 0.4 0.3 0.4 0.4 1.7 1 1.3 0.5 1.1 0.2 1.3 0 2.1-0.3 1.2-0.2 0.6-0.3 0.2-0.1 0.1-0.1 0.3-0.1 0.5 0 0.8 0.2 4.9 4.1 0.7 0.4 2.4 0.9 1 0.6 0.5 0.7 0.3 0.8 0 0.9 0.2 0.8 0.3 0.8 0.4 0.6 0.6 0.4 0.8 0.4 0.9 0.3 1.3 0.2 2-0.2 1.7-0.4 7-3.8 1.3-0.8 0.6-2 4.7-4.1 3.4-0.9 36.2-0.2 2.3 0.4-0.1 1.4 0.1 2 0.2 0.9 0.3 0.8 0.4 0.7 0.6 0.4 0.6 0.4 1 0.4 0.6 0.3 0.4 0.6 0.9 2.3 0.4 0.6 0.5 0.5 0.6 0.5 3.8 1.6 2.5 1.7 0.4 0.6 0.4 0.7 0.2 0.8 0.1 2 0.7 2 2.6 2.1 3.8-1.1 7.8-0.3 4.1 0.4 0.7 0.3 1.4 1 1.2 0.7 2.2 0.8 1.3 0.2 9.8-0.9 1.9 0.1 1.3 0.4 0.5 0.6 0.5 0.7 0.7 9.2 0.9 3.3 3.9 4.2 5.3 3.3z" id="SNDB" name="Diourbel">
  </path>
 </g>
 <g id="points">
  <circle class="12.524895537770723|-17.228127589516276" cx="90.9" cy="669.2" id="0">
  </circle>
  <circle class="14.279207053381517|-14.14899530265711" cx="545.5" cy="403" id="1">
  </circle>
  <circle class="16.47209644789501|-11.685689473169777" cx="909.1" cy="67.2" id="2">
  </circle>
 </g>
 <g id="label_points">
  <circle class="Kédougou" cx="813.2" cy="626.1" id="SNKE">
  </circle>
  <circle class="Tambacounda" cx="703.3" cy="455.4" id="SNTC">
  </circle>
  <circle class="Kolda" cx="472.4" cy="595.8" id="SNKD">
  </circle>
  <circle class="Sédhiou" cx="324.7" cy="595.9" id="SNSE">
  </circle>
  <circle class="Ziguinchor" cx="228.7" cy="614.8" id="SNZG">
  </circle>
  <circle class="Saint-Louis" cx="440.3" cy="90.3" id="SNSL">
  </circle>
  <circle class="Matam" cx="602.2" cy="269" id="SNMT">
  </circle>
  <circle class="Kaffrine" cx="390.5" cy="415.1" id="SNKA">
  </circle>
  <circle class="Kaolack" cx="274.8" cy="467.3" id="SNKL">
  </circle>
  <circle class="Fatick" cx="212.2" cy="381.8" id="SNFK">
  </circle>
  <circle class="Louga" cx="354.5" cy="231.2" id="SNLG">
  </circle>
  <circle class="Thiès" cx="141.4" cy="333.2" id="SNTH">
  </circle>
  <circle class="Dakar" cx="88.4" cy="325.8" id="SNDK">
  </circle>
  <circle class="Diourbel" cx="269.2" cy="329" id="SNDB">
  </circle>
 </g>
</svg>