<?xml version="1.0"?>
    
<!--********* Copyright (c) 2024 Pareto Softare, LLC DBA Simplemaps.com ***************************************
************* Free for Commercial Use, full terms at  https://simplemaps.com/resources/svg-license ************
************* Attribution is appreciated! https://simplemaps.com *******************************************-->

<svg baseprofile="tiny" fill="#6f9c76" height="762" stroke="#ffffff" stroke-linecap="round" stroke-linejoin="round" stroke-width=".5" version="1.2" viewbox="0 0 1000 762" width="1000" xmlns="http://www.w3.org/2000/svg">
 <g id="features">
  <path d="M899.9 530.2l0.1 0.9-0.8 1.7-0.3 0.9 0 0.9 0.4 0.8 1.3 1.4 0.2 0.9-0.1 1.2-0.3 0.9-0.1 0.8 0.1 1.1 0.8 1.7 6.3 9.1 1.2 2.1 0.7 4.6 0.8 1.5 3.5 2.6 6.3 3.7 3 2.5 0.6 1.6 0.4 0.9-0.5 0.9-0.7 0.8-0.6 0.9 0 0.9 0.3 0.8 0.7 1.1-10.9 13.3-4.5 3.8-10.2 8.5-4.4 3.6-2.3 2-2.6 2.2-9.4 8.1-5.9 5.1-2.5 2.2-7.5 6.3-2.1 1.8-4.3 4.2-2.9 1.5-8 7.9-8 7.9-7.9 7.9-7.1 7-0.9 0.9-0.7 0.8-3.1 3.1-5.3 5.3-0.9 0.9-13.5 13.8-3.5 3.5-9.2 9.4-0.2 0.2-0.3 0-1.2 0-0.2 0-0.2 0.1-3.4 0.5-9.3-0.5-3.4-0.2-1.8-0.1-5.4-0.2-2.4-0.5-1.6-0.9-10-8.1-0.5-0.2-1.1-0.5-1.4 0.5-4.7 3.6-5.4 2.7-0.8 0.4-6.6 2-2.4 0.2-7.4 0.6-2.6 0.2-14.5 1.2-0.2 0.1-3.2 0.7-14.5 8.9-1 1 0 1.1 0.3 2.8 0 1.2-0.3 1.1-0.1 0.5-0.4 0.6-0.1 0.1-0.9 0-5-1-1.3-0.7-1.2-1.2-0.2-0.3-0.3-0.5-1-1.6-0.7-0.4-0.1 0.1-0.2 0-0.3 0-0.3 0-0.2 0.1-0.1 0-0.2 0.1-0.4 0.1-0.2 0-0.2 0.1-0.3 0.1-0.1 0 0-0.1 0-0.1 0-0.1 0-0.1 0-0.1 0-0.1 0-0.1-0.2 0-0.1 0-0.1 0-0.2 0-0.1 0-0.2 0-0.2 0-0.2 0-0.2 0-0.2 0-0.1 0-0.1 0-0.2 0-0.1 0-0.1 0-0.2 0-0.2 0-0.1 0-0.1 0-0.1 0-0.1 0-0.1 0-0.1 0 0-0.1 0-0.1-0.1-0.1 0.1 0 0-0.1-1.2 0-1-0.6-0.6-1.3-0.2-3.7-0.3-1.5-1.1-1.9-5.7-6.2-1.8-1.6-0.3-0.1-0.2-0.1 0.1-0.3 0.1-1 0.1-0.1 1.9-3.1 5.2-14.3 1.5-2.9 1.5-1.8 8.2-5.9 2.6-2.5 1.9-2.5 1.6-3.2 2.9-11.7 7.3-16 4.6-6.7 1.5-3 0.9-2.6 0.1-2.5-0.7-2.9-1.2-2.7-6.3-10.9-1.1-3.1-1.9-7-0.7-49.7 2-8.9 155.9 9.6 61.5-18.4z m52.1 49.9l0.8-0.4 1.4-0.3 0.2 0.1 0.1 0 0 0.1-0.1 0-0.2 0.1-0.2 0-0.1 0-0.1 0-0.1 0-0.2 0-0.1 0-0.1 0-0.1 0 0 0.1-0.1 0.1-0.1 0-0.1 0.1-0.1 0.1-0.1 0.2-0.2 0-0.1 0.1-0.2-0.1-0.1 0-0.1-0.1 0-0.1z m-11.7-4.1l0.7 0.1 1.4 0.4 1.3 0.7-7.2 0 0.9-0.9 2.9-0.3z" id="SSEE" name="Eastern Equatoria">
  </path>
  <path d="M201.5 213.5l0.4 6.6-2.7 27.3-0.2 52.6 4.2 26.9 0.2 11.1 1.7 10.9 2.9 9 4.7 6.8 4.7 4.1 25.9 17 3.2 1.2 2.6 0.4 2.2-0.1 2-0.4 2-0.8 4.9-2.7 8.7-5.9 47.3-22.4 11.2-3 3.4 3.7 10.2 16.9 4.9 6.2 1.9 1.7 1.1 0.9 1.6 0.6 11.9 2.1 3.8 1.6 5.7 3.5 6.6 5.1 9.9 5.5 3.3 1.2 2.6 1.4 1.1 1.8-0.2 2.1-0.8 2-0.3 1.7 0.6 1.5 3.1 2.4 0.9 2 0.4 3.1-0.2 12.9-1.4 12.5 0.7 9.8 3.2 18.2-40 3.4-1-0.1-1.1-0.3-0.7-0.4-12.7-9-120.5 14.4-2.1 0.3-0.1-1.7-3.8-2.2-4.7-1.7-2.7-1.4-1.3-1.4-3.2-2.3-2.4-3.1-1.3-0.5-1.4-0.4-1.8-1.1-0.8-0.9-0.3-0.9-0.1-0.9-0.3-1-0.1-0.5 0.2-0.5 0-0.4-0.3-0.3-0.5 0-0.5 0.1-0.5 0-0.4-0.2-0.8-1.8-0.2-4.1-0.5-1.8-3.6-0.3-0.9-0.2-0.2-0.5 0-0.6-0.5-0.6-0.8-0.3-1.6-0.3-0.8-0.2-2.4-1.4-0.4-0.7-0.2-1.5-0.3-0.6-1.3-0.6-3.6-0.4-1.2-0.4-0.7-1.3 0-1-0.4-0.7-2-0.1-0.8-0.2-1.3-1.2-0.8-0.4-1.5 0-0.6-0.1-2-1.6-1.4-0.6-4.9-1.2-1.2-0.7-3.6-3.3-1.1-0.7-1.3-0.2-1.5 0.5-2.1-0.9-3.1-2.4-4.4-2.2-1-0.7-0.9-1.2-0.4-1.2-0.5-2.2-0.6-1.2-0.5-0.4-1.4-0.4-0.6-0.3-0.5-0.6-0.7-1.2-0.5-0.6-1.1-0.7-4.6-2.5-1.7-3.9-0.4-1.3 0.1-1 1.6-1.6 5.2-1.8 1.8-1.5 0.4-1.4-0.3-1.2-0.4-1.1-0.3-1.2 0.3-3.4-0.1-1.2-0.4-1.3-1.2-2.1-0.8-2.6-0.8-1.2-1-1-2-0.7-0.4-0.4-0.4-0.5-0.6-0.3-1.9-0.4-1.2 0-2.4 0.6-1.1 0-2.4-0.8-2.3-1.9-3.8-4.2-0.7-0.4-0.6-0.4-0.5-0.5-0.5-0.6-0.1-1.5-1.7-1.6-0.1-2.9-0.8-1.2-6.8-6.3-2.5-1.2-4.5-0.5-2.5-1.4-1.6-0.2-1.6 0-4.4-0.8-5.5 0.9-2.5-0.1-2.5-1.5-0.8-0.2-0.5-0.4-0.5-0.5-0.3-0.7-1.9-1.8-2.7 0.3-5.1 1.7-0.4-0.2-1.3-1-0.6-0.3-0.5-0.1-1.2 0-1.4-0.2-0.5 0-2.7-0.7-1.2-0.5-2.1-1.1-2.2-1.6-1.7-2-0.7-2.3 0.2-2.6 1-2.7 4.4-7.5 0.8-0.9 3.2-2.1 0.5-0.8-0.4-0.9-2.1-1.7-0.6-1.1 0.3-1.2 1.5-2.1 0.2-1.1-1.5-0.8-2.9 0.1-0.8 0.1 0.3-0.5 0.1 0 0.1-1.1 0.5-0.7 4.5-3.4 2.4-1.2 8.6-5.4 1.8-0.4 7.2-0.8 3.8-1.3 0.5-0.2 0.8-1.2 0-8 0-0.6 0.2-0.4 0.3-0.7 7.2-12.2 0.3-0.8 0-0.4 1.6-15.3 0.5-1.4 0.6-0.9 2.3-2.1 4.8-5.5 0.6-1.8 0.2-0.9-0.2-20.9 0-0.4 0.3-1.6 0.3-0.6 0.3-0.3 0.3 0 0.7-0.1 0.3-0.1 0.6-0.1 0.7-0.3 0.6-0.4 2.7-2.2 2.8-1.7 1-1.2 1.7-2.3 0.1-0.2 0.4-0.4 1-1.1 0.7-0.9 0.7-1.5 0.2-0.8 0.2-0.6 2.1-4.3 0.8-2.3 0.1-0.5 0.1-0.5-0.1-0.4-0.2-0.9-0.7-1.5-0.1-0.4-0.2-0.9 0.1-0.6 0.2-0.9 3.9-8.5 0.8-1 0.6-0.5 0.5-0.2 0.2-0.1 1-0.3 1.2-0.4 0.8-0.2 2 0.2 0.9-0.2 1.9-0.7 0.5 0 0.9 0.1 0.5-0.1 0.7-0.3 0.6-0.1 0.5-0.1 1 0.2 0.4 0.1 0.8 0.4 0.4 0.1 0.5 0.1 0.5 0 0.4-0.1 0.8-0.3 0.4 0 0.9 0.1 0.4 0 0.4-0.1 1.5-0.7 0.4-0.1 0.9-0.1 0.5 0 1-0.1 0.8-0.3 0.7-0.3 1.2-0.4 0.9-0.2 1-0.1 3.1 0.2 0.9-0.2 1-0.3 0.3 0 4.2-1.5 0.2-0.1 0.4-0.1 0.6-0.2 0.1-0.1 0.2 0 0.1-0.1 3.4-0.8 0.4-0.1 2.6 0 1.7-0.3 1.3-0.4 0.4 0 3.2 0.1 0.6-0.1 0.7-0.2 1.7-0.8 3.5-0.9 0.9-0.1 0.3 0.2 3.4 4.3 0.4 0.7 0.2 0.3 0 0.5 0.5 12.4 0.2 0.4 0.2 0.4 0.5 0.5 0.6 0.5 2.2 1.3 0.6 0.4 1.2 0.5 0.8 0.3 0.5 0.1 0.9 0.3 0.2 0.1 0.5 0.4 0.3 0.3 0.4 0.6 0.4 0.6 0.4 0.6 0.6 1 3.3 5.6 1 1.1 1.1 1.2z" id="SSBW" name="Western Bahr el Ghazal">
  </path>
  <path d="M223.3 480.8l2.1-0.3 120.5-14.4 12.7 9 0.7 0.4 1.1 0.3 1 0.1 40-3.4-2 10.6 0.5 3.5-0.8 2.9 0.6 3.1-1.3 2.8 1 2.5 0.8 4.6-0.5 2.8 0.2 2.4 0.7 1.9 3.1 4.7 1.5 3 1.3 4.1 2.1 2.4 3.5 1.9 4.7 5 2.1 3.4 5.7 7.6 2.1 1.9 2.7 0.8 2.2 0.9 1.6 1 1.5 1.1 1.2 1.6 2.7 1.6 2.7 0.7 34.5 3.4 5.5-0.1 3.9-2.3 1-3.7 2.5-7.4 1.6-3 5.5-7.1 3-2.8 1.3-2.2 1.5-3.6 1.4-7.8 0-3.6-0.9-3.1-0.9-5 0.3-6.9 0.9-1.5 1.2-0.8 16-0.3 3.5-0.4 1.3 0.6 1.5 1.1 2.8 2.7 2.6 3.4 8.1 16.2 3.4 4.2 9.5 8.8 8.7 6.6 3.1 3 1.9 2.5 2.2 3.6 1.6 1.9 4.5 3.1 5.8 5.3 2.3 4 1.8 3.9 0.3 3.4-0.9 2.9-3.7 5.5-1.3 3.4-0.9 3.9-1.2 23.4-0.2 1.6-0.3 1-0.5 0.9-0.9 0.8-1.8 1-10.9 3.6-9 4.6-3.6 2.7-10.4 10.2-2.8 1.4-2.5 0.4-2-0.4-2-1.2-5.1-4.7-1.8-1.2-1.8-0.7-2-0.1-1.6 0.4-2.1 0.8-1.8 1.2-1.9 1.8-3 3.2-12.8 10.1-0.3-0.2-0.8-0.4-1-0.8-1.4-0.8-0.2-0.3-1.4-0.2-1.3 0.1-1.8-0.1-3.1-2.7-1.8-1.1-1.6-1-4.5-0.3-0.9-0.5-2 0-1.5-0.2-1.4-0.6-2 0.1-1.2 1.1-0.5-0.1-1.2 0.2-0.7 1-0.2 2.7-0.2 1.4 0.1 0.8-0.2 0.9-1.5 1.4-0.5 0.8-0.5 1.8-0.6 1.6-1 1.5-4.1 3.5-0.7 1.1-0.8 1.9-1 1.5-0.5 0-1.1-0.2-1-0.2-0.6 0.8-1.8 0-0.9 0.9-0.2 1.5-1.1 0.3-1.3-0.2-1.4-1.2-2.4-2.4-0.7-1.7-0.2-0.4-1.1-0.2-1.3 0.3-1.1 0-0.5-0.3 0.4-1.1 0-0.4-0.4-0.4-0.7 0-0.8-0.2-0.6-0.3-0.6-0.3-0.5-0.7-0.5-0.6-0.5-0.6-0.5-0.2-1.5 0.6-0.5 0.1-0.7-0.4-0.6-0.7-4.8 1.2-0.5 0.1-2.8-1.2-1.6 0.3-2.6 0.1-1-0.6 0.1-0.7 0.6-0.7-0.3-0.7 0-0.6 0-0.3-0.1-0.4-0.5-0.5-0.4-1-0.4-0.5-0.5-0.1-0.9-0.3-0.9 0.6-1 0.9-0.3 0.4-1.1 0.1-0.2 0-1.2 0.2-0.7 0.3-0.2 0.4-1 0-0.7 0.1-3.2 6.3-1.2 1.7-1.2 0.7-3.2 0.8-1 0.6-0.3 0.9-0.2 0.9-0.4 0.5-1.5 0-0.7 0.2-0.2 0-0.7-0.1-1.8 0.4-1.1 0.8-3.1 4-1.4 1.4-1 0.6-2.2-1.3-1.4-1.3-0.5-0.7 0-0.4 0-0.2-0.1-0.3-0.5-0.1-0.1 0-1.1-0.1-0.3 0.2-0.2 0.1-0.5-0.1-1.7-1.2-3.4 0.1-3.4 0.7-0.9-0.1-0.5-0.3-1.3-1.6-1.2-1.5-0.9-0.7-0.8-2-0.2-0.5-0.3-0.6-0.8-0.5-0.6-0.2-0.6 0.1-0.7 0.3-0.3-0.3-1.3-0.1-0.7 0.4-0.8-0.8-2.2-1.5-0.4-0.8-0.1-0.6 0-0.2-0.4-3.2 0.1-0.5-0.2-0.3-0.8-0.6-0.1-0.4-4.1-0.5-0.9 0.1-0.5-0.1-0.8-0.9-0.4-0.1-0.7 0.3-0.3 0.3 0.1 0.1-0.1 0.2 0 0.4-0.2 0.3-0.5 0-1.3-0.5-0.4-0.1-2.3 0.3-0.2 0-0.5-0.3-0.7-0.5-0.3 0-1.2-1.3-0.8-0.7-0.7-0.2-1.3-0.2-0.5-2.4 0.1-0.3-0.1-0.4-0.5-0.8-0.6-0.3 0.6-1 1.5-2 0-0.7-0.1-1.2 0-2.7 0-0.9-0.6-1.2-0.5-0.5-1.3 0-0.4 0.1-0.1-0.3-0.7-0.8-0.7-0.4-0.7 0.1-1.5 0.4-0.1 0 0-0.1 0-0.9-0.2-1.2-0.2-0.6 0.1-0.4 0.1-0.3-0.3-1.1-0.7-1.3-0.5-0.7-0.6-0.3-0.1 0-0.2 0.1-0.8 0-0.3-0.5-1.4-0.9-7-0.8-0.9-0.3-0.3-0.3-0.8-2-1.5-0.4-0.2-1.2-0.3-0.7-0.7-0.8-2.4-1.9-0.1 0-0.4-0.2-1.2-1.6 0.1-1.4 0.4-0.8 0-0.4-0.3-0.8-0.1-0.1 0-0.5-0.8-1-2.3-1.7-1.3-3.1-2.2-1.8-4.5-3.1-1.6-2-1.3-2.3-2.1-5-0.3-1.2-0.4-3.9-0.7-2-0.1-1 0.1-1.2 3.2-8.7-0.1-0.7 0.2-1.4-0.3-0.7-0.8-0.5-0.6 0-0.4 0.3-0.3 0.1-0.3 0.1-0.4 0.1-0.4 0-0.4-0.8-0.1-0.5 0.4-1.2 0.1-1.3 0.2-0.6-0.1-0.4-1.4-0.9-0.3-0.4-0.2-0.4 0-0.7-0.3-1.3-0.6-1.2-1-1-1.1-0.6-1.6-0.5-0.3-0.6-0.1-0.8-0.5-1.4-0.8-0.5-3.3-1.2-0.7 0-1.4 0.5-0.8-0.1-0.5-0.3-0.6-1.2-1.4-1.2-0.9-2.2-0.9-0.9-3.4 0.8-1.7-0.1-1-1.3-0.7-1.8-1-0.2-1.3 0.5-1.8 0.1-1.9-0.8-0.6-1.4-0.5-3.6-0.8-1-1.4-0.9-5.6-2.2-5.6 0.2-2.5-0.3-4.7-1.6-1.2-1-0.8-1.4-0.6-1.7-0.9-1.4-1.4-0.4-3.2 2.2-1.2 0.4-0.3-1.7 0.6-1.5 1.3-1.4 1.6-1.1 1.4-0.8 1.3-1.1 0.8-1.4-0.1-1.5-1-1.3-1.3-0.3-1.1 0.1-0.8-0.5 0-1.9-0.3-2.1-1.2-0.9-3.3-0.7-1.5-0.9-1.9-2.6-1.3-1.2-1.5-0.9-1.2-0.5-0.9-0.8-0.5-1.6 0.2-1.4 0.4-1.5-0.1-1.2-1.5-0.5 0.6-0.9 0.7-0.5 0.8-0.5 0.7-0.5 1.5-3.2 2.5-3.4 1.3-2.4 0.6-0.8-0.1-0.9z" id="SSEW" name="Western Equatoria">
  </path>
  <path d="M682.5 539l-2 8.9 0.7 49.7 1.9 7 1.1 3.1 6.3 10.9 1.2 2.7 0.7 2.9-0.1 2.5-0.9 2.6-1.5 3-4.6 6.7-7.3 16-2.9 11.7-1.6 3.2-1.9 2.5-2.6 2.5-8.2 5.9-1.5 1.8-1.5 2.9-5.2 14.3-1.9 3.1-0.1 0.1-0.1 1-0.1 0.3-1.6-0.8-0.2 0-0.2 0.4-6.3 7.1-0.7 0.7-0.3 0.1-1.1 0.5-4.3 0.6-3 0.4-0.9 0.2-1.4 0.7-0.9 1.1-0.1 0.1-0.8 0.7-1.4-0.2-0.1-0.1-10-5.4-6.6-3.6-3-1-3.3-0.4-3.7 0-0.2 0.1-1.9 0.5-2.9 2.2-1.6 1.3-0.5 0.4-0.7 0.3-0.5 0.1-1 0.2-0.7 0.3-2.2 1.7-0.2 0.2-1.1 0.5-0.8 0.1-1 0-0.6 0-0.8 0.2-0.9 0.8-0.4 0.9-0.2 0.9-0.4 0.9-5.2 7.6-1.4 2.9 0.2-0.9 0.8-1.8 0.1-0.6 0-0.7-0.1-0.2-0.3-0.3-2.4-0.6-0.2-0.3-1.9-0.7-0.7-1.1-0.4-1.4 0-2 0-0.1-0.1-0.7-0.5-1-0.5-0.4-0.8 0.2-0.4 0.3-0.7-0.5-1.3 0.9-1.3 1.5-1.7 0.9-0.2 0-0.3-0.1-1-0.3-0.5 0.1-0.6 0.4-0.5 0.1-1.3 0.5-2.5 1.3-1 0.3-1.6 0.2-0.8 0-0.7-0.3-0.2-0.2 1.2-1.3-0.1-1.2 0.4-1 0-0.6-0.3-0.9-0.2-0.2 0.8-1.2 0.5-1-0.7-5.1-1.2-4.9-1.3-0.9 0-0.2-1.1-2.1-0.8-0.2-0.7 0.1-0.8 0.2-0.8 0.1-1.6 0-0.7-0.2-3-0.9-6.4-3.8-3.9-1.3-0.2-0.2-1.5-0.8-0.5 0.1-0.5 0.3-0.2 0.2-3.6-0.1 0.2-0.9-0.8-0.8-0.2-1.3-0.3-2.1-0.4-0.2-1-1 0.1-2 0.4-2.9-0.9-1.2-1 0.1-0.1 0-2-0.4-1.6-0.5-1.3-0.8-2.8-0.9-1.4-1.4-0.7-2.8-1-1.4-0.8-0.4-1.6-0.3-1-0.6-0.3-0.5-0.3-1.9 0.9-1.7 0.1-2.3-1.6-1.2-0.8-1-1.9-1-0.8-0.6-0.5-0.1-0.8-0.1-1.2 0.3-1.4 0.2-1.3-0.9-0.4-0.6-0.8-0.4-0.2-0.1-0.7 0.1-0.5-0.3-0.4-0.6-0.1-2.3 0.1-2.9 0.4-3.6 0-1.3 0.9-1.5 1.1-2.8-0.3-0.1 12.8-10.1 3-3.2 1.9-1.8 1.8-1.2 2.1-0.8 1.6-0.4 2 0.1 1.8 0.7 1.8 1.2 5.1 4.7 2 1.2 2 0.4 2.5-0.4 2.8-1.4 10.4-10.2 3.6-2.7 9-4.6 10.9-3.6 1.8-1 0.9-0.8 0.5-0.9 0.3-1 0.2-1.6 1.2-23.4 0.9-3.9 1.3-3.4 3.7-5.5 0.9-2.9-0.3-3.4-1.8-3.9-2.3-4-5.8-5.3-4.5-3.1-1.6-1.9-2.2-3.6-1.9-2.5-3.1-3-8.7-6.6-9.5-8.8 17.4-1.5 7.1-1.4 5.8-3 4 0.2 14.6 12.4 9.6 4.2 26.7 4.9 5.3 2.8 2.9 0.3 4-3.5 42.3 2.3z" id="SSEC" name="Central Equatoria">
  </path>
  <path d="M745.4 376.5l-0.1 0-0.2-0.1-9.1-4-1.8-1.2-1.9-1.8-0.2-2.2 0.5-2.2 2.5-5.2 1-3 0.7-3.3 0.2-3.2-0.3-3.9-1.2-2.6-2-1.7-8.2-4-6.8-5.8-4.5-5.5-14-24.7-1.4-3.5-2.8-5.6-1.6-2-1.5-1.1-1.6 0-1.8 0.5-1.9 0.9-9.6 5.9-10.5 5.1-2.5 0.6-3 0.1-3.2-1.2-2.7-2.4-26.2-35.1-0.9-0.9-0.5-0.2-0.5 0-0.3 0.1-3.6 1.3-3.5 0.4-1.2-0.1-1.6-0.5-1.4-0.7-0.7-0.6-0.7-1-1.7-0.5-3.5-0.4-12.5-3.3-9.5-5.3-3.5-1.2-1.6-0.3 0.8-18.4 13.7-0.1 0.2 0 4.3 0 1.7-0.1 1.4-0.2 1.6-0.1 1.5-0.1 1.2-0.2 1.1-0.3 1.3-0.5 0.8-0.3 0.8-0.5 1.2-1.1 0.9-0.9 1.4-1.6 1.5-2.1 1.3-1.7 1.5-2 1.6-0.1 0.1-0.2 0.9-1.1 1.7-2 2.2-2.9 0-0.1 0.1-0.1 0.1-0.1 0.9-1 1-0.9 0.4-0.1 1.7-2 5.5-7.2 2.8-3.5 3.4-4.2 1.3-1.1 0.7-0.8 0.6-1.3 1-1.1 1.6-1.5 1-0.8 1.1-1 0.6-1.3 1-2 0.1-0.1 2.8-4.5 1.7-2.2 4.2-4.4 1.9-1.3 4.9 0 3.4 2.1 7.3 1.1 3-1.5 2.8-1.9 0.2-4.6-0.4-1.9-0.1-0.6-0.1-0.3 0-0.1 0-0.2-0.1-0.2 0-0.1 0-0.2-0.1-0.1 0-0.1 0-0.1 0-0.1 0-0.1-0.1-0.1-0.2-1-1.9-6.6 2.6-2.9 6.6-6.3 3.6-3.6 2.3-2.2 1.9-1.9 0.6-0.5 0.8-0.7 2.6-3-0.7-3.6-0.2-1.6-0.7-1.8-0.8-1.3 0.1-0.1 0.4-2-3.6-6.9 0-0.4 0-1 0-0.8 0.1-1.5-0.5-1-0.1-2 0-1.1 0-2.3 0-1.8-0.1-3.5-0.1-2.8 0-3.1 0-1.7 0-0.6 0.7-0.7 0.2-6.4-0.1 0.2-0.1 0.1 0.2-3.5-0.1-2.9 0-0.2 0-0.2-0.1-0.1 0-0.4-0.1-1.9-0.3-0.9-0.7-1.3-0.5-0.2-0.7-0.7-10.7-9.5-7.3-8.3-3.9-4.4 26.1-0.1 26.2-0.2 0.1-1.9 0-1-0.2-1-1-2.8-0.6-3.7 0-1 0.1-1.1 0.3-1.9 0-1 0-0.5-0.1-0.5 0-0.4 0.2-0.4 0.6 0.1 37 0.4-0.5 6.6-4.5 15.6 0.1 9.4-1.1 10.6-0.3 0.9-1 2.3-0.9 1.3-1 1.3-0.3 0.4-0.4 0.8 0 1.2 3.9 29.8 3.9 29.7-0.3 1.5-0.3 1-2.1 3.7-0.5 1.2-0.1 1 0.8 0.6 17.3 6.4 0.9 0.5 0.7 0.5 6.2 7.6 17.1 14.1 14 11.6 3 2.5 1.2 1.4 0.4 1 3.1 7.8 0.4 1.4 0.1 2.1-0.1 1.6-0.8 5.3 0.3 2.4 0.5 1.6 0.5 1.8 0 0.6 0 0.3 0 0.2-0.3 0.8-2.7 5.5-1.7 3.4-0.7 1.3-1.6 7.3-0.5 6.1 0.3 3.5 0.6 2.3 0.2 0.5 0.2 0.4 0.3 0.2 0.2 0.1 13.4 0.1 1 19.9 1.1 23.1 1.1 23-0.3 2-0.3 1.8-1.1 1.8-1.6 1.8-7.8 7-1.3 0.8-0.3 0.2-1.5 0.4-4.4 0-1.9 0.3-0.8 0-1.3 0.4-1.3 0.5-0.8 0.6-3.3 2.8 0 0.1-0.3 0-0.9 0.2-3.6-0.5-1.9-2.2-1.5-2.7-2.5-2.1-1.6-0.2-1.1 0.4-1.2 0.7-1.5 0.2-1.1-0.5-1.2-0.9-0.2-0.1-1.2-0.7-1.6 0.1 0.5 0.6-0.1 0.2-0.2 0.2-0.5 0.3-0.3 0-0.4 0-1.1 0.2-3.5 0.4-1-0.2-0.7 0-0.5 0.3-0.9 0.7-0.2 0.2-0.8 0.2-8.2-1.8-0.3-0.1-1.4 0.2-2.3 2 0.1 0.3 0.1 0.2 0.1 0.3-0.6 0.5-1.1 0.3-1.4 0.9-0.2 1.1 0 1-0.1 0.4-0.4 0.5 0 0.1-0.1 0.3 0.2 0.3 0.7 0.5 0.2 0.3-0.2 1-0.7 1.4 0.1 1.7 0.6 0.7 0.5 0.6 0.6 0.8 0.7 0.5 1.1 0.4-0.1 1-0.6 0.4-0.7 0.3-0.7 0.5-0.3 0.4-0.3 0.5-0.4 0.7-0.1 0.8 0 1.2 0.2 0.4 1 0.7 0.1 0.1 0.2 0.4-0.1 1.3-0.1 0.3-0.2 0.3-0.4 0.8-1 0.8-0.8 0.4-0.5 0.2-0.4 0.1-1.7 0.6-0.2 0.2-0.7 0.8-0.2 0.6-0.5 0.7-3.2 3.3-1 1.2-0.7 0.8-0.5 0.6-0.2 0.3-0.3 0.6-0.3 1.7-0.4 0.5-0.4 0.4-0.4 0.7z" id="SSNU" name="Upper Nile">
  </path>
  <path d="M899.9 530.2l-61.5 18.4-155.9-9.6-42.3-2.3-0.5-1.3-0.5 0-0.5 0.3-0.5 0.1-0.7-0.7-0.7-0.9-0.5-1.1-0.3-0.8-0.2-1.6-2.4-6.2-0.8-1.3-0.9-1.1-0.8-0.4-0.9-0.9-0.7-2-0.9-3.6-1.8-4.1-0.4-3.1-0.3-1.5-0.5-1.2-0.7-1-5-6.1-0.9-2.1-0.3-3.3-0.5-1.5-1.1-0.6-1.5-0.3-0.9-0.7-0.7-1.2-0.4-1.6-0.6-3.7-0.4-1.6-0.9-0.7-0.6-0.3-0.1-0.7-0.1-0.8-0.3-0.6-2.4-2.4-0.7-1.4-0.3-1.5-0.6-1-1.4-0.5-1-0.4-0.8-1.1-1.2-2.3-1.8-1.9-1.2-0.9-1.6-0.7-0.5-0.4-1.1-1.3-0.6-0.4-1.4-0.6-0.4-0.3-0.3-0.7-0.3-1.8-0.5-0.8-0.8-0.5-2-0.4-0.7-0.5-1.2-0.8-2.6-1.2-5.3-4.5-0.6-0.3-2-0.4-0.7-0.1-0.7-0.1-0.5-0.4-2.1-3.1-0.3-0.7-0.2-0.5-0.2-1.5-0.6-0.9-3.8-2-1.6-2.2-1-0.8-0.4-0.4-0.4-2.5-0.5-1-0.7-0.9-0.8-1.6-0.5-2.1-1.3-1.5-0.5-1.2-0.4-3.2-0.8-1.6-2.4-2.7-0.6-1.5-0.2-1-0.6-0.2-0.7 0.1-0.6-0.3-0.1-0.3 0.2-1-0.1-0.3-0.9-0.8-0.3-0.3-0.3-0.2-0.9-0.8-0.5-0.8 0.5-0.3 0.9-0.1 0.6-0.3 0.3-0.6 0-1-0.2-1.5-0.7-1.5-1-1.1-1.7-0.8-0.1-0.8 0.1-0.9-0.1-0.7-0.5-0.5-1.3-1-0.4-0.7 0.1-0.6 0.6-0.5 0.5-0.5-0.7-1.5 0.7-3.6 0.2-0.5 0.4-0.3 0.4-0.7 0.4-0.5 0.6-0.5 0.1-0.6-0.6-0.6 0-0.5 0.6-0.1 0.3-0.1 0.3-0.2 0.4-0.1-1.5-0.5-0.6 0 0-0.6 1.1-0.7-0.6-0.6-1.1-0.5-0.6-0.7 0-2.2-0.1-0.5-0.8-0.5-0.8-2.9-4.7-5.6 0.9-0.7-1-1.5-1.5-1.8-1-1.5-0.2-1.1 0.1-1.2 0-1.1-0.6-0.9-0.9 0-1 0.4-0.7 0 0-1.5-2.1 1-1.1-2.5-0.2-3.4 0.4-1.7 1.3-0.4-0.2-0.9-0.6-0.9 0.1-0.4 1.4-0.5-0.1-1.3-1.6-2.6 0.6-0.2 1.5-0.9-0.5-0.8-0.3-2.3-0.8-0.8 0.6-2.1 0.4-0.5 0.5-0.2 0.5-0.4 0.4-2.2 0.4-1.1 0.1-1.2-0.7-1.5-0.3 0-1 0.1-0.3-0.1-0.1-0.3 0.1-1 0-0.3-2.3-1.6-0.4-0.3-0.3-0.9-1.1-1.2-0.3-0.7 0.3-1 0.4-0.8 0.1-0.7-0.8-0.5 0 0.3 0 0.5 0 0.3-0.5 0 0.1-1 0.2-1 0.4-1 0.4-0.8 1.5-2 0.6-1.2 0-1.2-0.5-0.6-0.5-0.2-0.6-0.1-0.5-0.2-3.1-2.9-0.7-0.9-0.6-1.1 1-0.7 0.8-0.9 0.4-1-0.5-1.2-0.6 0.5-0.4-1.3 0.1-2.7-0.2-1.4-0.3-0.7-1-0.9-0.3-0.6-0.1-0.5 0.1-1.1 0-0.6-0.3-1.3-0.9-1.6-0.4-0.9-0.2-1.4 0.2-1.3 0.5-1.1 0.5-0.6 0.5-0.2 1.3-0.3 0.4-0.1 1.4-1.4 0.2-0.2 0.1-0.4 0.2-1.3 0.2-0.5 0.5-0.3 1.1-0.4 0.6-0.3 0.9-1 0.3-0.8 0.4-2.6 0.8-1.5 1-0.8 1.2-0.6 0.9-1-0.6-0.6 0.2-0.4 0.5-0.5 0.4-0.6 0-5.2-0.2-1.2-0.5-0.5-0.7-0.2-0.8-0.6-1-2 0.9-0.8 1.5-0.6 0.8-1.3 0.3-1.8 0.9-1.1 1.1-0.8 0.8-0.9 0.9-2.6 0.7-0.9 1.4-0.3 1.1-0.5 0.9-0.9 0.8-1.1 0.8-0.8 1.3-0.7 1.5-0.3 9.6 0.4 10.1 2.4 3.3 0.4 6.3 0 1.2-0.2 1-0.6 1.2-0.6 1.6 0.3 3.5 1.2 9.5 5.3 12.5 3.3 3.5 0.4 1.7 0.5 0.7 1 0.7 0.6 1.4 0.7 1.6 0.5 1.2 0.1 3.5-0.4 3.6-1.3 0.3-0.1 0.5 0 0.5 0.2 0.9 0.9 26.2 35.1 2.7 2.4 3.2 1.2 3-0.1 2.5-0.6 10.5-5.1 9.6-5.9 1.9-0.9 1.8-0.5 1.6 0 1.5 1.1 1.6 2 2.8 5.6 1.4 3.5 14 24.7 4.5 5.5 6.8 5.8 8.2 4 2 1.7 1.2 2.6 0.3 3.9-0.2 3.2-0.7 3.3-1 3-2.5 5.2-0.5 2.2 0.2 2.2 1.9 1.8 1.8 1.2 9.1 4 0.2 0.1 0.1 0 0 0.2-1.1 1.1-0.1 0.3 0.2 1.6 1.6 4.3 0.7 1.2 1.4 0.8 0.3 0.7 0.2 0.7 0.3 0.5 0.5 0.3 2.2 0.2 1.7 0.8 1.1 0.1 0.5-0.6 0.4-0.2 2.5-0.6 0.7 0.1 2.2 0.9 2.6 0.4 0.6 0.2 1.3 1.1 0.2 0.3 1 1.1 1.4 1.3 4.4 1.1 1 0 1.9-1.3 0.7-0.3 2.5-0.5 0.9-0.2 2.1-0.1 1.3 0.5 0.7 0.6 0.2 0 1.3 0.4 0.3 0.1 0.5 0.3 0.7 0.7 1.1 1.4 0.8 0.6 1.7 0.5 4.6-0.4 0.5-0.1 0.9 0.2 1.2 0.9 1.4 0.5 0.3 0.2 0.3 0.1 0.8 0.3 0.6 0.2 0.8 0.4 0.3 0.3 0.7 0.8 2.5 3.5 4 3 0.8 0.2 1.6 0.2 0.4 0.1 0.4 0.1 2.4 1.4 9.7 10 1.3 2.1 0.1 0.1 0.4 2.2 0.1 0.5 0 1 0.1 3.7 0 2.7 0.2 0.4 0.5 0.2 3.6 2.9 0.4 0.5 1.7 2.2 1.6 1.1 1.4-0.3 0.9-0.4 0.4-0.3 1.1 0.7 0.8 1.4 0.4 1.6 0 2.5 0 0.8 0.1 1.8 0.7 0.8 0.6 0.2 0.5 0.5 0.4 0.5 0.3 0.5 3.3 2.4 0.3 0.5 0.4 1.3 0.6 0.4 0.5 0.2 0.3 0.3 3.2 0.8 6.2 1.5 1.7 0.4 1.7 1.2 1 0.7 2.4 1.7 0.7 1 0.5 1.2 0.4 1.4 0.1 1.6-0.2 0.2-0.7 0.5-0.2 0.1 0.1 0.5 0.3 0.8 0.1 0.3 0.4 2.1 0.4 1.4 0.5 0.4 0.2 0.1 0.2 0.1 1.2 0.2 3.3 0 1.7 0.2 1.4 0.6 5.4 3.5 0.4 0.9 0.1 0.3 0.3 1.2 1 1.1 0.5 0.3 0.8 3.2 0.8 3.2 1.8 4.6 0.6 4.5 0.7 1.6 3.1 5.4 0.5 2.1 0.1 4.6 0.4 1.6 2.7 4.9 1.5 3.8 1.3 1.5 1.5 1.4 1.4 1.7 0.6 1.5 0.7 4.3z" id="SSJG" name="Jonglei">
  </path>
  <path d="M583.3 232.7l-0.8 18.4-1.2 0.6-1 0.6-1.2 0.2-6.3 0-3.3-0.4-10.1-2.4-9.6-0.4-1.5 0.3-1.3 0.7-0.8 0.8-0.8 1.1-0.9 0.9-1.1 0.5-1.4 0.3-0.7 0.9-0.9 2.6-0.8 0.9-1.1 0.8-0.9 1.1-0.3 1.8-0.8 1.3-1.5 0.6-0.9 0.8 1 2 0.8 0.6 0.7 0.2 0.5 0.5 0.2 1.2 0 5.2-0.4 0.6-0.5 0.5-0.2 0.4 0.6 0.6-0.9 1-1.2 0.6-1 0.8-0.8 1.5-0.4 2.6-0.3 0.8-0.9 1-0.6 0.3-1.1 0.4-0.5 0.3-0.2 0.5-0.2 1.3-0.1 0.4-0.2 0.2-1.4 1.4-0.4 0.1-1.3 0.3-0.5 0.2-0.5 0.6-0.5 1.1-0.2 1.3 0.2 1.4 0.4 0.9 0.9 1.6 0.3 1.3 0 0.6-0.1 1.1 0.1 0.5 0.3 0.6 1 0.9 0.3 0.7 0.2 1.4-0.1 2.7 0.4 1.3 0.6-0.5 0.5 1.2-0.4 1-0.8 0.9-1 0.7 0.6 1.1 0.7 0.9 3.1 2.9 0.5 0.2 0.6 0.1 0.5 0.2 0.5 0.6 0 1.2-0.6 1.2-1.5 2-0.4 0.8-0.4 1-0.2 1-0.1 1 0.5 0 0-0.3 0-0.5 0-0.3 0.8 0.5-0.1 0.7-0.4 0.8-0.3 1 0.3 0.7 1.1 1.2 0.3 0.9 0.4 0.3 2.3 1.6 0 0.3-0.1 1 0.1 0.3 0.3 0.1 1-0.1 0.3 0 0.7 1.5-0.1 1.2-0.4 1.1-0.4 2.2-0.5 0.4-0.5 0.2-0.4 0.5-0.6 2.1 0.8 0.8 0.3 2.3 0.5 0.8-1.5 0.9-0.6 0.2 1.6 2.6 0.1 1.3-1.4 0.5-0.1 0.4 0.6 0.9 0.2 0.9-1.3 0.4-0.4 1.7 0.2 3.4 1.1 2.5 2.1-1 0 1.5 0.7 0 1-0.4 0.9 0 0.6 0.9 0 1.1-0.1 1.2 0.2 1.1 1 1.5 1.5 1.8 1 1.5-0.9 0.7 4.7 5.6 0.8 2.9 0.8 0.5 0.1 0.5 0 2.2 0.6 0.7 1.1 0.5 0.6 0.6-1.1 0.7 0 0.6 0.6 0 1.5 0.5-0.4 0.1-0.3 0.2-0.3 0.1-0.6 0.1 0 0.5 0.6 0.6-0.1 0.6-0.6 0.5-0.4 0.5-0.4 0.7-0.4 0.3-0.2 0.5-0.7 3.6 0.7 1.5-0.5 0.5-0.6 0.5-0.1 0.6 0.4 0.7 1.3 1 0.5 0.5 0.1 0.7-0.1 0.9 0.1 0.8 1.7 0.8 1 1.1 0.7 1.5 0.2 1.5 0 1-0.3 0.6-0.6 0.3-0.9 0.1-0.5 0.3 0.5 0.8 0.9 0.8 0.3 0.2 0.3 0.3 0.9 0.8 0.1 0.3-0.2 1 0.1 0.3 0.6 0.3 0.7-0.1 0.6 0.2 0.2 1 0.6 1.5 2.4 2.7 0.8 1.6 0.4 3.2 0.5 1.2 1.3 1.5 0.5 2.1 0.8 1.6 0.7 0.9 0.5 1 0.4 2.5 0.4 0.4 1 0.8 1.6 2.2 3.8 2 0.6 0.9 0.2 1.5 0.2 0.5-38.1-0.9-9.2-2.9-25.2-52-0.8-1.1-1.3-0.6-1.4-0.3-12-1-2.9-46.4-0.7-1.6-1.3-1.7-22.5-15.6-20.2-30.9-4.4-1.5-16.1 1.3 0.8-2.2 2-8.6 1.2-2.4 1.6-1.6 3.7-1.2 1.8-0.8 1.6-1.4 0.3-0.6 0-0.3-0.7-0.5-1.1-1.1-0.6-0.5-1.4-0.8-0.8-0.3-0.7-0.1-0.7-0.3-0.6-0.2-0.6 0.2-0.6 0.1-0.7 0.2-0.5 0-0.4 0-0.5-0.4-0.7-0.2-0.6-0.1-1-0.2 0-0.1-1-1.9-0.3-2.9 0.1-3.4 1.6-3 5.1-5.1 5.9-4.6 1.6-1.3 9.7-5.2 9.4-3.4 14-3.1 8.5-0.1 0-5 2.3-2.2 3.7-5.9 0.1-11.5 2.4-1.9 4.4-2.6 21-10.3 3.6-2.2 18.5 12 18.6 11.9 20.9 18.9 1.2 0.9 1.1 0.4 1.1-0.7 0.9-0.9 1.7 1.4 0.1 0.2 0.7-0.4 0.9-0.1 1.1-0.4 1.2-0.6 0.7-0.5 0.5-0.3 4.5 0z" id="SSUY" name="Unity">
  </path>
  <path d="M327.4 352.1l-11.2 3-47.3 22.4-8.7 5.9-4.9 2.7-2 0.8-2 0.4-2.2 0.1-2.6-0.4-3.2-1.2-25.9-17-4.7-4.1-4.7-6.8-2.9-9-1.7-10.9-0.2-11.1-4.2-26.9 0.2-52.6 2.7-27.3-0.4-6.6 2.2 0.9 2.2 2 1.5 1.3 1.4 1.3 1.5 1.3 1.4 3.6 0.3 1 1 2.5 1.4 5.4 0.6 1.2 1.3 3.6 0.8 2.2 0.7 1.6 0.2 0.4 0.2 0.4 0.8 1.9 1.7 1.2 1.3 0.8 1 0.6 1.5 1.1 1.6 0.5 1.3 0.4 1.1 0.3 1.2 0.4 1.3 0.4 1.3 0.4 1.2 0.2 2.1 0.5 1.9 0.5 0.9 0.2 2.4 1.6 1.9 0.9 4.6 0.3 0.8 0 2.7-0.9 0.1 0 1.3-0.1 1.2 0 2.5-1.3 1.6-0.9 21-7.2 20.4-0.5 3.6 0.7 11.3-0.1 6.4 0.8 0.5 0 1.6-0.5 0.4 0 10.1 1.5 7.8-0.4 1.3-0.3 0.8-0.3 8 16.8 3.8 4.3 31.4 0.3 31.5 0.2 0.1 0 0 0.1 1 0.2 0.6 0.1 0.7 0.2 0.5 0.4 0.4 0 0.5 0 0.7-0.2 0.6-0.1 0.6-0.2 0.6 0.2 0.7 0.3 0.7 0.1 0.8 0.3 1.4 0.8 0.6 0.5 1.1 1.1 0.7 0.5 0 0.3-0.3 0.6-1.6 1.4-1.8 0.8-3.7 1.2-1.6 1.6-1.2 2.4-2 8.6-0.8 2.2-34.1 2.5-0.2 0.1-1.1 0.5-0.8 0.2-0.8 0-5.2-0.6-0.8-0.2-13.4-0.6-9 0.9-3.4 0.8-2.2 1-1.7 1.2-1.6 2.3-1.6 4.6-1 12.2-1.1 3.4-2.2 4.3-2.3 3.3-1.7 3.5-5.1 22.8z" id="SSBN" name="Northern Bahr el Ghazal">
  </path>
  <path d="M542.8 521.3l-3.4-4.2-8.1-16.2-2.6-3.4-2.8-2.7-1.5-1.1-1.3-0.6-3.5 0.4-16 0.3-1.2 0.8-0.9 1.5-0.3 6.9 0.9 5 0.9 3.1 0 3.6-1.4 7.8-1.5 3.6-1.3 2.2-3 2.8-5.5 7.1-1.6 3-2.5 7.4-1 3.7-3.9 2.3-5.5 0.1-34.5-3.4-2.7-0.7-2.7-1.6-1.2-1.6-1.5-1.1-1.6-1-2.2-0.9-2.7-0.8-2.1-1.9-5.7-7.6-2.1-3.4-4.7-5-3.5-1.9-2.1-2.4-1.3-4.1-1.5-3-3.1-4.7-0.7-1.9-0.2-2.4 0.5-2.8-0.8-4.6-1-2.5 1.3-2.8-0.6-3.1 0.8-2.9-0.5-3.5 2-10.6 6.4 5 6.3 2.6 2.7 0.4 2.7 0 2.8-0.5 2.6-0.6 2.7-1.1 2.4-1.5 1.6-2.1 0.9-1.8 9.7-31.8 1.4-2.9 5.1-7.6 25.9-28.7 10.2-15.6 12 1 1.4 0.3 1.3 0.6 0.8 1.1 25.2 52 9.2 2.9 38.1 0.9 0.3 0.7 2.1 3.1 0.5 0.4 0.7 0.1 0.7 0.1 2 0.4 0.6 0.3 5.3 4.5 2.6 1.2 1.2 0.8 0.7 0.5 2 0.4 0.8 0.5 0.5 0.8 0.3 1.8 0.3 0.7 0.4 0.3 1.4 0.6 0.6 0.4 1.1 1.3 0.5 0.4 1.6 0.7 1.2 0.9 1.8 1.9 1.2 2.3 0.8 1.1 1 0.4 1.4 0.5 0.6 1 0.3 1.5 0.7 1.4 2.4 2.4 0.3 0.6 0.1 0.8 0.1 0.7 0.6 0.3 0.9 0.7 0.4 1.6 0.6 3.7 0.4 1.6 0.7 1.2 0.9 0.7 1.5 0.3 1.1 0.6 0.5 1.5 0.3 3.3 0.9 2.1 5 6.1 0.7 1 0.5 1.2 0.3 1.5 0.4 3.1 1.8 4.1 0.9 3.6 0.7 2 0.9 0.9 0.8 0.4 0.9 1.1 0.8 1.3 2.4 6.2 0.2 1.6 0.3 0.8 0.5 1.1 0.7 0.9 0.7 0.7 0.5-0.1 0.5-0.3 0.5 0 0.5 1.3-4 3.5-2.9-0.3-5.3-2.8-26.7-4.9-9.6-4.2-14.6-12.4-4-0.2-5.8 3-7.1 1.4-17.4 1.5z" id="SSLK" name="Lakes">
  </path>
  <path d="M401.4 472.5l-3.2-18.2-0.7-9.8 1.4-12.5 0.2-12.9-0.4-3.1-0.9-2-3.1-2.4-0.6-1.5 0.3-1.7 0.8-2 0.2-2.1-1.1-1.8-2.6-1.4-3.3-1.2-9.9-5.5-6.6-5.1-5.7-3.5-3.8-1.6-11.9-2.1-1.6-0.6-1.1-0.9-1.9-1.7-4.9-6.2-10.2-16.9-3.4-3.7 5.1-22.8 1.7-3.5 2.3-3.3 2.2-4.3 1.1-3.4 1-12.2 1.6-4.6 1.6-2.3 1.7-1.2 2.2-1 3.4-0.8 9-0.9 13.4 0.6 0.8 0.2 5.2 0.6 0.8 0 0.8-0.2 1.1-0.5 0.2-0.1 34.1-2.5 16.1-1.3 4.4 1.5 20.2 30.9 22.5 15.6 1.3 1.7 0.7 1.6 2.9 46.4-10.2 15.6-25.9 28.7-5.1 7.6-1.4 2.9-9.7 31.8-0.9 1.8-1.6 2.1-2.4 1.5-2.7 1.1-2.6 0.6-2.8 0.5-2.7 0-2.7-0.4-6.3-2.6-6.4-5z" id="SSWR" name="Warrap">
  </path>
 </g>
 <g id="points">
  <circle class="3.9469952970070104|24.69857332501378" cx="90.9" cy="693.2" id="0">
  </circle>
  <circle class="7.428746627821507|30.468750368210287" cx="545.5" cy="417.5" id="1">
  </circle>
  <circle class="11.780935791339628|35.084892002767496" cx="909.1" cy="69.7" id="2">
  </circle>
 </g>
 <g id="label_points">
  <circle class="Eastern Equatoria" cx="773.1" cy="620.5" id="SSEE">
  </circle>
  <circle class="Western Bahr el Ghazal" cx="139.1" cy="311.2" id="SSBW">
  </circle>
  <circle class="Western Equatoria" cx="357.4" cy="564.2" id="SSEW">
  </circle>
  <circle class="Central Equatoria" cx="614.6" cy="649.1" id="SSEC">
  </circle>
  <circle class="Upper Nile" cx="737.6" cy="228.4" id="SSNU">
  </circle>
  <circle class="Jonglei" cx="686.5" cy="441.7" id="SSJG">
  </circle>
  <circle class="Unity" cx="482.9" cy="276.2" id="SSUY">
  </circle>
  <circle class="Northern Bahr el Ghazal" cx="277.7" cy="308.9" id="SSBN">
  </circle>
  <circle class="Lakes" cx="486.5" cy="456.1" id="SSLK">
  </circle>
  <circle class="Warrap" cx="409.5" cy="348.1" id="SSWR">
  </circle>
 </g>
</svg>