<?xml version="1.0"?>
    
<!--********* Copyright (c) 2024 Pareto Softare, LLC DBA Simplemaps.com ***************************************
************* Free for Commercial Use, full terms at  https://simplemaps.com/resources/svg-license ************
************* Attribution is appreciated! https://simplemaps.com *******************************************-->

<svg baseprofile="tiny" fill="#6f9c76" height="1000" stroke="#ffffff" stroke-linecap="round" stroke-linejoin="round" stroke-width=".5" version="1.2" viewbox="0 0 1000 1000" width="1000" xmlns="http://www.w3.org/2000/svg">
 <g id="features">
  <path d="M734.6 45.5l0 0.2 0.1 0 0 0.3 0.2 0 0 0.2-0.2 0 0 0.1 0.2 0 0 0.8-0.2 0 0 0.6 0.2 0 0 0.1-0.3 0 0 0.3-0.1 0 0 0.2-0.3 0 0 0.1-0.2 0 0 0.1-0.1 0 0 0.3-0.3 0 0 0.2-0.2 0 0 0.1-0.1 0 0 0.2-0.2 0 0-0.3-0.1 0 0-0.3-0.2 0 0-0.2 0.2 0 0-0.1-0.2 0 0-0.3 0.2 0 0-0.6 0.1 0 0-1.2 0.2 0 0-0.3 0.3 0 0-0.3 0.1 0 0-0.1 0.3 0 0-0.1 0.6 0z m-34 77l0 0.3-0.1 0 0-0.2-0.2 0 0-0.3 0.2 0 0-0.3 0.1 0 0-0.1-0.1 0 0-0.2-0.2 0 0-0.1-0.1 0 0-0.3-0.3 0 0-0.3-0.2 0 0-0.2 0.3 0 0-0.5 0.2 0 0-0.2-0.5 0 0-0.1-0.1 0 0-1.1 0.1 0 0-0.3 0.2 0 0-0.1-0.2 0 0-0.2 0.5 0 0 0.2 0.4 0 0-0.3 0.1 0 0-0.2 0.2 0 0-0.5 0.1 0 0-0.3-0.1 0 0-0.2 0.1 0 0-0.1-0.3 0 0-0.2-0.1 0 0-0.3-0.1 0 0-0.1-0.2 0 0-0.2-0.1 0 0-0.1-0.2 0 0-0.3-0.1 0 0-0.2 0.1 0 0-0.3-0.1 0 0-0.2-0.2 0 0-0.8 0.2 0 0-0.3-0.2 0 0-0.1 0.2 0 0-0.3 0.1 0 0-0.2 0.2 0 0-0.6 0.1 0 0-0.3-0.1 0 0-0.2-0.3 0 0-0.2-0.2 0 0-0.9-0.1 0 0-0.6 0.1 0 0-0.1-0.1 0 0-0.2-0.2 0 0-0.1-0.1 0 0-0.2-0.2 0 0-0.1-0.1 0 0-0.3-0.3 0 0-0.1-0.2 0 0-0.2-0.1 0 0-0.3-0.2 0 0-0.1-0.1 0 0 0.3-0.1 0 0-0.5-0.2 0 0-0.1-0.1 0 0-0.2-0.2 0 0-0.9-0.1 0 0-0.4 0.4 0 0-0.3-0.1 0 0-0.4-0.2 0 0-0.3-0.1 0 0-0.2-0.2 0 0-0.1 0.2 0 0-0.5 0.1 0 0-0.1 0.2 0 0-0.2-0.2 0 0-0.1 0.3 0 0-0.3 0.2 0 0-0.3 0.1 0 0-0.1 0.1 0 0-0.8 0.2 0 0-0.6 0.1 0 0-0.3-0.1 0 0-0.3-0.2 0 0-0.1-0.2 0 0-0.2-0.5 0 0-0.1-0.3 0 0-0.1-0.1 0 0-0.3-0.2 0 0-0.2-0.1 0 0-0.1-0.3 0 0-0.2-0.3 0 0-0.1-0.2 0 0 0.1-0.3 0 0-0.1-0.3 0 0-0.2-0.4 0 0-0.1-0.4 0 0-0.2-0.3 0 0-0.1-0.2 0 0-0.5-0.1 0 0-1.6-0.2 0 0-0.4-0.1 0 0-0.3 0.6 0 0-0.2 0.3 0 0-0.1 0.1 0 0-0.2 0.2 0 0-0.4 0.1 0 0-0.3 0.2 0 0-0.3 0.1 0 0-0.6 0.1 0 0 0.2 0.3 0 0-0.2 0.6 0 0-0.1 0.3 0 0-0.2 0.3 0 0-0.1 0.5 0 0-0.2 0.8 0 0 0.2 0.2 0 0 0.1 0.4 0 0 0.2 0.6 0 0 0.1 0.2 0 0 0.2 0.1 0 0 0.1 0.3 0 0 0.2 0.3 0 0 0.1 0.2 0 0 0.2 0.2 0 0 0.1 0.2 0 0 0.3 0.3 0 0 0.4 0.1 0 0 0.5 0.2 0 0 0.3 0.1 0 0 0.4 0.2 0 0 0.2 0.1 0 0 0.1 0.2 0 0 0.2 0.4 0 0 0.1 0.3 0 0-0.1 0.6 0 0-0.2 0.1 0 0-0.1 0.5 0 0-0.2 0.4 0 0-0.1 0.2 0 0 0.1 0.3 0 0 0.2 0.3 0 0 0.1 0.3 0 0 0.2 0.1 0 0 0.1 0.6 0 0 0.2 0.7 0 0-0.2 0.2 0 0-0.1 0.3 0 0-0.2 0.3 0 0-0.1 0.8 0 0 0.1 0.3 0 0 0.2 0.8 0 0-0.2 0.1 0 0-0.3 0.3 0 0-0.3 0.2 0 0-0.3 0.3 0 0-0.1-0.2 0 0-0.2 0.2 0 0-0.1 0.3 0 0-0.2 0.1 0 0-0.1 0.1 0 0-0.2 0.8 0 0-0.1 0.3 0 0 0.1 0.6 0 0-0.1 0.1 0 0 0.1 0.2 0 0 0.2 0.3 0 0-0.6 0.1 0 0-0.3 0.2 0 0-0.6 0.1 0 0-0.1-0.1 0 0-0.3-0.2 0 0-0.5-0.1 0 0-0.3-0.2 0 0-0.3 0.2 0 0-0.5 0.1 0 0-0.2 0.2 0 0-0.4 0.1 0 0-0.3 0.1 0 0-0.2 0.2 0 0-0.7 0.1 0 0-0.2 0.3 0 0-0.1 0.3 0 0-0.1 0.2 0 0-0.2 0.3 0 0-0.1 0.3 0 0-0.2 0.1 0 0-0.1 0.2 0 0-0.3 0.1 0 0-0.3 0.2 0 0-0.2 0.1 0 0-0.4-0.1 0 0-0.5 0.1 0 0-0.1-0.1 0 0-0.3 0.1 0 0-0.7 0.1 0 0-0.3-0.1 0 0-0.2-0.1 0 0-0.6-0.2 0 0-0.4-0.1 0 0-0.9-0.2 0 0-0.7-0.1 0 0-0.3-0.2 0 0-0.5 0.2 0 0-0.7-0.2 0 0-0.3-0.3 0 0-0.4-0.3 0 0-0.2-0.3 0 0-0.1-0.1 0 0-0.2-0.2 0 0-0.1-0.1 0 0-0.2-0.2 0 0 0.2-0.1 0 0-0.2-0.1 0 0-0.1-0.2 0 0-1.6 0.2 0 0-0.2-0.2 0 0-0.1 0.2 0 0-0.3 0.1 0 0-0.3-0.1 0 0-0.2 0.1 0 0-0.4-0.1 0 0-1.2 0.1 0 0-0.1 0.1 0 0 0.1 0.2 0 0-0.1 0.1 0 0-0.3 0.3 0 0-0.3 0.2 0 0-0.3 0.1 0 0-0.2 0.3 0 0-0.1 0.3 0 0-0.2 0.2 0 0-0.1 0.4 0 0-0.3 0.2 0 0-0.2 0.8 0 0-0.1 0.5 0 0-0.3 0.1 0 0-0.4 0.2 0 0-0.5 0.1 0 0-0.4-0.1 0 0-0.3-0.2 0 0-0.3-0.3 0 0-0.2-0.1 0 0-0.1-0.2 0 0-0.3-0.1 0 0-0.1-0.2 0 0-0.3-0.1 0 0-0.2-0.2 0 0-0.3-0.1 0 0-0.3 0.1 0 0-0.3-0.1 0 0-0.1-0.1 0 0-0.3-0.2 0 0-0.2 0.2 0 0-0.1-0.3 0 0-0.2-0.5 0 0 0.2-0.4 0 0 0.1-0.2 0 0-0.1-0.6 0 0-0.2 0.2 0 0-0.5 0.1 0 0-0.2 0.2 0 0-0.1 0.1 0 0-0.2 0.3 0 0-0.1-0.1 0 0-0.3 0.1 0 0-0.3 0.2 0 0-0.3 0.1 0 0-0.2 0.2 0 0-0.3-0.2 0 0-0.2 0.2 0 0-0.3 0.1 0 0-0.6 0.2 0 0-0.2 0.1 0 0-0.1 0.2 0 0-0.9-0.2 0 0-0.3-0.1 0 0-0.3-0.2 0 0-0.1-0.1 0 0-0.2-0.2 0 0-0.3-0.1 0 0-0.1-0.2 0 0-0.3-0.1 0 0-0.3-0.2 0 0-0.2 0.2 0 0-0.1-0.2 0 0-0.5-0.1 0 0-0.1-0.2 0 0-0.4 0.2 0 0-0.3 0.3 0 0-0.3 0.4 0 0-0.2 0.3 0 0-0.6-0.1 0 0-0.4 0.1 0 0-1-0.1 0 0-0.3-0.2 0 0-0.3 0.2 0 0-0.2-0.2 0 0-1.3 0.2 0 0-0.2-0.2 0 0-0.1 0.2 0 0-0.1 0.1 0 0-0.3 0.2 0 0-0.2 0.1 0 0-0.1 0.2 0 0 0.1 0.1 0 0-0.1 0.4 0 0-0.2 0.2 0 0-0.1 0.1 0 0-0.5 0.2 0 0-0.1 0.6 0 0 0.1 0.3 0 0 0.2 0.1 0 0 0.1 0.3 0 0 0.3 0.2 0 0 0.3 0.3 0 0 0.2 0.1 0 0 0.1 0.3 0 0 0.3 0.3 0 0-0.1 0.4 0 0-0.2 0.6 0 0 0.2 0.3 0 0 0.2 0.2 0 0 0.2 0.1 0 0 0.1 0.3 0 0 0.2 0.1 0 0 0.1 0.3 0 0-0.1 0.6 0 0-0.2 0.5 0 0-0.1 0.3 0 0-0.2 0.1 0 0 0.2 0.7 0 0-0.3 0.2 0 0-0.1 1 0 0 0.1 0.8 0 0-0.1 0.6 0 0-0.2 0.2 0 0-0.1 0.2 0 0-0.3 0.1 0 0-0.8 0.3 0 0-0.1 0.2 0 0-0.2 0.7 0 0-0.1 0.6 0 0-0.2 0.2 0 0-0.1 0.4 0 0-0.2 0.1 0 0-0.1 0.2 0 0-0.2 0.1 0 0-0.8-0.1 0 0-0.2-0.2 0 0-0.3-0.3 0 0-0.4-0.1 0 0-0.3-0.1 0 0-0.5-0.2 0 0-0.4-0.1 0 0-0.3-0.2 0 0-0.7 0.2 0 0-0.3 1 0 0 0.1 0.1 0 0 0.2 0.3 0 0 0.1 0.3 0 0 0.2 0.2 0 0 0.1 0.1 0 0 0.2 0.2 0 0 0.1 0.1 0 0 0.5 0.3 0 0 0.1 0.9 0 0-0.1 0.1 0 0-0.2 0.3 0 0-0.1 0.2 0 0-0.2 0.1 0 0-0.3 0.2 0 0-0.3 0.1 0 0-0.1-0.1 0 0-0.3 0.1 0 0-0.2 0.2 0 0-0.1 0.1 0 0 0.1 0.8 0 0 0.5 0.1 0 0 0.1 0.1 0 0 0.2-0.1 0 0 0.3 0.3 0 0 0.1 0.3 0 0 0.2 0.3 0 0 0.1 0.3 0 0 0.2 1 0 0-0.3 0.3 0 0-0.3 0.3 0 0 0.1 0.1 0 0-0.1 0.2 0 0 0.3 0.1 0 0 0.1 0.2 0 0 0.2 0.1 0 0 0.1 0.2 0 0 0.1 0.3 0 0 0.3 0.3 0 0 0.2 0.1 0 0 0.1 0.6 0 0-0.3 0.2 0 0-0.1 0.1 0 0-0.2 0.3 0 0-0.1 0.4 0 0 0.1 0.5 0 0 0.2 0.1 0 0 0.1 0.5 0 0 0.2 0.1 0 0 0.1 0.2 0 0 0.2 0.1 0 0 0.1 0.3 0 0 0.2 0.3 0 0 0.1 0.3 0 0 0.2 0.6 0 0 0.1 0.3 0 0-0.1 0.3 0 0 0.1 0.3 0 0 0.2 0.3 0 0 0.1 0.1 0 0 0.2 0.1 0 0 0.4 0.2 0 0 0.4 0.1 0 0 0.2 0.2 0 0 0.1 0.1 0 0 0.2 0.5 0 0 0.1 0.6 0 0-0.1 0.1 0 0-0.5 0.2 0 0-0.1 0.1 0 0-0.2-0.1 0 0-0.1 0.3 0 0-0.1 0.5 0 0-0.2 0.3 0 0-0.1 0.2 0 0-0.2 0.7 0 0 0.3 0.2 0 0 0.6 0.1 0 0 0.1 0.2 0 0 0.2 0.1 0 0 0.1 0.3 0 0 0.2 0.4 0 0 0.1 0.6 0 0-0.1 0.5 0 0-0.2 0.1 0 0-0.1 0.3 0 0-0.2 0.3 0 0-0.1 0.2 0 0-0.2 0.3 0 0-0.1 0.1 0 0-0.3 0.1 0 0-0.1 0.2 0 0-0.2 0.1 0 0-0.3 0.2 0 0-0.6 0.1 0 0-1.4-0.1 0 0-0.2 0.1 0 0-0.1 0.2 0 0-0.2 0.1 0 0-0.1 0.6 0 0 0.1 0.2 0 0 0.3 0.1 0 0 0.5 0.2 0 0 0.1 0.1 0 0 0.1 0.9 0 0 0.2 0.1 0 0 0.1 0.2 0 0 0.5 0.1 0 0 0.1 0.2 0 0 0.2 0.1 0 0 0.1 0.9 0 0-0.1 0.3 0 0 0.1 0.3 0 0 0.2 0.1 0 0 0.1 0.2 0 0 0.2 0.1 0 0 0.1 0.2 0 0 0.9 0.1 0 0 0.3 0.2 0 0 0.1 0.3 0 0 0.2 0.3 0 0 0.1 0.1 0 0 0.2 0.3 0 0 0.3 0.3 0 0 0.1 0.3 0 0 0.3 0.4 0 0 0.2 0.6 0 0 0.1 0.6 0 0 0.2 0.2 0 0-0.2 0.4 0 0-0.1 0.3 0 0 0.1 0.1 0 0 0.2 0.3 0 0 0.1 0.5 0 0-0.1 0.7 0 0 0.1 0.8 0 0 0.2 0.1 0 0 0.1 0.2 0 0 0.4-0.2 0 0 0.2-0.1 0 0 0.1-0.2 0 0 0.3 0.2 0 0 0.2 0.1 0 0 0.1 0.2 0 0 0.3-0.2 0 0 0.8-0.1 0 0 0.1-0.2 0 0 0.3-0.3 0 0 0.1-0.4 0 0 0.2-0.2 0 0 1 0.2 0 0 0.3 0.1 0 0 0.3 0.2 0 0 0.2 0.1 0 0 0.3 0.2 0 0 0.1 0.1 0 0 0.1 0.2 0 0 0.2 0.1 0 0 0.7-0.1 0 0 0.3-0.5 0 0 0.2-0.7 0 0-0.2-0.3 0 0-0.1-0.2 0 0-0.2-0.3 0 0-0.3-0.3 0 0-0.1-0.2 0 0-0.2-0.2 0 0-0.1-0.1 0 0 0.1-0.2 0 0-0.1-0.1 0 0-0.2-0.2 0 0-0.2-0.1 0 0-0.2-0.2 0 0-0.1-0.1 0 0-0.3-0.2 0 0-0.2-0.1 0 0-0.1-0.2 0 0-0.3-0.3 0 0-0.2-0.5 0 0-0.1-0.5 0 0-0.2-0.6 0 0 0.2-0.1 0 0 0.1-0.3 0 0 0.2-0.2 0 0 0.1-0.3 0 0 0.3-0.3 0 0 0.2-0.2 0 0 0.3-0.3 0 0 0.1-0.2 0 0 0.3-0.3 0 0 0.3-0.1 0 0 0.1-0.2 0 0 0.2-0.1 0 0 0.3-0.2 0 0 0.4-0.3 0 0 0.3 0.2 0 0 0.3-0.2 0 0 0.7 0.2 0 0 0.3 0.1 0 0 0.2 0.2 0 0 0.1 0.1 0 0 0.2 0.3 0 0 0.1 0.2 0 0 0.2 0.6 0 0 0.1 0.1 0 0-0.1 0.1 0 0 0.1 0.3 0 0 0.3 0.2 0 0 0.5-0.7 0 0 0.1-0.2 0 0-0.1-0.1 0 0 0.1-0.6 0 0 0.2-0.2 0 0-0.2-0.1 0 0 0.2-0.5 0 0 0.1-0.3 0 0 0.2-0.1 0 0 0.1-0.2 0 0 0.1-0.1 0 0 0.2-0.3 0 0-0.2-1 0 0-0.1-0.9 0 0-0.1-0.6 0 0-0.2-0.1 0 0-0.1-0.2 0 0 0.1-0.1 0 0-0.1-0.2 0 0 0.1-0.4 0 0 0.2-0.5 0 0 0.1-0.4 0 0 0.1-0.2 0 0 0.2-0.3 0 0 0.1-0.2 0 0 0.3-0.2 0 0 0.3-0.1 0 0 0.2-0.2 0 0 0.3-0.1 0 0 0.1-0.2 0 0 0.2-0.1 0 0 0.1-0.3 0 0 0.2-0.2 0 0 0.4-0.1 0 0 0.3-0.2 0 0 0.3-0.1 0 0 0.6-0.2 0 0 0.4-0.1 0 0 0.3-0.2 0 0 0.5-0.3 0 0 0.3-0.1 0 0 0.2-0.3 0 0 0.2-0.6 0 0 0.1-0.3 0 0 0.6-0.1 0 0 0.2-0.2 0 0 0.3-0.3 0 0 0.1-0.1 0 0 0.2-0.3 0 0 0.3-0.2 0 0 0.3-0.2 0 0 0.5-0.2 0 0 0.3-0.1 0 0 0.2-0.2 0 0 0.3-0.1 0 0 0.4-0.3 0 0 0.2-0.2 0 0 0.4 0.3 0 0 0.2 0.2 0 0 0.1 0.4 0 0 0.2 0.2 0 0 0.1 0.1 0 0 0.1 0.1 0 0 0.2 0.6 0 0-0.2 0.2 0 0-0.2 0.1 0 0-0.3 0.2 0 0-0.2 0.1 0 0-0.4 0.2 0 0-0.5 0.1 0 0-0.1 0.2 0 0-0.2 0.1 0 0-0.1 0.2 0 0-0.2 0.4 0 0-0.3 0.1 0 0-0.1 0.2 0 0 0.3 0.3 0 0-0.5 0.1 0 0-0.1 1.8 0 0 0.1 0.3 0 0-0.1 0.9 0 0-0.1 0.3 0 0-0.2 0.1 0 0-0.3 0.3 0 0-0.3-0.1 0 0-0.6 0.1 0 0-0.1 0.6 0 0 0.1 0.4 0 0 0.3 0.2 0 0 0.2 0.1 0 0 0.1 0.2 0 0 0.2 0.1 0 0 0.3 0.2 0 0 0.3-0.2 0 0 0.2-0.3 0 0 0.5 0.2 0 0 0.3 0.1 0 0 0.1 0.2 0 0 0.3 0.3 0 0 0.2 0.1 0 0 0.1 0.3 0 0 0.3 0.3 0 0 0.3 0.3 0 0 0.3 0.2 0 0 0.3 0.3 0 0-0.1 0.2 0 0-0.2 0.2 0 0 0.2 0.1 0 0 0.1 0.2 0 0 0.6 0.1 0 0 0.3 0.2 0 0 0.1 0.3 0 0 0.2 0.9 0 0-0.2 0.4 0 0-0.1 0.1 0 0-0.2 0.2 0 0-0.1 0.1 0 0-0.3 0.2 0 0-0.6 0.4 0 0 0.2 0.3 0 0 0.4 0.8 0 0 0.1 0.8 0 0-0.1 0.6 0 0 0.1 0.3 0 0 0.3 0.2 0 0 0.3-0.2 0 0 0.3-0.1 0 0 0.3-0.2 0 0 0.5-0.1 0 0 0.3-0.2 0 0 0.1-0.1 0 0 0.3-0.2 0 0 0.1-0.1 0 0 0.3-0.2 0 0 0.2-0.1 0 0 0.3-0.1 0 0 0.1-0.3 0 0 0.3 0.4 0 0 0.2 0.6 0 0 0.1 0.4 0 0 0.2 0.3 0 0 0.3 0.5 0 0-0.6 0.1 0 0-0.2-0.1 0 0-0.4 0.1 0 0-0.3 0.3 0 0-0.2 0.6 0 0 0.2 0.1 0 0 0.1 0.2 0 0 0.3 0.1 0 0 0.3 0.2 0 0 0.5 0.3 0 0 0.1-0.2 0 0 0.2-0.1 0 0 0.4 0.3 0 0-0.1 0.6 0 0 0.1 0.3 0 0 0.1 0.1 0 0 0.2 0.2 0 0 0.6 0.1 0 0 0.1-0.1 0 0 0.3-0.2 0 0 0.9 0.2 0 0 0.2 0.1 0 0 0.4 0.2 0 0 0.3-0.3 0 0 0.3-0.3 0 0 0.1-0.2 0 0 0.3-0.3 0 0 0.3-0.3 0 0 0.5-0.1 0 0 0.1-0.3 0 0 0.2-0.3 0 0 0.1-0.2 0 0 0.2-0.3 0 0 0.1-0.4 0 0 0.1-0.4 0 0 0.3-0.2 0 0 0.8-0.1 0 0 0.3-0.2 0 0 0.3-0.3 0 0 0.1-0.1 0 0 0.3-0.5 0 0 0.3-0.1 0 0 0.3-0.2 0 0 0.1-0.4 0 0 0.2-0.1 0 0 0.1-0.2 0 0 0.2-0.1 0 0 0.1-0.3 0 0 0.2-0.6 0 0-0.2-0.2 0 0-0.1-0.1 0 0-0.2-0.3 0 0-0.5-0.2 0 0-0.3-0.4 0 0 0.1-0.3 0 0 0.2-0.3 0 0-0.2-0.3 0 0-0.1-0.1 0 0-0.2-0.3 0 0-0.1-0.2 0 0-0.2-0.3 0 0 0.3-0.1 0 0 0.2-0.4 0 0-0.2-0.2 0 0-0.1-0.3 0 0 0.1-0.6 0 0 0.3-0.7 0 0 0.2-0.2 0 0 0.4-0.1 0 0 0.1-0.3 0 0 0.3-0.2 0 0 0.5-0.1 0 0 0.6-0.1 0 0 0.1-0.2 0 0 0.3-0.1 0 0 0.2-0.3 0 0 0.1-0.3 0 0 0.1-0.2 0 0 0.2-0.3 0 0 0.1-0.1 0 0 0.3-0.3 0 0 0.3-0.2 0 0 0.5-0.5 0 0 0.3-0.3 0 0 0.3-0.2 0 0 0.4-0.1 0 0 0.3-0.3 0 0 0.1-0.3 0 0 0.2-0.3 0 0 0.1-0.2 0 0 0.2-0.3 0 0 0.1-0.3 0 0 0.2-0.1 0 0 0.1-0.4 0 0-0.1-0.2 0 0-0.3-0.7 0 0 0.1-0.2 0 0 0.3-0.1 0 0 0.6-0.2 0 0 0.6-0.3 0 0 0.6-0.1 0 0 0.9 0.1 0 0 0.9-0.1 0 0 0.3-0.2 0 0 0.3-0.1 0 0 1.1 0.1 0 0 0.2 0.2 0 0 0.1 0.1 0 0 0.2 0.3 0 0 0.1 0.3 0 0 0.5 0.2 0 0 0.1 0.3 0 0 0.3 0.1 0 0 0.2 0.2 0 0 0.1 0.1 0 0 0.1 0.2 0 0 0.2 0.1 0 0 0.1 0.1 0 0 0.3 0.2 0 0 0.5 0.1 0 0 0.6 0.2 0 0 0.1 0.1 0 0 0.2 0.2 0 0 0.1 0.1 0 0 0.3 0.2 0 0 0.3-0.2 0 0 0.3 0.2 0 0 0.3-0.2 0 0 0.6-0.1 0 0 0.9 0.1 0 0 0.3 0.2-0.1 0 0.6 0.1 0 0 0.2-0.1 0 0 0.3-0.2 0 0 0.7-0.1 0 0 0.2-0.2 0 0 0.4-0.1 0 0 0.3-0.3 0 0 0.3-0.2 0 0 0.1-0.1 0 0 0.3-0.3 0 0 0.6-0.1 0 0 0.5-0.2 0 0 0.4 0.9 0 0 0.5 0.1 0 0 0.2-0.1 0 0 0.2 0.1 0 0 0.6-0.1 0 0 0.1-1.2 0 0 0.2-0.1 0 0-0.2-0.5 0 0 0.3-0.1 0 0 0.6-0.2 0 0 1-0.3 0 0 0.2-0.3 0 0 0.1-0.2 0 0 0.3-0.2 0 0 0.5-0.1 0 0 0.3 0.1 0 0 0.1 0.2 0 0 0.5 0.2 0 0 0.1 0.2 0 0 0.3 0.3 0 0 0.1 0.3 0 0 0.3 0.1 0 0 0.3 0.2 0 0 0.3 0.1 0 0 0.2 0.2 0 0 0.1 0.1 0 0 0.3 0.2 0 0 1-0.2 0 0 0.6-0.3 0 0 0.2-0.3 0 0 0.1-0.6 0 0 0.2-0.4 0 0 0.1-0.3 0 0 0.3-0.1 0 0 0.5-0.2 0 0 0.1-0.4 0 0-0.1-0.3 0 0-0.2-0.3 0 0-0.1-0.2 0 0-0.2-0.3 0 0-0.1-0.1 0 0-0.2-0.2 0 0 0.2-0.1 0 0-0.2-0.1 0 0-0.3 0.1 0 0-0.1-0.1 0 0-0.2 0.1 0 0-0.6-0.1 0 0-0.1 0.1 0 0-0.7-0.1 0 0-0.2-0.2 0 0-0.1-0.9 0 0-0.2-0.3 0 0-0.1-0.4 0 0 0.1-1 0 0 0.2-0.3 0 0 0.1-0.2 0 0 0.8-0.4 0 0-0.2-0.3 0 0 0.3-0.2 0 0 0.1-0.1 0 0 0.2-0.2 0 0 0.1-0.4 0 0 0.3-0.2 0 0 0.3 0.2 0 0 0.3-0.3 0 0 0.2-0.1 0 0 0.1-0.6 0 0 0.2-0.2 0 0 0.1-0.1 0 0 0.2-0.2 0 0 0.1-0.1 0 0 0.2-0.2 0 0 0.1-0.1 0 0 0.3-0.2 0 0 0.1-0.1 0 0 0.3-0.3 0 0 0.2-0.3 0 0 0.3-0.1 0 0 0.4-0.2 0 0-0.1-0.1 0 0 0.3-0.2 0 0 0.1-0.7 0 0-0.1-0.3 0 0 0.1-0.2 0 0 0.2-0.4 0 0 0.4-0.2 0 0 0.4 0.2 0 0 0.3 0.1 0 0 0.2 0.3 0 0 0.1 0.2 0 0 0.2 0.1 0 0 0.4 0.2 0 0 0.6 0.1 0 0 0.6 0.3 0 0 0.2 0.2 0 0 0.1 0.1 0 0 0.1 0.2 0 0 0.3 0.1 0 0 0.2 0.2 0 0 0.1 0.1 0 0 0.5 0.1 0 0 0.3 0.2 0 0 0.1 0.1 0 0 0.3 0.2 0 0 0.3 0.3 0 0 1-0.2 0 0 0.6-0.1 0 0 0.5-0.2 0 0 0.3 0.2 0 0 0.1-0.2 0 0 0.9-0.1 0 0 0.1-0.2 0 0 0.3-0.2 0 0 0.3-0.2 0 0 0.2-0.3 0 0 0.3-0.3 0 0 0.3-0.1 0 0 0.3-0.3 0 0 0.1-0.2 0 0 0.2-0.1 0 0-0.2-0.6 0 0-0.1-0.2 0 0-0.2-0.1 0 0-0.1-0.2 0 0-1.2-0.1 0 0-0.6 0.1 0 0-0.7-0.1 0 0-0.2-0.1 0 0-0.1-0.2 0 0-0.2-0.1 0 0-0.3 0.1 0 0-0.1 0.2 0 0-2.2-0.2 0 0-0.5-0.1 0 0-0.3-0.2 0 0-0.1-1.2 0 0-0.2-0.1 0 0-0.1-0.5 0 0 0.1-0.2 0 0 0.2-1.1 0 0 0.1-0.3 0 0 0.2-0.4 0 0 0.1-0.6 0 0 0.2-0.3 0 0 0.1-0.3 0 0 0.2-0.1 0 0 0.1-0.3 0 0 0.2-0.2 0 0-0.2-0.1 0 0 0.2-0.5 0 0 0.4-0.1 0 0 1.2-0.2 0 0 0.1-0.3 0 0 0.2-0.1 0 0 0.1-0.2 0 0 0.2-0.1 0 0 0.1-0.4 0 0-0.1-0.2 0 0-0.5 0.3 0 0-0.7 0.3 0 0-0.3-0.3 0 0-0.1-0.6 0 0-0.2-0.1 0 0-0.1-0.2 0 0-0.8-0.1 0 0-0.3-0.3 0 0-0.1-0.3 0 0-0.5-0.2 0 0-0.3 0.3 0 0-0.4 0.2 0 0-0.3 0.1 0 0-0.1-0.1 0 0-1.2-0.2 0 0-0.2-0.1 0 0-0.3-0.3 0 0-0.1-0.2 0 0-0.3-0.2 0 0-0.1-0.2 0 0-0.2-0.1 0 0-0.1-0.2 0 0-0.2-0.1 0 0-0.1-0.2 0 0-0.2-0.1 0 0-0.1-0.2 0 0-0.2-0.3 0 0-0.1-0.4 0 0-0.2-0.2 0 0-0.1 0.5 0 0-0.3-0.2 0 0-0.2-0.8 0 0 0.2-0.2 0 0 0.4-0.1 0 0 0.2-0.2 0 0 0.1-0.3 0 0 0.2-0.1 0 0 0.3-0.2 0 0 0.1-0.1 0 0 0.2-0.3 0 0 0.1-0.3 0 0 0.2-0.6 0 0-0.5-0.2 0 0-0.4-0.8 0 0 0.3-0.2 0 0 0.1-0.1 0 0 0.2-0.2 0 0-0.2-0.3 0 0-0.3-0.1 0 0-0.1-0.6 0 0-0.2-0.2 0 0-0.3 0.3 0 0-0.1-0.1 0 0-0.2-0.2 0 0-0.1-0.4 0 0-0.2-0.1 0 0-0.1-0.2 0 0-0.2-0.1 0 0-0.1-0.2 0 0-0.1-0.1 0 0 0.1-0.2 0 0-0.1-0.1 0 0-0.2-0.2 0 0-0.1-0.1 0 0-0.6-0.2 0 0-0.2-0.1 0 0-0.1-0.2 0 0-0.3-0.1 0 0-0.2-0.2 0 0-0.3-0.1 0 0-0.3-0.2 0 0-0.3-0.1 0 0-0.1-0.3 0 0-0.1-0.1 0 0-0.2-0.2 0 0-0.1 0.2 0 0-0.3-0.2 0 0-0.2-0.3 0 0-0.1-0.1 0 0-0.5-0.3 0 0-0.1-0.2 0 0-0.2-0.3 0 0-0.1-0.3 0 0-0.2-0.3 0 0-0.1-0.8 0 0 0.1-0.3 0 0 0.3-0.8 0 0-0.1-0.3 0 0 0.1-0.3 0 0 0.2-0.2 0 0 0.1-0.3 0 0 0.2-0.2 0 0 0.1-0.3 0 0 0.2-0.3 0 0 0.1-0.1 0 0-0.1-0.5 0 0 0.3 0.2 0 0 0.7-0.2 0 0 0.4 0.2 0 0 0.5-0.2 0 0 0.3-0.1 0 0 0.1-0.2 0 0 0.3-0.3 0 0 0.2-0.3 0 0 0.1-0.2 0 0 0.2-0.2 0 0-0.2-1.2 0 0-0.1-0.3 0 0-0.2-0.3 0 0-0.1 0.5 0 0-0.8-0.2 0 0-0.1-0.1 0 0-0.2-0.2 0 0-0.3-0.1 0 0-0.1-0.2 0 0-0.4-0.1 0z m48.3 20.7l0 0.2 0.4 0 0 0.4 0.2 0 0 0.2 0.4 0 0 0.1 0.2 0 0 0.1 0.1 0 0 0.2 0.3 0 0 0.1-0.2 0 0 0.2 0.2 0 0 0.1 0.1 0 0 0.5-0.1 0 0 0.1-0.3 0 0 0.2 0.1 0 0 0.1 0.2 0 0 0.3-0.2 0 0 0.2-0.1 0 0 0.1-0.1 0 0 0.2-0.2 0 0 0.1-0.1 0 0 0.2-0.2 0 0 0.1-0.1 0 0 0.1-0.5 0 0-0.1 0.2 0 0-0.1-0.6 0 0-0.2-0.3 0 0-0.1-0.3 0 0-0.6-0.2 0 0 0.1-0.1 0 0 0.5 0.1 0 0 0.1 0.2 0 0 0.2-0.3 0 0-0.2-0.6 0 0-0.6-0.3 0 0-0.1-0.1 0 0-0.2-0.3 0 0-0.1-0.3 0 0-0.2-0.3 0 0-0.1-0.2 0 0-0.6 0.2 0 0-0.2 0.1 0 0-0.1 0.2 0 0-0.2 0.1 0 0-0.1 0.2 0 0-0.1 0.3 0 0-0.2 0.1 0 0-0.1 0.2 0 0-0.2 0.3 0 0-0.1 1.3 0 0-0.2 0.3 0z m-78.3 70.7l0 0.1 0.4 0 0 0.2 0.2 0 0 0.1 0.1 0 0 0.6-0.1 0 0 0.3-0.3 0 0 0.2-0.3 0 0 0.1-0.3 0 0 0.2-0.2 0 0 0.1-0.4 0 0-0.1-0.2 0 0-0.2-0.1 0 0-1.3 0.1 0 0-0.2 0.3 0 0-0.1 0.8 0z m5.3 20.7l0 0.2 0.1 0 0 0.9 0.2 0 0 0.1 0.1 0 0 0.3 0.2 0 0 0.2-0.2 0 0 0.1-0.1 0 0 0.2-0.2 0 0 0.1-0.1 0 0 0.4-0.2 0 0 0.2-0.6 0 0 0.1-0.1 0 0 0.2-0.5 0 0-0.3-0.1 0 0-0.3-0.1 0 0-0.1-0.2 0 0-0.2-0.1 0 0-0.1-0.2 0 0-0.5 0.2 0 0-0.6 0.3 0 0-0.1 0.3 0 0-0.2 0.2 0 0-0.1 0.2 0 0-0.3 0.1 0 0-0.2 0.8 0z" id="STP" name="Príncipe">
  </path>
  <path d="M387.4 783.2l-1-0.6-1.2-0.5-0.8-0.6-1.2-0.8-0.9 0-1 0-1 0.4-1.4 0.2-1.4 0.4-1.8-0.1-1.1 0.1-1.3-0.5-0.8-0.8-0.7-0.8-0.9-0.7-0.9-0.1-1.3-0.3-1.4-0.3-1.1 0.1-1.5 0.4-0.9 0.1 0.3-0.3 0.5-0.8 0.3-1 0.5-0.7 0.3-0.9 0.1-0.6 0.1-0.8 0.3-0.7 0.4-0.8 0.3-0.8 0.3-0.8 0.1-0.9 0-1.1-0.3-0.7-0.7-1-0.6-0.6-0.4-0.6-0.6-0.6-0.2-0.9 0.1-1 0.5-0.3 0.8-0.5 0.7-0.8 0.5-1.1 0.3-1 0.2-1.1 0.1-0.9 0-1.5-0.1-1.3-0.2-1.1-0.3-1-0.6-0.6-0.6-0.5-0.5-0.5-0.6-0.5-0.5-0.8-0.1-0.7-0.1-0.7-0.6-0.5-0.6-0.7-0.3-0.9 0-1.3 0.5-0.7-0.1-0.7 1.3 0 0 0.1 0.4 0 0 0.2 0.5 0 0 0.3 0.1 0 0 0.1 0.3 0 0 0.2 0.5 0 0-0.2 0.9 0 0-0.1 0.2 0 0-0.2 1.7 0 0 0.2 0.1 0 0 0.6 0.2 0 0 0.3 0.1 0 0 0.1 0.4 0 0 0.2 0.3 0 0-0.2 0.9 0 0-0.1 0.9 0 0-0.2 0.2 0 0-0.1 0.1 0 0 0.1 0.2 0 0 0.8 0.1 0 0 0.1 0.1 0 0 0.6-0.1 0 0 0.1-0.1 0 0 0.3 0.1 0 0 0.2 0.3 0 0 0.1 0.1 0 0 0.3 0.2 0 0 0.2 0.3 0 0 0.3 0.1 0 0 0.6-0.1 0 0 0.1-0.6 0 0-0.1-1.3 0 0 0.1-0.2 0 0 0.1-0.1 0 0 0.2-0.2 0 0 0.7-0.1 0 0 0.2-0.3 0 0 0.1-0.3 0 0 0.2-0.3 0 0 0.1-0.2 0 0 0.2-1 0 0 0.1-0.1 0 0 0.9-0.2 0 0 0.9-0.1 0 0 0.9 0.1 0 0 0.5 0.2 0 0 0.6 0.1 0 0 0.6 0.2 0 0 0.5 0.1 0 0 0.1 0.2 0 0 0.2 0.3 0 0 0.3 0.1 0 0 0.1 0.1 0 0 0.2 0.3 0 0 0.1 0.3 0 0 0.1 0.5 0 0 0.2 0.1 0 0 0.1 0.5 0 0-0.1 0.1 0 0 0.1 0.3 0 0-0.1 0.2 0 0-0.2 0.1 0 0-0.1 0.2 0 0-0.1 0.4 0 0-0.2 0.1 0 0-0.6 0.6 0 0 0.2 0.6 0 0 0.1 0.5 0 0 0.2 0.3 0 0 0.1 0.1 0 0 0.2 0.1 0 0 0.2 0.2 0 0 0.2 0.1 0 0 0.3 0.2 0 0 0.1 0.1 0 0 0.2 0.2 0 0 0.4-0.2 0 0 0.8-0.1 0 0 0.3-0.2 0 0 0.1-0.3 0 0 0.1-0.2 0 0 0.2-0.2 0 0 0.1-0.1 0 0 0.2-0.2 0 0 0.3-0.1 0 0 0.1-0.2 0 0 0.5-0.1 0 0 0.3-0.2 0 0 0.1-0.1 0 0 0.2-0.2 0 0 0.4-0.1 0 0 0.9 0.1 0 0 0.9 0.2 0 0 0.3 0.1 0 0 0.6 0.2 0 0 0.2 0.3 0 0 0.2 0.1 0 0 0.3 0.2 0 0 0.1 0.1 0 0 0.2 0.2 0 0 0.3 0.1 0 0 0.3 0.1 0 0 0.3 0.2 0 0 0.1 0.3 0 0 0.2 0.3 0 0 0.1 0.1 0 0 0.2 0.5 0 0 0.1 0.4 0 0 0.1 0.9 0 0 0.2 0.9 0 0 0.1 0.9 0 0-0.1 0.3 0 0-0.2 0.1 0 0-0.2 0.2 0 0-0.6 0.1 0 0-0.9 0.1 0 0-0.2 0.2 0 0-0.3 0.1 0 0-0.5 0.2 0 0-0.5 0.1 0 0-0.9 0.2 0 0-0.4 0.4 0 0 0.1 0.2 0 0 0.6 0.1 0 0 0.2 0.2 0 0 0.1 0.1 0 0 0.2 0.5 0 0 0.1 0.2 0 0 0.3 0.2 0 0 0.3 0.1 0 0 0.6 0.2 0 0 0.6 0.1 0 0 0.6 0.2 0 0 0.3-0.2 0 0 0.4 0.2 0 0 0.1-0.2 0 0 0.5 0.2 0 0 0.3-0.2 0 0 0.1 0.2 0 0 0.2-0.3 0 0 0.4-0.2 0 0 0.2-0.1 0 0 0.4-0.2 0 0 0.2-0.1 0 0 1.1 0.1 0 0 0.2 0.2 0 0 0.1 0.1 0 0 0.2 0.5 0 0 0.1 0.6 0 0 1.3-0.2 0 0 0.5-0.1 0 0 0.6 0.1 0 0 0.6 0.2 0 0 0.1-0.2 0 0 0.6-0.1 0 0 0.1-0.2 0 0 0.3 0.2 0 0 0.2-0.2 0 0 0.3-0.1 0 0 0.4-0.2 0 0 0.5-0.1 0 0 1 0.1 0 0 0.3 0.2 0 0 1 0.1 0 0 0.2 0.3 0 0 0.3 0.2 0 0 0.1 0.1 0 0 0.2 0.2 0 0 0.1 0.1 0 0 0.2 0.2 0 0 0.1 0.1 0 0 0.1 0.4 0 0 0.2 0.3 0 0-0.2 0.2 0 0-0.2 0.1 0 0 0.1 0.2 0 0 0.1 0.3 0 0 0.6 0.1 0 0 0.2 0.2 0 0 0.1 0.1 0 0 0.2 0.2 0 0 0.1 0.4 0 0 0.6 0.3 0 0 0.7 0.2 0 0 0.5-0.2 0 0 0.1-0.1 0 0 0.2-0.2 0 0 0.1z" id="ST01" name="Água Grande">
  </path>
  <path d="M347.5 863.4l-1 0-1.1-0.6-1.2-0.7-1.1-1.1-0.1-2-1.2-1.3-0.3-2.2-0.9-1.7-1-1.1-0.8-0.5-0.9-0.1-0.7-0.6-0.3-0.5-1.2-0.2-1.2-0.9-0.6-1.3-1.7 0.2-1-0.7-1-1.1-4.1-0.2-0.9-0.3-0.7-0.6-0.4-0.9 0.2-1.3-0.2-0.7-0.7-0.7-0.5-1-0.3-1.4 0-0.8-0.5-1.8-0.3-2.2 0-2.3-0.2-2.3 0.1-2.9 0.1-2.4 0.1-1.9 0.3-1.4 0.2-1.7 0.6-1.2 0.1-0.3 0.8 0.5 0.7 0.3 1-0.7 0.9-0.1 1.1 0 0.6 0.1 0.5 0.2 1-0.3 0.5-0.4 0.7-0.8 0.5-0.7 0.6-0.5 0.4-0.5 0.7-0.1 0.7 0.1 0.7 0.6 0.4 0.7 0.4 0.7 0.6 0.5 0.5 0.2 0.8 0.1 1.2 0 1.4-0.1 1.2 0.1 0.9 0.5 0.3 0.7 0.9 0.2 0.6-0.2 0.7-0.3 1.2 0 0.4 0.3 0.8 0.1 0.9-0.2 0.3-0.4 0.1-0.7-0.4-0.7-0.3-1-0.5-0.5-0.6-0.9-0.6-0.8-0.3-0.7-0.3-1.1-0.2-1.1-0.3-1.7 0-1.4 0.1-1.5 0.5-1.3 0.4-1 0.9-1.1 1-0.7 1-0.7 1-0.9 0.9-0.3 1.5-0.6 1.2-0.4 1 0 1.4-0.1 1.2 0.3 1.2 0.3 1 0.3 1 0.5 1 0.1 0.9 0 0.8-0.2 0.8-0.6 0.8-0.7 0.9-0.9 0.8-1 1.2-0.8 1.5-1.1 0.9-0.2 1.3-0.5 1.2-0.6 1.4-0.6 1.7 0 1.2-0.2 1.5 0.2 1.3-0.2 1.3-0.5 1.2 0 1.4-0.7 0.9-1 1.2-1.2 1.4-0.3 1.4-0.3 1.3 0 1.2-0.2 0.8-0.1 0.6 0 0 0.1 2.4 0 0 0.3 0.1 0 0 0.3 0.2 0 0 0.6 0.1 0 0 0.6-0.1 0 0 0.1-0.2 0 0-0.1-0.4 0 0 0.1-0.2 0 0 0.5-0.1 0 0 0.1-0.2 0 0 0.7 0.2 0 0 0.9-0.4 0 0 0.2-0.2 0 0 0.1-0.1 0 0 0.3-0.2 0 0 0.2-0.1 0 0 0.4-0.2 0 0 0.3-0.3 0 0-0.2-0.3 0 0-0.1-0.3 0 0-0.1-0.4 0 0-0.2-0.9 0 0-0.1-0.1 0 0-0.2-0.6 0 0-0.1-0.9 0 0 0.3-0.2 0 0 0.8-0.1 0 0 0.2 0.1 0 0 0.3 0.2 0 0 1-0.2 0 0 0.5-0.1 0 0 0.1-0.4 0 0 0.2-0.3 0 0 0.1-0.2 0 0 0.3-0.1 0 0 0.3-0.3 0 0 0.1-0.2 0 0 0.2-0.1 0 0 0.1-0.2 0 0 0.3-0.3 0 0 0.5-0.1 0 0 0.4-0.2 0 0 0.9-0.1 0 0 0.1 0.1 0 0 0.2 0.2 0 0 0.3 0.1 0 0 0.3 0.2 0 0 0.1 0.1 0 0 0.2 0.2 0 0 0.8 0.1 0 0 0.2 0.6 0 0 0.1 0.2 0 0 0.2 0.1 0 0 0.1 0.2 0 0 0.2 0.1 0 0 0.1 0.1 0 0 1.1-0.1 0 0 0.3-0.1 0 0 0.4-0.2 0 0 0.1-0.3 0 0-0.1-0.3 0 0 0.1-0.1 0 0-0.1-0.3 0 0 0.3-0.2 0 0 0.7 0.2 0 0 0.3 0.1 0 0 0.2 0.2 0 0 0.9-0.2 0 0 0.1-0.1 0 0 0.3-0.2 0 0 0.3-0.3 0 0 0.1-0.1 0 0 0.2-0.2 0 0 0.1-0.1 0 0 0.2-0.6 0 0-0.2-0.6 0 0 0.2-0.1 0 0 0.9 0.1 0 0 0.3 0.3 0 0 0.1 0.2 0 0 0.1 0.2 0 0 0.2 0.3 0 0 0.7-0.1 0 0 0.6-0.2 0 0 0.2-0.1 0 0 0.6-0.1 0 0 0.3 0.1 0 0 0.2 0.1 0 0 0.2 0.3 0 0 0.3-0.1 0 0 0.1-0.2 0 0 0.2-0.1 0 0 0.7 0.1 0 0 0.8 0.2 0 0 0.4 0.1 0 0 0.3 0.2 0 0 0.1 0.1 0 0 0.2 1.4 0 0 0.1 0.1 0 0 0.2 0.2 0 0 1.2 0.1 0 0 0.7-0.1 0 0 0.1-0.2 0 0 0.2-0.3 0 0 0.1-0.1 0 0 0.2-0.2 0 0 0.1-0.3 0 0 0.3-0.3 0 0 0.2-0.1 0 0 0.1-0.8 0 0 0.2-0.1 0 0 0.1-0.1 0 0 0.2-0.2 0 0 0.3-0.1 0 0 0.1 0.1 0 0 0.9 0.3 0 0 0.1 0.1 0 0 0.3 0.2 0 0 0.2-0.2 0 0 0.1 0.2 0 0 0.6 0.1 0 0 0.2 0.2 0 0 0.8-0.3 0 0-0.1-0.7 0 0-0.2-0.2 0 0-0.1-0.1 0 0-0.2-0.2 0 0-0.2-0.3 0 0 0.1-0.1 0 0 0.4-0.2 0 0 0.2-0.6 0 0-0.2-0.5 0 0 0.2-0.5 0 0 0.1-0.1 0 0 0.2-0.3 0 0 0.3-0.2 0 0 0.1-0.3 0 0 0.3-0.3 0 0 0.2-0.1 0 0 0.1-0.2 0 0 0.2-0.1 0 0 0.3-0.2 0 0 0.2-0.1 0 0 0.3-0.1 0 0 0.3-0.2 0 0 0.3-0.1 0 0 0.5-0.2 0 0 0.7-0.1 0 0 0.7-0.2 0 0 0.5-0.1 0 0 0.3-0.2 0 0 0.1-0.7 0 0 0.2-0.2 0 0 0.1-0.3 0 0 0.2-0.1 0 0 0.4-0.3 0 0 0.2-0.3 0 0 0.1-0.3 0 0 0.2-0.1 0 0 0.4-0.2 0 0 0.3-0.1 0 0 0.1-0.5 0 0-0.1-0.6 0 0 0.1-0.1 0 0 0.6 0.1 0 0 0.2 0.3 0 0-0.2 0.2 0 0-0.1 0.9 0 0 0.1 0.3 0 0 0.3-0.2 0 0 0.3-0.1 0 0 0.6-0.2 0 0 0.1-1 0 0 0.2-0.2 0 0-0.4-0.1 0 0-0.2-0.6 0 0 0.2-0.6 0 0 0.1-0.1 0 0 2.4-0.2 0 0 0.4-0.1 0 0 0.3-0.2 0 0 0.6-0.1 0 0 0.6-0.2 0 0 0.3-0.1 0 0 0.1-1 0 0-0.1-0.3 0 0-0.3-0.8 0 0 0.1-0.1 0 0 0.2-0.3 0 0 0.1-0.3 0 0 0.2-0.3 0 0 0.1-0.4 0 0 0.2-0.3 0 0 0.1-0.2 0 0 0.4-0.1 0 0 0.2-0.2 0 0 0.3-0.1 0 0 0.1-0.3 0 0 0.2-1.8 0 0-0.3-0.3 0 0-0.2-0.9 0 0 0.2-0.4 0 0 0.4-0.2 0 0 1.4-0.1 0 0 0.1-0.1 0 0 0.1-0.6 0 0 0.2-0.5 0 0 0.1-0.3 0 0 0.2-0.1 0 0 0.1-0.2 0 0 0.3-0.1 0 0 0.2-0.2 0 0 0.4 0.2 0 0 0.2 0.3 0 0 0.3 0.1 0 0 1-0.1 0 0 0.6-0.2 0 0 0.1-0.6 0 0 0.2-0.5 0 0 0.1-0.2 0 0 0.5-0.1 0 0 0.4-0.2 0 0 0.1 0.2 0 0 0.2 0.1 0 0 0.4-0.1 0 0 0.2-0.2 0 0 0.6 0.2 0 0 0.1-0.2 0 0 0.3-0.1 0 0 0.5-0.6 0 0-0.2-0.9 0 0 0.2-0.3 0 0 0.4-0.1 0 0 0.1-0.5 0 0 0.2-0.1 0 0 0.9 0.1 0 0 0.1-0.1 0 0 0.3-0.2 0 0 0.2-0.4 0 0 0.1-0.2 0 0 0.2-0.1 0 0 0.1-0.3 0 0-0.1-0.3 0 0-0.3-1 0 0 0.1-0.2 0 0 0.2-0.3 0 0 0.1-0.3 0 0 0.2-0.1 0 0 0.1-0.2 0 0 0.3-0.1 0 0 0.1-0.2 0 0 0.5-0.1 0 0 0.4 0.1 0 0 0.2 0.6 0 0 0.1 0.5 0 0 0.3 0.1 0 0 0.2 0.3 0 0 0.3 0.3 0 0 0.1 0.2 0 0 0.4 0.2 0 0 0.5 0.2 0 0 0.6-0.2 0 0 0.3-0.2 0 0 0.1-0.3 0 0 0.2-0.3 0 0 0.1-0.2 0 0-0.1-0.1 0 0 0.1-0.2 0 0 0.2-0.6 0 0 0.1-0.3 0 0 0.2-1 0 0-0.2-0.6 0 0 0.2-0.1 0 0-0.2-0.2 0 0-0.1-0.3 0 0-0.2-0.1 0 0-0.3-0.3 0 0-0.1-0.7 0 0 0.1-0.3 0 0 0.2-0.2 0 0 0.3-0.1 0 0 0.1-0.2 0 0 0.2 0.2 0 0 0.1 0.1 0 0 0.1 0.2 0 0 0.6 0.3 0 0 0.3 0.1 0 0 0.2 0.3 0 0 0.3 0.3 0 0 0.3 0.1 0 0 0.1-0.1 0 0 0.3 0.1 0 0 0.4 0.2 0 0 0.6-0.2 0 0 0.5-0.1 0 0 0.6 0.1 0 0 0.4 0.2 0 0 0.2 0.1 0 0 0.2-0.1 0 0 0.3 0.1 0 0 0.2 0.2 0 0 0.1 0.1 0 0 0.2-0.1 0 0 0.1-0.9 0 0-0.4-0.3 0 0-0.2-0.1 0 0-0.1-0.2 0 0-0.2-0.1 0 0-0.1-0.2 0 0-0.1-0.1 0 0-0.2-0.2 0 0-0.1-0.1 0 0-0.2-0.2 0 0-0.1-0.6 0 0-0.2-0.8 0 0-0.1-0.3 0 0 0.1-0.6 0 0 0.3-0.2 0 0 0.5-0.1 0 0 0.5-0.2 0z m45.7-44.8l0 0.1 0.2 0 0 0.3 0.2 0 0 0.1 0.6 0 0 0.5 0.1 0 0 0.4-0.1 0 0 0.2-0.2 0 0 0.1-0.4 0 0-0.1-0.7 0 0-0.2-0.5 0 0-0.1-0.1 0 0-0.5 0.1 0 0-0.7 0.2 0 0-0.1 0.6 0z" id="ST02" name="Cantagalo">
  </path>
  <path d="M323.1 818.7l-0.1 0.3-0.6 1.2-0.2 1.7-0.3 1.4-0.1 1.9-0.1 2.4-0.1 2.9 0.2 2.3 0 2.3 0.3 2.2 0.5 1.8 0 0.8 0.3 1.4 0.5 1 0.7 0.7 0.2 0.7-0.2 1.3 0.4 0.9 0.7 0.6 0.9 0.3 4.1 0.2 1 1.1 1 0.7 1.7-0.2 0.6 1.3 1.2 0.9 1.2 0.2 0.3 0.5 0.7 0.6 0.9 0.1 0.8 0.5 1 1.1 0.9 1.7 0.3 2.2 1.2 1.3 0.1 2 1.1 1.1 1.2 0.7 1.1 0.6 1 0 0 0.9 0.2 0 0 0.2 0.1 0 0 0.1 0.5 0 0 0.2 0.3 0 0 0.1 0.1 0 0 0.2 0.2 0 0 0.4-0.2 0 0 0.3-0.1 0 0 0.1-0.8 0 0-0.1-0.4 0 0-0.1-0.5 0 0-0.2-0.3 0 0-0.1-0.1 0 0-0.2-0.6 0 0-0.1-0.1 0 0 0.1-0.3 0 0 0.2-0.2 0 0 0.1-0.1 0 0 0.2-0.2 0 0 0.2-0.1 0 0 0.2-0.2 0 0 0.3-0.1 0 0 0.3-0.2 0 0 0.6-0.1 0 0 0.1 0.1 0 0 0.2-0.1 0 0 0.1 0.1 0 0 0.5 0.2 0 0 0.2 0.1 0 0 0.3 0.2 0 0 0.2 0.1 0 0 0.1 0.2 0 0 0.2 1.1 0 0-0.2 0.3 0 0-0.1 0.8 0 0 0.1 0.1 0 0 0.3 0.2 0 0 0.2-0.2 0 0 0.4-0.1 0 0 0.2-0.3 0 0-0.2-0.9 0 0 0.2-0.3 0 0 0.1-0.1 0 0 0.3-0.3 0 0 0.2-0.2 0 0 0.1-0.1 0 0 0.3-0.3 0 0 0.1-0.5 0 0 0.2-0.6 0 0 0.1-0.5 0 0 0.2-0.6 0 0 0.1-0.2 0 0 0.2-0.3 0 0 0.1-0.1 0 0 0.3-0.2 0 0 0.2-0.1 0 0 0.3-0.3 0 0 0.1-0.2 0 0-0.1-0.4 0 0 0.1-0.3 0 0 0.2-0.3 0 0 0.3-0.1 0 0 0.2-0.3 0 0 0.2-0.3 0 0 0.1-1.1 0 0 0.2-0.2 0 0 0.1-0.5 0 0 0.2-0.1 0 0 0.1-0.2 0 0 0.3-0.1 0 0 0.3-0.2 0 0 0.5 0.2 0 0 0.4 0.1 0 0 0.1 0.3 0 0 0.2 0.2 0 0 0.1 0.1 0 0 0.2 0.2 0 0 0.1 0.1 0 0 0.8-0.1 0 0 0.1-0.5 0 0 0.2-0.1 0 0 0.1-0.3 0 0 0.2-0.3 0 0 0.1-0.3 0 0 0.2-0.8 0 0-0.2-0.5 0 0-0.1-0.5 0 0-0.2-0.1 0 0-0.1-0.3 0 0-0.2-1.1 0 0 0.2-0.1 0 0 0.3-0.2 0 0 0.3-0.1 0 0 0.1-0.1 0 0 0.6-0.2 0 0 1 0.2 0 0 0.2 0.1 0 0 0.3 0.3 0 0 0.1 0.4 0 0 0.2 0.5 0 0 0.1 0.1 0 0 0.2 0.3 0 0 0.1 0.3 0 0 0.3 0.2 0 0 0.3 0.3 0 0 0.1 0.3 0 0 0.3 0.2 0 0 0.2 0.2 0 0 0.1 0.1 0 0 0.2 0.2 0 0 0.1 0.6 0 0 0.3 0.3 0 0 0.2 0.1 0 0 0.8-0.1 0 0 0.9-0.2 0 0 0.6 0.2 0 0 1.9 0.1 0 0 0.8-0.1 0 0 0.1-0.2 0 0 0.3-0.1 0 0 0.3-0.2 0 0 0.1-0.1 0 0 0.3-0.2 0 0 0.3-0.1 0 0 0.2-0.3 0 0 0.1-0.2 0 0 0.2-2 0 0 0.1-0.2 0 0 0.2-0.1 0 0 0.1-0.6 0 0-0.1-0.6 0 0-0.2-0.3 0 0-0.1-0.6 0 0-0.2-1 0 0 0.2-0.4 0 0 0.1-1.7 0 0 0.2-0.3 0 0 0.1-0.1 0 0 0.5-0.1 0 0 0.3-0.2 0 0 0.4 0.2 0 0 0.6 0.1 0 0 1-0.1 0 0-0.1-1.1 0 0 0.1-0.4 0 0 0.2-0.5 0 0 0.1-0.4 0 0 0.2-0.7 0 0-0.2-0.5 0 0-0.1-0.3 0 0-0.2-0.4 0 0-0.1-0.6 0 0 0.1-0.2 0 0 0.2-0.1 0 0 0.4-0.1 0 0 0.6 0.1 0 0 0.1 0.3 0 0 0.5 0.1 0 0 0.3 0.2 0 0 0.3 0.1 0 0 0.3-0.3 0 0-0.2-0.1 0 0-0.1-0.3 0 0-0.2-0.1 0 0-0.1-0.2 0 0-0.2-0.7 0 0-0.1-0.5 0 0 0.1-0.1 0 0 0.3-0.2 0 0 0.2-0.1 0 0 0.1-0.2 0 0-0.3-0.1 0 0-0.1-0.2 0 0-0.2-0.1 0 0-0.1-0.3 0 0 0.1-0.1 0 0 0.8-0.2 0 0 0.3-0.3 0 0 0.1-0.1 0 0 0.2-0.2 0 0 0.4-0.1 0 0 0.1-0.2 0 0 0.5-0.1 0 0 0.3-0.2 0 0 0.4-0.3 0 0 0.2-0.3 0 0 0.1-0.1 0 0 0.2-0.2 0 0 0.1-0.1 0 0 0.3-0.1 0 0 0.3-0.2 0 0 0.4-0.1 0 0 0.3-0.2 0 0 0.3-0.1 0 0 0.2-0.3 0 0 0.1-0.5 0 0 0.2-0.3 0 0-0.2-0.6 0 0 0.2-0.1 0 0 0.3-0.1 0 0 0.3-0.2 0 0 0.4 0.2 0 0 0.1 0.1 0 0 0.2 0.1 0 0 0.1 0.2 0 0 0.3 0.6 0 0 0.3 0.1 0 0 0.2 0.2 0 0 0.1 0.1 0 0 0.2 0.2 0 0 0.4-1.1 0 0-0.1-0.5 0 0-0.2-0.5 0 0-0.1-0.7 0 0-0.2-0.9 0 0-0.1-0.2 0 0-0.2-1.1 0 0 0.2-0.3 0 0 0.1-0.2 0 0-0.1-0.3 0 0-0.2-0.3 0 0-0.4-0.1 0 0-0.2-0.5 0 0-0.1-0.4 0 0 0.1-0.1 0 0 0.3-0.2 0 0 0.2-0.4 0 0 0.1-0.3 0 0 0.2-0.3 0 0 0.1-0.2 0 0 0.2-0.1 0 0 0.1-0.2 0 0 0.2-0.1 0 0 0.8 0.1 0 0 0.2 0.2 0 0 0.1 0.1 0 0 0.3 0.2 0 0 0.3-0.2 0 0 0.8 0.2 0 0 0.4-0.6 0 0-0.1-0.4 0 0-0.2-1.1 0 0-0.1-0.3 0 0-0.2-0.1 0 0-0.3-0.2 0 0-0.1-0.1 0 0-0.2-0.2 0 0-0.1-0.1 0 0-0.2-1.6 0 0 0.8-0.2 0 0 0.4-0.1 0 0 0.2-0.2 0 0 0.3-0.7 0 0-0.2-0.4 0 0-0.1-0.2 0 0-0.2-0.4 0 0-0.1-0.2 0 0-0.6 0.2 0 0-0.2 0.4 0 0-0.1 0.2 0 0-0.5-0.2 0 0-0.1-0.3 0 0-0.2-0.4 0 0-0.1-0.2 0 0-0.3-0.1 0 0-0.4-0.2 0 0-0.3 0.2 0 0-0.9-0.2 0 0-0.2-0.6 0 0 0.2-0.8 0 0 0.1-0.3 0 0 0.3-0.2 0 0 0.6-0.3 0 0-0.1-0.1 0 0-0.2-0.2 0 0-0.1-0.1 0 0-0.2-0.2 0 0-0.1-0.1 0 0-0.2-0.2 0 0-0.1 0.2 0 0-0.3-0.2 0 0-0.4-0.1 0 0-0.3-0.2 0 0-0.2-0.3 0 0 0.2-0.1 0 0 0.1-1.8 0 0-0.1-0.7 0 0 0.1-0.7 0 0 0.2-0.5 0 0 0.1-0.4 0 0 0.1-0.2 0 0 0.3-0.3 0 0 0.3-0.1 0 0 0.6-0.2 0 0 1.1 0.2 0 0 0.1 0.1 0 0 0.9-0.1 0 0 0.3-0.3 0 0 0.3-0.1 0 0 0.1-0.3 0 0 0.3-0.2 0 0 0.3-0.3 0 0 0.3-0.1 0 0 0.4-0.2 0 0 0.3-0.1 0 0 0.2-0.2 0 0 0.1-0.1 0 0 0.3-0.2 0 0 0.2-0.1 0 0 0.3-0.2 0 0 1.1 0.2 0 0 0.2 0.3 0 0 0.3 0.1 0 0 0.3 0.2 0 0 0.3 0.1 0 0 0.3 0.2 0 0 0.3-0.2 0 0 0.3-0.1 0 0 0.8-0.2 0 0 0.8-0.1 0 0 0.4-0.2 0 0 0.6 0.2 0 0 0.2-0.2 0 0 0.1 0.2 0 0 0.3 0.1 0 0 0.1-0.1 0 0 0.2 0.1 0 0 0.3 0.2 0 0 0.1-0.2 0 0 0.3 0.3 0 0 0.3 0.3 0 0-0.1 0.2 0 0 0.3 0.1 0 0 0.6-0.1 0 0 0.1-1.1 0 0 0.2-0.1 0 0 0.1-0.2 0 0 0.3-0.1 0 0 0.9 0.1 0 0 0.9-0.1 0 0 0.1-0.2 0 0-0.1-0.1 0 0-0.2-0.3 0 0-0.1-0.1 0 0-0.2-0.3 0 0 0.2-0.2 0 0 0.1-0.4 0 0 0.2-0.5 0 0 0.1-0.1 0 0 0.3-0.2 0 0 0.3-0.3 0 0 0.1-0.1 0 0 0.2-0.2 0 0 0.4 0.2 0 0 0.2 0.1 0 0 0.3 0.2 0 0 0.3 0.1 0 0 0.1-0.1 0 0 0.5-0.2 0 0 0.1-0.3 0 0 0.3-0.2 0 0 0.1-0.2 0 0 0.2-0.1 0 0 0.6 0.1 0 0 0.3 0.3 0 0 0.4 0.7 0 0 0.8-0.1 0 0 0.2-0.2 0 0 0.3-0.1 0 0-0.1-0.3 0 0 1 0.1 0 0 0.6 0.2 0 0 0.2-0.2 0 0 0.3-0.1 0 0 0.1-0.1 0 0 0.1-0.2 0 0 0.2-0.1 0 0 0.1-0.2 0 0-0.1-0.7 0 0 0.1-0.2 0 0 0.3 0.2 0 0 0.2-0.2 0 0 0.1-0.4 0 0-0.1-0.2 0 0-0.2-0.1 0 0-0.1-0.2 0 0-0.2-0.1 0 0-0.3-0.1 0 0-0.4-0.2 0 0-0.4-0.3 0 0 0.1-0.3 0 0 0.2-0.3 0 0 0.3-0.4 0 0-0.2-0.2 0 0-0.1-0.6 0 0 0.3-0.1 0 0 0.2-0.2 0 0 0.5 0.2 0 0 0.1-0.2 0 0 0.3-0.4 0 0-0.1-0.1 0 0-0.2-0.3 0 0-0.1-0.3 0 0-0.2-0.2 0 0-0.3-0.1 0 0-0.4 0.1 0 0-1.3-0.1 0 0-0.2-0.2 0 0-0.4-0.1 0 0-0.9-0.6 0 0-0.1-0.2 0 0-0.2-0.4 0 0-0.4-0.1 0 0-0.2-0.2 0 0-0.4-0.1 0 0-0.3-0.2 0 0-0.3-0.1 0 0-0.2-0.2 0 0-0.1-0.1 0 0-0.1-0.2 0 0-0.3-0.1 0 0-0.5-0.2 0 0-0.1-0.1 0 0-0.2-1.3 0 0 0.2-0.2 0 0 0.1-0.1 0 0 0.2-0.3 0 0 0.1-0.2 0 0 0.2-0.1 0 0 0.1-0.2 0 0 0.2-0.1 0 0 0.3-0.2-0.1 0 0.2-0.1 0 0 0.4 0.1 0 0 0.3 0.2 0 0 0.2 0.1 0 0 0.1 0.2 0 0 0.3 0.3 0 0 0.2 0.1 0 0 0.3-0.1 0 0 0.1-0.3 0 0 0.2-0.2 0 0 0.1-0.1 0 0 0.2-0.2 0 0 0.1-0.1 0 0 0.3 0.1 0 0 0.1 0.2 0 0 0.6-0.2 0 0 0.8-0.1 0 0 0.4 0.1 0 0 0.2 0.2 0 0 0.1 0.1 0 0 0.1 0.2 0 0 0.2 0.6 0 0 1 0.1 0 0 0.5-0.3 0 0 0.1-0.1 0 0-0.1-0.2 0 0-0.2-0.1 0 0-0.1-0.5 0 0 0.1-0.3 0 0 1.6 0.2 0 0 0.5-0.2 0 0 0.3-0.1 0 0 0.1-0.2 0 0 0.2-0.1 0 0 0.1-0.1 0 0 0.2-0.2 0 0 0.1-0.1 0 0 0.2-0.3 0 0 0.1-0.6 0 0 0.2-0.2 0 0 0.1-1 0 0-0.1-0.1 0 0-0.2-0.3 0 0-0.1-0.8 0 0 0.1-0.4 0 0 0.2-0.3 0 0 0.1-0.3 0 0 0.1-0.2 0 0 0.2-0.1 0 0 0.6-0.4 0 0-0.2-0.2 0 0-0.1-1 0 0 0.1-0.3 0 0 0.2-0.2 0 0 0.3-0.1 0 0 0.1-0.3 0 0 0.6-0.2 0 0 0.3-0.1 0 0 1-0.1 0 0 0.2-0.2 0 0 0.1-0.4 0 0 0.2-0.5 0 0-0.2-0.1 0 0-0.1-0.2 0 0-0.5-0.1 0 0-0.3-0.2 0 0-0.2-0.1 0 0-0.2-0.9 0 0-0.1-0.1 0 0-0.2-0.3 0 0-0.1-0.2 0 0-0.5-0.1 0 0-0.1-0.2 0 0-0.9-0.1 0 0-0.3 0.1 0 0-1.2 0.3 0 0-0.1 0.2 0 0-0.2 0.1 0 0-0.6-0.1 0 0-0.1-0.2 0 0-0.4-0.1 0 0-1.1 0.1 0 0-0.4-0.1 0 0-0.3 0.1 0 0-0.3 0.2 0 0-0.7 0.1 0 0-0.5 0.2 0 0-1-0.2 0 0-0.5-0.1 0 0-0.1-0.3 0 0-1-0.2 0 0-0.3-0.1 0 0-0.5-0.2 0 0-0.3-0.1 0 0-0.1-0.2 0 0-0.3-0.1 0 0-0.3-0.2 0 0-0.2-0.1 0 0-0.1-0.2 0 0-0.1-0.1 0 0-0.2-0.2 0 0-0.1-0.1 0 0-0.2-0.7 0 0-0.1-0.6 0 0-1.1-0.2 0 0-0.3 0.2 0 0-0.4 0.1 0 0-0.9 0.2 0 0-0.1 0.3 0 0-0.2 0.3 0 0-0.1 0.1 0 0-0.3 0.3 0 0-0.2 0.1 0 0 0.2 0.5 0 0 0.1 0.3 0 0 0.2 0.1 0 0 0.1 0.3 0 0 0.2 0.3 0 0 0.1 0.6 0 0-0.1 0.5 0 0-0.2 0.1 0 0-0.1 0.1 0 0-0.2 0.2 0 0-0.3 0.1 0 0-0.1 0.2 0 0-0.7-0.2 0 0-0.3-0.3 0 0-0.2-0.1 0 0-0.1 0.1 0 0-0.3 0.2 0 0-0.6-0.2 0 0-0.3-0.1 0 0-0.3-0.3 0 0-0.5 0.2 0 0 0.2 0.1 0 0-0.2 0.3 0 0-0.4 0.3 0 0 0.2 0.1 0 0-0.3 0.2 0 0-0.2 0.1 0 0-0.1-0.1 0 0-0.6-0.2 0 0-0.3-0.1 0 0-0.5-0.2 0 0-0.1 0.2 0 0-0.2 0.1 0 0-0.1 0.2 0 0-0.1 0.1 0 0-0.9 0.2 0 0-0.8 0.1 0 0-0.1-0.1 0 0-0.5-0.3 0 0-0.1-0.6 0 0 0.1-0.4 0 0-0.1-0.3 0 0-0.1-0.3 0 0-0.3-0.2 0 0-0.3 0.2 0 0-0.2 1.4 0 0-0.1 0.2 0 0-0.3 0.1 0 0-0.3 0.2 0 0-0.9-0.2 0 0-0.4 0.2 0 0-0.2 0.1 0 0-0.4 0.2 0 0-0.2 0.3 0 0-0.1 0.3 0 0-0.2 0.1 0 0-0.6-0.1 0 0-0.1-0.3 0 0-0.6-0.2 0 0-0.4-0.3 0 0-0.5-0.1 0 0-0.3-0.2 0 0-0.1 0.2 0 0-0.3-0.2 0 0-0.5 0.2 0 0-0.1 0.1 0 0-0.3 0.2 0 0-0.3 0.1 0 0-0.1 0.2 0 0-0.6-0.2 0 0-0.2-0.1 0 0-0.1-0.2 0 0-0.2-0.1 0 0-0.3-0.2 0 0-0.1-0.6 0 0-0.2-0.3 0 0-0.7 0.2 0 0-0.1-0.2 0 0-0.5-0.1 0 0-0.9-0.1 0 0-0.1 0.1 0 0-0.2 0.1 0 0-0.3 0.5 0 0-0.1 0.1 0 0-0.3 0.2 0 0-0.1 0.1 0 0-0.2 0.2 0 0-0.9 0.1 0 0-0.9-0.1 0 0-0.4-0.2 0 0-0.1-0.1 0 0-0.2-0.2 0 0-0.3-0.1 0 0-0.1-0.2 0 0-0.3-0.1 0 0-0.8-0.2 0 0-0.4-0.1 0 0-0.3-0.1 0 0-0.2-0.2 0 0-0.1-0.1 0 0-0.4-0.2 0 0-0.2-0.1 0 0-0.3-0.5 0 0-0.1-0.1 0 0-0.2-0.2 0 0-0.1-1.3 0 0 0.1-0.3 0 0 0.2-1 0 0-0.2-0.6 0 0 0.2-0.3 0 0 0.1-0.2 0 0 0.2-0.1 0 0 0.1-0.4 0 0-0.1-1.4 0 0-0.2-0.1 0 0-0.1-0.3 0 0-0.2-0.2 0 0-0.1-0.1 0 0-0.3-0.1 0 0-0.2-0.2 0 0-0.1-0.1 0 0-0.3-0.2 0 0-0.2 0.2 0 0-0.1-0.2 0 0-0.4-0.1 0 0-0.3-0.2 0 0-0.3-0.6 0 0-0.2-0.1 0 0-0.1-0.9 0 0-0.2-0.3 0 0 0.2-0.1 0 0 0.1-0.3 0 0 0.2-0.3 0 0 0.1-0.2 0 0 0.2-0.4 0 0 0.1-0.2 0 0-0.1-0.1 0 0-0.3-0.2 0 0-0.2 0.2 0 0-0.1 0.1 0 0-0.8 0.2 0 0-0.1 0.1 0 0-0.3 0.2 0 0-0.3 0.1 0 0-0.1 0.3 0 0 0.1 0.3 0 0-0.1 0.5 0 0-0.2 0.2 0 0-0.1 0.2 0 0-0.2 0.1 0 0-0.1 0.2 0 0-0.8-0.2 0 0-0.6-0.1 0 0-0.1 0.1 0 0-0.4-0.1 0 0-0.5 0.1 0 0-0.6 0.2 0 0-0.3 0.1 0 0-0.3 0.2 0 0-0.4 0.1 0 0-0.4-0.1 0 0-0.3-0.2 0 0-0.2 1.9-1.2 1.3-1.1 0.8-0.4 1-0.5 1-0.7 1.3-1 1-0.7 1.1-0.9 1.1-1.2 1-1.3 1.1-0.9 1.6-1.3 0.9-1.7 1.4-1.8 1.2-1.5 1.1-1.7 0.6-1.3 0.7-1.1 0.8-1.2 0.6-1.2 0.9-1.4 0.8-1.3 1.1-2.5 0.8-1.4 0.8-1.5 0.9-1.8 1.1-1.4 0.9-1.7 0.8-1.2 0.1-0.5 0-9.9 0.8-3.9 0.5-1.3 0.6-1.4 0.7-1.4 0.3-1 0.3-0.4 0-3.3-0.5-1.3-0.2-1.5-0.3-1.2-0.5-1.5-0.3-1.2-0.2-0.5-0.1-2.3 0.4-1 0.3-0.7 0.5-0.5 0.8-0.4 0.7-0.2 0.8-0.3 1.1 0 1.1-0.1 0.9-0.1 0.9-0.2 1.1-0.2 1-0.5 0.9-0.7 1-0.6 0.8-0.6 0.4-0.3 0 0.7 0.5 1.4 0.5 1.1 0.6 1.3 0.8 1.3 1 1.3 1 0.8 1 0.6 1.4 0.5 1.7 0.6 1.1 0 1.4 0.2 2 0.1 2.4 0.1 0.8 0.2 1.2 0 1.1 0 0.8 0.3 1.1 0.5 1 0.3 1.1 0.4 1.3 0.8 1.4 0.7 1.1 0.6z m-52 126.3l0 0.3 0.2 0 0 0.1-0.2 0 0 0.2-0.1 0 0 0.6-0.2 0 0 0.1-0.1 0 0 0.7-0.1 0 0 0.8-0.2 0 0 0.3-0.3 0 0-0.2-0.1 0 0-0.1-0.2 0 0-0.2-0.3 0 0 0.2-0.1 0 0 0.1 0.1 0 0 0.2 0.2 0 0 0.3 0.1 0 0 0.3 0.2 0 0 0.1 0.1 0 0 0.2 0.2 0 0 0.1 0.1 0 0 0.1 0.3 0 0 0.2 0.1 0 0-0.2 0.3 0 0 0.2 0.2 0 0 0.4 0.1 0 0 0.3-0.1 0 0 0.2-0.6 0 0 0.1-0.1 0 0 0.2-0.2 0 0 0.7-0.1 0 0 0.3-0.2 0 0 0.2-0.3 0 0 0.2-0.3 0 0 0.2-0.1 0 0 0.1-0.2 0 0 0.8-0.3 0 0 0.1-0.1 0 0 0.5-0.2 0 0 0.6-0.1 0 0 0.1-0.2 0 0 0.1-0.8 0 0-0.1-0.2 0 0-0.1-0.1 0 0-0.2-0.5 0 0-0.1-0.1 0 0-0.2-0.6 0 0 0.2-0.2 0 0 0.1-0.1 0 0 0.3-0.4 0 0 0.1-0.8 0 0-0.1 0.2 0 0-0.1-0.3 0 0 0.1-0.3 0 0-0.1-0.2 0 0-0.2-0.4 0 0-0.1-0.2 0 0-0.2-0.1 0 0-0.7 0.1 0 0-0.2 0.6 0 0-0.4-0.1 0 0-0.2-0.2 0 0-0.1-0.1 0 0-0.3-0.3 0 0-0.1-0.9 0 0 0.1-0.1 0 0 0.1-0.3 0 0-0.1-0.2 0 0-0.1-0.1 0 0-0.2-0.2 0 0-0.3 0.2 0 0-0.1 0.1 0 0-1.4 0.3 0 0-0.4 0.2 0 0-0.2 0.1 0 0-0.1 0.2 0 0-0.7 0.1 0 0-0.2 0.2 0 0-0.1 0.1 0 0-0.2 0.6 0 0-0.1 0.1 0 0-0.2 0.6 0 0-0.1 0.6 0 0-0.2 0.2 0 0-0.1 0-0.2 0.1 0 0-0.4 0.2 0 0-0.3 0.1 0 0-0.1 0.1 0 0-0.2 0.5 0 0 0.2 0.3 0 0 0.1 0.1 0 0 0.2 0.2 0 0 0.1 0.4 0 0 0.1 0.3 0 0-1 0.2 0 0-0.1 0.1 0 0 0.1 0.3 0 0 0.3 0.2 0 0 0.2 0.4 0 0-0.2 0.6 0 0-0.1 0.1 0 0-0.2 0.2 0 0-0.1 0.1 0 0-0.2 0.2 0 0-0.1 0.3 0 0-0.2 0.1 0 0-0.1 1 0z" id="ST03" name="Caué">
  </path>
  <path d="M296.8 804.9l-0.4 0.3-0.8 0.6-1 0.6-0.9 0.7-1 0.5-1.1 0.2-0.9 0.2-0.9 0.1-1.1 0.1-1.1 0-0.8 0.3-0.7 0.2-0.8 0.4-0.5 0.5-0.3 0.7-0.4 1 0.1 2.3 0.2 0.5 0.3 1.2 0.5 1.5 0.3 1.2 0.2 1.5 0.5 1.3 0 3.3-0.3 0.4-0.3 1-0.7 1.4-0.6 1.4-0.5 1.3-0.8 3.9 0 9.9-0.1 0.5-0.8 1.2-0.9 1.7-1.1 1.4-0.9 1.8-0.8 1.5-0.8 1.4-1.1 2.5-0.8 1.3-0.9 1.4-0.6 1.2-0.8 1.2-0.7 1.1-0.6 1.3-1.1 1.7-1.2 1.5-1.4 1.8-0.9 1.7-1.6 1.3-1.1 0.9-1 1.3-1.1 1.2-1.1 0.9-1 0.7-1.3 1-1 0.7-1 0.5-0.8 0.4-1.3 1.1-1.9 1.2-0.1 0 0-0.3-0.2 0 0-0.1-0.1 0 0-0.2-0.2 0 0-0.3-0.1 0 0-0.1-0.3 0 0-0.3-0.1 0 0-0.2-0.2 0 0-0.1-0.1 0 0-0.2-0.2 0 0-0.1-0.4 0 0-0.1-0.3 0 0-0.3-1.5 0 0-0.2-0.1 0 0-0.1-0.2 0 0-0.2-0.1 0 0-0.1-0.2 0 0-0.2-0.4 0 0-0.1-0.3 0 0-0.2-0.3 0 0-0.1-0.3 0 0-0.2-0.3 0 0-0.4-0.1 0 0-0.2-0.2 0 0-0.5 0.2 0 0-0.3 0.1 0 0-0.2 0.3 0 0-0.1 0.1 0 0-0.2 0.2 0 0-0.1 0.1 0 0-0.2 0.6 0 0 0.2 0.2 0 0-0.2 0.3 0 0-0.1 0.1 0 0-0.2 0.2 0 0-0.3 0.1 0 0-0.3-0.1 0 0-0.4-0.3 0 0-0.1-0.3 0 0-0.2-0.5 0 0 0.2-0.1 0 0-0.2-0.6 0 0-0.3-0.2 0 0-0.1-0.1 0 0-0.5-0.1 0 0-0.1-0.2 0 0-0.2-0.1 0 0-0.4-0.2 0 0-0.2-0.1 0 0-0.1-0.3 0 0-0.3-0.2 0 0-0.2-0.1 0 0-0.1-0.2 0 0-0.1-0.1 0 0-0.2-0.2 0 0-0.3-0.1 0 0-0.1-0.6 0 0 0.1-0.6 0 0-0.1-0.1 0 0-0.2-0.2 0 0-0.3 0.2 0 0-0.1-0.2 0 0-0.2 0.2 0 0-0.4 0.1 0 0-0.5 0.2 0 0-0.1 0-0.1 0.1 0 0-0.2 0.1 0 0-0.6-0.1 0 0-0.1 0.1 0 0-0.2 0.3 0 0-0.4-0.1 0 0-0.2-0.3 0 0-0.3 0.1 0 0-0.4 0.2 0 0-0.4 0.1 0 0-0.2 0.2 0 0-0.1-0.2 0 0-0.3 0.2 0 0-0.8 0.1 0 0-0.1-0.1 0 0-0.3 0.1 0 0-0.3-0.1 0 0-1.2-0.2 0 0-0.3-0.1 0 0-0.3 0.1 0 0-0.4-0.1 0 0-0.2-0.2 0 0-0.1-0.1 0 0-0.2 0.1 0 0-0.2-0.4 0 0-0.2-0.1 0 0-0.1-0.2 0 0-0.3-0.3 0 0-0.2 0.2 0 0-0.3 0.3 0 0-0.1 0.3 0 0-0.2 0.1 0 0-0.1-0.1 0 0-0.3-0.2 0 0-0.2-0.1 0 0-0.1-0.2 0 0 0.1-0.1 0 0-0.3-0.3 0 0-0.2 0.1 0 0-0.3 0.2 0 0-0.2-0.3 0 0-0.1-0.2 0 0-0.2 0.3 0 0-0.4 0.2 0 0-0.2 0.1 0 0-0.1 0.2 0 0-0.5 0.1 0 0-0.8-0.1 0 0-0.2-0.2 0 0-0.3-0.1 0 0-0.1-0.2 0 0-0.2-0.4 0 0-0.1-0.3 0 0-0.3-0.2 0 0-0.3-0.1 0 0-0.3-0.2 0 0-0.2-0.1 0 0-1-0.2 0 0-0.1-0.2 0 0-0.2-0.8 0 0-0.3-0.1 0 0-0.9-0.2 0 0-0.4-0.4 0 0-0.1-0.2 0 0-0.3-0.1 0 0-0.2 0.1 0 0-0.3-0.4 0 0-0.1-0.3 0 0-0.2-0.1 0 0-0.1-0.2 0 0-0.2-0.1 0 0-0.1-0.2 0 0-0.2-0.1 0 0-0.4-0.2 0 0-0.2 0.2 0 0-0.1-0.2 0 0-0.2 0.2 0 0-0.1 0.1 0 0-0.7 0.2 0 0-1.4-0.2 0 0-0.1-0.1 0 0-1.2-0.2 0 0-0.1-0.1 0 0-0.3-0.2 0 0-0.5-0.3 0 0-0.4-0.1 0 0-0.2-0.5 0 0-0.1-0.1 0 0 0.1-0.2 0 0 0.2-0.1 0 0 0.1-0.2 0 0 0.2-0.1 0 0 0.1-0.1 0 0 0.2-0.3 0 0 0.1-0.3 0 0-0.1-0.3 0 0-0.6 0.1 0 0-0.2 0.2 0 0-0.1 0.1 0 0-0.1 0.2 0 0-0.2 0.1 0 0-0.1 0.3 0 0-0.2 0.1 0 0-0.1 0.2 0 0-0.5 0.1 0 0-0.1 0.2 0 0 0.1 0.3 0 0 0.2 0.3 0 0-0.2 0.1 0 0-0.9-0.1 0 0-0.7-0.3 0 0-0.6-0.2 0 0-0.1-0.1 0 0-0.3-0.2 0 0-0.2 0.2 0 0-0.1 0.6 0 0-0.2 0.1 0 0-0.1 0.2 0 0-0.3-0.2 0 0-0.5 0.3 0 0-0.1-0.1 0 0-0.3-0.2 0 0-0.1-0.1 0 0-0.3-0.3 0 0-0.2-0.2 0 0-0.1-0.1 0 0-0.2-0.2 0 0-0.9-0.1 0 0-0.1-0.2 0 0-0.2-0.1 0 0-0.1-0.1 0 0-0.3-0.2 0 0-0.4-0.1 0 0-0.8-0.2 0 0-0.7 0.2 0 0-0.2 0.1 0 0-0.1 0.2 0 0-0.2 0.1 0 0-0.1 0.1 0 0-0.6 0.2 0 0-0.1 0.1 0 0-0.5-0.1 0 0-0.1-0.4 0 0-0.6-0.2 0 0-0.5-0.1 0 0-0.1-0.2 0 0-0.3-0.1 0 0-0.1-0.2 0 0-0.2-0.1 0 0-0.1-0.2 0 0-0.2-0.1 0 0-0.1-0.3 0 0-0.3-0.2 0 0-0.2 0.3 0 0-0.3 0.2 0 0 0.2 0.1 0 0-0.2 0.2 0 0-0.1 0.1 0 0-0.2 0.2 0 0-0.1 0.1 0 0-0.2 0.2 0 0-0.1 0.1 0 0-0.3-0.1 0 0-0.1-0.3 0 0-0.3-0.2 0 0-0.2 0.2 0 0-0.3 0.1 0 0-0.6 0.2 0 0-0.3 0.1 0 0-0.1 0.2 0 0-0.2 0.2 0 0-0.1 0.2 0 0 0.1 0.4 0 0-0.8-0.1 0 0-0.3-0.2 0 0-0.3-0.1 0 0-0.2 0.1 0 0-0.1 0.2 0 0 0.1 0.1 0 0-0.6-0.1 0 0-0.4 0.1 0 0-0.2-0.3 0 0-0.1-0.1 0 0-0.3-0.3 0 0-0.1-0.4 0 0-0.2-0.2 0 0-0.1 0.2 0 0-0.2 0.1 0 0-0.4-0.3 0 0-0.2-0.9 0 0-0.7 0.2 0 0-0.2 0.3 0 0-0.3 0.1 0 0-0.1-0.3 0 0-0.1-0.4 0 0-0.2-0.2 0 0 0.2-0.1 0 0 0.1-0.3 0 0-0.1-0.2 0 0-0.5 0.2 0 0-0.1 0.3 0 0 0.1 0.3 0 0-0.1 0.3 0 0-0.2 0.1 0 0-0.1 0.2 0 0-0.2 0.1 0 0-0.6-0.1 0 0-1.3 0.1 0 0-0.3 0.2 0 0-0.3 0.1 0 0-0.1 0.2 0 0-0.2 0.1 0 0-0.1 0.2 0 0-0.2 0.1 0 0-0.1 0.1 0 0-0.2 0.2 0 0-0.1 0.1 0 0-2.2 0.2 0 0-0.5 0.1 0 0-0.5 0.2 0 0-0.2 0.1 0 0-0.6 0.2 0 0-0.6-0.2 0 0-1.4 0.2 0 0-0.3 0.1 0 0-0.3 0.2 0 0-0.3 0.1 0 0-0.3 0.2 0 0-0.3 0.1 0 0-0.3 0.2 0 0-0.3 0.1 0 0-0.1 0.2 0 0-0.3 0.1 0 0-0.2 0.2 0 0-0.1 0.1 0 0-0.2 0.1 0 0-0.3 0.2 0 0-0.1 0.1 0 0-0.2 0.2 0 0-0.1 0.3 0 0-0.2 0.1 0 0-0.1 0.2 0 0-0.2 0.1 0 0-0.1 0.2 0 0-0.2 0.3 0 0-0.1 0.1 0 0-0.2 0.2 0 0-0.1 0.1 0 0-0.1 0.3 0 0-0.2 0.4 0 0 0.2 0.2 0 0 0.1 0.4 0 0 0.1 0.6 0 0 0.2 0.6 0 0-0.2 0.2 0 0-0.1 0.5 0 0-0.3 0.3 0 0-0.3 0.2 0 0-0.3 0.1 0 0-0.3 0.2 0 0-0.4 0.1 0 0-0.2 0.2 0 0-0.8 0.1 0 0-0.5 0.2 0 0-0.3-0.2 0 0-0.1 0.2 0 0-0.2 0.1 0 0-0.4 0.2 0 0-0.2-0.2 0 0-0.1 0.2 0 0-0.5 0.1 0 0-0.2-0.1 0 0-0.2 0.1 0 0-0.1 0.3 0 0-0.5-0.1 0 0-0.1-0.2 0 0-0.6 0.2 0 0-0.3 0.1 0 0-0.2 0.2 0 0-0.1 0.2 0 0-0.2 0.2 0 0-0.5 0.1 0 0-0.6-0.1 0 0-0.5 0.1 0 0-0.1 0.2 0 0-0.6 0.1 0 0-0.3 0.2 0 0-0.2 0.1 0 0-0.1 0.2 0 0-0.1 0.4 0 0-0.2 0.2 0 0-0.1 0.1 0 0-0.3 0.3 0 0-0.5-0.1 0 0-0.3-0.3 0 0-0.4 0.1 0 0-2.2-0.1 0 0-0.2 0.1 0 0-0.3 0.2 0 0-0.1 0.1 0 0-0.5 0.2 0 0-1.1 0.1 0 0-0.3 0.1 0 0 0.1 0.5 0 0-0.9 0.1 0 0-0.1-0.1 0 0-0.9 0.1 0 0-0.3-0.1 0 0-0.6 0.1 0 0-0.1-0.1 0 0-0.5-0.3 0 0-0.3-0.2 0 0-0.1-0.1 0 0-0.2 0.1 0 0-0.1-0.2 0 0-0.1 0.1 0 0-0.3 0.1 0 0-0.2 0.2 0 0-0.3 0.1 0 0-0.3 0.2 0 0-0.1 0.1 0 0-0.5 0.2 0 0-0.6 0.1 0 0-0.1 0.2 0 0-0.3 0.1 0 0-0.4 0.2 0 0-0.5 0.1 0 0-0.1 0.2 0 0-0.2 0.1 0 0-0.1 0.2 0 0 0.1 0.3 0 0-0.1 0.4 0 0-0.2 0.3 0 0-0.1 0.9 0 0-0.2 0.3 0 0-0.1 0.4 0 0-0.2 0.3 0 0-0.1 0.3 0 0-0.1 0.3 0 0-0.2 0.1 0 0-0.1 0.3 0 0-0.2 1.2 0 0-0.1 0.5 0 0-0.2 0.4 0 0-0.1 0.3 0 0-0.2 0.1 0 0-0.1 0.2 0 0-0.2 0.1 0 0-0.1 0.3 0 0-0.2 0.2 0 0-0.1 0.1 0 0-0.3 0.3 0 0-0.2 0.2 0 0-0.1 0.1 0 0-0.2 0.2 0 0-0.2 0.1 0 0-0.2 0.1 0 0-0.3 0.2 0 0-0.3 0.1 0 0-0.9 0.2 0 0-0.7 0.1 0 0-0.1 0.2 0 0-0.2 0.1 0 0-0.1 0.6 0 0-0.2 1.1 0 0-0.1 0.5 0 0-0.2 0.2 0 0-0.1 0.6 0 0-0.2 0.1 0 0 0.2 0.5 0 0 0.1 0.8 0 0 0.2 0.6 0 0 0.1 0.9 0 0 0.2 0.3 0 0-0.2 0.3 0 0-0.1 0.2 0 0-0.3 0.1 0 0-0.2 0.2 0 0-0.6 0.1 0 0-0.3 0.1 0 0-0.3 0.2 0 0-0.4 0.1 0 0-0.6 0.2 0 0-0.3 0.1 0 0-0.1 0.2 0 0-0.6 0.1 0 0-0.5 0.2 0 0-0.3 0.1 0 0-0.2 0.2 0 0-0.2 0.1 0 0-0.4 0.2 0 0-0.2 0.1 0 0-0.3 0.2 0 0-0.3 0.1 0 0-0.3 0.2 0 0-0.3 0.1 0 0-0.1 0.1 0 0-0.3 0.2 0 0-0.1 0.3 0 0-0.2 0.1 0 0-0.1 0.6 0 0-0.2 0.2 0 0-0.1 0.3 0 0-0.2 0.6 0 0-0.1 0.2 0 0-0.2 0.5 0 0-0.1 0.3 0 0-0.2 0.9 0 0-0.1 0.7 0 0-0.2 0.2 0 0-0.1 0.2 0 0-0.2 0.2 0 0-0.3 0.1 0 0-0.2 0.2 0 0-0.9 0.1 0 0-0.3 0.2 0 0-0.5 0.1 0 0-0.6-0.1 0 0-0.1 0.1 0 0-0.3 0.2 0 0-0.3 0.1 0 0-0.4 0.2 0 0-0.3 0.1 0 0-0.2 0.3 0 0-0.1 0.2 0 0-0.2 0.1 0 0-0.1 0.3 0 0-0.2 0.1 0 0-0.1 0.3 0 0-0.2 0.2 0 0-0.1 0.1 0 0-0.2 0.3 0 0-0.1 0.3 0 0-0.1 0.3 0 0-0.2 0.3 0 0-0.1 1.3 0 0 0.1 0.6 0 0 0.2 2.5 0 0 0.1 0.5 0 0 0.1 0.4 0 0 0.2 0.5 0 0 0.1 0.5 0 0 0.2 0.2 0 0 0.1 1.3 0 0-0.1 0.3 0 0-0.2 0.3 0 0-0.3 0.3 0 0-0.1 0.1 0 0-0.3 0.3 0 0-0.1 0.3 0 0-0.2 0.2 0 0-0.1 0.3 0 0-0.2 0.4 0 0-0.1 0.2 0 0-0.2 0.3 0 0-0.1 0.1 0 0-0.2 0.3 0 0-0.1 0.1 0 0-0.3 0.3 0 0-0.2 0.9 0 0-0.1 0.3 0 0-0.2 0.3 0 0-0.1 0.2 0 0-0.2 0.3 0 0-0.1 0.1 0 0-0.1 0.3 0 0-0.2 0.3 0 0-0.3 0.1 0 0-0.3 0.2 0 0-0.3 0.3 0 0-0.3 0.3 0 0-0.3 0.1 0 0-0.3 0.3 0 0-0.3 0.2 0 0-0.1 0.1 0 0-0.3 0.3 0 0-0.3 0.1 0 0-0.3 0.2 0 0-0.4 0.1 0 0-0.2 0.2 0 0-0.4 0.1 0 0-0.2 0.2 0 0-0.1 0.1 0 0-0.2 0.2 0 0-0.1 0.1 0 0-0.1 0.2 0 0-0.5 0.3 0 0-0.1 0.3 0 0-0.2 0.1 0 0-0.1 0.3 0 0-0.2 0.3 0 0-0.1 0.1 0 0-0.2 0.3 0 0-0.1 0.3 0 0-0.2 0.3 0 0-0.1 0.2 0 0-0.3 0.3 0 0-0.3 0.3 0 0-0.2 0.1 0 0-0.2 0.3 0 0-0.5 0.2 0 0-0.4 0.1 0 0-0.2 0.1 0 0-0.3 0.2 0 0-0.1 0.1 0 0-0.5 0.3 0 0-0.1-0.1 0 0-0.2 0.3 0 0-0.1 0.8 0 0.2 0.8 0.5 1.5 0.3 0.8 0.2 0.9 0.3 1.1 0.4 1.1 0.4 0.9 0.5 1 0.2 1 0.2 1.1 0 5.4-0.2 0.9-0.9 1.3-0.9 1.1-1.2 1-1.1 1-0.3 0.6-0.1 2.2 0.2 1.1 0.3 1 0.2 1.3 0.4 1.2 0.1 1.2 0.3 1.6 0 1.7 0.1 2.2 0 0.1-0.6 1.2-0.7 1.8-0.3 2.2-0.3 7.3-0.1 4.3-0.3 1.1-0.5 1.6-0.5 1.3-0.7 1.1-0.7 1.2-0.6 1.5-0.7 1-0.8 0.9-0.1 0.1z m-50.5 68.7l0 0.1 0.7 0 0 0.2 0.3 0 0 0.3 0.1 0 0 0.3-0.2 0 0 0.1-0.2 0 0 0.2-0.6 0 0-0.2-0.1 0 0-0.1-0.5 0 0 0.1-0.7 0 0-0.1-0.2 0 0-0.5 0.2 0 0-0.1 0.1 0 0-0.2 0.2 0 0-0.1 0.9 0z m-0.8 3.1l0 0.1 0.3 0 0 0.8-0.1 0 0 0.1-0.2 0 0 0.3-0.1 0 0 0.2-0.2 0 0 0.3-0.1 0 0 0.1-0.6 0 0-0.1-0.3 0 0-0.2-0.1 0 0-0.6 0.1 0 0-0.4 0.2 0 0-0.3 0.2 0 0-0.2 0.3 0 0-0.1 0.6 0z" id="ST04" name="Lembá">
  </path>
  <path d="M363 743.5l0.1 0.7-0.5 0.7 0 1.3 0.3 0.9 0.6 0.7 0.6 0.5 0.1 0.7 0.1 0.7 0.5 0.8 0.6 0.5 0.5 0.5 0.6 0.5 0.6 0.6 0.3 1 0.2 1.1 0.1 1.3 0 1.5-0.1 0.9-0.2 1.1-0.3 1-0.5 1.1-0.7 0.8-0.8 0.5-0.5 0.3-0.1 1 0.2 0.9 0.6 0.6 0.4 0.6 0.6 0.6 0.7 1 0.3 0.7 0 1.1-0.1 0.9-0.3 0.8-0.3 0.8-0.4 0.8-0.3 0.7-0.1 0.8-0.1 0.6-0.3 0.9-0.5 0.7-0.3 1-0.5 0.8-0.3 0.3-0.4 0.1-1.3 0-1.3-0.1-1-0.7-0.4-1.8-0.5-1-0.4-0.4-1.5-0.2-1.2 0.5-1.2-0.1-1-0.1-1-0.9-1.2-0.6-1.1-0.8 0.2-1 0.3-0.7-0.5-0.9-1.2-0.1-1.1 0.2-1 0.2-1.3 0.5-1.3-0.1-1-0.5-0.8-0.8-0.6-1.5 0-1.5 0.7-1.2 0.4-1.3-0.3-0.6-1.1 0.2-1.5 0.5-1.6 0.8-1.8 0.2-2.1-0.1-1.3-0.1-1.5-0.1-1.8-0.2-0.6 0.1-1 0.4-0.9 0.8-0.7 0.6-0.7 0.8-0.5 0.6-0.3 0.8-0.3 0.9-0.7 0.7-0.6 0.7-0.7 0.6-0.2 0.7-0.3 0.7-0.6 0.4-0.9 0.3-0.4 0.7-0.5 0.9-0.4 0.8-0.8 0.6-1 0.5-0.8 0.2-0.5 0.5-0.2 0.5-12.8-0.1 0-0.1-0.1-2.2 0-1.7-0.3-1.6-0.1-1.2-0.4-1.2-0.2-1.3-0.3-1-0.2-1.1 0.1-2.2 0.3-0.6 1.1-1 1.2-1 0.9-1.1 0.9-1.3 0.2-0.9 0-5.4-0.2-1.1-0.2-1-0.5-1-0.4-0.9-0.4-1.1-0.3-1.1-0.2-0.9-0.3-0.8-0.5-1.5-0.2-0.8 0.2 0 0-0.1 0.2 0 0-0.2 0.1 0 0-0.3 0.3 0 0-0.3 0.2 0 0-0.1 0.1 0 0-0.2 0.1 0 0-0.1 0.3 0 0-0.3 0.2 0 0-0.2 1 0 0-0.1 0.2 0 0-0.2 0.1 0 0-0.1 0.2 0 0-0.3 0.1 0 0-0.4 0.2 0 0-0.2 0.1 0 0-0.1 0.3 0 0-0.2 0.4 0 0-0.1 0.3 0 0-0.2 0.2 0 0-0.1 0.1 0 0-0.3 0.3 0 0-0.5 0.2 0 0-0.3 0.1 0 0-0.1 0.2 0 0-0.2 0.1 0 0-0.1 0.3 0 0-0.1 0.6 0 0-0.2 0.7 0 0-0.1 0.2 0 0-0.5 0.1 0 0-0.3 0.2 0 0-0.1-0.2 0 0-0.3 0.2 0 0-0.5 0.1 0 0-0.1 0.2 0 0-0.2 0.1 0 0-0.1 0.2 0 0-0.3 0.1 0 0-0.1 0.1 0 0-0.3 0.2 0 0-0.2 0.1 0 0-0.3 0.2 0 0-0.6 0.1 0 0-0.4 0.2 0 0-0.2 0.1 0 0-0.5-0.1 0 0-0.5-0.2 0 0-0.3 0.2 0 0-0.3 0.1 0 0-0.3 0.8 0 0 0.2 0.1 0 0 0.1 0.2 0 0 0.3 0.1 0 0-0.1 0.2 0 0-0.2 0.3 0 0-0.1 0.1 0 0-0.2 0.6 0 0 0.2 3.4 0 0 0.1 0.3 0 0 0.2 0.9 0 0-0.2 0.1 0 0-0.1 0.1 0 0-0.5 0.3 0 0-0.1 0.3 0 0-0.2 0.3 0 0-0.1 0.2 0 0-0.2 0.1 0 0-0.1 0.2 0 0-0.1 0.1 0 0-0.3 0.3 0 0-0.2 0.3 0 0 0.2 0.2 0 0 0.1 0.1 0 0 0.2 0.3 0 0 0.1 1 0 0 0.1 0.8 0 0 0.3 0.1 0 0 0.2 0.3 0 0 0.1 0.9 0 0 0.2 0.1 0 0 0.1 0.2 0 0 0.2 0.1 0 0 0.1 0.9 0 0 0.2 1.3 0 0-0.2 0.2 0 0-0.4 0.1 0 0-0.2-0.1 0 0-0.3 0.1 0 0-0.1 0.2 0 0-0.2 1.3 0 0 0.2 0.1 0 0 0.3 0.5 0 0-0.2 0.3 0 0-0.1 0.6 0 0 0.1 0.4 0 0-0.1 0.2 0 0-0.3 0.3 0 0-0.1 0.1 0 0-0.2 0.3 0 0-0.1 0.1 0 0-0.2 0.3 0 0-0.1 0.2 0 0-0.2 0.1 0 0-0.1 1.5 0 0-0.2 0.3 0 0-0.1 0.4 0 0-0.2 0.6 0 0 0.2 0.5 0 0 0.1 2.8 0 0-0.1 0.1 0 0-0.2 0.2 0 0-0.1 0.1 0 0-0.3 0.2 0 0-0.2 0.3 0 0 0.2 0.1 0 0 0.1 0.1 0 0 0.2 1.1 0 0 0.1 0.3 0 0 0.2 0.1 0 0 0.1 0.2 0 0 0.2 0.4 0 0 0.1 0.2 0 0-0.1 0.7 0 0 0.3 0.1 0 0 0.1 0.3 0 0 0.2 0.2 0 0 0.1 0.1 0 0 0.3 0.2 0 0 0.3 0.1 0 0 0.1 0.2 0 0 0.2 0.7 0 0 0.1 0.9 0 0-0.1 0.7 0 0 0.1 0.2 0 0 0.2 1 0 0 0.1 0.7 0 0 0.2 0.6 0 0 0.1 0.3 0 0 0.2 0.3 0 0 0.1 0.3 0 0 0.2 0.4 0 0 0.1 0.3 0 0 0.2 1.2 0 0 0.1 0.2 0 0 0.2 0.1 0 0-0.2 0.5 0 0 0.2 0.2 0 0 0.1 0.9 0 0 0.1 0.5 0 0 0.2 0.1 0 0-0.2 0.2 0 0 0.2 0.3 0 0 0.1 0.3 0 0 0.3 0.1 0 0 0.2 0.4 0 0 0.1 0.2 0 0 0.3 0.1 0 0 0.2 0.2 0 0 0.1 0.1 0 0 0.3 0.2 0 0 1.2 0.1 0 0 0.1 0.3 0 0 0.6 0.2 0 0 0.2-0.2 0 0 0.1 0.2 0 0 0.5 0.1 0 0 0.6 0.2 0 0 0.5 0.1 0 0 0.9 0.2 0 0 0.2 0.1 0 0 0.6 0.2 0 0 0.1 0.2 0 0 0.3 0.2 0 0 0.2 0.1 0 0 0.1 0.2 0 0 0.1 0.3 0 0 0.2 0.3 0 0 0.1 0.3 0 0 0.2 0.1 0 0 0.1 0.2 0 0 0.2 0.1 0 0 0.1 0.2 0 0 0.2 0.1 0 0 0.1 0.2 0 0 0.2 0.1 0 0 0.1 0.1 0 0 0.3 0.2 0 0 0.2 0.1 0 0 0.1 0.2 0 0 0.2 0.3 0 0 0.1 0.1 0 0 0.1 0.2 0 0 0.2z m8.2-14.4l0 0.1 0.2 0 0 0.5-0.2 0 0 0.3-0.1 0 0 0.5-0.2 0 0 0.2-0.1 0 0 0.3-0.2 0 0 0.3-0.1 0 0 0.1-0.2 0 0 0.2-0.1 0 0-0.2-0.5 0 0 0.2-0.1 0 0 0.4-0.1 0 0 0.2-0.2 0 0 0.3-0.1 0 0 0.1-0.3 0 0-0.1-0.3 0 0 0.1-0.2 0 0 0.3-0.6 0 0-0.2-0.3 0 0-0.8 0.2 0 0-0.5 0.1 0 0-0.1 0.2 0 0-0.2 0.1 0 0-0.3 0.2 0 0-0.1 0.1 0 0-0.2 0.3 0 0 0.2 0.5 0 0-0.2 0.1 0 0-0.3 0.2 0 0-0.2 0.1 0 0-0.2 0.1 0 0-0.1 0.2 0 0-0.2 0.1 0 0-0.1 0.5 0 0-0.2 0.4 0 0-0.1 0.3 0z" id="ST05" name="Lobata">
  </path>
  <path d="M363.8 778.8l0.9-0.1 1.5-0.4 1.1-0.1 1.4 0.3 1.3 0.3 0.9 0.1 0.9 0.7 0.7 0.8 0.8 0.8 1.3 0.5 1.1-0.1 1.8 0.1 1.4-0.4 1.4-0.2 1-0.4 1 0 0.9 0 1.2 0.8 0.8 0.6 1.2 0.5 1 0.6-0.1 0 0 0.3-0.2 0 0 1.1 0.2 0 0 0.3 0.1 0 0 0.1 0.2 0 0 0.1 0.3 0 0 0.2 0.2 0 0 0.1 0.3 0 0 0.2 0.5 0 0 0.4 0.1 0 0 0.3 0.2 0 0 0.2-0.2 0 0 0.1 0.2 0 0 0.6 0.1 0 0 0.6 0.2 0 0 0.1 0.1 0 0 0.2 0.5 0 0 0.1 0.1 0 0 0.2 0.2 0 0 0.1 0.1 0 0 0.2 0.1 0 0 0.1 0.2 0 0 0.3 0.1 0 0 0.3 0.2 0 0 0.3 0.1 0 0 0.2-0.8 0.1-1.2 0.2-1.3 0-1.4 0.3-1.4 0.3-1.2 1.2-0.9 1-1.4 0.7-1.2 0-1.3 0.5-1.3 0.2-1.5-0.2-1.2 0.2-1.7 0-1.4 0.6-1.2 0.6-1.3 0.5-0.9 0.2-1.5 1.1-1.2 0.8-0.8 1-0.9 0.9-0.8 0.7-0.8 0.6-0.8 0.2-0.9 0-1-0.1-1-0.5-1-0.3-1.2-0.3-1.2-0.3-1.4 0.1-1 0-1.2 0.4-1.5 0.6-0.9 0.3-1 0.9-1 0.7-1 0.7-0.9 1.1-0.4 1-0.5 1.3-0.1 1.5 0 1.4 0.3 1.7 0.2 1.1 0.3 1.1 0.3 0.7 0.6 0.8 0.6 0.9 0.5 0.5 0.3 1 0.4 0.7-0.1 0.7-0.3 0.4-0.9 0.2-0.8-0.1-0.4-0.3-1.2 0-0.7 0.3-0.6 0.2-0.9-0.2-0.3-0.7-0.9-0.5-1.2-0.1-1.4 0.1-1.2 0-0.8-0.1-0.5-0.2-0.6-0.5-0.4-0.7-0.4-0.7-0.7-0.6-0.7-0.1-0.7 0.1-0.4 0.5-0.6 0.5-0.5 0.7-0.7 0.8-0.5 0.4-1 0.3-0.5-0.2-0.6-0.1-1.1 0-0.9 0.1-1 0.7-0.7-0.3-0.8-0.5-1.1-0.6-1.4-0.7-1.3-0.8-1.1-0.4-1-0.3-1.1-0.5-0.8-0.3-1.1 0-1.2 0-0.8-0.2-2.4-0.1-2-0.1-1.4-0.2-1.1 0-1.7-0.6-1.4-0.5-1-0.6-1-0.8-1-1.3-0.8-1.3-0.6-1.3-0.5-1.1-0.5-1.4 0-0.7 0.1-0.1 0.8-0.9 0.7-1 0.6-1.5 0.7-1.2 0.7-1.1 0.5-1.3 0.5-1.6 0.3-1.1 0.1-4.3 0.3-7.3 0.3-2.2 0.7-1.8 0.6-1.2 12.8 0.1 0.2-0.5 0.5-0.5 0.8-0.2 1-0.5 0.8-0.6 0.4-0.8 0.5-0.9 0.4-0.7 0.9-0.3 0.6-0.4 0.3-0.7 0.2-0.7 0.7-0.6 0.6-0.7 0.7-0.7 0.3-0.9 0.3-0.8 0.5-0.6 0.7-0.8 0.7-0.6 0.9-0.8 1-0.4 0.6-0.1 1.8 0.2 1.5 0.1 1.3 0.1 2.1 0.1 1.8-0.2 1.6-0.8 1.5-0.5 1.1-0.2 0.3 0.6-0.4 1.3-0.7 1.2 0 1.5 0.6 1.5 0.8 0.8 1 0.5 1.3 0.1 1.3-0.5 1-0.2 1.1-0.2 1.2 0.1 0.5 0.9-0.3 0.7-0.2 1 1.1 0.8 1.2 0.6 1 0.9 1 0.1 1.2 0.1 1.2-0.5 1.5 0.2 0.4 0.4 0.5 1 0.4 1.8 1 0.7 1.3 0.1 1.3 0 0.4-0.1z" id="ST06" name="Mé-Zóchi">
  </path>
 </g>
 <g id="points">
  <circle class="0.07175080137953144|6.510001015666073" cx="260.9" cy="909.1" id="0">
  </circle>
  <circle class="0.7579732144299935|7.01138885025581" cx="526.6" cy="545.5" id="1">
  </circle>
  <circle class="1.6157512307430713|7.4124991179276" cx="739.1" cy="90.9" id="2">
  </circle>
 </g>
 <g id="label_points">
  <circle class="Príncipe" cx="731.4" cy="91.4" id="STP">
  </circle>
  <circle class="Água Grande" cx="376.4" cy="774" id="ST01">
  </circle>
  <circle class="Cantagalo" cx="364.4" cy="819.5" id="ST02">
  </circle>
  <circle class="Caué" cx="302.8" cy="871.3" id="ST03">
  </circle>
  <circle class="Lembá" cx="262.3" cy="821.4" id="ST04">
  </circle>
  <circle class="Lobata" cx="337.4" cy="746.8" id="ST05">
  </circle>
  <circle class="Mé-Zóchi" cx="332.8" cy="790.4" id="ST06">
  </circle>
 </g>
</svg>