<?xml version="1.0"?>
    
<!--********* Copyright (c) 2024 Pareto Softare, LLC DBA Simplemaps.com ***************************************
************* Free for Commercial Use, full terms at  https://simplemaps.com/resources/svg-license ************
************* Attribution is appreciated! https://simplemaps.com *******************************************-->

<svg baseprofile="tiny" fill="#6f9c76" height="1000" stroke="#ffffff" stroke-linecap="round" stroke-linejoin="round" stroke-width=".5" version="1.2" viewbox="0 0 1000 1000" width="1000" xmlns="http://www.w3.org/2000/svg">
 <g id="features">
  <path d="M754.3 865.4l-0.2 0-14.9-0.8-2.2-0.5-1.6-1.2 0.2-3.3 0.6-3-0.2-2.5-1.3-1.4-4.2-0.8-9-0.4-4.2-0.8-3.4-1.3-1.2-3.1-0.3-2.6 0.5-10-0.7-1.8-1.7-1.4-16.3-6.5-5.1-1.4-4.7-0.6-4-0.9-2.8-2.4-9.4-22.9-3.2-3.6-4.9-1.8-4.3 0.2-15 4-4.9 0.4-5.1-0.5-4.7-1.6-4.7-2.2-23.1-14.2-12.7-9.7-9-10.1-4.9-4.2-4.2-2.6-3.2-0.8-3.7-1.3-2.6 0.8-2.9 1.9-3 0.7-2.9-1.1-3.6-3.2-6.8-7.4-2.8-4-10.7-19.5-1.4-4 1.6-5.1 1.8-3.7 6.6-10.5 3.3-7.6 9.3-11.5 2.5-4.4 1.2-4.6-1.2-6.8 0.1-4.3 0.9-4.1 4.1-7.9 1.6-3.8-2.7-2.6-3.6-1.9-29.8 1.1 0.5-11.5 3.3-13.5 12-29.8 1.8-2.9 2.1-2.3 2.1-1.6 30-14.2 3.7-3.3 2.1-4.9-1.2-20.8-2.9-17.6-2.1-5.9-4.4-7.6-0.5-3.2 2.6-2.3 4.7-1.7 4.4-2.4 3.3-2.7 0.3-4.7-0.3-3.1-1.6-6.2-0.2-3.3 0.6-4.4 2.6-5.6 0.7-13.5-0.7-4.7-2.2-7.4-0.1-2.4 1.1-1.7 6.7-3.9 3.1-2.3 1.6-2.5 0.1-4.9 0.8-4 3.5-4.4 9.9-8.7 5-5.6 4.8-6.6 3.3-8.6 1.9-9 1.2-14.4 4.2-14.9-2.3-4.8-0.8-3 0.6-3.6-1.3-10.9-10.6-33.5 3.7-5.6 1.4-14.1-5.5-94.7 1.6-4.9 7.9 3.2 3.1 0.6 3.2 0 3.2-0.7 5.6-2.3 2.8-0.8 3.1 0 3.4-1 2.7-1.2 3.6-5.2 45.1 29.4 14.8 4.5 14.7-3.5 29.5-14.7 13.4 12.8 14.8 7.9 34.2 8.9-6.7 18 2.7 20.6 6.1 21.2 3.5 19.8-1.8 15.3-17.1 45.4-2.5 16.7 6.4 59.2 3.9 16.1 24.3 49.2 5.3 47.1-1.8 148.5-8.3-3.7-12.6-12.8-8.3-1.6-34.5-0.2 1.1 17.3-8.7 51-8 47.5-9.1 53.1 1.1 35.6z" id="SZLU" name="Lubombo">
  </path>
  <path d="M652.8 156.8l-3.6 5.2-2.7 1.2-3.4 1-3.1 0-2.8 0.8-5.6 2.3-3.2 0.7-3.2 0-3.1-0.6-7.9-3.2-1.6 4.9 5.5 94.7-1.4 14.1-3.7 5.6-16.9 7.3-10.6 1.9-20.5 0.3-3.5 0.4-3.9 1.2-4.3 3.3-2.4 2.8-2.7 6.7-1.3 2-1.6 2.1-4.7 3.3-8.2 4-2.3 1.7-1.2 2.6-1.6 9.6-0.8 2.5-1 1.6-1.3 1.5-3.6 2.1-30 10.8-5.5 3-3 2.2-3.4 1.3-4.7 0.5-18-2.4-2.2 0.5-1.7 2-1.1 1.7-1 2.5-0.9 1-2 1.2-5.2 2.3-15.4 4.7-5 2.4-3.3 2.4-2.1 2.6-1.3 2.4-0.2 3 1.3 7.5 0.3 4.5-0.6 3.3-1.7 3-6 5.8-1.6 3-0.1 3 0.9 3.7 0.6 4.6-0.6 5.2-1.3 5.2-0.6 5.4 1.2 9.6 0.2 4.2-1.3 2.6-2.6 2-4.2 1.3-5.7-0.3-6.2-1.8-10.8-7.9-4.1-3.8-2.7-3.2-1.8-0.8-3-0.6-6.6-0.3-4.5 0.4-3.2 0.9-4.3 2-5.3-0.2-23.3-5.4-2.8-0.3-3.1-1.5-2.4-2.4-3.9-6-4.3-8.5-1.4-2.2-1.5-1.7-75.8-48.4-6.3-2.7 37.3-47.4 35-62.5 27.7-66.7 7.8-30.2 6.7-11.9 45.6-40.9 51.9-46.4 14.5-7.3 17.8-4.7 15.1-0.2 13.1 4.3 54.6 35.4 54.5 35.4 47.2 30.8 8.5 5.4z" id="SZHH" name="Hhohho">
  </path>
  <path d="M613 283.5l10.6 33.5 1.3 10.9-0.6 3.6 0.8 3 2.3 4.8-4.2 14.9-1.2 14.4-1.9 9-3.3 8.6-4.8 6.6-5 5.6-9.9 8.7-3.5 4.4-0.8 4-0.1 4.9-1.6 2.5-3.1 2.3-6.7 3.9-1.1 1.7 0.1 2.4 2.2 7.4 0.7 4.7-0.7 13.5-2.6 5.6-0.6 4.4 0.2 3.3 1.6 6.2 0.3 3.1-0.3 4.7-3.3 2.7-4.4 2.4-4.7 1.7-2.6 2.3 0.5 3.2 4.4 7.6 2.1 5.9 2.9 17.6 1.2 20.8-2.1 4.9-3.7 3.3-30 14.2-2.1 1.6-2.1 2.3-1.8 2.9-12 29.8-3.3 13.5-0.5 11.5-20.7-3.6-10.6 2.1-8.2 5.4-3.6 2.9-3 3.6-4.3 4.1-4.8 1.9-24.1 2.4-3.5 1.5-1.9 1.6-0.4 2.4-1.1 2.4-1.8 2.6-4.9 3.8-1.9 2.5-1.3 2.5-0.4 2.6-0.5 7.9-1.6 0.5-3.4-0.9-23.4-17.6-5.4-3.2-5.9-1.1-5 1.7-4.6 2.3-4.3 1-5.9 0-6.8 2-27.5 14.8-23 18.2-2.2 0.4-0.8-1.5 0.2-2.8 0.6-3.1 1.9-5.4 0.5-2.2-0.4-2.2-7.2-9.5-1.5-2.8-0.2-2.2 0.9-2.8 0.8-3.9 0-4.8-0.6-8.4-0.9-3.2-1.6-2.7-4.4-4.6-4.8-1.2-4.7 0-17.9 4.1-11.8 0.5-5.8-2.6-5.7-4.9-2.2-1.5-1.3 0-0.6 1.2-2.3 1.1-17.2 4.4-7.3 7.9-2.6-7.8-5.9 7.4-7.9 6.7-8.8 4.9-8.5 1.7-9 0.5-3.5-13.5-5.1-39.5-0.8-79.5-0.6-61.3 11.1-43 47.8-60.8 6.3 2.7 75.8 48.4 1.5 1.7 1.4 2.2 4.3 8.5 3.9 6 2.4 2.4 3.1 1.5 2.8 0.3 23.3 5.4 5.3 0.2 4.3-2 3.2-0.9 4.5-0.4 6.6 0.3 3 0.6 1.8 0.8 2.7 3.2 4.1 3.8 10.8 7.9 6.2 1.8 5.7 0.3 4.2-1.3 2.6-2 1.3-2.6-0.2-4.2-1.2-9.6 0.6-5.4 1.3-5.2 0.6-5.2-0.6-4.6-0.9-3.7 0.1-3 1.6-3 6-5.8 1.7-3 0.6-3.3-0.3-4.5-1.3-7.5 0.2-3 1.3-2.4 2.1-2.6 3.3-2.4 5-2.4 15.4-4.7 5.2-2.3 2-1.2 0.9-1 1-2.5 1.1-1.7 1.7-2 2.2-0.5 18 2.4 4.7-0.5 3.4-1.3 3-2.2 5.5-3 30-10.8 3.6-2.1 1.3-1.5 1-1.6 0.8-2.5 1.6-9.6 1.2-2.6 2.3-1.7 8.2-4 4.7-3.3 1.6-2.1 1.3-2 2.7-6.7 2.4-2.8 4.3-3.3 3.9-1.2 3.5-0.4 20.5-0.3 10.6-1.9 16.9-7.3z" id="SZMA" name="Manzini">
  </path>
  <path d="M519.6 634.3l29.8-1.1 3.6 1.9 2.7 2.6-1.6 3.8-4.1 7.9-0.9 4.1-0.1 4.3 1.2 6.8-1.2 4.6-2.5 4.4-9.3 11.5-3.3 7.6-6.6 10.5-1.8 3.7-1.6 5.1 1.4 4 10.7 19.5 2.8 4 6.8 7.4 3.6 3.2 2.9 1.1 3-0.7 2.9-1.9 2.6-0.8 3.7 1.3 3.2 0.8 4.2 2.6 4.9 4.2 9 10.1 12.7 9.7 23.1 14.2 4.7 2.2 4.7 1.6 5.1 0.5 4.9-0.4 15-4 4.3-0.2 4.9 1.8 3.2 3.6 9.4 22.9 2.8 2.4 4 0.9 4.7 0.6 5.1 1.4 16.3 6.5 1.7 1.4 0.7 1.8-0.5 10 0.3 2.6 1.2 3.1 3.4 1.3 4.2 0.8 9 0.4 4.2 0.8 1.3 1.4 0.2 2.5-0.6 3-0.2 3.3 1.6 1.2 2.2 0.5 14.9 0.8 0.2 0 0.3 11.1 1.3 42.9 2.9 8.4 3.5 6.3 2.6 6.2 1.5 6.6 0.3 7.6-46.2-0.6-49.4-0.7-75-1-56.8-0.8-34.5-7-52.9-18.3-39.4-13.7-18.2-6.3-45.2-15.6-7.7-5.3-8-8-24.6-37.3-52.8-48.1-11.5-20-2.2-14.4 5.3-22.7 0.6-14.4-3-11.4-5.5-8.5-14.7-15.7-6.8-10.5-8.9-26.3 7.3-7.9 17.2-4.4 2.3-1.1 0.6-1.2 1.3 0 2.2 1.5 5.7 4.9 5.8 2.6 11.8-0.5 17.9-4.1 4.7 0 4.8 1.2 4.4 4.6 1.6 2.7 0.9 3.2 0.6 8.4 0 4.8-0.8 3.9-0.9 2.8 0.2 2.2 1.5 2.8 7.2 9.5 0.4 2.2-0.5 2.2-1.9 5.4-0.6 3.1-0.2 2.8 0.8 1.5 2.2-0.4 23-18.2 27.5-14.8 6.8-2 5.9 0 4.3-1 4.6-2.3 5-1.7 5.9 1.1 5.4 3.2 23.4 17.6 3.4 0.9 1.6-0.5 0.5-7.9 0.4-2.6 1.3-2.5 1.9-2.5 4.9-3.8 1.8-2.6 1.1-2.4 0.4-2.4 1.9-1.6 3.5-1.5 24.1-2.4 4.8-1.9 4.3-4.1 3-3.6 3.6-2.9 8.2-5.4 10.6-2.1 20.7 3.6z" id="SZSH" name="Shiselweni">
  </path>
 </g>
 <g id="points">
  <circle class="-27.237251012907898|30.849630732226945" cx="190.9" cy="908.8" id="0">
  </circle>
  <circle class="-26.60514490913541|31.51687682736969" cx="534.3" cy="543.9" id="1">
  </circle>
  <circle class="-25.815012279419804|32.05067370348389" cx="809.1" cy="90.6" id="2">
  </circle>
 </g>
 <g id="label_points">
  <circle class="Lubombo" cx="709.6" cy="530.8" id="SZLU">
  </circle>
  <circle class="Hhohho" cx="436" cy="222" id="SZHH">
  </circle>
  <circle class="Manzini" cx="360" cy="553.1" id="SZMA">
  </circle>
  <circle class="Shiselweni" cx="452.5" cy="803.4" id="SZSH">
  </circle>
 </g>
</svg>