<?xml version="1.0"?>
    
<!--********* Copyright (c) 2024 Pareto Softare, LLC DBA Simplemaps.com ***************************************
************* Free for Commercial Use, full terms at  https://simplemaps.com/resources/svg-license ************
************* Attribution is appreciated! https://simplemaps.com *******************************************-->

<svg baseprofile="tiny" fill="#6f9c76" height="1000" stroke="#ffffff" stroke-linecap="round" stroke-linejoin="round" stroke-width=".5" version="1.2" viewbox="0 0 1000 1000" width="1000" xmlns="http://www.w3.org/2000/svg">
 <g id="features">
  <path d="M571.4 492.1l0 4.6 0.7 64 0.3 25.3-0.3 7 9.4 5.9 1.8 1.1 0.4 0.2 1.3 3.8 0.1 0.4-0.8 4-0.2 0.6 0 0.3-0.1 0.9-0.1 0-0.2 1.2-0.1 0.9 0.3 0.9 0.2 0.7 0.5 0.8 0.6 1 0.5 0.6 0.4 0.6 1.7 3.8 0.4 0.9 0.1 0.2 0.7 1.4 0.2 3.9-0.1 0.4 0 0.2-0.6 15.7 0 0.1 0 0.2 0 1.9 0 0.1-1.4 1-15.6 3.7-2.9-1.2-4.5-1.6-1.2-0.4-6-2.1-0.1-0.1-5.1 2.8-4.5 2.4-13.2 7.9-7.9 4.8-0.4 0-0.4 0-0.4 0.7-0.5 0.7-4.4-0.4-6.2 0.3-26.6-0.2-0.1 0-1.5 0-7.8 4.2-12.9 7.4-1.6 1.9-2.5 0-0.1 0-7.4 0.3-11.7 10-3.3 1.6-2.2 2.2 1.7 4.1-2.5-0.4-2.6-1.4-3.1 0.2-0.1 0-1.9-1.6-0.2-2.6-1.1-2.3-2.6-1.6-1.6-2.6-0.9-3.4-0.1-4.5-2.1-0.8-2.9-3.1-2.8-2.9-0.5-1.8-1.5-5.3-1.1-2.7-2.1-1.8-2.1-0.9-2.7-2.1 1.7-3.8 4.3-3.9 2.9-2.2 1.7-3 4.4-6.2-0.4-12.2 2-13.2 17.2-5.5 22.3-98.8 0.1 0 13.3 8.7 9.9 2.2 12.9 0.2 9.3-2.4 5.4-3.3 3.4-2.3 4-3.7 1.6-1.4 6-9 0.6-0.9 2.3-6.2 0.9-4.9 0.4-3.4 0.2-1.9-0.1-1.6-0.1-3.4 1.5-0.3 2-0.4 2.9 1.9 5.5 10 3.9 3.7 7.3 0.7 11.8 2.9 7 1.6z" id="TDBA" name="Batha">
  </path>
  <path d="M571.4 492.1l-7-1.6-11.8-2.9-7.3-0.7-3.9-3.7-5.5-10-2.9-1.9-2 0.4-1.5 0.3 0.1 3.4 0.1 1.6-0.2 1.9-0.4 3.4-0.9 4.9-2.3 6.2-0.6 0.9-6 9-1.6 1.4-4 3.7-3.4 2.3-5.4 3.3-9.3 2.4-12.9-0.2-9.9-2.2-13.3-8.7-0.1 0-3.9-5.1-3.8-7.1-37.3-17.6-7.4-3.5-0.1-0.1-0.4-0.2-18.1-8.2-32.5-15.4-9-4.8-9.5-5.1-9.7-5.2-3.9-2.1-3-1.6 2.7-3 0.1-2.9 0.8-1.5 54.5-105.9 123.2-0.3 6.7 9.1 15.6 1.1 0.4 0 27.1 29.7 6.3 6.9 38.8-0.7 1.7 4.8-4.5 54.4-3.3 15.9 9.3 25.7 9.5 26.2-6.1 5.5-4.7 4.3-0.8-0.5-2-1-5 0.8-4.6 1.3-3.8-0.8-8.4-5.4-2.9-0.8 0-0.1z" id="TDBO" name="Borkou">
  </path>
  <path d="M300.6 703.2l0-0.1 0.4 0 0.3-0.1 1.1-0.3 0.7-0.3 0.3-0.3 0.7-0.7 0.5-0.6 0.3-0.2 0.4-0.6 0.3-1.5-0.3-1.5-0.4-0.9-0.5-0.8-0.4-0.4-0.8-0.9-0.6-0.5-0.5-0.4-0.8-0.7-0.8-0.7-1.5-0.8-0.3 0-0.5-0.3 0.7-0.7 0.4 0 0.3 0 0.3 0 0.4-0.1 0.5-0.1 0.5-0.1 1.3-0.3 0.2 0 2.4-0.4 2.2-0.6 2.6-1 2.4-1.3 1.4-1.1 1.4-1.1 1.1-1.4 1.6 2.3 2.1 2.2 1.6 1.6 1.7 1.7 0.1 0.1 3-2.5 0.6-0.4 0.3-0.2 3.1-1.8 1.5-0.8 1.3-0.8 7.6 0.3 0.5 0 4.3 0 2.1-0.1 1.5 0 4.3 0.7 13.5-1.8 8.1 2.8 2.3 0.5 9.5 3.7 1.6 1.8 1.6 3.6-0.6 5-0.3 2.7 1.9 3.5 2.6 1.6 0.3 1.7 0.9 2.8 0.7 5.4 1.8 2.8 2.6-0.4 6.2 0.9 3.7 2.2 2.8 3.4 1.7 0.8 3.8 1.9 5.2 2.6-1.2 8.8-0.1 0.5 0 0.4 0 0.2-0.2 2.2-0.1 1.3 1.3 8.7 0.9 2.6 0.8 5.2 0.2 7.8-0.6 6.9-1.4 5.4 3.1 2 3.6 0.9 5.1 3.9-3 15.5 1.7 0.7 0.2 0.1 1.4 1.5 1.9 1.9 0.6 3.8 2 2.9 0.1 0.4 0.1 4.1 0 0.5 1.5 1 0.1 0.1 0.3 0.3 2.8 2.9-7 7.3 0 0.1-0.1 0.1-2.1-2.1-1.7-1.7-1.8-1.3-1.5-1.1-0.1-0.1-4.3-2.2-3.2-0.1-3.6-0.7-2.1-0.9-1.6-0.8-1.3-2.7-3.6-0.6-3.2-0.8-3.7-0.2-1.6 0.2-0.7-1.5-0.9-0.5-1-0.5-0.5-0.2-2-0.5-2.2-0.6-1.8 0.2-0.1-0.3-0.3-0.9-0.6-0.1-0.7-0.1-0.4-1-1.3-0.7-0.9-0.1-0.3 0-0.4 0-0.5-0.1-0.7-0.1-0.9-1.3 0.1-1.3-0.5-0.9-0.7-0.7-0.4-1.4 0-0.6-0.1-0.6 0.2-1.1 0.1-1.2-1.1-0.1-1-1.6-5.5 3.6-13.8-0.1-1.9-0.4-0.5-1-0.7-2.1-1.2-0.9-1.3-1.8-0.3-3.8-0.1-4.6 1.5-13.4-0.5-1.9-0.8-0.9-0.4-0.6-3.8 0.9-2.8-1.5-3.5 0-1.4 0-1.9-0.6-1.7-0.3-5.2-1.7-2.3-2-0.2-0.1-0.2-0.3-0.6-0.3-0.7-0.3-0.1-0.1-1.2-1-1.9-0.2-3.8-2.1-0.3-1.3-0.3-0.6-1.5-1.8-1.7-0.8-2-2.2-0.9-3-0.7-3.7-0.6-1.7-9.1 0.1-8.2 4.9-2.6 1.6 0.2-0.5 0-0.1 0.1-0.1 0-0.3 0-0.1-0.1-0.5-0.1-0.5-0.2 0-0.3 0 0-0.1-0.1-0.1 0.1-0.2 0.6-0.6 0-0.1-0.1-0.3 0-0.3-0.1-0.1 0.3-0.2 0-0.2 0-0.1-0.2-0.2 0-0.1-0.1-0.1 0.1-0.3-0.1-0.3-0.2-0.2-0.1-0.2 0.2-0.3 0-0.1 0.2-0.2 0-0.1 0-0.1-0.1-0.2-0.3-0.2-0.1-0.1 0.1 0 0.1-0.2 0.6-0.3 0.1-0.1-0.1-0.1 0-0.1-0.4-0.4-0.1 0 0-0.1-0.1-0.1 0-0.1 0-0.1 0.1-0.7 0.1-0.4-0.1-0.1 0-0.1-0.3-0.3 0-0.3 0.1-0.1 0.1 0 0.3-0.1 0.1-0.2 0-0.1-0.3-0.5 0.1-0.1 0.1-0.1 0.2-0.1 0.5-0.2 0.2-0.2 0-0.2-0.2-0.5 0.1-0.3 0-0.1 0.1-0.5 0.1-0.4 0-0.1 0.1-0.1 0.2-0.2 0.5-0.4 0-0.1 0.1-0.1-0.1-0.4-0.1-0.1 0-0.1-0.3-0.7-0.1-0.3-0.1 0 0-0.1 0-0.1 0.1-0.6 0.1 0 0.2-0.3 0.3-0.4 0.1-0.4 0.3-0.2 0-0.1-0.1-0.2-0.1-0.2 0.4-0.3 0.1 0 0.1-0.2 0-0.2 0.1-0.3 0.1-0.2 0.1-0.1 0.2 0 0.3-0.2 0-0.2-0.1-0.1 0-0.1 0-0.2 0.1-0.1 0.2-0.1 0.1 0 0-0.1 0.1-0.2 0-0.2 0-0.1 0.2-0.1 0.3-0.1 0.3-0.2 0.4-0.2 0.1-0.1 0.1-0.1 0-0.3 0-0.1 0.2-0.5 0.1-0.1 0.1-0.3 0.1-0.1 0-0.1 0.1-0.1-0.1-0.4 0-0.3 0-0.2 0-0.2-0.3-0.4-0.4-0.3-0.8-0.3-0.5-0.2-0.1 0 0-0.1-0.1-0.1-0.2-0.3 0.1-0.2 0.1-0.1 0.1-0.2 0-0.3 0-0.4-0.1-0.2-0.1 0-0.4-0.2 0-0.1-0.1-0.1-0.1-0.4 0-0.1-0.3-0.4-0.1-0.1-0.1-0.3 0.1-0.1 0.1-0.2 0.1-0.4 0.1-0.1-0.1 0 0-0.1-0.3-0.2-0.1-0.1 0-0.1 0-0.2 0-0.1 0-0.2 0-0.3 0-0.1 0.2-0.1-0.2-0.2-0.2-0.3-0.1 0-0.1 0-0.1-0.2 0-0.2 0-0.1 0-0.1-0.1 0 0-0.2 0-0.1 0-0.3 0-0.1 0.2-0.5 0.2-0.2 0.1-0.1 0.2 0 0.1 0 0.2 0 0.3 0.2 0.1 0 0.1 0 0.1 0.1 0.1 0 0.1 0 0.2-0.2 0-0.1 0-0.1-0.2-0.8-0.1 0-0.1-0.1-0.3-0.1-0.2-0.1-0.2-0.2-0.1 0 0-0.1 0-0.1 0-0.1 0-0.1 0.1-0.1 0-0.1 0.3-0.2 0.1-0.1 0.2-0.1 0.4 0 0.1 0 0.1 0 0.1-0.1 0.1 0 0.1-0.1 0.1 0 0.2-0.2 0.1-0.2 0-0.2 0-0.1 0.1-0.1-0.1-0.1-0.1-0.2-0.4-0.3-0.1-0.1-0.4-0.4-0.1-0.3-0.1-0.3 0-0.5 0-0.4 0-0.1 0-0.1 0-0.1 0-0.1-0.1-0.1-0.1 0-0.2-0.1 0-0.1-0.4-0.3-0.2-0.2-0.1 0.1 0.1 0.4-0.1 0.2 0 0.1 0 0.1-0.1 0.1-0.2 0.1-0.1 0-0.3-0.1-0.1-0.1-0.1-0.2-0.2-0.1 0-0.1-0.2-0.4 0-0.1-0.1-0.7 0-0.1 0-0.3-0.1-0.2-0.2-0.4-0.1-0.3 0-0.1 0-0.1 0-0.2 0.1-0.3 0.1-0.1 0.1-0.1 0.1-0.1 0.1-0.1 0.2 0 0.1-0.1 0.1-0.1 0.1-0.1 0.2-0.3 0-0.4-0.1-0.5-0.5-1 0-0.1-0.1-0.2 0.1-0.2 0.1-0.1 0.1 0 0.3-0.1 0.4 0.2 0.4 0 0.1-0.1 0.1-0.1 0-0.1 0-0.1 0.1-0.1 0-0.1 0.2-0.5 0-0.1z" id="TDCB" name="Chari-Baguirmi">
  </path>
  <path d="M437.8 695.7l-1.7-4.1 2.2-2.2 3.3-1.6 11.7-10 7.4-0.3 0.1 0 2.5 0 1.6-1.9 12.9-7.4 7.8-4.2 1.5 0 0.1 0 26.6 0.2 6.2-0.3 4.4 0.4 0.5-0.7 0.4-0.7 0.4 0 0.4 0 7.9-4.8 13.2-7.9 4.5-2.4 5.1-2.8 0.1 0.1 6 2.1 1.2 0.4 4.5 1.6 2.9 1.2 3.9 3 2.5 2.5 3.7 2.1 0.7 2-2.1 2-1.7 0.1-3.3 6.3 2.2 4.6-3.9 2.1-4.4 6.1-3.4 7.8-1.9 7.1-0.8 2.2-0.1 0 1 2.2-8.5-0.7-9.3-1.7-4.6-1.5-1.7-0.7-8.3 7.8 1.5 7.1-4.6 7.2-2.3 4.9-6.9 2.2-1.8-5-8.4-0.2-1.5 12 0.2 2.1 0.3 2.1 1 3.9 3.5 1 1.9 2.3 3 1.5 1.5 0.6 2.6 1 3.4 1.7 0.9 0.1 1 0.2 0.6 0.1 1.2 1.4 2.9 1.1 5 1.7 4 3.1 5 0.8 3.2 1.1 1.6 0.6 2 0.1 0.6 3.3 1.7 1.7-1.6 2.1 1 8.7-1.3 7.2-0.1 0.1-0.2 0.2-0.3 0.2-0.5 0.4-3.4 2.5-0.4 0.5-1.5 2.2-2.8 0.2-2-1.2-3.6 1.5-2.2 2.4-0.5 2.4-2 2.1 0.6 2.5-1.9 1.7-2 2.5-2.4 0.8-1.3 1.2-0.1 0.1-0.4 2.2-2.5-0.5-0.2 0.3-1.1 1.2-0.6 2.5-2.5 4.6-0.3 0-2.2 0.7-11.5 0-1.7 6-3.1 0.2-5.7-2.4 0.5-5.9-8-8.9-3.2-1.4-3-2-2.2 0.4-2.9-1.2-2.3-1.7-2-1.6-2.5-1.4-3.3-1-2 0.8-2.9-1.7-2.8-0.9-5.4-5.6-7.6 1.2-9.9 1.4-5.1-3.9-3.6-0.9-3.1-2 1.4-5.4 0.6-6.9-0.2-7.8-0.8-5.2-0.9-2.6-1.3-8.7 0.1-1.3 0.2-2.2 0-0.2 0-0.4 0.1-0.5 1.2-8.8 2.3-4 2.6-2.4 3.4-2.5 3.2-2.3 4-0.4 3.4 0-2.5-6.5-3.1-4.2-1.8-2.2-0.2-2.2 1.9-5 1.2-4.8z" id="TDGR" name="Guéra">
  </path>
  <path d="M270.1 648.2l16.8-1 5.3-0.4 4.7 0.2 5.5-0.6 2.9 1.9 0.6 0.6 2.6 1.6 3.7 2.2 3.6 1.1 1.8 1.1 1-0.2 1.4-1.5 2.3-1.4-0.2-3-1.1-2.4 0.5-1.4 0.2-1.8 0.5-1.1-0.1-1.6 0.4-1.6 1.4-0.4 1-3.7 0.7-1.7 0.3-0.9 1 0.5 10.2 4.9 5.9 0.5 2.6-1 3 2.8 1.4 2.4 0.4 2 6 0.7 3.9 0.5 1.9-1 2.6 0.3 5.4-0.9 3.5 0.4 2.4 0.6 1.3-1.2 3-0.8 11.7-1.2 1.4-1.1 3.2-1.5 3 1.6 5.3-1.6 1.4-1.1 2.2 1.1 2 0.2 3.3 1.9-1.7 3-2.9 2.2-4.3 3.9-1.7 3.8 2.7 2.1 2.1 0.9 2.1 1.8 1.1 2.7 1.5 5.3 0.5 1.8 2.8 2.9 2.9 3.1 2.1 0.8 0.1 4.5 0.9 3.4 1.6 2.6 2.6 1.6 1.1 2.3 0.2 2.6 1.9 1.6 0.1 0 3.1-0.2 2.6 1.4 2.5 0.4-1.2 4.8-1.9 5 0.2 2.2 1.8 2.2 3.1 4.2 2.5 6.5-3.4 0-4 0.4-3.2 2.3-3.4 2.5-2.6 2.4-2.3 4-5.2-2.6-3.8-1.9-1.7-0.8-2.8-3.4-3.7-2.2-6.2-0.9-2.6 0.4-1.8-2.8-0.7-5.4-0.9-2.8-0.3-1.7-2.6-1.6-1.9-3.5 0.3-2.7 0.6-5-1.6-3.6-1.6-1.8-9.5-3.7-2.3-0.5-8.1-2.8-13.5 1.8-4.3-0.7-1.5 0-2.1 0.1-4.3 0-0.5 0-7.6-0.3-1.3 0.8-1.5 0.8-3.1 1.8-0.3 0.2-0.6 0.4-3 2.5-0.1-0.1-1.7-1.7-1.6-1.6-2.1-2.2-1.6-2.3-1.1 1.4-1.4 1.1-1.4 1.1-2.4 1.3-2.6 1-2.2 0.6-2.4 0.4-0.2 0-1.3 0.3-0.5 0.1-0.5 0.1-0.4 0.1-0.3 0-0.3 0-0.4 0-0.7 0.7-1.5 0-0.7 0-3 0.5-1.8 0.9-0.2 0.2 0-0.1-0.3-0.3-0.2-0.2-0.1-0.1-0.1-0.4 0-0.6 0.3-1 0.1-0.6 0-0.1 0-2 0.1-1.8 0-0.2 0.1 0 0-0.3 0-0.2 0-0.2-0.1-0.4 0.1-1.5 0.1-0.7-0.1-0.3-0.1-0.3-0.2-0.5-0.6-0.8-0.2-0.5-0.1-0.2-0.2-0.8-0.1-0.9 0-0.1-0.1-0.2-0.1-0.1-0.2 0-0.1 0-0.2 0.3-0.2 0.3-0.2 0.1 0.1 0.1-0.1 0-0.3-0.3-0.3 0 0-0.1 0-0.6 0.1-0.4 0.3-0.6 0.1-0.3 0.2-0.3-0.5-2.1-1.3-4.7-0.4-0.9-0.2-0.3-1.8 0.4-1-0.1-0.3-0.8-0.1-0.7 0-0.1-0.1-0.3-0.1-0.4-0.2-0.3 0-0.2-0.1 0-0.2-0.1-0.1 0-0.1 0-0.1 0-0.3 0.2-0.1 0.1-0.3 0.2-0.7 1-0.1-0.1-0.1 0 0-0.1-0.1 0-0.3-0.5 0-0.3 0-0.1 0.1-0.1 0.2-0.3 0.1-0.2 0.3-0.3 0.1-0.1 0.2-0.6-0.4-0.6-0.3-0.2-0.3-0.2-0.3 0-0.1 0-0.1 0.1-0.1 0-0.8 0.2-0.5 0-0.4 0-0.5-0.3-0.1-0.1-0.9-0.7-0.1 0-0.4-0.1 0 0.1-0.1-0.2-0.2-0.3 0.2-0.6 0-0.3 0-0.2-0.2-0.1 0-0.1-0.2 0.2-0.3 0.3-0.1 0-0.4 0.1-0.9 0.7-0.1 0-0.1-0.3-0.2-0.3-0.1-0.5 0-0.2-0.1-0.1 0-0.1-0.2-0.1-0.1 0-0.3 0-0.1 0-0.4-0.2-0.2-0.3 0-0.3 0-0.1 0-0.3 0.1-0.3 0.1-0.5 0.3-0.6 0.1-0.2 0.1 0 0.1-0.1 0.1-0.4-0.1-0.4-0.1-0.5 0-0.3 0-0.3-0.1-0.1-0.1-0.3-0.1-0.3-0.1-0.2 0.1-0.1 0.1-0.2 0-0.1 0.1 0 0.2-0.2 0.1-0.1 0-0.1 0-0.2-0.1-0.3-0.1-0.3-0.1-0.2-0.1-0.2 0-0.1-0.4-0.2-0.2-0.7 0.1-0.2 0-0.1 0.1-0.2 0-0.2-0.1-0.4-0.3-0.2-0.2-0.1-0.1-0.2-0.2-0.2-0.2-0.3-0.3-0.3z" id="TDHL" name="Hadjer-Lamis">
  </path>
  <path d="M320.8 429.3l3 1.6 3.9 2.1 9.7 5.2 9.5 5.1 9 4.8 32.5 15.4 18.1 8.2 0.4 0.2 0.1 0.1 7.4 3.5-46.2 58.5-12.6 26-4.9 10.3-1 2.1-4.1 3-6.9 5.3-9 8.1-0.7 8.7-0.2 7.2 2.4 0.8 6.3-0.2 0.6-1.1 3.1 0.3 3 0.3 0.5 1.2 0 2.4-0.3 0.6-0.3 0.8-0.4 2.5 0.9 3.8 1.5 2.7 0.8 2.7 0.1 6.3-0.4 7.4-1 1.9-2.6 1-5.9-0.5-10.2-4.9-1-0.5-1.2-3.6-1.1-2-1.5-1.4-1.2-3.2 0.1-2.9 0.7-2.2 2.3-2.9-0.2-2-1.6-0.9-1.5-2.1-0.1-2.5-0.8-1.5-2.5 0.1-10.7 1.4-8.2 0.8-7.8 1-5-0.7-2.9 2.6-0.8-1.5-0.3-0.5-3.9-6.9-2.8-5.1-3.9-4.8-1.2-1.5-1-1.3-3.6-5.4-4.2-0.9-2.8-0.6-2.2-3.8-1.7-0.1-1.5 0-2.9-4.6-3.4-0.6-0.7-3.8-3-3.7-1.6 0.1-1.5 0.1-2.2-3.1-3.8 0.1-4.4 0.2-2.1 0.1-0.7-0.9-3.8-0.8 0.1-0.1 0.1-0.1 0.1 0 0.4-0.3 0.7-0.5 0.5-0.4-0.1-0.7 0-0.4-0.1-0.6 0-0.4 0-1 0-0.2 0.1-0.2-0.2-0.1-0.6-0.6-0.1-0.2 0-0.1 0-0.1 0-0.2 0.5-0.5 0.4-0.3 0.5-0.3 0.2-0.3 0-0.1 2.2-2 0.3 0.1 0.9 0.3 0.1-0.1 0-0.1 0.6-0.4 0.4-0.1 0-0.1 0.2-0.1 0.2-0.1 0.1-0.2 0.1-0.1 0.6-0.4 0-0.1 0.1-0.2-0.1-0.8 0-0.1-0.1-0.2-0.5-1.9-0.3-1-0.1-0.3 0-0.6-0.1-0.4 0.1-0.5-0.1-1 0-0.2 0-0.2 0-0.3 0-0.2 0-0.1 0.1-0.2 0.2-0.4 0-0.1 0-0.4 1.5-3.5 0.2-0.2 0.2-0.4 0.5-1.3 0.2-0.7 0.1-0.1 0.1-0.1 0.1-0.2 0.1-0.3 0-0.3 0.2-0.2 0.4-0.8 0-0.2 0.2-0.3 0.2-0.3 0.1-0.2 1.8-2.1 0.3-0.2 0-0.1 0.5-0.5-0.1 0 0.5-0.5 0.3-0.4 0.1-0.2 0.2-0.2 0.4-0.3 0.6-0.8 0.8-0.9 0-0.1 0.6-0.9 0.9-1.2 0.3-0.6 0.3-0.3 0-0.1 0.2-0.3 0.1-0.1 0.3-0.5 0.5-0.7 0.4-0.5 0.1-0.3 0.5-0.7 0-0.1 0-0.1 0.2-0.1 2.1-3.1 0.2-0.2 0.2-0.4 0.2-0.2 0.2-0.2 0.1-0.3 0.1-0.2 0.4-0.5 0.3-0.4 0.2-0.4 0.1-0.1 1.2-1.7 0.7-1 1.4-2.1 1.1-1.5 0.5-0.9 0.4-0.6 0.4-0.5 0.2-0.4 0.1-0.2 0.1-0.1 0.2-0.3 1.9-2.6 0.1-0.1 0.1-0.1 0.2-0.3 0.9-1.3 0.4-0.2 0-0.1 0.1-0.1 0.2-0.4 0.2-0.3 0.1-0.3 0.4-0.4 0.2-0.4 1.6-2 1.5-2.2 0.1-0.1 0.3-0.2 1.3-1.4 1.2-1.4 0.3-0.3 0.5-0.5 2.8-2.9 0.6-0.6 0.5-0.5 0.7-0.8 0.3-0.3 0.2-0.2 0.5-0.5 1.6-1.7 0.5-0.5 0.9-0.8 0.5-0.7 0.1-0.1 0-0.2 0.7-0.6 0.2-0.4 0.5-0.5 0.5-0.6 2.1-1.9 2.3-2.6 0.5-0.6 1.6-1.7 1.3-1.5 0.6-0.6 0.2-0.2 0.2-0.3 0.9-1 4.4-4.7 0.2-0.4 0.2-0.2 1.9-2.2 2.4-2.6 0.3-0.4 0.2-0.1 4.8-5.3 2.2-2.3 2.7-3 0.7-0.7 0.9-1 0.1-0.2 0.8-0.8 0.6-0.6 0.8-0.9 0.1-0.2 0.5-0.5 0.3-0.4 1.1-1 1.8-2 0.1-0.2 1-1.1 0.9-0.9 4.8-5.3 0.2-0.2z" id="TDKA" name="Kanem">
  </path>
  <path d="M222.7 560.9l3.8 0.8 0.7 0.9 2.1-0.1 4.4-0.2 3.8-0.1 2.2 3.1 1.5-0.1 1.6-0.1 3 3.7 0.7 3.8 3.4 0.6 2.9 4.6 1.5 0 1.7 0.1 2.2 3.8 2.8 0.6 4.2 0.9 3.6 5.4 1 1.3 1.2 1.5 3.9 4.8 2.8 5.1 3.9 6.9 0.3 0.5 0.8 1.5 2.9-2.6 5 0.7 7.8-1 8.2-0.8 10.7-1.4 2.5-0.1 0.8 1.5 0.1 2.5 1.5 2.1 1.6 0.9 0.2 2-2.3 2.9-0.7 2.2-0.1 2.9 1.2 3.2 1.5 1.4 1.1 2 1.2 3.6-0.3 0.9-0.7 1.7-1 3.7-1.4 0.4-0.4 1.6 0.1 1.6-0.5 1.1-0.2 1.8-0.5 1.4 1.1 2.4 0.2 3-2.3 1.4-1.4 1.5-1 0.2-1.8-1.1-3.6-1.1-3.7-2.2-2.6-1.6-0.6-0.6-2.9-1.9-5.5 0.6-4.7-0.2-5.3 0.4-16.8 1-0.1-0.2-0.6-0.9-0.1-0.2-0.4-0.5-0.8-1.2-0.2-0.3 0-0.1-0.3-0.4-0.5-0.6-0.4-0.7-0.3-0.5-0.4 0-0.1 0-0.1 0-0.4 0-0.8 0-0.5-0.4-18.2 0.2-0.1-0.1-0.1-0.2-0.3-0.2-0.2-0.4-0.3-0.2 0-0.2-0.2-0.2-0.6-0.9-0.2-0.1 0-0.1-0.1-0.2-0.1-0.2-0.8-1.1-0.3-0.5-0.2-0.3-0.3-0.4-0.6-0.8-0.1-0.2-0.2-0.3-1.1-1.4 0-0.2-0.1-0.2-0.1 0 0-0.1-0.5-0.5-0.3-0.5-0.5-0.7-0.9-1.3-0.2-0.2-0.1-0.3-1.3-1.8-0.9-1.2-0.3-0.6-0.2-0.2-0.5-0.8-0.2-0.3-0.1-0.2-0.2-0.2-0.1-0.1-0.2-0.3-0.4-0.5-0.3-0.6-0.1-0.1-2.1-3.1-0.2-0.5-0.3-0.5-0.4-0.4-0.1-0.1-0.1-0.2-0.1-0.3-0.4-0.3-0.6-1-0.1-0.3-0.3-0.2-0.2-0.4-0.8-1.2-1.2-1.7-0.2-0.5-0.2-0.2-0.3-0.3-0.1-0.2-0.4-0.5-0.6-0.8-0.3-0.4-0.3-0.5-0.2-0.2-0.1-0.2-0.2-0.1 0-0.2-1.3-1.8-0.2-0.5-0.1-0.2-0.1-0.7-0.2-0.6 0-0.1-0.1-0.4-0.1-0.5 0-0.1-0.2-0.8-0.1-0.4-0.1-0.4-0.1-0.6-0.7-3.1 0-0.1-0.4-1.5-0.2-1.3-0.2-0.8-0.1-0.2 0-0.1-0.4-1.7-0.6-2.7-0.1-0.5 0-0.1-0.1-0.2 0-0.2-0.1-0.8-0.2-0.9-0.2-0.8-0.2-0.6-0.3-1.7-0.1-0.2-0.4-2-0.1-0.5-0.1-0.3-0.1-0.4-0.1-0.6-0.6-2.3-0.5-2.7-0.4-1.7 0-0.2-0.1-0.5-0.3-0.8 0-0.1-0.1-0.3-0.2-1.1-0.1-0.2 0-0.5-0.3-0.9-0.1-0.2 0-0.1-0.1-1.4-0.1-0.2-0.1-2 0-0.1 0.1-0.3 0-0.1 0.2-0.4 0.4-0.5 0.4-0.4 0.3-0.1 0.3-0.2 0.8-0.3 0.7-0.3 0.7-0.2 0.7-0.3 0.8-0.3 0.8 0.1 0.3 0.1 0.4 0 1.8-0.5 0.4-0.2 0.2-0.1 0.5-0.3 0.3-0.2 0.1-0.1z" id="TDLC" name="Lac">
  </path>
  <path d="M373.8 862.9l0.5 0.8 0.1 0.2 0.5 0.7 0.1 0.2 0.8 1.2 1.3 1.9 0.9 1.8 1.6 0.3 0 0.2 0.1 0.1 0.1 1.1 0.5 0.7 1.1-0.4 0.4 1.1 0 0.1 0.4 0.3 0.4 0.4 0.4 1.4-1.1 1.4-0.9 2.4-2 2.9-1.6 1.8-2.3 1-2.4 0.6-1.7 1.3-0.3 0.5-0.5 0.6-0.1 0.1 0 0.1-0.4 0.8-0.1 0-0.5 0-1.6-0.2-2.1-0.1-3.9 1.5-4.6 1.4-0.1 0.1-1.2 1.1-0.8 0.8-0.2 0.2-0.8 0.3-0.9 0.3-2.7 1.2-0.1 0.5-0.2 1-1.5 0.8-0.2 0.2-0.3 0.2-1.9 1.4-3 1.4-1.6 1.8-0.6 2.2-1.1 1.6-1.3-0.1-0.3 0-0.3 0-2.1 0.1-1.5 0.2-0.9 0-2 1.1-0.6 0.3-0.8 0.5-0.6 0.5-0.1 0-0.2 0.2-0.1 0-0.1 0-0.5 0-0.3 0-0.4 0.1-1.5 0.6-1.3-0.1 0.4-0.9-0.5-0.7-0.3 0-0.9 0.4-0.8 0.2-0.1-0.4 0-0.3-0.1-0.2 0-0.6 0-0.5 0-0.1-0.8-0.6-1-0.7-0.3-0.8-0.2-0.5-0.5 0.1-1 0.2-1.8-0.4-2.3-1.4-1.1-1.3-1.4-1-0.1 0-0.3-0.2-0.3-0.2-0.9-0.4-0.8-0.2-0.2 0.1-0.2-0.5-0.2-0.7-0.2-0.7-0.1-0.3 0.5-2 0-2 0.9-2.1 0.8-2.8 0.8-2.1 0.4-0.5 3.2-2.8-0.1-3.4 0.1-2.7 0.2-2.1 0.2-1.6 1.6-2.8-0.4-2.5 3-1.6 7.2 2.1 1.6-0.5 2.7-1.6 3.3 0.6 3.6 0 2.2 0.7 2.2-0.8 1.9 0 1.9-0.5 1.4-2.2 0.2-0.7 0.1 0 1.3-0.8 3.3 0 2.9 1.7 1.3 0.5 0.6 0.3 1.4 0.2 1.6-1 0.8-1.3 0.7-1.8 1.4-0.6 0.3-0.1 1.7-0.4 0.5-0.3 2.7-2.5 1.6-1.1 0.9 1.9 1.7 1.6 0.1 1.7 0.7 1.8z" id="TDLO" name="Logone Occidental">
  </path>
  <path d="M309.5 899.2l0.2-0.1 0.8 0.2 0.9 0.4 0.3 0.2 0.3 0.2 0.1 0 1.4 1 1.1 1.3 2.3 1.4 1.8 0.4 1-0.2 0.5-0.1 0.2 0.5 0.3 0.8 1 0.7 0.8 0.6 0 0.1 0 0.5 0 0.6 0.1 0.2 0 0.3 0.1 0.4 0.8-0.2 0.9-0.4 0.3 0 0.5 0.7-0.4 0.9 1.3 0.1 1.5-0.6 0.4-0.1 0.3 0 0.5 0 0.1 0 0.1 0 0.2-0.2 0.1 0 0.6-0.5 0.8-0.5 0.6-0.3 2-1.1 0.9 0 1.5-0.2 2.1-0.1 0.3 0 0.3 0 1.3 0.1 1.1-1.6 0.6-2.2 1.6-1.8 3-1.4 1.9-1.4 0.3-0.2 0.2-0.2 1.5-0.8 0.2-1 0.1-0.5 2.7-1.2 0.9-0.3 0.8-0.3 0.2-0.2 0.8-0.8 1.2-1.1 0.1-0.1 4.6-1.4 3.9-1.5 2.1 0.1 1.6 0.2 0.5 0 0.1 0 0.4-0.8 0-0.1 0.1-0.1 0.5-0.6 0.3-0.5 1.7-1.3 2.4-0.6 2.3-1 1.6-1.8 2-2.9 0.9-2.4 1.1-1.4-0.4-1.4-0.4-0.4-0.4-0.3 0-0.1-0.4-1.1-1.1 0.4-0.5-0.7-0.1-1.1-0.1-0.1 0-0.2-1.6-0.3-0.9-1.8-1.3-1.9-0.8-1.2-0.1-0.2-0.5-0.7-0.1-0.2-0.5-0.8 2.2-0.8 4.2-1.1 1.5 0 1.4 0.2 1.5 1.3 0.5 0.4 1.1 0.7 1.7-0.4 1.5 0.7 0.1 0 0 0.1 3.2 1.5 4.5 0.4 7.2 0.8 1.3-0.3 0.2 0 0.9-0.2 5.6-1.1 0.6 3.3 0.3 2.6 0.1 2.6 0 0.1 0 0.1 0 2-0.2 2.2-0.3 4.6-3.7 5-1.6 2.2 3.4 3.5 1.2 1.3 0.8 1.3 0.8 1.4 7.4 11-2.6 4.5-1.8 3.2-3.1 0.6-2.7 0.8 5 9.3 1.5 3 2 3.6 0.3 0.5 0.1 0.2-1.1 0.4-0.9 0.6 0 0.1-0.7 0.7-0.4 0.6-0.1 1-0.4 0.3-0.4-0.1-0.5 0.1-1 0.9-1.9 2.3-1 1-0.1 0-0.2-0.1-0.2 0-0.3 0-0.2-0.1-0.1-0.1-0.3 0-0.1 0.1-0.1 0.2 0 0.1-0.5-0.2-1-0.4-0.8 0.6-0.2 0.5 0 0.5-0.1 0.3-1.7-0.3-0.6 0-0.5 0.4-0.4 0.6-1-0.1-2.4 0.4-2.1 0.6-0.8 0.5-0.6 0.7-0.4 1.1 0 0.4 0.3 0.2 0.2 0.3-0.2 0.4-0.1 0.1-0.6-0.1-0.2 0-1.2 1-0.1 0.1-0.1 0.1-0.1-0.2-0.1-0.2-0.4-0.2-0.2-0.3 0-0.1 0.1-0.7-0.2-0.4 0-0.1-1.1-1.2-0.3-0.2-0.4-0.3-0.1-0.1-0.3-0.1-0.1-0.1-0.1-0.1-0.1-0.1 0-0.2-0.5-0.2-0.2-0.2-0.1-0.3-0.2-0.2-0.2-0.3-0.1 0-0.3 0.1-0.4-0.1-0.2 0-0.1 0-0.2 0-0.2 0-0.1 0-0.2 0-0.2 0-0.3-0.1-0.2-0.5-0.1-0.1-0.4-0.1-0.2-0.2-0.1-0.2 0-0.2 0-0.3 0-0.3 0-0.4 0-0.1 0-0.1-0.1-0.6 0.3-1.1-0.1-0.5-1-0.6-0.6-0.5-0.3-0.1-0.1-0.1-0.2-0.1-0.2 0.1-0.4 0.2-0.1 0-0.1 0-0.6-0.3-0.4-0.3 0-0.1 0.1-0.2-0.1-1 0.1-0.1 0.1-0.2 0-0.4-0.2-0.2-0.2-0.2 0-0.2 0-0.5-0.4-0.5 0-0.1 0.1-0.1 0.1-0.8 0.4-0.5 0.2-0.5 0-0.3-0.1-0.1 0-0.1-0.1 0.1-0.5 0.2-0.5 0.2-0.6 0.1-0.1 0-0.1 0.2-0.1 0 0.1 0.1 0.1 0.2-0.1 0.2-0.1 0.1-0.4 0-0.1-0.1 0-0.3-0.1-0.5-2.2 0.7-0.9 0.5-0.9 0.7-0.4 0.6-0.6 1.4-0.1-0.1-0.3-0.1-0.2 0-0.2-0.1-0.1 0-0.1 0-0.3 0.5-0.2 0.3-0.2 0-0.5-0.3-0.5 0-0.9 0.7-0.3 1.1 0.1 3.8-0.3 0.8-0.6 0.4-4.9 0.7-1.1 0.4-1.9 1.5-1.1 0.7-1.2 0.1-0.3 0-0.9 0-1.9 0.6-3.4 0.5-1.3 0.4-0.9 0.5-0.7 0.8-1.2 1.7-0.8 0.8-1.8 1.1-1 0.4-7.2 1.6-0.1 0-0.2-0.1-0.1-0.1-0.2 0-0.5 0-0.1 0.1-0.1 0.1-0.1 0-0.1 0-0.4-0.3 0-0.1 0-0.3-0.2-0.2-0.4-0.1-0.1 0-0.1-0.1-0.4-0.6-0.3-0.6-0.2-0.3 0.1-0.3 0-0.3 0-0.1-0.1 0-1.5 0-2.2 0.1-0.1 0-1.8-0.2-3.7 0.5-0.3 0-0.3 0-0.4-0.2-0.3-0.1-1-0.4-0.4-0.2 0.5-0.3 0.3-0.6 0.2-0.1 0.1 0 0.6-0.6 0.1 0 0.2-0.3 0.1-0.1 0.2-0.3 0.5-0.3 0.3-0.4 0.1-0.1 0.2-0.1 0.1-0.1 0.1-0.2 0.1-0.2-0.2-0.2-0.1-0.1-0.1-0.2 0-0.1 0.1-0.3 0.6-0.7 0.2-0.4 0.2-0.6-0.1-0.2 0-0.2-0.1-0.2-0.1-0.1 0-0.2 0.2-0.3 0.1-0.1 0.1-0.2 0.3-0.3 0-0.2 0.2-0.7-0.2-0.2 0-1 0-0.1 0-0.4-0.1-0.4 0.1-0.5-0.2-0.3 0-0.2 0-0.1 0-0.1 0.2-0.4 0.1-0.3 0-0.2-0.3-0.5-0.4 0-0.3-0.1-0.9-0.2 0-0.6-1.2-0.2-1.7-0.4-0.3 0-0.1-0.4-0.1-0.2-0.3-0.7-0.1 0 0-0.1-0.2-0.1-0.8-1.5-0.3-0.3-0.3-0.6-0.3-0.6-0.3-0.5-0.8-2.4-0.7-2.2-0.1-0.6-0.2-0.1 0-0.1-0.2-0.4-0.4-0.4-0.5-0.5-0.1-0.2-0.1-0.6-0.2-0.3-0.1-0.3 0.1-0.5 0-0.3 0.1-0.6 0.2-1 0-0.2-0.2-0.5-0.4-0.8-0.3-0.7-0.3-0.6-0.1-0.1-0.8-1.6-0.1-0.1-0.1-0.2-0.6-1.2-1-2-0.1-0.2-0.3-0.7-0.4-0.6-0.2-0.5-0.2-0.3-0.1-0.5 0-0.1-0.6-0.9-0.3-0.6-0.4-1.6-0.4-2.2-0.2-0.7-0.3-1.1-0.2-0.6-0.3-1.3-0.1-0.4-0.1-0.5z" id="TDLR" name="Logone Oriental">
  </path>
  <path d="M419.9 934l-0.1-0.2-0.3-0.5-2-3.6-1.5-3-5-9.3 2.7-0.8 3.1-0.6 1.8-3.2 2.6-4.5-7.4-11-0.8-1.4-0.8-1.3-1.2-1.3-3.4-3.5 1.6-2.2 3.7-5 0.3-4.6 0.2-2.2 0-2 0-0.1 0-0.1-0.1-2.6-0.3-2.6-0.6-3.3 0.1 0 0.5-0.5 1.8-1.9 2.5-2.5-8.1-5.2 6.9-5.2 1.5-1.5 0.1-2.2-0.1-2.7 1.6-1.2-1.2-1.5-1.1-1.4-0.4-1.8 0.1 0 2.2-1.1 2.1-0.2 1.5 0.3 2.2-0.6 0.1 0 3.2-0.7 0.5-0.1 1.3-0.7 1.9-0.5 1.2 1.4 2.6 1.1 2.3 1.6 1.3 1.4 1.3 2.2 0.8 1.8 0.4 1.2 0.1 0 0.3 0.1 0.1 0 0.6-0.1 0.5 0.1 0.8 0.1 0.2 0 0.3 0 0.1 0 0.1 0.1 0.3 0 0.5-0.1 0.3 0.2 0.2 0 0.2 0.1 0.4 0 0.3 0.2 0.7 1 0.2 0.5 0.5 0.9 0.3 0.7 0.2 0.3 0 0.1 0.2 0.3 0.1 0.3 0.4 0.8 0.1 0.2 0 0.1 0 0.1 0.1 0.2 0.1 0.3 0.2 0.3 0.2 1 0.1 0.5 0 0.2 0.5 0.1 0.1 0 0.3 0.1 0.1 0 0.4 0.2 2.3 1.2 1.7 0.8 1 0.6 0.6 0.3 0.7 0.3 0.1 0 1.1 0.5 0.3 0.2 0.5 0.8 0.4 0.2 0.1 0 0.1 0 1.2 0.2 0.6 0.1 0.5 0.2 1.8 0.1 0.2 0 0.6 0.1 0.5 0 0.6 0.2 0.8 0.1 0.3 0.1 0.5 0 0.6 0.1 0.6 0 0.5 0.1 0.9 0-0.1 0.8-0.3 0.5-0.3 0.6-1.1 1.7-0.7 1.1-0.2 0.4-0.2 0.4-1.1 1.5-0.2 0.2-0.1 0.1-0.6 0.7-0.1 0.2-0.1 0.1-0.3 0.3-0.6 0.1-0.4 0.1-0.5 0.1-1.6 0.5-1 0.5-0.2 0.1-0.1 0.2-0.2 0.1-0.4 0.5-0.1 0.2-0.3 0.4-0.2 0.1-0.2 0.5 0 0.1 0 0.4 0.1 1.3 0 0.2 0 0.3 0.1 0.6 0.1 0.1 0 0.1 0.2 0.6 0.1 0.2 0.1 0.3 0.1 0.5 0.2 0.8 0.2 0.6 0.1 0.2 0 0.1 0.1 0 0.1 0.1 0.1 0 0.1 0.3 0.1 0.3 0.8 1.2 0.5 0.3 0.3 0.4 0.1 0.2 0.1 0.4 0 1 0 0.2 0 0.2-0.1 0.2-0.1 0.2 0 0.3-0.2 0.6-0.1 0.2-0.1 0.7 0 0.1-0.1 0.2 0.1 0.5 0 1.8-0.1 0.5 0 0.1 0 0.1 0.1 0.5 0.1 0.3 0.2 0.3 0.1 0.4 0 0.2 0.1 0.6 0.2 1.1 0.1 0.1 0.2 0.7 0.1 0.1 0.1 0.3 0.3 0.6 0.7 0.3 0.1 0 0.1 0 0.3 0.3 0.2 0.1 0.3 0 0.2 0.1 0.2 0.3 0.3 0.7 0.1 0.2 0 0.2 0.2 0.8 0 0.8 0.1 0.5 0 0.2 0 0.8 0.7 2.6 0.1 0.4 0.6 1.1 0.4 0.5 0.3 0.6 0.6 2 0 1.8 0 0.6-0.3 1-0.3 0.9 0 0.6 0 0.9 0.1 0.8 0 0.4 0 0.3 0.4 1.8 0.1 0.2 0.2 1.3 0.1 0.5 0.2 0.9 0.2 1.1 0.1 0.7 0.1 0.2 0 0.4 0.3 0.6 0.2 0.7 0.5 1.7 0 0.1-2.1 0-5.7 0.2-5.1 1.2-4.3 1.6-1.4 0.3-1.4-0.1-1.4-0.2-1.3-0.2-0.1 0-0.3 0-0.2 0-0.2-0.1-0.6 0-0.8-0.1-0.9-0.1-0.4-0.1-0.6 0-0.2 0-2.1-0.3-1-0.1-1.2 0.1-1.1 0.3-1.1 1.6-1 0.5-1.2 0.4-2 0.2-1.1 0.2-0.9 0.7-0.4 1.2-0.1 0-0.2-0.1-0.3 0-0.4 0.5-2.3-0.7-0.7 0.8-1.1 0.7-6.3 2.2z" id="TDMA" name="Mandoul">
  </path>
  <path d="M297.7 753.3l2.6-1.6 8.2-4.9 9.1-0.1 0.6 1.7 0.7 3.7 0.9 3 2 2.2 1.7 0.8 1.5 1.8 0.3 0.6 0.3 1.3 3.8 2.1 1.9 0.2 1.2 1 0.1 0.1 0.7 0.3 0.6 0.3 0.2 0.3 0.2 0.1 2.3 2 5.2 1.7 1.7 0.3 1.9 0.6 1.4 0 3.5 0 2.8 1.5 3.8-0.9 0.4 0.6 0.8 0.9 0.5 1.9-1.5 13.4 0.1 4.6 0.3 3.8 1.3 1.8 1.2 0.9 0.7 2.1 0.5 1 0.1 0.2 0.2 0.1 0.6 0.4 1.4 0.9 0.2 2.6 0 1.6 0.1 1.1 1.1 3-1 1.4-0.9 1.2-0.6 2-0.9 2.1-0.9 1.4-1 1.2-0.4 0.6-0.3 0.7-0.9 1.6-1.7 1.9-0.5 0.7-0.1 0.2-1.5 1.1-1.9 2.2-1.9 0.9-0.9 0.7-0.6 0.4-0.6 0.2-1.5 0.4-0.5 0-0.5-0.1-1.1-0.9-0.3-0.2-0.4-1.4-0.9-0.6-0.6 0-0.7-0.3-1 0.1-0.8 0-0.3 0-0.2-0.2-0.3-0.3-2.1 0.9-1.5 1.8 0 0.2-0.1 0.3-0.6 3.6-1.8 0.9-0.2 2.3-0.1 0.9-0.1 0.2-0.5 1.1-2.5 2.1-0.3 0.2-0.1 0.1-0.3 0.3-1 0.8-0.1 0.2-1.7 1.7-0.4 0.6-0.8 0.9-0.7 0.9-2 2.5-0.5 1.6-1.6 2.6-1.3 1.8-0.5 0.1-0.1 0-0.6-0.2-0.4-0.1-0.3-0.3-0.1 0-0.3-0.2-0.2-0.1-0.3 0-0.1-0.1-0.1 0-0.2 0-0.4-0.2-0.3-0.4-0.7-0.2-0.3-0.2-0.4-0.2-1-0.4-0.7-0.3-0.6-0.3-0.7-0.3-1.4-1.3-0.1-0.1-1.5-0.7-0.5-0.2-1.3-0.6-1.6-1.2-0.5-0.4-0.3-0.3-0.2-0.4 0-0.1-0.2-0.3-0.1-0.2-0.4-1-0.5-0.4-0.5-0.6 0-0.3-0.1-0.2 0-0.1-0.1-0.2-0.4-0.5-0.1-0.1-0.1-0.1 0-0.4 0-0.4 0.1-0.3 0-0.2 0.1-0.3 0-0.2 0-0.3-0.2-0.2 0-0.3 0-0.2-0.1-0.4 0-0.5 0.1-0.8-0.2-0.7-0.2-0.5-0.4-0.5-0.2-0.4-0.7-0.3-0.5-0.4-0.4-0.8-0.2-0.3-0.4-0.2-0.1-0.1-0.1-0.2 0.1-0.4 0.1-0.2 0.5-0.4 0.2-0.3 0.2-0.3 0-0.2 0.1-0.2 0-0.2 0-0.1-0.1-0.2-0.1-0.2-0.3-0.5-0.3-0.2-0.6-0.2-0.2 0-0.2-0.1-0.9-0.4-0.3-0.2-0.2-0.3-1.1-0.3-0.2 0-0.3-0.2-0.5-0.3-1 0-0.1 0.1-0.3 0-1 0.4-0.4 0.2-0.5 0.2-0.7 0.2-0.8 0.2-0.1 0-0.9-0.1-0.2 0-1.3 0.4-0.6 0-0.7 0-1.3 0.2-0.1 0.1-0.1-0.1-0.9-0.3-0.1-0.8-0.1-0.5 0-0.3 0-0.1 0.1-0.6 0-0.2 0-0.4 0-0.3-0.1-0.3-0.1-0.6-0.1-0.7-0.2-0.9 0-0.4 0-0.3-0.1-0.3 0-0.2-0.1-0.8-0.1-0.6-0.3-0.1-0.2-0.5-0.2-0.4 0.1-0.3 0.1-0.2 0.1-0.3 0.1-0.1 0.3-0.2 0-0.1 0.1-0.3-0.1-0.3-0.3-0.1-0.1-0.1 0-0.3 0-0.2 0.5-0.6 0.1-0.3 0.1-0.3 0.2-0.6-0.3-0.4 2 0.1 1.3-0.4 0.1 0 0.9 0.2 1.1 0 0.6-0.2 0.9-0.5 0.1 0 0.1-0.2 0.1 0 0.1 0 0.3-0.5 0.4-0.3 0.8-0.3 2.5 0.1 3.2 0.8 1.7 0.1 1.5-0.4 0.6-0.3 0.5-0.5 0.1 0 0.2 0 0.2 0 0.1 0 0.5 0 0.3-0.1 0-0.1 0-0.5 0.1-0.1 0.1-0.1 2.5-0.3 0.5 0 0.9 0.5 0.1 0.1 0.3 0.2 0 0.1 0.8 0.2 0.3 0.1 0.2 0 0.6-0.9 8.7 2.8 3.1-0.1 0.8-0.2 0.2 0 0.6 0 1-0.1 0.3-0.1 0.1-0.1 0.3-0.1 0.7-0.2 0.5-0.2 1.3 0 1.2-0.2 0.4-0.1 0.8-0.1 0.6-0.2 1.2-0.5 0.3 0 0.6-0.1 0.2 0 0.8-0.2 0.1-0.1 0.9-0.3 0.4-0.1 0-0.1 0-0.1-0.1-0.1 0-0.1-0.1-0.5 0-0.1-0.1-0.1-0.1-0.2-0.5-0.3-0.5-0.3-0.5-0.4-0.1-0.1-0.1 0-0.1 0-0.3-0.1-0.2-0.1-0.3-0.1 0-0.1-0.4-0.3-0.1-0.1-0.7 0.1-0.2-0.3-0.5-0.3-0.1-0.2-0.6-0.2-0.5-0.1 0-0.1-0.3-0.2-0.1-0.2-0.4-0.3-0.1 0-0.1-0.1-0.3-0.3-0.3-0.2-0.4-0.4-0.2 0-0.1-0.1-0.2 0-0.1 0-0.1 0.1-0.7-0.6-0.9-0.8-0.1-0.1 0-0.3-0.4-0.2-0.1-0.3-0.1-0.3-0.3-0.2-0.1-0.1-0.1-0.2-0.5-0.6-0.3-1.1-0.1-0.2-0.2-0.3-0.2-0.2-0.5-0.3-0.2-0.1 0-0.1-0.1 0-0.4-0.4-0.1-0.1-0.2 0-0.1-0.2-0.1-0.1 0-0.1-0.3-0.7-0.9-1.2-0.9-0.4-0.3-0.4-0.3-0.3-0.1-0.3-0.1-0.2-0.1-0.2-0.1-0.1-0.2-0.3-0.1-0.1-0.4-0.1-0.1 0-0.2-0.1-0.1-0.2-0.5-0.2-0.1 0-0.9-0.2-0.1 0-0.1-0.2 0.1-0.2 0.1-0.1-0.1-0.2 0-0.1-0.1-0.3-0.4-0.3-0.2-0.2-0.1-0.2 0-0.1 0.1-0.3-0.1-0.3-0.1-0.2-0.4-0.2-0.2-0.3 0-0.2 0-0.8 0-0.8 0-0.2-0.1-0.3-0.3-0.4-0.4-0.4-0.3-0.3 0-0.1-0.1-0.1-0.4-0.3-0.1-0.1-0.2-0.6-0.1-0.5 0-0.1-0.1-0.4-0.2-0.3-1-1.1-0.1-0.2-0.6-0.5-0.1 0-0.3 0-1-0.4-0.7-0.3-0.2-0.2-0.1 0-0.3-0.2-0.4-0.4-0.1-0.1-0.1-0.2-0.2-0.2 0-0.6-0.1-0.1 0-0.8 0-0.3 0-0.1 0-0.4 0.1-0.5 0.1-0.2 0.1-0.1 0.2-0.3 0-0.1 0.1-0.3 0.1-0.3 0.1-0.5-0.2-1.4-0.2-0.3-0.1-0.1-0.1-0.4-0.2-0.4-0.1-0.3-0.1-0.4-0.2-0.4-0.1-0.4-0.2-0.2-0.2-0.6-0.3-0.6-0.2-0.3-0.1-0.1-0.3-0.2-0.1-0.2-0.1-0.1-0.2-0.2-0.1-0.2 0-0.1-0.1 0-0.3-0.8 0-0.1-0.1-0.1-0.3-0.4-0.2-0.3-0.2-0.5 0-0.3-0.1-0.2-0.1-0.3-0.3-0.3-0.1-0.1 0-0.2 0-1.1 0.1-0.4 0-0.1 0.3-0.4 0.1-0.1 0.2-0.2 0-0.1 0.3-0.2 0.1-0.1 0.2-0.2 0.1-0.2-0.1-0.6 0-0.7 0-0.1 0-0.2-0.2-0.6-0.1-0.4-0.1-1.2 0-0.3-0.1-0.4-0.1-0.2-0.4-0.4-0.4-0.3-0.2-0.2-0.1-0.7-0.2-0.4-0.1-0.1-0.1-0.1-0.1-0.1 0-0.1-0.1 0 0-0.1 0-0.1 0-0.1 0.1-0.3 0-0.1 0-0.1-0.2-0.2 0-0.1 0.1-0.3 0.1-0.1 0-0.1 0-0.1 0-0.2 0-0.1 0-0.4 0-0.1 0-0.2-0.3-0.6 0-0.1-0.2-0.1 0.1-0.1 0-0.2 0-0.1-0.1-0.1-0.1-0.1-0.2 0 0-0.2 0.3-0.4 0.1-0.1 0-0.1-0.1-0.2-0.4-0.1-0.1 0 0-0.2 0-0.1z" id="TDME" name="Mayo-Kebbi Est">
  </path>
  <path d="M281.5 818.3l0.3 0.4-0.2 0.6-0.1 0.3-0.1 0.3-0.5 0.6 0 0.2 0 0.3 0.1 0.1 0.3 0.1 0.1 0.3-0.1 0.3 0 0.1-0.3 0.2-0.1 0.1-0.1 0.3-0.1 0.2-0.1 0.3 0.2 0.4 0.2 0.5 0.3 0.1 0.1 0.6 0.1 0.8 0 0.2 0.1 0.3 0 0.3 0 0.4 0.2 0.9 0.1 0.7 0.1 0.6 0.1 0.3 0 0.3 0 0.4 0 0.2-0.1 0.6 0 0.1 0 0.3 0.1 0.5 0.1 0.8 0.9 0.3 0.1 0.1 0.1-0.1 1.3-0.2 0.7 0 0.6 0 1.3-0.4 0.2 0 0.9 0.1 0.1 0 0.8-0.2 0.7-0.2 0.5-0.2 0.4-0.2 1-0.4 0.3 0 0.1-0.1 1 0 0.5 0.3 0.3 0.2 0.2 0 1.1 0.3 0.2 0.3 0.3 0.2 0.9 0.4 0.2 0.1 0.2 0 0.6 0.2 0.3 0.2 0.3 0.5 0.1 0.2 0.1 0.2 0 0.1 0 0.2-0.1 0.2 0 0.2-0.2 0.3-0.2 0.3-0.5 0.4-0.1 0.2-0.1 0.4 0.1 0.2 0.1 0.1 0.4 0.2 0.2 0.3 0.4 0.8 0.5 0.4 0.7 0.3 0.2 0.4 0.4 0.5 0.2 0.5 0.2 0.7-0.1 0.8 0 0.5 0.1 0.4 0 0.2 0 0.3 0.2 0.2 0 0.3 0 0.2-0.1 0.3 0 0.2-0.1 0.3 0 0.4 0 0.4 0.1 0.1 0.1 0.1 0.4 0.5 0.1 0.2 0 0.1 0.1 0.2 0 0.3 0.5 0.6 0.5 0.4 0.4 1 0.1 0.2 0.2 0.3 0 0.1 0.2 0.4 0.3 0.3 0.5 0.4 1.6 1.2 1.3 0.6 0.5 0.2 1.5 0.7 0.1 0.1 1.4 1.3 0.7 0.3 0.6 0.3 0.7 0.3 1 0.4 0.4 0.2 0.3 0.2 0.7 0.2 0.3 0.4 0.4 0.2 0.2 0 0.1 0 0.1 0.1 0.3 0 0.2 0.1 0.3 0.2 0.1 0 0.3 0.3 0.4 0.1 0.6 0.2 0.1 0 0.5-0.1 0.7 1.8-0.1 2.4 0 2.3 0.5 1.7-3 1.6 0.4 2.5-1.6 2.8-0.2 1.6-0.2 2.1-0.1 2.7 0.1 3.4-3.2 2.8-0.4 0.5-0.8 2.1-0.8 2.8-0.9 2.1 0 2-0.5 2-0.3-0.9 0-0.3 0-0.1 0-0.1-0.2-0.6-0.4-0.4-0.1-0.6 0-0.3-0.1-0.2-0.2-0.5-0.2-0.8 0-0.5 0-0.3 0-0.2 0-0.1-0.1-0.2-1-0.2-0.2-0.2-0.6-0.8-0.6-0.5-0.4-0.3-0.5-0.3-0.4-0.2-0.6-0.3-0.1 0-0.9-0.5-0.2-0.1-0.1 0-0.4 0-0.6 0.1-0.1 0-0.3 0-0.2 0-0.3-0.1-0.2 0-0.3 0-0.2 0-0.1 0-0.1 0.1-0.4 0.1-0.5-0.1-0.1 0-1.5-0.4-0.2 0-0.2 0-0.1 0-0.4 0-0.2 0.1-0.2-0.3 0-0.2 0-0.1 0-0.4 0.1-0.8 0.1-0.2 0.1-0.3-0.1-0.2-0.6-0.6-0.1-0.1-0.1 0-0.9-0.3-0.3-0.4-0.4-0.1-0.5 0.1-0.5 0-0.7-0.4-0.1-0.1 0.1-0.1 0-0.1 0.1-0.1 0.2-0.1 0.4-0.3-0.1-0.1-0.2-0.2-0.3-0.1-0.1-0.2-0.1-0.1-0.2-0.1-0.1-0.2 0.1-0.3-0.1-0.1 0-0.1-0.3-0.6-0.1-0.1-0.4-0.1-0.1 0-0.3-0.2-0.1 0.1-0.1 0.1-0.2-0.1-0.1-0.2-0.2 0.2-0.1 0.2-0.4-0.1-0.1 0-0.1 0.1-0.1 0-0.1 0.1-0.4-0.2-0.5-0.1-0.5 0-0.5 0-0.4 0.2-0.1 0-0.4-0.1-0.5-0.2-8.8-7.1-0.1-0.1-0.2-0.3-0.4-0.2-1.6-1.6-0.1-0.1-0.3-0.3-0.3-0.3-1-0.9-0.1-0.1-0.2-0.1-0.3-0.1-0.1-0.1-0.3-0.2-0.2-0.2-0.6-0.2-0.1 0-1.5-1.2-0.1-0.1-0.3-0.5-0.3-0.5 0-0.2 0-0.1 0.5-0.6 0-0.1 0-0.2-0.4-0.4-0.4-0.3-0.2-0.2-0.1-0.2-0.3-0.1-0.2-0.1-0.1 0-0.2-0.1-0.2-0.2-0.2-0.1-0.1 0-0.2-0.2-0.3-0.6-0.1-0.1-0.1-0.2 0-0.1-0.3-0.4-0.6-0.4-0.1-0.2 0-0.1-0.1 0-0.2-0.1-0.5-0.6-0.7-0.5-0.4-0.4-0.2-0.2-0.2-0.5 0.1-0.9 0.1-0.2 0-0.1 0.5-1.1 0.1-0.3 0-0.1 0.1-0.7 0-0.3 0-0.1-0.2-0.3-0.2-0.4-0.5-0.5-1.2-0.6-0.5-0.6-0.2-0.3-0.2-0.3-0.1-0.2-0.1-0.3-0.2-0.2-0.1-0.5-0.1 0-0.5-0.9-0.6 0-0.4 0-0.6-0.1-0.1-0.1-0.5-0.1-0.4-0.4-0.3-0.2-0.8-0.4-0.2-0.4-0.1-0.1-0.5-1.1-0.6-0.9-0.7-0.5-0.6-0.1-0.2-0.2-0.1-0.6-0.1-0.4-0.1-0.5-0.3-0.2-0.5 0-0.4-0.2-0.1 0-0.6-0.5-0.2-0.1 0-0.1-0.2-0.1-0.4-0.3-0.3-0.2-1.1-1.2-0.4-0.4-0.1-0.1-0.4-0.7-0.4-0.3-0.3-0.3-0.3-0.3-0.1-0.1-0.1-0.3-0.1 0-0.1-0.2-0.7-0.6-0.3-0.9-0.5-1.1-0.3-0.3-1-0.9-0.1-0.3-0.1-0.6 0-0.4 0.1-0.3 0.1-0.7 0.1-1 0.8-1.7 0.1-0.2 0.5-0.6 1-0.7 0.4-0.1 0.2-0.3 0.1-0.2 0.1-0.5 1.1-1 0.1-0.1 0.1-0.2 0.1-0.1 0.5-0.6 0.4-0.5 0.4-0.5 0.9-1.3 0.3-0.4 0.4-0.6 0.2-0.2 0.1 0 0.6-0.9 0.2-0.7 0-0.1 0.2-1.2 0.2-0.4 0.1-0.5 0-0.2 0.1-0.5 0.3-0.8 13.2-0.9 16 4 0.2 0z" id="TDMO" name="Mayo-Kebbi Ouest">
  </path>
  <path d="M471.4 923.4l0-0.1-0.5-1.7-0.2-0.7-0.3-0.6 0-0.4-0.1-0.2-0.1-0.7-0.2-1.1-0.2-0.9-0.1-0.5-0.2-1.3-0.1-0.2-0.4-1.8 0-0.3 0-0.4-0.1-0.8 0-0.9 0-0.6 0.3-0.9 0.3-1 0-0.6 0-1.8-0.6-2-0.3-0.6-0.4-0.5-0.6-1.1-0.1-0.4-0.7-2.6 0-0.8 0-0.2-0.1-0.5 0-0.8-0.2-0.8 0-0.2-0.1-0.2-0.3-0.7-0.2-0.3-0.2-0.1-0.3 0-0.2-0.1-0.3-0.3-0.1 0-0.1 0-0.7-0.3-0.3-0.6-0.1-0.3-0.1-0.1-0.2-0.7-0.1-0.1-0.2-1.1-0.1-0.6 0-0.2-0.1-0.4-0.2-0.3-0.1-0.3-0.1-0.5 0-0.1 0-0.1 0.1-0.5 0-1.8-0.1-0.5 0.1-0.2 0-0.1 0.1-0.7 0.1-0.2 0.2-0.6 0-0.3 0.1-0.2 0.1-0.2 0-0.2 0-0.2 0-1-0.1-0.4-0.1-0.2-0.3-0.4-0.5-0.3-0.8-1.2-0.1-0.3-0.1-0.3-0.1 0-0.1-0.1-0.1 0 0-0.1-0.1-0.2-0.2-0.6-0.2-0.8-0.1-0.5-0.1-0.3-0.1-0.2-0.2-0.6 0-0.1-0.1-0.1-0.1-0.6 0-0.3 0-0.2-0.1-1.3 0-0.4 0-0.1 0.2-0.5 0.2-0.1 0.3-0.4 0.1-0.2 0.4-0.5 0.2-0.1 0.1-0.2 0.2-0.1 1-0.5 1.6-0.5 0.5-0.1 0.4-0.1 0.6-0.1 0.3-0.3 0.1-0.1 0.1-0.2 0.6-0.7 0.1-0.1 0.2-0.2 1.1-1.5 0.2-0.4 0.2-0.4 0.7-1.1 1.1-1.7 0.3-0.6 0.3-0.5 0.1-0.8-0.9 0-0.5-0.1-0.6 0-0.6-0.1-0.5 0-0.3-0.1-0.8-0.1-0.6-0.2-0.5 0-0.6-0.1-0.2 0-1.8-0.1-0.5-0.2-0.6-0.1-1.2-0.2-0.1 0-0.1 0-0.4-0.2-0.5-0.8-0.3-0.2-1.1-0.5-0.1 0-0.7-0.3-0.6-0.3-1-0.6-1.7-0.8-2.3-1.2-0.4-0.2-0.1 0-0.3-0.1-0.1 0-0.5-0.1 0-0.2-0.1-0.5-0.2-1-0.2-0.3-0.1-0.3-0.1-0.2 0-0.1 0-0.1-0.1-0.2-0.4-0.8-0.1-0.3-0.2-0.3 0-0.1-0.2-0.3-0.3-0.7-0.5-0.9-0.2-0.5-0.7-1-0.3-0.2-0.4 0-0.2-0.1-0.2 0-0.3-0.2-0.5 0.1-0.3 0-0.1-0.1-0.1 0-0.3 0-0.2 0-0.8-0.1-0.5-0.1-0.6 0.1-0.1 0-0.3-0.1-0.1 0-0.4-1.2-0.8-1.8-1.3-2.2-1.3-1.4-2.3-1.6 0.6-0.8 0.5-0.7 0.9-2.7 0.1-0.1 0-0.1 7-7.3-2.8-2.9-0.3-0.3-0.1-0.1-1.5-1 0-0.5-0.1-4.1-0.1-0.4-2-2.9-0.6-3.8-1.9-1.9-1.4-1.5-0.2-0.1-1.7-0.7 3-15.5 9.9-1.4 7.6-1.2 5.4 5.6 2.8 0.9 2.9 1.7 2-0.8 3.3 1 2.5 1.4 2 1.6 2.3 1.7 2.9 1.2 2.2-0.4 3 2 3.2 1.4 8 8.9-0.5 5.9 5.7 2.4 3.1-0.2 1.7-6 11.5 0 2.2-0.7 0.3 0 2.5-4.6 0.6-2.5 1.1-1.2 0.2-0.3 2.5 0.5 0.4-2.2 0.1-0.1 1.3-1.2 2.4-0.8 2-2.5 1.9-1.7-0.6-2.5 2-2.1 0.5-2.4 2.2-2.4 3.6-1.5 2 1.2 2.8-0.2 1.5-2.2 0.4-0.5 3.4-2.5 0.5-0.4 0.3-0.2 0.2-0.2 0.1-0.1-3.6 16.6 3.1 1.2-0.6 3-1.7 2.9-0.1 0.3 0.3 3.3-2.2 1.6 2.4 3.8 2 4.9 5.4 14.9 2.2 6.5 4.9 14.1 3.2 8.9 0.1 0.2 0.1 0.1 0 0.1 0.2 0.2-0.1 0 0 0.1-0.1 0.1-0.3 0.1-1.2 0.2-0.6 0-0.3 0 0 0.1-0.1 0-0.2 0.2-0.1 0.2-0.1 0-0.1 0.7-0.1 0.2-0.8-0.3-0.1 0.2-0.2-0.1-0.2-0.1-0.6 0.4-0.4 0-0.1 0-0.1-0.1-0.1 0-0.2 0-0.3-0.1-0.4 0.1-0.4 0.2-0.3 0.2-0.1 0.1-0.2 0.3-1 0 0-0.2-0.3-0.6-0.5 0.3-0.5 0.1-0.3 0-0.5-0.1-0.5 0-0.4 0-0.1 0.1-0.4 0.3-0.2 0.1-0.9 0-0.5 0.3-0.1 0-0.6 0-0.1 0.2-0.6 0.4-0.3 0.2-0.1 0.1-1-0.1-0.6 0.5-0.4 0 0-0.1-0.1 0-0.2-0.1-0.2 0-0.5 0-0.2 0.1-0.6 0.2-1-0.7-1.2 0.2-0.1 0-0.2-0.2-0.2-0.3-0.1-0.1-0.2-0.1-0.2 0.1-0.1 0-0.2 0.1-0.4 0-0.1 0-0.2 0.1-0.7 0.6-0.1 0.1-0.3 0.2-0.3 0.1-0.3 0-0.2 0-0.2 0-0.1-0.2-0.1-0.2-0.1-0.4 0-0.1-0.2-0.1-0.3 0-0.1 0 0 0.1-0.1 0.1-0.1 0.6-0.1 0.1-0.1 0-0.1 0-0.1-0.1-0.1 0.1-0.3 0.2-0.1 0-0.3-0.2-0.3 0-0.5 0-0.1-0.4-0.4 0-0.1 0-0.4-0.2-0.1-0.1-0.4 0.2 0 0.1-0.1 0-0.1 0-0.4-0.1-0.4 0.1-0.7 0-0.1 0.2-0.2 0.2-0.3 0.1-0.1 0-0.5-0.1-0.7 0.3-0.5 0-0.1-0.1-1-0.3-0.8 0.5-0.1 0-0.2-0.1-0.7-0.4-0.5 0.6-0.3-0.1-0.2-0.1-0.6-0.5-0.6-0.3-0.6 0-0.4 0.1-0.3 0-0.3-0.2-0.5 0.1-0.1 0-0.1 0-0.1-0.2-0.1 0-1.1 0.4-0.3 0.1-0.3 0-0.4-0.2-0.1 0.1-0.2 0 0 0.1-0.2 0.3-0.2 0-0.3 0.1-0.2 0 0 0.1-0.4 0.2-0.3 0.1-0.2-0.1-0.4 0.1-0.4 0-1.4-0.4-0.1 0-0.2-0.2 0-0.1-0.2 0-0.8 0.3 0 0.3-0.9 0.3-1.1 0.5-0.7-0.1-0.1 0-0.1 0.1-0.1 0-0.2 0.2-0.3 0.5-0.1 0.2-0.1 0-0.2 0.1-0.1 0-0.2-0.1-0.1-0.1-0.1 0-0.2 0.1-0.1 0-0.2 0.2-0.2 0.3 0 0.1-0.1 0.8-0.2 0.3-0.1 0.2 0 0.1-0.1 0.1-0.2 0.1-0.3 0.1-0.7 0.3-0.2 0.1-0.1 0-0.2-0.1-0.6 0.3-0.2 0-0.3 0-0.2 0.1-0.1 0.1-0.1 0.2-0.2 0.4-0.3 0.4-0.1 0.4-0.5-0.2-0.4 0 0 0.1-0.1 0.1 0.1 0.1 0.1 0-0.5 0.8-0.6 0.9 0 0.8 0.6 0.5 0.3 0.3 0.9-0.5 0.2 0.3 0.1 0.2 0.2 1 0.3 0.7 0.3 0.2 0.3 0.3 5.1 2.2 0.4 0.8 0.2 0.3 0.5 0.5 0.9 0.6 0.7 0.2 0.5 0.1 0.1 0 0.6 0.4 0.3 0.2 0.2 0.1 0.1 0 0 0.1 0 0.1 0 0.1 0.2 0.4 0.2 0.2 0.2 0.2 0.1 0.1 0.2 0.1 0 0.1-0.9 0.6-0.5 0.4-0.2 0.1-0.1 0.2-0.4 0-0.3 0.5-0.4 0-0.2 0.2-0.1 0.5-0.2 0.1-0.6 1.2-0.2 0.5-1.4 2.7-1.5 1.7-0.2 0.3-3.8 4.3-0.5 1.1-0.5 1.3-0.8 1-1.4 1.4-0.3 0.3-0.1 0-2.2 3.5-1.2 1.1-1 0.4-0.7 0.3-0.7 0.2-1.8 0.6-2.3 1.2-0.8 0.7-1.1 1-1.1 2.1 0 2.7-1.6 2.3-0.4 0.1-0.6 0-0.6 0.1-0.4 0-0.1 0-0.1 0-2.4 0.2-0.1 0-0.2 0-0.5 0.1-0.1 0-0.1 0-0.2 0-1.4 0.1-0.1 0.1-0.2-0.1-0.1 0-1.4 0.1-0.1 0.1-0.2 0-0.3 0.1 0-0.1-0.6 0-1.2 0.1-2.1 0.2-0.3 0-0.3 0-0.2 0-0.6 0.1-0.2 0-0.1 0-0.3 0-0.1 0-0.2 0-0.7 0.1-4 0.1z" id="TDMC" name="Moyen-Chari">
  </path>
  <path d="M588.5 643.5l0-0.1 0.6-15.7 0-0.2 0.1-0.4-0.2-3.9-0.7-1.4-0.1-0.2-0.4-0.9-1.7-3.8-0.4-0.6-0.5-0.6-0.6-1-0.5-0.8-0.2-0.7-0.3-0.9 0.1-0.9 0.2-1.2 0.1 0 0.1-0.9 0-0.3 0.2-0.6 0.8-4-0.1-0.4-1.3-3.8-0.4-0.2-1.8-1.1-9.4-5.9 0.3-7 0.1-0.1 3.9-4.2 0.9-1.3 1.9-2.7 1.3-1.8 1.7-2.2 2.6-1.4 3.8-3.5 7 0.6 2.5-1.2 4-0.9 3.1 1 3 0.9 2.7 0.7 4.3 2.7 4.2 3.9 2.2 3 2.3 2.5 1.5 0.6 2.8 0.2 1 0.4 0.4 0.2 1.8 1.8 2.1 0.6 0.9 0.3 0.6 0.5 2.5 1.8 3.3-1.6 3.7-2.5 3-0.8 3.7 0.6 2.8 0.8 1.6 0.1 4.7 0.4 5.8 1.8 11.2 3.3 1.9 0.7 3.9 1.2 2.3 1.2 2.2 1.6 1 0.4 0.1 0-0.3 0.3-0.7 0.8-1.9 2.1-2.3 2.7-0.8 0.9 0 0.1-0.5 0.6 0.1 0.1 0 0.1 0.1 0 0.1 0.1 0.1 0 0.1 0 0.1 0.1 0.2 0.1 0.1 0.1 0.1 0 0.1 0 0.1 0 0.1 0.3 0.2 0.1 0.1 0 0 0.1 0.1 0 0.2 0.1 0.2 0.3 0.1 0.3 0 0.1 0.1 0 0.2 0.1 0.1 0 0.1 0.3 0.1 0 0 0.1 0.3 0.7 0.1 0.3 0 0.2 0 0.3-0.2 0.5-0.1 0.1-0.1 0.3-0.1 0-0.1 0.1-0.2 0.3 0.1 0.2 0.2 0.2 0.1 0.3 0 0.1 0 0.1 0.1 0.2 0 0.1 0.1 0.1 0 0.1 0.1 0.1 0.3 0.3 0.1 0.1 0.3 0.4 0 0.2 0 0.1 0 0.2 0 0.1 0 0.2 0.1 0.1 0.1 0.2 0.3 0.4 0.1 0.1 0.4 0.7 0 0.1 0.3 0.3 0.1 0.1 0.4 0.3 0.3 0 0.2 0.1 0.1 0.1 0.3 0.2 0 0.1 0 0.1 0 0.1 0.1 0.2 0.2 0.2 0.3 0.3 0 0.2 0 0.1 0 0.1 0.1 0 0.3 0.2 0.3 0.1 0.4 0.1 0.1 0.1 0.1 0 0 0.3-0.1 0.3 0 0.1-0.1 0.2 0 0.1-0.1 0.1-0.3 0.6 0 0.1-0.1 0.3 0.1 0.2 0.1 0.2 0.1 0.2 0 0.2 0.1 0.1 0 0.1 0 0.2 0 0.2 0 0.3-0.1 0.3-0.1 0.1 0 0.1 0 0.1 0 0.2 0.1 0 0.2 0.5 0 0.1 0.1 0 0.2 0.2 0.3 0.1 0.1 0.1 0.1 0.5 0.2 0.3 0.1 0 0.1 0.1 0.1 0 0.2 0.1 0.1 0 0.1 0.1 0.1 0.2 0.2 0.3 0.1 0.3 0.1 0.1 0.7 0.5 0 0.1 0.3 0.6 0.4 0.8 0 0.1-0.1 0.1 0 0.2 0.1 0.2 0.1 0.7 0 0.1-0.3 0.1-0.2 0 0 0.1 0 0.1 0 0.2 0 0.1-0.2 0.1-0.3 0.1 0 0.1-0.3 0.2 0 0.1-0.3 0.4 0 0.1-0.1 0-0.1 0-0.2 0.1 0 0.1-0.2 0 0 0.1 0.1 0.2 0 0.1 0.1 0.1-0.1 0.2-0.2 0.1-0.2 0.1-0.1 0-0.3 0-0.2 0.1-0.1 0.4-0.1 0.1-0.1 0.1-0.3 0.2-0.1 0.2 0.1 0.3-0.1 0.1-0.6 0.1-0.1 0-0.2 0.6 0 0.1-0.2 0.1-0.1 0.2-0.2 0-0.2 0.1-0.3 0.1-0.2 0.2-0.1 0.8 0 0.1 0 0.2-0.1 0.1-0.2 0.2-0.6 0.8-0.1 0.1-0.2 0.3-0.1 0.2-0.2 0.1-0.1 0.1-0.1 0.1-0.1 0.2-0.1 0.3-0.1 0.2-0.1 0.1-0.2 0.3-0.1 0.2-0.1 0.2-0.2 0-0.3 0-0.2 0.1-0.2 0.1-0.3 0.2-0.2 0-0.2 0-0.2-0.1-0.5-0.1-0.2 0.2-0.4 0.4-0.4 0.5-0.1 0.1-0.1 0-0.5 0-0.4 0.1-0.8 0.1-0.5 0-0.1 0-0.1 0-0.3 0-0.4 0-0.2 0.2-0.1 0.2 0.1 0.1 0 0.1-0.1 0.2 0 0.1 0 0.1-0.1 0.3-0.2 0.3-0.2 0.1-0.6 0.5-0.1 0.1-0.1 0.2 0 0.1-0.1 0.2-0.1 0.3-0.3 0.4-0.1 0.1-0.1 0.1-0.1 0-0.2 0-0.1 0-0.1 0-0.3 0.1-0.3 0.1-0.1 0.1-0.1 0.2-0.2 0.3-0.3 0.3-0.2 0-0.2 0.3-0.1 0.3 0 0.3 0 0.3 0.1 0.4-0.1 0.1 0 0.1-0.1 0.2 0 0.1-0.1 0 0 0.1-1.1 0.9-0.1 0 0 0.1-0.2 0.3 0 0.1-0.1 0.1-0.3 0.9-0.2 0.5-0.3 0.8 0 0.1 0 0.4-0.1 0.1 0 0.2-0.1 0.4 0 0.2-0.1 0.1-0.4 0.9-0.1 0 0 0.1-0.3 0.3 0 0.1 0 0.1-0.4 0.8 0 0.1 0 0.1-0.2 1.1 0 0.1-0.1 0.2 0 0.3-0.1 0.6-0.3 0.3-0.3 0.3-0.4 0.2-0.3 0.2-0.4 0.1-0.2 0.4 0.1 0 0 0.1-0.1 0 0-0.1-2.1-0.4-1.8-0.6-3.4-1.9-1.9 0.9-2.6 1-3.2 1-3 1.7-2.4 2.5-1.1 0.7-0.3 0.3-0.4 0.6-1.1 1.5-1.6 1.8-2.5-1.1-2.4-0.3-2.4 0.1-4.7 1.1-1.5 0-0.7 0.4-0.6 0.5-3.6-1.4-4.9-2-0.1-3.2 0.6-2.7-1.4-3-1.5-0.3-2.3-0.4-3-1.1-1-0.1-0.5-0.1 0.1 0 0.4-2.4-0.5-2.6 0-2.2-5.5 0.5-2.7 0-4-0.2-2.5-0.4-1.3-0.4-1.3-0.4-4.8-1.4-0.1 0z" id="TDOD" name="Ouaddaï">
  </path>
  <path d="M568.4 864l-0.2-0.2 0-0.1-0.1-0.1-0.1-0.2-3.2-8.9-4.9-14.1-2.2-6.5-5.4-14.9-2-4.9-2.4-3.8 2.2-1.6-0.3-3.3 0.1-0.3 1.7-2.9 0.6-3-3.1-1.2 3.6-16.6 1.3-7.2-1-8.7 1.6-2.1-1.7-1.7-0.6-3.3-2-0.1-1.6-0.6-3.2-1.1-5-0.8-4-3.1-5-1.7-2.9-1.1-1.2-1.4-0.6-0.1-1-0.2-0.9-0.1-3.4-1.7-2.6-1-1.5-0.6-3-1.5-1.9-2.3-3.5-1-1-3.9-0.3-2.1-0.2-2.1 1.5-12 8.4 0.2 1.8 5 6.9-2.2 2.3-4.9 4.6-7.2-1.5-7.1 8.3-7.8 1.7 0.7 4.6 1.5 9.3 1.7 8.5 0.7 0.3 0.6 0 0.2 0.5 3.7 2.7-0.3 2.2-1 0-0.1 0.2-1 0.2-1.4 0.9 0 6.2-0.5 4.9-0.3 1.5 0.7 1.3-0.2 0.8-0.1 2.4 1.1 15.6 7.7 0.3 0.1 17.2 9 5.6 2.8 2.3 1.3-0.1 5.3 3.9-0.8 12.8-2.2 8.6-1.5 21.5-4.4 3.7 2.7 7.8 1.3 16.3 35.2 0.1 0.1 0.2 0.1-0.1 0.1-0.2 0.3-0.3 0.2-0.3-0.1-0.5 0-0.5 0.4 0 0.1-0.1 0.3-0.4 0.2-0.1 0-0.1 0-0.3-0.1-0.7 0.1-0.9 0.5-0.1-0.1-0.3-0.3-0.1 0-0.3 0.6-0.8 0.1-1.4 0-0.2 0-0.1 0.1-0.1 0-0.5 0.6-0.6 0.3-0.3 0.1 0 0.1-0.4 0.2-0.4 0-0.5 0.3-0.4 0.2-0.8-0.2-0.3 0-0.5 0.5-0.5 0.1-0.3 0.1-0.9 0.1-0.3 0.1-0.3 0.1-0.7 0.4-0.4 0.9-0.7 0.2-0.2 0-0.1 0.1-0.2 0.1 0 0.1-0.2-0.1-0.3-0.1-0.7-0.1-0.6 0-0.1-0.1-0.1 0-0.1 0.1-0.1 0-0.2 0-0.2 0-0.3-0.1-0.3-0.2-0.3-0.3-0.2-0.1-0.2-0.1-0.1 0-0.3 0-0.8 0.4-0.1 0-0.5-0.1-0.4 0.3-0.2 0.1-0.1 0-0.1-0.1-0.2-0.1-0.2 0-0.2 0-0.1 0-0.2 0.1-0.7 0.5-0.1 0.1-0.2 0-0.5 0-0.1 0.2-0.3 0.4-0.2 0-0.4-0.3-0.5-0.2 0 0.3 0.1 0.4-0.2 0.1-0.4 0-0.2-0.1-0.2-0.4-0.1-0.1-0.1-0.1 0 0.1 0 0.6 0 0.1 0 0.1-0.1 0.1-0.3-0.1-0.4-0.3-0.4-0.7-0.4 0-0.2 0.3-0.3 0.2-0.2 0-0.3-0.1-0.4-0.3-0.4 0 0 0.1-0.1 0-0.2 0.6-0.2 0.2-0.3 0.4-0.5 0.1-0.4-0.1-0.1 0-0.1 0-0.2 0.5-0.2 0-0.3-0.1-0.4 0.5-0.3 0.3 0 0.1-0.1 0.1-0.1 0.5-0.1 0.1-0.2 0.1-0.3 0.2-0.1 0.2-0.6 0.2-0.2 0.2 0 0.4 0.1 0.6-0.2 0.8-0.1 0.6 0.2 0.6 0 0.3 0.1 0.2-0.1 0.2-0.1 0.3 0.1 0.5-0.1 0.3-0.2 0.1 0 0.1 0 0.1 0.3 0.5 0 0.3-0.1 0.6 0.1 0.4 0 0.1-0.1 0.1-0.2 0.1-0.1 0.3-0.3 0.2-0.3 0.1 0 0.1-0.2 0.2-0.1 0.1-0.3 0.3-0.3 0-0.1-0.1-0.1-0.1-0.1 0-0.1-0.2-0.3-0.4-0.1 0-0.2 0-0.1 0.1 0 0.1 0 0.2 0 0.3-0.1 0.8 0.1 0.9 0 0.1-0.1 0.1-0.3 0.7 0.2 1.1 0.2 0.9 0 0.4-0.1 0.5-0.1 0.3-0.4 0.5-0.1 0.1 0 0.1 0 0.2-0.2 0.8 0 0.1 0.1 0.3 0.2 0.2 0.6 1.1 0.3 0.3 0.3 0.2 0.3 0.3 0.1 0.2 0 0.1 0 0.1 0 0.2 0.4 0.5 0 0.3-0.3 0.6 0.1 0.2 0.1 0.2 0.5 0.1 0.2 0 0 0.1 0 0.3-0.2 0.4-0.9 0.8-0.4 0.4-0.1 0.6 0 0.1 0 0.2 0 0.7-0.7-0.2-0.2 0.5-0.1 0.1 0.1 0.2 0 0.1 0.3 0.6 0.2 0.3 0.2 0.3-0.1 0.3 0 0.1-0.3 0.2-0.1 0.4-0.2 0.2-0.2 0.1-0.1 0 0 0.1-0.5 0.9-0.2 0.1-0.2 0-0.5 0-0.3-0.1-0.2 0-0.1 0-0.3 0.5 0.3 0.2 0 0.1-0.1 0.1-0.2 0.1-0.1 0.1-0.1 0-0.4 0.1-0.1 0-0.2 0.2 0.1 0.1 0.1 0.1 0.2 0.1 0.1 0 0.2 0.3 0.1 0.2 0 0.1-0.1 0.2-0.2 0.1-0.1 0-0.7-0.1-0.5 0.1-0.1 0.1-0.2 0.1-0.1 0-0.1 0.1-0.2-0.1-0.1 0-0.3 0.2-0.7 0.2-0.1 0.1-0.7 0.3-0.1 0-0.3 0-0.1 0 0 0.1-0.1-0.1-0.1-0.1-0.2 0-0.1 0-0.4 0.1-0.1 0-0.1 0-0.4 0.2-0.3-0.2-0.1-0.1-0.1-0.1-0.1-0.1-0.1-0.4-0.3-0.1-0.2 0-0.1 0-0.8 0.7-0.4 0.7-0.2 0.4-0.1 0.2 0 0.1-0.3 0.1-0.1 0.1-0.6 0.8 0 0.1-0.2 0.3-0.2 0-0.2 0.1-0.3 0.2-0.4 0.4 0.2 0.2 0 0.2 0 0.1-0.1 0.4-0.1 0.1-0.3 0.3-0.4 0.1-0.3 0.2-0.1 0.3 0.1 0.1 0.1 0.2 0.1 0.1 0.1 0.2 0 0.1-0.1 0.3 0 0.4 0 0.1 0.1 0.2-0.1 0.1 0 0.1-0.1 0-0.1 0-0.3 0-0.2 0.1 0 0.2-0.2 0.3 0.1 0.3 0 0.3-0.1 0.1-0.1 0.2-0.1 0.1 0 0.1-0.1 0.2-0.1 0.1-0.3-0.1-0.2-0.1-0.2 0.2-0.3 0.2-0.2 0.2-0.2 0.3-0.1 0.3 0.1 0.5-0.1 0.2-0.3 0.2-0.2 0.7-0.4 0.5-0.5 0.4-0.2 0-0.2 0-0.3-0.2-0.1-0.1 0 0.1-0.1 0.2-0.1 0.2-0.2 0.6-0.4 0.2-0.2 0.1-0.2 0-0.1 0-0.1 0-0.2-0.3-0.1-0.1-0.4 0-0.1 0-0.1-0.1-0.1-0.3-0.1-0.4-0.4-0.2-0.2 0.9-0.1 0.1-0.1 0.1 0 0.1-0.2 0-0.1-0.1-0.1-0.1-0.1-0.2-0.2-0.1-0.1 0 0-0.1-0.1-0.2-0.1-0.2-1.1-0.4-0.1 0-0.4 0.2-0.1 0.2-0.1 0.6-0.4 0.3 0 0.3-0.3 0.2-0.2 0.2-1 0.3-0.2 0.2 0.1 0.4-0.1 0.3-0.3 0.2-0.2 0.1-0.1 0.1 0 0.1 0.2 0.8 0 0.1 0 0.1-0.1 0.4-0.1 0.2-0.1 0.1-0.1 0.1-0.1 0.4-0.4 0.1-2.6 1.7-0.2 0.2-0.2 0.2-0.6 0.8-0.1 0.3-0.2 0.5 0 0.4 0.1 0.4 0 0.1 0 0.1-0.2 0.5-0.3 0.3-0.1 0-0.1 0.1-0.7 0.4-0.1 0-0.3 0-0.3-0.1-0.2 0-0.1 0-0.6 0.7-0.3 0-0.2-0.2-0.3-0.2-0.3-0.1-0.2-0.1-0.3 0.1-0.2 0.1-0.3 0.2-0.1 0.3 0.1 0.1 0 0.2 0.1 0.2 0.1 0.2 0.5 0.6 0 0.1 0 0.1 0 0.1-0.1 0.2-0.3 0.2-0.3 0-0.2 0-0.3-0.1-0.1 0-0.2-0.1-0.4-0.4-0.4-0.4-0.2 0.4 0 0.2 0 0.1 0.1 0.4 0.2 0.3 0.2 0.3 0.2 0.5 0 0.1-0.1 0-0.1 0.2-1.1 0-0.4-0.2-0.1-0.1-0.1 0-0.1 0.2 0.1 0.3 0.1 0.1 0.1 0 0.4 0.1 0.4 0 0.2 0.1 0.1 0.1 0.2 0.2 0.1 0.1-0.1 0.2-0.1 0.1-0.1 0.1-0.4 0.4-0.3 0.3 0 0.2 0.3 0.2 0.3 0.1 0.1 0.1 0 0.1 0.1 0.1-0.1 0.3-0.1 0-0.2 0.1-0.3-0.1-0.1 0-0.3-0.1-0.2 0-0.1 0-0.2 0.3 0.1 0.1 0 0.1 0.2 0.1 0.8 0.1 0.1 0.2 0.1 0.2-0.1 0.3 0 0.1-0.4 0.1-0.2 0.1-0.9-0.2-0.4 0.1-0.1 0.1-0.1 0.1 0.1 0.6 0.1 0.6 0.1 0.2 0 0.1 0 0.4-0.1 0.2 0 0.2 0 0.1-0.1 0.2-0.2 0.1-0.2 0.1-0.4-0.4-0.3-0.1-0.1 0.1-0.1 0-0.1 0.2-0.1 0.2 0 0.4 0 0.1 0 0.1-0.3 0.5 0 0.2 0.1 0.2 0.1 0.2-0.2 0.3-0.1 0.1-0.1 0-0.2 0-0.3-0.1-0.2 0-0.1 0-0.1 0-0.1 0.1-0.1 0-1 0.1-0.1 0.1-0.1 0.1 0.2 0.3-0.1 0.1 0 0.1-0.3 0.2-0.3 0.5 0 0.1 0.1 0.1 0 0.3 0 0.1-0.1 0.1-0.1 0.1-0.3 0.1-0.1 0-0.1 0-0.2-0.2-0.2 0.1-0.3 0.2 0 0.1-0.5 0.5-0.2 0.4-0.1 0.7 0 0.2 0.1 0.1 0 0.2 0 0.2 0 0.4-0.4 0.1-0.1 0-0.4-0.3-0.3-0.5-0.1 0-0.3 0-0.3 0.1-0.5 0.5-0.2 0.2-0.6 0-0.1 0.2 0.1 0.2 0.1 0.4-0.1 0.1 0 0.2-0.1 0.1-0.3 0.3-0.4 0.1-0.3 0-0.2-0.1-0.1 0-0.1 0-0.4 0.2-0.1 0-0.2 0.1-0.5-0.3-0.4 0-0.1 0.1-0.3 0.2-0.2 0-0.5-0.2-0.2 0-1.2 0.1-0.2 0.1-0.5 1.3-0.1 0.3 0 0.7-0.1 0.4 0 0.1-0.1 0.2-0.2 0.1-0.2 0-0.6 0-0.1 0-0.1 0.1-0.1 0.2 0.1 0.2 0.1 0.1 0.5 0.2 0.2 0.1 0 0.1-0.1 0.2-0.6 0.1-1.3 0-0.1 0-0.1-0.2-0.1-0.2-0.2-0.3-0.4-0.2-0.1-0.3-0.1-0.1-0.1-0.1-0.1 0-0.1-0.1-0.1 0.1-0.1 0.1-0.2 0.4-0.1 0.1-0.1 0-0.4 0.1-0.4-0.3-0.2-0.1-0.3 0.2-0.2 0-0.2-0.2-0.1 0-0.2 0-0.1 0-0.2 0.3 0.1 0.4 0 0.3 0 0.1 0 0.2-0.2 0.3-0.3 0.2-0.5 0-0.2 0-0.5-0.2 0 0.1 0 0.1-0.3 0.4 0.1 0.3 0.3 0.7 0 0.1 0 0.3-0.1 0.1-0.7 1.6-0.7 1.1-0.1 0.4-0.3 1-0.4 1.2 0 0.1-0.3 0.4-0.3 0.3-0.6 0.3-1.3 0-0.5 0.1-0.4 0.1-0.2 0.1-0.1 0-0.3 0.3-0.1 0.1-0.1 0.1-0.8 0.3-0.6 0.3-0.2 0-0.2 0.1-0.5-0.4-0.1 0.1-0.2 0-0.2 0.2-0.2 0.2-0.3 0.1-0.8 0.1-1.1 0-0.1 0-0.1 0-0.3 0-0.5-0.1-0.1 0-0.1-0.1-0.8-0.4-0.1-0.2-0.4-0.6-0.5 0-0.4-0.3-0.8 0.1-0.8 0.6-0.2 0.1-0.5 0-1.4-0.1-0.3 0 0-0.1-0.5 0.2-0.3 0-0.2 0-0.5-0.2-0.1 0-0.1-0.1-0.2-0.1-0.1-0.1-0.1-0.2 0-0.2-0.2-0.1-0.1 0-0.2 0-0.4 0.3-0.3 0.6-0.3 0.3-0.3 0.1-0.3 0-0.2-0.2-0.1 0-0.4-0.3-0.3-0.1-0.3 0.1 0 0.1-0.6 0.6-0.4 0.1-0.5 0-0.1 0-0.3 0-0.1 0.2 0 0.2 0 0.4 0 0.2-0.1 0.1 0 0.1-0.1 0.1-0.1-0.2-0.1-0.1-0.2-0.2-0.1-0.2-0.5 1z" id="TDSA" name="Salamat">
  </path>
  <path d="M361.2 802.4l1.9 0.4 13.8 0.1 5.5-3.6 1 1.6 1.1 0.1-0.1 1.2-0.2 1.1 0.1 0.6 0 0.6 0.4 1.4 0.7 0.7 0.5 0.9-0.1 1.3 0.9 1.3 0.7 0.1 0.5 0.1 0.4 0 0.3 0 0.9 0.1 1.3 0.7 0.4 1 0.7 0.1 0.6 0.1 0.3 0.9 0.1 0.3 1.8-0.2 2.2 0.6 2 0.5 0.5 0.2 1 0.5 0.9 0.5 0.7 1.5 1.6-0.2 3.7 0.2 3.2 0.8 3.6 0.6 1.3 2.7 1.6 0.8 2.1 0.9 3.6 0.7 3.2 0.1 4.3 2.2 0.1 0.1 1.5 1.1 1.8 1.3 1.7 1.7 2.1 2.1-0.9 2.7-0.5 0.7-0.6 0.8-2.6-1.1-1.2-1.4-1.9 0.5-1.3 0.7-0.5 0.1-3.2 0.7-0.1 0-2.2 0.6-1.5-0.3-2.1 0.2-2.2 1.1-0.1 0 0.4 1.8 1.1 1.4 1.2 1.5-1.6 1.2 0.1 2.7-0.1 2.2-1.5 1.5-6.9 5.2 8.1 5.2-2.5 2.5-1.8 1.9-0.5 0.5-0.1 0-5.6 1.1-0.9 0.2-0.2 0-1.3 0.3-7.2-0.8-4.5-0.4-3.2-1.5 0-0.1-0.1 0-1.5-0.7-1.7 0.4-1.1-0.7-0.5-0.4-1.5-1.3-1.4-0.2-1.5 0-4.2 1.1-2.2 0.8-0.7-1.8-0.1-1.7-1.7-1.6-0.9-1.9-1.6 1.1-2.7 2.5-0.5 0.3-1.7 0.4-0.3 0.1-1.4 0.6-0.7 1.8-0.8 1.3-1.6 1-1.4-0.2-0.6-0.3-1.3-0.5-2.9-1.7-3.3 0-1.3 0.8-0.1 0-0.2 0.7-1.4 2.2-1.9 0.5-1.9 0-2.2 0.8-2.2-0.7-3.6 0-3.3-0.6-2.7 1.6-1.6 0.5-7.2-2.1-0.5-1.7 0-2.3 0.1-2.4-0.7-1.8 1.3-1.8 1.6-2.6 0.5-1.6 2-2.5 0.7-0.9 0.8-0.9 0.4-0.6 1.7-1.7 0.1-0.2 1-0.8 0.3-0.3 0.1-0.1 0.3-0.2 2.5-2.1 0.5-1.1 0.1-0.2 0.1-0.9 0.2-2.3 1.8-0.9 0.6-3.6 0.1-0.3 0-0.2 1.5-1.8 2.1-0.9 0.3 0.3 0.2 0.2 0.3 0 0.8 0 1-0.1 0.7 0.3 0.6 0 0.9 0.6 0.4 1.4 0.3 0.2 1.1 0.9 0.5 0.1 0.5 0 1.5-0.4 0.6-0.2 0.6-0.4 0.9-0.7 1.9-0.9 1.9-2.2 1.5-1.1 0.1-0.2 0.5-0.7 1.7-1.9 0.9-1.6 0.3-0.7 0.4-0.6 1-1.2 0.9-1.4 0.9-2.1 0.6-2 0.9-1.2 1-1.4-1.1-3-0.1-1.1 0-1.6-0.2-2.6-1.4-0.9-0.6-0.4-0.2-0.1-0.1-0.2z" id="TDTA" name="Tandjilé">
  </path>
  <path d="M572.4 586l-0.3-25.3-0.7-64 0-4.6 0 0.1 2.9 0.8 8.4 5.4 3.8 0.8 4.6-1.3 5-0.8 2 1 0.8 0.5 0.5 0.2 2.1 0.7 2.5 0.9 1.5 0.3 0.9 0.2 0.2 0 2.4 1 5.5-1.9 0.7-0.4 5.3-2.5 2.2-1.1 1.6-0.7 4.9-2.4 0-0.1-0.1-2.7 0-2.5 0-0.4 4.2-2.4 0.7-0.4 5.5 0.3 3.6-0.5 2.9 0.7 0.8 0.1 1.5-0.8 1.7-1 4.7 0.2 6.4 0.3 0.6 0 4-0.4 4.7-1.4 0.7-0.1 3.7-1.1 0.1 0 0.4-0.1 1.9-1.2 0.1 0 1.8-1.1 2.8 1.1 0.2 0.1 0.1 0 4.5 1.4 1.5 0.5 3.4 1 4.3 1.5 0.3 0.5 2 3.6 4.8 1 3 1.3 6.1 2.6 4.2 2 3 2.5 1.2 1.3 1.5 1.1 1.7 1.1 2.9 3.3 1.7 2 0.1 0.2 0 0.1 0.1 0 0.3 1.1 0.1 0.1 0.4 0.5 0.4 0.2 0.6 0.4 0.5 0.5 0.4 0.5 0.1 0 0.1 0.1 0 0.2 0.2 0.1 0 0.1 0.1 0 0.1 0.2 0.2 0 0.3 0.3-0.1 0.7 0.1 0.6 0 0.3 0 0.4 0 0.2 0.1 0.4 0.2 0.7 0.2 0.8 0.2 0.6 0 0.3 0 0.3 0 0.4 0 0.2-0.1 0.2-0.1 0.3-0.2 0.2 0 0.1-0.2 0.1-0.1 0.6 0 0.6 0 0.2-0.1 0 0 0.1-0.1 0.1 0 0.1 0 0.2 0.1 0.1 0.3 0.4 0.3 0.2 0.1 0.2 0 0.4-0.2 0.5-0.1 0.2-0.1 0.1-0.3 0.3-0.3 0.4 0 0.1-0.2 0.4-0.1 0.3-0.1 0.2-0.5 0.4-0.3 0.2-0.5 0.1-0.3 0.2-0.4 0.2-0.1 0.1-0.1 0.3-0.1 0-0.2 0.5-0.2 0.9 0.1 0.3 0.2 0.4 0.2 0.3 0.1 0.6-0.1 0.3 0 0.2-0.2 0.3-0.1 0.2-0.6 0.2-0.6 0-0.6-0.1-0.6 0.1-0.1 0.1-0.3 0.1-0.4 0.1-0.2 0.1-0.3 0.2 0 0.3-0.1 0.2 0 0.2 0 0.2 0 0.2-0.9 0.9-0.2 0.1-0.5 0.1-0.3 0.1-0.6 0.3-0.1 0 0 0.2-0.2 0.3-0.1 0.3-0.3 0.1-0.1 0.2-0.1 0.2-0.2 0.5-0.7 0.7-0.4 0-0.1 0 0 0.1-0.1 0.1-0.1 0.1-0.3 0.3-0.2 0.2-0.4 0.4-0.2 0.6 0 0.2 0 0.2 0.1 0.6 0 0.1 0.1 0.5 0.1 0.1 0 0.1 0 0.3 0.1 0.5 0.2 0.3 0.1 0-0.1 0.1-0.9 0.5-0.1 0-0.3-0.2-0.5 0-0.6 0.1-0.2 0.1-0.2 0.1-0.3 0.2-0.3 0.2-0.7 0.5-0.1 0.1-0.2 0.1 0 0.1-0.3 0.5-0.1 0.3-0.1 0.2 0 0.2-0.3 0.4-0.1 0 0.2 0.4 0.1 0.4 0.2 0.5 0.6 1.8 1.6 3.7 0.2 0.5 0 1.1-0.2 0.2-7.2 2.7-3.3 0.2-0.1 0-0.1 0.1-0.4 0-0.2 0.2-0.3 0.2-0.3 0.1-0.4 0.1-0.3 0.1-0.5 0.3-0.4 0.4-0.5 0.2-0.6 0.5-0.2 0.2-1.6 0.1-0.1 0.1-0.2 0.6-0.7 2.2-0.5 1.6 0 0.2 0.1 0.1 0.3-0.1 0-0.1 0-0.1 0.1-0.1 0.1 0 0.2 0.1 0.1 0.1 0.8 0.5 0.2 0.1 0.8 0.4 0.6 0.8-0.1 1.3-0.2 1.8-0.1 1.2 0.2 1.1 0 0.8 0.2 0.5 0.3 0.4 0.3 0.5 0.2 0.6 0 0.4-0.1 0.2-0.1 0.1-0.2 0.1-0.2 0.1-0.9 0.6 0 0.2-0.1 0.3-0.1 0.4 0.1 0.3 0.1 0.1 0.3 0.2 0.3 0.7 0.7 0.6 0.1 0.2 0.3 0.6 0.3 0.3 0.1 0 0.3-0.1 0.1-0.1 0.5 0.1 0.5 0.1 0.1 0 0.1 0 0.5 0 0.1 0 0.1 0 0.6 0.2 0.6 0.1 0.4 0 0.3 0.2 0.1 0.1 0.1 0.1 0.1 0.2-0.2 0.6 0.2 0.7 0 0.1 0.6 0.6 0.1 0.1 0 0.1 0.2 0.2-0.2 0.5-1.2 2.7-0.2 0.6-0.2 0.4-1.9 0.2-0.5 0-0.3 0.1-1 1.1-1 1.2-0.5 0.6-0.3 0-0.1 0-0.2 0-1.9 0-2 1.7-0.2 0.1-0.1 0-1.7 0.5 0 0.1-0.4 0.7-0.9 1.6-0.1 0.3-0.1 0-0.5 0-1.4 0.2-0.8 0-0.5 0.2-0.4 0.2-1 1.3-0.7 0.8-0.3 0.3-0.1 0-1-0.4-2.2-1.6-2.3-1.2-3.9-1.2-1.9-0.7-11.2-3.3-5.8-1.8-4.7-0.4-1.6-0.1-2.8-0.8-3.7-0.6-3 0.8-3.7 2.5-3.3 1.6-2.5-1.8-0.6-0.5-0.9-0.3-2.1-0.6-1.8-1.8-0.4-0.2-1-0.4-2.8-0.2-1.5-0.6-2.3-2.5-2.2-3-4.2-3.9-4.3-2.7-2.7-0.7-3-0.9-3.1-1-4 0.9-2.5 1.2-7-0.6-3.8 3.5-2.6 1.4-1.7 2.2-1.3 1.8-1.9 2.7-0.9 1.3-3.9 4.2-0.1 0.1z" id="TDWF" name="Wadi Fira">
  </path>
  <path d="M291 692.2l0.2-0.2 1.8-0.9 3-0.5 0.7 0 1.5 0 0.5 0.3 0.3 0 1.5 0.8 0.8 0.7 0.8 0.7 0.5 0.4 0.6 0.5 0.8 0.9 0.4 0.4 0.5 0.8 0.4 0.9 0.3 1.5-0.3 1.5-0.4 0.6-0.3 0.2-0.5 0.6-0.7 0.7-0.3 0.3-0.7 0.3-1.1 0.3-0.3 0.1-0.4 0 0 0.1 0-0.1-0.1-0.2-0.1-0.1-0.3-0.2-0.1 0-0.2 0-0.6-0.1-0.1 0-0.3-0.2-0.1-0.2 0-0.1-0.1-0.1 0.1-0.5 0-0.2 0.1 0 0.1-0.1 0.2-0.3 0.1-0.4-0.1-0.3-0.1-0.4-0.2-0.3-0.1-0.1-0.1-0.2-0.4-0.1-0.1 0 0.2-0.6 0.3-0.4-0.6-0.5-0.5-0.4-1-0.4-0.9 0.1-0.1 0-0.9 0.7-0.6 0.1-0.3-0.2-0.5-0.4-1.2-1.5-0.9-0.6-0.5-0.3-0.2-0.3-0.1-0.1-0.2-0.8 0.3-0.3 0.4-0.1 0.2-0.3 0-0.5z" id="TDND" name="N'Djamena">
  </path>
  <path d="M459.4 505.3l-22.3 98.8-17.2 5.5-2 13.2 0.4 12.2-4.4 6.2-3.3-1.9-2-0.2-2.2-1.1-1.4 1.1-5.3 1.6-3-1.6-3.2 1.5-1.4 1.1-11.7 1.2-3 0.8-1.3 1.2-2.4-0.6-3.5-0.4-5.4 0.9-2.6-0.3-1.9 1-3.9-0.5-6-0.7-0.4-2-1.4-2.4-3-2.8 1-1.9 0.4-7.4-0.1-6.3-0.8-2.7-1.5-2.7-0.9-3.8 0.4-2.5 0.3-0.8 0.3-0.6 0-2.4-0.5-1.2-3-0.3-3.1-0.3-0.6 1.1-6.3 0.2-2.4-0.8 0.2-7.2 0.7-8.7 9-8.1 6.9-5.3 4.1-3 1-2.1 4.9-10.3 12.6-26 46.2-58.5 37.3 17.6 3.8 7.1 3.9 5.1z" id="TDBG" name="Barh-El-Gazel">
  </path>
  <path d="M696.9 229.9l1.9 1 6.7 3.5 6.8 3.6 6.7 3.5 6.8 3.6 6.7 3.5 6.8 3.5 6.7 3.6 6.8 3.5 6.7 3.6 6.8 3.5 6.7 3.5 6.7 3.6 6.8 3.5 0-0.7 1 0.5 0 172.5 0 2.4 0 24.9 0 1.4 0 1.1 0 1.8 0 3.3 0 5.5 0 0.6 0 2.2-0.1 1.3-0.3 0.1-0.7 0-0.7 0-1-0.1-0.8-0.2-1-0.3-1-0.2-1-0.1-0.4-0.1-0.3 0-0.3-0.2-0.7-0.4-0.8-0.4-1-0.3-1.7 0-0.7 0-0.4 0.1-1 0-0.7-0.1-0.2 0-0.3-0.1-0.1 0-0.2-0.1-0.3-0.1-0.7-0.1-1.3-0.2-1.5 0-0.3 0-0.4 0-0.6-0.1-0.1 0-0.3 0-0.8 0-0.5 0.1-0.6 0-0.5 0.1-0.3 0.1-0.3 0-0.1 0-0.8 0.2-0.2 0.1-0.7 0.2-0.9 0.3-0.5 0.2-0.3 0.1-1 0.5-0.6 0.3-0.2 0.2-0.8 0.3-0.1 0.1-0.1 0.1-0.2 0.2-0.2 0-0.7 0.2-0.4 0.1-0.8 0.2-0.2 0-0.2 0-0.1 0-0.4 0.1-0.3 0.1-0.3 0-0.5 0-0.3 0.2-0.2 0-0.3 0-0.4 0-0.5 0.1-0.4-0.1-0.3 0-0.4-0.1-0.3 0-0.4-0.1-0.1 0-0.7-0.2-0.3 0-0.1-0.1-0.1 0-0.5-0.1-1.1 0-0.2-0.1-0.7-0.1-0.3-0.1-0.4-0.1-0.2 0-0.3 0-0.3 0-0.3-0.1-0.1 0-0.3 0-0.1 0-0.4 0.1-0.6 0-0.4-0.1-0.1-0.1-0.4 0-0.7-0.1-0.4 0.1-0.5-0.1-0.1 0.1-0.3 0-0.2 0-0.4 0.1-0.4 0.3-0.1 0.1-0.1 0.1-0.2 0.1 0 0.1-0.2 0.2-0.1 0.2-0.1 0.2 0 0.1-0.1 0.1-0.4 0.6-0.2 0.3-0.2 0.1-0.3 0.1-0.1 0.2-0.2 0.1-0.1 0-0.1 0.1-0.2 0.1-0.2 0.3-0.1 0.2-0.3 0.3-0.2 0.5-0.2 0.2-0.2 0.3-0.2 0.2-0.2 0.2-0.1 0-0.1 0.1-0.3 0.2 0 0.1-0.3 0.3-0.2 0.2-0.2 0.2-0.2 0.2-0.2 0.1-0.1 0.1-0.4 0.3-0.2 0.2-0.4 0.1-0.3 0.1-0.3 0.1-0.2 0 0 0.1-0.3 0.1-0.1 0.1-0.1 0-0.2 0.2-0.1 0-0.1 0.2-0.2 0.2-0.3 0.2-0.1 0.2-0.2 0.1-0.1 0.1-0.1 0.2-0.1 0.3 0 0.3 0 0.2 0 0.3 0.1 0.3 0 0.1 0 0.6 0 0.2 0 0.3-0.4 0.6 0 0.2-0.1-0.2-1.7-2-2.9-3.3-1.7-1.1-1.5-1.1-1.2-1.3-3-2.5-4.2-2-6.1-2.6-3-1.3-4.8-1-2-3.6-0.3-0.5-4.3-1.5-3.4-1-1.5-0.5-4.5-1.4-0.1 0-0.2-0.1-2.8-1.1 2-17.4 5.1-2 10-13.5-3.1-5.9-0.2-0.4 3.3-2 1.2-2.7-0.5-204.5z" id="TDEE" name="Ennedi Est">
  </path>
  <path d="M703.6 758.5l-0.1-0.1-16.3-35.2-7.8-1.3-3.7-2.7-21.5 4.4-8.6 1.5-12.8 2.2-3.9 0.8 0.1-5.3-2.3-1.3-5.6-2.8-17.2-9-0.3-0.1-15.6-7.7-2.4-1.1-0.8 0.1-1.3 0.2-1.5-0.7-4.9 0.3-6.2 0.5-0.9 0-0.2 1.4-0.2 1 0 0.1-2.2 1-2.7 0.3-0.5-3.7 0-0.2-0.3-0.6-1-2.2 0.1 0 0.8-2.2 1.9-7.1 3.4-7.8 4.4-6.1 3.9-2.1-2.2-4.6 3.3-6.3 1.7-0.1 2.1-2-0.7-2-3.7-2.1-2.5-2.5-3.9-3 15.6-3.7 1.4-1 0-0.1 0-1.9 0-0.2 0.1 0 4.8 1.4 1.3 0.4 1.3 0.4 2.5 0.4 4 0.2 2.7 0 5.5-0.5 0 2.2 0.5 2.6-0.4 2.4-0.1 0 0.5 0.1 1 0.1 3 1.1 2.3 0.4 1.5 0.3 1.4 3-0.6 2.7 0.1 3.2 4.9 2 3.6 1.4 0.6-0.5 0.7-0.4 1.5 0 4.7-1.1 2.4-0.1 2.4 0.3 2.5 1.1 1.6-1.8 1.1-1.5 0.4-0.6 0.3-0.3 1.1-0.7 2.4-2.5 3-1.7 3.2-1 2.6-1 1.9-0.9 3.4 1.9 1.8 0.6 2.1 0.4 0 0.1 0.1 0 0 0.1 0 0.1 0.1 0.1 0.3 0.1 0.3 0.2 0.1 0.1 0.2 0.2 0.2 0.4 0.2 0.3 0.4 0 0.2 0.1 0.4 0.4 0.1 0.4-0.1 0.2 0 0.1-0.1 0.1-0.1 0.4 0 0.1 0 0.2 0 0.1 0 0.2 0 0.1 0.1 0.1 0.1 0.1 0.2 0.3 0.3 0.3 0.1 0.1 0.4 0.4 0.2 0.1 0.2 0.2 0.1 0.2 0 0.1 0 0.1 0 0.3 0.3 0.6 0.1 0 0.3 0.2 0.6 0.2 0.8 0.8 0 0.1 0.1 0.3 0 0.1 0 0.1 0.2 0.1 0.1 0.1 0.3 0.1 0 0.2 0.1 0 0.2 0.3 0.1 0.3 0 0.1 0 0.2 0.1 0.1 3-0.7 0.3 0 0.3-0.1 0.2-0.1 5-1.2 0.1 0 2.2-0.6 2.4-2.1 0-0.1 0-2.4 1.1 0.6 0.2 0.2 2.7 1.6 1.4 0.8 0.7 0.4 0.2 0.1 0.1 0 0.8 0.4 4 1.8 2 0.6 1.2 0.3-0.1 0.4-0.6 1.8-1.1 3.1 0 0.8 0 0.1 0 0.3 0 0.1 0 0.1-0.2 0.1-0.1 0-0.1 0 0 0.1-0.1 0.2-0.1 0.1-0.1 0.4-0.2 0.2-0.2 0.3-0.2 0.2-0.2 0.2 0 0.1-0.1 0.2-0.1 0.1-0.2 0.1 0 0.1-0.1 0.1-0.1 0.3 0 0.1 0 0.1-0.2 0.1-0.6 0.4-0.1 0-0.3 0.3 0.4 0.8 0.6 0.2 0.2-0.2 0-0.1 0.1 0.1 0.7 0.5 0.1 0.3 0 0.2 0.3 0.2 0.1 0 0.2 0.3 0.1 0.3 0.2 0.2 0.1 0.1 0.1 0 0 0.1 0.3 0.1 0.1 0.2 0.2 0.3 0 0.1 0 0.1-0.1 0.1-0.4 0.1 0 0.1 0.1 0.4 0.1 0.3 0 0.1 0.1 0.3-0.2 0.3 0.3 0.3 0 0.2-0.1 0 0.1 0.3 0 0.4 0 0.1 0.1 0.1 0.3 0.7 0.1 0.1 0.3 0.4 0 0.1-0.1 0.1-0.1 0.1 0 0.1-0.1 0.2 0 0.3 0 0.1 0.1 0 0 0.1 0.5 0.2 0 0.1 0 0.1 0 0.1-0.2 0.3 0 0.1 0.1 0.1 0.3 0.4 0.4 0.5-0.1 0.2 0.2 0.2-0.1 0.2 0 0.1 0.1 0 0.3-0.2 0.1 0 0 0.1 0.1 0.3 0.1 0.1 0 0.2 0.1 0.2-0.1 0.3 0 0.1 0.1 0.1 0.3 0.3 0.1 0.2 0.1 0.6 0.1 0.3 0.1 0.2 0 0.2-0.1 0.2 0 0.1 0 0.2 0.1 0.2 0.3 0.3 0 0.1-0.1 0.4 0 0.3-0.1 0.4 0 0.7-0.2 1.1-0.2 0.6 0 0.2 0 0.8-0.2 0.1-0.2 0-0.1 0.1 0 0.3 0 0.1 0.1 0.1 0.1 0.1 0 0.2-0.3 0.4 0.1 0 0.1 0.4 0 0.2 0 0.5-0.1 0.1 0.1 0.1 0.6 0 1-0.2 0.3-0.2 0.1-0.1 0.2-0.2 0.1-0.1 0.2-0.2 1.1-0.4 0-0.1 0.2 0 0.1 0.1 0.2 0.1 0.1 0.1 0.1 0 0.5-0.1 0.8-0.2 0.3-0.1 0.1-0.2 0.3-0.2 0.1 0.1 0.1 0 0.2 0.3 0.1 0 0.8 0.3 0.3-0.2 0.3-0.6 0.1-0.1 0.2-0.1 0.3 0.2-0.2 0.5 0 0.2-0.1 0.1 0 0.1-0.8 3.6-0.5 2.2-1.1 4-0.4 1.5-0.3 1.9-0.5 2.7-0.2 1.2 0 0.1-0.5 2.3 0 0.5 0.1 0.2 0 0.1 0.1 1.9 0.2 1.4 0.1 0.3 0.2 0.3 0.3 0.5 0.6 0.8 0.1 0.1 0.8 1.3 0.4 0.4 0.4 0.5 0.6 0.6 0.5 0.5 0.5 0.5 0.4 0.3 0.2 0.2 0.2 0.2 0.5 0.2 0.3 0.1 1.2 0.4 1.4 0.4 0.8 0.3 0.2 0.1 1.2 1 0.1 0.2 0.3 0.3 0.1 0.2 0.7 0.9 0 0.1 0.1 0.2 0.1 1.6 0 0.1 0.1 0 0.1 0 2-0.5 4.5-0.4 1.7-0.2 0 0.4-0.2 2.5-0.1 2.2-0.1 0.7 0.3 0.2 0.9 0.3 0.7 0.3 0.7 0.3 0 0.3 0.1 0.4 0.1 2.2 0.1 0.8 0 0.1 0 0.7-0.1 0.3 0 0.1-2.1 4.4-0.9 1.9-0.1 0.5 0 0.1-0.1 0.3-0.1 0.4-0.9 2.8-0.2 0.7-0.3 0.6 0 0.2-0.4 0.9-0.6 2.3-0.1 0.1-0.2 0.5-0.5 0-0.7 0-0.3-0.2-1.7 0-2.3-0.6-0.2 0.1-0.1 0-0.3-0.2-0.2-0.1 0-0.2-0.1-0.2-0.1-0.1 0-0.2-0.1-0.1-0.6-0.4-0.2-0.1-0.3-0.1-1.3 0.2-0.4-0.1-0.3-0.2-0.2 0.1-0.5-0.2-0.1-0.1-0.1 0-0.6 0-0.8 0-0.3-0.1-1-0.5-1.1-0.4-0.2 0-0.2 0.1-1.2 0.3-0.3 0.2-0.1 0.1-0.1 0-0.2 0.1-0.1 0-0.4-0.2-0.5-0.4-1.7-0.7-0.3 0-0.3 0-0.1 0-0.6 0.2-0.2 0.3-0.1 0-0.3-0.1-0.4 0-0.1-0.1-0.4 0.1-0.3 0z" id="TDSI" name="Sila">
  </path>
  <path d="M622.6 190.6l-26.6 57-53.8-0.1-0.2 78.1-17.2 0.3-0.4 0-15.6-1.1-6.7-9.1-123.2 0.3-54.5 105.9-0.8 1.5 0.1-1-0.1-0.4 0.1-0.2 0.1-0.5-0.1-0.8 0-0.5 0.1-1 0.1-0.9 0-1.9 0-0.7 0.1-0.8 0.1-2.3 0.1-1.1 0.1-0.5-0.1-0.2 0-0.8 0.1-0.8 0.1-1.9-0.1-0.4 0.1-1 0.2-1.9-0.1-1 0-0.2 0.1-0.8 0.1-3.3 0.2-3.9 0.4-7.2 0-1.2 0-0.3 0-0.3 0.3-4.5 0-0.9 0.1-0.2-0.1-0.2 0-0.4 0.2-2.7 0-0.1 0.1-1.8 0-0.1 0-1.5 0.1-0.2 0.1-0.7 0-0.2-0.1-0.6 0.1-1.6 0-1.8 0.1-0.3 0-0.3 0.1-1.8 0.1-2.5 0.5 0 0.2-2.1 0.2-2.6 0.2-2.6 0.2-2.7 0.3-2.6 0.2-2.6 0.2-2.6 0.2-2.7 0.2-2.6 0.2-2.6 0.3-2.6 0.2-2.7 0.2-2.6 0.2-2.6 0.3-2.7 0.2-2.6 0.2-2.6 0.2-2.7 0.2-2.6 0.2-2.6 0.3-2.6 0.2-2.7 0.2-2.6 0.2-2.7 0.3-2.6 0.2-2.6 0.2-2.7 0.2-2.6 0.2-2.7 0.3-2.6 0.2-2.6 0.2-2.7 0.2-2.6 0.2-2.7 0.3-2.6 0.2-2.7 0.1-1.7 0.1-0.9 0-0.1 0-0.4 0.2-0.3 0.1-1.1 0.2-1.9 0.1-0.8-0.1-0.3 0.1-0.2 0.1-0.3 0-0.3 0.1-0.4 0.3-2.2 0.1-0.8 0.1-0.4 0.4-3.3 0-0.1-0.1-0.3 0-0.2 0-0.1 0.2-0.6 0.2-1.5 0.2-0.2 0.2-0.4 1.4-2.4 2.3-4 0.3-0.5 0.2-0.3 3.1-5.6 1-1.7 0.2-0.4 3.6-6.4 0.5-1 0.3-0.4-0.5-0.5-0.3-0.2-3.2-3.1-0.2-0.2-1.3-1.1-1.3-1.4-1-1.2-0.9-1.4-0.3-0.3-0.8-1.2-0.1-0.3-1.3-1.9-1-1.4-0.1-0.1 0-0.1-0.3-0.5-0.1-0.1-0.4-0.5-0.6-0.9-1-1.2-1.7-1.7-1.8-1.5-1.2-1-1.3-1.2-0.2-0.3-1.3-1.6-0.5-1.1-0.1-0.4-0.6-1.2-0.6-1.5-0.1-0.3-0.1-0.2-0.2-0.7-0.2-0.7 0.2-0.7 0.1-0.3 0.5-0.8 0.3-0.3 0.5-0.6 1.1-0.8 0.1-0.1 1.2-1 0.3-0.3-1.7-2.5-4.1-6.1-1-1.5-0.9-1.4-0.5-0.6-0.1-0.2-0.5-0.7-0.5-0.8-0.6-1-1.2-1.6-0.5-0.8-0.5-0.8-2-2.9-0.6-0.9-0.1-0.2-0.6-0.9-0.7-1-0.5-0.8-1.1-1.6-0.2-0.4-0.2-0.4-0.3-0.4-0.9-0.7-3.8-2.6-0.1-0.1-0.1 0 0-0.1 0-0.8 0-0.5-0.2-0.8 0.1-0.2 0-5.9-0.1-7.4 0-0.1 0-0.6-0.1-0.5 0-0.1 0-1 0.1-2.8-0.1-1.1 0-1.2-0.1-4.6 0-1 0.1-0.7-0.2-1.1-0.2-0.7-0.3-2.2-0.1-0.2-0.7-4.3-0.8-4.7-0.1-1.4-0.3-0.6 0-0.3 0-0.3-0.3-1.7-0.8-4.2 0-0.4 0-0.4-0.2-0.6 0-0.1-0.3-1.2-1.1-6.1-0.7-3.7-0.6-3.6-1.1-5.8-0.2-1.5-0.5-2.9-0.4-2.3 0-0.2-0.2-1.1-0.2-0.9-0.6-2.9-0.3-1.9 0-0.3-0.3-1.5 0-0.1-0.1-0.3 0.1-0.1 54.5-26.1 4.3 2.3 6.7 3.6 6.8 3.6 6.7 3.6 6.8 3.7 6.7 3.6 6.7 3.6 6.8 3.6 6.7 3.7 6.8 3.6 6.7 3.6 6.8 3.6 6.7 3.6 6.8 3.6 6.7 3.6 6.8 3.6 6.7 3.6 6.8 3.6 6.7 3.6 6.8 3.6 6.7 3.6 6.8 3.6 6.7 3.6 6.8 3.6 6.7 3.6 6.7 3.6 1.2 0.6 5.6 3 6.7 3.6 6.8 3.6 6.7 3.6 6.8 3.5 6.7 3.6 6.8 3.6 6.7 3.6 6.8 3.6 6.7 3.5 6.8 3.6 6.7 3.6 6.8 3.6 6.7 3.5 4.8 2.5z" id="TDTI" name="Tibesti">
  </path>
  <path d="M622.6 190.6l2 1.1 6.7 3.6 6.8 3.5 6.7 3.6 6.7 3.6 6.8 3.5 6.7 3.6 6.8 3.5 6.7 3.6 6.8 3.6 6.7 3.5 4.9 2.6 0.5 204.5-1.2 2.7-3.3 2 0.2 0.4 3.1 5.9-10 13.5-5.1 2-2 17.4-1.8 1.1-0.1 0-1.9 1.2-0.4 0.1-0.1 0-3.7 1.1-0.7 0.1-4.7 1.4-4 0.4-0.6 0-6.4-0.3-4.7-0.2-1.7 1-1.5 0.8-0.8-0.1-2.9-0.7-3.6 0.5-5.5-0.3-0.7 0.4-4.2 2.4 0 0.4 0 2.5 0.1 2.7 0 0.1-4.9 2.4-1.6 0.7-2.2 1.1-5.3 2.5-0.7 0.4-5.5 1.9-2.4-1-0.2 0-0.9-0.2-1.5-0.3-2.5-0.9-2.1-0.7-0.5-0.2 4.7-4.3 6.1-5.5-9.5-26.2-9.3-25.7 3.3-15.9 4.5-54.4-1.7-4.8-38.8 0.7-6.3-6.9-27.1-29.7 17.2-0.3 0.2-78.1 53.8 0.1 26.6-57z" id="TDEO" name="Ennedi Ouest">
  </path>
 </g>
 <g id="points">
  <circle class="8.256804102850102|13.999805998519221" cx="241.2" cy="910.5" id="0">
  </circle>
  <circle class="14.649077492732856|19.263066000611566" cx="528.8" cy="554" id="1">
  </circle>
  <circle class="22.639419230086304|23.473674002285442" cx="758.8" cy="92.9" id="2">
  </circle>
 </g>
 <g id="label_points">
  <circle class="Batha" cx="504.6" cy="593.7" id="TDBA">
  </circle>
  <circle class="Borkou" cx="469.1" cy="405.5" id="TDBO">
  </circle>
  <circle class="Chari-Baguirmi" cx="358.9" cy="731.1" id="TDCB">
  </circle>
  <circle class="Guéra" cx="468.8" cy="749.1" id="TDGR">
  </circle>
  <circle class="Hadjer-Lamis" cx="384.1" cy="665.7" id="TDHL">
  </circle>
  <circle class="Kanem" cx="306.4" cy="530.6" id="TDKA">
  </circle>
  <circle class="Lac" cx="255.6" cy="612.9" id="TDLC">
  </circle>
  <circle class="Logone Occidental" cx="340" cy="883.1" id="TDLO">
  </circle>
  <circle class="Logone Oriental" cx="372.7" cy="910.7" id="TDLR">
  </circle>
  <circle class="Mandoul" cx="437.7" cy="886.5" id="TDMA">
  </circle>
  <circle class="Mayo-Kebbi Est" cx="335.7" cy="790" id="TDME">
  </circle>
  <circle class="Mayo-Kebbi Ouest" cx="283" cy="851.8" id="TDMO">
  </circle>
  <circle class="Moyen-Chari" cx="495.5" cy="847.8" id="TDMC">
  </circle>
  <circle class="Ouaddaï" cx="637.1" cy="623.2" id="TDOD">
  </circle>
  <circle class="Salamat" cx="602.4" cy="771.5" id="TDSA">
  </circle>
  <circle class="Tandjilé" cx="386.6" cy="836.8" id="TDTA">
  </circle>
  <circle class="Wadi Fira" cx="656.3" cy="534.4" id="TDWF">
  </circle>
  <circle class="N'Djamena" cx="299.4" cy="694.7" id="TDND">
  </circle>
  <circle class="Barh-El-Gazel" cx="399.8" cy="567.5" id="TDBG">
  </circle>
  <circle class="Ennedi Est" cx="740.5" cy="377.2" id="TDEE">
  </circle>
  <circle class="Sila" cx="642" cy="695.9" id="TDSI">
  </circle>
  <circle class="Tibesti" cx="445.1" cy="214.6" id="TDTI">
  </circle>
  <circle class="Ennedi Ouest" cx="632.7" cy="305.2" id="TDEO">
  </circle>
 </g>
</svg>