<?xml version="1.0"?>
    
<!--********* Copyright (c) 2024 Pareto Softare, LLC DBA Simplemaps.com ***************************************
************* Free for Commercial Use, full terms at  https://simplemaps.com/resources/svg-license ************
************* Attribution is appreciated! https://simplemaps.com *******************************************-->

<svg baseprofile="tiny" fill="#6f9c76" height="1000" stroke="#ffffff" stroke-linecap="round" stroke-linejoin="round" stroke-width=".5" version="1.2" viewbox="0 0 1000 1000" width="1000" xmlns="http://www.w3.org/2000/svg">
 <g id="features">
  <path d="M533.7 212.3l-3.2 4.9-0.9 0.7-1.3 0.8-1.1 0-4.8-0.7-1.4-0.1-1.8 0.1-1.1 0.7-2.1 2.1-0.9 0.2-0.9-0.3-1.3-1.1-1-0.3-4-0.4-1.2 0.5-3.3 1.8-2.9 2-1 0-0.7-0.4-0.4-0.8-0.4-0.8-0.5-0.8-0.8-0.5-1.2-0.4-5.4-0.3-2 0.8-0.8 0.7-0.1 0.8 0.3 1 0.5 2.5-0.4 2.2-0.9 1.8-5.2 7.4-1.7 3.5-0.7 2.1-0.5 2.3-0.1 5.5 0.1 1.7 0 0.8-0.3 1-0.5 1.1-1 1.5-0.5 1.3-0.5 2.4-0.5 1.2-0.3 1.1-0.1 1.1 0.2 0.9 2.1 6.1 0.2 2.2-0.2 1.2-0.2 0.2-1.7-0.4-1.8 0.5-1-0.2-1.6-1-1-0.3-5.6 0.5-2.3 0-2.8 0.7-2.1 0.7-1.4 0.1-1-0.3-0.7-0.5-1.5-2.3-0.6-0.6-0.7-0.5-1.7-0.9-0.6-0.7-0.5-0.7-0.3-0.8-0.2-0.9 0.2-0.8 0.8-1.5 0.1-0.7-0.5-0.6-0.8-0.3-1-0.1-1.7 0.1-2.8-0.6-2.2 0.1-1.4-0.2-1-0.4-1.3-1.2-0.9-0.4-3.1-0.5-0.7-0.5-0.5-0.7-0.3-0.9 0-1.1 0.3-2 0-1.1-0.2-1-0.5-1-1.9-2.9 0-0.1 0.6-0.2 0.2-0.8 0.1-0.5 0.2-0.5 0-0.6-0.1-0.6-0.1-0.7 0.2-0.8 0.2-0.8 0.3-0.5 0.1-0.5-0.2-0.8-0.5-0.5-0.5-0.4-0.3-0.4-0.4-0.4-0.7-0.5-0.7-0.6-0.7-0.6-0.9-0.2-0.7-0.1-0.5-0.2-0.8-0.2-0.9-0.1-0.6-0.1-1.2-0.7-1.7-4.5 0.3-0.5 0.2-0.5 0.2-0.6 0-0.8 0.2-0.5 0.5-0.7 0.2-0.7 0-0.7-0.1-0.5-0.2-0.6-0.4-0.5-0.3-0.5-0.1-0.2 0.4-5.8-0.2-5.4 0-0.1 0.6-0.7 0-1-0.1-0.1 0.7-1.2 0.5-3 0.9-2.8 4.4-3.2-2.8-2.3 0.3-0.2 0.3-0.7 0.6-0.5 0.7 0.1 0.5-0.1 0.5-0.4 0.1-0.7-0.3-0.7-0.8-0.4-0.7-0.1-0.7 0.2-0.7 0.2-1 0.1-0.6 0.2-0.7 0.2-0.9 0-0.7-0.1-0.7-0.3-0.6 0.4-0.6 0.6-0.6-0.1-0.6 0.1-0.9-0.3-0.5-0.3-0.7 0.3-0.7 0.4-0.8-0.3-0.6-0.3 0.4-0.4 0.5-0.3 0.2-0.9 0.6-0.4 0.7-0.3 1.1-0.3-0.1-0.7-0.4-0.7-0.1-0.6-0.7-0.3-0.5-0.4-0.5 0.2-0.3 0.7-0.6 0-0.6-0.6 0.1-0.6 0-0.6 0-0.8-0.3-0.7 0-0.7-0.1-0.8-0.3-0.6-0.6-0.5-0.4-0.7-0.7 0.2-0.4-0.5-0.6-0.1-0.5-0.2-0.6-0.3 0.1-0.7 0.2-0.6 0.6-0.4 0.4-0.6 0.3-0.9 0-0.6 0-0.5-0.2-0.9-0.1-0.7-0.7-0.2-0.7 0.1-0.4-0.4 0-0.5-0.1-0.7-0.4-0.6-0.9 0.2-0.8 0.1-0.6-0.1-0.3 0.7-0.5 0.1 0 0.8-0.8 0.3-0.9 0.1-0.6 0-0.7 0-0.3-0.6-0.6-0.2-0.4-0.3-0.6 0-0.5 0-0.4 0.4-0.6-0.5-0.5-0.6-0.5-0.4-0.9-0.5-0.8-0.3-0.4 0.5-0.8 0.4-0.1 0.5-0.7 0.1 0.1 0.6 0.1 0.6 0.1 0.8-0.1 0-0.8-0.1-0.6 0.2-0.9 0.5-0.2-0.2-0.4-0.5-0.1-0.9-0.1-0.9-0.6-0.1-0.4-0.5-0.3-0.5-0.5-0.3-0.6 0-0.5-0.4-0.6-0.5 0-0.9-0.3-0.7-0.2-0.6 0.4-0.4 0.4-0.7-0.1-0.7-0.6 0-0.6-0.5-0.3-0.4-0.2-0.6-0.9-0.6-0.1-0.7 0.4-0.8 0.1-0.5-0.5-0.7-0.3-0.7-0.2-0.6-0.4-0.6 0.1-0.6-0.2-0.5 0-0.5-0.4-0.8-0.2-0.8-0.2-0.7 0.2-0.5-0.3-0.4 0-0.7-0.1-0.5-0.3-0.8-2.7-0.7-1.8-2.1-6.6-2.3-3.6-1.4 0-0.6-0.1-0.6 0-0.5-0.2-0.7-0.3-0.8-0.4-0.9-0.5-0.4-0.4-0.4-0.5-0.4-0.4-0.3-0.4-0.4-0.2-0.5 0-0.6-1.3-0.5-0.8-0.2-3.7-1.1-1.5-0.4-0.7-0.3-0.6-0.1-0.7-0.2-0.5-0.3-0.4-0.7-1.1-0.5-0.9-0.2-2.5-0.5-2.4-0.5-1-0.4-0.3-0.7-0.2-0.6-0.2-0.8-0.3-0.7-0.3-0.7-0.3-0.8-0.2-0.8 0-0.9-0.1-0.6-0.2-0.6-0.2-0.5-0.2-0.6-0.4-1.1-0.4-1-0.9-1.4-0.9-1.4-0.2-0.4-0.2-0.4 0.3-0.8 0.2-0.1 0.9-7.4 1.3-3.2 2.6-3.2 3.6-2.5 1.5-1.4 0.4-2-0.9-3.5-0.2-1.8 3.9-18.3 0.9-1.7 1.4-1.5 1.6-1 1.2-1.2 0.4-2.3 0.5-6.4-0.5-5.7-2.7-4.2-6-2.3-2.5 0-0.8 0-6.1 1.6-2.5 0.3-0.8 0.1-3.3-0.9-3.6-2-2.9-2.7-1.4-3 5.5 1.1 3.6 0.7 9.3 1.9 5.2 1.1 5.2 1.1 11.5 2.3 40.7 8.4 15.6 3.2 19.9 4.1 0.4 0.3 0.2 0.4 0.1 0.6-0.2 0.8-0.1 0.7-0.3 0.8-0.6 0.7 2.9 0.7-2.2 7.7 22.3-7.8 11.2-2.2 17.2-0.3 23.2-0.5-4.6 11.2-0.5 3.6 0.4 2 1.5 3.7 0.2 1.9-2.7 5.4-0.4 1.9-0.3 4.2-0.5 1.9-2.3 3.3-9.7 9.3-2.6 6.1 1.4 16.3-0.1 7.1-2.6 10.2-2.5 18.6 0.1 4.2 1.5 2.8 13.5 9 16.9 11.4 10.3 6.9z" id="TGS" name="Savanes">
  </path>
  <path d="M533.7 212.3l15.2 10.1 25.6 17.1 18.8 12.7 2.3 6.1 0 1.4 0.2 13.4 0.4 19.8 0.2 14 1.4 8.5-0.3 2.2-0.4 1.8 0.1 3.6-0.3 1.9-1.1 2.3-3.1 4.9-0.8 2.3 0.6 3.7 1.8 4.4 2.6 2.7 3.1-1.5 2 5.2 1.3 18.3 2.5 7.2 3.4 5.2 0 0.1-7 5.6-3.3 1.7-3.2-0.1-24.6 7-3.5 0.2-2.1-0.2-8.9-1.9-2.8 0-13.4 1.9-6 1.4-0.4 0.3-0.5 0.6-0.5 0.7-0.7 1.9-0.5 2.1-0.1 2.1 0.4 3.4 0 6.6 0.4 1.9 2 4.2-0.2 1-0.7 1.2-3 2.6-2.4 2.5-2.6 2.1-1.5 0.9-1.4 0.5-3.3 0.4-6.6 1.3-1.1 0.1-1.1-0.1-1.2-0.2-2.9-1-1.1-0.2-2.3-0.2-1.1-0.2-5.7-2.1-0.5-0.7-0.3-0.9-0.2-1.1-0.7-0.7-1-0.5-2.3 0.2-1.6 0-1.3-0.2-1.2-0.4-0.9 0.3-0.8 0.5-0.5 0.7-0.4 0.9-0.4 0.9-0.6 0.9-0.9 1-3.8 2.6-0.6 0.5-0.4 0.7 0 0.1-0.4 0.5-1.8 1.9-1.2 0.5-3.2 0.6-1 0.5-0.7 0.7-0.6 1.9-0.2 1.1-0.2 1-0.4 0.9-0.5 0.8-7.2 4.7-0.9 1-0.3 0.8 0.1 1 0.5 0.6 0.6 0.5 0.4 0.8 0 1.1-0.7 1.3-1 0.7-1.2 0.4-2.7 0-1 0.4-3.6 3.3-3.7 1.4-2.6 0.8-0.1-0.1 0.4-0.5 0.4-0.5 0.5-0.5 0.7-0.2 0-0.7 0.5-0.6 0.8 0.2 0.7 0.2 0.5-0.6-0.1-0.8-0.5-0.4 0.3-0.8 0.2-0.9 0.6-0.5 0.5-0.2-0.1-0.8-0.5-0.7-0.4-0.8-0.3-0.8-0.4-0.6-0.6-0.8-0.2-0.7 0-0.7 0-0.5-0.2-0.6-0.4-0.4 0.1-0.6 0.4-0.5 0.2-0.7 0-0.6 0.1-0.8-0.4-0.8-0.4-0.6 0-0.6-0.5-0.7-0.6-0.4-0.5-0.3-1.1-0.6-2.9-5.9-1.5-3.4 0.1-0.6 0-0.9-0.2-0.7-0.6-0.4-0.3-0.6-0.2-0.7 0-0.6-1.3-0.4 0.1-3.5 1.2 0 0.2-3.1-0.8 0 3.6-4.9 0.7-0.1 0.3-0.6 0-0.6 0.3-0.7-0.3-0.7-0.3-0.8 0.3-0.7-0.3-0.6-0.2-0.6-0.1-0.6-0.2-0.7 0-0.8-0.5-0.6 0.5-0.5 0.5-0.4 0.6-0.3 0.6-0.4 0.6-0.3 0.7-0.1 0.7 0.2 0.4-0.5 0.2-0.6 0.7-0.4 0.6-0.5 0.2-0.5 0.2-0.6 0.1-0.6 0.3-0.7 0.3-0.4 0.4-0.6 0.2-0.8 0.1-0.5 0.3-0.7 0.4-0.5 1.2-1.5 1.1-1.3-2.3-1.5-0.3-0.4-0.4-0.3-0.3-0.4-0.5-0.7-0.3-0.9-1.4-3.3 0-0.6 1.4-2.7 3.2-3.9 1.2-1.2-0.6-0.1 0.5-0.8 2.4 0.2 1.1-0.1 0.1-0.7 0.6-1.4-0.1-1.3-0.6-0.5-0.4-0.6-0.2-0.6-0.1-0.6-0.3-0.7-0.2-0.6 0.4-0.6 1.4-1.2 0.3-9.5-0.9-0.5-0.5-0.4-0.2-0.5 0.1-0.6-0.3-0.7-0.6-0.3-0.6 0.1-0.5-0.2-0.6-0.2-0.6-0.2-0.4-0.4-0.6-0.1-0.7-0.3-0.7-0.1-0.3-0.6-0.4-0.7-0.8-0.1-0.7 0.2-0.8 0.1-0.7-0.3-0.7 0-0.2-0.7-0.4-0.4-0.2-0.8 0.3-0.8 0.4-0.5 0.6-0.3 0.1-0.6 0.3-0.8-0.5-0.6-0.1-0.9-0.7-0.7-0.6-0.5-0.5-0.5-0.4-0.5-0.7 0.1-0.9-0.1-0.9-0.4-0.7-0.2-0.8-0.1-0.7-0.2-0.5-0.4-0.5-0.6-0.9-0.3-1-0.4-0.6 0-0.8 0.1-0.7 0.2-0.9 0.1-0.7-0.1-0.5-0.2-0.7 0-0.6-0.2-0.6 0.4-0.6 0.4-0.6 0.5-0.7-0.1-0.7 0.2-0.7 0.2-0.8 0.1-0.8-0.1-0.7 0-0.9-0.2-0.9-0.3-0.8-0.3-0.7-0.3-0.7 0.1-0.5 0.4-0.4 0.3-0.6 0.4-0.6 0.5-0.5 0.4 0.1 0.5-2.1 0.9-0.8 1.4-0.6 3.7-0.3 0.5-0.1 0-0.6 0.4-0.7 0-0.8 0.2-0.5 0.3-0.7 0.6-0.6 0.3-0.5 0.3-0.7 0.2-0.5 0.1-0.5 0.3-0.6 0.5-0.9 0.2-0.7 0.2-0.8 0-0.5-0.2-0.6 0-1 0-0.3-0.7-0.7-0.3-0.6-0.2-0.6-0.3-0.2-0.7-0.5-0.8-0.3-0.5-0.6-0.4-0.3-0.4-0.6-0.6-0.5-0.6-0.4-0.6-0.2-1 0-0.2 0-0.7 4.4-0.9 0.3 0.1 0.6 0 0.7 0 0.6-0.1 0.9-0.2 0.3-0.4 0.1-0.2 2.3-0.9 0.3-0.3 0.5-0.1 0.2-0.4 0.3-0.2 0.5-0.1 0.6-0.5 0.7-0.3 0.6-0.4 0.8-0.7 0-0.6-0.2-0.7-0.5-0.5-1.1-0.7-0.8-0.5-1-0.4-0.5-0.1-0.7-0.1-0.7 0.1-0.8 0.3-0.6 0.2-0.6 0.1-0.8 0.1-0.8 0.1-0.5 0.1-0.6 0-0.5-0.2-0.6-0.2-0.8-0.6-0.6-0.7-0.5-1.1-0.2-0.9 0-0.6-0.1-0.7 0-0.6 0.3-0.6 0.1-0.7 0.2-0.6 0.1-0.5 0.1-0.7-0.1-0.7 0.3-0.6 2.9 0.3 0.2 0.1 0.5 0.4 0.7 0.4 0.9-0.1 0.6-0.5 1.3 0.2 4.3-0.3 1.5-1 0.6 0.2 0.7 0 0.5-0.3 0.7-0.3 0.3 0 0.9 0 0.7 0.1 0.5 0.2 0.6 0.5 0.8 0.3 0.7 0.1 0.7-0.1 0.9-0.3 0.8-0.2 0.6-0.3 0.4-0.5 0.5-0.3 0.5-0.3 0.5-0.4 0.3-0.5 0.2-0.6-0.4-1-0.5-0.6-0.5-0.6-0.2-0.6 0.2-1 0.2-0.7 0.2-0.6 0.2-0.8 0.2-0.6 0.2-0.7 0.1-0.8 0.1-0.8 0.1-0.7-0.6 0-0.4-0.8-0.1-0.6-0.8-0.3-0.6-0.5-0.3-0.8 0.3-0.6-0.3-0.6-0.5-0.3-0.1-0.6-0.2-0.4-0.9-0.2-0.8-0.1-0.3-0.7 0-1 0.1-0.7 0-1-0.3-0.6-0.2-0.6-0.2-1.3-0.1-0.7-0.6-0.9-0.7-0.5-0.2 0-0.3-0.5-1.3-1.4-0.8-1.6 0.2-0.3 0.1-0.6 0.1-0.5 0.5-2 0-1.1-0.6-0.9 0-0.8 1-0.1 0.5-0.4 0.1-0.7-0.3-0.9-0.4-1.2 0.3-1.3 0.7-0.6 0.6-0.8-0.1-0.5 0-0.6 0.1-0.6 0.6-0.8 0.9-0.8 0.5-1.1 0.3-1.3 0.5-0.9 0.4-0.8-0.3-1.7-0.1-0.7-0.3-1.7-0.1-1.1-0.3-0.5-0.1-0.6 0.1-0.5 0.2-0.7-0.3-1.3 0-0.7 0-0.6 0.1-0.9 0.2-0.8 0.3-1.3 0.3-0.7 0.6-0.9 0.8-0.5 0-0.4 0.9-0.8 0.1-1.5-1.2-3.6-2.1-4.3-0.3-1.2 0.3-1.6 0.7-1.2 0.1-1.1-1.1-1.8 2-0.4 1.1-0.2 0.5 0.1 2.3 0.4 2-0.6 0.1-0.5 1 0.9 1.3 1.6 0 0.1 1.9 2.9 0.5 1 0.2 1 0 1.1-0.3 2 0 1.1 0.3 0.9 0.5 0.7 0.7 0.5 3.1 0.5 0.9 0.4 1.3 1.2 1 0.4 1.4 0.2 2.2-0.1 2.8 0.6 1.7-0.1 1 0.1 0.8 0.3 0.5 0.6-0.1 0.7-0.8 1.5-0.2 0.8 0.2 0.9 0.3 0.8 0.5 0.7 0.6 0.7 1.7 0.9 0.7 0.5 0.6 0.6 1.5 2.3 0.7 0.5 1 0.3 1.4-0.1 2.1-0.7 2.8-0.7 2.3 0 5.6-0.5 1 0.3 1.6 1 1 0.2 1.8-0.5 1.7 0.4 0.2-0.2 0.2-1.2-0.2-2.2-2.1-6.1-0.2-0.9 0.1-1.1 0.3-1.1 0.5-1.2 0.5-2.4 0.5-1.3 1-1.5 0.5-1.1 0.3-1 0-0.8-0.1-1.7 0.1-5.5 0.5-2.3 0.7-2.1 1.7-3.5 5.2-7.4 0.9-1.8 0.4-2.2-0.5-2.5-0.3-1 0.1-0.8 0.8-0.7 2-0.8 5.4 0.3 1.2 0.4 0.8 0.5 0.5 0.8 0.4 0.8 0.4 0.8 0.7 0.4 1 0 2.9-2 3.3-1.8 1.2-0.5 4 0.4 1 0.3 1.3 1.1 0.9 0.3 0.9-0.2 2.1-2.1 1.1-0.7 1.8-0.1 1.4 0.1 4.8 0.7 1.1 0 1.3-0.8 0.9-0.7 3.2-4.9z" id="TGK" name="Kara">
  </path>
  <path d="M642 546.7l-65.6-0.8 0.1 1.1-0.1 0.8-0.8 1.5-0.2 0.9-0.1 7.8 0.1 1.1 0.3 1 1.2 2.4 0.2 1 0.1 2.3 0.2 1 0.6 1.9 0.1 1-0.3 3 0.1 0.9 0.3 0.9 0.5 0.7 0.6 0.7 1.3 1.2 0.4 0.8 0.3 0.9 0.2 1.1 0 3.5-0.2 1.1-0.9 2.9-0.3 2.1-0.2 3.5-0.8 4 0.1 4.4-0.1 1.1-0.3 0.9-2.4 5.1-0.3 0.8 0.1 0.8 0.4 0.7 1 1.2-0.2 0.5-0.1 0.3-0.2 0.1-5.4 3.8-5.4 1.7-15 3-3.3 0.2-2.8-0.3-2.7-0.6-1.8-0.8-1.5-0.5-7.5-1.5-2-0.8-2.6 0-17.1 2.2-2.6 0-0.9-0.4-0.8-0.2-0.9 0.3-1.8 2.7-0.7 0.5-0.7 0.4-1.8 0.5-14.3 1.9-1.6 0.7-2.8 1.8-1.4 1.1-1 1-2.8 1.1-8.9 0.8-0.3 0.1-3.4 0.6-1.7-11.9 0.1-6.7-0.1-3.5-1.6-6.7-0.7-8.5-0.9-4.4 0.9-1.3 1.4-1.1 1-2.3-0.4-2.5-1.2-1.6-1.4-1.3-0.7-1.9 0.2-2.3 0.9-0.7 1.4-0.2 1.5-0.7 5.9-5.4 1.8-1.2 1.2-0.8 3-1.3 3.8-1.7 1.1-0.5 2.3-1.4 0.5-0.3 1.4-2.8-0.7-4.4-0.7-0.6-2.1-0.4-0.7-0.6-0.1-0.9 0.1-1.8-0.4-2.6 0-2.1-0.4-1.8-6.8-5.7-2.3-6.9-3.1-6.6-11.7-5.5-4.7-3.4-4.3-4-3-3.5-7.2-4.9-7.1-10-5.2-11.3-0.3-2 0.2 0 1-0.4 0.5-0.3 0.4-0.5 0-0.6-0.5-0.4-0.6-0.6-0.5-0.5 1 0.1 0.9-0.1 0.8 0 0.7 0 0.7-0.1 0.4-0.6-0.6-0.4-0.6-0.3-0.8 0-0.5-0.3-0.5-0.4-0.6-0.6-0.3-0.8 0.4-0.5 0-0.8-0.2-0.8 0.9-0.2 2.1 0.8 2 4.1 1.8-2.1 1-2.5 0 0.3 0.4 0.5 0.6-0.2 0.5-0.4 0.5-0.3 0.7 0.1 0.4-0.8-0.3-0.7-0.3-0.2 0.3 0.1 1.8 0.5 2.3 0.4 2-0.9 0.2-1 0.3 0 0.6 0.1 0.7-0.1 0.6-0.1 0.7-0.3 0.3-0.6 0.5-0.6 0.5-0.7 0.3-0.5-0.3-0.6-0.4-0.4 0-0.6 0.3-0.8 0.6-0.4-0.5-0.5-0.2-0.5-0.1-0.5 2.6-0.8 3.7-1.4 3.6-3.3 1-0.4 2.7 0 1.2-0.4 1-0.7 0.7-1.3 0-1.1-0.4-0.8-0.6-0.5-0.5-0.6-0.1-1 0.3-0.8 0.9-1 7.2-4.7 0.5-0.8 0.4-0.9 0.2-1 0.2-1.1 0.6-1.9 0.7-0.7 1-0.5 3.2-0.6 1.2-0.5 1.8-1.9 0.4-0.5 0-0.1 0.4-0.7 0.6-0.5 3.8-2.6 0.9-1 0.6-0.9 0.4-0.9 0.4-0.9 0.5-0.7 0.8-0.5 0.9-0.3 1.2 0.4 1.3 0.2 1.6 0 2.3-0.2 1 0.5 0.7 0.7 0.2 1.1 0.3 0.9 0.5 0.7 5.7 2.1 1.1 0.2 2.3 0.2 1.1 0.2 2.9 1 1.2 0.2 1.1 0.1 1.1-0.1 6.6-1.3 3.3-0.4 1.4-0.5 1.5-0.9 2.6-2.1 2.4-2.5 3-2.6 0.7-1.2 0.2-1-2-4.2-0.4-1.9 0-6.6-0.4-3.4 0.1-2.1 0.5-2.1 0.7-1.9 0.5-0.7 0.5-0.6 0.4-0.3 6-1.4 13.4-1.9 2.8 0 8.9 1.9 2.1 0.2 3.5-0.2 24.6-7 3.2 0.1 3.3-1.7 7-5.6 0-0.1 0.9 1.4 14.3 15.1 11.1 11.7 3.7 6.4 1.4 4.4 0.9 4.9 0.3 22.6 0.3 19.8 0.2 16.7 0.3 24.2 0.1 5.4 0.2 2.1 0.9 2 4.7 5.9 0.7 1.7-0.7 3.2-5.8 9.8-0.3 1.5 0 3.1-0.9 4.4 0.5 0.8z m-209.3-77.1l0.9 0.1-0.9 0.3 0-0.4z m-1.2 1.2l-0.8-0.6 0.3 0 0.5 0.5 0 0.1z" id="TGC" name="Centre">
  </path>
  <path d="M642 546.7l1.1 0.3 0.9 1.7 1.9 15.5-0.3 20.6-0.5 28.8 0.1 28.5 0.2 35.7 0 3.1 0.1 15.5 0.1 17.7 0.1 26.9 0.1 26.1 0.1 26.4-3.2 1-13.5-0.1 3.4 12.8 2.1 3 0.2 0.2-0.8 0.4-1.5 1.3-3.7 5.9-1.1 1.4-1.1 1-3.3 1.7-3 1.1-1.1 0.2-2.1-0.1-2.2-0.5-4-1.2-1.7-0.2-2.1 0.2-4.1 0.9-3.5 1.3-12.3 9.2-10.1 10-1.5-0.7-5.7-2-0.7-0.5-0.6-0.6-2.1-3.6-0.3-0.4-0.4-0.3-1.1-0.5-0.9-0.3-0.9-0.4-0.7-0.5-0.6-0.7-0.5-0.8-0.5-0.6-0.8-0.4-3.1-0.4-0.8-0.4-0.3-0.6 0.4-1.3-0.3-0.5-0.9-0.2-29.1-1.6-3.4 0.7-1.8 0.7-1.7 1-0.8 0.8-0.7 1.2-0.6 2.1-0.3 2.2 0.3 8.5-0.7 7-1.2 4-0.7 1.7-0.9 1.3-1.3 1.5-5.2 4.8-1.7 2.1-1.8 3-1.2 1.4-0.6 0.6-6.3 3.9-2.9 1.2-7.2 1-1 0.2-1.1 0.1 0.1-1.1 1.1-2.3 1.3-1.6 0.1-1.7-2.3-2.3-1.6-0.3-5 0.2-1.7-0.2-1.5-2.9-2.5-1.8-2.4-2.2-1-3.7 1.6-9.1-0.2-2.9-1.5-2.9-2.6-2.5-3.2-1.7-3-0.7-1.2-1.5-5.2-9.7-2.1-1.7-1.8-1-0.5-1.7 1.2-3.8 3.7-6.3 0.5-3-2.1-3.8-1.2-0.9-0.7-0.5-3.2-2.6-2.1-2.7 2.6-0.8 2.7-0.2 2.2-0.6 5.3-1.4 2.3-1.3 0.1-0.2 3.3-6 0.1-4.1 0-1.5 0-2.2-0.7-7.1-0.1-1 0-0.1 0.6-6.9 4.3-10.8 1.7-8.2 0-0.2 2.4-6.6 0.2-3.9-2.9-11.8-1.1-1.5-6.6 2.4-3.5 0.6-3.3-0.4-5.6-5-2.9-7.9-0.9-8.9 0.7-10.4 0.7-2.3 1.1-1.9 1.8-1.7 2.3-1.1 0.4-0.1 2.5-0.7 0.8-0.4 0.3-0.1 0.3-0.3 0.8-0.5 0.3-0.2 0.9-2.1-0.1-4.9 0.6-5.6 2.3-3.7 1.6 0.3 3.5 0.6-0.2-1.9-0.2-1.6 0.3-9.5-1.6-10.2 0.2-10.8-0.2-0.9 3.4-0.6 0.3-0.1 8.9-0.8 2.8-1.1 1-1 1.4-1.1 2.8-1.8 1.6-0.7 14.3-1.9 1.8-0.5 0.7-0.4 0.7-0.5 1.8-2.7 0.9-0.3 0.8 0.2 0.9 0.4 2.6 0 17.1-2.2 2.6 0 2 0.8 7.5 1.5 1.5 0.5 1.8 0.8 2.7 0.6 2.8 0.3 3.3-0.2 15-3 5.4-1.7 5.4-3.8 0.2-0.1 0.1-0.3 0.2-0.5-1-1.2-0.4-0.7-0.1-0.8 0.3-0.8 2.4-5.1 0.3-0.9 0.1-1.1-0.1-4.4 0.8-4 0.2-3.5 0.3-2.1 0.9-2.9 0.2-1.1 0-3.5-0.2-1.1-0.3-0.9-0.4-0.8-1.3-1.2-0.6-0.7-0.5-0.7-0.3-0.9-0.1-0.9 0.3-3-0.1-1-0.6-1.9-0.2-1-0.1-2.3-0.2-1-1.2-2.4-0.3-1-0.1-1.1 0.1-7.8 0.2-0.9 0.8-1.5 0.1-0.8-0.1-1.1 65.6 0.8z" id="TGP" name="Plateaux">
  </path>
  <path d="M484.1 876.6l1-0.2 7.2-1 2.9-1.2 6.3-3.9 0.6-0.6 1.2-1.4 1.8-3 1.7-2.1 5.2-4.8 1.3-1.5 0.9-1.3 0.7-1.7 1.2-4 0.7-7-0.3-8.5 0.3-2.2 0.6-2.1 0.7-1.2 0.8-0.8 1.7-1 1.8-0.7 3.4-0.7 29.1 1.6 0.9 0.2 0.3 0.5-0.4 1.3 0.3 0.6 0.8 0.4 3.1 0.4 0.8 0.4 0.5 0.6 0.5 0.8 0.6 0.7 0.7 0.5 0.9 0.4 0.9 0.3 1.1 0.5 0.4 0.3 0.3 0.4 2.1 3.6 0.6 0.6 0.7 0.5 5.7 2 1.5 0.7 10.1-10 12.3-9.2 3.5-1.3 4.1-0.9 2.1-0.2 1.7 0.2 4 1.2 2.2 0.5 2.1 0.1 1.1-0.2 3-1.1 3.3-1.7 1.1-1 1.1-1.4 3.7-5.9 1.5-1.3 0.8-0.4 2.7 2 1.6 1.9 0.4 2.5-1.4 7.5 0.1 3.1 0.8 3.1 1.4 3.7 1 4.3-0.7 2.8-1.4 1.9-2.7 3.6-1.4 4 1.1 2 2.3 1.9 2 3.6 0 1.4-0.3 1.5-0.1 1.7 0.6 1.8 1 1.5 1.4 1.4 1.5 1.2 1.4 0.8 1.7 0.2 1.8-0.1 1.2 0.4 0.3 2.1 0.4 1.2 3 2.5 1.1 1.5 0.3 1.8-0.5 3.9 0.4 1.5 1.2 1 3.8 2 1.6 1.1 4.5 7.4 3.5 13.5 3.4 13.2-3.7 0.2-23 5.5-3.7 1.9 1.3 3.8-33.9 5.7-28.3 8.7-12.7 5.6-1.5 0.1-1.1 0.2 0.1-0.8 2.5-1.3 0-3.2 0-1.3-0.2-2.7 0.3-2.7-3.2 0-3.2-0.2-6.6 0.1-7.7-0.2-0.8-0.3-0.6-0.4-0.2-0.7 0.6-0.5 0.3-0.8-0.6-0.6-0.3-0.5-0.4-0.5 0.3-0.4-0.2-0.7-0.7-1.5-0.3-0.6-0.2-0.7-0.1-0.5-0.2-0.6-0.4-0.5-0.5-0.4-0.5-0.7-0.6-0.6-0.5-0.1-0.7 0-0.5-0.3-0.7-0.2-0.6-0.3-0.2-0.5-0.4-0.3-0.3-0.6-0.5-0.7-0.5-0.7-0.4-0.4-0.3-0.6-0.1-0.5-0.3-0.4-0.2-0.5-0.3-0.8-0.2-0.8 0-0.6-0.1-0.6 0-0.6-0.3-0.6-0.6-0.3-0.5-0.8-0.2-0.8-0.1-0.8-0.2-1.2 0.3-0.5 0.2-1.5-0.2-0.9-0.2-0.9-0.3-0.4-7.2-0.1-2.1-0.1-2.9 0-2.4 0-2.7 0-2.7-0.1-0.3-0.5-0.4-0.8-0.2-1-0.4-0.7-0.4-0.5-0.7-0.6-0.5-0.8-0.3-0.6-0.3-0.3-1.4-1-0.5-0.9-1.1-0.8-2.8-2.3-2.5-1.4-1.9-0.4-2.3-0.4-2.7-0.9-0.9-3.7-1.7-0.7-2.2-0.9-1.1-0.4-1-0.3-0.7-2 0.3-4.6-2.5-0.2-0.8-1.2-0.4-0.6-0.4-0.8-0.3-0.5-0.3-0.8-0.3-1-0.1-1.9-0.1-0.8 0.3-1.3z" id="TGM" name="Maritime">
  </path>
 </g>
 <g id="points">
  <circle class="6.352215095633281|-0.0686861770470274" cx="343.5" cy="909.4" id="0">
  </circle>
  <circle class="8.366011000720865|0.905543762487327" cx="517.4" cy="546.9" id="1">
  </circle>
  <circle class="10.883255882080345|1.6849277141148107" cx="656.5" cy="91.2" id="2">
  </circle>
 </g>
 <g id="label_points">
  <circle class="Savanes" cx="443.6" cy="138.3" id="TGS">
  </circle>
  <circle class="Kara" cx="517.8" cy="329.7" id="TGK">
  </circle>
  <circle class="Centre" cx="535" cy="494.1" id="TGC">
  </circle>
  <circle class="Plateaux" cx="556.8" cy="713.8" id="TGP">
  </circle>
  <circle class="Maritime" cx="583.1" cy="892.8" id="TGM">
  </circle>
 </g>
</svg>