<?xml version="1.0"?>
    
<!--********* Copyright (c) 2024 Pareto Softare, LLC DBA Simplemaps.com ***************************************
************* Free for Commercial Use, full terms at  https://simplemaps.com/resources/svg-license ************
************* Attribution is appreciated! https://simplemaps.com *******************************************-->

<svg baseprofile="tiny" fill="#6f9c76" height="692" stroke="#ffffff" stroke-linecap="round" stroke-linejoin="round" stroke-width=".5" version="1.2" viewbox="0 0 1000 692" width="1000" xmlns="http://www.w3.org/2000/svg">
 <g id="features">
  <path d="M588 162.5l0 1.6-0.1 18.3-48.4 1.9 0 53.7 13.8 2.4 3.2 69.1-10.9 2.3-5.6-12.6-12.6 2.6-4-6.1 0.8-29.2-18.3 0.2-17.6 0.5-22.7-0.6-9.7-8.3-14.5-4.2-22.3-3.3-14.5 6.1-16.3 0.8-13.1 1-17.5 2.4-8.5 6.1-4.9-5.2-2.2-2.4-5.2-8.3 2.1-10.5-4.5-11.6-3.5-10.9-7.2-7-3.5-10.8-6.3-12.6-10.3-14-4.1-15.8 8.3 0.9 5.2 0.1 9.4 0.6 5.7 0.8 2.7 0.3 5.8 1.2 0.6-0.4 0.7 0 0.8-0.4 0.6-0.7 0.5-1 0-1.9 1.3-1.4 2.9-1.5 1.4-1 0.7-0.8 0.2-0.6-0.2-0.1-0.1-0.7-0.6-0.6-1.7 0.5-1.1-0.3-1-0.4-0.9-0.7-1.4-1.6-1-1.7-0.3-1-0.6-4.4 0-3.2 0.3-1.7-0.2-1.1-0.3-1.6-0.7-1.4-0.5-0.3 0-0.3-0.5-0.7-0.6-1.4-0.5-1.7-0.2-1.6 0.2-3.7-0.3-2.1 0.1-0.7-0.3-1 0-3.8 0.2-1.1 0.4-1.4 0.4-2.9 0.3-0.7 1-1.9 1.1-1 2-1-0.8 7.5-0.2 2.1-0.3 0.9-0.5 3.3 0.2 1.2 0.8 3.6 0.5 0.9 0.4 0.5 0.7 0.2 0.2 0 0.1-0.2 0.2-2.4 0.6-3.9 0.5-0.9 0.5-0.6 0.3-0.7 0.2 0.1-0.1 0.2 0.3 0 0.1 0.3-0.2 0.2-0.2-0.3-0.2 0.2 0.1 0.3 0.7 0.1 0.2 0.6 0.3 0 0.1-0.4 0.3-0.4 0.2 0 0-0.2 0.2-0.2 0.2 0.3 0.4-0.5 0-0.5 0.2-0.2 0-0.2 0.8-0.3 0.2 0.3-0.2 0.7 0.2-0.1 0-0.2 0.1 0 0.7 0.3 0 0.2-0.1 0.3-0.5 0.1 0 0.1-0.2 0.1-0.3-0.2-0.1-0.2-0.2-0.1-0.1 0.3 0.2 1.3-0.2 0.2 0.3 0.4 0.1-0.1 0.4-0.2 0.2 0.1 0 0.6 0.2 0 0.3-1.1 0.3-0.1 1.2 1.6 0.1 1 0.1-0.8 0.2 0 1.1 2.2 0.2 2.3-0.2 0.7 0.1 0.7-0.4 3.3 0.1 1 0.2-0.5 0 0.1-0.1 1.2 0.1 0.5 0.3 0.2 0.4-0.1 0.4 0.1 0.1-0.2 0.1 0.2 0.4 0.1 0.3 0.2 0 0.3 0.2-0.1 0.1 0.3 0.2-0.2 0-0.6 0.1 0.5 0.5 0.4 0-0.5 0.1 0.7 0.1 0.3 0.3-0.1-0.1 0.2 0.3 0.5 0.3 0.2 0.2-0.1 0.1-0.8 0.1 0 0.6 0.6 0 0.5 0 0.1-0.3-0.1-0.1 0.3 0 0.4 0.3 0.5 0.4 0.5 1 0.4 0.7-0.3 0.6-0.1 1 0.3 0.2-0.1 0.6-0.5 0.1-0.4 0.2 0 0.3-0.4 0.6-0.2 0.1-0.3 0.1 0.2 0.3-0.4 0-0.3 1.4-1.3 1.4 0.6 0.3-0.1 0.1 0.1 0 0.6 0.4-0.2 0.7-0.2 0.4 0.3 0.2 0 0.6-0.5 0.6-0.2 0.1-0.1 0.3 0 0.2 0.2 0.3-0.1 0.6-0.6 0.3-0.3 0.2 0.1 0.4-0.5 0.9-0.7 0-0.7 0.8 0.2 0.3 0.3 0.3 0.5 0.1 0.5-0.1 0.7 0.5 0.5 0.2 0.1 0-0.2 0.7 0.2 0.6-0.1 0.4-0.3 0.1-0.2 0.4-0.2 1.8-1.8 0.3-0.1 0.1 0.1 0.3 0 0.4-0.5 0.2-0.7 0.3-0.1 0-0.2-0.6 0.1-0.4 0.2-0.2 0-0.2-0.5 0.1-0.4 0.2-0.2 0.5-0.3 2.3-1.9 0.7-0.3 0.1 0.4 0.3 0 0.9-0.4 0.7-0.1 0.6 0 0.5 0.3 2.1-0.2 1.6-0.8 2.2-1.5 0.2 0 0.1 0.2 0.1-0.2-0.2-0.2-0.1-0.4-0.1-1.2 0.1-0.5-0.1-0.3-0.4-0.6-0.2-0.7 0.8-2 0.2 0-0.3 0-0.1-0.3 0.2-1.3 0.2-0.5 0.9-1.1 0.3-0.9 0.1-0.3-0.2-1-0.4-0.4-0.2-0.7-0.3 0-0.1-0.5-0.3 0-0.5-0.5-0.1 0.1-0.5-0.5-0.3 0-0.7-0.6-0.2 0-0.8-1-0.6-1-0.7-0.3-0.9-0.8-2-0.3-1.3-0.3 0 0.1-0.5-0.1-1.1 0.2-1.3-1-0.3-0.9-0.2-2.4 0.1-0.5 0.4-0.6 0.3 0 0.1-0.3 0.4-0.3 1.5-0.3 0.3-0.1 0-0.2 0.2 0 0-0.2 0.2 0 0-0.2 0.5-0.7 0.2-1 0.2-0.3 0-0.5-0.5-0.5-0.7-0.2-0.4-0.3-0.2-0.3-0.7-0.4-0.3 0.6 0.1 2.6-0.3 0.1-0.6-0.9 0.3-0.5-0.2-0.3-0.7-0.3-0.5 0.1-0.2 0.4-0.1 0.6-0.4 0.3-0.3-0.2-0.5 0.3 0.2 0.4-0.2 0.2-0.6-0.5-0.2 0.1 0.2-0.8-0.4-1.1 0.3-0.5 0-0.3 0.9-0.8 0.1-0.4-0.2-0.5-0.3-0.1 0 0.3-0.2-0.1 0-0.2-0.2 0.3-0.2 0-0.1-0.1 0.1-0.2 0-0.3-0.9-0.4-0.7-1.2-0.1-1.1 0.1-0.1 0-0.4 0.4-0.5 0-0.3 0.9-1.2 0.5 0.1 0.1-0.2 0.2 0 0.2-0.3 0.2-1.5 0.7-0.1 0.3 0.2 0.8 0 1-0.2 2.4-1.3 2.8-1 3.2 0.2 1.8 0.3 0.6 0 0.6-0.2 0.3-0.6-0.6-1.5-1-1.7 0.5-1.6 0.2-0.4 1-0.4 2.1 0.9 1.1 0 0.7-0.2 0.4-0.6 0.3-0.8 0.3-2.2-0.2-2.2 0.3-1.5 0-2 0.5-1.4 0-0.8-0.4-1.5-0.6-1-1.2-1.1-0.2-1.5 1.1-0.9 0.8-0.4 1.4 1.5 0.4 0.2 1.1-4.3-0.1-0.1 0.3-0.6 0.7-0.8 1.1-0.6 1.4-0.2 0.1 0 1.4 0 1.2 0.4 0.9 1 1.5 2.1 1 0.6 0.1 0 1 0 2.3-1.1 0.5 0 0.6-0.1 1.3 0.2 0.1 0 6.4 3 2.1 1.6 1.6 2.1 0.4 1.7 0.3 1.5-0.2 1.6-0.3 1.5 0 1.3 0.6 1 0.1 0.2 0.1 0 0.9 0.2 3.9-0.6 1 0.5 1.9 1.1 0.4-0.8 0.4-0.5-0.9-0.4-0.1-0.2 0-0.4 0.4-1-0.1-0.8-0.4-0.5-0.7-0.3-3.6-2.9-1.4-1.4-0.6-1.4-1.5-1.7-1.8-2.9-1.1-2.8-0.9-1.5-0.6-1.8-1.1-2.5-0.6-0.7-1.9-0.4-1.4-0.5-3.2-1.8-2-1.5-0.3-0.4-0.3-0.9 0.1-0.5 0.4-0.4 0.1 0.1 0.9-0.4 0.5-0.6 1.3-1.2 1.2-0.5 1.1-0.7 0.7-0.7 1.8-0.8 1.3 0.2 5.7 2.3 3.2 0.8 3.3 0.2 2.7-0.8 0.1-0.3 1-0.1 1.6 0.5 0.7-0.4 0.4-0.7 0.6-3-0.3-0.6-1-0.8 0-0.2 0.4-0.6 0.3-0.3 0.9 0 0.7 0.4 0.6 0.1 0.5-0.3 0.2-0.8 0-0.4-1.3-1.2-0.1-0.7 0.2-0.9 13.2 15.6 4.2 4 4.5 2 2.9 0.5 1.8-0.1 1.7-0.5 0.7 0.4 0.1 0.1 4.4-0.6 4.1 4.2 0.9 1.5 0.6 1.7 0.7 6.6 0.9 1.5 1.8 1 3.3 0.4 1.5 0.5 2.5 2.7 1.6 0.7 3.3 0.1 2.5-0.4 0.1 0 0.7-0.1 0.2-0.1 1.2-0.2 0.2 0.2 0.7 0.9 2.2-0.8 0.6-0.6 0.3 0 1.8 0.7-0.1 0.8 1.2-0.2 1-0.3 2.7 0 0.8 0.3 0.3-0.1 0.3 0.1 0.9 0.5 1.9 0.4 0.6 0.3 0.7 0 0.5-0.5 0.7-2 0.6-0.3 0.6 0.2 0.6 0.5 2.7 0.9 0 0.1 0.2 0.2 0.1 0.1 1.8 2.7 2.2 2.1 1.8 0.7 0.5 0.2 0.6 0.2 0.5 0.3-0.2 0.9 0.7 0.4-0.1 0.5 0.1 0.6-0.4 1.2-3-1.2 0.2 1.8-0.4 0-0.1 0.5-0.9 0.7 0.6 0.7 1.1 0.9 0.2 0.1-0.3 2.1 1.3 4.2 0.2 3.4-3.8 1.5-0.1 0-1.1 0.3-0.7 0.9-0.1 1.1 0.7 1.2 0.9 0.5 2.2-0.1 1.1-0.1 0.2 0.1 2.9 1.1 0.8 1.6 1.1 0.7 3.4 1.2 0.7 0.5 0.5 0.5 0.5 0.8 0.1-0.2 0.4 0.5 0.4 1 0.7 0.8 3.1 1.8 1.4 0.3 1.8 0.8 1.6 1.8 1.5 1.3 0.8 0.9-0.1 0.6-0.4 0.9-0.5-0.3-0.8 0.2-1.2-0.4-1-0.9-1.2 0.2-0.5-0.1-1.7-1.5-1.6-0.7 0 0.1-1.8-0.6-0.8-0.2-0.1-0.3-1.1-0.3-0.1 0.1 0.3 0.8-1.7-0.4-0.2-0.2 0.1-0.3-0.5-0.2-0.1-0.1-0.2 0-0.6 1 0.2 0.5-0.2 0.3-0.1 0.6-0.2 0.7-0.6 0.3-0.4 0.6 0.7 1.4 0.3 1.6 1.1 1.8 1.5 2.3 1.9 1.9 0.8 1.1 0.9 1.7 0.1 0.8 0.3 0.8-0.3 0.4 0.4 1-0.1 0.2-0.3 0 0 0.4 0.2 0.5-0.3 0.2-0.5-0.3-0.3 0-0.1 0-0.7 0.7-0.2 0.3 0.1 0.3-0.3 0.1 0 0.6-0.8 0.5-0.3-0.3-1.2 1 0 0.4-0.9 3.1-1 3.7 0.2 0.7-0.1 0.6 0.1 0.6 1 1.9 2.4 1.5 2.5 2.2 3.8 2.7 0.8 0.3 2.2 0.3 4.2 3 4.1 3.6 4.4 2.7 1 0.3 1.3 0.1 3.6-0.6 0.7 0 0.2-0.1 6.6-2.8 8.4-0.1 8.2 0.9z m-246.1-47.9l0-0.1 0.2 0-0.1-0.1 0.2-0.7 0.1-0.3 0.2-0.1 0.1 0.2-0.2 0.2 0.1 0.1 0.7-0.2 0.9 0.1 0.1 0.5 0.6 0.3 0 0.3-0.4 0.2-0.1 0.6 0.1 0 0.1 0.5-0.2 0-0.2-0.4-0.9-0.3 0-0.1-0.2-0.2-0.3-0.1-0.2 0.4-0.2-0.1-0.4-0.7z" id="TMD" name="Daşoguz Region">
  </path>
  <path d="M831.5 523.1l-0.6-0.1 0-0.1-0.5 0-83.2 0.6-2-41 14.7-17.2-33.8-39.9-26.9-9.9-22.8-29.3-76-78.4-11.2 0.6-11.1 1-21.6 0.1-3.2-69.1-13.8-2.4 0-53.7 48.4-1.9 0.1-18.3 0-1.6 3.4 0.5 0.1-0.1 0.1 0.8 0.3 0.2 0.7 0.5 0.5 0.3 0.3 0 0-3.2-0.1 0 0.4-0.8 0 0.6 0.2 0.1 0.3-0.4 0.2 0.1-0.1 0.8 0.5 0.8 0.2-1 0.1 0.2 0.2 0.1 0.2-0.1 0.2 0.1 0 0.9 0.7 1.7 0.3-0.1 0.3 0 0-0.1 0.3-0.4 0.2 0.5 0.5 1.1 1.7 1.8 3.6 2 3.6 1.8 5.7-0.2 3.7-3.8 0.6-0.3 0-0.4 0.3-0.3 0.2-0.4-0.1-0.2 0.3-0.3-0.1-0.5-0.3-2.6 0.4-1.9 0-1.2 1.5-0.2 1.7 0.4 1.4-0.1 4.1 2.2 0.6-0.3 0.4-0.3 0.5-0.1 0.1 0.3 1 0.3 0.9 0.5 0.6 0 0.7-0.4 0.3-0.1 0.1-0.2 0.4 0.7 0.2 0.3 0.4 1.3 0.5 0.5 0.7 0.5 0.9 0.3 1.8 0.2 0.6 0.4 2.8 3.3 2.1 1.4 1.5 0.5 2.7 2.8 1.3 0.4 0.7 0.8 0.8 2.4 0.1 0.8-0.2 0.9 0.3 0.4 1.4 0.4 2 1.2 0.2 0.2 0.4 0.4 0.4 0.7 0.4 1.1 0 0.3 0.2 0.3 0.1 1.4 0.6 0.2 0.3 0.6-0.3 2.2 0.1 1.3 0.2 0.7 0.1 2 0.2 0.6-0.7 1.5-0.2 0.3 0.5 1.6-0.4 0.5-0.1 0.8 0.2 0.9 0.4 0.8 1.1 1.1 0.5 0.9 0.4 0.5 0.3 1.5 0.7 1 0.2 3.7 0 0.1 0.4 1.2 0.9 0.8 0.8 1.1 0.8 1.6 0.9 2.3 0.1 1.5 0.2 0.8 1.2 2.3 1 1.5 1.6 1.2 1.2 1 0.7 1.1 0.5 0.8 1.9 1.2 1.7 0.8 1.7 1.8 2.6 1.5 1.2 0.6 0.1 0.4-0.5 2-0.6 2.2 0 0.7 1 1.4 1 0.8 0.6 0.7 1.1 1.9 0.1 0.6-0.1 0.8-0.5 1.2 0 0.9 0.3 1 0.1 1.6 0.8 2.8 0.2 1.7 0.5 1.4 0 1.8-0.1 1.9-1 1.6 0 0.9 0.3 0.6 1.6 2.3 0.2 2.4 0.4 1 0 0.8 0.2 1.2 0.2 0.8 1.3 1.7 1.6 1.6 6.3 4.6 7 5.2 0.9 0.6 8.7 6.3 1.4 1 5.2 3.5 14.1 10.1 5.9 3.9 2.6 2 3.5 2.3 4 2.5 0.3 1.1 0.3 1.6 7.7 5.5 0.9 0.7 8.3 5.4 0.7 4 3.6 2.5 0.9 0.8 14 9.9 0.9 0.8 5.5 3.8 4.9 3 0.6 0.7 3.4-0.4 0.9 0.1 4.1 0 1.5-0.5 1.2-0.4 1.9 1.9 8.9 8.8 8.9 6.2 1.4 0.5 1 0.7 1 0.3 4.3 3.5 0.8 1.1 1.5 1.1 2.7 0.1 2.2 0.9 1 0.9 3.2 2.7 0.9 0.3 1.2 1 2.3 0.2 0.4 0.2 7.5 7 1 1.4 9.5 6.7 14.2 9.8-0.3 0.3 0 0.5 0.1 0.1 1.5 0 4.9 1.1 9.3 1.4 1 0.1 1.8 0.1 0.3 0.2-0.1 0.2 0.4 0.1 0.2-0.2 0.2-0.9 0.5-0.9 0.1 0 1.2-0.3 1.5 0 1.2 0.3 1.4 1.3 1.1 1.2 0.1 0.2 1.3 0.9 1.1 0.3 1.9-0.1 0.7 0.3 0.7 0.8 0.3 0.3 1.2 0.2 1 0.4 0.4 0.1 0.3 0 0.1 0.2 2.4 2 4.1 1.2 2.4 0.1 0.6 0.4 1.8 3.2 2.5 2.9 0.3 0.2 0.5 0.3 1.4 0.7 1.7 1.1 1.7 1.5 1.7 0.4 0.8-0.1 2-0.6 1.7-0.5 3.4 0.3 1 0.2 1.8 0.7 1.7 1.1 2.4 2.9 1.2 1.3 0.4 1.1 0 1.2-0.3 1.2-0.6 0.5-2.9 1.6-1 1.3-0.7 1.8-1.1 1-1 1.6-1 2.5-0.6 3.4-0.1 1.7 0.4 2.1-0.3 3.2-0.6 6.8-0.3 1.6 0.1 1.6 0.3 0.7 2.6 1.9 0.8 2.9 0 2.1-0.3 0.4 0.1 0.7-1.6 1-1.7 1.2-0.3 0.5 0 0.9-0.3 0.5 0.1 0.3 1.1 0.5 0.8 0.4 0.1 0.7-2.5 1.1-0.8 0.2-1.3 0.7-0.7 0-0.4 0-1.1 0.5-1 0.4-2-0.4-3.7 0.1-1.3 0.2-1 0-2.3-1.6-0.5-0.2-0.8-0.8-0.2-0.2-2.7-0.7-0.4-0.4-0.3 0-1.1 0.2-0.5 0-0.9-0.3-1-0.6-1-0.8-0.2-1.4-0.7-0.9-0.8-0.6-0.8-0.3-0.4-0.5-1-0.6-1.9-0.8-1.5-0.3-3-1.2-1.6-0.3-1 0.1-1.7-0.2-1.9-1-3-1-0.5-0.5-0.4-1.3-0.5-0.3-0.8-0.1-1-0.4-0.2-0.2-0.1-0.2 0.3-0.5 0-0.5-0.4-0.1-0.2 1.2-0.4-0.1-0.5-0.3-0.6 0.1-0.5-0.1-0.3 0.1-0.3 0.2-0.2 0-0.7-0.2-0.7 0.9-0.2 0.1-0.4 0.8-0.4 0.4-0.1 1-0.4 0.7-0.7 0.4-0.6 0-0.5 0.6-0.3 2.8-0.5 0.1-0.4 0.5-5.3 7-0.5 1.1-1.1 3.1-0.1 0.2-5.2 0.2-5.2 1.5-5 2.9-0.2 0.1-0.3-0.1-2.2-1.1-2.4 1.2-0.1 0-3.7-0.9-4.3 1.1-0.5 0.1-4.3 1.5-11.6 6.3-1.9 1.4-1.1 2-0.1 0.1 2.5 13.6-2.6 4.4z" id="TML" name="Lebap Region">
  </path>
  <path d="M617.1 624.5l0.2-0.8 1.6-1.2 3-8.8-5.9-10.1 7.5-5 0.5-7.3-7-1.9 2.6-52.7-31.1-49.6 10.8 3.1 5.6 11.4 10.4-7-6.6-6.8-11.2-5.5-14.5-3.1-5.9-21.2 7-2.7-2.9-10 7.3-4-12.6-20.5-14.7-13.3-8.8-34.6 7.6-4.1 0.6-9.7 8.7-3.4 4.9-29.3 13.5-3.6 1.5-14.4 11.2-0.6 76 78.4 22.8 29.3 26.9 9.9 33.8 39.9-14.7 17.2 2 41 83.2-0.6 0.5 0 0 0.1 0.6 0.1-3.2 5.6-5.7 12.7 0.3 2.6-0.2 1.7 1 11.1-2.9 5.1-0.7 2.1-4.6 4.9-4 3.8-0.3 0.1-0.5-0.2-0.3 0.1-0.2 0.3-0.2-0.2-0.1 0.4-0.3 0 0-0.2-0.2 0.1-0.1 0.2-0.2 0-0.2 0.3-0.6-0.2-0.1 0.2-0.2 0 0 0.2-0.5-0.3-0.2 0-0.3 0.3-0.2-0.1-0.2 0.1-0.3-0.1 0 0.3-0.3 0-0.1-0.1 0 0.2-0.2 0.1 0.1 0.2-0.3 0.1 0 0.2-0.3-0.2-0.2 0.5-0.4 0.1 0 0.1-0.8 0.3-0.2 0-0.3-0.1-0.2 0.4 0 0.2-0.1 0.1 0 0.3-0.1 0 0 0.4-0.2 0.1 0 0.4-0.2 0-0.2 0.4-0.1 0.4 0.1 0.3-0.4 0.3-0.2 0.5-0.2 0.1 0 0.1-0.3 0.5-0.4 0-0.1-0.3-0.4 0-0.2-0.1 0-0.4-0.2-0.1-0.4 0.3-0.1-0.2-0.3 0.3-0.1-0.1-0.1 0.1-0.3 0.2-0.1 0.4-0.2 0-0.3-0.4-0.4-0.1-0.2-0.4-0.2-0.1-0.2 0-0.2 0 0-0.1-0.8-0.1-0.1 0.1-0.2-0.1-0.1 0-0.4 0.5-0.5-0.2-0.1 0-0.5-0.1-0.4 0.1-0.1 0.1-0.2 0-0.2 1.1-0.7 0-0.1 0.2-0.2 0-0.3 0.3-0.6 0.3-0.3 0.6-0.7 0.4-0.6-0.1-0.2-0.4-0.2 0-0.3 0.3-0.2 0.4-0.3 0.3 0 0.3-0.3 0.3-0.3 0.3-0.2-0.2-0.5 0.5-0.4-0.1 0 0.1 0.1 0.3-0.1 0.4 0.2 0.4-0.3 0.5 0.2 0.5-0.2 0.4 0.2 0.4-0.2 0.6 0.2 0.5 0.1 0-0.2 0.3 0.2 0.2-0.1 0.8 0.3 0.4 0 0.5 0.4-0.3 0.1 0.1-0.1 0.4 0.1 0.4-0.2 0.1-0.1 0.6 0.2 0.1 0.1 0.3-0.2 0.4-1.5-0.9-3.6-2.2-2.2 0.7-1.6 0.5-1.9 0.6-7.3 2.1-5.2 1.5-8.5 1.3-2.3 3.8-2.7 0.7-11.9 2.9-11.8-0.5-0.1 0.4 0 0.4 0.3 0 0.3 0.3-0.4-0.1 0 0.4-0.2-0.2-0.4 0-0.3 0.5 0.2 0 0.1-0.2 0.2 0.2 0 0.1-0.2 0 0 0.1 0.3 0.2-0.4 0.4-0.2 0.5 0.2 0.4-0.2 0.1-0.1-0.3-0.2 0.2-0.2 0-0.1 0.3 0.4 0.2 0.1 0.3 0.6 0 0 0.2 0.3-0.2 0 0.4 0.3 0 0.3 0.3 0.1 0.6-0.1 0.2 0.1 0.4 0.2 0.2 0.1 0.3 0.4 0.1-0.1 0.2 0 0.4-0.4 0.2 0.3 0.2 0.3-0.1-0.1 0.6 0.3 0 0 0.4 0.1-0.1 0.1-0.5 0.1 0.4 0.4 0.1 0 0.6 0.4-0.2 0.4 0.4 0 0.2-0.1 0.2 0.3 0.6 0.2 0.1 0.8 0 0.1 0.3-0.1 0.4 0.1 0.2-0.1 0.1 0.4 0.5 0.3 0 0.1 0.2 0.4 0 0 0.2 0.2 0-0.1-0.3 0.1-0.1 0.7 0.1 0.2 0 0.5 0.7 0.3-0.1 0.3 0.2 0 0.3 0.3 0.2-0.1 0.1-0.4 0 0 0.1 0.2 0 0 0.2 0.1 0.1 0.2-0.2 0 0.2-0.1 0.2-0.2 0 0-0.2-0.1 0.1 0.1 0.3 0.3 0.2-8.7 3.7 0 0.6-0.4 0.1 0.1 0.3-0.5 0.1-0.1-0.1-0.2 0.2 0.1 0.5 0.2 0.4-0.1 0.1 0.1 0.2 0 0.8 0.4 0.6 0.2 0 0 0.5-0.4 0.5 0.2 0.4-0.2 0.6 0 0.1 0.3 0-0.1 0.7 0.2 0.1 0.2-0.2 0 0.6 0.6 0 0.3-0.2 0.3 0.2-0.2 0.8 0.1 0.2-0.4 1.2-0.1 0.2-0.2-0.1-0.1 0-0.3 0 0 0.3 0.2 0.2 0 0.4 0.2 0-0.1 0.3 0.2 0.6-0.4 0-0.1 0.1 0.2 0.6 0.2 0-0.3 0.6 0 0.5-0.3 0.1-0.1 0.4 0.2 0.6-0.1 0.6-0.3 0.3-0.2 0.5 0.1 0.6-0.2 0.8-0.4-0.2-0.2 0.3-0.1-0.2-0.4 0.2-0.2 0-0.2 0.2-0.7 0-0.6 0.1 0 0.1-0.1-0.2-0.1 0.2-0.2 0-0.3-0.3-0.2 0.1-0.3-0.1-0.3 0.1 0 0.2-0.4-0.1-0.1 0.1-0.4-0.2-0.1-0.3-0.1 0-0.1 0.1 0.6 0.8 0 0.4-0.6-0.3-0.5-0.4 0 0.1-0.3 0.4-0.1-0.1-0.4 0.2-0.1 0.2-1.2 0.6-0.7 0.5-0.1-0.2-0.4 0.1-0.3 0.3-0.9 0.2-0.5 0.8-0.1 0-0.2 0.3-0.2-0.2-0.1 0-0.3 0.3 0 0.3-0.1 0.3-0.3 0-0.2-0.2-0.6 0.2 0.1 0.7-0.3 0.4-0.5 0.2-0.2-0.4-0.2 0-0.2 0.7-0.4 0.1-0.1 0.4-0.2 0.1 0 0.4-0.3 0.4-0.2 0-0.1 0.4-0.2 0-0.5 0.2-0.2 0.1 0 0.2-0.2 0-0.4 0.3 0 0.2-0.2-0.1-0.2 0.3-0.6-0.1-0.8-0.2-0.2 0.2-0.3 0-0.2 0.1-0.3-0.1-0.6 0.9-0.1-0.1-0.8 0.3-0.1 0.3-0.5 0.4 0 0.4-0.2 0.1 0.1 0.3-0.2 0.3-0.1 0.7-0.3 0.3-0.3 0.1-0.8-0.1-0.9 1-0.7 0.2-0.5-0.3-0.6 0.3-0.1 0.1-0.5 0.3-0.3-0.2-0.5 0.2-0.4-0.1-0.2 0.3-0.7 0.4-0.3 0.7-0.4 0.1-0.1 0.4-0.4-0.1-0.2-1-0.1-0.3-0.5-0.9-0.4 0.1-0.2 0.5-0.8 0.3-0.2-0.1-0.1 0.1-0.3 0.4-0.1-0.5-0.1-0.4-0.8-0.1-0.1-0.2-0.5 0.2-0.1-0.1-0.2-0.6-0.2 0-0.1-0.2-0.1-0.4 0.1-0.6-0.7-0.2-0.3-0.2-0.2-0.9-0.3 0.1-0.4 0.6-0.2-0.2-0.4 0.1-0.1-0.4-0.2 0-0.2-0.4-0.1 0.2-0.3 0-0.8-0.4-0.5 0.5-8.5 9.2-2 2-0.1-0.3-0.4-0.3 0.2-0.5-0.1-0.2 0-0.3 0.1-1.5-0.5-0.7-0.1-0.7 0-0.7 0.3-1-0.3-0.4 0.2-0.6-0.3-0.5 0.3-0.3-0.2-0.4 0.1-0.1-0.3-0.3 0.2-0.4 0-0.7-1.1-1.1 0-0.4-0.1-0.1 0.1-0.5-0.2-0.3-0.3 0 0-0.6-7.2-3.6-3.1-3.4-2.6-4-6.2-1.5-0.7 0.2-11.3 3.2-1.6-0.3-10.7-1.8-6.2-4.6-2.5-1.9 0-0.3-0.2-0.1 0-0.1-0.2-0.1 0.1-0.1-0.3-0.3-0.1 0-0.1-0.1-0.1-0.1-0.2-0.2-0.5-0.1-0.6-0.6-0.4-0.5-0.6 0-1-1.1 0.2-0.4 0.6-0.3 0.2-0.5 0-0.2z" id="TMM" name="Mary Region">
  </path>
  <path d="M340.3 416l-0.2-0.3-3.7-4.8-6.1-4.4-5.6-4.3-11.8-2.1-7.1-2.8-1.9-2.8 0.2-8.1 4.9-12.1 5.6-11.4 8.2-29 3.6-12.2 2.4-10.4 5.4-4.7 1.4-4.4-0.2-8.8-3.6-7.2-0.8-11.4 2.9-6 6.1-1.9 4.3-4.9 4.9 5.2 8.5-6.1 17.5-2.4 13.1-1 16.3-0.8 14.5-6.1 22.3 3.3 14.5 4.2 9.7 8.3 22.7 0.6 17.6-0.5 18.3-0.2-0.8 29.2 4 6.1 12.6-2.6 5.6 12.6 10.9-2.3 21.6-0.1 11.1-1-1.5 14.4-13.5 3.6-4.9 29.3-8.7 3.4-0.6 9.7-7.6 4.1 8.8 34.6 14.7 13.3 12.6 20.5-7.3 4 2.9 10-7 2.7 5.9 21.2 14.5 3.1 11.2 5.5 6.6 6.8-10.4 7-5.6-11.4-10.8-3.1 31.1 49.6-2.6 52.7 7 1.9-0.5 7.3-7.5 5 5.9 10.1-3 8.8-1.6 1.2-0.2 0.8-0.2-0.1-0.2 0.3-0.1-0.2 0.1-0.5-0.7 0.2-0.3-0.2-0.1 0.1-0.1 0 0-0.2-0.1-0.5-0.3-0.4 0-0.8 0.4-0.5-0.3-0.3-0.9 0-2.9 0.4-1.6 0.5-0.2 0.3-0.4 0.2 0-0.2-0.5-0.7-1.5-2.4-0.9-1.8-0.1-2-0.1-0.1 0.2-0.2 0-0.1 0.1-0.2 0.7-0.7 0.2-0.1 0.2-0.6-0.1-0.5 0-0.9 0-0.1 0.1-0.3 0.4-1.9 0-0.7-0.3-0.5-0.1-0.1 0.2-0.9 0-0.1 0.2-0.8-0.1-1.3-0.2-1.2-0.1-0.4-0.2-2.4-0.3-1-0.1-0.4-0.1-0.3-0.5-1-0.6-1.1-0.1-0.1-0.9-1.1-0.3-0.3-0.9-0.8-1.3-0.7-1.5-0.2-0.7-0.3 0.5-0.5 0.2-0.5 1.5-0.7 0.2-0.4 0.1-0.8 0.1-0.1 0.1-0.7-0.3-1.6 0.2-0.6 0-0.3 0.4-0.4 0.6-0.2 0-0.1 0.6-0.3 0.2-0.9 0-0.7 0.1-0.7 0-0.1 0.2-0.5 0-0.2 0.4-0.5 0.2-0.4 0.4-0.5 0.1-0.3 0.1-0.2-0.1-0.4-0.1-0.8 0-0.4-0.1-0.9 0.2-0.2 0.2-0.5-0.4-1.6-0.2-0.4 0.1-0.2-0.2-0.3-0.3 0-0.4-2-0.9-1.6-0.1-0.2-0.1-0.5 0-0.1 0-0.5 0-1 0-0.3-0.1-0.8-0.3-0.8-0.3-0.5-0.4-0.5-0.5-0.4-0.5-0.2-0.1-0.1 0.2-0.4 0-0.1 0.1-0.2 0.2-0.3 0-0.1-0.1-0.2-0.4-1-0.4-1 0.1-1.2 0.2-2.4 0.4-0.2 0.2-0.4 0.3-0.3 0.2-0.5-0.3-0.4 0.2-1.3-0.3-0.3 0-0.1 0.2-0.6 0.3-1.7 0.2-0.9-0.4-1.2-0.1-0.9 0.2-0.6 0.1-0.3 0.4-0.6 0.1-0.1 0.2-0.6 0.2-0.5 0-0.2 0.1-0.2 0.1-1-0.1-1-0.3-0.7-0.5-1.3-0.5-2.7-1.2-0.1-1.4-0.2-1.2-0.2-2-0.4-6.5 0.1-7.6 0.2-13.6 0.2-8.9 0.2-10 0.2 0-0.5-0.6-0.1-0.7-1.2-0.9-1.2-1.8-3.9-0.9-1.5-0.1-1.2-1.5-1.6 0-0.5-0.8-0.7-0.6-1-0.4-1.2-0.4-0.2-0.3-0.1-0.5-0.5-0.6-0.3-1.1-1.1-0.8-1.6-0.7-0.9-0.2-0.4-0.5-0.6-0.1-0.6-1.5-1.5-0.4-0.6-0.7-1.2-0.1-0.6 0.1-1.2-0.3-0.7-0.5-0.8-2.4-3.2-0.8-0.4-0.9-0.7-0.4-0.2-0.6-0.3-1.2-0.5-0.9 0.3-1 0.1-2.5-0.5-0.3-0.2-0.6 0-0.5-0.7-0.8-0.6-0.4 0-1.1-1.1-0.6-0.7-0.7-0.7-0.2-0.1-0.2 0.2-0.6-0.6-0.5 0.1-0.5-0.7-0.2 0.2-0.1-0.1-0.1-0.1-2.4-0.8-6.8-2.2-0.7 0-0.6 0.3-0.7 1.2-0.5 0.5 0-0.1-1-0.5-0.2 0.1-0.2 0 0-0.1-0.5-1.3-0.3-1.5-0.4-1.3-1.1-1.1-1-0.2-1.5 0.6-1.1-0.6-0.6-0.6-1-0.6 0-0.3 0.7-0.2 0.4-0.7 0-0.3-0.5-1.2-0.8-0.3-0.4-0.7-0.1-0.4-0.8-0.3-0.1-0.1 0.2-0.6-0.4-0.1-0.6-0.4-0.3-0.6 0.2-0.3 0-0.7-0.1-0.1-0.5-0.2-0.2 0.2-0.4-0.2-0.2 0.1-0.3 0-0.8-0.8 0.2-0.5-0.5-0.7 0.1-0.5-0.2-0.3 0-1.5-0.1-1.1-0.7-2.7 0.3-1.1 1.1-0.5 0.7-0.6-0.9-1.1-0.6 0.3-0.4-0.4 0.7-2.3-0.5-1.1-1.5-1.5-0.4-1.4-2.2-0.1-0.3 0.1-0.2-0.2-1.4-0.3-2.8 1.2-0.8 0.4-0.1 0-0.6-0.1-0.8-0.5-0.2-0.3-0.3-0.2-0.1-0.3-0.6-0.3-0.1-0.3-0.4-0.1-0.1 0.2-0.2-0.1-0.8-0.8-0.7-1.7-1.4-0.5-0.7-0.4-2.6-2.4-1.4-1.5-0.5-0.1-1.4 0.1-0.4-0.2-0.7-0.4-0.6-0.5-1.4-0.9-2.6-1-0.9-0.2-1.8 0.3-1.4-0.2-0.7-0.5-0.6-0.5-1.3-1.5-0.8-0.3-0.5 0-0.2 0.5 0.1 0.7-0.8-0.5-0.4 0.6-0.1 1.2-0.7 0.8-2.2-0.4-0.6 0.4-0.1 0.2-0.7 0-0.5 0.4-0.4 0.5-1.5-0.1-1.5-0.4-1.2-0.5-1.8-1.1-1.3-1.2-0.1 0.1-0.6-0.4-1.3-0.5-0.6-0.5-0.5 0-0.5 0.4-0.8 0-0.9 0.8-0.8 1.1-0.6 1.3-0.9 1.4-0.5 0.3-0.6 0.2-3.2 0.3-1.9 0.2-0.1-0.4-0.8 0-0.1-0.1-0.3-0.5 0.1-0.4-0.3-0.4 0-0.5 0.1-0.1-1-0.2-2.4 0.1-1.2-0.3-0.5-0.4-1.1-0.2-2.3-0.8 0-0.8 0.1-0.4 0-0.3 0.3-0.2 0-0.2-0.5-0.9 0.2-0.9-0.2-0.5 0-0.3-0.5 0-0.2-1-0.2-1.1-0.2-0.5-0.3-0.3-0.3 0-1.1-0.5-0.2 0-1.5-1-0.4 0.3-0.5-0.1-1.1-0.1-0.8-0.1-0.3 0-0.6-0.1-2.8-0.7-0.8-0.2-1-0.5-0.3-0.1-0.6-0.3-0.7-0.3-6.7-3.3-0.1 0-0.6-0.3-2.1-0.6-0.1 0-1 0.1-1 0.2-0.5-0.3-0.4-1 0.1-0.6-0.3 0.1-0.2-0.2-0.1-0.5-0.5 0.2-0.2-0.3-0.2 0.2-0.7 0-0.3 0.1-0.2-0.1-0.6-0.2-0.1 0.1-0.1-0.2-0.4-0.3-0.1-0.5-0.6-0.5-0.8-0.3-1.3 0-0.4 0.3-0.3 0.2-1-0.2-0.1-0.1-0.5-0.4-0.5 0.1-0.2-0.2-1.6 0.3-0.9-0.4-0.8-0.2-0.3-0.3-0.3 0-0.8-0.4-0.8 0.2-0.7 0.3-0.3 0.2-0.6 0.4-0.5-0.2-0.8 0.6-0.6 0-0.3-0.1-0.1-0.2-0.1-0.1-0.3-0.2-0.1-0.5-0.3-0.3-0.9-0.2-1.4 0.1-0.5-0.1-0.7-0.4-2-1.9-0.8-0.4-1.1-0.1-0.5-0.6-0.5-0.1-0.4-0.2-0.2-0.3-0.3-0.8 1.6-6.2 0-0.6-0.2-0.8-1.1-1.1-0.7-0.9-0.3-1.4-0.8-1.3-0.4-0.2-0.9-0.3-0.6-0.5-0.4-0.6 0-2-0.7-2-0.4-0.7-1-0.6-0.3-0.3-0.4-1.2 0.1-1-0.2-0.4-0.3-0.2-2.2-0.8-1 0-1.3 0.5-0.2 0.1-0.8 0.9-1.1 2.3-0.4 0.3-1.6 0.8-0.1 0.1-0.8 0.5-0.2 0.3-0.7 1-0.6 0.3z m76.1 24.7l6.2 2 2.2-0.1 2.1-0.8 1.5-2.9 0-1.3 1.6-1.8 0-0.6-1-2-2.2-2.9-1.6-0.6-0.4 1-1.2 1.6-2-1.3-1-0.8-1-1.1-2.1 2.1-0.2 5.9-0.9 3.6z" id="TMA" name="Ahal Region">
  </path>
  <path d="M81.6 285.7l-0.5 0.3-0.6-0.9-1.1-3-0.1-0.3-0.6-0.4-0.9-2.1 0.4 0.3 0.6 0.7 0.4 0.3 0.4 0.1 0.1 0.2 0.3-0.1-0.1 0.2 0.2 0.3-0.1 0.1 0.2 0.3 0.4 0.3-0.3 0.4-0.4-0.2 0.3 0.6 1.1 0.7 0.5 0.3 0.9 1 0.1 0.2-0.3 0.2-0.3-0.3-0.4 0.1 0.2-0.3-0.3-0.2-0.4 0 0 0.3 0.3 0.2-0.2 0.3 0.2 0.4z m2.5 78l0.3-0.8-0.1-1.5-1.4-2.4-0.2-1.7 0.1-1.8 0.2-0.8-0.1-0.8 0.3-3.3-0.2-0.5 0.2-1.4-0.3-1.2 0-1.6 0.5-1.9 1.1-2.1 0.5-0.3 0 0.1 0.2 0.1-0.1-0.2 0.5 0.1 1-0.3 0.5 0.2 0.2 0.2-0.1 0-0.1-0.1-0.2 0.1-0.4 0.6 0-0.2-0.4 0 0.3-0.1 0.1 0 0.1-0.1-0.1 0 0.1-0.1-0.1-0.3-0.2-0.1-0.9 0.4-0.5 0.4-0.5 0.9-0.2 1.6-0.2 3.8 0.2 3.6 0 3.9 0.3 4.1 0.3 1.7 0.4 4.3 0 0.7-0.1-0.4-0.3-0.6 0 0.1-0.3-0.3 0.2 0.2-0.4-0.7 0.2 1 0.6 0.8 0.1-0.1-0.1 0.3-0.4-0.4-0.5-1.1-0.2-1.2 0.1-0.8z m215.5-205.6l4.1 15.8 10.3 14 6.3 12.6 3.5 10.8 7.2 7 3.5 10.9 4.5 11.6-2.1 10.5 5.2 8.3 2.2 2.4-4.3 4.9-6.1 1.9-2.9 6 0.8 11.4 3.6 7.2 0.2 8.8-1.4 4.4-5.4 4.7-2.4 10.4-3.6 12.2-8.2 29-5.6 11.4-4.9 12.1-0.2 8.1 1.9 2.8 7.1 2.8 11.8 2.1 5.6 4.3 6.1 4.4 3.7 4.8 0.2 0.3-0.5 0.2-0.4 0-0.1 0-0.9-0.3-0.8-0.4-0.7 0.9-0.2 0.3-0.5-0.6-0.1-0.1-0.6-1.5-1.4 0-0.1 0.3-0.3 0-1.1-0.3-0.7 0-0.3-0.2-0.4 0.2-0.3-0.1-0.6 0.1-0.8-0.5-0.7 0.1-1.5-0.8-0.7-0.1-0.7 0-0.7-0.6-0.6-0.3-0.4-0.3-0.7-0.2-0.3-0.3-0.4 0-0.4-0.8-1.2-0.7-0.2-0.3-0.1-0.4-0.1-0.4-0.3-0.1-1.1 0.5-0.3 0.2-1.6 0.5-0.9 0.2-1-0.2-1 0.1-0.7 0.4-0.6 0.5-0.5 0.7-0.1 0-0.2 0.2-1.1 0.5-0.1 0-1-0.2-0.9-0.7-0.3-0.3-1.1-0.6-0.9-0.3-2.7 0.4-2.1-0.2-1.8 0.3-1.2 0.4-0.7 0.6-1.8 1.3-2.9 2.7-0.5 0.1-0.1 0.4-0.3 0.3 0.3 0.2-0.4 0.5-0.4 0.1 0.7 2.1-0.1 0.1 0 0.3 0 0.1 0.2 0 0.5 0.4 0.3-0.1 0.1 0.9 0.3 0.4 0.2 0.8-0.5 0.2-0.7 1.3 0.1 1.7-0.5-0.3-0.4 0-0.2 0.5-0.2-0.4-0.2 0-0.5-0.2-0.1 0-0.5 0-0.3-0.2-0.3 0.3-0.3 0 0 0.2-0.9-0.2-1.2 0.4-0.3-0.1-1.5 0.3-0.2 0.1-1.1-0.6-1.7-1.2-0.5 0-2.2 0.3-1.7 0.5-0.4 0.1-0.3-0.3-0.7 0.2-2.7 0.4-1.2 0.2-0.2-0.2-0.5 0.1-0.5 0-0.2 0.1-0.3-0.1-0.5 0.2-0.2-0.2-0.4 0-0.4-0.4-0.5 0.5-1.8-1.1-1.5-0.1-1.2 0.2-2-0.4-1.2-0.6-2.3-1.6-1.8 0.1-1.4-0.4-0.5 0-1.5 0.6-0.1 0-1.3 0.3-0.7 0.3-1.4 0.2-1.5 0-8.7 1.8-4 0.2-1.1 0.5-1 0.8-1.3 1.6-0.6 0.5-3.9 1.9-0.5 0.4-0.1 0.4-1.6 0.6-1 0.9-0.1-0.2-0.1 0.1-0.2-0.1-0.2 0.2-0.2 0 0 0.3-0.2-0.2-0.1 0.2-0.4 0 0 0.3-0.3 0.2-0.1-0.2-0.4 0.3 0.1 0.1-0.1 0.1-0.3-0.2-0.2 0.1-0.1-0.1-0.1 0-0.2 0.2 0 0.1-0.1 0.1-0.1 0.1 0 0.1-0.1 0.1 0 0.1-0.2 0 0 0.2-0.5 0.1-0.1 0.3 0.1 0.1-0.1 0.2 0.1 0.1-0.3 0 0.2 0.2-0.2 0.1 0.2 0.2-0.3 0.1 0 0.2-0.2-0.3-0.1 0.3-0.3 0-0.1-0.5-0.5-0.1-0.1-0.1-0.1 0-0.1-0.2-0.4 0.1-0.1-0.3-0.1 0-0.1 0.3-0.2-0.1 0 0.2-0.3-0.1-0.2 0.6-0.2-0.1-0.3 0-0.2-0.2 0.1 0.3-0.2 0.1-0.1-0.2-0.1 0.2-0.2-0.1-0.1 0.2-0.2-0.2-0.1 0.1-0.2-0.1-0.1 0.3-0.3 0.1 0.1 0.2-0.1 0 0 0.2-0.2 0-0.5 1.1-0.5 0.6-0.7 0.2-0.2 0.1 0.1 0-0.1 0-0.4 0.1-0.1 0-0.1 0 0.1 0.5-0.2 0.1-0.2 0.4-0.1-0.2 0 0.2-0.3 0.1-0.3 0-0.1 0.1 0 0.1-0.1 0.2-0.2 0.4 0 0.1-0.2 0.2 0.1 0-0.2 0.2-0.1 0.1-1 1.1 0 0.1 0.2 0.3 0 0.3-0.2 0.1 0 0.1-0.3 0 0.1 0.2-0.4 0.2 0.1 0.1-0.4 0.1 0.1 0.1-0.2 0.1 0.1 0.1-0.2 0.2 0.3 0.1-0.2 0 0 0.1-0.5-0.1-0.2 0.1-0.1 0.2-0.2-0.1-0.2 0.3-0.2 0 0 0.1-0.2 0.1 0.3 0.4 0 0.2-0.2 0 0.1-0.2-0.3 0 0 0.2-0.5 0 0 0.1-0.3 0.4 0 0.1-0.3-0.2-0.2 0.3 0.2 0-0.1 0.1-0.6 0.1-0.5 0.3-0.2 0.4 0.1 0.2 0.2 0-0.1 0.1-0.1 0-0.1 0.3-0.5 0.3-0.1 0.2-0.3-0.1 0 0.2-0.2 0.2 0.3-0.1 0 0.1-0.2 0.1-0.3-0.1 0.1 0.1-0.2 0.1-0.1 0.2-0.2 0 0 0.1-0.1-0.3-0.7 0.2 0.1 0.2-0.3 0-0.1 0.4-0.2-0.2 0 0.2-0.2 0.1-0.1 0.2-0.3 0.1-0.1 0.2-0.2-0.1 0 0.3-0.2 0.3-0.1 0 0.2-0.1 0-0.2-0.2 0-0.2-0.2-0.2 0.2-0.1-0.1 0-0.1-0.1 0.1-0.1-0.1-0.1 0 0 0.3-0.1-0.2-0.1 0 0 0.2-0.1 0-0.1 0.3 0-0.4-0.1 0-0.1 0.1-0.1 0.4-0.1-0.1-0.2 0.3-0.2 0 0.1 0.1-0.2 0-0.1 0.3 0.1 0-0.1 0.2 0.1 0.1-0.1 0.1-0.3-0.1-0.1 0.1 0 0.2-0.2 0-0.1 0.2-0.2-0.1 0 0.1 0.2 0.1-0.1 0.2 0.3 0.1-0.4 0 0 0.2-0.1 0.1 0 0.2-0.2 0 0 0.2-0.2 0.2 0 0.1-0.2-0.1 0 0.2-0.2-0.1-0.1 0.1-0.1 0.6 0.2 0.2-0.1 0.1-0.1-0.1-0.1 0.2-0.1 0 0.1 0.3-0.1 0.1 0.2 0.3-0.2 0.2 0.2 0.1 0 0.2-0.5 0 0.2 0.1 0 0.2-0.2 0.1 0 0.2-0.4 0.2 0.3 0.2-0.1 0.1 0.1 0.1-0.3-0.1 0 0.3-0.2 0.1-0.1 0.2-0.2 0 0 0.1 0.2 0.3-0.4 0 0.2 0.2 0 0.2 0.2 0-0.1 0.3 0.1 0.2-0.3 0.1-0.3 0.3 0 0.2-0.2-0.1 0.2 0.4-0.2 0.1 0-0.2-0.2 0.1 0 0.2 0.2 0.1-0.2 0.1-0.1 0 0.1 0.3 0 0.1 0 0.2 0 0.5 0.2 0.5 0.8 0.7 0.4 0 0.3 0.8-0.5 2.9-0.1 0.2 0 0.3-0.3 0.5-0.1 0.3-0.2 0.4 0 1.1-0.2 0.8-0.4 0.3-0.2 0.4-1 0.8 0.2 0.3-0.1 0.5-0.2-0.1-0.1-0.1-0.1 0.2-0.4 0 0 0.4-0.1-0.1-0.3 0.2-0.2-0.1-0.2 0.1-0.1-0.1-1.1 0.7-0.2 0.2 0 0.2-0.1-0.1 0 0.2-0.2 0.1 0.1 0.1-0.2 0 0.1 0.2-0.6 0.8-0.3 0.6-0.4 0.4-0.6 0.3-0.9 0.8-0.5 0-0.1 0.1-0.1-0.2-0.4 0.1 0.1-0.2-0.2 0 0-0.1 0-0.1-0.3-0.1 0 0.1-0.4 0.2 0-0.3-0.2 0-0.1 0-0.2 0.1 0.1-0.2-0.1-0.3-0.5-0.1-0.5 0.2-0.4-0.3-0.2-0.4-0.4 0-0.1-0.2-0.3 0.1-0.2-0.2-0.1 0.1-0.1-0.2-0.4 0 0 0.2-0.2-0.1-0.2 0.2-0.1 0.5-0.1 0.2-0.2 0 0-0.1-0.3 0.1 0.1-0.1-0.1-0.2-0.1 0.3-0.3 0 0 0.2 0-0.1-0.4-0.1 0 0.3-0.3-0.2-0.1 0.3-0.3 0 0.1 0.1-0.5 0.5-0.3-0.1-0.4 0.4-0.5-0.3-0.2 0.3-0.2 0.1-0.2 0.2-0.4 0.6-0.1-0.1 0 0.1-0.2 0.1-0.4-0.2-0.3 0.2-0.4 0.5-0.5 0.4-0.2 0.3-0.6 0.2-0.4 0.5-0.3 0-0.3 0.3-0.6 0.3-2.6 2.2-3.1 1-4-0.3-1.5 1.6-1 0.7-0.1 0.3-3.2-0.4-9.3-0.9-1.2-0.5-3.2-0.3 0-1.1-0.3-1.3-1.3-0.8-0.1-1.2 0.1-0.9-0.7-3.3-0.7-1.7-1.3-2.7-1-3.4-1.6-4.3-1.4-5.1-1.1-5.4-0.7-5-0.6-9.2 0.5-8.2 0.5-3.2 1.8-8.3 0.5-3.2 0.6-14 0-1-1.4-4.1-1.3-6.8 0-2.4 0.3-2.2 1.5-6.7 2.4-5.4 1.5-2.1 0.8-2.5 0.2-2.2 1.4-2.9 1.8-2.5 0.8-1 0.8 0 0.6-1.3 0.3-1.5-0.8-0.2-0.9-0.7 0.4-2.8 0.8 0 0.1-0.7-0.6-0.6-0.6 0.3-0.6 0.6-0.5-0.2 0.5-1.6-0.4-0.3-0.7 1.2-0.4 0-0.2-1 0.5-1.4-0.4 0.2-0.5 0.5-0.6-0.2-0.5-0.3-1.1 0.6-0.4 1 0 1.3-1-0.5-0.5-1.4-0.3-4.3 0.3-1.4-0.3-0.5-0.6 0.4-0.2 0.9 0.3 0.5-0.6 0.5-1.6-0.4-1.6-0.6-0.3-0.8 0.1-1-0.2-0.6-0.6 0-0.3 0.8-0.4 0.6-0.5 0 0.1-1.4-0.4 0-0.6-0.3-0.3-0.5-0.5 0 0-1.3-0.7 0.2 0 0.7 0.6 1 0 1.2-0.3 1-0.6-0.3 0-0.9-0.6-0.5-0.3-1.1 0-1.1-0.6-0.6-0.3 1.1-0.1 1-0.5-1.5-0.3-2.5-0.4-0.7 0.8-0.5 0.8-0.2 0.4-1-0.3-0.6 0.5-0.9 0.3-1.1-0.8 0.3-1.2 1.3-0.4-0.1 0.7-1.2 0.4-2.8 0.4-0.6-0.5-0.5-1.3 0.2-0.3 0.8-1.3 1.7-0.4 0.8-0.2 0.9 0 0.9 0.6 0.9-0.5 3.2-0.5 0.1-0.1-0.9 0.2-2.7-0.8-0.2-0.7-0.6 0.3-0.6-0.4-0.4-0.5-0.1-0.1-0.7-0.5-0.4 0.7-2.3 1.2-1.1 0.2-0.5-0.2-0.4-1.1 0.6-2 1.4 0.2-1-0.4-0.6-1.1 0.2-0.4-0.8 0.2-1.4 1.7-3.4-0.8 0.5-0.8 0.8-1.3 0.8 0.1-0.8-0.2-0.3-0.6-0.1 0.3-1 0.7-0.9 0.2-1.2-0.6 0.3-0.7 1.1-0.8 0.8 0-1 0.6-1 0.4-1.2 0.6-0.9 0-0.6-0.7 0.2-1 1-1.2 0.6-1.3 1.9-0.7-0.3 1.4-2.2-0.5-0.6-1 0.4-0.6 1-0.6 0.2 0.4-1.2 0.5-0.9 0.3-0.2 0.1-0.3 0.4-0.4-1.6 0.7-3.4 2-0.1-0.2 1.9-1.1-0.7-0.4-0.2-0.9 0.4-1.2-0.3-0.5-2 1.1-2.4 1.1-1.2-0.1-1.7-0.4-1.3-0.5-0.1-0.8-2.2-0.5-1.1 0.1-0.2 0.2-0.1-0.1-0.6 0.1-0.5 0.5-1.1 0.7-1.9 0.3 0 0.4 0.5 0.8 0.8 0.3 0.9-0.3 1.3 0.2-0.4 1.3-1.5 2.2-0.9 3.7 0.6 1.6 0.3 1.6 0.1 0.9-0.6 0.3-0.4-1.1-0.4-3.7 0-3-0.6-2.6-0.9-1.9-1-2.7-1-1.2-0.2-0.1-0.3 0-0.1-0.3-0.2 0.1 0.1-0.5-0.2-0.6 0.6-1.9 1.1-1.8 2.3-2.9 3.9-6.3 1-1.8 0.8-2.2 0.8-2.8 0.7-1.8 1-0.9 1.1-0.2 0.8 0.3 0.5 1-0.8 0.5-0.9 0.1-0.8 0.3-0.6 1.2-0.4 1.4-0.7 0.9-1.3 4.1-0.9 1.4 0.3 1.1 0.1 0.9 1 0 1.8-0.5 7.9-1.2 2.5-0.1 1.2 0.7 0.9 1 0.6 0.9-0.3 0.8 0.3 1-0.6 1.2-0.8 1.1-1.3 1.5-0.3 1.9 0.6-1.7 1-0.7 0.9-1.2 0.7-1.5 0.6-0.9 0.8 0.6-0.2 1.2-0.9 0.9-0.4 1.1-0.7 0.7-0.4 0.9 0.2 0.7 1-0.7 0.7-1.2 1-0.9 1.1-1.1 0.9-0.6 0.9 0.1 0.6 1 0.6 0.5 0.8-0.3 0.7-0.7 0.3-1.3-0.3-1.6 0.3-1.1 0.8 0 0.6 2.1 1 0.7 1.2 0.1 1.6-0.9 0-0.7-0.5-0.1-0.3-0.8-0.5 0.1-0.1-0.8 1.2-1.4 0.2 1.2 0.9 0 1-1.8 0.2-0.9 0.6 0.3 0 0.6-0.7 1.2 0 0.2 0.7 0.2 0.6-0.1 0.3-1.7-0.7 0 0.2-0.7 0.7 0.1 0.3-0.9-0.5-0.3-0.3 0.2-0.5 1.1-1.1-0.6-0.5 0.3-0.7-0.8-1.5 0.9-0.7-0.2-1.2-2.2 0.4-0.5 0.6-0.9 0-1.3-0.4-1-0.6 0.4-0.4-0.7-0.3 0.1 0.3 0.9-0.8-0.3-0.1-0.7-0.4-0.2-0.3-0.4-0.7 0.6 0.7 0.8 0.1 1.2-1.3-1.3-1 0.8-0.7-0.1 0.1-0.8 0.7-0.6 0.3-0.7-0.3-0.3-0.1-1.2-0.3-0.6-0.5-0.4-0.6 0.5-0.3 0.6 0.2 1 0 0.4-0.6-0.5-0.3-0.8-0.7-0.1-0.1-0.8-0.6-0.8-1-1.9-0.6-0.5-0.7-1.1-0.6-0.1-0.1 0.7 0.5 1.1 0.6 0.5 0.2 0.7-0.1 0.4-0.9-0.4-0.5-1.4-0.5-0.4-0.5 0.4 1.4 3.3-0.8 0.4-0.7-1.3-0.7-1.7-0.1-2.1 0.4-2.6 0.6-2.1-0.2-0.5-0.5 0.5-0.3 1-0.7 0.9-0.4-0.5 0.1-1.7 1-0.6 0.8-0.7 1.7-4.4 1.8-1.5 1.1-1.5 1.4-1.2 2.3-0.3 0.7-0.9 1.1-0.9 3.7 1.3 1.8 0.9 2.1 0.2 2.6 0.5 0.6 1.4-1.3 2.4 0.4 0.7-0.3 0.2-0.1 0.5 0.5 0.2 0.2 0.4-0.7 0.5-0.1 0.3 0.2 0-0.1 0.3 0.4 0.1 0.8-0.8 0.3 0 0.2 0.3 0.5-0.1-0.1 0.4-0.6 0.2-0.9 1 0 0.1 0.5-0.3 0.3 0.2 0.3-0.1 0.5 0.1 0.4-0.4 0-0.4 2.2-2 0.8 0.6 1.3 0.6 3.9 0.2 0.8 0.9 0.2 0.7 3.7 0.2 2.8 0.4 4.9 1.1 1.4-0.5-3.2-2.4-3.6-2.2-2.3-2.4-3.1-0.6-4-1.2-2.9-1.6-3.2-3.4-1.2-0.1-0.7-0.8-4.3-1.9-2.1-1.5-1.8-0.9-2.1 0.3-1-0.2-2 0.7-0.7 1.1-1 0-0.7-0.7-0.8-0.1-0.5 0.7-1.3-0.8-0.6-0.9-1.1-0.7-1.2-0.4-1.7 0-0.3 0.2-1.1 1.2-0.6 0.4-0.8 0.8-1.8 0.7-0.9 1.1-0.9 1.6-0.2 0.2-1-0.2-0.7-0.2-2.2-1.6-0.5-0.3-0.9-0.2-0.6-0.6-2.1-0.9-0.5 0.3-1.7-0.2-0.7 0.2-0.2 0.6 0.2 0.1-0.1 0.1 0.4 0.3-0.3 0.3-0.3 0.1-0.4 0.4-1.1-0.3-0.7 0.1-0.6 0.2-0.3 0.2-0.5 0.1-0.5-0.3-0.3 0 0.8-0.6 0.1-0.4-0.1 0 0.2-0.4-0.1-0.4-0.2-0.1-0.3 0-0.1 0-0.3-0.2-0.3 0-0.8 0-1 0.1-0.3 0.1-0.1 0-0.1-0.1-0.4 0-0.1-0.1-0.3 0.3 0.1 0.2-0.1-0.1-0.1 0.1 0 0.2-0.2-0.1 0 0.2-0.2 0.2-0.2 0.4-0.5 0.1-0.4 0-0.5-0.2-0.5 0.2-0.1-0.2-0.1-0.6-0.4-0.2-0.4 0-0.2-0.2-0.4 0-0.5-0.2-0.7 0.4-0.5 0.4-0.3 0.8 0.3 0.5-0.4 0.7 0.7 0.7 0.1 0.8 0.1 0.5 0.1 1.3 0.5 2.2 0.2 0.2 0.1 0.9 0.5 1.8 0.4 0.4 0.6 0.4-0.1 0.2-0.9-0.2-0.4-0.3-0.5-0.2-0.6-0.7-0.5-2.3-0.5-0.5-0.5-1.9-0.6-0.5-0.1 0-0.1-0.3-0.3-0.2-0.7-0.1-0.3-0.2-0.2 0.1-0.3-0.4-0.1 0.1 0.1-0.1-0.1 0.1-0.2-0.3-0.5-0.1-0.3-0.1-0.3-0.7-0.1 0-0.4-1.6-0.7-1-0.5 0-0.5-0.3-0.9-0.1-0.6-0.4-0.2-0.3-0.3-0.1 0.4-2.5-1.1-1-0.2-0.4 0-0.4-0.6-1.1-0.1-0.3 0.9-2 0.6-2 0.4-1.7 0.1-1.1-0.6-2.4-0.4-0.8-0.7-0.3-0.2-0.5 0.3-2-0.2-0.5-0.4-0.4-0.5-0.8-0.4-1-0.2-1-0.5-0.7-0.1-0.8 0.3-1 0-2.8 0.6-3 0.9-3.4-0.2-1.8 0.3-3.5 0.3-1.8 0.6-1.7 0.6-1.3 1.1-2.1 2.8-4.3 2.2-4.1 0.4-1.1 0.3-1.9-0.2-1.1-0.3-0.5-0.6-0.3-0.5 0.2-0.3 0.4-0.2-0.1-0.2-0.7 0.1-0.9 0.3-0.2 0.5 0.7 0.1-0.5 0.4-0.4-0.1-0.9 0.3-0.8 0.6-0.5 0.7-2.2 0.2-1.1 0.4-3.1 0.8-1.8 1.1-3.8 0.8-1.7 1.3-4-0.1-2.2-1.7-4.1-0.7-1.1 0-0.9-0.1-0.1-0.1 0.2 0-0.4 0.1-0.1 0.1 0.3 0.1-0.2 0.2-1.1 0.3 0.3-0.1 0.4 0.1 0.1-0.1 0.3 0.3-0.4-0.1-0.6-0.2-0.2-0.2 0.1 0.2-0.8-0.1-0.2 0.4 0.4 0.3 1.2 0.4 0.5 0.6 0.5-0.1 0.1 0.3 0.6 0.3 0.4 0.2-0.3 0-0.3-0.2 0 0.2 0 0.4 0.6 0.3 1.2-0.3 1.8 0 0.4 0.1 0.3 0.4 0.2 0 0.4 0.1-0.1 0.1 0.2 0.2 0.1-0.2 0.1 0 0.1 0.2 0 0.4 0.4-0.2 0.3 0.2 0.4 0.1 0.2 0.3-0.2 0.2 0.2-0.2 0.5 0.2-0.1 0.1-0.2 0 0.2 0.1 0.1 0 0.1-0.3 0-0.1 0.2 0.2 0-0.1 0.1 0.1 0.5 0.3-0.1 0 0.2 0.1 0 0 0.1-0.1 0.1 0.2 0.2-0.1 0.2 0.2 0.1-0.1 0.5 0.1 0 0.1-0.3-0.1 1 0.2 0.6 0 0.5 0.9 3.4 0.2 0.3 0.1 1 0.5 1 0.6 2.1 0.1 1.2 0.2 0.1-0.2 0 0.1 0.1-0.1 0.6 0.1 0.5-0.1 0.2 0 0.1 0 0.7-0.2 0.6-0.1 0.1 0-0.1-0.2 0.4 0.1 0.1 0.1-0.3 0 0.4-0.6 0.7-0.1-0.1-0.5 0.3-0.5 0.1-1.4 0.6 0.9-0.6-0.2 0-0.2-0.2 1.1-1.3-0.3 0.1 0.3-0.3-0.4 0.1 0 0.1-0.2 0 0.8-0.6-0.1-0.2-0.1 0.1 0.1-0.4-0.1-0.6 0-0.5-0.1 0 0-0.1-0.1 0.1-0.1-0.2-0.1 0.3-0.2-0.2-0.1 0.1 0.1 0.1-0.2 0 0.1 0.3 0.2 0 0-0.1 0.1 0.2-0.3 0.4 0.1 0.3-0.1-0.1-0.1 0.3 0-0.2-0.1 0-0.1 0.2 0.2 0.2-0.3-0.1 0.2-0.3-0.2 0-0.1-0.3 0 0.2-0.1-0.2-0.3 0.5 0.1 0.1-0.1 0.3 0.2-0.4-0.1 0.3 0 0.2-0.1 0.1-0.1-0.4-0.1 0.3-0.6 0.8 0 0.5-0.2 0.3 0.2 1.4 0.8 1.8 0.3 0.3-0.1 0.1 0.2 0 0.5 0.7 0.5 0.1 0 0.1 0.4-0.2 0.1 0.1-0.2 0.2 0.1 0 0 0.1 0.1 0 0.1 0.2 0.1-0.1 0 0.2 0.6-0.2-0.2 0.1 0.1 0.2 0.4 0 0.1 0.1 0.3 0 0.5-0.2 0 0.2-0.1 0.2 0.4-0.2 0 0.2 0.2 0 0.1-0.2 0.1 0.2 0.1-0.1 0 0.1 0.5 0 0.4 0.2 0.2-0.1 0.1 0.2 0.3 0 0.1-0.1-0.1-0.1 0.2 0 0.9 0.2 0.5-0.3 0.1 0.1 0.3-0.1 0.1-0.1 0.1 0.1-0.1 0.1 0-0.1-0.1 0.1-0.1-0.1-0.2 0.2 0 0.1 0.1-0.1 0.1 0.1 0.2-0.1 0-0.1 0.1 0.1 0.1-0.2 0.1 0 0-0.2 0.2 0.3 0.2-0.1 0 0.1 0.2 0 0.3-0.2 0.1 0.1 0.1-0.1 0.4-0.1-0.1 0.1 0.1 0 0.1-0.2 0.1 0.1 0-0.3 0.3 0.1 0.1 0.4 0.4-0.3-0.1 0.2 0.2-0.2 0.5 0.2 0.2-0.3 0.2 0-0.1 0.1 0.4 0 0.1-0.1-0.1-0.1-0.1 0.1-0.1 0 0.3-0.2 0.2 0.1-0.1-0.1 0-0.1 0.3 0.1-0.3 0.1 0.2 0 0.6-0.3 0.1 0 0.1-0.2-0.2 0 0.3-0.2 0 0.1 0.2-0.3 0.4 0.1-0.1-0.2-0.1 0.1 0.1-0.1 0.2 0.1 0 0.1 0.1-0.2 0.1 0.2-0.1 0.2 0 0.2 0.2-0.1 0 0.6 0.1 0 0 0.3 0.3 0.2 0.2 0 0.9-0.3 0.4-0.4 0.1 0.1 0.3-0.4 0.4-0.1 0.3-0.8 0.5 0.1 0.3 0.2 1-0.5 0.8-1 0-0.4 0.3-0.1 0.5-0.2 1.3 0.1 0.4-0.3 0.8-0.1 0.3-0.3 0.2-0.3-0.1-0.5 0.4 0.1 0-0.1 0.2 0.1 0.2 0.3 0.1 0 0.3 0.2 0.1 0.3 0.4-0.1 0.1-0.1 0.1 0.1 0.1 0.5-0.2 0.2 0.1 0.5 0.4 0.6 0.2-0.2 0.2 0.1 0.8-0.2 0.2-0.6 0.2-0.1 0.1 0.3 0.2 0 0 0.1 0.3 0.3 0.3 0 0.2-0.3 0.2 0.2-0.2 0.2 0.2 0.7 0.4 0.3 0.4 0.1 0.3 0 0.2-0.2 0.3 0.1 0.7-0.6 0-0.4 0.2 0.3 0.1-0.1 0-0.1 0.1 0.1 0.2-0.1 0.2 0.1 0.3 0 0.1-0.3 0.1 0.2 0.3-0.2 0.7 0.3 0.9 0 1.2-0.5 1-0.7 0.8-0.9 0.7-1.1 0.1-0.8-0.3-1.1-0.1-0.2-0.2 0 0-0.2-0.3-0.2 0.4 0.1 0.2-0.2 0.4-1.2 0-0.1-0.5-0.3 0.4 0 0 0.1 0.2-0.2 0.4-1.2 0.8-1.5 0.1-0.6-0.2-0.4-0.5-0.6-0.2 0 0.3-0.3-0.2-0.6 0.1-0.1 0.5 0.6 0.7 0.1 0.3 0.3 0.4 0.1 0-0.4 0.2 0.2-0.2 0.3 0.1 0.1-0.3 0.6 0.2 0.9-0.2-0.2-0.1 1.2 0.2 0.9 0.1 0.1 0 0.3 0.1 0.3 0.4 0.2-0.2 0.1 0.5 0.1 0.1 0.2-0.3 0 0.2 0.1-0.3 0.2 0.6 1.1 0.3-0.2 0.2 0.1-0.3 0.1 0.1 0.1-0.4 0.4 0 1.1 1 2.7 0.8 1.7 0.3 0.3-0.3 0.3 0.1 0.6 0.5 0.6-0.1 0.2 0.3 0.6 0.5 0.7-0.1 0.3 0.5 0.3 0.8 0.3-0.7 0.2-0.1 0.3-0.5 1.6 0 0.7 0.1 0.6 0.5 1.1 0.6 0.9 0.5 0.3 0.6-0.2 0.6 0.2 1-0.1 0.3-0.3 0.5 0 0.1-0.3 0.9 0 0.1-0.1 1 0.1 0.1 0 0.3 0.2 0.2 0-0.1-0.1 0.4 0.3 0.5-0.1 0.2 0.1 0.4 0.1 0.5-0.2 0.3-0.3 0.3 0.1 0.4-0.3 0.3-0.1 0.1-0.3-0.1-0.5 0.1-0.1 0.2 0.3 0.1-0.1 0.1-0.2-0.2-0.1 0.4-0.3 0.1 0.1 0.5 0.1 0.6-0.1 0.7-0.1 0.2-0.2 0.3 0 0.3-0.2-0.1-0.2 0.8 0.1 0.7-0.3 0.6-0.9 0.4-1.3 0.3 1 0.7 0.3 1.7-0.3 2.1 0 1.7-0.3 0.4-0.2 0.9-0.9 0.5-0.9 0.4-0.3 0.1-0.8-0.3-0.3-1.9-0.2-0.1-0.1 1.5-0.1 1.4-0.6-0.1 0 0.1-0.1 0.6-0.1 0.3 0.1-0.2 0.1 0.3 0.1-0.5 0.8 0.1 0.8 0.4 0.7-0.3 0.4 0.1 0.5 0.7 0.2 0.4 0.3 1.4 0.3 1.2-0.1 0.5-0.3 1.4-0.4 0.9 0.2 0.2 0.2 0.7 0.2 2 0.1 4.2-0.1 2.2-0.3 0.3 0.2 1.2-0.3 0.2 0.1 1-0.1 0.4-0.2 0.5 0.1 0.5-0.3 1.5-0.1 0.3-0.2 2.3-0.2 1.1-0.3 1.6-0.8 0.3-0.4 1.4-2.5 0.3-0.1-0.1 0.2 0.2-0.2 0.1-0.4 0.5 0 0.7 1.2 0.2 0 0.5-0.2 0.2-0.4-0.1-0.2 0.2-0.2-0.2-0.1 0.1-0.6 0.4-0.3-0.4-0.2-0.2-0.8-0.4-0.6-0.7-0.5-0.9-0.1-5.2 0.6-0.9 0-3.5 0.4-1 0.6-1.9 0.7-2.8 2.3 0.7-0.7-0.1-0.3-0.2-0.1-1.2 0 1.7-0.6 0.2-0.2 0.5-0.1 0-0.4-0.1-0.2 0.3-0.5 0.6-0.5 0.5-0.2 0.4 0 0.3-0.3-0.1-0.1-0.2 0.2-0.3-0.1-0.1-0.2 0-0.2-0.1-0.4 0.4-0.7 0-0.3-0.2-0.2-0.7-0.3-0.1-0.2-0.6-0.3-1-0.8-1.2-2 0.1-0.4-0.1-0.4 0.8-0.2 0.3-0.4 0.2 0 0.4-0.4 0-0.3-0.2-0.2 0.5-0.4-0.2-0.2 0.2-0.1 0-1 0.3-0.2 0.7 0.1 0.3 0.3 0.8 1.4 0.8 0.7 0.8 1.2 1.8 2.9 0.9 0.9 0.9 0.7 1 0.2 1.4-0.1 2.1-0.3 2.6-0.6 2.3-0.1 1.1-0.3 0.9-0.6 0.9-0.8 3.1-3 0.6-0.8 0.8-0.5 1.5-1.3 1.7-2.9 0.6-1.3 0.7-1.7-0.1-0.2-0.4-0.6 0-0.2-0.2-0.8-0.4-0.5-0.1-1.1-0.3-0.4-0.1-0.6-0.3-0.4 0-0.1-1.3-1.5-0.4-0.3-0.1-0.4-1.4-0.8-0.1-0.2 0.5 0.1 0.1-0.3-0.1-0.3-0.3 0 0-0.2 0.4 0.2 0.4-0.1 0 0.1 0.3 0.2 0.1 0.5 0.1 0.1 0.2-0.1 0.2 0.2 0.2 0 0.2 0.2 0.6 0.2 0.8 0.6 0.3 0 0.7 0.7 0.3 0.5 0.3 0.4 0.2 0 0.3-0.5 0.2-1.5-0.1-0.2-0.5-0.4-0.7-0.1-0.2-0.6-0.7-0.5-0.4-0.1-0.5-0.6 0.1-0.3 0.4 0 0.4-0.4 0.3-0.9-0.1-0.2-1-0.8-0.3-1.1-1.1-1.7-0.3-0.3-3.5-1.4-0.4-0.7-0.1-0.5 0.1 0-0.1-0.3-0.1 0-0.3-0.5-0.3-0.5-0.9-0.4-0.6-0.4-0.5-0.2 0.1-0.1-0.7-0.1-0.4-0.3 0-0.1-0.2-0.5-1.1-1 0-0.1-0.1-0.4-0.5-0.6-1.5-1.1 0 0.1-0.1-0.1-0.1-0.3-0.1 0.1-0.4-0.3 0-0.3 0.2-0.1 0.1-0.2 0-0.5-0.9-1.1-0.8-0.4-0.2-0.5-1.2-0.5-0.4-0.6-0.3-0.1-0.5-0.4-0.6-0.1 0-0.1-0.2 0-0.3-0.4-0.4-0.1-0.2-0.5-0.4-0.2-0.7-0.3-0.5 0 0-0.1-0.1 0-0.4-0.4-0.4 0-0.5-0.5-0.1 0.1 0-0.2-1.2-0.2-1.1-0.6-0.4 0-0.3 0.3 0-0.2-0.1 0.1-0.2-0.1-0.3 0.3-0.2-0.1-2.2-1.1-0.6-0.4-0.1-0.2-0.1 0.1 0.1-0.2-0.2 0 0-0.2-0.2 0.1 0-0.1-0.2 0 0-0.2-0.1 0-0.2-0.2-0.1 0.1 0-0.1-0.2 0 0.2-0.1-0.1-0.1-0.1 0.1-0.1-0.3-0.2 0 0-0.2-0.8-0.8-0.5-0.3-1.5-1.6-0.5-0.2-0.5-0.6-0.1 0-0.1-0.2-0.4-0.2-1.4-1.6-0.5-0.2-0.4-0.5-0.7-0.7 0.1-0.3-0.3 0-0.9-1.2 0.2 0.5-0.3-0.4-0.4-0.2-1 0-0.1-0.2-0.5-0.1 0-0.1-0.3 0.1 0.1-0.1-0.2-0.1 0 0.2-0.8 0.5-0.2 0 0.1-0.1-0.1 0.1-0.1-0.2-0.1-0.2 0.1-0.1-0.1 0 0.3-0.2 0.2 0.1 0.2-0.2 0-0.4-0.1-0.1 0.2 0.1 0.2 0.3 0.1-0.4-0.1-0.1 0.1-0.5-0.1-0.1 0.1 0-0.1-0.1-0.1-0.6-0.3 0 0.2-0.1-0.1-0.4-0.2 0-0.1-0.5-0.2 0-0.1-0.1-0.3-0.1 0.1-0.4-0.6-0.7-0.4-0.4-0.2-0.2 0.2 0.1-0.1-0.2-0.7-0.3-0.1-0.6-1-1.2 0.2 0-0.1-0.1-0.2-0.1-0.4-0.5-0.2 0.1 0.1-0.5-0.1-0.3 0.1-0.3-0.1-0.3-0.1 0 0-0.9-0.2-0.3-0.2-0.3-0.1-0.1 0.1-0.6-0.1-0.3-0.1 0.1 0.2-0.2 0-0.8-0.1-0.2-0.2-0.1 0.1-0.7 0.2-0.7 0-0.7 0.1-0.1 0.3-2-0.3-0.5 0-0.9-0.1-0.4 0.1-0.3-0.1-0.7 0-0.3-0.2-0.1 0.1-0.8-0.1-0.9 0.1-0.1-0.2-0.7 0.1-0.1-0.1-0.6 0.1-0.1-0.2-1-0.3-0.4 0.1-0.2-0.1-0.4 0-0.6-0.3-0.8 0.1-0.2-0.2-0.6-0.8-1.2-0.9-0.4 0-0.7-0.3-0.7-0.2-0.1 0.1 0-0.2-0.4-0.8-1-0.6-0.4 0.1-0.5-0.1-0.4-0.2-0.2 0-0.3-0.7-0.8-0.5-0.2-0.3-0.4-0.7-0.3-0.2 0 0 0.1-0.2-0.1-0.1-0.2 0.1-0.1-0.2-0.2-0.1-0.3 0.1-0.1-0.3-0.6 0.2-0.2-0.1-0.2 0.1-0.2 0-0.3 0.1-0.3 0-0.8 0.2-0.2 0-0.3 0.1-0.1 0.2-0.8 0.3-0.8 0-1.7 0.3-0.6 0-0.4 0.3-0.1 0.1-0.5 0-0.9 0.1-0.6-0.2-0.5 0.1-0.1 0-0.5-0.4-1.6-0.3-0.5 0-0.8-1-1.6-0.9-1.1-1.1-0.9-1.3-0.7-1.9-0.7-0.5-0.1-0.3 0.1-0.1-0.2-0.3-0.1-1.2 0-0.3-0.2-0.9 0-1.7 0-0.6-0.7-0.7-0.3-1-0.1-1 0.1-1.2 0.6-0.2-0.2-0.4 0.2-1-0.3-1.2 0.1 0-0.1-0.5 0-1.7 0.3-0.3 0-0.2-0.1-0.5 0.1-0.2-0.2-0.8 0.2-0.2-0.1-0.9 0.3-0.2 0.2-1 0.2-0.4 0-1.2 0.3-1-0.2-0.8 0.1-0.6 0-2.2 0.4-0.2 0.2-0.2-0.1 0-0.1-0.1 0-0.4-0.1-1.3 0.1-1.3 0.5-0.2 0.3-0.2 0-1.1 0.5-1.1 0.3-0.1 0.1 0.1 0 0 0.1-0.1-0.1 0 0.1-0.1 0-0.4 0-0.1 0.2-0.7 0.4-0.4-0.1-0.7 0.4-0.2 0.1-0.1-0.1-0.4-0.1-0.9 0.2-2-0.8-2.9-0.7-1.4 0.2-0.5 0.2-0.3 0.4-0.3-0.1-0.8 0.3-1 0.5-1.7 1.4-0.5 0.5-0.7 1.2-0.4 0-0.1 0.3-1.1 0.8-0.2 0.4-0.2 0-1 1-0.1-0.1-0.2 0.2-0.6 0.3-1 1-0.8 0.4 0 0.2-0.4 0.5-0.2 0-1.1 1.7-1 1.2-0.6 1.1-0.4 0.9-0.2 0.2-0.3 0.8-1.2 2-0.2 0.5-0.1 0-0.3 0.6-0.3 0.3 0 0.2-0.4 0.4-0.2 0.8-0.7 0.9-0.2 0.1-1.3 2.2-2.6 5.1-1.2 1-0.8 1-1.1 1.1-0.6 0.6-0.2 1 0.2 0.8 0 0.6 0.3 1.3 0.2 0.4 0.3 0.1 0.2 0.5 0.4 0.4 0.2 0.3-0.2 0.4 0.1 0.5-0.7 0.6-0.5 1.3-0.9 0.6-0.2 0 0.2 0.1-0.3 0.1-0.1 0.4 0.6 0.2-0.6-0.2-0.1 0.6 0.3 1 0.3-0.1 0.1 0.2 0.3-0.1-0.2 0.2 0.2 0.3-0.1 0-0.3-0.1 0.1 0.1 0.6 0.2 1.8-0.1 0.2 0.1 0.1 0.2 0.6 0 0.2-0.1-0.1-0.1 0.4-0.2 0-0.1 0.1-0.1 0 0.1 0.1 0 0.1-0.1-0.1 0-0.1 0 0.1 0 0.1-0.1 0.1 0.1 0.6-0.7 0.6-0.3 0-0.1 0.1 0 0.2-0.6-0.1-0.5-0.1 0 0.2 0 0-0.3 0.2-0.3-0.1 0 0-0.6 0.6-1.6 0.3-0.4 0.7-0.3 0.4-0.1 1.4 0.3 0.5 0.4 0 0.1-0.9 0.4-0.6 1.5-0.1 0.8 0.2 0.2-0.1 0.1 0.3 1 0.1 0.9-0.2 0.6 0.2 1.3-0.3 0.9-1.2 4.8-2 8.2-0.5 2.7 0 2 0.3 2 1 2 0.9 2.9 0.7 4.2 0.6 2.4 0.8 5.2 0.2 2.1 0.4 0.8 0.1-0.2 0.1 0.2 0.1-0.1 0 0.2 0.1 0.1 0.1-0.2 0.3 0.1 0.7 0.4 0.3 0.1 0 0.7-0.2 0.7 0.1 0.6-0.5 0.9-0.1 0.7 0.6 0.8 0.4 0.2 0 0.4-0.3 0.3-0.4 0-0.5-0.5-0.1-0.2-0.6-0.8-1.7-1.5-0.6-0.7-0.2-1.7 0.1-0.7 0-1.2 0.1-0.7 0.4-0.8 0-1.1-0.1-1.3-0.3-1.6-1.6-4.4-0.1-2.1-0.3-1.9-0.8-2.5-0.5-1.1-0.5-0.6-0.9-3.2-0.9-1.4-0.6-0.7-0.3-0.1-0.2 0.2-0.1 0-0.2-0.7-0.5 0.3-0.5-0.5 0.2-0.5 0-0.4-1.1-1.9-2.7-2-0.7-0.8-1.9-1.8-2.8-1.3-0.2-0.2 0-0.3-0.3-0.2-0.1-0.5-0.4-0.3-0.6-0.2-0.2 0-0.1-0.2 0.3-0.4 1.8-4.1 0.6-2.4 0.4-1.7-0.3-0.8-0.4-0.5 0-1.4-0.2-1.2-0.8-0.9-1-0.5-0.9-0.2-0.6-0.9-1.4-1.4-0.7-0.5-1.2-0.5-0.6 0.2-1.2-1-0.4-0.8 2.9-3.1 0.7-0.6 0.4-0.3 0.1-0.1 0.3-0.3 1-0.8 0.6-0.4 0.1-0.2 0.1 0 1.6-1.4 3.3-2.8 0.3-0.3 1.1-1.2 0.5-0.5 0.3-0.2 0.5-0.5 0.6-0.6 0.8-0.7 0.7-0.6 0.2-0.2 0.1-0.1 1.3-1 2.1-1.8 0.8-0.6 0.7-0.7 1.4-1.4 0.3-0.2 0.1-0.1 0-0.1 0.1 0 0.1-0.1 1.1-1.1 1.3-1.3 0.9-0.8 0.8-0.6 1.5-1.3 1-0.9 0.2-0.2 0.4-0.3 2.2-1.9 0.1-0.1 2.4-1.7 0.3-0.2 36.2-14 4.5-1 1.4-0.2 2.2-0.3 0.1 0 0.2 0 2-0.4 2.5-0.4 0.4-0.1 0.5 0 0.2 0 5.2-1 0.8 0 0.5 0 1.1-0.3 0.6-0.1 0.3-0.1 0.1 0 0.1 0 1-0.1 0.8-0.1 0.3 0 2.3-0.1 0.2 0 0.1 0 1.3-0.2 0.6-0.1 0.3 0 0.7 0 0.2 0 0.7 0 1-0.1 0.1 0 0.3 0 1.7 0.1 2.3-0.2 1.5 0 1.4 0.1 1.1 0.3 0 0.1 1.9 0.8 0.1 0 0 0.1 1.8 1 1.4 0.8 0.5 0.4 1.3 0.9 0.7 0.4 1.5 1.2 0.8 0.4 0.1 0.1 0.4 0.2 0.1 0 0.1 0.1 1.8 1.2 0.4 0.3 0.4 0.3 2.4 1.5 0.1 0.1 0.1 0 0.7 0.5 1.1 0.8 1.1 0.9 0.8 0.7 2.1 1.4 2.2 1.5 0.4 0.2 0.2 0.1 0.1 0 0.1 0 1.6 1.3 0.4 0.2 0.3 0.2 2 1.5 0.3 0.3 2.1 1.6 2.8 1.7 0.3 0.2 2.1 1.6 2.5 3 3.2 3.4 2.8 3.2 1.1 1.1 1.5 1.9-0.1 2.3-0.2 1.9 0.1 1.2-0.1 0.2 0 0.3 0.1 0.1 0 0.6 0 0.1 0.2 0.7 0.7 1 0.2 0.4 0.1 0.2 0.6 0.5 1.3 1.3 0.1 0 0 0.1 0.1 0 2 3.1 0.9 1.7 1.2 2 2.8 6 0.4 1.6 0.3 0.5 1.1 1.1 0.3 0.4 0.2 0.9 0.7 1.2 0.9 1.5 1.1 1.7 1.5 2.6 0.1 0.2 0.2 0.2 0.1 0.3 0.5 0.8 0.8 1.3 1.5 2.2 0.4 0.5 0.1 0.2 0.9 1 0.1 0.1 1.1 1 0.1 0.1 1.1 0.8 1.3 1 1 1.2 1.2 1.3 0.6 1 0.6 0.9 0.1 0.1 0 0.1 0.6 0.8 0.1 0.1 0.1 0 0.2 0.2 0.2 0.1 0 0.5-0.3 0.3 0 0.3 0.3 0.6 0.7-0.2 0.3 0.2 0 0.2-0.1 0.6 0.1 0.3 0.3-0.1 0.3-1.1 0.1 0 0.4 0.3 0.1 0.2 0.2 0.1-0.1 0.7-0.2 0.3 0.2 0.5 0.3 0.2 0.6-0.4 0.5 0 0.3 0.2 0.3 0.7 0.6 0.1 0.5 0.7 0.6-0.4 0.1 0 0.4 0.3 0.6 0.2 0.7 0.1 0.1 0 0-0.1 0.7-0.2 0.5-0.6 0-1.7 0.1-0.2 0.1-0.1 0.3 0 0.2 0 0.1 0.1 0.3 0.1 0.1 0.1 0.1 0.1 0.2 0.3 0.2 0.5 0.1 0.1 0 0.1 0.5 1.4 0.1 0.1 0.1 0.2 0.4 0.4 0.1 0.1 0.3 0.1 0.2-0.1 0.2-0.1 0.1-0.2 0.2-0.3 0.2-0.5 0.1-0.5 0.4-0.8 0.7-0.5 0.4-0.3 0.1-0.1 0.3 0 0-0.1 0.9-0.2 0.9-0.1 0.4-0.1 0.3-0.1 0.8 0.2 0.1 0.3 0.4 0.2 0.3-0.3 0.6 0.2 0.1 0-0.1-0.4-0.4-0.2 0-0.2 0.6-0.1 0.5-0.4 0.1-0.1 0.1 0 0.6 0 0.7 0.1 0.3 0.6 0.4 0.3 1.4 0.2 0.2 0.2 0.2 0 0.5 0.2 0.1-0.1 0.1-0.1 0.1 0 0.1-0.1 0.2-0.2 0.6-0.9 0.6-0.7 0.5-0.7 0.7-0.6 0.3-0.2 0.4-0.2 0.2 0 1.4 0 1 0 1.4 0.1 3.8 0.3 0.4 0 0.3 0 0-0.3 2 0.1 1 0.2 5.6 0.4 4.4 0.1 7.2 0.6 2.6 0 4.6 0.4z m-190.4 110.8l0.6 0.1 0.4-0.1 0.5 0 0.7 0.6 0.1-0.1-0.1-0.2 0.5 0 0.1 0.1-0.3 0.1 0.4 0.4-0.6 0.3-0.4 0-1.1-0.7-0.7-0.2-0.2-0.2 0.1-0.1z m43.8-61.9l1.8 0 1.1-0.5 1.7-0.3 1 0.1 0.9 0.3-0.5 0.1-0.5 0.2 0-0.3 0.3 0.1-0.1-0.2-0.6-0.2-0.3 0.1-1 0.8-0.1 0.3 0 1.2-0.8 0.2-0.3 0.5-0.4 0.3-0.1-0.2 0.4-0.6 0-0.6 0.1-0.1 0-0.3-0.1-0.1-0.9-0.2-1.6-0.6z" id="TMB" name="Balkan Region">
  </path>
  <path d="M416.4 440.7l0.9-3.6 0.2-5.9 2.1-2.1 1 1.1 1 0.8 2 1.3 1.2-1.6 0.4-1 1.6 0.6 2.2 2.9 1 2 0 0.6-1.6 1.8 0 1.3-1.5 2.9-2.1 0.8-2.2 0.1-6.2-2z" id="TMS" name="Ashgabat">
  </path>
 </g>
 <g id="points">
  <circle class="35.511273111189034|53.161699565300474" cx="90.9" cy="630.3" id="0">
  </circle>
  <circle class="38.56871400622446|60.27885926021768" cx="545.5" cy="385.6" id="1">
  </circle>
  <circle class="42.390515125018744|65.97258701615144" cx="909.1" cy="64.6" id="2">
  </circle>
 </g>
 <g id="label_points">
  <circle class="Daşoguz Region" cx="448.3" cy="167.5" id="TMD">
  </circle>
  <circle class="Lebap Region" cx="726" cy="363" id="TML">
  </circle>
  <circle class="Mary Region" cx="682.5" cy="500.7" id="TMM">
  </circle>
  <circle class="Ahal Region" cx="479.3" cy="369.8" id="TMA">
  </circle>
  <circle class="Balkan Region" cx="236.1" cy="311.4" id="TMB">
  </circle>
  <circle class="Ashgabat" cx="422.8" cy="437.2" id="TMS">
  </circle>
 </g>
</svg>