<?xml version="1.0"?>
    
<!--********* Copyright (c) 2024 Pareto Softare, LLC DBA Simplemaps.com ***************************************
************* Free for Commercial Use, full terms at  https://simplemaps.com/resources/svg-license ************
************* Attribution is appreciated! https://simplemaps.com *******************************************-->

<svg baseprofile="tiny" fill="#6f9c76" height="1000" stroke="#ffffff" stroke-linecap="round" stroke-linejoin="round" stroke-width=".5" version="1.2" viewbox="0 0 1000 1000" width="1000" xmlns="http://www.w3.org/2000/svg">
 <g id="features">
  <path d="M628.1 444.3l1.9 0.7 0.9 0.9 0.8 1 1.6 1.1 0.2 1.5-0.2 2.7-0.9 1.4-2.5-2.8-1.3 0.6-0.8 0.8 0.2 1 1.1 1.2-1.1 1.3-0.7 1.4-1.7-0.4-1.2 1.4-0.6 2.3 0 2.3-1.6-0.9-0.9-1.5-0.9-3.2 2-0.8 0.1-1.5-0.7-1.6-0.6-0.6-1.4 1.2-0.5 2-0.5 1.3-1.9-0.9-0.2 0.8-0.3 0.1-0.6 0-0.7 0-1.7-3.9 2.4-2 3.6-1.9 1.8-3.6 0.9-0.9 2-0.5 2.3-0.2 1.7 0.2z m-88.4 33.4l-1.3-2.1 0.4-2 1.5-0.9 2 0.7 0.8 1.7-0.4 1.5-1.3 1-1.7 0.1z" id="TO05" name="Vava'u">
  </path>
  <path d="M506.7 811.7l0.7 5 0 2.1-0.7 5 0.1 8.5-0.8 1.4-2-1.2-0.8-2-1.6-1.7-3.7-2.8 0-0.9 0.5-0.2 1.3-0.7-0.8-1.5-0.1-1.9 0.6-1.6 2.6-1.1 0.8-1 1.2-2.2 0.3-0.9 0.9-2 1-1.4 0.5 1.1z" id="TO01" name="Eua">
  </path>
  <path d="M487.5 788.8l1.4 1 0.5 1.1-0.1 2.1-1.1 1.2-7.2 5.3-0.5 1.2 0.2 1.5 0.5 1.5 0.2 1.4-0.5 1.6-1.1 1-1.4 0.4-1.4 0.3-2.7-0.7-1.3-1.1-2.1-3.9-1.6-1.6-6.1-3-0.9 1-3.2-1.9-1.7-0.7-1.6-0.3-1.2-0.7-3.2-4.4-1.8-3.7 1.2-3.3 3-2.5 3.3-1.1-1.6 1.9-2 1.7-0.8 1.8 1.8 2 1.4 0.5 1.1 0.1 7.2-1.4 1.2 0.3 0.9 0.8 1 0.6 0.8 0.8 0.3 1.5-1.9 1.2-0.8 1.2 0.5 1.4 1.3 0.5 1.3-0.6 1.3-0.9 1.3-0.5 1.5 0.3 2.3 1.3 1 0.3 1.9-0.5 0.7-1.4 0.8-1.9 1.8-1.8 1.3-0.6 1.6-0.5 1.7-0.1 1.5 0.3z m-145.4 163.7l1.1 0.4 0.8 0.7-0.5 0.6-0.6 0.3-0.4 0-0.7-0.5-0.5-0.7 0.2-0.7 0.6-0.1z" id="TO04" name="Tongatapu">
  </path>
  <path d="M576.8 609.9l1.7-0.6 1.4-1.3 0.9-1.7 0.5-2 0.6 0.1 1.4 0.5 0.5 0.4-1 2.3-0.1 2.7-0.7 2-2.4 0.3-1-0.5-0.8-0.6-0.6-0.7-0.4-0.9z m-89.7-12.1l2 1.6 0.9 3.7-0.2 4.1-1.5 2.7 0-1-0.8 1-0.6-0.8-0.6-0.5-1.5-0.6 0.1 0-0.2-0.4 0.1-0.5-1.6-4.2-0.1-1.3 0.5-2.6 0.8-1.1 1.1-0.1 1.6 0z m96.7 2.9l2.3-1.3 1.2-1.7 1.1-1.9 1.6-1.6 0.6 1.9-0.4 1.8-0.7 1.6-0.4 1.6-0.9 1.7-2.1 0.2-1.8-0.8-0.5-1.5z m5.7-13.8l1.7 0.7 0.5 1.4-0.7 1-1.9-0.4-1.4-2-1.7-3.3-0.5-2.5 1.9 0.4 0.6 1.1 0.7 3 0.8 0.6z" id="TO02" name="Ha'apai">
  </path>
  <path d="M415.8 45.5l2.4 1.8-0.6 3.7-2.8 3-3.7-0.4-2.2-2.5 0.3-2.7 2.5-2.1 4.1-0.8z m240.6 50l1.6-1 0.7 0-0.1 1.8-1.4 2.3-1.8 1.8-2 0-1.1-1.4 0.1-1 1.3-1.2 2.7-1.3z" id="TO03" name="Niuas">
  </path>
 </g>
 <g id="points">
  <circle class="-21.99983484173163|-176.09410562146635" cx="357.2" cy="908.2" id="0">
  </circle>
  <circle class="-19.28811610849363|-174.84207110453866" cx="515.9" cy="540.8" id="1">
  </circle>
  <circle class="-15.898467691946129|-173.8404434909965" cx="642.8" cy="90.1" id="2">
  </circle>
 </g>
 <g id="label_points">
  <circle class="Vava'u" cx="624.7" cy="449.1" id="TO05">
  </circle>
  <circle class="Eua" cx="503" cy="822.1" id="TO01">
  </circle>
  <circle class="Tongatapu" cx="475.2" cy="800.5" id="TO04">
  </circle>
  <circle class="Ha'apai" cx="486.8" cy="603.2" id="TO02">
  </circle>
  <circle class="Niuas" cx="413.5" cy="49.9" id="TO03">
  </circle>
 </g>
</svg>