<?xml version="1.0"?>
    
<!--********* Copyright (c) 2024 Pareto Softare, LLC DBA Simplemaps.com ***************************************
************* Free for Commercial Use, full terms at  https://simplemaps.com/resources/svg-license ************
************* Attribution is appreciated! https://simplemaps.com *******************************************-->

<svg baseprofile="tiny" fill="#6f9c76" height="1000" stroke="#ffffff" stroke-linecap="round" stroke-linejoin="round" stroke-width=".5" version="1.2" viewbox="0 0 1000 1000" width="1000" xmlns="http://www.w3.org/2000/svg">
 <g id="features">
  <path d="M609 438.8l-16 15.5-20.1 34.4-17.8 12.5 8.3 0-8.3 8.5-5.7-8.4-8.9-5.2-11.3-2.3-12.9 0.3 0-8.5 16.6 5.2 25.3-5.1 0-9.2-7.3-8.4-3.4-5.9 9.2-9 31-20.1 12.9-10.7 1.6 4.4 0.5 4.2 1.6 3.9 4.7 3.9z m-275.5 489.8l13.4 8.4 3.1 9.9-6.8 4.6-11.7 3-14.1-1-4.4-6.1 4.6-5.9 1.2-4.8-2.4-4.2 1.4-3 8-3.2 7.7 2.3z m135.9-143.7l3.4 4.3 2.2 10.4-6 8-6.4 6.5-3.2 10-6.2 6.7-11.3 0.6-10.1-3.9 2.8-3.5 12.6-2.8 5.9-7.5-2.1-10.1 0.6-11.2 10-6.7 7.8-0.8z m142.1-153.5l9.5-17.4 9.2 1.9-9.6 22.6-4.5 6.4-3.6 0.6-1-14.1z" id="VC06" name="Grenadines">
  </path>
  <path d="M560.1 294.2l-37.2-26.5 14.3-15.4 22.6-16.5 20.4-22.5 8.8-3.7 14.6-2.3-1.5 18.8 8.2 7.1-6.7 13.9-24.8 27.7-18.7 19.4z" id="VC02" name="Saint Andrew">
  </path>
  <path d="M560.1 294.2l18.7-19.4 24.8-27.7 6.7-13.9 5.7 4.9 14.6 10.4 13.1-2.2 16.8 3 13.6 5.4-2.8 12.5-32.6 46.7-19.9 15.5-27.9-13.3-30.8-21.9z" id="VC04" name="Saint George">
  </path>
  <path d="M610.3 233.2l-8.2-7.1 1.5-18.8 4.4-11.2 8-15.8 14.6 3 2.9-15 1.5-21.7-1.5-18.8-0.7-15.7 3.6-21 9.5-1.5-0.7-15-11-4.5 0.1-23.7 22.3 3.6 8 3.1 4.5 7.7 6.9 16.7 11 50.9-0.5 70.1-12.4 56.2-13.6-5.4-16.8-3-13.1 2.2-14.6-10.4-5.7-4.9z" id="VC01" name="Charlotte">
  </path>
  <path d="M634.3 46.4l-0.1 23.7 11 4.5 0.7 15-9.5 1.5-3.6 21 0.7 15.7 1.5 18.8-1.5 21.7-2.9 15-14.6-3-14.6-15-15.3 13.5-14.9 10.2-24.6-5.7-20.4-6.4 6-12.1-2.9-4.3-5.4-11.3 30.1-4.9 12.8-25.8 7.7-33 14.4-26.4 14.4-9.4 13.3-3.9 12-0.3 5.7 0.9z" id="VC03" name="Saint David">
  </path>
  <path d="M603.6 207.3l-14.6 2.3-8.8 3.7-20.4 22.5-22.6 16.5-14.3 15.4-9-33.6 3-38.9 9.3-18.3 20.4 6.4 24.6 5.7 14.9-10.2 15.3-13.5 14.6 15-8 15.8-4.4 11.2z" id="VC05" name="Saint Patrick">
  </path>
 </g>
 <g id="points">
  <circle class="12.624931185324638|-61.44303341047378" cx="331.7" cy="909.2" id="0">
  </circle>
  <circle class="12.943176567437607|-61.27508501019568" cx="518.7" cy="545.8" id="1">
  </circle>
  <circle class="13.34098329507882|-61.1407262899732" cx="668.3" cy="91" id="2">
  </circle>
 </g>
 <g id="label_points">
  <circle class="Grenadines" cx="569.4" cy="463.8" id="VC06">
  </circle>
  <circle class="Saint Andrew" cx="570.9" cy="253.2" id="VC02">
  </circle>
  <circle class="Saint George" cx="619.8" cy="282.1" id="VC04">
  </circle>
  <circle class="Charlotte" cx="647.9" cy="212.6" id="VC01">
  </circle>
  <circle class="Saint David" cx="599.1" cy="129.8" id="VC03">
  </circle>
  <circle class="Saint Patrick" cx="545.5" cy="212.2" id="VC05">
  </circle>
 </g>
</svg>