<?xml version="1.0"?>
    
<!--********* Copyright (c) 2024 Pareto Softare, LLC DBA Simplemaps.com ***************************************
************* Free for Commercial Use, full terms at  https://simplemaps.com/resources/svg-license ************
************* Attribution is appreciated! https://simplemaps.com *******************************************-->

<svg baseprofile="tiny" fill="#6f9c76" height="1000" stroke="#ffffff" stroke-linecap="round" stroke-linejoin="round" stroke-width=".5" version="1.2" viewbox="0 0 1000 1000" width="1000" xmlns="http://www.w3.org/2000/svg">
 <g id="features">
  <path d="M796 865.8l-31.6 3.4-26.4 8.6-51.7 24-26.7 8.3-252.9 36.3-23 8.1 9-22 1.5-18.8-1.3-52.6 3.7-16.3 10-10.3 46.4 14.2 26.1-11.9 27-17.4 29.3-6.5 3 3.3 47.2 31.9 25.8 9.2 13.1 6.9 11.4 10.4 28.1-23.4 44.1-9.6 48.2 2.7 39.7 12.7 0 8.8z" id="VIX01" name="Saint Croix">
  </path>
  <path d="M622.1 101.9l-8.8 3.7 13.2 17.6-8.1 30-39.5-21.2-61.6 5.8-18.3-16.8 18.3-27.9 20.5-8.8 22-6.6-5.1-9.5 11-5.9 41.1 11 19.8 3.7 18.3 8 22 11.8 5.1 13.2-16.9 2.9-33-11z" id="VIX03" name="Saint John">
  </path>
  <path d="M412.6 138.6l-8.9 13.2-38.9-14.7-13.9-8.8-11-22-5.2 11.8-11.7-8.1-26.4 5.2-19.1-3.7-14.8-16.1-38.9 11.7-19.8-19 36.3-19.3 31-8.1 45 1.6 18.5 13.3 11-3.7-20-15.4-9.5-11 26.4 8 45.5 26.4 44.8 25.7 18.3 29.3-13.9 2.2-10.9-3.6-13.9 5.1z" id="VIX02" name="Saint Thomas">
  </path>
 </g>
 <g id="points">
  <circle class="17.71795758559804|-65.01738861150571" cx="233.6" cy="909.2" id="0">
  </circle>
  <circle class="17.999490665110226|-64.77634035946693" cx="529.6" cy="545.9" id="1">
  </circle>
  <circle class="18.35140701450046|-64.5835017578359" cx="766.4" cy="91" id="2">
  </circle>
 </g>
 <g id="label_points">
  <circle class="Saint Croix" cx="526.1" cy="872.1" id="VIX01">
  </circle>
  <circle class="Saint John" cx="581.5" cy="99.9" id="VIX03">
  </circle>
  <circle class="Saint Thomas" cx="375.3" cy="106.8" id="VIX02">
  </circle>
 </g>
</svg>