<?xml version="1.0"?>
    
<!--********* Copyright (c) 2024 Pareto Softare, LLC DBA Simplemaps.com ***************************************
************* Free for Commercial Use, full terms at  https://simplemaps.com/resources/svg-license ************
************* Attribution is appreciated! https://simplemaps.com *******************************************-->

<svg baseprofile="tiny" fill="#6f9c76" height="860" stroke="#ffffff" stroke-linecap="round" stroke-linejoin="round" stroke-width=".5" version="1.2" viewbox="0 0 1000 860" width="1000" xmlns="http://www.w3.org/2000/svg">
 <g id="features">
  <path d="M925.8 303.4l-3.7 0.9-3.1 1.4-1.5 2.2 0 3.8-5.2 8.7-3.3 7.3-10.5 3.3-17.6 5.4-9.8 0.6-4.6 0-3.2 3.4-1.3 4.7-3.9 4-4.6 0-6.5-1.5-0.1 1.7-0.4 1.7-0.6 1.6-1.4 1.7-0.2 0.8-3.9 3.1-0.9 1-1.1 2.4-0.5 0.8-0.7 0.9-0.5 0.4-0.3 0.5-0.1 1.2-0.2 0.5-0.8 1-0.1 0.6 0 3.5-1.7 7.8-0.8 1-0.3 1.9-0.3 0.7-0.4 0.5-0.2 0.8 0 2.7-0.5 2.6-0.1 1-0.1 0.8-0.8 1.7-0.3 1.6-0.5 0.3-0.7 0.2-0.7 0.5-0.7 1.3-1.2 3.6-0.2 1.5-0.7 0.7-1.6 0.7-1.7 0.4-0.8 0.1-0.3 0.7-0.3 0.5-1 1-0.3 0.1-0.5 0-0.4 0-0.4 0.4-0.1 0.4 0.1 0.8 0 0.4-0.4 1.3-0.2 1.5 0.1 1.7 0.5 1.5-1 0.4-0.6 0.4-0.7 0.1-0.9-0.4-0.2 0.7-0.4 0.6-0.6 0.3-1.6 0.2-0.4 0.3-0.8 1-1 0.8-1.8 0.9-1.2 0.8-0.2-0.4-0.3-0.4-0.1-0.4-0.5 0-0.2 1.9-1.1 1.2-1.2 1.1-0.5 1.6-0.2 0.8-0.4 0.6-0.6 0.4-1.6 0.4-0.5 0.7-1.3 4.6-0.6 3.1-0.9 3.1-1.9 2.4-6.2 4.7-1.3 0.6-1.5-0.2-1.6-0.5-1.3-0.1-1.7 0.5-0.8 0.6 0-4 0-2.7-0.1-1.4-0.1-0.8-1-1.3-1.8-2-1.5-2.9-0.5-1.5-1.2-17.4-0.2-1.3-0.5-1-0.3-0.4-0.4-0.3-0.6-0.4-2.7-1.3-0.5-0.2-1-0.1-3.4 0-0.5 0-1.5 0.6-0.7 0.3-0.3 0.3-0.3 0.3-0.1 0.4-0.1 1.5-0.1 0.7-0.1 0.1-0.7 1.7-0.2 0.4-0.2 0.3-0.3 0.3-0.3 0.2-0.4 0.2-0.4 0.1-0.4 0.1-1 0-0.6-0.1-1-0.7-5.8-5.7-0.9-0.7-1-0.1-0.4 0.1-0.7-0.1-2.1-0.7-0.5-0.1-1-0.1-2.7-0.8-0.5-0.1-0.5 0-2.5 0.6-1 0-0.4-0.1-0.8-0.4-0.6-0.5-1.6-0.7-4.8-3.4-0.5-0.5-0.2-0.6 0.3-1.9 0-0.5-0.1-0.9-1.2-4 0-0.4 0-0.5 0.9-2 0.2-0.3 1-1.3 0.5-0.6 0.1-0.4 0.2-0.4 0.1-0.6 0-0.5-0.3-0.8-0.3-0.4-0.3-0.3-1.6-0.7-0.8-0.6-0.6-0.5-0.5-0.8-1.1-2.4-0.3-0.4-0.4-0.2-0.4 0-0.3 0.2-1 1.2-0.6 0.5-0.7 0.5-1 0.5-0.8-0.2-1.1-0.6-2.2-1.7-0.8-0.9-0.6-0.7-0.1-0.4 0-0.5 0.1-0.4 0.6-1.7 0.1-0.5 0-0.7-0.3-1-0.4-0.6-0.4-0.4-0.7-0.4-2-0.9-1-0.7-0.5-0.4-0.4-0.4-0.1-0.4-0.1-0.4-0.1-0.9 0-0.9 0.1-0.5 0.1-0.4 0.8-1.6 0.2-0.9 0.1-3.5 0-0.6-0.2-0.7-0.4-0.8-0.4-0.4-0.5-0.3-0.8-0.2-0.9 0.1-0.8 0.3-0.5 0.1-0.5-0.1-0.7-0.3-0.5-0.5-0.3-0.5-0.5-0.8-0.4-0.4-0.4-0.3-0.5-0.1-0.9 0-1.3 0.2-0.6 0-0.7-0.2-1.2-0.7-0.7-0.3-0.6-0.2-1.4 0-0.4-0.1-0.4-0.1-1.1-0.7-0.4-0.1-1.9-0.4-0.8-0.3-1.1-0.6-1.3-0.5-0.4-0.2-0.3-0.2-0.4-0.2-0.4-0.1-1-0.2-1.7-0.7-0.4-0.4-0.7-1.4-0.4-0.4-0.5-0.2-1-0.2-0.6-0.2-0.7-0.3-1.2-0.8-0.5-0.5-0.5-0.5-0.3-0.7-1.2-1.6-0.3-0.5-0.1-0.4-0.1-0.4-0.1-1.4-0.1-0.4-0.1-0.4-1.5-2.6-1.3-1.7-0.7-0.7-0.5-0.3-0.4 0-1.8 0.2-1.7 0.4-6.2 2.7-0.4 0.2-0.2 0.3-0.3 0.3-0.1 0.4-0.2 0.4-0.4 4.1-0.1 0.4-0.1 0.4-0.4 0.8-0.7 1-0.2 0.3-0.4 0.2-0.3 0.2-0.8 0.2-0.1-0.1-0.4 0-0.2 0.1 0-0.2 0.3-0.1 0.3-0.3 0.3-0.4 0.2-0.4 0.3-0.6-0.4-0.7 0.1-1.1 0.2-1 0.1-1-0.6-1-1.5-1.6-0.6-1.2-0.3-1.3 0.3-3.6-0.6-2.6-0.1-1.4 0.4-1.2 0.9-0.9 2-0.2 0.4-0.2 33-5.4 1.2-0.5 1.1-1 13.4-17.2 0-0.5-0.1-0.4-0.3-0.3-0.1-0.3-0.1-0.5 0.1-1 0.7-1.7 0-0.4 0-0.9 0.1-0.3 0.1-0.3 0.3-0.4 2.2-0.9 1.1-0.9 1.8-1.4 0.9-1.6 0.5-1.8 0.7-1.5 1.3-0.6 1.1-0.1 0.6-0.4 0.5-0.6 0.3-0.7 0.5-1.6 0.4-0.8 0.6-0.7 0.8-0.3 0.9 0 1.8 0.3 0.4-0.2 0.8-1.1 0.4-0.2 1.8-1.7 0.5-0.7 0.6-2 1.7-3.4 6.4-8 1.4-2.7 0.2-0.8 0.3-0.9 0.7-0.7 0.7-0.4 1 1.1 1.1 0.2 0.4-0.7-1.6-1.6 1.2-0.1 0.9-0.4 0.8-0.4 0.6-0.2 0.8-0.1 2.2-0.8 0.7-0.4 0.7-1.8 0.6-2.5 1-2 1.6 0-0.8 1 0.7 0.8 1.4 0.5 1.2-0.4 0.1-1.9 0.3-0.7 0.9 0.7 0.4 0.9 0.1 0.8-0.3 0.8-0.7 0.8 1.7 0 1.2-0.5 3.5-3.1 0-0.4 0.2-0.6 0.4-0.5 0.6-0.4 0.3-0.5 0.3-0.7 0.1-0.3-0.2-0.5-1.6-1.7-0.4-0.8 0.1-0.7 0.7-0.7 2.8 0 1.2-0.6-0.3-1.6-0.6-0.6-0.6 0.1-0.6 0.3-0.6 0.2-0.9-0.2-0.3-0.3-0.2-0.5-0.4-0.6-1-1-0.2-0.6 3.4-2.5 1.1-0.5 1.5-0.3 1.2 0.1 1.7 0.3 1.5 0.5 0.9 0.7 0.5-0.6 1.6-0.9 0.5-0.6 0.3-0.9-0.3-3.2 0.2-0.5 0.5-0.3 1.2 0 0.4-0.2-0.1-0.5-0.5-0.7 0.3-0.8 0.8-0.3 2.1-0.2 1.4-0.5 2.6-1.4 1-0.3 0.5-0.3 0.7-1.4 0.7-0.5 0.9 0.2 0.5 0.5 0.4 0.6 0.3 0.4 5-1.1-0.2-19.7-2.6-2.6-7.8-3.3-5.9-4-2.6-9.3-3.3-8.6-5.8-9.9-5.9-5.9 5.2-6.6 2-4.7 3.9-2 4.6-3.9 3.9-2.7 5.2 3.3 5.9-0.4 5.2 2.4 1.9-5.3 5.9 2 5.8-0.6 5.2-3.3 6.6-3.3 9.1-1.4 7.8 0.7 7.8 2 8.5 0.6-0.7-7.9-3.9-8.6-3-9.3 1.6 0.2 10.2-0.2 3.1 0.8 2.8 1.9 0.9 1.1 1.5 3.5 1.1 1.8 1.1 0.7 2.9 0.2 6.7 1.5 5.5 0.4 1 0.6 1.1 1.1 0.3 0.6 0.2 1.2 0.5 0.6 0.5 0.2 1.4-0.1 0.6 0.1 3.6 2.4 5.8 2.2 1.2 0.8 0.2 4.6 0.3 1 0.8 0.7 0.5-0.2 0.5-0.4 0.9 0 0.5 0.3 1.1 1 0.7 0.4 0 2.1-1.3 5.7 0.9 2.1 1 0.4 0.9-0.4 0.9-0.6 1-0.3 0.9 0.4 0.3 0.9 0.2 0.9 0.4 0.8 1.7 0.6 0.7-1.4 0.2-2.4 0.5-2 1.8 0.9 4.2 0.2 1.5 1.1 1.1 2 0.4 1 0.1 1.2-0.2 0.9-0.4 0.6-0.3 0.7 0.2 1.2 0.8 1.1 1.9 1.2 0.9 0.9 1.1 2.2 0.7 0.9 0.9 0.9 1 0.5 2.8 1 0.5 0.7 1.3 3.1 0.5 2.2-0.6 1.6-2.3 3.6-1.5 3.8-0.4 2 0 2 1 1.4 6.4 2.9 1.6 1.4 1.3 1.4 1.4 1.1 2 0.7 1.4 1.9 1.6 1.1 1.1 1.3 0.2 2.5-0.5 4.4 0.3 1.9 2 4.9 0.7 0.9 2.1 2 0.6 0.6 1.5 3.6 1.2 1.4 2.2 0.3 0 2 0.5 1.5 0.1 0.7 0 0.3 0 0.3-1.2 2-1.2 1.1-3.1 2.2-1 0.4-1 0.7-3.8 4.3-1.3 3.2-0.8 1.3-1.6 1-1.2 0.2-1.4 1.5-1 0.4-1.2 0-2.6-0.5-1.1 0.1-1 0.5-2 0.4-1.1 0.3-0.9 0.8-1.5 2.3-1.1 0.7-1 0-0.8-0.3-0.7 0.3-0.7 1.4-0.1 1.1 0.7 0.4 0.9 0 1.1-0.1 1.1 1 0.6 2.5 0.3 2.3 0.2 2.4 0.7 2.4 1.2 2.2 1.4 1.9 1.7 1.8 2.5 4.4-0.7 2.3-1 2.3-5.5 8.4-0.1 0.5 0.3 0.9-0.1 0.5-0.5 0.4-1.2 0.5-0.3 0.4-0.1 1.1 0.1 1 0 1.1-0.7 1-1.9-1.6-0.8 1.1 0.4 6.8-0.1 1-0.5 1.4-1.1 2.5 0.2 0.6 1.3 0.5 1.3 0 1.4-0.2 1.3 0.3 1 1.2 0.5 1.3 0.1 2.7z" id="ZM10" name="Muchinga">
  </path>
  <path d="M780 446.1l0.8-0.6 1.7-0.5 1.3 0.1 1.6 0.5 1.5 0.2 1.3-0.6 6.2-4.7 1.9-2.4 0.9-3.1 0.6-3.1 1.3-4.6 0.5-0.7 1.6-0.4 0.6-0.4 0.4-0.6 0.2-0.8 0.5-1.6 1.2-1.1 1.1-1.2 0.2-1.9 0.5 0 0.1 0.4 0.3 0.4 0.2 0.4 1.2-0.8 1.8-0.9 1-0.8 0.8-1 0.4-0.3 1.6-0.2 0.6-0.3 0.4-0.6 0.2-0.7 0.9 0.4 0.7-0.1 0.6-0.4 1-0.4-0.5-1.5-0.1-1.7 0.2-1.5 0.4-1.3 0-0.4-0.1-0.8 0.1-0.4 0.4-0.4 0.4 0 0.5 0 0.3-0.1 1-1 0.3-0.5 0.3-0.7 0.8-0.1 1.7-0.4 1.6-0.7 0.7-0.7 0.2-1.5 1.2-3.6 0.7-1.3 0.7-0.5 0.7-0.2 0.5-0.3 0.3-1.6 0.8-1.7 0.1-0.8 0.1-1 0.5-2.6 0-2.7 0.2-0.8 0.4-0.5 0.3-0.7 0.3-1.9 0.8-1 1.7-7.8 0-3.5 0.1-0.6 0.8-1 0.2-0.5 0.1-1.2 0.3-0.5 0.5-0.4 0.7-0.9 0.5-0.8 1.1-2.4 0.9-1 3.9-3.1 0.2-0.8 1.4-1.7 0.6-1.6 0.4-1.7 0.1-1.7 6.5 1.5 4.6 0 3.9-4 1.3-4.7 3.2-3.4 4.6 0 9.8-0.6 17.6-5.4 10.5-3.3 3.3-7.3 5.2-8.7 0-3.8 1.5-2.2 3.1-1.4 3.7-0.9 0.7 10.2-0.2 2.9-1 3 0 1.2 0.8 1.8 0.3 1.1-0.2 1.2-0.5 1.3-0.7 4.1-3.1 7.2-0.2 2.7 0.1 2.6 0.6 1.3 2.2 2.1 0.9 1.1 0.9 2.6 1.4 5.6 1.5 2.3 2.7 1 5.8-1.8 3 1.1 1.3 0 0.9 0.3 0.1 1.6-0.7 1.3-0.3 0.2-2 1.3-0.6 1.3-1.2 0.2-0.3 0.6-0.1 1.9-0.7 1-2.4 0.9-0.8 0.9-1.3 1.8-1.6 1.6-1.7 1.1-1.7 0.4-0.7-0.2-0.6-0.4-0.8-0.4-0.9 0-2.1 0.3-0.6 0.3-0.9 1-1.3 2.7-1.1 0.8-0.8 0.2-0.5 0.3-0.3 0.3-0.4 0.3-0.5 0.4-0.2 0.6-0.4 0.4-0.8 0-0.3-0.4-0.9-1.8-0.6-0.5-0.7-0.2-0.6 0.1-1.2 0.3-0.7 0.3-0.7 0.7-0.6 0.3-0.6-0.5-0.3-0.7-0.4-0.4-0.6-0.1-0.6 0.2-1.1 1-0.8 1.1-2.4 4.8-2.8 4.2-1.1 2.1-0.2 1.4 0.4 5.9 0.5 0.8 2.1 1.4 1.9 1.7 0.7 2-0.4 2.2-2.1 4.9-1.2 8.8 0.1 1.4 0.3 1.3 0.6 1.4 1.3 1.8 0.2 0.9-0.4 1.1-2.4 0.7-1.9 2.5-1.4 3.1-1.1 4.5-1.1 4.3-1.3 3.1-2.3 1.2-1.4 0.2-0.6 0.8-0.2 1.3 0 1.5-0.3 1.8-1 0.7-2.9 0.4-1 0.7-2.1 1.8-1 0.1-1.4-0.5-1.2-0.1-0.7 0.6-0.3 1.7 0.9 2.5 2.4 0.6 2.9 0 2 1 3 4.1 0.4 1-0.6 0.9-2.9 1.3-0.8 0.9 0.4 2.2 2.3 1 2.8 0.6 2.4 0.9 1.2 1 3.8 4.7 0.3 1.3 0.2 1.2 0.5 1.2 0.6 0.6 1.4-0.1 0.6 0.3 0.5 0.7 0 0.4-0.1 0.5-0.3 4 0.4 1.2 1.8 2.4 1.4-0.4 2.5-3.9 1-1.2 1.1-0.6 2.7-0.8 0.7-0.7 0.8-2 0.7-0.5 1.1 0.9 2.5 4.6 1.3 1.6-5.7 2-6.7 2.3-9.8 3.4-13.4 4.6-13.1 4.5-11.7 4-8.2 2.8-7.2 2.5-6.3 1.2-2.9 0.9-5.9 2.7-7.8 2.6-10.2 3.4-11.2 3.7-5.3 2.8-7.2 3.9-6.7 2.5-8.1 1.9-10 2.5-8.1 1.9-1.3 0.2-11 2.5-7.8 1.8-10.8 4-6.6 2.4-8.2 3-7.3 3.7-5.7 2.9-6.8 0.8-1.3 0.3 0 0.1 0-0.1-0.1-0.1-0.1-9.6-0.4-2.4-0.4-0.2-0.8-0.9-0.6-1-0.8-0.9-0.6-0.5-1.2-0.6-0.4-0.3-0.4-0.4-3.1-4.1-0.3-0.3-0.4-0.2-1.8-0.7-0.5-0.5-0.3-0.6-0.2-1.1-0.3-0.5-0.4-0.6-1.9-2.3-1.7-1.4-0.4-0.9 0.4-4 0.7-3 0.3-0.9 0.3-0.5 0.2-0.2 0.5-1.5 0.2-1.7 0.3-0.8 0.2-0.6 0.9-0.8 0.6-0.4 0.4-0.2 0.4-0.3 0.4-0.5 0.3-0.7 0.2-1.1 0.3-0.7 0.3-0.5 0.4-0.2 0.4 0 1 0.1 0.4 0 0.4 0 0.5-0.3 0.6-0.6 3-4.1 2.2-1.9 0.6-0.6 0.4-0.6 0.3-0.9 0.3-0.5 0.4-0.3 0.7-0.4 1-1.1 0.7-0.5 2-1.1 0.9-0.7 0.5-0.7 0.8-1.3 0.4-0.9 0.4-1 0.1-0.7 0-0.5-0.1-1-0.1-0.4-0.1-0.4-0.5-0.6-0.3-0.8-0.2-0.3-0.4-0.2-0.3-0.2-0.4-0.2-0.8-0.8-0.4-0.2-0.8-0.4-3.7-1.1-2-0.8-0.4-0.3-0.4-0.5-2-6.4-0.4-0.8-0.4-0.3-0.5-0.1-1.5-0.2-0.9-0.3-0.5-0.2-0.2-0.2 0-0.2 60.3-0.2 0.7-0.2 0.8-0.4 0.4-1 0.5-0.7 1.2-1.1 1.3-1.9 0.1-0.3 1.7-0.6 0.3-1.3 0-1.3 0.6-0.6 1-0.3 2.1-1.5 0.9-0.5 2.2-0.2 0.8-0.6-0.4-1.3 1.2-1.3 0.2-0.2 1.9-2 0.5-1.1 1.4-5.8 1-1.6 2.1-0.9 0.9-1.2 0.7-0.2 2 0.4 1-0.1 0.8-2 1.5-1.8 0.3-1.1 0.3-0.6 0.6-0.2 0.7 0.1 0.6 0.4 0.3-0.3 0.7-0.7 3.2-2.5 1.7-1 3.7-0.8 1.7-1.2z" id="ZM03" name="Eastern">
  </path>
  <path d="M842.4 105l3 9.3 3.9 8.6 0.7 7.9-8.5-0.6-7.8-2-7.8-0.7-9.1 1.4-6.6 3.3-5.2 3.3-5.8 0.6-5.9-2-1.9 5.3-5.2-2.4-5.9 0.4-5.2-3.3-3.9 2.7-4.6 3.9-3.9 2-2 4.7-5.2 6.6 5.9 5.9 5.8 9.9 3.3 8.6 2.6 9.3 5.9 4 7.8 3.3 2.6 2.6 0.2 19.7-5 1.1-0.3-0.4-0.4-0.6-0.5-0.5-0.9-0.2-0.7 0.5-0.7 1.4-0.5 0.3-1 0.3-2.6 1.4-1.4 0.5-2.1 0.2-0.8 0.3-0.3 0.8 0.5 0.7 0.1 0.5-0.4 0.2-1.2 0-0.5 0.3-0.2 0.5 0.3 3.2-0.3 0.9-0.5 0.6-1.6 0.9-0.5 0.6-0.9-0.7-1.5-0.5-1.7-0.3-1.2-0.1-1.5 0.3-1.1 0.5-3.4 2.5 0.2 0.6 1 1 0.4 0.6 0.2 0.5 0.3 0.3 0.9 0.2 0.6-0.2 0.6-0.3 0.6-0.1 0.6 0.6 0.3 1.6-1.2 0.6-2.8 0-0.7 0.7-0.1 0.7 0.4 0.8 1.6 1.7 0.2 0.5-0.1 0.3-0.3 0.7-0.3 0.5-0.6 0.4-0.4 0.5-0.2 0.6 0 0.4-3.5 3.1-1.2 0.5-1.7 0 0.7-0.8 0.3-0.8-0.1-0.8-0.4-0.9-0.9-0.7-0.3 0.7-0.1 1.9-1.2 0.4-1.4-0.5-0.7-0.8 0.8-1-1.6 0-1 2-0.6 2.5-0.7 1.8-0.7 0.4-2.2 0.8-0.8 0.1-0.6 0.2-0.8 0.4-0.9 0.4-1.2 0.1 1.6 1.6-0.4 0.7-1.1-0.2-1-1.1-0.7 0.4-0.7 0.7-0.3 0.9-0.2 0.8-1.4 2.7-6.4 8-1.7 3.4-0.6 2-0.5 0.7-1.8 1.7-0.4 0.2-0.8 1.1-0.4 0.2-1.8-0.3-0.9 0-0.8 0.3-0.6 0.7-0.4 0.8-0.5 1.6-0.3 0.7-0.5 0.6-0.6 0.4-1.1 0.1-1.3 0.6-0.7 1.5-0.5 1.8-0.9 1.6-1.8 1.4-1.1 0.9-2.2 0.9 0-0.2 0-0.2 0-0.6-0.1-0.4-0.2-0.3-0.3-0.4-24.1-17.5-1.3-0.7-1.3-0.3-9.7-0.1-1 0.2-0.6 0.2-0.6 0.7-0.3 1.7-0.9 1.1-2.7 1.9-0.5 0.6-0.4 0.9-0.3 1-0.1 0.7-0.4 0.6-2.3 0.8-0.7 1.3-0.5 0.5 4.5-29.8-0.3-4.2-0.2-0.9-0.1-0.4-0.1-0.4-2.1-3.6-0.5-0.5-0.5-0.4-1.6-1.1-0.3-0.2-0.5-0.6-2.1-4.2-0.4-0.5-0.4-0.4-1.5-0.8-0.7-0.4-3-1-2.6-1.5-1.2-0.9-0.4-0.2-0.5-0.1-0.6 0.2-21.4 11.4-1.3 0.9-0.9 1 0.5 1.3 1.4 2.2 0.2 0.6-0.1 0.4-0.1 0.5 0 0.6 0.1 0.8 0.2 0.8 0.3 0.6 0.9 1.2 0.6 0.7 0.7 1 0 0.5 0 0.5-0.4 2-0.2 2-0.1 0.5-0.2 0.4-0.3 0.1-0.4 0-0.5-0.1-3.7-1.9-0.4-0.2-0.4 0-0.4 0-0.9 0.2-0.9 0-0.4-0.1-0.4-0.1-0.4-0.3-6.9-6.9-0.8-0.5-5.9-2.1-0.7-0.4-0.1-0.3 0.2-0.4 0.6-1 1.6-1.8 3.4-3.1 0.2-0.5 0.2-0.5-0.1-9.2 0.1-0.6 0.4-0.5 9.5-6 0.8-0.7 0.5-0.8 0.5-0.2 0.5-0.1 1.6 0.2 0.4-0.1 0.5-0.1 0.4-0.5 0.4-1.9 0.1-0.4 0.4-0.7 3.1-4.2 0.2-0.5 0.2-0.5-0.1-0.4-0.6-0.7-0.3-0.5-0.4-1-0.1-0.6 0.1-0.5 1.2-2.1 0.5-0.6 0.3-0.3 0.3-0.2 0.3-0.5 0.3-0.7 0.2-2.5 0.2-0.7 0.2-0.3 0.3-0.2 2.3-1.3 0.4-0.3 1-1.1 0.4-0.6 0.2-0.2 0.5-0.4 0.3-0.1 0.7-0.3 2.5-0.6 2.7-1.4 1.9-0.7 0.3-0.2 0.7-0.5 2.4-2.5 1.2-0.9 0.6-0.5 1.5-0.7 0.4-0.1 1.8-0.2 3.5 0.2 0.5 0.1 0.8 0.3 1.2 0.6 0.4 0.1 1 0.2 0.6 0 0.8-0.1 0.4-0.1 0.7-0.4 1.1-0.8 0.2-0.2 0.2-0.3 0.2-0.3 0.3-0.8 1.3-5.9 0.3-0.8 0.4-0.7 0.4-0.7 0.6-0.5 1.3-1.1 0.3-0.3 0-0.4-0.2-0.3-0.7-1.3-1.3-3.1-0.2-0.5-0.1-0.8 0-0.6 0.1-0.4 2-5.1 0.4-1.8-0.1-0.7-1-2.8-0.1-0.4-0.2-0.3-0.3-0.3-0.3-0.2-0.4-0.2-0.7-0.3-0.9-0.2-0.8-0.3-0.3-0.4-0.3-0.6-0.3-1.3-0.3-0.6-0.3-0.5-0.9-0.7-1.1-1.1-0.9-1.3-0.7-1.4-0.3-0.3-0.2-0.3-0.3-0.2-0.4-0.2-0.4 0-0.9 0.1-0.5 0.1-0.9-0.2-0.5 0-0.9 0.1-0.4 0-0.3-0.1-0.5-0.6-0.4-0.2-0.4-0.1-1.5-0.1-2.4-0.8-1.4-0.8-0.4-0.2-0.4-0.1-1.3-0.3-1.6-0.5-0.5 0-1.2 0.2-0.4 0-0.4-0.2-0.7-0.4-0.4-0.2-0.9-0.1-0.5-0.2-0.4-0.4-0.4-0.9-0.4-0.5-0.4-0.2-0.9-0.2-0.3-0.1-0.2-0.1-0.1-0.3-0.3-0.3-0.3-0.2-0.3-0.2-0.5-0.3-0.5-0.5-1.2-2.5-0.3-0.3-1.2-1-0.3-0.2-0.4-0.1-1-0.1-0.4 0-0.5 0.1-0.7 0.3-0.4 0.1-0.4 0-0.3-0.1-0.6-0.5-0.3-0.3-0.4-0.4-0.5-0.6-1.5-4.5-0.7-1.2-0.2-0.7-0.2-0.7 0-0.6 0.2-1.9 0.1-0.5 0.2-0.3 0.3-0.3 0.4-0.1 0.4-0.1 0.3-0.3 0.2-0.3 0.2-0.4 0.2-0.6 0.2-0.7-1.4-4.7-0.1-0.8 0.1-0.5 0.3-1.9-0.1-0.5-0.2-0.6-0.3-0.6-0.1-0.9-0.1-0.5-0.3-0.3-0.3 0.1-0.7 0.3-0.4 0.1-0.3-0.2-0.3-0.2-0.5-0.6-0.3-0.2-0.4-0.2-0.9-0.2-0.3-0.1-0.3-0.3-0.2-0.3-0.4-0.8-0.2-0.3-0.9-1.2-0.4-0.3-0.4-0.2-0.5-0.2-0.5 0-0.4 0.2-0.6 0.2-0.8-0.1-0.7-0.3-0.6-0.4-0.5-0.6-0.6-0.5-0.7-0.4-0.8-0.3-1.4-0.7-1.1-0.6-0.4-0.4-0.4-0.9 0.2-1.7 0.2-0.4 0.2-0.9 0.1-0.5 0.3-0.2 0.4-0.1 0.9 0 0.4-0.1 0.2-0.4 1.8-6.3 0.5-0.6 0.3-0.2 0.7-0.4 2.4-0.7 0.6-0.3 0.3-0.2 1-1.2 0.5-0.7 2.5-6.6 1.7-7.6 2.5-6.1 0.2-0.3 0.3-0.3 0.5-0.5 0.3-0.3 0.8-1.4 2.2-4.5 1-1.3 0.8-0.8 0.3-0.3 0.6-0.3 3-1.1 2.4-0.6 0.2-0.1 0.8-0.6 1.1-1 0.3-0.3 0.8-1.4 1.6-3.1 5.2-0.6 0.1-0.1 0.1-0.6 72.7-7.8 0.1 0 0.4 0.5-2 0.6-2.3 1-2.1 1.4-1.6 1.9-1.2 2.4-0.7 3 0.3 2.6 2.1 1.6-0.2 1.7 1.3 0.6 1.9-0.2 3-1.3 1.3 0.4 0.5 1.1-0.9 1.5 0.3 0.3 0.3 0.7-0.9 0.5-1.3 1-0.9 0.8 0.2 0.4 1.2-0.1 1.1-0.2 1.7-0.7 1.5-0.9 1.7-1.2 1.4-1.5 1.2-1.8-0.7 0.3-0.4 0-1-0.3 0.5-1 0-0.1 0.6-0.3 0.7-0.2 1.7 0 0.6 0.3 0 0.6-0.3 1.5 0.2 1.1 0.7 0.1 0.9-0.1 0.9 0.2 0.3 0.6 0.3 0.5 0.2 0.6 0.7 0.5 1.5 0.3 1.8-0.2 1.4 0.2 0.6 1 0.6 1 3.7 2.6 13 14.2 1.4 0.2 1.8-0.9 1.6-1.1 1.3-0.6-0.1-0.7 0.1-0.7 0.3-0.6 1.1-0.4 0.3-0.5 0.2-0.5 0.3-0.3 0.9-0.9 0.5-0.1 0.4 1.4 1.2 0.9 0.2 0.8 1-0.7 0.7-1.2 0.3-1.4 0.1-1.3-0.2-0.6-0.7-1.3-0.1-0.5 0.1-0.6 0.7-1.2 0.2-0.6-0.4-1.3-1.9-1-0.3-0.8 0.7-0.3 0.6-0.3 1.8 0 0.2 0.1 0.7 0.5 1.5 2 0.8 0.6 1 0.2 0.2-0.1 0.5-0.2 0.6-0.4 4-1.4 0.9-0.2 0.6-0.2 0.2-0.3 0.2-0.1 0.5 0.2 0.2 0.2 0.3 0.5 0.3 1.4 0.2 0.5 1.1 0.7 1 0.1 0.6 0 0.4-0.1 1.2 0.1 0.3 0.1 0.9 0.5 1.7 2 1.2 0.8 0.6 0.1 1 0.3 1.4 0.4 1.6 1.3 0.5 2 0 2.9 0.6 3.4 1.8 2.4 7.5 5.8 1.3 0.5 0.8 0 0.4 0 0.3 0 0.6-0.2 1-0.4 2.7-1.4 1.8-0.1 11.6 3.1-1.5 3.2 0 3.9 1.6 3.1 3.3 0.8 0.7-0.3 0.9-0.4 1.1-0.8 1.3-0.5 1.8 0.2 0.1 0 2.3 1.3 0.8 0.3 0.7-0.1 1.5-0.3 0.7 0 0.9 0.5 0.7 0.4 2.9 2.9 1.5 1.1 1.6 0.6z" id="ZM05" name="Northern">
  </path>
  <path d="M672.9 545.1l0.3 0.5 0.2 1.1 0.3 0.6 0.5 0.5 1.8 0.7 0.4 0.2 0.3 0.3 3.1 4.1 0.4 0.4 0.4 0.3 1.2 0.6 0.6 0.5 0.8 0.9 0.6 1 0.8 0.9 0.4 0.2 0.4 2.4 0.1 9.6 0.1 0.1 0 0.1-0.1 0.5 0.6 2.4 0 3.6 0.4 3.5 2.9 10 1.9 3.9 2.5 1.6 1.2 0.5 0.9 1 0.8 1.5 0.6 1.4 0.3 1.7 0.2 5.3 0.3 0.9 1.1 1.6 0.3 0.8-0.2 0.8-1.5 2.8-0.5 1.7 0.2 1.2 2.2 2.3 0.4 0.7 0.9 2.3-0.2 0.2-1.1 0.5-3.1 1.2-2.2 0.1-2.5-1.1-1.2-0.5-2-0.3-0.6 0.3-1.2 1-0.6 0.4-1.3 0.3-0.9-0.4-2-1.3-3.1-0.7-3.1 0.4-3.1 0.9-3.1 0.5-3.3-0.4-6.7-1.8-3.4-0.3-1.8 0.4-3.2 1.4-3.4 0.6-4.4 1.5-1.9 0.3-1.6-0.3-1.5-0.4-1.7-0.2-1.8 0.5-2.9 2.5-1.4 0.8-6.7 0.6-1.2 0.3-17.1 8-2.8 2.9-0.7 0.4-1.6 0.4-1.5 1-1.2 1.1-0.8 0.8-1.6 3.2-1 0.9-1.9 0.4-3.5 0.1-1.7 0.3-0.3 0.1-0.1 0-1.1-1-1.7-1.1-1.8-0.4-1.3 1.4-0.9-0.5-0.8 0-0.6 0.3-0.3 0.8-0.9-0.6-0.5 0.3-0.4 0.5-0.4 0.3-0.7-0.1-1.2-0.3-0.5-0.1-1.4 0.1-0.4 0-0.8-0.4-5.2-4.2-1.1-0.4-1.5-0.1-3.1 0.4-1.6-0.3-1.3-0.8-3.4-3.5-1.3-1.1-1.2-0.4-2.9-0.4-0.9-0.3-1.5-1.2-0.9-0.5-1.6-0.3-7.7 0.5-1.2 0.4-2.3 1.7-0.8 0.1-0.8-0.4-2.4-2.1-1.3-0.8-7.6-3-1.7-0.2-1.4-0.5-0.8-1.1-0.7-1.5-1.1-1.3-2.8-1.4-3.2-0.1-3.1 0.7-2.6 1.3-0.7-0.4-0.5-0.5-0.1-0.5 0.2-0.7-1.5-0.9-1.8-0.4-3.4 0.1 3.3-7.1 8.3-2.3 1.4-1.1 0.7-0.9 0.1-0.5 0.1-0.5-0.1-0.8-0.2-1.3-1.1-3.7-2-3.9-1-1-1.1-0.4-4.2-0.6-1.8-0.5-1.1-0.7-0.5-1.2 0.2-0.8 0.7-0.9 3.9-2.6 0.7-0.3 1-0.2 1 0 13.2 2.2 13.1 4.3 4.5 0.9 2.4-0.9 2.1-3.7 2-5.7 2.5-5 2.3-1.4 12.8 3.5 6.7-0.2 6.9-0.8 6.1-2.2 9.6-8.6 4.3-1.9 4-0.8 13.6-4.2 6.5 1.7 6.4-0.2 5.1-0.9 2.2-4 0.8-3.4 0.3-1.8 0.5-1.1 1.1-1.5 0.6-0.5 0.6-0.2 0.5 0.1 2.5-0.1 0.4-0.2 0.6-0.5 4.6-2.6 0.7-0.6 0.5-0.5 0.4-0.3 6.1-2.4 0.5-0.1 1.7 0.2 0.4-0.2 0.4-0.2 1.5-1.3 0.5-0.3 0.6 0 1.2 0.3 0.6 0.1 0.8 0 1.2-0.1 0.7-0.2 0.4-0.3 0.3-0.3 0.2-0.3 0.2-0.4 0.6-1.6 0.4-0.6 0.4 0 0.3 0.2 0.2 0.3 0.5 0.2 0.7-0.3 0.8-0.1 0.7-0.4 0.6-0.2 0.5-0.1 0.5 0 0.4 0.1 0.4 0.2 0.7 0.8 0.7 0.4 4 0.3z" id="ZM09" name="Lusaka">
  </path>
  <path d="M277.9 778.9l0-0.1 0-0.2 0.8-5.3 0.4-1.8 0.3-0.3 0.5-0.5 0.2-0.4 0.2-0.2 0.8-0.7 0.4-0.5 0.5-0.8 0.2-0.7 0.1-0.5-0.1-0.5-0.3-0.9-0.1-0.6 0-4.4 0.2-0.9 0.2-0.6 0.5-0.6 1.3-1 0.3-0.2 1.3-2.3 0.8-0.9 1.5-2.7 0.1-0.5-0.1-0.5-0.3-0.7-0.3-0.3-0.2-0.2-0.2-0.7-0.1-0.9 0.3-2 0.2-1 0.4-0.6 0.6-0.5 2.1-1.2 0.5-0.4 0.5-0.6 0.9-1.5 0.5-1 0.2-0.7 0-0.5-0.1-0.4-0.2-0.4-0.2-0.5-0.1-0.6 0.2-1.2 0.6-0.5 0.7-0.4 0.8-0.2 4-2 0.6-0.6 0.7-0.9 1.3-2.3 0.5-1.1 0.1-0.8-2.3-7.7-0.3-0.8-0.2-0.4-0.1-0.5 0.1-1.3 0.7-3.9 0.1-1-0.1-0.6-0.3-0.3-0.6-0.5-0.8-0.4-0.4-0.2-1-0.3-8.1-1-0.5-0.2-0.5-0.4-0.9-2.1-0.2-0.8-0.2-1.3-0.2-0.4-0.3-0.3-0.3-0.2-2.8-1.9-2.1-1.9-0.2-0.3-0.1-0.1-0.1-0.2-0.2-0.9 0.1-0.4 0-0.2 0.1-0.1 0.3-0.1 1.2-0.2 0.4-0.1 0.4-0.2 0.7-0.5 0.3-0.2 7.8-10.7 0.6-0.5 1.4-0.8 0.3-0.2 1.2-1.1 0.3-0.2 0.4-0.1 0.5-0.1 0.4-0.1 0.4-0.2 1-0.6 1.1-1.2 0.2-0.3 0.3-0.3 0.3-0.3 0.4-0.2 0.4-0.1 1.2-0.3 1.1-0.5 0.4-0.6 0.6-1 1.9-4.5 0.3-0.4 0.7-1.2 0.9-2.2 0.3-0.5 0.6-0.6 0.5-0.6 0.4-0.8 0.2-0.3 0.3-0.3 0.3-0.3 0.3-0.2 0.4-0.1 0.3-0.2 0.4-0.2 0.3-0.2 0.2-0.3 0.3-0.4 0.7-0.7 0.4-0.6 0-0.4-0.1-0.3-0.4-0.3-0.4-0.1-0.5-0.1-1-0.1-0.5-0.1-0.4-0.2-0.4-0.2-0.3-0.3-0.5-0.6-1.6-1.2-0.3-0.3-0.2-0.3-0.4-0.8-0.1-0.3-0.2-1.2 0-0.9 0.2-0.5 0.2-0.4 0.8-0.5 0.3-0.3 0.4-0.6 0-0.3-0.3-0.3-0.3-0.4-0.2-0.6 0-1.1 0.2-0.7 0.2-0.4 0.4-0.2 0.5-0.5 0.5-0.9 0.8-2.1 1.2-8.7 0-1-0.1-0.4-0.1-0.4-0.2-0.3-0.6-0.6-0.6-0.6-0.4-0.2-0.4-0.1-0.4-0.1-0.4 0.2-0.3 0.2-0.5 0.6-0.8 1-0.5 0.6-0.3 0.2-0.4 0.2-0.4 0.1-0.5 0-0.5 0-0.4-0.1-0.4-0.2-0.4-0.2-0.6-0.5-0.6-0.6-1-1.7-0.2-0.4-0.2-0.6-0.1-0.8 0.1-0.5 0.2-0.4 1.1-0.7 0.3-0.3 0.3-0.5 0.2-0.5 0-0.5-0.1-0.5-0.1-0.4-0.2-0.3-0.2-0.3-0.3-0.3-0.4-0.2-0.7-0.3-1.7-1.2-0.3-0.3-0.3-0.5-0.1-0.7 0.1-0.5 0.3-0.4 2.1-1.7 0.3-0.4 0.4-0.5 0.3-1 0.1-0.6 0-0.5-0.5-0.6-1.2-1.3-0.1-0.2-0.1-0.2-0.1-0.5 0.1-0.4 0.2-0.4 0.2-0.2 1.6-0.6 0.4-0.1 0.4 0.1 0.3 0.2 0.4 0 0.3-0.1 0.2-0.3 1.1-2.1 0.2-0.6 0.3-1.1 0-0.9-0.1-1.1 0.1-0.6 0.1-0.5 0.2-0.4 0.6-0.5 0.7-0.8 0.4-0.7 0.2-0.5 0-0.5-0.1-0.4-0.2-0.4-0.9-1.4-0.4-1.1 110.5 3 4.5 0.5 3.1 0.7 10.3 6.1 0.8 0.7 0 0.5-1.9 1.6-0.3 0.5 0.7 0.2 18.2 1 2 1.2 4 17.5 0 1 0.9 0.2 0.8 1.2 1.3-0.7 0.2-0.7 6.5-11.8 0.2-0.5 0.3-0.5 0.4 0 1.4 0.4 1.3 0.7 0.4 0 0.3-0.2 0.2-0.4 0.1-0.4 0.3-0.3 0.3-0.2 0.4-0.1 0.4-0.2 0.3-0.2 0.3-0.3 0.5-0.5 0.5-0.3 0.2-0.2 0.3-0.3 0.1-0.4 0.2-0.4 0-0.5 0.1-0.4 0.3-0.4 1-0.5 0.2-0.4 0-0.6 0.1-0.4 0.4-0.4 0.6-0.2 1.2-0.1 0.4 0.2 0.2 0.4-0.2 0.8 0.1 0.3 0.1 0 0.4 0.2 4 1.3 0.4 0.4 0.2 0.3 0.1 0.5 0 0.4 0.1 0.5 0.3 0.2 1.3 0.5 0.2 0.4 0.1 0.4-0.1 1.6 0 0.4 0.2 0.4 0.2 0.3 0 0.3-0.1 0.3-0.3 0.2-0.3 0.3-0.3 0.2-0.1 0.4 0 0.3 0.2 0.3 0.9 1 0.4 0.3 0.4 0.4 0.5 0.5 0.3 0.7 0.5 0.7 0.8-0.8 0.5-0.3 0.8 0 0.5 0 0.8 0.5 0.6 0.1 0.3-0.2 0.4-0.8 0.3-0.2 3.4-0.1 1.8 0.4 1.5 0.9-0.2 0.7 0.1 0.5 0.5 0.5 0.7 0.4 2.6-1.3 3.1-0.7 3.2 0.1 2.8 1.4 1.1 1.3 0.7 1.5 0.8 1.1 1.4 0.5 1.7 0.2 7.6 3 1.3 0.8 2.4 2.1 0.8 0.4 0.8-0.1 2.3-1.7 1.2-0.4 7.7-0.5 1.6 0.3 0.9 0.5 1.5 1.2 0.9 0.3 2.9 0.4 1.2 0.4 1.3 1.1 3.4 3.5 1.3 0.8 1.6 0.3 3.1-0.4 1.5 0.1 1.1 0.4 5.2 4.2 0.8 0.4 0.4 0 1.4-0.1 0.5 0.1 1.2 0.3 0.7 0.1 0.4-0.3 0.4-0.5 0.5-0.3 0.9 0.6 0.3-0.8 0.6-0.3 0.8 0 0.9 0.5 1.3-1.4 1.8 0.4 1.7 1.1 1.1 1 0.1 0-1.2 0.6-2.6 2.5-1.7 2.2-0.2 0.5-1.1 1.7-0.2 0.9 0.1 0.7 0.4 0.6 0.4 0.4 0.2 0.4-0.5 2.8-1 3.4-0.4 3.2 1.3 2.3-1.8 4.3-0.3 1.8 0.3 1.4 1.3 3.4 0 1.8-1.9 3.1-0.3 0.7-0.5 2.9-1.1 1.3-3.1 2.3-0.6 1.4-1.5 1.5-0.7 0.6-1.1 0.2-2.2 0-3.6 0.7-28.3 11.1-5.2 3.4-7.7 6.5-7.1 3-12 5.3-4 2.4-3.1 3.4-10.5 16-1.3 2.8-1.6 6.5-2.1 4.1-4.1 4.3-8 7.3-20.6 21.5-0.8 1.2-0.1 0.9 0.1 2 0.2 1.9-2.6 3.3-2.9 2.8-2.3 2.2-2.1 1.2-1.2 0.3-3.7 0.2-0.8 0.3-2.8 1.9-1.9-0.6-7.3 3.4-1.9 0.3-1.2 0.3-1.1 0.6-2.2 2.1-0.9 0.2-1.1-0.2-4.4-1.4-1.3-0.6-1.1-1-1.2-1.3-1-0.9-1.3-0.5-2.1-0.4-3.2-1-6-3.3-3.5-0.7-2.9 0.5-0.6-0.2-0.5-0.5-0.6-0.4-0.8-0.4-3.5-0.4-0.7-0.3-0.4-0.5-0.5-0.7-0.5-0.7-0.8-0.3-0.6 0.4-2.8 2.1-0.7 0.4-1.8 0.4-1.3 0.7-1.4 0.3-0.4 0.2-0.1 0.3 0.1 1.1 0 0.3-1.1 0.3-1.5 0-1.2 0.3-0.5 1-0.5-0.5-4.3 2.2-0.9 0.1-3.3-0.1-4.7-2.2-0.8-1-0.6-1.3 0.1-1.2 1.3-0.4-1.1-1.4-3.5-1.6-0.8-1.2-0.7-0.9-1.5-1-1.7-0.8-3-0.8-0.9-0.9-1-0.6-1.9 0.2-4.1 1.8-5.2 1-0.5 0.2-0.7 0.8-0.4 0.1-0.5-0.1-0.7-0.4-0.4-0.1-5.9 0-0.8-0.1-2.6-1-2.4 0.1-0.8-0.1-1.5-0.7-2.4-1.9-1.4-0.7-0.3-0.2-0.3-0.3 0-0.1-0.2-0.4-0.3-0.6-0.8-0.9-1.1-0.6-1-0.3-1.4 0-0.5-0.3-1-1.4-0.5-0.3-0.8-0.4-0.1 0-0.3-0.4-0.1-0.4 0.1-0.6 0-0.5-0.2-0.4-1.2-1.3-0.6 0.1-0.4 0.6-0.2 0.3-0.1-0.2-0.1-0.3-0.4-0.6-0.5-0.4-0.1 0-0.7-0.2-0.1-0.4-0.3-0.8-0.4-1.6-0.2-0.1-1.5-1.3 0-0.1-0.2-0.2-0.5 0-0.4 0-0.5-0.1-0.1-0.1-0.4-0.3-0.4-0.6 0-0.5 0.4-1.2 0.1-0.2-0.3-0.3-0.8 0.1-1.4 0.5-0.8-0.1-0.3-0.2-0.9-0.7-0.9-1.3-0.1 0z" id="ZM07" name="Southern">
  </path>
  <path d="M305.5 595.6l0.4 1.1 0.9 1.4 0.2 0.4 0.1 0.4 0 0.5-0.2 0.5-0.4 0.7-0.7 0.8-0.6 0.5-0.2 0.4-0.1 0.5-0.1 0.6 0.1 1.1 0 0.9-0.3 1.1-0.2 0.6-1.1 2.1-0.2 0.3-0.3 0.1-0.4 0-0.3-0.2-0.4-0.1-0.4 0.1-1.6 0.6-0.2 0.2-0.2 0.4-0.1 0.4 0.1 0.5 0.1 0.2 0.1 0.2 1.2 1.3 0.5 0.6 0 0.5-0.1 0.6-0.3 1-0.4 0.5-0.3 0.4-2.1 1.7-0.3 0.4-0.1 0.5 0.1 0.7 0.3 0.5 0.3 0.3 1.7 1.2 0.7 0.3 0.4 0.2 0.3 0.3 0.2 0.3 0.2 0.3 0.1 0.4 0.1 0.5 0 0.5-0.2 0.5-0.3 0.5-0.3 0.3-1.1 0.7-0.2 0.4-0.1 0.5 0.1 0.8 0.2 0.6 0.2 0.4 1 1.7 0.6 0.6 0.6 0.5 0.4 0.2 0.4 0.2 0.4 0.1 0.5 0 0.5 0 0.4-0.1 0.4-0.2 0.3-0.2 0.5-0.6 0.8-1 0.5-0.6 0.3-0.2 0.4-0.2 0.4 0.1 0.4 0.1 0.4 0.2 0.6 0.6 0.6 0.6 0.2 0.3 0.1 0.4 0.1 0.4 0 1-1.2 8.7-0.8 2.1-0.5 0.9-0.5 0.5-0.4 0.2-0.2 0.4-0.2 0.7 0 1.1 0.2 0.6 0.3 0.4 0.3 0.3 0 0.3-0.4 0.6-0.3 0.3-0.8 0.5-0.2 0.4-0.2 0.5 0 0.9 0.2 1.2 0.1 0.3 0.4 0.8 0.2 0.3 0.3 0.3 1.6 1.2 0.5 0.6 0.3 0.3 0.4 0.2 0.4 0.2 0.5 0.1 1 0.1 0.5 0.1 0.4 0.1 0.4 0.3 0.1 0.3 0 0.4-0.4 0.6-0.7 0.7-0.3 0.4-0.2 0.3-0.3 0.2-0.4 0.2-0.3 0.2-0.4 0.1-0.3 0.2-0.3 0.3-0.3 0.3-0.2 0.3-0.4 0.8-0.5 0.6-0.6 0.6-0.3 0.5-0.9 2.2-0.7 1.2-0.3 0.4-1.9 4.5-0.6 1-0.4 0.6-1.1 0.5-1.2 0.3-0.4 0.1-0.4 0.2-0.3 0.3-0.3 0.3-0.2 0.3-1.1 1.2-1 0.6-0.4 0.2-0.4 0.1-0.5 0.1-0.4 0.1-0.3 0.2-1.2 1.1-0.3 0.2-1.4 0.8-0.6 0.5-7.8 10.7-0.3 0.2-0.7 0.5-0.4 0.2-0.4 0.1-1.2 0.2-0.3 0.1-0.1 0.1 0 0.2-0.1 0.4 0.2 0.9 0.1 0.2 0.1 0.1 0.2 0.3 2.1 1.9 2.8 1.9 0.3 0.2 0.3 0.3 0.2 0.4 0.2 1.3 0.2 0.8 0.9 2.1 0.5 0.4 0.5 0.2 8.1 1 1 0.3 0.4 0.2 0.8 0.4 0.6 0.5 0.3 0.3 0.1 0.6-0.1 1-0.7 3.9-0.1 1.3 0.1 0.5 0.2 0.4 0.3 0.8 2.3 7.7-0.1 0.8-0.5 1.1-1.3 2.3-0.7 0.9-0.6 0.6-4 2-0.8 0.2-0.7 0.4-0.6 0.5-0.2 1.2 0.1 0.6 0.2 0.5 0.2 0.4 0.1 0.4 0 0.5-0.2 0.7-0.5 1-0.9 1.5-0.5 0.6-0.5 0.4-2.1 1.2-0.6 0.5-0.4 0.6-0.2 1-0.3 2 0.1 0.9 0.2 0.7 0.2 0.2 0.3 0.3 0.3 0.7 0.1 0.5-0.1 0.5-1.5 2.7-0.8 0.9-1.3 2.3-0.3 0.2-1.3 1-0.5 0.6-0.2 0.6-0.2 0.9 0 4.4 0.1 0.6 0.3 0.9 0.1 0.5-0.1 0.5-0.2 0.7-0.5 0.8-0.4 0.5-0.8 0.7-0.2 0.2-0.2 0.4-0.5 0.5-0.3 0.3-0.4 1.8-0.8 5.3 0 0.2 0 0.1-0.1-0.1-0.8-0.6-1.3 0.6-0.3 0.1-0.6-0.8-0.4-0.6-2.1-1-5.3-1.1-2.5 0.1-0.8-0.2-0.1 0-0.5-0.3-0.2-0.2-0.2-0.2-0.4-0.2-6.6-1-3.5 0-0.8 0.2-0.5 0.6-0.4 0.5-0.9 0.5-1.1 1.1-0.9 0.3-0.7 0.1-0.7-0.1-0.8-0.3-0.4-0.2-0.7-0.5-0.5-0.5-0.2-0.2-0.4-0.3-1.3-0.2-0.7-0.1-1.4-0.8-2.4-0.4-3.3-1.2-1.4-0.3-0.7 0.1-0.6 0.1-3.3 1-0.6 0.2-0.9-0.4-4.1-0.2-0.3 0-1.1-0.2-1.5 0.1-0.5 0.1-1.8 0.4-3.3 0.7-3.3 0.7-3.3 0.6-3.4 0.7-3.3 0.7-3.3 0.7-3.3 0.7-3.4 0.7-3.3 0.7-3.3 0.7-3.4 0.6-3.3 0.7-3.3 0.7-3.3 0.7-3.4 0.7-3.3 0.7-2.3 0.5-1.5 0-2.7 0.6-3.2 0.6-0.4-1.1-0.1-1 0.6-1.2-1.8-1.5-1.5-1.8-1.6-1.1-1.1-0.6-1.1-0.3-2.6-0.3-1.3 0.2-1.3 0.4-1.4 0.1-1.3-0.3-0.9-1.1-0.1-1.1 0.2-1.3-0.2-1.3-0.9-0.9-3.4-1.3-1.9-1.6-1.9-2.2-1.4-2.4-0.6-2.2-0.5-0.9-3.3-3.5-1.1-0.7-3.7-1-4.7-2-2.1-1.4-3.1-2.9-2.4-1.3-1-0.8-0.7-1.2-0.9-3.8-1.1-2.2-1.6-2.1-3.4-3.8-1.1-0.8-4.7-1.9-0.9 0-0.5-0.4-0.3-0.7 0-1.4-0.2-0.7-1-1-2.4-0.8-1.1-0.7-0.7-1-0.9-2.3-5.6-9-0.6-0.7-0.7-0.4-1.3-0.2-0.4-0.3-0.4-0.5-0.5-0.9-1.3-1.7-0.5-1.1-0.7-0.7-2.1-0.4-0.3-0.2-0.6-0.6-0.4-0.2-0.2 0.1-0.3 0.3-0.8 0.2-1.1 0.4-0.6 0.1-1.1-0.4-6.7-5.5-0.5-1.1-0.2-1.4-0.3-1.2-0.9-0.5-1.5-0.2-0.3-0.5 0.2-0.9 0.1-1.1-0.5-1.2-1.3-2.2-0.4-1 0.1-1.4 0.4-1.5 0.6-1.4 0.8-1.1 0.1-1-1.3-0.6-2.5-0.6-0.2-0.5 0-1.8-0.1-0.8-0.3-0.3-0.9-0.8-0.4-0.5-0.3-1.2-0.2-1-0.2-1.1-0.9-1.1 0.7 0.1 1.9-0.1-2.7-4.4-2-2.6-0.2-1.7 0-1.3 0-4.9 0-5.2-0.1-0.2 0-3.7 0-8.2 0.1-8.3 0-8.2 0-8.2 0-3.6 0-2.4 0-1.7 0-3.2 0-12.2 0-12.1 0-12.2 0-12.1-0.1-12.1 0-12.1 0-12.1 0-12.1 0-12.1 0-12 0-12.1 0-4.8 1.4 0.2 2.3 1.2 1 0.6 1.9 1.9 1.2 1 0.4 0.2 0.5 0.2 0.8 0 1.3 0 0.7-0.1 0.6-0.1 2.2-1.1 0.3-0.2 0.3-0.3 0.3-0.8 0.2-0.3 0.3-0.2 1.1-0.7 0.3-0.2 0.2-0.3 0.8-1.4 0.3-0.3 0.3-0.2 0.5-0.1 0.4-0.1 0.7 0.2 0.7 0.2 1.9 1 0.8 0.5 11.3 9.6 5.3 3.3 0.2 0.2 0.2 0.2 0.7 1.5 0.3 0.3 1.9 1.3 0.5 0.1 0.6 0.2 0.8 0 1.4 0.1 0.7 0.7 1.3 0.3 0.4 0.3 0.5 0.5 0.3 0.7 0.2 0.5 0.4 0.7 0.9 0.3 1.9 0.4 0.8 0.5 0.7 0.5 0.7 0.4 1 0.3 0.9-0.2 0.6-0.9 0.1-0.4 1-4.7 0.1-0.4 0.3-0.3 0.4-0.1 3.6-0.2 0.4-0.1 0.4-0.2 1.9-2 0.3-0.2 0.5-0.1 0.6 0.1 1.9 0.8 6.8 4.5 1.1 1.1 0.4 0.7 0.5 1.1 0.2 0.9 0.2 0.3 0.2 0.3 0.2 0.2 0.4 0 0.4 0.1 1.4-0.3 2-0.9 0.4-0.1 0.5-0.1 0.6 0 0.6 0.2 1 0.6 0.4 0.4 0.2 0.5 0 0.3 0 0.9 0.1 1 0.2 0.8 0.2 0.4 0.2 0.3 0.4 0.7 0.7 0.5 0.4 0.2 0.7 0.2 6 0.6 0.5 0.1 0.3 0.2-0.1 0.5-0.2 0.3-1.1 1.2-1.7 2.7-0.3 1.6 3.1-1.1 0.3 0.5 0.1 0.5-0.1 0.5-0.3 0.7 3.2 0 1.3-0.6 1.9-1.8 1.4-0.4 1 0.1 0.7 0.2 0.7 0 1-0.3 0.8-0.5 2.4-2.2 2.2-1.1 8-2.1 1.3-0.8 2.8-2.1 3.2-0.8 2.7-1.5 1.2-0.3 1.2 0.4 1.3 0.9 1.4 0.4 2.5-1.6 0.9-0.2 0.8-0.2 0.9-0.3 1.8-1.8 0.9-0.4-0.1 1.6 0.6 0.9 1.2 0.3 1.5 0 1.6 0.6 0.6 0.1 0.6 0 0.3 0 0.3-0.2 0.3-0.1 0.4-0.1 0.4-0.1 0.7-0.5 0.4 0 0.7 0.2 1.1 0.5 0.8 0.3 0.9 0.1 0.7-0.1 0.8-0.2 0.4-0.2 0.6-0.4 0.8-0.8 0.7-0.9 0.3-0.2 0.4 0.1 0.6 0.7 0.3 0.2 0.6-0.2 0.2-0.4 0.2-0.5 0.1-0.4 0.2-0.5 0.2-0.3 0.3-0.3 0.4-0.1 0.4 0.2 0.6 0.4 0.5 0.3 0.7 0 0.4 0 0.5-0.2 0.6-0.3 0.3-0.2 0.3-0.4 0.4-0.7 0.3-0.3 0.4-0.1 0.5 0 0.7 0 0.4 0 0.4-0.2 0.5-0.6 0.4-0.2 0.8-0.2 1-0.6 0.4-0.1 0.4 0.2 1.2 1 1.5 1.1 0.6 0.3 0.9 0.2 0.6 0 0.4-0.1 0.2-0.3 0-0.4-0.3-0.3-0.4-0.4-0.2-0.3 0-0.4 0.2-0.2 0.3-0.3 0.1-0.4 0.2-0.4 0-0.3 0.3 0 0.5 0.3 0.8 0.7 0.4 0.6 0.1 0.6 0 0.4 0.1 1 0.4 0.4 0.7 0.4 3 0.9 0.4 0 0.3-0.2 0.3-0.2 0.3-0.3 0.2-0.2 0.2-0.1 0.3 0.4 0.1 0.4 0.3 0.4 0.3 0.2 0.5 0 0.3-0.3 0.2-0.3 0.3-0.2 0.4-0.1 0.6 0.1 1.1 0.1 0.4 0 0.4-0.2 0.2-0.2-0.1-0.3-0.2-0.3-0.3-0.3-0.1-0.2 0.1-0.3 0.7-0.2 0.4-0.2 0.2-0.4 0.2-0.3 0.3-0.1 1.7 1.9 0.3 0.5 0.5 0.4 0.5 0.4 1 0.5 0.6 0.8 0.2 0.4 0.3 0.4 0.9-0.1 0.5 0.1 0.7 0.3 0.4 0.1 0.3-0.2 0.2-0.3-0.1-0.4-0.1-0.7 0-0.4 0.3-0.2 0.3 0.1 0.8 0.2 0.3 0 0.3 0.1 0.1 0.5-0.2 1.5 0 0.4 0.1 0.2 0.1 0.1 0.2 0 0.4 0 0.1-0.1 0.2-0.3 0-0.9 0.1-0.4 0.2-0.4 0.2-0.3 0.4-0.2 0.4-0.1 0.3-0.2 0.6-0.3 0.3-0.1 0.3 0.1 0.4 0.4 1.8 2.2 0.9 0.8 0.4 0.5 0.3 0.3 0.1 0.4 0.2 0.9 0.6 1.5 0.1 0.4-0.1 2 0 0.5 0.1 0.4 0.1 0.4 0.4 0.7 0.1 0.4 0.4 0.7 0.5 0.4 0.6 0.3 4 1.4 1.5 0.2 1.7 0.5 1.9 0.3 0.6 0.1 8.7 4.5 1.4 0.5 0.8 0.1 2.9-0.5 0.6 0.1 0.6 0.4 0.8 1 0.3 0.7 0.2 0.6 0 2.9-0.1 0.5-0.2 1-0.3 0.8-0.7 1.1-0.5 0.7-0.2 0.3-0.1 0.4-0.1 0.3-0.1 0.2-0.3 1.8-0.2 3.5-0.1 0.4-0.2 0.4-0.8 0.9-0.6 0.5-0.3 0.2-2 1-1.7 0.6-0.4 0.2-0.3 0.2-0.1 0.2-0.2 0.1-0.2 0.5 0 0.2 0 0.7 0.2 1.9 0 0.4-0.4 2.6 0.1 0.5 0 0.4 0.4 0.8 0.1 0.3 1 1.3 1.6 1.9 0.6 0.5 0.6 0.3 0.6 0.4 0.6 0.1 0.6 0.1 0.6 0 0.6-0.1 1.5-0.5 0.7-0.1 0.8 0 3.7 0.2 0.7-0.1 3-0.6 1.5-0.7 0.4-0.2 0.7-0.3 1.2-0.4 3.3-0.7 0.8-0.3 1.4-0.7 0.4-0.2 1.1 0 5 0.5 1.5 0.3 0.8 0.4 0.3 0.3 0.3 0.2 0.4 0.2 0.5 0.2 0.7 0.1 1.1-0.1 1.4-0.1 1.7-0.8 0.5-0.3 0.9-0.3 2 0.1-0.6 0.1-0.3 0.2-0.3 0.2-0.3 0.3-0.5 0.6-1.3 2.1-0.5 1-0.8 1.9-0.2 0.4-0.2 0.3-0.5 0.8-0.1 0.6-0.1 0.7 0.1 1.2 0.5 1.6-0.2 2.6 0 0.9 0 0.5-0.2 0.4-0.4 0.3-0.9 0.3-0.3 0.2-0.3 0.2-0.3 0.4-0.2 0.4-0.1 0.6-0.1 0.9-0.2 0.7-0.4 0.8-0.7 0.8-0.2 0.6-0.2 0.8 0 1.6 0.1 0.8 0.1 0.6 2.3 4.2 0.1 0.4 0.1 0.4-0.1 3.5-0.3 0.7-0.4 1-1.1 1.6-1.2 1.2-0.3 0.4-0.1 0.8 0.2 2.3-0.1 0.5-0.3 0.5-0.6 0.4-0.5 0.1-0.5-0.1-0.4-0.1-0.5 0-0.4 0-0.4 0.2-0.3 0.3-0.5 0.6-2.3 2.1-0.3 0.3-0.1 0.5-0.1 0.7 0.4 3-0.1 5.5z" id="ZM01" name="Western">
  </path>
  <path d="M322.9 538.2l-2-0.1-0.9 0.3-0.5 0.3-1.7 0.8-1.4 0.1-1.1 0.1-0.7-0.1-0.5-0.2-0.4-0.2-0.3-0.2-0.3-0.3-0.8-0.4-1.5-0.3-5-0.5-1.1 0-0.4 0.2-1.4 0.7-0.8 0.3-3.3 0.7-1.2 0.4-0.7 0.3-0.4 0.2-1.5 0.7-3 0.6-0.7 0.1-3.7-0.2-0.8 0-0.7 0.1-1.5 0.5-0.6 0.1-0.6 0-0.6-0.1-0.6-0.1-0.6-0.4-0.6-0.3-0.6-0.5-1.6-1.9-1-1.3-0.1-0.3-0.4-0.8 0-0.4-0.1-0.5 0.4-2.6 0-0.4-0.2-1.9 0-0.7 0-0.2 0.2-0.5 0.2-0.1 0.1-0.2 0.3-0.2 0.4-0.2 1.7-0.6 2-1 0.3-0.2 0.6-0.5 0.8-0.9 0.2-0.4 0.1-0.4 0.2-3.5 0.3-1.8 0.1-0.2 0.1-0.3 0.1-0.4 0.2-0.3 0.5-0.7 0.7-1.1 0.3-0.8 0.2-1 0.1-0.5 0-2.9-0.2-0.6-0.3-0.7-0.8-1-0.6-0.4-0.6-0.1-2.9 0.5-0.8-0.1-1.4-0.5-8.7-4.5-0.6-0.1-1.9-0.3-1.7-0.5-1.5-0.2-4-1.4-0.6-0.3-0.5-0.4-0.4-0.7-0.1-0.4-0.4-0.7-0.1-0.4-0.1-0.4 0-0.5 0.1-2-0.1-0.4-0.6-1.5-0.2-0.9-0.1-0.4-0.3-0.3-0.4-0.5-0.9-0.8-1.8-2.2-0.4-0.4-0.3-0.1-0.3 0.1-0.6 0.3-0.3 0.2-0.4 0.1-0.4 0.2-0.2 0.3-0.2 0.4-0.1 0.4 0 0.9-0.2 0.3-0.1 0.1-0.4 0-0.2 0-0.1-0.1-0.1-0.2 0-0.4 0.2-1.5-0.1-0.5-0.3-0.1-0.3 0-0.8-0.2-0.3-0.1-0.3 0.2 0 0.4 0.1 0.7 0.1 0.4-0.2 0.3-0.3 0.2-0.4-0.1-0.7-0.3-0.5-0.1-0.9 0.1-0.3-0.4-0.2-0.4-0.6-0.8-1-0.5-0.5-0.4-0.5-0.4-0.3-0.5-1.7-1.9-0.3 0.1-0.2 0.3-0.2 0.4-0.4 0.2-0.7 0.2-0.1 0.3 0.1 0.2 0.3 0.3 0.2 0.3 0.1 0.3-0.2 0.2-0.4 0.2-0.4 0-1.1-0.1-0.6-0.1-0.4 0.1-0.3 0.2-0.2 0.3-0.3 0.3-0.5 0-0.3-0.2-0.3-0.4-0.1-0.4-0.3-0.4-0.2 0.1-0.2 0.2-0.3 0.3-0.3 0.2-0.3 0.2-0.4 0-3-0.9-0.7-0.4-0.4-0.4-0.1-1 0-0.4-0.1-0.6-0.4-0.6-0.8-0.7-0.5-0.3-0.3 0 0 0.3-0.2 0.4-0.1 0.4-0.3 0.3-0.2 0.2 0 0.4 0.2 0.3 0.4 0.4 0.3 0.3 0 0.4-0.2 0.3-0.4 0.1-0.6 0-0.9-0.2-0.6-0.3-1.5-1.1-1.2-1-0.4-0.2-0.4 0.1-1 0.6-0.8 0.2-0.4 0.2-0.5 0.6-0.4 0.2-0.4 0-0.7 0-0.5 0-0.4 0.1-0.3 0.3-0.4 0.7-0.3 0.4-0.3 0.2-0.6 0.3-0.5 0.2-0.4 0-0.7 0-0.5-0.3-0.6-0.4-0.4-0.2-0.4 0.1-0.3 0.3-0.2 0.3-0.2 0.5-0.1 0.4-0.2 0.5-0.2 0.4-0.6 0.2-0.3-0.2-0.6-0.7-0.4-0.1-0.3 0.2-0.7 0.9-0.8 0.8-0.6 0.4-0.4 0.2-0.8 0.2-0.7 0.1-0.9-0.1-0.8-0.3-1.1-0.5-0.7-0.2-0.4 0-0.7 0.5-0.4 0.1-0.4 0.1-0.3 0.1-0.3 0.2-0.3 0-0.6 0-0.6-0.1-1.6-0.6-1.5 0-1.2-0.3-0.6-0.9 0.1-1.6-0.9 0.4-1.8 1.8-0.9 0.3-0.8 0.2-0.9 0.2-2.5 1.6-1.4-0.4-1.3-0.9-1.2-0.4-1.2 0.3-2.7 1.5-3.2 0.8-2.8 2.1-1.3 0.8-8 2.1-2.2 1.1-2.4 2.2-0.8 0.5-1 0.3-0.7 0-0.7-0.2-1-0.1-1.4 0.4-1.9 1.8-1.3 0.6-3.2 0 0.3-0.7 0.1-0.5-0.1-0.5-0.3-0.5-3.1 1.1 0.3-1.6 1.7-2.7 1.1-1.2 0.2-0.3 0.1-0.5-0.3-0.2-0.5-0.1-6-0.6-0.7-0.2-0.4-0.2-0.7-0.5-0.4-0.7-0.2-0.3-0.2-0.4-0.2-0.8-0.1-1 0-0.9 0-0.3-0.2-0.5-0.4-0.4-1-0.6-0.6-0.2-0.6 0-0.5 0.1-0.4 0.1-2 0.9-1.4 0.3-0.4-0.1-0.4 0-0.2-0.2-0.2-0.3-0.2-0.3-0.2-0.9-0.5-1.1-0.4-0.7-1.1-1.1-6.8-4.5-1.9-0.8-0.6-0.1-0.5 0.1-0.3 0.2-1.9 2-0.4 0.2-0.4 0.1-3.6 0.2-0.4 0.1-0.3 0.3-0.1 0.4-1 4.7-0.1 0.4-0.6 0.9-0.9 0.2-1-0.3-0.7-0.4-0.7-0.5-0.8-0.5-1.9-0.4-0.9-0.3-0.4-0.7-0.2-0.5-0.3-0.7-0.5-0.5-0.4-0.3-1.3-0.3-0.7-0.7-1.4-0.1-0.8 0-0.6-0.2-0.5-0.1-1.9-1.3-0.3-0.3-0.7-1.5-0.2-0.2-0.2-0.2-5.3-3.3-11.3-9.6-0.8-0.5-1.9-1-0.7-0.2-0.7-0.2-0.4 0.1-0.5 0.1-0.3 0.2-0.3 0.3-0.8 1.4-0.2 0.3-0.3 0.2-1.1 0.7-0.3 0.2-0.2 0.3-0.3 0.8-0.3 0.3-0.3 0.2-2.2 1.1-0.6 0.1-0.7 0.1-1.3 0-0.8 0-0.5-0.2-0.4-0.2-1.2-1-1.9-1.9-1-0.6-2.3-1.2-1.4-0.2 0-7.3 0-12 0-12.1 0-12 0-12 9.6 0 9.7 0 9.6 0 9.7 0 9.7 0 9.6 0 9.7 0 9.6 0 9.7 0 9.7 0 9.6 0 9.7 0 9.7 0 9.6 0 9.7 0 9.6 0 2.5 0-0.9-2.9-1.3-2.5-1.7-2.3-4.3-4.4-1.5-2.2-0.7-2.6 0.5-3.1 1.5-3.6 1.5-5.9 1.4-5.6 0.9-2.3 3.5-5.2 2.6-3.8 0.7-1.4 0.2-1.3-0.8-3.6-0.3-4.9-0.8-2-2-2-1.6-2.5-0.5-3.6 0.6-11.1 0.4-10.3 1.7-3.8 0.1-0.8-0.3-2-0.4-5.9-0.6-1.9-0.8-1.5-0.6-1.6 0-2 0.4-1.6 1.4-3.1 2.1-3.4 0.4-0.9 0-1.3-0.2-1.9 0-1 0.2-0.9 0.8-1.1 2.4-2 0.8-1-0.1-1-3.4-7.6-0.4-2.1 0.3-11.2-1.5-0.3-0.5-1.1 0.4-3-0.1-4.4 0.3-1.4 0.5-1.6-0.3-1.1-1.5-2.4-0.5-1.3-0.1-1.1-0.4-2.8 2.6 0.1 3.7 0.7 3.3 1.2 0.6 0.6 1.2 1.1 0 0.7-0.5 1.4 0 0.8 0.2 0.8 0.5 1.6 0.2 0.9-0.2 2.7 0.6 0.9 1.5-0.2 0.3-0.1 1.3-0.4 1 0 0.3 0 2.9 0.9 1.5 0.2 2.9 0 1.4 0.2 1.8 0.8 2.2 1.4 2 1.8 0.9 1.6-0.3 0.9-0.6 0.7-0.6 0.7-0.1 1.2 0.5 0.9 1.3 1.2 0.5 0.6 0.4 1.4 0.1 1.7-0.1 1.7-0.3 1.5-0.6 1.3-2.5 4-1 1-3.2 1-1 0.8 0.6 1.5 1.3 0.5 3.2 0.1 1.5 0.2 1.7 1.1 2.6 2.4 1.6 0.8 1.8 0.1 1.7-0.3 1.3-0.5 1.9-0.7 0.8-0.1 0.4 0.1 0.5 0 0.4-0.1 0.4 0 0.5-0.7 0.3-0.9 0.3-0.7 0.4-0.7 0.7-0.6 0.7-0.3 1.8-0.4 0.8-0.4 0.7-0.8 1.5-1.9 0.8-0.8 3-1.2 0.7-0.1 5.1 0 3.1-0.6 5.7-2.9 2.9-0.9 0.4-0.1 1.6 0.1 1.4 0.2 10-0.9 1.1-0.1 4.6-1 7.4-3.7 2.5-0.5 0.9 0.9 0.2 1.8-0.1 0.3 0 1.7 0.1 1.6 0 0.8-0.6 0.5-1.6 0.7-0.9 0.7 0.4 0.6 0.9 0.7 0.4 0.7-0.7 1.5-0.9 0.7-0.7 0.9 0.1 1.9 0.6 1.6 1.8 3.1 0.6 1.4-0.2 0.8-1 1.2-0.3 0.8 0 0.7 0.2 1.4 2.1 6.5 0.7 1.3 0.6 0.7 0.6 0.3 0.7 0.1 0.9 0 1.1 0.2 0.5 0.6 0.3 0.6 0.7 0.7 4.5 2.1 1.3 1.2 0.2 0.4 0 0.5 0 0.4-0.7 2 0.5 1.1 0.3 0.1 0.9 0.4 1.5-0.1 0.7-0.3 0.5-0.6 0.5-0.4 1-0.2 0.8-0.2 0.3-0.8 0.3-0.8 0.6-0.5 3.5 0.1 1.1 0.7 1.6 1 0.9 0.8 1.6 1.5 2.9 1.7 1.5 0.3 4.4 0 0.9-0.1 1.5-0.7 0.6-0.2 0.9 0.2 0.4 0.2 0.3 0.4 0.1 0.1 2.4 2 1.7 1.4 1.7 0.6 1.1 0.8 0.5 1.2 0.5 1.3 1.4 0.6 0.7 0.1 0.3 0.1 13.4-0.2 1.8 0.7 1.5 1 1.6 0.7 2.8-0.1 1.6 0.7 0.9 0.1 0.9-0.4 1.5-1 0.8-0.4 2.9-0.5 3-0.1 0.9 0.3 0.9 0.3 1.4 1 1.2 1.2 1.4 1.1 2.8 0.9 2.2 0.2 2.8 0.2 1.3 0.1 2 0.4 0.9 0.2 0.1 0 1.4 0.9 1.3 1 1.4 0.6 1.5-0.3 1.2-1.2 0.4-0.5 0.5-0.8 1.2-1 0.3 0 1.7-0.1 1.2 0.2 2.4 0.2 3.3-0.7 3-1.7 2.7-2.7 1.6-3 0.3-6.5 0.7-3.2 1.2-1.7 1.2-1.1 0.8-1.2 0.1-2.2-0.9-3.3-0.1-1.5 1.1-1.2 0.6-0.1 1.7 0.3 0.8 0 3-1 3.3-0.3 2.2-0.9 0.5 0 0.6 0.8 0.7 1.1 0.8 3.6 0.4 3.9-0.2 2.7 1.9 6.9 14.5 8.9 3.5 6.2 0.2 0.2 0.3 3.2 0.3 0.9 3.5 10 1.2 1.7 4.2 3.4-0.3 0.2-3.3 2.3-0.3 0.2-1.2 0.4-1.1 1.5-0.3-0.2-0.9-0.4-2.2-0.4-0.2-0.5 0.1-0.5 0-0.4-1-0.8-1.3-0.8-0.6-0.6-1.2 0.4-0.3 0.1-0.6 0.4-1.2 1.1-0.6 0.4-0.4 0.2-0.8 0.3-0.3 0.1-0.4 0.4-1.1 1.3-1.2 0.6-0.3 0.2-1 0.6-0.4 0.3-1 1.2-0.5 0.4-0.5 0.1-9.8-0.9-0.9 0.1-1.5 0.3-0.7 0-2.1-0.1-1.8-0.4-0.4 0-0.3 0.1 0.1 0.6 0.1 0.4 0.9 2.8 0 0.5 0 2.4-0.3 0.8-0.2 0.4-0.2 0.6-0.2 0.7 0.1 1.1 0.1 0.6 0.1 0.5 0.7 1.8 0.1 0.1 0.5 0.6 0.2 0.3 0 0.3-0.4 0.3-0.4 0.1-3.1 0.6-0.7 0.3-0.7 0.5-2.7 3.4-0.8 1.5-0.8 0.9-0.5 0.5-0.7 0.5-0.7 0.3-0.4 0.1-1.4 0.1-0.4 0.1-0.4 0.1-0.7 0.4-0.6 0.6-0.7 1-0.2 0.4-0.2 0.6-0.7 3.4-0.3 0.7-0.5 0.9 0 0.4 0.2 0.8 0.3 0.4 0.3 0.3 0.4 0.2 0.3 0.4 0.2 0.5 0.2 0.7 0.4 0.4 0.3 0.3 0.4 0.2 1.4 1.5 0.3 0.4 0.1 0.4-0.1 0.5-0.3 0.7-0.3 0.5-0.7 1.7-0.7 1.1-0.1 0.4 0.1 0.4 0.2 0.5 0.4 0.3 0.3 0.2 0.8 0.4 0.8 0.5 0.2 0.3 0.6 0.5 0.3 0.3 0.3 0.2 2.1 0.9 0.4 0.2 0.6 0.5 0.4 0.2 0.4 0.1 1.3 0.1 0.3 0 0.3 0.1 0.4 0.2 0.2 0.3 0.2 0.3 0.4 0.8 0.2 0.2 0.3 0.2 0.4 0.2 0.2 0.4 0.3 0.6 0.4 0.3 0.5 0.2 1.7-0.3 0.5 0 0.5 0.1 0.4 0.1 0.3 0.2-2.1 9.2-0.2 0.6-0.2 0.6-0.6 0.8-0.7 0.9-0.6 0.5-4.3 2.7-0.6 0.5-0.3 0.3-0.2 0.3-0.2 0.4-0.2 0.6-0.1 0.8 0 1.3 0.1 0.7 0.2 0.5 0.8 1.8 0.3 0.8 0.1 1.4 0 0.5-0.2 0.7-0.3 0.8-0.8 1.4-0.5 0.7-0.4 0.4-1.8 0.9-0.3 0.3-0.3 0.3-0.8 2.1-0.4 0.5-0.4 0.3-0.7 0.3-1.5 0.6-0.7 0.3-0.3 0.3-0.3 0.4-0.3 0.6-0.8 3.9-0.3 0.6-0.2 0.4-0.2 0.3-1.5 1.2-0.3 0.3-0.4 0.7-0.6 1.4-0.3 1.3-0.3 5.2 0.1 0.9 0.3 1 0.4 0.7 0.3 0.5 1.2 1 2.6 1.7 0.7 0.3 0.6 0.5 0.5 0.6 0.5 0.6 0.4 0.7 0.3 0.7 0.3 1.3 0.2 0.3 0.2 0.3 0.5 0.6 0.3 0.3 0.7 0.4 2.4 1.2 0.3 0.3 0.1 0.3 0 0.5-0.1 0.5-0.2 0.4-0.8 1.6-1.6 2.4-0.6 1.7-0.3 2.2-0.1 2 0.2 3-0.1 0.4-0.1 0.4-0.4 0.4-0.7 0.4-1.6 0.5-0.7 0.4-0.5 0.5 0.2 0.4 0.3 0.3 3 1.6 0.9 0.8 3.8 5 0.6 1 0.7 1.5 0.2 0.8 0 1 0 0.5-0.1 0.5-0.1 0.4-0.2 0.4-1.4 2-0.4 0.7-0.1 0.4 0 0.4 0.1 0.4 0.2 8.9-0.5 1.3-0.4 0.4-1.3 1.2-9.6 0.4-1.1 0.4-2.8 1.9-1.4 0.4-6.4-0.5-0.9 0.2-0.3 0.4-0.3 0.3-0.4 0.2-1-0.1-1.4-0.7-0.8-0.3-1.3 0.1-1.2 0.6-1.1 0.7-0.6 0.8-3.3 5-4.9 3.8-3.2 3.8-0.9 1.7-0.5 4.1-2.7 1.2-0.8 0.2-0.8-0.2-0.5-0.7-0.5-0.7-0.6-0.6-3.4-1.7-2-0.3-1.2-0.3-0.8-0.5-0.6-0.7-0.6-1.1-0.3-0.4-0.4-0.4-43-5.3-1.4 0-1.3 0.3-1.1 0.8-1.8 1.3z" id="ZM06" name="North-Western">
  </path>
  <path d="M704.4 292.1l-0.3 0.4-0.1 0.3-0.1 0.3 0 0.9 0 0.4-0.7 1.7-0.1 1 0.1 0.5 0.1 0.3 0.3 0.3 0.1 0.4 0 0.5-13.4 17.2-1.1 1-1.2 0.5-33 5.4-0.4 0.2-2 0.2-0.9 0.9-0.4 1.2 0.1 1.4 0.6 2.6-0.3 3.6 0.3 1.3 0.6 1.2 1.5 1.6 0.6 1-0.1 1-0.2 1-0.1 1.1 0.4 0.7-0.3 0.6-0.2 0.4-0.3 0.4-0.3 0.3-0.3 0.1 0-0.1-3.3 0.3-1.7 0.6-2.6 1.9-3.1 1.4-0.3 0-0.9 0.1-1-0.1-1.9-0.7-1-0.4-0.6-0.1-1 0.1-0.1 0.1-0.7 0.5-0.5 0.3-0.3 0.3-1.1 0.6-0.1 0-1.3 0.4-0.7 0.2-0.1 0-0.1 0.1-1.7 0.6-1.1 0.8-0.5 1-1 3.2-0.3 1.8-0.3 0.7-0.1 0.7 0.3 0.6 2.3 3 0.4 0.1 0.1 0.2 0.7 0.8 0.4 0.2 1.9 0.1 0.2 1-0.2 1.5-0.8 1.2-1.2 0.7-1.5 0.1-0.5-0.2-0.4-0.3-0.2-0.3-0.5-0.2-0.5-0.1-1.1 0.1-0.5 0-2.1-0.8-3.2-1.8-0.6-0.1-3.1-0.1-0.9-0.2-0.7-0.3 0.1-0.4-0.1-0.5-0.9-0.8-0.7-0.7-0.7-0.5-0.7 0.1 0 0.1-0.1 0-0.1 0-6.3 0.1-1.9 0.5-1.7 0.7-0.8 0.5-0.3-0.3-0.5-0.5-0.3 0-0.2-0.4-1.3 0.2-1.3 0.7-1.1-0.1-0.8-0.4-0.2 0-0.3-0.3-0.5-0.8-0.1-0.7-0.4-0.6-1.6-3-0.1-0.7-0.2-1.2-1.2-1.5-1.7-2.9-0.8-1.2-0.3-0.4-1-1-1.8-1.6-2.3-1.8-1.1-0.6-0.5-0.5-0.3-0.2-0.5-0.8-0.4-1.5-0.8-1.5-1.1-1.3-1-0.9-2.7-1.5-0.2-1.1-0.6-1.2 0-0.9 0-0.8-0.4-0.4-0.7-0.5-0.2 0-0.3 0-0.1 0-2.3 0.3-0.9-0.8-1.9-0.6-0.9-0.7-0.7-0.4-1.2-0.4-0.5-0.4-0.4-0.5-0.8-1.8-0.2-0.4-0.4-0.1-0.3-0.1-1.1-0.8-1.3 0.8-0.4-0.4-0.5-0.3-0.8-1.3-0.3-0.4-0.7-0.6-0.7-0.5-0.8 0-1.1 0.5-0.2-0.3 0-0.1-0.3-1-0.4-0.7-0.1-0.2-0.4-2.7-1-0.9-1.2-0.4-0.7-1-0.7-5.5-0.3-0.8-1.1-1-0.3-0.4-0.1-0.4-0.1-0.1 0.2-0.5 0.1 0 0.7-0.5 0.2-0.3-0.2-1.3-0.3-0.6-0.2-0.1-0.3-0.3-0.1-0.1-0.1 0-0.5-0.2-0.5-1.8-0.5-0.7-1.1-1.2-0.2-0.2 0.1-1.4 0.1-0.4 0.1-1 0.5-0.9-0.3-0.6 0.1-0.4 0.4-0.5 0-0.1 0.2-0.4 0-0.1-0.2-0.8 0-1 0.2-0.6 0.2-0.4 0.9-0.5 0.1-0.5 0.6-0.9 0.2-1 0.7-1.5 0-0.4-0.5-1.1-0.1-0.4 0.2-0.4 0.2-0.2 0.2-0.1 0.3-0.1 0.9-0.2 0.1 0 0.3 0 0.3-0.2 0.1-0.4 0-0.1-0.3-1 0.3-0.9-0.1-0.3-0.5-0.7-0.1-0.3 0-0.1 0.4-1.3-0.1-0.6-0.1-0.2 0.1-0.3 0.1-0.1 0.3-0.2 0.8-0.4 0.3-0.4 0.2-1.1 0.9-1.5 0.2-0.8 0-0.5-0.3-0.6-0.1-0.6 0-0.2 0.1-0.6 0-0.4 0-0.2 0.6-0.7 0-0.1 0.4-0.6 0-1.4 0.2-1-0.1-0.4-0.1-0.5-0.4-0.8-0.8-1-0.3-1.3 0-0.2 1-1.1 0.1-0.2 0.1-1 0.3-1-0.1-0.6 0-0.1 0.1-0.4 0.4-0.6 0.4-0.4 0.2-0.6 0.1-0.8-0.2-2.9 0.3-0.4 0.6-0.6 0.1-0.2 1.4-1.3 0.2-1.5 0-0.5 0.3-0.6 0.2-0.9 0-3.5 0.1-0.8 0.5-1.1 0.5-0.6 0.1-0.1 1.2-1 0.1-0.2 0.1-1 0.2-0.4 1.2-1.1 0.6-1.6 0.8-1.3 0.8-0.6 1-0.3 1.4 0 0.1-0.9 0.2-0.2 0.1-0.2 0.1-0.3 0.1-1.2 0.8-0.8 0.2-0.1 0.6-0.3 0-0.1 0.3-0.3 0.1-0.4 0.2-0.6-0.1-0.4-0.2-0.9-0.4-0.7-0.8-0.5-0.7-0.6-0.2-0.3-0.1-0.8 0-1.2 0.5-1.4 0.1-0.6 0.1-0.1-0.1-0.2 0-0.1-0.1-0.3-0.5-0.8-1.1-0.7-0.2-0.3-1-1.4 0-0.8 0.2-0.7 0-0.1 0.1-0.3 0.1-0.5-0.3-0.7 0-0.6 0.1-0.5 0.4-1.3-0.3-2.1-1.3-3.8 0.1-1.4 0.6-1.5 0.4-2-0.4-1.4-0.2 0-0.4-1.5-0.1-0.1-0.7-0.4-0.2-0.1-0.2-0.4-0.1-0.9-0.2-0.3-2-1.8 0-0.1 0-0.2 0.3-0.8 0.6-0.8 0.7-0.6 0.7-0.9 0.1-1 0.6-0.5 0.4-0.5 0-1.5 1.3-3.8 0.1-1.9 1.1-1.9 0.5-2.6-0.1-1.4 0.7-1.7 0.8-2.6 0.7-2.9-0.1-1.9-0.4-2.5 0.1-0.8 0-0.6 0.9-1.1 0.2-0.5-0.1-0.5-0.1-0.2-0.4-0.4-0.1-1-1-5.4-0.8-1.8-0.6-4.3 0.1-3.4-2.1-6.1-3.6-6.8-0.1-0.2-0.2-0.4-0.1-0.3-0.1-0.1-0.2-0.6-0.4-0.3-0.3-0.3-0.1 0-1.1-0.9-5.4-11.5 1-1.4 5-4.8 7.2-6.2 10.4-11.1 3.4-5.1 3.9-5.2 4.2-6.9 1-7-0.9-5.9-2.7-4.4-0.2-1.1 1-0.6 0.1 0 0.3-0.1 3.8-0.6 3.1-0.2 3.3-0.2 3.2-0.3 4.4-0.3 17-2 10.8-1.3 4.4-0.6-1.6 3.1-0.8 1.4-0.3 0.3-1.1 1-0.8 0.6-0.2 0.1-2.4 0.6-3 1.1-0.6 0.3-0.3 0.3-0.8 0.8-1 1.3-2.2 4.5-0.8 1.4-0.3 0.3-0.5 0.5-0.3 0.3-0.2 0.3-2.5 6.1-1.7 7.6-2.5 6.6-0.5 0.7-1 1.2-0.3 0.2-0.6 0.3-2.4 0.7-0.7 0.4-0.3 0.2-0.5 0.6-1.8 6.3-0.2 0.4-0.4 0.1-0.9 0-0.4 0.1-0.3 0.2-0.1 0.5-0.2 0.9-0.2 0.4-0.2 1.7 0.4 0.9 0.4 0.4 1.1 0.6 1.4 0.7 0.8 0.3 0.7 0.4 0.6 0.5 0.5 0.6 0.6 0.4 0.7 0.3 0.8 0.1 0.6-0.2 0.4-0.2 0.5 0 0.5 0.2 0.4 0.2 0.4 0.3 0.9 1.2 0.2 0.3 0.4 0.8 0.2 0.3 0.3 0.3 0.3 0.1 0.9 0.2 0.4 0.2 0.3 0.2 0.5 0.6 0.3 0.2 0.3 0.2 0.4-0.1 0.7-0.3 0.3-0.1 0.3 0.3 0.1 0.5 0.1 0.9 0.3 0.6 0.2 0.6 0.1 0.5-0.3 1.9-0.1 0.5 0.1 0.8 1.4 4.7-0.2 0.7-0.2 0.6-0.2 0.4-0.2 0.3-0.3 0.3-0.4 0.1-0.4 0.1-0.3 0.3-0.2 0.3-0.1 0.5-0.2 1.9 0 0.6 0.2 0.7 0.2 0.7 0.7 1.2 1.5 4.5 0.5 0.6 0.4 0.4 0.3 0.3 0.6 0.5 0.3 0.1 0.4 0 0.4-0.1 0.7-0.3 0.5-0.1 0.4 0 1 0.1 0.4 0.1 0.3 0.2 1.2 1 0.3 0.3 1.2 2.5 0.5 0.5 0.5 0.3 0.3 0.2 0.3 0.2 0.3 0.3 0.1 0.3 0.2 0.1 0.3 0.1 0.9 0.2 0.4 0.2 0.4 0.5 0.4 0.9 0.4 0.4 0.5 0.2 0.9 0.1 0.4 0.2 0.7 0.4 0.4 0.2 0.4 0 1.2-0.2 0.5 0 1.6 0.5 1.3 0.3 0.4 0.1 0.4 0.2 1.4 0.8 2.4 0.8 1.5 0.1 0.4 0.1 0.4 0.2 0.5 0.6 0.3 0.1 0.4 0 0.9-0.1 0.5 0 0.9 0.2 0.5-0.1 0.9-0.1 0.4 0 0.4 0.2 0.3 0.2 0.2 0.3 0.3 0.3 0.7 1.4 0.9 1.3 1.1 1.1 0.9 0.7 0.3 0.5 0.3 0.6 0.3 1.3 0.3 0.6 0.3 0.4 0.8 0.3 0.9 0.2 0.7 0.3 0.4 0.2 0.3 0.2 0.3 0.3 0.2 0.3 0.1 0.4 1 2.8 0.1 0.7-0.4 1.8-2 5.1-0.1 0.4 0 0.6 0.1 0.8 0.2 0.5 1.3 3.1 0.7 1.3 0.2 0.3 0 0.4-0.3 0.3-1.3 1.1-0.6 0.5-0.4 0.7-0.4 0.7-0.3 0.8-1.3 5.9-0.3 0.8-0.2 0.3-0.2 0.3-0.2 0.2-1.1 0.8-0.7 0.4-0.4 0.1-0.8 0.1-0.6 0-1-0.2-0.4-0.1-1.2-0.6-0.8-0.3-0.5-0.1-3.5-0.2-1.8 0.2-0.4 0.1-1.5 0.7-0.6 0.5-1.2 0.9-2.4 2.5-0.7 0.5-0.3 0.2-1.9 0.7-2.7 1.4-2.5 0.6-0.7 0.3-0.3 0.1-0.5 0.4-0.2 0.2-0.4 0.6-1 1.1-0.4 0.3-2.3 1.3-0.3 0.2-0.2 0.3-0.2 0.7-0.2 2.5-0.3 0.7-0.3 0.5-0.3 0.2-0.3 0.3-0.5 0.6-1.2 2.1-0.1 0.5 0.1 0.6 0.4 1 0.3 0.5 0.6 0.7 0.1 0.4-0.2 0.5-0.2 0.5-3.1 4.2-0.4 0.7-0.1 0.4-0.4 1.9-0.4 0.5-0.5 0.1-0.4 0.1-1.6-0.2-0.5 0.1-0.5 0.2-0.5 0.8-0.8 0.7-9.5 6-0.4 0.5-0.1 0.6 0.1 9.2-0.2 0.5-0.2 0.5-3.4 3.1-1.6 1.8-0.6 1-0.2 0.4 0.1 0.3 0.7 0.4 5.9 2.1 0.8 0.5 6.9 6.9 0.4 0.3 0.4 0.1 0.4 0.1 0.9 0 0.9-0.2 0.4 0 0.4 0 0.4 0.2 3.7 1.9 0.5 0.1 0.4 0 0.3-0.1 0.2-0.4 0.1-0.5 0.2-2 0.4-2 0-0.5 0-0.5-0.7-1-0.6-0.7-0.9-1.2-0.3-0.6-0.2-0.8-0.1-0.8 0-0.6 0.1-0.5 0.1-0.4-0.2-0.6-1.4-2.2-0.5-1.3 0.9-1 1.3-0.9 21.4-11.4 0.6-0.2 0.5 0.1 0.4 0.2 1.2 0.9 2.6 1.5 3 1 0.7 0.4 1.5 0.8 0.4 0.4 0.4 0.5 2.1 4.2 0.5 0.6 0.3 0.2 1.6 1.1 0.5 0.4 0.5 0.5 2.1 3.6 0.1 0.4 0.1 0.4 0.2 0.9 0.3 4.2-4.5 29.8 0.5-0.5 0.7-1.3 2.3-0.8 0.4-0.6 0.1-0.7 0.3-1 0.4-0.9 0.5-0.6 2.7-1.9 0.9-1.1 0.3-1.7 0.6-0.7 0.6-0.2 1-0.2 9.7 0.1 1.3 0.3 1.3 0.7 24.1 17.5 0.3 0.4 0.2 0.3 0.1 0.4 0 0.6 0 0.2 0 0.2z" id="ZM04" name="Luapula">
  </path>
  <path d="M424.2 468.5l-2.6-1.7-1.2-1-0.3-0.5-0.4-0.7-0.3-1-0.1-0.9 0.3-5.2 0.3-1.3 0.6-1.4 0.4-0.7 0.3-0.3 1.5-1.2 0.2-0.3 0.2-0.4 0.3-0.6 0.8-3.9 0.3-0.6 0.3-0.4 0.3-0.3 0.7-0.3 1.5-0.6 0.7-0.3 0.4-0.3 0.4-0.5 0.8-2.1 0.3-0.3 0.3-0.3 1.8-0.9 0.4-0.4 0.5-0.7 0.8-1.4 0.3-0.8 0.2-0.7 0-0.5-0.1-1.4-0.3-0.8-0.8-1.8-0.2-0.5-0.1-0.7 0-1.3 0.1-0.8 0.2-0.6 0.2-0.4 0.2-0.3 0.3-0.3 0.6-0.5 4.3-2.7 0.6-0.5 0.7-0.9 0.6-0.8 0.2-0.6 0.2-0.6 2.1-9.2-0.3-0.2-0.4-0.1-0.5-0.1-0.5 0-1.7 0.3-0.5-0.2-0.4-0.3-0.3-0.6-0.2-0.4-0.4-0.2-0.3-0.2-0.2-0.2-0.4-0.8-0.2-0.3-0.2-0.3-0.4-0.2-0.3-0.1-0.3 0-1.3-0.1-0.4-0.1-0.4-0.2-0.6-0.5-0.4-0.2-2.1-0.9-0.3-0.2-0.3-0.3-0.6-0.5-0.2-0.3-0.8-0.5-0.8-0.4-0.3-0.2-0.4-0.3-0.2-0.5-0.1-0.4 0.1-0.4 0.7-1.1 0.7-1.7 0.3-0.5 0.3-0.7 0.1-0.5-0.1-0.4-0.3-0.4-1.4-1.5-0.4-0.2-0.3-0.3-0.4-0.4-0.2-0.7-0.2-0.5-0.3-0.4-0.4-0.2-0.3-0.3-0.3-0.4-0.2-0.8 0-0.4 0.5-0.9 0.3-0.7 0.7-3.4 0.2-0.6 0.2-0.4 0.7-1 0.6-0.6 0.7-0.4 0.4-0.1 0.4-0.1 1.4-0.1 0.4-0.1 0.7-0.3 0.7-0.5 0.5-0.5 0.8-0.9 0.8-1.5 2.7-3.4 0.7-0.5 0.7-0.3 3.1-0.6 0.4-0.1 0.4-0.3 0-0.3-0.2-0.3-0.5-0.6-0.1-0.1-0.7-1.8-0.1-0.5-0.1-0.6-0.1-1.1 0.2-0.7 0.2-0.6 0.2-0.4 0.3-0.8 0-2.4 0-0.5-0.9-2.8-0.1-0.4-0.1-0.6 0.3-0.1 0.4 0 1.8 0.4 2.1 0.1 0.7 0 1.5-0.3 0.9-0.1 9.8 0.9 0.5-0.1 0.5-0.4 1-1.2 0.4-0.3 1-0.6 0.3-0.2 1.2-0.6 1.1-1.3 0.4-0.4 0.3-0.1 0.8-0.3 0.4-0.2 0.6-0.4 1.2-1.1 0.6-0.4 0.3-0.1 1.2-0.4 0.6 0.6 1.3 0.8 1 0.8 0 0.4-0.1 0.5 0.2 0.5 2.2 0.4 0.9 0.4 0.3 0.2 1.1-1.5 1.2-0.4 0.3-0.2 3.3-2.3 0.3-0.2 0.4 0.3 3.3 3.7 2.2 0.7 3.5 0.3 3.5-0.2 2.5-0.6 1.5-1.2 0.8-1.1 1-0.6 2 0.2 1.6 0.6 4.4 2.7 1.1 1.4 0.2 1-0.2 0.5 0.2 0.8 0.3 0.3 0.3 1.1 1.8 0.5 1.4-0.2 1.1-0.1 5.8 0.6 0.7 0.4 0.3 0.7 0.1 0.8 0.4 0.7 0.4 0.3 0.4 1.3 0.5 0.3 0.4 0.1 0.8-0.5 0.5-0.1 0-0.4 1.1-1.1 2-0.5 1.5 0.6 1.2 1.2 1.3 0.9 2.1 0 1.5-0.2 1.6 0.1 1.4 0.4 1.4 0.8 6.4 5.6 1.1 1.7 1.5 4 0.9 1.8 2.7 2.7 0.8 1.5 0 0.6-0.3 0.3-0.7 0.3-1.8 0.1-1 0.5-0.6 0.7-0.2 0.6 0.1 0.2 0.2 0.6 0.6 1.4 1 1.2 0.2 1 1.6 2.1 1.8 1.7 1.2 1.9 0.2 4.2 0.9 0.7 1.1 0 0.5-0.2 0.4 0 0.2-0.1 0.5-0.5 0.1-0.3 0.3-0.4 1.1-2.3 1-0.6 3.7 0.8 3.1 3.2 5.2 6.9 1.4 1.2 0.6 0.9 0.7 2.8 0.3 0.4 1 0.4 0.3 0.3 0 0.4-0.4 0.9 0 0.4 0.1 0.3-0.1 0.8 0 0.5 0.3 0.3 0.5 0.2 0.4 0.1 0.3 0.1 0.4 1.7 0 0.1-0.2 1.6 0.5 0.8 0.3 0.2 0.4-0.5 0.6 0 0.3 0.3 0.1 0.7 0.8 0 0.9-0.4 0.4 0.2 0.1 0.1 2.4 11.8 1.2 3.3 1.8 1.7 0.1 0.1 0.1 0.2 0.1 0 0.3 0.3 0.8 1 0.6 1.5 0.4 0.4 0.6 0.2 0.6 0 0.7-0.5 0.8-0.7 1.2-0.6 0.8-0.4-0.1 0.4-0.2 0.2-0.3 0.4-3 3-5 6.3-0.3 0.2-0.3 0.3-3.1 1.1-2.7 1.6-0.6 0.5-1.6 1.7-1.4 2-0.5 0.6-11.2 8.6-0.3 0.3-0.2 0.3-0.1 0.4 0.6 8.9-0.4 0.4-0.8 0.3-6.3 0.2-3 0.6-0.4 0.1-1 0.6-0.8 0.4-0.3 0.1-0.6 0.1-5 0.4-1.4-0.2-3.7-1.1-0.8 0-2.5 0-1.4 0.3-1.6 0.5-0.6 0-1-0.1-4.8-1.3-0.6-0.1-0.7 0-1 0.2-0.5 0.2-0.4 0.3-0.2 0.3-0.3 0.3-0.7 0.4-0.3 0.2-0.4 0.1-2.8 0.4-4.3 0-0.9 0.2-0.7 0.2-0.3 0.2-0.6 0.1-2.1 0-0.7 0.2-0.5 0.2-1 0.6-0.3 0.2-0.5 0.1-0.6-0.1-0.9-0.5-1.6-1.3-0.9-1.4-0.8-1.5-5.2-13-1.2-1.1-1.5-0.4-6.5-0.6-0.9-0.2-0.8-0.4-1.4-0.9-0.4-0.2-0.5-0.1-1.3-0.2-1.2 1.3 0 1 0.4 1-0.2 1.1-0.4 0.1-0.6 0-0.7 0.1-0.5 0.3-0.2 0.7 0.1 0.5 0.2 0.5-0.1 0.5-0.7 1.2-2.5 3.2-0.1 0.6 0.1 0.6 0 0.6-0.5 0.4-0.5-0.1-0.5-0.4-0.4-0.5-0.5-1.4-0.9-0.2-1 0.3-0.7 0.4-0.4 1 0.1 1.2 0.6 1.6-0.8 2-1.7 2-2.1 1.6-1.4 0.6-0.8-0.7-0.3-0.2-0.4-0.4-0.3-0.5-0.5-1.6-0.1-1.4-0.1-0.4-0.3-0.8-0.2-1.3-0.1-0.4-0.2-0.4-0.2-0.3-1.1-1.1-0.2-0.3-0.2-0.3-0.6-2 0-0.4 0.1-0.5 0.1-0.4 0.1-0.5-0.1-0.5-6.7-0.9-31.8-1z" id="ZM08" name="Copperbelt">
  </path>
  <path d="M654 344.2l0.8-0.2 0.3-0.2 0.4-0.2 0.2-0.3 0.7-1 0.4-0.8 0.1-0.4 0.1-0.4 0.4-4.1 0.2-0.4 0.1-0.4 0.3-0.3 0.2-0.3 0.4-0.2 6.2-2.7 1.7-0.4 1.8-0.2 0.4 0 0.5 0.3 0.7 0.7 1.3 1.7 1.5 2.6 0.1 0.4 0.1 0.4 0.1 1.4 0.1 0.4 0.1 0.4 0.3 0.5 1.2 1.6 0.3 0.7 0.5 0.5 0.5 0.5 1.2 0.8 0.7 0.3 0.6 0.2 1 0.2 0.5 0.2 0.4 0.4 0.7 1.4 0.4 0.4 1.7 0.7 1 0.2 0.4 0.1 0.4 0.2 0.3 0.2 0.4 0.2 1.3 0.5 1.1 0.6 0.8 0.3 1.9 0.4 0.4 0.1 1.1 0.7 0.4 0.1 0.4 0.1 1.4 0 0.6 0.2 0.7 0.3 1.2 0.7 0.7 0.2 0.6 0 1.3-0.2 0.9 0 0.5 0.1 0.4 0.3 0.4 0.4 0.5 0.8 0.3 0.5 0.5 0.5 0.7 0.3 0.5 0.1 0.5-0.1 0.8-0.3 0.9-0.1 0.8 0.2 0.5 0.3 0.4 0.4 0.4 0.8 0.2 0.7 0 0.6-0.1 3.5-0.2 0.9-0.8 1.6-0.1 0.4-0.1 0.5 0 0.9 0.1 0.9 0.1 0.4 0.1 0.4 0.4 0.4 0.5 0.4 1 0.7 2 0.9 0.7 0.4 0.4 0.4 0.4 0.6 0.3 1 0 0.7-0.1 0.5-0.6 1.7-0.1 0.4 0 0.5 0.1 0.4 0.6 0.7 0.8 0.9 2.2 1.7 1.1 0.6 0.8 0.2 1-0.5 0.7-0.5 0.6-0.5 1-1.2 0.3-0.2 0.4 0 0.4 0.2 0.3 0.4 1.1 2.4 0.5 0.8 0.6 0.5 0.8 0.6 1.6 0.7 0.3 0.3 0.3 0.4 0.3 0.8 0 0.5-0.1 0.6-0.2 0.4-0.1 0.4-0.5 0.6-1 1.3-0.2 0.3-0.9 2 0 0.5 0 0.4 1.2 4 0.1 0.9 0 0.5-0.3 1.9 0.2 0.6 0.5 0.5 4.8 3.4 1.6 0.7 0.6 0.5 0.8 0.4 0.4 0.1 1 0 2.5-0.6 0.5 0 0.5 0.1 2.7 0.8 1 0.1 0.5 0.1 2.1 0.7 0.7 0.1 0.4-0.1 1 0.1 0.9 0.7 5.8 5.7 1 0.7 0.6 0.1 1 0 0.4-0.1 0.4-0.1 0.4-0.2 0.3-0.2 0.3-0.3 0.2-0.3 0.2-0.4 0.7-1.7 0.1-0.1 0.1-0.7 0.1-1.5 0.1-0.4 0.3-0.3 0.3-0.3 0.7-0.3 1.5-0.6 0.5 0 3.4 0 1 0.1 0.5 0.2 2.7 1.3 0.6 0.4 0.4 0.3 0.3 0.4 0.5 1 0.2 1.3 1.2 17.4 0.5 1.5 1.5 2.9 1.8 2 1 1.3 0.1 0.8 0.1 1.4 0 2.7 0 4-1.7 1.2-3.7 0.8-1.7 1-3.2 2.5-0.7 0.7-0.3 0.3-0.6-0.4-0.7-0.1-0.6 0.2-0.3 0.6-0.3 1.1-1.5 1.8-0.8 2-1 0.1-2-0.4-0.7 0.2-0.9 1.2-2.1 0.9-1 1.6-1.4 5.8-0.5 1.1-1.9 2-0.2 0.2-1.2 1.3 0.4 1.3-0.8 0.6-2.2 0.2-0.9 0.5-2.1 1.5-1 0.3-0.6 0.6 0 1.3-0.3 1.3-1.7 0.6-0.1 0.3-1.3 1.9-1.2 1.1-0.5 0.7-0.4 1-0.8 0.4-0.7 0.2-60.3 0.2 0 0.2 0.2 0.2 0.5 0.2 0.9 0.3 1.5 0.2 0.5 0.1 0.4 0.3 0.4 0.8 2 6.4 0.4 0.5 0.4 0.3 2 0.8 3.7 1.1 0.8 0.4 0.4 0.2 0.8 0.8 0.4 0.2 0.3 0.2 0.4 0.2 0.2 0.3 0.3 0.8 0.5 0.6 0.1 0.4 0.1 0.4 0.1 1 0 0.5-0.1 0.7-0.4 1-0.4 0.9-0.8 1.3-0.5 0.7-0.9 0.7-2 1.1-0.7 0.5-1 1.1-0.7 0.4-0.4 0.3-0.3 0.5-0.3 0.9-0.4 0.6-0.6 0.6-2.2 1.9-3 4.1-0.6 0.6-0.5 0.3-0.4 0-0.4 0-1-0.1-0.4 0-0.4 0.2-0.3 0.5-0.3 0.7-0.2 1.1-0.3 0.7-0.4 0.5-0.4 0.3-0.4 0.2-0.6 0.4-0.9 0.8-0.2 0.6-0.3 0.8-0.2 1.7-0.5 1.5-0.2 0.2-0.3 0.5-0.3 0.9-0.7 3-0.4 4 0.4 0.9 1.7 1.4 1.9 2.3 0.4 0.6-4-0.3-0.7-0.4-0.7-0.8-0.4-0.2-0.4-0.1-0.5 0-0.5 0.1-0.6 0.2-0.7 0.4-0.8 0.1-0.7 0.3-0.5-0.2-0.2-0.3-0.3-0.2-0.4 0-0.4 0.6-0.6 1.6-0.2 0.4-0.2 0.3-0.3 0.3-0.4 0.3-0.7 0.2-1.2 0.1-0.8 0-0.6-0.1-1.2-0.3-0.6 0-0.5 0.3-1.5 1.3-0.4 0.2-0.4 0.2-1.7-0.2-0.5 0.1-6.1 2.4-0.4 0.3-0.5 0.5-0.7 0.6-4.6 2.6-0.6 0.5-0.4 0.2-2.5 0.1-0.5-0.1-0.6 0.2-0.6 0.5-1.1 1.5-0.5 1.1-0.3 1.8-0.8 3.4-2.2 4-5.1 0.9-6.4 0.2-6.5-1.7-13.6 4.2-4 0.8-4.3 1.9-9.6 8.6-6.1 2.2-6.9 0.8-6.7 0.2-12.8-3.5-2.3 1.4-2.5 5-2 5.7-2.1 3.7-2.4 0.9-4.5-0.9-13.1-4.3-13.2-2.2-1 0-1 0.2-0.7 0.3-3.9 2.6-0.7 0.9-0.2 0.8 0.5 1.2 1.1 0.7 1.8 0.5 4.2 0.6 1.1 0.4 1 1 2 3.9 1.1 3.7 0.2 1.3 0.1 0.8-0.1 0.5-0.1 0.5-0.7 0.9-1.4 1.1-8.3 2.3-3.3 7.1-0.3 0.2-0.4 0.8-0.3 0.2-0.6-0.1-0.8-0.5-0.5 0-0.8 0-0.5 0.3-0.8 0.8-0.5-0.7-0.3-0.7-0.5-0.5-0.4-0.4-0.4-0.3-0.9-1-0.2-0.3 0-0.3 0.1-0.4 0.3-0.2 0.3-0.3 0.3-0.2 0.1-0.3 0-0.3-0.2-0.3-0.2-0.4 0-0.4 0.1-1.6-0.1-0.4-0.2-0.4-1.3-0.5-0.3-0.2-0.1-0.5 0-0.4-0.1-0.5-0.2-0.3-0.4-0.4-4-1.3-0.4-0.2-0.1 0-0.1-0.3 0.2-0.8-0.2-0.4-0.4-0.2-1.2 0.1-0.6 0.2-0.4 0.4-0.1 0.4 0 0.6-0.2 0.4-1 0.5-0.3 0.4-0.1 0.4 0 0.5-0.2 0.4-0.1 0.4-0.3 0.3-0.2 0.2-0.5 0.3-0.5 0.5-0.3 0.3-0.3 0.2-0.4 0.2-0.4 0.1-0.3 0.2-0.3 0.3-0.1 0.4-0.2 0.4-0.3 0.2-0.4 0-1.3-0.7-1.4-0.4-0.4 0-0.3 0.5-0.2 0.5-6.5 11.8-0.2 0.7-1.3 0.7-0.8-1.2-0.9-0.2 0-1-4-17.5-2-1.2-18.2-1-0.7-0.2 0.3-0.5 1.9-1.6 0-0.5-0.8-0.7-10.3-6.1-3.1-0.7-4.5-0.5-110.5-3 0.1-5.5-0.4-3 0.1-0.7 0.1-0.5 0.3-0.3 2.3-2.1 0.5-0.6 0.3-0.3 0.4-0.2 0.4 0 0.5 0 0.4 0.1 0.5 0.1 0.5-0.1 0.6-0.4 0.3-0.5 0.1-0.5-0.2-2.3 0.1-0.8 0.3-0.4 1.2-1.2 1.1-1.6 0.4-1 0.3-0.7 0.1-3.5-0.1-0.4-0.1-0.4-2.3-4.2-0.1-0.6-0.1-0.8 0-1.6 0.2-0.8 0.2-0.6 0.7-0.8 0.4-0.8 0.2-0.7 0.1-0.9 0.1-0.6 0.2-0.4 0.3-0.4 0.3-0.2 0.3-0.2 0.9-0.3 0.4-0.3 0.2-0.4 0-0.5 0-0.9 0.2-2.6-0.5-1.6-0.1-1.2 0.1-0.7 0.1-0.6 0.5-0.8 0.2-0.3 0.2-0.4 0.8-1.9 0.5-1 1.3-2.1 0.5-0.6 0.3-0.3 0.3-0.2 0.3-0.2 0.6-0.1 1.8-1.3 1.1-0.8 1.3-0.3 1.4 0 43 5.3 0.4 0.4 0.3 0.4 0.6 1.1 0.6 0.7 0.8 0.5 1.2 0.3 2 0.3 3.4 1.7 0.6 0.6 0.5 0.7 0.5 0.7 0.8 0.2 0.8-0.2 2.7-1.2 0.5-4.1 0.9-1.7 3.2-3.8 4.9-3.8 3.3-5 0.6-0.8 1.1-0.7 1.2-0.6 1.3-0.1 0.8 0.3 1.4 0.7 1 0.1 0.4-0.2 0.3-0.3 0.3-0.4 0.9-0.2 6.4 0.5 1.4-0.4 2.8-1.9 1.1-0.4 9.6-0.4 1.3-1.2 0.4-0.4 0.5-1.3-0.2-8.9-0.1-0.4 0-0.4 0.1-0.4 0.4-0.7 1.4-2 0.2-0.4 0.1-0.4 0.1-0.5 0-0.5 0-1-0.2-0.8-0.7-1.5-0.6-1-3.8-5-0.9-0.8-3-1.6-0.3-0.3-0.2-0.4 0.5-0.5 0.7-0.4 1.6-0.5 0.7-0.4 0.4-0.4 0.1-0.4 0.1-0.4-0.2-3 0.1-2 0.3-2.2 0.6-1.7 1.6-2.4 0.8-1.6 0.2-0.4 0.1-0.5 0-0.5-0.1-0.3-0.3-0.3-2.4-1.2-0.7-0.4-0.3-0.3-0.5-0.6-0.2-0.3-0.2-0.3-0.3-1.3-0.3-0.7-0.4-0.7-0.5-0.6-0.5-0.6-0.6-0.5-0.7-0.3 31.8 1 6.7 0.9 0.1 0.5-0.1 0.5-0.1 0.4-0.1 0.5 0 0.4 0.6 2 0.2 0.3 0.2 0.3 1.1 1.1 0.2 0.3 0.2 0.4 0.1 0.4 0.2 1.3 0.3 0.8 0.1 0.4 0.1 1.4 0.5 1.6 0.3 0.5 0.4 0.4 0.3 0.2 0.8 0.7 1.4-0.6 2.1-1.6 1.7-2 0.8-2-0.6-1.6-0.1-1.2 0.4-1 0.7-0.4 1-0.3 0.9 0.2 0.5 1.4 0.4 0.5 0.5 0.4 0.5 0.1 0.5-0.4 0-0.6-0.1-0.6 0.1-0.6 2.5-3.2 0.7-1.2 0.1-0.5-0.2-0.5-0.1-0.5 0.2-0.7 0.5-0.3 0.7-0.1 0.6 0 0.4-0.1 0.2-1.1-0.4-1 0-1 1.2-1.3 1.3 0.2 0.5 0.1 0.4 0.2 1.4 0.9 0.8 0.4 0.9 0.2 6.5 0.6 1.5 0.4 1.2 1.1 5.2 13 0.8 1.5 0.9 1.4 1.6 1.3 0.9 0.5 0.6 0.1 0.5-0.1 0.3-0.2 1-0.6 0.5-0.2 0.7-0.2 2.1 0 0.6-0.1 0.3-0.2 0.7-0.2 0.9-0.2 4.3 0 2.8-0.4 0.4-0.1 0.3-0.2 0.7-0.4 0.3-0.3 0.2-0.3 0.4-0.3 0.5-0.2 1-0.2 0.7 0 0.6 0.1 4.8 1.3 1 0.1 0.6 0 1.6-0.5 1.4-0.3 2.5 0 0.8 0 3.7 1.1 1.4 0.2 5-0.4 0.6-0.1 0.3-0.1 0.8-0.4 1-0.6 0.4-0.1 3-0.6 6.3-0.2 0.8-0.3 0.4-0.4-0.6-8.9 0.1-0.4 0.2-0.3 0.3-0.3 11.2-8.6 0.5-0.6 1.4-2 1.6-1.7 0.6-0.5 2.7-1.6 3.1-1.1 0.3-0.3 0.3-0.2 5-6.3 3-3 0.3-0.4 0.2-0.2 0.1-0.4 0.5-0.2 0.2 0 1.9-0.3 1.9 0 1.7 0.8 0.7 1 0.5 1.2 0.7 0.9 0.7 0.2 0.2 0.4 0.2 0.2 0.6-0.3 1.6-1.8 0.8-0.4 1-0.4 1.1-1.1 1-0.5 1.5-0.5 0.8-0.2 0.6-0.3 0.6-0.5 0.3-0.6 0-0.7 1.9-0.7 0.1 0.1 0.5 0.3 0.5 0 0.5-0.4 0.2-0.7 1.7-0.6 0.4 0.1 0.4-0.1 0.8-0.3 0.4-0.1 0.3-0.2 1.3-0.2 1.2-0.3 0.4-0.2 0.4-0.6 0.9-0.9 0.5-0.3 1.4-1.3 0.3-0.1 0.3-0.4 0-0.1 2.5-2.4 1.4-0.7 1.1 0.2 0.4-0.3 0.7 0.1 1.5 0.8 1.3 1.1 1.5 0.9 0.9 0.2 0.7-0.3 0.6 0 0.7 0.9 0.1 0.5-0.6 0.3-0.5 0.6 0 0.8 0.5 0.7-0.1 0.2-0.6 0.4-1.4 0.3-0.5 0.6-0.1 0.7 0.1 1.6 0 0.2-1.4 0.2-0.3 0.3 0 0.5 0.1 0.1-0.3 0.3 0 1.1 0.3 0.9 0.4 0.9 0.5 0.8 0.7 0.7 1.2 0.7 1.6 0.7 3.1 0.8 5 0.1 1.2-0.2 0.5-1.1 1.2 0.9 0.4 0.1 0-3.1 0-8.2 0-4.1 0.1-1.4-0.1-0.1 0-5.5 0-2.2 0-1.9 0-3.3 0-6.3 0-0.7 0-1 0-2 0-1.7 0-5.4 0-2.7 0-1.4 0-0.5 0-1.7 0-7.2 0-2.2 0-1.3 0-2.7 0-5.8 0-2.9 0-5.6 0-2.1 0-7.3 0-4.2 0-2.4 0-1.6 0-2.4 0-2.3-0.1-0.2z" id="ZM02" name="Central">
  </path>
 </g>
 <g id="points">
  <circle class="-17.580563830527513|22.564593807202908" cx="90.9" cy="780.5" id="0">
  </circle>
  <circle class="-13.671219638792412|28.411756285147817" cx="545.5" cy="464.9" id="1">
  </circle>
  <circle class="-8.784539399123535|33.089486267503744" cx="909.1" cy="77.5" id="2">
  </circle>
 </g>
 <g id="label_points">
  <circle class="Muchinga" cx="822.2" cy="279.4" id="ZM10">
  </circle>
  <circle class="Eastern" cx="829.3" cy="470.9" id="ZM03">
  </circle>
  <circle class="Northern" cx="705" cy="120.2" id="ZM05">
  </circle>
  <circle class="Lusaka" cx="608.1" cy="602.1" id="ZM09">
  </circle>
  <circle class="Southern" cx="397.2" cy="705.6" id="ZM07">
  </circle>
  <circle class="Western" cx="173.7" cy="628.3" id="ZM01">
  </circle>
  <circle class="North-Western" cx="305.6" cy="408.7" id="ZM06">
  </circle>
  <circle class="Luapula" cx="609.4" cy="304.9" id="ZM04">
  </circle>
  <circle class="Copperbelt" cx="503" cy="414" id="ZM08">
  </circle>
  <circle class="Central" cx="556.6" cy="533.5" id="ZM02">
  </circle>
 </g>
</svg>